<?xml version="1.0" encoding="utf-8"?>
<!-- Generator: Adobe Illustrator 18.1.0, SVG Export Plug-In . SVG Version: 6.00 Build 0)  -->
<svg version="1.1" id="Layer_1" xmlns="http://www.w3.org/2000/svg" xmlns:xlink="http://www.w3.org/1999/xlink" x="0px" y="0px"
	 width="24px" height="24px" viewBox="0 0 24 24" enable-background="new 0 0 24 24" xml:space="preserve">
<g>
	<path fill="none" stroke="#000000" stroke-linecap="round" stroke-linejoin="round" d="M19.5376,18.3318l0.1328-9.8089
		c0-0.864-0.7285-1.7746-1.0241-2.1086c-0.0669-0.0756-0.178-0.0756-0.245,0c-0.2956,0.334-1.0241,1.2447-1.0241,2.1086
		l0.0772,5.2734"/>
	<path fill="none" stroke="#000000" stroke-linecap="round" stroke-linejoin="round" d="M6.5944,13.8353l0.0777-5.3125
		c0-0.864-0.7285-1.7746-1.0241-2.1086c-0.0669-0.0756-0.178-0.0756-0.245,0C5.1074,6.7482,4.379,7.6589,4.379,8.5229l0.1328,9.8089
		"/>
	<path fill="none" stroke="#000000" stroke-linecap="round" stroke-linejoin="round" d="M15.3319,10.4271l0.1445-4.4793
		c0-2.1322-2.1977-4.3798-3.0897-5.2041c-0.2019-0.1867-0.5371-0.1867-0.739,0C10.7558,1.5681,8.558,3.8156,8.558,5.9479
		l0.1429,4.4793"/>
	<path fill="none" stroke="#000000" stroke-linecap="round" stroke-linejoin="round" d="M10.4321,11.2612
		c0,0-0.3535,1.8594-2.155,3.2733s-1.6731,2.486-1.6731,2.486l3.8281,0.4205"/>
	<path fill="none" stroke="#000000" stroke-linecap="round" stroke-linejoin="round" d="M13.6023,11.2612
		c0,0,0.3535,1.8594,2.155,3.2733s1.6731,2.486,1.6731,2.486l-3.8281,0.4205"/>
	<path fill="none" stroke="#000000" stroke-linecap="round" stroke-linejoin="round" d="M12.4909,7.9382
		c-0.0975-0.1343-0.2689-0.2287-0.4737-0.2287s-0.3762,0.0944-0.4737,0.2287"/>
	<path fill="none" stroke="#000000" stroke-linecap="round" stroke-linejoin="round" stroke-miterlimit="10" d="M6.4077,20.5152
		c0,0.4329-0.3509,2.7054-0.7838,2.7054s-0.7838-2.2725-0.7838-2.7054s0.3509-0.7838,0.7838-0.7838S6.4077,20.0823,6.4077,20.5152z"
		/>
	<path fill="none" stroke="#000000" stroke-linecap="round" stroke-linejoin="round" stroke-miterlimit="10" d="M19.1943,20.5152
		c0,0.4329-0.3509,2.7054-0.7838,2.7054s-0.7838-2.2725-0.7838-2.7054s0.3509-0.7838,0.7838-0.7838S19.1943,20.0823,19.1943,20.5152
		z"/>
	<path fill="none" stroke="#000000" stroke-linecap="round" stroke-linejoin="round" stroke-miterlimit="10" d="M12.967,20.3391
		c0,0.461-0.4252,2.8814-0.9498,2.8814s-0.9498-2.4204-0.9498-2.8814s0.4252-0.8348,0.9498-0.8348S12.967,19.8781,12.967,20.3391z"
		/>
	<path fill="none" stroke="#000000" stroke-linecap="round" stroke-linejoin="round" d="M12.0173,5.7482
		c-0.8755,0-1.5852,1.3089-1.5852,2.5347v9.5786c0,0.1161,0.7097,0.2102,1.5852,0.2102c0.8754,0,1.5851-0.0941,1.5851-0.2102V8.2829
		C13.6023,7.0571,12.8927,5.7482,12.0173,5.7482z"/>
</g>
<rect x="0.0172" y="0.0031" fill="none" width="24" height="24"/>
</svg>
