<?xml version="1.0" encoding="utf-8"?>
<!-- Generator: Adobe Illustrator 18.1.0, SVG Export Plug-In . SVG Version: 6.00 Build 0)  -->
<svg version="1.1" id="Layer_1" xmlns="http://www.w3.org/2000/svg" xmlns:xlink="http://www.w3.org/1999/xlink" x="0px" y="0px"
	 width="24px" height="24px" viewBox="0 0 24 24" enable-background="new 0 0 24 24" xml:space="preserve">
<g>
	<path fill="none" stroke="#000000" stroke-linecap="round" stroke-linejoin="round" d="M1.8265,16.6015v-3.1771
		c0-6.5583,4.5188-11.8749,10.0929-11.8749S22.0123,6.866,22.0123,13.4244v3.1771"/>
	<path fill="none" stroke="#000000" stroke-linecap="round" stroke-linejoin="round" stroke-miterlimit="10" d="M7.5382,20.9235
		c0,1.298-1.0523,2.3503-2.3503,2.3503l0,0c-1.298,0-2.3503-1.0523-2.3503-2.3503v-4.8608c0-1.298,1.0523-2.3503,2.3503-2.3503l0,0
		c1.298,0,2.3503,1.0523,2.3503,2.3503V20.9235z"/>
	<path fill="none" stroke="#000000" stroke-linecap="round" stroke-linejoin="round" stroke-miterlimit="10" d="M2.8376,20.5535
		c-1.1379,0-2.0604-0.9225-2.0604-2.0604l0,0c0-1.1379,0.9225-2.0604,2.0604-2.0604"/>
	<path fill="none" stroke="#000000" stroke-linecap="round" stroke-linejoin="round" stroke-miterlimit="10" d="M16.4345,16.0627
		c0-1.298,1.0523-2.3503,2.3503-2.3503l0,0c1.298,0,2.3503,1.0523,2.3503,2.3503v4.8608c0,1.298-1.0523,2.3503-2.3503,2.3503l0,0
		c-1.298,0-2.3503-1.0523-2.3503-2.3503V16.0627z"/>
	<path fill="none" stroke="#000000" stroke-linecap="round" stroke-linejoin="round" stroke-miterlimit="10" d="M21.1351,16.4327
		c1.1379,0,2.0604,0.9225,2.0604,2.0604l0,0c0,1.1379-0.9225,2.0604-2.0604,2.0604"/>
	<path fill="none" stroke="#000000" stroke-linecap="round" stroke-linejoin="round" d="M17.7498,6.3795
		c-1.647-1.3748-3.6573-2.1867-5.8304-2.1867c-2.1731,0-4.1834,0.812-5.8304,2.1867"/>
</g>
<rect x="-0.0137" y="0.0002" fill="none" width="24" height="24"/>
</svg>
