<?xml version="1.0" encoding="utf-8"?>
<!-- Generator: Adobe Illustrator 18.1.0, SVG Export Plug-In . SVG Version: 6.00 Build 0)  -->
<svg version="1.1" id="Layer_1" xmlns="http://www.w3.org/2000/svg" xmlns:xlink="http://www.w3.org/1999/xlink" x="0px" y="0px"
	 width="24px" height="24px" viewBox="0 0 24 24" enable-background="new 0 0 24 24" xml:space="preserve">
<g>
	<g>
		<path fill="none" stroke="#000000" stroke-linecap="round" stroke-linejoin="round" d="M3.3663,16.2082
			c0,0-1.84-1.3949-1.84-3.7521c0-1.7029,1.4234-2.992,3.001-2.992h1.2993c1.4668,0,2.6559-1.1855,2.6559-2.6479
			c0-1.4624-1.1891-2.6479-2.6559-2.6479H4.7141"/>
	</g>
	
		<line fill="none" stroke="#000000" stroke-linecap="round" stroke-linejoin="round" x1="1.0791" y1="5.0725" x2="2.445" y2="5.0724"/>
	
		<line fill="none" stroke="#000000" stroke-linecap="round" stroke-linejoin="round" x1="1.0792" y1="3.2762" x2="2.445" y2="3.2763"/>
	<path fill="none" stroke="#000000" stroke-linecap="round" stroke-linejoin="round" d="M3.1094,5.7912
		c0.8862,0,1.6048-0.7266,1.6047-1.623c0.0001-0.8963-0.7184-1.6228-1.6047-1.6228l-0.6643,0L2.445,5.7913L3.1094,5.7912z"/>
	
		<line fill="none" stroke="#000000" stroke-linecap="round" stroke-linejoin="round" stroke-miterlimit="10" x1="9.5155" y1="21.5002" x2="14.468" y2="21.5002"/>
	<g>
		<circle fill="none" stroke="#000000" stroke-linecap="round" stroke-linejoin="round" cx="5.4739" cy="21.5002" r="1.948"/>
		<circle fill="none" stroke="#000000" stroke-linecap="round" stroke-linejoin="round" cx="18.4619" cy="21.5002" r="1.948"/>
		<path fill="none" stroke="#000000" stroke-linecap="round" stroke-linejoin="round" stroke-miterlimit="10" d="M22.4268,21.5002
			h0.8667c-0.0857-5-4.0746-5.1586-5.4018-5.0726c-0.2382,0.0154-0.4534-0.1409-0.513-0.3714
			c-0.3122-1.2088-1.6086-4.5442-6.2688-4.5203c-0.1195,0.0006-1.1879,0-1.3039,0.0034c-5.5682,0.1639-6.3186,3.4469-6.4139,4.5715
			c-0.0186,0.2201-0.1869,0.377-0.4001,0.4369c-2.4619,0.6918-2.3615,4.9524-2.3615,4.9524h0.6995"/>
	</g>
</g>
<rect x="0.0005" y="0" fill="none" width="24" height="24"/>
</svg>
