<?xml version="1.0" encoding="utf-8"?>
<!-- Generator: Adobe Illustrator 18.1.0, SVG Export Plug-In . SVG Version: 6.00 Build 0)  -->
<svg version="1.1" id="Layer_1" xmlns="http://www.w3.org/2000/svg" xmlns:xlink="http://www.w3.org/1999/xlink" x="0px" y="0px"
	 width="24px" height="24px" viewBox="0 0 24 24" enable-background="new 0 0 24 24" xml:space="preserve">
<g>
	<path fill="none" stroke="#000000" stroke-linecap="round" stroke-linejoin="round" d="M0.4793,11.7181V8.5176H23.457v11.4372
		c0,0.3207-0.26,0.5807-0.5807,0.5807H11.7036c0.218-0.3713,0.3069-0.8276,0.1934-1.3099c-0.1556-0.661-0.7008-1.1827-1.368-1.3091
		c-1.1245-0.213-2.1067,0.6436-2.1067,1.7294c0,0.3249,0.0895,0.6283,0.2428,0.8896H0.4793v-4.8763
		c0.8808-0.224,1.5332-1.02,1.5332-1.9706C2.0125,12.7382,1.3601,11.9421,0.4793,11.7181z"/>
	<path fill="none" stroke="#000000" stroke-linecap="round" stroke-linejoin="round" d="M0.4793,8.5176H23.457
		c0,0,0.1757-5.184-9.5445-5.9536c-0.4035-0.032-0.8085,0.0477-1.1754,0.2187L0.4793,8.5176z"/>
	<circle fill="none" stroke="#000000" stroke-linecap="round" stroke-linejoin="round" cx="16.3477" cy="16.5592" r="2.1282"/>
	<circle fill="none" stroke="#000000" stroke-linecap="round" stroke-linejoin="round" cx="19.6333" cy="11.8292" r="1.4604"/>
	<circle fill="none" stroke="#000000" stroke-linecap="round" stroke-linejoin="round" cx="8.928" cy="13.9634" r="1.5561"/>
	<circle fill="none" stroke="#000000" stroke-linecap="round" stroke-linejoin="round" cx="13.3074" cy="11.4872" r="0.9121"/>
	<circle fill="none" stroke="#000000" stroke-linecap="round" stroke-linejoin="round" cx="4.3172" cy="16.9685" r="1.2815"/>
	
		<line fill="none" stroke="#000000" stroke-linecap="round" stroke-linejoin="round" x1="20.8227" y1="18.6874" x2="20.8227" y2="18.6874"/>
	
		<line fill="none" stroke="#000000" stroke-linecap="round" stroke-linejoin="round" x1="4.3172" y1="11.2956" x2="4.3172" y2="11.2956"/>
</g>
<rect x="0" y="0.0197" fill="none" width="24" height="24"/>
</svg>
