<?xml version="1.0" encoding="utf-8"?>
<!-- Generator: Adobe Illustrator 18.1.0, SVG Export Plug-In . SVG Version: 6.00 Build 0)  -->
<svg version="1.1" id="Layer_1" xmlns="http://www.w3.org/2000/svg" xmlns:xlink="http://www.w3.org/1999/xlink" x="0px" y="0px"
	 width="24px" height="24px" viewBox="0 0 24 24" enable-background="new 0 0 24 24" xml:space="preserve">
<g>
	<polyline fill="none" stroke="#000000" stroke-linecap="round" stroke-linejoin="round" stroke-miterlimit="10" points="
		11.9992,20.1552 5.2624,23.2401 3.563,19.529 7.0973,17.9242 	"/>
	<polyline fill="none" stroke="#000000" stroke-linecap="round" stroke-linejoin="round" stroke-miterlimit="10" points="
		12.0015,15.6648 18.736,12.581 20.4354,16.2921 16.901,17.9106 	"/>
	
		<line fill="none" stroke="#000000" stroke-linecap="round" stroke-linejoin="round" stroke-miterlimit="10" x1="4.2474" y1="21.0237" x2="6.103" y2="20.174"/>
	
		<line fill="none" stroke="#000000" stroke-linecap="round" stroke-linejoin="round" stroke-miterlimit="10" x1="16.558" y1="16.2498" x2="19.751" y2="14.7974"/>
	
		<rect x="3.6551" y="15.8697" transform="matrix(-0.9092 -0.4163 0.4163 -0.9092 15.452 39.1907)" fill="none" stroke="#000000" stroke-linecap="round" stroke-linejoin="round" stroke-miterlimit="10" width="16.6882" height="4.0817"/>
	
		<line fill="none" stroke="#000000" stroke-linecap="round" stroke-linejoin="round" stroke-miterlimit="10" x1="19.751" y1="21.0237" x2="17.8954" y2="20.174"/>
	
		<line fill="none" stroke="#000000" stroke-linecap="round" stroke-linejoin="round" stroke-miterlimit="10" x1="7.4404" y1="16.2498" x2="4.2474" y2="14.7974"/>
	<path fill="none" stroke="#000000" stroke-linecap="round" stroke-linejoin="round" stroke-miterlimit="10" d="M16.9898,10.9954
		c0.3075-2.3254-2.177-4.5878-0.1944-6.9013c0.0832-0.0962-0.0035-0.2427-0.1244-0.2202c-1.6832,0.2805-2.5508,2.5564-2.7855,3.4324
		C13.1122,5.8339,12.9823,3.09,12.9823,0.865c0-0.1045-0.1149-0.1687-0.2039-0.1156c-2.94,1.7654-2.0536,6.8976-3.0497,8.4068
		C9.7212,9.1591,9.714,9.1624,9.7068,9.1652c-0.2994-1.0668-2.3333-3.8376-2.5347-3.989C7.0639,5.0973,6.9187,5.2051,6.9646,5.3303
		c0.6234,1.7131-0.1284,3.8632,0.0262,5.7434"/>
</g>
<rect x="-0.0008" y="-0.0147" fill="none" width="24" height="24"/>
</svg>
