<?xml version="1.0" encoding="utf-8"?>
<!-- Generator: Adobe Illustrator 18.1.0, SVG Export Plug-In . SVG Version: 6.00 Build 0)  -->
<svg version="1.1" id="Layer_1" xmlns="http://www.w3.org/2000/svg" xmlns:xlink="http://www.w3.org/1999/xlink" x="0px" y="0px"
	 width="24px" height="24px" viewBox="0 0 24 24" enable-background="new 0 0 24 24" xml:space="preserve">
<g>
	<path fill="none" stroke="#000000" stroke-linecap="round" stroke-linejoin="round" stroke-miterlimit="10" d="M13.5564-0.3076
		c0,0,1.5999,0.4635-0.4502,3.523c-2.0499,3.0592,0,3.2446,0,3.2446"/>
	<path fill="none" stroke="#000000" stroke-linecap="round" stroke-linejoin="round" stroke-miterlimit="10" d="M16.2014,3.0701
		c0,0,0.9115,0.2643-0.2562,2.0075c-1.1683,1.7432,0,1.8489,0,1.8489"/>
	<path fill="none" stroke="#000000" stroke-linecap="round" stroke-linejoin="round" stroke-miterlimit="10" d="M10.0213,2.6036
		c0,0,0.9115,0.2643-0.2562,2.0075c-1.1683,1.7432,0,1.8489,0,1.8489"/>
	<path fill="none" stroke="#000000" stroke-linecap="round" stroke-linejoin="round" stroke-miterlimit="10" d="M13.8306,8.8544
		c3.4147,0.5335,11.4478,2.0406,9.1264,7.8442c-2.8661,7.1654-10.1863-2.4872-15.085-0.6034
		c-7.0608,2.7153-10.2728-1.6295-3.3941-6.1848C6.8915,8.312,9.0034,8.1002,13.8306,8.8544z"/>
	<path fill="none" stroke="#000000" stroke-linecap="round" stroke-linejoin="round" stroke-miterlimit="10" d="M0.6638,14.8884
		l0.0574,2.4998c0.4252,1.7213,3.1791,2.4278,7.1508,0.9004c4.805-1.8478,12.3358,7.3318,15.3268,0.9212
		c0.1181-0.253,0.1697-0.537,0.1697-0.8162v-3.5053"/>
	<path fill="none" stroke="#000000" stroke-linecap="round" stroke-linejoin="round" stroke-miterlimit="10" d="M4.6358,12.3001
		c0,0-1.5839,2.1119,0.3771,2.2627c1.961,0.1508,1.4331-1.0559,1.2068-1.6593C5.9934,12.3001,4.6358,12.3001,4.6358,12.3001z"/>
	
		<line fill="none" stroke="#000000" stroke-linecap="round" stroke-linejoin="round" stroke-miterlimit="10" x1="10.0817" y1="13.9708" x2="14.0299" y2="10.6294"/>
	
		<line fill="none" stroke="#000000" stroke-linecap="round" stroke-linejoin="round" stroke-miterlimit="10" x1="13.0063" y1="14.702" x2="16.9545" y2="11.3606"/>
	
		<line fill="none" stroke="#000000" stroke-linecap="round" stroke-linejoin="round" stroke-miterlimit="10" x1="15.5653" y1="15.7987" x2="19.5136" y2="12.4573"/>
</g>
<rect x="0" y="-0.9654" fill="none" width="24" height="24"/>
</svg>
