<?xml version="1.0" encoding="utf-8"?>
<!-- Generator: Adobe Illustrator 18.1.0, SVG Export Plug-In . SVG Version: 6.00 Build 0)  -->
<svg version="1.1" id="Layer_1" xmlns="http://www.w3.org/2000/svg" xmlns:xlink="http://www.w3.org/1999/xlink" x="0px" y="0px"
	 width="24px" height="24px" viewBox="0 0 24 24" enable-background="new 0 0 24 24" xml:space="preserve">
<g>
	
		<line fill="none" stroke="#000000" stroke-linecap="round" stroke-linejoin="round" x1="15.5036" y1="2.497" x2="15.5036" y2="0.997"/>
	
		<line fill="none" stroke="#000000" stroke-linecap="round" stroke-linejoin="round" x1="8.5029" y1="2.497" x2="8.5029" y2="0.997"/>
	
		<line fill="none" stroke="#000000" stroke-linecap="round" stroke-linejoin="round" x1="7.5538" y1="20.466" x2="6.8513" y2="23.4297"/>
	
		<line fill="none" stroke="#000000" stroke-linecap="round" stroke-linejoin="round" x1="16.4511" y1="20.466" x2="17.1536" y2="23.4297"/>
	<rect x="0.5036" y="2.497" fill="none" stroke="#000000" stroke-linecap="round" stroke-linejoin="round" width="23" height="16"/>
	<path fill="none" stroke="#000000" stroke-linecap="round" stroke-linejoin="round" d="M11.9158,9.7348
		c-0.0797,0-3.5448,1.7639-3.5448,1.7639l0.8561-3.7236C9.3377,6.8764,4.9184,7.33,4.4795,10.9359
		c-0.2901,2.3809,1.5682,4.5084,3.9961,4.5084c2.8333,0,4.7847-2.8761,3.7281-5.517C12.1557,9.811,12.0419,9.7348,11.9158,9.7348z"
		/>
	<path fill="none" stroke="#000000" stroke-linecap="round" stroke-linejoin="round" d="M13.1491,7.6517
		c-0.6149-1.4477-2.3787-1.9611-2.4276-1.5672c-0.0184,0.1478-0.3859,2.7026-0.2679,2.7935
		c0.1005,0.0756,2.649-0.9893,2.6966-1.1063C13.1657,7.7332,13.1651,7.6898,13.1491,7.6517z"/>
	
		<line fill="none" stroke="#000000" stroke-linecap="round" stroke-linejoin="round" x1="15.5036" y1="13.497" x2="19.4738" y2="13.497"/>
	
		<line fill="none" stroke="#000000" stroke-linecap="round" stroke-linejoin="round" x1="15.5036" y1="10.4967" x2="19.4738" y2="10.4967"/>
	
		<line fill="none" stroke="#000000" stroke-linecap="round" stroke-linejoin="round" x1="15.5036" y1="7.4964" x2="19.4738" y2="7.4964"/>
</g>
<rect x="-0.006" y="-0.003" fill="none" width="24" height="24"/>
</svg>
