<?xml version="1.0" encoding="utf-8"?>
<!-- Generator: Adobe Illustrator 18.1.0, SVG Export Plug-In . SVG Version: 6.00 Build 0)  -->
<svg version="1.1" id="Layer_1" xmlns="http://www.w3.org/2000/svg" xmlns:xlink="http://www.w3.org/1999/xlink" x="0px" y="0px"
	 width="24px" height="24px" viewBox="0 0 24 24" enable-background="new 0 0 24 24" xml:space="preserve">
<g>
	<path fill="none" stroke="#000000" stroke-linecap="round" stroke-linejoin="round" stroke-miterlimit="10" d="M16.4385,1.3604
		l-0.0001-0.1582l0-0.0001c-0.0001-0.3224-1.9938-0.5833-4.4532-0.5826C9.5257,0.6202,7.532,0.8823,7.5321,1.2048l0,0.0001
		l0.0002,0.1582"/>
	<path fill="none" stroke="#000000" stroke-linecap="round" stroke-linejoin="round" stroke-miterlimit="10" d="M7.5326,2.931
		l0.0013,4.2524c0.0001,0.3423,8.9063,0.3396,8.9062-0.0027l-0.0013-4.2524C14.6654,2.438,9.3002,2.4405,7.5326,2.931z"/>
	<path fill="none" stroke="#000000" stroke-linecap="round" stroke-linejoin="round" stroke-miterlimit="10" d="M10.8923,9.1464
		c0,0,1.2096,9.6099-1.5133,10.0835l0.001,3.2935c0.0001,0.2567,0.7526,0.3419,1.0027,0.111
		c0.3986,0.4514,0.9813,0.7363,1.6308,0.7361c0.6419-0.0002,1.2187-0.2787,1.6166-0.7211c0.2729,0.211,0.9839,0.1173,0.9838-0.1276
		l-0.001-3.2833l0.0162-0.0102c-2.723-0.472-1.5193-10.0826-1.5193-10.0826"/>
	
		<circle fill="none" stroke="#000000" stroke-linecap="round" stroke-linejoin="round" stroke-miterlimit="10" cx="12.0045" cy="20.7344" r="1.0024"/>
	
		<circle fill="none" stroke="#000000" stroke-linecap="round" stroke-linejoin="round" stroke-miterlimit="10" cx="11.9918" cy="5.5624" r="0.7032"/>
</g>
<rect x="-0.0136" y="0" fill="none" width="24" height="24"/>
</svg>
