<?xml version="1.0" encoding="utf-8"?>
<!-- Generator: Adobe Illustrator 18.1.0, SVG Export Plug-In . SVG Version: 6.00 Build 0)  -->
<svg version="1.1" id="Layer_1" xmlns="http://www.w3.org/2000/svg" xmlns:xlink="http://www.w3.org/1999/xlink" x="0px" y="0px"
	 width="24px" height="24px" viewBox="0 0 24 24" enable-background="new 0 0 24 24" xml:space="preserve">
<g>
	<path fill="none" stroke="#000000" stroke-linecap="round" stroke-linejoin="round" d="M16,4.5197l1.3293,2.0776
		C17.4165,6.7124,17.5,6.853,17.5,6.9974v14.171c0,0.263-0.1736,0.5078-0.4029,0.6368c-0.3726,0.2096-0.958,0.6169-1.2823,1.2799
		c-0.127,0.2596-0.3973,0.4346-0.6863,0.4346H8.8196c-0.289,0-0.5412-0.175-0.6682-0.4346
		c-0.3243-0.6629-0.9019-1.0702-1.2746-1.2799C6.6477,21.6762,6.5,21.4315,6.5,21.1685V6.9974c0-0.1445,0.0576-0.285,0.1448-0.4001
		L8,4.5197"/>
	
		<line fill="none" stroke="#000000" stroke-linecap="round" stroke-linejoin="round" x1="6.5942" y1="21.5197" x2="17.3946" y2="21.5197"/>
	<path fill="none" stroke="#000000" stroke-linecap="round" stroke-linejoin="round" d="M13.607,4.5197l1.7962,2.2081
		c0.0678,0.1064,0.1037,0.2299,0.1037,0.356v4.1832"/>
	<path fill="none" stroke="#000000" stroke-linecap="round" stroke-linejoin="round" d="M11.5,3.0197V1.8958c0-1.465-2-1.4842-2,0
		v1.1239"/>
	<line fill="none" stroke="#000000" stroke-linecap="round" stroke-linejoin="round" x1="9.5" y1="2.5197" x2="11.5" y2="2.5197"/>
	
		<line fill="none" stroke="#000000" stroke-linecap="round" stroke-linejoin="round" x1="7.2558" y1="4.5197" x2="16.7011" y2="4.5197"/>
	<rect x="6.5" y="8.5197" fill="none" stroke="#000000" stroke-linecap="round" stroke-linejoin="round" width="6" height="10"/>
</g>
<rect x="0" y="0.0197" fill="none" width="24" height="24"/>
</svg>
