<?xml version="1.0" encoding="utf-8"?>
<!-- Generator: Adobe Illustrator 18.1.0, SVG Export Plug-In . SVG Version: 6.00 Build 0)  -->
<svg version="1.1" id="Layer_1" xmlns="http://www.w3.org/2000/svg" xmlns:xlink="http://www.w3.org/1999/xlink" x="0px" y="0px"
	 width="24px" height="24px" viewBox="0 0 24 24" enable-background="new 0 0 24 24" xml:space="preserve">
<g>
	<path fill="none" stroke="#000000" stroke-linecap="round" stroke-linejoin="round" d="M22.3225,12.5H1.6479
		c-0.1017,0-0.1715-0.1196-0.1341-0.2116l2.9383-7.7037C4.4739,4.5311,4.5271,4.5,4.5863,4.5h14.7978
		c0.0592,0,0.1124,0.0212,0.1341,0.0747l2.9384,7.7207C22.4939,12.3874,22.4242,12.5,22.3225,12.5z"/>
	
		<line fill="none" stroke="#000000" stroke-linecap="round" stroke-linejoin="round" x1="11.9852" y1="12.5" x2="11.9852" y2="21.8186"/>
	
		<ellipse fill="none" stroke="#000000" stroke-linecap="round" stroke-linejoin="round" cx="11.9852" cy="21.8778" rx="3.8995" ry="1.4815"/>
	<path fill="none" stroke="#000000" stroke-linecap="round" stroke-linejoin="round" d="M6.5066,6.5551V3.6425
		c0-0.3824,0.1519-0.7491,0.4223-1.0195L8.467,1.0848C8.7966,0.7552,9.2652,0.6053,9.725,0.6824l1.567,0.2627"/>
	<polygon fill="none" stroke="#000000" stroke-linecap="round" stroke-linejoin="round" points="15.3044,10.5 8.6607,10.5 
		9.1697,7.5 11.9825,7.5 14.7954,7.5 	"/>
	
		<line fill="none" stroke="#000000" stroke-linecap="round" stroke-linejoin="round" x1="11.9825" y1="10.5" x2="11.9825" y2="7.5"/>
</g>
<rect x="-0.0136" fill="none" width="24" height="24"/>
</svg>
