<?xml version="1.0" encoding="utf-8"?>
<!-- Generator: Adobe Illustrator 18.1.0, SVG Export Plug-In . SVG Version: 6.00 Build 0)  -->
<svg version="1.1" id="Layer_1" xmlns="http://www.w3.org/2000/svg" xmlns:xlink="http://www.w3.org/1999/xlink" x="0px" y="0px"
	 width="24px" height="24px" viewBox="0 0 24 24" enable-background="new 0 0 24 24" xml:space="preserve">
<g>
	<path fill="none" stroke="#000000" stroke-linecap="round" stroke-linejoin="round" stroke-miterlimit="10" d="M19.8059,4.5001
		c0.3146-0.0345,1.0106-0.0243,1.1699,0.4666c0,0,2.3165,11.8369,2.3165,11.9111c0,0.336-0.2741,0.6077-0.6125,0.6077
		c-0.0022,0.0004-0.0053,0.0004-0.0084,0l-2.171,0.0003"/>
	
		<line fill="none" stroke="#000000" stroke-linecap="round" stroke-linejoin="round" stroke-miterlimit="10" x1="5.4863" y1="2.5798" x2="5.4863" y2="5.5152"/>
	
		<line fill="none" stroke="#000000" stroke-linecap="round" stroke-linejoin="round" stroke-miterlimit="10" x1="10.4868" y1="2.5798" x2="10.4868" y2="5.5152"/>
	
		<line fill="none" stroke="#000000" stroke-linecap="round" stroke-linejoin="round" stroke-miterlimit="10" x1="15.4873" y1="2.5798" x2="15.4873" y2="5.5152"/>
	<path fill="none" stroke="#000000" stroke-linecap="round" stroke-linejoin="round" stroke-miterlimit="10" d="M20.4956,5.1906
		c0-0.3814-0.3088-0.6905-0.6898-0.6905H1.1854c-0.381,0-0.6898,0.3092-0.6898,0.6905v13.6189c0,0.3814,0.3088,0.6905,0.6898,0.6905
		h18.6204c0.381,0,0.6898-0.3092,0.6898-0.6905V5.1906z"/>
	
		<circle fill="none" stroke="#000000" stroke-linecap="round" stroke-linejoin="round" stroke-miterlimit="10" cx="5.6756" cy="9.9445" r="1.8149"/>
	<polyline fill="none" stroke="#000000" stroke-linecap="round" stroke-linejoin="round" stroke-miterlimit="10" points="
		4.8257,19.5001 10.8377,11.031 13.3234,14.3854 16.5204,9.3578 20.5004,15.146 	"/>
</g>
<rect x="-0.0137" y="0.0002" fill="none" width="24" height="24"/>
</svg>
