<?xml version="1.0" encoding="utf-8"?>
<!-- Generator: Adobe Illustrator 18.1.0, SVG Export Plug-In . SVG Version: 6.00 Build 0)  -->
<svg version="1.1" id="Layer_1" xmlns="http://www.w3.org/2000/svg" xmlns:xlink="http://www.w3.org/1999/xlink" x="0px" y="0px"
	 width="24px" height="24px" viewBox="0 0 24 24" enable-background="new 0 0 24 24" xml:space="preserve">
<g>
	<polyline fill="none" stroke="#000000" stroke-linecap="round" stroke-linejoin="round" stroke-miterlimit="10" points="
		16.4999,0.5097 16.4999,4.5097 20.4999,4.5097 	"/>
	<path fill="none" stroke="#000000" stroke-linecap="round" stroke-linejoin="round" stroke-miterlimit="10" d="M20.4999,22.7098
		c0,0.4366-0.354,0.7999-0.7915,0.7999H4.2872c-0.4366,0-0.7872-0.3633-0.7872-0.7999V1.3153c0-0.4364,0.3506-0.8056,0.7872-0.8056
		h12.2127c0.2076,0,0.3041,0.0894,0.4517,0.2349l3.3124,3.2687c0.1503,0.1483,0.2359,0.285,0.2359,0.4964V22.7098z"/>
	
		<line fill="none" stroke="#000000" stroke-linecap="round" stroke-linejoin="round" x1="7.4875" y1="19.4624" x2="16.3798" y2="19.4624"/>
	<path fill="none" stroke="#000000" stroke-linecap="round" stroke-linejoin="round" stroke-miterlimit="10" d="M16.2999,14.5149
		c-1.4518-0.6175-3.0634-1.3842-3.1989-1.8619v-0.5012c0.3012-0.3391,0.5387-0.812,0.6793-1.3656
		c0.335-0.2589,0.4233-0.7969,0.1422-1.1776v-1.122c0-1.1582-0.586-1.9511-1.9258-1.9511c-1.3052,0-1.9265,0.7929-1.9265,1.9511
		V9.609c-0.2778,0.3763-0.1972,0.9141,0.1422,1.177c0.1406,0.5538,0.3783,1.0267,0.6796,1.3658v0.5012
		c-0.1351,0.4772-1.7471,1.2441-3.1988,1.8619c-0.1237,0.0529-0.2056,0.1853-0.2056,0.3334v1.2535
		c0,0.1968,0.143,0.3568,0.3194,0.3568h8.3791c0.1764,0,0.3194-0.16,0.3194-0.3568v-1.2535
		C16.5055,14.7002,16.4236,14.5674,16.2999,14.5149z"/>
</g>
<rect x="0" y="0.0001" fill="none" width="24" height="24"/>
</svg>
