<?xml version="1.0" encoding="utf-8"?>
<!-- Generator: Adobe Illustrator 18.1.0, SVG Export Plug-In . SVG Version: 6.00 Build 0)  -->
<svg version="1.1" id="Layer_1" xmlns="http://www.w3.org/2000/svg" xmlns:xlink="http://www.w3.org/1999/xlink" x="0px" y="0px"
	 width="24px" height="24px" viewBox="0 0 24 24" enable-background="new 0 0 24 24" xml:space="preserve">
<g>
	<path fill="none" stroke="#000000" stroke-linecap="round" stroke-linejoin="round" d="M19.204,5.3077
		c0,0-2.154,1.8017-4.5131,2.6736s-3.603,3.8466-3.603,3.8466s0.0644,2.3075,0.8337,4.7692s-0.4103,6.5561-0.4103,6.5561"/>
	<path fill="none" stroke="#000000" stroke-linecap="round" stroke-linejoin="round" stroke-miterlimit="10" d="M10.9201,9.8513
		C9.4827,5.5422,0.844,7.0906,0.844,7.0906s2.9101,11.353,10.2439,4.7372C11.0879,11.8279,10.8474,11.029,10.9201,9.8513z"/>
	<path fill="none" stroke="#000000" stroke-linecap="round" stroke-linejoin="round" d="M22.412,0.8999
		c-9.5877,1.7589-11.3291,6.3104-11.492,8.9514c-0.0726,1.1777,0.1678,1.9766,0.1678,1.9766
		C24.2388,18.5111,22.412,0.8999,22.412,0.8999z"/>
	<path fill="none" stroke="#000000" stroke-linecap="round" stroke-linejoin="round" stroke-miterlimit="10" d="M5.5622,9.9813
		c0,0,4.1869,0.2567,5.5257,1.8465"/>
	<path fill="none" stroke="#000000" stroke-linecap="round" stroke-linejoin="round" d="M19.204,5.3077
		c0,0-2.154,1.8017-4.5131,2.6736s-3.603,3.8466-3.603,3.8466s0.0644,2.3075,0.8337,4.7692s-0.4103,6.5561-0.4103,6.5561"/>
	<path fill="none" stroke="#000000" stroke-linecap="round" stroke-linejoin="round" stroke-miterlimit="10" d="M10.9201,9.8513
		C9.4827,5.5422,0.844,7.0906,0.844,7.0906s2.9101,11.353,10.2439,4.7372C11.0879,11.8279,10.8474,11.029,10.9201,9.8513z"/>
	<path fill="none" stroke="#000000" stroke-linecap="round" stroke-linejoin="round" d="M22.412,0.8999
		c-9.5877,1.7589-11.3291,6.3104-11.492,8.9514c-0.0726,1.1777,0.1678,1.9766,0.1678,1.9766
		C24.2388,18.5111,22.412,0.8999,22.412,0.8999z"/>
	<path fill="none" stroke="#000000" stroke-linecap="round" stroke-linejoin="round" stroke-miterlimit="10" d="M5.5622,9.9813
		c0,0,4.1869,0.2567,5.5257,1.8465"/>
</g>
<rect y="-0.0147" fill="none" width="24" height="24"/>
</svg>
