<?xml version="1.0" encoding="utf-8"?>
<!-- Generator: Adobe Illustrator 18.1.0, SVG Export Plug-In . SVG Version: 6.00 Build 0)  -->
<svg version="1.1" id="Layer_1" xmlns="http://www.w3.org/2000/svg" xmlns:xlink="http://www.w3.org/1999/xlink" x="0px" y="0px"
	 width="24px" height="24px" viewBox="0 0 24 24" enable-background="new 0 0 24 24" xml:space="preserve">
<g>
	<path fill="none" stroke="#000000" stroke-linecap="round" stroke-linejoin="round" d="M17.0896,9.7716L6.0149,12.8275
		c0,0,4.1946-0.2336,4.2885,4.6422"/>
	<path fill="none" stroke="#000000" stroke-linecap="round" stroke-linejoin="round" d="M16.5569,13.4412
		c0,0-3.6616-0.2297-3.7436,4.0285"/>
	
		<line fill="none" stroke="#000000" stroke-linecap="round" stroke-linejoin="round" x1="6.0149" y1="8.9737" x2="17.0896" y2="5.9178"/>
	<path fill="none" stroke="#000000" stroke-linecap="round" stroke-linejoin="round" d="M6.0149,5.1199l7.1811-2.1254
		c0,0,1.4848-0.5125,0.9497-2.0795"/>
	<path fill="none" stroke="#000000" stroke-linecap="round" stroke-linejoin="round" d="M14.3419,17.5147H8.7627
		c-0.586,3,0.6226,4.1088,1.6285,4.3205l0.2996,1.6795h1.7231l0.2996-1.6795C13.7192,21.6235,14.9278,20.5147,14.3419,17.5147z"/>
</g>
<rect x="0.0142" y="0.0147" fill="none" width="24" height="24"/>
</svg>
