<?xml version="1.0" encoding="utf-8"?>
<!-- Generator: Adobe Illustrator 18.1.0, SVG Export Plug-In . SVG Version: 6.00 Build 0)  -->
<svg version="1.1" id="Layer_1" xmlns="http://www.w3.org/2000/svg" xmlns:xlink="http://www.w3.org/1999/xlink" x="0px" y="0px"
	 width="24px" height="24px" viewBox="0 0 24 24" enable-background="new 0 0 24 24" xml:space="preserve">
<g>
	<circle fill="none" stroke="#000000" stroke-linecap="round" stroke-linejoin="round" cx="11.3664" cy="9.8711" r="7.6628"/>
	<path fill="none" stroke="#000000" stroke-linecap="round" stroke-linejoin="round" d="M18.9915,3.1919
		c2.668,3.0474,3.348,7.5361,1.3695,11.3478c-2.5783,4.9674-8.6957,6.9046-13.6633,4.3261
		c-1.1764-0.6106-2.1828-1.4197-2.9995-2.365"/>
	<path fill="none" stroke="#000000" stroke-linecap="round" stroke-linejoin="round" d="M9.0917,3.9591
		c0,0-1.8927,1.5342-0.6556,1.7078c0.9141,0.1284,1.1474-0.1543,1.1474-0.1543l0.8672-0.5596c0,0-0.5097,1.1488-0.5013,1.3549
		c0.0083,0.2064,0.136,0.8496,0.6025,0.284c0.8577-1.0396,1.071-1.3474,1.5028-1.1233s1.4977,0.3442,1.0461,1.4367
		C12.6491,7.998,12.7858,7.29,12.0761,7.2679c-0.7096-0.0223-1.3414,0.8614-0.8777,1.2462c0.4637,0.385,1.3977,1.4754,1.3977,1.4754
		s0.8604,0.8164-0.6471,3.4139c0,0-0.7203,1.4435-0.0208,1.3739c0.6995-0.0696,3.2869-1.5535,3.4279-2.5475
		c0.141-0.9941,0.1656-1.0968,0.8642-1.1091c0.6986-0.0123,1.2736-0.1754,1.4632-0.5962"/>
	<path fill="none" stroke="#000000" stroke-linecap="round" stroke-linejoin="round" d="M5.2402,8.7676
		c0,0,1.0951-1.7207,1.3092-1.244c0.214,0.4769,0.3729,0.5594,0.5259,1.0428c0.1531,0.4832,1.4221,1.3726,0.7553,1.5458
		c-0.6668,0.1732-0.7586,0.1833-1.1753,0.486c-0.4168,0.303-1.218,1.0697-1.218,1.0697"/>
	
		<line fill="none" stroke="#000000" stroke-linecap="round" stroke-linejoin="round" x1="18.9915" y1="3.1919" x2="21.5026" y2="1.0085"/>
	<path fill="none" stroke="#000000" stroke-linecap="round" stroke-linejoin="round" d="M5.5658,14.8781"/>
	<path fill="none" stroke="#000000" stroke-linecap="round" stroke-linejoin="round" d="M3.6982,16.5008"/>
	
		<line fill="none" stroke="#000000" stroke-linecap="round" stroke-linejoin="round" x1="11.4863" y1="21.6475" x2="11.4863" y2="23.5"/>
	
		<line fill="none" stroke="#000000" stroke-linecap="round" stroke-linejoin="round" x1="7.9863" y1="23.5" x2="14.9863" y2="23.5"/>
</g>
<rect x="-0.0137" y="0" fill="none" width="24" height="24"/>
</svg>
