<?xml version="1.0" encoding="utf-8"?>
<!-- Generator: Adobe Illustrator 18.1.0, SVG Export Plug-In . SVG Version: 6.00 Build 0)  -->
<svg version="1.1" id="Layer_1" xmlns="http://www.w3.org/2000/svg" xmlns:xlink="http://www.w3.org/1999/xlink" x="0px" y="0px"
	 width="24px" height="24px" viewBox="0 0 24 24" enable-background="new 0 0 24 24" xml:space="preserve">
<g>
	<polyline fill="none" stroke="#000000" stroke-linecap="round" stroke-linejoin="round" points="15.667,14.511 15.6669,23.3397 
		12.0787,19.7576 8.4903,23.3397 8.4903,14.511 	"/>
	<path fill="none" stroke="#000000" stroke-linecap="round" stroke-linejoin="round" d="M17.9436,9.3819
		c0.3906-0.8844,0.1213-1.882-0.5705-2.4868c0.7273-0.5697,1.0479-1.5608,0.6958-2.4655c-0.3514-0.9067-1.2527-1.4243-2.1757-1.3539
		c0.1044-0.9133-0.3678-1.8329-1.2522-2.2233c-0.8842-0.3907-1.8821-0.1201-2.4869,0.5718
		c-0.5697-0.7291-1.5592-1.0467-2.4658-0.6954C8.782,1.0779,8.2655,1.9821,8.3344,2.9037c-0.913-0.1041-1.8314,0.3689-2.2221,1.2536
		c-0.3905,0.8836-0.1209,1.8805,0.5705,2.486C5.9561,7.2121,5.6357,8.2027,5.987,9.1098c0.3516,0.9063,1.2536,1.4218,2.1754,1.3535
		c-0.1038,0.9127,0.3691,1.8315,1.2531,2.222c0.8842,0.3903,1.8819,0.121,2.4865-0.5708c0.5703,0.7277,1.5592,1.047,2.4661,0.6961
		c0.9067-0.3515,1.4228-1.2555,1.3539-2.1757C16.6349,10.7383,17.5532,10.2659,17.9436,9.3819z M11.1856,8.6776
		C10.1326,8.2124,9.655,6.98,10.12,5.9271c0.4656-1.0544,1.6981-1.5315,2.7511-1.0667c1.053,0.465,1.5305,1.6975,1.065,2.7517
		C13.4709,8.6651,12.2385,9.1423,11.1856,8.6776z"/>
</g>
<rect x="0.0293" y="-0.0001" fill="none" width="24" height="24"/>
</svg>
