<?xml version="1.0" encoding="utf-8"?>
<!-- Generator: Adobe Illustrator 18.1.0, SVG Export Plug-In . SVG Version: 6.00 Build 0)  -->
<svg version="1.1" id="Layer_1" xmlns="http://www.w3.org/2000/svg" xmlns:xlink="http://www.w3.org/1999/xlink" x="0px" y="0px"
	 width="24px" height="24px" viewBox="0 0 24 24" enable-background="new 0 0 24 24" xml:space="preserve">
<g>
	<path fill="none" stroke="#000000" stroke-linecap="round" stroke-linejoin="round" stroke-miterlimit="10" d="M10.118,7.6739
		c-0.7116-2.3774-2.2236-7.9629,0.2309-5.0449c3.0764,3.6571,3.1771,1.4389,4.0684,0.0601c0.8402-1.2992,1.998,0.1296-0.2458,5.0389
		"/>
	<path fill="none" stroke="#000000" stroke-linecap="round" stroke-linejoin="round" stroke-miterlimit="10" d="M18.8594,18.7953
		c0,4.148-3.0775,5.6127-6.8745,5.6127c-3.7961,0-6.8739-1.4648-6.8739-5.6127c0-4.1479,3.0778-9.7876,6.8739-9.7876
		C15.7819,9.0077,18.8594,14.6474,18.8594,18.7953z"/>
	<path fill="none" stroke="#000000" stroke-linecap="round" stroke-linejoin="round" stroke-miterlimit="10" d="M9.8595,19.1854
		c0.5889,0.5126,1.497,0.8975,2.1525,0.8975c1.0488,0,1.899-0.7434,1.899-1.6604c0-0.917-0.9078-1.3706-1.899-1.6604
		c-1.0273-0.322-1.899-0.7434-1.899-1.6604s0.8502-1.6604,1.899-1.6604c0.7062,0,1.3224,0.337,1.6496,0.8372"/>
	
		<line fill="none" stroke="#000000" stroke-linecap="round" stroke-linejoin="round" stroke-miterlimit="10" x1="12.0121" y1="12.5342" x2="12.0121" y2="13.4415"/>
	
		<line fill="none" stroke="#000000" stroke-linecap="round" stroke-linejoin="round" stroke-miterlimit="10" x1="12.0121" y1="20.0829" x2="12.0121" y2="20.9902"/>
</g>
<rect x="-0.0137" y="1.0031" fill="none" width="24" height="24"/>
<rect x="-0.0137" y="1" fill="none" width="24" height="24"/>
</svg>
