<?xml version="1.0" encoding="utf-8"?>
<!-- Generator: Adobe Illustrator 18.1.0, SVG Export Plug-In . SVG Version: 6.00 Build 0)  -->
<svg version="1.1" id="Layer_1" xmlns="http://www.w3.org/2000/svg" xmlns:xlink="http://www.w3.org/1999/xlink" x="0px" y="0px"
	 width="24px" height="24px" viewBox="0 0 24 24" enable-background="new 0 0 24 24" xml:space="preserve">
<rect x="-0.025" y="-0.0147" fill="none" width="24" height="24"/>
<g>
	<g>
		<path fill="none" stroke="#000000" stroke-linecap="round" stroke-linejoin="round" d="M17.1589,4.0649
			c0,0-1.5666,1.3104-3.2824,1.9445S11.256,8.8071,11.256,8.8071s0.0468,1.6783,0.6063,3.4687"/>
		<path fill="none" stroke="#000000" stroke-linecap="round" stroke-linejoin="round" stroke-miterlimit="10" d="M11.1339,7.3695
			c-1.0454-3.1341-7.3284-2.0078-7.3284-2.0078s2.1166,8.2572,7.4505,3.4455C11.256,8.8071,11.0811,8.226,11.1339,7.3695z"/>
		<path fill="none" stroke="#000000" stroke-linecap="round" stroke-linejoin="round" d="M19.4922,0.859
			c-6.9732,1.2793-8.2398,4.5896-8.3583,6.5105C11.0811,8.226,11.256,8.8071,11.256,8.8071
			C20.8208,13.6679,19.4922,0.859,19.4922,0.859z"/>
		<path fill="none" stroke="#000000" stroke-linecap="round" stroke-linejoin="round" stroke-miterlimit="10" d="M7.2371,7.4641
			c0,0,3.0452,0.1867,4.0189,1.343"/>
		<path fill="none" stroke="#000000" stroke-linecap="round" stroke-linejoin="round" d="M17.1589,4.0649
			c0,0-1.5666,1.3104-3.2824,1.9445S11.256,8.8071,11.256,8.8071s0.0468,1.6783,0.6063,3.4687
			c0.2179,0.6972,0.2208,1.5745,0.1432,2.3858"/>
		<path fill="none" stroke="#000000" stroke-linecap="round" stroke-linejoin="round" stroke-miterlimit="10" d="M11.1339,7.3695
			c-1.0454-3.1341-7.3284-2.0078-7.3284-2.0078s2.1166,8.2572,7.4505,3.4455C11.256,8.8071,11.0811,8.226,11.1339,7.3695z"/>
		<path fill="none" stroke="#000000" stroke-linecap="round" stroke-linejoin="round" d="M19.4922,0.859
			c-6.9732,1.2793-8.2398,4.5896-8.3583,6.5105C11.0811,8.226,11.256,8.8071,11.256,8.8071
			C20.8208,13.6679,19.4922,0.859,19.4922,0.859z"/>
		<path fill="none" stroke="#000000" stroke-linecap="round" stroke-linejoin="round" stroke-miterlimit="10" d="M7.2371,7.4641
			c0,0,3.0452,0.1867,4.0189,1.343"/>
	</g>
	<path fill="none" stroke="#000000" stroke-linecap="round" stroke-linejoin="round" stroke-miterlimit="10" d="M8.1176,16.3046
		c-1.3055-0.9622-0.1716-0.2273-3.0448-2.9761c-0.6834-0.6537-1.7791,0.1939-1.0947,0.8486l1.1012,1.3176
		c0,0,0.5406,0.9589,0.2901,1.2364c-0.1932,0.2139-0.7724,0.0342-1.4573-0.4878c-0.231-0.2148-0.244-0.1553-1.6456-2.1969
		c-0.1922-0.2802-0.294-0.6051-0.294-0.9403v-1.7734c0-0.9246-1.4631-0.9258-1.4631,0c0,1.8175-0.1213,2.5274,0.534,3.4818
		c2.0818,3.0322,1.0383,2.4194,4.6626,4.7248c1.2723,0.8085,1.1175,1.7315,1.1175,3.2335c0,0.3864,0.3276,0.6998,0.7316,0.6998
		h2.1445c0.404,0,0.7316-0.3133,0.7316-0.6998v-2.2931C10.4311,18.8194,10.2257,17.3487,8.1176,16.3046z"/>
	<path fill="none" stroke="#000000" stroke-linecap="round" stroke-linejoin="round" stroke-miterlimit="10" d="M15.761,16.3046
		c1.3055-0.9622,0.1716-0.2273,3.0448-2.9761c0.6834-0.6537,1.7791,0.1939,1.0947,0.8486l-1.1012,1.3176
		c0,0-0.5406,0.9589-0.2901,1.2364c0.1932,0.2139,0.7725,0.0342,1.4573-0.4878c0.231-0.2148,0.244-0.1553,1.6456-2.1969
		c0.1922-0.2802,0.294-0.6051,0.294-0.9403v-1.7734c0-0.9246,1.4631-0.9258,1.4631,0c0,1.8175,0.1213,2.5274-0.534,3.4818
		c-2.0818,3.0322-1.0383,2.4194-4.6626,4.7248c-1.2723,0.8085-1.1175,1.7315-1.1175,3.2335c0,0.3864-0.3276,0.6998-0.7316,0.6998
		h-2.1445c-0.404,0-0.7316-0.3133-0.7316-0.6998v-2.2931C13.4475,18.8194,13.6529,17.3487,15.761,16.3046z"/>
</g>
</svg>
