<?xml version="1.0" encoding="utf-8"?>
<!-- Generator: Adobe Illustrator 18.1.0, SVG Export Plug-In . SVG Version: 6.00 Build 0)  -->
<svg version="1.1" id="Layer_1" xmlns="http://www.w3.org/2000/svg" xmlns:xlink="http://www.w3.org/1999/xlink" x="0px" y="0px"
	 width="24px" height="24px" viewBox="0 0 24 24" enable-background="new 0 0 24 24" xml:space="preserve">
<g>
	<path fill="none" stroke="#000000" stroke-linecap="round" stroke-linejoin="round" d="M22.3757,6.5379
		c-0.047-0.2357-0.3374-0.3231-0.5071-0.1544l-2.6247,2.6244l-2.5384,0.5255l-2.1436-2.1432l0.5259-2.5384l2.6244-2.6244
		c0.1691-0.1693,0.0813-0.4606-0.1544-0.5073c-1.948-0.3851-4.0272,0.1748-5.5302,1.6785c-1.7598,1.7589-1.3239,4.9203-1.083,6.0993
		l-9.1982,8.0124c-1.3342,1.3339-1.3339,3.5044,0,4.8387c1.3182,1.3174,3.4776,1.3622,4.8531-0.015l7.9981-9.1825
		c2.0438,0.4229,4.6253,0.3914,6.0999-1.0827C22.1467,10.6191,22.7739,8.5513,22.3757,6.5379z"/>
	<path fill="none" stroke="#000000" stroke-linecap="round" stroke-linejoin="round" stroke-miterlimit="10" d="M4.77,20.3104
		c-0.272,0.2715-0.7124,0.2715-0.9842-0.0005c-0.2713-0.2719-0.2713-0.7121-0.0002-0.9841l0.0002-0.0002
		c0.2718-0.272,0.7127-0.272,0.9846-0.0002c0.2715,0.2718,0.2715,0.7127,0,0.9846L4.77,20.3104z"/>
</g>
<rect x="0" y="0" fill="none" width="24" height="24"/>
</svg>
