<?xml version="1.0" encoding="utf-8"?>
<!-- Generator: Adobe Illustrator 18.1.1, SVG Export Plug-In . SVG Version: 6.00 Build 0)  -->
<svg version="1.1" id="Layer_1" xmlns="http://www.w3.org/2000/svg" xmlns:xlink="http://www.w3.org/1999/xlink" x="0px" y="0px"
	 width="24px" height="24px" viewBox="0 0 24 24" enable-background="new 0 0 24 24" xml:space="preserve">
<g>
	<path fill="none" stroke="#000000" stroke-linecap="round" stroke-linejoin="round" d="M4.2,11.9c0,0.9,0.1,1.6,0.4,2.4
		c-0.5,0.2-0.8,0.7-0.8,1.2c0,0.7,0.6,1.3,1.3,1.3l0,0c0.3,3.5,4.3,6.5,6.8,6.5c2.6,0,6.5-3,6.8-6.5l0,0c0.7,0,1.3-0.6,1.3-1.3
		c0-0.5-0.3-1-0.8-1.2c0.3-0.8,0.4-1.5,0.4-2.4"/>
	<path fill="none" stroke="#000000" stroke-linecap="round" stroke-linejoin="round" stroke-miterlimit="10" d="M6.7,12.6l-0.2,2.2
		c0,0-0.7-1-1.8-0.5"/>
	<path fill="none" stroke="#000000" stroke-linecap="round" stroke-linejoin="round" stroke-miterlimit="10" d="M17.3,12.6l0.2,2.3
		c0,0,0.7-1,1.8-0.5"/>
	<path fill="none" stroke="#000000" stroke-linecap="round" stroke-linejoin="round" stroke-miterlimit="10" d="M9.5,2.4
		c-3,0.8-5.1,3.2-5.7,6.1l0,0c-0.9,0-1.6,0.7-1.6,1.6s0.7,1.3,1.6,1.6c8.4,3,16.3,0,16.3,0l0,0c0.9-0.3,1.6-0.7,1.6-1.6
		c0-0.9-0.7-1.6-1.6-1.6l0,0c-0.6-2.9-2.7-5.3-5.6-6.1"/>
	<path fill="none" stroke="#000000" stroke-linecap="round" stroke-linejoin="round" stroke-miterlimit="10" d="M14.5,5.1
		c0,1.3-1.1,2.4-2.4,2.4h-0.2c-1.3,0-2.4-1.1-2.4-2.4V2.9c0-1.3,1.1-2.4,2.4-2.4h0.2c1.3,0,2.4,1.1,2.4,2.4V5.1z"/>
	
		<line fill="none" stroke="#000000" stroke-linecap="round" stroke-linejoin="round" stroke-miterlimit="3.864" x1="11" y1="19.5" x2="13" y2="19.5"/>
	<line fill="none" stroke="#000000" stroke-linecap="round" stroke-linejoin="round" x1="10.1" y1="15.5" x2="10" y2="15.5"/>
	<line fill="none" stroke="#000000" stroke-linecap="round" stroke-linejoin="round" x1="13.9" y1="15.5" x2="14" y2="15.5"/>
</g>
<rect fill="none" width="24" height="24"/>
</svg>
