<?xml version="1.0" encoding="utf-8"?>
<!-- Generator: Adobe Illustrator 18.1.0, SVG Export Plug-In . SVG Version: 6.00 Build 0)  -->
<svg version="1.1" id="Layer_1" xmlns="http://www.w3.org/2000/svg" xmlns:xlink="http://www.w3.org/1999/xlink" x="0px" y="0px"
	 width="24px" height="24px" viewBox="0 0 24 24" enable-background="new 0 0 24 24" xml:space="preserve">
<g>
	<path fill="none" stroke="#000000" stroke-linecap="round" stroke-linejoin="round" stroke-miterlimit="10" d="M8.5142,18.224
		c-2.7122,0-5-3.0826-5-5.7948V6.7697c0-0.6781,0.692-1.2352,1.3701-1.2352h7.3665c0.6781,0,1.2635,0.5571,1.2635,1.2352v5.6594
		C13.5142,15.1414,11.2264,18.224,8.5142,18.224z"/>
	<polyline fill="none" stroke="#000000" stroke-linecap="round" stroke-linejoin="round" stroke-miterlimit="10" points="
		8.5675,18.224 8.5675,23.4062 8.5675,23.4062 	"/>
	<path fill="none" stroke="#000000" stroke-linecap="round" stroke-linejoin="round" stroke-miterlimit="10" d="M7.0921,4.012
		c0-0.8364,0.678-1.5144,1.5144-1.5144s1.5144,0.678,1.5144,1.5144"/>
	<path fill="none" stroke="#000000" stroke-linecap="round" stroke-linejoin="round" stroke-miterlimit="10" d="M8.5142,2.4976
		V1.993c0-0.6918,0.6531-1.4584,1.3449-1.4584h7.1357c1.3836,0,2.5194,1.3274,2.5194,2.7111v20.1606"/>
	<g>
		<path fill="none" stroke="#000000" stroke-linecap="round" stroke-linejoin="round" stroke-miterlimit="10" d="M13.4785,9.2819
			L13.4785,9.2819c-1.3731,0.6521-3.5719,0.6652-4.911,0.0293l0,0l0,0c-1.3391-0.636-3.5378-0.6228-4.911,0.0293"/>
	</g>
	
		<line fill="none" stroke="#000000" stroke-linecap="round" stroke-linejoin="round" stroke-miterlimit="10" x1="5.3122" y1="10.5495" x2="6.6385" y2="10.5495"/>
	
		<line fill="none" stroke="#000000" stroke-linecap="round" stroke-linejoin="round" stroke-miterlimit="10" x1="5.3122" y1="12.1607" x2="6.6385" y2="12.1607"/>
	
		<line fill="none" stroke="#000000" stroke-linecap="round" stroke-linejoin="round" stroke-miterlimit="10" x1="5.3122" y1="13.7719" x2="6.6385" y2="13.7719"/>
</g>
<rect x="0.0142" y="0.0346" fill="none" width="24" height="24"/>
</svg>
