<?xml version="1.0" encoding="utf-8"?>
<!-- Generator: Adobe Illustrator 18.1.0, SVG Export Plug-In . SVG Version: 6.00 Build 0)  -->
<svg version="1.1" id="Layer_1" xmlns="http://www.w3.org/2000/svg" xmlns:xlink="http://www.w3.org/1999/xlink" x="0px" y="0px"
	 width="24px" height="24px" viewBox="0 0 24 24" enable-background="new 0 0 24 24" xml:space="preserve">
<g>
	<path fill="none" stroke="#000000" stroke-linecap="round" stroke-linejoin="round" d="M18.6349,12.5293
		c0.2369,0.7686,0.3804,1.5851,0.3804,2.4315c0,4.5536-3.6915,8.2455-8.2454,8.2455c-4.5537,0-8.2454-3.6919-8.2454-8.2455
		c0-4.5537,3.6916-8.2454,8.2454-8.2454c0.2846,0,0.5677,0.0144,0.8449,0.0426"/>
	<path fill="none" stroke="#000000" stroke-linecap="round" stroke-linejoin="round" d="M5.3993,10.2033
		c0,0-1.1022,2.53,0.232,2.059c0.9859-0.3479,1.073-0.7538,1.073-0.7538l0.5799-1.0151c0,0,0.087,1.4209,0.203,1.6237
		c0.116,0.2031,0.58,0.7831,0.7539-0.0289c0.3198-1.4927,0.3737-1.9134,0.9246-1.9134c0.551,0,1.6852-0.4354,1.8013,0.8985
		c0.116,1.334-0.1159,0.5509-0.8409,0.899c-0.725,0.3479-0.899,1.5659-0.2321,1.7108c0.667,0.145,2.1749,0.7539,2.1749,0.7539
		s1.1809,0.7568,1.1308,3.7697c0,0,0.0291,1.827,0.696,1.392c0.3382-0.2206,0.9747-1.0602,1.4708-1.9741"/>
	<path fill="none" stroke="#000000" stroke-linecap="round" stroke-linejoin="round" stroke-miterlimit="10" d="M21.4481,5.7785
		c0,2.753-4.9848,10.328-4.9848,10.328s-4.9847-7.575-4.9847-10.328s2.2317-4.9847,4.9847-4.9847S21.4481,3.0255,21.4481,5.7785z"/>
	
		<circle fill="none" stroke="#000000" stroke-linecap="round" stroke-linejoin="round" stroke-miterlimit="10" cx="16.4632" cy="5.3972" r="1.7739"/>
</g>
<rect x="-0.0137" y="0.0001" fill="none" width="24" height="24"/>
</svg>
