<?xml version="1.0" encoding="utf-8"?>
<!-- Generator: Adobe Illustrator 18.1.0, SVG Export Plug-In . SVG Version: 6.00 Build 0)  -->
<svg version="1.1" id="Layer_1" xmlns="http://www.w3.org/2000/svg" xmlns:xlink="http://www.w3.org/1999/xlink" x="0px" y="0px"
	 width="24px" height="24px" viewBox="0 0 24 24" enable-background="new 0 0 24 24" xml:space="preserve">
<g>
	<path fill="none" stroke="#000000" stroke-linecap="round" stroke-linejoin="round" stroke-miterlimit="10" d="M17.4494,20.5002
		h3.8663c1.0675,0,1.933-0.9217,1.933-2c0-1.0783-0.8655-2-1.933-2H18.011L7.5408,8.8042c-0.3096-0.1985-0.6688-0.304-1.0356-0.304
		H2.6389c-1.0675,0-1.933,0.9217-1.933,2s0.8655,2,1.933,2h3.3047l10.4702,7.696C16.7233,20.3948,17.0826,20.5002,17.4494,20.5002z"
		/>
	
		<circle fill="none" stroke="#000000" stroke-linecap="round" stroke-linejoin="round" stroke-miterlimit="10" cx="12.1174" cy="2.7508" r="1.4457"/>
	<path fill="none" stroke="#000000" stroke-linecap="round" stroke-linejoin="round" stroke-miterlimit="10" d="M10.4353,8.4093
		l0.0286-0.8775c0.0338-0.7821,0.6497-1.4578,1.4325-1.465c0.8348-0.0076,1.4953,0.6846,1.4597,1.508l0.4045,2.9191l1.6215,1.1466"
		/>
	
		<line fill="none" stroke="#000000" stroke-linecap="round" stroke-linejoin="round" stroke-miterlimit="10" x1="20.3909" y1="11.1877" x2="16.6123" y2="8.7777"/>
	<polyline fill="none" stroke="#000000" stroke-linecap="round" stroke-linejoin="round" stroke-miterlimit="10" points="
		18.7285,11.5553 20.3909,11.1877 20.0233,9.5253 	"/>
</g>
<rect x="-0.0136" y="0.0002" fill="none" width="24" height="24"/>
</svg>
