<?xml version="1.0" encoding="utf-8"?>
<!-- Generator: Adobe Illustrator 18.1.0, SVG Export Plug-In . SVG Version: 6.00 Build 0)  -->
<svg version="1.1" id="Layer_1" xmlns="http://www.w3.org/2000/svg" xmlns:xlink="http://www.w3.org/1999/xlink" x="0px" y="0px"
	 width="24px" height="24px" viewBox="0 0 24 24" enable-background="new 0 0 24 24" xml:space="preserve">
<g>
	<path fill="none" stroke="#000000" stroke-linecap="round" stroke-linejoin="round" stroke-miterlimit="10" d="M16.4998,14.7941
		l6.4755,6.4755c0.471,0.471,0.471,1.2346,0,1.7056l0,0c-0.471,0.471-1.2346,0.471-1.7056,0l-6.4755-6.4755"/>
	
		<circle fill="none" stroke="#000000" stroke-linecap="round" stroke-linejoin="round" stroke-miterlimit="10" cx="9.4786" cy="9.4785" r="8.8061"/>
	<path fill="none" stroke="#000000" stroke-linecap="round" stroke-linejoin="round" stroke-miterlimit="10" d="M13.2941,11.7068
		c-1.2911-0.552-2.7243-1.2374-2.8448-1.6645v-0.448c0.2678-0.3031,0.4791-0.7259,0.6041-1.2208
		c0.3004-0.2333,0.3751-0.7143,0.1264-1.0527v-1.003c0-1.0354-0.5212-1.7442-1.7126-1.7442c-1.1607,0-1.7132,0.7088-1.7132,1.7442
		v1.0033C7.5057,7.6593,7.5807,8.1398,7.8804,8.3733c0.125,0.4951,0.3364,0.9179,0.6044,1.221v0.448
		c-0.1201,0.4266-1.5537,1.1121-2.8447,1.6645c-0.11,0.0473-0.1829,0.1657-0.1829,0.298v1.1205c0,0.176,0.1272,0.319,0.2841,0.319
		h7.4516c0.1569,0,0.2841-0.143,0.2841-0.319v-1.1205C13.4769,11.8724,13.4041,11.7537,13.2941,11.7068z"/>
</g>
<rect x="0.0005" y="0.0004" fill="none" width="24" height="24"/>
</svg>
