<?xml version="1.0" encoding="utf-8"?>
<!-- Generator: Adobe Illustrator 18.1.0, SVG Export Plug-In . SVG Version: 6.00 Build 0)  -->
<svg version="1.1" id="Layer_1" xmlns="http://www.w3.org/2000/svg" xmlns:xlink="http://www.w3.org/1999/xlink" x="0px" y="0px"
	 width="24px" height="24px" viewBox="0 0 24 24" enable-background="new 0 0 24 24" xml:space="preserve">
<g>
	<path fill="none" stroke="#000000" stroke-linecap="round" stroke-linejoin="round" stroke-miterlimit="10" d="M18.5,22.1618
		c0,0.75-0.608,1.3579-1.3579,1.3579H4.8579c-0.75,0-1.3579-0.608-1.3579-1.3579V5.8776c0-0.75,0.608-1.3579,1.3579-1.3579h12.2841
		c0.75,0,1.3579,0.608,1.3579,1.3579V22.1618z"/>
	<path fill="none" stroke="#000000" stroke-linecap="round" stroke-linejoin="round" stroke-miterlimit="10" d="M18.5,7.5197h1.2797
		c1.5083,0,2.7203,1.2692,2.7203,2.7775v3.4407c0,1.5083-1.212,2.7818-2.7203,2.7818H18.5"/>
	
		<line fill="none" stroke="#000000" stroke-linecap="round" stroke-linejoin="round" stroke-miterlimit="10" x1="7.5001" y1="9.4884" x2="7.5001" y2="20.4884"/>
	
		<line fill="none" stroke="#000000" stroke-linecap="round" stroke-linejoin="round" stroke-miterlimit="10" x1="11" y1="9.4884" x2="11" y2="20.4884"/>
	
		<line fill="none" stroke="#000000" stroke-linecap="round" stroke-linejoin="round" stroke-miterlimit="10" x1="14.4999" y1="9.4884" x2="14.4999" y2="20.4884"/>
	<path fill="none" stroke="#000000" stroke-linecap="round" stroke-linejoin="round" stroke-miterlimit="10" d="M4.8579,4.5197
		c0.0565-1.6679,1.6517-2.8284,3.194-2.2657c1.3661-1.7774,3.9081-1.9095,5.4366-0.2874c1.6943-0.8469,3.6535,0.5746,3.4226,2.5531"
		/>
</g>
<rect x="0" y="0.0197" fill="none" width="24" height="24"/>
</svg>
