<?xml version="1.0" encoding="utf-8"?>
<!-- Generator: Adobe Illustrator 18.1.0, SVG Export Plug-In . SVG Version: 6.00 Build 0)  -->
<svg version="1.1" id="Layer_1" xmlns="http://www.w3.org/2000/svg" xmlns:xlink="http://www.w3.org/1999/xlink" x="0px" y="0px"
	 width="24px" height="24px" viewBox="0 0 24 24" enable-background="new 0 0 24 24" xml:space="preserve">
<g>
	<path fill="none" stroke="#000000" stroke-linecap="round" stroke-linejoin="round" stroke-miterlimit="10" d="M21.5729,18.2684
		c0.537-1.8667-0.5409-3.8153-2.4076-4.3522l-2.454-0.706c-2.4712-0.9448-0.2489-3.7622,1.7171-5.52l-0.0001,0
		c2.0798-2.0933,1.1651-5.6832-1.6942-6.5057c-3.0417-0.875-5.7854,2.0465-4.7806,5.0068c0.3542,1.3639,1.2871,5.7615-1.588,5.1935
		l-2.4562-0.7066c-1.8667-0.537-3.8153,0.5409-4.3523,2.4076"/>
	
		<line fill="none" stroke="#000000" stroke-linecap="round" stroke-linejoin="round" stroke-miterlimit="10" x1="3.003" y1="23.5" x2="20.003" y2="23.5"/>
	
		<line fill="none" stroke="#000000" stroke-linecap="round" stroke-linejoin="round" stroke-miterlimit="10" x1="3.5571" y1="13.0858" x2="21.5729" y2="18.2684"/>
	
		<rect x="3.9264" y="15.6413" transform="matrix(0.9611 0.2763 -0.2763 0.9611 5.0451 -2.7613)" fill="none" stroke="#000000" stroke-linecap="round" stroke-linejoin="round" stroke-miterlimit="10" width="16.7905" height="1.7628"/>
</g>
<rect x="0" y="0" fill="none" width="24" height="24"/>
</svg>
