<?xml version="1.0" encoding="utf-8"?>
<!-- Generator: Adobe Illustrator 18.1.0, SVG Export Plug-In . SVG Version: 6.00 Build 0)  -->
<svg version="1.1" id="Layer_1" xmlns="http://www.w3.org/2000/svg" xmlns:xlink="http://www.w3.org/1999/xlink" x="0px" y="0px"
	 width="24px" height="24px" viewBox="0 0 24 24" enable-background="new 0 0 24 24" xml:space="preserve">
<g>
	<g>
		<g>
			
				<line fill="none" stroke="#000000" stroke-linecap="round" stroke-linejoin="round" x1="9.4033" y1="3.5384" x2="8.9568" y2="3.7632"/>
			
				<line fill="none" stroke="#000000" stroke-linecap="round" stroke-linejoin="round" stroke-dasharray="0.6017,2.407" x1="6.8072" y1="4.8462" x2="5.1951" y2="5.6585"/>
			
				<line fill="none" stroke="#000000" stroke-linecap="round" stroke-linejoin="round" x1="4.1204" y1="6.2" x2="3.6738" y2="6.4251"/>
		</g>
	</g>
	<g>
		<g>
			
				<line fill="none" stroke="#000000" stroke-linecap="round" stroke-linejoin="round" x1="9.4033" y1="3.5384" x2="8.9033" y2="3.5384"/>
			
				<line fill="none" stroke="#000000" stroke-linecap="round" stroke-linejoin="round" stroke-dasharray="0.5445,2.1781" x1="6.7252" y1="3.5384" x2="5.0915" y2="3.5384"/>
			
				<line fill="none" stroke="#000000" stroke-linecap="round" stroke-linejoin="round" x1="4.0026" y1="3.5384" x2="3.5026" y2="3.5384"/>
		</g>
	</g>
	<g>
		<g>
			
				<line fill="none" stroke="#000000" stroke-linecap="round" stroke-linejoin="round" x1="9.4033" y1="3.5384" x2="8.9568" y2="3.3133"/>
			
				<line fill="none" stroke="#000000" stroke-linecap="round" stroke-linejoin="round" stroke-dasharray="0.6017,2.407" x1="6.8072" y1="2.2303" x2="5.1951" y2="1.418"/>
			
				<line fill="none" stroke="#000000" stroke-linecap="round" stroke-linejoin="round" x1="4.1204" y1="0.8765" x2="3.6738" y2="0.6516"/>
		</g>
	</g>
	<path fill="none" stroke="#000000" stroke-linecap="round" stroke-linejoin="round" stroke-miterlimit="10" d="M16.5293,22.8239
		c0,0.375-0.304,0.679-0.679,0.679H9.2083c-0.375,0-0.679-0.304-0.679-0.679V10.1818c0-0.375,0.304-0.679,0.679-0.679h6.6421
		c0.375,0,0.679,0.304,0.679,0.679V22.8239z"/>
	<path fill="none" stroke="#000000" stroke-linecap="round" stroke-linejoin="round" stroke-miterlimit="10" d="M15.5293,9.5029h-6
		V8.7898c0-1.2578,1.1282-2.2869,2.386-2.2869h1.2835c1.1681,0,2.3304,0.9557,2.3304,2.1238V9.5029z"/>
	
		<line fill="none" stroke="#000000" stroke-linecap="round" stroke-linejoin="round" stroke-miterlimit="10" x1="12.5293" y1="6.425" x2="12.5293" y2="4.5029"/>
	
		<rect x="11.5293" y="2.5029" fill="none" stroke="#000000" stroke-linecap="round" stroke-linejoin="round" stroke-miterlimit="10" width="2" height="2"/>
</g>
<rect x="0.0293" y="0.0001" fill="none" width="24" height="24"/>
</svg>
