<?xml version="1.0" encoding="utf-8"?>
<!-- Generator: Adobe Illustrator 18.1.0, SVG Export Plug-In . SVG Version: 6.00 Build 0)  -->
<svg version="1.1" id="Layer_1" xmlns="http://www.w3.org/2000/svg" xmlns:xlink="http://www.w3.org/1999/xlink" x="0px" y="0px"
	 width="24px" height="24px" viewBox="0 0 24 24" enable-background="new 0 0 24 24" xml:space="preserve">
<g>
	
		<circle fill="none" stroke="#000000" stroke-linecap="round" stroke-linejoin="round" stroke-miterlimit="10" cx="10.5039" cy="2.5082" r="1.6611"/>
	<path fill="none" stroke="#000000" stroke-linecap="round" stroke-linejoin="round" stroke-miterlimit="10" d="M12.5267,21.6864
		l0.1719-4.7276c0.0092-0.2136-0.0697-0.4217-0.2182-0.5755l-3.5935-3.6735c-0.2971-0.3077-0.4548-0.7238-0.4364-1.1511
		l0.1536-3.5572C8.6429,7.1029,9.3505,6.3264,10.25,6.3182c0.9592-0.0088,1.7181,0.7866,1.6772,1.7327l0.4648,3.354l3.5478-0.8523"
		/>
	
		<line fill="none" stroke="#000000" stroke-linecap="round" stroke-linejoin="round" stroke-miterlimit="10" x1="9.0582" y1="15.5285" x2="6.621" y2="23.1236"/>
	<path fill="none" stroke="#000000" stroke-linecap="round" stroke-linejoin="round" stroke-miterlimit="10" d="M6.4742,12.7916
		l-2.5022-0.1123c-0.4216-0.0189-0.7481-0.3761-0.7291-0.7977l0.1101-2.4524C3.4332,7.6384,4.9502,6.2518,6.741,6.3321l0.023,0.001
		L6.4742,12.7916z"/>
	
		<line fill="none" stroke="#000000" stroke-linecap="round" stroke-linejoin="round" stroke-miterlimit="10" x1="15.0413" y1="9.5499" x2="16.8384" y2="20.2492"/>
</g>
<rect x="-0.0008" y="-0.0147" fill="none" width="24" height="24"/>
</svg>
