<?xml version="1.0" encoding="utf-8"?>
<!-- Generator: Adobe Illustrator 18.1.0, SVG Export Plug-In . SVG Version: 6.00 Build 0)  -->
<svg version="1.1" id="Layer_1" xmlns="http://www.w3.org/2000/svg" xmlns:xlink="http://www.w3.org/1999/xlink" x="0px" y="0px"
	 width="24px" height="24px" viewBox="0 0 24 24" enable-background="new 0 0 24 24" xml:space="preserve">
<g>
	<path fill="none" stroke="#000000" stroke-linecap="round" stroke-linejoin="round" stroke-miterlimit="3.864" d="M8.2941,1.0083
		c0,0,3.778-0.6677,7.4402,0"/>
	<path fill="none" stroke="#000000" stroke-linecap="round" stroke-linejoin="round" stroke-miterlimit="3.864" d="M7.9246,2.893
		c-1.382,0.3722-3.4447,1.7569-4.096,1.9349C2.6937,5.1386,0.787,23.136,0.787,23.136h3.0528L6.431,9.7555L5.9122,22.7093
		c0,0,1.5722,1.1816,6.4504,0.461c4.8806-0.721,5.646-0.461,5.646-0.461L17.5974,9.8044l2.5912,13.3805h3.0528
		c0,0-1.9068-17.9973-3.0417-18.3081c-0.6513-0.178-2.7529-1.8091-4.135-2.1813"/>
	
		<line fill="none" stroke="#000000" stroke-linecap="round" stroke-linejoin="round" stroke-miterlimit="3.864" x1="13.5484" y1="20.5573" x2="13.5484" y2="20.5573"/>
	
		<line fill="none" stroke="#000000" stroke-linecap="round" stroke-linejoin="round" stroke-miterlimit="3.864" x1="13.5484" y1="17.5571" x2="13.5484" y2="17.5571"/>
	
		<line fill="none" stroke="#000000" stroke-linecap="round" stroke-linejoin="round" stroke-miterlimit="3.864" x1="13.5484" y1="14.5569" x2="13.5484" y2="14.5569"/>
	
		<line fill="none" stroke="#000000" stroke-linecap="round" stroke-linejoin="round" stroke-miterlimit="3.864" x1="13.5484" y1="11.5567" x2="13.5484" y2="11.5567"/>
	
		<line fill="none" stroke="#000000" stroke-linecap="round" stroke-linejoin="round" stroke-miterlimit="3.864" x1="13.5484" y1="8.5565" x2="13.5484" y2="8.5565"/>
	
		<line fill="none" stroke="#000000" stroke-linecap="round" stroke-linejoin="round" stroke-miterlimit="3.864" x1="1.0777" y1="20.5344" x2="4.3436" y2="20.5344"/>
	
		<line fill="none" stroke="#000000" stroke-linecap="round" stroke-linejoin="round" stroke-miterlimit="3.864" x1="19.6754" y1="20.5344" x2="22.945" y2="20.5344"/>
	<polyline fill="none" stroke="#000000" stroke-linecap="round" stroke-linejoin="round" stroke-miterlimit="3.864" points="
		12.0142,4.4136 10.7587,5.2937 7.9441,2.6834 8.2941,1.0083 12.0142,4.4136 	"/>
	<polyline fill="none" stroke="#000000" stroke-linecap="round" stroke-linejoin="round" stroke-miterlimit="3.864" points="
		12.0142,4.4136 15.7343,1.0083 16.0843,2.6834 13.2697,5.2937 12.0142,4.4136 12.0142,23.2169 	"/>
</g>
<rect x="0.0142" y="0.0344" fill="none" width="24" height="24"/>
</svg>
