<?xml version="1.0" encoding="utf-8"?>
<!-- Generator: Adobe Illustrator 18.1.0, SVG Export Plug-In . SVG Version: 6.00 Build 0)  -->
<svg version="1.1" id="Layer_1" xmlns="http://www.w3.org/2000/svg" xmlns:xlink="http://www.w3.org/1999/xlink" x="0px" y="0px"
	 width="24px" height="24px" viewBox="0 0 24 24" enable-background="new 0 0 24 24" xml:space="preserve">
<g>
	<path fill="none" stroke="#000000" stroke-linecap="round" stroke-linejoin="round" stroke-miterlimit="10" d="M15.7749,19.9618
		c2.7008-0.132,5.2664-0.8376,5.6049-2.2095c0.0236-0.0639,0.0368-0.1324,0.0368-0.2045V3.3903c0,0-0.0012-0.0078-0.0012-0.0117
		c0,0,0.0012-0.0066,0.0012-0.0101c0-1.743-3.4391-2.5367-6.6348-2.5367S8.147,1.6254,8.147,3.3684
		c0,0.0035,0.0012,0.0066,0.0012,0.0066c0,0.0074-0.0012,0.0113-0.0012,0.0113v0.637"/>
	<path fill="none" stroke="#000000" stroke-linecap="round" stroke-linejoin="round" stroke-miterlimit="10" d="M8.1543,3.2553
		C8.1529,3.2441,8.147,3.2317,8.147,3.2205"/>
	<path fill="none" stroke="#000000" stroke-linecap="round" stroke-linejoin="round" stroke-miterlimit="10" d="M21.4165,3.2205
		c-0.0752,0.6185-2.4177,2.0091-6.3847,2.0955"/>
	<path fill="none" stroke="#000000" stroke-linecap="round" stroke-linejoin="round" stroke-miterlimit="10" d="M21.4165,8.0426
		c-0.0711,0.5846-2.0794,1.8591-5.6416,2.0699"/>
	<path fill="none" stroke="#000000" stroke-linecap="round" stroke-linejoin="round" stroke-miterlimit="10" d="M21.4165,12.83
		c-0.0712,0.586-2.0783,1.8651-5.6567,2.0714"/>
	<path fill="none" stroke="#000000" stroke-linecap="round" stroke-linejoin="round" stroke-miterlimit="10" d="M15.7598,6.56
		c0-1.743-3.4391-2.5367-6.6348-2.5367S2.4903,4.817,2.4903,6.56c0,0.0035,0.0012,0.0066,0.0012,0.0066
		c0,0.0074-0.0012,0.0113-0.0012,0.0152v14.1575c0,0.0721,0.0132,0.1407,0.0368,0.2045c0.3777,1.5311,3.5954,2.2324,6.598,2.2324
		s6.2203-0.7013,6.598-2.2324c0.0236-0.0639,0.0368-0.1324,0.0368-0.2045V6.5818c0-0.0039-0.0012-0.0078-0.0012-0.0078
		S15.7598,6.5635,15.7598,6.56z"/>
	<path fill="none" stroke="#000000" stroke-linecap="round" stroke-linejoin="round" stroke-miterlimit="10" d="M15.7598,6.4121
		c-0.0776,0.6385-2.4519,2.1345-6.6673,2.1345c-4.2154,0-6.5173-1.4613-6.5949-2.0998C2.4962,6.4357,2.4903,6.4233,2.4903,6.4121"/>
	<path fill="none" stroke="#000000" stroke-linecap="round" stroke-linejoin="round" stroke-miterlimit="10" d="M15.7598,11.1994
		c-0.0776,0.6385-2.4519,2.1345-6.6673,2.1345c-4.2154,0-6.5173-1.4613-6.5949-2.0998c-0.0014-0.0112-0.0073-0.0236-0.0073-0.0348"
		/>
	<path fill="none" stroke="#000000" stroke-linecap="round" stroke-linejoin="round" stroke-miterlimit="10" d="M15.7598,15.9868
		c-0.0776,0.6385-2.4519,2.1345-6.6673,2.1345c-4.2154,0-6.5173-1.4613-6.5949-2.0998c-0.0014-0.0112-0.0073-0.0236-0.0073-0.0348"
		/>
</g>
<rect x="0" y="0" fill="none" width="24" height="24"/>
</svg>
