<?xml version="1.0" encoding="utf-8"?>
<!-- Generator: Adobe Illustrator 18.1.0, SVG Export Plug-In . SVG Version: 6.00 Build 0)  -->
<svg version="1.1" id="Layer_1" xmlns="http://www.w3.org/2000/svg" xmlns:xlink="http://www.w3.org/1999/xlink" x="0px" y="0px"
	 width="24px" height="24px" viewBox="0 0 24 24" enable-background="new 0 0 24 24" xml:space="preserve">
<g>
	<path fill="none" stroke="#000000" stroke-linecap="round" stroke-linejoin="round" stroke-miterlimit="10" d="M22.5168,4.5546
		H6.4327c0,0-0.9169-2.0399-1.4379-2.0399H1.4271c-0.5214,0-0.9456,0.4263-0.9456,0.9507v19.0593
		c0,0.524,0.4242,0.9499,0.9456,0.9499h21.0896c0.521,0,0.9452-0.4259,0.9452-0.9499V5.5054
		C23.4619,4.9809,23.0378,4.5546,22.5168,4.5546z"/>
	
		<line fill="none" stroke="#000000" stroke-linecap="round" stroke-linejoin="round" stroke-miterlimit="10" x1="23.4619" y1="8.5255" x2="0.4815" y2="8.5255"/>
	<path fill="none" stroke="#000000" stroke-linecap="round" stroke-linejoin="round" stroke-miterlimit="10" d="M11.341,16.5404h2.1
		c0.4403,1.1657,1.5633,1.9965,2.8832,1.9965c1.7031,0,3.0841-1.3809,3.0841-3.0841c0.0002-1.704-1.3808-3.0846-3.0842-3.0846
		c-1.2389,0-2.3043,0.7321-2.7945,1.7857H4.6714L4.234,15.2343l1.3042,1.2119l1.3608-0.7888l1.4695,0.9895l1.7889-1.3486
		L11.341,16.5404z"/>
	
		<circle fill="none" stroke="#000000" stroke-linecap="round" stroke-linejoin="round" stroke-miterlimit="10" cx="16.9097" cy="15.4527" r="0.7265"/>
</g>
<rect x="0" y="0.0001" fill="none" width="24" height="24"/>
</svg>
