<?xml version="1.0" encoding="utf-8"?>
<!-- Generator: Adobe Illustrator 18.1.1, SVG Export Plug-In . SVG Version: 6.00 Build 0)  -->
<svg version="1.1" id="Layer_1" xmlns="http://www.w3.org/2000/svg" xmlns:xlink="http://www.w3.org/1999/xlink" x="0px" y="0px"
	 width="24px" height="24px" viewBox="0 0 24 24" enable-background="new 0 0 24 24" xml:space="preserve">
<rect fill="none" width="24" height="24"/>
<g>
	
		<line fill="none" stroke="#000000" stroke-linecap="round" stroke-linejoin="round" x1="4.3779" y1="1.5584" x2="3.1981" y2="5.9876"/>
	<polyline fill="none" stroke="#000000" stroke-linecap="round" stroke-linejoin="round" points="5.0269,4.9281 3.1981,5.9876 
		2.1387,4.1588 	"/>
	
		<line fill="none" stroke="#000000" stroke-linecap="round" stroke-linejoin="round" x1="1.4192" y1="12.6664" x2="2.5989" y2="8.2372"/>
	<polyline fill="none" stroke="#000000" stroke-linecap="round" stroke-linejoin="round" points="0.7702,9.2967 2.5989,8.2372 
		3.6584,10.066 	"/>
	<path fill="none" stroke="#000000" stroke-linecap="round" stroke-linejoin="round" d="M17.9646,22.8914
		c0,0-2.6604-3.5919-5.6619-4.344c-2.5375-0.6359-2.8281-2.0117-4.6099-3.3958c0,0-2.2859-1.6194-2.2446-2.2445
		c0.3439-0.5168,0.664-0.8129,1.8926-0.3483l4.0146,1.9511c0.4804-1.6493-0.7485-4.132-0.9954-4.6053L6.9949,3.5713
		C6.7503,3.1174,6.9365,2.5504,7.4108,2.3049l0.0413-0.0213C7.91,2.0465,8.4727,2.1949,8.731,2.6209l5.1724,8.7419l0.104-0.0102
		l-1.4683-2.7641c-0.2446-0.4539-0.0509-1.0247,0.4326-1.275l0.042-0.0218c0.4668-0.2416,1.0368-0.097,1.2956,0.3288l2.0741,3.4994
		l0.0953-0.0093l-1.2899-2.5022c-0.2446-0.4539-0.0584-1.0209,0.416-1.2664l0.0412-0.0213c0.4579-0.2371,1.0206-0.0887,1.279,0.3373
		l1.9397,3.1686l-0.8109-1.8345c-0.2168-0.4672,0.0027-1.0235,0.4903-1.2425l0.0424-0.0191
		c0.4708-0.2114,1.023-0.0317,1.2553,0.4084l0,0c0.8165,1.532,1.3711,3.1859,1.6342,4.8994
		c0.2954,1.924,1.0369,3.9803,1.9102,5.1599"/>
</g>
</svg>
