<?xml version="1.0" encoding="utf-8"?>
<!-- Generator: Adobe Illustrator 18.1.0, SVG Export Plug-In . SVG Version: 6.00 Build 0)  -->
<svg version="1.1" id="Layer_1" xmlns="http://www.w3.org/2000/svg" xmlns:xlink="http://www.w3.org/1999/xlink" x="0px" y="0px"
	 width="24px" height="24px" viewBox="0 0 24 24" enable-background="new 0 0 24 24" xml:space="preserve">
<g>
	<g>
		<polyline fill="none" stroke="#000000" stroke-linecap="round" stroke-linejoin="round" points="21.5066,9.7146 21.5066,23.5 
			2.5066,23.5 2.5066,9.7146 		"/>
		<polyline fill="none" stroke="#000000" stroke-linecap="round" stroke-linejoin="round" stroke-miterlimit="10" points="
			20.5066,8.7876 20.5066,2.5 15.5066,2.5 15.5066,4.538 		"/>
		<polyline fill="none" stroke="#000000" stroke-linecap="round" stroke-linejoin="round" points="0.5568,11.3654 12.0066,1.5322 
			23.4564,11.3654 		"/>
	</g>
	<g>
		
			<line fill="none" stroke="#000000" stroke-linecap="round" stroke-linejoin="round" x1="11.9987" y1="19.5212" x2="11.9987" y2="9.4569"/>
		<polyline fill="none" stroke="#000000" stroke-linecap="round" stroke-linejoin="round" points="13.5984,10.0683 11.9987,11.6677 
			10.3998,10.0683 		"/>
		<polyline fill="none" stroke="#000000" stroke-linecap="round" stroke-linejoin="round" points="10.3994,18.9314 11.9987,17.332 
			13.5984,18.9314 		"/>
		
			<line fill="none" stroke="#000000" stroke-linecap="round" stroke-linejoin="round" x1="16.3568" y1="17.0053" x2="7.6408" y2="11.9731"/>
		<polyline fill="none" stroke="#000000" stroke-linecap="round" stroke-linejoin="round" points="8.9702,10.8935 9.5554,13.0785 
			7.3709,13.6635 		"/>
		<polyline fill="none" stroke="#000000" stroke-linecap="round" stroke-linejoin="round" points="15.0463,18.0955 14.4609,15.9107 
			16.6458,15.325 		"/>
		
			<line fill="none" stroke="#000000" stroke-linecap="round" stroke-linejoin="round" x1="16.357" y1="11.9731" x2="7.641" y2="17.0053"/>
		<polyline fill="none" stroke="#000000" stroke-linecap="round" stroke-linejoin="round" points="7.3706,15.3142 9.5556,15.8999 
			8.9699,18.0843 		"/>
		<polyline fill="none" stroke="#000000" stroke-linecap="round" stroke-linejoin="round" points="16.6458,13.6531 14.461,13.0677 
			15.0463,10.8827 		"/>
	</g>
</g>
<rect x="0.0005" y="0" fill="none" width="24" height="24"/>
</svg>
