<?xml version="1.0" encoding="utf-8"?>
<!-- Generator: Adobe Illustrator 18.1.0, SVG Export Plug-In . SVG Version: 6.00 Build 0)  -->
<svg version="1.1" id="Layer_1" xmlns="http://www.w3.org/2000/svg" xmlns:xlink="http://www.w3.org/1999/xlink" x="0px" y="0px"
	 width="24px" height="24px" viewBox="0 0 24 24" enable-background="new 0 0 24 24" xml:space="preserve">
<g>
	<polyline fill="none" stroke="#000000" stroke-linecap="round" stroke-linejoin="round" stroke-miterlimit="10" points="
		11.9992,20.4204 6.3499,23.0073 4.9248,19.8953 7.8886,18.5495 	"/>
	<polyline fill="none" stroke="#000000" stroke-linecap="round" stroke-linejoin="round" stroke-miterlimit="10" points="
		12.0011,16.6549 17.6485,14.0688 19.0736,17.1809 16.1097,18.5381 	"/>
	
		<line fill="none" stroke="#000000" stroke-linecap="round" stroke-linejoin="round" stroke-miterlimit="10" x1="5.4988" y1="21.1487" x2="7.0548" y2="20.4361"/>
	
		<line fill="none" stroke="#000000" stroke-linecap="round" stroke-linejoin="round" stroke-miterlimit="10" x1="15.8221" y1="17.1454" x2="18.4996" y2="15.9275"/>
	
		<rect x="5.002" y="16.8267" transform="matrix(-0.9092 -0.4163 0.4163 -0.9092 15.1907 40.3888)" fill="none" stroke="#000000" stroke-linecap="round" stroke-linejoin="round" stroke-miterlimit="10" width="13.9943" height="3.4228"/>
	
		<line fill="none" stroke="#000000" stroke-linecap="round" stroke-linejoin="round" stroke-miterlimit="10" x1="18.4996" y1="21.1487" x2="16.9436" y2="20.4361"/>
	
		<line fill="none" stroke="#000000" stroke-linecap="round" stroke-linejoin="round" stroke-miterlimit="10" x1="8.1763" y1="17.1454" x2="5.4988" y2="15.9275"/>
	<path fill="none" stroke="#000000" stroke-linecap="round" stroke-linejoin="round" stroke-miterlimit="10" d="M16.1842,12.7392
		c0.264-1.9969-1.8352-3.836-0.163-5.7872c0.0697-0.0807-0.003-0.2035-0.1043-0.1847c-1.4114,0.2352-2.1391,2.1437-2.3359,2.8783
		c-0.6484-1.2346-0.7574-3.5356-0.7574-5.4014c0-0.5097-1.5398,0.6848-2.0533,3.2775c-0.1703,1.0332-0.2047,2.9628-0.675,3.6753
		c-0.0063,0.0023-0.0123,0.0051-0.0184,0.0075c-0.1106-0.394-1.9633-3.5635-2.2609-3.3451C7.7759,7.889,7.7601,7.9416,7.7773,7.9886
		c0.5228,1.4366-0.1077,3.2395,0.022,4.8163"/>
	<polyline fill="none" stroke="#000000" stroke-linecap="round" stroke-linejoin="round" stroke-miterlimit="10" points="
		23.4992,23.431 23.4992,0.4853 0.4992,0.4853 0.4992,23.431 	"/>
</g>
<rect x="-0.0008" y="-0.0147" fill="none" width="24" height="24"/>
</svg>
