<?xml version="1.0" encoding="utf-8"?>
<!-- Generator: Adobe Illustrator 18.1.0, SVG Export Plug-In . SVG Version: 6.00 Build 0)  -->
<svg version="1.1" id="Layer_1" xmlns="http://www.w3.org/2000/svg" xmlns:xlink="http://www.w3.org/1999/xlink" x="0px" y="0px"
	 width="24px" height="24px" viewBox="0 0 24 24" enable-background="new 0 0 24 24" xml:space="preserve">
<g>
	<path fill="none" stroke="#000000" stroke-linecap="round" stroke-linejoin="round" d="M17.3082,11.7097l-0.599-6.6704
		c0-0.8832-0.6928-1.6004-1.5469-1.6004H8.808c-0.8542,0-1.5466,0.7172-1.5466,1.6004l-0.599,6.6698"/>
	<path fill="none" stroke="#000000" stroke-linecap="round" stroke-linejoin="round" stroke-miterlimit="10" d="M7.341,20.4699"/>
	<path fill="none" stroke="#000000" stroke-linecap="round" stroke-linejoin="round" stroke-miterlimit="10" d="M17.3082,20.7604
		l3.1712-6.1754c0.1079-0.2101,0.0485-0.4671-0.1405-0.6086l-5.9791-4.4719c-1.1324-0.7626-1.7008-1.1453-2.3745-1.1453
		c-0.6739,0-1.2423,0.3827-2.3945,1.1591l-5.9591,4.458c-0.1891,0.1414-0.2484,0.3985-0.1405,0.6086l3.1713,6.1755"/>
	
		<line fill="none" stroke="#000000" stroke-linecap="round" stroke-linejoin="round" x1="14.0568" y1="5.5566" x2="15.2462" y2="5.8146"/>
	
		<line fill="none" stroke="#000000" stroke-linecap="round" stroke-linejoin="round" x1="11.3906" y1="5.5243" x2="12.58" y2="5.5243"/>
	
		<line fill="none" stroke="#000000" stroke-linecap="round" stroke-linejoin="round" x1="8.7242" y1="5.8146" x2="9.9137" y2="5.5566"/>
	
		<line fill="none" stroke="#000000" stroke-linecap="round" stroke-linejoin="round" stroke-miterlimit="10" x1="11.4596" y1="3.425" x2="11.4596" y2="0.6014"/>
	
		<line fill="none" stroke="#000000" stroke-linecap="round" stroke-linejoin="round" stroke-miterlimit="10" x1="13.4671" y1="3.425" x2="13.4671" y2="1.8323"/>
	
		<line fill="none" stroke="#000000" stroke-linecap="round" stroke-linejoin="round" stroke-miterlimit="10" x1="10.7549" y1="11.3596" x2="10.2154" y2="11.7177"/>
	
		<line fill="none" stroke="#000000" stroke-linecap="round" stroke-linejoin="round" stroke-miterlimit="10" x1="13.2157" y1="11.3596" x2="13.7552" y2="11.7177"/>
	<path fill="none" stroke="#000000" stroke-linecap="round" stroke-linejoin="round" stroke-miterlimit="10" d="M1.4805,20.2527
		c0.8288-0.8288,2.1726-0.8288,3.0014,0l0,0c0.8288,0.8288,2.1726,0.8288,3.0014,0l0,0c0.8288-0.8288,2.1726-0.8288,3.0014,0l0,0
		c0.8288,0.8288,2.1726,0.8288,3.0014,0l0,0c0.8288-0.8288,2.1726-0.8288,3.0014,0l0,0c0.8288,0.8288,2.1726,0.8288,3.0014,0l0,0
		c0.8288-0.8288,2.1726-0.8288,3.0014,0"/>
	<path fill="none" stroke="#000000" stroke-linecap="round" stroke-linejoin="round" stroke-miterlimit="10" d="M1.4805,22.6247
		c0.8288-0.8288,2.1726-0.8288,3.0014,0l0,0c0.8288,0.8288,2.1726,0.8288,3.0014,0l0,0c0.8288-0.8288,2.1726-0.8288,3.0014,0l0,0
		c0.8288,0.8288,2.1726,0.8288,3.0014,0l0,0c0.8288-0.8288,2.1726-0.8288,3.0014,0l0,0c0.8288,0.8288,2.1726,0.8288,3.0014,0l0,0
		c0.8288-0.8288,2.1726-0.8288,3.0014,0"/>
</g>
<rect x="-0.0136" y="0.0002" fill="none" width="24" height="24"/>
</svg>
