<?xml version="1.0" encoding="utf-8"?>
<!-- Generator: Adobe Illustrator 18.1.0, SVG Export Plug-In . SVG Version: 6.00 Build 0)  -->
<svg version="1.1" id="Layer_1" xmlns="http://www.w3.org/2000/svg" xmlns:xlink="http://www.w3.org/1999/xlink" x="0px" y="0px"
	 width="24px" height="24px" viewBox="0 0 24 24" enable-background="new 0 0 24 24" xml:space="preserve">
<g>
	
		<circle fill="none" stroke="#000000" stroke-linecap="round" stroke-linejoin="round" stroke-miterlimit="10" cx="5.5802" cy="11.4971" r="1.9555"/>
	<polyline fill="none" stroke="#000000" stroke-linecap="round" stroke-linejoin="round" stroke-miterlimit="10" points="
		5.3898,21.505 11.4221,13.2628 14.0416,16.7977 17.4105,11.4996 21.5285,17.4243 	"/>
	<path fill="none" stroke="#000000" stroke-linecap="round" stroke-linejoin="round" stroke-miterlimit="10" d="M11.1574,2.7855
		L7.5352,6.5002H1.4677c-0.5206,0-0.9813,0.4865-0.9813,1.0075v15.0605c0,0.5206,0.4607,0.932,0.9813,0.932h21.056
		c0.5202,0,0.9626-0.4114,0.9626-0.932V7.5077c0-0.521-0.4425-1.0075-0.9626-1.0075h-6.0675l-3.6228-3.7149"/>
	
		<circle fill="none" stroke="#000000" stroke-linecap="round" stroke-linejoin="round" stroke-miterlimit="10" cx="11.9954" cy="1.9258" r="1.2017"/>
	
		<line fill="none" stroke="#000000" stroke-linecap="round" stroke-linejoin="round" stroke-miterlimit="10" x1="7.5352" y1="6.5002" x2="16.4562" y2="6.5002"/>
</g>
<rect x="-0.0136" y="0.0002" fill="none" width="24" height="24"/>
</svg>
