<?xml version="1.0" encoding="utf-8"?>
<!-- Generator: Adobe Illustrator 18.1.0, SVG Export Plug-In . SVG Version: 6.00 Build 0)  -->
<svg version="1.1" id="Layer_1" xmlns="http://www.w3.org/2000/svg" xmlns:xlink="http://www.w3.org/1999/xlink" x="0px" y="0px"
	 width="24px" height="24px" viewBox="0 0 24 24" enable-background="new 0 0 24 24" xml:space="preserve">
<g>
	<polyline fill="none" stroke="#000000" stroke-linecap="round" stroke-linejoin="round" stroke-miterlimit="10" points="
		16.5095,0.5049 16.5095,4.5049 20.5095,4.5049 	"/>
	<path fill="none" stroke="#000000" stroke-linecap="round" stroke-linejoin="round" stroke-miterlimit="10" d="M20.5095,22.705
		c0,0.4366-0.354,0.7999-0.7915,0.7999H4.2968c-0.4366,0-0.7872-0.3633-0.7872-0.7999V1.3105c0-0.4364,0.3506-0.8056,0.7872-0.8056
		h12.2127c0.2076,0,0.3041,0.0894,0.4517,0.2349l3.3124,3.2687c0.1503,0.1483,0.2359,0.285,0.2359,0.4964V22.705z"/>
	<polyline fill="none" stroke="#000000" stroke-linecap="round" stroke-linejoin="round" points="12.2325,17.4638 9.3321,10.5691 
		6.4318,17.4638 	"/>
	
		<line fill="none" stroke="#000000" stroke-linecap="round" stroke-linejoin="round" x1="11.3163" y1="15.2858" x2="7.348" y2="15.2858"/>
	<path fill="none" stroke="#000000" stroke-linecap="round" stroke-linejoin="round" stroke-miterlimit="10" d="M17.4336,17.3459
		v-2.8838c0,0,0.1476-2.8228-3.5054-1.5313"/>
	<path fill="none" stroke="#000000" stroke-linecap="round" stroke-linejoin="round" stroke-miterlimit="10" d="M17.4336,14.8865
		c0,0-4.1721-1.1672-3.9113,1.2177c0.2583,2.3615,3.7822,1.1495,3.9113-0.2001"/>
</g>
<rect x="0" y="0.0001" fill="none" width="24" height="24"/>
</svg>
