<?xml version="1.0" encoding="utf-8"?>
<!-- Generator: Adobe Illustrator 18.1.0, SVG Export Plug-In . SVG Version: 6.00 Build 0)  -->
<svg version="1.1" id="Layer_1" xmlns="http://www.w3.org/2000/svg" xmlns:xlink="http://www.w3.org/1999/xlink" x="0px" y="0px"
	 width="24px" height="24px" viewBox="0 0 24 24" enable-background="new 0 0 24 24" xml:space="preserve">
<g>
	
		<circle fill="none" stroke="#000000" stroke-linecap="round" stroke-linejoin="round" stroke-miterlimit="10" cx="7.8717" cy="11.08" r="1.5704"/>
	<polyline fill="none" stroke="#000000" stroke-linecap="round" stroke-linejoin="round" stroke-miterlimit="10" points="
		7.3849,18.5032 12.3445,11.6871 14.448,14.5257 17.1534,10.2712 20.4863,15.3037 	"/>
	<path fill="none" stroke="#000000" stroke-linecap="round" stroke-linejoin="round" stroke-miterlimit="10" d="M23.0168,7.9097
		c-0.3002-0.4665-0.2531-1.0773,0.0321-1.5552c0.9588-1.6067-0.7804-3.5253-2.2374-2.4677
		c-0.4333,0.3145-0.9871,0.3663-1.4101,0.0353c-0.5387-0.4216-1.25-0.4331-1.7951-0.0536c-0.466,0.3244-1.0426,0.3244-1.5086,0
		c-0.5159-0.3592-1.1889-0.3714-1.7224,0c-0.466,0.3244-1.0426,0.3244-1.5086,0c-0.5159-0.3592-1.1889-0.3714-1.7224,0
		c-0.466,0.3244-1.0426,0.3244-1.5086,0c-0.5159-0.3591-1.1889-0.3714-1.7224,0c-0.466,0.3244-1.0426,0.3244-1.5086,0
		c-0.545-0.3794-1.2562-0.3679-1.7949,0.0536C4.1868,4.2532,3.633,4.2013,3.1996,3.8868C1.7494,2.8343,0.0001,4.7426,0.9624,6.3547
		C1.2475,6.8324,1.2948,7.443,0.9946,7.9094c-0.373,0.5795-0.4016,1.3641-0.049,1.9801c0.2942,0.514,0.2942,1.15,0,1.664
		c-0.3249,0.5677-0.3374,1.31,0,1.8995c0.2942,0.514,0.2942,1.15,0,1.664c-0.3409,0.5957-0.3368,1.3808,0.049,1.9801
		c0.3002,0.4664,0.253,1.077-0.0322,1.5547c-0.9613,1.6104,0.7824,3.5237,2.2372,2.4679c0.4334-0.3145,0.9871-0.3665,1.4102-0.0353
		c0.5387,0.4216,1.2499,0.4331,1.795,0.0536c0.466-0.3244,1.0426-0.3244,1.5086,0c0.5159,0.3591,1.1889,0.3714,1.7224,0
		c0.466-0.3244,1.0426-0.3244,1.5086,0c0.5159,0.3592,1.1889,0.3715,1.7224,0c0.466-0.3244,1.0426-0.3244,1.5086,0
		c0.5159,0.3592,1.1889,0.3715,1.7224,0c0.466-0.3244,1.0426-0.3244,1.5086,0c0.5452,0.3796,1.2565,0.368,1.7952-0.0538
		c0.423-0.3311,0.9766-0.2791,1.4099,0.0354c1.4484,1.0514,3.2015-0.8522,2.2375-2.4676c-0.2852-0.4779-0.3323-1.0885-0.0321-1.5551
		c0.3721-0.5782,0.402-1.3627,0.0488-1.9799c-0.2942-0.514-0.2942-1.15,0-1.6639c0.3249-0.5677,0.3374-1.31,0-1.8995
		c-0.2942-0.514-0.2942-1.15,0-1.6639C23.4136,9.2814,23.3959,8.4989,23.0168,7.9097z"/>
	
		<rect x="3.4863" y="6.5032" fill="none" stroke="#000000" stroke-linecap="round" stroke-linejoin="round" stroke-miterlimit="10" width="17" height="12"/>
</g>
<rect x="-0.0137" y="0.0002" fill="none" width="24" height="24"/>
</svg>
