<?xml version="1.0" encoding="utf-8"?>
<!-- Generator: Adobe Illustrator 18.1.1, SVG Export Plug-In . SVG Version: 6.00 Build 0)  -->
<svg version="1.1" id="Layer_1" xmlns="http://www.w3.org/2000/svg" xmlns:xlink="http://www.w3.org/1999/xlink" x="0px" y="0px"
	 width="24px" height="24px" viewBox="0 0 24 24" enable-background="new 0 0 24 24" xml:space="preserve">
<g>
	<g>
		<rect x="0.5" y="2.5" fill="none" stroke="#000000" stroke-linecap="round" stroke-linejoin="round" width="23" height="19"/>
		<line fill="none" stroke="#000000" stroke-linecap="round" stroke-linejoin="round" x1="23.5" y1="7.5" x2="0.5" y2="7.5"/>
		
			<line fill="none" stroke="#000000" stroke-linecap="round" stroke-linejoin="round" stroke-miterlimit="10" x1="3.5" y1="7.5" x2="9" y2="2.6"/>
		
			<line fill="none" stroke="#000000" stroke-linecap="round" stroke-linejoin="round" stroke-miterlimit="10" x1="0.5" y1="6.5" x2="5.1" y2="2.6"/>
		
			<line fill="none" stroke="#000000" stroke-linecap="round" stroke-linejoin="round" stroke-miterlimit="10" x1="7.4" y1="7.5" x2="13" y2="2.6"/>
		
			<line fill="none" stroke="#000000" stroke-linecap="round" stroke-linejoin="round" stroke-miterlimit="10" x1="11.3" y1="7.5" x2="16.9" y2="2.6"/>
		
			<line fill="none" stroke="#000000" stroke-linecap="round" stroke-linejoin="round" stroke-miterlimit="10" x1="15.2" y1="7.5" x2="20.8" y2="2.6"/>
		
			<line fill="none" stroke="#000000" stroke-linecap="round" stroke-linejoin="round" stroke-miterlimit="10" x1="19.2" y1="7.5" x2="23.5" y2="4"/>
	</g>
	<path fill="none" stroke="#000000" stroke-linecap="round" stroke-linejoin="round" stroke-miterlimit="10" d="M16.3,17.1L12.8,11
		c-0.4-0.6-1.3-0.6-1.7,0l-3.5,6.1c-0.4,0.6,0.1,1.4,0.8,1.4h6.9C16.2,18.5,16.6,17.7,16.3,17.1z"/>
	
		<line fill="none" stroke="#000000" stroke-linecap="round" stroke-linejoin="round" stroke-miterlimit="10" x1="12" y1="12.9" x2="12" y2="15.5"/>
	
		<line fill="none" stroke="#000000" stroke-linecap="round" stroke-linejoin="round" stroke-miterlimit="10" x1="12" y1="16.8" x2="12" y2="16.9"/>
</g>
<rect fill="none" width="24" height="24"/>
</svg>
