<?xml version="1.0" encoding="utf-8"?>
<!-- Generator: Adobe Illustrator 18.1.0, SVG Export Plug-In . SVG Version: 6.00 Build 0)  -->
<svg version="1.1" id="Layer_1" xmlns="http://www.w3.org/2000/svg" xmlns:xlink="http://www.w3.org/1999/xlink" x="0px" y="0px"
	 width="24px" height="24px" viewBox="0 0 24 24" enable-background="new 0 0 24 24" xml:space="preserve">
<g>
	<path fill="none" stroke="#000000" stroke-linecap="round" stroke-linejoin="round" stroke-miterlimit="10" d="M20.4864,4.1393
		c0-0.353-0.2858-0.6391-0.6384-0.6391H4.1249c-0.3526,0-0.6384,0.2861-0.6384,0.6391v12.7218c0,0.353,0.2858,0.6391,0.6384,0.6391
		H19.848c0.3526,0,0.6384-0.2861,0.6384-0.6391V4.1393z"/>
	
		<circle fill="none" stroke="#000000" stroke-linecap="round" stroke-linejoin="round" stroke-miterlimit="10" cx="7.9515" cy="7.9723" r="1.5205"/>
	<polyline fill="none" stroke="#000000" stroke-linecap="round" stroke-linejoin="round" stroke-miterlimit="10" points="
		6.431,17.5002 12.2111,9.3324 14.53,12.4616 17.5123,7.7715 20.4864,12.0504 	"/>
	<path fill="none" stroke="#000000" stroke-linecap="round" stroke-linejoin="round" stroke-miterlimit="10" d="M23.4864,1.2914
		c0-0.437-0.3539-0.7912-0.7904-0.7912H1.2767c-0.4365,0-0.7904,0.3543-0.7904,0.7912v21.4175c0,0.437,0.3539,0.7913,0.7904,0.7913
		H22.696c0.4365,0,0.7904-0.3543,0.7904-0.7913V1.2914z"/>
	
		<line fill="none" stroke="#000000" stroke-linecap="round" stroke-linejoin="round" stroke-miterlimit="10" x1="7.9864" y1="20.5003" x2="15.9864" y2="20.5003"/>
</g>
<rect x="-0.0136" y="0.0002" fill="none" width="24" height="24"/>
</svg>
