<?xml version="1.0" encoding="utf-8"?>
<!-- Generator: Adobe Illustrator 18.1.0, SVG Export Plug-In . SVG Version: 6.00 Build 0)  -->
<svg version="1.1" id="Layer_1" xmlns="http://www.w3.org/2000/svg" xmlns:xlink="http://www.w3.org/1999/xlink" x="0px" y="0px"
	 width="24px" height="24px" viewBox="0 0 24 24" enable-background="new 0 0 24 24" xml:space="preserve">
<g>
	<path fill="none" stroke="#000000" stroke-linecap="round" stroke-linejoin="round" stroke-miterlimit="10" d="M11.9853,0.5656
		c-6.2977,0-11.4207,5.123-11.4207,11.4207s5.1231,11.4216,11.4207,11.4216s11.4207-5.1239,11.4207-11.4216
		S18.2829,0.5656,11.9853,0.5656z"/>
	
		<circle fill="none" stroke="#000000" stroke-linecap="round" stroke-linejoin="round" stroke-miterlimit="10" cx="11.9882" cy="5.9996" r="2.4773"/>
	<path fill="none" stroke="#000000" stroke-linecap="round" stroke-linejoin="round" stroke-miterlimit="10" d="M15.5011,19.4855
		H9.4285c-1.1184,0-1.0773-1.9414,0-1.9414h1.2004v-5.1327H9.4285c-1.1096,0-1.0859-1.9414,0-1.9414h4.8408
		c0.1638,0,0.2971,0.1348,0.2971,0.3004v6.7738h0.9347C16.5781,17.5441,16.616,19.4855,15.5011,19.4855z"/>
</g>
<rect x="-0.0137" y="0.0002" fill="none" width="24" height="24"/>
</svg>
