<?xml version="1.0" encoding="utf-8"?>
<!-- Generator: Adobe Illustrator 18.1.0, SVG Export Plug-In . SVG Version: 6.00 Build 0)  -->
<svg version="1.1" id="Layer_1" xmlns="http://www.w3.org/2000/svg" xmlns:xlink="http://www.w3.org/1999/xlink" x="0px" y="0px"
	 width="24px" height="24px" viewBox="0 0 24 24" enable-background="new 0 0 24 24" xml:space="preserve">
<g>
	<path fill="none" stroke="#000000" stroke-linecap="round" stroke-linejoin="round" stroke-miterlimit="10" d="M15.0812,2.3475
		c-1.574-2.0402-4.9284-2.0907-7.4924-0.1126S4.2224,7.4703,5.7964,9.5106L15.0812,2.3475z"/>
	
		<line fill="none" stroke="#000000" stroke-linecap="round" stroke-linejoin="round" stroke-miterlimit="10" x1="10.7175" y1="15.6706" x2="7.7765" y2="20.9908"/>
	
		<line fill="none" stroke="#000000" stroke-linecap="round" stroke-linejoin="round" stroke-miterlimit="10" x1="13.5339" y1="15.6706" x2="17.1267" y2="23.3463"/>
	
		<line fill="none" stroke="#000000" stroke-linecap="round" stroke-linejoin="round" stroke-miterlimit="10" x1="8.2185" y1="21.5197" x2="16.2717" y2="21.5197"/>
	<path fill="none" stroke="#000000" stroke-linecap="round" stroke-linejoin="round" stroke-miterlimit="10" d="M18.4588,9.5197
		c0,3-2.8353,6.3329-6.3329,6.3329S5.793,12.5197,5.793,9.5197H18.4588z"/>
	<path fill="none" stroke="#000000" stroke-linecap="round" stroke-linejoin="round" stroke-miterlimit="10" d="M9.107,12.9472
		c-0.5194-0.5292-0.8986-1.1686-1.0867-1.8733"/>
	
		<circle fill="none" stroke="#000000" stroke-linecap="round" stroke-linejoin="round" stroke-miterlimit="10" cx="6.9954" cy="22.0382" r="1.3081"/>
	
		<line fill="none" stroke="#000000" stroke-linecap="round" stroke-linejoin="round" stroke-miterlimit="10" x1="5.7964" y1="9.5197" x2="5.006" y2="9.5197"/>
	
		<line fill="none" stroke="#000000" stroke-linecap="round" stroke-linejoin="round" stroke-miterlimit="10" x1="20.4455" y1="11.5197" x2="18.0658" y2="11.5197"/>
</g>
<rect x="0" y="0.0197" fill="none" width="24" height="24"/>
</svg>
