<?xml version="1.0" encoding="utf-8"?>
<!-- Generator: Adobe Illustrator 18.1.0, SVG Export Plug-In . SVG Version: 6.00 Build 0)  -->
<svg version="1.1" id="Layer_1" xmlns="http://www.w3.org/2000/svg" xmlns:xlink="http://www.w3.org/1999/xlink" x="0px" y="0px"
	 width="24px" height="24px" viewBox="0 0 24 24" enable-background="new 0 0 24 24" xml:space="preserve">
<g>
	<polyline fill="none" stroke="#000000" stroke-linecap="round" stroke-linejoin="round" points="10.2206,3.9542 9.5436,1.6082 
		11.0999,1.159 11.7771,3.5054 	"/>
	<path fill="none" stroke="#000000" stroke-linecap="round" stroke-linejoin="round" d="M9.9543,6.7702L9.6595,5.7485
		C9.027,3.5572,12.5769,2.538,13.2079,4.7245l1.4858,5.1481c0.6324,2.1914-2.9174,3.2105-3.5484,1.0241l0,0l-0.4196-1.4539"/>
	
		<line fill="none" stroke="#000000" stroke-linecap="round" stroke-linejoin="round" x1="14.6937" y1="9.8726" x2="11.1452" y2="10.8967"/>
	<path fill="none" stroke="#000000" stroke-linecap="round" stroke-linejoin="round" d="M8.8027,8.1444
		C6.9246,9.793,5.8265,11.99,5.8265,14.5137c0,2.6438,1.5027,5.4188,3.3656,7.0208"/>
	<path fill="none" stroke="#000000" stroke-linecap="round" stroke-linejoin="round" d="M13.0984,21.5346
		c-2.9164-0.7849-5.3903-3.8603-5.3903-7.0208c0-1.9159,0.8068-3.7178,2.1942-5.0055"/>
	
		<line fill="none" stroke="#000000" stroke-linecap="round" stroke-linejoin="round" x1="9.0452" y1="18.5553" x2="17.4829" y2="18.5553"/>
	<circle fill="none" stroke="#000000" stroke-linecap="round" stroke-linejoin="round" cx="10.2079" cy="8.1444" r="1.3977"/>
	<path fill="none" stroke="#000000" stroke-linecap="round" stroke-linejoin="round" d="M19.4261,21.5346H5.5991
		c-0.5363,0-0.9727,0.4637-0.9727,1c0,0.5363,0.4363,1,0.9727,1h13.8271c0.5363,0,0.9727-0.4637,0.9727-1
		C20.3988,21.9982,19.9625,21.5346,19.4261,21.5346z"/>
	
		<line fill="none" stroke="#000000" stroke-linecap="round" stroke-linejoin="round" x1="13.4147" y1="12.1287" x2="14.1358" y2="14.5852"/>
	
		<line fill="none" stroke="#000000" stroke-linecap="round" stroke-linejoin="round" x1="14.2783" y1="11.5324" x2="16.1574" y2="13.3037"/>
	
		<line fill="none" stroke="#000000" stroke-linecap="round" stroke-linejoin="round" x1="12.3661" y1="12.076" x2="11.7551" y2="14.5852"/>
</g>
<rect x="0.0142" y="0.0346" fill="none" width="24" height="24"/>
</svg>
