<?xml version="1.0" encoding="utf-8"?>
<!-- Generator: Adobe Illustrator 18.1.1, SVG Export Plug-In . SVG Version: 6.00 Build 0)  -->
<svg version="1.1" id="Layer_1" xmlns="http://www.w3.org/2000/svg" xmlns:xlink="http://www.w3.org/1999/xlink" x="0px" y="0px"
	 width="24px" height="24px" viewBox="0 0 24 24" enable-background="new 0 0 24 24" xml:space="preserve">
<rect fill="none" width="24" height="24"/>
<g>
	<path fill="none" stroke="#000000" stroke-linecap="round" stroke-linejoin="round" d="M12.5116,11.4999h-2.5
		c-0.8285,0-1.5,0.6716-1.5,1.5l0,0c0,0.8284,0.6715,1.5,1.5,1.5h2.5"/>
	<path fill="none" stroke="#000000" stroke-linecap="round" stroke-linejoin="round" d="M12.5116,11.4999h1.5
		c0.8284,0,1.5,0.6716,1.5,1.5l0,0c0,0.8284-0.6716,1.5-1.5,1.5h-1.5"/>
	<path fill="none" stroke="#000000" stroke-linecap="round" stroke-linejoin="round" d="M12.5116,14.4999h1.5
		c0.8284,0,1.5,0.6716,1.5,1.5l0,0c0,0.8284-0.6716,1.5-1.5,1.5h-1.5"/>
	<path fill="none" stroke="#000000" stroke-linecap="round" stroke-linejoin="round" d="M12.5116,17.4999h1.4609
		c0.8069,0,1.461,0.5637,1.461,1.2591l0,0c0,0.6954-0.4462,1.0815-1.2791,1.2591"/>
	<path fill="none" stroke="#000000" stroke-linecap="round" stroke-linejoin="round" d="M13.0115,17.4999h-2
		c-0.8284,0-1.5-0.6716-1.5-1.5c0-0.8284,0.6716-1.5,1.5-1.5h1.5"/>
	<path fill="none" stroke="#000000" stroke-linecap="round" stroke-linejoin="round" d="M11.6883,8.4999H3.0115
		c-0.8284,0-1.5,0.6716-1.5,1.5c0,0.8284,0.6716,1.5,1.5,1.5h9.5"/>
	<path fill="none" stroke="#000000" stroke-linecap="round" stroke-linejoin="round" d="M22.5015,8.4109
		c-1.11-0.099-3.2291-2.8956-3.2291-2.8956c-1.4845-0.9817-4.976-0.669-5.5192,0.0163c-1.3585,1.7141-2.0649,2.9683-2.0649,2.9683
		c-0.5833,1.1695,1.1739,1.8356,2.0968,1.2013c0,0,1.8681-0.944,2.2818-1.7502l0,0c0,0,1.4924,0.9353,2.9345,1.5116"/>
	<path fill="none" stroke="#000000" stroke-linecap="round" stroke-linejoin="round" d="M22.5,17.4892
		c-0.8532,0.1479-3.2062,0.6116-4.6749,1.3593c-2.0638,1.0508-4.766,1.3415-4.766,1.3415c-0.8283,0-1.5476-0.3617-1.5476-1.1901
		c0-0.8284,0.6716-1.5,1.5-1.5"/>
</g>
</svg>
