<?xml version="1.0" encoding="utf-8"?>
<!-- Generator: Adobe Illustrator 18.1.0, SVG Export Plug-In . SVG Version: 6.00 Build 0)  -->
<svg version="1.1" id="Layer_1" xmlns="http://www.w3.org/2000/svg" xmlns:xlink="http://www.w3.org/1999/xlink" x="0px" y="0px"
	 width="24px" height="24px" viewBox="0 0 24 24" enable-background="new 0 0 24 24" xml:space="preserve">
<g>
	
		<line fill="none" stroke="#000000" stroke-linecap="round" stroke-linejoin="round" stroke-miterlimit="10" x1="0.5477" y1="21.503" x2="23.469" y2="21.503"/>
	
		<rect x="1.4728" y="6.503" fill="none" stroke="#000000" stroke-linecap="round" stroke-linejoin="round" stroke-miterlimit="10" width="6" height="15"/>
	<polyline fill="none" stroke="#000000" stroke-linecap="round" stroke-linejoin="round" stroke-miterlimit="10" points="
		5.4426,18.503 3.4202,18.503 3.4202,18.503 	"/>
	<polyline fill="none" stroke="#000000" stroke-linecap="round" stroke-linejoin="round" stroke-miterlimit="10" points="
		11.443,18.503 9.4205,18.503 9.4205,18.503 	"/>
	<polygon fill="none" stroke="#000000" stroke-linecap="round" stroke-linejoin="round" stroke-miterlimit="10" points="
		23.3197,19.7222 18.3589,21.5 13.8586,7.3574 18.8191,5.5792 	"/>
	<path fill="none" stroke="#000000" stroke-linecap="round" stroke-linejoin="round" stroke-miterlimit="10" d="M18.2254,9.1231
		c0.1718,0.5214-0.0942,1.0901-0.5943,1.2691c-0.5,0.1793-1.0451-0.0981-1.2169-0.6199c-0.1718-0.5217,0.0942-1.0902,0.5947-1.2693
		C17.5088,8.3234,18.0536,8.6016,18.2254,9.1231z"/>
	
		<circle fill="none" stroke="#000000" stroke-linecap="round" stroke-linejoin="round" stroke-miterlimit="10" cx="4.4314" cy="9.472" r="1.0112"/>
	
		<rect x="7.4728" y="6.503" fill="none" stroke="#000000" stroke-linecap="round" stroke-linejoin="round" stroke-miterlimit="10" width="6" height="15"/>
	
		<circle fill="none" stroke="#000000" stroke-linecap="round" stroke-linejoin="round" stroke-miterlimit="10" cx="10.4314" cy="9.472" r="1.0112"/>
</g>
<rect x="0" y="0" fill="none" width="24" height="24"/>
</svg>
