<?xml version="1.0" encoding="utf-8"?>
<!-- Generator: Adobe Illustrator 18.1.0, SVG Export Plug-In . SVG Version: 6.00 Build 0)  -->
<svg version="1.1" id="Layer_1" xmlns="http://www.w3.org/2000/svg" xmlns:xlink="http://www.w3.org/1999/xlink" x="0px" y="0px"
	 width="24px" height="24px" viewBox="0 0 24 24" enable-background="new 0 0 24 24" xml:space="preserve">
<g>
	<path fill="none" stroke="#000000" stroke-linecap="round" stroke-linejoin="round" stroke-miterlimit="10" d="M6.4095,15.8792
		c0,0-0.6473,0.6431-1.4973,1.3039c-2.5624,1.9922-4.0911-0.1628-4.0911-1.7138l0,0c-0.0309-2.1403,1.3033-4.101,1.359-4.1848"/>
	<path fill="none" stroke="#000000" stroke-linecap="round" stroke-linejoin="round" stroke-miterlimit="10" d="M9.236,14.9087
		L7.1571,16.155c-0.1866,0.1126-0.4222,0.0777-0.5718-0.0848l-4.5247-4.9155c-0.0279-0.021-0.0504-0.0456-0.0664-0.0748
		c-0.3485-0.6362,2.2081-3.5086,5.2155-3.9973"/>
	<path fill="none" stroke="#000000" stroke-linecap="round" stroke-linejoin="round" stroke-miterlimit="10" d="M17.6189,15.8792
		c0,0,0.6473,0.6431,1.4973,1.3039c2.608,2.0276,4.0911-0.2135,4.0911-1.7138l0,0c0.0309-2.1403-1.3033-4.101-1.359-4.1848"/>
	<path fill="none" stroke="#000000" stroke-linecap="round" stroke-linejoin="round" stroke-miterlimit="10" d="M14.7924,14.9087
		l2.0789,1.2463c0.1866,0.1126,0.4222,0.0777,0.5718-0.0848l4.5247-4.9155c0.0279-0.021,0.0504-0.0456,0.0664-0.0748
		c0.3485-0.6362-2.1797-3.4981-5.252-3.9973"/>
	<path fill="none" stroke="#000000" stroke-linecap="round" stroke-linejoin="round" stroke-miterlimit="10" d="M16.8494,6.813
		c0-0.618-2.1729-1.4826-4.8534-1.4826c-2.6804,0-4.8534,0.8646-4.8534,1.4826c0,0.0412,2.1322,8.2278,2.1322,8.2278
		c0.0695,0.2679,0.318,0.4558,0.603,0.4558h4.2363c0.285,0,0.5335-0.1878,0.603-0.4558
		C14.7171,15.0408,16.8494,6.8542,16.8494,6.813z"/>
</g>
<rect x="0.0142" y="0.0346" fill="none" width="24" height="24"/>
</svg>
