<?xml version="1.0" encoding="utf-8"?>
<!-- Generator: Adobe Illustrator 18.1.0, SVG Export Plug-In . SVG Version: 6.00 Build 0)  -->
<svg version="1.1" id="Layer_1" xmlns="http://www.w3.org/2000/svg" xmlns:xlink="http://www.w3.org/1999/xlink" x="0px" y="0px"
	 width="24px" height="24px" viewBox="0 0 24 24" enable-background="new 0 0 24 24" xml:space="preserve">
<g>
	<polyline fill="none" stroke="#000000" stroke-linecap="round" stroke-linejoin="round" points="15.8194,11.4926 12.0273,23.4242 
		8.1714,11.3309 	"/>
	<path fill="none" stroke="#000000" stroke-linecap="round" stroke-linejoin="round" d="M16.9781,8.5662
		c1.7427-3.648-0.9271-7.8507-4.9508-7.8507c-3.9962,0-6.6663,4.1502-4.979,7.7921c-1.0707,1.0196-0.3459,2.8219,1.1269,2.8219
		c0.219,0,0.4271-0.0446,0.618-0.1225c0.5877,0.5715,1.47,0.7558,2.2632,0.3977c0.0489,0.0087,0.0985,0.0152,0.1479,0.0226
		c0.3532,2.5261,4.0881,2.2287,4.0629-0.2996c0.2188,0.1084,0.4618,0.1749,0.7225,0.1749
		C17.5455,11.5025,18.2302,9.5209,16.9781,8.5662z"/>
	<line fill="none" stroke="#000000" stroke-linecap="round" stroke-linejoin="round" x1="9.08" y1="6.1643" x2="9.32" y2="5.9243"/>
	
		<line fill="none" stroke="#000000" stroke-linecap="round" stroke-linejoin="round" x1="15.1144" y1="5.2214" x2="15.3544" y2="4.9814"/>
	
		<line fill="none" stroke="#000000" stroke-linecap="round" stroke-linejoin="round" x1="14.1715" y1="8.698" x2="14.4115" y2="8.458"/>
	
		<line fill="none" stroke="#000000" stroke-linecap="round" stroke-linejoin="round" x1="9.9218" y1="3.2895" x2="10.2611" y2="3.279"/>
	
		<line fill="none" stroke="#000000" stroke-linecap="round" stroke-linejoin="round" x1="12.3787" y1="6.0548" x2="12.718" y2="6.0443"/>
	
		<line fill="none" stroke="#000000" stroke-linecap="round" stroke-linejoin="round" x1="12.5483" y1="3.2947" x2="12.8876" y2="3.2843"/>
	
		<line fill="none" stroke="#000000" stroke-linecap="round" stroke-linejoin="round" x1="11.0292" y1="8.9174" x2="11.0285" y2="8.578"/>
</g>
<rect x="0.0142" y="0.0346" fill="none" width="24" height="24"/>
</svg>
