<?xml version="1.0" encoding="utf-8"?>
<!-- Generator: Adobe Illustrator 18.1.0, SVG Export Plug-In . SVG Version: 6.00 Build 0)  -->
<svg version="1.1" id="Layer_1" xmlns="http://www.w3.org/2000/svg" xmlns:xlink="http://www.w3.org/1999/xlink" x="0px" y="0px"
	 width="24px" height="24px" viewBox="0 0 24 24" enable-background="new 0 0 24 24" xml:space="preserve">
<g>
	<circle fill="none" stroke="#000000" stroke-linecap="round" stroke-linejoin="round" cx="11.9862" cy="12.048" r="11.278"/>
	<path fill="none" stroke="#000000" stroke-linecap="round" stroke-linejoin="round" d="M4.6404,5.5407
		c0,0-1.5076,3.4605,0.3174,2.8163c1.3486-0.4759,1.4676-1.031,1.4676-1.031l0.7931-1.3884c0,0,0.119,1.9435,0.2777,2.2209
		c0.1587,0.2779,0.7933,1.0712,1.0312-0.0395C8.9647,6.0773,9.0384,5.5018,9.792,5.5018c0.7536,0,2.305-0.5956,2.4638,1.2289
		c0.1587,1.8246-0.1586,0.7535-1.1502,1.2297c-0.9917,0.4759-1.2297,2.1418-0.3174,2.34c0.5609,0.122,1.5564,0.4837,2.2402,0.7443
		c2.215,0.8441,2.2814,3.2865,2.2814,5.4431c0,0,0.0398,2.4989,0.952,1.904c0.9121-0.5949,3.4109-4.4821,2.8953-5.9495
		c-0.5156-1.4676-0.5551-1.6263,0.3967-2.1419c0.9518-0.5156,1.6261-1.1502,1.5864-1.8641"/>
	<path fill="none" stroke="#000000" stroke-linecap="round" stroke-linejoin="round" d="M2.7762,14.9014
		c0,0,0.2777-3.1476,0.9123-2.6449c0.6346,0.5031,0.912,0.5031,1.4674,1.0585c0.5554,0.5551,2.9351,0.8725,2.1418,1.5864
		c-0.7932,0.7141-1.0981,0.6728-2.1806,3.8473"/>
</g>
<rect x="-0.0136" y="0.0001" fill="none" width="24" height="24"/>
</svg>
