<?xml version="1.0" encoding="utf-8"?>
<!-- Generator: Adobe Illustrator 18.1.0, SVG Export Plug-In . SVG Version: 6.00 Build 0)  -->
<svg version="1.1" id="Layer_1" xmlns="http://www.w3.org/2000/svg" xmlns:xlink="http://www.w3.org/1999/xlink" x="0px" y="0px"
	 width="24px" height="24px" viewBox="0 0 24 24" enable-background="new 0 0 24 24" xml:space="preserve">
<g>
	<path fill="none" stroke="#000000" stroke-linecap="round" stroke-linejoin="round" d="M10.0349,3.6119
		c-5.1435,0-9.3282,4.1855-9.3282,9.3285c0,5.1438,4.1847,9.3282,9.3282,9.3282c5.1441,0,9.3285-4.1844,9.3285-9.3282
		C19.3634,7.7974,15.179,3.6119,10.0349,3.6119z"/>
	<circle fill="none" stroke="#000000" stroke-linecap="round" stroke-linejoin="round" cx="10.035" cy="12.9404" r="0.866"/>
	<polyline fill="none" stroke="#000000" stroke-linecap="round" stroke-linejoin="round" points="22.4864,2.0002 22.4864,15.2455 
		20.0129,20.3402 	"/>
	<path fill="none" stroke="#000000" stroke-linecap="round" stroke-linejoin="round" stroke-miterlimit="10" d="M20.4711,20.6003
		c0.236,0.1339,0.3187,0.4339,0.1848,0.6698l-0.8197,1.444c-0.134,0.236-0.434,0.3187-0.6699,0.1847l-0.6552-0.3719
		c-0.236-0.134-0.3187-0.4339-0.1848-0.67l0.8197-1.4439c0.134-0.236,0.4338-0.3186,0.6699-0.1848L20.4711,20.6003z"/>
	<circle fill="none" stroke="#000000" stroke-linecap="round" stroke-linejoin="round" cx="10.0353" cy="12.9398" r="2.7857"/>
</g>
<rect x="-0.0136" y="0.0002" fill="none" width="24" height="24"/>
</svg>
