<?xml version="1.0" encoding="utf-8"?>
<!-- Generator: Adobe Illustrator 18.1.0, SVG Export Plug-In . SVG Version: 6.00 Build 0)  -->
<svg version="1.1" id="Layer_1" xmlns="http://www.w3.org/2000/svg" xmlns:xlink="http://www.w3.org/1999/xlink" x="0px" y="0px"
	 width="24px" height="24px" viewBox="0 0 24 24" enable-background="new 0 0 24 24" xml:space="preserve">
<g>
	<path fill="none" stroke="#000000" stroke-linecap="round" stroke-linejoin="round" d="M14.6056,7.2304
		C11.4083,4.9966,7.0001,5.0711,3.9171,7.5201"/>
	<path fill="none" stroke="#000000" stroke-linecap="round" stroke-linejoin="round" d="M16.3902,19.9934
		c2.5288-3.1002,2.6225-7.4859,0.325-10.7033"/>
	
		<rect x="1.4141" y="7.0833" transform="matrix(0.707 0.7072 -0.7072 0.707 6.8848 0.4703)" fill="none" stroke="#000000" stroke-linecap="round" stroke-linejoin="round" width="2.9213" height="2.9209"/>
	
		<rect x="14.5054" y="6.475" transform="matrix(0.7071 0.7071 -0.7071 0.7071 10.2878 -8.9655)" fill="none" stroke="#000000" stroke-linecap="round" stroke-linejoin="round" width="2.9217" height="2.9215"/>
	
		<rect x="13.9294" y="19.5978" transform="matrix(0.7072 0.707 -0.707 0.7072 19.3957 -4.7149)" fill="none" stroke="#000000" stroke-linecap="round" stroke-linejoin="round" width="2.9214" height="2.9218"/>
	
		<rect x="9.167" y="0.939" transform="matrix(0.7072 0.707 -0.707 0.7072 3.809 -6.3975)" fill="none" stroke="#000000" stroke-linecap="round" stroke-linejoin="round" width="0.9218" height="0.9216"/>
	
		<rect x="22.1608" y="13.9327" transform="matrix(0.7071 0.7071 -0.7071 0.7071 16.8035 -11.7802)" fill="none" stroke="#000000" stroke-linecap="round" stroke-linejoin="round" width="0.9219" height="0.9216"/>
	<g>
		<g>
			
				<line fill="none" stroke="#000000" stroke-linecap="round" stroke-linejoin="round" x1="17.1201" y1="8.8477" x2="17.8312" y2="9.5506"/>
			
				<line fill="none" stroke="#000000" stroke-linecap="round" stroke-linejoin="round" stroke-dasharray="1.0702,2.1404" x1="19.3532" y1="11.0554" x2="20.8753" y2="12.5603"/>
			
				<line fill="none" stroke="#000000" stroke-linecap="round" stroke-linejoin="round" x1="21.6363" y1="13.3128" x2="22.3474" y2="14.0159"/>
		</g>
	</g>
	<g>
		<g>
			
				<line fill="none" stroke="#000000" stroke-linecap="round" stroke-linejoin="round" x1="9.9611" y1="1.7182" x2="10.6662" y2="2.4274"/>
			
				<line fill="none" stroke="#000000" stroke-linecap="round" stroke-linejoin="round" stroke-dasharray="1.0364,2.0727" x1="12.1276" y1="3.8972" x2="13.5889" y2="5.3672"/>
			
				<line fill="none" stroke="#000000" stroke-linecap="round" stroke-linejoin="round" x1="14.3197" y1="6.1021" x2="15.0247" y2="6.8113"/>
		</g>
	</g>
</g>
<rect x="0" y="-0.0001" fill="none" width="24" height="24"/>
</svg>
