<?xml version="1.0" encoding="utf-8"?>
<!-- Generator: Adobe Illustrator 18.1.0, SVG Export Plug-In . SVG Version: 6.00 Build 0)  -->
<svg version="1.1" id="Layer_1" xmlns="http://www.w3.org/2000/svg" xmlns:xlink="http://www.w3.org/1999/xlink" x="0px" y="0px"
	 width="24px" height="24px" viewBox="0 0 24 24" enable-background="new 0 0 24 24" xml:space="preserve">
<g>
	<path fill="none" stroke="#000000" stroke-linecap="round" stroke-linejoin="round" stroke-miterlimit="10" d="M18.7807,7.6659
		c0.9084,0.1469,1.8713-0.1225,2.572-0.8231c1.1581-1.1581,1.1582-3.036-0.0001-4.1942c-1.1583-1.1583-3.0362-1.1582-4.1943-0.0001
		c-0.7006,0.7007-0.9701,1.6635-0.8232,2.572L12,0.8853L7.7935,5.0919c0.8372-0.068,1.6968,0.2052,2.3373,0.8458
		c1.1583,1.1581,1.1583,3.0359,0.0001,4.1942c-1.1583,1.1582-3.036,1.1581-4.1942-0.0001C5.2961,9.4913,5.023,8.6317,5.0908,7.7945
		L0.8843,12.001L12,23.1168L23.1157,12.001L18.7807,7.6659z"/>
</g>
<rect x="0" y="0.001" fill="none" width="24" height="24"/>
</svg>
