<?xml version="1.0" encoding="utf-8"?>
<!-- Generator: Adobe Illustrator 18.1.0, SVG Export Plug-In . SVG Version: 6.00 Build 0)  -->
<svg version="1.1" id="Layer_1" xmlns="http://www.w3.org/2000/svg" xmlns:xlink="http://www.w3.org/1999/xlink" x="0px" y="0px"
	 width="24px" height="24px" viewBox="0 0 24 24" enable-background="new 0 0 24 24" xml:space="preserve">
<g>
	
		<line fill="none" stroke="#000000" stroke-linecap="round" stroke-linejoin="round" stroke-miterlimit="10" x1="20.4896" y1="23.4259" x2="20.4899" y2="15.1309"/>
	<path fill="none" stroke="#000000" stroke-linecap="round" stroke-linejoin="round" stroke-miterlimit="10" d="M21.8426,2.9699
		c0,0.7615-0.6056,1.8249-1.3527,1.8249c-0.7471,0-1.3527-1.0634-1.3527-1.8249s0.6056-1.3789,1.3527-1.3789
		C21.237,1.591,21.8426,2.2084,21.8426,2.9699z"/>
	<path fill="none" stroke="#000000" stroke-linecap="round" stroke-linejoin="round" stroke-miterlimit="10" d="M22.2401,23.4259
		l0.5351-9.8085c0.0078-0.1982,0.6321,0.0598,0.639-0.1281c0.2543-6.9373-0.3116-7.3785-0.3755-7.433
		c-0.0753-0.0215-0.6927-0.0385-0.8775-0.0503c-0.2498-0.016-0.4652,0.1395-0.5799,0.3663c-0.4068,0.8042-1.7763,0.8042-2.183,0
		C19.2837,6.1455,19.0683,5.99,18.8185,6.006c-0.1566,0.01-4.4445,0.7152-5.7943,0.9431C12.4668,7.0432,12.5,7.8713,13.0605,7.9236
		l5.144,0.4801v5.2138l0.5346,9.8085"/>
	
		<line fill="none" stroke="#000000" stroke-linecap="round" stroke-linejoin="round" x1="9.4894" y1="1.5" x2="9.4894" y2="0.5186"/>
	
		<line fill="none" stroke="#000000" stroke-linecap="round" stroke-linejoin="round" x1="15.4894" y1="1.5" x2="15.4894" y2="0.5186"/>
	<polyline fill="none" stroke="#000000" stroke-linecap="round" stroke-linejoin="round" points="15.9894,18.5 0.4894,18.5 
		0.4894,1.5 16.9894,1.5 	"/>
	
		<line fill="none" stroke="#000000" stroke-linecap="round" stroke-linejoin="round" x1="12.4894" y1="20.6259" x2="12.4894" y2="23.5"/>
	
		<line fill="none" stroke="#000000" stroke-linecap="round" stroke-linejoin="round" x1="8.9894" y1="23.5" x2="14.9894" y2="23.5"/>
	<rect x="3.5024" y="11.4997" fill="none" stroke="#000000" stroke-linecap="round" stroke-linejoin="round" width="4" height="4"/>
	<rect x="3.5024" y="4.4993" fill="none" stroke="#000000" stroke-linecap="round" stroke-linejoin="round" width="4" height="4"/>
	
		<line fill="none" stroke="#000000" stroke-linecap="round" stroke-linejoin="round" x1="9.5781" y1="5.4997" x2="14.3569" y2="5.4997"/>
	
		<line fill="none" stroke="#000000" stroke-linecap="round" stroke-linejoin="round" x1="9.5781" y1="12.4998" x2="14.3569" y2="12.4998"/>
	
		<line fill="none" stroke="#000000" stroke-linecap="round" stroke-linejoin="round" x1="9.5781" y1="7.4996" x2="10.5043" y2="7.4996"/>
	
		<line fill="none" stroke="#000000" stroke-linecap="round" stroke-linejoin="round" x1="9.5781" y1="14.4997" x2="10.5043" y2="14.4997"/>
</g>
<rect x="-0.0137" fill="none" width="24" height="24"/>
</svg>
