<?xml version="1.0" encoding="utf-8"?>
<!-- Generator: Adobe Illustrator 18.1.0, SVG Export Plug-In . SVG Version: 6.00 Build 0)  -->
<svg version="1.1" id="Layer_1" xmlns="http://www.w3.org/2000/svg" xmlns:xlink="http://www.w3.org/1999/xlink" x="0px" y="0px"
	 width="24px" height="24px" viewBox="0 0 24 24" enable-background="new 0 0 24 24" xml:space="preserve">
<g>
	
		<line fill="none" stroke="#000000" stroke-linecap="round" stroke-linejoin="round" stroke-miterlimit="10" x1="0.9864" y1="23.5" x2="22.9863" y2="23.5"/>
	
		<rect x="6.4864" y="3.5" fill="none" stroke="#000000" stroke-linecap="round" stroke-linejoin="round" stroke-miterlimit="10" width="2" height="5"/>
	
		<rect x="11.4864" y="3.5" fill="none" stroke="#000000" stroke-linecap="round" stroke-linejoin="round" stroke-miterlimit="10" width="2" height="5"/>
	
		<line fill="none" stroke="#000000" stroke-linecap="round" stroke-linejoin="round" stroke-miterlimit="10" x1="9.4924" y1="10.5572" x2="9.4924" y2="15.4622"/>
	
		<line fill="none" stroke="#000000" stroke-linecap="round" stroke-linejoin="round" x1="5.4688" y1="20.5062" x2="5.4688" y2="20.5062"/>
	
		<line fill="none" stroke="#000000" stroke-linecap="round" stroke-linejoin="round" x1="18.4568" y1="20.5062" x2="18.4568" y2="20.5062"/>
	<g>
		
			<line fill="none" stroke="#000000" stroke-linecap="round" stroke-linejoin="round" stroke-miterlimit="10" x1="9.5105" y1="20.5062" x2="14.4629" y2="20.5062"/>
		<g>
			<circle fill="none" stroke="#000000" stroke-linecap="round" stroke-linejoin="round" cx="5.4688" cy="20.5062" r="1.948"/>
			<circle fill="none" stroke="#000000" stroke-linecap="round" stroke-linejoin="round" cx="18.4568" cy="20.5062" r="1.948"/>
			<path fill="none" stroke="#000000" stroke-linecap="round" stroke-linejoin="round" stroke-miterlimit="10" d="M22.4217,20.5062
				h0.8667c-0.0857-5-4.0847-4.9369-5.5588-5.044c-0.2381-0.0173-0.2965-0.1695-0.356-0.4
				c-0.3122-1.2088-1.6086-4.5442-6.2688-4.5203c-0.1195,0.0006-1.1879,0-1.3039,0.0034c-5.5682,0.1639-6.3186,3.4469-6.4139,4.5715
				c-0.0186,0.2201-0.1869,0.377-0.4001,0.4369c-2.4619,0.6918-2.3615,4.9524-2.3615,4.9524h0.6995"/>
		</g>
	</g>
	
		<line fill="none" stroke="#000000" stroke-linecap="round" stroke-linejoin="round" stroke-miterlimit="10" x1="3.1739" y1="15.4622" x2="17.7296" y2="15.4622"/>
	<polygon fill="none" stroke="#000000" stroke-linecap="round" stroke-linejoin="round" stroke-miterlimit="10" points="
		11.4864,3.5 11.4864,2.5 8.4864,2.5 8.4864,3.5 6.4864,3.5 6.4864,8.5 13.4864,8.5 13.4864,3.5 	"/>
</g>
<rect x="-0.0136" y="0" fill="none" width="24" height="24"/>
</svg>
