<?xml version="1.0" encoding="utf-8"?>
<!-- Generator: Adobe Illustrator 18.1.0, SVG Export Plug-In . SVG Version: 6.00 Build 0)  -->
<svg version="1.1" id="Layer_1" xmlns="http://www.w3.org/2000/svg" xmlns:xlink="http://www.w3.org/1999/xlink" x="0px" y="0px"
	 width="24px" height="24px" viewBox="0 0 24 24" enable-background="new 0 0 24 24" xml:space="preserve">
<g>
	
		<line fill="none" stroke="#000000" stroke-linecap="round" stroke-linejoin="round" stroke-miterlimit="10" x1="12" y1="2.5205" x2="12" y2="2.5205"/>
	
		<line fill="none" stroke="#000000" stroke-linecap="round" stroke-linejoin="round" stroke-miterlimit="10" x1="10.031" y1="2.5205" x2="10.031" y2="2.5205"/>
	
		<line fill="none" stroke="#000000" stroke-linecap="round" stroke-linejoin="round" stroke-miterlimit="10" x1="13.969" y1="2.5205" x2="13.969" y2="2.5205"/>
	
		<line fill="none" stroke="#000000" stroke-linecap="round" stroke-linejoin="round" stroke-miterlimit="10" x1="12" y1="4.4895" x2="12" y2="4.4895"/>
	
		<line fill="none" stroke="#000000" stroke-linecap="round" stroke-linejoin="round" stroke-miterlimit="10" x1="10.031" y1="4.4895" x2="10.031" y2="4.4895"/>
	
		<line fill="none" stroke="#000000" stroke-linecap="round" stroke-linejoin="round" stroke-miterlimit="10" x1="13.969" y1="4.4895" x2="13.969" y2="4.4895"/>
	
		<line fill="none" stroke="#000000" stroke-linecap="round" stroke-linejoin="round" stroke-miterlimit="10" x1="12" y1="6.4585" x2="12" y2="6.4585"/>
	
		<line fill="none" stroke="#000000" stroke-linecap="round" stroke-linejoin="round" stroke-miterlimit="10" x1="10.031" y1="6.4585" x2="10.031" y2="6.4585"/>
	
		<line fill="none" stroke="#000000" stroke-linecap="round" stroke-linejoin="round" stroke-miterlimit="10" x1="13.969" y1="6.4585" x2="13.969" y2="6.4585"/>
	<path fill="none" stroke="#000000" stroke-linecap="round" stroke-linejoin="round" stroke-miterlimit="10" d="M8.0387,0.5048
		v6.2145c0,2.1135,1.7735,3.8269,3.9613,3.8269s3.9613-1.7134,3.9613-3.8269V0.5048H8.0387z"/>
	<path fill="none" stroke="#000000" stroke-linecap="round" stroke-linejoin="round" stroke-miterlimit="10" d="M11.9977,23.3727
		c-0.7813,0-1.4166-0.6357-1.4166-1.4165v-6.4186h2.833v6.4186C13.4141,22.737,12.7786,23.3727,11.9977,23.3727"/>
	
		<line fill="none" stroke="#000000" stroke-linecap="round" stroke-linejoin="round" stroke-miterlimit="10" x1="11.9977" y1="21.5341" x2="11.9977" y2="21.5341"/>
	
		<line fill="none" stroke="#000000" stroke-linecap="round" stroke-linejoin="round" stroke-miterlimit="10" x1="11.9976" y1="10.5462" x2="11.9977" y2="13.4679"/>
</g>
<rect x="0" y="0.0197" fill="none" width="24" height="24"/>
</svg>
