<?xml version="1.0" encoding="utf-8"?>
<!-- Generator: Adobe Illustrator 18.1.1, SVG Export Plug-In . SVG Version: 6.00 Build 0)  -->
<svg version="1.1" id="Layer_1" xmlns="http://www.w3.org/2000/svg" xmlns:xlink="http://www.w3.org/1999/xlink" x="0px" y="0px"
	 width="24px" height="24px" viewBox="0 0 24 24" enable-background="new 0 0 24 24" xml:space="preserve">
<g>
	<polyline fill="none" stroke="#000000" stroke-linecap="round" stroke-linejoin="round" stroke-miterlimit="10" points="12.9,14.5 
		0.5,14.5 0.5,3.5 23,3.5 	"/>
	
		<line fill="none" stroke="#000000" stroke-linecap="round" stroke-linejoin="round" stroke-miterlimit="10" x1="23" y1="14.5" x2="15.1" y2="14.5"/>
	
		<line fill="none" stroke="#000000" stroke-linecap="round" stroke-linejoin="round" stroke-miterlimit="10" x1="21.5" y1="6.3" x2="21.5" y2="11.7"/>
	<path fill="none" stroke="#000000" stroke-linecap="round" stroke-linejoin="round" d="M18.3,19.9L16.9,18l1.3-0.3
		c0.2,0,0.3-0.3,0.1-0.4L13,12.6c-0.2-0.2-0.4,0-0.4,0.2l1.2,6.9c0,0.2,0.3,0.3,0.4,0.1l1-1l1.3,2.3c0.1,0.1,0.2,0.2,0.3,0.1
		l1.3-0.9C18.4,20.2,18.4,20.1,18.3,19.9z"/>
	<polyline fill="none" stroke="#000000" stroke-linecap="round" stroke-linejoin="round" stroke-miterlimit="10" points="2.8,7.8 
		3.8,10.5 4.9,7.8 5.9,10.5 6.9,7.8 	"/>
	<polyline fill="none" stroke="#000000" stroke-linecap="round" stroke-linejoin="round" stroke-miterlimit="10" points="8.2,7.8 
		9.2,10.5 10.3,7.8 11.3,10.5 12.3,7.8 	"/>
	<polyline fill="none" stroke="#000000" stroke-linecap="round" stroke-linejoin="round" stroke-miterlimit="10" points="13.5,7.8 
		14.5,10.5 15.6,7.8 16.6,10.5 17.6,7.8 	"/>
	
		<line fill="none" stroke="#000000" stroke-linecap="round" stroke-linejoin="round" stroke-miterlimit="10" x1="18.5" y1="10.4" x2="18.5" y2="10.5"/>
</g>
<rect fill="none" width="24" height="24"/>
</svg>
