<?xml version="1.0" encoding="utf-8"?>
<!-- Generator: Adobe Illustrator 18.1.0, SVG Export Plug-In . SVG Version: 6.00 Build 0)  -->
<svg version="1.1" id="Layer_1" xmlns="http://www.w3.org/2000/svg" xmlns:xlink="http://www.w3.org/1999/xlink" x="0px" y="0px"
	 width="24px" height="24px" viewBox="0 0 24 24" enable-background="new 0 0 24 24" xml:space="preserve">
<g>
	<path fill="none" stroke="#000000" stroke-linecap="round" stroke-linejoin="round" stroke-miterlimit="10" d="M12.0899,22.6629
		c5.2234-0.087,6.3707-3.5094,6.2566-5.6775c-0.1142-2.1703-2.3702-4.6548-2.6273-8.4529c-0.2077-3.0699-2.4507-3.1335-3.3032-3.045
		c-0.2187,0.0227-0.4337,0.0227-0.6524,0c-0.8525-0.0885-3.0954-0.0248-3.3032,3.045c-0.257,3.7981-2.513,6.2826-2.6273,8.4529
		C5.7192,19.1534,6.8665,22.5759,12.0899,22.6629z"/>
	<path fill="none" stroke="#000000" stroke-linecap="round" stroke-linejoin="round" stroke-miterlimit="10" d="M12.2725,3.4707
		c-1.6433,1.7645-4.2614-2.5758-4.2614-2.5758S12.085-0.5066,12.2725,3.4707z"/>
	<path fill="none" stroke="#000000" stroke-linecap="round" stroke-linejoin="round" stroke-miterlimit="10" d="M12.0227,6.5697
		c0,0-0.8061-4.1716,2.4586-5.1591"/>
	<polyline fill="none" stroke="#000000" stroke-linecap="round" stroke-linejoin="round" stroke-miterlimit="10" points="
		11.3259,23.4137 11.9354,22.1111 12.5464,23.4137 	"/>
	<path fill="none" stroke="#000000" stroke-linecap="round" stroke-linejoin="round" stroke-miterlimit="10" d="M14.6017,19.7581
		c0,0,2.2382-2.2174,0.6891-4.4348"/>
</g>
<rect x="0" y="0.0346" fill="none" width="24" height="24"/>
</svg>
