<?xml version="1.0" encoding="utf-8"?>
<!-- Generator: Adobe Illustrator 18.1.0, SVG Export Plug-In . SVG Version: 6.00 Build 0)  -->
<svg version="1.1" id="Layer_1" xmlns="http://www.w3.org/2000/svg" xmlns:xlink="http://www.w3.org/1999/xlink" x="0px" y="0px"
	 width="24px" height="24px" viewBox="0 0 24 24" enable-background="new 0 0 24 24" xml:space="preserve">
<g>
	<path fill="none" stroke="#000000" stroke-linecap="round" stroke-linejoin="round" stroke-miterlimit="10" d="M12.0803,6.4117
		c0.1598-4.0278,7.4652-2.7703,7.4652-2.7703S16.734,10.1188,12.0803,6.4117z"/>
	<path fill="none" stroke="#000000" stroke-linecap="round" stroke-linejoin="round" stroke-miterlimit="10" d="M12.0803,6.4117
		c0,0-0.641-4.5539,1.4366-5.7083c0,0-0.0668,0.3937,0.4083,0.5548C14.5559,1.4732,12.5597,3.1762,12.0803,6.4117z"/>
	<path fill="none" stroke="#000000" stroke-linecap="round" stroke-linejoin="round" stroke-miterlimit="10" d="M4.8513,2.4726
		c0.6748,3.0659,3.8378,4.9291,7.229,3.9391C11.4236,3.3696,8.2421,1.4697,4.8513,2.4726z"/>
	<path fill="none" stroke="#000000" stroke-linecap="round" stroke-linejoin="round" stroke-miterlimit="10" d="M9.5315,6.6395
		c-2.2326,0.4023-5.1411,1.5393-5.0137,4.8134c0.2071,5.3217,5.5401,11.9365,7.5027,11.9365c2.4902,0,8.1598-8.1106,7.6938-12.1659
		c-0.2051-1.7845-1.5066-3.1532-3.4211-3.9671"/>
	
		<line fill="none" stroke="#000000" stroke-linecap="round" stroke-linejoin="round" stroke-miterlimit="10" x1="12.4199" y1="13.54" x2="12.4199" y2="14.3404"/>
	
		<line fill="none" stroke="#000000" stroke-linecap="round" stroke-linejoin="round" stroke-miterlimit="10" x1="12.609" y1="19.505" x2="12.4199" y2="20.2938"/>
	
		<line fill="none" stroke="#000000" stroke-linecap="round" stroke-linejoin="round" stroke-miterlimit="10" x1="9.5242" y1="15.6268" x2="9.6062" y2="16.4341"/>
	
		<line fill="none" stroke="#000000" stroke-linecap="round" stroke-linejoin="round" stroke-miterlimit="10" x1="16.4363" y1="12.5861" x2="16.4363" y2="13.3865"/>
	
		<line fill="none" stroke="#000000" stroke-linecap="round" stroke-linejoin="round" stroke-miterlimit="10" x1="14.8709" y1="16.7526" x2="14.4332" y2="17.4467"/>
	
		<line fill="none" stroke="#000000" stroke-linecap="round" stroke-linejoin="round" stroke-miterlimit="10" x1="7.4837" y1="12.5861" x2="7.4837" y2="13.3865"/>
	
		<line fill="none" stroke="#000000" stroke-linecap="round" stroke-linejoin="round" stroke-miterlimit="10" x1="9.7632" y1="9.7209" x2="9.3672" y2="10.4355"/>
	
		<line fill="none" stroke="#000000" stroke-linecap="round" stroke-linejoin="round" stroke-miterlimit="10" x1="13.493" y1="9.5598" x2="13.7082" y2="10.3359"/>
</g>
<rect x="0.003" y="0.0346" fill="none" width="24" height="24"/>
</svg>
