<?xml version="1.0" encoding="utf-8"?>
<!-- Generator: Adobe Illustrator 18.1.0, SVG Export Plug-In . SVG Version: 6.00 Build 0)  -->
<svg version="1.1" id="Layer_1" xmlns="http://www.w3.org/2000/svg" xmlns:xlink="http://www.w3.org/1999/xlink" x="0px" y="0px"
	 width="24px" height="24px" viewBox="0 0 24 24" enable-background="new 0 0 24 24" xml:space="preserve">
<g>
	
		<line fill="none" stroke="#000000" stroke-linecap="round" stroke-linejoin="round" stroke-miterlimit="10" x1="12.4859" y1="0.6597" x2="12.4859" y2="4.3564"/>
	
		<line fill="none" stroke="#000000" stroke-linecap="round" stroke-linejoin="round" stroke-miterlimit="10" x1="16.8595" y1="1.5527" x2="14.8471" y2="5.0384"/>
	
		<line fill="none" stroke="#000000" stroke-linecap="round" stroke-linejoin="round" stroke-miterlimit="10" x1="8.1122" y1="1.5527" x2="10.1247" y2="5.0384"/>
	<path fill="none" stroke="#000000" stroke-linecap="round" stroke-linejoin="round" stroke-miterlimit="10" d="M2.246,15.4351
		c-0.7985,0-1.4457-0.6473-1.4457-1.4457c0-0.7985,0.6473-1.4457,1.4457-1.4457"/>
	<path fill="none" stroke="#000000" stroke-linecap="round" stroke-linejoin="round" stroke-miterlimit="10" d="M13.5045,9.5316
		V8.4632h1.4262h8.5794v3.0565h-5.7636c-1.5312,0-2.7147,1.2198-2.8332,2.7464c-0.2485,3.2013-3.123,5.8096-6.5786,5.1351
		c-2.1595-0.4215-3.9112-2.1673-4.3389-4.3256c-0.718-3.6235,2.1747-6.6125,5.5816-6.6125h1.9881v1.0685
		c0,0.5354,0.434,0.9694,0.9694,0.9694h0C13.0705,10.5011,13.5045,10.067,13.5045,9.5316z"/>
</g>
<rect x="-0.0061" y="0" fill="none" width="24" height="24"/>
</svg>
