<?xml version="1.0" encoding="utf-8"?>
<!-- Generator: Adobe Illustrator 18.1.0, SVG Export Plug-In . SVG Version: 6.00 Build 0)  -->
<svg version="1.1" id="Layer_1" xmlns="http://www.w3.org/2000/svg" xmlns:xlink="http://www.w3.org/1999/xlink" x="0px" y="0px"
	 width="24px" height="24px" viewBox="0 0 24 24" enable-background="new 0 0 24 24" xml:space="preserve">
<g>
	<path fill="none" stroke="#000000" stroke-linecap="round" stroke-linejoin="round" stroke-miterlimit="10" d="M14.7673,15.2584
		c0.5807,0,1.1614,0.2215,1.6045,0.6646l0,0c0.8862,0.8862,2.3229,0.8862,3.209,0l0,0c0.8862-0.8862,2.3229-0.8862,3.209,0"/>
	
		<circle fill="none" stroke="#000000" stroke-linecap="round" stroke-linejoin="round" stroke-miterlimit="10" cx="11.4994" cy="14.9229" r="1.4792"/>
	
		<line fill="none" stroke="#000000" stroke-linecap="round" stroke-linejoin="round" stroke-miterlimit="10" x1="11.4863" y1="13.4437" x2="11.4863" y2="2.5"/>
	
		<line fill="none" stroke="#000000" stroke-linecap="round" stroke-linejoin="round" stroke-miterlimit="10" x1="11.4994" y1="4.5" x2="14.9863" y2="4.5"/>
	
		<line fill="none" stroke="#000000" stroke-linecap="round" stroke-linejoin="round" stroke-miterlimit="10" x1="11.4994" y1="7.5" x2="14.9863" y2="7.5"/>
	
		<line fill="none" stroke="#000000" stroke-linecap="round" stroke-linejoin="round" stroke-miterlimit="10" x1="11.4994" y1="10.5" x2="14.9863" y2="10.5"/>
	<path fill="none" stroke="#000000" stroke-linecap="round" stroke-linejoin="round" stroke-miterlimit="10" d="M0.9397,15.4958
		c0.8459-0.414,1.8926-0.2761,2.5959,0.4272c0.8862,0.8861,2.3229,0.8861,3.209,0c0.4373-0.4373,1.0087-0.6588,1.5818-0.6646"/>
	<path fill="none" stroke="#000000" stroke-linecap="round" stroke-linejoin="round" stroke-miterlimit="10" d="M22.7899,19.4173
		c-0.8862-0.8861-2.3229-0.8861-3.209,0c-0.8862,0.8862-2.3229,0.8862-3.209,0c-0.8862-0.8861-2.3229-0.8861-3.209,0
		c-0.8862,0.8862-2.3229,0.8862-3.209,0c-0.8862-0.8861-2.3229-0.8861-3.209,0c-0.8862,0.8862-2.3229,0.8862-3.209,0
		c-0.7033-0.7032-1.7499-0.8412-2.5959-0.4272"/>
</g>
<rect x="-0.0137" y="0" fill="none" width="24" height="24"/>
</svg>
