<?xml version="1.0" encoding="utf-8"?>
<!-- Generator: Adobe Illustrator 18.1.0, SVG Export Plug-In . SVG Version: 6.00 Build 0)  -->
<svg version="1.1" id="Layer_1" xmlns="http://www.w3.org/2000/svg" xmlns:xlink="http://www.w3.org/1999/xlink" x="0px" y="0px"
	 width="24px" height="24px" viewBox="0 0 24 24" enable-background="new 0 0 24 24" xml:space="preserve">
<g>
	<path fill="none" stroke="#000000" stroke-linecap="round" stroke-linejoin="round" stroke-miterlimit="10" d="M19.4535,23.3438
		v-1.046c0-0.2933-0.1718-0.5565-0.4314-0.6605c-3.0462-1.2232-6.4278-2.7421-6.712-3.6885v-0.9929
		c0.6319-0.6717,1.1303-1.6085,1.4253-2.7053c0.7087-0.5171,0.8849-1.583,0.2983-2.3328V9.6951
		c0-2.2945-1.2296-3.8652-4.0407-3.8652c-2.7386,0-4.0422,1.5707-4.0422,3.8652v2.2234c-0.5853,0.7487-0.4095,1.8139,0.2983,2.3316
		c0.2949,1.0972,0.7937,2.034,1.426,2.7057v0.9929c-0.2834,0.9453-3.6658,2.4646-6.7119,3.6885
		c-0.2596,0.1047-0.4314,0.3671-0.4314,0.6605v1.046"/>
	
		<line fill="none" stroke="#000000" stroke-linecap="round" stroke-linejoin="round" stroke-miterlimit="10" x1="16.0036" y1="5.5004" x2="23.0036" y2="5.5004"/>
</g>
<rect x="0.0005" y="0.0004" fill="none" width="24" height="24"/>
</svg>
