<?xml version="1.0" encoding="utf-8"?>
<!-- Generator: Adobe Illustrator 18.1.0, SVG Export Plug-In . SVG Version: 6.00 Build 0)  -->
<svg version="1.1" id="Layer_1" xmlns="http://www.w3.org/2000/svg" xmlns:xlink="http://www.w3.org/1999/xlink" x="0px" y="0px"
	 width="24px" height="24px" viewBox="0 0 24 24" enable-background="new 0 0 24 24" xml:space="preserve">
<g>
	<path fill="none" stroke="#000000" stroke-linecap="round" stroke-linejoin="round" stroke-miterlimit="10" d="M13.9843,4.4855
		h0.8979c0,0,0.4971-0.0305,0.6942,0.4529c0.0371,0.093,0.2887,1.4962,0.6195,2.4824c0.7449,2.2253,3.0721,6.1193,3.0721,6.1193"/>
	
		<line fill="none" stroke="#000000" stroke-linecap="round" stroke-linejoin="round" stroke-miterlimit="10" x1="11.7969" y1="13.0736" x2="16.6262" y2="8.5189"/>
	<polyline fill="none" stroke="#000000" stroke-linecap="round" stroke-linejoin="round" stroke-miterlimit="10" points="
		16.196,7.4659 9.4727,7.4659 10.831,12.5985 	"/>
	<polyline fill="none" stroke="#000000" stroke-linecap="round" stroke-linejoin="round" stroke-miterlimit="10" points="
		9.4727,6.1558 9.4727,7.4659 5.0028,13.0707 	"/>
	<path fill="none" stroke="#000000" stroke-linecap="round" stroke-linejoin="round" stroke-miterlimit="10" d="M8.5218,14.7144
		c-0.5124,1.657-2.0569,2.8613-3.8823,2.8613c-2.2432,0-4.0629-1.8193-4.0629-4.0625c0-2.2436,1.8198-4.0629,4.0629-4.0629
		c1.9632,0,3.6015,1.4731,3.9804,3.3244"/>
	
		<circle fill="none" stroke="#000000" stroke-linecap="round" stroke-linejoin="round" stroke-miterlimit="10" cx="19.331" cy="13.5133" r="4.0629"/>
	<path fill="none" stroke="#000000" stroke-linecap="round" stroke-linejoin="round" d="M10.831,12.5985
		c-0.0866,0-6.1916,0.502-6.1916,0.502c-0.264,0-0.4781,0.214-0.4781,0.4781c0,0.243,0.1841,0.4357,0.4187,0.4661l-0.0004,0.0072
		c0,0,6.1213,0.9978,6.2513,0.9978c0.6768,0,1.2255-0.5492,1.2255-1.2255C12.0566,13.1468,11.5079,12.5985,10.831,12.5985z"/>
	<path fill="none" stroke="#000000" stroke-linecap="round" stroke-linejoin="round" stroke-miterlimit="10" d="M7.892,4.566
		c0,0,4.4307,0.3623,3.6901,0.6908c-1.1593,0.5143-2.11,0.899-2.11,0.899C8.4623,6.2318,5.4008,4.6318,7.892,4.566z"/>
</g>
<rect x="-0.0136" y="0.0002" fill="none" width="24" height="24"/>
</svg>
