<?xml version="1.0" encoding="utf-8"?>
<!-- Generator: Adobe Illustrator 18.1.0, SVG Export Plug-In . SVG Version: 6.00 Build 0)  -->
<svg version="1.1" id="Layer_1" xmlns="http://www.w3.org/2000/svg" xmlns:xlink="http://www.w3.org/1999/xlink" x="0px" y="0px"
	 width="24px" height="24px" viewBox="0 0 24 24" enable-background="new 0 0 24 24" xml:space="preserve">
<g>
	<polygon fill="none" stroke="#000000" stroke-linecap="round" stroke-linejoin="round" points="14.5344,17.5207 8.5218,17.5207 
		8.5218,22.5269 9.7635,22.5269 10.7592,23.5207 12.297,23.5207 13.293,22.5269 14.5344,22.5269 	"/>
	<path fill="none" stroke="#000000" stroke-linecap="round" stroke-linejoin="round" d="M18.3489,7.3272
		c0-3.7064-3.0538-6.711-6.8209-6.711c-3.767,0-6.8206,3.0046-6.8206,6.711c0,1.9797,0.8745,4.1618,2.2602,5.77l-0.0041,0.0047
		c0,0,1.9907,2.5694,1.9907,4.4189h5.1484v-0.0239l0.0248,0.0239c0-1.8495,1.9687-4.4326,1.9687-4.4326
		C17.4777,11.4812,18.3489,9.3032,18.3489,7.3272z"/>
	
		<line fill="none" stroke="#000000" stroke-linecap="round" stroke-linejoin="round" x1="11.5281" y1="17.5207" x2="11.5281" y2="10.1758"/>
	
		<ellipse transform="matrix(0.6932 0.7208 -0.7208 0.6932 9.9595 -4.2886)" fill="none" stroke="#000000" stroke-linecap="round" stroke-linejoin="round" cx="10.0169" cy="9.5536" rx="1.7979" ry="1.1855"/>
	
		<ellipse transform="matrix(-0.6932 0.7208 -0.7208 -0.6932 28.9636 6.7774)" fill="none" stroke="#000000" stroke-linecap="round" stroke-linejoin="round" cx="13.0393" cy="9.5536" rx="1.7979" ry="1.1855"/>
</g>
<rect x="0.0142" y="0.0354" fill="none" width="24" height="24"/>
</svg>
