<?xml version="1.0" encoding="utf-8"?>
<!-- Generator: Adobe Illustrator 18.1.0, SVG Export Plug-In . SVG Version: 6.00 Build 0)  -->
<svg version="1.1" id="Layer_1" xmlns="http://www.w3.org/2000/svg" xmlns:xlink="http://www.w3.org/1999/xlink" x="0px" y="0px"
	 width="24px" height="24px" viewBox="0 0 24 24" enable-background="new 0 0 24 24" xml:space="preserve">
<g>
	<circle fill="none" stroke="#000000" stroke-linecap="round" stroke-linejoin="round" cx="11.9853" cy="15.3926" r="7.8793"/>
	<circle fill="none" stroke="#000000" stroke-linecap="round" stroke-linejoin="round" cx="11.9761" cy="15.4454" r="1.5403"/>
	
		<line fill="none" stroke="#000000" stroke-linecap="round" stroke-linejoin="round" x1="13.0649" y1="14.3568" x2="14.177" y2="13.26"/>
	<path fill="none" stroke="#000000" stroke-linecap="round" stroke-linejoin="round" d="M7.7954,8.7186V5.0588
		c0-2.3142,1.8758-4.1901,4.1898-4.1901s4.1902,1.876,4.1902,4.1901v3.6608"/>
	
		<line fill="none" stroke="#000000" stroke-linecap="round" stroke-linejoin="round" x1="16.8016" y1="15.4454" x2="17.7175" y2="15.4454"/>
	
		<line fill="none" stroke="#000000" stroke-linecap="round" stroke-linejoin="round" x1="6.2446" y1="15.4454" x2="7.1606" y2="15.4454"/>
	
		<line fill="none" stroke="#000000" stroke-linecap="round" stroke-linejoin="round" x1="11.9811" y1="20.266" x2="11.9811" y2="21.182"/>
	
		<line fill="none" stroke="#000000" stroke-linecap="round" stroke-linejoin="round" x1="11.9811" y1="9.7092" x2="11.9811" y2="10.6248"/>
	
		<line fill="none" stroke="#000000" stroke-linecap="round" stroke-linejoin="round" x1="15.4868" y1="11.9397" x2="16.1345" y2="11.2921"/>
	
		<line fill="none" stroke="#000000" stroke-linecap="round" stroke-linejoin="round" x1="7.8276" y1="19.5987" x2="8.4753" y2="18.9511"/>
	
		<line fill="none" stroke="#000000" stroke-linecap="round" stroke-linejoin="round" x1="15.487" y1="18.9511" x2="16.1345" y2="19.5987"/>
	
		<line fill="none" stroke="#000000" stroke-linecap="round" stroke-linejoin="round" x1="7.8278" y1="11.2921" x2="8.4755" y2="11.9397"/>
</g>
<rect x="-0.0136" fill="none" width="24" height="24"/>
</svg>
