<?xml version="1.0" encoding="utf-8"?>
<!-- Generator: Adobe Illustrator 18.1.0, SVG Export Plug-In . SVG Version: 6.00 Build 0)  -->
<svg version="1.1" id="Layer_1" xmlns="http://www.w3.org/2000/svg" xmlns:xlink="http://www.w3.org/1999/xlink" x="0px" y="0px"
	 width="24px" height="24px" viewBox="0 0 24 24" enable-background="new 0 0 24 24" xml:space="preserve">
<g>
	<path fill="none" stroke="#000000" stroke-linecap="round" stroke-linejoin="round" stroke-miterlimit="10" d="M22.9753,19.01
		c-3.7028-1.4309-7.8134-3.2077-8.1588-4.315v-1.1615c0.7681-0.7858,1.374-1.8817,1.7325-3.1648
		c0.8551-0.6004,1.0797-1.8468,0.3626-2.729V5.0397c0-2.6842-1.4947-4.5216-4.9118-4.5216c-3.3289,0-4.9135,1.8374-4.9135,4.5216
		v2.601c-0.7145,0.8796-0.4925,2.1257,0.3626,2.7276c0.3585,1.2835,0.9648,2.3794,1.7334,3.1652v1.1615
		c-0.3445,1.1059-4.456,2.8831-8.1588,4.315c-0.3156,0.1225-0.5244,0.4295-0.5244,0.7726v2.9049
		c0,0.4562,0.3648,0.8269,0.8147,0.8269H22.685c0.4499,0,0.8147-0.3707,0.8147-0.8269v-2.9049
		C23.4998,19.4395,23.2909,19.1316,22.9753,19.01z"/>
</g>
<rect x="0.0005" y="0.0004" fill="none" width="24" height="24"/>
</svg>
