<?xml version="1.0" encoding="utf-8"?>
<!-- Generator: Adobe Illustrator 18.1.1, SVG Export Plug-In . SVG Version: 6.00 Build 0)  -->
<svg version="1.1" id="Layer_1" xmlns="http://www.w3.org/2000/svg" xmlns:xlink="http://www.w3.org/1999/xlink" x="0px" y="0px"
	 width="24px" height="24px" viewBox="0 0 24 24" enable-background="new 0 0 24 24" xml:space="preserve">
<rect fill="none" width="24" height="24"/>
<g>
	<path fill="none" stroke="#000000" stroke-linecap="round" stroke-linejoin="round" d="M7.5,16.4999v-11.5
		c0-0.8284,0.6716-1.5,1.5-1.5l0,0c0.8284,0,1.5,0.6716,1.5,1.5v7.5"/>
	<path fill="none" stroke="#000000" stroke-linecap="round" stroke-linejoin="round" d="M10.5,12.4999v-9.5
		c0-0.8284,0.6716-1.5,1.5-1.5l0,0c0.8284,0,1.5,0.6716,1.5,1.5v9.5"/>
	<path fill="none" stroke="#000000" stroke-linecap="round" stroke-linejoin="round" d="M13.5,12.4999v-7.5
		c0-0.8284,0.6716-1.5,1.5-1.5l0,0c0.8284,0,1.5,0.6716,1.5,1.5v8.5"/>
	<path fill="none" stroke="#000000" stroke-linecap="round" stroke-linejoin="round" d="M19.5,14.4999"/>
	<path fill="none" stroke="#000000" stroke-linecap="round" stroke-linejoin="round" d="M7.5,16.4999l-2.051-3.5L4.6169,11.614
		c-0.3443-0.5423-1.2219-0.5514-1.7125-0.1369c-0.3913,0.3307-0.49,0.894-0.2345,1.338c0,0,1.8627,5.2268,4.1385,7.8779
		c0,0,1.1946,1.0391,1.466,2.4819"/>
	<path fill="none" stroke="#000000" stroke-linecap="round" stroke-linejoin="round" d="M16.5258,23.1749
		c0.0703-0.6641,0.3419-2.5092,1.3228-4.3614c1.084-2.0466,1.3415-9.766,1.3415-9.766c0-0.8284-0.3617-1.5476-1.1901-1.5476
		c-0.8284,0-1.5,0.6716-1.5,1.5v4.5"/>
</g>
</svg>
