<?xml version="1.0" encoding="utf-8"?>
<!-- Generator: Adobe Illustrator 18.1.0, SVG Export Plug-In . SVG Version: 6.00 Build 0)  -->
<svg version="1.1" id="Layer_1" xmlns="http://www.w3.org/2000/svg" xmlns:xlink="http://www.w3.org/1999/xlink" x="0px" y="0px"
	 width="24px" height="24px" viewBox="0 0 24 24" enable-background="new 0 0 24 24" xml:space="preserve">
<g>
	<polyline fill="none" stroke="#000000" stroke-linecap="round" stroke-linejoin="round" stroke-miterlimit="10" points="
		9.9945,8.5113 4.8459,8.5113 0.5093,13.5525 	"/>
	<polyline fill="none" stroke="#000000" stroke-linecap="round" stroke-linejoin="round" stroke-miterlimit="10" points="
		23.5102,13.5525 19.1735,8.5113 14.0155,8.5113 	"/>
	<path fill="none" stroke="#000000" stroke-linecap="round" stroke-linejoin="round" stroke-miterlimit="10" d="M16.4962,13.5525
		v2.2915c0,0.9281-0.7524,1.6804-1.6805,1.6804H9.2552c-0.9281,0-1.6804-0.7524-1.6804-1.6804v-2.2915H0.5093v8.102
		c0,1.022,0.8362,1.8582,1.8582,1.8582H21.652c1.022,0,1.8582-0.8362,1.8582-1.8582v-8.102H16.4962z"/>
	
		<line fill="none" stroke="#000000" stroke-linecap="round" stroke-linejoin="round" stroke-miterlimit="10" x1="12.0049" y1="13.5525" x2="12.0049" y2="0.9236"/>
	<polyline fill="none" stroke="#000000" stroke-linecap="round" stroke-linejoin="round" stroke-miterlimit="10" points="
		15.1544,10.4031 12.0049,13.5525 8.8555,10.4031 	"/>
</g>
<rect x="0" y="0.0001" fill="none" width="24" height="24"/>
</svg>
