<?xml version="1.0" encoding="utf-8"?>
<!-- Generator: Adobe Illustrator 18.1.0, SVG Export Plug-In . SVG Version: 6.00 Build 0)  -->
<svg version="1.1" id="Layer_1" xmlns="http://www.w3.org/2000/svg" xmlns:xlink="http://www.w3.org/1999/xlink" x="0px" y="0px"
	 width="24px" height="24px" viewBox="0 0 24 24" enable-background="new 0 0 24 24" xml:space="preserve">
<g>
	<polyline fill="none" stroke="#000000" stroke-linecap="round" stroke-linejoin="round" stroke-miterlimit="10" points="2.5408,5 
		2.5408,2.5 21.5408,2.5 21.5408,5 	"/>
	<path fill="none" stroke="#000000" stroke-linecap="round" stroke-linejoin="round" stroke-miterlimit="10" d="M2.8896,7.6075
		C1.5345,7.4548,0.5408,6.3048,0.5408,4.9089V3.1168C0.5408,1.6169,1.6377,0.5,3.1376,0.5h17.7965
		c1.4999,0,2.6067,1.1168,2.6067,2.6168v1.7921c0,1.4141-0.9964,2.5758-2.377,2.7041"/>
	<path fill="none" stroke="#000000" stroke-linecap="round" stroke-linejoin="round" stroke-miterlimit="10" d="M18.6585,2.5
		l0.7713,16.0441c0.1131,1.5895-1.1675,2.9407-2.7892,2.9427l-9.288,0.0118c-1.621,0.0021-2.9049-1.3448-2.797-2.934L5.2694,2.5"/>
	
		<line fill="none" stroke="#000000" stroke-linecap="round" stroke-linejoin="round" stroke-miterlimit="10" x1="12.9278" y1="21.489" x2="12.9278" y2="2.5"/>
	
		<line fill="none" stroke="#000000" stroke-linecap="round" stroke-linejoin="round" stroke-miterlimit="10" x1="16.2633" y1="21.489" x2="15.7694" y2="2.5"/>
</g>
<rect x="-0.0137" y="0" fill="none" width="24" height="24"/>
</svg>
