<?xml version="1.0" encoding="utf-8"?>
<!-- Generator: Adobe Illustrator 18.1.0, SVG Export Plug-In . SVG Version: 6.00 Build 0)  -->
<svg version="1.1" id="Layer_1" xmlns="http://www.w3.org/2000/svg" xmlns:xlink="http://www.w3.org/1999/xlink" x="0px" y="0px"
	 width="24px" height="24px" viewBox="0 0 24 24" enable-background="new 0 0 24 24" xml:space="preserve">
<g>
	<polyline fill="none" stroke="#000000" stroke-linecap="round" stroke-linejoin="round" points="20.494,6.5537 23.5182,6.5587 
		23.4578,21.4871 15.9853,21.4871 	"/>
	<polyline fill="none" stroke="#000000" stroke-linecap="round" stroke-linejoin="round" points="3.3006,3.5049 3.4558,0.7973 
		17.6843,1.9364 17.4784,3.5049 	"/>
	<polyline fill="none" stroke="#000000" stroke-linecap="round" stroke-linejoin="round" points="16.2301,18.497 15.9272,22.1971 
		1.6996,21.0464 2.0183,18.497 	"/>
	<rect x="0.494" y="3.497" fill="none" stroke="#000000" stroke-linecap="round" stroke-linejoin="round" width="20" height="15"/>
	<path fill="none" stroke="#000000" stroke-linecap="round" stroke-linejoin="round" d="M9.9974,9.4819
		c-0.0682,0-0.1076,0-2.6334,1.1136L7.7031,7.81c0.039-0.3171-0.3282-0.3197-0.649-0.3197c-1.7296,0-3.1923,1.2965-3.4017,3.0164
		c-0.2475,2.0314,1.3384,3.8468,3.4097,3.8468c1.7298,0,3.1917-1.2968,3.4013-3.0164C10.5199,10.8735,10.4586,9.4819,9.9974,9.4819z
		"/>
	
		<line fill="none" stroke="#000000" stroke-linecap="round" stroke-linejoin="round" x1="13.5082" y1="13.497" x2="17.4784" y2="13.497"/>
	
		<line fill="none" stroke="#000000" stroke-linecap="round" stroke-linejoin="round" x1="13.5082" y1="10.4967" x2="17.4784" y2="10.4967"/>
	
		<line fill="none" stroke="#000000" stroke-linecap="round" stroke-linejoin="round" x1="13.5082" y1="7.4964" x2="17.4784" y2="7.4964"/>
</g>
<rect x="-0.006" y="-0.003" fill="none" width="24" height="24"/>
</svg>
