<?xml version="1.0" encoding="utf-8"?>
<!-- Generator: Adobe Illustrator 18.1.0, SVG Export Plug-In . SVG Version: 6.00 Build 0)  -->
<svg version="1.1" id="Layer_1" xmlns="http://www.w3.org/2000/svg" xmlns:xlink="http://www.w3.org/1999/xlink" x="0px" y="0px"
	 width="24px" height="24px" viewBox="0 0 24 24" enable-background="new 0 0 24 24" xml:space="preserve">
<g>
	<path fill="none" stroke="#000000" stroke-linecap="round" stroke-linejoin="round" d="M21.6366,11.639
		c2.1502,1.3129,2.1455,5.8439-1.1431,6.4381v1.6557c0,0.4267-0.3461,0.7725-0.7726,0.7725H5.8513
		c-0.4269,0-0.7726-0.3458-0.7726-0.7725v-0.5854"/>
	<path fill="none" stroke="#000000" stroke-linecap="round" stroke-linejoin="round" d="M16.8617,4.9449l-0.3995-1.5537
		c-0.1032-0.4008-0.5112-0.6419-0.912-0.5389L2.533,6.2016C2.1323,6.3044,1.8914,6.7127,1.9944,7.1133l0.3989,1.5502
		c-3.1808,1.4349-1.8473,6.728,1.6589,6.4478l0.3986,1.5499c0.1033,0.4007,0.5112,0.6418,0.9116,0.5386L18.38,13.8507
		c0.4005-0.103,0.6416-0.5112,0.5386-0.9116l-0.3998-1.5541C21.6799,9.9339,20.3281,4.6913,16.8617,4.9449z"/>
	
		<ellipse transform="matrix(0.9707 -0.2403 0.2403 0.9707 -2.2004 3.5861)" fill="none" stroke="#000000" stroke-linecap="round" stroke-linejoin="round" cx="13.6061" cy="10.8166" rx="1.2436" ry="1.5106"/>
	
		<ellipse transform="matrix(0.9707 -0.2403 0.2403 0.9707 -1.7671 2.4501)" fill="none" stroke="#000000" stroke-linecap="round" stroke-linejoin="round" cx="9.1642" cy="8.4716" rx="1.2436" ry="1.5106"/>
	
		<line fill="none" stroke="#000000" stroke-linecap="round" stroke-linejoin="round" x1="12.7616" y1="6.1241" x2="9.9027" y2="13.1983"/>
	
		<line fill="none" stroke="#000000" stroke-linecap="round" stroke-linejoin="round" x1="6.8656" y1="10.9288" x2="4.8878" y2="11.4184"/>
</g>
<rect x="-0.0136" y="0.0001" fill="none" width="24" height="24"/>
</svg>
