<?xml version="1.0" encoding="utf-8"?>
<!-- Generator: Adobe Illustrator 18.1.0, SVG Export Plug-In . SVG Version: 6.00 Build 0)  -->
<svg version="1.1" id="Layer_1" xmlns="http://www.w3.org/2000/svg" xmlns:xlink="http://www.w3.org/1999/xlink" x="0px" y="0px"
	 width="24px" height="24px" viewBox="0 0 24 24" enable-background="new 0 0 24 24" xml:space="preserve">
<g>
	<path fill="none" stroke="#000000" stroke-linecap="round" stroke-linejoin="round" stroke-miterlimit="10" d="M23.5121,2.865
		c0-1.3062-1.059-2.365-2.3652-2.365H2.8774c-1.3063,0-2.3652,1.0589-2.3652,2.365v18.27c0,1.3062,1.059,2.365,2.3652,2.365h18.2695
		c1.3063,0,2.3652-1.0589,2.3652-2.365V2.865z"/>
	
		<line fill="none" stroke="#000000" stroke-linecap="round" stroke-linejoin="round" stroke-miterlimit="10" x1="10.3981" y1="16.5" x2="4.5308" y2="16.5"/>
	
		<line fill="none" stroke="#000000" stroke-linecap="round" stroke-linejoin="round" stroke-miterlimit="10" x1="10.3981" y1="19.5" x2="4.5308" y2="19.5"/>
	
		<line fill="none" stroke="#000000" stroke-linecap="round" stroke-linejoin="round" stroke-miterlimit="10" x1="19.3986" y1="16.5" x2="13.5313" y2="16.5"/>
	
		<line fill="none" stroke="#000000" stroke-linecap="round" stroke-linejoin="round" stroke-miterlimit="10" x1="19.3986" y1="19.5" x2="13.5313" y2="19.5"/>
	
		<line fill="none" stroke="#000000" stroke-linecap="round" stroke-linejoin="round" stroke-miterlimit="10" x1="19.3986" y1="10.4996" x2="13.5313" y2="10.4996"/>
	
		<line fill="none" stroke="#000000" stroke-linecap="round" stroke-linejoin="round" stroke-miterlimit="10" x1="19.3986" y1="7.4995" x2="13.5313" y2="7.4995"/>
	
		<line fill="none" stroke="#000000" stroke-linecap="round" stroke-linejoin="round" stroke-miterlimit="10" x1="19.3996" y1="4.4998" x2="4.5317" y2="4.4998"/>
	
		<line fill="none" stroke="#000000" stroke-linecap="round" stroke-linejoin="round" stroke-miterlimit="10" x1="19.3986" y1="13.4996" x2="13.5313" y2="13.4996"/>
	
		<rect x="4.5" y="7.5" fill="none" stroke="#000000" stroke-linecap="round" stroke-linejoin="round" stroke-miterlimit="10" width="6" height="6"/>
</g>
<rect x="0" y="0" fill="none" width="24" height="24"/>
</svg>
