<?xml version="1.0" encoding="utf-8"?>
<!-- Generator: Adobe Illustrator 18.1.0, SVG Export Plug-In . SVG Version: 6.00 Build 0)  -->
<svg version="1.1" id="Layer_1" xmlns="http://www.w3.org/2000/svg" xmlns:xlink="http://www.w3.org/1999/xlink" x="0px" y="0px"
	 width="24px" height="24px" viewBox="0 0 24 24" enable-background="new 0 0 24 24" xml:space="preserve">
<g>
	<polyline fill="none" stroke="#000000" stroke-linecap="round" stroke-linejoin="round" stroke-miterlimit="10" points="
		12.9539,4.0688 15.4829,1.5583 18.0119,4.0688 	"/>
	<path fill="none" stroke="#000000" stroke-linecap="round" stroke-linejoin="round" stroke-miterlimit="10" d="M2.267,16.4343
		c0,0,13.2157-0.4075,13.2157-12.4637l0.0002-2.4122"/>
	
		<circle fill="none" stroke="#000000" stroke-linecap="round" stroke-linejoin="round" stroke-miterlimit="10" cx="5.1101" cy="6.9719" r="4.4158"/>
	<path fill="none" stroke="#000000" stroke-linecap="round" stroke-linejoin="round" stroke-miterlimit="10" d="M3.5176,8.6486
		c0.4284,0.3729,1.0891,0.653,1.566,0.653c0.763,0,1.3816-0.5408,1.3816-1.208s-0.6605-0.9972-1.3816-1.208
		C4.3362,6.6514,3.702,6.3448,3.702,5.6776s0.6186-1.208,1.3816-1.208c0.5138,0,0.9621,0.2452,1.2001,0.6091"/>
	
		<line fill="none" stroke="#000000" stroke-linecap="round" stroke-linejoin="round" stroke-miterlimit="10" x1="5.0836" y1="3.8095" x2="5.0836" y2="4.4696"/>
	
		<line fill="none" stroke="#000000" stroke-linecap="round" stroke-linejoin="round" stroke-miterlimit="10" x1="5.0836" y1="9.3015" x2="5.0836" y2="9.9617"/>
	
		<rect x="21.5515" y="2.5" fill="none" stroke="#000000" stroke-linecap="round" stroke-linejoin="round" stroke-miterlimit="10" width="2" height="21"/>
	
		<rect x="16.5512" y="11.5006" fill="none" stroke="#000000" stroke-linecap="round" stroke-linejoin="round" stroke-miterlimit="10" width="2" height="11.9994"/>
	
		<rect x="11.5509" y="16.5009" fill="none" stroke="#000000" stroke-linecap="round" stroke-linejoin="round" stroke-miterlimit="10" width="2" height="6.9991"/>
	
		<rect x="6.5506" y="19.5011" fill="none" stroke="#000000" stroke-linecap="round" stroke-linejoin="round" stroke-miterlimit="10" width="2" height="3.9989"/>
	
		<rect x="1.5502" y="20.5012" fill="none" stroke="#000000" stroke-linecap="round" stroke-linejoin="round" stroke-miterlimit="10" width="2" height="2.9989"/>
</g>
<rect x="0" y="0" fill="none" width="24" height="24"/>
</svg>
