<?xml version="1.0" encoding="utf-8"?>
<!-- Generator: Adobe Illustrator 18.1.0, SVG Export Plug-In . SVG Version: 6.00 Build 0)  -->
<svg version="1.1" id="Layer_1" xmlns="http://www.w3.org/2000/svg" xmlns:xlink="http://www.w3.org/1999/xlink" x="0px" y="0px"
	 width="24px" height="24px" viewBox="0 0 24 24" enable-background="new 0 0 24 24" xml:space="preserve">
<g>
	<path fill="none" stroke="#000000" stroke-linecap="round" stroke-linejoin="round" stroke-miterlimit="10" d="M16.0188,13.864
		v-3.0911c0,0,0.3164-6.0514-7.5148-3.2828"/>
	<path fill="none" stroke="#000000" stroke-linecap="round" stroke-linejoin="round" stroke-miterlimit="10" d="M16.0188,11.6826
		c0,0-8.9441-2.5022-8.3849,2.6104c0.5537,5.0626,8.108,2.4643,8.3849-0.429c0,0-0.2839,3.3003,2.758,3.3003
		s4.8145-3.0354,4.4872-6.4366c-0.6401-5.5977-5.427-9.9441-11.2373-9.9441c-6.2464,0-11.3101,5.0233-11.3101,11.22
		s5.0637,11.22,11.3101,11.22c2.4994,0,4.8095-0.8043,6.6815-2.1662"/>
</g>
<rect x="0" y="0" fill="none" width="24" height="24"/>
</svg>
