<?xml version="1.0" encoding="utf-8"?>
<!-- Generator: Adobe Illustrator 18.1.0, SVG Export Plug-In . SVG Version: 6.00 Build 0)  -->
<svg version="1.1" id="Layer_1" xmlns="http://www.w3.org/2000/svg" xmlns:xlink="http://www.w3.org/1999/xlink" x="0px" y="0px"
	 width="24px" height="24px" viewBox="0 0 24 24" enable-background="new 0 0 24 24" xml:space="preserve">
<g>
	<polyline fill="none" stroke="#000000" stroke-linecap="round" stroke-linejoin="round" stroke-miterlimit="10" points="
		23.5614,5.5174 19.2186,0.5553 4.8706,0.5553 0.5277,5.5174 	"/>
	<path fill="none" stroke="#000000" stroke-linecap="round" stroke-linejoin="round" stroke-miterlimit="10" d="M16.2792,5.5174
		V7.842c0,0.946-0.7534,1.7128-1.6829,1.7128H9.4928C8.5634,9.5548,7.81,8.788,7.81,7.842V5.5174H0.5277v16.1497
		c0,1.0417,0.8374,1.8941,1.8609,1.8941h19.3119c1.0235,0,1.8609-0.8523,1.8609-1.8941V5.5174H16.2792z"/>
	<path fill="none" stroke="#000000" stroke-linecap="round" stroke-linejoin="round" stroke-miterlimit="10" d="M23.5614,11.518
		h-7.2822v2.3073c0,0.9389-0.7534,1.7-1.6829,1.7H9.4928c-0.9294,0-1.6828-0.7611-1.6828-1.7V11.518H0.5277"/>
	<path fill="none" stroke="#000000" stroke-linecap="round" stroke-linejoin="round" stroke-miterlimit="10" d="M23.5614,17.5186
		h-7.2822v2.3073c0,0.9389-0.7534,1.7-1.6829,1.7H9.4928c-0.9294,0-1.6828-0.7611-1.6828-1.7v-2.3073H0.5277"/>
</g>
<rect x="0" y="0.0001" fill="none" width="24" height="24"/>
</svg>
