<?xml version="1.0" encoding="utf-8"?>
<!-- Generator: Adobe Illustrator 18.1.1, SVG Export Plug-In . SVG Version: 6.00 Build 0)  -->
<svg version="1.1" id="Layer_1" xmlns="http://www.w3.org/2000/svg" xmlns:xlink="http://www.w3.org/1999/xlink" x="0px" y="0px"
	 width="24px" height="24px" viewBox="0 0 24 24" enable-background="new 0 0 24 24" xml:space="preserve">
<rect fill="none" width="24" height="24"/>
<g>
	<polyline fill="none" stroke="#000000" stroke-linecap="round" stroke-linejoin="round" points="11.5535,0.8549 13.5983,3.4349 
		11.0183,5.4797 	"/>
	<path fill="none" stroke="#000000" stroke-linecap="round" stroke-linejoin="round" d="M3.5066,4.3711
		c3.1207-1.3596,6.7672-1.5744,10.0917-0.9362"/>
	<path fill="none" stroke="#000000" stroke-linecap="round" stroke-linejoin="round" d="M13.5983,13.2294l1.0607-1.0607
		c0.5858-0.5858,1.5355-0.5858,2.1213,0l0,0c0.5858,0.5858,0.5858,1.5356,0,2.1214l-1.7678,1.7677"/>
	<path fill="none" stroke="#000000" stroke-linecap="round" stroke-linejoin="round" d="M16.7803,18.5327l1.4142-1.4143
		c0.5858-0.5857,0.5858-1.5355,0-2.1213s-1.5355-0.5858-2.1213,0l-1.0607,1.0607"/>
	<path fill="none" stroke="#000000" stroke-linecap="round" stroke-linejoin="round" d="M8.6486,13.9365l8.8388-8.8389
		c0.5858-0.5858,1.5355-0.5858,2.1213,0s0.5858,1.5356,0,2.1214l-6.0104,6.0104"/>
	<path fill="none" stroke="#000000" stroke-linecap="round" stroke-linejoin="round" d="M4.8209,18.5471
		c0.4403-1.0578,0.3737-2.1347,0.3737-2.1347c0.2653-3.4839,2.6441-8.4968,2.6441-8.4968c0.663-1.4858,2.4744-0.5849,2.226,0.5274
		l-0.3915,1.5683l-1.0246,3.9252"/>
	<path fill="none" stroke="#000000" stroke-linecap="round" stroke-linejoin="round" d="M12.5,23.4999
		c0.5054-0.2471,1.1882-0.4011,1.8302-0.6099c2.2024-0.7163,4.3186-2.4215,4.3186-2.4215c0.5857-0.5858,0.8386-1.3501,0.2528-1.9358
		c-0.5858-0.5858-1.5355-0.5858-2.1213,0"/>
	
		<line fill="none" stroke="#000000" stroke-linecap="round" stroke-linejoin="round" x1="16.7803" y1="18.5327" x2="16.4267" y2="18.8862"/>
</g>
</svg>
