<?xml version="1.0" encoding="utf-8"?>
<!-- Generator: Adobe Illustrator 18.1.0, SVG Export Plug-In . SVG Version: 6.00 Build 0)  -->
<svg version="1.1" id="Layer_1" xmlns="http://www.w3.org/2000/svg" xmlns:xlink="http://www.w3.org/1999/xlink" x="0px" y="0px"
	 width="24px" height="24px" viewBox="0 0 24 24" enable-background="new 0 0 24 24" xml:space="preserve">
<g>
	<path fill="none" stroke="#000000" stroke-linecap="round" stroke-linejoin="round" stroke-miterlimit="10" d="M16.3693,11.9477
		c-0.4896,0.5832,0.4947,2.5881,2.298,3.4212c1.5621,0.7226,2.0426,0.7286,2.6955,0.4658c0.6983-0.2802,0.5951-1.3044-0.9216-2.5782
		C18.9254,11.9838,16.8595,11.364,16.3693,11.9477z"/>
	<path fill="none" stroke="#000000" stroke-linecap="round" stroke-linejoin="round" stroke-miterlimit="10" d="M2.876,15.8348
		c0.6529,0.2627,1.1334,0.2568,2.696-0.4658c1.8029-0.8331,2.6814-2.8636,2.1917-3.4468c-0.4901-0.5837-2.4503,0.0617-3.9665,1.3345
		C2.2809,14.5303,2.1773,15.5546,2.876,15.8348z"/>
	<path fill="none" stroke="#000000" stroke-linecap="round" stroke-linejoin="round" stroke-miterlimit="10" d="M23.3518,20.9466
		c-2.1183-2.0573-4.7043-3.5075-7.4855-4.2017c-0.0055-0.0037-0.0119-0.0041-0.0174-0.0073
		c-0.4266,7.0541-7.1317,6.9616-7.5222-0.0404c-0.0055,0-0.011,0-0.0161,0.0009c-2.8542,0.6758-5.5084,2.1449-7.6749,4.2485
		c-0.0935,0.0917-0.1463,0.2164-0.1463,0.3476v1.7267c0,0.2678,0.2164,0.4833,0.4833,0.4833h22.0425
		c0.2668,0,0.4837-0.2155,0.4837-0.4833v-1.7267C23.499,21.1631,23.4463,21.0374,23.3518,20.9466z"/>
	<path fill="none" stroke="#000000" stroke-linecap="round" stroke-linejoin="round" stroke-miterlimit="10" d="M14.8741,15.1668
		v-0.718c0.9711-0.9551,1.6254-2.3384,1.7281-3.7222c0.005,0,0.0105,0,0.0151,0c0.8584,0,1.2185-1.1635,0.5218-1.702
		c0.243-0.6199,0.3815-1.292,0.3815-1.9986c0-3.0266-2.4539-5.4796-5.48-5.4796c-3.027,0-5.48,2.453-5.48,5.4796
		c0,0.7194,0.1421,1.4053,0.3943,2.0344c-0.6357,0.5598-0.2645,1.6662,0.5681,1.6662c0.0055,0,0.0105,0,0.0161,0
		c0.1018,1.3838,0.7556,2.7671,1.7267,3.7222v0.718"/>
</g>
<rect x="0.0005" y="0.0004" fill="none" width="24" height="24"/>
</svg>
