<?xml version="1.0" encoding="utf-8"?>
<!-- Generator: Adobe Illustrator 18.1.0, SVG Export Plug-In . SVG Version: 6.00 Build 0)  -->
<svg version="1.1" id="Layer_1" xmlns="http://www.w3.org/2000/svg" xmlns:xlink="http://www.w3.org/1999/xlink" x="0px" y="0px"
	 width="24px" height="24px" viewBox="0 0 24 24" enable-background="new 0 0 24 24" xml:space="preserve">
<g>
	<path fill="none" stroke="#000000" stroke-linecap="round" stroke-linejoin="round" d="M19.02,0.5197H3.4937l-2.819,23h1.9881
		l0.3714-2.5544c0.3915-1.597,1.3046-2.3075,2.4079-2.3075l7.0806-0.0058c1.1033,0,1.9608,0.7587,1.8793,2.1903l-0.1893,2.6774
		h1.9881L19.02,0.5197z"/>
	<path fill="none" stroke="#000000" stroke-linecap="round" stroke-linejoin="round" d="M19.02,0.5197l4.3053,23h-1.9881
		l-0.3714-2.5544c-0.3915-1.597-1.3046-2.2838-2.4079-2.2838"/>
	
		<line fill="none" stroke="#000000" stroke-linecap="round" stroke-linejoin="round" x1="6.9739" y1="5.5197" x2="14.8939" y2="5.5197"/>
	
		<line fill="none" stroke="#000000" stroke-linecap="round" stroke-linejoin="round" x1="6.1567" y1="8.5197" x2="14.2689" y2="8.5197"/>
	
		<line fill="none" stroke="#000000" stroke-linecap="round" stroke-linejoin="round" x1="5.4224" y1="11.5197" x2="13.9039" y2="11.5197"/>
	<path fill="none" stroke="#000000" stroke-linecap="round" stroke-linejoin="round" d="M9.673,20.4632
		c-0.0392,0.3653,0.1484,2.6882,0.1744,3.0565H7.8592l-0.3808-3.0093"/>
	<path fill="none" stroke="#000000" stroke-linecap="round" stroke-linejoin="round" stroke-miterlimit="10" d="M7.5264,20.4632"/>
	<path fill="none" stroke="#000000" stroke-linecap="round" stroke-linejoin="round" stroke-miterlimit="10" d="M9.721,20.4632"/>
</g>
<rect x="0" y="0.0197" fill="none" width="24" height="24"/>
</svg>
