<?xml version="1.0" encoding="utf-8"?>
<!-- Generator: Adobe Illustrator 18.1.0, SVG Export Plug-In . SVG Version: 6.00 Build 0)  -->
<svg version="1.1" id="Layer_1" xmlns="http://www.w3.org/2000/svg" xmlns:xlink="http://www.w3.org/1999/xlink" x="0px" y="0px"
	 width="24px" height="24px" viewBox="0 0 24 24" enable-background="new 0 0 24 24" xml:space="preserve">
<g>
	<polyline fill="none" stroke="#000000" stroke-linecap="round" stroke-linejoin="round" stroke-miterlimit="10" points="
		13.671,17.5078 16.5481,17.5078 16.5481,23.4016 	"/>
	<path fill="none" stroke="#000000" stroke-linecap="round" stroke-linejoin="round" stroke-miterlimit="10" d="M18.5744,23.4016
		v-5.8938h2.8771l-2.2351-5.6002l0.4399-2.3288c0.1276-3.8941-0.1776-3.673-0.2366-3.7249
		c-0.1567-0.0463-0.3211-0.0726-0.4935-0.0726l-1.365,1.4739l-1.365-1.4739c-0.1724,0-0.3367,0.0262-0.4935,0.0726"/>
	
		<line fill="none" stroke="#000000" stroke-linecap="round" stroke-linejoin="round" stroke-miterlimit="10" x1="7.4994" y1="23.4817" x2="7.4996" y2="15.535"/>
	<path fill="none" stroke="#000000" stroke-linecap="round" stroke-linejoin="round" stroke-miterlimit="10" d="M8.9373,2.154
		c0,0.794-0.6436,1.9027-1.4376,1.9027S6.062,2.948,6.062,2.154s0.6436-1.4376,1.4376-1.4376S8.9373,1.36,8.9373,2.154z"/>
	<path fill="none" stroke="#000000" stroke-linecap="round" stroke-linejoin="round" stroke-miterlimit="10" d="M18.9263,2.3718
		c0,0.794-0.6111,1.9027-1.365,1.9027s-1.365-1.1087-1.365-1.9027s0.6111-1.4376,1.365-1.4376S18.9263,1.5779,18.9263,2.3718z"/>
	
		<line fill="none" stroke="#000000" stroke-linecap="round" stroke-linejoin="round" stroke-miterlimit="10" x1="9.7659" y1="16.4342" x2="9.3597" y2="23.4817"/>
	<path fill="none" stroke="#000000" stroke-linecap="round" stroke-linejoin="round" stroke-miterlimit="10" d="M5.639,23.4817
		L5.0709,13.615c-0.0083-0.2066-0.6718,0.0623-0.6791-0.1336c-0.2702-7.233,0.3312-7.7954,0.3991-7.8523
		c0.08-0.0224,0.7362-0.0401,0.9325-0.0525C5.9888,5.56,6.2177,5.7221,6.3396,5.9586c0.4323,0.8385,1.8878,0.8385,2.3201,0
		C8.7816,5.7221,9.0104,5.56,9.2759,5.5767c0.1964,0.0123,0.8525,0.0301,0.9325,0.0525c0.0302,0.0253,0.1663,0.1509,0.284,0.9211"/>
	<path fill="none" stroke="#000000" stroke-linecap="round" stroke-linejoin="round" stroke-miterlimit="10" d="M15.9074,9.2569
		c-0.8002-0.8002-2.0974-0.8002-2.8976,0l-0.483,0.483l-0.483-0.4829c-0.8002-0.8002-2.0975-0.8002-2.8976,0
		c-0.8002,0.8002-0.8002,2.0974,0,2.8976l3.3806,3.3803l3.3805-3.3803C16.7077,11.3545,16.7077,10.0571,15.9074,9.2569z"/>
</g>
<rect x="0.0142" y="0.0344" fill="none" width="24" height="24"/>
</svg>
