<?xml version="1.0" encoding="utf-8"?>
<!-- Generator: Adobe Illustrator 18.1.0, SVG Export Plug-In . SVG Version: 6.00 Build 0)  -->
<svg version="1.1" id="Layer_1" xmlns="http://www.w3.org/2000/svg" xmlns:xlink="http://www.w3.org/1999/xlink" x="0px" y="0px"
	 width="24px" height="24px" viewBox="0 0 24 24" enable-background="new 0 0 24 24" xml:space="preserve">
<g>
	
		<line fill="none" stroke="#000000" stroke-linecap="round" stroke-linejoin="round" x1="20.5202" y1="8.5668" x2="20.5202" y2="11.5035"/>
	<path fill="none" stroke="#000000" stroke-linecap="round" stroke-linejoin="round" stroke-miterlimit="10" d="M18.5202,17.2261
		c0,1.2749-1.0335,2.3085-2.3085,2.3085h-9.383c-1.2749,0-2.3085-1.0335-2.3085-2.3085V6.843c0-1.2749,1.0335-2.3085,2.3085-2.3085
		h9.383c1.2749,0,2.3085,1.0335,2.3085,2.3085V17.2261z"/>
	<path fill="none" stroke="#000000" stroke-linecap="round" stroke-linejoin="round" d="M6.3296,4.5892
		c0.9136-0.2717,1.3303-2.3459,1.4068-3.3287c0.0301-0.3861,0.3388-0.7259,0.7232-0.7259c0.7175,0,5.4213,0,6.1389,0
		c0.3844,0,0.6931,0.3398,0.7232,0.7259c0.0766,0.9828,0.4932,3.057,1.4068,3.3287"/>
	<path fill="none" stroke="#000000" stroke-linecap="round" stroke-linejoin="round" d="M16.6176,19.4981
		c-0.9136,0.2717-1.2194,2.3502-1.296,3.333c-0.0301,0.3861-0.3388,0.7034-0.7232,0.7034c-0.7175,0-5.4213,0-6.1389,0
		c-0.3844,0-0.6931-0.3173-0.7232-0.7034c-0.0766-0.9828-0.311-3.0473-1.2246-3.319"/>
	
		<ellipse transform="matrix(0.9577 -0.2876 0.2876 0.9577 -4.086 4.1165)" fill="none" stroke="#000000" stroke-linecap="round" stroke-linejoin="round" stroke-miterlimit="10" cx="11.9662" cy="15.9639" rx="1.5445" ry="1.1326"/>
	<path fill="none" stroke="#000000" stroke-linecap="round" stroke-linejoin="round" stroke-miterlimit="10" d="M13.4455,15.5196
		V7.4999c0,0,4.5735,2.7142,1.6599,5.0705"/>
	
		<line fill="none" stroke="#000000" stroke-linecap="round" stroke-linejoin="round" x1="7.0142" y1="12.5346" x2="11.0142" y2="12.5346"/>
	
		<line fill="none" stroke="#000000" stroke-linecap="round" stroke-linejoin="round" x1="7.0142" y1="10.5344" x2="11.0142" y2="10.5344"/>
	
		<line fill="none" stroke="#000000" stroke-linecap="round" stroke-linejoin="round" x1="7.0142" y1="8.5343" x2="11.0142" y2="8.5343"/>
</g>
<rect x="0.0142" y="0.0346" fill="none" width="24" height="24"/>
</svg>
