<?xml version="1.0" encoding="utf-8"?>
<!-- Generator: Adobe Illustrator 18.1.0, SVG Export Plug-In . SVG Version: 6.00 Build 0)  -->
<svg version="1.1" id="Layer_1" xmlns="http://www.w3.org/2000/svg" xmlns:xlink="http://www.w3.org/1999/xlink" x="0px" y="0px"
	 width="24px" height="24px" viewBox="0 0 24 24" enable-background="new 0 0 24 24" xml:space="preserve">
<g>
	<path fill="none" stroke="#000000" stroke-linecap="round" stroke-linejoin="round" stroke-miterlimit="10" d="M9.4576,7.5197
		H1.6161C1.067,7.5197,0.5,8.2547,0.5,8.8038v13.0638c0,0.375,0.4218,0.6521,0.7967,0.6521H9.777
		c0.375,0,0.7229-0.2771,0.7229-0.6521V8.8038C10.5,8.2547,10.0067,7.5197,9.4576,7.5197z"/>
	<polyline fill="none" stroke="#000000" stroke-linecap="round" stroke-linejoin="round" stroke-miterlimit="10" points="
		9.5,7.5187 9.5,5.5197 1.5,5.5197 1.5,7.5187 	"/>
	<path fill="none" stroke="#000000" stroke-linecap="round" stroke-linejoin="round" stroke-miterlimit="10" d="M9.6489,5.5197
		c0.4458,0,0.8071-0.3614,0.8071-0.8071c0-0.5265-0.267-0.9905-0.6728-1.2643c-0.805-0.6164-2.4034-1.0368-4.2463-1.0368
		S2.0956,2.8318,1.2906,3.4482C0.8847,3.7221,0.6178,4.1861,0.6178,4.7126c0,0.4457,0.3614,0.8071,0.8071,0.8071"/>
	
		<line fill="none" stroke="#000000" stroke-linecap="round" stroke-linejoin="round" stroke-miterlimit="10" x1="5.3617" y1="4.0675" x2="5.712" y2="4.0675"/>
	
		<line fill="none" stroke="#000000" stroke-linecap="round" stroke-linejoin="round" stroke-miterlimit="10" x1="3.9605" y1="3.3219" x2="4.3108" y2="3.3219"/>
	
		<line fill="none" stroke="#000000" stroke-linecap="round" stroke-linejoin="round" stroke-miterlimit="10" x1="6.763" y1="3.3219" x2="7.1133" y2="3.3219"/>
	
		<line fill="none" stroke="#000000" stroke-linecap="round" stroke-linejoin="round" stroke-miterlimit="10" x1="3.5173" y1="22.5109" x2="3.5173" y2="19.6669"/>
	
		<line fill="none" stroke="#000000" stroke-linecap="round" stroke-linejoin="round" stroke-miterlimit="10" x1="7.5175" y1="22.5109" x2="7.5175" y2="19.6669"/>
	<path fill="none" stroke="#000000" stroke-linecap="round" stroke-linejoin="round" stroke-miterlimit="10" d="M4.326,14.8822
		c0.3533,0.2822,0.898,0.4941,1.2912,0.4941c0.6291,0,1.1391-0.4092,1.1391-0.914c0-0.5048-0.5446-0.7545-1.1391-0.914
		c-0.6162-0.1772-1.1391-0.4092-1.1391-0.914c0-0.5048,0.51-0.914,1.1391-0.914c0.4236,0,0.7932,0.1855,0.9895,0.4609"/>
	<path fill="none" stroke="#000000" stroke-linecap="round" stroke-linejoin="round" stroke-miterlimit="10" d="M22.4585,7.5197
		H14.617c-0.5491,0-1.1161,0.735-1.1161,1.2841v13.0638c0,0.375,0.4218,0.6521,0.7967,0.6521h8.4803
		c0.375,0,0.7229-0.2771,0.7229-0.6521V8.8038C23.5008,8.2547,23.0076,7.5197,22.4585,7.5197z"/>
	<polyline fill="none" stroke="#000000" stroke-linecap="round" stroke-linejoin="round" stroke-miterlimit="10" points="
		22.5008,7.5187 22.5008,5.5197 14.5008,5.5197 14.5008,7.5187 	"/>
	<path fill="none" stroke="#000000" stroke-linecap="round" stroke-linejoin="round" stroke-miterlimit="10" d="M22.6497,5.5197
		c0.4458,0,0.8071-0.3614,0.8071-0.8071c0-0.5265-0.2669-0.9905-0.6728-1.2643c-0.805-0.6164-2.4034-1.0368-4.2463-1.0368
		s-3.4413,0.4204-4.2463,1.0368c-0.4059,0.2738-0.6728,0.7379-0.6728,1.2643c0,0.4457,0.3614,0.8071,0.8071,0.8071"/>
	
		<line fill="none" stroke="#000000" stroke-linecap="round" stroke-linejoin="round" stroke-miterlimit="10" x1="18.3625" y1="4.0675" x2="18.7129" y2="4.0675"/>
	
		<line fill="none" stroke="#000000" stroke-linecap="round" stroke-linejoin="round" stroke-miterlimit="10" x1="16.5181" y1="22.5109" x2="16.5181" y2="19.6669"/>
	
		<line fill="none" stroke="#000000" stroke-linecap="round" stroke-linejoin="round" stroke-miterlimit="10" x1="20.5183" y1="22.5109" x2="20.5183" y2="19.6669"/>
	<path fill="none" stroke="#000000" stroke-linecap="round" stroke-linejoin="round" d="M17.5318,15.2763v-3.5562h1.3343
		c0,0,1.1423-0.0416,1.1423,0.919c0,0.9954-1.1423,1.0049-1.1423,1.0049l-1.3343,0.003"/>
</g>
<rect x="0" y="0.0197" fill="none" width="24" height="24"/>
</svg>
