<?xml version="1.0" encoding="utf-8"?>
<!-- Generator: Adobe Illustrator 18.1.1, SVG Export Plug-In . SVG Version: 6.00 Build 0)  -->
<svg version="1.1" id="Layer_1" xmlns="http://www.w3.org/2000/svg" xmlns:xlink="http://www.w3.org/1999/xlink" x="0px" y="0px"
	 width="24px" height="24px" viewBox="0 0 24 24" enable-background="new 0 0 24 24" xml:space="preserve">
<rect fill="none" width="24" height="24"/>
<g>
	
		<line fill="none" stroke="#000000" stroke-linecap="round" stroke-linejoin="round" x1="1.5499" y1="5.501" x2="7.4455" y2="5.501"/>
	<polyline fill="none" stroke="#000000" stroke-linecap="round" stroke-linejoin="round" points="3.3809,3.512 1.5499,5.501 
		3.3809,7.49 	"/>
	<path fill="none" stroke="#000000" stroke-linecap="round" stroke-linejoin="round" d="M12.5,13.4999v-8.5
		c0-0.8284,0.6716-1.5,1.5-1.5l0,0c0.8284,0,1.5,0.6716,1.5,1.5v9.5"/>
	<path fill="none" stroke="#000000" stroke-linecap="round" stroke-linejoin="round" d="M18.5,14.9999v-2
		c0-0.8284-0.6716-1.5-1.5-1.5s-1.5,0.6716-1.5,1.5v1.5"/>
	<path fill="none" stroke="#000000" stroke-linecap="round" stroke-linejoin="round" d="M9.5,17.4999v-11.5
		c0-0.8284,0.6716-1.5,1.5-1.5s1.5,0.6716,1.5,1.5v7.5"/>
	<path fill="none" stroke="#000000" stroke-linecap="round" stroke-linejoin="round" d="M10.0536,23.4667
		C9.617,22.4073,8.8084,21.693,8.8084,21.693c-2.2758-2.6511-4.1385-7.8779-4.1385-7.8779
		c-0.5818-1.5194,1.3361-2.1632,1.947-1.2011l0.8321,1.3859l2.051,3.5"/>
	<path fill="none" stroke="#000000" stroke-linecap="round" stroke-linejoin="round" d="M18.6212,23.4667
		c0.1479-0.8532,0.4797-2.1846,1.2274-3.6532c1.0508-2.0638,1.3415-4.766,1.3415-4.766c0-0.8284-0.3617-1.5476-1.1901-1.5476
		s-1.5,0.6716-1.5,1.5"/>
	
		<line fill="none" stroke="#000000" stroke-linecap="round" stroke-linejoin="round" x1="18.5" y1="14.9999" x2="18.5" y2="15.4999"/>
</g>
</svg>
