<?xml version="1.0" encoding="utf-8"?>
<!-- Generator: Adobe Illustrator 18.1.0, SVG Export Plug-In . SVG Version: 6.00 Build 0)  -->
<svg version="1.1" id="Layer_1" xmlns="http://www.w3.org/2000/svg" xmlns:xlink="http://www.w3.org/1999/xlink" x="0px" y="0px"
	 width="24px" height="24px" viewBox="0 0 24 24" enable-background="new 0 0 24 24" xml:space="preserve">
<g>
	<path fill="none" stroke="#000000" stroke-linecap="round" stroke-linejoin="round" d="M15.0163,7.7088V5.0216
		c0-2.2878-1.3722-4.1425-3.0648-4.1425c-1.6927,0-3.0648,1.8547-3.0648,4.1425v2.6872c0,0,0.2993,2.7267-2.9924,3.5746
		c-0.2378,0.0613-0.408,0.2847-0.408,0.5458v10.5927c0,0.619,0.4702,1.1209,1.0502,1.1209h10.9308
		c0.58,0,1.0502-0.5018,1.0502-1.1209V11.8291c0-0.2611-0.1702-0.4845-0.408-0.5458C14.8179,10.4355,15.0163,7.7088,15.0163,7.7088z
		"/>
	<line fill="none" stroke="#000000" stroke-linecap="round" stroke-linejoin="round" x1="15" y1="7.5197" x2="8.8867" y2="7.5197"/>
	<line fill="none" stroke="#000000" stroke-linecap="round" stroke-linejoin="round" x1="19" y1="14.5197" x2="5" y2="14.5197"/>
	<path fill="none" stroke="#000000" stroke-linecap="round" stroke-linejoin="round" d="M14.3699,20.5197H9.5331
		c-0.5612,0-1.0331-0.5708-1.0331-1.1698v-4.8302h7v4.8302C15.5,19.9489,14.9311,20.5197,14.3699,20.5197z"/>
	<g>
		<g>
			
				<line fill="none" stroke="#000000" stroke-linecap="round" stroke-linejoin="round" x1="8.5" y1="16.5197" x2="9.5" y2="16.5197"/>
			
				<line fill="none" stroke="#000000" stroke-linecap="round" stroke-linejoin="round" stroke-dasharray="1.25,1.875" x1="11.375" y1="16.5197" x2="13.5625" y2="16.5197"/>
			
				<line fill="none" stroke="#000000" stroke-linecap="round" stroke-linejoin="round" x1="14.5" y1="16.5197" x2="15.5" y2="16.5197"/>
		</g>
	</g>
	<path fill="none" stroke="#000000" stroke-linecap="round" stroke-linejoin="round" d="M1,18.5197h1.442
		c0.3346,0,0.6059-0.4505,0.6059-1c0-0.5495-0.2713-1-0.6059-1H2.3548c-0.3346,0-0.6059-0.4505-0.6059-1c0-0.5495,0.2713-1,0.6059-1
		H5"/>
	<path fill="none" stroke="#000000" stroke-linecap="round" stroke-linejoin="round" d="M23,18.5197h-1.4381
		c-0.3346,0-0.6059-0.4505-0.6059-1c0-0.5495,0.2713-1,0.6059-1h0.0873c0.3346,0,0.6059-0.4505,0.6059-1c0-0.5495-0.2713-1-0.6059-1
		H19"/>
</g>
<rect x="0" y="0.0197" fill="none" width="24" height="24"/>
</svg>
