<?xml version="1.0" encoding="utf-8"?>
<!-- Generator: Adobe Illustrator 18.1.0, SVG Export Plug-In . SVG Version: 6.00 Build 0)  -->
<svg version="1.1" id="Layer_1" xmlns="http://www.w3.org/2000/svg" xmlns:xlink="http://www.w3.org/1999/xlink" x="0px" y="0px"
	 width="24px" height="24px" viewBox="0 0 24 24" enable-background="new 0 0 24 24" xml:space="preserve">
<g>
	<path fill="none" stroke="#000000" stroke-linecap="round" stroke-linejoin="round" stroke-miterlimit="10" d="M0.8063,13.5819
		c-0.0886-0.0286-0.1517-0.1079-0.1598-0.2005c-0.0072-0.0935,0.0412-0.1817,0.1249-0.2238L23.092,1.743
		c0.0788-0.0412,0.1759-0.0314,0.2471,0.0242c0.0698,0.056,0.1016,0.1477,0.0806,0.2355L19.2748,19.092
		c-0.0152,0.0618-0.055,0.1137-0.1097,0.1455c-0.0349,0.0197-0.0748,0.0304-0.1141,0.0304c-0.0224,0-0.0448-0.0036-0.0667-0.0099
		L0.8063,13.5819z"/>
	<path fill="none" stroke="#000000" stroke-linecap="round" stroke-linejoin="round" stroke-miterlimit="10" d="M10.3798,16.4947
		l0.0032,6.5656c0,0.1059-0.0268,0.1983,0.0753,0.2283c0.0212,0.0056-0.0049,0.0093,0.0173,0.0093
		c0.0799,0,0.1316-0.0411,0.1764-0.1104l3.7592-5.3261"/>
	
		<line fill="none" stroke="#000000" stroke-linecap="round" stroke-linejoin="round" stroke-miterlimit="10" x1="18.5561" y1="7.3732" x2="10.3798" y2="16.4947"/>
</g>
<rect x="0" y="0" fill="none" width="24" height="24"/>
</svg>
