<?xml version="1.0" encoding="utf-8"?>
<!-- Generator: Adobe Illustrator 18.1.0, SVG Export Plug-In . SVG Version: 6.00 Build 0)  -->
<svg version="1.1" id="Layer_1" xmlns="http://www.w3.org/2000/svg" xmlns:xlink="http://www.w3.org/1999/xlink" x="0px" y="0px"
	 width="24px" height="24px" viewBox="0 0 24 24" enable-background="new 0 0 24 24" xml:space="preserve">
<g>
	<path fill="none" stroke="#000000" stroke-linecap="round" stroke-linejoin="round" stroke-miterlimit="10" d="M11.9864,0.7356
		c-6.2113,0-11.2641,5.0527-11.2641,11.264s5.0528,11.2649,11.2641,11.2649s11.264-5.0537,11.264-11.2649
		S18.1977,0.7356,11.9864,0.7356z"/>
	
		<line fill="none" stroke="#000000" stroke-linecap="round" stroke-linejoin="round" stroke-miterlimit="10" x1="11.4864" y1="8.2728" x2="11.4864" y2="15.2125"/>
	
		<line fill="none" stroke="#000000" stroke-linecap="round" stroke-linejoin="round" stroke-miterlimit="10" x1="16.4864" y1="8.2808" x2="16.4864" y2="11.5"/>
	
		<line fill="none" stroke="#000000" stroke-linecap="round" stroke-linejoin="round" stroke-miterlimit="10" x1="7.4864" y1="8.2728" x2="7.4864" y2="15.2125"/>
	
		<line fill="none" stroke="#000000" stroke-linecap="round" stroke-linejoin="round" stroke-miterlimit="10" x1="16.4864" y1="11.5" x2="7.4864" y2="11.5"/>
	<circle fill="none" stroke="#000000" stroke-linecap="round" stroke-linejoin="round" cx="7.4746" cy="7.0446" r="1.2363"/>
	<circle fill="none" stroke="#000000" stroke-linecap="round" stroke-linejoin="round" cx="11.4609" cy="7.0446" r="1.2363"/>
	<circle fill="none" stroke="#000000" stroke-linecap="round" stroke-linejoin="round" cx="7.4746" cy="16.4487" r="1.2363"/>
	<circle fill="none" stroke="#000000" stroke-linecap="round" stroke-linejoin="round" cx="11.4609" cy="16.4487" r="1.2363"/>
	<circle fill="none" stroke="#000000" stroke-linecap="round" stroke-linejoin="round" cx="16.5192" cy="7.0446" r="1.2363"/>
	<path fill="none" stroke="#000000" stroke-linecap="round" stroke-linejoin="round" d="M15.4851,17.685v-3.2084h1.2038
		c1.404-0.0511,1.3607,1.7244,0,1.7357l-1.2038,0.0027"/>
	
		<line fill="none" stroke="#000000" stroke-linecap="round" stroke-linejoin="round" x1="16.6889" y1="16.2124" x2="17.7423" y2="17.685"/>
</g>
<rect x="-0.0136" y="0" fill="none" width="24" height="24"/>
</svg>
