<?xml version="1.0" encoding="utf-8"?>
<!-- Generator: Adobe Illustrator 18.1.0, SVG Export Plug-In . SVG Version: 6.00 Build 0)  -->
<svg version="1.1" id="Layer_1" xmlns="http://www.w3.org/2000/svg" xmlns:xlink="http://www.w3.org/1999/xlink" x="0px" y="0px"
	 width="24px" height="24px" viewBox="0 0 24 24" enable-background="new 0 0 24 24" xml:space="preserve">
<g>
	<polygon fill="none" stroke="#000000" stroke-linecap="round" stroke-linejoin="round" stroke-miterlimit="10" points="
		5.7633,23.5 0.5997,23.5 1.5837,20.5 4.7792,20.5 	"/>
	<polygon fill="none" stroke="#000000" stroke-linecap="round" stroke-linejoin="round" stroke-miterlimit="10" points="
		11.6674,23.5 6.5038,23.5 7.4878,20.5 10.6833,20.5 	"/>
	<polygon fill="none" stroke="#000000" stroke-linecap="round" stroke-linejoin="round" stroke-miterlimit="10" points="
		8.7928,20.5 3.6292,20.5 4.6132,17.5 7.8088,17.5 	"/>
	<polygon fill="none" stroke="#000000" stroke-linecap="round" stroke-linejoin="round" stroke-miterlimit="10" points="
		17.5715,23.5 12.4079,23.5 13.3919,20.5 16.5875,20.5 	"/>
	<polygon fill="none" stroke="#000000" stroke-linecap="round" stroke-linejoin="round" stroke-miterlimit="10" points="
		11.6674,17.5 6.5038,17.5 7.4878,14.5 10.6833,14.5 	"/>
	<polygon fill="none" stroke="#000000" stroke-linecap="round" stroke-linejoin="round" stroke-miterlimit="10" points="
		17.5715,17.5 12.4079,17.5 13.3919,14.5 16.5875,14.5 	"/>
	<polygon fill="none" stroke="#000000" stroke-linecap="round" stroke-linejoin="round" stroke-miterlimit="10" points="
		14.6969,20.5 9.5333,20.5 10.5173,17.5 13.7129,17.5 	"/>
	<polyline fill="none" stroke="#000000" stroke-linecap="round" stroke-linejoin="round" stroke-miterlimit="10" points="
		13.465,11.4664 14.6969,14.5 9.0376,14.5 	"/>
	<polygon fill="none" stroke="#000000" stroke-linecap="round" stroke-linejoin="round" stroke-miterlimit="10" points="
		23.4756,23.5 18.312,23.5 19.296,20.5 22.4916,20.5 	"/>
	<polygon fill="none" stroke="#000000" stroke-linecap="round" stroke-linejoin="round" stroke-miterlimit="10" points="
		20.601,20.5 15.4374,20.5 16.4214,17.5 19.617,17.5 	"/>
	<path fill="none" stroke="#000000" stroke-linecap="round" stroke-linejoin="round" stroke-miterlimit="10" d="M16.5776,7.4924
		c0.7371,0.7371,0.9939,2.9614,0.9939,2.9614s0.2567-2.2243,0.9939-2.9614s2.9614-0.9939,2.9614-0.9939
		s-2.2243-0.2567-2.9614-0.9939s-0.9939-2.9614-0.9939-2.9614s-0.2567,2.2243-0.9939,2.9614
		c-0.7371,0.7371-2.9614,0.9939-2.9614,0.9939S15.8405,6.7553,16.5776,7.4924z"/>
	<path fill="none" stroke="#000000" stroke-linecap="round" stroke-linejoin="round" stroke-miterlimit="10" d="M8.9081,11.0826
		c0.4637,0.4637,0.6252,1.8629,0.6252,1.8629s0.1615-1.3992,0.6252-1.8629s1.8629-0.6252,1.8629-0.6252
		s-1.3992-0.1615-1.8629-0.6252S9.5333,7.9693,9.5333,7.9693S9.3718,9.3685,8.9081,9.8322
		c-0.4637,0.4637-1.8629,0.6252-1.8629,0.6252S8.4444,10.6189,8.9081,11.0826z"/>
</g>
<rect x="-0.0139" y="0" fill="none" width="24" height="24"/>
</svg>
