<?xml version="1.0" encoding="utf-8"?>
<!-- Generator: Adobe Illustrator 18.1.0, SVG Export Plug-In . SVG Version: 6.00 Build 0)  -->
<svg version="1.1" id="Layer_1" xmlns="http://www.w3.org/2000/svg" xmlns:xlink="http://www.w3.org/1999/xlink" x="0px" y="0px"
	 width="24px" height="24px" viewBox="0 0 24 24" enable-background="new 0 0 24 24" xml:space="preserve">
<g>
	<g>
		
			<line fill="none" stroke="#000000" stroke-linecap="round" stroke-linejoin="round" x1="4.5538" y1="7.4403" x2="4.5538" y2="10.5597"/>
		
			<line fill="none" stroke="#000000" stroke-linecap="round" stroke-linejoin="round" x1="3.2031" y1="8.2201" x2="5.9046" y2="9.7799"/>
		
			<line fill="none" stroke="#000000" stroke-linecap="round" stroke-linejoin="round" x1="3.2031" y1="9.7799" x2="5.9046" y2="8.2201"/>
	</g>
	<g>
		
			<line fill="none" stroke="#000000" stroke-linecap="round" stroke-linejoin="round" x1="9.5541" y1="7.4403" x2="9.5541" y2="10.5597"/>
		
			<line fill="none" stroke="#000000" stroke-linecap="round" stroke-linejoin="round" x1="8.2034" y1="8.2201" x2="10.9049" y2="9.7799"/>
		
			<line fill="none" stroke="#000000" stroke-linecap="round" stroke-linejoin="round" x1="8.2034" y1="9.7799" x2="10.9049" y2="8.2201"/>
	</g>
	<g>
		
			<line fill="none" stroke="#000000" stroke-linecap="round" stroke-linejoin="round" x1="14.5545" y1="7.4403" x2="14.5545" y2="10.5597"/>
		
			<line fill="none" stroke="#000000" stroke-linecap="round" stroke-linejoin="round" x1="13.2037" y1="8.2201" x2="15.9052" y2="9.7799"/>
		
			<line fill="none" stroke="#000000" stroke-linecap="round" stroke-linejoin="round" x1="13.2037" y1="9.7799" x2="15.9052" y2="8.2201"/>
	</g>
	<g>
		
			<line fill="none" stroke="#000000" stroke-linecap="round" stroke-linejoin="round" x1="19.5548" y1="7.4403" x2="19.5548" y2="10.5597"/>
		
			<line fill="none" stroke="#000000" stroke-linecap="round" stroke-linejoin="round" x1="18.204" y1="8.2201" x2="20.9055" y2="9.7799"/>
		
			<line fill="none" stroke="#000000" stroke-linecap="round" stroke-linejoin="round" x1="18.204" y1="9.7799" x2="20.9055" y2="8.2201"/>
	</g>
	<g>
		<polyline fill="none" stroke="#000000" stroke-linecap="round" stroke-linejoin="round" points="22.5454,13.5 23.5293,13.5 
			23.5293,4.5 0.5293,4.5 0.5293,13.5 12.4867,13.5 		"/>
	</g>
	
		<circle fill="none" stroke="#000000" stroke-linecap="round" stroke-linejoin="round" stroke-miterlimit="10" cx="17.5576" cy="16.5052" r="3.8981"/>
	
		<line fill="none" stroke="#000000" stroke-linecap="round" stroke-linejoin="round" stroke-miterlimit="10" x1="16.9214" y1="18.0147" x2="19.2975" y2="15.4748"/>
	
		<line fill="none" stroke="#000000" stroke-linecap="round" stroke-linejoin="round" stroke-miterlimit="10" x1="16.9214" y1="18.0147" x2="15.8179" y2="16.8351"/>
</g>
<rect x="0.0293" fill="none" width="24" height="24"/>
</svg>
