<?xml version="1.0" encoding="utf-8"?>
<!-- Generator: Adobe Illustrator 18.1.0, SVG Export Plug-In . SVG Version: 6.00 Build 0)  -->
<svg version="1.1" id="Layer_1" xmlns="http://www.w3.org/2000/svg" xmlns:xlink="http://www.w3.org/1999/xlink" x="0px" y="0px"
	 width="24px" height="24px" viewBox="0 0 24 24" enable-background="new 0 0 24 24" xml:space="preserve">
<g>
	<path fill="none" stroke="#000000" stroke-linecap="round" stroke-linejoin="round" stroke-miterlimit="10" d="M19.5031,19.7884
		c0,0,5.836-3.6862,2.3543-5.7341c0,0,3.2828-5.5905-0.1326-5.5941c0,0,1.6911-3.9083-2.2217-7.4034
		c-3.9128,3.4951-2.2217,7.4033-2.2217,7.4033c-3.4154,0.0036-0.1326,5.594-0.1326,5.594
		C13.6671,16.1022,19.5031,19.7884,19.5031,19.7884z"/>
	
		<line fill="none" stroke="#000000" stroke-linecap="round" stroke-linejoin="round" stroke-miterlimit="10" x1="19.5031" y1="19.7884" x2="19.5031" y2="23.4794"/>
	
		<line fill="none" stroke="#000000" stroke-linecap="round" stroke-linejoin="round" stroke-miterlimit="10" x1="19.5031" y1="9.5162" x2="19.5031" y2="16.4392"/>
	<path fill="none" stroke="#000000" stroke-linecap="round" stroke-linejoin="round" stroke-miterlimit="10" d="M13.3764,23.5
		c0-3-1.9799-5.6989-3.9599-6.7324V15.5c0-0.5523,0.4432-1,0.99-1l0,0v-3H3.5377v3l0,0c0.5468,0,0.99,0.4477,0.99,1v1.2676
		C2.5477,17.8012,0.5678,20.5,0.5678,23.5H13.3764z"/>
</g>
<rect y="0" fill="none" width="24" height="24"/>
</svg>
