<?xml version="1.0" encoding="utf-8"?>
<!-- Generator: Adobe Illustrator 18.1.0, SVG Export Plug-In . SVG Version: 6.00 Build 0)  -->
<svg version="1.1" id="Layer_1" xmlns="http://www.w3.org/2000/svg" xmlns:xlink="http://www.w3.org/1999/xlink" x="0px" y="0px"
	 width="24px" height="24px" viewBox="0 0 24 24" enable-background="new 0 0 24 24" xml:space="preserve">
<g>
	<g>
		<polyline fill="none" stroke="#000000" stroke-linecap="round" stroke-linejoin="round" points="21.5036,9.7146 21.5036,23.5 
			2.5036,23.5 2.5036,9.7146 		"/>
		<polyline fill="none" stroke="#000000" stroke-linecap="round" stroke-linejoin="round" stroke-miterlimit="10" points="
			20.5036,8.7876 20.5036,2.5 15.5036,2.5 15.5036,4.538 		"/>
		<polyline fill="none" stroke="#000000" stroke-linecap="round" stroke-linejoin="round" points="0.5537,11.3654 12.0036,1.5322 
			23.4534,11.3654 		"/>
	</g>
	<path fill="none" stroke="#000000" stroke-linecap="round" stroke-linejoin="round" d="M13.1377,15.0851
		c-0.3629-0.3421-0.8548-0.5526-1.3969-0.5526c-1.116,0-2.0207,0.8906-2.0207,1.9892c0,1.0986,0.9047,1.9892,2.0207,1.9892
		c0.5635,0,1.0729-0.2273,1.4394-0.5935"/>
	
		<ellipse fill="none" stroke="#000000" stroke-linecap="round" stroke-linejoin="round" cx="16.6183" cy="16.525" rx="1.9403" ry="1.9925"/>
	<polyline fill="none" stroke="#000000" stroke-linecap="round" stroke-linejoin="round" points="8.1037,14.5325 5.4179,14.5325 
		5.4179,18.5175 8.1037,18.5175 	"/>
	
		<line fill="none" stroke="#000000" stroke-linecap="round" stroke-linejoin="round" x1="5.4179" y1="16.525" x2="7.7245" y2="16.525"/>
</g>
<rect x="0.0005" y="0" fill="none" width="24" height="24"/>
</svg>
