<?xml version="1.0" encoding="utf-8"?>
<!-- Generator: Adobe Illustrator 18.1.0, SVG Export Plug-In . SVG Version: 6.00 Build 0)  -->
<svg version="1.1" id="Layer_1" xmlns="http://www.w3.org/2000/svg" xmlns:xlink="http://www.w3.org/1999/xlink" x="0px" y="0px"
	 width="24px" height="24px" viewBox="0 0 24 24" enable-background="new 0 0 24 24" xml:space="preserve">
<g>
	<polygon fill="none" stroke="#000000" stroke-linecap="round" stroke-linejoin="round" stroke-miterlimit="10" points="
		15.9433,23.5 9.0087,23.5 10.7785,10.5 14.1735,10.5 	"/>
	
		<line fill="none" stroke="#000000" stroke-linecap="round" stroke-linejoin="round" x1="4.0005" y1="23.5" x2="21.0005" y2="23.5"/>
	
		<line fill="none" stroke="#000000" stroke-linecap="round" stroke-linejoin="round" x1="10.0005" y1="10.5" x2="15.0005" y2="10.5"/>
	
		<line fill="none" stroke="#000000" stroke-linecap="round" stroke-linejoin="round" x1="12.5005" y1="10.5" x2="12.5005" y2="23.5"/>
	<polyline fill="none" stroke="#000000" stroke-linecap="round" stroke-linejoin="round" stroke-miterlimit="10" points="
		14.6305,13.8568 9.8197,17.5357 15.9433,23.4796 	"/>
	<polyline fill="none" stroke="#000000" stroke-linecap="round" stroke-linejoin="round" stroke-miterlimit="10" points="
		10.3216,13.8568 15.1324,17.5357 9.0087,23.4796 	"/>
	<path fill="none" stroke="#000000" stroke-linecap="round" stroke-linejoin="round" stroke-miterlimit="10" d="M8.1651,7.4631
		c0-0.6217,0.5173-1.1258,1.1554-1.1258c0.6381,0,1.1554,0.504,1.1554,1.1258v1.0066"/>
	<path fill="none" stroke="#000000" stroke-linecap="round" stroke-linejoin="round" stroke-miterlimit="10" d="M16.1556,5.3426
		c0-0.4519-0.3759-0.8182-0.8397-0.8182c-0.4638,0-0.8397,0.3663-0.8397,0.8182v3.1271"/>
	<path fill="none" stroke="#000000" stroke-linecap="round" stroke-linejoin="round" stroke-miterlimit="10" d="M10.5191,4.3814
		c-1.0943,0-1.9814-0.8512-1.9814-1.9011s0.8871-1.9011,1.9814-1.9011s1.9814,0.8512,1.9814,1.9011v5.9895"/>
</g>
<rect x="0.0005" y="0" fill="none" width="24" height="24"/>
</svg>
