<?xml version="1.0" encoding="utf-8"?>
<!-- Generator: Adobe Illustrator 18.1.0, SVG Export Plug-In . SVG Version: 6.00 Build 0)  -->
<svg version="1.1" id="Layer_1" xmlns="http://www.w3.org/2000/svg" xmlns:xlink="http://www.w3.org/1999/xlink" x="0px" y="0px"
	 width="24px" height="24px" viewBox="0 0 24 24" enable-background="new 0 0 24 24" xml:space="preserve">
<g>
	<path fill="none" stroke="#000000" stroke-linecap="round" stroke-linejoin="round" d="M18.6518,17.7778
		c0.6,1.0163,1.8849,1.3384,2.8697,0.719c0.985-0.6187,1.2966-1.9447,0.697-2.9607c-0.6001-1.0162-1.8849-1.3385-2.8697-0.7196"/>
	<path fill="none" stroke="#000000" stroke-linecap="round" stroke-linejoin="round" d="M19.5315,12.5489
		c0,6.0834-3.8062,11.0147-8.5014,11.0147c-4.6954,0-8.5012-4.9313-8.5012-11.0147H19.5315z"/>
	<path fill="none" stroke="#000000" stroke-linecap="round" stroke-linejoin="round" d="M10.4334,1.081
		c0,0,1.8677,0.5733-0.5255,4.3582c-2.393,3.7845,0,4.0139,0,4.0139"/>
	<path fill="none" stroke="#000000" stroke-linecap="round" stroke-linejoin="round" d="M13.5212,4.6824
		c0,0,1.0641,0.3269-0.2991,2.4834c-1.3639,2.1565,0,2.2872,0,2.2872"/>
	
		<line fill="none" stroke="#000000" stroke-linecap="round" stroke-linejoin="round" x1="2.5445" y1="23.5636" x2="19.4948" y2="23.5636"/>
</g>
<rect x="0.0142" y="0.0346" fill="none" width="24" height="24"/>
</svg>
