<?xml version="1.0" encoding="utf-8"?>
<!-- Generator: Adobe Illustrator 18.1.0, SVG Export Plug-In . SVG Version: 6.00 Build 0)  -->
<svg version="1.1" id="Layer_1" xmlns="http://www.w3.org/2000/svg" xmlns:xlink="http://www.w3.org/1999/xlink" x="0px" y="0px"
	 width="24px" height="24px" viewBox="0 0 24 24" enable-background="new 0 0 24 24" xml:space="preserve">
<g>
	<path fill="none" stroke="#000000" stroke-linecap="round" stroke-linejoin="round" stroke-miterlimit="10" d="M23.5,10.0343
		c0-0.8365-0.6782-1.5146-1.5147-1.5146H10.0147C9.1781,8.5197,8.5,9.1978,8.5,10.0343v11.9709
		c0,0.8365,0.6782,1.5146,1.5147,1.5146h11.9706c0.8366,0,1.5147-0.6781,1.5147-1.5146V10.0343z"/>
	<path fill="none" stroke="#000000" stroke-linecap="round" stroke-linejoin="round" stroke-miterlimit="10" d="M15.5,6.0197V2.0343
		c0-0.8365-0.6782-1.5146-1.5147-1.5146H2.0147C1.1781,0.5197,0.5,1.1978,0.5,2.0343v11.9709c0,0.8365,0.6782,1.5146,1.5147,1.5146
		H6"/>
	
		<circle fill="none" stroke="#000000" stroke-linecap="round" stroke-linejoin="round" stroke-miterlimit="10" cx="11.9528" cy="18.5952" r="1.1047"/>
	
		<circle fill="none" stroke="#000000" stroke-linecap="round" stroke-linejoin="round" stroke-miterlimit="10" cx="16" cy="18.5952" r="1.1047"/>
	
		<circle fill="none" stroke="#000000" stroke-linecap="round" stroke-linejoin="round" stroke-miterlimit="10" cx="20.0472" cy="18.5952" r="1.1047"/>
	
		<circle fill="none" stroke="#000000" stroke-linecap="round" stroke-linejoin="round" stroke-miterlimit="10" cx="3.7695" cy="3.7296" r="1.1047"/>
	
		<circle fill="none" stroke="#000000" stroke-linecap="round" stroke-linejoin="round" stroke-miterlimit="10" cx="7.0808" cy="7.0409" r="1.1047"/>
	
		<circle fill="none" stroke="#000000" stroke-linecap="round" stroke-linejoin="round" stroke-miterlimit="10" cx="11.9528" cy="13.4442" r="1.1047"/>
	
		<circle fill="none" stroke="#000000" stroke-linecap="round" stroke-linejoin="round" stroke-miterlimit="10" cx="16" cy="13.4442" r="1.1047"/>
	
		<circle fill="none" stroke="#000000" stroke-linecap="round" stroke-linejoin="round" stroke-miterlimit="10" cx="20.0472" cy="13.4442" r="1.1047"/>
</g>
<rect x="0" y="0.0197" fill="none" width="24" height="24"/>
</svg>
