<?xml version="1.0" encoding="utf-8"?>
<!-- Generator: Adobe Illustrator 18.1.0, SVG Export Plug-In . SVG Version: 6.00 Build 0)  -->
<svg version="1.1" id="Layer_1" xmlns="http://www.w3.org/2000/svg" xmlns:xlink="http://www.w3.org/1999/xlink" x="0px" y="0px"
	 width="24px" height="24px" viewBox="0 0 24 24" enable-background="new 0 0 24 24" xml:space="preserve">
<g>
	
		<line fill="none" stroke="#000000" stroke-linecap="round" stroke-linejoin="round" x1="20.6066" y1="13.5422" x2="18.759" y2="13.5422"/>
	
		<line fill="none" stroke="#000000" stroke-linecap="round" stroke-linejoin="round" stroke-miterlimit="10" x1="19.5944" y1="16.5652" x2="18.2673" y2="16.5652"/>
	<path fill="none" stroke="#000000" stroke-linecap="round" stroke-linejoin="round" d="M6.5,20.563
		c5.3717,1.8337,11.7673,1.7208,11.7673,1.7208c2.4539,0,1.9323-2.6957,0.1583-2.6957h-0.7078"/>
	<path fill="none" stroke="#000000" stroke-linecap="round" stroke-linejoin="round" d="M6.5,11.4337
		c0,0,5.0646-3.9813,4.7013-8.1456c-0.2756-3.1591,5.589-0.7431,2.3246,7.2313h7.237c2.0187,0,2.0127,3.0229,0,3.0229h-0.1563
		c2.0348,0,1.9813,3.0229,0,3.0229h-1.0122c2.0181,0,2.0127,3.0229,0,3.0229l-1.1686-0.0001"/>
	<rect x="0.5" y="10.5" fill="none" stroke="#000000" stroke-linecap="round" stroke-linejoin="round" width="6" height="12"/>
</g>
<rect x="0" y="0" fill="none" width="24" height="24"/>
</svg>
