<?xml version="1.0" encoding="utf-8"?>
<!-- Generator: Adobe Illustrator 18.1.0, SVG Export Plug-In . SVG Version: 6.00 Build 0)  -->
<svg version="1.1" id="Layer_1" xmlns="http://www.w3.org/2000/svg" xmlns:xlink="http://www.w3.org/1999/xlink" x="0px" y="0px"
	 width="24px" height="24px" viewBox="0 0 24 24" enable-background="new 0 0 24 24" xml:space="preserve">
<g>
	
		<line fill="none" stroke="#000000" stroke-linecap="round" stroke-linejoin="round" stroke-miterlimit="10" x1="12" y1="2.1117" x2="12" y2="2.1117"/>
	<path fill="none" stroke="#000000" stroke-linecap="round" stroke-linejoin="round" stroke-miterlimit="10" d="M13.4629,17.0779
		V2.1221c0-0.8064-0.6561-1.463-1.463-1.463c-0.8065,0-1.4628,0.6567-1.4628,1.463v14.9558c-1.926,0.21-3.3207,0.8224-3.3207,1.5463
		c0,0.8968,2.1417,1.6241,4.7836,1.6241c2.6419,0,4.7836-0.7273,4.7836-1.6241C16.7836,17.9003,15.3888,17.2879,13.4629,17.0779z"/>
	<path fill="none" stroke="#000000" stroke-linecap="round" stroke-linejoin="round" stroke-miterlimit="10" d="M16.7836,18.5733
		c0,2.6478-2.1409,4.7942-4.7819,4.7942s-4.7819-2.1464-4.7819-4.7942"/>
</g>
<rect x="0" y="0.0197" fill="none" width="24" height="24"/>
</svg>
