<?xml version="1.0" encoding="utf-8"?>
<!-- Generator: Adobe Illustrator 18.1.0, SVG Export Plug-In . SVG Version: 6.00 Build 0)  -->
<svg version="1.1" id="Layer_1" xmlns="http://www.w3.org/2000/svg" xmlns:xlink="http://www.w3.org/1999/xlink" x="0px" y="0px"
	 width="24px" height="24px" viewBox="0 0 24 24" enable-background="new 0 0 24 24" xml:space="preserve">
<g>
	<path fill="none" stroke="#000000" stroke-linecap="round" stroke-linejoin="round" stroke-miterlimit="10" d="M14.4606,11.4085
		c0,0.8447,0.4703,1.1847,1.051,1.1847c0.5805,0,1.0511,0.0245,1.0511-0.8206l-0.5244-6.0862
		c-0.0646-0.9107-0.3423-1.3272-0.9229-1.3272c-0.5805,0-0.6547,0.6845-0.6547,1.5292V11.4085z"/>
	
		<line fill="none" stroke="#000000" stroke-linecap="round" stroke-linejoin="round" stroke-miterlimit="10" x1="14.4606" y1="5.5843" x2="14.4606" y2="20.018"/>
	
		<line fill="none" stroke="#000000" stroke-linecap="round" stroke-linejoin="round" stroke-miterlimit="10" x1="9.4905" y1="9.8881" x2="9.4905" y2="19.9674"/>
	
		<line fill="none" stroke="#000000" stroke-linecap="round" stroke-linejoin="round" stroke-miterlimit="10" x1="9.4905" y1="4.3592" x2="9.4905" y2="7.4463"/>
	
		<line fill="none" stroke="#000000" stroke-linecap="round" stroke-linejoin="round" stroke-miterlimit="10" x1="11.0569" y1="4.3592" x2="11.0569" y2="7.4976"/>
	
		<line fill="none" stroke="#000000" stroke-linecap="round" stroke-linejoin="round" stroke-miterlimit="10" x1="7.9241" y1="4.3592" x2="7.9241" y2="7.4976"/>
	<path fill="none" stroke="#000000" stroke-linecap="round" stroke-linejoin="round" stroke-miterlimit="10" d="M9.5212,9.8881
		H9.4598c-0.8481,0-1.5357-0.6876-1.5357-1.5357V7.4463h3.1328v0.9062C11.0569,9.2006,10.3694,9.8881,9.5212,9.8881z"/>
	<path fill="none" stroke="#000000" stroke-linecap="round" stroke-linejoin="round" stroke-miterlimit="10" d="M11.986,0.7551
		c-6.2113,0-11.2641,5.0527-11.2641,11.264S5.7747,23.284,11.986,23.284S23.25,18.2304,23.25,12.0191S18.1972,0.7551,11.986,0.7551z
		"/>
	
		<line fill="none" stroke="#000000" stroke-linecap="round" stroke-linejoin="round" stroke-miterlimit="10" x1="4.0207" y1="19.9841" x2="19.9505" y2="4.0544"/>
</g>
<rect x="-0.0142" y="0.0197" fill="none" width="24" height="24"/>
</svg>
