<?xml version="1.0" encoding="utf-8"?>
<!-- Generator: Adobe Illustrator 18.1.0, SVG Export Plug-In . SVG Version: 6.00 Build 0)  -->
<svg version="1.1" id="Layer_1" xmlns="http://www.w3.org/2000/svg" xmlns:xlink="http://www.w3.org/1999/xlink" x="0px" y="0px"
	 width="24px" height="24px" viewBox="0 0 24 24" enable-background="new 0 0 24 24" xml:space="preserve">
<g>
	
		<circle fill="none" stroke="#000000" stroke-linecap="round" stroke-linejoin="round" stroke-miterlimit="10" cx="9.3271" cy="2.3803" r="1.4457"/>
	<path fill="none" stroke="#000000" stroke-linecap="round" stroke-linejoin="round" stroke-miterlimit="10" d="M7.54,12.1735
		l0.1337-5.0122c0.0338-0.7821,0.6497-1.4578,1.4325-1.465c0.8348-0.0076,1.4953,0.6846,1.4597,1.508l0.4045,2.9191l1.2767-0.9348"
		/>
	<path fill="none" stroke="#000000" stroke-linecap="round" stroke-linejoin="round" stroke-miterlimit="10" d="M6.5021,20.5002
		H2.6359c-1.0675,0-1.933-0.9217-1.933-2c0-1.0783,0.8655-2,1.933-2h3.3047l10.4702-7.696c0.3096-0.1985,0.6688-0.304,1.0356-0.304
		h3.8663c1.0675,0,1.933,0.9217,1.933,2s-0.8655,2-1.933,2h-3.3047l-10.4702,7.696C7.2282,20.3948,6.8689,20.5002,6.5021,20.5002z"
		/>
	
		<line fill="none" stroke="#000000" stroke-linecap="round" stroke-linejoin="round" stroke-miterlimit="10" x1="18.3413" y1="4.0207" x2="14.5627" y2="6.4307"/>
	<polyline fill="none" stroke="#000000" stroke-linecap="round" stroke-linejoin="round" stroke-miterlimit="10" points="
		16.6789,3.6531 18.3413,4.0207 17.9737,5.6831 	"/>
</g>
<rect x="-0.0137" y="0.0002" fill="none" width="24" height="24"/>
</svg>
