<?xml version="1.0" encoding="utf-8"?>
<!-- Generator: Adobe Illustrator 18.1.0, SVG Export Plug-In . SVG Version: 6.00 Build 0)  -->
<svg version="1.1" id="Layer_1" xmlns="http://www.w3.org/2000/svg" xmlns:xlink="http://www.w3.org/1999/xlink" x="0px" y="0px"
	 width="24px" height="24px" viewBox="0 0 24 24" enable-background="new 0 0 24 24" xml:space="preserve">
<g>
	<path fill="none" stroke="#000000" stroke-linecap="round" stroke-linejoin="round" stroke-miterlimit="10" d="M19.8352,11.5346
		H4.1925c-0.9419,0-1.6783,0.8302-1.6783,1.7723v10.2277h19V13.3068C21.5142,12.3647,20.7767,11.5346,19.8352,11.5346z"/>
	<path fill="none" stroke="#000000" stroke-linecap="round" stroke-linejoin="round" stroke-miterlimit="10" d="M12.206,3.459
		c0,0-1.1692,0.1509-0.9629-0.7992c0.2066-0.951,0.9829-0.981,0.7567-1.6827C11.7736,0.2757,13.7703,3.2717,12.206,3.459"/>
	<path fill="none" stroke="#000000" stroke-linecap="round" stroke-linejoin="round" d="M7.706,3.459
		c0,0-1.1693,0.1509-0.9629-0.7992c0.2065-0.951,0.9829-0.981,0.7566-1.6827C7.2737,0.2757,9.2703,3.2717,7.706,3.459z"/>
	<path fill="none" stroke="#000000" stroke-linecap="round" stroke-linejoin="round" d="M16.7106,3.459
		c0,0-1.1693,0.1509-0.9629-0.7992c0.2065-0.951,0.9829-0.981,0.7566-1.6827C16.2783,0.2757,18.275,3.2717,16.7106,3.459z"/>
	
		<line fill="none" stroke="#000000" stroke-linecap="round" stroke-linejoin="round" stroke-miterlimit="10" x1="1.0142" y1="23.5346" x2="23.0142" y2="23.5346"/>
	<path fill="none" stroke="#000000" stroke-linecap="round" stroke-linejoin="round" stroke-miterlimit="10" d="M2.4873,15.9503
		c0,0,1.333,2.7258,2.716,0c1.3834-2.7261,2.7261,0,2.7261,0s1.333,2.7258,2.716,0c1.3832-2.7261,2.7261,0,2.7261,0"/>
	<path fill="none" stroke="#000000" stroke-linecap="round" stroke-linejoin="round" stroke-miterlimit="10" d="M13.3717,15.9503
		c0,0,1.333,2.7258,2.716,0c1.3834-2.7261,2.7265,0,2.7265,0s1.3327,2.7258,2.7157,0"/>
	
		<line fill="none" stroke="#000000" stroke-linecap="round" stroke-linejoin="round" x1="7.5142" y1="5.6953" x2="7.5142" y2="11.5346"/>
	
		<line fill="none" stroke="#000000" stroke-linecap="round" stroke-linejoin="round" x1="12.0142" y1="5.6953" x2="12.0142" y2="11.5346"/>
	
		<line fill="none" stroke="#000000" stroke-linecap="round" stroke-linejoin="round" x1="16.5142" y1="5.6953" x2="16.5142" y2="11.5346"/>
</g>
<rect x="0.0142" y="0.0346" fill="none" width="24" height="24"/>
</svg>
