<?xml version="1.0" encoding="utf-8"?>
<!-- Generator: Adobe Illustrator 18.1.0, SVG Export Plug-In . SVG Version: 6.00 Build 0)  -->
<svg version="1.1" id="Layer_1" xmlns="http://www.w3.org/2000/svg" xmlns:xlink="http://www.w3.org/1999/xlink" x="0px" y="0px"
	 width="24px" height="24px" viewBox="0 0 24 24" enable-background="new 0 0 24 24" xml:space="preserve">
<g>
	<path fill="none" stroke="#000000" stroke-linecap="round" stroke-linejoin="round" stroke-miterlimit="10" d="M11.5092,23.2017
		c0.2626-1.3612-1.7596-2.4566-0.1538-3.7407c0.0656-0.052-0.0028-0.1316-0.0984-0.1194c-1.3313,0.152-2.0175,1.3856-2.2032,1.8604
		c-0.6116-0.798-0.7144-2.2853-0.7144-3.4913c0-0.0592-0.0962-0.0892-0.1612-0.0626c-1.0507,0.4324-1.57,1.4704-1.7754,2.1811
		c-0.1606,0.6678-0.1931,1.9151-0.6366,2.3756c-0.0059,0.0015-0.0116,0.0033-0.0173,0.0048
		c-0.2766-0.6753-2.5483-2.7881-2.1689-2.0786c0.4982,0.9382-0.1032,2.0799,0.0208,3.1131"/>
	<path fill="none" stroke="#000000" stroke-linecap="round" stroke-linejoin="round" stroke-miterlimit="10" d="M8.3525,0.8008
		c0,0,1.4954,0.4147-0.4207,3.1524c-1.9159,2.7374,0,2.9033,0,2.9033"/>
	<path fill="none" stroke="#000000" stroke-linecap="round" stroke-linejoin="round" stroke-miterlimit="10" d="M10.8248,2.8768
		c0,0,0.852,0.2365-0.2395,1.7963c-1.092,1.5599,0,1.6544,0,1.6544"/>
	<path fill="none" stroke="#000000" stroke-linecap="round" stroke-linejoin="round" stroke-miterlimit="10" d="M5.0484,2.8768
		c0,0,0.852,0.2365-0.2395,1.7963c-1.092,1.5599,0,1.6544,0,1.6544"/>
	<path fill="none" stroke="#000000" stroke-linecap="round" stroke-linejoin="round" stroke-miterlimit="10" d="M1.4512,7.2616
		l1.0636,6.1963c0,0.9414,2.3251,1.7046,5.1932,1.7046s5.1932-0.7631,5.1932-1.7046l1.0808-6.1963"/>
	<path fill="none" stroke="#000000" stroke-linecap="round" stroke-linejoin="round" stroke-miterlimit="10" d="M12.7424,4.8359
		c1.1259,0.4005,1.8137,0.9357,1.8137,1.5236c0,1.2413-3.066,2.2476-6.8481,2.2476S0.86,7.6008,0.86,6.3595
		c0-0.6025,0.7222-1.1496,1.8981-1.5531"/>
	<polyline fill="none" stroke="#000000" stroke-linecap="round" stroke-linejoin="round" stroke-miterlimit="10" points="
		14.5561,6.3595 23.4466,4.9252 23.4466,5.9086 13.7473,8.6071 	"/>
</g>
<rect x="-0.0008" y="-0.0147" fill="none" width="24" height="24"/>
</svg>
