<?xml version="1.0" encoding="utf-8"?>
<!-- Generator: Adobe Illustrator 18.1.0, SVG Export Plug-In . SVG Version: 6.00 Build 0)  -->
<svg version="1.1" id="Layer_1" xmlns="http://www.w3.org/2000/svg" xmlns:xlink="http://www.w3.org/1999/xlink" x="0px" y="0px"
	 width="24px" height="24px" viewBox="0 0 24 24" enable-background="new 0 0 24 24" xml:space="preserve">
<g>
	<path fill="none" stroke="#000000" stroke-linecap="round" stroke-linejoin="round" d="M17.1721,23.47h-3.5303
		c0,0,0.2836-5.6744,0.5568-5.7302c0.2731-0.0557,0.437-1.282,0.3824-2.1908c-0.0585-0.9725,0.4972-2.4132,0.4833-2.8848
		c-0.0275-0.9344-0.1071-3.9786,0.0083-4.3554c0.1366-0.4459,2.5947-0.6131,3.414-0.5417c0.8194,0.0714,2.08-2.0223,2.08-2.0223
		s2.5631,0.1951,2.727-0.4738c0.1639-0.6689-1.1744-0.5291-1.1744-0.5291c0.5189-0.4734-0.1093-0.502-0.1093-0.502
		c-1.1471,0.7804-4.8453,0.418-4.8453,0.418s-4.714,0.3623-4.1131-1.8115s-1.0652-2.0902-1.0652-2.0902
		s-1.6661-0.0836-1.0652,2.0902C11.522,5.0202,6.808,4.6579,6.808,4.6579s-3.6982,0.3623-4.8453-0.418
		c0,0-0.6282,0.0286-0.1092,0.502c0,0-1.3383-0.1397-1.1744,0.5291s2.727,0.4738,2.727,0.4738s1.2606,2.0937,2.08,2.0223
		S8.7635,7.863,8.9,8.3089c0.1366,0.4459,0,3.6788,0,3.6788s0.5462,0.4399,0.4916,1.3487s0.1092,2.135,0.3824,2.1908
		c0.2731,0.0557,0.5568,7.9429,0.5568,7.9429H6.8005"/>
	
		<line fill="none" stroke="#000000" stroke-linecap="round" stroke-linejoin="round" x1="9.3504" y1="12.7998" x2="14.1986" y2="17.7399"/>
</g>
<rect x="-0.0137" y="0" fill="none" width="24" height="24"/>
</svg>
