<?xml version="1.0" encoding="utf-8"?>
<!-- Generator: Adobe Illustrator 18.1.0, SVG Export Plug-In . SVG Version: 6.00 Build 0)  -->
<svg version="1.1" id="Layer_1" xmlns="http://www.w3.org/2000/svg" xmlns:xlink="http://www.w3.org/1999/xlink" x="0px" y="0px"
	 width="24px" height="24px" viewBox="0 0 24 24" enable-background="new 0 0 24 24" xml:space="preserve">
<g>
	<polygon fill="none" stroke="#000000" stroke-linecap="round" stroke-linejoin="round" stroke-miterlimit="10" points="
		23.2693,5.4472 4.7983,5.4472 7.8208,2.4824 20.2775,2.4855 	"/>
	<g>
		<path fill="none" stroke="#000000" stroke-linecap="round" stroke-linejoin="round" d="M4.5671,17.6624
			c2.7443-0.446,5.5267-0.2728,6.4033-0.0156l5.5304,1.6229c1.5773,0.4627,0.8788,2.857-0.698,2.3939l-5.8103-1.7051"/>
		<path fill="none" stroke="#000000" stroke-linecap="round" stroke-linejoin="round" d="M17.2906,19.9671l4.309-1.9643
			c1.5635-0.7127,2.5473,1.5786,1.067,2.2533l-5.8513,2.6673c-1.0001,0.4559-4.9728,0.7869-9.3823-1.1843
			c-0.7577-0.3386-2.0447,0.1012-2.8659,0.3119"/>
		<rect x="0.5485" y="16.5" fill="none" stroke="#000000" stroke-linecap="round" stroke-linejoin="round" width="4" height="7"/>
	</g>
	<polyline fill="none" stroke="#000000" stroke-linecap="round" stroke-linejoin="round" stroke-miterlimit="10" points="
		6.8167,7.4676 4.7983,9.4474 23.2693,9.4474 21.2693,7.4676 	"/>
	<polyline fill="none" stroke="#000000" stroke-linecap="round" stroke-linejoin="round" stroke-miterlimit="10" points="
		6.8167,11.4678 4.7983,13.4477 23.2693,13.4477 21.2693,11.4678 	"/>
</g>
<rect x="0" y="-0.003" fill="none" width="24" height="24"/>
</svg>
