<?xml version="1.0" encoding="utf-8"?>
<!-- Generator: Adobe Illustrator 18.1.0, SVG Export Plug-In . SVG Version: 6.00 Build 0)  -->
<svg version="1.1" id="Layer_1" xmlns="http://www.w3.org/2000/svg" xmlns:xlink="http://www.w3.org/1999/xlink" x="0px" y="0px"
	 width="24px" height="24px" viewBox="0 0 24 24" enable-background="new 0 0 24 24" xml:space="preserve">
<g>
	<path fill="none" stroke="#000000" stroke-linecap="round" stroke-linejoin="round" stroke-miterlimit="10" d="M20.4842,3.1681
		c0-0.3918-0.3169-0.6679-0.708-0.6679H1.1861c-0.3914,0-0.6997,0.2352-0.6997,0.627v13.5753c0,0.391,0.3129,0.7288,0.7042,0.7288"
		/>
	<path fill="none" stroke="#000000" stroke-linecap="round" stroke-linejoin="round" stroke-miterlimit="10" d="M23.4863,6.1907
		c0-0.3814-0.3088-0.6905-0.6898-0.6905H4.1761c-0.381,0-0.6898,0.3092-0.6898,0.6905v13.6189c0,0.3814,0.3088,0.6905,0.6898,0.6905
		h18.6204c0.381,0,0.6898-0.3092,0.6898-0.6905V6.1907z"/>
	
		<circle fill="none" stroke="#000000" stroke-linecap="round" stroke-linejoin="round" stroke-miterlimit="10" cx="8.6663" cy="10.9446" r="1.8149"/>
	<polyline fill="none" stroke="#000000" stroke-linecap="round" stroke-linejoin="round" stroke-miterlimit="10" points="
		7.8164,20.5002 13.8284,12.0311 16.3141,15.3855 19.5111,10.3579 23.4911,16.1461 	"/>
</g>
<rect x="-0.0137" y="0.0002" fill="none" width="24" height="24"/>
</svg>
