<?xml version="1.0" encoding="utf-8"?>
<!-- Generator: Adobe Illustrator 18.1.0, SVG Export Plug-In . SVG Version: 6.00 Build 0)  -->
<svg version="1.1" id="Layer_1" xmlns="http://www.w3.org/2000/svg" xmlns:xlink="http://www.w3.org/1999/xlink" x="0px" y="0px"
	 width="24px" height="24px" viewBox="0 0 24 24" enable-background="new 0 0 24 24" xml:space="preserve">
<g>
	<path fill="none" stroke="#000000" stroke-linecap="round" stroke-linejoin="round" stroke-miterlimit="10" d="M11.2568,12.3625
		C10.8843,11.1541,9.714,10.236,8.0625,10.44C5.8348,8.5687,2.5254,9.8518,2.045,12.7614C-0.4515,14.2973,0.8482,17.5,3.3623,17.5
		h8.2135c1.5156,0,2.7961-1.1746,2.7961-2.5764C14.3719,13.4708,12.9791,12.1956,11.2568,12.3625z"/>
	<path fill="none" stroke="#000000" stroke-linecap="round" stroke-linejoin="round" stroke-miterlimit="10" d="M21.3251,5.6485
		c-0.2105-0.6827-0.8597-1.177-1.7691-1.0647c-1.2337-1.0363-3.0665-0.3257-3.3325,1.2856C14.8406,6.7202,15.5611,8.5,16.953,8.5
		h4.5487c0.8394,0,1.5485-0.6536,1.5485-1.43C23.0502,6.2675,22.2808,5.5559,21.3251,5.6485z"/>
	<path fill="none" stroke="#000000" stroke-linecap="round" stroke-linejoin="round" stroke-miterlimit="10" d="M20.9426,8.5
		c0.308,0.908,0.4751,1.9695,0.4751,2.9816c0,4.9706-4.0294,9-9,9c-2.6566,0-5.0443-1.151-6.6918-2.9816"/>
	<path fill="none" stroke="#000000" stroke-linecap="round" stroke-linejoin="round" stroke-miterlimit="10" d="M3.4931,10.3119
		c0.5734-4.4179,4.3505-7.8303,8.9247-7.8303c1.9654,0,3.7836,0.6327,5.2637,1.7019"/>
</g>
<rect x="0.0005" y="0" fill="none" width="24" height="24"/>
</svg>
