<?xml version="1.0" encoding="utf-8"?>
<!-- Generator: Adobe Illustrator 18.1.0, SVG Export Plug-In . SVG Version: 6.00 Build 0)  -->
<svg version="1.1" id="Layer_1" xmlns="http://www.w3.org/2000/svg" xmlns:xlink="http://www.w3.org/1999/xlink" x="0px" y="0px"
	 width="24px" height="24px" viewBox="0 0 24 24" enable-background="new 0 0 24 24" xml:space="preserve">
<g>
	<path fill="none" stroke="#000000" stroke-linecap="round" stroke-linejoin="round" d="M16.459,8.5426l-0.0026-1.1918
		c0-0.4698-0.4355-0.8508-0.9053-0.8508H6.367c-0.4759,0-0.8807,0.3859-0.8807,0.8617v0.1383c0,0.4759-0.3667,1-0.8426,1H3.3503
		c-0.4759,0-0.864,0.1093-0.864,0.5852v6.5453c0,0.4759,0.3881,0.8696,0.864,0.8696h1.9995l3.2862,4h8.9408
		c0.4759,0,0.9096-0.3913,0.9096-0.8672V17.5h3v2h1.1083c0.4759,0,0.8917-0.3867,0.8917-0.8626v-7.347
		c0-0.4759-0.4158-0.7904-0.8917-0.7904h-1.1083v2h-3v-2.1305c0-0.4698-0.4288-0.8695-0.8986-0.8695h-0.1893
		C16.8645,9.5,16.459,9.0766,16.459,8.5426z"/>
	<line fill="none" stroke="#000000" stroke-linecap="round" stroke-linejoin="round" x1="10.4892" y1="6.5" x2="10.4892" y2="4.5"/>
	<line fill="none" stroke="#000000" stroke-linecap="round" stroke-linejoin="round" x1="6.9863" y1="4.5" x2="13.9863" y2="4.5"/>
	
		<line fill="none" stroke="#000000" stroke-linecap="round" stroke-linejoin="round" x1="2.4863" y1="12.5001" x2="0.4863" y2="12.5001"/>
	
		<line fill="none" stroke="#000000" stroke-linecap="round" stroke-linejoin="round" x1="0.4863" y1="16.4623" x2="0.4863" y2="8.5173"/>
</g>
<rect x="-0.0137" y="0" fill="none" width="24" height="24"/>
</svg>
