<?xml version="1.0" encoding="utf-8"?>
<!-- Generator: Adobe Illustrator 18.1.0, SVG Export Plug-In . SVG Version: 6.00 Build 0)  -->
<svg version="1.1" id="Layer_1" xmlns="http://www.w3.org/2000/svg" xmlns:xlink="http://www.w3.org/1999/xlink" x="0px" y="0px"
	 width="24px" height="24px" viewBox="0 0 24 24" enable-background="new 0 0 24 24" xml:space="preserve">
<g>
	<polyline fill="none" stroke="#000000" stroke-linecap="round" stroke-linejoin="round" stroke-miterlimit="10" points="2.5378,5 
		2.5378,2.5 21.5378,2.5 21.5378,5 	"/>
	<polyline fill="none" stroke="#000000" stroke-linecap="round" stroke-linejoin="round" stroke-miterlimit="10" points="
		19.0823,2.5 20.5175,23.5088 5.6389,23.5283 7.0088,2.5 	"/>
	<polyline fill="none" stroke="#000000" stroke-linecap="round" stroke-linejoin="round" stroke-miterlimit="10" points="
		6.0344,17.458 3.6809,17.458 5.1252,2.5 	"/>
	<path fill="none" stroke="#000000" stroke-linecap="round" stroke-linejoin="round" stroke-miterlimit="10" d="M16.2964,23.4825
		c-0.0029-2.0304,1.8922-3.6787,3.9653-3.6816"/>
	<path fill="none" stroke="#000000" stroke-linecap="round" stroke-linejoin="round" stroke-miterlimit="10" d="M5.8844,19.8202
		c2.0731-0.0029,3.9727,1.6408,3.9757,3.6712"/>
	<path fill="none" stroke="#000000" stroke-linecap="round" stroke-linejoin="round" stroke-miterlimit="10" d="M15.4373,13.6114
		c0.499-0.5733,0.8738-1.4574,0.8738-2.0955c0-1.021-0.7237-1.8488-1.6164-1.8488s-1.3344,0.8838-1.6164,1.8488
		c-0.3134,1.0001-0.7237,1.8488-1.6164,1.8488s-1.6164-0.8277-1.6164-1.8488c0-0.6875,0.3281-1.2874,0.815-1.6059"/>
	
		<line fill="none" stroke="#000000" stroke-linecap="round" stroke-linejoin="round" stroke-miterlimit="10" x1="8.6434" y1="11.5158" x2="17.513" y2="11.5158"/>
	<path fill="none" stroke="#000000" stroke-linecap="round" stroke-linejoin="round" stroke-miterlimit="10" d="M2.8866,7.6075
		C1.5315,7.4548,0.5378,6.3048,0.5378,4.9089V3.1168C0.5378,1.6169,1.6347,0.5,3.1346,0.5h17.7965
		c1.4999,0,2.6067,1.1168,2.6067,2.6168v1.7921c0,1.4141-0.9964,2.5758-2.377,2.7041"/>
</g>
<rect x="-0.0136" y="0" fill="none" width="24" height="24"/>
</svg>
