<?xml version="1.0" encoding="utf-8"?>
<!-- Generator: Adobe Illustrator 18.1.0, SVG Export Plug-In . SVG Version: 6.00 Build 0)  -->
<svg version="1.1" id="Layer_1" xmlns="http://www.w3.org/2000/svg" xmlns:xlink="http://www.w3.org/1999/xlink" x="0px" y="0px"
	 width="24px" height="24px" viewBox="0 0 24 24" enable-background="new 0 0 24 24" xml:space="preserve">
<g>
	<g>
		<polyline fill="none" stroke="#000000" stroke-linecap="round" stroke-linejoin="round" points="21.5005,9.7146 21.5005,23.5 
			2.5005,23.5 2.5005,9.7146 		"/>
		<polyline fill="none" stroke="#000000" stroke-linecap="round" stroke-linejoin="round" stroke-miterlimit="10" points="
			20.5005,8.7876 20.5005,2.5 15.5005,2.5 15.5005,4.538 		"/>
		<polyline fill="none" stroke="#000000" stroke-linecap="round" stroke-linejoin="round" points="0.5507,11.3654 12.0005,1.5322 
			23.4503,11.3654 		"/>
	</g>
	<path fill="none" stroke="#000000" stroke-linecap="round" stroke-linejoin="round" d="M16.1298,13.7027
		c0,0-1.3315,0.8487-2.71,1.164c-1.3785,0.3153-2.2875,1.884-2.2875,1.884s-0.1312,1.2913,0.1196,2.7196
		c0.2507,1.4283,0.1275,1.212,0.1275,1.212"/>
	<path fill="none" stroke="#000000" stroke-linecap="round" stroke-linejoin="round" stroke-miterlimit="10" d="M11.1818,15.6364
		c-0.4895-2.5068-5.4185-2.2688-5.4185-2.2688s0.8007,6.5411,5.369,3.3831C11.1323,16.7507,11.056,16.2878,11.1818,15.6364z"/>
	<path fill="none" stroke="#000000" stroke-linecap="round" stroke-linejoin="round" d="M18.2377,11.4771
		c-5.4734,0.2866-6.7739,2.6984-7.056,4.1593c-0.1258,0.6514-0.0495,1.1143-0.0495,1.1143
		C17.9813,21.4294,18.2377,11.4771,18.2377,11.4771z"/>
	<path fill="none" stroke="#000000" stroke-linecap="round" stroke-linejoin="round" stroke-miterlimit="10" d="M8.1849,15.321
		c0,0,2.316,0.4463,2.9474,1.4297"/>
</g>
<rect x="0.0005" y="0" fill="none" width="24" height="24"/>
</svg>
