<?xml version="1.0" encoding="utf-8"?>
<!-- Generator: Adobe Illustrator 18.1.1, SVG Export Plug-In . SVG Version: 6.00 Build 0)  -->
<svg version="1.1" id="Layer_1" xmlns="http://www.w3.org/2000/svg" xmlns:xlink="http://www.w3.org/1999/xlink" x="0px" y="0px"
	 width="24px" height="24px" viewBox="0 0 24 24" enable-background="new 0 0 24 24" xml:space="preserve">
<path fill="none" stroke="#000000" stroke-linecap="round" stroke-linejoin="round" d="M15.5,15.3V1.2c0-0.4-0.3-0.7-0.7-0.7H1.3
	c-0.4,0-0.8,0.3-0.8,0.7v16.6c0,0.4,0.4,0.7,0.8,0.7h13.6"/>
<polyline fill="none" stroke="#000000" stroke-linecap="round" stroke-linejoin="round" points="13.9,16.5 2.5,16.5 2.5,2.5 
	13.5,2.5 13.5,12.8 "/>
<path fill="none" stroke="#000000" stroke-linecap="round" stroke-linejoin="round" d="M15.5,9.7c0,0,2.8,2,2.9,4.8
	c0.1,2.7-0.5,4.1,0.9,5.8c0.7,0.8,1.7,1.9,2.6,2.8"/>
<g>
	<path fill="none" stroke="#000000" stroke-linecap="round" stroke-linejoin="round" d="M12.5,14.2C12.5,14.2,12.5,14.2,12.5,14.2
		C12.5,14.1,12.5,14.1,12.5,14.2z"/>
	<path fill="none" stroke="#000000" stroke-linecap="round" stroke-linejoin="round" d="M15.9,15.9L14,13.2c-0.6-1-2.2-0.1-1.5,1
		c0.1,0.2,2.1,3.3,2.2,3.8c0.5,1.6,1.7,3.7,2.6,5.1"/>
</g>
<line fill="none" stroke="#000000" stroke-linecap="round" stroke-linejoin="round" stroke-miterlimit="10" x1="11.4" y1="4.5" x2="9.5" y2="4.5"/>
<line fill="none" stroke="#000000" stroke-linecap="round" stroke-linejoin="round" stroke-miterlimit="10" x1="11.4" y1="6.5" x2="9.5" y2="6.5"/>
<line fill="none" stroke="#000000" stroke-linecap="round" stroke-linejoin="round" stroke-miterlimit="10" x1="11.4" y1="4.5" x2="9.5" y2="4.5"/>
<line fill="none" stroke="#000000" stroke-linecap="round" stroke-linejoin="round" stroke-miterlimit="10" x1="11.4" y1="8.5" x2="9.5" y2="8.5"/>
<line fill="none" stroke="#000000" stroke-linecap="round" stroke-linejoin="round" stroke-miterlimit="10" x1="11.5" y1="10.5" x2="4.5" y2="10.5"/>
<line fill="none" stroke="#000000" stroke-linecap="round" stroke-linejoin="round" stroke-miterlimit="10" x1="10.5" y1="12.5" x2="4.5" y2="12.5"/>
<line fill="none" stroke="#000000" stroke-linecap="round" stroke-linejoin="round" x1="8" y1="17.5" x2="8" y2="17.5"/>
<rect x="4.5" y="4.5" fill="none" stroke="#000000" stroke-linecap="round" stroke-linejoin="round" stroke-miterlimit="10" width="3" height="4"/>
<rect fill="none" width="24" height="24"/>
</svg>
