<?xml version="1.0" encoding="utf-8"?>
<!-- Generator: Adobe Illustrator 18.1.0, SVG Export Plug-In . SVG Version: 6.00 Build 0)  -->
<svg version="1.1" id="Layer_1" xmlns="http://www.w3.org/2000/svg" xmlns:xlink="http://www.w3.org/1999/xlink" x="0px" y="0px"
	 width="24px" height="24px" viewBox="0 0 24 24" enable-background="new 0 0 24 24" xml:space="preserve">
<g>
	<polyline fill="none" stroke="#000000" stroke-linecap="round" stroke-linejoin="round" stroke-miterlimit="10" points="
		16.1451,4.5097 16.1451,7.814 19.4494,7.814 	"/>
	<path fill="none" stroke="#000000" stroke-linecap="round" stroke-linejoin="round" stroke-miterlimit="10" d="M19.4494,22.8489
		c0,0.3607-0.2925,0.6608-0.6539,0.6608H5.0562c-0.3606,0-0.6503-0.3001-0.6503-0.6608V5.1752c0-0.3605,0.2897-0.6655,0.6503-0.6655
		h11.0888c0.1715,0,0.2512,0.0738,0.3731,0.1941l2.7363,2.7002c0.1242,0.1225,0.1949,0.2355,0.1949,0.4101V22.8489z"/>
	<path fill="none" stroke="#000000" stroke-linecap="round" stroke-linejoin="round" stroke-miterlimit="10" d="M8.5171,5.9739
		L8.517,10.5352c0,1.1106,0.9012,2.0118,2.012,2.0116c1.1108-0.0002,2.0116-0.901,2.0116-2.0116l0.0002-8.4966
		c0-0.8329-0.6757-1.5085-1.5087-1.5087c-0.8336,0-1.5093,0.676-1.5091,1.5091v2.4707"/>
</g>
<rect x="0" y="0.0001" fill="none" width="24" height="24"/>
</svg>
