<?xml version="1.0" encoding="utf-8"?>
<!-- Generator: Adobe Illustrator 18.1.0, SVG Export Plug-In . SVG Version: 6.00 Build 0)  -->
<svg version="1.1" id="Layer_1" xmlns="http://www.w3.org/2000/svg" xmlns:xlink="http://www.w3.org/1999/xlink" x="0px" y="0px"
	 width="24px" height="24px" viewBox="0 0 24 24" enable-background="new 0 0 24 24" xml:space="preserve">
<g>
	<path fill="none" stroke="#000000" stroke-linecap="round" stroke-linejoin="round" stroke-miterlimit="10" d="M20.075,17.3448
		c-0.4314,3.3496-3.4355,6.1138-7.6689,6.1138c-2.2579,0-3.1526-0.1398-5.5502-1.3477c-5.5097-3.3882-1.3717-9.6754-2.9904-14.1235
		c-0.074-0.2019,0.16-0.3757,0.3345-0.2485c0.3246,0.244,3.6034,4.7106,4.086,6.4304c0.0116-0.0045,0.0232-0.0099,0.0353-0.0144
		c1.6095-2.4385,0.1739-10.7046,4.9162-13.5521c0.1435-0.0857,0.3286,0.0178,0.3286,0.1863c0,3.5868,0.2095,8.01,1.456,10.3835
		c0.3783-1.4121,1.7771-5.0809,4.4904-5.5331c0.1949-0.0362,0.3347,0.2,0.2006,0.3551
		C16.4587,9.7922,20.5962,13.2982,20.075,17.3448z"/>
</g>
<rect x="-0.0136" y="0.0002" fill="none" width="24" height="24"/>
</svg>
