<?xml version="1.0" encoding="utf-8"?>
<!-- Generator: Adobe Illustrator 18.1.0, SVG Export Plug-In . SVG Version: 6.00 Build 0)  -->
<svg version="1.1" id="Layer_1" xmlns="http://www.w3.org/2000/svg" xmlns:xlink="http://www.w3.org/1999/xlink" x="0px" y="0px"
	 width="24px" height="24px" viewBox="0 0 24 24" enable-background="new 0 0 24 24" xml:space="preserve">
<g>
	
		<line fill="none" stroke="#000000" stroke-linecap="round" stroke-linejoin="round" stroke-miterlimit="10" x1="11.9419" y1="12.227" x2="11.9419" y2="23.421"/>
	<path fill="none" stroke="#000000" stroke-linecap="round" stroke-linejoin="round" stroke-miterlimit="10" d="M11.9419,23.421
		L1.5093,8.5552v8.3556c0,3.5955,3.3068,6.5102,7.3859,6.5102"/>
	<path fill="none" stroke="#000000" stroke-linecap="round" stroke-linejoin="round" stroke-miterlimit="10" d="M11.9419,23.421
		L22.4821,8.5552v8.3556c0,3.5955-3.3068,6.5102-7.3859,6.5102"/>
	<path fill="none" stroke="#000000" stroke-linecap="round" stroke-linejoin="round" stroke-miterlimit="10" d="M15.8821,4.5438
		l-3.9402-3.9403L8.0017,4.5438L4.6991,1.2411C4.2898,2.1944,4.0615,3.2436,4.0615,4.3467c0,4.3522,3.5282,7.8803,7.8804,7.8803
		s7.8804-3.5282,7.8804-7.8803c0-1.1031-0.2283-2.1523-0.6376-3.1056L15.8821,4.5438z"/>
</g>
<rect x="-0.0136" y="0.0002" fill="none" width="24" height="24"/>
</svg>
