<?xml version="1.0" encoding="utf-8"?>
<!-- Generator: Adobe Illustrator 18.1.0, SVG Export Plug-In . SVG Version: 6.00 Build 0)  -->
<svg version="1.1" id="Layer_1" xmlns="http://www.w3.org/2000/svg" xmlns:xlink="http://www.w3.org/1999/xlink" x="0px" y="0px"
	 width="24px" height="24px" viewBox="0 0 24 24" enable-background="new 0 0 24 24" xml:space="preserve">
<g>
	<path fill="none" stroke="#000000" stroke-linecap="round" stroke-linejoin="round" d="M0.4949,14.6438"/>
	<path fill="none" stroke="#000000" stroke-linecap="round" stroke-linejoin="round" d="M0.4949,14.1026
		c0,1.3527,3.2985,2.4492,7.3665,2.4492c0.2748,0,0.2791,0.0047,0.5461-0.005"/>
	<path fill="none" stroke="#000000" stroke-linecap="round" stroke-linejoin="round" d="M0.4949,11.6537"/>
	<path fill="none" stroke="#000000" stroke-linecap="round" stroke-linejoin="round" d="M0.4949,11.1125
		c0,1.3527,3.2985,2.4492,7.3665,2.4492c0.3611,0,0.374,0.0061,0.7212-0.0106"/>
	<path fill="none" stroke="#000000" stroke-linecap="round" stroke-linejoin="round" d="M0.4949,8.6636"/>
	<path fill="none" stroke="#000000" stroke-linecap="round" stroke-linejoin="round" d="M0.4949,8.1224
		c0,1.3527,3.2985,2.4492,7.3665,2.4492c4.0693,0,7.3674-1.0965,7.3674-2.4492"/>
	<path fill="none" stroke="#000000" stroke-linecap="round" stroke-linejoin="round" d="M0.4949,5.6735"/>
	<path fill="none" stroke="#000000" stroke-linecap="round" stroke-linejoin="round" d="M0.4948,4.9952v12.0975
		c0,1.3527,3.2985,2.4492,7.3665,2.4492c0.281,0,0.2855,0.005,0.5584-0.0052"/>
	
		<line fill="none" stroke="#000000" stroke-linecap="round" stroke-linejoin="round" x1="15.2288" y1="4.9952" x2="15.2288" y2="11.5154"/>
	
		<ellipse fill="none" stroke="#000000" stroke-linecap="round" stroke-linejoin="round" cx="7.8618" cy="4.9952" rx="7.367" ry="2.4493"/>
	<path fill="none" stroke="#000000" stroke-linecap="round" stroke-linejoin="round" d="M23.4461,17.7227"/>
	<path fill="none" stroke="#000000" stroke-linecap="round" stroke-linejoin="round" d="M23.4461,14.8369"/>
	<path fill="none" stroke="#000000" stroke-linecap="round" stroke-linejoin="round" d="M8.4492,17.2004
		c0,1.3055,3.3574,2.3638,7.498,2.3638c4.1419,0,7.4989-1.0583,7.4989-2.3638"/>
	<path fill="none" stroke="#000000" stroke-linecap="round" stroke-linejoin="round" d="M23.4461,14.1823v5.9039
		c0,1.3055-3.357,2.3638-7.4989,2.3638c-4.1406,0-7.498-1.0583-7.498-2.3638l0-5.9039"/>
	
		<ellipse fill="none" stroke="#000000" stroke-linecap="round" stroke-linejoin="round" cx="15.9476" cy="14.0248" rx="7.4984" ry="2.5214"/>
</g>
<rect x="-0.0136" y="0.0031" fill="none" width="24" height="24"/>
<rect x="-0.0136" y="0" fill="none" width="24" height="24"/>
</svg>
