<?xml version="1.0" encoding="utf-8"?>
<!-- Generator: Adobe Illustrator 18.1.0, SVG Export Plug-In . SVG Version: 6.00 Build 0)  -->
<svg version="1.1" id="Layer_1" xmlns="http://www.w3.org/2000/svg" xmlns:xlink="http://www.w3.org/1999/xlink" x="0px" y="0px"
	 width="24px" height="24px" viewBox="0 0 24 24" enable-background="new 0 0 24 24" xml:space="preserve">
<g>
	<polyline fill="none" stroke="#000000" stroke-linecap="round" stroke-linejoin="round" stroke-miterlimit="10" points="
		21.4864,10.5132 21.4864,23.5001 2.4864,23.5001 2.4864,10.5132 	"/>
	
		<rect x="6.4864" y="14.5001" fill="none" stroke="#000000" stroke-linecap="round" stroke-linejoin="round" stroke-miterlimit="10" width="4" height="9"/>
	
		<rect x="13.534" y="14.5224" fill="none" stroke="#000000" stroke-linecap="round" stroke-linejoin="round" stroke-miterlimit="10" width="3.9778" height="2.9798"/>
	<path fill="none" stroke="#000000" stroke-linecap="round" stroke-linejoin="round" stroke-miterlimit="10" d="M23.355,6.316
		c0,3.0087-4.5481,2.9987-4.5481,0c0,3.0053-4.5472,3.0068-4.5472,0c0,3.0048-4.5481,3.0076-4.5481,0
		c0,3.0052-4.5459,3.0069-4.5459,0c0,2.9943-4.5481,3.0143-4.5481,0l3.7232-4.7694h15.3088L23.355,6.316z"/>
</g>
<rect x="-0.0136" y="0.0001" fill="none" width="24" height="24"/>
</svg>
