<?xml version="1.0" encoding="utf-8"?>
<!-- Generator: Adobe Illustrator 18.1.0, SVG Export Plug-In . SVG Version: 6.00 Build 0)  -->
<svg version="1.1" id="Layer_1" xmlns="http://www.w3.org/2000/svg" xmlns:xlink="http://www.w3.org/1999/xlink" x="0px" y="0px"
	 width="24px" height="24px" viewBox="0 0 24 24" enable-background="new 0 0 24 24" xml:space="preserve">
<g>
	
		<rect x="2.4644" y="2.044" fill="none" stroke="#000000" stroke-linecap="round" stroke-linejoin="round" width="18.9836" height="21.4495"/>
	
		<line fill="none" stroke="#000000" stroke-linecap="round" stroke-linejoin="round" x1="6.4966" y1="0.5771" x2="6.4966" y2="4.7869"/>
	
		<line fill="none" stroke="#000000" stroke-linecap="round" stroke-linejoin="round" x1="12.0093" y1="0.5771" x2="12.0093" y2="4.7869"/>
	
		<ellipse fill="none" stroke="#000000" stroke-linecap="round" stroke-linejoin="round" cx="6.4961" cy="5.5193" rx="1.1643" ry="1.1572"/>
	
		<line fill="none" stroke="#000000" stroke-linecap="round" stroke-linejoin="round" x1="17.4977" y1="0.5771" x2="17.4977" y2="4.7869"/>
	
		<ellipse fill="none" stroke="#000000" stroke-linecap="round" stroke-linejoin="round" cx="17.4972" cy="5.5193" rx="1.1643" ry="1.1572"/>
	
		<ellipse fill="none" stroke="#000000" stroke-linecap="round" stroke-linejoin="round" cx="12.0049" cy="5.5193" rx="1.1643" ry="1.1572"/>
	
		<line fill="none" stroke="#000000" stroke-linecap="round" stroke-linejoin="round" x1="10.6521" y1="11.5352" x2="17.4539" y2="11.5352"/>
	
		<rect x="6.4961" y="10.4785" fill="none" stroke="#000000" stroke-linecap="round" stroke-linejoin="round" width="2.0289" height="2.0475"/>
	
		<line fill="none" stroke="#000000" stroke-linecap="round" stroke-linejoin="round" x1="10.6521" y1="15.5356" x2="17.4539" y2="15.5356"/>
	
		<line fill="none" stroke="#000000" stroke-linecap="round" stroke-linejoin="round" x1="10.6521" y1="19.536" x2="17.4539" y2="19.536"/>
	
		<rect x="6.4961" y="14.4789" fill="none" stroke="#000000" stroke-linecap="round" stroke-linejoin="round" width="2.0289" height="2.0475"/>
	
		<rect x="6.4961" y="18.4793" fill="none" stroke="#000000" stroke-linecap="round" stroke-linejoin="round" width="2.0289" height="2.0475"/>
</g>
<rect x="0" y="0.0001" fill="none" width="24" height="24"/>
</svg>
