<?xml version="1.0" encoding="utf-8"?>
<!-- Generator: Adobe Illustrator 18.1.0, SVG Export Plug-In . SVG Version: 6.00 Build 0)  -->
<svg version="1.1" id="Layer_1" xmlns="http://www.w3.org/2000/svg" xmlns:xlink="http://www.w3.org/1999/xlink" x="0px" y="0px"
	 width="24px" height="24px" viewBox="0 0 24 24" enable-background="new 0 0 24 24" xml:space="preserve">
<g>
	<polyline fill="none" stroke="#000000" stroke-linecap="round" stroke-linejoin="round" points="6.0081,17.516 0.5081,17.516 
		0.5081,0.516 23.5081,0.516 23.5081,17.516 18.0081,17.516 	"/>
	<polyline fill="none" stroke="#000000" stroke-linecap="round" stroke-linejoin="round" points="15.5081,12.4159 15.5081,8.5161 
		8.5082,8.5161 8.5082,12.4159 	"/>
	
		<line fill="none" stroke="#000000" stroke-linecap="round" stroke-linejoin="round" x1="6.5544" y1="14.5158" x2="17.7294" y2="14.5158"/>
	<polyline fill="none" stroke="#000000" stroke-linecap="round" stroke-linejoin="round" points="8.5789,23.2934 7.5927,14.5158 
		16.532,14.5158 15.5458,23.2934 	"/>
	
		<line fill="none" stroke="#000000" stroke-linecap="round" stroke-linejoin="round" x1="7.5927" y1="14.5158" x2="15.6651" y2="22.2317"/>
	
		<line fill="none" stroke="#000000" stroke-linecap="round" stroke-linejoin="round" x1="16.532" y1="14.5158" x2="8.4596" y2="22.2317"/>
	<polygon fill="none" stroke="#000000" stroke-linecap="round" stroke-linejoin="round" points="12.0421,15.502 8.0858,18.9046 
		12.1419,22.2317 16.0373,18.9185 	"/>
	<polyline fill="none" stroke="#000000" stroke-linecap="round" stroke-linejoin="round" points="10.8904,14.5158 12.0421,15.502 
		13.2147,14.5158 	"/>
</g>
<rect x="-0.0061" y="0" fill="none" width="24" height="24"/>
</svg>
