<?xml version="1.0" encoding="utf-8"?>
<!-- Generator: Adobe Illustrator 18.1.0, SVG Export Plug-In . SVG Version: 6.00 Build 0)  -->
<svg version="1.1" id="Layer_1" xmlns="http://www.w3.org/2000/svg" xmlns:xlink="http://www.w3.org/1999/xlink" x="0px" y="0px"
	 width="24px" height="24px" viewBox="0 0 24 24" enable-background="new 0 0 24 24" xml:space="preserve">
<g>
	<circle fill="none" stroke="#000000" stroke-linecap="round" stroke-linejoin="round" cx="7.9695" cy="16.0842" r="2.7233"/>
	<path fill="none" stroke="#000000" stroke-linecap="round" stroke-linejoin="round" d="M13.2595,17.3607l1.9915-0.2606
		c0.0935-0.6758,0.0971-1.3295,0-2.0319l-1.9915-0.2606c-0.1344-0.5586-0.3545-1.0824-0.6462-1.5592l1.2249-1.5937
		c-0.4102-0.5426-0.8938-1.0264-1.4362-1.4368l-1.5933,1.2246c-0.477-0.2924-1.0012-0.5129-1.5602-0.6477L8.9878,8.803
		c-0.692-0.0959-1.3447-0.0953-2.0311-0.0007l-0.2606,1.991c-0.56,0.1344-1.085,0.3548-1.5628,0.6473l-1.5936-1.2248
		c-0.5203,0.3934-1.0168,0.8815-1.4361,1.4355l1.2245,1.5932c-0.2931,0.478-0.514,1.0034-0.6488,1.5638L0.688,15.069
		c-0.0893,0.6461-0.096,1.336,0,2.0304L2.6793,17.36c0.1348,0.5604,0.3557,1.0858,0.6488,1.5638l-1.2245,1.5932
		c0.3978,0.5257,0.8873,1.0205,1.4361,1.4355l1.5936-1.2248c0.4778,0.2925,1.0028,0.5129,1.5628,0.6473l0.2606,1.991
		c0.6864,0.0946,1.3391,0.0952,2.0311-0.0007l0.2606-1.9918c0.559-0.1348,1.0832-0.3553,1.5602-0.6477l1.5933,1.2246
		c0.5424-0.4105,1.026-0.8942,1.4362-1.4368l-1.2249-1.5937C12.9051,18.4432,13.1251,17.9193,13.2595,17.3607z"/>
	<circle fill="none" stroke="#000000" stroke-linecap="round" stroke-linejoin="round" cx="18.2394" cy="5.7327" r="1.7691"/>
	<path fill="none" stroke="#000000" stroke-linecap="round" stroke-linejoin="round" d="M21.4239,8.032l1.4015,0.3705
		c0.2472-0.4259,0.4284-0.8615,0.5556-1.3572l-1.259-0.7187c0.063-0.4099,0.0592-0.82-0.0053-1.2182l1.254-0.7296
		c-0.1256-0.4746-0.3164-0.93-0.5664-1.3525l-1.3992,0.3823c-0.2386-0.3257-0.5285-0.6164-0.8651-0.8593l0.3706-1.4017
		c-0.436-0.2533-0.8722-0.4314-1.3566-0.5559l-0.7185,1.2587c-0.4108-0.0634-0.8218-0.0597-1.2209,0.005l-0.7296-1.254
		c-0.452,0.1197-0.9175,0.3091-1.3518,0.5661l0.3823,1.3991c-0.3265,0.2391-0.6178,0.5297-0.861,0.8672l-1.4014-0.3705
		c-0.2363,0.4071-0.4294,0.8662-0.5552,1.3563l1.2589,0.7186c-0.0632,0.4112-0.0593,0.8226,0.0057,1.222l-1.2536,0.7294
		c0.1207,0.455,0.3112,0.9202,0.5667,1.3516l1.3995-0.3823c0.2392,0.326,0.5296,0.6169,0.8669,0.8598l-0.3704,1.4012
		c0.4326,0.2509,0.8685,0.4298,1.3569,0.555l0.7188-1.2592c0.4103,0.0628,0.8207,0.0589,1.2193-0.006l0.7294,1.2537
		c0.4745-0.1259,0.9299-0.3168,1.3523-0.567l-0.3824-1.3995C20.8911,8.6582,21.1814,8.3684,21.4239,8.032z"/>
</g>
<rect x="0" y="0" fill="none" width="24" height="24"/>
</svg>
