<?xml version="1.0" encoding="utf-8"?>
<!-- Generator: Adobe Illustrator 18.1.0, SVG Export Plug-In . SVG Version: 6.00 Build 0)  -->
<svg version="1.1" id="Layer_1" xmlns="http://www.w3.org/2000/svg" xmlns:xlink="http://www.w3.org/1999/xlink" x="0px" y="0px"
	 width="24px" height="24px" viewBox="0 0 24 24" enable-background="new 0 0 24 24" xml:space="preserve">
<g>
	<polygon fill="none" stroke="#000000" stroke-linecap="round" stroke-linejoin="round" stroke-miterlimit="10" points="
		12.0142,9.4221 16.7327,3.5324 14.9178,0.5769 12.0142,0.5769 9.1105,0.5769 7.2956,3.5324 	"/>
	
		<line fill="none" stroke="#000000" stroke-linecap="round" stroke-linejoin="round" stroke-miterlimit="10" x1="7.2956" y1="3.5324" x2="16.7327" y2="3.5324"/>
	<polyline fill="none" stroke="#000000" stroke-linecap="round" stroke-linejoin="round" stroke-miterlimit="10" points="
		12.0142,0.5769 10.3314,3.5324 12.0142,9.4221 	"/>
	<polyline fill="none" stroke="#000000" stroke-linecap="round" stroke-linejoin="round" stroke-miterlimit="10" points="
		12.0142,0.5769 13.697,3.5324 12.0142,9.4221 	"/>
	<path fill="none" stroke="#000000" stroke-linecap="round" stroke-linejoin="round" stroke-miterlimit="10" d="M9.9569,9.4542
		c-2.9267,0.8828-5.0592,3.597-5.0592,6.8116c0,3.9304,3.1862,7.1165,7.1165,7.1165s7.1165-3.1862,7.1165-7.1165
		c0-3.2145-2.1326-5.9287-5.0593-6.8116"/>
</g>
<rect x="0.0142" y="0.0344" fill="none" width="24" height="24"/>
</svg>
