<?xml version="1.0" encoding="utf-8"?>
<!-- Generator: Adobe Illustrator 18.1.0, SVG Export Plug-In . SVG Version: 6.00 Build 0)  -->
<svg version="1.1" id="Layer_1" xmlns="http://www.w3.org/2000/svg" xmlns:xlink="http://www.w3.org/1999/xlink" x="0px" y="0px"
	 width="24px" height="24px" viewBox="0 0 24 24" enable-background="new 0 0 24 24" xml:space="preserve">
<g>
	<path fill="none" stroke="#000000" stroke-linecap="round" stroke-linejoin="round" stroke-miterlimit="10" d="M0.5364,6.8333
		c0,0,3.0602-1.15,10.9391,2.5655v14.0216c0,0-4.3843-3.1405-9.7327-3.052L0.5364,6.8333z"/>
	<path fill="none" stroke="#000000" stroke-linecap="round" stroke-linejoin="round" stroke-miterlimit="10" d="M22.52,6.8333
		c0,0-3.1657-1.15-11.0445,2.5655v14.0216c0,0,4.437-3.1405,9.7854-3.052L22.52,6.8333z"/>
	<path fill="none" stroke="#000000" stroke-linecap="round" stroke-linejoin="round" stroke-miterlimit="10" d="M21.7424,4.0024
		c-7.216,0.3981-10.2616,5.3963-10.2616,5.3963s0.6833-5.9713,9.2737-7.9618"/>
	<path fill="none" stroke="#000000" stroke-linecap="round" stroke-linejoin="round" stroke-miterlimit="10" d="M1.2876,4.0024
		c7.216,0.3981,10.2616,5.3963,10.2616,5.3963S10.8659,3.4274,2.2755,1.437"/>
</g>
<rect x="0" y="0" fill="none" width="24" height="24"/>
</svg>
