<?xml version="1.0" encoding="utf-8"?>
<!-- Generator: Adobe Illustrator 18.1.0, SVG Export Plug-In . SVG Version: 6.00 Build 0)  -->
<svg version="1.1" id="Layer_1" xmlns="http://www.w3.org/2000/svg" xmlns:xlink="http://www.w3.org/1999/xlink" x="0px" y="0px"
	 width="24px" height="24px" viewBox="0 0 24 24" enable-background="new 0 0 24 24" xml:space="preserve">
<g>
	<path fill="none" stroke="#000000" stroke-linecap="round" stroke-linejoin="round" d="M17.2336,19.2038l4.2812-1.9288
		c1.5538-0.7001,2.5302,1.5504,1.0601,2.2127c-6.5024,2.9296-5.9905,2.9467-8.5757,2.9467c-1.4987,0-3.7182-0.235-6.5596-1.4904
		c-0.8889-0.3926-2.5958,0.2417-4.6677,0.7654c-0.6507,0.1649-1.3158-0.2175-1.4952-0.86
		c-0.1288-0.4611-0.6464-2.0539-0.5608-2.4791c0.1057-0.5251,0.5214-0.9008,1.0197-0.9796c1.632-0.2582,6.5806-1.2303,9.2185-0.4653
		l5.4946,1.5936c1.5669,0.4543,0.8732,2.8055-0.6935,2.3507l-5.7728-1.6743"/>
	<path fill="none" stroke="#000000" stroke-linecap="round" stroke-linejoin="round" stroke-miterlimit="10" d="M20.1375,10.4592
		c-2.795-2.9849-7.4901-2.9803-10.2808,0"/>
	<path fill="none" stroke="#000000" stroke-linecap="round" stroke-linejoin="round" stroke-miterlimit="10" d="M22.6294,7.9673
		c-4.1701-4.3569-11.0902-4.3613-15.2644,0"/>
	<path fill="none" stroke="#000000" stroke-linecap="round" stroke-linejoin="round" stroke-miterlimit="10" d="M12.3487,12.951
		c1.4082-1.6066,3.8897-1.6056,5.297,0"/>
</g>
<rect x="0" y="0" fill="none" width="24" height="24"/>
</svg>
