<?xml version="1.0" encoding="utf-8"?>
<!-- Generator: Adobe Illustrator 18.1.0, SVG Export Plug-In . SVG Version: 6.00 Build 0)  -->
<svg version="1.1" id="Layer_1" xmlns="http://www.w3.org/2000/svg" xmlns:xlink="http://www.w3.org/1999/xlink" x="0px" y="0px"
	 width="24px" height="24px" viewBox="0 0 24 24" enable-background="new 0 0 24 24" xml:space="preserve">
<g>
	<polyline fill="none" stroke="#000000" stroke-linecap="round" stroke-linejoin="round" stroke-miterlimit="10" points="
		13.4847,14.0165 8.0146,16.3067 0.7344,12.6519 	"/>
	
		<line fill="none" stroke="#000000" stroke-linecap="round" stroke-linejoin="round" stroke-miterlimit="10" x1="23.3328" y1="9.939" x2="18.5093" y2="11.9454"/>
	<polyline fill="none" stroke="#000000" stroke-linecap="round" stroke-linejoin="round" stroke-miterlimit="10" points="
		23.3328,7.5785 15.9503,3.9039 0.7344,10.2914 	"/>
	
		<line fill="none" stroke="#000000" stroke-linecap="round" stroke-linejoin="round" stroke-miterlimit="10" x1="18.5093" y1="9.6135" x2="23.3328" y2="7.5785"/>
	<polyline fill="none" stroke="#000000" stroke-linecap="round" stroke-linejoin="round" stroke-miterlimit="10" points="
		0.7344,10.2914 8.0146,13.9462 13.4844,11.6723 	"/>
	<polyline fill="none" stroke="#000000" stroke-linecap="round" stroke-linejoin="round" stroke-miterlimit="10" points="
		13.4844,16.4589 8.0146,18.7275 0.7344,15.0727 	"/>
	
		<line fill="none" stroke="#000000" stroke-linecap="round" stroke-linejoin="round" stroke-miterlimit="10" x1="23.3328" y1="12.3598" x2="18.5093" y2="14.3802"/>
	<polyline fill="none" stroke="#000000" stroke-linecap="round" stroke-linejoin="round" stroke-miterlimit="10" points="
		23.3328,14.6852 8.0146,21.0529 0.7344,17.3981 	"/>
	<polyline fill="none" stroke="#000000" stroke-linecap="round" stroke-linejoin="round" stroke-miterlimit="10" points="
		13.4844,18.7791 13.4844,11.6724 6.1377,8.0231 	"/>
	<polyline fill="none" stroke="#000000" stroke-linecap="round" stroke-linejoin="round" stroke-miterlimit="10" points="
		11.3069,5.8534 18.5093,9.6135 18.5093,16.6903 	"/>
	<path fill="none" stroke="#000000" stroke-linecap="round" stroke-linejoin="round" stroke-miterlimit="10" d="M13.0072,9.905
		c0.3451,0.1332,0.8456-0.0495,0.9535-0.4136c0.1055-0.3561,0.0438-0.7169-0.3603-0.919c-0.4041-0.2021-0.8767-0.0923-1.1614,0.1578
		c-0.3046,0.2544-0.7484,0.3662-1.1525,0.1641c-0.4041-0.2021-0.477-0.5639-0.3108-0.8961c0.1119-0.2237,0.358-0.3445,0.6303-0.3379
		"/>
	
		<line fill="none" stroke="#000000" stroke-linecap="round" stroke-linejoin="round" stroke-miterlimit="10" x1="10.6779" y1="7.6185" x2="11.105" y2="7.8322"/>
	
		<line fill="none" stroke="#000000" stroke-linecap="round" stroke-linejoin="round" stroke-miterlimit="10" x1="13.9017" y1="9.6135" x2="14.2983" y2="9.8119"/>
</g>
<rect x="-0.0137" y="0" fill="none" width="24" height="24"/>
</svg>
