<?xml version="1.0" encoding="utf-8"?>
<!-- Generator: Adobe Illustrator 18.1.0, SVG Export Plug-In . SVG Version: 6.00 Build 0)  -->
<svg version="1.1" id="Layer_1" xmlns="http://www.w3.org/2000/svg" xmlns:xlink="http://www.w3.org/1999/xlink" x="0px" y="0px"
	 width="24px" height="24px" viewBox="0 0 24 24" enable-background="new 0 0 24 24" xml:space="preserve">
<g>
	<path fill="none" stroke="#000000" stroke-linecap="round" stroke-linejoin="round" stroke-miterlimit="10" d="M13.4903,20.8644
		c0.2284,0.228,0.5985,0.2287,0.827,0.0002c1.8279-1.8277,2.0889-4.8392,0.6949-7.605l4.4664-4.4664
		c1.251,0.3748,2.5498,0.2686,3.539-0.3c0.3348-0.1926,0.3931-0.6497,0.122-0.9203l-6.6868-6.6862
		c-0.273-0.2725-0.7289-0.2109-0.9206,0.122c-0.5743,0.9996-0.6785,2.2714-0.2993,3.5381l-4.4664,4.4664
		C9.6109,8.4314,8.387,8.1256,7.2014,8.1256c-1.5831,0-3.0177,0.5624-4.0393,1.5836c-0.1097,0.1097-0.1713,0.2583-0.1713,0.4135
		c0,0.1551,0.0617,0.3038,0.1713,0.4135L13.4903,20.8644z"/>
	<path fill="none" stroke="#000000" stroke-linecap="round" stroke-linejoin="round" stroke-miterlimit="10" d="M1.1134,23.5011"/>
	
		<line fill="none" stroke="#000000" stroke-linecap="round" stroke-linejoin="round" stroke-miterlimit="10" x1="8.3307" y1="15.7048" x2="0.6977" y2="23.3288"/>
	<path fill="none" stroke="#000000" stroke-linecap="round" stroke-linejoin="round" stroke-miterlimit="10" d="M12.6577,5.1733"/>
</g>
<rect x="0" y="0" fill="none" width="24" height="24"/>
</svg>
