<?xml version="1.0" encoding="utf-8"?>
<!-- Generator: Adobe Illustrator 18.1.0, SVG Export Plug-In . SVG Version: 6.00 Build 0)  -->
<svg version="1.1" id="Layer_1" xmlns="http://www.w3.org/2000/svg" xmlns:xlink="http://www.w3.org/1999/xlink" x="0px" y="0px"
	 width="24px" height="24px" viewBox="0 0 24 24" enable-background="new 0 0 24 24" xml:space="preserve">
<g>
	<polygon fill="none" stroke="#000000" stroke-linecap="round" stroke-linejoin="round" points="21.517,0.532 1.5516,0.532 
		1.5516,23.498 18.4883,23.498 18.4883,6.4989 21.517,6.4989 	"/>
	
		<line fill="none" stroke="#000000" stroke-linecap="round" stroke-linejoin="round" x1="5.4822" y1="19.498" x2="14.5068" y2="19.498"/>
	
		<line fill="none" stroke="#000000" stroke-linecap="round" stroke-linejoin="round" x1="5.4822" y1="16.4981" x2="14.5068" y2="16.4981"/>
	<polyline fill="none" stroke="#000000" stroke-linecap="round" stroke-linejoin="round" points="20.4885,23.498 21.5,23.498 
		21.5,17.498 20.4885,17.498 	"/>
	<polyline fill="none" stroke="#000000" stroke-linecap="round" stroke-linejoin="round" points="20.4885,15.498 21.5,15.498 
		21.5,9.498 20.4885,9.498 	"/>
	<path fill="none" stroke="#000000" stroke-linecap="round" stroke-linejoin="round" stroke-miterlimit="10" d="M14.3664,11.7366
		c-1.4636-0.5595-3.0884-1.2542-3.2249-1.6871V9.5954c0.3036-0.3072,0.5431-0.7357,0.6848-1.2374
		c0.3416-0.2373,0.4246-0.7247,0.1433-1.067V6.2743c0-1.0495-0.5908-1.7679-1.9415-1.7679c-1.3158,0-1.9422,0.7184-1.9422,1.7679
		v1.017C7.8057,7.6326,7.8876,8.1199,8.2292,8.3578C8.371,8.8596,8.6106,9.2881,8.9144,9.5954v0.4541
		c-0.1362,0.4324-1.7613,1.1273-3.2249,1.6871c-0.1247,0.0479-0.2073,0.1679-0.2073,0.3021v1.1358
		c0,0.1784,0.1442,0.3233,0.322,0.3233h8.4474c0.1778,0,0.322-0.145,0.322-0.3233v-1.1358
		C14.5737,11.9045,14.4911,11.7842,14.3664,11.7366z"/>
</g>
<rect x="0" y="-0.002" fill="none" width="24" height="24"/>
</svg>
