<?xml version="1.0" encoding="utf-8"?>
<!-- Generator: Adobe Illustrator 18.1.0, SVG Export Plug-In . SVG Version: 6.00 Build 0)  -->
<svg version="1.1" id="Layer_1" xmlns="http://www.w3.org/2000/svg" xmlns:xlink="http://www.w3.org/1999/xlink" x="0px" y="0px"
	 width="24px" height="24px" viewBox="0 0 24 24" enable-background="new 0 0 24 24" xml:space="preserve">
<g>
	<polyline fill="none" stroke="#000000" stroke-linecap="round" stroke-linejoin="round" stroke-miterlimit="10" points="
		12.2051,9.5643 14.9346,23.5 9.0654,23.5 11.7936,9.5643 	"/>
	<circle fill="none" stroke="#000000" stroke-linecap="round" stroke-linejoin="round" cx="12.0002" cy="8.4654" r="1.1185"/>
	<path fill="none" stroke="#000000" stroke-linecap="round" stroke-linejoin="round" stroke-miterlimit="10" d="M6.2123,3.639
		c-2.8026,2.6243-2.7982,7.0326,0,9.6527"/>
	<path fill="none" stroke="#000000" stroke-linecap="round" stroke-linejoin="round" stroke-miterlimit="10" d="M3.8727,1.2994
		c-4.0907,3.9154-4.0948,10.4127,0,14.332"/>
	<path fill="none" stroke="#000000" stroke-linecap="round" stroke-linejoin="round" stroke-miterlimit="10" d="M8.5519,10.9521
		c-1.5085-1.3222-1.5075-3.652,0-4.9734"/>
	<path fill="none" stroke="#000000" stroke-linecap="round" stroke-linejoin="round" stroke-miterlimit="10" d="M17.7877,13.2917
		c2.8026-2.6243,2.7982-7.0326,0-9.6527"/>
	<path fill="none" stroke="#000000" stroke-linecap="round" stroke-linejoin="round" stroke-miterlimit="10" d="M20.1274,15.6314
		c4.0907-3.9154,4.0948-10.4127,0-14.332"/>
	<path fill="none" stroke="#000000" stroke-linecap="round" stroke-linejoin="round" stroke-miterlimit="10" d="M15.4481,5.9787
		c1.5085,1.3222,1.5075,3.652,0,4.9734"/>
</g>
<rect x="0" y="0" fill="none" width="24" height="24"/>
</svg>
