<?xml version="1.0" encoding="utf-8"?>
<!-- Generator: Adobe Illustrator 18.1.0, SVG Export Plug-In . SVG Version: 6.00 Build 0)  -->
<svg version="1.1" id="Layer_1" xmlns="http://www.w3.org/2000/svg" xmlns:xlink="http://www.w3.org/1999/xlink" x="0px" y="0px"
	 width="24px" height="24px" viewBox="0 0 24 24" enable-background="new 0 0 24 24" xml:space="preserve">
<g>
	<polyline fill="none" stroke="#000000" stroke-linecap="round" stroke-linejoin="round" stroke-miterlimit="10" points="
		16.5047,0.5049 16.5047,4.5049 20.5047,4.5049 	"/>
	<path fill="none" stroke="#000000" stroke-linecap="round" stroke-linejoin="round" stroke-miterlimit="10" d="M20.5047,22.705
		c0,0.4366-0.354,0.7999-0.7915,0.7999H4.292c-0.4366,0-0.7872-0.3633-0.7872-0.7999V1.3105c0-0.4364,0.3506-0.8056,0.7872-0.8056
		h12.2127c0.2076,0,0.3041,0.0894,0.4517,0.2349l3.3124,3.2687c0.1503,0.1483,0.2359,0.285,0.2359,0.4964V22.705z"/>
	<path fill="none" stroke="#000000" stroke-linecap="round" stroke-linejoin="round" stroke-miterlimit="10" d="M18.0561,8.5169
		H6.031c-0.248,0-0.449,0.1901-0.449,0.4252v8.1441c0,0.2346,0.2011,0.425,0.449,0.425h12.0251c0.2478,0,0.4486-0.1904,0.4486-0.425
		V8.9421C18.5047,8.707,18.3039,8.5169,18.0561,8.5169z"/>
	
		<ellipse fill="none" stroke="#000000" stroke-linecap="round" stroke-linejoin="round" stroke-miterlimit="10" cx="8.8319" cy="11.8685" rx="1.2051" ry="1.1413"/>
	<polyline fill="none" stroke="#000000" stroke-linecap="round" stroke-linejoin="round" stroke-miterlimit="10" points="
		8.2804,17.465 12.2652,12.3097 13.8799,14.3728 15.9565,11.2806 18.4949,14.7385 	"/>
</g>
<rect x="0" y="0.0001" fill="none" width="24" height="24"/>
</svg>
