<?xml version="1.0" encoding="utf-8"?>
<!-- Generator: Adobe Illustrator 18.1.0, SVG Export Plug-In . SVG Version: 6.00 Build 0)  -->
<svg version="1.1" id="Layer_1" xmlns="http://www.w3.org/2000/svg" xmlns:xlink="http://www.w3.org/1999/xlink" x="0px" y="0px"
	 width="24px" height="24px" viewBox="0 0 24 24" enable-background="new 0 0 24 24" xml:space="preserve">
<g>
	
		<ellipse fill="none" stroke="#000000" stroke-linecap="round" stroke-linejoin="round" cx="12.0066" cy="17.2507" rx="4.3993" ry="1.1367"/>
	<path fill="none" stroke="#000000" stroke-linecap="round" stroke-linejoin="round" d="M7.6073,17.2507l1.7206,5.5358
		c0,0.3139,1.4639,0.5684,2.6787,0.5684s2.6787-0.2545,2.6787-0.5684l1.7206-5.5358"/>
	<path fill="none" stroke="#000000" stroke-linecap="round" stroke-linejoin="round" stroke-miterlimit="10" d="M10.74,11.837
		c-2.1047,1.427-5.0707,0.0015-5.0707-2.4841c0-1.1371,0.657-2.1269,1.629-2.6511C6.357,3.7166,8.7114,0.716,11.9895,0.716
		c2.4361,0,4.4511,1.6902,4.8293,3.9016c1.914,0.4632,3.3315,2.106,3.3315,4.0675c0,3.4058-4.0416,5.3704-6.9449,3.4543"/>
	<path fill="none" stroke="#000000" stroke-linecap="round" stroke-linejoin="round" stroke-miterlimit="10" d="M12.0304,11.0007
		c0,0,0.6828-4.8709,3.9663-3.7421"/>
	<path fill="none" stroke="#000000" stroke-linecap="round" stroke-linejoin="round" stroke-miterlimit="10" d="M12.0117,10.0845
		c0,0-1.4601-3.6615-2.9723-2.1173"/>
	
		<line fill="none" stroke="#000000" stroke-linecap="round" stroke-linejoin="round" x1="12.0117" y1="5.0861" x2="12.0117" y2="16.7716"/>
</g>
<rect x="0.0142" y="0.0354" fill="none" width="24" height="24"/>
</svg>
