<?xml version="1.0" encoding="utf-8"?>
<!-- Generator: Adobe Illustrator 18.1.0, SVG Export Plug-In . SVG Version: 6.00 Build 0)  -->
<svg version="1.1" id="Layer_1" xmlns="http://www.w3.org/2000/svg" xmlns:xlink="http://www.w3.org/1999/xlink" x="0px" y="0px"
	 width="24px" height="24px" viewBox="0 0 24 24" enable-background="new 0 0 24 24" xml:space="preserve">
<g>
	
		<circle fill="none" stroke="#000000" stroke-linecap="round" stroke-linejoin="round" stroke-miterlimit="10" cx="12.6936" cy="2.5424" r="1.5468"/>
	<path fill="none" stroke="#000000" stroke-linecap="round" stroke-linejoin="round" stroke-miterlimit="10" d="M11.4623,19.4863
		c0,0-0.009-3.4614-0.0759-4.56c-0.0121-0.1984-0.0958-0.3834-0.2352-0.5252l-2.5591-2.6023
		c-0.2039-0.3663-0.2485-0.8002-0.1234-1.2003l1.0438-3.3383c0.2563-0.8196,1.0854-1.3704,1.9241-1.1861
		c0.9459,0.2079,1.3476,1.059,1.2091,2.0773l-0.4045,3.2943l3.2044,0.0505"/>
	<polyline fill="none" stroke="#000000" stroke-linecap="round" stroke-linejoin="round" stroke-miterlimit="10" points="
		7.7159,12.7624 6.2728,14.5304 2.4959,14.5304 	"/>
	<polyline fill="none" stroke="#000000" stroke-linecap="round" stroke-linejoin="round" stroke-miterlimit="10" points="
		8.508,5.58 6.9239,5.58 5.4289,9.2106 	"/>
	<path fill="none" stroke="#000000" stroke-linecap="round" stroke-linejoin="round" stroke-miterlimit="10" d="M22.1935,23.4871
		H1.8603c-0.5388,0-0.9755-0.4368-0.9755-0.9755v0c0-0.5388,0.4368-0.9755,0.9755-0.9755h20.3332
		c0.5388,0,0.9755,0.4368,0.9755,0.9755v0C23.169,23.0503,22.7322,23.4871,22.1935,23.4871z"/>
	
		<line fill="none" stroke="#000000" stroke-linecap="round" stroke-linejoin="round" stroke-miterlimit="10" x1="19.3531" y1="21.536" x2="20.9201" y2="9.077"/>
	
		<line fill="none" stroke="#000000" stroke-linecap="round" stroke-linejoin="round" stroke-miterlimit="10" x1="18.278" y1="10.3344" x2="22.8408" y2="8.163"/>
</g>
<rect x="0.0142" y="0.0346" fill="none" width="24" height="24"/>
</svg>
