<?xml version="1.0" encoding="utf-8"?>
<!-- Generator: Adobe Illustrator 18.1.0, SVG Export Plug-In . SVG Version: 6.00 Build 0)  -->
<svg version="1.1" id="Layer_1" xmlns="http://www.w3.org/2000/svg" xmlns:xlink="http://www.w3.org/1999/xlink" x="0px" y="0px"
	 width="24px" height="24px" viewBox="0 0 24 24" enable-background="new 0 0 24 24" xml:space="preserve">
<g>
	
		<line fill="none" stroke="#000000" stroke-linecap="round" stroke-linejoin="round" stroke-miterlimit="10" x1="0.5918" y1="22.4924" x2="23.4641" y2="22.4924"/>
	
		<line fill="none" stroke="#000000" stroke-linecap="round" stroke-linejoin="round" stroke-miterlimit="10" x1="11.5521" y1="22.4924" x2="11.5521" y2="5.7094"/>
	<path fill="none" stroke="#000000" stroke-linecap="round" stroke-linejoin="round" stroke-miterlimit="10" d="M11.5521,15.2693
		c0,0,0.8691-6.1996,5.0482-4.7629"/>
	<path fill="none" stroke="#000000" stroke-linecap="round" stroke-linejoin="round" stroke-miterlimit="10" d="M11.5521,13.5717
		c0,0-1.8822-4.1288-3.8069-2.1634"/>
	<path fill="none" stroke="#000000" stroke-linecap="round" stroke-linejoin="round" stroke-miterlimit="10" d="M10.0056,16.1931
		c-2.5856,2.0073-6.2298,0.0022-6.2298-3.4943c0-1.5996,0.8072-2.9919,2.0014-3.7292C4.6174,4.7578,7.526,0.5494,11.5408,0.5494
		c2.9929,0,5.4685,2.3776,5.9331,5.4883c2.3515,0.6516,4.093,2.9625,4.093,5.7217c0,3.2648-2.4347,5.9114-5.438,5.9114
		c-1.1505,0-2.2165-0.389-3.0943-1.0523"/>
</g>
<rect x="-0.0008" y="-0.0147" fill="none" width="24" height="24"/>
</svg>
