<?xml version="1.0" encoding="utf-8"?>
<!-- Generator: Adobe Illustrator 18.1.0, SVG Export Plug-In . SVG Version: 6.00 Build 0)  -->
<svg version="1.1" id="Layer_1" xmlns="http://www.w3.org/2000/svg" xmlns:xlink="http://www.w3.org/1999/xlink" x="0px" y="0px"
	 width="24px" height="24px" viewBox="0 0 24 24" enable-background="new 0 0 24 24" xml:space="preserve">
<g>
	<circle fill="none" stroke="#000000" cx="12" cy="12.0011" r="11.253"/>
	<polyline fill="none" stroke="#000000" stroke-linecap="round" stroke-linejoin="round" stroke-miterlimit="10" points="
		6.604,6.7075 12.3305,12.396 15.8111,10.4068 	"/>
	<circle fill="none" stroke="#000000" cx="20.2145" cy="11.8469" r="0.812"/>
	<circle fill="none" stroke="#000000" cx="3.7854" cy="11.8469" r="0.812"/>
	<circle fill="none" stroke="#000000" cx="11.9916" cy="3.6698" r="0.812"/>
	<circle fill="none" stroke="#000000" cx="11.9916" cy="20.0841" r="0.812"/>
	
		<line fill="none" stroke="#000000" stroke-linecap="round" stroke-linejoin="round" stroke-miterlimit="10" x1="7.8345" y1="4.7886" x2="7.8345" y2="4.7886"/>
	
		<line fill="none" stroke="#000000" stroke-linecap="round" stroke-linejoin="round" stroke-miterlimit="10" x1="7.8345" y1="18.971" x2="7.8345" y2="18.971"/>
	
		<line fill="none" stroke="#000000" stroke-linecap="round" stroke-linejoin="round" stroke-miterlimit="10" x1="16.0695" y1="4.7429" x2="16.0695" y2="4.7429"/>
	
		<line fill="none" stroke="#000000" stroke-linecap="round" stroke-linejoin="round" stroke-miterlimit="10" x1="16.0695" y1="19.0166" x2="16.0695" y2="19.0166"/>
	
		<line fill="none" stroke="#000000" stroke-linecap="round" stroke-linejoin="round" stroke-miterlimit="10" x1="19.1027" y1="7.7426" x2="19.1027" y2="7.7426"/>
	
		<line fill="none" stroke="#000000" stroke-linecap="round" stroke-linejoin="round" stroke-miterlimit="10" x1="19.1027" y1="16.0333" x2="19.1027" y2="16.0333"/>
	
		<line fill="none" stroke="#000000" stroke-linecap="round" stroke-linejoin="round" stroke-miterlimit="10" x1="4.8339" y1="7.8187" x2="4.8339" y2="7.8187"/>
	
		<line fill="none" stroke="#000000" stroke-linecap="round" stroke-linejoin="round" stroke-miterlimit="10" x1="4.8339" y1="15.9571" x2="4.8339" y2="15.9571"/>
</g>
<rect x="0" y="0" fill="none" width="24" height="24"/>
</svg>
