<?xml version="1.0" encoding="utf-8"?>
<!-- Generator: Adobe Illustrator 18.1.0, SVG Export Plug-In . SVG Version: 6.00 Build 0)  -->
<svg version="1.1" id="Layer_1" xmlns="http://www.w3.org/2000/svg" xmlns:xlink="http://www.w3.org/1999/xlink" x="0px" y="0px"
	 width="24px" height="24px" viewBox="0 0 24 24" enable-background="new 0 0 24 24" xml:space="preserve">
<g>
	<polyline fill="none" stroke="#000000" stroke-linecap="round" stroke-linejoin="round" stroke-miterlimit="10" points="
		17.0435,14.1944 19.472,3.4779 23.2613,20.8578 15.6826,20.8578 16.1632,18.6413 	"/>
	<path fill="none" stroke="#000000" stroke-linecap="round" stroke-linejoin="round" stroke-miterlimit="10" d="M9.1905,18.9716
		c-3.0633,1.6457-5.383-3.3228-2.456-5.1549c-0.7773-2.8619,1.1722-5.7204,3.8619-5.7204c2.0054,0,3.6641,1.6152,3.9754,3.7286
		c1.5756,0.4427,2.7425,2.0126,2.7425,3.8871c0,3.1944-3.2197,5.0882-5.6194,3.3734"/>
	
		<line fill="none" stroke="#000000" stroke-linecap="round" stroke-linejoin="round" stroke-miterlimit="10" x1="19.472" y1="23.449" x2="19.472" y2="18.2056"/>
	
		<line fill="none" stroke="#000000" stroke-linecap="round" stroke-linejoin="round" stroke-miterlimit="10" x1="10.4533" y1="23.449" x2="10.4533" y2="12.4213"/>
	<path fill="none" stroke="#000000" stroke-linecap="round" stroke-linejoin="round" stroke-miterlimit="10" d="M10.4892,18.1189
		c0,0,0.5823-4.154,3.3825-3.1914"/>
	<path fill="none" stroke="#000000" stroke-linecap="round" stroke-linejoin="round" stroke-miterlimit="10" d="M10.4892,16.9814
		c0,0-1.2612-2.7665-2.5508-1.4496"/>
	<path fill="none" stroke="#000000" stroke-linecap="round" stroke-linejoin="round" stroke-miterlimit="10" d="M8.0921,2.7402
		C7.8253,1.8426,6.9914,1.1942,5.8499,1.3404C4.2862-0.0221,1.9633,0.9141,1.6261,3.0326C-0.1272,4.1516,0.7872,6.5,2.5508,6.5
		H8.316c1.0638,0,1.9626-0.8648,1.9626-1.8855C10.2786,3.5636,9.3085,2.618,8.0921,2.7402z"/>
</g>
<rect x="-0.0113" y="0" fill="none" width="24" height="24"/>
</svg>
