<?xml version="1.0" encoding="utf-8"?>
<!-- Generator: Adobe Illustrator 18.1.0, SVG Export Plug-In . SVG Version: 6.00 Build 0)  -->
<svg version="1.1" id="Layer_1" xmlns="http://www.w3.org/2000/svg" xmlns:xlink="http://www.w3.org/1999/xlink" x="0px" y="0px"
	 width="24px" height="24px" viewBox="0 0 24 24" enable-background="new 0 0 24 24" xml:space="preserve">
<g>
	<path fill="none" stroke="#000000" stroke-linecap="round" stroke-linejoin="round" d="M11.7765,16.7421
		c0.8469-1.4932,2.571-2.3899,4.3565-2.0689c2.2617,0.4066,3.7656,2.5698,3.3589,4.8315s-2.5698,3.7656-4.8315,3.3589
		c-1.095-0.1969-1.9856-0.8491-2.5945-1.6812"/>
	<circle fill="none" stroke="#000000" stroke-linecap="round" stroke-linejoin="round" cx="8.412" cy="19.1899" r="4.1609"/>
	<polyline fill="none" stroke="#000000" stroke-linecap="round" stroke-linejoin="round" points="9.3309,13.2371 11.7587,7.8549 
		14.7165,14.6685 	"/>
	<path fill="none" stroke="#000000" stroke-linecap="round" stroke-linejoin="round" d="M11.7718,7.9575
		c0,0-0.8315-5.6185,7.7289-7.1088C19.5007,0.8487,20.4377,12.6261,11.7718,7.9575z"/>
	<path fill="none" stroke="#000000" stroke-linecap="round" stroke-linejoin="round" d="M17.2902,3.7377
		c0,0-1.4657,1.1675-3.0533,1.7113s-2.4452,2.3718-2.4452,2.3718"/>
	<path fill="none" stroke="#000000" stroke-linecap="round" stroke-linejoin="round" stroke-miterlimit="10" d="M11.7587,7.8549
		c0.0329-4.0574-6.113-3.6572-6.113-3.6572S6.683,11.3998,11.7587,7.8549z"/>
</g>
<rect x="0" y="0.0346" fill="none" width="24" height="24"/>
</svg>
