<?xml version="1.0" encoding="utf-8"?>
<!-- Generator: Adobe Illustrator 18.1.0, SVG Export Plug-In . SVG Version: 6.00 Build 0)  -->
<svg version="1.1" id="Layer_1" xmlns="http://www.w3.org/2000/svg" xmlns:xlink="http://www.w3.org/1999/xlink" x="0px" y="0px"
	 width="24px" height="24px" viewBox="0 0 24 24" enable-background="new 0 0 24 24" xml:space="preserve">
<g>
	
		<line fill="none" stroke="#000000" stroke-linecap="round" stroke-linejoin="round" x1="21.2478" y1="15.5402" x2="23.2208" y2="15.5402"/>
	
		<line fill="none" stroke="#000000" stroke-linecap="round" stroke-linejoin="round" x1="4.6928" y1="15.5402" x2="19.3102" y2="15.5402"/>
	
		<line fill="none" stroke="#000000" stroke-linecap="round" stroke-linejoin="round" x1="0.8269" y1="15.5402" x2="2.7907" y2="15.5402"/>
	<polyline fill="none" stroke="#000000" stroke-linecap="round" stroke-linejoin="round" points="2.7338,19.5204 2.923,5.473 
		4.5707,5.473 4.76,20.6967 	"/>
	<polyline fill="none" stroke="#000000" stroke-linecap="round" stroke-linejoin="round" points="19.2234,20.6967 19.4678,5.473 
		21.1155,5.473 21.3048,19.5204 	"/>
	<path fill="none" stroke="#000000" stroke-linecap="round" stroke-linejoin="round" d="M4.5707,6.1705
		c0,0,6.5585,13.9187,14.8859,0"/>
	<path fill="none" stroke="#000000" stroke-linecap="round" stroke-linejoin="round" d="M21.1247,6.1705
		c0.4971,0.5042,0.8185,1.5678,2.0961,2.5831"/>
	<path fill="none" stroke="#000000" stroke-linecap="round" stroke-linejoin="round" d="M2.923,6.1705
		C2.4259,6.6747,1.9153,7.7383,0.6377,8.7535"/>
	
		<line fill="none" stroke="#000000" stroke-linecap="round" stroke-linejoin="round" x1="6.6471" y1="11.6257" x2="6.6471" y2="15.5402"/>
	
		<line fill="none" stroke="#000000" stroke-linecap="round" stroke-linejoin="round" x1="8.7978" y1="13.2494" x2="8.7978" y2="15.5402"/>
	
		<line fill="none" stroke="#000000" stroke-linecap="round" stroke-linejoin="round" x1="10.9485" y1="14.2354" x2="10.9485" y2="15.5402"/>
	
		<line fill="none" stroke="#000000" stroke-linecap="round" stroke-linejoin="round" x1="13.0992" y1="14.1545" x2="13.0992" y2="15.5402"/>
	
		<line fill="none" stroke="#000000" stroke-linecap="round" stroke-linejoin="round" x1="15.2499" y1="13.0849" x2="15.2499" y2="15.5402"/>
	
		<line fill="none" stroke="#000000" stroke-linecap="round" stroke-linejoin="round" x1="17.4006" y1="11.3983" x2="17.4006" y2="15.5402"/>
	<path fill="none" stroke="#000000" stroke-linecap="round" stroke-linejoin="round" stroke-miterlimit="10" d="M0.7642,20.3193
		c0.8859-0.8859,2.3222-0.8859,3.2081,0l0,0c0.8859,0.8859,2.3222,0.8859,3.2081,0l0,0c0.8859-0.8859,2.3222-0.8859,3.2081,0l0,0
		c0.8859,0.8859,2.3222,0.8859,3.2081,0l0,0c0.8859-0.8859,2.3222-0.8859,3.2081,0l0,0c0.8859,0.8859,2.3222,0.8859,3.2081,0l0,0
		c0.8859-0.8859,2.3222-0.8859,3.2081,0"/>
</g>
<rect x="-0.0137" y="0" fill="none" width="24" height="24"/>
</svg>
