<?xml version="1.0" encoding="utf-8"?>
<!-- Generator: Adobe Illustrator 18.1.0, SVG Export Plug-In . SVG Version: 6.00 Build 0)  -->
<svg version="1.1" id="Layer_1" xmlns="http://www.w3.org/2000/svg" xmlns:xlink="http://www.w3.org/1999/xlink" x="0px" y="0px"
	 width="24px" height="24px" viewBox="0 0 24 24" enable-background="new 0 0 24 24" xml:space="preserve">
<g>
	<path fill="none" stroke="#000000" stroke-linecap="round" stroke-linejoin="round" stroke-miterlimit="10" d="M21.5195,16.5009
		V5.2039c0-0.3979-0.3225-0.7203-0.7199-0.7203H3.1986c-0.3979,0-0.7203,0.3225-0.7203,0.7203v11.297"/>
	<path fill="none" stroke="#000000" stroke-linecap="round" stroke-linejoin="round" stroke-miterlimit="10" d="M13.2379,18.5301
		v0.3038c0,0.2398-0.1949,0.4342-0.4347,0.4342H11.195c-0.2398,0-0.4347-0.1944-0.4347-0.4342v-0.3038H0.5027v1.2005
		c0,0.4419,0.3582,0.7997,0.7996,0.7997H22.695c0.4419,0,0.8001-0.3578,0.8001-0.7997v-1.2005H13.2379z"/>
	<path fill="none" stroke="#000000" stroke-linecap="round" stroke-linejoin="round" stroke-miterlimit="10" d="M15.3311,13.1169
		c-1.1242-0.4405-2.3721-0.9875-2.477-1.3284v-0.3576c0.2332-0.2419,0.4171-0.5793,0.526-0.9743
		c0.2601-0.1852,0.3274-0.569,0.1101-0.8401V8.816c0-0.8263-0.4538-1.392-1.4912-1.392c-1.0106,0-1.4917,0.5657-1.4917,1.392v0.8007
		c-0.2166,0.2703-0.15,0.654,0.1101,0.8397c0.1088,0.3951,0.2929,0.7325,0.5262,0.9744v0.3576
		c-0.1046,0.3405-1.3528,0.8876-2.477,1.3284c-0.0958,0.0377-0.1592,0.1322-0.1592,0.2379v0.8943
		c0,0.1404,0.1108,0.2546,0.2473,0.2546h6.4883c0.1366,0,0.2473-0.1141,0.2473-0.2546v-0.8943
		C15.4903,13.2491,15.4269,13.1543,15.3311,13.1169z"/>
</g>
<rect x="0" y="0" fill="none" width="24" height="24"/>
</svg>
