<?xml version="1.0" encoding="utf-8"?>
<!-- Generator: Adobe Illustrator 18.1.0, SVG Export Plug-In . SVG Version: 6.00 Build 0)  -->
<svg version="1.1" id="Layer_1" xmlns="http://www.w3.org/2000/svg" xmlns:xlink="http://www.w3.org/1999/xlink" x="0px" y="0px"
	 width="24px" height="24px" viewBox="0 0 24 24" enable-background="new 0 0 24 24" xml:space="preserve">
<g>
	<polyline fill="none" stroke="#000000" stroke-linecap="round" stroke-linejoin="round" stroke-miterlimit="10" points="
		23.407,5.4498 23.407,23.4456 0.4366,23.4456 0.4366,5.4498 	"/>
	<polyline fill="none" stroke="#000000" stroke-linecap="round" stroke-linejoin="round" stroke-miterlimit="10" points="
		13.5679,5.3701 23.407,5.3701 21.3511,0.4697 2.4926,0.4697 0.4366,5.3701 10.3896,5.3701 	"/>
	
		<line fill="none" stroke="#000000" stroke-linecap="round" stroke-linejoin="round" stroke-miterlimit="10" x1="9.5124" y1="12.2822" x2="9.5124" y2="18.5386"/>
	<polyline fill="none" stroke="#000000" stroke-linecap="round" stroke-linejoin="round" stroke-miterlimit="10" points="
		7.8186,13.901 9.5124,12.2822 11.2061,13.901 	"/>
	
		<line fill="none" stroke="#000000" stroke-linecap="round" stroke-linejoin="round" stroke-miterlimit="10" x1="14.4451" y1="12.2822" x2="14.4451" y2="18.5386"/>
	<polyline fill="none" stroke="#000000" stroke-linecap="round" stroke-linejoin="round" stroke-miterlimit="10" points="
		12.7514,13.901 14.4451,12.2822 16.1389,13.901 	"/>
	<polygon fill="none" stroke="#000000" stroke-linecap="round" stroke-linejoin="round" stroke-miterlimit="10" points="
		13.5679,5.662 12.9762,0.4697 10.9813,0.4697 10.3896,5.662 10.3896,9.6114 13.5679,9.6114 	"/>
	
		<line fill="none" stroke="#000000" stroke-linecap="round" stroke-linejoin="round" stroke-miterlimit="10" x1="8.0147" y1="20.4388" x2="15.9428" y2="20.4388"/>
</g>
<rect x="-0.0137" y="0" fill="none" width="24" height="24"/>
</svg>
