<?xml version="1.0" encoding="utf-8"?>
<!-- Generator: Adobe Illustrator 18.1.0, SVG Export Plug-In . SVG Version: 6.00 Build 0)  -->
<svg version="1.1" id="Layer_1" xmlns="http://www.w3.org/2000/svg" xmlns:xlink="http://www.w3.org/1999/xlink" x="0px" y="0px"
	 width="24px" height="24px" viewBox="0 0 24 24" enable-background="new 0 0 24 24" xml:space="preserve">
<g>
	
		<line fill="none" stroke="#000000" stroke-linecap="round" stroke-linejoin="round" stroke-miterlimit="10" x1="1" y1="20.5197" x2="23" y2="20.5197"/>
	<polyline fill="none" stroke="#000000" stroke-linecap="round" stroke-linejoin="round" stroke-miterlimit="10" points="
		21.6895,21.9089 20.8972,23.5197 3.1065,23.5197 2.3142,21.9267 	"/>
	<path fill="none" stroke="#000000" stroke-linecap="round" stroke-linejoin="round" stroke-miterlimit="10" d="M20.9477,14.2869
		c1.9129,1.9589,1.33,3.4691-1.2684,6.2328"/>
	<path fill="none" stroke="#000000" stroke-linecap="round" stroke-linejoin="round" stroke-miterlimit="10" d="M2.6186,20.5197
		c0,0-3.1019-3.7666,0.6647-5.3619s6.0168-3.9952,8.907-4.4542c1.8696-0.2969,3.686-0.1664,5.1923,0.335"/>
	<path fill="none" stroke="#000000" stroke-linecap="round" stroke-linejoin="round" d="M18.1726,18.2839
		c0,0,1.4443-2.124-0.3208-3.2577l3.273-3.273c0.3875,0.5432,1.1513,0.5898,1.6057,0.1354
		c0.7882-0.7882-0.0348-2.1045-1.0887-1.7437c0.3608-1.0539-0.9555-1.8768-1.7437-1.0887
		c-0.4702,0.4702-0.3937,1.2555,0.1622,1.6253l-3.2766,3.2766c0,0-6.1445-1.5237-6.6762,4.3257"/>
	<path fill="none" stroke="#000000" stroke-linecap="round" stroke-linejoin="round" stroke-miterlimit="10" d="M12.1607,1.2974
		c0,0,1.958,0.4936-0.5509,3.7522c-2.5088,3.2582,0,3.4557,0,3.4557"/>
	<path fill="none" stroke="#000000" stroke-linecap="round" stroke-linejoin="round" stroke-miterlimit="10" d="M15.7117,3.3254
		c0,0,1.1156,0.2815-0.3136,2.1381c-1.4299,1.8567,0,1.9692,0,1.9692"/>
	<path fill="none" stroke="#000000" stroke-linecap="round" stroke-linejoin="round" stroke-miterlimit="10" d="M6.8342,5.3791
		c0,0,1.1156,0.2815-0.3136,2.1381c-1.4299,1.8567,0,1.9692,0,1.9692"/>
</g>
<rect x="0" y="0.0197" fill="none" width="24" height="24"/>
</svg>
