<?xml version="1.0" encoding="utf-8"?>
<!-- Generator: Adobe Illustrator 18.1.0, SVG Export Plug-In . SVG Version: 6.00 Build 0)  -->
<svg version="1.1" id="Layer_1" xmlns="http://www.w3.org/2000/svg" xmlns:xlink="http://www.w3.org/1999/xlink" x="0px" y="0px"
	 width="24px" height="24px" viewBox="0 0 24 24" enable-background="new 0 0 24 24" xml:space="preserve">
<g>
	<path fill="none" stroke="#000000" stroke-linecap="round" stroke-linejoin="round" stroke-miterlimit="10" d="M14.0582,15.472
		c1.1167-1.4113,1.1127-3.4505-0.0117-4.8558c-1.4862-1.8574-4.2052-1.9689-5.8395-0.3347
		c-1.0003,1.0003-0.9671,2.4458-2.5142,2.3273c-1.3522-0.1036-2.663,0.307-3.6139,1.2579
		c-1.9072,1.9072-1.6439,5.2628,0.5881,7.4949s5.5876,2.4953,7.4949,0.5881c0.9447-0.9447,1.3561-2.2447,1.2599-3.5875
		C11.2972,16.6249,12.8824,16.9581,14.0582,15.472z"/>
	<path fill="none" stroke="#000000" stroke-linecap="round" stroke-linejoin="round" stroke-miterlimit="10" d="M14.304,10.8799
		l6.6324-6.6324L21.132,4.443l1.8247-1.8246c0.2639-0.2639,0.2639-0.6918,0-0.9557L22.3659,1.072
		c-0.2639-0.2639-0.6918-0.2639-0.9557,0l-1.8246,1.8246l0.1957,0.1957l-6.6324,6.6323"/>
	
		<circle fill="none" stroke="#000000" stroke-linecap="round" stroke-linejoin="round" stroke-miterlimit="10" cx="9.6481" cy="14.3618" r="1.7463"/>
	
		<line fill="none" stroke="#000000" stroke-linecap="round" stroke-linejoin="round" stroke-miterlimit="10" x1="4.683" y1="16.8573" x2="7.1526" y2="19.3269"/>
	
		<line fill="none" stroke="#000000" stroke-linecap="round" stroke-linejoin="round" stroke-miterlimit="10" x1="19.7813" y1="3.0923" x2="20.9364" y2="4.2474"/>
	
		<line fill="none" stroke="#000000" stroke-linecap="round" stroke-linejoin="round" stroke-miterlimit="10" x1="21.8064" y1="3.7687" x2="22.1607" y2="4.123"/>
	
		<line fill="none" stroke="#000000" stroke-linecap="round" stroke-linejoin="round" stroke-miterlimit="10" x1="19.9056" y1="1.868" x2="20.26" y2="2.2223"/>
	
		<line fill="none" stroke="#000000" stroke-linecap="round" stroke-linejoin="round" stroke-miterlimit="10" x1="22.8179" y1="2.7572" x2="23.1722" y2="3.1115"/>
	
		<line fill="none" stroke="#000000" stroke-linecap="round" stroke-linejoin="round" stroke-miterlimit="10" x1="20.9171" y1="0.8564" x2="21.2715" y2="1.2108"/>
</g>
<rect x="0" y="0.0197" fill="none" width="24" height="24"/>
</svg>
