<?xml version="1.0" encoding="utf-8"?>
<!-- Generator: Adobe Illustrator 18.1.0, SVG Export Plug-In . SVG Version: 6.00 Build 0)  -->
<svg version="1.1" id="Layer_1" xmlns="http://www.w3.org/2000/svg" xmlns:xlink="http://www.w3.org/1999/xlink" x="0px" y="0px"
	 width="24px" height="24px" viewBox="0 0 24 24" enable-background="new 0 0 24 24" xml:space="preserve">
<g>
	<path fill="none" stroke="#000000" stroke-linecap="round" stroke-linejoin="round" stroke-miterlimit="10" d="M12.2203,12.709
		c-1.43-0.5526-3.0175-1.2388-3.1509-1.6664V10.594C9.366,10.2906,9.6,9.8673,9.7385,9.3718c0.3302-0.2319,0.417-0.7132,0.14-1.0539
		V7.3137c0-1.0366-0.5772-1.7462-1.8969-1.7462c-1.2856,0-1.8976,0.7096-1.8976,1.7462v1.0045
		c-0.276,0.3397-0.1902,0.8209,0.14,1.0534c0.1385,0.4957,0.3726,0.9189,0.6694,1.2224v0.4486
		c-0.133,0.4271-1.7209,1.1135-3.1509,1.6664C3.6206,12.7563,3.54,12.8749,3.54,13.0074v1.1219
		c0,0.1762,0.1409,0.3193,0.3146,0.3193h8.2536c0.1737,0,0.3146-0.1432,0.3146-0.3193v-1.1219
		C12.4228,12.8749,12.3422,12.756,12.2203,12.709z"/>
	
		<line fill="none" stroke="#000000" stroke-linecap="round" stroke-linejoin="round" x1="14.5194" y1="11.489" x2="20.4814" y2="11.489"/>
	<path fill="none" stroke="#000000" stroke-linecap="round" stroke-linejoin="round" stroke-miterlimit="10" d="M12.2203,12.709
		c-1.43-0.5526-3.0175-1.2388-3.1509-1.6664V10.594C9.366,10.2906,9.6,9.8673,9.7385,9.3718c0.3302-0.2319,0.417-0.7132,0.14-1.0539
		V7.3137c0-1.0366-0.5772-1.7462-1.8969-1.7462c-1.2856,0-1.8976,0.7096-1.8976,1.7462v1.0045
		c-0.276,0.3397-0.1902,0.8209,0.14,1.0534c0.1385,0.4957,0.3726,0.9189,0.6694,1.2224v0.4486
		c-0.133,0.4271-1.7209,1.1135-3.1509,1.6664C3.6206,12.7563,3.54,12.8749,3.54,13.0074v1.1219
		c0,0.1762,0.1409,0.3193,0.3146,0.3193h8.2536c0.1737,0,0.3146-0.1432,0.3146-0.3193v-1.1219
		C12.4228,12.8749,12.3422,12.756,12.2203,12.709z"/>
	
		<line fill="none" stroke="#000000" stroke-linecap="round" stroke-linejoin="round" x1="14.5194" y1="11.489" x2="20.4814" y2="11.489"/>
	
		<line fill="none" stroke="#000000" stroke-linecap="round" stroke-linejoin="round" x1="14.5194" y1="8.4887" x2="20.4814" y2="8.4887"/>
	
		<line fill="none" stroke="#000000" stroke-linecap="round" stroke-linejoin="round" x1="14.5194" y1="8.4887" x2="20.4814" y2="8.4887"/>
	<path fill="none" stroke="#000000" stroke-linecap="round" stroke-linejoin="round" d="M23.4869,21.5057V1.5318H0.5081v19.9739
		h4.9735v-1.4353c0-0.8348,0.6732-1.5114,1.5033-1.5114s1.5032,0.6767,1.5032,1.5114v1.4353h6.9945v-1.4353
		c0-0.8348,0.6732-1.5114,1.5033-1.5114c0.8301,0,1.5032,0.6767,1.5032,1.5114v1.4353H23.4869z"/>
</g>
<rect x="0.0005" y="0.0004" fill="none" width="24" height="24"/>
</svg>
