<?xml version="1.0" encoding="utf-8"?>
<!-- Generator: Adobe Illustrator 18.1.0, SVG Export Plug-In . SVG Version: 6.00 Build 0)  -->
<svg version="1.1" id="Layer_1" xmlns="http://www.w3.org/2000/svg" xmlns:xlink="http://www.w3.org/1999/xlink" x="0px" y="0px"
	 width="24px" height="24px" viewBox="0 0 24 24" enable-background="new 0 0 24 24" xml:space="preserve">
<g>
	
		<line fill="none" stroke="#000000" stroke-linecap="round" stroke-linejoin="round" stroke-miterlimit="10" x1="10.7114" y1="15.6706" x2="7.7704" y2="20.9908"/>
	
		<line fill="none" stroke="#000000" stroke-linecap="round" stroke-linejoin="round" stroke-miterlimit="10" x1="13.5279" y1="15.6706" x2="17.1206" y2="23.3463"/>
	
		<line fill="none" stroke="#000000" stroke-linecap="round" stroke-linejoin="round" stroke-miterlimit="10" x1="8.2125" y1="21.5197" x2="16.2656" y2="21.5197"/>
	<path fill="none" stroke="#000000" stroke-linecap="round" stroke-linejoin="round" stroke-miterlimit="10" d="M18.4528,9.5197
		c0,3-2.8353,6.3329-6.3329,6.3329S5.787,12.5197,5.787,9.5197H18.4528z"/>
	<path fill="none" stroke="#000000" stroke-linecap="round" stroke-linejoin="round" stroke-miterlimit="10" d="M9.101,12.9472
		c-0.5194-0.5292-0.8986-1.1686-1.0867-1.8733"/>
	
		<circle fill="none" stroke="#000000" stroke-linecap="round" stroke-linejoin="round" stroke-miterlimit="10" cx="6.9894" cy="22.0382" r="1.3081"/>
	
		<line fill="none" stroke="#000000" stroke-linecap="round" stroke-linejoin="round" stroke-miterlimit="10" x1="5.787" y1="9.5197" x2="5" y2="9.5197"/>
	
		<line fill="none" stroke="#000000" stroke-linecap="round" stroke-linejoin="round" stroke-miterlimit="10" x1="20.4395" y1="11.5197" x2="18.0597" y2="11.5197"/>
	<path fill="none" stroke="#000000" stroke-linecap="round" stroke-linejoin="round" stroke-miterlimit="10" d="M11.3794,0.893
		c0,0,1.4589,0.434-0.4105,3.2992c-1.8692,2.8649,0,3.0386,0,3.0386"/>
	<path fill="none" stroke="#000000" stroke-linecap="round" stroke-linejoin="round" stroke-miterlimit="10" d="M13.7915,3.6194
		c0,0,0.8312,0.2475-0.2336,1.88c-1.0654,1.6325,0,1.7315,0,1.7315"/>
</g>
<rect x="0" y="0.0197" fill="none" width="24" height="24"/>
</svg>
