<?xml version="1.0" encoding="utf-8"?>
<!-- Generator: Adobe Illustrator 18.1.0, SVG Export Plug-In . SVG Version: 6.00 Build 0)  -->
<svg version="1.1" id="Layer_1" xmlns="http://www.w3.org/2000/svg" xmlns:xlink="http://www.w3.org/1999/xlink" x="0px" y="0px"
	 width="24px" height="24px" viewBox="0 0 24 24" enable-background="new 0 0 24 24" xml:space="preserve">
<g>
	<polyline fill="none" stroke="#000000" stroke-linecap="round" stroke-linejoin="round" stroke-miterlimit="10" points="
		19.765,2.7661 22.457,5.4581 19.765,8.1501 	"/>
	<path fill="none" stroke="#000000" stroke-linecap="round" stroke-linejoin="round" stroke-miterlimit="10" d="M22.457,5.4581
		h-5.0126c-3.1263,0-5.6606,2.9052-5.6606,6.0315l0,0l0,0.3506l0,0c0,3.1263-2.5343,5.6606-5.6606,5.6606H1.5252"/>
	<polyline fill="none" stroke="#000000" stroke-linecap="round" stroke-linejoin="round" stroke-miterlimit="10" points="
		19.765,20.1928 22.457,17.5008 19.765,14.8088 	"/>
	<path fill="none" stroke="#000000" stroke-linecap="round" stroke-linejoin="round" stroke-miterlimit="10" d="M22.457,17.5008
		h-5.0126c-1.4282,0-2.7291-0.533-3.725-1.4056"/>
	<path fill="none" stroke="#000000" stroke-linecap="round" stroke-linejoin="round" stroke-miterlimit="10" d="M9.8482,6.8637
		c-0.9959-0.8726-2.2969-1.4056-3.725-1.4056H1.5252"/>
</g>
<rect x="0" y="0.001" fill="none" width="24" height="24"/>
</svg>
