<?xml version="1.0" encoding="utf-8"?>
<!-- Generator: Adobe Illustrator 18.1.0, SVG Export Plug-In . SVG Version: 6.00 Build 0)  -->
<svg version="1.1" id="Layer_1" xmlns="http://www.w3.org/2000/svg" xmlns:xlink="http://www.w3.org/1999/xlink" x="0px" y="0px"
	 width="24px" height="24px" viewBox="0 0 24 24" enable-background="new 0 0 24 24" xml:space="preserve">
<g>
	<polyline fill="none" stroke="#000000" stroke-linecap="round" stroke-linejoin="round" stroke-miterlimit="10" points="
		21.491,16.3889 23.4929,16.7612 23.4929,1.617 17.3808,0.5972 11.4816,3.2927 6.5072,1.0202 0.5828,3.2499 0.5828,18.3942 
		6.5072,16.1642 11.2529,18.2877 	"/>
	
		<line fill="none" stroke="#000000" stroke-linecap="round" stroke-linejoin="round" stroke-miterlimit="10" x1="6.5072" y1="3.9323" x2="6.5072" y2="13.543"/>
	
		<line fill="none" stroke="#000000" stroke-linecap="round" stroke-linejoin="round" stroke-miterlimit="10" x1="11.4816" y1="5.7927" x2="11.4816" y2="9.4587"/>
	
		<line fill="none" stroke="#000000" stroke-linecap="round" stroke-linejoin="round" stroke-miterlimit="10" x1="17.4872" y1="3.2499" x2="17.4872" y2="8.1072"/>
	<path fill="none" stroke="#000000" stroke-linecap="round" stroke-linejoin="round" stroke-miterlimit="10" d="M20.1787,14.7357
		c0,2.302-4.1915,8.6361-4.1915,8.6361s-4.1915-6.3341-4.1915-8.6361s1.8766-4.1682,4.1915-4.1682S20.1787,12.4336,20.1787,14.7357z
		"/>
	
		<ellipse fill="none" stroke="#000000" stroke-linecap="round" stroke-linejoin="round" stroke-miterlimit="10" cx="15.9871" cy="14.4336" rx="1.0367" ry="1.0308"/>
</g>
<rect x="-0.0136" y="0.0001" fill="none" width="24" height="24"/>
</svg>
