<?xml version="1.0" encoding="utf-8"?>
<!-- Generator: Adobe Illustrator 18.1.0, SVG Export Plug-In . SVG Version: 6.00 Build 0)  -->
<svg version="1.1" id="Layer_1" xmlns="http://www.w3.org/2000/svg" xmlns:xlink="http://www.w3.org/1999/xlink" x="0px" y="0px"
	 width="24px" height="24px" viewBox="0 0 24 24" enable-background="new 0 0 24 24" xml:space="preserve">
<g>
	
		<ellipse fill="none" stroke="#000000" stroke-linecap="round" stroke-linejoin="round" stroke-miterlimit="10" cx="18.3432" cy="5.5303" rx="2.8007" ry="2.829"/>
	<path fill="none" stroke="#000000" stroke-linecap="round" stroke-linejoin="round" stroke-miterlimit="10" d="M5.6056,0.501
		h12.7376c2.7414,0,4.9638,2.2309,4.9638,5c0,2.7691-2.2224,5-4.9638,5H5.6056c-2.7414,0-4.9638-2.2309-4.9638-5
		C0.6419,2.7319,2.8642,0.501,5.6056,0.501z"/>
	
		<ellipse fill="none" stroke="#000000" stroke-linecap="round" stroke-linejoin="round" stroke-miterlimit="10" cx="5.6056" cy="18.4726" rx="2.8007" ry="2.829"/>
	<path fill="none" stroke="#000000" stroke-linecap="round" stroke-linejoin="round" stroke-miterlimit="10" d="M18.3432,23.5018
		H5.6056c-2.7414,0-4.9638-2.2309-4.9638-5c0-2.7691,2.2224-5,4.9638-5h12.7376c2.7414,0,4.9638,2.2309,4.9638,5
		C23.307,21.2709,21.0846,23.5018,18.3432,23.5018z"/>
	<polyline fill="none" stroke="#000000" stroke-linecap="round" stroke-linejoin="round" points="18.6051,19.8891 18.6051,17.1146 
		20.4008,17.1146 	"/>
	
		<ellipse fill="none" stroke="#000000" stroke-linecap="round" stroke-linejoin="round" cx="11.9814" cy="18.5018" rx="1.2973" ry="1.3872"/>
	
		<ellipse fill="none" stroke="#000000" stroke-linecap="round" stroke-linejoin="round" cx="5.7697" cy="5.5302" rx="1.2973" ry="1.3872"/>
	
		<line fill="none" stroke="#000000" stroke-linecap="round" stroke-linejoin="round" x1="18.6051" y1="18.5018" x2="20.1473" y2="18.5018"/>
	<polyline fill="none" stroke="#000000" stroke-linecap="round" stroke-linejoin="round" points="15.1047,19.8891 15.1047,17.1146 
		16.9003,17.1146 	"/>
	
		<line fill="none" stroke="#000000" stroke-linecap="round" stroke-linejoin="round" x1="15.1047" y1="18.5018" x2="16.6468" y2="18.5018"/>
	<polyline fill="none" stroke="#000000" stroke-linecap="round" stroke-linejoin="round" points="8.7681,6.9175 8.7681,4.1431 
		10.9079,6.9128 10.9079,4.1947 	"/>
</g>
<rect x="-0.006" y="0.001" fill="none" width="24" height="24"/>
</svg>
