<?xml version="1.0" encoding="utf-8"?>
<!-- Generator: Adobe Illustrator 18.1.0, SVG Export Plug-In . SVG Version: 6.00 Build 0)  -->
<svg version="1.1" id="Layer_1" xmlns="http://www.w3.org/2000/svg" xmlns:xlink="http://www.w3.org/1999/xlink" x="0px" y="0px"
	 width="24px" height="24px" viewBox="0 0 24 24" enable-background="new 0 0 24 24" xml:space="preserve">
<g>
	<path fill="none" stroke="#000000" stroke-linecap="round" stroke-linejoin="round" d="M20.6925,14.4889L20.1968,3.6328
		c-0.2829-1.566-1.3377-3.1133-2.9875-3.1133H6.7617c-1.6503,0-2.705,1.5888-2.9881,3.1133l-0.521,10.8561"/>
	<circle fill="none" stroke="#000000" stroke-linecap="round" stroke-linejoin="round" cx="6.744" cy="17.3251" r="1.3188"/>
	<circle fill="none" stroke="#000000" stroke-linecap="round" stroke-linejoin="round" cx="17.2267" cy="17.3251" r="1.3187"/>
	
		<line fill="none" stroke="#000000" stroke-linecap="round" stroke-linejoin="round" x1="3.8119" y1="3.5151" x2="20.1052" y2="3.5151"/>
	<path fill="none" stroke="#000000" stroke-linecap="round" stroke-linejoin="round" d="M20.6925,14.4889h-17.44l0.2547,7.7865
		c0,0.6767,0.5489,1.2255,1.2257,1.2255h1.5142c0.6769,0,1.2255-0.5489,1.2255-1.2255v-1.8125h9v1.8125
		c0,0.6767,0.5487,1.2255,1.2256,1.2255h1.5393c0.6773,0,1.2259-0.5489,1.2259-1.2255L20.6925,14.4889z"/>
	
		<line fill="none" stroke="#000000" stroke-linecap="round" stroke-linejoin="round" x1="9.8263" y1="1.9748" x2="14.0909" y2="1.9748"/>
	
		<line fill="none" stroke="#000000" stroke-linecap="round" stroke-linejoin="round" x1="1.5176" y1="5.5182" x2="1.5176" y2="9.4306"/>
	
		<line fill="none" stroke="#000000" stroke-linecap="round" stroke-linejoin="round" x1="22.4529" y1="5.5182" x2="22.4529" y2="9.4306"/>
	
		<line fill="none" stroke="#000000" stroke-linecap="round" stroke-linejoin="round" x1="3.4479" y1="20.4628" x2="20.5168" y2="20.4628"/>
	
		<line fill="none" stroke="#000000" stroke-linecap="round" stroke-linejoin="round" x1="10.0959" y1="14.4972" x2="18.9277" y2="3.5296"/>
	
		<line fill="none" stroke="#000000" stroke-linecap="round" stroke-linejoin="round" x1="3.3395" y1="12.6756" x2="10.9269" y2="3.5296"/>
</g>
<rect x="-0.0137" y="0.0002" fill="none" width="24" height="24"/>
</svg>
