<?xml version="1.0" encoding="utf-8"?>
<!-- Generator: Adobe Illustrator 18.1.0, SVG Export Plug-In . SVG Version: 6.00 Build 0)  -->
<svg version="1.1" id="Layer_1" xmlns="http://www.w3.org/2000/svg" xmlns:xlink="http://www.w3.org/1999/xlink" x="0px" y="0px"
	 width="24px" height="24px" viewBox="0 0 24 24" enable-background="new 0 0 24 24" xml:space="preserve">
<g>
	<path fill="none" stroke="#000000" stroke-linecap="round" stroke-linejoin="round" stroke-miterlimit="10" d="M11.986,0.7554
		c-6.2113,0-11.2641,5.0527-11.2641,11.264S5.7747,23.2843,11.986,23.2843S23.25,18.2307,23.25,12.0194
		S18.1972,0.7554,11.986,0.7554z"/>
	
		<line fill="none" stroke="#000000" stroke-linecap="round" stroke-linejoin="round" stroke-miterlimit="10" x1="4.0207" y1="19.9844" x2="19.9505" y2="4.0547"/>
	
		<line fill="none" stroke="#000000" stroke-linecap="round" stroke-linejoin="round" x1="12.2784" y1="5.066" x2="12.2784" y2="19.3739"/>
	
		<line fill="none" stroke="#000000" stroke-linecap="round" stroke-linejoin="round" x1="13.7866" y1="6.0108" x2="12.2784" y2="6.8592"/>
	
		<line fill="none" stroke="#000000" stroke-linecap="round" stroke-linejoin="round" x1="13.7866" y1="7.9856" x2="12.2784" y2="8.834"/>
	
		<line fill="none" stroke="#000000" stroke-linecap="round" stroke-linejoin="round" x1="13.7866" y1="9.9722" x2="12.2784" y2="10.8207"/>
	
		<line fill="none" stroke="#000000" stroke-linecap="round" stroke-linejoin="round" x1="13.7866" y1="11.9443" x2="12.2784" y2="12.7927"/>
	
		<line fill="none" stroke="#000000" stroke-linecap="round" stroke-linejoin="round" x1="10.7702" y1="7.0738" x2="12.2784" y2="7.9222"/>
	
		<line fill="none" stroke="#000000" stroke-linecap="round" stroke-linejoin="round" x1="10.7702" y1="9.0486" x2="12.2784" y2="9.897"/>
	
		<line fill="none" stroke="#000000" stroke-linecap="round" stroke-linejoin="round" x1="10.7702" y1="11.0352" x2="12.2784" y2="11.8837"/>
	
		<line fill="none" stroke="#000000" stroke-linecap="round" stroke-linejoin="round" x1="10.4942" y1="12.7927" x2="12.2784" y2="13.8557"/>
	<path fill="none" stroke="#000000" stroke-linecap="round" stroke-linejoin="round" d="M5.6009,5.4516
		c0,0,2.5071,3.8762,2.0238,13.9223"/>
	
		<line fill="none" stroke="#000000" stroke-linecap="round" stroke-linejoin="round" x1="7.6865" y1="6.1458" x2="6.4649" y2="7.498"/>
	
		<line fill="none" stroke="#000000" stroke-linecap="round" stroke-linejoin="round" x1="8.1986" y1="7.9856" x2="6.9234" y2="9.1827"/>
	
		<line fill="none" stroke="#000000" stroke-linecap="round" stroke-linejoin="round" x1="8.6333" y1="9.897" x2="7.2749" y2="11.0352"/>
	
		<line fill="none" stroke="#000000" stroke-linecap="round" stroke-linejoin="round" x1="8.984" y1="11.8837" x2="7.6089" y2="12.8935"/>
	
		<line fill="none" stroke="#000000" stroke-linecap="round" stroke-linejoin="round" x1="4.7551" y1="7.6305" x2="6.6437" y2="8.2084"/>
	
		<line fill="none" stroke="#000000" stroke-linecap="round" stroke-linejoin="round" x1="5.2082" y1="9.4728" x2="7.128" y2="10.1127"/>
	
		<line fill="none" stroke="#000000" stroke-linecap="round" stroke-linejoin="round" x1="5.6009" y1="11.2556" x2="7.4167" y2="12.0679"/>
	
		<line fill="none" stroke="#000000" stroke-linecap="round" stroke-linejoin="round" x1="5.822" y1="13.0874" x2="7.5936" y2="13.9743"/>
	<path fill="none" stroke="#000000" stroke-linecap="round" stroke-linejoin="round" d="M18.9465,5.4516
		c0,0-2.5071,3.8762-2.0238,13.9223"/>
	
		<line fill="none" stroke="#000000" stroke-linecap="round" stroke-linejoin="round" x1="16.8609" y1="6.1458" x2="18.0825" y2="7.498"/>
	
		<line fill="none" stroke="#000000" stroke-linecap="round" stroke-linejoin="round" x1="16.3488" y1="7.9856" x2="17.6549" y2="9.0486"/>
	
		<line fill="none" stroke="#000000" stroke-linecap="round" stroke-linejoin="round" x1="15.9141" y1="9.897" x2="17.2725" y2="11.0352"/>
	
		<line fill="none" stroke="#000000" stroke-linecap="round" stroke-linejoin="round" x1="15.5634" y1="11.8837" x2="16.9385" y2="12.8935"/>
	
		<line fill="none" stroke="#000000" stroke-linecap="round" stroke-linejoin="round" x1="19.7923" y1="7.6305" x2="17.9037" y2="8.2385"/>
	
		<line fill="none" stroke="#000000" stroke-linecap="round" stroke-linejoin="round" x1="19.3392" y1="9.4728" x2="17.4194" y2="10.1127"/>
	
		<line fill="none" stroke="#000000" stroke-linecap="round" stroke-linejoin="round" x1="18.9465" y1="11.2556" x2="17.1307" y2="12.0679"/>
	
		<line fill="none" stroke="#000000" stroke-linecap="round" stroke-linejoin="round" x1="18.7254" y1="13.0874" x2="17.0176" y2="14.0074"/>
</g>
<rect x="-0.0142" y="0.0197" fill="none" width="24" height="24"/>
</svg>
