<?xml version="1.0" encoding="utf-8"?>
<!-- Generator: Adobe Illustrator 18.1.0, SVG Export Plug-In . SVG Version: 6.00 Build 0)  -->
<svg version="1.1" id="Layer_1" xmlns="http://www.w3.org/2000/svg" xmlns:xlink="http://www.w3.org/1999/xlink" x="0px" y="0px"
	 width="24px" height="24px" viewBox="0 0 24 24" enable-background="new 0 0 24 24" xml:space="preserve">
<g>
	<path fill="none" stroke="#000000" stroke-linecap="round" stroke-linejoin="round" stroke-miterlimit="10" d="M5.4924,17.4899
		c0.0932-0.0998,2.7906-2.4803,3.5986-3.7885c0.7997-1.2943,1.0397-3.1592,0.7141-5.5349C9.5302,6.161,8.8994,2.5197,8.8994,2.5197
		h-6.814c0,0-0.6308,3.6408-0.9057,5.6468c-0.3255,2.3757-0.085,4.238,0.7141,5.5331C2.7015,15.0079,5.399,17.3901,5.4924,17.4899"
		/>
	
		<line fill="none" stroke="#000000" stroke-linecap="round" stroke-linejoin="round" stroke-miterlimit="10" x1="5.5" y1="17.4899" x2="5.5" y2="23.5197"/>
	
		<line fill="none" stroke="#000000" stroke-linecap="round" stroke-linejoin="round" stroke-miterlimit="10" x1="1.4832" y1="23.5197" x2="9.5256" y2="23.5197"/>
	
		<line fill="none" stroke="#000000" stroke-linecap="round" stroke-linejoin="round" stroke-miterlimit="10" x1="1.0391" y1="10.5197" x2="9.9371" y2="10.5197"/>
	<path fill="none" stroke="#000000" stroke-linecap="round" stroke-linejoin="round" stroke-miterlimit="10" d="M20.5003,10.8853
		c0,1.091,0.6074,1.5301,1.3574,1.5301c0.7498,0,1.3575,0.0316,1.3575-1.0599l-0.6773-7.8607
		c-0.0834-1.1762-0.4421-1.7141-1.1919-1.7141C20.2589,1.7808,20.5003,3.0041,20.5003,10.8853z"/>
	
		<line fill="none" stroke="#000000" stroke-linecap="round" stroke-linejoin="round" stroke-miterlimit="10" x1="15.5" y1="10.5825" x2="15.5" y2="23.5197"/>
	
		<line fill="none" stroke="#000000" stroke-linecap="round" stroke-linejoin="round" stroke-miterlimit="10" x1="15.5" y1="3.4858" x2="15.5" y2="7.4858"/>
	
		<line fill="none" stroke="#000000" stroke-linecap="round" stroke-linejoin="round" stroke-miterlimit="10" x1="20.5003" y1="3.4858" x2="20.5003" y2="23.5747"/>
	
		<line fill="none" stroke="#000000" stroke-linecap="round" stroke-linejoin="round" stroke-miterlimit="10" x1="17.5" y1="3.4858" x2="17.5" y2="7.4858"/>
	
		<line fill="none" stroke="#000000" stroke-linecap="round" stroke-linejoin="round" stroke-miterlimit="10" x1="13.5" y1="3.4858" x2="13.5" y2="7.4858"/>
	<path fill="none" stroke="#000000" stroke-linecap="round" stroke-linejoin="round" stroke-miterlimit="10" d="M15.4693,10.5825
		h0.0342c-1.1254,0-2.0035-0.9123-2.0035-2.0376V7.5197h4v1.0251C17.5,9.6702,16.5947,10.5825,15.4693,10.5825z"/>
</g>
<rect x="0" y="0.0197" fill="none" width="24" height="24"/>
</svg>
