<?xml version="1.0" encoding="utf-8"?>
<!-- Generator: Adobe Illustrator 18.1.0, SVG Export Plug-In . SVG Version: 6.00 Build 0)  -->
<svg version="1.1" id="Layer_1" xmlns="http://www.w3.org/2000/svg" xmlns:xlink="http://www.w3.org/1999/xlink" x="0px" y="0px"
	 width="24px" height="24px" viewBox="0 0 24 24" enable-background="new 0 0 24 24" xml:space="preserve">
<g>
	<path fill="none" stroke="#000000" stroke-linecap="round" stroke-linejoin="round" stroke-miterlimit="10" d="M12.0378,23.2907
		c0,0,9.2173,0.2968,9.3657-4.5517c0.1484-4.8485-6.3822-14.2525-6.3822-14.2525C14.9471,3.5465,17.3219,0.5,17.3219,0.5H6.7538
		c0,0,2.3748,3.0465,2.3006,3.9865c0,0-6.5306,9.3897-6.3822,14.2382C2.8206,23.5732,12.0378,23.2907,12.0378,23.2907z"/>
	<path fill="none" stroke="#000000" stroke-linecap="round" stroke-linejoin="round" stroke-miterlimit="10" d="M3.8038,6.4941
		c0,0,1.0204,0.9895,2.3562-0.3958s1.039-1.6149,2.8943-1.5832h5.967c0,0,2.1468-0.4395,2.8889,0.8469
		c0.7421,1.2863,0.47,2.2758,1.509,2.8448"/>
	
		<line fill="none" stroke="#000000" stroke-linecap="round" stroke-linejoin="round" stroke-miterlimit="10" x1="10.2839" y1="3.0928" x2="13.6627" y2="3.0928"/>
	
		<line fill="none" stroke="#000000" stroke-linecap="round" stroke-linejoin="round" stroke-miterlimit="10" x1="10.2839" y1="5.9947" x2="13.6627" y2="5.9947"/>
	<path fill="none" stroke="#000000" stroke-linecap="round" stroke-linejoin="round" stroke-miterlimit="10" d="M10.2152,17.0966
		c0.615,0.5353,1.5633,0.9373,2.2478,0.9373c1.0952,0,1.9831-0.7763,1.9831-1.7338c0-0.9576-0.948-1.4313-1.9831-1.7338
		c-1.0728-0.3362-1.9831-0.7763-1.9831-1.7338s0.8879-1.7338,1.9831-1.7338c0.7375,0,1.3809,0.3519,1.7226,0.8742"/>
	
		<line fill="none" stroke="#000000" stroke-linecap="round" stroke-linejoin="round" stroke-miterlimit="10" x1="12.4629" y1="9.8092" x2="12.4629" y2="19.3232"/>
</g>
<rect x="-0.0136" y="0" fill="none" width="24" height="24"/>
</svg>
