<?xml version="1.0" encoding="utf-8"?>
<!-- Generator: Adobe Illustrator 18.1.0, SVG Export Plug-In . SVG Version: 6.00 Build 0)  -->
<svg version="1.1" id="Layer_1" xmlns="http://www.w3.org/2000/svg" xmlns:xlink="http://www.w3.org/1999/xlink" x="0px" y="0px"
	 width="24px" height="24px" viewBox="0 0 24 24" enable-background="new 0 0 24 24" xml:space="preserve">
<g>
	<path fill="none" stroke="#000000" stroke-linecap="round" stroke-linejoin="round" stroke-miterlimit="10" d="M22.1627,6.2597
		c-2.7296,0.6629-6.2952,1.0652-10.2001,1.0652c-3.8304,0-7.3346-0.387-10.0434-1.0273l-1.202,9.2561
		c0,0,8.2283,1.0917,8.8019,4.1214c0.2948,0.9825,4.7727,0.9392,5.0486,0c0.5735-3.0297,8.8019-4.1214,8.8019-4.1214L22.1627,6.2597
		z"/>
	<path fill="none" stroke="#000000" stroke-linecap="round" stroke-linejoin="round" stroke-miterlimit="10" d="M22.1627,4.3115
		c-2.7296,0.6629-6.2952,1.0652-10.2001,1.0652c-3.8304,0-7.3346-0.387-10.0434-1.0273"/>
	<path fill="none" stroke="#000000" stroke-linecap="round" stroke-linejoin="round" stroke-miterlimit="10" d="M8.9043,9.526
		c0,0-1.5403,5.095-1.1099,8.1619"/>
	<path fill="none" stroke="#000000" stroke-linecap="round" stroke-linejoin="round" stroke-miterlimit="10" d="M15.1868,9.526
		c0,0,1.5403,5.095,1.1099,8.1619"/>
</g>
<rect x="0.0142" y="0.0344" fill="none" width="24" height="24"/>
</svg>
