<?xml version="1.0" encoding="utf-8"?>
<!-- Generator: Adobe Illustrator 18.1.0, SVG Export Plug-In . SVG Version: 6.00 Build 0)  -->
<svg version="1.1" id="Layer_1" xmlns="http://www.w3.org/2000/svg" xmlns:xlink="http://www.w3.org/1999/xlink" x="0px" y="0px"
	 width="24px" height="24px" viewBox="0 0 24 24" enable-background="new 0 0 24 24" xml:space="preserve">
<g>
	<path fill="none" stroke="#000000" stroke-linecap="round" stroke-linejoin="round" stroke-miterlimit="10" d="M10.4456,8.8886
		c1.0586-3.3585,1.2356-8.2575-2.3502-8.1901c0,0-5.8788,0.1488-6.0463,6.4928C2.0274,8.014,2.0335,8.6378,2.0611,9.135"/>
	<path fill="none" stroke="#000000" stroke-linecap="round" stroke-linejoin="round" stroke-miterlimit="10" d="M3.293,16.1776
		c0.0638,0.8041,0.1214,1.7479,0.1699,2.8643c0,0,0.2232,2.1885,2.7534,2.043c2.5301-0.1454,3.572-0.5547,3.6092-2.3779
		c0.0172-0.8439-0.2127-2.0945-0.3318-3.5191"/>
	<path fill="none" stroke="#000000" stroke-linecap="round" stroke-linejoin="round" stroke-miterlimit="10" d="M3.9964,14.9638
		c0,0-2.3366-2.6066-1.3859-4.622s3.9638-4.0401,3.9638-4.0401l2.8119,3.2724c0,0,2.5794,2.4495-0.77,4.9663"/>
	
		<line fill="none" stroke="#000000" stroke-linecap="round" stroke-linejoin="round" stroke-miterlimit="10" x1="6.5743" y1="6.3017" x2="7.6246" y2="4.1397"/>
	<path fill="none" stroke="#000000" stroke-linecap="round" stroke-linejoin="round" stroke-miterlimit="10" d="M13.5846,11.2234
		c-1.0851-3.3603-1.2996-8.3527,2.32-8.2847c0,0,5.8788,0.1488,6.0463,6.4928c0.0217,0.8228,0.0156,1.4466-0.012,1.9438"/>
	<path fill="none" stroke="#000000" stroke-linecap="round" stroke-linejoin="round" stroke-miterlimit="10" d="M20.7069,18.4178
		c-0.0638,0.8041-0.1214,1.7479-0.1699,2.8643c0,0-0.2232,2.1885-2.7534,2.043c-2.5301-0.1454-3.572-0.5547-3.6092-2.3779
		c-0.0172-0.8439,0.2127-2.0945,0.3318-3.5191"/>
	<path fill="none" stroke="#000000" stroke-linecap="round" stroke-linejoin="round" stroke-miterlimit="10" d="M20.0035,17.2041
		c0,0,2.3366-2.6066,1.3859-4.622c-0.9506-2.0154-3.9638-4.0401-3.9638-4.0401l-2.8119,3.2724c0,0-2.5794,2.4495,0.77,4.9663"/>
	
		<line fill="none" stroke="#000000" stroke-linecap="round" stroke-linejoin="round" stroke-miterlimit="10" x1="17.4257" y1="8.5419" x2="16.4335" y2="6.3017"/>
</g>
<rect x="0" y="0.0354" fill="none" width="24" height="24"/>
</svg>
