<?xml version="1.0" encoding="utf-8"?>
<!-- Generator: Adobe Illustrator 18.1.0, SVG Export Plug-In . SVG Version: 6.00 Build 0)  -->
<svg version="1.1" id="Layer_1" xmlns="http://www.w3.org/2000/svg" xmlns:xlink="http://www.w3.org/1999/xlink" x="0px" y="0px"
	 width="24px" height="24px" viewBox="0 0 24 24" enable-background="new 0 0 24 24" xml:space="preserve">
<g>
	
		<line fill="none" stroke="#000000" stroke-linecap="round" stroke-linejoin="round" x1="22.4505" y1="19.5101" x2="1.5502" y2="19.5101"/>
	
		<line fill="none" stroke="#000000" stroke-linecap="round" stroke-linejoin="round" x1="22.4505" y1="1.509" x2="1.5502" y2="1.509"/>
	
		<line fill="none" stroke="#000000" stroke-linecap="round" stroke-linejoin="round" x1="22.4505" y1="22.5101" x2="1.5502" y2="22.5101"/>
	<path fill="none" stroke="#000000" stroke-linecap="round" stroke-linejoin="round" stroke-miterlimit="10" d="M15.8781,4.5009
		H2.1342c-0.2935,0-0.6283,0.2847-0.6283,0.5694v10.8616c0,0.284,0.3348,0.5691,0.6283,0.5691h13.7439
		c0.2933,0,0.6278-0.2851,0.6278-0.5691V5.0703C16.5059,4.7857,16.1714,4.5009,15.8781,4.5009z"/>
	
		<circle fill="none" stroke="#000000" stroke-linecap="round" stroke-linejoin="round" stroke-miterlimit="10" cx="5.1553" cy="8.3279" r="1.4046"/>
	<polyline fill="none" stroke="#000000" stroke-linecap="round" stroke-linejoin="round" stroke-miterlimit="10" points="
		5.2981,16.501 9.026,10.2127 10.843,12.6647 13.1799,8.9896 16.5059,13.6849 	"/>
</g>
<rect x="0" y="0.0011" fill="none" width="24" height="24"/>
</svg>
