<?xml version="1.0" encoding="utf-8"?>
<!-- Generator: Adobe Illustrator 18.1.0, SVG Export Plug-In . SVG Version: 6.00 Build 0)  -->
<svg version="1.1" id="Layer_1" xmlns="http://www.w3.org/2000/svg" xmlns:xlink="http://www.w3.org/1999/xlink" x="0px" y="0px"
	 width="24px" height="24px" viewBox="0 0 24 24" enable-background="new 0 0 24 24" xml:space="preserve">
<g>
	<path fill="none" stroke="#000000" stroke-linecap="round" stroke-linejoin="round" d="M9.3951,21.733
		c-1.9554,1.9554-5.1258,1.9554-7.0812,0l0,0c-1.9554-1.9554-1.9554-5.1258,0-7.0812L14.6097,2.3561
		c1.9554-1.9554,5.1258-1.9554,7.0812,0l0,0c1.9554,1.9554,1.9554,5.1258,0,7.0812L9.3951,21.733z"/>
	
		<line fill="none" stroke="#000000" stroke-linecap="round" stroke-linejoin="round" x1="12.0024" y1="19.1257" x2="4.9213" y2="12.0445"/>
	
		<line fill="none" stroke="#000000" stroke-linecap="round" stroke-linejoin="round" x1="12.0024" y1="4.9634" x2="19.0836" y2="12.0445"/>
	
		<line fill="none" stroke="#000000" stroke-linecap="round" stroke-linejoin="round" x1="8.9729" y1="11.0349" x2="8.9729" y2="11.0349"/>
	
		<line fill="none" stroke="#000000" stroke-linecap="round" stroke-linejoin="round" x1="10.9926" y1="11.0348" x2="10.9926" y2="11.0348"/>
	
		<line fill="none" stroke="#000000" stroke-linecap="round" stroke-linejoin="round" x1="10.9926" y1="9.0154" x2="10.9926" y2="9.0154"/>
	
		<line fill="none" stroke="#000000" stroke-linecap="round" stroke-linejoin="round" x1="13.0223" y1="11.0348" x2="13.0223" y2="11.0348"/>
	
		<line fill="none" stroke="#000000" stroke-linecap="round" stroke-linejoin="round" x1="13.0223" y1="9.0154" x2="13.0223" y2="9.0154"/>
	
		<line fill="none" stroke="#000000" stroke-linecap="round" stroke-linejoin="round" x1="15.0515" y1="11.0348" x2="15.0515" y2="11.0348"/>
	
		<line fill="none" stroke="#000000" stroke-linecap="round" stroke-linejoin="round" x1="15.0515" y1="13.0647" x2="15.0515" y2="13.0647"/>
	
		<line fill="none" stroke="#000000" stroke-linecap="round" stroke-linejoin="round" x1="13.0223" y1="13.0647" x2="13.0223" y2="13.0647"/>
	
		<line fill="none" stroke="#000000" stroke-linecap="round" stroke-linejoin="round" x1="13.0223" y1="15.0943" x2="13.0223" y2="15.0943"/>
	
		<line fill="none" stroke="#000000" stroke-linecap="round" stroke-linejoin="round" x1="10.9926" y1="13.0647" x2="10.9926" y2="13.0647"/>
	
		<line fill="none" stroke="#000000" stroke-linecap="round" stroke-linejoin="round" x1="10.9926" y1="15.0943" x2="10.9926" y2="15.0943"/>
	
		<line fill="none" stroke="#000000" stroke-linecap="round" stroke-linejoin="round" x1="8.9626" y1="13.0647" x2="8.9626" y2="13.0647"/>
</g>
<rect x="0.0142" y="0.0346" fill="none" width="24" height="24"/>
</svg>
