<?xml version="1.0" encoding="utf-8"?>
<!-- Generator: Adobe Illustrator 18.1.0, SVG Export Plug-In . SVG Version: 6.00 Build 0)  -->
<svg version="1.1" id="Layer_1" xmlns="http://www.w3.org/2000/svg" xmlns:xlink="http://www.w3.org/1999/xlink" x="0px" y="0px"
	 width="24px" height="24px" viewBox="0 0 24 24" enable-background="new 0 0 24 24" xml:space="preserve">
<g>
	<polyline fill="none" stroke="#000000" stroke-linecap="round" stroke-linejoin="round" stroke-miterlimit="10" points="
		13.5378,17.3897 13.5378,18.4877 2.5125,18.5031 2.5053,0.4734 13.5777,0.4581 13.5562,11.7197 	"/>
	<path fill="none" stroke="#000000" stroke-linecap="round" stroke-linejoin="round" stroke-miterlimit="10" d="M10.6348,18.4918
		c-0.0018-1.2331,0.827-2.2891,1.9307-2.7216"/>
	<path fill="none" stroke="#000000" stroke-linecap="round" stroke-linejoin="round" stroke-miterlimit="10" d="M13.529,3.5397
		c-1.6355-0.0286-3.0222-1.3477-3.0222-3.0703"/>
	<path fill="none" stroke="#000000" stroke-linecap="round" stroke-linejoin="round" stroke-miterlimit="10" d="M5.4295,0.4694
		c0.0336,1.512-1.2658,2.9067-2.9013,2.8782"/>
	<path fill="none" stroke="#000000" stroke-linecap="round" stroke-linejoin="round" stroke-miterlimit="10" d="M2.5458,15.5765
		c1.6448-0.0023,2.98,1.3061,2.9824,2.9224"/>
	<path fill="none" stroke="#000000" stroke-linecap="round" stroke-linejoin="round" d="M13.5777,7.3529
		c0.6265,0.4393,1.3638,1.2519,1.7909,2.2901c0.7126,1.7322,0.5747,3.6238-1.6754,2.4822l-1.3048-3.7888
		c-0.509-1.5399-2.7943-0.7419-2.2979,0.7594c1.5739,4.7619,1.9234,6.9005,5.3103,10.4501"/>
	
		<rect x="16.5655" y="16.1714" transform="matrix(-0.5677 -0.8232 0.8232 -0.5677 12.7092 46.1643)" fill="none" stroke="#000000" stroke-linecap="round" stroke-linejoin="round" width="3.8191" height="7.148"/>
	<path fill="none" stroke="#000000" stroke-linecap="round" stroke-linejoin="round" d="M13.5777,4.2229
		c1.3388,0.5594,5.4771,2.7013,5.4415,7.3451c-0.0423,5.5117,0.2893,5.283,0.2893,5.283"/>
	<path fill="none" stroke="#000000" stroke-linecap="round" stroke-linejoin="round" stroke-miterlimit="10" d="M10.029,8.5009
		C9.8105,8.3033,9.5704,8.1854,9.2703,8.1854c-0.7082,0-1.0585,0.7011-1.2823,1.4666c-0.2486,0.7934-0.5741,1.4666-1.2823,1.4666
		S5.4235,10.4619,5.4235,9.652c0-0.5454,0.2603-1.0212,0.6465-1.2739"/>
	
		<line fill="none" stroke="#000000" stroke-linecap="round" stroke-linejoin="round" stroke-miterlimit="10" x1="4.8396" y1="9.652" x2="10.2743" y2="9.652"/>
</g>
<rect x="-0.0137" y="0" fill="none" width="24" height="24"/>
</svg>
