<?xml version="1.0" encoding="utf-8"?>
<!-- Generator: Adobe Illustrator 18.1.0, SVG Export Plug-In . SVG Version: 6.00 Build 0)  -->
<svg version="1.1" id="Layer_1" xmlns="http://www.w3.org/2000/svg" xmlns:xlink="http://www.w3.org/1999/xlink" x="0px" y="0px"
	 width="24px" height="24px" viewBox="0 0 24 24" enable-background="new 0 0 24 24" xml:space="preserve">
<g>
	<path fill="none" stroke="#000000" stroke-linecap="round" stroke-linejoin="round" stroke-miterlimit="10" d="M4.6736,11.9808
		l4.0056-0.8113C8.4793,8.5969,9.9329,8.0499,9.8194,6.2028C9.6846,4.006,9.492,0.4728,6.3526,0.6283
		C3.2134,0.7843,3.5901,6.6227,3.5901,6.6227C3.9604,9.7281,4.2458,10.2717,4.6736,11.9808z"/>
	<path fill="none" stroke="#000000" stroke-linecap="round" stroke-linejoin="round" stroke-miterlimit="10" d="M9.0753,13.2892
		L5.1473,14.085c0.6116,2.8963,1.2933,4.0873,3.0679,3.8071C10.0647,17.5996,9.8513,16.3721,9.0753,13.2892z"/>
	<path fill="none" stroke="#000000" stroke-linecap="round" stroke-linejoin="round" stroke-miterlimit="10" d="M19.3525,17.384
		l-4.0056-0.8115c0.1999-2.5726-1.2539-3.1194-1.1401-4.9665c0.1348-2.1968,0.3274-5.7301,3.4665-5.5746
		c3.1398,0.1561,2.7628,5.9944,2.7628,5.9944C20.0655,15.1313,19.7807,15.6749,19.3525,17.384z"/>
	<path fill="none" stroke="#000000" stroke-linecap="round" stroke-linejoin="round" stroke-miterlimit="10" d="M14.9505,18.6924
		l3.9281,0.7958c-0.6112,2.8963-1.293,4.0875-3.0676,3.8071C13.8252,22.9813,14.2667,21.4498,14.9505,18.6924z"/>
</g>
<rect x="0.0142" y="0.0354" fill="none" width="24" height="24"/>
</svg>
