<?xml version="1.0" encoding="utf-8"?>
<!-- Generator: Adobe Illustrator 18.1.0, SVG Export Plug-In . SVG Version: 6.00 Build 0)  -->
<svg version="1.1" id="Layer_1" xmlns="http://www.w3.org/2000/svg" xmlns:xlink="http://www.w3.org/1999/xlink" x="0px" y="0px"
	 width="24px" height="24px" viewBox="0 0 24 24" enable-background="new 0 0 24 24" xml:space="preserve">
<g>
	<polyline fill="none" stroke="#000000" stroke-linecap="round" stroke-linejoin="round" stroke-miterlimit="10" points="
		17.5144,0.5049 17.5144,4.5049 21.5144,4.5049 	"/>
	<path fill="none" stroke="#000000" stroke-linecap="round" stroke-linejoin="round" stroke-miterlimit="10" d="M4.5145,3.9958
		V1.3105c0-0.4364,0.3506-0.8056,0.7872-0.8056h12.2127c0.2076,0,0.3041,0.0894,0.4517,0.2349l3.3124,3.2687
		c0.1503,0.1483,0.2359,0.285,0.2359,0.4964V22.705c0,0.4366-0.354,0.7999-0.7915,0.7999H5.3017
		c-0.4366,0-0.7872-0.3633-0.7872-0.7999v-2.6613"/>
	<circle fill="none" stroke="#000000" stroke-linecap="round" stroke-linejoin="round" cx="6.3484" cy="12.1156" r="1.7206"/>
	<path fill="none" stroke="#000000" stroke-linecap="round" stroke-linejoin="round" d="M9.7898,14.6004l1.5146,0.4004
		c0.2672-0.4602,0.463-0.931,0.6005-1.4667l-1.3605-0.7766c0.0681-0.443,0.064-0.8861-0.0057-1.3165l1.3552-0.7884
		c-0.1357-0.5129-0.3419-1.005-0.6121-1.4616L9.7696,9.604C9.5117,9.252,9.1985,8.9379,8.8348,8.6754l0.4005-1.5148
		c-0.4712-0.2737-0.9425-0.4662-1.466-0.6007L6.9928,7.9201C6.5488,7.8516,6.1047,7.8556,5.6734,7.9255L4.8849,6.5704
		C4.3965,6.6997,3.8934,6.9045,3.4241,7.1822l0.4131,1.512C3.4843,8.9526,3.1696,9.2666,2.9067,9.6313L1.3922,9.2309
		c-0.2554,0.44-0.4641,0.936-0.6,1.4657l1.3605,0.7766c-0.0683,0.4444-0.0641,0.8889,0.0062,1.3206L0.8041,13.582
		c0.1304,0.4917,0.3363,0.9944,0.6125,1.4606l1.5123-0.4132c0.2584,0.3523,0.5723,0.6666,0.9368,0.9291l-0.4003,1.5142
		c0.4675,0.2711,0.9385,0.4645,1.4664,0.5997l0.7768-1.3608c0.4434,0.0679,0.8869,0.0636,1.3177-0.0065l0.7883,1.3548
		c0.5128-0.136,1.0049-0.3423,1.4613-0.6128l-0.4132-1.5124C9.214,15.277,9.5277,14.9639,9.7898,14.6004z"/>
</g>
<rect x="0" y="0.0001" fill="none" width="24" height="24"/>
</svg>
