<?xml version="1.0" encoding="utf-8"?>
<!-- Generator: Adobe Illustrator 18.1.0, SVG Export Plug-In . SVG Version: 6.00 Build 0)  -->
<svg version="1.1" id="Layer_1" xmlns="http://www.w3.org/2000/svg" xmlns:xlink="http://www.w3.org/1999/xlink" x="0px" y="0px"
	 width="24px" height="24px" viewBox="0 0 24 24" enable-background="new 0 0 24 24" xml:space="preserve">
<g>
	<polyline fill="none" stroke="#000000" stroke-linecap="round" stroke-linejoin="round" stroke-miterlimit="10" points="
		5.0005,9.5 4.5005,9.5 4.5005,11 3.5005,11 3.5005,12 4.5005,12 4.5005,13.5 5.0005,13.5 	"/>
	<polyline fill="none" stroke="#000000" stroke-linecap="round" stroke-linejoin="round" stroke-miterlimit="10" points="
		18.0005,9.5 18.5005,9.5 18.5005,11 19.5005,11 19.5005,12 18.5005,12 18.5005,13.5 18.0005,13.5 	"/>
	<path fill="none" stroke="#000000" stroke-linecap="round" stroke-linejoin="round" stroke-miterlimit="10" d="M14.5005,4.6798
		c0-1.7558-1-3.2053-2-3.4578V0.5h-2v0.722c-1,0.2526-2,1.702-2,3.4578V5.5h-1v2h1v2h-2v4h2v8H7.997c-1.0536,0-1.9077,1-1.9077,2
		c3.7443,0,6.6364,0,10.8432,0c0-1-0.8541-2-1.9077-2h-0.5243v-8h2v-4h-2v-2h1v-2h-1V4.6798z"/>
	
		<line fill="none" stroke="#000000" stroke-linecap="round" stroke-linejoin="round" stroke-miterlimit="10" x1="8.5005" y1="5.5" x2="14.5005" y2="5.5"/>
	
		<line fill="none" stroke="#000000" stroke-linecap="round" stroke-linejoin="round" stroke-miterlimit="10" x1="8.5005" y1="7.5" x2="14.5005" y2="7.5"/>
</g>
<rect x="0.0005" y="0" fill="none" width="24" height="24"/>
</svg>
