<?xml version="1.0" encoding="utf-8"?>
<!-- Generator: Adobe Illustrator 18.1.0, SVG Export Plug-In . SVG Version: 6.00 Build 0)  -->
<svg version="1.1" id="Layer_1" xmlns="http://www.w3.org/2000/svg" xmlns:xlink="http://www.w3.org/1999/xlink" x="0px" y="0px"
	 width="24px" height="24px" viewBox="0 0 24 24" enable-background="new 0 0 24 24" xml:space="preserve">
<g>
	<path fill="none" stroke="#000000" stroke-linecap="round" stroke-linejoin="round" stroke-miterlimit="10" d="M21.1855,14.2529
		c-1.6879-0.557-2.0686-2.7683-0.6621-3.857c-1.7943-0.3532-2.4063-2.5992-1.058-3.8187c-0.7452-0.8585-0.7221-2.141,0.0652-2.974
		c-1.9966-1.7805-4.6281-2.864-7.5137-2.864c-6.2383,0-11.2954,5.057-11.2954,11.2954c0,6.2383,5.0571,11.2953,11.2954,11.2953
		c4.3813,0,8.1772-2.4962,10.0505-6.1425C21.0275,16.5977,20.6466,15.3058,21.1855,14.2529z"/>
	
		<circle fill="none" stroke="#000000" stroke-linecap="round" stroke-linejoin="round" stroke-miterlimit="10" cx="11.617" cy="12.0346" r="4.4799"/>
	<polyline fill="none" stroke="#000000" stroke-linecap="round" stroke-linejoin="round" points="21.9116,7.1814 21.8849,7.8238 
		22.5962,8.4663 	"/>
	
		<line fill="none" stroke="#000000" stroke-linecap="round" stroke-linejoin="round" x1="20.6454" y1="5.2735" x2="21.0818" y2="5.4556"/>
	
		<line fill="none" stroke="#000000" stroke-linecap="round" stroke-linejoin="round" x1="11.3943" y1="18.7982" x2="11.3943" y2="18.7982"/>
	
		<line fill="none" stroke="#000000" stroke-linecap="round" stroke-linejoin="round" x1="16.7177" y1="7.062" x2="17.1541" y2="7.244"/>
	
		<line fill="none" stroke="#000000" stroke-linecap="round" stroke-linejoin="round" x1="3.1719" y1="6.971" x2="3.6084" y2="7.153"/>
	
		<line fill="none" stroke="#000000" stroke-linecap="round" stroke-linejoin="round" x1="22.2491" y1="12.0683" x2="22.6509" y2="11.8188"/>
	
		<line fill="none" stroke="#000000" stroke-linecap="round" stroke-linejoin="round" x1="23.307" y1="14.2939" x2="23.307" y2="14.2939"/>
	
		<line fill="none" stroke="#000000" stroke-linecap="round" stroke-linejoin="round" x1="15.5026" y1="17.5686" x2="15.9044" y2="17.3191"/>
	
		<line fill="none" stroke="#000000" stroke-linecap="round" stroke-linejoin="round" x1="17.8858" y1="11.654" x2="17.8858" y2="11.654"/>
	
		<line fill="none" stroke="#000000" stroke-linecap="round" stroke-linejoin="round" x1="6.9362" y1="7.5547" x2="7.338" y2="7.3052"/>
	
		<line fill="none" stroke="#000000" stroke-linecap="round" stroke-linejoin="round" x1="7.5871" y1="19.6329" x2="7.9889" y2="19.3834"/>
	
		<line fill="none" stroke="#000000" stroke-linecap="round" stroke-linejoin="round" x1="5.4268" y1="10.9294" x2="5.4268" y2="10.9294"/>
	
		<line fill="none" stroke="#000000" stroke-linecap="round" stroke-linejoin="round" x1="13.6262" y1="5.4893" x2="13.6262" y2="5.4893"/>
	
		<line fill="none" stroke="#000000" stroke-linecap="round" stroke-linejoin="round" x1="9.4163" y1="4.1078" x2="9.8181" y2="3.8584"/>
	
		<line fill="none" stroke="#000000" stroke-linecap="round" stroke-linejoin="round" x1="18.8511" y1="17.2183" x2="18.8701" y2="16.7458"/>
	
		<line fill="none" stroke="#000000" stroke-linecap="round" stroke-linejoin="round" x1="6.0932" y1="16.2987" x2="6.1122" y2="15.8262"/>
	
		<line fill="none" stroke="#000000" stroke-linecap="round" stroke-linejoin="round" x1="14.7872" y1="20.5044" x2="14.8062" y2="20.0319"/>
	
		<line fill="none" stroke="#000000" stroke-linecap="round" stroke-linejoin="round" x1="7.5966" y1="3.7468" x2="7.5966" y2="3.7468"/>
	
		<line fill="none" stroke="#000000" stroke-linecap="round" stroke-linejoin="round" x1="2.9973" y1="13.4192" x2="3.0163" y2="12.9467"/>
	
		<line fill="none" stroke="#000000" stroke-linecap="round" stroke-linejoin="round" x1="13.6167" y1="3.05" x2="13.6357" y2="2.5775"/>
</g>
<rect x="0.0142" y="0.0346" fill="none" width="24" height="24"/>
</svg>
