<?xml version="1.0" encoding="utf-8"?>
<!-- Generator: Adobe Illustrator 18.1.0, SVG Export Plug-In . SVG Version: 6.00 Build 0)  -->
<svg version="1.1" id="Layer_1" xmlns="http://www.w3.org/2000/svg" xmlns:xlink="http://www.w3.org/1999/xlink" x="0px" y="0px"
	 width="24px" height="24px" viewBox="0 0 24 24" enable-background="new 0 0 24 24" xml:space="preserve">
<g>
	<circle fill="none" stroke="#000000" stroke-linecap="round" stroke-linejoin="round" cx="11.8499" cy="16.4009" r="6.8852"/>
	<path fill="none" stroke="#000000" stroke-linecap="round" stroke-linejoin="round" d="M7.5887,12.6278
		c0,0-0.8743,2.007,0.1841,1.6334c0.7821-0.276,0.8512-0.598,0.8512-0.598l0.46-0.8052c0,0,0.069,1.1272,0.1611,1.2881
		c0.0921,0.1612,0.4601,0.6213,0.5981-0.0229c0.2537-1.1841,0.2964-1.5179,0.7335-1.5179s1.3369-0.3454,1.4289,0.7127
		c0.092,1.0582-0.092,0.437-0.6671,0.7132c-0.5751,0.276-0.7132,1.2422-0.1841,1.3572c0.5291,0.1151,1.7253,0.5981,1.7253,0.5981
		s0.7068,0.4491,0.782,1.3803c0.0929,1.1501-0.0019,3.1508,0.6672,2.7144c0.529-0.345,1.9782-2.5995,1.6792-3.4505
		c-0.299-0.8512-0.3219-0.9432,0.2301-1.2422c0.552-0.299,0.9431-0.6671,0.9201-1.0812"/>
	<path fill="none" stroke="#000000" stroke-linecap="round" stroke-linejoin="round" d="M6.5076,18.0567
		c0,0,0.1611-1.8255,0.5291-1.534c0.3681,0.2918,0.5289,0.2918,0.8511,0.6139c0.3221,0.3219,1.7023,0.506,1.2422,0.9201
		c-0.4604,0.4145-0.637,0.3906-1.2647,2.2313"/>
	<path fill="none" stroke="#000000" stroke-linecap="round" stroke-linejoin="round" d="M17.5102,3.076
		c0,0-1.4526,0.8909-2.9461,1.2054c-1.4934,0.3145-2.5036,1.9902-2.5036,1.9902s-0.2438,1.6982,0,3.2441"/>
	<path fill="none" stroke="#000000" stroke-linecap="round" stroke-linejoin="round" stroke-miterlimit="10" d="M12.1348,5.0701
		C11.6535,2.356,6.3303,2.5206,6.3303,2.5206s0.7418,7.0732,5.7303,3.751C12.0605,6.2716,11.9869,5.7707,12.1348,5.0701z"/>
	<path fill="none" stroke="#000000" stroke-linecap="round" stroke-linejoin="round" d="M19.8264,0.7139
		c-5.9115,0.207-7.36,2.7852-7.6916,4.3562c-0.1479,0.7006-0.0743,1.2015-0.0743,1.2015
		C19.3637,11.4483,19.8264,0.7139,19.8264,0.7139z"/>
	<path fill="none" stroke="#000000" stroke-linecap="round" stroke-linejoin="round" stroke-miterlimit="10" d="M8.9068,4.6738
		c0,0,2.4908,0.5248,3.1537,1.5978"/>
</g>
<rect x="0.0005" y="0" fill="none" width="24" height="24"/>
</svg>
