<?xml version="1.0" encoding="utf-8"?>
<!-- Generator: Adobe Illustrator 18.1.0, SVG Export Plug-In . SVG Version: 6.00 Build 0)  -->
<svg version="1.1" id="Layer_1" xmlns="http://www.w3.org/2000/svg" xmlns:xlink="http://www.w3.org/1999/xlink" x="0px" y="0px"
	 width="24px" height="24px" viewBox="0 0 24 24" enable-background="new 0 0 24 24" xml:space="preserve">
<g>
	<path fill="none" stroke="#000000" stroke-linecap="round" stroke-linejoin="round" d="M13.9658,19.4156
		c3.7658-0.0218,6.0842-0.304,6.8769-2.3352c0.5639-1.4451-0.0788-2.4944-0.939-2.5847"/>
	<path fill="none" stroke="#000000" stroke-linecap="round" stroke-linejoin="round" d="M13.9659,19.4171
		c0,0.3821-0.3586,0.6918-0.8012,0.6918h-0.3312c-0.4425,0-0.8012-0.3097-0.8012-0.6918l0,0c0-0.3821,0.3586-0.6918,0.8012-0.6918
		h0.3312C13.6073,18.7253,13.9659,19.035,13.9659,19.4171L13.9659,19.4171z"/>
	<path fill="none" stroke="#000000" stroke-linecap="round" stroke-linejoin="round" d="M19.4221,9.6523
		c0,0.8685-0.5057,3.4018-0.2528,4.1316c0.4591,0.2055,0.7796,0.6654,0.7796,1.2009c0,0.7267-0.5891,1.3159-1.3158,1.3159
		c-0.0078,0-0.0154-0.0011-0.0231-0.0012c-0.2724,3.4676-4.1483,6.3946-6.7081,6.3946c-2.4939,0-6.4357-2.9271-6.7081-6.3946
		c-0.0077,0.0001-0.0152,0.0012-0.023,0.0012c-0.7268,0-1.3159-0.5892-1.3159-1.3159c0-0.5355,0.3204-0.9954,0.7796-1.2009
		c0.2759-0.8672-0.1229-3.03-0.1229-3.8985"/>
	
		<line fill="none" stroke="#000000" stroke-linecap="round" stroke-linejoin="round" x1="10.1252" y1="19.4171" x2="10.8012" y2="19.4171"/>
	<path fill="none" stroke="#000000" stroke-linecap="round" stroke-linejoin="round" d="M4.5115,9.8854
		c0,0,9.5673-1.1932,10.3187-3.364c0,0,2.7551,3.7153,4.5919,3.1309"/>
	<path fill="none" stroke="#000000" stroke-linecap="round" stroke-linejoin="round" d="M5.9238,21.0995
		c-4.9395,0.6022-6.3983-0.7672-4.5089-11.4421c1.9206-10.8513,12.4638-8.017,12.4638-8.017s5.638-0.9258,8.0122,6.4738
		c2.2113,6.892,2.7419,13.7497-3.9529,13.1113"/>
	
		<line fill="none" stroke="#000000" stroke-linecap="round" stroke-linejoin="round" x1="9.9894" y1="13.5729" x2="9.0285" y2="13.5729"/>
	
		<line fill="none" stroke="#000000" stroke-linecap="round" stroke-linejoin="round" x1="14.9725" y1="13.5729" x2="14.0116" y2="13.5729"/>
</g>
<rect x="0.0005" y="0.0004" fill="none" width="24" height="24"/>
</svg>
