<?xml version="1.0" encoding="utf-8"?>
<!-- Generator: Adobe Illustrator 18.1.0, SVG Export Plug-In . SVG Version: 6.00 Build 0)  -->
<svg version="1.1" id="Layer_1" xmlns="http://www.w3.org/2000/svg" xmlns:xlink="http://www.w3.org/1999/xlink" x="0px" y="0px"
	 width="24px" height="24px" viewBox="0 0 24 24" enable-background="new 0 0 24 24" xml:space="preserve">
<g>
	<path fill="none" stroke="#000000" stroke-linecap="round" stroke-linejoin="round" stroke-miterlimit="10" d="M20.3531,7.2137
		c0-1.6721-1.3675-3.064-3.1445-3.3721c-1.4393-4.1789-8.2269-4.0398-9.4043,0.2395c-2.0438,0.1425-3.6791,1.661-3.6791,3.5172
		c0,1.455,1.3747,2.7037,2.3747,3.2445v3.6769h11v-3.9796C19.5,10.1609,20.3531,8.8176,20.3531,7.2137z"/>
	
		<line fill="none" stroke="#000000" stroke-linecap="round" stroke-linejoin="round" stroke-miterlimit="10" x1="9.5" y1="10.6011" x2="9.5" y2="12.4161"/>
	
		<line fill="none" stroke="#000000" stroke-linecap="round" stroke-linejoin="round" stroke-miterlimit="10" x1="12" y1="10.6011" x2="12" y2="12.4161"/>
	
		<line fill="none" stroke="#000000" stroke-linecap="round" stroke-linejoin="round" stroke-miterlimit="10" x1="14.5003" y1="10.6011" x2="14.5003" y2="12.4161"/>
	<path fill="none" stroke="#000000" stroke-linecap="round" stroke-linejoin="round" stroke-miterlimit="10" d="M6.6591,16.222
		c-0.9577,0.4302-0.6554,1.8855,0.3987,1.8855c0.0061,0,0.0111-0.0004,0.0172-0.0004c0.2024,2.5985,2.3566,5.199,4.9877,5.199
		c2.6306,0,4.7848-2.6005,4.9876-5.199c0.0056,0,0.0111,0.0004,0.0172,0.0004c1.0516,0,1.3581-1.4539,0.3987-1.8855"/>
	
		<line fill="none" stroke="#000000" stroke-linecap="round" stroke-linejoin="round" stroke-miterlimit="10" x1="12.0623" y1="19.0547" x2="12.0623" y2="19.764"/>
	
		<line fill="none" stroke="#000000" stroke-linecap="round" stroke-linejoin="round" stroke-miterlimit="10" x1="9.6129" y1="17.5305" x2="9.6129" y2="17.571"/>
	
		<line fill="none" stroke="#000000" stroke-linecap="round" stroke-linejoin="round" stroke-miterlimit="10" x1="14.5003" y1="17.5305" x2="14.5003" y2="17.571"/>
</g>
<rect x="0" y="0.0197" fill="none" width="24" height="24"/>
</svg>
