<?xml version="1.0" encoding="utf-8"?>
<!-- Generator: Adobe Illustrator 18.1.0, SVG Export Plug-In . SVG Version: 6.00 Build 0)  -->
<svg version="1.1" id="Layer_1" xmlns="http://www.w3.org/2000/svg" xmlns:xlink="http://www.w3.org/1999/xlink" x="0px" y="0px"
	 width="24px" height="24px" viewBox="0 0 24 24" enable-background="new 0 0 24 24" xml:space="preserve">
<g>
	<path fill="none" stroke="#000000" stroke-linecap="round" stroke-linejoin="round" stroke-miterlimit="10" d="M19.9609,2.5002
		h-6.0043c-0.8499,0-1.4702,0.7196-1.4702,1.5695v2.9624c0,0.8499,0.6204,1.4681,1.4702,1.4681h0.5298v1.5836
		c0,0.3314,0.2873,0.4683,0.5303,0.2429l1.823-1.8265h3.1213c0.8499,0,1.5254-0.6182,1.5254-1.4681V4.0697
		C21.4864,3.2198,20.8108,2.5002,19.9609,2.5002z"/>
	<path fill="none" stroke="#000000" stroke-linecap="round" stroke-linejoin="round" stroke-miterlimit="10" d="M8.6813,7.8629
		c0,0.8719-0.7068,2.0894-1.5787,2.0894S5.5239,8.7348,5.5239,7.8629s0.7068-1.5787,1.5787-1.5787S8.6813,6.991,8.6813,7.8629z"/>
	
		<line fill="none" stroke="#000000" stroke-linecap="round" stroke-linejoin="round" stroke-miterlimit="10" x1="0.9864" y1="21.5002" x2="22.9864" y2="21.5002"/>
	<path fill="none" stroke="#000000" stroke-linecap="round" stroke-linejoin="round" stroke-miterlimit="10" d="M10.4913,19.5208
		l-0.4786-5.2226c0-1.2057-0.7433-2.2455-1.794-2.6857c-0.6601,0.9552-1.5722,0.9552-2.2324,0
		c-1.0507,0.4402-1.794,1.48-1.794,2.6857l-0.3429,3.7423c-0.0728,0.7947,0.5528,1.4803,1.3508,1.4803h2.3421"/>
</g>
<rect x="-0.0136" y="0.0002" fill="none" width="24" height="24"/>
</svg>
