<?xml version="1.0" encoding="utf-8"?>
<!-- Generator: Adobe Illustrator 18.1.0, SVG Export Plug-In . SVG Version: 6.00 Build 0)  -->
<svg version="1.1" id="Layer_1" xmlns="http://www.w3.org/2000/svg" xmlns:xlink="http://www.w3.org/1999/xlink" x="0px" y="0px"
	 width="24px" height="24px" viewBox="0 0 24 24" enable-background="new 0 0 24 24" xml:space="preserve">
<g>
	<path fill="none" stroke="#000000" stroke-linecap="round" stroke-linejoin="round" stroke-miterlimit="10" d="M7.2338,8.7902
		V8.1076c0-2.6335,2.1349-4.7684,4.7684-4.7684h0c2.6335,0,4.7684,2.1349,4.7684,4.7684v0.6825"/>
	<path fill="none" stroke="#000000" stroke-linecap="round" stroke-linejoin="round" stroke-miterlimit="10" d="M7.656,16.8634
		c0.7733,2.4396,2.9209,4.8565,4.3462,4.8565h0c1.4259,0,3.5739-2.4141,4.3462-4.8547"/>
	
		<line fill="none" stroke="#000000" stroke-linecap="round" stroke-linejoin="round" stroke-miterlimit="10" x1="12.0022" y1="21.7198" x2="12.0022" y2="23.3026"/>
	
		<line fill="none" stroke="#000000" stroke-linecap="round" stroke-linejoin="round" stroke-miterlimit="10" x1="9.6268" y1="13.4853" x2="14.3777" y2="13.4853"/>
	
		<line fill="none" stroke="#000000" stroke-linecap="round" stroke-linejoin="round" stroke-miterlimit="10" x1="8.0341" y1="16.4853" x2="15.9702" y2="16.4853"/>
	
		<line fill="none" stroke="#000000" stroke-linecap="round" stroke-linejoin="round" stroke-miterlimit="10" x1="9.0054" y1="19.4853" x2="15.0008" y2="19.4853"/>
	
		<line fill="none" stroke="#000000" stroke-linecap="round" stroke-linejoin="round" stroke-miterlimit="10" x1="11.0022" y1="10.4853" x2="13.0022" y2="10.4853"/>
	<path fill="none" stroke="#000000" stroke-linecap="round" stroke-linejoin="round" stroke-miterlimit="10" d="M13.5114,3.5649
		c0,0-0.4538-1.8985,1.1072-2.804"/>
	<path fill="none" stroke="#000000" stroke-linecap="round" stroke-linejoin="round" stroke-miterlimit="10" d="M10.3703,3.6294
		c0,0,0.4538-1.8985-1.1072-2.804"/>
	<path fill="none" stroke="#000000" stroke-linecap="round" stroke-linejoin="round" stroke-miterlimit="10" d="M7.8797,16.6583
		c-1.5058,1.5058-3.9472,1.5058-5.453,0s-1.5058-3.9472,0-5.453s9.5755-4.1225,9.5755-4.1225S9.3856,15.1525,7.8797,16.6583z"/>
	<path fill="none" stroke="#000000" stroke-linecap="round" stroke-linejoin="round" stroke-miterlimit="10" d="M21.5777,11.2053
		c1.5058,1.5058,1.5058,3.9472,0,5.453c-1.5058,1.5058-3.9472,1.5058-5.453,0c-1.5058-1.5058-4.1225-9.5755-4.1225-9.5755
		S20.0719,9.6995,21.5777,11.2053z"/>
</g>
<rect x="0.0022" y="-0.0147" fill="none" width="24" height="24"/>
</svg>
