<?xml version="1.0" encoding="utf-8"?>
<!-- Generator: Adobe Illustrator 18.1.0, SVG Export Plug-In . SVG Version: 6.00 Build 0)  -->
<svg version="1.1" id="Layer_1" xmlns="http://www.w3.org/2000/svg" xmlns:xlink="http://www.w3.org/1999/xlink" x="0px" y="0px"
	 width="24px" height="24px" viewBox="0 0 24 24" enable-background="new 0 0 24 24" xml:space="preserve">
<g>
	<polyline fill="none" stroke="#000000" stroke-linecap="round" stroke-linejoin="round" stroke-miterlimit="10" points="
		13.4436,21.1007 11.2121,22.1117 10.6407,20.0742 	"/>
	<polyline fill="none" stroke="#000000" stroke-linecap="round" stroke-linejoin="round" stroke-miterlimit="10" points="
		13.4535,12.2054 10.7191,17.7584 14.1089,16.5751 11.2121,22.1117 	"/>
	<g>
		<circle fill="none" stroke="#000000" stroke-linecap="round" stroke-linejoin="round" cx="5.4708" cy="17.5" r="1.948"/>
		<circle fill="none" stroke="#000000" stroke-linecap="round" stroke-linejoin="round" cx="18.4589" cy="17.5" r="1.948"/>
		<path fill="none" stroke="#000000" stroke-linecap="round" stroke-linejoin="round" stroke-miterlimit="10" d="M22.4238,17.5
			h0.8667c-0.0857-5-4.0746-5.1586-5.4018-5.0726c-0.2382,0.0154-0.4534-0.1409-0.5129-0.3714
			c-0.3122-1.2088-1.6086-4.5442-6.2688-4.5203c-0.1195,0.0006-1.1879,0-1.3039,0.0034C4.2347,7.7031,3.4843,10.986,3.389,12.1106
			c-0.0186,0.2201-0.1869,0.377-0.4001,0.4369C0.527,13.2393,0.6274,17.5,0.6274,17.5h0.6995"/>
	</g>
</g>
<rect x="0.0005" y="0" fill="none" width="24" height="24"/>
</svg>
