<?xml version="1.0" encoding="utf-8"?>
<!-- Generator: Adobe Illustrator 18.1.0, SVG Export Plug-In . SVG Version: 6.00 Build 0)  -->
<svg version="1.1" id="Layer_1" xmlns="http://www.w3.org/2000/svg" xmlns:xlink="http://www.w3.org/1999/xlink" x="0px" y="0px"
	 width="24px" height="24px" viewBox="0 0 24 24" enable-background="new 0 0 24 24" xml:space="preserve">
<g>
	<path fill="none" stroke="#000000" stroke-linecap="round" stroke-linejoin="round" stroke-miterlimit="10" d="M23.5293,7.5h-21v-2
		c0-1.1046,0.8954-2,2-2h18c0.5523,0,1,0.4477,1,1V7.5z"/>
	<path fill="none" stroke="#000000" stroke-linecap="round" stroke-linejoin="round" stroke-miterlimit="10" d="M11.6441,10.13
		c0,0-0.2206,1.4395,0.0926,1.8609"/>
	
		<line fill="none" stroke="#000000" stroke-linecap="round" stroke-linejoin="round" stroke-miterlimit="10" x1="6.4867" y1="9.5166" x2="7.431" y2="9.5166"/>
	<path fill="none" stroke="#000000" stroke-linecap="round" stroke-linejoin="round" stroke-miterlimit="10" d="M6.1163,20.9636
		c0,0-0.3158,0.3967-0.5813,0.3967H1.4889c-0.278,0-0.3776-0.2103-0.292-0.3967"/>
	
		<line fill="none" stroke="#000000" stroke-linecap="round" stroke-linejoin="round" stroke-miterlimit="10" x1="4.5293" y1="3.5003" x2="4.5293" y2="2.5314"/>
	
		<line fill="none" stroke="#000000" stroke-linecap="round" stroke-linejoin="round" stroke-miterlimit="10" x1="22.5293" y1="3.5002" x2="22.5293" y2="2.5314"/>
	<path fill="none" stroke="#000000" stroke-linecap="round" stroke-linejoin="round" stroke-miterlimit="10" d="M3.376,9.0468
		c0,0,0.5539,1.7762,0.0739,2.7936c0,0-2.4368,5.1751-2.4436,6.6281c-0.0043,0.9256,0.7404,1.0561,0.7404,1.0561
		c0.0972,0.0099,5.2437-0.0429,5.2437-0.0429c-0.5972-0.1702-0.0223-2.1878,0.5749-2.0176
		c-0.5972-0.1702-0.0223-2.1878,0.5749-2.0176c-0.5972-0.1702-0.0223-2.1878,0.5749-2.0176l1.1779-3.2413l11.6696-0.3942V9.0468"/>
	<path fill="none" stroke="#000000" stroke-linecap="round" stroke-linejoin="round" stroke-miterlimit="10" d="M14.9499,10.028
		v1.9614c0,0.8421-0.7044,1.513-1.5455,1.472L8.715,13.4288"/>
</g>
<rect x="0.0293" fill="none" width="24" height="24"/>
</svg>
