<?xml version="1.0" encoding="utf-8"?>
<!-- Generator: Adobe Illustrator 18.1.0, SVG Export Plug-In . SVG Version: 6.00 Build 0)  -->
<svg version="1.1" id="Layer_1" xmlns="http://www.w3.org/2000/svg" xmlns:xlink="http://www.w3.org/1999/xlink" x="0px" y="0px"
	 width="24px" height="24px" viewBox="0 0 24 24" enable-background="new 0 0 24 24" xml:space="preserve">
<g>
	<path fill="none" stroke="#000000" stroke-linecap="round" stroke-linejoin="round" d="M12.4723,18.5h8.5518
		c0.2761,0,0.5-0.2239,0.5-0.5v-3.5h1.5c0.2761,0,0.5-0.2239,0.5-0.5v-4c0-0.2761-0.2239-0.5-0.5-0.5h-1.5V6
		c0-0.2761-0.2239-0.5-0.5-0.5h-3.4918"/>
	<path fill="none" stroke="#000000" stroke-linecap="round" stroke-linejoin="round" d="M5.4607,5.5H1.024
		c-0.2761,0-0.5,0.2239-0.5,0.5v12c0,0.2761,0.2239,0.5,0.5,0.5h6.4426"/>
	<polygon fill="none" stroke="#000000" stroke-linecap="round" stroke-linejoin="round" stroke-miterlimit="10" points="
		13.9121,12.5022 11.1191,12.5022 15.8661,5.5 13.1756,5.5 15.0743,1.5279 9.1669,1.5279 6.3722,8.4684 8.9559,8.4684 
		6.3722,15.4329 9.5353,15.4329 9.5353,20.5147 	"/>
</g>
<rect x="0" y="0" fill="none" width="24" height="24"/>
</svg>
