<?xml version="1.0" encoding="utf-8"?>
<!-- Generator: Adobe Illustrator 18.1.0, SVG Export Plug-In . SVG Version: 6.00 Build 0)  -->
<svg version="1.1" id="Layer_1" xmlns="http://www.w3.org/2000/svg" xmlns:xlink="http://www.w3.org/1999/xlink" x="0px" y="0px"
	 width="24px" height="24px" viewBox="0 0 24 24" enable-background="new 0 0 24 24" xml:space="preserve">
<g>
	<polygon fill="none" stroke="#000000" stroke-linecap="round" stroke-linejoin="round" stroke-miterlimit="10" points="
		17.8066,23.5346 6.4091,23.5346 4.6742,8.5346 19.5414,8.5346 	"/>
	<path fill="none" stroke="#000000" stroke-linecap="round" stroke-linejoin="round" stroke-miterlimit="10" d="M7.9346,6.8614
		c0,0.7423-0.6018,1.3441-1.3441,1.3441S5.2464,7.6037,5.2464,6.8614s0.6018-1.3441,1.3441-1.3441"/>
	<path fill="none" stroke="#000000" stroke-linecap="round" stroke-linejoin="round" stroke-miterlimit="10" d="M12.228,6.8614
		c0,0.7423-0.6018,1.3441-1.3441,1.3441S9.5398,7.6037,9.5398,6.8614"/>
	<path fill="none" stroke="#000000" stroke-linecap="round" stroke-linejoin="round" stroke-miterlimit="10" d="M11.4258,5.9331
		c-0.2414-0.702,0.1319-1.4668,0.8339-1.7082c0.702-0.2414,1.4668,0.1319,1.7082,0.8339"/>
	<path fill="none" stroke="#000000" stroke-linecap="round" stroke-linejoin="round" stroke-miterlimit="10" d="M15.5612,4.6073
		c-0.2414-0.702,0.1319-1.4668,0.8338-1.7082c0.702-0.2414,1.4668,0.1319,1.7082,0.8339"/>
	<path fill="none" stroke="#000000" stroke-linecap="round" stroke-linejoin="round" stroke-miterlimit="10" d="M17.5874,5.5181
		c0.742-0.0208,1.3605,0.5638,1.3813,1.3058s-0.5638,1.3605-1.3058,1.3813"/>
	<path fill="none" stroke="#000000" stroke-linecap="round" stroke-linejoin="round" stroke-miterlimit="10" d="M8.9152,5.5173
		c-0.7423,0-1.3441-0.6018-1.3441-1.3441s0.6018-1.3441,1.3441-1.3441s1.3441,0.6018,1.3441,1.3441"/>
	<path fill="none" stroke="#000000" stroke-linecap="round" stroke-linejoin="round" stroke-miterlimit="10" d="M14.2351,8.5346
		c-0.4442-0.5948-0.3221-1.437,0.2726-1.8812c0.5948-0.4442,1.437-0.3221,1.8812,0.2726"/>
	<path fill="none" stroke="#000000" stroke-linecap="round" stroke-linejoin="round" stroke-miterlimit="10" d="M13.6845,2.8257
		c-0.4997-0.5489-0.4598-1.399,0.0891-1.8988"/>
	<path fill="none" stroke="#000000" stroke-linecap="round" stroke-linejoin="round" stroke-miterlimit="10" d="M10.1472,1.7456
		c0.7285-0.1424,1.4346,0.3327,1.577,1.0613"/>
	
		<line fill="none" stroke="#000000" stroke-linecap="round" stroke-linejoin="round" stroke-miterlimit="10" x1="12.1078" y1="10.7185" x2="12.1078" y2="23.5346"/>
	
		<line fill="none" stroke="#000000" stroke-linecap="round" stroke-linejoin="round" stroke-miterlimit="10" x1="15.6876" y1="10.7185" x2="14.9266" y2="23.5346"/>
	
		<line fill="none" stroke="#000000" stroke-linecap="round" stroke-linejoin="round" stroke-miterlimit="10" x1="8.528" y1="10.7185" x2="9.289" y2="23.5346"/>
	<path fill="none" stroke="#000000" stroke-linecap="round" stroke-linejoin="round" stroke-miterlimit="10" d="M12.1078,10.3042"/>
	<path fill="none" stroke="#000000" stroke-linecap="round" stroke-linejoin="round" stroke-miterlimit="10" d="M15.6876,10.3042"/>
	<path fill="none" stroke="#000000" stroke-linecap="round" stroke-linejoin="round" stroke-miterlimit="10" d="M8.528,10.3042"/>
	<path fill="none" stroke="#000000" stroke-linecap="round" stroke-linejoin="round" stroke-miterlimit="10" d="M12.1078,10.3042"/>
</g>
<rect x="0.0142" y="0.0346" fill="none" width="24" height="24"/>
</svg>
