<?xml version="1.0" encoding="utf-8"?>
<!-- Generator: Adobe Illustrator 18.1.0, SVG Export Plug-In . SVG Version: 6.00 Build 0)  -->
<svg version="1.1" id="Layer_1" xmlns="http://www.w3.org/2000/svg" xmlns:xlink="http://www.w3.org/1999/xlink" x="0px" y="0px"
	 width="24px" height="24px" viewBox="0 0 24 24" enable-background="new 0 0 24 24" xml:space="preserve">
<g>
	
		<line fill="none" stroke="#000000" stroke-linecap="round" stroke-linejoin="round" x1="23.1231" y1="0.7881" x2="3.4696" y2="20.4251"/>
	<polyline fill="none" stroke="#000000" stroke-linecap="round" stroke-linejoin="round" points="18.4944,1.9012 23.1231,0.7881 
		22.01,5.4168 	"/>
	
		<line fill="none" stroke="#000000" stroke-linecap="round" stroke-linejoin="round" x1="0.8753" y1="0.7881" x2="20.4994" y2="20.4251"/>
	<polyline fill="none" stroke="#000000" stroke-linecap="round" stroke-linejoin="round" points="5.504,1.9012 0.8753,0.7881 
		1.9884,5.4168 	"/>
	<polyline fill="none" stroke="#000000" stroke-linecap="round" stroke-linejoin="round" points="19.9992,16.4248 16.4992,16.4248 
		16.4992,19.9248 	"/>
	<polyline fill="none" stroke="#000000" stroke-linecap="round" stroke-linejoin="round" points="21.9993,18.425 18.4993,18.425 
		18.4993,21.925 	"/>
	<polyline fill="none" stroke="#000000" stroke-linecap="round" stroke-linejoin="round" points="23.5151,20.4251 20.4994,20.4251 
		20.4994,23.4407 	"/>
	<polyline fill="none" stroke="#000000" stroke-linecap="round" stroke-linejoin="round" points="3.9699,16.4248 7.4699,16.4248 
		7.4699,19.9248 	"/>
	<polyline fill="none" stroke="#000000" stroke-linecap="round" stroke-linejoin="round" points="1.9698,18.425 5.4698,18.425 
		5.4698,21.925 	"/>
	<polyline fill="none" stroke="#000000" stroke-linecap="round" stroke-linejoin="round" points="0.454,20.4251 3.4696,20.4251 
		3.4696,23.4407 	"/>
</g>
<rect x="-0.0008" y="-0.0147" fill="none" width="24" height="24"/>
</svg>
