<?xml version="1.0" encoding="utf-8"?>
<!-- Generator: Adobe Illustrator 18.1.0, SVG Export Plug-In . SVG Version: 6.00 Build 0)  -->
<svg version="1.1" id="Layer_1" xmlns="http://www.w3.org/2000/svg" xmlns:xlink="http://www.w3.org/1999/xlink" x="0px" y="0px"
	 width="24px" height="24px" viewBox="0 0 24 24" enable-background="new 0 0 24 24" xml:space="preserve">
<g>
	<circle fill="none" stroke="#000000" stroke-linecap="round" stroke-linejoin="round" cx="11.9981" cy="12.0144" r="4.1478"/>
	<path fill="none" stroke="#000000" stroke-linecap="round" stroke-linejoin="round" d="M20.055,13.9586l3.0331-0.3969
		c0.1424-1.0294,0.1479-2.0249,0-3.0946l-3.0331-0.3969c-0.2047-0.8508-0.5399-1.6486-0.9842-2.3747l1.8655-2.4273
		c-0.6247-0.8264-1.3613-1.5632-2.1874-2.1884L16.3223,4.945c-0.7264-0.4453-1.5248-0.7812-2.3763-0.9865l-0.397-3.0336
		c-1.0537-0.146-2.0483-0.1451-3.0935-0.0011l-0.3968,3.0324C9.2058,4.1609,8.4061,4.4967,7.6785,4.9421L5.2513,3.0767
		C4.4589,3.6758,3.7026,4.4193,3.064,5.263l1.865,2.4266c-0.4464,0.728-0.7829,1.5282-0.9882,2.3818l-3.0329,0.3969
		c-0.136,0.984-0.1462,2.0348,0,3.0924l3.0329,0.3969c0.2053,0.8536,0.5418,1.6538,0.9882,2.3818l-1.865,2.4266
		c0.5994,0.792,1.3433,1.5482,2.1873,2.1863l2.4272-1.8655c0.7277,0.4454,1.5273,0.7812,2.3802,0.9859l0.3968,3.0324
		c1.045,0.144,2.0396,0.145,3.0935-0.0011l0.397-3.0336c0.8514-0.2053,1.6498-0.5412,2.3762-0.9865l2.4267,1.8651
		c0.8261-0.6252,1.5627-1.362,2.1874-2.1884l-1.8655-2.4273C19.5151,15.6073,19.8503,14.8094,20.055,13.9586z"/>
</g>
<rect x="0" y="0" fill="none" width="24" height="24"/>
</svg>
