<?xml version="1.0" encoding="utf-8"?>
<!-- Generator: Adobe Illustrator 18.1.0, SVG Export Plug-In . SVG Version: 6.00 Build 0)  -->
<svg version="1.1" id="Layer_1" xmlns="http://www.w3.org/2000/svg" xmlns:xlink="http://www.w3.org/1999/xlink" x="0px" y="0px"
	 width="24px" height="24px" viewBox="0 0 24 24" enable-background="new 0 0 24 24" xml:space="preserve">
<g>
	<path fill="none" stroke="#000000" stroke-linecap="round" stroke-linejoin="round" stroke-miterlimit="10" d="M3.9452,6.4844
		l2.0747,9.0834c-0.0018,0.008-0.0057,0.0153-0.0073,0.0235l-0.5537,1.9676c-0.0894,0.4365,0.2472,0.8422,0.6913,0.8422h14.2769"/>
	<path fill="none" stroke="#000000" stroke-linecap="round" stroke-linejoin="round" stroke-miterlimit="10" d="M22.9193,6.4844
		H3.9452L4.4347,4.195C4.3511,3.804,4.004,3.5249,3.6025,3.5249H0.6385"/>
	<path fill="none" stroke="#000000" stroke-linecap="round" stroke-linejoin="round" stroke-miterlimit="10" d="M6.0199,15.5678
		l14.1949-1.5344c0.396,0,0.7384-0.2708,0.8285-0.6539l2.3104-8.4792"/>
	
		<ellipse fill="none" stroke="#000000" stroke-linecap="round" stroke-linejoin="round" stroke-miterlimit="10" cx="6.987" cy="21.8819" rx="1.5164" ry="1.508"/>
	
		<ellipse fill="none" stroke="#000000" stroke-linecap="round" stroke-linejoin="round" stroke-miterlimit="10" cx="18.9112" cy="21.8819" rx="1.5159" ry="1.508"/>
	<polyline fill="none" stroke="#000000" stroke-linecap="round" stroke-linejoin="round" stroke-miterlimit="10" points="
		9.6551,4.4669 16.0603,0.5905 19.0159,4.4357 	"/>
</g>
<rect x="-0.0136" y="0.0001" fill="none" width="24" height="24"/>
</svg>
