<?xml version="1.0" encoding="utf-8"?>
<!-- Generator: Adobe Illustrator 18.1.0, SVG Export Plug-In . SVG Version: 6.00 Build 0)  -->
<svg version="1.1" id="Layer_1" xmlns="http://www.w3.org/2000/svg" xmlns:xlink="http://www.w3.org/1999/xlink" x="0px" y="0px"
	 width="24px" height="24px" viewBox="0 0 24 24" enable-background="new 0 0 24 24" xml:space="preserve">
<g>
	<rect x="3.5045" y="9.5" fill="none" stroke="#000000" stroke-linecap="round" stroke-linejoin="round" width="4" height="4"/>
	<rect x="3.5045" y="3.4996" fill="none" stroke="#000000" stroke-linecap="round" stroke-linejoin="round" width="4" height="4"/>
	<rect x="9.5049" y="9.5" fill="none" stroke="#000000" stroke-linecap="round" stroke-linejoin="round" width="4" height="4"/>
	<rect x="9.5049" y="3.4996" fill="none" stroke="#000000" stroke-linecap="round" stroke-linejoin="round" width="4" height="4"/>
	<rect x="15.5052" y="9.5" fill="none" stroke="#000000" stroke-linecap="round" stroke-linejoin="round" width="4" height="4"/>
	<rect x="15.5052" y="3.4996" fill="none" stroke="#000000" stroke-linecap="round" stroke-linejoin="round" width="4" height="4"/>
	<path fill="none" stroke="#000000" stroke-linecap="round" stroke-linejoin="round" stroke-miterlimit="10" d="M13.8294,20.5
		c1.8978,0,2.3341,1.4545,2.9193,2.6404c0,0.1978-0.1965,0.3596-0.4386,0.3596H7.7057c-0.2421,0-0.4386-0.1958-0.4386-0.3936
		C7.8686,21.9358,8.3336,20.5,10.186,20.5H13.8294z"/>
	<path fill="none" stroke="#000000" stroke-linecap="round" stroke-linejoin="round" stroke-miterlimit="10" d="M21.9029,0.5H2.112
		c-0.9106,0-1.6029,0.7732-1.6029,1.6833V14.973c0,0.9106,0.6924,1.527,1.6029,1.527h19.7909c0.9115,0,1.6062-0.6164,1.6062-1.527
		V2.1833C23.5091,1.2732,22.8144,0.5,21.9029,0.5z"/>
	
		<line fill="none" stroke="#000000" stroke-linecap="round" stroke-linejoin="round" stroke-miterlimit="10" x1="12.0091" y1="20.5" x2="12.0091" y2="18.5002"/>
</g>
<rect x="0" y="0" fill="none" width="24" height="24"/>
</svg>
