<?xml version="1.0" encoding="utf-8"?>
<!-- Generator: Adobe Illustrator 18.1.0, SVG Export Plug-In . SVG Version: 6.00 Build 0)  -->
<svg version="1.1" id="Layer_1" xmlns="http://www.w3.org/2000/svg" xmlns:xlink="http://www.w3.org/1999/xlink" x="0px" y="0px"
	 width="24px" height="24px" viewBox="0 0 24 24" enable-background="new 0 0 24 24" xml:space="preserve">
<g>
	<path fill="none" stroke="#000000" stroke-linecap="round" stroke-linejoin="round" d="M16.648,19.0898
		c-0.2274,2.4644-1.9613,4.393-4.6962,4.3831l0,0c-2.7349-0.0101-4.4838-1.9929-4.6633-4.4173l-0.2414-8.3738
		c0.009-2.4302,2.2331-4.3915,4.9675-4.3822l0,0c2.735,0.01,4.9445,1.988,4.9359,4.4185L16.648,19.0898z"/>
	<path fill="none" stroke="#000000" stroke-linecap="round" stroke-linejoin="round" stroke-miterlimit="10" d="M13.944,4.3069
		c-1.0603-1.1323-2.8413-1.1305-3.8999,0"/>
	<path fill="none" stroke="#000000" stroke-linecap="round" stroke-linejoin="round" stroke-miterlimit="10" d="M16.2201,2.3619
		c-2.309-2.4124-6.1407-2.4149-8.4521,0"/>
	
		<line fill="none" stroke="#000000" stroke-linecap="round" stroke-linejoin="round" stroke-miterlimit="10" x1="12.0051" y1="8.9978" x2="12.0051" y2="11.8129"/>
</g>
<rect x="0" y="0" fill="none" width="24" height="24"/>
</svg>
