<?xml version="1.0" encoding="utf-8"?>
<!-- Generator: Adobe Illustrator 18.1.0, SVG Export Plug-In . SVG Version: 6.00 Build 0)  -->
<svg version="1.1" id="Layer_1" xmlns="http://www.w3.org/2000/svg" xmlns:xlink="http://www.w3.org/1999/xlink" x="0px" y="0px"
	 width="24px" height="24px" viewBox="0 0 24 24" enable-background="new 0 0 24 24" xml:space="preserve">
<g>
	<path fill="none" stroke="#000000" stroke-linecap="round" stroke-linejoin="round" stroke-miterlimit="10" d="M22.3812,6.6653
		l-5.4159,2.673c-0.2766,0.1158-0.4788,0.3752-0.4788,0.6608v2.9758c0,0.2856,0.1977,0.5446,0.4743,0.6608l5.4021,2.6729
		c0.5181,0.2166,1.1235-0.1484,1.1235-0.6612V7.3265C23.4863,6.8314,22.9099,6.4448,22.3812,6.6653z"/>
	<path fill="none" stroke="#000000" stroke-linecap="round" stroke-linejoin="round" stroke-miterlimit="10" d="M15.5714,5.5002
		H1.3668c-0.5267,0-0.8805,0.4138-0.8805,0.9326v10.1074c0,0.5188,0.3538,0.96,0.8805,0.96h14.2046
		c0.5252,0,0.9151-0.4412,0.9151-0.96V6.4328C16.4864,5.9139,16.0965,5.5002,15.5714,5.5002z"/>
	
		<line fill="none" stroke="#000000" stroke-linecap="round" stroke-linejoin="round" x1="4.5352" y1="13.548" x2="4.5352" y2="9.4008"/>
	
		<line fill="none" stroke="#000000" stroke-linecap="round" stroke-linejoin="round" x1="7.4102" y1="13.548" x2="7.4102" y2="9.4008"/>
	
		<line fill="none" stroke="#000000" stroke-linecap="round" stroke-linejoin="round" x1="4.5352" y1="11.4744" x2="7.4102" y2="11.4744"/>
	<path fill="none" stroke="#000000" stroke-linecap="round" stroke-linejoin="round" d="M10.7272,13.5412
		c0.9539,0,1.7271-0.9269,1.7271-2.0702c0-1.1434-0.7733-2.0702-1.7271-2.0702v0H9.4883v4.1474h1.2389V13.5412z"/>
</g>
<rect x="-0.0137" y="0.0002" fill="none" width="24" height="24"/>
</svg>
