<?xml version="1.0" encoding="utf-8"?>
<!-- Generator: Adobe Illustrator 18.1.0, SVG Export Plug-In . SVG Version: 6.00 Build 0)  -->
<svg version="1.1" id="Layer_1" xmlns="http://www.w3.org/2000/svg" xmlns:xlink="http://www.w3.org/1999/xlink" x="0px" y="0px"
	 width="24px" height="24px" viewBox="0 0 24 24" enable-background="new 0 0 24 24" xml:space="preserve">
<g>
	
		<rect x="1.512" y="9.797" transform="matrix(0.9661 -0.2582 0.2582 0.9661 -3.4323 3.5889)" fill="none" stroke="#000000" stroke-linecap="round" stroke-linejoin="round" stroke-miterlimit="10" width="20.8747" height="10.1334"/>
	<path fill="none" stroke="#000000" stroke-linecap="round" stroke-linejoin="round" d="M9.6803,1.4629
		c0.4042,0.8362-0.1534,1.7981-1.0795,1.8637c-0.513,0.0363-1.0182-0.2571-1.2403-0.721C6.9609,1.7713,7.5151,0.8138,8.4376,0.7454
		C8.9505,0.7074,9.4564,0.9998,9.6803,1.4629z"/>
	
		<line fill="none" stroke="#000000" stroke-linecap="round" stroke-linejoin="round" x1="8.0192" y1="3.2269" x2="4.481" y2="11.6149"/>
	
		<line fill="none" stroke="#000000" stroke-linecap="round" stroke-linejoin="round" x1="9.5247" y1="2.8485" x2="16.8016" y2="8.3225"/>
	<polyline fill="none" stroke="#000000" stroke-linecap="round" stroke-linejoin="round" points="14.521,12.5297 12.393,13.0977 
		13.2705,16.3857 15.3985,15.8178 	"/>
	
		<line fill="none" stroke="#000000" stroke-linecap="round" stroke-linejoin="round" x1="12.8317" y1="14.7417" x2="14.6593" y2="14.2539"/>
	<polyline fill="none" stroke="#000000" stroke-linecap="round" stroke-linejoin="round" points="16.8007,15.4436 15.9232,12.1555 
		19.3351,14.7612 18.4754,11.5399 	"/>
	<path fill="none" stroke="#000000" stroke-linecap="round" stroke-linejoin="round" d="M9.7202,17.3362l-0.8775-3.288
		l1.2337-0.3292c0,0,1.0459-0.3203,1.283,0.5679c0.2456,0.9203-0.8082,1.211-0.8082,1.211l-1.2329,0.332"/>
	
		<ellipse transform="matrix(0.9662 -0.2578 0.2578 0.9662 -4.0444 2.1671)" fill="none" stroke="#000000" stroke-linecap="round" stroke-linejoin="round" cx="6.2404" cy="16.5036" rx="1.5912" ry="1.7016"/>
</g>
<rect x="-0.0136" y="0" fill="none" width="24" height="24"/>
</svg>
