<?xml version="1.0" encoding="utf-8"?>
<!-- Generator: Adobe Illustrator 18.1.0, SVG Export Plug-In . SVG Version: 6.00 Build 0)  -->
<svg version="1.1" id="Layer_1" xmlns="http://www.w3.org/2000/svg" xmlns:xlink="http://www.w3.org/1999/xlink" x="0px" y="0px"
	 width="24px" height="24px" viewBox="0 0 24 24" enable-background="new 0 0 24 24" xml:space="preserve">
<g>
	<path fill="none" stroke="#000000" stroke-linecap="round" stroke-linejoin="round" stroke-miterlimit="10" d="M4.9162,21.4745
		H1.4367c-0.5214,0-0.9456-0.4259-0.9456-0.9499V1.4653c0-0.5245,0.4242-0.9507,0.9456-0.9507h3.5677
		c0.521,0,1.4379,2.0399,1.4379,2.0399h16.0841c0.521,0,0.9452,0.4263,0.9452,0.9507v17.0195c0,0.524-0.4242,0.9499-0.9452,0.9499
		h-3.56"/>
	
		<line fill="none" stroke="#000000" stroke-linecap="round" stroke-linejoin="round" stroke-miterlimit="10" x1="23.4715" y1="6.5253" x2="0.4911" y2="6.5253"/>
	
		<circle fill="none" stroke="#000000" stroke-linecap="round" stroke-linejoin="round" stroke-miterlimit="10" cx="12" cy="17.7054" r="1.755"/>
	<path fill="none" stroke="#000000" stroke-linecap="round" stroke-linejoin="round" stroke-miterlimit="10" d="M15.5103,20.2399
		l1.5448,0.4084c0.2725-0.4694,0.4723-0.9496,0.6125-1.4961L16.2798,18.36c0.0694-0.4518,0.0653-0.9038-0.0058-1.3428l1.3823-0.8042
		c-0.1385-0.5232-0.3487-1.0251-0.6243-1.4909l-1.5423,0.4214c-0.263-0.3591-0.5825-0.6794-0.9535-0.9472l0.4085-1.5451
		c-0.4806-0.2792-0.9614-0.4755-1.4953-0.6128l-0.792,1.3875c-0.4528-0.0699-0.9059-0.0658-1.3458,0.0055l-0.8042-1.3822
		c-0.4982,0.1319-1.0114,0.3408-1.4901,0.624l0.4214,1.5422c-0.3599,0.2636-0.6809,0.5839-0.9491,0.9559L6.9447,14.763
		c-0.2605,0.4488-0.4734,0.9548-0.612,1.495l1.3877,0.7921c-0.0697,0.4533-0.0654,0.9067,0.0063,1.347l-1.3819,0.804
		c0.133,0.5015,0.343,1.0143,0.6247,1.4898l1.5426-0.4215c0.2636,0.3593,0.5837,0.68,0.9556,0.9477l-0.4083,1.5445
		c0.4769,0.2766,0.9573,0.4738,1.4957,0.6117l0.7923-1.388c0.4523,0.0693,0.9047,0.0649,1.344-0.0066l0.804,1.3819
		c0.5231-0.1387,1.025-0.3492,1.4906-0.625l-0.4215-1.5426C14.923,20.93,15.2429,20.6106,15.5103,20.2399z"/>
</g>
<rect x="0" y="0.0001" fill="none" width="24" height="24"/>
</svg>
