<?xml version="1.0" encoding="utf-8"?>
<!-- Generator: Adobe Illustrator 18.1.0, SVG Export Plug-In . SVG Version: 6.00 Build 0)  -->
<svg version="1.1" id="Layer_1" xmlns="http://www.w3.org/2000/svg" xmlns:xlink="http://www.w3.org/1999/xlink" x="0px" y="0px"
	 width="24px" height="24px" viewBox="0 0 24 24" enable-background="new 0 0 24 24" xml:space="preserve">
<g>
	<path fill="none" stroke="#000000" stroke-linecap="round" stroke-linejoin="round" d="M14.4817,16.5032H2.2012
		c-1.0002,0-1.7149-0.8511-1.7149-1.832v-4.33c0-0.9809,0.7146-1.838,1.7149-1.838h12.4813"/>
	<path fill="none" stroke="#000000" stroke-linecap="round" stroke-linejoin="round" d="M19.3405,8.5032h2.2479
		c1.0002,0,1.8979,0.8571,1.8979,1.838v4.33c0,0.9809-0.8977,1.832-1.8979,1.832h-2.047"/>
	<circle fill="none" stroke="#000000" stroke-linecap="round" stroke-linejoin="round" cx="17.0116" cy="12.5644" r="4.6816"/>
	<circle fill="none" stroke="#000000" stroke-linecap="round" stroke-linejoin="round" cx="17.0116" cy="12.5644" r="2.882"/>
	
		<line fill="none" stroke="#000000" stroke-linecap="round" stroke-linejoin="round" x1="2.4536" y1="10.6154" x2="2.4536" y2="14.5523"/>
	
		<line fill="none" stroke="#000000" stroke-linecap="round" stroke-linejoin="round" x1="4.4537" y1="10.6154" x2="4.4537" y2="14.5523"/>
	
		<line fill="none" stroke="#000000" stroke-linecap="round" stroke-linejoin="round" x1="6.4538" y1="10.6154" x2="6.4538" y2="14.5523"/>
	
		<line fill="none" stroke="#000000" stroke-linecap="round" stroke-linejoin="round" x1="5.5024" y1="18.5033" x2="2.4536" y2="18.5033"/>
	
		<line fill="none" stroke="#000000" stroke-linecap="round" stroke-linejoin="round" x1="21.5034" y1="18.5033" x2="18.4546" y2="18.5033"/>
</g>
<rect x="-0.0136" y="0.0002" fill="none" width="24" height="24"/>
</svg>
