<?xml version="1.0" encoding="utf-8"?>
<!-- Generator: Adobe Illustrator 18.1.0, SVG Export Plug-In . SVG Version: 6.00 Build 0)  -->
<svg version="1.1" id="Layer_1" xmlns="http://www.w3.org/2000/svg" xmlns:xlink="http://www.w3.org/1999/xlink" x="0px" y="0px"
	 width="24px" height="24px" viewBox="0 0 24 24" enable-background="new 0 0 24 24" xml:space="preserve">
<g>
	<path fill="none" stroke="#000000" stroke-linecap="round" stroke-linejoin="round" d="M16.4907,17.7932
		c0,0.9413-0.7631,1.7045-1.7045,1.7045c-6.0713,0,1.6097,0-5.5903,0c-0.9413,0-1.7045-0.7631-1.7045-1.7045v-7.5471
		c0-0.9413,0.7631-1.7045,1.7045-1.7045h5.5903c0.9413,0,1.7045,0.7631,1.7045,1.7045V17.7932z"/>
	
		<line fill="none" stroke="#000000" stroke-linecap="round" stroke-linejoin="round" x1="10.5007" y1="12.4824" x2="10.5007" y2="8.5416"/>
	
		<line fill="none" stroke="#000000" stroke-linecap="round" stroke-linejoin="round" x1="13.501" y1="12.4824" x2="13.501" y2="8.5416"/>
	
		<line fill="none" stroke="#000000" stroke-linecap="round" stroke-linejoin="round" x1="10.5007" y1="19.4831" x2="10.5007" y2="15.5423"/>
	
		<line fill="none" stroke="#000000" stroke-linecap="round" stroke-linejoin="round" x1="13.501" y1="19.4831" x2="13.501" y2="15.5423"/>
	<path fill="none" stroke="#000000" stroke-linecap="round" stroke-linejoin="round" stroke-miterlimit="10" d="M20.5,22.6665
		c0,0.441-0.4063,0.8315-0.8661,0.8315H4.3728c-0.4588,0-0.8728-0.3905-0.8728-0.8315V1.3203c0-0.4407,0.4139-0.8223,0.8728-0.8223
		h11.7811c0.2182,0,0.4275,0.0946,0.5827,0.2416l3.4985,3.3035C20.3929,4.1928,20.5,4.4036,20.5,4.6172V22.6665z"/>
</g>
<rect x="0" y="-0.002" fill="none" width="24" height="24"/>
</svg>
