<?xml version="1.0" encoding="utf-8"?>
<!-- Generator: Adobe Illustrator 18.1.0, SVG Export Plug-In . SVG Version: 6.00 Build 0)  -->
<svg version="1.1" id="Layer_1" xmlns="http://www.w3.org/2000/svg" xmlns:xlink="http://www.w3.org/1999/xlink" x="0px" y="0px"
	 width="24px" height="24px" viewBox="0 0 24 24" enable-background="new 0 0 24 24" xml:space="preserve">
<g>
	<path fill="none" stroke="#000000" stroke-linecap="round" stroke-linejoin="round" stroke-miterlimit="10" d="M16.5204,13.9111
		c-0.182-0.1842-0.4766-0.1896-0.6681-0.0122c0,0-1.367,1.3377-1.4575,1.4214c-0.0224,0.0222-0.0471,0.0397-0.0752,0.0539
		c-1.4216,0.72-6.5528-4.7735-5.5739-5.8065l1.4627-1.4333c0.1895-0.1865,0.1903-0.4912,0.0066-0.677L5.4278,2.5759
		C5.3392,2.4851,5.2175,2.4335,5.0906,2.4325c-0.1274-0.001-0.2486,0.0491-0.34,0.1376C2.3534,4.9234-1.4895,7.29,7.4882,16.4469
		c8.8603,9.0359,11.4004,5.6114,13.8459,2.9815c0.1757-0.1881,0.1709-0.4806-0.0085-0.6636L16.5204,13.9111z"/>
	<path fill="none" stroke="#000000" stroke-linecap="round" stroke-linejoin="round" stroke-miterlimit="10" d="M20.6787,10.3419
		c0.1292-3.9311-3.0673-7.1212-6.9922-6.9922"/>
	<path fill="none" stroke="#000000" stroke-linecap="round" stroke-linejoin="round" stroke-miterlimit="10" d="M24.0682,10.3419
		c0.127-5.7994-4.5765-10.5089-10.3817-10.3817"/>
	<path fill="none" stroke="#000000" stroke-linecap="round" stroke-linejoin="round" stroke-miterlimit="10" d="M13.6865,6.7393
		c2.0505-0.1349,3.7375,1.5534,3.6026,3.6026"/>
</g>
<rect x="1" y="-1.002" fill="none" width="24" height="24"/>
</svg>
