<?xml version="1.0" encoding="utf-8"?>
<!-- Generator: Adobe Illustrator 18.1.0, SVG Export Plug-In . SVG Version: 6.00 Build 0)  -->
<svg version="1.1" id="Layer_1" xmlns="http://www.w3.org/2000/svg" xmlns:xlink="http://www.w3.org/1999/xlink" x="0px" y="0px"
	 width="24px" height="24px" viewBox="0 0 24 24" enable-background="new 0 0 24 24" xml:space="preserve">
<rect x="-0.0008" y="-0.0146" fill="none" width="24" height="24"/>
<g>
	
		<line fill="none" stroke="#000000" stroke-linecap="round" stroke-linejoin="round" x1="11.9414" y1="0.5559" x2="11.9414" y2="2.3991"/>
	
		<line fill="none" stroke="#000000" stroke-linecap="round" stroke-linejoin="round" x1="11.9414" y1="14.7386" x2="11.9414" y2="21.0955"/>
	<path fill="none" stroke="#000000" stroke-linecap="round" stroke-linejoin="round" d="M16.4825,21.0955
		c0,1.254-1.0166,2.2704-2.2706,2.2704s-2.2706-1.0164-2.2706-2.2704"/>
	<path fill="none" stroke="#000000" stroke-linecap="round" stroke-linejoin="round" d="M3.3997,10.6024
		c1.2541,0,2.317,0.8071,2.705,1.9292h0.3184c0.3881-1.1221,1.451-1.9292,2.7051-1.9292s2.317,0.8071,2.7051,1.9292h0.2085
		c0.3878-1.1221,1.451-1.9292,2.7051-1.9292c1.2538,0,2.317,0.8071,2.7048,1.9292h0.3187c0.3878-1.1221,1.451-1.9292,2.7048-1.9292
		c1.2541,0,2.3173,0.8071,2.7051,1.9292h0.2239c0-5.596-5.1194-10.1325-11.4345-10.1325c-6.3148,0-11.4342,4.5365-11.4342,10.1325
		h0.1592C1.0827,11.4095,2.1456,10.6024,3.3997,10.6024z"/>
</g>
</svg>
