<?xml version="1.0" encoding="utf-8"?>
<!-- Generator: Adobe Illustrator 18.1.0, SVG Export Plug-In . SVG Version: 6.00 Build 0)  -->
<svg version="1.1" id="Layer_1" xmlns="http://www.w3.org/2000/svg" xmlns:xlink="http://www.w3.org/1999/xlink" x="0px" y="0px"
	 width="24px" height="24px" viewBox="0 0 24 24" enable-background="new 0 0 24 24" xml:space="preserve">
<g>
	<path fill="none" stroke="#000000" stroke-linecap="round" stroke-linejoin="round" stroke-miterlimit="10" d="M22.4414,20.4182
		c0.4583,0,1.0449-0.3903,1.0449-0.8719v-2.3079c0-0.8598-0.7055-1.5913-1.5142-1.7231L16.9864,14.5l-1.9883-4.4956
		C14.8647,9.69,14.5405,9.5,14.2129,9.5H3.3759c-0.4583,0-0.8895,0.3651-0.8895,0.8466v8.9783c0,0.3525,0.2319,0.6703,0.5417,0.8053
		l0.7302,0.288"/>
	
		<rect x="0.4864" y="13.5" fill="none" stroke="#000000" stroke-linecap="round" stroke-linejoin="round" stroke-miterlimit="10" width="2" height="5"/>
	
		<line fill="none" stroke="#000000" stroke-linecap="round" stroke-linejoin="round" stroke-miterlimit="10" x1="2.5461" y1="14.5" x2="16.9864" y2="14.5"/>
	
		<line fill="none" stroke="#000000" stroke-linecap="round" stroke-linejoin="round" stroke-miterlimit="10" x1="10.4864" y1="9.5101" x2="10.4864" y2="14.4714"/>
	
		<line fill="none" stroke="#000000" stroke-linecap="round" stroke-linejoin="round" stroke-miterlimit="10" x1="6.4864" y1="9.5101" x2="6.4864" y2="14.4714"/>
	<path fill="none" stroke="#000000" stroke-linecap="round" stroke-linejoin="round" stroke-miterlimit="10" d="M12.888,7.6303
		c0-1.2484-1.0121-2.1303-2.2605-2.1303H6.6047c-1.2484,0-2.2605,0.8818-2.2605,2.1303H12.888z"/>
	
		<line fill="none" stroke="#000000" stroke-linecap="round" stroke-linejoin="round" x1="7.4689" y1="21.5002" x2="7.4689" y2="21.5002"/>
	
		<line fill="none" stroke="#000000" stroke-linecap="round" stroke-linejoin="round" x1="18.4568" y1="21.5002" x2="18.4568" y2="21.5002"/>
	
		<line fill="none" stroke="#000000" stroke-linecap="round" stroke-linejoin="round" stroke-miterlimit="10" x1="11.5106" y1="21.5002" x2="14.4629" y2="21.5002"/>
	<circle fill="none" stroke="#000000" stroke-linecap="round" stroke-linejoin="round" cx="7.4689" cy="21.5002" r="1.948"/>
	<circle fill="none" stroke="#000000" stroke-linecap="round" stroke-linejoin="round" cx="18.4568" cy="21.5002" r="1.948"/>
</g>
<rect x="-0.0136" y="0" fill="none" width="24" height="24"/>
</svg>
