<?xml version="1.0" encoding="utf-8"?>
<!-- Generator: Adobe Illustrator 18.1.0, SVG Export Plug-In . SVG Version: 6.00 Build 0)  -->
<svg version="1.1" id="Layer_1" xmlns="http://www.w3.org/2000/svg" xmlns:xlink="http://www.w3.org/1999/xlink" x="0px" y="0px"
	 width="24px" height="24px" viewBox="0 0 24 24" enable-background="new 0 0 24 24" xml:space="preserve">
<g>
	<path fill="none" stroke="#000000" stroke-linecap="round" stroke-linejoin="round" stroke-miterlimit="10" d="M18.5872,20.498
		c2.4744,0,4.5648-2.2414,4.5648-4.8932c0-2.7427-2.2671-5.1808-5.0856-4.8642c-0.6014-2.2602-2.4943-4.0263-5.2151-3.6367
		c-3.6253-3.5285-9.0374-1.1292-9.8241,4.3911c-4.0818,2.9097-1.9455,9.003,2.1508,9.003H18.5872z"/>
	<path fill="none" stroke="#000000" stroke-linecap="round" stroke-linejoin="round" stroke-miterlimit="10" d="M14.8108,13.0327
		c-0.4185-1.435-1.7414-2.4844-3.3116-2.4844c-1.5701,0-2.8931,1.0494-3.3116,2.4844"/>
	<polyline fill="none" stroke="#000000" stroke-linecap="round" stroke-linejoin="round" stroke-miterlimit="10" points="
		15.4847,11.34 14.8274,13.0327 13.1348,12.3753 	"/>
	<path fill="none" stroke="#000000" stroke-linecap="round" stroke-linejoin="round" stroke-miterlimit="10" d="M8.2144,14.967
		c0.4185,1.435,1.7414,2.4844,3.3116,2.4844c1.5701,0,2.8931-1.0494,3.3116-2.4844"/>
	<polyline fill="none" stroke="#000000" stroke-linecap="round" stroke-linejoin="round" stroke-miterlimit="10" points="
		7.5405,16.6596 8.1978,14.967 9.8904,15.6243 	"/>
</g>
<rect x="0" y="0.0001" fill="none" width="24" height="24"/>
</svg>
