<?xml version="1.0" encoding="utf-8"?>
<!-- Generator: Adobe Illustrator 18.1.0, SVG Export Plug-In . SVG Version: 6.00 Build 0)  -->
<svg version="1.1" id="Layer_1" xmlns="http://www.w3.org/2000/svg" xmlns:xlink="http://www.w3.org/1999/xlink" x="0px" y="0px"
	 width="24px" height="24px" viewBox="0 0 24 24" enable-background="new 0 0 24 24" xml:space="preserve">
<g>
	<circle fill="none" stroke="#000000" stroke-linecap="round" stroke-linejoin="round" cx="11.965" cy="9.0643" r="4.8885"/>
	<path fill="none" stroke="#000000" stroke-linecap="round" stroke-linejoin="round" d="M11.9911,4.1757
		c1.3499,0,2.4443,2.1887,2.4443,4.8885c0,2.6998-1.0944,4.8886-2.4443,4.8886"/>
	<path fill="none" stroke="#000000" stroke-linecap="round" stroke-linejoin="round" d="M11.9508,4.1757
		c-1.3499,0-2.4443,2.1887-2.4443,4.8885c0,2.6998,1.0943,4.8886,2.4443,4.8886"/>
	
		<line fill="none" stroke="#000000" stroke-linecap="round" stroke-linejoin="round" x1="11.965" y1="4.1757" x2="11.965" y2="13.9529"/>
	
		<line fill="none" stroke="#000000" stroke-linecap="round" stroke-linejoin="round" x1="16.8536" y1="9.0643" x2="7.0764" y2="9.0643"/>
	
		<line fill="none" stroke="#000000" stroke-linecap="round" stroke-linejoin="round" x1="16.279" y1="6.8186" x2="7.6227" y2="6.8186"/>
	
		<line fill="none" stroke="#000000" stroke-linecap="round" stroke-linejoin="round" x1="16.279" y1="11.3422" x2="7.7031" y2="11.3422"/>
	<path fill="none" stroke="#000000" stroke-linecap="round" stroke-linejoin="round" d="M18.7543,23.5H3.4864v-23h15.268
		c0.9,0,1.732,0.7734,1.732,1.6734v19.6532C20.4864,22.7266,19.6543,23.5,18.7543,23.5z"/>
	<path fill="none" stroke="#000000" stroke-linecap="round" stroke-linejoin="round" stroke-miterlimit="10" d="M12.6024,19.9727
		c0.2586,0.2066,0.6575,0.3618,0.9454,0.3618c0.4606,0,0.8341-0.2996,0.8341-0.6692s-0.3987-0.5525-0.8341-0.6692
		c-0.4512-0.1298-0.8341-0.2996-0.8341-0.6692c0-0.3696,0.3734-0.6692,0.8341-0.6692c0.3102,0,0.5808,0.1358,0.7245,0.3374"/>
	<path fill="none" stroke="#000000" stroke-linecap="round" stroke-linejoin="round" stroke-miterlimit="10" d="M15.56,19.9727
		c0.2586,0.2066,0.6575,0.3618,0.9454,0.3618c0.4606,0,0.8341-0.2996,0.8341-0.6692s-0.3987-0.5525-0.8341-0.6692
		c-0.4512-0.1298-0.8341-0.2996-0.8341-0.6692c0-0.3696,0.3734-0.6692,0.8341-0.6692c0.3102,0,0.5808,0.1358,0.7245,0.3374"/>
	<g>
		<polyline fill="none" stroke="#000000" stroke-linecap="round" stroke-linejoin="round" points="11.483,20.3484 10.303,17.6636 
			9.1229,20.3484 		"/>
		
			<line fill="none" stroke="#000000" stroke-linecap="round" stroke-linejoin="round" x1="11.1102" y1="19.5003" x2="9.4957" y2="19.5003"/>
	</g>
	<path fill="none" stroke="#000000" stroke-linecap="round" stroke-linejoin="round" d="M6.6439,20.3485v-2.6847h1.0073
		c1.1723-0.0427,1.1404,1.443,0,1.4525l-1.0073,0.0022"/>
</g>
<rect x="-0.0136" y="0" fill="none" width="24" height="24"/>
</svg>
