<?xml version="1.0" encoding="utf-8"?>
<!-- Generator: Adobe Illustrator 18.1.1, SVG Export Plug-In . SVG Version: 6.00 Build 0)  -->
<svg version="1.1" id="Layer_1" xmlns="http://www.w3.org/2000/svg" xmlns:xlink="http://www.w3.org/1999/xlink" x="0px" y="0px"
	 width="24px" height="24px" viewBox="0 0 24 24" enable-background="new 0 0 24 24" xml:space="preserve">
<rect y="-0.0687" fill="none" width="24" height="24"/>
<g>
	<path fill="none" stroke="#000000" stroke-linecap="round" stroke-linejoin="round" d="M11.5,13.4312v-7.5
		c0-0.8284,0.6716-1.5,1.5-1.5l0,0c0.8284,0,1.5,0.6716,1.5,1.5v8.5"/>
	<path fill="none" stroke="#000000" stroke-linecap="round" stroke-linejoin="round" d="M16.4313,5.8625
		c0-1.895-1.5362-3.4313-3.4313-3.4313c-0.9703,0-1.8424,0.4064-2.4665,1.0538C10.3585,3.4574,10.1827,3.4312,10,3.4312
		c-1.895,0-3.4313,1.5363-3.4313,3.4313"/>
	<path fill="none" stroke="#000000" stroke-linecap="round" stroke-linejoin="round" d="M18.4418,5.873
		c0-3.0055-2.4364-5.4418-5.4418-5.4418c-1.1738,0-2.258,0.3753-3.1469,1.0074C6.9162,1.5171,4.5583,3.9171,4.5583,6.873"/>
	<path fill="none" stroke="#000000" stroke-linecap="round" stroke-linejoin="round" d="M17.5,14.9312v-2
		c0-0.8284-0.6716-1.5-1.5-1.5s-1.5,0.6716-1.5,1.5v1.5"/>
	<path fill="none" stroke="#000000" stroke-linecap="round" stroke-linejoin="round" d="M8.5,17.4312v-10.5
		c0-0.8284,0.6716-1.5,1.5-1.5s1.5,0.6716,1.5,1.5v6.5"/>
	<path fill="none" stroke="#000000" stroke-linecap="round" stroke-linejoin="round" d="M9.0536,23.398
		c-0.4366-1.0594-1.2452-1.7737-1.2452-1.7737c-2.2758-2.6511-4.1385-7.8779-4.1385-7.8779
		c-0.5818-1.5194,1.3361-2.1632,1.947-1.2011l0.8321,1.3859l2.051,3.5"/>
	<path fill="none" stroke="#000000" stroke-linecap="round" stroke-linejoin="round" d="M17.6212,23.398
		c0.1479-0.8532,0.4797-2.1846,1.2274-3.6532c1.0508-2.0638,1.3415-4.766,1.3415-4.766c0-0.8284-0.3617-1.5476-1.1901-1.5476
		s-1.5,0.6716-1.5,1.5"/>
	
		<line fill="none" stroke="#000000" stroke-linecap="round" stroke-linejoin="round" x1="17.5" y1="14.9312" x2="17.5" y2="15.4312"/>
</g>
</svg>
