<?xml version="1.0" encoding="utf-8"?>
<!-- Generator: Adobe Illustrator 18.1.0, SVG Export Plug-In . SVG Version: 6.00 Build 0)  -->
<svg version="1.1" id="Layer_1" xmlns="http://www.w3.org/2000/svg" xmlns:xlink="http://www.w3.org/1999/xlink" x="0px" y="0px"
	 width="24px" height="24px" viewBox="0 0 24 24" enable-background="new 0 0 24 24" xml:space="preserve">
<g>
	<polyline fill="none" stroke="#000000" stroke-linecap="round" stroke-linejoin="round" stroke-miterlimit="10" points="
		9.9897,8.5113 4.8411,8.5113 0.5045,13.5525 	"/>
	<polyline fill="none" stroke="#000000" stroke-linecap="round" stroke-linejoin="round" stroke-miterlimit="10" points="
		23.5054,13.5525 19.1687,8.5113 14.0107,8.5113 	"/>
	<path fill="none" stroke="#000000" stroke-linecap="round" stroke-linejoin="round" stroke-miterlimit="10" d="M16.4914,13.5525
		v2.2915c0,0.9281-0.7524,1.6804-1.6805,1.6804H9.2504c-0.9281,0-1.6804-0.7524-1.6804-1.6804v-2.2915H0.5045v8.102
		c0,1.022,0.8362,1.8582,1.8582,1.8582h19.2845c1.022,0,1.8582-0.8362,1.8582-1.8582v-8.102H16.4914z"/>
	
		<line fill="none" stroke="#000000" stroke-linecap="round" stroke-linejoin="round" stroke-miterlimit="10" x1="12.0001" y1="0.6059" x2="12.0001" y2="13.2347"/>
	<polyline fill="none" stroke="#000000" stroke-linecap="round" stroke-linejoin="round" stroke-miterlimit="10" points="
		8.8507,3.7553 12.0001,0.6059 15.1496,3.7553 	"/>
</g>
<rect x="0" y="0.0001" fill="none" width="24" height="24"/>
</svg>
