<?xml version="1.0" encoding="utf-8"?>
<!-- Generator: Adobe Illustrator 18.1.0, SVG Export Plug-In . SVG Version: 6.00 Build 0)  -->
<svg version="1.1" id="Layer_1" xmlns="http://www.w3.org/2000/svg" xmlns:xlink="http://www.w3.org/1999/xlink" x="0px" y="0px"
	 width="24px" height="24px" viewBox="0 0 24 24" enable-background="new 0 0 24 24" xml:space="preserve">
<g>
	<path fill="none" stroke="#000000" stroke-linecap="round" stroke-linejoin="round" d="M14.5048,2.5031
		c0-1.1167-0.9141-2.0313-2.0317-2.0313h-8.936c-1.1176,0-2.0317,0.9146-2.0317,2.0313v18.9727c0,1.1173,0.9141,2.031,2.0317,2.031
		h8.936c1.1176,0,2.0317-0.9137,2.0317-2.031V15.477"/>
	<circle fill="none" stroke="#000000" stroke-linecap="round" stroke-linejoin="round" cx="8.0051" cy="21.0278" r="0.8533"/>
	<polyline fill="none" stroke="#000000" stroke-linecap="round" stroke-linejoin="round" points="14.514,18.498 1.514,18.498 
		1.514,3.498 10.6663,3.498 	"/>
	<path fill="none" stroke="#000000" stroke-linecap="round" stroke-linejoin="round" d="M12.5096,13.2367
		c-2-0.4473-3.9759-2.6774-3.9759-5.327c0-2.973,2.2858-5.4117,5.0047-5.4117h4.9828c2.719,0,4.9233,2.5271,4.9233,5.5001
		c0,2.9728-2.2043,5.4999-4.9233,5.4999h-1.5695l-4.4421,3.5926V13.2367z"/>
	<path fill="none" stroke="#000000" stroke-linecap="round" stroke-linejoin="round" stroke-miterlimit="10" d="M16.1159,9.3149
		c-0.0067,0.0067-0.0142,0.012-0.0227,0.0163c-0.4278,0.2167-1.9756-1.4392-1.6805-1.7507c0.1776-0.1741,0.6007-0.4767,0.443-0.6363
		c-0.0685-0.0698-1.4472-1.5142-1.545-1.515c-0.0937-0.0007-0.5,0.4304-0.5658,0.497c-0.5508,0.5627-0.9014,1.4945,1.2887,3.7283
		c1.4667,1.4958,2.552,2.0346,3.3179,1.6472l0.0003-0.0001c0.2351-0.119,0.6791-0.5575,0.8564-0.7481
		c0.053-0.0567,0.0515-0.1449-0.0026-0.2001C16.4253,8.5552,16.8791,8.6091,16.1159,9.3149z"/>
	<path fill="none" stroke="#000000" stroke-linecap="round" stroke-linejoin="round" stroke-miterlimit="10" d="M17.6952,7.8667
		c0.0341-1.0377-0.8097-1.8798-1.8457-1.8457"/>
	<path fill="none" stroke="#000000" stroke-linecap="round" stroke-linejoin="round" stroke-miterlimit="10" d="M18.921,7.5356
		c0.0335-1.5309-1.208-2.774-2.7404-2.7404"/>
</g>
<rect x="0" y="-0.002" fill="none" width="24" height="24"/>
</svg>
