<?xml version="1.0" encoding="utf-8"?>
<!-- Generator: Adobe Illustrator 18.1.1, SVG Export Plug-In . SVG Version: 6.00 Build 0)  -->
<svg version="1.1" id="Layer_1" xmlns="http://www.w3.org/2000/svg" xmlns:xlink="http://www.w3.org/1999/xlink" x="0px" y="0px"
	 width="24px" height="24px" viewBox="0 0 24 24" enable-background="new 0 0 24 24" xml:space="preserve">
<rect fill="none" width="24" height="24"/>
<g>
	<path fill="none" stroke="#000000" stroke-linecap="round" stroke-linejoin="round" d="M13.4521,23.3075
		c0,0-1.6249-4.1641-4.3239-5.6773c-2.2819-1.2793-2.2013-2.6831-3.5576-4.4862c0,0-1.781-2.1624-1.5771-2.7548
		c0.4675-0.4084,0.854-0.6102,1.9177,0.1604l3.3621,2.936C10.1696,12.0201,9.635,9.302,9.521,8.7805L7.9353,1.7862
		C7.8183,1.284,8.1468,0.7858,8.6689,0.6733l0.0454-0.0098c0.504-0.1086,1.0081,0.1822,1.1456,0.6611l2.6979,9.7927l0.103,0.0174
		L11.969,8.0822C11.852,7.58,12.1888,7.08,12.7209,6.9653l0.0463-0.0099c0.5138-0.1107,1.0259,0.1784,1.1639,0.6571l1.0835,3.921
		l0.0943,0.016l-0.5881-2.753c-0.117-0.5021,0.2114-1.0004,0.7335-1.1128l0.0455-0.0098c0.504-0.1086,1.008,0.1822,1.1456,0.6611
		l1.0405,3.5665l-0.3011-1.983c-0.0868-0.5078,0.271-0.987,0.799-1.0704l0.0458-0.0073c0.5098-0.0805,0.9956,0.2378,1.1042,0.7235
		l0,0c0.386,1.6925,0.4873,3.434,0.2916,5.1565c-0.2196,1.934-0.0436,4.1129,0.4896,5.4803
		c0.9088,2.3301,0.8241,2.7996,0.8241,2.7996"/>
</g>
</svg>
