<?xml version="1.0" encoding="utf-8"?>
<!-- Generator: Adobe Illustrator 18.1.0, SVG Export Plug-In . SVG Version: 6.00 Build 0)  -->
<svg version="1.1" id="Layer_1" xmlns="http://www.w3.org/2000/svg" xmlns:xlink="http://www.w3.org/1999/xlink" x="0px" y="0px"
	 width="24px" height="24px" viewBox="0 0 24 24" enable-background="new 0 0 24 24" xml:space="preserve">
<g>
	
		<line fill="none" stroke="#000000" stroke-linecap="round" stroke-linejoin="round" stroke-miterlimit="10" x1="16.0704" y1="17.5097" x2="6.0287" y2="17.5097"/>
	
		<line fill="none" stroke="#000000" stroke-linecap="round" stroke-linejoin="round" stroke-miterlimit="10" x1="16.0704" y1="14.5097" x2="6.0287" y2="14.5097"/>
	
		<line fill="none" stroke="#000000" stroke-linecap="round" stroke-linejoin="round" stroke-miterlimit="10" x1="16.0704" y1="11.5097" x2="6.0287" y2="11.5097"/>
	
		<line fill="none" stroke="#000000" stroke-linecap="round" stroke-linejoin="round" stroke-miterlimit="10" x1="11.6074" y1="8.5097" x2="6.0287" y2="8.5097"/>
	
		<line fill="none" stroke="#000000" stroke-linecap="round" stroke-linejoin="round" x1="20.7958" y1="0.5097" x2="5.0736" y2="0.5101"/>
	<path fill="none" stroke="#000000" stroke-linecap="round" stroke-linejoin="round" d="M5.0736,0.5097
		c1.4286,0,2.5865,1.1168,2.5865,2.4941c0,1.3775-1.1579,2.4941-2.5865,2.4941h15.7221c1.4286,0,2.5865-1.1166,2.5865-2.4941
		c0-1.3773-1.1579-2.4941-2.5865-2.4941H5.0736z"/>
	<path fill="none" stroke="#000000" stroke-linecap="round" stroke-linejoin="round" d="M5.026,0.5097
		c-1.3777,0-2.4941,1.1168-2.4941,2.4941h0.0016v17.8225h0.0116l2.3962,2.56l2.9945-3.1995l3.0867,3.2974l3.0864-3.2974
		l3.0867,3.2974l2.3377-2.4533V5.4979"/>
</g>
<rect x="0" y="0.0001" fill="none" width="24" height="24"/>
</svg>
