<?xml version="1.0" encoding="utf-8"?>
<!-- Generator: Adobe Illustrator 18.1.0, SVG Export Plug-In . SVG Version: 6.00 Build 0)  -->
<svg version="1.1" id="Layer_1" xmlns="http://www.w3.org/2000/svg" xmlns:xlink="http://www.w3.org/1999/xlink" x="0px" y="0px"
	 width="24px" height="24px" viewBox="0 0 24 24" enable-background="new 0 0 24 24" xml:space="preserve">
<g>
	<polyline fill="none" stroke="#000000" stroke-linecap="round" stroke-linejoin="round" stroke-miterlimit="10" points="
		19.5468,15.7358 18.5778,21.4283 0.7273,18.4456 2.5258,7.6822 11.2884,9.1469 	"/>
	<path fill="none" stroke="#000000" stroke-linecap="round" stroke-linejoin="round" stroke-miterlimit="10" d="M1.2115,15.5481
		c1.6002,0.2674,2.6807,1.7814,2.4133,3.3816"/>
	<path fill="none" stroke="#000000" stroke-linecap="round" stroke-linejoin="round" stroke-miterlimit="10" d="M15.5371,20.8577
		c0.2964-1.5861,1.7753-2.7349,3.5506-2.4248"/>
	<path fill="none" stroke="#000000" stroke-linecap="round" stroke-linejoin="round" stroke-miterlimit="10" d="M5.4233,8.1664
		c-0.2674,1.6002-1.7814,2.6807-3.3816,2.4133"/>
	<path fill="none" stroke="#000000" stroke-linecap="round" stroke-linejoin="round" stroke-miterlimit="10" d="M15.2457,10.3217
		c-0.2976,0.0679-0.6456,0.1038-0.9638,0.1038c-2.2885,0-4.1438-1.8552-4.1438-4.1438s1.8552-4.1438,4.1438-4.1438
		s4.1438,1.8552,4.1438,4.1438c0,0.4291-0.0652,0.9043-0.1863,1.2936"/>
	
		<circle fill="none" stroke="#000000" stroke-linecap="round" stroke-linejoin="round" stroke-miterlimit="10" cx="19.1962" cy="11.6074" r="4.1438"/>
	<path fill="none" stroke="#000000" stroke-linecap="round" stroke-linejoin="round" stroke-miterlimit="10" d="M8.3247,16.205
		c0.398,0.5044,1.0736,0.9542,1.6037,1.0542c0.8481,0.16,1.6491-0.3114,1.789-1.0529c0.1399-0.7415-0.525-1.2469-1.2823-1.6324
		c-0.7816-0.4171-1.4222-0.8909-1.2823-1.6324c0.1399-0.7415,0.9409-1.2129,1.789-1.0529c0.5711,0.1078,1.0179,0.4743,1.2062,0.9287
		"/>
	
		<line fill="none" stroke="#000000" stroke-linecap="round" stroke-linejoin="round" stroke-miterlimit="10" x1="11.1301" y1="10.8903" x2="9.74" y2="18.2577"/>
	<path fill="none" stroke="#000000" stroke-linecap="round" stroke-linejoin="round" stroke-miterlimit="10" d="M18.0237,13.1042
		c0.3622,0.3152,0.9206,0.552,1.3237,0.552c0.645,0,1.1679-0.4572,1.1679-1.0211c0-0.5639-0.5583-0.8429-1.1679-1.0211
		c-0.6318-0.198-1.1679-0.4572-1.1679-1.0211s0.5229-1.0211,1.1679-1.0211c0.4343,0,0.8132,0.2073,1.0144,0.5148"/>
	
		<line fill="none" stroke="#000000" stroke-linecap="round" stroke-linejoin="round" stroke-miterlimit="10" x1="19.3474" y1="9.0139" x2="19.3474" y2="9.5719"/>
	
		<line fill="none" stroke="#000000" stroke-linecap="round" stroke-linejoin="round" stroke-miterlimit="10" x1="19.3474" y1="13.6562" x2="19.3474" y2="14.2142"/>
	<path fill="none" stroke="#000000" stroke-linecap="round" stroke-linejoin="round" stroke-miterlimit="10" d="M13.0361,7.7361
		c0.3622,0.3152,0.9206,0.552,1.3237,0.552c0.645,0,1.1679-0.4572,1.1679-1.0211s-0.5583-0.8429-1.1679-1.0211
		c-0.6318-0.198-1.1679-0.4572-1.1679-1.0211s0.5229-1.0211,1.1679-1.0211c0.4343,0,0.8132,0.2073,1.0144,0.5148"/>
	
		<line fill="none" stroke="#000000" stroke-linecap="round" stroke-linejoin="round" stroke-miterlimit="10" x1="14.3598" y1="3.6458" x2="14.3598" y2="4.2038"/>
	
		<line fill="none" stroke="#000000" stroke-linecap="round" stroke-linejoin="round" stroke-miterlimit="10" x1="14.3598" y1="8.4492" x2="14.3598" y2="8.7572"/>
</g>
<rect x="0.0075" y="-0.006" fill="none" width="24" height="24"/>
</svg>
