<?xml version="1.0" encoding="utf-8"?>
<!-- Generator: Adobe Illustrator 18.1.0, SVG Export Plug-In . SVG Version: 6.00 Build 0)  -->
<svg version="1.1" id="Layer_1" xmlns="http://www.w3.org/2000/svg" xmlns:xlink="http://www.w3.org/1999/xlink" x="0px" y="0px"
	 width="24px" height="24px" viewBox="0 0 24 24" enable-background="new 0 0 24 24" xml:space="preserve">
<g>
	<path fill="none" stroke="#000000" stroke-linecap="round" stroke-linejoin="round" d="M17.2412,5.8151
		c3.6263,0.5065,6.1053,1.5296,6.1053,2.7092c0,4.0145-22.5404,4.0139-22.5404,0c0-1.1795,2.4784-2.2025,6.1039-2.709"/>
	<path fill="none" stroke="#000000" stroke-linecap="round" stroke-linejoin="round" d="M12.0763,0.6153
		c-2.9825,0-5.3579,2.3949-5.16,5.2438c0.9636,0.5053,2.9125,0.8509,5.16,0.8509c2.2475,0,4.1964-0.3456,5.16-0.8509
		C17.4345,3.0079,15.0563,0.6153,12.0763,0.6153z"/>
	
		<line fill="none" stroke="#000000" stroke-linecap="round" stroke-linejoin="round" x1="17.2065" y1="22.8886" x2="14.8847" y2="13.8351"/>
	
		<line fill="none" stroke="#000000" stroke-linecap="round" stroke-linejoin="round" x1="9.2508" y1="13.8351" x2="6.9304" y2="22.885"/>
	
		<line fill="none" stroke="#000000" stroke-linecap="round" stroke-linejoin="round" x1="12.0763" y1="9.0126" x2="12.0763" y2="9.0126"/>
	<line fill="none" stroke="#000000" stroke-linecap="round" stroke-linejoin="round" x1="8.723" y1="8.909" x2="8.723" y2="8.909"/>
	
		<line fill="none" stroke="#000000" stroke-linecap="round" stroke-linejoin="round" x1="5.3696" y1="8.4215" x2="5.3696" y2="8.4215"/>
	
		<line fill="none" stroke="#000000" stroke-linecap="round" stroke-linejoin="round" x1="15.4297" y1="8.909" x2="15.4297" y2="8.909"/>
	
		<line fill="none" stroke="#000000" stroke-linecap="round" stroke-linejoin="round" x1="18.783" y1="8.4215" x2="18.783" y2="8.4215"/>
	
		<line fill="none" stroke="#000000" stroke-linecap="round" stroke-linejoin="round" x1="12.0765" y1="13.8351" x2="12.0765" y2="23.3908"/>
</g>
<rect x="0.0172" y="0.0031" fill="none" width="24" height="24"/>
</svg>
