<?xml version="1.0" encoding="utf-8"?>
<!-- Generator: Adobe Illustrator 18.1.0, SVG Export Plug-In . SVG Version: 6.00 Build 0)  -->
<svg version="1.1" id="Layer_1" xmlns="http://www.w3.org/2000/svg" xmlns:xlink="http://www.w3.org/1999/xlink" x="0px" y="0px"
	 width="24px" height="24px" viewBox="0 0 24 24" enable-background="new 0 0 24 24" xml:space="preserve">
<g>
	<path fill="none" stroke="#000000" stroke-linecap="round" stroke-linejoin="round" stroke-miterlimit="10" d="M23.1968,12.3537
		c-8.2757-8.1965-6.5729-6.51-11.7405-11.628c-0.3259-0.3227-0.7435-0.2475-1.23-0.2457L1.3421,0.5222
		c-0.497,0.0074-0.8558,0.408-0.8536,0.8629l0.0459,9.5072c0.0009,0.2262,0.0932,0.4439,0.2538,0.6052l11.7403,11.6269
		c0.3424,0.3384,0.8947,0.3153,1.2127-0.0059l9.4604-9.5513C23.5366,13.2303,23.5335,12.6862,23.1968,12.3537z"/>
	
		<circle fill="none" stroke="#000000" stroke-linecap="round" stroke-linejoin="round" stroke-miterlimit="10" cx="5.5424" cy="5.5153" r="1.9459"/>
	
		<ellipse transform="matrix(0.7071 0.7071 -0.7071 0.7071 15.5572 -4.5655)" fill="none" stroke="#000000" stroke-linecap="round" stroke-linejoin="round" cx="13.2896" cy="16.4965" rx="1.6446" ry="1.9977"/>
	
		<ellipse transform="matrix(0.7071 0.7071 -0.7071 0.7071 10.757 -6.2403)" fill="none" stroke="#000000" stroke-linecap="round" stroke-linejoin="round" cx="12.9112" cy="9.8647" rx="1.6446" ry="1.9977"/>
	
		<line fill="none" stroke="#000000" stroke-linecap="round" stroke-linejoin="round" x1="18.0267" y1="12.335" x2="8.063" y2="13.9296"/>
</g>
<rect x="-0.0137" y="0.0001" fill="none" width="24" height="24"/>
</svg>
