<?xml version="1.0" encoding="utf-8"?>
<!-- Generator: Adobe Illustrator 18.1.0, SVG Export Plug-In . SVG Version: 6.00 Build 0)  -->
<svg version="1.1" id="Layer_1" xmlns="http://www.w3.org/2000/svg" xmlns:xlink="http://www.w3.org/1999/xlink" x="0px" y="0px"
	 width="24px" height="24px" viewBox="0 0 24 24" enable-background="new 0 0 24 24" xml:space="preserve">
<g>
	
		<line fill="none" stroke="#000000" stroke-linecap="round" stroke-linejoin="round" x1="20.6097" y1="10.5244" x2="18.762" y2="10.5244"/>
	
		<line fill="none" stroke="#000000" stroke-linecap="round" stroke-linejoin="round" stroke-miterlimit="10" x1="19.5974" y1="7.4981" x2="18.2703" y2="7.4981"/>
	<path fill="none" stroke="#000000" stroke-linecap="round" stroke-linejoin="round" d="M6.503,3.4958
		c5.3717-1.8357,11.7673-1.7227,11.7673-1.7227c2.4627,0,1.9263,2.6987,0.1583,2.6987h-0.7078"/>
	<path fill="none" stroke="#000000" stroke-linecap="round" stroke-linejoin="round" d="M6.503,12.6354
		c0,0,5.0646,3.9858,4.7013,8.1548c-0.2756,3.1626,5.589,0.7439,2.3246-7.2394h7.237c2.0187,0,2.0127-3.0263,0-3.0263h-0.1563
		c2.0181,0,2.0127-3.0263,0-3.0263h-1.0122c2.0181,0,2.0127-3.0263,0-3.0263l-1.1686,0.0001"/>
	<rect x="0.5" y="1.5" fill="none" stroke="#000000" stroke-linecap="round" stroke-linejoin="round" width="6" height="12"/>
</g>
<rect x="0" y="0" fill="none" width="24" height="24"/>
</svg>
