<?xml version="1.0" encoding="utf-8"?>
<!-- Generator: Adobe Illustrator 18.1.0, SVG Export Plug-In . SVG Version: 6.00 Build 0)  -->
<svg version="1.1" id="Layer_1" xmlns="http://www.w3.org/2000/svg" xmlns:xlink="http://www.w3.org/1999/xlink" x="0px" y="0px"
	 width="24px" height="24px" viewBox="0 0 24 24" enable-background="new 0 0 24 24" xml:space="preserve">
<g>
	<path fill="none" stroke="#000000" stroke-linecap="round" stroke-linejoin="round" stroke-miterlimit="10" d="M23.524,21.3679
		c0,1.1749-0.9524,2.1273-2.1273,2.1273H2.5718c-1.1749,0-2.1273-0.9524-2.1273-2.1273V8.6201c0-1.1749,0.9524-2.1273,2.1273-2.1273
		h18.8249c1.1749,0,2.1273,0.9524,2.1273,2.1273V21.3679z"/>
	<path fill="none" stroke="#000000" stroke-linecap="round" stroke-linejoin="round" stroke-miterlimit="10" d="M7.4918,4.4925
		v-0.54c0-1.3534,1.1607-2.4505,2.5926-2.4505h3.7876c1.4318,0,2.5926,1.0971,2.5926,2.4505v0.54"/>
	
		<line fill="none" stroke="#000000" stroke-linecap="round" stroke-linejoin="round" stroke-miterlimit="10" x1="13.4674" y1="12.5216" x2="23.524" y2="12.5216"/>
	
		<line fill="none" stroke="#000000" stroke-linecap="round" stroke-linejoin="round" stroke-miterlimit="10" x1="0.4446" y1="12.5216" x2="10.4519" y2="12.5216"/>
	<path fill="none" stroke="#000000" stroke-linecap="round" stroke-linejoin="round" stroke-miterlimit="10" d="M13.4674,14.005
		c0,0.2658-0.2153,0.4813-0.4811,0.4813H10.933c-0.2657,0-0.481-0.2155-0.481-0.4813v-2.0533c0-0.2657,0.2153-0.481,0.481-0.481
		h2.0534c0.2657,0,0.4811,0.2153,0.4811,0.481V14.005z"/>
</g>
<rect x="-0.0123" y="-0.0146" fill="none" width="24" height="24"/>
</svg>
