<?xml version="1.0" encoding="utf-8"?>
<!-- Generator: Adobe Illustrator 18.1.0, SVG Export Plug-In . SVG Version: 6.00 Build 0)  -->
<svg version="1.1" id="Layer_1" xmlns="http://www.w3.org/2000/svg" xmlns:xlink="http://www.w3.org/1999/xlink" x="0px" y="0px"
	 width="24px" height="24px" viewBox="0 0 24 24" enable-background="new 0 0 24 24" xml:space="preserve">
<g>
	<path fill="none" stroke="#000000" stroke-linecap="round" stroke-linejoin="round" d="M21.389,9.1296
		c0,0.1946-0.157,0.3527-0.3516,0.3527h-1.0978c-0.1951,0-0.3521-0.1581-0.3521-0.3527V6.836c0-0.1946,0.157-0.3532,0.3521-0.3532
		h1.0978c0.1946,0,0.3516,0.1586,0.3516,0.3532V9.1296z"/>
	
		<rect x="6.4787" y="0.5088" fill="none" stroke="#000000" stroke-linecap="round" stroke-linejoin="round" stroke-miterlimit="10" width="10.0398" height="7.9737"/>
	
		<rect x="6.4787" y="8.4824" fill="none" stroke="#000000" stroke-linecap="round" stroke-linejoin="round" stroke-miterlimit="10" width="10.0398" height="15.0536"/>
	
		<rect x="9.4849" y="12.4818" fill="none" stroke="#000000" stroke-linecap="round" stroke-linejoin="round" width="4.0268" height="1.9747"/>
	<path fill="none" stroke="#000000" stroke-linecap="round" stroke-linejoin="round" stroke-miterlimit="10" d="M20.5271,11.5819
		v5.3887c0,1.4259-1.1554,2.5813-2.5813,2.5813h-1.4273"/>
	<path fill="none" stroke="#000000" stroke-linecap="round" stroke-linejoin="round" stroke-miterlimit="10" d="M19.002,3.9777
		c0.8863,0.4961,1.4859,1.417,1.4859,2.505"/>
	
		<line fill="none" stroke="#000000" stroke-linecap="round" stroke-linejoin="round" stroke-miterlimit="10" x1="4.106" y1="23.536" x2="18.8911" y2="23.536"/>
</g>
<rect x="-0.0137" y="0.0002" fill="none" width="24" height="24"/>
</svg>
