<?xml version="1.0" encoding="utf-8"?>
<!-- Generator: Adobe Illustrator 18.1.0, SVG Export Plug-In . SVG Version: 6.00 Build 0)  -->
<svg version="1.1" id="Layer_1" xmlns="http://www.w3.org/2000/svg" xmlns:xlink="http://www.w3.org/1999/xlink" x="0px" y="0px"
	 width="24px" height="24px" viewBox="0 0 24 24" enable-background="new 0 0 24 24" xml:space="preserve">
<g>
	<path fill="none" stroke="#000000" stroke-linecap="round" stroke-linejoin="round" stroke-miterlimit="10" d="M8.3298,20.1726
		l-0.4802,2.9637c0,0.2166,0.2151,0.3919,0.4802,0.3919h7.3767c0.2651,0,0.4802-0.1752,0.4802-0.3919l-0.4811-2.9637"/>
	<path fill="none" stroke="#000000" stroke-linecap="round" stroke-linejoin="round" stroke-miterlimit="10" d="M21.893,0.5H2.1423
		c-0.9087,0-1.6231,0.7228-1.6231,1.6311v13.731c0,0.9087,0.7144,1.6379,1.6231,1.6379H21.893c0.9096,0,1.6262-0.7292,1.6262-1.6379
		V2.131C23.5192,1.2228,22.8027,0.5,21.893,0.5z"/>
	
		<line fill="none" stroke="#000000" stroke-linecap="round" stroke-linejoin="round" stroke-miterlimit="10" x1="0.5203" y1="14.5" x2="23.5192" y2="14.5"/>
	<path fill="none" stroke="#000000" stroke-linecap="round" stroke-linejoin="round" stroke-miterlimit="10" d="M9.7292,6.4754
		c-0.4199,0-0.7616,0.3419-0.7616,0.7618l0.337,3.516c0,0.4204,0.3418,0.7621,0.7616,0.7621h3.9069
		c0.4199,0,0.7618-0.3417,0.7618-0.7621l0.337-3.516c0-0.4199-0.3419-0.7618-0.7618-0.7618H9.7292z"/>
	<path fill="none" stroke="#000000" stroke-linecap="round" stroke-linejoin="round" stroke-miterlimit="10" d="M10.4819,6.3726
		v-1.432c0-0.7987,0.6899-1.4486,1.5378-1.4486c0.8484,0,1.5375,0.6499,1.5375,1.4486v1.432"/>
	
		<line fill="none" stroke="#000000" stroke-linecap="round" stroke-linejoin="round" stroke-miterlimit="10" x1="12.0193" y1="8.9954" x2="12.0193" y2="9.8025"/>
</g>
<rect x="0" y="0" fill="none" width="24" height="24"/>
</svg>
