<?xml version="1.0" encoding="utf-8"?>
<!-- Generator: Adobe Illustrator 18.1.0, SVG Export Plug-In . SVG Version: 6.00 Build 0)  -->
<svg version="1.1" id="Layer_1" xmlns="http://www.w3.org/2000/svg" xmlns:xlink="http://www.w3.org/1999/xlink" x="0px" y="0px"
	 width="24px" height="24px" viewBox="0 0 24 24" enable-background="new 0 0 24 24" xml:space="preserve">
<g>
	
		<ellipse fill="none" stroke="#000000" stroke-linecap="round" stroke-linejoin="round" cx="11.9863" cy="9.3918" rx="11.2925" ry="3.6359"/>
	<path fill="none" stroke="#000000" stroke-linecap="round" stroke-linejoin="round" d="M0.6938,9.3917l2.2432,9.0725
		c0,1.6092,4.0515,2.9137,9.0493,2.9137s9.0493-1.3045,9.0493-2.9137l2.2432-9.0725"/>
	<path fill="none" stroke="#000000" stroke-linecap="round" stroke-linejoin="round" d="M10.6375,21.2422v-1.3359
		c0-0.6447,0.5226-1.1673,1.1673-1.1673h0.3632c0.6447,0,1.1673,0.5226,1.1673,1.1673v1.3359"/>
	
		<line fill="none" stroke="#000000" stroke-linecap="round" stroke-linejoin="round" x1="3.4862" y1="6.9989" x2="7.3114" y2="12.702"/>
	
		<line fill="none" stroke="#000000" stroke-linecap="round" stroke-linejoin="round" x1="8.4454" y1="5.9386" x2="10.6375" y2="13.0018"/>
	
		<line fill="none" stroke="#000000" stroke-linecap="round" stroke-linejoin="round" x1="20.3303" y1="6.9989" x2="16.5051" y2="12.702"/>
	
		<line fill="none" stroke="#000000" stroke-linecap="round" stroke-linejoin="round" x1="15.3711" y1="5.9386" x2="13.179" y2="13.0018"/>
</g>
<rect x="-0.0137" y="0" fill="none" width="24" height="24"/>
</svg>
