<?xml version="1.0" encoding="utf-8"?>
<!-- Generator: Adobe Illustrator 18.1.0, SVG Export Plug-In . SVG Version: 6.00 Build 0)  -->
<svg version="1.1" id="Layer_1" xmlns="http://www.w3.org/2000/svg" xmlns:xlink="http://www.w3.org/1999/xlink" x="0px" y="0px"
	 width="24px" height="24px" viewBox="0 0 24 24" enable-background="new 0 0 24 24" xml:space="preserve">
<g>
	
		<line fill="none" stroke="#000000" stroke-linecap="round" stroke-linejoin="round" stroke-miterlimit="10" x1="9.9864" y1="22.5002" x2="22.9864" y2="22.5002"/>
	<path fill="none" stroke="#000000" stroke-linecap="round" stroke-linejoin="round" stroke-miterlimit="10" d="M10.5353,9.8733
		L6.5881,8.4366c-1.2518-0.4556-1.3575-1.092-3.4054-4.976l-0.801-0.2915L2.749,7.0393L2.0482,6.7842
		C1.8762,6.7216,1.743,6.9419,1.878,7.0655c3.5366,3.2378,5.6675,4.3916,5.6675,4.3916l11.3497,4.1309
		c0,0,3.9142,1.4247,3.3937-0.0108c-0.5787-1.5959-4.1186-2.925-4.1186-2.925l-4.3711-1.591l-0.1082-0.05L11.3017,4.449
		l-0.4384-0.1596l-0.3026,6.4959"/>
	
		<line fill="none" stroke="#000000" stroke-linecap="round" stroke-linejoin="round" stroke-miterlimit="10" x1="9.3996" y1="13.9707" x2="9.3996" y2="13.9707"/>
	
		<line fill="none" stroke="#000000" stroke-linecap="round" stroke-linejoin="round" stroke-miterlimit="10" x1="11.4587" y1="14.6689" x2="11.4587" y2="14.6689"/>
</g>
<rect x="-0.0136" y="0.0002" fill="none" width="24" height="24"/>
</svg>
