<?xml version="1.0" encoding="utf-8"?>
<!-- Generator: Adobe Illustrator 18.1.1, SVG Export Plug-In . SVG Version: 6.00 Build 0)  -->
<svg version="1.1" id="Layer_1" xmlns="http://www.w3.org/2000/svg" xmlns:xlink="http://www.w3.org/1999/xlink" x="0px" y="0px"
	 width="24px" height="24px" viewBox="0 0 24 24" enable-background="new 0 0 24 24" xml:space="preserve">
<g>
	<path fill="none" stroke="#000000" stroke-linecap="round" stroke-linejoin="round" d="M7.5,5.5H5.5v4c-1.9,0.3-3,1.7-3,3.7v5.2
		c-0.7,0-2.1,0.9-2.1,1.6v2.1c0,0.8,1,1.4,1.7,1.4h19.6c0.8,0,1.7-0.6,1.7-1.4v-2.1c0-0.7-1.3-1.6-2-1.6v-5.2c0-2-1-3.4-3-3.7v-4h-2
		"/>
	<g>
		<polygon fill="none" stroke="#000000" stroke-linecap="round" stroke-linejoin="round" stroke-miterlimit="10" points="9.5,1.4 
			9.5,9.5 14.5,9.5 14.5,1.4 14.5,1.4 13.7,0.6 12.8,1.4 12,0.6 11.1,1.4 10.3,0.6 9.5,1.4 		"/>
	</g>
	
		<line fill="none" stroke="#000000" stroke-linecap="round" stroke-linejoin="round" stroke-miterlimit="10" x1="11.5" y1="3.5" x2="11.5" y2="3.5"/>
	
		<line fill="none" stroke="#000000" stroke-linecap="round" stroke-linejoin="round" stroke-miterlimit="10" x1="11.5" y1="5.5" x2="12.5" y2="5.5"/>
	
		<line fill="none" stroke="#000000" stroke-linecap="round" stroke-linejoin="round" stroke-miterlimit="10" x1="11.5" y1="7.5" x2="12.5" y2="7.5"/>
	<line fill="none" stroke="#000000" stroke-linecap="round" stroke-linejoin="round" x1="4.5" y1="18.5" x2="19.4" y2="18.5"/>
	<line fill="none" stroke="#000000" stroke-linecap="round" stroke-linejoin="round" x1="8.4" y1="9.5" x2="15.6" y2="9.5"/>
	<line fill="none" stroke="#000000" stroke-linecap="round" stroke-linejoin="round" x1="12.1" y1="21" x2="12" y2="21"/>
	<line fill="none" stroke="#000000" stroke-linecap="round" stroke-linejoin="round" x1="6.6" y1="12.5" x2="6.5" y2="12.5"/>
	<line fill="none" stroke="#000000" stroke-linecap="round" stroke-linejoin="round" x1="6.6" y1="15.5" x2="6.5" y2="15.5"/>
	<line fill="none" stroke="#000000" stroke-linecap="round" stroke-linejoin="round" x1="8.6" y1="12.5" x2="8.5" y2="12.5"/>
	<line fill="none" stroke="#000000" stroke-linecap="round" stroke-linejoin="round" x1="8.6" y1="15.5" x2="8.5" y2="15.5"/>
	<line fill="none" stroke="#000000" stroke-linecap="round" stroke-linejoin="round" x1="10.6" y1="12.5" x2="10.5" y2="12.5"/>
	<line fill="none" stroke="#000000" stroke-linecap="round" stroke-linejoin="round" x1="10.6" y1="15.5" x2="10.5" y2="15.5"/>
	<line fill="none" stroke="#000000" stroke-linecap="round" stroke-linejoin="round" x1="12.6" y1="12.5" x2="12.5" y2="12.5"/>
	<line fill="none" stroke="#000000" stroke-linecap="round" stroke-linejoin="round" x1="12.6" y1="15.5" x2="12.5" y2="15.5"/>
	<line fill="none" stroke="#000000" stroke-linecap="round" stroke-linejoin="round" x1="14.6" y1="12.5" x2="14.5" y2="12.5"/>
	<line fill="none" stroke="#000000" stroke-linecap="round" stroke-linejoin="round" x1="14.6" y1="15.5" x2="14.5" y2="15.5"/>
	<line fill="none" stroke="#000000" stroke-linecap="round" stroke-linejoin="round" x1="17.5" y1="15.5" x2="16.5" y2="15.5"/>
	<line fill="none" stroke="#000000" stroke-linecap="round" stroke-linejoin="round" x1="17.5" y1="12.5" x2="16.5" y2="12.5"/>
</g>
<rect x="0" y="0" fill="none" width="24" height="24"/>
<rect x="0" fill="none" width="24" height="24"/>
</svg>
