<?xml version="1.0" encoding="utf-8"?>
<!-- Generator: Adobe Illustrator 18.1.0, SVG Export Plug-In . SVG Version: 6.00 Build 0)  -->
<svg version="1.1" id="Layer_1" xmlns="http://www.w3.org/2000/svg" xmlns:xlink="http://www.w3.org/1999/xlink" x="0px" y="0px"
	 width="24px" height="24px" viewBox="0 0 24 24" enable-background="new 0 0 24 24" xml:space="preserve">
<g>
	<path fill="none" stroke="#000000" stroke-linecap="round" stroke-linejoin="round" stroke-miterlimit="10" d="M7.3325,23.5357
		c-1.8504-0.0172-3.3433-1.8804-3.0948-3.454c0.2679-1.6963,1.4863-4.8913,4.4089-4.5877c1.9916,0.2069,5.5531,0.8469,9.4152,2.8192
		c2.8471,1.454,1.1742,5.2452-1.2601,5.2225"/>
	
		<line fill="none" stroke="#000000" stroke-linecap="round" stroke-linejoin="round" stroke-miterlimit="10" x1="2.6835" y1="23.5357" x2="21.0148" y2="23.5357"/>
	
		<line fill="none" stroke="#000000" stroke-linecap="round" stroke-linejoin="round" stroke-miterlimit="10" x1="9.4965" y1="15.5982" x2="8.5643" y2="10.2619"/>
	<path fill="none" stroke="#000000" stroke-linecap="round" stroke-linejoin="round" stroke-miterlimit="10" d="M7.2368,7.2028
		c2.6001,0.5495,3.5284-0.2822,3.9677,1.0874c0,0-1.3912-0.0518-2.1126,0.2848C7.6568,9.2444,6.8265,8.3373,5.8187,8.2384
		C5.8187,8.2384,5.5904,7.1251,7.2368,7.2028z"/>
	<path fill="none" stroke="#000000" stroke-linecap="round" stroke-linejoin="round" stroke-miterlimit="10" d="M17.6525,18.1087
		c1.8418-5.0763,0.9881-7.5142,0.2754-12.8528"/>
	<path fill="none" stroke="#000000" stroke-linecap="round" stroke-linejoin="round" stroke-miterlimit="10" d="M17.9279,5.2558
		L17.9279,5.2558c0.7123,0.4213,1.6458,0.209,2.0851-0.4743l2.124-3.3039c0.1683-0.2618,0.0835-0.6049-0.1895-0.7664v0"/>
	
		<line fill="none" stroke="#000000" stroke-linecap="round" stroke-linejoin="round" stroke-miterlimit="10" x1="19.4936" y1="2.5666" x2="16.3621" y2="6.1406"/>
	
		<circle fill="none" stroke="#000000" stroke-linecap="round" stroke-linejoin="round" stroke-miterlimit="10" cx="11.6149" cy="19.71" r="1.9145"/>
	
		<line fill="none" stroke="#000000" stroke-linecap="round" stroke-linejoin="round" stroke-miterlimit="10" x1="11.6149" y1="19.71" x2="13.968" y2="14.3439"/>
	
		<line fill="none" stroke="#000000" stroke-linecap="round" stroke-linejoin="round" stroke-miterlimit="10" x1="13.0398" y1="14.3439" x2="14.8962" y2="14.3439"/>
</g>
<rect x="0.0142" y="0.0346" fill="none" width="24" height="24"/>
</svg>
