<?xml version="1.0" encoding="utf-8"?>
<!-- Generator: Adobe Illustrator 18.1.1, SVG Export Plug-In . SVG Version: 6.00 Build 0)  -->
<svg version="1.1" id="Layer_1" xmlns="http://www.w3.org/2000/svg" xmlns:xlink="http://www.w3.org/1999/xlink" x="0px" y="0px"
	 width="24px" height="24px" viewBox="0 0 24 24" enable-background="new 0 0 24 24" xml:space="preserve">
<rect fill="none" width="24" height="24"/>
<g>
	<path fill="none" stroke="#000000" stroke-linecap="round" stroke-linejoin="round" d="M13.8018,23.3401
		c0,0-1.802-4.0906-4.5634-5.4867c-2.3345-1.1804-2.3142-2.5864-3.7465-4.3297c0,0-1.872-2.0841-1.6938-2.6847
		c0.4496-0.4281,0.8271-0.6462,1.9228,0.0781l3.485,2.7893c0.8325-1.5026,0.182-4.1954,0.0457-4.7115L7.6281,3.2343
		C7.4897,2.7377,7.7966,2.2258,8.3134,2.0911l0.0449-0.0118c0.499-0.13,1.015,0.1389,1.173,0.6114l2.8544,8.5087l0.1037,0.013
		L9.3163,2.0438c-0.1384-0.4966,0.1765-1.0105,0.7033-1.1479l0.0459-0.012c0.5086-0.1326,1.0325,0.1342,1.191,0.6067L14.8582,11.51
		l0.0949,0.0119l-0.7057-2.7252C14.109,8.3,14.4158,7.7881,14.9327,7.6534l0.0449-0.0117c0.4989-0.1302,1.015,0.1388,1.173,0.6113
		l1.1924,3.5186l-0.3859-1.9682c-0.1084-0.5036,0.2285-0.9977,0.7524-1.1036l0.0456-0.0093
		c0.5058-0.1023,1.0047,0.1949,1.1341,0.6754l0,0c0.4582,1.6745,0.634,3.41,0.5124,5.1393c-0.1366,1.9418,0.1327,4.111,0.724,5.4543
		"/>
</g>
</svg>
