<?xml version="1.0" encoding="utf-8"?>
<!-- Generator: Adobe Illustrator 18.1.0, SVG Export Plug-In . SVG Version: 6.00 Build 0)  -->
<svg version="1.1" id="Layer_1" xmlns="http://www.w3.org/2000/svg" xmlns:xlink="http://www.w3.org/1999/xlink" x="0px" y="0px"
	 width="24px" height="24px" viewBox="0 0 24 24" enable-background="new 0 0 24 24" xml:space="preserve">
<g>
	<path fill="none" stroke="#000000" stroke-linecap="round" stroke-linejoin="round" stroke-miterlimit="10" d="M3.5142,14.092
		v-2.6952c0-1.0338,0.838-1.8614,1.8718-1.8614h13.2564c1.0338,0,1.8718,0.8277,1.8718,1.8614v2.6952"/>
	<path fill="none" stroke="#000000" stroke-linecap="round" stroke-linejoin="round" stroke-miterlimit="10" d="M23.5142,14.092
		v3.8681c0,0.8673-0.7328,1.5753-1.6002,1.5753H2.1143c-0.8673,0-1.6001-0.7079-1.6001-1.5752V14.092
		c0-0.8202,0.6798-1.4851,1.5-1.4851h0.0074c0.8202,0,1.4926,0.6649,1.4926,1.4851v2.4434h17V14.092
		c0-0.8202,0.6649-1.4851,1.4851-1.4851h0.0149C22.8344,12.6069,23.5142,13.2718,23.5142,14.092z"/>
	
		<line fill="none" stroke="#000000" stroke-linecap="round" stroke-linejoin="round" x1="20.5142" y1="19.5354" x2="20.5142" y2="21.4774"/>
	
		<line fill="none" stroke="#000000" stroke-linecap="round" stroke-linejoin="round" x1="3.5142" y1="19.5354" x2="3.5142" y2="21.4774"/>
	
		<line fill="none" stroke="#000000" stroke-linecap="round" stroke-linejoin="round" stroke-miterlimit="10" x1="12.0142" y1="9.5354" x2="12.0142" y2="16.5354"/>
</g>
<rect x="0.0142" y="0.0354" fill="none" width="24" height="24"/>
</svg>
