<?xml version="1.0" encoding="utf-8"?>
<!-- Generator: Adobe Illustrator 18.1.0, SVG Export Plug-In . SVG Version: 6.00 Build 0)  -->
<svg version="1.1" id="Layer_1" xmlns="http://www.w3.org/2000/svg" xmlns:xlink="http://www.w3.org/1999/xlink" x="0px" y="0px"
	 width="24px" height="24px" viewBox="0 0 24 24" enable-background="new 0 0 24 24" xml:space="preserve">
<g>
	
		<line fill="none" stroke="#000000" stroke-linecap="round" stroke-linejoin="round" x1="7.7872" y1="13.7913" x2="7.3304" y2="13.7913"/>
	
		<line fill="none" stroke="#000000" stroke-linecap="round" stroke-linejoin="round" x1="8.9143" y1="10.864" x2="8.5703" y2="10.52"/>
	
		<line fill="none" stroke="#000000" stroke-linecap="round" stroke-linejoin="round" x1="12.0188" y1="9.5023" x2="12.0188" y2="9.0649"/>
	
		<line fill="none" stroke="#000000" stroke-linecap="round" stroke-linejoin="round" x1="16.1074" y1="13.7916" x2="16.5832" y2="13.7916"/>
	<path fill="none" stroke="#000000" stroke-linecap="round" stroke-linejoin="round" d="M11.9616,7.6329
		c-3.3508,0-6.0162,2.7393-6.0162,6.0161c0,1.4286,0.5064,2.7846,1.3918,3.8476h9.2489c0.8603-1.0331,1.3918-2.3844,1.3918-3.8476
		C17.9778,10.4133,15.3509,7.6329,11.9616,7.6329z"/>
	<path fill="none" stroke="#000000" stroke-linecap="round" stroke-linejoin="round" d="M4.17,11.8953
		c-1.8118-0.4356-3.505,0.9451-3.505,2.7601c0,2.1476,2.302,3.5273,4.1972,2.4922"/>
	<path fill="none" stroke="#000000" stroke-linecap="round" stroke-linejoin="round" d="M19.8027,11.8953
		c1.8134-0.436,3.5049,0.9466,3.5049,2.7601c0,2.1471-2.3015,3.5275-4.1972,2.4922"/>
	
		<circle fill="none" stroke="#000000" stroke-linecap="round" stroke-linejoin="round" stroke-miterlimit="10" cx="11.9999" cy="14.7976" r="1.029"/>
	
		<line fill="none" stroke="#000000" stroke-linecap="round" stroke-linejoin="round" stroke-miterlimit="10" x1="12.5759" y1="13.9449" x2="15.0025" y2="10.3532"/>
</g>
<rect x="-0.0137" y="0" fill="none" width="24" height="24"/>
</svg>
