<?xml version="1.0" encoding="utf-8"?>
<!-- Generator: Adobe Illustrator 18.1.0, SVG Export Plug-In . SVG Version: 6.00 Build 0)  -->
<svg version="1.1" id="Layer_1" xmlns="http://www.w3.org/2000/svg" xmlns:xlink="http://www.w3.org/1999/xlink" x="0px" y="0px"
	 width="24px" height="24px" viewBox="0 0 24 24" enable-background="new 0 0 24 24" xml:space="preserve">
<g>
	<path fill="none" stroke="#000000" stroke-linecap="round" stroke-linejoin="round" stroke-miterlimit="10" d="M15.0613,20.5872
		c3.0987,0.1018,5.6133-2.4178,5.5116-5.5116"/>
	<path fill="none" stroke="#000000" stroke-linecap="round" stroke-linejoin="round" stroke-miterlimit="10" d="M15.0613,23.259
		c4.5714,0.1001,8.2836-3.6074,8.1834-8.1834"/>
	<path fill="none" stroke="#000000" stroke-linecap="round" stroke-linejoin="round" stroke-miterlimit="10" d="M17.9011,15.0756
		c0.1064,1.6163-1.2245,2.946-2.8398,2.8398"/>
	<path fill="none" stroke="#000000" stroke-linecap="round" stroke-linejoin="round" stroke-miterlimit="10" d="M10.0168,15.2737
		c-0.5425-1.8211-0.3565-3.507,0.6895-4.553s2.7319-1.2321,4.553-0.6895L10.0168,15.2737z"/>
	
		<line fill="none" stroke="#000000" stroke-linecap="round" stroke-linejoin="round" stroke-miterlimit="10" x1="12.6381" y1="12.6524" x2="14.5235" y2="14.5378"/>
	
		<circle fill="none" stroke="#000000" stroke-linecap="round" stroke-linejoin="round" stroke-miterlimit="10" cx="14.9789" cy="14.9932" r="0.644"/>
	<polyline fill="none" stroke="#000000" stroke-linecap="round" stroke-linejoin="round" stroke-miterlimit="10" points="
		12.4124,9.8054 7.8296,5.2227 5.2084,7.8439 9.8004,12.436 	"/>
	
		<rect x="1.1682" y="11.257" transform="matrix(-0.7071 -0.7071 0.7071 -0.7071 -2.2217 25.3008)" fill="none" stroke="#000000" stroke-linecap="round" stroke-linejoin="round" stroke-miterlimit="10" width="5.9218" height="3.707"/>
	
		<rect x="10.1354" y="2.2899" transform="matrix(-0.7071 -0.7071 0.7071 -0.7071 19.4269 16.3336)" fill="none" stroke="#000000" stroke-linecap="round" stroke-linejoin="round" stroke-miterlimit="10" width="5.9218" height="3.707"/>
	
		<line fill="none" stroke="#000000" stroke-linecap="round" stroke-linejoin="round" stroke-miterlimit="10" x1="11.7856" y1="5.454" x2="9.9233" y2="7.3163"/>
	
		<line fill="none" stroke="#000000" stroke-linecap="round" stroke-linejoin="round" stroke-miterlimit="10" x1="7.302" y1="9.9376" x2="5.4397" y2="11.7999"/>
	
		<line fill="none" stroke="#000000" stroke-linecap="round" stroke-linejoin="round" stroke-miterlimit="10" x1="11.0026" y1="2.0497" x2="15.1899" y2="6.237"/>
	
		<line fill="none" stroke="#000000" stroke-linecap="round" stroke-linejoin="round" stroke-miterlimit="10" x1="2.0354" y1="11.0169" x2="6.2228" y2="15.2042"/>
</g>
<rect x="0" y="0" fill="none" width="24" height="24"/>
</svg>
