<?xml version="1.0" encoding="utf-8"?>
<!-- Generator: Adobe Illustrator 18.1.0, SVG Export Plug-In . SVG Version: 6.00 Build 0)  -->
<svg version="1.1" id="Layer_1" xmlns="http://www.w3.org/2000/svg" xmlns:xlink="http://www.w3.org/1999/xlink" x="0px" y="0px"
	 width="24px" height="24px" viewBox="0 0 24 24" enable-background="new 0 0 24 24" xml:space="preserve">
<g>
	<path fill="none" stroke="#000000" stroke-linecap="round" stroke-linejoin="round" stroke-miterlimit="10" d="M11.988,14.1022
		c-2.0591-0.0103-2.3845,5.4933-2.4085,8.1725c-0.007,0.7866-0.8801,1.2457-1.542,0.8207
		C0.9902,18.5701,0.6942,10.7853,1.1372,6.743C1.5237,3.2167,4.5338,0.771,6.8475,0.8358c1.5808,0.0442,3.224,0.4283,4.2147,0.7034
		c0.6063,0.1684,1.2453,0.1684,1.8516,0c0.9907-0.2751,2.6339-0.6592,4.2147-0.7034c2.3137-0.0647,5.3238,2.3809,5.7103,5.9072
		c0.443,4.0424,0.1471,11.8272-6.9003,16.3525c-0.6619,0.425-1.5349-0.0341-1.542-0.8207
		C14.3725,19.5955,14.0471,14.092,11.988,14.1022z"/>
	<path fill="none" stroke="#000000" stroke-linecap="round" stroke-linejoin="round" stroke-miterlimit="10" d="M6.5739,3.8516
		c0,0,2.0233,1.9963,6.7091,1.4004c2.1577-0.2744,3.0621-0.9658,3.4934-1.2689"/>
</g>
<rect x="0.0142" y="0.0346" fill="none" width="24" height="24"/>
</svg>
