<?xml version="1.0" encoding="utf-8"?>
<!-- Generator: Adobe Illustrator 18.1.0, SVG Export Plug-In . SVG Version: 6.00 Build 0)  -->
<svg version="1.1" id="Layer_1" xmlns="http://www.w3.org/2000/svg" xmlns:xlink="http://www.w3.org/1999/xlink" x="0px" y="0px"
	 width="24px" height="24px" viewBox="0 0 24 24" enable-background="new 0 0 24 24" xml:space="preserve">
<g>
	<path fill="none" stroke="#000000" stroke-linecap="round" stroke-linejoin="round" stroke-miterlimit="10" d="M23.5,2.8833
		C23.5,1.567,22.4329,0.5,21.1165,0.5H2.8835C1.5671,0.5,0.5,1.567,0.5,2.8833v18.2335C0.5,22.433,1.5671,23.5,2.8835,23.5h18.2331
		c1.3164,0,2.3835-1.067,2.3835-2.3832V2.8833z"/>
	<circle fill="none" stroke="#000000" stroke-linecap="round" stroke-linejoin="round" cx="6.4967" cy="7.2433" r="2.0645"/>
	<circle fill="none" stroke="#000000" stroke-linecap="round" stroke-linejoin="round" cx="12.0926" cy="15.9984" r="2.0645"/>
	
		<line fill="none" stroke="#000000" stroke-linecap="round" stroke-linejoin="round" x1="17.4797" y1="11.8092" x2="17.4797" y2="19.5326"/>
	
		<line fill="none" stroke="#000000" stroke-linecap="round" stroke-linejoin="round" x1="17.4797" y1="4.431" x2="17.4797" y2="7.6802"/>
	<circle fill="none" stroke="#000000" stroke-linecap="round" stroke-linejoin="round" cx="17.4797" cy="9.7447" r="2.0645"/>
	
		<line fill="none" stroke="#000000" stroke-linecap="round" stroke-linejoin="round" x1="6.4967" y1="9.3077" x2="6.4967" y2="19.5326"/>
	
		<line fill="none" stroke="#000000" stroke-linecap="round" stroke-linejoin="round" x1="6.4967" y1="4.431" x2="6.4967" y2="5.1788"/>
	
		<line fill="none" stroke="#000000" stroke-linecap="round" stroke-linejoin="round" x1="12.0926" y1="18.0629" x2="12.0926" y2="19.5326"/>
	
		<line fill="none" stroke="#000000" stroke-linecap="round" stroke-linejoin="round" x1="12.0926" y1="4.431" x2="12.0926" y2="13.934"/>
</g>
<rect x="0" y="0" fill="none" width="24" height="24"/>
</svg>
