<?xml version="1.0" encoding="utf-8"?>
<!-- Generator: Adobe Illustrator 18.1.0, SVG Export Plug-In . SVG Version: 6.00 Build 0)  -->
<svg version="1.1" id="Layer_1" xmlns="http://www.w3.org/2000/svg" xmlns:xlink="http://www.w3.org/1999/xlink" x="0px" y="0px"
	 width="24px" height="24px" viewBox="0 0 24 24" enable-background="new 0 0 24 24" xml:space="preserve">
<g>
	<path fill="none" stroke="#000000" stroke-linecap="round" stroke-linejoin="round" stroke-miterlimit="10" d="M12.4327,2.3825
		c0.7954-1.0691,1.8943-1.7303,3.1081-1.7303c2.4276,0,4.3955,2.645,4.3955,5.9078s-1.9679,5.9078-4.3955,5.9078
		c-0.1796,0-0.3566-0.0145-0.5306-0.0426"/>
	<path fill="none" stroke="#000000" stroke-linecap="round" stroke-linejoin="round" stroke-miterlimit="10" d="M16.3123,2.3897
		c1.0561,0.4415,1.8229,1.7655,1.8229,3.3302"/>
	
		<line fill="none" stroke="#000000" stroke-linecap="round" stroke-linejoin="round" stroke-miterlimit="10" x1="15.5408" y1="12.4676" x2="15.5408" y2="18.84"/>
	
		<ellipse fill="none" stroke="#000000" stroke-linecap="round" stroke-linejoin="round" stroke-miterlimit="10" cx="8.5676" cy="9.6211" rx="4.9478" ry="6.65"/>
	<path fill="none" stroke="#000000" stroke-linecap="round" stroke-linejoin="round" stroke-miterlimit="10" d="M9.4361,4.927
		c1.1888,0.497,2.0519,1.9873,2.0519,3.7486"/>
	
		<line fill="none" stroke="#000000" stroke-linecap="round" stroke-linejoin="round" stroke-miterlimit="10" x1="8.5676" y1="16.2711" x2="8.5676" y2="23.4441"/>
</g>
<rect x="0.0142" y="0.0354" fill="none" width="24" height="24"/>
</svg>
