<?xml version="1.0" encoding="utf-8"?>
<!-- Generator: Adobe Illustrator 18.1.0, SVG Export Plug-In . SVG Version: 6.00 Build 0)  -->
<svg version="1.1" id="Layer_1" xmlns="http://www.w3.org/2000/svg" xmlns:xlink="http://www.w3.org/1999/xlink" x="0px" y="0px"
	 width="24px" height="24px" viewBox="0 0 24 24" enable-background="new 0 0 24 24" xml:space="preserve">
<g>
	<path fill="none" stroke="#000000" stroke-linecap="round" stroke-linejoin="round" stroke-miterlimit="10" d="M21.5292,16.5009
		V5.2039c0-0.3979-0.3225-0.7203-0.7199-0.7203H3.2082c-0.3979,0-0.7203,0.3225-0.7203,0.7203v11.297"/>
	<path fill="none" stroke="#000000" stroke-linecap="round" stroke-linejoin="round" stroke-miterlimit="10" d="M13.2476,18.5301
		v0.3038c0,0.2398-0.1949,0.4342-0.4347,0.4342h-1.6083c-0.2398,0-0.4347-0.1944-0.4347-0.4342v-0.3038H0.5123v1.2005
		c0,0.4419,0.3582,0.7997,0.7996,0.7997h21.3926c0.4419,0,0.8001-0.3578,0.8001-0.7997v-1.2005H13.2476z"/>
	
		<ellipse fill="none" stroke="#000000" stroke-linecap="round" stroke-linejoin="round" cx="6.1396" cy="10.6845" rx="0.6616" ry="0.6532"/>
	
		<ellipse fill="none" stroke="#000000" stroke-linecap="round" stroke-linejoin="round" cx="10.0314" cy="8.2395" rx="0.6616" ry="0.6532"/>
	
		<ellipse fill="none" stroke="#000000" stroke-linecap="round" stroke-linejoin="round" cx="13.9231" cy="14.1772" rx="0.6616" ry="0.6532"/>
	
		<ellipse fill="none" stroke="#000000" stroke-linecap="round" stroke-linejoin="round" cx="17.8149" cy="9.9859" rx="0.6616" ry="0.6532"/>
	
		<line fill="none" stroke="#000000" stroke-linecap="round" stroke-linejoin="round" stroke-miterlimit="10" x1="9.3697" y1="8.6552" x2="6.6966" y2="10.3345"/>
	
		<line fill="none" stroke="#000000" stroke-linecap="round" stroke-linejoin="round" stroke-miterlimit="10" x1="10.3902" y1="8.787" x2="13.5642" y2="13.6296"/>
	
		<line fill="none" stroke="#000000" stroke-linecap="round" stroke-linejoin="round" stroke-miterlimit="10" x1="14.3688" y1="13.6973" x2="17.3588" y2="10.4771"/>
</g>
<rect x="0" y="0" fill="none" width="24" height="24"/>
</svg>
