<?xml version="1.0" encoding="utf-8"?>
<!-- Generator: Adobe Illustrator 18.1.0, SVG Export Plug-In . SVG Version: 6.00 Build 0)  -->
<svg version="1.1" id="Layer_1" xmlns="http://www.w3.org/2000/svg" xmlns:xlink="http://www.w3.org/1999/xlink" x="0px" y="0px"
	 width="24px" height="24px" viewBox="0 0 24 24" enable-background="new 0 0 24 24" xml:space="preserve">
<g>
	
		<line fill="none" stroke="#000000" stroke-linecap="round" stroke-linejoin="round" stroke-miterlimit="10" x1="12.5489" y1="6.5298" x2="3.4682" y2="6.5298"/>
	
		<line fill="none" stroke="#000000" stroke-linecap="round" stroke-linejoin="round" stroke-miterlimit="10" x1="7.5661" y1="3.5596" x2="3.4682" y2="3.5596"/>
	<path fill="none" stroke="#000000" stroke-linecap="round" stroke-linejoin="round" stroke-miterlimit="10" d="M22.427,10.5067
		H9.5106c-0.5798,0-1.05,0.4699-1.05,1.05v6.9392c0,0.5801,0.4702,1.05,1.05,1.05H22.427c0.5793,0,1.049-0.4699,1.049-1.05v-6.9392
		C23.476,10.9766,23.0063,10.5067,22.427,10.5067z"/>
	<polyline fill="none" stroke="#000000" stroke-linecap="round" stroke-linejoin="round" stroke-miterlimit="10" points="
		14.335,0.5289 14.3392,4.5001 18.4781,4.5001 	"/>
	<path fill="none" stroke="#000000" stroke-linecap="round" stroke-linejoin="round" stroke-miterlimit="10" d="M18.4781,8.4024
		l0-3.9023c0-0.2135-0.0862-0.2946-0.238-0.4443L14.895,0.7584c-0.1491-0.147-0.3502-0.2294-0.5599-0.2294l-12.9942,0
		c-0.4409,0-0.7979,0.3572-0.7979,0.7979v21.3462c0,0.441,0.357,0.7982,0.7979,0.7982h16.3384c0.4419,0,0.7989-0.3572,0.7989-0.7982
		v-1.1098"/>
	<path fill="none" stroke="#000000" stroke-linecap="round" stroke-linejoin="round" d="M12.4123,16.5024
		c0.7557,0,1.3684-0.6754,1.3684-1.5086c0-0.8332-0.6127-1.5086-1.3684-1.5086v0h-0.9816v3.0222h0.9816V16.5024z"/>
	<path fill="none" stroke="#000000" stroke-linecap="round" stroke-linejoin="round" d="M21.5696,13.9044
		c-0.256-0.2594-0.603-0.4191-0.9854-0.4191c-0.7873,0-1.4255,0.6754-1.4255,1.5086c0,0.8332,0.6382,1.5086,1.4255,1.5086
		c0.3975,0,0.7569-0.1724,1.0154-0.4501"/>
	
		<ellipse fill="none" stroke="#000000" stroke-linecap="round" stroke-linejoin="round" cx="16.5063" cy="14.9964" rx="1.3688" ry="1.5111"/>
</g>
<rect x="0" y="0.0001" fill="none" width="24" height="24"/>
</svg>
