<?xml version="1.0" encoding="utf-8"?>
<!-- Generator: Adobe Illustrator 18.1.0, SVG Export Plug-In . SVG Version: 6.00 Build 0)  -->
<svg version="1.1" id="Layer_1" xmlns="http://www.w3.org/2000/svg" xmlns:xlink="http://www.w3.org/1999/xlink" x="0px" y="0px"
	 width="24px" height="24px" viewBox="0 0 24 24" enable-background="new 0 0 24 24" xml:space="preserve">
<g>
	<path fill="none" stroke="#000000" stroke-linecap="round" stroke-linejoin="round" d="M14.9504,17.5011H2.5625
		c-1.157,0-2.0625-0.9987-2.0625-2.1557V8.5583c0-1.157,0.9055-2.0572,2.0625-2.0572h18.8071c1.157,0,2.1304,0.9002,2.1304,2.0572
		v6.7871c0,1.157-0.9734,2.1557-2.1304,2.1557H18.785"/>
	<path fill="none" stroke="#000000" stroke-linecap="round" stroke-linejoin="round" d="M20.0928,21.2533l-1.4569-1.9227
		l1.3082-0.2581c0.1983-0.0391,0.2682-0.2885,0.1169-0.4251l-5.294-4.7556c-0.172-0.1556-0.4477-0.0046-0.4071,0.2257l1.2091,6.9303
		c0.0332,0.1962,0.2765,0.272,0.4167,0.1318l1.047-1.0487l1.3077,2.297c0.0728,0.1266,0.2353,0.1611,0.3517,0.0823l1.3419-0.904
		C20.1519,21.5272,20.1779,21.3653,20.0928,21.2533z"/>
</g>
<rect x="0" y="0.0011" fill="none" width="24" height="24"/>
</svg>
