<?xml version="1.0" encoding="utf-8"?>
<!-- Generator: Adobe Illustrator 18.1.0, SVG Export Plug-In . SVG Version: 6.00 Build 0)  -->
<svg version="1.1" id="Layer_1" xmlns="http://www.w3.org/2000/svg" xmlns:xlink="http://www.w3.org/1999/xlink" x="0px" y="0px"
	 width="24px" height="24px" viewBox="0 0 24 24" enable-background="new 0 0 24 24" xml:space="preserve">
<g>
	<path fill="none" stroke="#000000" stroke-linecap="round" stroke-linejoin="round" stroke-miterlimit="10" d="M14.8367,7.5207
		c0,0-1.6906,0.4351-1.6906,2.6378c0,2.7737,3.1357,5.2755,5.5898,5.2755s3.9265-1.4684,3.7629-4.6773
		c-0.1636-3.2088-2.7813-3.236-2.7813-3.236H4.2578c0,0-2.6177,0.0272-2.7813,3.236s1.3088,4.6773,3.7629,4.6773
		s5.5898-2.5018,5.5898-5.2755c0-2.2027-1.6906-2.6378-1.6906-2.6378"/>
	<path fill="none" stroke="#000000" stroke-linecap="round" stroke-linejoin="round" stroke-miterlimit="10" d="M10.8235,9.9408
		c0-0.383,0.5212-0.6934,1.1642-0.6934s1.1642,0.3105,1.1642,0.6934"/>
	
		<line fill="none" stroke="#000000" stroke-linecap="round" stroke-linejoin="round" stroke-miterlimit="10" x1="0.4913" y1="9.5207" x2="1.698" y2="9.5207"/>
	
		<line fill="none" stroke="#000000" stroke-linecap="round" stroke-linejoin="round" stroke-miterlimit="10" x1="22.2773" y1="9.5207" x2="23.5339" y2="9.5207"/>
	
		<line fill="none" stroke="#000000" stroke-linecap="round" stroke-linejoin="round" stroke-miterlimit="10" x1="2.9579" y1="10.4365" x2="4.4761" y2="8.9224"/>
	
		<line fill="none" stroke="#000000" stroke-linecap="round" stroke-linejoin="round" stroke-miterlimit="10" x1="3.4348" y1="11.9941" x2="5.7937" y2="9.6416"/>
</g>
<rect x="0" y="0.0354" fill="none" width="24" height="24"/>
</svg>
