<?xml version="1.0" encoding="utf-8"?>
<!-- Generator: Adobe Illustrator 18.1.0, SVG Export Plug-In . SVG Version: 6.00 Build 0)  -->
<svg version="1.1" id="Layer_1" xmlns="http://www.w3.org/2000/svg" xmlns:xlink="http://www.w3.org/1999/xlink" x="0px" y="0px"
	 width="24px" height="24px" viewBox="0 0 24 24" enable-background="new 0 0 24 24" xml:space="preserve">
<g>
	<path fill="none" stroke="#000000" stroke-linecap="round" stroke-linejoin="round" stroke-miterlimit="10" d="M17.4724,19.7152
		c-0.0572-0.0616-1.7079-1.5206-2.2022-2.3283c-0.489-0.7997-0.6362-1.9376-0.437-3.4044c0.1682-1.2385,0.5543-3.4627,0.5543-3.4627
		h4.1699c0,0,0.386,2.2245,0.5542,3.4627c0.1992,1.4668,0.0523,2.5945-0.437,3.3936
		C19.1801,18.1838,17.5294,19.6536,17.4724,19.7152"/>
	
		<line fill="none" stroke="#000000" stroke-linecap="round" stroke-linejoin="round" stroke-miterlimit="10" x1="17.4724" y1="19.7152" x2="17.4724" y2="23.5197"/>
	
		<line fill="none" stroke="#000000" stroke-linecap="round" stroke-linejoin="round" stroke-miterlimit="10" x1="15.0172" y1="23.5197" x2="20.0172" y2="23.5197"/>
	
		<line fill="none" stroke="#000000" stroke-linecap="round" stroke-linejoin="round" stroke-miterlimit="10" x1="14.8992" y1="13.5196" x2="20.0172" y2="13.5196"/>
	<polyline fill="none" stroke="#000000" stroke-linecap="round" stroke-linejoin="round" stroke-miterlimit="10" points="
		6.5142,7.6047 6.5142,0.5197 9.5142,0.5197 9.5142,7.6047 	"/>
	<path fill="none" stroke="#000000" stroke-linecap="round" stroke-linejoin="round" stroke-miterlimit="10" d="M8.9725,7.5197
		H7.0787c-1.3499,0-2.5645,1.5742-2.5645,2.9241v12.3969c0,0.375,0.4242,0.679,0.7992,0.679h5.4244
		c0.375,0,0.7764-0.304,0.7764-0.679V10.4438C11.5142,9.0938,10.3224,7.5197,8.9725,7.5197z"/>
	
		<line fill="none" stroke="#000000" stroke-linecap="round" stroke-linejoin="round" stroke-miterlimit="10" x1="6.5142" y1="2.5197" x2="9.5142" y2="2.5197"/>
	
		<rect x="4.5142" y="12.5197" fill="none" stroke="#000000" stroke-linecap="round" stroke-linejoin="round" stroke-miterlimit="10" width="3" height="8"/>
</g>
<rect x="0.0142" y="0.0197" fill="none" width="24" height="24"/>
</svg>
