<?xml version="1.0" encoding="utf-8"?>
<!-- Generator: Adobe Illustrator 18.1.0, SVG Export Plug-In . SVG Version: 6.00 Build 0)  -->
<svg version="1.1" id="Layer_1" xmlns="http://www.w3.org/2000/svg" xmlns:xlink="http://www.w3.org/1999/xlink" x="0px" y="0px"
	 width="24px" height="24px" viewBox="0 0 24 24" enable-background="new 0 0 24 24" xml:space="preserve">
<g>
	
		<line fill="none" stroke="#000000" stroke-linecap="round" stroke-linejoin="round" stroke-miterlimit="10" x1="9.4864" y1="16.4655" x2="9.4864" y2="8.5685"/>
	
		<line fill="none" stroke="#000000" stroke-linecap="round" stroke-linejoin="round" stroke-miterlimit="10" x1="14.4864" y1="8.5685" x2="14.4864" y2="16.4655"/>
	<path fill="none" stroke="#000000" stroke-linecap="round" stroke-linejoin="round" stroke-miterlimit="10" d="M17.4864,15.4994
		c0,0.5526-0.448,1.0006-1.0006,1.0006H7.487c-0.5526,0-1.0006-0.448-1.0006-1.0006V9.5007c0-0.5526,0.448-1.0006,1.0006-1.0006
		h8.9987c0.5526,0,1.0006,0.448,1.0006,1.0006V15.4994z"/>
	<path fill="none" stroke="#000000" stroke-linecap="round" stroke-linejoin="round" stroke-miterlimit="10" d="M10.4864,8.5001
		V7.3613c0-0.425,0.3239-0.8612,0.7489-0.8612h1.5022c0.425,0,0.7489,0.4362,0.7489,0.8612v1.1388"/>
	
		<line fill="none" stroke="#000000" stroke-linecap="round" stroke-linejoin="round" stroke-miterlimit="10" x1="4.4866" y1="21.55" x2="4.4866" y2="21.55"/>
	
		<line fill="none" stroke="#000000" stroke-linecap="round" stroke-linejoin="round" stroke-miterlimit="10" x1="19.4876" y1="21.55" x2="19.4876" y2="21.55"/>
	<path fill="none" stroke="#000000" stroke-linecap="round" stroke-linejoin="round" stroke-miterlimit="10" d="M17.2477,3.5001
		H6.3967c-3.3587,0-5.9104,3.0812-5.9104,6.44v8.56h23V9.94C23.4864,6.5813,20.6065,3.5001,17.2477,3.5001z"/>
	
		<circle fill="none" stroke="#000000" stroke-linecap="round" stroke-linejoin="round" stroke-miterlimit="10" cx="11.9864" cy="2.4641" r="1.036"/>
	
		<circle fill="none" stroke="#000000" stroke-linecap="round" stroke-linejoin="round" stroke-miterlimit="10" cx="4.4864" cy="21.55" r="1.63"/>
	
		<circle fill="none" stroke="#000000" stroke-linecap="round" stroke-linejoin="round" stroke-miterlimit="10" cx="19.4874" cy="21.55" r="1.63"/>
</g>
<rect x="-0.0136" y="0.0001" fill="none" width="24" height="24"/>
</svg>
