<?xml version="1.0" encoding="utf-8"?>
<!-- Generator: Adobe Illustrator 18.1.0, SVG Export Plug-In . SVG Version: 6.00 Build 0)  -->
<svg version="1.1" id="Layer_1" xmlns="http://www.w3.org/2000/svg" xmlns:xlink="http://www.w3.org/1999/xlink" x="0px" y="0px"
	 width="24px" height="24px" viewBox="0 0 24 24" enable-background="new 0 0 24 24" xml:space="preserve">
<g>
	<path fill="none" stroke="#000000" stroke-linecap="round" stroke-linejoin="round" d="M13.667,5.1714
		c1.3939,1.3988,4.4167,3.6481,5.6415-1.5889c0,0,2.5067,0.3444,3.2377,4.7104c0,0,1.0058,2.3523,0.1694,2.7414
		s-7.5887,5.7618-12.3278,6.8769s-12.1543,1.3381-8.9206-1.7284c3.1338-2.9717,7.917-1.9971,10.9501-10.8294
		C12.5888,4.8544,13.2946,4.7977,13.667,5.1714z"/>
	<path fill="none" stroke="#000000" stroke-linecap="round" stroke-linejoin="round" d="M0.6788,17.4944l0.06,1.4129
		c0.0269,0.6342,0.465,1.1743,1.0797,1.3329c1.9237,0.4964,5.6209,0.1847,8.5695-0.4165
		c4.0366-0.8231,10.0265-5.1275,12.1982-6.5989c0.4566-0.3094,0.7016-0.8459,0.6362-1.3936l-0.1742-1.1419"/>
	
		<line fill="none" stroke="#000000" stroke-linecap="round" stroke-linejoin="round" x1="11.8808" y1="12.0897" x2="17.3675" y2="14.6105"/>
	
		<line fill="none" stroke="#000000" stroke-linecap="round" stroke-linejoin="round" x1="13.7481" y1="10.6893" x2="19.4097" y2="13.2817"/>
</g>
<rect x="0.0142" y="0.0346" fill="none" width="24" height="24"/>
</svg>
