<?xml version="1.0" encoding="utf-8"?>
<!-- Generator: Adobe Illustrator 18.1.0, SVG Export Plug-In . SVG Version: 6.00 Build 0)  -->
<svg version="1.1" id="Layer_1" xmlns="http://www.w3.org/2000/svg" xmlns:xlink="http://www.w3.org/1999/xlink" x="0px" y="0px"
	 width="24px" height="24px" viewBox="0 0 24 24" enable-background="new 0 0 24 24" xml:space="preserve">
<g>
	<polyline fill="none" stroke="#000000" stroke-linecap="round" stroke-linejoin="round" stroke-miterlimit="10" points="
		1.0142,13.5346 8.1336,13.5346 9.8223,7.1366 12.3022,17.7985 13.7841,10.5457 15.112,13.5346 23.0142,13.5346 	"/>
	<path fill="none" stroke="#000000" stroke-linecap="round" stroke-linejoin="round" stroke-miterlimit="10" d="M2.2601,11.5894
		c-0.9151-1.0928-1.4193-2.4801-1.4193-3.906c0-3.3559,2.733-6.088,6.0902-6.088c2.0242,0,3.9201,0.9875,5.0831,2.5156h-0.0017
		c1.163-1.5281,3.0589-2.5156,5.0831-2.5156c3.3572,0,6.0902,2.732,6.0902,6.088c0,1.426-0.5042,2.8132-1.4193,3.906"/>
	<path fill="none" stroke="#000000" stroke-linecap="round" stroke-linejoin="round" stroke-miterlimit="10" d="M5.6551,15.5901
		l5.4794,6.4776c0.401,0.4735,1.1269,0.4745,1.5306,0.0099l5.6298-6.4875"/>
</g>
<rect x="0.0142" y="0.0346" fill="none" width="24" height="24"/>
</svg>
