<?xml version="1.0" encoding="utf-8"?>
<!-- Generator: Adobe Illustrator 18.1.0, SVG Export Plug-In . SVG Version: 6.00 Build 0)  -->
<svg version="1.1" id="Layer_1" xmlns="http://www.w3.org/2000/svg" xmlns:xlink="http://www.w3.org/1999/xlink" x="0px" y="0px"
	 width="24px" height="24px" viewBox="0 0 24 24" enable-background="new 0 0 24 24" xml:space="preserve">
<rect x="-0.015" y="-0.0293" fill="none" width="24" height="24"/>
<g>
	<g>
		<path fill="none" stroke="#000000" stroke-linecap="round" stroke-linejoin="round" stroke-miterlimit="10" d="M17.2638,15.4399
			c-0.5762-1.8375-2.3948-3.2994-5.0343-2.9789c-3.502-2.8922-8.7246-0.8841-9.4835,3.6348
			c-3.9334,2.3793-1.8867,7.388,2.0762,7.388h12.9443c2.3886,0,4.4066-1.8617,4.4066-4.0338
			C22.173,17.2296,20.0108,15.1781,17.2638,15.4399z"/>
	</g>
	<path fill="none" stroke="#000000" stroke-linecap="round" stroke-linejoin="round" stroke-miterlimit="10" d="M10.5334,11.483
		c0.4057-1.2577,1.586-2.1676,2.9788-2.1676c1.7277,0,3.1284,1.401,3.1284,3.129c0,0.4869-0.1112,0.9478-0.3095,1.3587"/>
	
		<line fill="none" stroke="#000000" stroke-linecap="round" stroke-linejoin="round" stroke-miterlimit="10" x1="19.4782" y1="12.4629" x2="23.3406" y2="12.4629"/>
	
		<line fill="none" stroke="#000000" stroke-linecap="round" stroke-linejoin="round" stroke-miterlimit="10" x1="13.518" y1="6.5033" x2="13.518" y2="2.6409"/>
	
		<line fill="none" stroke="#000000" stroke-linecap="round" stroke-linejoin="round" stroke-miterlimit="10" x1="17.8584" y1="8.1229" x2="20.5893" y2="5.3921"/>
	
		<line fill="none" stroke="#000000" stroke-linecap="round" stroke-linejoin="round" stroke-miterlimit="10" x1="6.4479" y1="5.3921" x2="9.1789" y2="8.1229"/>
</g>
</svg>
