<?xml version="1.0" encoding="utf-8"?>
<!-- Generator: Adobe Illustrator 18.1.0, SVG Export Plug-In . SVG Version: 6.00 Build 0)  -->
<svg version="1.1" id="Layer_1" xmlns="http://www.w3.org/2000/svg" xmlns:xlink="http://www.w3.org/1999/xlink" x="0px" y="0px"
	 width="24px" height="24px" viewBox="0 0 24 24" enable-background="new 0 0 24 24" xml:space="preserve">
<g>
	
		<line fill="none" stroke="#000000" stroke-linecap="round" stroke-linejoin="round" x1="20.8006" y1="0.5097" x2="5.0784" y2="0.5101"/>
	<path fill="none" stroke="#000000" stroke-linecap="round" stroke-linejoin="round" d="M5.0784,0.5097
		c1.4286,0,2.5865,1.1168,2.5865,2.4941c0,1.3775-1.1579,2.4941-2.5865,2.4941h15.7221c1.4286,0,2.5865-1.1166,2.5865-2.4941
		c0-1.3773-1.1579-2.4941-2.5865-2.4941H5.0784z"/>
	<path fill="none" stroke="#000000" stroke-linecap="round" stroke-linejoin="round" d="M5.0308,0.5097
		c-1.3777,0-2.4941,1.1168-2.4941,2.4941h0.0016v17.8225h0.0116l2.3962,2.56l2.9945-3.1995l3.0867,3.2974l3.0864-3.2974
		l3.0867,3.2974l2.3377-2.4533V5.4979"/>
	<path fill="none" stroke="#000000" stroke-linecap="round" stroke-linejoin="round" stroke-miterlimit="10" d="M11.1364,14.6457
		c1.5961,0.077,2.3561-0.564,2.2752-1.5566c-0.075-0.9209-1.3969-1.4283-2.3912-1.6726c-1.0305-0.2715-1.818-0.7633-1.818-1.5364
		s0.8529-1.3999,1.905-1.3999c0.7084,0,1.3869,0.4636,1.7152,0.8853"/>
	<path fill="none" stroke="#000000" stroke-linecap="round" stroke-linejoin="round" stroke-miterlimit="10" d="M11.0204,11.4166
		c-1.7563-0.0909-2.497,0.4975-2.497,1.4933c0,0.8766,1.3969,1.4283,2.3912,1.6726c1.0305,0.2715,1.818,0.7633,1.818,1.5364
		s-0.8529,1.3999-1.905,1.3999c-0.7084,0-1.3869-0.4636-1.7152-0.8853"/>
</g>
<rect x="0" y="0.0001" fill="none" width="24" height="24"/>
</svg>
