<?xml version="1.0" encoding="utf-8"?>
<!-- Generator: Adobe Illustrator 18.1.0, SVG Export Plug-In . SVG Version: 6.00 Build 0)  -->
<svg version="1.1" id="Layer_1" xmlns="http://www.w3.org/2000/svg" xmlns:xlink="http://www.w3.org/1999/xlink" x="0px" y="0px"
	 width="24px" height="24px" viewBox="0 0 24 24" enable-background="new 0 0 24 24" xml:space="preserve">
<g>
	<path fill="none" stroke="#000000" stroke-linecap="round" stroke-linejoin="round" stroke-miterlimit="3.864" d="M8.7146,1.7541
		c0.6378,4.3997,5.8288,4.2929,6.5968,0.0445"/>
	<path fill="none" stroke="#000000" stroke-linecap="round" stroke-linejoin="round" stroke-miterlimit="3.864" d="M19.4642,22.5225
		c-0.0013-3.8381-0.0027-8.3632-0.0044-12.2013c1.1684,0.2928,1.2054,0.5013,1.9672-0.4601c0.178-0.2243,2.1221-2.3773,1.9832-2.534
		c-1.1385-1.2848-2.2766-2.5708-3.4151-3.8561c-0.9028-1.0199-2.2105-1.0945-3.513-1.4576
		c-1.7615-0.4908-2.6313,0.0361-4.5227,0.0361c-1.6702,0-2.5285-0.5447-4.0437-0.1305C6.7834,2.2288,5.0053,2.3117,4.2029,3.2171
		C3.0256,4.547,1.8476,5.8768,0.6703,7.2068c-0.367,0.4148,1.0192,1.6231,1.3024,1.9625c1.1021,1.3224,0.924,1.5627,2.5347,1.1598
		v12.1935H19.4642"/>
	<path fill="none" stroke="#000000" stroke-linecap="round" stroke-linejoin="round" stroke-miterlimit="3.864" d="M19.4598,10.3212
		c0,0-1.88-3.0403-0.3948-7.5446"/>
	<path fill="none" stroke="#000000" stroke-linecap="round" stroke-linejoin="round" stroke-miterlimit="3.864" d="M4.5074,10.3291
		c0,0,1.8793-3.0773,0.3945-7.5814"/>
</g>
<rect x="0.0142" y="0.0354" fill="none" width="24" height="24"/>
</svg>
