<?xml version="1.0" encoding="utf-8"?>
<!-- Generator: Adobe Illustrator 18.1.0, SVG Export Plug-In . SVG Version: 6.00 Build 0)  -->
<svg version="1.1" id="Layer_1" xmlns="http://www.w3.org/2000/svg" xmlns:xlink="http://www.w3.org/1999/xlink" x="0px" y="0px"
	 width="24px" height="24px" viewBox="0 0 24 24" enable-background="new 0 0 24 24" xml:space="preserve">
<g>
	<path fill="none" stroke="#000000" stroke-linecap="round" stroke-linejoin="round" stroke-miterlimit="3.864" d="M15.7692,1.8194
		c-0.8716,4.6767-6.763,4.7944-7.4869-0.049C8.2824,1.7705,12.1033,1.1511,15.7692,1.8194z"/>
	
		<line fill="none" stroke="#000000" stroke-linecap="round" stroke-linejoin="round" stroke-miterlimit="3.864" x1="12.0063" y1="5.3646" x2="12.0063" y2="22.5312"/>
	<path fill="none" stroke="#000000" stroke-linecap="round" stroke-linejoin="round" stroke-miterlimit="3.864" d="M15.7692,1.8194
		c1.3835,0.3726,3.7987,2.2556,4.4506,2.4338c1.1361,0.311,3.0448,18.327,3.0448,18.327h-3.0559L17.6148,9.1859l0.4117,12.9182
		c0,0-0.7663-0.2602-5.6519,0.4615c-4.8832,0.7214-6.457-0.4615-6.457-0.4615L6.4368,9.1369L3.8429,22.5312H0.787
		c0,0,1.9087-18.0159,3.0448-18.327c0.6519-0.1782,3.0671-2.0612,4.4506-2.4338"/>
</g>
<rect x="0.0142" y="0.0344" fill="none" width="24" height="24"/>
</svg>
