<?xml version="1.0" encoding="utf-8"?>
<!-- Generator: Adobe Illustrator 18.1.0, SVG Export Plug-In . SVG Version: 6.00 Build 0)  -->
<svg version="1.1" id="Layer_1" xmlns="http://www.w3.org/2000/svg" xmlns:xlink="http://www.w3.org/1999/xlink" x="0px" y="0px"
	 width="24px" height="24px" viewBox="0 0 24 24" enable-background="new 0 0 24 24" xml:space="preserve">
<g>
	<path fill="none" stroke="#000000" stroke-linecap="round" stroke-linejoin="round" stroke-miterlimit="10" d="M12.0409,23.2907
		c0,0,9.2173,0.2968,9.3657-4.5517S15.0244,4.4865,15.0244,4.4865C14.9502,3.5465,17.3249,0.5,17.3249,0.5H6.7568
		c0,0,2.3748,3.0465,2.3006,3.9865c0,0-6.5306,9.3897-6.3822,14.2382C2.8236,23.5732,12.0409,23.2907,12.0409,23.2907z"/>
	<path fill="none" stroke="#000000" stroke-linecap="round" stroke-linejoin="round" stroke-miterlimit="10" d="M3.8069,6.4941
		c0,0,1.0204,0.9895,2.3562-0.3958s1.039-1.6149,2.8943-1.5832h5.967c0,0,2.1468-0.4395,2.8889,0.8469
		c0.7421,1.2863,0.47,2.2758,1.509,2.8448"/>
	
		<line fill="none" stroke="#000000" stroke-linecap="round" stroke-linejoin="round" stroke-miterlimit="10" x1="10.287" y1="3.0928" x2="13.6658" y2="3.0928"/>
	
		<line fill="none" stroke="#000000" stroke-linecap="round" stroke-linejoin="round" stroke-miterlimit="10" x1="10.287" y1="5.9947" x2="13.6658" y2="5.9947"/>
	
		<line fill="none" stroke="#000000" stroke-linecap="round" stroke-linejoin="round" x1="8.4854" y1="14.046" x2="12.749" y2="14.046"/>
	
		<line fill="none" stroke="#000000" stroke-linecap="round" stroke-linejoin="round" x1="8.4854" y1="15.9589" x2="12.749" y2="15.9589"/>
	<path fill="none" stroke="#000000" stroke-linecap="round" stroke-linejoin="round" d="M14.6391,12.7205
		c-0.5309-0.8918-1.3571-1.4657-2.2858-1.4657c-1.6021,0-2.9008,1.7059-2.9008,3.8101c0,2.1043,1.2988,3.8101,2.9008,3.8101
		c0.9714,0,1.8307-0.6279,2.3572-1.5908"/>
</g>
<rect x="-0.0136" y="0" fill="none" width="24" height="24"/>
</svg>
