<?xml version="1.0" encoding="utf-8"?>
<!-- Generator: Adobe Illustrator 18.1.0, SVG Export Plug-In . SVG Version: 6.00 Build 0)  -->
<svg version="1.1" id="Layer_1" xmlns="http://www.w3.org/2000/svg" xmlns:xlink="http://www.w3.org/1999/xlink" x="0px" y="0px"
	 width="24px" height="24px" viewBox="0 0 24 24" enable-background="new 0 0 24 24" xml:space="preserve">
<g>
	<path fill="none" stroke="#000000" stroke-linecap="round" stroke-linejoin="round" stroke-miterlimit="10" d="M22.9849,19.0599
		c-3.6997-1.4151-7.8068-1.3409-8.1519-2.4358v-1.6468c3.6946-0.0101,5.1605-1.1919,5.1605-1.1919
		c-1.5417-0.867-2.0305-6.9235-2.0305-6.9235c0-3.1381-2.3649-6.1884-5.9447-6.1884c-3.372,0-5.9447,2.8579-5.9447,6.1884
		c0,0-0.4888,6.0565-2.0305,6.9235c0,0,1.466,1.1818,5.1605,1.1919v1.6468c-0.3442,1.0936-4.4522,1.0198-8.1519,2.4358
		c-0.3153,0.1211-0.5241,0.4247-0.5241,0.7641v2.8727c0,0.4511,0.3645,0.8178,0.814,0.8178h21.3532
		c0.4495,0,0.814-0.3666,0.814-0.8178V19.824C23.5089,19.4846,23.3002,19.1802,22.9849,19.0599z"/>
</g>
<rect x="0.0005" y="0.0004" fill="none" width="24" height="24"/>
</svg>
