<?xml version="1.0" encoding="utf-8"?>
<!-- Generator: Adobe Illustrator 18.1.0, SVG Export Plug-In . SVG Version: 6.00 Build 0)  -->
<svg version="1.1" id="Layer_1" xmlns="http://www.w3.org/2000/svg" xmlns:xlink="http://www.w3.org/1999/xlink" x="0px" y="0px"
	 width="24px" height="24px" viewBox="0 0 24 24" enable-background="new 0 0 24 24" xml:space="preserve">
<g>
	<path fill="none" stroke="#000000" stroke-linecap="round" stroke-linejoin="round" d="M22.8765,10.7948l-0.157-0.1572
		c-0.3315-0.3315-0.8403-0.3759-1.2213-0.1357l-8.0381-8.0382c0.2406-0.3803,0.1961-0.8894-0.1353-1.2209l-0.1575-0.1569
		c-0.3849-0.3848-1.0087-0.3848-1.3936,0L6.334,6.5256c-0.3844,0.3844-0.3844,1.009,0,1.3938l0.1575,0.1569
		c0.3301,0.3301,0.8363,0.3745,1.2161,0.138l8.0407,8.0402c-0.2366,0.3803-0.1922,0.886,0.1379,1.2165l0.157,0.1572
		c0.3849,0.3855,1.0092,0.3855,1.394,0l5.4393-5.4392C23.2615,11.8039,23.2615,11.1794,22.8765,10.7948"/>
	
		<line fill="none" stroke="#000000" stroke-linecap="round" stroke-linejoin="round" x1="10.3891" y1="13.5734" x2="0.6136" y2="23.3489"/>
	
		<line fill="none" stroke="#000000" stroke-linecap="round" stroke-linejoin="round" x1="15.7483" y1="16.2545" x2="21.4983" y2="10.502"/>
	
		<line fill="none" stroke="#000000" stroke-linecap="round" stroke-linejoin="round" x1="7.7076" y1="8.2143" x2="13.4601" y2="2.4638"/>
</g>
<rect x="-0.0005" y="-0.0011" fill="none" width="24" height="24"/>
</svg>
