<?xml version="1.0" encoding="utf-8"?>
<!-- Generator: Adobe Illustrator 18.1.0, SVG Export Plug-In . SVG Version: 6.00 Build 0)  -->
<svg version="1.1" id="Layer_1" xmlns="http://www.w3.org/2000/svg" xmlns:xlink="http://www.w3.org/1999/xlink" x="0px" y="0px"
	 width="24px" height="24px" viewBox="0 0 24 24" enable-background="new 0 0 24 24" xml:space="preserve">
<g>
	<path fill="none" stroke="#000000" stroke-linecap="round" stroke-linejoin="round" d="M7.1476,18.8269
		c1.805,0.4974,3.3524-4.1812,3.3524-4.1812v3.6792c0,2.7898,2.2102,5.0514,5,5.0514c2.7898,0,5-2.2616,5-5.0514V3.5197h-11v3.1755
		C5.5,11.417,4.5521,18.1116,7.1476,18.8269z"/>
	
		<ellipse transform="matrix(-0.8106 -0.5856 0.5856 -0.8106 12.8045 8.7492)" fill="none" stroke="#000000" stroke-linecap="round" stroke-linejoin="round" cx="7.8171" cy="2.3039" rx="2.0761" ry="1.0287"/>
	<g>
		<g>
			<line fill="none" stroke="#000000" stroke-linecap="round" stroke-linejoin="round" x1="20.5" y1="6.5363" x2="20" y2="6.5363"/>
			
				<line fill="none" stroke="#000000" stroke-linecap="round" stroke-linejoin="round" stroke-dasharray="0.9091,2.7273" x1="17.2727" y1="6.5363" x2="11.3635" y2="6.5363"/>
			
				<line fill="none" stroke="#000000" stroke-linecap="round" stroke-linejoin="round" x1="9.9999" y1="6.5363" x2="9.4999" y2="6.5363"/>
		</g>
	</g>
</g>
<rect x="0" y="0.0197" fill="none" width="24" height="24"/>
</svg>
