<?xml version="1.0" encoding="utf-8"?>
<!-- Generator: Adobe Illustrator 18.1.0, SVG Export Plug-In . SVG Version: 6.00 Build 0)  -->
<svg version="1.1" id="Layer_1" xmlns="http://www.w3.org/2000/svg" xmlns:xlink="http://www.w3.org/1999/xlink" x="0px" y="0px"
	 width="24px" height="24px" viewBox="0 0 24 24" enable-background="new 0 0 24 24" xml:space="preserve">
<g>
	
		<line fill="none" stroke="#000000" stroke-linecap="round" stroke-linejoin="round" x1="13.5266" y1="20.5489" x2="13.5266" y2="23.4018"/>
	
		<line fill="none" stroke="#000000" stroke-linecap="round" stroke-linejoin="round" x1="10.4954" y1="23.4018" x2="10.4954" y2="20.5489"/>
	<path fill="none" stroke="#000000" stroke-linecap="round" stroke-linejoin="round" d="M16.4649,9.5777
		c2.2391-0.474,3.8347-1.6833,3.8347-3.1051h-3.7882l0.1348-2.9102c2.1445-0.4997,3.6534-1.6846,3.6534-3.0682H3.671
		c0,1.3587,1.4561,2.525,3.5393,3.0396l0.136,2.9388H3.671c0,1.3842,1.5102,2.5694,3.6562,3.0686l0.1541,0.1294l0.1098,2.8806
		h-3.598c0,1.3842,1.5102,2.5694,3.6562,3.0686l0.074,0.0622l0.075,3.1131c0,0.9449,0.7657,1.7103,1.7103,1.7103h4.8403
		c0.9447,0,1.7104-0.7654,1.7104-1.7103l0.0757-3.1322l0.0077-0.0066c2.2391-0.474,3.8347-1.6833,3.8347-3.1051h-3.711
		l0.1106-2.8997L16.4649,9.5777z"/>
	
		<ellipse fill="none" stroke="#000000" stroke-linecap="round" stroke-linejoin="round" cx="11.9289" cy="4.4709" rx="2.0397" ry="1.9746"/>
	
		<ellipse fill="none" stroke="#000000" stroke-linecap="round" stroke-linejoin="round" cx="11.9289" cy="10.4715" rx="2.0397" ry="1.9746"/>
	
		<ellipse fill="none" stroke="#000000" stroke-linecap="round" stroke-linejoin="round" cx="11.9289" cy="16.4721" rx="2.0397" ry="1.9746"/>
</g>
<rect x="-0.0136" y="0.0002" fill="none" width="24" height="24"/>
</svg>
