<?xml version="1.0" encoding="utf-8"?>
<!-- Generator: Adobe Illustrator 18.1.0, SVG Export Plug-In . SVG Version: 6.00 Build 0)  -->
<svg version="1.1" id="Layer_1" xmlns="http://www.w3.org/2000/svg" xmlns:xlink="http://www.w3.org/1999/xlink" x="0px" y="0px"
	 width="24px" height="24px" viewBox="0 0 24 24" enable-background="new 0 0 24 24" xml:space="preserve">
<g>
	<path fill="none" stroke="#000000" stroke-linecap="round" stroke-linejoin="round" d="M14.8453,21.3608
		c0,0-2.7953-7.8608-2.7953-10.8608H5.8234c0,3.3272-2.7067,11-2.7067,11"/>
	
		<line fill="none" stroke="#000000" stroke-linecap="round" stroke-linejoin="round" x1="7.5399" y1="13.5" x2="12.4953" y2="13.5"/>
	<path fill="none" stroke="#000000" stroke-linecap="round" stroke-linejoin="round" d="M20.834,21.4334
		c0,0-2.0942-5.9334-2.0942-8.9334h-4.7393"/>
	
		<line fill="none" stroke="#000000" stroke-linecap="round" stroke-linejoin="round" x1="15.1158" y1="15.5" x2="19.1373" y2="15.5"/>
	
		<line fill="none" stroke="#000000" stroke-linecap="round" stroke-linejoin="round" x1="1.0005" y1="23.5" x2="23.0005" y2="23.5"/>
	<path fill="none" stroke="#000000" stroke-linecap="round" stroke-linejoin="round" stroke-miterlimit="10" d="M14.9051,3.9445
		c0,0,0.6914,1.6579-3.3232,2.0858C7.5676,6.4581,8.8032,8.297,8.8032,8.297"/>
	<path fill="none" stroke="#000000" stroke-linecap="round" stroke-linejoin="round" stroke-miterlimit="10" d="M18.5803,8.5884
		c0,0,0.2851,0.6837-1.3705,0.8601c-1.6554,0.1764-1.1459,0.9348-1.1459,0.9348"/>
</g>
<rect x="0.0005" y="0" fill="none" width="24" height="24"/>
</svg>
