<?xml version="1.0" encoding="utf-8"?>
<!-- Generator: Adobe Illustrator 18.1.0, SVG Export Plug-In . SVG Version: 6.00 Build 0)  -->
<svg version="1.1" id="Layer_1" xmlns="http://www.w3.org/2000/svg" xmlns:xlink="http://www.w3.org/1999/xlink" x="0px" y="0px"
	 width="24px" height="24px" viewBox="0 0 24 24" enable-background="new 0 0 24 24" xml:space="preserve">
<g>
	<path fill="none" stroke="#000000" stroke-linecap="round" stroke-linejoin="round" stroke-miterlimit="10" d="M14.4552,4.4999
		H2.7032c-1.2238,0-2.2168,1.0166-2.2168,2.2402v11.6138c0,1.2238,0.993,2.146,2.2168,2.146H19.231
		c1.2238,0,2.2553-0.9223,2.2553-2.146v-5.854"/>
	
		<line fill="none" stroke="#000000" stroke-linecap="round" stroke-linejoin="round" stroke-miterlimit="10" x1="3.4863" y1="17.4999" x2="3.4863" y2="14.4999"/>
	
		<line fill="none" stroke="#000000" stroke-linecap="round" stroke-linejoin="round" stroke-miterlimit="10" x1="17.4863" y1="17.4999" x2="17.4863" y2="14.4999"/>
	
		<line fill="none" stroke="#000000" stroke-linecap="round" stroke-linejoin="round" stroke-miterlimit="10" x1="11.4863" y1="17.4999" x2="11.4863" y2="8.4999"/>
	
		<line fill="none" stroke="#000000" stroke-linecap="round" stroke-linejoin="round" stroke-miterlimit="10" x1="5.4863" y1="17.4999" x2="5.4863" y2="12.4999"/>
	
		<line fill="none" stroke="#000000" stroke-linecap="round" stroke-linejoin="round" stroke-miterlimit="10" x1="9.4863" y1="17.4999" x2="9.4863" y2="12.4999"/>
	
		<line fill="none" stroke="#000000" stroke-linecap="round" stroke-linejoin="round" stroke-miterlimit="10" x1="15.4863" y1="17.4999" x2="15.4863" y2="12.4999"/>
	
		<line fill="none" stroke="#000000" stroke-linecap="round" stroke-linejoin="round" stroke-miterlimit="10" x1="13.4863" y1="17.4999" x2="13.4863" y2="13.4999"/>
	
		<line fill="none" stroke="#000000" stroke-linecap="round" stroke-linejoin="round" stroke-miterlimit="10" x1="7.4863" y1="17.4999" x2="7.4863" y2="10.4999"/>
	
		<circle fill="none" stroke="#000000" stroke-linecap="round" stroke-linejoin="round" stroke-miterlimit="10" cx="19.5498" cy="6.5101" r="3.7618"/>
	<polyline fill="none" stroke="#000000" stroke-linecap="round" stroke-linejoin="round" stroke-miterlimit="10" points="
		17.9078,6.5785 19.4863,4.9999 21.0649,6.5785 	"/>
	
		<line fill="none" stroke="#000000" stroke-linecap="round" stroke-linejoin="round" x1="19.4863" y1="7.9999" x2="19.4863" y2="4.9999"/>
</g>
<rect x="-0.0137" fill="none" width="24" height="24"/>
</svg>
