<?xml version="1.0" encoding="utf-8"?>
<!-- Generator: Adobe Illustrator 18.1.0, SVG Export Plug-In . SVG Version: 6.00 Build 0)  -->
<svg version="1.1" id="Layer_1" xmlns="http://www.w3.org/2000/svg" xmlns:xlink="http://www.w3.org/1999/xlink" x="0px" y="0px"
	 width="24px" height="24px" viewBox="0 0 24 24" enable-background="new 0 0 24 24" xml:space="preserve">
<g>
	<path fill="none" stroke="#000000" stroke-linecap="round" stroke-linejoin="round" stroke-miterlimit="10" d="M16.477,23.486
		h-1.4186c-0.5205,0-1.0074-0.2563-1.2947-0.6903c-0.967-1.4611-2.6597-5.6713,2.0746-11.2015
		c3.7009-4.323,4.5182,0.5598,4.5745,5.2114"/>
	
		<circle fill="none" stroke="#000000" stroke-linecap="round" stroke-linejoin="round" stroke-miterlimit="10" cx="19.8581" cy="20.8704" r="2.5516"/>
	<path fill="none" stroke="#000000" stroke-linecap="round" stroke-linejoin="round" stroke-miterlimit="10" d="M4.5139,23.486
		l4.882-16.3968c0,0,3.877-7.1862,10.3419-5.9971c3.6613,0.6734,0.5422,2.5753-0.4564,4.0376
		c-0.8509,1.246-0.7882,1.8739-0.8019,2.874"/>
	
		<line fill="none" stroke="#000000" stroke-linecap="round" stroke-linejoin="round" stroke-miterlimit="10" x1="1.4164" y1="23.486" x2="6.9797" y2="23.486"/>
	
		<line fill="none" stroke="#000000" stroke-linecap="round" stroke-linejoin="round" stroke-miterlimit="10" x1="14.4172" y1="18.5476" x2="14.4172" y2="19.6165"/>
	
		<line fill="none" stroke="#000000" stroke-linecap="round" stroke-linejoin="round" stroke-miterlimit="10" x1="19.8581" y1="20.8704" x2="19.8581" y2="20.8704"/>
</g>
<rect x="0.0142" y="0.0354" fill="none" width="24" height="24"/>
</svg>
