<?xml version="1.0" encoding="utf-8"?>
<!-- Generator: Adobe Illustrator 18.1.0, SVG Export Plug-In . SVG Version: 6.00 Build 0)  -->
<svg version="1.1" id="Layer_1" xmlns="http://www.w3.org/2000/svg" xmlns:xlink="http://www.w3.org/1999/xlink" x="0px" y="0px"
	 width="24px" height="24px" viewBox="0 0 24 24" enable-background="new 0 0 24 24" xml:space="preserve">
<g>
	<path fill="none" stroke="#000000" stroke-linecap="round" stroke-linejoin="round" stroke-miterlimit="10" d="M20.6248,7.0643
		l1.2649-1.2819c0.0421-0.0427,0.0715-0.0961,0.0794-0.1467c0.0088-0.0525-0.0026-0.0987-0.0325-0.1289L20.459,4.0101
		c-0.0294-0.0307-0.0755-0.0418-0.1259-0.0338c-0.0505,0.0084-0.104,0.0373-0.1457,0.0805l-1.2649,1.2815
		C18.8804,5.3809,20.5827,7.1074,20.6248,7.0643z"/>
	
		<line fill="none" stroke="#000000" stroke-linecap="round" stroke-linejoin="round" stroke-miterlimit="10" x1="16.4733" y1="9.536" x2="11.587" y2="14.5625"/>
	
		<ellipse fill="none" stroke="#000000" stroke-linecap="round" stroke-linejoin="round" stroke-miterlimit="10" cx="12.0423" cy="14.1723" rx="9.0736" ry="9.1955"/>
	<path fill="none" stroke="#000000" stroke-linecap="round" stroke-linejoin="round" stroke-miterlimit="10" d="M13.5,5.0947V3.5h1
		V1c0-0.2761-0.2239-0.5-0.5-0.5h-4C9.7239,0.5,9.5,0.7239,9.5,1v2.5h1v1.5947"/>
</g>
<rect x="0" y="0" fill="none" width="24" height="24"/>
</svg>
