<?xml version="1.0" encoding="utf-8"?>
<!-- Generator: Adobe Illustrator 18.1.0, SVG Export Plug-In . SVG Version: 6.00 Build 0)  -->
<svg version="1.1" id="Layer_1" xmlns="http://www.w3.org/2000/svg" xmlns:xlink="http://www.w3.org/1999/xlink" x="0px" y="0px"
	 width="24px" height="24px" viewBox="0 0 24 24" enable-background="new 0 0 24 24" xml:space="preserve">
<g>
	<g>
		<g>
			
				<line fill="none" stroke="#000000" stroke-linecap="round" stroke-linejoin="round" x1="0.5117" y1="21.5301" x2="3.0117" y2="21.5301"/>
			
				<line fill="none" stroke="#000000" stroke-linecap="round" stroke-linejoin="round" x1="6.0095" y1="21.5301" x2="8.5095" y2="21.5301"/>
		</g>
	</g>
	<g>
		<g>
			
				<line fill="none" stroke="#000000" stroke-linecap="round" stroke-linejoin="round" x1="14.5131" y1="21.5301" x2="17.0131" y2="21.5301"/>
			
				<line fill="none" stroke="#000000" stroke-linecap="round" stroke-linejoin="round" x1="20.0109" y1="21.5301" x2="22.5109" y2="21.5301"/>
		</g>
	</g>
	
		<line fill="none" stroke="#000000" stroke-linecap="round" stroke-linejoin="round" x1="11.4512" y1="17.5839" x2="11.4511" y2="20.66"/>
	
		<circle fill="none" stroke="#000000" stroke-linecap="round" stroke-linejoin="round" stroke-miterlimit="10" cx="11.4512" cy="21.5397" r="0.8797"/>
	<path fill="none" stroke="#000000" stroke-linecap="round" stroke-linejoin="round" stroke-miterlimit="10" d="M20.5022,2.5542
		H8.4184c0,0-0.9169-2.0399-1.4379-2.0399H3.4128c-0.5214,0-0.9456,0.4263-0.9456,0.9507v13.0587
		c0,0.524,0.4242,0.9499,0.9456,0.9499h17.0893c0.521,0,0.9452-0.4259,0.9452-0.9499V3.505
		C21.4473,2.9805,21.0231,2.5542,20.5022,2.5542z"/>
	
		<line fill="none" stroke="#000000" stroke-linecap="round" stroke-linejoin="round" stroke-miterlimit="10" x1="21.4473" y1="5.5251" x2="2.4672" y2="5.5251"/>
</g>
<rect x="0" y="0" fill="none" width="24" height="24"/>
</svg>
