<?xml version="1.0" encoding="utf-8"?>
<!-- Generator: Adobe Illustrator 18.1.0, SVG Export Plug-In . SVG Version: 6.00 Build 0)  -->
<svg version="1.1" id="Layer_1" xmlns="http://www.w3.org/2000/svg" xmlns:xlink="http://www.w3.org/1999/xlink" x="0px" y="0px"
	 width="24px" height="24px" viewBox="0 0 24 24" enable-background="new 0 0 24 24" xml:space="preserve">
<g>
	<path fill="none" stroke="#000000" stroke-linecap="round" stroke-linejoin="round" stroke-miterlimit="10" d="M22.7633,17.9908
		c-2.6391,2.7576-6.3562,4.4752-10.4746,4.4752S4.4532,20.7485,1.814,17.9908"/>
	<path fill="none" stroke="#000000" stroke-linecap="round" stroke-linejoin="round" stroke-miterlimit="10" d="M19.5178,18.1023
		V8.9425c0-1.3605-1.1029-2.4635-2.4634-2.4635H9.928C8.8273,2.4335,4.9487,1.4227,3.3302,1.175
		C2.9241,1.1129,2.5344,1.3587,2.4173,1.7525l-1.505,5.0593C0.8656,6.9687,0.9416,7.1361,1.0906,7.2041l0.8439,0.3857
		c0.1323,0.0605,0.2887,0.0268,0.3842-0.083l1.8937-1.6687c0.1967-0.2257,0.5682-0.092,0.576,0.2074l0.2909,12.0685"/>
	<path fill="none" stroke="#000000" stroke-linecap="round" stroke-linejoin="round" stroke-miterlimit="10" d="M6.7278,18.9249
		l0.5345-3.9577c0.042-1.3294,1.132-2.3855,2.4622-2.3855h5.1829c1.3302,0,2.4202,1.0561,2.4622,2.3855l0.5316,3.9369"/>
	<path fill="none" stroke="#000000" stroke-linecap="round" stroke-linejoin="round" stroke-miterlimit="10" d="M10.1405,8.3652
		c0,0,2.4343,1.9802,5.7225,0"/>
	<path fill="none" stroke="#000000" stroke-linecap="round" stroke-linejoin="round" stroke-miterlimit="10" d="M21.5809,12.3877
		c0,0,0.0533-4.9161-2.0885-3.7981"/>
	<path fill="none" stroke="#000000" stroke-linecap="round" stroke-linejoin="round" stroke-miterlimit="10" d="M18.6573,7.0722
		c0,0,4.6706-2.1024,4.3941,5.801"/>
	
		<line fill="none" stroke="#000000" stroke-linecap="round" stroke-linejoin="round" stroke-miterlimit="10" x1="3.8286" y1="3.4807" x2="3.8286" y2="3.4807"/>
</g>
<rect x="0.0142" y="0.0344" fill="none" width="24" height="24"/>
</svg>
