<?xml version="1.0" encoding="utf-8"?>
<!-- Generator: Adobe Illustrator 18.1.0, SVG Export Plug-In . SVG Version: 6.00 Build 0)  -->
<svg version="1.1" id="Layer_1" xmlns="http://www.w3.org/2000/svg" xmlns:xlink="http://www.w3.org/1999/xlink" x="0px" y="0px"
	 width="24px" height="24px" viewBox="0 0 24 24" enable-background="new 0 0 24 24" xml:space="preserve">
<g>
	<g>
		<g>
			
				<line fill="none" stroke="#000000" stroke-linecap="round" stroke-linejoin="round" x1="19.743" y1="19.5043" x2="20.243" y2="19.5043"/>
			
				<line fill="none" stroke="#000000" stroke-linecap="round" stroke-linejoin="round" x1="22.0166" y1="19.5043" x2="22.5166" y2="19.5043"/>
		</g>
	</g>
	<g>
		<g>
			
				<line fill="none" stroke="#000000" stroke-linecap="round" stroke-linejoin="round" x1="1.4685" y1="19.5043" x2="1.9685" y2="19.5043"/>
			
				<line fill="none" stroke="#000000" stroke-linecap="round" stroke-linejoin="round" x1="3.7421" y1="19.5043" x2="4.2421" y2="19.5043"/>
		</g>
	</g>
	<g>
		<g>
			
				<line fill="none" stroke="#000000" stroke-linecap="round" stroke-linejoin="round" x1="6.7422" y1="19.5043" x2="7.2422" y2="19.5043"/>
			
				<line fill="none" stroke="#000000" stroke-linecap="round" stroke-linejoin="round" stroke-dasharray="0.8637,2.5911" x1="9.8333" y1="19.5043" x2="15.4473" y2="19.5043"/>
			
				<line fill="none" stroke="#000000" stroke-linecap="round" stroke-linejoin="round" x1="16.7429" y1="19.5043" x2="17.2429" y2="19.5043"/>
		</g>
	</g>
	<g>
		<g>
			
				<line fill="none" stroke="#000000" stroke-linecap="round" stroke-linejoin="round" x1="18.4929" y1="18.2544" x2="18.4929" y2="17.7544"/>
			
				<line fill="none" stroke="#000000" stroke-linecap="round" stroke-linejoin="round" x1="18.4929" y1="15.5531" x2="18.4929" y2="15.0531"/>
		</g>
	</g>
	<g>
		<g>
			
				<line fill="none" stroke="#000000" stroke-linecap="round" stroke-linejoin="round" x1="5.4922" y1="15.0531" x2="5.4922" y2="15.5531"/>
			
				<line fill="none" stroke="#000000" stroke-linecap="round" stroke-linejoin="round" x1="5.4922" y1="17.7544" x2="5.4922" y2="18.2544"/>
		</g>
	</g>
	<circle fill="none" stroke="#000000" stroke-linecap="round" stroke-linejoin="round" cx="5.4921" cy="19.5044" r="1.25"/>
	<circle fill="none" stroke="#000000" stroke-linecap="round" stroke-linejoin="round" cx="18.4929" cy="19.5044" r="1.25"/>
	<path fill="none" stroke="#000000" stroke-linecap="round" stroke-linejoin="round" stroke-miterlimit="10" d="M9.5787,3.5002
		H1.4956c-0.5143,0-0.9925,0.4775-0.9925,0.9854v6.1365c0,0.5081,0.4782,0.8781,0.9925,0.8781h8.0831
		c0.5148,0,0.9242-0.37,0.9242-0.8781V4.4856C10.5029,3.9778,10.0935,3.5002,9.5787,3.5002z"/>
	
		<line fill="none" stroke="#000000" stroke-linecap="round" stroke-linejoin="round" stroke-miterlimit="10" x1="10.5029" y1="9.5002" x2="0.503" y2="9.5002"/>
	
		<line fill="none" stroke="#000000" stroke-linecap="round" stroke-linejoin="round" stroke-miterlimit="10" x1="6.5101" y1="13.5002" x2="4.5683" y2="13.5002"/>
	
		<line fill="none" stroke="#000000" stroke-linecap="round" stroke-linejoin="round" stroke-miterlimit="10" x1="5.503" y1="13.5002" x2="5.503" y2="11.5002"/>
	<path fill="none" stroke="#000000" stroke-linecap="round" stroke-linejoin="round" stroke-miterlimit="10" d="M22.5795,3.5002
		h-8.0831c-0.5143,0-0.9925,0.4775-0.9925,0.9854v6.1365c0,0.5081,0.4782,0.8781,0.9925,0.8781h8.0831
		c0.5148,0,0.9242-0.37,0.9242-0.8781V4.4856C23.5037,3.9778,23.0943,3.5002,22.5795,3.5002z"/>
	
		<line fill="none" stroke="#000000" stroke-linecap="round" stroke-linejoin="round" stroke-miterlimit="10" x1="23.5037" y1="9.5002" x2="13.5039" y2="9.5002"/>
	
		<line fill="none" stroke="#000000" stroke-linecap="round" stroke-linejoin="round" stroke-miterlimit="10" x1="19.511" y1="13.5002" x2="17.5691" y2="13.5002"/>
	
		<line fill="none" stroke="#000000" stroke-linecap="round" stroke-linejoin="round" stroke-miterlimit="10" x1="18.5038" y1="13.5002" x2="18.5038" y2="11.5002"/>
</g>
<rect x="0" y="0" fill="none" width="24" height="24"/>
</svg>
