<?xml version="1.0" encoding="utf-8"?>
<!-- Generator: Adobe Illustrator 18.1.0, SVG Export Plug-In . SVG Version: 6.00 Build 0)  -->
<svg version="1.1" id="Layer_1" xmlns="http://www.w3.org/2000/svg" xmlns:xlink="http://www.w3.org/1999/xlink" x="0px" y="0px"
	 width="24px" height="24px" viewBox="0 0 24 24" enable-background="new 0 0 24 24" xml:space="preserve">
<g>
	
		<line fill="none" stroke="#000000" stroke-linecap="round" stroke-linejoin="round" stroke-miterlimit="10" x1="0.9954" y1="23.5" x2="22.9954" y2="23.5"/>
	<path fill="none" stroke="#000000" stroke-linecap="round" stroke-linejoin="round" stroke-miterlimit="10" d="M3.5977,20.5
		l-1.6243-5.2616c0,0,1.9676-0.5089,3.0347,0.2443"/>
	<path fill="none" stroke="#000000" stroke-linecap="round" stroke-linejoin="round" stroke-miterlimit="10" d="M8.8477,20.5
		c0,0-0.2045-3.5314-2.022-10.147c0,0,4.2415,0.8407,5.8923,5.9094"/>
	<path fill="none" stroke="#000000" stroke-linecap="round" stroke-linejoin="round" stroke-miterlimit="10" d="M11.5177,17.4997
		c0,0,1.6109-2.7807,5.9962-2.4294L15.4891,20.5"/>
	<path fill="none" stroke="#000000" stroke-linecap="round" stroke-linejoin="round" stroke-miterlimit="10" d="M17.7344,17.9564
		c0,0,0.9084-2.2224,4.7151-1.2931c0,0-2.201,2.0763-2.8847,3.2569"/>
	<path fill="none" stroke="#000000" stroke-linecap="round" stroke-linejoin="round" stroke-miterlimit="10" d="M7.9411,14.8779
		c0,0-0.932-1.4308-3.1997-1.5937l0.8004,5.5366"/>
	<polyline fill="none" stroke="#000000" stroke-linecap="round" stroke-linejoin="round" stroke-miterlimit="10" points="
		1.4864,23.5 1.4864,19.5 3.2296,19.5 	"/>
	<polyline fill="none" stroke="#000000" stroke-linecap="round" stroke-linejoin="round" stroke-miterlimit="10" points="
		20.5042,18.6792 22.4495,20.042 22.4495,23.5 	"/>
	<polyline fill="none" stroke="#000000" stroke-linecap="round" stroke-linejoin="round" stroke-miterlimit="10" points="
		2.9864,20.5 15.4891,20.5 15.8607,21.5 22.4495,21.5 	"/>
</g>
<rect x="-0.0136" y="0" fill="none" width="24" height="24"/>
</svg>
