<?xml version="1.0" encoding="utf-8"?>
<!-- Generator: Adobe Illustrator 18.1.0, SVG Export Plug-In . SVG Version: 6.00 Build 0)  -->
<svg version="1.1" id="Layer_1" xmlns="http://www.w3.org/2000/svg" xmlns:xlink="http://www.w3.org/1999/xlink" x="0px" y="0px"
	 width="24px" height="24px" viewBox="0 0 24 24" enable-background="new 0 0 24 24" xml:space="preserve">
<g>
	<path fill="none" stroke="#000000" stroke-linecap="round" stroke-linejoin="round" stroke-miterlimit="10" d="M17.0235,1.8359
		L6.523,12.3363c-0.3725,0.3725-0.6582,0.8227-0.8365,1.3184l-1.103,3.0652c-0.2442,0.6788-0.6354,1.2952-1.1455,1.8053
		l-2.2056,2.2056c-0.5699,0.5699-0.5699,1.4939,0,2.0638l0,0c0.5699,0.5699,1.4939,0.5699,2.0638,0l2.2056-2.2056
		c0.5101-0.5101,1.1265-0.9012,1.8053-1.1455l3.0652-1.103c0.4957-0.1784,0.9459-0.464,1.3184-0.8365L22.1913,7.0037
		c1.427-1.4271,1.427-3.7408,0-5.1678l0,0C20.7642,0.4088,18.4505,0.4088,17.0235,1.8359z"/>
	
		<line fill="none" stroke="#000000" stroke-linecap="round" stroke-linejoin="round" stroke-miterlimit="10" x1="2.8171" y1="19.1461" x2="4.881" y2="21.21"/>
	
		<line fill="none" stroke="#000000" stroke-linecap="round" stroke-linejoin="round" stroke-miterlimit="10" x1="19.5178" y1="4.5093" x2="8.7552" y2="15.2719"/>
	
		<line fill="none" stroke="#000000" stroke-linecap="round" stroke-linejoin="round" stroke-miterlimit="10" x1="15.5516" y1="3.3077" x2="16.7073" y2="4.4634"/>
	
		<line fill="none" stroke="#000000" stroke-linecap="round" stroke-linejoin="round" stroke-miterlimit="10" x1="13.5564" y1="5.3029" x2="14.7121" y2="6.4585"/>
	
		<line fill="none" stroke="#000000" stroke-linecap="round" stroke-linejoin="round" stroke-miterlimit="10" x1="11.5613" y1="7.298" x2="12.717" y2="8.4537"/>
	
		<line fill="none" stroke="#000000" stroke-linecap="round" stroke-linejoin="round" stroke-miterlimit="10" x1="9.5661" y1="9.2932" x2="10.7218" y2="10.4489"/>
	
		<line fill="none" stroke="#000000" stroke-linecap="round" stroke-linejoin="round" stroke-miterlimit="10" x1="7.5709" y1="11.2884" x2="8.7266" y2="12.444"/>
	
		<line fill="none" stroke="#000000" stroke-linecap="round" stroke-linejoin="round" stroke-miterlimit="10" x1="2.0142" y1="5.5346" x2="9.0142" y2="5.5346"/>
	
		<line fill="none" stroke="#000000" stroke-linecap="round" stroke-linejoin="round" stroke-miterlimit="10" x1="5.5142" y1="9.0346" x2="5.5142" y2="2.0346"/>
</g>
<rect x="0.0142" y="0.0346" fill="none" width="24" height="24"/>
</svg>
