<?xml version="1.0" encoding="utf-8"?>
<!-- Generator: Adobe Illustrator 18.1.0, SVG Export Plug-In . SVG Version: 6.00 Build 0)  -->
<svg version="1.1" id="Layer_1" xmlns="http://www.w3.org/2000/svg" xmlns:xlink="http://www.w3.org/1999/xlink" x="0px" y="0px"
	 width="24px" height="24px" viewBox="0 0 24 24" enable-background="new 0 0 24 24" xml:space="preserve">
<g>
	<g>
		<g>
			<line fill="none" stroke="#000000" stroke-linecap="round" stroke-linejoin="round" x1="2.5" y1="0.5031" x2="2.5" y2="1.5031"/>
			
				<line fill="none" stroke="#000000" stroke-linecap="round" stroke-linejoin="round" stroke-dasharray="2.125,4.25" x1="2.5" y1="5.7531" x2="2.5" y2="16.3781"/>
			<polyline fill="none" stroke="#000000" stroke-linecap="round" stroke-linejoin="round" points="2.5,18.5031 2.5,19.5031 
				3.5,19.5031 			"/>
			
				<line fill="none" stroke="#000000" stroke-linecap="round" stroke-linejoin="round" stroke-dasharray="1.8,3.5999" x1="7.1" y1="19.5031" x2="10.6999" y2="19.5031"/>
			
				<line fill="none" stroke="#000000" stroke-linecap="round" stroke-linejoin="round" x1="12.4999" y1="19.5031" x2="13.4999" y2="19.5031"/>
		</g>
	</g>
	<polyline fill="none" stroke="#000000" stroke-linecap="round" stroke-linejoin="round" stroke-miterlimit="10" points="
		21.4999,2.5031 19.5331,2.5031 19.5331,0.5031 	"/>
	<path fill="none" stroke="#000000" stroke-linecap="round" stroke-linejoin="round" stroke-miterlimit="10" d="M21.4999,10.174
		c0,0.1971-0.1892,0.3291-0.3866,0.3291h-7.2614c-0.1971,0-0.352-0.132-0.352-0.3291V0.8678c0-0.197,0.1549-0.3647,0.352-0.3647
		h5.7666c0.0937,0,0.1836,0.0409,0.2503,0.1066l1.51,1.4758c0.0678,0.0669,0.1212,0.1605,0.1212,0.2559V10.174z"/>
	<polyline fill="none" stroke="#000000" stroke-linecap="round" stroke-linejoin="round" stroke-miterlimit="10" points="
		21.4999,15.5039 19.5331,15.5039 19.5331,13.5039 	"/>
	<path fill="none" stroke="#000000" stroke-linecap="round" stroke-linejoin="round" stroke-miterlimit="10" d="M21.4999,23.1749
		c0,0.1971-0.1892,0.3291-0.3866,0.3291h-7.2614c-0.1971,0-0.352-0.132-0.352-0.3291v-9.3062c0-0.197,0.1549-0.3647,0.352-0.3647
		h5.7666c0.0937,0,0.1836,0.0409,0.2503,0.1066l1.51,1.4758c0.0678,0.0669,0.1212,0.1605,0.1212,0.2559V23.1749z"/>
	<g>
		<g>
			
				<line fill="none" stroke="#000000" stroke-linecap="round" stroke-linejoin="round" x1="13.4999" y1="6.5031" x2="12.4999" y2="6.5031"/>
			
				<line fill="none" stroke="#000000" stroke-linecap="round" stroke-linejoin="round" stroke-dasharray="1.8,3.5999" x1="8.8999" y1="6.5031" x2="5.3" y2="6.5031"/>
			<line fill="none" stroke="#000000" stroke-linecap="round" stroke-linejoin="round" x1="3.5" y1="6.5031" x2="2.5" y2="6.5031"/>
		</g>
	</g>
</g>
<rect x="0" y="0.0001" fill="none" width="24" height="24"/>
</svg>
