<?xml version="1.0" encoding="utf-8"?>
<!-- Generator: Adobe Illustrator 18.1.0, SVG Export Plug-In . SVG Version: 6.00 Build 0)  -->
<svg version="1.1" id="Layer_1" xmlns="http://www.w3.org/2000/svg" xmlns:xlink="http://www.w3.org/1999/xlink" x="0px" y="0px"
	 width="24px" height="24px" viewBox="0 0 24 24" enable-background="new 0 0 24 24" xml:space="preserve">
<g>
	
		<line fill="none" stroke="#000000" stroke-linecap="round" stroke-linejoin="round" stroke-miterlimit="10" x1="11.9841" y1="16.3875" x2="11.9841" y2="23.5197"/>
	
		<line fill="none" stroke="#000000" stroke-linecap="round" stroke-linejoin="round" stroke-miterlimit="10" x1="15.4841" y1="23.5197" x2="8.4841" y2="23.5197"/>
	<path fill="none" stroke="#000000" stroke-linecap="round" stroke-linejoin="round" stroke-miterlimit="10" d="M6.2421,8.5197
		c-0.2445,0.9621-0.3783,1.2723-0.3783,1.991c0,3.2604,2.7472,5.8768,6.1362,5.8768c3.3889,0,6.1362-2.6031,6.1362-5.8635
		c0-0.7187-0.1339-1.0423-0.3783-2.0043H6.2421z"/>
	
		<line fill="none" stroke="#000000" stroke-linecap="round" stroke-linejoin="round" stroke-miterlimit="10" x1="9.9294" y1="8.5197" x2="7.184" y2="0.713"/>
	<path fill="none" stroke="#000000" stroke-linecap="round" stroke-linejoin="round" stroke-miterlimit="10" d="M17.1629,8.5197
		c0-1.8123-1.9566-2.942-3.5223-2.0594c-0.4954-1.3038-1.753-2.2321-3.2305-2.2321c-2.2448,0-3.891,2.1053-3.36,4.2812"/>
</g>
<rect x="0" y="0.0197" fill="none" width="24" height="24"/>
</svg>
