<?xml version="1.0" encoding="utf-8"?>
<!-- Generator: Adobe Illustrator 18.1.0, SVG Export Plug-In . SVG Version: 6.00 Build 0)  -->
<svg version="1.1" id="Layer_1" xmlns="http://www.w3.org/2000/svg" xmlns:xlink="http://www.w3.org/1999/xlink" x="0px" y="0px"
	 width="24px" height="24px" viewBox="0 0 24 24" enable-background="new 0 0 24 24" xml:space="preserve">
<g>
	<polygon fill="none" stroke="#000000" stroke-linecap="round" stroke-linejoin="round" points="19.8067,23.5251 5.121,23.5251 
		7.1097,4.5497 17.8179,4.5497 	"/>
	<path fill="none" stroke="#000000" stroke-linecap="round" stroke-linejoin="round" d="M17.8178,4.5397
		c0-2.2233-1.5265-4.0255-3.4095-4.0255h-3.8887c-1.883,0-3.4095,1.8022-3.4095,4.0255"/>
	
		<line fill="none" stroke="#000000" stroke-linecap="round" stroke-linejoin="round" stroke-miterlimit="10" x1="6.1687" y1="7.9137" x2="6.7232" y2="8.2377"/>
	
		<line fill="none" stroke="#000000" stroke-linecap="round" stroke-linejoin="round" stroke-miterlimit="10" x1="9.3385" y1="7.812" x2="9.3385" y2="8.3394"/>
	
		<line fill="none" stroke="#000000" stroke-linecap="round" stroke-linejoin="round" stroke-miterlimit="10" x1="12.4639" y1="7.812" x2="12.4639" y2="8.3394"/>
	
		<line fill="none" stroke="#000000" stroke-linecap="round" stroke-linejoin="round" stroke-miterlimit="10" x1="15.5893" y1="7.812" x2="15.5893" y2="8.3394"/>
	
		<line fill="none" stroke="#000000" stroke-linecap="round" stroke-linejoin="round" stroke-miterlimit="10" x1="18.7978" y1="7.9137" x2="18.2045" y2="8.2377"/>
	
		<line fill="none" stroke="#000000" stroke-linecap="round" stroke-linejoin="round" stroke-miterlimit="10" x1="5.8374" y1="10.9975" x2="6.4" y2="11.3215"/>
	
		<line fill="none" stroke="#000000" stroke-linecap="round" stroke-linejoin="round" stroke-miterlimit="10" x1="9.3385" y1="10.8959" x2="9.3385" y2="11.4232"/>
	
		<line fill="none" stroke="#000000" stroke-linecap="round" stroke-linejoin="round" stroke-miterlimit="10" x1="12.4639" y1="10.8959" x2="12.4639" y2="11.4232"/>
	
		<line fill="none" stroke="#000000" stroke-linecap="round" stroke-linejoin="round" stroke-miterlimit="10" x1="15.5893" y1="10.8959" x2="15.5893" y2="11.4232"/>
	
		<line fill="none" stroke="#000000" stroke-linecap="round" stroke-linejoin="round" stroke-miterlimit="10" x1="19.1292" y1="10.9975" x2="18.5277" y2="11.3215"/>
	
		<line fill="none" stroke="#000000" stroke-linecap="round" stroke-linejoin="round" stroke-miterlimit="10" x1="5.4596" y1="14.0813" x2="6.0768" y2="14.4053"/>
	
		<line fill="none" stroke="#000000" stroke-linecap="round" stroke-linejoin="round" stroke-miterlimit="10" x1="9.3385" y1="13.9797" x2="9.3385" y2="14.507"/>
	
		<line fill="none" stroke="#000000" stroke-linecap="round" stroke-linejoin="round" stroke-miterlimit="10" x1="12.4639" y1="13.9797" x2="12.4639" y2="14.507"/>
	
		<line fill="none" stroke="#000000" stroke-linecap="round" stroke-linejoin="round" stroke-miterlimit="10" x1="15.5893" y1="13.9797" x2="15.5893" y2="14.507"/>
	
		<line fill="none" stroke="#000000" stroke-linecap="round" stroke-linejoin="round" stroke-miterlimit="10" x1="19.507" y1="14.0813" x2="18.8509" y2="14.4053"/>
	
		<line fill="none" stroke="#000000" stroke-linecap="round" stroke-linejoin="round" stroke-miterlimit="10" x1="5.2145" y1="17.1651" x2="5.7536" y2="17.4891"/>
	
		<line fill="none" stroke="#000000" stroke-linecap="round" stroke-linejoin="round" stroke-miterlimit="10" x1="9.3385" y1="17.0635" x2="9.3385" y2="17.5908"/>
	
		<line fill="none" stroke="#000000" stroke-linecap="round" stroke-linejoin="round" stroke-miterlimit="10" x1="12.4639" y1="17.0635" x2="12.4639" y2="17.5908"/>
	
		<line fill="none" stroke="#000000" stroke-linecap="round" stroke-linejoin="round" stroke-miterlimit="10" x1="15.5893" y1="17.0635" x2="15.5893" y2="17.5908"/>
	
		<line fill="none" stroke="#000000" stroke-linecap="round" stroke-linejoin="round" stroke-miterlimit="10" x1="19.7521" y1="17.1651" x2="19.1789" y2="17.4891"/>
	
		<line fill="none" stroke="#000000" stroke-linecap="round" stroke-linejoin="round" stroke-miterlimit="10" x1="4.8368" y1="20.2489" x2="5.4304" y2="20.5729"/>
	
		<line fill="none" stroke="#000000" stroke-linecap="round" stroke-linejoin="round" stroke-miterlimit="10" x1="9.3385" y1="20.1473" x2="9.3385" y2="20.6746"/>
	
		<line fill="none" stroke="#000000" stroke-linecap="round" stroke-linejoin="round" stroke-miterlimit="10" x1="12.4639" y1="20.1473" x2="12.4639" y2="20.6746"/>
	
		<line fill="none" stroke="#000000" stroke-linecap="round" stroke-linejoin="round" stroke-miterlimit="10" x1="15.5893" y1="20.1473" x2="15.5893" y2="20.6746"/>
	
		<line fill="none" stroke="#000000" stroke-linecap="round" stroke-linejoin="round" stroke-miterlimit="10" x1="20.1298" y1="20.2489" x2="19.507" y2="20.5729"/>
</g>
<rect x="0" y="0.0197" fill="none" width="24" height="24"/>
</svg>
