<?xml version="1.0" encoding="utf-8"?>
<!-- Generator: Adobe Illustrator 18.1.0, SVG Export Plug-In . SVG Version: 6.00 Build 0)  -->
<svg version="1.1" id="Layer_1" xmlns="http://www.w3.org/2000/svg" xmlns:xlink="http://www.w3.org/1999/xlink" x="0px" y="0px"
	 width="24px" height="24px" viewBox="0 0 24 24" enable-background="new 0 0 24 24" xml:space="preserve">
<g>
	<path fill="none" stroke="#000000" stroke-linecap="round" stroke-linejoin="round" d="M3.9698,10.4551H1.2767
		c-0.3255,0-0.5894,0.2637-0.5894,0.5896v0.7246c0,0.6313,0.7386,0.6151,1.3906,0.7265c-0.253,0.4946-0.6938,4.7641-0.6938,4.7641
		c0,0.0987,0,5.2197,0,5.2197c0,0.5807,0.4709,1.0515,1.0519,1.0515h1.6055c0.581,0,1.0519-0.4707,1.0519-1.0515v-1.9595h13.803
		v1.9595c0,0.5807,0.4709,1.0515,1.0519,1.0515h1.6055c0.5809,0,1.0519-0.4707,1.0519-1.0515c0,0,0-5.121,0-5.2197
		c0,0-0.4415-4.2717-0.6955-4.7671c0.6425-0.1098,1.3732-0.0907,1.3732-0.7236v-0.7246c0-0.3259-0.2639-0.5896-0.5894-0.5896h-2.674
		"/>
	<path fill="none" stroke="#000000" stroke-linecap="round" stroke-linejoin="round" d="M20.0198,10.3876
		c0,1.1643-1.3302,2.1082-2.5863,2.1082H6.5561c-1.2561,0-2.5863-0.9438-2.5863-2.1082l1.0375-3.8291
		C5.2227,5.4831,6.0257,4.45,7.282,4.45h9.4258c1.2561,0,2.0591,1.0034,2.2744,2.1085L20.0198,10.3876z"/>
	
		<line fill="none" stroke="#000000" stroke-linecap="round" stroke-linejoin="round" x1="9.5043" y1="16.5012" x2="14.4853" y2="16.5012"/>
	
		<line fill="none" stroke="#000000" stroke-linecap="round" stroke-linejoin="round" x1="9.5043" y1="18.5014" x2="14.4853" y2="18.5014"/>
	<circle fill="none" stroke="#000000" stroke-linecap="round" stroke-linejoin="round" cx="5.993" cy="17.032" r="1.5539"/>
	<circle fill="none" stroke="#000000" stroke-linecap="round" stroke-linejoin="round" cx="17.9966" cy="17.032" r="1.554"/>
	
		<line fill="none" stroke="#000000" stroke-linecap="round" stroke-linejoin="round" x1="10.7" y1="6.4502" x2="13.2955" y2="6.4502"/>
	
		<line fill="none" stroke="#000000" stroke-linecap="round" stroke-linejoin="round" x1="22.6055" y1="20.5201" x2="1.3841" y2="20.5201"/>
</g>
<rect x="-0.0137" y="0.0002" fill="none" width="24" height="24"/>
</svg>
