<?xml version="1.0" encoding="utf-8"?>
<!-- Generator: Adobe Illustrator 18.1.0, SVG Export Plug-In . SVG Version: 6.00 Build 0)  -->
<svg version="1.1" id="Layer_1" xmlns="http://www.w3.org/2000/svg" xmlns:xlink="http://www.w3.org/1999/xlink" x="0px" y="0px"
	 width="24px" height="24px" viewBox="0 0 24 24" enable-background="new 0 0 24 24" xml:space="preserve">
<g>
	<path fill="none" stroke="#000000" stroke-linecap="round" stroke-linejoin="round" d="M15.0728,2.5644h-1.2181V1.8993
		c0-0.7761-0.6587-1.4051-1.4706-1.4051h-0.7395c-0.8122,0-1.4706,0.629-1.4706,1.4051v0.6651H8.9065
		c-1.94,0-1.9693,2.9122,0,2.9122h6.1663C17.037,5.4766,17.0319,2.5644,15.0728,2.5644z"/>
	<polyline fill="none" stroke="#000000" stroke-linecap="round" stroke-linejoin="round" points="18.5245,3.475 20.5553,3.475 
		20.5553,23.5527 3.4736,23.5527 3.4736,3.475 5.4844,3.475 	"/>
	<polyline fill="none" stroke="#000000" stroke-linecap="round" stroke-linejoin="round" points="7.605,15.6403 10.1514,18.447 
		16.7289,10.4839 	"/>
	
		<line fill="none" stroke="#000000" stroke-linecap="round" stroke-linejoin="round" stroke-miterlimit="10" x1="12.0144" y1="2.1766" x2="12.0144" y2="2.1766"/>
</g>
<rect x="0" y="0.0001" fill="none" width="24" height="24"/>
</svg>
