<?xml version="1.0" encoding="utf-8"?>
<!-- Generator: Adobe Illustrator 18.1.0, SVG Export Plug-In . SVG Version: 6.00 Build 0)  -->
<svg version="1.1" id="Layer_1" xmlns="http://www.w3.org/2000/svg" xmlns:xlink="http://www.w3.org/1999/xlink" x="0px" y="0px"
	 width="24px" height="24px" viewBox="0 0 24 24" enable-background="new 0 0 24 24" xml:space="preserve">
<g>
	<path fill="none" stroke="#000000" stroke-linecap="round" stroke-linejoin="round" stroke-miterlimit="10" d="M7.6763,18.6051
		c0.446-0.1644,1.1649-1.8531,1.1649-1.8531c-0.0705-0.0376-6.0232,2.0971-8.1867,4.1989
		c-0.0939,0.0907-0.1465,0.2162-0.1465,0.3462v1.7245c0,0.2674,0.2161,0.4826,0.483,0.4826h11.0069
		C11.1595,19.1963,7.6763,18.6051,7.6763,18.6051z"/>
	<path fill="none" stroke="#000000" stroke-linecap="round" stroke-linejoin="round" stroke-miterlimit="10" d="M23.341,20.9509
		c-2.1159-2.0541-8.1172-4.2364-8.1867-4.1989h0.0005c0,0,0.7184,1.6887,1.164,1.8531c0,0-3.4827,0.5911-4.3207,4.899h11.0065
		c0.2669,0,0.4826-0.2152,0.4826-0.4826v-1.7245C23.487,21.1671,23.4344,21.0416,23.341,20.9509z"/>
	<path fill="none" stroke="#000000" stroke-linecap="round" stroke-linejoin="round" stroke-miterlimit="10" d="M14.6364,14.9975
		c0.0502-0.1005,0.0322-0.6945,0.0322-0.8183c0.9232-0.9076,1.5438-2.2206,1.6418-3.5358c0.0044,0,0.0096,0,0.0148,0
		c0.9098,0,1.1695-1.3219,0.3436-1.7124c0.1707-0.5296,0.2652-1.0975,0.2652-1.6889c0-0.5391-0.0775-1.0587-0.2203-1.5486
		c0.1873,0.3806,0.3101,0.7334,0.4189,0.969c0.0688,0.1468,0.3267,0,0.3267,0c0.5-2.1701-1.3187-3.521-1.3187-3.521
		c1.3618,0.081,1.8409,0.7038,1.8409,0.7038c-1.1606-2.0037-2.6988-1.472-2.7084-1.4685C13.171-0.6303,8.5027,1.0335,8.5027,1.0335
		c1.2773-0.2422,2.3932,0.4969,3.2772,0.591c-4.304-0.2108-5.4354,3.9044-5.4354,3.9044C6.5092,5.0072,7.121,4.6327,7.8958,4.3618
		c-0.5157,0.8266-0.8179,1.816-0.8179,2.8803c0,0.5914,0.0945,1.1593,0.2648,1.6889c-0.8277,0.3907-0.5638,1.7124,0.344,1.7124
		c0.0052,0,0.0096,0,0.0148,0c0.0976,1.3143,0.7182,2.6282,1.641,3.5353c0,0.1249-0.0184,0.7204,0.0331,0.8213"/>
</g>
<rect x="0.0005" y="0.0004" fill="none" width="24" height="24"/>
</svg>
