<?xml version="1.0" encoding="utf-8"?>
<!-- Generator: Adobe Illustrator 18.1.0, SVG Export Plug-In . SVG Version: 6.00 Build 0)  -->
<svg version="1.1" id="Layer_1" xmlns="http://www.w3.org/2000/svg" xmlns:xlink="http://www.w3.org/1999/xlink" x="0px" y="0px"
	 width="24px" height="24px" viewBox="0 0 24 24" enable-background="new 0 0 24 24" xml:space="preserve">
<g>
	<path fill="none" stroke="#000000" stroke-linecap="round" stroke-linejoin="round" d="M6.7523,11.3498
		c1.0004,0.1657,9.7879,0.2302,11.7285-0.352c2.1806-0.6542,5.706-1.6718,1.5991-6.6146S10.5912,0.9879,8.8133,1.4757
		C6.4622,2.1208-3.2379,9.6952,6.7523,11.3498z"/>
	<path fill="none" stroke="#000000" stroke-linecap="round" stroke-linejoin="round" d="M5.4696,7.9096
		c0,0,1.7121,0.8365,6.1785,0.7293"/>
	<path fill="none" stroke="#000000" stroke-linecap="round" stroke-linejoin="round" d="M10.2659,13.2239
		c0,0-0.853,7.9652-1.9652,10.2614"/>
	<path fill="none" stroke="#000000" stroke-linecap="round" stroke-linejoin="round" d="M14.0696,13.1806
		c0,0,0.8751,6.6848,2.7766,8.3552"/>
	
		<line fill="none" stroke="#000000" stroke-linecap="round" stroke-linejoin="round" x1="0.6564" y1="23.4853" x2="23.2531" y2="23.4853"/>
	<path fill="none" stroke="#000000" stroke-linecap="round" stroke-linejoin="round" d="M15.5902,23.4853
		c0,0,2.135-2.2839,1.8132-5.0524"/>
	<path fill="none" stroke="#000000" stroke-linecap="round" stroke-linejoin="round" d="M18.2043,23.4853
		c0,0,1.7514-1.1921,1.2547-3.1541"/>
	<path fill="none" stroke="#000000" stroke-linecap="round" stroke-linejoin="round" d="M6.8603,23.4853l-0.4825-3.8991
		c0,0-0.2649,3.6017-1.3015,3.8991"/>
	<path fill="none" stroke="#000000" stroke-linecap="round" stroke-linejoin="round" d="M2.7449,23.4853
		c0,0,1.1673-1.036,0.9437-2.0702"/>
	<path fill="none" stroke="#000000" stroke-linecap="round" stroke-linejoin="round" d="M21.3701,23.4853
		c0,0-0.6955-1.1623-0.6382-1.8378"/>
	<path fill="none" stroke="#000000" stroke-linecap="round" stroke-linejoin="round" d="M17.3705,19.8228
		c0,0-0.3536,3.4299,0.3547,3.6626"/>
</g>
<rect x="-0.0008" y="-0.0147" fill="none" width="24" height="24"/>
</svg>
