<?xml version="1.0" encoding="utf-8"?>
<!-- Generator: Adobe Illustrator 18.1.0, SVG Export Plug-In . SVG Version: 6.00 Build 0)  -->
<svg version="1.1" id="Layer_1" xmlns="http://www.w3.org/2000/svg" xmlns:xlink="http://www.w3.org/1999/xlink" x="0px" y="0px"
	 width="24px" height="24px" viewBox="0 0 24 24" enable-background="new 0 0 24 24" xml:space="preserve">
<g>
	
		<circle fill="none" stroke="#000000" stroke-linecap="round" stroke-linejoin="round" stroke-miterlimit="10" cx="16.1245" cy="2.6393" r="1.8124"/>
	<path fill="none" stroke="#000000" stroke-linecap="round" stroke-linejoin="round" stroke-miterlimit="10" d="M14.5091,23.1918
		c0,0-0.0108-4.1871-0.0918-5.5161c-0.0146-0.24-0.1158-0.4638-0.2845-0.6353l-2.9871-3.1479
		c-0.2467-0.4431-0.3006-0.968-0.1493-1.452l1.2626-4.0382c0.31-0.9914,1.313-1.6578,2.3275-1.4348
		c1.1443,0.2515,1.6025,1.313,1.4626,2.5129l-0.4893,3.985l3.8762,0.0611"/>
	<polyline fill="none" stroke="#000000" stroke-linecap="round" stroke-linejoin="round" stroke-miterlimit="10" points="
		10.0857,15.1897 8.3401,17.5355 3.7712,17.5355 	"/>
	<polyline fill="none" stroke="#000000" stroke-linecap="round" stroke-linejoin="round" stroke-miterlimit="10" points="
		11.3515,6.5199 9.4351,6.5199 7.5162,10.5668 	"/>
</g>
<rect x="0.0142" y="0.0346" fill="none" width="24" height="24"/>
</svg>
