<?xml version="1.0" encoding="utf-8"?>
<!-- Generator: Adobe Illustrator 18.1.0, SVG Export Plug-In . SVG Version: 6.00 Build 0)  -->
<svg version="1.1" id="Layer_1" xmlns="http://www.w3.org/2000/svg" xmlns:xlink="http://www.w3.org/1999/xlink" x="0px" y="0px"
	 width="24px" height="24px" viewBox="0 0 24 24" enable-background="new 0 0 24 24" xml:space="preserve">
<g>
	<g>
		<path fill="none" stroke="#000000" stroke-linecap="round" stroke-linejoin="round" d="M10.1253,13.1239l-2.0592-2.0591
			l-4.4655,4.4655l-3.0391-3.0387l4.4656-4.465L0.585,3.5836L3.5776,0.591l4.4423,4.4427l4.4429-4.4427l3.0384,3.0387L12.6891,6.442
			"/>
	</g>
	<path fill-rule="evenodd" clip-rule="evenodd" fill="none" stroke="#000000" stroke-linecap="round" stroke-linejoin="round" d="
		M15.3293,7.4195c0.3829-0.6577,1.3734-0.5184,1.5602,0.2194c0.4523,1.7864,0.0792,4.3976,0.5608,6.1551
		c1.1489-0.5973,1.2028-6.6996,3.2037-5.2019c0.2662,0.1992,0.4154,0.5201,0.3956,0.852c-0.1263,2.1218-1.1092,3.3872-1.3514,5.3932
		c0.9216-0.154,1.3732-2.1657,2.166-3.0859c0.552-0.6407,1.6049-0.204,1.5422,0.6394c-0.1434,1.9299-1.5025,3.0313-2.1025,4.6149
		c-0.5695,1.5037-0.2314,3.2495-1.2043,4.4955c-1.3294,1.7023-4.327,2.6283-6.7438,1.1241c-1.1367-0.7078-2.194-2.433-3.2915-3.613
		C9.6822,18.602,9.1587,18.3663,8.86,18.0487c-0.4273-0.4545-2.1231-2.4767-0.7227-2.8903
		c1.8638-0.5497,2.5837,1.9953,3.6932,2.3285c2.8281-2.0572-1.335-6.3753-0.8832-8.6705c0.0767-0.3898,0.4698-0.7735,0.8028-0.8029
		c1.4635-0.1299,1.901,3.2601,3.0509,5.379C15.4829,12.2735,14.599,8.674,15.3293,7.4195z"/>
</g>
<rect x="-0.0136" y="0.0002" fill="none" width="24" height="24"/>
</svg>
