<?xml version="1.0" encoding="utf-8"?>
<!-- Generator: Adobe Illustrator 18.1.0, SVG Export Plug-In . SVG Version: 6.00 Build 0)  -->
<svg version="1.1" id="Layer_1" xmlns="http://www.w3.org/2000/svg" xmlns:xlink="http://www.w3.org/1999/xlink" x="0px" y="0px"
	 width="24px" height="24px" viewBox="0 0 24 24" enable-background="new 0 0 24 24" xml:space="preserve">
<g>
	<polyline fill="none" stroke="#000000" stroke-linecap="round" stroke-linejoin="round" stroke-miterlimit="10" points="
		9.748,4.0474 11.4863,2.3091 13.2246,4.0474 	"/>
	
		<line fill="none" stroke="#000000" stroke-linecap="round" stroke-linejoin="round" x1="11.4863" y1="10.3647" x2="11.4863" y2="2.3091"/>
	<polyline fill="none" stroke="#000000" stroke-linecap="round" stroke-linejoin="round" stroke-miterlimit="10" points="
		1.2009,18.6802 0.5646,21.0547 2.9392,21.691 	"/>
	
		<line fill="none" stroke="#000000" stroke-linecap="round" stroke-linejoin="round" x1="7.4863" y1="16.9933" x2="0.5646" y2="21.0547"/>
	<polyline fill="none" stroke="#000000" stroke-linecap="round" stroke-linejoin="round" stroke-miterlimit="10" points="
		21.7352,18.6802 22.3715,21.0547 19.9969,21.691 	"/>
	
		<line fill="none" stroke="#000000" stroke-linecap="round" stroke-linejoin="round" x1="15.4863" y1="16.9933" x2="22.3715" y2="21.0547"/>
	<polygon fill="none" stroke="#000000" stroke-linecap="round" stroke-linejoin="round" points="15.4863,16.9933 11.4863,18.4215 
		11.4863,13.2211 15.4863,11.7929 	"/>
	<polygon fill="none" stroke="#000000" stroke-linecap="round" stroke-linejoin="round" points="11.4863,18.4215 7.4863,16.9933 
		7.4863,11.7929 11.4863,13.2211 	"/>
	<path fill="none" stroke="#000000" stroke-linecap="round" stroke-linejoin="round" stroke-miterlimit="10" d="M8.0562,11.7857"/>
	<polygon fill="none" stroke="#000000" stroke-linecap="round" stroke-linejoin="round" points="11.512,10.3647 7.4863,11.7929 
		11.4863,13.2211 15.4863,11.7929 	"/>
	<path fill="none" stroke="#000000" stroke-linecap="round" stroke-linejoin="round" d="M20.636,9.3413
		c2.293,0,2.2963-3.6805,0-3.6805v0h-1.2449v3.6867h1.2449V9.3413z"/>
	<path fill="none" stroke="#000000" stroke-linecap="round" stroke-linejoin="round" stroke-miterlimit="10" d="M15.6604,5.6885
		h2.0696l-1.3447,1.7067c0,0,1.4916-0.1202,1.3447,1.095c-0.1431,1.1838-1.8216,0.9175-2.1935,0.2072"/>
</g>
<rect x="-0.0137" y="0" fill="none" width="24" height="24"/>
</svg>
