<?xml version="1.0" encoding="utf-8"?>
<!-- Generator: Adobe Illustrator 18.1.0, SVG Export Plug-In . SVG Version: 6.00 Build 0)  -->
<svg version="1.1" id="Layer_1" xmlns="http://www.w3.org/2000/svg" xmlns:xlink="http://www.w3.org/1999/xlink" x="0px" y="0px"
	 width="24px" height="24px" viewBox="0 0 24 24" enable-background="new 0 0 24 24" xml:space="preserve">
<g>
	<path fill="none" stroke="#000000" stroke-linecap="round" stroke-linejoin="round" stroke-miterlimit="10" d="M4.0902,4.1005
		c-4.361,4.361-4.361,11.4562,0,15.8172s11.4569,4.3616,15.8179,0.0006s4.3604-11.4568-0.0006-15.8179S8.4512-0.2605,4.0902,4.1005z
		"/>
	<path fill="none" stroke="#000000" stroke-linecap="round" stroke-linejoin="round" stroke-miterlimit="10" d="M18.5209,9.6905
		l-4.6146-0.0934l-1.5149-4.3112c-0.1306-0.3719-0.6557-0.3691-0.7847,0L10.092,9.5971L5.4769,9.6905
		c-0.3939,0.0084-0.5567,0.5103-0.2408,0.7485l3.6747,2.7569l-1.3351,4.3655c-0.1159,0.3772,0.3117,0.6872,0.6335,0.4646
		l3.7899-2.6095l3.7902,2.6095c0.3222,0.2213,0.7499-0.0864,0.6333-0.4646l-1.3359-4.3655l3.6749-2.7569
		C19.0775,10.2013,18.9146,9.699,18.5209,9.6905z"/>
</g>
<rect x="0" y="-0.0001" fill="none" width="24" height="24"/>
</svg>
