<?xml version="1.0" encoding="utf-8"?>
<!-- Generator: Adobe Illustrator 18.1.0, SVG Export Plug-In . SVG Version: 6.00 Build 0)  -->
<svg version="1.1" id="Layer_1" xmlns="http://www.w3.org/2000/svg" xmlns:xlink="http://www.w3.org/1999/xlink" x="0px" y="0px"
	 width="24px" height="24px" viewBox="0 0 24 24" enable-background="new 0 0 24 24" xml:space="preserve">
<g>
	<path fill="none" stroke="#000000" stroke-linecap="round" stroke-linejoin="round" stroke-miterlimit="10" d="M2.7641,3.5575
		c-1.2751,2-2.0255,4.2223-2.0255,6.7005c0,5.2693,3.3825,10.0534,8.0224,11.2168c0.2383,0.0597,0.4855,0.0827,0.7312,0.0827h4.9914
		c0.2457,0,0.4929-0.023,0.7312-0.0827c4.6399-1.1634,8.0224-5.9475,8.0224-11.2168c0-2.4782-0.7503-4.7005-2.0255-6.7005H2.7641z"
		/>
	<path fill="none" stroke="#000000" stroke-linecap="round" stroke-linejoin="round" d="M21.5856,9.8024
		c-1.4791,0-2.724-0.7572-3.0921-1.7862c-0.0387-0.1083-0.1824-0.1083-0.2211,0c-0.3681,1.029-1.613,1.7862-3.0921,1.7862
		s-2.724-0.7572-3.0921-1.7862c-0.0387-0.1083-0.1824-0.1083-0.2211,0c-0.3681,1.029-1.613,1.7862-3.0921,1.7862
		s-2.724-0.7572-3.0921-1.7862c-0.0387-0.1083-0.1824-0.1083-0.2211,0c-0.3681,1.029-1.613,1.7862-3.0921,1.7862"/>
	<path fill="none" stroke="#000000" stroke-linecap="round" stroke-linejoin="round" stroke-miterlimit="10" d="M16.291,13.1716
		c-0.3559,0.0469-1.8436,1.0734-2.0197,1.2568c-3.8199-3.4518-5.8821-0.8036-6.652,0.1267c-0.1393,0.1683-0.1393,0.4123,0,0.5805
		c0.7699,0.9303,2.8321,3.5786,6.652,0.1268c0.1761,0.1835,1.6638,1.2099,2.0197,1.2568c0,0,0.0438-1.1073-0.3632-1.6738
		C16.3348,14.279,16.291,13.1716,16.291,13.1716z"/>
	
		<line fill="none" stroke="#000000" stroke-linecap="round" stroke-linejoin="round" stroke-miterlimit="10" x1="9.5679" y1="14.5666" x2="9.5679" y2="14.5666"/>
</g>
<rect x="-0.0121" y="-0.0146" fill="none" width="24" height="24"/>
</svg>
