<?xml version="1.0" encoding="utf-8"?>
<!-- Generator: Adobe Illustrator 18.1.0, SVG Export Plug-In . SVG Version: 6.00 Build 0)  -->
<svg version="1.1" id="Layer_1" xmlns="http://www.w3.org/2000/svg" xmlns:xlink="http://www.w3.org/1999/xlink" x="0px" y="0px"
	 width="24px" height="24px" viewBox="0 0 24 24" enable-background="new 0 0 24 24" xml:space="preserve">
<g>
	<path fill="none" stroke="#000000" stroke-linecap="round" stroke-linejoin="round" d="M10.5142,18.4715v2.1035
		c0,0.5809-0.3088,1.0518-0.8897,1.0518c-0.6561,0-1.1103,0.5034-1.1103,1.0518v0.8567h7v-0.8567
		c0-0.5809-0.5526-1.0518-1.1335-1.0518h0.0926c-0.5809,0-0.9592-0.4709-0.9592-1.0518v-2.0771"/>
	<circle fill="none" stroke="#000000" stroke-linecap="round" stroke-linejoin="round" cx="12.0142" cy="9.6728" r="8.9252"/>
	<path fill="none" stroke="#000000" stroke-linecap="round" stroke-linejoin="round" d="M13.2805,10.0833
		c1.7453,0.41,4.4541,1.4495,3.3064,3.8426c-1.646,3.4321-7.2554,3.4426-5.7085,0.7355c0.993-1.7378,2.1079-2.1932,1.5873-3.7278"/>
	<path fill="none" stroke="#000000" stroke-linecap="round" stroke-linejoin="round" d="M11.5514,8.4157
		c-0.5017-1.7265-0.8778-4.4303,1.7092-4.6284c3.7953-0.2906,6.6091,4.5621,3.4912,4.576
		c-1.8806,0.0084-2.8559-0.6358-3.8534,0.2975"/>
	<path fill="none" stroke="#000000" stroke-linecap="round" stroke-linejoin="round" d="M11.2759,10.7868
		c-1.2015,1.3095-3.5413,3.2898-5.082,1.0378C4.0446,8.6831,6.8402,3.8199,8.4112,6.5132c0.9624,1.65,0.88,2.8247,2.2518,3.2037"/>
	<circle fill="none" stroke="#000000" stroke-linecap="round" stroke-linejoin="round" cx="12.0142" cy="9.6728" r="1.3375"/>
</g>
<rect x="0.0142" y="0.0354" fill="none" width="24" height="24"/>
</svg>
