<?xml version="1.0" encoding="utf-8"?>
<!-- Generator: Adobe Illustrator 18.1.0, SVG Export Plug-In . SVG Version: 6.00 Build 0)  -->
<svg version="1.1" id="Layer_1" xmlns="http://www.w3.org/2000/svg" xmlns:xlink="http://www.w3.org/1999/xlink" x="0px" y="0px"
	 width="24px" height="24px" viewBox="0 0 24 24" enable-background="new 0 0 24 24" xml:space="preserve">
<g>
	<path fill="none" stroke="#000000" stroke-linecap="round" stroke-linejoin="round" stroke-miterlimit="10" d="M10.533,3.5354
		c0-1-0.912-2.0371-2.0371-2.0371S6.4589,2.5354,6.4589,3.5354H10.533z"/>
	<path fill="none" stroke="#000000" stroke-linecap="round" stroke-linejoin="round" stroke-miterlimit="10" d="M8.4959,1.4983
		C7.8647,0.9726,7.0529,0.718,6.1673,0.718c-2.0109,0-3.641,1.6301-3.641,3.641v10.1764"/>
	<g>
		<g>
			
				<line fill="none" stroke="#000000" stroke-linecap="round" stroke-linejoin="round" x1="8.496" y1="5.4669" x2="8.496" y2="5.8169"/>
			
				<line fill="none" stroke="#000000" stroke-linecap="round" stroke-linejoin="round" stroke-dasharray="0.5944,1.6983" x1="8.496" y1="7.5152" x2="8.496" y2="11.2514"/>
			
				<line fill="none" stroke="#000000" stroke-linecap="round" stroke-linejoin="round" x1="8.496" y1="12.1006" x2="8.496" y2="12.4506"/>
		</g>
	</g>
	<g>
		<g>
			
				<line fill="none" stroke="#000000" stroke-linecap="round" stroke-linejoin="round" x1="7.1548" y1="5.5199" x2="7.0651" y2="5.8583"/>
			
				<line fill="none" stroke="#000000" stroke-linecap="round" stroke-linejoin="round" stroke-dasharray="0.6116,1.7473" x1="6.6172" y1="7.5471" x2="5.6318" y2="11.2628"/>
			
				<line fill="none" stroke="#000000" stroke-linecap="round" stroke-linejoin="round" x1="5.408" y1="12.1073" x2="5.3182" y2="12.4456"/>
		</g>
	</g>
	<g>
		<g>
			
				<line fill="none" stroke="#000000" stroke-linecap="round" stroke-linejoin="round" x1="9.8371" y1="5.5199" x2="9.9269" y2="5.8583"/>
			
				<line fill="none" stroke="#000000" stroke-linecap="round" stroke-linejoin="round" stroke-dasharray="0.6116,1.7473" x1="10.3747" y1="7.5471" x2="11.36" y2="11.2628"/>
			
				<line fill="none" stroke="#000000" stroke-linecap="round" stroke-linejoin="round" x1="11.584" y1="12.1073" x2="11.6736" y2="12.4456"/>
		</g>
	</g>
	<path fill="none" stroke="#000000" stroke-linecap="round" stroke-linejoin="round" stroke-miterlimit="10" d="M22.5142,14.5354
		v0.9361c0,3.3944-2.5189,6.0639-5.9133,6.0639H7.4275c-3.3944,0-5.9133-2.6695-5.9133-6.0639v-0.9361"/>
	
		<line fill="none" stroke="#000000" stroke-linecap="round" stroke-linejoin="round" stroke-miterlimit="10" x1="6.2874" y1="21.4309" x2="5.5024" y2="23.353"/>
	
		<line fill="none" stroke="#000000" stroke-linecap="round" stroke-linejoin="round" stroke-miterlimit="10" x1="17.7937" y1="21.4309" x2="18.5787" y2="23.353"/>
	
		<line fill="none" stroke="#000000" stroke-linecap="round" stroke-linejoin="round" stroke-miterlimit="10" x1="19.5142" y1="14.5354" x2="23.3623" y2="14.5354"/>
	
		<line fill="none" stroke="#000000" stroke-linecap="round" stroke-linejoin="round" stroke-miterlimit="10" x1="0.5656" y1="14.5354" x2="15.5142" y2="14.5354"/>
	
		<rect x="15.5142" y="13.5354" fill="none" stroke="#000000" stroke-linecap="round" stroke-linejoin="round" stroke-miterlimit="10" width="4" height="5"/>
	
		<line fill="none" stroke="#000000" stroke-linecap="round" stroke-linejoin="round" stroke-miterlimit="10" x1="15.5142" y1="16.5354" x2="19.5142" y2="16.5354"/>
</g>
<rect x="0.0142" y="0.0354" fill="none" width="24" height="24"/>
</svg>
