<?xml version="1.0" encoding="utf-8"?>
<!-- Generator: Adobe Illustrator 18.1.0, SVG Export Plug-In . SVG Version: 6.00 Build 0)  -->
<svg version="1.1" id="Layer_1" xmlns="http://www.w3.org/2000/svg" xmlns:xlink="http://www.w3.org/1999/xlink" x="0px" y="0px"
	 width="24px" height="24px" viewBox="0 0 24 24" enable-background="new 0 0 24 24" xml:space="preserve">
<g>
	<path fill="none" stroke="#000000" stroke-linecap="round" stroke-linejoin="round" d="M11.4137,16.0638l2.1255-0.004
		c0.4434,1.179,1.5784,2.0176,2.9143,2.0151c1.7238-0.0033,3.1241-1.4036,3.1274-3.1274c0.0035-1.7246-1.3915-3.1193-3.1157-3.116
		c-1.2539,0.0024-2.3336,0.7454-2.8318,1.8127l-8.9655,0.0171l-0.4448,1.0944l1.3177,1.224l1.3788-0.801l1.4854,0.9987
		l1.8132-1.3684L11.4137,16.0638z"/>
	<circle fill="none" stroke="#000000" stroke-linecap="round" stroke-linejoin="round" cx="17.052" cy="14.9522" r="0.7353"/>
	<path fill="none" stroke="#000000" stroke-linecap="round" stroke-linejoin="round" stroke-miterlimit="10" d="M23.5608,21.3826
		c0,1.1749-0.9524,2.1273-2.1273,2.1273H2.6086c-1.1749,0-2.1273-0.9524-2.1273-2.1273V8.6348c0-1.1749,0.9524-2.1273,2.1273-2.1273
		h18.8249c1.1749,0,2.1273,0.9524,2.1273,2.1273V21.3826z"/>
	<path fill="none" stroke="#000000" stroke-linecap="round" stroke-linejoin="round" stroke-miterlimit="10" d="M8.494,4.5071
		V4.1353c0-0.9317,0.7991-1.687,1.7849-1.687h3.4845c0.9858,0,1.7849,0.7553,1.7849,1.687v0.3718"/>
</g>
<rect x="0.0293" fill="none" width="24" height="24"/>
</svg>
