<?xml version="1.0" encoding="utf-8"?>
<!-- Generator: Adobe Illustrator 18.1.0, SVG Export Plug-In . SVG Version: 6.00 Build 0)  -->
<svg version="1.1" id="Layer_1" xmlns="http://www.w3.org/2000/svg" xmlns:xlink="http://www.w3.org/1999/xlink" x="0px" y="0px"
	 width="24px" height="24px" viewBox="0 0 24 24" enable-background="new 0 0 24 24" xml:space="preserve">
<g>
	<path fill="none" stroke="#000000" stroke-linecap="round" stroke-linejoin="round" d="M14.4422,18.097
		c0.6885-1.8104,5.0996-1.6179,4.0033,2.2324c-1.3867,4.87-6.4001,2.1533-6.4001,2.1533V1.3052c0,0,4.3455-2.6258,5.5841,3.2268
		c0,0,2.4478,0.3315,2.6518,3.7992c0,0,3.5726,2.8563,0.51,6.4255c-1.0543,1.2287-2.3455,0.5206-3.134-0.1427"/>
	<path fill="none" stroke="#000000" stroke-linecap="round" stroke-linejoin="round" d="M3.1514,14.5781
		c-3.0626-3.5692,0.6581-6.2469,0.6581-6.2469C4.0135,4.8635,6.4613,4.532,6.4613,4.532c1.4135-5.8525,5.5841-3.2268,5.5841-3.2268
		v21.1775c-2.3723,1.3401-5.1558,1.2487-6.2501-1.4802c-0.6349-1.5832,0.148-2.7781,0.148-2.7781"/>
	<path fill="none" stroke="#000000" stroke-linecap="round" stroke-linejoin="round" d="M18.4455,20.3294
		c0,0,3.6717-1.3654,2.3458-5.5726"/>
	<path fill="none" stroke="#000000" stroke-linecap="round" stroke-linejoin="round" d="M12.0454,9.5653
		c0,0,2.6127-1.573,4.2645-0.5128"/>
	<path fill="none" stroke="#000000" stroke-linecap="round" stroke-linejoin="round" d="M17.2981,7.0446
		c-0.5989,0.7442-1.468,2.224-0.8892,4.0658"/>
	<path fill="none" stroke="#000000" stroke-linecap="round" stroke-linejoin="round" stroke-miterlimit="10" d="M5.7363,20.8416"/>
	<path fill="none" stroke="#000000" stroke-linecap="round" stroke-linejoin="round" d="M5.9433,11.9432
		c0,0-6.7107,2.721-0.207,8.8985"/>
	<path fill="none" stroke="#000000" stroke-linecap="round" stroke-linejoin="round" d="M6.4613,4.532
		c0,0,1.8143,0.0708,1.643,2.4445"/>
	<path fill="none" stroke="#000000" stroke-linecap="round" stroke-linejoin="round" d="M7.7127,8.825
		c0,0,2.8632,1.347,2.1535,3.8128"/>
	<path fill="none" stroke="#000000" stroke-linecap="round" stroke-linejoin="round" d="M9.4257,16.0801
		c0,0-2.329,1.7067-0.4894,3.5432"/>
</g>
<rect x="-0.0137" y="0" fill="none" width="24" height="24"/>
</svg>
