<?xml version="1.0" encoding="utf-8"?>
<!-- Generator: Adobe Illustrator 18.1.0, SVG Export Plug-In . SVG Version: 6.00 Build 0)  -->
<svg version="1.1" id="Layer_1" xmlns="http://www.w3.org/2000/svg" xmlns:xlink="http://www.w3.org/1999/xlink" x="0px" y="0px"
	 width="24px" height="24px" viewBox="0 0 24 24" enable-background="new 0 0 24 24" xml:space="preserve">
<g>
	<polygon fill="none" stroke="#000000" stroke-linecap="round" stroke-linejoin="round" points="15.8929,23.4865 8.1632,23.4865 
		8.8062,21.175 15.2499,21.175 	"/>
	<path fill="none" stroke="#000000" stroke-linecap="round" stroke-linejoin="round" d="M5.5919,11.6635
		c-1.757,0.4675-3.6703-0.9884-4.2726-3.2518C0.7171,6.1487,1.6533,3.935,3.41,3.4674C3.8888,3.34,4.3791,3.3553,4.8514,3.4909"/>
	<path fill="none" stroke="#000000" stroke-linecap="round" stroke-linejoin="round" d="M18.4645,11.6635
		c1.757,0.4675,3.6702-0.9884,4.2726-3.2518c0.6022-2.2631-0.334-4.4768-2.0906-4.9444c-0.4848-0.129-0.9814-0.1116-1.4591,0.0287"
		/>
	<path fill="none" stroke="#000000" stroke-linecap="round" stroke-linejoin="round" stroke-miterlimit="10" d="M18.4286,0.51
		H5.6278c-0.416,0-0.7533,0.3372-0.7533,0.7533v6.9867c0,4.2679,3.209,7.74,7.1535,7.74c3.9447,0,7.1538-3.4721,7.1538-7.74V1.2632
		C19.1819,0.8472,18.8446,0.51,18.4286,0.51z"/>
	<path fill="none" stroke="#000000" stroke-linecap="round" stroke-linejoin="round" stroke-miterlimit="10" d="M13.0383,6.2314
		c-1.1638-3.3138-0.8853-3.2347-2.0218,0C7.4618,6.3026,7.6394,6.075,10.3902,8.139c-1.0278,3.361-1.201,3.1311,1.6373,1.177
		c2.9139,2.0059,2.6396,2.0987,1.6369-1.177C16.497,6.014,16.4896,6.3005,13.0383,6.2314z"/>
	
		<line fill="none" stroke="#000000" stroke-linecap="round" stroke-linejoin="round" x1="11.0556" y1="21.1976" x2="11.0556" y2="17.746"/>
	
		<line fill="none" stroke="#000000" stroke-linecap="round" stroke-linejoin="round" x1="13.0008" y1="21.1976" x2="13.0008" y2="17.746"/>
</g>
<rect x="0.0293" y="-0.0001" fill="none" width="24" height="24"/>
</svg>
