<?xml version="1.0" encoding="utf-8"?>
<!-- Generator: Adobe Illustrator 18.1.0, SVG Export Plug-In . SVG Version: 6.00 Build 0)  -->
<svg version="1.1" id="Layer_1" xmlns="http://www.w3.org/2000/svg" xmlns:xlink="http://www.w3.org/1999/xlink" x="0px" y="0px"
	 width="24px" height="24px" viewBox="0 0 24 24" enable-background="new 0 0 24 24" xml:space="preserve">
<g>
	<path fill="none" stroke="#000000" stroke-linecap="round" stroke-linejoin="round" d="M12.508,8.5594
		c-0.004-0.5832-0.2479-0.8079-1.1584-1.3505C9.4233,6.0609,7.822,4.9981,8.9163,3.0394l1.2281-2.0593"/>
	<path fill="none" stroke="#000000" stroke-linecap="round" stroke-linejoin="round" d="M18.4268,10.5559
		c-0.0072,0-0.0145,0.0002-0.0218,0.0003H5.7275c-0.0075-0.0002-0.0146-0.0003-0.022-0.0003c-2.8193,0-5.113,2.375-5.113,5.2943
		c0,2.0651,0,6.6814,3.3339,6.6814c1.8152,0,5.0934-2.26,6.1978-4.9259h3.8836c1.1046,2.6659,4.3828,4.9259,6.198,4.9259
		c3.3339,0,3.3339-4.6163,3.3339-6.6814C23.5398,12.9309,21.2461,10.5559,18.4268,10.5559z"/>
	<circle fill="none" stroke="#000000" stroke-linecap="round" stroke-linejoin="round" cx="5.5315" cy="15.4792" r="1.929"/>
	
		<line fill="none" stroke="#000000" stroke-linecap="round" stroke-linejoin="round" stroke-miterlimit="10" x1="18.4791" y1="13.5502" x2="18.4791" y2="17.4083"/>
	
		<line fill="none" stroke="#000000" stroke-linecap="round" stroke-linejoin="round" stroke-miterlimit="10" x1="20.4081" y1="15.4792" x2="16.55" y2="15.4792"/>
</g>
<rect x="0.0142" y="0.0354" fill="none" width="24" height="24"/>
</svg>
