<?xml version="1.0" encoding="utf-8"?>
<!-- Generator: Adobe Illustrator 18.1.0, SVG Export Plug-In . SVG Version: 6.00 Build 0)  -->
<svg version="1.1" id="Layer_1" xmlns="http://www.w3.org/2000/svg" xmlns:xlink="http://www.w3.org/1999/xlink" x="0px" y="0px"
	 width="24px" height="24px" viewBox="0 0 24 24" enable-background="new 0 0 24 24" xml:space="preserve">
<g>
	<path fill="none" stroke="#000000" stroke-linecap="round" stroke-linejoin="round" d="M13.5,16.5v2.5723
		c0,0.2797-0.2586,0.4277-0.559,0.4277h-1.8885c-0.2999,0-0.5525-0.1479-0.5525-0.4277V16.5"/>
	<path fill="none" stroke="#000000" stroke-linecap="round" stroke-linejoin="round" d="M8.5,6.5V0.9859
		C8.5,0.7471,8.8143,0.5,9.0703,0.5h5.8511C15.1783,0.5,15.5,0.7471,15.5,0.9859V6.5"/>
	<path fill="none" stroke="#000000" stroke-linecap="round" stroke-linejoin="round" d="M9.3211,16.4786
		C8.45,16.3075,7.5,15.5466,7.5,14.5794V6.5h8.8941l0.0012,8.0841c0,0.9671-0.9014,1.7257-1.7729,1.8969
		C14.4841,16.5174,9.4714,16.504,9.3211,16.4786z"/>
	<line fill="none" stroke="#000000" stroke-linecap="round" stroke-linejoin="round" x1="12" y1="19.5" x2="12" y2="23.4657"/>
	
		<line fill="none" stroke="#000000" stroke-linecap="round" stroke-linejoin="round" stroke-miterlimit="10" x1="10.5" y1="4.5021" x2="10.5" y2="3.5449"/>
	
		<line fill="none" stroke="#000000" stroke-linecap="round" stroke-linejoin="round" stroke-miterlimit="10" x1="13.5" y1="4.5021" x2="13.5" y2="3.5449"/>
</g>
<rect x="0" y="0" fill="none" width="24" height="24"/>
</svg>
