<?xml version="1.0" encoding="utf-8"?>
<!-- Generator: Adobe Illustrator 18.1.0, SVG Export Plug-In . SVG Version: 6.00 Build 0)  -->
<svg version="1.1" id="Layer_1" xmlns="http://www.w3.org/2000/svg" xmlns:xlink="http://www.w3.org/1999/xlink" x="0px" y="0px"
	 width="24px" height="24px" viewBox="0 0 24 24" enable-background="new 0 0 24 24" xml:space="preserve">
<g>
	<path fill="none" stroke="#000000" stroke-linecap="round" stroke-linejoin="round" stroke-miterlimit="10" d="M19.9912,3.9614
		c4.414,4.414,4.414,11.5954,0,16.0094S8.3952,24.3854,3.9812,19.9714s-4.4133-11.596,0.0007-16.01S15.5772-0.4526,19.9912,3.9614z"
		/>
	
		<line fill="none" stroke="#000000" stroke-linecap="round" stroke-linejoin="round" stroke-miterlimit="10" x1="19.9912" y1="19.9708" x2="3.9818" y2="3.9614"/>
	
		<rect x="4.4863" y="11.5002" fill="none" stroke="#000000" stroke-linecap="round" stroke-linejoin="round" stroke-miterlimit="10" width="15" height="3"/>
	
		<line fill="none" stroke="#000000" stroke-linecap="round" stroke-linejoin="round" stroke-miterlimit="10" x1="17.4863" y1="11.5002" x2="17.4863" y2="14.5002"/>
	<path fill="none" stroke="#000000" stroke-linecap="round" stroke-linejoin="round" stroke-miterlimit="10" d="M18.3213,5.4461
		c0,0-0.9253,0.2753,0.2604,2.0927c1.1856,1.8172,0,1.9273,0,1.9273"/>
	<path fill="none" stroke="#000000" stroke-linecap="round" stroke-linejoin="round" stroke-miterlimit="10" d="M16.4692,7.1753
		c0,0-0.5272,0.157,0.1482,1.1925c0.6757,1.0355,0,1.0982,0,1.0982"/>
</g>
<rect x="-0.0137" y="0.0002" fill="none" width="24" height="24"/>
</svg>
