<?xml version="1.0" encoding="utf-8"?>
<!-- Generator: Adobe Illustrator 18.1.0, SVG Export Plug-In . SVG Version: 6.00 Build 0)  -->
<svg version="1.1" id="Layer_1" xmlns="http://www.w3.org/2000/svg" xmlns:xlink="http://www.w3.org/1999/xlink" x="0px" y="0px"
	 width="24px" height="24px" viewBox="0 0 24 24" enable-background="new 0 0 24 24" xml:space="preserve">
<g>
	<path fill="none" stroke="#000000" stroke-linecap="round" stroke-linejoin="round" stroke-miterlimit="10" d="M3.5187,20.6591
		c0.1564,1.0085,1.2032,1.5502,1.9933,0.9625c0.3488-0.2595,0.7944-0.3023,1.135-0.0291c0.4309,0.3456,1.0027,0.3596,1.4446,0.0442
		c0.375-0.2676,0.8391-0.2676,1.2141,0c0.4152,0.2962,0.9568,0.3064,1.3862,0c0.375-0.2676,0.8391-0.2676,1.2141,0
		c0.4152,0.2963,0.9568,0.3064,1.3862,0c0.375-0.2676,0.8391-0.2676,1.2141,0c0.4152,0.2963,0.9568,0.3064,1.3862,0
		c0.375-0.2676,0.8391-0.2676,1.2141,0c0.4421,0.3155,1.0139,0.3014,1.4448-0.0444c0.3404-0.2731,0.786-0.2303,1.1347,0.0292
		c1.1699,0.8704,2.5754-0.7051,1.8007-2.0356c-0.2295-0.3942-0.2675-0.8979-0.0259-1.2828c0.3058-0.487,0.3185-1.1332,0.0393-1.6332
		c-0.2367-0.424-0.2367-0.9486,0-1.3726c0.2615-0.4683,0.2716-1.0806,0-1.5669"/>
	<path fill="none" stroke="#000000" stroke-linecap="round" stroke-linejoin="round" stroke-miterlimit="10" d="M13.2922,7.3911
		c-0.4152-0.2963-0.9568-0.3064-1.3862,0c-0.375,0.2676-0.8391,0.2676-1.2141,0c-0.4152-0.2963-0.9568-0.3064-1.3862,0
		c-0.375,0.2676-0.8391,0.2676-1.2141,0C7.6497,7.0758,7.0779,7.0897,6.647,7.4353C6.3064,7.7084,5.8608,7.6657,5.5119,7.4062
		C4.7219,6.8185,3.6751,7.3601,3.5187,8.3687C3.4569,8.7669,3.5371,9.1426,3.7114,9.442c0.2295,0.3941,0.2675,0.8977,0.0259,1.2825
		c-0.1507,0.24-0.2393,0.5333-0.2393,0.85"/>
	<polyline fill="none" stroke="#000000" stroke-linecap="round" stroke-linejoin="round" stroke-miterlimit="10" points="
		5.503,10.5332 5.503,9.5 12.4251,9.5 	"/>
	<polyline fill="none" stroke="#000000" stroke-linecap="round" stroke-linejoin="round" stroke-miterlimit="10" points="
		19.503,14.4997 19.503,19.5 12.6094,19.5 	"/>
	
		<ellipse fill="none" stroke="#000000" stroke-linecap="round" stroke-linejoin="round" stroke-miterlimit="10" cx="18.9952" cy="8.3345" rx="2.5" ry="2.5624"/>
	
		<ellipse fill="none" stroke="#000000" stroke-linecap="round" stroke-linejoin="round" stroke-miterlimit="10" cx="18.9952" cy="8.3345" rx="4.225" ry="4.3305"/>
	<path fill="none" stroke="#000000" stroke-linecap="round" stroke-linejoin="round" stroke-miterlimit="10" d="M0.6853,13.6123
		L0.6853,13.6123c0.6849-0.702,1.7954-0.702,2.4803,0l0,0c0.6849,0.702,1.7954,0.702,2.4803,0l0,0
		c0.6849-0.702,1.7954-0.702,2.4803,0l0,0c0.6849,0.702,1.7954,0.702,2.4803,0l0,0"/>
	<path fill="none" stroke="#000000" stroke-linecap="round" stroke-linejoin="round" stroke-miterlimit="10" d="M0.6853,16.0232
		L0.6853,16.0232c0.6849-0.702,1.7954-0.702,2.4803,0l0,0c0.6849,0.702,1.7954,0.702,2.4803,0l0,0
		c0.6849-0.702,1.7954-0.702,2.4803,0l0,0c0.6849,0.702,1.7954,0.702,2.4803,0l0,0"/>
	<path fill="none" stroke="#000000" stroke-linecap="round" stroke-linejoin="round" stroke-miterlimit="10" d="M0.6853,18.4341
		L0.6853,18.4341c0.6849-0.702,1.7954-0.702,2.4803,0l0,0c0.6849,0.702,1.7954,0.702,2.4803,0l0,0
		c0.6849-0.702,1.7954-0.702,2.4803,0l0,0c0.6849,0.702,1.7954,0.702,2.4803,0l0,0"/>
</g>
<rect x="0" y="0" fill="none" width="24" height="24"/>
</svg>
