<?xml version="1.0" encoding="utf-8"?>
<!-- Generator: Adobe Illustrator 18.1.0, SVG Export Plug-In . SVG Version: 6.00 Build 0)  -->
<svg version="1.1" id="Layer_1" xmlns="http://www.w3.org/2000/svg" xmlns:xlink="http://www.w3.org/1999/xlink" x="0px" y="0px"
	 width="24px" height="24px" viewBox="0 0 24 24" enable-background="new 0 0 24 24" xml:space="preserve">
<g>
	<path fill="none" stroke="#000000" stroke-linecap="round" stroke-linejoin="round" d="M8.4156,4.4365H7.3076
		c0,0-2.8398,0-2.8398,3.033c0,3.7211,0,9.8762,0,9.8762"/>
	<path fill="none" stroke="#000000" stroke-linecap="round" stroke-linejoin="round" d="M5.2556,18.8491
		c0,0.4338-0.3522,0.7856-0.7862,0.7856H4.4662c-0.4341,0-0.7859-0.3519-0.7859-0.7856v-0.7176
		c0-0.4339,0.3518-0.7858,0.7859-0.7858h0.0031c0.4341,0,0.7862,0.3518,0.7862,0.7858V18.8491z"/>
	<path fill="none" stroke="#000000" stroke-linecap="round" stroke-linejoin="round" d="M12.5069,4.8574h2.9754V3.5052h-2.9754
		V2.5049h0.9842V0.498H9.5813v2.0069h0.9133v3.2757C9.7268,5.921,7.53,7.0966,7.5317,9.3762v13.2709
		c-0.0017,0.3302,0.1612,0.8793,0.8638,0.8793h6.1994c0.7029,0,0.8661-0.5491,0.8638-0.8793V9.3765
		c0.0023-2.2794-2.191-3.4553-2.9638-3.5956L12.5069,4.8574z"/>
	<polygon fill="none" stroke="#000000" stroke-linecap="round" stroke-linejoin="round" points="15.4823,2.8892 15.4826,5.4293 
		22.4171,6.4187 22.4171,1.9328 	"/>
</g>
<rect x="-0.0136" y="0.0002" fill="none" width="24" height="24"/>
</svg>
