<?xml version="1.0" encoding="utf-8"?>
<!-- Generator: Adobe Illustrator 18.1.0, SVG Export Plug-In . SVG Version: 6.00 Build 0)  -->
<svg version="1.1" id="Layer_1" xmlns="http://www.w3.org/2000/svg" xmlns:xlink="http://www.w3.org/1999/xlink" x="0px" y="0px"
	 width="24px" height="24px" viewBox="0 0 24 24" enable-background="new 0 0 24 24" xml:space="preserve">
<g>
	<path fill="none" stroke="#000000" stroke-linecap="round" stroke-linejoin="round" d="M17.7892,8.536
		c0,0,2.4852,3.6798,2.6627,9.1574c0.104,3.2106-0.1404,4.4958-0.3708,5.122c-0.1759,0.4782-0.6424,0.7867-1.1519,0.7867h-4.4448
		c-0.5893,0-1.0986-0.4139-1.2122-0.9922c-0.376-1.9134-0.4404-5.8213,1.4992-8.7204c2.259-3.3764,1.1176-5.3535,1.1176-5.3535"/>
	<path fill="none" stroke="#000000" stroke-linecap="round" stroke-linejoin="round" d="M17.7892,6.55
		c0,0,0.3371-1.5459,1.4719-2.3024c0.8074-0.5383-0.6579-1.6765-2.9904-1.6746c-2.2436,0.0018-3.9773-0.0019-3.9773-0.0019v1.9457
		c0,0,2.7102,0.3587,3.5957,2.0333H17.7892z"/>
	<polyline fill="none" stroke="#000000" stroke-linecap="round" stroke-linejoin="round" points="10.7254,2.9749 10.0335,3.0918 
		10.0335,3.996 10.7254,4.1129 	"/>
	<path fill="none" stroke="#000000" stroke-linecap="round" stroke-linejoin="round" d="M14.2277,5.1053
		c0,0,0.3424,2.082-1.1653,3.2684"/>
	
		<line fill="none" stroke="#000000" stroke-linecap="round" stroke-linejoin="round" x1="13.91" y1="15.5354" x2="20.2591" y2="15.5354"/>
	
		<line fill="none" stroke="#000000" stroke-linecap="round" stroke-linejoin="round" x1="20.3573" y1="21.5354" x2="13.106" y2="21.5354"/>
	<g>
		<g>
			
				<line fill="none" stroke="#000000" stroke-linecap="round" stroke-linejoin="round" x1="7.6382" y1="3.5438" x2="7.2107" y2="3.8034"/>
			
				<line fill="none" stroke="#000000" stroke-linecap="round" stroke-linejoin="round" stroke-dasharray="0.5053,2.0213" x1="5.4828" y1="4.8522" x2="4.1869" y2="5.6388"/>
			
				<line fill="none" stroke="#000000" stroke-linecap="round" stroke-linejoin="round" x1="3.323" y1="6.1632" x2="2.8956" y2="6.4228"/>
		</g>
	</g>
	<g>
		<g>
			
				<line fill="none" stroke="#000000" stroke-linecap="round" stroke-linejoin="round" x1="7.6382" y1="3.5438" x2="7.1382" y2="3.5438"/>
			
				<line fill="none" stroke="#000000" stroke-linecap="round" stroke-linejoin="round" x1="3.2538" y1="3.5438" x2="2.7538" y2="3.5438"/>
		</g>
	</g>
	<g>
		<g>
			
				<line fill="none" stroke="#000000" stroke-linecap="round" stroke-linejoin="round" x1="7.6382" y1="3.5438" x2="7.2107" y2="3.2845"/>
			
				<line fill="none" stroke="#000000" stroke-linecap="round" stroke-linejoin="round" stroke-dasharray="0.5053,2.0213" x1="5.4828" y1="2.2356" x2="4.1869" y2="1.449"/>
			
				<line fill="none" stroke="#000000" stroke-linecap="round" stroke-linejoin="round" x1="3.323" y1="0.9246" x2="2.8956" y2="0.6651"/>
		</g>
	</g>
</g>
<rect x="0.0142" y="0.0354" fill="none" width="24" height="24"/>
</svg>
