<?xml version="1.0" encoding="utf-8"?>
<!-- Generator: Adobe Illustrator 18.1.0, SVG Export Plug-In . SVG Version: 6.00 Build 0)  -->
<svg version="1.1" id="Layer_1" xmlns="http://www.w3.org/2000/svg" xmlns:xlink="http://www.w3.org/1999/xlink" x="0px" y="0px"
	 width="24px" height="24px" viewBox="0 0 24 24" enable-background="new 0 0 24 24" xml:space="preserve">
<line fill="none" stroke="#000000" stroke-linecap="round" stroke-linejoin="round" x1="5.5041" y1="2.4981" x2="18.5054" y2="7.4984"/>
<g>
	<polyline fill="none" stroke="#000000" stroke-linecap="round" stroke-linejoin="round" points="0.9845,11.5096 5.5041,2.4981 
		9.9959,11.5096 	"/>
	<path fill="none" stroke="#000000" stroke-linecap="round" stroke-linejoin="round" d="M9.9959,11.5089
		c0,2.1958-2.0175,3.9759-4.5057,3.9759c-2.4886,0-4.5057-1.7801-4.5057-3.9759H9.9959z"/>
	<polyline fill="none" stroke="#000000" stroke-linecap="round" stroke-linejoin="round" points="13.9858,16.5099 18.5054,7.4984 
		22.9972,16.5099 	"/>
	<path fill="none" stroke="#000000" stroke-linecap="round" stroke-linejoin="round" d="M22.9972,16.5092
		c0,2.1958-2.0175,3.9759-4.5057,3.9759c-2.4886,0-4.5057-1.7801-4.5057-3.9759H22.9972z"/>
	
		<line fill="none" stroke="#000000" stroke-linecap="round" stroke-linejoin="round" x1="12.0018" y1="23.5" x2="12.0018" y2="2.7453"/>
	
		<line fill="none" stroke="#000000" stroke-linecap="round" stroke-linejoin="round" x1="16.4551" y1="23.5" x2="7.4551" y2="23.5"/>
</g>
<rect x="0" y="0" fill="none" width="24" height="24"/>
</svg>
