<?xml version="1.0" encoding="utf-8"?>
<!-- Generator: Adobe Illustrator 18.1.0, SVG Export Plug-In . SVG Version: 6.00 Build 0)  -->
<svg version="1.1" id="Layer_1" xmlns="http://www.w3.org/2000/svg" xmlns:xlink="http://www.w3.org/1999/xlink" x="0px" y="0px"
	 width="24px" height="24px" viewBox="0 0 24 24" enable-background="new 0 0 24 24" xml:space="preserve">
<g>
	<polyline fill="none" stroke="#000000" stroke-linecap="round" stroke-linejoin="round" stroke-miterlimit="10" points="
		20.9892,22.5002 15.4892,22.5002 15.4892,19.5002 11.4892,19.5002 11.4892,16.5002 7.4892,16.5002 7.4892,13.5002 1.9892,13.5002 	
		"/>
	
		<circle fill="none" stroke="#000000" stroke-linecap="round" stroke-linejoin="round" stroke-miterlimit="10" cx="18.4239" cy="2.6342" r="1.4457"/>
	<path fill="none" stroke="#000000" stroke-linecap="round" stroke-linejoin="round" stroke-miterlimit="10" d="M18.3391,20.6628
		l0.7446-5.3319c0.0257-0.1843-0.0253-0.3711-0.1412-0.5167l-2.767-3.4762c-0.2318-0.2912-0.3339-0.6648-0.2824-1.0335l0.4286-3.069
		c0.1083-0.7753,0.7859-1.3892,1.5658-1.3216c0.8318,0.0721,1.4231,0.8242,1.3091,1.6405l0.1241,2.9444l1.305,1.7041"/>
	
		<line fill="none" stroke="#000000" stroke-linecap="round" stroke-linejoin="round" stroke-miterlimit="10" x1="16.498" y1="14.3349" x2="13.8111" y2="16.8504"/>
	<polyline fill="none" stroke="#000000" stroke-linecap="round" stroke-linejoin="round" stroke-miterlimit="10" points="
		14.9032,5.7895 13.5944,7.0138 12.7885,10.1009 	"/>
</g>
<rect x="-0.0137" y="0.0002" fill="none" width="24" height="24"/>
</svg>
