<?xml version="1.0" encoding="utf-8"?>
<!-- Generator: Adobe Illustrator 18.1.0, SVG Export Plug-In . SVG Version: 6.00 Build 0)  -->
<svg version="1.1" id="Layer_1" xmlns="http://www.w3.org/2000/svg" xmlns:xlink="http://www.w3.org/1999/xlink" x="0px" y="0px"
	 width="24px" height="24px" viewBox="0 0 24 24" enable-background="new 0 0 24 24" xml:space="preserve">
<g>
	<path fill="none" stroke="#000000" stroke-linecap="round" stroke-linejoin="round" stroke-miterlimit="10" d="M8.9214,21.4745
		H1.4415c-0.5214,0-0.9456-0.4259-0.9456-0.9499V1.4653c0-0.5245,0.4242-0.9507,0.9456-0.9507h3.5677
		c0.521,0,1.4379,2.0399,1.4379,2.0399h16.0841c0.521,0,0.9452,0.4263,0.9452,0.9507v17.0195c0,0.524-0.4242,0.9499-0.9452,0.9499
		h-6.5603"/>
	
		<line fill="none" stroke="#000000" stroke-linecap="round" stroke-linejoin="round" stroke-miterlimit="10" x1="23.4763" y1="6.5253" x2="0.4959" y2="6.5253"/>
	
		<line fill="none" stroke="#000000" stroke-linecap="round" stroke-linejoin="round" stroke-miterlimit="10" x1="12.497" y1="10.4119" x2="12.497" y2="23.5622"/>
	<polyline fill="none" stroke="#000000" stroke-linecap="round" stroke-linejoin="round" stroke-miterlimit="10" points="
		8.9645,13.9443 12.497,10.4119 16.0295,13.9443 	"/>
</g>
<rect x="0" y="0.0001" fill="none" width="24" height="24"/>
</svg>
