<?xml version="1.0" encoding="utf-8"?>
<!-- Generator: Adobe Illustrator 18.1.0, SVG Export Plug-In . SVG Version: 6.00 Build 0)  -->
<svg version="1.1" id="Layer_1" xmlns="http://www.w3.org/2000/svg" xmlns:xlink="http://www.w3.org/1999/xlink" x="0px" y="0px"
	 width="24px" height="24px" viewBox="0 0 24 24" enable-background="new 0 0 24 24" xml:space="preserve">
<g>
	<path fill="none" stroke="#000000" stroke-linecap="round" stroke-linejoin="round" d="M17.6801,14.0331
		c-1.5458,1.0303-1.8385,3.4908-1.8385,3.4908c0.7757,0.0864,1.1982-0.1139,1.1982-0.1139s0.6985-1.6861,2.598-2.0968
		c1.8994-0.4107,1.5897,0.7187,3.413,0 M9.4962,17.5044c0.1799-0.2807,1.315-4.4031,1.9479-4.7819
		c1.0121-0.6162,0.809-2.1466-0.8265-2.1769l-6.278-0.1246c-1.4131-0.027-1.899,1.1751-1.1421,1.9532
		c-0.8606,0.4902-1.5076,1.2964-1.882,2.0446c-0.3589,0.7174-0.9445,2.0937-0.4195,2.796c0.2277,0.3045,0.6166,0.2621,1.4794,0.2886
		v0.0009h11.4768 M14.7571,8.3691l0.9912,3.1242c-0.187,0.0875-0.3372,0.248-0.4018,0.457l-2.3545,5.554 M22.6738,15.4699
		c0.2488-0.0738,1.3269-0.3907-0.0163-1.4846c-1.0078-0.8217-2.2758-0.8831-3.2442-0.6586
		c0.1496-0.6448-0.2024-1.3466-1.0351-1.3158l-2.2496-4.987c0.3784,0.2697,1.4787,0.6053,1.5477,0.1538l0.2865-1.859
		c0.0528-0.3504-0.4069-0.2798-0.7598-0.2798c-0.5751,0-1.5019,0.099-1.6552,0.697l0,0c-0.3567-0.7161-1.4334-0.4709-1.4475,0.3257"
		/>
	<path fill="none" stroke="#000000" stroke-linecap="round" stroke-linejoin="round" d="M17.4113,19.117
		c0.3359,1.2496,1.4657,2.1789,2.8225,2.2045c1.645,0.0301,3.0037-1.2787,3.0343-2.9251c0.0075-0.4207-0.0725-0.8223-0.2232-1.1879"
		/>
	<circle fill="none" stroke="#000000" stroke-linecap="round" stroke-linejoin="round" cx="20.2877" cy="18.3535" r="1.4376"/>
	<path fill="none" stroke="#000000" stroke-linecap="round" stroke-linejoin="round" d="M4.9613,12.5105
		c1.3276-0.0877,3.5248,0.1956,3.421,3.0583"/>
	
		<line fill="none" stroke="#000000" stroke-linecap="round" stroke-linejoin="round" x1="9.4989" y1="12.7876" x2="11.3655" y2="12.7876"/>
	
		<line fill="none" stroke="#000000" stroke-linecap="round" stroke-linejoin="round" x1="14.9012" y1="6.8692" x2="12.8032" y2="8.1487"/>
	<path fill="none" stroke="#000000" stroke-linecap="round" stroke-linejoin="round" d="M2.5097,19.1619
		c0.3521,1.2225,1.4501,2.1344,2.7877,2.1596c1.3778,0.0259,2.5343-0.8961,2.8991-2.1596"/>
	<path fill="none" stroke="#000000" stroke-linecap="round" stroke-linejoin="round" d="M6.4693,19.1619
		c-0.2652,0.3558-0.6841,0.5874-1.1622,0.5777c-0.4577-0.008-0.8472-0.2385-1.1011-0.5777"/>
	<path fill="none" stroke="#000000" stroke-linecap="round" stroke-linejoin="round" d="M4.206,19.1619
		c0.254,0.3392,0.6434,0.5697,1.1011,0.5777c0.478,0.0097,0.8969-0.2219,1.1622-0.5777"/>
</g>
<rect x="-0.0136" y="0.0001" fill="none" width="24" height="24"/>
</svg>
