<?xml version="1.0" encoding="utf-8"?>
<!-- Generator: Adobe Illustrator 18.1.1, SVG Export Plug-In . SVG Version: 6.00 Build 0)  -->
<svg version="1.1" id="Layer_1" xmlns="http://www.w3.org/2000/svg" xmlns:xlink="http://www.w3.org/1999/xlink" x="0px" y="0px"
	 width="24px" height="24px" viewBox="0 0 24 24" enable-background="new 0 0 24 24" xml:space="preserve">
<g>
	<path fill="none" stroke="#000000" stroke-linecap="round" stroke-linejoin="round" d="M11.6,10.5c-0.1,7.1-0.8,13-0.8,13H8.1
		c0,0,0.7-5.9,0.8-13"/>
	<path fill="none" stroke="#000000" stroke-linecap="round" stroke-linejoin="round" d="M15,10.5c0.1,7.1,0.8,13,0.8,13h-2.7
		c0,0-0.8-5.9-0.8-13"/>
	<path fill="none" stroke="#000000" stroke-linecap="round" stroke-linejoin="round" d="M15.8,10.5c0.5,6.4,2.4,13,2.4,13h2.7
		c0,0-1.9-6.5-2.4-13"/>
	<path fill="none" stroke="#000000" stroke-linecap="round" stroke-linejoin="round" d="M8.2,10.5c-0.4,6.5-2.4,13-2.4,13H3.1
		c0,0,1.9-6.5,2.4-13"/>
	<path fill="none" stroke="#000000" stroke-linecap="round" stroke-linejoin="round" d="M18.5,6.1h3.8c0.7,0,1.2,0.6,1.2,1.3v1.8
		c0,0.7-0.5,1.3-1.2,1.3H1.8c-0.7,0-1.2-0.6-1.2-1.3V7.4c0-0.7,0.5-1.3,1.2-1.3h3.6"/>
	<polygon fill="none" stroke="#000000" stroke-linecap="round" stroke-linejoin="round" points="16.3,0.5 18.5,2.5 18.5,7.5 
		5.4,7.5 5.5,0.5 	"/>
	
		<line fill="none" stroke="#000000" stroke-linecap="round" stroke-linejoin="round" stroke-miterlimit="10" x1="21.4" y1="8.5" x2="21.5" y2="8.5"/>
</g>
<rect fill="none" width="24" height="24"/>
</svg>
