<?xml version="1.0" encoding="utf-8"?>
<!-- Generator: Adobe Illustrator 18.1.0, SVG Export Plug-In . SVG Version: 6.00 Build 0)  -->
<svg version="1.1" id="Layer_1" xmlns="http://www.w3.org/2000/svg" xmlns:xlink="http://www.w3.org/1999/xlink" x="0px" y="0px"
	 width="24px" height="24px" viewBox="0 0 24 24" enable-background="new 0 0 24 24" xml:space="preserve">
<g>
	<path fill="none" stroke="#000000" stroke-linecap="round" stroke-linejoin="round" stroke-miterlimit="10" d="M19.4993,8.592
		c0.774,0,1.4014,0.6274,1.4014,1.4014s-0.6274,1.4014-1.4014,1.4014"/>
	<path fill="none" stroke="#000000" stroke-linecap="round" stroke-linejoin="round" stroke-miterlimit="10" d="M18.1797,23.4853
		h-6.4373c-1.2969,0-2.2433-1.0345-2.2433-2.3314v-7.6686h11v7.6686C20.4992,22.4508,19.4766,23.4853,18.1797,23.4853z"/>
	<path fill="none" stroke="#000000" stroke-linecap="round" stroke-linejoin="round" stroke-miterlimit="10" d="M3.4992,13.4853h6
		v-11h-6C2.4992,2.4853,2.4992,13.4853,3.4992,13.4853z"/>
	
		<rect x="11.4992" y="8.4853" fill="none" stroke="#000000" stroke-linecap="round" stroke-linejoin="round" stroke-miterlimit="10" width="6" height="5"/>
	
		<line fill="none" stroke="#000000" stroke-linecap="round" stroke-linejoin="round" stroke-miterlimit="10" x1="13.4379" y1="12.0275" x2="13.4379" y2="12.0275"/>
	
		<line fill="none" stroke="#000000" stroke-linecap="round" stroke-linejoin="round" stroke-miterlimit="10" x1="15.5605" y1="12.0275" x2="15.5605" y2="12.0275"/>
	
		<line fill="none" stroke="#000000" stroke-linecap="round" stroke-linejoin="round" stroke-miterlimit="10" x1="13.4379" y1="9.9431" x2="13.4379" y2="9.9431"/>
	
		<line fill="none" stroke="#000000" stroke-linecap="round" stroke-linejoin="round" stroke-miterlimit="10" x1="15.5605" y1="9.9431" x2="15.5605" y2="9.9431"/>
	
		<line fill="none" stroke="#000000" stroke-linecap="round" stroke-linejoin="round" stroke-miterlimit="10" x1="14.4992" y1="10.9853" x2="14.4992" y2="10.9853"/>
	<path fill="none" stroke="#000000" stroke-linecap="round" stroke-linejoin="round" stroke-miterlimit="10" d="M15.8032,5.0259
		c0,0.7202-0.5838,1.304-1.304,1.304c-0.7202,0-1.304-0.5838-1.304-1.304s0.5838-4.3385,1.304-4.3385
		C15.2194,0.6873,15.8032,4.3057,15.8032,5.0259z"/>
</g>
<rect x="-0.0008" y="-0.0147" fill="none" width="24" height="24"/>
</svg>
