<?xml version="1.0" encoding="utf-8"?>
<!-- Generator: Adobe Illustrator 18.1.0, SVG Export Plug-In . SVG Version: 6.00 Build 0)  -->
<svg version="1.1" id="Layer_1" xmlns="http://www.w3.org/2000/svg" xmlns:xlink="http://www.w3.org/1999/xlink" x="0px" y="0px"
	 width="24px" height="24px" viewBox="0 0 24 24" enable-background="new 0 0 24 24" xml:space="preserve">
<g>
	<path fill="none" stroke="#000000" stroke-linecap="round" stroke-linejoin="round" stroke-miterlimit="10" d="M11.0257,6.4339
		c-0.2263,0.7436-0.9967,1.1579-1.7205,0.9254C8.5813,7.1268,8.1779,6.3355,8.4043,5.592s0.9967-1.1579,1.7205-0.9254
		C10.8487,4.8991,11.2521,5.6903,11.0257,6.4339z"/>
	<path fill="none" stroke="#000000" stroke-linecap="round" stroke-linejoin="round" stroke-miterlimit="10" d="M8.6219,21.4652
		c0,0-0.008-3.1567-0.0674-4.1586c-0.0107-0.181-0.085-0.3497-0.2088-0.4789l-2.2721-2.3732
		c-0.181-0.334-0.2207-0.7298-0.1096-1.0946l0.9267-3.0444C7.1182,9.568,7.8544,9.0656,8.599,9.2337
		c0.8398,0.1896,1.1753,0.9707,1.0735,1.8945l-0.2028,2.3606l2.5167,0.0407"/>
	<polyline fill="none" stroke="#000000" stroke-linecap="round" stroke-linejoin="round" stroke-miterlimit="10" points="
		5.2957,15.863 4.0144,17.4754 0.6612,17.4754 	"/>
	<polyline fill="none" stroke="#000000" stroke-linecap="round" stroke-linejoin="round" stroke-miterlimit="10" points="
		5.4596,9.489 4.0531,9.489 2.5001,12.3997 	"/>
	<polyline fill="none" stroke="#000000" stroke-linecap="round" stroke-linejoin="round" points="11.4864,17.5686 11.4864,18.5002 
		16.4864,18.5002 	"/>
	<polyline fill="none" stroke="#000000" stroke-linecap="round" stroke-linejoin="round" points="11.4864,2.5062 11.4864,0.5002 
		23.4864,0.5002 	"/>
	<path fill="none" stroke="#000000" stroke-linecap="round" stroke-linejoin="round" d="M8.7034,8.0052"/>
	<path fill="none" stroke="#000000" stroke-linecap="round" stroke-linejoin="round" d="M8.7034,13.6717"/>
	<polygon fill="none" stroke="#000000" stroke-linecap="round" stroke-linejoin="round" points="23.4864,0.6082 23.4864,18.7673 
		16.4864,22.8631 16.4864,4.704 	"/>
</g>
<rect x="-0.0136" y="0.0002" fill="none" width="24" height="24"/>
</svg>
