<?xml version="1.0" encoding="utf-8"?>
<!-- Generator: Adobe Illustrator 18.1.0, SVG Export Plug-In . SVG Version: 6.00 Build 0)  -->
<svg version="1.1" id="Layer_1" xmlns="http://www.w3.org/2000/svg" xmlns:xlink="http://www.w3.org/1999/xlink" x="0px" y="0px"
	 width="24px" height="24px" viewBox="0 0 24 24" enable-background="new 0 0 24 24" xml:space="preserve">
<g>
	<path fill="none" stroke="#000000" stroke-linecap="round" stroke-linejoin="round" stroke-miterlimit="10" d="M7.4177,11.1179
		c-0.7519,0.9478-2.1582,3.0072-2.1977,5.1918l2.6408-1.2001"/>
	<path fill="none" stroke="#000000" stroke-linecap="round" stroke-linejoin="round" stroke-miterlimit="10" d="M16.4975,11.0489
		c0.7356,0.9139,2.2119,3.0215,2.253,5.2605l-2.6416-1.1996"/>
	<path fill="none" stroke="#000000" stroke-linecap="round" stroke-linejoin="round" stroke-miterlimit="10" d="M11.974,0.6279
		c-1.9127-0.0004-3.3112,3.3008-3.3103,5.0412l1.0377,9.5598c0.0125,0.1774,0.1597,0.3155,0.3371,0.3155h3.871
		c0.1774,0,0.3246-0.1377,0.338-0.3155l1.0373-9.5826C15.2852,3.9292,13.8867,0.6275,11.974,0.6279z"/>
	
		<circle fill="none" stroke="#000000" stroke-linecap="round" stroke-linejoin="round" stroke-miterlimit="10" cx="11.9742" cy="6.8551" r="1.3172"/>
	<path fill="none" stroke="#000000" stroke-linecap="round" stroke-linejoin="round" stroke-miterlimit="10" d="M12.9436,17.3212
		c-0.2709,0.8282-0.6071,1.4683-0.9696,1.4683c-0.3634,0-0.6991-0.64-0.9706-1.4683c-0.4027,0.1917-0.6641,0.5463-0.6641,1.1382
		c0,0.9898,0.7319,4.9349,1.6337,4.9354c0.9035-0.0004,1.6351-3.946,1.6351-4.9349C13.6082,17.8675,13.3459,17.5129,12.9436,17.3212
		z"/>
</g>
<rect x="-0.0137" y="0.0002" fill="none" width="24" height="24"/>
</svg>
