<?xml version="1.0" encoding="utf-8"?>
<!-- Generator: Adobe Illustrator 18.1.0, SVG Export Plug-In . SVG Version: 6.00 Build 0)  -->
<svg version="1.1" id="Layer_1" xmlns="http://www.w3.org/2000/svg" xmlns:xlink="http://www.w3.org/1999/xlink" x="0px" y="0px"
	 width="24px" height="24px" viewBox="0 0 24 24" enable-background="new 0 0 24 24" xml:space="preserve">
<g>
	
		<line fill="none" stroke="#000000" stroke-linecap="round" stroke-linejoin="round" stroke-miterlimit="10" x1="20.2274" y1="12.5038" x2="15.6599" y2="12.5038"/>
	<polyline fill="none" stroke="#000000" stroke-linecap="round" stroke-linejoin="round" stroke-miterlimit="10" points="
		17.5285,9.8606 20.2285,12.5039 17.5285,15.1471 	"/>
	<path fill="none" stroke="#000000" stroke-linecap="round" stroke-linejoin="round" stroke-miterlimit="10" d="M23.4863,2.8774
		c0-1.3129-1.0642-2.3772-2.377-2.3772H2.8633c-1.3128,0-2.377,1.0643-2.377,2.3772V21.123c0,1.3129,1.0642,2.3772,2.377,2.3772
		h18.246c1.3128,0,2.377-1.0643,2.377-2.3772V2.8774z"/>
	
		<circle fill="none" stroke="#000000" stroke-linecap="round" stroke-linejoin="round" stroke-miterlimit="10" cx="11.4192" cy="6.5648" r="1.1774"/>
	<path fill="none" stroke="#000000" stroke-linecap="round" stroke-linejoin="round" stroke-miterlimit="10" d="M10.482,19.4621
		c0,0-0.0068-2.6347-0.0578-3.471c-0.0092-0.151-0.0729-0.2919-0.179-0.3998l-1.9479-1.9808
		c-0.1552-0.2788-0.1892-0.6091-0.094-0.9137l0.7945-2.541C9.1929,9.5321,9.824,9.1127,10.4624,9.253
		c0.72,0.1582,1.0134,0.8184,0.9203,1.5812l-0.3079,2.665l2.3226,0.0366"/>
	<polyline fill="none" stroke="#000000" stroke-linecap="round" stroke-linejoin="round" stroke-miterlimit="10" points="
		7.5031,14.9421 6.5318,16.4167 3.8827,16.4167 	"/>
	<polyline fill="none" stroke="#000000" stroke-linecap="round" stroke-linejoin="round" stroke-miterlimit="10" points="
		7.5031,9.489 6.5594,9.489 5.2279,11.9185 	"/>
</g>
<rect x="-0.0136" y="0.0002" fill="none" width="24" height="24"/>
</svg>
