<?xml version="1.0" encoding="utf-8"?>
<!-- Generator: Adobe Illustrator 18.1.0, SVG Export Plug-In . SVG Version: 6.00 Build 0)  -->
<svg version="1.1" id="Layer_1" xmlns="http://www.w3.org/2000/svg" xmlns:xlink="http://www.w3.org/1999/xlink" x="0px" y="0px"
	 width="24px" height="24px" viewBox="0 0 24 24" enable-background="new 0 0 24 24" xml:space="preserve">
<g>
	<path fill="none" stroke="#000000" stroke-linecap="round" stroke-linejoin="round" d="M23.2814,14.0713
		c0-6.6245-5.4513-11.9466-12.0153-11.5289C5.75,2.8935,1.2164,7.4082,0.739,13.0405c-0.2235,2.6371,0.4203,5.1095,1.6718,7.153
		c0.489,0.7985,1.3619,1.2658,2.283,1.2658h14.5883c0.9234,0,1.797-0.4702,2.2868-1.271
		C22.6539,18.4145,23.2814,16.3181,23.2814,14.0713z"/>
	
		<line fill="none" stroke="#000000" stroke-linecap="round" stroke-linejoin="round" x1="4.0005" y1="14.4385" x2="3.1264" y2="14.4385"/>
	
		<line fill="none" stroke="#000000" stroke-linecap="round" stroke-linejoin="round" x1="6.1573" y1="8.4767" x2="5.4992" y2="7.8035"/>
	
		<line fill="none" stroke="#000000" stroke-linecap="round" stroke-linejoin="round" x1="11.9725" y1="5.8114" x2="11.9725" y2="4.9552"/>
	
		<line fill="none" stroke="#000000" stroke-linecap="round" stroke-linejoin="round" x1="17.9659" y1="8.4767" x2="18.613" y2="7.8146"/>
	
		<line fill="none" stroke="#000000" stroke-linecap="round" stroke-linejoin="round" x1="19.921" y1="14.4391" x2="20.8317" y2="14.4391"/>
	<path fill="none" stroke="#000000" stroke-linecap="round" stroke-linejoin="round" stroke-miterlimit="10" d="M10.8158,17.9678
		c0.6388,0.6534,1.6745,0.6534,2.3132,0s0.6388-1.7129,0-2.3663c-0.6388-0.6534-1.6745-0.6534-2.3132,0
		C10.177,16.2549,10.177,17.3143,10.8158,17.9678z"/>
	
		<line fill="none" stroke="#000000" stroke-linecap="round" stroke-linejoin="round" stroke-miterlimit="10" x1="10.8158" y1="15.6015" x2="6.2295" y2="10.91"/>
</g>
<rect x="-0.0106" y="0.0002" fill="none" width="24" height="24"/>
</svg>
