<?xml version="1.0" encoding="utf-8"?>
<!-- Generator: Adobe Illustrator 18.1.0, SVG Export Plug-In . SVG Version: 6.00 Build 0)  -->
<svg version="1.1" id="Layer_1" xmlns="http://www.w3.org/2000/svg" xmlns:xlink="http://www.w3.org/1999/xlink" x="0px" y="0px"
	 width="24px" height="24px" viewBox="0 0 24 24" enable-background="new 0 0 24 24" xml:space="preserve">
<g>
	<path fill="none" stroke="#000000" stroke-linecap="round" stroke-linejoin="round" stroke-miterlimit="10" d="M6.6287,17.5146
		c-2.94-0.6889-5.926-4.1063-5.926-8.491c0-4.5789,3.5251-8.5255,7.629-8.5255h7.5208c4.1039,0,7.431,3.9212,7.431,8.5001
		c0,4.5313-3.3271,8.4999-7.431,8.4999h-2.369l-6.8548,5.78V17.5146z"/>
	<path fill="none" stroke="#000000" stroke-linecap="round" stroke-linejoin="round" d="M17.1052,6.5559
		c-0.1541-1.1534-0.9258-1.8675-2.0259-1.8675c-1.072,0-2.1994,0.6911-2.9023,1.7701c-0.3792-0.2744-1.256-0.7539-2.7407-0.7539
		c-0.2469,0-1.7878,0.0601-1.7523,0.3104c0.0147,0.1009,0.3595,2.3721,2.1012,3.1196c-0.567,0.2153-1.1158,0.3211-1.6697,0.3211
		c-0.7821,0-1.5949-0.3379-1.9452,0.3453C6.03,10.0755,6.125,10.3736,6.4305,10.6443c-0.5441,0.0982-0.9287,0.3268-1.0091,0.6119
		c-0.2012,0.7146,1.1408,0.9742,1.8913,0.9742c0.8493,0,1.7996-0.1712,2.3634-0.3386c0.0034,0.0053,0.0074,0.011,0.0116,0.0167
		c0.7177,1.0649,1.8092,1.3804,3.0596,1.2606c4.3228-0.4136,4.5113-4.2586,4.5136-4.8658
		C19.316,7.3981,19.2759,7.7833,17.1052,6.5559z M15.7989,6.8058c0,0.3541-0.2825,0.6424-0.6294,0.6424
		c-0.3474,0-0.6297-0.2883-0.6297-0.6424c0-0.3541,0.2824-0.6427,0.6297-0.6427C15.5164,6.1631,15.7989,6.4517,15.7989,6.8058z"/>
</g>
<rect x="0" y="-0.002" fill="none" width="24" height="24"/>
</svg>
