<?xml version="1.0" encoding="utf-8"?>
<!-- Generator: Adobe Illustrator 18.1.0, SVG Export Plug-In . SVG Version: 6.00 Build 0)  -->
<svg version="1.1" id="Layer_1" xmlns="http://www.w3.org/2000/svg" xmlns:xlink="http://www.w3.org/1999/xlink" x="0px" y="0px"
	 width="24px" height="24px" viewBox="0 0 24 24" enable-background="new 0 0 24 24" xml:space="preserve">
<g>
	<path fill="none" stroke="#000000" stroke-linecap="round" stroke-linejoin="round" stroke-miterlimit="10" d="M11.5758,0.5H1.4926
		C0.9783,0.5,0.5,0.9776,0.5,1.4854v7.1365C0.5,9.13,0.9783,9.5,1.4926,9.5h10.0832C12.0906,9.5,12.5,9.13,12.5,8.6219V1.4854
		C12.5,0.9776,12.0906,0.5,11.5758,0.5z"/>
	<circle fill="none" stroke="#000000" stroke-linecap="round" stroke-linejoin="round" cx="17.4859" cy="17.4579" r="5.9076"/>
	<path fill="none" stroke="#000000" stroke-linecap="round" stroke-linejoin="round" d="M14.1106,14.4679
		c0,0-0.6927,1.5901,0.1458,1.2941c0.6196-0.2187,0.6743-0.4737,0.6743-0.4737l0.3644-0.638c0,0,0.0547,0.893,0.1276,1.0205
		c0.0729,0.1277,0.3645,0.4922,0.4738-0.0182c0.201-0.9381,0.2348-1.2026,0.5811-1.2026s1.0591-0.2737,1.1321,0.5647
		c0.0729,0.8384-0.0729,0.3462-0.5285,0.565c-0.4557,0.2187-0.565,0.9842-0.1458,1.0752c0.4192,0.0912,1.3669,0.4738,1.3669,0.4738
		l0.4738,0.5286c0.2671,1.0352,0.2369,1.004,0.2369,1.8406c0,0,0.0183,1.1482,0.4374,0.8749
		c0.4191-0.2734,1.5673-2.0595,1.3304-2.7337c-0.2369-0.6743-0.2551-0.7473,0.1823-0.9842c0.4374-0.2369,0.7472-0.5285,0.729-0.8566
		"/>
	<path fill="none" stroke="#000000" stroke-linecap="round" stroke-linejoin="round" d="M13.254,18.769
		c0,0,0.1276-1.4463,0.4192-1.2153c0.2916,0.2312,0.4191,0.2312,0.6743,0.4864c0.2552,0.2551,1.3487,0.4009,0.9842,0.7289
		c-0.3646,0.3282-0.5046,0.3093-1.0019,1.7678"/>
	
		<line fill="none" stroke="#000000" stroke-linecap="round" stroke-linejoin="round" stroke-miterlimit="10" x1="12.5" y1="7.5" x2="0.5" y2="7.5"/>
	
		<line fill="none" stroke="#000000" stroke-linecap="round" stroke-linejoin="round" stroke-miterlimit="10" x1="8.5072" y1="11.5" x2="4.5653" y2="11.5"/>
	
		<line fill="none" stroke="#000000" stroke-linecap="round" stroke-linejoin="round" stroke-miterlimit="10" x1="6.5" y1="11.5" x2="6.5" y2="9.5"/>
	<g>
		<g>
			
				<line fill="none" stroke="#000000" stroke-linecap="round" stroke-linejoin="round" x1="14.5116" y1="3.503" x2="15.0116" y2="3.503"/>
			
				<line fill="none" stroke="#000000" stroke-linecap="round" stroke-linejoin="round" stroke-dasharray="0.5341,1.6024" x1="16.614" y1="3.503" x2="17.9493" y2="3.503"/>
			
				<line fill="none" stroke="#000000" stroke-linecap="round" stroke-linejoin="round" x1="18.7505" y1="3.503" x2="19.2505" y2="3.503"/>
		</g>
	</g>
	<g>
		<g>
			<line fill="none" stroke="#000000" stroke-linecap="round" stroke-linejoin="round" x1="20.5005" y1="9.5" x2="20.5005" y2="9"/>
			
				<line fill="none" stroke="#000000" stroke-linecap="round" stroke-linejoin="round" stroke-dasharray="0.5353,1.6058" x1="20.5005" y1="7.3942" x2="20.5005" y2="6.0559"/>
			
				<line fill="none" stroke="#000000" stroke-linecap="round" stroke-linejoin="round" x1="20.5005" y1="5.2531" x2="20.5005" y2="4.7531"/>
		</g>
	</g>
	<circle fill="none" stroke="#000000" stroke-linecap="round" stroke-linejoin="round" cx="20.5005" cy="3.503" r="1.25"/>
	<g>
		<g>
			
				<line fill="none" stroke="#000000" stroke-linecap="round" stroke-linejoin="round" x1="9.4136" y1="20.5412" x2="8.9136" y2="20.5412"/>
			
				<line fill="none" stroke="#000000" stroke-linecap="round" stroke-linejoin="round" stroke-dasharray="0.523,1.5689" x1="7.3448" y1="20.5412" x2="6.0374" y2="20.5412"/>
			
				<line fill="none" stroke="#000000" stroke-linecap="round" stroke-linejoin="round" x1="5.253" y1="20.5412" x2="4.753" y2="20.5412"/>
		</g>
	</g>
	<g>
		<g>
			
				<line fill="none" stroke="#000000" stroke-linecap="round" stroke-linejoin="round" x1="3.503" y1="14.5441" x2="3.503" y2="15.0441"/>
			
				<line fill="none" stroke="#000000" stroke-linecap="round" stroke-linejoin="round" stroke-dasharray="0.5353,1.6058" x1="3.503" y1="16.6501" x2="3.503" y2="17.9882"/>
			
				<line fill="none" stroke="#000000" stroke-linecap="round" stroke-linejoin="round" x1="3.503" y1="18.7912" x2="3.503" y2="19.2912"/>
		</g>
	</g>
	<circle fill="none" stroke="#000000" stroke-linecap="round" stroke-linejoin="round" cx="3.5029" cy="20.5412" r="1.25"/>
</g>
<rect x="0" y="0" fill="none" width="24" height="24"/>
</svg>
