<?xml version="1.0" encoding="utf-8"?>
<!-- Generator: Adobe Illustrator 18.1.0, SVG Export Plug-In . SVG Version: 6.00 Build 0)  -->
<svg version="1.1" id="Layer_1" xmlns="http://www.w3.org/2000/svg" xmlns:xlink="http://www.w3.org/1999/xlink" x="0px" y="0px"
	 width="24px" height="24px" viewBox="0 0 24 24" enable-background="new 0 0 24 24" xml:space="preserve">
<g>
	<path fill="none" stroke="#000000" stroke-linecap="round" stroke-linejoin="round" stroke-miterlimit="10" d="M16.5298,9.5246
		c0,0,6.1343-8.21-0.7745-8.7367S-0.6338,7.4798,2.1545,17.8585s18.4648,3.7178,14.8091-3.284"/>
	<path fill="none" stroke="#000000" stroke-linecap="round" stroke-linejoin="round" stroke-miterlimit="10" d="M6.5018,13.7039
		c1.3421-1.0534,5.5124-1.6101,5.5124-1.6101"/>
	<path fill="none" stroke="#000000" stroke-linecap="round" stroke-linejoin="round" stroke-miterlimit="10" d="M22.757,18.7895
		c0,0-0.9215-5.6946-8.1232-6.5788c-0.5068-0.0622-1.0075,0.1643-1.295,0.5863c-0.6888,1.011-2.0352,3.085-3.2925,5.5898"/>
	<path fill="none" stroke="#000000" stroke-linecap="round" stroke-linejoin="round" stroke-miterlimit="10" d="M14.547,6.0266
		c-1.3447,1.5716-0.5552,4.7405,0.3823,4.8161c1.478,0.1192,6.7714,0.458,8.377,4.8161"/>
	<path fill="none" stroke="#000000" stroke-linecap="round" stroke-linejoin="round" stroke-miterlimit="10" d="M8.5046,8.0194
		c0.1798,0.0797,0.6854,1.5155,4.2842,2.8233"/>
</g>
<rect x="0.0142" fill="none" width="24" height="24"/>
</svg>
