<?xml version="1.0" encoding="utf-8"?>
<!-- Generator: Adobe Illustrator 18.1.0, SVG Export Plug-In . SVG Version: 6.00 Build 0)  -->
<svg version="1.1" id="Layer_1" xmlns="http://www.w3.org/2000/svg" xmlns:xlink="http://www.w3.org/1999/xlink" x="0px" y="0px"
	 width="24px" height="24px" viewBox="0 0 24 24" enable-background="new 0 0 24 24" xml:space="preserve">
<g>
	<g>
		<path fill="none" stroke="#000000" stroke-linecap="round" stroke-linejoin="round" stroke-miterlimit="10" d="M6.901,12.8368
			c0,0-1.6193,10.2915-1.5305,10.4632c0.0882,0.172,0.2658,0.2802,0.4597,0.2805h1.3145c0.226-0.0002,0.4259-0.1463,0.4931-0.3607
			l0.5387-1.7114l0.179,1.6137c0.0286,0.261,0.2502,0.4584,0.5136,0.4584l1.0951-0.0002c0.2202,0.0001,0.4162-0.139,0.4884-0.3464
			l0.4557-1.3117l0.4499,1.3101c0.0713,0.2082,0.2678,0.3482,0.4884,0.3483l0.5647-0.0003c0.2498,0.0002,0.4641-0.1781,0.5084-0.423
			l0.3038-1.6787l0.4549,1.7185c0.0595,0.2262,0.2651,0.3835,0.4998,0.3834l0.5226,0.0001c0.2669,0,0.4898-0.2017,0.5149-0.4657
			l0.2223-2.314l0.8436,2.433c0.0722,0.2073,0.2682,0.3465,0.4885,0.3467l1.4055,0c0.1898,0,0.361-0.1082,0.4517-0.275
			c0.0898-0.166-1.5234-10.4946-1.5234-10.4946"/>
		<path fill="none" stroke="#000000" stroke-linecap="round" stroke-linejoin="round" stroke-miterlimit="10" d="M17.1039,12.8109
			c-0.0752-1.5091-1.8426-1.3582-2.8426-1.3582c-0.4656-0.2893-0.3628-1.2837-0.3397-1.4614l1.2383-5.4033
			c0.4958-2.1634-1.052-4.0044-3.1139-4.0044C10.0319,0.5837,8.42,2.3742,8.9292,4.5906l1.234,5.3711L10.163,9.9615
			c0,0,0.1761,1.1733-0.3358,1.4911c-1-0.0004-2.849-0.1934-2.9262,1.3842 M11.2425,3.8517
			c0.0001-0.4421,0.3602-0.8002,0.8037-0.8004c0.4438,0.0005,0.8033,0.3585,0.8037,0.8004c0.0001,0.4424-0.3594,0.8006-0.8039,0.801
			c-0.4434-0.0002-0.8032-0.3584-0.8035-0.8002L11.2425,3.8517z"/>
	</g>
	
		<line fill="none" stroke="#000000" stroke-linecap="round" stroke-linejoin="round" stroke-miterlimit="10" x1="6.3477" y1="16.5277" x2="17.6585" y2="16.5373"/>
	
		<line fill="none" stroke="#000000" stroke-linecap="round" stroke-linejoin="round" stroke-miterlimit="10" x1="6.7906" y1="13.5416" x2="17.2176" y2="13.5416"/>
</g>
<rect x="0" y="-0.0001" fill="none" width="24" height="24"/>
</svg>
