<?xml version="1.0" encoding="utf-8"?>
<!-- Generator: Adobe Illustrator 18.1.0, SVG Export Plug-In . SVG Version: 6.00 Build 0)  -->
<svg version="1.1" id="Layer_1" xmlns="http://www.w3.org/2000/svg" xmlns:xlink="http://www.w3.org/1999/xlink" x="0px" y="0px"
	 width="24px" height="24px" viewBox="0 0 24 24" enable-background="new 0 0 24 24" xml:space="preserve">
<g>
	<path fill="none" stroke="#000000" stroke-linecap="round" stroke-linejoin="round" d="M10.623,1.6377
		c2.2394,0.5625,3.7772,1.9161,3.7772,4.5923c0,3.7775-3.0623,8.7575-6.8399,8.7575s-6.8399-4.98-6.8399-8.7575
		c0-2.6762,1.5379-4.0299,3.7772-4.5923"/>
	<circle fill="none" stroke="#000000" stroke-linecap="round" stroke-linejoin="round" cx="20.5142" cy="6.5649" r="2.686"/>
	<circle fill="none" stroke="#000000" stroke-linecap="round" stroke-linejoin="round" cx="20.5142" cy="6.5649" r="1.0591"/>
	<circle fill="none" stroke="#000000" stroke-linecap="round" stroke-linejoin="round" cx="5.2472" cy="1.6203" r="0.7495"/>
	<circle fill="none" stroke="#000000" stroke-linecap="round" stroke-linejoin="round" cx="9.8735" cy="1.6203" r="0.7495"/>
	<path fill="none" stroke="#000000" stroke-linecap="round" stroke-linejoin="round" d="M7.5142,14.4716v2.842
		c0,3.2419,3.0097,6.0075,6.2968,6.0075h0.6297c3.2871,0,6.0736-2.7656,6.0736-6.0075V7.624"/>
</g>
<rect x="0.0142" y="0.0346" fill="none" width="24" height="24"/>
</svg>
