<?xml version="1.0" encoding="utf-8"?>
<!-- Generator: Adobe Illustrator 18.1.0, SVG Export Plug-In . SVG Version: 6.00 Build 0)  -->
<svg version="1.1" id="Layer_1" xmlns="http://www.w3.org/2000/svg" xmlns:xlink="http://www.w3.org/1999/xlink" x="0px" y="0px"
	 width="24px" height="24px" viewBox="0 0 24 24" enable-background="new 0 0 24 24" xml:space="preserve">
<g>
	<path fill="none" stroke="#000000" stroke-linecap="round" stroke-linejoin="round" stroke-miterlimit="10" d="M16.9853,13.8163
		c-0.182-0.1842-0.4766-0.1896-0.6681-0.0122c-0.0612,0.0599-1.4566,1.4369-1.5327,1.4753c-1.4216,0.72-6.5528-4.7735-5.5739-5.8065
		l1.4627-1.4333c0.1895-0.1865,0.1903-0.4912,0.0066-0.677L5.8927,2.4811C5.7112,2.2952,5.4101,2.2865,5.2155,2.4752
		C2.8182,4.8285-1.0247,7.1951,7.953,16.352c8.8603,9.0359,11.4004,5.6114,13.8459,2.9815
		c0.1757-0.1881,0.1709-0.4806-0.0085-0.6636L16.9853,13.8163z"/>
	
		<line fill="none" stroke="#000000" stroke-linecap="round" stroke-linejoin="round" stroke-miterlimit="10" x1="13.9974" y1="6.5488" x2="22.9486" y2="6.5488"/>
	
		<line fill="none" stroke="#000000" stroke-linecap="round" stroke-linejoin="round" stroke-miterlimit="10" x1="18.473" y1="2.0732" x2="18.473" y2="11.0244"/>
</g>
<rect x="1" y="-1.002" fill="none" width="24" height="24"/>
</svg>
