<?xml version="1.0" encoding="utf-8"?>
<!-- Generator: Adobe Illustrator 18.1.0, SVG Export Plug-In . SVG Version: 6.00 Build 0)  -->
<svg version="1.1" id="Layer_1" xmlns="http://www.w3.org/2000/svg" xmlns:xlink="http://www.w3.org/1999/xlink" x="0px" y="0px"
	 width="24px" height="24px" viewBox="0 0 24 24" enable-background="new 0 0 24 24" xml:space="preserve">
<g>
	<path fill="none" stroke="#000000" stroke-linecap="round" stroke-linejoin="round" d="M14.7779,20.9241L2.068,13.7002
		c-0.3299-0.1875-0.4429-0.6027-0.2524-0.9275l3.0291-5.165c0.1905-0.3247,0.6123-0.436,0.9421-0.2485l4.222,2.3996"/>
	<path fill="none" stroke="#000000" stroke-linecap="round" stroke-linejoin="round" d="M15.1348,18.4525L7.5877,5.5839
		c-0.1905-0.3247-0.0774-0.74,0.2524-0.9275l5.2466-2.982c0.3299-0.1875,0.7517-0.0762,0.9421,0.2485l2.5004,4.1872"/>
	<path fill="none" stroke="#000000" stroke-linecap="round" stroke-linejoin="round" d="M23.5293,22.8239
		c0,0.375-0.304,0.679-0.679,0.679h-5.6421c-0.375,0-0.679-0.304-0.679-0.679V1.1818c0-0.375,0.304-0.679,0.679-0.679h5.6421
		c0.375,0,0.679,0.304,0.679,0.679V22.8239z"/>
	<path fill="none" stroke="#000000" stroke-linecap="round" stroke-linejoin="round" d="M14.5366,23.5034H1.2078
		c-0.375,0-0.679-0.304-0.679-0.679v-5.6421c0-0.375,0.304-0.679,0.679-0.679H7"/>
	
		<line fill="none" stroke="#000000" stroke-linecap="round" stroke-linejoin="round" x1="20.0293" y1="20.503" x2="20.0293" y2="20.503"/>
	
		<line fill="none" stroke="#000000" stroke-linecap="round" stroke-linejoin="round" x1="18.0293" y1="17.5029" x2="22.0293" y2="17.5029"/>
</g>
<rect x="0.0293" y="0.0001" fill="none" width="24" height="24"/>
</svg>
