<?xml version="1.0" encoding="utf-8"?>
<!-- Generator: Adobe Illustrator 18.1.0, SVG Export Plug-In . SVG Version: 6.00 Build 0)  -->
<svg version="1.1" id="Layer_1" xmlns="http://www.w3.org/2000/svg" xmlns:xlink="http://www.w3.org/1999/xlink" x="0px" y="0px"
	 width="24px" height="24px" viewBox="0 0 24 24" enable-background="new 0 0 24 24" xml:space="preserve">
<g>
	<path fill="none" stroke="#000000" stroke-linecap="round" stroke-linejoin="round" d="M18.0348,17.8035l0.4769,1.9052
		c0.1202,0.6448-0.3049,1.2648-0.9499,1.385L5.909,23.2665c-0.6447,0.1202-1.2649-0.3048-1.3852-0.9497L1.1502,4.2234
		C1.03,3.5786,1.4553,2.9586,2.1,2.8384l11.6529-2.1727c0.645-0.1203,1.265,0.3048,1.3852,0.9497l0.2509,1.2422"/>
	
		<rect x="-3.349" y="10.7873" transform="matrix(-0.1833 -0.9831 0.9831 -0.1833 -3.9429 21.6968)" fill="none" stroke="#000000" stroke-linecap="round" stroke-linejoin="round" stroke-miterlimit="10" width="20.7802" height="3.3978"/>
	<path fill="none" stroke="#000000" stroke-linecap="round" stroke-linejoin="round" stroke-miterlimit="10" d="M15.7135,11.1567
		c-2.1698-0.1375-3.9338-1.9409-3.9338-4.1454c0-2.2941,1.8597-4.1538,4.1538-4.1538s4.1538,1.8597,4.1538,4.1538
		c0,0.9604-0.3259,1.8996-0.8732,2.6031"/>
	
		<circle fill="none" stroke="#000000" stroke-linecap="round" stroke-linejoin="round" stroke-miterlimit="10" cx="18.9558" cy="13.7528" r="4.1538"/>
	<path fill="none" stroke="#000000" stroke-linecap="round" stroke-linejoin="round" stroke-miterlimit="10" d="M17.7322,15.246
		c0.3557,0.3096,0.9043,0.5422,1.3002,0.5422c0.6335,0,1.1471-0.449,1.1471-1.0029s-0.5484-0.8279-1.1471-1.0029
		c-0.6205-0.1945-1.1471-0.449-1.1471-1.0029s0.5136-1.0029,1.1471-1.0029c0.4266,0,0.7988,0.2036,0.9964,0.5057"/>
	
		<line fill="none" stroke="#000000" stroke-linecap="round" stroke-linejoin="round" stroke-miterlimit="10" x1="19.0324" y1="11.2283" x2="19.0324" y2="11.7764"/>
	
		<line fill="none" stroke="#000000" stroke-linecap="round" stroke-linejoin="round" stroke-miterlimit="10" x1="19.0324" y1="15.832" x2="19.0324" y2="16.38"/>
	<path fill="none" stroke="#000000" stroke-linecap="round" stroke-linejoin="round" stroke-miterlimit="10" d="M14.8144,8.2541
		c0.3253,0.2832,0.827,0.4958,1.1891,0.4958c0.5794,0,1.0491-0.4107,1.0491-0.9172s-0.5015-0.7572-1.0491-0.9172
		c-0.5675-0.1779-1.0491-0.4107-1.0491-0.9172s0.4697-0.9172,1.0491-0.9172c0.3901,0,0.7305,0.1862,0.9113,0.4625"/>
	
		<line fill="none" stroke="#000000" stroke-linecap="round" stroke-linejoin="round" stroke-miterlimit="10" x1="16.0035" y1="4.5799" x2="16.0035" y2="5.0811"/>
	
		<line fill="none" stroke="#000000" stroke-linecap="round" stroke-linejoin="round" stroke-miterlimit="10" x1="16.0035" y1="8.7499" x2="16.0035" y2="9.2512"/>
</g>
<rect x="0.0075" y="-0.006" fill="none" width="24" height="24"/>
</svg>
