<?xml version="1.0" encoding="utf-8"?>
<!-- Generator: Adobe Illustrator 18.1.1, SVG Export Plug-In . SVG Version: 6.00 Build 0)  -->
<svg version="1.1" id="Layer_1" xmlns="http://www.w3.org/2000/svg" xmlns:xlink="http://www.w3.org/1999/xlink" x="0px" y="0px"
	 width="24px" height="24px" viewBox="0 0 24 24" enable-background="new 0 0 24 24" xml:space="preserve">
<rect fill="none" width="24" height="24"/>
<g>
	<polyline fill="none" stroke="#000000" stroke-linecap="round" stroke-linejoin="round" points="0.679,5.9579 2.9714,3.8653 
		5.064,6.1577 	"/>
	<path fill="none" stroke="#000000" stroke-linecap="round" stroke-linejoin="round" d="M4.5144,16.6617
		c-1.1355-2.1779-1.9953-9.0451-1.543-12.7964"/>
	<path fill="none" stroke="#000000" stroke-linecap="round" stroke-linejoin="round" d="M13.9339,12.9274l-0.513-1.4095
		c-0.2834-0.7785,0.118-1.6393,0.8965-1.9226l0,0c0.7784-0.2833,1.6392,0.1181,1.9225,0.8965l0.8551,2.3492"/>
	<path fill="none" stroke="#000000" stroke-linecap="round" stroke-linejoin="round" d="M20.0851,12.2848l-0.6841-1.8794
		c-0.2833-0.7784-1.1441-1.1798-1.9225-0.8965c-0.7785,0.2834-1.1799,1.1442-0.8965,1.9226l0.513,1.4095"/>
	<path fill="none" stroke="#000000" stroke-linecap="round" stroke-linejoin="round" d="M12.4829,17.7122L7.8656,5.0264
		C7.5823,4.2479,7.9837,3.3871,8.7621,3.1038c0.7785-0.2833,1.6393,0.1181,1.9226,0.8965l3.2492,8.9271"/>
	
		<line fill="none" stroke="#000000" stroke-linecap="round" stroke-linejoin="round" x1="20.0851" y1="12.2848" x2="20.2561" y2="12.7547"/>
	<path fill="none" stroke="#000000" stroke-linecap="round" stroke-linejoin="round" d="M14.1686,22.3843
		c-0.4946-0.334-0.9015-0.4953-0.9015-0.4953c-3.0453-1.7128-4.3619-5.7317-4.3619-5.7317
		c-0.5338-1.5672,0.7298-2.3028,1.4188-1.7946l0.9122,0.7392c0.2252,0.1825,0.3988,0.4208,0.5035,0.6911l0.7432,1.9192"/>
	<path fill="none" stroke="#000000" stroke-linecap="round" stroke-linejoin="round" d="M22.9641,19.1829
		c-0.0743-0.7805-0.0998-1.7386,0.0346-2.836c0.2816-2.2988-0.3695-4.9374-0.3695-4.9374
		c-0.2833-0.7785-0.8692-1.3306-1.6476-1.0472c-0.7785,0.2833-1.1799,1.1441-0.8965,1.9225"/>
</g>
</svg>
