<?xml version="1.0" encoding="utf-8"?>
<!-- Generator: Adobe Illustrator 18.1.0, SVG Export Plug-In . SVG Version: 6.00 Build 0)  -->
<svg version="1.1" id="Layer_1" xmlns="http://www.w3.org/2000/svg" xmlns:xlink="http://www.w3.org/1999/xlink" x="0px" y="0px"
	 width="24px" height="24px" viewBox="0 0 24 24" enable-background="new 0 0 24 24" xml:space="preserve">
<g>
	
		<line fill="none" stroke="#000000" stroke-linecap="round" stroke-linejoin="round" stroke-miterlimit="10" x1="-0.0136" y1="22.5002" x2="12.9864" y2="22.5002"/>
	<path fill="none" stroke="#000000" stroke-linecap="round" stroke-linejoin="round" stroke-miterlimit="10" d="M10.0244,11.093
		l-3.5809,2.0674c-1.22,0.7043-2.0251,0.2586-5.907-0.5806l-0.7267,0.4195l3.1509,2.1718l-0.6358,0.3671
		c-0.156,0.0901-0.0742,0.3299,0.1044,0.3063c4.6793-0.6182,6.8976-1.4949,6.8976-1.4949L19.6232,8.405
		c0,0,3.551-2.0501,2.1392-2.5659c-1.5696-0.5734-4.8117,1.2549-4.8117,1.2549l-3.9655,2.2895L6.419,7.0829L6.0213,7.3125
		l4.7069,4.3384"/>
	<polyline fill="none" stroke="#000000" stroke-linecap="round" stroke-linejoin="round" stroke-miterlimit="10" points="
		15.3045,12.4604 15.0483,14.7544 14.4403,15.2261 12.971,13.8433 	"/>
</g>
<rect x="-1.0136" y="0.0002" fill="none" width="24" height="24"/>
</svg>
