<?xml version="1.0" encoding="utf-8"?>
<!-- Generator: Adobe Illustrator 18.1.0, SVG Export Plug-In . SVG Version: 6.00 Build 0)  -->
<svg version="1.1" id="Layer_1" xmlns="http://www.w3.org/2000/svg" xmlns:xlink="http://www.w3.org/1999/xlink" x="0px" y="0px"
	 width="24px" height="24px" viewBox="0 0 24 24" enable-background="new 0 0 24 24" xml:space="preserve">
<g>
	<path fill="none" stroke="#000000" stroke-linecap="round" stroke-linejoin="round" stroke-miterlimit="10" d="M23.3985,8.5742
		c0,6.4658-5.1033,11.7073-11.3986,11.7073S0.6014,15.0399,0.6014,8.5742"/>
	<path fill="none" stroke="#000000" stroke-linecap="round" stroke-linejoin="round" stroke-miterlimit="10" d="M13.0683,8.5742
		c0,0.5942-0.469,1.0758-1.0475,1.0758s-1.0475-0.4817-1.0475-1.0758H2.6952c0,5.2781,4.166,9.5568,9.3048,9.5568
		s9.3048-4.2787,9.3048-9.5568H13.0683z"/>
	
		<line fill="none" stroke="#000000" stroke-linecap="round" stroke-linejoin="round" stroke-miterlimit="10" x1="12" y1="18.131" x2="12" y2="9.65"/>
	
		<line fill="none" stroke="#000000" stroke-linecap="round" stroke-linejoin="round" stroke-miterlimit="10" x1="18.4431" y1="15.4661" x2="12.6034" y2="9.4682"/>
	
		<line fill="none" stroke="#000000" stroke-linecap="round" stroke-linejoin="round" stroke-miterlimit="10" x1="5.5917" y1="15.4661" x2="11.4314" y2="9.4682"/>
	
		<line fill="none" stroke="#000000" stroke-linecap="round" stroke-linejoin="round" stroke-miterlimit="10" x1="8.9912" y1="10.0892" x2="8.2648" y2="10.4635"/>
	
		<line fill="none" stroke="#000000" stroke-linecap="round" stroke-linejoin="round" stroke-miterlimit="10" x1="13.1197" y1="11.7267" x2="13.5159" y2="12.6147"/>
</g>
<rect x="0" y="0.0346" fill="none" width="24" height="24"/>
</svg>
