<?xml version="1.0" encoding="utf-8"?>
<!-- Generator: Adobe Illustrator 18.1.1, SVG Export Plug-In . SVG Version: 6.00 Build 0)  -->
<svg version="1.1" id="Layer_1" xmlns="http://www.w3.org/2000/svg" xmlns:xlink="http://www.w3.org/1999/xlink" x="0px" y="0px"
	 width="24px" height="24px" viewBox="0 0 24 24" enable-background="new 0 0 24 24" xml:space="preserve">
<g>
	<path fill="none" stroke="#000000" stroke-linecap="round" stroke-linejoin="round" d="M3.5,10.1c0,1,0.2,2.5,0.5,3.4
		c-0.5,0.2-0.9,0.7-0.9,1.3c0,0.8,0.7,1.5,1.5,1.5c0,0,0,0,0,0c0.3,3.9,4.7,7.1,7.5,7.1c2.8,0,7.2-3.3,7.5-7.1c0,0,0,0,0,0
		c0.8,0,1.5-0.7,1.5-1.5c0-0.6-0.4-1.1-0.9-1.3c0.3-0.9,0.4-2.4,0.4-3.4"/>
	<path fill="none" stroke="#000000" stroke-linecap="round" stroke-linejoin="round" stroke-miterlimit="10" d="M6.2,10.8L5.9,14
		c0,0-0.8-1.1-2-0.6"/>
	<path fill="none" stroke="#000000" stroke-linecap="round" stroke-linejoin="round" stroke-miterlimit="10" d="M17.8,10.8l0.3,3.2
		c0,0,0.8-1.1,2-0.6"/>
	<path fill="none" stroke="#000000" stroke-linecap="round" stroke-linejoin="round" stroke-miterlimit="10" d="M14.8,11.2
		c1.8-0.2,3.7-0.5,5.6-1.2l-1.1-5.4c0,0-0.5-4.1-7.4-4.1c-6.4,0-7.4,4.1-7.4,4.1l-1.1,5.4c0,0,2.2,0.8,5.6,1.1"/>
	
		<circle fill="none" stroke="#000000" stroke-linecap="round" stroke-linejoin="round" stroke-miterlimit="10" cx="12" cy="8.7" r="3.7"/>
	
		<circle fill="none" stroke="#000000" stroke-linecap="round" stroke-linejoin="round" stroke-miterlimit="10" cx="12" cy="8.7" r="1.2"/>
	<path fill="none" stroke="#000000" stroke-linecap="round" stroke-linejoin="round" stroke-miterlimit="10" d="M4.7,17.2l5.7-0.8
		c1-0.1,2-0.1,3,0l5.9,0.8"/>
	<line fill="none" stroke="#000000" stroke-linecap="round" stroke-linejoin="round" x1="9.6" y1="14.5" x2="9.5" y2="14.5"/>
	<line fill="none" stroke="#000000" stroke-linecap="round" stroke-linejoin="round" x1="14.4" y1="14.5" x2="14.5" y2="14.5"/>
</g>
<rect x="0" y="0" fill="none" width="24" height="24"/>
</svg>
