<?xml version="1.0" encoding="utf-8"?>
<!-- Generator: Adobe Illustrator 18.1.1, SVG Export Plug-In . SVG Version: 6.00 Build 0)  -->
<svg version="1.1" id="Layer_1" xmlns="http://www.w3.org/2000/svg" xmlns:xlink="http://www.w3.org/1999/xlink" x="0px" y="0px"
	 width="24px" height="24px" viewBox="0 0 24 24" enable-background="new 0 0 24 24" xml:space="preserve">
<rect y="-0.2203" fill="none" width="24" height="24"/>
<g>
	<polyline fill="none" stroke="#000000" stroke-linecap="round" stroke-linejoin="round" points="10.5535,0.6347 12.5983,3.2147 
		10.0183,5.2595 	"/>
	<path fill="none" stroke="#000000" stroke-linecap="round" stroke-linejoin="round" d="M2.5066,4.1509
		c3.1207-1.3596,6.7672-1.5744,10.0917-0.9362"/>
	<path fill="none" stroke="#000000" stroke-linecap="round" stroke-linejoin="round" d="M12.5983,13.0092l6.0104-6.0104
		c0.5858-0.5858,1.5356-0.5858,2.1213,0l0,0c0.5858,0.5858,0.5858,1.5355,0,2.1213l-6.7175,6.7175"/>
	<path fill="none" stroke="#000000" stroke-linecap="round" stroke-linejoin="round" d="M15.7803,18.3125l1.4142-1.4143
		c0.5858-0.5857,0.5858-1.5355,0-2.1213s-1.5355-0.5858-2.1213,0l-1.0607,1.0607"/>
	<path fill="none" stroke="#000000" stroke-linecap="round" stroke-linejoin="round" d="M7.6486,13.7163l8.1317-8.1318
		c0.5858-0.5857,1.5355-0.5857,2.1213,0c0.5858,0.5858,0.5858,1.5356,0,2.1214l-5.3033,5.3033"/>
	<path fill="none" stroke="#000000" stroke-linecap="round" stroke-linejoin="round" d="M3.8209,18.3269
		c0.4403-1.0578,0.3737-2.1347,0.3737-2.1347c0.2653-3.4839,2.6441-8.4968,2.6441-8.4968c0.663-1.4858,2.4744-0.5849,2.226,0.5274
		L8.6732,9.791l-1.0246,3.9252"/>
	<path fill="none" stroke="#000000" stroke-linecap="round" stroke-linejoin="round" d="M11.5739,23.1662
		c0.5132-0.2527,1.1005-0.2831,1.7563-0.4964c2.2024-0.7163,4.3186-2.4215,4.3186-2.4215c0.5857-0.5858,0.8386-1.35,0.2528-1.9358
		s-1.5355-0.5858-2.1213,0"/>
	
		<line fill="none" stroke="#000000" stroke-linecap="round" stroke-linejoin="round" x1="15.7803" y1="18.3125" x2="15.4267" y2="18.666"/>
</g>
</svg>
