<?xml version="1.0" encoding="utf-8"?>
<!-- Generator: Adobe Illustrator 18.1.0, SVG Export Plug-In . SVG Version: 6.00 Build 0)  -->
<svg version="1.1" id="Layer_1" xmlns="http://www.w3.org/2000/svg" xmlns:xlink="http://www.w3.org/1999/xlink" x="0px" y="0px"
	 width="24px" height="24px" viewBox="0 0 24 24" enable-background="new 0 0 24 24" xml:space="preserve">
<g>
	<path fill="none" stroke="#000000" stroke-linecap="round" stroke-linejoin="round" stroke-miterlimit="10" d="M8.1225,5.4103
		c0,1.0522-0.853,2.5216-1.9052,2.5216S4.3121,6.4625,4.3121,5.4103S5.1651,3.505,6.2173,3.505S8.1225,4.358,8.1225,5.4103z"/>
	
		<line fill="none" stroke="#000000" stroke-linecap="round" stroke-linejoin="round" stroke-miterlimit="10" x1="0.9894" y1="21.5002" x2="22.9894" y2="21.5002"/>
	<path fill="none" stroke="#000000" stroke-linecap="round" stroke-linejoin="round" stroke-miterlimit="10" d="M7.5643,9.9355
		c-0.7965,1.1525-1.8974,1.1527-2.6941,0c-1.268,0.5313-2.165,1.7861-2.165,3.2412L2.2914,17.693
		c-0.0879,0.9591,0.6671,1.7864,1.6302,1.7864h2.8265"/>
	<path fill="none" stroke="#000000" stroke-linecap="round" stroke-linejoin="round" stroke-miterlimit="10" d="M18.9863,18.5002
		h1.5519c0.4458,0,0.9481-0.4183,0.9481-0.8655v-6.348c0-0.4471-0.5022-0.7865-0.9481-0.7865H10.3243
		c-0.4458,0-0.8381,0.3394-0.8381,0.7865v6.348c0,0.4471,0.3922,0.8655,0.8381,0.8655h1.6619"/>
	<polygon fill="none" stroke="#000000" stroke-linecap="round" stroke-linejoin="round" stroke-miterlimit="10" points="
		17.2013,21.5002 13.7745,21.5002 14.2878,16.5002 16.642,16.5002 	"/>
</g>
<rect x="-0.0137" y="0.0002" fill="none" width="24" height="24"/>
</svg>
