<?xml version="1.0" encoding="utf-8"?>
<!-- Generator: Adobe Illustrator 18.1.0, SVG Export Plug-In . SVG Version: 6.00 Build 0)  -->
<svg version="1.1" id="Layer_1" xmlns="http://www.w3.org/2000/svg" xmlns:xlink="http://www.w3.org/1999/xlink" x="0px" y="0px"
	 width="24px" height="24px" viewBox="0 0 24 24" enable-background="new 0 0 24 24" xml:space="preserve">
<g>
	<path fill="none" stroke="#000000" stroke-linecap="round" stroke-linejoin="round" d="M6.7267,6.341
		c0,2.7574,2.5496,4.7922,5.3071,4.7922C12.0338,8.3758,9.4841,6.341,6.7267,6.341z"/>
	<path fill="none" stroke="#000000" stroke-linecap="round" stroke-linejoin="round" d="M19.0219,7.4417
		c-4.0209,0-6.9881,2.7466-6.9881,5.7172C16.0547,13.1589,19.0219,10.4122,19.0219,7.4417z"/>
	<path fill="none" stroke="#000000" stroke-linecap="round" stroke-linejoin="round" d="M17.2326,1.2279
		c-2.9913,0-5.1988,2.0433-5.1988,4.2533C15.0251,5.4812,17.2326,3.4378,17.2326,1.2279z"/>
	
		<line fill="none" stroke="#000000" stroke-linecap="round" stroke-linejoin="round" x1="12.0338" y1="0.7452" x2="12.0338" y2="16.7678"/>
	
		<ellipse fill="none" stroke="#000000" stroke-linecap="round" stroke-linejoin="round" cx="12.0286" cy="17.2476" rx="4.4063" ry="1.1385"/>
	<path fill="none" stroke="#000000" stroke-linecap="round" stroke-linejoin="round" d="M7.6224,17.2476l1.7233,5.5446
		c0,0.3144,1.4662,0.5693,2.683,0.5693s2.683-0.2549,2.683-0.5693l1.7233-5.5446"/>
</g>
<rect x="0.0142" y="0.0354" fill="none" width="24" height="24"/>
</svg>
