<?xml version="1.0" encoding="utf-8"?>
<!-- Generator: Adobe Illustrator 18.1.0, SVG Export Plug-In . SVG Version: 6.00 Build 0)  -->
<svg version="1.1" id="Layer_1" xmlns="http://www.w3.org/2000/svg" xmlns:xlink="http://www.w3.org/1999/xlink" x="0px" y="0px"
	 width="24px" height="24px" viewBox="0 0 24 24" enable-background="new 0 0 24 24" xml:space="preserve">
<g>
	<path fill="none" stroke="#000000" stroke-linecap="round" stroke-linejoin="round" d="M10.8571,2.4945V1.7914
		c0-0.6397,0.5234-1.1631,1.1631-1.1631h0c0.6397,0,1.1631,0.5234,1.1631,1.1631v0.7031"/>
	<path fill="none" stroke="#000000" stroke-linecap="round" stroke-linejoin="round" d="M16.3973,17.4991l0.5123,4.3968
		c0.1083,0.6689-0.3057,1.3127-0.92,1.4306h0c-0.6143,0.1179-1.2056-0.3328-1.3139-1.0018l-0.5637-4.8257"/>
	<path fill="none" stroke="#000000" stroke-linecap="round" stroke-linejoin="round" d="M9.9637,17.4991l-0.5936,4.8257
		c-0.1083,0.6689-0.6996,1.1197-1.3139,1.0018h0c-0.6143-0.1179-1.0283-0.7617-0.92-1.4306l0.5123-4.3968"/>
	<polyline fill="none" stroke="#000000" stroke-linecap="round" stroke-linejoin="round" points="6.5293,15.4703 6.5293,2.5029 
		17.5293,2.5029 17.5293,15.4703 	"/>
	
		<rect x="4.5293" y="15.5029" fill="none" stroke="#000000" stroke-linecap="round" stroke-linejoin="round" width="15" height="2"/>
</g>
<rect x="0.0293" y="0.0001" fill="none" width="24" height="24"/>
</svg>
