<?xml version="1.0" encoding="utf-8"?>
<!-- Generator: Adobe Illustrator 18.1.0, SVG Export Plug-In . SVG Version: 6.00 Build 0)  -->
<svg version="1.1" id="Layer_1" xmlns="http://www.w3.org/2000/svg" xmlns:xlink="http://www.w3.org/1999/xlink" x="0px" y="0px"
	 width="24px" height="24px" viewBox="0 0 24 24" enable-background="new 0 0 24 24" xml:space="preserve">
<g>
	<path fill="none" stroke="#000000" stroke-linecap="round" stroke-linejoin="round" stroke-miterlimit="10" d="M18.0583,23.5101
		H4.9728c-0.786,0-1.4258-0.6473-1.4258-1.4429V1.923c0-0.7952,0.6399-1.4434,1.4258-1.4434h13.0855
		c0.7864,0,1.4263,0.6482,1.4263,1.4434v20.1442C19.4846,22.8628,18.8447,23.5101,18.0583,23.5101L18.0583,23.5101z"/>
	
		<line fill="none" stroke="#000000" stroke-linecap="round" stroke-linejoin="round" x1="6.5237" y1="12.5048" x2="10.3959" y2="12.5048"/>
	
		<line fill="none" stroke="#000000" stroke-linecap="round" stroke-linejoin="round" x1="12.5243" y1="12.5048" x2="16.3965" y2="12.5048"/>
	
		<line fill="none" stroke="#000000" stroke-linecap="round" stroke-linejoin="round" x1="12.5243" y1="18.5054" x2="16.3965" y2="18.5054"/>
	
		<line fill="none" stroke="#000000" stroke-linecap="round" stroke-linejoin="round" x1="8.4598" y1="10.5687" x2="8.4598" y2="14.441"/>
	
		<line fill="none" stroke="#000000" stroke-linecap="round" stroke-linejoin="round" x1="6.7297" y1="16.7753" x2="10.1672" y2="20.2128"/>
	
		<line fill="none" stroke="#000000" stroke-linecap="round" stroke-linejoin="round" x1="10.1786" y1="16.7867" x2="6.7411" y2="20.2242"/>
	
		<line fill="none" stroke="#000000" stroke-linecap="round" stroke-linejoin="round" x1="14.5255" y1="16.5161" x2="14.5255" y2="16.5161"/>
	
		<line fill="none" stroke="#000000" stroke-linecap="round" stroke-linejoin="round" x1="14.5255" y1="20.5165" x2="14.5255" y2="20.5165"/>
	
		<rect x="6.4912" y="3.5" fill="none" stroke="#000000" stroke-linecap="round" stroke-linejoin="round" stroke-miterlimit="10" width="10" height="4"/>
</g>
<rect x="-0.0136" y="0.0031" fill="none" width="24" height="24"/>
<rect x="-0.0136" y="0" fill="none" width="24" height="24"/>
</svg>
