<?xml version="1.0" encoding="utf-8"?>
<!-- Generator: Adobe Illustrator 18.1.0, SVG Export Plug-In . SVG Version: 6.00 Build 0)  -->
<svg version="1.1" id="Layer_1" xmlns="http://www.w3.org/2000/svg" xmlns:xlink="http://www.w3.org/1999/xlink" x="0px" y="0px"
	 width="24px" height="24px" viewBox="0 0 24 24" enable-background="new 0 0 24 24" xml:space="preserve">
<g>
	
		<line fill="none" stroke="#000000" stroke-linecap="round" stroke-linejoin="round" stroke-miterlimit="10" x1="12.0002" y1="13.3823" x2="12.0002" y2="1.5505"/>
	<polyline fill="none" stroke="#000000" stroke-linecap="round" stroke-linejoin="round" stroke-miterlimit="10" points="
		15.3099,10.0726 12.0002,13.3823 8.6904,10.0726 	"/>
	<path fill="none" stroke="#000000" stroke-linecap="round" stroke-linejoin="round" stroke-miterlimit="10" d="M8.3998,20.5597
		L7.931,23.1791c0,0.2114,0.21,0.3825,0.4688,0.3825h7.2008c0.2588,0,0.4688-0.1711,0.4688-0.3825l-0.4697-2.6194"/>
	<path fill="none" stroke="#000000" stroke-linecap="round" stroke-linejoin="round" stroke-miterlimit="10" d="M9.1705,3.4957
		h-6.972c-0.9019,0-1.633,0.7311-1.633,1.6325v11.708c0,0.9019,0.7311,1.6329,1.633,1.6329h19.6025
		c0.9028,0,1.6338-0.731,1.6338-1.6329V5.1282c0-0.9014-0.731-1.6325-1.6338-1.6325h-6.9711"/>
	
		<line fill="none" stroke="#000000" stroke-linecap="round" stroke-linejoin="round" stroke-miterlimit="10" x1="6.7061" y1="23.5616" x2="17.2942" y2="23.5616"/>
</g>
<rect x="0" y="0.0001" fill="none" width="24" height="24"/>
</svg>
