<?xml version="1.0" encoding="utf-8"?>
<!-- Generator: Adobe Illustrator 18.1.0, SVG Export Plug-In . SVG Version: 6.00 Build 0)  -->
<svg version="1.1" id="Layer_1" xmlns="http://www.w3.org/2000/svg" xmlns:xlink="http://www.w3.org/1999/xlink" x="0px" y="0px"
	 width="24px" height="24px" viewBox="0 0 24 24" enable-background="new 0 0 24 24" xml:space="preserve">
<g>
	<polyline fill="none" stroke="#000000" stroke-linecap="round" stroke-linejoin="round" stroke-miterlimit="10" points="
		1.9862,19.5002 0.4864,19.5002 0.4864,5.5002 23.4864,5.5002 23.4864,19.5002 21.9864,19.5002 	"/>
	<path fill="none" stroke="#000000" stroke-linecap="round" stroke-linejoin="round" d="M19.2529,20.5002
		c-0.0025,0-0.0046,0-0.0069,0H4.7087c-0.3443,0-0.7589-0.273-0.6788-0.6214l0.3441-2.9727
		c0.0557-0.2415,0.3426-0.4059,0.6788-0.4059h13.8491c0.3362,0,0.6231,0.158,0.6788,0.3995c0,0,0.3604,3.0262,0.3604,3.0793
		C19.9411,20.2555,19.6331,20.5002,19.2529,20.5002z"/>
	<path fill="none" stroke="#000000" stroke-linecap="round" stroke-linejoin="round" stroke-miterlimit="10" d="M17.3647,9.5406
		H6.6081c-1.0889,0-1.9717,0.8832-1.9717,1.972c0,1.0889,0.8829,1.9717,1.9717,1.9717h10.7566c1.089,0,1.9717-0.8829,1.9717-1.9717
		C19.3364,10.4238,18.4537,9.5406,17.3647,9.5406z"/>
	
		<circle fill="none" stroke="#000000" stroke-linecap="round" stroke-linejoin="round" stroke-miterlimit="10" cx="6.6082" cy="11.5125" r="1.9719"/>
	
		<circle fill="none" stroke="#000000" stroke-linecap="round" stroke-linejoin="round" stroke-miterlimit="10" cx="17.3645" cy="11.5125" r="1.9719"/>
	
		<line fill="none" stroke="#000000" stroke-linecap="round" stroke-linejoin="round" stroke-miterlimit="10" x1="6.5148" y1="18.5002" x2="6.5148" y2="18.5002"/>
	
		<line fill="none" stroke="#000000" stroke-linecap="round" stroke-linejoin="round" stroke-miterlimit="10" x1="17.5159" y1="18.5002" x2="17.5159" y2="18.5002"/>
</g>
<rect x="-0.0136" y="0.0002" fill="none" width="24" height="24"/>
</svg>
