<?xml version="1.0" encoding="utf-8"?>
<!-- Generator: Adobe Illustrator 18.1.0, SVG Export Plug-In . SVG Version: 6.00 Build 0)  -->
<svg version="1.1" id="Layer_1" xmlns="http://www.w3.org/2000/svg" xmlns:xlink="http://www.w3.org/1999/xlink" x="0px" y="0px"
	 width="24px" height="24px" viewBox="0 0 24 24" enable-background="new 0 0 24 24" xml:space="preserve">
<g>
	<path fill="none" stroke="#000000" stroke-linecap="round" stroke-linejoin="round" stroke-miterlimit="10" d="M15.2294,12.4311
		l-3.936,2.8589c-0.307,0.2248-0.7518,0.0101-0.7518-0.3834V9.1899c0-0.3846,0.4365-0.6123,0.7518-0.3838l3.936,2.8582
		C15.4892,11.8532,15.4895,12.2426,15.2294,12.4311z"/>
	<path fill="none" stroke="#000000" stroke-miterlimit="10" d="M21.4572,4.8898c-0.613-0.441-2.3205-1.0271-9.4756-1.0271
		c-7.6678,0-8.8055,0.6728-9.1705,0.8932c-1.9431,1.1672-2.1275,6.335-2.1447,7.3828c0.0236,1.3841,0.2472,5.9888,2.1433,7.1275
		c0.3645,0.2195,1.4957,0.8884,9.1721,0.8884c7.16,0,8.8656-0.5832,9.4756-1.0223c1.6559-1.1914,1.8465-5.2942,1.8513-7.0116
		C23.3045,10.7396,23.1596,6.1155,21.4572,4.8898z"/>
</g>
<rect x="-0.0137" y="0.0002" fill="none" width="24" height="24"/>
</svg>
