<?xml version="1.0" encoding="utf-8"?>
<!-- Generator: Adobe Illustrator 18.1.0, SVG Export Plug-In . SVG Version: 6.00 Build 0)  -->
<svg version="1.1" id="Layer_1" xmlns="http://www.w3.org/2000/svg" xmlns:xlink="http://www.w3.org/1999/xlink" x="0px" y="0px"
	 width="24px" height="24px" viewBox="0 0 24 24" enable-background="new 0 0 24 24" xml:space="preserve">
<g>
	<path fill="none" stroke="#000000" stroke-linecap="round" stroke-linejoin="round" d="M2.9862,21.5813"/>
	<path fill="none" stroke="#000000" stroke-linecap="round" stroke-linejoin="round" d="M5.1632,21.5813"/>
	
		<line fill="none" stroke="#000000" stroke-linecap="round" stroke-linejoin="round" x1="10.4732" y1="21.472" x2="10.4732" y2="13.5219"/>
	
		<line fill="none" stroke="#000000" stroke-linecap="round" stroke-linejoin="round" x1="8.473" y1="21.472" x2="8.473" y2="13.5219"/>
	
		<line fill="none" stroke="#000000" stroke-linecap="round" stroke-linejoin="round" x1="5.4727" y1="21.472" x2="5.4727" y2="13.5219"/>
	
		<line fill="none" stroke="#000000" stroke-linecap="round" stroke-linejoin="round" x1="3.4725" y1="21.472" x2="3.4725" y2="13.5219"/>
	
		<line fill="none" stroke="#000000" stroke-linecap="round" stroke-linejoin="round" x1="15.4737" y1="21.472" x2="15.4737" y2="13.5219"/>
	
		<line fill="none" stroke="#000000" stroke-linecap="round" stroke-linejoin="round" x1="13.4735" y1="21.472" x2="13.4735" y2="13.5219"/>
	
		<line fill="none" stroke="#000000" stroke-linecap="round" stroke-linejoin="round" x1="20.4742" y1="21.472" x2="20.4742" y2="13.5219"/>
	
		<line fill="none" stroke="#000000" stroke-linecap="round" stroke-linejoin="round" x1="18.474" y1="21.472" x2="18.474" y2="13.5219"/>
	
		<line fill="none" stroke="#000000" stroke-linecap="round" stroke-linejoin="round" x1="23.3588" y1="23.5013" x2="0.6127" y2="23.5013"/>
	
		<line fill="none" stroke="#000000" stroke-linecap="round" stroke-linejoin="round" x1="23.3588" y1="11.5001" x2="0.6127" y2="11.5001"/>
	<path fill="none" stroke="#000000" stroke-linecap="round" stroke-linejoin="round" d="M7.6111,9.4324
		c0-2.2287,1.9588-4.0353,4.3747-4.0353c2.4158,0,4.3747,1.8066,4.3747,4.0353"/>
	<polyline fill="none" stroke="#000000" stroke-linecap="round" stroke-linejoin="round" points="11.9858,5.3971 11.9858,0.5059 
		14.7899,0.5059 	"/>
</g>
<rect x="-0.0131" y="-0.0011" fill="none" width="24" height="24"/>
</svg>
