<?xml version="1.0" encoding="utf-8"?>
<!-- Generator: Adobe Illustrator 18.1.0, SVG Export Plug-In . SVG Version: 6.00 Build 0)  -->
<svg version="1.1" id="Layer_1" xmlns="http://www.w3.org/2000/svg" xmlns:xlink="http://www.w3.org/1999/xlink" x="0px" y="0px"
	 width="24px" height="24px" viewBox="0 0 24 24" enable-background="new 0 0 24 24" xml:space="preserve">
<g>
	<polygon fill="none" stroke="#000000" stroke-linecap="round" stroke-linejoin="round" stroke-miterlimit="10" points="
		19.3871,23.5386 4.6132,23.5386 3.2356,4.5305 20.7646,4.5305 	"/>
	
		<line fill="none" stroke="#000000" stroke-linecap="round" stroke-linejoin="round" stroke-miterlimit="10" x1="1.1897" y1="4.5305" x2="22.8106" y2="4.5305"/>
	<polygon fill="none" stroke="#000000" stroke-linecap="round" stroke-linejoin="round" stroke-miterlimit="10" points="
		14.2358,1.4921 9.7645,1.4921 8.7727,4.5305 15.2276,4.5305 	"/>
	<path fill="none" stroke="#000000" stroke-linecap="round" stroke-linejoin="round" stroke-miterlimit="10" d="M9.927,17.7459
		c1.6608,0.9164,3.7865,0.6698,5.1934-0.7458c1.4069-1.4156,1.6521-3.5544,0.7413-5.2254"/>
	<path fill="none" stroke="#000000" stroke-linecap="round" stroke-linejoin="round" stroke-miterlimit="10" d="M14.1285,10.0307
		c-1.6608-0.9165-3.7865-0.6698-5.1935,0.7458c-1.4069,1.4156-1.652,3.5544-0.7412,5.2254"/>
	<polyline fill="none" stroke="#000000" stroke-linecap="round" stroke-linejoin="round" stroke-miterlimit="10" points="
		13.2157,7.8971 14.1434,10.0157 12.0377,10.9491 	"/>
	<polyline fill="none" stroke="#000000" stroke-linecap="round" stroke-linejoin="round" stroke-miterlimit="10" points="
		10.8547,19.8645 9.927,17.7459 12.0327,16.8125 	"/>
</g>
<rect x="0" y="0" fill="none" width="24" height="24"/>
</svg>
