<?xml version="1.0" encoding="utf-8"?>
<!-- Generator: Adobe Illustrator 18.1.0, SVG Export Plug-In . SVG Version: 6.00 Build 0)  -->
<svg version="1.1" id="Layer_1" xmlns="http://www.w3.org/2000/svg" xmlns:xlink="http://www.w3.org/1999/xlink" x="0px" y="0px"
	 width="24px" height="24px" viewBox="0 0 24 24" enable-background="new 0 0 24 24" xml:space="preserve">
<g>
	<path fill="none" stroke="#000000" stroke-linecap="round" stroke-linejoin="round" d="M13.8049,6.0053l1.5222,17.4947H5.5575
		L7.2747,3.7492c0.1518-1.7462,1.5246-3.0816,3.1677-3.0816h0c1.6431,0,3.0159,1.3355,3.1677,3.0816l0.0254,0.2702"/>
	<path fill="none" stroke="#000000" stroke-linecap="round" stroke-linejoin="round" d="M22.2518,2.8735L11.1986,4.34v1.3031
		l11.0532,1.4666c0.548,0,0.9923-0.9484,0.9923-2.1182C23.2441,3.8218,22.7999,2.8735,22.2518,2.8735z"/>
	
		<line fill="none" stroke="#000000" stroke-linecap="round" stroke-linejoin="round" x1="4.9863" y1="8.5001" x2="15.9863" y2="8.5001"/>
	
		<line fill="none" stroke="#000000" stroke-linecap="round" stroke-linejoin="round" x1="14.0672" y1="9.0084" x2="6.55" y2="12.0838"/>
	
		<line fill="none" stroke="#000000" stroke-linecap="round" stroke-linejoin="round" x1="14.5359" y1="14.3994" x2="6.0413" y2="17.9354"/>
	
		<line fill="none" stroke="#000000" stroke-linecap="round" stroke-linejoin="round" x1="15.0046" y1="19.7904" x2="6.15" y2="23.4763"/>
	
		<line fill="none" stroke="#000000" stroke-linecap="round" stroke-linejoin="round" x1="15.3272" y1="23.5001" x2="20.3436" y2="23.5001"/>
	
		<line fill="none" stroke="#000000" stroke-linecap="round" stroke-linejoin="round" x1="0.541" y1="23.5001" x2="5.5575" y2="23.5001"/>
</g>
<rect x="-0.0137" y="0.0001" fill="none" width="24" height="24"/>
</svg>
