<?xml version="1.0" encoding="utf-8"?>
<!-- Generator: Adobe Illustrator 18.1.0, SVG Export Plug-In . SVG Version: 6.00 Build 0)  -->
<svg version="1.1" id="Layer_1" xmlns="http://www.w3.org/2000/svg" xmlns:xlink="http://www.w3.org/1999/xlink" x="0px" y="0px"
	 width="24px" height="24px" viewBox="0 0 24 24" enable-background="new 0 0 24 24" xml:space="preserve">
<g>
	
		<line fill="none" stroke="#000000" stroke-linecap="round" stroke-linejoin="round" stroke-miterlimit="10" x1="11.9992" y1="23.2611" x2="11.9992" y2="8.0761"/>
	
		<line fill="none" stroke="#000000" stroke-linecap="round" stroke-linejoin="round" stroke-miterlimit="10" x1="11.9992" y1="9.8865" x2="14.6236" y2="7.5521"/>
	
		<line fill="none" stroke="#000000" stroke-linecap="round" stroke-linejoin="round" stroke-miterlimit="10" x1="11.9992" y1="13.4318" x2="14.4487" y2="11.253"/>
	
		<line fill="none" stroke="#000000" stroke-linecap="round" stroke-linejoin="round" stroke-miterlimit="10" x1="11.9992" y1="16.9772" x2="14.2411" y2="14.983"/>
	
		<line fill="none" stroke="#000000" stroke-linecap="round" stroke-linejoin="round" stroke-miterlimit="10" x1="11.9992" y1="9.8865" x2="9.3748" y2="7.5521"/>
	
		<line fill="none" stroke="#000000" stroke-linecap="round" stroke-linejoin="round" stroke-miterlimit="10" x1="11.9992" y1="13.4318" x2="9.5497" y2="11.253"/>
	
		<line fill="none" stroke="#000000" stroke-linecap="round" stroke-linejoin="round" stroke-miterlimit="10" x1="11.9992" y1="16.9772" x2="9.7573" y2="14.983"/>
	<path fill="none" stroke="#000000" stroke-linecap="round" stroke-linejoin="round" stroke-miterlimit="10" d="M18.2146,12.004
		c-1.0132-1.0421-1.752-2.9122-0.1754-4.5859c1.5765-1.6739-0.3511-2.7059-2.1709-2.1437c-1.4668,0.4531-2.0815-1.8669-2.2648-2.784
		c-0.1542-0.7716-0.8313-1.6784-1.6043-1.6532c-0.773-0.0252-1.4501,0.8816-1.6043,1.6532c-0.1833,0.917-0.798,3.2371-2.2648,2.784
		C6.3103,4.7122,4.3827,5.7441,5.9592,7.418c1.5765,1.6738,0.8378,3.5438-0.1754,4.5859c-1.0132,1.0421-0.2462,2.0505,0.4353,2.3267
		c0.6815,0.2764,2.0335,0.4884,1.17,1.9131c-0.8635,1.4248,0.7176,1.8198,1.4829,1.9198c0.8522,0.1114,3.1272,1.6626,3.1272,1.6626
		s2.3583-1.5921,3.1272-1.6626c0.7689-0.0705,2.3464-0.495,1.4829-1.9198c-0.8635-1.4248,0.4885-1.6368,1.17-1.9131
		C18.4608,14.0545,19.2278,13.0461,18.2146,12.004z"/>
</g>
<rect x="-0.0008" y="-0.0147" fill="none" width="24" height="24"/>
</svg>
