<?xml version="1.0" encoding="utf-8"?>
<!-- Generator: Adobe Illustrator 18.1.0, SVG Export Plug-In . SVG Version: 6.00 Build 0)  -->
<svg version="1.1" id="Layer_1" xmlns="http://www.w3.org/2000/svg" xmlns:xlink="http://www.w3.org/1999/xlink" x="0px" y="0px"
	 width="24px" height="24px" viewBox="0 0 24 24" enable-background="new 0 0 24 24" xml:space="preserve">
<g>
	
		<line fill="none" stroke="#000000" stroke-linecap="round" stroke-linejoin="round" stroke-miterlimit="10" x1="14.8024" y1="14.5" x2="1" y2="14.5"/>
	<polyline fill="none" stroke="#000000" stroke-linecap="round" stroke-linejoin="round" stroke-miterlimit="10" points="1,3.5 
		23.5,3.5 23.5,14.5 17.079,14.5 	"/>
	<path fill="none" stroke="#000000" stroke-linecap="round" stroke-linejoin="round" d="M20.0835,19.7099l-1.4193-1.8731
		l1.2745-0.2515c0.1932-0.0381,0.2613-0.281,0.1139-0.4141l-5.1576-4.633c-0.1676-0.1516-0.4362-0.0045-0.3966,0.2198l1.1779,6.7517
		c0.0324,0.1911,0.2694,0.265,0.4059,0.1284l1.02-1.0217l1.274,2.2378c0.0709,0.1234,0.2292,0.157,0.3427,0.0802l1.3073-0.8807
		C20.141,19.9767,20.1664,19.819,20.0835,19.7099z"/>
	<path fill="none" stroke="#000000" stroke-linecap="round" stroke-linejoin="round" d="M17.2449,10.3968
		c0.1164,0.1603,0.3575,0.1616,0.475,0l1.9609-2.4207c0.1269-0.1737,0.0233-0.4657-0.2375-0.4657l-3.9219,0.0002
		c-0.1013,0-0.2027,0.0682-0.2102,0.0899c-0.1022,0.1034-0.1097,0.2635-0.0272,0.3758L17.2449,10.3968z"/>
	
		<line fill="none" stroke="#000000" stroke-linecap="round" stroke-linejoin="round" stroke-miterlimit="10" x1="11.4988" y1="14.3918" x2="11.4988" y2="3.5"/>
</g>
<rect x="0" y="0" fill="none" width="24" height="24"/>
</svg>
