<?xml version="1.0" encoding="utf-8"?>
<!-- Generator: Adobe Illustrator 18.1.0, SVG Export Plug-In . SVG Version: 6.00 Build 0)  -->
<svg version="1.1" id="Layer_1" xmlns="http://www.w3.org/2000/svg" xmlns:xlink="http://www.w3.org/1999/xlink" x="0px" y="0px"
	 width="24px" height="24px" viewBox="0 0 24 24" enable-background="new 0 0 24 24" xml:space="preserve">
<g>
	<path fill="none" stroke="#000000" stroke-linecap="round" stroke-linejoin="round" d="M6.4519,14.2556v6.924l17.051-5.2629V8.9921
		C9.6862,13.1889,13.4248,12.0315,6.4519,14.2556z"/>
	<path fill="none" stroke="#000000" stroke-linecap="round" stroke-linejoin="round" d="M6.4518,14.2556
		c-1.6764,0-3.4541-0.6899-4.4852-1.7779"/>
	<path fill="none" stroke="#000000" stroke-linecap="round" stroke-linejoin="round" d="M1.9666,12.4777
		c-0.8803-0.9286-1.4192-2.1469-1.4192-3.4856v6.9241c0,2.9067,2.7963,5.2631,5.9044,5.2631"/>
	<path fill="none" stroke="#000000" stroke-linecap="round" stroke-linejoin="round" d="M6.4518,14.2556
		c-1.6764,0-3.4541-0.6899-4.4852-1.7779c-0.8803-0.9286-1.4192-2.1469-1.4192-3.4856v6.9241c0,2.9067,2.7963,5.2631,5.9044,5.2631"
		/>
	<path fill="none" stroke="#000000" stroke-linecap="round" stroke-linejoin="round" d="M0.5671,8.6323
		c-0.0089,0.119-0.0195,0.2379-0.0195,0.36c0,1.3383,0.5388,2.5567,1.4192,3.4854c1.0307,1.088,2.8083,1.7777,4.4852,1.7777
		l17.051-5.2631"/>
	<path fill="none" stroke="#000000" stroke-linecap="round" stroke-linejoin="round" d="M5.476,3.8719
		C2.8165,4.1598,0.7508,6.1145,0.5671,8.6323c-0.0089,0.119-0.0195,0.2379-0.0195,0.36c0,1.3383,0.5388,2.5567,1.4192,3.4854
		c1.0307,1.088,2.8083,1.7777,4.4852,1.7777l17.051-5.2633L8.5901,4.5524"/>
	
		<line fill="none" stroke="#000000" stroke-linecap="round" stroke-linejoin="round" x1="6.5014" y1="17.6168" x2="23.4699" y2="12.3435"/>
	<path fill="none" stroke="#000000" stroke-linecap="round" stroke-linejoin="round" d="M23.4534,11.7974"/>
	<path fill="none" stroke="#000000" stroke-linecap="round" stroke-linejoin="round" d="M4.606,6.4798
		c0,0-1.1147,0.0756-1.203,1.3459C3.2621,9.85,6.5441,10.3569,8.5217,9.205C9.3654,8.7135,9.7645,8.0903,9.4269,7.05
		C9.232,6.4493,8.8043,5.911,7.8806,6.0584"/>
	<path fill="none" stroke="#000000" stroke-linecap="round" stroke-linejoin="round" d="M5.5954,7.0401
		c0,0-2.5291-0.65-0.5155-2.7329c0.8884-0.9189,1.1441-1.5052,1.1999-1.8392c0.0256-0.1533,0.1683-0.2312,0.2818-0.1518
		c0.9309,0.6519,3.4882,2.6836,1.0957,3.8608"/>
</g>
<rect x="0.0142" y="0.0346" fill="none" width="24" height="24"/>
</svg>
