<?xml version="1.0" encoding="utf-8"?>
<!-- Generator: Adobe Illustrator 18.1.0, SVG Export Plug-In . SVG Version: 6.00 Build 0)  -->
<svg version="1.1" id="Layer_1" xmlns="http://www.w3.org/2000/svg" xmlns:xlink="http://www.w3.org/1999/xlink" x="0px" y="0px"
	 width="24px" height="24px" viewBox="0 0 24 24" enable-background="new 0 0 24 24" xml:space="preserve">
<g>
	<path fill="none" stroke="#000000" stroke-linecap="round" stroke-linejoin="round" stroke-miterlimit="10" d="M19.9942,3.9614
		c4.414,4.414,4.414,11.5954,0,16.0094S8.3982,24.3854,3.9842,19.9714s-4.4133-11.596,0.0007-16.01S15.5802-0.4526,19.9942,3.9614z"
		/>
	
		<line fill="none" stroke="#000000" stroke-linecap="round" stroke-linejoin="round" stroke-miterlimit="10" x1="19.9943" y1="19.9708" x2="3.9849" y2="3.9614"/>
	<path fill="none" stroke="#000000" stroke-linecap="round" stroke-linejoin="round" stroke-miterlimit="10" d="M18.445,10.5509
		H6.448V9.5256c0-0.5662,0.5116-1.0253,1.1426-1.0253h10.2832c0.3155,0,0.5713,0.2295,0.5713,0.5126V10.5509z"/>
	<path fill="none" stroke="#000000" stroke-linecap="round" stroke-linejoin="round" stroke-miterlimit="10" d="M11.7294,12.2465
		c0,0-0.1247,0.8134,0.0523,1.0515"/>
	
		<line fill="none" stroke="#000000" stroke-linecap="round" stroke-linejoin="round" stroke-miterlimit="10" x1="17.88" y1="8.5005" x2="17.88" y2="7.9531"/>
	<path fill="none" stroke="#000000" stroke-linecap="round" stroke-linejoin="round" stroke-miterlimit="10" d="M7.0576,11.6345
		c0,0,0.313,1.0036,0.0417,1.5785c0,0-1.3769,2.9241-1.3807,3.7451c-0.0024,0.523,0.4184,0.5968,0.4184,0.5968
		c0.0549,0.0056,2.9629-0.0242,2.9629-0.0242c-0.3374-0.0961-0.0126-1.2362,0.3248-1.14c-0.3374-0.0961-0.0126-1.2362,0.3248-1.14
		c-0.3374-0.0961-0.0126-1.2362,0.3248-1.14l0.6655-1.8314l6.5938-0.2228v-0.4218"/>
	<path fill="none" stroke="#000000" stroke-linecap="round" stroke-linejoin="round" stroke-miterlimit="10" d="M13.5973,12.1889
		v1.1083c0,0.4758-0.398,0.8549-0.8733,0.8318l-2.6497-0.0185"/>
</g>
<rect x="-0.0136" y="0.0002" fill="none" width="24" height="24"/>
</svg>
