<?xml version="1.0" encoding="utf-8"?>
<!-- Generator: Adobe Illustrator 18.1.0, SVG Export Plug-In . SVG Version: 6.00 Build 0)  -->
<svg version="1.1" id="Layer_1" xmlns="http://www.w3.org/2000/svg" xmlns:xlink="http://www.w3.org/1999/xlink" x="0px" y="0px"
	 width="24px" height="24px" viewBox="0 0 24 24" enable-background="new 0 0 24 24" xml:space="preserve">
<g>
	<path fill="none" stroke="#000000" stroke-linecap="round" stroke-linejoin="round" stroke-miterlimit="10" d="M20.3975,9.8893
		c0.0218-4.2639-5.4907-5.8311-7.785-2.3743c-1.999-3.0292-6.5518-2.68-8.0575,0.6378C4.5512,8.1535,4.5474,8.1538,4.5437,8.1545
		c-2.6294,0.5363-4.3262,3.1024-3.7899,5.7316c0.5059,2.4807,2.8187,4.1292,5.2866,3.8575
		c1.3447,1.7616,3.8637,2.3261,5.8731,1.0251c2.6285,5.0032,10.3373,2.5352,9.4711-3.1178
		C24.4931,14.5302,23.6932,9.9108,20.3975,9.8893z"/>
	<path fill="none" stroke="#000000" stroke-linecap="round" stroke-linejoin="round" d="M9.2381,11.05
		c-0.4144-0.4068-0.9761-0.6572-1.5951-0.6572c-1.2744,0-2.3075,1.059-2.3075,2.3654c0,1.3064,1.0331,2.3654,2.3075,2.3654
		c0.6435,0,1.2252-0.2703,1.6437-0.7058"/>
	
		<ellipse fill="none" stroke="#000000" stroke-linecap="round" stroke-linejoin="round" cx="12.8921" cy="12.7622" rx="2.2157" ry="2.3694"/>
	<path fill="none" stroke="#000000" stroke-linecap="round" stroke-linejoin="round" stroke-miterlimit="10" d="M18.3079,16.6318
		h-1.9155l1.3938-1.3205c1.2808-1.1929-0.4571-2.4072-1.3042-1.0596"/>
</g>
<rect x="0.0005" y="0" fill="none" width="24" height="24"/>
</svg>
