<?xml version="1.0" encoding="utf-8"?>
<!-- Generator: Adobe Illustrator 18.1.0, SVG Export Plug-In . SVG Version: 6.00 Build 0)  -->
<svg version="1.1" id="Layer_1" xmlns="http://www.w3.org/2000/svg" xmlns:xlink="http://www.w3.org/1999/xlink" x="0px" y="0px"
	 width="24px" height="24px" viewBox="0 0 24 24" enable-background="new 0 0 24 24" xml:space="preserve">
<g>
	<path fill="none" stroke="#000000" stroke-linecap="round" stroke-linejoin="round" stroke-miterlimit="10" d="M23.2394,7.0191
		l-6.2625-6.2588c-0.1505-0.1505-0.354-0.2348-0.5661-0.2348H7.557c-0.2121,0-0.4161,0.0843-0.5661,0.2348L0.731,7.0196
		c-0.1505,0.15-0.2348,0.354-0.2348,0.5661v8.8552c0,0.2122,0.0843,0.4161,0.2344,0.5662l6.2602,6.2611
		c0.15,0.1505,0.354,0.2348,0.5661,0.2348h8.8538c0.2126,0,0.4156-0.0843,0.5661-0.2348l6.2634-6.2607
		c0.1495-0.1505,0.2339-0.3544,0.2339-0.5666V7.5857C23.4742,7.3736,23.3899,7.1696,23.2394,7.0191z"/>
	<path fill-rule="evenodd" clip-rule="evenodd" fill="none" stroke="#000000" stroke-linecap="round" stroke-linejoin="round" d="
		M11.8276,5.0935c0.3513-0.6034,1.26-0.4756,1.4314,0.2013c0.4149,1.6389,0.0726,4.0346,0.5145,5.647
		c1.0541-0.548,1.1035-6.1465,2.9392-4.7725c0.2442,0.1828,0.3811,0.4772,0.363,0.7816c-0.1159,1.9466-1.0176,3.1075-1.2398,4.9479
		c0.8455-0.1413,1.2599-1.9869,1.9872-2.8312c0.5064-0.5878,1.4724-0.1871,1.4149,0.5866
		c-0.1315,1.7706-1.3785,2.7811-1.9289,4.2339c-0.5225,1.3795-0.2123,2.9812-1.1049,4.1243
		c-1.2196,1.5618-3.9698,2.4114-6.187,1.0313c-1.0428-0.6494-2.0129-2.2322-3.0198-3.3148c-0.3506-0.3764-0.831-0.5926-1.1049-0.884
		c-0.392-0.4169-1.9478-2.2722-0.6631-2.6517c1.7099-0.5043,2.3704,1.8306,3.3883,2.1362c2.5946-1.8874-1.2248-5.849-0.8103-7.9547
		c0.0704-0.3576,0.431-0.7097,0.7365-0.7367c1.3427-0.1192,1.7441,2.991,2.799,4.9349C11.9685,9.5468,11.1576,6.2444,11.8276,5.0935
		z"/>
</g>
<rect x="-0.0137" y="0.0002" fill="none" width="24" height="24"/>
</svg>
