<?xml version="1.0" encoding="utf-8"?>
<!-- Generator: Adobe Illustrator 18.1.0, SVG Export Plug-In . SVG Version: 6.00 Build 0)  -->
<svg version="1.1" id="Layer_1" xmlns="http://www.w3.org/2000/svg" xmlns:xlink="http://www.w3.org/1999/xlink" x="0px" y="0px"
	 width="24px" height="24px" viewBox="0 0 24 24" enable-background="new 0 0 24 24" xml:space="preserve">
<g>
	<path fill="none" stroke="#000000" stroke-linecap="round" stroke-linejoin="round" stroke-miterlimit="10" d="M5.2713,3.9179
		c-0.6555-1.8654-0.4997-1.8081-1.1349,0C2.1345,3.9585,2.2489,3.8364,3.7849,4.9888c-0.577,1.8868-0.674,1.7575,0.9189,0.6607
		C6.2959,6.7456,6.2,6.876,5.6225,4.9888C7.2162,3.7932,7.2024,3.957,5.2713,3.9179z"/>
	<path fill="none" stroke="#000000" stroke-linecap="round" stroke-linejoin="round" stroke-miterlimit="10" d="M5.2713,10.9186
		c-0.6555-1.8654-0.4997-1.8081-1.1349,0c-2.0019,0.0405-1.8875-0.0816-0.3515,1.0708c-0.5794,1.8945-0.6663,1.7522,0.9189,0.6607
		c1.5921,1.0962,1.4962,1.2265,0.9187-0.6607C7.2162,10.7939,7.2024,10.9577,5.2713,10.9186z"/>
	<path fill="none" stroke="#000000" stroke-linecap="round" stroke-linejoin="round" stroke-miterlimit="10" d="M5.2713,17.9193
		c-0.6535-1.8597-0.4968-1.8162-1.1349,0c-2.0019,0.0405-1.8875-0.0816-0.3515,1.0708c-0.5794,1.8945-0.6663,1.7522,0.9189,0.6607
		C6.2959,20.747,6.2,20.8774,5.6225,18.9902C7.2122,17.7976,7.2085,17.9586,5.2713,17.9193z"/>
	
		<line fill="none" stroke="#000000" stroke-linecap="round" stroke-linejoin="round" x1="9.5046" y1="18.5" x2="21.4361" y2="18.5"/>
	
		<line fill="none" stroke="#000000" stroke-linecap="round" stroke-linejoin="round" x1="9.5046" y1="11.5" x2="21.4361" y2="11.5"/>
	<line fill="none" stroke="#000000" stroke-linecap="round" stroke-linejoin="round" x1="9.5046" y1="4.5" x2="21.4361" y2="4.5"/>
</g>
<rect x="0.0001" y="0" fill="none" width="24" height="24"/>
</svg>
