<?xml version="1.0" encoding="utf-8"?>
<!-- Generator: Adobe Illustrator 18.1.0, SVG Export Plug-In . SVG Version: 6.00 Build 0)  -->
<svg version="1.1" id="Layer_1" xmlns="http://www.w3.org/2000/svg" xmlns:xlink="http://www.w3.org/1999/xlink" x="0px" y="0px"
	 width="24px" height="24px" viewBox="0 0 24 24" enable-background="new 0 0 24 24" xml:space="preserve">
<g>
	<path fill="none" stroke="#000000" stroke-linecap="round" stroke-linejoin="round" d="M14.5,2.5031
		c0-1.1167-0.9141-2.0313-2.0317-2.0313h-8.936c-1.1176,0-2.0317,0.9146-2.0317,2.0313v18.9727c0,1.1173,0.9141,2.031,2.0317,2.031
		h8.936c1.1176,0,2.0317-0.9137,2.0317-2.031V15.477"/>
	<circle fill="none" stroke="#000000" stroke-linecap="round" stroke-linejoin="round" cx="8.0003" cy="21.0278" r="0.8533"/>
	<polyline fill="none" stroke="#000000" stroke-linecap="round" stroke-linejoin="round" points="14.5092,18.498 1.5092,18.498 
		1.5092,3.498 10.6615,3.498 	"/>
	<path fill="none" stroke="#000000" stroke-linecap="round" stroke-linejoin="round" d="M12.5048,13.2367
		c-2-0.4473-3.9759-2.6774-3.9759-5.327c0-2.973,2.2858-5.4117,5.0047-5.4117h4.9828c2.719,0,4.9233,2.5271,4.9233,5.5001
		c0,2.9728-2.2043,5.4999-4.9233,5.4999h-1.5695l-4.4421,3.5926V13.2367z"/>
	<path fill="none" stroke="#000000" stroke-linecap="round" stroke-linejoin="round" stroke-miterlimit="10" d="M11.2223,9.1887
		c0.243,0.1941,0.6177,0.3399,0.8882,0.3399c0.4328,0,0.7836-0.2815,0.7836-0.6288s-0.3746-0.5191-0.7836-0.6288
		c-0.4239-0.1219-0.7836-0.2815-0.7836-0.6288c0-0.3473,0.3508-0.6288,0.7836-0.6288c0.2914,0,0.5457,0.1276,0.6807,0.317"/>
	<path fill="none" stroke="#000000" stroke-linecap="round" stroke-linejoin="round" stroke-miterlimit="10" d="M19.578,9.1887
		c0.243,0.1941,0.6177,0.3399,0.8882,0.3399c0.4328,0,0.7836-0.2815,0.7836-0.6288s-0.3746-0.5191-0.7836-0.6288
		c-0.4239-0.1219-0.7836-0.2815-0.7836-0.6288c0-0.3473,0.3508-0.6288,0.7836-0.6288c0.2914,0,0.5457,0.1276,0.6807,0.317"/>
	
		<line fill="none" stroke="#000000" stroke-linecap="round" stroke-linejoin="round" stroke-miterlimit="10" x1="14.3405" y1="9.5286" x2="14.3405" y2="7.015"/>
	<path fill="none" stroke="#000000" stroke-linecap="round" stroke-linejoin="round" stroke-miterlimit="10" d="M16.2932,9.5286
		V8.013c0,0,0.0346-0.9981-0.8813-0.9981s-1.0714,0.9796-1.0714,0.9796"/>
	<path fill="none" stroke="#000000" stroke-linecap="round" stroke-linejoin="round" stroke-miterlimit="10" d="M18.2461,9.5286
		V8.013c0,0,0.0346-0.9981-0.8813-0.9981s-1.0714,0.9796-1.0714,0.9796"/>
</g>
<rect x="0" y="-0.002" fill="none" width="24" height="24"/>
</svg>
