<?xml version="1.0" encoding="utf-8"?>
<!-- Generator: Adobe Illustrator 18.1.0, SVG Export Plug-In . SVG Version: 6.00 Build 0)  -->
<svg version="1.1" id="Layer_1" xmlns="http://www.w3.org/2000/svg" xmlns:xlink="http://www.w3.org/1999/xlink" x="0px" y="0px"
	 width="24px" height="24px" viewBox="0 0 24 24" enable-background="new 0 0 24 24" xml:space="preserve">
<g>
	<circle fill="none" stroke="#000000" stroke-linecap="round" stroke-linejoin="round" cx="8.5931" cy="2.0363" r="1.2921"/>
	
		<rect x="1.5838" y="9.797" transform="matrix(0.9661 -0.2582 0.2582 0.9661 -3.4299 3.6074)" fill="none" stroke="#000000" stroke-linecap="round" stroke-linejoin="round" stroke-miterlimit="10" width="20.8747" height="10.1334"/>
	
		<line fill="none" stroke="#000000" stroke-linecap="round" stroke-linejoin="round" x1="8.0911" y1="3.2264" x2="4.5527" y2="11.6149"/>
	
		<line fill="none" stroke="#000000" stroke-linecap="round" stroke-linejoin="round" x1="9.6221" y1="2.8171" x2="16.8733" y2="8.3225"/>
	<polyline fill="none" stroke="#000000" stroke-linecap="round" stroke-linejoin="round" points="15.9241,11.9244 18.0376,11.3524 
		17.2221,15.4403 	"/>
	<path fill="none" stroke="#000000" stroke-linecap="round" stroke-linejoin="round" stroke-miterlimit="10" d="M8.5402,17.8459
		l-2.4285,0.6572l1.314-2.1523c0,0,0.7884-1.267-0.1682-1.851c-0.9566-0.584-1.7193,0.5318-1.8488,0.955"/>
	<polyline fill="none" stroke="#000000" stroke-linecap="round" stroke-linejoin="round" stroke-miterlimit="10" points="
		11.8101,16.9609 10.7978,13.2201 9.3076,16.6068 12.2218,15.8181 	"/>
	
		<line fill="none" stroke="#000000" stroke-linecap="round" stroke-linejoin="round" stroke-miterlimit="10" x1="14.5378" y1="11.6786" x2="13.3239" y2="17.329"/>
</g>
<rect x="-0.0137" y="0" fill="none" width="24" height="24"/>
</svg>
