<?xml version="1.0" encoding="utf-8"?>
<!-- Generator: Adobe Illustrator 18.1.0, SVG Export Plug-In . SVG Version: 6.00 Build 0)  -->
<svg version="1.1" id="Layer_1" xmlns="http://www.w3.org/2000/svg" xmlns:xlink="http://www.w3.org/1999/xlink" x="0px" y="0px"
	 width="24px" height="24px" viewBox="0 0 24 24" enable-background="new 0 0 24 24" xml:space="preserve">
<g>
	<path fill="none" stroke="#000000" stroke-linecap="round" stroke-linejoin="round" stroke-miterlimit="10" d="M17.1563,18.5059
		h4.5877c0.3855,0,0.7055,0.3346,0.7055,0.72v3.6037c0,0.3855-0.32,0.6752-0.7055,0.6752h-4.5877
		c-0.3836,0-0.7068-0.2897-0.7068-0.6752v-3.6037C16.4495,18.8405,16.7727,18.5059,17.1563,18.5059z"/>
	<path fill="none" stroke="#000000" stroke-linecap="round" stroke-linejoin="round" stroke-miterlimit="10" d="M9.1555,12.5053
		h4.5877c0.3855,0,0.7055,0.3346,0.7055,0.72v9.6043c0,0.3855-0.32,0.6752-0.7055,0.6752H9.1555
		c-0.3836,0-0.7068-0.2897-0.7068-0.6752v-9.6043C8.4487,12.8399,8.7719,12.5053,9.1555,12.5053z"/>
	<path fill="none" stroke="#000000" stroke-linecap="round" stroke-linejoin="round" stroke-miterlimit="10" d="M1.1547,2.5043
		h4.5877c0.3855,0,0.7055,0.3346,0.7055,0.72v19.6053c0,0.3855-0.32,0.6752-0.7055,0.6752H1.1547
		c-0.3836,0-0.7068-0.2897-0.7068-0.6752V3.2243C0.4479,2.8389,0.7711,2.5043,1.1547,2.5043z"/>
	
		<line fill="none" stroke="#000000" stroke-linecap="round" stroke-linejoin="round" stroke-miterlimit="10" x1="21.3676" y1="12.4613" x2="12.4063" y2="3.5"/>
	<polyline fill="none" stroke="#000000" stroke-linecap="round" stroke-linejoin="round" stroke-miterlimit="10" points="
		16.9494,12.474 21.4494,12.474 21.4494,7.974 	"/>
</g>
<rect x="-0.0137" fill="none" width="24" height="24"/>
</svg>
