<?xml version="1.0" encoding="utf-8"?>
<!-- Generator: Adobe Illustrator 18.1.0, SVG Export Plug-In . SVG Version: 6.00 Build 0)  -->
<svg version="1.1" id="Layer_1" xmlns="http://www.w3.org/2000/svg" xmlns:xlink="http://www.w3.org/1999/xlink" x="0px" y="0px"
	 width="24px" height="24px" viewBox="0 0 24 24" enable-background="new 0 0 24 24" xml:space="preserve">
<g>
	<path fill="none" stroke="#000000" stroke-linecap="round" stroke-linejoin="round" stroke-miterlimit="10" d="M23.1819,5.1142
		c0.1198-0.121,0.1895-0.2852,0.1894-0.4576c0-0.1715-0.0699-0.3358-0.1895-0.4575L19.903,0.9212
		c-0.1265-0.1262-0.2923-0.1898-0.4584-0.1899c-0.1658,0.0003-0.3316,0.0633-0.4572,0.1902c0,0-12.2059,12.2053-12.2141,12.2134
		c-0.1507,0.1507-2.2807,5.5153-2.3604,5.7129c-0.0983,0.2411-0.0421,0.5159,0.1421,0.6998c0.1821,0.1826,0.4578,0.24,0.6999,0.1425
		c0.1892-0.0764,5.5697-2.2154,5.7118-2.3618C11.0556,17.2392,23.0927,5.2024,23.1819,5.1142z"/>
	
		<line fill="none" stroke="#000000" stroke-linecap="round" stroke-linejoin="round" stroke-miterlimit="10" x1="20.3777" y1="4.8992" x2="9.4497" y2="15.8141"/>
	
		<line fill="none" stroke="#000000" stroke-linecap="round" stroke-linejoin="round" stroke-miterlimit="10" x1="6.7733" y1="13.1349" x2="10.9666" y2="17.3282"/>
	
		<line fill="none" stroke="#000000" stroke-linecap="round" stroke-linejoin="round" stroke-miterlimit="10" x1="4.8004" y1="17.8872" x2="6.2195" y2="19.3063"/>
	<path fill="none" stroke="#000000" stroke-linecap="round" stroke-linejoin="round" stroke-miterlimit="10" d="M18.5,13v9
		c0,0.8837-0.2694,1.5-1.1531,1.5H2c-0.8837,0-1.5-0.6163-1.5-1.5V6.7572C0.5,5.8199,1.1668,5.5,2.1041,5.5H11"/>
</g>
<rect fill="none" width="24" height="24"/>
</svg>
