<?xml version="1.0" encoding="utf-8"?>
<!-- Generator: Adobe Illustrator 18.1.0, SVG Export Plug-In . SVG Version: 6.00 Build 0)  -->
<svg version="1.1" id="Layer_1" xmlns="http://www.w3.org/2000/svg" xmlns:xlink="http://www.w3.org/1999/xlink" x="0px" y="0px"
	 width="24px" height="24px" viewBox="0 0 24 24" enable-background="new 0 0 24 24" xml:space="preserve">
<g>
	
		<line fill="none" stroke="#000000" stroke-linecap="round" stroke-linejoin="round" stroke-miterlimit="10" x1="11.4863" y1="1.595" x2="11.4863" y2="12.4519"/>
	<polyline fill="none" stroke="#000000" stroke-linecap="round" stroke-linejoin="round" stroke-miterlimit="10" points="
		7.9577,5.1318 11.4945,1.595 15.0314,5.1318 	"/>
	<path fill="none" stroke="#000000" stroke-linecap="round" stroke-linejoin="round" stroke-miterlimit="10" d="M11.4945,20.4698
		c-1.6483,0-2.9889-1.3406-2.9889-2.9884c0-1.6483,1.3406-2.9889,2.9889-2.9889c1.6478,0,2.9886,1.3406,2.9886,2.9889
		C14.4831,19.1292,13.1423,20.4698,11.4945,20.4698z"/>
	<path fill="none" stroke="#000000" stroke-linecap="round" stroke-linejoin="round" stroke-miterlimit="10" d="M13.4581,10.5963
		c0.6969,0.2293,0.9805,0.8261,1.0521,1.8886h4.4939c1.1495,0,1.4761,0.892,1.5146,1.438v7.1501
		c0,1.3499-1.5303,1.4037-1.5303,1.4037L6.0117,22.5001c-0.5155,0-0.8909-0.1828-1.1722-0.5017
		c-0.3909-0.4412-0.3439-1.0345-0.3439-1.1738v-6.4318c0-1.3205,0.9851-1.8825,1.5663-1.9083h2.4415
		c0.0737-1.0935,0.268-1.6937,0.9636-1.9077"/>
	
		<line fill="none" stroke="#000000" stroke-linecap="round" stroke-linejoin="round" stroke-miterlimit="10" x1="17.4571" y1="15.4698" x2="17.4571" y2="15.4698"/>
</g>
<rect x="-0.0137" y="0.0002" fill="none" width="24" height="24"/>
</svg>
