<?xml version="1.0" encoding="utf-8"?>
<!-- Generator: Adobe Illustrator 18.1.0, SVG Export Plug-In . SVG Version: 6.00 Build 0)  -->
<svg version="1.1" id="Layer_1" xmlns="http://www.w3.org/2000/svg" xmlns:xlink="http://www.w3.org/1999/xlink" x="0px" y="0px"
	 width="24px" height="24px" viewBox="0 0 24 24" enable-background="new 0 0 24 24" xml:space="preserve">
<g>
	<path fill="none" stroke="#000000" stroke-linecap="round" stroke-linejoin="round" stroke-miterlimit="10" d="M23.2141,17.9425
		l-6.0098-6.0089l5.9762-5.9766c0.2397-0.2397,0.2401-0.6304,0-0.8697l-4.3193-4.3197c-0.2303-0.2303-0.6385-0.2303-0.8692,0
		l-5.9766,5.9771L6.0379,0.7676c-0.2312-0.2303-0.6389-0.2303-0.8701,0L0.7831,5.1541c-0.2393,0.2402-0.2393,0.6291,0,0.8697
		l5.9766,5.9762l-5.9425,5.9439c-0.2411,0.2397-0.2411,0.6291,0,0.8688l4.3184,4.3188c0.2401,0.2397,0.6286,0.2397,0.8688,0
		l5.9439-5.943l6.0107,6.0102c0.2377,0.2394,0.6301,0.24,0.8692,0l4.386-4.3865C23.4526,18.5755,23.4558,18.1842,23.2141,17.9425z"
		/>
</g>
<rect x="0" y="0" fill="none" width="24" height="24"/>
</svg>
