<?xml version="1.0" encoding="utf-8"?>
<!-- Generator: Adobe Illustrator 18.1.0, SVG Export Plug-In . SVG Version: 6.00 Build 0)  -->
<svg version="1.1" id="Layer_1" xmlns="http://www.w3.org/2000/svg" xmlns:xlink="http://www.w3.org/1999/xlink" x="0px" y="0px"
	 width="24px" height="24px" viewBox="0 0 24 24" enable-background="new 0 0 24 24" xml:space="preserve">
<rect fill="none" width="24" height="24"/>
<g>
	<line fill="none" stroke="#000000" stroke-linecap="round" stroke-linejoin="round" x1="8.7" y1="17.5" x2="15.3" y2="17.5"/>
	<line fill="none" stroke="#000000" stroke-linecap="round" stroke-linejoin="round" x1="8.7" y1="15.5" x2="15.3" y2="15.5"/>
	<polyline fill="none" stroke="#000000" stroke-linecap="round" stroke-linejoin="round" points="23.5,15.5 23.5,0.5 0.5,0.5 
		0.5,15.5 	"/>
	<path fill="none" stroke="#000000" stroke-linecap="round" stroke-linejoin="round" d="M2.5,20.4v2.2c0,0.5,0.4,1,1,1h2.1
		c0.5,0,1-0.4,1-1v-2h11v2c0,0.5,0.4,1,1,1h2.1c0.5,0,1-0.4,1-1v-2.2V8.5c0-1.7-1.3-3-3-3h-13c-1.7,0-3,1.3-3,3L2.5,20.4z"/>
	<circle fill="none" stroke="#000000" stroke-linecap="round" stroke-linejoin="round" cx="5.5" cy="16.7" r="1.4"/>
	<circle fill="none" stroke="#000000" stroke-linecap="round" stroke-linejoin="round" cx="18.5" cy="16.7" r="1.4"/>
	<path fill="none" stroke="#000000" stroke-linecap="round" stroke-linejoin="round" d="M2.5,20.5"/>
	<path fill="none" stroke="#000000" stroke-linecap="round" stroke-linejoin="round" d="M21.5,20.5"/>
	<line fill="none" stroke="#000000" stroke-linecap="round" stroke-linejoin="round" x1="2.5" y1="12.5" x2="21.5" y2="12.5"/>
	<line fill="none" stroke="#000000" stroke-linecap="round" stroke-linejoin="round" x1="2.5" y1="20.5" x2="21.5" y2="20.5"/>
</g>
</svg>
