<?xml version="1.0" encoding="utf-8"?>
<!-- Generator: Adobe Illustrator 18.1.0, SVG Export Plug-In . SVG Version: 6.00 Build 0)  -->
<svg version="1.1" id="Layer_1" xmlns="http://www.w3.org/2000/svg" xmlns:xlink="http://www.w3.org/1999/xlink" x="0px" y="0px"
	 width="24px" height="24px" viewBox="0 0 24 24" enable-background="new 0 0 24 24" xml:space="preserve">
<g>
	<path fill="none" stroke="#000000" stroke-linecap="round" stroke-linejoin="round" stroke-miterlimit="10" d="M4.9992,1.6036
		L4.758,3.7572L2.5858,23.1416l17.8312-7.9053l1.9811-0.8783C19.1914,7.1091,12.4257,2.427,4.9992,1.6036z"/>
	<path fill="none" stroke="#000000" stroke-linecap="round" stroke-linejoin="round" stroke-miterlimit="10" d="M3.5559,14.4677
		c0.9443,0.399,1.6069,1.3337,1.6069,2.4233c0,1.2941-0.9349,2.3699-2.1661,2.5888"/>
	
		<circle fill="none" stroke="#000000" stroke-linecap="round" stroke-linejoin="round" stroke-miterlimit="10" cx="9.0686" cy="9.8178" r="2.6295"/>
	<path fill="none" stroke="#000000" stroke-linecap="round" stroke-linejoin="round" stroke-miterlimit="10" d="M11.1378,19.3481
		c-0.9683-1.7383,0.2862-3.9073,2.2987-3.9073c1.1573,0,2.1399,0.7476,2.4914,1.7862"/>
	<path fill="none" stroke="#000000" stroke-linecap="round" stroke-linejoin="round" stroke-miterlimit="10" d="M4.758,3.7573
		c10.689,1.0521,11.7524,8.4471,15.6589,11.4789"/>
</g>
<rect x="0.0142" y="0.0346" fill="none" width="24" height="24"/>
</svg>
