<?xml version="1.0" encoding="utf-8"?>
<!-- Generator: Adobe Illustrator 18.1.0, SVG Export Plug-In . SVG Version: 6.00 Build 0)  -->
<svg version="1.1" id="Layer_1" xmlns="http://www.w3.org/2000/svg" xmlns:xlink="http://www.w3.org/1999/xlink" x="0px" y="0px"
	 width="24px" height="24px" viewBox="0 0 24 24" enable-background="new 0 0 24 24" xml:space="preserve">
<g>
	<path fill="none" stroke="#000000" stroke-linecap="round" stroke-linejoin="round" stroke-miterlimit="10" d="M23.108,6.5669
		c0.2447,0.2447,0.2447,0.6414,0,0.8862l-9.7349,9.7349c-0.2447,0.2447-0.6414,0.2447-0.8862,0l-5.7987-5.7987
		c-0.2447-0.2447-0.2447-0.6414,0-0.8862l9.7349-9.7349c0.2447-0.2447,0.6414-0.2447,0.8862,0L23.108,6.5669z"/>
	<polyline fill="none" stroke="#000000" stroke-linecap="round" stroke-linejoin="round" stroke-miterlimit="10" points="
		6.5105,10.8861 14.9256,8.9814 16.8068,0.5903 	"/>
	
		<line fill="none" stroke="#000000" stroke-linecap="round" stroke-linejoin="round" stroke-miterlimit="10" x1="5.5026" y1="13.7363" x2="0.6025" y2="18.6364"/>
	
		<line fill="none" stroke="#000000" stroke-linecap="round" stroke-linejoin="round" stroke-miterlimit="10" x1="7.5623" y1="15.796" x2="4.2755" y2="19.0829"/>
	
		<line fill="none" stroke="#000000" stroke-linecap="round" stroke-linejoin="round" stroke-miterlimit="10" x1="9.622" y1="17.8557" x2="7.9785" y2="19.4992"/>
</g>
<rect x="0" y="0" fill="none" width="24" height="24"/>
</svg>
