<?xml version="1.0" encoding="utf-8"?>
<!-- Generator: Adobe Illustrator 18.1.0, SVG Export Plug-In . SVG Version: 6.00 Build 0)  -->
<svg version="1.1" id="Layer_1" xmlns="http://www.w3.org/2000/svg" xmlns:xlink="http://www.w3.org/1999/xlink" x="0px" y="0px"
	 width="24px" height="24px" viewBox="0 0 24 24" enable-background="new 0 0 24 24" xml:space="preserve">
<g>
	<path fill="none" stroke="#000000" stroke-linecap="round" stroke-linejoin="round" d="M5.7899,11.1955
		C5.4926,14.7799,3.1137,21.5,3.1137,21.5"/>
	<path fill="none" stroke="#000000" stroke-linecap="round" stroke-linejoin="round" d="M14.8423,21.3608
		c0,0-2.7953-7.8608-2.7953-10.8608h-1.7471"/>
	
		<line fill="none" stroke="#000000" stroke-linecap="round" stroke-linejoin="round" x1="7.5369" y1="13.5" x2="12.4923" y2="13.5"/>
	<path fill="none" stroke="#000000" stroke-linecap="round" stroke-linejoin="round" d="M20.831,21.4334
		c0,0-2.0942-5.9334-2.0942-8.9334h-4.7393"/>
	
		<line fill="none" stroke="#000000" stroke-linecap="round" stroke-linejoin="round" x1="15.1128" y1="15.5" x2="19.1342" y2="15.5"/>
	
		<line fill="none" stroke="#000000" stroke-linecap="round" stroke-linejoin="round" x1="0.9975" y1="23.5" x2="22.9975" y2="23.5"/>
	<path fill="none" stroke="#000000" stroke-linecap="round" stroke-linejoin="round" d="M10.0563,4.1658
		c1.1652-1.3244,0.2127-3.3719-1.5215-3.3719c-0.9007,0-1.6558,0.5892-1.9234,1.4003C6.3438,1.383,5.5887,0.7939,4.688,0.7939
		c-1.7336,0-2.6874,2.0468-1.5216,3.3719c-3.1828-0.6416-3.2237,4.6305,0,3.9875C2.0009,9.477,2.9537,11.5249,4.688,11.5249
		c0.9007,0,1.6558-0.5892,1.9234-1.4001c0.7229,2.1909,3.9576,1.6613,3.9576-0.6341c0-0.5147-0.1975-0.9794-0.5127-1.3375
		C13.247,8.7899,13.2712,3.5175,10.0563,4.1658z"/>
	<circle fill="none" stroke="#000000" stroke-linecap="round" stroke-linejoin="round" cx="6.6114" cy="6.1595" r="1.6796"/>
</g>
<rect x="0.0005" y="0" fill="none" width="24" height="24"/>
</svg>
