<?xml version="1.0" encoding="utf-8"?>
<!-- Generator: Adobe Illustrator 18.1.0, SVG Export Plug-In . SVG Version: 6.00 Build 0)  -->
<svg version="1.1" id="Layer_1" xmlns="http://www.w3.org/2000/svg" xmlns:xlink="http://www.w3.org/1999/xlink" x="0px" y="0px"
	 width="24px" height="24px" viewBox="0 0 24 24" enable-background="new 0 0 24 24" xml:space="preserve">
<g>
	<path fill="none" stroke="#000000" stroke-linecap="round" stroke-linejoin="round" stroke-miterlimit="10" d="M11.9858,0.7551
		c-6.2113,0-11.2641,5.0527-11.2641,11.264S5.7745,23.284,11.9858,23.284s11.264-5.0537,11.264-11.2649
		S18.1971,0.7551,11.9858,0.7551z"/>
	
		<line fill="none" stroke="#000000" stroke-linecap="round" stroke-linejoin="round" stroke-miterlimit="10" x1="4.0206" y1="19.9841" x2="19.9503" y2="4.0544"/>
	<path fill="none" stroke="#000000" stroke-linecap="round" stroke-linejoin="round" stroke-miterlimit="10" d="M11.3786,8.2743
		C9.5978,7.4863,9.3168,6.3104,8.7151,5.2248C8.7064,5.209,8.6891,4.9147,8.6194,4.8486C8.59,4.8206,8.5123,4.8558,8.4945,4.8232
		C8.4327,4.7107,8.3758,4.608,8.3235,4.5171L7.7499,4.8469L7.1762,5.1767c0.0523,0.091,0.1124,0.1918,0.1786,0.3018
		c0.0191,0.0318-0.0504,0.0813-0.041,0.1207c0.0221,0.0934,0.2676,0.2566,0.277,0.272c0.6353,1.0663,1.51,1.9006,1.295,3.8363
		c-0.1532,1.3796,0.1947,1.9849,0.1947,1.9849l4.5999,8.0014c0.3695,0.6427,4.285-1.6083,3.9155-2.251l-4.5999-8.0014
		C12.9961,9.4414,12.6481,8.8361,11.3786,8.2743z"/>
	
		<rect x="11.3702" y="13.0985" transform="matrix(0.8669 -0.4984 0.4984 0.8669 -5.6987 8.7978)" fill="none" stroke="#000000" stroke-linecap="round" stroke-linejoin="round" stroke-miterlimit="10" width="4.5165" height="3.9472"/>
</g>
<rect x="-0.0142" y="0.0197" fill="none" width="24" height="24"/>
</svg>
