<?xml version="1.0" encoding="utf-8"?>
<!-- Generator: Adobe Illustrator 18.1.1, SVG Export Plug-In . SVG Version: 6.00 Build 0)  -->
<svg version="1.1" id="Layer_1" xmlns="http://www.w3.org/2000/svg" xmlns:xlink="http://www.w3.org/1999/xlink" x="0px" y="0px"
	 width="24px" height="24px" viewBox="0 0 24 24" enable-background="new 0 0 24 24" xml:space="preserve">
<rect fill="none" width="24" height="24"/>
<g>
	
		<line fill="none" stroke="#000000" stroke-linecap="round" stroke-linejoin="round" x1="4.0503" y1="1.4827" x2="3.1266" y2="5.9724"/>
	<polyline fill="none" stroke="#000000" stroke-linecap="round" stroke-linejoin="round" points="2.2853,2.6453 4.0503,1.4827 
		5.2129,3.2477 	"/>
	
		<line fill="none" stroke="#000000" stroke-linecap="round" stroke-linejoin="round" x1="1.7338" y1="12.7422" x2="2.6574" y2="8.2526"/>
	<polyline fill="none" stroke="#000000" stroke-linecap="round" stroke-linejoin="round" points="3.4987,11.5796 1.7338,12.7422 
		0.5711,10.9772 	"/>
	<path fill="none" stroke="#000000" stroke-linecap="round" stroke-linejoin="round" d="M17.9478,22.8914
		c0,0-2.6605-3.5919-5.662-4.344c-2.5375-0.6359-2.8281-2.0117-4.6099-3.3958c0,0-2.2859-1.6194-2.2445-2.2445
		c0.3439-0.5168,0.6639-0.8129,1.8926-0.3483l4.0146,1.9511c0.4804-1.6493-0.7486-4.132-0.9954-4.6053L6.978,3.5713
		C6.7334,3.1174,6.9196,2.5504,7.394,2.3049l0.0412-0.0213c0.4579-0.2371,1.0206-0.0887,1.279,0.3373l5.1724,8.7419l0.1039-0.0102
		l-1.4683-2.7641c-0.2446-0.4539-0.0509-1.0247,0.4326-1.275l0.042-0.0218c0.4668-0.2416,1.0368-0.097,1.2956,0.3288l2.0742,3.4994
		l0.0952-0.0093l-1.2899-2.5022c-0.2446-0.4539-0.0583-1.0209,0.416-1.2664l0.0412-0.0213c0.458-0.2371,1.0206-0.0887,1.279,0.3373
		l1.9398,3.1686L18.037,8.9921c-0.2169-0.4672,0.0026-1.0235,0.4902-1.2425l0.0424-0.0191
		c0.4708-0.2114,1.0231-0.0317,1.2553,0.4084l0,0c0.8165,1.532,1.3712,3.1859,1.6342,4.8994
		c0.2954,1.924,1.037,3.9803,1.9102,5.1599"/>
</g>
</svg>
