<?xml version="1.0" encoding="utf-8"?>
<!-- Generator: Adobe Illustrator 18.1.0, SVG Export Plug-In . SVG Version: 6.00 Build 0)  -->
<svg version="1.1" id="Layer_1" xmlns="http://www.w3.org/2000/svg" xmlns:xlink="http://www.w3.org/1999/xlink" x="0px" y="0px"
	 width="24px" height="24px" viewBox="0 0 24 24" enable-background="new 0 0 24 24" xml:space="preserve">
<g>
	<polyline fill="none" stroke="#000000" stroke-linecap="round" stroke-linejoin="round" stroke-miterlimit="10" points="
		14.9486,12 17.4888,0.7206 21.8013,20.5 13.1762,20.5 13.6606,18.2735 	"/>
	<path fill="none" stroke="#000000" stroke-linecap="round" stroke-linejoin="round" stroke-miterlimit="10" d="M6.008,18.1989
		c-3.5686,1.9171-6.3151-3.8943-2.8798-6.0445C2.2168,8.7986,4.5026,5.4468,7.6565,5.4468c2.3515,0,4.2965,1.894,4.6615,4.372
		c1.8475,0.5191,3.2158,2.3599,3.2158,4.5579c0,3.7456-3.7753,5.9663-6.5892,3.9556"/>
	
		<line fill="none" stroke="#000000" stroke-linecap="round" stroke-linejoin="round" stroke-miterlimit="10" x1="17.4888" y1="23.449" x2="17.4888" y2="17.4817"/>
	
		<line fill="none" stroke="#000000" stroke-linecap="round" stroke-linejoin="round" stroke-miterlimit="10" x1="7.4887" y1="23.449" x2="7.4887" y2="10.5182"/>
	<path fill="none" stroke="#000000" stroke-linecap="round" stroke-linejoin="round" stroke-miterlimit="10" d="M7.5308,17.199
		c0,0,0.6828-4.8709,3.9663-3.7421"/>
	<path fill="none" stroke="#000000" stroke-linecap="round" stroke-linejoin="round" stroke-miterlimit="10" d="M7.5308,15.8653
		c0,0-1.4788-3.2439-2.991-1.6997"/>
</g>
<rect x="-0.0113" y="0" fill="none" width="24" height="24"/>
</svg>
