<?xml version="1.0" encoding="utf-8"?>
<!-- Generator: Adobe Illustrator 18.1.0, SVG Export Plug-In . SVG Version: 6.00 Build 0)  -->
<svg version="1.1" id="Layer_1" xmlns="http://www.w3.org/2000/svg" xmlns:xlink="http://www.w3.org/1999/xlink" x="0px" y="0px"
	 width="24px" height="24px" viewBox="0 0 24 24" enable-background="new 0 0 24 24" xml:space="preserve">
<g>
	<path fill="none" stroke="#000000" stroke-linecap="round" stroke-linejoin="round" stroke-miterlimit="10" d="M23.5091,2.865
		c0-1.3062-1.059-2.365-2.3652-2.365H2.8743c-1.3063,0-2.3652,1.0589-2.3652,2.365v18.27c0,1.3062,1.059,2.365,2.3652,2.365h18.2695
		c1.3063,0,2.3652-1.0589,2.3652-2.365V2.865z"/>
	<path fill="none" stroke="#000000" stroke-linecap="round" stroke-linejoin="round" stroke-miterlimit="10" d="M9.5,14.0192
		C9.5,13.7325,9.2675,13.5,8.9808,13.5H5.0193C4.7325,13.5,4.5,13.7325,4.5,14.0192v3.9616C4.5,18.2676,4.7325,18.5,5.0193,18.5
		h3.9615C9.2675,18.5,9.5,18.2676,9.5,17.9808V14.0192z"/>
	
		<line fill="none" stroke="#000000" stroke-linecap="round" stroke-linejoin="round" stroke-miterlimit="10" x1="19.4378" y1="14.5" x2="12.5415" y2="14.5"/>
	
		<line fill="none" stroke="#000000" stroke-linecap="round" stroke-linejoin="round" stroke-miterlimit="10" x1="19.4377" y1="16.4999" x2="12.5415" y2="16.4999"/>
	<path fill="none" stroke="#000000" stroke-linecap="round" stroke-linejoin="round" stroke-miterlimit="10" d="M9.5,5.0187
		c0-0.2867-0.2325-0.5192-0.5193-0.5192H5.0193C4.7325,4.4995,4.5,4.7319,4.5,5.0187v3.9616c0,0.2867,0.2325,0.5192,0.5193,0.5192
		h3.9615C9.2675,9.4995,9.5,9.267,9.5,8.9803V5.0187z"/>
	
		<line fill="none" stroke="#000000" stroke-linecap="round" stroke-linejoin="round" stroke-miterlimit="10" x1="19.4378" y1="5.4994" x2="12.5415" y2="5.4994"/>
	
		<line fill="none" stroke="#000000" stroke-linecap="round" stroke-linejoin="round" stroke-miterlimit="10" x1="19.4377" y1="7.4994" x2="12.5415" y2="7.4994"/>
</g>
<rect x="0" y="0" fill="none" width="24" height="24"/>
</svg>
