<?xml version="1.0" encoding="utf-8"?>
<!-- Generator: Adobe Illustrator 18.1.0, SVG Export Plug-In . SVG Version: 6.00 Build 0)  -->
<svg version="1.1" id="Layer_1" xmlns="http://www.w3.org/2000/svg" xmlns:xlink="http://www.w3.org/1999/xlink" x="0px" y="0px"
	 width="24px" height="24px" viewBox="0 0 24 24" enable-background="new 0 0 24 24" xml:space="preserve">
<g>
	<path fill="none" stroke="#000000" stroke-linecap="round" stroke-linejoin="round" stroke-miterlimit="10" d="M22.512,4.5546
		H6.4279c0,0-0.9169-2.0399-1.4379-2.0399H1.4223c-0.5214,0-0.9456,0.4263-0.9456,0.9507v19.0593
		c0,0.524,0.4242,0.9499,0.9456,0.9499H22.512c0.521,0,0.9452-0.4259,0.9452-0.9499V5.5054
		C23.4571,4.9809,23.033,4.5546,22.512,4.5546z"/>
	
		<line fill="none" stroke="#000000" stroke-linecap="round" stroke-linejoin="round" stroke-miterlimit="10" x1="23.4571" y1="8.5255" x2="0.4767" y2="8.5255"/>
	<path fill="none" stroke="#000000" stroke-linecap="round" stroke-linejoin="round" stroke-miterlimit="10" d="M18.008,11.4818
		H5.9824c-0.248,0-0.4491,0.1914-0.4491,0.428v8.1968c0,0.2361,0.2011,0.4277,0.4491,0.4277H18.008
		c0.2478,0,0.4486-0.1916,0.4486-0.4277v-8.1968C18.4565,11.6732,18.2557,11.4818,18.008,11.4818z"/>
	
		<ellipse fill="none" stroke="#000000" stroke-linecap="round" stroke-linejoin="round" stroke-miterlimit="10" cx="8.7834" cy="14.8551" rx="1.2052" ry="1.1487"/>
	<polyline fill="none" stroke="#000000" stroke-linecap="round" stroke-linejoin="round" stroke-miterlimit="10" points="
		8.2318,20.488 12.2168,15.2992 13.8316,17.3757 15.9083,14.2634 18.4467,17.7438 	"/>
</g>
<rect x="0" y="0.0001" fill="none" width="24" height="24"/>
</svg>
