<?xml version="1.0" encoding="utf-8"?>
<!-- Generator: Adobe Illustrator 18.1.0, SVG Export Plug-In . SVG Version: 6.00 Build 0)  -->
<svg version="1.1" id="Layer_1" xmlns="http://www.w3.org/2000/svg" xmlns:xlink="http://www.w3.org/1999/xlink" x="0px" y="0px"
	 width="24px" height="24px" viewBox="0 0 24 24" enable-background="new 0 0 24 24" xml:space="preserve">
<g>
	<path fill="none" stroke="#000000" stroke-linecap="round" stroke-linejoin="round" stroke-miterlimit="10" d="M20.5061,4.8652
		c0-1.3062-1.059-2.365-2.3652-2.365H5.8713c-1.3063,0-2.3652,1.0589-2.3652,2.365V21.135c0,1.3062,1.059,2.365,2.3652,2.365
		h12.2695c1.3063,0,2.3652-1.0589,2.3652-2.365V4.8652z"/>
	
		<line fill="none" stroke="#000000" stroke-linecap="round" stroke-linejoin="round" stroke-miterlimit="10" x1="16.4377" y1="8.5001" x2="7.5109" y2="8.5001"/>
	
		<line fill="none" stroke="#000000" stroke-linecap="round" stroke-linejoin="round" stroke-miterlimit="10" x1="16.4377" y1="12.5001" x2="7.5109" y2="12.5001"/>
	
		<line fill="none" stroke="#000000" stroke-linecap="round" stroke-linejoin="round" stroke-miterlimit="10" x1="16.4377" y1="16.5001" x2="7.5109" y2="16.5001"/>
	
		<line fill="none" stroke="#000000" stroke-linecap="round" stroke-linejoin="round" stroke-miterlimit="10" x1="12.0061" y1="0.5106" x2="12.0061" y2="3.503"/>
	
		<line fill="none" stroke="#000000" stroke-linecap="round" stroke-linejoin="round" stroke-miterlimit="10" x1="9.0059" y1="0.5106" x2="9.0059" y2="3.503"/>
	
		<line fill="none" stroke="#000000" stroke-linecap="round" stroke-linejoin="round" stroke-miterlimit="10" x1="15.0063" y1="0.5106" x2="15.0063" y2="3.503"/>
</g>
<rect x="0" y="0" fill="none" width="24" height="24"/>
</svg>
