<?xml version="1.0" encoding="utf-8"?>
<!-- Generator: Adobe Illustrator 18.1.0, SVG Export Plug-In . SVG Version: 6.00 Build 0)  -->
<svg version="1.1" id="Layer_1" xmlns="http://www.w3.org/2000/svg" xmlns:xlink="http://www.w3.org/1999/xlink" x="0px" y="0px"
	 width="24px" height="24px" viewBox="0 0 24 24" enable-background="new 0 0 24 24" xml:space="preserve">
<g>
	<rect x="0.524" y="1.5" fill="none" stroke="#000000" stroke-linecap="round" stroke-linejoin="round" width="23" height="21"/>
	
		<line fill="none" stroke="#000000" stroke-linecap="round" stroke-linejoin="round" x1="23.4978" y1="7.501" x2="0.572" y2="7.501"/>
	
		<line fill="none" stroke="#000000" stroke-linecap="round" stroke-linejoin="round" x1="19.4724" y1="3.4379" x2="21.4913" y2="5.5008"/>
	
		<line fill="none" stroke="#000000" stroke-linecap="round" stroke-linejoin="round" x1="19.4724" y1="5.5008" x2="21.4913" y2="3.4379"/>
	<rect x="15.5096" y="3.5" fill="none" stroke="#000000" stroke-linecap="round" stroke-linejoin="round" width="2" height="2"/>
	<line fill="none" stroke="#000000" stroke-linecap="round" stroke-linejoin="round" x1="11.5092" y1="5.5" x2="13.5092" y2="5.5"/>
	<circle fill="none" stroke="#000000" stroke-linecap="round" stroke-linejoin="round" cx="12.0263" cy="14.9665" r="1.5204"/>
	<path fill="none" stroke="#000000" stroke-linecap="round" stroke-linejoin="round" d="M15.6778,15.8242l1.3715-0.1879
		c0.0616-0.4662,0.0614-0.9168-0.0085-1.4005l-1.3737-0.1713c-0.095-0.3845-0.2488-0.7446-0.4519-1.0719l0.8376-1.1036
		c-0.285-0.3723-0.6203-0.7037-0.9959-0.9843l-1.093,0.8507c-0.33-0.1995-0.6922-0.3493-1.0781-0.4399l-0.188-1.3717
		c-0.4774-0.0632-0.9272-0.0601-1.4,0.008l-0.1713,1.3734c-0.3854,0.095-0.7464,0.2491-1.0744,0.4527l-1.1035-0.8375
		c-0.3545,0.2714-0.6953,0.6094-0.9838,0.9954l0.8507,1.093c-0.2,0.3307-0.3501,0.6937-0.4406,1.0806l-1.3715,0.1879
		c-0.0588,0.4457-0.0606,0.9212,0.0085,1.3995l1.3736,0.1713c0.0952,0.3857,0.2497,0.7469,0.4537,1.0752l-0.8373,1.1033
		c0.2734,0.3568,0.6122,0.6969,0.9958,0.9834l1.0933-0.8509c0.3305,0.1996,0.6933,0.3494,1.0799,0.4396l0.1879,1.3712
		c0.4735,0.0623,0.9234,0.06,1.4-0.009l0.1713-1.3739c0.3848-0.0953,0.7451-0.2494,1.0726-0.453l1.1033,0.8374
		c0.3721-0.2852,0.7034-0.6206,0.9839-0.9964l-0.8509-1.0933C15.438,16.5718,15.5875,16.2098,15.6778,15.8242z"/>
</g>
<rect x="0" y="0" fill="none" width="24" height="24"/>
</svg>
