<?xml version="1.0" encoding="utf-8"?>
<!-- Generator: Adobe Illustrator 18.1.0, SVG Export Plug-In . SVG Version: 6.00 Build 0)  -->
<svg version="1.1" id="Layer_1" xmlns="http://www.w3.org/2000/svg" xmlns:xlink="http://www.w3.org/1999/xlink" x="0px" y="0px"
	 width="24px" height="24px" viewBox="0 0 24 24" enable-background="new 0 0 24 24" xml:space="preserve">
<g>
	<path fill="none" stroke="#000000" stroke-linecap="round" stroke-linejoin="round" d="M15.5672,9.6286
		c-4.2331,7.3256-3.9305,13.6863-3.9305,13.6863s-0.3003-6.406-3.0515-10.2023"/>
	<path fill="none" stroke="#000000" stroke-linecap="round" stroke-linejoin="round" d="M23.1904,5.576
		c0-1.0621-0.9696-1.874-2.0311-1.6622c0.9715-1.1043,0.1773-2.8114-1.2686-2.8114c-0.751,0-1.3805,0.4914-1.6036,1.1676
		c-0.6028-1.8269-3.2997-1.3853-3.2997,0.5285c0,0.4294,0.1646,0.8166,0.4275,1.1154c-1.0619-0.2118-2.0311,0.6006-2.0311,1.6622
		c0,1.0615,0.9689,1.8743,2.0311,1.6625c-0.2628,0.2987-0.4275,0.686-0.4275,1.1151c0,1.9153,2.6974,2.354,3.2997,0.5287
		c0.2231,0.6761,0.8527,1.1676,1.6036,1.1676c1.4456,0,2.2403-1.7069,1.2686-2.8114C22.2206,7.4502,23.1904,6.6385,23.1904,5.576z"
		/>
	<path fill="none" stroke="#000000" stroke-linecap="round" stroke-linejoin="round" d="M10.6163,11.4502
		c0-1.0671-0.9772-1.8747-2.0311-1.6622C8.848,9.4892,9.0126,9.1017,9.0126,8.6726c0-1.9134-2.6969-2.356-3.2997-0.5285
		C5.4899,7.4678,4.8603,6.9766,4.1093,6.9766c-1.4454,0-2.2406,1.7066-1.2686,2.8114c-1.0548-0.2126-2.0311,0.5958-2.0311,1.6622
		c0,1.0639,0.9719,1.8737,2.0311,1.6625c-0.2628,0.2985-0.4275,0.686-0.4275,1.1151c0,1.9155,2.6977,2.353,3.2997,0.5287
		c0.6028,1.8267,3.2997,1.3851,3.2997-0.5287c0-0.4291-0.1646-0.8166-0.4275-1.1151C9.6417,13.3234,10.6163,12.5168,10.6163,11.4502
		z"/>
	<path fill="none" stroke="#000000" stroke-linecap="round" stroke-linejoin="round" stroke-miterlimit="10" d="M13.4931,13.9681
		c1.118-2.8389,5.6701-0.7932,5.6701-0.7932S16.8647,17.3403,13.4931,13.9681z"/>
	<circle fill="none" stroke="#000000" stroke-linecap="round" stroke-linejoin="round" cx="18.2871" cy="5.5761" r="1.4004"/>
	<circle fill="none" stroke="#000000" stroke-linecap="round" stroke-linejoin="round" cx="5.7129" cy="11.4502" r="1.4004"/>
</g>
<rect x="0" fill="none" width="24" height="24"/>
</svg>
