<?xml version="1.0" encoding="utf-8"?>
<!-- Generator: Adobe Illustrator 18.1.1, SVG Export Plug-In . SVG Version: 6.00 Build 0)  -->
<svg version="1.1" id="Layer_1" xmlns="http://www.w3.org/2000/svg" xmlns:xlink="http://www.w3.org/1999/xlink" x="0px" y="0px"
	 width="24px" height="24px" viewBox="0 0 24 24" enable-background="new 0 0 24 24" xml:space="preserve">
<g>
	<path fill="none" stroke="#000000" stroke-linecap="round" stroke-linejoin="round" d="M5.5,12.8c0,0.7,0.1,1.4,0.3,2.1
		c-0.4,0.2-0.7,0.6-0.7,1c0,0.6,0.5,1.1,1.1,1.1c0,0,0,0,0,0c0.2,2.9,3.6,5.4,5.7,5.4c2.2,0,5.4-2.5,5.7-5.4c0,0,0,0,0,0
		c0.6,0,1.1-0.5,1.1-1.1c0-0.5-0.3-0.8-0.7-1c0.2-0.7,0.3-1.4,0.3-2.1"/>
	<path fill="none" stroke="#000000" stroke-linecap="round" stroke-linejoin="round" stroke-miterlimit="10" d="M7.6,11.8l-0.3,3.5
		c0,0-0.6-0.8-1.5-0.4"/>
	<path fill="none" stroke="#000000" stroke-linecap="round" stroke-linejoin="round" stroke-miterlimit="10" d="M16.4,11.8l0.3,3.5
		c0,0,0.6-0.8,1.5-0.4"/>
	<path fill="none" stroke="#000000" stroke-linecap="round" stroke-linejoin="round" d="M5.5,12.7c1.7-1,4-1.6,6.5-1.6
		c2.5,0,4.8,0.6,6.5,1.6"/>
	<path fill="none" stroke="#000000" stroke-linecap="round" stroke-linejoin="round" stroke-miterlimit="10" d="M12.1,5.5h-1.6v2.1
		c0,0,0,1,1.5,1.7c1.5-0.8,1.5-1.7,1.5-1.7V5.5H12.1z"/>
	<path fill="none" stroke="#000000" stroke-linecap="round" stroke-linejoin="round" stroke-miterlimit="10" d="M17.3,20.8
		c1.5-0.3,6-1.5,6-5.4c0-2.6-3.6-4.1-3.6-4.1s-0.2-6.9-5.9-8.2v-1c0-0.4-0.3-0.6-0.6-0.6h-1.2h-1.2c-0.3,0-0.6,0.3-0.6,0.6v1
		c-5.8,1.2-6,8.2-6,8.2s-3.6,1.4-3.6,4.1c0,3.9,4.5,5.1,6,5.3"/>
	
		<line fill="none" stroke="#000000" stroke-linecap="round" stroke-linejoin="round" stroke-miterlimit="3.864" x1="11.2" y1="18.5" x2="12.7" y2="18.5"/>
	<line fill="none" stroke="#000000" stroke-linecap="round" stroke-linejoin="round" x1="10.1" y1="15.5" x2="10" y2="15.5"/>
	<line fill="none" stroke="#000000" stroke-linecap="round" stroke-linejoin="round" x1="13.9" y1="15.5" x2="14" y2="15.5"/>
</g>
<rect x="0" y="0" fill="none" width="24" height="24"/>
</svg>
