<?xml version="1.0" encoding="utf-8"?>
<!-- Generator: Adobe Illustrator 18.1.0, SVG Export Plug-In . SVG Version: 6.00 Build 0)  -->
<svg version="1.1" id="Layer_1" xmlns="http://www.w3.org/2000/svg" xmlns:xlink="http://www.w3.org/1999/xlink" x="0px" y="0px"
	 width="24px" height="24px" viewBox="0 0 24 24" enable-background="new 0 0 24 24" xml:space="preserve">
<g>
	<polyline fill="none" stroke="#000000" stroke-linecap="round" stroke-linejoin="round" stroke-miterlimit="10" points="
		19.529,0.5049 19.529,4.5049 23.529,4.5049 	"/>
	<path fill="none" stroke="#000000" stroke-linecap="round" stroke-linejoin="round" stroke-miterlimit="10" d="M6.5291,8.9963
		V1.3105c0-0.4364,0.3506-0.8056,0.7872-0.8056H19.529c0.2076,0,0.3041,0.0894,0.4517,0.2349l3.3124,3.2687
		c0.1503,0.1483,0.2359,0.285,0.2359,0.4964V22.705c0,0.4366-0.354,0.7999-0.7915,0.7999H7.3163
		c-0.4366,0-0.7872-0.3633-0.7872-0.7999v-6.6617"/>
	
		<line fill="none" stroke="#000000" stroke-linecap="round" stroke-linejoin="round" stroke-miterlimit="10" x1="0.6569" y1="12.5356" x2="13.5938" y2="12.5356"/>
	<polyline fill="none" stroke="#000000" stroke-linecap="round" stroke-linejoin="round" stroke-miterlimit="10" points="
		3.7088,9.3523 0.6569,12.5355 3.709,15.7188 	"/>
</g>
<rect x="0" y="0.0001" fill="none" width="24" height="24"/>
</svg>
