<?xml version="1.0" encoding="utf-8"?>
<!-- Generator: Adobe Illustrator 18.1.1, SVG Export Plug-In . SVG Version: 6.00 Build 0)  -->
<svg version="1.1" id="Layer_1" xmlns="http://www.w3.org/2000/svg" xmlns:xlink="http://www.w3.org/1999/xlink" x="0px" y="0px"
	 width="24px" height="24px" viewBox="0 0 24 24" enable-background="new 0 0 24 24" xml:space="preserve">
<rect x="0.1897" fill="none" width="24" height="24"/>
<g>
	<polyline fill="none" stroke="#000000" stroke-linecap="round" stroke-linejoin="round" points="16.5909,0.7869 18.3468,3.5034 
		15.6303,5.2594 	"/>
	<path fill="none" stroke="#000000" stroke-linecap="round" stroke-linejoin="round" d="M8.3886,3.4651
		c3.1806-1.0347,6.7673-0.9001,9.9582,0.0383"/>
	<path fill="none" stroke="#000000" stroke-linecap="round" stroke-linejoin="round" d="M8.7816,14.9877L6.2164,7.94
		C5.9331,7.1616,6.3345,6.3008,7.113,6.0175l0,0c0.7784-0.2834,1.6392,0.118,1.9225,0.8965l2.9072,7.9874"/>
	<path fill="none" stroke="#000000" stroke-linecap="round" stroke-linejoin="round" d="M14.9328,14.3451l-2.3942-6.5778
		c-0.2833-0.7785-1.1441-1.1799-1.9226-0.8965C9.8376,7.1541,9.4362,8.0149,9.7195,8.7933l2.2232,6.108"/>
	<path fill="none" stroke="#000000" stroke-linecap="round" stroke-linejoin="round" d="M7.3306,19.7725L3.7394,9.9058
		C3.456,9.1273,3.8574,8.2665,4.6359,7.9832c0.7784-0.2833,1.6392,0.118,1.9225,0.8965l2.2232,6.108"/>
	
		<line fill="none" stroke="#000000" stroke-linecap="round" stroke-linejoin="round" x1="14.9328" y1="14.3451" x2="15.1038" y2="14.815"/>
	<path fill="none" stroke="#000000" stroke-linecap="round" stroke-linejoin="round" d="M17.8117,21.2433
		c-0.0741-0.7806-0.0997-1.7387,0.0347-2.8361c0.2815-2.2988-0.3695-4.9374-0.3695-4.9374
		c-0.2834-0.7784-0.8692-1.3306-1.6476-1.0472c-0.7785,0.2833-1.1799,1.1441-0.8965,1.9225"/>
	<path fill="none" stroke="#000000" stroke-linecap="round" stroke-linejoin="round" d="M7.3306,19.7725l-0.7432-1.9192
		c-0.1047-0.2704-0.2783-0.5086-0.5035-0.6911l-0.9122-0.7391c-0.689-0.5083-1.9526,0.2272-1.4188,1.7945
		c0,0,1.1274,3.4272,3.7001,5.3"/>
</g>
</svg>
