<?xml version="1.0" encoding="utf-8"?>
<!-- Generator: Adobe Illustrator 18.1.0, SVG Export Plug-In . SVG Version: 6.00 Build 0)  -->
<svg version="1.1" id="Layer_1" xmlns="http://www.w3.org/2000/svg" xmlns:xlink="http://www.w3.org/1999/xlink" x="0px" y="0px"
	 width="24px" height="24px" viewBox="0 0 24 24" enable-background="new 0 0 24 24" xml:space="preserve">
<g>
	<polyline fill="none" stroke="#000000" stroke-linecap="round" stroke-linejoin="round" stroke-miterlimit="10" points="
		16.5335,0.5049 16.5335,4.5049 20.5335,4.5049 	"/>
	<path fill="none" stroke="#000000" stroke-linecap="round" stroke-linejoin="round" stroke-miterlimit="10" d="M20.5335,22.705
		c0,0.4366-0.354,0.7999-0.7915,0.7999H4.3208c-0.4366,0-0.7872-0.3633-0.7872-0.7999V1.3105c0-0.4364,0.3506-0.8056,0.7872-0.8056
		h12.2127c0.2076,0,0.3041,0.0894,0.4517,0.2349l3.3124,3.2687c0.1503,0.1483,0.2359,0.285,0.2359,0.4964V22.705z"/>
	
		<line fill="none" stroke="#000000" stroke-linecap="round" stroke-linejoin="round" stroke-miterlimit="10" x1="11.5523" y1="19.4968" x2="11.5523" y2="6.5557"/>
	<polyline fill="none" stroke="#000000" stroke-linecap="round" stroke-linejoin="round" stroke-miterlimit="10" points="
		14.8621,16.3822 11.5523,19.4968 8.2425,16.3822 	"/>
</g>
<rect x="0" y="0.0001" fill="none" width="24" height="24"/>
</svg>
