<?xml version="1.0" encoding="utf-8"?>
<!-- Generator: Adobe Illustrator 18.1.0, SVG Export Plug-In . SVG Version: 6.00 Build 0)  -->
<svg version="1.1" id="Layer_1" xmlns="http://www.w3.org/2000/svg" xmlns:xlink="http://www.w3.org/1999/xlink" x="0px" y="0px"
	 width="24px" height="24px" viewBox="0 0 24 24" enable-background="new 0 0 24 24" xml:space="preserve">
<g>
	<path fill="none" stroke="#000000" stroke-miterlimit="10" d="M21.1079,0.5H2.7373C1.4125,0.5,0.5,1.4385,0.5,2.7647v18.4302
		C0.5,22.5208,1.4125,23.5,2.7373,23.5h18.3706c1.3249,0,2.3921-0.9792,2.3921-2.3052V2.7647C23.5,1.4385,22.4328,0.5,21.1079,0.5z"
		/>
	<line fill="none" stroke="#000000" stroke-miterlimit="10" x1="0.5" y1="7.5" x2="23.5" y2="7.5"/>
	<line fill="none" stroke="#000000" x1="4.5" y1="7.4522" x2="4.5" y2="23.5"/>
	<line fill="none" stroke="#000000" x1="9.5" y1="7.4522" x2="9.5" y2="23.5"/>
	<line fill="none" stroke="#000000" x1="14.5" y1="7.4522" x2="14.5" y2="23.5"/>
	<line fill="none" stroke="#000000" x1="19.5" y1="7.4522" x2="19.5" y2="23.5"/>
	<line fill="none" stroke="#000000" x1="0.5" y1="19.5" x2="23.5" y2="19.5"/>
	<line fill="none" stroke="#000000" x1="0.5" y1="15.5" x2="23.5" y2="15.5"/>
	<line fill="none" stroke="#000000" x1="0.5" y1="11.5" x2="23.5" y2="11.5"/>
	
		<circle fill="none" stroke="#000000" stroke-linecap="round" stroke-linejoin="round" stroke-miterlimit="10" cx="7.6418" cy="3.5643" r="0.8322"/>
	
		<circle fill="none" stroke="#000000" stroke-linecap="round" stroke-linejoin="round" stroke-miterlimit="10" cx="16.3583" cy="3.5643" r="0.8322"/>
</g>
<rect x="0" y="0" fill="none" width="24" height="24"/>
</svg>
