<?xml version="1.0" encoding="utf-8"?>
<!-- Generator: Adobe Illustrator 18.1.0, SVG Export Plug-In . SVG Version: 6.00 Build 0)  -->
<svg version="1.1" id="Layer_1" xmlns="http://www.w3.org/2000/svg" xmlns:xlink="http://www.w3.org/1999/xlink" x="0px" y="0px"
	 width="24px" height="24px" viewBox="0 0 24 24" enable-background="new 0 0 24 24" xml:space="preserve">
<g>
	<path fill="none" stroke="#000000" stroke-linecap="round" stroke-linejoin="round" stroke-miterlimit="10" d="M18.5518,3.0426
		c0-1.5677-3.3809-2.2815-6.5226-2.2815S5.5067,1.4749,5.5067,3.0426c0,0.0032,0.0012,0.006,0.0012,0.006
		c0,0.0067-0.0012,0.0102-0.0012,0.0137v12.7333c0,0.0648,0.013,0.1265,0.0361,0.184c0.3713,1.3771,3.5346,2.0078,6.4864,2.0078
		s6.1151-0.6307,6.4864-2.0078c0.0232-0.0574,0.0361-0.1191,0.0361-0.184V3.0623c0-0.0035-0.0012-0.007-0.0012-0.0105
		C18.5507,3.0517,18.5518,3.0458,18.5518,3.0426z"/>
	<path fill="none" stroke="#000000" stroke-linecap="round" stroke-linejoin="round" stroke-miterlimit="10" d="M18.5518,2.9408
		c-0.0763,0.5743-2.4104,1.8885-6.5545,1.8885c-4.1441,0-6.4071-1.3143-6.4834-1.8885C5.5124,2.9308,5.5067,2.9196,5.5067,2.9096"/>
	<path fill="none" stroke="#000000" stroke-linecap="round" stroke-linejoin="round" stroke-miterlimit="10" d="M18.5518,7.2466
		c-0.0763,0.5743-2.4104,1.8885-6.5545,1.8885c-4.1441,0-6.4071-1.3143-6.4834-1.8885C5.5124,7.2366,5.5067,7.2254,5.5067,7.2154"/>
	<path fill="none" stroke="#000000" stroke-linecap="round" stroke-linejoin="round" stroke-miterlimit="10" d="M18.5518,11.5524
		c-0.0763,0.5743-2.4104,1.8885-6.5545,1.8885c-4.1441,0-6.4071-1.3143-6.4834-1.8885c-0.0014-0.0101-0.0072-0.0212-0.0072-0.0313"
		/>
	<g>
		<g>
			
				<line fill="none" stroke="#000000" stroke-linecap="round" stroke-linejoin="round" x1="0.4877" y1="21.5301" x2="2.9877" y2="21.5301"/>
			
				<line fill="none" stroke="#000000" stroke-linecap="round" stroke-linejoin="round" x1="5.9855" y1="21.5301" x2="8.4855" y2="21.5301"/>
		</g>
	</g>
	<g>
		<g>
			
				<line fill="none" stroke="#000000" stroke-linecap="round" stroke-linejoin="round" x1="15.4892" y1="21.5301" x2="17.9892" y2="21.5301"/>
			
				<line fill="none" stroke="#000000" stroke-linecap="round" stroke-linejoin="round" x1="20.987" y1="21.5301" x2="23.487" y2="21.5301"/>
		</g>
	</g>
	
		<line fill="none" stroke="#000000" stroke-linecap="round" stroke-linejoin="round" x1="12.0293" y1="17.9874" x2="12.0292" y2="20.66"/>
	
		<circle fill="none" stroke="#000000" stroke-linecap="round" stroke-linejoin="round" stroke-miterlimit="10" cx="12.0293" cy="21.5397" r="0.8797"/>
</g>
<rect x="0" y="0" fill="none" width="24" height="24"/>
</svg>
