<?xml version="1.0" encoding="utf-8"?>
<!-- Generator: Adobe Illustrator 18.1.0, SVG Export Plug-In . SVG Version: 6.00 Build 0)  -->
<svg version="1.1" id="Layer_1" xmlns="http://www.w3.org/2000/svg" xmlns:xlink="http://www.w3.org/1999/xlink" x="0px" y="0px"
	 width="24px" height="24px" viewBox="0 0 24 24" enable-background="new 0 0 24 24" xml:space="preserve">
<g>
	<path fill="none" stroke="#000000" stroke-linecap="round" stroke-linejoin="round" stroke-miterlimit="10" d="M7.4294,9.7561
		c0.0056,0,0.0101-0.0004,0.0156-0.0004c0.1844,2.4921,2.1478,4.9862,4.5457,4.9862c2.3974,0,4.3607-2.494,4.5456-4.9862
		c0.0051,0,0.0101,0.0004,0.0156,0.0004c0.9588,0,1.2371-1.3947,0.3633-1.8083c0.1803-0.5602,0.2792-1.1589,0.2792-1.7835
		c0-3.0482-2.3294-5.5197-5.2037-5.5197S6.7869,3.1161,6.7869,6.1643c0,0.6246,0.0993,1.2233,0.2791,1.7835
		C6.192,8.3609,6.4705,9.7561,7.4294,9.7561z"/>
	<path fill="none" stroke="#000000" stroke-linecap="round" stroke-linejoin="round" stroke-miterlimit="10" d="M23.3833,20.9804
		c-2.1247-2.0635-8.1526-4.255-8.223-4.2173c-1.7639,0.9455-4.5724,0.947-6.3401-0.0004c-0.0708-0.0373-6.0486,2.1068-8.2221,4.2177
		c-0.0943,0.0911-0.1472,0.2162-0.1472,0.3472v1.7334c0,0.2667,0.2171,0.4847,0.4847,0.4847h22.1101
		c0.2676,0,0.4847-0.218,0.4847-0.4847v-1.7334C23.5304,21.1965,23.4771,21.071,23.3833,20.9804z"/>
</g>
<rect x="0.0005" y="0.0004" fill="none" width="24" height="24"/>
</svg>
