<?xml version="1.0" encoding="utf-8"?>
<!-- Generator: Adobe Illustrator 18.1.0, SVG Export Plug-In . SVG Version: 6.00 Build 0)  -->
<svg version="1.1" id="Layer_1" xmlns="http://www.w3.org/2000/svg" xmlns:xlink="http://www.w3.org/1999/xlink" x="0px" y="0px"
	 width="24px" height="24px" viewBox="0 0 24 24" enable-background="new 0 0 24 24" xml:space="preserve">
<g>
	<path fill="none" stroke="#000000" stroke-linecap="round" stroke-linejoin="round" stroke-miterlimit="10" d="M20.894,5.8603
		L12.967,12.988c-0.6002,0.5397-1.5497,0.5397-2.1499,0L2.8902,5.8603"/>
	
		<line fill="none" stroke="#000000" stroke-linecap="round" stroke-linejoin="round" stroke-miterlimit="10" x1="8.2007" y1="13.7256" x2="2.8905" y2="18.1427"/>
	<path fill="none" stroke="#000000" stroke-linecap="round" stroke-linejoin="round" stroke-miterlimit="10" d="M21.0718,20.5
		c1.3171,0,2.4312-1.0237,2.4312-2.2878V5.7908c0-1.2642-1.0325-2.2907-2.3496-2.2907H2.8454C1.528,3.5,0.503,4.5266,0.503,5.7908
		v12.4215c0,1.2641,1.025,2.2878,2.3423,2.2878h9.4707"/>
	
		<circle fill="none" stroke="#000000" stroke-linecap="round" stroke-linejoin="round" stroke-miterlimit="10" cx="16.6936" cy="18.5271" r="4.8016"/>
	<polyline fill="none" stroke="#000000" stroke-linecap="round" stroke-linejoin="round" stroke-miterlimit="10" points="
		14.7639,19.3466 15.9099,20.3865 19.0501,17.671 	"/>
</g>
<rect x="0" y="0" fill="none" width="24" height="24"/>
</svg>
