<?xml version="1.0" encoding="utf-8"?>
<!-- Generator: Adobe Illustrator 18.1.0, SVG Export Plug-In . SVG Version: 6.00 Build 0)  -->
<svg version="1.1" id="Layer_1" xmlns="http://www.w3.org/2000/svg" xmlns:xlink="http://www.w3.org/1999/xlink" x="0px" y="0px"
	 width="24px" height="24px" viewBox="0 0 24 24" enable-background="new 0 0 24 24" xml:space="preserve">
<g>
	<polygon fill="none" stroke="#000000" stroke-linecap="round" stroke-linejoin="round" stroke-miterlimit="10" points="
		17.5251,16.4771 23.4977,17.8515 23.4977,2.6228 17.3856,1.5973 11.4864,4.3079 6.512,2.0227 0.5876,4.2648 0.5876,19.4937 
		6.512,17.2512 11.2577,19.3866 	"/>
	
		<line fill="none" stroke="#000000" stroke-linecap="round" stroke-linejoin="round" stroke-miterlimit="10" x1="17.927" y1="5.9971" x2="19.0276" y2="8.6313"/>
	
		<line fill="none" stroke="#000000" stroke-linecap="round" stroke-linejoin="round" stroke-miterlimit="10" x1="19.7938" y1="6.7639" x2="17.1598" y2="7.8649"/>
	<g>
		<g>
			<path fill="none" stroke="#000000" stroke-linecap="round" stroke-linejoin="round" d="M4.1207,13.3392
				c0,0,0.1627-0.3652,0.4366-0.8988"/>
			<path fill="none" stroke="#000000" stroke-linecap="round" stroke-linejoin="round" stroke-dasharray="1.7219,3.4439" d="
				M6.3944,9.5356c0.6092-0.73,1.2692-1.2615,1.8835-1.2247c1.8674,0.112,3.6954,5.8895,5.4069,5.9108
				c0.8135,0.0101,1.6703-0.9988,2.3455-2.0604"/>
			<path fill="none" stroke="#000000" stroke-linecap="round" stroke-linejoin="round" d="M16.8757,10.6563
				c0.2659-0.5302,0.4239-0.9029,0.4239-0.9029"/>
		</g>
	</g>
</g>
<rect x="-0.0136" y="0.0001" fill="none" width="24" height="24"/>
</svg>
