<?xml version="1.0" encoding="utf-8"?>
<!-- Generator: Adobe Illustrator 18.1.0, SVG Export Plug-In . SVG Version: 6.00 Build 0)  -->
<svg version="1.1" id="Layer_1" xmlns="http://www.w3.org/2000/svg" xmlns:xlink="http://www.w3.org/1999/xlink" x="0px" y="0px"
	 width="24px" height="24px" viewBox="0 0 24 24" enable-background="new 0 0 24 24" xml:space="preserve">
<g>
	<polyline fill="none" stroke="#000000" stroke-linecap="round" stroke-linejoin="round" points="10.4967,7.5072 10.4967,4.5764 
		13.5138,4.5764 13.5138,7.5064 	"/>
	
		<line fill="none" stroke="#000000" stroke-linecap="round" stroke-linejoin="round" x1="12.0053" y1="4.5764" x2="12.0053" y2="0.7293"/>
	<path fill="none" stroke="#000000" stroke-linecap="round" stroke-linejoin="round" d="M12.0053,23.4972
		c3.7274,0,6.8505-2.5516,7.7411-6.0008H4.2642C5.1548,20.9456,8.2779,23.4972,12.0053,23.4972z"/>
	<path fill="none" stroke="#000000" stroke-linecap="round" stroke-linejoin="round" d="M12.0053,7.4892
		c-3.7274,0-6.8505,2.5517-7.741,6.0008h15.4822C18.8558,10.0408,15.7326,7.4892,12.0053,7.4892z"/>
	<path fill="none" stroke="#000000" stroke-linecap="round" stroke-linejoin="round" d="M19.7464,13.49H4.2642
		c-0.1656,0.6413-0.2629,1.3101-0.2629,2.0033c0,0.693,0.0973,1.3618,0.2629,2.0032h15.4822
		c0.1655-0.6414,0.2629-1.3101,0.2629-2.0032C20.0093,14.8001,19.9119,14.1312,19.7464,13.49z"/>
</g>
<rect x="0.0142" y="0.0354" fill="none" width="24" height="24"/>
</svg>
