<?xml version="1.0" encoding="utf-8"?>
<!-- Generator: Adobe Illustrator 18.1.0, SVG Export Plug-In . SVG Version: 6.00 Build 0)  -->
<svg version="1.1" id="Layer_1" xmlns="http://www.w3.org/2000/svg" xmlns:xlink="http://www.w3.org/1999/xlink" x="0px" y="0px"
	 width="24px" height="24px" viewBox="0 0 24 24" enable-background="new 0 0 24 24" xml:space="preserve">
<g>
	<path fill="none" stroke="#000000" stroke-linecap="round" stroke-linejoin="round" stroke-miterlimit="10" d="M20.897,5.8603
		l-7.9269,7.1277c-0.6002,0.5397-1.5497,0.5397-2.1499,0L2.8932,5.8603"/>
	
		<line fill="none" stroke="#000000" stroke-linecap="round" stroke-linejoin="round" stroke-miterlimit="10" x1="8.2037" y1="13.7256" x2="2.8935" y2="18.1427"/>
	<path fill="none" stroke="#000000" stroke-linecap="round" stroke-linejoin="round" stroke-miterlimit="10" d="M22.0094,20.371
		c0.8994-0.313,1.4966-1.161,1.4966-2.1588V5.7908c0-1.2642-1.0325-2.2907-2.3496-2.2907H2.8484
		c-1.3173,0-2.3423,1.0266-2.3423,2.2907v12.4215c0,1.2641,1.025,2.2878,2.3423,2.2878H9.481"/>
	<path fill="none" stroke="#000000" stroke-linecap="round" stroke-linejoin="round" stroke-miterlimit="10" d="M17.543,19.6074
		v-1.197c0,0,0.1225-2.3433-2.91-1.2712"/>
	<path fill="none" stroke="#000000" stroke-linecap="round" stroke-linejoin="round" stroke-miterlimit="10" d="M17.543,18.7627
		c0,0-3.4635-0.9689-3.2469,1.0108c0.2144,1.9604,3.1397,0.9543,3.2469-0.1661c0,0-0.1099,1.278,1.068,1.278
		c1.1779,0,1.8643-1.1754,1.7376-2.4925c-0.2479-2.1676-2.1015-3.8507-4.3515-3.8507c-2.4188,0-4.3797,1.9452-4.3797,4.3448
		s1.9609,4.3448,4.3797,4.3448c0.9679,0,1.8624-0.3114,2.5873-0.8388"/>
</g>
<rect x="0" y="0" fill="none" width="24" height="24"/>
</svg>
