<?xml version="1.0" encoding="utf-8"?>
<!-- Generator: Adobe Illustrator 18.1.0, SVG Export Plug-In . SVG Version: 6.00 Build 0)  -->
<svg version="1.1" id="Layer_1" xmlns="http://www.w3.org/2000/svg" xmlns:xlink="http://www.w3.org/1999/xlink" x="0px" y="0px"
	 width="24px" height="24px" viewBox="0 0 24 24" enable-background="new 0 0 24 24" xml:space="preserve">
<g>
	<polyline fill="none" stroke="#000000" stroke-linecap="round" stroke-linejoin="round" stroke-miterlimit="10" points="
		13.674,17.5078 16.5512,17.5078 16.5512,23.4016 	"/>
	<path fill="none" stroke="#000000" stroke-linecap="round" stroke-linejoin="round" stroke-miterlimit="10" d="M18.5774,23.4016
		v-5.8938h2.8771l-2.2351-5.6002l0.4399-2.3288c0.1276-3.8941-0.1776-3.673-0.2366-3.7249
		c-0.1567-0.0463-0.3211-0.0726-0.4935-0.0726l-1.365,1.4739l-1.365-1.4739c-0.1724,0-0.3367,0.0262-0.4935,0.0726"/>
	
		<line fill="none" stroke="#000000" stroke-linecap="round" stroke-linejoin="round" stroke-miterlimit="10" x1="7.5024" y1="23.4817" x2="7.5027" y2="15.535"/>
	<path fill="none" stroke="#000000" stroke-linecap="round" stroke-linejoin="round" stroke-miterlimit="10" d="M8.9403,2.154
		c0,0.794-0.6436,1.9027-1.4376,1.9027S6.065,2.948,6.065,2.154s0.6436-1.4376,1.4376-1.4376S8.9403,1.36,8.9403,2.154z"/>
	<path fill="none" stroke="#000000" stroke-linecap="round" stroke-linejoin="round" stroke-miterlimit="10" d="M18.9293,2.3718
		c0,0.794-0.6111,1.9027-1.365,1.9027c-0.7539,0-1.365-1.1087-1.365-1.9027s0.6111-1.4376,1.365-1.4376
		C18.3182,0.9342,18.9293,1.5779,18.9293,2.3718z"/>
	
		<line fill="none" stroke="#000000" stroke-linecap="round" stroke-linejoin="round" stroke-miterlimit="10" x1="9.7689" y1="16.4342" x2="9.3627" y2="23.4817"/>
	<path fill="none" stroke="#000000" stroke-linecap="round" stroke-linejoin="round" stroke-miterlimit="10" d="M5.642,23.4817
		L5.0739,13.615c-0.0083-0.2066-0.6718,0.0623-0.6791-0.1336c-0.2702-7.233,0.3312-7.7954,0.3991-7.8523
		c0.08-0.0224,0.7362-0.0401,0.9325-0.0525C5.9919,5.56,6.2207,5.7221,6.3426,5.9586c0.4323,0.8385,1.8878,0.8385,2.3201,0
		C8.7846,5.7221,9.0135,5.56,9.279,5.5767c0.1964,0.0123,0.8525,0.0301,0.9325,0.0525c0.0302,0.0253,0.1663,0.1509,0.284,0.9211"/>
	<path fill="none" stroke="#000000" stroke-linecap="round" stroke-linejoin="round" stroke-miterlimit="10" d="M13.4743,15.4898
		l3.4622-3.3593c0.8196-0.7952,0.8393-2.1041,0.0441-2.9237c-0.7952-0.8195-2.1041-0.8392-2.9235-0.044l-0.0523,0.0507
		l-0.8661,1.0888l1.1536,0.9827l0.0508,1.7001L13.4743,15.4898z"/>
	<path fill="none" stroke="#000000" stroke-linecap="round" stroke-linejoin="round" stroke-miterlimit="10" d="M11.987,15.4819
		l-3.4749-3.3461c-0.8225-0.7921-0.8472-2.1009-0.0551-2.9234c0.792-0.8225,2.1009-0.8472,2.9234-0.0551l0.0516,0.0497
		l-0.7365,1.4798l1.2915,1.593V15.4819z"/>
</g>
<rect x="0.0142" y="0.0344" fill="none" width="24" height="24"/>
</svg>
