<?xml version="1.0" encoding="utf-8"?>
<!-- Generator: Adobe Illustrator 18.1.0, SVG Export Plug-In . SVG Version: 6.00 Build 0)  -->
<svg version="1.1" id="Layer_1" xmlns="http://www.w3.org/2000/svg" xmlns:xlink="http://www.w3.org/1999/xlink" x="0px" y="0px"
	 width="24px" height="24px" viewBox="0 0 24 24" enable-background="new 0 0 24 24" xml:space="preserve">
<g>
	<path fill="none" stroke="#000000" stroke-linecap="round" stroke-linejoin="round" d="M11.9852,12.0125
		c0.8047,3.9909-0.3831,7.9208-2.8779,10.7603"/>
	<path fill="none" stroke="#000000" stroke-linecap="round" stroke-linejoin="round" d="M9.2701,12.6468
		c-0.0054-0.0281-0.0085-0.0561-0.0141-0.0842l-0.0088,0.0015c-0.3047-1.5108,0.673-2.9823,2.1837-3.2869
		c1.5107-0.3046,2.9822,0.6731,3.2868,2.1838l-0.0031,0.0012c0.8513,4.2217-0.1223,8.3874-2.3764,11.6816"/>
	<path fill="none" stroke="#000000" stroke-linecap="round" stroke-linejoin="round" d="M9.4472,14.3964
		c0.0297,2.7797-1.1343,5.3889-3.0951,7.2235"/>
	<path fill="none" stroke="#000000" stroke-linecap="round" stroke-linejoin="round" d="M17.6561,16.7981
		c-0.2531,1.9688-0.8266,3.8614-1.6785,5.6101"/>
	<path fill="none" stroke="#000000" stroke-linecap="round" stroke-linejoin="round" d="M17.7923,15.0468
		c0.0408-1.3593-0.0681-2.7442-0.3485-4.1348l0.0008-0.0006c-0.6083-3.0169-3.5468-4.9692-6.5635-4.361
		c-3.0168,0.6083-4.9693,3.5469-4.3609,6.5638l0.0065-0.0013c0.5281,2.619-0.488,5.1902-2.4204,6.7732"/>
	<path fill="none" stroke="#000000" stroke-linecap="round" stroke-linejoin="round" d="M14.9788,4.2219
		c2.5752,0.9933,4.6067,3.2333,5.1927,6.1397l0.0015,0.0002c0.6567,3.2567,0.5158,6.4887-0.2857,9.4955"/>
	<path fill="none" stroke="#000000" stroke-linecap="round" stroke-linejoin="round" d="M3.8425,10.1564
		c0.71-3.1036,3.165-5.6626,6.4887-6.3328c1.0009-0.2018,1.9936-0.2059,2.9465-0.056"/>
	<path fill="none" stroke="#000000" stroke-linecap="round" stroke-linejoin="round" d="M3.6308,11.9025
		c-0.0071,0.5805,0.043,1.1697,0.1623,1.7617l0.0043-0.0009c0.3122,1.5486-0.2743,3.0694-1.4,4.0232"/>
	<path fill="none" stroke="#000000" stroke-linecap="round" stroke-linejoin="round" d="M23.1241,12.2372
		c0.0153-0.7986-0.0554-1.611-0.2198-2.4264l-0.006,0.0012c-1.2157-6.0291-7.088-9.9308-13.1169-8.7152
		c-1.6072,0.324-3.0611,0.9815-4.3094,1.8822"/>
	<path fill="none" stroke="#000000" stroke-linecap="round" stroke-linejoin="round" d="M4.1321,4.1158
		c-2.5597,2.5491-3.8336,6.2918-3.066,10.0983l0.006-0.0012c0.0323,0.16,0.0678,0.3183,0.1066,0.4752"/>
</g>
<rect x="-0.0136" fill="none" width="24" height="24"/>
</svg>
