<?xml version="1.0" encoding="utf-8"?>
<!-- Generator: Adobe Illustrator 18.1.0, SVG Export Plug-In . SVG Version: 6.00 Build 0)  -->
<svg version="1.1" id="Layer_1" xmlns="http://www.w3.org/2000/svg" xmlns:xlink="http://www.w3.org/1999/xlink" x="0px" y="0px"
	 width="24px" height="24px" viewBox="0 0 24 24" enable-background="new 0 0 24 24" xml:space="preserve">
<g>
	<polyline fill="none" stroke="#000000" stroke-linecap="round" stroke-linejoin="round" points="9.8334,15.3003 13.9344,19.4253 
		23.3432,9.0303 	"/>
	<polyline fill="none" stroke="#000000" stroke-linecap="round" stroke-linejoin="round" points="5.4624,11.4891 3.0426,5.5909 
		0.6229,11.4891 	"/>
	
		<line fill="none" stroke="#000000" stroke-linecap="round" stroke-linejoin="round" x1="4.6428" y1="9.4914" x2="1.4425" y2="9.4914"/>
	<path fill="none" stroke="#000000" stroke-linecap="round" stroke-linejoin="round" d="M7.5005,8.5351h2.6771
		c2.3283,0.0737,2.2297,2.8218-0.094,2.9442H7.5005v0.0098V5.5909h2.0602c2.8846,0.0749,2.5798,2.8246,0.1528,2.9442"/>
	<path fill="none" stroke="#000000" stroke-linecap="round" stroke-linejoin="round" d="M18.3575,6.3989
		c-0.5007-0.5063-1.1792-0.818-1.9271-0.818c-1.5396,0-2.7876,1.3182-2.7876,2.9442c0,1.626,1.2481,2.9442,2.7876,2.9442
		c0.7774,0,1.4801-0.3364,1.9857-0.8785"/>
</g>
<rect x="0" y="0.0011" fill="none" width="24" height="24"/>
</svg>
