<?xml version="1.0" encoding="utf-8"?>
<!-- Generator: Adobe Illustrator 18.1.0, SVG Export Plug-In . SVG Version: 6.00 Build 0)  -->
<svg version="1.1" id="Layer_1" xmlns="http://www.w3.org/2000/svg" xmlns:xlink="http://www.w3.org/1999/xlink" x="0px" y="0px"
	 width="24px" height="24px" viewBox="0 0 24 24" enable-background="new 0 0 24 24" xml:space="preserve">
<g>
	<path fill="none" stroke="#000000" stroke-linecap="round" stroke-linejoin="round" stroke-miterlimit="10" d="M8.8079,11.8426
		c-1.7521,1.7521-1.7521,4.6026,0,6.3547s4.6029,1.7523,6.355,0.0002c1.7521-1.7521,1.7518-4.6029-0.0003-6.3549
		S10.5599,10.0905,8.8079,11.8426z"/>
	
		<line fill="none" stroke="#000000" stroke-linecap="round" stroke-linejoin="round" stroke-miterlimit="10" x1="8.8078" y1="18.1973" x2="15.1625" y2="11.8426"/>
	<path fill="none" stroke="#000000" stroke-linecap="round" stroke-linejoin="round" stroke-miterlimit="10" d="M11.1622,2.7855
		L7.54,6.5002H1.4725c-0.5206,0-0.9813,0.4865-0.9813,1.0075v15.0605c0,0.5206,0.4607,0.932,0.9813,0.932h21.056
		c0.5202,0,0.9626-0.4114,0.9626-0.932V7.5077c0-0.521-0.4425-1.0075-0.9626-1.0075H16.461l-3.6228-3.7149"/>
	
		<circle fill="none" stroke="#000000" stroke-linecap="round" stroke-linejoin="round" stroke-miterlimit="10" cx="12.0002" cy="1.9258" r="1.2017"/>
	
		<line fill="none" stroke="#000000" stroke-linecap="round" stroke-linejoin="round" stroke-miterlimit="10" x1="7.54" y1="6.5002" x2="16.461" y2="6.5002"/>
</g>
<rect x="-0.0136" y="0.0002" fill="none" width="24" height="24"/>
</svg>
