<?xml version="1.0" encoding="utf-8"?>
<!-- Generator: Adobe Illustrator 18.1.0, SVG Export Plug-In . SVG Version: 6.00 Build 0)  -->
<svg version="1.1" id="Layer_1" xmlns="http://www.w3.org/2000/svg" xmlns:xlink="http://www.w3.org/1999/xlink" x="0px" y="0px"
	 width="24px" height="24px" viewBox="0 0 24 24" enable-background="new 0 0 24 24" xml:space="preserve">
<g>
	<path fill="none" stroke="#000000" stroke-linecap="round" stroke-linejoin="round" stroke-miterlimit="10" d="M11.9989,0.6876
		C5.75,0.6876,0.6675,5.7702,0.6675,12.019c0,6.248,5.0826,11.3315,11.3314,11.3315c6.248,0,11.3315-5.0835,11.3315-11.3315
		C23.3303,5.7702,18.2468,0.6876,11.9989,0.6876z"/>
	<path fill="none" stroke="#000000" stroke-linecap="round" stroke-linejoin="round" stroke-miterlimit="10" d="M19.5385,20.471
		c-2.4565-1.0237-4.8445-2.2021-5.075-2.9411v-0.9931c0.6568-0.6719,1.1748-1.609,1.4814-2.7061
		c0.7311-0.5133,0.9232-1.5791,0.31-2.3335V9.274c0-2.2951-1.278-3.8662-4.1999-3.8662c-2.8464,0-4.2014,1.5711-4.2014,3.8662v2.224
		c-0.611,0.7521-0.4211,1.8176,0.31,2.3323c0.3066,1.0975,0.825,2.0346,1.4822,2.7065v0.9931
		c-0.2323,0.7458-2.4686,1.8488-4.9567,2.8823"/>
</g>
<rect fill="none" width="24" height="24"/>
</svg>
