<?xml version="1.0" encoding="utf-8"?>
<!-- Generator: Adobe Illustrator 18.1.0, SVG Export Plug-In . SVG Version: 6.00 Build 0)  -->
<svg version="1.1" id="Layer_1" xmlns="http://www.w3.org/2000/svg" xmlns:xlink="http://www.w3.org/1999/xlink" x="0px" y="0px"
	 width="24px" height="24px" viewBox="0 0 24 24" enable-background="new 0 0 24 24" xml:space="preserve">
<g>
	<path fill="none" stroke="#000000" stroke-linecap="round" stroke-linejoin="round" stroke-miterlimit="10" d="M14.4886,6.4632
		c0-0.4932,0.0407-0.9758,0.1141-1.4469c0.1267-0.8128,0.112-1.6117,0.112-1.5793c0-1.5215-1.2289-2.7549-2.7447-2.7549
		c-0.5408,0-1.2457,0.1762-2.4744,0.1762c-0.7299,0-2.5052-0.1762-2.4745-0.1762c-1.5158,0-2.7446,1.2334-2.7446,2.7548v0
		c0,1.5278,0.2374,1.6449,0.2374,3.0262"/>
	<path fill="none" stroke="#000000" stroke-linecap="round" stroke-linejoin="round" stroke-miterlimit="10" d="M16.5876,6.4632
		c0-1.7746,1.08-4.1893-1.2663-5.4207"/>
	<path fill="none" stroke="#000000" stroke-linecap="round" stroke-linejoin="round" stroke-miterlimit="10" d="M19.4999,19.4828
		c0,1.1249-0.9119,2.0369-2.0369,2.0369H3.537c-1.1249,0-2.0369-0.912-2.0369-2.0369v-8.9262c0-1.1249,0.912-2.0369,2.0369-2.0369
		H17.463c1.1249,0,2.0369,0.912,2.0369,2.0369V19.4828z"/>
	
		<line fill="none" stroke="#000000" stroke-linecap="round" stroke-linejoin="round" stroke-miterlimit="10" x1="17.5087" y1="21.5197" x2="17.5087" y2="23.279"/>
	
		<line fill="none" stroke="#000000" stroke-linecap="round" stroke-linejoin="round" stroke-miterlimit="10" x1="3.5078" y1="21.5197" x2="3.5078" y2="23.279"/>
	<polyline fill="none" stroke="#000000" stroke-linecap="round" stroke-linejoin="round" stroke-miterlimit="10" points="
		22.5786,11.5197 23.5,11.5197 23.5,9.5197 21.4792,9.5197 	"/>
	
		<line fill="none" stroke="#000000" stroke-linecap="round" stroke-linejoin="round" stroke-miterlimit="10" x1="15.5281" y1="11.5576" x2="15.5281" y2="11.5576"/>
	
		<circle fill="none" stroke="#000000" stroke-linecap="round" stroke-linejoin="round" stroke-miterlimit="10" cx="10.5" cy="16.4733" r="1.91"/>
	
		<line fill="none" stroke="#000000" stroke-linecap="round" stroke-linejoin="round" stroke-miterlimit="10" x1="10.5" y1="14.5633" x2="10.5" y2="13.4387"/>
</g>
<rect x="0" y="0.0197" fill="none" width="24" height="24"/>
</svg>
