<?xml version="1.0" encoding="utf-8"?>
<!-- Generator: Adobe Illustrator 18.1.0, SVG Export Plug-In . SVG Version: 6.00 Build 0)  -->
<svg version="1.1" id="Layer_1" xmlns="http://www.w3.org/2000/svg" xmlns:xlink="http://www.w3.org/1999/xlink" x="0px" y="0px"
	 width="24px" height="24px" viewBox="0 0 24 24" enable-background="new 0 0 24 24" xml:space="preserve">
<g>
	
		<line fill="none" stroke="#000000" stroke-linecap="round" stroke-linejoin="round" stroke-miterlimit="10" x1="19.5598" y1="1.5097" x2="19.5598" y2="7.4728"/>
	
		<line fill="none" stroke="#000000" stroke-linecap="round" stroke-linejoin="round" stroke-miterlimit="10" x1="16.5783" y1="4.4912" x2="22.5414" y2="4.4912"/>
	<path fill="none" stroke="#000000" stroke-linecap="round" stroke-linejoin="round" d="M8.4727,17.1922
		c-0.6953,0.6673-1.13,1.6039-1.13,2.6437c0,2.025,1.6416,3.6666,3.6667,3.6666s3.6667-1.6417,3.6667-3.6666
		c0-1.1413-0.5215-2.1604-1.3391-2.8329V3.0547c-0.0181-1.4403-1.1136-2.4319-2.4236-2.4319c-1.4082,0-2.4406,1.1769-2.4406,2.3891
		V17.1922z"/>
	<circle fill="none" stroke="#000000" stroke-linecap="round" stroke-linejoin="round" cx="11.0094" cy="20.0133" r="0.6865"/>
	
		<line fill="none" stroke="#000000" stroke-linecap="round" stroke-linejoin="round" x1="11.0094" y1="19.3268" x2="11.0094" y2="6.1255"/>
	
		<line fill="none" stroke="#000000" stroke-linecap="round" stroke-linejoin="round" x1="5.8983" y1="4.5354" x2="8.4727" y2="4.5354"/>
	
		<line fill="none" stroke="#000000" stroke-linecap="round" stroke-linejoin="round" x1="5.8983" y1="9.5359" x2="8.4727" y2="9.5359"/>
	
		<line fill="none" stroke="#000000" stroke-linecap="round" stroke-linejoin="round" x1="5.8983" y1="14.5364" x2="8.4727" y2="14.5364"/>
</g>
<rect x="0.0222" y="0.0354" fill="none" width="24" height="24"/>
</svg>
