<?xml version="1.0" encoding="utf-8"?>
<!-- Generator: Adobe Illustrator 18.1.0, SVG Export Plug-In . SVG Version: 6.00 Build 0)  -->
<svg version="1.1" id="Layer_1" xmlns="http://www.w3.org/2000/svg" xmlns:xlink="http://www.w3.org/1999/xlink" x="0px" y="0px"
	 width="24px" height="24px" viewBox="0 0 24 24" enable-background="new 0 0 24 24" xml:space="preserve">
<g>
	<path fill="none" stroke="#000000" stroke-linecap="round" stroke-linejoin="round" d="M11.0778,17.5794
		c0,0-2.5612-2.403,1.7433-6.0631C12.821,11.5163,16.9832,17.2658,11.0778,17.5794z"/>
	<g>
		<circle fill="none" stroke="#000000" stroke-linecap="round" stroke-linejoin="round" cx="5.4678" cy="17.5" r="1.948"/>
		<circle fill="none" stroke="#000000" stroke-linecap="round" stroke-linejoin="round" cx="18.4558" cy="17.5" r="1.948"/>
		<path fill="none" stroke="#000000" stroke-linecap="round" stroke-linejoin="round" stroke-miterlimit="10" d="M22.4208,17.5
			h0.8667c-0.0857-5-4.0746-5.1586-5.4018-5.0726c-0.2382,0.0154-0.4534-0.1409-0.513-0.3714
			c-0.3122-1.2088-1.6086-4.5442-6.2688-4.5203c-0.1195,0.0006-1.1879,0-1.3039,0.0034C4.2317,7.7031,3.4813,10.986,3.386,12.1106
			c-0.0186,0.2201-0.1869,0.377-0.4001,0.4369C0.524,13.2393,0.6244,17.5,0.6244,17.5h0.6995"/>
	</g>
	<path fill="none" stroke="#000000" stroke-linecap="round" stroke-linejoin="round" d="M12.3971,14.3194
		c0,0-0.8174,1.9043-1.3194,3.26c0,0,0.4712,2.6877-0.7563,3.5542"/>
</g>
<rect x="0.0005" y="0" fill="none" width="24" height="24"/>
</svg>
