<?xml version="1.0" encoding="utf-8"?>
<!-- Generator: Adobe Illustrator 18.1.0, SVG Export Plug-In . SVG Version: 6.00 Build 0)  -->
<svg version="1.1" id="Layer_1" xmlns="http://www.w3.org/2000/svg" xmlns:xlink="http://www.w3.org/1999/xlink" x="0px" y="0px"
	 width="24px" height="24px" viewBox="0 0 24 24" enable-background="new 0 0 24 24" xml:space="preserve">
<g>
	<path fill="none" stroke="#000000" stroke-linecap="round" stroke-linejoin="round" stroke-miterlimit="10" d="M16.0095,19.3176"/>
	<polyline fill="none" stroke="#000000" stroke-linecap="round" stroke-linejoin="round" stroke-miterlimit="10" points="
		2.4737,18.4399 2.4737,19.3176 3.0811,19.3176 3.0811,21.4374 4.5318,21.4374 	"/>
	<path fill="none" stroke="#000000" stroke-linecap="round" stroke-linejoin="round" stroke-miterlimit="10" d="M20.5115,21.5
		h1.9748v-4.2037c0-0.2048-0.1158-0.3689-0.2921-0.4657l-3.318-1.4372l-2.3217-3.5499c-0.1041-0.1747-0.2923-0.2818-0.4957-0.2818
		L2.4864,11.542v0.969"/>
	
		<line fill="none" stroke="#000000" stroke-linecap="round" stroke-linejoin="round" stroke-miterlimit="10" x1="8.4409" y1="21.5" x2="16.6022" y2="21.5"/>
	
		<circle fill="none" stroke="#000000" stroke-linecap="round" stroke-linejoin="round" stroke-miterlimit="10" cx="18.557" cy="21.4374" r="1.9546"/>
	
		<circle fill="none" stroke="#000000" stroke-linecap="round" stroke-linejoin="round" stroke-miterlimit="10" cx="6.4864" cy="21.4374" r="1.9546"/>
	
		<line fill="none" stroke="#000000" stroke-linecap="round" stroke-linejoin="round" stroke-miterlimit="10" x1="3.5318" y1="16.5" x2="1.5318" y2="16.5"/>
	
		<line fill="none" stroke="#000000" stroke-linecap="round" stroke-linejoin="round" stroke-miterlimit="10" x1="0.5318" y1="14.5" x2="4.5318" y2="14.5"/>
	<polygon fill="none" stroke="#000000" stroke-linecap="round" stroke-linejoin="round" stroke-miterlimit="10" points="
		17.1262,16.5 13.4864,16.5 13.4864,13.5 15.1438,13.5 	"/>
	
		<line fill="none" stroke="#000000" stroke-linecap="round" stroke-linejoin="round" stroke-miterlimit="10" x1="6.4864" y1="21.4374" x2="6.4864" y2="21.4374"/>
	
		<line fill="none" stroke="#000000" stroke-linecap="round" stroke-linejoin="round" stroke-miterlimit="10" x1="18.5569" y1="21.4374" x2="18.5569" y2="21.4374"/>
	<path fill="none" stroke="#000000" stroke-linecap="round" stroke-linejoin="round" stroke-miterlimit="10" d="M14.5336,4.0168
		L11.9339,5.043c-0.9472,0.3739-1.6111-0.1157-3.8916-0.9755L7.5148,4.2757L9.4055,6.041L8.9439,6.2232
		c-1.0044,0.3965,3.4925,0.2059,4.7995-0.0985l7.475-2.9506c0,0,2.5779-1.0176,1.6854-1.5028
		c-0.9924-0.5395-3.3417,0.3606-3.3417,0.3606l-2.8789,1.1364l-4.2355-2.2388l-0.2887,0.114L14.5336,4.0168z"/>
	
		<rect x="6.4864" y="13.5" fill="none" stroke="#000000" stroke-linecap="round" stroke-linejoin="round" stroke-miterlimit="10" width="7" height="3"/>
</g>
<rect x="-0.0136" y="0" fill="none" width="24" height="24"/>
</svg>
