<?xml version="1.0" encoding="utf-8"?>
<!-- Generator: Adobe Illustrator 18.1.0, SVG Export Plug-In . SVG Version: 6.00 Build 0)  -->
<svg version="1.1" id="Layer_1" xmlns="http://www.w3.org/2000/svg" xmlns:xlink="http://www.w3.org/1999/xlink" x="0px" y="0px"
	 width="24px" height="24px" viewBox="0 0 24 24" enable-background="new 0 0 24 24" xml:space="preserve">
<g>
	<polyline fill="none" stroke="#000000" stroke-linecap="round" stroke-linejoin="round" points="10.4864,9.5424 3.4859,9.5424 
		3.4864,2.0001 	"/>
	<polyline fill="none" stroke="#000000" stroke-linecap="round" stroke-linejoin="round" points="20.4864,2.0001 20.4864,9.5001 
		13.4864,9.5001 	"/>
	<polyline fill="none" stroke="#000000" stroke-linecap="round" stroke-linejoin="round" points="21.9864,3.5001 23.4864,3.5001 
		23.4864,0.5001 0.4864,0.5001 0.4864,3.5001 1.9864,3.5001 	"/>
	<path fill="none" stroke="#000000" stroke-linecap="round" stroke-linejoin="round" d="M10.1652,23.0648
		c-3.0052-5.2838,0.3212-9.7336,0.3212-9.7336V7.0001c0-1.9951,3-1.9982,3,0v6"/>
	<path fill="none" stroke="#000000" stroke-linecap="round" stroke-linejoin="round" d="M19.07,9.5001
		c0,0,0.5676,2.6321-1.386,8.0103c-0.9783,2.6934-1.3322,5.72-1.3322,5.72"/>
	<path fill="none" stroke="#000000" stroke-linecap="round" stroke-linejoin="round" d="M10.4864,12.4221H7.0187
		c-1.8557,0-1.8433-2.8796,0-2.8796h3.4677V12.4221z"/>
	<path fill="none" stroke="#000000" stroke-linecap="round" stroke-linejoin="round" d="M9.484,15.3007H8.2361
		c-1.8599,0-1.8619-2.8787,0-2.8787h2.2502"/>
</g>
<rect x="-0.0136" y="0.0001" fill="none" width="24" height="24"/>
</svg>
