<?xml version="1.0" encoding="utf-8"?>
<!-- Generator: Adobe Illustrator 18.1.0, SVG Export Plug-In . SVG Version: 6.00 Build 0)  -->
<svg version="1.1" id="Layer_1" xmlns="http://www.w3.org/2000/svg" xmlns:xlink="http://www.w3.org/1999/xlink" x="0px" y="0px"
	 width="24px" height="24px" viewBox="0 0 24 24" enable-background="new 0 0 24 24" xml:space="preserve">
<g>
	<path fill="none" stroke="#000000" stroke-linecap="round" stroke-linejoin="round" stroke-miterlimit="10" d="M17.9542,17.3198
		c-3.5548,0.3714-8.3773,0.3714-11.9321,0c0,0-0.4161,0.4099-0.5112,1.268c0,0,5.8542,1.2616,5.9472,4.7138
		c0.2903,0.1529,0.7699,0.1529,1.0602,0c0.093-3.4522,5.9472-4.7138,5.9472-4.7138C18.3704,17.7297,17.9542,17.3198,17.9542,17.3198
		z"/>
	<path fill="none" stroke="#000000" stroke-linecap="round" stroke-linejoin="round" stroke-miterlimit="10" d="M6.2401,5.5327
		c0,0,3.7851,1.721,5.0889,3.9722c0,0-1.1756,2.2068-3.8857,2.035C4.6388,11.3621,4.1869,7.2095,6.2401,5.5327z"/>
	
		<line fill="none" stroke="#000000" stroke-linecap="round" stroke-linejoin="round" stroke-miterlimit="10" x1="11.3289" y1="9.5049" x2="12.6711" y2="9.5049"/>
	
		<line fill="none" stroke="#000000" stroke-linecap="round" stroke-linejoin="round" stroke-miterlimit="10" x1="6.2401" y1="5.5327" x2="8.2256" y2="1.005"/>
	<path fill="none" stroke="#000000" stroke-linecap="round" stroke-linejoin="round" stroke-miterlimit="10" d="M17.7599,5.5327
		c0,0-3.7851,1.721-5.0889,3.9722c0,0,1.1756,2.2068,3.8857,2.035C19.3612,11.3621,19.8131,7.2095,17.7599,5.5327z"/>
	
		<line fill="none" stroke="#000000" stroke-linecap="round" stroke-linejoin="round" stroke-miterlimit="10" x1="17.7599" y1="5.5327" x2="15.7744" y2="1.005"/>
</g>
<rect x="0" y="0.0354" fill="none" width="24" height="24"/>
</svg>
