<?xml version="1.0" encoding="utf-8"?>
<!-- Generator: Adobe Illustrator 18.1.0, SVG Export Plug-In . SVG Version: 6.00 Build 0)  -->
<svg version="1.1" id="Layer_1" xmlns="http://www.w3.org/2000/svg" xmlns:xlink="http://www.w3.org/1999/xlink" x="0px" y="0px"
	 width="24px" height="24px" viewBox="0 0 24 24" enable-background="new 0 0 24 24" xml:space="preserve">
<g>
	
		<rect x="0.5" y="0.5" fill="none" stroke="#000000" stroke-linecap="round" stroke-linejoin="round" stroke-miterlimit="10" width="23" height="23"/>
	<polyline fill="none" stroke="#000000" stroke-linecap="round" stroke-linejoin="round" stroke-miterlimit="10" points="
		6.5495,6.654 12.3339,12.3999 15.8496,10.3907 	"/>
	<circle fill="none" stroke="#000000" cx="20.2975" cy="11.8453" r="0.8202"/>
	<circle fill="none" stroke="#000000" cx="3.7024" cy="11.8453" r="0.8202"/>
	<circle fill="none" stroke="#000000" cx="11.9915" cy="3.5856" r="0.8202"/>
	<circle fill="none" stroke="#000000" cx="11.9915" cy="20.1657" r="0.8202"/>
	
		<line fill="none" stroke="#000000" stroke-linecap="round" stroke-linejoin="round" stroke-miterlimit="10" x1="7.7924" y1="4.7157" x2="7.7924" y2="4.7157"/>
	
		<line fill="none" stroke="#000000" stroke-linecap="round" stroke-linejoin="round" stroke-miterlimit="10" x1="7.7924" y1="19.0414" x2="7.7924" y2="19.0414"/>
	
		<line fill="none" stroke="#000000" stroke-linecap="round" stroke-linejoin="round" stroke-miterlimit="10" x1="16.1106" y1="4.6696" x2="16.1106" y2="4.6696"/>
	
		<line fill="none" stroke="#000000" stroke-linecap="round" stroke-linejoin="round" stroke-miterlimit="10" x1="16.1106" y1="19.0874" x2="16.1106" y2="19.0874"/>
	
		<line fill="none" stroke="#000000" stroke-linecap="round" stroke-linejoin="round" stroke-miterlimit="10" x1="19.1744" y1="7.6996" x2="19.1744" y2="7.6996"/>
	
		<line fill="none" stroke="#000000" stroke-linecap="round" stroke-linejoin="round" stroke-miterlimit="10" x1="19.1744" y1="16.0741" x2="19.1744" y2="16.0741"/>
	
		<line fill="none" stroke="#000000" stroke-linecap="round" stroke-linejoin="round" stroke-miterlimit="10" x1="4.7615" y1="7.7765" x2="4.7615" y2="7.7765"/>
	
		<line fill="none" stroke="#000000" stroke-linecap="round" stroke-linejoin="round" stroke-miterlimit="10" x1="4.7615" y1="15.9971" x2="4.7615" y2="15.9971"/>
</g>
<rect x="0" y="0" fill="none" width="24" height="24"/>
</svg>
