<?xml version="1.0" encoding="utf-8"?>
<!-- Generator: Adobe Illustrator 18.1.0, SVG Export Plug-In . SVG Version: 6.00 Build 0)  -->
<svg version="1.1" id="Layer_1" xmlns="http://www.w3.org/2000/svg" xmlns:xlink="http://www.w3.org/1999/xlink" x="0px" y="0px"
	 width="24px" height="24px" viewBox="0 0 24 24" enable-background="new 0 0 24 24" xml:space="preserve">
<g>
	<polyline fill="none" stroke="#000000" stroke-linecap="round" stroke-linejoin="round" points="18.7412,16.4248 18.7412,13.5663 
		20.5912,13.5663 	"/>
	
		<line fill="none" stroke="#000000" stroke-linecap="round" stroke-linejoin="round" x1="18.7412" y1="14.9955" x2="20.3301" y2="14.9955"/>
	<path fill="none" stroke="#000000" stroke-linecap="round" stroke-linejoin="round" stroke-miterlimit="10" d="M22.4222,10.5067
		H9.5058c-0.5798,0-1.05,0.4699-1.05,1.05v6.9392c0,0.5801,0.4702,1.05,1.05,1.05h12.9164c0.5793,0,1.049-0.4699,1.049-1.05v-6.9392
		C23.4712,10.9766,23.0015,10.5067,22.4222,10.5067z"/>
	<polyline fill="none" stroke="#000000" stroke-linecap="round" stroke-linejoin="round" stroke-miterlimit="10" points="
		14.3302,0.5289 14.3344,4.5001 18.4733,4.5001 	"/>
	<path fill="none" stroke="#000000" stroke-linecap="round" stroke-linejoin="round" stroke-miterlimit="10" d="M18.4733,8.4024
		V4.5001c0-0.2135-0.0862-0.2946-0.238-0.4443l-3.3452-3.2974c-0.1491-0.147-0.3502-0.2294-0.5599-0.2294l-12.9942,0
		c-0.4409,0-0.7979,0.3572-0.7979,0.7979v21.3462c0,0.441,0.357,0.7982,0.7979,0.7982h16.3384c0.4419,0,0.7989-0.3572,0.7989-0.7982
		v-1.1098"/>
	<path fill="none" stroke="#000000" stroke-linecap="round" stroke-linejoin="round" d="M11.5026,16.4249v-2.8584h1.0725
		c0,0,0.9182-0.0334,0.9182,0.7387c0,0.8001-0.9182,0.8077-0.9182,0.8077l-1.0725,0.0024"/>
	<path fill="none" stroke="#000000" stroke-linecap="round" stroke-linejoin="round" d="M15.8251,16.42
		c0.7429,0,1.3452-0.6388,1.3452-1.4268c0-0.788-0.6023-1.4268-1.3452-1.4268v0h-0.965v2.8584h0.965V16.42z"/>
</g>
<rect x="0" y="0.0001" fill="none" width="24" height="24"/>
</svg>
