<?xml version="1.0" encoding="utf-8"?>
<!-- Generator: Adobe Illustrator 18.1.0, SVG Export Plug-In . SVG Version: 6.00 Build 0)  -->
<svg version="1.1" id="Layer_1" xmlns="http://www.w3.org/2000/svg" xmlns:xlink="http://www.w3.org/1999/xlink" x="0px" y="0px"
	 width="24px" height="24px" viewBox="0 0 24 24" enable-background="new 0 0 24 24" xml:space="preserve">
<g>
	
		<circle fill="none" stroke="#000000" stroke-linecap="round" stroke-linejoin="round" stroke-miterlimit="10" cx="17.9087" cy="15.7356" r="4.5453"/>
	<polyline fill="none" stroke="#000000" stroke-linecap="round" stroke-linejoin="round" stroke-miterlimit="10" points="
		18.5087,21.9062 18.5087,23.5418 3.5217,23.5418 3.5217,5.5544 18.5087,5.5544 18.5087,9.3618 	"/>
	<path fill="none" stroke="#000000" stroke-linecap="round" stroke-linejoin="round" stroke-miterlimit="10" d="M14.4816,7.5231
		V4.1891c0-1.9364-1.4745-3.6891-3.411-3.6891h-0.0612c-1.9364,0-3.5279,1.7527-3.5279,3.6891v3.3339"/>
	<path fill="none" stroke="#000000" stroke-linecap="round" stroke-linejoin="round" stroke-miterlimit="10" d="M17.0259,17.5651
		c0.4444,0.2104,1.0607,0.289,1.4582,0.1773c0.6359-0.1788,1.0248-0.7744,0.8685-1.3304c-0.1563-0.556-0.7841-0.6763-1.4345-0.6831
		c-0.6778-0.0201-1.2782-0.127-1.4345-0.6831c-0.1563-0.556,0.2325-1.1517,0.8685-1.3304c0.4282-0.1204,0.8593-0.021,1.1429,0.2264"
		/>
	
		<line fill="none" stroke="#000000" stroke-linecap="round" stroke-linejoin="round" stroke-miterlimit="10" x1="17.1973" y1="13.1652" x2="17.352" y2="13.7154"/>
	
		<line fill="none" stroke="#000000" stroke-linecap="round" stroke-linejoin="round" stroke-miterlimit="10" x1="18.484" y1="17.7424" x2="18.6387" y2="18.2925"/>
</g>
<rect x="-0.0136" y="0" fill="none" width="24" height="24"/>
</svg>
