<?xml version="1.0" encoding="utf-8"?>
<!-- Generator: Adobe Illustrator 18.1.0, SVG Export Plug-In . SVG Version: 6.00 Build 0)  -->
<svg version="1.1" id="Layer_1" xmlns="http://www.w3.org/2000/svg" xmlns:xlink="http://www.w3.org/1999/xlink" x="0px" y="0px"
	 width="24px" height="24px" viewBox="0 0 24 24" enable-background="new 0 0 24 24" xml:space="preserve">
<g>
	<path fill="none" stroke="#000000" stroke-linecap="round" stroke-linejoin="round" stroke-miterlimit="10" d="M16.5142,21.8757
		v1.6587h7v-3h-23v1.4268c0,0.8904,0.7175,1.5732,1.462,1.5732h3.2468C5.2231,23.5344,9.5142,23.7598,16.5142,21.8757z"/>
	<path fill="none" stroke="#000000" stroke-linecap="round" stroke-linejoin="round" stroke-miterlimit="10" d="M0.8347,20.5344
		c0,0-0.0365-4.4384,3.3246-4.7606c3.3612-0.3222,9.2067,0.179,9.6085-3.7953C14.0995,8.6987,13.5136,0.516,13.5136,0.516h10.0006
		l-0.702,20.0184"/>
	<path fill="none" stroke="#000000" stroke-linecap="round" stroke-linejoin="round" stroke-miterlimit="10" d="M15.4821,0.516
		l-0.0337,9.068c0,0,0.0337,1.2115-1.61,1.3447"/>
	<path fill="none" stroke="#000000" stroke-linecap="round" stroke-linejoin="round" stroke-miterlimit="10" d="M13.3312,12.1883
		c0,0,2.0691-0.3348,2.8143,0.9142"/>
	<path fill="none" stroke="#000000" stroke-linecap="round" stroke-linejoin="round" stroke-miterlimit="10" d="M12.4774,13.5726
		c0,0,2.0314,0.1756,2.487,1.5569"/>
	<path fill="none" stroke="#000000" stroke-linecap="round" stroke-linejoin="round" stroke-miterlimit="10" d="M10.9296,14.6505
		c0,0,1.8685,0.4941,1.9916,1.9433"/>
</g>
<rect x="0.0142" y="0.0344" fill="none" width="24" height="24"/>
</svg>
