<?xml version="1.0" encoding="utf-8"?>
<!-- Generator: Adobe Illustrator 18.1.0, SVG Export Plug-In . SVG Version: 6.00 Build 0)  -->
<svg version="1.1" id="Layer_1" xmlns="http://www.w3.org/2000/svg" xmlns:xlink="http://www.w3.org/1999/xlink" x="0px" y="0px"
	 width="24px" height="24px" viewBox="0 0 24 24" enable-background="new 0 0 24 24" xml:space="preserve">
<g>
	
		<line fill="none" stroke="#000000" stroke-linecap="round" stroke-linejoin="round" stroke-miterlimit="10" x1="5.4288" y1="23.5097" x2="5.4288" y2="16.5843"/>
	
		<line fill="none" stroke="#000000" stroke-linecap="round" stroke-linejoin="round" stroke-miterlimit="10" x1="18.5076" y1="6.5074" x2="18.5076" y2="23.5097"/>
	<path fill="none" stroke="#000000" stroke-linecap="round" stroke-linejoin="round" stroke-miterlimit="10" d="M13.936,14.0111
		l-4.211,4.211l-5.2243-5.2243c-0.1511-0.1511-0.2231-0.3641-0.1946-0.5759l0.4541-3.3756l3.3756-0.4541
		c0.2118-0.0285,0.4248,0.0435,0.5759,0.1946L13.936,14.0111z"/>
	
		<line fill="none" stroke="#000000" stroke-linecap="round" stroke-linejoin="round" stroke-miterlimit="10" x1="6.4295" y1="10.7156" x2="6.4295" y2="10.7156"/>
	
		<line fill="none" stroke="#000000" stroke-linecap="round" stroke-linejoin="round" stroke-miterlimit="10" x1="8.1624" y1="14.382" x2="9.1843" y2="13.3601"/>
	
		<line fill="none" stroke="#000000" stroke-linecap="round" stroke-linejoin="round" stroke-miterlimit="10" x1="9.5111" y1="15.7306" x2="11.429" y2="13.8127"/>
	<g>
		<path fill="none" stroke="#000000" stroke-linecap="round" stroke-linejoin="round" stroke-miterlimit="10" d="M23.5079,21.3825
			c0,1.1749-0.9524,2.1273-2.1273,2.1273H2.5557c-1.1749,0-2.1273-0.9524-2.1273-2.1273V8.6347
			c0-1.1749,0.9524-2.1273,2.1273-2.1273h18.8249c1.1749,0,2.1273,0.9524,2.1273,2.1273V21.3825z"/>
		<path fill="none" stroke="#000000" stroke-linecap="round" stroke-linejoin="round" stroke-miterlimit="10" d="M8.4411,4.507
			V4.1352c0-0.9317,0.7991-1.687,1.7849-1.687h3.4845c0.9858,0,1.7849,0.7553,1.7849,1.687V4.507"/>
	</g>
</g>
<rect x="-0.0136" y="0" fill="none" width="24" height="24"/>
</svg>
