<?xml version="1.0" encoding="utf-8"?>
<!-- Generator: Adobe Illustrator 18.1.0, SVG Export Plug-In . SVG Version: 6.00 Build 0)  -->
<svg version="1.1" id="Layer_1" xmlns="http://www.w3.org/2000/svg" xmlns:xlink="http://www.w3.org/1999/xlink" x="0px" y="0px"
	 width="24px" height="24px" viewBox="0 0 24 24" enable-background="new 0 0 24 24" xml:space="preserve">
<g>
	<path fill="none" stroke="#000000" stroke-linecap="round" stroke-linejoin="round" stroke-miterlimit="10" d="M8.3249,20.1726
		l-0.4802,2.9637c0,0.2166,0.2151,0.3919,0.4802,0.3919h7.3767c0.2651,0,0.4802-0.1752,0.4802-0.3919l-0.4811-2.9637"/>
	<path fill="none" stroke="#000000" stroke-linecap="round" stroke-linejoin="round" stroke-miterlimit="10" d="M21.8882,0.5H2.1375
		c-0.9087,0-1.6231,0.7228-1.6231,1.6311v13.731c0,0.9087,0.7144,1.6379,1.6231,1.6379h19.7507
		c0.9097,0,1.6262-0.7292,1.6262-1.6379V2.131C23.5144,1.2228,22.7979,0.5,21.8882,0.5z"/>
	
		<line fill="none" stroke="#000000" stroke-linecap="round" stroke-linejoin="round" stroke-miterlimit="10" x1="0.5155" y1="14.5" x2="23.5144" y2="14.5"/>
	
		<circle fill="none" stroke="#000000" stroke-linecap="round" stroke-linejoin="round" stroke-miterlimit="10" cx="11.9989" cy="7.5456" r="0.8227"/>
	
		<circle fill="none" stroke="#000000" stroke-linecap="round" stroke-linejoin="round" stroke-miterlimit="10" cx="11.9989" cy="7.549" r="3.5146"/>
	
		<line fill="none" stroke="#000000" stroke-linecap="round" stroke-linejoin="round" stroke-miterlimit="10" x1="11.9989" y1="4.0344" x2="11.9989" y2="3.0237"/>
	
		<line fill="none" stroke="#000000" stroke-linecap="round" stroke-linejoin="round" stroke-miterlimit="10" x1="11.9989" y1="12.1013" x2="11.9989" y2="11.0906"/>
	
		<line fill="none" stroke="#000000" stroke-linecap="round" stroke-linejoin="round" stroke-miterlimit="10" x1="15.527" y1="7.5625" x2="16.5377" y2="7.5625"/>
	
		<line fill="none" stroke="#000000" stroke-linecap="round" stroke-linejoin="round" stroke-miterlimit="10" x1="7.4601" y1="7.5625" x2="8.4708" y2="7.5625"/>
	
		<line fill="none" stroke="#000000" stroke-linecap="round" stroke-linejoin="round" stroke-miterlimit="10" x1="13.7629" y1="4.5071" x2="14.2683" y2="3.6318"/>
	
		<line fill="none" stroke="#000000" stroke-linecap="round" stroke-linejoin="round" stroke-miterlimit="10" x1="9.7295" y1="11.4932" x2="10.2348" y2="10.6179"/>
	
		<line fill="none" stroke="#000000" stroke-linecap="round" stroke-linejoin="round" stroke-miterlimit="10" x1="10.2348" y1="4.5071" x2="9.7295" y2="3.6318"/>
	
		<line fill="none" stroke="#000000" stroke-linecap="round" stroke-linejoin="round" stroke-miterlimit="10" x1="14.2683" y1="11.4932" x2="13.7629" y2="10.6179"/>
	
		<line fill="none" stroke="#000000" stroke-linecap="round" stroke-linejoin="round" stroke-miterlimit="10" x1="15.0543" y1="9.3266" x2="15.9296" y2="9.8319"/>
	
		<line fill="none" stroke="#000000" stroke-linecap="round" stroke-linejoin="round" stroke-miterlimit="10" x1="8.0682" y1="5.2931" x2="8.9434" y2="5.7984"/>
	
		<line fill="none" stroke="#000000" stroke-linecap="round" stroke-linejoin="round" stroke-miterlimit="10" x1="15.0543" y1="5.7984" x2="15.9296" y2="5.2931"/>
	
		<line fill="none" stroke="#000000" stroke-linecap="round" stroke-linejoin="round" stroke-miterlimit="10" x1="8.0682" y1="9.8319" x2="8.9434" y2="9.3266"/>
</g>
<rect x="0" y="0" fill="none" width="24" height="24"/>
</svg>
