<?xml version="1.0" encoding="utf-8"?>
<!-- Generator: Adobe Illustrator 18.1.0, SVG Export Plug-In . SVG Version: 6.00 Build 0)  -->
<svg version="1.1" id="Layer_1" xmlns="http://www.w3.org/2000/svg" xmlns:xlink="http://www.w3.org/1999/xlink" x="0px" y="0px"
	 width="24px" height="24px" viewBox="0 0 24 24" enable-background="new 0 0 24 24" xml:space="preserve">
<g>
	<path fill="none" stroke="#000000" stroke-linecap="round" stroke-linejoin="round" stroke-miterlimit="10" d="M11.9852,0.6578
		c-6.2414,0-11.3179,5.0765-11.3179,11.3179c0,6.2405,5.0765,11.3179,11.3179,11.3179c6.2405,0,11.3179-5.0774,11.3179-11.3179
		C23.3032,5.7343,18.2257,0.6578,11.9852,0.6578z"/>
	
		<line fill="none" stroke="#000000" stroke-linecap="round" stroke-linejoin="round" x1="11.5217" y1="18.5817" x2="11.5217" y2="18.2197"/>
	<path fill="none" stroke="#000000" stroke-linecap="round" stroke-linejoin="round" d="M11.5217,15.6197v-2.1966
		c0-0.3404,0.2189-0.6422,0.5449-0.7578c1.9837-0.7039,3.6352-1.7767,3.6352-3.6005c0-1.9886-1.8346-3.6006-4.0977-3.6006
		c-1.5238,0-2.8534,0.7309-3.5594,1.8155"/>
</g>
<rect x="-0.0136" y="0.0002" fill="none" width="24" height="24"/>
</svg>
