<?xml version="1.0" encoding="utf-8"?>
<!-- Generator: Adobe Illustrator 18.1.0, SVG Export Plug-In . SVG Version: 6.00 Build 0)  -->
<svg version="1.1" id="Layer_1" xmlns="http://www.w3.org/2000/svg" xmlns:xlink="http://www.w3.org/1999/xlink" x="0px" y="0px"
	 width="24px" height="24px" viewBox="0 0 24 24" enable-background="new 0 0 24 24" xml:space="preserve">
<g>
	
		<line fill="none" stroke="#000000" stroke-linecap="round" stroke-linejoin="round" x1="3.8336" y1="16.4908" x2="7.4093" y2="22.8606"/>
	<path fill="none" stroke="#000000" stroke-linecap="round" stroke-linejoin="round" d="M19.2699,13.309
		c0,0-5.5495-0.9132-5.1479,5.9693"/>
	<path fill="none" stroke="#000000" stroke-linecap="round" stroke-linejoin="round" d="M21.6474,4.9712l0.6343-2.2243
		l-7.1133-1.9259l-3.2724,11.1318l-8.0623,4.5381c0,0-3.4873,2.2307-1.5772,5.0802c1.9101,2.8495,5.1529,1.2896,5.1529,1.2896
		s6.4841-3.4792,8.9121-4.7391c2.125-1.1026,2.7026-3.9502,2.7026-3.9502L21.6474,4.9712L14.5142,3.046"/>
	<path fill="none" stroke="#000000" stroke-linecap="round" stroke-linejoin="round" d="M14.5142,3.046"/>
	
		<line fill="none" stroke="#000000" stroke-linecap="round" stroke-linejoin="round" x1="17.0336" y1="1.326" x2="16.3872" y2="3.5506"/>
	
		<line fill="none" stroke="#000000" stroke-linecap="round" stroke-linejoin="round" x1="18.0533" y1="3.9917" x2="18.7116" y2="1.7803"/>
	
		<line fill="none" stroke="#000000" stroke-linecap="round" stroke-linejoin="round" x1="19.7194" y1="4.4326" x2="20.3734" y2="2.2302"/>
</g>
<rect x="0.0142" y="0.0344" fill="none" width="24" height="24"/>
</svg>
