<?xml version="1.0" encoding="utf-8"?>
<!-- Generator: Adobe Illustrator 18.1.0, SVG Export Plug-In . SVG Version: 6.00 Build 0)  -->
<svg version="1.1" id="Layer_1" xmlns="http://www.w3.org/2000/svg" xmlns:xlink="http://www.w3.org/1999/xlink" x="0px" y="0px"
	 width="24px" height="24px" viewBox="0 0 24 24" enable-background="new 0 0 24 24" xml:space="preserve">
<g>
	<g>
		<g>
			
				<line fill="none" stroke="#000000" stroke-linecap="round" stroke-linejoin="round" x1="15.5384" y1="8.3255" x2="15.5384" y2="7.3255"/>
			
				<line fill="none" stroke="#000000" stroke-linecap="round" stroke-linejoin="round" stroke-dasharray="1.1651,2.3303" x1="15.5384" y1="4.9951" x2="15.5384" y2="2.6651"/>
			<polyline fill="none" stroke="#000000" stroke-linecap="round" stroke-linejoin="round" points="15.5384,1.4998 15.5384,0.4998 
				14.5384,0.4998 			"/>
			
				<line fill="none" stroke="#000000" stroke-linecap="round" stroke-linejoin="round" stroke-dasharray="1.625,3.25" x1="11.2884" y1="0.4998" x2="3.1634" y2="0.4998"/>
			<polyline fill="none" stroke="#000000" stroke-linecap="round" stroke-linejoin="round" points="1.5384,0.4998 0.5384,0.4998 
				0.5384,1.4998 			"/>
			
				<line fill="none" stroke="#000000" stroke-linecap="round" stroke-linejoin="round" stroke-dasharray="1.625,3.25" x1="0.5384" y1="4.7498" x2="0.5384" y2="12.8748"/>
			<polyline fill="none" stroke="#000000" stroke-linecap="round" stroke-linejoin="round" points="0.5384,14.4998 0.5384,15.4998 
				1.5384,15.4998 			"/>
			
				<line fill="none" stroke="#000000" stroke-linecap="round" stroke-linejoin="round" stroke-dasharray="1.1651,2.3303" x1="3.8686" y1="15.4998" x2="6.1989" y2="15.4998"/>
			
				<line fill="none" stroke="#000000" stroke-linecap="round" stroke-linejoin="round" x1="7.364" y1="15.4998" x2="8.364" y2="15.4998"/>
		</g>
	</g>
	<g>
		<g>
			
				<line fill="none" stroke="#000000" stroke-linecap="round" stroke-linejoin="round" x1="8.364" y1="15.4998" x2="8.364" y2="16.4998"/>
			
				<line fill="none" stroke="#000000" stroke-linecap="round" stroke-linejoin="round" stroke-dasharray="1.212,2.4239" x1="8.364" y1="18.9239" x2="8.364" y2="21.3477"/>
			<polyline fill="none" stroke="#000000" stroke-linecap="round" stroke-linejoin="round" points="8.364,22.5596 8.364,23.5596 
				9.364,23.5596 			"/>
			
				<line fill="none" stroke="#000000" stroke-linecap="round" stroke-linejoin="round" stroke-dasharray="1.6543,3.3085" x1="12.6726" y1="23.5596" x2="20.9439" y2="23.5596"/>
			<polyline fill="none" stroke="#000000" stroke-linecap="round" stroke-linejoin="round" points="22.5981,23.5596 
				23.5981,23.5596 23.5981,22.5596 			"/>
			
				<line fill="none" stroke="#000000" stroke-linecap="round" stroke-linejoin="round" stroke-dasharray="1.6543,3.3085" x1="23.5981" y1="19.251" x2="23.5981" y2="10.9798"/>
			<polyline fill="none" stroke="#000000" stroke-linecap="round" stroke-linejoin="round" points="23.5981,9.3255 23.5981,8.3255 
				22.5981,8.3255 			"/>
			
				<line fill="none" stroke="#000000" stroke-linecap="round" stroke-linejoin="round" stroke-dasharray="1.212,2.4239" x1="20.1742" y1="8.3255" x2="17.7503" y2="8.3255"/>
			
				<line fill="none" stroke="#000000" stroke-linecap="round" stroke-linejoin="round" x1="16.5384" y1="8.3255" x2="15.5384" y2="8.3255"/>
		</g>
	</g>
	
		<rect x="8.364" y="8.3255" fill="none" stroke="#000000" stroke-linecap="round" stroke-linejoin="round" stroke-miterlimit="10" width="7.1743" height="7.1743"/>
</g>
<rect x="0.0293" y="0.0001" fill="none" width="24" height="24"/>
</svg>
