<?xml version="1.0" encoding="utf-8"?>
<!-- Generator: Adobe Illustrator 18.1.0, SVG Export Plug-In . SVG Version: 6.00 Build 0)  -->
<svg version="1.1" id="Layer_1" xmlns="http://www.w3.org/2000/svg" xmlns:xlink="http://www.w3.org/1999/xlink" x="0px" y="0px"
	 width="24px" height="24px" viewBox="0 0 24 24" enable-background="new 0 0 24 24" xml:space="preserve">
<g>
	<path fill="none" stroke="#000000" stroke-linecap="round" stroke-linejoin="round" d="M13.5,11.52v1.5638
		c0,0.2281-0.2457,0.4162-0.5065,0.4162h-2.0824c-0.2604,0-0.4111-0.1881-0.4111-0.4162V11.52"/>
	<polygon fill="none" stroke="#000000" stroke-linecap="round" stroke-linejoin="round" points="6.5,1.5 6.5,2.4396 6.0251,2.7443 
		6.5,3.0843 6.5,5.5 17.5,5.5 17.5,3.0843 17.9749,2.7443 17.5,2.4396 17.5,1.5 	"/>
	<path fill="none" stroke="#000000" stroke-linecap="round" stroke-linejoin="round" d="M19.1591,11.5H4.8504
		C4.4868,11.5,4.5,11.1483,4.5,10.7657V6.2692C4.5,5.8862,4.4868,5.5,4.8504,5.5h14.3086c0.364,0,0.341,0.3862,0.341,0.7692v4.4965
		C19.5,11.1483,19.523,11.5,19.1591,11.5z"/>
	<line fill="none" stroke="#000000" stroke-linecap="round" stroke-linejoin="round" x1="15.5" y1="4" x2="15.5" y2="3"/>
	<line fill="none" stroke="#000000" stroke-linecap="round" stroke-linejoin="round" x1="8.5" y1="4" x2="8.5" y2="3"/>
	
		<line fill="none" stroke="#000000" stroke-linecap="round" stroke-linejoin="round" x1="12.0049" y1="13.4957" x2="12.0049" y2="23.4657"/>
</g>
<rect x="0" y="0" fill="none" width="24" height="24"/>
</svg>
