<?xml version="1.0" encoding="utf-8"?>
<!-- Generator: Adobe Illustrator 18.1.0, SVG Export Plug-In . SVG Version: 6.00 Build 0)  -->
<svg version="1.1" id="Layer_1" xmlns="http://www.w3.org/2000/svg" xmlns:xlink="http://www.w3.org/1999/xlink" x="0px" y="0px"
	 width="24px" height="24px" viewBox="0 0 24 24" enable-background="new 0 0 24 24" xml:space="preserve">
<g>
	<path fill="none" stroke="#000000" stroke-linecap="round" stroke-linejoin="round" stroke-miterlimit="3.864" d="M6.6725,7.9396
		c0,0,2.1462-0.4463,2.252-2.9168"/>
	<path fill="none" stroke="#000000" stroke-linecap="round" stroke-linejoin="round" stroke-miterlimit="3.864" d="M17.3543,7.9396
		c0,0-2.1462-0.4463-2.252-2.9168"/>
	<path fill="none" stroke="#000000" stroke-linecap="round" stroke-linejoin="round" stroke-miterlimit="3.864" d="M5.9876,4.1309"
		/>
	<path fill="none" stroke="#000000" stroke-linecap="round" stroke-linejoin="round" stroke-miterlimit="3.864" d="M18.0392,4.1309"
		/>
	<polygon fill="none" stroke="#000000" stroke-linecap="round" stroke-linejoin="round" stroke-miterlimit="3.864" points="
		23.2172,21.84 23.217,21.8396 23.2155,21.84 	"/>
	<path fill="none" stroke="#000000" stroke-linecap="round" stroke-linejoin="round" stroke-miterlimit="3.864" d="M6.1007,0.8338
		v1.8146c3.5536,0.4584,8.269,0.4588,11.8254,0V0.8338C14.3895,1.2922,9.644,1.2931,6.1007,0.8338z"/>
	<path fill="none" stroke="#000000" stroke-linecap="round" stroke-linejoin="round" stroke-miterlimit="3.864" d="M5.9876,4.1309
		L0.8112,21.84h0.0001c2.2526,0.8004,5.8432,1.3498,11.2021,1.3498s8.9496-0.5494,11.2021-1.3498l0.0015-0.0005L18.0392,4.1309"/>
	
		<line fill="none" stroke="#000000" stroke-linecap="round" stroke-linejoin="round" stroke-miterlimit="3.864" x1="12.0134" y1="20.395" x2="12.0134" y2="23.1898"/>
	
		<line fill="none" stroke="#000000" stroke-linecap="round" stroke-linejoin="round" stroke-miterlimit="3.864" x1="8.2092" y1="12.6217" x2="6.3586" y2="22.9405"/>
	
		<line fill="none" stroke="#000000" stroke-linecap="round" stroke-linejoin="round" stroke-miterlimit="3.864" x1="16.6527" y1="16.2921" x2="17.6682" y2="22.7139"/>
</g>
<rect x="0.0142" y="0.0344" fill="none" width="24" height="24"/>
</svg>
