<?xml version="1.0" encoding="utf-8"?>
<!-- Generator: Adobe Illustrator 18.1.0, SVG Export Plug-In . SVG Version: 6.00 Build 0)  -->
<svg version="1.1" id="Layer_1" xmlns="http://www.w3.org/2000/svg" xmlns:xlink="http://www.w3.org/1999/xlink" x="0px" y="0px"
	 width="24px" height="24px" viewBox="0 0 24 24" enable-background="new 0 0 24 24" xml:space="preserve">
<g>
	<path fill="none" stroke="#000000" stroke-linecap="round" stroke-linejoin="round" d="M18.0251,5.5204
		c2.8093,0,5.1915,0.6747,5.1915,5.3693c0,2.461-1.6132,4.5298-3.799,5.1234"/>
	<path fill="none" stroke="#000000" stroke-linecap="round" stroke-linejoin="round" d="M8.6088,15.9889
		c-0.2098,1.6555-0.3623,2.8613-0.3623,2.8715c0,0.8552,2.5783,1.5484,5.7589,1.5484c3.1806,0,5.7589-0.6932,5.7589-1.5484
		c0-0.0324-1.7392-13.34-1.7392-13.34"/>
	
		<line fill="none" stroke="#000000" stroke-linecap="round" stroke-linejoin="round" x1="3.4422" y1="8.9101" x2="7.3096" y2="14.0109"/>
	
		<line fill="none" stroke="#000000" stroke-linecap="round" stroke-linejoin="round" x1="7.7964" y1="10.2406" x2="4.5585" y2="7.7289"/>
	<path fill="none" stroke="#000000" stroke-linecap="round" stroke-linejoin="round" d="M18.0251,5.5204h-2.0708
		c-0.9737,1.3148-2.8667,1.3158-3.8412,0h-1.2565c-0.5256,0-0.9698,0.4053-1.0386,0.9477c0,0-0.2231,1.7547-0.5012,3.9435"/>
	
		<line fill="none" stroke="#000000" stroke-linecap="round" stroke-linejoin="round" x1="9.3168" y1="10.4116" x2="8.6088" y2="15.9889"/>
	<path fill="none" stroke="#000000" stroke-linecap="round" stroke-linejoin="round" d="M4.0847,4.9261
		c0.9307,0.9687,0.9307,2.5394,0,3.5081s-2.4397,0.9687-3.3704,0"/>
	<path fill="none" stroke="#000000" stroke-linecap="round" stroke-linejoin="round" d="M0.7143,8.4342
		c0,0,0.5577-3.0081,3.3704-3.5081"/>
	<path fill="none" stroke="#000000" stroke-linecap="round" stroke-linejoin="round" stroke-miterlimit="10" d="M14.0054,10.7239
		c-0.024,0-1.4892,2.3484-1.4892,3.1708c0,0.8226,0.6668,1.4893,1.4892,1.4893s1.4893-0.6667,1.4893-1.4893
		C15.4947,13.0723,14.0294,10.7239,14.0054,10.7239z"/>
</g>
<rect x="0.0022" y="-0.0147" fill="none" width="24" height="24"/>
</svg>
