<?xml version="1.0" encoding="utf-8"?>
<!-- Generator: Adobe Illustrator 18.1.0, SVG Export Plug-In . SVG Version: 6.00 Build 0)  -->
<svg version="1.1" id="Layer_1" xmlns="http://www.w3.org/2000/svg" xmlns:xlink="http://www.w3.org/1999/xlink" x="0px" y="0px"
	 width="24px" height="24px" viewBox="0 0 24 24" enable-background="new 0 0 24 24" xml:space="preserve">
<g>
	
		<line fill="none" stroke="#000000" stroke-linecap="round" stroke-linejoin="round" stroke-miterlimit="10" x1="5.916" y1="19.7276" x2="5.2849" y2="23.0386"/>
	
		<line fill="none" stroke="#000000" stroke-linecap="round" stroke-linejoin="round" stroke-miterlimit="10" x1="12.9844" y1="19.7276" x2="13.6147" y2="23.0386"/>
	<path fill="none" stroke="#000000" stroke-linecap="round" stroke-linejoin="round" stroke-miterlimit="10" d="M9.4498,10.9059
		c-0.7626,0-1.3811-0.6181-1.3811-1.3808c0-0.7629,0.6185-1.3811,1.3811-1.3811c0.7626,0,1.3811,0.6182,1.3811,1.3811"/>
	
		<line fill="none" stroke="#000000" stroke-linecap="round" stroke-linejoin="round" stroke-miterlimit="10" x1="9.8612" y1="9.5252" x2="23.2122" y2="9.5252"/>
	
		<line fill="none" stroke="#000000" stroke-linecap="round" stroke-linejoin="round" stroke-miterlimit="10" x1="23.3823" y1="7.2238" x2="21.0801" y2="9.5127"/>
	
		<line fill="none" stroke="#000000" stroke-linecap="round" stroke-linejoin="round" stroke-miterlimit="10" x1="21.0685" y1="7.2238" x2="18.7663" y2="9.5127"/>
	
		<line fill="none" stroke="#000000" stroke-linecap="round" stroke-linejoin="round" stroke-miterlimit="10" x1="23.3823" y1="11.8265" x2="21.0801" y2="9.5376"/>
	
		<line fill="none" stroke="#000000" stroke-linecap="round" stroke-linejoin="round" stroke-miterlimit="10" x1="21.0685" y1="11.8265" x2="18.7663" y2="9.5376"/>
	<path fill="none" stroke="#000000" stroke-linecap="round" stroke-linejoin="round" stroke-miterlimit="10" d="M17.9746,9.5248
		c0-4.7079-3.8166-8.5245-8.5248-8.5245c-4.708,0-8.5249,3.8167-8.5249,8.5245c0,4.7084,3.8169,8.5253,8.5249,8.5253
		c4.0061,0,7.3591-2.7662,8.2724-6.4907"/>
	<path fill="none" stroke="#000000" stroke-linecap="round" stroke-linejoin="round" stroke-miterlimit="10" d="M13.9621,11.5593
		c-0.7781,1.7223-2.4993,2.9272-4.5123,2.9272c-2.7399,0-4.9616-2.2213-4.9616-4.9614c0-2.7402,2.2217-4.9619,4.9616-4.9619
		c2.7404,0,4.9615,2.2217,4.9615,4.9619"/>
</g>
<rect x="0.0142" y="0.0354" fill="none" width="24" height="24"/>
</svg>
