<?xml version="1.0" encoding="utf-8"?>
<!-- Generator: Adobe Illustrator 18.1.0, SVG Export Plug-In . SVG Version: 6.00 Build 0)  -->
<svg version="1.1" id="Layer_1" xmlns="http://www.w3.org/2000/svg" xmlns:xlink="http://www.w3.org/1999/xlink" x="0px" y="0px"
	 width="24px" height="24px" viewBox="0 0 24 24" enable-background="new 0 0 24 24" xml:space="preserve">
<g>
	<path fill="none" stroke="#000000" stroke-linecap="round" stroke-linejoin="round" stroke-miterlimit="10" d="M12.4832,15.5762
		v6.8115c0,0.5252,2.0177,0.9507,4.5067,0.9507c2.489,0,4.5067-0.4255,4.5067-0.9507v-1.9833l1.0481-1.5658l-0.3144-1.2305
		l-0.7336,0.6339v-2.6659"/>
	<path fill="none" stroke="#000000" stroke-linecap="round" stroke-linejoin="round" d="M16.6614,6.1226
		c-5.935,5.9509-11.3528,9.1349-12.449,12.5234c-0.8356,2.5828-3.0892,0-3.0892,0c-0.2996-0.3677-0.5143-0.7233-0.1284-1.0908
		C3.058,15.5901,11.3871,7.7776,14.4696,3.7346"/>
	<path fill="none" stroke="#000000" stroke-linecap="round" stroke-linejoin="round" d="M16.2483,1.7767l0.8675-0.8684
		c0.1032-0.1044,0.2719-0.1039,0.3745,0.001l1.9403,1.983c0.099,0.1011,0.1008,0.2616,0.0032,0.3641
		c-0.1647,0.1728-0.4949,0.5109-0.8483,0.8766"/>
	<path fill="none" stroke="#000000" stroke-linecap="round" stroke-linejoin="round" d="M15.4767,0.9989l3.254,3.2805
		c0,0,1.9312,1.7196,4.471,2.9365c0,0-1.1989,2.7697-5.2035,4.1006c0,0-0.7225-4.1006-1.3045-5.1588l-3.0462-3.3188L15.4767,0.9989z
		"/>
	
		<ellipse fill="none" stroke="#000000" stroke-linecap="round" stroke-linejoin="round" stroke-miterlimit="10" cx="16.9899" cy="15.5763" rx="4.5067" ry="0.9507"/>
	
		<line fill="none" stroke="#000000" stroke-linecap="round" stroke-linejoin="round" stroke-miterlimit="10" x1="15.1034" y1="19.0385" x2="15.1034" y2="16.4399"/>
	
		<line fill="none" stroke="#000000" stroke-linecap="round" stroke-linejoin="round" stroke-miterlimit="10" x1="19.4262" y1="17.7826" x2="19.4262" y2="16.3761"/>
</g>
<rect x="-0.0008" y="-0.0147" fill="none" width="24" height="24"/>
</svg>
