<?xml version="1.0" encoding="utf-8"?>
<!-- Generator: Adobe Illustrator 18.1.0, SVG Export Plug-In . SVG Version: 6.00 Build 0)  -->
<svg version="1.1" id="Layer_1" xmlns="http://www.w3.org/2000/svg" xmlns:xlink="http://www.w3.org/1999/xlink" x="0px" y="0px"
	 width="24px" height="24px" viewBox="0 0 24 24" enable-background="new 0 0 24 24" xml:space="preserve">
<g>
	<polygon fill="none" stroke="#000000" stroke-linecap="round" stroke-linejoin="round" stroke-miterlimit="10" points="
		23.4863,23.5002 23.4863,4.9067 11.9863,1.6345 0.4863,4.9067 0.4863,23.5002 2.4863,23.5002 2.4863,8.5001 21.4863,8.5001 
		21.4863,23.5002 	"/>
	
		<rect x="6.4864" y="19.5002" fill="none" stroke="#000000" stroke-linecap="round" stroke-linejoin="round" stroke-miterlimit="10" width="4" height="4"/>
	
		<rect x="10.4864" y="19.5002" fill="none" stroke="#000000" stroke-linecap="round" stroke-linejoin="round" stroke-miterlimit="10" width="4" height="4"/>
	
		<rect x="10.4864" y="15.5" fill="none" stroke="#000000" stroke-linecap="round" stroke-linejoin="round" stroke-miterlimit="10" width="4" height="4"/>
	
		<rect x="10.4864" y="11.4997" fill="none" stroke="#000000" stroke-linecap="round" stroke-linejoin="round" stroke-miterlimit="10" width="4" height="4"/>
	
		<rect x="14.4799" y="19.5002" fill="none" stroke="#000000" stroke-linecap="round" stroke-linejoin="round" stroke-miterlimit="10" width="4" height="4"/>
	
		<rect x="14.4799" y="15.5" fill="none" stroke="#000000" stroke-linecap="round" stroke-linejoin="round" stroke-miterlimit="10" width="4" height="4"/>
	<polyline fill="none" stroke="#000000" stroke-linecap="round" stroke-linejoin="round" stroke-miterlimit="10" points="
		10.4747,6.5001 10.4747,6.5001 13.4798,6.5001 13.4798,6.5001 	"/>
	<polyline fill="none" stroke="#000000" stroke-linecap="round" stroke-linejoin="round" stroke-miterlimit="10" points="
		5.5635,6.5001 5.5635,6.5001 8.5686,6.5001 8.5686,6.5001 	"/>
	<polyline fill="none" stroke="#000000" stroke-linecap="round" stroke-linejoin="round" stroke-miterlimit="10" points="
		15.3859,6.5001 15.3859,6.5001 18.3911,6.5001 18.3911,6.5001 	"/>
</g>
<rect x="-0.0137" y="0.0002" fill="none" width="24" height="24"/>
</svg>
