<?xml version="1.0" encoding="utf-8"?>
<!-- Generator: Adobe Illustrator 18.1.0, SVG Export Plug-In . SVG Version: 6.00 Build 0)  -->
<svg version="1.1" id="Layer_1" xmlns="http://www.w3.org/2000/svg" xmlns:xlink="http://www.w3.org/1999/xlink" x="0px" y="0px"
	 width="24px" height="24px" viewBox="0 0 24 24" enable-background="new 0 0 24 24" xml:space="preserve">
<g>
	
		<circle fill="none" stroke="#000000" stroke-linecap="round" stroke-linejoin="round" stroke-miterlimit="10" cx="11.4919" cy="6.5522" r="2.1767"/>
	
		<line fill="none" stroke="#000000" stroke-linecap="round" stroke-linejoin="round" x1="17.3566" y1="23.4161" x2="11.9911" y2="12.5309"/>
	
		<line fill="none" stroke="#000000" stroke-linecap="round" stroke-linejoin="round" x1="11.9911" y1="12.5309" x2="6.6161" y2="23.4147"/>
	
		<line fill="none" stroke="#000000" stroke-linecap="round" stroke-linejoin="round" x1="11.9911" y1="12.5309" x2="11.9911" y2="21.7461"/>
	
		<line fill="none" stroke="#000000" stroke-linecap="round" stroke-linejoin="round" stroke-miterlimit="10" x1="16.4938" y1="4.5032" x2="15.4938" y2="4.5032"/>
	<path fill="none" stroke="#000000" stroke-linecap="round" stroke-linejoin="round" stroke-miterlimit="10" d="M18.4843,3.6827
		c-0.0299-0.4097-0.331-1.1883-1.222-1.1883h-4.3747V1.734c0-0.6689-0.5422-1.2111-1.2111-1.2111h-0.747
		c-0.6689,0-1.2111,0.5422-1.2111,1.2111v0.7603H6.7859C6.3355,2.5137,5.4927,2.8278,5.4927,3.8184v5.449
		c0,0.7527,0.4645,1.235,1.2447,1.235h10.5348l0.0251-0.0066c0.4104-0.0395,1.1969-0.3483,1.1969-1.2162L18.4843,3.6827z"/>
</g>
<rect x="-0.0137" y="0.0002" fill="none" width="24" height="24"/>
</svg>
