<?xml version="1.0" encoding="utf-8"?>
<!-- Generator: Adobe Illustrator 18.1.0, SVG Export Plug-In . SVG Version: 6.00 Build 0)  -->
<svg version="1.1" id="Layer_1" xmlns="http://www.w3.org/2000/svg" xmlns:xlink="http://www.w3.org/1999/xlink" x="0px" y="0px"
	 width="24px" height="24px" viewBox="0 0 24 24" enable-background="new 0 0 24 24" xml:space="preserve">
<g>
	<path fill="none" stroke="#000000" stroke-linecap="round" stroke-linejoin="round" stroke-miterlimit="10" d="M1.1384,15.2304
		c0.0037-1.0835,0.114-2.7447,1.285-3.9874l0,0c1.5202-1.583,6.1753,0.3775,8.5412-1.2203l0,0
		c0.3874-0.2601,0.681-0.7367,0.9874-1.367l0,0c0.3069-0.6291,0.627-1.3993,1.1034-2.2104l0,0
		c0.8131-1.4054,2.4233-1.299,3.08-0.3168l0,0c0.311,0.5348,1.1822,0.3548,1.7683,0.5448l0,0
		c0.1545,0.0483,0.2747,0.1779,0.2729,0.369l0,0c-0.0017,0.0394-0.2117,1.4809-0.2117,1.4809
		c-0.0014,0.1308-0.0689,0.2216-0.1283,0.2805l0,0c-0.1494,0.1459-0.4074,0.2427-0.6037,0.314l0,0
		c-0.1266,0.0435-0.2547,0.0458-0.4067,0.0475l0,0c-0.2411,0-0.8206-0.0209-0.8515-0.0196l0,0c0,0.005,0,0.0112,0,0.0174l0,0
		c0,0.0455-0.0196,0.59-0.1842,0.7974l0,0c-0.2647,0.3163-0.5823,1.3914-0.5852,1.8153l0,0
		c-0.0116,0.2981-0.5282,2.423-0.5449,2.5709l0,0c-0.0627,0.4187-0.5858,1.2621-0.6016,1.278l0,0
		c-0.0435,0.2582-0.0451,1.1057-0.0451,1.1057c-0.0003,0.2861,0.1127,2.1254,0.1887,2.4774l0,0
		c0.0884,0.3441,0.6292,0.6937,0.6292,0.6937c0.0476,0.0754,0.0543,0.417,0.0543,0.417c-0.0224,0.1735-0.1408,0.3105-0.2644,0.3764
		l0,0c-0.3265,0.1819-1.2749,0.0833-1.3321,0.0261l0,0c-0.2359-0.2305-0.342-0.8861-0.3812-1.2136l0,0
		c-0.0487-0.1171-0.2355-0.5667-0.435-1.0627l0,0c-0.2335-0.5796-0.4804-1.2089-0.5571-1.4841l0,0
		c-0.0531-0.1952-0.1455-0.4523-0.2846-0.6435l0,0c-0.1428-0.1919-0.7504-0.2934-0.8815-0.2447l0,0
		c-0.4832,0.1778-1.2259,0.2454-1.9987,0.2471l0,0c-0.9247-0.0017-1.8643-0.1004-2.4007-0.2931l0,0
		c-0.2556-0.094-0.4812-0.136-0.6649-0.136l0,0c-0.4143,0.001-0.6023,0.1992-0.647,0.5152l0,0
		c-0.0691,0.4466-0.4075,0.7437-0.7234,1.0043l0,0c-0.3205,0.2538-1.3482,1.1522-1.4411,1.3096"/>
	<path fill="none" stroke="#000000" stroke-linecap="round" stroke-linejoin="round" stroke-miterlimit="10" d="M19.9912,3.9953
		c4.414,4.414,4.414,11.5954,0,16.0094S8.3952,24.4194,3.9812,20.0054s-4.4133-11.596,0.0007-16.01S15.5772-0.4187,19.9912,3.9953z"
		/>
	
		<line fill="none" stroke="#000000" stroke-linecap="round" stroke-linejoin="round" stroke-miterlimit="10" x1="19.9912" y1="20.0047" x2="3.9818" y2="3.9953"/>
</g>
<rect x="-0.0136" y="0.0002" fill="none" width="24" height="24"/>
</svg>
