<?xml version="1.0" encoding="utf-8"?>
<!-- Generator: Adobe Illustrator 18.1.0, SVG Export Plug-In . SVG Version: 6.00 Build 0)  -->
<svg version="1.1" id="Layer_1" xmlns="http://www.w3.org/2000/svg" xmlns:xlink="http://www.w3.org/1999/xlink" x="0px" y="0px"
	 width="24px" height="24px" viewBox="0 0 24 24" enable-background="new 0 0 24 24" xml:space="preserve">
<g>
	<path fill="none" stroke="#000000" stroke-linecap="round" stroke-linejoin="round" d="M21.4668,11.6149
		c-0.0301,0-1.8661,2.9426-1.8661,3.9731c0,1.0307,0.8355,1.8661,1.8661,1.8661c1.0306,0,1.8661-0.8354,1.8661-1.8661
		C23.3329,14.5575,21.497,11.6149,21.4668,11.6149z"/>
	<line fill="none" stroke="#000000" stroke-linecap="round" stroke-linejoin="round" x1="7.4864" y1="9.5" x2="7.4864" y2="7.5"/>
	<line fill="none" stroke="#000000" stroke-linecap="round" stroke-linejoin="round" x1="5.9864" y1="7.5" x2="8.9864" y2="7.5"/>
	<g>
		<polygon fill="none" stroke="#000000" stroke-linecap="round" stroke-linejoin="round" points="17.7478,8.9622 17.7478,8.9622 
			17.7478,8.9622 		"/>
		<polyline fill="none" stroke="#000000" stroke-linecap="round" stroke-linejoin="round" points="21.4686,9.5992 20.1884,8.3443 
			17.7478,8.9622 		"/>
	</g>
	<path fill="none" stroke="#000000" stroke-linecap="round" stroke-linejoin="round" d="M4.0436,9.5l0.4427,6h8.0709
		c0.4541,0,0.8781-0.2093,1.1299-0.5797l4.0606-5.9648l-5.9992,1.4823L10.6833,9.5H4.0436v0.0397
		c0-0.5703-0.3629-1.0602-0.9089-1.257l-1.9241-0.553"/>
</g>
<rect x="-0.0136" y="0" fill="none" width="24" height="24"/>
</svg>
