<?xml version="1.0" encoding="utf-8"?>
<!-- Generator: Adobe Illustrator 18.1.1, SVG Export Plug-In . SVG Version: 6.00 Build 0)  -->
<svg version="1.1" id="Layer_1" xmlns="http://www.w3.org/2000/svg" xmlns:xlink="http://www.w3.org/1999/xlink" x="0px" y="0px"
	 width="24px" height="24px" viewBox="0 0 24 24" enable-background="new 0 0 24 24" xml:space="preserve">
<g>
	<path fill="none" stroke="#000000" stroke-linecap="round" stroke-linejoin="round" stroke-miterlimit="10" d="M22.7,2.5
		C18.5-1.3,4.9,2.8,3.5,8.4c0,0-0.7,3.8,3.5,0.4c0,0,0.5-2,1.8-3c0,0-0.6,1.9-0.6,3.3c1.4,0.2,3.4,0.6,4.5-2l-0.1-3.2l1.6,2.7
		c2.4,1.5,4,0.2,5-0.8c-0.8-1.1-2.3-2.4-2.3-2.4c1.7,0.2,2.6,0.9,3.1,1.5c0,0,0.1-0.1,0.1,0C25.4,5.3,22.7,2.5,22.7,2.5z"/>
	
		<line fill="none" stroke="#000000" stroke-linecap="round" stroke-linejoin="round" stroke-miterlimit="10" x1="14.2" y1="9" x2="18.3" y2="22.3"/>
	
		<line fill="none" stroke="#000000" stroke-linecap="round" stroke-linejoin="round" stroke-miterlimit="10" x1="0.6" y1="11.7" x2="14.4" y2="22.3"/>
	
		<line fill="none" stroke="#000000" stroke-linecap="round" stroke-linejoin="round" stroke-miterlimit="10" x1="8.8" y1="20.2" x2="1.8" y2="22.3"/>
	<path fill="none" stroke="#000000" stroke-linecap="round" stroke-linejoin="round" stroke-miterlimit="10" d="M0.6,11.7
		c5.7,13.6,13.9,6.8,13.9,6.8"/>
	
		<line fill="none" stroke="#000000" stroke-linecap="round" stroke-linejoin="round" stroke-miterlimit="10" x1="11.6" y1="0.5" x2="12" y2="1.9"/>
</g>
<rect x="0" y="-1" fill="none" width="24" height="24"/>
</svg>
