<?xml version="1.0" encoding="utf-8"?>
<!-- Generator: Adobe Illustrator 18.1.0, SVG Export Plug-In . SVG Version: 6.00 Build 0)  -->
<svg version="1.1" id="Layer_1" xmlns="http://www.w3.org/2000/svg" xmlns:xlink="http://www.w3.org/1999/xlink" x="0px" y="0px"
	 width="24px" height="24px" viewBox="0 0 24 24" enable-background="new 0 0 24 24" xml:space="preserve">
<g>
	
		<line fill="none" stroke="#000000" stroke-linecap="round" stroke-linejoin="round" stroke-miterlimit="10" x1="13.1787" y1="20.3357" x2="19.8689" y2="18.4794"/>
	
		<line fill="none" stroke="#000000" stroke-linecap="round" stroke-linejoin="round" stroke-miterlimit="10" x1="5.1486" y1="0.6226" x2="10.1727" y2="18.7326"/>
	
		<rect x="11.2446" y="7.1414" transform="matrix(0.9636 -0.2673 0.2673 0.9636 -2.5991 4.7116)" fill="none" stroke="#000000" stroke-linecap="round" stroke-linejoin="round" stroke-miterlimit="10" width="9.5205" height="9.5206"/>
	
		<line fill="none" stroke="#000000" stroke-linecap="round" stroke-linejoin="round" stroke-miterlimit="10" x1="5.9458" y1="3.4963" x2="1.6335" y2="3.4963"/>
	<polyline fill="none" stroke="#000000" stroke-linecap="round" stroke-linejoin="round" stroke-miterlimit="10" points="
		16.2091,10.5717 16.7902,9.0058 18.0995,10.0426 	"/>
	
		<line fill="none" stroke="#000000" stroke-linecap="round" stroke-linejoin="round" stroke-miterlimit="10" x1="17.9106" y1="13.0075" x2="16.7902" y2="9.0058"/>
	<polyline fill="none" stroke="#000000" stroke-linecap="round" stroke-linejoin="round" stroke-miterlimit="10" points="
		13.3811,11.3635 13.9622,9.7979 15.2714,10.8345 	"/>
	
		<line fill="none" stroke="#000000" stroke-linecap="round" stroke-linejoin="round" stroke-miterlimit="10" x1="15.0822" y1="13.8004" x2="13.9622" y2="9.7979"/>
	
		<line fill="none" stroke="#000000" stroke-linecap="round" stroke-linejoin="round" stroke-miterlimit="10" x1="14.6714" y1="15.2361" x2="19.0079" y2="14.0219"/>
	
		<circle fill="none" stroke="#000000" stroke-linecap="round" stroke-linejoin="round" stroke-miterlimit="10" cx="10.8977" cy="20.9946" r="2.3744"/>
	
		<line fill="none" stroke="#000000" stroke-linecap="round" stroke-linejoin="round" stroke-miterlimit="10" x1="10.8977" y1="20.9951" x2="10.8977" y2="20.9951"/>
</g>
<rect x="-0.0137" y="0" fill="none" width="24" height="24"/>
</svg>
