<?xml version="1.0" encoding="utf-8"?>
<!-- Generator: Adobe Illustrator 18.1.0, SVG Export Plug-In . SVG Version: 6.00 Build 0)  -->
<svg version="1.1" id="Layer_1" xmlns="http://www.w3.org/2000/svg" xmlns:xlink="http://www.w3.org/1999/xlink" x="0px" y="0px"
	 width="24px" height="24px" viewBox="0 0 24 24" enable-background="new 0 0 24 24" xml:space="preserve">
<g>
	<path fill="none" stroke="#000000" stroke-linecap="round" stroke-linejoin="round" stroke-miterlimit="10" d="M19.3213,12.4979
		c-0.4892-1.6576-2.0266-2.9028-4.1771-2.6243C12.2395,7.326,7.905,9.0612,7.2756,13.0421c-1.0646,0.6834-1.76,1.8385-1.76,2.9654
		c0,1.9466,1.5624,3.5306,3.4821,3.5306h10.7406c1.982,0,3.6563-1.6172,3.6563-3.5306
		C23.3946,14.0141,21.5595,12.2667,19.3213,12.4979z"/>
	<polyline fill="none" stroke="#000000" stroke-linecap="round" stroke-linejoin="round" stroke-miterlimit="10" points="
		14.3398,0.5289 14.344,4.5001 18.4829,4.5001 	"/>
	<path fill="none" stroke="#000000" stroke-linecap="round" stroke-linejoin="round" stroke-miterlimit="10" d="M18.483,8.4024
		l0-3.9023c0-0.2135-0.0862-0.2946-0.238-0.4443l-3.3452-3.2974c-0.1491-0.147-0.3502-0.2294-0.5599-0.2294l-12.9942,0
		c-0.4409,0-0.7979,0.3572-0.7979,0.7979v21.3462c0,0.441,0.357,0.7982,0.7979,0.7982h16.3384c0.4419,0,0.7989-0.3572,0.7989-0.7982
		v-1.1098"/>
</g>
<rect x="0" y="0.0001" fill="none" width="24" height="24"/>
</svg>
