<?xml version="1.0" encoding="utf-8"?>
<!-- Generator: Adobe Illustrator 18.1.0, SVG Export Plug-In . SVG Version: 6.00 Build 0)  -->
<svg version="1.1" id="Layer_1" xmlns="http://www.w3.org/2000/svg" xmlns:xlink="http://www.w3.org/1999/xlink" x="0px" y="0px"
	 width="24px" height="24px" viewBox="0 0 24 24" enable-background="new 0 0 24 24" xml:space="preserve">
<g>
	<path fill="none" stroke="#000000" stroke-linecap="round" stroke-linejoin="round" stroke-miterlimit="10" d="M10.519,18.5027
		c-2.7472,0-4.9815-2.2344-4.9815-4.9807c0-2.7472,2.2343-4.9815,4.9815-4.9815c2.7463,0,4.9811,2.2343,4.9811,4.9815
		C15.5001,16.2683,13.2654,18.5027,10.519,18.5027z"/>
	
		<circle fill="none" stroke="#000000" stroke-linecap="round" stroke-linejoin="round" stroke-miterlimit="10" cx="18.5104" cy="10.5154" r="0.9842"/>
	<path fill="none" stroke="#000000" stroke-linecap="round" stroke-linejoin="round" stroke-miterlimit="10" d="M10.4767,10.4992
		c-1.6992-0.0558-3.0781,1.3258-3.0224,3.0223"/>
	<path fill="none" stroke="#000000" stroke-linecap="round" stroke-linejoin="round" stroke-miterlimit="10" d="M2.6378,20.4999
		c-0.7315,0-1.2642-0.2594-1.6634-0.7119c-0.5547-0.6261-0.4881-1.468-0.4881-1.6657V8.9954c0-1.8739,1.3979-2.4594,2.2226-2.4959
		h3.9775c0.1348-2,0.7987-4,2.6588-4l3.5013,0.0004c1.8601,0,2.524,2,2.6588,4h5.8406c1.6312,0,2.125,1.4588,2.1796,2.2336
		l-0.0393,9.412c0,1.6414-1.3822,2.2796-2.1337,2.3544H2.6378z"/>
</g>
<rect x="-0.0136" y="0.0002" fill="none" width="24" height="24"/>
</svg>
