<?xml version="1.0" encoding="utf-8"?>
<!-- Generator: Adobe Illustrator 18.1.0, SVG Export Plug-In . SVG Version: 6.00 Build 0)  -->
<svg version="1.1" id="Layer_1" xmlns="http://www.w3.org/2000/svg" xmlns:xlink="http://www.w3.org/1999/xlink" x="0px" y="0px"
	 width="24px" height="24px" viewBox="0 0 24 24" enable-background="new 0 0 24 24" xml:space="preserve">
<g>
	<path fill="none" stroke="#000000" stroke-linecap="round" stroke-linejoin="round" d="M21.6188,21.5H2.4321
		c-0.659,0-1.1047-0.5056-0.8482-0.9486l3.8627-6.6564c0.144-0.2488,0.4781-0.395,0.8482-0.395h11.4613
		c0.3701,0,0.7042,0.1387,0.8482,0.3875l3.8627,6.6754C22.7235,21.0059,22.2778,21.5,21.6188,21.5z"/>
	
		<line fill="none" stroke="#000000" stroke-linecap="round" stroke-linejoin="round" x1="3.0005" y1="18.5" x2="21.0005" y2="18.5"/>
	
		<line fill="none" stroke="#000000" stroke-linecap="round" stroke-linejoin="round" x1="4.5152" y1="15.5" x2="19.5374" y2="15.5"/>
	
		<line fill="none" stroke="#000000" stroke-linecap="round" stroke-linejoin="round" x1="12.0005" y1="13.5306" x2="12.0005" y2="21.4697"/>
	
		<line fill="none" stroke="#000000" stroke-linecap="round" stroke-linejoin="round" x1="8.4159" y1="13.5306" x2="6.5615" y2="21.4697"/>
	
		<line fill="none" stroke="#000000" stroke-linecap="round" stroke-linejoin="round" x1="15.6358" y1="13.5306" x2="17.4893" y2="21.4697"/>
	
		<line fill="none" stroke="#000000" stroke-linecap="round" stroke-linejoin="round" x1="8.0005" y1="23.5" x2="16.0005" y2="23.5"/>
	
		<circle fill="none" stroke="#000000" stroke-linecap="round" stroke-linejoin="round" stroke-miterlimit="10" cx="12.0166" cy="5.4913" r="1.5432"/>
	
		<line fill="none" stroke="#000000" stroke-linecap="round" stroke-linejoin="round" stroke-miterlimit="10" x1="14.9594" y1="5.5004" x2="16.8644" y2="5.5004"/>
	
		<line fill="none" stroke="#000000" stroke-linecap="round" stroke-linejoin="round" stroke-miterlimit="10" x1="7.1756" y1="5.5004" x2="9.0804" y2="5.5004"/>
	
		<line fill="none" stroke="#000000" stroke-linecap="round" stroke-linejoin="round" stroke-miterlimit="10" x1="12.0197" y1="2.5611" x2="12.0197" y2="0.656"/>
	
		<line fill="none" stroke="#000000" stroke-linecap="round" stroke-linejoin="round" stroke-miterlimit="10" x1="12.0197" y1="10.3447" x2="12.0197" y2="8.4397"/>
	
		<line fill="none" stroke="#000000" stroke-linecap="round" stroke-linejoin="round" stroke-miterlimit="10" x1="14.1604" y1="3.3599" x2="15.5074" y2="2.013"/>
	
		<line fill="none" stroke="#000000" stroke-linecap="round" stroke-linejoin="round" stroke-miterlimit="10" x1="8.5326" y1="8.9877" x2="9.8795" y2="7.6409"/>
	
		<line fill="none" stroke="#000000" stroke-linecap="round" stroke-linejoin="round" stroke-miterlimit="10" x1="14.1604" y1="7.6409" x2="15.5074" y2="8.9877"/>
	
		<line fill="none" stroke="#000000" stroke-linecap="round" stroke-linejoin="round" stroke-miterlimit="10" x1="8.5326" y1="2.013" x2="9.8795" y2="3.3599"/>
</g>
<rect x="0.0005" y="0" fill="none" width="24" height="24"/>
</svg>
