<?xml version="1.0" encoding="utf-8"?>
<!-- Generator: Adobe Illustrator 18.1.0, SVG Export Plug-In . SVG Version: 6.00 Build 0)  -->
<svg version="1.1" id="Layer_1" xmlns="http://www.w3.org/2000/svg" xmlns:xlink="http://www.w3.org/1999/xlink" x="0px" y="0px"
	 width="24px" height="24px" viewBox="0 0 24 24" enable-background="new 0 0 24 24" xml:space="preserve">
<g>
	
		<line fill="none" stroke="#000000" stroke-linecap="round" stroke-linejoin="round" stroke-miterlimit="10" x1="18.4875" y1="23.5373" x2="18.4878" y2="14.7396"/>
	<path fill="none" stroke="#000000" stroke-linecap="round" stroke-linejoin="round" stroke-miterlimit="10" d="M19.9502,1.8418
		c0,0.8077-0.6548,1.9355-1.4624,1.9355s-1.4624-1.1279-1.4624-1.9355s0.6548-1.4624,1.4624-1.4624S19.9502,1.0341,19.9502,1.8418z"
		/>
	<path fill="none" stroke="#000000" stroke-linecap="round" stroke-linejoin="round" stroke-miterlimit="10" d="M20.3799,23.5373
		l0.5785-10.4028c0.0085-0.2102,0.6834,0.0634,0.6909-0.1359c0.2749-7.3577-0.3369-7.8256-0.406-7.8835
		c-0.0814-0.0228-0.7489-0.0408-0.9486-0.0534c-0.2701-0.017-0.5029,0.1479-0.6269,0.3885c-0.4398,0.853-1.9203,0.853-2.3601,0
		c-0.124-0.2405-0.3568-0.4054-0.6269-0.3885c-0.1365,0.0086-2.2421,1.5739-3.0525,2.1798
		c-0.2077,0.1553-0.4512,0.2512-0.709,0.2804L9.6207,7.8957c-0.8361,0.1314-0.818,1.3368,0.0136,1.4516l3.6025,0.3732
		c0.3435,0.0356,0.6885-0.0516,0.9739-0.246l1.8064-1.2308v4.8908l0.5779,10.4028"/>
	<polyline fill="none" stroke="#000000" stroke-linecap="round" stroke-linejoin="round" stroke-miterlimit="10" points="
		11.4974,13.3524 10.1139,23.4955 4.9179,23.4955 3.5344,13.3524 	"/>
	
		<line fill="none" stroke="#000000" stroke-linecap="round" stroke-linejoin="round" stroke-miterlimit="10" x1="6.7731" y1="10.8072" x2="8.0958" y2="11.1047"/>
	
		<line fill="none" stroke="#000000" stroke-linecap="round" stroke-linejoin="round" stroke-miterlimit="10" x1="7.5308" y1="13.9818" x2="6.6024" y2="15.1616"/>
	
		<line fill="none" stroke="#000000" stroke-linecap="round" stroke-linejoin="round" stroke-miterlimit="10" x1="6.2982" y1="17.9018" x2="7.5308" y2="18.8509"/>
</g>
<rect x="-0.0137" y="0.0002" fill="none" width="24" height="24"/>
</svg>
