<?xml version="1.0" encoding="utf-8"?>
<!-- Generator: Adobe Illustrator 18.1.0, SVG Export Plug-In . SVG Version: 6.00 Build 0)  -->
<svg version="1.1" id="Layer_1" xmlns="http://www.w3.org/2000/svg" xmlns:xlink="http://www.w3.org/1999/xlink" x="0px" y="0px"
	 width="24px" height="24px" viewBox="0 0 24 24" enable-background="new 0 0 24 24" xml:space="preserve">
<g>
	<polyline fill="none" stroke="#000000" stroke-linecap="round" stroke-linejoin="round" points="5.3653,23.4748 9.6568,5.3258 
		18.7426,7.4641 14.9567,23.4748 	"/>
	
		<line fill="none" stroke="#000000" stroke-linecap="round" stroke-linejoin="round" x1="8.7483" y1="5.1119" x2="19.6512" y2="7.678"/>
	
		<line fill="none" stroke="#000000" stroke-linecap="round" stroke-linejoin="round" x1="11.252" y1="8.7203" x2="10.5758" y2="11.5802"/>
	
		<line fill="none" stroke="#000000" stroke-linecap="round" stroke-linejoin="round" x1="13.5235" y1="9.2549" x2="12.8472" y2="12.1148"/>
	
		<line fill="none" stroke="#000000" stroke-linecap="round" stroke-linejoin="round" x1="15.7949" y1="9.7895" x2="15.1187" y2="12.6494"/>
	<polygon fill="none" stroke="#000000" stroke-linecap="round" stroke-linejoin="round" points="17.3481,7.1359 11.0514,5.654 
		12.1556,0.9844 18.4523,2.4663 	"/>
	
		<line fill="none" stroke="#000000" stroke-linecap="round" stroke-linejoin="round" x1="11.5259" y1="0.8362" x2="19.0819" y2="2.6145"/>
	
		<line fill="none" stroke="#000000" stroke-linecap="round" stroke-linejoin="round" x1="13.1776" y1="3.6897" x2="12.6256" y2="6.0245"/>
	
		<line fill="none" stroke="#000000" stroke-linecap="round" stroke-linejoin="round" x1="14.7518" y1="4.0602" x2="14.1997" y2="6.395"/>
	
		<line fill="none" stroke="#000000" stroke-linecap="round" stroke-linejoin="round" x1="16.326" y1="4.4306" x2="15.7739" y2="6.7654"/>
	
		<line fill="none" stroke="#000000" stroke-linecap="round" stroke-linejoin="round" x1="7.3957" y1="10.8318" x2="18.2987" y2="13.3978"/>
	
		<line fill="none" stroke="#000000" stroke-linecap="round" stroke-linejoin="round" x1="9.8995" y1="14.4402" x2="9.2388" y2="17.2341"/>
	
		<line fill="none" stroke="#000000" stroke-linecap="round" stroke-linejoin="round" x1="12.171" y1="14.9747" x2="11.5103" y2="17.7687"/>
	
		<line fill="none" stroke="#000000" stroke-linecap="round" stroke-linejoin="round" x1="14.4424" y1="15.5093" x2="13.7817" y2="18.3033"/>
	
		<line fill="none" stroke="#000000" stroke-linecap="round" stroke-linejoin="round" x1="6.0588" y1="16.4857" x2="16.9618" y2="19.0518"/>
	
		<line fill="none" stroke="#000000" stroke-linecap="round" stroke-linejoin="round" x1="19.5425" y1="23.4748" x2="14.9567" y2="23.4748"/>
	
		<line fill="none" stroke="#000000" stroke-linecap="round" stroke-linejoin="round" x1="5.3653" y1="23.4748" x2="3.568" y2="23.4748"/>
	<path fill="none" stroke="#000000" stroke-linecap="round" stroke-linejoin="round" d="M14.9567,23.4748"/>
	<path fill="none" stroke="#000000" stroke-linecap="round" stroke-linejoin="round" d="M5.3653,23.4748"/>
	
		<line fill="none" stroke="#000000" stroke-linecap="round" stroke-linejoin="round" x1="7.7667" y1="23.4415" x2="8.5626" y2="20.094"/>
	
		<line fill="none" stroke="#000000" stroke-linecap="round" stroke-linejoin="round" x1="10.834" y1="20.6287" x2="10.161" y2="23.4748"/>
	
		<line fill="none" stroke="#000000" stroke-linecap="round" stroke-linejoin="round" x1="12.5589" y1="23.4748" x2="13.1055" y2="21.1633"/>
</g>
<rect x="-0.0136" y="0" fill="none" width="24" height="24"/>
</svg>
