<?xml version="1.0" encoding="utf-8"?>
<!-- Generator: Adobe Illustrator 18.1.0, SVG Export Plug-In . SVG Version: 6.00 Build 0)  -->
<svg version="1.1" id="Layer_1" xmlns="http://www.w3.org/2000/svg" xmlns:xlink="http://www.w3.org/1999/xlink" x="0px" y="0px"
	 width="24px" height="24px" viewBox="0 0 24 24" enable-background="new 0 0 24 24" xml:space="preserve">
<g>
	
		<line fill="none" stroke="#000000" stroke-linecap="round" stroke-linejoin="round" stroke-miterlimit="10" x1="16.6" y1="4.5" x2="22.5" y2="4.5"/>
	<path fill="none" stroke="#000000" stroke-linecap="round" stroke-linejoin="round" d="M8.5,17.2c-0.7,0.7-1.1,1.6-1.1,2.6
		c0,2,1.6,3.7,3.7,3.7s3.7-1.6,3.7-3.7c0-1.1-0.5-2.2-1.3-2.8V3.1c0-1.4-1.1-2.4-2.4-2.4C9.5,0.6,8.5,1.8,8.5,3V17.2z"/>
	<circle fill="none" stroke="#000000" stroke-linecap="round" stroke-linejoin="round" cx="11" cy="20" r="0.7"/>
	<line fill="none" stroke="#000000" stroke-linecap="round" stroke-linejoin="round" x1="11" y1="19.3" x2="11" y2="14.1"/>
	<line fill="none" stroke="#000000" stroke-linecap="round" stroke-linejoin="round" x1="5.9" y1="4.5" x2="8.5" y2="4.5"/>
	<line fill="none" stroke="#000000" stroke-linecap="round" stroke-linejoin="round" x1="5.9" y1="9.5" x2="8.5" y2="9.5"/>
	<line fill="none" stroke="#000000" stroke-linecap="round" stroke-linejoin="round" x1="5.9" y1="14.5" x2="8.5" y2="14.5"/>
</g>
<rect x="0" y="0" fill="none" width="24" height="24"/>
</svg>
