<?xml version="1.0" encoding="utf-8"?>
<!-- Generator: Adobe Illustrator 18.1.0, SVG Export Plug-In . SVG Version: 6.00 Build 0)  -->
<svg version="1.1" id="Layer_1" xmlns="http://www.w3.org/2000/svg" xmlns:xlink="http://www.w3.org/1999/xlink" x="0px" y="0px"
	 width="24px" height="24px" viewBox="0 0 24 24" enable-background="new 0 0 24 24" xml:space="preserve">
<g>
	<path fill="none" stroke="#000000" stroke-linecap="round" stroke-linejoin="round" stroke-miterlimit="10" d="M23.192,12.3537
		c-8.2757-8.1965-6.5729-6.51-11.7405-11.628c-0.3259-0.3227-0.7435-0.2475-1.23-0.2457L1.3373,0.5222
		c-0.4611,0.0069-0.856,0.3756-0.8536,0.8629l0.0459,9.5072c0.0009,0.2262,0.0932,0.4439,0.2538,0.6052
		c0.1878,0.186,11.7527,11.6868,11.9945,11.7934c0.3582,0.1647,0.7342,0.054,0.9584-0.1724l9.4604-9.5513
		C23.5318,13.2303,23.5287,12.6862,23.192,12.3537z"/>
	
		<circle fill="none" stroke="#000000" stroke-linecap="round" stroke-linejoin="round" stroke-miterlimit="10" cx="5.5376" cy="5.5153" r="1.9459"/>
</g>
<rect x="-0.0136" y="0.0001" fill="none" width="24" height="24"/>
</svg>
