<?xml version="1.0" encoding="utf-8"?>
<!-- Generator: Adobe Illustrator 18.1.0, SVG Export Plug-In . SVG Version: 6.00 Build 0)  -->
<svg version="1.1" id="Layer_1" xmlns="http://www.w3.org/2000/svg" xmlns:xlink="http://www.w3.org/1999/xlink" x="0px" y="0px"
	 width="24px" height="24px" viewBox="0 0 24 24" enable-background="new 0 0 24 24" xml:space="preserve">
<g>
	<path fill="none" stroke="#000000" stroke-linecap="round" stroke-linejoin="round" stroke-miterlimit="3.864" d="M7.9441,2.2253
		c-1.1296,0.3092-2.8988-0.311-3.6993,0.5924c-1.1744,1.3267-2.3497,2.6533-3.5242,3.98C0.3545,7.2116,1.7374,8.4171,2.02,8.7557
		C3.1194,10.0748,4.3955,8.861,6.0023,8.459L5.486,23.5469"/>
	<path fill="none" stroke="#000000" stroke-linecap="round" stroke-linejoin="round" stroke-miterlimit="3.864" d="M18.5477,23.5469
		L18.0116,8.4512c1.1656,0.292,2.6563,1.9537,3.4163,0.9947c0.1776-0.2238,2.117-2.3718,1.9784-2.5279
		c-1.1358-1.282-2.2712-2.5649-3.407-3.847c-0.9006-1.0174-2.5713-0.4833-3.8707-0.8456"/>
	<path fill="none" stroke="#000000" stroke-linecap="round" stroke-linejoin="round" stroke-miterlimit="10" d="M18.5477,23.5469"/>
	<polyline fill="none" stroke="#000000" stroke-linecap="round" stroke-linejoin="round" stroke-miterlimit="3.864" points="
		12.0364,3.965 10.774,4.8498 7.9441,2.2253 8.296,0.5412 12.0364,3.965 	"/>
	<polyline fill="none" stroke="#000000" stroke-linecap="round" stroke-linejoin="round" stroke-miterlimit="3.864" points="
		12.0364,3.965 13.2987,4.8498 16.1286,2.2253 15.7767,0.5412 12.0364,3.965 	"/>
	
		<line fill="none" stroke="#000000" stroke-linecap="round" stroke-linejoin="round" stroke-miterlimit="10" x1="18.5477" y1="23.5469" x2="5.486" y2="23.5469"/>
	
		<line fill="none" stroke="#000000" stroke-linecap="round" stroke-linejoin="round" stroke-miterlimit="3.864" x1="8.296" y1="0.5412" x2="15.7767" y2="0.5412"/>
	<path fill="none" stroke="#000000" stroke-linecap="round" stroke-linejoin="round" stroke-miterlimit="10" d="M10.9938,4.6961
		c-0.2961,0.2289,0.0801,0.8832,0.3157,1.3069c0.4683-0.0778,0.9535-0.0827,1.4224-0.0136c0.236-0.4268,0.5939-1.0998,0.3005-1.3262
		"/>
	<polyline fill="none" stroke="#000000" stroke-linecap="round" stroke-linejoin="round" stroke-miterlimit="10" points="
		11.5457,7.5627 10.4483,16.1244 12.0667,17.7436 13.5854,16.1244 12.4862,7.5462 	"/>
</g>
<rect x="0.0142" y="0.0344" fill="none" width="24" height="24"/>
</svg>
