<?xml version="1.0" encoding="utf-8"?>
<!-- Generator: Adobe Illustrator 18.1.0, SVG Export Plug-In . SVG Version: 6.00 Build 0)  -->
<svg version="1.1" id="Layer_1" xmlns="http://www.w3.org/2000/svg" xmlns:xlink="http://www.w3.org/1999/xlink" x="0px" y="0px"
	 width="24px" height="24px" viewBox="0 0 24 24" enable-background="new 0 0 24 24" xml:space="preserve">
<g>
	<path fill="none" stroke="#000000" stroke-linecap="round" stroke-linejoin="round" stroke-miterlimit="3.864" d="M14.3407,9.5448
		h-4.61c-0.6234,0-1.171,0.4142-1.3407,1.0141L4.7444,23.5321h14.5825l-3.6456-12.9732C15.5117,9.959,14.9641,9.5448,14.3407,9.5448
		z"/>
	<path fill="none" stroke="#000000" stroke-linecap="round" stroke-linejoin="round" stroke-miterlimit="3.864" d="M14.978,4.1473
		h-0.6611c-1.418,0.5561-3.1426,0.5568-4.5624,0H9.0933c-1.1579,0-1.9635,1.1508-1.5672,2.2387L8.343,8.6284
		c0.2004,0.5503,0.7235,0.9163,1.3091,0.9163h4.767c0.5856,0,1.1087-0.366,1.3092-0.9163l0.8168-2.2423
		C16.9415,5.2981,16.1359,4.1473,14.978,4.1473z"/>
	
		<line fill="none" stroke="#000000" stroke-linecap="round" stroke-linejoin="round" stroke-miterlimit="3.864" x1="9.5142" y1="4.1473" x2="9.5142" y2="1.0344"/>
	
		<line fill="none" stroke="#000000" stroke-linecap="round" stroke-linejoin="round" stroke-miterlimit="3.864" x1="14.5142" y1="4.1473" x2="14.5142" y2="1.0344"/>
	
		<line fill="none" stroke="#000000" stroke-linecap="round" stroke-linejoin="round" stroke-miterlimit="3.864" x1="11.54" y1="18.6026" x2="11.54" y2="15.5586"/>
	
		<line fill="none" stroke="#000000" stroke-linecap="round" stroke-linejoin="round" stroke-miterlimit="3.864" x1="8.6734" y1="21.0852" x2="9.9175" y2="13.0153"/>
</g>
<rect x="0.0142" y="0.0344" fill="none" width="24" height="24"/>
</svg>
