<?xml version="1.0" encoding="utf-8"?>
<!-- Generator: Adobe Illustrator 18.1.0, SVG Export Plug-In . SVG Version: 6.00 Build 0)  -->
<svg version="1.1" id="Layer_1" xmlns="http://www.w3.org/2000/svg" xmlns:xlink="http://www.w3.org/1999/xlink" x="0px" y="0px"
	 width="24px" height="24px" viewBox="0 0 24 24" enable-background="new 0 0 24 24" xml:space="preserve">
<g>
	<polyline fill="none" stroke="#000000" stroke-linecap="round" stroke-linejoin="round" points="7.4539,20.0862 1.3512,14.0799 
		14.7883,0.6421 22.1931,8.0471 18.4661,11.7973 	"/>
	<polyline fill="none" stroke="#000000" stroke-linecap="round" stroke-linejoin="round" points="21.3534,8.8865 22.8854,11.0041 
		20.8576,12.4713 	"/>
	<path fill="none" stroke="#000000" stroke-linecap="round" stroke-linejoin="round" d="M22.4508,17.7227"/>
	<path fill="none" stroke="#000000" stroke-linecap="round" stroke-linejoin="round" d="M22.4508,14.8369"/>
	<path fill="none" stroke="#000000" stroke-linecap="round" stroke-linejoin="round" d="M7.4539,17.2004
		c0,1.3055,3.3574,2.3638,7.498,2.3638c4.1419,0,7.4989-1.0583,7.4989-2.3638"/>
	<path fill="none" stroke="#000000" stroke-linecap="round" stroke-linejoin="round" d="M22.4508,14.1823v5.9039
		c0,1.3055-3.357,2.3638-7.4989,2.3638c-4.1406,0-7.498-1.0583-7.498-2.3638l0-5.9039"/>
	
		<ellipse fill="none" stroke="#000000" stroke-linecap="round" stroke-linejoin="round" cx="14.9523" cy="14.0248" rx="7.4984" ry="2.5214"/>
</g>
<rect x="-0.0137" y="0.0031" fill="none" width="24" height="24"/>
<rect x="-0.0137" y="0" fill="none" width="24" height="24"/>
</svg>
