<?xml version="1.0" encoding="utf-8"?>
<!-- Generator: Adobe Illustrator 18.1.0, SVG Export Plug-In . SVG Version: 6.00 Build 0)  -->
<svg version="1.1" id="Layer_1" xmlns="http://www.w3.org/2000/svg" xmlns:xlink="http://www.w3.org/1999/xlink" x="0px" y="0px"
	 width="24px" height="24px" viewBox="0 0 24 24" enable-background="new 0 0 24 24" xml:space="preserve">
<g>
	<polyline fill="none" stroke="#000000" stroke-linecap="round" stroke-linejoin="round" stroke-miterlimit="10" points="
		13.5044,0.5097 13.5044,4.5097 17.5044,4.5097 	"/>
	<path fill="none" stroke="#000000" stroke-linecap="round" stroke-linejoin="round" stroke-miterlimit="10" d="M17.5044,21.5229
		v1.187c0,0.4366-0.354,0.7999-0.7915,0.7999H1.2917c-0.4366,0-0.7872-0.3633-0.7872-0.7999V1.3153
		c0-0.4364,0.3506-0.8056,0.7872-0.8056h12.2127c0.2076,0,0.3041,0.0894,0.4517,0.2349l3.3124,3.2687
		c0.1503,0.1483,0.2359,0.285,0.2359,0.4964l0,2.0641"/>
	
		<line fill="none" stroke="#000000" stroke-linecap="round" stroke-linejoin="round" x1="4.4369" y1="13.4645" x2="10.448" y2="13.4645"/>
	
		<line fill="none" stroke="#000000" stroke-linecap="round" stroke-linejoin="round" x1="4.4369" y1="16.4935" x2="10.448" y2="16.4935"/>
	
		<line fill="none" stroke="#000000" stroke-linecap="round" stroke-linejoin="round" x1="4.4369" y1="10.4355" x2="10.448" y2="10.4355"/>
	<path fill="none" stroke="#000000" stroke-linecap="round" stroke-linejoin="round" stroke-miterlimit="10" d="M23.2984,17.44
		c-1.6216-0.6647-3.4217-1.49-3.573-2.0043v-0.5395c0.3364-0.365,0.6017-0.8741,0.7587-1.4701
		c0.3767-0.2805,0.4714-0.8598,0.1588-1.2676v-1.2078c0-1.2468-0.6546-2.1003-2.151-2.1003c-1.4578,0-2.1518,0.8535-2.1518,2.1003
		v1.2082c-0.3121,0.4075-0.2171,0.9863,0.1588,1.267c0.157,0.5962,0.4225,1.1053,0.7591,1.4703v0.5395
		c-0.1509,0.5137-1.9514,1.3392-3.573,2.0043c-0.1382,0.0569-0.2297,0.1995-0.2297,0.3589v1.3493
		c0,0.2119,0.1598,0.3841,0.3568,0.3841h9.3591c0.197,0,0.3568-0.1722,0.3568-0.3841v-1.3493
		C23.5281,17.6395,23.4366,17.4965,23.2984,17.44z"/>
</g>
<rect x="0" y="0.0001" fill="none" width="24" height="24"/>
</svg>
