<?xml version="1.0" encoding="utf-8"?>
<!-- Generator: Adobe Illustrator 18.1.0, SVG Export Plug-In . SVG Version: 6.00 Build 0)  -->
<svg version="1.1" id="Layer_1" xmlns="http://www.w3.org/2000/svg" xmlns:xlink="http://www.w3.org/1999/xlink" x="0px" y="0px"
	 width="24px" height="24px" viewBox="0 0 24 24" enable-background="new 0 0 24 24" xml:space="preserve">
<g>
	<polygon fill="none" stroke="#000000" stroke-linecap="round" stroke-linejoin="round" points="18.4501,9.6871 16.4156,7.6526 
		14.3811,5.6181 3.5959,16.4033 7.6649,20.4723 	"/>
	
		<line fill="none" stroke="#000000" stroke-linecap="round" stroke-linejoin="round" x1="21.8766" y1="2.1916" x2="16.4156" y2="7.6526"/>
	
		<line fill="none" stroke="#000000" stroke-linecap="round" stroke-linejoin="round" x1="12.08" y1="7.9193" x2="13.0972" y2="8.9365"/>
	
		<line fill="none" stroke="#000000" stroke-linecap="round" stroke-linejoin="round" x1="10.6871" y1="9.3121" x2="12.7216" y2="11.3466"/>
	
		<line fill="none" stroke="#000000" stroke-linecap="round" stroke-linejoin="round" x1="9.2942" y1="10.705" x2="10.3115" y2="11.7222"/>
	
		<line fill="none" stroke="#000000" stroke-linecap="round" stroke-linejoin="round" x1="7.9014" y1="12.0979" x2="9.9359" y2="14.1323"/>
	
		<line fill="none" stroke="#000000" stroke-linecap="round" stroke-linejoin="round" x1="6.5085" y1="13.4907" x2="7.5257" y2="14.508"/>
	
		<line fill="none" stroke="#000000" stroke-linecap="round" stroke-linejoin="round" x1="5.1156" y1="14.8836" x2="7.1501" y2="16.9181"/>
	
		<line fill="none" stroke="#000000" stroke-linecap="round" stroke-linejoin="round" x1="0.607" y1="19.3922" x2="4.676" y2="23.4612"/>
	
		<rect x="2.7407" y="17.8188" transform="matrix(0.7071 0.7071 -0.7071 0.7071 15.3056 2.9135)" fill="none" stroke="#000000" stroke-linecap="round" stroke-linejoin="round" width="2.7905" height="4.2269"/>
	<path fill="none" stroke="#000000" stroke-linecap="round" stroke-linejoin="round" stroke-miterlimit="10" d="M21.8765,7.0492
		c-0.0241,0-1.4956,2.3585-1.4956,3.1844c0,0.8261,0.6696,1.4957,1.4956,1.4957s1.4957-0.6696,1.4957-1.4957
		C23.3722,9.4077,21.9007,7.0492,21.8765,7.0492z"/>
</g>
<rect x="0.0142" y="0.0346" fill="none" width="24" height="24"/>
</svg>
