<?xml version="1.0" encoding="utf-8"?>
<!-- Generator: Adobe Illustrator 18.1.0, SVG Export Plug-In . SVG Version: 6.00 Build 0)  -->
<svg version="1.1" id="Layer_1" xmlns="http://www.w3.org/2000/svg" xmlns:xlink="http://www.w3.org/1999/xlink" x="0px" y="0px"
	 width="24px" height="24px" viewBox="0 0 24 24" enable-background="new 0 0 24 24" xml:space="preserve">
<g>
	<polyline fill="none" stroke="#000000" stroke-linecap="round" stroke-linejoin="round" stroke-miterlimit="10" points="
		2.9863,22.5002 8.4863,22.5002 8.4863,19.5002 12.4863,19.5002 12.4863,16.5002 16.4863,16.5002 16.4863,13.5002 21.9863,13.5002 	
		"/>
	
		<circle fill="none" stroke="#000000" stroke-linecap="round" stroke-linejoin="round" stroke-miterlimit="10" cx="7.6167" cy="2.7556" r="1.4457"/>
	<path fill="none" stroke="#000000" stroke-linecap="round" stroke-linejoin="round" stroke-miterlimit="10" d="M9.3771,17.3591
		l0.1496-2.985c0.008-0.1859-0.0606-0.367-0.1899-0.5009l-3.1275-2.239c-0.2586-0.2678-0.3959-0.6299-0.3798-1.0018l0.1337-3.0959
		c0.0338-0.7821,0.6497-1.4578,1.4325-1.465c0.8348-0.0076,1.4953,0.6846,1.4597,1.508l0.4045,2.9191l2.7612-0.6878"/>
	
		<line fill="none" stroke="#000000" stroke-linecap="round" stroke-linejoin="round" stroke-miterlimit="10" x1="6.3584" y1="14.0875" x2="4.2373" y2="20.6977"/>
	<polyline fill="none" stroke="#000000" stroke-linecap="round" stroke-linejoin="round" stroke-miterlimit="10" points="
		4.2373,7.2122 2.8262,7.9642 1.9629,11.2535 	"/>
</g>
<rect x="-0.0137" y="0.0002" fill="none" width="24" height="24"/>
</svg>
