<?xml version="1.0" encoding="utf-8"?>
<!-- Generator: Adobe Illustrator 18.1.0, SVG Export Plug-In . SVG Version: 6.00 Build 0)  -->
<svg version="1.1" id="Layer_1" xmlns="http://www.w3.org/2000/svg" xmlns:xlink="http://www.w3.org/1999/xlink" x="0px" y="0px"
	 width="24px" height="24px" viewBox="0 0 24 24" enable-background="new 0 0 24 24" xml:space="preserve">
<g>
	<path fill="none" stroke="#000000" stroke-linecap="round" stroke-linejoin="round" stroke-miterlimit="10" d="M7.2673,12.3307
		l2.5068,1.1872l0.3843,0.8691c1.2744,0.3604,2.3691,0.3635,3.655,0l0.3838-0.8691l2.5059-1.1872c0,0-0.5004-1.069,0.6019-2.4893
		c0.9984-1.2859,0.9841-3.5574,0.9714-3.9765c0.1079-2.7844-2.6873-5.1812-6.288-5.1812c-3.8667,0-6.4002,2.6512-6.2901,5.1138
		L5.6961,5.7971c0,0-0.1329,2.6236,0.9705,4.0444C7.7686,11.2617,7.2673,12.3307,7.2673,12.3307"/>
	<path fill="none" stroke="#000000" stroke-linecap="round" stroke-linejoin="round" stroke-miterlimit="10" d="M13.0959,9.2688
		V9.2664V9.2647l0.0012-0.512c-0.0004-0.0142-0.0012-0.0279-0.0012-0.0421c0-0.0166,0.0008-0.0328,0.0012-0.0493V8.6569h0.0004
		c0.0301-0.6423,0.5915-1.1543,1.2801-1.1543c0.6833,0,1.2416,0.5043,1.2792,1.1409l0,0c0.0008,0.0222,0.0018,0.0437,0.0018,0.0671
		c0,0.0222-0.001,0.0445-0.0018,0.0675v0.4239c0.0008,0.0214,0.0018,0.0429,0.0018,0.0643c0,0.6431-0.5735,1.1648-1.281,1.1648
		c-0.6993,0-1.2669-0.5088-1.2809-1.1405L13.0959,9.291V9.2688z"/>
	<path fill="none" stroke="#000000" stroke-linecap="round" stroke-linejoin="round" stroke-miterlimit="10" d="M8.4283,9.2688
		V9.2664V9.2647l0.0014-0.512c-0.001-0.0142-0.0014-0.0279-0.0014-0.0421c0-0.0166,0.0004-0.0328,0.0014-0.0493V8.6569
		c0.0299-0.6423,0.5909-1.1543,1.2796-1.1543c0.6831,0,1.2414,0.5043,1.279,1.1409l0,0c0.001,0.0222,0.0018,0.0437,0.0018,0.0671
		c0,0.0222-0.0008,0.0445-0.0018,0.0675v0.4239c0.001,0.0214,0.0018,0.0429,0.0018,0.0643c0,0.6431-0.5735,1.1648-1.2809,1.1648
		c-0.6989,0-1.2667-0.5088-1.2807-1.1405L8.4283,9.291V9.2688z"/>
	
		<line fill="none" stroke="#000000" stroke-linecap="round" stroke-linejoin="round" stroke-miterlimit="10" x1="7.5796" y1="17.077" x2="16.294" y2="21.3943"/>
	<path fill="none" stroke="#000000" stroke-linecap="round" stroke-linejoin="round" stroke-miterlimit="10" d="M8.0917,16.6649
		c0.2873-0.4689,0.1401-1.082-0.3288-1.3693c-0.4689-0.2873-1.082-0.1401-1.3693,0.3288c-0.1229,0.2006-0.1619,0.4268-0.1346,0.6433
		c-0.2053,0.0741-0.3892,0.2116-0.512,0.4121c-0.2873,0.4689-0.1401,1.082,0.3288,1.3693s1.082,0.1401,1.3693-0.3288
		c0.1228-0.2005,0.1618-0.4267,0.1346-0.6433C7.7849,17.003,7.9688,16.8655,8.0917,16.6649z"/>
	<path fill="none" stroke="#000000" stroke-linecap="round" stroke-linejoin="round" stroke-miterlimit="10" d="M18.2237,21.7482
		c0.2873-0.4689,0.1401-1.082-0.3288-1.3693c-0.4689-0.2873-1.082-0.1401-1.3693,0.3288c-0.1229,0.2006-0.1619,0.4268-0.1346,0.6433
		c-0.2053,0.0741-0.3892,0.2116-0.512,0.4121c-0.2873,0.4689-0.1401,1.082,0.3288,1.3693c0.4689,0.2873,1.082,0.1401,1.3693-0.3288
		c0.1228-0.2005,0.1618-0.4267,0.1346-0.6433C17.9169,22.0862,18.1008,21.9488,18.2237,21.7482z"/>
	
		<line fill="none" stroke="#000000" stroke-linecap="round" stroke-linejoin="round" stroke-miterlimit="10" x1="16.2512" y1="17.077" x2="7.6806" y2="21.3943"/>
	<path fill="none" stroke="#000000" stroke-linecap="round" stroke-linejoin="round" stroke-miterlimit="10" d="M15.8789,16.6649
		c-0.2873-0.4689-0.1401-1.082,0.3288-1.3693c0.4689-0.2873,1.082-0.1401,1.3693,0.3288c0.1229,0.2006,0.1619,0.4268,0.1346,0.6433
		c0.2053,0.0741,0.3892,0.2116,0.512,0.4121c0.2873,0.4689,0.1401,1.082-0.3288,1.3693c-0.4689,0.2873-1.082,0.1401-1.3693-0.3288
		c-0.1228-0.2005-0.1618-0.4267-0.1346-0.6433C16.1856,17.003,16.0017,16.8655,15.8789,16.6649z"/>
	<path fill="none" stroke="#000000" stroke-linecap="round" stroke-linejoin="round" stroke-miterlimit="10" d="M5.7469,21.7482
		c-0.2873-0.4689-0.1401-1.082,0.3288-1.3693s1.082-0.1401,1.3693,0.3288c0.1229,0.2006,0.1619,0.4268,0.1346,0.6433
		c0.2053,0.0741,0.3892,0.2116,0.512,0.4121c0.2873,0.4689,0.1401,1.082-0.3288,1.3693c-0.4689,0.2873-1.082,0.1401-1.3693-0.3288
		c-0.1228-0.2005-0.1618-0.4267-0.1346-0.6433C6.0536,22.0862,5.8697,21.9488,5.7469,21.7482z"/>
	
		<line fill="none" stroke="#000000" stroke-linecap="round" stroke-linejoin="round" stroke-miterlimit="10" x1="11.9853" y1="12.7491" x2="11.9853" y2="11.2393"/>
</g>
<rect x="-0.0136" y="0.0002" fill="none" width="24" height="24"/>
</svg>
