<?xml version="1.0" encoding="utf-8"?>
<!-- Generator: Adobe Illustrator 18.1.0, SVG Export Plug-In . SVG Version: 6.00 Build 0)  -->
<svg version="1.1" id="Layer_1" xmlns="http://www.w3.org/2000/svg" xmlns:xlink="http://www.w3.org/1999/xlink" x="0px" y="0px"
	 width="24px" height="24px" viewBox="0 0 24 24" enable-background="new 0 0 24 24" xml:space="preserve">
<g>
	<path fill="none" stroke="#000000" stroke-linecap="round" stroke-linejoin="round" d="M23.2786,4.8962
		c0-1.5089-5.0525-3.3746-11.2796-3.3746c-6.227,0-11.2796,1.8657-11.2796,3.3746c0,0.0292,0,0.0834,0,0.0834
		c0,2.6539,7.2978,8.8671,8.6263,11.5211v4.6971c0,1.746,5.3067,1.7489,5.3067,0v-4.6971c1.3285-2.654,8.6263-8.8672,8.6263-11.5211
		C23.2786,4.9796,23.2786,4.9254,23.2786,4.8962z"/>
	<path fill="none" stroke="#000000" stroke-linecap="round" stroke-linejoin="round" d="M2.1859,5.2904
		c1.5829,2.8831,18.0431,2.8829,19.6261,0"/>
</g>
<rect x="0" y="0" fill="none" width="24" height="24"/>
</svg>
