<?xml version="1.0" encoding="utf-8"?>
<!-- Generator: Adobe Illustrator 18.1.0, SVG Export Plug-In . SVG Version: 6.00 Build 0)  -->
<svg version="1.1" id="Layer_1" xmlns="http://www.w3.org/2000/svg" xmlns:xlink="http://www.w3.org/1999/xlink" x="0px" y="0px"
	 width="24px" height="24px" viewBox="0 0 24 24" enable-background="new 0 0 24 24" xml:space="preserve">
<g>
	<path fill="none" stroke="#000000" stroke-linecap="round" stroke-linejoin="round" stroke-miterlimit="10" d="M12.2155,16.7094
		c-1.43-0.5526-3.0175-1.2388-3.1509-1.6664v-0.4486c0.2967-0.3035,0.5306-0.7267,0.6691-1.2222
		c0.3302-0.2319,0.417-0.7132,0.14-1.0539v-1.0042c0-1.0366-0.5772-1.7462-1.8969-1.7462c-1.2856,0-1.8976,0.7096-1.8976,1.7462
		v1.0045c-0.276,0.3397-0.1902,0.8209,0.14,1.0534c0.1385,0.4957,0.3726,0.9189,0.6694,1.2224v0.4486
		c-0.133,0.4271-1.7209,1.1135-3.1509,1.6664c-0.1219,0.0473-0.2025,0.1659-0.2025,0.2984v1.1219
		c0,0.1762,0.1409,0.3193,0.3146,0.3193h8.2536c0.1737,0,0.3146-0.1432,0.3146-0.3193v-1.1219
		C12.418,16.8753,12.3374,16.7564,12.2155,16.7094z"/>
	<polyline fill="none" stroke="#000000" stroke-linecap="round" stroke-linejoin="round" points="10.4443,5.4988 0.5629,5.4988 
		0.5629,21.4814 23.5189,21.4814 23.5189,5.4988 13.9716,5.4988 	"/>
	<path fill="none" stroke="#000000" stroke-linecap="round" stroke-linejoin="round" d="M14.1229,1.7569
		c-0.1626-0.1839-0.3959-0.2892-0.6405-0.2892h-2.5487c-0.2446,0-0.4779,0.1053-0.6405,0.2892
		c-0.1623,0.1839-0.2389,0.429-0.2101,0.6734l0.5083,4.3178c0.0509,0.4335,0.4166,0.7601,0.8507,0.7601h1.5317
		c0.434,0,0.7998-0.3265,0.8507-0.7601l0.5087-4.3178C14.3619,2.186,14.2852,1.9409,14.1229,1.7569z"/>
	
		<line fill="none" stroke="#000000" stroke-linecap="round" stroke-linejoin="round" x1="14.5146" y1="15.4894" x2="20.4766" y2="15.4894"/>
	<path fill="none" stroke="#000000" stroke-linecap="round" stroke-linejoin="round" stroke-miterlimit="10" d="M12.2155,16.7094
		c-1.43-0.5526-3.0175-1.2388-3.1509-1.6664v-0.4486c0.2967-0.3035,0.5306-0.7267,0.6691-1.2222
		c0.3302-0.2319,0.417-0.7132,0.14-1.0539v-1.0042c0-1.0366-0.5772-1.7462-1.8969-1.7462c-1.2856,0-1.8976,0.7096-1.8976,1.7462
		v1.0045c-0.276,0.3397-0.1902,0.8209,0.14,1.0534c0.1385,0.4957,0.3726,0.9189,0.6694,1.2224v0.4486
		c-0.133,0.4271-1.7209,1.1135-3.1509,1.6664c-0.1219,0.0473-0.2025,0.1659-0.2025,0.2984v1.1219
		c0,0.1762,0.1409,0.3193,0.3146,0.3193h8.2536c0.1737,0,0.3146-0.1432,0.3146-0.3193v-1.1219
		C12.418,16.8753,12.3374,16.7564,12.2155,16.7094z"/>
	<path fill="none" stroke="#000000" stroke-linecap="round" stroke-linejoin="round" d="M14.1229,1.7569
		c-0.1626-0.1839-0.3959-0.2892-0.6405-0.2892h-2.5487c-0.2446,0-0.4779,0.1053-0.6405,0.2892
		c-0.1623,0.1839-0.2389,0.429-0.2101,0.6734l0.5083,4.3178c0.0509,0.4335,0.4166,0.7601,0.8507,0.7601h1.5317
		c0.434,0,0.7998-0.3265,0.8507-0.7601l0.5087-4.3178C14.3619,2.186,14.2852,1.9409,14.1229,1.7569z"/>
	
		<line fill="none" stroke="#000000" stroke-linecap="round" stroke-linejoin="round" x1="14.5146" y1="15.4894" x2="20.4766" y2="15.4894"/>
	
		<line fill="none" stroke="#000000" stroke-linecap="round" stroke-linejoin="round" x1="14.5146" y1="12.4891" x2="20.4766" y2="12.4891"/>
	
		<line fill="none" stroke="#000000" stroke-linecap="round" stroke-linejoin="round" x1="14.5146" y1="12.4891" x2="20.4766" y2="12.4891"/>
</g>
<rect x="0.0005" y="0.0004" fill="none" width="24" height="24"/>
</svg>
