<?xml version="1.0" encoding="utf-8"?>
<!-- Generator: Adobe Illustrator 18.1.0, SVG Export Plug-In . SVG Version: 6.00 Build 0)  -->
<svg version="1.1" id="Layer_1" xmlns="http://www.w3.org/2000/svg" xmlns:xlink="http://www.w3.org/1999/xlink" x="0px" y="0px"
	 width="24px" height="24px" viewBox="0 0 24 24" enable-background="new 0 0 24 24" xml:space="preserve">
<g>
	<path fill="none" stroke="#000000" stroke-linecap="round" stroke-linejoin="round" stroke-miterlimit="10" d="M5.952,6.4219
		L1.043,7.928C0.7286,8.0264,0.5534,8.3608,0.6519,8.6755l3.4125,10.9047c0.0983,0.3141,0.433,0.4893,0.7474,0.3909l7.2909-2.2911"
		/>
	<path fill="none" stroke="#000000" stroke-linecap="round" stroke-linejoin="round" stroke-miterlimit="10" d="M17.8086,5.9076
		l-0.7731-2.3592c-0.0985-0.3147-0.4328-0.4897-0.7469-0.3914l-5.0122,1.5322"/>
	<path fill="none" stroke="#000000" stroke-linecap="round" stroke-linejoin="round" stroke-miterlimit="10" d="M22.7336,6.8262
		L7.0297,3.8972C6.7059,3.8368,6.3944,4.0501,6.3339,4.3743l-2.095,11.2325c-0.0603,0.3235,0.1533,0.6351,0.4771,0.6955
		l15.7039,2.929c0.3236,0.0603,0.6348-0.1534,0.6951-0.4769l2.095-11.2325C23.2705,7.1977,23.0572,6.8865,22.7336,6.8262z"/>
	
		<circle fill="none" stroke="#000000" stroke-linecap="round" stroke-linejoin="round" stroke-miterlimit="10" cx="9.8253" cy="9.202" r="1.6013"/>
	<polyline fill="none" stroke="#000000" stroke-linecap="round" stroke-linejoin="round" stroke-miterlimit="10" points="
		7.6653,16.7867 14.1954,10.6469 15.7734,13.8857 19.2807,10.1266 21.7061,15.5142 	"/>
</g>
<rect x="-0.0137" y="0.0002" fill="none" width="24" height="24"/>
</svg>
