<?xml version="1.0" encoding="utf-8"?>
<!-- Generator: Adobe Illustrator 18.1.0, SVG Export Plug-In . SVG Version: 6.00 Build 0)  -->
<svg version="1.1" id="Layer_1" xmlns="http://www.w3.org/2000/svg" xmlns:xlink="http://www.w3.org/1999/xlink" x="0px" y="0px"
	 width="24px" height="24px" viewBox="0 0 24 24" enable-background="new 0 0 24 24" xml:space="preserve">
<g>
	
		<ellipse fill-rule="evenodd" clip-rule="evenodd" fill="none" stroke="#000000" stroke-linecap="round" stroke-linejoin="round" cx="5.9766" cy="18.3612" rx="2.375" ry="1.8911"/>
	
		<ellipse fill-rule="evenodd" clip-rule="evenodd" fill="none" stroke="#000000" stroke-linecap="round" stroke-linejoin="round" cx="2.4061" cy="22.2751" rx="1.0975" ry="0.8737"/>
	<path fill-rule="evenodd" clip-rule="evenodd" fill="none" stroke="#000000" stroke-linecap="round" stroke-linejoin="round" d="
		M23.0426,9.1392c-0.123-1.1243-0.8641-2.0578-1.931-2.6244c0.1455-2.348-1.9111-4.1185-4.2915-4.0392
		c-1.2741-1.9551-4.2114-2.2351-5.9854-0.6053C9.3744,0.0894,6.2521,0.9428,5.9962,3.1819C3.0675,3.8877,1.0308,6.475,1.3395,9.2982
		c0.3004,2.7469,2.7192,4.7775,5.6217,4.9117c0.886,0.8799,2.5186,1.0055,3.7037,0.2654c1.8925,1.6006,5.3199,0.9761,6.3981-1.1642
		C20.2559,13.9254,23.3248,11.7226,23.0426,9.1392z"/>
</g>
<rect x="0" y="-0.002" fill="none" width="24" height="24"/>
</svg>
