<?xml version="1.0" encoding="utf-8"?>
<!-- Generator: Adobe Illustrator 18.1.0, SVG Export Plug-In . SVG Version: 6.00 Build 0)  -->
<svg version="1.1" id="Layer_1" xmlns="http://www.w3.org/2000/svg" xmlns:xlink="http://www.w3.org/1999/xlink" x="0px" y="0px"
	 width="24px" height="24px" viewBox="0 0 24 24" enable-background="new 0 0 24 24" xml:space="preserve">
<g>
	
		<rect x="3.4895" y="9.5" fill="none" stroke="#000000" stroke-linecap="round" stroke-linejoin="round" stroke-miterlimit="10" width="2" height="5"/>
	
		<rect x="7.4899" y="9.5" fill="none" stroke="#000000" stroke-linecap="round" stroke-linejoin="round" stroke-miterlimit="10" width="2" height="5"/>
	<path fill="none" stroke="#000000" stroke-linecap="round" stroke-linejoin="round" d="M21.5096,9.5V6c0-0.2761-0.2239-0.5-0.5-0.5
		h-20c-0.2761,0-0.5,0.2239-0.5,0.5v12c0,0.2761,0.2239,0.5,0.5,0.5h20c0.2761,0,0.5-0.2239,0.5-0.5v-3.5h1.5
		c0.2761,0,0.5-0.2239,0.5-0.5v-4c0-0.2761-0.2239-0.5-0.5-0.5H21.5096z"/>
</g>
<rect x="0" y="0" fill="none" width="24" height="24"/>
</svg>
