<?xml version="1.0" encoding="utf-8"?>
<!-- Generator: Adobe Illustrator 18.1.0, SVG Export Plug-In . SVG Version: 6.00 Build 0)  -->
<svg version="1.1" id="Layer_1" xmlns="http://www.w3.org/2000/svg" xmlns:xlink="http://www.w3.org/1999/xlink" x="0px" y="0px"
	 width="24px" height="24px" viewBox="0 0 24 24" enable-background="new 0 0 24 24" xml:space="preserve">
<g>
	
		<line fill="none" stroke="#000000" stroke-linecap="round" stroke-linejoin="round" x1="16.2978" y1="15.0232" x2="14.1562" y2="13.2245"/>
	
		<line fill="none" stroke="#000000" stroke-linecap="round" stroke-linejoin="round" stroke-miterlimit="10" x1="14.3297" y1="16.1135" x2="12.5838" y2="14.6845"/>
	<path fill="none" stroke="#000000" stroke-linecap="round" stroke-linejoin="round" d="M4.7973,12.3379
		c0.6213,1.7859,5.6247,5.6522,5.6247,5.6522c1.2066,1.0211,2.2973-0.5374,1.3053-1.377l-0.7606-0.7382"/>
	<path fill="none" stroke="#000000" stroke-linecap="round" stroke-linejoin="round" d="M10.9666,15.8749l2.0691,1.7967
		c1.1903,1.0074,2.3514-0.6362,1.3679-1.4685l0.5219,0.4416c1.0404,0.8805,2.4099-0.7434,1.3723-1.6215l0.0806,0.0682
		c1.0407,0.8807,2.4099-0.7434,1.3722-1.6215l-5.1218-4.1762c0,0-0.9881,0.3787-1.3702,0.2695c0,0-1.4747,2.2618-2.5529,1.4757
		s-0.0001-4.1331,3.0307-4.6113c0,0,1.364-0.3889,4.7046,1.3328l1.2384-0.375"/>
	
		<rect x="1.5808" y="6.2043" transform="matrix(-0.9622 -0.2725 0.2725 -0.9622 4.0486 20.7834)" fill="none" stroke="#000000" stroke-linecap="round" stroke-linejoin="round" width="3.773" height="7.8127"/>
	
		<rect x="18.6569" y="6.4049" transform="matrix(0.9622 -0.2725 0.2725 0.9622 -2.0322 5.9875)" fill="none" stroke="#000000" stroke-linecap="round" stroke-linejoin="round" width="3.773" height="7.8127"/>
	<path fill="none" stroke="#000000" stroke-linecap="round" stroke-linejoin="round" d="M6.2035,7.3721
		c0,0,0.1759-0.3194,4.0264-0.403"/>
	<path fill="none" stroke="#000000" stroke-linecap="round" stroke-linejoin="round" d="M18.081,14.0035
		c0,0,0.9544,0.2473,1.4552-0.325"/>
</g>
<rect x="-0.0016" y="-0.003" fill="none" width="24" height="24"/>
</svg>
