<?xml version="1.0" encoding="utf-8"?>
<!-- Generator: Adobe Illustrator 18.1.0, SVG Export Plug-In . SVG Version: 6.00 Build 0)  -->
<svg version="1.1" id="Layer_1" xmlns="http://www.w3.org/2000/svg" xmlns:xlink="http://www.w3.org/1999/xlink" x="0px" y="0px"
	 width="24px" height="24px" viewBox="0 0 24 24" enable-background="new 0 0 24 24" xml:space="preserve">
<g>
	<path fill="none" stroke="#000000" stroke-linecap="round" stroke-linejoin="round" d="M19.9329,14.3551
		c0,2.0883-1.714,3.1514-3.8287,3.1514H7.8664c-2.1146,0-3.8287-1.0631-3.8287-3.1514L4.9948,3.986
		c0-2.0886,1.7142-3.4664,3.8287-3.4664h6.3233c2.1146,0,3.8287,1.3778,3.8287,3.4664L19.9329,14.3551z"/>
	<path fill="none" stroke="#000000" stroke-linecap="round" stroke-linejoin="round" d="M19.0391,4.6774
		c-0.3643-0.6647-1.9395-1.1478-3.8276-1.1478H8.759c-1.8804,0-3.4505,0.4792-3.8231,1.1397"/>
	<path fill="none" stroke="#000000" stroke-linecap="round" stroke-linejoin="round" d="M4.4547,9.9523
		c0,0.6753,1.8451,1.5131,4.1212,1.5131h6.8064c2.2761,0,4.1345-0.8378,4.1345-1.5131"/>
	
		<ellipse fill="none" stroke="#000000" stroke-linecap="round" stroke-linejoin="round" cx="7.5881" cy="14.3403" rx="1.1435" ry="1.1292"/>
	
		<ellipse fill="none" stroke="#000000" stroke-linecap="round" stroke-linejoin="round" cx="16.3249" cy="14.3403" rx="1.1434" ry="1.1292"/>
	
		<line fill="none" stroke="#000000" stroke-linecap="round" stroke-linejoin="round" stroke-miterlimit="10" x1="8.6192" y1="19.1059" x2="7.0198" y2="23.2994"/>
	
		<line fill="none" stroke="#000000" stroke-linecap="round" stroke-linejoin="round" stroke-miterlimit="10" x1="15.3195" y1="19.1059" x2="16.9189" y2="23.2994"/>
	
		<line fill="none" stroke="#000000" stroke-linecap="round" stroke-linejoin="round" stroke-miterlimit="10" x1="7.8195" y1="21.4333" x2="16.1192" y2="21.4333"/>
	
		<line fill="none" stroke="#000000" stroke-linecap="round" stroke-linejoin="round" x1="10.6024" y1="2.0378" x2="13.3727" y2="2.0378"/>
</g>
<rect x="-0.0136" y="0.0002" fill="none" width="24" height="24"/>
</svg>
