<?xml version="1.0" encoding="utf-8"?>
<!-- Generator: Adobe Illustrator 18.1.0, SVG Export Plug-In . SVG Version: 6.00 Build 0)  -->
<svg version="1.1" id="Layer_1" xmlns="http://www.w3.org/2000/svg" xmlns:xlink="http://www.w3.org/1999/xlink" x="0px" y="0px"
	 width="24px" height="24px" viewBox="0 0 24 24" enable-background="new 0 0 24 24" xml:space="preserve">
<g>
	<path fill="none" stroke="#000000" stroke-linecap="round" stroke-linejoin="round" stroke-miterlimit="10" d="M18.2761,15.367
		c-1.7711-0.6844-3.7373-1.5343-3.9026-2.0639v-0.5556c0.3674-0.3759,0.6572-0.9001,0.8287-1.5138
		c0.409-0.2872,0.5165-0.8834,0.1734-1.3053V8.6847c0-1.2839-0.7149-2.1628-2.3494-2.1628c-1.5923,0-2.3503,0.8789-2.3503,2.1628
		v1.2441c-0.3418,0.4207-0.2356,1.0168,0.1734,1.3047c0.1715,0.6139,0.4615,1.1381,0.8291,1.514v0.5556
		c-0.1648,0.529-2.1314,1.3791-3.9025,2.0639c-0.151,0.0586-0.2509,0.2054-0.2509,0.3696v1.3895
		c0,0.2182,0.1745,0.3955,0.3897,0.3955h10.2224c0.2152,0,0.3897-0.1773,0.3897-0.3955v-1.3895
		C18.527,15.5725,18.427,15.4252,18.2761,15.367z"/>
	<path fill="none" stroke="#000000" stroke-linecap="round" stroke-linejoin="round" stroke-miterlimit="10" d="M21.5,1.306
		c0-0.4463-0.3614-0.808-0.8071-0.808H4.3072C3.8614,0.498,3.5,0.8598,3.5,1.306V22.69c0,0.4463,0.3614,0.808,0.8071,0.808h16.3857
		c0.4458,0,0.8071-0.3618,0.8071-0.808V1.306z"/>
	
		<line fill="none" stroke="#000000" stroke-linecap="round" stroke-linejoin="round" stroke-miterlimit="10" x1="1.4849" y1="20.4977" x2="4.584" y2="20.4977"/>
	
		<line fill="none" stroke="#000000" stroke-linecap="round" stroke-linejoin="round" stroke-miterlimit="10" x1="1.4849" y1="17.4974" x2="4.584" y2="17.4974"/>
	
		<line fill="none" stroke="#000000" stroke-linecap="round" stroke-linejoin="round" stroke-miterlimit="10" x1="1.4849" y1="14.4971" x2="4.584" y2="14.4971"/>
	
		<line fill="none" stroke="#000000" stroke-linecap="round" stroke-linejoin="round" stroke-miterlimit="10" x1="1.4849" y1="11.4968" x2="4.584" y2="11.4968"/>
	
		<line fill="none" stroke="#000000" stroke-linecap="round" stroke-linejoin="round" stroke-miterlimit="10" x1="1.4849" y1="8.4965" x2="4.584" y2="8.4965"/>
	
		<line fill="none" stroke="#000000" stroke-linecap="round" stroke-linejoin="round" stroke-miterlimit="10" x1="1.4849" y1="5.4962" x2="4.584" y2="5.4962"/>
	
		<line fill="none" stroke="#000000" stroke-linecap="round" stroke-linejoin="round" stroke-miterlimit="10" x1="1.4849" y1="2.4959" x2="4.584" y2="2.4959"/>
</g>
<rect x="0" y="-0.002" fill="none" width="24" height="24"/>
</svg>
