<?xml version="1.0" encoding="utf-8"?>
<!-- Generator: Adobe Illustrator 18.1.0, SVG Export Plug-In . SVG Version: 6.00 Build 0)  -->
<svg version="1.1" id="Layer_1" xmlns="http://www.w3.org/2000/svg" xmlns:xlink="http://www.w3.org/1999/xlink" x="0px" y="0px"
	 width="24px" height="24px" viewBox="0 0 24 24" enable-background="new 0 0 24 24" xml:space="preserve">
<g>
	<path fill="none" stroke="#000000" stroke-linecap="round" stroke-linejoin="round" stroke-miterlimit="10" d="M21.2793,5.4961
		H2.6907c-1.2282,0-2.2231,0.9953-2.2231,2.2231v7.5306c0,1.2282,0.9949,2.2235,2.2231,2.2235h18.5886
		c1.2278,0,2.2235-0.9953,2.2235-2.2235V7.7192C23.5028,6.4914,22.5071,5.4961,21.2793,5.4961z"/>
	<path fill="none" stroke="#000000" stroke-linecap="round" stroke-linejoin="round" d="M8.0159,13.4963V9.5234h1.8234
		c0,0,1.5611-0.0465,1.5611,1.0267c0,1.112-1.5611,1.1226-1.5611,1.1226l-1.8234,0.0033"/>
	<polyline fill="none" stroke="#000000" stroke-linecap="round" stroke-linejoin="round" points="3.4542,13.4963 3.4542,9.5234 
		6.4577,9.5234 	"/>
	
		<line fill="none" stroke="#000000" stroke-linecap="round" stroke-linejoin="round" x1="3.4542" y1="11.5099" x2="6.0015" y2="11.5099"/>
	<polyline fill="none" stroke="#000000" stroke-linecap="round" stroke-linejoin="round" points="15.9675,9.5234 13.0443,9.5234 
		13.0443,13.4963 15.9675,13.4963 	"/>
	<polyline fill="none" stroke="#000000" stroke-linecap="round" stroke-linejoin="round" points="20.6887,9.5234 17.6853,9.5234 
		17.6853,13.4963 20.6887,13.4963 	"/>
	
		<line fill="none" stroke="#000000" stroke-linecap="round" stroke-linejoin="round" x1="17.6853" y1="11.5099" x2="20.2325" y2="11.5099"/>
	
		<line fill="none" stroke="#000000" stroke-linecap="round" stroke-linejoin="round" x1="13.0443" y1="11.5099" x2="15.5915" y2="11.5099"/>
	
		<line fill="none" stroke="#000000" stroke-linecap="round" stroke-linejoin="round" x1="9.8393" y1="11.6728" x2="11.4349" y2="13.4963"/>
</g>
<rect x="-0.0137" y="0.0031" fill="none" width="24" height="24"/>
<rect x="-0.0137" y="0" fill="none" width="24" height="24"/>
</svg>
