<?xml version="1.0" encoding="utf-8"?>
<!-- Generator: Adobe Illustrator 18.1.0, SVG Export Plug-In . SVG Version: 6.00 Build 0)  -->
<svg version="1.1" id="Layer_1" xmlns="http://www.w3.org/2000/svg" xmlns:xlink="http://www.w3.org/1999/xlink" x="0px" y="0px"
	 width="24px" height="24px" viewBox="0 0 24 24" enable-background="new 0 0 24 24" xml:space="preserve">
<g>
	<polyline fill="none" stroke="#000000" stroke-linecap="round" stroke-linejoin="round" stroke-miterlimit="10" points="
		3.4059,9.4487 2.0015,5.5194 17.8634,0.6301 20.5974,9.4487 	"/>
	<path fill="none" stroke="#000000" stroke-linecap="round" stroke-linejoin="round" d="M23.4757,18.5065h-4.456
		c-1.3652,0-2.4708-1.106-2.4708-2.4705l0,0c0-1.3644,1.1056-2.4704,2.4708-2.4704h4.456V18.5065z"/>
	
		<line fill="none" stroke="#000000" stroke-linecap="round" stroke-linejoin="round" x1="19.3552" y1="16.0358" x2="19.3552" y2="16.0358"/>
	
		<line fill="none" stroke="#000000" stroke-linecap="round" stroke-linejoin="round" x1="21.4544" y1="13.5656" x2="21.4544" y2="9.4487"/>
	<path fill="none" stroke="#000000" stroke-linecap="round" stroke-linejoin="round" d="M0.4271,7.4841v13.4521l0,0
		c0,0.8696,0.7047,1.575,1.5743,1.575h19.453v-4.0047"/>
	
		<line fill="none" stroke="#000000" stroke-linecap="round" stroke-linejoin="round" x1="19.4007" y1="5.5194" x2="21.4544" y2="5.5194"/>
	<path fill="none" stroke="#000000" stroke-linecap="round" stroke-linejoin="round" d="M21.4544,9.4487H2.0015
		c-0.8696,0-1.5743-0.8797-1.5743-1.9647l0,0c0-1.0848,0.7047-1.9647,1.5743-1.9647"/>
</g>
<rect x="-0.0136" y="0.0031" fill="none" width="24" height="24"/>
<rect x="-0.0136" y="0" fill="none" width="24" height="24"/>
</svg>
