<?xml version="1.0" encoding="utf-8"?>
<!-- Generator: Adobe Illustrator 18.1.0, SVG Export Plug-In . SVG Version: 6.00 Build 0)  -->
<svg version="1.1" id="Layer_1" xmlns="http://www.w3.org/2000/svg" xmlns:xlink="http://www.w3.org/1999/xlink" x="0px" y="0px"
	 width="24px" height="24px" viewBox="0 0 24 24" enable-background="new 0 0 24 24" xml:space="preserve">
<g>
	<path fill="none" stroke="#000000" stroke-linecap="round" stroke-linejoin="round" stroke-miterlimit="10" d="M13.5292,4.9402
		c0-0.2783-0.2325-0.4373-0.4162-0.4373H9.9133c-0.1796,0-0.3841,0.153-0.3841,0.4381v14.5619c0,0.0506,1.6045,3.5736,1.6045,3.5736
		c0.1446,0.2906,0.6157,0.3255,0.7795,0.0001c0,0,1.616-3.523,1.616-3.5737V4.9402z"/>
	
		<line fill="none" stroke="#000000" stroke-linecap="round" stroke-linejoin="round" stroke-miterlimit="10" x1="11.5292" y1="6.5819" x2="11.5292" y2="19.5029"/>
	
		<line fill="none" stroke="#000000" stroke-linecap="round" stroke-linejoin="round" stroke-miterlimit="10" x1="9.5292" y1="19.5029" x2="13.5292" y2="19.5029"/>
	
		<line fill="none" stroke="#000000" stroke-linecap="round" stroke-linejoin="round" stroke-miterlimit="10" x1="10.4194" y1="21.5029" x2="12.6328" y2="21.5029"/>
	<path fill="none" stroke="#000000" stroke-linecap="round" stroke-linejoin="round" stroke-miterlimit="10" d="M9.5292,2.5351
		V1.3882c0-0.4569,0.375-0.8853,0.9153-0.8853h2.1364c0.5402,0,0.9483,0.4284,0.9483,0.8853v1.1469"/>
</g>
<rect x="0.0293" y="0.0001" fill="none" width="24" height="24"/>
</svg>
