<?xml version="1.0" encoding="utf-8"?>
<!-- Generator: Adobe Illustrator 18.1.0, SVG Export Plug-In . SVG Version: 6.00 Build 0)  -->
<svg version="1.1" id="Layer_1" xmlns="http://www.w3.org/2000/svg" xmlns:xlink="http://www.w3.org/1999/xlink" x="0px" y="0px"
	 width="24px" height="24px" viewBox="0 0 24 24" enable-background="new 0 0 24 24" xml:space="preserve">
<g>
	<rect x="2.5" y="0.5344" fill="none" stroke="#000000" stroke-linecap="round" stroke-linejoin="round" width="19" height="23"/>
	<rect x="2.5" y="0.5344" fill="none" stroke="#000000" stroke-linecap="round" stroke-linejoin="round" width="19" height="5"/>
	<circle fill="none" stroke="#000000" stroke-linecap="round" stroke-linejoin="round" cx="11.9635" cy="3.0729" r="0.7706"/>
	<path fill="none" stroke="#000000" stroke-linecap="round" stroke-linejoin="round" stroke-miterlimit="10" d="M12.0269,19.6779
		c1.6073,0,3.0463-0.7049,4.0362-1.8175c-1.1501-0.523-2.2611-1.3396-3.5046-2.1666c-1.6449-1.0942-3.8625-0.6605-5.7209,0.0815
		C7.4881,18.0282,9.5629,19.6779,12.0269,19.6779z"/>
	<path fill="none" stroke="#000000" stroke-linecap="round" stroke-linejoin="round" stroke-miterlimit="10" d="M18.8435,13.5115
		c0.048,0.3285,0.0811,0.6616,0.0811,1.0032c0,0.3414-0.0331,0.6742-0.081,1.0025"/>
	<path fill="none" stroke="#000000" stroke-linecap="round" stroke-linejoin="round" stroke-miterlimit="10" d="M18.8435,13.5115
		c-0.4886-3.3433-3.3669-5.9214-6.8436-5.9214c-3.8181,0-6.9244,3.1064-6.9244,6.9247c0,3.8185,3.1064,6.9249,6.9244,6.9249
		c3.477,0,6.3555-2.5786,6.8437-5.9224"/>
	<polyline fill="none" stroke="#000000" stroke-linecap="round" stroke-linejoin="round" stroke-miterlimit="10" points="
		18.8435,13.5115 17.2232,13.5115 17.2232,15.5173 18.8436,15.5173 	"/>
	
		<line fill="none" stroke="#000000" stroke-linecap="round" stroke-linejoin="round" stroke-miterlimit="10" x1="14.9529" y1="3.0738" x2="14.9529" y2="3.0738"/>
</g>
<rect x="0" y="0.0344" fill="none" width="24" height="24"/>
</svg>
