<?xml version="1.0" encoding="utf-8"?>
<!-- Generator: Adobe Illustrator 18.1.0, SVG Export Plug-In . SVG Version: 6.00 Build 0)  -->
<svg version="1.1" id="Layer_1" xmlns="http://www.w3.org/2000/svg" xmlns:xlink="http://www.w3.org/1999/xlink" x="0px" y="0px"
	 width="24px" height="24px" viewBox="0 0 24 24" enable-background="new 0 0 24 24" xml:space="preserve">
<g>
	
		<circle fill="none" stroke="#000000" stroke-linecap="round" stroke-linejoin="round" stroke-miterlimit="10" cx="20.3593" cy="19.0523" r="2.8984"/>
	
		<circle fill="none" stroke="#000000" stroke-linecap="round" stroke-linejoin="round" stroke-miterlimit="10" cx="4.9823" cy="17.7294" r="4.2213"/>
	
		<line fill="none" stroke="#000000" stroke-linecap="round" stroke-linejoin="round" stroke-miterlimit="10" x1="5.5008" y1="11.4856" x2="5.5008" y2="4.4852"/>
	
		<line fill="none" stroke="#000000" stroke-linecap="round" stroke-linejoin="round" stroke-miterlimit="10" x1="4.5166" y1="4.4852" x2="13.5889" y2="4.4852"/>
	
		<line fill="none" stroke="#000000" stroke-linecap="round" stroke-linejoin="round" stroke-miterlimit="10" x1="17.4608" y1="11.4589" x2="17.4608" y2="7.9885"/>
	
		<line fill="none" stroke="#000000" stroke-linecap="round" stroke-linejoin="round" stroke-miterlimit="10" x1="8.5515" y1="11.4856" x2="8.5515" y2="4.4852"/>
	<path fill="none" stroke="#000000" stroke-linecap="round" stroke-linejoin="round" stroke-miterlimit="10" d="M14.4448,11.5124
		v7.0159h-2.9174v-2.577c0-0.3071-0.1033-0.6052-0.2933-0.8465l-2.6826-3.6192H2.5114"/>
	
		<line fill="none" stroke="#000000" stroke-linecap="round" stroke-linejoin="round" stroke-miterlimit="10" x1="11.5563" y1="20.5283" x2="14.4448" y2="20.5283"/>
	
		<line fill="none" stroke="#000000" stroke-linecap="round" stroke-linejoin="round" stroke-miterlimit="10" x1="4.9823" y1="17.7294" x2="4.9823" y2="17.7294"/>
	
		<line fill="none" stroke="#000000" stroke-linecap="round" stroke-linejoin="round" stroke-miterlimit="10" x1="20.3593" y1="19.0523" x2="20.3593" y2="19.0523"/>
	<path fill="none" stroke="#000000" stroke-linecap="round" stroke-linejoin="round" stroke-miterlimit="10" d="M12.9107,4.4852
		l1.5341,7.0272h3.6059c0,0,4.7243,0.4861,4.7243,2.7607v0.749l-0.0006-0.0009c-0.7058-0.4237-1.532-0.6674-2.4151-0.6674
		c-2.3757,0-4.3396,1.8852-4.6545,4.1744l-1.26,0.0001"/>
</g>
<rect x="0.0022" y="-0.0147" fill="none" width="24" height="24"/>
</svg>
