<?xml version="1.0" encoding="utf-8"?>
<!-- Generator: Adobe Illustrator 18.1.0, SVG Export Plug-In . SVG Version: 6.00 Build 0)  -->
<svg version="1.1" id="Layer_1" xmlns="http://www.w3.org/2000/svg" xmlns:xlink="http://www.w3.org/1999/xlink" x="0px" y="0px"
	 width="24px" height="24px" viewBox="0 0 24 24" enable-background="new 0 0 24 24" xml:space="preserve">
<g>
	<path fill="none" stroke="#000000" stroke-linecap="round" stroke-linejoin="round" stroke-miterlimit="10" d="M14.4392,7.5772
		c4.4476,0.3195,7.7482,1.4977,7.7482,2.9022c0,1.6509-4.5552,2.9895-10.1738,2.9895c-5.6196,0-10.1747-1.3386-10.1747-2.9895
		c0-1.0312,1.7794-1.9405,4.4859-2.4774"/>
	<path fill="none" stroke="#000000" stroke-linecap="round" stroke-linejoin="round" stroke-miterlimit="10" d="M2.4003,11.4583
		v9.0295c0,1.698,4.3037,3.0764,9.6133,3.0764c5.3086,0,9.6123-1.3784,9.6123-3.0764v-9.0282"/>
	<polyline fill="none" stroke="#000000" stroke-linecap="round" stroke-linejoin="round" stroke-miterlimit="10" points="
		4.5614,14.7457 12.0136,21.5165 19.4658,14.7385 	"/>
	<polyline fill="none" stroke="#000000" stroke-linecap="round" stroke-linejoin="round" stroke-miterlimit="10" points="
		4.5609,20.3314 12.0136,15.5262 19.4653,20.3314 	"/>
	
		<circle fill="none" stroke="#000000" stroke-linecap="round" stroke-linejoin="round" stroke-miterlimit="10" cx="10.5807" cy="10.0622" r="0.939"/>
	
		<line fill="none" stroke="#000000" stroke-linecap="round" stroke-linejoin="round" stroke-miterlimit="10" x1="2.0306" y1="1.1818" x2="9.9296" y2="9.3854"/>
	
		<circle fill="none" stroke="#000000" stroke-linecap="round" stroke-linejoin="round" stroke-miterlimit="10" cx="11.4053" cy="6.3402" r="0.939"/>
	
		<line fill="none" stroke="#000000" stroke-linecap="round" stroke-linejoin="round" stroke-miterlimit="10" x1="20.8792" y1="0.778" x2="12.2525" y2="5.9419"/>
</g>
<rect x="0.0142" y="0.0354" fill="none" width="24" height="24"/>
</svg>
