<?xml version="1.0" encoding="utf-8"?>
<!-- Generator: Adobe Illustrator 18.1.0, SVG Export Plug-In . SVG Version: 6.00 Build 0)  -->
<svg version="1.1" id="Layer_1" xmlns="http://www.w3.org/2000/svg" xmlns:xlink="http://www.w3.org/1999/xlink" x="0px" y="0px"
	 width="24px" height="24px" viewBox="0 0 24 24" enable-background="new 0 0 24 24" xml:space="preserve">
<g>
	<path fill="none" stroke="#000000" stroke-linecap="round" stroke-linejoin="round" stroke-miterlimit="10" d="M19.6475,0.498
		H4.3356C3.8937,0.498,3.5,0.8702,3.5,1.3125V6.498h1.1916c0.5449,0,0.9864,0.4551,0.9864,0.9996
		c0,0.5453-0.4415,1.0004-0.9864,1.0004H3.5v3h1.1916c0.5449,0,0.9864,0.4542,0.9864,0.9995c0,0.5454-0.4415,1.0005-0.9864,1.0005
		H3.5v3h1.1916c0.5449,0,0.9864,0.4548,0.9864,1.0002c0,0.5454-0.4415,0.9998-0.9864,0.9998H3.5v4.1769
		c0,0.4419,0.3937,0.8231,0.8356,0.8231h15.3118c0.4424,0,0.8526-0.3812,0.8526-0.8231V1.3125
		C20.5,0.8702,20.0898,0.498,19.6475,0.498z M17.2053,15.998c-2.328,1.4646-4.4105,0.5682-5.3848-0.7842l-2.8668-3.6152
		c-0.0045-0.0055-0.0091-0.011-0.0128-0.0165C7.435,9.332,8.2397,7.3154,10.038,6.5441c0.1135-0.0512,0.2466-0.011,0.3143,0.0924
		l1.7371,2.6663c0.065,0.0988,0.0521,0.2297-0.0302,0.3148c-0.8601,0.8825-0.5101,1.4128-0.495,1.4347
		c0.1726,0.2217,1.766,2.3526,2.0258,2.3813c0.3624,0.0416,0.8766-0.377,1.0276-0.5275c0.1043-0.1025,0.2755-0.098,0.3715,0.0165
		l2.2743,2.6993C17.3607,15.7342,17.339,15.9135,17.2053,15.998z"/>
</g>
<rect x="0" y="-0.002" fill="none" width="24" height="24"/>
</svg>
