<?xml version="1.0" encoding="utf-8"?>
<!-- Generator: Adobe Illustrator 18.1.0, SVG Export Plug-In . SVG Version: 6.00 Build 0)  -->
<svg version="1.1" id="Layer_1" xmlns="http://www.w3.org/2000/svg" xmlns:xlink="http://www.w3.org/1999/xlink" x="0px" y="0px"
	 width="24px" height="24px" viewBox="0 0 24 24" enable-background="new 0 0 24 24" xml:space="preserve">
<g>
	<path fill="none" stroke="#000000" stroke-linecap="round" stroke-linejoin="round" stroke-miterlimit="10" d="M16.6612,16.739
		c-0.4465-1.5343-1.8633-2.8038-3.9661-2.5287c-2.7527-2.4495-6.8722-0.7905-7.4713,3.0532c-3.1058,2.0242-1.4783,6.26,1.6357,6.26
		h10.1978c1.8818,0,3.4716-1.5585,3.4716-3.4024C20.5288,18.2094,18.7997,16.5195,16.6612,16.739z"/>
	<path fill="none" stroke="#000000" stroke-linecap="round" stroke-linejoin="round" stroke-miterlimit="10" d="M22.5216,21.4745
		c0.521,0,0.9452-0.4259,0.9452-0.9499V3.5052c0-0.5245-0.4242-0.9507-0.9452-0.9507H6.4375c0,0-0.9169-2.0399-1.4379-2.0399H1.4319
		c-0.5214,0-0.9456,0.4263-0.9456,0.9507v19.0593c0,0.524,0.4242,0.9499,0.9456,0.9499"/>
	
		<line fill="none" stroke="#000000" stroke-linecap="round" stroke-linejoin="round" stroke-miterlimit="10" x1="23.4667" y1="6.5253" x2="0.4863" y2="6.5253"/>
</g>
<rect x="0" y="0.0001" fill="none" width="24" height="24"/>
</svg>
