<?xml version="1.0" encoding="utf-8"?>
<!-- Generator: Adobe Illustrator 18.1.0, SVG Export Plug-In . SVG Version: 6.00 Build 0)  -->
<svg version="1.1" id="Layer_1" xmlns="http://www.w3.org/2000/svg" xmlns:xlink="http://www.w3.org/1999/xlink" x="0px" y="0px"
	 width="24px" height="24px" viewBox="0 0 24 24" enable-background="new 0 0 24 24" xml:space="preserve">
<g>
	<path fill="none" stroke="#000000" stroke-linecap="round" stroke-linejoin="round" stroke-miterlimit="10" d="M10.0005,4.4836
		H3.2034c-0.3979,0-0.7203,0.3225-0.7203,0.7203v11.297"/>
	<path fill="none" stroke="#000000" stroke-linecap="round" stroke-linejoin="round" stroke-miterlimit="10" d="M21.5243,16.5009
		V5.2039c0-0.3979-0.3225-0.7203-0.7199-0.7203h-6.7761"/>
	<path fill="none" stroke="#000000" stroke-linecap="round" stroke-linejoin="round" stroke-miterlimit="10" d="M13.2428,18.5301
		v0.3038c0,0.2398-0.1949,0.4342-0.4347,0.4342h-1.6083c-0.2398,0-0.4347-0.1944-0.4347-0.4342v-0.3038H0.5075v1.2005
		c0,0.4419,0.3582,0.7997,0.7996,0.7997h21.3926c0.4419,0,0.8001-0.3578,0.8001-0.7997v-1.2005H13.2428z"/>
	
		<line fill="none" stroke="#000000" stroke-linecap="round" stroke-linejoin="round" stroke-miterlimit="10" x1="12.0037" y1="13.4358" x2="12.0037" y2="0.8942"/>
	<polyline fill="none" stroke="#000000" stroke-linecap="round" stroke-linejoin="round" stroke-miterlimit="10" points="
		15.0222,10.4173 12.0037,13.4358 8.9852,10.4173 	"/>
</g>
<rect x="0" y="0" fill="none" width="24" height="24"/>
</svg>
