<?xml version="1.0" encoding="utf-8"?>
<!-- Generator: Adobe Illustrator 18.1.0, SVG Export Plug-In . SVG Version: 6.00 Build 0)  -->
<svg version="1.1" id="Layer_1" xmlns="http://www.w3.org/2000/svg" xmlns:xlink="http://www.w3.org/1999/xlink" x="0px" y="0px"
	 width="24px" height="24px" viewBox="0 0 24 24" enable-background="new 0 0 24 24" xml:space="preserve">
<g>
	
		<line fill="none" stroke="#000000" stroke-linecap="round" stroke-linejoin="round" stroke-miterlimit="10" x1="12.4702" y1="14.0021" x2="12.4702" y2="6.2922"/>
	
		<ellipse transform="matrix(0.9577 -0.2876 0.2876 0.9577 -3.6782 3.7987)" fill="none" stroke="#000000" stroke-linecap="round" stroke-linejoin="round" stroke-miterlimit="10" cx="11.0885" cy="14.4171" rx="1.4427" ry="1.058"/>
	<path fill="none" stroke="#000000" stroke-linecap="round" stroke-linejoin="round" stroke-miterlimit="10" d="M12.4702,6.2922
		c0,0,4.272,2.5353,1.5505,4.7362"/>
	<path fill="none" stroke="#000000" stroke-linecap="round" stroke-linejoin="round" d="M16.4449,0.4739h-8.936
		c-1.1176,0-2.0317,0.9146-2.0317,2.0313v18.9727c0,1.1173,0.9141,2.031,2.0317,2.031h8.936c1.1176,0,2.0317-0.9137,2.0317-2.031
		V2.5051C18.4766,1.3885,17.5625,0.4739,16.4449,0.4739z"/>
	<circle fill="none" stroke="#000000" stroke-linecap="round" stroke-linejoin="round" cx="11.9769" cy="21.0299" r="0.8533"/>
	
		<rect x="5.4858" y="3.5001" fill="none" stroke="#000000" stroke-linecap="round" stroke-linejoin="round" width="13" height="15"/>
</g>
<rect x="-0.0137" y="0.0002" fill="none" width="24" height="24"/>
</svg>
