<?xml version="1.0" encoding="utf-8"?>
<!-- Generator: Adobe Illustrator 18.1.0, SVG Export Plug-In . SVG Version: 6.00 Build 0)  -->
<svg version="1.1" id="Layer_1" xmlns="http://www.w3.org/2000/svg" xmlns:xlink="http://www.w3.org/1999/xlink" x="0px" y="0px"
	 width="24px" height="24px" viewBox="0 0 24 24" enable-background="new 0 0 24 24" xml:space="preserve">
<g>
	<path fill="none" stroke="#000000" stroke-linecap="round" stroke-linejoin="round" stroke-miterlimit="10" d="M18.3051,14.1055
		c-1.1284-0.4361-2.3811-0.9775-2.4864-1.315v-0.354c0.2341-0.2395,0.4187-0.5734,0.528-0.9644
		c0.2606-0.183,0.329-0.5628,0.1105-0.8316V9.8482c0-0.818-0.4555-1.3779-1.4968-1.3779c-1.0145,0-1.4974,0.5599-1.4974,1.3779
		v0.7926c-0.2178,0.268-0.1501,0.6478,0.1105,0.8312c0.1093,0.3911,0.294,0.7251,0.5282,0.9646v0.354
		c-0.105,0.337-1.3579,0.8786-2.4863,1.315c-0.0962,0.0373-0.1598,0.1309-0.1598,0.2355v0.8852c0,0.139,0.1112,0.252,0.2483,0.252
		h6.5128c0.1371,0,0.2483-0.113,0.2483-0.252V14.341C18.4649,14.2364,18.4012,14.1426,18.3051,14.1055z"/>
	<polygon fill="none" stroke="#000000" stroke-linecap="round" stroke-linejoin="round" points="7.1714,5.503 7.1711,5.503 
		0.5398,12.024 7.1711,18.5448 7.1714,18.5448 7.1714,18.5448 23.4706,18.5448 23.4706,5.503 7.1714,5.503 	"/>
</g>
<rect fill="none" width="24" height="24"/>
</svg>
