<?xml version="1.0" encoding="utf-8"?>
<!-- Generator: Adobe Illustrator 18.1.0, SVG Export Plug-In . SVG Version: 6.00 Build 0)  -->
<svg version="1.1" id="Layer_1" xmlns="http://www.w3.org/2000/svg" xmlns:xlink="http://www.w3.org/1999/xlink" x="0px" y="0px"
	 width="24px" height="24px" viewBox="0 0 24 24" enable-background="new 0 0 24 24" xml:space="preserve">
<g>
	<path fill="none" stroke="#000000" stroke-linecap="round" stroke-linejoin="round" d="M3.5623,2.5522L5.08,5.1154
		C4.2266,6.0959,3.5005,7.0237,3.5005,7.3657v14.4602c0,0.9393,0.9406,1.6741,1.8797,1.6741h13.4116
		c0.9391,0,1.7086-0.7349,1.7086-1.6741V5.1321c0-0.9393-2.2693-3.6321-3.2084-3.6321h-5.882c-0.363,0-0.9594,0-1.9744,1H6.9361
		L5.8915,0.9673"/>
	<path fill="none" stroke="#000000" stroke-linecap="round" stroke-linejoin="round" d="M15.5005,14.6853
		c0,0.45-0.3648,0.8148-0.8148,0.8148H9.3153c-0.45,0-0.8148-0.3648-0.8148-0.8148v-1.3705c0-0.45,0.3648-0.8148,0.8148-0.8148
		h5.3705c0.45,0,0.8148,0.3648,0.8148,0.8148V14.6853z"/>
	
		<line fill="none" stroke="#000000" stroke-linecap="round" stroke-linejoin="round" x1="16.007" y1="10.9769" x2="17.9251" y2="7.5445"/>
	
		<line fill="none" stroke="#000000" stroke-linecap="round" stroke-linejoin="round" x1="16.007" y1="16.9435" x2="17.9251" y2="20.3758"/>
	
		<line fill="none" stroke="#000000" stroke-linecap="round" stroke-linejoin="round" x1="7.9973" y1="10.9769" x2="6.0793" y2="7.5445"/>
	
		<line fill="none" stroke="#000000" stroke-linecap="round" stroke-linejoin="round" x1="7.9973" y1="16.9435" x2="6.0793" y2="20.3758"/>
	<line fill="none" stroke="#000000" stroke-linecap="round" stroke-linejoin="round" x1="12.0005" y1="4.5" x2="17.0005" y2="4.5"/>
	
		<line fill="none" stroke="#000000" stroke-linecap="round" stroke-linejoin="round" x1="2.9966" y1="2.9372" x2="6.3931" y2="0.626"/>
</g>
<rect x="0.0005" y="0" fill="none" width="24" height="24"/>
</svg>
