<?xml version="1.0" encoding="utf-8"?>
<!-- Generator: Adobe Illustrator 18.1.0, SVG Export Plug-In . SVG Version: 6.00 Build 0)  -->
<svg version="1.1" id="Layer_1" xmlns="http://www.w3.org/2000/svg" xmlns:xlink="http://www.w3.org/1999/xlink" x="0px" y="0px"
	 width="24px" height="24px" viewBox="0 0 24 24" enable-background="new 0 0 24 24" xml:space="preserve">
<g>
	<polygon fill="none" stroke="#000000" stroke-linecap="round" stroke-linejoin="round" points="11.9847,20.8074 6.5203,23.2833 
		6.5203,15.448 11.9847,12.9721 	"/>
	<polygon fill="none" stroke="#000000" stroke-linecap="round" stroke-linejoin="round" points="6.5203,23.2833 0.5035,20.8074 
		0.5035,12.9721 6.5203,15.448 	"/>
	<polygon fill="none" stroke="#000000" stroke-linecap="round" stroke-linejoin="round" points="6.5203,10.5239 0.5035,12.9721 
		6.5203,15.448 11.9847,12.9721 	"/>
	<polygon fill="none" stroke="#000000" stroke-linecap="round" stroke-linejoin="round" points="17.5002,10.5239 11.9847,12.9721 
		11.9847,5.4847 17.5002,3.1187 	"/>
	<polygon fill="none" stroke="#000000" stroke-linecap="round" stroke-linejoin="round" points="11.9847,12.9721 6.5203,10.5239 
		6.5203,3.1187 11.9847,5.4847 	"/>
	<polygon fill="none" stroke="#000000" stroke-linecap="round" stroke-linejoin="round" points="11.9847,0.7793 6.5203,3.1187 
		11.9847,5.4847 17.5002,3.1187 	"/>
	<polygon fill="none" stroke="#000000" stroke-linecap="round" stroke-linejoin="round" points="23.466,20.8074 17.5002,23.2833 
		17.5002,15.448 23.466,12.9721 	"/>
	<polygon fill="none" stroke="#000000" stroke-linecap="round" stroke-linejoin="round" points="17.5002,23.2833 11.9847,20.8074 
		11.9847,12.9721 17.5002,15.448 	"/>
	<polygon fill="none" stroke="#000000" stroke-linecap="round" stroke-linejoin="round" points="17.5002,10.5239 11.9847,12.9721 
		17.5002,15.448 23.466,12.9721 	"/>
</g>
<rect x="-0.0136" y="0.0002" fill="none" width="24" height="24"/>
</svg>
