<?xml version="1.0" encoding="utf-8"?>
<!-- Generator: Adobe Illustrator 18.1.0, SVG Export Plug-In . SVG Version: 6.00 Build 0)  -->
<svg version="1.1" id="Layer_1" xmlns="http://www.w3.org/2000/svg" xmlns:xlink="http://www.w3.org/1999/xlink" x="0px" y="0px"
	 width="24px" height="24px" viewBox="0 0 24 24" enable-background="new 0 0 24 24" xml:space="preserve">
<g>
	<path fill="none" stroke="#000000" stroke-linecap="round" stroke-linejoin="round" stroke-miterlimit="10" d="M22.386,6.6653
		l-5.4159,2.673c-0.2766,0.1158-0.4788,0.3752-0.4788,0.6608v2.9758c0,0.2856,0.1977,0.5446,0.4743,0.6608l5.4021,2.6729
		c0.5371,0.2246,1.1235-0.1687,1.1235-0.6612V7.3265C23.4911,6.8314,22.9147,6.4448,22.386,6.6653z"/>
	<path fill="none" stroke="#000000" stroke-linecap="round" stroke-linejoin="round" stroke-miterlimit="10" d="M15.5762,5.5002
		H1.3716c-0.5267,0-0.8805,0.4138-0.8805,0.9326v10.1074c0,0.5188,0.3538,0.96,0.8805,0.96h14.2046
		c0.5252,0,0.9151-0.4412,0.9151-0.96V6.4328C16.4912,5.9139,16.1013,5.5002,15.5762,5.5002z"/>
	<circle fill="none" stroke="#000000" stroke-linecap="round" stroke-linejoin="round" cx="5.3425" cy="11.4835" r="1.9823"/>
	<circle fill="none" stroke="#000000" stroke-linecap="round" stroke-linejoin="round" cx="11.6399" cy="11.4835" r="1.9823"/>
	
		<line fill="none" stroke="#000000" stroke-linecap="round" stroke-linejoin="round" x1="5.3425" y1="9.5011" x2="11.6398" y2="9.5011"/>
</g>
<rect x="-0.0137" y="0.0002" fill="none" width="24" height="24"/>
</svg>
