<?xml version="1.0" encoding="utf-8"?>
<!-- Generator: Adobe Illustrator 18.1.0, SVG Export Plug-In . SVG Version: 6.00 Build 0)  -->
<svg version="1.1" id="Layer_1" xmlns="http://www.w3.org/2000/svg" xmlns:xlink="http://www.w3.org/1999/xlink" x="0px" y="0px"
	 width="24px" height="24px" viewBox="0 0 24 24" enable-background="new 0 0 24 24" xml:space="preserve">
<g>
	<path fill="none" stroke="#000000" stroke-linecap="round" stroke-linejoin="round" stroke-miterlimit="10" d="M11.4588,5.498
		H7.6846c-0.0805,0-0.1458,0.07-0.1458,0.1566v3.6831c0,0.0866,0.0654,0.1571,0.1458,0.1571H9.55c0,1,0.0418,2.3205-1.1712,2.3205
		c-0.0808,0-0.1454,0.0704-0.1454,0.1568v1.324c0,0.0864,0.0646,0.1564,0.1454,0.1564c2.4954,0,3.2258-1.8994,3.2258-4.449V5.6546
		C11.6047,5.568,11.5397,5.498,11.4588,5.498z"/>
	<path fill="none" stroke="#000000" stroke-linecap="round" stroke-linejoin="round" stroke-miterlimit="10" d="M17.3394,5.498
		h-3.7742c-0.0805,0-0.1458,0.07-0.1458,0.1566v3.6831c0,0.0866,0.0654,0.1571,0.1458,0.1571h1.8655
		c0,1,0.0418,2.3205-1.1712,2.3205c-0.0808,0-0.1454,0.0704-0.1454,0.1568v1.324c0,0.0864,0.0646,0.1564,0.1454,0.1564
		c2.4954,0,3.2258-1.8994,3.2258-4.449V5.6546C17.4853,5.568,17.4203,5.498,17.3394,5.498z"/>
	<path fill="none" stroke="#000000" stroke-linecap="round" stroke-linejoin="round" stroke-miterlimit="10" d="M6.6383,17.5146
		c-2.94-0.6889-5.926-4.1063-5.926-8.491c0-4.5789,3.5251-8.5255,7.629-8.5255h7.5208c4.1039,0,7.431,3.9212,7.431,8.5001
		c0,4.5313-3.3271,8.4999-7.431,8.4999h-2.369l-6.8548,5.78V17.5146z"/>
</g>
<rect x="0" y="-0.002" fill="none" width="24" height="24"/>
</svg>
