<?xml version="1.0" encoding="utf-8"?>
<!-- Generator: Adobe Illustrator 18.1.0, SVG Export Plug-In . SVG Version: 6.00 Build 0)  -->
<svg version="1.1" id="Layer_1" xmlns="http://www.w3.org/2000/svg" xmlns:xlink="http://www.w3.org/1999/xlink" x="0px" y="0px"
	 width="24px" height="24px" viewBox="0 0 24 24" enable-background="new 0 0 24 24" xml:space="preserve">
<g>
	
		<line fill="none" stroke="#000000" stroke-linecap="round" stroke-linejoin="round" stroke-miterlimit="10" x1="16.3606" y1="7.544" x2="12.8006" y2="3.4903"/>
	
		<line fill="none" stroke="#000000" stroke-linecap="round" stroke-linejoin="round" stroke-miterlimit="10" x1="11.0337" y1="3.4903" x2="7.4744" y2="7.544"/>
	
		<ellipse fill="none" stroke="#000000" stroke-linecap="round" stroke-linejoin="round" stroke-miterlimit="10" cx="11.9173" cy="2.6879" rx="1.197" ry="1.1898"/>
	
		<line fill="none" stroke="#000000" stroke-linecap="round" stroke-linejoin="round" stroke-miterlimit="10" x1="6.366" y1="16.4804" x2="17.9405" y2="16.4804"/>
	
		<line fill="none" stroke="#000000" stroke-linecap="round" stroke-linejoin="round" stroke-miterlimit="10" x1="18.6623" y1="13.4981" x2="5.6442" y2="13.4981"/>
	
		<line fill="none" stroke="#000000" stroke-linecap="round" stroke-linejoin="round" stroke-miterlimit="10" x1="7.0879" y1="19.4626" x2="17.2186" y2="19.4626"/>
	<path fill="none" stroke="#000000" stroke-linecap="round" stroke-linejoin="round" stroke-miterlimit="10" d="M21.5375,9.8366
		H2.4363c-1.0497,0-1.9037,0.8484-1.9037,1.8918v0.6329c0,0.8324,0.5356,1.5339,1.3027,1.7815
		C3.7814,20.8871,3.7409,22.48,6.255,22.48h11.4612c2.5517,0,2.5069-1.7022,4.4214-8.3372
		c0.7671-0.2475,1.3027-0.9491,1.3027-1.7815v-0.6329C23.4403,10.685,22.5868,9.8366,21.5375,9.8366z"/>
</g>
<rect x="-0.0136" y="0.0001" fill="none" width="24" height="24"/>
</svg>
