<?xml version="1.0" encoding="utf-8"?>
<!-- Generator: Adobe Illustrator 18.1.0, SVG Export Plug-In . SVG Version: 6.00 Build 0)  -->
<svg version="1.1" id="Layer_1" xmlns="http://www.w3.org/2000/svg" xmlns:xlink="http://www.w3.org/1999/xlink" x="0px" y="0px"
	 width="24px" height="24px" viewBox="0 0 24 24" enable-background="new 0 0 24 24" xml:space="preserve">
<g>
	<polyline fill="none" stroke="#000000" stroke-linecap="round" stroke-linejoin="round" stroke-miterlimit="10" points="
		16.4999,0.5049 16.4999,4.5049 20.4999,4.5049 	"/>
	<path fill="none" stroke="#000000" stroke-linecap="round" stroke-linejoin="round" stroke-miterlimit="10" d="M20.4999,22.705
		c0,0.4366-0.354,0.7999-0.7915,0.7999H4.2872c-0.4366,0-0.7872-0.3633-0.7872-0.7999V1.3105c0-0.4364,0.3506-0.8056,0.7872-0.8056
		h12.2127c0.2076,0,0.3041,0.0894,0.4517,0.2349l3.3124,3.2687c0.1503,0.1483,0.2359,0.285,0.2359,0.4964V22.705z"/>
	<path fill="none" stroke="#000000" stroke-linecap="round" stroke-linejoin="round" stroke-miterlimit="10" d="M16.8368,9.7559
		l-3.32,1.7527v-1.4851c0-0.3054-0.2233-0.5526-0.4978-0.5526H7.0365c-0.2754,0-0.4983,0.2472-0.4983,0.5526v5.9492
		c0,0.3054,0.223,0.5529,0.4983,0.5529h5.9825c0.2746,0,0.4978-0.2475,0.4978-0.5529v-1.4845l3.32,1.7526
		c0.2878,0.1418,0.6158-0.0919,0.6158-0.4447v-5.5955C17.4526,9.848,17.1261,9.6138,16.8368,9.7559z"/>
</g>
<rect x="0" y="0.0001" fill="none" width="24" height="24"/>
</svg>
