<?xml version="1.0" encoding="utf-8"?>
<!-- Generator: Adobe Illustrator 18.1.0, SVG Export Plug-In . SVG Version: 6.00 Build 0)  -->
<svg version="1.1" id="Layer_1" xmlns="http://www.w3.org/2000/svg" xmlns:xlink="http://www.w3.org/1999/xlink" x="0px" y="0px"
	 width="24px" height="24px" viewBox="0 0 24 24" enable-background="new 0 0 24 24" xml:space="preserve">
<g>
	<path fill="none" stroke="#000000" stroke-linecap="round" stroke-linejoin="round" stroke-miterlimit="10" d="M22.4198,15.3148
		l-4.7269-4.6816c-0.065-0.0643-0.1525-0.1004-0.2442-0.0998l-0.251,0.0009l-3.5769,0.017
		c-0.1968,0.0029-0.3446,0.1611-0.3437,0.3474c0.0011,0.2352-0.0453,3.9047,0.1207,4.0714
		c0.0755,0.0748,4.7319,4.7053,4.8292,4.7482c0.0714,0.0328,0.1555,0.0422,0.2342,0.0202c0.0382-0.0107,0.1102-0.0477,0.1517-0.0896
		l3.8089-3.8455C22.5566,15.6677,22.5554,15.4487,22.4198,15.3148z"/>
	
		<circle fill="none" stroke="#000000" stroke-linecap="round" stroke-linejoin="round" stroke-miterlimit="10" cx="15.3516" cy="12.6778" r="0.7835"/>
	<polyline fill="none" stroke="#000000" stroke-linecap="round" stroke-linejoin="round" stroke-miterlimit="10" points="
		18.5135,21.5732 18.5135,23.5418 3.5265,23.5418 3.5265,5.5544 18.5135,5.5544 18.5135,8.3617 	"/>
	<path fill="none" stroke="#000000" stroke-linecap="round" stroke-linejoin="round" stroke-miterlimit="10" d="M14.4864,7.5231
		V4.1891c0-1.9364-1.4745-3.6891-3.411-3.6891h-0.0612c-1.9364,0-3.5279,1.7527-3.5279,3.6891v3.3339"/>
</g>
<rect x="-0.0136" y="0" fill="none" width="24" height="24"/>
</svg>
