<?xml version="1.0" encoding="utf-8"?>
<!-- Generator: Adobe Illustrator 18.1.0, SVG Export Plug-In . SVG Version: 6.00 Build 0)  -->
<svg version="1.1" id="Layer_1" xmlns="http://www.w3.org/2000/svg" xmlns:xlink="http://www.w3.org/1999/xlink" x="0px" y="0px"
	 width="24px" height="24px" viewBox="0 0 24 24" enable-background="new 0 0 24 24" xml:space="preserve">
<rect x="-0.0008" y="-0.0146" fill="none" width="24" height="24"/>
<g>
	<path fill="none" stroke="#000000" stroke-linecap="round" stroke-linejoin="round" stroke-miterlimit="10" d="M18.0905,5.1999
		c-0.5981-1.9074-2.4858-3.4248-5.2256-3.0921c-3.6351-3.0021-9.0562-0.9571-9.844,3.7336
		c-4.0829,2.4697-1.9584,7.6295,2.1551,7.6295h13.4363c2.4794,0,4.574-1.8931,4.574-4.1478
		C23.1863,7.0183,20.942,4.9282,18.0905,5.1999z"/>
	<g>
		<g>
			
				<line fill="none" stroke="#000000" stroke-linecap="round" stroke-linejoin="round" x1="7.7209" y1="13.51" x2="7.2486" y2="14.3914"/>
			
				<line fill="none" stroke="#000000" stroke-linecap="round" stroke-linejoin="round" stroke-dasharray="1.6951,2.5427" x1="6.0477" y1="16.6326" x2="4.6467" y2="19.2473"/>
			
				<line fill="none" stroke="#000000" stroke-linecap="round" stroke-linejoin="round" x1="4.0463" y1="20.3679" x2="3.574" y2="21.2494"/>
		</g>
	</g>
	<g>
		<g>
			
				<line fill="none" stroke="#000000" stroke-linecap="round" stroke-linejoin="round" x1="12.1777" y1="13.5187" x2="11.6996" y2="14.397"/>
			
				<line fill="none" stroke="#000000" stroke-linecap="round" stroke-linejoin="round" stroke-dasharray="2.3324,3.4986" x1="10.0266" y1="17.4697" x2="8.0748" y2="21.0546"/>
			
				<line fill="none" stroke="#000000" stroke-linecap="round" stroke-linejoin="round" x1="7.2384" y1="22.5909" x2="6.7602" y2="23.4692"/>
		</g>
	</g>
	<g>
		<g>
			
				<line fill="none" stroke="#000000" stroke-linecap="round" stroke-linejoin="round" x1="16.6003" y1="13.5187" x2="16.1219" y2="14.3968"/>
			
				<line fill="none" stroke="#000000" stroke-linecap="round" stroke-linejoin="round" stroke-dasharray="1.7009,2.5513" x1="14.9014" y1="16.6372" x2="13.4773" y2="19.251"/>
			
				<line fill="none" stroke="#000000" stroke-linecap="round" stroke-linejoin="round" x1="12.8669" y1="20.3713" x2="12.3885" y2="21.2494"/>
		</g>
	</g>
</g>
</svg>
