<?xml version="1.0" encoding="utf-8"?>
<!-- Generator: Adobe Illustrator 18.1.0, SVG Export Plug-In . SVG Version: 6.00 Build 0)  -->
<svg version="1.1" id="Layer_1" xmlns="http://www.w3.org/2000/svg" xmlns:xlink="http://www.w3.org/1999/xlink" x="0px" y="0px"
	 width="24px" height="24px" viewBox="0 0 24 24" enable-background="new 0 0 24 24" xml:space="preserve">
<g>
	<path fill="none" stroke="#000000" stroke-linecap="round" stroke-linejoin="round" stroke-miterlimit="10" d="M8.3154,20.1726
		l-0.4802,2.9637c0,0.2166,0.2151,0.3919,0.4802,0.3919h7.3767c0.2651,0,0.4802-0.1752,0.4802-0.3919l-0.4811-2.9637"/>
	<path fill="none" stroke="#000000" stroke-linecap="round" stroke-linejoin="round" stroke-miterlimit="10" d="M21.8786,0.5H2.1279
		c-0.9087,0-1.6231,0.7228-1.6231,1.6311v13.731c0,0.9087,0.7144,1.6379,1.6231,1.6379h19.7507
		c0.9097,0,1.6262-0.7292,1.6262-1.6379V2.131C23.5048,1.2228,22.7883,0.5,21.8786,0.5z"/>
	
		<line fill="none" stroke="#000000" stroke-linecap="round" stroke-linejoin="round" stroke-miterlimit="10" x1="0.5059" y1="14.5" x2="23.5048" y2="14.5"/>
	<path fill="none" stroke="#000000" stroke-linecap="round" stroke-linejoin="round" stroke-miterlimit="10" d="M15.7609,6.9754
		c-0.323-1.0415-1.3419-1.8611-2.8092-1.6809c-1.9567-1.634-4.8689-0.5172-5.2919,2.0296C5.461,8.669,6.6109,11.4853,8.8183,11.4853
		h7.2231c1.3329,0,2.4589-1.036,2.4589-2.2617C18.5003,7.9623,17.2853,6.8285,15.7609,6.9754z"/>
</g>
<rect x="0" y="0" fill="none" width="24" height="24"/>
</svg>
