<?xml version="1.0" encoding="utf-8"?>
<!-- Generator: Adobe Illustrator 18.1.0, SVG Export Plug-In . SVG Version: 6.00 Build 0)  -->
<svg version="1.1" id="Layer_1" xmlns="http://www.w3.org/2000/svg" xmlns:xlink="http://www.w3.org/1999/xlink" x="0px" y="0px"
	 width="24px" height="24px" viewBox="0 0 24 24" enable-background="new 0 0 24 24" xml:space="preserve">
<g>
	<path fill="none" stroke="#000000" stroke-linecap="round" stroke-linejoin="round" stroke-miterlimit="10" d="M10.8528,0.7258
		c0,0,1.3426,0.3866-0.3778,2.9391c-1.7202,2.5522,0,2.7069,0,2.7069"/>
	<path fill="none" stroke="#000000" stroke-linecap="round" stroke-linejoin="round" stroke-miterlimit="10" d="M13.0725,3.1546
		c0,0,0.7649,0.2205-0.215,1.6748c-0.9804,1.4543,0,1.5425,0,1.5425"/>
	<path fill="none" stroke="#000000" stroke-linecap="round" stroke-linejoin="round" stroke-miterlimit="10" d="M7.7258,12.4064
		c-1.4555-0.4519-3.0093-1.1821-4.6283-2.2956c-1.0038-0.6904-1.258-2.0639-0.5675-3.0676c0.6903-1.0041,2.0637-1.258,3.0678-0.5675
		c2.8759,1.9779,5.7202,2.594,8.4533,1.8315c1.9472-0.5431,3.1481-1.6121,3.1595-1.6226c0.8884-0.834,2.2846-0.7897,3.1181,0.0993
		c0.8338,0.8884,0.7893,2.2845-0.0993,3.1181c-0.196,0.1839-2.0011,1.8208-4.9929,2.6552"/>
	<polyline fill="none" stroke="#000000" stroke-linecap="round" stroke-linejoin="round" stroke-miterlimit="10" points="
		1.661,6.0869 2.5299,7.0432 1.3312,7.0432 	"/>
	<polyline fill="none" stroke="#000000" stroke-linecap="round" stroke-linejoin="round" stroke-miterlimit="10" points="
		21.2272,5.6525 20.3285,6.7838 21.9052,6.7898 	"/>
	
		<line fill="none" stroke="#000000" stroke-linecap="round" stroke-linejoin="round" stroke-miterlimit="10" x1="11.5" y1="17.5346" x2="11.5" y2="23.454"/>
	
		<line fill="none" stroke="#000000" stroke-linecap="round" stroke-linejoin="round" stroke-miterlimit="10" x1="11.5" y1="11.4948" x2="11.5" y2="14.5346"/>
	
		<line fill="none" stroke="#000000" stroke-linecap="round" stroke-linejoin="round" stroke-miterlimit="10" x1="13.5" y1="11.4948" x2="13.5" y2="14.5346"/>
	
		<line fill="none" stroke="#000000" stroke-linecap="round" stroke-linejoin="round" stroke-miterlimit="10" x1="9.5" y1="11.4948" x2="9.5" y2="14.5346"/>
	<path fill="none" stroke="#000000" stroke-linecap="round" stroke-linejoin="round" stroke-miterlimit="10" d="M11.7188,17.5346
		h-0.4207c-0.9818,0-1.7981-0.9106-1.7981-1.8924v-1.1076h4v1.1076C13.5,16.624,12.7007,17.5346,11.7188,17.5346z"/>
</g>
<rect x="0" y="0.0346" fill="none" width="24" height="24"/>
</svg>
