<?xml version="1.0" encoding="utf-8"?>
<!-- Generator: Adobe Illustrator 18.1.0, SVG Export Plug-In . SVG Version: 6.00 Build 0)  -->
<svg version="1.1" id="Layer_1" xmlns="http://www.w3.org/2000/svg" xmlns:xlink="http://www.w3.org/1999/xlink" x="0px" y="0px"
	 width="24px" height="24px" viewBox="0 0 24 24" enable-background="new 0 0 24 24" xml:space="preserve">
<g>
	
		<circle fill="none" stroke="#000000" stroke-linecap="round" stroke-linejoin="round" stroke-miterlimit="10" cx="11.9769" cy="11.9518" r="11.3324"/>
	
		<line fill="none" stroke="#000000" stroke-linecap="round" stroke-linejoin="round" stroke-miterlimit="10" x1="4.8089" y1="13.7045" x2="4.8089" y2="10.2608"/>
	<path fill="none" stroke="#000000" stroke-linecap="round" stroke-linejoin="round" stroke-miterlimit="10" d="M7.6702,13.7045
		v-2.0763c0,0,0.0506-1.3673-1.2914-1.3673s-1.5699,1.342-1.5699,1.342"/>
	<path fill="none" stroke="#000000" stroke-linecap="round" stroke-linejoin="round" stroke-miterlimit="10" d="M12.643,13.1486
		c-0.2967,0.3706-0.7538,0.604-1.3941,0.604c-0.873,0-1.5807-0.8062-1.5807-1.8008s0.7077-1.8008,1.5807-1.8008
		c0.873,0,1.5807,0.8062,1.5807,1.8008H9.6681"/>
	<polyline fill="none" stroke="#000000" stroke-linecap="round" stroke-linejoin="round" stroke-miterlimit="10" points="
		14.3436,10.2608 15.6306,13.7045 16.8977,10.2608 18.1846,13.7045 19.4517,10.2608 	"/>
</g>
<rect x="-0.0137" y="0" fill="none" width="24" height="24"/>
</svg>
