<?xml version="1.0" encoding="utf-8"?>
<!-- Generator: Adobe Illustrator 18.1.0, SVG Export Plug-In . SVG Version: 6.00 Build 0)  -->
<svg version="1.1" id="Layer_1" xmlns="http://www.w3.org/2000/svg" xmlns:xlink="http://www.w3.org/1999/xlink" x="0px" y="0px"
	 width="24px" height="24px" viewBox="0 0 24 24" enable-background="new 0 0 24 24" xml:space="preserve">
<g>
	<path fill="none" stroke="#000000" stroke-linecap="round" stroke-linejoin="round" d="M15.3787,15.6558l0.9895,7.1391
		c0.051,0.3677-0.2346,0.7051-0.6057,0.7051H8.2102c-0.3712,0-0.6568-0.3375-0.6057-0.7051l0.9927-7.1569"/>
	<path fill="none" stroke="#000000" stroke-linecap="round" stroke-linejoin="round" d="M9.1893,11.2099l0.1571-0.9753
		c0.1829-1.3178,1.3095-2.2988,2.6399-2.2988h0c1.3304,0,2.457,0.9811,2.6399,2.2988l0.1527,0.9753"/>
	<path fill="none" stroke="#000000" stroke-linecap="round" stroke-linejoin="round" d="M11.9864,18.9458
		c-0.8349,0-1.5,0.6768-1.5,1.5117v3.0425h3v-3.0425C13.4864,19.6226,12.8213,18.9458,11.9864,18.9458z"/>
	<polygon fill="none" stroke="#000000" stroke-linecap="round" stroke-linejoin="round" points="5.1439,19.5686 2.5877,17.0124 
		9.4186,11.0281 11.1282,12.7377 	"/>
	<polygon fill="none" stroke="#000000" stroke-linecap="round" stroke-linejoin="round" points="18.8288,0.7713 21.385,3.3275 
		14.5541,9.3118 12.8445,7.6022 	"/>
	<polygon fill="none" stroke="#000000" stroke-linecap="round" stroke-linejoin="round" points="21.385,17.0124 18.8288,19.5686 
		12.8445,12.7377 14.5541,11.0281 	"/>
	<polygon fill="none" stroke="#000000" stroke-linecap="round" stroke-linejoin="round" points="2.5877,3.3275 5.1439,0.7713 
		11.1282,7.6022 9.4186,9.3118 	"/>
	
		<line fill="none" stroke="#000000" stroke-linecap="round" stroke-linejoin="round" x1="10.2734" y1="8.457" x2="13.6993" y2="11.8829"/>
	
		<line fill="none" stroke="#000000" stroke-linecap="round" stroke-linejoin="round" x1="10.2734" y1="11.8829" x2="13.6993" y2="8.457"/>
</g>
<rect x="-0.0136" y="0.0001" fill="none" width="24" height="24"/>
</svg>
