<?xml version="1.0" encoding="utf-8"?>
<!-- Generator: Adobe Illustrator 18.1.0, SVG Export Plug-In . SVG Version: 6.00 Build 0)  -->
<svg version="1.1" id="Layer_1" xmlns="http://www.w3.org/2000/svg" xmlns:xlink="http://www.w3.org/1999/xlink" x="0px" y="0px"
	 width="24px" height="24px" viewBox="0 0 24 24" enable-background="new 0 0 24 24" xml:space="preserve">
<g>
	<path fill="none" stroke="#000000" stroke-linecap="round" stroke-linejoin="round" d="M3.1198,0.6321
		c0,0,1.265,0.3762-0.3559,2.8605c-1.6209,2.484,0,2.6346,0,2.6346"/>
	<path fill="none" stroke="#000000" stroke-linecap="round" stroke-linejoin="round" d="M5.4998,1.254
		c0,0,0.7208,0.2145-0.2025,1.63c-0.9237,1.4155,0,1.5015,0,1.5015"/>
	<path fill="none" stroke="#000000" stroke-linecap="round" stroke-linejoin="round" d="M4.5203,20.2791
		c0,1.7983,1.4577,3.2556,3.2554,3.2556h8.4746c1.7978,0,3.2556-1.4573,3.2556-3.2556v-9.7376H4.5203V20.2791z"/>
	<path fill="none" stroke="#000000" stroke-linecap="round" stroke-linejoin="round" d="M4.5203,20.2791
		c0,1.7983,1.4577,3.2556,3.2554,3.2556h8.4746c1.7978,0,3.2556-1.4573,3.2556-3.2556v-9.7376H4.5203V20.2791z"/>
	<path fill="none" stroke="#000000" stroke-linecap="round" stroke-linejoin="round" d="M4.5203,12.6653
		c0,0-1.0567-1.1581-3.4081-1.2265"/>
	<path fill="none" stroke="#000000" stroke-linecap="round" stroke-linejoin="round" d="M4.5203,12.6653
		c0,0-1.0567-1.1581-3.4081-1.2265"/>
	<path fill="none" stroke="#000000" stroke-linecap="round" stroke-linejoin="round" d="M19.5059,12.6653
		c0,0,1.0567-1.1581,3.4081-1.2265"/>
	<path fill="none" stroke="#000000" stroke-linecap="round" stroke-linejoin="round" d="M19.5059,12.6653
		c0,0,1.0567-1.1581,3.4081-1.2265"/>
	
		<line fill="none" stroke="#000000" stroke-linecap="round" stroke-linejoin="round" x1="4.811" y1="6.4171" x2="19.5016" y2="8.5899"/>
	<path fill="none" stroke="#000000" stroke-linecap="round" stroke-linejoin="round" d="M10.3841,7.2414l4.0664,0.6014
		C14.6418,5.2797,10.9377,4.7808,10.3841,7.2414z"/>
</g>
<rect x="0.0142" y="0.0346" fill="none" width="24" height="24"/>
</svg>
