<?xml version="1.0" encoding="utf-8"?>
<!-- Generator: Adobe Illustrator 18.1.0, SVG Export Plug-In . SVG Version: 6.00 Build 0)  -->
<svg version="1.1" id="Layer_1" xmlns="http://www.w3.org/2000/svg" xmlns:xlink="http://www.w3.org/1999/xlink" x="0px" y="0px"
	 width="24px" height="24px" viewBox="0 0 24 24" enable-background="new 0 0 24 24" xml:space="preserve">
<g>
	<path fill="none" stroke="#000000" stroke-linecap="round" stroke-linejoin="round" stroke-miterlimit="10" d="M15.2821,12.3356
		c-0.5356-1.8307-0.9107-4.5002,0.4264-6.0605c0.125-0.1446-0.0053-0.3648-0.187-0.331c-2.5298,0.4216-3.8339,3.8423-4.1867,5.1589
		c-1.1622-2.2129-1.3575-6.337-1.3575-9.6812c0-0.1571-0.1726-0.2536-0.3064-0.1737C5.252,3.9015,6.5843,11.6154,5.0871,13.8837
		c-0.0113,0.0042-0.0221,0.0092-0.033,0.0134c-0.45-1.6035-3.507-5.768-3.8097-5.9955C1.0819,7.783,0.8637,7.945,0.9326,8.1333
		c1.5092,4.1472-2.3489,10.0092,2.7882,13.1682c1.2941,0.652,2.762,1.4459,5.8028,1.2348"/>
	<polyline fill="none" stroke="#000000" stroke-linecap="round" stroke-linejoin="round" stroke-miterlimit="10" points="
		11.9864,17.5 17.4864,17.5 17.4864,14.5 11.4864,14.5 11.4864,23.5 17.4864,23.5 17.4864,20.5 11.9864,20.5 	"/>
	<polyline fill="none" stroke="#000000" stroke-linecap="round" stroke-linejoin="round" stroke-miterlimit="10" points="
		23.3803,17.5 17.4864,17.5 17.4864,14.5 23.3803,14.5 	"/>
	<polyline fill="none" stroke="#000000" stroke-linecap="round" stroke-linejoin="round" stroke-miterlimit="10" points="
		23.3803,23.5 17.4864,23.5 17.4864,20.5 23.3803,20.5 	"/>
	
		<rect x="14.4864" y="17.5" fill="none" stroke="#000000" stroke-linecap="round" stroke-linejoin="round" stroke-miterlimit="10" width="6" height="3"/>
	<polyline fill="none" stroke="#000000" stroke-linecap="round" stroke-linejoin="round" stroke-miterlimit="10" points="
		23.3803,20.5 20.4864,20.5 20.4864,17.5 23.3803,17.5 	"/>
	<polyline fill="none" stroke="#000000" stroke-linecap="round" stroke-linejoin="round" stroke-miterlimit="10" points="
		11.4864,17.5 14.4864,17.5 14.4864,20.5 11.4864,20.5 	"/>
</g>
<rect x="-0.0136" fill="none" width="24" height="24"/>
</svg>
