<?xml version="1.0" encoding="utf-8"?>
<!-- Generator: Adobe Illustrator 18.1.0, SVG Export Plug-In . SVG Version: 6.00 Build 0)  -->
<svg version="1.1" id="Layer_1" xmlns="http://www.w3.org/2000/svg" xmlns:xlink="http://www.w3.org/1999/xlink" x="0px" y="0px"
	 width="24px" height="24px" viewBox="0 0 24 24" enable-background="new 0 0 24 24" xml:space="preserve">
<g>
	<path fill="none" stroke="#000000" stroke-linecap="round" stroke-linejoin="round" d="M22.9372,13.5197H1.0628
		c0.3448,4,3.4372,7.3712,7.4372,8.942v1.058h7v-1.058C19.5,20.8909,22.5925,17.5197,22.9372,13.5197z"/>
	<path fill="none" stroke="#000000" stroke-linecap="round" stroke-linejoin="round" d="M2.4792,11.8034
		c0,0-0.5254-0.2252,0.1504-1.2229c0,0-1.9632-2.2529,0.4828-2.8322c0,0-0.2897-5.2781,3.3471-3.0896
		c0,0,2.8322-1.3195,2.8644,1.931c0,0,2.7678,0.3218,1.223,2.2207c-1.0756,1.3221-0.2009,1.8329,0.4297,2.0212
		c0.6241,0.1864,0.9986,0.3429,1.1681,0.9718"/>
	<path fill="none" stroke="#000000" stroke-linecap="round" stroke-linejoin="round" d="M6.8502,11.74
		C5.7947,10.6527,4.94,9.1224,5.2044,7.1046"/>
	<path fill="none" stroke="#000000" stroke-linecap="round" stroke-linejoin="round" d="M6.8502,11.74
		c0,0,0.8708-1.9963,1.1573-3.5733"/>
	
		<line fill="none" stroke="#000000" stroke-linecap="round" stroke-linejoin="round" x1="5.6797" y1="10.1012" x2="3.4986" y2="9.5184"/>
	<path fill="none" stroke="#000000" stroke-linecap="round" stroke-linejoin="round" d="M11.638,11.0931
		c0,0-0.2221-4.3103,3.9939-0.6252c0,0,1.7379-5.423,4.7954-1.1103c0,0,1.2552-0.962,1.3195,0.4523S20.9739,11.74,20.9739,11.74"/>
	<path fill="none" stroke="#000000" stroke-linecap="round" stroke-linejoin="round" d="M17.9014,11.8034
		c0.5707-0.398,1.4882-1.0662,1.6891-1.3356"/>
	<path fill="none" stroke="#000000" stroke-linecap="round" stroke-linejoin="round" d="M17.9014,11.8034
		c0,0-0.5959-1.8666,0.3696-2.285"/>
	<path fill="none" stroke="#000000" stroke-linecap="round" stroke-linejoin="round" d="M18.6384,7.7747
		c0,0,2.0785-0.7344,0.8233-1.5068S16.9961,5.238,16.7324,5.592c0,0,2.7937-3.7655,1.0236-4.6345
		c-1.7701-0.869-5.8896,2.4781-5.8896,2.4781S10.0963,0.507,9.3561,1.4081c0,0-1.0639,0.5182-0.8699,3.1878"/>
	<path fill="none" stroke="#000000" stroke-linecap="round" stroke-linejoin="round" d="M13.7379,9.1851
		c0,0-2.0002-2.9816-0.4554-4.0759s2.3257-1.0942,2.1284-1.8023"/>
	
		<line fill="none" stroke="#000000" stroke-linecap="round" stroke-linejoin="round" x1="10.579" y1="4.9161" x2="12.6969" y2="6.0747"/>
	<path fill="none" stroke="#000000" stroke-linecap="round" stroke-linejoin="round" d="M13.0117,7.7747
		c0,0,0.9229-1.2816,2.3991-0.9919"/>
</g>
<rect x="0" y="0.0197" fill="none" width="24" height="24"/>
</svg>
