<?xml version="1.0" encoding="utf-8"?>
<!-- Generator: Adobe Illustrator 18.1.0, SVG Export Plug-In . SVG Version: 6.00 Build 0)  -->
<svg version="1.1" id="Layer_1" xmlns="http://www.w3.org/2000/svg" xmlns:xlink="http://www.w3.org/1999/xlink" x="0px" y="0px"
	 width="24px" height="24px" viewBox="0 0 24 24" enable-background="new 0 0 24 24" xml:space="preserve">
<g>
	
		<rect x="3.4104" y="17.4807" fill="none" stroke="#000000" stroke-linecap="round" stroke-linejoin="round" stroke-miterlimit="10" width="17.1185" height="6.0194"/>
	<path fill="none" stroke="#000000" stroke-linecap="round" stroke-linejoin="round" stroke-miterlimit="10" d="M3.7283,4.4724
		L0.5915,8.0606c0,3.012,4.5586,3.015,4.5586,0c0,3.0107,4.5583,3.017,4.5583,0c0,3.0118,4.5592,3.0151,4.5592,0
		c0,3.012,4.5583,3.0151,4.5583,0c0,3.012,4.5589,3.0142,4.5589,0l-3.1371-3.5881H3.7283z"/>
	<polyline fill="none" stroke="#000000" stroke-linecap="round" stroke-linejoin="round" stroke-miterlimit="10" points="
		20.529,12.6632 20.529,23.5001 3.4104,23.5001 3.4104,12.6772 	"/>
	<polyline fill="none" stroke="#000000" stroke-linecap="round" stroke-linejoin="round" stroke-miterlimit="10" points="
		3.7005,4.4723 3.7005,2.48 20.2389,2.48 20.2389,4.4723 	"/>
</g>
<rect x="-0.0137" y="0.0001" fill="none" width="24" height="24"/>
</svg>
