<?xml version="1.0" encoding="utf-8"?>
<!-- Generator: Adobe Illustrator 18.1.0, SVG Export Plug-In . SVG Version: 6.00 Build 0)  -->
<svg version="1.1" id="Layer_1" xmlns="http://www.w3.org/2000/svg" xmlns:xlink="http://www.w3.org/1999/xlink" x="0px" y="0px"
	 width="24px" height="24px" viewBox="0 0 24 24" enable-background="new 0 0 24 24" xml:space="preserve">
<g>
	
		<circle fill="none" stroke="#000000" stroke-linecap="round" stroke-linejoin="round" stroke-miterlimit="10" cx="11.9776" cy="14.0065" r="4.4091"/>
	
		<line fill="none" stroke="#000000" stroke-linecap="round" stroke-linejoin="round" stroke-miterlimit="10" x1="10.9983" y1="11.8654" x2="10.9983" y2="16.1548"/>
	
		<line fill="none" stroke="#000000" stroke-linecap="round" stroke-linejoin="round" stroke-miterlimit="10" x1="11.502" y1="11.1123" x2="11.502" y2="11.8654"/>
	
		<line fill="none" stroke="#000000" stroke-linecap="round" stroke-linejoin="round" stroke-miterlimit="10" x1="11.502" y1="16.1548" x2="11.502" y2="16.9007"/>
	<path fill="none" stroke="#000000" stroke-linecap="round" stroke-linejoin="round" d="M10.5323,11.8654h1.8075
		c1.9018,0.0406,1.6487,2.148,0.0991,2.0054"/>
	<path fill="none" stroke="#000000" stroke-linecap="round" stroke-linejoin="round" d="M11.0202,16.1548"/>
	<path fill="none" stroke="#000000" stroke-linecap="round" stroke-linejoin="round" d="M10.5323,16.1548h2.1465
		c1.5659-0.0187,1.5151-2.2686,0.061-2.284h-1.7196"/>
	<path fill="none" stroke="#000000" stroke-linecap="round" stroke-linejoin="round" d="M0.4162,5.493v13.4521l0,0
		c0,0.8696,0.7047,1.575,1.5743,1.575h21.4531V7.4577H1.9906C1.1209,7.4577,0.4162,6.5779,0.4162,5.493L0.4162,5.493
		c0-1.0848,0.7047-1.9647,1.5743-1.9647h21.4531"/>
	
		<line fill="none" stroke="#000000" stroke-linecap="round" stroke-linejoin="round" stroke-miterlimit="10" x1="23.4437" y1="5.493" x2="2.3095" y2="5.493"/>
</g>
<rect x="-0.0197" y="0.0121" fill="none" width="24" height="24"/>
<rect x="-0.0197" y="0.0091" fill="none" width="24" height="24"/>
</svg>
