<?xml version="1.0" encoding="utf-8"?>
<!-- Generator: Adobe Illustrator 18.1.0, SVG Export Plug-In . SVG Version: 6.00 Build 0)  -->
<svg version="1.1" id="Layer_1" xmlns="http://www.w3.org/2000/svg" xmlns:xlink="http://www.w3.org/1999/xlink" x="0px" y="0px"
	 width="24px" height="24px" viewBox="0 0 24 24" enable-background="new 0 0 24 24" xml:space="preserve">
<g>
	<path fill="none" stroke="#000000" stroke-linecap="round" stroke-linejoin="round" stroke-miterlimit="10" d="M21.6173,6.4288
		L6.4084,21.6376c-1.1038,1.1038-2.8935,1.1038-3.9973,0l0,0c-1.1038-1.1038-1.1038-2.8935,0-3.9973L17.6199,2.4315
		c1.1038-1.1038,2.8935-1.1038,3.9973,0l0,0C22.7211,3.5353,22.7211,5.325,21.6173,6.4288z"/>
	<path fill="none" stroke="#000000" stroke-linecap="round" stroke-linejoin="round" stroke-miterlimit="10" d="M1.8106,18.2409
		l-0.1002-0.1002c-1.1357-1.1357-1.1357-2.9769,0-4.1126L14.0077,1.7307c1.1357-1.1357,2.9769-1.1357,4.1126,0l0.1002,0.1002"/>
	<path fill="none" stroke="#000000" stroke-linecap="round" stroke-linejoin="round" stroke-miterlimit="10" d="M22.2178,5.8283
		l0.1002,0.1002c1.1357,1.1357,1.1357,2.9769,0,4.1126L10.0207,22.3384c-1.1357,1.1357-2.9769,1.1357-4.1126,0l-0.1002-0.1002"/>
	<path fill="none" stroke="#000000" stroke-linecap="round" stroke-linejoin="round" stroke-miterlimit="10" d="M4.5126,19.5361
		c0-1.1837,0.9596-2.1433,2.1433-2.1433h0c1.1837,0,2.1433-0.9596,2.1433-2.1433v0c0-1.1837,0.9596-2.1433,2.1433-2.1433h0
		c1.1837,0,2.1433-0.9596,2.1433-2.1433v0c0-1.1837,0.9596-2.1433,2.1433-2.1433h0c1.1837,0,2.1433-0.9596,2.1433-2.1433v0
		c0-1.1837,0.9596-2.1433,2.1433-2.1433"/>
</g>
<rect x="0.0142" y="0.0346" fill="none" width="24" height="24"/>
</svg>
