<?xml version="1.0" encoding="utf-8"?>
<!-- Generator: Adobe Illustrator 18.1.0, SVG Export Plug-In . SVG Version: 6.00 Build 0)  -->
<svg version="1.1" id="Layer_1" xmlns="http://www.w3.org/2000/svg" xmlns:xlink="http://www.w3.org/1999/xlink" x="0px" y="0px"
	 width="24px" height="24px" viewBox="0 0 24 24" enable-background="new 0 0 24 24" xml:space="preserve">
<g>
	<circle fill="none" stroke="#000000" stroke-linecap="round" stroke-linejoin="round" cx="8.226" cy="16.7372" r="1.8867"/>
	<circle fill="none" stroke="#000000" stroke-linecap="round" stroke-linejoin="round" cx="19.2966" cy="14.6237" r="1.8867"/>
	
		<line fill="none" stroke="#000000" stroke-linecap="round" stroke-linejoin="round" stroke-miterlimit="10" x1="11.5709" y1="16.0986" x2="15.9895" y2="15.2551"/>
	
		<line fill="none" stroke="#000000" stroke-linecap="round" stroke-linejoin="round" x1="8.226" y1="16.7372" x2="8.226" y2="16.7372"/>
	
		<line fill="none" stroke="#000000" stroke-linecap="round" stroke-linejoin="round" x1="19.2966" y1="14.6237" x2="19.2966" y2="14.6237"/>
	<path fill="none" stroke="#000000" stroke-linecap="round" stroke-linejoin="round" stroke-miterlimit="10" d="M22.3861,13.9362
		c0.4221-0.0836,0.6966-0.4936,0.613-0.9157l-0.4006-2.0233c-0.1492-0.7538-0.8257-1.2863-1.5934-1.2544l-4.6405,0.1928
		l-2.6672-3.7783c-0.1774-0.2513-0.4861-0.3747-0.7879-0.315L2.9269,7.8186c-0.4221,0.0836-0.6966,0.4936-0.613,0.9157
		l1.5584,7.8713c0.0612,0.309,0.3024,0.5508,0.6113,0.6127l0.6586,0.132"/>
	
		<rect x="1.3609" y="11.3087" transform="matrix(0.981 -0.1942 0.1942 0.981 -2.5878 0.7057)" fill="none" stroke="#000000" stroke-linecap="round" stroke-linejoin="round" stroke-miterlimit="10" width="1.8881" height="4.4827"/>
	
		<line fill="none" stroke="#000000" stroke-linecap="round" stroke-linejoin="round" stroke-miterlimit="10" x1="3.0728" y1="12.5671" x2="16.3647" y2="9.9355"/>
	
		<line fill="none" stroke="#000000" stroke-linecap="round" stroke-linejoin="round" stroke-miterlimit="10" x1="9.8872" y1="6.4405" x2="10.7974" y2="11.0378"/>
	
		<line fill="none" stroke="#000000" stroke-linecap="round" stroke-linejoin="round" stroke-miterlimit="10" x1="5.34" y1="7.3408" x2="6.2502" y2="11.9381"/>
	
		<line fill="none" stroke="#000000" stroke-linecap="round" stroke-linejoin="round" stroke-miterlimit="10" x1="3.1756" y1="5.677" x2="11.0458" y2="4.1188"/>
	<path fill="none" stroke="#000000" stroke-linecap="round" stroke-linejoin="round" d="M23.255,18.8157
		c-3.4356-5.0363-8.4276,0-8.4276,0c-5.2161-1.5178-13.1638,1.7537-14.1638,2.601"/>
</g>
<rect x="-0.0137" y="0" fill="none" width="24" height="24"/>
</svg>
