<?xml version="1.0" encoding="utf-8"?>
<!-- Generator: Adobe Illustrator 18.1.0, SVG Export Plug-In . SVG Version: 6.00 Build 0)  -->
<svg version="1.1" id="Layer_1" xmlns="http://www.w3.org/2000/svg" xmlns:xlink="http://www.w3.org/1999/xlink" x="0px" y="0px"
	 width="24px" height="24px" viewBox="0 0 24 24" enable-background="new 0 0 24 24" xml:space="preserve">
<g>
	<g>
		
			<line fill="none" stroke="#000000" stroke-linecap="round" stroke-linejoin="round" x1="4.5569" y1="7.4403" x2="4.5569" y2="10.5597"/>
		
			<line fill="none" stroke="#000000" stroke-linecap="round" stroke-linejoin="round" x1="3.2061" y1="8.2201" x2="5.9076" y2="9.7799"/>
		
			<line fill="none" stroke="#000000" stroke-linecap="round" stroke-linejoin="round" x1="3.2061" y1="9.7799" x2="5.9076" y2="8.2201"/>
	</g>
	<g>
		
			<line fill="none" stroke="#000000" stroke-linecap="round" stroke-linejoin="round" x1="9.5572" y1="7.4403" x2="9.5572" y2="10.5597"/>
		
			<line fill="none" stroke="#000000" stroke-linecap="round" stroke-linejoin="round" x1="8.2064" y1="8.2201" x2="10.9079" y2="9.7799"/>
		
			<line fill="none" stroke="#000000" stroke-linecap="round" stroke-linejoin="round" x1="8.2064" y1="9.7799" x2="10.9079" y2="8.2201"/>
	</g>
	<g>
		
			<line fill="none" stroke="#000000" stroke-linecap="round" stroke-linejoin="round" x1="14.5575" y1="7.4403" x2="14.5575" y2="10.5597"/>
		
			<line fill="none" stroke="#000000" stroke-linecap="round" stroke-linejoin="round" x1="13.2067" y1="8.2201" x2="15.9082" y2="9.7799"/>
		
			<line fill="none" stroke="#000000" stroke-linecap="round" stroke-linejoin="round" x1="13.2067" y1="9.7799" x2="15.9082" y2="8.2201"/>
	</g>
	<g>
		
			<line fill="none" stroke="#000000" stroke-linecap="round" stroke-linejoin="round" x1="19.5578" y1="7.4403" x2="19.5578" y2="10.5597"/>
		
			<line fill="none" stroke="#000000" stroke-linecap="round" stroke-linejoin="round" x1="18.207" y1="8.2201" x2="20.9086" y2="9.7799"/>
		
			<line fill="none" stroke="#000000" stroke-linecap="round" stroke-linejoin="round" x1="18.207" y1="9.7799" x2="20.9086" y2="8.2201"/>
	</g>
	<g>
		<polyline fill="none" stroke="#000000" stroke-linecap="round" stroke-linejoin="round" points="22.5484,13.5 23.5323,13.5 
			23.5323,4.5 0.5323,4.5 0.5323,13.5 12.4897,13.5 		"/>
	</g>
	
		<circle fill="none" stroke="#000000" stroke-linecap="round" stroke-linejoin="round" stroke-miterlimit="10" cx="17.5606" cy="16.5052" r="3.8981"/>
	
		<line fill="none" stroke="#000000" stroke-linecap="round" stroke-linejoin="round" stroke-miterlimit="10" x1="16.0947" y1="15.0394" x2="19.0268" y2="17.9714"/>
	
		<line fill="none" stroke="#000000" stroke-linecap="round" stroke-linejoin="round" stroke-miterlimit="10" x1="16.0947" y1="17.9714" x2="19.0268" y2="15.0394"/>
</g>
<rect x="0.0293" fill="none" width="24" height="24"/>
</svg>
