<?xml version="1.0" encoding="utf-8"?>
<!-- Generator: Adobe Illustrator 18.1.0, SVG Export Plug-In . SVG Version: 6.00 Build 0)  -->
<svg version="1.1" id="Layer_1" xmlns="http://www.w3.org/2000/svg" xmlns:xlink="http://www.w3.org/1999/xlink" x="0px" y="0px"
	 width="24px" height="24px" viewBox="0 0 24 24" enable-background="new 0 0 24 24" xml:space="preserve">
<g>
	<path fill="none" stroke="#000000" stroke-linecap="round" stroke-linejoin="round" d="M7.4543,22.6815
		c-3.6992,0-6.7084-3.0094-6.7084-6.7084c0-3.699,3.0092-6.7084,6.7084-6.7084s6.7084,3.0094,6.7084,6.7084
		C14.1627,19.672,11.1534,22.6815,7.4543,22.6815z"/>
	<path fill="none" stroke="#000000" stroke-linecap="round" stroke-linejoin="round" d="M16.5436,22.6815
		c-3.6992,0-6.7084-3.0094-6.7084-6.7084c0-3.699,3.0092-6.7084,6.7084-6.7084s6.7084,3.0094,6.7084,6.7084
		C23.252,19.672,20.2427,22.6815,16.5436,22.6815z"/>
	<path fill="none" stroke="#000000" stroke-linecap="round" stroke-linejoin="round" d="M12.0098,14.7135
		c-3.6992,0-6.7084-3.0094-6.7084-6.7084c0-3.699,3.0092-6.7084,6.7084-6.7084s6.7084,3.0094,6.7084,6.7084
		C18.7183,11.7041,15.709,14.7135,12.0098,14.7135z"/>
</g>
<rect x="0" y="-0.0001" fill="none" width="24" height="24"/>
</svg>
