<?xml version="1.0" encoding="utf-8"?>
<!-- Generator: Adobe Illustrator 18.1.0, SVG Export Plug-In . SVG Version: 6.00 Build 0)  -->
<svg version="1.1" id="Layer_1" xmlns="http://www.w3.org/2000/svg" xmlns:xlink="http://www.w3.org/1999/xlink" x="0px" y="0px"
	 width="24px" height="24px" viewBox="0 0 24 24" enable-background="new 0 0 24 24" xml:space="preserve">
<g>
	<path fill="none" stroke="#000000" stroke-linecap="round" stroke-linejoin="round" stroke-miterlimit="10" d="M20.3292,9.0154
		c0-4.6076-3.7353-8.3429-8.3429-8.3429c-4.6077,0-8.3429,3.7352-8.3429,8.3429c0,4.0543,2.8928,7.4302,6.7264,8.1833l1.6165,6.129
		l1.6165-6.129C17.4364,16.4455,20.3292,13.0696,20.3292,9.0154z"/>
	<path fill="none" stroke="#000000" stroke-linecap="round" stroke-linejoin="round" stroke-miterlimit="10" d="M9.8248,9.9136
		c-1.3279,4.3391-1.6909,4.2159,2.1679,1.5591c3.8588,2.6568,3.4958,2.78,2.1679-1.5591c3.7518-2.8145,3.7422-2.4344-0.8288-2.5269
		c-1.5418-4.3878-1.1719-4.2873-2.6782,0C5.9482,7.4819,6.1766,7.177,9.8243,9.9136H9.8248z"/>
</g>
<rect x="-0.0136" y="0.0001" fill="none" width="24" height="24"/>
</svg>
