<?xml version="1.0" encoding="utf-8"?>
<!-- Generator: Adobe Illustrator 18.1.0, SVG Export Plug-In . SVG Version: 6.00 Build 0)  -->
<svg version="1.1" id="Layer_1" xmlns="http://www.w3.org/2000/svg" xmlns:xlink="http://www.w3.org/1999/xlink" x="0px" y="0px"
	 width="24px" height="24px" viewBox="0 0 24 24" enable-background="new 0 0 24 24" xml:space="preserve">
<g>
	<path fill="none" stroke="#000000" stroke-linecap="round" stroke-linejoin="round" d="M18.5293,5.5568
		c3.3416,1.8975,5.7553,5.4965,4.4706,7.9473c-1.3458,2.5674-5.37,3.1755-8.9884,1.3582c-2.2208-1.1154-3.9139-3.2182-4.4702-5.0126
		"/>
	
		<ellipse fill="none" stroke="#000000" stroke-linecap="round" stroke-linejoin="round" cx="9.5242" cy="9.0605" rx="0.8166" ry="0.7994"/>
	<path fill="none" stroke="#000000" stroke-linecap="round" stroke-linejoin="round" d="M0.5293,13.4882v7.0752
		c0,1.5163,4.0235,2.7456,9,2.7456c4.9764,0,9-1.2292,9-2.7456V2.6757"/>
	<path fill="none" stroke="#000000" stroke-linecap="round" stroke-linejoin="round" d="M0.5369,2.6757
		c0,0-0.0122,7.9766-0.0122,7.9866c0,1.5794,2.6867,1.5772,2.6867,0.0182c0-0.0065-0.0011-2.3866-0.0011-2.3866V8.2764h0.0011
		L3.2103,8.2939c0,1.8143,3.3053,1.8151,3.3053,0c0,0-0.0009-0.0116-0.0011-0.0175h0.0011v-3.654"/>
	
		<ellipse fill="none" stroke="#000000" stroke-linecap="round" stroke-linejoin="round" cx="9.527" cy="2.6757" rx="9.0023" ry="2.0625"/>
</g>
<rect x="0.0293" y="0.0001" fill="none" width="24" height="24"/>
</svg>
