<?xml version="1.0" encoding="utf-8"?>
<!-- Generator: Adobe Illustrator 18.1.0, SVG Export Plug-In . SVG Version: 6.00 Build 0)  -->
<svg version="1.1" id="Layer_1" xmlns="http://www.w3.org/2000/svg" xmlns:xlink="http://www.w3.org/1999/xlink" x="0px" y="0px"
	 width="24px" height="24px" viewBox="0 0 24 24" enable-background="new 0 0 24 24" xml:space="preserve">
<g>
	
		<rect x="12.5125" y="7.4703" fill="none" stroke="#000000" stroke-linecap="round" stroke-linejoin="round" stroke-miterlimit="10" width="6.9548" height="0"/>
	<path fill="none" stroke="#000000" stroke-linecap="round" stroke-linejoin="round" stroke-miterlimit="10" d="M11.4833,18.4914
		h10.4541c0.5703,0,0.8517-0.0551,1.0742-1.8993c0.341-2.8207,0.3417-7.3555,0-10.1816C22.789,4.5664,22.5077,4.47,21.9374,4.47
		H11.4833"/>
	<path fill="none" stroke="#000000" stroke-linecap="round" stroke-linejoin="round" stroke-miterlimit="10" d="M2.471,4.47H2.0446
		c-0.5703,0-0.8517,0.0963-1.0744,1.9405c-0.3405,2.8165-0.341,7.3613,0,10.1816c0.2227,1.8441,0.5041,1.8993,1.0744,1.8993H2.471"
		/>
	<path fill="none" stroke="#000000" stroke-linecap="round" stroke-linejoin="round" stroke-miterlimit="10" d="M8.3423,2.5201
		H5.6118c-0.6289,0-1.1406,0.5197-1.1406,1.1589v15.6754c0,0.6394,0.5117,1.1594,1.1406,1.1594h2.7304
		c0.6291,0,1.1408-0.52,1.1408-1.1594V3.679C9.4831,3.0398,8.9714,2.5201,8.3423,2.5201z"/>
	
		<line fill="none" stroke="#000000" stroke-linecap="round" stroke-linejoin="round" stroke-miterlimit="10" x1="12.5125" y1="10.4706" x2="13.4729" y2="10.4706"/>
	
		<line fill="none" stroke="#000000" stroke-linecap="round" stroke-linejoin="round" stroke-miterlimit="10" x1="12.5125" y1="12.4708" x2="13.4729" y2="12.4708"/>
	
		<line fill="none" stroke="#000000" stroke-linecap="round" stroke-linejoin="round" stroke-miterlimit="10" x1="12.5125" y1="14.471" x2="13.4729" y2="14.471"/>
	
		<line fill="none" stroke="#000000" stroke-linecap="round" stroke-linejoin="round" stroke-miterlimit="10" x1="15.5128" y1="10.4706" x2="16.4732" y2="10.4706"/>
	
		<line fill="none" stroke="#000000" stroke-linecap="round" stroke-linejoin="round" stroke-miterlimit="10" x1="15.5128" y1="12.4708" x2="16.4732" y2="12.4708"/>
	
		<line fill="none" stroke="#000000" stroke-linecap="round" stroke-linejoin="round" stroke-miterlimit="10" x1="15.5128" y1="14.471" x2="16.4732" y2="14.471"/>
	
		<line fill="none" stroke="#000000" stroke-linecap="round" stroke-linejoin="round" stroke-miterlimit="10" x1="18.5131" y1="10.4706" x2="19.4735" y2="10.4706"/>
	
		<line fill="none" stroke="#000000" stroke-linecap="round" stroke-linejoin="round" stroke-miterlimit="10" x1="18.5131" y1="12.4708" x2="19.4735" y2="12.4708"/>
	
		<line fill="none" stroke="#000000" stroke-linecap="round" stroke-linejoin="round" stroke-miterlimit="10" x1="18.5131" y1="14.471" x2="19.4735" y2="14.471"/>
</g>
<rect x="0" y="-0.002" fill="none" width="24" height="24"/>
</svg>
