<?xml version="1.0" encoding="utf-8"?>
<!-- Generator: Adobe Illustrator 18.1.1, SVG Export Plug-In . SVG Version: 6.00 Build 0)  -->
<svg version="1.1" id="Layer_1" xmlns="http://www.w3.org/2000/svg" xmlns:xlink="http://www.w3.org/1999/xlink" x="0px" y="0px"
	 width="24px" height="24px" viewBox="0 0 24 24" enable-background="new 0 0 24 24" xml:space="preserve">
<g>
	<path fill="none" stroke="#000000" stroke-linecap="round" stroke-linejoin="round" stroke-miterlimit="10" d="M23,6.2
		c-0.4-0.8-1.4-1-2.4-0.6c-2.7-3.1-8-3.7-12.7-1.2c-4.7,2.5-7.1,7.2-6.1,11.2c-0.9,0.6-1.2,1.6-0.8,2.3s1.4,1,2.4,0.6
		c2.7,3.1,8,3.7,12.7,1.2c4.7-2.5,7.1-7.2,6.1-11.2C23,7.9,23.4,6.9,23,6.2z"/>
	
		<line fill="none" stroke="#000000" stroke-linecap="round" stroke-linejoin="round" stroke-miterlimit="10" x1="13.6" y1="5.5" x2="13.5" y2="5.5"/>
	
		<line fill="none" stroke="#000000" stroke-linecap="round" stroke-linejoin="round" stroke-miterlimit="10" x1="16.5" y1="6.5" x2="16.5" y2="6.5"/>
	
		<line fill="none" stroke="#000000" stroke-linecap="round" stroke-linejoin="round" stroke-miterlimit="10" x1="15.6" y1="8.5" x2="15.5" y2="8.5"/>
</g>
<rect y="0" fill="none" width="24" height="24"/>
</svg>
