<?xml version="1.0" encoding="utf-8"?>
<!-- Generator: Adobe Illustrator 18.1.0, SVG Export Plug-In . SVG Version: 6.00 Build 0)  -->
<svg version="1.1" id="Layer_1" xmlns="http://www.w3.org/2000/svg" xmlns:xlink="http://www.w3.org/1999/xlink" x="0px" y="0px"
	 width="24px" height="24px" viewBox="0 0 24 24" enable-background="new 0 0 24 24" xml:space="preserve">
<g>
	<path fill="none" stroke="#000000" stroke-linecap="round" stroke-linejoin="round" d="M6.6339,16.5468
		c0,0,6.9106-5.4222,12.067-8.6117s2.1795,0.4253-0.8505,3.2427S8.6539,19.6832,6.6339,16.5468z"/>
	<path fill="none" stroke="#000000" stroke-linecap="round" stroke-linejoin="round" d="M21.4359,6.7309
		c0,0,0.933-0.0185,1.6772,3.2774s-1.9834,5.7332-1.9834,5.7332l-0.2654,5.7624h-1.4191c0,0,0-0.1726,0-4.585
		c0-4.4121-3.7053,0.2917-5.9329,2.5517c-0.9832,0.9975-1.9741,1.6736-3.123,1.9963c-0.1805,0.0507-0.3704,0.0698-0.5578,0.0698
		l-6.2724,0c-0.2774,0-0.5552-0.0465-0.8055-0.1661c-0.482-0.2303-0.9712-0.5458-1.4887-0.9432
		c-2.9769-2.286,5.369-3.8807,5.369-3.8807"/>
</g>
<rect x="0.0142" y="0.0344" fill="none" width="24" height="24"/>
</svg>
