<?xml version="1.0" encoding="utf-8"?>
<!-- Generator: Adobe Illustrator 18.1.0, SVG Export Plug-In . SVG Version: 6.00 Build 0)  -->
<svg version="1.1" id="Layer_1" xmlns="http://www.w3.org/2000/svg" xmlns:xlink="http://www.w3.org/1999/xlink" x="0px" y="0px"
	 width="24px" height="24px" viewBox="0 0 24 24" enable-background="new 0 0 24 24" xml:space="preserve">
<g>
	
		<line fill="none" stroke="#000000" stroke-linecap="round" stroke-linejoin="round" stroke-miterlimit="10" x1="11.9863" y1="0.4729" x2="11.9863" y2="23.4475"/>
	<path fill="none" stroke="#000000" stroke-linecap="round" stroke-linejoin="round" stroke-miterlimit="10" d="M19.5587,23.3674
		v-5.8938h2.8771l-2.2351-5.6002l0.4399-2.3288c0.1276-3.8941-0.1776-3.673-0.2366-3.7249
		c-0.1567-0.0463-0.3211-0.0726-0.4935-0.0726l-1.365,1.4739l-1.365-1.4739c-0.1724,0-0.3367,0.0262-0.4935,0.0726
		c-0.059,0.052-0.3642-0.1692-0.2366,3.7249l0.4399,2.3288l-2.2351,5.6002h2.8771v5.8938"/>
	
		<line fill="none" stroke="#000000" stroke-linecap="round" stroke-linejoin="round" stroke-miterlimit="10" x1="5.4835" y1="23.4475" x2="5.4838" y2="15.5008"/>
	<path fill="none" stroke="#000000" stroke-linecap="round" stroke-linejoin="round" stroke-miterlimit="10" d="M6.9214,2.1198
		c0,0.794-0.6436,1.9027-1.4376,1.9027S4.0461,2.9138,4.0461,2.1198s0.6436-1.4376,1.4376-1.4376S6.9214,1.3259,6.9214,2.1198z"/>
	<path fill="none" stroke="#000000" stroke-linecap="round" stroke-linejoin="round" stroke-miterlimit="10" d="M19.9106,2.3377
		c0,0.794-0.6111,1.9027-1.365,1.9027s-1.365-1.1087-1.365-1.9027S17.7917,0.9,18.5456,0.9S19.9106,1.5437,19.9106,2.3377z"/>
	<path fill="none" stroke="#000000" stroke-linecap="round" stroke-linejoin="round" stroke-miterlimit="10" d="M3.6231,23.4475
		L3.055,13.5808c-0.0083-0.2066-0.6718,0.0623-0.6791-0.1336C2.1056,6.2143,2.707,5.6519,2.7749,5.595
		c0.08-0.0224,0.7362-0.0401,0.9325-0.0525C3.973,5.5258,4.2018,5.688,4.3237,5.9244c0.4323,0.8385,1.8878,0.8385,2.3201,0
		C6.7657,5.688,6.9946,5.5258,7.2601,5.5425C7.4565,5.5549,8.1126,5.5726,8.1926,5.595c0.0679,0.0569,0.6693,0.6193,0.3991,7.8523
		c-0.0073,0.1959-0.6708-0.0731-0.6791,0.1336l-0.5687,9.8667"/>
</g>
<rect x="-0.0137" y="0.0002" fill="none" width="24" height="24"/>
</svg>
