<?xml version="1.0" encoding="utf-8"?>
<!-- Generator: Adobe Illustrator 18.1.0, SVG Export Plug-In . SVG Version: 6.00 Build 0)  -->
<svg version="1.1" id="Layer_1" xmlns="http://www.w3.org/2000/svg" xmlns:xlink="http://www.w3.org/1999/xlink" x="0px" y="0px"
	 width="24px" height="24px" viewBox="0 0 24 24" enable-background="new 0 0 24 24" xml:space="preserve">
<g>
	<polyline fill="none" stroke="#000000" stroke-linecap="round" stroke-linejoin="round" stroke-miterlimit="10" points="
		16.5191,0.5097 16.5191,4.5097 20.5191,4.5097 	"/>
	<path fill="none" stroke="#000000" stroke-linecap="round" stroke-linejoin="round" stroke-miterlimit="10" d="M20.5191,22.7098
		c0,0.4366-0.354,0.7999-0.7915,0.7999H4.3064c-0.4366,0-0.7872-0.3633-0.7872-0.7999V1.3153c0-0.4364,0.3506-0.8056,0.7872-0.8056
		h12.2127c0.2076,0,0.3041,0.0894,0.4517,0.2349l3.3124,3.2687c0.1503,0.1483,0.2359,0.285,0.2359,0.4964V22.7098z"/>
	<path fill="none" stroke="#000000" stroke-linecap="round" stroke-linejoin="round" stroke-miterlimit="10" d="M9.19,11.4728
		c-0.515,0-0.9342,0.4798-0.9342,1.069l0.4133,4.934c0,0.5899,0.4192,1.0695,0.9342,1.0695h4.7921
		c0.515,0,0.9344-0.4796,0.9344-1.0695l0.4133-4.934c0-0.5892-0.4194-1.069-0.9344-1.069H9.19z"/>
	<path fill="none" stroke="#000000" stroke-linecap="round" stroke-linejoin="round" stroke-miterlimit="10" d="M10.4705,11.4667
		V8.9059c0-0.8705,0.6862-1.5788,1.5295-1.5788c0.8438,0,1.5293,0.7083,1.5293,1.5788v2.5608"/>
	
		<line fill="none" stroke="#000000" stroke-linecap="round" stroke-linejoin="round" stroke-miterlimit="10" x1="11.9994" y1="15.0091" x2="11.9994" y2="16.2756"/>
</g>
<rect x="0" y="0.0001" fill="none" width="24" height="24"/>
</svg>
