<?xml version="1.0" encoding="utf-8"?>
<!-- Generator: Adobe Illustrator 18.1.0, SVG Export Plug-In . SVG Version: 6.00 Build 0)  -->
<svg version="1.1" id="Layer_1" xmlns="http://www.w3.org/2000/svg" xmlns:xlink="http://www.w3.org/1999/xlink" x="0px" y="0px"
	 width="24px" height="24px" viewBox="0 0 24 24" enable-background="new 0 0 24 24" xml:space="preserve">
<g>
	<path fill="none" stroke="#000000" stroke-linecap="round" stroke-linejoin="round" stroke-miterlimit="10" d="M8.2598,1.6319
		c0,0,1.4827,0.4411-0.4172,3.3531c-1.8997,2.9117,0,3.0882,0,3.0882"/>
	<path fill="none" stroke="#000000" stroke-linecap="round" stroke-linejoin="round" stroke-miterlimit="10" d="M10.7111,4.8467
		c0,0,0.8448,0.2515-0.2374,1.9107c-1.0828,1.6592,0,1.7597,0,1.7597"/>
	<path fill="none" stroke="#000000" stroke-linecap="round" stroke-linejoin="round" stroke-miterlimit="10" d="M4.9836,4.8467
		c0,0,0.8448,0.2515-0.2374,1.9107c-1.0828,1.6592,0,1.7597,0,1.7597"/>
	<path fill="none" stroke="#000000" stroke-linecap="round" stroke-linejoin="round" stroke-miterlimit="10" d="M1.4859,13.6632
		l1.0471,6.0998c0,0.9267,2.2888,1.678,5.1122,1.678s5.1122-0.7513,5.1122-1.678l1.0639-6.0998"/>
	
		<ellipse fill="none" stroke="#000000" stroke-linecap="round" stroke-linejoin="round" stroke-miterlimit="10" cx="7.6452" cy="12.7752" rx="6.7413" ry="2.2125"/>
	<polyline fill="none" stroke="#000000" stroke-linecap="round" stroke-linejoin="round" stroke-miterlimit="10" points="
		14.3866,12.7752 23.1385,11.3632 23.1385,12.3313 13.5904,14.9877 	"/>
</g>
<rect x="0" y="0.0197" fill="none" width="24" height="24"/>
</svg>
