<?xml version="1.0" encoding="utf-8"?>
<!-- Generator: Adobe Illustrator 18.1.0, SVG Export Plug-In . SVG Version: 6.00 Build 0)  -->
<svg version="1.1" id="Layer_1" xmlns="http://www.w3.org/2000/svg" xmlns:xlink="http://www.w3.org/1999/xlink" x="0px" y="0px"
	 width="24px" height="24px" viewBox="0 0 24 24" enable-background="new 0 0 24 24" xml:space="preserve">
<g>
	<path fill="none" stroke="#000000" stroke-linecap="round" stroke-linejoin="round" d="M14.4952,2.5031
		c0-1.1167-0.9141-2.0313-2.0317-2.0313h-8.936c-1.1176,0-2.0317,0.9146-2.0317,2.0313v18.9727c0,1.1173,0.9141,2.031,2.0317,2.031
		h8.936c1.1176,0,2.0317-0.9137,2.0317-2.031V15.477"/>
	<circle fill="none" stroke="#000000" stroke-linecap="round" stroke-linejoin="round" cx="7.9955" cy="21.0278" r="0.8533"/>
	<polyline fill="none" stroke="#000000" stroke-linecap="round" stroke-linejoin="round" points="14.5044,18.498 1.5044,18.498 
		1.5044,3.498 10.6567,3.498 	"/>
	<path fill="none" stroke="#000000" stroke-linecap="round" stroke-linejoin="round" d="M12.5,13.2367
		c-2-0.4473-3.9759-2.6774-3.9759-5.327c0-2.973,2.2858-5.4117,5.0047-5.4117h4.9828c2.719,0,4.9233,2.5271,4.9233,5.5001
		c0,2.9728-2.2043,5.4999-4.9233,5.4999h-1.5695L12.5,17.0906V13.2367z"/>
	
		<line fill="none" stroke="#000000" stroke-linecap="round" stroke-linejoin="round" stroke-miterlimit="10" x1="13" y1="6.498" x2="20" y2="6.498"/>
	
		<line fill="none" stroke="#000000" stroke-linecap="round" stroke-linejoin="round" stroke-miterlimit="10" x1="13" y1="9.498" x2="16" y2="9.498"/>
</g>
<rect x="0" y="-0.002" fill="none" width="24" height="24"/>
</svg>
