<?xml version="1.0" encoding="utf-8"?>
<!-- Generator: Adobe Illustrator 18.1.0, SVG Export Plug-In . SVG Version: 6.00 Build 0)  -->
<svg version="1.1" id="Layer_1" xmlns="http://www.w3.org/2000/svg" xmlns:xlink="http://www.w3.org/1999/xlink" x="0px" y="0px"
	 width="24px" height="24px" viewBox="0 0 24 24" enable-background="new 0 0 24 24" xml:space="preserve">
<g>
	<path fill="none" stroke="#000000" stroke-linecap="round" stroke-linejoin="round" stroke-miterlimit="10" d="M11.6376,6.1802
		c0,2.713-1.1415,4.4493-2.7692,4.4493c-1.6281,0-2.9475-2.1991-2.9475-4.9119S7.2403,0.806,8.8684,0.806
		C10.4961,0.806,11.6376,3.4676,11.6376,6.1802z"/>
	<path fill="none" stroke="#000000" stroke-linecap="round" stroke-linejoin="round" stroke-miterlimit="10" d="M17.5377,5.6126
		c0,2.6547-1.0426,4.8068-2.3285,4.8068c-1.2859,0-1.7801-2.1521-1.7801-4.8068s0.4942-4.8066,1.7801-4.8066
		C16.4951,0.806,17.5377,2.9579,17.5377,5.6126z"/>
	<path fill="none" stroke="#000000" stroke-linecap="round" stroke-linejoin="round" stroke-miterlimit="10" d="M19.2031,9.1765
		c0,0,2.4749-2.8335,2.7679,0.586c0.2933,3.4198-1.3675,8.3371-3.1913,5.6344C16.9556,12.6937,16.8907,11.4235,19.2031,9.1765z"/>
	<path fill="none" stroke="#000000" stroke-linecap="round" stroke-linejoin="round" stroke-miterlimit="10" d="M1.7796,10.0556
		c0,0,0.6518-3.4844,2.6379-1.433c1.6357,1.6894,3.3549,4.4295,1.2378,6.5785C3.5385,17.3506,1.161,15.0711,1.7796,10.0556z"/>
	<path fill="none" stroke="#000000" stroke-linecap="round" stroke-linejoin="round" stroke-miterlimit="10" d="M9.2232,14.2091
		c0,0,2.7899-3.7768,5.7134,0.2103c3.2171,4.3875,4.9003,7.139,2.5008,8.5977c-1.3933,0.8467-1.5807-0.5337-3.1519-1.4979
		c-1.4334-0.8793-3.1265-0.9445-4.8854,0.0976c-1.7107,1.0137-3.0827,1.661-3.4792,0.5861
		C5.525,21.1282,5.1603,19.4737,9.2232,14.2091z"/>
</g>
<rect x="0.0142" y="0.0354" fill="none" width="24" height="24"/>
</svg>
