<?xml version="1.0" encoding="utf-8"?>
<!-- Generator: Adobe Illustrator 18.1.0, SVG Export Plug-In . SVG Version: 6.00 Build 0)  -->
<svg version="1.1" id="Layer_1" xmlns="http://www.w3.org/2000/svg" xmlns:xlink="http://www.w3.org/1999/xlink" x="0px" y="0px"
	 width="24px" height="24px" viewBox="0 0 24 24" enable-background="new 0 0 24 24" xml:space="preserve">
<g>
	<path fill="none" stroke="#000000" stroke-linecap="round" stroke-linejoin="round" stroke-miterlimit="10" d="M14.5162,4.5
		c0-2.105-1.5736-3.6993-3.5147-3.6993S7.4867,2.395,7.4867,4.5H14.5162z"/>
	<g>
		<g>
			
				<line fill="none" stroke="#000000" stroke-linecap="round" stroke-linejoin="round" x1="11.0014" y1="6.4491" x2="11.0014" y2="6.9491"/>
			
				<line fill="none" stroke="#000000" stroke-linecap="round" stroke-linejoin="round" x1="11.0014" y1="8.9905" x2="11.0014" y2="9.4905"/>
		</g>
	</g>
	<g>
		<g>
			
				<line fill="none" stroke="#000000" stroke-linecap="round" stroke-linejoin="round" x1="9.5418" y1="6.4722" x2="9.3836" y2="6.9465"/>
			
				<line fill="none" stroke="#000000" stroke-linecap="round" stroke-linejoin="round" x1="8.7013" y1="8.9931" x2="8.5431" y2="9.4674"/>
		</g>
	</g>
	<g>
		<g>
			
				<line fill="none" stroke="#000000" stroke-linecap="round" stroke-linejoin="round" x1="12.4611" y1="6.4722" x2="12.6193" y2="6.9465"/>
			
				<line fill="none" stroke="#000000" stroke-linecap="round" stroke-linejoin="round" x1="13.3017" y1="8.9931" x2="13.4599" y2="9.4674"/>
		</g>
	</g>
	<g>
		
			<line fill="none" stroke="#000000" stroke-linecap="round" stroke-linejoin="round" stroke-miterlimit="10" x1="9.4894" y1="11.5495" x2="9.4894" y2="16.4563"/>
		
			<line fill="none" stroke="#000000" stroke-linecap="round" stroke-linejoin="round" x1="5.4658" y1="21.5002" x2="5.4658" y2="21.5002"/>
		
			<line fill="none" stroke="#000000" stroke-linecap="round" stroke-linejoin="round" x1="18.4538" y1="21.5002" x2="18.4538" y2="21.5002"/>
		<g>
			
				<line fill="none" stroke="#000000" stroke-linecap="round" stroke-linejoin="round" stroke-miterlimit="10" x1="9.5074" y1="21.5002" x2="14.4599" y2="21.5002"/>
			<g>
				<circle fill="none" stroke="#000000" stroke-linecap="round" stroke-linejoin="round" cx="5.4658" cy="21.5002" r="1.948"/>
				<circle fill="none" stroke="#000000" stroke-linecap="round" stroke-linejoin="round" cx="18.4538" cy="21.5002" r="1.948"/>
				<path fill="none" stroke="#000000" stroke-linecap="round" stroke-linejoin="round" stroke-miterlimit="10" d="M22.4187,21.5002
					h0.8667c-0.0857-5-4.0847-4.9369-5.5588-5.044c-0.2381-0.0173-0.2965-0.1695-0.356-0.4
					c-0.3122-1.2088-1.6086-4.5442-6.2688-4.5203c-0.1195,0.0006-1.1879,0-1.3039,0.0034
					c-5.5682,0.1639-6.3186,3.4469-6.4139,4.5715c-0.0186,0.2201-0.1869,0.377-0.4001,0.4369
					c-2.4619,0.6918-2.3615,4.9524-2.3615,4.9524h0.6995"/>
			</g>
		</g>
		
			<line fill="none" stroke="#000000" stroke-linecap="round" stroke-linejoin="round" stroke-miterlimit="10" x1="3.1709" y1="16.4563" x2="17.7265" y2="16.4563"/>
	</g>
</g>
<rect x="-0.0136" y="0" fill="none" width="24" height="24"/>
</svg>
