<?xml version="1.0" encoding="utf-8"?>
<!-- Generator: Adobe Illustrator 18.1.0, SVG Export Plug-In . SVG Version: 6.00 Build 0)  -->
<svg version="1.1" id="Layer_1" xmlns="http://www.w3.org/2000/svg" xmlns:xlink="http://www.w3.org/1999/xlink" x="0px" y="0px"
	 width="24px" height="24px" viewBox="0 0 24 24" enable-background="new 0 0 24 24" xml:space="preserve">
<g>
	<path fill="none" stroke="#000000" stroke-linecap="round" stroke-linejoin="round" stroke-miterlimit="10" d="M13.6165,2.2606
		c0,0.8001-0.7294,1.9174-1.6292,1.9174S10.358,3.0607,10.358,2.2606s0.7294-1.4487,1.6292-1.4487S13.6165,1.4605,13.6165,2.2606z"
		/>
	
		<line fill="none" stroke="#000000" stroke-linecap="round" stroke-linejoin="round" stroke-miterlimit="10" x1="5.9863" y1="13.5002" x2="17.9863" y2="13.5002"/>
	<path fill="none" stroke="#000000" stroke-linecap="round" stroke-linejoin="round" stroke-miterlimit="10" d="M7.4955,11.4832
		l0.06-2.5567c0-1.3903,1.1319-2.5893,2.732-3.0969c0.7537,0.9702,2.6233,0.9993,3.3996,0c1.6001,0.5076,2.732,1.7066,2.732,3.0969
		l0.06,2.5567"/>
	<polygon fill="none" stroke="#000000" stroke-linecap="round" stroke-linejoin="round" stroke-miterlimit="10" points="
		14.1384,23.5002 9.7419,23.5002 7.8676,13.5002 16.0128,13.5002 	"/>
	<polyline fill="none" stroke="#000000" stroke-linecap="round" stroke-linejoin="round" stroke-miterlimit="10" points="
		10.4863,13.5002 10.4863,10.3328 11.8086,8.7717 	"/>
</g>
<rect x="-0.0137" y="0.0002" fill="none" width="24" height="24"/>
</svg>
