<?xml version="1.0" encoding="utf-8"?>
<!-- Generator: Adobe Illustrator 18.1.0, SVG Export Plug-In . SVG Version: 6.00 Build 0)  -->
<svg version="1.1" id="Layer_1" xmlns="http://www.w3.org/2000/svg" xmlns:xlink="http://www.w3.org/1999/xlink" x="0px" y="0px"
	 width="24px" height="24px" viewBox="0 0 24 24" enable-background="new 0 0 24 24" xml:space="preserve">
<g>
	<path fill="none" stroke="#000000" stroke-linecap="round" stroke-linejoin="round" d="M1.577,22.3636
		c0,0,2.72,2.9667,5.3284-1.9271c3.0992-5.8147,10.592-6.5903,10.592-6.5903s3.6443-0.0088,5.4306-3.0525
		C24.4399,8.2174,20.1724,3.95,20.1724,3.95l0,0c0,0-4.3583-4.3583-6.9345-2.8464c-3.0437,1.7862-3.0525,5.4306-3.0525,5.4306
		S9.4098,14.027,3.595,17.1261C-1.2988,19.7345,1.577,22.3636,1.577,22.3636L1.577,22.3636z"/>
	<circle fill="none" stroke="#000000" stroke-linecap="round" stroke-linejoin="round" cx="3.5273" cy="20.4543" r="1.0842"/>
	<path fill="none" stroke="#000000" stroke-linecap="round" stroke-linejoin="round" d="M20.8822,7.7716
		c-0.6034,0.6034-5.1869-3.9799-4.5834-4.5833c-2.483-1.7486-3.3404,0.7797-3.3404,0.7797s-1.2959,3.1327-0.5711,3.8167
		l0.0022-0.0022c1.0268-1.0267,4.9255,2.8721,3.8989,3.8989l0,0c0.7485,0.8312,3.7327-0.65,3.7327-0.65
		S22.6308,10.2546,20.8822,7.7716z"/>
</g>
<rect x="0" y="0.0197" fill="none" width="24" height="24"/>
</svg>
