<?xml version="1.0" encoding="utf-8"?>
<!-- Generator: Adobe Illustrator 18.1.0, SVG Export Plug-In . SVG Version: 6.00 Build 0)  -->
<svg version="1.1" id="Layer_1" xmlns="http://www.w3.org/2000/svg" xmlns:xlink="http://www.w3.org/1999/xlink" x="0px" y="0px"
	 width="24px" height="24px" viewBox="0 0 24 24" enable-background="new 0 0 24 24" xml:space="preserve">
<g>
	
		<circle fill="none" stroke="#000000" stroke-linecap="round" stroke-linejoin="round" stroke-miterlimit="10" cx="19.0192" cy="19.0012" r="3.4609"/>
	<path fill="none" stroke="#000000" stroke-linecap="round" stroke-linejoin="round" stroke-miterlimit="10" d="M19.0192,15.5403
		c0,1.9114-1.5495,3.4609-3.4609,3.4609"/>
	<path fill="none" stroke="#000000" stroke-linecap="round" stroke-linejoin="round" stroke-miterlimit="10" d="M19.0192,22.4621
		c0-1.9114,1.5495-3.4609,3.4609-3.4609"/>
	<path fill="none" stroke="#000000" stroke-linecap="round" stroke-linejoin="round" stroke-miterlimit="10" d="M3.9322,21.5576
		l-1.4929-1.4929L18.5507,1.6524c1.0242-1.1704,2.8248-1.2304,3.9245-0.1306l0,0c1.0997,1.0997,1.0398,2.9003-0.1306,3.9245
		L3.9322,21.5576z"/>
	<path fill="none" stroke="#000000" stroke-linecap="round" stroke-linejoin="round" stroke-miterlimit="10" d="M2.1415,22.9651
		l-1.0553-1.0553c-0.4372-0.4372-0.4372-1.1462,0-1.5834l0.0157-0.0157c0.4372-0.4373,1.1462-0.4373,1.5834,0l1.0553,1.0553
		c0.4372,0.4372,0.4372,1.1462,0,1.5834l-0.0157,0.0157C3.2876,23.4024,2.5787,23.4024,2.1415,22.9651z"/>
	
		<line fill="none" stroke="#000000" stroke-linecap="round" stroke-linejoin="round" stroke-miterlimit="10" x1="8.3855" y1="13.2693" x2="10.7276" y2="15.6115"/>
</g>
<rect x="-0.0061" y="0" fill="none" width="24" height="24"/>
</svg>
