<?xml version="1.0" encoding="utf-8"?>
<!-- Generator: Adobe Illustrator 18.1.0, SVG Export Plug-In . SVG Version: 6.00 Build 0)  -->
<svg version="1.1" id="Layer_1" xmlns="http://www.w3.org/2000/svg" xmlns:xlink="http://www.w3.org/1999/xlink" x="0px" y="0px"
	 width="24px" height="24px" viewBox="0 0 24 24" enable-background="new 0 0 24 24" xml:space="preserve">
<g>
	<path fill="none" stroke="#000000" stroke-linecap="round" stroke-linejoin="round" stroke-miterlimit="10" d="M17.4182,9.4721
		c3.5336,0.8121,5.9173,2.3959,5.9173,4.2168c0,2.6485-5.0751,4.7956-11.3355,4.7956s-11.3355-2.147-11.3355-4.7956
		c0-1.8189,2.3901-3.4013,5.9174-4.2141"/>
	<path fill="none" stroke="#000000" stroke-linecap="round" stroke-linejoin="round" stroke-miterlimit="10" d="M13.4834,6.0085
		c-1.575,0.2584-1.4975,0.2411-2.9668,0c-2.1917,0-3.9685,1.7832-3.9685,3.983v2.243c0,1.2738,2.4409,2.3065,5.4519,2.3065
		s5.4519-1.0327,5.4519-2.3065v-2.243C17.4519,7.7918,15.6751,6.0085,13.4834,6.0085z"/>
	<path fill="none" stroke="#000000" stroke-linecap="round" stroke-linejoin="round" stroke-miterlimit="10" d="M17.4519,10.2711
		c0,1.2738-2.4409,2.3065-5.4519,2.3065s-5.4519-1.0326-5.4519-2.3065"/>
	<path fill="none" stroke="#000000" stroke-linecap="round" stroke-linejoin="round" stroke-miterlimit="10" d="M12.164,6.1883
		c0,0-0.7724,0.8182-0.8028,1.6775"/>
</g>
<rect x="0" y="0.0354" fill="none" width="24" height="24"/>
</svg>
