<?xml version="1.0" encoding="utf-8"?>
<!-- Generator: Adobe Illustrator 18.1.1, SVG Export Plug-In . SVG Version: 6.00 Build 0)  -->
<svg version="1.1" id="Layer_1" xmlns="http://www.w3.org/2000/svg" xmlns:xlink="http://www.w3.org/1999/xlink" x="0px" y="0px"
	 width="24px" height="24px" viewBox="0 0 24 24" enable-background="new 0 0 24 24" xml:space="preserve">
<g>
	<path fill="none" stroke="#000000" stroke-linecap="round" stroke-linejoin="round" stroke-miterlimit="10" d="M14.6,23.5H23
		c0.3,0,0.5-0.2,0.5-0.5v-1.7c0-0.1-0.1-0.3-0.1-0.3c-2.1-2.1-8-4.3-8-4.3c0,0,0,0,0,0"/>
	<path fill="none" stroke="#000000" stroke-linecap="round" stroke-linejoin="round" stroke-miterlimit="10" d="M8.6,16.7
		C8.6,16.7,8.6,16.7,8.6,16.7c0,0-5.8,2.2-8,4.3c-0.1,0.1-0.1,0.2-0.1,0.3V23c0,0.3,0.2,0.5,0.5,0.5h8.4"/>
	<path fill="none" stroke="#000000" stroke-linecap="round" stroke-linejoin="round" stroke-miterlimit="10" d="M14.8,15.2
		c0.1-0.1,0-1.5,0-1.6c1-1,1.6-2.3,1.7-3.7c0,0,0,0,0,0c1,0,1.2-1.4,0.4-1.8c0.2-0.6,0.3-1.2,0.3-1.8c0-3-2.3-5.5-5.2-5.5
		S6.8,3.2,6.8,6.2c0,0.6,0.1,1.2,0.3,1.8C6.2,8.4,6.5,9.8,7.5,9.8c0,0,0,0,0,0c0.1,1.4,0.7,2.7,1.7,3.7c0,0.1,0,1.6,0,1.7"/>
	<path fill="none" stroke="#000000" stroke-linecap="round" stroke-linejoin="round" stroke-miterlimit="10" d="M13.7,17.3
		c-2-0.9-3.4,0-3.4,0c-0.5,0.4,0.1,1.7,0.5,2.4c0.8-0.1,1.6-0.1,2.4,0C13.6,19,14.3,17.6,13.7,17.3z"/>
	<polyline fill="none" stroke="#000000" stroke-linecap="round" stroke-linejoin="round" points="12.9,21.1 12.9,21.4 13.2,23.5 	
		"/>
	<line fill="none" stroke="#000000" stroke-linecap="round" stroke-linejoin="round" x1="10.8" y1="23.5" x2="11.1" y2="21.2"/>
</g>
<rect x="0" y="0" fill="none" width="24" height="24"/>
</svg>
