<?xml version="1.0" encoding="utf-8"?>
<!-- Generator: Adobe Illustrator 18.1.0, SVG Export Plug-In . SVG Version: 6.00 Build 0)  -->
<svg version="1.1" id="Layer_1" xmlns="http://www.w3.org/2000/svg" xmlns:xlink="http://www.w3.org/1999/xlink" x="0px" y="0px"
	 width="24px" height="24px" viewBox="0 0 24 24" enable-background="new 0 0 24 24" xml:space="preserve">
<g>
	<path fill="none" stroke="#000000" stroke-linecap="round" stroke-linejoin="round" d="M20.4843,11.0081
		c0,0.9181-1.0914,2.143-0.8241,2.9145c0.4853,0.2172,0.8241,0.7034,0.8241,1.2695c0,0.7682-0.6228,1.3911-1.391,1.3911
		c-0.0083,0-0.0162-0.0011-0.0244-0.0013c-0.2879,3.6656-4.3852,6.7598-7.0911,6.7598c-2.6363,0-6.8032-3.0942-7.0911-6.7598
		c-0.0082,0.0001-0.0161,0.0013-0.0243,0.0013c-0.7683,0-1.3911-0.6229-1.3911-1.3911c0-0.5661,0.3387-1.0522,0.8241-1.2695
		c0.2916-0.9167-0.1299-3.8724-0.1299-4.7905"/>
	<path fill="none" stroke="#000000" stroke-linecap="round" stroke-linejoin="round" d="M14.1601,19.8758
		c3.9806-0.0231,6.4313-0.3214,7.2692-2.4685c0.4121-1.0559,0.3054-2.298-0.7664-2.6667c-0.1114-0.0383-0.1094-0.0533-0.2261-0.0656
		"/>
	<path fill="none" stroke="#000000" stroke-linecap="round" stroke-linejoin="round" d="M14.1597,19.8774
		c0,0.4039-0.3791,0.7313-0.8469,0.7313h-0.3501c-0.4678,0-0.8469-0.3274-0.8469-0.7313l0,0c0-0.4039,0.3791-0.7313,0.8469-0.7313
		h0.3501C13.7806,19.1461,14.1597,19.4735,14.1597,19.8774L14.1597,19.8774z"/>
	
		<line fill="none" stroke="#000000" stroke-linecap="round" stroke-linejoin="round" x1="10.0998" y1="19.5387" x2="10.8144" y2="19.5387"/>
	<path fill="none" stroke="#000000" stroke-linecap="round" stroke-linejoin="round" d="M21.1051,11.2243
		c0,0-11.0094-4.0435-13.2293-0.9347S6.6084,6.8642,8.4078,5.4692c0,0-4.6391,3.2796-5.9358,5.9552
		c0,0-0.9896-10.8051,9.4655-10.8051C23.2519,0.6193,21.1051,11.2243,21.1051,11.2243z"/>
	
		<line fill="none" stroke="#000000" stroke-linecap="round" stroke-linejoin="round" x1="9.9546" y1="13.5254" x2="8.9817" y2="13.5254"/>
	
		<line fill="none" stroke="#000000" stroke-linecap="round" stroke-linejoin="round" x1="14.9997" y1="13.5254" x2="14.0268" y2="13.5254"/>
</g>
<rect x="0.0005" y="0.0004" fill="none" width="24" height="24"/>
</svg>
