<?xml version="1.0" encoding="utf-8"?>
<!-- Generator: Adobe Illustrator 18.1.0, SVG Export Plug-In . SVG Version: 6.00 Build 0)  -->
<svg version="1.1" id="Layer_1" xmlns="http://www.w3.org/2000/svg" xmlns:xlink="http://www.w3.org/1999/xlink" x="0px" y="0px"
	 width="24px" height="24px" viewBox="0 0 24 24" enable-background="new 0 0 24 24" xml:space="preserve">
<g>
	<path fill="none" stroke="#000000" stroke-linecap="round" stroke-linejoin="round" d="M16.7619,13.4066
		c1.608,1.1386,0.478,3.6402,2.383,3.2102c0.2835-0.0641,0.3425-0.1033,0.591-0.3922l3.2088-3.7289
		c0.2484-0.2887,0.2392-0.3417-0.0924-0.5301c-1.5694-0.8915-4.9094-3.824-4.016-5.6056c0.6518-1.3004,2.6704,0.1079,3.79-1.4341
		c1.1476-1.5807-0.3624-4.4652-3.0154-3.4286c-0.6641,0.2598-1.0512,0.4489-1.1779,1.3168
		c-0.1265,0.8661-0.0146,2.6134-1.4552,2.4486c-0.1871-0.0212-4.9406-4.4302-4.9406-4.4302
		C11.78,0.5931,11.714,0.5943,11.465,0.8437c0,0-3.7533,3.7585-3.8026,3.8546C7.4154,5.1784,7.6812,5.6336,7.9167,5.9441
		c0.8286,1.0928,0.8915,0.3816,1.8915,0.5751c0.9874,0.1905,1.5484,1.3341,1.6629,2.3556c0.262,2.3329-3.1065,3.0994-4.124,1.3497
		c-0.6152-1.057-0.4052-3.7009-1.8695-3.255c-0.8103,0.2469-4.1075,3.3066-4.7012,4.3553c-0.188,0.3325-0.1752,0.3951,0.1264,0.628
		c2.0375,1.5725,4.1696,3.1173,4.5038,5.2037c0.1115,0.6946,0.0044,1.3544-0.7511,1.5828C4.293,18.8488,3.8554,18.7603,3.432,18.854
		c-2.837,0.6302-1.7748,4.8971,1.2701,4.4579c1.5564-0.2251,1.0937-2.1357,1.7771-3.3475c0.5198-0.9216,1.783-1.244,2.482-0.8469
		c0.3671,0.2085,2.1613,2.4537,3.2086,3.7092c0.244,0.2924,0.3084,0.3047,0.6435,0.1224c1.1418-0.6209,3.5891-2.8002,3.6102-4.3373
		c0.0123-0.8759-1.0378-0.8935-2.1825-1.6975C11.6756,15.1126,14.1822,11.5801,16.7619,13.4066z"/>
</g>
<rect x="0.0142" y="0.0354" fill="none" width="24" height="24"/>
</svg>
