<?xml version="1.0" encoding="utf-8"?>
<!-- Generator: Adobe Illustrator 18.1.0, SVG Export Plug-In . SVG Version: 6.00 Build 0)  -->
<svg version="1.1" id="Layer_1" xmlns="http://www.w3.org/2000/svg" xmlns:xlink="http://www.w3.org/1999/xlink" x="0px" y="0px"
	 width="24px" height="24px" viewBox="0 0 24 24" enable-background="new 0 0 24 24" xml:space="preserve">
<g>
	<path fill="none" stroke="#000000" stroke-linecap="round" stroke-linejoin="round" d="M14.7751,21.5001H7.5v-4h7.2751
		c2.9505,0,4.7397-2.0077,4.7397-5.0003c0-2.9918-1.7892-4.9997-4.7397-4.9997H7.5v-4h7.2751c4.7208,0,8.5614,4.2125,8.5614,8.9997
		C23.3366,17.2876,19.4959,21.5001,14.7751,21.5001L14.7751,21.5001z"/>
	<line fill="none" stroke="#000000" stroke-linecap="round" stroke-linejoin="round" x1="10.5" y1="3.4836" x2="10.5" y2="7.5001"/>
	
		<line fill="none" stroke="#000000" stroke-linecap="round" stroke-linejoin="round" x1="10.5" y1="17.5001" x2="10.5" y2="21.5001"/>
	
		<line fill="none" stroke="#000000" stroke-linecap="round" stroke-linejoin="round" stroke-miterlimit="10" x1="2.4982" y1="3.4836" x2="2.4982" y2="7.6399"/>
	
		<line fill="none" stroke="#000000" stroke-linecap="round" stroke-linejoin="round" stroke-miterlimit="10" x1="0.4491" y1="5.5617" x2="4.5474" y2="5.5617"/>
	
		<line fill="none" stroke="#000000" stroke-linecap="round" stroke-linejoin="round" stroke-miterlimit="10" x1="0.4491" y1="19.554" x2="4.5474" y2="19.554"/>
</g>
<rect x="0" y="0" fill="none" width="24" height="24"/>
</svg>
