<?xml version="1.0" encoding="utf-8"?>
<!-- Generator: Adobe Illustrator 18.1.0, SVG Export Plug-In . SVG Version: 6.00 Build 0)  -->
<svg version="1.1" id="Layer_1" xmlns="http://www.w3.org/2000/svg" xmlns:xlink="http://www.w3.org/1999/xlink" x="0px" y="0px"
	 width="24px" height="24px" viewBox="0 0 24 24" enable-background="new 0 0 24 24" xml:space="preserve">
<g>
	
		<rect x="1.4864" y="11.5002" fill="none" stroke="#000000" stroke-linecap="round" stroke-linejoin="round" width="21" height="12"/>
	<g>
		<polygon fill="none" stroke="#000000" stroke-linecap="round" stroke-linejoin="round" points="8.6266,7.5002 5.1076,11.5002 
			8.7046,11.5002 12.2236,7.5002 		"/>
		<polygon fill="none" stroke="#000000" stroke-linecap="round" stroke-linejoin="round" points="1.4864,7.5002 1.4864,11.3379 
			5.0296,7.5002 		"/>
		<polygon fill="none" stroke="#000000" stroke-linecap="round" stroke-linejoin="round" points="5.0296,7.5002 1.4864,11.3379 
			1.4864,11.5002 5.1076,11.5002 8.6266,7.5002 		"/>
		<polygon fill="none" stroke="#000000" stroke-linecap="round" stroke-linejoin="round" points="12.2236,7.5002 8.7046,11.5002 
			12.3017,11.5002 15.8206,7.5002 		"/>
		<polygon fill="none" stroke="#000000" stroke-linecap="round" stroke-linejoin="round" points="22.4864,8.0626 19.4957,11.5002 
			22.4864,11.5002 		"/>
		<polygon fill="none" stroke="#000000" stroke-linecap="round" stroke-linejoin="round" points="22.4864,7.5002 19.4176,7.5002 
			15.8987,11.5002 19.4957,11.5002 22.4864,8.0626 		"/>
		<polygon fill="none" stroke="#000000" stroke-linecap="round" stroke-linejoin="round" points="15.8206,7.5002 12.3017,11.5002 
			15.8987,11.5002 19.4176,7.5002 		"/>
	</g>
	<g>
		<polygon fill="none" stroke="#000000" stroke-linecap="round" stroke-linejoin="round" points="8.0111,2.573 5.1008,6.974 
			8.6597,6.4512 11.57,2.0502 		"/>
		<polygon fill="none" stroke="#000000" stroke-linecap="round" stroke-linejoin="round" points="0.9467,3.6105 1.4948,7.3424 
			4.4523,3.0957 		"/>
		<polygon fill="none" stroke="#000000" stroke-linecap="round" stroke-linejoin="round" points="4.4523,3.0957 1.4948,7.3424 
			1.518,7.5002 5.1008,6.974 8.0111,2.573 		"/>
		<polygon fill="none" stroke="#000000" stroke-linecap="round" stroke-linejoin="round" points="11.57,2.0502 8.6597,6.4512 
			12.2185,5.9285 15.1288,1.5275 		"/>
		<polygon fill="none" stroke="#000000" stroke-linecap="round" stroke-linejoin="round" points="21.8041,1.1058 19.3362,4.8831 
			22.2951,4.4485 		"/>
		<polygon fill="none" stroke="#000000" stroke-linecap="round" stroke-linejoin="round" points="21.7238,0.5589 18.6876,1.0048 
			15.7774,5.4058 19.3362,4.8831 21.8041,1.1058 		"/>
		<polygon fill="none" stroke="#000000" stroke-linecap="round" stroke-linejoin="round" points="15.1288,1.5275 12.2185,5.9285 
			15.7774,5.4058 18.6876,1.0048 		"/>
	</g>
	<path fill="none" stroke="#000000" stroke-linecap="round" stroke-linejoin="round" d="M14.6861,16.9694l-3.3407-2.6074
		c-0.3225-0.2517-0.7933-0.0219-0.7933,0.3872l0.0002,5.2156c0,0.4091,0.4709,0.6389,0.7934,0.3871l3.3405-2.6082
		C14.938,17.547,14.938,17.166,14.6861,16.9694z"/>
</g>
<rect x="-0.0136" y="0.0002" fill="none" width="24" height="24"/>
</svg>
