<?xml version="1.0" encoding="utf-8"?>
<!-- Generator: Adobe Illustrator 18.1.0, SVG Export Plug-In . SVG Version: 6.00 Build 0)  -->
<svg version="1.1" id="Layer_1" xmlns="http://www.w3.org/2000/svg" xmlns:xlink="http://www.w3.org/1999/xlink" x="0px" y="0px"
	 width="24px" height="24px" viewBox="0 0 24 24" enable-background="new 0 0 24 24" xml:space="preserve">
<g>
	
		<circle fill="none" stroke="#000000" stroke-linecap="round" stroke-linejoin="round" stroke-miterlimit="10" cx="11.9863" cy="17.0133" r="1.6544"/>
	<path fill="none" stroke="#000000" stroke-linecap="round" stroke-linejoin="round" stroke-miterlimit="10" d="M16.9554,0.5002
		H6.9982c-0.8716,0-1.5118,0.6871-1.5118,1.5591v19.8041c0,0.8729,0.6402,1.6367,1.5118,1.6367h9.9572
		c0.8734,0,1.531-0.7638,1.531-1.6367V2.0593C18.4864,1.1873,17.8288,0.5002,16.9554,0.5002z"/>
	
		<circle fill="none" stroke="#000000" stroke-linecap="round" stroke-linejoin="round" stroke-miterlimit="10" cx="11.9864" cy="17.0137" r="4.4309"/>
	<path fill="none" stroke="#000000" stroke-linecap="round" stroke-linejoin="round" stroke-miterlimit="10" d="M16.4864,9.3884
		c0,0.5748-0.5485,1.1118-1.1221,1.1118H8.5897c-0.5744,0-1.1034-0.537-1.1034-1.1118V3.5697c0-0.574,0.529-1.0695,1.1034-1.0695
		h6.7745c0.5736,0,1.1221,0.4955,1.1221,1.0695V9.3884z"/>
</g>
<rect x="-0.0136" y="0.0002" fill="none" width="24" height="24"/>
</svg>
