<?xml version="1.0" encoding="utf-8"?>
<!-- Generator: Adobe Illustrator 18.1.0, SVG Export Plug-In . SVG Version: 6.00 Build 0)  -->
<svg version="1.1" id="Layer_1" xmlns="http://www.w3.org/2000/svg" xmlns:xlink="http://www.w3.org/1999/xlink" x="0px" y="0px"
	 width="24px" height="24px" viewBox="0 0 24 24" enable-background="new 0 0 24 24" xml:space="preserve">
<g>
	<path fill="none" stroke="#000000" stroke-linecap="round" stroke-linejoin="round" d="M17.5142,6.1681
		c0-3.0197-2.4577-5.4826-5.4843-5.4826c-3.0274,0-5.4865,2.4633-5.4865,5.4912c0,0.831,0.6774,1.5071,1.5084,1.5071
		c0.8318,0,1.5083-0.6761,1.5083-1.5071c0-1.3651,1.1111-2.4757,2.4762-2.4757c1.3655,0,2.4759,1.1106,2.4759,2.4757
		c0,1.5748-1.3111,2.8971-2.6266,3.0582c-1.7384,0.3083-5.3714,0.9516-5.3714,4.7137v8.1111c0,0.8314,0.7084,1.4757,1.5393,1.4757
		h7.9661c0.8313,0,1.4946-0.6444,1.4946-1.4757v-7.0654V6.1681z"/>
</g>
<rect x="0.0142" y="0.0354" fill="none" width="24" height="24"/>
</svg>
