<?xml version="1.0" encoding="utf-8"?>
<!-- Generator: Adobe Illustrator 18.1.0, SVG Export Plug-In . SVG Version: 6.00 Build 0)  -->
<svg version="1.1" id="Layer_1" xmlns="http://www.w3.org/2000/svg" xmlns:xlink="http://www.w3.org/1999/xlink" x="0px" y="0px"
	 width="24px" height="24px" viewBox="0 0 24 24" enable-background="new 0 0 24 24" xml:space="preserve">
<g>
	<path fill="none" stroke="#000000" stroke-linecap="round" stroke-linejoin="round" d="M15.0993,9.3982
		c0,1.4147-1.3647,13.913-3.0482,13.913S9.0028,10.8129,9.0028,9.3982s1.3647-2.5616,3.0482-2.5616S15.0993,7.9835,15.0993,9.3982z"
		/>
	<line fill="none" stroke="#000000" stroke-linecap="round" stroke-linejoin="round" x1="11" y1="9.5" x2="12.502" y2="9.5"/>
	<line fill="none" stroke="#000000" stroke-linecap="round" stroke-linejoin="round" x1="12" y1="13.5" x2="14.7002" y2="13.5"/>
	
		<line fill="none" stroke="#000000" stroke-linecap="round" stroke-linejoin="round" x1="10.0012" y1="17.5" x2="11.4238" y2="17.5"/>
	<path fill="none" stroke="#000000" stroke-linecap="round" stroke-linejoin="round" d="M12.051,6.8366V4.026
		c0,0,2.7035-5.6012,2.9303-1.7255c0.1179,2.0148-2.1217-0.3203-2.9303,1.7255"/>
	<path fill="none" stroke="#000000" stroke-linecap="round" stroke-linejoin="round" d="M12.051,5.9616
		c0,0-3.9392-5.4528-4.2698-1.6797C7.6094,6.2433,10.8728,3.9701,12.051,5.9616"/>
	<path fill="none" stroke="#000000" stroke-linecap="round" stroke-linejoin="round" d="M12.0407,4.1274
		c0,0,0.1229-5.173-1.9926-2.7199C8.9484,2.6827,12.2586,2.334,12.0407,4.1274"/>
</g>
<rect x="0" fill="none" width="24" height="24"/>
</svg>
