<?xml version="1.0" encoding="utf-8"?>
<!-- Generator: Adobe Illustrator 18.1.0, SVG Export Plug-In . SVG Version: 6.00 Build 0)  -->
<svg version="1.1" id="Layer_1" xmlns="http://www.w3.org/2000/svg" xmlns:xlink="http://www.w3.org/1999/xlink" x="0px" y="0px"
	 width="24px" height="24px" viewBox="0 0 24 24" enable-background="new 0 0 24 24" xml:space="preserve">
<g>
	<polyline fill="none" stroke="#000000" stroke-linecap="round" stroke-linejoin="round" stroke-miterlimit="10" points="
		6.8947,3.9055 7.385,0.6598 23.0739,3.03 21.6448,12.49 17.0171,11.7909 	"/>
	<path fill="none" stroke="#000000" stroke-linecap="round" stroke-linejoin="round" stroke-miterlimit="10" d="M18.9714,12.0315
		c0.2381-1.3945,1.5626-2.4625,3.08-2.233"/>
	<path fill="none" stroke="#000000" stroke-linecap="round" stroke-linejoin="round" stroke-miterlimit="10" d="M22.5316,5.4884
		c-1.3198-0.1719-2.1967-1.4418-1.9586-2.8363"/>
	<path fill="none" stroke="#000000" stroke-linecap="round" stroke-linejoin="round" stroke-miterlimit="10" d="M9.9316,1.0446
		C9.7191,2.451,8.4067,3.419,7.0003,3.2065"/>
	<path fill="none" stroke="#000000" stroke-linecap="round" stroke-linejoin="round" d="M17.5189,17.168
		c0,0.7757,1.3499,1.4046,3.0148,1.4046c1.6654,0,3.0152-0.6289,3.0152-1.4046"/>
	<path fill="none" stroke="#000000" stroke-linecap="round" stroke-linejoin="round" d="M17.5189,18.9315
		c0,0.7757,1.3499,1.4046,3.0148,1.4046c1.6654,0,3.0152-0.6289,3.0152-1.4046"/>
	<path fill="none" stroke="#000000" stroke-linecap="round" stroke-linejoin="round" d="M23.5489,15.4046v5.2904
		c0,0.7757-1.3498,1.4046-3.0152,1.4046c-1.6649,0-3.0148-0.6289-3.0148-1.4046l0-5.2904"/>
	
		<ellipse fill="none" stroke="#000000" stroke-linecap="round" stroke-linejoin="round" cx="20.5339" cy="15.4046" rx="3.015" ry="1.4047"/>
	<g>
		<path fill="none" stroke="#000000" stroke-linecap="round" stroke-linejoin="round" d="M1.5808,8.5821
			c0,0.7757,1.3499,1.4046,3.0148,1.4046c1.6654,0,3.0152-0.6289,3.0152-1.4046"/>
		<path fill="none" stroke="#000000" stroke-linecap="round" stroke-linejoin="round" d="M1.5808,10.3456
			c0,0.7757,1.3499,1.4046,3.0148,1.4046c1.6654,0,3.0152-0.6289,3.0152-1.4046"/>
		<path fill="none" stroke="#000000" stroke-linecap="round" stroke-linejoin="round" d="M1.5808,12.1091
			c0,0.7757,1.3499,1.4046,3.0148,1.4046c1.6654,0,3.0152-0.6289,3.0152-1.4046"/>
		<path fill="none" stroke="#000000" stroke-linecap="round" stroke-linejoin="round" d="M1.5808,13.8725
			c0,0.7757,1.3499,1.4046,3.0148,1.4046c1.6654,0,3.0152-0.6289,3.0152-1.4046"/>
		<path fill="none" stroke="#000000" stroke-linecap="round" stroke-linejoin="round" d="M1.5808,15.636
			c0,0.7757,1.3499,1.4046,3.0148,1.4046c1.6654,0,3.0152-0.6289,3.0152-1.4046"/>
		<path fill="none" stroke="#000000" stroke-linecap="round" stroke-linejoin="round" d="M1.5808,17.3994
			c0,0.7757,1.3499,1.4046,3.0148,1.4046c1.6654,0,3.0152-0.6289,3.0152-1.4046"/>
		<path fill="none" stroke="#000000" stroke-linecap="round" stroke-linejoin="round" d="M1.5808,19.1629
			c0,0.7757,1.3499,1.4046,3.0148,1.4046c1.6654,0,3.0152-0.6289,3.0152-1.4046"/>
		<path fill="none" stroke="#000000" stroke-linecap="round" stroke-linejoin="round" d="M7.6108,6.7887v14.1376
			c0,0.7757-1.3498,1.4046-3.0152,1.4046c-1.6649,0-3.0148-0.6289-3.0148-1.4046l0-14.1376"/>
		
			<ellipse fill="none" stroke="#000000" stroke-linecap="round" stroke-linejoin="round" cx="4.5958" cy="6.7887" rx="3.015" ry="1.4047"/>
	</g>
	<g>
		<path fill="none" stroke="#000000" stroke-linecap="round" stroke-linejoin="round" d="M9.5253,14.8818
			c0,0.7757,1.3499,1.4046,3.0148,1.4046c1.6654,0,3.0152-0.6289,3.0152-1.4046"/>
		<path fill="none" stroke="#000000" stroke-linecap="round" stroke-linejoin="round" d="M9.5253,16.6452
			c0,0.7757,1.3499,1.4046,3.0148,1.4046c1.6654,0,3.0152-0.6289,3.0152-1.4046"/>
		<path fill="none" stroke="#000000" stroke-linecap="round" stroke-linejoin="round" d="M9.5253,18.4087
			c0,0.7757,1.3499,1.4046,3.0148,1.4046c1.6654,0,3.0152-0.6289,3.0152-1.4046"/>
		<path fill="none" stroke="#000000" stroke-linecap="round" stroke-linejoin="round" d="M9.5253,20.1722
			c0,0.7757,1.3499,1.4046,3.0148,1.4046c1.6654,0,3.0152-0.6289,3.0152-1.4046"/>
		<path fill="none" stroke="#000000" stroke-linecap="round" stroke-linejoin="round" d="M15.5553,13.0884v8.8472
			c0,0.7757-1.3498,1.4046-3.0152,1.4046c-1.6649,0-3.0148-0.6289-3.0148-1.4046l0-8.8472"/>
		
			<ellipse fill="none" stroke="#000000" stroke-linecap="round" stroke-linejoin="round" cx="12.5403" cy="13.0884" rx="3.015" ry="1.4047"/>
	</g>
	<path fill="none" stroke="#000000" stroke-linecap="round" stroke-linejoin="round" stroke-miterlimit="10" d="M12.7807,8.2198
		c0.3558,0.4085,0.9432,0.7596,1.3937,0.8222c0.7208,0.1,1.3761-0.3297,1.4635-0.96c0.0875-0.6302-0.4932-1.0286-1.1468-1.3223
		c-0.6753-0.3193-1.2342-0.692-1.1468-1.3223c0.0875-0.6302,0.7427-1.06,1.4635-0.96c0.4854,0.0674,0.8767,0.3578,1.0538,0.7327"/>
	
		<line fill="none" stroke="#000000" stroke-linecap="round" stroke-linejoin="round" stroke-miterlimit="10" x1="14.8945" y1="3.8539" x2="14.808" y2="4.4775"/>
	
		<line fill="none" stroke="#000000" stroke-linecap="round" stroke-linejoin="round" stroke-miterlimit="10" x1="14.1744" y1="9.042" x2="14.0879" y2="9.6655"/>
</g>
<rect x="-0.0137" y="0" fill="none" width="24" height="24"/>
</svg>
