<?xml version="1.0" encoding="utf-8"?>
<!-- Generator: Adobe Illustrator 18.1.0, SVG Export Plug-In . SVG Version: 6.00 Build 0)  -->
<svg version="1.1" id="Layer_1" xmlns="http://www.w3.org/2000/svg" xmlns:xlink="http://www.w3.org/1999/xlink" x="0px" y="0px"
	 width="24px" height="24px" viewBox="0 0 24 24" enable-background="new 0 0 24 24" xml:space="preserve">
<g>
	
		<line fill="none" stroke="#000000" stroke-linecap="round" stroke-linejoin="round" stroke-miterlimit="10" x1="11.9992" y1="23.3159" x2="11.9992" y2="6.2766"/>
	
		<line fill="none" stroke="#000000" stroke-linecap="round" stroke-linejoin="round" stroke-miterlimit="10" x1="11.9992" y1="10.8494" x2="13.8506" y2="9.2026"/>
	
		<line fill="none" stroke="#000000" stroke-linecap="round" stroke-linejoin="round" stroke-miterlimit="10" x1="11.9992" y1="14.4034" x2="14.732" y2="11.9725"/>
	
		<line fill="none" stroke="#000000" stroke-linecap="round" stroke-linejoin="round" stroke-miterlimit="10" x1="11.9992" y1="8.9679" x2="10.3396" y2="7.4917"/>
	
		<line fill="none" stroke="#000000" stroke-linecap="round" stroke-linejoin="round" stroke-miterlimit="10" x1="11.9992" y1="12.5219" x2="9.5437" y2="10.3378"/>
	
		<line fill="none" stroke="#000000" stroke-linecap="round" stroke-linejoin="round" stroke-miterlimit="10" x1="11.9992" y1="16.0759" x2="9.0718" y2="13.472"/>
	<path fill="none" stroke="#000000" stroke-linecap="round" stroke-linejoin="round" stroke-miterlimit="10" d="M15.0648,17.7066
		c-1.9345,0.9432-4.1968,0.9432-6.1313,0c-2.1489-1.0477-4.3697-2.8848-2.7396-8.1136c1.7131-5.4951,4.2556-7.825,5.3146-8.596
		c0.2934-0.2137,0.6879-0.2137,0.9813,0c1.059,0.7711,3.6015,3.101,5.3146,8.596C19.4346,14.8218,17.2137,16.6589,15.0648,17.7066z"
		/>
</g>
<rect x="-0.0008" y="-0.0147" fill="none" width="24" height="24"/>
</svg>
