<?xml version="1.0" encoding="utf-8"?>
<!-- Generator: Adobe Illustrator 18.1.0, SVG Export Plug-In . SVG Version: 6.00 Build 0)  -->
<svg version="1.1" id="Layer_1" xmlns="http://www.w3.org/2000/svg" xmlns:xlink="http://www.w3.org/1999/xlink" x="0px" y="0px"
	 width="24px" height="24px" viewBox="0 0 24 24" enable-background="new 0 0 24 24" xml:space="preserve">
<g>
	<path fill="none" stroke="#000000" stroke-linecap="round" stroke-linejoin="round" stroke-miterlimit="10" d="M20.5685,23.4016
		v-5.8938h2.8771l-2.2351-5.6002l0.4399-2.3288c0.1276-3.8941-0.1776-3.673-0.2366-3.7249
		c-0.1567-0.0463-0.3211-0.0726-0.4935-0.0726l-1.365,1.4739l-1.365-1.4739c-0.1724,0-0.3367,0.0262-0.4935,0.0726
		c-0.059,0.052-0.3642-0.1692-0.2366,3.7249l0.4399,2.3288l-2.2351,5.6002h2.8771v5.8938"/>
	
		<line fill="none" stroke="#000000" stroke-linecap="round" stroke-linejoin="round" stroke-miterlimit="10" x1="4.4931" y1="23.4817" x2="4.4934" y2="15.535"/>
	<path fill="none" stroke="#000000" stroke-linecap="round" stroke-linejoin="round" stroke-miterlimit="10" d="M5.931,2.154
		c0,0.794-0.6436,1.9027-1.4376,1.9027S3.0558,2.948,3.0558,2.154s0.6436-1.4376,1.4376-1.4376S5.931,1.36,5.931,2.154z"/>
	<path fill="none" stroke="#000000" stroke-linecap="round" stroke-linejoin="round" stroke-miterlimit="10" d="M12.6936,13.3561
		c0,0.6562-0.532,1.5725-1.1882,1.5725s-1.1882-0.9163-1.1882-1.5725s0.532-1.1882,1.1882-1.1882S12.6936,12.6998,12.6936,13.3561z"
		/>
	<path fill="none" stroke="#000000" stroke-linecap="round" stroke-linejoin="round" stroke-miterlimit="10" d="M20.9203,2.3718
		c0,0.794-0.6111,1.9027-1.365,1.9027s-1.365-1.1087-1.365-1.9027s0.6111-1.4376,1.365-1.4376S20.9203,1.5779,20.9203,2.3718z"/>
	<path fill="none" stroke="#000000" stroke-linecap="round" stroke-linejoin="round" stroke-miterlimit="10" d="M2.6328,23.4817
		L2.0646,13.615c-0.0083-0.2066-0.6718,0.0623-0.6791-0.1336c-0.2702-7.233,0.3312-7.7954,0.3991-7.8523
		c0.08-0.0224,0.7362-0.0401,0.9325-0.0525C2.9826,5.56,3.2115,5.7221,3.3334,5.9586c0.4323,0.8385,1.8878,0.8385,2.3201,0
		C5.7753,5.7221,6.0042,5.56,6.2697,5.5767c0.1964,0.0123,0.8525,0.0301,0.9325,0.0525c0.0679,0.0569,0.6693,0.6193,0.3991,7.8523
		c-0.0073,0.1959-0.6708-0.0731-0.6791,0.1336l-0.5687,9.8667"/>
	<path fill="none" stroke="#000000" stroke-linecap="round" stroke-linejoin="round" stroke-miterlimit="10" d="M13.3509,19.1275
		c0,1.3356-0.8263,4.278-1.8455,4.278s-1.8455-2.9425-1.8455-4.278s0.8263-2.4183,1.8455-2.4183S13.3509,17.7919,13.3509,19.1275z"
		/>
</g>
<rect x="0.0142" y="0.0344" fill="none" width="24" height="24"/>
</svg>
