<?xml version="1.0" encoding="utf-8"?>
<!-- Generator: Adobe Illustrator 18.1.0, SVG Export Plug-In . SVG Version: 6.00 Build 0)  -->
<svg version="1.1" id="Layer_1" xmlns="http://www.w3.org/2000/svg" xmlns:xlink="http://www.w3.org/1999/xlink" x="0px" y="0px"
	 width="24px" height="24px" viewBox="0 0 24 24" enable-background="new 0 0 24 24" xml:space="preserve">
<g>
	<polyline fill="none" stroke="#000000" stroke-linecap="round" stroke-linejoin="round" stroke-miterlimit="10" points="
		6.0142,14.5346 8.1801,14.5346 9.4186,8.7049 11.2374,17.6823 12.3243,12.3527 13.2982,14.5346 18.0142,14.5346 	"/>
	<circle fill="none" stroke="#000000" stroke-linecap="round" stroke-linejoin="round" cx="11.9727" cy="12.0173" r="8.5093"/>
	<polyline fill="none" stroke="#000000" stroke-linecap="round" stroke-linejoin="round" points="16.5323,19.2188 16.3527,23.5346 
		7.5118,23.5346 7.3322,19.2271 	"/>
	<polyline fill="none" stroke="#000000" stroke-linecap="round" stroke-linejoin="round" points="7.3321,4.8818 7.5117,0.5346 
		16.3527,0.5346 16.5323,4.8287 	"/>
	<polyline fill="none" stroke="#000000" stroke-linecap="round" stroke-linejoin="round" points="20.482,10.5346 22.5143,10.5346 
		22.5143,13.5346 20.482,13.5346 	"/>
	<path fill="none" stroke="#000000" stroke-linecap="round" stroke-linejoin="round" stroke-miterlimit="10" d="M15.1169,8.031
		c-0.9999-1.3145-2.9059,0.238-1.9336,1.413c0.0958,0.1132,1.7636,2.1523,1.9113,2.1532c0.1486,0,1.8243-1.9977,1.9217-2.11
		C18.0567,8.2447,16.109,6.7272,15.1169,8.031z"/>
</g>
<rect x="0.0142" y="0.0346" fill="none" width="24" height="24"/>
</svg>
