<?xml version="1.0" encoding="utf-8"?>
<!-- Generator: Adobe Illustrator 18.1.0, SVG Export Plug-In . SVG Version: 6.00 Build 0)  -->
<svg version="1.1" id="Layer_1" xmlns="http://www.w3.org/2000/svg" xmlns:xlink="http://www.w3.org/1999/xlink" x="0px" y="0px"
	 width="24px" height="24px" viewBox="0 0 24 24" enable-background="new 0 0 24 24" xml:space="preserve">
<g>
	<g>
		
			<line fill="none" stroke="#000000" stroke-linecap="round" stroke-linejoin="round" x1="11.5632" y1="2.3323" x2="11.5632" y2="5.6026"/>
		
			<line fill="none" stroke="#000000" stroke-linecap="round" stroke-linejoin="round" x1="10.1471" y1="3.1499" x2="12.9792" y2="4.785"/>
		
			<line fill="none" stroke="#000000" stroke-linecap="round" stroke-linejoin="round" x1="10.1471" y1="4.785" x2="12.9792" y2="3.1499"/>
	</g>
	<g>
		
			<line fill="none" stroke="#000000" stroke-linecap="round" stroke-linejoin="round" x1="16.5635" y1="2.3323" x2="16.5635" y2="5.6026"/>
		
			<line fill="none" stroke="#000000" stroke-linecap="round" stroke-linejoin="round" x1="15.1474" y1="3.1499" x2="17.9795" y2="4.785"/>
		
			<line fill="none" stroke="#000000" stroke-linecap="round" stroke-linejoin="round" x1="15.1474" y1="4.785" x2="17.9795" y2="3.1499"/>
	</g>
	<g>
		
			<line fill="none" stroke="#000000" stroke-linecap="round" stroke-linejoin="round" x1="21.5638" y1="2.3323" x2="21.5638" y2="5.6026"/>
		
			<line fill="none" stroke="#000000" stroke-linecap="round" stroke-linejoin="round" x1="20.1478" y1="3.1499" x2="22.9798" y2="4.785"/>
		
			<line fill="none" stroke="#000000" stroke-linecap="round" stroke-linejoin="round" x1="20.1478" y1="4.785" x2="22.9798" y2="3.1499"/>
	</g>
	
		<line fill="none" stroke="#000000" stroke-linecap="round" stroke-linejoin="round" x1="7.5629" y1="10.0616" x2="7.5629" y2="13.1711"/>
	
		<line fill="none" stroke="#000000" stroke-linecap="round" stroke-linejoin="round" stroke-miterlimit="10" x1="10.5134" y1="10.9134" x2="10.5134" y2="13.5848"/>
	<path fill="none" stroke="#000000" stroke-linecap="round" stroke-linejoin="round" d="M13.4639,12.6741l0.0001-1.7607
		c0-1.6978-2.9505-1.6939-2.9505,0v-0.8518c0-1.6978-2.9505-1.6939-2.9505,0V4.8749c0-1.6985-2.9505-1.6938-2.9505,0v11.9225
		c0,0,0.0239-4.4252-1.9834-2.6395c-2.0491,1.8229,0.6784,6.9554,2.7302,7.8113"/>
	<path fill="none" stroke="#000000" stroke-linecap="round" stroke-linejoin="round" d="M14.8491,21.9691
		c1.7897-4.5203,1.5653-9.2948,1.5653-9.2948c0-1.7106-2.9505-1.6688-2.9505,0v1.3729"/>
</g>
<rect x="0.0293" fill="none" width="24" height="24"/>
</svg>
