<?xml version="1.0" encoding="utf-8"?>
<!-- Generator: Adobe Illustrator 18.1.0, SVG Export Plug-In . SVG Version: 6.00 Build 0)  -->
<svg version="1.1" id="Layer_1" xmlns="http://www.w3.org/2000/svg" xmlns:xlink="http://www.w3.org/1999/xlink" x="0px" y="0px"
	 width="24px" height="24px" viewBox="0 0 24 24" enable-background="new 0 0 24 24" xml:space="preserve">
<g>
	<g>
		<polyline fill="none" stroke="#000000" stroke-linecap="round" stroke-linejoin="round" points="21.4984,9.7176 21.4984,23.5031 
			0.4983,23.5031 		"/>
		<polyline fill="none" stroke="#000000" stroke-linecap="round" stroke-linejoin="round" stroke-miterlimit="10" points="
			20.4984,8.7907 20.4984,2.5031 15.4984,2.5031 15.4984,4.5411 		"/>
		<polyline fill="none" stroke="#000000" stroke-linecap="round" stroke-linejoin="round" points="3.5488,8.3682 11.9984,1.5353 
			23.4482,11.3684 		"/>
	</g>
	<g>
		
			<line fill="none" stroke="#000000" stroke-linecap="round" stroke-linejoin="round" stroke-miterlimit="10" x1="7.9442" y1="11.3924" x2="7.9442" y2="15.5383"/>
		
			<line fill="none" stroke="#000000" stroke-linecap="round" stroke-linejoin="round" x1="4.6532" y1="19.8016" x2="4.6532" y2="19.8016"/>
		
			<line fill="none" stroke="#000000" stroke-linecap="round" stroke-linejoin="round" x1="15.2763" y1="19.8016" x2="15.2763" y2="19.8016"/>
		<g>
			
				<line fill="none" stroke="#000000" stroke-linecap="round" stroke-linejoin="round" stroke-miterlimit="10" x1="7.9589" y1="19.8016" x2="12.0097" y2="19.8016"/>
			<g>
				
					<ellipse fill="none" stroke="#000000" stroke-linecap="round" stroke-linejoin="round" cx="4.6532" cy="19.8016" rx="1.5933" ry="1.6465"/>
				
					<ellipse fill="none" stroke="#000000" stroke-linecap="round" stroke-linejoin="round" cx="15.2763" cy="19.8016" rx="1.5933" ry="1.6465"/>
				<path fill="none" stroke="#000000" stroke-linecap="round" stroke-linejoin="round" stroke-miterlimit="10" d="M18.5193,19.8016
					h0.7089c-0.0701-4.2261-3.341-4.1727-4.5467-4.2633c-0.1947-0.0146-0.2425-0.1433-0.2912-0.3381
					c-0.2553-1.0217-1.3157-3.8409-5.1274-3.8207c-0.0977,0.0005-0.9716,0-1.0665,0.0029c-4.5544,0.1386-5.1681,2.9134-5.246,3.8639
					c-0.0152,0.1861-0.1528,0.3187-0.3273,0.3693c-2.0137,0.5847-1.9315,4.1859-1.9315,4.1859h0.5721"/>
			</g>
		</g>
		
			<line fill="none" stroke="#000000" stroke-linecap="round" stroke-linejoin="round" stroke-miterlimit="10" x1="2.7762" y1="15.5383" x2="14.6815" y2="15.5383"/>
	</g>
</g>
<rect x="-0.0137" y="0" fill="none" width="24" height="24"/>
</svg>
