<?xml version="1.0" encoding="utf-8"?>
<!-- Generator: Adobe Illustrator 18.1.0, SVG Export Plug-In . SVG Version: 6.00 Build 0)  -->
<svg version="1.1" id="Layer_1" xmlns="http://www.w3.org/2000/svg" xmlns:xlink="http://www.w3.org/1999/xlink" x="0px" y="0px"
	 width="24px" height="24px" viewBox="0 0 24 24" enable-background="new 0 0 24 24" xml:space="preserve">
<g>
	<path fill="none" stroke="#000000" stroke-linecap="round" stroke-linejoin="round" stroke-miterlimit="10" d="M15.3184,20.137
		c-1.1229-0.4394-2.3696-0.9849-2.4743-1.3249v-0.3566c0.233-0.2413,0.4167-0.5778,0.5254-0.9717
		c0.2604-0.1851,0.3267-0.568,0.11-0.8379v-0.7983c0-0.8242-0.4533-1.3883-1.4896-1.3883c-1.0095,0-1.4901,0.5642-1.4901,1.3883
		v0.7986c-0.2164,0.2697-0.1499,0.6523,0.11,0.8375c0.1087,0.3941,0.2926,0.7306,0.5257,0.9719v0.3566
		c-0.1045,0.3396-1.3514,0.8852-2.4743,1.3249c-0.0957,0.0376-0.159,0.1319-0.159,0.2372v0.8919
		c0,0.1401,0.1106,0.2539,0.2471,0.2539h6.4812c0.1364,0,0.2471-0.1138,0.2471-0.2539v-0.8919
		C15.4775,20.2688,15.4141,20.1743,15.3184,20.137z"/>
	<path fill="none" stroke="#000000" stroke-linecap="round" stroke-linejoin="round" stroke-miterlimit="10" d="M23.3189,9.1363
		c-1.1229-0.4394-2.3696-0.9849-2.4743-1.3249V7.4548c0.233-0.2413,0.4167-0.5778,0.5254-0.9717
		c0.2604-0.1851,0.3267-0.568,0.11-0.8379V4.8468c0-0.8242-0.4533-1.3883-1.4896-1.3883c-1.0095,0-1.4901,0.5642-1.4901,1.3883
		v0.7986c-0.2164,0.2697-0.1499,0.6523,0.11,0.8375c0.1087,0.3941,0.2926,0.7306,0.5257,0.9719v0.3566
		c-0.1045,0.3396-1.3514,0.8852-2.4743,1.3249c-0.0957,0.0376-0.159,0.1319-0.159,0.2372v0.8919
		c0,0.1401,0.1106,0.2539,0.2471,0.2539h6.4812c0.1364,0,0.2471-0.1138,0.2471-0.2539V9.3735
		C23.478,9.2681,23.4146,9.1736,23.3189,9.1363z"/>
	<path fill="none" stroke="#000000" stroke-linecap="round" stroke-linejoin="round" stroke-miterlimit="10" d="M7.3179,9.1363
		C6.195,8.6969,4.9484,8.1514,4.8436,7.8114V7.4548C5.0766,7.2135,5.2603,6.877,5.369,6.4831
		c0.2604-0.1851,0.3267-0.568,0.11-0.8379V4.8468c0-0.8242-0.4533-1.3883-1.4896-1.3883c-1.0095,0-1.4901,0.5642-1.4901,1.3883
		v0.7986c-0.2164,0.2697-0.1499,0.6523,0.11,0.8375C2.718,6.877,2.9019,7.2135,3.135,7.4548v0.3566
		C3.0305,8.1509,1.7836,8.6966,0.6607,9.1363c-0.0957,0.0376-0.159,0.1319-0.159,0.2372v0.8919
		c0,0.1401,0.1106,0.2539,0.2471,0.2539h6.4812c0.1364,0,0.2471-0.1138,0.2471-0.2539V9.3735
		C7.477,9.2681,7.4136,9.1736,7.3179,9.1363z"/>
	<path fill="none" stroke="#000000" stroke-linecap="round" stroke-linejoin="round" stroke-miterlimit="10" d="M16.4566,3.6039
		c-1.2768-0.7432-2.7598-1.1709-4.3435-1.1709S9.0463,2.8607,7.7695,3.6039"/>
	<path fill="none" stroke="#000000" stroke-linecap="round" stroke-linejoin="round" stroke-miterlimit="10" d="M16.882,18.2937
		c2.0776-1.3768,3.5281-3.6233,3.8239-6.223C20.41,14.6704,18.9596,16.9169,16.882,18.2937"/>
	<path fill="none" stroke="#000000" stroke-linecap="round" stroke-linejoin="round" stroke-miterlimit="10" d="M7.3442,18.2937
		c-2.0776-1.3768-3.528-3.6233-3.8239-6.223C3.8162,14.6704,5.2666,16.9169,7.3442,18.2937"/>
</g>
<rect x="0.0005" y="0.0004" fill="none" width="24" height="24"/>
</svg>
