<?xml version="1.0" encoding="utf-8"?>
<!-- Generator: Adobe Illustrator 18.1.0, SVG Export Plug-In . SVG Version: 6.00 Build 0)  -->
<svg version="1.1" id="Layer_1" xmlns="http://www.w3.org/2000/svg" xmlns:xlink="http://www.w3.org/1999/xlink" x="0px" y="0px"
	 width="24px" height="24px" viewBox="0 0 24 24" enable-background="new 0 0 24 24" xml:space="preserve">
<g>
	<path fill="none" stroke="#000000" stroke-linecap="round" stroke-linejoin="round" d="M12.3924,5.6814
		c0.6766,0.4744,1.8642,1.6624,2.3254,2.7835c0.7373,1.7923,0.6314,3.7425-1.5158,2.8185c-0.1799-0.0774-0.3232-0.2242-0.387-0.4094
		l-1.3156-3.8201c-0.5471-1.6552-3.028-0.8333-2.459,0.8881l1.8784,5.6834c0.2985,0.9032,1.8061,3.4087,3.8337,5.5337"/>
	
		<rect x="16.0104" y="15.5148" transform="matrix(-0.5677 -0.8232 0.8232 -0.5677 12.3836 45.2514)" fill="none" stroke="#000000" stroke-linecap="round" stroke-linejoin="round" width="4.1242" height="7.7192"/>
	<path fill="none" stroke="#000000" stroke-linecap="round" stroke-linejoin="round" d="M9.4665,9.2308
		C9.0509,9.3623,8.5272,9.4633,8.0681,9.4633c-2.4097,0-4.3632-1.9535-4.3632-4.3632s1.9535-4.3632,4.3632-4.3632
		s4.3632,1.9535,4.3632,4.3632c0,0.8445-0.3567,1.7494-0.7722,2.4174"/>
	<path fill="none" stroke="#000000" stroke-linecap="round" stroke-linejoin="round" d="M11.2288,2.0926
		c0,0,7.477,2.499,7.4313,8.4511s0.3124,5.7051,0.3124,5.7051"/>
</g>
<rect x="-0.0136" y="0" fill="none" width="24" height="24"/>
</svg>
