<?xml version="1.0" encoding="utf-8"?>
<!-- Generator: Adobe Illustrator 18.1.0, SVG Export Plug-In . SVG Version: 6.00 Build 0)  -->
<svg version="1.1" id="Layer_1" xmlns="http://www.w3.org/2000/svg" xmlns:xlink="http://www.w3.org/1999/xlink" x="0px" y="0px"
	 width="24px" height="24px" viewBox="0 0 24 24" enable-background="new 0 0 24 24" xml:space="preserve">
<g>
	<path fill="none" stroke="#000000" stroke-linecap="round" stroke-linejoin="round" d="M11.9673,20.3146v3.0371
		c-0.4835-3.3602-11.4925-2.3749-11.4925-2.3749c0-0.0047,0-19.355,0-19.355s0.7825,0.0541,2.038,0.2061"/>
	<path fill="none" stroke="#000000" stroke-linecap="round" stroke-linejoin="round" d="M11.9673,23.3517
		c0.4835-3.3602,11.4925-2.3749,11.4925-2.3749c0-0.0047,0-19.355,0-19.355s-0.8172,0.0523-2.038,0.1984"/>
	<path fill="none" stroke="#000000" stroke-linecap="round" stroke-linejoin="round" d="M11.9673,20.3146
		c-0.3978-2.6883-9.4545-1.9001-9.4545-1.9001c0-0.0037,0-17.6765,0-17.6765s9.0568,0.5515,9.4545,3.2398
		C11.9673,3.9817,11.9673,20.3146,11.9673,20.3146z"/>
	<path fill="none" stroke="#000000" stroke-linecap="round" stroke-linejoin="round" d="M11.9673,20.3146
		c0.3978-2.6883,9.4545-1.9001,9.4545-1.9001c0-0.0037,0-17.6765,0-17.6765s-9.0568,0.5515-9.4545,3.2398
		C11.9673,3.9817,11.9673,20.3146,11.9673,20.3146z"/>
</g>
<rect x="0" y="0" fill="none" width="24" height="24"/>
</svg>
