<?xml version="1.0" encoding="utf-8"?>
<!-- Generator: Adobe Illustrator 18.1.0, SVG Export Plug-In . SVG Version: 6.00 Build 0)  -->
<svg version="1.1" id="Layer_1" xmlns="http://www.w3.org/2000/svg" xmlns:xlink="http://www.w3.org/1999/xlink" x="0px" y="0px"
	 width="24px" height="24px" viewBox="0 0 24 24" enable-background="new 0 0 24 24" xml:space="preserve">
<g>
	<polyline fill="none" stroke="#000000" stroke-linecap="round" stroke-linejoin="round" points="18.5,10.5 23.5,10.4864 23.5,23.5 
		0.5,23.5 0.5,10.4864 5.5,10.4864 	"/>
	<path fill="none" stroke="#000000" stroke-linecap="round" stroke-linejoin="round" stroke-miterlimit="10" d="M5.5,13.4678V4.0332
		C5.5,3.7166,5.7453,3.5,6.0621,3.5h9.5133c0.1507,0,0.2952,0.0391,0.4023,0.1448l2.3774,2.359
		C18.4641,6.1114,18.5,6.2485,18.5,6.4019v7.0659"/>
	<path fill="none" stroke="#000000" stroke-linecap="round" stroke-linejoin="round" stroke-miterlimit="10" d="M8.5,6.5v3.025
		c0,1.0616,0.9384,1.9229,2.0002,1.9228C11.5619,11.4476,12.5,10.5866,12.5,9.525V2.0928c0-0.7961-0.7036-1.4419-1.4998-1.4421
		C10.2034,0.6507,9.5,1.2969,9.5,2.0932V3.5"/>
	<polyline fill="none" stroke="#000000" stroke-linecap="round" stroke-linejoin="round" stroke-miterlimit="10" points="
		15.4924,3.5 15.4924,6.5 18.5,6.5 	"/>
	<polyline fill="none" stroke="#000000" stroke-linecap="round" stroke-linejoin="round" points="0.5,10.4864 11.9811,17.39 
		23.5,10.4864 	"/>
</g>
<rect x="0" y="0" fill="none" width="24" height="24"/>
</svg>
