<?xml version="1.0" encoding="utf-8"?>
<!-- Generator: Adobe Illustrator 18.1.0, SVG Export Plug-In . SVG Version: 6.00 Build 0)  -->
<svg version="1.1" id="Layer_1" xmlns="http://www.w3.org/2000/svg" xmlns:xlink="http://www.w3.org/1999/xlink" x="0px" y="0px"
	 width="24px" height="24px" viewBox="0 0 24 24" enable-background="new 0 0 24 24" xml:space="preserve">
<g>
	<path fill="none" stroke="#000000" stroke-linecap="round" stroke-linejoin="round" stroke-miterlimit="10" d="M1.2266,0.7491
		l1.0896,2.2513c0,0,1.3856,2.606,5.0279,0.272c1.9692-1.2619,3.0968,0.9542,3.0968,0.9542"/>
	<path fill="none" stroke="#000000" stroke-linecap="round" stroke-linejoin="round" d="M22.8399,15.8748
		c1.1201,2.5001,0.4963,5.3022-2.1465,6.7792l0,0c-2.6429,1.4767-5.407,0.5151-6.8978-1.7252l-4.784-7.944
		c-1.3122-2.3484-0.2334-5.4486,2.4086-6.9257l0,0c2.6429-1.4768,5.8487-0.7703,7.1614,1.5782L22.8399,15.8748z"/>
	
		<line fill="none" stroke="#000000" stroke-linecap="round" stroke-linejoin="round" stroke-miterlimit="10" x1="12.8775" y1="8.6661" x2="14.5493" y2="11.6579"/>
</g>
<rect x="0" y="0" fill="none" width="24" height="24"/>
</svg>
