<?xml version="1.0" encoding="utf-8"?>
<!-- Generator: Adobe Illustrator 18.1.0, SVG Export Plug-In . SVG Version: 6.00 Build 0)  -->
<svg version="1.1" id="Layer_1" xmlns="http://www.w3.org/2000/svg" xmlns:xlink="http://www.w3.org/1999/xlink" x="0px" y="0px"
	 width="24px" height="24px" viewBox="0 0 24 24" enable-background="new 0 0 24 24" xml:space="preserve">
<g>
	<rect x="0.5" y="6.5" fill="none" stroke="#000000" stroke-linecap="round" stroke-linejoin="round" width="23" height="17"/>
	<line fill="none" stroke="#000000" x1="11.1093" y1="2.7987" x2="7.0661" y2="6.3959"/>
	<line fill="none" stroke="#000000" x1="12.9939" y1="2.711" x2="16.934" y2="6.3959"/>
	<circle fill="none" stroke="#000000" cx="11.9999" cy="1.8989" r="1.2723"/>
	<line fill="none" stroke="#000000" stroke-linecap="round" stroke-linejoin="round" x1="0.5" y1="9.5" x2="23.5" y2="9.5"/>
	
		<line fill="none" stroke="#000000" stroke-linecap="round" stroke-linejoin="round" stroke-miterlimit="10" x1="4.557" y1="20.45" x2="5.4918" y2="20.45"/>
	
		<line fill="none" stroke="#000000" stroke-linecap="round" stroke-linejoin="round" stroke-miterlimit="10" x1="7.5987" y1="20.45" x2="8.5336" y2="20.45"/>
	
		<line fill="none" stroke="#000000" stroke-linecap="round" stroke-linejoin="round" stroke-miterlimit="10" x1="10.5346" y1="20.45" x2="11.4694" y2="20.45"/>
	
		<line fill="none" stroke="#000000" stroke-linecap="round" stroke-linejoin="round" stroke-miterlimit="10" x1="13.5349" y1="20.45" x2="14.4697" y2="20.45"/>
	
		<line fill="none" stroke="#000000" stroke-linecap="round" stroke-linejoin="round" stroke-miterlimit="10" x1="4.557" y1="18.4498" x2="5.4918" y2="18.4498"/>
	
		<line fill="none" stroke="#000000" stroke-linecap="round" stroke-linejoin="round" stroke-miterlimit="10" x1="7.5987" y1="18.4498" x2="8.5336" y2="18.4498"/>
	
		<line fill="none" stroke="#000000" stroke-linecap="round" stroke-linejoin="round" stroke-miterlimit="10" x1="10.5346" y1="18.4498" x2="11.4694" y2="18.4498"/>
	
		<line fill="none" stroke="#000000" stroke-linecap="round" stroke-linejoin="round" stroke-miterlimit="10" x1="13.5349" y1="18.4498" x2="14.4697" y2="18.4498"/>
	
		<line fill="none" stroke="#000000" stroke-linecap="round" stroke-linejoin="round" stroke-miterlimit="10" x1="16.5352" y1="18.4498" x2="17.47" y2="18.4498"/>
	
		<line fill="none" stroke="#000000" stroke-linecap="round" stroke-linejoin="round" stroke-miterlimit="10" x1="19.5355" y1="18.4498" x2="20.4703" y2="18.4498"/>
	
		<line fill="none" stroke="#000000" stroke-linecap="round" stroke-linejoin="round" stroke-miterlimit="10" x1="4.557" y1="16.4496" x2="5.4918" y2="16.4496"/>
	
		<line fill="none" stroke="#000000" stroke-linecap="round" stroke-linejoin="round" stroke-miterlimit="10" x1="7.5987" y1="16.4496" x2="8.5336" y2="16.4496"/>
	
		<line fill="none" stroke="#000000" stroke-linecap="round" stroke-linejoin="round" stroke-miterlimit="10" x1="10.5346" y1="16.4496" x2="11.4694" y2="16.4496"/>
	
		<line fill="none" stroke="#000000" stroke-linecap="round" stroke-linejoin="round" stroke-miterlimit="10" x1="13.5349" y1="16.4496" x2="14.4697" y2="16.4496"/>
	
		<line fill="none" stroke="#000000" stroke-linecap="round" stroke-linejoin="round" stroke-miterlimit="10" x1="16.5352" y1="16.4496" x2="17.47" y2="16.4496"/>
	
		<line fill="none" stroke="#000000" stroke-linecap="round" stroke-linejoin="round" stroke-miterlimit="10" x1="19.5355" y1="16.4496" x2="20.4703" y2="16.4496"/>
	
		<line fill="none" stroke="#000000" stroke-linecap="round" stroke-linejoin="round" stroke-miterlimit="10" x1="4.557" y1="14.4494" x2="5.4918" y2="14.4494"/>
	
		<line fill="none" stroke="#000000" stroke-linecap="round" stroke-linejoin="round" stroke-miterlimit="10" x1="7.5987" y1="14.4494" x2="8.5336" y2="14.4494"/>
	
		<line fill="none" stroke="#000000" stroke-linecap="round" stroke-linejoin="round" stroke-miterlimit="10" x1="10.5346" y1="14.4494" x2="11.4694" y2="14.4494"/>
	
		<line fill="none" stroke="#000000" stroke-linecap="round" stroke-linejoin="round" stroke-miterlimit="10" x1="13.5349" y1="14.4494" x2="14.4697" y2="14.4494"/>
	
		<line fill="none" stroke="#000000" stroke-linecap="round" stroke-linejoin="round" stroke-miterlimit="10" x1="16.5352" y1="14.4494" x2="17.47" y2="14.4494"/>
	
		<line fill="none" stroke="#000000" stroke-linecap="round" stroke-linejoin="round" stroke-miterlimit="10" x1="19.5355" y1="14.4494" x2="20.4703" y2="14.4494"/>
	
		<line fill="none" stroke="#000000" stroke-linecap="round" stroke-linejoin="round" stroke-miterlimit="10" x1="13.5349" y1="12.4492" x2="14.4697" y2="12.4492"/>
	
		<line fill="none" stroke="#000000" stroke-linecap="round" stroke-linejoin="round" stroke-miterlimit="10" x1="16.5352" y1="12.4492" x2="17.47" y2="12.4492"/>
	
		<line fill="none" stroke="#000000" stroke-linecap="round" stroke-linejoin="round" stroke-miterlimit="10" x1="19.5355" y1="12.4492" x2="20.4703" y2="12.4492"/>
</g>
<rect x="0" y="0" fill="none" width="24" height="24"/>
</svg>
