<?xml version="1.0" encoding="utf-8"?>
<!-- Generator: Adobe Illustrator 18.1.0, SVG Export Plug-In . SVG Version: 6.00 Build 0)  -->
<svg version="1.1" id="Layer_1" xmlns="http://www.w3.org/2000/svg" xmlns:xlink="http://www.w3.org/1999/xlink" x="0px" y="0px"
	 width="24px" height="24px" viewBox="0 0 24 24" enable-background="new 0 0 24 24" xml:space="preserve">
<g>
	<path fill="none" stroke="#000000" stroke-linecap="round" stroke-linejoin="round" stroke-miterlimit="10" d="M8.04,16.5011
		H5.2047c-2.4934,0-4.5147-2.0058-4.5147-4.4851v-0.0128c0-2.4793,2.0213-4.502,4.5147-4.502H8.04"/>
	<path fill="none" stroke="#000000" stroke-linecap="round" stroke-linejoin="round" stroke-miterlimit="10" d="M15.96,16.5011
		h2.8353c2.4934,0,4.5147-2.0058,4.5147-4.4851v-0.0128c0-2.4793-2.0213-4.502-4.5147-4.502H15.96"/>
	
		<line fill="none" stroke="#000000" stroke-linecap="round" stroke-linejoin="round" stroke-miterlimit="10" x1="9.9836" y1="6.0893" x2="8.2088" y2="2.8327"/>
	
		<line fill="none" stroke="#000000" stroke-linecap="round" stroke-linejoin="round" stroke-miterlimit="10" x1="12.0174" y1="5.3477" x2="12.0174" y2="1.876"/>
	
		<line fill="none" stroke="#000000" stroke-linecap="round" stroke-linejoin="round" stroke-miterlimit="10" x1="14.0164" y1="6.0893" x2="15.7913" y2="2.8327"/>
	
		<line fill="none" stroke="#000000" stroke-linecap="round" stroke-linejoin="round" stroke-miterlimit="10" x1="9.9836" y1="17.877" x2="8.2088" y2="21.1337"/>
	
		<line fill="none" stroke="#000000" stroke-linecap="round" stroke-linejoin="round" stroke-miterlimit="10" x1="12.0174" y1="18.6186" x2="12.0174" y2="22.0903"/>
	
		<line fill="none" stroke="#000000" stroke-linecap="round" stroke-linejoin="round" stroke-miterlimit="10" x1="14.0164" y1="17.877" x2="15.7913" y2="21.1337"/>
</g>
<rect x="0" y="0.0011" fill="none" width="24" height="24"/>
</svg>
