<?xml version="1.0" encoding="utf-8"?>
<!-- Generator: Adobe Illustrator 18.1.0, SVG Export Plug-In . SVG Version: 6.00 Build 0)  -->
<svg version="1.1" id="Layer_1" xmlns="http://www.w3.org/2000/svg" xmlns:xlink="http://www.w3.org/1999/xlink" x="0px" y="0px"
	 width="24px" height="24px" viewBox="0 0 24 24" enable-background="new 0 0 24 24" xml:space="preserve">
<g>
	<path fill="none" stroke="#000000" stroke-linecap="round" stroke-linejoin="round" d="M23.2313,11.3887
		c-2.7645-3.0703-6.7692-5.002-11.226-5.002c-4.4568,0-8.4616,1.9317-11.226,5.002l7.3707,7.9111
		c0.9494-1.0544,2.3247-1.7178,3.8553-1.7178c1.5306,0,2.9059,0.6634,3.8553,1.7178L23.2313,11.3887z"/>
	
		<circle fill="none" stroke="#000000" stroke-linecap="round" stroke-linejoin="round" stroke-miterlimit="10" cx="11.9803" cy="21.5397" r="0.8516"/>
	
		<line fill="none" stroke="#000000" stroke-linecap="round" stroke-linejoin="round" stroke-miterlimit="10" x1="11.5842" y1="20.7859" x2="5.1038" y2="11.5714"/>
	
		<line fill="none" stroke="#000000" stroke-linecap="round" stroke-linejoin="round" stroke-miterlimit="10" x1="12.4871" y1="14.4083" x2="12.4871" y2="4.673"/>
	<path fill="none" stroke="#000000" stroke-linecap="round" stroke-linejoin="round" stroke-miterlimit="10" d="M5.6612,5.0128
		c0-1.8849,1.528-3.4129,3.4129-3.4129s3.4129,1.528,3.4129,3.4129"/>
	<path fill="none" stroke="#000000" stroke-linecap="round" stroke-linejoin="round" stroke-miterlimit="10" d="M12.4871,5.0128
		c0-1.8849,1.528-3.4129,3.4129-3.4129s3.4129,1.528,3.4129,3.4129"/>
</g>
<rect x="-0.0136" y="0" fill="none" width="24" height="24"/>
</svg>
