<?xml version="1.0" encoding="utf-8"?>
<!-- Generator: Adobe Illustrator 18.1.0, SVG Export Plug-In . SVG Version: 6.00 Build 0)  -->
<svg version="1.1" id="Layer_1" xmlns="http://www.w3.org/2000/svg" xmlns:xlink="http://www.w3.org/1999/xlink" x="0px" y="0px"
	 width="24px" height="24px" viewBox="0 0 24 24" enable-background="new 0 0 24 24" xml:space="preserve">
<g>
	<path fill="none" stroke="#000000" stroke-linecap="round" stroke-linejoin="round" stroke-miterlimit="10" d="M8.0727,0.8376
		C4.5291,0.7212,1.6535,3.6024,1.7698,7.1404"/>
	<path fill="none" stroke="#000000" stroke-linecap="round" stroke-linejoin="round" stroke-miterlimit="10" d="M4.5351,6.8504
		C4.4135,5.002,5.9354,3.4814,7.7826,3.6029"/>
	<path fill="none" stroke="#000000" stroke-linecap="round" stroke-linejoin="round" stroke-miterlimit="10" d="M17.9362,4.9458
		c1.4833,1.4833-0.0135,5.3851-3.3433,8.7149S7.3613,18.4873,5.878,17.004"/>
	<polyline fill="none" stroke="#000000" stroke-linecap="round" stroke-linejoin="round" stroke-miterlimit="10" points="
		11.6978,12.2046 8.6108,7.6786 13.1369,10.7656 	"/>
	
		<circle fill="none" stroke="#000000" stroke-linecap="round" stroke-linejoin="round" stroke-miterlimit="10" cx="7.9966" cy="7.0643" r="0.8687"/>
	<path fill="none" stroke="#000000" stroke-linecap="round" stroke-linejoin="round" stroke-miterlimit="10" d="M7.957,9.6893
		c-2.4174,2.9582-3.3581,6.0355-2.0789,7.3146c1.4833,1.4833,8.0941,2.6955,11.4239-0.6343s2.1177-9.9405,0.6343-11.4239
		c-1.2696-1.2696-4.3103-0.3512-7.248,2.0259"/>
	<path fill="none" stroke="#000000" stroke-linecap="round" stroke-linejoin="round" stroke-miterlimit="10" d="M12.2378,20.2934
		c-0.4871,0.6214-0.7844,1.2876-0.7844,1.6396c0,1.8004,6.3472,1.8442,6.3472,0c0-0.501-0.5996-1.6366-1.4979-2.3749"/>
</g>
<rect x="0" y="0" fill="none" width="24" height="24"/>
</svg>
