<?xml version="1.0" encoding="utf-8"?>
<!-- Generator: Adobe Illustrator 18.1.0, SVG Export Plug-In . SVG Version: 6.00 Build 0)  -->
<svg version="1.1" id="Layer_1" xmlns="http://www.w3.org/2000/svg" xmlns:xlink="http://www.w3.org/1999/xlink" x="0px" y="0px"
	 width="24px" height="24px" viewBox="0 0 24 24" enable-background="new 0 0 24 24" xml:space="preserve">
<g>
	<path fill="none" stroke="#000000" stroke-linecap="round" stroke-linejoin="round" d="M17.2367,19.2038l4.2812-1.9288
		c1.5538-0.7001,2.5302,1.5504,1.0601,2.2127c-6.5024,2.9296-5.9905,2.9467-8.5757,2.9467c-1.4987,0-3.7182-0.235-6.5596-1.4904
		c-0.8889-0.3926-2.5958,0.2417-4.6677,0.7654c-0.6507,0.1649-1.3158-0.2175-1.4952-0.86
		c-0.1288-0.4611-0.6464-2.0539-0.5608-2.4791c0.1057-0.5251,0.5214-0.9008,1.0197-0.9796c1.632-0.2582,6.5806-1.2303,9.2185-0.4653
		l5.4946,1.5936c1.5669,0.4543,0.8732,2.8055-0.6935,2.3507l-5.7728-1.6743"/>
	<circle fill="none" stroke="#000000" stroke-linecap="round" stroke-linejoin="round" cx="15.4764" cy="7.537" r="6.8108"/>
	<path fill="none" stroke="#000000" stroke-linecap="round" stroke-linejoin="round" d="M11.2612,3.8047
		c0,0-0.8649,1.9853,0.1821,1.6157c0.7737-0.273,0.842-0.5915,0.842-0.5915l0.455-0.7965c0,0,0.0683,1.115,0.1593,1.2741
		c0.0911,0.1594,0.4551,0.6145,0.5916-0.0227c0.2509-1.1713,0.2932-1.5015,0.7256-1.5015s1.3224-0.3417,1.4135,0.705
		c0.091,1.0468-0.091,0.4323-0.6599,0.7055c-0.5689,0.273-0.7055,1.2288-0.1821,1.3425c0.5234,0.1138,1.7067,0.5916,1.7067,0.5916
		l0.5916,0.66c0.3351,1.2986,0.2958,1.2711,0.2958,2.2981c0,0,0.0229,1.4336,0.5462,1.0923
		c0.5233-0.3413,1.9569-2.5714,1.6611-3.4133c-0.2958-0.842-0.3185-0.933,0.2276-1.2288c0.5461-0.2958,0.9329-0.6599,0.9102-1.0695"
		/>
	<path fill="none" stroke="#000000" stroke-linecap="round" stroke-linejoin="round" d="M10.1917,9.175
		c0,0,0.1593-1.8058,0.5234-1.5174c0.3641,0.2886,0.5232,0.2886,0.8419,0.6073c0.3186,0.3185,1.6839,0.5005,1.2288,0.9101
		c-0.4552,0.4098-0.6301,0.3861-1.251,2.2072"/>
</g>
<rect x="0" y="0" fill="none" width="24" height="24"/>
</svg>
