<?xml version="1.0" encoding="utf-8"?>
<!-- Generator: Adobe Illustrator 18.1.0, SVG Export Plug-In . SVG Version: 6.00 Build 0)  -->
<svg version="1.1" id="Layer_1" xmlns="http://www.w3.org/2000/svg" xmlns:xlink="http://www.w3.org/1999/xlink" x="0px" y="0px"
	 width="24px" height="24px" viewBox="0 0 24 24" enable-background="new 0 0 24 24" xml:space="preserve">
<g>
	<path fill="none" stroke="#000000" stroke-linecap="round" stroke-linejoin="round" stroke-miterlimit="10" d="M11.991,0.8599
		c-6.1631,0-11.1592,4.9962-11.1592,11.1594c0,6.1629,4.9962,11.1591,11.1592,11.1591c6.1632,0,11.1594-4.9962,11.1594-11.1591
		C23.1504,5.856,18.1542,0.8599,11.991,0.8599z M14.2593,19.4111c-0.4124,0.1443-0.6531-0.4508-0.263-0.6353
		c1.616-0.7623,2.543-1.857,2.543-3.0036c0-1.9364-2.6768-3.5145-6.3678-3.7574l0.0005,1.8368c0,0.5375-0.6006,0.7377-0.949,0.4841
		l-4.5574-3.9971c-0.3284-0.2398-0.3287-0.7283,0-0.9676l4.557-3.9971c0.4111-0.2989,0.9489,0.0154,0.9489,0.4838l0.0005,1.7742
		c0.0119,0,0.0226-0.0049,0.0347-0.0037c5.3914,0.5443,9.3045,3.2119,9.3045,6.3419
		C19.5111,16.1993,17.5476,18.2334,14.2593,19.4111z"/>
</g>
<rect x="0" y="0.001" fill="none" width="24" height="24"/>
</svg>
