<?xml version="1.0" encoding="utf-8"?>
<!-- Generator: Adobe Illustrator 18.1.0, SVG Export Plug-In . SVG Version: 6.00 Build 0)  -->
<svg version="1.1" id="Layer_1" xmlns="http://www.w3.org/2000/svg" xmlns:xlink="http://www.w3.org/1999/xlink" x="0px" y="0px"
	 width="24px" height="24px" viewBox="0 0 24 24" enable-background="new 0 0 24 24" xml:space="preserve">
<g>
	<path fill="none" stroke="#000000" stroke-linecap="round" stroke-linejoin="round" d="M3.0524,15.6577l13.6245,5.9742
		c1.1615,0.5093,3.4296-2.1028,5.0659-5.8344c1.6363-3.7316,2.0211-7.1695,0.8596-7.6789L8.9778,2.1444"/>
	
		<ellipse transform="matrix(0.4016 -0.9158 0.9158 0.4016 -4.5522 10.8353)" fill="none" stroke="#000000" stroke-linecap="round" stroke-linejoin="round" cx="6.0151" cy="8.901" rx="7.3777" ry="1.8086"/>
	<path fill="none" stroke="#000000" stroke-linecap="round" stroke-linejoin="round" d="M10.1852,2.6738
		c2.9429-2.3951,7.0888-2.7356,8.9312-0.4718s0.9503,6.0405-1.9926,8.4356c-1.8062,1.47-4.3393,2.2347-6.1635,1.9616"/>
	<circle fill="none" stroke="#000000" stroke-linecap="round" stroke-linejoin="round" cx="10.1852" cy="12.2593" r="0.8463"/>
	<path fill="none" stroke="#000000" stroke-linecap="round" stroke-linejoin="round" stroke-miterlimit="10" d="M3.0618,18.423
		c-0.0246,0-1.5252,2.4051-1.5252,3.2474c0,0.8425,0.6829,1.5252,1.5252,1.5252s1.5252-0.6828,1.5252-1.5252
		C4.587,20.8281,3.0864,18.423,3.0618,18.423z"/>
</g>
<rect x="0.0293" y="0.0001" fill="none" width="24" height="24"/>
</svg>
