<?xml version="1.0" encoding="utf-8"?>
<!-- Generator: Adobe Illustrator 18.1.0, SVG Export Plug-In . SVG Version: 6.00 Build 0)  -->
<svg version="1.1" id="Layer_1" xmlns="http://www.w3.org/2000/svg" xmlns:xlink="http://www.w3.org/1999/xlink" x="0px" y="0px"
	 width="24px" height="24px" viewBox="0 0 24 24" enable-background="new 0 0 24 24" xml:space="preserve">
<g>
	<polyline fill="none" stroke="#000000" stroke-linecap="round" stroke-linejoin="round" stroke-miterlimit="10" points="
		16.4951,0.5097 16.4951,4.5097 20.4951,4.5097 	"/>
	<path fill="none" stroke="#000000" stroke-linecap="round" stroke-linejoin="round" stroke-miterlimit="10" d="M20.4951,22.7098
		c0,0.4366-0.354,0.7999-0.7915,0.7999H4.2824c-0.4366,0-0.7872-0.3633-0.7872-0.7999V1.3153c0-0.4364,0.3506-0.8056,0.7872-0.8056
		h12.2127c0.2076,0,0.3041,0.0894,0.4517,0.2349l3.3124,3.2687c0.1503,0.1483,0.2359,0.285,0.2359,0.4964V22.7098z"/>
	
		<line fill="none" stroke="#000000" stroke-linecap="round" stroke-linejoin="round" x1="6.6305" y1="19.5323" x2="17.3903" y2="19.5323"/>
	
		<line fill="none" stroke="#000000" stroke-linecap="round" stroke-linejoin="round" x1="6.6305" y1="16.4935" x2="17.3903" y2="16.4935"/>
	<path fill="none" stroke="#000000" stroke-linecap="round" stroke-linejoin="round" d="M12.5984,10.0532
		c-0.3342-0.3481-0.7871-0.5624-1.2864-0.5624c-1.0277,0-1.8608,0.9064-1.8608,2.0244c0,1.1181,0.8331,2.0244,1.8608,2.0244
		c0.5189,0,0.988-0.2313,1.3255-0.604"/>
	<polyline fill="none" stroke="#000000" stroke-linecap="round" stroke-linejoin="round" stroke-miterlimit="10" points="
		14.2444,9.6344 15.8348,13.5397 17.4006,9.6344 	"/>
</g>
<rect x="0" y="0.0001" fill="none" width="24" height="24"/>
</svg>
