<?xml version="1.0" encoding="utf-8"?>
<!-- Generator: Adobe Illustrator 18.1.0, SVG Export Plug-In . SVG Version: 6.00 Build 0)  -->
<svg version="1.1" id="Layer_1" xmlns="http://www.w3.org/2000/svg" xmlns:xlink="http://www.w3.org/1999/xlink" x="0px" y="0px"
	 width="24px" height="24px" viewBox="0 0 24 24" enable-background="new 0 0 24 24" xml:space="preserve">
<g>
	<path fill="none" stroke="#000000" stroke-linecap="round" stroke-linejoin="round" d="M15.5739,21.1067
		c0.2726,0.8459,0.7168,2.0151,1.1776,2.3516h3.4701c0,0,4.5683-4.4912,0-13.8918h-3.4262c0,0-0.8764,1.543-1.3082,3.1531"/>
	<circle fill="none" stroke="#000000" stroke-linecap="round" stroke-linejoin="round" cx="8.0083" cy="16.9039" r="6.5543"/>
	<path fill="none" stroke="#000000" stroke-linecap="round" stroke-linejoin="round" d="M20.805,2.9112
		c0-1.2646-1.0314-2.2899-2.3034-2.2899c-1.2724,0-2.3038,1.0253-2.3038,2.2899c0,0.0589,0.6085,2.6196,0.6085,2.6196h3.3932
		C20.1996,5.5308,20.805,2.9701,20.805,2.9112z"/>
	<circle fill="none" stroke="#000000" stroke-linecap="round" stroke-linejoin="round" cx="4.7156" cy="14.4962" r="0.813"/>
	<circle fill="none" stroke="#000000" stroke-linecap="round" stroke-linejoin="round" cx="7.3568" cy="12.7007" r="0.817"/>
	<circle fill="none" stroke="#000000" stroke-linecap="round" stroke-linejoin="round" cx="7.5203" cy="15.7361" r="0.8169"/>
	<polygon fill="none" stroke="#000000" stroke-linecap="round" stroke-linejoin="round" points="16.7954,5.5241 16.7954,9.5665 
		20.2216,9.5665 20.204,5.5241 	"/>
</g>
<rect x="0.0142" y="0.0354" fill="none" width="24" height="24"/>
</svg>
