<?xml version="1.0" encoding="utf-8"?>
<!-- Generator: Adobe Illustrator 18.1.0, SVG Export Plug-In . SVG Version: 6.00 Build 0)  -->
<svg version="1.1" id="Layer_1" xmlns="http://www.w3.org/2000/svg" xmlns:xlink="http://www.w3.org/1999/xlink" x="0px" y="0px"
	 width="24px" height="24px" viewBox="0 0 24 24" enable-background="new 0 0 24 24" xml:space="preserve">
<g>
	<path fill="none" stroke="#000000" stroke-linecap="round" stroke-linejoin="round" stroke-miterlimit="10" d="M12.0143,23.4618
		c6.3377,0,11.4729-5.1398,11.4729-11.4766c0-6.3391-5.1353-11.4725-11.4729-11.4725c-6.3368,0-11.4761,5.1334-11.4761,11.4725
		v11.4766H12.0143z"/>
	<path fill="none" stroke="#000000" stroke-linecap="round" stroke-linejoin="round" stroke-miterlimit="10" d="M16.3055,15.3208
		c-1.7718-0.6847-3.7388-1.5349-3.9041-2.0648v-0.5558c0.3676-0.376,0.6575-0.9004,0.829-1.5144
		c0.4092-0.2873,0.5167-0.8837,0.1735-1.3058V8.6359c0-1.2844-0.7152-2.1636-2.3503-2.1636c-1.5929,0-2.3512,0.8792-2.3512,2.1636
		v1.2446c-0.3419,0.4209-0.2356,1.0171,0.1735,1.3052c0.1716,0.6142,0.4617,1.1386,0.8294,1.5146v0.5558
		c-0.1648,0.5292-2.1323,1.3796-3.9041,2.0648c-0.151,0.0586-0.251,0.2055-0.251,0.3697v1.39c0,0.2183,0.1746,0.3957,0.3898,0.3957
		h10.2264c0.2153,0,0.3899-0.1774,0.3899-0.3957v-1.39C16.5565,15.5263,16.4565,15.379,16.3055,15.3208z"/>
</g>
<rect x="0.0005" y="0.0004" fill="none" width="24" height="24"/>
</svg>
