<?xml version="1.0" encoding="utf-8"?>
<!-- Generator: Adobe Illustrator 18.1.0, SVG Export Plug-In . SVG Version: 6.00 Build 0)  -->
<svg version="1.1" id="Layer_1" xmlns="http://www.w3.org/2000/svg" xmlns:xlink="http://www.w3.org/1999/xlink" x="0px" y="0px"
	 width="24px" height="24px" viewBox="0 0 24 24" enable-background="new 0 0 24 24" xml:space="preserve">
<rect x="-0.0008" y="-0.0146" fill="none" width="24" height="24"/>
<g>
	<path fill-rule="evenodd" clip-rule="evenodd" fill="none" stroke="#000000" stroke-linecap="round" stroke-linejoin="round" d="
		M16.8695,2.9352c4.1792,8.5102-3.9722,18.1874-13.5046,14.583c1.8967,3.2886,4.4207,5.5076,8.3608,5.7775
		c5.8417,0.4001,11.3598-3.7792,11.6811-9.8876C23.6802,8.2027,20.464,4.6535,16.8695,2.9352z"/>
	<path fill="none" stroke="#000000" stroke-linecap="round" stroke-linejoin="round" stroke-miterlimit="10" d="M12.4472,8.5379
		L9.4622,8.4822l-0.98-2.6066c-0.0824-0.2229-0.4235-0.2243-0.5078,0L6.9946,8.4822L4.0097,8.5379
		c-0.2562,0.0064-0.359,0.3113-0.156,0.4534l2.377,1.6667l-0.8636,2.6396c-0.0746,0.2283,0.2016,0.4142,0.4098,0.2806L8.229,12
		l2.4516,1.5783c0.2044,0.1332,0.4851-0.0486,0.4096-0.2806l-0.8643-2.6396l2.3775-1.6667
		C12.8067,8.8486,12.7029,8.5443,12.4472,8.5379z"/>
	<path fill="none" stroke="#000000" stroke-linecap="round" stroke-linejoin="round" stroke-miterlimit="10" d="M4.247,2.0234
		c-0.6772-1.926-0.5142-1.8831-1.1757,0C1.0039,2.0639,1.1092,1.9335,2.7074,3.132C2.1069,5.0931,2.0162,4.9483,3.6593,3.8166
		C5.3098,4.9537,5.2084,5.0848,4.6111,3.132C6.2618,1.8938,6.246,2.0626,4.247,2.0234z"/>
</g>
</svg>
