<?xml version="1.0" encoding="utf-8"?>
<!-- Generator: Adobe Illustrator 18.1.0, SVG Export Plug-In . SVG Version: 6.00 Build 0)  -->
<svg version="1.1" id="Layer_1" xmlns="http://www.w3.org/2000/svg" xmlns:xlink="http://www.w3.org/1999/xlink" x="0px" y="0px"
	 width="24px" height="24px" viewBox="0 0 24 24" enable-background="new 0 0 24 24" xml:space="preserve">
<g>
	
		<line fill="none" stroke="#000000" stroke-linecap="round" stroke-linejoin="round" stroke-miterlimit="10" x1="12" y1="17.5" x2="4" y2="17.5"/>
	
		<line fill="none" stroke="#000000" stroke-linecap="round" stroke-linejoin="round" stroke-miterlimit="10" x1="12" y1="14.5" x2="4" y2="14.5"/>
	
		<line fill="none" stroke="#000000" stroke-linecap="round" stroke-linejoin="round" stroke-miterlimit="10" x1="12" y1="11.5" x2="4" y2="11.5"/>
	
		<line fill="none" stroke="#000000" stroke-linecap="round" stroke-linejoin="round" stroke-miterlimit="10" x1="7" y1="8.5" x2="4" y2="8.5"/>
	<path fill="none" stroke="#000000" stroke-linecap="round" stroke-linejoin="round" stroke-miterlimit="10" d="M18.5,17.5
		c0,0.0851,2.0051,5.6114,2.0051,5.6114c0.1566,0.4914,0.7843,0.535,0.9567,0.0002c0,0,2.0382-5.5263,2.0382-5.6117"/>
	
		<line fill="none" stroke="#000000" stroke-linecap="round" stroke-linejoin="round" stroke-miterlimit="10" x1="19.988" y1="21.6263" x2="21.9391" y2="21.6263"/>
	<path fill="none" stroke="#000000" stroke-linecap="round" stroke-linejoin="round" stroke-miterlimit="10" d="M14.6993,23.5
		H1.3847C0.9521,23.5,0.5,23.1442,0.5,22.7062V1.2938C0.5,0.8558,0.9521,0.5,1.3847,0.5h10.1814L15.5,4.4664v18.2398
		C15.5,23.1442,15.1318,23.5,14.6993,23.5z"/>
	<polyline fill="none" stroke="#000000" stroke-linecap="round" stroke-linejoin="round" stroke-miterlimit="10" points="
		11.5661,0.5008 11.5661,4.4664 15.4825,4.4664 	"/>
	<path fill="none" stroke="#000000" stroke-linecap="round" stroke-linejoin="round" stroke-miterlimit="10" d="M21.6,0.5h-1.1253
		C19.3702,0.5,18.5,1.3962,18.5,2.5008V17.5h5V2.5008C23.5,1.3962,22.7046,0.5,21.6,0.5z"/>
</g>
<rect x="0" y="0" fill="none" width="24" height="24"/>
</svg>
