<?xml version="1.0" encoding="utf-8"?>
<!-- Generator: Adobe Illustrator 18.1.0, SVG Export Plug-In . SVG Version: 6.00 Build 0)  -->
<svg version="1.1" id="Layer_1" xmlns="http://www.w3.org/2000/svg" xmlns:xlink="http://www.w3.org/1999/xlink" x="0px" y="0px"
	 width="24px" height="24px" viewBox="0 0 24 24" enable-background="new 0 0 24 24" xml:space="preserve">
<g>
	<path fill="none" stroke="#000000" stroke-linecap="round" stroke-linejoin="round" stroke-miterlimit="10" d="M23.4864,4.1975
		c0-0.3851-0.3119-0.6974-0.6966-0.6974H4.183c-0.3847,0-0.6966,0.3122-0.6966,0.6974v18.6053c0,0.3851,0.3119,0.6974,0.6966,0.6974
		h18.6068c0.3847,0,0.6966-0.3122,0.6966-0.6974V4.1975z"/>
	<path fill="none" stroke="#000000" stroke-linecap="round" stroke-linejoin="round" stroke-miterlimit="10" d="M20.4861,1.1972
		c0-0.3851-0.3119-0.6974-0.6966-0.6974H1.1827c-0.3847,0-0.6966,0.3122-0.6966,0.6974v18.6053
		c0,0.3851,0.3119,0.6974,0.6966,0.6974"/>
	<polyline fill="none" stroke="#000000" stroke-linecap="round" stroke-linejoin="round" stroke-miterlimit="10" points="
		11.4864,17.6121 11.4864,8.8529 17.4864,7.5283 17.4864,16.0002 	"/>
	
		<line fill="none" stroke="#000000" stroke-linecap="round" stroke-linejoin="round" stroke-miterlimit="10" x1="11.5412" y1="11.502" x2="17.4895" y2="10.1774"/>
	<path fill="none" stroke="#000000" stroke-linecap="round" stroke-linejoin="round" stroke-miterlimit="10" d="M11.4489,17.6121
		c-0.1886-0.6358-1.0357-0.9401-1.8921-0.6797c-0.8564,0.2604-1.3977,0.9868-1.2091,1.6226
		c0.1886,0.6358,1.0357,0.9401,1.8921,0.6797S11.6375,18.2479,11.4489,17.6121z"/>
	<path fill="none" stroke="#000000" stroke-linecap="round" stroke-linejoin="round" stroke-miterlimit="10" d="M17.4664,15.9076
		c-0.1886-0.6358-1.0357-0.9401-1.8921-0.6797c-0.8564,0.2604-1.3977,0.9868-1.2091,1.6226
		c0.1886,0.6358,1.0357,0.9401,1.8921,0.6797C17.1136,17.2699,17.655,16.5434,17.4664,15.9076z"/>
</g>
<rect x="-0.0136" y="0.0002" fill="none" width="24" height="24"/>
</svg>
