<?xml version="1.0" encoding="utf-8"?>
<!-- Generator: Adobe Illustrator 18.1.0, SVG Export Plug-In . SVG Version: 6.00 Build 0)  -->
<svg version="1.1" id="Layer_1" xmlns="http://www.w3.org/2000/svg" xmlns:xlink="http://www.w3.org/1999/xlink" x="0px" y="0px"
	 width="24px" height="24px" viewBox="0 0 24 24" enable-background="new 0 0 24 24" xml:space="preserve">
<g>
	<path fill="none" stroke="#000000" stroke-linecap="round" stroke-linejoin="round" stroke-miterlimit="10" d="M5.2449,16.5002
		H1.0905c-0.3337,0-0.6041-0.2172-0.6041-0.5519v-7.853c0-0.3347,0.2704-0.5951,0.6041-0.5951h4.042l5.8265-4.2574
		c1.4423-0.9253,1.5274,0.6322,1.5274,0.6322v16.2785c0,0-0.0851,1.535-1.5274,0.6106L5.2449,16.5002z"/>
	<path fill="none" stroke="#000000" stroke-linecap="round" stroke-linejoin="round" stroke-miterlimit="10" d="M17.5279,16.7235
		c1.2582-1.1782,2.0491-2.8494,2.0491-4.7092s-0.7908-3.531-2.049-4.7092"/>
	<path fill="none" stroke="#000000" stroke-linecap="round" stroke-linejoin="round" stroke-miterlimit="10" d="M20.4179,19.0063
		c1.8421-1.7632,2.9946-4.2407,2.9946-6.992c0-2.7512-1.1525-5.2288-2.9946-6.992"/>
	<path fill="none" stroke="#000000" stroke-linecap="round" stroke-linejoin="round" stroke-miterlimit="10" d="M14.4317,9.588
		c0.6751,0.5917,1.1035,1.4581,1.1035,2.4263s-0.4284,1.8346-1.1035,2.4263"/>
</g>
<rect x="-0.0136" y="0.0002" fill="none" width="24" height="24"/>
</svg>
