<?xml version="1.0" encoding="utf-8"?>
<!-- Generator: Adobe Illustrator 18.1.0, SVG Export Plug-In . SVG Version: 6.00 Build 0)  -->
<svg version="1.1" id="Layer_1" xmlns="http://www.w3.org/2000/svg" xmlns:xlink="http://www.w3.org/1999/xlink" x="0px" y="0px"
	 width="24px" height="24px" viewBox="0 0 24 24" enable-background="new 0 0 24 24" xml:space="preserve">
<g>
	
		<line fill="none" stroke="#000000" stroke-linecap="round" stroke-linejoin="round" stroke-miterlimit="10" x1="0.884" y1="23.1223" x2="23.2432" y2="0.7631"/>
	<path fill="none" stroke="#000000" stroke-linecap="round" stroke-linejoin="round" stroke-miterlimit="10" d="M8.0824,13.5617
		c-1.4277-3.5064,2.0766-7.0347,5.6004-5.6004"/>
	<path fill="none" stroke="#000000" stroke-linecap="round" stroke-linejoin="round" stroke-miterlimit="10" d="M16.3461,5.2979
		C10.5215,2.9892,3.9474,5.6364,0.7315,11.9427c1.0061,1.973,2.3926,3.6584,4.0428,4.9272"/>
	<path fill="none" stroke="#000000" stroke-linecap="round" stroke-linejoin="round" stroke-miterlimit="10" d="M16.0449,10.3235
		c1.4244,3.4998-2.0708,7.0372-5.6003,5.6003"/>
	<path fill="none" stroke="#000000" stroke-linecap="round" stroke-linejoin="round" stroke-miterlimit="10" d="M7.781,18.5875
		c5.8245,2.3087,12.3988-0.3385,15.6147-6.6448c-1.0061-1.973-2.3927-3.6584-4.0429-4.9272"/>
	<path fill="none" stroke="#000000" stroke-linecap="round" stroke-linejoin="round" stroke-miterlimit="10" d="M13.9536,12.4148
		c-0.1741,0.6978-0.7199,1.2437-1.4179,1.4179"/>
	<path fill="none" stroke="#000000" stroke-linecap="round" stroke-linejoin="round" stroke-miterlimit="10" d="M10.4446,15.9238
		c3.5272,1.4359,7.0262-2.0968,5.6003-5.6003"/>
	<path fill="none" stroke="#000000" stroke-linecap="round" stroke-linejoin="round" stroke-miterlimit="10" d="M11.5919,10.0522
		c-0.6984,0.174-1.2448,0.7203-1.4188,1.4188"/>
	<path fill="none" stroke="#000000" stroke-linecap="round" stroke-linejoin="round" stroke-miterlimit="10" d="M12.5358,13.8327
		c0.6979-0.1741,1.2437-0.72,1.4179-1.4179"/>
</g>
<rect fill="none" width="24" height="24"/>
</svg>
