<?xml version="1.0" encoding="utf-8"?>
<!-- Generator: Adobe Illustrator 18.1.0, SVG Export Plug-In . SVG Version: 6.00 Build 0)  -->
<svg version="1.1" id="Layer_1" xmlns="http://www.w3.org/2000/svg" xmlns:xlink="http://www.w3.org/1999/xlink" x="0px" y="0px"
	 width="24px" height="24px" viewBox="0 0 24 24" enable-background="new 0 0 24 24" xml:space="preserve">
<g>
	<path fill="none" stroke="#000000" stroke-linecap="round" stroke-linejoin="round" stroke-miterlimit="10" d="M23.5142,22.8554
		c0,0.375-0.304,0.679-0.679,0.679H1.1932c-0.375,0-0.679-0.304-0.679-0.679v-4.6421c0-0.375,0.304-0.679,0.679-0.679h21.6421
		c0.375,0,0.679,0.304,0.679,0.679V22.8554z"/>
	<path fill="none" stroke="#000000" stroke-linecap="round" stroke-linejoin="round" stroke-miterlimit="10" d="M22.3839,17.5344
		c0-6.6258-4.6445-11.5059-10.3737-11.5059S1.6365,10.9086,1.6365,17.5344H22.3839z"/>
	
		<circle fill="none" stroke="#000000" stroke-linecap="round" stroke-linejoin="round" stroke-miterlimit="10" cx="12.0102" cy="4.0447" r="1.9837"/>
	
		<line fill="none" stroke="#000000" stroke-linecap="round" stroke-linejoin="round" stroke-miterlimit="10" x1="19.5139" y1="19.4987" x2="19.5139" y2="21.5485"/>
	
		<line fill="none" stroke="#000000" stroke-linecap="round" stroke-linejoin="round" stroke-miterlimit="10" x1="16.5138" y1="19.4987" x2="16.5138" y2="21.5485"/>
	
		<line fill="none" stroke="#000000" stroke-linecap="round" stroke-linejoin="round" stroke-miterlimit="10" x1="13.5136" y1="19.4987" x2="13.5136" y2="21.5485"/>
	
		<line fill="none" stroke="#000000" stroke-linecap="round" stroke-linejoin="round" stroke-miterlimit="10" x1="10.5134" y1="19.4987" x2="10.5134" y2="21.5485"/>
	
		<line fill="none" stroke="#000000" stroke-linecap="round" stroke-linejoin="round" stroke-miterlimit="10" x1="7.5132" y1="19.4987" x2="7.5132" y2="21.5485"/>
	
		<line fill="none" stroke="#000000" stroke-linecap="round" stroke-linejoin="round" stroke-miterlimit="10" x1="4.513" y1="19.4987" x2="4.513" y2="21.5485"/>
</g>
<rect x="0.0142" y="0.0344" fill="none" width="24" height="24"/>
</svg>
