<?xml version="1.0" encoding="utf-8"?>
<!-- Generator: Adobe Illustrator 18.1.0, SVG Export Plug-In . SVG Version: 6.00 Build 0)  -->
<svg version="1.1" id="Layer_1" xmlns="http://www.w3.org/2000/svg" xmlns:xlink="http://www.w3.org/1999/xlink" x="0px" y="0px"
	 width="24px" height="24px" viewBox="0 0 24 24" enable-background="new 0 0 24 24" xml:space="preserve">
<g>
	<path fill="none" stroke="#000000" stroke-linecap="round" stroke-linejoin="round" stroke-miterlimit="10" d="M23.5,22.1558
		c0,0.7429-0.6023,1.3452-1.3452,1.3452H1.8452c-0.7429,0-1.3452-0.6023-1.3452-1.3452V1.8462c0-0.7429,0.6023-1.3452,1.3452-1.3452
		h20.3096c0.7429,0,1.3452,0.6023,1.3452,1.3452V22.1558z"/>
	<line fill="none" stroke="#000000" stroke-linecap="round" stroke-linejoin="round" x1="11.5455" y1="9.501" x2="8.5" y2="9.501"/>
	
		<line fill="none" stroke="#000000" stroke-linecap="round" stroke-linejoin="round" x1="11.5455" y1="13.501" x2="8.5" y2="13.501"/>
	<path fill="none" stroke="#000000" stroke-linecap="round" stroke-linejoin="round" d="M6.9142,7.501
		c-2.2706,0-4.1115,1.8702-4.1113,4.0001c-0.0003,2.13,1.8407,3.9999,4.1114,3.9999H8.5v-8H6.9142z"/>
	<line fill="none" stroke="#000000" stroke-linecap="round" stroke-linejoin="round" x1="8.5" y1="7.001" x2="8.5" y2="16.001"/>
	
		<line fill="none" stroke="#000000" stroke-linecap="round" stroke-linejoin="round" x1="15.5" y1="9.501" x2="17.3279" y2="9.501"/>
	
		<line fill="none" stroke="#000000" stroke-linecap="round" stroke-linejoin="round" x1="15.5" y1="13.501" x2="17.3279" y2="13.501"/>
	<path fill="none" stroke="#000000" stroke-linecap="round" stroke-linejoin="round" d="M17.1476,7.501
		c2.1964,0,3.9772,1.8702,3.977,4.0001c0.0002,2.13-1.7806,3.9999-3.9771,3.9999H15.5v-8H17.1476z"/>
	
		<line fill="none" stroke="#000000" stroke-linecap="round" stroke-linejoin="round" x1="2.8029" y1="11.5012" x2="0.5" y2="11.5012"/>
	
		<line fill="none" stroke="#000000" stroke-linecap="round" stroke-linejoin="round" x1="23.5" y1="11.5012" x2="21.1246" y2="11.5012"/>
</g>
<rect x="0" y="0.001" fill="none" width="24" height="24"/>
</svg>
