<?xml version="1.0" encoding="utf-8"?>
<!-- Generator: Adobe Illustrator 18.1.0, SVG Export Plug-In . SVG Version: 6.00 Build 0)  -->
<svg version="1.1" id="Layer_1" xmlns="http://www.w3.org/2000/svg" xmlns:xlink="http://www.w3.org/1999/xlink" x="0px" y="0px"
	 width="24px" height="24px" viewBox="0 0 24 24" enable-background="new 0 0 24 24" xml:space="preserve">
<g>
	<polyline fill="none" stroke="#000000" stroke-linecap="round" stroke-linejoin="round" points="6.4404,23.4819 6.9906,18.5495 
		2.0328,18.5495 2.583,23.4819 	"/>
	
		<rect x="11.5142" y="0.5354" fill="none" stroke="#000000" stroke-linecap="round" stroke-linejoin="round" width="11" height="23"/>
	
		<line fill="none" stroke="#000000" stroke-linecap="round" stroke-linejoin="round" x1="23.5142" y1="23.5354" x2="0.5142" y2="23.5354"/>
	<circle fill="none" stroke="#000000" stroke-linecap="round" stroke-linejoin="round" cx="14.474" cy="12.5574" r="0.8581"/>
	<path fill="none" stroke="#000000" stroke-linecap="round" stroke-linejoin="round" d="M0.7566,10.764
		c0,1.9545,1.8072,3.3968,3.7618,3.3968C4.5184,12.2064,2.7112,10.764,0.7566,10.764z"/>
	<path fill="none" stroke="#000000" stroke-linecap="round" stroke-linejoin="round" d="M9.4718,11.5443
		c-2.8501,0-4.9534,1.9468-4.9534,4.0525C7.3685,15.5968,9.4718,13.6498,9.4718,11.5443z"/>
	<path fill="none" stroke="#000000" stroke-linecap="round" stroke-linejoin="round" d="M8.2035,7.1397
		c-2.1203,0-3.6851,1.4484-3.6851,3.0149C6.6388,10.1546,8.2035,8.7062,8.2035,7.1397z"/>
	
		<line fill="none" stroke="#000000" stroke-linecap="round" stroke-linejoin="round" x1="4.5184" y1="6.5772" x2="4.5184" y2="18.5495"/>
</g>
<rect x="0.0142" y="0.0354" fill="none" width="24" height="24"/>
</svg>
