<?xml version="1.0" encoding="utf-8"?>
<!-- Generator: Adobe Illustrator 18.1.0, SVG Export Plug-In . SVG Version: 6.00 Build 0)  -->
<svg version="1.1" id="Layer_1" xmlns="http://www.w3.org/2000/svg" xmlns:xlink="http://www.w3.org/1999/xlink" x="0px" y="0px"
	 width="24px" height="24px" viewBox="0 0 24 24" enable-background="new 0 0 24 24" xml:space="preserve">
<g>
	<path fill="none" stroke="#000000" stroke-linecap="round" stroke-linejoin="round" stroke-miterlimit="10" d="M22.6795,8.9495
		L15.1431,8.797l-2.4741-7.0408c-0.2133-0.6074-1.0709-0.6027-1.2815,0L8.9139,8.797L1.3767,8.9495
		C0.7333,8.9633,0.4676,9.7829,0.9834,10.172l6.0013,4.5024l-2.1805,7.1295c-0.1893,0.616,0.5091,1.1224,1.0347,0.7587
		l6.1895-4.2617l6.19,4.2617c0.5289,0.3631,1.2233-0.1457,1.0342-0.7587l-2.1818-7.1295l6.0017-4.5024
		C23.5886,9.7836,23.3225,8.9633,22.6795,8.9495z"/>
</g>
<rect x="0.0293" y="-0.0001" fill="none" width="24" height="24"/>
</svg>
