<?xml version="1.0" encoding="utf-8"?>
<!-- Generator: Adobe Illustrator 18.1.0, SVG Export Plug-In . SVG Version: 6.00 Build 0)  -->
<svg version="1.1" id="Layer_1" xmlns="http://www.w3.org/2000/svg" xmlns:xlink="http://www.w3.org/1999/xlink" x="0px" y="0px"
	 width="24px" height="24px" viewBox="0 0 24 24" enable-background="new 0 0 24 24" xml:space="preserve">
<g>
	<path fill="none" stroke="#000000" stroke-linecap="round" stroke-linejoin="round" d="M10.0095,10.1299
		c-0.5145,0.2715-0.9918,0.6125-1.4179,1.0164c-0.3722-1.5157-4.1441-3.925-4.1441-2.2662l1.341,2.5721
		c-1.5626,0.277-2.8675,1.3635-3.3815,2.8204l-1.0577,0.4216c-0.3045,0.0892-0.5667,0.2547-0.5667,0.5671
		c0.3073,2.0774,0.1273,2.453,0.8761,2.6592l1.4842,0.4047c1.0209,1.2283,2.6614,1.8192,4.2608,1.5207l-0.4397,2.6407
		c0,0.564,0.4586,1.0225,1.0221,1.0225c1.0001,0,2.1563,0.1549,2.1563-1.0225l0.1356-1.2182
		c1.3396,0.8038,4.3486,0.6664,5.5919,0.0207l0.1752,1.1975c0,0.564,0.4586,1.0225,1.023,1.0225h0.6928
		c0.5644,0,1.4621-0.4585,1.4621-1.0225l-0.4396-4.043c0.3284-0.6117,0.5459-1.2752,0.6486-1.957
		c0.2699-2.6869-0.8974-4.7552-2.748-6.0427"/>
	
		<circle fill="none" stroke="#000000" stroke-linecap="round" stroke-linejoin="round" stroke-miterlimit="10" cx="13.4787" cy="5.5211" r="3.9751"/>
	<path fill="none" stroke="#000000" stroke-linecap="round" stroke-linejoin="round" stroke-miterlimit="10" d="M19.2946,14.187
		c1.1587-0.5429,2.819-1.8013,2.5088-2.9835c-0.3803-1.4492-2.4304-1.7441-1.6551,0.4921c0.7166,2.0679,2.6794,1.2034,3.2205,0.2033
		"/>
	
		<line fill="none" stroke="#000000" stroke-linecap="round" stroke-linejoin="round" stroke-miterlimit="10" x1="5.417" y1="14.4881" x2="5.417" y2="14.4881"/>
	<path fill="none" stroke="#000000" stroke-linecap="round" stroke-linejoin="round" stroke-miterlimit="10" d="M12.348,6.7071
		c0.3024,0.2632,0.7686,0.4608,1.1052,0.4608c0.5385,0,0.975-0.3817,0.975-0.8525s-0.4661-0.7037-0.975-0.8525
		c-0.5275-0.1653-0.975-0.3817-0.975-0.8525s0.4365-0.8525,0.975-0.8525c0.3626,0,0.679,0.173,0.847,0.4298"/>
	
		<line fill="none" stroke="#000000" stroke-linecap="round" stroke-linejoin="round" stroke-miterlimit="10" x1="13.4532" y1="3.2921" x2="13.4532" y2="3.7579"/>
	
		<line fill="none" stroke="#000000" stroke-linecap="round" stroke-linejoin="round" stroke-miterlimit="10" x1="13.4532" y1="7.1679" x2="13.4532" y2="7.6338"/>
</g>
<rect x="-0.0137" y="0.0031" fill="none" width="24" height="24"/>
<rect x="-0.0137" y="0" fill="none" width="24" height="24"/>
</svg>
