<?xml version="1.0" encoding="utf-8"?>
<!-- Generator: Adobe Illustrator 18.1.0, SVG Export Plug-In . SVG Version: 6.00 Build 0)  -->
<svg version="1.1" id="Layer_1" xmlns="http://www.w3.org/2000/svg" xmlns:xlink="http://www.w3.org/1999/xlink" x="0px" y="0px"
	 width="24px" height="24px" viewBox="0 0 24 24" enable-background="new 0 0 24 24" xml:space="preserve">
<g>
	<path fill="none" stroke="#000000" stroke-linecap="round" stroke-linejoin="round" stroke-miterlimit="10" d="M15.0927,19.0554
		c0.8197-0.5528,1.5475-1.5662,2.0569-2.7402L17.147,16.314l0.957-2.2057l-5.3131-2.3052l-0.9587,2.2096l0.0001,0
		c-0.4881,1.1268-0.6529,2.3406-0.5265,3.2935"/>
	
		<line fill="none" stroke="#000000" stroke-linecap="round" stroke-linejoin="round" stroke-miterlimit="10" x1="14.287" y1="15.6339" x2="20.5243" y2="1.2577"/>
	
		<line fill="none" stroke="#000000" stroke-linecap="round" stroke-linejoin="round" stroke-miterlimit="10" x1="21.6164" y1="1.6988" x2="19.4561" y2="0.7615"/>
	<path fill="none" stroke="#000000" stroke-linecap="round" stroke-linejoin="round" stroke-miterlimit="10" d="M23.0961,23.2092
		c0,0-0.7565-4.6656-2.6445-4.7397c-1.888-0.0741-4.2352,2.4439-5.0517,1.0368c-0.8164-1.4071-2.2962-1.9996-5.3068-2.3699
		c-3.0106-0.3703-1.7349-2.8883-3.6229-2.0736c-1.888,0.8146-5.4089,6.8133-5.5619,8.1464"/>
</g>
<rect x="0.0022" y="-0.0147" fill="none" width="24" height="24"/>
</svg>
