<?xml version="1.0" encoding="utf-8"?>
<!-- Generator: Adobe Illustrator 18.1.0, SVG Export Plug-In . SVG Version: 6.00 Build 0)  -->
<svg version="1.1" id="Layer_1" xmlns="http://www.w3.org/2000/svg" xmlns:xlink="http://www.w3.org/1999/xlink" x="0px" y="0px"
	 width="24px" height="24px" viewBox="0 0 24 24" enable-background="new 0 0 24 24" xml:space="preserve">
<g>
	<circle fill="none" stroke="#000000" stroke-linecap="round" stroke-linejoin="round" cx="8.5951" cy="11.8318" r="1.4603"/>
	<circle fill="none" stroke="#000000" stroke-linecap="round" stroke-linejoin="round" cx="15.6694" cy="11.8318" r="1.4603"/>
	<path fill="none" stroke="#000000" stroke-linecap="round" stroke-linejoin="round" d="M11.6689,0.645
		c-5.1324,0.1825-9.126,4.5565-9.126,9.6921l0,11.8755c0,0.5139,0.6213,0.7713,0.9847,0.4079l0.9752-0.9752
		c0.2253-0.2253,0.5905-0.2253,0.8158,0l1.552,1.552c0.2253,0.2253,0.5905,0.2253,0.8158,0l1.552-1.552
		c0.2253-0.2253,0.5905-0.2253,0.8158,0l1.552,1.552c0.2253,0.2253,0.5905,0.2253,0.8158,0l1.552-1.552
		c0.2253-0.2253,0.5905-0.2253,0.8158,0l1.552,1.552c0.2253,0.2253,0.5905,0.2253,0.8158,0l1.552-1.552
		c0.2253-0.2253,0.5905-0.2253,0.8158,0l0.9751,0.9752c0.3634,0.3634,0.9847,0.106,0.9847-0.4079V10.1101
		C21.4854,4.7646,17.0572,0.4534,11.6689,0.645z"/>
</g>
<rect x="0.0142" y="0.0354" fill="none" width="24" height="24"/>
</svg>
