<?xml version="1.0" encoding="utf-8"?>
<!-- Generator: Adobe Illustrator 18.1.0, SVG Export Plug-In . SVG Version: 6.00 Build 0)  -->
<svg version="1.1" id="Layer_1" xmlns="http://www.w3.org/2000/svg" xmlns:xlink="http://www.w3.org/1999/xlink" x="0px" y="0px"
	 width="24px" height="24px" viewBox="0 0 24 24" enable-background="new 0 0 24 24" xml:space="preserve">
<g>
	<path fill="none" stroke="#000000" stroke-linecap="round" stroke-linejoin="round" d="M17.6934,16.2531
		c0.5746-0.4454,4.6618-3.8066,4.8357-3.9491c0.1879-0.1541,0.1515-0.4523-0.0682-0.5561l-1.0517-0.4948
		c-0.1846-0.0903,0.8556-3.5761,0.8007-3.378c0.0675-0.2434-0.1494-0.463-0.3865-0.4132c-0.123,0.0253-2.971,0.6646-3.0061,0.544
		l-0.3788-1.3258c-0.0704-0.2488-0.3892-0.3263-0.5649-0.1322l-2.3831,2.6365c-0.2697,0.1409,0.9339-5.8183,0.8769-5.5194
		c0.0522-0.2733-0.237-0.4811-0.4789-0.3559l-1.4551,0.7592c-0.1519,0.0262-0.2676,0.0608-0.3436-0.0764
		c-0.2364-0.4256-1.8036-3.3626-1.8036-3.3626c-0.1274-0.2347-0.4607-0.2329-0.5853-0.0003L9.8683,4.0482
		c0,0-0.033,0.1522-0.4289-0.0473C8.7617,3.6594,8.118,3.3089,8.1161,3.3081C7.8683,3.1736,7.5802,3.3882,7.6313,3.6594
		c0.0611,0.3307,1.1449,5.8129,0.9091,5.575C8.4557,9.1467,7.0426,7.5831,6.1138,6.5535c-0.1735-0.1918-0.4913-0.1212-0.5646,0.129
		L5.1651,7.9844c-0.03,0.074-0.0951,0.0808-0.1737,0.063C4.5548,7.9503,2.1712,7.4387,2.1712,7.4387
		C1.9221,7.3883,1.7179,7.6132,1.7816,7.8506l0.8756,3.2177c0.0105,0.039,0.0142,0.0948,0.0115,0.1273
		c-0.215,0.1154-0.8821,0.4386-1.1345,0.5597c-0.2201,0.1052-0.2537,0.403-0.0663,0.5558l4.9528,4.0523
		c0.0069,0.0058,0.1595,0.1526,0.0467,0.538c-0.1847,0.6327-0.3483,1.1993-0.3483,1.1993c-0.0656,0.2258,0.1155,0.446,0.3555,0.4222
		l4.4852-0.5379c-0.0385,0.7021-0.6189,5.1503-0.6189,5.1503c-0.0094,0.1959,0.1442,0.3512,0.3313,0.3512h2.6424
		c0.188,0,0.3415-0.1573,0.3309-0.3491l-0.5944-5.1541c0.0179,0.0009,0.0366,0.0023,0.0563,0.0042
		c0.4299,0.0418,4.3626,0.5436,4.4055,0.5487c0.2465,0.029,0.3801-0.142,0.3801-0.3291c0-0.0596-0.0157-0.1154-0.0431-0.1638
		l-0.3433-1.1927c-0.0061-0.0178-0.0167-0.0429-0.0244-0.0604C17.451,16.7273,17.3755,16.4996,17.6934,16.2531"/>
</g>
<rect x="-0.0008" y="-0.0147" fill="none" width="24" height="24"/>
</svg>
