<?xml version="1.0" encoding="utf-8"?>
<!-- Generator: Adobe Illustrator 18.1.0, SVG Export Plug-In . SVG Version: 6.00 Build 0)  -->
<svg version="1.1" id="Layer_1" xmlns="http://www.w3.org/2000/svg" xmlns:xlink="http://www.w3.org/1999/xlink" x="0px" y="0px"
	 width="24px" height="24px" viewBox="0 0 24 24" enable-background="new 0 0 24 24" xml:space="preserve">
<g>
	<path fill="none" stroke="#000000" stroke-linecap="round" stroke-linejoin="round" stroke-miterlimit="10" d="M20.4226,10.0411
		c2.701-4.925-2.7241-10.3461-7.6465-7.6465"/>
	<polyline fill="none" stroke="#000000" stroke-linecap="round" stroke-linejoin="round" stroke-miterlimit="10" points="
		23.1548,8.8651 20.4418,10.0603 19.2466,7.3473 	"/>
	<path fill="none" stroke="#000000" stroke-linecap="round" stroke-linejoin="round" stroke-miterlimit="10" d="M3.5208,13.5477
		c-2.701,4.925,2.7241,10.3461,7.6465,7.6465"/>
	<polyline fill="none" stroke="#000000" stroke-linecap="round" stroke-linejoin="round" stroke-miterlimit="10" points="
		0.7886,14.7238 3.5016,13.5285 4.6968,16.2415 	"/>
	
		<circle fill="none" stroke="#000000" stroke-linecap="round" stroke-linejoin="round" stroke-miterlimit="10" cx="6.3376" cy="6.2901" r="5.3352"/>
	
		<circle fill="none" stroke="#000000" stroke-linecap="round" stroke-linejoin="round" stroke-miterlimit="10" cx="17.9069" cy="17.4797" r="5.3352"/>
	<path fill="none" stroke="#000000" stroke-linecap="round" stroke-linejoin="round" stroke-miterlimit="10" d="M4.717,8.1635
		c0.4553,0.3963,1.1574,0.6939,1.6641,0.6939c0.8108,0,1.4682-0.5747,1.4682-1.2836S7.1475,6.5141,6.3812,6.2901
		C5.587,6.0412,4.913,5.7154,4.913,5.0065s0.6573-1.2836,1.4682-1.2836c0.546,0,1.0223,0.2606,1.2753,0.6472"/>
	
		<line fill="none" stroke="#000000" stroke-linecap="round" stroke-linejoin="round" stroke-miterlimit="10" x1="6.3812" y1="3.0214" x2="6.3812" y2="3.7228"/>
	
		<line fill="none" stroke="#000000" stroke-linecap="round" stroke-linejoin="round" stroke-miterlimit="10" x1="6.3812" y1="8.8574" x2="6.3812" y2="9.5588"/>
	
		<line fill="none" stroke="#000000" stroke-linecap="round" stroke-linejoin="round" x1="15.3147" y1="16.816" x2="18.4869" y2="16.816"/>
	
		<line fill="none" stroke="#000000" stroke-linecap="round" stroke-linejoin="round" x1="15.3147" y1="18.2392" x2="18.4869" y2="18.2392"/>
	<path fill="none" stroke="#000000" stroke-linecap="round" stroke-linejoin="round" d="M19.8932,15.8298
		c-0.395-0.6635-1.0097-1.0905-1.7007-1.0905c-1.192,0-2.1583,1.2692-2.1583,2.8349c0,1.5656,0.9663,2.8349,2.1583,2.8349
		c0.7228,0,1.3621-0.4672,1.7538-1.1836"/>
</g>
<rect x="-0.0227" y="0" fill="none" width="24" height="24"/>
</svg>
