<?xml version="1.0" encoding="utf-8"?>
<!-- Generator: Adobe Illustrator 18.1.0, SVG Export Plug-In . SVG Version: 6.00 Build 0)  -->
<svg version="1.1" id="Layer_1" xmlns="http://www.w3.org/2000/svg" xmlns:xlink="http://www.w3.org/1999/xlink" x="0px" y="0px"
	 width="24px" height="24px" viewBox="0 0 24 24" enable-background="new 0 0 24 24" xml:space="preserve">
<g>
	
		<line fill="none" stroke="#000000" stroke-linecap="round" stroke-linejoin="round" x1="23.5142" y1="21.5391" x2="23.5142" y2="23.4417"/>
	
		<line fill="none" stroke="#000000" stroke-linecap="round" stroke-linejoin="round" x1="0.5127" y1="21.5391" x2="0.5127" y2="23.4417"/>
	
		<rect x="0.5142" y="16.5354" fill="none" stroke="#000000" stroke-linecap="round" stroke-linejoin="round" width="23" height="5"/>
	<polyline fill="none" stroke="#000000" stroke-linecap="round" stroke-linejoin="round" points="21.5142,13.3691 21.5142,4.5354 
		2.5142,4.5354 2.5142,13.3782 	"/>
	<path fill="none" stroke="#000000" stroke-linecap="round" stroke-linejoin="round" d="M13.5142,12.5354V9.5762
		c0-0.6024,0.4581-1.0478,1.0395-0.8902c0.7424,0.2013,1.7577,0.3354,2.8429,0.0359c0.5714-0.1577,1.1176,0.3035,1.1176,0.8963
		v2.9171"/>
	<path fill="none" stroke="#000000" stroke-linecap="round" stroke-linejoin="round" d="M5.5137,12.5354V9.5762
		c0-0.6024,0.4581-1.0478,1.0395-0.8902C7.2955,8.8873,8.3109,9.0215,9.3961,8.722c0.5714-0.1577,1.1176,0.3035,1.1176,0.8963
		v2.9171"/>
	<path fill="none" stroke="#000000" stroke-linecap="round" stroke-linejoin="round" d="M23.5178,16.5354H0.5258v-0.1422
		c0-2.0521,2.3141-3.8578,5.1687-3.8578H18.349c2.8546,0,5.1687,1.8057,5.1687,3.8578V16.5354z"/>
</g>
<rect x="0.0142" y="0.0354" fill="none" width="24" height="24"/>
</svg>
