<?xml version="1.0" encoding="utf-8"?>
<!-- Generator: Adobe Illustrator 18.1.0, SVG Export Plug-In . SVG Version: 6.00 Build 0)  -->
<svg version="1.1" id="Layer_1" xmlns="http://www.w3.org/2000/svg" xmlns:xlink="http://www.w3.org/1999/xlink" x="0px" y="0px"
	 width="24px" height="24px" viewBox="0 0 24 24" enable-background="new 0 0 24 24" xml:space="preserve">
<g>
	<path fill="none" stroke="#000000" stroke-linecap="round" stroke-linejoin="round" d="M15.5024,23.8388
		c0,0.4024-0.3266,0.7292-0.7294,0.7292H9.2377c-0.4029,0-0.7295-0.3267-0.7295-0.7292V12.2413
		c0-0.4032,0.3266-0.7296,0.7295-0.7296h5.5354c0.4028,0,0.7294,0.3264,0.7294,0.7296V23.8388z"/>
	<path fill="none" stroke="#000000" stroke-linecap="round" stroke-linejoin="round" d="M11.9617,1.9886
		c0.6936,2.1524-1.687,2.2441-2.3206,5.1601c-0.3521,1.6199,0.5993,2.1958,1.5141,2.3884c-0.2305-0.2159-0.4163-0.5319-0.4006-0.992
		c0.0479-1.404,1.7608-1.0851,1.6215-2.1447c-0.1061-0.8008,1.4796,1.8322,0.9188,3.0223
		C16.7225,8.0295,11.3066-0.0424,11.9617,1.9886z"/>
	
		<line fill="none" stroke="#000000" stroke-linecap="round" stroke-linejoin="round" x1="10.5084" y1="13.5699" x2="10.5084" y2="19.5093"/>
	
		<line fill="none" stroke="#000000" stroke-linecap="round" stroke-linejoin="round" x1="6.3846" y1="24.568" x2="17.6259" y2="24.568"/>
</g>
<rect x="0.0142" y="1.0354" fill="none" width="24" height="24"/>
</svg>
