<?xml version="1.0" encoding="utf-8"?>
<!-- Generator: Adobe Illustrator 18.1.0, SVG Export Plug-In . SVG Version: 6.00 Build 0)  -->
<svg version="1.1" id="Layer_1" xmlns="http://www.w3.org/2000/svg" xmlns:xlink="http://www.w3.org/1999/xlink" x="0px" y="0px"
	 width="24px" height="24px" viewBox="0 0 24 24" enable-background="new 0 0 24 24" xml:space="preserve">
<g>
	
		<circle fill="none" stroke="#000000" stroke-linecap="round" stroke-linejoin="round" stroke-miterlimit="10" cx="4.5717" cy="12.5269" r="0.8474"/>
	<path fill="none" stroke="#000000" stroke-linecap="round" stroke-linejoin="round" stroke-miterlimit="10" d="M20.0792,12.9939
		C9.832,23.2691,2.9814,16.1605,0.9664,13.7259c-0.3512-0.4243-0.3512-1.0395,0-1.4638C2.9814,9.8273,9.832,2.7188,20.0792,12.9939z
		"/>
	<path fill="none" stroke="#000000" stroke-linecap="round" stroke-linejoin="round" stroke-miterlimit="10" d="M19.1307,12.02
		c0,0,3.1925-3.1166,4.1778-3.2465c0,0,0.1104,2.792-0.9158,4.2204c1.0262,1.4285,0.9158,4.2204,0.9158,4.2204
		c-0.9853-0.1299-4.1778-3.2465-4.1778-3.2465"/>
	
		<line fill="none" stroke="#000000" stroke-linecap="round" stroke-linejoin="round" stroke-miterlimit="10" x1="7.5" y1="7.8469" x2="7.5" y2="18.1409"/>
	<path fill="none" stroke="#000000" stroke-linecap="round" stroke-linejoin="round" stroke-miterlimit="10" d="M9.9782,9.3279
		c0,0,0.5657,0.6426,0,1.4514"/>
	<path fill="none" stroke="#000000" stroke-linecap="round" stroke-linejoin="round" stroke-miterlimit="10" d="M9.9782,12.2441
		c0,0,0.5657,0.6426,0,1.4514"/>
	<path fill="none" stroke="#000000" stroke-linecap="round" stroke-linejoin="round" stroke-miterlimit="10" d="M14.7545,12.2441
		c0,0,0.5657,0.6426,0,1.4514"/>
	<path fill="none" stroke="#000000" stroke-linecap="round" stroke-linejoin="round" stroke-miterlimit="10" d="M9.9782,15.1603
		c0,0,0.5657,0.6426,0,1.4514"/>
	<path fill="none" stroke="#000000" stroke-linecap="round" stroke-linejoin="round" stroke-miterlimit="10" d="M12.3663,10.8127
		c0,0,0.5657,0.6426,0,1.4514"/>
	<path fill="none" stroke="#000000" stroke-linecap="round" stroke-linejoin="round" stroke-miterlimit="10" d="M12.3663,13.7289
		c0,0,0.5657,0.6426,0,1.4514"/>
</g>
<rect x="0" y="0.0197" fill="none" width="24" height="24"/>
</svg>
