<?xml version="1.0" encoding="utf-8"?>
<!-- Generator: Adobe Illustrator 18.1.0, SVG Export Plug-In . SVG Version: 6.00 Build 0)  -->
<svg version="1.1" id="Layer_1" xmlns="http://www.w3.org/2000/svg" xmlns:xlink="http://www.w3.org/1999/xlink" x="0px" y="0px"
	 width="24px" height="24px" viewBox="0 0 24 24" enable-background="new 0 0 24 24" xml:space="preserve">
<g>
	<polyline fill="none" stroke="#000000" stroke-linecap="round" stroke-linejoin="round" points="18.6405,23.42 14.3288,13.6255 
		14.0005,3.5 11.9495,0.5888 10.0005,3.5 9.5703,13.6255 5.2585,23.42 	"/>
	<line fill="none" stroke="#000000" stroke-linecap="round" stroke-linejoin="round" x1="2.5005" y1="9.5" x2="2.5005" y2="8.5"/>
	<line fill="none" stroke="#000000" stroke-linecap="round" stroke-linejoin="round" x1="2.5005" y1="23.5" x2="5.2585" y2="23.5"/>
	
		<line fill="none" stroke="#000000" stroke-linecap="round" stroke-linejoin="round" x1="18.6562" y1="23.5" x2="21.4142" y2="23.5"/>
	<line fill="none" stroke="#000000" stroke-linecap="round" stroke-linejoin="round" x1="2.5005" y1="4.5" x2="2.5005" y2="3.5"/>
	<line fill="none" stroke="#000000" stroke-linecap="round" stroke-linejoin="round" x1="21.5005" y1="9.5" x2="21.5005" y2="8.5"/>
	<line fill="none" stroke="#000000" stroke-linecap="round" stroke-linejoin="round" x1="21.5005" y1="4.5" x2="21.5005" y2="3.5"/>
	<polyline fill="none" stroke="#000000" stroke-linecap="round" stroke-linejoin="round" points="10.0005,3.5 14.1626,8.5 
		22.0005,8.5 	"/>
	<polyline fill="none" stroke="#000000" stroke-linecap="round" stroke-linejoin="round" points="14.0005,3.5 9.786,8.5 2.0005,8.5 
			"/>
	
		<line fill="none" stroke="#000000" stroke-linecap="round" stroke-linejoin="round" x1="14.3288" y1="13.6204" x2="9.7937" y2="9.0493"/>
	
		<line fill="none" stroke="#000000" stroke-linecap="round" stroke-linejoin="round" x1="14.1804" y1="9.0493" x2="9.5703" y2="13.6204"/>
	
		<line fill="none" stroke="#000000" stroke-linecap="round" stroke-linejoin="round" x1="18.6405" y1="23.42" x2="9.5703" y2="13.6255"/>
	
		<line fill="none" stroke="#000000" stroke-linecap="round" stroke-linejoin="round" x1="14.3288" y1="13.6255" x2="5.2585" y2="23.42"/>
	<path fill="none" stroke="#000000" stroke-linecap="round" stroke-linejoin="round" d="M18.6562,23.42
		c-1.4161-1.0918-2.7956-1.8018-3.931-2.2597c-1.7739-0.7153-3.7616-0.7153-5.5356,0c-1.1354,0.4578-2.5149,1.1678-3.931,2.2597"/>
	<line fill="none" stroke="#000000" stroke-linecap="round" stroke-linejoin="round" x1="2.0005" y1="3.5" x2="10.0005" y2="3.5"/>
	<line fill="none" stroke="#000000" stroke-linecap="round" stroke-linejoin="round" x1="14.0005" y1="3.5" x2="22.0005" y2="3.5"/>
</g>
<rect x="0.0005" y="0" fill="none" width="24" height="24"/>
</svg>
