<?xml version="1.0" encoding="utf-8"?>
<!-- Generator: Adobe Illustrator 18.1.0, SVG Export Plug-In . SVG Version: 6.00 Build 0)  -->
<svg version="1.1" id="Layer_1" xmlns="http://www.w3.org/2000/svg" xmlns:xlink="http://www.w3.org/1999/xlink" x="0px" y="0px"
	 width="24px" height="24px" viewBox="0 0 24 24" enable-background="new 0 0 24 24" xml:space="preserve">
<g>
	<path fill="none" stroke="#000000" stroke-linecap="round" stroke-linejoin="round" stroke-miterlimit="10" d="M15.9241,10.3467
		c2.7831-1.9166,6.0397-4.3771,4.0663-6.3509c-1.9515-1.9507-4.429,1.2308-6.3856,4.0594c0.6238-3.389,1.1574-7.3658-1.6153-7.3658
		c-2.7919,0-2.2358,4.0489-1.6667,7.2662C7.7978,4.3455,5.7316,2.2708,4.0065,3.9958c-2.0462,2.0466,1.5823,4.64,4.0656,6.3509
		C4.7031,9.7347,0.687,9.2291,0.687,11.992c0,2.8992,4.4144,2.1558,7.3662,1.6152C5.265,15.5341,2.0367,18.035,3.9939,19.993
		c2.0397,2.0391,4.6176-1.5534,6.3506-4.0662c-0.6131,3.3667-1.1158,7.3852,1.6454,7.3852c2.8962,0,2.1714-4.4179,1.5925-7.4871
		c2.0139,2.9466,4.4608,6.1273,6.42,4.1681c1.9524-1.9527-1.2307-4.429-4.0586-6.3857c3.2847,0.6021,7.3654,1.1885,7.3654-1.6152
		C23.3091,9.2307,19.3086,9.7317,15.9241,10.3467z"/>
	
		<circle fill="none" stroke="#000000" stroke-linecap="round" stroke-linejoin="round" stroke-miterlimit="10" cx="11.9288" cy="11.9824" r="2.3479"/>
</g>
<rect x="-0.0008" y="-0.0147" fill="none" width="24" height="24"/>
</svg>
