<?xml version="1.0" encoding="utf-8"?>
<!-- Generator: Adobe Illustrator 18.1.0, SVG Export Plug-In . SVG Version: 6.00 Build 0)  -->
<svg version="1.1" id="Layer_1" xmlns="http://www.w3.org/2000/svg" xmlns:xlink="http://www.w3.org/1999/xlink" x="0px" y="0px"
	 width="24px" height="24px" viewBox="0 0 24 24" enable-background="new 0 0 24 24" xml:space="preserve">
<g>
	<path fill="none" stroke="#000000" stroke-linecap="round" stroke-linejoin="round" stroke-miterlimit="10" d="M22.5172,14.5354
		v0.9361c0,3.3944-2.5189,6.0639-5.9133,6.0639H7.4305c-3.3944,0-5.9133-2.6695-5.9133-6.0639v-0.9361"/>
	
		<line fill="none" stroke="#000000" stroke-linecap="round" stroke-linejoin="round" stroke-miterlimit="10" x1="6.2904" y1="21.4309" x2="5.5054" y2="23.353"/>
	
		<line fill="none" stroke="#000000" stroke-linecap="round" stroke-linejoin="round" stroke-miterlimit="10" x1="17.7967" y1="21.4309" x2="18.5817" y2="23.353"/>
	
		<line fill="none" stroke="#000000" stroke-linecap="round" stroke-linejoin="round" stroke-miterlimit="10" x1="19.5172" y1="14.5354" x2="23.3654" y2="14.5354"/>
	
		<line fill="none" stroke="#000000" stroke-linecap="round" stroke-linejoin="round" stroke-miterlimit="10" x1="0.5686" y1="14.5354" x2="15.5172" y2="14.5354"/>
	
		<rect x="15.5172" y="13.5354" fill="none" stroke="#000000" stroke-linecap="round" stroke-linejoin="round" stroke-miterlimit="10" width="4" height="5"/>
	
		<line fill="none" stroke="#000000" stroke-linecap="round" stroke-linejoin="round" stroke-miterlimit="10" x1="15.5172" y1="16.5354" x2="19.5172" y2="16.5354"/>
	<path fill="none" stroke="#000000" stroke-linecap="round" stroke-linejoin="round" stroke-miterlimit="10" d="M5.0342,8.3077
		c0.7056,0,1.275-0.5666,1.275-1.2714c0-0.7056-0.5694-1.2714-1.275-1.2714c-0.7,0-1.269,0.5658-1.269,1.2714
		C3.7652,7.7411,4.3342,8.3077,5.0342,8.3077z"/>
	<path fill="none" stroke="#000000" stroke-linecap="round" stroke-linejoin="round" stroke-miterlimit="10" d="M10.4847,12.2773
		c0.9864,0,1.7814-0.792,1.7814-1.777c0-0.9849-0.795-1.7753-1.7814-1.7753c-0.9781,0-1.7723,0.7904-1.7723,1.7753
		C8.7125,11.4853,9.5067,12.2773,10.4847,12.2773z"/>
	<path fill="none" stroke="#000000" stroke-linecap="round" stroke-linejoin="round" stroke-miterlimit="10" d="M8.0445,3.1483
		c0.6058,0,1.0993-0.4941,1.0993-1.1024c0-0.6052-0.4936-1.1004-1.0993-1.1004c-0.6094,0-1.1024,0.4951-1.1024,1.1004
		C6.942,2.6542,7.4351,3.1483,8.0445,3.1483z"/>
</g>
<rect x="0.0142" y="0.0354" fill="none" width="24" height="24"/>
</svg>
