<?xml version="1.0" encoding="utf-8"?>
<!-- Generator: Adobe Illustrator 18.1.0, SVG Export Plug-In . SVG Version: 6.00 Build 0)  -->
<svg version="1.1" id="Layer_1" xmlns="http://www.w3.org/2000/svg" xmlns:xlink="http://www.w3.org/1999/xlink" x="0px" y="0px"
	 width="24px" height="24px" viewBox="0 0 24 24" enable-background="new 0 0 24 24" xml:space="preserve">
<g>
	<path fill="none" stroke="#000000" stroke-linecap="round" stroke-linejoin="round" d="M3.0246,8.8282
		c0,0,2.8328-4.907,8.9806-1.4442v9.1367"/>
	<path fill="none" stroke="#000000" stroke-linecap="round" stroke-linejoin="round" d="M21.4215,8.8146
		c0,0-5.1201-0.1639-3.5646,7.7062H6.1537c1.5555-7.87-3.5646-7.7062-3.5646-7.7062c-1.0074,0-1.824,0.8167-1.824,1.824
		c0,1.0074,0.8166,1.824,1.824,1.824c3.4165,0.7407,1.3055,7.0738,1.3055,7.0738H20.116c0,0-2.111-6.333,1.3055-7.0738
		c1.0074,0,1.824-0.8166,1.824-1.824C23.2455,9.6312,22.4289,8.8146,21.4215,8.8146z"/>
	<path fill="none" stroke="#000000" stroke-linecap="round" stroke-linejoin="round" d="M20.9859,8.8282
		c0,0-2.8328-4.907-8.9806-1.4442v9.1367"/>
	<polyline fill="none" stroke="#000000" stroke-linecap="round" stroke-linejoin="round" points="18.5449,21.4293 18.5449,22.5003 
		16.4956,22.5003 16.4956,21.4293 	"/>
	<polyline fill="none" stroke="#000000" stroke-linecap="round" stroke-linejoin="round" points="7.5438,21.4293 7.5438,22.5003 
		5.4945,22.5003 5.4945,21.4293 	"/>
</g>
<rect x="0.0142" y="0.0354" fill="none" width="24" height="24"/>
</svg>
