<?xml version="1.0" encoding="utf-8"?>
<!-- Generator: Adobe Illustrator 18.1.0, SVG Export Plug-In . SVG Version: 6.00 Build 0)  -->
<svg version="1.1" id="Layer_1" xmlns="http://www.w3.org/2000/svg" xmlns:xlink="http://www.w3.org/1999/xlink" x="0px" y="0px"
	 width="24px" height="24px" viewBox="0 0 24 24" enable-background="new 0 0 24 24" xml:space="preserve">
<g>
	<circle fill="none" stroke="#000000" stroke-linecap="round" stroke-linejoin="round" cx="8.5205" cy="2.0363" r="1.2921"/>
	
		<rect x="1.5111" y="9.797" transform="matrix(0.9661 -0.2582 0.2582 0.9661 -3.4323 3.5887)" fill="none" stroke="#000000" stroke-linecap="round" stroke-linejoin="round" stroke-miterlimit="10" width="20.8747" height="10.1334"/>
	
		<line fill="none" stroke="#000000" stroke-linecap="round" stroke-linejoin="round" x1="8.0185" y1="3.2262" x2="4.4801" y2="11.6149"/>
	
		<line fill="none" stroke="#000000" stroke-linecap="round" stroke-linejoin="round" x1="9.5493" y1="2.817" x2="16.8007" y2="8.3225"/>
	<path fill="none" stroke="#000000" stroke-linecap="round" stroke-linejoin="round" stroke-miterlimit="10" d="M12.9427,15.586
		c0.2921,0.1288,0.7023,0.175,0.9707,0.104c0.4295-0.1137,0.7037-0.4852,0.6125-0.8298c-0.0912-0.3446-0.5081-0.4167-0.9428-0.4181
		c-0.4527-0.0096-0.8516-0.0735-0.9428-0.4181c-0.0912-0.3446,0.183-0.7161,0.6125-0.8298c0.2892-0.0765,0.575-0.0167,0.7587,0.1358
		"/>
	<polyline fill="none" stroke="#000000" stroke-linecap="round" stroke-linejoin="round" points="6.6981,14.9251 7.3606,17.4282 
		8.985,16.9983 	"/>
	
		<ellipse transform="matrix(0.9667 -0.2559 0.2559 0.9667 -3.553 3.1982)" fill="none" stroke="#000000" stroke-linecap="round" stroke-linejoin="round" cx="10.5148" cy="15.2541" rx="1.2107" ry="1.2946"/>
	<polyline fill="none" stroke="#000000" stroke-linecap="round" stroke-linejoin="round" points="16.6854,12.2817 15.0654,12.7105 
		15.7279,15.2136 17.3479,14.7848 	"/>
	
		<line fill="none" stroke="#000000" stroke-linecap="round" stroke-linejoin="round" x1="15.3966" y1="13.962" x2="16.7879" y2="13.5938"/>
	<path fill="none" stroke="#000000" stroke-linecap="round" stroke-linejoin="round" d="M19.3127,14.2603
		c0.6506-0.1722,1.0299-0.8712,0.8473-1.5612c-0.1826-0.6901-0.8581-1.1099-1.5087-0.9377v0l-0.845,0.2237l0.6625,2.5031
		l0.845-0.2237L19.3127,14.2603z"/>
	<path fill="none" stroke="#000000" stroke-linecap="round" stroke-linejoin="round" d="M5.744,15.5513
		c-0.2758-0.1569-0.6075-0.2107-0.9345-0.1241c-0.6732,0.1782-1.0708,0.882-0.8882,1.5721c0.1826,0.6901,0.8764,1.105,1.5496,0.9269
		c0.3399-0.09,0.6094-0.3141,0.7696-0.6026"/>
</g>
<rect x="-0.0137" y="0" fill="none" width="24" height="24"/>
</svg>
