<?xml version="1.0" encoding="utf-8"?>
<!-- Generator: Adobe Illustrator 18.1.0, SVG Export Plug-In . SVG Version: 6.00 Build 0)  -->
<svg version="1.1" id="Layer_1" xmlns="http://www.w3.org/2000/svg" xmlns:xlink="http://www.w3.org/1999/xlink" x="0px" y="0px"
	 width="24px" height="24px" viewBox="0 0 24 24" enable-background="new 0 0 24 24" xml:space="preserve">
<g>
	<path fill="none" stroke="#000000" stroke-linecap="round" stroke-linejoin="round" stroke-miterlimit="10" d="M6.8028,20.8746
		v0.0005c0.0003,0.4034,0.3346,0.7303,0.7469,0.7303c0.4126,0.0002,0.7469-0.3269,0.7472-0.7307v-0.0006
		c-0.0002-0.4036-0.3346-0.7308-0.7471-0.7313C7.1371,20.1433,6.8025,20.4706,6.8028,20.8746z"/>
	<path fill="none" stroke="#000000" stroke-linecap="round" stroke-linejoin="round" d="M12.8767,5.0117
		c-0.0003-1.8201-0.947-3.4231-2.3845-4.3655c-0.0004,0.5051,0.0001,2.1298-0.0003,3.423L9.0547,6.2097L5.9669,6.21L4.53,4.0691
		c0-3.3399,0-0.3404,0-3.4226C3.0924,1.5886,2.1456,3.1919,2.1459,5.0117c-0.0003,1.8647,1.7766,3.502,3.2747,4.4326L4.6385,20.5432
		c0,1.5527,1.2862,2.8103,2.8724,2.8103c1.5859-0.0003,2.8724-1.2582,2.8724-2.8103L9.6012,9.4445
		C11.0993,8.5132,12.8763,6.8765,12.8767,5.0117z"/>
	<path fill="none" stroke="#000000" stroke-linecap="round" stroke-linejoin="round" d="M19.6905,14.0878
		c0-0.5225,0.3602-0.9734,0.8895-1.2169v-2.0728h-6.0737v2.0728c0.5292,0.2435,0.8895,0.6944,0.8895,1.2169
		c0,0.5225-0.3602,0.9734-0.8895,1.2169v5.661c0,1.3386,1.3596,2.4238,3.0369,2.4238s3.0369-1.0852,3.0369-2.4238v-5.661
		C20.0508,15.0613,19.6905,14.6104,19.6905,14.0878z"/>
	
		<line fill="none" stroke="#000000" stroke-linecap="round" stroke-linejoin="round" x1="17.5431" y1="10.7981" x2="17.5431" y2="3.0786"/>
	<polygon fill="none" stroke="#000000" stroke-linecap="round" stroke-linejoin="round" points="18.1475,0.4987 16.9388,0.4987 
		16.4727,1.6026 16.9388,3.0786 18.1475,3.0786 18.6136,1.6026 	"/>
	
		<line fill="none" stroke="#000000" stroke-linecap="round" stroke-linejoin="round" x1="17.5431" y1="16.1875" x2="17.5431" y2="20.8741"/>
</g>
<rect x="0" y="0" fill="none" width="24" height="24"/>
</svg>
