<?xml version="1.0" encoding="utf-8"?>
<!-- Generator: Adobe Illustrator 18.1.0, SVG Export Plug-In . SVG Version: 6.00 Build 0)  -->
<svg version="1.1" id="Layer_1" xmlns="http://www.w3.org/2000/svg" xmlns:xlink="http://www.w3.org/1999/xlink" x="0px" y="0px"
	 width="24px" height="24px" viewBox="0 0 24 24" enable-background="new 0 0 24 24" xml:space="preserve">
<g>
	<path fill="none" stroke="#000000" stroke-linecap="round" stroke-linejoin="round" stroke-miterlimit="10" d="M12.3806,8.7482
		c-2.0904-0.1321-3.7889-1.8694-3.7889-3.9931c0-2.2098,1.7914-4.0012,4.0012-4.0012s4.0012,1.7914,4.0012,4.0012
		c0,0.9206-0.3109,1.825-0.8334,2.5011"/>
	
		<circle fill="none" stroke="#000000" stroke-linecap="round" stroke-linejoin="round" stroke-miterlimit="10" cx="15.5041" cy="11.2488" r="4.0012"/>
	<g>
		<path fill="none" stroke="#000000" stroke-linecap="round" stroke-linejoin="round" d="M4.5564,17.6624
			c2.7443-0.446,5.5267-0.2728,6.4033-0.0156l5.5304,1.6229c1.5773,0.4627,0.8788,2.857-0.698,2.3939l-5.8103-1.7051"/>
		<path fill="none" stroke="#000000" stroke-linecap="round" stroke-linejoin="round" d="M17.28,19.9671l4.309-1.9643
			c1.5635-0.7127,2.5473,1.5786,1.067,2.2533l-5.8513,2.6673c-1.0001,0.4559-4.9728,0.7869-9.3823-1.1843
			c-0.7577-0.3386-2.0447,0.1012-2.8659,0.3119"/>
		<rect x="0.5378" y="16.5" fill="none" stroke="#000000" stroke-linecap="round" stroke-linejoin="round" width="4" height="7"/>
	</g>
	<path fill="none" stroke="#000000" stroke-linecap="round" stroke-linejoin="round" stroke-miterlimit="10" d="M14.091,12.7947
		c0.3795,0.3303,0.9648,0.5784,1.3872,0.5784c0.6759,0,1.2239-0.4791,1.2239-1.07c0-0.591-0.5851-0.8833-1.2239-1.07
		c-0.6621-0.2075-1.2239-0.4791-1.2239-1.07s0.5479-1.07,1.2239-1.07c0.4551,0,0.8522,0.2172,1.0631,0.5395"/>
	
		<line fill="none" stroke="#000000" stroke-linecap="round" stroke-linejoin="round" stroke-miterlimit="10" x1="15.4782" y1="8.5082" x2="15.4782" y2="9.0929"/>
	
		<line fill="none" stroke="#000000" stroke-linecap="round" stroke-linejoin="round" stroke-miterlimit="10" x1="15.4782" y1="13.3731" x2="15.4782" y2="13.9578"/>
	<path fill="none" stroke="#000000" stroke-linecap="round" stroke-linejoin="round" stroke-miterlimit="10" d="M11.4491,6.0945
		c0.3254,0.2832,0.8271,0.4959,1.1893,0.4959c0.5795,0,1.0492-0.4107,1.0492-0.9174s-0.5016-0.7573-1.0492-0.9174
		c-0.5676-0.1779-1.0492-0.4107-1.0492-0.9174s0.4698-0.9174,1.0492-0.9174c0.3902,0,0.7306,0.1862,0.9114,0.4625"/>
	
		<line fill="none" stroke="#000000" stroke-linecap="round" stroke-linejoin="round" stroke-miterlimit="10" x1="12.6383" y1="2.4197" x2="12.6383" y2="2.921"/>
	
		<line fill="none" stroke="#000000" stroke-linecap="round" stroke-linejoin="round" stroke-miterlimit="10" x1="12.6383" y1="6.5904" x2="12.6383" y2="7.0917"/>
</g>
<rect x="-0.0136" y="0" fill="none" width="24" height="24"/>
</svg>
