<?xml version="1.0" encoding="utf-8"?>
<!-- Generator: Adobe Illustrator 18.1.1, SVG Export Plug-In . SVG Version: 6.00 Build 0)  -->
<svg version="1.1" id="Layer_1" xmlns="http://www.w3.org/2000/svg" xmlns:xlink="http://www.w3.org/1999/xlink" x="0px" y="0px"
	 width="24px" height="24px" viewBox="0 0 24 24" enable-background="new 0 0 24 24" xml:space="preserve">
<g>
	<rect x="0.5" y="9.5" fill="none" stroke="#000000" stroke-linecap="round" stroke-linejoin="round" width="23" height="14"/>
	<circle fill="none" stroke="#000000" stroke-linecap="round" stroke-linejoin="round" cx="7.5" cy="16.5" r="4.9"/>
	<line fill="none" stroke="#000000" stroke-linecap="round" stroke-linejoin="round" x1="11.1" y1="9.5" x2="7.5" y2="3.7"/>
	<ellipse fill="none" stroke="#000000" stroke-linecap="round" stroke-linejoin="round" cx="7" cy="3" rx="0.9" ry="0.9"/>
	<ellipse fill="none" stroke="#000000" stroke-linecap="round" stroke-linejoin="round" cx="15.8" cy="1.4" rx="0.9" ry="0.9"/>
	<line fill="none" stroke="#000000" stroke-linecap="round" stroke-linejoin="round" x1="11.4" y1="9.5" x2="15.4" y2="2.2"/>
	<path fill="none" stroke="#000000" stroke-linecap="round" stroke-linejoin="round" d="M20.5,12.5l-1,0.5c-0.5-0.3-1.2-0.3-1.6,0.2
		c-0.5,0.5-0.5,1.3,0,1.9c0.5,0.5,1.3,0.5,1.9,0c0.4-0.4,0.5-1.1,0.2-1.6L20.5,12.5z"/>
	<line fill="none" stroke="#000000" stroke-linecap="round" stroke-linejoin="round" x1="6.5" y1="15.5" x2="6.4" y2="15.5"/>
	<line fill="none" stroke="#000000" stroke-linecap="round" stroke-linejoin="round" x1="6.5" y1="13.3" x2="6.4" y2="13.3"/>
	<line fill="none" stroke="#000000" stroke-linecap="round" stroke-linejoin="round" x1="8.4" y1="15.5" x2="8.5" y2="15.5"/>
	<line fill="none" stroke="#000000" stroke-linecap="round" stroke-linejoin="round" x1="8.4" y1="13.3" x2="8.5" y2="13.3"/>
	<line fill="none" stroke="#000000" stroke-linecap="round" stroke-linejoin="round" x1="4.4" y1="15.5" x2="4.3" y2="15.5"/>
	<line fill="none" stroke="#000000" stroke-linecap="round" stroke-linejoin="round" x1="10.5" y1="15.5" x2="10.6" y2="15.5"/>
	<line fill="none" stroke="#000000" stroke-linecap="round" stroke-linejoin="round" x1="5.5" y1="16.5" x2="5.4" y2="16.5"/>
	<line fill="none" stroke="#000000" stroke-linecap="round" stroke-linejoin="round" x1="7.4" y1="16.5" x2="7.5" y2="16.5"/>
	<line fill="none" stroke="#000000" stroke-linecap="round" stroke-linejoin="round" x1="9.5" y1="16.5" x2="9.6" y2="16.5"/>
	<line fill="none" stroke="#000000" stroke-linecap="round" stroke-linejoin="round" x1="5.5" y1="14.4" x2="5.4" y2="14.4"/>
	<line fill="none" stroke="#000000" stroke-linecap="round" stroke-linejoin="round" x1="7.4" y1="14.4" x2="7.5" y2="14.4"/>
	<line fill="none" stroke="#000000" stroke-linecap="round" stroke-linejoin="round" x1="9.5" y1="14.4" x2="9.6" y2="14.4"/>
	<line fill="none" stroke="#000000" stroke-linecap="round" stroke-linejoin="round" x1="5.5" y1="18.6" x2="5.4" y2="18.6"/>
	<line fill="none" stroke="#000000" stroke-linecap="round" stroke-linejoin="round" x1="8.4" y1="19.7" x2="8.5" y2="19.7"/>
	<line fill="none" stroke="#000000" stroke-linecap="round" stroke-linejoin="round" x1="7.4" y1="18.6" x2="7.5" y2="18.6"/>
	<line fill="none" stroke="#000000" stroke-linecap="round" stroke-linejoin="round" x1="6.5" y1="19.7" x2="6.4" y2="19.7"/>
	<line fill="none" stroke="#000000" stroke-linecap="round" stroke-linejoin="round" x1="9.5" y1="18.6" x2="9.6" y2="18.6"/>
	<line fill="none" stroke="#000000" stroke-linecap="round" stroke-linejoin="round" x1="6.5" y1="17.6" x2="6.4" y2="17.6"/>
	<line fill="none" stroke="#000000" stroke-linecap="round" stroke-linejoin="round" x1="8.4" y1="17.6" x2="8.5" y2="17.6"/>
	<line fill="none" stroke="#000000" stroke-linecap="round" stroke-linejoin="round" x1="4.4" y1="17.6" x2="4.3" y2="17.6"/>
	<line fill="none" stroke="#000000" stroke-linecap="round" stroke-linejoin="round" x1="10.5" y1="17.6" x2="10.6" y2="17.6"/>
</g>
<rect fill="none" width="24" height="24"/>
</svg>
