<?xml version="1.0" encoding="utf-8"?>
<!-- Generator: Adobe Illustrator 18.1.0, SVG Export Plug-In . SVG Version: 6.00 Build 0)  -->
<svg version="1.1" id="Layer_1" xmlns="http://www.w3.org/2000/svg" xmlns:xlink="http://www.w3.org/1999/xlink" x="0px" y="0px"
	 width="24px" height="24px" viewBox="0 0 24 24" enable-background="new 0 0 24 24" xml:space="preserve">
<g>
	<polyline fill="none" stroke="#000000" stroke-linecap="round" stroke-linejoin="round" stroke-miterlimit="10" points="
		16.5191,0.5001 16.5191,4.5001 20.5191,4.5001 	"/>
	<path fill="none" stroke="#000000" stroke-linecap="round" stroke-linejoin="round" stroke-miterlimit="10" d="M20.5191,22.7002
		c0,0.4366-0.354,0.7999-0.7915,0.7999H4.3064c-0.4366,0-0.7872-0.3633-0.7872-0.7999V1.3057c0-0.4364,0.3506-0.8056,0.7872-0.8056
		h12.2127c0.2076,0,0.3041,0.0894,0.4517,0.2349l3.3124,3.2687c0.1503,0.1483,0.2359,0.285,0.2359,0.4964V22.7002z"/>
	
		<line fill="none" stroke="#000000" stroke-linecap="round" stroke-linejoin="round" stroke-miterlimit="10" x1="17.3771" y1="19.5003" x2="6.6715" y2="19.5003"/>
	
		<line fill="none" stroke="#000000" stroke-linecap="round" stroke-linejoin="round" stroke-miterlimit="10" x1="17.3771" y1="16.5003" x2="6.6715" y2="16.5003"/>
	
		<line fill="none" stroke="#000000" stroke-linecap="round" stroke-linejoin="round" stroke-miterlimit="10" x1="10.1861" y1="13.5003" x2="6.6715" y2="13.5003"/>
	
		<line fill="none" stroke="#000000" stroke-linecap="round" stroke-linejoin="round" stroke-miterlimit="10" x1="10.1861" y1="10.5003" x2="6.6715" y2="10.5003"/>
	
		<line fill="none" stroke="#000000" stroke-linecap="round" stroke-linejoin="round" stroke-miterlimit="10" x1="10.1861" y1="7.5" x2="6.6715" y2="7.5"/>
	
		<rect x="12.4495" y="7.5" fill="none" stroke="#000000" stroke-linecap="round" stroke-linejoin="round" width="4.9933" height="6.0003"/>
	
		<line fill="none" stroke="#000000" stroke-linecap="round" stroke-linejoin="round" x1="12.4495" y1="7.5" x2="17.4428" y2="13.5003"/>
	
		<line fill="none" stroke="#000000" stroke-linecap="round" stroke-linejoin="round" x1="17.4428" y1="7.5" x2="12.4495" y2="13.5003"/>
</g>
<rect x="0" y="0.0001" fill="none" width="24" height="24"/>
</svg>
