<?xml version="1.0" encoding="utf-8"?>
<!-- Generator: Adobe Illustrator 18.1.0, SVG Export Plug-In . SVG Version: 6.00 Build 0)  -->
<svg version="1.1" id="Layer_1" xmlns="http://www.w3.org/2000/svg" xmlns:xlink="http://www.w3.org/1999/xlink" x="0px" y="0px"
	 width="24px" height="24px" viewBox="0 0 24 24" enable-background="new 0 0 24 24" xml:space="preserve">
<g>
	<path fill="none" stroke="#000000" stroke-linecap="round" stroke-linejoin="round" stroke-miterlimit="10" d="M15.3645,14.031
		c-0.048-0.144-0.1707-0.2197-0.4134-0.14c-0.0443,0.0145-0.982,0.3268-1.0287,0.3272c-0.8751,0.0098-2.0741-3.9492-1.3398-4.2211
		l1.0704-0.3519c0.1391-0.0461,0.2132-0.1965,0.1679-0.3326l-1.1764-3.5732c-0.0825-0.2526-0.2864-0.1828-0.4999-0.1125
		c-1.6095,0.5306-4.041,0.8171-1.8549,7.4601c2.177,6.614,4.2632,5.5411,6.1097,4.8374c0.1324-0.0501,0.2012-0.1957,0.1571-0.3297
		L15.3645,14.031z"/>
	<path fill="none" stroke="#000000" stroke-linecap="round" stroke-linejoin="round" stroke-miterlimit="10" d="M21.5048,1.306
		c0-0.4463-0.3614-0.808-0.8071-0.808H4.312c-0.4458,0-0.8071,0.3618-0.8071,0.808V22.69c0,0.4463,0.3614,0.808,0.8071,0.808
		h16.3857c0.4458,0,0.8071-0.3618,0.8071-0.808V1.306z"/>
	
		<line fill="none" stroke="#000000" stroke-linecap="round" stroke-linejoin="round" stroke-miterlimit="10" x1="1.4897" y1="20.4977" x2="4.5888" y2="20.4977"/>
	
		<line fill="none" stroke="#000000" stroke-linecap="round" stroke-linejoin="round" stroke-miterlimit="10" x1="1.4897" y1="17.4974" x2="4.5888" y2="17.4974"/>
	
		<line fill="none" stroke="#000000" stroke-linecap="round" stroke-linejoin="round" stroke-miterlimit="10" x1="1.4897" y1="14.4971" x2="4.5888" y2="14.4971"/>
	
		<line fill="none" stroke="#000000" stroke-linecap="round" stroke-linejoin="round" stroke-miterlimit="10" x1="1.4897" y1="11.4968" x2="4.5888" y2="11.4968"/>
	
		<line fill="none" stroke="#000000" stroke-linecap="round" stroke-linejoin="round" stroke-miterlimit="10" x1="1.4897" y1="8.4965" x2="4.5888" y2="8.4965"/>
	
		<line fill="none" stroke="#000000" stroke-linecap="round" stroke-linejoin="round" stroke-miterlimit="10" x1="1.4897" y1="5.4962" x2="4.5888" y2="5.4962"/>
	
		<line fill="none" stroke="#000000" stroke-linecap="round" stroke-linejoin="round" stroke-miterlimit="10" x1="1.4897" y1="2.4959" x2="4.5888" y2="2.4959"/>
</g>
<rect x="0" y="-0.002" fill="none" width="24" height="24"/>
</svg>
