<?xml version="1.0" encoding="utf-8"?>
<!-- Generator: Adobe Illustrator 18.1.0, SVG Export Plug-In . SVG Version: 6.00 Build 0)  -->
<svg version="1.1" id="Layer_1" xmlns="http://www.w3.org/2000/svg" xmlns:xlink="http://www.w3.org/1999/xlink" x="0px" y="0px"
	 width="24px" height="24px" viewBox="0 0 24 24" enable-background="new 0 0 24 24" xml:space="preserve">
<g>
	
		<line fill="none" stroke="#000000" stroke-linecap="round" stroke-linejoin="round" stroke-miterlimit="10" x1="2.526" y1="8.3431" x2="5.7211" y2="5.1479"/>
	
		<line fill="none" stroke="#000000" stroke-linecap="round" stroke-linejoin="round" stroke-miterlimit="10" x1="4.2782" y1="10.0953" x2="5.5563" y2="8.8173"/>
	
		<line fill="none" stroke="#000000" stroke-linecap="round" stroke-linejoin="round" stroke-miterlimit="10" x1="13.9851" y1="19.8022" x2="15.2631" y2="18.5241"/>
	
		<line fill="none" stroke="#000000" stroke-linecap="round" stroke-linejoin="round" stroke-miterlimit="10" x1="15.8115" y1="21.6286" x2="19.0066" y2="18.4334"/>
	<path fill="none" stroke="#000000" stroke-linecap="round" stroke-linejoin="round" stroke-miterlimit="10" d="M3.3509,15.7186
		c-0.0639,0.0639-2.5971,6.5114-2.5971,6.5114c-0.217,0.5239,0.3668,1.1661,0.934,0.9341c0,0,6.4811-2.5005,6.5452-2.5645"/>
	
		<line fill="none" stroke="#000000" stroke-linecap="round" stroke-linejoin="round" stroke-miterlimit="10" x1="1.7386" y1="19.7308" x2="4.1998" y2="22.192"/>
	<path fill="none" stroke="#000000" stroke-linecap="round" stroke-linejoin="round" stroke-miterlimit="10" d="M22.309,3.7358
		l-2.2705-2.2705c-0.6835-0.6835-1.7916-0.6835-2.4751,0L3.331,15.6977L8.2533,20.62L22.309,6.5642
		C23.0901,5.7832,23.0901,4.5169,22.309,3.7358z"/>
	<g>
		<polyline fill="none" stroke="#000000" stroke-linecap="round" stroke-linejoin="round" stroke-miterlimit="10" points="
			11.1533,5.3235 6.4822,0.6522 0.6306,6.5038 5.3017,11.1748 		"/>
		<polyline fill="none" stroke="#000000" stroke-linecap="round" stroke-linejoin="round" stroke-miterlimit="10" points="
			12.7879,18.661 17.6099,23.4829 23.4614,17.6316 18.6395,12.8095 		"/>
	</g>
	
		<line fill="none" stroke="#000000" stroke-linecap="round" stroke-linejoin="round" stroke-miterlimit="10" x1="6.1437" y1="18.5105" x2="17.7462" y2="6.908"/>
</g>
<rect x="0" y="-0.0001" fill="none" width="24" height="24"/>
</svg>
