<?xml version="1.0" encoding="utf-8"?>
<!-- Generator: Adobe Illustrator 18.1.0, SVG Export Plug-In . SVG Version: 6.00 Build 0)  -->
<svg version="1.1" id="Layer_1" xmlns="http://www.w3.org/2000/svg" xmlns:xlink="http://www.w3.org/1999/xlink" x="0px" y="0px"
	 width="24px" height="24px" viewBox="0 0 24 24" enable-background="new 0 0 24 24" xml:space="preserve">
<g>
	
		<line fill="none" stroke="#000000" stroke-linecap="round" stroke-linejoin="round" x1="12.4799" y1="14.4255" x2="12.4799" y2="16.7484"/>
	
		<line fill="none" stroke="#000000" stroke-linecap="round" stroke-linejoin="round" stroke-miterlimit="10" x1="14.4912" y1="15.0618" x2="14.4912" y2="17.0575"/>
	<path fill="none" stroke="#000000" stroke-linecap="round" stroke-linejoin="round" d="M16.5024,16.3772l0-1.3153
		c0-1.2686-2.0113-1.2652-2.0113,0v-0.6363c0-1.2686-2.0113-1.2652-2.0113,0v-3.8729c0-1.269-2.0112-1.2652-2.0112,0v8.9047
		c0,0-1.2671-4.175-2.7926-3.2908c-1.4338,0.8311,2.4655,5.9583,3.3017,7.158"/>
	<path fill="none" stroke="#000000" stroke-linecap="round" stroke-linejoin="round" d="M17.4467,23.3245
		c1.22-3.3768,1.067-6.9473,1.067-6.9473c0-1.266-2.0112-1.2678-2.0112,0v1.0256"/>
	
		<line fill="none" stroke="#000000" stroke-linecap="round" stroke-linejoin="round" x1="12.4799" y1="14.4255" x2="12.4799" y2="16.7484"/>
	
		<line fill="none" stroke="#000000" stroke-linecap="round" stroke-linejoin="round" stroke-miterlimit="10" x1="14.4912" y1="15.0618" x2="14.4912" y2="17.0575"/>
	<path fill="none" stroke="#000000" stroke-linecap="round" stroke-linejoin="round" d="M16.5024,16.3772l0-1.3153
		c0-1.2686-2.0113-1.2652-2.0113,0v-0.6363c0-1.2686-2.0113-1.2652-2.0113,0v-3.8729c0-1.269-2.0112-1.2652-2.0112,0v8.9047
		c0,0-1.2671-4.175-2.7926-3.2908c-1.4338,0.8311,2.4655,5.9583,3.3017,7.158"/>
	<path fill="none" stroke="#000000" stroke-linecap="round" stroke-linejoin="round" d="M17.4467,23.3245
		c1.22-3.3768,1.067-6.9473,1.067-6.9473c0-1.266-2.0112-1.2678-2.0112,0v1.0256"/>
	<g>
		
			<circle fill="none" stroke="#000000" stroke-linecap="round" stroke-linejoin="round" stroke-miterlimit="10" cx="6.611" cy="1.7198" r="1.0784"/>
		
			<circle fill="none" stroke="#000000" stroke-linecap="round" stroke-linejoin="round" stroke-miterlimit="10" cx="11.4058" cy="1.7198" r="1.0784"/>
		
			<circle fill="none" stroke="#000000" stroke-linecap="round" stroke-linejoin="round" stroke-miterlimit="10" cx="16.2006" cy="1.7198" r="1.0784"/>
		
			<circle fill="none" stroke="#000000" stroke-linecap="round" stroke-linejoin="round" stroke-miterlimit="10" cx="6.611" cy="6.0439" r="1.0784"/>
		
			<circle fill="none" stroke="#000000" stroke-linecap="round" stroke-linejoin="round" stroke-miterlimit="10" cx="11.4058" cy="6.0439" r="1.0784"/>
		
			<circle fill="none" stroke="#000000" stroke-linecap="round" stroke-linejoin="round" stroke-miterlimit="10" cx="16.2006" cy="6.0439" r="1.0784"/>
		
			<circle fill="none" stroke="#000000" stroke-linecap="round" stroke-linejoin="round" stroke-miterlimit="10" cx="6.611" cy="10.3679" r="1.0784"/>
		
			<circle fill="none" stroke="#000000" stroke-linecap="round" stroke-linejoin="round" stroke-miterlimit="10" cx="16.2006" cy="10.3679" r="1.0784"/>
	</g>
</g>
<rect x="0.0293" fill="none" width="24" height="24"/>
</svg>
