<?xml version="1.0" encoding="utf-8"?>
<!-- Generator: Adobe Illustrator 18.1.0, SVG Export Plug-In . SVG Version: 6.00 Build 0)  -->
<svg version="1.1" id="Layer_1" xmlns="http://www.w3.org/2000/svg" xmlns:xlink="http://www.w3.org/1999/xlink" x="0px" y="0px"
	 width="24px" height="24px" viewBox="0 0 24 24" enable-background="new 0 0 24 24" xml:space="preserve">
<g>
	
		<line fill="none" stroke="#000000" stroke-linecap="round" stroke-linejoin="round" stroke-miterlimit="10" x1="3.515" y1="9.5" x2="8.5092" y2="9.5"/>
	
		<line fill="none" stroke="#000000" stroke-linecap="round" stroke-linejoin="round" stroke-miterlimit="10" x1="3.515" y1="12.5" x2="8.5092" y2="12.5"/>
	
		<line fill="none" stroke="#000000" stroke-linecap="round" stroke-linejoin="round" stroke-miterlimit="10" x1="3.515" y1="15.5" x2="8.5092" y2="15.5"/>
	<path fill="none" stroke="#000000" stroke-linecap="round" stroke-linejoin="round" stroke-miterlimit="10" d="M11.5,20.7318
		V5.8601c0-0.9227-2.3541-1.6706-5.5003-1.6706C2.8541,4.1895,0.5,4.9374,0.5,5.8601v14.8717c2-0.2893,3.4205-0.4559,5.4997-0.4559
		C8.0799,20.2759,10.5,20.4425,11.5,20.7318z"/>
	<path fill="none" stroke="#000000" stroke-linecap="round" stroke-linejoin="round" stroke-miterlimit="10" d="M14.5,4.3945
		c-1.8327,0.2776-3,0.8188-3,1.4656v14.8717c3-0.2893,3.9201-0.4559,6.0003-0.4559c2.0789,0,3.9997,0.1666,5.9997,0.4559V5.8601
		c0-0.6318-1.2363-1.1817-3-1.4656"/>
	<path fill="none" stroke="#000000" stroke-linecap="round" stroke-linejoin="round" stroke-miterlimit="10" d="M19.7251,13.8277
		l-1.8514-1.5642c-0.147-0.1285-0.3969-0.1295-0.5451-0.0025l-2.0117,1.5801c-0.2548,0.2184-0.817,0.0374-0.817-0.2983V2.5h6
		v11.0319C20.5,13.8694,19.9792,14.0498,19.7251,13.8277z"/>
</g>
<rect x="0" y="0" fill="none" width="24" height="24"/>
</svg>
