<?xml version="1.0" encoding="utf-8"?>
<!-- Generator: Adobe Illustrator 18.1.0, SVG Export Plug-In . SVG Version: 6.00 Build 0)  -->
<svg version="1.1" id="Layer_1" xmlns="http://www.w3.org/2000/svg" xmlns:xlink="http://www.w3.org/1999/xlink" x="0px" y="0px"
	 width="24px" height="24px" viewBox="0 0 24 24" enable-background="new 0 0 24 24" xml:space="preserve">
<g>
	<polyline fill="none" stroke="#000000" stroke-linecap="round" stroke-linejoin="round" stroke-miterlimit="10" points="
		18.6288,11.7435 17.5035,18.4783 3.7948,16.1877 5.176,7.9218 13.373,9.3267 	"/>
	<path fill="none" stroke="#000000" stroke-linecap="round" stroke-linejoin="round" stroke-miterlimit="10" d="M4.1666,13.9625
		c1.2289,0.2053,2.0587,1.3681,1.8534,2.597"/>
	<path fill="none" stroke="#000000" stroke-linecap="round" stroke-linejoin="round" stroke-miterlimit="10" d="M15.1683,18.0402
		c0.2276-1.2181,1.4294-2.1187,2.7295-1.9215"/>
	<path fill="none" stroke="#000000" stroke-linecap="round" stroke-linejoin="round" stroke-miterlimit="10" d="M7.4012,8.2936
		c-0.2053,1.2289-1.3681,2.0587-2.597,1.8534"/>
	
		<circle fill="none" stroke="#000000" stroke-linecap="round" stroke-linejoin="round" stroke-miterlimit="10" cx="16.5553" cy="9.3267" r="3.1823"/>
	<path fill="none" stroke="#000000" stroke-linecap="round" stroke-linejoin="round" stroke-miterlimit="10" d="M19.9613,4.0726
		c4.368,4.368,4.368,11.4745,0,15.8425S8.4862,24.2837,4.1182,19.9157S-0.2491,8.4405,4.1188,4.0726S15.5933-0.2954,19.9613,4.0726z
		"/>
	
		<line fill="none" stroke="#000000" stroke-linecap="round" stroke-linejoin="round" stroke-miterlimit="10" x1="19.9614" y1="19.9151" x2="4.1188" y2="4.0726"/>
	<path fill="none" stroke="#000000" stroke-linecap="round" stroke-linejoin="round" stroke-miterlimit="10" d="M10.0806,14.3476
		c0.2842,0.3633,0.7679,0.6882,1.1481,0.7616c0.6084,0.1174,1.1848-0.2186,1.2875-0.7505c0.1027-0.5319-0.3732-0.8967-0.9157-1.1757
		c-0.5599-0.3018-1.0183-0.6438-0.9157-1.1757c0.1027-0.5319,0.6791-0.8679,1.2875-0.7505
		c0.4096,0.0791,0.7293,0.3436,0.8631,0.6703"/>
	
		<line fill="none" stroke="#000000" stroke-linecap="round" stroke-linejoin="round" stroke-miterlimit="10" x1="12.0739" y1="10.7304" x2="11.9723" y2="11.2567"/>
	
		<line fill="none" stroke="#000000" stroke-linecap="round" stroke-linejoin="round" stroke-miterlimit="10" x1="11.2157" y1="15.1767" x2="11.1141" y2="15.703"/>
	<path fill="none" stroke="#000000" stroke-linecap="round" stroke-linejoin="round" stroke-miterlimit="10" d="M15.877,10.1189
		c0.1972,0.1716,0.5012,0.3005,0.7207,0.3005c0.3511,0,0.6358-0.2489,0.6358-0.5559c0-0.307-0.3039-0.4589-0.6358-0.5559
		c-0.3439-0.1078-0.6358-0.2489-0.6358-0.5559s0.2847-0.5559,0.6358-0.5559c0.2364,0,0.4427,0.1128,0.5523,0.2803"/>
	
		<line fill="none" stroke="#000000" stroke-linecap="round" stroke-linejoin="round" stroke-miterlimit="10" x1="16.5977" y1="7.892" x2="16.5977" y2="8.1958"/>
	
		<line fill="none" stroke="#000000" stroke-linecap="round" stroke-linejoin="round" stroke-miterlimit="10" x1="16.5977" y1="10.4584" x2="16.5977" y2="10.7621"/>
</g>
<rect x="0.0075" y="-0.006" fill="none" width="24" height="24"/>
</svg>
