<?xml version="1.0" encoding="utf-8"?>
<!-- Generator: Adobe Illustrator 18.1.0, SVG Export Plug-In . SVG Version: 6.00 Build 0)  -->
<svg version="1.1" id="Layer_1" xmlns="http://www.w3.org/2000/svg" xmlns:xlink="http://www.w3.org/1999/xlink" x="0px" y="0px"
	 width="24px" height="24px" viewBox="0 0 24 24" enable-background="new 0 0 24 24" xml:space="preserve">
<g>
	
		<rect x="14.5005" y="14.5" fill="none" stroke="#000000" stroke-linecap="round" stroke-linejoin="round" stroke-miterlimit="10" width="7.0001" height="2"/>
	<path fill="none" stroke="#000000" stroke-linecap="round" stroke-linejoin="round" stroke-miterlimit="10" d="M20.5005,14.5
		v-1.3017c0-3.6985-2.709-6.6983-6.9429-6.6983h-3.0571v-1h-3v1h-7v5h13.0571c0.9639,0,1.9429,0.7344,1.9429,1.6983V14.5"/>
	<path fill="none" stroke="#000000" stroke-linecap="round" stroke-linejoin="round" stroke-miterlimit="10" d="M12.4238,1.5
		c0,0.5914-0.379,1-0.8466,1H6.2664c-0.4676,0-0.8466-0.4086-0.8466-1l0,0c0-0.5914,0.379-1,0.8466-1h5.3109
		C12.0448,0.5,12.4238,0.9086,12.4238,1.5z"/>
	<path fill="none" stroke="#000000" stroke-linecap="round" stroke-linejoin="round" stroke-miterlimit="10" d="M18.0005,18.5273
		c-0.0244,0-1.5162,2.391-1.5162,3.2283c0,0.8375,0.6788,1.5163,1.5162,1.5163s1.5163-0.6788,1.5163-1.5163
		C19.5168,20.9182,18.025,18.5273,18.0005,18.5273z"/>
	
		<line fill="none" stroke="#000000" stroke-linecap="round" stroke-linejoin="round" stroke-miterlimit="10" x1="8.9352" y1="2.5" x2="8.9352" y2="4"/>
</g>
<rect x="0.0005" y="0" fill="none" width="24" height="24"/>
</svg>
