<?xml version="1.0" encoding="utf-8"?>
<!-- Generator: Adobe Illustrator 18.1.0, SVG Export Plug-In . SVG Version: 6.00 Build 0)  -->
<svg version="1.1" id="Layer_1" xmlns="http://www.w3.org/2000/svg" xmlns:xlink="http://www.w3.org/1999/xlink" x="0px" y="0px"
	 width="24px" height="24px" viewBox="0 0 24 24" enable-background="new 0 0 24 24" xml:space="preserve">
<g>
	<polyline fill="none" stroke="#000000" stroke-linecap="round" stroke-linejoin="round" points="3.5211,14.4365 3.5211,23.4596 
		20.4487,23.4596 20.4487,14.4365 	"/>
	<polyline fill="none" stroke="#000000" stroke-linecap="round" stroke-linejoin="round" points="13.599,12.5031 21.5146,12.5031 
		21.5146,7.5295 2.4558,7.5295 2.4558,12.5031 10.4637,12.5031 	"/>
	<path fill="none" stroke="#000000" stroke-linecap="round" stroke-linejoin="round" d="M11.9764,7.5295
		c0,0-9.0472-3.4671-5.3157-6.3986C10.1697-1.6259,11.9764,7.5295,11.9764,7.5295z"/>
	<path fill="none" stroke="#000000" stroke-linecap="round" stroke-linejoin="round" d="M11.9764,7.5295
		c0,0,1.3587-7.827,4.5473-5.5908C19.521,4.0409,11.9764,7.5295,11.9764,7.5295z"/>
	
		<rect x="10.4637" y="7.5295" fill="none" stroke="#000000" stroke-linecap="round" stroke-linejoin="round" stroke-miterlimit="10" width="3.1353" height="15.93"/>
</g>
<rect x="-0.0136" y="0" fill="none" width="24" height="24"/>
</svg>
