<?xml version="1.0" encoding="utf-8"?>
<!-- Generator: Adobe Illustrator 18.1.0, SVG Export Plug-In . SVG Version: 6.00 Build 0)  -->
<svg version="1.1" id="Layer_1" xmlns="http://www.w3.org/2000/svg" xmlns:xlink="http://www.w3.org/1999/xlink" x="0px" y="0px"
	 width="24px" height="24px" viewBox="0 0 24 24" enable-background="new 0 0 24 24" xml:space="preserve">
<g>
	<path fill="none" stroke="#000000" stroke-linecap="round" stroke-linejoin="round" stroke-miterlimit="10" d="M16.392,15.4298
		v-0.6224c0-0.131-0.0798-0.2486-0.2003-0.295c-1.414-0.5464-2.9836-1.2249-3.1155-1.6477v-0.4435
		c0.2933-0.3001,0.5247-0.7185,0.6616-1.2085c0.3265-0.2293,0.4123-0.7052,0.1385-1.0421V9.1777
		c0-1.025-0.5708-1.7266-1.8756-1.7266c-1.2712,0-1.8763,0.7016-1.8763,1.7266v0.9932c-0.2729,0.3359-0.1881,0.8117,0.1385,1.0416
		c0.1369,0.4901,0.3684,0.9086,0.6619,1.2087v0.4435c-0.1315,0.4223-1.7016,1.1009-3.1155,1.6477
		c-0.1205,0.0468-0.2003,0.164-0.2003,0.295v0.6224"/>
	<path fill="none" stroke="#000000" stroke-linecap="round" stroke-linejoin="round" d="M13.123,0.5004h-2.245
		c-0.3906,0-0.8078,0.3859-0.7493,0.8514l0.4478,3.5422c0.0448,0.3577,0.367,0.6064,0.7493,0.6064h1.3492
		c0.3823,0,0.7045-0.2391,0.7493-0.5969l0.4481-3.5668C13.9306,0.8742,13.4998,0.5004,13.123,0.5004z"/>
	<path fill="none" stroke="#000000" stroke-linecap="round" stroke-linejoin="round" d="M8.0005,4.5004H6.3579
		c-0.9849,0-1.8574,0.7505-1.8574,1.7354v15.639c0,0.9849,0.8724,1.6256,1.8574,1.6256h11.2853
		c0.9849,0,1.8574-0.6408,1.8574-1.6256V6.2358c0-0.9849-0.8724-1.7354-1.8574-1.7354h-1.6426"/>
	
		<line fill="none" stroke="#000000" stroke-linecap="round" stroke-linejoin="round" x1="12.609" y1="20.5004" x2="16.392" y2="20.5004"/>
	
		<line fill="none" stroke="#000000" stroke-linecap="round" stroke-linejoin="round" x1="7.609" y1="20.5004" x2="9.609" y2="20.5004"/>
	
		<line fill="none" stroke="#000000" stroke-linecap="round" stroke-linejoin="round" x1="4.5005" y1="17.5004" x2="19.5005" y2="17.5004"/>
	
		<line fill="none" stroke="#000000" stroke-linecap="round" stroke-linejoin="round" stroke-miterlimit="10" x1="12.0005" y1="2.5216" x2="12.0005" y2="2.5216"/>
</g>
<rect x="0.0005" y="0.0004" fill="none" width="24" height="24"/>
</svg>
