<?xml version="1.0" encoding="utf-8"?>
<!-- Generator: Adobe Illustrator 18.1.1, SVG Export Plug-In . SVG Version: 6.00 Build 0)  -->
<svg version="1.1" id="Layer_1" xmlns="http://www.w3.org/2000/svg" xmlns:xlink="http://www.w3.org/1999/xlink" x="0px" y="0px"
	 width="24px" height="24px" viewBox="0 0 24 24" enable-background="new 0 0 24 24" xml:space="preserve">
<g>
	<path fill="none" stroke="#000000" stroke-linecap="round" stroke-linejoin="round" stroke-miterlimit="10" d="M23.5,2.9
		c0-1.3-1.1-2.4-2.4-2.4H2.9c-1.3,0-2.4,1.1-2.4,2.4v18.2c0,1.3,1.1,2.4,2.4,2.4h18.2c1.3,0,2.4-1.1,2.4-2.4
		C23.5,21.1,23.5,2.9,23.5,2.9z"/>
	
		<line fill="none" stroke="#000000" stroke-linecap="round" stroke-linejoin="round" stroke-miterlimit="10" x1="0.5" y1="6.5" x2="23.5" y2="6.5"/>
	
		<line fill="none" stroke="#000000" stroke-linecap="round" stroke-linejoin="round" stroke-miterlimit="10" x1="7.6" y1="3.6" x2="7.5" y2="3.6"/>
	
		<line fill="none" stroke="#000000" stroke-linecap="round" stroke-linejoin="round" stroke-miterlimit="10" x1="16.4" y1="3.6" x2="16.5" y2="3.6"/>
	<polyline fill="none" stroke="#000000" stroke-linecap="round" stroke-linejoin="round" stroke-miterlimit="10" points="14.4,11.3 
		16.5,10.5 16.5,19.4 	"/>
	<path fill="none" stroke="#000000" stroke-linecap="round" stroke-linejoin="round" stroke-miterlimit="10" d="M6.7,10.5H12
		l-3.5,4.3c0,0,3.9-0.3,3.5,2.7c-0.4,3-4.7,2.3-5.7,0.5"/>
</g>
<rect fill="none" width="24" height="24"/>
</svg>
