<?xml version="1.0" encoding="utf-8"?>
<!-- Generator: Adobe Illustrator 18.1.0, SVG Export Plug-In . SVG Version: 6.00 Build 0)  -->
<svg version="1.1" id="Layer_1" xmlns="http://www.w3.org/2000/svg" xmlns:xlink="http://www.w3.org/1999/xlink" x="0px" y="0px"
	 width="24px" height="24px" viewBox="0 0 24 24" enable-background="new 0 0 24 24" xml:space="preserve">
<g>
	<path fill="none" stroke="#000000" stroke-linecap="round" stroke-linejoin="round" stroke-miterlimit="10" d="M16.6169,21.5555
		L9.199,23.3081c-1.9763,0.4669-3.9782-0.7559-4.4487-2.7175L1.5602,7.2893c-0.4704-1.9615,0.7616-3.9484,2.738-4.4154l2.792-0.6577
		"/>
	<path fill="none" stroke="#000000" stroke-linecap="round" stroke-linejoin="round" stroke-miterlimit="10" d="M21.5142,17.8894
		c0,2.0136-1.6324,3.646-3.646,3.646h-7.708c-2.0136,0-3.646-1.6324-3.646-3.646V4.1814c0-2.0136,1.6324-3.646,3.646-3.646h7.708
		c2.0136,0,3.646,1.6324,3.646,3.646V17.8894z"/>
	
		<line fill="none" stroke="#000000" stroke-linecap="round" stroke-linejoin="round" stroke-miterlimit="10" x1="9.0142" y1="11.5354" x2="19.0142" y2="11.5354"/>
	<polyline fill="none" stroke="#000000" stroke-linecap="round" stroke-linejoin="round" stroke-miterlimit="10" points="
		13.5393,4.9007 14.4891,4.5592 14.4891,8.5467 	"/>
	<path fill="none" stroke="#000000" stroke-linecap="round" stroke-linejoin="round" stroke-miterlimit="10" d="M15.5252,18.4884
		h-2.7538l2.0038-1.8842c1.8428-1.7035-0.6588-3.4322-1.8749-1.512"/>
</g>
<rect x="0.0142" y="0.0354" fill="none" width="24" height="24"/>
</svg>
