<?xml version="1.0" encoding="utf-8"?>
<!-- Generator: Adobe Illustrator 18.1.0, SVG Export Plug-In . SVG Version: 6.00 Build 0)  -->
<svg version="1.1" id="Layer_1" xmlns="http://www.w3.org/2000/svg" xmlns:xlink="http://www.w3.org/1999/xlink" x="0px" y="0px"
	 width="24px" height="24px" viewBox="0 0 24 24" enable-background="new 0 0 24 24" xml:space="preserve">
<g>
	<path fill="none" stroke="#000000" stroke-linecap="round" stroke-linejoin="round" stroke-miterlimit="10" d="M4.1075,10.1772
		c-0.2276,1.1743-0.3488,2.4057-0.3488,3.6751c0,2.7151,0.5546,5.2563,1.5182,7.4372c0.3484,0.7887,0.75,1.5302,1.1992,2.2153
		h11.1879c0.4491-0.6851,0.8507-1.4266,1.1992-2.2153c0.9636-2.181,1.5182-4.7221,1.5182-7.4372
		c0-1.4537-0.159-2.8575-0.4546-4.1828"/>
	<path fill="none" stroke="#000000" stroke-linecap="round" stroke-linejoin="round" stroke-miterlimit="10" d="M18.5142,1.2135
		c0-0.375-0.304-0.679-0.679-0.679H6.1932c-0.375,0-0.679,0.304-0.679,0.679v2.6421c0,0.375,0.304,0.679,0.679,0.679h11.6421
		c0.375,0,0.679-0.304,0.679-0.679V1.2135z"/>
	<path fill="none" stroke="#000000" stroke-linecap="round" stroke-linejoin="round" stroke-miterlimit="10" d="M6.5786,4.5346
		c0,0-4.3507,2.553-3.1247,3.9027c1.1376,1.2525,1.7198-1.2556,2.9639-1.2091C7.662,7.2747,6.5748,8.7802,8.2581,8.53
		c1.6832-0.2502,1.5713-3.3015,2.9575-1.7669s2.7401,1.9532,3.4719,0.372c0.7318-1.5812,2.1768-0.6796,3.5489,0.5296
		c1.3721,1.2091,2.8351,0.1779,1.8471-0.8658s-2.2482-2.2643-2.2482-2.2643H6.5786z"/>
	<path fill="none" stroke="#000000" stroke-linecap="round" stroke-linejoin="round" d="M16.5142,12.5346H14.079
		c-0.1961-1-1.0654-1.738-2.1088-1.738s-1.9127,0.738-2.1088,1.738H7.5142v6h9V12.5346z"/>
</g>
<rect x="0.0142" y="0.0346" fill="none" width="24" height="24"/>
</svg>
