<?xml version="1.0" encoding="utf-8"?>
<!-- Generator: Adobe Illustrator 18.1.0, SVG Export Plug-In . SVG Version: 6.00 Build 0)  -->
<svg version="1.1" id="Layer_1" xmlns="http://www.w3.org/2000/svg" xmlns:xlink="http://www.w3.org/1999/xlink" x="0px" y="0px"
	 width="24px" height="24px" viewBox="0 0 24 24" enable-background="new 0 0 24 24" xml:space="preserve">
<g>
	<g>
		<path fill="none" stroke="#000000" stroke-linecap="round" stroke-linejoin="round" d="M17.5211,6.231l2.6132-2.2515
			c0.649-0.4912,0.719-1.5325,0.2434-2.2026l0,0c-0.4756-0.6702-1.3872-0.8154-2.0363-0.3242L17.5,2.1569"/>
		<path fill="none" stroke="#000000" stroke-linecap="round" stroke-linejoin="round" d="M17.5,10.8694l3.9042-3.2673
			c0.6593-0.4767,0.751-1.5159,0.2897-2.1965l0,0c-0.4614-0.6809-1.3699-0.8464-2.0291-0.3699L17.5,6.7017"/>
		<path fill="none" stroke="#000000" stroke-linecap="round" stroke-linejoin="round" d="M17.5087,18.6006
			c1.6918-0.9946,3.2216-2.2146,3.2216-2.2146c0.6909-0.5188,1.2502-1.1099,1.0725-1.9202
			c-0.178-0.8104-0.9874-1.2705-1.7722-1.0869l1.7029-1.1313c0.7785-0.5904,0.9548-1.3884,0.5933-2.1306l0,0
			c-0.4341-0.7566-1.2374-1.0413-1.9563-0.6678l-2.8617,1.9476"/>
		
			<line fill="none" stroke="#000000" stroke-linecap="round" stroke-linejoin="round" x1="17.5087" y1="15.0545" x2="20.0303" y2="13.3791"/>
	</g>
	<path fill="none" stroke="#000000" stroke-linecap="round" stroke-linejoin="round" d="M6.5,11.2887
		c0,0-0.4688-8.8471-3.5199-7.6743c-1.6511,0.6347,0.6734,7.3723-0.949,11.4092c-1.2133,3.0192-0.1517,7.5852,5.2606,8.2849
		c1.5328,0.1982,7.103-2.8085,7.103-2.8085"/>
	<path fill="none" stroke="#000000" stroke-linecap="round" stroke-linejoin="round" stroke-miterlimit="10" d="M15.7202,0.5H8.2135
		C7.2747,0.5,6.5,1.3192,6.5,2.288v16.4601C6.5,19.7175,7.2747,20.5,8.2135,20.5h7.5067c0.9388,0,1.7798-0.7826,1.7798-1.7519V2.288
		C17.5,1.3192,16.659,0.5,15.7202,0.5z"/>
	<line fill="none" stroke="#000000" stroke-linecap="round" stroke-linejoin="round" x1="12" y1="19.0163" x2="12" y2="19.0163"/>
	
		<line fill="none" stroke="#000000" stroke-linecap="round" stroke-linejoin="round" stroke-miterlimit="10" x1="6.5" y1="3.5" x2="17.4182" y2="3.5"/>
	
		<line fill="none" stroke="#000000" stroke-linecap="round" stroke-linejoin="round" stroke-miterlimit="10" x1="6.5" y1="17.5009" x2="17.4182" y2="17.5009"/>
</g>
<rect x="0" y="0" fill="none" width="24" height="24"/>
</svg>
