<?xml version="1.0" encoding="utf-8"?>
<!-- Generator: Adobe Illustrator 18.1.0, SVG Export Plug-In . SVG Version: 6.00 Build 0)  -->
<svg version="1.1" id="Layer_1" xmlns="http://www.w3.org/2000/svg" xmlns:xlink="http://www.w3.org/1999/xlink" x="0px" y="0px"
	 width="24px" height="24px" viewBox="0 0 24 24" enable-background="new 0 0 24 24" xml:space="preserve">
<g>
	<path fill="none" stroke="#000000" stroke-linecap="round" stroke-linejoin="round" d="M0.7,14.0713
		c0-6.6245,5.4513-11.9466,12.0153-11.5289c5.5161,0.3511,10.0496,4.8657,10.5271,10.498c0.2235,2.6371-0.4203,5.1095-1.6718,7.153
		c-0.489,0.7985-1.3619,1.2658-2.283,1.2658H4.6993c-0.9234,0-1.797-0.4702-2.2868-1.271C1.3275,18.4145,0.7,16.3181,0.7,14.0713z"
		/>
	
		<line fill="none" stroke="#000000" stroke-linecap="round" stroke-linejoin="round" x1="19.9809" y1="14.4385" x2="20.855" y2="14.4385"/>
	
		<line fill="none" stroke="#000000" stroke-linecap="round" stroke-linejoin="round" x1="17.8241" y1="8.4767" x2="18.4822" y2="7.8035"/>
	
		<line fill="none" stroke="#000000" stroke-linecap="round" stroke-linejoin="round" x1="12.0118" y1="5.8114" x2="12.0118" y2="4.9552"/>
	
		<line fill="none" stroke="#000000" stroke-linecap="round" stroke-linejoin="round" x1="6.0155" y1="8.4767" x2="5.3684" y2="7.8146"/>
	
		<line fill="none" stroke="#000000" stroke-linecap="round" stroke-linejoin="round" x1="4.0604" y1="14.4391" x2="3.1497" y2="14.4391"/>
	<path fill="none" stroke="#000000" stroke-linecap="round" stroke-linejoin="round" stroke-miterlimit="10" d="M11.9743,18.4391
		c-0.9137,0.0104-1.6461-0.722-1.6357-1.6357c0.0104-0.9137,0.7595-1.6629,1.6732-1.6732c0.9137-0.0104,1.6461,0.722,1.6357,1.6357
		C13.6372,17.6796,12.8881,18.4287,11.9743,18.4391z"/>
	
		<line fill="none" stroke="#000000" stroke-linecap="round" stroke-linejoin="round" stroke-miterlimit="10" x1="12.0118" y1="15.1114" x2="12.0118" y2="8.8117"/>
</g>
<rect x="-0.0106" y="0.0002" fill="none" width="24" height="24"/>
</svg>
