<?xml version="1.0" encoding="utf-8"?>
<!-- Generator: Adobe Illustrator 18.1.0, SVG Export Plug-In . SVG Version: 6.00 Build 0)  -->
<svg version="1.1" id="Layer_1" xmlns="http://www.w3.org/2000/svg" xmlns:xlink="http://www.w3.org/1999/xlink" x="0px" y="0px"
	 width="24px" height="24px" viewBox="0 0 24 24" enable-background="new 0 0 24 24" xml:space="preserve">
<g>
	<path fill="none" stroke="#000000" stroke-linecap="round" stroke-linejoin="round" stroke-miterlimit="10" d="M18.4085,2.9928
		c0,0-0.352-0.1126-1.6356-1.2423c-1.2166-1.0706-3.3881,0.0315-3.6164,2.5223c-0.2283,2.4908-3.7477,6.1611-3.7477,6.1611
		s-1.3575,1.4078,0.7793,3.2932c2.1368,1.8854,4.3993,4.5501,5.4049,3.3937s7.2903-9.955,7.592-11.1114
		C23.4866,4.8531,21.7017,4.3754,18.4085,2.9928z"/>
	<path fill="none" stroke="#000000" stroke-linecap="round" stroke-linejoin="round" stroke-miterlimit="10" d="M13.3795,16.6146
		c0,0,7.3187-9.3566,8.182-12.3126"/>
	
		<circle fill="none" stroke="#000000" stroke-linecap="round" stroke-linejoin="round" stroke-miterlimit="10" cx="15.7822" cy="4.1863" r="0.7696"/>
	<path fill="none" stroke="#000000" stroke-linecap="round" stroke-linejoin="round" stroke-miterlimit="10" d="M10.0298,15.6049
		L3.367,22.2676c-0.5726,0.5726-1.5047,0.5727-2.0774,0.0001"/>
	<path fill="none" stroke="#000000" stroke-linecap="round" stroke-linejoin="round" stroke-miterlimit="10" d="M1.2897,22.2677
		c-0.5729-0.5729-0.5727-1.505-0.0001-2.0776l6.6628-6.6628"/>
	
		<line fill="none" stroke="#000000" stroke-linecap="round" stroke-linejoin="round" stroke-miterlimit="10" x1="2.321" y1="21.2363" x2="2.321" y2="21.2363"/>
</g>
<rect x="0" y="0.0197" fill="none" width="24" height="24"/>
</svg>
