<?xml version="1.0" encoding="utf-8"?>
<!-- Generator: Adobe Illustrator 18.1.0, SVG Export Plug-In . SVG Version: 6.00 Build 0)  -->
<svg version="1.1" id="Layer_1" xmlns="http://www.w3.org/2000/svg" xmlns:xlink="http://www.w3.org/1999/xlink" x="0px" y="0px"
	 width="24px" height="24px" viewBox="0 0 24 24" enable-background="new 0 0 24 24" xml:space="preserve">
<g>
	
		<circle fill="none" stroke="#000000" stroke-linecap="round" stroke-linejoin="round" stroke-miterlimit="10" cx="9.6813" cy="15.4685" r="0.691"/>
	
		<circle fill="none" stroke="#000000" stroke-linecap="round" stroke-linejoin="round" stroke-miterlimit="10" cx="14.4532" cy="15.4685" r="0.691"/>
	<path fill="none" stroke="#000000" stroke-linecap="round" stroke-linejoin="round" d="M4.3025,12.2618
		c0,0.8781,0.148,1.2121,0.4165,1.9992c-0.4642,0.2078-0.7882,0.6728-0.7882,1.2142c0,0.7348,0.5957,1.3306,1.3306,1.3306
		c0.0078,0,0.0154-0.0011,0.0233-0.0012c0.2754,3.5061,4.2611,6.4657,6.7826,6.4657c2.5882,0,6.5072-2.9596,6.7826-6.4657
		c0.0078,0.0001,0.0154,0.0012,0.0234,0.0012c0.7348,0,1.3305-0.5958,1.3305-1.3306c0-0.5415-0.324-1.0065-0.7882-1.2142
		c0.2686-0.7871,0.4165-1.1768,0.4165-2.0549"/>
	<path fill="none" stroke="#000000" stroke-linecap="round" stroke-linejoin="round" stroke-miterlimit="10" d="M6.7445,12.745
		l-0.1931,2.0325c0,0-0.7261-1.0032-1.8324-0.5164"/>
	<path fill="none" stroke="#000000" stroke-linecap="round" stroke-linejoin="round" stroke-miterlimit="10" d="M17.4219,12.6876
		l0.1864,2.0899c0,0,0.7261-1.0032,1.8324-0.5164"/>
	<path fill="none" stroke="#000000" stroke-linecap="round" stroke-linejoin="round" stroke-miterlimit="10" d="M9.3653,18.3875
		c0.2719,0.2577,1.482,0.9364,2.6716-0.3638c1.1966,1.3079,2.4139,0.6134,2.6762,0.3593"/>
	<path fill="none" stroke="#000000" stroke-linecap="round" stroke-linejoin="round" stroke-miterlimit="10" d="M23.2291,11.282
		c0,0-4.9321-2.0021-5.4873-6.1443c-0.5553-4.1422-2.6033-6.1322-4.5401-2.9341c-0.5226,0.863-1.8072,0.863-2.3298,0
		C8.9351-0.9945,6.8871,0.9955,6.3318,5.1377S0.8445,11.282,0.8445,11.282C12.3838,15.2745,23.2291,11.282,23.2291,11.282z"/>
	<path fill="none" stroke="#000000" stroke-linecap="round" stroke-linejoin="round" stroke-miterlimit="10" d="M6.029,9.404
		c4.7616,0.8604,9.129,0.4689,11.9101,0.0031"/>
	
		<line fill="none" stroke="#000000" stroke-linecap="round" stroke-linejoin="round" stroke-miterlimit="3.864" x1="11.3445" y1="20.5132" x2="12.7901" y2="20.5132"/>
</g>
<rect x="0.0005" y="0.0004" fill="none" width="24" height="24"/>
</svg>
