<?xml version="1.0" encoding="utf-8"?>
<!-- Generator: Adobe Illustrator 18.1.0, SVG Export Plug-In . SVG Version: 6.00 Build 0)  -->
<svg version="1.1" id="Layer_1" xmlns="http://www.w3.org/2000/svg" xmlns:xlink="http://www.w3.org/1999/xlink" x="0px" y="0px"
	 width="24px" height="24px" viewBox="0 0 24 24" enable-background="new 0 0 24 24" xml:space="preserve">
<g>
	<polyline fill="none" stroke="#000000" stroke-linecap="round" stroke-linejoin="round" points="12.9125,13.8786 13.4808,23.5123 
		10.4454,23.5123 10.9461,15.1748 	"/>
	<path fill="none" stroke="#000000" stroke-linecap="round" stroke-linejoin="round" d="M10.5574,11.4347
		C10.269,10.88,9.9862,9.9131,9.6358,8.4244C8.7121,4.5007,8.571,1.1768,9.3207,1.0003c0.7496-0.1765,2.1061,2.8613,3.0298,6.785
		c0.3464,1.4714,0.4805,2.4282,0.4732,3.0537"/>
	<path fill="none" stroke="#000000" stroke-linecap="round" stroke-linejoin="round" d="M12.2849,13.5293
		c-0.2937,0.5399-0.947,1.2978-2.2065,2.4825c-2.9362,2.7618-5.7443,4.5459-6.2719,3.9849
		c-0.5277-0.561,1.4249-3.2546,4.3611-6.0164c1.0093-0.9494,1.7375-1.5263,2.2708-1.852"/>
	<path fill="none" stroke="#000000" stroke-linecap="round" stroke-linejoin="round" d="M13.3088,11.4347
		c0.6243,0.0442,1.556,0.2382,2.9356,0.6535c3.8599,1.162,6.809,2.7017,6.587,3.4392c-0.222,0.7375-3.531,0.3934-7.3909-0.7686
		c-1.6887-0.5084-2.659-0.8722-3.1556-1.2295"/>
	
		<circle fill="none" stroke="#000000" stroke-linecap="round" stroke-linejoin="round" stroke-miterlimit="10" cx="11.9403" cy="12.053" r="1.5017"/>
	
		<line fill="none" stroke="#000000" stroke-linecap="round" stroke-linejoin="round" x1="10.1298" y1="23.5123" x2="13.7964" y2="23.5123"/>
</g>
<rect x="0.0005" y="0" fill="none" width="24" height="24"/>
</svg>
