<?xml version="1.0" encoding="utf-8"?>
<!-- Generator: Adobe Illustrator 18.1.0, SVG Export Plug-In . SVG Version: 6.00 Build 0)  -->
<svg version="1.1" id="Layer_1" xmlns="http://www.w3.org/2000/svg" xmlns:xlink="http://www.w3.org/1999/xlink" x="0px" y="0px"
	 width="24px" height="24px" viewBox="0 0 24 24" enable-background="new 0 0 24 24" xml:space="preserve">
<g>
	
		<rect x="8.5173" y="0.5346" fill="none" stroke="#000000" stroke-linecap="round" stroke-linejoin="round" width="6.9999" height="3"/>
	<path fill="none" stroke="#000000" stroke-linecap="round" stroke-linejoin="round" d="M14.5172,6.4382L14.5172,6.4382V3.5346h-5
		v2.9037l0,0c0,0-4,1.567-4,3.6369v11.2566c0,1.2046,1.0987,2.2029,2.3033,2.2029h8.3934c1.2046,0,2.3033-0.9983,2.3033-2.2029
		V10.0751C18.5172,8.1078,14.5172,6.4382,14.5172,6.4382z"/>
	
		<line fill="none" stroke="#000000" stroke-linecap="round" stroke-linejoin="round" stroke-miterlimit="10" x1="9.5413" y1="16.9582" x2="14.4933" y2="19.4427"/>
	
		<line fill="none" stroke="#000000" stroke-linecap="round" stroke-linejoin="round" stroke-miterlimit="10" x1="12.8384" y1="12.7417" x2="12.8384" y2="12.7277"/>
	
		<line fill="none" stroke="#000000" stroke-linecap="round" stroke-linejoin="round" stroke-miterlimit="10" x1="11.2522" y1="12.7488" x2="11.2522" y2="12.7347"/>
	<path fill="none" stroke="#000000" stroke-linecap="round" stroke-linejoin="round" stroke-miterlimit="10" d="M14.575,11.9656
		c0-1.4126-1.1451-2.3014-2.5577-2.3014c-1.4126,0-2.5577,0.8889-2.5577,2.3014c0,0.7314,0.4455,1.6046,0.9991,2.2783
		c0.3618,1.6726,2.7555,1.6726,3.1172,0C14.1295,13.5702,14.575,12.697,14.575,11.9656z"/>
	
		<line fill="none" stroke="#000000" stroke-linecap="round" stroke-linejoin="round" stroke-miterlimit="10" x1="9.7507" y1="16.5313" x2="9.3316" y2="17.3771"/>
	
		<line fill="none" stroke="#000000" stroke-linecap="round" stroke-linejoin="round" stroke-miterlimit="10" x1="14.7029" y1="19.0197" x2="14.2837" y2="19.8656"/>
	
		<line fill="none" stroke="#000000" stroke-linecap="round" stroke-linejoin="round" stroke-miterlimit="10" x1="14.4931" y1="16.9582" x2="9.5412" y2="19.4427"/>
	
		<line fill="none" stroke="#000000" stroke-linecap="round" stroke-linejoin="round" stroke-miterlimit="10" x1="14.2837" y1="16.5313" x2="14.7029" y2="17.3771"/>
	
		<line fill="none" stroke="#000000" stroke-linecap="round" stroke-linejoin="round" stroke-miterlimit="10" x1="9.3316" y1="19.0197" x2="9.7507" y2="19.8656"/>
</g>
<rect x="0.0142" y="0.0346" fill="none" width="24" height="24"/>
</svg>
