<?xml version="1.0" encoding="utf-8"?>
<!-- Generator: Adobe Illustrator 18.1.0, SVG Export Plug-In . SVG Version: 6.00 Build 0)  -->
<svg version="1.1" id="Layer_1" xmlns="http://www.w3.org/2000/svg" xmlns:xlink="http://www.w3.org/1999/xlink" x="0px" y="0px"
	 width="24px" height="24px" viewBox="0 0 24 24" enable-background="new 0 0 24 24" xml:space="preserve">
<g>
	<path fill="none" stroke="#000000" stroke-linecap="round" stroke-linejoin="round" stroke-miterlimit="10" d="M14.8862,9.5859
		c1.3459,0.4994,3.2967,1.2517,7.2836,0.9856c0.7646-0.051,1.3616,0.6494,1.1878,1.3957
		c-0.6303,2.7074-2.3893,8.2904-6.4674,10.2694c-1.3757,0.6676-3,0.3366-4.0048-0.8161c-1.2809-1.4695-1.9063-3.3846-2.1649-5.308"
		/>
	<path fill="none" stroke="#000000" stroke-linecap="round" stroke-linejoin="round" stroke-miterlimit="10" d="M15.2529,14.5867
		c-0.0994,0.4877-0.6091,0.7955-1.1385,0.6877s-1.2858-0.8896-1.1864-1.3773s1.0169-0.4966,1.5463-0.3887
		C15.0036,13.6162,15.3522,14.099,15.2529,14.5867z"/>
	<path fill="none" stroke="#000000" stroke-linecap="round" stroke-linejoin="round" stroke-miterlimit="10" d="M17.3857,15.0213
		c-0.0994,0.4877,0.2492,0.9705,0.7786,1.0783c0.5294,0.1079,1.5314-0.3155,1.6307-0.8032
		c0.0994-0.4877-0.7414-0.8549-1.2709-0.9628C17.9948,14.2258,17.485,14.5337,17.3857,15.0213z"/>
	<path fill="none" stroke="#000000" stroke-linecap="round" stroke-linejoin="round" stroke-miterlimit="10" d="M16.7916,20.0519
		c0.4679,0.262,1.0072-0.2365,0.7944-0.7288c-0.3274-0.7575-1.0066-1.3478-1.8769-1.5252
		c-0.8703-0.1774-1.7264,0.1001-2.3241,0.6691c-0.3884,0.3697-0.0872,1.0396,0.4459,0.9815
		C14.8551,19.337,15.8927,19.5485,16.7916,20.0519z"/>
	<path fill="none" stroke="#000000" stroke-linecap="round" stroke-linejoin="round" stroke-miterlimit="10" d="M12.3709,1.4064
		c0.766-0.2507,1.5564,0.3081,1.5732,1.1138c0.0611,2.923-0.2809,9.0699-3.9229,12.1464c-1.2286,1.0378-2.97,1.1225-4.2935,0.2088
		C1.8009,12.1645,0.8658,6.0718,0.644,3.1595C0.583,2.3581,1.3115,1.7257,2.0968,1.8973C5.8593,2.7194,8.8113,2.5713,12.3709,1.4064
		z"/>
	<path fill="none" stroke="#000000" stroke-linecap="round" stroke-linejoin="round" stroke-miterlimit="10" d="M6.3648,7.2957
		c0.0254,0.5228-0.4141,0.969-0.9816,0.9966c-0.5676,0.0276-1.5415-0.5726-1.567-1.0954C3.7908,6.674,4.7235,6.4266,5.2911,6.399
		C5.8586,6.3714,6.3394,6.7728,6.3648,7.2957z"/>
	<path fill="none" stroke="#000000" stroke-linecap="round" stroke-linejoin="round" stroke-miterlimit="10" d="M8.6513,7.1845
		c0.0254,0.5228,0.5061,0.9243,1.0737,0.8967c0.5676-0.0276,1.4787-0.7195,1.4533-1.2423c-0.0254-0.5228-0.9778-0.6786-1.5453-0.651
		C9.0654,6.2154,8.6259,6.6616,8.6513,7.1845z"/>
	<path fill="none" stroke="#000000" stroke-linecap="round" stroke-linejoin="round" stroke-miterlimit="10" d="M6.0786,10.556
		c-0.5449-0.1455-0.965,0.5028-0.6203,0.9492c0.5304,0.6869,1.3761,1.1121,2.3091,1.0667c0.933-0.0454,1.7334-0.5506,2.1947-1.2857
		c0.2998-0.4777-0.1812-1.0822-0.7095-0.8845C8.2378,10.7814,7.1254,10.8355,6.0786,10.556z"/>
</g>
<rect x="0.0142" y="0.0354" fill="none" width="24" height="24"/>
</svg>
