<?xml version="1.0" encoding="utf-8"?>
<!-- Generator: Adobe Illustrator 18.1.0, SVG Export Plug-In . SVG Version: 6.00 Build 0)  -->
<svg version="1.1" id="Layer_1" xmlns="http://www.w3.org/2000/svg" xmlns:xlink="http://www.w3.org/1999/xlink" x="0px" y="0px"
	 width="24px" height="24px" viewBox="0 0 24 24" enable-background="new 0 0 24 24" xml:space="preserve">
<g>
	<path fill="none" stroke="#000000" stroke-linecap="round" stroke-linejoin="round" stroke-miterlimit="10" d="M16.8353,3.7553
		l3.2787-1.8882c1.0094-0.577,2.2959-0.2258,2.8732,0.783l0,0c0.5771,1.0097,0.2261,2.296-0.7836,2.873l-3.2695,1.9042"/>
	
		<line fill="none" stroke="#000000" stroke-linecap="round" stroke-linejoin="round" x1="16.3404" y1="2.8895" x2="19.4145" y2="8.2677"/>
	<path fill="none" stroke="#000000" stroke-linecap="round" stroke-linejoin="round" stroke-miterlimit="10" d="M2.5864,16.5885
		c-0.0299,0-1.8536,2.9224-1.8536,3.9465c0,1.0238,0.8301,1.8538,1.8536,1.8538c1.0238,0,1.8539-0.8299,1.8539-1.8538
		C4.4403,19.5109,2.6166,16.5885,2.5864,16.5885z"/>
	<polyline fill="none" stroke="#000000" stroke-linecap="round" stroke-linejoin="round" points="16.0011,5.2457 6.678,10.5057 
		2.6373,13.5017 3.2479,14.5703 7.8801,12.6082 17.1973,7.3685 	"/>
</g>
<rect x="0" y="-0.0001" fill="none" width="24" height="24"/>
</svg>
