<?xml version="1.0" encoding="utf-8"?>
<!-- Generator: Adobe Illustrator 18.1.0, SVG Export Plug-In . SVG Version: 6.00 Build 0)  -->
<svg version="1.1" id="Layer_1" xmlns="http://www.w3.org/2000/svg" xmlns:xlink="http://www.w3.org/1999/xlink" x="0px" y="0px"
	 width="24px" height="24px" viewBox="0 0 24 24" enable-background="new 0 0 24 24" xml:space="preserve">
<g>
	<path fill="none" stroke="#000000" stroke-linecap="round" stroke-linejoin="round" stroke-miterlimit="10" d="M18.2207,2.6881
		l-4.8324,5.7965l5.2361-1.2564c0.325-0.0798,0.5734,0.3097,0.3491,0.5714l-7.5727,8.7956l1.0257,0.3973
		c0.2953,0.1155,0.3,0.5324,0.0069,0.6534l-4.4778,1.8428c-0.2573,0.1084-0.5392-0.1208-0.4765-0.4026l1.0194-4.4512
		c0.0642-0.2862,0.4267-0.3663,0.6115-0.1481l0.7405,0.8785l3.3213-4.7552L8.7568,11.726c-0.2974,0.0745-0.5469-0.2445-0.3907-0.516
		l6.7554-9.9622c-0.9916-0.2869-2.0385-0.4439-3.1226-0.4439c-6.1939,0-11.215,5.0212-11.215,11.215
		c0,6.1939,5.0211,11.215,11.215,11.215c6.1939,0,11.215-5.0211,11.215-11.215C23.2139,8.1271,21.2308,4.6993,18.2207,2.6881z"/>
</g>
<rect x="0" y="0" fill="none" width="24" height="24"/>
</svg>
