<?xml version="1.0" encoding="utf-8"?>
<!-- Generator: Adobe Illustrator 18.1.0, SVG Export Plug-In . SVG Version: 6.00 Build 0)  -->
<svg version="1.1" id="Layer_1" xmlns="http://www.w3.org/2000/svg" xmlns:xlink="http://www.w3.org/1999/xlink" x="0px" y="0px"
	 width="24px" height="24px" viewBox="0 0 24 24" enable-background="new 0 0 24 24" xml:space="preserve">
<g>
	<path fill="none" stroke="#000000" stroke-linecap="round" stroke-linejoin="round" d="M7.1792,1.1777L1.145,7.2118
		C0.3904,7.9665,0.3907,9.2014,1.1447,9.9554L13.9564,22.767c0.7545,0.7545,1.9887,0.7542,2.7434-0.0005l6.0342-6.0342
		c0.7547-0.7547,0.755-1.9889,0.0005-2.7434L9.9228,1.1774C9.1687,0.4233,7.9338,0.423,7.1792,1.1777z"/>
	<circle fill="none" stroke="#000000" stroke-linecap="round" stroke-linejoin="round" cx="18.1187" cy="18.1514" r="0.8148"/>
	
		<rect x="4.255" y="5.3137" transform="matrix(0.7071 0.7071 -0.7071 0.7071 11.5111 -4.7489)" fill="none" stroke="#000000" stroke-linecap="round" stroke-linejoin="round" width="14.466" height="12.414"/>
	<path fill="none" stroke="#000000" stroke-linecap="round" stroke-linejoin="round" stroke-miterlimit="10" d="M20.402,8.5542
		c0.0937-2.8516-2.2249-5.1656-5.072-5.0721"/>
	<path fill="none" stroke="#000000" stroke-linecap="round" stroke-linejoin="round" stroke-miterlimit="10" d="M23.1602,8.2548
		c0.0921-4.2068-3.3197-7.623-7.5308-7.5308"/>
	<path fill="none" stroke="#000000" stroke-linecap="round" stroke-linejoin="round" stroke-miterlimit="10" d="M3.4467,15.3654
		c-0.0937,2.8516,2.2249,5.1656,5.072,5.0721"/>
	<path fill="none" stroke="#000000" stroke-linecap="round" stroke-linejoin="round" stroke-miterlimit="10" d="M0.6885,15.6649
		c-0.0921,4.2068,3.3197,7.623,7.5308,7.5308"/>
	<path fill="none" stroke="#000000" stroke-linecap="round" stroke-linejoin="round" stroke-miterlimit="10" d="M11.7499,14.7211
		c0.7557-0.0524,1.6429-0.4113,2.0926-0.861c0.7196-0.7196,0.7929-1.813,0.1638-2.4421c-0.6292-0.6292-1.5633-0.3175-2.4421,0.1638
		c-0.9257,0.4839-1.813,0.7929-2.4421,0.1638c-0.6292-0.6292-0.5558-1.7225,0.1638-2.4421c0.4845-0.4845,1.1385-0.676,1.7062-0.5574
		"/>
	
		<line fill="none" stroke="#000000" stroke-linecap="round" stroke-linejoin="round" stroke-miterlimit="10" x1="8.6633" y1="8.6808" x2="9.2859" y2="9.3033"/>
	
		<line fill="none" stroke="#000000" stroke-linecap="round" stroke-linejoin="round" stroke-miterlimit="10" x1="13.8426" y1="13.86" x2="14.4651" y2="14.4825"/>
</g>
<rect x="-0.0136" y="0.0031" fill="none" width="24" height="24"/>
<rect x="-0.0515" y="0.0031" fill="none" width="24" height="24"/>
</svg>
