<?xml version="1.0" encoding="utf-8"?>
<!-- Generator: Adobe Illustrator 18.1.0, SVG Export Plug-In . SVG Version: 6.00 Build 0)  -->
<svg version="1.1" id="Layer_1" xmlns="http://www.w3.org/2000/svg" xmlns:xlink="http://www.w3.org/1999/xlink" x="0px" y="0px"
	 width="24px" height="24px" viewBox="0 0 24 24" enable-background="new 0 0 24 24" xml:space="preserve">
<g>
	<polyline fill="none" stroke="#000000" stroke-linecap="round" stroke-linejoin="round" points="10.6918,18.3529 8.893,23.2951 
		7.0497,21.0435 4.1904,21.5835 6.0825,16.385 	"/>
	<polyline fill="none" stroke="#000000" stroke-linecap="round" stroke-linejoin="round" points="13.3353,18.3529 15.1341,23.2951 
		16.9774,21.0435 19.8367,21.5835 17.9446,16.385 	"/>
	<polygon fill="none" stroke="#000000" stroke-linecap="round" stroke-linejoin="round" points="18.8615,8.8222 20.1172,6.6472 
		17.9422,5.3914 17.9422,2.88 15.4308,2.88 14.175,0.705 12,1.9609 9.825,0.705 8.5693,2.88 6.0578,2.88 6.0578,5.3914 
		3.8828,6.6472 5.1386,8.8222 3.8828,10.9972 6.0578,12.2529 6.0578,14.7644 8.5693,14.7644 9.825,16.9394 12,15.6837 
		14.175,16.9394 15.4308,14.7644 17.9422,14.7644 17.9422,12.2529 20.1172,10.9972 	"/>
	<circle fill="none" stroke="#000000" stroke-linecap="round" stroke-linejoin="round" cx="12" cy="8.8222" r="4.586"/>
</g>
<rect x="0" y="0" fill="none" width="24" height="24"/>
</svg>
