<?xml version="1.0" encoding="utf-8"?>
<!-- Generator: Adobe Illustrator 18.1.0, SVG Export Plug-In . SVG Version: 6.00 Build 0)  -->
<svg version="1.1" id="Layer_1" xmlns="http://www.w3.org/2000/svg" xmlns:xlink="http://www.w3.org/1999/xlink" x="0px" y="0px"
	 width="24px" height="24px" viewBox="0 0 24 24" enable-background="new 0 0 24 24" xml:space="preserve">
<g>
	<circle fill="none" stroke="#000000" stroke-linecap="round" stroke-linejoin="round" cx="7.4511" cy="20.5" r="2.1127"/>
	<line fill="none" stroke="#000000" stroke-linecap="round" stroke-linejoin="round" x1="7.4511" y1="20.5" x2="7.4511" y2="20.5"/>
	
		<line fill="none" stroke="#000000" stroke-linecap="round" stroke-linejoin="round" x1="11.4846" y1="20.5" x2="22.9864" y2="20.5"/>
	<path fill="none" stroke="#000000" stroke-linecap="round" stroke-linejoin="round" d="M3.4577,20.4249L3.4577,20.4249
		c-1.5407,0-2.7897-1.2773-2.7897-2.853v-6.2185c0-1.5756,1.249-2.853,2.7897-2.853h10.8261c0,0,4.7136-0.0008,5.5737,11.9244"/>
	
		<line fill="none" stroke="#000000" stroke-linecap="round" stroke-linejoin="round" stroke-miterlimit="10" x1="0.8058" y1="18.5" x2="3.9864" y2="18.5"/>
	
		<line fill="none" stroke="#000000" stroke-linecap="round" stroke-linejoin="round" stroke-miterlimit="10" x1="10.9864" y1="18.5" x2="19.6692" y2="18.5"/>
	<path fill="none" stroke="#000000" stroke-linecap="round" stroke-linejoin="round" stroke-miterlimit="10" d="M5.7757,14.4538
		H4.3339c-0.75,0-1.3579-0.608-1.3579-1.3579v-0.7153c0-0.75,0.608-1.3579,1.3579-1.3579h1.4418c0.75,0,1.3579,0.608,1.3579,1.3579
		v0.7153C7.1336,13.8458,6.5257,14.4538,5.7757,14.4538z"/>
	<path fill="none" stroke="#000000" stroke-linecap="round" stroke-linejoin="round" stroke-miterlimit="10" d="M14.5543,14.4538
		h-3.1629c-0.7387,0-1.3375-0.5988-1.3375-1.3375v-0.7562c0-0.7387,0.5988-1.3375,1.3375-1.3375h2.5369
		c0.9237,0,1.9635,1.8137,1.9635,2.5524l0,0C15.8918,14.3137,15.293,14.4538,14.5543,14.4538z"/>
	
		<line fill="none" stroke="#000000" stroke-linecap="round" stroke-linejoin="round" x1="4.6171" y1="8.5005" x2="12.9728" y2="5.6613"/>
	
		<line fill="none" stroke="#000000" stroke-linecap="round" stroke-linejoin="round" x1="11.4846" y1="6.167" x2="11.4846" y2="8.5005"/>
</g>
<rect x="-0.0136" y="0" fill="none" width="24" height="24"/>
</svg>
