<?xml version="1.0" encoding="utf-8"?>
<!-- Generator: Adobe Illustrator 18.1.0, SVG Export Plug-In . SVG Version: 6.00 Build 0)  -->
<svg version="1.1" id="Layer_1" xmlns="http://www.w3.org/2000/svg" xmlns:xlink="http://www.w3.org/1999/xlink" x="0px" y="0px"
	 width="24px" height="24px" viewBox="0 0 24 24" enable-background="new 0 0 24 24" xml:space="preserve">
<g>
	<path fill="none" stroke="#000000" stroke-linecap="round" stroke-linejoin="round" d="M23.3651,22.4916
		c0-2.691-5.0945-7.2832-11.3788-7.2832S0.6075,19.8006,0.6075,22.4916"/>
	
		<line fill="none" stroke="#000000" stroke-linecap="round" stroke-linejoin="round" x1="5.4863" y1="16.8768" x2="5.4863" y2="11.0001"/>
	
		<line fill="none" stroke="#000000" stroke-linecap="round" stroke-linejoin="round" x1="3.9864" y1="12.5001" x2="6.9863" y2="12.5001"/>
	
		<line fill="none" stroke="#000000" stroke-linecap="round" stroke-linejoin="round" x1="18.4872" y1="16.8768" x2="18.4872" y2="11.0001"/>
	
		<line fill="none" stroke="#000000" stroke-linecap="round" stroke-linejoin="round" x1="16.9872" y1="12.5001" x2="19.9872" y2="12.5001"/>
	<polyline fill="none" stroke="#000000" stroke-linecap="round" stroke-linejoin="round" points="13.4863,15.2955 13.4863,7.5001 
		17.4864,7.5001 17.4864,4.5001 13.4863,4.5001 13.4863,1.5001 10.4863,1.5001 10.4863,4.5001 6.4863,4.5001 6.4863,7.5001 
		10.4863,7.5001 10.4863,15.2952 	"/>
</g>
<rect x="-0.0137" y="0.0001" fill="none" width="24" height="24"/>
</svg>
