<?xml version="1.0" encoding="utf-8"?>
<!-- Generator: Adobe Illustrator 18.1.0, SVG Export Plug-In . SVG Version: 6.00 Build 0)  -->
<svg version="1.1" id="Layer_1" xmlns="http://www.w3.org/2000/svg" xmlns:xlink="http://www.w3.org/1999/xlink" x="0px" y="0px"
	 width="24px" height="24px" viewBox="0 0 24 24" enable-background="new 0 0 24 24" xml:space="preserve">
<g>
	<path fill="none" stroke="#000000" stroke-linecap="round" stroke-linejoin="round" stroke-miterlimit="10" d="M4.5141,17.8555
		c0,0.375-0.304,0.679-0.679,0.679H3.1931c-0.375,0-0.679-0.304-0.679-0.679V7.2134c0-0.375,0.304-0.679,0.679-0.679h0.6421
		c0.375,0,0.679,0.304,0.679,0.679V17.8555z"/>
	<path fill="none" stroke="#000000" stroke-linecap="round" stroke-linejoin="round" stroke-miterlimit="10" d="M2.5141,15.8556
		c0,0.375-0.304,0.679-0.679,0.679H1.1931c-0.375,0-0.679-0.304-0.679-0.679V9.2134c0-0.375,0.304-0.679,0.679-0.679h0.6421
		c0.375,0,0.679,0.304,0.679,0.679V15.8556z"/>
	<path fill="none" stroke="#000000" stroke-linecap="round" stroke-linejoin="round" stroke-miterlimit="10" d="M19.5153,7.2134
		c0-0.375,0.304-0.679,0.679-0.679h0.6421c0.375,0,0.679,0.304,0.679,0.679v10.6421c0,0.375-0.304,0.679-0.679,0.679h-0.6421
		c-0.375,0-0.679-0.304-0.679-0.679V7.2134z"/>
	<path fill="none" stroke="#000000" stroke-linecap="round" stroke-linejoin="round" stroke-miterlimit="10" d="M21.5153,9.2133
		c0-0.375,0.304-0.679,0.679-0.679h0.6421c0.375,0,0.679,0.304,0.679,0.679v6.6422c0,0.375-0.304,0.679-0.679,0.679h-0.6421
		c-0.375,0-0.679-0.304-0.679-0.679V9.2133z"/>
	
		<line fill="none" stroke="#000000" stroke-linecap="round" stroke-linejoin="round" stroke-miterlimit="10" x1="6.5143" y1="12.5345" x2="17.5152" y2="12.5345"/>
</g>
<rect x="0.0142" y="0.0346" fill="none" width="24" height="24"/>
</svg>
