<?xml version="1.0" encoding="utf-8"?>
<!-- Generator: Adobe Illustrator 18.1.0, SVG Export Plug-In . SVG Version: 6.00 Build 0)  -->
<svg version="1.1" id="Layer_1" xmlns="http://www.w3.org/2000/svg" xmlns:xlink="http://www.w3.org/1999/xlink" x="0px" y="0px"
	 width="24px" height="24px" viewBox="0 0 24 24" enable-background="new 0 0 24 24" xml:space="preserve">
<g>
	<path fill="none" stroke="#000000" stroke-linecap="round" stroke-linejoin="round" stroke-miterlimit="10" d="M18.2766,8.8262
		c-3.4071-3.774-9.1305-3.7681-12.5323,0"/>
	<path fill="none" stroke="#000000" stroke-linecap="round" stroke-linejoin="round" stroke-miterlimit="10" d="M21.3141,5.6756
		c-5.0837-5.5089-13.5192-5.5139-18.6074,0"/>
	<path fill="none" stroke="#000000" stroke-linecap="round" stroke-linejoin="round" stroke-miterlimit="10" d="M8.7819,11.9767
		c1.7166-2.0313,4.7415-2.03,6.457,0"/>
	<polyline fill="none" stroke="#000000" stroke-linecap="round" stroke-linejoin="round" points="16.4502,21.3376 16.4502,16.6069 
		19.4956,16.6069 	"/>
	
		<line fill="none" stroke="#000000" stroke-linecap="round" stroke-linejoin="round" x1="16.4502" y1="18.9723" x2="19.0489" y2="18.9722"/>
	<polyline fill="none" stroke="#000000" stroke-linecap="round" stroke-linejoin="round" stroke-miterlimit="10" points="
		1.6008,16.6069 3.3071,21.3378 4.9869,16.6069 6.6932,21.3378 8.3731,16.6069 	"/>
	
		<line fill="none" stroke="#000000" stroke-linecap="round" stroke-linejoin="round" x1="10.4947" y1="21.3378" x2="10.4947" y2="16.6069"/>
	
		<line fill="none" stroke="#000000" stroke-linecap="round" stroke-linejoin="round" x1="21.4903" y1="21.3378" x2="21.4903" y2="16.6069"/>
	
		<line fill="none" stroke="#000000" stroke-linecap="round" stroke-linejoin="round" x1="12.7958" y1="19.462" x2="14.308" y2="19.462"/>
</g>
<rect x="0" y="0" fill="none" width="24" height="24"/>
</svg>
