<?xml version="1.0" encoding="utf-8"?>
<!-- Generator: Adobe Illustrator 18.1.0, SVG Export Plug-In . SVG Version: 6.00 Build 0)  -->
<svg version="1.1" id="Layer_1" xmlns="http://www.w3.org/2000/svg" xmlns:xlink="http://www.w3.org/1999/xlink" x="0px" y="0px"
	 width="24px" height="24px" viewBox="0 0 24 24" enable-background="new 0 0 24 24" xml:space="preserve">
<g>
	
		<rect x="2.0032" y="3.6521" transform="matrix(0.9589 -0.2837 0.2837 0.9589 -2.1229 3.493)" fill="none" stroke="#000000" stroke-linecap="round" stroke-linejoin="round" stroke-miterlimit="10" width="17.9867" height="10.8455"/>
	<path fill="none" stroke="#000000" stroke-linecap="round" stroke-linejoin="round" stroke-miterlimit="10" d="M3.083,14.0268
		c1.5462-0.4575,3.1705,0.4251,3.628,1.9713"/>
	<path fill="none" stroke="#000000" stroke-linecap="round" stroke-linejoin="round" stroke-miterlimit="10" d="M18.1937,12.5366
		c-0.4254-1.5462,0.4869-3.3103,2.0983-3.7435"/>
	<path fill="none" stroke="#000000" stroke-linecap="round" stroke-linejoin="round" stroke-miterlimit="10" d="M18.7059,4.108
		c-1.4378,0.4575-2.9482-0.4251-3.3736-1.9713"/>
	<path fill="none" stroke="#000000" stroke-linecap="round" stroke-linejoin="round" stroke-miterlimit="10" d="M3.6338,5.5982
		c0.4575,1.5462-0.4251,3.1705-1.9713,3.628"/>
	<polyline fill="none" stroke="#000000" stroke-linecap="round" stroke-linejoin="round" stroke-miterlimit="10" points="
		22.7372,12.5366 23.5169,12.5366 23.5169,23.522 5.5302,23.522 5.5302,18.2234 	"/>
	<path fill="none" stroke="#000000" stroke-linecap="round" stroke-linejoin="round" stroke-miterlimit="10" d="M5.5302,20.6024
		c1.6125,0,2.9196,1.3072,2.9196,2.9196"/>
	<path fill="none" stroke="#000000" stroke-linecap="round" stroke-linejoin="round" stroke-miterlimit="10" d="M20.6496,23.522
		c0-1.6125,1.2071-2.9196,2.6961-2.9196"/>
	<path fill="none" stroke="#000000" stroke-linecap="round" stroke-linejoin="round" stroke-miterlimit="10" d="M23.3457,15.5961
		c-1.0833,0-2.0174-0.6919-2.4459-1.6899"/>
	<path fill="none" stroke="#000000" stroke-linecap="round" stroke-linejoin="round" stroke-miterlimit="10" d="M10.1188,11.2072
		c0.5118,0.2264,1.2153,0.2979,1.6643,0.1592c0.7184-0.222,1.1434-0.9111,0.9493-1.5391s-0.9119-0.7466-1.6521-0.7353
		c-0.7718-0.0031-1.458-0.1072-1.6521-0.7353c-0.1941-0.6281,0.2309-1.3172,0.9493-1.5391c0.4837-0.1495,0.9771-0.049,1.307,0.2243"
		/>
	
		<line fill="none" stroke="#000000" stroke-linecap="round" stroke-linejoin="round" stroke-miterlimit="10" x1="10.1854" y1="6.196" x2="10.3774" y2="6.8174"/>
	
		<line fill="none" stroke="#000000" stroke-linecap="round" stroke-linejoin="round" stroke-miterlimit="10" x1="11.7831" y1="11.3663" x2="11.9751" y2="11.9878"/>
	
		<line fill="none" stroke="#000000" stroke-linecap="round" stroke-linejoin="round" x1="12.3523" y1="17.5163" x2="15.2458" y2="17.5163"/>
	
		<line fill="none" stroke="#000000" stroke-linecap="round" stroke-linejoin="round" x1="12.3523" y1="18.8144" x2="15.2458" y2="18.8144"/>
	<path fill="none" stroke="#000000" stroke-linecap="round" stroke-linejoin="round" d="M16.5285,16.6168
		c-0.3603-0.6052-0.921-0.9946-1.5512-0.9946c-1.0872,0-1.9686,1.1577-1.9686,2.5857c0,1.428,0.8814,2.5857,1.9686,2.5857
		c0.6593,0,1.2424-0.4261,1.5997-1.0796"/>
</g>
<rect x="-0.0137" y="0.0031" fill="none" width="24" height="24"/>
<rect x="-0.0137" y="0" fill="none" width="24" height="24"/>
</svg>
