<?xml version="1.0" encoding="utf-8"?>
<!-- Generator: Adobe Illustrator 18.1.0, SVG Export Plug-In . SVG Version: 6.00 Build 0)  -->
<svg version="1.1" id="Layer_1" xmlns="http://www.w3.org/2000/svg" xmlns:xlink="http://www.w3.org/1999/xlink" x="0px" y="0px"
	 width="24px" height="24px" viewBox="0 0 24 24" enable-background="new 0 0 24 24" xml:space="preserve">
<path fill="none" stroke="#000000" stroke-linecap="round" stroke-linejoin="round" d="M8.1225,13.3726
	c0-1.2536,1.3432-2.1935,2.6689-1.459c0.8604,0.4767,1.3291,1.4118,1.1504,2.379c-0.2305,1.2477-1.3242,2.1927-2.6386,2.1927
	c-1.8525,0-3.3542-1.5017-3.3542-3.3542c0-2.3156,1.8772-4.1928,4.1928-4.1928c2.8945,0,5.241,2.3465,5.241,5.241
	c0,3.6182-2.9331,6.5513-6.5513,6.5513c-4.5227,0-8.1891-3.6664-8.1891-8.1891c0-5.6534,4.583-10.2363,10.2363-10.2363
	c8.53,0,13.6989,7.7305,12.2637,15.8744l0,0c-0.149,0.8627-0.8164,1.5458-1.6778,1.7018c-1.3768,0.2494-3.6976,0.4758-6.7885,0.0822
	"/>
<rect x="0.0022" y="-0.0147" fill="none" width="24" height="24"/>
</svg>
