<?xml version="1.0" encoding="utf-8"?>
<!-- Generator: Adobe Illustrator 18.1.1, SVG Export Plug-In . SVG Version: 6.00 Build 0)  -->
<svg version="1.1" id="Layer_1" xmlns="http://www.w3.org/2000/svg" xmlns:xlink="http://www.w3.org/1999/xlink" x="0px" y="0px"
	 width="24px" height="24px" viewBox="0 0 24 24" enable-background="new 0 0 24 24" xml:space="preserve">
<rect fill="none" width="24" height="24"/>
<g>
	<path fill="none" stroke="#000000" stroke-linecap="round" stroke-linejoin="round" d="M12.5,11.4999H14
		c0.8284,0,1.5,0.6716,1.5,1.5l0,0c0,0.8284-0.6716,1.5-1.5,1.5h-2.5"/>
	<path fill="none" stroke="#000000" stroke-linecap="round" stroke-linejoin="round" d="M11,17.4999h2c0.8284,0,1.5-0.6716,1.5-1.5
		c0-0.8284-0.6716-1.5-1.5-1.5h-1.5"/>
	<path fill="none" stroke="#000000" stroke-linecap="round" stroke-linejoin="round" d="M8.5,8.4999H21c0.8284,0,1.5,0.6716,1.5,1.5
		c0,0.8284-0.6716,1.5-1.5,1.5h-8.5"/>
	<path fill="none" stroke="#000000" stroke-linecap="round" stroke-linejoin="round" d="M1.5115,9.4892
		c1.11-0.1281,2.7954-1.6809,2.7954-1.6809c2.6511-2.2758,7.8779-4.1385,7.8779-4.1385c1.5194-0.5818,2.1632,1.3361,1.2011,1.947
		L12,6.4489l-3.5,2.051"/>
	<path fill="none" stroke="#000000" stroke-linecap="round" stroke-linejoin="round" d="M1.5115,17.4892
		c0.8532,0.1479,3.2063,0.6116,4.6749,1.3593c2.0638,1.0508,4.766,1.3415,4.766,1.3415c0.8284,0,1.5476-0.3617,1.5476-1.1901
		c0-0.8284-0.6716-1.5-1.5-1.5"/>
</g>
</svg>
