<?xml version="1.0" encoding="utf-8"?>
<!-- Generator: Adobe Illustrator 18.1.0, SVG Export Plug-In . SVG Version: 6.00 Build 0)  -->
<svg version="1.1" id="Layer_1" xmlns="http://www.w3.org/2000/svg" xmlns:xlink="http://www.w3.org/1999/xlink" x="0px" y="0px"
	 width="24px" height="24px" viewBox="0 0 24 24" enable-background="new 0 0 24 24" xml:space="preserve">
<g>
	<path fill="none" stroke="#000000" stroke-linecap="round" stroke-linejoin="round" d="M18.3956,23.5082
		c0,0-1.3951-1.5452-2.9494-4.9883v-2.0163h-0.9387c-0.2156-0.5842-0.4009-1.4399-0.9239-2.1037l-0.0262-1.8247H13.205
		c-0.5977-2.5649-1.0424-6.0532-1.1761-9.602c0.3129-0.0223,0.5607-0.2804,0.5607-0.5991c0-0.3299-0.265-0.597-0.5936-0.6023
		c-0.0058-0.339-0.0097-0.6808-0.0097-1.0287c0,0.3478-0.0039,0.6897-0.0097,1.0287C11.648,1.7771,11.383,2.0443,11.383,2.3741
		c0,0.3186,0.2478,0.5768,0.5607,0.5991c-0.1337,3.5488-0.5783,7.0371-1.1761,9.602h-0.3324v1.8247
		c-0.4943,0.7517-0.7299,1.4514-0.9706,2.1037H8.5202v2.016c-1.5543,3.4439-2.943,4.9886-2.943,4.9886"/>
	
		<line fill="none" stroke="#000000" stroke-linecap="round" stroke-linejoin="round" x1="18.3956" y1="23.5082" x2="20.2518" y2="23.5082"/>
	
		<line fill="none" stroke="#000000" stroke-linecap="round" stroke-linejoin="round" x1="3.7209" y1="23.5082" x2="5.5771" y2="23.5082"/>
	<path fill="none" stroke="#000000" stroke-linecap="round" stroke-linejoin="round" d="M5.5771,23.5082h3.8088v-0.6689
		c0-1.5973,1.0031-2.8922,2.6004-2.8922c1.5973,0,2.5941,1.2949,2.5941,2.8922v0.6689h3.8151"/>
	
		<line fill="none" stroke="#000000" stroke-linecap="round" stroke-linejoin="round" x1="9.237" y1="12.5752" x2="14.8057" y2="12.5752"/>
	
		<line fill="none" stroke="#000000" stroke-linecap="round" stroke-linejoin="round" x1="6.4527" y1="16.5015" x2="17.5901" y2="16.5015"/>
</g>
<rect x="-0.0136" y="0" fill="none" width="24" height="24"/>
</svg>
