<?xml version="1.0" encoding="utf-8"?>
<!-- Generator: Adobe Illustrator 18.1.1, SVG Export Plug-In . SVG Version: 6.00 Build 0)  -->
<svg version="1.1" id="Layer_1" xmlns="http://www.w3.org/2000/svg" xmlns:xlink="http://www.w3.org/1999/xlink" x="0px" y="0px"
	 width="24px" height="24px" viewBox="0 0 24 24" enable-background="new 0 0 24 24" xml:space="preserve">
<g>
	<path fill="none" stroke="#000000" stroke-linecap="round" stroke-linejoin="round" stroke-miterlimit="10" d="M21.5,16.5V5.2
		c0-0.4-0.3-0.7-0.7-0.7H3.2c-0.4,0-0.7,0.3-0.7,0.7v11.3"/>
	<path fill="none" stroke="#000000" stroke-linecap="round" stroke-linejoin="round" stroke-miterlimit="10" d="M13.3,18.5v0.3
		c0,0.2-0.2,0.4-0.4,0.4h-1.6c-0.2,0-0.4-0.2-0.4-0.4v-0.3H0.5v1.2c0,0.4,0.4,0.8,0.8,0.8h21.4c0.4,0,0.8-0.4,0.8-0.8v-1.2H13.3z"/>
	<polyline fill="none" stroke="#000000" stroke-linecap="round" stroke-linejoin="round" stroke-miterlimit="10" points="5.5,10.4 
		6.3,12.5 7,10.4 7.8,12.5 8.5,10.4 	"/>
	<polyline fill="none" stroke="#000000" stroke-linecap="round" stroke-linejoin="round" stroke-miterlimit="10" points="9.5,10.4 
		10.3,12.5 11,10.4 11.8,12.5 12.5,10.4 	"/>
	<polyline fill="none" stroke="#000000" stroke-linecap="round" stroke-linejoin="round" stroke-miterlimit="10" points="13.5,10.4 
		14.3,12.5 15,10.4 15.8,12.5 16.5,10.4 	"/>
	
		<line fill="none" stroke="#000000" stroke-linecap="round" stroke-linejoin="round" stroke-miterlimit="10" x1="17.5" y1="12.6" x2="17.5" y2="12.5"/>
</g>
<rect fill="none" width="24" height="24"/>
</svg>
