<?xml version="1.0" encoding="utf-8"?>
<!-- Generator: Adobe Illustrator 18.1.0, SVG Export Plug-In . SVG Version: 6.00 Build 0)  -->
<svg version="1.1" id="Layer_1" xmlns="http://www.w3.org/2000/svg" xmlns:xlink="http://www.w3.org/1999/xlink" x="0px" y="0px"
	 width="24px" height="24px" viewBox="0 0 24 24" enable-background="new 0 0 24 24" xml:space="preserve">
<g>
	<path fill="none" stroke="#000000" stroke-linecap="round" stroke-linejoin="round" stroke-miterlimit="10" d="M3.3952,15.9481
		l1.2789,5.3341c0.2674,0.9611,3.2661,1.8535,7.295,1.8535c4.0289,0,7.0246-0.804,7.295-1.8535l1.301-5.4838"/>
	
		<line fill="none" stroke="#000000" stroke-linecap="round" stroke-linejoin="round" stroke-miterlimit="10" x1="11.9691" y1="23.1357" x2="11.9691" y2="17.2915"/>
	
		<line fill="none" stroke="#000000" stroke-linecap="round" stroke-linejoin="round" stroke-miterlimit="10" x1="8.0304" y1="22.8153" x2="7.4544" y2="17.2915"/>
	
		<line fill="none" stroke="#000000" stroke-linecap="round" stroke-linejoin="round" stroke-miterlimit="10" x1="15.9256" y1="22.8396" x2="16.4918" y2="17.2915"/>
	<path fill="none" stroke="#000000" stroke-linecap="round" stroke-linejoin="round" stroke-miterlimit="10" d="M20.4219,8.5107
		c-0.4884-4.2646-4.1082-7.5773-8.5035-7.5773c-4.4925,0-8.1743,3.4609-8.5307,7.8616c-1.5171,0.4804-2.6171,1.8989-2.6171,3.575
		c0,3.4677,4.3247,5.0714,6.5889,2.4459c1.4185,1.6448,3.9106,1.7455,5.4566,0.2366c1.2945,0.7458,2.8984,0.6565,4.1064-0.2457
		c2.3417,2.3549,6.4089,0.707,6.4089-2.644C23.3315,10.3811,22.0877,8.8928,20.4219,8.5107z"/>
	
		<line fill="none" stroke="#000000" stroke-linecap="round" stroke-linejoin="round" stroke-miterlimit="10" x1="9.5004" y1="5.4635" x2="9.5004" y2="5.4635"/>
	
		<line fill="none" stroke="#000000" stroke-linecap="round" stroke-linejoin="round" stroke-miterlimit="10" x1="7.4544" y1="7.5857" x2="7.4544" y2="7.5857"/>
	
		<line fill="none" stroke="#000000" stroke-linecap="round" stroke-linejoin="round" stroke-miterlimit="10" x1="12.33" y1="6.605" x2="12.33" y2="6.605"/>
	
		<line fill="none" stroke="#000000" stroke-linecap="round" stroke-linejoin="round" stroke-miterlimit="10" x1="11.4016" y1="9.531" x2="11.4016" y2="9.531"/>
	
		<line fill="none" stroke="#000000" stroke-linecap="round" stroke-linejoin="round" stroke-miterlimit="10" x1="14.4964" y1="4.5883" x2="14.4964" y2="4.5883"/>
	
		<line fill="none" stroke="#000000" stroke-linecap="round" stroke-linejoin="round" stroke-miterlimit="10" x1="11.4016" y1="3.5181" x2="11.4016" y2="3.5181"/>
	
		<line fill="none" stroke="#000000" stroke-linecap="round" stroke-linejoin="round" stroke-miterlimit="10" x1="16.3487" y1="7.5857" x2="16.3487" y2="7.5857"/>
</g>
<rect x="0.0142" y="0.0346" fill="none" width="24" height="24"/>
</svg>
