<?xml version="1.0" encoding="utf-8"?>
<!-- Generator: Adobe Illustrator 18.1.0, SVG Export Plug-In . SVG Version: 6.00 Build 0)  -->
<svg version="1.1" id="Layer_1" xmlns="http://www.w3.org/2000/svg" xmlns:xlink="http://www.w3.org/1999/xlink" x="0px" y="0px"
	 width="24px" height="24px" viewBox="0 0 24 24" enable-background="new 0 0 24 24" xml:space="preserve">
<g>
	<path fill="none" stroke="#000000" stroke-linecap="round" stroke-linejoin="round" stroke-miterlimit="10" d="M17.5142,23.5354
		h-12c0-1.7928,0.5761-3,2.4407-3h7.1528C16.995,20.5354,17.5142,21.7976,17.5142,23.5354z"/>
	<path fill="none" stroke="#000000" stroke-linecap="round" stroke-linejoin="round" stroke-miterlimit="10" d="M7.0074,18.7758
		c0,0,0.9463-2.9479-0.8854-6.4969c-0.9704-1.8802-2.5186-8.2714,4.2073-9.4735c0,0,0.2576-2.1752,2.1752-2.1752v4.15"/>
	<path fill="none" stroke="#000000" stroke-linecap="round" stroke-linejoin="round" stroke-miterlimit="10" d="M12.5044,2.9485
		c0,0,3.8137,0.3721,4.0713,3.0052l3.4061,2.7648c0.4441,0.3974,0.3646,0.8727,0.3646,1.4711c0,0,0.9445,1.2021-0.5152,2.2038
		s-2.1752,0.0859-3.0052-0.601c-0.83-0.6869-2.1089-0.7903-3.4827,0.2973"/>
	<path fill="none" stroke="#000000" stroke-linecap="round" stroke-linejoin="round" stroke-miterlimit="10" d="M16.3461,18.7758
		c0,0,0.6618-3.233-1.18-5.0229c-1.7952-1.7447-4.0928-3.3057-4.0928-5.0229"/>
	
		<line fill="none" stroke="#000000" stroke-linecap="round" stroke-linejoin="round" stroke-miterlimit="10" x1="13.507" y1="6.4975" x2="14.492" y2="6.4975"/>
</g>
<rect x="0.0142" y="0.0354" fill="none" width="24" height="24"/>
</svg>
