<?xml version="1.0" encoding="utf-8"?>
<!-- Generator: Adobe Illustrator 18.1.0, SVG Export Plug-In . SVG Version: 6.00 Build 0)  -->
<svg version="1.1" id="Layer_1" xmlns="http://www.w3.org/2000/svg" xmlns:xlink="http://www.w3.org/1999/xlink" x="0px" y="0px"
	 width="24px" height="24px" viewBox="0 0 24 24" enable-background="new 0 0 24 24" xml:space="preserve">
<g>
	<path fill="none" stroke="#000000" stroke-linecap="round" stroke-linejoin="round" stroke-miterlimit="10" d="M5.7796,7.5H1.1919
		c-0.3855,0-0.7055,0.3346-0.7055,0.72v14.6048c0,0.3855,0.32,0.6752,0.7055,0.6752h4.5877c0.3836,0,0.7068-0.2897,0.7068-0.6752
		V8.22C6.4864,7.8346,6.1631,7.5,5.7796,7.5z"/>
	<path fill="none" stroke="#000000" stroke-linecap="round" stroke-linejoin="round" stroke-miterlimit="10" d="M13.7804,12.5005
		H9.1927c-0.3855,0-0.7055,0.3346-0.7055,0.72v9.6043c0,0.3855,0.32,0.6752,0.7055,0.6752h4.5877
		c0.3836,0,0.7068-0.2897,0.7068-0.6752v-9.6043C14.4872,12.8351,14.1639,12.5005,13.7804,12.5005z"/>
	<path fill="none" stroke="#000000" stroke-linecap="round" stroke-linejoin="round" stroke-miterlimit="10" d="M21.7812,2.4995
		h-4.5877c-0.3855,0-0.7055,0.3346-0.7055,0.72v19.6053c0,0.3855,0.32,0.6752,0.7055,0.6752h4.5877
		c0.3836,0,0.7068-0.2897,0.7068-0.6752V3.2195C22.488,2.8341,22.1647,2.4995,21.7812,2.4995z"/>
</g>
<rect x="-0.0136" fill="none" width="24" height="24"/>
</svg>
