<?xml version="1.0" encoding="utf-8"?>
<!-- Generator: Adobe Illustrator 18.1.0, SVG Export Plug-In . SVG Version: 6.00 Build 0)  -->
<svg version="1.1" id="Layer_1" xmlns="http://www.w3.org/2000/svg" xmlns:xlink="http://www.w3.org/1999/xlink" x="0px" y="0px"
	 width="24px" height="24px" viewBox="0 0 24 24" enable-background="new 0 0 24 24" xml:space="preserve">
<g>
	<path fill="none" stroke="#000000" stroke-linecap="round" stroke-linejoin="round" stroke-miterlimit="10" d="M7.3415,19.3462
		c4.9584,1.3966,10.7996,0.5337,14.7678-2.6992c-1.0734-1.143-3.3121-4.0628-3.4497-8.6188"/>
	<path fill="none" stroke="#000000" stroke-linecap="round" stroke-linejoin="round" stroke-miterlimit="10" d="M17.7719,3.4782
		c-0.6102-0.923-1.4588-1.5597-2.317-1.9957c-2.1198-1.077-4.6578-1.077-6.7775,0C6.9982,2.3357,5.3491,3.9502,5.47,6.9958
		c0.2044,5.1504-2.2944,8.4238-3.4469,9.6511c0.4702,0.3831,0.9766,0.7393,1.5145,1.0655"/>
	<path fill="none" stroke="#000000" stroke-linecap="round" stroke-linejoin="round" stroke-miterlimit="10" d="M9.805,21.5372
		c0,0.9849,1.0144,1.7862,2.2609,1.7862c1.247,0,2.2615-0.8013,2.2615-1.7862"/>
	
		<line fill="none" stroke="#000000" stroke-linecap="round" stroke-linejoin="round" stroke-miterlimit="10" x1="0.7217" y1="23.247" x2="23.2427" y2="0.726"/>
</g>
<rect x="-0.0137" y="0.0002" fill="none" width="24" height="24"/>
</svg>
