<?xml version="1.0" encoding="utf-8"?>
<!-- Generator: Adobe Illustrator 18.1.0, SVG Export Plug-In . SVG Version: 6.00 Build 0)  -->
<svg version="1.1" id="Layer_1" xmlns="http://www.w3.org/2000/svg" xmlns:xlink="http://www.w3.org/1999/xlink" x="0px" y="0px"
	 width="24px" height="24px" viewBox="0 0 24 24" enable-background="new 0 0 24 24" xml:space="preserve">
<g>
	
		<circle fill="none" stroke="#000000" stroke-linecap="round" stroke-linejoin="round" stroke-miterlimit="10" cx="12" cy="15.0622" r="0.7608"/>
	
		<line fill="none" stroke="#000000" stroke-linecap="round" stroke-linejoin="round" stroke-miterlimit="10" x1="12" y1="14.3013" x2="12" y2="11.0726"/>
	
		<circle fill="none" stroke="#000000" stroke-linecap="round" stroke-linejoin="round" stroke-miterlimit="10" cx="12" cy="15.0622" r="5.3101"/>
	<path fill="none" stroke="#000000" stroke-linecap="round" stroke-linejoin="round" stroke-miterlimit="10" d="M11.7256,7.6053
		c-4.0773,0.145-7.2498,3.6198-7.2498,7.6997l0,7.0022c0,0.639,0.518,1.157,1.157,1.157h12.7344c0.639,0,1.157-0.518,1.157-1.157
		v-7.1826C19.5241,10.878,16.0062,7.453,11.7256,7.6053z"/>
	
		<line fill="none" stroke="#000000" stroke-linecap="round" stroke-linejoin="round" stroke-miterlimit="10" x1="13.5" y1="7.7507" x2="13.5" y2="5.5578"/>
	
		<line fill="none" stroke="#000000" stroke-linecap="round" stroke-linejoin="round" stroke-miterlimit="10" x1="10.5" y1="5.5578" x2="10.5" y2="7.753"/>
	<path fill="none" stroke="#000000" stroke-linecap="round" stroke-linejoin="round" stroke-miterlimit="10" d="M20.2986,3.5197
		H3.7014C2.6251,3.5197,1.5,2.4037,1.5,1.3273V0.5197h21v0.8076C22.5,2.4037,21.3749,3.5197,20.2986,3.5197z"/>
</g>
<rect x="0" y="0.0197" fill="none" width="24" height="24"/>
</svg>
