<?xml version="1.0" encoding="utf-8"?>
<!-- Generator: Adobe Illustrator 18.1.0, SVG Export Plug-In . SVG Version: 6.00 Build 0)  -->
<svg version="1.1" id="Layer_1" xmlns="http://www.w3.org/2000/svg" xmlns:xlink="http://www.w3.org/1999/xlink" x="0px" y="0px"
	 width="24px" height="24px" viewBox="0 0 24 24" enable-background="new 0 0 24 24" xml:space="preserve">
<g>
	<path fill="none" stroke="#000000" stroke-linecap="round" stroke-linejoin="round" stroke-miterlimit="10" d="M18.6653,11.0224
		l0.2787-0.1454c0.2566-0.1338,0.3559-0.4506,0.2221-0.7072L14.5196,1.262c-0.1341-0.2571-0.4506-0.3566-0.7072-0.2228
		L1.3585,7.5354C1.1017,7.6693,1.0019,7.9859,1.1361,8.243l4.6465,8.9079c0.1338,0.2566,0.4507,0.3562,0.7075,0.2223l0.3736-0.1949"
		/>
	
		<circle fill="none" stroke="#000000" stroke-linecap="round" stroke-linejoin="round" stroke-miterlimit="10" cx="6.1715" cy="9.6882" r="1.408"/>
	<polyline fill="none" stroke="#000000" stroke-linecap="round" stroke-linejoin="round" stroke-miterlimit="10" points="
		9.3792,12.2579 9.979,8.3162 12.8283,9.7005 13.2148,5.1964 15.7265,6.5124 	"/>
	
		<circle fill="none" stroke="#000000" stroke-linecap="round" stroke-linejoin="round" stroke-miterlimit="10" cx="15.5286" cy="19.0043" r="2.5282"/>
	<path fill="none" stroke="#000000" stroke-linecap="round" stroke-linejoin="round" stroke-miterlimit="10" d="M16.7835,12.536
		c1.2141,0,1.6475,0.6556,1.7355,1.9442h3.5887c1.0648,0,1.35,1.1086,1.3857,1.6078l0.0114,5.8953
		c0,1.0575-0.9022,1.4473-1.3927,1.4955l0.0076,0.0214H9.8963c-0.4775,0-0.8252-0.1672-1.0858-0.4587
		c-0.3621-0.4034-0.3186-0.9458-0.3186-1.0732V16.088c0-1.2073,0.9125-1.5846,1.4508-1.6081h2.5963
		c0.088-1.2886,0.5214-1.9442,1.7355-1.9442L16.7835,12.536z"/>
	
		<line fill="none" stroke="#000000" stroke-linecap="round" stroke-linejoin="round" stroke-miterlimit="10" x1="20.4527" y1="17.47" x2="20.4527" y2="17.47"/>
</g>
<rect x="-0.0136" y="0.0002" fill="none" width="24" height="24"/>
</svg>
