<?xml version="1.0" encoding="utf-8"?>
<!-- Generator: Adobe Illustrator 18.1.0, SVG Export Plug-In . SVG Version: 6.00 Build 0)  -->
<svg version="1.1" id="Layer_1" xmlns="http://www.w3.org/2000/svg" xmlns:xlink="http://www.w3.org/1999/xlink" x="0px" y="0px"
	 width="24px" height="24px" viewBox="0 0 24 24" enable-background="new 0 0 24 24" xml:space="preserve">
<g>
	<path fill="none" stroke="#000000" stroke-linecap="round" stroke-linejoin="round" stroke-miterlimit="10" d="M8.3106,20.1726
		l-0.4802,2.9637c0,0.2166,0.2151,0.3919,0.4802,0.3919h7.3767c0.2651,0,0.4802-0.1752,0.4802-0.3919l-0.4811-2.9637"/>
	<path fill="none" stroke="#000000" stroke-linecap="round" stroke-linejoin="round" stroke-miterlimit="10" d="M21.8738,0.5H2.1231
		C1.2144,0.5,0.5,1.2228,0.5,2.131v13.731C0.5,16.7708,1.2144,17.5,2.1231,17.5h19.7507c0.9097,0,1.6262-0.7292,1.6262-1.6379V2.131
		C23.5,1.2228,22.7835,0.5,21.8738,0.5z"/>
	
		<line fill="none" stroke="#000000" stroke-linecap="round" stroke-linejoin="round" stroke-miterlimit="10" x1="0.5011" y1="14.5" x2="23.5" y2="14.5"/>
</g>
<rect x="0" y="0" fill="none" width="24" height="24"/>
</svg>
