<?xml version="1.0" encoding="utf-8"?>
<!-- Generator: Adobe Illustrator 18.1.0, SVG Export Plug-In . SVG Version: 6.00 Build 0)  -->
<svg version="1.1" id="Layer_1" xmlns="http://www.w3.org/2000/svg" xmlns:xlink="http://www.w3.org/1999/xlink" x="0px" y="0px"
	 width="24px" height="24px" viewBox="0 0 24 24" enable-background="new 0 0 24 24" xml:space="preserve">
<g>
	<path fill="none" stroke="#000000" stroke-linecap="round" stroke-linejoin="round" d="M12.7605,6.3137
		c-0.2371-1.2856-0.5839-2.782-1.0005-3.4106c0,0-2.3746,1.4705-3.0394,4.3367c0,0-3.8159-3.3652-5.978-2.6178
		c0,0,0.7532,4.8703,2.6575,5.8604c0,0-3.0437,0.3053-4.3344,2.7562c0,0,3.7206,1.8037,5.1853,1.4701
		c0,0-1.9155,1.1535-1.9788,2.4854c0,0,3.7832,1.2159,6.4024-1.6522"/>
	<path fill="none" stroke="#000000" stroke-linecap="round" stroke-linejoin="round" d="M11.7011,9.6408
		c-0.0798-0.1775-0.1408-0.3668-0.1803-0.5659c-0.2803-1.4158,0.6402-2.7907,2.056-3.0709c1.3577-0.2688,2.6778,0.5667,3.031,1.8843
		"/>
	<path fill="none" stroke="#000000" stroke-linecap="round" stroke-linejoin="round" d="M16.3621,10.3106
		c-0.0558-0.1426-0.1123-0.3045-0.1431-0.4601c-0.2803-1.4158,0.6402-2.7907,2.056-3.0709c1.4158-0.2803,2.7907,0.6402,3.0709,2.056
		c0.1338,0.6757-0.1114,1.3422-0.448,1.8847"/>
	<path fill="none" stroke="#000000" stroke-linecap="round" stroke-linejoin="round" d="M11.1658,14.8448
		c-1.0631-0.1566-1.9619-0.9642-2.1825-2.0785c-0.2803-1.4158,0.6402-2.7907,2.056-3.0709c1.171-0.2318,2.3141,0.3579,2.8329,1.3699
		"/>
	<path fill="none" stroke="#000000" stroke-linecap="round" stroke-linejoin="round" d="M17.2313,19.6579
		c0.0672,0.1601,0.1568,0.3739,0.1918,0.5509c0.2803,1.4158-0.6402,2.7907-2.056,3.0709c-1.4158,0.2803-2.7907-0.6402-3.0709-2.056
		c-0.1382-0.6983,0.0478-1.408,0.4092-1.96"/>
	<path fill="none" stroke="#000000" stroke-linecap="round" stroke-linejoin="round" d="M15.2846,18.0185
		c-0.3648,0.6222-0.9841,1.0642-1.7473,1.2153c-1.4158,0.2803-2.7907-0.6402-3.0709-2.056
		c-0.2803-1.4158,0.6402-2.7907,2.056-3.0709c0.3277-0.0649,0.6532-0.0592,0.9634-0.0042"/>
	<path fill="none" stroke="#000000" stroke-linecap="round" stroke-linejoin="round" d="M18.1547,11.8157
		c0.3721-0.5557,0.9504-0.9695,1.6583-1.1097c1.4158-0.2803,2.7907,0.6402,3.0709,2.056c0.2803,1.4158-0.6402,2.7907-2.056,3.0709
		c-0.2627,0.052-0.524,0.0915-0.7771,0.0654"/>
	<path fill="none" stroke="#000000" stroke-linecap="round" stroke-linejoin="round" d="M17.8102,14.4796
		c1.1872,0.0392,2.2409,0.8895,2.4815,2.1048c0.2803,1.4158-0.6402,2.7907-2.056,3.0709c-1.4158,0.2803-2.7907-0.6402-3.0709-2.056
		c-0.1552-0.784,0.0578-1.5518,0.5193-2.1318"/>
	<circle fill="none" stroke="#000000" stroke-linecap="round" stroke-linejoin="round" cx="15.7638" cy="12.8549" r="2.6132"/>
	<path fill="none" stroke="#000000" stroke-linecap="round" stroke-linejoin="round" d="M17.0217,5.4429
		c0,0,0.0548-1.4942,0.4114-2.7797c0.3566-1.2855,1.0081-2.3656,2.0777-1.5991c1.3581,1.0252,0.4523,2.1963-0.2984,2.183"/>
</g>
<rect x="0" y="0.0346" fill="none" width="24" height="24"/>
</svg>
