<?xml version="1.0" encoding="utf-8"?>
<!-- Generator: Adobe Illustrator 18.1.0, SVG Export Plug-In . SVG Version: 6.00 Build 0)  -->
<svg version="1.1" id="Layer_1" xmlns="http://www.w3.org/2000/svg" xmlns:xlink="http://www.w3.org/1999/xlink" x="0px" y="0px"
	 width="24px" height="24px" viewBox="0 0 24 24" enable-background="new 0 0 24 24" xml:space="preserve">
<g>
	
		<line fill="none" stroke="#000000" stroke-linecap="round" stroke-linejoin="round" x1="12.022" y1="21.9691" x2="12.022" y2="21.9691"/>
	<path fill="none" stroke="#000000" stroke-linecap="round" stroke-linejoin="round" stroke-miterlimit="10" d="M8.0031,9.7639
		c0.4308-1.4558,1.6197-2.6351,3.2115-2.9561c0.412-0.0831,0.8208-0.0972,1.2187-0.0599"/>
	<path fill="none" stroke="#000000" stroke-linecap="round" stroke-linejoin="round" stroke-miterlimit="10" d="M12.053,10.9583
		c0.3858,1.9133-0.1398,3.793-1.2671,5.2094"/>
	<path fill="none" stroke="#000000" stroke-linecap="round" stroke-linejoin="round" stroke-miterlimit="10" d="M10.6455,11.0389
		c-0.04-0.6918,0.4276-1.326,1.1264-1.467c0.7658-0.1544,1.5116,0.3412,1.666,1.1069l-0.0016,0.0006
		c0.4072,2.0196-0.0171,4.009-1.0259,5.6305"/>
	<path fill="none" stroke="#000000" stroke-linecap="round" stroke-linejoin="round" stroke-miterlimit="10" d="M10.7561,12.4347
		c-0.0536,1.2026-0.5441,2.3244-1.3474,3.1745"/>
	<path fill="none" stroke="#000000" stroke-linecap="round" stroke-linejoin="round" stroke-miterlimit="10" d="M14.8879,13.6209
		c-0.1211,0.7719-0.3387,1.5181-0.6438,2.224"/>
	<path fill="none" stroke="#000000" stroke-linecap="round" stroke-linejoin="round" stroke-miterlimit="10" d="M14.9969,12.2229
		c0.0005-0.601-0.0538-1.2103-0.1772-1.8223l0.0005-0.0003c-0.3084-1.5291-1.7978-2.5186-3.3267-2.2103
		c-1.5292,0.3083-2.5187,1.7978-2.2105,3.3269l0.0034-0.0007c0.2456,1.2176-0.1725,2.4099-0.9985,3.2189"/>
	<path fill="none" stroke="#000000" stroke-linecap="round" stroke-linejoin="round" stroke-miterlimit="10" d="M13.7869,7.1088
		c1.2,0.5418,2.1351,1.6235,2.4154,3.0127l0.0007,0.0001c0.2859,1.4177,0.2718,2.8257,0.0052,4.1606"/>
	<path fill="none" stroke="#000000" stroke-linecap="round" stroke-linejoin="round" stroke-miterlimit="10" d="M7.8281,11.1527
		c0.0095,0.213,0.0292,0.4272,0.0727,0.6428l0.0022-0.0005c0.1336,0.6626-0.0601,1.313-0.4661,1.7912"/>
	<path fill="none" stroke="#000000" stroke-linecap="round" stroke-linejoin="round" d="M16.49,0.4735H7.554
		c-1.1176,0-2.0317,0.9146-2.0317,2.0313v18.9727c0,1.1173,0.9141,2.031,2.0317,2.031h8.936c1.1176,0,2.0317-0.9137,2.0317-2.031
		V2.5047C18.5217,1.3881,17.6075,0.4735,16.49,0.4735z"/>
	
		<line fill="none" stroke="#000000" stroke-linecap="round" stroke-linejoin="round" x1="5.5309" y1="3.4997" x2="18.5309" y2="3.4997"/>
	
		<line fill="none" stroke="#000000" stroke-linecap="round" stroke-linejoin="round" x1="5.5309" y1="20.5008" x2="18.5309" y2="20.5008"/>
</g>
<rect x="0.0293" fill="none" width="24" height="24"/>
</svg>
