<?xml version="1.0" encoding="utf-8"?>
<!-- Generator: Adobe Illustrator 18.1.0, SVG Export Plug-In . SVG Version: 6.00 Build 0)  -->
<svg version="1.1" id="Layer_1" xmlns="http://www.w3.org/2000/svg" xmlns:xlink="http://www.w3.org/1999/xlink" x="0px" y="0px"
	 width="24px" height="24px" viewBox="0 0 24 24" enable-background="new 0 0 24 24" xml:space="preserve">
<g>
	<g>
		<polygon fill="none" stroke="#000000" stroke-linecap="round" stroke-linejoin="round" stroke-miterlimit="10" points="
			5.5411,2.4388 5.5411,23.4826 18.4293,23.4826 18.4293,2.4388 18.4059,2.4388 16.265,0.5212 14.1253,2.4388 11.9847,0.5212 
			9.8448,2.4388 7.7043,0.5212 5.5642,2.4388 		"/>
	</g>
	
		<line fill="none" stroke="#000000" stroke-linecap="round" stroke-linejoin="round" stroke-miterlimit="10" x1="9.4549" y1="19.5071" x2="14.4646" y2="19.5071"/>
	
		<line fill="none" stroke="#000000" stroke-linecap="round" stroke-linejoin="round" stroke-miterlimit="10" x1="9.4549" y1="16.5068" x2="14.4646" y2="16.5068"/>
	<path fill="none" stroke="#000000" stroke-linecap="round" stroke-linejoin="round" stroke-miterlimit="10" d="M9.4521,11.7823
		c0.5506,0.4793,1.3997,0.8392,2.0126,0.8392c0.9806,0,1.7756-0.695,1.7756-1.5524s-0.8488-1.2815-1.7756-1.5524
		c-0.9605-0.301-1.7756-0.695-1.7756-1.5524s0.7949-1.5524,1.7756-1.5524c0.6603,0,1.2364,0.3151,1.5423,0.7827"/>
	
		<line fill="none" stroke="#000000" stroke-linecap="round" stroke-linejoin="round" stroke-miterlimit="10" x1="11.4647" y1="5.5635" x2="11.4647" y2="6.4118"/>
	
		<line fill="none" stroke="#000000" stroke-linecap="round" stroke-linejoin="round" stroke-miterlimit="10" x1="11.4647" y1="12.6214" x2="11.4647" y2="13.4698"/>
</g>
<rect x="-0.0136" y="0.0031" fill="none" width="24" height="24"/>
<rect x="-0.0136" y="0" fill="none" width="24" height="24"/>
</svg>
