<?xml version="1.0" encoding="utf-8"?>
<!-- Generator: Adobe Illustrator 18.1.0, SVG Export Plug-In . SVG Version: 6.00 Build 0)  -->
<svg version="1.1" id="Layer_1" xmlns="http://www.w3.org/2000/svg" xmlns:xlink="http://www.w3.org/1999/xlink" x="0px" y="0px"
	 width="24px" height="24px" viewBox="0 0 24 24" enable-background="new 0 0 24 24" xml:space="preserve">
<g>
	<path fill="none" stroke="#000000" stroke-linecap="round" stroke-linejoin="round" stroke-miterlimit="10" d="M20.8064,14.2048
		c-0.6759,0-1.6198-0.5479-1.6198-1.2238s0.9439-1.2238,1.6198-1.2238c0.6759,0,1.2238,0.5479,1.2238,1.2238
		S21.4823,14.2048,20.8064,14.2048z"/>
	<path fill="none" stroke="#000000" stroke-linecap="round" stroke-linejoin="round" stroke-miterlimit="10" d="M14.4237,3.5827
		c-0.6078,0.6078-1.9493,0.9639-2.5571,0.356s-0.2518-1.9493,0.356-2.5572s1.5933-0.6078,2.2011,0
		C15.0316,1.9894,15.0316,2.9749,14.4237,3.5827z"/>
	
		<line fill="none" stroke="#000000" stroke-linecap="round" stroke-linejoin="round" stroke-miterlimit="10" x1="11.9863" y1="16.5002" x2="22.9863" y2="16.5002"/>
	<path fill="none" stroke="#000000" stroke-linecap="round" stroke-linejoin="round" stroke-miterlimit="10" d="M14.1256,9.3814
		l-3.0551-1.4023c0,0-0.2256-2.4357-0.6169-2.941c-0.3669-0.4738-1.0641-0.5363-1.5565-0.1946l-3.6999,2.906
		C4.6272,8.1971,4.1849,8.7866,3.9144,9.4589L1.539,16.5002h7.8646l-1.9334-5.9096"/>
	
		<line fill="none" stroke="#000000" stroke-linecap="round" stroke-linejoin="round" stroke-miterlimit="10" x1="9.189" y1="8.8185" x2="7.4702" y2="10.5906"/>
	<path fill="none" stroke="#000000" stroke-linecap="round" stroke-linejoin="round" stroke-miterlimit="10" d="M17.4863,12.0002
		v1.2799c0,0.6866-0.6472,1.2201-1.3338,1.2201h-1.6828c-0.9635,0-1.5608-1.0371-1.0694-1.8658l0,0.0058
		c0.4196-0.7077,0.0518-1.5318-0.7352-1.7717l-1.0682-0.2979"/>
	
		<line fill="none" stroke="#000000" stroke-linecap="round" stroke-linejoin="round" stroke-miterlimit="10" x1="4.4863" y1="16.5002" x2="4.4863" y2="23.4009"/>
	
		<line fill="none" stroke="#000000" stroke-linecap="round" stroke-linejoin="round" stroke-miterlimit="10" x1="6.4865" y1="16.5002" x2="6.4865" y2="23.4009"/>
</g>
<rect x="-0.0137" y="0.0002" fill="none" width="24" height="24"/>
</svg>
