<?xml version="1.0" encoding="utf-8"?>
<!-- Generator: Adobe Illustrator 18.1.0, SVG Export Plug-In . SVG Version: 6.00 Build 0)  -->
<svg version="1.1" id="Layer_1" xmlns="http://www.w3.org/2000/svg" xmlns:xlink="http://www.w3.org/1999/xlink" x="0px" y="0px"
	 width="24px" height="24px" viewBox="0 0 24 24" enable-background="new 0 0 24 24" xml:space="preserve">
<g>
	<path fill="none" stroke="#000000" stroke-linecap="round" stroke-linejoin="round" stroke-miterlimit="3.864" d="M8.7836,1.5404
		c0.6272,4.3268,5.7322,4.2217,6.4875,0.0437"/>
	<path fill="none" stroke="#000000" stroke-linecap="round" stroke-linejoin="round" stroke-miterlimit="3.864" d="M18.4462,22.4277
		L17.9177,8.5325c1.149,0.2878,2.6185,1.9259,3.3677,0.9806c0.175-0.2206,2.0869-2.338,1.9503-2.492
		c-1.1196-1.2637-2.2389-2.5284-3.3585-3.7923c-0.8878-1.003-2.1739-1.0764-3.4547-1.4335
		c-1.7323-0.4826-2.5877,0.0357-4.4478,0.0357c-1.6426,0-2.4866-0.5358-3.9766-0.1285C6.8845,2.0073,5.1358,2.0887,4.3467,2.9792
		C3.189,4.287,2.0304,5.5948,0.8727,6.9026C0.5118,7.3106,1.875,8.4989,2.1535,8.8327c1.0838,1.3003,2.3417,0.1038,3.9257-0.2925
		L5.5703,21.25"/>
	<path fill="none" stroke="#000000" stroke-linecap="round" stroke-linejoin="round" stroke-miterlimit="10" d="M5.5703,21.25
		c0,0,2.0685,2.1924,6.835,1.1203c4.7689-1.0726,6.0409,0.0574,6.0409,0.0574"/>
	<path fill="none" stroke="#000000" stroke-linecap="round" stroke-linejoin="round" stroke-miterlimit="3.864" d="M14.6062,11.0137
		h-0.0254c-0.7373,0-1.335-0.5977-1.335-1.335V7.8638h2.6954v1.8149C15.9412,10.416,15.3435,11.0137,14.6062,11.0137z"/>
</g>
<rect x="0.0142" y="0.0344" fill="none" width="24" height="24"/>
</svg>
