<?xml version="1.0" encoding="utf-8"?>
<!-- Generator: Adobe Illustrator 18.1.0, SVG Export Plug-In . SVG Version: 6.00 Build 0)  -->
<svg version="1.1" id="Layer_1" xmlns="http://www.w3.org/2000/svg" xmlns:xlink="http://www.w3.org/1999/xlink" x="0px" y="0px"
	 width="24px" height="24px" viewBox="0 0 24 24" enable-background="new 0 0 24 24" xml:space="preserve">
<rect x="-0.0136" y="0.0121" fill="none" width="24" height="24"/>
<rect x="-0.0136" y="0.0091" fill="none" width="24" height="24"/>
<g>
	<path fill="none" stroke="#000000" stroke-linecap="round" stroke-linejoin="round" stroke-miterlimit="10" d="M12.0378,23.2937
		c0,0,9.2173,0.2968,9.3657-4.5517c0.1484-4.8485-6.3822-14.2525-6.3822-14.2525c-0.0742-0.94,2.3006-3.9865,2.3006-3.9865H6.7538
		c0,0,2.3748,3.0465,2.3006,3.9865c0,0-6.5306,9.3897-6.3822,14.2382C2.8206,23.5763,12.0378,23.2937,12.0378,23.2937z"/>
	<path fill="none" stroke="#000000" stroke-linecap="round" stroke-linejoin="round" stroke-miterlimit="10" d="M3.8038,6.4971
		c0,0,1.0204,0.9895,2.3562-0.3958s1.039-1.6149,2.8943-1.5832h5.967c0,0,2.1468-0.4395,2.8889,0.8469
		c0.7421,1.2863,0.47,2.2758,1.509,2.8448"/>
	
		<line fill="none" stroke="#000000" stroke-linecap="round" stroke-linejoin="round" stroke-miterlimit="10" x1="10.2839" y1="3.0959" x2="13.6627" y2="3.0959"/>
	
		<line fill="none" stroke="#000000" stroke-linecap="round" stroke-linejoin="round" stroke-miterlimit="10" x1="10.2839" y1="5.9977" x2="13.6627" y2="5.9977"/>
	<g>
		
			<line fill="none" stroke="#000000" stroke-linecap="round" stroke-linejoin="round" stroke-miterlimit="10" x1="9.037" y1="15.4175" x2="13.1238" y2="15.4175"/>
		<path fill="none" stroke="#000000" stroke-linecap="round" stroke-linejoin="round" stroke-miterlimit="10" d="M14.4377,11.5126
			c-0.4792-0.554-1.1873-1.0242-1.9774-1.0242c-1.3009,0-2.1433,0.6971-2.4446,1.9563c-0.133,0.556-0.1096,1.1355,0.0003,1.6966
			c0.2307,1.1776,0.8191,3.7568-0.839,5.161c0,0,1.4847-1.2719,3.0967-0.3569s2.3091-0.2178,2.3091-0.2178"/>
	</g>
</g>
</svg>
