<?xml version="1.0" encoding="utf-8"?>
<!-- Generator: Adobe Illustrator 18.1.0, SVG Export Plug-In . SVG Version: 6.00 Build 0)  -->
<svg version="1.1" id="Layer_1" xmlns="http://www.w3.org/2000/svg" xmlns:xlink="http://www.w3.org/1999/xlink" x="0px" y="0px"
	 width="24px" height="24px" viewBox="0 0 24 24" enable-background="new 0 0 24 24" xml:space="preserve">
<g>
	<path fill="none" stroke="#000000" stroke-linecap="round" stroke-linejoin="round" d="M10.5002,8.3311
		c0,1.1995-0.9724,2.1719-2.1719,2.1719H2.6722c-1.1995,0-2.1719-0.9724-2.1719-2.1719V2.675c0-1.1995,0.9724-2.1719,2.1719-2.1719
		h5.6561c1.1995,0,2.1719,0.9724,2.1719,2.1719V8.3311z"/>
	
		<line fill="none" stroke="#000000" stroke-linecap="round" stroke-linejoin="round" x1="3.5335" y1="5.5031" x2="7.4397" y2="5.5031"/>
	
		<line fill="none" stroke="#000000" stroke-linecap="round" stroke-linejoin="round" x1="5.4866" y1="3.5499" x2="5.4866" y2="7.4562"/>
	
		<line fill="none" stroke="#000000" stroke-linecap="round" stroke-linejoin="round" x1="16.5343" y1="5.5031" x2="20.4405" y2="5.5031"/>
	<path fill="none" stroke="#000000" stroke-linecap="round" stroke-linejoin="round" d="M23.5011,8.3311
		c0,1.1995-0.9724,2.1719-2.1719,2.1719H15.673c-1.1995,0-2.1719-0.9724-2.1719-2.1719V2.675c0-1.1995,0.9724-2.1719,2.1719-2.1719
		h5.6561c1.1995,0,2.1719,0.9724,2.1719,2.1719V8.3311z"/>
	<path fill="none" stroke="#000000" stroke-linecap="round" stroke-linejoin="round" d="M10.5002,21.3319
		c0,1.1995-0.9724,2.1719-2.1719,2.1719H2.6722c-1.1995,0-2.1719-0.9724-2.1719-2.1719v-5.6561
		c0-1.1995,0.9724-2.1719,2.1719-2.1719h5.6561c1.1995,0,2.1719,0.9724,2.1719,2.1719V21.3319z"/>
	
		<line fill="none" stroke="#000000" stroke-linecap="round" stroke-linejoin="round" x1="4.1055" y1="17.1228" x2="6.8676" y2="19.8849"/>
	
		<line fill="none" stroke="#000000" stroke-linecap="round" stroke-linejoin="round" x1="6.8676" y1="17.1228" x2="4.1055" y2="19.8849"/>
	
		<line fill="none" stroke="#000000" stroke-linecap="round" stroke-linejoin="round" x1="16.5343" y1="18.5039" x2="20.4405" y2="18.5039"/>
	<path fill="none" stroke="#000000" stroke-linecap="round" stroke-linejoin="round" d="M23.5011,21.3319
		c0,1.1995-0.9724,2.1719-2.1719,2.1719H15.673c-1.1995,0-2.1719-0.9724-2.1719-2.1719v-5.6561
		c0-1.1995,0.9724-2.1719,2.1719-2.1719h5.6561c1.1995,0,2.1719,0.9724,2.1719,2.1719V21.3319z"/>
	
		<line fill="none" stroke="#000000" stroke-linecap="round" stroke-linejoin="round" x1="18.5011" y1="16.5037" x2="18.5011" y2="16.5037"/>
	
		<line fill="none" stroke="#000000" stroke-linecap="round" stroke-linejoin="round" x1="18.5011" y1="20.504" x2="18.5011" y2="20.504"/>
</g>
<rect x="0.0002" y="0.0031" fill="none" width="24" height="24"/>
</svg>
