<?xml version="1.0" encoding="utf-8"?>
<!-- Generator: Adobe Illustrator 18.1.0, SVG Export Plug-In . SVG Version: 6.00 Build 0)  -->
<svg version="1.1" id="Layer_1" xmlns="http://www.w3.org/2000/svg" xmlns:xlink="http://www.w3.org/1999/xlink" x="0px" y="0px"
	 width="24px" height="24px" viewBox="0 0 24 24" enable-background="new 0 0 24 24" xml:space="preserve">
<g>
	<path fill="none" stroke="#000000" stroke-linecap="round" stroke-linejoin="round" d="M7.7794,14.533l1.3166,9.0666h1.5842
		c0.0636-0.4111,0.418-0.7265,0.8471-0.7265c0.4289,0,0.7833,0.3153,0.8467,0.7265h1.5844l1.3166-9.0666H7.7794z"/>
	<path fill="none" stroke="#000000" stroke-linecap="round" stroke-linejoin="round" d="M20.1059,0.8406
		c-4.7428-0.1774-8.5866,3.6082-8.5866,8.2546c0,0.1086,0.004,0.2161,0.0081,0.3238c0.1076,0.004,0.2152,0.0079,0.3238,0.0079
		C16.4968,9.427,20.2836,5.584,20.1059,0.8406z"/>
	<path fill="none" stroke="#000000" stroke-linecap="round" stroke-linejoin="round" d="M4.5686,2.4603
		c-0.1476,3.834,2.9183,6.9652,6.696,6.9652c0.0882,0,0.1755-0.0032,0.2627-0.0065c0.0034-0.0873,0.0066-0.1747,0.0066-0.2627
		C11.5339,5.369,8.3903,2.3113,4.5686,2.4603z"/>
	
		<line fill="none" stroke="#000000" stroke-linecap="round" stroke-linejoin="round" x1="11.5273" y1="9.419" x2="11.5273" y2="14.533"/>
</g>
<rect x="0.0142" y="0.0354" fill="none" width="24" height="24"/>
</svg>
