<?xml version="1.0" encoding="utf-8"?>
<!-- Generator: Adobe Illustrator 18.1.0, SVG Export Plug-In . SVG Version: 6.00 Build 0)  -->
<svg version="1.1" id="Layer_1" xmlns="http://www.w3.org/2000/svg" xmlns:xlink="http://www.w3.org/1999/xlink" x="0px" y="0px"
	 width="24px" height="24px" viewBox="0 0 24 24" enable-background="new 0 0 24 24" xml:space="preserve">
<g>
	<path fill="none" stroke="#000000" stroke-linecap="round" stroke-linejoin="round" stroke-miterlimit="10" d="M3.9404,6.4844
		l2.0747,9.0834c-0.0018,0.008-0.0057,0.0153-0.0073,0.0235L5.454,17.5589c-0.0894,0.4365,0.2472,0.8422,0.6913,0.8422h14.2769"/>
	<path fill="none" stroke="#000000" stroke-linecap="round" stroke-linejoin="round" stroke-miterlimit="10" d="M10.5195,6.4844
		H3.9404L4.4298,4.195c-0.0836-0.391-0.4306-0.6702-0.8321-0.6702H0.6337"/>
	
		<line fill="none" stroke="#000000" stroke-linecap="round" stroke-linejoin="round" stroke-miterlimit="10" x1="22.9145" y1="6.4844" x2="16.5191" y2="6.4844"/>
	<path fill="none" stroke="#000000" stroke-linecap="round" stroke-linejoin="round" stroke-miterlimit="10" d="M6.0151,15.5678
		L20.21,14.0334c0.396,0,0.7384-0.2708,0.8285-0.6539l2.3104-8.4792"/>
	
		<ellipse fill="none" stroke="#000000" stroke-linecap="round" stroke-linejoin="round" stroke-miterlimit="10" cx="6.9822" cy="21.8819" rx="1.5164" ry="1.508"/>
	
		<ellipse fill="none" stroke="#000000" stroke-linecap="round" stroke-linejoin="round" stroke-miterlimit="10" cx="18.9064" cy="21.8819" rx="1.5159" ry="1.508"/>
	
		<line fill="none" stroke="#000000" stroke-linecap="round" stroke-linejoin="round" stroke-miterlimit="10" x1="13.5205" y1="11.4818" x2="13.5205" y2="0.5938"/>
	<polyline fill="none" stroke="#000000" stroke-linecap="round" stroke-linejoin="round" stroke-miterlimit="10" points="
		16.4962,8.5214 13.5205,11.4818 10.5447,8.5214 	"/>
</g>
<rect x="-0.0137" y="0.0001" fill="none" width="24" height="24"/>
</svg>
