<?xml version="1.0" encoding="utf-8"?>
<!-- Generator: Adobe Illustrator 18.1.0, SVG Export Plug-In . SVG Version: 6.00 Build 0)  -->
<svg version="1.1" id="Layer_1" xmlns="http://www.w3.org/2000/svg" xmlns:xlink="http://www.w3.org/1999/xlink" x="0px" y="0px"
	 width="24px" height="24px" viewBox="0 0 24 24" enable-background="new 0 0 24 24" xml:space="preserve">
<g>
	<path fill="none" stroke="#000000" stroke-linecap="round" stroke-linejoin="round" stroke-miterlimit="10" d="M16.1139,16.278
		c-2.5693-1.0154-5.4215-2.2763-5.6612-3.0621v-0.8242c0.533-0.5576,0.9534-1.3353,1.2021-2.2458
		c0.5982-0.4295,0.7462-1.3144,0.2516-1.9366V6.3642c0-1.9048-1.0371-3.2087-3.4081-3.2087c-2.3098,0-3.4094,1.3039-3.4094,3.2087
		V8.21c-0.4938,0.6216-0.3454,1.5058,0.2516,1.9356c0.2488,0.9108,0.6695,1.6885,1.2027,2.2462v0.8242
		c-0.239,0.7848-3.0919,2.046-5.6612,3.0621c-0.219,0.0869-0.3639,0.3048-0.3639,0.5483v2.0614
		c0,0.3237,0.2531,0.5868,0.5653,0.5868h14.829c0.3121,0,0.5653-0.2631,0.5653-0.5868v-2.0614
		C16.4778,16.5828,16.3328,16.3643,16.1139,16.278z"/>
	<path fill="none" stroke="#000000" stroke-linecap="round" stroke-linejoin="round" stroke-miterlimit="10" d="M18.4865,19.4745
		h4.5808c0.2447,0,0.4431-0.2016,0.4431-0.4497v-1.5799c0-0.1866-0.1136-0.3541-0.2852-0.4202
		c-2.0139-0.7783-4.2496-1.7446-4.4375-2.3469v-0.6317c0.4178-0.4274,0.7473-1.0234,0.9423-1.7213
		c0.4651-0.3265,0.5873-1.0045,0.1972-1.4843V9.4264c0-1.4599-0.8129-2.4592-2.6714-2.4592c-1.8105,0-2.6724,0.9993-2.6724,2.4592
		v1.4147c-0.3886,0.4784-0.2678,1.1561,0.1972,1.4835c0.195,0.6981,0.5248,1.2942,0.9428,1.7215"/>
</g>
<rect x="0.0005" y="0.0004" fill="none" width="24" height="24"/>
</svg>
