<?xml version="1.0" encoding="utf-8"?>
<!-- Generator: Adobe Illustrator 18.1.0, SVG Export Plug-In . SVG Version: 6.00 Build 0)  -->
<svg version="1.1" id="Layer_1" xmlns="http://www.w3.org/2000/svg" xmlns:xlink="http://www.w3.org/1999/xlink" x="0px" y="0px"
	 width="24px" height="24px" viewBox="0 0 24 24" enable-background="new 0 0 24 24" xml:space="preserve">
<g>
	<polygon fill="none" stroke="#000000" stroke-linecap="round" stroke-linejoin="round" stroke-miterlimit="10" points="
		12.0543,0.4003 2.7636,8.5 8.4957,8.5 6.56,23.5 17.5336,23.5 15.5979,8.5 21.33,8.5 	"/>
	
		<line fill="none" stroke="#000000" stroke-linecap="round" stroke-linejoin="round" stroke-miterlimit="10" x1="2.7636" y1="10.5" x2="6.532" y2="10.5"/>
	
		<line fill="none" stroke="#000000" stroke-linecap="round" stroke-linejoin="round" stroke-miterlimit="10" x1="17.552" y1="10.5" x2="21.3837" y2="10.5"/>
	<path fill="none" stroke="#000000" stroke-linecap="round" stroke-linejoin="round" stroke-miterlimit="10" d="M10.5011,18.338
		c0.4493,0.3976,1.1423,0.6962,1.6424,0.6962c0.8003,0,1.449-0.5766,1.449-1.2878s-0.6927-1.0631-1.449-1.2878
		c-0.7839-0.2497-1.449-0.5766-1.449-1.2878s0.6487-1.2878,1.449-1.2878c0.5389,0,1.009,0.2614,1.2587,0.6493"/>
	
		<line fill="none" stroke="#000000" stroke-linecap="round" stroke-linejoin="round" stroke-miterlimit="10" x1="12.1435" y1="13.179" x2="12.1435" y2="13.8828"/>
	
		<line fill="none" stroke="#000000" stroke-linecap="round" stroke-linejoin="round" stroke-miterlimit="10" x1="12.1435" y1="19.0341" x2="12.1435" y2="19.7379"/>
</g>
<rect x="0" y="0" fill="none" width="24" height="24"/>
</svg>
