<?xml version="1.0" encoding="utf-8"?>
<!-- Generator: Adobe Illustrator 18.1.0, SVG Export Plug-In . SVG Version: 6.00 Build 0)  -->
<svg version="1.1" id="Layer_1" xmlns="http://www.w3.org/2000/svg" xmlns:xlink="http://www.w3.org/1999/xlink" x="0px" y="0px"
	 width="24px" height="24px" viewBox="0 0 24 24" enable-background="new 0 0 24 24" xml:space="preserve">
<g>
	<path fill="none" stroke="#000000" stroke-linecap="round" stroke-linejoin="round" d="M13.1425,9.9121
		c0,0,0.4037-2.1367,0.4127-2.184c0.0907-0.4801-1.1297-1.1136-2.7255-1.4153c-1.596-0.3017-2.9632-0.1564-3.0538,0.3234
		c-0.009,0.0473-0.4128,2.184-0.4128,2.184"/>
	<path fill="none" stroke="#000000" stroke-linecap="round" stroke-linejoin="round" d="M11.1954,6.39l0.3685-1.0329
		c0,0,0.6547-1.4478,2.1967-0.7772c1.543,0.6707,5.1387,1.6764,5.8522,0.1519"/>
	<circle fill="none" stroke="#000000" stroke-linecap="round" stroke-linejoin="round" cx="8.9905" cy="16.0483" r="7.4082"/>
	<path fill="none" stroke="#000000" stroke-linecap="round" stroke-linejoin="round" d="M12.9143,12.6573
		c0.9971,1.1552,1.4772,2.7376,1.1719,4.3537c-0.3319,1.7569-1.5137,3.1379-3.0396,3.7985"/>
	
		<line fill="none" stroke="#000000" stroke-linecap="round" stroke-linejoin="round" x1="23.4569" y1="3.9868" x2="21.4628" y2="4.2601"/>
	
		<line fill="none" stroke="#000000" stroke-linecap="round" stroke-linejoin="round" x1="21.442" y1="7.8937" x2="20.5499" y2="6.1053"/>
	
		<line fill="none" stroke="#000000" stroke-linecap="round" stroke-linejoin="round" x1="16.4065" y1="2.7788" x2="18.1443" y2="3.6777"/>
	
		<line fill="none" stroke="#000000" stroke-linecap="round" stroke-linejoin="round" x1="20.3442" y1="0.8247" x2="20.0139" y2="2.7432"/>
</g>
<rect x="0.0142" y="-0.003" fill="none" width="24" height="24"/>
</svg>
