<?xml version="1.0" encoding="utf-8"?>
<!-- Generator: Adobe Illustrator 18.1.0, SVG Export Plug-In . SVG Version: 6.00 Build 0)  -->
<svg version="1.1" id="Layer_1" xmlns="http://www.w3.org/2000/svg" xmlns:xlink="http://www.w3.org/1999/xlink" x="0px" y="0px"
	 width="24px" height="24px" viewBox="0 0 24 24" enable-background="new 0 0 24 24" xml:space="preserve">
<g>
	
		<line fill="none" stroke="#000000" stroke-linecap="round" stroke-linejoin="round" x1="20.5172" y1="8.5668" x2="20.5172" y2="11.5035"/>
	<path fill="none" stroke="#000000" stroke-linecap="round" stroke-linejoin="round" stroke-miterlimit="10" d="M18.5172,17.2261
		c0,1.2749-1.0335,2.3085-2.3085,2.3085h-9.383c-1.2749,0-2.3085-1.0335-2.3085-2.3085V6.843c0-1.2749,1.0335-2.3085,2.3085-2.3085
		h9.383c1.2749,0,2.3085,1.0335,2.3085,2.3085V17.2261z"/>
	<path fill="none" stroke="#000000" stroke-linecap="round" stroke-linejoin="round" d="M6.3266,4.5892
		c0.9136-0.2717,1.3303-2.3459,1.4068-3.3287c0.0301-0.3861,0.3388-0.7259,0.7232-0.7259c0.7175,0,5.4213,0,6.1389,0
		c0.3844,0,0.6931,0.3398,0.7232,0.7259c0.0766,0.9828,0.4932,3.057,1.4068,3.3287"/>
	<path fill="none" stroke="#000000" stroke-linecap="round" stroke-linejoin="round" d="M16.6146,19.4981
		c-0.9136,0.2717-1.2194,2.3502-1.296,3.333c-0.0301,0.3861-0.3388,0.7034-0.7232,0.7034c-0.7175,0-5.4213,0-6.1389,0
		c-0.3844,0-0.6931-0.3173-0.7232-0.7034c-0.0766-0.9828-0.311-3.0473-1.2246-3.319"/>
	
		<circle fill="none" stroke="#000000" stroke-linecap="round" stroke-linejoin="round" stroke-miterlimit="10" cx="13.2567" cy="7.3166" r="0.9265"/>
	<path fill="none" stroke="#000000" stroke-linecap="round" stroke-linejoin="round" stroke-miterlimit="10" d="M12.5192,17.4653
		c0,0-0.0054-2.0732-0.0455-2.7313c-0.0072-0.1189-0.0574-0.2297-0.1409-0.3146l-1.5328-1.5587
		c-0.1221-0.2194-0.1489-0.4793-0.0739-0.7189l0.6252-1.9995c0.1535-0.4909,0.6501-0.8208,1.1525-0.7104
		c0.5666,0.1245,0.8935,0.7027,0.7242,1.2442L12.9857,12.57l1.9193,0.0302"/>
	<polyline fill="none" stroke="#000000" stroke-linecap="round" stroke-linejoin="round" stroke-miterlimit="10" points="
		10.0304,13.9086 9.4109,14.5885 7.1487,14.5885 	"/>
	<polyline fill="none" stroke="#000000" stroke-linecap="round" stroke-linejoin="round" stroke-miterlimit="10" points="
		10.2713,9.5406 9.5287,9.5406 8.6226,11.3106 	"/>
</g>
<rect x="0.0142" y="0.0346" fill="none" width="24" height="24"/>
</svg>
