<?xml version="1.0" encoding="utf-8"?>
<!-- Generator: Adobe Illustrator 18.1.1, SVG Export Plug-In . SVG Version: 6.00 Build 0)  -->
<svg version="1.1" id="Layer_1" xmlns="http://www.w3.org/2000/svg" xmlns:xlink="http://www.w3.org/1999/xlink" x="0px" y="0px"
	 width="24px" height="24px" viewBox="0 0 24 24" enable-background="new 0 0 24 24" xml:space="preserve">
<g>
	<path fill="none" stroke="#000000" stroke-linecap="round" stroke-linejoin="round" d="M5.3,13.8c-0.4,0.2-0.7,0.6-0.7,1.1
		c0,0.7,0.5,1.2,1.2,1.2c0,0,0,0,0,0c0.3,3.2,3.9,6,6.2,6c2.4,0,6-2.7,6.2-6c0,0,0,0,0,0c0.7,0,1.2-0.5,1.2-1.2
		c0-0.5-0.3-0.9-0.7-1.1"/>
	<path fill="none" stroke="#000000" stroke-linecap="round" stroke-linejoin="round" stroke-miterlimit="10" d="M6.9,14.3
		c0,0-0.7-0.9-1.7-0.5"/>
	<path fill="none" stroke="#000000" stroke-linecap="round" stroke-linejoin="round" stroke-miterlimit="10" d="M17.1,14.3
		c0,0,0.7-0.9,1.7-0.5"/>
	<path fill="none" stroke="#000000" stroke-linecap="round" stroke-linejoin="round" d="M17.9,9.8c-1.7,0.7-3.3,1.1-5.8,1.1
		c-2.5,0-4.5-0.4-6.2-1.2"/>
	
		<line fill="none" stroke="#000000" stroke-linecap="round" stroke-linejoin="round" stroke-miterlimit="10" x1="2.5" y1="7.4" x2="2.5" y2="9.5"/>
	<path fill="none" stroke="#000000" stroke-linecap="round" stroke-linejoin="round" stroke-miterlimit="10" d="M3.5,11.1
		c0,0.2-0.2,0.4-0.5,0.4H2c-0.3,0-0.5-0.2-0.5-0.4l0.2-1.1c0-0.2,0.2-0.4,0.5-0.4h0.5c0.3,0,0.5,0.2,0.5,0.4L3.5,11.1z"/>
	<polygon fill="none" stroke="#000000" stroke-linecap="round" stroke-linejoin="round" stroke-miterlimit="10" points="1,4.5 
		12.1,2 23.2,4.5 12.1,7.4 	"/>
	
		<line fill="none" stroke="#000000" stroke-linecap="round" stroke-linejoin="round" stroke-miterlimit="10" x1="18.1" y1="13.7" x2="17.6" y2="6"/>
	
		<line fill="none" stroke="#000000" stroke-linecap="round" stroke-linejoin="round" stroke-miterlimit="10" x1="6.1" y1="5.8" x2="5.6" y2="13.7"/>
	
		<line fill="none" stroke="#000000" stroke-linecap="round" stroke-linejoin="round" stroke-miterlimit="10" x1="1" y1="4.5" x2="11.6" y2="4.5"/>
	
		<circle fill="none" stroke="#000000" stroke-linecap="round" stroke-linejoin="round" stroke-miterlimit="10" cx="9.1" cy="14.4" r="1.9"/>
	
		<circle fill="none" stroke="#000000" stroke-linecap="round" stroke-linejoin="round" stroke-miterlimit="10" cx="14.9" cy="14.4" r="1.9"/>
	<path fill="none" stroke="#000000" stroke-linecap="round" stroke-linejoin="round" stroke-miterlimit="10" d="M11,14.4
		c0-0.6,0.5-1,1-1s1,0.5,1,1"/>
	<path fill="none" stroke="#000000" stroke-linecap="round" stroke-linejoin="round" d="M10.5,18.3c0,0,1.4,1.5,2.9,0"/>
	<line fill="none" stroke="#000000" stroke-linecap="round" stroke-linejoin="round" x1="9.1" y1="14.6" x2="9.2" y2="14.6"/>
	<line fill="none" stroke="#000000" stroke-linecap="round" stroke-linejoin="round" x1="14.9" y1="14.6" x2="14.8" y2="14.6"/>
</g>
<rect x="0" y="0" fill="none" width="24" height="24"/>
</svg>
