<?xml version="1.0" encoding="utf-8"?>
<!-- Generator: Adobe Illustrator 18.1.0, SVG Export Plug-In . SVG Version: 6.00 Build 0)  -->
<svg version="1.1" id="Layer_1" xmlns="http://www.w3.org/2000/svg" xmlns:xlink="http://www.w3.org/1999/xlink" x="0px" y="0px"
	 width="24px" height="24px" viewBox="0 0 24 24" enable-background="new 0 0 24 24" xml:space="preserve">
<g>
	<polyline fill="none" stroke="#000000" stroke-linecap="round" stroke-linejoin="round" stroke-miterlimit="10" points="
		6.5058,14.5346 8.1832,14.5346 9.4216,8.7049 11.2405,17.4128 12.3273,12.3527 13.3012,14.5346 16.4387,14.5346 	"/>
	<path fill="none" stroke="#000000" stroke-linecap="round" stroke-linejoin="round" stroke-miterlimit="10" d="M14.1198,8.031
		c-0.9999-1.3145-2.9059,0.238-1.9336,1.413c0.0958,0.1132,1.7636,2.1523,1.9113,2.1532c0.1486,0,1.8243-1.9977,1.9217-2.11
		C17.0597,8.2447,15.112,6.7272,14.1198,8.031z"/>
	
		<line fill="none" stroke="#000000" stroke-linecap="round" stroke-linejoin="round" x1="20.5142" y1="8.5668" x2="20.5142" y2="11.5035"/>
	<path fill="none" stroke="#000000" stroke-linecap="round" stroke-linejoin="round" stroke-miterlimit="10" d="M18.5142,17.2261
		c0,1.2749-1.0335,2.3085-2.3085,2.3085h-9.383c-1.2749,0-2.3085-1.0335-2.3085-2.3085V6.843c0-1.2749,1.0335-2.3085,2.3085-2.3085
		h9.383c1.2749,0,2.3085,1.0335,2.3085,2.3085V17.2261z"/>
	<path fill="none" stroke="#000000" stroke-linecap="round" stroke-linejoin="round" d="M6.3236,4.5892
		c0.9136-0.2717,1.3303-2.3459,1.4068-3.3287c0.0301-0.3861,0.3388-0.7259,0.7232-0.7259c0.7175,0,5.4213,0,6.1389,0
		c0.3844,0,0.6931,0.3398,0.7232,0.7259c0.0766,0.9828,0.4932,3.057,1.4068,3.3287"/>
	<path fill="none" stroke="#000000" stroke-linecap="round" stroke-linejoin="round" d="M16.6116,19.4981
		c-0.9136,0.2717-1.2194,2.3502-1.296,3.333c-0.0301,0.3861-0.3388,0.7034-0.7232,0.7034c-0.7175,0-5.4213,0-6.1389,0
		c-0.3844,0-0.6931-0.3173-0.7232-0.7034c-0.0766-0.9828-0.311-3.0473-1.2246-3.319"/>
</g>
<rect x="0.0142" y="0.0346" fill="none" width="24" height="24"/>
</svg>
