<?xml version="1.0" encoding="utf-8"?>
<!-- Generator: Adobe Illustrator 18.1.0, SVG Export Plug-In . SVG Version: 6.00 Build 0)  -->
<svg version="1.1" id="Layer_1" xmlns="http://www.w3.org/2000/svg" xmlns:xlink="http://www.w3.org/1999/xlink" x="0px" y="0px"
	 width="24px" height="24px" viewBox="0 0 24 24" enable-background="new 0 0 24 24" xml:space="preserve">
<g>
	<path fill="none" stroke="#000000" stroke-linecap="round" stroke-linejoin="round" stroke-miterlimit="10" d="M21.3224,11.5354
		c0-2-1.6981-3.7929-3.7929-3.7929s-3.7929,1.7929-3.7929,3.7929H21.3224z"/>
	<path fill="none" stroke="#000000" stroke-linecap="round" stroke-linejoin="round" stroke-miterlimit="10" d="M17.5295,7.7425
		c0-3.023-2.0839-6.1883-5.5487-6.0944C8.959,1.73,6.5142,3.9935,6.5142,7.0164v16.519"/>
	
		<line fill="none" stroke="#000000" stroke-linecap="round" stroke-linejoin="round" stroke-miterlimit="10" x1="4.0142" y1="23.5354" x2="9.0142" y2="23.5354"/>
	<path fill="none" stroke="#000000" stroke-linecap="round" stroke-linejoin="round" d="M16.8453,10.7035"/>
	
		<line fill="none" stroke="#000000" stroke-linecap="round" stroke-linejoin="round" x1="17.5142" y1="17.3891" x2="17.5142" y2="18.8386"/>
	
		<line fill="none" stroke="#000000" stroke-linecap="round" stroke-linejoin="round" x1="15.4301" y1="16.3278" x2="14.0496" y2="17.743"/>
	
		<line fill="none" stroke="#000000" stroke-linecap="round" stroke-linejoin="round" x1="19.5983" y1="16.3278" x2="20.9788" y2="17.743"/>
	<path fill="none" stroke="#000000" stroke-linecap="round" stroke-linejoin="round" stroke-miterlimit="10" d="M16,13.4615
		c0,0.9294,0.7216,1.6828,1.6118,1.6828c0.8902,0,1.6118-0.7534,1.6118-1.6828"/>
</g>
<rect x="0.0142" y="0.0354" fill="none" width="24" height="24"/>
</svg>
