<?xml version="1.0" encoding="utf-8"?>
<!-- Generator: Adobe Illustrator 18.1.0, SVG Export Plug-In . SVG Version: 6.00 Build 0)  -->
<svg version="1.1" id="Layer_1" xmlns="http://www.w3.org/2000/svg" xmlns:xlink="http://www.w3.org/1999/xlink" x="0px" y="0px"
	 width="24px" height="24px" viewBox="0 0 24 24" enable-background="new 0 0 24 24" xml:space="preserve">
<g>
	<path fill="none" stroke="#000000" stroke-linecap="round" stroke-linejoin="round" stroke-miterlimit="10" d="M12.0002,23.3727
		c-0.7813,0-1.4166-0.6357-1.4166-1.4165v-5.1123c0-0.7813,0.6353-1.4165,1.4166-1.4165c0.7809,0,1.4164,0.6352,1.4164,1.4165
		v5.1123C13.4166,22.737,12.7811,23.3727,12.0002,23.3727"/>
	<path fill="none" stroke="#000000" stroke-linecap="round" stroke-linejoin="round" stroke-miterlimit="10" d="M16.3507,4.8329
		c0,2.5478-4.3508,6.8844-4.3508,6.8844S7.6493,7.3356,7.6493,4.8329c0-1.8857,1.7055-4.1225,4.3506-4.1225
		C14.6453,0.7104,16.3507,2.9472,16.3507,4.8329z"/>
	<path fill="none" stroke="#000000" stroke-linecap="round" stroke-linejoin="round" stroke-miterlimit="10" d="M12.0001,11.7171
		V0.7104C10.5237,0.7104,7.9062,5.524,12.0001,11.7171z"/>
	<path fill="none" stroke="#000000" stroke-linecap="round" stroke-linejoin="round" stroke-miterlimit="10" d="M12.0001,11.7171
		V0.7104C13.2772,0.7104,16.0938,5.5244,12.0001,11.7171z"/>
	
		<line fill="none" stroke="#000000" stroke-linecap="round" stroke-linejoin="round" stroke-miterlimit="10" x1="12.0002" y1="21.5341" x2="12.0002" y2="21.5341"/>
	
		<line fill="none" stroke="#000000" stroke-linecap="round" stroke-linejoin="round" stroke-miterlimit="10" x1="12.0001" y1="11.7171" x2="12.0002" y2="13.4679"/>
</g>
<rect x="0" y="0.0197" fill="none" width="24" height="24"/>
</svg>
