<?xml version="1.0" encoding="utf-8"?>
<!-- Generator: Adobe Illustrator 18.1.0, SVG Export Plug-In . SVG Version: 6.00 Build 0)  -->
<svg version="1.1" id="Layer_1" xmlns="http://www.w3.org/2000/svg" xmlns:xlink="http://www.w3.org/1999/xlink" x="0px" y="0px"
	 width="24px" height="24px" viewBox="0 0 24 24" enable-background="new 0 0 24 24" xml:space="preserve">
<g>
	<path fill="none" stroke="#000000" stroke-linecap="round" stroke-linejoin="round" d="M18.4859,20.5014
		c0,0-3.9559,0-3.9559-0.0002c0,1.4057-1.1396,2.5453-2.5453,2.5453s-2.5453-1.1396-2.5453-2.5453
		c0,0.0002-3.9533,0.0002-3.9533,0.0002l0.0004-0.0011V0.5002L9.4398,0.5c0,1.4057,1.1396,2.5453,2.5453,2.5453
		S14.5304,1.9057,14.5304,0.5l3.9559,0.0002v20.0001L18.4859,20.5014z"/>
	<g>
		<g>
			
				<line fill="none" stroke="#000000" stroke-linecap="round" stroke-linejoin="round" x1="5.4865" y1="7.5004" x2="6.4865" y2="7.5004"/>
			
				<line fill="none" stroke="#000000" stroke-linecap="round" stroke-linejoin="round" stroke-dasharray="1.6923,2.5384" x1="9.0249" y1="7.5004" x2="16.2171" y2="7.5004"/>
			
				<line fill="none" stroke="#000000" stroke-linecap="round" stroke-linejoin="round" x1="17.4862" y1="7.5004" x2="18.4862" y2="7.5004"/>
		</g>
	</g>
</g>
<rect x="-0.0136" y="0.0001" fill="none" width="24" height="24"/>
</svg>
