<?xml version="1.0" encoding="utf-8"?>
<!-- Generator: Adobe Illustrator 18.1.0, SVG Export Plug-In . SVG Version: 6.00 Build 0)  -->
<svg version="1.1" id="Layer_1" xmlns="http://www.w3.org/2000/svg" xmlns:xlink="http://www.w3.org/1999/xlink" x="0px" y="0px"
	 width="24px" height="24px" viewBox="0 0 24 24" enable-background="new 0 0 24 24" xml:space="preserve">
<g>
	<path fill="none" stroke="#000000" stroke-linecap="round" stroke-linejoin="round" stroke-miterlimit="10" d="M6.7121,8.4853
		c0,0,0.4594-2.8845,1.6058-2.9303c1.1465-0.0458,2.5718,1.5109,3.0676,0.641c0.4958-0.8699,1.3943-1.2362,3.2225-1.4652
		c1.8281-0.2289,1.0535-1.7857,2.2-1.282c1.1465,0.5036,3.2845,4.2123,3.3775,5.0365"/>
	
		<circle fill="none" stroke="#000000" stroke-linecap="round" stroke-linejoin="round" stroke-miterlimit="10" cx="20.4296" cy="19.5152" r="1.9702"/>
	<polyline fill="none" stroke="#000000" stroke-linecap="round" stroke-linejoin="round" points="1.0052,8.4853 3.2508,8.4853 
		7.3083,21.4853 8.6789,21.4853 10.6294,17.2103 	"/>
	<path fill="none" stroke="#000000" stroke-linecap="round" stroke-linejoin="round" stroke-miterlimit="10" d="M5.1804,14.6441
		c0,0,12.0469,8.8412,16.9116-4.1588H3.875"/>
</g>
<rect x="0.0022" y="-0.0147" fill="none" width="24" height="24"/>
</svg>
