<?xml version="1.0" encoding="utf-8"?>
<!-- Generator: Adobe Illustrator 18.1.0, SVG Export Plug-In . SVG Version: 6.00 Build 0)  -->
<svg version="1.1" id="Layer_1" xmlns="http://www.w3.org/2000/svg" xmlns:xlink="http://www.w3.org/1999/xlink" x="0px" y="0px"
	 width="24px" height="24px" viewBox="0 0 24 24" enable-background="new 0 0 24 24" xml:space="preserve">
<g>
	
		<circle fill="none" stroke="#000000" stroke-linecap="round" stroke-linejoin="round" stroke-miterlimit="3.864" cx="19.0686" cy="10.0324" r="2.1685"/>
	<path fill="none" stroke="#000000" stroke-linecap="round" stroke-linejoin="round" stroke-miterlimit="3.864" d="M0.6909,15.5344
		h21.436c0.7751,0,1.3933-0.7027,1.3933-1.4688V5.5344h-8.3306c-4.0347,0-7.9769,1.2394-10.8954,3.9928
		C2.6415,11.0864,1.2114,12.5344,0.6909,15.5344z"/>
	<path fill="none" stroke="#000000" stroke-linecap="round" stroke-linejoin="round" stroke-miterlimit="3.864" d="M23.5202,5.5344
		V2.9653c0-0.7661-0.6182-1.4309-1.3933-1.4309H10.0202"/>
	<path fill="none" stroke="#000000" stroke-linecap="round" stroke-linejoin="round" stroke-miterlimit="10" d="M3.5933,23.619
		L3.5933,23.619c0.8172-0.8172,0.8172-2.1421,0-2.9593l0,0c-0.8172-0.8172-0.8172-2.1421,0-2.9593l0,0"/>
	<path fill="none" stroke="#000000" stroke-linecap="round" stroke-linejoin="round" stroke-miterlimit="10" d="M8.5936,23.619
		L8.5936,23.619c0.8172-0.8172,0.8172-2.1421,0-2.9593l0,0c-0.8172-0.8172-0.8172-2.1421,0-2.9593l0,0"/>
	<path fill="none" stroke="#000000" stroke-linecap="round" stroke-linejoin="round" stroke-miterlimit="10" d="M13.594,23.619
		L13.594,23.619c0.8172-0.8172,0.8172-2.1421,0-2.9593l0,0c-0.8172-0.8172-0.8172-2.1421,0-2.9593l0,0"/>
	<path fill="none" stroke="#000000" stroke-linecap="round" stroke-linejoin="round" stroke-miterlimit="10" d="M18.5943,23.619
		L18.5943,23.619c0.8172-0.8172,0.8172-2.1421,0-2.9593l0,0c-0.8172-0.8172-0.8172-2.1421,0-2.9593l0,0"/>
</g>
<rect x="0.0142" y="0.0344" fill="none" width="24" height="24"/>
</svg>
