<?xml version="1.0" encoding="utf-8"?>
<!-- Generator: Adobe Illustrator 18.1.0, SVG Export Plug-In . SVG Version: 6.00 Build 0)  -->
<svg version="1.1" id="Layer_1" xmlns="http://www.w3.org/2000/svg" xmlns:xlink="http://www.w3.org/1999/xlink" x="0px" y="0px"
	 width="24px" height="24px" viewBox="0 0 24 24" enable-background="new 0 0 24 24" xml:space="preserve">
<g>
	<path fill="none" stroke="#000000" stroke-linecap="round" stroke-linejoin="round" stroke-miterlimit="10" d="M13.7763,15.4189
		c-0.4621-0.3233-0.7651-0.622-0.8437-0.8799v-1.0337c0.668-0.6993,1.1949-1.6746,1.5067-2.8165
		c0.7497-0.5387,0.9351-1.6485,0.3153-2.4287v-2.314c0-2.3888-1.2999-4.024-4.2717-4.024c-2.8951,0-4.2732,1.6352-4.2732,4.024
		V8.261C5.591,9.0405,5.777,10.1494,6.5252,10.6884c0.3118,1.1423,0.8391,2.1176,1.5075,2.8169v1.0337
		c-0.2996,0.9842-3.8753,2.5658-7.0956,3.8401c-0.2745,0.109-0.4561,0.3822-0.4561,0.6876v1.089"/>
	
		<circle fill="none" stroke="#000000" stroke-linecap="round" stroke-linejoin="round" stroke-miterlimit="10" cx="19.0501" cy="19.0009" r="4.2877"/>
	
		<line fill="none" stroke="#000000" stroke-linecap="round" stroke-linejoin="round" stroke-miterlimit="10" x1="18.3135" y1="20.7348" x2="21.0647" y2="17.794"/>
	
		<line fill="none" stroke="#000000" stroke-linecap="round" stroke-linejoin="round" stroke-miterlimit="10" x1="18.3135" y1="20.7348" x2="17.0358" y2="19.3691"/>
</g>
<rect x="0.0005" y="0.0004" fill="none" width="24" height="24"/>
</svg>
