<?xml version="1.0" encoding="utf-8"?>
<!-- Generator: Adobe Illustrator 18.1.0, SVG Export Plug-In . SVG Version: 6.00 Build 0)  -->
<svg version="1.1" id="Layer_1" xmlns="http://www.w3.org/2000/svg" xmlns:xlink="http://www.w3.org/1999/xlink" x="0px" y="0px"
	 width="24px" height="24px" viewBox="0 0 24 24" enable-background="new 0 0 24 24" xml:space="preserve">
<g>
	<path fill="none" stroke="#000000" stroke-linecap="round" stroke-linejoin="round" stroke-miterlimit="10" d="M11.9911,0.6912
		c-6.2463,0-11.3279,5.0816-11.3279,11.3273c0,6.2467,5.0816,11.3283,11.3279,11.3283c6.2467,0,11.3278-5.0816,11.3278-11.3283
		C23.3189,5.7728,18.2379,0.6912,11.9911,0.6912z"/>
	<polyline fill="none" stroke="#000000" stroke-linecap="round" stroke-linejoin="round" stroke-miterlimit="10" points="
		17.2072,9.1325 20.0937,12.0191 17.2072,14.9056 	"/>
	<polyline fill="none" stroke="#000000" stroke-linecap="round" stroke-linejoin="round" stroke-miterlimit="10" points="
		6.775,14.9056 3.8885,12.0191 6.775,9.1325 	"/>
	<polyline fill="none" stroke="#000000" stroke-linecap="round" stroke-linejoin="round" stroke-miterlimit="10" points="
		9.1046,6.803 11.9911,3.9164 14.8776,6.803 	"/>
	<polyline fill="none" stroke="#000000" stroke-linecap="round" stroke-linejoin="round" stroke-miterlimit="10" points="
		14.8776,17.2351 11.9911,20.1217 9.1046,17.2351 	"/>
	
		<line fill="none" stroke="#000000" stroke-linecap="round" stroke-linejoin="round" stroke-miterlimit="10" x1="4.0344" y1="12.0192" x2="20.0937" y2="12.0192"/>
	
		<line fill="none" stroke="#000000" stroke-linecap="round" stroke-linejoin="round" stroke-miterlimit="10" x1="12.0641" y1="3.9894" x2="12.0641" y2="20.0487"/>
</g>
<rect x="0" y="0.001" fill="none" width="24" height="24"/>
</svg>
