<?xml version="1.0" encoding="utf-8"?>
<!-- Generator: Adobe Illustrator 18.1.0, SVG Export Plug-In . SVG Version: 6.00 Build 0)  -->
<svg version="1.1" id="Layer_1" xmlns="http://www.w3.org/2000/svg" xmlns:xlink="http://www.w3.org/1999/xlink" x="0px" y="0px"
	 width="24px" height="24px" viewBox="0 0 24 24" enable-background="new 0 0 24 24" xml:space="preserve">
<g>
	<path fill="none" stroke="#000000" stroke-linecap="round" stroke-linejoin="round" d="M9.9216,11.3894l13.3616-6.2455
		C21.1211,0.92,13.2867,7.8897,9.8447,11.1807"/>
	<path fill="none" stroke="#000000" stroke-linecap="round" stroke-linejoin="round" d="M9.9216,12.1249l13.3616,6.2455
		c-2.1621,4.2239-9.9965-2.7458-13.4385-6.0368"/>
	<path fill="none" stroke="#000000" stroke-linecap="round" stroke-linejoin="round" d="M9.2003,11.7993"/>
	
		<ellipse transform="matrix(0.766 0.6428 -0.6428 0.766 4.9999 -0.551)" fill="none" stroke="#000000" stroke-linecap="round" stroke-linejoin="round" cx="3.2569" cy="6.5931" rx="2.8044" ry="2.4453"/>
	
		<ellipse transform="matrix(0.766 -0.6428 0.6428 0.766 -10.1076 6.0497)" fill="none" stroke="#000000" stroke-linecap="round" stroke-linejoin="round" cx="3.2569" cy="16.91" rx="2.8044" ry="2.4453"/>
	
		<line fill="none" stroke="#000000" stroke-linecap="round" stroke-linejoin="round" x1="5.4052" y1="8.3958" x2="8.5759" y2="11.2488"/>
	<circle fill="none" stroke="#000000" stroke-linecap="round" stroke-linejoin="round" cx="9.2003" cy="11.776" r="0.8209"/>
	
		<line fill="none" stroke="#000000" stroke-linecap="round" stroke-linejoin="round" x1="8.5759" y1="12.3241" x2="5.4052" y2="15.1074"/>
</g>
<rect x="0" y="-0.0001" fill="none" width="24" height="24"/>
</svg>
