<?xml version="1.0" encoding="utf-8"?>
<!-- Generator: Adobe Illustrator 18.1.0, SVG Export Plug-In . SVG Version: 6.00 Build 0)  -->
<svg version="1.1" id="Layer_1" xmlns="http://www.w3.org/2000/svg" xmlns:xlink="http://www.w3.org/1999/xlink" x="0px" y="0px"
	 width="24px" height="24px" viewBox="0 0 24 24" enable-background="new 0 0 24 24" xml:space="preserve">
<g>
	<path fill="none" stroke="#000000" stroke-linecap="round" stroke-linejoin="round" d="M17.2254,19.1342l4.2812-1.9288
		c1.5538-0.7001,2.5302,1.5504,1.0601,2.2127c-6.473,2.9164-5.9533,2.9467-8.5757,2.9467c-1.4987,0-3.7182-0.235-6.5596-1.4904
		c-0.8889-0.3926-2.5958,0.2417-4.6677,0.7654c-0.6507,0.1649-1.3158-0.2175-1.4952-0.86
		c-0.1288-0.4611-0.6464-2.0539-0.5608-2.4791c0.1057-0.5251,0.5214-0.9008,1.0197-0.9796c1.632-0.2582,6.5806-1.2303,9.2185-0.4653
		l5.4946,1.5936c1.5669,0.4543,0.8732,2.8055-0.6935,2.3507l-5.7728-1.6743"/>
	<path fill="none" stroke="#000000" stroke-linecap="round" stroke-linejoin="round" d="M20.4754,4.7688
		c0,0-1.487,1.2438-3.1156,1.8457c-1.6286,0.6019-2.4874,2.6555-2.4874,2.6555s0.0444,1.593,0.5755,3.2924
		c0.2655,0.8497,0.1947,1.9812,0.0575,2.9003"/>
	<path fill="none" stroke="#000000" stroke-linecap="round" stroke-linejoin="round" stroke-miterlimit="10" d="M14.7566,7.9055
		c-0.9923-2.9748-6.956-1.9058-6.956-1.9058s2.009,7.8375,7.0719,3.2704C14.8725,9.2701,14.7065,8.7185,14.7566,7.9055z"/>
	<path fill="none" stroke="#000000" stroke-linecap="round" stroke-linejoin="round" d="M22.6901,1.7259
		c-6.6189,1.2143-7.8211,4.3564-7.9335,6.1796c-0.0501,0.813,0.1159,1.3646,0.1159,1.3646
		C23.9513,13.8839,22.6901,1.7259,22.6901,1.7259z"/>
	<path fill="none" stroke="#000000" stroke-linecap="round" stroke-linejoin="round" stroke-miterlimit="10" d="M11.0578,7.9953
		c0,0,2.8904,0.1772,3.8146,1.2748"/>
</g>
<rect x="-0.0113" y="0" fill="none" width="24" height="24"/>
</svg>
