<?xml version="1.0" encoding="utf-8"?>
<!-- Generator: Adobe Illustrator 18.1.0, SVG Export Plug-In . SVG Version: 6.00 Build 0)  -->
<svg version="1.1" id="Layer_1" xmlns="http://www.w3.org/2000/svg" xmlns:xlink="http://www.w3.org/1999/xlink" x="0px" y="0px"
	 width="24px" height="24px" viewBox="0 0 24 24" enable-background="new 0 0 24 24" xml:space="preserve">
<g>
	<path fill="none" stroke="#000000" stroke-linecap="round" stroke-linejoin="round" stroke-miterlimit="10" d="M10.4454,7.2464
		C8.8964,5.0521,9.3561,3.4316,9.3813,1.6972c0.0005-0.0253,0.1772-0.394,0.1402-0.5226C9.506,1.1203,9.3919,1.0851,9.3929,1.0333
		c0.0033-0.1794,0.0057-0.5137,0.0057-0.5137c-2.5418,0,0.7668,0-1.7796,0c0,0,0.0026,0.3347,0.0063,0.5142
		c0.001,0.0518-0.1132,0.0755-0.1286,0.1298C7.46,1.2923,7.637,1.6669,7.6376,1.6921c0.0269,1.7344,0.4882,3.3572-1.0584,5.5534
		C5.4768,8.8109,5.4773,9.7882,5.4773,9.7882L5.484,22.6869c0.0005,1.0374,6.0733,1.0314,6.0728-0.0029L11.5501,9.7862
		C11.5501,9.7862,11.5496,8.8105,10.4454,7.2464z"/>
	
		<rect x="5.4808" y="13.5224" fill="none" stroke="#000000" stroke-linecap="round" stroke-linejoin="round" stroke-miterlimit="10" width="6.0728" height="5.98"/>
	<path fill="none" stroke="#000000" stroke-linecap="round" stroke-linejoin="round" stroke-miterlimit="10" d="M17.4693,19.7152
		c-0.0572-0.0616-1.7079-1.5206-2.2022-2.3283c-0.489-0.7997-0.6362-1.9376-0.437-3.4044c0.1682-1.2385,0.5543-3.4627,0.5543-3.4627
		h4.1699c0,0,0.386,2.2245,0.5542,3.4627c0.1992,1.4668,0.0523,2.5945-0.437,3.3936
		C19.1771,18.1838,17.5264,19.6536,17.4693,19.7152"/>
	
		<line fill="none" stroke="#000000" stroke-linecap="round" stroke-linejoin="round" stroke-miterlimit="10" x1="17.4693" y1="19.7152" x2="17.4693" y2="23.5197"/>
	
		<line fill="none" stroke="#000000" stroke-linecap="round" stroke-linejoin="round" stroke-miterlimit="10" x1="15.0142" y1="23.5197" x2="20.0142" y2="23.5197"/>
	
		<line fill="none" stroke="#000000" stroke-linecap="round" stroke-linejoin="round" stroke-miterlimit="10" x1="14.7537" y1="15.5197" x2="20.1946" y2="15.5197"/>
</g>
<rect x="0.0142" y="0.0197" fill="none" width="24" height="24"/>
</svg>
