<?xml version="1.0" encoding="utf-8"?>
<!-- Generator: Adobe Illustrator 18.1.0, SVG Export Plug-In . SVG Version: 6.00 Build 0)  -->
<svg version="1.1" id="Layer_1" xmlns="http://www.w3.org/2000/svg" xmlns:xlink="http://www.w3.org/1999/xlink" x="0px" y="0px"
	 width="24px" height="24px" viewBox="0 0 24 24" enable-background="new 0 0 24 24" xml:space="preserve">
<g>
	<path fill="none" stroke="#000000" stroke-linecap="round" stroke-linejoin="round" d="M19.7968,5.5029h-15.62
		c-0.3707,0-0.6475-0.3821-0.6475-0.796V1.4052c0-0.4139,0.2768-0.9023,0.6475-0.9023h15.62c0.3707,0,0.7325,0.4884,0.7325,0.9023
		V3.056v1.6508C20.5293,5.1207,20.1675,5.5029,19.7968,5.5029z"/>
	<path fill="none" stroke="#000000" stroke-linecap="round" stroke-linejoin="round" d="M20.5293,3.0929
		c1.3367,0,2.3589,1.0467,2.3589,2.3833v0.679c0,1.241-0.8964,2.1601-2.0875,2.3309l-6.684,0.9332
		c-1.1872,0.1702-2.0875,1.0863-2.0875,2.3309v2.6368"/>
	
		<line fill="none" stroke="#000000" stroke-linecap="round" stroke-linejoin="round" x1="3.5293" y1="3.0295" x2="2.5292" y2="3.0295"/>
	
		<rect x="10.5293" y="16.5029" fill="none" stroke="#000000" stroke-linecap="round" stroke-linejoin="round" width="3" height="7"/>
</g>
<rect x="0.0293" y="0.0001" fill="none" width="24" height="24"/>
</svg>
