<?xml version="1.0" encoding="utf-8"?>
<!-- Generator: Adobe Illustrator 18.1.0, SVG Export Plug-In . SVG Version: 6.00 Build 0)  -->
<svg version="1.1" id="Layer_1" xmlns="http://www.w3.org/2000/svg" xmlns:xlink="http://www.w3.org/1999/xlink" x="0px" y="0px"
	 width="24px" height="24px" viewBox="0 0 24 24" enable-background="new 0 0 24 24" xml:space="preserve">
<g>
	<path fill="none" stroke="#000000" stroke-linecap="round" stroke-linejoin="round" d="M5.2248,7.4237
		c-2.5309,0-4.5826,2.0511-4.5826,4.5821c0,2.5306,2.0517,4.5824,4.5826,4.5824c1.7694,0,4.0689-1.81,6.7269-1.81
		c2.6662,0,4.9194,1.81,6.7942,1.81c2.5306,0,4.5823-2.0519,4.5823-4.5824c0-2.531-2.0517-4.5821-4.5823-4.5821
		c-1.8584,0-4.0979,1.7762-6.7942,1.7762C9.3157,9.1999,7.0308,7.4237,5.2248,7.4237z"/>
	<circle fill="none" stroke="#000000" stroke-linecap="round" stroke-linejoin="round" cx="18.7458" cy="12.0058" r="2.0622"/>
	<circle fill="none" stroke="#000000" stroke-linecap="round" stroke-linejoin="round" cx="5.2247" cy="12.0058" r="2.0621"/>
</g>
<rect x="-0.0137" y="0.0002" fill="none" width="24" height="24"/>
</svg>
