<?xml version="1.0" encoding="utf-8"?>
<!-- Generator: Adobe Illustrator 18.1.0, SVG Export Plug-In . SVG Version: 6.00 Build 0)  -->
<svg version="1.1" id="Layer_1" xmlns="http://www.w3.org/2000/svg" xmlns:xlink="http://www.w3.org/1999/xlink" x="0px" y="0px"
	 width="24px" height="24px" viewBox="0 0 24 24" enable-background="new 0 0 24 24" xml:space="preserve">
<g>
	
		<line fill="none" stroke="#000000" stroke-linecap="round" stroke-linejoin="round" stroke-miterlimit="10" x1="20.4866" y1="23.4259" x2="20.4869" y2="15.1309"/>
	<path fill="none" stroke="#000000" stroke-linecap="round" stroke-linejoin="round" stroke-miterlimit="10" d="M21.8396,2.9699
		c0,0.7615-0.6056,1.8249-1.3527,1.8249c-0.7471,0-1.3527-1.0634-1.3527-1.8249s0.6056-1.3789,1.3527-1.3789
		C21.234,1.591,21.8396,2.2084,21.8396,2.9699z"/>
	<path fill="none" stroke="#000000" stroke-linecap="round" stroke-linejoin="round" stroke-miterlimit="10" d="M22.2371,23.4259
		l0.5351-9.8085c0.0078-0.1982,0.6321,0.0598,0.639-0.1281c0.2543-6.9373-0.3116-7.3785-0.3755-7.433
		c-0.0753-0.0215-0.6927-0.0385-0.8775-0.0503c-0.2498-0.016-0.4652,0.1395-0.5799,0.3663c-0.4068,0.8042-1.7763,0.8042-2.183,0
		C19.2807,6.1455,19.0653,5.99,18.8155,6.006c-0.1566,0.01-4.4445,0.7152-5.7943,0.9431c-0.5574,0.0941-0.5242,0.9222,0.0363,0.9745
		l5.144,0.4801v5.2138l0.5346,9.8085"/>
	
		<line fill="none" stroke="#000000" stroke-linecap="round" stroke-linejoin="round" x1="9.4863" y1="1.5" x2="9.4863" y2="0.5186"/>
	
		<line fill="none" stroke="#000000" stroke-linecap="round" stroke-linejoin="round" x1="15.4864" y1="1.5" x2="15.4864" y2="0.5186"/>
	<polyline fill="none" stroke="#000000" stroke-linecap="round" stroke-linejoin="round" points="15.9863,18.5 0.4863,18.5 
		0.4863,1.5 16.9863,1.5 	"/>
	
		<circle fill="none" stroke="#000000" stroke-linecap="round" stroke-linejoin="round" stroke-miterlimit="10" cx="3.9404" cy="9.951" r="0.9779"/>
	
		<circle fill="none" stroke="#000000" stroke-linecap="round" stroke-linejoin="round" stroke-miterlimit="10" cx="8.9539" cy="6.4926" r="0.9779"/>
	
		<circle fill="none" stroke="#000000" stroke-linecap="round" stroke-linejoin="round" stroke-miterlimit="10" cx="13.0964" cy="14.3092" r="0.9779"/>
	
		<line fill="none" stroke="#000000" stroke-linecap="round" stroke-linejoin="round" stroke-miterlimit="10" x1="7.976" y1="7.0415" x2="4.7637" y2="9.4271"/>
	
		<line fill="none" stroke="#000000" stroke-linecap="round" stroke-linejoin="round" stroke-miterlimit="10" x1="9.4843" y1="7.3123" x2="12.5658" y2="13.4893"/>
	
		<line fill="none" stroke="#000000" stroke-linecap="round" stroke-linejoin="round" x1="12.4864" y1="20.6259" x2="12.4864" y2="23.5"/>
	
		<line fill="none" stroke="#000000" stroke-linecap="round" stroke-linejoin="round" x1="8.9863" y1="23.5" x2="14.9863" y2="23.5"/>
</g>
<rect x="-0.0137" fill="none" width="24" height="24"/>
</svg>
