<?xml version="1.0" encoding="utf-8"?>
<!-- Generator: Adobe Illustrator 18.1.0, SVG Export Plug-In . SVG Version: 6.00 Build 0)  -->
<svg version="1.1" id="Layer_1" xmlns="http://www.w3.org/2000/svg" xmlns:xlink="http://www.w3.org/1999/xlink" x="0px" y="0px"
	 width="24px" height="24px" viewBox="0 0 24 24" enable-background="new 0 0 24 24" xml:space="preserve">
<g>
	<rect x="0.5" y="3.5197" fill="none" stroke="#000000" stroke-linecap="round" stroke-linejoin="round" width="23" height="16"/>
	<rect x="2.5" y="5.5197" fill="none" stroke="#000000" stroke-linecap="round" stroke-linejoin="round" width="16" height="12"/>
	<circle fill="none" stroke="#000000" stroke-linecap="round" stroke-linejoin="round" cx="21.0144" cy="16.6767" r="0.8428"/>
	<g>
		<g>
			<path fill="none" stroke="#000000" stroke-linecap="round" stroke-linejoin="round" stroke-miterlimit="10" d="M15.3289,9.9726
				c-0.8217,0.5334-1.9026,0.8004-2.9834,0.8004c-1.0801,0-2.1609-0.267-2.9834-0.8004c-1.0189-0.6609-2.6744-0.6604-3.6909,0"/>
		</g>
	</g>
	<g>
		<g>
			<path fill="none" stroke="#000000" stroke-linecap="round" stroke-linejoin="round" stroke-miterlimit="10" d="M15.3289,12.5851
				c-0.8217,0.5334-1.9026,0.8004-2.9834,0.8004c-1.0801,0-2.1609-0.267-2.9834-0.8004c-1.0189-0.6609-2.6744-0.6604-3.6909,0"/>
		</g>
	</g>
	<path fill="none" stroke="#000000" stroke-linecap="round" stroke-linejoin="round" stroke-miterlimit="10" d="M2.3071,19.5197
		v0.6128c0,0.728,0.5902,1.3872,1.3182,1.3872h1.1926c0.728,0,1.3182-0.6592,1.3182-1.3872v-0.6128"/>
	<path fill="none" stroke="#000000" stroke-linecap="round" stroke-linejoin="round" stroke-miterlimit="10" d="M21.4145,19.5197
		v0.6128c0,0.728-0.5902,1.3872-1.3182,1.3872h-1.1926c-0.728,0-1.3182-0.6592-1.3182-1.3872v-0.6128"/>
</g>
<rect x="0" y="0.0197" fill="none" width="24" height="24"/>
</svg>
