<?xml version="1.0" encoding="utf-8"?>
<!-- Generator: Adobe Illustrator 18.1.0, SVG Export Plug-In . SVG Version: 6.00 Build 0)  -->
<svg version="1.1" id="Layer_1" xmlns="http://www.w3.org/2000/svg" xmlns:xlink="http://www.w3.org/1999/xlink" x="0px" y="0px"
	 width="24px" height="24px" viewBox="0 0 24 24" enable-background="new 0 0 24 24" xml:space="preserve">
<g>
	<polyline fill="none" stroke="#000000" stroke-linecap="round" stroke-linejoin="round" points="7.5003,23.5011 3.5,23.5011 
		3.5,3.5011 5.5001,3.5011 	"/>
	<polyline fill="none" stroke="#000000" stroke-linecap="round" stroke-linejoin="round" points="17.4999,3.5011 19.5,3.5011 
		19.5,8.5158 	"/>
	<polygon fill="none" stroke="#000000" stroke-linecap="round" stroke-linejoin="round" points="19.1945,10.5011 9.5,10.5011 
		9.5,23.5011 21.5,23.5011 21.5,12.8816 	"/>
	
		<line fill="none" stroke="#000000" stroke-linecap="round" stroke-linejoin="round" x1="12.4802" y1="20.5011" x2="18.5" y2="20.5011"/>
	
		<line fill="none" stroke="#000000" stroke-linecap="round" stroke-linejoin="round" x1="12.4802" y1="17.5011" x2="18.5" y2="17.5011"/>
	
		<line fill="none" stroke="#000000" stroke-linecap="round" stroke-linejoin="round" x1="12.4802" y1="14.5011" x2="18.5" y2="14.5011"/>
	
		<line fill="none" stroke="#000000" stroke-linecap="round" stroke-linejoin="round" stroke-miterlimit="10" x1="11.5475" y1="2.4947" x2="11.5475" y2="2.4947"/>
	<path fill="none" stroke="#000000" stroke-linecap="round" stroke-linejoin="round" d="M14,2.5011h-0.5V1.8415
		c0-0.7623-0.8434-1.3405-1.6053-1.3405h-0.694C10.4384,0.5011,9.5,1.0792,9.5,1.8415v0.6595H9c-0.8284,0-1.5,0.6716-1.5,1.5
		s0.6716,1.5,1.5,1.5h5c0.8284,0,1.5-0.6716,1.5-1.5S14.8285,2.5011,14,2.5011z"/>
</g>
<rect x="0" y="0.0011" fill="none" width="24" height="24"/>
</svg>
