<?xml version="1.0" encoding="utf-8"?>
<!-- Generator: Adobe Illustrator 18.1.0, SVG Export Plug-In . SVG Version: 6.00 Build 0)  -->
<svg version="1.1" id="Layer_1" xmlns="http://www.w3.org/2000/svg" xmlns:xlink="http://www.w3.org/1999/xlink" x="0px" y="0px"
	 width="24px" height="24px" viewBox="0 0 24 24" enable-background="new 0 0 24 24" xml:space="preserve">
<g>
	
		<rect x="4.5143" y="13.5346" fill="none" stroke="#000000" stroke-linecap="round" stroke-linejoin="round" width="15" height="10"/>
	
		<line fill="none" stroke="#000000" stroke-linecap="round" stroke-linejoin="round" x1="3.5274" y1="13.5346" x2="20.4536" y2="13.5346"/>
	
		<line fill="none" stroke="#000000" stroke-linecap="round" stroke-linejoin="round" x1="3.5274" y1="23.5346" x2="20.4536" y2="23.5346"/>
	<rect x="7.5143" y="15.5346" fill="none" stroke="#000000" stroke-linecap="round" stroke-linejoin="round" width="9" height="6"/>
	<path fill="none" stroke="#000000" stroke-linecap="round" stroke-linejoin="round" d="M11.9905,7.6722V6.4276
		c0-1.0342,0.8384-1.8727,1.8727-1.8727h6.6523c1.0342,0,1.8727-0.8384,1.8727-1.8727l0,0"/>
	<circle fill="none" stroke="#000000" stroke-linecap="round" stroke-linejoin="round" cx="22.3881" cy="1.7021" r="0.9802"/>
	<circle fill="none" stroke="#000000" stroke-linecap="round" stroke-linejoin="round" cx="11.9905" cy="17.8427" r="0.9575"/>
	<path fill="none" stroke="#000000" stroke-linecap="round" stroke-linejoin="round" d="M6.3093,13.5346
		c0-3.2377,2.5436-5.8624,5.6812-5.8624s5.6812,2.6247,5.6812,5.8624"/>
</g>
<rect x="0.0142" y="0.0346" fill="none" width="24" height="24"/>
</svg>
