<?xml version="1.0" encoding="utf-8"?>
<!-- Generator: Adobe Illustrator 18.1.0, SVG Export Plug-In . SVG Version: 6.00 Build 0)  -->
<svg version="1.1" id="Layer_1" xmlns="http://www.w3.org/2000/svg" xmlns:xlink="http://www.w3.org/1999/xlink" x="0px" y="0px"
	 width="24px" height="24px" viewBox="0 0 24 24" enable-background="new 0 0 24 24" xml:space="preserve">
<g>
	<circle fill="none" stroke="#000000" stroke-linecap="round" stroke-linejoin="round" cx="10.5227" cy="4.4593" r="1.5256"/>
	<path fill="none" stroke="#000000" stroke-linecap="round" stroke-linejoin="round" stroke-miterlimit="10" d="M16.5425,18.5011
		v-0.9039c0-0.1068-0.0549-0.2026-0.1377-0.2404c-0.9725-0.4453-2.0521-0.9981-2.1429-1.3427v-0.3614
		c0.2017-0.2445,0.3609-0.5855,0.455-0.9848c0.2253-0.1875,0.2831-0.5754,0.0952-0.8492v-0.8091c0-0.8352-0.3926-1.4069-1.29-1.4069
		c-0.8743,0-1.2905,0.5717-1.2905,1.4069v0.8093c-0.1872,0.273-0.1301,0.6608,0.0952,0.8487
		c0.0942,0.3994,0.2534,0.7404,0.4553,0.9849v0.3614c-0.0905,0.3441-1.1703,0.8971-2.1429,1.3427
		c-0.0829,0.0381-0.1377,0.1336-0.1377,0.2404v0.9039"/>
	
		<rect x="8.4864" y="8.5031" fill="none" stroke="#000000" stroke-linecap="round" stroke-linejoin="round" stroke-miterlimit="10" width="10" height="13"/>
	
		<line fill="none" stroke="#000000" stroke-linecap="round" stroke-linejoin="round" x1="4.4863" y1="5.551" x2="4.4863" y2="3.5486"/>
	
		<line fill="none" stroke="#000000" stroke-linecap="round" stroke-linejoin="round" x1="5.4863" y1="11.6028" x2="5.4863" y2="13.5347"/>
	
		<line fill="none" stroke="#000000" stroke-linecap="round" stroke-linejoin="round" x1="14.4864" y1="6.4552" x2="14.4864" y2="5.551"/>
	
		<line fill="none" stroke="#000000" stroke-linecap="round" stroke-linejoin="round" x1="16.4864" y1="6.4552" x2="16.4864" y2="5.551"/>
	
		<line fill="none" stroke="#000000" stroke-linecap="round" stroke-linejoin="round" x1="14.4864" y1="3.455" x2="14.4864" y2="2.5508"/>
	
		<line fill="none" stroke="#000000" stroke-linecap="round" stroke-linejoin="round" x1="16.4864" y1="3.455" x2="16.4864" y2="2.5508"/>
	<path fill="none" stroke="#000000" stroke-linecap="round" stroke-linejoin="round" stroke-miterlimit="10" d="M8.7361,0.522
		C7.9605,0.5786,6.4864,1.1487,6.4864,2.8355v6.6677H4.7742c-0.7112,0-1.2878,0.5766-1.2878,1.2879v3.4177
		c0,0.7113,0.5767,1.2946,1.2878,1.2946h1.7122v5.5516c0.0366,0.8528,0.6313,2.4483,2.5068,2.4483h9.155
		c1.425,0,2.3381-0.8794,2.3381-2.3565v-18.33L20.4739,2.769c-0.0747-0.777-0.6594-2.2659-2.3025-2.2659L8.7361,0.522z"/>
</g>
<rect x="-0.0136" y="0.0002" fill="none" width="24" height="24"/>
</svg>
