<?xml version="1.0" encoding="utf-8"?>
<!-- Generator: Adobe Illustrator 18.1.0, SVG Export Plug-In . SVG Version: 6.00 Build 0)  -->
<svg version="1.1" id="Layer_1" xmlns="http://www.w3.org/2000/svg" xmlns:xlink="http://www.w3.org/1999/xlink" x="0px" y="0px"
	 width="24px" height="24px" viewBox="0 0 24 24" enable-background="new 0 0 24 24" xml:space="preserve">
<g>
	
		<line fill="none" stroke="#000000" stroke-linecap="round" stroke-linejoin="round" stroke-miterlimit="10" x1="2.5746" y1="14.6039" x2="2.5746" y2="17.7228"/>
	<path fill="none" stroke="#000000" stroke-linecap="round" stroke-linejoin="round" stroke-miterlimit="10" d="M3.7509,19.9225
		c0,0.327-0.2651,0.5919-0.5921,0.5919H1.9907c-0.3268,0-0.5922-0.2649-0.5922-0.5919l0.2795-1.6079
		c0-0.327,0.265-0.5918,0.592-0.5918h0.6097c0.3268,0,0.5919,0.2648,0.5919,0.5918L3.7509,19.9225z"/>
	<polygon fill="none" stroke="#000000" stroke-linecap="round" stroke-linejoin="round" stroke-miterlimit="10" points="
		4.3655,5.4934 20.4135,5.4934 23.5073,12.5139 0.5366,12.5139 	"/>
	<path fill="none" stroke="#000000" stroke-linecap="round" stroke-linejoin="round" stroke-miterlimit="10" d="M7.3256,12.5139
		L5.999,18.3225c0,1.4055,2.7124,2.1919,6.0579,2.1919c3.3458,0,6.058-0.7864,6.058-2.1919l-1.3268-5.8086"/>
	
		<line fill="none" stroke="#000000" stroke-linecap="round" stroke-linejoin="round" stroke-miterlimit="10" x1="2.7146" y1="8.5205" x2="11.7109" y2="8.5205"/>
</g>
<rect x="0.0142" y="-0.003" fill="none" width="24" height="24"/>
</svg>
