<?xml version="1.0" encoding="utf-8"?>
<!-- Generator: Adobe Illustrator 18.1.0, SVG Export Plug-In . SVG Version: 6.00 Build 0)  -->
<svg version="1.1" id="Layer_1" xmlns="http://www.w3.org/2000/svg" xmlns:xlink="http://www.w3.org/1999/xlink" x="0px" y="0px"
	 width="24px" height="24px" viewBox="0 0 24 24" enable-background="new 0 0 24 24" xml:space="preserve">
<g>
	
		<line fill="none" stroke="#000000" stroke-linecap="round" stroke-linejoin="round" stroke-miterlimit="10" x1="13.5697" y1="20.5048" x2="15.4114" y2="20.5048"/>
	
		<line fill="none" stroke="#000000" stroke-linecap="round" stroke-linejoin="round" stroke-miterlimit="10" x1="13.5697" y1="17.5046" x2="15.4114" y2="17.5046"/>
	
		<line fill="none" stroke="#000000" stroke-linecap="round" stroke-linejoin="round" stroke-miterlimit="10" x1="13.5697" y1="14.5044" x2="15.4114" y2="14.5044"/>
	
		<line fill="none" stroke="#000000" stroke-linecap="round" stroke-linejoin="round" stroke-miterlimit="10" x1="13.5697" y1="11.5043" x2="15.4114" y2="11.5043"/>
	
		<line fill="none" stroke="#000000" stroke-linecap="round" stroke-linejoin="round" stroke-miterlimit="10" x1="13.5697" y1="8.5041" x2="15.4114" y2="8.5041"/>
	<path fill="none" stroke="#000000" stroke-linecap="round" stroke-linejoin="round" stroke-miterlimit="10" d="M19.3301,2.9772
		h0.4024c1.3686,0,2.518,1.0298,2.6678,2.3902l0.8667,7.8736"/>
	<path fill="none" stroke="#000000" stroke-linecap="round" stroke-linejoin="round" stroke-miterlimit="10" d="M5.8988,14.6328
		c0,0-0.9794-7.7872-4.7173-9.9255c-1.8407-1.053,1.8146-4.2998,8.0991-1.9277c0.4282,0.1616,0.8915,0.2075,1.3491,0.2068
		l8.7004-0.0092l-1.9517,20.5276H7.1774L5.8988,14.6328z"/>
</g>
<rect x="-0.0142" y="0.0048" fill="none" width="24" height="24"/>
</svg>
