<?xml version="1.0" encoding="utf-8"?>
<!-- Generator: Adobe Illustrator 18.1.0, SVG Export Plug-In . SVG Version: 6.00 Build 0)  -->
<svg version="1.1" id="Layer_1" xmlns="http://www.w3.org/2000/svg" xmlns:xlink="http://www.w3.org/1999/xlink" x="0px" y="0px"
	 width="24px" height="24px" viewBox="0 0 24 24" enable-background="new 0 0 24 24" xml:space="preserve">
<g>
	<path fill="none" stroke="#000000" stroke-linecap="round" stroke-linejoin="round" d="M9.2089,0.6108
		c-2.2005,0-2.4548,1.3038-2.4548,2.0138c0,0.0552,0.0922,0.664,0.0922,0.664L6.471,3.3189
		C4.9115,3.4446,4.7309,4.2977,4.7309,4.929c0,0.5712,0.0326,0.8259,0.068,1.1471C3.5375,6.5535,3.2276,6.7004,3.2276,8.0681
		c0,0.3276,0.1221,0.6872,0.3629,1.0687l0.1428,0.2269c0,0-1.1156,0.8797-1.1156,1.6969c0,0.9142,0.4969,1.2785,1.5175,1.8533
		c1.7387,0.9672,3.8842,0.9047,5.1976,0.9047c0,0-0.57,2.7218-1.1336,3.8253c-0.489,0.8513-1.2569,2.306-1.2569,3.2877
		c0,0.7686,0.5807,1.4984,1.2253,2.0717c0.7394,0.6577,1.9184,0.256,2.1364-0.7093l0,0c0.3082-1.3647,0.976-2.622,1.9341-3.6415
		l1.9407-2.065c0.4964-0.5282,2.6865-3.5875,3.2325-3.9817c0.2979-0.221,0.7357-0.3283,1.3378-0.3283h2.0073
		c1.2029-2.7005,1.1739-5.5151,0.0856-8.311h-2.45c-0.2007,0-0.3908-0.0821-0.5271-0.2295
		c-0.9247-1.0001-2.7242-3.0809-6.2435-3.1114C10.4787,0.6158,9.3194,0.6108,9.2089,0.6108 M7.5868,6.1825 M3.7333,9.3638
		 M7.1776,9.1939L3.7333,9.3638 M7.8094,5.9537L4.7989,6.0761 M8.2735,3.2904l-1.427-0.0017"/>
</g>
<rect x="0.0293" y="-0.0001" fill="none" width="24" height="24"/>
</svg>
