<?xml version="1.0" encoding="utf-8"?>
<!-- Generator: Adobe Illustrator 18.1.0, SVG Export Plug-In . SVG Version: 6.00 Build 0)  -->
<svg version="1.1" id="Layer_1" xmlns="http://www.w3.org/2000/svg" xmlns:xlink="http://www.w3.org/1999/xlink" x="0px" y="0px"
	 width="24px" height="24px" viewBox="0 0 24 24" enable-background="new 0 0 24 24" xml:space="preserve">
<g>
	<path fill="none" stroke="#000000" stroke-linecap="round" stroke-linejoin="round" d="M5.6413,9.4683
		c0-4.6136,2.846-8.7302,6.3567-8.7302s6.3567,4.1166,6.3567,8.7302"/>
	<path fill="none" stroke="#000000" stroke-linecap="round" stroke-linejoin="round" d="M13.3439,18.5046
		c3.3822-0.8301,5.9429-4.3508,5.9429-9.0363H4.7091c0,4.6856,2.5607,8.2062,5.9429,9.0363v2.7241H9.5456
		c-1.2481,0-2.2599,1.0118-2.2599,2.2599v0h9.4244v0c0-1.2481-1.0118-2.2599-2.2599-2.2599h-1.1064V18.5046z"/>
	<polyline fill="none" stroke="#000000" stroke-linecap="round" stroke-linejoin="round" points="7.9482,5.5851 9.9789,6.1191 
		10.3569,4.4841 11.9948,4.4841 12.9049,2.5341 	"/>
</g>
<rect x="0.0142" y="0.0346" fill="none" width="24" height="24"/>
</svg>
