<?xml version="1.0" encoding="utf-8"?>
<!-- Generator: Adobe Illustrator 18.1.0, SVG Export Plug-In . SVG Version: 6.00 Build 0)  -->
<svg version="1.1" id="Layer_1" xmlns="http://www.w3.org/2000/svg" xmlns:xlink="http://www.w3.org/1999/xlink" x="0px" y="0px"
	 width="24px" height="24px" viewBox="0 0 24 24" enable-background="new 0 0 24 24" xml:space="preserve">
<g>
	<g>
		<g>
			
				<line fill="none" stroke="#000000" stroke-linecap="round" stroke-linejoin="round" x1="7.4924" y1="17.6526" x2="7.4924" y2="19.6526"/>
			
				<line fill="none" stroke="#000000" stroke-linecap="round" stroke-linejoin="round" x1="7.4924" y1="21.4832" x2="7.4924" y2="23.4832"/>
		</g>
	</g>
	<g>
		<g>
			
				<line fill="none" stroke="#000000" stroke-linecap="round" stroke-linejoin="round" x1="4.828" y1="17.6969" x2="4.2125" y2="19.5998"/>
			
				<line fill="none" stroke="#000000" stroke-linecap="round" stroke-linejoin="round" x1="3.5863" y1="21.5359" x2="2.9707" y2="23.4389"/>
		</g>
	</g>
	<g>
		<g>
			
				<line fill="none" stroke="#000000" stroke-linecap="round" stroke-linejoin="round" x1="10.1569" y1="17.6969" x2="10.7725" y2="19.5998"/>
			
				<line fill="none" stroke="#000000" stroke-linecap="round" stroke-linejoin="round" x1="11.3987" y1="21.5359" x2="12.0142" y2="23.4389"/>
		</g>
	</g>
	
		<circle fill="none" stroke="#000000" stroke-linecap="round" stroke-linejoin="round" stroke-miterlimit="3.864" cx="19.0656" cy="10.0324" r="2.1685"/>
	<path fill="none" stroke="#000000" stroke-linecap="round" stroke-linejoin="round" stroke-miterlimit="3.864" d="M0.6879,15.5344
		h21.436c0.7751,0,1.3933-0.7027,1.3933-1.4688V5.5344h-8.3306c-4.0347,0-7.9769,1.2394-10.8954,3.9928
		C2.6384,11.0864,1.2084,12.5344,0.6879,15.5344z"/>
	<path fill="none" stroke="#000000" stroke-linecap="round" stroke-linejoin="round" stroke-miterlimit="3.864" d="M23.5172,5.5344
		V2.9653c0-0.7661-0.6182-1.4309-1.3933-1.4309H10.0172"/>
</g>
<rect x="0.0142" y="0.0344" fill="none" width="24" height="24"/>
</svg>
