<?xml version="1.0" encoding="utf-8"?>
<!-- Generator: Adobe Illustrator 18.1.0, SVG Export Plug-In . SVG Version: 6.00 Build 0)  -->
<svg version="1.1" id="Layer_1" xmlns="http://www.w3.org/2000/svg" xmlns:xlink="http://www.w3.org/1999/xlink" x="0px" y="0px"
	 width="24px" height="24px" viewBox="0 0 24 24" enable-background="new 0 0 24 24" xml:space="preserve">
<g>
	<polyline fill="none" stroke="#000000" stroke-linecap="round" stroke-linejoin="round" stroke-miterlimit="10" points="
		23.2049,10.4172 20.498,13.2591 17.6595,10.5555 	"/>
	<path fill="none" stroke="#000000" stroke-linecap="round" stroke-linejoin="round" stroke-miterlimit="10" d="M19.5211,16.3614
		c-1.7266,3.1593-5.2562,5.1108-9.0478,4.6484C5.5078,20.4042,1.9734,15.888,2.579,10.9225s5.1218-8.4998,10.0872-7.8942
		c4.9632,0.6053,8.4333,5.268,7.8317,10.2307"/>
	<path fill="none" stroke="#000000" stroke-linecap="round" stroke-linejoin="round" stroke-miterlimit="10" d="M9.1927,11.4628
		c-0.4285,0-0.7772,0.3426-0.7772,0.7633l0.3439,3.5231c0,0.4212,0.3488,0.7637,0.7772,0.7637h3.987
		c0.4285,0,0.7774-0.3424,0.7774-0.7637l0.3439-3.5231c0-0.4207-0.3489-0.7633-0.7774-0.7633H9.1927z"/>
	<path fill="none" stroke="#000000" stroke-linecap="round" stroke-linejoin="round" stroke-miterlimit="10" d="M9.5231,11.4628
		V9.5295c0-1.0209,0.9004-1.8515,2.007-1.8515c1.1072,0,2.0067,0.8306,2.0067,1.8515v1.9333"/>
	
		<line fill="none" stroke="#000000" stroke-linecap="round" stroke-linejoin="round" stroke-miterlimit="10" x1="11.5296" y1="13.7408" x2="11.5296" y2="14.6451"/>
</g>
<rect x="0" y="0.001" fill="none" width="24" height="24"/>
</svg>
