<?xml version="1.0" encoding="utf-8"?>
<!-- Generator: Adobe Illustrator 18.1.0, SVG Export Plug-In . SVG Version: 6.00 Build 0)  -->
<svg version="1.1" id="Layer_1" xmlns="http://www.w3.org/2000/svg" xmlns:xlink="http://www.w3.org/1999/xlink" x="0px" y="0px"
	 width="24px" height="24px" viewBox="0 0 24 24" enable-background="new 0 0 24 24" xml:space="preserve">
<g>
	<path fill="none" stroke="#000000" stroke-linecap="round" stroke-linejoin="round" stroke-miterlimit="10" d="M17.8252,9.7513
		c-0.583-1.9034-2.4062-3.4029-5.0511-3.0993c-3.1467-4.2257-9.9476-1.8296-9.6238,3.5415
		c-4.3113,2.6612-2.427,9.3239,2.6328,9.3335l0,0c0,0,12.3958,0,12.5218,0c2.7068,0,4.9004-2.1941,4.9004-4.8995
		C23.2053,11.7321,20.7063,9.4719,17.8252,9.7513z"/>
	<polyline fill="none" stroke="#000000" stroke-linecap="round" stroke-linejoin="round" stroke-miterlimit="10" points="
		9.5171,16.0709 9.5171,10.5137 14.4765,9.4476 14.4765,15.0047 	"/>
	<path fill="none" stroke="#000000" stroke-linecap="round" stroke-linejoin="round" stroke-miterlimit="10" d="M9.5171,16.0709
		c-0.1435-0.5117-0.7882-0.7567-1.4398-0.5471s-1.0636,0.7943-0.9201,1.306c0.1435,0.5117,0.7882,0.7567,1.4398,0.5471
		S9.6606,16.5826,9.5171,16.0709z"/>
	<path fill="none" stroke="#000000" stroke-linecap="round" stroke-linejoin="round" stroke-miterlimit="10" d="M14.4775,14.996
		c-0.1435-0.5117-0.7882-0.7567-1.4398-0.5471s-1.0636,0.7943-0.9201,1.306s0.7882,0.7567,1.4398,0.5471
		S14.6211,15.5077,14.4775,14.996z"/>
</g>
<rect x="-0.0136" y="0.0002" fill="none" width="24" height="24"/>
</svg>
