<?xml version="1.0" encoding="utf-8"?>
<!-- Generator: Adobe Illustrator 18.1.0, SVG Export Plug-In . SVG Version: 6.00 Build 0)  -->
<svg version="1.1" id="Layer_1" xmlns="http://www.w3.org/2000/svg" xmlns:xlink="http://www.w3.org/1999/xlink" x="0px" y="0px"
	 width="24px" height="24px" viewBox="0 0 24 24" enable-background="new 0 0 24 24" xml:space="preserve">
<g>
	<polyline fill="none" stroke="#000000" stroke-linecap="round" stroke-linejoin="round" points="8.5502,10.2875 8.5502,0.484 
		15.5062,0.484 15.5061,10.2875 	"/>
	<path fill="none" stroke="#000000" stroke-linecap="round" stroke-linejoin="round" d="M19.6396,13.5995l-5.3858-0.1084
		l-1.7676-5.0323c-0.1512-0.4302-0.764-0.432-0.9159,0l-1.7679,5.0323l-5.3858,0.1084c-0.4591,0.0098-0.6501,0.5965-0.2817,0.8738
		l4.2886,3.2176l-1.5581,5.0955c-0.1349,0.4407,0.365,0.8004,0.7395,0.5417l4.4231-3.0458l4.4237,3.0458
		c0.3763,0.2591,0.8743-0.1012,0.7395-0.5417l-1.5593-5.0955l4.2893-3.2176C20.2897,14.196,20.0987,13.6093,19.6396,13.5995z"/>
</g>
<rect x="0.0293" y="-0.0001" fill="none" width="24" height="24"/>
</svg>
