<?xml version="1.0" encoding="utf-8"?>
<!-- Generator: Adobe Illustrator 18.1.0, SVG Export Plug-In . SVG Version: 6.00 Build 0)  -->
<svg version="1.1" id="Layer_1" xmlns="http://www.w3.org/2000/svg" xmlns:xlink="http://www.w3.org/1999/xlink" x="0px" y="0px"
	 width="24px" height="24px" viewBox="0 0 24 24" enable-background="new 0 0 24 24" xml:space="preserve">
<g>
	<path fill="none" stroke="#000000" stroke-linecap="round" stroke-linejoin="round" d="M20.2309,12.7656
		c1.3888-2.3914,1.6021-2.7595,1.0516-6.5713C20.2734-0.7836,5.2609-1.7735,4.5226,7.3618c-0.095,0.871-0.5596,3.3479-1.5504,4.3383
		c-0.3292,0.33-0.6122,0.6878-0.4548,1.0747c0.2462,0.6028,0.9868,0.3226,1.5891,0.4531c-0.0343,0.3159-0.2341,1.2265-0.2341,1.3112
		c0,0.3145,0.1917,0.5231,0.5707,0.6212c-0.2407,0.3869-0.3967,0.6514-0.0309,1.0184c0.1399,0.1402,0.204,0.2037,0.204,1.097
		c0,1.1763,1.0648,1.8455,2.3411,1.6516c1.5335-0.2446,1.4135-0.0127,2.0981,0.7333c1.219,1.3333,0.4377,2.3205,0.9478,3.6506
		l8.1254-2.4053C17.6157,16.8835,19.5112,14.0054,20.2309,12.7656z"/>
	<circle fill="none" stroke="#000000" stroke-linecap="round" stroke-linejoin="round" cx="13.9339" cy="7.97" r="1.6391"/>
	<path fill="none" stroke="#000000" stroke-linecap="round" stroke-linejoin="round" d="M17.1179,8.7384l1.1986-0.1568
		c0.0562-0.4067,0.0585-0.8002,0-1.223l-1.1986-0.1568c-0.0809-0.3362-0.2133-0.6515-0.389-0.9384l0.7372-0.9592
		c-0.2469-0.3266-0.538-0.6178-0.8644-0.8648l-0.959,0.7371c-0.2871-0.176-0.6026-0.3087-0.9391-0.3899l-0.1569-1.1988
		c-0.4165-0.0577-0.8094-0.0574-1.2225-0.0004l-0.1568,1.1984c-0.3371,0.0809-0.6531,0.2136-0.9406,0.3896L11.2677,4.438
		c-0.3123,0.2361-0.6114,0.5298-0.8644,0.864l0.737,0.9589c-0.1764,0.2877-0.3094,0.6039-0.3905,0.9412L9.5512,7.359
		c-0.0537,0.3889-0.0578,0.8041,0,1.2221l1.1986,0.1568c0.0811,0.3373,0.2141,0.6536,0.3905,0.9412l-0.737,0.9589
		c0.2369,0.313,0.5309,0.6118,0.8644,0.864l0.9592-0.7372c0.2876,0.176,0.6036,0.3087,0.9406,0.3896l0.1568,1.1984
		c0.4131,0.0569,0.806,0.0573,1.2225-0.0004l0.1569-1.1988c0.3365-0.0811,0.652-0.2139,0.9391-0.3899l0.959,0.7371
		c0.3265-0.2471,0.6175-0.5382,0.8644-0.8648l-0.7372-0.9592C16.9045,9.3899,17.037,9.0746,17.1179,8.7384z"/>
</g>
<rect x="0.0142" y="-0.003" fill="none" width="24" height="24"/>
</svg>
