<?xml version="1.0" encoding="utf-8"?>
<!-- Generator: Adobe Illustrator 18.1.1, SVG Export Plug-In . SVG Version: 6.00 Build 0)  -->
<svg version="1.1" id="Layer_1" xmlns="http://www.w3.org/2000/svg" xmlns:xlink="http://www.w3.org/1999/xlink" x="0px" y="0px"
	 width="24px" height="24px" viewBox="0 0 24 24" enable-background="new 0 0 24 24" xml:space="preserve">
<rect fill="none" width="24" height="24"/>
<g>
	<polyline fill="none" stroke="#000000" stroke-linecap="round" stroke-linejoin="round" points="11.6707,1.6474 10.2681,4.5151 
		13.1828,5.8951 	"/>
	<path fill="none" stroke="#000000" stroke-linecap="round" stroke-linejoin="round" d="M20.1434,3.253
		c-3.2491-0.6122-6.7872-0.0634-9.8753,1.2621"/>
	<path fill="none" stroke="#000000" stroke-linecap="round" stroke-linejoin="round" d="M9.6218,13.7607L3.6114,7.7503
		c-0.5858-0.5858-0.5858-1.5355,0-2.1213l0,0c0.5858-0.5858,1.5355-0.5858,2.1213,0l6.7175,6.7175"/>
	<path fill="none" stroke="#000000" stroke-linecap="round" stroke-linejoin="round" d="M14.9251,10.5787l-1.4142-1.4142
		c-0.5858-0.5858-1.5356-0.5858-2.1214,0c-0.5857,0.5858-0.5857,1.5356,0,2.1213l1.0607,1.0607"/>
	<path fill="none" stroke="#000000" stroke-linecap="round" stroke-linejoin="round" d="M10.3289,18.7105l-8.1317-8.1318
		c-0.5858-0.5857-0.5858-1.5355,0-2.1213c0.5857-0.5858,1.5355-0.5858,2.1213,0l5.3033,5.3033"/>
	<path fill="none" stroke="#000000" stroke-linecap="round" stroke-linejoin="round" d="M14.9395,22.5381
		c-1.0578-0.4403-2.1347-0.3737-2.1347-0.3737C9.321,21.8991,4.308,19.5203,4.308,19.5203c-1.4858-0.663-0.5849-2.4744,0.5274-2.226
		l1.5684,0.3915l3.9251,1.0247"/>
	<path fill="none" stroke="#000000" stroke-linecap="round" stroke-linejoin="round" d="M20.9977,16.48
		c-0.4987-0.7079-1.2055-1.8839-1.7153-3.4512c-0.7163-2.2023-2.4215-4.3186-2.4215-4.3186
		c-0.5857-0.5857-1.35-0.8386-1.9358-0.2528c-0.5858,0.5858-0.5858,1.5356,0,2.1213"/>
	
		<line fill="none" stroke="#000000" stroke-linecap="round" stroke-linejoin="round" x1="14.9251" y1="10.5787" x2="15.2786" y2="10.9323"/>
</g>
</svg>
