<?xml version="1.0" encoding="utf-8"?>
<!-- Generator: Adobe Illustrator 18.1.0, SVG Export Plug-In . SVG Version: 6.00 Build 0)  -->
<svg version="1.1" id="Layer_1" xmlns="http://www.w3.org/2000/svg" xmlns:xlink="http://www.w3.org/1999/xlink" x="0px" y="0px"
	 width="24px" height="24px" viewBox="0 0 24 24" enable-background="new 0 0 24 24" xml:space="preserve">
<g>
	<path fill="none" stroke="#000000" stroke-linecap="round" stroke-linejoin="round" stroke-miterlimit="10" d="M0.9774,7.5492
		c0,0,10.487-1.2676,22.0436-5.4254"/>
	
		<line fill="none" stroke="#000000" stroke-linecap="round" stroke-linejoin="round" stroke-miterlimit="10" x1="5.8144" y1="17.4853" x2="19.0649" y2="17.4853"/>
	
		<line fill="none" stroke="#000000" stroke-linecap="round" stroke-linejoin="round" stroke-miterlimit="10" x1="9.4713" y1="11.4853" x2="9.4713" y2="17.4731"/>
	
		<line fill="none" stroke="#000000" stroke-linecap="round" stroke-linejoin="round" stroke-miterlimit="10" x1="15.4986" y1="11.4853" x2="15.4986" y2="17.4731"/>
	
		<line fill="none" stroke="#000000" stroke-linecap="round" stroke-linejoin="round" stroke-miterlimit="10" x1="12.4992" y1="11.4853" x2="12.4992" y2="7.4595"/>
	
		<circle fill="none" stroke="#000000" stroke-linecap="round" stroke-linejoin="round" stroke-miterlimit="10" cx="10.1666" cy="2.6721" r="1.0642"/>
	
		<circle fill="none" stroke="#000000" stroke-linecap="round" stroke-linejoin="round" stroke-miterlimit="10" cx="13.8317" cy="1.7441" r="1.0642"/>
	<path fill="none" stroke="#000000" stroke-linecap="round" stroke-linejoin="round" stroke-miterlimit="10" d="M15.5585,23.4853
		H9.3208c-1.9365,0-3.5064-1.5699-3.5064-3.5064v-4.9872c0-1.9365,1.5699-3.5064,3.5064-3.5064h6.2377
		c1.9365,0,3.5064,1.5699,3.5064,3.5064v4.9872C19.0649,21.9155,17.495,23.4853,15.5585,23.4853z"/>
</g>
<rect x="-0.0008" y="-0.0147" fill="none" width="24" height="24"/>
</svg>
