<?xml version="1.0" encoding="utf-8"?>
<!-- Generator: Adobe Illustrator 18.1.0, SVG Export Plug-In . SVG Version: 6.00 Build 0)  -->
<svg version="1.1" id="Layer_1" xmlns="http://www.w3.org/2000/svg" xmlns:xlink="http://www.w3.org/1999/xlink" x="0px" y="0px"
	 width="24px" height="24px" viewBox="0 0 24 24" enable-background="new 0 0 24 24" xml:space="preserve">
<g>
	
		<line fill="none" stroke="#000000" stroke-linecap="round" stroke-linejoin="round" stroke-miterlimit="10" x1="11.482" y1="8.6442" x2="11.482" y2="11.5197"/>
	
		<line fill="none" stroke="#000000" stroke-linecap="round" stroke-linejoin="round" stroke-miterlimit="10" x1="11.5205" y1="1.5903" x2="11.5205" y2="5.5073"/>
	
		<line fill="none" stroke="#000000" stroke-linecap="round" stroke-linejoin="round" stroke-miterlimit="10" x1="13.508" y1="1.5903" x2="13.508" y2="5.5724"/>
	
		<line fill="none" stroke="#000000" stroke-linecap="round" stroke-linejoin="round" stroke-miterlimit="10" x1="9.533" y1="1.5903" x2="9.533" y2="5.5724"/>
	<path fill="none" stroke="#000000" stroke-linecap="round" stroke-linejoin="round" stroke-miterlimit="10" d="M11.5804,8.6057
		h-0.1199c-1.0646,0-1.9276-0.863-1.9276-1.9276V5.5073h3.975v1.1708C13.508,7.7426,12.645,8.6057,11.5804,8.6057z"/>
	<path fill="none" stroke="#000000" stroke-linecap="round" stroke-linejoin="round" stroke-miterlimit="10" d="M7.8693,8.3688
		C7.9966,9.2176,7.5753,9.63,6.9918,9.7175C6.4085,9.8049,5.9394,9.9004,5.8121,9.0513L5.4222,2.857
		C5.3499,1.9322,5.5663,1.4719,6.1496,1.3844c0.5833-0.0874,0.761,0.5891,0.8882,1.4379L7.8693,8.3688z"/>
	
		<line fill="none" stroke="#000000" stroke-linecap="round" stroke-linejoin="round" stroke-miterlimit="10" x1="6.992" y1="2.5167" x2="8.3417" y2="11.5197"/>
	<path fill="none" stroke="#000000" stroke-linecap="round" stroke-linejoin="round" stroke-miterlimit="10" d="M14.912,5.8194
		c-0.2701,1.1147,0.344,2.5273,1.4587,2.7973s2.3074-0.7047,2.5775-1.8194c0.27-1.1144-0.1704-3.2441-1.2851-3.5142
		S15.182,4.705,14.912,5.8194"/>
	
		<line fill="none" stroke="#000000" stroke-linecap="round" stroke-linejoin="round" stroke-miterlimit="10" x1="16.3723" y1="8.61" x2="15.6881" y2="11.5197"/>
	<polyline fill="none" stroke="#000000" stroke-linecap="round" stroke-linejoin="round" points="7.4728,13.5584 8.036,23.5197 
		15.1247,23.5197 15.6881,13.5681 	"/>
	<rect x="6.5" y="11.5197" fill="none" stroke="#000000" stroke-linecap="round" stroke-linejoin="round" width="10" height="2"/>
	<rect x="6.5" y="11.5197" fill="none" stroke="#000000" stroke-linecap="round" stroke-linejoin="round" width="10" height="2"/>
</g>
<rect x="0" y="0.0197" fill="none" width="24" height="24"/>
</svg>
