<?xml version="1.0" encoding="utf-8"?>
<!-- Generator: Adobe Illustrator 18.1.0, SVG Export Plug-In . SVG Version: 6.00 Build 0)  -->
<svg version="1.1" id="Layer_1" xmlns="http://www.w3.org/2000/svg" xmlns:xlink="http://www.w3.org/1999/xlink" x="0px" y="0px"
	 width="24px" height="24px" viewBox="0 0 24 24" enable-background="new 0 0 24 24" xml:space="preserve">
<g>
	<path fill="none" stroke="#000000" stroke-linecap="round" stroke-linejoin="round" d="M16.5219,15.1679
		c0,0.7757,1.3499,1.4046,3.0148,1.4046c1.6654,0,3.0152-0.6289,3.0152-1.4046"/>
	<path fill="none" stroke="#000000" stroke-linecap="round" stroke-linejoin="round" d="M16.5219,16.9314
		c0,0.7757,1.3499,1.4046,3.0148,1.4046c1.6654,0,3.0152-0.6289,3.0152-1.4046"/>
	<path fill="none" stroke="#000000" stroke-linecap="round" stroke-linejoin="round" d="M22.5519,13.4044v5.2904
		c0,0.7757-1.3498,1.4046-3.0152,1.4046c-1.6649,0-3.0148-0.6289-3.0148-1.4046l0-5.2904"/>
	
		<ellipse fill="none" stroke="#000000" stroke-linecap="round" stroke-linejoin="round" cx="19.5369" cy="13.4044" rx="3.015" ry="1.4047"/>
	<g>
		<path fill="none" stroke="#000000" stroke-linecap="round" stroke-linejoin="round" d="M0.5837,6.582
			c0,0.7757,1.3499,1.4046,3.0148,1.4046c1.6654,0,3.0152-0.6289,3.0152-1.4046"/>
		<path fill="none" stroke="#000000" stroke-linecap="round" stroke-linejoin="round" d="M0.5837,8.3455
			c0,0.7757,1.3499,1.4046,3.0148,1.4046c1.6654,0,3.0152-0.6289,3.0152-1.4046"/>
		<path fill="none" stroke="#000000" stroke-linecap="round" stroke-linejoin="round" d="M0.5837,10.1089
			c0,0.7757,1.3499,1.4046,3.0148,1.4046c1.6654,0,3.0152-0.6289,3.0152-1.4046"/>
		<path fill="none" stroke="#000000" stroke-linecap="round" stroke-linejoin="round" d="M0.5837,11.8724
			c0,0.7757,1.3499,1.4046,3.0148,1.4046c1.6654,0,3.0152-0.6289,3.0152-1.4046"/>
		<path fill="none" stroke="#000000" stroke-linecap="round" stroke-linejoin="round" d="M0.5837,13.6359
			c0,0.7757,1.3499,1.4046,3.0148,1.4046c1.6654,0,3.0152-0.6289,3.0152-1.4046"/>
		<path fill="none" stroke="#000000" stroke-linecap="round" stroke-linejoin="round" d="M0.5837,15.3993
			c0,0.7757,1.3499,1.4046,3.0148,1.4046c1.6654,0,3.0152-0.6289,3.0152-1.4046"/>
		<path fill="none" stroke="#000000" stroke-linecap="round" stroke-linejoin="round" d="M0.5837,17.1628
			c0,0.7757,1.3499,1.4046,3.0148,1.4046c1.6654,0,3.0152-0.6289,3.0152-1.4046"/>
		<path fill="none" stroke="#000000" stroke-linecap="round" stroke-linejoin="round" d="M6.6137,4.7886v14.1376
			c0,0.7757-1.3498,1.4046-3.0152,1.4046c-1.6649,0-3.0148-0.6289-3.0148-1.4046l0-14.1376"/>
		
			<ellipse fill="none" stroke="#000000" stroke-linecap="round" stroke-linejoin="round" cx="3.5987" cy="4.7886" rx="3.015" ry="1.4047"/>
	</g>
	<g>
		<path fill="none" stroke="#000000" stroke-linecap="round" stroke-linejoin="round" d="M8.5283,12.8817
			c0,0.7757,1.3499,1.4046,3.0148,1.4046c1.6654,0,3.0152-0.6289,3.0152-1.4046"/>
		<path fill="none" stroke="#000000" stroke-linecap="round" stroke-linejoin="round" d="M8.5283,14.6451
			c0,0.7757,1.3499,1.4046,3.0148,1.4046c1.6654,0,3.0152-0.6289,3.0152-1.4046"/>
		<path fill="none" stroke="#000000" stroke-linecap="round" stroke-linejoin="round" d="M8.5283,16.4086
			c0,0.7757,1.3499,1.4046,3.0148,1.4046c1.6654,0,3.0152-0.6289,3.0152-1.4046"/>
		<path fill="none" stroke="#000000" stroke-linecap="round" stroke-linejoin="round" d="M8.5283,18.172
			c0,0.7757,1.3499,1.4046,3.0148,1.4046c1.6654,0,3.0152-0.6289,3.0152-1.4046"/>
		<path fill="none" stroke="#000000" stroke-linecap="round" stroke-linejoin="round" d="M14.5583,11.0882v8.8472
			c0,0.7757-1.3498,1.4046-3.0152,1.4046c-1.6649,0-3.0148-0.6289-3.0148-1.4046l0-8.8472"/>
		
			<ellipse fill="none" stroke="#000000" stroke-linecap="round" stroke-linejoin="round" cx="11.5433" cy="11.0882" rx="3.015" ry="1.4047"/>
	</g>
</g>
<rect x="-0.0136" y="0" fill="none" width="24" height="24"/>
</svg>
