<?xml version="1.0" encoding="utf-8"?>
<!-- Generator: Adobe Illustrator 18.1.0, SVG Export Plug-In . SVG Version: 6.00 Build 0)  -->
<svg version="1.1" id="Layer_1" xmlns="http://www.w3.org/2000/svg" xmlns:xlink="http://www.w3.org/1999/xlink" x="0px" y="0px"
	 width="24px" height="24px" viewBox="0 0 24 24" enable-background="new 0 0 24 24" xml:space="preserve">
<g>
	<path fill="none" stroke="#000000" stroke-linecap="round" stroke-linejoin="round" stroke-miterlimit="10" d="M7.5655,13.3651
		c0.3449,1.2349,0.9859,1.978,1.7253,2.734v1.1175c-0.3314,1.064-2.9509,2.7738-6.5134,4.1514
		c-0.3036,0.1179-0.5046,0.4132-0.5046,0.7434v0.5677c0,0.4389,0.351,0.7956,0.7838,0.7956h17.889
		c0.4328,0,0.7838-0.3567,0.7838-0.7956v-0.5677c0-0.3301-0.201-0.6263-0.5046-0.7434c-3.5625-1.3767-6.1811-3.0862-6.5134-4.1514
		v-1.1175c0.739-0.756,1.3997-1.4995,1.7446-2.734V7.8195c0-2.5824-1.1669-4.2426-4.4545-4.2426
		c-3.2027,0-4.4361,1.6601-4.4361,4.2426V13.3651z"/>
	<path fill="none" stroke="#000000" stroke-linecap="round" stroke-linejoin="round" stroke-miterlimit="10" d="M17.9084,13.2098
		c0,2.7113-1.8866,3.1536-4.9182,3.2099"/>
	<path fill="none" stroke="#000000" stroke-linecap="round" stroke-linejoin="round" stroke-miterlimit="10" d="M7.5655,13.3651
		H6.6721c-0.6076,0-1.1001-0.4925-1.1001-1.1001V8.9196c0-0.6076,0.4925-1.1001,1.1001-1.1001h0.8935"/>
	<path fill="none" stroke="#000000" stroke-linecap="round" stroke-linejoin="round" stroke-miterlimit="10" d="M16.4562,7.8195
		h0.8935c0.6076,0,1.1001,0.4925,1.1001,1.1001v3.3455c0,0.6076-0.4925,1.1001-1.1001,1.1001h-0.8935"/>
	<path fill="none" stroke="#000000" stroke-linecap="round" stroke-linejoin="round" d="M6.7035,7.8195V6.2601
		c0-2.9272,2.373-5.3002,5.3002-5.3002s5.3002,2.373,5.3002,5.3002v1.5594"/>
	
		<circle fill="none" stroke="#000000" stroke-linecap="round" stroke-linejoin="round" stroke-miterlimit="10" cx="12.1857" cy="16.4178" r="0.8045"/>
</g>
<rect x="0" y="0" fill="none" width="24" height="24"/>
</svg>
