<?xml version="1.0" encoding="utf-8"?>
<!-- Generator: Adobe Illustrator 18.1.0, SVG Export Plug-In . SVG Version: 6.00 Build 0)  -->
<svg version="1.1" id="Layer_1" xmlns="http://www.w3.org/2000/svg" xmlns:xlink="http://www.w3.org/1999/xlink" x="0px" y="0px"
	 width="24px" height="24px" viewBox="0 0 24 24" enable-background="new 0 0 24 24" xml:space="preserve">
<g>
	<path fill="none" stroke="#000000" stroke-linecap="round" stroke-linejoin="round" stroke-miterlimit="10" d="M20.7641,9.9678
		c-0.9279-3.9887-4.5116-6.9692-8.7788-6.9692c-4.2674,0-7.8513,2.9809-8.779,6.9698"/>
	<path fill="none" stroke="#000000" stroke-linecap="round" stroke-linejoin="round" stroke-miterlimit="10" d="M13.6153,20.8763
		c3.944-0.7234,6.9984-4.0231,7.3488-8.0838"/>
	<path fill="none" stroke="#000000" stroke-linecap="round" stroke-linejoin="round" stroke-miterlimit="10" d="M3.0047,12.7711
		c0.3424,4.081,3.4155,7.3975,7.3812,8.1107"/>
	<path fill="none" stroke="#000000" stroke-linecap="round" stroke-linejoin="round" stroke-miterlimit="10" d="M11.9853,0.6899
		c-6.2427,0-11.321,5.0783-11.321,11.3209s5.0783,11.3219,11.321,11.3219s11.3209-5.0792,11.3209-11.3219
		S18.2279,0.6899,11.9853,0.6899z"/>
	
		<circle fill="none" stroke="#000000" stroke-linecap="round" stroke-linejoin="round" stroke-miterlimit="10" cx="11.9852" cy="12.0112" r="3.6051"/>
	<path fill="none" stroke="#000000" stroke-linecap="round" stroke-linejoin="round" stroke-miterlimit="10" d="M10.3868,20.876
		c0,0,1.6302-9.9215-7.3782-8.1069"/>
	<path fill="none" stroke="#000000" stroke-linecap="round" stroke-linejoin="round" stroke-miterlimit="10" d="M13.6153,20.876
		c0,0-1.7298-9.9409,7.2786-8.1264"/>
	
		<line fill="none" stroke="#000000" stroke-linecap="round" stroke-linejoin="round" x1="3.2096" y1="9.9692" x2="9.0145" y2="9.9692"/>
	
		<line fill="none" stroke="#000000" stroke-linecap="round" stroke-linejoin="round" x1="14.9554" y1="9.9692" x2="20.7607" y2="9.9692"/>
</g>
<rect x="-0.0136" y="0.0002" fill="none" width="24" height="24"/>
</svg>
