<?xml version="1.0" encoding="utf-8"?>
<!-- Generator: Adobe Illustrator 18.1.0, SVG Export Plug-In . SVG Version: 6.00 Build 0)  -->
<svg version="1.1" id="Layer_1" xmlns="http://www.w3.org/2000/svg" xmlns:xlink="http://www.w3.org/1999/xlink" x="0px" y="0px"
	 width="24px" height="24px" viewBox="0 0 24 24" enable-background="new 0 0 24 24" xml:space="preserve">
<g>
	<rect x="1.5" y="13.5" fill="none" stroke="#000000" stroke-linecap="round" stroke-linejoin="round" width="21" height="10"/>
	<polyline fill="none" stroke="#000000" stroke-linecap="round" stroke-linejoin="round" points="15.5,9.5 19.0289,9.5 22.5,13.5 
		1.5,13.5 5.0041,9.5 7.5,9.5 	"/>
	<polyline fill="none" stroke="#000000" stroke-linecap="round" stroke-linejoin="round" points="15.5,5.3989 15.5,11.5 7.5,11.5 
		7.5,4.5 13.4906,4.5 	"/>
	<path fill="none" stroke="#000000" stroke-linecap="round" stroke-linejoin="round" d="M8.6943,4.5
		c0,0,1.8503-2.9791,4.4941-3.0761c2.5239-0.0926,3.8418,0.4234,5.4193-0.8645"/>
	<path fill="none" stroke="#000000" stroke-linecap="round" stroke-linejoin="round" d="M21.2228,2.5101
		c-1.3468,0.8428-3.3237,1.9835-4.7801,2.4128C15.9413,5.0706,12.52,7.1971,12.8764,6.982c-1.0031,0.6053-1.8642-0.835-0.908-1.4121
		l2.5394-1.7849"/>
	<line fill="none" stroke="#000000" stroke-linecap="round" stroke-linejoin="round" x1="15.5" y1="11.5" x2="17.2814" y2="11.5"/>
	<line fill="none" stroke="#000000" stroke-linecap="round" stroke-linejoin="round" x1="7.5" y1="11.5" x2="6.5" y2="11.5"/>
</g>
<rect x="0" y="0" fill="none" width="24" height="24"/>
</svg>
