<?xml version="1.0" encoding="utf-8"?>
<!-- Generator: Adobe Illustrator 18.1.0, SVG Export Plug-In . SVG Version: 6.00 Build 0)  -->
<svg version="1.1" id="Layer_1" xmlns="http://www.w3.org/2000/svg" xmlns:xlink="http://www.w3.org/1999/xlink" x="0px" y="0px"
	 width="24px" height="24px" viewBox="0 0 24 24" enable-background="new 0 0 24 24" xml:space="preserve">
<g>
	<path fill="none" stroke="#000000" stroke-linecap="round" stroke-linejoin="round" stroke-miterlimit="10" d="M8,0.5197v6.2084
		c0,2.129,1.8709,3.855,4,3.855s4-1.726,4-3.855V0.5197H8z"/>
	
		<line fill="none" stroke="#000000" stroke-linecap="round" stroke-linejoin="round" stroke-miterlimit="10" x1="12" y1="2.5514" x2="12" y2="5.4549"/>
	
		<line fill="none" stroke="#000000" stroke-linecap="round" stroke-linejoin="round" stroke-miterlimit="10" x1="14" y1="2.5514" x2="14" y2="5.4549"/>
	
		<line fill="none" stroke="#000000" stroke-linecap="round" stroke-linejoin="round" stroke-miterlimit="10" x1="10" y1="2.5514" x2="10" y2="5.4549"/>
	<path fill="none" stroke="#000000" stroke-linecap="round" stroke-linejoin="round" stroke-miterlimit="10" d="M12.0081,23.3727
		c-0.7813,0-1.4166-0.6357-1.4166-1.4165v-6.4186h2.833v6.4186C13.4245,22.737,12.7891,23.3727,12.0081,23.3727"/>
	
		<line fill="none" stroke="#000000" stroke-linecap="round" stroke-linejoin="round" stroke-miterlimit="10" x1="12.0081" y1="21.5341" x2="12.0081" y2="21.5341"/>
	
		<line fill="none" stroke="#000000" stroke-linecap="round" stroke-linejoin="round" stroke-miterlimit="10" x1="12.008" y1="10.5832" x2="12.0081" y2="13.4679"/>
</g>
<rect x="0" y="0.0197" fill="none" width="24" height="24"/>
</svg>
