<?xml version="1.0" encoding="utf-8"?>
<!-- Generator: Adobe Illustrator 18.1.0, SVG Export Plug-In . SVG Version: 6.00 Build 0)  -->
<svg version="1.1" id="Layer_1" xmlns="http://www.w3.org/2000/svg" xmlns:xlink="http://www.w3.org/1999/xlink" x="0px" y="0px"
	 width="24px" height="24px" viewBox="0 0 24 24" enable-background="new 0 0 24 24" xml:space="preserve">
<g>
	<path fill="none" stroke="#000000" stroke-linecap="round" stroke-linejoin="round" stroke-miterlimit="10" d="M6.5142,18.224
		c-2.7122,0-5-3.0826-5-5.7948V6.388c0-0.6781,0.469-0.8535,1.147-0.8535h7.3665c0.6781,0,1.4865,0.1754,1.4865,0.8535v6.0411
		C11.5142,15.1414,9.2264,18.224,6.5142,18.224z"/>
	<polyline fill="none" stroke="#000000" stroke-linecap="round" stroke-linejoin="round" stroke-miterlimit="10" points="
		6.5142,18.224 6.5142,23.4062 6.5142,23.3148 	"/>
	<g>
		<path fill="none" stroke="#000000" stroke-linecap="round" stroke-linejoin="round" stroke-miterlimit="10" d="M11.5142,9.2819
			L11.5142,9.2819c-1.398,0.6521-3.6366,0.6652-5,0.0293l0,0l0,0c-1.3634-0.636-3.602-0.6228-5,0.0293"/>
	</g>
	<path fill="none" stroke="#000000" stroke-linecap="round" stroke-linejoin="round" stroke-miterlimit="10" d="M4.9872,2.3833
		c0-0.9339,0.8385-1.672,1.8037-1.5026C7.4051,0.9884,7.909,1.4924,8.0168,2.1065C8.1559,2.899,7.6833,3.6059,6.9929,3.8337
		C6.7081,3.9276,6.5142,4.1906,6.5142,4.4905v1.044"/>
	<path fill="none" stroke="#000000" stroke-linecap="round" stroke-linejoin="round" stroke-miterlimit="10" d="M18.549,8.7493
		c-0.0742,0-4.6063,7.2638-4.6063,9.8075c0,2.5443,2.0623,4.6065,4.6063,4.6065s4.6065-2.0621,4.6065-4.6065
		C23.1554,16.013,18.6234,8.7493,18.549,8.7493z"/>
	<path fill="none" stroke="#000000" stroke-linecap="round" stroke-linejoin="round" stroke-miterlimit="10" d="M16.3534,16.7637
		c-0.3552,0.7662-0.6201,1.4895-0.6201,1.9368c0,1.1407,0.7838,2.0982,1.8421,2.3634"/>
</g>
<rect x="0.0142" y="0.0346" fill="none" width="24" height="24"/>
</svg>
