<?xml version="1.0" encoding="utf-8"?>
<!-- Generator: Adobe Illustrator 18.1.0, SVG Export Plug-In . SVG Version: 6.00 Build 0)  -->
<svg version="1.1" id="Layer_1" xmlns="http://www.w3.org/2000/svg" xmlns:xlink="http://www.w3.org/1999/xlink" x="0px" y="0px"
	 width="24px" height="24px" viewBox="0 0 24 24" enable-background="new 0 0 24 24" xml:space="preserve">
<g>
	<path fill="none" stroke="#000000" stroke-linecap="round" stroke-linejoin="round" stroke-miterlimit="10" d="M1.62,19.4699
		h5.8807c1.0731,0,1.9431-0.8697,1.9431-1.9431v-1.4491"/>
	<polygon fill="none" stroke="#000000" stroke-linecap="round" stroke-linejoin="round" points="22.1533,15.8001 18.6628,14.8933 
		21.8109,11.1088 23.2739,11.4889 	"/>
	<path fill="none" stroke="#000000" stroke-linecap="round" stroke-linejoin="round" stroke-miterlimit="10" d="M17.0634,15.9746
		L1.4093,11.9722c-0.5068-0.1294-0.8127-0.6452-0.6829-1.1521l1.5899-6.2195c0.1314-0.5134,0.654-0.8115,1.1521-0.6831
		l18.5908,4.7531c0.6743,0.1722,0.9357,0.9901,0.4951,1.5214l-4.5266,5.4685C17.7932,15.9442,17.4165,16.0653,17.0634,15.9746z"/>
	
		<line fill="none" stroke="#000000" stroke-linecap="round" stroke-linejoin="round" stroke-miterlimit="10" x1="17.4727" y1="10.4541" x2="17.4727" y2="10.4541"/>
</g>
<rect x="-0.0137" fill="none" width="24" height="24"/>
</svg>
