<?xml version="1.0" encoding="utf-8"?>
<!-- Generator: Adobe Illustrator 18.1.0, SVG Export Plug-In . SVG Version: 6.00 Build 0)  -->
<svg version="1.1" id="Layer_1" xmlns="http://www.w3.org/2000/svg" xmlns:xlink="http://www.w3.org/1999/xlink" x="0px" y="0px"
	 width="24px" height="24px" viewBox="0 0 24 24" enable-background="new 0 0 24 24" xml:space="preserve">
<g>
	
		<line fill="none" stroke="#000000" stroke-linecap="round" stroke-linejoin="round" stroke-miterlimit="10" x1="6.8587" y1="15.931" x2="11.5357" y2="11.982"/>
	
		<line fill="none" stroke="#000000" stroke-linecap="round" stroke-linejoin="round" stroke-miterlimit="10" x1="11.5376" y1="11.9803" x2="11.5357" y2="11.982"/>
	
		<line fill="none" stroke="#000000" stroke-linecap="round" stroke-linejoin="round" stroke-miterlimit="10" x1="6.8587" y1="8.0329" x2="11.5357" y2="11.982"/>
	
		<line fill="none" stroke="#000000" stroke-linecap="round" stroke-linejoin="round" stroke-miterlimit="10" x1="11.5357" y1="11.982" x2="11.5376" y2="11.9836"/>
	<path fill="none" stroke="#000000" stroke-linecap="round" stroke-linejoin="round" stroke-miterlimit="10" d="M11.5376,11.9803"/>
	<polyline fill="none" stroke="#000000" stroke-linecap="round" stroke-linejoin="round" stroke-miterlimit="10" points="
		11.5376,11.9803 16.4909,7.798 11.5376,3.6156 11.5376,8.4061 	"/>
	<polyline fill="none" stroke="#000000" stroke-linecap="round" stroke-linejoin="round" stroke-miterlimit="10" points="
		11.5357,11.982 16.4909,16.1659 11.5376,20.3482 11.5376,15.5577 	"/>
	<path fill="none" stroke="#000000" stroke-linecap="round" stroke-linejoin="round" stroke-miterlimit="10" d="M11.5376,11.9836"/>
	<path fill="none" stroke="#000000" stroke-linecap="round" stroke-linejoin="round" stroke-miterlimit="10" d="M12.236,23.283
		h-0.4369c-4.5983,0-8.3259-3.7276-8.3259-8.3259V9.043c0-4.5983,3.7276-8.3259,8.3259-8.3259h0.4369
		c4.5983,0,8.3259,3.7276,8.3259,8.3259v5.9141C20.5619,19.5553,16.8343,23.283,12.236,23.283z"/>
</g>
<rect x="0" y="0" fill="none" width="24" height="24"/>
</svg>
