<?xml version="1.0" encoding="utf-8"?>
<!-- Generator: Adobe Illustrator 18.1.0, SVG Export Plug-In . SVG Version: 6.00 Build 0)  -->
<svg version="1.1" id="Layer_1" xmlns="http://www.w3.org/2000/svg" xmlns:xlink="http://www.w3.org/1999/xlink" x="0px" y="0px"
	 width="24px" height="24px" viewBox="0 0 24 24" enable-background="new 0 0 24 24" xml:space="preserve">
<g>
	<path fill="none" stroke="#000000" stroke-linecap="round" stroke-linejoin="round" stroke-miterlimit="10" d="M23.3023,10.5633
		c-2.9779-2.7172-6.9393-4.3747-11.2881-4.3747c-4.3489,0-8.3102,1.6575-11.2881,4.3747"/>
	
		<line fill="none" stroke="#000000" stroke-linecap="round" stroke-linejoin="round" stroke-miterlimit="10" x1="12.0142" y1="8.1611" x2="12.0142" y2="11.7078"/>
	
		<line fill="none" stroke="#000000" stroke-linecap="round" stroke-linejoin="round" stroke-miterlimit="10" x1="4.7564" y1="10.229" x2="4.7564" y2="16.8037"/>
	
		<line fill="none" stroke="#000000" stroke-linecap="round" stroke-linejoin="round" stroke-miterlimit="10" x1="19.2719" y1="10.229" x2="19.2719" y2="14.2456"/>
	
		<line fill="none" stroke="#000000" stroke-linecap="round" stroke-linejoin="round" stroke-miterlimit="10" x1="12.0142" y1="6.1886" x2="12.0142" y2="3.6594"/>
	
		<circle fill="none" stroke="#000000" stroke-linecap="round" stroke-linejoin="round" stroke-miterlimit="10" cx="12.0142" cy="2.2398" r="1.4196"/>
	<path fill="none" stroke="#000000" stroke-linecap="round" stroke-linejoin="round" stroke-miterlimit="10" d="M19.8132,17.1011
		c0-1.1223,0.7594-2.0649,1.7916-2.3483c-0.4867-0.3613-1.0873-0.5775-1.74-0.5775c-1.6159,0-2.9258,1.3099-2.9258,2.9259
		c0,1.6158,1.3099,2.9258,2.9258,2.9258c0.6526,0,1.2533-0.2164,1.74-0.5775C20.5726,19.1659,19.8132,18.2233,19.8132,17.1011z"/>
	<path fill="none" stroke="#000000" stroke-linecap="round" stroke-linejoin="round" stroke-miterlimit="10" d="M12.8496,13.718
		c-0.9658-2.7487-0.7366-2.6583-1.6706,0c-2.9358,0.0594-2.7916-0.13-0.5174,1.5762c-0.8494,2.7772-0.9923,2.5871,1.3527,0.9726
		c2.4283,1.6718,2.1731,1.7095,1.3523-0.9726C15.7063,13.5391,15.7017,13.7758,12.8496,13.718z"/>
	
		<line fill="none" stroke="#000000" stroke-linecap="round" stroke-linejoin="round" stroke-miterlimit="10" x1="4.2684" y1="21.208" x2="3.4867" y2="23.0243"/>
	
		<line fill="none" stroke="#000000" stroke-linecap="round" stroke-linejoin="round" stroke-miterlimit="10" x1="6.0216" y1="17.1348" x2="5.2398" y2="18.9511"/>
	
		<line fill="none" stroke="#000000" stroke-linecap="round" stroke-linejoin="round" stroke-miterlimit="10" x1="3.6257" y1="19.5939" x2="1.8094" y2="18.8121"/>
	
		<line fill="none" stroke="#000000" stroke-linecap="round" stroke-linejoin="round" stroke-miterlimit="10" x1="7.6989" y1="21.347" x2="5.8826" y2="20.5653"/>
	
		<line fill="none" stroke="#000000" stroke-linecap="round" stroke-linejoin="round" stroke-miterlimit="10" x1="3.6127" y1="20.5341" x2="1.7757" y2="21.2656"/>
	
		<line fill="none" stroke="#000000" stroke-linecap="round" stroke-linejoin="round" stroke-miterlimit="10" x1="7.7326" y1="18.8935" x2="5.8955" y2="19.625"/>
	
		<line fill="none" stroke="#000000" stroke-linecap="round" stroke-linejoin="round" stroke-miterlimit="10" x1="4.2996" y1="18.9382" x2="3.5681" y2="17.1011"/>
	
		<line fill="none" stroke="#000000" stroke-linecap="round" stroke-linejoin="round" stroke-miterlimit="10" x1="5.9402" y1="23.058" x2="5.2087" y2="21.221"/>
</g>
<rect x="0.0142" y="0.0344" fill="none" width="24" height="24"/>
</svg>
