<?xml version="1.0" encoding="utf-8"?>
<!-- Generator: Adobe Illustrator 18.1.0, SVG Export Plug-In . SVG Version: 6.00 Build 0)  -->
<svg version="1.1" id="Layer_1" xmlns="http://www.w3.org/2000/svg" xmlns:xlink="http://www.w3.org/1999/xlink" x="0px" y="0px"
	 width="24px" height="24px" viewBox="0 0 24 24" enable-background="new 0 0 24 24" xml:space="preserve">
<g>
	<path fill="none" stroke="#000000" stroke-linecap="round" stroke-linejoin="round" d="M3.5681,3.6236
		c0,1.5468-1.3285,2.8007-2.9674,2.8007"/>
	<path fill="none" stroke="#000000" stroke-linecap="round" stroke-linejoin="round" d="M18.4049,6.4243
		c-1.6388,0-2.9674-1.2539-2.9674-2.8007"/>
	<path fill="none" stroke="#000000" stroke-linecap="round" stroke-linejoin="round" d="M9.5028,3.6236
		c0,1.5468-1.3285,2.8007-2.9674,2.8007S3.5681,5.1704,3.5681,3.6236"/>
	<path fill="none" stroke="#000000" stroke-linecap="round" stroke-linejoin="round" d="M15.4376,3.6236
		c0,1.5468-1.3285,2.8007-2.9674,2.8007S9.5028,5.1704,9.5028,3.6236"/>
	<path fill="none" stroke="#000000" stroke-linecap="round" stroke-linejoin="round" d="M8.5684,10.624
		c0,1.5468-1.3285,2.8007-2.9674,2.8007"/>
	<path fill="none" stroke="#000000" stroke-linecap="round" stroke-linejoin="round" d="M23.4052,13.4248
		c-1.6388,0-2.9674-1.2539-2.9674-2.8007"/>
	<path fill="none" stroke="#000000" stroke-linecap="round" stroke-linejoin="round" d="M14.5031,10.624
		c0,1.5468-1.3285,2.8007-2.9674,2.8007s-2.9674-1.2539-2.9674-2.8007"/>
	<path fill="none" stroke="#000000" stroke-linecap="round" stroke-linejoin="round" d="M20.4379,10.624
		c0,1.5468-1.3285,2.8007-2.9674,2.8007s-2.9674-1.2539-2.9674-2.8007"/>
	<path fill="none" stroke="#000000" stroke-linecap="round" stroke-linejoin="round" d="M3.5681,17.6245
		c0,1.5468-1.3285,2.8007-2.9674,2.8007"/>
	<path fill="none" stroke="#000000" stroke-linecap="round" stroke-linejoin="round" d="M18.4049,20.4252
		c-1.6388,0-2.9674-1.2539-2.9674-2.8007"/>
	<path fill="none" stroke="#000000" stroke-linecap="round" stroke-linejoin="round" d="M9.5028,17.6245
		c0,1.5468-1.3285,2.8007-2.9674,2.8007s-2.9674-1.2539-2.9674-2.8007"/>
	<path fill="none" stroke="#000000" stroke-linecap="round" stroke-linejoin="round" d="M15.4376,17.6245
		c0,1.5468-1.3285,2.8007-2.9674,2.8007s-2.9674-1.2539-2.9674-2.8007"/>
</g>
<rect x="0" y="0.0354" fill="none" width="24" height="24"/>
</svg>
