<?xml version="1.0" encoding="utf-8"?>
<!-- Generator: Adobe Illustrator 18.1.0, SVG Export Plug-In . SVG Version: 6.00 Build 0)  -->
<svg version="1.1" id="Layer_1" xmlns="http://www.w3.org/2000/svg" xmlns:xlink="http://www.w3.org/1999/xlink" x="0px" y="0px"
	 width="24px" height="24px" viewBox="0 0 24 24" enable-background="new 0 0 24 24" xml:space="preserve">
<g>
	<path fill="none" stroke="#000000" stroke-linecap="round" stroke-linejoin="round" stroke-miterlimit="10" d="M15.6914,7.5083
		c0.2145-1.5537-1.6336-3.0148-0.1671-4.5151c0.061-0.0619-0.0023-0.1563-0.0915-0.1419c-1.2373,0.1808-1.8752,1.6476-2.0477,2.2122
		c-0.5684-0.949-0.664-2.7174-0.664-4.1514c0-0.0679-0.085-0.1088-0.1499-0.0745c-2.189,1.1524-1.489,4.4181-2.2419,5.4182
		c-0.0055,0.0018-0.0108,0.004-0.0161,0.0057c-0.2201-0.6877-1.7153-2.4735-1.8633-2.571C8.3699,3.6394,8.2637,3.7095,8.2973,3.7899
		c0.4602,1.1085-0.0989,2.4895,0.0229,3.7183"/>
	
		<line fill="none" stroke="#000000" stroke-linecap="round" stroke-linejoin="round" stroke-miterlimit="10" x1="10.7145" y1="15.6706" x2="7.7734" y2="20.9908"/>
	
		<line fill="none" stroke="#000000" stroke-linecap="round" stroke-linejoin="round" stroke-miterlimit="10" x1="13.5309" y1="15.6706" x2="17.1237" y2="23.3463"/>
	
		<line fill="none" stroke="#000000" stroke-linecap="round" stroke-linejoin="round" stroke-miterlimit="10" x1="8.2155" y1="21.5197" x2="16.2687" y2="21.5197"/>
	<path fill="none" stroke="#000000" stroke-linecap="round" stroke-linejoin="round" stroke-miterlimit="10" d="M18.4558,9.5197
		c0,3-2.8353,6.3329-6.3329,6.3329S5.79,12.5197,5.79,9.5197H18.4558z"/>
	<path fill="none" stroke="#000000" stroke-linecap="round" stroke-linejoin="round" stroke-miterlimit="10" d="M9.104,12.9472
		c-0.5194-0.5292-0.8986-1.1686-1.0867-1.8733"/>
	
		<circle fill="none" stroke="#000000" stroke-linecap="round" stroke-linejoin="round" stroke-miterlimit="10" cx="6.9924" cy="22.0382" r="1.3081"/>
	
		<line fill="none" stroke="#000000" stroke-linecap="round" stroke-linejoin="round" stroke-miterlimit="10" x1="5.79" y1="9.5197" x2="5.003" y2="9.5197"/>
	
		<line fill="none" stroke="#000000" stroke-linecap="round" stroke-linejoin="round" stroke-miterlimit="10" x1="20.4425" y1="11.5197" x2="18.0628" y2="11.5197"/>
</g>
<rect x="0" y="0.0197" fill="none" width="24" height="24"/>
</svg>
