<?xml version="1.0" encoding="utf-8"?>
<!-- Generator: Adobe Illustrator 18.1.0, SVG Export Plug-In . SVG Version: 6.00 Build 0)  -->
<svg version="1.1" id="Layer_1" xmlns="http://www.w3.org/2000/svg" xmlns:xlink="http://www.w3.org/1999/xlink" x="0px" y="0px"
	 width="24px" height="24px" viewBox="0 0 24 24" enable-background="new 0 0 24 24" xml:space="preserve">
<g>
	<path fill="none" stroke="#000000" stroke-linecap="round" stroke-linejoin="round" d="M23.4864,23V12.3737
		c0-6.3804-5.1896-11.5527-11.5-11.5527c-6.3105,0-11.5,5.1723-11.5,11.5527V23"/>
	<path fill="none" stroke="#000000" stroke-linecap="round" stroke-linejoin="round" d="M5.6181,12.165H3.4784
		c-0.2586,0-0.4683,0.2065-0.4683,0.4618v0.5675c0,0.4944,0.5868,0.4817,1.1049,0.569c-0.201,0.3874-0.5512,3.731-0.5512,3.731
		c0,0.0773,0,4.1833,0,4.1833c0,0.4548,0.3741,0.8234,0.8357,0.8234H5.675c0.4616,0,0.8357-0.3686,0.8357-0.8234V20.5h10.9665
		v1.1775c0,0.4548,0.3741,0.8234,0.8357,0.8234h1.2755c0.4615,0,0.8357-0.3686,0.8357-0.8234c0,0,0-4.106,0-4.1833
		c0,0-0.3508-3.3454-0.5526-3.7334c0.5105-0.086,1.091-0.071,1.091-0.5667v-0.5675c0-0.2552-0.2097-0.4618-0.4683-0.4618h-2.1245"/>
	<path fill="none" stroke="#000000" stroke-linecap="round" stroke-linejoin="round" d="M18.3698,11.9806
		c0,0.9118-1.0568,1.5194-2.0548,1.5194H7.6729c-0.998,0-2.0548-0.6076-2.0548-1.5194l0.8243-2.914
		C6.6135,8.2244,7.2515,7.5,8.2496,7.5h7.4889c0.998,0,1.6359,0.7011,1.807,1.5665L18.3698,11.9806z"/>
	
		<line fill="none" stroke="#000000" stroke-linecap="round" stroke-linejoin="round" x1="9.9864" y1="18.5" x2="13.9864" y2="18.5"/>
	
		<line fill="none" stroke="#000000" stroke-linecap="round" stroke-linejoin="round" x1="9.9864" y1="16.4999" x2="13.9864" y2="16.4999"/>
	
		<ellipse fill="none" stroke="#000000" stroke-linecap="round" stroke-linejoin="round" cx="17.4937" cy="17.4963" rx="1.146" ry="1.1299"/>
	
		<ellipse fill="none" stroke="#000000" stroke-linecap="round" stroke-linejoin="round" cx="6.493" cy="17.4963" rx="1.146" ry="1.1299"/>
	
		<line fill="none" stroke="#000000" stroke-linecap="round" stroke-linejoin="round" x1="10.9652" y1="9.0286" x2="13.0274" y2="9.0286"/>
	
		<line fill="none" stroke="#000000" stroke-linecap="round" stroke-linejoin="round" x1="20.4242" y1="20.5" x2="3.5637" y2="20.5"/>
</g>
<rect x="-0.0136" y="0" fill="none" width="24" height="24"/>
</svg>
