<?xml version="1.0" encoding="utf-8"?>
<!-- Generator: Adobe Illustrator 18.1.0, SVG Export Plug-In . SVG Version: 6.00 Build 0)  -->
<svg version="1.1" id="Layer_1" xmlns="http://www.w3.org/2000/svg" xmlns:xlink="http://www.w3.org/1999/xlink" x="0px" y="0px"
	 width="24px" height="24px" viewBox="0 0 24 24" enable-background="new 0 0 24 24" xml:space="preserve">
<g>
	<path fill="none" stroke="#000000" stroke-linecap="round" stroke-linejoin="round" stroke-miterlimit="10" d="M19.4598,11.5161"/>
	<path fill="none" stroke="#000000" stroke-linecap="round" stroke-linejoin="round" stroke-miterlimit="10" d="M19.9257,11.5161
		c0,0,2.3429-3.9632,3.3717-4.089c0,0,0.1153,2.705-0.9562,4.089c1.0715,1.384,0.9562,4.089,0.9562,4.089
		C22.2686,15.4793,19.9257,11.5161,19.9257,11.5161"/>
	<path fill="none" stroke="#000000" stroke-linecap="round" stroke-linejoin="round" stroke-miterlimit="10" d="M6.4691,16.3304
		c-2.7612-0.8922-4.6838-2.9978-5.543-4.1052c-0.3189-0.4111-0.3189-1.0072,0-1.4182c0.8591-1.1075,2.7818-3.213,5.543-4.1052
		h0.0314v9.6287H6.4691z"/>
	
		<line fill="none" stroke="#000000" stroke-linecap="round" stroke-linejoin="round" stroke-miterlimit="10" x1="6.5005" y1="11.5" x2="20.0005" y2="11.5"/>
	
		<line fill="none" stroke="#000000" stroke-linecap="round" stroke-linejoin="round" stroke-miterlimit="10" x1="9.5007" y1="6.3444" x2="9.5007" y2="16.6875"/>
	
		<line fill="none" stroke="#000000" stroke-linecap="round" stroke-linejoin="round" stroke-miterlimit="10" x1="12.5009" y1="6.8392" x2="12.5009" y2="16.1929"/>
	
		<line fill="none" stroke="#000000" stroke-linecap="round" stroke-linejoin="round" stroke-miterlimit="10" x1="15.5011" y1="7.9454" x2="15.5011" y2="15.0867"/>
	
		<line fill="none" stroke="#000000" stroke-linecap="round" stroke-linejoin="round" stroke-miterlimit="10" x1="18.5013" y1="9.4826" x2="18.5013" y2="13.5496"/>
	
		<line fill="none" stroke="#000000" stroke-linecap="round" stroke-linejoin="round" stroke-miterlimit="10" x1="3.6529" y1="10.2774" x2="4.814" y2="11.4385"/>
	
		<line fill="none" stroke="#000000" stroke-linecap="round" stroke-linejoin="round" stroke-miterlimit="10" x1="3.6529" y1="11.4385" x2="4.814" y2="10.2774"/>
</g>
<rect x="0.0005" y="0" fill="none" width="24" height="24"/>
</svg>
