<?xml version="1.0" encoding="utf-8"?>
<!-- Generator: Adobe Illustrator 18.1.1, SVG Export Plug-In . SVG Version: 6.00 Build 0)  -->
<svg version="1.1" id="Layer_1" xmlns="http://www.w3.org/2000/svg" xmlns:xlink="http://www.w3.org/1999/xlink" x="0px" y="0px"
	 width="24px" height="24px" viewBox="0 0 24 24" enable-background="new 0 0 24 24" xml:space="preserve">
<g>
	<line fill="none" stroke="#000000" stroke-linecap="round" stroke-linejoin="round" x1="15" y1="23.5" x2="8" y2="23.5"/>
	<path fill="none" stroke="#000000" stroke-linecap="round" stroke-linejoin="round" d="M16.5,5.3c0-6.5-10-6.3-10,0v9.4
		c0,6.3,10,6.4,10,0V5.3z"/>
	<line fill="none" stroke="#000000" stroke-linecap="round" stroke-linejoin="round" x1="6.5" y1="14.5" x2="16.5" y2="14.5"/>
	<line fill="none" stroke="#000000" stroke-linecap="round" stroke-linejoin="round" x1="11.5" y1="23.5" x2="11.5" y2="21.5"/>
	<line fill="none" stroke="#000000" stroke-linecap="round" stroke-linejoin="round" x1="8.6" y1="11" x2="8.5" y2="11"/>
	<line fill="none" stroke="#000000" stroke-linecap="round" stroke-linejoin="round" x1="11.4" y1="11" x2="11.5" y2="11"/>
	<line fill="none" stroke="#000000" stroke-linecap="round" stroke-linejoin="round" x1="14.4" y1="11" x2="14.5" y2="11"/>
	<line fill="none" stroke="#000000" stroke-linecap="round" stroke-linejoin="round" x1="10.1" y1="12.5" x2="10" y2="12.5"/>
	<line fill="none" stroke="#000000" stroke-linecap="round" stroke-linejoin="round" x1="13.1" y1="12.5" x2="13" y2="12.5"/>
	<line fill="none" stroke="#000000" stroke-linecap="round" stroke-linejoin="round" x1="10.1" y1="9.5" x2="10" y2="9.5"/>
	<line fill="none" stroke="#000000" stroke-linecap="round" stroke-linejoin="round" x1="13.1" y1="9.5" x2="13" y2="9.5"/>
	<line fill="none" stroke="#000000" stroke-linecap="round" stroke-linejoin="round" x1="8.6" y1="8" x2="8.5" y2="8"/>
	<line fill="none" stroke="#000000" stroke-linecap="round" stroke-linejoin="round" x1="11.4" y1="8" x2="11.5" y2="8"/>
	<line fill="none" stroke="#000000" stroke-linecap="round" stroke-linejoin="round" x1="14.4" y1="8" x2="14.5" y2="8"/>
	<line fill="none" stroke="#000000" stroke-linecap="round" stroke-linejoin="round" x1="8.6" y1="5" x2="8.5" y2="5"/>
	<line fill="none" stroke="#000000" stroke-linecap="round" stroke-linejoin="round" x1="11.4" y1="5" x2="11.5" y2="5"/>
	<line fill="none" stroke="#000000" stroke-linecap="round" stroke-linejoin="round" x1="14.4" y1="5" x2="14.5" y2="5"/>
	<line fill="none" stroke="#000000" stroke-linecap="round" stroke-linejoin="round" x1="10.1" y1="3.5" x2="10" y2="3.5"/>
	<line fill="none" stroke="#000000" stroke-linecap="round" stroke-linejoin="round" x1="13.1" y1="3.5" x2="13" y2="3.5"/>
	<line fill="none" stroke="#000000" stroke-linecap="round" stroke-linejoin="round" x1="10.1" y1="6.5" x2="10" y2="6.5"/>
	<line fill="none" stroke="#000000" stroke-linecap="round" stroke-linejoin="round" x1="13.1" y1="6.5" x2="13" y2="6.5"/>
</g>
<rect fill="none" width="24" height="24"/>
</svg>
