<?xml version="1.0" encoding="utf-8"?>
<!-- Generator: Adobe Illustrator 18.1.0, SVG Export Plug-In . SVG Version: 6.00 Build 0)  -->
<svg version="1.1" id="Layer_1" xmlns="http://www.w3.org/2000/svg" xmlns:xlink="http://www.w3.org/1999/xlink" x="0px" y="0px"
	 width="24px" height="24px" viewBox="0 0 24 24" enable-background="new 0 0 24 24" xml:space="preserve">
<g>
	
		<line fill="none" stroke="#000000" stroke-linecap="round" stroke-linejoin="round" x1="23.4824" y1="20.5528" x2="23.4824" y2="18.6301"/>
	
		<line fill="none" stroke="#000000" stroke-linecap="round" stroke-linejoin="round" x1="23.4824" y1="14.4269" x2="23.4824" y2="12.5519"/>
	<path fill="none" stroke="#000000" stroke-linecap="round" stroke-linejoin="round" d="M6.5259,9.4876L6.5128,3.8827
		c0-0.6335-0.5167-1.0023-1.1703-1.0023h0L5.2686,0.893h0.614c1.4155,0,2.5631,1.1578,2.5631,2.5298v6.0648"/>
	<path fill="none" stroke="#000000" stroke-linecap="round" stroke-linejoin="round" stroke-miterlimit="10" d="M21.016,15.6084
		h1.2302c0.4642,0,0.8404,0.3648,0.8404,0.8146c0,0.4498-0.3763,0.8146-0.8404,0.8146H21.068"/>
	<path fill="none" stroke="#000000" stroke-linecap="round" stroke-linejoin="round" stroke-miterlimit="10" d="M21.0553,16.5397
		c0-2.213-1.794-4.0071-4.0071-4.0071h-5.5775v-2.3236c0-0.3863-0.314-0.699-0.7003-0.6975H4.998
		C4.6139,9.5132,4.3034,9.825,4.3034,10.2091v2.3531c-2.0505,0.2338-3.6558,1.9331-3.6558,3.9805
		c0,2.2058,1.862,4.0101,4.1377,4.0101l12.1196-0.006h0.1433C19.2612,20.5468,21.0553,18.7528,21.0553,16.5397L21.0553,16.5397z"/>
	
		<circle fill="none" stroke="#000000" stroke-linecap="round" stroke-linejoin="round" stroke-miterlimit="10" cx="5.4708" cy="16.5017" r="0.9721"/>
	
		<circle fill="none" stroke="#000000" stroke-linecap="round" stroke-linejoin="round" stroke-miterlimit="10" cx="9.4711" cy="16.5017" r="0.9721"/>
	
		<circle fill="none" stroke="#000000" stroke-linecap="round" stroke-linejoin="round" stroke-miterlimit="10" cx="13.4713" cy="16.5017" r="0.9721"/>
</g>
<rect x="0" y="0.0354" fill="none" width="24" height="24"/>
</svg>
