<?xml version="1.0" encoding="utf-8"?>
<!-- Generator: Adobe Illustrator 18.1.0, SVG Export Plug-In . SVG Version: 6.00 Build 0)  -->
<svg version="1.1" id="Layer_1" xmlns="http://www.w3.org/2000/svg" xmlns:xlink="http://www.w3.org/1999/xlink" x="0px" y="0px"
	 width="24px" height="24px" viewBox="0 0 24 24" enable-background="new 0 0 24 24" xml:space="preserve">
<g>
	
		<line fill="none" stroke="#000000" stroke-linecap="round" stroke-linejoin="round" x1="15.4988" y1="2.497" x2="15.4988" y2="0.997"/>
	
		<line fill="none" stroke="#000000" stroke-linecap="round" stroke-linejoin="round" x1="8.4981" y1="2.497" x2="8.4981" y2="0.997"/>
	
		<line fill="none" stroke="#000000" stroke-linecap="round" stroke-linejoin="round" x1="7.549" y1="20.466" x2="6.8465" y2="23.4297"/>
	
		<line fill="none" stroke="#000000" stroke-linecap="round" stroke-linejoin="round" x1="16.4463" y1="20.466" x2="17.1488" y2="23.4297"/>
	<rect x="0.4988" y="2.497" fill="none" stroke="#000000" stroke-linecap="round" stroke-linejoin="round" width="23" height="16"/>
	<path fill="none" stroke="#000000" stroke-linecap="round" stroke-linejoin="round" stroke-miterlimit="10" d="M7.7436,13.5024
		H6.1562c-0.3855,0-0.7055,0.3345-0.7055,0.72v0.6034c0,0.3855,0.32,0.6752,0.7055,0.6752h1.5874
		c0.3836,0,0.7068-0.2897,0.7068-0.6752v-0.6034C8.4504,13.8369,8.1272,13.5024,7.7436,13.5024z"/>
	<path fill="none" stroke="#000000" stroke-linecap="round" stroke-linejoin="round" stroke-miterlimit="10" d="M12.7441,10.5021
		h-1.5874c-0.3855,0-0.7055,0.3346-0.7055,0.72v3.6037c0,0.3855,0.32,0.6752,0.7055,0.6752h1.5874
		c0.3836,0,0.7068-0.2897,0.7068-0.6752v-3.6037C13.4509,10.8366,13.1277,10.5021,12.7441,10.5021z"/>
	<path fill="none" stroke="#000000" stroke-linecap="round" stroke-linejoin="round" stroke-miterlimit="10" d="M17.7446,7.5018
		h-1.5874c-0.3855,0-0.7055,0.3346-0.7055,0.72v6.604c0,0.3855,0.32,0.6752,0.7055,0.6752h1.5874
		c0.3836,0,0.7068-0.2897,0.7068-0.6752v-6.604C18.4514,7.8363,18.1282,7.5018,17.7446,7.5018z"/>
	
		<line fill="none" stroke="#000000" stroke-linecap="round" stroke-linejoin="round" stroke-miterlimit="10" x1="12.4119" y1="5.5098" x2="7.4509" y2="10.4708"/>
	<polyline fill="none" stroke="#000000" stroke-linecap="round" stroke-linejoin="round" stroke-miterlimit="10" points="
		9.9939,5.4972 12.4937,5.4972 12.4937,7.997 	"/>
</g>
<rect x="-0.006" y="-0.003" fill="none" width="24" height="24"/>
</svg>
