<?xml version="1.0" encoding="utf-8"?>
<!-- Generator: Adobe Illustrator 18.1.0, SVG Export Plug-In . SVG Version: 6.00 Build 0)  -->
<svg version="1.1" id="Layer_1" xmlns="http://www.w3.org/2000/svg" xmlns:xlink="http://www.w3.org/1999/xlink" x="0px" y="0px"
	 width="24px" height="24px" viewBox="0 0 24 24" enable-background="new 0 0 24 24" xml:space="preserve">
<g>
	<path fill="none" stroke="#000000" stroke-linecap="round" stroke-linejoin="round" stroke-miterlimit="10" d="M8.1151,21.9785"/>
	<path fill="none" stroke="#000000" stroke-linecap="round" stroke-linejoin="round" stroke-miterlimit="10" d="M17.9598,12.2248
		c1.1231-1.1228-0.0513-2.7065-1.7524-4.4074l0,0c-1.7001-1.7003-3.2845-2.8757-4.4073-1.7527l3.9817-3.9822
		c1.7017-1.7012,4.4602-1.7006,6.1606,0l0,0c1.7008,1.7008,1.7014,4.4589,0,6.1603L17.9598,12.2248"/>
	<path fill="none" stroke="#000000" stroke-linecap="round" stroke-linejoin="round" stroke-miterlimit="10" d="M9.1305,2.6648
		L0.9702,17.4993C0.434,19.03,0.7768,20.8002,2,22.0234c1.7024,1.7022,4.4602,1.7016,6.1613,0.0003
		c2.7104-2.7099,0.8302-7.327-2.9554-7.4345"/>
	<circle fill="none" stroke="#000000" stroke-linecap="round" stroke-linejoin="round" cx="18.8202" cy="5.2047" r="1.6547"/>
	
		<line fill="none" stroke="#000000" stroke-linecap="round" stroke-linejoin="round" stroke-miterlimit="10" x1="17.9598" y1="12.2248" x2="8.1613" y2="22.0237"/>
</g>
<rect x="0.0142" y="0.0354" fill="none" width="24" height="24"/>
</svg>
