<?xml version="1.0" encoding="utf-8"?>
<!-- Generator: Adobe Illustrator 18.1.0, SVG Export Plug-In . SVG Version: 6.00 Build 0)  -->
<svg version="1.1" id="Layer_1" xmlns="http://www.w3.org/2000/svg" xmlns:xlink="http://www.w3.org/1999/xlink" x="0px" y="0px"
	 width="24px" height="24px" viewBox="0 0 24 24" enable-background="new 0 0 24 24" xml:space="preserve">
<g>
	
		<line fill="none" stroke="#000000" stroke-linecap="round" stroke-linejoin="round" x1="22.447" y1="1.5098" x2="18.6772" y2="1.5098"/>
	
		<line fill="none" stroke="#000000" stroke-linecap="round" stroke-linejoin="round" x1="22.447" y1="4.5098" x2="18.6772" y2="4.5098"/>
	
		<line fill="none" stroke="#000000" stroke-linecap="round" stroke-linejoin="round" x1="22.447" y1="7.5098" x2="18.6772" y2="7.5098"/>
	
		<line fill="none" stroke="#000000" stroke-linecap="round" stroke-linejoin="round" x1="22.447" y1="10.5098" x2="18.6772" y2="10.5098"/>
	
		<line fill="none" stroke="#000000" stroke-linecap="round" stroke-linejoin="round" x1="22.447" y1="13.5098" x2="18.6772" y2="13.5098"/>
	
		<line fill="none" stroke="#000000" stroke-linecap="round" stroke-linejoin="round" x1="22.4475" y1="16.5101" x2="1.5472" y2="16.5101"/>
	
		<line fill="none" stroke="#000000" stroke-linecap="round" stroke-linejoin="round" x1="22.4475" y1="19.5101" x2="1.5472" y2="19.5101"/>
	
		<line fill="none" stroke="#000000" stroke-linecap="round" stroke-linejoin="round" x1="22.4475" y1="22.5101" x2="1.5472" y2="22.5101"/>
	<path fill="none" stroke="#000000" stroke-linecap="round" stroke-linejoin="round" stroke-miterlimit="10" d="M15.8751,1.5007
		H2.1312c-0.2935,0-0.6283,0.2847-0.6283,0.5694v10.8616c0,0.284,0.3348,0.5691,0.6283,0.5691h13.7439
		c0.2933,0,0.6278-0.2851,0.6278-0.5691V2.0701C16.5028,1.7855,16.1684,1.5007,15.8751,1.5007z"/>
	
		<circle fill="none" stroke="#000000" stroke-linecap="round" stroke-linejoin="round" stroke-miterlimit="10" cx="5.1523" cy="5.3277" r="1.4046"/>
	<polyline fill="none" stroke="#000000" stroke-linecap="round" stroke-linejoin="round" stroke-miterlimit="10" points="
		5.2951,13.5008 9.023,7.2125 10.84,9.6645 13.1769,5.9894 16.5028,10.6847 	"/>
</g>
<rect x="0" y="0.0011" fill="none" width="24" height="24"/>
</svg>
