<?xml version="1.0" encoding="utf-8"?>
<!-- Generator: Adobe Illustrator 18.1.0, SVG Export Plug-In . SVG Version: 6.00 Build 0)  -->
<svg version="1.1" id="Layer_1" xmlns="http://www.w3.org/2000/svg" xmlns:xlink="http://www.w3.org/1999/xlink" x="0px" y="0px"
	 width="24px" height="24px" viewBox="0 0 24 24" enable-background="new 0 0 24 24" xml:space="preserve">
<g>
	<g>
		<polyline fill="none" stroke="#000000" stroke-linecap="round" stroke-linejoin="round" points="21.5096,9.7146 21.5096,23.5 
			2.5096,23.5 2.5096,9.7146 		"/>
		<polyline fill="none" stroke="#000000" stroke-linecap="round" stroke-linejoin="round" stroke-miterlimit="10" points="
			20.5096,8.7876 20.5096,2.5 15.5096,2.5 15.5096,4.538 		"/>
		<polyline fill="none" stroke="#000000" stroke-linecap="round" stroke-linejoin="round" points="0.5598,11.3654 12.0096,1.5322 
			23.4594,11.3654 		"/>
	</g>
	<path fill="none" stroke="#000000" stroke-linecap="round" stroke-linejoin="round" stroke-miterlimit="10" d="M15.7772,16.1457
		c0.0616-1.3615-1.6474-3.2361-0.1866-4.9407c0.0641-0.0741-0.0027-0.187-0.0959-0.1697c-1.2967,0.2161-1.9652,1.9694-2.146,2.6443
		c-0.5957-1.1343-0.6958-3.2482-0.6958-4.9623c0-0.0805-0.0885-0.13-0.1571-0.089c-2.265,1.36-1.5821,5.314-2.3495,6.4767
		c-0.0058,0.0021-0.0113,0.0047-0.0169,0.0069c-0.1016-0.3619-1.8037-3.2738-2.0771-3.0731
		c-0.0368,0.0272-0.0514,0.0755-0.0355,0.1188c0.7631,2.0971-1.2714,5.5515,1.675,6.8657
		C11.8937,20.2534,16.0379,19.368,15.7772,16.1457"/>
</g>
<rect x="0.0005" y="0" fill="none" width="24" height="24"/>
</svg>
