<?xml version="1.0" encoding="utf-8"?>
<!-- Generator: Adobe Illustrator 18.1.0, SVG Export Plug-In . SVG Version: 6.00 Build 0)  -->
<svg version="1.1" id="Layer_1" xmlns="http://www.w3.org/2000/svg" xmlns:xlink="http://www.w3.org/1999/xlink" x="0px" y="0px"
	 width="24px" height="24px" viewBox="0 0 24 24" enable-background="new 0 0 24 24" xml:space="preserve">
<g>
	<path fill="none" stroke="#000000" stroke-linecap="round" stroke-linejoin="round" stroke-miterlimit="10" d="M15.2905,20.5177
		h-1.0984c-0.3812,0-0.6902-0.3283-0.6902-0.7333v-1.5147c0-0.405,0.309-0.7333,0.6902-0.7333h3.6196
		c0.3812,0,0.6902,0.3283,0.6902,0.7333v1.5147c0,0.301-0.1707,0.5596-0.4148,0.6726"/>
	<path fill="none" stroke="#000000" stroke-linecap="round" stroke-linejoin="round" stroke-miterlimit="10" d="M19.9203,22.4958
		h-1.4186c-1.6841,0-3.0996-1.1528-3.4741-2.6982c-0.1007-0.4156,0.2282-0.8147,0.6626-0.8147h0.6593
		c0.2879,0,0.5541,0.1763,0.637,0.4475c0.1959,0.6406,0.801,1.1085,1.5152,1.1085h1.4188c0.8754,0,1.585-0.6981,1.585-1.5591V0.4801
		h1.9893v18.4995C23.4948,20.9215,21.8944,22.4958,19.9203,22.4958z"/>
	<path fill="none" stroke="#000000" stroke-linecap="round" stroke-linejoin="round" stroke-miterlimit="10" d="M14.775,6.2657
		c-2.0405,0.2602-8.4079,0.2602-10.4484,0c-2.0405-0.2602-1.971,3.7506-1.8106,4.6603c0.1542,0.8745,0.8161,1.4266,2.3513,1.8122
		c1.5812,0.3973,2.3555-0.8765,2.8896-1.8898s0.4245-2.3555,1.794-2.287c1.3695-0.0685,1.2599,1.2736,1.794,2.287
		c0.5341,1.0134,1.3084,2.2871,2.8896,1.8898c1.5351-0.3856,2.197-0.9377,2.3513-1.8122
		C16.7461,10.0164,16.8155,6.0055,14.775,6.2657z"/>
	<path fill="none" stroke="#000000" stroke-linecap="round" stroke-linejoin="round" stroke-miterlimit="10" d="M17.953,6.95
		c-0.3762-3.1241-8.4022-2.8951-8.4022-2.8951S1.5248,3.8258,1.1486,6.95c-0.3762,3.1241-0.7851,5.2832,0.4089,5.9048
		c1.194,0.6216,5.78,2.8624,7.9933,2.8624c2.2133,0,6.7993-2.2409,7.9933-2.8624C18.7381,12.2332,18.3292,10.0741,17.953,6.95z"/>
	
		<line fill="none" stroke="#000000" stroke-linecap="round" stroke-linejoin="round" x1="21.5055" y1="5.5354" x2="23.4948" y2="5.5354"/>
	
		<line fill="none" stroke="#000000" stroke-linecap="round" stroke-linejoin="round" stroke-miterlimit="10" x1="3.997" y1="9.5332" x2="5.683" y2="7.8471"/>
	
		<line fill="none" stroke="#000000" stroke-linecap="round" stroke-linejoin="round" stroke-miterlimit="10" x1="5.4727" y1="10.2077" x2="6.3318" y2="9.3486"/>
</g>
<rect x="0" y="0.0354" fill="none" width="24" height="24"/>
</svg>
