<?xml version="1.0" encoding="utf-8"?>
<!-- Generator: Adobe Illustrator 18.1.0, SVG Export Plug-In . SVG Version: 6.00 Build 0)  -->
<svg version="1.1" id="Layer_1" xmlns="http://www.w3.org/2000/svg" xmlns:xlink="http://www.w3.org/1999/xlink" x="0px" y="0px"
	 width="24px" height="24px" viewBox="0 0 24 24" enable-background="new 0 0 24 24" xml:space="preserve">
<g>
	<path fill="none" stroke="#000000" stroke-linecap="round" stroke-linejoin="round" stroke-miterlimit="10" d="M13.6529,9.5788
		c0.1276-3.8941-0.1776-3.673-0.2366-3.7249c-0.1567-0.0463-0.3211-0.0726-0.4935-0.0726l-1.365,1.4739l-1.365-1.4739
		c-0.1724,0-0.3367,0.0262-0.4935,0.0726c-0.059,0.052-0.3642-0.1692-0.2366,3.7249l0.4399,2.3288l-2.2351,5.6002h2.8771v5.8938"/>
	<path fill="none" stroke="#000000" stroke-linecap="round" stroke-linejoin="round" stroke-miterlimit="10" d="M16.2291,13.3561
		c0,0.6562-0.532,1.5725-1.1882,1.5725c-0.6562,0-1.1882-0.9163-1.1882-1.5725s0.532-1.1882,1.1882-1.1882
		C15.6972,12.1679,16.2291,12.6998,16.2291,13.3561z"/>
	<path fill="none" stroke="#000000" stroke-linecap="round" stroke-linejoin="round" stroke-miterlimit="10" d="M12.9229,2.3718
		c0,0.794-0.6111,1.9027-1.365,1.9027c-0.7539,0-1.365-1.1087-1.365-1.9027s0.6111-1.4376,1.365-1.4376
		C12.3117,0.9342,12.9229,1.5779,12.9229,2.3718z"/>
	<path fill="none" stroke="#000000" stroke-linecap="round" stroke-linejoin="round" stroke-miterlimit="10" d="M16.8865,19.1275
		c0,1.3356-0.8263,4.278-1.8455,4.278s-1.8455-2.9425-1.8455-4.278s0.8263-2.4183,1.8455-2.4183S16.8865,17.7919,16.8865,19.1275z"
		/>
</g>
<rect x="0.0142" y="0.0344" fill="none" width="24" height="24"/>
</svg>
