<?xml version="1.0" encoding="utf-8"?>
<!-- Generator: Adobe Illustrator 18.1.0, SVG Export Plug-In . SVG Version: 6.00 Build 0)  -->
<svg version="1.1" id="Layer_1" xmlns="http://www.w3.org/2000/svg" xmlns:xlink="http://www.w3.org/1999/xlink" x="0px" y="0px"
	 width="24px" height="24px" viewBox="0 0 24 24" enable-background="new 0 0 24 24" xml:space="preserve">
<g>
	<path fill="none" stroke="#000000" stroke-linecap="round" stroke-linejoin="round" stroke-miterlimit="10" d="M17.6649,18.7755
		l1.4747-1.4747c1.1278,0.5094,2.4997,0.3042,3.4266-0.6227c1.196-1.196,1.196-3.1354,0-4.3314
		c-1.1965-1.1967-3.1356-1.1965-4.3319-0.0002c-0.87,0.87-1.104,2.1322-0.7084,3.2163l-6.2204,6.2204l0.4515,1.0658l1.7668-0.0648
		l0.4016-1.5095l1.7267-0.337l0.3092-2.2033L17.6649,18.7755z"/>
	<path fill="none" stroke="#000000" stroke-linecap="round" stroke-linejoin="round" stroke-miterlimit="10" d="M15.2837,14.3608
		c-1.0191-0.5356-2.7272-1.7494-2.8516-2.1454v-0.9565c0.6371-0.6471,1.1396-1.5496,1.437-2.6063
		c0.7151-0.4985,0.8919-1.5254,0.3008-2.2474V4.2639c0-2.2105-1.2398-3.7236-4.0741-3.7236c-2.7611,0-4.0755,1.5132-4.0755,3.7236
		v2.142C5.4301,7.1272,5.6074,8.1534,6.321,8.6522c0.2974,1.057,0.8003,1.9595,1.4378,2.6067v0.9565
		c-0.2857,0.9107-3.696,2.3743-6.7673,3.5535c-0.2618,0.1009-0.435,0.3537-0.435,0.6363v2.3922c0,0.3757,0.3026,0.681,0.6757,0.681
		h9.2703"/>
	
		<line fill="none" stroke="#000000" stroke-linecap="round" stroke-linejoin="round" stroke-miterlimit="10" x1="20.8115" y1="14.1012" x2="20.8115" y2="14.1012"/>
</g>
<rect x="0.0005" y="0.0004" fill="none" width="24" height="24"/>
</svg>
