<?xml version="1.0" encoding="utf-8"?>
<!-- Generator: Adobe Illustrator 18.1.0, SVG Export Plug-In . SVG Version: 6.00 Build 0)  -->
<svg version="1.1" id="Layer_1" xmlns="http://www.w3.org/2000/svg" xmlns:xlink="http://www.w3.org/1999/xlink" x="0px" y="0px"
	 width="24px" height="24px" viewBox="0 0 24 24" enable-background="new 0 0 24 24" xml:space="preserve">
<g>
	<path fill="none" stroke="#000000" stroke-linecap="round" stroke-linejoin="round" d="M11.4778,0.4718h-8.936
		c-1.1176,0-2.0317,0.9146-2.0317,2.0313v18.9727c0,1.1173,0.9141,2.031,2.0317,2.031h8.936c1.1176,0,2.0317-0.9137,2.0317-2.031
		V2.5031C13.5095,1.3864,12.5954,0.4718,11.4778,0.4718z"/>
	<circle fill="none" stroke="#000000" stroke-linecap="round" stroke-linejoin="round" cx="7.0098" cy="21.0278" r="0.8533"/>
	<rect x="0.5187" y="3.498" fill="none" stroke="#000000" stroke-linecap="round" stroke-linejoin="round" width="13" height="15"/>
	<path fill="none" stroke="#000000" stroke-linecap="round" stroke-linejoin="round" stroke-miterlimit="10" d="M16.6267,15.4383
		c2.4802-2.1883,2.4764-5.8642,0-8.0491"/>
	<path fill="none" stroke="#000000" stroke-linecap="round" stroke-linejoin="round" stroke-miterlimit="10" d="M19.1299,17.3893
		c3.2586-3.2649,3.2618-8.6828,0-11.9509"/>
</g>
<rect x="0" y="-0.002" fill="none" width="24" height="24"/>
</svg>
