<?xml version="1.0" encoding="utf-8"?>
<!-- Generator: Adobe Illustrator 18.1.0, SVG Export Plug-In . SVG Version: 6.00 Build 0)  -->
<svg version="1.1" id="Layer_1" xmlns="http://www.w3.org/2000/svg" xmlns:xlink="http://www.w3.org/1999/xlink" x="0px" y="0px"
	 width="24px" height="24px" viewBox="0 0 24 24" enable-background="new 0 0 24 24" xml:space="preserve">
<g>
	<path fill="none" stroke="#000000" stroke-linecap="round" stroke-linejoin="round" d="M12,2.8034c0,0-2.1687-0.9688-4.1215,0.8216
		c0,0-2.1454-0.5223-3.8507,2.7519c0,0-2.1179,0.3862-2.3379,4.3194c0,0-1.5148,0.6059-0.7227,3.5108
		c0.0686,0.2515,0.2206,0.4738,0.4276,0.6323l3.5989,3.0881c0.2965,0.2271,0.4704,0.5792,0.4704,0.9527v1.4921
		c0,0.6564,0.5321,1.1885,1.1885,1.1885h3.1451"/>
	<line fill="none" stroke="#000000" stroke-linecap="round" stroke-linejoin="round" x1="12" y1="2.8034" x2="12" y2="12.8967"/>
	
		<line fill="none" stroke="#000000" stroke-linecap="round" stroke-linejoin="round" x1="7.8785" y1="3.625" x2="9.8688" y2="13.133"/>
	
		<line fill="none" stroke="#000000" stroke-linecap="round" stroke-linejoin="round" x1="4.0278" y1="6.3769" x2="7.6183" y2="14.0214"/>
	
		<line fill="none" stroke="#000000" stroke-linecap="round" stroke-linejoin="round" x1="1.6899" y1="10.6963" x2="5.9007" y2="15.7585"/>
	<path fill="none" stroke="#000000" stroke-linecap="round" stroke-linejoin="round" d="M12,2.8034c0,0,2.1687-0.9688,4.1215,0.8216
		c0,0,2.1454-0.5223,3.8507,2.7519c0,0,2.1179,0.3862,2.3379,4.3194c0,0,1.5148,0.6059,0.7227,3.5108
		c-0.0686,0.2515-0.2206,0.4738-0.4276,0.6323l-3.6765,3.0881c-0.2965,0.2271-0.4704,0.5792-0.4704,0.9527v1.4921
		c0,0.6564-0.5321,1.1885-1.1885,1.1885h-3.0675"/>
	
		<line fill="none" stroke="#000000" stroke-linecap="round" stroke-linejoin="round" x1="16.1215" y1="3.625" x2="14.1312" y2="13.133"/>
	
		<line fill="none" stroke="#000000" stroke-linecap="round" stroke-linejoin="round" x1="19.9722" y1="6.3769" x2="16.3817" y2="14.0214"/>
	
		<line fill="none" stroke="#000000" stroke-linecap="round" stroke-linejoin="round" x1="22.3101" y1="10.6963" x2="18.0993" y2="15.7585"/>
	<polyline fill="none" stroke="#000000" stroke-linecap="round" stroke-linejoin="round" points="8.2946,20.4532 12,23.1837 
		15.7054,20.4532 	"/>
</g>
<rect x="0" y="0.0197" fill="none" width="24" height="24"/>
</svg>
