<?xml version="1.0" encoding="utf-8"?>
<!-- Generator: Adobe Illustrator 18.1.0, SVG Export Plug-In . SVG Version: 6.00 Build 0)  -->
<svg version="1.1" id="Layer_1" xmlns="http://www.w3.org/2000/svg" xmlns:xlink="http://www.w3.org/1999/xlink" x="0px" y="0px"
	 width="24px" height="24px" viewBox="0 0 24 24" enable-background="new 0 0 24 24" xml:space="preserve">
<g>
	<path fill="none" stroke="#000000" stroke-linecap="round" stroke-linejoin="round" d="M20.6556,20.2287
		c0.5908-0.7094,1.0932-1.494,1.4975-2.3346c0.7104-1.4767,1.1116-3.13,1.1116-4.8784c0-1.3076-0.2339-2.5577-0.6431-3.7256
		c-1.5402-4.3952-5.7139-7.5526-10.6352-7.5526c-4.9296,0-9.1094,3.1679-10.6434,7.5747c-0.4043,1.1616-0.635,2.4043-0.635,3.7035
		c0,1.7381,0.3956,3.3827,1.0982,4.8529c0.4065,0.8505,0.9141,1.6435,1.511,2.3602"/>
	<path fill="none" stroke="#000000" stroke-linecap="round" stroke-linejoin="round" stroke-miterlimit="10" d="M16.4864,21.4922
		c0,0.5566-0.4513,1.0079-1.0079,1.0079H8.4943c-0.5567,0-1.0079-0.4512-1.0079-1.0079v-1.9842
		c0-0.5566,0.4513-1.0079,1.0079-1.0079h6.9841c0.5567,0,1.0079,0.4512,1.0079,1.0079V21.4922z"/>
	
		<line fill="none" stroke="#000000" stroke-linecap="round" stroke-linejoin="round" stroke-miterlimit="10" x1="23.2647" y1="12.9413" x2="20.3259" y2="12.9413"/>
	
		<line fill="none" stroke="#000000" stroke-linecap="round" stroke-linejoin="round" stroke-miterlimit="10" x1="3.7681" y1="12.9413" x2="0.708" y2="12.9413"/>
	
		<line fill="none" stroke="#000000" stroke-linecap="round" stroke-linejoin="round" stroke-miterlimit="10" x1="4.863" y1="17.054" x2="2.219" y2="18.5805"/>
	
		<line fill="none" stroke="#000000" stroke-linecap="round" stroke-linejoin="round" stroke-miterlimit="10" x1="17.5923" y1="3.2315" x2="16.1404" y2="5.7462"/>
	
		<line fill="none" stroke="#000000" stroke-linecap="round" stroke-linejoin="round" stroke-miterlimit="10" x1="11.9864" y1="1.7375" x2="11.9864" y2="4.664"/>
	
		<line fill="none" stroke="#000000" stroke-linecap="round" stroke-linejoin="round" stroke-miterlimit="10" x1="6.3805" y1="3.2315" x2="7.8625" y2="5.7986"/>
	
		<line fill="none" stroke="#000000" stroke-linecap="round" stroke-linejoin="round" stroke-miterlimit="10" x1="2.2597" y1="7.3256" x2="4.863" y2="8.8286"/>
	
		<line fill="none" stroke="#000000" stroke-linecap="round" stroke-linejoin="round" stroke-miterlimit="10" x1="19.2007" y1="17.1065" x2="21.7884" y2="18.5906"/>
	
		<line fill="none" stroke="#000000" stroke-linecap="round" stroke-linejoin="round" stroke-miterlimit="10" x1="11.9864" y1="13.4155" x2="11.9864" y2="13.4155"/>
	
		<circle fill="none" stroke="#000000" stroke-linecap="round" stroke-linejoin="round" stroke-miterlimit="10" cx="11.9864" cy="13.4155" r="1.8404"/>
	
		<line fill="none" stroke="#000000" stroke-linecap="round" stroke-linejoin="round" stroke-miterlimit="10" x1="13.5324" y1="12.4171" x2="20.0452" y2="8.2113"/>
</g>
<rect x="-0.0136" y="0" fill="none" width="24" height="24"/>
</svg>
