<?xml version="1.0" encoding="utf-8"?>
<!-- Generator: Adobe Illustrator 18.1.0, SVG Export Plug-In . SVG Version: 6.00 Build 0)  -->
<svg version="1.1" id="Layer_1" xmlns="http://www.w3.org/2000/svg" xmlns:xlink="http://www.w3.org/1999/xlink" x="0px" y="0px"
	 width="24px" height="24px" viewBox="0 0 24 24" enable-background="new 0 0 24 24" xml:space="preserve">
<g>
	<path fill="none" stroke="#000000" stroke-linecap="round" stroke-linejoin="round" d="M22.3505,10.5088
		c0-4.961-4.6381-8.9826-10.3595-8.9826S1.6316,5.5478,1.6316,10.5088H22.3505z"/>
	<path fill="none" stroke="#000000" stroke-linecap="round" stroke-linejoin="round" d="M22.3505,19.505H1.6316v0.328
		c0,1.4757,1.164,2.672,2.5999,2.672h15.5192c1.4359,0,2.5999-1.1963,2.5999-2.672V19.505z"/>
	<path fill="none" stroke="#000000" stroke-linecap="round" stroke-linejoin="round" d="M23.5143,17.4238
		c0-0.5074-0.4295-0.9188-0.9592-0.9188H1.4271c-0.5298,0-0.9592,0.4113-0.9592,0.9188v1.1625c0,0.5074,0.4295,0.9187,0.9592,0.9187
		h21.128c0.5298,0,0.9592-0.4113,0.9592-0.9187V17.4238z"/>
	<polyline fill="none" stroke="#000000" stroke-linecap="round" stroke-linejoin="round" points="22.9665,12.714 21.1627,14.432 
		19.3035,12.6614 17.4444,14.432 15.5851,12.6614 13.7814,14.3794 11.9221,12.6088 10.063,14.3794 8.2037,12.6088 8.1807,12.6387 
		6.377,14.3567 4.5177,12.5861 2.6586,14.3567 0.7993,12.5861 	"/>
	
		<line fill="none" stroke="#000000" stroke-linecap="round" stroke-linejoin="round" x1="9.4045" y1="4.5791" x2="9.6703" y2="4.5791"/>
	
		<line fill="none" stroke="#000000" stroke-linecap="round" stroke-linejoin="round" x1="12.376" y1="6.5165" x2="12.6418" y2="6.5165"/>
	
		<line fill="none" stroke="#000000" stroke-linecap="round" stroke-linejoin="round" x1="14.3677" y1="4.5791" x2="14.6335" y2="4.5791"/>
</g>
<rect x="0" y="0.0197" fill="none" width="24" height="24"/>
</svg>
