<?xml version="1.0" encoding="utf-8"?>
<!-- Generator: Adobe Illustrator 18.1.1, SVG Export Plug-In . SVG Version: 6.00 Build 0)  -->
<svg version="1.1" id="Layer_1" xmlns="http://www.w3.org/2000/svg" xmlns:xlink="http://www.w3.org/1999/xlink" x="0px" y="0px"
	 width="24px" height="24px" viewBox="0 0 24 24" enable-background="new 0 0 24 24" xml:space="preserve">
<rect fill="none" width="24" height="24"/>
<g>
	<polyline fill="none" stroke="#000000" stroke-linecap="round" stroke-linejoin="round" points="8.6707,1.6474 7.2681,4.5151 
		10.1828,5.8951 	"/>
	<path fill="none" stroke="#000000" stroke-linecap="round" stroke-linejoin="round" d="M17.1434,3.253
		c-3.2491-0.6122-6.7872-0.0634-9.8753,1.2621"/>
	<path fill="none" stroke="#000000" stroke-linecap="round" stroke-linejoin="round" d="M10.6218,13.7607l-1.0606-1.0606
		c-0.5858-0.5858-0.5858-1.5356,0-2.1214l0,0c0.5857-0.5857,1.5355-0.5857,2.1213,0l1.7677,1.7678"/>
	<path fill="none" stroke="#000000" stroke-linecap="round" stroke-linejoin="round" d="M15.9251,10.5787l-1.4142-1.4142
		c-0.5858-0.5858-1.5356-0.5858-2.1213,0c-0.5858,0.5858-0.5858,1.5356,0,2.1213l1.0606,1.0607"/>
	<path fill="none" stroke="#000000" stroke-linecap="round" stroke-linejoin="round" d="M11.3289,18.7105L2.4901,9.8716
		c-0.5858-0.5858-0.5858-1.5355,0-2.1213c0.5857-0.5858,1.5355-0.5858,2.1213,0l6.0104,6.0104"/>
	<path fill="none" stroke="#000000" stroke-linecap="round" stroke-linejoin="round" d="M15.9395,22.5381
		c-1.0578-0.4403-2.1347-0.3737-2.1347-0.3737c-3.4838-0.2653-8.4968-2.6441-8.4968-2.6441
		c-1.4858-0.663-0.5849-2.4744,0.5274-2.226l1.5684,0.3915l3.9251,1.0247"/>
	<path fill="none" stroke="#000000" stroke-linecap="round" stroke-linejoin="round" d="M21.9977,16.48
		c-0.4987-0.7079-1.2055-1.884-1.7153-3.4512c-0.7163-2.2023-2.4215-4.3186-2.4215-4.3186c-0.5857-0.5857-1.35-0.8386-1.9358-0.2528
		c-0.5858,0.5858-0.5858,1.5355,0,2.1213"/>
	
		<line fill="none" stroke="#000000" stroke-linecap="round" stroke-linejoin="round" x1="15.9251" y1="10.5787" x2="16.2786" y2="10.9323"/>
</g>
</svg>
