<?xml version="1.0" encoding="utf-8"?>
<!-- Generator: Adobe Illustrator 18.1.0, SVG Export Plug-In . SVG Version: 6.00 Build 0)  -->
<svg version="1.1" id="Layer_1" xmlns="http://www.w3.org/2000/svg" xmlns:xlink="http://www.w3.org/1999/xlink" x="0px" y="0px"
	 width="24px" height="24px" viewBox="0 0 24 24" enable-background="new 0 0 24 24" xml:space="preserve">
<g>
	
		<circle fill="none" stroke="#000000" stroke-linecap="round" stroke-linejoin="round" stroke-miterlimit="10" cx="18.4894" cy="18.4952" r="4.9934"/>
	
		<line fill="none" stroke="#000000" stroke-linecap="round" stroke-linejoin="round" stroke-miterlimit="10" x1="18.5486" y1="15.7974" x2="18.5486" y2="21.2987"/>
	
		<line fill="none" stroke="#000000" stroke-linecap="round" stroke-linejoin="round" stroke-miterlimit="10" x1="15.7979" y1="18.548" x2="21.2993" y2="18.548"/>
	<path fill="none" stroke="#000000" stroke-linecap="round" stroke-linejoin="round" stroke-miterlimit="10" d="M13.6159,13.1981
		c-1.0191-0.5356-1.0546-0.5867-1.179-0.9828v-0.9565c0.6371-0.6471,1.1397-1.5496,1.437-2.6063
		c0.7151-0.4985,0.8919-1.5254,0.3008-2.2474V4.2639c0-2.2105-1.2398-3.7236-4.0741-3.7236c-2.7611,0-4.0755,1.5132-4.0755,3.7236
		v2.142C5.4349,7.1272,5.6122,8.1534,6.3258,8.6522c0.2974,1.057,0.8003,1.9595,1.4378,2.6067v0.9565
		c-0.2857,0.9107-3.696,2.3743-6.7673,3.5535c-0.2618,0.1009-0.435,0.3537-0.435,0.6363v2.3922c0,0.3757,0.3026,0.681,0.6757,0.681
		h10.258"/>
</g>
<rect x="0.0005" y="0.0004" fill="none" width="24" height="24"/>
</svg>
