<?xml version="1.0" encoding="utf-8"?>
<!-- Generator: Adobe Illustrator 18.1.0, SVG Export Plug-In . SVG Version: 6.00 Build 0)  -->
<svg version="1.1" id="Layer_1" xmlns="http://www.w3.org/2000/svg" xmlns:xlink="http://www.w3.org/1999/xlink" x="0px" y="0px"
	 width="24px" height="24px" viewBox="0 0 24 24" enable-background="new 0 0 24 24" xml:space="preserve">
<g>
	<path fill="none" stroke="#000000" stroke-linecap="round" stroke-linejoin="round" stroke-miterlimit="10" d="M1.4879,5.8765
		c0,1.6578,1.3434,3.7207,3.0011,3.7207s3.0013-2.0629,3.0013-3.7207c0-1.6573-1.3436-4.8261-3.0013-4.8261
		S1.4879,4.2192,1.4879,5.8765"/>
	<path fill="none" stroke="#000000" stroke-linecap="round" stroke-linejoin="round" stroke-miterlimit="10" d="M18.5621,10.8917
		c0,1.2341,0.687,1.7307,1.5354,1.7307c0.8481,0,1.5355,0.0357,1.5355-1.1988l-0.7662-8.8913
		c-0.0943-1.3304-0.5001-1.9389-1.3482-1.9389C18.2984,0.5934,18.5621,1.9285,18.5621,10.8917z"/>
	
		<line fill="none" stroke="#000000" stroke-linecap="round" stroke-linejoin="round" stroke-miterlimit="10" x1="18.5621" y1="2.3831" x2="18.5621" y2="23.4693"/>
	
		<line fill="none" stroke="#000000" stroke-linecap="round" stroke-linejoin="round" stroke-miterlimit="10" x1="4.489" y1="9.5972" x2="4.4891" y2="23.4693"/>
	
		<line fill="none" stroke="#000000" stroke-linecap="round" stroke-linejoin="round" stroke-miterlimit="10" x1="12.5615" y1="8.9948" x2="12.5615" y2="23.4776"/>
	
		<line fill="none" stroke="#000000" stroke-linecap="round" stroke-linejoin="round" stroke-miterlimit="10" x1="12.5615" y1="1.0504" x2="12.5615" y2="5.5229"/>
	
		<line fill="none" stroke="#000000" stroke-linecap="round" stroke-linejoin="round" stroke-miterlimit="10" x1="14.8123" y1="1.0504" x2="14.8123" y2="5.5967"/>
	
		<line fill="none" stroke="#000000" stroke-linecap="round" stroke-linejoin="round" stroke-miterlimit="10" x1="10.3108" y1="1.0504" x2="10.3108" y2="5.5967"/>
	<path fill="none" stroke="#000000" stroke-linecap="round" stroke-linejoin="round" stroke-miterlimit="10" d="M12.6477,8.9948
		h-0.1724c-1.1954,0-2.1645-0.9691-2.1645-2.1645V5.5229h4.5015v1.3073C14.8123,8.0257,13.8432,8.9948,12.6477,8.9948z"/>
</g>
<rect x="0.0142" y="0.0346" fill="none" width="24" height="24"/>
</svg>
