<?xml version="1.0" encoding="utf-8"?>
<!-- Generator: Adobe Illustrator 18.1.0, SVG Export Plug-In . SVG Version: 6.00 Build 0)  -->
<svg version="1.1" id="Layer_1" xmlns="http://www.w3.org/2000/svg" xmlns:xlink="http://www.w3.org/1999/xlink" x="0px" y="0px"
	 width="24px" height="24px" viewBox="0 0 24 24" enable-background="new 0 0 24 24" xml:space="preserve">
<g>
	
		<ellipse fill="none" stroke="#000000" stroke-linecap="round" stroke-linejoin="round" stroke-miterlimit="10" cx="18.3402" cy="5.5303" rx="2.8007" ry="2.829"/>
	<path fill="none" stroke="#000000" stroke-linecap="round" stroke-linejoin="round" stroke-miterlimit="10" d="M5.6026,0.501
		h12.7376c2.7414,0,4.9638,2.2309,4.9638,5c0,2.7691-2.2224,5-4.9638,5H5.6026c-2.7414,0-4.9638-2.2309-4.9638-5
		C0.6388,2.7319,2.8612,0.501,5.6026,0.501z"/>
	
		<ellipse fill="none" stroke="#000000" stroke-linecap="round" stroke-linejoin="round" stroke-miterlimit="10" cx="5.6026" cy="18.4726" rx="2.8007" ry="2.829"/>
	<path fill="none" stroke="#000000" stroke-linecap="round" stroke-linejoin="round" stroke-miterlimit="10" d="M18.3402,23.5018
		H5.6026c-2.7414,0-4.9638-2.2309-4.9638-5c0-2.7691,2.2224-5,4.9638-5h12.7376c2.7414,0,4.9638,2.2309,4.9638,5
		C23.3039,21.2709,21.0816,23.5018,18.3402,23.5018z"/>
</g>
<rect x="-0.006" y="0.001" fill="none" width="24" height="24"/>
</svg>
