<?xml version="1.0" encoding="utf-8"?>
<!-- Generator: Adobe Illustrator 18.1.1, SVG Export Plug-In . SVG Version: 6.00 Build 0)  -->
<svg version="1.1" id="Layer_1" xmlns="http://www.w3.org/2000/svg" xmlns:xlink="http://www.w3.org/1999/xlink" x="0px" y="0px"
	 width="24px" height="24px" viewBox="0 0 24 24" enable-background="new 0 0 24 24" xml:space="preserve">
<rect fill="none" width="24" height="24"/>
<g>
	<line fill="none" stroke="#000000" stroke-linecap="round" stroke-linejoin="round" x1="8.5" y1="4.5149" x2="8.5" y2="0.5149"/>
	<polyline fill="none" stroke="#000000" stroke-linecap="round" stroke-linejoin="round" points="9.6987,3.3648 8.5,4.5149 
		7.3013,3.3648 	"/>
	<line fill="none" stroke="#000000" stroke-linecap="round" stroke-linejoin="round" x1="12.5" y1="3.4729" x2="12.5" y2="0.5588"/>
	<polyline fill="none" stroke="#000000" stroke-linecap="round" stroke-linejoin="round" points="13.6987,2.4334 12.5,3.5588 
		11.3013,2.4334 	"/>
	<line fill="none" stroke="#000000" stroke-linecap="round" stroke-linejoin="round" x1="16.5" y1="5.4983" x2="16.5" y2="1.4983"/>
	<polyline fill="none" stroke="#000000" stroke-linecap="round" stroke-linejoin="round" points="17.6987,4.3482 16.5,5.4983 
		15.3013,4.3482 	"/>
	<path fill="none" stroke="#000000" stroke-linecap="round" stroke-linejoin="round" d="M10.5,14.4999v-7.5
		c0-0.8284,0.6716-1.5,1.5-1.5l0,0c0.8284,0,1.5,0.6716,1.5,1.5v8.5"/>
	<path fill="none" stroke="#000000" stroke-linecap="round" stroke-linejoin="round" d="M16.5,15.9999v-7
		c0-0.8284-0.6716-1.5-1.5-1.5c-0.8284,0-1.5,0.6716-1.5,1.5v6.5"/>
	<path fill="none" stroke="#000000" stroke-linecap="round" stroke-linejoin="round" d="M7.5,18.4999v-10.5
		c0-0.8284,0.6716-1.5,1.5-1.5c0.8284,0,1.5,0.6716,1.5,1.5v6.5"/>
	
		<line fill="none" stroke="#000000" stroke-linecap="round" stroke-linejoin="round" x1="16.5" y1="15.9999" x2="16.5" y2="16.4999"/>
	<path fill="none" stroke="#000000" stroke-linecap="round" stroke-linejoin="round" d="M7.4861,23.4667
		c-0.3505-0.483-0.6777-0.7737-0.6777-0.7737c-2.2758-2.6511-2.1385-6.8779-2.1385-6.8779c0.0344-1.6553,1.4734-1.9143,1.947-1.2011
		l0.6044,1.0066c0.1492,0.2485,0.2308,0.5318,0.2368,0.8216L7.5,18.4999"/>
	<path fill="none" stroke="#000000" stroke-linecap="round" stroke-linejoin="round" d="M16.8461,23.4667
		c0.1972-0.7589,0.5009-1.6679,1.0025-2.6532c1.0508-2.0638,1.3415-4.766,1.3415-4.766c0-0.8284-0.3617-1.5476-1.1901-1.5476
		c-0.8284,0-1.5,0.6716-1.5,1.5"/>
</g>
</svg>
