<?xml version="1.0" encoding="utf-8"?>
<!-- Generator: Adobe Illustrator 18.1.0, SVG Export Plug-In . SVG Version: 6.00 Build 0)  -->
<svg version="1.1" id="Layer_1" xmlns="http://www.w3.org/2000/svg" xmlns:xlink="http://www.w3.org/1999/xlink" x="0px" y="0px"
	 width="24px" height="24px" viewBox="0 0 24 24" enable-background="new 0 0 24 24" xml:space="preserve">
<g>
	<path fill="none" stroke="#000000" stroke-linecap="round" stroke-linejoin="round" stroke-miterlimit="10" d="M11.9994,0.6881
		c-6.2489,0-11.3314,5.0826-11.3314,11.3314c0,6.248,5.0826,11.3315,11.3314,11.3315c6.248,0,11.3315-5.0835,11.3315-11.3315
		C23.3309,5.7706,18.2474,0.6881,11.9994,0.6881z"/>
	<path fill="none" stroke="#000000" stroke-linecap="round" stroke-linejoin="round" stroke-miterlimit="10" d="M19.9327,20.0985
		c-2.7093-0.8657-5.4553-0.8837-5.7054-1.6854v-1.3169c2.9243-0.008,4.0847-0.9532,4.0847-0.9532
		c-1.2203-0.6933-1.6072-5.5367-1.6072-5.5367c0-2.5211-1.8841-4.9489-4.7053-4.9489c-2.6787,0-4.7054,2.2938-4.7054,4.9489
		c0,0-0.3869,4.8434-1.6072,5.5367c0,0,1.1603,0.9451,4.0846,0.9532v1.3169c-0.2495,0.8008-2.9967,0.8189-5.7064,1.6855"/>
</g>
<rect x="0.0005" y="0.0004" fill="none" width="24" height="24"/>
</svg>
