<?xml version="1.0" encoding="utf-8"?>
<!-- Generator: Adobe Illustrator 18.1.0, SVG Export Plug-In . SVG Version: 6.00 Build 0)  -->
<svg version="1.1" id="Layer_1" xmlns="http://www.w3.org/2000/svg" xmlns:xlink="http://www.w3.org/1999/xlink" x="0px" y="0px"
	 width="24px" height="24px" viewBox="0 0 24 24" enable-background="new 0 0 24 24" xml:space="preserve">
<g>
	<path fill="none" stroke="#000000" stroke-linecap="round" stroke-linejoin="round" stroke-miterlimit="10" d="M18.9733,7.1258
		c-0.0084-0.2531-0.2675-0.7309-0.4443-0.9041c-0.1771-0.1736-0.3859-0.3782-0.3922-0.5469
		c-0.0058-0.1682-0.098-0.5148-0.5106-0.5003c-0.4118,0.0149-0.3958-0.3877-0.5524-0.5415c-0.1563-0.1525-0.3428-0.58-0.6589-0.4209
		c-0.3169,0.1596-0.3962-0.3881-0.6815-0.4832c-0.2853-0.0955-0.5328-0.2776-0.9281-0.073
		c-0.3953,0.2043-0.3855-0.3779-0.5208-0.5101c-0.1362-0.1329-0.5297-0.1718-0.7229,0.0463
		c-0.1941,0.2188-0.6036,0.0212-0.7915-0.1622c-0.1874-0.1837-0.6993-0.1331-0.8436,0.0298
		c-0.1456,0.1638-0.7149,0.2791-0.9967,0.2894c-0.2813,0.0104-0.8195,0.156-0.8137,0.304c0.0049,0.1471-0.8213,0.6844-1.2985,0.8502
		c-0.4772,0.1638-0.5031,0.5673-0.4933,0.842c0.0089,0.2753-0.2884,0.677-0.6076,1.0372c-0.3187,0.3603-0.1046,0.448-0.1727,0.8097
		C7.4765,7.5545,7.558,7.573,7.4329,8.0215C7.3078,8.4704,7.736,9.196,7.736,9.196S8.3677,9.4059,8.382,9.8287
		c0.0151,0.4222,0.5707,0.1914,0.7924,0.1843c0.2208-0.0087,0.6482,0.1249,1.1071,0.5733c0.4581,0.4498,0.5106,0.2141,0.9241-0.0327
		c0.4136-0.2472,0.5427-0.0196,0.8142,0.2462c0.2702,0.2653,0.6312,0.2103,0.844-0.0296c0.2128-0.2408,0.9197-0.1811,1.2812-0.1936
		c0.3623-0.0122,0.2297,0.2239,0.0641,0.6753c-0.1652,0.4491,0.389,0.1656,0.5591,0.1589c0.1709-0.006,0.1878,0.1845,0.4541,0.6085
		c0.2671,0.4247,0.6303,0.4538,0.9117,0.7294c0.2813,0.2757,0.56-0.3904,0.8792-0.7505c0.3192-0.3606,0.7674-0.503,1.2593-0.5204
		c0.4932-0.0178,0.3-0.339,0.2911-0.6132c-0.0098-0.2755-0.0209-0.5707,0.1914-0.8106c0.2136-0.2408,0.4211-0.4752,0.2079-0.6848
		c-0.2141-0.2092-0.0165-0.4551,0.1678-0.6619c0.1834-0.2072,0.0984-0.617-0.1309-0.8415
		C18.7707,7.6418,18.9822,7.3796,18.9733,7.1258z"/>
	<path fill="none" stroke="#000000" stroke-linecap="round" stroke-linejoin="round" d="M20.2261,12.7656
		c1.3888-2.3914,1.6021-2.7595,1.0516-6.5713c-0.975-6.7422-16.008-8.1348-16.7599,1.1675c-0.095,0.871-0.5596,3.3479-1.5504,4.3383
		c-0.3292,0.33-0.6122,0.6878-0.4548,1.0747c0.2462,0.6028,0.9868,0.3226,1.5891,0.4531c-0.0343,0.3159-0.2341,1.2265-0.2341,1.3112
		c0,0.3145,0.1917,0.5231,0.5707,0.6212c-0.2407,0.3869-0.3967,0.6514-0.0309,1.0184c0.1399,0.1402,0.204,0.2037,0.204,1.097
		c0,1.2536,1.2078,1.8315,2.2249,1.6693c1.6937-0.2573,1.5153-0.0462,2.2144,0.7156c1.2081,1.3213,0.4768,2.4459,0.8948,3.5125
		l0.0529,0.138l8.1254-2.4053C17.6109,16.8835,19.5064,14.0054,20.2261,12.7656z"/>
</g>
<rect x="0.0142" y="-0.003" fill="none" width="24" height="24"/>
</svg>
