<?xml version="1.0" encoding="utf-8"?>
<!-- Generator: Adobe Illustrator 18.1.0, SVG Export Plug-In . SVG Version: 6.00 Build 0)  -->
<svg version="1.1" id="Layer_1" xmlns="http://www.w3.org/2000/svg" xmlns:xlink="http://www.w3.org/1999/xlink" x="0px" y="0px"
	 width="24px" height="24px" viewBox="0 0 24 24" enable-background="new 0 0 24 24" xml:space="preserve">
<g>
	<path fill="none" stroke="#000000" stroke-linecap="round" stroke-linejoin="round" stroke-miterlimit="10" d="M1.5436,14.5
		C0.9987,14.5,0.5,14.9998,0.5,15.5722v4.941C0.5,21.086,0.9987,21.5,1.5436,21.5H22.528c0.5458,0,0.972-0.414,0.972-0.9869v-4.941
		c0-0.5724-0.4263-1.0722-0.972-1.0722H1.5436z"/>
	
		<circle fill="none" stroke="#000000" stroke-linecap="round" stroke-linejoin="round" stroke-miterlimit="10" cx="19.0204" cy="18.0204" r="0.8293"/>
	<path fill="none" stroke="#000000" stroke-linecap="round" stroke-linejoin="round" stroke-miterlimit="10" d="M9.8473,10.6644
		c2.2298-2.0879,2.2263-5.5951,0-7.6797"/>
	<path fill="none" stroke="#000000" stroke-linecap="round" stroke-linejoin="round" stroke-miterlimit="10" d="M12,12.5258
		c3.2546-3.1151,3.2579-8.2844,0-11.4026"/>
	<path fill="none" stroke="#000000" stroke-linecap="round" stroke-linejoin="round" stroke-miterlimit="10" d="M7.6568,4.8461
		c1.2001,1.0519,1.1994,2.9056,0,3.9569"/>
	
		<line fill="none" stroke="#000000" stroke-linecap="round" stroke-linejoin="round" stroke-miterlimit="10" x1="4.5" y1="14.5" x2="4.5" y2="7"/>
</g>
<rect x="0" y="0" fill="none" width="24" height="24"/>
</svg>
