<?xml version="1.0" encoding="utf-8"?>
<!-- Generator: Adobe Illustrator 18.1.0, SVG Export Plug-In . SVG Version: 6.00 Build 0)  -->
<svg version="1.1" id="Layer_1" xmlns="http://www.w3.org/2000/svg" xmlns:xlink="http://www.w3.org/1999/xlink" x="0px" y="0px"
	 width="24px" height="24px" viewBox="0 0 24 24" enable-background="new 0 0 24 24" xml:space="preserve">
<g>
	<path fill="none" stroke="#000000" stroke-linecap="round" stroke-linejoin="round" stroke-miterlimit="10" d="M23.4894,2.868
		c0-1.3062-1.059-2.365-2.3652-2.365H2.8546c-1.3063,0-2.3652,1.0589-2.3652,2.365v18.27c0,1.3062,1.059,2.365,2.3652,2.365h18.2695
		c1.3063,0,2.3652-1.0589,2.3652-2.365V2.868z"/>
	
		<circle fill="none" stroke="#000000" stroke-linecap="round" stroke-linejoin="round" stroke-miterlimit="10" cx="6.3657" cy="12.7202" r="1.2933"/>
	
		<circle fill="none" stroke="#000000" stroke-linecap="round" stroke-linejoin="round" stroke-miterlimit="10" cx="12.0248" cy="17.4626" r="1.2933"/>
	
		<circle fill="none" stroke="#000000" stroke-linecap="round" stroke-linejoin="round" stroke-miterlimit="10" cx="17.684" cy="7.9681" r="1.2933"/>
	
		<line fill="none" stroke="#000000" stroke-linecap="round" stroke-linejoin="round" stroke-miterlimit="10" x1="18.6719" y1="8.7977" x2="23.4894" y2="12.8804"/>
	
		<line fill="none" stroke="#000000" stroke-linecap="round" stroke-linejoin="round" stroke-miterlimit="10" x1="12.6859" y1="16.3535" x2="17.0237" y2="9.0758"/>
	
		<line fill="none" stroke="#000000" stroke-linecap="round" stroke-linejoin="round" stroke-miterlimit="10" x1="7.3553" y1="13.5495" x2="11.0363" y2="16.6342"/>
	
		<line fill="none" stroke="#000000" stroke-linecap="round" stroke-linejoin="round" stroke-miterlimit="10" x1="0.4894" y1="17.6257" x2="5.3747" y2="13.5495"/>
</g>
<rect x="-0.0136" fill="none" width="24" height="24"/>
</svg>
