<?xml version="1.0" encoding="utf-8"?>
<!-- Generator: Adobe Illustrator 18.1.0, SVG Export Plug-In . SVG Version: 6.00 Build 0)  -->
<svg version="1.1" id="Layer_1" xmlns="http://www.w3.org/2000/svg" xmlns:xlink="http://www.w3.org/1999/xlink" x="0px" y="0px"
	 width="24px" height="24px" viewBox="0 0 24 24" enable-background="new 0 0 24 24" xml:space="preserve">
<g>
	
		<circle fill="none" stroke="#000000" stroke-linecap="round" stroke-linejoin="round" stroke-miterlimit="10" cx="3.7313" cy="20.3315" r="2.8749"/>
	
		<line fill="none" stroke="#000000" stroke-linecap="round" stroke-linejoin="round" stroke-miterlimit="10" x1="0.9725" y1="1.252" x2="5.0382" y2="5.3177"/>
	
		<line fill="none" stroke="#000000" stroke-linecap="round" stroke-linejoin="round" stroke-miterlimit="10" x1="0.9725" y1="5.3177" x2="5.0382" y2="1.252"/>
	<polyline fill="none" stroke="#000000" stroke-linecap="round" stroke-linejoin="round" stroke-miterlimit="10" points="
		16.9863,2.5001 20.4863,2.5001 20.4863,6.0001 	"/>
	
		<line fill="none" stroke="#000000" stroke-linecap="round" stroke-linejoin="round" stroke-miterlimit="10" x1="4.5734" y1="9.9579" x2="8.639" y2="14.0235"/>
	
		<line fill="none" stroke="#000000" stroke-linecap="round" stroke-linejoin="round" stroke-miterlimit="10" x1="4.5734" y1="14.0235" x2="8.639" y2="9.9579"/>
	
		<line fill="none" stroke="#000000" stroke-linecap="round" stroke-linejoin="round" stroke-miterlimit="10" x1="19.0506" y1="7.925" x2="23.1162" y2="11.9907"/>
	
		<line fill="none" stroke="#000000" stroke-linecap="round" stroke-linejoin="round" stroke-miterlimit="10" x1="19.0506" y1="11.9907" x2="23.1162" y2="7.925"/>
	
		<line fill="none" stroke="#000000" stroke-linecap="round" stroke-linejoin="round" stroke-miterlimit="10" x1="17.5658" y1="18.6264" x2="21.6314" y2="22.6921"/>
	
		<line fill="none" stroke="#000000" stroke-linecap="round" stroke-linejoin="round" stroke-miterlimit="10" x1="17.5658" y1="22.6921" x2="21.6314" y2="18.6264"/>
	<path fill="none" stroke="#000000" stroke-linecap="round" stroke-linejoin="round" stroke-miterlimit="10" d="M20.4863,2.5001
		l-4.8739,4.2554C14.1602,8.1416,13.4,9.3661,13.4,11.0791v3.3397c0,2.4296-1.6664,4.7518-4.441,5.2342l-2.3527,0.409"/>
</g>
<rect x="-0.0137" y="0.0001" fill="none" width="24" height="24"/>
</svg>
