<?xml version="1.0" encoding="utf-8"?>
<!-- Generator: Adobe Illustrator 18.1.0, SVG Export Plug-In . SVG Version: 6.00 Build 0)  -->
<svg version="1.1" id="Layer_1" xmlns="http://www.w3.org/2000/svg" xmlns:xlink="http://www.w3.org/1999/xlink" x="0px" y="0px"
	 width="24px" height="24px" viewBox="0 0 24 24" enable-background="new 0 0 24 24" xml:space="preserve">
<g>
	
		<line fill="none" stroke="#000000" stroke-linecap="round" stroke-linejoin="round" stroke-miterlimit="10" x1="4.5251" y1="23.3977" x2="4.5254" y2="15.3905"/>
	<path fill="none" stroke="#000000" stroke-linecap="round" stroke-linejoin="round" stroke-miterlimit="10" d="M5.8564,3.6517
		c0,0.7351-0.5959,1.7616-1.331,1.7616s-1.331-1.0265-1.331-1.7616s0.5959-1.331,1.331-1.331S5.8564,2.9166,5.8564,3.6517z"/>
	<path fill="none" stroke="#000000" stroke-linecap="round" stroke-linejoin="round" stroke-miterlimit="10" d="M2.8028,23.3977
		l-0.526-9.468c-0.0077-0.1913-0.622,0.0577-0.6288-0.1237c-0.2502-6.6965,0.3066-7.1224,0.3695-7.175
		C2.0915,6.6102,2.699,6.5938,2.8809,6.5823C3.1267,6.5669,3.3386,6.717,3.4514,6.9359c0.4002,0.7763,1.7478,0.7763,2.148,0
		C5.7123,6.717,5.9242,6.5669,6.17,6.5823c0.1818,0.0114,0.7893,0.0279,0.8634,0.0486c0.0629,0.0526,0.6197,0.4785,0.3695,7.175
		c-0.0068,0.1814-0.6211-0.0677-0.6288,0.1237l-0.5265,9.468"/>
	<polygon fill="none" stroke="#000000" stroke-linecap="round" stroke-linejoin="round" stroke-miterlimit="10" points="
		17.5013,9.4665 14.5438,9.4665 14.5438,11.929 15.1546,11.929 15.6443,12.4178 16.4007,12.4178 16.8906,11.929 17.5013,11.929 	"/>
	<path fill="none" stroke="#000000" stroke-linecap="round" stroke-linejoin="round" stroke-miterlimit="10" d="M19.3775,4.4525
		c0-1.8231-1.5021-3.301-3.3551-3.301c-1.8529,0-3.3549,1.4779-3.3549,3.301c0,0.9738,0.4302,2.0471,1.1117,2.8381l-0.002,0.0023
		c0,0,0.9792,1.2638,0.9792,2.1736h2.5324V9.4548l0.0122,0.0117c0-0.9097,0.9684-2.1803,0.9684-2.1803
		C18.949,6.4958,19.3775,5.4245,19.3775,4.4525z"/>
	
		<line fill="none" stroke="#000000" stroke-linecap="round" stroke-linejoin="round" stroke-miterlimit="10" x1="16.0225" y1="9.4665" x2="16.0225" y2="6.2822"/>
	
		<line fill="none" stroke="#000000" stroke-linecap="round" stroke-linejoin="round" stroke-miterlimit="10" x1="10.6995" y1="4.4823" x2="9.3105" y2="4.4823"/>
	
		<line fill="none" stroke="#000000" stroke-linecap="round" stroke-linejoin="round" stroke-miterlimit="10" x1="11.2606" y1="2.4066" x2="10.1383" y2="1.3289"/>
	
		<line fill="none" stroke="#000000" stroke-linecap="round" stroke-linejoin="round" stroke-miterlimit="10" x1="10.1383" y1="7.6353" x2="11.2606" y2="6.5576"/>
	
		<line fill="none" stroke="#000000" stroke-linecap="round" stroke-linejoin="round" stroke-miterlimit="10" x1="21.3776" y1="4.4823" x2="22.7666" y2="4.4823"/>
	
		<line fill="none" stroke="#000000" stroke-linecap="round" stroke-linejoin="round" stroke-miterlimit="10" x1="20.8165" y1="2.4066" x2="21.9388" y2="1.3289"/>
	
		<line fill="none" stroke="#000000" stroke-linecap="round" stroke-linejoin="round" stroke-miterlimit="10" x1="21.9388" y1="7.6353" x2="20.8165" y2="6.5576"/>
	<polyline fill="none" stroke="#000000" stroke-linecap="round" stroke-linejoin="round" stroke-miterlimit="10" points="
		14.9037,4.3916 15.6355,4.662 16.0904,4.3916 16.5245,4.6496 17.277,4.3916 	"/>
</g>
<rect x="0" y="0" fill="none" width="24" height="24"/>
</svg>
