<?xml version="1.0" encoding="utf-8"?>
<!-- Generator: Adobe Illustrator 18.1.0, SVG Export Plug-In . SVG Version: 6.00 Build 0)  -->
<svg version="1.1" id="Layer_1" xmlns="http://www.w3.org/2000/svg" xmlns:xlink="http://www.w3.org/1999/xlink" x="0px" y="0px"
	 width="24px" height="24px" viewBox="0 0 24 24" enable-background="new 0 0 24 24" xml:space="preserve">
<g>
	<path fill="none" stroke="#000000" stroke-linecap="round" stroke-linejoin="round" d="M13.1669,20.0044
		c0.6786,1.4695,1.8431,2.541,3.3179,2.8527c2.8738,0.6074,5.8375-1.9002,6.6197-5.6008s-0.9134-7.193-3.7872-7.8004
		c-0.7626-0.1612-1.5315-0.103-2.2642,0.1386"/>
	<path fill="none" stroke="#000000" stroke-linecap="round" stroke-linejoin="round" d="M19.2416,9.4419l-0.8613,1.284
		c-1.0486,1.5633-1.4529,4.29-0.903,6.0903l0,0c0.5499,1.8003,0.1518,4.4979-0.8968,6.0612"/>
	
		<ellipse fill="none" stroke="#000000" stroke-linecap="round" stroke-linejoin="round" cx="8.1572" cy="10.5977" rx="7.359" ry="9.4764"/>
	<path fill="none" stroke="#000000" stroke-linecap="round" stroke-linejoin="round" d="M8.2635,1.124l0.7986,1.9847
		c0.9723,2.4164,0.7394,6.2234-0.5202,8.5032l0,0c-1.2596,2.2798-1.4925,6.0457-0.5202,8.4621"/>
</g>
<rect x="0.0142" y="0.0346" fill="none" width="24" height="24"/>
</svg>
