<?xml version="1.0" encoding="utf-8"?>
<!-- Generator: Adobe Illustrator 18.1.0, SVG Export Plug-In . SVG Version: 6.00 Build 0)  -->
<svg version="1.1" id="Layer_1" xmlns="http://www.w3.org/2000/svg" xmlns:xlink="http://www.w3.org/1999/xlink" x="0px" y="0px"
	 width="24px" height="24px" viewBox="0 0 24 24" enable-background="new 0 0 24 24" xml:space="preserve">
<g>
	<path fill="none" stroke="#000000" stroke-linecap="round" stroke-linejoin="round" d="M6.5774,14.7626L5.9796,1.1354
		c-0.0147-0.3358,0.2536-0.6,0.5898-0.6h10.957c0.3362,0,0.6045,0.2641,0.5898,0.6l-0.5978,13.6354"/>
	<polyline fill="none" stroke="#000000" stroke-linecap="round" stroke-linejoin="round" points="17.6602,11.5354 21.5142,11.5354 
		21.5142,10.0354 	"/>
	<polyline fill="none" stroke="#000000" stroke-linecap="round" stroke-linejoin="round" points="6.4359,11.5354 2.5142,11.5354 
		2.5142,10.0354 	"/>
	<path fill="none" stroke="#000000" stroke-linecap="round" stroke-linejoin="round" d="M2.5184,15.5482
		c2.6725,1.1832,5.9653,1.8832,9.5295,1.8832c3.5641,0,6.8569-0.7,9.5295-1.8832"/>
	
		<line fill="none" stroke="#000000" stroke-linecap="round" stroke-linejoin="round" x1="12.0479" y1="17.4314" x2="12.0479" y2="23.4363"/>
	
		<line fill="none" stroke="#000000" stroke-linecap="round" stroke-linejoin="round" x1="12.0479" y1="20.6691" x2="6.7731" y2="23.4363"/>
	
		<line fill="none" stroke="#000000" stroke-linecap="round" stroke-linejoin="round" x1="17.3227" y1="23.4363" x2="12.0479" y2="20.6691"/>
</g>
<rect x="0.0142" y="0.0354" fill="none" width="24" height="24"/>
</svg>
