<?xml version="1.0" encoding="utf-8"?>
<!-- Generator: Adobe Illustrator 18.1.0, SVG Export Plug-In . SVG Version: 6.00 Build 0)  -->
<svg version="1.1" id="Layer_1" xmlns="http://www.w3.org/2000/svg" xmlns:xlink="http://www.w3.org/1999/xlink" x="0px" y="0px"
	 width="24px" height="24px" viewBox="0 0 24 24" enable-background="new 0 0 24 24" xml:space="preserve">
<g>
	<path fill="none" stroke="#000000" stroke-linecap="round" stroke-linejoin="round" stroke-miterlimit="10" d="M19.5201,3.6562
		c0-2.0498-3.8985-2.9831-7.5211-2.9831S4.4778,1.6064,4.4778,3.6562c0,0.0041,0.0013,0.0078,0.0013,0.0119
		c0,0.0046-0.0013,0.0091-0.0013,0.0137v16.649c0,0.0848,0.0149,0.1654,0.0417,0.2405c0.4282,1.8006,4.0757,2.6252,7.4795,2.6252
		s7.0513-0.8247,7.4795-2.6252c0.0267-0.0751,0.0417-0.1558,0.0417-0.2405V3.6819c0-0.0046-0.0013-0.0091-0.0013-0.0137
		C19.5187,3.664,19.5201,3.6603,19.5201,3.6562z"/>
	<path fill="none" stroke="#000000" stroke-linecap="round" stroke-linejoin="round" stroke-miterlimit="10" d="M19.4633,3.2428
		c-0.0864,0.7186-2.8097,2.4022-7.5005,2.4022c-4.6909,0-7.3422-1.6836-7.4286-2.4022"/>
	<path fill="none" stroke="#000000" stroke-linecap="round" stroke-linejoin="round" stroke-miterlimit="10" d="M19.5201,8.941
		c-0.088,0.76-2.7795,2.5407-7.558,2.5407c-4.7786,0-7.388-1.7393-7.476-2.4993C4.4844,8.9691,4.4778,8.9543,4.4778,8.941"/>
	<path fill="none" stroke="#000000" stroke-linecap="round" stroke-linejoin="round" stroke-miterlimit="10" d="M19.5201,14.6392
		c-0.088,0.76-2.7795,2.5407-7.558,2.5407c-4.7786,0-7.388-1.7393-7.476-2.4993c-0.0016-0.0133-0.0083-0.0281-0.0083-0.0414"/>
</g>
<rect x="0" y="0" fill="none" width="24" height="24"/>
</svg>
