<?xml version="1.0" encoding="utf-8"?>
<!-- Generator: Adobe Illustrator 18.1.0, SVG Export Plug-In . SVG Version: 6.00 Build 0)  -->
<svg version="1.1" id="Layer_1" xmlns="http://www.w3.org/2000/svg" xmlns:xlink="http://www.w3.org/1999/xlink" x="0px" y="0px"
	 width="24px" height="24px" viewBox="0 0 24 24" enable-background="new 0 0 24 24" xml:space="preserve">
<g>
	<path fill="none" stroke="#000000" stroke-linecap="round" stroke-linejoin="round" stroke-miterlimit="10" d="M18.8723,6.5011
		H5.1283C4.8348,6.5011,4.5,6.7858,4.5,7.0704v9.8615c0,0.284,0.3348,0.5691,0.6283,0.5691h13.7439
		c0.2933,0,0.6278-0.2851,0.6278-0.5691V7.0704C19.5,6.7858,19.1655,6.5011,18.8723,6.5011z"/>
	
		<circle fill="none" stroke="#000000" stroke-linecap="round" stroke-linejoin="round" stroke-miterlimit="10" cx="8.1013" cy="10.2799" r="1.3565"/>
	<polyline fill="none" stroke="#000000" stroke-linecap="round" stroke-linejoin="round" stroke-miterlimit="10" points="
		8.2922,17.5011 12.0201,11.2128 13.8371,13.6647 16.174,9.9897 19.5,14.685 	"/>
	
		<line fill="none" stroke="#000000" stroke-linecap="round" stroke-linejoin="round" stroke-miterlimit="10" x1="4.5" y1="4.5174" x2="4.5" y2="2.5174"/>
	
		<line fill="none" stroke="#000000" stroke-linecap="round" stroke-linejoin="round" stroke-miterlimit="10" x1="2.4998" y1="6.5176" x2="0.4998" y2="6.5176"/>
	
		<line fill="none" stroke="#000000" stroke-linecap="round" stroke-linejoin="round" stroke-miterlimit="10" x1="23.5011" y1="6.5176" x2="21.5011" y2="6.5176"/>
	
		<line fill="none" stroke="#000000" stroke-linecap="round" stroke-linejoin="round" stroke-miterlimit="10" x1="2.4998" y1="17.5183" x2="0.4998" y2="17.5183"/>
	
		<line fill="none" stroke="#000000" stroke-linecap="round" stroke-linejoin="round" stroke-miterlimit="10" x1="23.5011" y1="17.5183" x2="21.5011" y2="17.5183"/>
	
		<line fill="none" stroke="#000000" stroke-linecap="round" stroke-linejoin="round" stroke-miterlimit="10" x1="19.5" y1="4.5174" x2="19.5" y2="2.5174"/>
	
		<line fill="none" stroke="#000000" stroke-linecap="round" stroke-linejoin="round" stroke-miterlimit="10" x1="4.5" y1="21.5185" x2="4.5" y2="19.5185"/>
	
		<line fill="none" stroke="#000000" stroke-linecap="round" stroke-linejoin="round" stroke-miterlimit="10" x1="19.5" y1="21.5185" x2="19.5" y2="19.5185"/>
</g>
<rect x="0" y="0.0011" fill="none" width="24" height="24"/>
</svg>
