<?xml version="1.0" encoding="utf-8"?>
<!-- Generator: Adobe Illustrator 18.1.0, SVG Export Plug-In . SVG Version: 6.00 Build 0)  -->
<svg version="1.1" id="Layer_1" xmlns="http://www.w3.org/2000/svg" xmlns:xlink="http://www.w3.org/1999/xlink" x="0px" y="0px"
	 width="24px" height="24px" viewBox="0 0 24 24" enable-background="new 0 0 24 24" xml:space="preserve">
<g>
	<path fill="none" stroke="#000000" stroke-linecap="round" stroke-linejoin="round" stroke-miterlimit="10" d="M13.6552,4.5346
		c0.0741,0.392,0.5138,2.8954,0.6693,3.2609l2.4834,5.8348c0.2055,0.4827,0.2965,1.0064,0.2661,1.5301l-0.4327,7.4553
		c0,0.3835-2.0716,0.6944-4.6272,0.6944S7.387,22.9993,7.387,22.6157l-0.4327-7.4553c-0.0304-0.5237,0.0607-1.0474,0.2661-1.5301
		l2.4834-5.8348c0.1556-0.3655,0.5952-2.869,0.6693-3.2609"/>
	<path fill="none" stroke="#000000" stroke-linecap="round" stroke-linejoin="round" stroke-miterlimit="10" d="M14.5142,3.726
		c0,0.4466-0.362,0.8086-0.8086,0.8086h-3.3828c-0.4466,0-0.8086-0.362-0.8086-0.8086V1.3432c0-0.4466,0.362-0.8086,0.8086-0.8086
		h3.3828c0.4466,0,0.8086,0.362,0.8086,0.8086V3.726z"/>
	
		<line fill="none" stroke="#000000" stroke-linecap="round" stroke-linejoin="round" stroke-miterlimit="10" x1="9.5142" y1="2.5346" x2="14.5142" y2="2.5346"/>
	<path fill="none" stroke="#000000" stroke-linecap="round" stroke-linejoin="round" stroke-miterlimit="10" d="M13.9657,19.5346
		c0,0,0.6838-4.6077,0.6838-4.6577c0-0.7168-1.1799-1.3007-2.6353-1.3007c-1.4554,0-2.6353,0.5853-2.6353,1.3021
		c0,0.0499,0.6838,4.6563,0.6838,4.6563H13.9657z"/>
</g>
<rect x="0.0142" y="0.0346" fill="none" width="24" height="24"/>
</svg>
