<?xml version="1.0" encoding="utf-8"?>
<!-- Generator: Adobe Illustrator 18.1.0, SVG Export Plug-In . SVG Version: 6.00 Build 0)  -->
<svg version="1.1" id="Layer_1" xmlns="http://www.w3.org/2000/svg" xmlns:xlink="http://www.w3.org/1999/xlink" x="0px" y="0px"
	 width="24px" height="24px" viewBox="0 0 24 24" enable-background="new 0 0 24 24" xml:space="preserve">
<g>
	<path fill="none" stroke="#000000" stroke-linecap="round" stroke-linejoin="round" stroke-miterlimit="10" d="M12,0.7182
		c-4.9117,0-8.7588,5.7114-8.7588,13.0021v1.1495c0,0.03,0.0009,0.06,0.0026,0.0891c0.0331,3.3465,0.9378,5.6293,2.7635,6.9773
		c2.6726,1.9725,9.2803,1.9964,11.9854,0c1.8257-1.348,2.7304-3.6308,2.7635-6.9773c0.0015-0.0297,0.0026-0.0593,0.0026-0.0891
		C20.7588,4.6716,15.9553,0.7182,12,0.7182"/>
	
		<line fill="none" stroke="#000000" stroke-linecap="round" stroke-linejoin="round" stroke-miterlimit="10" x1="8.5" y1="10.5626" x2="8.5" y2="13.4768"/>
	
		<line fill="none" stroke="#000000" stroke-linecap="round" stroke-linejoin="round" stroke-miterlimit="10" x1="11.5" y1="12.5626" x2="11.5" y2="13.4768"/>
	
		<line fill="none" stroke="#000000" stroke-linecap="round" stroke-linejoin="round" stroke-miterlimit="10" x1="5.5" y1="12.5626" x2="5.5" y2="13.4768"/>
	
		<line fill="none" stroke="#000000" stroke-linecap="round" stroke-linejoin="round" stroke-miterlimit="10" x1="14.5" y1="12.5626" x2="14.5" y2="13.4768"/>
	
		<line fill="none" stroke="#000000" stroke-linecap="round" stroke-linejoin="round" stroke-miterlimit="10" x1="17.5" y1="12.5626" x2="17.5" y2="13.4768"/>
	<path fill="none" stroke="#000000" stroke-linecap="round" stroke-linejoin="round" stroke-miterlimit="10" d="M7.8281,19.0257
		l0.5993-1.2586c0.017-0.0355,0.044-0.0566,0.0726-0.0566c0.0286,0,0.0555,0.0212,0.0723,0.0566l0.5993,1.2586"/>
	
		<line fill="none" stroke="#000000" stroke-linecap="round" stroke-linejoin="round" stroke-miterlimit="10" x1="3.2582" y1="15.5197" x2="20.7417" y2="15.5197"/>
</g>
<rect x="0" y="0.0197" fill="none" width="24" height="24"/>
</svg>
