<?xml version="1.0" encoding="utf-8"?>
<!-- Generator: Adobe Illustrator 18.1.0, SVG Export Plug-In . SVG Version: 6.00 Build 0)  -->
<svg version="1.1" id="Layer_1" xmlns="http://www.w3.org/2000/svg" xmlns:xlink="http://www.w3.org/1999/xlink" x="0px" y="0px"
	 width="24px" height="24px" viewBox="0 0 24 24" enable-background="new 0 0 24 24" xml:space="preserve">
<g>
	<path fill="none" stroke="#000000" stroke-linecap="round" stroke-linejoin="round" stroke-miterlimit="10" d="M9.7394,3.5297
		c-0.1381-0.2704-0.2159-0.5766-0.2159-0.901c0-1.0972,0.8893-1.9865,1.9859-1.9865c1.0974,0,1.9863,0.8893,1.9863,1.9865
		c0,0.3244-0.0778,0.6306-0.2159,0.901"/>
	
		<circle fill="none" stroke="#000000" stroke-linecap="round" stroke-linejoin="round" stroke-miterlimit="10" cx="11.5096" cy="13.5641" r="9.7284"/>
	
		<line fill="none" stroke="#000000" stroke-linecap="round" stroke-linejoin="round" stroke-miterlimit="10" x1="11.5096" y1="6.1356" x2="11.5096" y2="3.8357"/>
	
		<line fill="none" stroke="#000000" stroke-linecap="round" stroke-linejoin="round" stroke-miterlimit="10" x1="11.5096" y1="23.2924" x2="11.5096" y2="20.9926"/>
	
		<line fill="none" stroke="#000000" stroke-linecap="round" stroke-linejoin="round" stroke-miterlimit="10" x1="18.9116" y1="13.4847" x2="21.2379" y2="13.4847"/>
	
		<line fill="none" stroke="#000000" stroke-linecap="round" stroke-linejoin="round" stroke-miterlimit="10" x1="1.7812" y1="13.4847" x2="4.0616" y2="13.4847"/>
	<polygon fill="none" stroke="#000000" stroke-linecap="round" stroke-linejoin="round" points="13.148,15.2026 6.2934,18.7803 
		9.8711,11.9256 	"/>
	<polygon fill="none" stroke="#000000" stroke-linecap="round" stroke-linejoin="round" points="9.8711,11.9256 16.7257,8.3479 
		13.148,15.2026 	"/>
</g>
<rect x="-0.0137" y="0.0001" fill="none" width="24" height="24"/>
</svg>
