<?xml version="1.0" encoding="utf-8"?>
<!-- Generator: Adobe Illustrator 18.1.0, SVG Export Plug-In . SVG Version: 6.00 Build 0)  -->
<svg version="1.1" id="Layer_1" xmlns="http://www.w3.org/2000/svg" xmlns:xlink="http://www.w3.org/1999/xlink" x="0px" y="0px"
	 width="24px" height="24px" viewBox="0 0 24 24" enable-background="new 0 0 24 24" xml:space="preserve">
<g>
	
		<ellipse fill="none" stroke="#000000" stroke-linecap="round" stroke-linejoin="round" stroke-miterlimit="10" cx="6.0116" cy="12.229" rx="1.1516" ry="1.1642"/>
	<polyline fill="none" stroke="#000000" stroke-linecap="round" stroke-linejoin="round" stroke-miterlimit="10" points="
		5.7393,18.4656 9.2925,13.6071 10.8354,15.6908 12.8198,12.5677 15.4378,16.1953 	"/>
	<circle fill="none" stroke="#000000" stroke-linecap="round" stroke-linejoin="round" cx="19.5332" cy="10.5395" r="1.5256"/>
	
		<rect x="2.4894" y="8.5031" fill="none" stroke="#000000" stroke-linecap="round" stroke-linejoin="round" stroke-miterlimit="10" width="13" height="10"/>
	
		<line fill="none" stroke="#000000" stroke-linecap="round" stroke-linejoin="round" x1="18.4415" y1="4.5031" x2="20.4439" y2="4.5031"/>
	
		<line fill="none" stroke="#000000" stroke-linecap="round" stroke-linejoin="round" x1="12.3897" y1="5.5031" x2="10.4577" y2="5.5031"/>
	
		<line fill="none" stroke="#000000" stroke-linecap="round" stroke-linejoin="round" x1="17.5373" y1="14.5032" x2="18.4415" y2="14.5032"/>
	
		<line fill="none" stroke="#000000" stroke-linecap="round" stroke-linejoin="round" x1="17.5373" y1="16.5032" x2="18.4415" y2="16.5032"/>
	
		<line fill="none" stroke="#000000" stroke-linecap="round" stroke-linejoin="round" x1="20.5375" y1="14.5032" x2="21.4416" y2="14.5032"/>
	
		<line fill="none" stroke="#000000" stroke-linecap="round" stroke-linejoin="round" x1="20.5375" y1="16.5032" x2="21.4416" y2="16.5032"/>
	<path fill="none" stroke="#000000" stroke-linecap="round" stroke-linejoin="round" stroke-miterlimit="10" d="M23.4704,8.7529
		c-0.0565-0.7756-0.6266-2.2498-2.3134-2.2498h-6.6677V4.7909c0-0.7112-0.5766-1.2878-1.2879-1.2878H9.7838
		c-0.7113,0-1.2946,0.5767-1.2946,1.2878v1.7122H2.9377C2.0849,6.5398,0.4894,7.1345,0.4894,9.01v9.155
		c0,1.425,0.8794,2.3381,2.3565,2.3381h18.33l0.0476-0.0125c0.777-0.0747,2.2659-0.6594,2.2659-2.3025L23.4704,8.7529z"/>
</g>
<rect x="-0.0137" y="0.0002" fill="none" width="24" height="24"/>
</svg>
