<?xml version="1.0" encoding="utf-8"?>
<!-- Generator: Adobe Illustrator 18.1.0, SVG Export Plug-In . SVG Version: 6.00 Build 0)  -->
<svg version="1.1" id="Layer_1" xmlns="http://www.w3.org/2000/svg" xmlns:xlink="http://www.w3.org/1999/xlink" x="0px" y="0px"
	 width="24px" height="24px" viewBox="0 0 24 24" enable-background="new 0 0 24 24" xml:space="preserve">
<g>
	
		<line fill="none" stroke="#000000" stroke-linecap="round" stroke-linejoin="round" stroke-miterlimit="10" x1="10.6254" y1="10.4999" x2="13.386" y2="10.4999"/>
	
		<line fill="none" stroke="#000000" stroke-linecap="round" stroke-linejoin="round" stroke-miterlimit="10" x1="12.0057" y1="9.1529" x2="12.0057" y2="11.8468"/>
	
		<line fill="none" stroke="#000000" stroke-linecap="round" stroke-linejoin="round" stroke-miterlimit="10" x1="13.386" y1="15.488" x2="10.6254" y2="15.488"/>
	<path fill="none" stroke="#000000" stroke-linecap="round" stroke-linejoin="round" stroke-miterlimit="10" d="M21.7736,9.1258
		c-1.2445-4.2672-5.1784-7.3877-9.8475-7.3877c-4.669,0-8.6029,3.1205-9.8474,7.3877"/>
	<polyline fill="none" stroke="#000000" stroke-linecap="round" stroke-linejoin="round" stroke-miterlimit="10" points="
		23.1418,5.6025 21.7736,9.1258 18.2503,7.7575 	"/>
	<path fill="none" stroke="#000000" stroke-linecap="round" stroke-linejoin="round" stroke-miterlimit="10" d="M2.1583,14.8777
		c1.2445,4.2672,5.1784,7.3877,9.8475,7.3877c4.669,0,8.6029-3.1205,9.8474-7.3877"/>
	<polyline fill="none" stroke="#000000" stroke-linecap="round" stroke-linejoin="round" stroke-miterlimit="10" points="
		0.7901,18.401 2.1583,14.8777 5.6816,16.246 	"/>
	<polygon fill="none" stroke="#000000" stroke-linecap="round" stroke-linejoin="round" stroke-miterlimit="10" points="
		13.5005,6.5 13.5005,5.5 10.5005,5.5 10.5005,6.5 8.5005,6.5 8.5005,18.5 15.5005,18.5 15.5005,6.5 	"/>
</g>
<rect x="0.0005" y="0" fill="none" width="24" height="24"/>
</svg>
