<?xml version="1.0" encoding="utf-8"?>
<!-- Generator: Adobe Illustrator 18.1.0, SVG Export Plug-In . SVG Version: 6.00 Build 0)  -->
<svg version="1.1" id="Layer_1" xmlns="http://www.w3.org/2000/svg" xmlns:xlink="http://www.w3.org/1999/xlink" x="0px" y="0px"
	 width="24px" height="24px" viewBox="0 0 24 24" enable-background="new 0 0 24 24" xml:space="preserve">
<g>
	<path fill="none" stroke="#000000" stroke-linecap="round" stroke-linejoin="round" d="M18.5865,0.6328
		c-1.3873,0-2.6652,0.9143-3.0214,2.1587c-0.3545-1.2444-1.6333-2.1587-3.0197-2.1587c-1.4189,0-2.6056,0.9578-2.9294,2.247
		c-0.2276,0.9037-0.0043,1.7974,0.5052,2.4665l5.3793,6.2169l5.4015-6.0852c0.4399-0.5121,0.7041-1.1726,0.7041-1.8935
		C21.6062,1.9542,20.254,0.6328,18.5865,0.6328z"/>
	
		<line fill="none" stroke="#000000" stroke-linecap="round" stroke-linejoin="round" stroke-miterlimit="10" x1="16.0356" y1="19.4981" x2="7.0356" y2="19.4981"/>
	
		<line fill="none" stroke="#000000" stroke-linecap="round" stroke-linejoin="round" stroke-miterlimit="10" x1="16.0356" y1="16.4981" x2="7.0356" y2="16.4981"/>
	
		<line fill="none" stroke="#000000" stroke-linecap="round" stroke-linejoin="round" stroke-miterlimit="10" x1="11.0356" y1="13.4981" x2="7.0356" y2="13.4981"/>
	<path fill="none" stroke="#000000" stroke-linecap="round" stroke-linejoin="round" stroke-miterlimit="10" d="M19.4707,11.5179
		v11.2718c0,0.3847-0.3143,0.6963-0.7033,0.6963H4.1651c-0.3882,0-0.7025-0.3116-0.7025-0.6963V4.1666
		c0-0.3845,0.3143-0.6961,0.7025-0.6961h3.409"/>
</g>
<rect x="0" y="-0.002" fill="none" width="24" height="24"/>
</svg>
