<?xml version="1.0" encoding="utf-8"?>
<!-- Generator: Adobe Illustrator 18.1.0, SVG Export Plug-In . SVG Version: 6.00 Build 0)  -->
<svg version="1.1" id="Layer_1" xmlns="http://www.w3.org/2000/svg" xmlns:xlink="http://www.w3.org/1999/xlink" x="0px" y="0px"
	 width="24px" height="24px" viewBox="0 0 24 24" enable-background="new 0 0 24 24" xml:space="preserve">
<g>
	<path fill="none" stroke="#000000" stroke-linecap="round" stroke-linejoin="round" stroke-miterlimit="10" d="M11.9864,0.7066
		c4.0496,0,8.187,3.011,8.27,7.1619c0.0969,4.8505-6.618,10.486-8.27,10.486"/>
	<path fill="none" stroke="#000000" stroke-linecap="round" stroke-linejoin="round" stroke-miterlimit="10" d="M11.9864,0.7066
		c2.5311,0,5.1171,3.011,5.169,7.1619c0.0606,4.8505-4.1365,10.486-5.169,10.486"/>
	<path fill="none" stroke="#000000" stroke-linecap="round" stroke-linejoin="round" stroke-miterlimit="10" d="M11.9864,0.7066
		c-4.0496,0-8.187,3.011-8.27,7.1619c-0.0969,4.8505,6.618,10.486,8.27,10.486"/>
	<path fill="none" stroke="#000000" stroke-linecap="round" stroke-linejoin="round" stroke-miterlimit="10" d="M11.9864,18.3545
		c-1.0325,0-5.2296-5.6355-5.169-10.486c0.0519-4.1509,2.6378-7.1619,5.169-7.1619V18.3545z"/>
	<polygon fill="none" stroke="#000000" stroke-linecap="round" stroke-linejoin="round" stroke-miterlimit="10" points="
		13.0394,23.5001 10.9333,23.5001 10.6552,21.5001 13.3175,21.5001 	"/>
</g>
<rect x="-0.0136" y="0.0001" fill="none" width="24" height="24"/>
</svg>
