<?xml version="1.0" encoding="utf-8"?>
<!-- Generator: Adobe Illustrator 18.1.0, SVG Export Plug-In . SVG Version: 6.00 Build 0)  -->
<svg version="1.1" id="Layer_1" xmlns="http://www.w3.org/2000/svg" xmlns:xlink="http://www.w3.org/1999/xlink" x="0px" y="0px"
	 width="24px" height="24px" viewBox="0 0 24 24" enable-background="new 0 0 24 24" xml:space="preserve">
<g>
	<path fill="none" stroke="#000000" stroke-linecap="round" stroke-linejoin="round" stroke-miterlimit="10" d="M11.6988,21.3035
		c0-1.1655-0.5375-2.8536-1.2006-2.8536c-0.6631,0-1.2006,1.6881-1.2006,2.8536s0.5375,1.8626,1.2006,1.8626
		C11.1613,23.1661,11.6988,22.469,11.6988,21.3035z"/>
	<path fill="none" stroke="#000000" stroke-linecap="round" stroke-linejoin="round" stroke-miterlimit="10" d="M9.2976,2.6672
		c0,1.1655,0.5375,2.8536,1.2006,2.8536c0.6631,0,1.2006-1.6881,1.2006-2.8536s-0.5375-1.8626-1.2006-1.8626
		C9.8351,0.8045,9.2976,1.5016,9.2976,2.6672z"/>
	
		<line fill="none" stroke="#000000" stroke-linecap="round" stroke-linejoin="round" stroke-miterlimit="10" x1="10.4982" y1="20.808" x2="10.4982" y2="3.1627"/>
	<path fill="none" stroke="#000000" stroke-linecap="round" stroke-linejoin="round" stroke-miterlimit="10" d="M6.6985,21.3035
		c0-1.1655-0.5375-2.8536-1.2006-2.8536s-1.2006,1.6881-1.2006,2.8536s0.5375,1.8626,1.2006,1.8626S6.6985,22.469,6.6985,21.3035z"
		/>
	<path fill="none" stroke="#000000" stroke-linecap="round" stroke-linejoin="round" stroke-miterlimit="10" d="M4.2972,2.6672
		c0,1.1655,0.5375,2.8536,1.2006,2.8536s1.2006-1.6881,1.2006-2.8536S6.161,0.8045,5.4979,0.8045S4.2972,1.5016,4.2972,2.6672z"/>
	
		<line fill="none" stroke="#000000" stroke-linecap="round" stroke-linejoin="round" stroke-miterlimit="10" x1="5.4979" y1="20.808" x2="5.4979" y2="3.1627"/>
	<path fill="none" stroke="#000000" stroke-linecap="round" stroke-linejoin="round" stroke-miterlimit="10" d="M17.0074,2.2906
		c0,0,7.1132,8.9708,0,19.3914"/>
	<path fill="none" stroke="#000000" stroke-linecap="round" stroke-linejoin="round" stroke-miterlimit="10" d="M17.0074,2.2906
		c0,0-7.1132,8.9708,0,19.3914"/>
	<path fill="none" stroke="#000000" stroke-linecap="round" stroke-linejoin="round" stroke-miterlimit="10" d="M18.4902,12.5626
		c0,0.8189-0.6639,1.4828-1.4828,1.4828l0,0c-0.8189,0-1.4828-0.6639-1.4828-1.4828v-0.562c0-0.8189,0.6639-1.4828,1.4828-1.4828
		l0,0c0.8189,0,1.4828,0.6639,1.4828,1.4828V12.5626z"/>
	<path fill="none" stroke="#000000" stroke-linecap="round" stroke-linejoin="round" stroke-miterlimit="10" d="M18.6306,9.3318
		c-0.3644-0.5026-0.9548-0.8309-1.6232-0.8309c-0.6684,0-1.2588,0.3283-1.6232,0.8309"/>
</g>
<rect x="-0.0008" y="-0.0147" fill="none" width="24" height="24"/>
</svg>
