<?xml version="1.0" encoding="utf-8"?>
<!-- Generator: Adobe Illustrator 18.1.0, SVG Export Plug-In . SVG Version: 6.00 Build 0)  -->
<svg version="1.1" id="Layer_1" xmlns="http://www.w3.org/2000/svg" xmlns:xlink="http://www.w3.org/1999/xlink" x="0px" y="0px"
	 width="24px" height="24px" viewBox="0 0 24 24" enable-background="new 0 0 24 24" xml:space="preserve">
<g>
	
		<rect x="7.4863" y="14.5001" fill="none" stroke="#000000" stroke-linecap="round" stroke-linejoin="round" stroke-miterlimit="10" width="9" height="9"/>
	<polygon fill="none" stroke="#000000" stroke-linecap="round" stroke-linejoin="round" stroke-miterlimit="10" points="
		21.4863,4.5001 21.4863,5.5 20.4863,5.5 20.4863,4.5001 18.4863,4.5001 18.4863,5.5 17.4863,5.5 17.4863,4.5001 15.4863,4.5001 
		15.4863,10.6149 16.4863,11.6947 16.4863,23.5001 22.4863,23.5001 22.4863,11.6947 23.4863,10.6149 23.4863,4.5001 	"/>
	<path fill="none" stroke="#000000" stroke-linecap="round" stroke-linejoin="round" stroke-miterlimit="10" d="M13.4863,23.5001
		v-3.3909c0-0.8707-0.6944-1.5831-1.5651-1.5831h0.0741c-0.8707,0-1.509,0.7124-1.509,1.5831v3.3909"/>
	<path fill="none" stroke="#000000" stroke-linecap="round" stroke-linejoin="round" stroke-miterlimit="10" d="M20.4863,14.5001
		v-2.0096c0-0.5394-0.4738-0.9808-1.0132-0.9808h-0.003c-0.5394,0-0.9838,0.4413-0.9838,0.9808v2.0096H20.4863z"/>
	<polygon fill="none" stroke="#000000" stroke-linecap="round" stroke-linejoin="round" stroke-miterlimit="10" points="
		6.4863,4.5001 6.4863,5.5 5.4863,5.5 5.4863,4.5001 3.4863,4.5001 3.4863,5.5 2.4863,5.5 2.4863,4.5001 0.4863,4.5001 
		0.4863,10.6149 1.4863,11.6947 1.4863,23.5001 7.4863,23.5001 7.4863,11.6947 8.4863,10.6149 8.4863,4.5001 	"/>
	<path fill="none" stroke="#000000" stroke-linecap="round" stroke-linejoin="round" stroke-miterlimit="10" d="M5.4863,14.5001
		v-2.0096c0-0.5394-0.4282-0.9808-0.9676-0.9808H4.4929c-0.5394,0-1.0066,0.4413-1.0066,0.9808v2.0096H5.4863z"/>
</g>
<rect x="-0.0137" y="0.0001" fill="none" width="24" height="24"/>
</svg>
