<?xml version="1.0" encoding="utf-8"?>
<!-- Generator: Adobe Illustrator 18.1.0, SVG Export Plug-In . SVG Version: 6.00 Build 0)  -->
<svg version="1.1" id="Layer_1" xmlns="http://www.w3.org/2000/svg" xmlns:xlink="http://www.w3.org/1999/xlink" x="0px" y="0px"
	 width="24px" height="24px" viewBox="0 0 24 24" enable-background="new 0 0 24 24" xml:space="preserve">
<g>
	<polygon fill="none" stroke="#000000" stroke-linecap="round" stroke-linejoin="round" points="17.3857,22.0991 0.4954,20.7721 
		0.4954,6.7766 17.3857,7.7565 	"/>
	
		<line fill="none" stroke="#000000" stroke-linecap="round" stroke-linejoin="round" x1="5.4929" y1="5.1475" x2="17.1702" y2="5.825"/>
	
		<line fill="none" stroke="#000000" stroke-linecap="round" stroke-linejoin="round" x1="7.7881" y1="3.5093" x2="19.4655" y2="4.1868"/>
	<polygon fill="none" stroke="#000000" stroke-linecap="round" stroke-linejoin="round" points="17.3857,22.0991 23.4751,15.7479 
		23.4751,2.5433 17.3857,7.7565 	"/>
	<polyline fill="none" stroke="#000000" stroke-linecap="round" stroke-linejoin="round" points="23.4751,2.5433 7.9147,1.9103 
		0.4954,6.7766 	"/>
	<path fill="none" stroke="#000000" stroke-linecap="round" stroke-linejoin="round" d="M12.1808,11.4148
		c-0.0302,0.4795-0.4435,0.8441-0.9232,0.8139l-5.1741-0.325c-0.4796-0.0308-0.8442-0.4439-0.8142-0.923l0,0
		c0.0303-0.4795,0.4435-0.8448,0.923-0.8139l5.1743,0.3253C11.8462,10.5219,12.2108,10.9349,12.1808,11.4148L12.1808,11.4148z"/>
</g>
<rect x="-0.0136" y="0" fill="none" width="24" height="24"/>
</svg>
