<?xml version="1.0" encoding="utf-8"?>
<!-- Generator: Adobe Illustrator 18.1.0, SVG Export Plug-In . SVG Version: 6.00 Build 0)  -->
<svg version="1.1" id="Layer_1" xmlns="http://www.w3.org/2000/svg" xmlns:xlink="http://www.w3.org/1999/xlink" x="0px" y="0px"
	 width="24px" height="24px" viewBox="0 0 24 24" enable-background="new 0 0 24 24" xml:space="preserve">
<g>
	<path fill="none" stroke="#000000" stroke-linecap="round" stroke-linejoin="round" stroke-miterlimit="10" d="M6.6239,17.5146
		c-2.94-0.6889-5.926-4.1063-5.926-8.491c0-4.5789,3.5251-8.5255,7.629-8.5255h7.5208c4.1039,0,7.431,3.9212,7.431,8.5001
		c0,4.5313-3.3271,8.4999-7.431,8.4999h-2.369l-6.8548,5.78V17.5146z"/>
	<path fill="none" stroke="#000000" stroke-linecap="round" stroke-linejoin="round" stroke-miterlimit="10" d="M16.5466,5.7785
		c-1.0436-1.0649-2.7356-1.0649-3.7791,0l-0.63,0.6427l-0.6299-0.6426c-1.0436-1.0649-2.7357-1.0649-3.7792,0
		c-1.0436,1.0649-1.0436,2.7914,0,3.8563l4.4091,4.4987l4.409-4.4987C17.5902,8.57,17.5902,6.8435,16.5466,5.7785z"/>
</g>
<rect x="0" y="-0.002" fill="none" width="24" height="24"/>
</svg>
