<?xml version="1.0" encoding="utf-8"?>
<!-- Generator: Adobe Illustrator 18.1.0, SVG Export Plug-In . SVG Version: 6.00 Build 0)  -->
<svg version="1.1" id="Layer_1" xmlns="http://www.w3.org/2000/svg" xmlns:xlink="http://www.w3.org/1999/xlink" x="0px" y="0px"
	 width="24px" height="24px" viewBox="0 0 24 24" enable-background="new 0 0 24 24" xml:space="preserve">
<g>
	<path fill="none" stroke="#000000" stroke-linecap="round" stroke-linejoin="round" d="M7.9693,15.5156
		c-4.2382,0.5783-7.2555,2.035-7.2555,3.7474c0,2.2199,5.0532,4.0199,11.2867,4.0199s11.2867-1.8,11.2867-4.0199
		c0-1.6957-2.9583-3.1396-7.1298-3.7292"/>
	
		<line fill="none" stroke="#000000" stroke-linecap="round" stroke-linejoin="round" stroke-miterlimit="10" x1="12.0006" y1="20.2761" x2="12.0008" y2="12.8546"/>
	<path fill="none" stroke="#000000" stroke-linecap="round" stroke-linejoin="round" stroke-miterlimit="10" d="M13.2345,1.9743
		c0,0.6813-0.5523,1.6328-1.2337,1.6328c-0.6813,0-1.2337-0.9514-1.2337-1.6328s0.5523-1.2337,1.2337-1.2337
		C12.6822,0.7407,13.2345,1.293,13.2345,1.9743z"/>
	<path fill="none" stroke="#000000" stroke-linecap="round" stroke-linejoin="round" stroke-miterlimit="10" d="M10.4042,20.2761
		l-0.4875-8.7756c-0.0072-0.1773-0.5765,0.0535-0.5828-0.1146C9.102,5.1792,9.618,4.7845,9.6763,4.7357
		c0.0686-0.0192,0.6317-0.0344,0.8002-0.045c0.2278-0.0143,0.4242,0.1248,0.5288,0.3277c0.371,0.7195,1.6199,0.7195,1.9909,0
		c0.1046-0.2029,0.301-0.342,0.5288-0.3277c0.1685,0.0106,0.7316,0.0258,0.8002,0.045c0.0583,0.0488,0.5744,0.4435,0.3425,6.6503
		c-0.0063,0.1681-0.5756-0.0627-0.5828,0.1146l-0.488,8.7756"/>
</g>
<rect x="0.0005" y="0.0004" fill="none" width="24" height="24"/>
</svg>
