<?xml version="1.0" encoding="utf-8"?>
<!-- Generator: Adobe Illustrator 18.1.0, SVG Export Plug-In . SVG Version: 6.00 Build 0)  -->
<svg version="1.1" id="Layer_1" xmlns="http://www.w3.org/2000/svg" xmlns:xlink="http://www.w3.org/1999/xlink" x="0px" y="0px"
	 width="24px" height="24px" viewBox="0 0 24 24" enable-background="new 0 0 24 24" xml:space="preserve">
<g>
	<path fill="none" stroke="#000000" stroke-linecap="round" stroke-linejoin="round" stroke-miterlimit="10" d="M19.5142,10.0346
		V20.828c0,1.5321-1.3389,2.7066-2.9062,2.7066H7.352c-1.5673,0-2.8378-1.1745-2.8378-2.7066V10.0346"/>
	<path fill="none" stroke="#000000" stroke-linecap="round" stroke-linejoin="round" stroke-miterlimit="10" d="M19.5142,1.2135
		c0-0.375-0.304-0.679-0.679-0.679H5.1932c-0.375,0-0.679,0.304-0.679,0.679v1.6421c0,0.375,0.304,0.679,0.679,0.679h13.6421
		c0.375,0,0.679-0.304,0.679-0.679V1.2135z"/>
	<path fill="none" stroke="#000000" stroke-linecap="round" stroke-linejoin="round" stroke-miterlimit="10" d="M5.1178,3.5346
		c0,0-2.2993,2.966-1.1167,4.5548c1.0974,1.4743,1.659-1.478,2.8591-1.4233s0.1515,1.8269,1.7751,1.5324
		c1.6237-0.2945,1.5157-3.8863,2.8529-2.0798s2.6432,2.2991,3.3491,0.4379c0.7059-1.8612,2.0998-0.7999,3.4234,0.6233
		s2.7348,0.2094,1.7817-1.0191c-0.953-1.2286-0.9472-2.6263-0.9472-2.6263H5.1178z"/>
	<polygon fill="none" stroke="#000000" stroke-linecap="round" stroke-linejoin="round" points="9.0589,16.0435 7.7708,13.8126 
		9.0589,11.5817 11.6349,11.5817 12.9229,13.8126 11.6349,16.0435 	"/>
	<polygon fill="none" stroke="#000000" stroke-linecap="round" stroke-linejoin="round" points="12.9061,18.2744 11.6181,16.0435 
		12.9061,13.8126 15.4821,13.8126 16.7701,16.0435 15.4821,18.2744 	"/>
	<polygon fill="none" stroke="#000000" stroke-linecap="round" stroke-linejoin="round" points="9.0589,20.5053 7.7708,18.2744 
		9.0589,16.0435 11.6349,16.0435 12.9229,18.2744 11.6349,20.5053 	"/>
</g>
<rect x="0.0142" y="0.0346" fill="none" width="24" height="24"/>
</svg>
