<?xml version="1.0" encoding="utf-8"?>
<!-- Generator: Adobe Illustrator 18.1.0, SVG Export Plug-In . SVG Version: 6.00 Build 0)  -->
<svg version="1.1" id="Layer_1" xmlns="http://www.w3.org/2000/svg" xmlns:xlink="http://www.w3.org/1999/xlink" x="0px" y="0px"
	 width="24px" height="24px" viewBox="0 0 24 24" enable-background="new 0 0 24 24" xml:space="preserve">
<g>
	<path fill="none" stroke="#000000" stroke-linecap="round" stroke-linejoin="round" stroke-miterlimit="10" d="M15.5,12.0604
		c0,0.2234-0.1944,0.4376-0.4169,0.4376H8.9323c-0.186,0-0.4322-0.2031-0.4322-0.4372V6.8649c0-0.2235,0.2102-0.3669,0.4327-0.3669
		h6.1508c0.2667,0,0.4164,0.1932,0.4164,0.3664V12.0604z"/>
	<path fill="none" stroke="#000000" stroke-linecap="round" stroke-linejoin="round" stroke-miterlimit="10" d="M17.6578,3.4977
		H9.1234l-0.387-2.013C8.6577,0.9447,8.1897,0.5438,7.6367,0.5438H6.6205c-0.6138,0-1.1108,0.4912-1.1108,1.097v20.8973
		c0,0.4952,0.4064,0.8966,0.9077,0.8966h11.2404c0.5013,0,0.9077-0.4014,0.9077-0.8966V4.3943
		C18.5656,3.8991,18.1592,3.4977,17.6578,3.4977z"/>
	
		<line fill="none" stroke="#000000" stroke-linecap="round" stroke-linejoin="round" stroke-miterlimit="10" x1="8.5001" y1="15.4983" x2="9.4605" y2="15.4983"/>
	
		<line fill="none" stroke="#000000" stroke-linecap="round" stroke-linejoin="round" stroke-miterlimit="10" x1="8.5001" y1="17.4985" x2="9.4605" y2="17.4985"/>
	
		<line fill="none" stroke="#000000" stroke-linecap="round" stroke-linejoin="round" stroke-miterlimit="10" x1="8.5001" y1="19.4987" x2="9.4605" y2="19.4987"/>
	
		<line fill="none" stroke="#000000" stroke-linecap="round" stroke-linejoin="round" stroke-miterlimit="10" x1="11.5004" y1="15.4983" x2="12.4608" y2="15.4983"/>
	
		<line fill="none" stroke="#000000" stroke-linecap="round" stroke-linejoin="round" stroke-miterlimit="10" x1="11.5004" y1="17.4985" x2="12.4608" y2="17.4985"/>
	
		<line fill="none" stroke="#000000" stroke-linecap="round" stroke-linejoin="round" stroke-miterlimit="10" x1="11.5004" y1="19.4987" x2="12.4608" y2="19.4987"/>
	
		<line fill="none" stroke="#000000" stroke-linecap="round" stroke-linejoin="round" stroke-miterlimit="10" x1="14.5007" y1="15.4983" x2="15.4611" y2="15.4983"/>
	
		<line fill="none" stroke="#000000" stroke-linecap="round" stroke-linejoin="round" stroke-miterlimit="10" x1="14.5007" y1="17.4985" x2="15.4611" y2="17.4985"/>
	
		<line fill="none" stroke="#000000" stroke-linecap="round" stroke-linejoin="round" stroke-miterlimit="10" x1="14.5007" y1="19.4987" x2="15.4611" y2="19.4987"/>
</g>
<rect x="0" y="-0.002" fill="none" width="24" height="24"/>
</svg>
