<?xml version="1.0" encoding="utf-8"?>
<!-- Generator: Adobe Illustrator 18.1.0, SVG Export Plug-In . SVG Version: 6.00 Build 0)  -->
<svg version="1.1" id="Layer_1" xmlns="http://www.w3.org/2000/svg" xmlns:xlink="http://www.w3.org/1999/xlink" x="0px" y="0px"
	 width="24px" height="24px" viewBox="0 0 24 24" enable-background="new 0 0 24 24" xml:space="preserve">
<g>
	<path fill="none" stroke="#000000" stroke-linecap="round" stroke-linejoin="round" d="M17.2397,19.2038l4.2812-1.9288
		c1.5538-0.7001,2.5302,1.5504,1.0601,2.2127c-6.5024,2.9296-5.9905,2.9467-8.5757,2.9467c-1.4987,0-3.7182-0.235-6.5596-1.4904
		c-0.8889-0.3926-2.5958,0.2417-4.6677,0.7654c-0.6507,0.1649-1.3158-0.2175-1.4952-0.86
		c-0.1288-0.4611-0.6464-2.0539-0.5608-2.4791c0.1057-0.5251,0.5214-0.9008,1.0197-0.9796c1.632-0.2582,6.5806-1.2303,9.2185-0.4653
		l5.4946,1.5936c1.5669,0.4543,0.8732,2.8055-0.6935,2.3507l-5.7728-1.6743"/>
	
		<line fill="none" stroke="#000000" stroke-linecap="round" stroke-linejoin="round" x1="22.4262" y1="12.1199" x2="7.3292" y2="12.1199"/>
	
		<line fill="none" stroke="#000000" stroke-linecap="round" stroke-linejoin="round" x1="21.539" y1="8.6523" x2="8.1728" y2="8.6523"/>
	<path fill="none" stroke="#000000" stroke-linecap="round" stroke-linejoin="round" d="M22.0367,14.5012
		c0.2492-0.7492,0.3895-1.5483,0.3895-2.3814c0-4.1417-3.3366-7.5009-7.468-7.5445c2.0656,0.0436,3.734,3.4028,3.734,7.5445
		c0,1.271-0.1588,2.4664-0.4361,3.5174"/>
	<path fill="none" stroke="#000000" stroke-linecap="round" stroke-linejoin="round" d="M14.8778,4.5714
		c-0.0148,0-0.0291,0.0021-0.0438,0.0023c-2.0742,0.0238-3.7523,3.3921-3.7523,7.5461c0,0.7965,0.0626,1.5634,0.177,2.2844"/>
	<path fill="none" stroke="#000000" stroke-linecap="round" stroke-linejoin="round" d="M18.256,15.6373
		c0.2774-1.051,0.4361-2.2465,0.4361-3.5174c0-4.1417-1.6684-7.5009-3.734-7.5445c-0.0271-0.0002-0.0532-0.004-0.0804-0.004v10.6689
		"/>
	<path fill="none" stroke="#000000" stroke-linecap="round" stroke-linejoin="round" d="M11.2586,14.4043
		c-0.1144-0.721-0.177-1.4879-0.177-2.2844c0-4.1541,1.6781-7.5224,3.7523-7.5461c-4.1485,0.0238-7.5047,3.3921-7.5047,7.5461
		c0,0.6474,0.0902,1.2724,0.2436,1.872"/>
</g>
<rect x="0" y="0" fill="none" width="24" height="24"/>
</svg>
