<?xml version="1.0" encoding="utf-8"?>
<!-- Generator: Adobe Illustrator 18.1.0, SVG Export Plug-In . SVG Version: 6.00 Build 0)  -->
<svg version="1.1" id="Layer_1" xmlns="http://www.w3.org/2000/svg" xmlns:xlink="http://www.w3.org/1999/xlink" x="0px" y="0px"
	 width="24px" height="24px" viewBox="0 0 24 24" enable-background="new 0 0 24 24" xml:space="preserve">
<g>
	<path fill="none" stroke="#000000" stroke-linecap="round" stroke-linejoin="round" d="M8.6542,19.1223
		c4.8649,2.3122,10.6506-0.7815,11.3283-6.221"/>
	<path fill="none" stroke="#000000" stroke-linecap="round" stroke-linejoin="round" d="M18.7968,5.3526
		c4.8803-1.0548,5.955,0.922,2.4164,4.4796c-0.4252,0.4276-0.907,0.8679-1.4419,1.3156"/>
	<path fill="none" stroke="#000000" stroke-linecap="round" stroke-linejoin="round" d="M2.8517,14.0674
		c-3.6095,3.6094-2.4846,5.6038,2.5004,4.4897c0.5884-0.1314,1.2176-0.3034,1.88-0.515"/>
	<path fill="none" stroke="#000000" stroke-linecap="round" stroke-linejoin="round" d="M19.5752,9.9788
		c-0.4315-1.6921-1.3919-3.1052-2.653-4.1246c-1.8903-1.528-4.3991-2.12-6.8248-1.5012C6.857,5.1794,4.6229,7.9269,4.2822,11.0666
		c-0.2938,2.7058,0.8177,5.3135,2.95,6.9755c4.1764-1.3342,9.16-4.0654,12.5391-6.8943
		C19.7329,10.759,19.6748,10.3689,19.5752,9.9788z"/>
	<circle fill="none" stroke="#000000" stroke-linecap="round" stroke-linejoin="round" cx="7.8694" cy="10.9907" r="1.2728"/>
	
		<circle fill="none" stroke="#000000" stroke-linecap="round" stroke-linejoin="round" stroke-miterlimit="10" cx="9.78" cy="8.0011" r="0.607"/>
</g>
<rect x="0.0172" y="0.0031" fill="none" width="24" height="24"/>
</svg>
