<?xml version="1.0" encoding="utf-8"?>
<!-- Generator: Adobe Illustrator 18.1.0, SVG Export Plug-In . SVG Version: 6.00 Build 0)  -->
<svg version="1.1" id="Layer_1" xmlns="http://www.w3.org/2000/svg" xmlns:xlink="http://www.w3.org/1999/xlink" x="0px" y="0px"
	 width="24px" height="24px" viewBox="0 0 24 24" enable-background="new 0 0 24 24" xml:space="preserve">
<g>
	<path d="M16.124,4.9517c-1.2744,0-2.3115-1.0376-2.3115-2.3125s1.0371-2.3125,2.3115-2.3125c1.2754,0,2.3125,1.0376,2.3125,2.3125
		S17.3994,4.9517,16.124,4.9517z M16.124,1.3267c-0.7236,0-1.3115,0.5889-1.3115,1.3125s0.5879,1.3125,1.3115,1.3125
		s1.3125-0.5889,1.3125-1.3125S16.8477,1.3267,16.124,1.3267z"/>
	<path d="M14.5088,23.6914c-0.2754,0-0.499-0.2227-0.5-0.499c0-0.041-0.0117-4.1865-0.0908-5.4863
		c-0.0078-0.1191-0.0566-0.2285-0.1416-0.3154l-2.9937-3.1543c-0.0288-0.0303-0.0537-0.0645-0.0742-0.1006
		c-0.3115-0.5605-0.3804-1.2324-0.189-1.8447l1.2622-4.0381c0.396-1.2661,1.6763-2.0449,2.9126-1.7739
		c1.3086,0.2881,2.0352,1.4893,1.8516,3.0596l-0.4219,3.436l3.3193,0.0518c0.2764,0.0039,0.4961,0.2314,0.4922,0.5078
		s-0.2178,0.4922-0.5078,0.4922l-3.876-0.0605c-0.1416-0.002-0.2764-0.0645-0.3691-0.1719
		c-0.0938-0.1064-0.1367-0.248-0.1191-0.3887l0.4893-3.9858c0.0459-0.3931,0.1055-1.7041-1.0732-1.9639
		c-0.7314-0.1582-1.5,0.3203-1.7432,1.0962l-1.2627,4.0381c-0.104,0.333-0.0737,0.6973,0.0815,1.0078l2.9399,3.0986
		c0.2471,0.251,0.3994,0.5908,0.4209,0.9492c0.0811,1.3281,0.0928,5.373,0.0928,5.5449c0.001,0.2754-0.2227,0.5-0.499,0.501H14.5088
		z"/>
	<path d="M8.3403,18.0352H3.771c-0.2764,0-0.5-0.2236-0.5-0.5s0.2236-0.5,0.5-0.5h4.3184l1.5957-2.1445
		c0.1641-0.2207,0.479-0.2656,0.6992-0.1025c0.2217,0.165,0.2676,0.4785,0.103,0.7002L8.7412,17.834
		C8.647,17.96,8.4985,18.0352,8.3403,18.0352z"/>
	<path d="M7.5156,11.0669c-0.0718,0-0.1445-0.0156-0.2139-0.0483c-0.2495-0.1182-0.356-0.4165-0.2373-0.666l1.9189-4.0469
		C9.0659,6.1313,9.2417,6.02,9.4351,6.02h1.9165c0.2764,0,0.5,0.2236,0.5,0.5s-0.2236,0.5-0.5,0.5H9.7515l-1.7837,3.7612
		C7.8823,10.9614,7.7031,11.0669,7.5156,11.0669z"/>
</g>
<rect x="0.0142" y="0.0346" fill="none" width="24" height="24"/>
</svg>
