<?xml version="1.0" encoding="utf-8"?>
<!-- Generator: Adobe Illustrator 18.1.0, SVG Export Plug-In . SVG Version: 6.00 Build 0)  -->
<svg version="1.1" id="Layer_1" xmlns="http://www.w3.org/2000/svg" xmlns:xlink="http://www.w3.org/1999/xlink" x="0px" y="0px"
	 width="24px" height="24px" viewBox="0 0 24 24" enable-background="new 0 0 24 24" xml:space="preserve">
<g>
	<path d="M12,23.6885h-0.0005c-3.1245,0-6.0591-1.2139-8.2627-3.417c-2.2036-2.2041-3.4175-5.1377-3.4175-8.2627
		c0-3.124,1.2139-6.0581,3.4175-8.2617s5.1377-3.4175,8.2622-3.4175c3.124,0,6.0586,1.2139,8.2617,3.4175
		c2.2041,2.2036,3.418,5.1377,3.418,8.2627c0,3.124-1.2129,6.0586-3.417,8.2617C18.0586,22.4746,15.124,23.6885,12,23.6885z
		 M11.999,1.3296c-2.8574,0-5.5405,1.1099-7.5552,3.1245s-3.1245,4.6978-3.1245,7.5547c0,2.8574,1.1099,5.541,3.1245,7.5557
		s4.6982,3.124,7.5557,3.124c2.8569,0,5.5405-1.1094,7.5552-3.124s3.124-4.6973,3.124-7.5547c0-2.8579-1.1104-5.541-3.125-7.5557
		S14.8564,1.3296,11.999,1.3296z"/>
	<path d="M7.9756,18.6006c-0.29,0-0.5674-0.1406-0.7417-0.376c-0.1729-0.2344-0.2222-0.5293-0.1362-0.8096l1.2324-4.0293
		l-3.394-2.5469c-0.3174-0.2393-0.4434-0.6372-0.3213-1.0146c0.1216-0.3765,0.4561-0.6255,0.8516-0.6338l4.2686-0.0859
		l1.4004-3.9844c0.1299-0.3711,0.4692-0.6118,0.8643-0.6118c0.394,0,0.7329,0.2402,0.8638,0.6118l1.3994,3.9844l4.2676,0.0859
		c0.3975,0.0088,0.7314,0.2583,0.8525,0.6353c0.1221,0.3765-0.0039,0.7739-0.3203,1.0127l-3.3945,2.5474l1.2334,4.0293
		c0.0859,0.2803,0.0361,0.5752-0.1357,0.8086c-0.1748,0.2363-0.4521,0.377-0.7432,0.377l0,0c-0.1836,0-0.3613-0.0557-0.5156-0.1621
		l-3.5078-2.415l-3.5063,2.415C8.3389,18.5449,8.1597,18.6006,7.9756,18.6006z M11.999,14.916c0.0986,0,0.1982,0.0293,0.2832,0.0879
		l3.6416,2.5078l-1.3154-4.1689c-0.0615-0.2012,0.0098-0.4199,0.1787-0.5469l3.4795-2.6104l-4.3701-0.0884
		c-0.209-0.0044-0.3926-0.1377-0.4619-0.3345l-1.4355-4.085l-1.4355,4.0854c-0.0693,0.1963-0.2529,0.3296-0.4614,0.334
		l-4.3706,0.0884l3.4795,2.6104c0.1685,0.127,0.2393,0.3457,0.1777,0.5469L8.124,17.4775l3.5913-2.4736
		C11.8008,14.9453,11.8999,14.916,11.999,14.916z"/>
</g>
<rect y="-0.0001" fill="none" width="24" height="24"/>
</svg>
