<?xml version="1.0" encoding="utf-8"?>
<!-- Generator: Adobe Illustrator 18.1.0, SVG Export Plug-In . SVG Version: 6.00 Build 0)  -->
<svg version="1.1" id="Layer_1" xmlns="http://www.w3.org/2000/svg" xmlns:xlink="http://www.w3.org/1999/xlink" x="0px" y="0px"
	 width="24px" height="24px" viewBox="0 0 24 24" enable-background="new 0 0 24 24" xml:space="preserve">
<g>
	<path d="M10.4648,21.9639H8.5073c-0.2764,0-0.5-0.2236-0.5-0.5V9.4849c0-0.2764,0.2236-0.5,0.5-0.5h1.9575
		c0.2764,0,0.5,0.2236,0.5,0.5v11.979C10.9648,21.7402,10.7412,21.9639,10.4648,21.9639z M9.0073,20.9639h0.9575V9.9849H9.0073
		V20.9639z"/>
	<path d="M5.4644,21.9639H3.5068c-0.2764,0-0.5-0.2236-0.5-0.5V9.4849c0-0.2764,0.2236-0.5,0.5-0.5h1.9575
		c0.2764,0,0.5,0.2236,0.5,0.5v11.979C5.9644,21.7402,5.7407,21.9639,5.4644,21.9639z M4.0068,20.9639h0.9575V9.9849H4.0068V20.9639
		z"/>
	<path d="M15.4658,21.9639h-1.958c-0.2764,0-0.5-0.2236-0.5-0.5V9.4849c0-0.2764,0.2236-0.5,0.5-0.5h1.958
		c0.2764,0,0.5,0.2236,0.5,0.5v11.979C15.9658,21.7402,15.7422,21.9639,15.4658,21.9639z M14.0078,20.9639h0.958V9.9849h-0.958
		V20.9639z"/>
	<path d="M20.4658,21.9639h-1.958c-0.2764,0-0.5-0.2236-0.5-0.5V9.4849c0-0.2764,0.2236-0.5,0.5-0.5h1.958
		c0.2764,0,0.5,0.2236,0.5,0.5v11.979C20.9658,21.7402,20.7422,21.9639,20.4658,21.9639z M19.0078,20.9639h0.958V9.9849h-0.958
		V20.9639z"/>
	<path d="M23.3779,8.0498c-0.0049,0.0005-0.0127,0.001-0.0195,0H0.6123c-0.2236,0-0.4199-0.1484-0.481-0.3633
		c-0.061-0.2153,0.0278-0.4448,0.2183-0.562l11.3838-7.0332c0.1616-0.0991,0.3652-0.0996,0.5254,0l11.29,6.9883
		c0.1924,0.0698,0.3291,0.2539,0.3291,0.4702C23.8779,7.8262,23.6543,8.0498,23.3779,8.0498z M2.373,7.0498h19.2275l-9.605-5.9453
		L2.373,7.0498z"/>
	<path d="M23.3584,23.9932H0.6123c-0.2764,0-0.5-0.2236-0.5-0.5s0.2236-0.5,0.5-0.5h22.7461c0.2764,0,0.5,0.2236,0.5,0.5
		S23.6348,23.9932,23.3584,23.9932z"/>
	<path d="M11.9854,6.0195c-0.8257,0-1.4976-0.6719-1.4976-1.4976s0.6719-1.4976,1.4976-1.4976c0.8252,0,1.4971,0.6719,1.4971,1.4976
		S12.8105,6.0195,11.9854,6.0195z M11.9854,4.0244c-0.2744,0-0.4976,0.2231-0.4976,0.4976s0.2231,0.4976,0.4976,0.4976
		s0.4971-0.2231,0.4971-0.4976S12.2598,4.0244,11.9854,4.0244z"/>
</g>
<rect x="-0.0136" y="0.0031" fill="none" width="24" height="24"/>
<rect x="-0.0136" fill="none" width="24" height="24"/>
</svg>
