<?xml version="1.0" encoding="utf-8"?>
<!-- Generator: Adobe Illustrator 18.1.0, SVG Export Plug-In . SVG Version: 6.00 Build 0)  -->
<svg version="1.1" id="Layer_1" xmlns="http://www.w3.org/2000/svg" xmlns:xlink="http://www.w3.org/1999/xlink" x="0px" y="0px"
	 width="24px" height="24px" viewBox="0 0 24 24" enable-background="new 0 0 24 24" xml:space="preserve">
<g>
	<path d="M8.5952,13.792c-1.0811,0-1.9604-0.8789-1.9604-1.96s0.8794-1.9604,1.9604-1.9604c1.0806,0,1.96,0.8794,1.96,1.9604
		S9.6758,13.792,8.5952,13.792z M8.5952,10.8716c-0.5298,0-0.9604,0.4307-0.9604,0.9604c0,0.5293,0.4307,0.96,0.9604,0.96
		c0.5293,0,0.96-0.4307,0.96-0.96C9.5552,11.3022,9.1245,10.8716,8.5952,10.8716z"/>
	<path d="M15.6689,13.792c-1.0811,0-1.96-0.8789-1.96-1.96s0.8789-1.9604,1.96-1.9604s1.9609,0.8794,1.9609,1.9604
		S16.75,13.792,15.6689,13.792z M15.6689,10.8716c-0.5293,0-0.96,0.4307-0.96,0.9604c0,0.5293,0.4307,0.96,0.96,0.96
		c0.5303,0,0.9609-0.4307,0.9609-0.96C16.6299,11.3022,16.1992,10.8716,15.6689,10.8716z"/>
	<path d="M16.75,23.8662c-0.2881,0-0.5586-0.1123-0.7617-0.3154l-1.5518-1.5518l-0.4629-0.3535l0.3535,0.3535l-1.5518,1.5518
		c-0.4053,0.4053-1.1147,0.4072-1.5229,0L9.7007,21.999l-0.4624-0.3535l0.3535,0.3535L8.04,23.5508
		c-0.4072,0.4062-1.1162,0.4062-1.5234,0L4.9648,21.999c-0.0005-0.001-0.0635,0-0.0938,0c-0.0088,0-0.0146,0-0.0146,0
		l-0.9751,0.9746c-0.2041,0.2041-0.4731,0.3174-0.7578,0.3174c-0.5957,0-1.0806-0.4834-1.0806-1.0781v-11.876
		c0-5.4312,4.3101-10.0029,9.6084-10.1914c5.6807-0.1953,10.334,4.3457,10.334,9.9644v12.103c0,0.3027-0.1201,0.5811-0.3379,0.7842
		c-0.2021,0.1895-0.4658,0.2939-0.7422,0.2939l0,0c-0.2852,0-0.5537-0.1133-0.7588-0.3174l-0.9746-0.9746c0,0.001-0.0703,0-0.0977,0
		c-0.0068,0-0.0107,0-0.0107,0l-1.5527,1.5518C17.3086,23.7539,17.0381,23.8662,16.75,23.8662z M14.3818,20.9766L14.3818,20.9766
		c0.2881,0,0.5586,0.1123,0.7617,0.3154l1.6064,1.5742c0.0137,0,0.0352-0.0039,0.0527-0.0215l1.5537-1.5527
		c0.4043-0.4062,1.1162-0.4062,1.5225,0l0.9756,0.9746c0.0869,0.0225,0.1309-0.0166,0.1309-0.0537v-12.103
		c0-5.0552-4.1777-9.1519-9.2988-8.9653C6.9204,1.3145,3.043,5.438,3.043,10.3369v11.876c0,0.0762,0.0796,0.0781,0.0806,0.0781
		l1.0259-0.999c0.4062-0.4062,1.1157-0.4062,1.5229,0l1.5518,1.5518H7.333l1.5518-1.5518c0.2036-0.2031,0.4741-0.3154,0.7617-0.3154
		l0,0c0.2876,0,0.5581,0.1123,0.7617,0.3154l1.5513,1.5518c0.0005,0,0.1089,0.001,0.1089,0l1.5518-1.5518
		C13.8232,21.0889,14.0938,20.9766,14.3818,20.9766z"/>
</g>
<rect x="0.0142" y="0.0354" fill="none" width="24" height="24"/>
</svg>
