<?xml version="1.0" encoding="utf-8"?>
<!-- Generator: Adobe Illustrator 18.1.0, SVG Export Plug-In . SVG Version: 6.00 Build 0)  -->
<svg version="1.1" id="Layer_1" xmlns="http://www.w3.org/2000/svg" xmlns:xlink="http://www.w3.org/1999/xlink" x="0px" y="0px"
	 width="24px" height="24px" viewBox="0 0 24 24" enable-background="new 0 0 24 24" xml:space="preserve">
<g>
	<path d="M12,18H4c-0.2764,0-0.5-0.2236-0.5-0.5S3.7236,17,4,17h8c0.2764,0,0.5,0.2236,0.5,0.5S12.2764,18,12,18z"/>
	<path d="M12,15H4c-0.2764,0-0.5-0.2236-0.5-0.5S3.7236,14,4,14h8c0.2764,0,0.5,0.2236,0.5,0.5S12.2764,15,12,15z"/>
	<path d="M12,12H4c-0.2764,0-0.5-0.2236-0.5-0.5S3.7236,11,4,11h8c0.2764,0,0.5,0.2236,0.5,0.5S12.2764,12,12,12z"/>
	<path d="M7,9H4C3.7236,9,3.5,8.7764,3.5,8.5S3.7236,8,4,8h3c0.2764,0,0.5,0.2236,0.5,0.5S7.2764,9,7,9z"/>
	<path d="M20.9902,23.9961h-0.001c-0.4346,0-0.8203-0.2949-0.9609-0.7324C18,17.6729,18,17.6152,18,17.5
		c0-0.2764,0.2236-0.5,0.5-0.5c0.2393,0,0.4395,0.168,0.4883,0.3926c0.0967,0.3184,1.2344,3.4756,1.9863,5.5479
		c0.7822-2.0732,1.9385-5.2295,2.0371-5.5498C23.0615,17.167,23.2617,17,23.5,17c0.2764,0,0.5,0.2236,0.5,0.5
		c0,0.1162,0,0.1738-2.0693,5.7842C21.7939,23.709,21.4219,23.9961,20.9902,23.9961z"/>
	<path d="M21.9395,22.126h-1.9512c-0.2764,0-0.5-0.2236-0.5-0.5s0.2236-0.5,0.5-0.5h1.9512c0.2764,0,0.5,0.2236,0.5,0.5
		S22.2158,22.126,21.9395,22.126z"/>
	<path d="M14.6992,24H1.3848C0.647,24,0,23.3955,0,22.7061V1.2939C0,0.6045,0.647,0,1.3848,0h10.1812
		c0.1333,0,0.2612,0.0532,0.355,0.1479l3.9346,3.9663C15.9482,4.208,16,4.3345,16,4.4663v18.2397C16,23.4199,15.416,24,14.6992,24z
		 M1.3848,1C1.2085,1,1,1.1592,1,1.2939v21.4121C1,22.8438,1.2051,23,1.3848,23h13.3145C14.8594,23,15,22.8623,15,22.7061V4.6724
		L11.3574,1H1.3848z"/>
	<path d="M15.4824,4.9663h-3.9165c-0.2764,0-0.5-0.2236-0.5-0.5V0.501c0-0.2764,0.2236-0.5,0.5-0.5s0.4995,0.2236,0.4995,0.5v3.4653
		h3.417c0.2764,0,0.5,0.2236,0.5,0.5S15.7588,4.9663,15.4824,4.9663z"/>
	<path d="M23.5,18h-5c-0.2764,0-0.5-0.2236-0.5-0.5V2.501C18,1.1221,19.1104,0,20.4746,0h1.125C22.9453,0,24,1.0986,24,2.501V17.5
		C24,17.7764,23.7764,18,23.5,18z M19,17h4V2.501C23,1.6455,22.3984,1,21.5996,1h-1.125C19.6475,1,19,1.6592,19,2.501V17z"/>
</g>
<rect fill="none" width="24" height="24"/>
</svg>
