<?xml version="1.0" encoding="utf-8"?>
<!-- Generator: Adobe Illustrator 18.1.0, SVG Export Plug-In . SVG Version: 6.00 Build 0)  -->
<svg version="1.1" id="Layer_1" xmlns="http://www.w3.org/2000/svg" xmlns:xlink="http://www.w3.org/1999/xlink" x="0px" y="0px"
	 width="24px" height="24px" viewBox="0 0 24 24" enable-background="new 0 0 24 24" xml:space="preserve">
<g>
	<path d="M15.501,12.0625C15.3633,12.0898,15.2178,12,15.123,11.8901L9.7432,5.6733C9.0928,4.8208,8.877,3.7666,9.1313,2.7573
		c0.3882-1.5449,1.792-2.6245,3.4136-2.6245c1.2188,0,2.3574,0.606,3.0205,1.5327c0.6641-0.9268,1.8027-1.5327,3.0215-1.5327
		c1.9404,0,3.5195,1.5483,3.5195,3.4517c0,0.811-0.293,1.5991-0.8242,2.2192L15.875,11.895
		C15.7803,12.002,15.6436,12.0625,15.501,12.0625z M12.5449,1.1328c-1.1626,0-2.1675,0.7686-2.4438,1.8687
		c-0.1797,0.7129-0.0273,1.457,0.418,2.042l4.9868,5.7612l5.0225-5.6587c0.3711-0.4321,0.5781-0.9893,0.5781-1.5615
		c0-1.3521-1.1299-2.4517-2.5195-2.4517c-1.1562,0-2.248,0.772-2.541,1.7959c-0.0605,0.2148-0.2568,0.3628-0.4805,0.3628l0,0
		c-0.2236,0-0.4199-0.1484-0.4805-0.3633C14.793,1.9048,13.7012,1.1328,12.5449,1.1328z"/>
	<path d="M16.0352,19.998H7.0356c-0.2764,0-0.5-0.2236-0.5-0.5s0.2236-0.5,0.5-0.5h8.9995c0.2764,0,0.5,0.2236,0.5,0.5
		S16.3115,19.998,16.0352,19.998z"/>
	<path d="M16.0352,16.998H7.0356c-0.2764,0-0.5-0.2236-0.5-0.5s0.2236-0.5,0.5-0.5h8.9995c0.2764,0,0.5,0.2236,0.5,0.5
		S16.3115,16.998,16.0352,16.998z"/>
	<path d="M11.0356,13.998h-4c-0.2764,0-0.5-0.2236-0.5-0.5s0.2236-0.5,0.5-0.5h4c0.2764,0,0.5,0.2236,0.5,0.5
		S11.312,13.998,11.0356,13.998z"/>
	<path d="M18.7676,23.9863H4.165c-0.6631,0-1.2026-0.5371-1.2026-1.1963V4.1665c0-0.6592,0.5396-1.1958,1.2026-1.1958h3.4092
		c0.2764,0,0.5,0.2236,0.5,0.5s-0.2236,0.5-0.5,0.5H4.165c-0.1118,0-0.2026,0.0879-0.2026,0.1958V22.79
		c0,0.1084,0.0908,0.1963,0.2026,0.1963h14.6025c0.1123,0,0.2031-0.0879,0.2031-0.1963v-11.272c0-0.2764,0.2236-0.5,0.5-0.5
		s0.5,0.2236,0.5,0.5V22.79C19.9707,23.4492,19.4307,23.9863,18.7676,23.9863z"/>
</g>
<rect y="-0.002" fill="none" width="24" height="24"/>
</svg>
