<?xml version="1.0" encoding="utf-8"?>
<!-- Generator: Adobe Illustrator 18.1.0, SVG Export Plug-In . SVG Version: 6.00 Build 0)  -->
<svg version="1.1" id="Layer_1" xmlns="http://www.w3.org/2000/svg" xmlns:xlink="http://www.w3.org/1999/xlink" x="0px" y="0px"
	 width="24px" height="24px" viewBox="0 0 24 24" enable-background="new 0 0 24 24" xml:space="preserve">
<g>
	<path d="M22.4756,12.501H1.6025c-0.2764,0-0.5-0.2236-0.5-0.5s0.2236-0.5,0.5-0.5h20.873c0.2764,0,0.5,0.2236,0.5,0.5
		S22.752,12.501,22.4756,12.501z"/>
	<path d="M7.5806,8.9873c-0.1357,0-0.271-0.0552-0.3696-0.1631c-0.186-0.2046-0.1714-0.5205,0.0327-0.7065l4.4331-4.0376
		c0.1914-0.1748,0.4824-0.1743,0.6738,0l4.4326,4.0376c0.2041,0.186,0.2188,0.502,0.0332,0.7065
		c-0.1875,0.2041-0.5029,0.2192-0.707,0.0327l-4.0957-3.731l-4.0962,3.731C7.8213,8.9443,7.7007,8.9873,7.5806,8.9873z"/>
	<path d="M12.0137,20.0068c-0.1206,0-0.2412-0.043-0.3369-0.1299l-4.4331-4.0381c-0.2041-0.1865-0.2188-0.5029-0.0327-0.707
		c0.1865-0.2041,0.5024-0.2178,0.7065-0.0332l4.0962,3.7314l4.0957-3.7305c0.2041-0.1865,0.5205-0.1719,0.7061,0.0322
		c0.1865,0.2041,0.1719,0.5205-0.0322,0.7061l-4.4326,4.0381C12.2549,19.9629,12.1348,20.0068,12.0137,20.0068z"/>
</g>
<rect y="0.0011" fill="none" width="24" height="24"/>
</svg>
