<?xml version="1.0" encoding="utf-8"?>
<!-- Generator: Adobe Illustrator 18.1.0, SVG Export Plug-In . SVG Version: 6.00 Build 0)  -->
<svg version="1.1" id="Layer_1" xmlns="http://www.w3.org/2000/svg" xmlns:xlink="http://www.w3.org/1999/xlink" x="0px" y="0px"
	 width="24px" height="24px" viewBox="0 0 24 24" enable-background="new 0 0 24 24" xml:space="preserve">
<g>
	<path d="M11.519,17.4111c-0.1128,0-0.2251-0.0371-0.3154-0.1113l-0.2144-0.1592c-0.9351-0.6865-3.7793-2.7773-4.7734-4.0703
		C5.0371,11.5366,4.6768,9.3682,5.145,6.6245c0.3726-2.1826,1.231-6.1616,1.2397-6.2017c0.0498-0.2305,0.2534-0.3945,0.4888-0.3945
		h9.2964c0.2354,0,0.4385,0.1641,0.4883,0.3945c0.0088,0.0396,0.8682,4.0195,1.2412,6.2017
		c0.4688,2.7446,0.1084,4.9131-1.0713,6.4458c-0.9932,1.291-3.8359,3.3809-4.7695,4.0674
		c-0.1162,0.0859-0.1929,0.1416-0.2188,0.1621C11.7471,17.374,11.6328,17.4111,11.519,17.4111z M7.2778,1.0283
		C7.0518,2.0884,6.4307,5.0352,6.1304,6.7925C5.7114,9.25,6.0068,11.1572,7.0088,12.4609c0.5972,0.7764,2.1152,2.0654,4.5132,3.8301
		c2.3979-1.7656,3.9165-3.0547,4.5132-3.8301c1.0029-1.3027,1.2979-3.21,0.8779-5.6685c-0.2998-1.7568-0.9209-4.7041-1.1475-5.7642
		H7.2778z"/>
	<path d="M11.522,24.0352c-0.2764,0-0.5-0.2236-0.5-0.5v-6.6211c0-0.2764,0.2236-0.5,0.5-0.5s0.4995,0.2236,0.4995,0.5v6.6211
		C12.0215,23.8115,11.7983,24.0352,11.522,24.0352z"/>
	<path d="M17.5586,24.0352H5.4849c-0.2764,0-0.5-0.2236-0.5-0.5s0.2236-0.5,0.5-0.5h12.0737c0.2764,0,0.5,0.2236,0.5,0.5
		S17.835,24.0352,17.5586,24.0352z"/>
	<path d="M17.5586,10.0283H5.4951c-0.2764,0-0.5-0.2236-0.5-0.5s0.2236-0.5,0.5-0.5h12.0635c0.2764,0,0.5,0.2236,0.5,0.5
		S17.835,10.0283,17.5586,10.0283z"/>
</g>
<rect x="0.0142" y="0.0346" fill="none" width="24" height="24"/>
</svg>
