<?xml version="1.0" encoding="utf-8"?>
<!-- Generator: Adobe Illustrator 18.1.0, SVG Export Plug-In . SVG Version: 6.00 Build 0)  -->
<svg version="1.1" id="Layer_1" xmlns="http://www.w3.org/2000/svg" xmlns:xlink="http://www.w3.org/1999/xlink" x="0px" y="0px"
	 width="24px" height="24px" viewBox="0 0 24 24" enable-background="new 0 0 24 24" xml:space="preserve">
<g>
	<path d="M18.584,23.9883H5.3608c-0.2578,0-0.4731-0.1963-0.4976-0.4531L3.3477,7.5767c-0.0264-0.2749,0.1753-0.519,0.4502-0.5449
		c0.2808-0.0366,0.519,0.1753,0.5449,0.4502l1.4727,15.5063h12.3135l1.4727-15.5063c0.0264-0.2754,0.2891-0.479,0.5449-0.4502
		c0.2754,0.0259,0.4766,0.27,0.4512,0.5449L19.082,23.5352C19.0576,23.792,18.8418,23.9883,18.584,23.9883z"/>
	<path d="M23.2988,10.7173c-0.1143,0-0.2285-0.0386-0.3213-0.1172l-11.0049-9.252l-11.0039,9.252
		c-0.2129,0.1772-0.5273,0.1494-0.7046-0.061c-0.1777-0.2114-0.1504-0.5269,0.061-0.7046L11.6509,0.312
		c0.1855-0.1562,0.4575-0.1562,0.6431,0l11.3262,9.5225c0.2119,0.1777,0.2393,0.4932,0.0615,0.7046
		C23.583,10.6567,23.4414,10.7173,23.2988,10.7173z"/>
	<path d="M11.9727,15.4531c-2.3691,0-4.2964-1.9268-4.2964-4.2959s1.9272-4.2964,4.2964-4.2964s4.2959,1.9272,4.2959,4.2964
		S14.3418,15.4531,11.9727,15.4531z M11.9727,7.8608c-1.8179,0-3.2964,1.4785-3.2964,3.2964c0,1.8174,1.4785,3.2959,3.2964,3.2959
		c1.8174,0,3.2959-1.4785,3.2959-3.2959C15.2686,9.3394,13.79,7.8608,11.9727,7.8608z"/>
	<path d="M11.9727,20.6514c-1.0254,0-1.8594-0.834-1.8594-1.8594s0.834-1.8594,1.8594-1.8594s1.8594,0.834,1.8594,1.8594
		S12.998,20.6514,11.9727,20.6514z M11.9727,17.9326c-0.4736,0-0.8594,0.3857-0.8594,0.8594s0.3857,0.8594,0.8594,0.8594
		s0.8594-0.3857,0.8594-0.8594S12.4463,17.9326,11.9727,17.9326z"/>
</g>
<rect x="0.0022" y="-0.0147" fill="none" width="24" height="24"/>
</svg>
