<?xml version="1.0" encoding="utf-8"?>
<!-- Generator: Adobe Illustrator 18.1.0, SVG Export Plug-In . SVG Version: 6.00 Build 0)  -->
<svg version="1.1" id="Layer_1" xmlns="http://www.w3.org/2000/svg" xmlns:xlink="http://www.w3.org/1999/xlink" x="0px" y="0px"
	 width="24px" height="24px" viewBox="0 0 24 24" enable-background="new 0 0 24 24" xml:space="preserve">
<g>
	<path d="M10.1484,16.542c-0.6294,0-1.1416-0.5117-1.1416-1.1406V8.6182c-0.0005-0.3164,0.125-0.6099,0.353-0.8252
		c0.396-0.375,1.0513-0.4126,1.4858-0.0723l4.3447,3.3911c0.2783,0.2173,0.4385,0.5444,0.4385,0.897
		c0,0.3535-0.1602,0.6807-0.4385,0.8984l-4.3442,3.3926C10.6431,16.458,10.4019,16.542,10.1484,16.542z M10.1646,8.502
		c-0.1045,0-0.1577,0.0601-0.1577,0.1157v6.7837c-0.0005,0.1729,0.1558,0.1621,0.2241,0.1094l4.3442-3.3926
		c0.0439-0.0342,0.0537-0.0781,0.0537-0.1094c0-0.0303-0.0098-0.0742-0.0537-0.1084l-4.3447-3.3916
		C10.2065,8.5039,10.1846,8.502,10.1646,8.502z"/>
	<path d="M23.5059,24.001H0.5054c-0.2764,0-0.5-0.2236-0.5-0.5V0.5c0-0.2764,0.2236-0.5,0.5-0.5h23.0005
		c0.2764,0,0.5,0.2236,0.5,0.5v23.001C24.0059,23.7773,23.7822,24.001,23.5059,24.001z M1.0054,23.001h22.0005V1H1.0054V23.001z"/>
	<path d="M23.4902,6H0.4961c-0.2764,0-0.5-0.2236-0.5-0.5S0.2197,5,0.4961,5h22.9941c0.2764,0,0.5,0.2236,0.5,0.5
		S23.7666,6,23.4902,6z"/>
	<path d="M23.4902,19.001H0.4961c-0.2764,0-0.5-0.2236-0.5-0.5s0.2236-0.5,0.5-0.5h22.9941c0.2764,0,0.5,0.2236,0.5,0.5
		S23.7666,19.001,23.4902,19.001z"/>
	<path d="M3.5059,22.002c-0.2764,0-0.5-0.2236-0.5-0.5v-1c0-0.2764,0.2236-0.5,0.5-0.5s0.5,0.2236,0.5,0.5v1
		C4.0059,21.7783,3.7822,22.002,3.5059,22.002z"/>
	<path d="M6.5063,22.002c-0.2764,0-0.5-0.2236-0.5-0.5v-1c0-0.2764,0.2236-0.5,0.5-0.5s0.5,0.2236,0.5,0.5v1
		C7.0063,21.7783,6.7827,22.002,6.5063,22.002z"/>
	<path d="M9.5063,22.002c-0.2764,0-0.5-0.2236-0.5-0.5v-1c0-0.2764,0.2236-0.5,0.5-0.5s0.5,0.2236,0.5,0.5v1
		C10.0063,21.7783,9.7827,22.002,9.5063,22.002z"/>
	<path d="M12.5068,22.002c-0.2764,0-0.5-0.2236-0.5-0.5v-1c0-0.2764,0.2236-0.5,0.5-0.5s0.5,0.2236,0.5,0.5v1
		C13.0068,21.7783,12.7832,22.002,12.5068,22.002z"/>
	<path d="M15.5068,22.002c-0.2764,0-0.5-0.2236-0.5-0.5v-1c0-0.2764,0.2236-0.5,0.5-0.5s0.5,0.2236,0.5,0.5v1
		C16.0068,21.7783,15.7832,22.002,15.5068,22.002z"/>
	<path d="M18.5078,22.002c-0.2764,0-0.5-0.2236-0.5-0.5v-1c0-0.2764,0.2236-0.5,0.5-0.5s0.5,0.2236,0.5,0.5v1
		C19.0078,21.7783,18.7842,22.002,18.5078,22.002z"/>
	<path d="M21.5078,22.002c-0.2764,0-0.5-0.2236-0.5-0.5v-1c0-0.2764,0.2236-0.5,0.5-0.5s0.5,0.2236,0.5,0.5v1
		C22.0078,21.7783,21.7842,22.002,21.5078,22.002z"/>
	<path d="M2.5059,4c-0.2764,0-0.5-0.2236-0.5-0.5v-1c0-0.2764,0.2236-0.5,0.5-0.5s0.5,0.2236,0.5,0.5v1
		C3.0059,3.7764,2.7822,4,2.5059,4z"/>
	<path d="M5.5059,4c-0.2764,0-0.5-0.2236-0.5-0.5v-1c0-0.2764,0.2236-0.5,0.5-0.5s0.5,0.2236,0.5,0.5v1
		C6.0059,3.7764,5.7822,4,5.5059,4z"/>
	<path d="M8.5063,4c-0.2764,0-0.5-0.2236-0.5-0.5v-1c0-0.2764,0.2236-0.5,0.5-0.5s0.5,0.2236,0.5,0.5v1
		C9.0063,3.7764,8.7827,4,8.5063,4z"/>
	<path d="M11.5068,4c-0.2764,0-0.5-0.2236-0.5-0.5v-1c0-0.2764,0.2236-0.5,0.5-0.5s0.5,0.2236,0.5,0.5v1
		C12.0068,3.7764,11.7832,4,11.5068,4z"/>
	<path d="M14.5068,4c-0.2764,0-0.5-0.2236-0.5-0.5v-1c0-0.2764,0.2236-0.5,0.5-0.5s0.5,0.2236,0.5,0.5v1
		C15.0068,3.7764,14.7832,4,14.5068,4z"/>
	<path d="M17.5068,4c-0.2764,0-0.5-0.2236-0.5-0.5v-1c0-0.2764,0.2236-0.5,0.5-0.5s0.5,0.2236,0.5,0.5v1
		C18.0068,3.7764,17.7832,4,17.5068,4z"/>
	<path d="M20.5078,4c-0.2764,0-0.5-0.2236-0.5-0.5v-1c0-0.2764,0.2236-0.5,0.5-0.5s0.5,0.2236,0.5,0.5v1
		C21.0078,3.7764,20.7842,4,20.5078,4z"/>
</g>
<rect x="-0.0136" y="0.0002" fill="none" width="24" height="24"/>
</svg>
