<?xml version="1.0" encoding="utf-8"?>
<!-- Generator: Adobe Illustrator 18.1.0, SVG Export Plug-In . SVG Version: 6.00 Build 0)  -->
<svg version="1.1" id="Layer_1" xmlns="http://www.w3.org/2000/svg" xmlns:xlink="http://www.w3.org/1999/xlink" x="0px" y="0px"
	 width="24px" height="24px" viewBox="0 0 24 24" enable-background="new 0 0 24 24" xml:space="preserve">
<g>
	<path d="M14.957,23.9746c-0.0381,0-0.0762-0.0039-0.1152-0.0137c-0.2686-0.0635-0.4346-0.333-0.3711-0.6016l3.6699-15.5234
		l-8.1123-1.9092L5.8521,23.5898c-0.064,0.2676-0.3301,0.4375-0.6021,0.3711c-0.2686-0.0635-0.4351-0.333-0.3716-0.6016
		L9.1699,5.2104c0.064-0.2686,0.332-0.4351,0.6016-0.3716l9.085,2.1382c0.1299,0.0303,0.2412,0.1108,0.3105,0.2236
		c0.0703,0.1133,0.0928,0.249,0.0615,0.3784l-3.7852,16.0107C15.3896,23.8193,15.1836,23.9746,14.957,23.9746z"/>
	<path d="M19.6514,8.1782c-0.0371,0-0.0762-0.0044-0.1143-0.0132L8.6338,5.5986C8.3652,5.5352,8.1987,5.2661,8.2617,4.9971
		C8.3252,4.7285,8.5962,4.562,8.8633,4.625l10.9023,2.5664c0.2695,0.0635,0.4355,0.3325,0.3721,0.6016
		C20.084,8.0229,19.8789,8.1782,19.6514,8.1782z"/>
	<path d="M10.5762,12.0801c-0.0381,0-0.0767-0.0039-0.1157-0.0137c-0.2686-0.0635-0.4351-0.3325-0.3716-0.6016l0.6763-2.8599
		c0.064-0.269,0.3281-0.4331,0.6021-0.3716c0.2686,0.064,0.4351,0.333,0.3716,0.6021l-0.6763,2.8599
		C11.0078,11.9253,10.8027,12.0801,10.5762,12.0801z"/>
	<path d="M12.8477,12.6152c-0.0381,0-0.0762-0.0039-0.1152-0.0137c-0.2686-0.0635-0.4346-0.333-0.3711-0.6016l0.6758-2.8599
		c0.0625-0.269,0.3291-0.4355,0.6016-0.3721c0.2686,0.0635,0.4346,0.333,0.3711,0.6016l-0.6758,2.8608
		C13.2803,12.46,13.0742,12.6152,12.8477,12.6152z"/>
	<path d="M15.1191,13.1494c-0.0381,0-0.0762-0.0039-0.1152-0.0137c-0.2686-0.0635-0.4346-0.333-0.3711-0.6016l0.6758-2.8594
		c0.0625-0.2695,0.3281-0.4341,0.6016-0.3721c0.2686,0.064,0.4346,0.333,0.3711,0.6016l-0.6758,2.8604
		C15.5518,12.9941,15.3457,13.1494,15.1191,13.1494z"/>
	<path d="M17.3477,7.6357c-0.0371,0-0.0762-0.0044-0.1143-0.0132l-6.2969-1.4819c-0.1289-0.0303-0.2407-0.1108-0.3105-0.2241
		c-0.0698-0.1128-0.0918-0.2485-0.0615-0.3779l1.104-4.6694c0.064-0.2671,0.3335-0.4312,0.6011-0.3716l6.2969,1.4819
		c0.1299,0.0303,0.2412,0.1108,0.3115,0.2241c0.0693,0.1128,0.0918,0.2485,0.0605,0.3779L17.834,7.251
		C17.7803,7.481,17.5742,7.6357,17.3477,7.6357z M11.6528,5.2817l5.3228,1.2529l0.875-3.6963l-5.3232-1.2529L11.6528,5.2817z"/>
	<path d="M19.082,3.1143c-0.0371,0-0.0762-0.0044-0.1143-0.0132l-7.5566-1.7778c-0.2686-0.0635-0.4351-0.3325-0.3721-0.6016
		c0.063-0.2686,0.3325-0.4351,0.6016-0.3721l7.5557,1.7778c0.2695,0.0635,0.4355,0.3325,0.3721,0.6016
		C19.5146,2.959,19.3096,3.1143,19.082,3.1143z"/>
	<path d="M12.626,6.5244c-0.0381,0-0.0762-0.0044-0.1152-0.0132c-0.2686-0.064-0.4346-0.333-0.3711-0.6021l0.5518-2.3345
		c0.0625-0.2686,0.3291-0.4346,0.6016-0.3716c0.2686,0.064,0.4346,0.333,0.3711,0.6021l-0.5518,2.3345
		C13.0586,6.3696,12.8525,6.5244,12.626,6.5244z"/>
	<path d="M14.1992,6.895c-0.0381,0-0.0762-0.0044-0.1152-0.0137c-0.2686-0.0635-0.4346-0.333-0.3711-0.6016l0.5527-2.335
		c0.0635-0.2686,0.3291-0.4346,0.6016-0.3711c0.2686,0.0635,0.4346,0.333,0.3711,0.6016l-0.5527,2.335
		C14.6309,6.7402,14.4258,6.895,14.1992,6.895z"/>
	<path d="M15.7734,7.2656c-0.0381,0-0.0762-0.0044-0.1152-0.0137c-0.2686-0.0635-0.4346-0.333-0.3711-0.6016l0.5527-2.335
		c0.0635-0.2686,0.3291-0.4355,0.6016-0.3711c0.2686,0.0635,0.4346,0.333,0.3711,0.6016l-0.5527,2.335
		C16.2051,7.1108,16,7.2656,15.7734,7.2656z"/>
	<path d="M18.2988,13.8975c-0.0371,0-0.0762-0.0039-0.1143-0.0137L7.2808,11.3188c-0.2686-0.0635-0.4351-0.3325-0.3721-0.6016
		c0.063-0.2686,0.3335-0.4351,0.6016-0.3721l10.9028,2.5659c0.2695,0.0625,0.4355,0.332,0.3721,0.6006
		C18.7314,13.7422,18.5264,13.8975,18.2988,13.8975z"/>
	<path d="M9.2393,17.7344c-0.0381,0-0.0767-0.0039-0.1157-0.0137c-0.2686-0.0635-0.4351-0.333-0.3716-0.6016l0.6606-2.7939
		c0.0635-0.2676,0.3301-0.4395,0.6021-0.3711c0.2686,0.0635,0.4351,0.333,0.3716,0.6016l-0.6606,2.7939
		C9.6709,17.5791,9.4658,17.7344,9.2393,17.7344z"/>
	<path d="M11.5107,18.2686c-0.0381,0-0.0767-0.0039-0.1157-0.0137c-0.2686-0.0635-0.4351-0.333-0.3716-0.6016l0.6606-2.7939
		c0.064-0.2676,0.3296-0.4395,0.6021-0.3711c0.2686,0.0635,0.4346,0.333,0.3711,0.6016l-0.6602,2.7939
		C11.9424,18.1133,11.7373,18.2686,11.5107,18.2686z"/>
	<path d="M13.7812,18.8037c-0.0381,0-0.0762-0.0039-0.1152-0.0137c-0.2686-0.0635-0.4346-0.333-0.3711-0.6016l0.6611-2.7939
		c0.0625-0.2686,0.3301-0.4404,0.6016-0.3711c0.2686,0.0635,0.4346,0.333,0.3711,0.6016l-0.6611,2.7939
		C14.2139,18.6484,14.0078,18.8037,13.7812,18.8037z"/>
	<path d="M16.9619,19.5518c-0.0371,0-0.0762-0.0039-0.1143-0.0137L5.9438,16.9717c-0.2686-0.0625-0.4351-0.332-0.3721-0.6006
		c0.063-0.2695,0.3335-0.4395,0.6016-0.3721l10.9028,2.5664c0.2695,0.0625,0.4355,0.332,0.3721,0.6006
		C17.3945,19.3965,17.1895,19.5518,16.9619,19.5518z"/>
	<path d="M19.543,23.9746H14.957c-0.2764,0-0.5-0.2236-0.5-0.5s0.2236-0.5,0.5-0.5h4.5859c0.2764,0,0.5,0.2236,0.5,0.5
		S19.8193,23.9746,19.543,23.9746z"/>
	<path d="M5.3652,23.9746H3.5679c-0.2764,0-0.5-0.2236-0.5-0.5s0.2236-0.5,0.5-0.5h1.7974c0.2764,0,0.5,0.2236,0.5,0.5
		S5.6416,23.9746,5.3652,23.9746z"/>
	<path fill="none" stroke="#000000" stroke-linecap="round" stroke-linejoin="round" d="M14.9567,23.4748"/>
	<path fill="none" stroke="#000000" stroke-linecap="round" stroke-linejoin="round" d="M5.3653,23.4748"/>
	<path d="M7.7671,23.9414c-0.0386,0-0.0771-0.0039-0.1162-0.0137c-0.2686-0.0635-0.4346-0.333-0.3706-0.6016l0.7959-3.3477
		c0.0645-0.2695,0.3345-0.4355,0.6021-0.3711c0.2686,0.0635,0.4346,0.333,0.3706,0.6016l-0.7959,3.3477
		C8.1982,23.7871,7.9932,23.9414,7.7671,23.9414z"/>
	<path d="M10.1616,23.9746c-0.0381,0-0.0767-0.0039-0.1157-0.0137c-0.2686-0.0635-0.4351-0.333-0.3716-0.6016l0.6729-2.8457
		c0.064-0.2676,0.3286-0.4395,0.6021-0.3711c0.2686,0.0635,0.4351,0.333,0.3716,0.6016l-0.6729,2.8457
		C10.5933,23.8193,10.3882,23.9746,10.1616,23.9746z"/>
	<path d="M12.5586,23.9746c-0.0381,0-0.0762-0.0039-0.1152-0.0137c-0.2686-0.0635-0.4346-0.333-0.3711-0.6016l0.5469-2.3115
		c0.0625-0.2686,0.3301-0.4404,0.6016-0.3711c0.2686,0.0635,0.4346,0.333,0.3711,0.6016l-0.5469,2.3115
		C12.9912,23.8193,12.7852,23.9746,12.5586,23.9746z"/>
</g>
<rect x="-0.0136" fill="none" width="24" height="24"/>
</svg>
