<?xml version="1.0" encoding="utf-8"?>
<!-- Generator: Adobe Illustrator 18.1.0, SVG Export Plug-In . SVG Version: 6.00 Build 0)  -->
<svg version="1.1" id="Layer_1" xmlns="http://www.w3.org/2000/svg" xmlns:xlink="http://www.w3.org/1999/xlink" x="0px" y="0px"
	 width="24px" height="24px" viewBox="0 0 24 24" enable-background="new 0 0 24 24" xml:space="preserve">
<g>
	<path d="M11.9863,17.8291c-0.2764,0-0.5-0.2236-0.5-0.5V3.6045c0-0.2764,0.2236-0.5,0.5-0.5s0.5,0.2236,0.5,0.5v13.7246
		C12.4863,17.6055,12.2627,17.8291,11.9863,17.8291z"/>
	<path d="M11.9863,17.8291c-0.1333,0-0.2612-0.0537-0.355-0.1484l-4.3281-4.3682c-0.1943-0.1953-0.1929-0.5127,0.0029-0.707
		c0.1968-0.1953,0.5137-0.1914,0.707,0.0039l3.9731,4.0098l3.9727-4.0098c0.1943-0.1953,0.5127-0.1992,0.707-0.0039
		c0.1963,0.1943,0.1982,0.5117,0.0039,0.707l-4.3281,4.3682C12.248,17.7754,12.1201,17.8291,11.9863,17.8291z"/>
	<path d="M21.0947,24H2.8784c-1.5947,0-2.8921-1.2969-2.8921-2.8916V2.8916C-0.0137,1.2974,1.2837,0,2.8784,0h18.2163
		c1.5947,0,2.8916,1.2974,2.8916,2.8916v18.2168C23.9863,22.7031,22.6895,24,21.0947,24z M2.8784,1
		C1.835,1,0.9863,1.8486,0.9863,2.8916v18.2168C0.9863,22.1514,1.835,23,2.8784,23h18.2163c1.043,0,1.8916-0.8486,1.8916-1.8916
		V2.8916C22.9863,1.8486,22.1377,1,21.0947,1H2.8784z"/>
	<path d="M19.3906,21H4.5562c-0.2764,0-0.5-0.2236-0.5-0.5s0.2236-0.5,0.5-0.5h14.8345c0.2764,0,0.5,0.2236,0.5,0.5
		S19.667,21,19.3906,21z"/>
</g>
<rect x="-0.0136" y="0.0002" fill="none" width="24" height="24"/>
</svg>
