<?xml version="1.0" encoding="utf-8"?>
<!-- Generator: Adobe Illustrator 18.1.0, SVG Export Plug-In . SVG Version: 6.00 Build 0)  -->
<svg version="1.1" id="Layer_1" xmlns="http://www.w3.org/2000/svg" xmlns:xlink="http://www.w3.org/1999/xlink" x="0px" y="0px"
	 width="24px" height="24px" viewBox="0 0 24 24" enable-background="new 0 0 24 24" xml:space="preserve">
<g>
	<path d="M15.29,21.0176h-1.0977c-0.6562,0-1.1904-0.5537-1.1904-1.2334v-1.5146c0-0.6797,0.5342-1.2334,1.1904-1.2334h3.6191
		c0.6562,0,1.1904,0.5537,1.1904,1.2334v1.5146c0,0.4854-0.2764,0.9277-0.7051,1.126c-0.248,0.1191-0.5479,0.0078-0.6631-0.2422
		c-0.1162-0.251-0.0078-0.5479,0.2422-0.6641c0.0625-0.0293,0.126-0.1084,0.126-0.2197v-1.5146c0-0.1289-0.085-0.2334-0.1904-0.2334
		h-3.6191c-0.1055,0-0.1904,0.1045-0.1904,0.2334v1.5146c0,0.1289,0.085,0.2334,0.1904,0.2334H15.29c0.2764,0,0.5,0.2236,0.5,0.5
		S15.5664,21.0176,15.29,21.0176z"/>
	<path d="M19.9199,22.9961h-1.418c-1.8916,0-3.5205-1.2666-3.9609-3.0801c-0.083-0.3438-0.0039-0.7012,0.2168-0.9814
		c0.2256-0.2871,0.5654-0.4521,0.9326-0.4521h0.6592c0.5117,0,0.9707,0.3301,1.1152,0.8018
		c0.1357,0.4443,0.5625,0.7549,1.0371,0.7549h1.4189c0.5986,0,1.085-0.4756,1.085-1.0596V0.48c0-0.2764,0.2236-0.5,0.5-0.5h1.9893
		c0.2764,0,0.5,0.2236,0.5,0.5v18.4995C23.9951,21.1943,22.167,22.9961,19.9199,22.9961z M15.6904,19.4824
		c-0.083,0-0.1299,0.0498-0.1475,0.0703c-0.0205,0.0273-0.043,0.0713-0.0293,0.1279c0.3311,1.3633,1.5596,2.3154,2.9883,2.3154
		h1.418c1.6953,0,3.0752-1.3535,3.0752-3.0166V0.98h-0.9893v17.9995c0,1.1357-0.9355,2.0596-2.085,2.0596H18.502
		c-0.9102,0-1.7295-0.6016-1.9941-1.4619c-0.0156-0.0537-0.084-0.0947-0.1582-0.0947H15.6904z"/>
	<path d="M13.6641,13.3125L13.6641,13.3125c-1.5859,0-2.3799-1.5063-2.7617-2.2305c-0.1694-0.3223-0.2798-0.666-0.377-0.9692
		c-0.2549-0.7964-0.3789-1.0537-0.8755-1.0537c-0.0088,0-0.1182-0.002-0.124,0.002c-0.5493,0.0244-0.6797,0.21-0.9497,1.0513
		c-0.0972,0.3037-0.2075,0.6475-0.377,0.9692c-0.4111,0.7798-1.1763,2.231-2.7612,2.231c-0.2231,0-0.4561-0.0303-0.6929-0.0889
		c-1.1357-0.2861-2.4717-0.7949-2.7212-2.2109C1.8862,10.2334,1.813,7.583,2.8115,6.3926c0.4048-0.4824,0.9341-0.7036,1.5786-0.623
		C5.3145,5.8877,7.292,5.9609,9.5508,5.9609s4.2363-0.0732,5.1611-0.1914c0.6445-0.0791,1.1738,0.1406,1.5781,0.6226
		c0.998,1.1895,0.9258,3.8408,0.7881,4.6206c-0.25,1.416-1.5859,1.9248-2.7217,2.2109
		C14.1201,13.2822,13.8867,13.3125,13.6641,13.3125z M9.6499,8.0591c1.2681,0,1.5918,1.0107,1.8281,1.7485
		c0.0889,0.2773,0.1807,0.5635,0.3091,0.8081c0.4326,0.8208,0.9707,1.6968,1.877,1.6968l0,0c0.1406,0,0.292-0.0195,0.4482-0.0596
		c1.5928-0.3999,1.8936-0.916,1.9814-1.4141c0.125-0.7114,0.1396-2.9585-0.5703-3.8042c-0.1895-0.2256-0.4033-0.3091-0.6846-0.2729
		c-0.9639,0.1226-2.9902,0.1992-5.2881,0.1992S5.2271,6.8843,4.2632,6.7617C3.9839,6.7275,3.7676,6.8086,3.5776,7.0352
		c-0.71,0.8462-0.6948,3.0928-0.5693,3.8037c0.0879,0.4985,0.3887,1.0146,1.981,1.4141c1.1641,0.2979,1.8247-0.6885,2.3252-1.6377
		c0.1289-0.2441,0.2207-0.5308,0.3096-0.8081c0.2363-0.7378,0.5605-1.748,1.8276-1.748c0.0083,0,0.1157,0.0024,0.124,0.0029
		L9.6499,8.0591z"/>
	<path d="M9.5508,16.2168c-2.5928,0-7.9956-2.7998-8.2241-2.9189c-1.3853-0.7207-1.1333-2.7319-0.7847-5.5161l0.1099-0.8911
		c0.3633-3.0142,6.0918-3.3398,8.5381-3.3398c0.2158,0,0.3481,0.0034,0.3716,0.0039c0.002-0.0005,0.1343-0.0039,0.3501-0.0039
		c2.4458,0,8.1753,0.3257,8.5376,3.3398l0.1104,0.8911c0.3486,2.7842,0.6006,4.7954-0.7852,5.5161
		C17.5469,13.417,12.1455,16.2168,9.5508,16.2168z M9.1899,4.5508c-3.3438,0-7.3262,0.644-7.5449,2.459l-0.1108,0.896
		c-0.2871,2.2939-0.5142,4.106,0.2539,4.5054c1.8628,0.9707,5.8818,2.8057,7.7627,2.8057c1.8823,0,5.9004-1.835,7.7617-2.8057
		c0.7686-0.3994,0.542-2.2114,0.2549-4.5054l-0.1104-0.896c-0.2188-1.8149-4.2012-2.459-7.5454-2.459L9.5649,4.5547L9.1899,4.5508z"
		/>
	<path d="M23.4951,6.0352h-1.9893c-0.2764,0-0.5-0.2236-0.5-0.5s0.2236-0.5,0.5-0.5h1.9893c0.2764,0,0.5,0.2236,0.5,0.5
		S23.7715,6.0352,23.4951,6.0352z"/>
	<path d="M3.9971,10.0332c-0.1279,0-0.2559-0.0488-0.3535-0.1465c-0.1953-0.1953-0.1953-0.5117,0-0.707l1.686-1.686
		c0.1953-0.1953,0.5117-0.1953,0.707,0s0.1953,0.5117,0,0.707l-1.686,1.686C4.2529,9.9844,4.125,10.0332,3.9971,10.0332z"/>
	<path d="M5.4727,10.7075c-0.1279,0-0.2559-0.0488-0.3535-0.1465c-0.1953-0.1953-0.1953-0.5122,0-0.707l0.8594-0.8589
		c0.1953-0.1953,0.5117-0.1953,0.707,0s0.1953,0.5122,0,0.707L5.8262,10.561C5.7285,10.6587,5.6006,10.7075,5.4727,10.7075z"/>
</g>
<rect y="0.0354" fill="none" width="24" height="24"/>
</svg>
