<?xml version="1.0" encoding="utf-8"?>
<!-- Generator: Adobe Illustrator 18.1.0, SVG Export Plug-In . SVG Version: 6.00 Build 0)  -->
<svg version="1.1" id="Layer_1" xmlns="http://www.w3.org/2000/svg" xmlns:xlink="http://www.w3.org/1999/xlink" x="0px" y="0px"
	 width="24px" height="24px" viewBox="0 0 24 24" enable-background="new 0 0 24 24" xml:space="preserve">
<g>
	<path d="M1.5142,23.9941c-0.2764,0-0.5-0.2236-0.5-0.5v-2.959c0-0.2764,0.2236-0.5,0.5-0.5s0.5,0.2236,0.5,0.5v2.959
		C2.0142,23.7705,1.7905,23.9941,1.5142,23.9941z"/>
	<path d="M22.5146,23.9941c-0.2764,0-0.5-0.2236-0.5-0.5v-2.959c0-0.2764,0.2236-0.5,0.5-0.5s0.5,0.2236,0.5,0.5v2.959
		C23.0146,23.7705,22.791,23.9941,22.5146,23.9941z"/>
	<path d="M22.5146,21.0352H1.5142c-0.2764,0-0.5-0.2236-0.5-0.5v-5c0-0.2764,0.2236-0.5,0.5-0.5h21.0005
		c0.2764,0,0.5,0.2236,0.5,0.5v5C23.0146,20.8115,22.791,21.0352,22.5146,21.0352z M2.0142,20.0352h20.0005v-4H2.0142V20.0352z"/>
	<path d="M22.5146,16.0352H1.5142c-0.2764,0-0.5-0.2236-0.5-0.5v-5c0-0.2764,0.2236-0.5,0.5-0.5h21.0005
		c0.2764,0,0.5,0.2236,0.5,0.5v5C23.0146,15.8115,22.791,16.0352,22.5146,16.0352z M2.0142,15.0352h20.0005v-4H2.0142V15.0352z"/>
	<path d="M13.0146,13.0352h-2.0005c-0.2764,0-0.5-0.2236-0.5-0.5s0.2236-0.5,0.5-0.5h2.0005c0.2764,0,0.5,0.2236,0.5,0.5
		S13.291,13.0352,13.0146,13.0352z"/>
	<path d="M13.0146,18.0352h-2.0005c-0.2764,0-0.5-0.2236-0.5-0.5s0.2236-0.5,0.5-0.5h2.0005c0.2764,0,0.5,0.2236,0.5,0.5
		S13.291,18.0352,13.0146,18.0352z"/>
	<path d="M23.5146,11.0352H0.5142c-0.2764,0-0.5-0.2236-0.5-0.5v-2c0-0.2764,0.2236-0.5,0.5-0.5h23.0005
		c0.2764,0,0.5,0.2236,0.5,0.5v2C24.0146,10.8115,23.791,11.0352,23.5146,11.0352z M1.0142,10.0352h22.0005v-1H1.0142V10.0352z"/>
</g>
<rect x="0.0142" y="0.0354" fill="none" width="24" height="24"/>
</svg>
