<?xml version="1.0" encoding="utf-8"?>
<!-- Generator: Adobe Illustrator 18.1.0, SVG Export Plug-In . SVG Version: 6.00 Build 0)  -->
<svg version="1.1" id="Layer_1" xmlns="http://www.w3.org/2000/svg" xmlns:xlink="http://www.w3.org/1999/xlink" x="0px" y="0px"
	 width="24px" height="24px" viewBox="0 0 24 24" enable-background="new 0 0 24 24" xml:space="preserve">
<g>
	<path d="M23.4824,21.0527c-0.2764,0-0.5-0.2236-0.5-0.5v-1.9229c0-0.2764,0.2236-0.5,0.5-0.5s0.5,0.2236,0.5,0.5v1.9229
		C23.9824,20.8291,23.7588,21.0527,23.4824,21.0527z"/>
	<path d="M23.4824,14.9268c-0.2764,0-0.5-0.2236-0.5-0.5v-1.875c0-0.2764,0.2236-0.5,0.5-0.5s0.5,0.2236,0.5,0.5v1.875
		C23.9824,14.7031,23.7588,14.9268,23.4824,14.9268z"/>
	<path d="M6.5259,9.9878c-0.2759,0-0.4995-0.2231-0.5-0.499l-0.0132-5.605c0-0.4673-0.5132-0.5034-0.6704-0.5034
		c-0.269,0-0.4897-0.2129-0.4995-0.4814L4.769,0.9116C4.7637,0.7759,4.8145,0.644,4.9087,0.5459
		c0.0942-0.0977,0.2241-0.1528,0.3599-0.1528h0.6143c1.689,0,3.063,1.3594,3.063,3.0298v6.0649c0,0.2764-0.2236,0.5-0.5,0.5
		s-0.5-0.2236-0.5-0.5V3.4229c0-1.1001-0.9448-2.0298-2.063-2.0298H5.7876L5.8262,2.437c0.7095,0.1733,1.1865,0.7285,1.1865,1.4458
		l0.0132,5.604c0.0005,0.2759-0.2227,0.5005-0.499,0.501C6.5269,9.9878,6.5264,9.9878,6.5259,9.9878z"/>
	<path d="M22.2461,17.7373h-1.1777c-0.2764,0-0.5-0.2236-0.5-0.5s0.2236-0.5,0.5-0.5h1.1777c0.1875,0,0.3408-0.1406,0.3408-0.3145
		s-0.1533-0.3145-0.3408-0.3145h-1.2305c-0.2764,0-0.5-0.2236-0.5-0.5s0.2236-0.5,0.5-0.5h1.2305
		c0.7393,0,1.3408,0.5898,1.3408,1.3145S22.9854,17.7373,22.2461,17.7373z"/>
	<path d="M4.7852,21.0527L4.7852,21.0527c-2.5571,0-4.6377-2.0234-4.6377-4.5098c0-2.1396,1.543-3.9619,3.6558-4.4053V10.209
		c0-0.6577,0.5352-1.1948,1.1929-1.1973h5.7744c0.6636,0,1.2002,0.5371,1.2002,1.1973v1.8232h5.0771
		c2.4854,0,4.5078,2.0225,4.5078,4.5078s-2.0225,4.5068-4.5078,4.5068L4.7852,21.0527z M10.7739,10.0117H4.998
		c-0.1064,0.0005-0.1948,0.0889-0.1948,0.1973v2.3535c0,0.2539-0.1909,0.4678-0.4434,0.4971
		c-1.8315,0.208-3.2124,1.7061-3.2124,3.4834c0,1.9355,1.6318,3.5098,3.6377,3.5098l12.2627-0.0059
		c1.9346,0,3.5078-1.5732,3.5078-3.5068c0-1.9346-1.5732-3.5078-3.5078-3.5078h-5.5771c-0.2764,0-0.5-0.2236-0.5-0.5V10.209
		C10.9707,10.1001,10.8823,10.0117,10.7739,10.0117z"/>
	<path d="M5.4707,17.9736c-0.8115,0-1.4722-0.6602-1.4722-1.4717c0-0.8125,0.6606-1.4727,1.4722-1.4727s1.4722,0.6602,1.4722,1.4727
		C6.9429,17.3135,6.2822,17.9736,5.4707,17.9736z M5.4707,16.0293c-0.2603,0-0.4722,0.2119-0.4722,0.4727
		c0,0.2598,0.2119,0.4717,0.4722,0.4717s0.4722-0.2119,0.4722-0.4717C5.9429,16.2412,5.731,16.0293,5.4707,16.0293z"/>
	<path d="M9.4712,17.9736c-0.8115,0-1.4722-0.6602-1.4722-1.4717c0-0.8125,0.6606-1.4727,1.4722-1.4727s1.4722,0.6602,1.4722,1.4727
		C10.9434,17.3135,10.2827,17.9736,9.4712,17.9736z M9.4712,16.0293c-0.2603,0-0.4722,0.2119-0.4722,0.4727
		c0,0.2598,0.2119,0.4717,0.4722,0.4717s0.4722-0.2119,0.4722-0.4717C9.9434,16.2412,9.7314,16.0293,9.4712,16.0293z"/>
	<path d="M13.4717,17.9736c-0.8125,0-1.4727-0.6602-1.4727-1.4717c0-0.8125,0.6602-1.4727,1.4727-1.4727
		c0.8115,0,1.4717,0.6602,1.4717,1.4727C14.9434,17.3135,14.2832,17.9736,13.4717,17.9736z M13.4717,16.0293
		c-0.2607,0-0.4727,0.2119-0.4727,0.4727c0,0.2598,0.2119,0.4717,0.4727,0.4717c0.2598,0,0.4717-0.2119,0.4717-0.4717
		C13.9434,16.2412,13.7314,16.0293,13.4717,16.0293z"/>
</g>
<rect y="0.0354" fill="none" width="24" height="24"/>
</svg>
