<?xml version="1.0" encoding="utf-8"?>
<!-- Generator: Adobe Illustrator 18.1.0, SVG Export Plug-In . SVG Version: 6.00 Build 0)  -->
<svg version="1.1" id="Layer_1" xmlns="http://www.w3.org/2000/svg" xmlns:xlink="http://www.w3.org/1999/xlink" x="0px" y="0px"
	 width="24px" height="24px" viewBox="0 0 24 24" enable-background="new 0 0 24 24" xml:space="preserve">
<g>
	<path d="M11.5308,21.998c-0.2764,0-0.5-0.2236-0.5-0.5V10.5269c0-0.2764,0.2236-0.5,0.5-0.5s0.5005,0.2236,0.5005,0.5V21.498
		C12.0312,21.7744,11.8071,21.998,11.5308,21.998z"/>
	<path d="M11.5308,21.998c-0.1357,0-0.2656-0.0547-0.3599-0.1523l-2.9463-3.0518c-0.1914-0.1992-0.186-0.5156,0.0127-0.707
		c0.1992-0.1914,0.5156-0.1855,0.707,0.0117l2.5864,2.6797l2.5864-2.6797c0.1914-0.1973,0.5078-0.2031,0.707-0.0117
		c0.1982,0.1914,0.2041,0.5078,0.0117,0.707l-2.9453,3.0518C11.7964,21.9434,11.6665,21.998,11.5308,21.998z"/>
	<path d="M18.5771,16.0176h-3.5439c-0.2764,0-0.5-0.2236-0.5-0.5s0.2236-0.5,0.5-0.5h3.5439c2.2041,0,4.0654-1.6982,4.0654-3.7075
		c0-0.9595-0.4443-1.9131-1.2188-2.6162c-0.8789-0.7974-2.0908-1.1895-3.3193-1.0684c-0.2324,0.021-0.4551-0.1235-0.5254-0.3496
		c-0.4609-1.4907-1.96-3.1113-4.6758-2.7788c-0.1396,0.0142-0.2764-0.0239-0.3828-0.1128c-1.542-1.2915-3.5688-1.6519-5.4204-0.9673
		C5.1968,4.1226,3.855,5.7827,3.5107,7.8584C3.4873,8.001,3.4023,8.127,3.2788,8.2026c-1.5874,0.9731-2.2695,2.4971-1.8242,4.0757
		c0.3848,1.3633,1.6821,2.7393,3.7139,2.7393h2.811c0.2764,0,0.5,0.2236,0.5,0.5s-0.2236,0.5-0.5,0.5h-2.811
		c-2.2119,0-4.0913-1.3936-4.6763-3.4678c-0.4307-1.5269-0.1006-3.6406,2.0728-5.0776c0.4604-2.3306,2.0122-4.1865,4.1875-4.9927
		c2.1255-0.7871,4.4424-0.4106,6.2427,1.002c2.8008-0.2573,4.6797,1.3154,5.4062,3.125c1.3711-0.0396,2.7021,0.4463,3.6953,1.3472
		c0.9824,0.8921,1.5459,2.1157,1.5459,3.3564C23.6426,13.8613,21.3232,16.0176,18.5771,16.0176z"/>
</g>
<rect y="0.0001" fill="none" width="24" height="24"/>
</svg>
