<?xml version="1.0" encoding="utf-8"?>
<!-- Generator: Adobe Illustrator 18.1.0, SVG Export Plug-In . SVG Version: 6.00 Build 0)  -->
<svg version="1.1" id="Layer_1" xmlns="http://www.w3.org/2000/svg" xmlns:xlink="http://www.w3.org/1999/xlink" x="0px" y="0px"
	 width="24px" height="24px" viewBox="0 0 24 24" enable-background="new 0 0 24 24" xml:space="preserve">
<g>
	<path d="M10.498,23.666c-0.8193,0-1.7007-0.7393-1.7007-2.3623c0-1.1328,0.5137-3.3535,1.7007-3.3535s1.7002,2.2207,1.7002,3.3535
		C12.1982,22.9268,11.3174,23.666,10.498,23.666z M10.4688,18.9453c-0.188,0.1045-0.6714,1.2373-0.6714,2.3584
		c0,0.7891,0.2949,1.3623,0.7007,1.3623s0.7007-0.5732,0.7007-1.3623C11.1987,20.1826,10.7153,19.0498,10.4688,18.9453z"/>
	<path d="M10.498,6.021c-1.187,0-1.7007-2.2212-1.7007-3.354c0-1.623,0.8813-2.3623,1.7007-2.3623s1.7002,0.7393,1.7002,2.3623
		C12.1982,3.7998,11.6851,6.021,10.498,6.021z M10.498,1.3047c-0.4058,0-0.7007,0.5728-0.7007,1.3623
		c0,1.0786,0.4473,2.1675,0.7007,2.3423c0.2534-0.1748,0.7007-1.2637,0.7007-2.3423C11.1987,1.8774,10.9038,1.3047,10.498,1.3047z"
		/>
	<path d="M10.498,21.3076c-0.2764,0-0.5-0.2236-0.5-0.5V3.1626c0-0.2764,0.2236-0.5,0.5-0.5s0.5,0.2236,0.5,0.5v17.645
		C10.998,21.084,10.7744,21.3076,10.498,21.3076z"/>
	<path d="M5.498,23.666c-0.8193,0-1.7007-0.7393-1.7007-2.3623c0-1.1328,0.5137-3.3535,1.7007-3.3535s1.7007,2.2207,1.7007,3.3535
		C7.1987,22.9268,6.3174,23.666,5.498,23.666z M5.4688,18.9453c-0.188,0.1045-0.6714,1.2373-0.6714,2.3584
		c0,0.7891,0.2949,1.3623,0.7007,1.3623s0.7007-0.5732,0.7007-1.3623C6.1987,20.1826,5.7153,19.0498,5.4688,18.9453z"/>
	<path d="M5.4976,6.021c-1.187,0-1.7002-2.2212-1.7002-3.354c0-1.623,0.8813-2.3623,1.7007-2.3623
		c0.8188,0,1.7002,0.7393,1.7002,2.3623C7.1982,3.7998,6.6846,6.021,5.4976,6.021z M5.498,1.3047
		c-0.4058,0-0.7007,0.5728-0.7007,1.3623c0,1.0786,0.4468,2.1675,0.7002,2.3423C5.751,4.835,6.1982,3.7461,6.1982,2.667
		C6.1982,1.8774,5.9038,1.3047,5.498,1.3047z"/>
	<path d="M5.498,21.3076c-0.2764,0-0.5-0.2236-0.5-0.5V3.1626c0-0.2764,0.2236-0.5,0.5-0.5s0.5,0.2236,0.5,0.5v17.645
		C5.998,21.084,5.7744,21.3076,5.498,21.3076z"/>
	<path d="M17.0078,22.1816c-0.0977,0-0.1953-0.0283-0.2822-0.0869c-0.2275-0.1562-0.2861-0.4668-0.1309-0.6953
		c6.8262-10.0005,0.0898-18.7114,0.0215-18.7983c-0.1719-0.2163-0.1357-0.5308,0.0811-0.7021
		c0.2158-0.1724,0.5303-0.1357,0.7021,0.0811c0.0732,0.0923,7.2578,9.3818,0.0215,19.9839
		C17.3242,22.1055,17.167,22.1816,17.0078,22.1816z"/>
	<path d="M17.0078,22.1816c-0.1592,0-0.3164-0.0762-0.4131-0.2178C9.3574,11.3618,16.543,2.0723,16.6162,1.98
		c0.1719-0.2153,0.4844-0.252,0.7021-0.0815c0.2158,0.1714,0.2529,0.4858,0.0811,0.7021c-0.2803,0.3555-6.793,8.8174,0.0215,18.7988
		c0.1553,0.2285,0.0967,0.5391-0.1309,0.6953C17.2031,22.1533,17.1055,22.1816,17.0078,22.1816z"/>
	<path d="M17.0078,14.5449c-1.0938,0-1.9834-0.8896-1.9834-1.9824V12.001c0-1.0938,0.8896-1.9834,1.9834-1.9834
		c1.0928,0,1.9824,0.8896,1.9824,1.9834v0.5615C18.9902,13.6553,18.1006,14.5449,17.0078,14.5449z M17.0078,11.0176
		c-0.542,0-0.9834,0.4409-0.9834,0.9834v0.5615c0,0.542,0.4414,0.9824,0.9834,0.9824s0.9824-0.4404,0.9824-0.9824V12.001
		C17.9902,11.4585,17.5498,11.0176,17.0078,11.0176z"/>
	<path d="M18.6309,9.832c-0.1543,0-0.3076-0.0718-0.4053-0.2065c-0.5703-0.7871-1.8633-0.7876-2.4375,0.0005
		c-0.1631,0.2241-0.4766,0.2729-0.6982,0.1108c-0.2236-0.1626-0.2725-0.4751-0.1104-0.6987
		c0.4717-0.6494,1.2295-1.0371,2.0283-1.0371s1.5576,0.3882,2.0283,1.0376c0.1621,0.2236,0.1113,0.5366-0.1123,0.6982
		C18.8359,9.8013,18.7334,9.832,18.6309,9.832z"/>
</g>
<rect x="-0.0008" y="-0.0147" fill="none" width="24" height="24"/>
</svg>
