<?xml version="1.0" encoding="utf-8"?>
<!-- Generator: Adobe Illustrator 18.1.0, SVG Export Plug-In . SVG Version: 6.00 Build 0)  -->
<svg version="1.1" id="Layer_1" xmlns="http://www.w3.org/2000/svg" xmlns:xlink="http://www.w3.org/1999/xlink" x="0px" y="0px"
	 width="24px" height="24px" viewBox="0 0 24 24" enable-background="new 0 0 24 24" xml:space="preserve">
<g>
	<path d="M13.5039,3.001H1.5747c-0.2764,0-0.5-0.2236-0.5-0.5s0.2236-0.5,0.5-0.5h11.9292c0.2764,0,0.5,0.2236,0.5,0.5
		S13.7803,3.001,13.5039,3.001z"/>
	<path d="M13.5039,9.001H1.5747c-0.2764,0-0.5-0.2236-0.5-0.5s0.2236-0.5,0.5-0.5h11.9292c0.2764,0,0.5,0.2236,0.5,0.5
		S13.7803,9.001,13.5039,9.001z"/>
	<path d="M13.5039,15.001H1.5747c-0.2764,0-0.5-0.2236-0.5-0.5s0.2236-0.5,0.5-0.5h11.9292c0.2764,0,0.5,0.2236,0.5,0.5
		S13.7803,15.001,13.5039,15.001z"/>
	<path d="M13.5039,21.001H1.5747c-0.2764,0-0.5-0.2236-0.5-0.5s0.2236-0.5,0.5-0.5h11.9292c0.2764,0,0.5,0.2236,0.5,0.5
		S13.7803,21.001,13.5039,21.001z"/>
	<path d="M19.501,19.9492c-0.2764,0-0.5-0.2236-0.5-0.5v-5.8418c0-0.2764,0.2236-0.5,0.5-0.5s0.5,0.2236,0.5,0.5v5.8418
		C20.001,19.7256,19.7773,19.9492,19.501,19.9492z"/>
	<path d="M19.5029,19.9502c-0.1348,0-0.2637-0.0537-0.3574-0.1504l-2.7393-2.7979c-0.1934-0.1973-0.1895-0.5137,0.0078-0.707
		c0.1973-0.1914,0.5146-0.1895,0.707,0.0078l2.3818,2.4326l2.3809-2.4326c0.1924-0.1973,0.5088-0.1992,0.707-0.0078
		c0.1973,0.1934,0.2012,0.5098,0.0078,0.707l-2.7383,2.7979C19.7666,19.8965,19.6377,19.9502,19.5029,19.9502z"/>
	<path d="M19.5049,10.8828c-0.2764,0-0.5-0.2236-0.5-0.5V4.541c0-0.2764,0.2236-0.5,0.5-0.5s0.5,0.2236,0.5,0.5v5.8418
		C20.0049,10.6592,19.7812,10.8828,19.5049,10.8828z"/>
	<path d="M22.2412,7.8374c-0.1299,0-0.2598-0.0503-0.3574-0.1504l-2.3809-2.4321L17.1211,7.687
		c-0.1924,0.1982-0.5098,0.2017-0.707,0.0078c-0.1973-0.1934-0.2012-0.5098-0.0078-0.707l2.7393-2.7974
		C19.2393,4.0942,19.3682,4.04,19.5029,4.04l0,0c0.1348,0,0.2637,0.0542,0.3574,0.1504l2.7383,2.7974
		c0.1934,0.1973,0.1895,0.5137-0.0078,0.707C22.4941,7.79,22.3672,7.8374,22.2412,7.8374z"/>
</g>
<rect y="0.0011" fill="none" width="24" height="24"/>
</svg>
