<?xml version="1.0" encoding="utf-8"?>
<!-- Generator: Adobe Illustrator 18.1.0, SVG Export Plug-In . SVG Version: 6.00 Build 0)  -->
<svg version="1.1" id="Layer_1" xmlns="http://www.w3.org/2000/svg" xmlns:xlink="http://www.w3.org/1999/xlink" x="0px" y="0px"
	 width="24px" height="24px" viewBox="0 0 24 24" enable-background="new 0 0 24 24" xml:space="preserve">
<g>
	<path d="M23.5,22.001h-23c-0.2764,0-0.5-0.2236-0.5-0.5v-19c0-0.2764,0.2236-0.5,0.5-0.5h23c0.2764,0,0.5,0.2236,0.5,0.5v19
		C24,21.7773,23.7764,22.001,23.5,22.001z M1,21.001h22v-18H1V21.001z"/>
	<path d="M11.3584,13.0059c-0.3848,0-0.6982-0.3027-0.6982-0.6748l-0.001-3.5171c-0.001-0.3018,0.1167-0.4839,0.2163-0.5835
		c0.2363-0.2358,0.6289-0.2515,0.9307-0.0273l2.1958,1.7144c0.0234,0.0186,0.0596,0.0513,0.0801,0.0742
		c0.1367,0.1338,0.2217,0.3384,0.2168,0.5532c-0.0049,0.2075-0.0957,0.4062-0.25,0.5464l-0.1572,0.126
		c-2.249,1.7866-2.3086,1.7866-2.5293,1.7886C11.3608,13.0059,11.3599,13.0059,11.3584,13.0059z M11.6597,9.3569l0.0005,2.3345
		c0.2969-0.2246,0.7637-0.5864,1.4961-1.168L11.6597,9.3569z"/>
	<path d="M6.5,22.001h-2c-0.2764,0-0.5-0.2236-0.5-0.5v-3c0-0.2764,0.2236-0.5,0.5-0.5h2c0.2764,0,0.5,0.2236,0.5,0.5v3
		C7,21.7773,6.7764,22.001,6.5,22.001z M5,21.001h1v-2H5V21.001z"/>
	<path d="M12,16.0273c-3.0312,0-5.4971-2.4658-5.4971-5.4966c0-3.0312,2.4658-5.4971,5.4971-5.4971s5.4971,2.4658,5.4971,5.4971
		C17.4971,13.5615,15.0312,16.0273,12,16.0273z M12,6.0337c-2.4795,0-4.4971,2.0176-4.4971,4.4971
		c0,2.479,2.0176,4.4966,4.4971,4.4966s4.4971-2.0176,4.4971-4.4966C16.4971,8.0513,14.4795,6.0337,12,6.0337z"/>
	<path d="M23.5,19.001h-23c-0.2764,0-0.5-0.2236-0.5-0.5s0.2236-0.5,0.5-0.5h23c0.2764,0,0.5,0.2236,0.5,0.5
		S23.7764,19.001,23.5,19.001z"/>
</g>
<rect y="0.0011" fill="none" width="24" height="24"/>
</svg>
