<?xml version="1.0" encoding="utf-8"?>
<!-- Generator: Adobe Illustrator 18.1.0, SVG Export Plug-In . SVG Version: 6.00 Build 0)  -->
<svg version="1.1" id="Layer_1" xmlns="http://www.w3.org/2000/svg" xmlns:xlink="http://www.w3.org/1999/xlink" x="0px" y="0px"
	 width="24px" height="24px" viewBox="0 0 24 24" enable-background="new 0 0 24 24" xml:space="preserve">
<g>
	<path d="M19.4502,23.8438c-0.2764,0-0.5-0.2236-0.5-0.5v-1.0459c0-0.0879-0.0479-0.1689-0.1162-0.1963
		c-5.8145-2.335-6.8047-3.3369-7.0063-4.0088c-0.0137-0.0469-0.021-0.0947-0.021-0.1436v-0.9932c0-0.127,0.0488-0.25,0.1362-0.3428
		c0.5825-0.6191,1.0347-1.4805,1.3071-2.4922c0.0293-0.1104,0.0957-0.207,0.1875-0.2744c0.2344-0.1709,0.3926-0.4424,0.4346-0.7441
		c0.0439-0.3154-0.04-0.626-0.2354-0.876c-0.0693-0.0889-0.1064-0.1973-0.1064-0.3086V9.6953c0-2.2329-1.1914-3.3652-3.54-3.3652
		c-2.2842,0-3.5425,1.1953-3.5425,3.3652v2.2231c0,0.1118-0.0376,0.2202-0.106,0.3081c-0.1953,0.249-0.2783,0.5596-0.2349,0.874
		c0.042,0.3027,0.2002,0.5752,0.4341,0.7461c0.0923,0.0674,0.1582,0.1631,0.188,0.2734c0.2715,1.0107,0.7236,1.873,1.3071,2.4932
		c0.0874,0.0928,0.1357,0.2158,0.1357,0.3428v0.9922c0,0.0488-0.0073,0.0967-0.021,0.1436
		c-0.2012,0.6719-1.1909,1.6738-7.0044,4.0088c-0.0698,0.0283-0.1177,0.1084-0.1177,0.1973v1.0459c0,0.2764-0.2236,0.5-0.5,0.5
		s-0.5-0.2236-0.5-0.5v-1.0459c0-0.499,0.2915-0.9404,0.7427-1.124c5.3374-2.1436,6.2524-3.04,6.4004-3.3193v-0.7061
		c-0.5996-0.6885-1.0679-1.585-1.3643-2.6104c-0.3721-0.3291-0.6206-0.793-0.6914-1.2998c-0.0728-0.5244,0.0449-1.0439,0.3315-1.48
		v-2.063c0-2.7334,1.6982-4.3652,4.5425-4.3652c2.8857,0,4.54,1.5913,4.54,4.3652v2.0625c0.2881,0.4375,0.4053,0.957,0.332,1.4824
		c-0.0703,0.5059-0.3193,0.9707-0.6914,1.2988c-0.2969,1.0264-0.7656,1.9219-1.3643,2.6094v0.707
		c0.1484,0.2793,1.0645,1.1758,6.3994,3.3184c0.4443,0.1777,0.7441,0.6299,0.7441,1.124v1.0459
		C19.9502,23.6201,19.7266,23.8438,19.4502,23.8438z"/>
	<path d="M23.001,6.0005h-7c-0.2764,0-0.5-0.2236-0.5-0.5s0.2236-0.5,0.5-0.5h7c0.2764,0,0.5,0.2236,0.5,0.5
		S23.2773,6.0005,23.001,6.0005z"/>
	<path d="M19.501,9.5005c-0.2764,0-0.5-0.2236-0.5-0.5v-7c0-0.2764,0.2236-0.5,0.5-0.5s0.5,0.2236,0.5,0.5v7
		C20.001,9.2769,19.7773,9.5005,19.501,9.5005z"/>
</g>
<rect x="0.0005" y="0.0004" fill="none" width="24" height="24"/>
</svg>
