<?xml version="1.0" encoding="utf-8"?>
<!-- Generator: Adobe Illustrator 18.1.0, SVG Export Plug-In . SVG Version: 6.00 Build 0)  -->
<svg version="1.1" id="Layer_1" xmlns="http://www.w3.org/2000/svg" xmlns:xlink="http://www.w3.org/1999/xlink" x="0px" y="0px"
	 width="24px" height="24px" viewBox="0 0 24 24" enable-background="new 0 0 24 24" xml:space="preserve">
<g>
	<path d="M16.4766,23.9863h-1.418c-0.6924,0-1.333-0.3418-1.7119-0.9141c-0.8174-1.2354-3.0811-5.7373,2.1113-11.8032
		c1.3057-1.5254,2.4033-2.1001,3.3535-1.7544c1.3604,0.4932,2.0479,2.876,2.1016,7.2852c0.0029,0.2764-0.2178,0.5029-0.4941,0.5059
		c-0.002,0-0.0039,0-0.0059,0c-0.2734,0-0.4971-0.2197-0.5-0.4941c-0.0664-5.437-1.1211-6.2402-1.4424-6.3569
		c-0.4932-0.1807-1.292,0.3413-2.2529,1.4648c-4.7373,5.5337-2.7568,9.5132-2.0371,10.6001
		c0.1934,0.292,0.5215,0.4668,0.8779,0.4668h1.418c0.2764,0,0.5,0.2236,0.5,0.5S16.7529,23.9863,16.4766,23.9863z"/>
	<path d="M19.8584,23.9219c-1.6826,0-3.0518-1.3691-3.0518-3.0518s1.3691-3.0518,3.0518-3.0518s3.0518,1.3691,3.0518,3.0518
		S21.541,23.9219,19.8584,23.9219z M19.8584,18.8184c-1.1309,0-2.0518,0.9209-2.0518,2.0518s0.9209,2.0518,2.0518,2.0518
		s2.0518-0.9209,2.0518-2.0518S20.9893,18.8184,19.8584,18.8184z"/>
	<path d="M4.5137,23.9863c-0.0469,0-0.0952-0.0068-0.1426-0.0205c-0.2646-0.0791-0.4155-0.3574-0.3364-0.6221L8.917,6.9468
		c0.0098-0.0327,0.0225-0.0645,0.0391-0.0947c0.04-0.0752,4.1191-7.4917,10.873-6.2515c0.7715,0.1421,1.8281,0.4233,2.0879,1.2236
		c0.2832,0.8735-0.5439,1.7407-1.3438,2.5796c-0.3291,0.3447-0.6699,0.7012-0.8789,1.0083
		C18.9932,6.439,18.9883,6.9478,18.9814,7.79l-0.002,0.2207c-0.0039,0.2739-0.2266,0.4932-0.5,0.4932c-0.002,0-0.0049,0-0.0068,0
		c-0.2764-0.0039-0.4971-0.231-0.4932-0.5068l0.002-0.2153c0.0078-0.9248,0.0137-1.6553,0.8867-2.9336
		c0.2559-0.374,0.624-0.7607,0.9814-1.1348c0.4541-0.4766,1.2148-1.2744,1.1152-1.5806c-0.0107-0.0332-0.1396-0.332-1.3174-0.5488
		c-5.7773-1.061-9.4614,5.1284-9.7881,5.7012L4.9927,23.6289C4.9282,23.8457,4.7295,23.9863,4.5137,23.9863z"/>
	<path d="M6.9795,23.9863h-5.563c-0.2764,0-0.5-0.2236-0.5-0.5s0.2236-0.5,0.5-0.5h5.563c0.2764,0,0.5,0.2236,0.5,0.5
		S7.2559,23.9863,6.9795,23.9863z"/>
	<path d="M14.417,20.1162c-0.2764,0-0.5-0.2236-0.5-0.5v-1.0684c0-0.2764,0.2236-0.5,0.5-0.5s0.5,0.2236,0.5,0.5v1.0684
		C14.917,19.8926,14.6934,20.1162,14.417,20.1162z"/>
	<path d="M19.8594,21.3701c-0.1299,0-0.2598-0.0508-0.3496-0.1406c-0.0996-0.0996-0.1504-0.2295-0.1504-0.3594
		s0.0508-0.2607,0.1406-0.3506c0.2002-0.2002,0.5303-0.1895,0.71,0c0.0898,0.0898,0.1494,0.2207,0.1494,0.3506
		s-0.0498,0.2598-0.1494,0.3496C20.1201,21.3193,19.9902,21.3701,19.8594,21.3701z"/>
</g>
<rect x="0.0142" y="0.0354" fill="none" width="24" height="24"/>
</svg>
