<?xml version="1.0" encoding="utf-8"?>
<!-- Generator: Adobe Illustrator 18.1.0, SVG Export Plug-In . SVG Version: 6.00 Build 0)  -->
<svg version="1.1" id="Layer_1" xmlns="http://www.w3.org/2000/svg" xmlns:xlink="http://www.w3.org/1999/xlink" x="0px" y="0px"
	 width="24px" height="24px" viewBox="0 0 24 24" enable-background="new 0 0 24 24" xml:space="preserve">
<g>
	<path d="M11.9863,15.1582L11.9863,15.1582c-0.6304,0-1.2725-0.0947-1.9644-0.29c-0.1431-0.041-0.2607-0.1436-0.3213-0.2793
		l-0.3086-0.6992l-2.3389-1.1064c-0.249-0.1182-0.356-0.415-0.2388-0.6641c0.0107-0.0264,0.3384-0.8354-0.543-1.9712
		C5.0703,8.6016,5.1909,5.8955,5.1968,5.772c-0.04-1.2197,0.4712-2.4478,1.4434-3.4644c1.291-1.3496,3.2402-2.124,5.3481-2.124
		c2.1016,0,4.0498,0.772,5.3447,2.1182c0.9805,1.0195,1.4932,2.292,1.4434,3.5825c0.0137,0.4336,0.0283,2.8413-1.0771,4.2637
		c-0.8809,1.1362-0.5537,1.9458-0.5391,1.979c0.1035,0.2471-0.001,0.541-0.2432,0.6562l-2.3379,1.1064l-0.3086,0.6992
		c-0.0596,0.1357-0.1777,0.2383-0.3203,0.2793C13.2588,15.0635,12.6172,15.1582,11.9863,15.1582z M10.5186,13.9658
		c1.0322,0.2578,1.9033,0.2598,2.9346,0l0.2871-0.6504c0.0479-0.1094,0.1348-0.1982,0.2432-0.25l2.1357-1.0107
		c-0.0781-0.5352-0.0332-1.458,0.79-2.52c0.915-1.1768,0.875-3.4048,0.8672-3.6548c0.04-1.0508-0.373-2.063-1.1641-2.8848
		c-1.1074-1.1514-2.793-1.8115-4.624-1.8115c-1.8364,0-3.5225,0.6616-4.6255,1.8154c-0.7827,0.8184-1.207,1.8301-1.165,2.7759
		c0.0015,0.0288,0,0.0571-0.0034,0.085C6.1846,6.1763,6.1538,8.3667,7.0615,9.5347c0.8237,1.062,0.8687,1.9849,0.79,2.52
		l2.1362,1.0107c0.1084,0.0518,0.1948,0.1406,0.2437,0.25L10.5186,13.9658z"/>
	<path d="M14.3779,10.9312c-0.9629,0-1.7617-0.731-1.7812-1.6299V8.752c0-0.0078,0-0.1118,0.001-0.1196
		c0.0439-0.9141,0.8262-1.6299,1.7803-1.6299c0.9434,0,1.7246,0.7075,1.7783,1.6113c0.001,0.0137,0.002,0.1274,0.001,0.1406v0.4478
		C16.1582,10.1841,15.3594,10.9312,14.3779,10.9312z M14.3779,8.0024c-0.4199,0-0.7627,0.2979-0.7812,0.6777l-0.001,0.5854
		c0.0078,0.373,0.3594,0.6655,0.7822,0.6655c0.4307,0,0.7803-0.2983,0.7803-0.665l-0.001-0.6226
		C15.1357,8.2974,14.793,8.0024,14.3779,8.0024z"/>
	<path d="M9.709,10.9312c-0.9619,0-1.7607-0.731-1.7803-1.6299l0.001-0.5498c0-0.0093,0.0005-0.1104,0.001-0.1196
		c0.042-0.9131,0.8237-1.6294,1.7788-1.6294c0.9438,0,1.7246,0.708,1.7778,1.6118l0.001,0.5879
		C11.4902,10.1841,10.6914,10.9312,9.709,10.9312z M9.7095,8.0024c-0.4199,0-0.7627,0.2974-0.7803,0.6772l-0.001,0.5864
		c0.0078,0.373,0.3584,0.665,0.7808,0.665c0.4307,0,0.7812-0.2983,0.7812-0.665l-0.002-0.4878l0.5-0.1348l-0.499,0.0293
		C10.4668,8.2969,10.1245,8.0024,9.7095,8.0024z"/>
	<path d="M16.2939,21.8945c-0.0752,0-0.1504-0.0166-0.2217-0.0518l-8.7148-4.3174c-0.2471-0.123-0.3486-0.4229-0.2261-0.6699
		c0.1226-0.248,0.4199-0.3486,0.6704-0.2266l8.7139,4.3174c0.248,0.123,0.3486,0.4229,0.2266,0.6699
		C16.6543,21.793,16.4775,21.8945,16.2939,21.8945z"/>
	<path d="M6.5957,18.6953c-0.2754,0-0.5454-0.0762-0.7808-0.2197c-0.3413-0.209-0.5801-0.5381-0.6733-0.9268
		s-0.0298-0.79,0.1792-1.1309c0.1128-0.1836,0.2617-0.3379,0.4395-0.4561c0.0244-0.2119,0.0942-0.415,0.2065-0.5986
		c0.4185-0.6816,1.3735-0.9131,2.0576-0.4932c0.3403,0.208,0.5791,0.5371,0.6729,0.9258c0.0933,0.3877,0.0293,0.79-0.1792,1.1299
		c-0.1133,0.1846-0.2622,0.3389-0.4399,0.457c-0.0239,0.2109-0.0933,0.4141-0.2056,0.5977
		C7.5972,18.4287,7.1206,18.6953,6.5957,18.6953z M7.2432,15.6484c-0.1743,0-0.3325,0.0889-0.4233,0.2363
		c-0.0576,0.0947-0.0796,0.2031-0.0649,0.3213c0.0288,0.2314-0.1064,0.4521-0.3262,0.5312
		c-0.0767,0.0283-0.1831,0.0859-0.2554,0.2031c-0.0693,0.1133-0.0903,0.2461-0.0596,0.375
		c0.0312,0.1289,0.1104,0.2383,0.2231,0.3066c0.2285,0.1406,0.5444,0.0635,0.6821-0.1631c0.0718-0.1172,0.0747-0.2383,0.0645-0.3193
		c-0.0293-0.2314,0.106-0.4531,0.3262-0.5322c0.0767-0.0283,0.1836-0.0859,0.2563-0.2041c0.0684-0.1123,0.0898-0.2451,0.0586-0.374
		c-0.0308-0.1289-0.1099-0.2383-0.2227-0.3066C7.4229,15.6738,7.3335,15.6484,7.2432,15.6484z"/>
	<path d="M16.7266,23.7793L16.7266,23.7793c-0.2744,0-0.5449-0.0762-0.7793-0.2197c-0.7031-0.4326-0.9248-1.3545-0.4951-2.0576
		c0.1133-0.1846,0.2627-0.3389,0.4395-0.4561c0.0244-0.2129,0.0947-0.415,0.208-0.5996c0.416-0.6807,1.3721-0.9131,2.0557-0.4941
		c0.3408,0.209,0.5801,0.5381,0.6738,0.9268c0.0928,0.3877,0.0293,0.79-0.1787,1.1299c-0.1133,0.1846-0.2617,0.3389-0.4395,0.457
		c-0.0244,0.2119-0.0947,0.415-0.208,0.5996C17.7295,23.5127,17.252,23.7793,16.7266,23.7793z M17.376,20.7324
		c-0.1748,0-0.333,0.0889-0.4238,0.2363c-0.0723,0.1182-0.0752,0.2383-0.0654,0.3193c0.0293,0.2314-0.1064,0.4531-0.3262,0.5322
		c-0.0762,0.0283-0.1826,0.0859-0.2559,0.2041c-0.1416,0.2324-0.0684,0.5391,0.165,0.6826c0.2275,0.1367,0.542,0.0596,0.6807-0.1641
		c0.0723-0.1182,0.0752-0.2393,0.0654-0.3203c-0.0293-0.2314,0.1064-0.4531,0.3262-0.5322
		c0.0771-0.0283,0.1836-0.0859,0.2549-0.2031c0.0693-0.1133,0.0908-0.2461,0.0596-0.375c-0.0303-0.1289-0.1094-0.2373-0.2227-0.3066
		C17.5557,20.7578,17.4658,20.7324,17.376,20.7324z"/>
	<path d="M7.6812,21.8945c-0.1831,0-0.3594-0.1006-0.4473-0.2754c-0.124-0.2461-0.0249-0.5469,0.2217-0.6709l8.5708-4.3174
		c0.2441-0.123,0.5459-0.0264,0.6709,0.2217c0.124,0.2461,0.0254,0.5469-0.2217,0.6709l-8.5698,4.3174
		C7.8335,21.877,7.7568,21.8945,7.6812,21.8945z"/>
	<path d="M17.375,18.6953c-0.5254,0-1.002-0.2666-1.2764-0.7139c-0.1123-0.1846-0.1826-0.3877-0.207-0.5996
		c-0.1768-0.1172-0.3262-0.2715-0.4385-0.4551c-0.4316-0.7041-0.21-1.626,0.4941-2.0576c0.6807-0.418,1.6377-0.1875,2.0566,0.4941
		c0.1123,0.1846,0.1826,0.3877,0.207,0.5986c0.1768,0.1182,0.3262,0.2725,0.4385,0.4561c0.209,0.3408,0.2725,0.7432,0.1797,1.1309
		c-0.0938,0.3887-0.333,0.7178-0.6738,0.9268C17.9199,18.6191,17.6504,18.6953,17.375,18.6953z M16.7275,15.6484
		c-0.0908,0-0.1797,0.0254-0.2578,0.0732c-0.2334,0.1436-0.3076,0.4492-0.1641,0.6826c0.0723,0.1172,0.1787,0.1748,0.2549,0.2031
		c0.2197,0.0791,0.3555,0.3008,0.3262,0.5322c-0.0098,0.0811-0.0068,0.2021,0.0654,0.3203
		c0.1367,0.2236,0.4492,0.3018,0.6816,0.1621c0.2324-0.1426,0.3066-0.4482,0.1631-0.6816
		c-0.0723-0.1172-0.1787-0.1748-0.2549-0.2031c-0.2197-0.0791-0.3555-0.3008-0.3262-0.5322
		c0.0098-0.0811,0.0068-0.2021-0.0654-0.3203C17.0596,15.7373,16.9023,15.6484,16.7275,15.6484z"/>
	<path d="M7.2437,23.7793c-0.5254,0-1.0024-0.2666-1.2764-0.7148c-0.1128-0.1836-0.1826-0.3857-0.207-0.5986
		c-0.1782-0.1182-0.3276-0.2734-0.4404-0.458c-0.208-0.3389-0.2715-0.7402-0.1782-1.1289s0.332-0.7178,0.6729-0.9268
		c0.6831-0.418,1.6392-0.1885,2.0566,0.4951c0.1133,0.1836,0.1831,0.3857,0.207,0.5977c0.1777,0.1182,0.3267,0.2725,0.4395,0.4561
		c0.4307,0.7041,0.209,1.627-0.4932,2.0576C7.7886,23.7031,7.519,23.7793,7.2437,23.7793z M6.5947,20.7324
		c-0.0908,0-0.1797,0.0254-0.2578,0.0732c-0.1128,0.0684-0.1919,0.1777-0.2231,0.3066c-0.0308,0.1289-0.0098,0.2617,0.0596,0.374
		c0.0718,0.1182,0.1787,0.1758,0.2554,0.2041c0.2197,0.0791,0.355,0.2998,0.3262,0.5312c-0.0103,0.082-0.0068,0.2031,0.0645,0.3203
		c0.1392,0.2256,0.4536,0.3047,0.6821,0.1641c0.2329-0.1426,0.3066-0.4492,0.1636-0.6826
		c-0.0718-0.1172-0.1787-0.1748-0.2554-0.2031c-0.2202-0.0791-0.3555-0.3008-0.3262-0.5322
		c0.0103-0.0811,0.0073-0.2012-0.0645-0.3184C6.9277,20.8213,6.769,20.7324,6.5947,20.7324z"/>
	<path d="M11.9854,13.249c-0.2764,0-0.5-0.2236-0.5-0.5v-1.5098c0-0.2764,0.2236-0.5,0.5-0.5s0.5,0.2236,0.5,0.5v1.5098
		C12.4854,13.0254,12.2617,13.249,11.9854,13.249z"/>
</g>
<rect x="-0.0136" y="0.0002" fill="none" width="24" height="24"/>
</svg>
