<?xml version="1.0" encoding="utf-8"?>
<!-- Generator: Adobe Illustrator 18.1.0, SVG Export Plug-In . SVG Version: 6.00 Build 0)  -->
<svg version="1.1" id="Layer_1" xmlns="http://www.w3.org/2000/svg" xmlns:xlink="http://www.w3.org/1999/xlink" x="0px" y="0px"
	 width="24px" height="24px" viewBox="0 0 24 24" enable-background="new 0 0 24 24" xml:space="preserve">
<g>
	<path d="M11.2476,15.0449c-0.0669,0-0.1348-0.0137-0.2002-0.042c-0.2529-0.1113-0.3682-0.4062-0.2573-0.6592l5.1777-11.8081
		c0.0605-0.1372,0.1787-0.2397,0.3223-0.2803c0.1436-0.04,0.2969-0.0151,0.4209,0.0703l4.7744,3.3174
		c0.2266,0.1577,0.2832,0.4692,0.125,0.6958c-0.1572,0.2271-0.4688,0.2822-0.6953,0.1255l-4.2754-2.9707l-4.9336,11.2524
		C11.6235,14.9336,11.4404,15.0449,11.2476,15.0449z"/>
	<path d="M9.29,15.0449c-0.2334,0-0.4424-0.1641-0.4897-0.4023L6.0278,0.7446C5.9736,0.4741,6.1494,0.2104,6.4204,0.1567
		c0.271-0.0576,0.5337,0.1221,0.5879,0.3926l2.7725,13.8979c0.0542,0.2705-0.1216,0.5342-0.3926,0.5879
		C9.3555,15.042,9.3223,15.0449,9.29,15.0449z"/>
	<path d="M16.1992,24.043H7.8154c-0.2529,0-0.4663-0.1895-0.4966-0.4404L5.3916,7.6216C5.3745,7.4795,5.4189,7.3369,5.5142,7.23
		c0.0947-0.1074,0.231-0.1685,0.374-0.1685H18.127c0.1426,0,0.2793,0.061,0.374,0.1685c0.0947,0.1069,0.1396,0.2495,0.1221,0.3916
		l-1.9277,15.981C16.665,23.8545,16.4521,24.043,16.1992,24.043z M8.2588,23.043h7.4971l1.8076-14.9814H6.4521L8.2588,23.043z"/>
	<path d="M10.6504,19.001c-0.6699,0-1.2153-0.5459-1.2153-1.2158s0.5454-1.2158,1.2153-1.2158c0.6704,0,1.2158,0.5459,1.2158,1.2158
		S11.3208,19.001,10.6504,19.001z M10.6504,17.5693c-0.1187,0-0.2153,0.0967-0.2153,0.2158c0,0.2393,0.4316,0.2373,0.4312,0
		C10.8662,17.666,10.7695,17.5693,10.6504,17.5693z"/>
	<path d="M12.8174,16.7793c-0.7539,0-1.3672-0.6133-1.3672-1.3672s0.6133-1.3672,1.3672-1.3672s1.3672,0.6133,1.3672,1.3672
		S13.5713,16.7793,12.8174,16.7793z M12.8174,15.0449c-0.2021,0-0.3672,0.165-0.3672,0.3672s0.165,0.3672,0.3672,0.3672
		s0.3672-0.165,0.3672-0.3672S13.0195,15.0449,12.8174,15.0449z"/>
	<path d="M17.2842,15.0449H6.7305c-0.2764,0-0.5-0.2236-0.5-0.5s0.2236-0.5,0.5-0.5h10.5537c0.2764,0,0.5,0.2236,0.5,0.5
		S17.5605,15.0449,17.2842,15.0449z"/>
	<path d="M13.6494,19.1299c-0.1191,0-0.25-0.0605-0.3398-0.1504c-0.0996-0.0996-0.1494-0.2295-0.1494-0.3496
		c0-0.1299,0.0498-0.2598,0.1396-0.3604c0.1904-0.1895,0.5195-0.1895,0.71,0c0.0898,0.1006,0.1504,0.2207,0.1504,0.3604
		c0,0.1299-0.0605,0.25-0.1504,0.3496C13.9102,19.0693,13.7803,19.1299,13.6494,19.1299z"/>
	<path d="M11.5698,21.0303c-0.1201,0-0.25-0.0508-0.3501-0.1406c-0.1001-0.0996-0.1499-0.2197-0.1499-0.3594
		c0-0.1309,0.0601-0.2607,0.1499-0.3506c0.1802-0.1797,0.52-0.1895,0.71,0c0.0898,0.0898,0.1396,0.2197,0.1396,0.3506
		c0,0.1299-0.0498,0.2598-0.1396,0.3496C11.8296,20.9795,11.6997,21.0303,11.5698,21.0303z"/>
	<path d="M13.4697,22c-0.1201,0-0.25-0.0498-0.3496-0.1406c-0.1006-0.1094-0.1406-0.2295-0.1406-0.3594s0.0508-0.2598,0.1406-0.3506
		c0.1895-0.1895,0.5195-0.1895,0.71,0c0.0898,0.0908,0.1494,0.2207,0.1494,0.3506s-0.0596,0.2598-0.1494,0.3496
		C13.7295,21.9502,13.5996,22,13.4697,22z"/>
</g>
<rect x="0.0142" y="0.0346" fill="none" width="24" height="24"/>
</svg>
