<?xml version="1.0" encoding="utf-8"?>
<!-- Generator: Adobe Illustrator 18.1.0, SVG Export Plug-In . SVG Version: 6.00 Build 0)  -->
<svg version="1.1" id="Layer_1" xmlns="http://www.w3.org/2000/svg" xmlns:xlink="http://www.w3.org/1999/xlink" x="0px" y="0px"
	 width="24px" height="24px" viewBox="0 0 24 24" enable-background="new 0 0 24 24" xml:space="preserve">
<g>
	<path d="M19.5146,24.0352c-0.2764,0-0.5-0.2236-0.5-0.5v-3c0-0.2764,0.2236-0.5,0.5-0.5s0.5,0.2236,0.5,0.5v3
		C20.0146,23.8115,19.791,24.0352,19.5146,24.0352z"/>
	<path d="M4.5132,24.0352c-0.2764,0-0.5-0.2236-0.5-0.5v-3c0-0.2764,0.2236-0.5,0.5-0.5s0.5,0.2236,0.5,0.5v3
		C5.0132,23.8115,4.7896,24.0352,4.5132,24.0352z"/>
	<path d="M12.0146,21.0352H4.5142c-0.2764,0-0.5-0.2236-0.5-0.5v-14c0-0.2764,0.2236-0.5,0.5-0.5h7.5005
		c0.2764,0,0.5,0.2236,0.5,0.5v14C12.5146,20.8115,12.291,21.0352,12.0146,21.0352z M5.0142,20.0352h6.5005v-13H5.0142V20.0352z"/>
	<path d="M9.5142,14.5352c-0.2764,0-0.5-0.2236-0.5-0.5v-1c0-0.2764,0.2236-0.5,0.5-0.5s0.5,0.2236,0.5,0.5v1
		C10.0142,14.3115,9.7905,14.5352,9.5142,14.5352z"/>
	<path d="M19.5146,21.0352h-7.5c-0.2764,0-0.5-0.2236-0.5-0.5v-14c0-0.2764,0.2236-0.5,0.5-0.5h7.5c0.2764,0,0.5,0.2236,0.5,0.5v14
		C20.0146,20.8115,19.791,21.0352,19.5146,21.0352z M12.5146,20.0352h6.5v-13h-6.5V20.0352z"/>
	<path d="M14.5146,14.5352c-0.2764,0-0.5-0.2236-0.5-0.5v-1c0-0.2764,0.2236-0.5,0.5-0.5s0.5,0.2236,0.5,0.5v1
		C15.0146,14.3115,14.791,14.5352,14.5146,14.5352z"/>
	<path d="M20.5146,7.0352H3.5142c-0.2764,0-0.5-0.2236-0.5-0.5v-2c0-0.2764,0.2236-0.5,0.5-0.5h17.0005c0.2764,0,0.5,0.2236,0.5,0.5
		v2C21.0146,6.8115,20.791,7.0352,20.5146,7.0352z M4.0142,6.0352h16.0005v-1H4.0142V6.0352z"/>
</g>
<rect x="0.0142" y="0.0354" fill="none" width="24" height="24"/>
</svg>
