<?xml version="1.0" encoding="utf-8"?>
<!-- Generator: Adobe Illustrator 18.1.0, SVG Export Plug-In . SVG Version: 6.00 Build 0)  -->
<svg version="1.1" id="Layer_1" xmlns="http://www.w3.org/2000/svg" xmlns:xlink="http://www.w3.org/1999/xlink" x="0px" y="0px"
	 width="24px" height="24px" viewBox="0 0 24 24" enable-background="new 0 0 24 24" xml:space="preserve">
<g>
	<path d="M5.457,23.1846c-0.374,0-0.7314-0.1816-0.9565-0.4863c-0.2222-0.3008-0.2852-0.6797-0.1743-1.041l2.0781-6.793
		l-5.7212-4.2925C0.2749,10.2637,0.1128,9.751,0.2695,9.2656c0.1567-0.4849,0.5874-0.8052,1.0962-0.8159l7.1914-0.1455
		l2.3589-6.7134c0.167-0.4785,0.604-0.7886,1.1133-0.7886c0.5068,0,0.9434,0.3096,1.1113,0.7886L15.5,8.3042l7.1895,0.1455
		c0.5107,0.0107,0.9404,0.332,1.0977,0.8179c0.1562,0.4854-0.0068,0.9976-0.4141,1.3042l-5.7217,4.2925l2.0801,6.793
		c0.1104,0.3604,0.0469,0.7402-0.1748,1.04c-0.2256,0.3047-0.583,0.4873-0.9561,0.4873c0,0,0,0-0.001,0
		c-0.2354,0-0.4648-0.0732-0.6641-0.21l-5.9072-4.0664l-5.9058,4.0664C5.9243,23.1113,5.6938,23.1846,5.457,23.1846z
		 M12.0293,1.8022c-0.0483,0-0.1333,0.0156-0.1694,0.1187L9.3857,8.9624C9.3169,9.1592,9.1328,9.2925,8.9243,9.2969L1.3867,9.4497
		C1.2769,9.4521,1.2358,9.5283,1.2212,9.5732C1.2065,9.6191,1.1953,9.7056,1.2847,9.7729l6.0005,4.5015
		c0.1685,0.127,0.2393,0.3457,0.1777,0.5469l-2.1807,7.1289c-0.0181,0.0596-0.0112,0.1084,0.0225,0.1533
		c0.0571,0.0791,0.1616,0.1084,0.2495,0.0479l6.1904-4.2627c0.1714-0.1162,0.397-0.1172,0.5669,0l6.1904,4.2617
		c0.0879,0.0596,0.1924,0.0303,0.25-0.0469c0.0332-0.0449,0.041-0.0947,0.0234-0.1533l-2.1836-7.1289
		c-0.0615-0.2012,0.0098-0.4199,0.1787-0.5469l6.002-4.5024c0.084-0.063,0.0801-0.1426,0.0625-0.1978
		c-0.0146-0.0454-0.0557-0.1221-0.166-0.1245l-7.5352-0.1528c-0.209-0.0044-0.3926-0.1377-0.4619-0.334l-2.4746-7.0405
		C12.1621,1.8232,12.0869,1.8022,12.0293,1.8022z"/>
</g>
<rect x="0.0293" y="-0.0001" fill="none" width="24" height="24"/>
</svg>
