<?xml version="1.0" encoding="utf-8"?>
<!-- Generator: Adobe Illustrator 18.1.0, SVG Export Plug-In . SVG Version: 6.00 Build 0)  -->
<svg version="1.1" id="Layer_1" xmlns="http://www.w3.org/2000/svg" xmlns:xlink="http://www.w3.org/1999/xlink" x="0px" y="0px"
	 width="24px" height="24px" viewBox="0 0 24 24" enable-background="new 0 0 24 24" xml:space="preserve">
<g>
	<path d="M20.4893,23.9258L20.4893,23.9258c-0.2764,0-0.5-0.2236-0.5-0.5l0.001-8.2949c0-0.2764,0.2236-0.5,0.5-0.5l0,0
		c0.2764,0,0.5,0.2236,0.5,0.5l-0.001,8.2949C20.9893,23.7021,20.7656,23.9258,20.4893,23.9258z"/>
	<path d="M20.4902,5.2949c-1.1143,0-1.8535-1.3994-1.8535-2.3252c0-1.0361,0.8311-1.8789,1.8535-1.8789
		c1.0215,0,1.8525,0.8428,1.8525,1.8789C22.3428,3.8955,21.6035,5.2949,20.4902,5.2949z M20.4902,2.0908
		c-0.4707,0-0.8535,0.394-0.8535,0.8789c0,0.582,0.4785,1.3252,0.8535,1.3252c0.374,0,0.8525-0.7432,0.8525-1.3252
		C21.3428,2.4849,20.96,2.0908,20.4902,2.0908z"/>
	<path d="M22.2402,23.9258c-0.0088,0-0.0176,0-0.0273-0.001c-0.2754-0.0146-0.4873-0.251-0.4717-0.5264l0.5352-9.8086
		c0.0068-0.1348,0.0918-0.3115,0.1943-0.4004c0.1406-0.1221,0.3057-0.1514,0.459-0.1514c0.1543-4.6714-0.0879-6.0991-0.2061-6.5078
		c-0.0918-0.0034-0.2041-0.0078-0.3057-0.0122l-0.2881-0.0132C22.0938,6.5,22.0557,6.5425,22.0264,6.5986
		c-0.2725,0.54-0.8613,0.8765-1.5361,0.8765c-0.6758,0-1.2646-0.3364-1.5381-0.8774c-0.0283-0.0562-0.0645-0.085-0.1025-0.0928
		c-0.2373,0.0264-4.3564,0.7031-5.7422,0.9375l5.1436,0.4634c0.2568,0.0244,0.4531,0.2397,0.4531,0.498v5.2134l0.5342,9.7812
		c0.0156,0.2754-0.1963,0.5117-0.4717,0.5264c-0.2959,0.041-0.5107-0.1963-0.5264-0.4717l-0.5352-9.8086l-0.001-4.7852
		l-4.6904-0.4375c-0.4971-0.0469-0.8721-0.4478-0.8906-0.9531c-0.0186-0.5122,0.3184-0.9287,0.8184-1.0127
		c0.8789-0.1484,5.6318-0.9351,5.8438-0.9492c0.4307-0.0342,0.8467,0.2173,1.0596,0.6401c0.2441,0.4834,1.0459,0.4858,1.29-0.0005
		c0.2148-0.4229,0.6221-0.667,1.0576-0.6396L22.46,5.519c0.5176,0.0215,0.624,0.0298,0.7168,0.0562
		c0.0693,0.02,0.1338,0.0557,0.1885,0.1025c0.2217,0.1899,0.8105,0.6943,0.5488,7.8301c-0.0059,0.1377-0.0879,0.3125-0.1924,0.4033
		c-0.1445,0.125-0.3154,0.1514-0.4697,0.1504l-0.5127,9.3916C22.7246,23.7197,22.5039,23.9258,22.2402,23.9258z"/>
	<path d="M9.4893,2c-0.2764,0-0.5-0.2236-0.5-0.5V0.5186c0-0.2764,0.2236-0.5,0.5-0.5s0.5,0.2236,0.5,0.5V1.5
		C9.9893,1.7764,9.7656,2,9.4893,2z"/>
	<path d="M15.4893,2c-0.2764,0-0.5-0.2236-0.5-0.5V0.5186c0-0.2764,0.2236-0.5,0.5-0.5s0.5,0.2236,0.5,0.5V1.5
		C15.9893,1.7764,15.7656,2,15.4893,2z"/>
	<path d="M15.9893,19h-15.5c-0.2764,0-0.5-0.2236-0.5-0.5v-17c0-0.2764,0.2236-0.5,0.5-0.5h16.5c0.2764,0,0.5,0.2236,0.5,0.5
		s-0.2236,0.5-0.5,0.5h-16v16h15c0.2764,0,0.5,0.2236,0.5,0.5S16.2656,19,15.9893,19z"/>
	<path d="M12.4893,24c-0.2764,0-0.5-0.2236-0.5-0.5v-2.874c0-0.2764,0.2236-0.5,0.5-0.5s0.5,0.2236,0.5,0.5V23.5
		C12.9893,23.7764,12.7656,24,12.4893,24z"/>
	<path d="M14.9893,24h-6c-0.2764,0-0.5-0.2236-0.5-0.5s0.2236-0.5,0.5-0.5h6c0.2764,0,0.5,0.2236,0.5,0.5S15.2656,24,14.9893,24z"/>
	<path d="M7.5024,16h-4c-0.2764,0-0.5-0.2236-0.5-0.5v-4.0005c0-0.2764,0.2236-0.5,0.5-0.5h4c0.2764,0,0.5,0.2236,0.5,0.5V15.5
		C8.0024,15.7764,7.7788,16,7.5024,16z M4.0024,15h3v-3.0005h-3V15z"/>
	<path d="M7.5024,8.9995h-4c-0.2764,0-0.5-0.2236-0.5-0.5v-4c0-0.2764,0.2236-0.5,0.5-0.5h4c0.2764,0,0.5,0.2236,0.5,0.5v4
		C8.0024,8.7759,7.7788,8.9995,7.5024,8.9995z M4.0024,7.9995h3v-3h-3V7.9995z"/>
	<path d="M14.3564,5.9995H9.5781c-0.2764,0-0.5-0.2236-0.5-0.5s0.2236-0.5,0.5-0.5h4.7783c0.2764,0,0.5,0.2236,0.5,0.5
		S14.6328,5.9995,14.3564,5.9995z"/>
	<path d="M14.3564,13H9.5781c-0.2764,0-0.5-0.2236-0.5-0.5s0.2236-0.5,0.5-0.5h4.7783c0.2764,0,0.5,0.2236,0.5,0.5
		S14.6328,13,14.3564,13z"/>
	<path d="M10.5044,7.9995H9.5781c-0.2764,0-0.5-0.2236-0.5-0.5s0.2236-0.5,0.5-0.5h0.9263c0.2764,0,0.5,0.2236,0.5,0.5
		S10.7808,7.9995,10.5044,7.9995z"/>
	<path d="M10.5044,15H9.5781c-0.2764,0-0.5-0.2236-0.5-0.5s0.2236-0.5,0.5-0.5h0.9263c0.2764,0,0.5,0.2236,0.5,0.5
		S10.7808,15,10.5044,15z"/>
</g>
<rect x="-0.0137" fill="none" width="24" height="24"/>
</svg>
