<?xml version="1.0" encoding="utf-8"?>
<!-- Generator: Adobe Illustrator 18.1.0, SVG Export Plug-In . SVG Version: 6.00 Build 0)  -->
<svg version="1.1" id="Layer_1" xmlns="http://www.w3.org/2000/svg" xmlns:xlink="http://www.w3.org/1999/xlink" x="0px" y="0px"
	 width="24px" height="24px" viewBox="0 0 24 24" enable-background="new 0 0 24 24" xml:space="preserve">
<g>
	<path d="M23.5146,22.0342H1.9351c-1.041,0-1.9209-0.8545-1.9209-1.8652v-0.6348c0-0.2764,0.2236-0.5,0.5-0.5h23.0005
		c0.2764,0,0.5,0.2236,0.5,0.5v2C24.0146,21.8105,23.791,22.0342,23.5146,22.0342z M1.0142,20.0342v0.1348
		c0,0.4609,0.4302,0.8652,0.9209,0.8652h21.0796v-1H1.0142z"/>
	<path d="M0.8203,20.0342c-0.2764,0-0.5-0.2236-0.5-0.5c0-3.167,2.4692-4.332,3.8281-4.5195l8.7598-3.1895
		c0.2607-0.0947,0.5459,0.0396,0.6406,0.2988c0.0947,0.2588-0.0391,0.5459-0.2988,0.6406l-8.8115,3.209
		C4.4038,15.9863,4.3657,15.9951,4.3286,16c-0.123,0.0156-3.0083,0.415-3.0083,3.5342C1.3203,19.8105,1.0967,20.0342,0.8203,20.0342
		z"/>
	<path d="M23.0615,20.0342c-0.2764,0-0.5-0.2236-0.5-0.5v-4.3398c0-0.0938-0.0498-0.1377-0.0654-0.1484
		c-0.8281,0.2236-4.8193,1.2607-7.668-1.791c-0.1885-0.2012-0.1777-0.5176,0.0244-0.7061c0.2002-0.1885,0.5176-0.1768,0.7061,0.0244
		c2.4414,2.6133,5.9131,1.7109,6.585,1.5039c0.3271-0.1006,0.6719-0.04,0.9473,0.1641c0.2949,0.2178,0.4707,0.5742,0.4707,0.9531
		v4.3398C23.5615,19.8105,23.3379,20.0342,23.0615,20.0342z"/>
	<path d="M15.1934,13.4141c-0.0469,0-0.0947-0.0068-0.1406-0.0205l-2.1143-0.6191c-0.1885-0.0547-0.3271-0.2158-0.3545-0.4111
		c-0.0273-0.1943,0.0625-0.3872,0.2295-0.4917l2.5537-1.603c0.1689-0.1074,0.3857-0.1021,0.5488,0.0112
		c0.165,0.1133,0.2461,0.3135,0.207,0.5093l-0.4395,2.2217c-0.0273,0.1377-0.1113,0.2578-0.2305,0.3311
		C15.374,13.3896,15.2842,13.4141,15.1934,13.4141z M14.2861,12.1279l0.5225,0.1523l0.1094-0.5493L14.2861,12.1279z"/>
	<path d="M13.0791,14.7402c-0.0869,0-0.1738-0.0225-0.2539-0.0693l-2.041-1.2021c-0.2378-0.1396-0.3169-0.4463-0.1768-0.6846
		c0.1396-0.2383,0.4453-0.3174,0.6846-0.1768l2.041,1.2021c0.2373,0.1396,0.3174,0.4463,0.1768,0.6846
		C13.417,14.6523,13.25,14.7402,13.0791,14.7402z"/>
	<path d="M10.9282,15.209c-0.0864,0-0.1738-0.0225-0.2534-0.0693l-1.7104-1.0078c-0.2378-0.1396-0.3169-0.4463-0.1768-0.6846
		s0.4473-0.3174,0.6846-0.1768l1.7104,1.0078c0.2378,0.1396,0.3169,0.4463,0.1768,0.6846
		C11.2661,15.1211,11.0996,15.209,10.9282,15.209z"/>
	<path d="M8.7778,15.6768c-0.0864,0-0.1733-0.0225-0.2534-0.0693l-1.3799-0.8125c-0.2378-0.1396-0.3169-0.4463-0.1768-0.6846
		c0.1392-0.2393,0.4448-0.3184,0.6846-0.1768l1.3799,0.8125c0.2378,0.1396,0.3169,0.4463,0.1768,0.6846
		C9.1162,15.5889,8.9492,15.6768,8.7778,15.6768z"/>
	<path d="M4.5142,20.0342c-0.2764,0-0.5-0.2236-0.5-0.5V15.415c0-0.2764,0.2236-0.5,0.5-0.5s0.5,0.2236,0.5,0.5v4.1191
		C5.0142,19.8105,4.7905,20.0342,4.5142,20.0342z"/>
	<path d="M20.6367,20.0342c-0.2676,0-0.4893-0.2119-0.5-0.4814c-0.1514-4.0957,1.8057-5.3691,1.8887-5.4219
		c0.2354-0.1455,0.543-0.0752,0.6895,0.1582c0.1455,0.2324,0.0762,0.5381-0.1533,0.6865c-0.0723,0.0479-1.5527,1.082-1.4248,4.54
		c0.0098,0.2764-0.2051,0.5078-0.4814,0.5186C20.6484,20.0342,20.6426,20.0342,20.6367,20.0342z"/>
</g>
<rect x="0.0142" y="0.0344" fill="none" width="24" height="24"/>
</svg>
