<?xml version="1.0" encoding="utf-8"?>
<!-- Generator: Adobe Illustrator 18.1.0, SVG Export Plug-In . SVG Version: 6.00 Build 0)  -->
<svg version="1.1" id="Layer_1" xmlns="http://www.w3.org/2000/svg" xmlns:xlink="http://www.w3.org/1999/xlink" x="0px" y="0px"
	 width="24px" height="24px" viewBox="0 0 24 24" enable-background="new 0 0 24 24" xml:space="preserve">
<g>
	<path d="M17.4678,24.043H6.5366c-0.855,0-1.5503-0.7275-1.5503-1.6211V11.8291c0-0.4873,0.3218-0.9106,0.7832-1.0298
		c2.812-0.7246,2.6289-2.9448,2.6196-3.0386L8.3867,5.0215c0-2.5601,1.5991-4.6426,3.5649-4.6426
		c1.9653,0,3.5649,2.0825,3.5649,4.6426V7.709c-0.0068,0.1279-0.1084,2.3623,2.7178,3.0898
		c0.4609,0.1191,0.7832,0.543,0.7832,1.0303v10.5928C19.0176,23.3154,18.3223,24.043,17.4678,24.043z M9.3867,7.709
		c0.0024,0,0.2881,3.1172-3.3677,4.0586L5.9863,22.4219c0,0.3428,0.2471,0.6211,0.5503,0.6211h10.9312
		c0.3027,0,0.5498-0.2783,0.5498-0.6211V11.8291c-3.6855-1.0024-3.502-4.125-3.5-4.1562l-0.001-2.6514
		c0-2.0083-1.1504-3.6426-2.5649-3.6426S9.3867,3.0132,9.3867,5.0215V7.709L9.3867,7.709z"/>
	<path d="M15,8.0195H8.8867c-0.2764,0-0.5-0.2236-0.5-0.5s0.2236-0.5,0.5-0.5H15c0.2764,0,0.5,0.2236,0.5,0.5
		S15.2764,8.0195,15,8.0195z"/>
	<path d="M19,15.0195H5c-0.2764,0-0.5-0.2236-0.5-0.5s0.2236-0.5,0.5-0.5h14c0.2764,0,0.5,0.2236,0.5,0.5
		S19.2764,15.0195,19,15.0195z"/>
	<path d="M14.3701,21.0195H9.5332C8.7163,21.0195,8,20.2393,8,19.3496v-4.8301c0-0.2764,0.2236-0.5,0.5-0.5h7
		c0.2764,0,0.5,0.2236,0.5,0.5v4.8301C16,20.2236,15.2227,21.0195,14.3701,21.0195z M9,15.0195v4.3301
		c0,0.3379,0.2642,0.6699,0.5332,0.6699h4.8369c0.2695,0,0.6299-0.3311,0.6299-0.6699v-4.3301H9z"/>
	<g>
		<g>
			<path d="M9.5,17.0195h-1c-0.2764,0-0.5-0.2236-0.5-0.5s0.2236-0.5,0.5-0.5h1c0.2764,0,0.5,0.2236,0.5,0.5
				S9.7764,17.0195,9.5,17.0195z"/>
			<path d="M12.625,17.0195h-1.25c-0.2764,0-0.5-0.2236-0.5-0.5s0.2236-0.5,0.5-0.5h1.25c0.2764,0,0.5,0.2236,0.5,0.5
				S12.9014,17.0195,12.625,17.0195z"/>
			<path d="M15.5,17.0195h-1c-0.2764,0-0.5-0.2236-0.5-0.5s0.2236-0.5,0.5-0.5h1c0.2764,0,0.5,0.2236,0.5,0.5
				S15.7764,17.0195,15.5,17.0195z"/>
		</g>
	</g>
	<path d="M2.4419,19.0195H1c-0.2764,0-0.5-0.2236-0.5-0.5s0.2236-0.5,0.5-0.5h1.4419c-0.0112-0.0146,0.106-0.1924,0.106-0.5
		s-0.1172-0.4854-0.1572-0.5117c-0.6348,0.043-1.1416-0.6328-1.1416-1.4883s0.4756-1.5,1.106-1.5H5c0.2764,0,0.5,0.2236,0.5,0.5
		s-0.2236,0.5-0.5,0.5H2.355c0.0107,0.0146-0.106,0.1914-0.106,0.5s0.1167,0.4854,0.1572,0.5117c0.0054,0,0.0112,0,0.0171,0
		c0.6475,0,1.1245,0.6543,1.1245,1.4883C3.5479,18.3604,3.062,19.0195,2.4419,19.0195z"/>
	<path d="M23,19.0195h-1.4385c-0.6201,0-1.1055-0.6592-1.1055-1.5s0.4854-1.5,1.1055-1.5c0.0762-0.0146,0.1934-0.1924,0.1934-0.5
		s-0.1172-0.4854-0.1572-0.5117L19,15.0195c-0.2764,0-0.5-0.2236-0.5-0.5s0.2236-0.5,0.5-0.5h2.6494
		c0.6201,0,1.1055,0.6592,1.1055,1.5s-0.4854,1.5-1.1055,1.5c-0.0762,0.0146-0.1934,0.1924-0.1934,0.5s0.1172,0.4854,0.1572,0.5117
		L23,18.0195c0.2764,0,0.5,0.2236,0.5,0.5S23.2764,19.0195,23,19.0195z"/>
</g>
<rect y="0.0197" fill="none" width="24" height="24"/>
</svg>
