<?xml version="1.0" encoding="utf-8"?>
<!-- Generator: Adobe Illustrator 18.1.0, SVG Export Plug-In . SVG Version: 6.00 Build 0)  -->
<svg version="1.1" id="Layer_1" xmlns="http://www.w3.org/2000/svg" xmlns:xlink="http://www.w3.org/1999/xlink" x="0px" y="0px"
	 width="24px" height="24px" viewBox="0 0 24 24" enable-background="new 0 0 24 24" xml:space="preserve">
<g>
	<path d="M14.959,23.7383c-1.6221,0-3.0723-0.7725-3.1523-0.8164c-0.1611-0.0869-0.2617-0.2559-0.2617-0.4395V1.3052
		c0-0.1753,0.0918-0.3374,0.2412-0.4277c0.0796-0.0479,1.9609-1.1641,3.7637-0.3833c1.2051,0.5229,2.0459,1.7451,2.501,3.6338
		c0.7539,0.2485,2.4688,1.1221,2.7139,3.9624c0.4434,0.4092,1.5898,1.6201,1.748,3.3145c0.1191,1.2632-0.333,2.5015-1.3418,3.6772
		c-0.9951,1.1582-2.3926,1.1299-3.8359-0.085c-0.2109-0.1777-0.2383-0.4932-0.0605-0.7051
		c0.1768-0.2109,0.4941-0.2393,0.7051-0.0605c1.5107,1.2725,2.2051,0.4648,2.4316,0.2002c0.8242-0.9609,1.1963-1.9453,1.1074-2.9258
		c-0.1494-1.6357-1.5361-2.7739-1.5508-2.7852C19.8584,8.6323,19.79,8.501,19.7822,8.3604
		c-0.1777-3.022-2.1992-3.3301-2.2197-3.3325c-0.209-0.0283-0.3779-0.1855-0.4219-0.3921
		c-0.3643-1.7222-1.0322-2.8062-1.9834-3.2217c-1.0098-0.4424-2.1309-0.0298-2.6123,0.1958V22.168
		c0.6367,0.2832,2.3105,0.9072,3.6533,0.3389c0.835-0.3525,1.4297-1.1318,1.7666-2.3145c0.3789-1.332,0.0449-2.2803-0.918-2.5996
		c-0.8545-0.2803-1.8955,0.0469-2.1367,0.6816c-0.0986,0.2588-0.3877,0.3838-0.6455,0.29c-0.2578-0.0986-0.3877-0.3877-0.29-0.6455
		c0.4326-1.1338,2.0166-1.7295,3.3867-1.2754c1.1719,0.3896,2.1982,1.5977,1.5645,3.8223
		c-0.4238,1.4912-1.2129,2.4883-2.3428,2.9639C16.0518,23.6533,15.4961,23.7383,14.959,23.7383z"/>
	<path d="M9.1289,23.8252c-0.499,0-0.9766-0.0762-1.416-0.2305c-1.0786-0.3779-1.9023-1.21-2.3813-2.4053
		c-0.7241-1.8057,0.1558-3.1816,0.1938-3.2393c0.1509-0.2305,0.4609-0.2949,0.6924-0.1436
		c0.2305,0.1514,0.2949,0.4609,0.1436,0.6924c-0.0239,0.0371-0.626,1.0117-0.1021,2.3174c0.3745,0.9336,0.9746,1.5508,1.7847,1.835
		c0.9878,0.3447,2.25,0.1758,3.501-0.4678V1.6045c-0.4556-0.2188-1.499-0.6143-2.4819-0.2129
		C8.0845,1.793,7.3726,2.8892,6.9473,4.6494C6.8989,4.8501,6.7329,5,6.5283,5.0278C6.4492,5.04,4.4844,5.375,4.3086,8.3604
		c-0.0088,0.1494-0.085,0.2876-0.2061,0.376c-0.0146,0.0103-1.4561,1.0752-1.6406,2.6548c-0.1104,0.9438,0.249,1.9058,1.0688,2.8618
		c0.1797,0.209,0.1558,0.5244-0.0537,0.7051c-0.2085,0.1777-0.5254,0.1562-0.7051-0.0547
		c-1.0117-1.1787-1.4497-2.4023-1.3022-3.6382c0.1968-1.646,1.3853-2.7935,1.8574-3.1895c0.2515-2.8398,1.9746-3.707,2.7222-3.9507
		c0.519-1.9287,1.4072-3.1597,2.6436-3.6621c1.7739-0.7227,3.5435,0.3726,3.6187,0.4189c0.1455,0.0918,0.2334,0.2515,0.2334,0.4233
		v21.1772c0,0.1807-0.0967,0.3467-0.2539,0.4355C11.2324,23.5166,10.1357,23.8252,9.1289,23.8252z"/>
	<path d="M18.4453,20.8291c-0.2021,0-0.3916-0.124-0.4668-0.3242c-0.0977-0.2578,0.0332-0.5459,0.291-0.6436
		c0.1318-0.0498,3.207-1.2656,2.0449-4.9541c-0.083-0.2637,0.0625-0.5439,0.3262-0.627c0.2637-0.082,0.5439,0.0645,0.627,0.3262
		c1.4521,4.6074-2.6064,6.1758-2.6484,6.1914C18.5625,20.8193,18.5039,20.8291,18.4453,20.8291z"/>
	<path d="M12.0459,10.0654c-0.1699,0-0.3354-0.0864-0.4292-0.2427c-0.1421-0.2368-0.0659-0.5435,0.1704-0.6855
		c0.1177-0.0713,2.9014-1.7192,4.793-0.5054c0.2324,0.1494,0.2998,0.4585,0.1504,0.6909c-0.1494,0.2334-0.459,0.2993-0.6914,0.1509
		c-1.3672-0.8784-3.7139,0.5059-3.7363,0.5205C12.2217,10.0425,12.1328,10.0654,12.0459,10.0654z"/>
	<path d="M16.4092,11.6104c-0.2129,0-0.4102-0.1367-0.4766-0.3501c-0.6523-2.0742,0.3311-3.728,0.9756-4.5293
		c0.1738-0.2158,0.4873-0.2476,0.7031-0.0762c0.2148,0.1733,0.249,0.4878,0.0762,0.7031c-0.5195,0.6455-1.3145,1.9717-0.8018,3.6025
		c0.083,0.2632-0.0635,0.5439-0.3262,0.627C16.5088,11.603,16.459,11.6104,16.4092,11.6104z"/>
	<path fill="none" stroke="#000000" stroke-linecap="round" stroke-linejoin="round" stroke-miterlimit="10" d="M5.7363,20.8416"/>
	<path d="M5.7363,21.3418c-0.1235,0-0.2476-0.0459-0.3442-0.1377c-2.2915-2.1768-3.2759-4.2178-2.9253-6.0684
		c0.4717-2.4873,3.1738-3.6094,3.2886-3.6558c0.2549-0.104,0.5459,0.019,0.6504,0.2749c0.1045,0.2549-0.0186,0.5469-0.2734,0.6514
		c-0.0234,0.0098-2.3179,0.9707-2.6841,2.9219c-0.2798,1.4932,0.606,3.2266,2.6323,5.1514c0.2002,0.1904,0.2085,0.5068,0.0181,0.707
		C6.0005,21.29,5.8687,21.3418,5.7363,21.3418z"/>
	<path d="M8.105,7.4766c-0.0122,0-0.0244-0.0005-0.0366-0.0015C7.793,7.4556,7.5859,7.2163,7.606,6.9404
		c0.0479-0.6646-0.0732-1.1675-0.3599-1.4951c-0.3325-0.3804-0.79-0.4126-0.8096-0.4136c-0.2734-0.0171-0.4854-0.251-0.4717-0.5244
		C5.9785,4.2329,6.2002,4.0088,6.481,4.0327c0.0894,0.0034,0.8911,0.0537,1.5015,0.7354c0.4805,0.5371,0.6895,1.292,0.6206,2.2446
		C8.5845,7.2759,8.3647,7.4766,8.105,7.4766z"/>
	<path d="M9.8662,13.1377c-0.0454,0-0.0923-0.0059-0.1382-0.0195c-0.2656-0.0762-0.4185-0.3535-0.3423-0.6191
		c0.585-2.0327-1.8608-3.21-1.8857-3.2212C7.25,9.1602,7.1431,8.8623,7.2603,8.6123c0.1177-0.2505,0.4155-0.3574,0.6655-0.2397
		c1.1235,0.5288,3.0752,2.1289,2.4209,4.4038C10.2837,12.9951,10.0835,13.1377,9.8662,13.1377z"/>
	<path d="M8.9365,20.123c-0.1279,0-0.2554-0.0488-0.353-0.1465c-0.6177-0.6162-0.9028-1.2949-0.8481-2.0166
		c0.1006-1.3203,1.3423-2.2441,1.395-2.2832c0.2217-0.1631,0.5337-0.1172,0.6973,0.1074c0.1636,0.2217,0.1162,0.5342-0.105,0.6982
		c-0.0093,0.0068-0.9277,0.6982-0.9902,1.5576c-0.0312,0.4219,0.1514,0.8242,0.5571,1.2295c0.1958,0.1943,0.1958,0.5107,0.001,0.707
		C9.1929,20.0742,9.0645,20.123,8.9365,20.123z"/>
</g>
<rect x="-0.0137" fill="none" width="24" height="24"/>
</svg>
