<?xml version="1.0" encoding="utf-8"?>
<!-- Generator: Adobe Illustrator 18.1.0, SVG Export Plug-In . SVG Version: 6.00 Build 0)  -->
<svg version="1.1" id="Layer_1" xmlns="http://www.w3.org/2000/svg" xmlns:xlink="http://www.w3.org/1999/xlink" x="0px" y="0px"
	 width="24px" height="24px" viewBox="0 0 24 24" enable-background="new 0 0 24 24" xml:space="preserve">
<g>
	<path d="M20.9453,23.9746H3.0566c-0.708,0-1.2837-0.5811-1.2837-1.2959v-0.5674c0-0.54,0.3232-1.0146,0.8232-1.209
		c3.8267-1.4805,5.8872-3.0654,6.1948-3.7744v-0.8262C8.0884,15.5713,7.4419,14.7812,7.084,13.5
		c-0.0122-0.0439-0.0186-0.0889-0.0186-0.1348V7.8193c0-3.1025,1.707-4.7427,4.9365-4.7427c3.2871,0,4.9541,1.5957,4.9541,4.7427
		v5.5459c0,0.0459-0.0059,0.0908-0.0186,0.1348c-0.3516,1.2578-1.0098,2.0566-1.7266,2.8018v0.8271
		c0.3477,0.8213,2.7109,2.4268,6.1943,3.7725c0.4932,0.1904,0.8242,0.6768,0.8242,1.21v0.5674
		C22.2295,23.3936,21.6533,23.9746,20.9453,23.9746z M8.0654,13.2949c0.3228,1.1025,0.9082,1.7646,1.583,2.4541
		c0.0913,0.0938,0.1426,0.2188,0.1426,0.3496v1.1182c0,0.0508-0.0078,0.1006-0.0225,0.1484c-0.4805,1.54-3.9692,3.3701-6.811,4.4697
		c-0.1099,0.042-0.1846,0.1533-0.1846,0.2764v0.5674c0,0.1631,0.1274,0.2959,0.2837,0.2959h17.8887
		c0.1562,0,0.2842-0.1328,0.2842-0.2959v-0.5674c0-0.123-0.0742-0.2344-0.1846-0.2764c-2.8408-1.0986-6.3291-2.9277-6.8115-4.4688
		c-0.0146-0.0488-0.0225-0.0986-0.0225-0.1494v-1.1182c0-0.1309,0.0508-0.2559,0.1426-0.3496
		c0.7139-0.7295,1.2871-1.377,1.6025-2.4541V7.8193c0-2.5884-1.2197-3.7427-3.9541-3.7427c-2.6855,0-3.9365,1.1895-3.9365,3.7427
		V13.2949z"/>
	<path d="M12.9902,16.9199c-0.2725,0-0.4951-0.2178-0.5-0.4902c-0.0049-0.2764,0.2148-0.5049,0.4902-0.5098
		c3.3936-0.0635,4.4277-0.6963,4.4277-2.71c0-0.2764,0.2236-0.5,0.5-0.5s0.5,0.2236,0.5,0.5c0,3.3301-2.6719,3.6592-5.4082,3.71
		C12.9961,16.9199,12.9932,16.9199,12.9902,16.9199z"/>
	<path d="M7.5654,13.8652H6.6719c-0.8823,0-1.6001-0.7178-1.6001-1.6006V8.9194c0-0.8823,0.7178-1.6001,1.6001-1.6001h0.8936
		c0.2764,0,0.5,0.2236,0.5,0.5s-0.2236,0.5-0.5,0.5H6.6719c-0.3311,0-0.6001,0.269-0.6001,0.6001v3.3452
		c0,0.3311,0.269,0.6006,0.6001,0.6006h0.8936c0.2764,0,0.5,0.2236,0.5,0.5S7.8418,13.8652,7.5654,13.8652z"/>
	<path d="M17.3496,13.8652h-0.8936c-0.2764,0-0.5-0.2236-0.5-0.5s0.2236-0.5,0.5-0.5h0.8936c0.3311,0,0.6006-0.2695,0.6006-0.6006
		V8.9194c0-0.3311-0.2695-0.6001-0.6006-0.6001h-0.8936c-0.2764,0-0.5-0.2236-0.5-0.5s0.2236-0.5,0.5-0.5h0.8936
		c0.8828,0,1.6006,0.7178,1.6006,1.6001v3.3452C18.9502,13.1475,18.2324,13.8652,17.3496,13.8652z"/>
	<path d="M17.3037,8.3193c-0.2764,0-0.5-0.2236-0.5-0.5V6.2603c0-2.647-2.1533-4.8003-4.7998-4.8003
		c-2.647,0-4.8003,2.1533-4.8003,4.8003v1.5591c0,0.2764-0.2236,0.5-0.5,0.5s-0.5-0.2236-0.5-0.5V6.2603
		c0-3.1982,2.6021-5.8003,5.8003-5.8003s5.7998,2.6021,5.7998,5.8003v1.5591C17.8037,8.0957,17.5801,8.3193,17.3037,8.3193z"/>
	<path d="M12.1855,17.7227c-0.7192,0-1.3042-0.585-1.3042-1.3047s0.585-1.3047,1.3042-1.3047c0.7197,0,1.3047,0.585,1.3047,1.3047
		S12.9053,17.7227,12.1855,17.7227z M12.1855,16.1133c-0.168,0-0.3042,0.1367-0.3042,0.3047s0.1362,0.3047,0.3042,0.3047
		s0.3047-0.1367,0.3047-0.3047S12.3535,16.1133,12.1855,16.1133z"/>
</g>
<rect fill="none" width="24" height="24"/>
</svg>
