<?xml version="1.0" encoding="utf-8"?>
<!-- Generator: Adobe Illustrator 18.1.0, SVG Export Plug-In . SVG Version: 6.00 Build 0)  -->
<svg version="1.1" id="Layer_1" xmlns="http://www.w3.org/2000/svg" xmlns:xlink="http://www.w3.org/1999/xlink" x="0px" y="0px"
	 width="24px" height="24px" viewBox="0 0 24 24" enable-background="new 0 0 24 24" xml:space="preserve">
<g>
	<path d="M17.6084,13.6768c-0.4111,0-0.8242-0.041-1.2285-0.1221c-0.2705-0.0547-0.4463-0.3174-0.3916-0.5889
		c0.0547-0.2705,0.3203-0.4482,0.5889-0.3916c0.3389,0.0684,0.6865,0.1025,1.0312,0.1025c2.874,0,5.2129-2.3389,5.2129-5.2134
		s-2.3389-5.2129-5.2129-5.2129c-2.7188,0-5.002,2.1206-5.1992,4.8276c-0.0195,0.2754-0.2666,0.4839-0.5347,0.4624
		c-0.2754-0.02-0.4824-0.2593-0.4624-0.5347c0.2349-3.2275,2.9561-5.7554,6.1963-5.7554c3.4258,0,6.2129,2.7871,6.2129,6.2129
		C23.8213,10.8896,21.0342,13.6768,17.6084,13.6768z"/>
	<path d="M8.6523,22.752c-4.6484,0-8.4307-3.7822-8.4307-8.4307s3.7822-8.4307,8.4307-8.4307s8.4307,3.7822,8.4307,8.4307
		S13.3008,22.752,8.6523,22.752z M8.6523,6.8906c-4.0972,0-7.4307,3.3335-7.4307,7.4307c0,4.0977,3.3335,7.4307,7.4307,7.4307
		c4.0977,0,7.4307-3.333,7.4307-7.4307C16.083,10.2241,12.75,6.8906,8.6523,6.8906z"/>
	<path d="M12.7207,14.8213H4.584c-0.2764,0-0.5-0.2236-0.5-0.5s0.2236-0.5,0.5-0.5h8.1367c0.2764,0,0.5,0.2236,0.5,0.5
		S12.9971,14.8213,12.7207,14.8213z"/>
	<path d="M17.6084,10.2417c-0.2764,0-0.5-0.2236-0.5-0.5V5.1851c0-0.2764,0.2236-0.5,0.5-0.5s0.5,0.2236,0.5,0.5v4.5566
		C18.1084,10.0181,17.8848,10.2417,17.6084,10.2417z"/>
	<path d="M19.8867,7.9634h-4.5566c-0.2764,0-0.5-0.2236-0.5-0.5s0.2236-0.5,0.5-0.5h4.5566c0.2764,0,0.5,0.2236,0.5,0.5
		S20.1631,7.9634,19.8867,7.9634z"/>
</g>
<rect x="-0.006" y="0.001" fill="none" width="24" height="24"/>
</svg>
