<?xml version="1.0" encoding="utf-8"?>
<!-- Generator: Adobe Illustrator 18.1.0, SVG Export Plug-In . SVG Version: 6.00 Build 0)  -->
<svg version="1.1" id="Layer_1" xmlns="http://www.w3.org/2000/svg" xmlns:xlink="http://www.w3.org/1999/xlink" x="0px" y="0px"
	 width="24px" height="24px" viewBox="0 0 24 24" enable-background="new 0 0 24 24" xml:space="preserve">
<g>
	<path d="M21.2793,17.9736H2.6909c-1.5015,0-2.7231-1.2217-2.7231-2.7236V7.7192c0-1.5015,1.2217-2.7231,2.7231-2.7231h18.5884
		c1.502,0,2.7236,1.2217,2.7236,2.7231V15.25C24.0029,16.752,22.7812,17.9736,21.2793,17.9736z M2.6909,5.9961
		c-0.9502,0-1.7231,0.7729-1.7231,1.7231V15.25c0,0.9502,0.7729,1.7236,1.7231,1.7236h18.5884c0.9502,0,1.7236-0.7734,1.7236-1.7236
		V7.7192c0-0.9502-0.7734-1.7231-1.7236-1.7231H2.6909z"/>
	<path d="M8.0161,13.9961c-0.2764,0-0.5-0.2236-0.5-0.5v-1.8193c0-0.0005,0-0.0015,0-0.002V9.5234c0-0.2764,0.2236-0.5,0.5-0.5
		h1.8232c0.0957-0.0103,1.0767-0.0166,1.6553,0.5449c0.2656,0.2578,0.4058,0.5972,0.4058,0.9819
		c0,1.2725-1.3457,1.6177-2.0576,1.6226l-1.3267,0.002v1.3213C8.5161,13.7725,8.2925,13.9961,8.0161,13.9961z M8.5161,10.0234
		v1.1514l1.3223-0.002c0.0063,0,1.062-0.022,1.062-0.6226c0-0.1157-0.0308-0.1948-0.1025-0.2646
		c-0.2192-0.2129-0.7192-0.2671-0.9438-0.2622H8.5161z"/>
	<path d="M3.4541,13.9961c-0.2764,0-0.5-0.2236-0.5-0.5V9.5234c0-0.2764,0.2236-0.5,0.5-0.5h3.0034c0.2764,0,0.5,0.2236,0.5,0.5
		s-0.2236,0.5-0.5,0.5H3.9541v3.4727C3.9541,13.7725,3.7305,13.9961,3.4541,13.9961z"/>
	<path d="M6.0015,12.0098H3.4541c-0.2764,0-0.5-0.2236-0.5-0.5s0.2236-0.5,0.5-0.5h2.5474c0.2764,0,0.5,0.2236,0.5,0.5
		S6.2778,12.0098,6.0015,12.0098z"/>
	<path d="M15.9678,13.9961h-2.9238c-0.2764,0-0.5-0.2236-0.5-0.5V9.5234c0-0.2764,0.2236-0.5,0.5-0.5h2.9238
		c0.2764,0,0.5,0.2236,0.5,0.5s-0.2236,0.5-0.5,0.5h-2.4238v2.9727h2.4238c0.2764,0,0.5,0.2236,0.5,0.5
		S16.2441,13.9961,15.9678,13.9961z"/>
	<path d="M20.6885,13.9961h-3.0029c-0.2764,0-0.5-0.2236-0.5-0.5V9.5234c0-0.2764,0.2236-0.5,0.5-0.5h3.0029
		c0.2764,0,0.5,0.2236,0.5,0.5s-0.2236,0.5-0.5,0.5h-2.5029v2.9727h2.5029c0.2764,0,0.5,0.2236,0.5,0.5
		S20.9648,13.9961,20.6885,13.9961z"/>
	<path d="M20.2324,12.0098h-2.5469c-0.2764,0-0.5-0.2236-0.5-0.5s0.2236-0.5,0.5-0.5h2.5469c0.2764,0,0.5,0.2236,0.5,0.5
		S20.5088,12.0098,20.2324,12.0098z"/>
	<path d="M15.5918,12.0098h-2.5479c-0.2764,0-0.5-0.2236-0.5-0.5s0.2236-0.5,0.5-0.5h2.5479c0.2764,0,0.5,0.2236,0.5,0.5
		S15.8682,12.0098,15.5918,12.0098z"/>
	<path d="M11.4351,13.9961c-0.1392,0-0.2773-0.0576-0.3765-0.1709L9.4629,12.002c-0.1816-0.2075-0.1606-0.5234,0.0474-0.7056
		c0.2065-0.1826,0.5225-0.1616,0.7056,0.0474l1.5957,1.8232c0.1816,0.208,0.1606,0.5234-0.0474,0.7051
		C11.6694,13.9551,11.5522,13.9961,11.4351,13.9961z"/>
</g>
<rect x="-0.0137" y="0.0031" fill="none" width="24" height="24"/>
<rect x="-0.0137" fill="none" width="24" height="24"/>
</svg>
