<?xml version="1.0" encoding="utf-8"?>
<!-- Generator: Adobe Illustrator 18.1.0, SVG Export Plug-In . SVG Version: 6.00 Build 0)  -->
<svg version="1.1" id="Layer_1" xmlns="http://www.w3.org/2000/svg" xmlns:xlink="http://www.w3.org/1999/xlink" x="0px" y="0px"
	 width="24px" height="24px" viewBox="0 0 24 24" enable-background="new 0 0 24 24" xml:space="preserve">
<g>
	<path d="M21.8818,13.0195H14.5c-0.2764,0-0.5-0.2236-0.5-0.5v-3c0-0.2764,0.2236-0.5,0.5-0.5h7.3818
		c1.0898,0,1.9766,0.897,1.9766,2C23.8584,12.1221,22.9717,13.0195,21.8818,13.0195z M15,12.0195h6.8818
		c0.5381,0,0.9766-0.4487,0.9766-1s-0.4385-1-0.9766-1H15V12.0195z"/>
	<path d="M14.5,15.0195H4.8696c-2.5957,0-4.7075-2.1113-4.7075-4.7075V9.5195c0-0.2764,0.2236-0.5,0.5-0.5H14.5
		c0.2764,0,0.5,0.2236,0.5,0.5v5C15,14.7959,14.7764,15.0195,14.5,15.0195z M1.1621,10.0195v0.2925
		c0,2.0444,1.6631,3.7075,3.7075,3.7075H14v-4H1.1621z"/>
	<path d="M21.6494,11.5098c-0.1191,0-0.25-0.0498-0.3398-0.1401c-0.0996-0.0996-0.1494-0.23-0.1494-0.3599
		s0.0498-0.25,0.1396-0.3501c0.1904-0.1899,0.5195-0.1899,0.71,0c0.0898,0.1001,0.1504,0.23,0.1504,0.3501
		c0,0.1299-0.0605,0.2603-0.1504,0.3501C21.9102,11.46,21.79,11.5098,21.6494,11.5098z"/>
</g>
<rect y="0.0197" fill="none" width="24" height="24"/>
</svg>
