<?xml version="1.0" encoding="utf-8"?>
<!-- Generator: Adobe Illustrator 18.1.0, SVG Export Plug-In . SVG Version: 6.00 Build 0)  -->
<svg version="1.1" id="Layer_1" xmlns="http://www.w3.org/2000/svg" xmlns:xlink="http://www.w3.org/1999/xlink" x="0px" y="0px"
	 width="24px" height="24px" viewBox="0 0 24 24" enable-background="new 0 0 24 24" xml:space="preserve">
<g>
	<path d="M23.5146,24.0352H0.5142c-0.2764,0-0.5-0.2236-0.5-0.5v-23c0-0.2764,0.2236-0.5,0.5-0.5h23.0005
		c0.2764,0,0.5,0.2236,0.5,0.5v23C24.0146,23.8115,23.791,24.0352,23.5146,24.0352z M1.0142,23.0352h22.0005v-22H1.0142V23.0352z"/>
	<path d="M12.0146,19.8418c-4.3047,0-7.8066-3.502-7.8066-7.8066c0-4.3042,3.502-7.8057,7.8066-7.8057
		c4.3037,0,7.8057,3.5015,7.8057,7.8057C19.8203,16.3398,16.3184,19.8418,12.0146,19.8418z M12.0146,5.2295
		c-3.7534,0-6.8066,3.0532-6.8066,6.8057c0,3.7529,3.0532,6.8066,6.8066,6.8066c3.7529,0,6.8057-3.0537,6.8057-6.8066
		C18.8203,8.2827,15.7676,5.2295,12.0146,5.2295z"/>
	<path d="M14.5254,13.6826c-0.832,0-1.5088-0.6768-1.5088-1.5088s0.6768-1.5088,1.5088-1.5088s1.5088,0.6768,1.5088,1.5088
		S15.3574,13.6826,14.5254,13.6826z M14.5254,11.665c-0.2803,0-0.5088,0.228-0.5088,0.5088c0,0.2803,0.2285,0.5088,0.5088,0.5088
		s0.5088-0.2285,0.5088-0.5088C15.0342,11.8931,14.8057,11.665,14.5254,11.665z"/>
	<path d="M9.5542,13.6826c-0.832,0-1.5088-0.6768-1.5088-1.5088s0.6768-1.5088,1.5088-1.5088s1.5088,0.6768,1.5088,1.5088
		S10.3862,13.6826,9.5542,13.6826z M9.5542,11.665c-0.2808,0-0.5088,0.228-0.5088,0.5088c0,0.2803,0.228,0.5088,0.5088,0.5088
		s0.5088-0.2285,0.5088-0.5088C10.063,11.8931,9.835,11.665,9.5542,11.665z"/>
</g>
<rect x="0.0142" y="0.0354" fill="none" width="24" height="24"/>
</svg>
