<?xml version="1.0" encoding="utf-8"?>
<!-- Generator: Adobe Illustrator 18.1.0, SVG Export Plug-In . SVG Version: 6.00 Build 0)  -->
<svg version="1.1" id="Layer_1" xmlns="http://www.w3.org/2000/svg" xmlns:xlink="http://www.w3.org/1999/xlink" x="0px" y="0px"
	 width="24px" height="24px" viewBox="0 0 24 24" enable-background="new 0 0 24 24" xml:space="preserve">
<g>
	<path d="M19.2676,14.04c-0.1699,0-0.3359-0.0869-0.4297-0.2432c-0.0957-0.1611-2.3633-3.9668-3.1162-6.2173
		c-0.249-0.7422-0.4502-1.6909-0.5586-2.2002c-0.0303-0.1445-0.0518-0.248-0.0635-0.29c-0.0488-0.1143-0.1895-0.1069-0.1875-0.105
		l-0.9277,0.001c-0.2764,0-0.5-0.2236-0.5-0.5s0.2236-0.5,0.5-0.5h0.8975c0.2725-0.0171,0.8936,0.1191,1.1572,0.7642
		c0.0137,0.0352,0.0527,0.1885,0.1025,0.4219c0.1045,0.4902,0.2979,1.4019,0.5283,2.0903c0.7188,2.1484,3.0039,5.9834,3.0273,6.0215
		c0.1416,0.2373,0.0635,0.5439-0.1729,0.6865C19.4434,14.0176,19.3555,14.04,19.2676,14.04z"/>
	<path d="M11.7969,13.5732c-0.1328,0-0.2656-0.0527-0.3638-0.1572c-0.1895-0.2002-0.1802-0.5166,0.0205-0.7061l4.8296-4.5547
		c0.2012-0.1899,0.5176-0.1792,0.7061,0.0205c0.1895,0.2012,0.1807,0.5176-0.0205,0.707l-4.8291,4.5537
		C12.043,13.5283,11.9199,13.5732,11.7969,13.5732z"/>
	<path d="M10.8306,13.0986c-0.2212,0-0.4233-0.1484-0.4829-0.3721L8.9893,7.5938C8.9497,7.4438,8.9819,7.2837,9.0767,7.1606
		c0.0942-0.1226,0.2407-0.1948,0.396-0.1948h6.7236c0.2764,0,0.5,0.2236,0.5,0.5s-0.2236,0.5-0.5,0.5h-6.0742l1.1924,4.5049
		c0.0708,0.2666-0.0884,0.541-0.3555,0.6113C10.916,13.0938,10.873,13.0986,10.8306,13.0986z"/>
	<path d="M5.0024,13.5703c-0.1094,0-0.2192-0.0352-0.311-0.1094c-0.2163-0.1719-0.2515-0.4863-0.0796-0.7021L8.9727,7.291V6.1558
		c0-0.2764,0.2236-0.5,0.5-0.5s0.5,0.2236,0.5,0.5v1.3101c0,0.1133-0.0386,0.2231-0.1089,0.3115L5.394,13.3818
		C5.2949,13.5059,5.1494,13.5703,5.0024,13.5703z"/>
	<path d="M4.6396,18.0762c-2.5161,0-4.563-2.0469-4.563-4.5625c0-2.5161,2.0469-4.5635,4.563-4.5635
		c2.1484,0,4.0288,1.5659,4.4702,3.7236c0.0557,0.2705-0.1191,0.5352-0.3896,0.5908c-0.271,0.0557-0.5342-0.1191-0.5898-0.3896
		c-0.3472-1.6948-1.8149-2.9248-3.4907-2.9248c-1.9648,0-3.563,1.5986-3.563,3.5635s1.5981,3.5625,3.563,3.5625
		c1.5718,0,2.9399-1.0088,3.4048-2.5088c0.0811-0.2637,0.3608-0.415,0.6255-0.3301c0.2637,0.082,0.4111,0.3613,0.3296,0.625
		C8.4048,16.7852,6.6523,18.0762,4.6396,18.0762z"/>
	<path d="M19.3311,18.0762c-2.5156,0-4.5625-2.0469-4.5625-4.5625c0-2.5161,2.0469-4.5635,4.5625-4.5635
		s4.5625,2.0474,4.5625,4.5635C23.8936,16.0293,21.8467,18.0762,19.3311,18.0762z M19.3311,9.9502
		c-1.9648,0-3.5625,1.5986-3.5625,3.5635s1.5977,3.5625,3.5625,3.5625s3.5625-1.5977,3.5625-3.5625S21.2959,9.9502,19.3311,9.9502z"
		/>
	<path d="M10.8311,15.5498c-0.0513,0-0.1709,0-6.332-1.0049c-0.0337-0.0049-0.0659-0.0137-0.0972-0.0254
		c-0.4292-0.1084-0.7407-0.4941-0.7407-0.9414c0-0.5391,0.439-0.9775,0.978-0.9775c6.085-0.502,6.1655-0.502,6.1919-0.502
		c0.9517,0,1.7256,0.7744,1.7256,1.7256S11.7827,15.5498,10.8311,15.5498z M4.8325,13.5859c2.3184,0.3779,5.6719,0.9199,6.02,0.9639
		c0.3901-0.0117,0.7041-0.333,0.7041-0.7256c0-0.4004-0.3257-0.7256-0.7256-0.7256C10.6851,13.1074,7.2188,13.3906,4.8325,13.5859z"
		/>
	<path d="M9.3984,6.6582c-0.8042,0-2.9473-0.792-2.96-1.7437C6.4312,4.377,6.916,4.0918,7.8789,4.0659
		c4.1621,0.3379,4.2139,0.6406,4.2793,1.0244c0.0342,0.2061-0.0449,0.4775-0.3735,0.6235c-1.1675,0.5181-2.125,0.9053-2.125,0.9053
		C9.6118,6.6387,9.561,6.6504,9.5098,6.6543C9.4971,6.6553,9.4111,6.6582,9.3984,6.6582z M7.7534,5.0688
		C8.1914,5.335,8.9321,5.644,9.3687,5.6577C9.5054,5.6021,9.7998,5.481,10.189,5.3159C9.5063,5.2212,8.6362,5.1284,7.8516,5.0645
		C7.8169,5.0654,7.7842,5.0669,7.7534,5.0688z"/>
</g>
<rect x="-0.0136" y="0.0002" fill="none" width="24" height="24"/>
</svg>
