<?xml version="1.0" encoding="utf-8"?>
<!-- Generator: Adobe Illustrator 18.1.0, SVG Export Plug-In . SVG Version: 6.00 Build 0)  -->
<svg version="1.1" id="Layer_1" xmlns="http://www.w3.org/2000/svg" xmlns:xlink="http://www.w3.org/1999/xlink" x="0px" y="0px"
	 width="24px" height="24px" viewBox="0 0 24 24" enable-background="new 0 0 24 24" xml:space="preserve">
<g>
	<path d="M7.7871,14.291H7.3306c-0.2764,0-0.5-0.2236-0.5-0.5s0.2236-0.5,0.5-0.5h0.4565c0.2764,0,0.5,0.2236,0.5,0.5
		S8.0635,14.291,7.7871,14.291z"/>
	<path d="M8.9141,11.3638c-0.1279,0-0.2559-0.0488-0.3535-0.1465l-0.3438-0.3438c-0.1953-0.1953-0.1953-0.5117,0-0.707
		s0.5117-0.1953,0.707,0l0.3438,0.3438c0.1953,0.1953,0.1953,0.5117,0,0.707C9.1699,11.3149,9.042,11.3638,8.9141,11.3638z"/>
	<path d="M12.0186,10.0024c-0.2764,0-0.5-0.2236-0.5-0.5V9.0649c0-0.2764,0.2236-0.5,0.5-0.5s0.5,0.2236,0.5,0.5v0.4375
		C12.5186,9.7788,12.2949,10.0024,12.0186,10.0024z"/>
	<path d="M16.583,14.292h-0.4756c-0.2764,0-0.5-0.2236-0.5-0.5s0.2236-0.5,0.5-0.5h0.4756c0.2764,0,0.5,0.2236,0.5,0.5
		S16.8594,14.292,16.583,14.292z"/>
	<path d="M16.5859,17.9971H7.3374c-0.1484,0-0.2891-0.0664-0.3843-0.1797c-0.9722-1.168-1.5078-2.6475-1.5078-4.168
		c0-3.5933,2.9233-6.5166,6.5161-6.5166c3.5933,0,6.5161,2.9233,6.5161,6.5166c0,1.5205-0.5352,3-1.5078,4.168
		C16.875,17.9307,16.7344,17.9971,16.5859,17.9971z M7.5781,16.9971h8.7676c0.7314-0.958,1.1318-2.1377,1.1318-3.3477
		c0-3.042-2.4746-5.5166-5.5161-5.5166s-5.5161,2.4746-5.5161,5.5166C6.4453,14.8594,6.8462,16.0391,7.5781,16.9971z"/>
	<path d="M3.5024,17.999c-0.5859,0-1.1714-0.1572-1.7002-0.4717c-1.0249-0.6084-1.6372-1.6816-1.6372-2.8721
		c0-1.0303,0.4648-1.9873,1.2759-2.626c0.8062-0.6357,1.8438-0.8608,2.8462-0.6201c0.2681,0.0649,0.4336,0.335,0.3691,0.6035
		c-0.0649,0.2676-0.3354,0.4268-0.6035,0.3691c-0.7021-0.1709-1.4292-0.0117-1.9932,0.4326
		c-0.5684,0.4482-0.8945,1.1191-0.8945,1.8408c0,0.834,0.4292,1.5859,1.1475,2.0127c0.7163,0.4229,1.5806,0.4404,2.3101,0.041
		c0.2432-0.1338,0.5464-0.0439,0.6787,0.1992c0.1323,0.2422,0.043,0.5459-0.1992,0.6777C4.5981,17.8613,4.0498,17.999,3.5024,17.999
		z"/>
	<path d="M20.4697,17.999c-0.5469,0-1.0947-0.1377-1.5986-0.4131c-0.2432-0.1318-0.332-0.4355-0.1992-0.6777
		c0.1328-0.2441,0.4346-0.333,0.6777-0.1992c0.7324,0.3994,1.5957,0.3848,2.3105-0.041c0.7188-0.4268,1.1475-1.1787,1.1475-2.0127
		c0-0.7217-0.3262-1.3926-0.8945-1.8408c-0.5625-0.4434-1.2891-0.6016-1.9932-0.4326c-0.2803,0.0615-0.5391-0.1025-0.6035-0.3691
		c-0.0645-0.2686,0.1006-0.5386,0.3691-0.6035c1.0068-0.2407,2.041-0.0151,2.8467,0.6201c0.8105,0.6387,1.2754,1.5957,1.2754,2.626
		c0,1.1904-0.6123,2.2637-1.6377,2.8721C21.6416,17.8408,21.0566,17.999,20.4697,17.999z"/>
	<path d="M12,16.3262c-0.8433,0-1.5293-0.6855-1.5293-1.5283s0.686-1.5293,1.5293-1.5293c0.8428,0,1.5293,0.6865,1.5293,1.5293
		S12.8428,16.3262,12,16.3262z M12,14.2686c-0.292,0-0.5293,0.2373-0.5293,0.5293c0,0.291,0.2373,0.5283,0.5293,0.5283
		s0.5293-0.2373,0.5293-0.5283C12.5293,14.5059,12.292,14.2686,12,14.2686z"/>
	<path d="M12.5762,14.4453c-0.0967,0-0.1943-0.0273-0.2803-0.0859c-0.2285-0.1543-0.2891-0.4648-0.1338-0.6943l2.4268-3.5918
		c0.1553-0.229,0.4668-0.2866,0.6943-0.1348c0.2285,0.1548,0.2891,0.4658,0.1338,0.6943l-2.4268,3.5928
		C12.8936,14.3682,12.7363,14.4453,12.5762,14.4453z"/>
</g>
<rect x="-0.0137" fill="none" width="24" height="24"/>
</svg>
