<?xml version="1.0" encoding="utf-8"?>
<!-- Generator: Adobe Illustrator 18.1.0, SVG Export Plug-In . SVG Version: 6.00 Build 0)  -->
<svg version="1.1" id="Layer_1" xmlns="http://www.w3.org/2000/svg" xmlns:xlink="http://www.w3.org/1999/xlink" x="0px" y="0px"
	 width="24px" height="24px" viewBox="0 0 24 24" enable-background="new 0 0 24 24" xml:space="preserve">
<g>
	<path d="M14.7686,10.9375c-0.4463,0-0.7822-0.3667-0.7822-0.8535L13.957,9c-1.123,0-1.9707-0.8462-1.9707-1.9678V4.0698
		C11.9863,2.9092,12.8516,2,13.957,2h6.0039c1.1172,0,2.0254,0.9287,2.0254,2.0698v2.9624C21.9863,8.1357,21.0967,9,19.9609,9
		h-2.9141l-1.6768,1.6797C15.1865,10.8506,14.9775,10.9375,14.7686,10.9375z M13.957,3c-0.5439,0-0.9707,0.4697-0.9707,1.0698
		v2.9624C12.9863,7.6021,13.3857,8,13.957,8h0.5293c0.2764,0,0.5,0.2236,0.5,0.5v1.1494l1.5-1.5024
		C16.5801,8.0527,16.707,8,16.8398,8h3.1211c0.5938,0,1.0254-0.4072,1.0254-0.9678V4.0698C20.9863,3.48,20.5264,3,19.9609,3H13.957z
		"/>
	<path d="M7.1025,10.4521c-1.2495,0-2.0786-1.5586-2.0786-2.5894c0-1.146,0.9326-2.0786,2.0786-2.0786s2.0786,0.9326,2.0786,2.0786
		C9.1812,8.8936,8.3521,10.4521,7.1025,10.4521z M7.1025,6.7842c-0.5947,0-1.0786,0.4839-1.0786,1.0786
		c0,0.6567,0.5576,1.5894,1.0786,1.5894s1.0786-0.9326,1.0786-1.5894C8.1812,7.2681,7.6973,6.7842,7.1025,6.7842z"/>
	<path d="M22.9863,22h-22c-0.2764,0-0.5-0.2236-0.5-0.5S0.71,21,0.9863,21h22c0.2764,0,0.5,0.2236,0.5,0.5S23.2627,22,22.9863,22z"
		/>
	<path d="M10.4907,20.0205c-0.2559,0-0.4736-0.1953-0.4976-0.4541l-0.4785-5.2227c-0.0015-0.8896-0.4478-1.6689-1.1631-2.1045
		c-0.7334,0.7656-1.7646,0.7656-2.498,0c-0.7153,0.4346-1.1611,1.209-1.1611,2.0586l-0.3447,3.7881
		c-0.0225,0.2422,0.0557,0.4756,0.2197,0.6553c0.1646,0.1797,0.3892,0.2793,0.6328,0.2793h2.3423c0.2764,0,0.5,0.2236,0.5,0.5
		s-0.2236,0.5-0.5,0.5H5.2002c-0.5205,0-1.0205-0.2207-1.3716-0.6055s-0.5244-0.9023-0.4771-1.4209l0.3428-3.7422
		c-0.002-1.3311,0.8228-2.5659,2.0986-3.1006c0.2183-0.0913,0.4697-0.0181,0.6045,0.1768c0.4463,0.6455,0.9639,0.6455,1.4102,0
		c0.1343-0.1948,0.3853-0.2681,0.6045-0.1768c1.2759,0.5347,2.1006,1.7695,2.1006,3.1465l0.4766,5.1768
		c0.0249,0.2754-0.1772,0.5186-0.4526,0.5439C10.5215,20.0195,10.5059,20.0205,10.4907,20.0205z"/>
</g>
<rect x="-0.0136" y="0.0002" fill="none" width="24" height="24"/>
</svg>
