<?xml version="1.0" encoding="utf-8"?>
<!-- Generator: Adobe Illustrator 18.1.0, SVG Export Plug-In . SVG Version: 6.00 Build 0)  -->
<svg version="1.1" id="Layer_1" xmlns="http://www.w3.org/2000/svg" xmlns:xlink="http://www.w3.org/1999/xlink" x="0px" y="0px"
	 width="24px" height="24px" viewBox="0 0 24 24" enable-background="new 0 0 24 24" xml:space="preserve">
<g>
	<path d="M21.5537,24.0312h-1.6055c-0.8555,0-1.5518-0.6963-1.5518-1.5518v-1.459H5.5933v1.459
		c0,0.8555-0.6963,1.5518-1.5518,1.5518H2.436c-0.8555,0-1.5518-0.6963-1.5518-1.5518v-5.2197
		c0.1084-1.0732,0.3447-3.2285,0.5708-4.3506c-0.5576-0.0918-1.2676-0.3018-1.2676-1.1396v-0.7246
		c0-0.6011,0.4888-1.0898,1.0894-1.0898h2.6929c0.2764,0,0.5,0.2236,0.5,0.5s-0.2236,0.5-0.5,0.5H1.2769
		c-0.0493,0-0.0894,0.0405-0.0894,0.0898v0.7246c0.0698,0.106,0.4326,0.1558,0.6494,0.1855
		c0.1084,0.0146,0.2178,0.0298,0.3252,0.0479c0.1572,0.0273,0.292,0.127,0.3633,0.2695s0.0703,0.3105-0.0024,0.4521
		c-0.1372,0.3193-0.4351,2.585-0.6411,4.5869l0.0024,5.168c0,0.3047,0.2476,0.5518,0.5518,0.5518h1.6055
		c0.3042,0,0.5518-0.2471,0.5518-0.5518v-1.959c0-0.2764,0.2236-0.5,0.5-0.5h13.8032c0.2764,0,0.5,0.2236,0.5,0.5v1.959
		c0,0.3047,0.2471,0.5518,0.5518,0.5518h1.6055c0.3047,0,0.5518-0.2471,0.5518-0.5518v-5.2197
		c-0.2041-1.9512-0.5029-4.2188-0.6436-4.5449c-0.0605-0.1406-0.0586-0.3135,0.0146-0.4482
		c0.0723-0.1348,0.1982-0.2402,0.3486-0.2666c0.1074-0.0181,0.2178-0.0332,0.3262-0.0479c0.2109-0.0288,0.5635-0.0771,0.6328-0.1494
		l-0.001-0.7583c0-0.0493-0.04-0.0894-0.0889-0.0894h-2.6748c-0.2764,0-0.5-0.2236-0.5-0.5s0.2236-0.5,0.5-0.5h2.6748
		c0.6006,0,1.0889,0.4888,1.0889,1.0894v0.7246c0,0.8374-0.6982,1.0464-1.25,1.1372c0.2266,1.1211,0.4629,3.2686,0.5693,4.3018
		l0.0029,5.2715C23.1055,23.335,22.4092,24.0312,21.5537,24.0312z"/>
	<path d="M17.4336,12.9961H6.5562c-1.457,0-3.0864-1.1157-3.0864-2.6084c0-0.0439,0.0059-0.0884,0.0176-0.1309l1.0376-3.8291
		c0.2422-1.2168,1.1943-2.4775,2.7573-2.4775h9.4258c1.5713,0,2.5205,1.2617,2.7656,2.5127l1.0283,3.7939
		c0.0117,0.043,0.0176,0.0869,0.0176,0.1309C20.5195,11.8804,18.8906,12.9961,17.4336,12.9961z M4.4717,10.4473
		c0.0488,0.7905,1.0571,1.5488,2.0845,1.5488h10.8774c1.0273,0,2.0352-0.7583,2.084-1.5488L18.5,6.6895
		c-0.1621-0.8213-0.7207-1.7393-1.792-1.7393H7.2822c-0.9966,0-1.6147,0.8569-1.7847,1.7065L4.4717,10.4473z"/>
	<path d="M14.4854,17.001h-4.981c-0.2764,0-0.5-0.2236-0.5-0.5s0.2236-0.5,0.5-0.5h4.981c0.2764,0,0.5,0.2236,0.5,0.5
		S14.7617,17.001,14.4854,17.001z"/>
	<path d="M14.4854,19.001h-4.981c-0.2764,0-0.5-0.2236-0.5-0.5s0.2236-0.5,0.5-0.5h4.981c0.2764,0,0.5,0.2236,0.5,0.5
		S14.7617,19.001,14.4854,19.001z"/>
	<path d="M5.9932,19.0859c-1.1328,0-2.0542-0.9209-2.0542-2.0537s0.9214-2.0537,2.0542-2.0537c1.1323,0,2.0537,0.9209,2.0537,2.0537
		S7.1255,19.0859,5.9932,19.0859z M5.9932,15.9785c-0.5811,0-1.0542,0.4727-1.0542,1.0537s0.4731,1.0537,1.0542,1.0537
		s1.0537-0.4727,1.0537-1.0537S6.5742,15.9785,5.9932,15.9785z"/>
	<path d="M17.9971,19.0859c-1.1328,0-2.0547-0.9209-2.0547-2.0537s0.9219-2.0547,2.0547-2.0547s2.0537,0.9219,2.0537,2.0547
		S19.1299,19.0859,17.9971,19.0859z M17.9971,15.9775c-0.582,0-1.0547,0.4727-1.0547,1.0547c0,0.5811,0.4727,1.0537,1.0547,1.0537
		c0.5811,0,1.0537-0.4727,1.0537-1.0537C19.0508,16.4502,18.5781,15.9775,17.9971,15.9775z"/>
	<path d="M13.2959,6.9502h-2.5957c-0.2764,0-0.5-0.2236-0.5-0.5s0.2236-0.5,0.5-0.5h2.5957c0.2764,0,0.5,0.2236,0.5,0.5
		S13.5723,6.9502,13.2959,6.9502z"/>
	<path d="M22.6055,21.0205H1.3843c-0.2764,0-0.5-0.2236-0.5-0.5s0.2236-0.5,0.5-0.5h21.2212c0.2764,0,0.5,0.2236,0.5,0.5
		S22.8818,21.0205,22.6055,21.0205z"/>
</g>
<rect x="-0.0137" y="0.0002" fill="none" width="24" height="24"/>
</svg>
