<?xml version="1.0" encoding="utf-8"?>
<!-- Generator: Adobe Illustrator 18.1.0, SVG Export Plug-In . SVG Version: 6.00 Build 0)  -->
<svg version="1.1" id="Layer_1" xmlns="http://www.w3.org/2000/svg" xmlns:xlink="http://www.w3.org/1999/xlink" x="0px" y="0px"
	 width="24px" height="24px" viewBox="0 0 24 24" enable-background="new 0 0 24 24" xml:space="preserve">
<g>
	<path d="M20.2217,23.958H16.752c-0.1055,0-0.209-0.0332-0.2949-0.0957c-0.168-0.123-0.6797-0.4961-1.3584-2.6025
		c-0.085-0.2627,0.0596-0.5449,0.3223-0.6289c0.2617-0.084,0.5439,0.0596,0.6289,0.3223c0.4229,1.3125,0.7432,1.8174,0.9004,2.0049
		h3.0518c0.6934-0.8105,3.6523-4.9434-0.0957-12.8916h-2.8125c-0.2568,0.4917-0.8145,1.6279-1.123,2.7832
		c-0.0723,0.2666-0.3408,0.4219-0.6133,0.3535c-0.2666-0.0723-0.4248-0.3457-0.3535-0.6133
		c0.4434-1.6528,1.3193-3.2051,1.3564-3.2705c0.0889-0.1562,0.2549-0.2529,0.4346-0.2529h3.4268
		c0.1914,0,0.3662,0.1094,0.4502,0.2812c4.6709,9.6133,0.0977,14.2734-0.0996,14.4668
		C20.4785,23.9062,20.3525,23.958,20.2217,23.958z"/>
	<path d="M8.0083,23.958c-3.8896,0-7.0542-3.1641-7.0542-7.0537s3.1646-7.0547,7.0542-7.0547s7.0542,3.165,7.0542,7.0547
		S11.8979,23.958,8.0083,23.958z M8.0083,10.8496c-3.3384,0-6.0542,2.7158-6.0542,6.0547c0,3.3379,2.7158,6.0537,6.0542,6.0537
		s6.0542-2.7158,6.0542-6.0537C14.0625,13.5654,11.3467,10.8496,8.0083,10.8496z"/>
	<path d="M20.1992,6.0308h-3.3926c-0.2314,0-0.4326-0.1592-0.4863-0.3843c-0.6221-2.6177-0.6221-2.6597-0.6221-2.7354
		c0-1.5386,1.2578-2.79,2.8037-2.79s2.8027,1.2515,2.8027,2.79c0,0.0732,0,0.1172-0.6191,2.7349
		C20.6328,5.8716,20.4307,6.0308,20.1992,6.0308z M17.2021,5.0308h2.6016c0.2129-0.9058,0.4844-2.0669,0.5068-2.1929
		c-0.0059-0.9136-0.8145-1.7168-1.8086-1.7168s-1.8037,0.8032-1.8037,1.79C16.7158,2.9731,16.9873,4.1265,17.2021,5.0308z"/>
	<path d="M4.7158,15.8096c-0.7241,0-1.313-0.5889-1.313-1.3135c0-0.7236,0.5889-1.3125,1.313-1.3125s1.313,0.5889,1.313,1.3125
		C6.0288,15.2207,5.4399,15.8096,4.7158,15.8096z M4.7158,14.1836c-0.1724,0-0.313,0.1406-0.313,0.3125
		c0,0.1729,0.1406,0.3135,0.313,0.3135s0.313-0.1406,0.313-0.3135C5.0288,14.3242,4.8882,14.1836,4.7158,14.1836z"/>
	<path d="M7.3569,14.0176c-0.7261,0-1.3169-0.5908-1.3169-1.3164c0-0.7266,0.5908-1.3174,1.3169-1.3174s1.3169,0.5908,1.3169,1.3174
		C8.6738,13.4268,8.083,14.0176,7.3569,14.0176z M7.3569,12.3838c-0.1748,0-0.3169,0.1426-0.3169,0.3174
		s0.1421,0.3164,0.3169,0.3164s0.3169-0.1416,0.3169-0.3164S7.5317,12.3838,7.3569,12.3838z"/>
	<path d="M7.5205,17.0527c-0.7261,0-1.3169-0.5908-1.3169-1.3164c0-0.7266,0.5908-1.3174,1.3169-1.3174s1.3169,0.5908,1.3169,1.3174
		C8.8374,16.4619,8.2466,17.0527,7.5205,17.0527z M7.5205,15.4189c-0.1748,0-0.3169,0.1426-0.3169,0.3174
		s0.1421,0.3164,0.3169,0.3164s0.3169-0.1416,0.3169-0.3164S7.6953,15.4189,7.5205,15.4189z"/>
	<path d="M20.2217,10.0664h-3.4268c-0.2764,0-0.5-0.2236-0.5-0.5V5.5239c0-0.2764,0.2236-0.5,0.5-0.5h3.4092
		c0.2754,0,0.499,0.2227,0.5,0.498l0.0176,4.0425c0.001,0.1328-0.0518,0.2603-0.1455,0.3545S20.3545,10.0664,20.2217,10.0664z
		 M17.2949,9.0664h2.4248l-0.0137-3.0425h-2.4111V9.0664z"/>
</g>
<rect x="0.0142" y="0.0354" fill="none" width="24" height="24"/>
</svg>
