<?xml version="1.0" encoding="utf-8"?>
<!-- Generator: Adobe Illustrator 18.1.0, SVG Export Plug-In . SVG Version: 6.00 Build 0)  -->
<svg version="1.1" id="Layer_1" xmlns="http://www.w3.org/2000/svg" xmlns:xlink="http://www.w3.org/1999/xlink" x="0px" y="0px"
	 width="24px" height="24px" viewBox="0 0 24 24" enable-background="new 0 0 24 24" xml:space="preserve">
<g>
	<path d="M17.6641,24.0049H6.4761c-0.1685,0-0.3257-0.085-0.418-0.2256c-0.4639-0.708-0.8804-1.4775-1.2388-2.2881
		c-1.021-2.3115-1.5605-4.9521-1.5605-7.6387c0-1.2764,0.1206-2.5454,0.3579-3.7705c0.0532-0.27,0.314-0.4463,0.5859-0.3955
		c0.271,0.0522,0.4482,0.3149,0.3955,0.5859c-0.2251,1.1626-0.3394,2.3672-0.3394,3.5801c0,2.5479,0.5103,5.0498,1.4756,7.2344
		c0.2983,0.6748,0.6392,1.3193,1.0151,1.918h10.6411c0.376-0.5986,0.7168-1.2432,1.0156-1.918
		c0.9648-2.1846,1.4756-4.6855,1.4756-7.2344c0-1.3867-0.1494-2.7573-0.4434-4.0742c-0.0596-0.2695,0.1094-0.5366,0.3789-0.5967
		c0.2812-0.0625,0.5371,0.1104,0.5977,0.3789c0.3096,1.3882,0.4668,2.832,0.4668,4.292c0,2.6865-0.54,5.3281-1.5615,7.6387
		c-0.3574,0.8105-0.7744,1.5801-1.2383,2.2881C17.9902,23.9199,17.833,24.0049,17.6641,24.0049z"/>
	<path d="M17.835,5.0347H6.1934c-0.6504,0-1.1792-0.5288-1.1792-1.1792V1.2134c0-0.6499,0.5288-1.1787,1.1792-1.1787H17.835
		c0.6504,0,1.1797,0.5288,1.1797,1.1787v2.6421C19.0146,4.5059,18.4854,5.0347,17.835,5.0347z M6.1934,1.0347
		c-0.0986,0-0.1792,0.0801-0.1792,0.1787v2.6421c0,0.0986,0.0806,0.1792,0.1792,0.1792H17.835c0.0986,0,0.1797-0.0806,0.1797-0.1792
		V1.2134c0-0.0986-0.0811-0.1787-0.1797-0.1787H6.1934z"/>
	<path d="M4.0801,9.2881c-0.3511,0-0.686-0.1729-0.9961-0.5146c-0.2793-0.3076-0.394-0.689-0.3306-1.1025
		C2.9878,6.1328,5.77,4.4292,6.3257,4.1035c0.0767-0.0449,0.1641-0.0688,0.2529-0.0688H17.835c0.1299,0,0.2549,0.0503,0.3477,0.1406
		c0.0127,0.0122,1.2803,1.2402,2.2646,2.2798c0.4395,0.4648,0.5732,1.0054,0.3672,1.4839c-0.2051,0.4756-0.708,0.7715-1.3125,0.7715
		l0,0c-0.5391,0-1.1055-0.2383-1.5967-0.6709c-0.3506-0.3091-1.4189-1.251-2.1094-1.251c-0.1182,0-0.3975,0-0.6543,0.5566
		c-0.4941,1.0669-1.21,1.291-1.7227,1.291c-0.7871,0-1.6528-0.5176-2.5742-1.5381c-0.2163-0.2393-0.3169-0.2651-0.3179-0.2656
		c-0.0439,0.0435-0.228,0.3633-0.3501,0.5747C9.8198,8.0269,9.3311,8.876,8.3315,9.0244C8.1748,9.0479,8.0376,9.0581,7.9175,9.0581
		c-0.9912,0-1.168-0.7007-1.2524-1.0376c-0.0723-0.2856-0.0723-0.2856-0.2661-0.293l0,0c-0.312,0-0.6328,0.3506-0.9434,0.6895
		C5.0635,8.8452,4.6577,9.2881,4.0801,9.2881z M6.7163,5.0347C5.5122,5.7617,3.8579,7.0581,3.7417,7.8218
		C3.7241,7.938,3.7471,8.0166,3.8242,8.1016c0.1255,0.1377,0.2163,0.1865,0.2559,0.1865c0.1377,0,0.4385-0.3286,0.6377-0.5464
		C5.1318,7.29,5.647,6.7275,6.3838,6.7275c0.9951,0.0361,1.168,0.7197,1.2505,1.0483c0.0713,0.2822,0.0713,0.2822,0.2832,0.2822
		c0.0776,0,0.166-0.0078,0.2671-0.0229c0.521-0.0771,0.8286-0.6108,1.126-1.127c0.3042-0.5283,0.6187-1.0747,1.229-1.0747
		c0.4575,0,0.8169,0.3394,1.0474,0.5947c0.6934,0.7676,1.3613,1.208,1.832,1.208c0.1201,0,0.4863,0,0.8145-0.7109
		c0.4346-0.9395,1.0898-1.1367,1.5625-1.1367c0.7383,0,1.5928,0.4629,2.7705,1.501c0.416,0.3662,0.7646,0.4209,0.9355,0.4209l0,0
		c0.2217,0,0.3594-0.0869,0.3945-0.167c0.0391-0.0913-0.0283-0.2451-0.1758-0.4009c-0.7754-0.8184-1.7305-1.7578-2.0889-2.1079
		H6.7163z"/>
	<path d="M16.5146,19.0342H7.5142c-0.2764,0-0.5-0.2236-0.5-0.5v-6c0-0.2764,0.2236-0.5,0.5-0.5h1.9697
		c0.3779-1.0278,1.3652-1.7378,2.4863-1.7378c1.1206,0,2.1089,0.71,2.4868,1.7378h2.0576c0.2764,0,0.5,0.2236,0.5,0.5v6
		C17.0146,18.8105,16.791,19.0342,16.5146,19.0342z M8.0142,18.0342h8.0005v-5h-1.9355c-0.2393,0-0.4443-0.1689-0.4902-0.4033
		c-0.1523-0.7734-0.833-1.3345-1.6187-1.3345s-1.4663,0.561-1.6182,1.3345c-0.0464,0.2344-0.252,0.4033-0.4907,0.4033H8.0142
		V18.0342z"/>
</g>
<rect x="0.0142" y="0.0346" fill="none" width="24" height="24"/>
</svg>
