<?xml version="1.0" encoding="utf-8"?>
<!-- Generator: Adobe Illustrator 18.1.0, SVG Export Plug-In . SVG Version: 6.00 Build 0)  -->
<svg version="1.1" id="Layer_1" xmlns="http://www.w3.org/2000/svg" xmlns:xlink="http://www.w3.org/1999/xlink" x="0px" y="0px"
	 width="24px" height="24px" viewBox="0 0 24 24" enable-background="new 0 0 24 24" xml:space="preserve">
<g>
	<path d="M10.5332,4.0352H6.459c-0.2764,0-0.5-0.2236-0.5-0.5c0-1.3511,1.1855-2.5366,2.5371-2.5366
		c1.3276,0,2.5371,1.209,2.5371,2.5366C11.0332,3.8115,10.8096,4.0352,10.5332,4.0352z M7.061,3.0352h2.8701
		C9.7124,2.4868,9.1616,1.9985,8.4961,1.9985S7.2798,2.4868,7.061,3.0352z"/>
	<path d="M2.5264,15.0352c-0.2764,0-0.5-0.2236-0.5-0.5V4.3589c0-2.2832,1.8579-4.1411,4.1411-4.1411
		c1.0283,0,1.9443,0.3101,2.6484,0.8965C9.0283,1.291,9.0571,1.6064,8.8804,1.8184C8.7031,2.0303,8.3877,2.0591,8.1763,1.8828
		c-0.5225-0.4351-1.2168-0.665-2.0088-0.665c-1.7319,0-3.1411,1.4092-3.1411,3.1411v10.1763
		C3.0264,14.8115,2.8027,15.0352,2.5264,15.0352z"/>
	<g>
		<g>
			<path d="M8.4961,6.3169c-0.2764,0-0.5-0.2236-0.5-0.5V5.4668c0-0.2764,0.2236-0.5,0.5-0.5s0.5,0.2236,0.5,0.5v0.3501
				C8.9961,6.0933,8.7725,6.3169,8.4961,6.3169z"/>
			<path d="M8.4961,10.9023c-0.2764,0-0.5-0.2236-0.5-0.5V9.8076c0-0.2764,0.2236-0.5,0.5-0.5s0.5,0.2236,0.5,0.5v0.5947
				C8.9961,10.6787,8.7725,10.9023,8.4961,10.9023z M8.4961,8.6094c-0.2764,0-0.5-0.2236-0.5-0.5V7.5151
				c0-0.2764,0.2236-0.5,0.5-0.5s0.5,0.2236,0.5,0.5v0.5942C8.9961,8.3857,8.7725,8.6094,8.4961,8.6094z"/>
			<path d="M8.4961,12.9502c-0.2764,0-0.5-0.2236-0.5-0.5v-0.3496c0-0.2764,0.2236-0.5,0.5-0.5s0.5,0.2236,0.5,0.5v0.3496
				C8.9961,12.7266,8.7725,12.9502,8.4961,12.9502z"/>
		</g>
	</g>
	<g>
		<g>
			<path d="M7.0654,6.3584c-0.0425,0-0.0859-0.0054-0.1289-0.0166C6.6699,6.271,6.5107,5.9971,6.5815,5.73l0.0898-0.3384
				c0.0713-0.2661,0.3467-0.4253,0.6118-0.355c0.2666,0.0708,0.4258,0.3447,0.355,0.6118L7.5483,5.9868
				C7.4888,6.2104,7.2866,6.3584,7.0654,6.3584z"/>
			<path d="M5.8564,10.918c-0.0425,0-0.0859-0.0054-0.1289-0.0166c-0.2666-0.0708-0.4258-0.3447-0.355-0.6118l0.1567-0.5908
				c0.0708-0.2666,0.3462-0.4224,0.6118-0.355c0.2666,0.0708,0.4258,0.3447,0.355,0.6118l-0.1567,0.5908
				C6.2798,10.77,6.0776,10.918,5.8564,10.918z M6.4609,8.6382c-0.0425,0-0.0854-0.0054-0.1284-0.0166
				C6.0654,8.5508,5.9062,8.2769,5.9771,8.0103l0.1567-0.5913C6.2051,7.1519,6.479,6.9941,6.7451,7.0635
				c0.2671,0.0708,0.4263,0.3447,0.3555,0.6113L6.9438,8.2661C6.8843,8.4902,6.6821,8.6382,6.4609,8.6382z"/>
			<path d="M5.3188,12.9453c-0.0425,0-0.0859-0.0049-0.1289-0.0166c-0.2671-0.0713-0.4258-0.3447-0.355-0.6123l0.0898-0.3374
				c0.0713-0.2671,0.3447-0.4238,0.6118-0.355c0.2671,0.0713,0.4258,0.3452,0.355,0.6123l-0.0898,0.3379
				C5.7422,12.7979,5.54,12.9453,5.3188,12.9453z"/>
		</g>
	</g>
	<g>
		<g>
			<path d="M9.9263,6.3584c-0.2212,0-0.4233-0.1479-0.4829-0.3716L9.3535,5.6484c-0.0708-0.2671,0.0884-0.541,0.355-0.6118
				c0.2671-0.0708,0.5405,0.0879,0.6118,0.355L10.4102,5.73c0.0708,0.2671-0.0884,0.541-0.355,0.6118
				C10.0122,6.353,9.9688,6.3584,9.9263,6.3584z"/>
			<path d="M11.1353,10.918c-0.2212,0-0.4233-0.1479-0.4829-0.3716l-0.1567-0.5908c-0.0708-0.2671,0.0884-0.541,0.355-0.6118
				c0.2676-0.0684,0.5405,0.0884,0.6118,0.355l0.1567,0.5908c0.0708,0.2671-0.0884,0.541-0.355,0.6118
				C11.2212,10.9126,11.1777,10.918,11.1353,10.918z M10.5308,8.6382c-0.2212,0-0.4233-0.1479-0.4829-0.3721L9.8911,7.6748
				c-0.0708-0.2666,0.0884-0.5405,0.3555-0.6113c0.2651-0.0703,0.5405,0.0879,0.6113,0.3555l0.1567,0.5913
				c0.0708,0.2666-0.0884,0.5405-0.3555,0.6113C10.6162,8.6328,10.5732,8.6382,10.5308,8.6382z"/>
			<path d="M11.6733,12.9453c-0.2212,0-0.4233-0.1475-0.4829-0.3711l-0.0898-0.3379c-0.0708-0.2671,0.0879-0.541,0.355-0.6123
				c0.2656-0.0693,0.541,0.0879,0.6118,0.355l0.0898,0.3374c0.0703,0.2676-0.0879,0.541-0.355,0.6123
				C11.7593,12.9404,11.7158,12.9453,11.6733,12.9453z"/>
		</g>
	</g>
	<path d="M16.6006,22.0352H7.4277c-3.6562,0-6.4136-2.8213-6.4136-6.5635v-0.9365c0-0.2764,0.2236-0.5,0.5-0.5s0.5,0.2236,0.5,0.5
		v0.9365c0,3.1719,2.3271,5.5635,5.4136,5.5635h9.1729c3.0869,0,5.4141-2.3916,5.4141-5.5635v-0.9365c0-0.2764,0.2236-0.5,0.5-0.5
		s0.5,0.2236,0.5,0.5v0.9365C23.0146,19.2139,20.2568,22.0352,16.6006,22.0352z"/>
	<path d="M5.5024,23.8525c-0.063,0-0.127-0.0117-0.189-0.0371c-0.2559-0.1045-0.3784-0.3965-0.2739-0.6523l0.7852-1.9219
		c0.1045-0.2549,0.3965-0.3789,0.6519-0.2734c0.2559,0.1045,0.3784,0.3965,0.2739,0.6523L5.9653,23.542
		C5.8862,23.7354,5.6992,23.8525,5.5024,23.8525z"/>
	<path d="M18.5791,23.8525c-0.1973,0-0.3838-0.1172-0.4629-0.3105l-0.7852-1.9219c-0.1045-0.2559,0.0186-0.5479,0.2734-0.6523
		c0.2559-0.1045,0.5479,0.0186,0.6523,0.2734l0.7852,1.9219c0.1045,0.2559-0.0186,0.5479-0.2734,0.6523
		C18.7061,23.8408,18.6426,23.8525,18.5791,23.8525z"/>
	<path d="M23.3623,15.0352h-3.8477c-0.2764,0-0.5-0.2236-0.5-0.5s0.2236-0.5,0.5-0.5h3.8477c0.2764,0,0.5,0.2236,0.5,0.5
		S23.6387,15.0352,23.3623,15.0352z"/>
	<path d="M15.5146,15.0352H0.5654c-0.2764,0-0.5-0.2236-0.5-0.5s0.2236-0.5,0.5-0.5h14.9492c0.2764,0,0.5,0.2236,0.5,0.5
		S15.791,15.0352,15.5146,15.0352z"/>
	<path d="M19.5146,19.0352h-4c-0.2764,0-0.5-0.2236-0.5-0.5v-5c0-0.2764,0.2236-0.5,0.5-0.5h4c0.2764,0,0.5,0.2236,0.5,0.5v5
		C20.0146,18.8115,19.791,19.0352,19.5146,19.0352z M16.0146,18.0352h3v-4h-3V18.0352z"/>
	<path d="M19.5146,17.0352h-4c-0.2764,0-0.5-0.2236-0.5-0.5s0.2236-0.5,0.5-0.5h4c0.2764,0,0.5,0.2236,0.5,0.5
		S19.791,17.0352,19.5146,17.0352z"/>
</g>
<rect x="0.0142" y="0.0354" fill="none" width="24" height="24"/>
</svg>
