<?xml version="1.0" encoding="utf-8"?>
<!-- Generator: Adobe Illustrator 18.1.0, SVG Export Plug-In . SVG Version: 6.00 Build 0)  -->
<svg version="1.1" id="Layer_1" xmlns="http://www.w3.org/2000/svg" xmlns:xlink="http://www.w3.org/1999/xlink" x="0px" y="0px"
	 width="24px" height="24px" viewBox="0 0 24 24" enable-background="new 0 0 24 24" xml:space="preserve">
<g>
	<path d="M21.6143,24.0215H2.395c-0.2485,0-0.4595-0.1826-0.4946-0.4287L0.1558,11.5425c-0.021-0.1436,0.0215-0.2896,0.1167-0.3989
		c0.0947-0.1099,0.2329-0.1729,0.3779-0.1729h22.708c0.1455,0,0.2832,0.063,0.3779,0.1729
		c0.0947,0.1094,0.1377,0.2554,0.1172,0.3989l-1.7441,12.0503C22.0732,23.8389,21.8623,24.0215,21.6143,24.0215z M2.8276,23.0215
		h18.354l1.5996-11.0508H1.228L2.8276,23.0215z"/>
	<path d="M2.5444,10.1055c-0.2764,0-0.5-0.2236-0.5-0.5V7.2974c0-0.6997,0.5791-1.2686,1.291-1.2686h2.834
		c0.1895,0,0.7666,0,1.5679,1.8809C7.8457,8.1636,7.7275,8.457,7.4736,8.5654C7.2178,8.6743,6.9258,8.5552,6.8174,8.3018
		C6.5859,7.7598,6.252,7.1846,6.083,7.0288H3.3354c-0.1606,0-0.291,0.1206-0.291,0.2686v2.3081
		C3.0444,9.8818,2.8208,10.1055,2.5444,10.1055z"/>
	<path d="M15.4678,15.9463H7.6665c-0.2764,0-0.5-0.2236-0.5-0.5s0.2236-0.5,0.5-0.5h7.8013c0.2764,0,0.5,0.2236,0.5,0.5
		S15.7441,15.9463,15.4678,15.9463z"/>
	<path d="M21.2324,11.9702c-0.0049,0.0005-0.0127,0.001-0.0195,0H5.8384c-0.2456,0-0.4551-0.1782-0.4937-0.4209L4.8721,8.5986
		c-0.042-0.2622,0.1284-0.5117,0.3877-0.5679l14.6123-3.1646c0.1309-0.0283,0.2676-0.0034,0.3789,0.0703
		c0.1123,0.0732,0.1904,0.1885,0.2168,0.3193l1.208,5.9829c0.0371,0.0693,0.0566,0.1479,0.0566,0.2314
		C21.7324,11.7466,21.5088,11.9702,21.2324,11.9702z M6.2646,10.9702h14.3369l-1.0137-5.019L5.9341,8.9082L6.2646,10.9702z"/>
</g>
<rect y="0.0001" fill="none" width="24" height="24"/>
</svg>
