<?xml version="1.0" encoding="utf-8"?>
<!-- Generator: Adobe Illustrator 18.1.0, SVG Export Plug-In . SVG Version: 6.00 Build 0)  -->
<svg version="1.1" id="Layer_1" xmlns="http://www.w3.org/2000/svg" xmlns:xlink="http://www.w3.org/1999/xlink" x="0px" y="0px"
	 width="24px" height="24px" viewBox="0 0 24 24" enable-background="new 0 0 24 24" xml:space="preserve">
<g>
	<path d="M19.54,9.9448c-0.2764,0-0.5-0.2236-0.5-0.5V3.5273c0-0.2764,0.2236-0.5,0.5-0.5s0.5,0.2236,0.5,0.5v5.9175
		C20.04,9.7212,19.8164,9.9448,19.54,9.9448z"/>
	<path d="M19.542,9.9463L19.542,9.9463c-0.1357,0-0.2656-0.0552-0.3594-0.1523L16.4443,6.96
		c-0.1924-0.1987-0.1865-0.5151,0.0117-0.707c0.2012-0.1914,0.5166-0.1855,0.707,0.0117l2.3789,2.4619l2.3799-2.4619
		c0.1914-0.1982,0.5078-0.2031,0.707-0.0117c0.1982,0.1919,0.2041,0.5083,0.0117,0.707l-2.7393,2.834
		C19.8076,9.8911,19.6777,9.9463,19.542,9.9463z"/>
	<path d="M13.5459,20.9375c-0.1943,0-0.3799-0.1143-0.4609-0.3057L7.4722,7.335L1.8589,20.6318
		c-0.1074,0.2549-0.4019,0.3721-0.6548,0.2666c-0.2544-0.1074-0.3735-0.4014-0.2661-0.6553L7.0117,5.855
		c0.1562-0.3701,0.7646-0.3701,0.9209,0l6.0742,14.3882c0.1074,0.2539-0.0117,0.5479-0.2666,0.6553
		C13.6768,20.9248,13.6113,20.9375,13.5459,20.9375z"/>
	<path d="M11.4619,16.001H3.4824c-0.2764,0-0.5-0.2236-0.5-0.5s0.2236-0.5,0.5-0.5h7.9795c0.2764,0,0.5,0.2236,0.5,0.5
		S11.7383,16.001,11.4619,16.001z"/>
	<path d="M16.5586,20.9072c-0.0605,0-0.1221-0.0107-0.1816-0.0342c-0.2568-0.0996-0.3848-0.3896-0.2842-0.6475l2.9834-7.6719
		c0.1484-0.3828,0.7832-0.3828,0.9316,0l2.9844,7.6719c0.1006,0.2578-0.0273,0.5479-0.2842,0.6475
		c-0.2568,0.1025-0.5469-0.0273-0.6475-0.2842l-2.5186-6.4746l-2.5176,6.4746C16.9473,20.7861,16.7588,20.9072,16.5586,20.9072z"/>
	<path d="M21.3955,18.001h-3.707c-0.2764,0-0.5-0.2236-0.5-0.5s0.2236-0.5,0.5-0.5h3.707c0.2764,0,0.5,0.2236,0.5,0.5
		S21.6719,18.001,21.3955,18.001z"/>
</g>
<rect y="0.0011" fill="none" width="24" height="24"/>
</svg>
