<?xml version="1.0" encoding="utf-8"?>
<!-- Generator: Adobe Illustrator 18.1.0, SVG Export Plug-In . SVG Version: 6.00 Build 0)  -->
<svg version="1.1" id="Layer_1" xmlns="http://www.w3.org/2000/svg" xmlns:xlink="http://www.w3.org/1999/xlink" x="0px" y="0px"
	 width="24px" height="24px" viewBox="0 0 24 24" enable-background="new 0 0 24 24" xml:space="preserve">
<g>
	<path d="M12.5459,14.8174c-0.2764,0-0.5-0.2236-0.5-0.5V0.5659c0-0.2764,0.2236-0.5,0.5-0.5s0.5,0.2236,0.5,0.5v13.7515
		C13.0459,14.5938,12.8223,14.8174,12.5459,14.8174z"/>
	<path d="M12.5459,14.8174c-0.1279,0-0.2559-0.0488-0.3535-0.1465l-3.3096-3.3096c-0.1953-0.1953-0.1953-0.5117,0-0.707
		s0.5117-0.1953,0.707,0l2.9561,2.9561l2.9561-2.9561c0.1953-0.1953,0.5117-0.1953,0.707,0s0.1953,0.5117,0,0.707l-3.3096,3.3096
		C12.8018,14.7686,12.6738,14.8174,12.5459,14.8174z"/>
	<path d="M23.5088,24.0527H0.4917c-0.2764,0-0.5-0.2236-0.5-0.5v-6.083c0-0.2764,0.2236-0.5,0.5-0.5h23.0171
		c0.2764,0,0.5,0.2236,0.5,0.5v6.083C24.0088,23.8291,23.7852,24.0527,23.5088,24.0527z M0.9917,23.0527h22.0171v-5.083H0.9917
		V23.0527z"/>
	<path d="M18.4951,21.9219c-0.7607,0-1.3789-0.6182-1.3789-1.3789s0.6182-1.3789,1.3789-1.3789s1.3789,0.6182,1.3789,1.3789
		S19.2559,21.9219,18.4951,21.9219z M18.4951,20.1641c-0.209,0-0.3789,0.1699-0.3789,0.3789s0.1699,0.3789,0.3789,0.3789
		s0.3789-0.1699,0.3789-0.3789S18.7041,20.1641,18.4951,20.1641z"/>
</g>
<rect y="0.0001" fill="none" width="24" height="24"/>
</svg>
