<?xml version="1.0" encoding="utf-8"?>
<!-- Generator: Adobe Illustrator 18.1.0, SVG Export Plug-In . SVG Version: 6.00 Build 0)  -->
<svg version="1.1" id="Layer_1" xmlns="http://www.w3.org/2000/svg" xmlns:xlink="http://www.w3.org/1999/xlink" x="0px" y="0px"
	 width="24px" height="24px" viewBox="0 0 24 24" enable-background="new 0 0 24 24" xml:space="preserve">
<g>
	<path d="M3.3677,10.7129c-0.4165,0-0.7671-0.1562-1.0137-0.4521c-0.5566-0.668-0.3643-1.8252-0.3403-1.9551
		c1.0669-4.4004,8.7124-7.792,14.582-7.792c2.3711,0,4.2461,0.5635,5.4199,1.6299c0.1377,0.1387,1.1543,1.2124,0.7461,2.1855
		c-0.2979,0.7095-1.1904,1.0542-2.7285,1.0542c-0.001,0-0.001,0-0.001,0c-0.291,0-0.6143-0.0122-0.9736-0.0381
		c-0.042,0.0083-0.084,0.0117-0.1338,0.0083c-0.1436-0.0112-0.2822-0.0771-0.3682-0.1929c-0.1992-0.2686-0.4404-0.4985-0.7217-0.689
		c0.2764,0.2964,0.5439,0.6118,0.7617,0.9253c0.1406,0.2026,0.1123,0.4775-0.0664,0.6475
		c-0.8418,0.8018-1.8916,1.6211-3.2881,1.6211c-0.7559,0-1.5361-0.248-2.3184-0.7378c-0.0664-0.042-0.123-0.0991-0.1631-0.167
		L12.166,5.7676l0.0488,1.2925c0.0029,0.0757-0.0117,0.1514-0.043,0.2207c-0.7241,1.6396-1.8809,2.4365-3.5366,2.4365
		c-0.5625,0-1.1064-0.0908-1.5435-0.1636c-0.2432-0.0405-0.4204-0.2524-0.4175-0.499c0.0044-0.3818,0.0488-0.7935,0.1118-1.1938
		C6.6602,8.1763,6.5894,8.502,6.5747,8.8369C6.5684,8.9829,6.498,9.1191,6.3828,9.209c-0.042,0.0332-0.0889,0.0586-0.1382,0.0762
		C5.0239,10.2461,4.082,10.7129,3.3677,10.7129z M16.5957,1.5137c-5.3926,0-12.6636,3.1226-13.6045,7
		C2.939,8.813,2.9385,9.4009,3.1226,9.6211c0.0381,0.0454,0.0972,0.0918,0.2451,0.0918c0.2676,0,0.9097-0.1567,2.2295-1.1904
		c0.0991-0.8569,0.5239-2.0176,1.8726-3.1172c0.1704-0.1406,0.4136-0.1509,0.5967-0.0264s0.2627,0.354,0.1958,0.5649
		C8.2573,5.96,7.8032,7.4019,7.6963,8.6377c0.3013,0.0444,0.6196,0.0796,0.939,0.0796c0.8242,0,1.8564-0.2002,2.5757-1.7378
		L11.0947,3.855c-0.0088-0.228,0.1387-0.4331,0.3574-0.498c0.2173-0.0645,0.4541,0.0264,0.5713,0.2227l1.5322,2.562
		c0.585,0.3477,1.1523,0.5239,1.6865,0.5239c0.8896,0,1.6191-0.4717,2.2705-1.0444c-0.7812-0.9619-1.9629-1.8999-1.9756-1.9102
		c-0.1738-0.1372-0.2363-0.3721-0.1553-0.5776c0.082-0.2056,0.2734-0.3413,0.5098-0.313c1.7324,0.1558,2.7354,0.8779,3.2979,1.5317
		c0.3086,0.021,0.5889,0.0312,0.8428,0.0312c0,0,0,0,0.001,0c1.543,0,1.7754-0.3672,1.8057-0.4409
		c0.1055-0.2495-0.2383-0.7959-0.5156-1.0781C20.3564,1.9873,18.7148,1.5137,16.5957,1.5137z"/>
	<path d="M17.2666,22.8145c-0.2139,0-0.4121-0.1387-0.4775-0.3535l-4.084-13.3105c-0.0811-0.2637,0.0664-0.5435,0.3311-0.6245
		c0.2627-0.0796,0.5439,0.0674,0.624,0.3315l4.084,13.3105c0.0811,0.2637-0.0664,0.5439-0.3311,0.624
		C17.3643,22.8076,17.3154,22.8145,17.2666,22.8145z"/>
	<path d="M13.3525,22.8145c-0.1074,0-0.2148-0.0342-0.3057-0.1045L-0.7295,12.0781c-0.2183-0.1685-0.2588-0.4824-0.0903-0.7012
		c0.1685-0.2178,0.4814-0.2593,0.7017-0.0903l13.7764,10.6323c0.2188,0.168,0.2588,0.4824,0.0898,0.7012
		C13.6494,22.748,13.502,22.8145,13.3525,22.8145z"/>
	<path d="M0.7988,22.8145c-0.2153,0-0.4141-0.1396-0.479-0.3564c-0.0791-0.2646,0.0713-0.5439,0.3359-0.623l7.0405-2.1035
		c0.2651-0.0762,0.5425,0.0713,0.6221,0.3359c0.0791,0.2646-0.0713,0.5439-0.3359,0.623l-7.0405,2.1035
		C0.894,22.8076,0.8462,22.8145,0.7988,22.8145z"/>
	<path d="M8.6821,20.7129c-0.5557,0-1.1392-0.0635-1.7412-0.2139c-3.147-0.7871-5.7803-3.6895-7.8267-8.625
		c-0.106-0.2549,0.0151-0.5474,0.2705-0.6533c0.2539-0.1045,0.5483,0.0156,0.6533,0.2705c1.9185,4.627,4.3223,7.332,7.145,8.0371
		c3.2603,0.8174,5.978-1.376,6.0044-1.3994c0.2119-0.1738,0.5273-0.1445,0.7041,0.0693c0.1748,0.2139,0.1436,0.5283-0.0693,0.7041
		C13.7158,18.9893,11.5776,20.7129,8.6821,20.7129z"/>
	<path d="M11.0083,2.4233c-0.2144,0-0.4126-0.1387-0.478-0.354L10.106,0.6802c-0.0811-0.2642,0.0679-0.5435,0.332-0.624
		c0.2637-0.0825,0.5435,0.0679,0.624,0.332l0.4243,1.3892c0.0811,0.2642-0.0679,0.5435-0.332,0.624
		C11.1055,2.4165,11.0566,2.4233,11.0083,2.4233z"/>
</g>
<rect x="-0.9858" y="-0.9646" fill="none" width="24" height="24"/>
</svg>
