<?xml version="1.0" encoding="utf-8"?>
<!-- Generator: Adobe Illustrator 18.1.0, SVG Export Plug-In . SVG Version: 6.00 Build 0)  -->
<svg version="1.1" id="Layer_1" xmlns="http://www.w3.org/2000/svg" xmlns:xlink="http://www.w3.org/1999/xlink" x="0px" y="0px"
	 width="24px" height="24px" viewBox="0 0 24 24" enable-background="new 0 0 24 24" xml:space="preserve">
<g>
	<path d="M21.6533,9.0254c-0.0039,0.001-0.0117,0.0005-0.0195,0H3.665c-0.2363,0-0.4404-0.1655-0.4893-0.3965L2.5405,5.6211
		c-0.0273-0.1309-0.002-0.2666,0.0713-0.3779s0.188-0.189,0.3188-0.2158l17.2227-3.4917c0.2705-0.0532,0.5312,0.1177,0.5889,0.3862
		l1.3525,6.3677c0.0381,0.0703,0.0586,0.1504,0.0586,0.2358C22.1533,8.8018,21.9297,9.0254,21.6533,9.0254z M4.0703,8.0254h16.9463
		l-1.1494-5.4111L3.623,5.9072L4.0703,8.0254z"/>
	<path d="M22.4961,23.9746H1.417c-0.7969,0-1.4453-0.6504-1.4453-1.4502V3.4653c0-0.7998,0.6484-1.4507,1.4453-1.4507h3.5659
		c0.2305,0,0.8433,0,2.0122,2.5781c0.1138,0.2515,0.0024,0.5479-0.249,0.6621s-0.5479,0.002-0.6621-0.249
		C5.6758,4.106,5.1416,3.209,4.9033,3.0146H1.417c-0.2456,0-0.4453,0.2021-0.4453,0.4507v19.0591
		c0,0.248,0.1997,0.4502,0.4453,0.4502h21.0791c0.2451,0,0.4443-0.2021,0.4443-0.4502V5.5054c0-0.2485-0.1992-0.4507-0.4443-0.4507
		H20.79c-0.2764,0-0.5-0.2236-0.5-0.5s0.2236-0.5,0.5-0.5h1.7061c0.7969,0,1.4443,0.6509,1.4443,1.4507v17.019
		C23.9404,23.3242,23.293,23.9746,22.4961,23.9746z"/>
	<path d="M23.4404,9.0254H0.4717c-0.2764,0-0.5-0.2236-0.5-0.5s0.2236-0.5,0.5-0.5h22.9688c0.2764,0,0.5,0.2236,0.5,0.5
		S23.7168,9.0254,23.4404,9.0254z"/>
</g>
<rect y="0.0001" fill="none" width="24" height="24"/>
</svg>
