<?xml version="1.0" encoding="utf-8"?>
<!-- Generator: Adobe Illustrator 18.1.1, SVG Export Plug-In . SVG Version: 6.00 Build 0)  -->
<svg version="1.1" id="Layer_1" xmlns="http://www.w3.org/2000/svg" xmlns:xlink="http://www.w3.org/1999/xlink" x="0px" y="0px"
	 width="24px" height="24px" viewBox="0 0 24 24" enable-background="new 0 0 24 24" xml:space="preserve">
<rect fill="none" width="24" height="24"/>
<g>
	<path d="M12.3931,3.7523l-1.6855,1.3351C10.4912,5.2593,10.4546,5.5737,10.626,5.79c0.0986,0.1245,0.2451,0.1895,0.3926,0.1895
		c0.1084,0,0.2183-0.0352,0.3101-0.1079l2.5806-2.0444c0.0224-0.0178,0.0357-0.0432,0.0546-0.0643
		c0.0203-0.0223,0.0416-0.0421,0.0577-0.068c0.0187-0.0303,0.0284-0.0638,0.0403-0.0975c0.0084-0.0234,0.0233-0.043,0.0281-0.0681
		c0.0012-0.0062-0.0011-0.0119-0.0002-0.018c0.001-0.0065,0.0052-0.012,0.006-0.0186c0.0032-0.0292-0.0054-0.0573-0.0071-0.0862
		c-0.0018-0.031-0.0001-0.0619-0.0076-0.0915c-0.0074-0.0295-0.0228-0.0552-0.0355-0.0829
		c-0.0144-0.0316-0.0264-0.0634-0.047-0.0913c-0.0037-0.0049-0.0045-0.0114-0.0083-0.0162l-2.0444-2.5801
		c-0.1729-0.2163-0.4868-0.2534-0.7026-0.0815c-0.2163,0.1719-0.2529,0.4863-0.0815,0.7026l1.2516,1.5786
		C9.1851,2.3394,5.9959,2.7416,3.3071,3.9126C3.0542,4.0229,2.938,4.3174,3.0483,4.5708c0.082,0.188,0.2656,0.3003,0.459,0.3003
		c0.0664,0,0.1343-0.0132,0.1992-0.0415C6.2609,3.7161,9.3093,3.3472,12.3931,3.7523z"/>
	<path d="M19.9619,4.7441c-0.7793-0.7803-2.0488-0.7803-2.8281,0l-7.5442,7.5442l0.9631-3.7366
		c0.1729-0.7734-0.3115-1.5605-1.1265-1.8301C8.7305,6.4912,7.8291,6.709,7.3872,7.7012c-0.0986,0.208-2.4219,5.1377-2.6914,8.7402
		c0.0005,0.0098,0.0508,0.9824-0.3364,1.9131c-0.1064,0.2549,0.0142,0.5479,0.269,0.6543c0.063,0.0254,0.1279,0.0381,0.1924,0.0381
		c0.1958,0,0.3813-0.1152,0.4614-0.3076c0.4756-1.1416,0.4155-2.2891,0.4111-2.2891c0.2549-3.3496,2.5737-8.271,2.6021-8.3311
		C8.5376,7.5757,8.9092,7.603,9.1123,7.6714c0.2803,0.0928,0.5308,0.3657,0.4678,0.6504l-1.4155,5.4888
		c-0.0054,0.0205-0.0007,0.0404-0.0034,0.0609c-0.0045,0.0341-0.0082,0.0667-0.0057,0.101
		c0.0024,0.0327,0.0097,0.0627,0.0183,0.0939c0.0082,0.0303,0.0168,0.059,0.0308,0.0876C8.22,14.1854,8.2399,14.2123,8.2617,14.24
		c0.0126,0.0161,0.0185,0.0353,0.0333,0.05c0.0078,0.0078,0.0181,0.0103,0.0262,0.0175c0.0248,0.022,0.053,0.0378,0.0823,0.0546
		c0.0301,0.0173,0.0588,0.0339,0.0912,0.0444c0.0099,0.0032,0.0171,0.0107,0.0273,0.0134c0.0204,0.0055,0.0402,0.0009,0.0606,0.0038
		c0.0222,0.003,0.0435,0.0128,0.0659,0.0128c0.0115,0,0.0223-0.0058,0.0339-0.0066c0.0355-0.0023,0.0681-0.0102,0.1017-0.0198
		c0.027-0.0076,0.0527-0.0151,0.0784-0.0274c0.0347-0.0167,0.0645-0.0386,0.0945-0.0628c0.0143-0.0115,0.0317-0.0166,0.045-0.0298
		l8.8389-8.8389c0.3789-0.3779,1.0352-0.3779,1.4141,0c0.3896,0.3901,0.3896,1.0244,0,1.4146l-6.0098,6.0103
		c-0.1953,0.1953-0.1953,0.5117,0,0.707s0.5117,0.1953,0.707,0l1.0605-1.0605c0.3789-0.377,1.0352-0.377,1.4141,0
		c0.3896,0.3896,0.3896,1.0244,0,1.4141l-0.707,0.707l-1.0605,1.0605c-0.1953,0.1953-0.1953,0.5117,0,0.707
		c0.0977,0.0977,0.2256,0.1465,0.3535,0.1465s0.2559-0.0488,0.3535-0.1465l1.0605-1.0605c0.3789-0.377,1.0352-0.377,1.4141,0
		c0.1885,0.1895,0.293,0.4404,0.293,0.707s-0.1045,0.5176-0.293,0.707l-1.4141,1.4141l-0.3535,0.3535
		c-0.1953,0.1953-0.1953,0.5117,0,0.707c0.0977,0.0977,0.2256,0.1465,0.3535,0.1465s0.2559-0.0488,0.3535-0.1465l0.3535-0.3535
		c0.3887-0.3887,1.0234-0.3887,1.4141,0c0.4248,0.4248,0.0234,0.9531-0.2129,1.1934c-0.0205,0.0166-2.0742,1.6572-4.1602,2.335
		c-0.1973,0.0645-0.3994,0.124-0.5986,0.1816c-0.4688,0.1377-0.9111,0.2676-1.2959,0.4551
		c-0.248,0.1211-0.3506,0.4209-0.2295,0.6689C12.1377,23.8965,12.3154,24,12.5,24c0.0742,0,0.1484-0.0166,0.2197-0.0508
		c0.3076-0.1504,0.7109-0.2686,1.1377-0.3936c0.209-0.0615,0.4199-0.123,0.627-0.1904c2.2637-0.7363,4.3887-2.4355,4.5176-2.543
		c0.3809-0.3809,0.625-0.8066,0.7041-1.2295c0.0977-0.5234-0.0625-1.0254-0.4512-1.4141c-0.2586-0.2586-0.5731-0.4232-0.9039-0.5101
		l0.1969-0.1969c0.7793-0.7793,0.7793-2.0488,0-2.8281c-0.2872-0.2872-0.6555-0.4639-1.043-0.5329
		c0.3673-0.7471,0.2493-1.6749-0.371-2.2952c-0.2585-0.2589-0.5729-0.4236-0.9036-0.5107l3.7317-3.732
		C20.7422,6.793,20.7422,5.5239,19.9619,4.7441z"/>
</g>
</svg>
