<?xml version="1.0" encoding="utf-8"?>
<!-- Generator: Adobe Illustrator 18.1.0, SVG Export Plug-In . SVG Version: 6.00 Build 0)  -->
<svg version="1.1" id="Layer_1" xmlns="http://www.w3.org/2000/svg" xmlns:xlink="http://www.w3.org/1999/xlink" x="0px" y="0px"
	 width="24px" height="24px" viewBox="0 0 24 24" enable-background="new 0 0 24 24" xml:space="preserve">
<g>
	<path d="M21.0244,19h-8.5518c-0.2764,0-0.5-0.2236-0.5-0.5s0.2236-0.5,0.5-0.5h8.5518v-3.5c0-0.2764,0.2236-0.5,0.5-0.5h1.5v-4
		h-1.5c-0.2764,0-0.5-0.2236-0.5-0.5V6h-3.4922c-0.2764,0-0.5-0.2236-0.5-0.5s0.2236-0.5,0.5-0.5h3.4922c0.5518,0,1,0.4487,1,1v3h1
		c0.5518,0,1,0.4487,1,1v4c0,0.5518-0.4482,1-1,1h-1v3C22.0244,18.5518,21.5762,19,21.0244,19z"/>
	<path d="M7.4668,19H1.0239c-0.5513,0-1-0.4482-1-1V6c0-0.5513,0.4487-1,1-1h4.437c0.2764,0,0.5,0.2236,0.5,0.5S5.7373,6,5.4609,6
		h-4.437v12h6.4429c0.2764,0,0.5,0.2236,0.5,0.5S7.7432,19,7.4668,19z"/>
	<path d="M9.5352,21.0146c-0.041,0-0.0825-0.0049-0.1235-0.0156c-0.2217-0.0566-0.3765-0.2559-0.3765-0.4844v-4.582H6.3721
		c-0.1636,0-0.3169-0.0801-0.4106-0.2148c-0.0933-0.1338-0.1152-0.3057-0.0581-0.459l2.334-6.2905H6.3721
		c-0.166,0-0.3213-0.0825-0.4146-0.2202C5.8647,8.6104,5.8462,8.4355,5.9082,8.2817l2.7949-6.9409
		c0.0762-0.189,0.2598-0.313,0.4639-0.313h5.9072c0.1719,0,0.3311,0.0879,0.4229,0.2334c0.0918,0.145,0.1025,0.3271,0.0283,0.4824
		L13.9688,5h1.8975c0.1855,0,0.3555,0.1021,0.4414,0.2656c0.0869,0.1636,0.0762,0.3618-0.0273,0.5151l-4.2178,6.2212h1.8496
		c0.1768,0,0.3398,0.0928,0.4297,0.2451c0.0908,0.1514,0.0938,0.3398,0.0088,0.4941l-4.3765,8.0127
		C9.8848,20.918,9.7148,21.0146,9.5352,21.0146z M7.0908,14.9326h2.4443c0.2764,0,0.5,0.2236,0.5,0.5v3.124l3.0342-5.5547h-1.9502
		c-0.1851,0-0.355-0.1025-0.4419-0.2656c-0.0864-0.1641-0.0757-0.3613,0.0278-0.5146L14.9229,6h-1.7471
		c-0.1719,0-0.3311-0.0879-0.4229-0.2334c-0.0918-0.145-0.1025-0.3271-0.0283-0.4824l1.5566-3.2563H9.5049L7.1123,7.9683h1.8438
		c0.1636,0,0.3169,0.0801,0.4106,0.2144C9.46,8.3169,9.4819,8.4888,9.4248,8.6421L7.0908,14.9326z"/>
</g>
<rect fill="none" width="24" height="24"/>
</svg>
