<?xml version="1.0" encoding="utf-8"?>
<!-- Generator: Adobe Illustrator 18.1.0, SVG Export Plug-In . SVG Version: 6.00 Build 0)  -->
<svg version="1.1" id="Layer_1" xmlns="http://www.w3.org/2000/svg" xmlns:xlink="http://www.w3.org/1999/xlink" x="0px" y="0px"
	 width="24px" height="24px" viewBox="0 0 24 24" enable-background="new 0 0 24 24" xml:space="preserve">
<g>
	<path d="M10.2207,4.4541c-0.2173,0-0.417-0.1421-0.4805-0.3613L9.063,1.7471C9.0264,1.6196,9.0415,1.4829,9.106,1.3667
		c0.064-0.1162,0.1714-0.2021,0.2988-0.2388l1.5566-0.4492c0.2681-0.0757,0.5425,0.0767,0.6191,0.3418l0.6772,2.3462
		c0.0762,0.2651-0.0762,0.5425-0.3418,0.6191c-0.2651,0.0771-0.5425-0.0757-0.6191-0.3418l-0.5386-1.8657l-0.5957,0.1719
		l0.5386,1.8652c0.0767,0.2651-0.0767,0.5425-0.3418,0.6191C10.313,4.4478,10.2666,4.4541,10.2207,4.4541z"/>
	<path d="M12.7891,12.6123c-0.1982,0-0.3945-0.0225-0.5859-0.0693c-0.7549-0.1875-1.3154-0.7368-1.5381-1.5078l-0.4199-1.4536
		c-0.0767-0.2651,0.0762-0.5425,0.3418-0.6191c0.2656-0.0752,0.5425,0.0762,0.6191,0.3418l0.4199,1.4536
		c0.1572,0.5444,0.5312,0.7432,0.8174,0.814c0.5195,0.1289,1.1426-0.0503,1.5127-0.4355c0.2041-0.2119,0.4141-0.5796,0.2568-1.125
		l-1.4854-5.1479c-0.1572-0.5444-0.5312-0.7432-0.8179-0.814c-0.519-0.1299-1.1421,0.0503-1.5127,0.4355
		c-0.2041,0.2124-0.4146,0.5796-0.2568,1.125l0.2944,1.0215c0.0767,0.2656-0.0767,0.5425-0.3418,0.6191
		C9.8257,7.3286,9.5503,7.1733,9.4736,6.9087L9.1792,5.8872c-0.2227-0.772-0.0415-1.5356,0.4971-2.0957
		c0.6157-0.6392,1.6094-0.9263,2.4741-0.7129c0.7549,0.187,1.3154,0.7363,1.5381,1.5073l1.4854,5.1479
		c0.2227,0.772,0.042,1.5361-0.4971,2.0957C14.1963,12.3281,13.4873,12.6123,12.7891,12.6123z"/>
	<path d="M11.145,11.3965c-0.2173,0-0.417-0.1426-0.4805-0.3613c-0.0767-0.2651,0.0767-0.5425,0.3418-0.6191l3.5483-1.0239
		c0.2637-0.0771,0.542,0.0771,0.6191,0.3418c0.0762,0.2651-0.0762,0.5425-0.3418,0.6191l-3.5483,1.0239
		C11.2373,11.3901,11.1909,11.3965,11.145,11.3965z"/>
	<path d="M9.1919,22.0342c-0.1157,0-0.2314-0.04-0.3262-0.1211c-2.1167-1.8203-3.5391-4.7939-3.5391-7.3994
		c0-2.606,1.0879-4.938,3.146-6.7451c0.2075-0.1812,0.5229-0.1616,0.7061,0.0459C9.3608,8.022,9.3403,8.3379,9.1328,8.5205
		c-1.8359,1.6113-2.8062,3.6836-2.8062,5.9932c0,2.3311,1.2822,5,3.1914,6.6416c0.209,0.1797,0.2329,0.4951,0.0527,0.7051
		C9.4722,21.9756,9.3325,22.0342,9.1919,22.0342z"/>
	<path d="M13.0986,22.0342c-0.043,0-0.0859-0.0059-0.1299-0.0176c-3.2305-0.8682-5.7607-4.1641-5.7607-7.5029
		c0-2.0254,0.8579-3.9829,2.354-5.3721c0.2021-0.1875,0.5176-0.1768,0.707,0.0264c0.1875,0.2026,0.1758,0.519-0.0264,0.707
		c-1.293,1.1997-2.0347,2.8906-2.0347,4.6387c0,2.8604,2.252,5.793,5.0205,6.5381c0.2666,0.0713,0.4248,0.3457,0.3525,0.6123
		C13.5215,21.8867,13.3193,22.0342,13.0986,22.0342z"/>
	<path d="M17.4824,19.0557h-8.437c-0.2764,0-0.5-0.2236-0.5-0.5s0.2236-0.5,0.5-0.5h8.437c0.2764,0,0.5,0.2236,0.5,0.5
		S17.7588,19.0557,17.4824,19.0557z"/>
	<path d="M10.208,10.042c-1.0464,0-1.8979-0.8511-1.8979-1.8975s0.8516-1.8979,1.8979-1.8979s1.8975,0.8516,1.8975,1.8979
		S11.2544,10.042,10.208,10.042z M10.208,7.2466c-0.4951,0-0.8979,0.4028-0.8979,0.8979c0,0.4946,0.4028,0.8975,0.8979,0.8975
		c0.4946,0,0.8975-0.4028,0.8975-0.8975C11.1055,7.6494,10.7026,7.2466,10.208,7.2466z"/>
	<path d="M19.4258,24.0342H5.5991c-0.812,0-1.4727-0.6729-1.4727-1.5c0-0.8135,0.6743-1.5,1.4727-1.5h13.8267
		c0.8125,0,1.4727,0.6729,1.4727,1.5S20.2383,24.0342,19.4258,24.0342z M5.5991,22.0342c-0.252,0-0.4727,0.2334-0.4727,0.5
		s0.2207,0.5,0.4727,0.5h13.8267c0.252,0,0.4727-0.2334,0.4727-0.5s-0.2207-0.5-0.4727-0.5H5.5991z"/>
	<path d="M14.1357,15.085c-0.2168,0-0.416-0.1416-0.4795-0.3594l-0.7207-2.4561c-0.0781-0.2646,0.0742-0.5425,0.3389-0.6206
		c0.2627-0.0781,0.543,0.0737,0.6201,0.3394l0.7207,2.4561c0.0781,0.2646-0.0742,0.543-0.3389,0.6201
		C14.2295,15.0781,14.1826,15.085,14.1357,15.085z"/>
	<path d="M16.1572,13.8037c-0.123,0-0.2461-0.0449-0.3428-0.1357l-1.8789-1.772c-0.2012-0.1895-0.2109-0.5059-0.0215-0.7065
		c0.1904-0.2017,0.5068-0.2109,0.707-0.021l1.8789,1.771c0.2012,0.1895,0.2109,0.5059,0.0215,0.707
		C16.4229,13.751,16.29,13.8037,16.1572,13.8037z"/>
	<path d="M11.7554,15.085c-0.0391,0-0.0791-0.0049-0.1187-0.0146c-0.2686-0.0654-0.4331-0.335-0.3677-0.6035l0.6113-2.5088
		c0.0659-0.2681,0.3325-0.4336,0.604-0.3677c0.2686,0.0654,0.4326,0.3359,0.3672,0.604l-0.6113,2.5088
		C12.1846,14.9316,11.9805,15.085,11.7554,15.085z"/>
</g>
<rect x="0.0142" y="0.0346" fill="none" width="24" height="24"/>
</svg>
