<?xml version="1.0" encoding="utf-8"?>
<!-- Generator: Adobe Illustrator 18.1.0, SVG Export Plug-In . SVG Version: 6.00 Build 0)  -->
<svg version="1.1" id="Layer_1" xmlns="http://www.w3.org/2000/svg" xmlns:xlink="http://www.w3.org/1999/xlink" x="0px" y="0px"
	 width="24px" height="24px" viewBox="0 0 24 24" enable-background="new 0 0 24 24" xml:space="preserve">
<g>
	<path d="M0.5142,23.9805c-0.2764,0-0.5-0.2236-0.5-0.5v-1.9561c0-0.2764,0.2236-0.5,0.5-0.5s0.5,0.2236,0.5,0.5v1.9561
		C1.0142,23.7568,0.7905,23.9805,0.5142,23.9805z"/>
	<path d="M23.5146,23.9805c-0.2764,0-0.5-0.2236-0.5-0.5v-1.9561c0-0.2764,0.2236-0.5,0.5-0.5s0.5,0.2236,0.5,0.5v1.9561
		C24.0146,23.7568,23.791,23.9805,23.5146,23.9805z"/>
	<path d="M23.5146,22.0352h-11.5c-0.2764,0-0.5-0.2236-0.5-0.5v-4c0-0.2764,0.2236-0.5,0.5-0.5h11.5c0.2764,0,0.5,0.2236,0.5,0.5v4
		C24.0146,21.8115,23.791,22.0352,23.5146,22.0352z M12.5146,21.0352h10.5v-3h-10.5V21.0352z"/>
	<path d="M12.0146,22.0352H0.5142c-0.2764,0-0.5-0.2236-0.5-0.5v-4c0-0.2764,0.2236-0.5,0.5-0.5h11.5005
		c0.2764,0,0.5,0.2236,0.5,0.5v4C12.5146,21.8115,12.291,22.0352,12.0146,22.0352z M1.0142,21.0352h10.5005v-3H1.0142V21.0352z"/>
	<path d="M23.5146,18.0352H0.5142c-0.2764,0-0.5-0.2236-0.5-0.5v-3c0-0.2764,0.2236-0.5,0.5-0.5h23.0005
		c0.2764,0,0.5,0.2236,0.5,0.5v3C24.0146,17.8115,23.791,18.0352,23.5146,18.0352z M1.0142,17.0352h22.0005v-2H1.0142V17.0352z"/>
	<path d="M20.5146,12.0352H3.5142c-0.2764,0-0.5-0.2236-0.5-0.5v-10c0-0.2764,0.2236-0.5,0.5-0.5h17.0005
		c0.2764,0,0.5,0.2236,0.5,0.5v10C21.0146,11.8115,20.791,12.0352,20.5146,12.0352z M4.0142,11.0352h16.0005v-9H4.0142V11.0352z"/>
	<path d="M7.0142,20.0352h-2c-0.2764,0-0.5-0.2236-0.5-0.5s0.2236-0.5,0.5-0.5h2c0.2764,0,0.5,0.2236,0.5,0.5
		S7.2905,20.0352,7.0142,20.0352z"/>
	<path d="M19.0146,20.0352h-2c-0.2764,0-0.5-0.2236-0.5-0.5s0.2236-0.5,0.5-0.5h2c0.2764,0,0.5,0.2236,0.5,0.5
		S19.291,20.0352,19.0146,20.0352z"/>
	<path d="M5.6152,5.209c-0.1279,0-0.2559-0.0488-0.3535-0.1465c-0.1953-0.1953-0.1953-0.5117,0-0.707l1.1606-1.1606
		c0.1953-0.1953,0.5117-0.1953,0.707,0s0.1953,0.5117,0,0.707L5.9688,5.0625C5.8711,5.1602,5.7432,5.209,5.6152,5.209z"/>
	<path d="M6.144,7.1885c-0.1279,0-0.2559-0.0488-0.3535-0.1465c-0.1953-0.1953-0.1953-0.5117,0-0.707l2.6113-2.6113
		c0.1953-0.1953,0.5117-0.1953,0.707,0s0.1953,0.5117,0,0.707L6.4976,7.042C6.3999,7.1396,6.272,7.1885,6.144,7.1885z"/>
</g>
<rect x="0.0142" y="0.0354" fill="none" width="24" height="24"/>
</svg>
