<?xml version="1.0" encoding="utf-8"?>
<!-- Generator: Adobe Illustrator 18.1.0, SVG Export Plug-In . SVG Version: 6.00 Build 0)  -->
<svg version="1.1" id="Layer_1" xmlns="http://www.w3.org/2000/svg" xmlns:xlink="http://www.w3.org/1999/xlink" x="0px" y="0px"
	 width="24px" height="24px" viewBox="0 0 24 24" enable-background="new 0 0 24 24" xml:space="preserve">
<g>
	<path d="M9.4941,5.9932c-0.1279,0-0.2559-0.0488-0.3535-0.1465L6.8882,3.5942c-0.1953-0.1953-0.1953-0.5117,0-0.707
		s0.5117-0.1953,0.707,0l1.8989,1.8989l1.0552-1.0552c0.1953-0.1953,0.5117-0.1953,0.707,0s0.1953,0.5117,0,0.707L9.8477,5.8467
		C9.75,5.9443,9.6221,5.9932,9.4941,5.9932z"/>
	<path d="M9.4941,10.668c-2.853,0-5.1743-2.3213-5.1743-5.1748c0-2.853,2.3213-5.1743,5.1743-5.1743
		c2.8535,0,5.1748,2.3213,5.1748,5.1743C14.6689,8.3467,12.3477,10.668,9.4941,10.668z M9.4941,1.3188
		c-2.3018,0-4.1743,1.8726-4.1743,4.1743S7.1924,9.668,9.4941,9.668s4.1748-1.873,4.1748-4.1748S11.7959,1.3188,9.4941,1.3188z"/>
	<path d="M4.5225,20.9492H3.0718c-0.2764,0-0.5-0.2236-0.5-0.5V18.999H2.4648c-0.2764,0-0.5-0.2236-0.5-0.5v-1.9512
		c0-0.2764,0.2236-0.5,0.5-0.5s0.5,0.2236,0.5,0.5v1.4512h0.1069c0.2764,0,0.5,0.2236,0.5,0.5v1.4502h0.9507
		c0.2764,0,0.5,0.2236,0.5,0.5S4.7988,20.9492,4.5225,20.9492z"/>
	<path d="M23.4893,20.999h-1.9863c-0.2764,0-0.5-0.2236-0.5-0.5s0.2236-0.5,0.5-0.5h1.4863v-5.5625
		c0-0.165-0.082-0.3193-0.2188-0.4131l-1.8018-1.2266c-0.0781-0.0527-0.1387-0.126-0.1768-0.2129l-1.5713-3.585h-3.7666
		c-0.2764,0-0.5-0.2236-0.5-0.5s0.2236-0.5,0.5-0.5h4.0938c0.1982,0,0.3779,0.1177,0.458,0.2993l1.6445,3.7534l1.6826,1.1455
		c0.4111,0.2793,0.6562,0.7422,0.6562,1.2393v6.0625C23.9893,20.7754,23.7656,20.999,23.4893,20.999z"/>
	<path d="M2.4893,11.0264c-0.2764,0-0.5-0.2236-0.5-0.5V8.499c0-0.2764,0.2236-0.5,0.5-0.5h0.9941c0.2764,0,0.5,0.2236,0.5,0.5
		s-0.2236,0.5-0.5,0.5H2.9893v1.5273C2.9893,10.8027,2.7656,11.0264,2.4893,11.0264z"/>
	<path d="M17.5928,21.0117H8.4316c-0.2764,0-0.5-0.2236-0.5-0.5s0.2236-0.5,0.5-0.5h9.1611c0.2764,0,0.5,0.2236,0.5,0.5
		S17.8691,21.0117,17.5928,21.0117z"/>
	<path d="M19.5479,22.9043c-1.3535,0-2.4541-1.1016-2.4541-2.4551s1.1006-2.4541,2.4541-2.4541s2.4551,1.1006,2.4551,2.4541
		S20.9014,22.9043,19.5479,22.9043z M19.5479,18.9951c-0.8018,0-1.4541,0.6523-1.4541,1.4541c0,0.8027,0.6523,1.4551,1.4541,1.4551
		c0.8027,0,1.4551-0.6523,1.4551-1.4551C21.0029,19.6475,20.3506,18.9951,19.5479,18.9951z"/>
	<path d="M6.4775,22.9043c-1.3535,0-2.4551-1.1016-2.4551-2.4551s1.1016-2.4541,2.4551-2.4541s2.4546,1.1006,2.4546,2.4541
		S7.8311,22.9043,6.4775,22.9043z M6.4775,18.9951c-0.8022,0-1.4551,0.6523-1.4551,1.4541c0,0.8027,0.6528,1.4551,1.4551,1.4551
		s1.4546-0.6523,1.4546-1.4551C7.9321,19.6475,7.2798,18.9951,6.4775,18.9951z"/>
	<path d="M23.4775,18.9951H3.0718c-0.2764,0-0.5-0.2236-0.5-0.5s0.2236-0.5,0.5-0.5h20.4058c0.2764,0,0.5,0.2236,0.5,0.5
		S23.7539,18.9951,23.4775,18.9951z"/>
	<path d="M16.4893,18.9512c-0.2764,0-0.5-0.2236-0.5-0.5V8.499c0-0.2764,0.2236-0.5,0.5-0.5s0.5,0.2236,0.5,0.5v9.9521
		C16.9893,18.7275,16.7656,18.9512,16.4893,18.9512z"/>
	<path d="M3.5225,15.0117h-2c-0.2764,0-0.5-0.2236-0.5-0.5s0.2236-0.5,0.5-0.5h2c0.2764,0,0.5,0.2236,0.5,0.5
		S3.7988,15.0117,3.5225,15.0117z"/>
	<path d="M4.5225,13.0117h-4c-0.2764,0-0.5-0.2236-0.5-0.5s0.2236-0.5,0.5-0.5h4c0.2764,0,0.5,0.2236,0.5,0.5
		S4.7988,13.0117,4.5225,13.0117z"/>
</g>
<rect x="-0.0136" fill="none" width="24" height="24"/>
</svg>
