<?xml version="1.0" encoding="utf-8"?>
<!-- Generator: Adobe Illustrator 18.1.0, SVG Export Plug-In . SVG Version: 6.00 Build 0)  -->
<svg version="1.1" id="Layer_1" xmlns="http://www.w3.org/2000/svg" xmlns:xlink="http://www.w3.org/1999/xlink" x="0px" y="0px"
	 width="24px" height="24px" viewBox="0 0 24 24" enable-background="new 0 0 24 24" xml:space="preserve">
<g>
	<path d="M23.5107,19.1299H7.209c-0.1328,0-0.2598-0.0527-0.3535-0.1465l-6.6328-6.6328c-0.0938-0.0938-0.1465-0.2207-0.1465-0.3535
		s0.0527-0.2598,0.1465-0.3535l6.6328-6.6323C6.9492,4.9175,7.0762,4.8647,7.209,4.8647h16.3018c0.2764,0,0.5,0.2236,0.5,0.5
		v13.2651C24.0107,18.9062,23.7871,19.1299,23.5107,19.1299z M7.416,18.1299h15.5947V5.8647H7.416l-6.1328,6.1323L7.416,18.1299z"/>
	<path d="M17.375,15.8438c-0.1279,0-0.2559-0.0488-0.3535-0.1465l-6.6919-6.6924c-0.1953-0.1953-0.1953-0.5117,0-0.707
		s0.5117-0.1953,0.707,0l6.6919,6.6924c0.1953,0.1953,0.1953,0.5117,0,0.707C17.6309,15.7949,17.5029,15.8438,17.375,15.8438z"/>
	<path d="M10.6831,15.8438c-0.1279,0-0.2559-0.0488-0.3535-0.1465c-0.1953-0.1953-0.1953-0.5117,0-0.707l6.6919-6.6924
		c0.1953-0.1953,0.5117-0.1953,0.707,0s0.1953,0.5117,0,0.707l-6.6919,6.6924C10.939,15.7949,10.811,15.8438,10.6831,15.8438z"/>
</g>
<rect x="-0.006" y="0.001" fill="none" width="24" height="24"/>
</svg>
