<?xml version="1.0" encoding="utf-8"?>
<!-- Generator: Adobe Illustrator 18.1.0, SVG Export Plug-In . SVG Version: 6.00 Build 0)  -->
<svg version="1.1" id="Layer_1" xmlns="http://www.w3.org/2000/svg" xmlns:xlink="http://www.w3.org/1999/xlink" x="0px" y="0px"
	 width="24px" height="24px" viewBox="0 0 24 24" enable-background="new 0 0 24 24" xml:space="preserve">
<g>
	<path d="M5.4971,5.9932c-0.1279,0-0.2559-0.0488-0.3535-0.1465L2.8911,3.5942c-0.1953-0.1953-0.1953-0.5117,0-0.707
		s0.5117-0.1953,0.707,0l1.8989,1.8989L6.5522,3.731c0.1953-0.1953,0.5117-0.1953,0.707,0s0.1953,0.5117,0,0.707L5.8506,5.8467
		C5.7529,5.9443,5.625,5.9932,5.4971,5.9932z"/>
	<path d="M5.4971,10.668c-2.8535,0-5.1748-2.3213-5.1748-5.1748c0-2.853,2.3213-5.1743,5.1748-5.1743s5.1748,2.3213,5.1748,5.1743
		C10.6719,8.3467,8.3506,10.668,5.4971,10.668z M5.4971,1.3188c-2.3018,0-4.1748,1.8726-4.1748,4.1743S3.1953,9.668,5.4971,9.668
		s4.1748-1.873,4.1748-4.1748S7.7988,1.3188,5.4971,1.3188z"/>
	<path d="M4.5259,20.9492H3.0752c-0.2764,0-0.5-0.2236-0.5-0.5v-1.4541H2.4678c-0.2764,0-0.5-0.2236-0.5-0.5v-7.0435
		c0-0.2764,0.2236-0.5,0.5-0.5s0.5,0.2236,0.5,0.5v6.5435h0.1074c0.2764,0,0.5,0.2236,0.5,0.5v1.4541h0.9507
		c0.2764,0,0.5,0.2236,0.5,0.5S4.8022,20.9492,4.5259,20.9492z"/>
	<path d="M23.4922,20.999h-1.9863c-0.2764,0-0.5-0.2236-0.5-0.5s0.2236-0.5,0.5-0.5h1.4863v-3.5615
		c0-0.166-0.082-0.3203-0.2188-0.4141l-1.8018-1.2266c-0.0605-0.041-0.1123-0.0957-0.1494-0.1592l-1.5566-2.6387h-2.7734
		c-0.2764,0-0.5-0.2236-0.5-0.5s0.2236-0.5,0.5-0.5h3.0586c0.1768,0,0.3408,0.0938,0.4307,0.2461l1.6455,2.7881l1.709,1.1641
		c0.4111,0.2793,0.6562,0.7432,0.6562,1.2402v4.0615C23.9922,20.7754,23.7686,20.999,23.4922,20.999z"/>
	<path d="M17.5967,21.0117H8.4346c-0.2764,0-0.5-0.2236-0.5-0.5s0.2236-0.5,0.5-0.5h9.1621c0.2764,0,0.5,0.2236,0.5,0.5
		S17.873,21.0117,17.5967,21.0117z"/>
	<path d="M19.5508,22.9043c-1.3535,0-2.4541-1.1016-2.4541-2.4551s1.1006-2.4541,2.4541-2.4541s2.4551,1.1006,2.4551,2.4541
		S20.9043,22.9043,19.5508,22.9043z M19.5508,18.9951c-0.8018,0-1.4541,0.6523-1.4541,1.4541c0,0.8027,0.6523,1.4551,1.4541,1.4551
		c0.8027,0,1.4551-0.6523,1.4551-1.4551C21.0059,19.6475,20.3535,18.9951,19.5508,18.9951z"/>
	<path d="M6.4805,22.9043c-1.3535,0-2.4546-1.1016-2.4546-2.4551s1.1011-2.4541,2.4546-2.4541s2.4546,1.1006,2.4546,2.4541
		S7.834,22.9043,6.4805,22.9043z M6.4805,18.9951c-0.8022,0-1.4546,0.6523-1.4546,1.4541c0,0.8027,0.6523,1.4551,1.4546,1.4551
		s1.4546-0.6523,1.4546-1.4551C7.9351,19.6475,7.2827,18.9951,6.4805,18.9951z"/>
	<path d="M23.4805,18.9951H3.0752c-0.2764,0-0.5-0.2236-0.5-0.5s0.2236-0.5,0.5-0.5h20.4053c0.2764,0,0.5,0.2236,0.5,0.5
		S23.7568,18.9951,23.4805,18.9951z"/>
	<path d="M16.4922,18.9951c-0.2764,0-0.5-0.2236-0.5-0.5V9.0537h-4.5571c-0.2764,0-0.5-0.2236-0.5-0.5s0.2236-0.5,0.5-0.5h5.0571
		c0.2764,0,0.5,0.2236,0.5,0.5v9.9414C16.9922,18.7715,16.7686,18.9951,16.4922,18.9951z"/>
</g>
<rect x="-0.0136" fill="none" width="24" height="24"/>
</svg>
