<?xml version="1.0" encoding="utf-8"?>
<!-- Generator: Adobe Illustrator 18.1.0, SVG Export Plug-In . SVG Version: 6.00 Build 0)  -->
<svg version="1.1" id="Layer_1" xmlns="http://www.w3.org/2000/svg" xmlns:xlink="http://www.w3.org/1999/xlink" x="0px" y="0px"
	 width="24px" height="24px" viewBox="0 0 24 24" enable-background="new 0 0 24 24" xml:space="preserve">
<g>
	<path d="M17.5,19.0039h-11c-0.2764,0-0.5-0.2236-0.5-0.5V5.5044c0-0.2764,0.2236-0.5,0.5-0.5h11c0.2764,0,0.5,0.2236,0.5,0.5
		v12.9995C18,18.7803,17.7764,19.0039,17.5,19.0039z M7,18.0039h10V6.0044H7V18.0039z"/>
	<path d="M3.5,18.0039c-0.2764,0-0.5-0.2236-0.5-0.5v-11c0-0.2764,0.2236-0.5,0.5-0.5S4,6.2275,4,6.5039v11
		C4,17.7803,3.7764,18.0039,3.5,18.0039z"/>
	<path d="M0.5,17.0039c-0.2764,0-0.5-0.2236-0.5-0.5v-9c0-0.2764,0.2236-0.5,0.5-0.5S1,7.2275,1,7.5039v9
		C1,16.7803,0.7764,17.0039,0.5,17.0039z"/>
	<path d="M20.5,18.0039c-0.2764,0-0.5-0.2236-0.5-0.5v-11c0-0.2764,0.2236-0.5,0.5-0.5s0.5,0.2236,0.5,0.5v11
		C21,17.7803,20.7764,18.0039,20.5,18.0039z"/>
	<path d="M23.5,17.0039c-0.2764,0-0.5-0.2236-0.5-0.5v-9c0-0.2764,0.2236-0.5,0.5-0.5s0.5,0.2236,0.5,0.5v9
		C24,16.7803,23.7764,17.0039,23.5,17.0039z"/>
</g>
<rect y="0.001" fill="none" width="24" height="24"/>
</svg>
