<?xml version="1.0" encoding="utf-8"?>
<!-- Generator: Adobe Illustrator 18.1.0, SVG Export Plug-In . SVG Version: 6.00 Build 0)  -->
<svg version="1.1" id="Layer_1" xmlns="http://www.w3.org/2000/svg" xmlns:xlink="http://www.w3.org/1999/xlink" x="0px" y="0px"
	 width="24px" height="24px" viewBox="0 0 24 24" enable-background="new 0 0 24 24" xml:space="preserve">
<g>
	<path d="M22.9863,23h-13c-0.2764,0-0.5-0.2236-0.5-0.5S9.71,22,9.9863,22h13c0.2764,0,0.5,0.2236,0.5,0.5S23.2627,23,22.9863,23z"
		/>
	<path d="M21.5869,16.7109c-0.8945,0-2.0811-0.3682-2.8623-0.6533L7.3745,11.9268c-0.1562-0.0781-2.293-1.2505-5.834-4.4927
		C1.3022,7.2163,1.2534,6.8716,1.4204,6.5957C1.5801,6.333,1.8843,6.2139,2.1768,6.3003l-0.2925-3.084
		C1.8677,3.0454,1.9404,2.8784,2.0762,2.7734c0.1357-0.106,0.3154-0.1338,0.4766-0.0742l0.8008,0.2915
		c0.1167,0.0425,0.2134,0.127,0.2715,0.2363C3.9922,3.9238,4.2969,4.5161,4.5576,5.022c1.2036,2.3389,1.3887,2.6489,2.2012,2.9448
		l3.3755,1.2285l0.2295-4.9292c0.0073-0.1587,0.0898-0.3047,0.2222-0.3926c0.1328-0.0879,0.3013-0.1079,0.4482-0.0537l0.4385,0.1597
		c0.1392,0.0503,0.2485,0.1597,0.2988,0.2988l2.3154,6.3574l4.2539,1.5469c0.3896,0.1455,3.7793,1.4629,4.418,3.2236
		c0.1943,0.5361-0.0186,0.8574-0.1631,1.002C22.377,16.627,22.0156,16.7109,21.5869,16.7109z M3.0459,7.4414
		c2.9434,2.5874,4.7188,3.5659,4.7378,3.5762l11.2827,4.1006c1.0918,0.3965,2.3027,0.6514,2.7295,0.5967
		c-0.4756-1.042-2.5566-2.127-3.8018-2.5947l-4.5127-1.6553c-0.1211-0.0562-0.2148-0.1577-0.2598-0.2827L11.29,5.8774l-0.23,4.9312
		c-0.0132,0.2749-0.2437,0.4854-0.5229,0.4761c-0.2759-0.0127-0.4888-0.2471-0.4761-0.5229l0.0244-0.52L6.417,8.9062
		C5.2056,8.4653,4.8799,7.833,3.6685,5.4795c-0.2012-0.3906-0.4292-0.833-0.6919-1.3359l0.27,2.8481
		c0.0166,0.1709-0.0562,0.3379-0.1919,0.4429C3.0518,7.437,3.0488,7.4395,3.0459,7.4414z"/>
	<path d="M9.3999,14.4697c-0.1299,0-0.2603-0.0498-0.3501-0.1396c-0.1001-0.1006-0.1499-0.2305-0.1499-0.3604
		s0.0498-0.2598,0.1499-0.3604C9.23,13.4297,9.5601,13.4297,9.75,13.6201c0.0996,0.0898,0.1499,0.2197,0.1499,0.3496
		S9.8496,14.2295,9.75,14.3193C9.6499,14.4199,9.5298,14.4697,9.3999,14.4697z"/>
	<path d="M11.46,15.1699c-0.1304,0-0.2603-0.0498-0.3501-0.1504c-0.1001-0.0898-0.1499-0.2197-0.1499-0.3496
		s0.0498-0.2598,0.1396-0.3604c0.1904-0.1797,0.5303-0.1797,0.7104,0.0098c0.0996,0.0908,0.1499,0.2207,0.1499,0.3506
		s-0.0503,0.2598-0.1499,0.3496C11.71,15.1201,11.5898,15.1699,11.46,15.1699z"/>
</g>
<rect x="-0.0136" y="0.0002" fill="none" width="24" height="24"/>
</svg>
