<?xml version="1.0" encoding="utf-8"?>
<!-- Generator: Adobe Illustrator 18.1.0, SVG Export Plug-In . SVG Version: 6.00 Build 0)  -->
<svg version="1.1" id="Layer_1" xmlns="http://www.w3.org/2000/svg" xmlns:xlink="http://www.w3.org/1999/xlink" x="0px" y="0px"
	 width="24px" height="24px" viewBox="0 0 24 24" enable-background="new 0 0 24 24" xml:space="preserve">
<g>
	<path d="M17.4756,20.2119c-0.0039,0-0.0078,0-0.0107,0c-0.1299-0.0029-0.2549-0.0527-0.3467-0.1445l-0.0879-0.0811
		c-1.1592-1.0635-1.874-1.8281-2.1865-2.3389c-0.5498-0.8994-0.7207-2.1553-0.5059-3.7324
		c0.1689-1.2451,0.5576-3.4805,0.5576-3.4805c0.041-0.2397,0.249-0.4146,0.4922-0.4146h4.1699c0.2432,0,0.4512,0.1748,0.4922,0.4146
		c0,0,0.3877,2.2363,0.5566,3.4805c0.2168,1.5957,0.0518,2.8125-0.5049,3.7217c-0.3115,0.5078-1.0244,1.2744-2.1807,2.3428
		l-0.0928,0.0869C17.7344,20.1582,17.6055,20.2119,17.4756,20.2119z M15.8096,11.02c-0.1201,0.6997-0.3584,2.1274-0.4814,3.0298
		c-0.1816,1.3428-0.0576,2.3779,0.3691,3.0762c0.167,0.2734,0.6123,0.8232,1.7744,1.9062c1.1641-1.0928,1.6094-1.6445,1.7773-1.918
		c0.4248-0.6943,0.5488-1.7256,0.3672-3.0645c-0.123-0.9023-0.3613-2.3301-0.4805-3.0298H15.8096z"/>
	<path d="M17.4727,24.0195c-0.2764,0-0.5-0.2236-0.5-0.5v-3.8047c0-0.2764,0.2236-0.5,0.5-0.5s0.5,0.2236,0.5,0.5v3.8047
		C17.9727,23.7959,17.749,24.0195,17.4727,24.0195z"/>
	<path d="M20.0176,24.0195h-5c-0.2764,0-0.5-0.2236-0.5-0.5s0.2236-0.5,0.5-0.5h5c0.2764,0,0.5,0.2236,0.5,0.5
		S20.2939,24.0195,20.0176,24.0195z"/>
	<path d="M20.0176,14.0195h-5.1182c-0.2764,0-0.5-0.2236-0.5-0.5s0.2236-0.5,0.5-0.5h5.1182c0.2764,0,0.5,0.2236,0.5,0.5
		S20.2939,14.0195,20.0176,14.0195z"/>
	<path d="M9.5142,8.1045c-0.2764,0-0.5-0.2236-0.5-0.5v-6.585h-2v6.585c0,0.2764-0.2236,0.5-0.5,0.5s-0.5-0.2236-0.5-0.5v-7.085
		c0-0.2764,0.2236-0.5,0.5-0.5h3c0.2764,0,0.5,0.2236,0.5,0.5v7.085C10.0142,7.8809,9.7905,8.1045,9.5142,8.1045z"/>
	<path d="M10.7378,24.0195H5.3135c-0.6147,0-1.2993-0.4844-1.2993-1.1787v-12.397c0-1.5508,1.3667-3.4243,3.0645-3.4243h1.894
		c1.6846,0,3.041,1.8735,3.041,3.4243v12.397C12.0137,23.5352,11.3413,24.0195,10.7378,24.0195z M7.0786,8.0195
		c-1.0635,0-2.0645,1.3657-2.0645,2.4243v12.397c0.0039,0.0488,0.1528,0.1787,0.2993,0.1787h5.4243
		c0.1377,0,0.2764-0.1221,0.2764-0.1787v-12.397c0-1.0688-0.9614-2.4243-2.0415-2.4243H7.0786z"/>
	<path d="M9.5142,3.0195h-3c-0.2764,0-0.5-0.2236-0.5-0.5s0.2236-0.5,0.5-0.5h3c0.2764,0,0.5,0.2236,0.5,0.5
		S9.7905,3.0195,9.5142,3.0195z"/>
	<path d="M7.5142,21.0195h-3c-0.2764,0-0.5-0.2236-0.5-0.5v-8c0-0.2764,0.2236-0.5,0.5-0.5h3c0.2764,0,0.5,0.2236,0.5,0.5v8
		C8.0142,20.7959,7.7905,21.0195,7.5142,21.0195z M5.0142,20.0195h2v-7h-2V20.0195z"/>
</g>
<rect x="0.0142" y="0.0197" fill="none" width="24" height="24"/>
</svg>
