<?xml version="1.0" encoding="utf-8"?>
<!-- Generator: Adobe Illustrator 18.1.0, SVG Export Plug-In . SVG Version: 6.00 Build 0)  -->
<svg version="1.1" id="Layer_1" xmlns="http://www.w3.org/2000/svg" xmlns:xlink="http://www.w3.org/1999/xlink" x="0px" y="0px"
	 width="24px" height="24px" viewBox="0 0 24 24" enable-background="new 0 0 24 24" xml:space="preserve">
<g>
	<path d="M3.3706,23.875c-0.1284,0-0.2563-0.0488-0.3535-0.1465l-2.7534-2.7539c-0.1846-0.1846-0.1963-0.4795-0.0269-0.6777
		C7.2788,12.042,6.605,5.9077,6.5972,5.8467c-0.0283-0.2271,0.1006-0.4458,0.314-0.5293l9.1836-3.5957
		c0.1865-0.0703,0.3955-0.0283,0.5361,0.1123l5.5264,5.5264c0.1406,0.1406,0.1846,0.3506,0.1123,0.5356l-3.5947,9.1851
		c-0.084,0.2129-0.3076,0.3438-0.5293,0.3135c-0.0176-0.002-0.207-0.0244-0.5498-0.0244c-1.5059,0-6.9565,0.4609-13.9004,6.3857
		C3.6016,23.835,3.4858,23.875,3.3706,23.875z M1.2954,20.5928l2.104,2.1035c6.8389-5.7021,12.1904-6.3262,14.1963-6.3262
		c0.1055,0,0.1992,0.002,0.2812,0.0049l3.3418-8.5391l-5.0635-5.0635L7.6182,6.1147C7.6772,7.6289,7.418,13.249,1.2954,20.5928z"/>
	<path d="M1.9937,22.498c-0.1279,0-0.2559-0.0488-0.3535-0.1465c-0.1953-0.1953-0.1953-0.5117,0-0.707l10.3315-10.332
		c0.1953-0.1953,0.5117-0.1953,0.707,0s0.1953,0.5117,0,0.707L2.3472,22.3516C2.2495,22.4492,2.1216,22.498,1.9937,22.498z"/>
	<path d="M13.1699,12.5166c-0.9346,0-1.6948-0.7607-1.6948-1.6953s0.7603-1.6953,1.6948-1.6953s1.6953,0.7607,1.6953,1.6953
		S14.1045,12.5166,13.1699,12.5166z M13.1699,10.126c-0.3828,0-0.6943,0.312-0.6943,0.6953s0.3115,0.6953,0.6943,0.6953
		c0.3838,0,0.6953-0.312,0.6953-0.6953S13.5537,10.126,13.1699,10.126z"/>
	<path d="M23.3828,6.9209c-0.1279,0-0.2559-0.0488-0.3535-0.1465l-5.8516-5.8521c-0.1953-0.1953-0.1953-0.5117,0-0.707
		s0.5117-0.1953,0.707,0l5.8516,5.8521c0.1953,0.1953,0.1953,0.5117,0,0.707C23.6387,6.8721,23.5107,6.9209,23.3828,6.9209z"/>
</g>
<rect fill="none" width="24" height="24"/>
</svg>
