<?xml version="1.0" encoding="utf-8"?>
<!-- Generator: Adobe Illustrator 18.1.0, SVG Export Plug-In . SVG Version: 6.00 Build 0)  -->
<svg version="1.1" id="Layer_1" xmlns="http://www.w3.org/2000/svg" xmlns:xlink="http://www.w3.org/1999/xlink" x="0px" y="0px"
	 width="24px" height="24px" viewBox="0 0 24 24" enable-background="new 0 0 24 24" xml:space="preserve">
<g>
	<path d="M16.8516,17.7295c-0.1162,0-0.2334-0.04-0.3281-0.123c-0.208-0.1807-0.2305-0.4971-0.0488-0.7051l4.2617-4.9004
		l-4.2617-4.9004c-0.1816-0.2085-0.1592-0.5239,0.0488-0.7056c0.209-0.1807,0.5244-0.1592,0.7051,0.0493l4.5479,5.2285
		c0.1641,0.188,0.1641,0.4678,0,0.6562l-4.5479,5.2285C17.1299,17.6709,16.9912,17.7295,16.8516,17.7295z"/>
	<path d="M7.1636,17.7295c-0.1396,0-0.2783-0.0586-0.3774-0.1719l-4.5479-5.2285c-0.1636-0.1885-0.1636-0.4683,0-0.6562
		l4.5479-5.2285c0.1821-0.2095,0.4976-0.23,0.7056-0.0493C7.7002,6.5767,7.7222,6.8921,7.541,7.1006L3.2783,12.001l4.2627,4.9004
		c0.1812,0.208,0.1592,0.5244-0.0493,0.7051C7.397,17.6895,7.2803,17.7295,7.1636,17.7295z"/>
	<path d="M8.5278,22.0654c-0.0571,0-0.1152-0.0098-0.1719-0.0303c-0.2593-0.0947-0.3926-0.3818-0.2979-0.6416l6.9468-18.9937
		c0.0947-0.2588,0.3809-0.3906,0.6416-0.2979c0.2588,0.0952,0.3926,0.3823,0.2979,0.6416L8.9976,21.7373
		C8.9233,21.9395,8.7319,22.0654,8.5278,22.0654z"/>
</g>
<rect y="0.0011" fill="none" width="24" height="24"/>
</svg>
