<?xml version="1.0" encoding="utf-8"?>
<!-- Generator: Adobe Illustrator 18.1.0, SVG Export Plug-In . SVG Version: 6.00 Build 0)  -->
<svg version="1.1" id="Layer_1" xmlns="http://www.w3.org/2000/svg" xmlns:xlink="http://www.w3.org/1999/xlink" x="0px" y="0px"
	 width="24px" height="24px" viewBox="0 0 24 24" enable-background="new 0 0 24 24" xml:space="preserve">
<g>
	<path d="M17.5039,18.9785c-0.0273,0-0.0547-0.002-0.082-0.0068l-13.7095-2.291c-0.2725-0.0459-0.4561-0.3027-0.4106-0.5752
		l1.3809-8.2661c0.022-0.1309,0.0952-0.248,0.2036-0.3252c0.1079-0.0771,0.2432-0.1069,0.374-0.085L13.457,8.834
		c0.2725,0.0464,0.4551,0.3052,0.4092,0.5771c-0.0469,0.2725-0.3135,0.4551-0.5771,0.4082L5.5864,8.4995l-1.2158,7.2769
		l12.7222,2.127l1.043-6.2422c0.0459-0.272,0.3096-0.4565,0.5752-0.4106c0.2725,0.0454,0.457,0.3032,0.4111,0.5757l-1.125,6.7344
		c-0.0215,0.1309-0.0947,0.248-0.2031,0.3252C17.709,18.9463,17.6074,18.9785,17.5039,18.9785z"/>
	<path d="M6.0205,17.0596c-0.0273,0-0.0552-0.002-0.083-0.0068c-0.272-0.0459-0.4561-0.3027-0.4106-0.5752
		c0.0771-0.4629-0.0303-0.9277-0.3027-1.3096s-0.6772-0.6348-1.1401-0.7119c-0.272-0.0459-0.4561-0.3027-0.4106-0.5752
		c0.0459-0.2734,0.2988-0.458,0.5757-0.4111c0.7261,0.1211,1.3613,0.5176,1.7891,1.1172s0.5962,1.3291,0.4751,2.0547
		C6.4722,16.8867,6.2607,17.0596,6.0205,17.0596z"/>
	<path d="M15.1689,18.54c-0.0312,0-0.0615-0.0029-0.0928-0.0088c-0.2715-0.0508-0.4502-0.3115-0.3994-0.583
		c0.2822-1.5137,1.7588-2.5605,3.2959-2.3232c0.2725,0.041,0.4609,0.2959,0.4189,0.5693c-0.041,0.2734-0.3027,0.4639-0.5693,0.4189
		c-0.9941-0.1543-1.9775,0.5273-2.1631,1.5186C15.6143,18.3721,15.4043,18.54,15.1689,18.54z"/>
	<path d="M5.1777,10.6782c-0.1504,0-0.3027-0.0127-0.4561-0.0381c-0.2725-0.0454-0.4561-0.3032-0.4106-0.5757
		s0.3047-0.46,0.5757-0.4106C5.3472,9.7329,5.814,9.624,6.1963,9.3511c0.3818-0.2725,0.6348-0.6772,0.7119-1.1401
		c0.0459-0.2725,0.3032-0.4595,0.5757-0.4106C7.7563,7.8457,7.9399,8.1035,7.8945,8.376C7.6694,9.7217,6.499,10.6782,5.1777,10.6782
		z"/>
	<path d="M16.5557,13.0088c-2.0303,0-3.6826-1.6519-3.6826-3.6821s1.6523-3.6821,3.6826-3.6821s3.6816,1.6519,3.6816,3.6821
		S18.5859,13.0088,16.5557,13.0088z M16.5557,6.6445c-1.4795,0-2.6826,1.2031-2.6826,2.6821s1.2031,2.6821,2.6826,2.6821
		c1.4785,0,2.6816-1.2031,2.6816-2.6821S18.0342,6.6445,16.5557,6.6445z"/>
	<path d="M12.0391,23.6914c-3.1289,0-6.0679-1.2148-8.2744-3.4219C-0.7983,15.707-0.7979,8.2822,3.7651,3.7192
		c2.207-2.207,5.146-3.4229,8.2749-3.4229s6.0684,1.2158,8.2744,3.4229c2.207,2.2065,3.4229,5.1455,3.4229,8.2744
		c0,3.1294-1.2158,6.0679-3.4229,8.2749S15.1689,23.6914,12.0391,23.6914z M12.04,1.2964c-2.8618,0-5.5498,1.1118-7.5679,3.1299
		C0.2988,8.5996,0.2988,15.3896,4.4717,19.5625c2.0181,2.0176,4.7056,3.1289,7.5674,3.1289c2.8623,0,5.5498-1.1113,7.5684-3.1299
		s3.1299-4.7061,3.1299-7.5679s-1.1113-5.5493-3.1299-7.5674C17.5898,2.4082,14.9023,1.2964,12.04,1.2964z"/>
	<path d="M19.9609,20.415c-0.1279,0-0.2559-0.0488-0.3535-0.1465L3.7651,4.4263c-0.1953-0.1953-0.1953-0.5117,0-0.707
		s0.5117-0.1953,0.707,0l15.8423,15.8423c0.1953,0.1953,0.1953,0.5117,0,0.707C20.2168,20.3662,20.0889,20.415,19.9609,20.415z"/>
	<path d="M11.4688,15.6328c-0.1104,0-0.2222-0.0107-0.335-0.0322c-0.4907-0.0947-1.0859-0.4834-1.4473-0.9453
		c-0.1699-0.2168-0.1313-0.5312,0.0859-0.7012c0.2168-0.1729,0.5312-0.1338,0.7021,0.0859
		c0.2358,0.3018,0.6245,0.5352,0.8486,0.5781c0.3306,0.0654,0.6528-0.0986,0.7021-0.3555c0.0352-0.1797-0.1851-0.3936-0.6538-0.6357
		c-0.4146-0.2236-1.3667-0.7363-1.1782-1.7148c0.1562-0.8018,0.9971-1.313,1.874-1.146c0.5576,0.1074,1.0293,0.48,1.2305,0.9717
		c0.1045,0.2554-0.0176,0.5474-0.2734,0.6519c-0.25,0.1045-0.5479-0.0166-0.6523-0.2725c-0.0752-0.1836-0.2646-0.3252-0.4946-0.3696
		c-0.3296-0.0649-0.6528,0.0977-0.7021,0.354c-0.0244,0.127,0.0352,0.3027,0.6626,0.6406c0.3311,0.1709,1.3643,0.7031,1.1699,1.7109
		C12.8721,15.1523,12.2158,15.6328,11.4688,15.6328z"/>
	<path d="M11.9727,11.7568c-0.0317,0-0.0635-0.0029-0.0957-0.0093c-0.271-0.0522-0.4482-0.3149-0.3955-0.5859l0.1021-0.5264
		c0.0527-0.272,0.3262-0.4507,0.5854-0.3955c0.2715,0.0522,0.4482,0.3149,0.3965,0.5859l-0.1025,0.5264
		C12.417,11.5908,12.207,11.7568,11.9727,11.7568z"/>
	<path d="M11.1147,16.2031c-0.0312,0-0.063-0.0029-0.0952-0.0088c-0.271-0.0527-0.4487-0.3145-0.396-0.5859l0.1016-0.5264
		c0.0522-0.2705,0.312-0.4443,0.5854-0.3965c0.271,0.0527,0.4487,0.3145,0.396,0.5859l-0.1016,0.5264
		C11.5591,16.0371,11.3496,16.2031,11.1147,16.2031z"/>
	<path d="M16.5977,10.9194c-0.3359,0-0.7578-0.1699-1.0488-0.4229c-0.208-0.1812-0.2305-0.4971-0.0498-0.7056
		c0.1826-0.2085,0.498-0.2305,0.7061-0.0493c0.125,0.1084,0.3154,0.1777,0.3926,0.1777c0.0596,0,0.0996-0.0215,0.1201-0.0391
		c-0.0322-0.0093-0.1094-0.0483-0.2607-0.0928c-0.2529-0.0796-0.9951-0.3125-0.9951-1.0361c0-0.582,0.5098-1.0557,1.1357-1.0557
		c0.3994,0,0.7617,0.189,0.9707,0.5054c0.1514,0.2305,0.0879,0.5405-0.1426,0.6924c-0.0928,0.0605-0.1973,0.0889-0.3018,0.082
		c0.4033,0.2021,0.6094,0.5,0.6094,0.8877C17.7334,10.4458,17.2236,10.9194,16.5977,10.9194z"/>
	<path d="M16.5977,8.6958c-0.2764,0-0.5-0.2236-0.5-0.5V7.8921c0-0.2764,0.2236-0.5,0.5-0.5s0.5,0.2236,0.5,0.5v0.3037
		C17.0977,8.4722,16.874,8.6958,16.5977,8.6958z"/>
	<path d="M16.5977,11.2622c-0.2764,0-0.5-0.2236-0.5-0.5v-0.3037c0-0.2764,0.2236-0.5,0.5-0.5s0.5,0.2236,0.5,0.5v0.3037
		C17.0977,11.0386,16.874,11.2622,16.5977,11.2622z"/>
</g>
<rect x="0.0075" y="-0.006" fill="none" width="24" height="24"/>
</svg>
