<?xml version="1.0" encoding="utf-8"?>
<!-- Generator: Adobe Illustrator 18.1.0, SVG Export Plug-In . SVG Version: 6.00 Build 0)  -->
<svg version="1.1" id="Layer_1" xmlns="http://www.w3.org/2000/svg" xmlns:xlink="http://www.w3.org/1999/xlink" x="0px" y="0px"
	 width="24px" height="24px" viewBox="0 0 24 24" enable-background="new 0 0 24 24" xml:space="preserve">
<g>
	<path d="M22.6807,16.8721L22.6807,16.8721c-0.1758,0-0.3486-0.0342-0.5107-0.1025l-5.4307-2.6855
		c-0.4463-0.1865-0.7529-0.627-0.7529-1.1094V9.999c0-0.4741,0.3154-0.9253,0.7852-1.1221l5.3877-2.6597
		c0.9629-0.4062,1.8271,0.2808,1.8271,1.1094v8.3208c0,0.3408-0.1484,0.6582-0.417,0.8926
		C23.3242,16.7539,23.0088,16.8721,22.6807,16.8721z M22.6953,7.1021c-0.041,0-0.082,0.0083-0.1221,0.0249l-5.3867,2.6597
		c-0.126,0.0537-0.2002,0.1396-0.2002,0.2124v2.9756c0,0.0742,0.0723,0.1602,0.168,0.2002l5.4307,2.6855
		c0.0107,0.0039,0.0527,0.0117,0.0957,0.0117l0,0c0.084,0,0.1699-0.0312,0.2314-0.085c0.0342-0.0303,0.0742-0.0781,0.0742-0.1396
		V7.3267C22.9863,7.2251,22.8564,7.1021,22.6953,7.1021z"/>
	<path d="M15.5713,18H1.3667c-0.7739,0-1.3804-0.6416-1.3804-1.46V6.4326C-0.0137,5.6157,0.5796,5,1.3667,5h14.2046
		c0.7939,0,1.415,0.6294,1.415,1.4326V16.54C16.9863,17.3447,16.3516,18,15.5713,18z M1.3667,6
		C1.0859,6,0.9863,6.2329,0.9863,6.4326V16.54c0,0.2217,0.1191,0.46,0.3804,0.46h14.2046c0.2598,0,0.415-0.2334,0.415-0.46V6.4326
		C15.9863,6.1821,15.8115,6,15.5713,6H1.3667z"/>
	<path d="M4.5352,14.0479c-0.2764,0-0.5-0.2236-0.5-0.5v-4.147c0-0.2764,0.2236-0.5,0.5-0.5s0.5,0.2236,0.5,0.5v4.147
		C5.0352,13.8242,4.8115,14.0479,4.5352,14.0479z"/>
	<path d="M7.4102,14.0479c-0.2764,0-0.5-0.2236-0.5-0.5v-4.147c0-0.2764,0.2236-0.5,0.5-0.5s0.5,0.2236,0.5,0.5v4.147
		C7.9102,13.8242,7.6865,14.0479,7.4102,14.0479z"/>
	<path d="M7.4102,11.9746h-2.875c-0.2764,0-0.5-0.2236-0.5-0.5s0.2236-0.5,0.5-0.5h2.875c0.2764,0,0.5,0.2236,0.5,0.5
		S7.6865,11.9746,7.4102,11.9746z"/>
	<path d="M10.7271,14.0479H9.4883c-0.2764,0-0.5-0.2236-0.5-0.5v-4.147c0-0.2764,0.2236-0.5,0.5-0.5h1.2388
		c1.228,0,2.2271,1.1528,2.2271,2.5703c0,1.3804-0.9482,2.5103-2.1328,2.5679C10.7905,14.0449,10.7593,14.0479,10.7271,14.0479z
		 M9.9883,13.0479h0.6558c0.0273-0.0049,0.0547-0.0068,0.083-0.0068c0.6768,0,1.2271-0.7041,1.2271-1.5698
		s-0.5503-1.5703-1.2271-1.5703H9.9883V13.0479z"/>
</g>
<rect x="-0.0137" y="0.0002" fill="none" width="24" height="24"/>
</svg>
