<?xml version="1.0" encoding="utf-8"?>
<!-- Generator: Adobe Illustrator 18.1.0, SVG Export Plug-In . SVG Version: 6.00 Build 0)  -->
<svg version="1.1" id="Layer_1" xmlns="http://www.w3.org/2000/svg" xmlns:xlink="http://www.w3.org/1999/xlink" x="0px" y="0px"
	 width="24px" height="24px" viewBox="0 0 24 24" enable-background="new 0 0 24 24" xml:space="preserve">
<g>
	<path d="M13.4805,24.0127h-3.0352c-0.1377,0-0.2695-0.0566-0.3638-0.1572c-0.0947-0.1006-0.1436-0.2354-0.1353-0.373l0.501-8.3379
		c0.0171-0.2754,0.2725-0.4941,0.5288-0.4688c0.2759,0.0166,0.4858,0.2529,0.4692,0.5293l-0.4692,7.8076h1.9741l-0.5371-9.1045
		c-0.0166-0.2754,0.1943-0.5117,0.4697-0.5283c0.2764-0.0303,0.5117,0.1943,0.5283,0.4697l0.5684,9.6338
		c0.0078,0.1377-0.041,0.2725-0.1348,0.3721C13.75,23.9561,13.6182,24.0127,13.4805,24.0127z"/>
	<path d="M10.5581,11.9346c-0.1807,0-0.355-0.0981-0.4438-0.269c-0.293-0.5635-0.5815-1.4985-0.9653-3.1265
		C8.6953,6.6113,8.4116,4.7607,8.3511,3.3281c-0.0762-1.7896,0.188-2.6577,0.8555-2.8145c0.6665-0.1592,1.2896,0.5024,2.0205,2.1377
		c0.5845,1.3096,1.1567,3.0918,1.6099,5.019c0.3359,1.4258,0.4951,2.4644,0.4863,3.1748c-0.0039,0.2739-0.2266,0.4937-0.5,0.4937
		c-0.002,0-0.0039,0-0.0059,0c-0.2764-0.0034-0.4971-0.23-0.4941-0.5063c0.0078-0.6279-0.1426-1.5874-0.4595-2.9326
		C10.98,4.147,9.9307,2.0581,9.4575,1.5806c-0.2109,0.6387-0.2188,2.9756,0.665,6.729c0.3584,1.5225,0.6294,2.415,0.8784,2.894
		c0.1274,0.2451,0.0322,0.5469-0.2124,0.6743C10.7148,11.9165,10.6357,11.9346,10.5581,11.9346z"/>
	<path d="M4.0796,20.583c-0.2607,0-0.4785-0.0742-0.6372-0.2432c-1.2349-1.3145,3.4341-5.8311,4.3823-6.7236
		c0.9736-0.916,1.7432-1.542,2.353-1.915c0.2344-0.1436,0.543-0.0698,0.6875,0.166c0.144,0.2354,0.0698,0.543-0.166,0.6875
		c-0.5425,0.332-1.2788,0.9336-2.189,1.79c-2.8086,2.6416-4.0928,4.5947-4.2695,5.2432c0.6587-0.1367,2.687-1.2988,5.4951-3.9404
		c1.1406-1.0723,1.8306-1.8438,2.1104-2.3574c0.1318-0.2422,0.436-0.3301,0.6782-0.2002c0.2422,0.1318,0.332,0.4355,0.2002,0.6787
		c-0.3408,0.625-1.0508,1.4287-2.3032,2.6074C9.5942,17.1533,5.8467,20.583,4.0796,20.583z"/>
	<path d="M21.541,16.417c-0.3184,0-0.6807-0.0215-1.0928-0.0645c-1.4258-0.1484-3.2559-0.5439-5.1523-1.1152
		c-1.8496-0.5576-2.7754-0.9229-3.3032-1.3027c-0.2236-0.1611-0.2744-0.4736-0.1133-0.6973
		c0.1606-0.2246,0.4741-0.2773,0.6978-0.1133c0.4189,0.3008,1.3184,0.6465,3.0078,1.1562c3.6914,1.1104,6.0234,1.2471,6.6758,1.0752
		c-0.4482-0.502-2.4688-1.6777-6.1611-2.7891c-1.2471-0.375-2.1982-0.5884-2.8262-0.6333
		c-0.2754-0.0195-0.4834-0.2588-0.4639-0.5342c0.0195-0.2764,0.2812-0.4883,0.5342-0.4629c0.7119,0.0503,1.708,0.2705,3.0449,0.6729
		c1.8955,0.5708,3.6406,1.2515,4.9111,1.9146c1.5879,0.8291,2.208,1.4922,2.0098,2.1484
		C23.1582,16.1768,22.6006,16.417,21.541,16.417z"/>
	<path d="M11.9404,14.0547c-1.104,0-2.002-0.8984-2.002-2.002s0.8979-2.0015,2.002-2.0015c1.1035,0,2.002,0.8979,2.002,2.0015
		S13.0439,14.0547,11.9404,14.0547z M11.9404,11.0513c-0.5522,0-1.002,0.4492-1.002,1.0015c0,0.5527,0.4497,1.002,1.002,1.002
		c0.5527,0,1.002-0.4492,1.002-1.002C12.9424,11.5005,12.4932,11.0513,11.9404,11.0513z"/>
	<path d="M13.7969,24.0127h-3.667c-0.2764,0-0.5-0.2236-0.5-0.5s0.2236-0.5,0.5-0.5h3.667c0.2764,0,0.5,0.2236,0.5,0.5
		S14.0732,24.0127,13.7969,24.0127z"/>
</g>
<rect x="0.0005" fill="none" width="24" height="24"/>
</svg>
