<?xml version="1.0" encoding="utf-8"?>
<!-- Generator: Adobe Illustrator 18.1.0, SVG Export Plug-In . SVG Version: 6.00 Build 0)  -->
<svg version="1.1" id="Layer_1" xmlns="http://www.w3.org/2000/svg" xmlns:xlink="http://www.w3.org/1999/xlink" x="0px" y="0px"
	 width="24px" height="24px" viewBox="0 0 24 24" enable-background="new 0 0 24 24" xml:space="preserve">
<g>
	<path d="M17.5,3h-11C6.2236,3,6,2.7764,6,2.5V1.6689c0-0.1597,0.0762-0.3096,0.2051-0.4038l1.5991-1.1689
		C7.8896,0.0337,7.9932,0,8.0991,0h7.8022c0.1064,0,0.21,0.0337,0.2949,0.0962l1.5986,1.1689C17.9238,1.3594,18,1.5093,18,1.6689
		V2.5C18,2.7764,17.7764,3,17.5,3z M7,2h10V1.9229L15.7383,1H8.2622L7,1.9229V2z"/>
	<path d="M15.9014,10H8.0991c-0.1108,0-0.2188-0.0371-0.3066-0.105L6.1934,8.6548C6.0713,8.5601,6,8.4146,6,8.2598V7.5
		C6,7.2236,6.2236,7,6.5,7h11C17.7764,7,18,7.2236,18,7.5v0.7598c0,0.1543-0.0713,0.3003-0.1934,0.395L16.208,9.895
		C16.1201,9.9629,16.0127,10,15.9014,10z M8.2705,9h7.46L17,8L7,8.0146L8.2705,9z"/>
	<path d="M13.5,24h-3c-0.2764,0-0.5-0.2236-0.5-0.5v-11c0-0.2764,0.2236-0.5,0.5-0.5h3c0.2764,0,0.5,0.2236,0.5,0.5v11
		C14,23.7764,13.7764,24,13.5,24z M11,23h2V13h-2V23z"/>
	<path d="M12,8c-0.2764,0-0.5-0.2236-0.5-0.5v-5C11.5,2.2236,11.7236,2,12,2s0.5,0.2236,0.5,0.5v5C12.5,7.7764,12.2764,8,12,8z"/>
	<path d="M12,13c-0.2764,0-0.5-0.2236-0.5-0.5v-3C11.5,9.2236,11.7236,9,12,9s0.5,0.2236,0.5,0.5v3C12.5,12.7764,12.2764,13,12,13z"
		/>
	<path d="M13.6387,6.2295h-3.2769c-0.2764,0-0.5-0.2236-0.5-0.5s0.2236-0.5,0.5-0.5h3.2769c0.2764,0,0.5,0.2236,0.5,0.5
		S13.915,6.2295,13.6387,6.2295z"/>
	<path d="M13.6387,4.7339h-3.2769c-0.2764,0-0.5-0.2236-0.5-0.5s0.2236-0.5,0.5-0.5h3.2769c0.2764,0,0.5,0.2236,0.5,0.5
		S13.915,4.7339,13.6387,4.7339z"/>
</g>
<rect fill="none" width="24" height="24"/>
</svg>
