<?xml version="1.0" encoding="utf-8"?>
<!-- Generator: Adobe Illustrator 18.1.0, SVG Export Plug-In . SVG Version: 6.00 Build 0)  -->
<svg version="1.1" id="Layer_1" xmlns="http://www.w3.org/2000/svg" xmlns:xlink="http://www.w3.org/1999/xlink" x="0px" y="0px"
	 width="24px" height="24px" viewBox="0 0 24 24" enable-background="new 0 0 24 24" xml:space="preserve">
<g>
	<path d="M23.501,14.0527c-0.1406,0-0.2803-0.0586-0.3789-0.1738l-4.1875-4.8677H5.0659l-4.1875,4.8677
		c-0.1807,0.21-0.4961,0.2314-0.7051,0.0527c-0.2095-0.1797-0.2329-0.4961-0.0527-0.7051l4.3369-5.0415
		c0.0947-0.1104,0.2334-0.1738,0.3789-0.1738h14.3276c0.1455,0,0.2842,0.0635,0.3789,0.1738l4.3369,5.0415
		c0.1807,0.209,0.1562,0.5254-0.0527,0.7051C23.7324,14.0127,23.6162,14.0527,23.501,14.0527z"/>
	<path d="M21.6426,24.0127H2.3579c-1.3003,0-2.3584-1.0576-2.3584-2.3584v-8.1016c0-0.2764,0.2236-0.5,0.5-0.5h7.0659
		c0.2764,0,0.5,0.2236,0.5,0.5v2.291c0,0.6514,0.5293,1.1807,1.1802,1.1807h5.5601c0.6514,0,1.1807-0.5293,1.1807-1.1807v-2.291
		c0-0.2764,0.2236-0.5,0.5-0.5h7.0146c0.2764,0,0.5,0.2236,0.5,0.5v8.1016C24.001,22.9551,22.9434,24.0127,21.6426,24.0127z
		 M0.9995,14.0527v7.6016c0,0.749,0.6094,1.3584,1.3584,1.3584h19.2847c0.749,0,1.3584-0.6094,1.3584-1.3584v-7.6016h-6.0146v1.791
		c0,1.2021-0.9785,2.1807-2.1807,2.1807H9.2456c-1.2021,0-2.1802-0.9785-2.1802-2.1807v-1.791H0.9995z"/>
</g>
<rect y="0.0001" fill="none" width="24" height="24"/>
</svg>
