<?xml version="1.0" encoding="utf-8"?>
<!-- Generator: Adobe Illustrator 18.1.0, SVG Export Plug-In . SVG Version: 6.00 Build 0)  -->
<svg version="1.1" id="Layer_1" xmlns="http://www.w3.org/2000/svg" xmlns:xlink="http://www.w3.org/1999/xlink" x="0px" y="0px"
	 width="24px" height="24px" viewBox="0 0 24 24" enable-background="new 0 0 24 24" xml:space="preserve">
<g>
	<path d="M18.6445,23.0352H5.3818c-0.2319,0-0.4336-0.1592-0.4868-0.3857L2.1396,10.9341
		c-0.0498-0.2129,0.0439-0.4336,0.2324-0.5449c0.188-0.1108,0.4258-0.0879,0.5894,0.0596l3.208,2.897l1.1279-6.165
		C7.335,6.9751,7.4966,6.8145,7.7021,6.7783c0.209-0.0366,0.4126,0.0591,0.5186,0.2397l3.7939,6.4829L15.8555,7
		c0.1064-0.1797,0.3086-0.2788,0.5205-0.2373c0.2061,0.0371,0.3662,0.1992,0.4023,0.4053l1.083,6.168l3.1807-2.8945
		c0.1621-0.1475,0.4023-0.1719,0.5898-0.0615c0.1895,0.1108,0.2842,0.3315,0.2344,0.5449l-2.7344,11.7236
		C19.0791,22.875,18.877,23.0352,18.6445,23.0352z M5.7778,22.0352H18.248l2.2793-9.7725l-2.6641,2.4248
		c-0.1357,0.123-0.3252,0.1631-0.499,0.1025c-0.1719-0.0586-0.2988-0.207-0.3301-0.3857l-1.0059-5.73l-3.585,6.0669
		c-0.0898,0.1523-0.2539,0.2461-0.4307,0.2461h-0.001c-0.1772,0-0.3408-0.0947-0.4307-0.2471L8.0386,8.6865l-1.0469,5.7207
		c-0.0327,0.1787-0.1592,0.3252-0.3306,0.3838c-0.1724,0.0566-0.3618,0.0186-0.4961-0.1025L3.48,12.2637L5.7778,22.0352z"/>
	<path d="M7.5718,7.7705c-1.0146,0-1.8403-0.8257-1.8403-1.8403s0.8257-1.8403,1.8403-1.8403c1.0151,0,1.8408,0.8257,1.8408,1.8403
		S8.5869,7.7705,7.5718,7.7705z M7.5718,5.0898c-0.4634,0-0.8403,0.377-0.8403,0.8403s0.377,0.8403,0.8403,0.8403
		c0.4639,0,0.8408-0.377,0.8408-0.8403S8.0356,5.0898,7.5718,5.0898z"/>
	<path d="M16.4541,7.7705c-1.0146,0-1.8398-0.8257-1.8398-1.8403s0.8252-1.8403,1.8398-1.8403s1.8408,0.8257,1.8408,1.8403
		S17.4688,7.7705,16.4541,7.7705z M16.4541,5.0898c-0.4629,0-0.8398,0.377-0.8398,0.8403s0.377,0.8403,0.8398,0.8403
		c0.4639,0,0.8408-0.377,0.8408-0.8403S16.918,5.0898,16.4541,5.0898z"/>
	<path d="M21.9775,11.4526c-1.0146,0-1.8408-0.8257-1.8408-1.8408c0-1.0146,0.8262-1.8403,1.8408-1.8403
		s1.8398,0.8257,1.8398,1.8403C23.8174,10.627,22.9922,11.4526,21.9775,11.4526z M21.9775,8.7715
		c-0.4639,0-0.8408,0.377-0.8408,0.8403c0,0.4639,0.377,0.8408,0.8408,0.8408c0.4629,0,0.8398-0.377,0.8398-0.8408
		C22.8174,9.1484,22.4404,8.7715,21.9775,8.7715z"/>
	<path d="M2.0488,11.4526c-1.0146,0-1.8403-0.8257-1.8403-1.8408c0-1.0146,0.8257-1.8403,1.8403-1.8403s1.8403,0.8257,1.8403,1.8403
		C3.8892,10.627,3.0635,11.4526,2.0488,11.4526z M2.0488,8.7715c-0.4634,0-0.8403,0.377-0.8403,0.8403
		c0,0.4639,0.377,0.8408,0.8403,0.8408s0.8403-0.377,0.8403-0.8408C2.8892,9.1484,2.5122,8.7715,2.0488,8.7715z"/>
	<path d="M19.0928,21.0352H4.8975c-0.2764,0-0.5-0.2236-0.5-0.5s0.2236-0.5,0.5-0.5h14.1953c0.2764,0,0.5,0.2236,0.5,0.5
		S19.3691,21.0352,19.0928,21.0352z"/>
</g>
<rect x="0.0142" y="0.0354" fill="none" width="24" height="24"/>
</svg>
