<?xml version="1.0" encoding="utf-8"?>
<!-- Generator: Adobe Illustrator 18.1.0, SVG Export Plug-In . SVG Version: 6.00 Build 0)  -->
<svg version="1.1" id="Layer_1" xmlns="http://www.w3.org/2000/svg" xmlns:xlink="http://www.w3.org/1999/xlink" x="0px" y="0px"
	 width="24px" height="24px" viewBox="0 0 24 24" enable-background="new 0 0 24 24" xml:space="preserve">
<g>
	<path d="M11.5757,18H3.3623c-1.4419,0-2.668-0.9082-3.0498-2.2588c-0.353-1.2471,0.1367-2.4863,1.2812-3.2812
		C2.022,10.478,3.7183,9.0625,5.707,9.0625c0.9072,0,1.77,0.2964,2.5088,0.8599c1.54-0.1074,2.8188,0.6533,3.3818,1.9253
		c1.8086,0.0186,3.2744,1.3916,3.2744,3.0762C14.8721,16.5908,13.3623,18,11.5757,18z M5.707,10.0625
		c-1.3467,0-2.8672,0.9551-3.1689,2.7803c-0.0234,0.1436-0.1079,0.2686-0.2314,0.3447c-0.8945,0.5508-1.2803,1.4033-1.0322,2.2812
		C1.4902,16.2305,2.2192,17,3.3623,17h8.2134c1.2446,0,2.2964-0.9512,2.2964-2.0762c0-1.2002-1.1924-2.2051-2.5669-2.0635
		c-0.229,0.0195-0.4561-0.124-0.5264-0.3506c-0.2617-0.8481-1.1431-1.7617-2.6548-1.5737
		c-0.1377,0.0142-0.2769-0.0239-0.3833-0.1133C7.1489,10.3252,6.4453,10.0625,5.707,10.0625z"/>
	<path d="M21.502,9h-4.5488c-0.8984,0-1.6641-0.5688-1.9033-1.4155c-0.2158-0.7622,0.0615-1.5161,0.7256-2.0142
		c0.2881-1.1553,1.2969-1.9722,2.4756-1.9722c0.5244,0,1.0244,0.1621,1.457,0.4722c0.8604-0.0396,1.584,0.3833,1.9482,1.0762
		c1.0586,0.0786,1.8936,0.9111,1.8936,1.9233C23.5498,8.1162,22.6123,9,21.502,9z M18.251,4.5981
		c-0.6514,0-1.3877,0.4644-1.5342,1.353c-0.0234,0.1426-0.1074,0.2686-0.2314,0.3442c-0.4121,0.2534-0.584,0.624-0.4736,1.0166
		C16.1094,7.6543,16.4375,8,16.9531,8h4.5488c0.5586,0,1.0479-0.4346,1.0479-0.9302c0-0.4775-0.4893-0.9873-1.1768-0.9238
		c-0.2334,0.02-0.4551-0.1235-0.5254-0.3501c-0.1572-0.5117-0.6309-0.7852-1.2305-0.7158
		c-0.1396,0.0146-0.2773-0.0239-0.3828-0.1133C18.9473,4.7256,18.6074,4.5981,18.251,4.5981z"/>
	<path d="M12.418,20.9814c-2.6895,0-5.2642-1.1475-7.0635-3.1475c-0.1851-0.2051-0.168-0.5205,0.0371-0.7061
		s0.5215-0.1689,0.7061,0.0381c1.6104,1.7891,3.9141,2.8154,6.3203,2.8154c4.6865,0,8.5-3.8135,8.5-8.5
		c0-0.9668-0.1592-1.9683-0.4492-2.8208c-0.0889-0.2612,0.0518-0.5454,0.3125-0.6343c0.2617-0.0884,0.5449,0.0503,0.6348,0.313
		c0.3232,0.9526,0.502,2.0688,0.502,3.1421C21.918,16.7197,17.6562,20.9814,12.418,20.9814z"/>
	<path d="M3.4937,10.812c-0.0215,0-0.043-0.0015-0.0649-0.0044c-0.2739-0.0352-0.4668-0.2861-0.4312-0.5601
		c0.6113-4.7124,4.6611-8.2661,9.4204-8.2661c2.0078,0,3.9287,0.6211,5.5566,1.7969c0.2236,0.1616,0.2744,0.4741,0.1123,0.6982
		S17.6133,4.75,17.3887,4.5889c-1.4561-1.0518-3.1748-1.6074-4.9707-1.6074c-4.2583,0-7.8818,3.1792-8.4292,7.395
		C3.9565,10.6284,3.7412,10.812,3.4937,10.812z"/>
</g>
<rect x="0.0005" fill="none" width="24" height="24"/>
</svg>
