<?xml version="1.0" encoding="utf-8"?>
<!-- Generator: Adobe Illustrator 18.1.0, SVG Export Plug-In . SVG Version: 6.00 Build 0)  -->
<svg version="1.1" id="Layer_1" xmlns="http://www.w3.org/2000/svg" xmlns:xlink="http://www.w3.org/1999/xlink" x="0px" y="0px"
	 width="24px" height="24px" viewBox="0 0 24 24" enable-background="new 0 0 24 24" xml:space="preserve">
<g>
	<path d="M11.9907,15.2422c-2.6392,0-4.6436-2.5469-5.0024-5.0596c-0.4546-0.1528-0.7969-0.5342-0.9106-1.0425
		C5.957,8.603,6.1182,8.084,6.4863,7.7422C6.354,7.2275,6.2871,6.6982,6.2871,6.1641c0-3.3193,2.5586-6.0195,5.7036-6.0195
		s5.7036,2.7002,5.7036,6.0195c0,0.5356-0.0674,1.0649-0.1992,1.5786c0.3682,0.3418,0.5293,0.8608,0.4082,1.3979
		c-0.1143,0.5107-0.46,0.8931-0.9111,1.0444C16.6328,12.6973,14.6289,15.2422,11.9907,15.2422z M11.9907,1.1445
		c-2.5938,0-4.7036,2.252-4.7036,5.0195c0,0.5552,0.0859,1.1035,0.2549,1.6309c0.0767,0.2388-0.0356,0.4976-0.2622,0.605
		c-0.2954,0.1396-0.2407,0.4585-0.2266,0.521c0.0176,0.0786,0.0967,0.335,0.376,0.335c0.2617,0,0.4951,0.2021,0.5142,0.4629
		c0.1587,2.1396,1.8599,4.5234,4.0474,4.5234c2.187,0,3.8882-2.3838,4.0464-4.5234c0.0195-0.2607,0.2373-0.4629,0.499-0.4629
		c0.2949,0,0.374-0.2559,0.3916-0.3345c0.0137-0.0625,0.0693-0.3818-0.2266-0.5215c-0.2266-0.1074-0.3389-0.3667-0.2617-0.6055
		c0.1689-0.5249,0.2549-1.0737,0.2549-1.6304C16.6943,3.3965,14.584,1.1445,11.9907,1.1445z"/>
	<path d="M23.0459,24.0459H0.9355c-0.543,0-0.9849-0.4424-0.9849-0.9854v-1.7334c0-0.2646,0.1094-0.5225,0.3003-0.707
		c2.1372-2.0762,8.1191-4.3574,8.5664-4.3574c0.0806,0,0.1636,0.0195,0.2349,0.0576c1.5752,0.8418,4.3081,0.8398,5.8716,0.002
		c0.0723-0.0391,0.1572-0.0596,0.2393-0.0596c0.4473,0,6.4297,2.2812,8.5684,4.3594c0.1895,0.1816,0.2988,0.4395,0.2988,0.7051
		v1.7334C24.0303,23.6035,23.5889,24.0459,23.0459,24.0459z M8.7427,17.2852c-0.8008,0.2568-5.8975,2.209-7.7959,4.0537
		l0.0039,1.7217l22.0796-0.0146v-1.7188c-1.7979-1.7393-6.7852-3.6963-7.8145-4.0312C13.415,18.1729,10.5425,18.1709,8.7427,17.2852
		z"/>
</g>
<rect x="0.0005" y="0.0004" fill="none" width="24" height="24"/>
</svg>
