<?xml version="1.0" encoding="utf-8"?>
<!-- Generator: Adobe Illustrator 18.1.0, SVG Export Plug-In . SVG Version: 6.00 Build 0)  -->
<svg version="1.1" id="Layer_1" xmlns="http://www.w3.org/2000/svg" xmlns:xlink="http://www.w3.org/1999/xlink" x="0px" y="0px"
	 width="24px" height="24px" viewBox="0 0 24 24" enable-background="new 0 0 24 24" xml:space="preserve">
<g>
	<path d="M21.5303,23.9814H2.4766c-0.2764,0-0.5-0.2236-0.5-0.5V9.748c0-0.2764,0.2236-0.5,0.5-0.5s0.5,0.2236,0.5,0.5v13.2334
		h18.0537V9.748c0-0.2764,0.2236-0.5,0.5-0.5s0.5,0.2236,0.5,0.5v13.7334C22.0303,23.7578,21.8066,23.9814,21.5303,23.9814z"/>
	<path d="M9.5181,18.0459H6.4688c-0.2764,0-0.5-0.2236-0.5-0.5v-3.04c0-0.2764,0.2236-0.5,0.5-0.5h3.0493
		c0.2764,0,0.5,0.2236,0.5,0.5v3.04C10.0181,17.8223,9.7944,18.0459,9.5181,18.0459z M6.9688,17.0459h2.0493v-2.04H6.9688V17.0459z"
		/>
	<path d="M17.5059,23.9814h-5.0557c-0.2764,0-0.5-0.2236-0.5-0.5v-8.9756c0-0.2764,0.2236-0.5,0.5-0.5h5.0557
		c0.2764,0,0.5,0.2236,0.5,0.5v8.9756C18.0059,23.7578,17.7822,23.9814,17.5059,23.9814z M12.9502,22.9814h4.0557v-7.9756h-4.0557
		V22.9814z"/>
	<path d="M23.5088,11.8418c-0.1143,0-0.2295-0.0391-0.3232-0.1182L12.0029,2.2559L0.8213,11.7236
		c-0.2119,0.1777-0.5273,0.1514-0.7046-0.0586c-0.1787-0.2109-0.1523-0.5264,0.0581-0.7046l11.5049-9.7417
		c0.187-0.1582,0.459-0.1562,0.6465,0L23.832,10.96c0.2109,0.1787,0.2363,0.4941,0.0586,0.7051
		C23.791,11.7817,23.6504,11.8418,23.5088,11.8418z"/>
</g>
<rect fill="none" width="24" height="24"/>
</svg>
