<?xml version="1.0" encoding="utf-8"?>
<!-- Generator: Adobe Illustrator 18.1.0, SVG Export Plug-In . SVG Version: 6.00 Build 0)  -->
<svg version="1.1" id="Layer_1" xmlns="http://www.w3.org/2000/svg" xmlns:xlink="http://www.w3.org/1999/xlink" x="0px" y="0px"
	 width="24px" height="24px" viewBox="0 0 24 24" enable-background="new 0 0 24 24" xml:space="preserve">
<g>
	<g>
		<path d="M11.563,6.1025c-0.2764,0-0.5-0.2236-0.5-0.5v-3.27c0-0.2764,0.2236-0.5,0.5-0.5s0.4995,0.2236,0.4995,0.5v3.27
			C12.0625,5.8789,11.8394,6.1025,11.563,6.1025z"/>
		<path d="M12.9795,5.2852c-0.085,0-0.1709-0.0215-0.25-0.0669L9.897,3.583C9.6577,3.4448,9.5757,3.1392,9.7139,2.8999
			s0.4438-0.3213,0.6831-0.1831l2.8325,1.6353c0.2393,0.1382,0.3213,0.4438,0.1826,0.6831
			C13.3203,5.1953,13.1514,5.2852,12.9795,5.2852z"/>
		<path d="M10.1475,5.2852c-0.1729,0-0.3408-0.0894-0.4336-0.25C9.5757,4.7959,9.6577,4.4902,9.897,4.3521l2.8325-1.6353
			c0.2383-0.1377,0.5449-0.0571,0.6826,0.1831c0.1387,0.2393,0.0566,0.5449-0.1826,0.6831L10.397,5.2183
			C10.3184,5.2637,10.2324,5.2852,10.1475,5.2852z"/>
	</g>
	<g>
		<path d="M16.5635,6.1025c-0.2764,0-0.5-0.2236-0.5-0.5v-3.27c0-0.2764,0.2236-0.5,0.5-0.5s0.5,0.2236,0.5,0.5v3.27
			C17.0635,5.8789,16.8398,6.1025,16.5635,6.1025z"/>
		<path d="M17.9795,5.2852c-0.085,0-0.1709-0.0215-0.25-0.0669l-2.832-1.6353c-0.2393-0.1382-0.3213-0.4438-0.1826-0.6831
			c0.1377-0.2393,0.4443-0.3193,0.6826-0.1831l2.832,1.6353c0.2393,0.1382,0.3213,0.4438,0.1826,0.6831
			C18.3203,5.1953,18.1514,5.2852,17.9795,5.2852z"/>
		<path d="M15.1475,5.2852c-0.1719,0-0.3408-0.0894-0.4326-0.25c-0.1387-0.2393-0.0566-0.5449,0.1826-0.6831l2.832-1.6353
			c0.2393-0.1377,0.5449-0.0571,0.6826,0.1831c0.1387,0.2393,0.0566,0.5449-0.1826,0.6831l-2.832,1.6353
			C15.3184,5.2637,15.2324,5.2852,15.1475,5.2852z"/>
	</g>
	<g>
		<path d="M21.5635,6.1025c-0.2764,0-0.5-0.2236-0.5-0.5v-3.27c0-0.2764,0.2236-0.5,0.5-0.5s0.5,0.2236,0.5,0.5v3.27
			C22.0635,5.8789,21.8398,6.1025,21.5635,6.1025z"/>
		<path d="M22.9795,5.2852c-0.085,0-0.1709-0.0215-0.25-0.0669l-2.832-1.6353c-0.2393-0.1382-0.3213-0.4438-0.1826-0.6831
			c0.1377-0.2393,0.4443-0.3193,0.6826-0.1831l2.832,1.6353c0.2393,0.1382,0.3213,0.4438,0.1826,0.6831
			C23.3203,5.1953,23.1514,5.2852,22.9795,5.2852z"/>
		<path d="M20.1475,5.2852c-0.1719,0-0.3408-0.0894-0.4326-0.25c-0.1387-0.2393-0.0566-0.5449,0.1826-0.6831l2.832-1.6353
			c0.2383-0.1377,0.5449-0.0571,0.6826,0.1831c0.1387,0.2393,0.0566,0.5449-0.1826,0.6831l-2.832,1.6353
			C20.3184,5.2637,20.2324,5.2852,20.1475,5.2852z"/>
	</g>
	<path d="M7.563,13.6709c-0.2764,0-0.5-0.2236-0.5-0.5v-3.1094c0-0.2764,0.2236-0.5,0.5-0.5s0.5,0.2236,0.5,0.5v3.1094
		C8.063,13.4473,7.8394,13.6709,7.563,13.6709z"/>
	<path d="M10.5132,14.085c-0.2764,0-0.5-0.2236-0.5-0.5v-2.6714c0-0.2764,0.2236-0.5,0.5-0.5s0.5,0.2236,0.5,0.5v2.6714
		C11.0132,13.8613,10.7896,14.085,10.5132,14.085z"/>
	<path d="M5.3594,22.4688c-0.0645,0-0.1294-0.0127-0.1924-0.0381c-1.5537-0.6484-3.3115-3.2881-3.6885-5.5381
		c-0.2271-1.3555,0.0557-2.4297,0.8179-3.1084c0.5898-0.5244,1.1411-0.6768,1.6362-0.4531c0.063,0.0283,0.123,0.0625,0.1797,0.1025
		V4.875c0-1.75,2.2397-2.1602,3.2944-1.3511C7.8301,3.8486,8.063,4.3281,8.063,4.875v3.6284
		c0.7388-0.3501,1.6982-0.2495,2.2944,0.207c0.2461,0.189,0.4277,0.4302,0.5366,0.7061c0.7505-0.4185,1.7856-0.3369,2.4136,0.1465
		c0.4229,0.3242,0.6562,0.8042,0.6562,1.3506v1.7603c0,0.2764-0.2236,0.5-0.5,0.5s-0.5-0.2236-0.5-0.5v-1.7603
		c0-0.2383-0.0869-0.4209-0.2646-0.5571c-0.1777-0.1367-0.4365-0.2148-0.709-0.2148c-0.3628,0-0.9766,0.1626-0.9766,0.772
		c0,0.2764-0.2236,0.5-0.5,0.5s-0.5-0.2236-0.5-0.5v-0.8521c0-0.2383-0.0864-0.4209-0.2646-0.5571
		C9.5708,9.3677,9.3125,9.2896,9.0396,9.2896c-0.3628,0-0.9766,0.1626-0.9766,0.772c0,0.2764-0.2236,0.5-0.5,0.5
		s-0.5-0.2236-0.5-0.5V4.875c0-0.2388-0.0864-0.4209-0.2646-0.5576C6.6206,4.1812,6.3623,4.103,6.0894,4.103
		c-0.3628,0-0.9771,0.1626-0.9771,0.772V16.71c0,0.0332,0,0.0635,0,0.0908c-0.0015,0.2764-0.2368,0.4668-0.5015,0.4971
		c-0.2754-0.001-0.4985-0.2246-0.4985-0.5v-0.0654c-0.0049-1.0645-0.2539-2.3379-0.5918-2.4902
		c-0.0747-0.0342-0.2793,0.041-0.5591,0.2891c-0.6221,0.5537-0.6133,1.5-0.4971,2.1963c0.3486,2.0801,1.9741,4.3154,3.0874,4.7793
		c0.2549,0.1064,0.3755,0.3994,0.269,0.6543C5.7407,22.3535,5.5552,22.4688,5.3594,22.4688z"/>
	<path d="M14.8486,22.4688c-0.0615,0-0.124-0.0107-0.1846-0.0352c-0.2559-0.1016-0.3818-0.3926-0.2803-0.6494
		c1.7275-4.3604,1.5332-9.04,1.5312-9.0869c-0.001-0.769-0.8643-0.7905-0.9629-0.7905c-0.3672,0-0.9883,0.1616-0.9883,0.7671v1.373
		c0,0.2764-0.2236,0.5-0.5,0.5s-0.5-0.2236-0.5-0.5v-1.373c0-2.3057,3.9492-2.3354,3.9502,0
		c0.0088,0.1758,0.208,4.9121-1.6006,9.4795C15.2354,22.3496,15.0479,22.4688,14.8486,22.4688z"/>
</g>
<rect x="0.0293" fill="none" width="24" height="24"/>
</svg>
