<?xml version="1.0" encoding="utf-8"?>
<!-- Generator: Adobe Illustrator 18.1.0, SVG Export Plug-In . SVG Version: 6.00 Build 0)  -->
<svg version="1.1" id="Layer_1" xmlns="http://www.w3.org/2000/svg" xmlns:xlink="http://www.w3.org/1999/xlink" x="0px" y="0px"
	 width="24px" height="24px" viewBox="0 0 24 24" enable-background="new 0 0 24 24" xml:space="preserve">
<g>
	<path d="M15.8574,17.0195H4c-0.2764,0-0.5-0.2236-0.5-0.5s0.2236-0.5,0.5-0.5h11.8574c2.2852,0,4.1445-1.7939,4.1445-4
		c0-2.2056-1.8594-4-4.1445-4H4c-0.2764,0-0.5-0.2236-0.5-0.5s0.2236-0.5,0.5-0.5h11.8574c2.8369,0,5.1445,2.2432,5.1445,5
		S18.6943,17.0195,15.8574,17.0195z"/>
	<path d="M3.8569,17.0195c-2.0049,0-3.6362-2.2432-3.6362-5.001s1.6313-5.0015,3.6362-5.0015s3.6362,2.2437,3.6362,5.0015
		S5.8618,17.0195,3.8569,17.0195z M3.8569,8.0171c-1.4536,0-2.6362,1.7949-2.6362,4.0015c0,2.2061,1.1826,4.001,2.6362,4.001
		s2.6362-1.7949,2.6362-4.001C6.4932,9.812,5.3105,8.0171,3.8569,8.0171z"/>
	<path d="M11,10.0195H6.4658c-0.2764,0-0.5-0.2236-0.5-0.5s0.2236-0.5,0.5-0.5H11c0.2764,0,0.5,0.2236,0.5,0.5
		S11.2764,10.0195,11,10.0195z"/>
	<path d="M2.6499,10.3101c-0.1299,0-0.25-0.0503-0.3501-0.1401c-0.1001-0.1001-0.1499-0.23-0.1499-0.3599
		c0-0.1304,0.0498-0.2603,0.1499-0.3501C2.5,9.27,2.8101,9.27,3,9.4497c0.0996,0.1001,0.1499,0.23,0.1499,0.3604
		c0,0.1299-0.0503,0.2598-0.1499,0.3599C2.9097,10.2598,2.7798,10.3101,2.6499,10.3101z"/>
	<path d="M2.0898,12.1895c-0.1299,0-0.2603-0.0498-0.3501-0.1396c-0.1001-0.1001-0.1499-0.2202-0.1499-0.3599
		c0-0.1299,0.0498-0.2603,0.1499-0.3501c0.1802-0.1802,0.52-0.1899,0.7002,0c0.1001,0.1001,0.1499,0.2202,0.1499,0.3501
		S2.54,11.9497,2.4497,12.04C2.3496,12.1396,2.2197,12.1895,2.0898,12.1895z"/>
	<path d="M3.6997,11.5298c-0.1396,0-0.27-0.0601-0.3599-0.1499s-0.1401-0.2202-0.1401-0.3501c0-0.1401,0.0503-0.2598,0.1401-0.3599
		c0.1699-0.1802,0.52-0.1899,0.71,0c0.1001,0.1001,0.1499,0.23,0.1499,0.3599s-0.0498,0.25-0.1499,0.3501
		C3.96,11.4697,3.8296,11.5298,3.6997,11.5298z"/>
	<path d="M4.21,14.1895c-0.1304,0-0.2603-0.0498-0.3501-0.1396C3.7598,13.9502,3.71,13.8301,3.71,13.6895
		c0-0.1299,0.0601-0.2598,0.1499-0.3496c0.1699-0.1797,0.52-0.1904,0.71,0C4.6597,13.4297,4.71,13.5596,4.71,13.6895
		S4.6597,13.9502,4.5698,14.04C4.4697,14.1396,4.3398,14.1895,4.21,14.1895z"/>
	<path d="M5.3398,13.1299c-0.1299,0-0.2603-0.0498-0.3501-0.1396c-0.1001-0.1006-0.1499-0.2207-0.1499-0.3604
		c0-0.1299,0.0498-0.2598,0.1499-0.3496c0.1699-0.1807,0.5103-0.1904,0.7002,0C5.79,12.3701,5.8398,12.5,5.8398,12.6299
		S5.79,12.8896,5.6997,12.9795C5.5898,13.0801,5.4697,13.1299,5.3398,13.1299z"/>
	<path d="M5.0698,11.0098c-0.1401,0-0.27-0.0601-0.3599-0.1499c-0.0903-0.0898-0.1401-0.2202-0.1401-0.3501
		c0-0.1401,0.0498-0.2598,0.1401-0.3599c0.1699-0.1802,0.52-0.1899,0.71,0c0.1001,0.1001,0.1499,0.23,0.1499,0.3599
		s-0.0498,0.25-0.1401,0.3501C5.3296,10.9497,5.1997,11.0098,5.0698,11.0098z"/>
	<path d="M3.1499,13.2402c-0.1299,0-0.2603-0.0605-0.3501-0.1504c-0.1001-0.0996-0.1499-0.2197-0.1499-0.3604
		c0-0.1299,0.0601-0.2598,0.1499-0.3496c0.1699-0.1797,0.52-0.1904,0.7002,0c0.0996,0.0898,0.1499,0.2197,0.1499,0.3496
		c0,0.1406-0.0503,0.2607-0.1401,0.3604C3.4097,13.1797,3.2798,13.2402,3.1499,13.2402z"/>
	<path d="M4.0698,9.3198c-0.1299,0-0.2598-0.0498-0.3501-0.1401c-0.1001-0.1099-0.1499-0.23-0.1499-0.3599
		c0-0.1401,0.0498-0.2598,0.1401-0.3599c0.1797-0.1802,0.52-0.1899,0.71,0c0.0898,0.1001,0.1499,0.23,0.1499,0.3599
		S4.52,9.0698,4.4297,9.1699C4.3198,9.27,4.1899,9.3198,4.0698,9.3198z"/>
	<path d="M4.0698,15.7803c-0.1299,0-0.2598-0.0605-0.3501-0.1504c-0.1001-0.0996-0.1499-0.2305-0.1499-0.3496
		c0-0.1309,0.0498-0.2607,0.1401-0.3506c0.1997-0.2002,0.5298-0.1895,0.71,0c0.0898,0.0801,0.1499,0.21,0.1499,0.3506
		c0,0.1299-0.0601,0.2598-0.1499,0.3496C4.3296,15.7197,4.1997,15.7803,4.0698,15.7803z"/>
	<path d="M2.6499,15.1895c-0.1299,0-0.2603-0.0498-0.3501-0.1396c-0.1001-0.0996-0.1499-0.2197-0.1499-0.3604
		c0-0.1299,0.0601-0.2598,0.1499-0.3496c0.1699-0.1797,0.52-0.1904,0.7002,0c0.0996,0.0898,0.1499,0.2197,0.1499,0.3496
		S3.0996,14.9502,3.0098,15.04C2.9097,15.1396,2.7798,15.1895,2.6499,15.1895z"/>
	<path d="M23.2861,13.1328c-0.0117,0-0.0234,0-0.0342-0.001c-0.2148-0.0146-0.3887-0.1621-0.4463-0.3564
		c-0.1074-0.0762-0.3672-0.1943-0.5879-0.2646c-0.2344-0.0742-0.3799-0.3076-0.3438-0.5503s0.2432-0.4238,0.4883-0.4263
		c0.0361-0.001,0.3916-0.0195,0.4287-0.2646c0.04-0.2725,0.2988-0.4561,0.5674-0.4209c0.2734,0.0405,0.4619,0.2949,0.4209,0.5684
		c-0.0391,0.2642-0.1445,0.4707-0.2832,0.6299c0.207,0.1836,0.3037,0.3906,0.2881,0.6191
		C23.7666,12.9307,23.5469,13.1328,23.2861,13.1328z"/>
</g>
<rect y="0.0197" fill="none" width="24" height="24"/>
</svg>
