<?xml version="1.0" encoding="utf-8"?>
<!-- Generator: Adobe Illustrator 18.1.0, SVG Export Plug-In . SVG Version: 6.00 Build 0)  -->
<svg version="1.1" id="Layer_1" xmlns="http://www.w3.org/2000/svg" xmlns:xlink="http://www.w3.org/1999/xlink" x="0px" y="0px"
	 width="24px" height="24px" viewBox="0 0 24 24" enable-background="new 0 0 24 24" xml:space="preserve">
<g>
	<path d="M14.8691,19H1.3037C0.5728,19,0,18.4727,0,17.7988V1.1899C0,0.5225,0.5728,0,1.3037,0h13.498
		C15.5068,0,16,0.4893,16,1.1899v14.1323c0,0.2764-0.2236,0.5-0.5,0.5s-0.5-0.2236-0.5-0.5V1.1899C15,1.0479,14.9502,1,14.8018,1
		H1.3037C1.1777,1,1,1.0591,1,1.1899v16.6089C1,17.9229,1.1577,18,1.3037,18h13.5654c0.2764,0,0.5,0.2236,0.5,0.5
		S15.1455,19,14.8691,19z"/>
	<path d="M13.9014,17H2.5C2.2236,17,2,16.7764,2,16.5v-14C2,2.2236,2.2236,2,2.5,2h11C13.7764,2,14,2.2236,14,2.5v10.2617
		c0,0.2764-0.2236,0.5-0.5,0.5s-0.5-0.2236-0.5-0.5V3H3v13h10.9014c0.2764,0,0.5,0.2236,0.5,0.5S14.1777,17,13.9014,17z"/>
	<path d="M21.9209,23.6143c-0.1318,0-0.2627-0.0518-0.3613-0.1543c-1.1553-1.2051-2.0234-2.1611-2.5801-2.8428
		c-1.1348-1.3896-1.0957-2.6475-1.0479-4.2412c0.0166-0.5498,0.0361-1.1592,0.0098-1.8564
		c-0.0928-2.5503-2.7012-4.3989-2.7275-4.417c-0.2266-0.1582-0.2822-0.4697-0.124-0.6963c0.1602-0.2275,0.4717-0.2808,0.6963-0.124
		c0.124,0.0869,3.0439,2.1577,3.1553,5.2002c0.0264,0.7227,0.0078,1.3545-0.0098,1.9248c-0.0469,1.5449-0.0752,2.4775,0.8232,3.5771
		c0.5312,0.6514,1.4053,1.6143,2.5273,2.7842c0.1904,0.1992,0.1836,0.5156-0.0156,0.707
		C22.1699,23.5684,22.0449,23.6143,21.9209,23.6143z"/>
	<path d="M17.2793,23.5986c-0.166,0-0.3291-0.083-0.4238-0.2354c-0.9434-1.5078-2.166-3.6406-2.6377-5.2383
		c-0.125-0.3945-1.8076-3.1582-2.1211-3.6543c-0.0107-0.0137-0.0215-0.0293-0.0303-0.0449
		c-0.2817-0.4668-0.3037-0.9863-0.0605-1.4268c0.2451-0.4434,0.7305-0.7363,1.2354-0.7461
		c0.4893-0.0107,0.9238,0.2412,1.1924,0.6855l1.8906,2.6875c0.1582,0.2256,0.1045,0.5371-0.1221,0.6963
		c-0.2236,0.1582-0.5371,0.1045-0.6963-0.1221l-1.9102-2.7168c-0.1035-0.168-0.209-0.2471-0.3359-0.2305
		c-0.1494,0.0029-0.3057,0.0967-0.3789,0.2295c-0.0684,0.124-0.0547,0.2676,0.041,0.4277l0,0
		c0.0234,0.0439,0.04,0.0908,0.0498,0.1377c0.7891,1.0449,2.1953,3.7627,2.2051,3.7949c0.4395,1.4883,1.6162,3.5352,2.5264,4.9912
		c0.1465,0.2334,0.0752,0.542-0.1592,0.6885C17.4619,23.5742,17.3701,23.5986,17.2793,23.5986z"/>
	<path d="M11.4355,5H9.5391c-0.2764,0-0.5-0.2236-0.5-0.5S9.2627,4,9.5391,4h1.8965c0.2764,0,0.5,0.2236,0.5,0.5
		S11.7119,5,11.4355,5z"/>
	<path d="M11.4355,7H9.5391c-0.2764,0-0.5-0.2236-0.5-0.5S9.2627,6,9.5391,6h1.8965c0.2764,0,0.5,0.2236,0.5,0.5
		S11.7119,7,11.4355,7z"/>
	<path d="M11.4355,5H9.5391c-0.2764,0-0.5-0.2236-0.5-0.5S9.2627,4,9.5391,4h1.8965c0.2764,0,0.5,0.2236,0.5,0.5
		S11.7119,5,11.4355,5z"/>
	<path d="M11.4355,9H9.5391c-0.2764,0-0.5-0.2236-0.5-0.5S9.2627,8,9.5391,8h1.8965c0.2764,0,0.5,0.2236,0.5,0.5
		S11.7119,9,11.4355,9z"/>
	<path d="M11.5,11h-7C4.2236,11,4,10.7764,4,10.5S4.2236,10,4.5,10h7c0.2764,0,0.5,0.2236,0.5,0.5S11.7764,11,11.5,11z"/>
	<path d="M10.4873,13H4.5C4.2236,13,4,12.7764,4,12.5S4.2236,12,4.5,12h5.9873c0.2764,0,0.5,0.2236,0.5,0.5S10.7637,13,10.4873,13z"
		/>
	<path d="M8,18c-0.1304,0-0.25-0.0498-0.3501-0.1406C7.5498,17.75,7.5,17.6299,7.5,17.5s0.0498-0.2598,0.1396-0.3506
		c0.2002-0.1895,0.5303-0.1895,0.7202,0C8.4497,17.2402,8.5,17.3701,8.5,17.5s-0.0503,0.2598-0.1504,0.3496
		C8.2598,17.9502,8.1299,18,8,18z"/>
	<path d="M7.5,9h-3C4.2236,9,4,8.7764,4,8.5v-4C4,4.2236,4.2236,4,4.5,4h3C7.7764,4,8,4.2236,8,4.5v4C8,8.7764,7.7764,9,7.5,9z M5,8
		h2V5H5V8z"/>
</g>
<rect fill="none" width="24" height="24"/>
</svg>
