<?xml version="1.0" encoding="utf-8"?>
<!-- Generator: Adobe Illustrator 18.1.0, SVG Export Plug-In . SVG Version: 6.00 Build 0)  -->
<svg version="1.1" id="Layer_1" xmlns="http://www.w3.org/2000/svg" xmlns:xlink="http://www.w3.org/1999/xlink" x="0px" y="0px"
	 width="24px" height="24px" viewBox="0 0 24 24" enable-background="new 0 0 24 24" xml:space="preserve">
<g>
	<path d="M12.0049,17.0205c-0.2764,0-0.5-0.2236-0.5-0.5V7.6797c-5.4746-2.915-7.9434,1.2183-8.0474,1.3984
		C3.3188,9.3179,3.0127,9.3989,2.7744,9.2612C2.5352,9.123,2.4531,8.8174,2.5913,8.5781C2.6226,8.5244,5.748,3.2852,12.25,6.9482
		c0.1572,0.0884,0.2549,0.2549,0.2549,0.4355v9.1367C12.5049,16.7969,12.2812,17.0205,12.0049,17.0205z"/>
	<path d="M20.1162,20.0361H3.8945c-0.1606,0-0.3115-0.0771-0.4053-0.208c-0.0942-0.1299-0.1196-0.2979-0.0693-0.4502
		c0.3486-1.0488,1.0669-4.0977,0.2153-5.5918c-0.2485-0.4355-0.6108-0.7051-1.106-0.8242
		c-1.2539-0.0312-2.2642-1.0615-2.2642-2.3232c0-1.2817,1.0425-2.3242,2.3237-2.3242c0.0005,0,0.001,0,0.002,0
		c0.3452,0,1.9863,0.0757,3.1729,1.5195c1.1094,1.3501,1.4414,3.4297,0.9888,6.1865h10.5054
		c-0.4521-2.7568-0.1201-4.8364,0.9893-6.1865c1.1885-1.4463,2.833-1.52,3.1514-1.52c1.3047,0.0005,2.3467,1.043,2.3467,2.3247
		c0,1.2617-1.0098,2.292-2.2637,2.3232c-0.4961,0.1191-0.8584,0.3887-1.1064,0.8252c-0.8525,1.4971-0.1338,4.5439,0.2158,5.5908
		c0.0508,0.1523,0.0254,0.3203-0.0693,0.4502C20.4277,19.959,20.2773,20.0361,20.1162,20.0361z M4.5615,19.0361h14.8877
		c-0.3369-1.2676-0.9043-4.0576,0.0566-5.7441c0.3994-0.7002,1.0088-1.1445,1.8105-1.3179
		c0.0342-0.0073,0.0703-0.0112,0.1055-0.0112c0.7295,0,1.3232-0.5942,1.3232-1.3242s-0.5938-1.3242-1.3232-1.3242
		c-0.1982,0.0249-1.4785,0.0298-2.4023,1.1548c-0.9756,1.1865-1.208,3.2456-0.6729,5.9546
		c0.0293,0.1465-0.0088,0.2988-0.1035,0.4141c-0.0957,0.1152-0.2373,0.1826-0.3867,0.1826H6.1538
		c-0.1494,0-0.2915-0.0674-0.3862-0.1826c-0.0952-0.1152-0.1333-0.2676-0.1045-0.4141c0.5356-2.709,0.3032-4.7681-0.6719-5.9546
		C4.0688,9.3467,2.7588,9.314,2.6128,9.314c-0.7539,0.0005-1.3477,0.5947-1.3477,1.3247s0.5938,1.3242,1.3237,1.3242
		c0.0356,0,0.0713,0.0039,0.106,0.0112c0.8013,0.1733,1.4102,0.6167,1.8096,1.3179C5.4653,14.9785,4.8979,17.7686,4.5615,19.0361z"
		/>
	<path d="M12.0049,17.0205c-0.2764,0-0.5-0.2236-0.5-0.5V7.3838c0-0.1807,0.0972-0.3472,0.2549-0.4355
		c6.501-3.6611,9.6289,1.5767,9.6592,1.6299c0.1377,0.2388,0.0566,0.543-0.1816,0.6816c-0.2412,0.1392-0.5439,0.0566-0.6836-0.1802
		c-0.1035-0.1797-2.5967-4.3003-8.0488-1.3994v8.8403C12.5049,16.7969,12.2812,17.0205,12.0049,17.0205z"/>
	<path d="M18.5449,23h-2.0498c-0.2764,0-0.5-0.2236-0.5-0.5v-1.0703c0-0.2764,0.2236-0.5,0.5-0.5s0.5,0.2236,0.5,0.5V22h1.0498
		v-0.5703c0-0.2764,0.2236-0.5,0.5-0.5s0.5,0.2236,0.5,0.5V22.5C19.0449,22.7764,18.8213,23,18.5449,23z"/>
	<path d="M7.5439,23H5.4946c-0.2764,0-0.5-0.2236-0.5-0.5v-1.0703c0-0.2764,0.2236-0.5,0.5-0.5s0.5,0.2236,0.5,0.5V22h1.0493
		v-0.5703c0-0.2764,0.2236-0.5,0.5-0.5s0.5,0.2236,0.5,0.5V22.5C8.0439,22.7764,7.8203,23,7.5439,23z"/>
</g>
<rect x="0.0142" y="0.0354" fill="none" width="24" height="24"/>
</svg>
