<?xml version="1.0" encoding="utf-8"?>
<!-- Generator: Adobe Illustrator 18.1.0, SVG Export Plug-In . SVG Version: 6.00 Build 0)  -->
<svg version="1.1" id="Layer_1" xmlns="http://www.w3.org/2000/svg" xmlns:xlink="http://www.w3.org/1999/xlink" x="0px" y="0px"
	 width="24px" height="24px" viewBox="0 0 24 24" enable-background="new 0 0 24 24" xml:space="preserve">
<g>
	<path d="M5.0005,14h-0.5c-0.2764,0-0.5-0.2236-0.5-0.5v-1h-0.5c-0.2764,0-0.5-0.2236-0.5-0.5v-1c0-0.2764,0.2236-0.5,0.5-0.5h0.5
		v-1c0-0.2764,0.2236-0.5,0.5-0.5h0.5c0.2764,0,0.5,0.2236,0.5,0.5s-0.2236,0.5-0.5,0.5v1c0,0.2764-0.2236,0.5-0.5,0.5h-0.5h0.5
		c0.2764,0,0.5,0.2236,0.5,0.5v1c0.2764,0,0.5,0.2236,0.5,0.5S5.2769,14,5.0005,14z"/>
	<path d="M18.501,14h-0.5c-0.2764,0-0.5-0.2236-0.5-0.5s0.2236-0.5,0.5-0.5v-1c0-0.2764,0.2236-0.5,0.5-0.5
		c-0.2764,0-0.5-0.2236-0.5-0.5v-1c-0.2764,0-0.5-0.2236-0.5-0.5s0.2236-0.5,0.5-0.5h0.5c0.2764,0,0.5,0.2236,0.5,0.5v1h0.5
		c0.2764,0,0.5,0.2236,0.5,0.5v1c0,0.2764-0.2236,0.5-0.5,0.5h-0.5v1C19.001,13.7764,18.7773,14,18.501,14z"/>
	<path d="M16.9521,24c-0.0049,0.001-0.0127,0.001-0.0195,0H6.0894c-0.2764,0-0.5-0.2236-0.5-0.5c0-1.332,1.125-2.5,2.4077-2.5
		h0.0034v-7h-1.5c-0.2764,0-0.5-0.2236-0.5-0.5v-4c0-0.2764,0.2236-0.5,0.5-0.5h1.5V8h-0.5c-0.2764,0-0.5-0.2236-0.5-0.5v-2
		c0-0.2764,0.2236-0.5,0.5-0.5h0.5V4.6797c0-1.6929,0.8525-3.27,2-3.8066V0.5c0-0.2764,0.2236-0.5,0.5-0.5h2.0005
		c0.2764,0,0.5,0.2236,0.5,0.5v0.373c1.1475,0.5366,2,2.1138,2,3.8066V5h0.5c0.2764,0,0.5,0.2236,0.5,0.5v2
		c0,0.2764-0.2236,0.5-0.5,0.5h-0.5v1h1.5c0.2764,0,0.5,0.2236,0.5,0.5v4c0,0.2764-0.2236,0.5-0.5,0.5h-1.5l0.0234,7
		c1.2324,0,2.3193,1.0771,2.4033,2.3428c0.0156,0.0498,0.0244,0.1025,0.0244,0.1572C17.4521,23.7764,17.2285,24,16.9521,24z
		 M6.687,23h9.6479c-0.2041-0.5303-0.7051-1-1.3105-1H14.501c-0.2764,0-0.5-0.2236-0.5-0.5v-8c0-0.2764,0.2236-0.5,0.5-0.5h1.5v-3
		h-1.5c-0.2764,0-0.5-0.2236-0.5-0.5v-2c0-0.2764,0.2236-0.5,0.5-0.5h0.5V6h-0.5c-0.2764,0-0.5-0.2236-0.5-0.5V4.6797
		c0-1.5107-0.8555-2.7788-1.6221-2.9727c-0.2227-0.0562-0.3779-0.2559-0.3779-0.4849V1h-1.0005v0.2222
		c0,0.229-0.1558,0.4287-0.3774,0.4849C9.8555,1.9009,9.0005,3.1689,9.0005,4.6797V5.5c0,0.2764-0.2236,0.5-0.5,0.5h-0.5v1h0.5
		c0.2764,0,0.5,0.2236,0.5,0.5v2c0,0.2764-0.2236,0.5-0.5,0.5h-1.5v3h1.5c0.2764,0,0.5,0.2236,0.5,0.5v8
		c0,0.2764-0.2236,0.5-0.5,0.5H7.9971C7.3921,22,6.8906,22.4697,6.687,23z"/>
	<path d="M14.501,6H8.5005c-0.2764,0-0.5-0.2236-0.5-0.5S8.2241,5,8.5005,5h6.0005c0.2764,0,0.5,0.2236,0.5,0.5S14.7773,6,14.501,6z
		"/>
	<path d="M14.501,8H8.5005c-0.2764,0-0.5-0.2236-0.5-0.5S8.2241,7,8.5005,7h6.0005c0.2764,0,0.5,0.2236,0.5,0.5S14.7773,8,14.501,8z
		"/>
</g>
<rect x="0.0005" fill="none" width="24" height="24"/>
</svg>
