<?xml version="1.0" encoding="utf-8"?>
<!-- Generator: Adobe Illustrator 18.1.0, SVG Export Plug-In . SVG Version: 6.00 Build 0)  -->
<svg version="1.1" id="Layer_1" xmlns="http://www.w3.org/2000/svg" xmlns:xlink="http://www.w3.org/1999/xlink" x="0px" y="0px"
	 width="24px" height="24px" viewBox="0 0 24 24" enable-background="new 0 0 24 24" xml:space="preserve">
<g>
	<path d="M11.998,16.6621c-2.563,0-4.6479-2.085-4.6479-4.6475c0-2.563,2.085-4.6479,4.6479-4.6479
		c2.5625,0,4.6475,2.085,4.6475,4.6479C16.6455,14.5771,14.5605,16.6621,11.998,16.6621z M11.998,8.3667
		c-2.0117,0-3.6479,1.6362-3.6479,3.6479c0,2.0107,1.6362,3.6475,3.6479,3.6475c2.0107,0,3.6475-1.6367,3.6475-3.6475
		C15.6455,10.0029,14.0088,8.3667,11.998,8.3667z"/>
	<path d="M11.9961,23.7129c-0.5317,0-1.0576-0.0361-1.6084-0.1123c-0.2236-0.0303-0.3984-0.207-0.4277-0.4307l-0.3535-2.6992
		c-0.6577-0.1846-1.291-0.4473-1.8896-0.7822l-2.1606,1.6602c-0.1787,0.1367-0.4268,0.1387-0.606,0.0029
		c-0.8496-0.6416-1.6396-1.4316-2.2847-2.2842c-0.1362-0.1797-0.1353-0.4277,0.002-0.6064l1.6602-2.1592
		c-0.3359-0.5986-0.5991-1.2324-0.7852-1.8916l-2.6997-0.3535c-0.2231-0.0293-0.3994-0.2051-0.4302-0.4277
		c-0.1479-1.0713-0.1479-2.1572,0-3.229c0.0308-0.2231,0.207-0.3979,0.4302-0.4272l2.6997-0.3535
		C3.7285,8.96,3.9917,8.3257,4.3276,7.7271L2.6675,5.5679c-0.1372-0.1787-0.1382-0.4268-0.002-0.6064
		c0.644-0.8511,1.4341-1.6406,2.2842-2.2837C5.1289,2.542,5.3774,2.5435,5.5562,2.6802l2.1606,1.6602
		c0.5977-0.3345,1.231-0.5967,1.8896-0.7827L9.96,0.8589c0.0293-0.2231,0.2041-0.3994,0.4272-0.4302
		c1.105-0.1523,2.1245-0.1514,3.23,0.001c0.2236,0.0308,0.3984,0.207,0.4277,0.4302l0.3535,2.7002
		c0.6562,0.186,1.2881,0.4482,1.8857,0.7832l2.1602-1.6602c0.1787-0.1372,0.4277-0.1382,0.6064-0.002
		c0.8623,0.6528,1.6318,1.4219,2.2842,2.2852c0.1357,0.1797,0.1348,0.4282-0.002,0.6064l-1.6611,2.1606
		c0.334,0.5977,0.5967,1.2295,0.7812,1.8848l2.6992,0.3535c0.2236,0.0288,0.3994,0.2041,0.4307,0.4268
		c0.1533,1.1016,0.1533,2.1279,0,3.2314c-0.0303,0.2236-0.207,0.3984-0.4297,0.4277l-2.7002,0.3535
		c-0.1846,0.6543-0.4463,1.2861-0.7803,1.8838l1.6602,2.1611c0.1367,0.1787,0.1377,0.4268,0.002,0.6064
		c-0.6533,0.8643-1.4229,1.6338-2.2842,2.2852c-0.1787,0.1348-0.4277,0.1367-0.6064-0.002l-2.1602-1.6602
		c-0.5977,0.335-1.2295,0.5967-1.8857,0.7832l-0.3535,2.7002c-0.0293,0.2227-0.2041,0.3984-0.4277,0.4297
		C13.0635,23.6758,12.5332,23.7129,11.9961,23.7129z M10.9009,22.6562c0.7456,0.0762,1.4595,0.0781,2.2026-0.002l0.3467-2.6494
		c0.0273-0.2051,0.1777-0.3721,0.3789-0.4209c0.7871-0.1895,1.5381-0.501,2.2314-0.9268c0.1768-0.1074,0.4014-0.0957,0.5664,0.0303
		l2.1191,1.6289c0.5703-0.4648,1.0918-0.9863,1.5576-1.5586l-1.6289-2.1201c-0.126-0.1641-0.1377-0.3887-0.0303-0.5654
		c0.4248-0.6953,0.7354-1.4453,0.9238-2.2295c0.0488-0.2021,0.2158-0.3525,0.4209-0.3799l2.6494-0.3467
		c0.0781-0.7451,0.0781-1.46,0-2.2036l-2.6484-0.3467c-0.2061-0.0269-0.373-0.1777-0.4219-0.3789
		c-0.1885-0.7852-0.499-1.5356-0.9248-2.231c-0.1074-0.1763-0.0957-0.4014,0.0303-0.5654l1.6299-2.1196
		c-0.4648-0.5713-0.9873-1.0933-1.5576-1.5581L16.627,5.3413c-0.165,0.1255-0.3896,0.1377-0.5664,0.0298
		c-0.6934-0.4253-1.4443-0.7368-2.2314-0.9263c-0.2012-0.0488-0.3516-0.2163-0.3789-0.4214L13.1035,1.374
		c-0.7432-0.0776-1.458-0.0786-2.2026-0.0005L10.5542,4.021c-0.0269,0.2051-0.1772,0.373-0.3789,0.4214
		C9.3857,4.6318,8.6338,4.9438,7.9399,5.3682C7.7637,5.4766,7.5391,5.4653,7.374,5.3384L5.2549,3.71
		C4.689,4.1709,4.1592,4.7007,3.6973,5.2666l1.6284,2.1182c0.1265,0.1641,0.1382,0.3896,0.0298,0.5664
		C4.9292,8.6455,4.6167,9.3979,4.4272,10.188c-0.0483,0.2017-0.2163,0.3521-0.4214,0.3789l-2.6479,0.3467
		c-0.0752,0.7324-0.0752,1.4702,0,2.2017l2.6479,0.3467c0.2056,0.0273,0.373,0.1777,0.4214,0.3789
		c0.1895,0.79,0.502,1.542,0.9282,2.2373c0.1084,0.1768,0.0962,0.4023-0.0298,0.5664l-1.6284,2.1182
		c0.4624,0.5664,0.9922,1.0957,1.5571,1.5566l2.1196-1.6289c0.165-0.125,0.3896-0.1367,0.5659-0.0303
		c0.6953,0.4258,1.4473,0.7373,2.2349,0.9258c0.2017,0.0479,0.3525,0.2158,0.3794,0.4219L10.9009,22.6562z"/>
</g>
<rect fill="none" width="24" height="24"/>
</svg>
