<?xml version="1.0" encoding="utf-8"?>
<!-- Generator: Adobe Illustrator 18.1.0, SVG Export Plug-In . SVG Version: 6.00 Build 0)  -->
<svg version="1.1" id="Layer_1" xmlns="http://www.w3.org/2000/svg" xmlns:xlink="http://www.w3.org/1999/xlink" x="0px" y="0px"
	 width="24px" height="24px" viewBox="0 0 24 24" enable-background="new 0 0 24 24" xml:space="preserve">
<g>
	<path d="M3.0308,23.8975c-1.6055,0-2.9116-1.3125-2.9116-2.9248s1.3062-2.9248,2.9116-2.9248s2.9116,1.3125,2.9116,2.9248
		S4.6362,23.8975,3.0308,23.8975z M3.0308,19.0479c-1.0542,0-1.9116,0.8633-1.9116,1.9248s0.8574,1.9248,1.9116,1.9248
		s1.9116-0.8633,1.9116-1.9248S4.085,19.0479,3.0308,19.0479z"/>
	<path d="M11.5112,23.8975c-1.6055,0-2.9116-1.3125-2.9116-2.9248s1.3062-2.9248,2.9116-2.9248c1.606,0,2.9116,1.3125,2.9116,2.9248
		S13.1172,23.8975,11.5112,23.8975z M11.5112,19.0479c-1.0542,0-1.9116,0.8633-1.9116,1.9248s0.8574,1.9248,1.9116,1.9248
		s1.9116-0.8633,1.9116-1.9248S12.5654,19.0479,11.5112,19.0479z"/>
	<path d="M20.1582,23.8975c-1.6055,0-2.9111-1.3125-2.9111-2.9248s1.3057-2.9248,2.9111-2.9248s2.9121,1.3125,2.9121,2.9248
		S21.7637,23.8975,20.1582,23.8975z M20.1582,19.0479c-1.0537,0-1.9111,0.8633-1.9111,1.9248s0.8574,1.9248,1.9111,1.9248
		c1.0547,0,1.9121-0.8633,1.9121-1.9248S21.2129,19.0479,20.1582,19.0479z"/>
	<path d="M11.5112,19.0479c-0.2764,0-0.5-0.2236-0.5-0.5V5.5063c0-0.2764,0.2236-0.5,0.5-0.5s0.5005,0.2236,0.5005,0.5v13.0415
		C12.0117,18.8242,11.7876,19.0479,11.5112,19.0479z"/>
	<path d="M4.6226,19.6533c-0.1128,0-0.2266-0.0381-0.3198-0.1162c-0.2124-0.1768-0.2402-0.4922-0.0635-0.7041l6.8882-8.2461
		c0.0938-0.1123,0.2314-0.1777,0.3774-0.1797c0.1484,0.0093,0.2856,0.0605,0.3818,0.1694l7.1729,8.1499
		c0.1826,0.207,0.1631,0.5225-0.0449,0.7051c-0.207,0.1836-0.5234,0.1621-0.7051-0.0449l-6.7886-7.7114l-6.5142,7.7983
		C4.9077,19.5918,4.7656,19.6533,4.6226,19.6533z"/>
	<path d="M11.5112,6.0063c-1.6055,0-2.9116-1.312-2.9116-2.9248s1.3062-2.9248,2.9116-2.9248c1.606,0,2.9116,1.312,2.9116,2.9248
		S13.1172,6.0063,11.5112,6.0063z M11.5112,1.1567c-1.0542,0-1.9116,0.8633-1.9116,1.9248s0.8574,1.9248,1.9116,1.9248
		s1.9116-0.8633,1.9116-1.9248S12.5654,1.1567,11.5112,1.1567z"/>
	<path fill="none" stroke="#000000" stroke-linecap="round" stroke-linejoin="round" stroke-miterlimit="10" d="M11.5112,5.5062"/>
	<path fill="none" stroke="#000000" stroke-linecap="round" stroke-linejoin="round" stroke-miterlimit="10" d="M11.5112,10.9074"/>
</g>
<rect fill="none" width="24" height="24"/>
</svg>
