<?xml version="1.0" encoding="utf-8"?>
<!-- Generator: Adobe Illustrator 18.1.0, SVG Export Plug-In . SVG Version: 6.00 Build 0)  -->
<svg version="1.1" id="Layer_1" xmlns="http://www.w3.org/2000/svg" xmlns:xlink="http://www.w3.org/1999/xlink" x="0px" y="0px"
	 width="24px" height="24px" viewBox="0 0 24 24" enable-background="new 0 0 24 24" xml:space="preserve">
<g>
	<path d="M14.7529,19.6592c-0.1318,0-0.2637-0.0518-0.3613-0.1543c-2.0527-2.1504-3.6113-4.7051-3.9473-5.7227L8.5659,8.0986
		C8.3442,7.4292,8.4648,6.7671,8.8965,6.2827c0.4385-0.4922,1.1362-0.7256,1.7783-0.5923c0.6143,0.1274,1.0879,0.5669,1.2993,1.2061
		l1.314,3.8149c0.0166,0.0474,0.0576,0.0894,0.1113,0.1123c0.5137,0.2212,0.9004,0.2568,1.0576,0.1021
		c0.2529-0.249,0.2676-1.1289-0.2021-2.2705c-0.416-1.0137-1.5283-2.1294-2.1494-2.564c-0.2261-0.1587-0.2808-0.4702-0.1226-0.6968
		c0.1587-0.2261,0.4702-0.2798,0.6968-0.1226c0.6875,0.4819,1.9746,1.7231,2.501,3.0029c0.2295,0.5581,0.9062,2.4502-0.0225,3.3633
		c-0.3311,0.3271-0.9746,0.6118-2.1533,0.1045c-0.3135-0.1343-0.5547-0.3921-0.6621-0.7065l-1.3159-3.8198
		c-0.1011-0.3052-0.292-0.4922-0.5547-0.5464c-0.2939-0.062-0.6274,0.0508-0.8291,0.2778C9.4502,7.1646,9.4058,7.4541,9.5151,7.7847
		l1.8784,5.6831c0.2627,0.7949,1.7305,3.2607,3.7207,5.3457c0.1914,0.2002,0.1836,0.5166-0.0156,0.707
		C15.001,19.6133,14.877,19.6592,14.7529,19.6592z"/>
	<path d="M16.0664,23.7637c-0.1582,0-0.3145-0.0752-0.4111-0.2158l-2.3418-3.3945c-0.0762-0.1094-0.1045-0.2441-0.0811-0.374
		c0.0244-0.1309,0.0996-0.2461,0.208-0.3213l6.3545-4.3828c0.1084-0.0771,0.2451-0.1025,0.374-0.0811
		c0.1309,0.0244,0.2461,0.0996,0.3213,0.208l2.3418,3.3955c0.0762,0.1094,0.1045,0.2441,0.0811,0.375
		c-0.0244,0.1299-0.0996,0.2451-0.208,0.3213l-6.3545,4.3809C16.2637,23.7354,16.165,23.7637,16.0664,23.7637z M14.4199,19.9971
		l1.7744,2.5713l5.5312-3.8145l-1.7744-2.5723L14.4199,19.9971z"/>
	<path d="M8.0679,9.9634c-2.6812,0-4.8628-2.1816-4.8628-4.8633s2.1816-4.8633,4.8628-4.8633c2.6821,0,4.8638,2.1816,4.8638,4.8633
		c0,1.1885-0.5928,2.271-0.8477,2.6812c-0.1455,0.2354-0.4541,0.3062-0.6885,0.1611c-0.2349-0.146-0.3066-0.4541-0.1611-0.6885
		c0.4365-0.7026,0.6973-1.5078,0.6973-2.1538c0-2.1304-1.7334-3.8633-3.8638-3.8633c-2.1299,0-3.8628,1.7329-3.8628,3.8633
		S5.938,8.9634,8.0679,8.9634c0.3667,0,0.8335-0.0781,1.2476-0.209c0.2661-0.0854,0.5449,0.063,0.6274,0.3257
		c0.0835,0.2637-0.0625,0.5444-0.3257,0.6274C9.103,9.8701,8.5386,9.9634,8.0679,9.9634z"/>
	<path d="M18.9648,16.748c-0.084,0-0.168-0.0195-0.2422-0.0586c-0.2988-0.1582-0.6074-0.3223-0.5625-6.1499
		c0.043-5.5137-7.0186-7.9487-7.0898-7.9727c-0.2617-0.0879-0.4028-0.3711-0.3154-0.6328c0.0884-0.2617,0.3716-0.4019,0.6328-0.3154
		c0.3193,0.1064,7.8203,2.6855,7.7725,8.9287c-0.0312,4.0767,0.1279,5.1226,0.1924,5.3765c0.0117,0.0137,0.0215,0.0273,0.0322,0.041
		c0.1562,0.2275,0.0986,0.5391-0.1279,0.6963C19.1719,16.7188,19.0684,16.748,18.9648,16.748z"/>
</g>
<rect x="-0.0136" fill="none" width="24" height="24"/>
</svg>
