<?xml version="1.0" encoding="utf-8"?>
<!-- Generator: Adobe Illustrator 18.1.0, SVG Export Plug-In . SVG Version: 6.00 Build 0)  -->
<svg version="1.1" id="Layer_1" xmlns="http://www.w3.org/2000/svg" xmlns:xlink="http://www.w3.org/1999/xlink" x="0px" y="0px"
	 width="24px" height="24px" viewBox="0 0 24 24" enable-background="new 0 0 24 24" xml:space="preserve">
<g>
	<path d="M12.0117,23.8848c-6.5518,0-11.8823-5.3301-11.8823-11.8818c0-6.5522,5.3306-11.8828,11.8823-11.8828
		s11.8818,5.3306,11.8818,11.8828C23.8936,18.5547,18.5635,23.8848,12.0117,23.8848z M12.0117,1.1201
		c-6.0005,0-10.8823,4.8818-10.8823,10.8828c0,6,4.8818,10.8818,10.8823,10.8818c6,0,10.8818-4.8818,10.8818-10.8818
		C22.8936,6.002,18.0117,1.1201,12.0117,1.1201z"/>
	<path d="M10.3921,16.9941c-0.1519,0-0.2954-0.0693-0.3906-0.1875l-3.3184-4.1494c-0.1724-0.2158-0.1372-0.5303,0.0781-0.7031
		c0.2158-0.1729,0.5298-0.1362,0.7031,0.0781l2.9277,3.6611l6.7554-8.4458c0.1729-0.2148,0.4863-0.25,0.7031-0.0781
		c0.2158,0.1729,0.25,0.4873,0.0781,0.7031l-7.146,8.9341C10.6875,16.9248,10.5439,16.9941,10.3921,16.9941z"/>
</g>
<rect y="0.001" fill="none" width="24" height="24"/>
</svg>
