<?xml version="1.0" encoding="utf-8"?>
<!-- Generator: Adobe Illustrator 18.1.0, SVG Export Plug-In . SVG Version: 6.00 Build 0)  -->
<svg version="1.1" id="Layer_1" xmlns="http://www.w3.org/2000/svg" xmlns:xlink="http://www.w3.org/1999/xlink" x="0px" y="0px"
	 width="24px" height="24px" viewBox="0 0 24 24" enable-background="new 0 0 24 24" xml:space="preserve">
<g>
	<path d="M21.4258,14h-4.9395c-0.2764,0-0.5-0.2236-0.5-0.5s0.2236-0.5,0.5-0.5h4.9395c0.2764,0,0.5,0.2236,0.5,0.5
		S21.7021,14,21.4258,14z"/>
	<path d="M19.5498,20.9502c-0.1299,0-0.25-0.0508-0.3496-0.1406c-0.0908-0.0996-0.1406-0.2295-0.1406-0.3594
		c0-0.1309,0.0498-0.2607,0.1406-0.3506c0.1797-0.1895,0.5098-0.2002,0.71-0.0098c0.0898,0.1104,0.1396,0.2295,0.1396,0.3604
		c0,0.1299-0.0498,0.25-0.1396,0.3496C19.8096,20.8994,19.6797,20.9502,19.5498,20.9502z"/>
	<path d="M6.5498,20.9502c-0.1201,0-0.25-0.0508-0.3501-0.1406c-0.1001-0.1094-0.1499-0.2295-0.1499-0.3594
		c0-0.1309,0.0498-0.25,0.1401-0.3506c0.1997-0.2002,0.5298-0.1895,0.7197-0.0098C7,20.1895,7.0498,20.3193,7.0498,20.4502
		c0,0.1299-0.0498,0.2598-0.1401,0.3496C6.8101,20.8994,6.6797,20.9502,6.5498,20.9502z"/>
	<path d="M4.5288,20.9492H3.0781c-0.2764,0-0.5-0.2236-0.5-0.5V18.999H2.4707c-0.2764,0-0.5-0.2236-0.5-0.5v-1.9512
		c0-0.2764,0.2236-0.5,0.5-0.5s0.5,0.2236,0.5,0.5v1.4512h0.1074c0.2764,0,0.5,0.2236,0.5,0.5v1.4502h0.9507
		c0.2764,0,0.5,0.2236,0.5,0.5S4.8052,20.9492,4.5288,20.9492z"/>
	<path d="M23.4951,20.999h-1.9863c-0.2764,0-0.5-0.2236-0.5-0.5s0.2236-0.5,0.5-0.5h1.4863v-4.6943
		c0-0.1748-0.0928-0.3398-0.2432-0.4297l-1.583-0.9463c-0.0967-0.0576-0.1719-0.1475-0.2119-0.2529l-1.75-4.6768H2.9956v1.5273
		c0,0.2764-0.2236,0.5-0.5,0.5s-0.5-0.2236-0.5-0.5V8.499c0-0.2764,0.2236-0.5,0.5-0.5h17.0581c0.209,0,0.3955,0.1294,0.4688,0.3247
		l1.8105,4.8374l1.4326,0.8564c0.4502,0.2695,0.7295,0.7627,0.7295,1.2871v5.1943C23.9951,20.7754,23.7715,20.999,23.4951,20.999z"
		/>
	<path d="M17.5996,21.0117H8.438c-0.2764,0-0.5-0.2236-0.5-0.5s0.2236-0.5,0.5-0.5h9.1616c0.2764,0,0.5,0.2236,0.5,0.5
		S17.876,21.0117,17.5996,21.0117z"/>
	<path d="M19.5537,22.9043c-1.3535,0-2.4541-1.1016-2.4541-2.4551s1.1006-2.4541,2.4541-2.4541s2.4551,1.1006,2.4551,2.4541
		S20.9072,22.9043,19.5537,22.9043z M19.5537,18.9951c-0.8018,0-1.4541,0.6523-1.4541,1.4541c0,0.8027,0.6523,1.4551,1.4541,1.4551
		c0.8027,0,1.4551-0.6523,1.4551-1.4551C21.0088,19.6475,20.3564,18.9951,19.5537,18.9951z"/>
	<path d="M6.4834,22.9043c-1.3535,0-2.4546-1.1016-2.4546-2.4551s1.1011-2.4541,2.4546-2.4541s2.4546,1.1006,2.4546,2.4541
		S7.8369,22.9043,6.4834,22.9043z M6.4834,18.9951c-0.8022,0-1.4546,0.6523-1.4546,1.4541c0,0.8027,0.6523,1.4551,1.4546,1.4551
		S7.938,21.252,7.938,20.4492C7.938,19.6475,7.2856,18.9951,6.4834,18.9951z"/>
	<path d="M3.5288,15.0117h-2c-0.2764,0-0.5-0.2236-0.5-0.5s0.2236-0.5,0.5-0.5h2c0.2764,0,0.5,0.2236,0.5,0.5
		S3.8052,15.0117,3.5288,15.0117z"/>
	<path d="M4.5288,13.0117h-4c-0.2764,0-0.5-0.2236-0.5-0.5s0.2236-0.5,0.5-0.5h4c0.2764,0,0.5,0.2236,0.5,0.5
		S4.8052,13.0117,4.5288,13.0117z"/>
	<path d="M23.4834,18.9951H3.0781c-0.2764,0-0.5-0.2236-0.5-0.5s0.2236-0.5,0.5-0.5h20.4053c0.2764,0,0.5,0.2236,0.5,0.5
		S23.7598,18.9951,23.4834,18.9951z"/>
	<path d="M16.4951,18.9512c-0.2764,0-0.5-0.2236-0.5-0.5v-9.897c0-0.2764,0.2236-0.5,0.5-0.5s0.5,0.2236,0.5,0.5v9.897
		C16.9951,18.7275,16.7715,18.9512,16.4951,18.9512z"/>
</g>
<rect x="-0.0136" y="0.0002" fill="none" width="24" height="24"/>
</svg>
