<?xml version="1.0" encoding="utf-8"?>
<!-- Generator: Adobe Illustrator 18.1.0, SVG Export Plug-In . SVG Version: 6.00 Build 0)  -->
<svg version="1.1" id="Layer_1" xmlns="http://www.w3.org/2000/svg" xmlns:xlink="http://www.w3.org/1999/xlink" x="0px" y="0px"
	 width="24px" height="24px" viewBox="0 0 24 24" enable-background="new 0 0 24 24" xml:space="preserve">
<g>
	<path d="M22.4863,24h-21c-0.2764,0-0.5-0.2236-0.5-0.5v-12c0-0.2764,0.2236-0.5,0.5-0.5h21c0.2764,0,0.5,0.2236,0.5,0.5v12
		C22.9863,23.7764,22.7627,24,22.4863,24z M1.9863,23h20V12h-20V23z"/>
	<g>
		<path d="M8.7046,12H5.1074c-0.1963,0-0.3745-0.1152-0.4556-0.2939c-0.0811-0.1792-0.0498-0.3887,0.0801-0.5361l3.519-4
			C8.3462,7.062,8.4829,7,8.6265,7h3.5972c0.1963,0,0.375,0.1152,0.4561,0.2939c0.0801,0.1792,0.0488,0.3887-0.0811,0.5361
			l-3.5186,4C8.9849,11.938,8.8481,12,8.7046,12z M6.2134,11h2.2651l2.6392-3H8.8525L6.2134,11z"/>
		<path d="M1.4863,11.8379c-0.061,0-0.123-0.0112-0.1821-0.0342c-0.1919-0.0752-0.3179-0.2598-0.3179-0.4658V7.5
			c0-0.2764,0.2236-0.5,0.5-0.5h3.5435c0.1987,0,0.3784,0.1177,0.458,0.2993c0.0796,0.1821,0.0439,0.394-0.0908,0.54l-3.5435,3.8379
			C1.7573,11.7817,1.623,11.8379,1.4863,11.8379z M1.9863,8v2.0591L3.8877,8H1.9863z"/>
		<path d="M5.1074,12H1.4863c-0.2764,0-0.5-0.2236-0.5-0.5v-0.1621c0-0.1255,0.0474-0.2466,0.1328-0.3394l3.5435-3.8379
			C4.7568,7.0581,4.8901,7,5.0298,7h3.5967C8.8228,7,9.001,7.1152,9.082,7.2939C9.1631,7.4731,9.1318,7.6826,9.002,7.8301l-3.519,4
			C5.3877,11.938,5.251,12,5.1074,12z M2.479,11h2.4023l2.6392-3h-2.272L2.479,11z"/>
		<path d="M12.3018,12H8.7046c-0.1963,0-0.3745-0.1152-0.4556-0.2939c-0.0811-0.1792-0.0498-0.3887,0.0801-0.5361l3.519-4
			C11.9434,7.062,12.0801,7,12.2236,7h3.5967c0.1963,0,0.375,0.1152,0.4561,0.2939c0.0801,0.1792,0.0488,0.3887-0.0811,0.5361
			l-3.5186,4C12.582,11.938,12.4453,12,12.3018,12z M9.8105,11h2.2646l2.6396-3h-2.2656L9.8105,11z"/>
		<path d="M22.4863,12h-2.9902c-0.1963,0-0.374-0.1143-0.4551-0.293c-0.0811-0.1782-0.0508-0.3872,0.0781-0.5352l2.9902-3.4375
			c0.1367-0.1572,0.3574-0.2139,0.5518-0.1401c0.1953,0.0732,0.3252,0.2598,0.3252,0.4683V11.5
			C22.9863,11.7764,22.7627,12,22.4863,12z M20.5938,11h1.3926V9.3989L20.5938,11z"/>
		<path d="M19.4961,12h-3.5977c-0.1963,0-0.375-0.1152-0.4561-0.2939c-0.0801-0.1792-0.0488-0.3887,0.0811-0.5361l3.5195-4
			C19.1377,7.062,19.2744,7,19.418,7h3.0684c0.2764,0,0.5,0.2236,0.5,0.5v0.5625c0,0.1206-0.0439,0.2373-0.123,0.3281
			l-2.9902,3.4375C19.7783,11.9375,19.6406,12,19.4961,12z M17.0039,11h2.2646l2.6094-3h-2.2344L17.0039,11z"/>
		<path d="M15.8984,12h-3.5967c-0.1963,0-0.3745-0.1152-0.4556-0.2939c-0.0811-0.1792-0.0498-0.3887,0.0801-0.5361l3.519-4
			C15.54,7.062,15.6768,7,15.8203,7h3.5977c0.1963,0,0.375,0.1152,0.4561,0.2939c0.0801,0.1792,0.0488,0.3887-0.0811,0.5361
			l-3.5195,4C16.1787,11.938,16.042,12,15.8984,12z M13.4072,11h2.2656l2.6396-3h-2.2656L13.4072,11z"/>
	</g>
	<g>
		<path d="M5.1006,7.4741c-0.1694,0-0.3296-0.0859-0.4219-0.2319c-0.106-0.1665-0.104-0.3794,0.0049-0.5439l2.9106-4.4009
			c0.0786-0.1187,0.2036-0.1982,0.3442-0.2188l3.5586-0.5229c0.2007-0.0273,0.3896,0.0605,0.4946,0.2266
			c0.106,0.1665,0.104,0.3794-0.0049,0.5439L9.0767,6.7271C8.998,6.8457,8.873,6.9253,8.7324,6.9458L5.1733,7.4688
			C5.1489,7.4722,5.1245,7.4741,5.1006,7.4741z M8.3052,3.0356L6.1348,6.3169l2.231-0.3281l2.1699-3.2812L8.3052,3.0356z"/>
		<path d="M1.4946,7.8423c-0.0381,0-0.0767-0.0044-0.1147-0.0132C1.1802,7.7817,1.0298,7.6177,1,7.415L0.4521,3.6831
			c-0.04-0.2734,0.1489-0.5273,0.4219-0.5674l3.5054-0.5146c0.1987-0.0278,0.3931,0.0625,0.498,0.2314
			c0.105,0.1694,0.0991,0.3853-0.0151,0.5488L1.9048,7.6279C1.8101,7.7642,1.6558,7.8423,1.4946,7.8423z M1.5142,4.0322
			l0.292,1.9883l1.5752-2.2622L1.5142,4.0322z"/>
		<path d="M1.5176,8c-0.2437,0-0.457-0.1782-0.4941-0.4263L1,7.416C0.9814,7.2896,1.0112,7.1611,1.0845,7.0566L4.042,2.8101
			c0.0786-0.1133,0.2012-0.189,0.3374-0.209l3.5591-0.5225c0.1997-0.0254,0.3892,0.0601,0.4946,0.2266
			c0.106,0.1665,0.104,0.3794-0.0049,0.5439L5.5176,7.25C5.439,7.3687,5.314,7.4482,5.1733,7.4688L1.5908,7.9946
			C1.5659,7.9985,1.5415,8,1.5176,8z M4.7388,3.5591L2.4404,6.8594l2.3662-0.3477l2.1704-3.2812L4.7388,3.5591z"/>
		<path d="M8.6597,6.9512c-0.1694,0-0.3296-0.0859-0.4219-0.2319c-0.106-0.1665-0.104-0.3794,0.0049-0.5439l2.9102-4.4009
			c0.0786-0.1187,0.2036-0.1982,0.3442-0.2188l3.5596-0.5229c0.1816-0.0293,0.3877,0.0591,0.4941,0.2266
			c0.1055,0.1665,0.1035,0.3794-0.0049,0.5439l-2.9102,4.4014c-0.0781,0.1187-0.2041,0.1982-0.3447,0.2188L8.7324,6.9458
			C8.708,6.9492,8.6836,6.9512,8.6597,6.9512z M11.8638,2.5127L9.6938,5.7939l2.231-0.3276l2.1699-3.2817L11.8638,2.5127z"/>
		<path d="M19.3359,5.3833c-0.1689,0-0.3281-0.0854-0.4209-0.2305c-0.1064-0.166-0.1055-0.3784,0.002-0.543l2.4678-3.7773
			c0.1133-0.1738,0.3174-0.2617,0.5264-0.2148c0.2031,0.0444,0.3574,0.21,0.3877,0.4155L22.79,4.376
			c0.0186,0.1313-0.0146,0.2646-0.0938,0.3711s-0.1973,0.1772-0.3291,0.1963l-2.959,0.4346
			C19.3838,5.3813,19.3604,5.3833,19.3359,5.3833z M21.501,2.4839l-1.1396,1.7432l1.3662-0.2002L21.501,2.4839z"/>
		<path d="M15.7773,5.9058c-0.1689,0-0.3291-0.0859-0.4219-0.2319C15.25,5.5073,15.252,5.2944,15.3604,5.1299l2.9102-4.4009
			c0.0781-0.1187,0.2041-0.1982,0.3447-0.2188l3.0361-0.4458c0.1279-0.0156,0.2646,0.0142,0.3711,0.0938
			c0.1064,0.0791,0.1768,0.1973,0.1963,0.3286l0.0801,0.5469c0.0176,0.1206-0.0098,0.2437-0.0762,0.3457l-2.4678,3.7773
			c-0.0791,0.1201-0.2051,0.2007-0.3467,0.2212l-3.5586,0.5225C15.8252,5.9038,15.8018,5.9058,15.7773,5.9058z M18.9814,1.4673
			l-2.1699,3.2812L19.04,4.4214l2.1416-3.2773L18.9814,1.4673z"/>
		<path d="M12.2188,6.4287c-0.1689,0-0.3296-0.0859-0.4219-0.2319c-0.106-0.1665-0.104-0.3794,0.0049-0.5439l2.9102-4.4014
			c0.0781-0.1187,0.2041-0.1982,0.3447-0.2188l3.5586-0.5225c0.1934-0.0288,0.3877,0.0591,0.4941,0.2266
			c0.1055,0.1665,0.1035,0.3794-0.0049,0.5439l-2.9102,4.4009c-0.0781,0.1187-0.2031,0.1982-0.3447,0.2188L12.291,6.4233
			C12.2676,6.4268,12.2432,6.4287,12.2188,6.4287z M15.4229,1.9897l-2.1699,3.2817l2.2305-0.3281l2.1699-3.2812L15.4229,1.9897z"/>
	</g>
	<path d="M11.0454,20.957c-0.5479,0-0.9932-0.4453-0.9932-0.9922V14.749c0-0.5469,0.4453-0.9922,0.9927-0.9922
		c0.2212,0,0.4316,0.0732,0.6084,0.2119l3.3408,2.6064c0.2422,0.1885,0.3809,0.4727,0.3809,0.7803
		c0.001,0.3076-0.1377,0.5928-0.3799,0.7822l-3.3418,2.6084C11.4771,20.8838,11.2666,20.957,11.0454,20.957z M11.0376,14.7568
		l0.0146,5.1895l3.3267-2.5967L11.0376,14.7568z"/>
</g>
<rect x="-0.0136" y="0.0002" fill="none" width="24" height="24"/>
</svg>
