<?xml version="1.0" encoding="utf-8"?>
<!-- Generator: Adobe Illustrator 18.1.0, SVG Export Plug-In . SVG Version: 6.00 Build 0)  -->
<svg version="1.1" id="Layer_1" xmlns="http://www.w3.org/2000/svg" xmlns:xlink="http://www.w3.org/1999/xlink" x="0px" y="0px"
	 width="24px" height="24px" viewBox="0 0 24 24" enable-background="new 0 0 24 24" xml:space="preserve">
<g>
	<path d="M7.8716,13.1504c-1.1416,0-2.0703-0.9287-2.0703-2.0703S6.73,9.0098,7.8716,9.0098s2.0703,0.9287,2.0703,2.0703
		S9.0132,13.1504,7.8716,13.1504z M7.8716,10.0098c-0.5903,0-1.0703,0.48-1.0703,1.0703s0.48,1.0703,1.0703,1.0703
		s1.0703-0.48,1.0703-1.0703S8.4619,10.0098,7.8716,10.0098z"/>
	<path d="M7.3843,19.0029c-0.1021,0-0.2051-0.0312-0.2939-0.0957c-0.2231-0.1621-0.2725-0.4756-0.1099-0.6982l4.96-6.8164
		c0.0938-0.1284,0.2432-0.2051,0.4023-0.2056c0.1582,0.0405,0.3096,0.0747,0.4033,0.2021l1.6709,2.2544l2.3145-3.6406
		c0.0908-0.1431,0.248-0.2305,0.417-0.2319c0.1807,0.0386,0.3281,0.0825,0.4219,0.2241l3.333,5.0322
		c0.1523,0.2305,0.0889,0.541-0.1406,0.6934c-0.2285,0.1504-0.5391,0.0889-0.6934-0.1406l-2.9072-4.3906l-2.292,3.6045
		c-0.0879,0.1387-0.2393,0.2256-0.4043,0.2314c-0.1719-0.0068-0.3223-0.0703-0.4189-0.2021l-1.6982-2.292l-4.5596,6.2656
		C7.6914,18.9316,7.5391,19.0029,7.3843,19.0029z"/>
	<path d="M2.3174,21.9229c-0.728,0-1.4258-0.4316-1.8203-1.126c-0.4263-0.752-0.4131-1.6494,0.0361-2.4014
		c0.2051-0.3447,0.2212-0.748,0.041-1.0283c-0.4805-0.7451-0.5049-1.7266-0.0625-2.499c0.2061-0.3594,0.2061-0.8066,0-1.167
		c-0.4165-0.7285-0.4165-1.6689,0.0005-2.396c0.2056-0.3599,0.2056-0.8071-0.0005-1.167c-0.4424-0.7725-0.418-1.7534,0.0625-2.4995
		c0.1802-0.2803,0.1641-0.6836-0.041-1.0278C0.0845,5.8594,0.0708,4.9629,0.4966,4.2124c0.6167-1.0869,2-1.4541,2.9966-0.7305
		c0.2705,0.1958,0.5854,0.2207,0.8081,0.0464c0.6934-0.542,1.6714-0.5708,2.3892-0.0698c0.2886,0.1997,0.647,0.2002,0.937,0
		c0.6851-0.4775,1.6118-0.4756,2.2939,0c0.2886,0.1997,0.6475,0.2002,0.9375-0.0005c0.6836-0.4766,1.6108-0.4746,2.2935,0
		c0.2891,0.2012,0.6484,0.2007,0.9375,0.0005c0.6855-0.4785,1.6123-0.4761,2.2939,0c0.2871,0.1992,0.6475,0.2012,0.9375,0
		c0.7148-0.501,1.6953-0.4736,2.3877,0.0693c0.2256,0.1772,0.542,0.1494,0.8086-0.0459c1-0.7222,2.3789-0.3584,2.9951,0.7271
		c0.4268,0.7524,0.4141,1.6499-0.0342,2.4019c-0.2061,0.3442-0.2217,0.748-0.041,1.0283c0.4795,0.7466,0.5039,1.7275,0.0615,2.499
		c-0.2051,0.3599-0.2051,0.8071,0,1.1675c0.417,0.7275,0.417,1.668,0,2.3965c-0.2051,0.3594-0.2051,0.8066,0.001,1.167
		c0.4414,0.7715,0.417,1.752-0.0625,2.498c-0.1807,0.2803-0.1641,0.6846,0.041,1.0293c0.4482,0.752,0.4619,1.6484,0.0361,2.3984
		c-0.3945,0.6943-1.0928,1.127-1.8223,1.127l0,0c-0.4102,0-0.8164-0.1377-1.1748-0.3984c-0.2666-0.1934-0.584-0.2207-0.8076-0.0459
		c-0.6904,0.543-1.6709,0.5713-2.3896,0.0703c-0.2881-0.2012-0.6494-0.2002-0.9375,0c-0.6816,0.4766-1.6104,0.4756-2.293,0
		c-0.2891-0.2012-0.6484-0.2012-0.9375,0c-0.6826,0.4775-1.6104,0.4766-2.2939,0c-0.2876-0.2012-0.6475-0.2002-0.937,0
		c-0.6826,0.4766-1.6113,0.4756-2.2939,0c-0.2881-0.2012-0.6475-0.2002-0.937,0c-0.7168,0.501-1.6963,0.4727-2.3887-0.0703
		c-0.2241-0.1748-0.5396-0.1484-0.8081,0.0469C3.1338,21.7852,2.7271,21.9229,2.3174,21.9229z M2.3193,4.0845
		c-0.3701,0-0.7354,0.2383-0.9531,0.6216c-0.1177,0.208-0.3521,0.7603,0.0254,1.3921C1.79,6.7661,1.7993,7.583,1.415,8.1797
		C1.1392,8.6089,1.1245,9.1963,1.3799,9.6411c0.3809,0.6665,0.3809,1.4941,0,2.1606c-0.2441,0.4258-0.2441,0.9766,0,1.4033
		c0.3809,0.665,0.3809,1.4932,0,2.1602c-0.2554,0.4453-0.2412,1.0322,0.0352,1.4609c0.3843,0.5977,0.375,1.4141-0.0234,2.0811
		c-0.3779,0.6338-0.1431,1.1875-0.0249,1.3955c0.335,0.5898,0.9971,0.8047,1.5396,0.4131c0.6284-0.4551,1.4438-0.4697,2.0117-0.0254
		c0.354,0.2754,0.8364,0.292,1.2007,0.0371c0.626-0.4365,1.4541-0.4365,2.0806,0c0.3452,0.2412,0.8037,0.2432,1.1504,0
		c0.6265-0.4365,1.4536-0.4365,2.0806,0c0.3442,0.2412,0.8032,0.2432,1.1509,0c0.627-0.4355,1.4541-0.4355,2.0791,0
		c0.3457,0.2393,0.8037,0.2432,1.1514,0c0.626-0.4346,1.4541-0.4365,2.0801,0c0.3662,0.2559,0.8506,0.2393,1.2012-0.0371
		c0.5684-0.4434,1.3848-0.4316,2.0127,0.0244c0.1885,0.1367,0.3867,0.207,0.5869,0.207l0,0c0.3701,0,0.7354-0.2383,0.9531-0.6211
		c0.1182-0.208,0.3516-0.7598-0.0264-1.3926c-0.3975-0.667-0.4072-1.4844-0.0234-2.082c0.2764-0.4287,0.291-1.0156,0.0361-1.4609
		c-0.3818-0.667-0.3809-1.4951,0-2.1602c0.2441-0.4268,0.2441-0.9766,0-1.4028c-0.3818-0.6665-0.3818-1.4946,0-2.1606
		c0.2549-0.4453,0.2402-1.0322-0.0361-1.4614c-0.3838-0.5972-0.374-1.4146,0.0234-2.082c0.3779-0.6323,0.1426-1.1865,0.0244-1.3955
		c-0.335-0.5894-0.9971-0.8032-1.5381-0.4111c-0.6279,0.4556-1.4453,0.4688-2.0127,0.0239
		c-0.3525-0.2764-0.8379-0.291-1.2002-0.0366c-0.6279,0.436-1.4561,0.4351-2.0801,0c-0.3457-0.2407-0.8027-0.2427-1.1523,0.0005
		c-0.625,0.4346-1.4531,0.4351-2.0781-0.0005c-0.3467-0.2402-0.8037-0.2422-1.1519,0c-0.6265,0.436-1.4541,0.4351-2.0801,0
		c-0.3462-0.2402-0.8027-0.2422-1.1514,0c-0.6265,0.436-1.4541,0.4351-2.0796,0C5.7549,4.0254,5.271,4.0391,4.918,4.3154
		C4.3516,4.7598,3.5337,4.7466,2.9058,4.2915C2.7168,4.1543,2.5195,4.0845,2.3193,4.0845z"/>
	<path d="M20.4863,19.0029h-17c-0.2764,0-0.5-0.2236-0.5-0.5V6.5034c0-0.2764,0.2236-0.5,0.5-0.5h17c0.2764,0,0.5,0.2236,0.5,0.5
		v11.9995C20.9863,18.7793,20.7627,19.0029,20.4863,19.0029z M3.9863,18.0029h16V7.0034h-16V18.0029z"/>
</g>
<rect x="-0.0137" y="0.0002" fill="none" width="24" height="24"/>
</svg>
