<?xml version="1.0" encoding="utf-8"?>
<!-- Generator: Adobe Illustrator 18.1.0, SVG Export Plug-In . SVG Version: 6.00 Build 0)  -->
<svg version="1.1" id="Layer_1" xmlns="http://www.w3.org/2000/svg" xmlns:xlink="http://www.w3.org/1999/xlink" x="0px" y="0px"
	 width="24px" height="24px" viewBox="0 0 24 24" enable-background="new 0 0 24 24" xml:space="preserve">
<g>
	<path d="M21.8564,15.9346c-2.6289,0-9.417-0.3887-15.6592-3.9961c-0.209-0.1206-0.3018-0.373-0.2212-0.6001
		c0.1035-0.293,2.6138-7.1807,8.7583-7.1807c0.7451,0,1.5195,0.1055,2.3027,0.313c8.585,2.2749,6.6045,10.957,6.584,11.0449
		c-0.0508,0.21-0.2314,0.3643-0.4473,0.3809C23.1738,15.8965,22.6943,15.9346,21.8564,15.9346z M7.0757,11.2866
		c5.9272,3.2876,12.2856,3.6479,14.7808,3.6479c0.3623,0,0.6543-0.0068,0.8633-0.0146c0.2666-1.5762,0.835-7.688-5.9385-9.4824
		c-0.7002-0.1855-1.3887-0.2798-2.0469-0.2798C10.0825,5.1577,7.6836,9.8857,7.0757,11.2866z"/>
	<path d="M6.0151,17.166c-0.2559,0.001-0.5103-0.0146-0.7646-0.0449c-2.5156-0.2979-4.313-2.0625-4.9121-2.9531
		c-0.146-0.2178-0.1738-0.4814-0.0762-0.7246c0.4214-1.0488,3.9893-1.9702,6.0786-2.4263c0.2671-0.064,0.5361,0.1123,0.5947,0.3818
		c0.0591,0.2695-0.1118,0.5361-0.3818,0.5947c-2.2178,0.4849-4.7529,1.2729-5.291,1.7476c0.521,0.6875,2.0156,2.1396,4.1055,2.3867
		c1.9995,0.2393,4.0884-0.6367,6.2192-2.5967c0.2036-0.1855,0.52-0.1719,0.7065,0.0293c0.1865,0.2041,0.1738,0.5205-0.0293,0.707
		C10.1694,16.1934,8.0708,17.166,6.0151,17.166z"/>
	<path d="M11.9263,14.4004c-0.0142,0-0.0288-0.001-0.0435-0.002c-0.2749-0.0234-0.479-0.2656-0.4551-0.541
		c0.5898-6.8564,5.0615-9.249,5.251-9.3472c0.248-0.1265,0.5469-0.0308,0.6729,0.2129c0.1279,0.2441,0.0332,0.5459-0.2109,0.6743
		c-0.1709,0.0894-4.1758,2.2622-4.7168,8.5459C12.4014,14.2041,12.1826,14.4004,11.9263,14.4004z"/>
	<path d="M17.5332,4.4795c-0.04,0-0.0811-0.0049-0.1221-0.0151l-0.6426-0.1616c-0.2676-0.0674-0.4307-0.3389-0.3633-0.6069
		c0.0684-0.2676,0.3369-0.4302,0.6074-0.3628l0.6426,0.1616c0.2676,0.0674,0.4307,0.3389,0.3633,0.6069
		C17.9609,4.3281,17.7568,4.4795,17.5332,4.4795z"/>
</g>
<rect x="0.0142" y="0.0344" fill="none" width="24" height="24"/>
</svg>
