<?xml version="1.0" encoding="utf-8"?>
<!-- Generator: Adobe Illustrator 18.1.0, SVG Export Plug-In . SVG Version: 6.00 Build 0)  -->
<svg version="1.1" id="Layer_1" xmlns="http://www.w3.org/2000/svg" xmlns:xlink="http://www.w3.org/1999/xlink" x="0px" y="0px"
	 width="24px" height="24px" viewBox="0 0 24 24" enable-background="new 0 0 24 24" xml:space="preserve">
<rect x="-0.0008" y="-0.0146" fill="none" width="24" height="24"/>
<g>
	<path d="M18.6074,18.9209H5.1714c-2.1968,0-4.126-1.418-4.6924-3.4473c-0.5308-1.9043,0.2671-3.7964,2.0854-4.9883
		c0.627-3.1069,3.3013-5.3379,6.4419-5.3379c1.4526,0,2.833,0.4805,4.0063,1.3911c2.4971-0.2241,4.584,1.0166,5.417,3.0894
		c2.8066-0.0474,5.252,2.0791,5.252,4.6455C23.6816,16.793,21.3584,18.9209,18.6074,18.9209z M9.0063,6.1475
		c-2.7256,0-5.0371,1.9878-5.4971,4.7271c-0.0244,0.1436-0.1099,0.2695-0.2344,0.3447c-1.5771,0.9536-2.2622,2.4438-1.8325,3.9858
		c0.377,1.3516,1.6763,2.7158,3.729,2.7158h13.436c2.208,0,4.0742-1.6699,4.0742-3.6475c0-2.1104-2.1191-3.8574-4.5479-3.626
		c-0.2432,0.0308-0.4541-0.1226-0.5244-0.3477c-0.4648-1.4771-2.0039-3.0791-4.6885-2.7456
		c-0.1367,0.0142-0.2734-0.0239-0.3789-0.1108C11.5156,6.5957,10.293,6.1475,9.0063,6.1475z"/>
</g>
</svg>
