<?xml version="1.0" encoding="utf-8"?>
<!-- Generator: Adobe Illustrator 18.1.0, SVG Export Plug-In . SVG Version: 6.00 Build 0)  -->
<svg version="1.1" id="Layer_1" xmlns="http://www.w3.org/2000/svg" xmlns:xlink="http://www.w3.org/1999/xlink" x="0px" y="0px"
	 width="24px" height="24px" viewBox="0 0 24 24" enable-background="new 0 0 24 24" xml:space="preserve">
<g>
	<path d="M12.4062,23.959c-2.3545,0-3.3389-0.1748-5.7749-1.4014c-3.7583-2.3086-3.3848-5.9268-3.0557-9.1191
		c0.1982-1.917,0.3853-3.728-0.1797-5.2803c-0.0815-0.2212-0.0513-0.46,0.0835-0.6528C3.7017,7.187,4.1743,7.1035,4.4941,7.334
		c0.3784,0.2852,2.7324,3.4897,3.8052,5.5889c0.23-0.833,0.3618-1.9478,0.4985-3.106c0.4043-3.4199,0.9077-7.6763,4.1816-9.6426
		c0.457-0.2725,1.0869,0.0903,1.0869,0.6147c0,4.0776,0.2998,7.0298,0.9121,8.9565c0.6494-1.627,2.0391-4.1973,4.4521-4.5991
		c0.2969-0.043,0.6416,0.1289,0.7705,0.4106c0.1172,0.2578,0.0752,0.5513-0.1104,0.7651c-1.7891,2.0874-1.124,4.0366-0.3535,6.293
		c0.5176,1.5186,1.0537,3.0889,0.834,4.793C20.082,21.2041,16.6484,23.959,12.4062,23.959z M4.6592,9.0996
		c0.2227,1.4277,0.0649,2.9541-0.0884,4.4414c-0.3286,3.1807-0.6387,6.1855,2.5469,8.1445
		c2.2812,1.1465,3.0913,1.2734,5.2886,1.2734c3.7324,0,6.749-2.3877,7.1729-5.6777c0.1904-1.4746-0.3076-2.9326-0.7881-4.3428
		c-0.7217-2.1143-1.4658-4.2944,0.0098-6.562c-1.7598,0.8394-2.8838,3.3892-3.2949,4.9253
		c-0.0537,0.1987-0.2236,0.3447-0.4277,0.3677c-0.2031,0.02-0.4023-0.082-0.498-0.2646c-0.998-1.8984-1.4805-5.1113-1.5117-10.0874
		c-2.4761,1.8403-2.9185,5.5806-3.2773,8.6172c-0.2241,1.8965-0.4175,3.5342-1.0522,4.4961
		c-0.063,0.0947-0.1562,0.166-0.2651,0.2012c-0.1284,0.04-0.2866,0.0342-0.4067-0.0293c-0.1196-0.0645-0.2256-0.168-0.2622-0.2988
		C7.479,13.1445,5.7236,10.5396,4.6592,9.0996z"/>
</g>
<rect x="-0.0136" y="0.0002" fill="none" width="24" height="24"/>
</svg>
