<?xml version="1.0" encoding="utf-8"?>
<!-- Generator: Adobe Illustrator 18.1.0, SVG Export Plug-In . SVG Version: 6.00 Build 0)  -->
<svg version="1.1" id="Layer_1" xmlns="http://www.w3.org/2000/svg" xmlns:xlink="http://www.w3.org/1999/xlink" x="0px" y="0px"
	 width="24px" height="24px" viewBox="0 0 24 24" enable-background="new 0 0 24 24" xml:space="preserve">
<g>
	<path d="M9.1655,4.1421c-1.0859,0-1.9692-0.8838-1.9692-1.9697s0.8833-1.9692,1.9692-1.9692s1.9692,0.8833,1.9692,1.9692
		S10.2515,4.1421,9.1655,4.1421z M9.1655,1.2031c-0.5347,0-0.9692,0.4346-0.9692,0.9692s0.4346,0.9697,0.9692,0.9697
		s0.9692-0.4351,0.9692-0.9697S9.7002,1.2031,9.1655,1.2031z"/>
	<path d="M13.0967,4.1421c-1.0859,0-1.9692-0.8838-1.9692-1.9697s0.8833-1.9692,1.9692-1.9692s1.9697,0.8833,1.9697,1.9692
		S14.1826,4.1421,13.0967,4.1421z M13.0967,1.2031c-0.5342,0-0.9697,0.4346-0.9697,0.9692s0.4355,0.9697,0.9697,0.9697
		c0.5352,0,0.9697-0.4351,0.9697-0.9697S13.6318,1.2031,13.0967,1.2031z"/>
	<path d="M17.0283,4.1421c-1.0859,0-1.9697-0.8838-1.9697-1.9697s0.8838-1.9692,1.9697-1.9692s1.9697,0.8833,1.9697,1.9692
		S18.1143,4.1421,17.0283,4.1421z M17.0283,1.2031c-0.5352,0-0.9697,0.4346-0.9697,0.9692s0.4346,0.9697,0.9697,0.9697
		S17.998,2.707,17.998,2.1724S17.5635,1.2031,17.0283,1.2031z"/>
	<path d="M20.96,4.1421c-1.0859,0-1.9697-0.8838-1.9697-1.9697S19.874,0.2031,20.96,0.2031s1.9688,0.8833,1.9688,1.9692
		S22.0459,4.1421,20.96,4.1421z M20.96,1.2031c-0.5352,0-0.9697,0.4346-0.9697,0.9692s0.4346,0.9697,0.9697,0.9697
		c0.5342,0,0.9688-0.4351,0.9688-0.9697S21.4941,1.2031,20.96,1.2031z"/>
	<path d="M11.1333,7.7417c-1.0859,0-1.9692-0.8838-1.9692-1.9697s0.8833-1.9692,1.9692-1.9692c1.0854,0,1.9692,0.8833,1.9692,1.9692
		S12.2188,7.7417,11.1333,7.7417z M11.1333,4.8027c-0.5347,0-0.9692,0.4346-0.9692,0.9692s0.4346,0.9697,0.9692,0.9697
		s0.9692-0.4351,0.9692-0.9697S11.668,4.8027,11.1333,4.8027z"/>
	<path d="M15.0645,7.7417c-1.0859,0-1.9688-0.8838-1.9688-1.9697s0.8828-1.9692,1.9688-1.9692s1.9697,0.8833,1.9697,1.9692
		S16.1504,7.7417,15.0645,7.7417z M15.0645,4.8027c-0.5342,0-0.9688,0.4346-0.9688,0.9692s0.4346,0.9697,0.9688,0.9697
		c0.5352,0,0.9697-0.4351,0.9697-0.9697S15.5996,4.8027,15.0645,4.8027z"/>
	<path d="M18.9961,7.7417c-1.0859,0-1.9688-0.8838-1.9688-1.9697s0.8828-1.9692,1.9688-1.9692s1.9697,0.8833,1.9697,1.9692
		S20.082,7.7417,18.9961,7.7417z M18.9961,4.8027c-0.5342,0-0.9688,0.4346-0.9688,0.9692s0.4346,0.9697,0.9688,0.9697
		c0.5352,0,0.9697-0.4351,0.9697-0.9697S19.5312,4.8027,18.9961,4.8027z"/>
	<path d="M13.1035,11.2944c-1.0859,0-1.9697-0.8833-1.9697-1.9692s0.8838-1.9697,1.9697-1.9697s1.9688,0.8838,1.9688,1.9697
		S14.1895,11.2944,13.1035,11.2944z M13.1035,8.3555c-0.5352,0-0.9697,0.4351-0.9697,0.9697s0.4346,0.9692,0.9697,0.9692
		c0.5342,0,0.9688-0.4346,0.9688-0.9692S13.6377,8.3555,13.1035,8.3555z"/>
	<path d="M15.0645,14.8828c-1.0859,0-1.9688-0.8838-1.9688-1.9697s0.8828-1.9692,1.9688-1.9692s1.9697,0.8833,1.9697,1.9692
		S16.1504,14.8828,15.0645,14.8828z M15.0645,11.9438c-0.5342,0-0.9688,0.4351-0.9688,0.9692c0,0.5352,0.4346,0.9697,0.9688,0.9697
		c0.5352,0,0.9697-0.4346,0.9697-0.9697C16.0342,12.3789,15.5996,11.9438,15.0645,11.9438z"/>
	<path d="M17.0342,11.2944c-1.0859,0-1.9688-0.8833-1.9688-1.9692s0.8828-1.9697,1.9688-1.9697s1.9697,0.8838,1.9697,1.9697
		S18.1201,11.2944,17.0342,11.2944z M17.0342,8.3555c-0.5342,0-0.9688,0.4351-0.9688,0.9697s0.4346,0.9692,0.9688,0.9692
		c0.5352,0,0.9697-0.4346,0.9697-0.9692S17.5693,8.3555,17.0342,8.3555z"/>
	<path d="M15.5586,23.332c-1.0234,0-1.8564-0.833-1.8564-1.8564c0-1.0244,0.833-1.8574,1.8564-1.8574
		c1.0244,0,1.8574,0.833,1.8574,1.8574C17.416,22.499,16.583,23.332,15.5586,23.332z M15.5586,20.6182
		c-0.4727,0-0.8564,0.3848-0.8564,0.8574s0.3838,0.8564,0.8564,0.8564s0.8574-0.3838,0.8574-0.8564S16.0312,20.6182,15.5586,20.6182
		z"/>
	<path d="M8.8901,23.8672c-0.5425,0-1.0132-0.3682-1.144-0.8955l-1.6089-6.4951L3.0034,1.9634
		C2.9463,1.6992,3.1099,1.4375,3.3721,1.3726l0.5156-0.1274c0.2622-0.061,0.5293,0.0903,0.6016,0.3506l3.998,14.2832l1.6128,6.5098
		c0.0757,0.3057,0.0278,0.623-0.1348,0.8926s-0.4204,0.46-0.7261,0.5352C9.0806,23.8564,8.9854,23.8672,8.8901,23.8672z
		 M5.6206,9.3467l1.4907,6.9043l1.6055,6.4805c0.0229,0.0947,0.1201,0.1562,0.2168,0.1309
		c0.1475-0.0371,0.2163-0.1514,0.1958-0.2334l-1.6089-6.4951L5.6206,9.3467z"/>
	<path d="M6.6226,16.8574c-0.2246,0-0.4287-0.1523-0.4849-0.3799c-0.0664-0.2686,0.0972-0.5391,0.3652-0.6055l1.3833-0.3418
		c0.2729-0.0664,0.5396,0.0977,0.6055,0.3652c0.0664,0.2686-0.0972,0.5391-0.3652,0.6055l-1.3833,0.3418
		C6.7026,16.8525,6.6621,16.8574,6.6226,16.8574z"/>
</g>
<rect x="0.0142" y="0.0354" fill="none" width="24" height="24"/>
</svg>
