<?xml version="1.0" encoding="utf-8"?>
<!-- Generator: Adobe Illustrator 18.1.0, SVG Export Plug-In . SVG Version: 6.00 Build 0)  -->
<svg version="1.1" id="Layer_1" xmlns="http://www.w3.org/2000/svg" xmlns:xlink="http://www.w3.org/1999/xlink" x="0px" y="0px"
	 width="24px" height="24px" viewBox="0 0 24 24" enable-background="new 0 0 24 24" xml:space="preserve">
<g>
	<path d="M18.2168,15.9785h-6.5127c-0.4126,0-0.7485-0.3369-0.7485-0.752v-0.8857c0-0.3096,0.1929-0.5908,0.4795-0.7021
		c1.5356-0.5938,2.0181-0.8955,2.1655-1.0137c-0.1963-0.2441-0.3545-0.54-0.4639-0.8711c-0.1582-0.1621-0.2627-0.3735-0.2939-0.6021
		c-0.0322-0.231,0.0107-0.4595,0.1201-0.6602V9.8481c0-1.1582,0.7656-1.8779,1.9971-1.8779c1.251,0,1.9971,0.7021,1.9971,1.8779
		v0.6431c0.1104,0.2007,0.1523,0.4292,0.1211,0.6606c-0.0322,0.2285-0.1367,0.4399-0.2949,0.6025
		c-0.1094,0.3315-0.2676,0.6274-0.4648,0.8716v0.0244c0.0967,0.0586,0.542,0.3604,2.167,0.9893
		c0.2861,0.1094,0.4795,0.3916,0.4795,0.7012v0.8857C18.9648,15.6416,18.6289,15.9785,18.2168,15.9785z M11.9556,14.9785h6.0093
		v-0.4688c-2.0283-0.7949-2.502-1.1807-2.624-1.5703c-0.0146-0.0488-0.0225-0.0986-0.0225-0.1494v-0.3535
		c0-0.1309,0.0518-0.2568,0.1426-0.3496c0.1758-0.1797,0.3193-0.4453,0.4043-0.7495c0.0312-0.1108,0.0996-0.208,0.1943-0.2744
		c-0.0732-0.0894-0.1025-0.3071-0.1025-0.4224V9.8481c0-0.4087-0.1133-0.8779-0.9971-0.8779c-0.8936,0-0.9971,0.501-0.9971,0.8779
		v0.7925c0,0.1147-0.0391,0.2261-0.1123,0.3154c0.0947,0.0664,0.1729,0.2705,0.2041,0.3813
		c0.085,0.3042,0.2285,0.5698,0.4043,0.7495c0.0908,0.0928,0.1426,0.2188,0.1426,0.3496v0.3545
		c0,0.0498-0.0078,0.1006-0.0225,0.1484c-0.1211,0.3896-0.5947,0.7754-2.6235,1.5703V14.9785z"/>
	<path d="M23.4707,19.0449H7.1714c-0.1313,0-0.2568-0.0518-0.3506-0.1436l-6.6313-6.5205C0.0938,12.2871,0.04,12.1582,0.04,12.0244
		s0.0537-0.2627,0.1494-0.3564l6.6309-6.5215c0.0938-0.0918,0.2192-0.1436,0.3506-0.1436h16.2998c0.2764,0,0.5,0.2236,0.5,0.5
		v13.042C23.9707,18.8213,23.7471,19.0449,23.4707,19.0449z M7.3755,18.0449h15.5952V6.0029H7.376l-6.123,6.0215L7.3755,18.0449z"/>
</g>
<rect fill="none" width="24" height="24"/>
</svg>
