<?xml version="1.0" encoding="utf-8"?>
<!-- Generator: Adobe Illustrator 18.1.0, SVG Export Plug-In . SVG Version: 6.00 Build 0)  -->
<svg version="1.1" id="Layer_1" xmlns="http://www.w3.org/2000/svg" xmlns:xlink="http://www.w3.org/1999/xlink" x="0px" y="0px"
	 width="24px" height="24px" viewBox="0 0 24 24" enable-background="new 0 0 24 24" xml:space="preserve">
<g>
	<g>
		<path d="M3.3652,16.708c-0.105,0-0.2109-0.0332-0.3013-0.1016c-0.083-0.0635-2.0376-1.5742-2.0376-4.1504
			c0-1.9258,1.5703-3.4922,3.501-3.4922h1.2993c1.1885,0,2.1558-0.9634,2.1558-2.1475c0-1.1846-0.9673-2.1479-2.1558-2.1479H4.7139
			c-0.2764,0-0.5-0.2236-0.5-0.5s0.2236-0.5,0.5-0.5h1.1128c1.7402,0,3.1558,1.4121,3.1558,3.1479
			c0,1.7354-1.4155,3.1475-3.1558,3.1475H4.5273c-1.3555,0-2.501,1.1411-2.501,2.4922c0,2.0693,1.6265,3.3418,1.6431,3.3545
			c0.2188,0.168,0.2607,0.4814,0.0938,0.7002C3.6646,16.6396,3.5156,16.708,3.3652,16.708z"/>
	</g>
	<path d="M2.4448,5.5723H1.0791c-0.2764,0-0.5-0.2236-0.5-0.5s0.2236-0.5,0.5-0.5h1.3657c0.2764,0,0.5,0.2236,0.5,0.5
		S2.7212,5.5723,2.4448,5.5723z"/>
	<path d="M2.4448,3.7764H1.0791c-0.2764,0-0.5-0.2236-0.5-0.5s0.2236-0.5,0.5-0.5h1.3657c0.2764,0,0.5,0.2236,0.5,0.5
		S2.7212,3.7764,2.4448,3.7764z"/>
	<path d="M2.4448,6.2915c-0.1328,0-0.2598-0.0527-0.3535-0.1465S1.9448,5.9243,1.9448,5.7915l0.0005-3.2461
		c0-0.2764,0.2241-0.5,0.5-0.5h0.6641c0.5635,0,1.0923,0.2217,1.4902,0.6235c0.3965,0.4009,0.6147,0.9336,0.6143,1.4995
		C5.2144,4.7339,4.9961,5.2661,4.5996,5.667C4.2021,6.0693,3.6729,6.291,3.1094,6.291L2.4453,6.2915H2.4448z M2.9453,3.0454
		L2.9448,5.291h0.1641c0.2944,0,0.5713-0.1162,0.7798-0.3267c0.21-0.2124,0.3252-0.4951,0.3252-0.7959
		c0-0.3013-0.1152-0.584-0.3252-0.7964C3.6802,3.1616,3.4033,3.0454,3.1094,3.0454H2.9453z"/>
	<path d="M14.4678,22H9.5156c-0.2764,0-0.5-0.2236-0.5-0.5s0.2236-0.5,0.5-0.5h4.9521c0.2764,0,0.5,0.2236,0.5,0.5
		S14.7441,22,14.4678,22z"/>
	<g>
		<path d="M5.4741,23.9482c-1.3501,0-2.4482-1.0986-2.4482-2.4482s1.0981-2.4482,2.4482-2.4482
			c1.3496,0,2.4478,1.0986,2.4478,2.4482S6.8237,23.9482,5.4741,23.9482z M5.4741,20.0518c-0.7983,0-1.4482,0.6494-1.4482,1.4482
			s0.6499,1.4482,1.4482,1.4482S6.9219,22.2988,6.9219,21.5S6.2725,20.0518,5.4741,20.0518z"/>
		<path d="M18.4619,23.9482c-1.3496,0-2.4482-1.0986-2.4482-2.4482s1.0986-2.4482,2.4482-2.4482s2.4482,1.0986,2.4482,2.4482
			S19.8115,23.9482,18.4619,23.9482z M18.4619,20.0518c-0.7988,0-1.4482,0.6494-1.4482,1.4482s0.6494,1.4482,1.4482,1.4482
			s1.4482-0.6494,1.4482-1.4482S19.2607,20.0518,18.4619,20.0518z"/>
		<path d="M23.2939,22h-0.8672c-0.2764,0-0.5-0.2236-0.5-0.5s0.2236-0.5,0.5-0.5h0.3428c-0.1045-1.3193-0.5332-2.333-1.2754-3.0176
			c-1.1777-1.085-2.8867-1.0996-3.5703-1.0557c-0.4629,0.0303-0.9092-0.2822-1.0293-0.7451
			c-0.3232-1.2539-1.5781-4.1934-5.7822-4.1455H10.833c-0.3569,0-0.9316,0.001-1.0142,0.0029
			c-5.0488,0.1484-5.8281,2.9258-5.9287,4.1133c-0.0347,0.4131-0.334,0.7568-0.7632,0.877C1.5352,17.4766,1.2114,19.9375,1.1465,21
			h0.1836c0.2764,0,0.5,0.2236,0.5,0.5s-0.2236,0.5-0.5,0.5H0.6304c-0.2715,0-0.4937-0.2168-0.5-0.4883
			c-0.0044-0.1895-0.0767-4.6582,2.7266-5.4453c0.1333-1.1328,0.9146-4.8496,6.9346-5.0273
			c0.0869-0.002,0.6753-0.0024,1.0405-0.0024l0.2759-0.0005c0.0171,0,0.0352,0,0.0522,0c5.0449,0,6.4053,3.7441,6.7031,4.8955
			c1.0059-0.0645,2.8984,0.0176,4.3076,1.3154c1.0449,0.9619,1.5908,2.3906,1.623,4.2441c0.002,0.1348-0.0498,0.2637-0.1436,0.3594
			S23.4277,22,23.2939,22z"/>
	</g>
</g>
<rect x="0.0005" fill="none" width="24" height="24"/>
</svg>
