<?xml version="1.0" encoding="utf-8"?>
<!-- Generator: Adobe Illustrator 18.1.0, SVG Export Plug-In . SVG Version: 6.00 Build 0)  -->
<svg version="1.1" id="Layer_1" xmlns="http://www.w3.org/2000/svg" xmlns:xlink="http://www.w3.org/1999/xlink" x="0px" y="0px"
	 width="24px" height="24px" viewBox="0 0 24 24" enable-background="new 0 0 24 24" xml:space="preserve">
<g>
	<path d="M7.4541,20.5859c-0.1265,0-0.2534-0.0479-0.3506-0.1436l-6.103-6.0059c-0.0952-0.0938-0.1489-0.2207-0.1494-0.3545
		c-0.0005-0.1328,0.0522-0.2617,0.1465-0.3555l13.437-13.438c0.1875-0.1875,0.5195-0.1875,0.707,0l7.4053,7.4048
		c0.1953,0.1948,0.1953,0.5107,0.001,0.7061l-3.7275,3.75c-0.1943,0.1963-0.5107,0.1963-0.707,0.0029
		c-0.1953-0.1948-0.1963-0.5117-0.002-0.7075l3.376-3.397l-6.6992-6.6987L2.061,14.0771l5.7437,5.6523
		c0.1968,0.1934,0.1997,0.5107,0.0059,0.707C7.7124,20.5361,7.5835,20.5859,7.4541,20.5859z"/>
	<path d="M20.8574,12.9717c-0.1543,0-0.3076-0.0713-0.4053-0.207c-0.1621-0.2236-0.1113-0.5361,0.1123-0.6982l1.623-1.1743
		l-1.2393-1.7124c-0.1621-0.2236-0.1113-0.5361,0.1123-0.6982c0.2236-0.1611,0.5361-0.1118,0.6982,0.1123l1.5322,2.1172
		c0.0771,0.1074,0.1094,0.2412,0.0889,0.3721c-0.0215,0.1309-0.0938,0.248-0.2012,0.3262l-2.0283,1.4678
		C21.0615,12.9404,20.959,12.9717,20.8574,12.9717z"/>
	<path fill="none" stroke="#000000" stroke-linecap="round" stroke-linejoin="round" d="M22.4508,17.7227"/>
	<path fill="none" stroke="#000000" stroke-linecap="round" stroke-linejoin="round" d="M22.4508,14.8369"/>
	<path d="M14.9521,20.0645c-3.9746,0-7.998-0.9834-7.998-2.8643c0-0.2764,0.2236-0.5,0.5-0.5s0.5,0.2236,0.5,0.5
		c0,0.7598,2.7261,1.8643,6.998,1.8643c4.2725,0,6.999-1.1045,6.999-1.8643c0-0.2764,0.2236-0.5,0.5-0.5s0.5,0.2236,0.5,0.5
		C22.9512,19.0811,18.9268,20.0645,14.9521,20.0645z"/>
	<path d="M14.9521,22.9502c-3.9746,0-7.998-0.9834-7.998-2.8643v-5.9033c0-0.2764,0.2236-0.5,0.5-0.5s0.5,0.2236,0.5,0.5v5.9033
		c0,0.7598,2.7261,1.8643,6.998,1.8643c4.2725,0,6.999-1.1045,6.999-1.8643v-5.9033c0-0.2764,0.2236-0.5,0.5-0.5s0.5,0.2236,0.5,0.5
		v5.9033C22.9512,21.9668,18.9268,22.9502,14.9521,22.9502z"/>
	<path d="M14.9521,17.0459c-3.9746,0-7.998-1.0381-7.998-3.0215s4.0234-3.021,7.998-3.021s7.999,1.0376,7.999,3.021
		S18.9268,17.0459,14.9521,17.0459z M14.9521,12.0029c-4.272,0-6.998,1.1973-6.998,2.0215s2.7261,2.0215,6.998,2.0215
		c4.2725,0,6.999-1.1973,6.999-2.0215S19.2246,12.0029,14.9521,12.0029z"/>
</g>
<rect x="-0.0137" y="0.0031" fill="none" width="24" height="24"/>
<rect x="-0.0137" fill="none" width="24" height="24"/>
</svg>
