<?xml version="1.0" encoding="utf-8"?>
<!-- Generator: Adobe Illustrator 18.1.0, SVG Export Plug-In . SVG Version: 6.00 Build 0)  -->
<svg version="1.1" id="Layer_1" xmlns="http://www.w3.org/2000/svg" xmlns:xlink="http://www.w3.org/1999/xlink" x="0px" y="0px"
	 width="24px" height="24px" viewBox="0 0 24 24" enable-background="new 0 0 24 24" xml:space="preserve">
<g>
	<path d="M11.4756,23.9199c-0.1025,0-0.2046-0.0312-0.291-0.0938c-0.0415-0.0293-4.2041-2.96-9.2212-2.96l-0.2124,0.002
		c-0.0029,0-0.0059,0-0.0083,0c-0.2583,0-0.4751-0.1973-0.498-0.4561L0.0386,6.8779c-0.02-0.2236,0.1118-0.4336,0.3223-0.5127
		c0.0542-0.02,0.563-0.2002,1.6167-0.2002c1.7397,0,4.8369,0.4829,9.7114,2.7817c0.1748,0.0825,0.2866,0.2588,0.2866,0.4521v14.021
		c0,0.1875-0.105,0.3584-0.2715,0.4443C11.6323,23.9014,11.5537,23.9199,11.4756,23.9199z M2.2002,19.8682
		c3.9644,0.0654,7.3081,1.7627,8.7754,2.6377V9.7173c-4.54-2.105-7.394-2.5522-8.998-2.5522c-0.3965,0-0.6958,0.0288-0.9038,0.0605
		L2.2002,19.8682z"/>
	<path d="M11.4756,23.9199c-0.0786,0-0.1572-0.0186-0.23-0.0557c-0.166-0.0859-0.27-0.2578-0.27-0.4443V9.3989
		c0-0.1934,0.1118-0.3696,0.2866-0.4521c4.8745-2.2988,8.0103-2.7817,9.7817-2.7817c1.0693,0,1.5908,0.1782,1.6465,0.1987
		c0.2139,0.0776,0.3477,0.2896,0.3271,0.5161l-1.2588,13.5342c-0.0244,0.2578-0.2402,0.4541-0.498,0.4541
		c-0.0029,0-0.0059,0-0.0078,0l-0.2129-0.002c-5.0322,0-9.2339,2.9326-9.2759,2.9619
		C11.6782,23.8887,11.5771,23.9199,11.4756,23.9199z M11.9756,9.7173v12.7935c1.4766-0.873,4.8545-2.5771,8.8291-2.6426
		l1.1758-12.6411c-0.2139-0.0322-0.5244-0.062-0.9365-0.062C19.4082,7.165,16.5176,7.6123,11.9756,9.7173z"/>
	<path d="M11.481,9.8984c-0.0542,0-0.1094-0.0088-0.1631-0.0273c-0.2212-0.0767-0.3604-0.2959-0.3335-0.5288
		c0.0293-0.2583,0.8247-6.3462,9.6572-8.3926c0.2734-0.0605,0.5381,0.106,0.6006,0.3745c0.0625,0.269-0.1055,0.5376-0.374,0.6001
		c-4.5723,1.0591-6.8096,3.2808-7.8945,5.0381c1.6777-1.4868,4.5137-3.2261,8.7412-3.459c0.2832-0.0181,0.5117,0.1968,0.5264,0.4717
		c0.0156,0.2754-0.1953,0.5112-0.4717,0.5264c-6.8486,0.3779-9.8325,5.1108-9.8623,5.1582
		C11.8145,9.811,11.6509,9.8984,11.481,9.8984z"/>
	<path d="M11.5493,9.8984c-0.1699,0-0.3335-0.0869-0.4263-0.2388c-0.0298-0.0474-3.0146-4.7803-9.8628-5.1582
		c-0.2759-0.0151-0.4873-0.251-0.4717-0.5264c0.0151-0.2764,0.2485-0.4956,0.5264-0.4717c4.2725,0.2354,7.1235,2.0093,8.7949,3.5059
		c-1.061-1.7612-3.292-4.0068-7.9473-5.085c-0.269-0.0625-0.4365-0.3311-0.3745-0.6001c0.063-0.2686,0.334-0.4351,0.6001-0.3745
		c8.8325,2.0464,9.6284,8.1343,9.6577,8.3926c0.0264,0.2324-0.1123,0.4521-0.3335,0.5288
		C11.6587,9.8896,11.6035,9.8984,11.5493,9.8984z"/>
</g>
<rect fill="none" width="24" height="24"/>
</svg>
