<?xml version="1.0" encoding="utf-8"?>
<!-- Generator: Adobe Illustrator 18.1.0, SVG Export Plug-In . SVG Version: 6.00 Build 0)  -->
<svg version="1.1" id="Layer_1" xmlns="http://www.w3.org/2000/svg" xmlns:xlink="http://www.w3.org/1999/xlink" x="0px" y="0px"
	 width="24px" height="24px" viewBox="0 0 24 24" enable-background="new 0 0 24 24" xml:space="preserve">
<g>
	<path d="M8.8931,23.7949c-0.1484,0-0.291-0.0664-0.3867-0.1836l-1.6553-2.0205l-2.5679,0.4844
		c-0.1758,0.0342-0.3574-0.0312-0.4736-0.168c-0.1167-0.1367-0.1504-0.3252-0.0889-0.4941l1.8921-5.1992
		c0.0942-0.2598,0.3818-0.3916,0.6406-0.2988c0.2598,0.0947,0.3936,0.3809,0.2988,0.6406l-1.5918,4.374l1.9966-0.377
		c0.1802-0.0322,0.3643,0.0332,0.4795,0.1748l1.2871,1.5713l1.4985-4.1172c0.0942-0.2598,0.3823-0.3926,0.6406-0.2988
		c0.2598,0.0947,0.3936,0.3809,0.2988,0.6406l-1.7988,4.9424c-0.0615,0.1689-0.2085,0.292-0.3857,0.3223
		C8.9487,23.793,8.9209,23.7949,8.8931,23.7949z"/>
	<path d="M15.1338,23.7949c-0.0273,0-0.0557-0.002-0.084-0.0068c-0.1768-0.0303-0.3242-0.1533-0.3857-0.3223l-1.7988-4.9424
		c-0.0947-0.2598,0.0391-0.5459,0.2988-0.6406c0.2607-0.0947,0.5459,0.0391,0.6406,0.2988l1.499,4.1172l1.2871-1.5713
		c0.1162-0.1416,0.3008-0.209,0.4795-0.1748l1.9961,0.377l-1.5918-4.374c-0.0947-0.2598,0.0391-0.5459,0.2988-0.6406
		c0.2617-0.0938,0.5459,0.0391,0.6406,0.2988l1.8926,5.1992c0.0615,0.1689,0.0273,0.3574-0.0889,0.4941s-0.2979,0.2002-0.4736,0.168
		l-2.5674-0.4854l-1.6562,2.0215C15.4248,23.7285,15.2822,23.7949,15.1338,23.7949z"/>
	<path d="M14.1748,17.4395c-0.0869,0-0.1738-0.0225-0.25-0.0674L12,16.2607l-1.9248,1.1113
		c-0.1147,0.0664-0.2524,0.082-0.3794,0.0508c-0.1279-0.0352-0.2373-0.1182-0.3037-0.2334l-1.1113-1.9248H6.0576
		c-0.2764,0-0.5-0.2236-0.5-0.5V12.542l-1.9248-1.1118c-0.1147-0.0664-0.1987-0.1758-0.2329-0.3037s-0.0166-0.2646,0.0498-0.3794
		l1.1118-1.9248L3.4497,6.897c-0.0664-0.1147-0.084-0.2515-0.0498-0.3794s0.1182-0.2373,0.2329-0.3037L5.5576,5.103V2.8799
		c0-0.2764,0.2236-0.5,0.5-0.5h2.2231l1.1113-1.9248c0.0664-0.1147,0.1758-0.1987,0.3037-0.2329
		c0.127-0.0337,0.2646-0.0161,0.3794,0.0498L12,1.3838l1.9248-1.1118c0.1143-0.0659,0.252-0.084,0.3789-0.0498
		c0.1289,0.0342,0.2373,0.1182,0.3037,0.2329l1.1123,1.9248h2.2227c0.2764,0,0.5,0.2236,0.5,0.5V5.103l1.9248,1.1108
		c0.1152,0.0664,0.1982,0.1758,0.2334,0.3037c0.0342,0.1279,0.0156,0.2646-0.0508,0.3794l-1.1113,1.9253l1.1113,1.9248
		c0.0664,0.1147,0.085,0.2515,0.0508,0.3794c-0.0352,0.1279-0.1182,0.2373-0.2334,0.3037l-1.9248,1.1118v2.2227
		c0,0.2764-0.2236,0.5-0.5,0.5h-2.2227l-1.1123,1.9248c-0.0664,0.1152-0.1748,0.1982-0.3037,0.2334
		C14.2617,17.4336,14.2178,17.4395,14.1748,17.4395z M12,15.1836c0.0859,0,0.1729,0.0225,0.25,0.0674l1.7422,1.0059l1.0059-1.7422
		c0.0889-0.1543,0.2539-0.25,0.4326-0.25h2.0117v-2.0117c0-0.1787,0.0957-0.3438,0.25-0.4331l1.7422-1.0059l-1.0059-1.7417
		c-0.0898-0.1548-0.0898-0.3452,0-0.5l1.0059-1.7422l-1.7422-1.0054c-0.1543-0.0894-0.25-0.2544-0.25-0.4331V3.3799h-2.0117
		c-0.1787,0-0.3438-0.0952-0.4326-0.25l-1.0059-1.7417L12.25,2.394c-0.1553,0.0884-0.3462,0.0879-0.5,0l-1.7417-1.0059
		L9.0024,3.1299c-0.0894,0.1548-0.2544,0.25-0.4331,0.25H6.5576v2.0117c0,0.1787-0.0952,0.3438-0.25,0.4331L4.5659,6.8301
		l1.0059,1.7422c0.0894,0.1548,0.0894,0.3452,0,0.5L4.5659,10.814l1.7417,1.0059c0.1548,0.0894,0.25,0.2544,0.25,0.4331v2.0117
		h2.0117c0.1787,0,0.3438,0.0957,0.4331,0.25l1.0059,1.7422L11.75,15.251C11.8271,15.2061,11.9136,15.1836,12,15.1836z"/>
	<path d="M12,13.9082c-2.8042,0-5.0859-2.2817-5.0859-5.0859S9.1958,3.7363,12,3.7363c2.8047,0,5.0859,2.2817,5.0859,5.0859
		S14.8047,13.9082,12,13.9082z M12,4.7363c-2.2529,0-4.0859,1.833-4.0859,4.0859S9.7471,12.9082,12,12.9082
		s4.0859-1.833,4.0859-4.0859S14.2529,4.7363,12,4.7363z"/>
</g>
<rect fill="none" width="24" height="24"/>
</svg>
