<?xml version="1.0" encoding="utf-8"?>
<!-- Generator: Adobe Illustrator 18.1.0, SVG Export Plug-In . SVG Version: 6.00 Build 0)  -->
<svg version="1.1" id="Layer_1" xmlns="http://www.w3.org/2000/svg" xmlns:xlink="http://www.w3.org/1999/xlink" x="0px" y="0px"
	 width="24px" height="24px" viewBox="0 0 24 24" enable-background="new 0 0 24 24" xml:space="preserve">
<g>
	<path d="M13.1289,23.8691L13.1289,23.8691c-0.3604,0-0.6982-0.1387-0.9521-0.3896L0.436,11.853
		c-0.2544-0.2559-0.4004-0.6045-0.4019-0.959l-0.0459-9.5063C-0.0151,0.6338,0.5762,0.0342,1.3345,0.022l9.3418-0.0508
		c0.3604,0,0.7764,0.0474,1.1318,0.3989L23.5488,11.998c0.2578,0.2559,0.4004,0.5967,0.4023,0.959
		c0.001,0.3633-0.1396,0.7051-0.3955,0.9629l-9.459,9.5498C13.8457,23.7236,13.4932,23.8691,13.1289,23.8691z M10.6763,0.9712
		L10.228,0.98L1.3447,1.022C1.1226,1.0254,0.9873,1.2085,0.9883,1.3833l0.0459,9.5063c0.0005,0.0938,0.0396,0.1865,0.1079,0.2549
		l11.7378,11.624c0.2471,0.2432,0.4062,0.0986,0.5059-0.002l9.46-9.5508c0.0684-0.0693,0.1055-0.1592,0.1055-0.2549
		c-0.001-0.0957-0.0381-0.1855-0.1055-0.252L11.1045,1.0811C11.0312,1.0083,10.9448,0.9712,10.6763,0.9712z"/>
	<path d="M5.5425,7.9614c-1.3486,0-2.4458-1.0972-2.4458-2.4463c0-1.3486,1.0972-2.4458,2.4458-2.4458s2.4458,1.0972,2.4458,2.4458
		C7.9883,6.8643,6.8911,7.9614,5.5425,7.9614z M5.5425,4.0693c-0.7974,0-1.4458,0.6484-1.4458,1.4458s0.6484,1.4463,1.4458,1.4463
		s1.4458-0.6489,1.4458-1.4463S6.3398,4.0693,5.5425,4.0693z"/>
	<path d="M12.9375,18.8262c-0.5479,0-1.0503-0.2002-1.4141-0.5635c-0.8359-0.8369-0.7236-2.3096,0.25-3.2832
		c0.9385-0.9385,2.4736-1.0566,3.2822-0.249c0.418,0.418,0.6143,0.999,0.5527,1.6377c-0.0586,0.6016-0.3438,1.1855-0.8027,1.6445
		C14.2891,18.5293,13.6074,18.8262,12.9375,18.8262z M13.6416,15.166c-0.4072,0-0.8301,0.1904-1.1611,0.5205
		c-0.584,0.584-0.6963,1.4229-0.25,1.8691c0.2236,0.2236,0.5078,0.2705,0.707,0.2705c0.4072,0,0.8301-0.1895,1.1611-0.5205
		c0.2959-0.2959,0.4785-0.6631,0.5146-1.0342c0.0322-0.335-0.0615-0.6309-0.2646-0.834
		C14.124,15.2139,13.8408,15.166,13.6416,15.166z"/>
	<path d="M12.5586,12.1943c-0.5479,0-1.0503-0.2002-1.4136-0.5635c-0.8359-0.8364-0.7236-2.3091,0.2495-3.2827
		c0.9395-0.9395,2.4746-1.0591,3.2832-0.2495c0.8359,0.8364,0.7236,2.3086-0.25,3.2822
		C13.9111,11.8979,13.2295,12.1943,12.5586,12.1943z M13.2637,8.5347c-0.4082,0-0.8311,0.1899-1.1621,0.5205
		c-0.5835,0.584-0.6953,1.4224-0.2495,1.8687c0.2241,0.2236,0.5073,0.2705,0.7065,0.2705c0.4072,0,0.8311-0.1899,1.1621-0.5205
		c0.584-0.584,0.6963-1.4219,0.25-1.8682C13.7471,8.5815,13.4629,8.5347,13.2637,8.5347z"/>
	<path d="M8.0625,14.4297c-0.2412,0-0.4541-0.1748-0.4932-0.4209c-0.0439-0.2725,0.1421-0.5293,0.4146-0.5732l9.9634-1.5942
		c0.2656-0.0459,0.5283,0.1416,0.5732,0.4146c0.043,0.2725-0.1426,0.5293-0.415,0.5732l-9.9634,1.5947
		C8.1152,14.4277,8.0889,14.4297,8.0625,14.4297z"/>
</g>
<rect x="-0.0137" y="0.0001" fill="none" width="24" height="24"/>
</svg>
