<?xml version="1.0" encoding="utf-8"?>
<!-- Generator: Adobe Illustrator 18.1.0, SVG Export Plug-In . SVG Version: 6.00 Build 0)  -->
<svg version="1.1" id="Layer_1" xmlns="http://www.w3.org/2000/svg" xmlns:xlink="http://www.w3.org/1999/xlink" x="0px" y="0px"
	 width="24px" height="24px" viewBox="0 0 24 24" enable-background="new 0 0 24 24" xml:space="preserve">
<g>
	<path d="M16.4111,24.0029h-8.854c-0.3433,0-0.6787-0.1387-0.9204-0.3818L0.377,17.3604c-0.2417-0.2412-0.3809-0.5762-0.3809-0.9199
		V7.5859c0-0.3433,0.1392-0.6787,0.3818-0.9204l6.2593-6.2588C6.8833,0.1606,7.21,0.0254,7.5571,0.0254h8.854
		c0.3467,0,0.6729,0.1353,0.9189,0.3813l6.2627,6.2588c0.2432,0.2437,0.3828,0.5801,0.3809,0.9229v8.8521
		c0,0.3477-0.1348,0.6738-0.3789,0.9199l-6.2646,6.2617C17.085,23.8682,16.7578,24.0029,16.4111,24.0029z M7.5571,1.0254
		c-0.0801,0-0.1558,0.0312-0.2129,0.0884L1.0845,7.373C1.0283,7.4292,0.9961,7.5068,0.9961,7.5859v8.8545
		c0,0.0791,0.0317,0.1572,0.0874,0.2119l6.2607,6.2627c0.0562,0.0557,0.1333,0.0879,0.2129,0.0879h8.854
		c0.0801,0,0.1553-0.0312,0.2119-0.0879l6.2637-6.2607c0.0547-0.0557,0.0869-0.1338,0.0869-0.2139V7.5859
		c0-0.0801-0.0312-0.1572-0.0879-0.2134L16.623,1.1138c-0.0566-0.0571-0.1318-0.0884-0.2119-0.0884H7.5571z"/>
	<path d="M12.4629,20.2383c-0.9629,0-1.9004-0.2656-2.71-0.7695c-0.7539-0.4697-1.4414-1.3389-2.106-2.1797
		c-0.3374-0.4258-0.6743-0.8525-1.0156-1.2197c-0.1494-0.1611-0.3472-0.2979-0.5386-0.4297
		c-0.1968-0.1367-0.4004-0.2773-0.5649-0.4531c-0.3618-0.3848-1.5229-1.7178-1.2573-2.6973
		c0.0591-0.2168,0.2432-0.606,0.8174-0.7754c0.2061-0.061,0.4111-0.0918,0.6104-0.0918c1.0381,0,1.7026,0.8018,2.2363,1.4453
		c0.21,0.2539,0.4253,0.5127,0.6182,0.6641c0.8867-0.875,0.4058-2.2295-0.4136-4.1387c-0.52-1.2114-1.0112-2.3555-0.8223-3.3149
		C7.4292,5.7075,7.9712,5.1865,8.5,5.1401c0.0146-0.0015,0.1035-0.0054,0.1182-0.0054c1.1938,0,1.7256,1.4902,2.2881,3.0684
		c0.062,0.1738,0.1245,0.3496,0.1885,0.5244c-0.0044-0.2554-0.0142-0.5171-0.0234-0.77c-0.0464-1.2368-0.0898-2.4043,0.3242-3.1157
		c0.2319-0.3979,0.6436-0.6357,1.1025-0.6357c0.5996,0,1.0996,0.3887,1.2451,0.9663c0.2178,0.8604,0.2402,1.894,0.2617,2.8936
		c0.0088,0.4028,0.0176,0.8115,0.0391,1.2061c0.0713-0.2495,0.1357-0.4976,0.1895-0.7031c0.4004-1.5317,0.8145-3.1157,1.9404-3.1157
		c0.2764,0,0.5586,0.1064,0.8389,0.3159c0.3799,0.2842,0.5898,0.7368,0.5625,1.2104c-0.0508,0.854-0.2422,1.5615-0.4609,2.2222
		c0.1025-0.167,0.2119-0.3228,0.3301-0.4604c0.5-0.5796,1.4473-0.5771,1.9541-0.0303c0.2461,0.2646,0.3662,0.6128,0.3389,0.9805
		c-0.0918,1.2231-0.6436,2.0938-1.1768,2.9355c-0.3047,0.4805-0.5928,0.9346-0.7832,1.4375
		c-0.1914,0.5049-0.2607,1.0518-0.333,1.6309c-0.1133,0.9033-0.2314,1.8369-0.8457,2.625
		C15.6738,19.5039,14.0898,20.2383,12.4629,20.2383z M5.6982,12.6221c-0.103,0-0.2134,0.0176-0.3271,0.0508
		c-0.0293,0.0088-0.125,0.04-0.1353,0.0771c-0.0732,0.2705,0.4136,1.1055,1.021,1.752c0.0918,0.0986,0.2441,0.2031,0.4053,0.3154
		c0.2236,0.1543,0.4775,0.3301,0.7012,0.5703c0.3589,0.3857,0.7139,0.833,1.0679,1.2812c0.6118,0.7734,1.2441,1.5732,1.8501,1.9502
		c0.6602,0.4111,1.3945,0.6191,2.1816,0.6191c1.3057,0,2.6191-0.6016,3.3467-1.5332c0.4453-0.5703,0.541-1.3301,0.6426-2.1348
		c0.0771-0.6113,0.1562-1.2441,0.3896-1.8604c0.2266-0.5986,0.5557-1.1172,0.874-1.6182c0.4893-0.772,0.9512-1.501,1.0234-2.4746
		c0.0068-0.0898-0.0176-0.166-0.0732-0.2256c-0.1191-0.1274-0.3359-0.1431-0.4639,0.002c-0.2412,0.2798-0.4639,0.7334-0.6797,1.1724
		c-0.4092,0.8345-0.834,1.6968-1.6035,1.8257c-0.1621,0.0264-0.3154-0.0234-0.4287-0.1309
		c-0.1133-0.1094-0.1699-0.2651-0.1504-0.4214c0.1094-0.9087,0.3721-1.6543,0.626-2.376c0.2842-0.8066,0.5527-1.5688,0.6113-2.5425
		c0.0078-0.1367-0.0537-0.2686-0.1641-0.3511c-0.1445-0.1084-0.2197-0.1167-0.2393-0.1167c-0.3535,0-0.7871,1.6602-0.9727,2.3687
		c-0.3643,1.3931-0.6172,2.2622-1.1973,2.564c-0.1348,0.0688-0.2939,0.0742-0.4307,0.0142
		c-0.1387-0.0605-0.2422-0.1802-0.2822-0.3262c-0.2402-0.8794-0.2637-1.9507-0.2861-2.9863
		c-0.0195-0.9438-0.041-1.9194-0.2305-2.6699c-0.0508-0.2012-0.2393-0.2114-0.2764-0.2114c-0.0723,0-0.1719,0.0239-0.2383,0.1387
		c-0.2681,0.4609-0.2266,1.5845-0.1895,2.5757c0.0439,1.1729,0.085,2.2803-0.3008,2.9126
		c-0.0933,0.1523-0.2734,0.2261-0.4395,0.2397c-0.1787-0.0049-0.3413-0.1045-0.4268-0.2617c-0.375-0.6909-0.6616-1.4946-0.939-2.272
		C9.5825,7.4678,9.1069,6.1348,8.6182,6.1348C8.5132,6.1499,8.3291,6.314,8.2983,6.4712c-0.1294,0.6562,0.3228,1.709,0.7598,2.7271
		c0.791,1.8433,1.7759,4.1377-0.1465,5.5352c-0.126,0.0918-0.2886,0.1221-0.4375,0.0742c-0.5264-0.1572-0.9067-0.6162-1.3091-1.1016
		C6.7026,13.1484,6.2661,12.6221,5.6982,12.6221z"/>
</g>
<rect x="-0.0137" y="0.0002" fill="none" width="24" height="24"/>
</svg>
