<?xml version="1.0" encoding="utf-8"?>
<!-- Generator: Adobe Illustrator 18.1.0, SVG Export Plug-In . SVG Version: 6.00 Build 0)  -->
<svg version="1.1" id="Layer_1" xmlns="http://www.w3.org/2000/svg" xmlns:xlink="http://www.w3.org/1999/xlink" x="0px" y="0px"
	 width="24px" height="24px" viewBox="0 0 24 24" enable-background="new 0 0 24 24" xml:space="preserve">
<g>
	<path d="M19.5596,7.9727c-0.2764,0-0.5-0.2236-0.5-0.5V1.5098c0-0.2764,0.2236-0.5,0.5-0.5s0.5,0.2236,0.5,0.5v5.9629
		C20.0596,7.749,19.8359,7.9727,19.5596,7.9727z"/>
	<path d="M22.541,4.9912h-5.9629c-0.2764,0-0.5-0.2236-0.5-0.5s0.2236-0.5,0.5-0.5h5.9629c0.2764,0,0.5,0.2236,0.5,0.5
		S22.8174,4.9912,22.541,4.9912z"/>
	<path d="M11.0093,24.0029c-2.2974,0-4.1665-1.8691-4.1665-4.167c0-1.0703,0.3994-2.0742,1.1299-2.8486V3.0117
		c0-1.5659,1.3467-2.8892,2.9409-2.8892c1.646,0,2.9028,1.2578,2.9233,2.9263v13.7266c0.8535,0.7891,1.3389,1.8916,1.3389,3.0605
		C15.1758,22.1338,13.3066,24.0029,11.0093,24.0029z M10.9136,1.1226c-1.1611,0-1.9409,0.9771-1.9409,1.8892v14.1807
		c0,0.1357-0.0557,0.2666-0.1538,0.3604c-0.6294,0.6045-0.9761,1.415-0.9761,2.2832c0,1.7461,1.4204,3.167,3.1665,3.167
		c1.7456,0,3.1665-1.4209,3.1665-3.167c0-0.9502-0.4219-1.8418-1.1562-2.4473c-0.1162-0.0947-0.1826-0.2363-0.1826-0.3857V3.0547
		C12.8232,1.9561,11.9966,1.1226,10.9136,1.1226z"/>
	<path d="M11.0093,21.2002c-0.6543,0-1.1865-0.5322-1.1865-1.1865s0.5322-1.1865,1.1865-1.1865s1.186,0.5322,1.186,1.1865
		S11.6636,21.2002,11.0093,21.2002z M11.0093,19.8271c-0.103,0-0.1865,0.084-0.1865,0.1865c0,0.2051,0.373,0.2051,0.373,0
		C11.1958,19.9111,11.1123,19.8271,11.0093,19.8271z"/>
	<path d="M11.0093,19.8271c-0.2764,0-0.5-0.2236-0.5-0.5V6.1255c0-0.2764,0.2236-0.5,0.5-0.5s0.5,0.2236,0.5,0.5v13.2017
		C11.5093,19.6035,11.2856,19.8271,11.0093,19.8271z"/>
	<path d="M8.4727,5.0352H5.8984c-0.2764,0-0.5-0.2236-0.5-0.5s0.2236-0.5,0.5-0.5h2.5742c0.2764,0,0.5,0.2236,0.5,0.5
		S8.749,5.0352,8.4727,5.0352z"/>
	<path d="M8.4727,10.0361H5.8984c-0.2764,0-0.5-0.2236-0.5-0.5s0.2236-0.5,0.5-0.5h2.5742c0.2764,0,0.5,0.2236,0.5,0.5
		S8.749,10.0361,8.4727,10.0361z"/>
	<path d="M8.4727,15.0361H5.8984c-0.2764,0-0.5-0.2236-0.5-0.5s0.2236-0.5,0.5-0.5h2.5742c0.2764,0,0.5,0.2236,0.5,0.5
		S8.749,15.0361,8.4727,15.0361z"/>
</g>
<rect x="0.0222" y="0.0354" fill="none" width="24" height="24"/>
</svg>
