<?xml version="1.0" encoding="utf-8"?>
<!-- Generator: Adobe Illustrator 18.1.0, SVG Export Plug-In . SVG Version: 6.00 Build 0)  -->
<svg version="1.1" id="Layer_1" xmlns="http://www.w3.org/2000/svg" xmlns:xlink="http://www.w3.org/1999/xlink" x="0px" y="0px"
	 width="24px" height="24px" viewBox="0 0 24 24" enable-background="new 0 0 24 24" xml:space="preserve">
<g>
	<path d="M20.8066,14.7051c-0.8438,0-2.1201-0.6875-2.1201-1.7236c0-1.0366,1.2764-1.7241,2.1201-1.7241
		c0.9502,0,1.7236,0.7739,1.7236,1.7241S21.7568,14.7051,20.8066,14.7051z M20.8066,12.2578c-0.4814,0-1.1201,0.4121-1.1201,0.7236
		s0.6387,0.7236,1.1201,0.7236c0.3994,0,0.7236-0.3242,0.7236-0.7236S21.2061,12.2578,20.8066,12.2578z"/>
	<path d="M12.752,4.7534c-0.5088,0-0.937-0.1597-1.2388-0.4614c-0.3984-0.3984-0.5464-1.0098-0.4165-1.7217
		c0.1079-0.5903,0.3965-1.1665,0.7725-1.5425C12.6445,0.2505,14,0.251,14.7773,1.0273c0.8018,0.8027,0.8018,2.1074,0,2.9087
		C14.2881,4.4253,13.4746,4.7534,12.752,4.7534z M13.3223,1.4258c-0.2812,0-0.5469,0.1094-0.7461,0.3091
		c-0.2305,0.2305-0.4248,0.6289-0.4951,1.0146c-0.0674,0.3687-0.0156,0.6807,0.1396,0.8354
		c0.1387,0.1392,0.3662,0.1685,0.5312,0.1685c0.46,0,1.0146-0.2207,1.3184-0.5244c0.4121-0.4116,0.4121-1.082,0-1.4941
		C13.8701,1.5356,13.6055,1.4258,13.3223,1.4258z"/>
	<path d="M22.9863,17h-11c-0.2764,0-0.5-0.2236-0.5-0.5s0.2236-0.5,0.5-0.5h11c0.2764,0,0.5,0.2236,0.5,0.5S23.2627,17,22.9863,17z"
		/>
	<path d="M9.4038,17H1.5391c-0.1611,0-0.312-0.0771-0.4062-0.208c-0.0938-0.1309-0.1191-0.2988-0.0674-0.4521l2.3755-7.0405
		C3.7534,8.52,4.2505,7.8574,4.8882,7.3564l3.6997-2.9062c0.7568-0.5259,1.7383-0.3926,2.2612,0.2817
		c0.3896,0.5034,0.605,2.1118,0.6904,2.9121l2.7954,1.2827c0.251,0.1152,0.3604,0.4121,0.2451,0.6631
		c-0.1152,0.2515-0.4102,0.3589-0.6631,0.2461l-3.0552-1.4023c-0.1626-0.0747-0.2729-0.2305-0.2896-0.4082
		c-0.1016-1.0986-0.333-2.438-0.5142-2.6816c-0.1934-0.249-0.5859-0.29-0.8765-0.0894L5.5063,8.1426
		C5.0059,8.5356,4.6157,9.0557,4.3784,9.6455L2.2354,16h6.4785l-1.7188-5.2539c-0.0859-0.2622,0.0571-0.5444,0.3198-0.6304
		c0.2622-0.0859,0.5449,0.0576,0.6304,0.3198l1.9336,5.9092c0.0498,0.1523,0.0239,0.3193-0.0703,0.4492
		C9.7144,16.9229,9.564,17,9.4038,17z"/>
	<path d="M7.4702,11.0908c-0.1255,0-0.251-0.0469-0.3481-0.1411c-0.1982-0.1924-0.2031-0.5088-0.0107-0.707l1.7188-1.7725
		c0.1924-0.1978,0.5088-0.2026,0.707-0.0107c0.1982,0.1924,0.2031,0.5088,0.0107,0.707L7.8291,10.939
		C7.731,11.04,7.6006,11.0908,7.4702,11.0908z"/>
	<path d="M16.1523,15h-1.6826c-0.6367,0-1.2041-0.3281-1.5166-0.8779c-0.3115-0.5479-0.3057-1.1982,0.0176-1.7422
		c0.0068-0.0117,0.0146-0.0234,0.0225-0.0352c0.0938-0.1807,0.1084-0.3745,0.04-0.5508c-0.0811-0.2095-0.2686-0.3721-0.5137-0.4468
		l-1.0571-0.2949c-0.2661-0.0737-0.4214-0.3496-0.3472-0.6157c0.0742-0.2666,0.3496-0.4233,0.6157-0.3472l1.0679,0.2979
		c0.5527,0.168,0.9736,0.5479,1.167,1.0454c0.1836,0.4746,0.1348,1.0078-0.1357,1.4629c-0.0068,0.0117-0.0146,0.0234-0.0225,0.0352
		c-0.1162,0.2236-0.1113,0.4756,0.0137,0.6963C13.9551,13.8604,14.1973,14,14.4697,14h1.6826c0.4443,0,0.834-0.3359,0.834-0.7197V12
		c0-0.2764,0.2236-0.5,0.5-0.5s0.5,0.2236,0.5,0.5v1.2803C17.9863,14.2129,17.1465,15,16.1523,15z"/>
	<path d="M4.4863,23.9014c-0.2764,0-0.5-0.2236-0.5-0.5V16.5c0-0.2764,0.2236-0.5,0.5-0.5s0.5,0.2236,0.5,0.5v6.9014
		C4.9863,23.6777,4.7627,23.9014,4.4863,23.9014z"/>
	<path d="M6.4863,23.9014c-0.2764,0-0.5-0.2236-0.5-0.5V16.5c0-0.2764,0.2236-0.5,0.5-0.5s0.5,0.2236,0.5,0.5v6.9014
		C6.9863,23.6777,6.7627,23.9014,6.4863,23.9014z"/>
</g>
<rect x="-0.0137" y="0.0002" fill="none" width="24" height="24"/>
</svg>
