<?xml version="1.0" encoding="utf-8"?>
<!-- Generator: Adobe Illustrator 18.1.0, SVG Export Plug-In . SVG Version: 6.00 Build 0)  -->
<svg version="1.1" id="Layer_1" xmlns="http://www.w3.org/2000/svg" xmlns:xlink="http://www.w3.org/1999/xlink" x="0px" y="0px"
	 width="24px" height="24px" viewBox="0 0 24 24" enable-background="new 0 0 24 24" xml:space="preserve">
<g>
	<path d="M22.8291,22H2.4863c-0.2764,0-0.5-0.2236-0.5-0.5V1.207c0-0.2764,0.2236-0.5,0.5-0.5s0.5,0.2236,0.5,0.5V21h19.8428
		c0.2764,0,0.5,0.2236,0.5,0.5S23.1055,22,22.8291,22z"/>
	<path d="M5.4956,18.9375c-0.2759,0-0.4995-0.2236-0.5-0.5c0-0.2754,0.2236-0.5,0.4995-0.5
		c0.5815-0.001,14.2402-0.1836,14.333-14.3354c0.002-0.2749,0.2256-0.4966,0.5-0.4966c0.001,0,0.002,0,0.0029,0
		c0.2764,0.002,0.499,0.2271,0.4971,0.5034C20.7285,18.7627,5.6479,18.9375,5.4956,18.9375z"/>
	<path d="M21.335,23.5264c-0.1279,0-0.2559-0.0488-0.3535-0.1465c-0.1953-0.1953-0.1953-0.5117,0-0.707l1.1406-1.1406
		l-1.1406-1.1406c-0.1953-0.1953-0.1953-0.5117,0-0.707s0.5117-0.1953,0.707,0l1.4941,1.4941c0.1953,0.1953,0.1953,0.5117,0,0.707
		l-1.4941,1.4941C21.5908,23.4775,21.4629,23.5264,21.335,23.5264z"/>
	<path d="M3.9805,3.2012c-0.1279,0-0.2559-0.0488-0.3535-0.1465L2.4863,1.9141L1.3452,3.0547c-0.1953,0.1953-0.5117,0.1953-0.707,0
		s-0.1953-0.5117,0-0.707l1.4946-1.4941c0.1953-0.1953,0.5117-0.1953,0.707,0L4.334,2.3477c0.1953,0.1953,0.1953,0.5117,0,0.707
		C4.2363,3.1523,4.1084,3.2012,3.9805,3.2012z"/>
</g>
<rect x="-0.0137" fill="none" width="24" height="24"/>
</svg>
