<?xml version="1.0" encoding="utf-8"?>
<!-- Generator: Adobe Illustrator 18.1.0, SVG Export Plug-In . SVG Version: 6.00 Build 0)  -->
<svg version="1.1" id="Layer_1" xmlns="http://www.w3.org/2000/svg" xmlns:xlink="http://www.w3.org/1999/xlink" x="0px" y="0px"
	 width="24px" height="24px" viewBox="0 0 24 24" enable-background="new 0 0 24 24" xml:space="preserve">
<g>
	<path d="M20.5195,5h-4c-0.2764,0-0.5-0.2236-0.5-0.5v-4c0-0.2764,0.2236-0.5,0.5-0.5s0.5,0.2236,0.5,0.5V4h3.5
		c0.2764,0,0.5,0.2236,0.5,0.5S20.7959,5,20.5195,5z"/>
	<path d="M19.7275,24H4.3066c-0.71,0-1.2876-0.583-1.2876-1.2998V1.3057C3.019,0.5859,3.5967,0,4.3066,0h12.2129
		c0.418,0,0.6406,0.2192,0.8027,0.3789l3.3125,3.269c0.1787,0.1763,0.3848,0.4326,0.3848,0.8521v18.2002
		C21.0195,23.417,20.4404,24,19.7275,24z M16.5127,0.9932L4.3066,1C4.1509,1,4.019,1.1401,4.019,1.3057v21.3945
		C4.019,22.8623,4.1509,23,4.3066,23h15.4209c0.1582,0,0.292-0.1377,0.292-0.2998V4.5c0-0.0347,0-0.0542-0.0869-0.1396
		l-3.3135-3.2695C16.5918,1.063,16.5332,1.0054,16.5127,0.9932z"/>
	<path d="M17.377,20H6.6714c-0.2764,0-0.5-0.2236-0.5-0.5s0.2236-0.5,0.5-0.5H17.377c0.2764,0,0.5,0.2236,0.5,0.5
		S17.6533,20,17.377,20z"/>
	<path d="M17.377,17H6.6714c-0.2764,0-0.5-0.2236-0.5-0.5s0.2236-0.5,0.5-0.5H17.377c0.2764,0,0.5,0.2236,0.5,0.5
		S17.6533,17,17.377,17z"/>
	<path d="M10.186,14H6.6714c-0.2764,0-0.5-0.2236-0.5-0.5s0.2236-0.5,0.5-0.5h3.5146c0.2764,0,0.5,0.2236,0.5,0.5
		S10.4624,14,10.186,14z"/>
	<path d="M10.186,11.0005H6.6714c-0.2764,0-0.5-0.2236-0.5-0.5s0.2236-0.5,0.5-0.5h3.5146c0.2764,0,0.5,0.2236,0.5,0.5
		S10.4624,11.0005,10.186,11.0005z"/>
	<path d="M10.186,8H6.6714c-0.2764,0-0.5-0.2236-0.5-0.5S6.395,7,6.6714,7h3.5146c0.2764,0,0.5,0.2236,0.5,0.5S10.4624,8,10.186,8z"
		/>
	<path d="M17.4424,14h-4.9932c-0.2764,0-0.5-0.2236-0.5-0.5v-6c0-0.2764,0.2236-0.5,0.5-0.5h4.9932c0.2764,0,0.5,0.2236,0.5,0.5v6
		C17.9424,13.7764,17.7188,14,17.4424,14z M12.9492,13h3.9932V8h-3.9932V13z"/>
	<path d="M17.4424,14c-0.1436,0-0.2852-0.0615-0.3848-0.1797l-4.9932-6.0005c-0.1763-0.2124-0.1475-0.5273,0.0645-0.7041
		c0.2129-0.1753,0.5273-0.1475,0.7051,0.0645l4.9932,5.9995c0.1758,0.2129,0.1475,0.5283-0.0645,0.7051
		C17.6689,13.9619,17.5557,14,17.4424,14z"/>
	<path d="M12.4492,14c-0.1133,0-0.2266-0.0381-0.3203-0.1152c-0.2119-0.1768-0.2407-0.4922-0.0645-0.7051l4.9932-5.9995
		c0.1787-0.2119,0.4922-0.2397,0.7051-0.0645c0.2119,0.1768,0.2402,0.4917,0.0645,0.7041l-4.9932,6.0005
		C12.7344,13.9385,12.5928,14,12.4492,14z"/>
</g>
<rect y="0.0001" fill="none" width="24" height="24"/>
</svg>
