<?xml version="1.0" encoding="utf-8"?>
<!-- Generator: Adobe Illustrator 18.1.0, SVG Export Plug-In . SVG Version: 6.00 Build 0)  -->
<svg version="1.1" id="Layer_1" xmlns="http://www.w3.org/2000/svg" xmlns:xlink="http://www.w3.org/1999/xlink" x="0px" y="0px"
	 width="24px" height="24px" viewBox="0 0 24 24" enable-background="new 0 0 24 24" xml:space="preserve">
<g>
	<path d="M9.4863,16.9561c-0.2764,0-0.5-0.2236-0.5-0.5v-4.8882c0-0.2764,0.2236-0.5,0.5-0.5s0.5,0.2236,0.5,0.5v4.8882
		C9.9863,16.7324,9.7627,16.9561,9.4863,16.9561z"/>
	<path d="M5.46,22c-0.1201,0-0.25-0.0498-0.3501-0.1406C5.0098,21.7598,4.96,21.6299,4.96,21.5
		c0-0.1406,0.0601-0.2705,0.1499-0.3604c0.1899-0.1797,0.52-0.1797,0.71,0.0098C5.9097,21.2402,5.96,21.3701,5.96,21.5
		s-0.0503,0.25-0.1401,0.3496C5.7197,21.9502,5.5898,22,5.46,22z"/>
	<path d="M18.4502,22c-0.1309,0-0.2607-0.0498-0.3506-0.1504C18,21.7598,17.9502,21.6299,17.9502,21.5
		c0-0.1406,0.0596-0.2705,0.1494-0.3604c0.1602-0.1699,0.5205-0.1797,0.71,0.0098c0.0898,0.0908,0.1406,0.2207,0.1406,0.3506
		s-0.0508,0.25-0.1406,0.3496C18.71,21.9502,18.5801,22,18.4502,22z"/>
	<g>
		<path d="M14.457,22H9.5044c-0.2764,0-0.5-0.2236-0.5-0.5s0.2236-0.5,0.5-0.5h4.9526c0.2764,0,0.5,0.2236,0.5,0.5
			S14.7334,22,14.457,22z"/>
		<g>
			<path d="M5.4629,23.9482c-1.3501,0-2.4482-1.0986-2.4482-2.4482s1.0981-2.4482,2.4482-2.4482
				c1.3496,0,2.4478,1.0986,2.4478,2.4482S6.8125,23.9482,5.4629,23.9482z M5.4629,20.0518c-0.7983,0-1.4482,0.6494-1.4482,1.4482
				s0.6499,1.4482,1.4482,1.4482S6.9106,22.2988,6.9106,21.5S6.2612,20.0518,5.4629,20.0518z"/>
			<path d="M18.4512,23.9482c-1.3496,0-2.4482-1.0986-2.4482-2.4482s1.0986-2.4482,2.4482-2.4482s2.4473,1.0986,2.4473,2.4482
				S19.8008,23.9482,18.4512,23.9482z M18.4512,20.0518c-0.7988,0-1.4482,0.6494-1.4482,1.4482s0.6494,1.4482,1.4482,1.4482
				c0.7979,0,1.4473-0.6494,1.4473-1.4482S19.249,20.0518,18.4512,20.0518z"/>
			<path d="M23.2822,22H22.416c-0.2764,0-0.5-0.2236-0.5-0.5s0.2236-0.5,0.5-0.5h0.3418c-0.3018-3.7568-3.1992-3.9316-4.7861-4.0273
				l-0.2842-0.0176c-0.6162-0.0459-0.7529-0.5742-0.8047-0.7734c-0.3213-1.249-1.5244-4.1455-5.7344-4.1455
				c-0.0156,0-0.0312,0-0.0474,0h-0.2793c-0.3564,0-0.9312,0.001-1.0142,0.0029c-5.0488,0.1484-5.8281,2.9258-5.9287,4.1133
				c-0.0347,0.4131-0.3345,0.7568-0.7637,0.877C1.5039,17.4824,1.1919,19.9385,1.1328,21h0.186c0.2764,0,0.5,0.2236,0.5,0.5
				s-0.2236,0.5-0.5,0.5H0.6196c-0.2715,0-0.4937-0.2168-0.5-0.4883c-0.0044-0.1895-0.0771-4.6582,2.7261-5.4453
				c0.1333-1.1328,0.9146-4.8496,6.9346-5.0273c0.0869-0.002,0.6758-0.0024,1.041-0.0024l0.2754-0.0005c0.0171,0,0.0352,0,0.0527,0
				c5.0479,0,6.4053,3.7441,6.7021,4.8955c0.0029,0.0117,0.0059,0.0225,0.0078,0.0322l0.1719,0.0107
				c1.5488,0.0938,5.6621,0.3418,5.751,5.5166c0.002,0.1348-0.0498,0.2637-0.1436,0.3594S23.416,22,23.2822,22z"/>
		</g>
	</g>
	<path d="M4.0972,11.748c-0.0312,0-0.063-0.0029-0.0952-0.0088c-0.271-0.0522-0.4482-0.3145-0.3965-0.5859
		C3.9927,9.1431,5.7617,7.6836,7.812,7.6836c1.4248,0,2.7524,0.7061,3.5513,1.8887c0.1548,0.2285,0.0947,0.5396-0.1343,0.6938
		c-0.2275,0.1553-0.5391,0.0947-0.6938-0.1343C9.9219,9.2251,8.9038,8.6836,7.812,8.6836c-1.5718,0-2.9277,1.1182-3.2241,2.6592
		C4.5415,11.5815,4.332,11.748,4.0972,11.748z"/>
	<path d="M15.9639,10.7109c-1.5664,0-2.8408-1.2744-2.8408-2.8408c0-1.5669,1.2744-2.8413,2.8408-2.8413
		c1.5674,0,2.8418,1.2744,2.8418,2.8413C18.8057,9.4365,17.5312,10.7109,15.9639,10.7109z M15.9639,6.0288
		c-1.0146,0-1.8408,0.8262-1.8408,1.8413s0.8262,1.8408,1.8408,1.8408c1.0156,0,1.8418-0.8257,1.8418-1.8408
		S16.9795,6.0288,15.9639,6.0288z"/>
	<path d="M9.5439,6.4355c-1.0903,0-1.9771-0.8867-1.9771-1.9771c0-1.0898,0.8867-1.9766,1.9771-1.9766
		c1.0898,0,1.9766,0.8867,1.9766,1.9766C11.5205,5.5488,10.6338,6.4355,9.5439,6.4355z M9.5439,3.4819
		c-0.5386,0-0.9771,0.438-0.9771,0.9766s0.4385,0.9771,0.9771,0.9771s0.9766-0.4385,0.9766-0.9771S10.0825,3.4819,9.5439,3.4819z"/>
	<path d="M14.3027,3.0557c-0.7842,0-1.4219-0.6382-1.4219-1.4224s0.6377-1.4224,1.4219-1.4224s1.4229,0.6382,1.4229,1.4224
		S15.0869,3.0557,14.3027,3.0557z M14.3027,1.2109c-0.2324,0-0.4219,0.1895-0.4219,0.4224s0.1895,0.4224,0.4219,0.4224
		c0.2334,0,0.4229-0.1895,0.4229-0.4224S14.5361,1.2109,14.3027,1.2109z"/>
	<path d="M17.7236,16.9561H3.168c-0.2764,0-0.5-0.2236-0.5-0.5s0.2236-0.5,0.5-0.5h14.5557c0.2764,0,0.5,0.2236,0.5,0.5
		S18,16.9561,17.7236,16.9561z"/>
</g>
<rect x="-0.0136" fill="none" width="24" height="24"/>
</svg>
