<?xml version="1.0" encoding="utf-8"?>
<!-- Generator: Adobe Illustrator 18.1.0, SVG Export Plug-In . SVG Version: 6.00 Build 0)  -->
<svg version="1.1" id="Layer_1" xmlns="http://www.w3.org/2000/svg" xmlns:xlink="http://www.w3.org/1999/xlink" x="0px" y="0px"
	 width="24px" height="24px" viewBox="0 0 24 24" enable-background="new 0 0 24 24" xml:space="preserve">
<g>
	<path d="M12.4639,24.0068H3.5273c-1.396,0-2.5317-1.1357-2.5317-2.5312V2.5029c0-1.3955,1.1357-2.5312,2.5317-2.5312h8.9365
		c1.3955,0,2.5312,1.1357,2.5312,2.5312c0,0.2764-0.2236,0.5-0.5,0.5s-0.5-0.2236-0.5-0.5c0-0.8442-0.6865-1.5312-1.5312-1.5312
		H3.5273c-0.8447,0-1.5317,0.687-1.5317,1.5312v18.9727c0,0.8447,0.687,1.5312,1.5317,1.5312h8.9365
		c0.8447,0,1.5312-0.6865,1.5312-1.5312v-5.999c0-0.2764,0.2236-0.5,0.5-0.5s0.5,0.2236,0.5,0.5v5.999
		C14.9951,22.8711,13.8594,24.0068,12.4639,24.0068z"/>
	<path d="M7.9956,22.3809c-0.7461,0-1.3535-0.6074-1.3535-1.3535s0.6074-1.3525,1.3535-1.3525s1.353,0.6064,1.353,1.3525
		S8.7417,22.3809,7.9956,22.3809z M7.9956,20.6748c-0.1948,0-0.3535,0.1582-0.3535,0.3525c0,0.1953,0.1587,0.3535,0.3535,0.3535
		s0.353-0.1582,0.353-0.3535C8.3486,20.833,8.1904,20.6748,7.9956,20.6748z"/>
	<path d="M14.5049,18.998H1.5044c-0.2764,0-0.5-0.2236-0.5-0.5v-15c0-0.2764,0.2236-0.5,0.5-0.5h9.1523c0.2764,0,0.5,0.2236,0.5,0.5
		s-0.2236,0.5-0.5,0.5H2.0044v14h12.5005c0.2764,0,0.5,0.2236,0.5,0.5S14.7812,18.998,14.5049,18.998z"/>
	<path d="M12.5,17.5908c-0.0732,0-0.1465-0.0156-0.2158-0.0488C12.1104,17.459,12,17.2832,12,17.0908v-3.4746
		c-1.981-0.6553-3.9761-2.9028-3.9761-5.7065c0-3.2598,2.4692-5.9116,5.5044-5.9116h4.9834c2.9902,0,5.4229,2.6914,5.4229,6
		s-2.4326,6-5.4229,6h-1.3926l-4.3047,3.4814C12.7236,17.5527,12.6123,17.5908,12.5,17.5908z M13.5283,2.998
		c-2.4414,0-4.5044,2.249-4.5044,4.9116c0,2.4937,1.8608,4.4536,3.5854,4.8384C12.8379,12.7998,13,13.002,13,13.2363v2.8066
		l3.6279-2.9336c0.0889-0.0723,0.2002-0.1113,0.3145-0.1113h1.5693c2.3975,0,4.4229-2.2896,4.4229-5s-2.0254-5-4.4229-5H13.5283z"/>
	<path d="M20,6.998h-7c-0.2764,0-0.5-0.2236-0.5-0.5s0.2236-0.5,0.5-0.5h7c0.2764,0,0.5,0.2236,0.5,0.5S20.2764,6.998,20,6.998z"/>
	<path d="M16,9.998h-3c-0.2764,0-0.5-0.2236-0.5-0.5s0.2236-0.5,0.5-0.5h3c0.2764,0,0.5,0.2236,0.5,0.5S16.2764,9.998,16,9.998z"/>
</g>
<rect y="-0.002" fill="none" width="24" height="24"/>
</svg>
