<?xml version="1.0" encoding="utf-8"?>
<!-- Generator: Adobe Illustrator 18.1.0, SVG Export Plug-In . SVG Version: 6.00 Build 0)  -->
<svg version="1.1" id="Layer_1" xmlns="http://www.w3.org/2000/svg" xmlns:xlink="http://www.w3.org/1999/xlink" x="0px" y="0px"
	 width="24px" height="24px" viewBox="0 0 24 24" enable-background="new 0 0 24 24" xml:space="preserve">
<g>
	<path d="M0.5874,19.9941c-0.1001,0-0.1992-0.0303-0.2842-0.0889c-0.1353-0.0928-0.2158-0.2471-0.2158-0.4111V4.2646
		c0-0.208,0.1284-0.394,0.3232-0.4678l5.9248-2.2422c0.125-0.0459,0.2642-0.0425,0.3857,0.0137l4.7651,2.1895l5.6904-2.6147
		c0.0918-0.042,0.1934-0.0542,0.292-0.0391l6.1123,1.0254c0.2402,0.0405,0.417,0.249,0.417,0.4932v15.229
		c0,0.1523-0.0693,0.2959-0.1885,0.3916c-0.1191,0.0938-0.2744,0.1318-0.4238,0.0957l-5.8057-1.3359l-6.1118,2.8369
		c-0.1318,0.0615-0.2842,0.0625-0.4155,0.0029L6.4956,17.792l-5.731,2.1699C0.707,19.9834,0.647,19.9941,0.5874,19.9941z
		 M6.5122,16.751c0.0703,0,0.1401,0.0146,0.2051,0.0439l4.5371,2.042l6.0601-2.8125c0.1016-0.0469,0.2139-0.0586,0.3232-0.0342
		l5.3604,1.2334V3.0459l-5.543-0.9302l-5.7598,2.6465c-0.1328,0.0615-0.2852,0.0615-0.418,0L6.4937,2.564L1.0874,4.6099v14.1606
		l5.2476-1.9873C6.3921,16.7617,6.4521,16.751,6.5122,16.751z"/>
	<path d="M19.0273,9.1313c-0.1953,0-0.3809-0.1152-0.4609-0.3071l-1.1006-2.6343c-0.1064-0.2549,0.0137-0.5479,0.2686-0.6543
		c0.2529-0.106,0.5469,0.0137,0.6533,0.2686l1.1006,2.6343c0.1064,0.2549-0.0137,0.5479-0.2686,0.6543
		C19.1572,9.1191,19.0918,9.1313,19.0273,9.1313z"/>
	<path d="M17.1602,8.3647c-0.1953,0-0.3809-0.1152-0.4609-0.3071c-0.1064-0.2549,0.0137-0.5479,0.2686-0.6543l2.6338-1.1011
		c0.2529-0.105,0.5469,0.0137,0.6533,0.2686s-0.0137,0.5479-0.2686,0.6543l-2.6338,1.1011
		C17.29,8.3525,17.2246,8.3647,17.1602,8.3647z"/>
	<g>
		<g>
			<path d="M4.1206,13.8389c-0.0684,0-0.1372-0.0137-0.2031-0.043c-0.2524-0.1123-0.3657-0.4082-0.2534-0.6602
				c0,0,0.167-0.376,0.4482-0.9238c0.127-0.2451,0.4272-0.3428,0.6733-0.2163c0.2456,0.1265,0.3423,0.4272,0.2163,0.6733
				c-0.2642,0.5137-0.4219,0.8672-0.4248,0.873C4.4946,13.7285,4.312,13.8389,4.1206,13.8389z"/>
			<path d="M13.6846,14.7217c-0.1299-0.0029-0.2471-0.0215-0.3613-0.0547c-0.2656-0.0771-0.418-0.3545-0.3418-0.6191
				c0.0771-0.2656,0.3564-0.4219,0.6191-0.3418c0.2979,0.0869,0.6113-0.126,1.0176-0.5283c0.1953-0.1943,0.5137-0.1924,0.707,0.0039
				c0.1943,0.1963,0.1924,0.5127-0.0039,0.707C14.7637,14.4414,14.2129,14.7217,13.6846,14.7217z M11.2422,12.127
				c-0.167,0-0.3306-0.084-0.4253-0.2368l-0.1685-0.272c-0.2466-0.3984-0.4946-0.7993-0.7441-1.1724
				c-0.1533-0.23-0.0913-0.5405,0.1382-0.6938c0.23-0.1538,0.54-0.0908,0.6938,0.1382c0.2554,0.3828,0.5098,0.7935,0.7622,1.2021
				l0.168,0.2705c0.1455,0.2344,0.0737,0.5425-0.1611,0.688C11.4233,12.1025,11.332,12.127,11.2422,12.127z M6.394,10.0356
				c-0.1128,0-0.2261-0.0381-0.3198-0.1162C5.8623,9.7427,5.8335,9.4272,6.0107,9.2153c0.522-0.626,1.0073-1.0327,1.4834-1.2432
				C7.7485,7.8618,8.042,7.9751,8.1538,8.2275C8.2651,8.48,8.1509,8.7754,7.8984,8.8872C7.5752,9.0298,7.188,9.3647,6.7783,9.856
				C6.6797,9.9746,6.5376,10.0356,6.394,10.0356z"/>
			<path d="M16.876,11.1562c-0.0752,0-0.1523-0.0171-0.2236-0.0527c-0.2471-0.124-0.3467-0.4243-0.2236-0.6714
				c0.2549-0.5088,0.4082-0.8677,0.4111-0.874c0.1084-0.2549,0.4043-0.373,0.6553-0.2646c0.2539,0.1079,0.373,0.4014,0.2646,0.6553
				c0,0-0.1631,0.3843-0.4365,0.9316C17.2354,11.0552,17.0586,11.1562,16.876,11.1562z"/>
		</g>
	</g>
</g>
<rect x="-0.0136" y="0.0001" fill="none" width="24" height="24"/>
</svg>
