<?xml version="1.0" encoding="utf-8"?>
<!-- Generator: Adobe Illustrator 18.1.0, SVG Export Plug-In . SVG Version: 6.00 Build 0)  -->
<svg version="1.1" id="Layer_1" xmlns="http://www.w3.org/2000/svg" xmlns:xlink="http://www.w3.org/1999/xlink" x="0px" y="0px"
	 width="24px" height="24px" viewBox="0 0 24 24" enable-background="new 0 0 24 24" xml:space="preserve">
<g>
	<path d="M12.1084,14.9482H3.8545c-0.4492,0-0.8145-0.3672-0.8145-0.8193v-1.1211c0-0.3379,0.2104-0.6455,0.5234-0.7656
		c2.1182-0.8188,2.6826-1.2119,2.8301-1.3486v-0.1074c-0.2598-0.3115-0.4663-0.6963-0.606-1.1294
		c-0.1924-0.188-0.3193-0.4385-0.3569-0.7095C5.3926,8.6724,5.4468,8.4004,5.584,8.165V7.3135c0-1.3853,0.9185-2.2461,2.3975-2.2461
		c1.501,0,2.397,0.8398,2.397,2.2461v0.8506c0.1382,0.2368,0.1924,0.5098,0.1538,0.7852c-0.0381,0.271-0.1655,0.5205-0.3579,0.708
		c-0.1392,0.4331-0.3457,0.8179-0.605,1.1289v0.1265c0.1064,0.0884,0.6309,0.4795,2.832,1.3296
		c0.3115,0.1211,0.5215,0.4287,0.5215,0.7656v1.1211C12.9229,14.5811,12.5576,14.9482,12.1084,14.9482z M4.04,13.9482h7.8828
		v-0.8184c-2.8613-1.1143-3.2158-1.5688-3.3311-1.9385c-0.0146-0.0483-0.0225-0.0986-0.0225-0.1489v-0.4482
		c0-0.1309,0.0513-0.2559,0.1426-0.3496c0.2417-0.2471,0.4297-0.5952,0.5449-1.0073c0.0308-0.1113,0.0996-0.209,0.1948-0.2754
		C9.5,8.9277,9.5332,8.873,9.5415,8.811c0.0063-0.0444,0.0024-0.1118-0.0513-0.1777C9.418,8.5439,9.3784,8.4326,9.3784,8.3179
		V7.3135c0-0.8501-0.4438-1.2461-1.397-1.2461c-0.9272,0-1.3975,0.4194-1.3975,1.2461v1.0049c0,0.1147-0.0396,0.2261-0.1118,0.3154
		C6.4189,8.6992,6.415,8.7656,6.4214,8.8101c0.0083,0.0625,0.0415,0.1182,0.0908,0.1528C6.6064,9.0293,6.6748,9.126,6.7056,9.2373
		c0.1147,0.4116,0.3037,0.7598,0.5454,1.0073c0.0913,0.0938,0.1426,0.2188,0.1426,0.3496v0.4482
		c0,0.0503-0.0078,0.1006-0.0225,0.1489C7.2554,11.561,6.9009,12.0156,4.04,13.1299V13.9482z"/>
	<path d="M20.4814,11.9888h-5.9619c-0.2764,0-0.5-0.2236-0.5-0.5s0.2236-0.5,0.5-0.5h5.9619c0.2764,0,0.5,0.2236,0.5,0.5
		S20.7578,11.9888,20.4814,11.9888z"/>
	<path d="M12.1084,14.9482H3.8545c-0.4492,0-0.8145-0.3672-0.8145-0.8193v-1.1211c0-0.3379,0.2104-0.6455,0.5234-0.7656
		c2.1182-0.8188,2.6826-1.2119,2.8301-1.3486v-0.1074c-0.2598-0.3115-0.4663-0.6963-0.606-1.1294
		c-0.1924-0.188-0.3193-0.4385-0.3569-0.7095C5.3926,8.6724,5.4468,8.4004,5.584,8.165V7.3135c0-1.3853,0.9185-2.2461,2.3975-2.2461
		c1.501,0,2.397,0.8398,2.397,2.2461v0.8506c0.1382,0.2368,0.1924,0.5098,0.1538,0.7852c-0.0381,0.271-0.1655,0.5205-0.3579,0.708
		c-0.1392,0.4331-0.3457,0.8179-0.605,1.1289v0.1265c0.1064,0.0884,0.6309,0.4795,2.832,1.3296
		c0.3115,0.1211,0.5215,0.4287,0.5215,0.7656v1.1211C12.9229,14.5811,12.5576,14.9482,12.1084,14.9482z M4.04,13.9482h7.8828
		v-0.8184c-2.8613-1.1143-3.2158-1.5688-3.3311-1.9385c-0.0146-0.0483-0.0225-0.0986-0.0225-0.1489v-0.4482
		c0-0.1309,0.0513-0.2559,0.1426-0.3496c0.2417-0.2471,0.4297-0.5952,0.5449-1.0073c0.0308-0.1113,0.0996-0.209,0.1948-0.2754
		C9.5,8.9277,9.5332,8.873,9.5415,8.811c0.0063-0.0444,0.0024-0.1118-0.0513-0.1777C9.418,8.5439,9.3784,8.4326,9.3784,8.3179
		V7.3135c0-0.8501-0.4438-1.2461-1.397-1.2461c-0.9272,0-1.3975,0.4194-1.3975,1.2461v1.0049c0,0.1147-0.0396,0.2261-0.1118,0.3154
		C6.4189,8.6992,6.415,8.7656,6.4214,8.8101c0.0083,0.0625,0.0415,0.1182,0.0908,0.1528C6.6064,9.0293,6.6748,9.126,6.7056,9.2373
		c0.1147,0.4116,0.3037,0.7598,0.5454,1.0073c0.0913,0.0938,0.1426,0.2188,0.1426,0.3496v0.4482
		c0,0.0503-0.0078,0.1006-0.0225,0.1489C7.2554,11.561,6.9009,12.0156,4.04,13.1299V13.9482z"/>
	<path d="M20.4814,11.9888h-5.9619c-0.2764,0-0.5-0.2236-0.5-0.5s0.2236-0.5,0.5-0.5h5.9619c0.2764,0,0.5,0.2236,0.5,0.5
		S20.7578,11.9888,20.4814,11.9888z"/>
	<path d="M20.4814,8.9888h-5.9619c-0.2764,0-0.5-0.2236-0.5-0.5s0.2236-0.5,0.5-0.5h5.9619c0.2764,0,0.5,0.2236,0.5,0.5
		S20.7578,8.9888,20.4814,8.9888z"/>
	<path d="M20.4814,8.9888h-5.9619c-0.2764,0-0.5-0.2236-0.5-0.5s0.2236-0.5,0.5-0.5h5.9619c0.2764,0,0.5,0.2236,0.5,0.5
		S20.7578,8.9888,20.4814,8.9888z"/>
	<path d="M23.4873,22.0059h-4.998c-0.2764,0-0.5-0.2236-0.5-0.5v-1.4355c0-0.5576-0.4502-1.0117-1.0029-1.0117
		c-0.5537,0-1.0039,0.4541-1.0039,1.0117v1.4355c0,0.2764-0.2236,0.5-0.5,0.5H8.4883c-0.2764,0-0.5-0.2236-0.5-0.5v-1.4355
		c0-0.5576-0.4502-1.0117-1.0034-1.0117s-1.0034,0.4541-1.0034,1.0117v1.4355c0,0.2764-0.2236,0.5-0.5,0.5H0.5083
		c-0.2764,0-0.5-0.2236-0.5-0.5V1.5317c0-0.2764,0.2236-0.5,0.5-0.5h22.979c0.2764,0,0.5,0.2236,0.5,0.5v19.9741
		C23.9873,21.7822,23.7637,22.0059,23.4873,22.0059z M18.9893,21.0059h3.998V2.0317H1.0083v18.9741h3.9731v-0.9355
		c0-1.1094,0.8989-2.0117,2.0034-2.0117s2.0034,0.9023,2.0034,2.0117v0.9355h5.9941v-0.9355c0-1.1094,0.8994-2.0117,2.0039-2.0117
		s2.0029,0.9023,2.0029,2.0117V21.0059z"/>
</g>
<rect x="0.0005" y="0.0004" fill="none" width="24" height="24"/>
</svg>
