<?xml version="1.0" encoding="utf-8"?>
<!-- Generator: Adobe Illustrator 18.1.0, SVG Export Plug-In . SVG Version: 6.00 Build 0)  -->
<svg version="1.1" id="Layer_1" xmlns="http://www.w3.org/2000/svg" xmlns:xlink="http://www.w3.org/1999/xlink" x="0px" y="0px"
	 width="24px" height="24px" viewBox="0 0 24 24" enable-background="new 0 0 24 24" xml:space="preserve">
<g>
	<path d="M22.2656,17.2539c-0.1807,0-0.3555-0.0986-0.4443-0.2695l-1.8105-3.4951l-3.4951,1.8105
		c-0.2422,0.126-0.5459,0.0312-0.6738-0.2148c-0.127-0.2451-0.0312-0.5469,0.2148-0.6738l3.9385-2.04
		c0.2422-0.127,0.5449-0.0312,0.6738,0.2139l2.041,3.9385c0.127,0.2451,0.0312,0.5469-0.2139,0.6748
		C22.4219,17.2363,22.3438,17.2539,22.2656,17.2539z"/>
	<path d="M0.6987,17.2539c-0.0771,0-0.1558-0.0176-0.2295-0.0557c-0.2451-0.127-0.3408-0.4287-0.2139-0.6738l2.04-3.9385
		c0.1265-0.2451,0.4272-0.3428,0.6738-0.2148l3.939,2.04c0.2451,0.127,0.3408,0.4287,0.2139,0.6738
		c-0.1265,0.2451-0.4272,0.3418-0.6738,0.2148l-3.4951-1.8105l-1.8101,3.4941C1.0542,17.1553,0.8799,17.2539,0.6987,17.2539z"/>
	<path d="M11.4824,22.0576c-5.0967,0-9.2432-4.1465-9.2432-9.2422c0-0.2764,0.2236-0.5,0.5-0.5s0.5,0.2236,0.5,0.5
		c0,4.5449,3.6978,8.2422,8.2432,8.2422c4.5449,0,8.2422-3.6973,8.2422-8.2422c0-0.2764,0.2236-0.5,0.5-0.5s0.5,0.2236,0.5,0.5
		C20.7246,17.9111,16.5781,22.0576,11.4824,22.0576z"/>
	<path d="M11.4824,22.0576c-0.2764,0-0.5-0.2236-0.5-0.5V5.7832c0-0.2764,0.2236-0.5,0.5-0.5s0.5,0.2236,0.5,0.5v15.7744
		C11.9824,21.834,11.7588,22.0576,11.4824,22.0576z"/>
	<path d="M11.4824,6.2832c-1.2485,0-2.2642-1.0156-2.2642-2.2637s1.0156-2.2637,2.2642-2.2637c1.248,0,2.2637,1.0156,2.2637,2.2637
		S12.7305,6.2832,11.4824,6.2832z M11.4824,2.7559c-0.6973,0-1.2642,0.5669-1.2642,1.2637s0.5669,1.2637,1.2642,1.2637
		s1.2637-0.5669,1.2637-1.2637S12.1797,2.7559,11.4824,2.7559z"/>
	<path d="M15.041,7.0415H7.9321c-0.2764,0-0.5-0.2236-0.5-0.5s0.2236-0.5,0.5-0.5h7.1089c0.2764,0,0.5,0.2236,0.5,0.5
		S15.3174,7.0415,15.041,7.0415z"/>
</g>
<rect x="-0.0136" y="0.0002" fill="none" width="24" height="24"/>
</svg>
