<?xml version="1.0" encoding="utf-8"?>
<!-- Generator: Adobe Illustrator 18.1.0, SVG Export Plug-In . SVG Version: 6.00 Build 0)  -->
<svg version="1.1" id="Layer_1" xmlns="http://www.w3.org/2000/svg" xmlns:xlink="http://www.w3.org/1999/xlink" x="0px" y="0px"
	 width="24px" height="24px" viewBox="0 0 24 24" enable-background="new 0 0 24 24" xml:space="preserve">
<g>
	<path d="M11.499,23.8457c-1.4019,0-2.5425-1.1406-2.5425-2.542s1.1406-2.542,2.5425-2.542c1.4014,0,2.542,1.1406,2.542,2.542
		S12.9004,23.8457,11.499,23.8457z M11.499,19.7617c-0.8506,0-1.5425,0.6914-1.5425,1.542s0.6919,1.542,1.5425,1.542
		s1.542-0.6914,1.542-1.542S12.3496,19.7617,11.499,19.7617z"/>
	<path d="M11.5,19.7617c-0.2764,0-0.5-0.2236-0.5-0.5V1c0-0.2764,0.2236-0.5,0.5-0.5S12,0.7236,12,1v18.2617
		C12,19.5381,11.7764,19.7617,11.5,19.7617z"/>
	<path d="M11.5278,13.3213c-0.1719,0-0.3389-0.0889-0.4321-0.2471c-0.1392-0.2383-0.0591-0.5449,0.1792-0.6846L18,8.4536V6.5
		C18,6.2236,18.2236,6,18.5,6S19,6.2236,19,6.5v2.2402c0,0.1777-0.0938,0.3418-0.2471,0.4316l-6.9731,4.0811
		C11.7007,13.2988,11.6138,13.3213,11.5278,13.3213z"/>
	<path d="M11.4868,17.3535c-0.0981,0-0.1973-0.0293-0.2842-0.0889l-6.9873-4.8408C4.0806,12.3301,4,12.1768,4,12.0127V9.5063
		c0-0.2764,0.2236-0.5,0.5-0.5S5,9.23,5,9.5063v2.2446l6.772,4.6914c0.2271,0.1572,0.2837,0.4688,0.1265,0.6963
		C11.8013,17.2783,11.6455,17.3535,11.4868,17.3535z"/>
	<path d="M19.5,7h-2C17.2236,7,17,6.7764,17,6.5v-2C17,4.2236,17.2236,4,17.5,4h2C19.7764,4,20,4.2236,20,4.5v2
		C20,6.7764,19.7764,7,19.5,7z M18,6h1V5h-1V6z"/>
	<path d="M9.4492,3.7212c-0.1104,0-0.2217-0.0366-0.3145-0.1113C8.9204,3.436,8.8872,3.1211,9.061,2.9062l2.0493-2.5293
		c0.0952-0.1172,0.2378-0.1851,0.3887-0.1851l0,0c0.1509,0,0.2935,0.0679,0.3887,0.1851l2.0488,2.5293
		c0.1738,0.2148,0.1406,0.5298-0.0742,0.7036C13.6475,3.7817,13.333,3.75,13.1592,3.5361L11.499,1.4863L9.8384,3.5361
		C9.7393,3.6577,9.5952,3.7212,9.4492,3.7212z"/>
	<path d="M4.5112,10.0063c-0.8389,0-1.521-0.6821-1.521-1.521s0.6821-1.5215,1.521-1.5215s1.521,0.6826,1.521,1.5215
		S5.3501,10.0063,4.5112,10.0063z M4.5112,7.9639c-0.2871,0-0.521,0.2339-0.521,0.5215c0,0.2871,0.2339,0.521,0.521,0.521
		s0.521-0.2339,0.521-0.521C5.0322,8.1978,4.7983,7.9639,4.5112,7.9639z"/>
</g>
<rect fill="none" width="24" height="24"/>
</svg>
