<?xml version="1.0" encoding="utf-8"?>
<!-- Generator: Adobe Illustrator 18.1.0, SVG Export Plug-In . SVG Version: 6.00 Build 0)  -->
<svg version="1.1" id="Layer_1" xmlns="http://www.w3.org/2000/svg" xmlns:xlink="http://www.w3.org/1999/xlink" x="0px" y="0px"
	 width="24px" height="24px" viewBox="0 0 24 24" enable-background="new 0 0 24 24" xml:space="preserve">
<g>
	<path d="M11.9883,23.916c-0.2808,0-0.5518-0.0605-0.7627-0.1719c-0.1602-0.084-0.2627-0.248-0.2676-0.4287
		c-0.0811-3.0186-5.498-4.2266-5.5527-4.2393c-0.2505-0.0537-0.4199-0.2891-0.3916-0.543c0.1118-1.0059,0.6016-1.5156,0.6572-1.5703
		c0.1064-0.1045,0.2505-0.1562,0.4033-0.1406c3.4541,0.3613,8.3721,0.3613,11.8281,0c0.1484-0.0127,0.2959,0.0361,0.4023,0.1406
		c0.0557,0.0547,0.5459,0.5645,0.6582,1.5693c0.0283,0.2549-0.1406,0.4902-0.3916,0.5439
		c-0.0547,0.0127-5.4717,1.2207-5.5527,4.2393c-0.0049,0.1807-0.1074,0.3457-0.2686,0.4297
		C12.5391,23.8555,12.2686,23.916,11.9883,23.916z M11.9282,22.9141c0.0381,0.002,0.0815,0.0029,0.1206,0
		c0.3936-2.958,4.4199-4.3096,5.833-4.6953c-0.0488-0.1602-0.1084-0.2842-0.1602-0.373c-3.3984,0.3301-8.0693,0.3301-11.4673,0
		c-0.0513,0.0879-0.1108,0.2119-0.1602,0.373C7.5068,18.6045,11.5347,19.9561,11.9282,22.9141z"/>
	<path d="M7.7417,12.0498c-0.1079,0-0.2173-0.0039-0.3301-0.0107c-1.2891-0.0815-2.3125-0.9204-2.7373-2.2432
		C4.1392,8.1294,4.6646,6.1738,5.9238,5.1455C6.0718,5.0259,6.2744,4.999,6.4473,5.0776c0.1606,0.0728,3.9463,1.8145,5.3145,4.1768
		c0.0869,0.1494,0.0898,0.333,0.0088,0.4858C11.7202,9.8345,10.5078,12.0498,7.7417,12.0498z M6.3291,6.1313
		C5.5566,6.9448,5.2534,8.3286,5.6265,9.4902c0.1753,0.5464,0.6489,1.4746,1.8486,1.5508c1.8457,0.1152,2.896-1.0312,3.2617-1.5386
		C9.6348,7.8833,7.1792,6.5571,6.3291,6.1313z"/>
	<path d="M12.6709,10.0049h-1.3418c-0.2764,0-0.5-0.2236-0.5-0.5s0.2236-0.5,0.5-0.5h1.3418c0.2764,0,0.5,0.2236,0.5,0.5
		S12.9473,10.0049,12.6709,10.0049z"/>
	<path d="M6.2397,6.0327c-0.0669,0-0.1348-0.0137-0.2002-0.042C5.7866,5.8799,5.6714,5.585,5.7822,5.332l1.9854-4.5278
		c0.1104-0.2529,0.4033-0.3677,0.6587-0.2573c0.2529,0.1108,0.3682,0.4058,0.2573,0.6587L6.6982,5.7334
		C6.6157,5.9209,6.4326,6.0327,6.2397,6.0327z"/>
	<path d="M16.2588,12.0498L16.2588,12.0498c-2.7666-0.001-3.9785-2.2153-4.0293-2.3096c-0.0811-0.1528-0.0781-0.3364,0.0088-0.4858
		c1.3682-2.3623,5.1543-4.104,5.3145-4.1768C17.7266,5,17.9297,5.0259,18.0762,5.1455c1.2588,1.0283,1.7852,2.9839,1.25,4.6499
		c-0.4248,1.3232-1.4482,2.1621-2.7383,2.2437C16.4756,12.0459,16.3662,12.0498,16.2588,12.0498z M13.2627,9.5034
		c0.3457,0.4844,1.2988,1.5459,2.9961,1.5464l0,0c0.0869,0,0.1758-0.0029,0.2666-0.0088c1.1992-0.0762,1.6729-1.0044,1.8486-1.5513
		c0.373-1.1616,0.0693-2.5449-0.7031-3.3584C16.8213,6.5571,14.3643,7.8838,13.2627,9.5034z"/>
	<path d="M17.7598,6.0327c-0.1924,0-0.376-0.1118-0.458-0.2993l-1.9854-4.5278c-0.1104-0.2529,0.0039-0.5479,0.2568-0.6587
		c0.2529-0.1074,0.5488,0.0044,0.6592,0.2573l1.9854,4.5278c0.1104,0.2529-0.0039,0.5479-0.2568,0.6587
		C17.8955,6.019,17.8271,6.0327,17.7598,6.0327z"/>
</g>
<rect y="0.0354" fill="none" width="24" height="24"/>
</svg>
