<?xml version="1.0" encoding="utf-8"?>
<!-- Generator: Adobe Illustrator 18.1.0, SVG Export Plug-In . SVG Version: 6.00 Build 0)  -->
<svg version="1.1" id="Layer_1" xmlns="http://www.w3.org/2000/svg" xmlns:xlink="http://www.w3.org/1999/xlink" x="0px" y="0px"
	 width="24px" height="24px" viewBox="0 0 24 24" enable-background="new 0 0 24 24" xml:space="preserve">
<g>
	<path d="M20.5205,12.0029c-0.2764,0-0.5-0.2231-0.5-0.4995V8.5669c0-0.2764,0.2236-0.5,0.5-0.5s0.5,0.2236,0.5,0.5v2.9365
		C21.0205,11.7798,20.7969,12.0029,20.5205,12.0029z"/>
	<path d="M16.2119,20.0342H6.8286c-1.5488,0-2.8086-1.2598-2.8086-2.8076V6.8428c0-1.5483,1.2598-2.8081,2.8086-2.8081h9.3833
		c1.5488,0,2.8086,1.2598,2.8086,2.8081v10.3838C19.0205,18.7744,17.7607,20.0342,16.2119,20.0342z M6.8286,5.0347
		c-0.9971,0-1.8086,0.811-1.8086,1.8081v10.3838c0,0.9971,0.8115,1.8076,1.8086,1.8076h9.3833c0.9971,0,1.8086-0.8105,1.8086-1.8076
		V6.8428c0-0.9971-0.8115-1.8081-1.8086-1.8081H6.8286z"/>
	<path d="M6.3296,5.0894c-0.2158,0-0.4146-0.1401-0.479-0.3574C5.7715,4.4673,5.9224,4.189,6.187,4.1104
		c0.4839-0.144,0.9536-1.644,1.0508-2.8887c0.0522-0.6655,0.5889-1.187,1.2217-1.187h6.1392c0.6338,0,1.1709,0.522,1.2217,1.1885
		c0.0977,1.2432,0.5674,2.7432,1.0508,2.8872c0.2646,0.0786,0.415,0.3569,0.3369,0.6216s-0.3525,0.417-0.6221,0.3364
		c-1.4854-0.4419-1.7529-3.6328-1.7627-3.7686c-0.0107-0.1392-0.1182-0.2651-0.2246-0.2651H8.4595
		c-0.1069,0-0.2139,0.1265-0.2246,0.2651C8.2241,1.4351,7.9585,4.626,6.4722,5.0684C6.4248,5.0825,6.3765,5.0894,6.3296,5.0894z"/>
	<path d="M14.5986,24.0342H8.4595c-0.6338,0-1.1704-0.5117-1.2217-1.1641c-0.2036-2.6074-0.8013-2.8594-0.8691-2.8789
		c-0.2646-0.0791-0.415-0.3574-0.3359-0.6221c0.0786-0.2646,0.355-0.4121,0.6221-0.3369c0.8862,0.2646,1.4033,1.4941,1.5801,3.7598
		c0.0103,0.1338,0.1113,0.2422,0.2246,0.2422h6.1392c0.1133,0,0.2139-0.1084,0.2246-0.2422
		c0.0977-1.2549,0.4434-3.4141,1.6514-3.7734c0.2676-0.0762,0.5439,0.0732,0.6221,0.3369c0.0781,0.2646-0.0723,0.543-0.3369,0.6221
		c-0.3535,0.1045-0.8037,1.1543-0.9404,2.8926C15.7686,23.5225,15.2324,24.0342,14.5986,24.0342z"/>
	<path d="M11.7061,17.6357c-0.834,0-1.501-0.4248-1.6992-1.083c-0.2627-0.8779,0.3911-1.8232,1.4893-2.1523
		c1.0693-0.3213,2.1729,0.126,2.4268,0.9756c0.2637,0.876-0.3906,1.8213-1.4883,2.1504
		C12.1943,17.5996,11.9487,17.6357,11.7061,17.6357z M12.2236,15.291c-0.1445,0-0.293,0.0225-0.4404,0.0664
		c-0.5894,0.1777-0.9043,0.6201-0.8184,0.9072c0.0913,0.3047,0.6582,0.4609,1.1816,0.3047
		c0.5898-0.1777,0.9053-0.6201,0.8193-0.9062C12.8994,15.4443,12.5947,15.291,12.2236,15.291z"/>
	<path d="M13.4453,16.0195c-0.2764,0-0.5-0.2236-0.5-0.5V7.5c0-0.1797,0.0967-0.3457,0.2529-0.4346
		c0.1543-0.0879,0.3477-0.0869,0.502,0.0044c0.1113,0.0664,2.7275,1.6401,2.8701,3.604c0.0605,0.8496-0.3262,1.6182-1.1504,2.2852
		c-0.2148,0.1738-0.5293,0.1406-0.7031-0.0742s-0.1406-0.5293,0.0742-0.7031c0.5625-0.4551,0.8184-0.9243,0.7812-1.4341
		c-0.0605-0.8477-0.9102-1.7168-1.627-2.2871v7.0591C13.9453,15.7959,13.7217,16.0195,13.4453,16.0195z"/>
	<path d="M11.0142,13.0342h-4c-0.2764,0-0.5-0.2236-0.5-0.5s0.2236-0.5,0.5-0.5h4c0.2764,0,0.5,0.2236,0.5,0.5
		S11.2905,13.0342,11.0142,13.0342z"/>
	<path d="M11.0142,11.0342h-4c-0.2764,0-0.5-0.2236-0.5-0.5s0.2236-0.5,0.5-0.5h4c0.2764,0,0.5,0.2236,0.5,0.5
		S11.2905,11.0342,11.0142,11.0342z"/>
	<path d="M11.0142,9.0342h-4c-0.2764,0-0.5-0.2236-0.5-0.5s0.2236-0.5,0.5-0.5h4c0.2764,0,0.5,0.2236,0.5,0.5
		S11.2905,9.0342,11.0142,9.0342z"/>
</g>
<rect x="0.0142" y="0.0346" fill="none" width="24" height="24"/>
</svg>
