<?xml version="1.0" encoding="utf-8"?>
<!-- Generator: Adobe Illustrator 18.1.0, SVG Export Plug-In . SVG Version: 6.00 Build 0)  -->
<svg version="1.1" id="Layer_1" xmlns="http://www.w3.org/2000/svg" xmlns:xlink="http://www.w3.org/1999/xlink" x="0px" y="0px"
	 width="24px" height="24px" viewBox="0 0 24 24" enable-background="new 0 0 24 24" xml:space="preserve">
<g>
	<path d="M14.4092,18.9541L14.4092,18.9541c-1.8779,0-3.2944-1.7617-4.5947-5.7109C8.813,10.1987,8.6543,8.1826,9.3159,6.8979
		c0.5601-1.0874,1.5698-1.4014,2.3809-1.6538l0.291-0.0918c0.1333-0.0439,0.2759-0.0908,0.438-0.0908
		c0.3271,0,0.5859,0.1948,0.6934,0.5215l1.1768,3.5732c0.1318,0.3989-0.0859,0.8311-0.4854,0.9634l-0.9492,0.3125
		c-0.1572,0.6357,0.583,2.8999,1.0693,3.2651c0.2607-0.0801,0.8291-0.2695,0.8623-0.2812c0.499-0.1611,0.9082,0.041,1.0459,0.458
		l1.1924,3.5625c0.1279,0.3906-0.0713,0.8096-0.4531,0.9551l-0.1924,0.0742C15.793,18.6943,15.1211,18.9541,14.4092,18.9541z
		 M12.2432,6.1201l-0.249,0.0791c-0.731,0.2271-1.4209,0.4419-1.7891,1.1567c-0.5161,1.0024-0.3281,2.8779,0.5596,5.5747
		c1.4814,4.502,2.79,5.0234,3.6445,5.0234l0,0c0.5205,0,1.0693-0.21,1.6016-0.415l-1.0459-3.127
		c-0.918,0.3057-0.9521,0.3057-1.042,0.3057c-1.1396,0-1.835-2.457-1.9893-3.3179c-0.0703-0.3931-0.2852-1.5903,0.4756-1.8716
		l0.8633-0.2842L12.2432,6.1201z"/>
	<path d="M20.6973,23.998H4.312c-0.7207,0-1.3071-0.5869-1.3071-1.3076V1.3062c0-0.7212,0.5864-1.3081,1.3071-1.3081h16.3853
		c0.7207,0,1.3076,0.5869,1.3076,1.3081v21.3843C22.0049,23.4111,21.418,23.998,20.6973,23.998z M4.312,0.998
		c-0.1694,0-0.3071,0.1382-0.3071,0.3081v21.3843c0,0.1699,0.1377,0.3076,0.3071,0.3076h16.3853
		c0.1699,0,0.3076-0.1377,0.3076-0.3076V1.3062c0-0.1699-0.1377-0.3081-0.3076-0.3081H4.312z"/>
	<path d="M4.5889,20.998H1.4897c-0.2764,0-0.5-0.2236-0.5-0.5s0.2236-0.5,0.5-0.5h3.0991c0.2764,0,0.5,0.2236,0.5,0.5
		S4.8652,20.998,4.5889,20.998z"/>
	<path d="M4.5889,17.9971H1.4897c-0.2764,0-0.5-0.2236-0.5-0.5s0.2236-0.5,0.5-0.5h3.0991c0.2764,0,0.5,0.2236,0.5,0.5
		S4.8652,17.9971,4.5889,17.9971z"/>
	<path d="M4.5889,14.9971H1.4897c-0.2764,0-0.5-0.2236-0.5-0.5s0.2236-0.5,0.5-0.5h3.0991c0.2764,0,0.5,0.2236,0.5,0.5
		S4.8652,14.9971,4.5889,14.9971z"/>
	<path d="M4.5889,11.9966H1.4897c-0.2764,0-0.5-0.2236-0.5-0.5s0.2236-0.5,0.5-0.5h3.0991c0.2764,0,0.5,0.2236,0.5,0.5
		S4.8652,11.9966,4.5889,11.9966z"/>
	<path d="M4.5889,8.9966H1.4897c-0.2764,0-0.5-0.2236-0.5-0.5s0.2236-0.5,0.5-0.5h3.0991c0.2764,0,0.5,0.2236,0.5,0.5
		S4.8652,8.9966,4.5889,8.9966z"/>
	<path d="M4.5889,5.9961H1.4897c-0.2764,0-0.5-0.2236-0.5-0.5s0.2236-0.5,0.5-0.5h3.0991c0.2764,0,0.5,0.2236,0.5,0.5
		S4.8652,5.9961,4.5889,5.9961z"/>
	<path d="M4.5889,2.9961H1.4897c-0.2764,0-0.5-0.2236-0.5-0.5s0.2236-0.5,0.5-0.5h3.0991c0.2764,0,0.5,0.2236,0.5,0.5
		S4.8652,2.9961,4.5889,2.9961z"/>
</g>
<rect y="-0.002" fill="none" width="24" height="24"/>
</svg>
