<?xml version="1.0" encoding="utf-8"?>
<!-- Generator: Adobe Illustrator 18.1.0, SVG Export Plug-In . SVG Version: 6.00 Build 0)  -->
<svg version="1.1" id="Layer_1" xmlns="http://www.w3.org/2000/svg" xmlns:xlink="http://www.w3.org/1999/xlink" x="0px" y="0px"
	 width="24px" height="24px" viewBox="0 0 24 24" enable-background="new 0 0 24 24" xml:space="preserve">
<g>
	<path d="M0.5093,14.0527c-0.1157,0-0.2314-0.04-0.3262-0.1211c-0.2095-0.1797-0.2329-0.4951-0.0527-0.7051l4.3364-5.0415
		c0.0947-0.1104,0.2334-0.1738,0.3789-0.1738h5.1489c0.2764,0,0.5,0.2236,0.5,0.5s-0.2236,0.5-0.5,0.5H5.0752l-4.187,4.8677
		C0.7896,13.9941,0.6499,14.0527,0.5093,14.0527z"/>
	<path d="M23.5098,14.0527c-0.1406,0-0.2803-0.0586-0.3789-0.1738l-4.1865-4.8677h-4.9287c-0.2764,0-0.5-0.2236-0.5-0.5
		s0.2236-0.5,0.5-0.5h5.1582c0.1455,0,0.2842,0.0635,0.3789,0.1738l4.3359,5.0415c0.1807,0.21,0.1562,0.5254-0.0527,0.7051
		C23.7412,14.0127,23.625,14.0527,23.5098,14.0527z"/>
	<path d="M21.6523,24.0127H2.3677c-1.3003,0-2.3584-1.0576-2.3584-2.3584v-8.1016c0-0.2764,0.2236-0.5,0.5-0.5h7.0654
		c0.2764,0,0.5,0.2236,0.5,0.5v2.291c0,0.6514,0.5298,1.1807,1.1807,1.1807h5.5601c0.6514,0,1.1807-0.5293,1.1807-1.1807v-2.291
		c0-0.2764,0.2236-0.5,0.5-0.5h7.0137c0.2764,0,0.5,0.2236,0.5,0.5v8.1016C24.0098,22.9551,22.9521,24.0127,21.6523,24.0127z
		 M1.0093,14.0527v7.6016c0,0.749,0.6094,1.3584,1.3584,1.3584h19.2847c0.748,0,1.3574-0.6094,1.3574-1.3584v-7.6016h-6.0137v1.791
		c0,1.2021-0.9785,2.1807-2.1807,2.1807H9.2554c-1.2026,0-2.1807-0.9785-2.1807-2.1807v-1.791H1.0093z"/>
	<path d="M12.0049,14.0527c-0.2764,0-0.5-0.2236-0.5-0.5V0.9238c0-0.2764,0.2236-0.5,0.5-0.5s0.5,0.2236,0.5,0.5v12.6289
		C12.5049,13.8291,12.2812,14.0527,12.0049,14.0527z"/>
	<path d="M12.0049,14.0527c-0.1279,0-0.2559-0.0488-0.3535-0.1465L8.502,10.7568c-0.1953-0.1953-0.1953-0.5117,0-0.707
		s0.5117-0.1953,0.707,0l2.7959,2.7959l2.7959-2.7959c0.1953-0.1953,0.5117-0.1953,0.707,0s0.1953,0.5117,0,0.707l-3.1494,3.1494
		C12.2607,14.0039,12.1328,14.0527,12.0049,14.0527z"/>
</g>
<rect y="0.0001" fill="none" width="24" height="24"/>
</svg>
