<?xml version="1.0" encoding="utf-8"?>
<!-- Generator: Adobe Illustrator 18.1.0, SVG Export Plug-In . SVG Version: 6.00 Build 0)  -->
<svg version="1.1" id="Layer_1" xmlns="http://www.w3.org/2000/svg" xmlns:xlink="http://www.w3.org/1999/xlink" x="0px" y="0px"
	 width="24px" height="24px" viewBox="0 0 24 24" enable-background="new 0 0 24 24" xml:space="preserve">
<rect x="-0.0008" y="-0.0146" fill="none" width="24" height="24"/>
<g>
	<path d="M18.6123,13.9707H5.1758c-2.1963,0-4.1255-1.417-4.6919-3.4468C-0.0469,8.6201,0.751,6.7271,2.5693,5.5352
		c0.627-3.1064,3.3013-5.3379,6.4419-5.3379c1.4526,0,2.833,0.4805,4.0063,1.3916c2.5078-0.2236,4.584,1.0156,5.417,3.0889
		c2.8018-0.0625,5.252,2.0796,5.252,4.6455C23.6865,11.8423,21.3633,13.9707,18.6123,13.9707z M9.0112,1.1973
		c-2.7256,0-5.0371,1.9883-5.4971,4.7271C3.4897,6.0679,3.4043,6.1938,3.2798,6.269c-1.5776,0.9541-2.2627,2.4443-1.8325,3.9858
		c0.377,1.3521,1.6763,2.7158,3.7285,2.7158h13.4365c2.208,0,4.0742-1.6704,4.0742-3.6475c0-2.1094-2.1162-3.856-4.5479-3.626
		c-0.248,0.0273-0.4541-0.1226-0.5244-0.3477c-0.4648-1.4771-2.0068-3.0742-4.6885-2.7451
		c-0.1377,0.0156-0.2734-0.0234-0.3789-0.1108C11.5205,1.6455,10.2979,1.1973,9.0112,1.1973z"/>
	<g>
		<g>
			<path d="M7.248,14.8916c-0.0796,0-0.1602-0.0186-0.2354-0.0596c-0.2437-0.1299-0.3354-0.4326-0.2051-0.6768l0.4722-0.8818
				c0.1309-0.2422,0.4321-0.3369,0.6768-0.2041c0.2437,0.1299,0.3354,0.4326,0.2051,0.6768l-0.4722,0.8818
				C7.5991,14.7959,7.4268,14.8916,7.248,14.8916z"/>
			<path d="M5.2466,18.627c-0.0796,0-0.1606-0.0186-0.2358-0.0596c-0.2432-0.1299-0.335-0.4336-0.2046-0.6768l0.8008-1.4941
				c0.1309-0.2432,0.4331-0.3359,0.6772-0.2041c0.2432,0.1299,0.335,0.4336,0.2046,0.6768L5.688,18.3633
				C5.5977,18.5312,5.4248,18.627,5.2466,18.627z"/>
			<path d="M3.5737,21.749c-0.0796,0-0.1606-0.0186-0.2358-0.0596c-0.2432-0.1299-0.335-0.4336-0.2046-0.6768l0.4722-0.8809
				c0.1304-0.2432,0.4341-0.3369,0.6772-0.2041c0.2432,0.1299,0.335,0.4336,0.2046,0.6768l-0.4722,0.8809
				C3.9248,21.6533,3.752,21.749,3.5737,21.749z"/>
		</g>
	</g>
	<g>
		<g>
			<path d="M11.6992,14.8975c-0.0806,0-0.1626-0.0195-0.2383-0.0605c-0.2427-0.1318-0.3325-0.4355-0.2007-0.6787l0.478-0.8789
				c0.1328-0.2412,0.4355-0.3301,0.6787-0.2002c0.2422,0.1318,0.332,0.4355,0.2002,0.6787l-0.4785,0.8789
				C12.0479,14.8027,11.8765,14.8975,11.6992,14.8975z"/>
			<path d="M8.9106,20.0186c-0.0806,0-0.1626-0.0195-0.2388-0.0605c-0.2422-0.1318-0.332-0.4355-0.1997-0.6787l1.1152-2.0488
				c0.1313-0.2422,0.4346-0.332,0.6782-0.2002c0.2422,0.1318,0.332,0.4355,0.1997,0.6787l-1.1152,2.0488
				C9.2598,19.9238,9.0879,20.0186,8.9106,20.0186z"/>
			<path d="M6.7598,23.9688c-0.0806,0-0.1626-0.0195-0.2388-0.0605c-0.2422-0.1328-0.332-0.4365-0.1997-0.6787l0.478-0.8779
				c0.1309-0.2412,0.4351-0.3311,0.6782-0.2002c0.2422,0.1328,0.332,0.4355,0.1997,0.6787l-0.478,0.8779
				C7.1089,23.874,6.937,23.9688,6.7598,23.9688z"/>
		</g>
	</g>
	<g>
		<g>
			<path d="M16.1221,14.8965c-0.0811,0-0.1631-0.0195-0.2393-0.0605c-0.2422-0.1328-0.332-0.4365-0.2002-0.6787l0.4785-0.8779
				c0.1328-0.2432,0.4355-0.3301,0.6787-0.2002c0.2422,0.1328,0.332,0.4365,0.2002,0.6787l-0.4785,0.8779
				C16.4707,14.8027,16.2988,14.8965,16.1221,14.8965z"/>
			<path d="M14.0879,18.6309c-0.0811,0-0.1631-0.0195-0.2393-0.0605c-0.2422-0.1328-0.332-0.4355-0.2002-0.6787l0.8135-1.4941
				c0.1328-0.2422,0.4365-0.3301,0.6787-0.2002c0.2422,0.1328,0.332,0.4355,0.2002,0.6787l-0.8135,1.4941
				C14.4365,18.5361,14.2646,18.6309,14.0879,18.6309z"/>
			<path d="M12.3887,21.749c-0.0811,0-0.1631-0.0195-0.2393-0.0605c-0.2427-0.1328-0.332-0.4365-0.1997-0.6787l0.478-0.8779
				c0.1328-0.2432,0.4355-0.3311,0.6787-0.2002c0.2422,0.1328,0.332,0.4365,0.2002,0.6787l-0.4785,0.8779
				C12.7373,21.6553,12.5654,21.749,12.3887,21.749z"/>
		</g>
	</g>
</g>
</svg>
