<?xml version="1.0" encoding="utf-8"?>
<!-- Generator: Adobe Illustrator 18.1.0, SVG Export Plug-In . SVG Version: 6.00 Build 0)  -->
<svg version="1.1" id="Layer_1" xmlns="http://www.w3.org/2000/svg" xmlns:xlink="http://www.w3.org/1999/xlink" x="0px" y="0px"
	 width="24px" height="24px" viewBox="0 0 24 24" enable-background="new 0 0 24 24" xml:space="preserve">
<g>
	<path d="M15.9121,19.9746H1.0835c-0.5874,0-1.0654-0.4873-1.0654-1.0869v-2.0615c0-0.4512,0.2666-0.8486,0.6792-1.0127
		c4.3867-1.7354,5.1992-2.4707,5.3457-2.7031V12.585c-0.498-0.5713-0.8892-1.3086-1.1401-2.1504
		C4.583,10.1484,4.3701,9.749,4.3101,9.314C4.248,8.8667,4.3467,8.4243,4.5889,8.0498V6.3643c0-2.3223,1.4614-3.709,3.9097-3.709
		c2.4834,0,3.9077,1.3521,3.9077,3.709v1.6851c0.2432,0.3745,0.3418,0.8174,0.2803,1.2651
		c-0.0605,0.4355-0.2744,0.8345-0.5947,1.1206c-0.25,0.8418-0.6406,1.5786-1.1392,2.1499v0.5264
		c0.1436,0.2295,0.9517,0.9648,5.3452,2.7021c0.4062,0.1592,0.6797,0.5664,0.6797,1.0127v2.0615
		C16.9775,19.4873,16.5,19.9746,15.9121,19.9746z M8.4985,3.6553c-1.9033,0-2.9097,0.9365-2.9097,2.709V8.21
		c0,0.1128-0.0381,0.2227-0.1084,0.311C5.3315,8.708,5.2676,8.9409,5.3003,9.1768c0.0317,0.2285,0.1528,0.4336,0.332,0.563
		c0.0933,0.0669,0.1602,0.1636,0.1904,0.2739c0.2256,0.8257,0.5996,1.5283,1.0815,2.0322c0.0889,0.0928,0.1387,0.2168,0.1387,0.3457
		v0.8242c0,0.0488-0.0073,0.0986-0.0215,0.1455c-0.1841,0.6055-1.0332,1.4346-5.9556,3.3818l-0.0479,2.1445
		c0,0.0518,0.0337,0.0869,0.0654,0.0869h14.8286c0.0312,0,0.0654-0.0352,0.0654-0.0869v-2.0615
		c-4.9688-2.0283-5.8184-2.8574-6.0029-3.4648c-0.0146-0.0469-0.022-0.0957-0.022-0.1455v-0.8242
		c0-0.1289,0.0498-0.2529,0.1387-0.3457c0.4819-0.5039,0.856-1.2065,1.0811-2.0317c0.0303-0.1104,0.0977-0.2075,0.1909-0.2744
		c0.1797-0.1289,0.3008-0.334,0.3325-0.5625c0.0327-0.2358-0.0317-0.4688-0.1807-0.6562c-0.0703-0.0889-0.1089-0.1982-0.1089-0.3115
		V6.3643C11.4062,4.5669,10.4277,3.6553,8.4985,3.6553z"/>
	<path d="M23.0674,19.9746h-4.5811c-0.2764,0-0.5-0.2236-0.5-0.5s0.2236-0.5,0.5-0.5h4.5811l-0.0566-1.5293
		c-4.0615-1.5371-4.5566-2.1592-4.7002-2.6191c-0.0146-0.0479-0.0225-0.0977-0.0225-0.1484v-0.6318
		c0-0.1309,0.0508-0.2559,0.1426-0.3496c0.3633-0.3721,0.6465-0.8926,0.8184-1.5059c0.0312-0.1113,0.0996-0.208,0.1943-0.2744
		c0.1143-0.0806,0.1924-0.2095,0.2119-0.353c0.0205-0.1455-0.0215-0.29-0.1162-0.4072c-0.0723-0.0889-0.1123-0.2007-0.1123-0.3154
		V9.4263c0-1.2998-0.7305-1.959-2.1709-1.959c-1.4219,0-2.1729,0.6772-2.1729,1.959v1.415c0,0.1147-0.04,0.2261-0.1123,0.3154
		c-0.0938,0.1162-0.1348,0.2603-0.1152,0.4053c0.0195,0.1436,0.0977,0.2725,0.2129,0.3535
		c0.0938,0.0659,0.1621,0.1626,0.1934,0.2739c0.1719,0.6143,0.4551,1.1348,0.8193,1.5068c0.1934,0.1973,0.1895,0.5137-0.0078,0.707
		c-0.1963,0.1924-0.5146,0.1904-0.707-0.0078c-0.4492-0.458-0.7998-1.0713-1.0215-1.7812
		c-0.2588-0.2373-0.4307-0.5615-0.4795-0.9155c-0.0498-0.3589,0.0273-0.7134,0.2178-1.0166V9.4263
		c0-1.853,1.1865-2.959,3.1729-2.959c1.9854,0,3.1709,1.106,3.1709,2.959v1.2544c0.1914,0.3042,0.2686,0.6597,0.2188,1.0195
		c-0.0488,0.3535-0.2207,0.6787-0.4795,0.915c-0.1973,0.6318-0.4971,1.1875-0.8779,1.625v0.3213
		c0.1348,0.165,0.8174,0.7217,4.1182,1.9961c0.3613,0.1416,0.6045,0.498,0.6045,0.8877v1.5791
		C24.0107,19.5488,23.5879,19.9746,23.0674,19.9746z"/>
</g>
<rect x="0.0005" y="0.0004" fill="none" width="24" height="24"/>
</svg>
