<?xml version="1.0" encoding="utf-8"?>
<!-- Generator: Adobe Illustrator 18.1.0, SVG Export Plug-In . SVG Version: 6.00 Build 0)  -->
<svg version="1.1" id="Layer_1" xmlns="http://www.w3.org/2000/svg" xmlns:xlink="http://www.w3.org/1999/xlink" x="0px" y="0px"
	 width="24px" height="24px" viewBox="0 0 24 24" enable-background="new 0 0 24 24" xml:space="preserve">
<g>
	<path d="M13.6338,10.0049l-0.9824-0.1855c0,0,0.3223-1.707,0.3984-2.1089c-0.165-0.2061-0.9609-0.6509-2.313-0.9062
		C9.3862,6.5493,8.4819,6.6729,8.2529,6.8037L7.8545,8.9131L6.8721,8.7275l0.4121-2.1826c0.1909-1.0054,2.0796-1.0176,3.6382-0.7231
		c1.5591,0.2939,3.313,0.9941,3.1245,1.998C14.0293,7.9077,13.6338,10.0049,13.6338,10.0049z"/>
	<path d="M11.1953,6.8901c-0.0557,0-0.1123-0.0093-0.168-0.0293c-0.2603-0.0928-0.3955-0.3784-0.3027-0.6387l0.3687-1.0332
		C11.4536,4.3887,12.5,3.4883,13.96,4.1216c1.8701,0.8115,4.7529,1.3555,5.2002,0.3984c0.1172-0.2505,0.417-0.3579,0.665-0.2407
		c0.25,0.1167,0.3584,0.4146,0.2412,0.6646c-0.9326,1.9927-5.0127,0.7427-6.5049,0.0947c-1.0557-0.4585-1.4951,0.4219-1.542,0.5244
		L11.666,6.5581C11.5933,6.7627,11.4009,6.8901,11.1953,6.8901z"/>
	<path d="M8.9907,23.9561c-4.3608,0-7.9082-3.5479-7.9082-7.9082s3.5474-7.9077,7.9082-7.9077c4.3599,0,7.9077,3.5474,7.9077,7.9077
		S13.3506,23.9561,8.9907,23.9561z M8.9907,9.1401c-3.8091,0-6.9082,3.0991-6.9082,6.9077c0,3.8096,3.0991,6.9082,6.9082,6.9082
		s6.9077-3.0986,6.9077-6.9082C15.8984,12.2393,12.7998,9.1401,8.9907,9.1401z"/>
	<path d="M11.0469,21.3096c-0.1934,0-0.3774-0.1123-0.4595-0.3008c-0.1094-0.2539,0.0068-0.5479,0.2603-0.6582
		c1.4307-0.6201,2.458-1.9033,2.7471-3.4326c0.2666-1.4111-0.1191-2.8447-1.0596-3.9336c-0.1797-0.21-0.1572-0.5254,0.0518-0.7061
		c0.209-0.1787,0.5244-0.1572,0.7061,0.0518c1.1396,1.3213,1.6084,3.0615,1.2842,4.7734c-0.3506,1.8555-1.5967,3.4131-3.332,4.165
		C11.1802,21.2969,11.1128,21.3096,11.0469,21.3096z"/>
	<path d="M21.4619,4.7603c-0.2461,0-0.46-0.1816-0.4941-0.4321c-0.0381-0.2734,0.1533-0.5259,0.4268-0.5635l1.9941-0.2729
		c0.2666-0.04,0.5254,0.1528,0.5635,0.4272c0.0381,0.2734-0.1533,0.5259-0.4268,0.5635l-1.9941,0.2729
		C21.5078,4.7588,21.4854,4.7603,21.4619,4.7603z"/>
	<path d="M21.4424,8.3936c-0.1836,0-0.3594-0.1011-0.4473-0.2769l-0.8926-1.7881c-0.123-0.2471-0.0234-0.5474,0.2236-0.6704
		c0.249-0.123,0.5469-0.0239,0.6709,0.2241l0.8926,1.7881c0.123,0.2471,0.0234,0.5474-0.2236,0.6704
		C21.5938,8.3765,21.5176,8.3936,21.4424,8.3936z"/>
	<path d="M18.1445,4.1777c-0.0781,0-0.1562-0.0181-0.2295-0.0557l-1.7383-0.8989c-0.2451-0.127-0.3418-0.4287-0.2148-0.6738
		c0.127-0.2461,0.4307-0.3398,0.6738-0.2148l1.7383,0.8989c0.2451,0.127,0.3418,0.4287,0.2148,0.6738
		C18.5,4.0791,18.3252,4.1777,18.1445,4.1777z"/>
	<path d="M20.0146,3.2432c-0.0283,0-0.0566-0.0024-0.0859-0.0073c-0.2715-0.0469-0.4551-0.3052-0.4082-0.5776l0.3301-1.9185
		c0.0469-0.272,0.3027-0.4531,0.5781-0.4077c0.2715,0.0469,0.4551,0.3052,0.4082,0.5776l-0.3301,1.9185
		C20.4648,3.0713,20.2529,3.2432,20.0146,3.2432z"/>
</g>
<rect x="0.0142" y="-0.003" fill="none" width="24" height="24"/>
</svg>
