<?xml version="1.0" encoding="utf-8"?>
<!-- Generator: Adobe Illustrator 18.1.0, SVG Export Plug-In . SVG Version: 6.00 Build 0)  -->
<svg version="1.1" id="Layer_1" xmlns="http://www.w3.org/2000/svg" xmlns:xlink="http://www.w3.org/1999/xlink" x="0px" y="0px"
	 width="24px" height="24px" viewBox="0 0 24 24" enable-background="new 0 0 24 24" xml:space="preserve">
<g>
	<path d="M16.5479,23.9014c-0.2764,0-0.5-0.2236-0.5-0.5v-5.3936h-2.377c-0.2764,0-0.5-0.2236-0.5-0.5s0.2236-0.5,0.5-0.5h2.877
		c0.2764,0,0.5,0.2236,0.5,0.5v5.8936C17.0479,23.6777,16.8242,23.9014,16.5479,23.9014z"/>
	<path d="M18.5742,23.9014c-0.2764,0-0.5-0.2236-0.5-0.5v-5.8936c0-0.2764,0.2236-0.5,0.5-0.5h2.1387l-1.9609-4.915
		c-0.0352-0.0879-0.0439-0.1846-0.0264-0.2778l0.4395-2.3291c0.0645-2.0889-0.0049-2.8779-0.0547-3.168l-1.1816,1.2773
		c-0.1895,0.2041-0.5449,0.2041-0.7344,0l-1.2002-1.2969c-0.0498,0.0088-0.0986,0.02-0.1484,0.0352
		c-0.2695,0.0786-0.5439-0.0728-0.6221-0.3374s0.0723-0.543,0.3369-0.6216c0.3457-0.1035,0.7627-0.1919,1.0029,0.0669l0.998,1.0781
		l0.9971-1.0781c0.2383-0.2563,0.6553-0.1699,1.0029-0.0669c0.0283,0.0083,0.0547,0.019,0.0811,0.0317
		c0.375,0.1465,0.6396,0.335,0.5137,4.189l-0.4219,2.2617l2.1816,5.4653c0.0605,0.1543,0.042,0.3291-0.0508,0.4658
		c-0.0928,0.1377-0.248,0.2197-0.4141,0.2197h-2.377v5.3936C19.0742,23.6777,18.8506,23.9014,18.5742,23.9014z"/>
	<path d="M7.4995,23.9814c-0.2764,0-0.5-0.2236-0.5-0.5v-7.9463c0-0.2764,0.2236-0.5,0.5-0.5s0.5,0.2236,0.5,0.5v7.9463
		C7.9995,23.7578,7.7759,23.9814,7.4995,23.9814z"/>
	<path d="M7.4995,4.5566c-1.1646,0-1.9375-1.4463-1.9375-2.4028c0-1.0684,0.8691-1.9375,1.9375-1.9375
		c1.0688,0,1.938,0.8691,1.938,1.9375C9.4375,3.1104,8.6646,4.5566,7.4995,4.5566z M7.4995,1.2163
		c-0.5171,0-0.9375,0.4204-0.9375,0.9375c0,0.5796,0.4849,1.4028,0.9375,1.4028s0.938-0.8232,0.938-1.4028
		C8.4375,1.6367,8.0166,1.2163,7.4995,1.2163z"/>
	<path d="M17.5615,4.7744c-1.1211,0-1.8652-1.4463-1.8652-2.4028c0-1.0684,0.8369-1.9375,1.8652-1.9375s1.8652,0.8691,1.8652,1.9375
		C19.4268,3.3281,18.6826,4.7744,17.5615,4.7744z M17.5615,1.4341c-0.4775,0-0.8652,0.4204-0.8652,0.9375
		c0,0.6162,0.4854,1.4028,0.8652,1.4028s0.8652-0.7866,0.8652-1.4028C18.4268,1.8545,18.0391,1.4341,17.5615,1.4341z"/>
	<path d="M9.3604,23.9814c-0.0098,0-0.0195,0-0.0293-0.001c-0.2759-0.0156-0.4863-0.252-0.4702-0.5273l0.4062-7.0469
		c0.0156-0.2764,0.252-0.498,0.5278-0.4707c0.2759,0.0156,0.4863,0.252,0.4702,0.5273l-0.4062,7.0469
		C9.8438,23.7764,9.623,23.9814,9.3604,23.9814z"/>
	<path d="M5.6387,23.9814c-0.2632,0-0.4834-0.2051-0.4985-0.4717l-0.5449-9.4531c-0.168,0.0059-0.3545-0.0156-0.5107-0.1514
		C3.9805,13.8145,3.897,13.6377,3.8921,13.5C3.6108,5.9688,4.2568,5.4253,4.4692,5.2466C4.5244,5.1997,4.5889,5.166,4.6587,5.1465
		c0.0918-0.0249,0.2109-0.0337,0.748-0.0562l0.2856-0.0127C6.1504,5.0562,6.562,5.2988,6.7842,5.729
		c0.2246,0.4355,1.2061,0.4355,1.4312,0.0005C8.438,5.2993,8.8608,5.0542,9.3071,5.0776l0.2817,0.0127
		c0.5474,0.0225,0.6602,0.0312,0.7549,0.0576c0.0664,0.0186,0.1289,0.0513,0.1826,0.0952c0.1538,0.1265,0.3286,0.3721,0.46,1.2314
		c0.042,0.2729-0.1455,0.5283-0.4185,0.5698c-0.2798,0.0381-0.5288-0.146-0.5698-0.4185C9.9585,6.3691,9.9199,6.2046,9.8896,6.103
		C9.7886,6.0991,9.6621,6.0942,9.5479,6.0894L9.2446,6.0757C9.1797,6.0742,9.1313,6.1338,9.104,6.188
		C8.8179,6.7427,8.2031,7.0874,7.5,7.0874c-0.7036,0-1.3184-0.3447-1.6045-0.8999C5.8677,6.1338,5.8013,6.0747,5.7549,6.0757
		L5.4478,6.0898C5.3281,6.0947,5.1948,6.0996,5.085,6.105c-0.0938,0.3447-0.3823,1.7979-0.209,6.9272
		c0.1636-0.0059,0.3457,0.0215,0.499,0.1543c0.104,0.0898,0.1899,0.2705,0.1953,0.4082l0.5679,9.8584
		c0.0161,0.2754-0.1948,0.5117-0.4702,0.5273C5.6582,23.9814,5.6484,23.9814,5.6387,23.9814z"/>
	<path d="M12.5264,16.0352c-0.1328,0-0.2598-0.0527-0.3535-0.1465l-3.3804-3.3809c-0.9937-0.9937-0.9937-2.6104,0-3.6045
		c0.9624-0.9624,2.6421-0.9634,3.605,0l0.1289,0.1294l0.1299-0.1294c0.9648-0.9634,2.6436-0.9619,3.6045,0
		c0.4814,0.4814,0.7471,1.1216,0.7471,1.8022c0,0.6812-0.2656,1.3208-0.7471,1.8022l-3.3809,3.3809
		C12.7861,15.9824,12.6592,16.0352,12.5264,16.0352z M10.5952,9.1572c-0.4141,0-0.8032,0.1606-1.0957,0.4531
		c-0.6035,0.604-0.6035,1.5869,0,2.1904l3.0269,3.0273l3.0273-3.0273c0.293-0.2925,0.4541-0.6816,0.4541-1.0952
		s-0.1611-0.8022-0.4541-1.0952c-0.585-0.5845-1.6045-0.5854-2.1904,0l-0.4834,0.4829c-0.0938,0.0938-0.2207,0.1465-0.3535,0.1465
		l0,0c-0.1328,0-0.2598-0.0527-0.3535-0.1465l-0.4824-0.4829C11.3979,9.3179,11.0088,9.1572,10.5952,9.1572z"/>
</g>
<rect x="0.0142" y="0.0344" fill="none" width="24" height="24"/>
</svg>
