<?xml version="1.0" encoding="utf-8"?>
<!-- Generator: Adobe Illustrator 18.1.0, SVG Export Plug-In . SVG Version: 6.00 Build 0)  -->
<svg version="1.1" id="Layer_1" xmlns="http://www.w3.org/2000/svg" xmlns:xlink="http://www.w3.org/1999/xlink" x="0px" y="0px"
	 width="24px" height="24px" viewBox="0 0 24 24" enable-background="new 0 0 24 24" xml:space="preserve">
<g>
	<path d="M19.3867,24.0391H4.6133c-0.2622,0-0.48-0.2021-0.4985-0.4639L2.7373,4.5664C2.7271,4.4277,2.7749,4.2915,2.8696,4.1899
		c0.0947-0.1021,0.2275-0.1597,0.3662-0.1597h17.5288c0.1387,0,0.2715,0.0576,0.3662,0.1597
		c0.0947,0.1016,0.1426,0.2378,0.1328,0.3765l-1.3779,19.0088C19.8662,23.8369,19.6484,24.0391,19.3867,24.0391z M5.0781,23.0391
		h13.8438l1.3057-18.0088H3.7734L5.0781,23.0391z"/>
	<path d="M22.8105,5.0303H1.1899c-0.2764,0-0.5-0.2236-0.5-0.5s0.2236-0.5,0.5-0.5h21.6206c0.2764,0,0.5,0.2236,0.5,0.5
		S23.0869,5.0303,22.8105,5.0303z"/>
	<path d="M15.2275,5.0303H8.7725c-0.1602,0-0.3105-0.0767-0.4048-0.2065C8.2734,4.6943,8.2476,4.5273,8.2974,4.375l0.9922-3.0381
		c0.0669-0.2056,0.2588-0.3447,0.4751-0.3447h4.4707c0.2168,0,0.4082,0.1392,0.4756,0.3447l0.9922,3.0381
		c0.0498,0.1523,0.0234,0.3193-0.0713,0.4487C15.5381,4.9536,15.3877,5.0303,15.2275,5.0303z M9.4619,4.0303h5.0762l-0.665-2.0381
		h-3.7456L9.4619,4.0303z"/>
	<path d="M12.0205,18.7822c-0.8003,0-1.6045-0.1953-2.335-0.5986c-0.2422-0.1328-0.3301-0.4375-0.1968-0.6787
		s0.438-0.332,0.6792-0.1963c1.5,0.8262,3.3906,0.5547,4.5977-0.6611c1.2109-1.2178,1.4805-3.123,0.6572-4.6328
		c-0.1328-0.2427-0.043-0.5464,0.1992-0.6787c0.2422-0.1328,0.5459-0.043,0.6777,0.1997c1.0352,1.896,0.6953,4.2876-0.8252,5.8169
		C14.543,18.291,13.2871,18.7822,12.0205,18.7822z"/>
	<path d="M8.1943,16.502c-0.1772,0-0.3486-0.0947-0.4395-0.2607c-1.0332-1.8955-0.6938-4.2881,0.8257-5.8174
		c1.521-1.5322,3.9028-1.8721,5.7896-0.8311c0.2422,0.1338,0.3301,0.438,0.1963,0.6797s-0.4395,0.3281-0.6787,0.1963
		c-1.5-0.8291-3.3901-0.5552-4.5981,0.6602c-1.21,1.2178-1.48,3.123-0.6567,4.6338c0.1323,0.2422,0.043,0.5459-0.1997,0.6787
		C8.3569,16.4824,8.2749,16.502,8.1943,16.502z"/>
	<path d="M12.0381,11.4492c-0.1914,0-0.3745-0.1108-0.457-0.2974c-0.1118-0.2524,0.002-0.5479,0.2544-0.6597l1.6509-0.7319
		l-0.7285-1.6626c-0.1104-0.2529,0.0049-0.5479,0.2578-0.6587c0.25-0.1099,0.5479,0.0044,0.6582,0.2573l0.9277,2.1187
		c0.1104,0.2524-0.0039,0.5464-0.2549,0.6577l-2.1055,0.9336C12.1748,11.4355,12.1064,11.4492,12.0381,11.4492z"/>
	<path d="M10.855,20.3643c-0.1929,0-0.3765-0.1113-0.4585-0.2998l-0.9277-2.1182c-0.1104-0.252,0.0039-0.5459,0.2554-0.6572
		l2.1055-0.9336c0.2524-0.1123,0.5474,0.001,0.6597,0.2539s-0.002,0.5479-0.2539,0.6602l-1.6509,0.7314l0.728,1.6631
		c0.1108,0.2529-0.0044,0.5479-0.2573,0.6582C10.9897,20.3506,10.9219,20.3643,10.855,20.3643z"/>
</g>
<rect fill="none" width="24" height="24"/>
</svg>
