<?xml version="1.0" encoding="utf-8"?>
<!-- Generator: Adobe Illustrator 18.1.0, SVG Export Plug-In . SVG Version: 6.00 Build 0)  -->
<svg version="1.1" id="Layer_1" xmlns="http://www.w3.org/2000/svg" xmlns:xlink="http://www.w3.org/1999/xlink" x="0px" y="0px"
	 width="24px" height="24px" viewBox="0 0 24 24" enable-background="new 0 0 24 24" xml:space="preserve">
<g>
	<path d="M12.5,16.5195c-0.002,0-0.0039,0-0.0068,0c-0.1475-0.002-0.2861-0.0684-0.3799-0.1826l-7.793-9.5005
		C4.1978,6.687,4.1724,6.4805,4.2549,6.3057c0.083-0.1748,0.2588-0.2861,0.4521-0.2861h15.999c0.1953,0,0.373,0.1143,0.4551,0.292
		c0.0811,0.1777,0.0508,0.3867-0.0771,0.5347l-8.2061,9.5005C12.7832,16.4561,12.6455,16.5195,12.5,16.5195z M5.7637,7.0195
		l6.7461,8.2236l7.1035-8.2236H5.7637z"/>
	<path d="M12.5,24.0195c-0.2764,0-0.5-0.2236-0.5-0.5v-7.5c0-0.2764,0.2236-0.5,0.5-0.5s0.5,0.2236,0.5,0.5v7.5
		C13,23.7959,12.7764,24.0195,12.5,24.0195z"/>
	<path d="M17.4922,24.0195H7.5063c-0.2764,0-0.5-0.2236-0.5-0.5s0.2236-0.5,0.5-0.5h9.9858c0.2764,0,0.5,0.2236,0.5,0.5
		S17.7686,24.0195,17.4922,24.0195z"/>
	<path d="M18.1143,10.0195H7.168c-0.2764,0-0.5-0.2236-0.5-0.5s0.2236-0.5,0.5-0.5h10.9463c0.2764,0,0.5,0.2236,0.5,0.5
		S18.3906,10.0195,18.1143,10.0195z"/>
	<path d="M6.625,11.9717c-3.1567,0-5.7246-2.5679-5.7246-5.7246S3.4683,0.5225,6.625,0.5225s5.7246,2.5679,5.7246,5.7246
		c0,0.0947-0.0029,0.189-0.0068,0.2822c-0.0127,0.2764-0.2549,0.5-0.522,0.4771c-0.2759-0.0127-0.4897-0.2466-0.4771-0.5225
		c0.0034-0.0781,0.0059-0.1577,0.0059-0.2368c0-2.605-2.1196-4.7246-4.7246-4.7246S1.9004,3.6421,1.9004,6.2471
		S4.02,10.9717,6.625,10.9717c0.5806,0,1.1465-0.104,1.6826-0.3086c0.2559-0.0991,0.5464,0.0308,0.6455,0.2891
		c0.0981,0.2578-0.0308,0.5469-0.2891,0.6455C8.0137,11.8457,7.3276,11.9717,6.625,11.9717z"/>
</g>
<rect y="0.0197" fill="none" width="24" height="24"/>
</svg>
