<?xml version="1.0" encoding="utf-8"?>
<!-- Generator: Adobe Illustrator 18.1.0, SVG Export Plug-In . SVG Version: 6.00 Build 0)  -->
<svg version="1.1" id="Layer_1" xmlns="http://www.w3.org/2000/svg" xmlns:xlink="http://www.w3.org/1999/xlink" x="0px" y="0px"
	 width="24px" height="24px" viewBox="0 0 24 24" enable-background="new 0 0 24 24" xml:space="preserve">
<g>
	<path d="M20.6064,14.042h-1.8477c-0.2764,0-0.5-0.2236-0.5-0.5s0.2236-0.5,0.5-0.5h1.8477c0.2764,0,0.5,0.2236,0.5,0.5
		S20.8828,14.042,20.6064,14.042z"/>
	<path d="M19.5947,17.0654h-1.3271c-0.2764,0-0.5-0.2236-0.5-0.5s0.2236-0.5,0.5-0.5h1.3271c0.2764,0,0.5,0.2236,0.5,0.5
		S19.8711,17.0654,19.5947,17.0654z"/>
	<path d="M17.9971,22.7861c-1.291,0-6.8306-0.1016-11.6587-1.749c-0.2612-0.0898-0.4009-0.374-0.3115-0.6348
		c0.0894-0.2617,0.3726-0.3984,0.6348-0.3125c5.2261,1.7842,11.5366,1.6914,11.5972,1.6943c0.7402,0,1.1758-0.2852,1.1758-0.7617
		c0-0.4492-0.3857-0.9346-1.0088-0.9346h-0.708c-0.2764,0-0.5-0.2236-0.5-0.5s0.2236-0.5,0.5-0.5h0.708
		c1.2412,0,2.0088,1.0039,2.0088,1.9346c0,0.877-0.6699,1.7617-2.167,1.7617C18.2412,22.7842,18.1475,22.7861,17.9971,22.7861z"/>
	<path d="M19.5947,20.0879h-1.1689c-0.2764,0-0.5-0.2236-0.5-0.5s0.2236-0.5,0.5-0.5h1.1689c0.7988,0,1.0117-0.6367,1.0117-1.0127
		c0-0.4658-0.2656-1.0098-1.0117-1.0098c-0.2764,0-0.5-0.2236-0.5-0.5s0.2236-0.5,0.5-0.5h1.0117
		c0.7939,0,1.0059-0.6455,1.0059-1.0273c0-0.459-0.2627-0.9961-1.0059-0.9961c-0.2764,0-0.5-0.2236-0.5-0.5s0.2236-0.5,0.5-0.5
		h0.1562c0.7988,0,1.0117-0.6367,1.0117-1.0127c0-0.269-0.0918-0.5264-0.251-0.7056c-0.1797-0.2017-0.4355-0.3042-0.7607-0.3042
		h-7.2363c-0.167,0-0.3223-0.083-0.415-0.2212c-0.0928-0.1387-0.1104-0.314-0.0479-0.4683c1.6016-3.9131,0.9199-6.4746-0.1514-7.479
		c-0.4102-0.3857-0.7979-0.4614-0.9858-0.3706C11.75,2.5659,11.665,2.8516,11.6992,3.2446c0.3828,4.3838-4.6748,8.4126-4.8901,8.582
		c-0.2183,0.1699-0.5308,0.1338-0.7021-0.084c-0.1704-0.2168-0.1328-0.5312,0.084-0.7021c0.0483-0.0381,4.8477-3.8652,4.5122-7.709
		c-0.0728-0.8345,0.2139-1.4727,0.7866-1.7505c0.6206-0.3018,1.4292-0.0952,2.1069,0.5405c1.292,1.2124,2.0957,3.9004,0.6572,7.8979
		h6.5088c0.7754,0,1.248,0.3477,1.5078,0.6392c0.3252,0.3652,0.5039,0.8521,0.5039,1.3706c0,0.5957-0.2451,1.1953-0.7227,1.584
		c0.3711,0.3799,0.5605,0.9043,0.5605,1.4248c0,0.8145-0.4502,1.6377-1.3184,1.9229c0.2031,0.3232,0.3125,0.709,0.3125,1.1143
		C21.6064,19.0752,20.915,20.0879,19.5947,20.0879z"/>
	<path d="M6.5,23h-6C0.2236,23,0,22.7764,0,22.5v-12C0,10.2236,0.2236,10,0.5,10h6C6.7764,10,7,10.2236,7,10.5v12
		C7,22.7764,6.7764,23,6.5,23z M1,22h5V11H1V22z"/>
</g>
<rect fill="none" width="24" height="24"/>
</svg>
