<?xml version="1.0" encoding="utf-8"?>
<!-- Generator: Adobe Illustrator 18.1.0, SVG Export Plug-In . SVG Version: 6.00 Build 0)  -->
<svg version="1.1" id="Layer_1" xmlns="http://www.w3.org/2000/svg" xmlns:xlink="http://www.w3.org/1999/xlink" x="0px" y="0px"
	 width="24px" height="24px" viewBox="0 0 24 24" enable-background="new 0 0 24 24" xml:space="preserve">
<g>
	<path d="M14.9023,8.0571c-1.0342,0-2.0889-0.4219-3.1338-1.2544c-0.1245-0.0991-0.1943-0.252-0.188-0.4111
		c0.0879-2.2158,2.0581-3.436,5.5474-3.436c1.3652,0,2.457,0.1855,2.5029,0.1934c0.1514,0.0259,0.2822,0.1201,0.3545,0.2549
		c0.0732,0.1353,0.0801,0.2964,0.0195,0.437C19.9297,4.0127,18.1367,8.0571,14.9023,8.0571z M12.6025,6.1816
		c0.79,0.5811,1.5625,0.8755,2.2998,0.8755c1.9248,0,3.2949-1.9834,3.875-3.0117c-0.4229-0.0449-1.0078-0.0898-1.6494-0.0898
		C15.1836,3.9556,12.8652,4.3501,12.6025,6.1816z"/>
	<path d="M12.0801,6.9116c-0.001,0-0.001,0-0.002,0c-0.2485-0.001-0.4585-0.1841-0.4932-0.4302
		c-0.0283-0.2002-0.6616-4.9087,1.6885-6.2148c0.1699-0.0928,0.374-0.0815,0.5322,0.0288c0.1562,0.1108,0.2363,0.3018,0.2041,0.4912
		c0.2754,0.0659,0.4229,0.2056,0.4932,0.3916c0.1445,0.3838-0.0654,0.7495-0.4463,1.4141c-0.4863,0.8472-1.2207,2.127-1.4824,3.8926
		C12.5381,6.73,12.3281,6.9116,12.0801,6.9116z M13.3359,1.4868c-0.3506,0.397-0.5674,0.978-0.6943,1.6108
		c0.1973-0.3926,0.3896-0.7275,0.5479-1.0029c0.0957-0.167,0.2061-0.3599,0.2793-0.5049
		C13.4199,1.5576,13.376,1.5229,13.3359,1.4868z"/>
	<path d="M10.2529,7.1787L10.2529,7.1787c-2.8721,0-5.2944-1.8911-5.8901-4.5986C4.3062,2.3237,4.4575,2.0674,4.7095,1.9932
		c0.6509-0.1924,1.313-0.29,1.9673-0.29c2.8843,0,5.3071,1.8926,5.8916,4.603c0.0557,0.2563-0.0967,0.5117-0.3477,0.5854
		C11.5679,7.082,10.9058,7.1787,10.2529,7.1787z M5.4668,2.832c0.6548,1.9927,2.5571,3.3467,4.7861,3.3467
		c0.4014,0,0.8076-0.043,1.2129-0.1279c-0.647-1.9937-2.5508-3.3477-4.7891-3.3477C6.2759,2.7031,5.8706,2.7461,5.4668,2.832z"/>
	<path d="M12.0205,23.8896c-2.4219,0-7.7896-6.9561-8.0024-12.417C3.9102,8.6885,5.8369,6.7974,9.4429,6.1475
		c0.2773-0.0488,0.5322,0.1313,0.5811,0.4033S9.8921,7.0825,9.6206,7.1318c-3.1436,0.5664-4.6919,2.0137-4.6035,4.3018
		c0.2041,5.2324,5.4497,11.4561,7.0034,11.4561c0.4707,0,1.4453-0.5293,2.7705-2.0166c2.3555-2.6426,4.7178-7.0605,4.4258-9.5923
		c-0.1738-1.5176-1.2822-2.7832-3.1191-3.5645c-0.2549-0.1079-0.373-0.4014-0.2646-0.6558
		c0.1074-0.2539,0.4023-0.3721,0.6553-0.2642c2.1836,0.9277,3.5049,2.48,3.7227,4.3701c0.3271,2.8442-2.1191,7.5063-4.6738,10.3716
		C14.5811,22.6113,13.1953,23.8896,12.0205,23.8896z"/>
	<path d="M12.4199,14.8408c-0.2764,0-0.5-0.2236-0.5-0.5V13.54c0-0.2764,0.2236-0.5,0.5-0.5s0.5,0.2236,0.5,0.5v0.8008
		C12.9199,14.6172,12.6963,14.8408,12.4199,14.8408z"/>
	<path d="M12.4199,20.7939c-0.0381,0-0.0771-0.0049-0.1172-0.0137c-0.2676-0.0645-0.4336-0.335-0.3691-0.6035l0.1895-0.7891
		c0.0645-0.2676,0.3242-0.4297,0.6035-0.3691c0.2676,0.0645,0.4336,0.335,0.3691,0.6035l-0.1895,0.7891
		C12.8506,20.6396,12.6465,20.7939,12.4199,20.7939z"/>
	<path d="M9.6055,16.9346c-0.2539,0-0.4712-0.1924-0.4971-0.4502l-0.0815-0.8076c-0.0278-0.2744,0.1724-0.5195,0.4473-0.5469
		c0.2852-0.0322,0.5205,0.1729,0.5479,0.4473l0.0815,0.8076c0.0278,0.2744-0.1724,0.5195-0.4473,0.5469
		C9.6392,16.9336,9.6221,16.9346,9.6055,16.9346z"/>
	<path d="M16.4365,13.8867c-0.2764,0-0.5-0.2236-0.5-0.5v-0.8008c0-0.2764,0.2236-0.5,0.5-0.5s0.5,0.2236,0.5,0.5v0.8008
		C16.9365,13.6631,16.7129,13.8867,16.4365,13.8867z"/>
	<path d="M14.4336,17.9463c-0.0918,0-0.1836-0.0244-0.2666-0.0771c-0.2334-0.1475-0.3037-0.4561-0.1562-0.6895l0.4375-0.6934
		c0.1475-0.2354,0.458-0.3027,0.6895-0.1562c0.2334,0.1475,0.3037,0.4561,0.1562,0.6895l-0.4375,0.6934
		C14.7617,17.8643,14.5986,17.9463,14.4336,17.9463z"/>
	<path d="M7.4839,13.8867c-0.2764,0-0.5-0.2236-0.5-0.5v-0.8008c0-0.2764,0.2236-0.5,0.5-0.5s0.5,0.2236,0.5,0.5v0.8008
		C7.9839,13.6631,7.7603,13.8867,7.4839,13.8867z"/>
	<path d="M9.3667,10.9355c-0.082,0-0.165-0.02-0.2417-0.0625c-0.2417-0.1338-0.3291-0.438-0.1953-0.6797l0.396-0.7148
		C9.46,9.2363,9.7642,9.1504,10.0054,9.2832c0.2417,0.1338,0.3291,0.438,0.1953,0.6797l-0.396,0.7148
		C9.7134,10.8428,9.5425,10.9355,9.3667,10.9355z"/>
	<path d="M13.708,10.8359c-0.2197,0-0.4209-0.145-0.4814-0.3667l-0.2148-0.7764c-0.0742-0.2661,0.082-0.5415,0.3477-0.6152
		c0.2705-0.0737,0.543,0.083,0.6152,0.3486l0.2148,0.7764c0.0742,0.2661-0.082,0.5415-0.3477,0.6152
		C13.7969,10.8301,13.752,10.8359,13.708,10.8359z"/>
</g>
<rect x="0.003" y="0.0346" fill="none" width="24" height="24"/>
</svg>
