<?xml version="1.0" encoding="utf-8"?>
<!-- Generator: Adobe Illustrator 18.1.0, SVG Export Plug-In . SVG Version: 6.00 Build 0)  -->
<svg version="1.1" id="Layer_1" xmlns="http://www.w3.org/2000/svg" xmlns:xlink="http://www.w3.org/1999/xlink" x="0px" y="0px"
	 width="24px" height="24px" viewBox="0 0 24 24" enable-background="new 0 0 24 24" xml:space="preserve">
<g>
	<path d="M16.6396,8.876c-0.1279,0-0.2559-0.0488-0.3535-0.1465c-0.1953-0.1953-0.1953-0.5117,0-0.707l2.5137-2.5137l-2.5137-2.5137
		c-0.1953-0.1953-0.1953-0.5117,0-0.707s0.5117-0.1953,0.707,0l2.8672,2.8672c0.1953,0.1953,0.1953,0.5117,0,0.707l-2.8672,2.8672
		C16.8955,8.8271,16.7676,8.876,16.6396,8.876z"/>
	<path d="M0.5,13.501c-0.2764,0-0.5-0.2236-0.5-0.5V9.708c0-2.5957,2.0947-4.707,4.6694-4.707h14.8374c0.2764,0,0.5,0.2236,0.5,0.5
		s-0.2236,0.5-0.5,0.5H4.6694C2.646,6.001,1,7.6641,1,9.708v3.293C1,13.2773,0.7764,13.501,0.5,13.501z"/>
	<path d="M7.3433,21.8652c-0.1279,0-0.2559-0.0488-0.3535-0.1465l-2.8672-2.8672c-0.1953-0.1953-0.1953-0.5117,0-0.707
		l2.8672-2.8672c0.1953-0.1953,0.5117-0.1953,0.707,0s0.1953,0.5117,0,0.707L5.1831,18.498l2.5137,2.5137
		c0.1953,0.1953,0.1953,0.5117,0,0.707C7.5991,21.8164,7.4712,21.8652,7.3433,21.8652z"/>
	<path d="M19.3135,19.001H4.4761c-0.2764,0-0.5-0.2236-0.5-0.5s0.2236-0.5,0.5-0.5h14.8374c2.0332,0,3.6865-1.6611,3.6865-3.7021
		V11.001c0-0.2764,0.2236-0.5,0.5-0.5s0.5,0.2236,0.5,0.5v3.2979C24,16.8916,21.8975,19.001,19.3135,19.001z"/>
</g>
<rect y="0.001" fill="none" width="24" height="24"/>
</svg>
