<?xml version="1.0" encoding="utf-8"?>
<!-- Generator: Adobe Illustrator 18.1.0, SVG Export Plug-In . SVG Version: 6.00 Build 0)  -->
<svg version="1.1" id="Layer_1" xmlns="http://www.w3.org/2000/svg" xmlns:xlink="http://www.w3.org/1999/xlink" x="0px" y="0px"
	 width="24px" height="24px" viewBox="0 0 24 24" enable-background="new 0 0 24 24" xml:space="preserve">
<g>
	<path d="M13.958,24.0996h-1.584c-0.2471,0-0.4565-0.1797-0.4941-0.4238c-0.0537-0.3467-0.6523-0.3447-0.7056,0
		c-0.0376,0.2441-0.2476,0.4238-0.4941,0.4238h-1.584c-0.2485,0-0.459-0.1826-0.4946-0.4277l-1.3169-9.0664
		c-0.021-0.1436,0.0215-0.29,0.1167-0.3994c0.0947-0.1094,0.2329-0.1729,0.3779-0.1729h7.4961c0.1455,0,0.2832,0.0635,0.3779,0.1729
		s0.1377,0.2559,0.1172,0.3994l-1.3174,9.0664C14.417,23.917,14.2061,24.0996,13.958,24.0996z M12.7305,23.0996h0.7949
		l1.1719-8.0664H8.3569l1.1719,8.0664h0.7954c0.2275-0.4385,0.6826-0.7266,1.2031-0.7266S12.5029,22.6611,12.7305,23.0996z"/>
	<path d="M11.8511,9.9268c-0.1143,0-0.2285-0.0039-0.3418-0.0083c-0.2622-0.0093-0.4722-0.2192-0.4814-0.4814
		c-0.0044-0.1133-0.0083-0.2275-0.0083-0.3418c0-4.9429,4.1279-8.9346,9.1045-8.7539c0.2617,0.0098,0.4717,0.2192,0.4814,0.481
		c0.0898,2.4116-0.7773,4.6919-2.4414,6.4199C16.4961,8.9731,14.2549,9.9268,11.8511,9.9268z M19.6094,1.3369
		c-4.1445,0.0918-7.498,3.4453-7.5879,7.5879c2.0645-0.0435,3.9844-0.8838,5.4219-2.3765
		C18.8076,5.1323,19.5674,3.2964,19.6094,1.3369z"/>
	<path d="M11.2646,9.9253c-1.9766,0-3.8203-0.7847-5.1919-2.21C4.7046,6.2935,3.9927,4.4204,4.0688,2.4414
		c0.0098-0.2612,0.2192-0.4702,0.48-0.4805c4.0898-0.1787,7.4844,3.1289,7.4844,7.1953c0,0.0942-0.0029,0.1885-0.0059,0.2822
		c-0.0107,0.2607-0.2197,0.4697-0.4805,0.48C11.4531,9.9224,11.3594,9.9253,11.2646,9.9253z M5.0674,2.9595
		C5.123,4.4854,5.7266,5.9131,6.7935,7.022c1.1265,1.1704,2.623,1.8398,4.2358,1.8989C10.9082,5.687,8.2998,3.0791,5.0674,2.9595z"
		/>
	<path d="M11.5273,15.0332c-0.2764,0-0.5-0.2236-0.5-0.5V9.4189c0-0.2764,0.2236-0.5,0.5-0.5s0.5,0.2236,0.5,0.5v5.1143
		C12.0273,14.8096,11.8037,15.0332,11.5273,15.0332z"/>
</g>
<rect x="0.0142" y="0.0354" fill="none" width="24" height="24"/>
</svg>
