<?xml version="1.0" encoding="utf-8"?>
<!-- Generator: Adobe Illustrator 18.1.0, SVG Export Plug-In . SVG Version: 6.00 Build 0)  -->
<svg version="1.1" id="Layer_1" xmlns="http://www.w3.org/2000/svg" xmlns:xlink="http://www.w3.org/1999/xlink" x="0px" y="0px"
	 width="24px" height="24px" viewBox="0 0 24 24" enable-background="new 0 0 24 24" xml:space="preserve">
<g>
	<path d="M5.5,6h-2C3.2236,6,3,5.7764,3,5.5v-2C3,3.2236,3.2236,3,3.5,3h2C5.7764,3,6,3.2236,6,3.5v2C6,5.7764,5.7764,6,5.5,6z M4,5
		h1V4H4V5z"/>
	<path d="M5.5,13.001h-2c-0.2764,0-0.5-0.2236-0.5-0.5v-2.0005c0-0.2764,0.2236-0.5,0.5-0.5h2c0.2764,0,0.5,0.2236,0.5,0.5v2.0005
		C6,12.7773,5.7764,13.001,5.5,13.001z M4,12.001h1v-1.0005H4V12.001z"/>
	<path d="M5.5,20.001h-2c-0.2764,0-0.5-0.2236-0.5-0.5v-2c0-0.2764,0.2236-0.5,0.5-0.5h2c0.2764,0,0.5,0.2236,0.5,0.5v2
		C6,19.7773,5.7764,20.001,5.5,20.001z M4,19.001h1v-1H4V19.001z"/>
	<path d="M20.4404,19H8.5093c-0.2764,0-0.5-0.2236-0.5-0.5s0.2236-0.5,0.5-0.5h11.9312c0.2764,0,0.5,0.2236,0.5,0.5
		S20.7168,19,20.4404,19z"/>
	<path d="M20.4404,12H8.5093c-0.2764,0-0.5-0.2236-0.5-0.5s0.2236-0.5,0.5-0.5h11.9312c0.2764,0,0.5,0.2236,0.5,0.5
		S20.7168,12,20.4404,12z"/>
	<path d="M20.4404,5H8.5093c-0.2764,0-0.5-0.2236-0.5-0.5S8.2329,4,8.5093,4h11.9312c0.2764,0,0.5,0.2236,0.5,0.5
		S20.7168,5,20.4404,5z"/>
</g>
<rect x="0.0001" fill="none" width="24" height="24"/>
</svg>
