<?xml version="1.0" encoding="utf-8"?>
<!-- Generator: Adobe Illustrator 18.1.0, SVG Export Plug-In . SVG Version: 6.00 Build 0)  -->
<svg version="1.1" id="Layer_1" xmlns="http://www.w3.org/2000/svg" xmlns:xlink="http://www.w3.org/1999/xlink" x="0px" y="0px"
	 width="24px" height="24px" viewBox="0 0 24 24" enable-background="new 0 0 24 24" xml:space="preserve">
<g>
	<path d="M16.1045,18.0068H7.8662c-2.5889,0-4.3286-1.4678-4.3286-3.6514l0.959-10.4155c-0.002-2.2524,1.8188-3.9204,4.3271-3.9204
		h6.3228c2.5088,0,4.3291,1.668,4.3291,3.9663l0.9551,10.3237C20.4326,16.5391,18.6934,18.0068,16.1045,18.0068z M8.8237,1.0195
		c-1.9292,0-3.3291,1.2476-3.3291,2.9663l-0.959,10.4155c0.002,1.9092,1.7212,2.6055,3.3306,2.6055h8.2383
		c1.6094,0,3.3281-0.6963,3.3281-2.6514L18.4775,4.0317c-0.002-1.7646-1.4023-3.0122-3.3311-3.0122H8.8237z"/>
	<path d="M19.0391,5.1772c-0.1768,0-0.3477-0.0938-0.4385-0.2598c-0.1963-0.3579-1.4092-0.8877-3.3887-0.8877H8.7588
		c-1.9702,0-3.186,0.5283-3.3872,0.8853C5.2358,5.1548,4.9307,5.2402,4.6904,5.105C4.4497,4.9692,4.3647,4.6646,4.5005,4.4238
		c0.5801-1.0288,2.6567-1.394,4.2583-1.394h6.4531c1.6123,0,3.6963,0.3687,4.2656,1.4072c0.1328,0.2422,0.0439,0.5459-0.1982,0.6787
		C19.2031,5.1577,19.1211,5.1772,19.0391,5.1772z"/>
	<path d="M15.3818,11.9653H8.5757c-2.2314,0-4.6211-0.8091-4.6211-2.0132c0-0.2764,0.2236-0.5,0.5-0.5
		c0.27,0,0.4897,0.2139,0.4995,0.481c0.1274,0.3066,1.5229,1.0322,3.6216,1.0322h6.8062c2.1211,0,3.5303-0.7388,3.6387-1.041
		c0-0.2759,0.2217-0.4858,0.498-0.4858s0.498,0.2373,0.498,0.5137C20.0166,11.1562,17.6201,11.9653,15.3818,11.9653z"/>
	<path d="M7.5879,15.9697c-0.9058,0-1.6431-0.7314-1.6431-1.6299s0.7373-1.6289,1.6431-1.6289c0.9062,0,1.6436,0.7305,1.6436,1.6289
		S8.4941,15.9697,7.5879,15.9697z M7.5879,13.7109c-0.3545,0-0.6431,0.2822-0.6431,0.6289c0,0.3477,0.2886,0.6299,0.6431,0.6299
		c0.355,0,0.6436-0.2822,0.6436-0.6299C8.2314,13.9932,7.9429,13.7109,7.5879,13.7109z"/>
	<path d="M16.3252,15.9697c-0.9062,0-1.6436-0.7314-1.6436-1.6299s0.7373-1.6289,1.6436-1.6289s1.6436,0.7305,1.6436,1.6289
		S17.2314,15.9697,16.3252,15.9697z M16.3252,13.7109c-0.3545,0-0.6436,0.2822-0.6436,0.6289c0,0.3477,0.2891,0.6299,0.6436,0.6299
		s0.6436-0.2822,0.6436-0.6299C16.9688,13.9932,16.6797,13.7109,16.3252,13.7109z"/>
	<path d="M7.02,23.7998c-0.0591,0-0.1196-0.0107-0.1782-0.0332c-0.2578-0.0977-0.3872-0.3867-0.2891-0.6445l1.5991-4.1943
		c0.0977-0.2588,0.3862-0.3877,0.6455-0.2891c0.2578,0.0977,0.3872,0.3867,0.2891,0.6445l-1.5991,4.1943
		C7.4111,23.6777,7.2212,23.7998,7.02,23.7998z"/>
	<path d="M16.9189,23.7998c-0.2012,0-0.3916-0.1221-0.4668-0.3223l-1.5996-4.1943c-0.0986-0.2578,0.0303-0.5469,0.2891-0.6445
		c0.2568-0.0986,0.5479,0.0303,0.6445,0.2891l1.5996,4.1943c0.0986,0.2578-0.0303,0.5469-0.2891,0.6445
		C17.0381,23.7891,16.9785,23.7998,16.9189,23.7998z"/>
	<path d="M16.1191,21.9336H7.8193c-0.2764,0-0.5-0.2236-0.5-0.5s0.2236-0.5,0.5-0.5h8.2998c0.2764,0,0.5,0.2236,0.5,0.5
		S16.3955,21.9336,16.1191,21.9336z"/>
	<path d="M13.373,2.5376h-2.7705c-0.2764,0-0.5-0.2236-0.5-0.5s0.2236-0.5,0.5-0.5h2.7705c0.2764,0,0.5,0.2236,0.5,0.5
		S13.6494,2.5376,13.373,2.5376z"/>
</g>
<rect x="-0.0136" y="0.0002" fill="none" width="24" height="24"/>
</svg>
