<?xml version="1.0" encoding="utf-8"?>
<!-- Generator: Adobe Illustrator 18.1.0, SVG Export Plug-In . SVG Version: 6.00 Build 0)  -->
<svg version="1.1" id="Layer_1" xmlns="http://www.w3.org/2000/svg" xmlns:xlink="http://www.w3.org/1999/xlink" x="0px" y="0px"
	 width="24px" height="24px" viewBox="0 0 24 24" enable-background="new 0 0 24 24" xml:space="preserve">
<g>
	<path d="M22.9922,24h-22c-0.2764,0-0.5-0.2236-0.5-0.5s0.2236-0.5,0.5-0.5h22c0.2764,0,0.5,0.2236,0.5,0.5S23.2686,24,22.9922,24z"
		/>
	<path d="M22.4863,15h-21c-0.2764,0-0.5-0.2236-0.5-0.5v-2c0-0.2764,0.2236-0.5,0.5-0.5h21c0.2764,0,0.5,0.2236,0.5,0.5v2
		C22.9863,14.7764,22.7627,15,22.4863,15z M1.9863,14h20v-1h-20V14z"/>
	<path d="M21.4863,13h-19c-0.2764,0-0.5-0.2236-0.5-0.5v-2c0-0.2764,0.2236-0.5,0.5-0.5s0.5,0.2236,0.5,0.5V12h18v-1.5
		c0-0.2764,0.2236-0.5,0.5-0.5s0.5,0.2236,0.5,0.5v2C21.9863,12.7764,21.7627,13,21.4863,13z"/>
	<path d="M21.9863,11h-6.5c-0.2764,0-0.5-0.2236-0.5-0.5s0.2236-0.5,0.5-0.5h6.5c0.2764,0,0.5,0.2236,0.5,0.5S22.2627,11,21.9863,11
		z"/>
	<path d="M8.4863,11h-6.5c-0.2764,0-0.5-0.2236-0.5-0.5S1.71,10,1.9863,10h6.5c0.2764,0,0.5,0.2236,0.5,0.5S8.7627,11,8.4863,11z"/>
	<path d="M22.9863,13h-22c-0.2764,0-0.5-0.2236-0.5-0.5S0.71,12,0.9863,12h22c0.2764,0,0.5,0.2236,0.5,0.5S23.2627,13,22.9863,13z"
		/>
	<path d="M15.4863,13h-7c-0.2764,0-0.5-0.2236-0.5-0.5v-3c0-0.2764,0.2236-0.5,0.5-0.5h7c0.2764,0,0.5,0.2236,0.5,0.5v3
		C15.9863,12.7764,15.7627,13,15.4863,13z M8.9863,12h6v-2h-6V12z"/>
	<path d="M2.4863,24c-0.2764,0-0.5-0.2236-0.5-0.5v-8.9883c0-0.2764,0.2236-0.5,0.5-0.5s0.5,0.2236,0.5,0.5V23.5
		C2.9863,23.7764,2.7627,24,2.4863,24z"/>
	<path d="M5.4863,24c-0.2764,0-0.5-0.2236-0.5-0.5v-8.9883c0-0.2764,0.2236-0.5,0.5-0.5s0.5,0.2236,0.5,0.5V23.5
		C5.9863,23.7764,5.7627,24,5.4863,24z"/>
	<path d="M9.4863,24c-0.2764,0-0.5-0.2236-0.5-0.5v-8.9883c0-0.2764,0.2236-0.5,0.5-0.5s0.5,0.2236,0.5,0.5V23.5
		C9.9863,23.7764,9.7627,24,9.4863,24z"/>
	<path d="M14.4863,24c-0.2764,0-0.5-0.2236-0.5-0.5v-8.9883c0-0.2764,0.2236-0.5,0.5-0.5s0.5,0.2236,0.5,0.5V23.5
		C14.9863,23.7764,14.7627,24,14.4863,24z"/>
	<path d="M18.4863,24c-0.2764,0-0.5-0.2236-0.5-0.5v-8.9883c0-0.2764,0.2236-0.5,0.5-0.5s0.5,0.2236,0.5,0.5V23.5
		C18.9863,23.7764,18.7627,24,18.4863,24z"/>
	<path d="M21.4863,24c-0.2764,0-0.5-0.2236-0.5-0.5v-8.9883c0-0.2764,0.2236-0.5,0.5-0.5s0.5,0.2236,0.5,0.5V23.5
		C21.9863,23.7764,21.7627,24,21.4863,24z"/>
	<path d="M11.9814,6.7349c-0.2764,0-0.5-0.2236-0.5-0.5V3.958c0-0.2764,0.2236-0.5,0.5-0.5s0.5,0.2236,0.5,0.5v2.2769
		C12.4814,6.5112,12.2578,6.7349,11.9814,6.7349z"/>
	<path d="M12.9814,10h-2c-0.145,0-0.2832-0.063-0.3779-0.1729c-0.0952-0.1099-0.1377-0.2554-0.1167-0.3989l0.4736-3.2651
		c0.0356-0.2456,0.2461-0.4282,0.4946-0.4282h1.0527c0.248,0,0.459,0.1826,0.4951,0.4282l0.4736,3.2651
		c0.0205,0.1436-0.0225,0.2891-0.1172,0.3989S13.127,10,12.9814,10z M11.5591,9h0.8442l-0.3281-2.2651h-0.1875L11.5591,9z"/>
	<path d="M12.6689,7.9775h-1.375c-0.2764,0-0.5-0.2236-0.5-0.5s0.2236-0.5,0.5-0.5h1.375c0.2764,0,0.5,0.2236,0.5,0.5
		S12.9453,7.9775,12.6689,7.9775z"/>
</g>
<rect x="-0.0136" fill="none" width="24" height="24"/>
</svg>
