<?xml version="1.0" encoding="utf-8"?>
<!-- Generator: Adobe Illustrator 18.1.0, SVG Export Plug-In . SVG Version: 6.00 Build 0)  -->
<svg version="1.1" id="Layer_1" xmlns="http://www.w3.org/2000/svg" xmlns:xlink="http://www.w3.org/1999/xlink" x="0px" y="0px"
	 width="24px" height="24px" viewBox="0 0 24 24" enable-background="new 0 0 24 24" xml:space="preserve">
<g>
	<path d="M17.5557,23.8672c-0.2764,0-0.5-0.2236-0.5-0.5v-5.8936c0-0.2764,0.2236-0.5,0.5-0.5h2.1387l-1.9619-4.915
		c-0.0352-0.0879-0.0439-0.1846-0.0264-0.2778l0.4404-2.3291c0.0635-2.0879-0.0049-2.8774-0.0547-3.1675L16.9092,7.561
		c-0.0947,0.1021-0.2275,0.1602-0.3672,0.1602l0,0c-0.1396,0-0.2725-0.0581-0.3672-0.1602l-1.1816-1.2769
		c-0.0488,0.2925-0.1172,1.0952-0.0459,3.2437l0.4307,2.2529c0.0176,0.0933,0.0088,0.1899-0.0264,0.2778l-1.9609,4.915h2.1387
		c0.2764,0,0.5,0.2236,0.5,0.5v5.8936c0,0.2764-0.2236,0.5-0.5,0.5s-0.5-0.2236-0.5-0.5v-5.3936h-2.377
		c-0.166,0-0.3213-0.082-0.4141-0.2197c-0.0928-0.1367-0.1113-0.3115-0.0508-0.4658l2.1807-5.4648l-0.4121-2.186
		c-0.1348-3.9316,0.1299-4.1187,0.5049-4.2651c0.0264-0.0127,0.0527-0.0234,0.0811-0.0317
		c0.3486-0.1035,0.7646-0.1895,1.0029,0.0669l0.9971,1.0781l0.998-1.0781c0.2383-0.2563,0.6543-0.1704,1.0029-0.0669
		c0.0283,0.0083,0.0557,0.019,0.0811,0.0317c0.375,0.1465,0.6387,0.335,0.5137,4.1885l-0.4219,2.2622l2.1816,5.4653
		c0.0605,0.1543,0.042,0.3291-0.0508,0.4658c-0.0928,0.1377-0.248,0.2197-0.4141,0.2197h-2.377v5.3936
		C18.0557,23.6436,17.832,23.8672,17.5557,23.8672z"/>
	<path d="M7.4805,23.9473L7.4805,23.9473c-0.2764,0-0.5-0.2236-0.5-0.5L6.981,15.501c0-0.2764,0.2241-0.5,0.5-0.5l0,0
		c0.2764,0,0.5,0.2236,0.5,0.5l-0.0005,7.9463C7.9805,23.7236,7.7563,23.9473,7.4805,23.9473z"/>
	<path d="M7.481,4.5225c-1.165,0-1.938-1.4463-1.938-2.4028c0-1.0684,0.8691-1.9375,1.938-1.9375
		c1.0684,0,1.9375,0.8691,1.9375,1.9375C9.4185,3.0762,8.6455,4.5225,7.481,4.5225z M7.481,1.1821
		c-0.5171,0-0.938,0.4204-0.938,0.9375c0,0.5796,0.4854,1.4028,0.938,1.4028s0.9375-0.8232,0.9375-1.4028
		C8.4185,1.6025,7.998,1.1821,7.481,1.1821z"/>
	<path d="M16.542,4.7402c-1.1211,0-1.8643-1.4458-1.8643-2.4023c0-1.0688,0.8369-1.938,1.8652-1.938s1.8643,0.8691,1.8643,1.938
		C18.4072,3.2944,17.6631,4.7402,16.542,4.7402z M16.543,1.3999c-0.4775,0-0.8652,0.4209-0.8652,0.938
		c0,0.6162,0.4844,1.4023,0.8643,1.4023s0.8652-0.7861,0.8652-1.4023C17.4072,1.8208,17.0195,1.3999,16.543,1.3999z"/>
	<path d="M9.3413,23.9473c-0.0098,0-0.0195,0-0.0293-0.001c-0.2759-0.0156-0.4863-0.252-0.4702-0.5273l0.5688-9.8662
		c0.0078-0.1348,0.0928-0.3125,0.1948-0.4004c0.1528-0.1328,0.3267-0.1562,0.499-0.1543c0.1685-4.9937-0.1011-6.5034-0.2305-6.9292
		C9.7725,6.0649,9.6445,6.0601,9.5293,6.0552L9.2261,6.0415C9.1636,6.0322,9.1133,6.0996,9.0859,6.1528
		C8.7993,6.7085,8.1841,7.0532,7.481,7.0532c-0.0005,0-0.0005,0-0.0005,0C6.7769,7.0527,6.1621,6.708,5.8765,6.1533
		C5.8486,6.0996,5.7817,6.0356,5.7358,6.0415L5.4326,6.0552C5.3115,6.0605,5.1763,6.0654,5.0654,6.0708
		c-0.0923,0.3423-0.3818,1.7925-0.208,6.9272c0.167-0.0029,0.3462,0.0215,0.499,0.1543c0.104,0.0898,0.1899,0.2705,0.1953,0.4082
		l0.5674,9.8584c0.0161,0.2754-0.1948,0.5117-0.4702,0.5273c-0.2705,0.0195-0.5122-0.1943-0.5278-0.4707l-0.5444-9.4531
		c-0.1689,0.0107-0.3545-0.0156-0.5107-0.1514c-0.104-0.0908-0.1875-0.2676-0.1924-0.4053
		C3.5913,5.9292,4.2388,5.3887,4.4517,5.2114C4.5059,5.166,4.5688,5.1328,4.6367,5.1138c0.0947-0.0264,0.2075-0.0352,0.7549-0.0576
		l0.2817-0.0127c0.458-0.0254,0.8696,0.2217,1.0918,0.6514c0.1123,0.2178,0.3931,0.3584,0.7153,0.3584H7.481
		c0.3228,0,0.6035-0.1406,0.7158-0.3584C8.418,5.2651,8.8315,5.0166,9.2886,5.0435l0.2817,0.0127
		c0.5474,0.0225,0.6602,0.0312,0.7549,0.0576c0.0679,0.019,0.1309,0.0522,0.1851,0.0977c0.2129,0.1772,0.8599,0.7173,0.5781,8.2544
		C11.0835,13.6035,11,13.7803,10.896,13.8711c-0.1562,0.1357-0.3379,0.1641-0.5112,0.1514l-0.5449,9.4531
		C9.8247,23.7422,9.604,23.9473,9.3413,23.9473z"/>
</g>
<rect x="-0.0136" y="0.0002" fill="none" width="24" height="24"/>
</svg>
