<?xml version="1.0" encoding="utf-8"?>
<!-- Generator: Adobe Illustrator 18.1.0, SVG Export Plug-In . SVG Version: 6.00 Build 0)  -->
<svg version="1.1" id="Layer_1" xmlns="http://www.w3.org/2000/svg" xmlns:xlink="http://www.w3.org/1999/xlink" x="0px" y="0px"
	 width="24px" height="24px" viewBox="0 0 24 24" enable-background="new 0 0 24 24" xml:space="preserve">
<g>
	<path d="M15.6875,24.0283h-7.377c-0.5405,0-0.98-0.4004-0.98-0.8916l0.4863-3.0439c0.0444-0.2715,0.2969-0.4629,0.5737-0.4131
		c0.2725,0.0439,0.4575,0.3008,0.4136,0.5732l-0.4487,2.7705l7.2949,0.0049l-0.457-2.7754
		c-0.0449-0.2725,0.1406-0.5293,0.4131-0.5732c0.2686-0.0488,0.5293,0.1396,0.5732,0.4131l0.4814,2.9639
		C16.668,23.6279,16.2285,24.0283,15.6875,24.0283z"/>
	<path d="M21.874,18H2.123C0.9526,18,0,17.041,0,15.8623V2.1309C0,0.936,0.9326,0,2.123,0h19.751C23.0664,0,24,0.936,24,2.1309
		v13.7314C24,17.041,23.0459,18,21.874,18z M2.123,1C1.4932,1,1,1.4966,1,2.1309v13.7314C1,16.5,1.4932,17,2.123,17h19.751
		C22.5059,17,23,16.5,23,15.8623V2.1309C23,1.4966,22.5059,1,21.874,1H2.123z"/>
	<path d="M23.5,15H0.501c-0.2764,0-0.5-0.2236-0.5-0.5s0.2236-0.5,0.5-0.5H23.5c0.2764,0,0.5,0.2236,0.5,0.5S23.7764,15,23.5,15z"/>
</g>
<rect fill="none" width="24" height="24"/>
</svg>
