<?xml version="1.0" encoding="utf-8"?>
<!-- Generator: Adobe Illustrator 18.1.0, SVG Export Plug-In . SVG Version: 6.00 Build 0)  -->
<svg version="1.1" id="Layer_1" xmlns="http://www.w3.org/2000/svg" xmlns:xlink="http://www.w3.org/1999/xlink" x="0px" y="0px"
	 width="24px" height="24px" viewBox="0 0 24 24" enable-background="new 0 0 24 24" xml:space="preserve">
<g>
	<path d="M8.5205,3.8286c-0.9883,0-1.792-0.8042-1.792-1.7925s0.8037-1.792,1.792-1.792s1.792,0.8037,1.792,1.792
		S9.5088,3.8286,8.5205,3.8286z M8.5205,1.2441c-0.4365,0-0.792,0.3555-0.792,0.792c0,0.437,0.3555,0.7925,0.792,0.7925
		s0.792-0.3555,0.792-0.7925C9.3125,1.5996,8.957,1.2441,8.5205,1.2441z"/>
	<path d="M3.1733,22.9531c-0.2207,0-0.4229-0.1475-0.4824-0.3711l-2.6167-9.79c-0.0342-0.1279-0.0161-0.2646,0.0503-0.3789
		c0.0659-0.1152,0.1753-0.1992,0.3037-0.2334l20.1675-5.3892c0.127-0.0361,0.2646-0.0156,0.3789,0.0503
		c0.1152,0.0659,0.1992,0.1753,0.2334,0.3037l2.6162,9.79c0.0713,0.2666-0.0879,0.541-0.3545,0.6123l-20.167,5.3896
		C3.2598,22.9473,3.2163,22.9531,3.1733,22.9531z M1.1694,13.0166l2.3584,8.8242L22.7285,16.71l-2.3574-8.8242L1.1694,13.0166z"/>
	<path d="M4.48,12.1152c-0.0649,0-0.1309-0.0127-0.1943-0.04c-0.2544-0.1069-0.3735-0.4004-0.2661-0.6548l3.5386-8.3887
		C7.6646,2.7773,7.959,2.6602,8.2129,2.7651C8.4673,2.8726,8.5864,3.166,8.479,3.4204l-3.5386,8.3887
		C4.8604,12,4.6748,12.1152,4.48,12.1152z"/>
	<path d="M16.8008,8.8223c-0.1055,0-0.2119-0.0332-0.3027-0.1016l-7.251-5.5054c-0.2202-0.167-0.2632-0.481-0.0962-0.7007
		c0.168-0.2192,0.4814-0.2617,0.7007-0.0962l7.252,5.5054c0.2197,0.167,0.2627,0.481,0.0957,0.7007
		C17.1006,8.7539,16.9512,8.8223,16.8008,8.8223z"/>
	<path d="M13.6201,16.2236c-0.2949,0-0.6143-0.0635-0.8799-0.1807c-0.252-0.1113-0.3672-0.4062-0.2549-0.6592
		c0.1104-0.2529,0.4072-0.3682,0.6592-0.2549c0.21,0.0918,0.502,0.1133,0.6416,0.0781c0.1846-0.0498,0.2607-0.1729,0.2578-0.2148
		c-0.0254,0.0195-0.1162-0.0488-0.4619-0.0498c-0.3418-0.0068-1.2227-0.0264-1.4248-0.79
		c-0.0723-0.2705-0.0303-0.5596,0.1182-0.8154c0.1758-0.3018,0.4854-0.5303,0.8496-0.626c0.4385-0.1152,0.8896-0.0293,1.2061,0.2344
		c0.2129,0.1768,0.2422,0.4912,0.0654,0.7041c-0.1768,0.2119-0.4912,0.2422-0.7041,0.0654
		c-0.0527-0.0439-0.1738-0.0732-0.3125-0.0371c-0.127,0.0332-0.207,0.1055-0.2402,0.1621c-0.0205,0.04,0.0693,0.0947,0.4541,0.1025
		c0.7969,0.002,1.2764,0.2676,1.416,0.7891c0.1611,0.6113-0.2734,1.2578-0.9678,1.4424
		C13.9141,16.207,13.7705,16.2236,13.6201,16.2236z"/>
	<path d="M7.3604,17.9277c-0.2212,0-0.4233-0.1484-0.4829-0.3721l-0.6626-2.5029c-0.0708-0.2666,0.0884-0.541,0.3555-0.6113
		c0.2651-0.0713,0.5405,0.0889,0.6113,0.3555l0.5347,2.0195l1.1406-0.3018c0.2671-0.0713,0.54,0.0889,0.6113,0.3555
		c0.0708,0.2666-0.0884,0.541-0.3555,0.6113l-1.624,0.4297C7.4458,17.9229,7.4028,17.9277,7.3604,17.9277z"/>
	<path d="M10.5547,17.043c-0.7861,0-1.4824-0.5557-1.6934-1.3516c-0.1211-0.457-0.0674-0.9336,0.1514-1.3408
		c0.2251-0.418,0.5957-0.7139,1.0435-0.832c0.9028-0.2363,1.8643,0.3584,2.1128,1.2969c0.1211,0.457,0.0674,0.9336-0.1514,1.3408
		c-0.2251,0.418-0.5952,0.7139-1.043,0.832C10.8374,17.0244,10.6963,17.043,10.5547,17.043z M10.4756,14.4639
		c-0.0552,0-0.1099,0.0068-0.1636,0.0215c-0.1777,0.0469-0.3262,0.167-0.4185,0.3389c-0.0981,0.1826-0.1216,0.4004-0.0654,0.6113
		c0.1104,0.417,0.5117,0.6895,0.8906,0.5859c0.1772-0.0469,0.3257-0.167,0.418-0.3389c0.0981-0.1826,0.1216-0.4004,0.0654-0.6113
		C11.1089,14.7197,10.8032,14.4639,10.4756,14.4639z"/>
	<path d="M15.7275,15.7139c-0.0879,0-0.1748-0.0234-0.251-0.0674c-0.1152-0.0674-0.1982-0.1768-0.2324-0.3047l-0.6621-2.5029
		c-0.0703-0.2666,0.0889-0.54,0.3555-0.6113l1.6201-0.4297c0.2715-0.0708,0.54,0.0889,0.6113,0.3555
		c0.0703,0.2666-0.0879,0.54-0.3555,0.6113l-1.1367,0.3018l0.4062,1.5361l1.1367-0.3008c0.2686-0.0732,0.54,0.0889,0.6113,0.3555
		c0.0703,0.2666-0.0889,0.541-0.3555,0.6113l-1.6201,0.4287C15.8135,15.708,15.7705,15.7139,15.7275,15.7139z"/>
	<path d="M15.3965,14.4619c-0.2217,0-0.4238-0.1484-0.4834-0.3721c-0.0703-0.2666,0.0889-0.541,0.3555-0.6113l1.3916-0.3682
		c0.2695-0.0742,0.541,0.0898,0.6113,0.3555c0.0703,0.2666-0.0889,0.541-0.3555,0.6113l-1.3916,0.3682
		C15.4814,14.457,15.4385,14.4619,15.3965,14.4619z"/>
	<path d="M18.4688,14.9883c-0.0879,0-0.1748-0.0234-0.251-0.0674c-0.1152-0.0674-0.1982-0.1768-0.2324-0.3047l-0.6621-2.5039
		c-0.0703-0.2666,0.0889-0.54,0.3555-0.6108l0.8447-0.2236c0.9062-0.2388,1.8721,0.356,2.1201,1.2935
		c0.2461,0.9297-0.2588,1.8779-1.1309,2.1514c-0.0225,0.0107-0.0469,0.0186-0.0713,0.0254l-0.8447,0.2236
		C18.5547,14.9824,18.5117,14.9883,18.4688,14.9883z M18.418,12.3398l0.4062,1.5371l0.2998-0.0791
		c0.0195-0.0078,0.0391-0.0146,0.0596-0.0205c0.3838-0.1016,0.6055-0.5283,0.4932-0.9502c-0.1094-0.416-0.5195-0.6816-0.8975-0.582
		L18.418,12.3398z"/>
	<path d="M5.1523,18.4678c-0.3042,0-0.6055-0.0811-0.877-0.2393c-0.416-0.2412-0.7134-0.6328-0.8374-1.1016
		c-0.2529-0.9551,0.3047-1.9346,1.2432-2.1836c0.4448-0.1152,0.9097-0.0557,1.3105,0.1738c0.2397,0.1367,0.3237,0.4424,0.187,0.6826
		c-0.1372,0.2393-0.4434,0.3203-0.6821,0.1865c-0.1719-0.0977-0.3701-0.123-0.5601-0.0762
		c-0.4043,0.1074-0.6436,0.5391-0.5317,0.9609c0.0557,0.2109,0.188,0.3857,0.3726,0.4932c0.1733,0.1016,0.3735,0.1289,0.5649,0.0781
		c0.1968-0.0518,0.3604-0.1807,0.4614-0.3623c0.1343-0.2412,0.4385-0.3262,0.6797-0.1943c0.2417,0.1348,0.3286,0.4395,0.1943,0.6807
		c-0.2344,0.4219-0.6177,0.7207-1.0796,0.8428C5.4512,18.4482,5.3013,18.4678,5.1523,18.4678z"/>
</g>
<rect x="-0.0137" fill="none" width="24" height="24"/>
</svg>
