<?xml version="1.0" encoding="utf-8"?>
<!-- Generator: Adobe Illustrator 18.1.0, SVG Export Plug-In . SVG Version: 6.00 Build 0)  -->
<svg version="1.1" id="Layer_1" xmlns="http://www.w3.org/2000/svg" xmlns:xlink="http://www.w3.org/1999/xlink" x="0px" y="0px"
	 width="24px" height="24px" viewBox="0 0 24 24" enable-background="new 0 0 24 24" xml:space="preserve">
<g>
	<path fill="none" stroke="#000000" stroke-linecap="round" stroke-linejoin="round" d="M13.4842,9.3262"/>
	<path d="M11.5142,10.3955c-2.2896,0-4.4399-2.3286-4.4399-3.7324v-4.478c0-0.2764,0.2236-0.5,0.5-0.5s0.5,0.2236,0.5,0.5v4.478
		c0,0.7651,1.6357,2.7324,3.4399,2.7324s3.4399-1.9673,3.4399-2.7324v-4.478c0-0.2764,0.2236-0.5,0.5-0.5s0.5,0.2236,0.5,0.5v4.478
		C15.9541,8.0669,13.8037,10.3955,11.5142,10.3955z"/>
	<path d="M11.5142,4.2217c-2.2065,0-4.4399-0.6997-4.4399-2.0366c0-2.6738,8.8799-2.6738,8.8799,0
		C15.9541,3.522,13.7207,4.2217,11.5142,4.2217z M11.5142,1.1484c-2.2695,0-3.4399,0.7266-3.4399,1.0366
		s1.1704,1.0366,3.4399,1.0366c2.27,0,3.4399-0.7266,3.4399-1.0366S13.7842,1.1484,11.5142,1.1484z"/>
	<path d="M11.5142,14.0127c-0.2764,0-0.5-0.2236-0.5-0.5v-0.9854c0-0.2764,0.2236-0.5,0.5-0.5s0.4995,0.2236,0.4995,0.5v0.9854
		C12.0137,13.7891,11.7905,14.0127,11.5142,14.0127z"/>
	<path d="M11.5181,23.8623c-1.4565,0-2.4736-0.5693-2.4736-1.3838V9.3262c0-0.2764,0.2236-0.5,0.5-0.5s0.5,0.2236,0.5,0.5v13.1504
		c0.0493,0.0977,0.5503,0.3857,1.4736,0.3857c0.9321,0,1.4468-0.291,1.5044-0.4131L12.9844,9.3276
		c-0.001-0.2764,0.2227-0.501,0.499-0.5015h0.001c0.2754,0,0.499,0.2231,0.5,0.4985l0.0332,13.1528
		C14.0176,23.293,12.9893,23.8623,11.5181,23.8623z"/>
</g>
<rect x="0.0142" y="0.0354" fill="none" width="24" height="24"/>
</svg>
