<?xml version="1.0" encoding="utf-8"?>
<!-- Generator: Adobe Illustrator 18.1.0, SVG Export Plug-In . SVG Version: 6.00 Build 0)  -->
<svg version="1.1" id="Layer_1" xmlns="http://www.w3.org/2000/svg" xmlns:xlink="http://www.w3.org/1999/xlink" x="0px" y="0px"
	 width="24px" height="24px" viewBox="0 0 24 24" enable-background="new 0 0 24 24" xml:space="preserve">
<g>
	<path d="M11.5142,10.0991c-0.2764,0-0.5-0.2236-0.5-0.5v-9c0-0.2764,0.2236-0.5,0.5-0.5s0.4995,0.2236,0.4995,0.5v9
		C12.0137,9.8755,11.7905,10.0991,11.5142,10.0991z"/>
	<path d="M11.5142,23.0693c-5.7505,0-10.4292-4.5566-10.4292-10.1582c0-3.5786,1.9673-6.9326,5.1348-8.7534
		C6.458,4.021,6.7637,4.103,6.9023,4.3423C7.04,4.5815,6.9575,4.8872,6.7178,5.0249C3.8604,6.668,2.085,9.6895,2.085,12.9111
		c0,5.0498,4.23,9.1582,9.4292,9.1582c5.1997,0,9.4292-4.1084,9.4292-9.1582c0-3.2217-1.7754-6.2437-4.6328-7.8867
		c-0.2393-0.1377-0.3223-0.4434-0.1846-0.6826c0.1377-0.2407,0.4443-0.3213,0.6826-0.1846c3.167,1.8213,5.1348,5.1753,5.1348,8.7539
		C21.9434,18.5127,17.2646,23.0693,11.5142,23.0693z"/>
</g>
<rect x="0.0142" y="0.0354" fill="none" width="24" height="24"/>
</svg>
