<?xml version="1.0" encoding="utf-8"?>
<!-- Generator: Adobe Illustrator 18.1.0, SVG Export Plug-In . SVG Version: 6.00 Build 0)  -->
<svg version="1.1" id="Layer_1" xmlns="http://www.w3.org/2000/svg" xmlns:xlink="http://www.w3.org/1999/xlink" x="0px" y="0px"
	 width="24px" height="24px" viewBox="0 0 24 24" enable-background="new 0 0 24 24" xml:space="preserve">
<g>
	<path d="M23.5293,21.085H0.4814c-0.2764,0-0.5-0.2236-0.5-0.5V0.5317c0-0.2764,0.2236-0.5,0.5-0.5h23.0479
		c0.2764,0,0.5,0.2236,0.5,0.5V20.585C24.0293,20.8613,23.8057,21.085,23.5293,21.085z M0.9814,20.085h22.0479V1.0317H0.9814V20.085
		z"/>
	<path d="M0.4814,23.9893c-0.2764,0-0.5-0.2236-0.5-0.5v-2.8867c0-0.2764,0.2236-0.5,0.5-0.5s0.5,0.2236,0.5,0.5v2.8867
		C0.9814,23.7656,0.7578,23.9893,0.4814,23.9893z"/>
	<path d="M23.5293,24.0791c-0.2764,0-0.5-0.2236-0.5-0.5v-2.9766c0-0.2764,0.2236-0.5,0.5-0.5s0.5,0.2236,0.5,0.5v2.9766
		C24.0293,23.8555,23.8057,24.0791,23.5293,24.0791z"/>
	<path d="M7.4741,21.085H0.4814c-0.2764,0-0.5-0.2236-0.5-0.5V0.5317c0-0.2764,0.2236-0.5,0.5-0.5h6.9927
		c0.2764,0,0.5,0.2236,0.5,0.5V20.585C7.9741,20.8613,7.7505,21.085,7.4741,21.085z M0.9814,20.085h5.9927V1.0317H0.9814V20.085z"/>
	<path d="M14.4658,21.085H7.4741c-0.2764,0-0.5-0.2236-0.5-0.5V0.5317c0-0.2764,0.2236-0.5,0.5-0.5h6.9917
		c0.2764,0,0.5,0.2236,0.5,0.5V20.585C14.9658,20.8613,14.7422,21.085,14.4658,21.085z M7.9741,20.085h5.9917V1.0317H7.9741V20.085z
		"/>
	<path d="M9.4741,12.1475c-0.2764,0-0.5-0.2236-0.5-0.5v-1.2319c0-0.2764,0.2236-0.5,0.5-0.5s0.5,0.2236,0.5,0.5v1.2319
		C9.9741,11.9238,9.7505,12.1475,9.4741,12.1475z"/>
	<path d="M5.4736,12.1475c-0.2764,0-0.5-0.2236-0.5-0.5v-1.2319c0-0.2764,0.2236-0.5,0.5-0.5s0.5,0.2236,0.5,0.5v1.2319
		C5.9736,11.9238,5.75,12.1475,5.4736,12.1475z"/>
	<path d="M23.5293,11.0786h-9.0635c-0.2764,0-0.5-0.2236-0.5-0.5V5.5752c0-0.2764,0.2236-0.5,0.5-0.5h9.0635
		c0.2764,0,0.5,0.2236,0.5,0.5v5.0034C24.0293,10.855,23.8057,11.0786,23.5293,11.0786z M14.9658,10.0786h8.0635V6.0752h-8.0635
		V10.0786z"/>
	<path d="M23.5293,16.082h-9.0635c-0.2764,0-0.5-0.2236-0.5-0.5v-5.0034c0-0.2764,0.2236-0.5,0.5-0.5h9.0635
		c0.2764,0,0.5,0.2236,0.5,0.5v5.0034C24.0293,15.8584,23.8057,16.082,23.5293,16.082z M14.9658,15.082h8.0635v-4.0034h-8.0635
		V15.082z"/>
</g>
<rect x="0.0142" y="0.0354" fill="none" width="24" height="24"/>
</svg>
