<?xml version="1.0" encoding="utf-8"?>
<!-- Generator: Adobe Illustrator 18.1.0, SVG Export Plug-In . SVG Version: 6.00 Build 0)  -->
<svg version="1.1" id="Layer_1" xmlns="http://www.w3.org/2000/svg" xmlns:xlink="http://www.w3.org/1999/xlink" x="0px" y="0px"
	 width="24px" height="24px" viewBox="0 0 24 24" enable-background="new 0 0 24 24" xml:space="preserve">
<g>
	<path d="M21.4863,18h-19c-0.2764,0-0.5-0.2236-0.5-0.5v-15c0-0.2764,0.2236-0.5,0.5-0.5h19c0.2764,0,0.5,0.2236,0.5,0.5v15
		C21.9863,17.7764,21.7627,18,21.4863,18z M2.9863,17h18V3h-18V17z"/>
	<path d="M23.4863,3h-23c-0.2764,0-0.5-0.2236-0.5-0.5v-2c0-0.2764,0.2236-0.5,0.5-0.5h23c0.2764,0,0.5,0.2236,0.5,0.5v2
		C23.9863,2.7764,23.7627,3,23.4863,3z M0.9863,2h22V1h-22V2z"/>
	<path d="M22.9863,18h-22c-0.2764,0-0.5-0.2236-0.5-0.5S0.71,17,0.9863,17h22c0.2764,0,0.5,0.2236,0.5,0.5S23.2627,18,22.9863,18z"
		/>
	<path d="M11.9863,22.5518c-0.2764,0-0.5-0.2236-0.5-0.5v-2.5479c0-0.2764,0.2236-0.5,0.5-0.5s0.5,0.2236,0.5,0.5v2.5479
		C12.4863,22.3281,12.2627,22.5518,11.9863,22.5518z"/>
	<path d="M11.9863,24.0059c-0.6768,0-1.2275-0.5508-1.2275-1.2275s0.5508-1.2275,1.2275-1.2275s1.2275,0.5508,1.2275,1.2275
		S12.6631,24.0059,11.9863,24.0059z M11.9863,22.5508c-0.1255,0-0.2275,0.1025-0.2275,0.2275c-0.0005,0.249,0.4551,0.25,0.4551,0
		C12.2139,22.6533,12.1113,22.5508,11.9863,22.5508z"/>
	<path d="M11.0898,14.0127L11.0898,14.0127c-0.584,0-1.0591-0.4746-1.0591-1.0576V7.0454c0-0.583,0.4751-1.0571,1.0586-1.0571
		c0.2354,0,0.4595,0.0776,0.6479,0.2241l3.7852,2.9546c0.2578,0.2017,0.4062,0.5049,0.4062,0.8325
		c0,0.3281-0.1484,0.6313-0.4062,0.833l-3.7852,2.9556C11.5493,13.9346,11.3252,14.0127,11.0898,14.0127z M11.1221,7.001
		l-0.0913,0.0444v5.9097l0.0591,0.0576c0.0078,0,0.0176-0.002,0.0322-0.0137l3.7852-2.9546L11.1221,7.001z"/>
</g>
<rect x="-0.0136" y="0.0002" fill="none" width="24" height="24"/>
</svg>
