<?xml version="1.0" encoding="utf-8"?>
<!-- Generator: Adobe Illustrator 18.1.0, SVG Export Plug-In . SVG Version: 6.00 Build 0)  -->
<svg version="1.1" id="Layer_1" xmlns="http://www.w3.org/2000/svg" xmlns:xlink="http://www.w3.org/1999/xlink" x="0px" y="0px"
	 width="24px" height="24px" viewBox="0 0 24 24" enable-background="new 0 0 24 24" xml:space="preserve">
<g>
	<path d="M23.2607,16.584c-0.168,0-0.332-0.085-0.4258-0.2383l-1.7109-2.7891l-2.7314,1.6777
		c-0.2354,0.1455-0.543,0.0713-0.6875-0.1641s-0.0713-0.543,0.1641-0.6875l3.1572-1.9395c0.1133-0.0693,0.25-0.0898,0.3779-0.0605
		c0.1289,0.0312,0.2402,0.1113,0.3096,0.2246l1.9727,3.2148c0.1445,0.2354,0.0713,0.5439-0.1641,0.6875
		C23.4404,16.5605,23.3506,16.584,23.2607,16.584z"/>
	<path d="M11.9443,21.9502c-0.2876,0-0.5762-0.0127-0.8662-0.0371c-5.4521-0.4639-9.5107-5.2783-9.0464-10.731
		c0.4639-5.4526,5.2793-9.5176,10.73-9.0464c2.5898,0.2202,4.9531,1.4229,6.6562,3.3853c0.1807,0.2085,0.1582,0.5244-0.0498,0.7051
		c-0.208,0.1816-0.5234,0.1582-0.7061-0.0498c-1.5312-1.7646-3.6562-2.8462-5.9844-3.0444
		c-4.9292-0.4141-9.2324,3.2324-9.6499,8.1353c-0.417,4.9038,3.2324,9.2329,8.1353,9.6499c2.3799,0.2051,4.6855-0.5244,6.499-2.0479
		c1.8154-1.5234,2.9258-3.6689,3.1279-6.042c0.0234-0.2754,0.29-0.4707,0.54-0.4561c0.2754,0.0234,0.4795,0.2656,0.4561,0.54
		c-0.2246,2.6406-1.4609,5.0283-3.4814,6.7246C16.5088,21.1436,14.2773,21.9502,11.9443,21.9502z"/>
</g>
<rect y="0.001" fill="none" width="24" height="24"/>
</svg>
