<?xml version="1.0" encoding="utf-8"?>
<!-- Generator: Adobe Illustrator 18.1.0, SVG Export Plug-In . SVG Version: 6.00 Build 0)  -->
<svg version="1.1" id="Layer_1" xmlns="http://www.w3.org/2000/svg" xmlns:xlink="http://www.w3.org/1999/xlink" x="0px" y="0px"
	 width="24px" height="24px" viewBox="0 0 24 24" enable-background="new 0 0 24 24" xml:space="preserve">
<g>
	<path d="M3.9541,7.0752c-1.7197,0-3.1191-1.3989-3.1191-3.1187s1.3994-3.1191,3.1191-3.1191s3.1191,1.3994,3.1191,3.1191
		S5.6738,7.0752,3.9541,7.0752z M3.9541,1.8374c-1.1685,0-2.1191,0.9507-2.1191,2.1191s0.9507,2.1187,2.1191,2.1187
		S6.0732,5.125,6.0732,3.9565S5.1226,1.8374,3.9541,1.8374z"/>
	<path d="M11.9912,7.0752c-1.7197,0-3.1191-1.3989-3.1191-3.1187s1.3994-3.1191,3.1191-3.1191s3.1191,1.3994,3.1191,3.1191
		S13.7109,7.0752,11.9912,7.0752z M11.9912,1.8374c-1.1685,0-2.1191,0.9507-2.1191,2.1191s0.9507,2.1187,2.1191,2.1187
		c1.1689,0,2.1191-0.9502,2.1191-2.1187S13.1602,1.8374,11.9912,1.8374z"/>
	<path d="M20.0283,7.0752c-1.7197,0-3.1191-1.3989-3.1191-3.1187s1.3994-3.1191,3.1191-3.1191s3.1191,1.3994,3.1191,3.1191
		S21.748,7.0752,20.0283,7.0752z M20.0283,1.8374c-1.1689,0-2.1191,0.9507-2.1191,2.1191s0.9502,2.1187,2.1191,2.1187
		s2.1191-0.9502,2.1191-2.1187S21.1973,1.8374,20.0283,1.8374z"/>
	<path d="M3.9541,15.1123c-1.7197,0-3.1191-1.3994-3.1191-3.1187c0-1.7197,1.3994-3.1191,3.1191-3.1191s3.1191,1.3994,3.1191,3.1191
		C7.0732,13.7129,5.6738,15.1123,3.9541,15.1123z M3.9541,9.8745c-1.1685,0-2.1191,0.9507-2.1191,2.1191
		s0.9507,2.1187,2.1191,2.1187s2.1191-0.9502,2.1191-2.1187S5.1226,9.8745,3.9541,9.8745z"/>
	<path d="M11.9912,15.1123c-1.7197,0-3.1191-1.3994-3.1191-3.1187c0-1.7197,1.3994-3.1191,3.1191-3.1191
		s3.1191,1.3994,3.1191,3.1191C15.1104,13.7129,13.7109,15.1123,11.9912,15.1123z M11.9912,9.8745
		c-1.1685,0-2.1191,0.9507-2.1191,2.1191s0.9507,2.1187,2.1191,2.1187c1.1689,0,2.1191-0.9502,2.1191-2.1187
		S13.1602,9.8745,11.9912,9.8745z"/>
	<path d="M20.0283,15.1123c-1.7197,0-3.1191-1.3994-3.1191-3.1187c0-1.7197,1.3994-3.1191,3.1191-3.1191
		s3.1191,1.3994,3.1191,3.1191C23.1475,13.7129,21.748,15.1123,20.0283,15.1123z M20.0283,9.8745
		c-1.1689,0-2.1191,0.9507-2.1191,2.1191s0.9502,2.1187,2.1191,2.1187s2.1191-0.9502,2.1191-2.1187S21.1973,9.8745,20.0283,9.8745z"
		/>
	<path d="M3.9541,23.1494c-1.7197,0-3.1191-1.3994-3.1191-3.1191s1.3994-3.1191,3.1191-3.1191s3.1191,1.3994,3.1191,3.1191
		S5.6738,23.1494,3.9541,23.1494z M3.9541,17.9111c-1.1685,0-2.1191,0.9502-2.1191,2.1191s0.9507,2.1191,2.1191,2.1191
		s2.1191-0.9502,2.1191-2.1191S5.1226,17.9111,3.9541,17.9111z"/>
	<path d="M11.9912,23.1494c-1.7197,0-3.1191-1.3994-3.1191-3.1191s1.3994-3.1191,3.1191-3.1191s3.1191,1.3994,3.1191,3.1191
		S13.7109,23.1494,11.9912,23.1494z M11.9912,17.9111c-1.1685,0-2.1191,0.9502-2.1191,2.1191s0.9507,2.1191,2.1191,2.1191
		c1.1689,0,2.1191-0.9502,2.1191-2.1191S13.1602,17.9111,11.9912,17.9111z"/>
	<path d="M20.0283,23.1494c-1.7197,0-3.1191-1.3994-3.1191-3.1191s1.3994-3.1191,3.1191-3.1191s3.1191,1.3994,3.1191,3.1191
		S21.748,23.1494,20.0283,23.1494z M20.0283,17.9111c-1.1689,0-2.1191,0.9502-2.1191,2.1191s0.9502,2.1191,2.1191,2.1191
		s2.1191-0.9502,2.1191-2.1191S21.1973,17.9111,20.0283,17.9111z"/>
</g>
<rect y="-0.002" fill="none" width="24" height="24"/>
</svg>
