<?xml version="1.0" encoding="utf-8"?>
<!-- Generator: Adobe Illustrator 18.1.0, SVG Export Plug-In . SVG Version: 6.00 Build 0)  -->
<svg version="1.1" id="Layer_1" xmlns="http://www.w3.org/2000/svg" xmlns:xlink="http://www.w3.org/1999/xlink" x="0px" y="0px"
	 width="24px" height="24px" viewBox="0 0 24 24" enable-background="new 0 0 24 24" xml:space="preserve">
<g>
	<path d="M3.6973,6.3662c-0.1484,0-0.2949-0.0654-0.3936-0.1909C3.1333,5.9585,3.1704,5.644,3.3877,5.4731l4.5361-3.5684
		c0.1807-0.1426,0.4355-0.1431,0.6177-0.0005l3.937,3.0894c0.2178,0.1709,0.2549,0.4849,0.085,0.7021
		c-0.1709,0.2188-0.4854,0.2554-0.7021,0.085L8.2334,2.9336L4.0059,6.2593C3.9141,6.3311,3.8052,6.3662,3.6973,6.3662z"/>
	<path d="M23.2949,10.248c-0.1562,0-0.3096-0.0728-0.4072-0.21l-6.0332-8.4697l-6.0254,5.8042
		c-0.1978,0.1914-0.5142,0.186-0.707-0.0137c-0.1914-0.1987-0.1855-0.5151,0.0137-0.707l6.4434-6.2061
		c0.1055-0.1006,0.2568-0.1538,0.3926-0.1377c0.1455,0.0137,0.2773,0.0894,0.3613,0.208l6.3691,8.9419
		c0.1602,0.2251,0.1074,0.5371-0.1172,0.6973C23.4971,10.2178,23.3955,10.248,23.2949,10.248z"/>
	<path d="M17.9619,5.6177c-0.1221,0-0.2432-0.0444-0.3379-0.1313l-0.8857-0.8105l-0.9316,0.6709
		c-0.1709,0.123-0.4004,0.1255-0.5732,0.0073l-1.6875-1.1499c-0.2285-0.1553-0.2871-0.4663-0.1318-0.6948
		c0.1572-0.2275,0.4688-0.2847,0.6943-0.1313l1.3984,0.9526l0.9775-0.7041c0.1914-0.1372,0.4531-0.1235,0.6299,0.0371l0.9121,0.8354
		l1.1143-0.6577c0.2334-0.1396,0.543-0.062,0.6846,0.1763c0.1406,0.2378,0.0615,0.5444-0.1768,0.6851l-1.4326,0.8457
		C18.1367,5.5947,18.0498,5.6177,17.9619,5.6177z"/>
	<path d="M14.499,23.9854h-12c-0.2764,0-0.5-0.2236-0.5-0.5v-7.4219c0-0.2764,0.2236-0.5,0.5-0.5s0.5,0.2236,0.5,0.5v6.9219h11
		v-6.9219c0-0.2764,0.2236-0.5,0.5-0.5s0.5,0.2236,0.5,0.5v7.4219C14.999,23.7617,14.7754,23.9854,14.499,23.9854z"/>
	<path d="M12.499,14.0713c-0.2764,0-0.5-0.2236-0.5-0.5v-2.5859c0-0.2764,0.2236-0.5,0.5-0.5s0.5,0.2236,0.5,0.5v2.5859
		C12.999,13.8477,12.7754,14.0713,12.499,14.0713z"/>
	<path d="M15.7529,18.0469c-0.1445,0-0.2881-0.0625-0.3867-0.1836L8.519,9.4985l-6.8472,8.3647
		c-0.1743,0.2139-0.4893,0.2451-0.7036,0.0703c-0.2134-0.1748-0.2451-0.4893-0.0698-0.7031l7.2339-8.8384
		c0.1895-0.2314,0.584-0.2314,0.7734,0l7.2339,8.8384c0.1748,0.2139,0.1436,0.5283-0.0703,0.7031
		C15.9766,18.0098,15.8643,18.0469,15.7529,18.0469z"/>
	<path d="M9.499,23.9854h-2c-0.2764,0-0.5-0.2236-0.5-0.5v-4c0-0.2764,0.2236-0.5,0.5-0.5h2c0.2764,0,0.5,0.2236,0.5,0.5v4
		C9.999,23.7617,9.7754,23.9854,9.499,23.9854z M7.999,22.9854h1v-3h-1V22.9854z"/>
	<path d="M9.499,16.9854h-2c-0.2764,0-0.5-0.2236-0.5-0.5v-2c0-0.2764,0.2236-0.5,0.5-0.5h2c0.2764,0,0.5,0.2236,0.5,0.5v2
		C9.999,16.7617,9.7754,16.9854,9.499,16.9854z M7.999,15.9854h1v-1h-1V15.9854z"/>
</g>
<rect x="-0.0008" y="-0.0147" fill="none" width="24" height="24"/>
</svg>
