<?xml version="1.0" encoding="utf-8"?>
<!-- Generator: Adobe Illustrator 18.1.0, SVG Export Plug-In . SVG Version: 6.00 Build 0)  -->
<svg version="1.1" id="Layer_1" xmlns="http://www.w3.org/2000/svg" xmlns:xlink="http://www.w3.org/1999/xlink" x="0px" y="0px"
	 width="24px" height="24px" viewBox="0 0 24 24" enable-background="new 0 0 24 24" xml:space="preserve">
<g>
	<path d="M19.7207,24H4.252c-0.1655,0-0.3198-0.082-0.4131-0.2188c-0.0933-0.1357-0.1128-0.3096-0.0522-0.4639l2.3535-6
		C6.2153,17.126,6.3999,17,6.6055,17h1.3809c0.2764,0,0.5,0.2236,0.5,0.5s-0.2236,0.5-0.5,0.5h-1.04l-1.9609,5h14.002l-1.9609-5
		h-1.04c-0.2764,0-0.5-0.2236-0.5-0.5s0.2236-0.5,0.5-0.5h1.3809c0.2061,0,0.3906,0.126,0.4658,0.3174l2.3535,6
		c0.0596,0.1543,0.04,0.3281-0.0527,0.4639C20.041,23.918,19.8857,24,19.7207,24z"/>
	<path d="M11.9863,8.9316c-1.4053,0-2.5483-1.1431-2.5483-2.5479c0-1.4053,1.1431-2.5483,2.5483-2.5483s2.5479,1.1431,2.5479,2.5483
		C14.5342,7.7886,13.3916,8.9316,11.9863,8.9316z M11.9863,4.8354c-0.854,0-1.5483,0.6943-1.5483,1.5483
		c0,0.8535,0.6943,1.5479,1.5483,1.5479c0.8535,0,1.5479-0.6943,1.5479-1.5479C13.5342,5.5298,12.8398,4.8354,11.9863,4.8354z"/>
	<path d="M11.9863,20.6777c-0.1685,0-0.3252-0.085-0.4175-0.2256c-0.2632-0.3994-6.4453-9.8359-6.4453-13.458
		c0-3.7847,3.0786-6.8633,6.8628-6.8633s6.8633,3.0786,6.8633,6.8633c0,3.6221-6.1826,13.0586-6.4453,13.458
		C12.3115,20.5928,12.1543,20.6777,11.9863,20.6777z M11.9863,1.1309c-3.2329,0-5.8628,2.6304-5.8628,5.8633
		c0,2.8164,4.4585,10.0508,5.8628,12.2598c1.4043-2.209,5.8633-9.4443,5.8633-12.2598C17.8496,3.7612,15.2197,1.1309,11.9863,1.1309
		z"/>
</g>
<rect x="-0.0137" y="0.0001" fill="none" width="24" height="24"/>
</svg>
