<?xml version="1.0" encoding="utf-8"?>
<!-- Generator: Adobe Illustrator 18.1.0, SVG Export Plug-In . SVG Version: 6.00 Build 0)  -->
<svg version="1.1" id="Layer_1" xmlns="http://www.w3.org/2000/svg" xmlns:xlink="http://www.w3.org/1999/xlink" x="0px" y="0px"
	 width="24px" height="24px" viewBox="0 0 24 24" enable-background="new 0 0 24 24" xml:space="preserve">
<g>
	<path d="M12.1035,18.9492H3.8496c-0.4492,0-0.8145-0.3672-0.8145-0.8193v-1.1221c0-0.3408,0.2041-0.6406,0.52-0.7646
		c2.1206-0.8193,2.686-1.2129,2.8335-1.3496v-0.1074c-0.2598-0.3105-0.4658-0.6953-0.6055-1.1289
		c-0.1924-0.1875-0.3198-0.4385-0.3574-0.709c-0.0381-0.2754,0.0161-0.5469,0.1533-0.7832V11.314
		c0-1.3853,0.9185-2.2461,2.3975-2.2461c1.501,0,2.397,0.8398,2.397,2.2461v0.8511c0.1382,0.2363,0.1924,0.5088,0.1543,0.7842
		c-0.0381,0.2705-0.1655,0.5205-0.3579,0.709c-0.1396,0.4326-0.3462,0.8174-0.6055,1.1279v0.127
		c0.1069,0.0889,0.6323,0.4814,2.8311,1.3291c0.3193,0.126,0.5225,0.4258,0.5225,0.7656v1.1221
		C12.918,18.582,12.5527,18.9492,12.1035,18.9492z M4.0352,17.9492h7.8828v-0.8193c-2.8594-1.1113-3.2148-1.5674-3.3306-1.9375
		c-0.0151-0.0488-0.0229-0.0986-0.0229-0.1494v-0.4482c0-0.1309,0.0513-0.2559,0.1426-0.3496
		c0.2417-0.2471,0.4302-0.5957,0.5454-1.0078c0.0312-0.1113,0.0996-0.208,0.1943-0.2744c0.0488-0.0342,0.0815-0.0898,0.0903-0.1514
		c0.0063-0.0449,0.0024-0.1113-0.0513-0.1777c-0.0728-0.0889-0.1123-0.2002-0.1123-0.3154V11.314
		c0-0.8501-0.4438-1.2461-1.397-1.2461c-0.9272,0-1.3975,0.4194-1.3975,1.2461v1.0044c0,0.1152-0.0396,0.2256-0.1118,0.3154
		c-0.0532,0.0654-0.0571,0.1318-0.0508,0.1768c0.0083,0.0625,0.0415,0.1182,0.0908,0.1523
		c0.0942,0.0664,0.1626,0.1641,0.1934,0.2744c0.1152,0.4121,0.3037,0.7607,0.5454,1.0078c0.0913,0.0938,0.1426,0.2188,0.1426,0.3496
		v0.4482c0,0.0508-0.0078,0.1006-0.0229,0.1494c-0.1152,0.3691-0.4697,0.8232-3.3306,1.9375V17.9492z"/>
	<path d="M23.5186,21.9814H0.563c-0.2764,0-0.5-0.2236-0.5-0.5V5.499c0-0.2764,0.2236-0.5,0.5-0.5h9.8813
		c0.2764,0,0.5,0.2236,0.5,0.5s-0.2236,0.5-0.5,0.5H1.063v14.9824h21.9556V5.999h-9.0469c-0.2764,0-0.5-0.2236-0.5-0.5
		s0.2236-0.5,0.5-0.5h9.5469c0.2764,0,0.5,0.2236,0.5,0.5v15.9824C24.0186,21.7578,23.7949,21.9814,23.5186,21.9814z"/>
	<path d="M12.9736,8.0083h-1.5317c-0.688,0-1.2671-0.5166-1.3472-1.2021L9.5864,2.4888C9.541,2.104,9.6616,1.7168,9.918,1.4263
		c0.2583-0.2915,0.6279-0.4585,1.0156-0.4585h2.5488c0.3867,0,0.7568,0.1665,1.0146,0.457c0.2578,0.293,0.3789,0.6807,0.332,1.0649
		l-0.5088,4.3169C14.2402,7.4917,13.6611,8.0083,12.9736,8.0083z M10.9336,1.9678c-0.1016,0-0.1982,0.0439-0.2661,0.1206
		s-0.1001,0.1802-0.0879,0.2832l0.5083,4.3179c0.0215,0.1821,0.1733,0.3188,0.354,0.3188h1.5317
		c0.1807,0,0.333-0.1367,0.3535-0.3184l0.5098-4.3184c0.0117-0.103-0.0205-0.2065-0.0889-0.2842
		c-0.0674-0.0757-0.1641-0.1196-0.2656-0.1196H10.9336z"/>
	<path d="M20.4766,15.9893h-5.9619c-0.2764,0-0.5-0.2236-0.5-0.5s0.2236-0.5,0.5-0.5h5.9619c0.2764,0,0.5,0.2236,0.5,0.5
		S20.7529,15.9893,20.4766,15.9893z"/>
	<path d="M12.1035,18.9492H3.8496c-0.4492,0-0.8145-0.3672-0.8145-0.8193v-1.1221c0-0.3408,0.2041-0.6406,0.52-0.7646
		c2.1206-0.8193,2.686-1.2129,2.8335-1.3496v-0.1074c-0.2598-0.3105-0.4658-0.6953-0.6055-1.1289
		c-0.1924-0.1875-0.3198-0.4385-0.3574-0.709c-0.0381-0.2754,0.0161-0.5469,0.1533-0.7832V11.314
		c0-1.3853,0.9185-2.2461,2.3975-2.2461c1.501,0,2.397,0.8398,2.397,2.2461v0.8511c0.1382,0.2363,0.1924,0.5088,0.1543,0.7842
		c-0.0381,0.2705-0.1655,0.5205-0.3579,0.709c-0.1396,0.4326-0.3462,0.8174-0.6055,1.1279v0.127
		c0.1069,0.0889,0.6323,0.4814,2.8311,1.3291c0.3193,0.126,0.5225,0.4258,0.5225,0.7656v1.1221
		C12.918,18.582,12.5527,18.9492,12.1035,18.9492z M4.0352,17.9492h7.8828v-0.8193c-2.8594-1.1113-3.2148-1.5674-3.3306-1.9375
		c-0.0151-0.0488-0.0229-0.0986-0.0229-0.1494v-0.4482c0-0.1309,0.0513-0.2559,0.1426-0.3496
		c0.2417-0.2471,0.4302-0.5957,0.5454-1.0078c0.0312-0.1113,0.0996-0.208,0.1943-0.2744c0.0488-0.0342,0.0815-0.0898,0.0903-0.1514
		c0.0063-0.0449,0.0024-0.1113-0.0513-0.1777c-0.0728-0.0889-0.1123-0.2002-0.1123-0.3154V11.314
		c0-0.8501-0.4438-1.2461-1.397-1.2461c-0.9272,0-1.3975,0.4194-1.3975,1.2461v1.0044c0,0.1152-0.0396,0.2256-0.1118,0.3154
		c-0.0532,0.0654-0.0571,0.1318-0.0508,0.1768c0.0083,0.0625,0.0415,0.1182,0.0908,0.1523
		c0.0942,0.0664,0.1626,0.1641,0.1934,0.2744c0.1152,0.4121,0.3037,0.7607,0.5454,1.0078c0.0913,0.0938,0.1426,0.2188,0.1426,0.3496
		v0.4482c0,0.0508-0.0078,0.1006-0.0229,0.1494c-0.1152,0.3691-0.4697,0.8232-3.3306,1.9375V17.9492z"/>
	<path d="M12.9736,8.0083h-1.5317c-0.688,0-1.2671-0.5166-1.3472-1.2021L9.5864,2.4888C9.541,2.104,9.6616,1.7168,9.918,1.4263
		c0.2583-0.2915,0.6279-0.4585,1.0156-0.4585h2.5488c0.3867,0,0.7568,0.1665,1.0146,0.457c0.2578,0.293,0.3789,0.6807,0.332,1.0649
		l-0.5088,4.3169C14.2402,7.4917,13.6611,8.0083,12.9736,8.0083z M10.9336,1.9678c-0.1016,0-0.1982,0.0439-0.2661,0.1206
		s-0.1001,0.1802-0.0879,0.2832l0.5083,4.3179c0.0215,0.1821,0.1733,0.3188,0.354,0.3188h1.5317
		c0.1807,0,0.333-0.1367,0.3535-0.3184l0.5098-4.3184c0.0117-0.103-0.0205-0.2065-0.0889-0.2842
		c-0.0674-0.0757-0.1641-0.1196-0.2656-0.1196H10.9336z"/>
	<path d="M20.4766,15.9893h-5.9619c-0.2764,0-0.5-0.2236-0.5-0.5s0.2236-0.5,0.5-0.5h5.9619c0.2764,0,0.5,0.2236,0.5,0.5
		S20.7529,15.9893,20.4766,15.9893z"/>
	<path d="M20.4766,12.9893h-5.9619c-0.2764,0-0.5-0.2236-0.5-0.5s0.2236-0.5,0.5-0.5h5.9619c0.2764,0,0.5,0.2236,0.5,0.5
		S20.7529,12.9893,20.4766,12.9893z"/>
	<path d="M20.4766,12.9893h-5.9619c-0.2764,0-0.5-0.2236-0.5-0.5s0.2236-0.5,0.5-0.5h5.9619c0.2764,0,0.5,0.2236,0.5,0.5
		S20.7529,12.9893,20.4766,12.9893z"/>
</g>
<rect x="0.0005" y="0.0004" fill="none" width="24" height="24"/>
</svg>
