<?xml version="1.0" encoding="utf-8"?>
<!-- Generator: Adobe Illustrator 18.1.0, SVG Export Plug-In . SVG Version: 6.00 Build 0)  -->
<svg version="1.1" id="Layer_1" xmlns="http://www.w3.org/2000/svg" xmlns:xlink="http://www.w3.org/1999/xlink" x="0px" y="0px"
	 width="24px" height="24px" viewBox="0 0 24 24" enable-background="new 0 0 24 24" xml:space="preserve">
<g>
	<path d="M22.5117,23.9746H1.4224c-0.7974,0-1.4458-0.6504-1.4458-1.4502V3.4653c0-0.7998,0.6484-1.4507,1.4458-1.4507h3.5679
		c0.1997,0,0.7891,0,1.7573,2.04h15.7642c0.7969,0,1.4453,0.6509,1.4453,1.4507v17.019
		C23.957,23.3242,23.3086,23.9746,22.5117,23.9746z M1.4224,3.0146c-0.2456,0-0.4458,0.2021-0.4458,0.4507v19.0591
		c0,0.248,0.2002,0.4502,0.4458,0.4502h21.0894c0.2451,0,0.4453-0.2021,0.4453-0.4502V5.5054c0-0.2485-0.2002-0.4507-0.4453-0.4507
		H6.4277c-0.1968,0-0.3755-0.1157-0.4561-0.2949C5.6172,3.9722,5.1406,3.1846,4.9199,3.0146H1.4224z"/>
	<path d="M23.457,9.0254H0.4766c-0.2764,0-0.5-0.2236-0.5-0.5s0.2236-0.5,0.5-0.5H23.457c0.2764,0,0.5,0.2236,0.5,0.5
		S23.7334,9.0254,23.457,9.0254z"/>
	<path d="M18.0078,21.0342H5.9824c-0.5234,0-0.9492-0.416-0.9492-0.9277v-8.1968c0-0.5117,0.4258-0.9277,0.9492-0.9277h12.0254
		c0.5215,0,0.9473,0.415,0.9492,0.9258v8.1987C18.957,20.6182,18.5312,21.0342,18.0078,21.0342z M17.957,11.9097L5.9824,11.9819
		l0.0508,8.1245l11.9238-0.0723V11.9097z"/>
	<path d="M8.7832,16.5039c-0.9399,0-1.7051-0.7393-1.7051-1.6484s0.7651-1.6494,1.7051-1.6494c0.9404,0,1.7056,0.7402,1.7056,1.6494
		S9.7236,16.5039,8.7832,16.5039z M8.7832,14.2061c-0.3887,0-0.7051,0.291-0.7051,0.6494c0,0.3574,0.3164,0.6484,0.7051,0.6484
		c0.3892,0,0.7056-0.291,0.7056-0.6484C9.4888,14.4971,9.1724,14.2061,8.7832,14.2061z"/>
	<path d="M8.2314,20.9883c-0.106,0-0.2134-0.0342-0.3042-0.1035c-0.2188-0.168-0.2603-0.4824-0.0918-0.7012l3.9849-5.1895
		c0.0947-0.124,0.2334-0.2236,0.3965-0.1953c0.1543,0,0.2998,0.0713,0.3945,0.1934l1.1895,1.5293l1.6914-2.5352
		c0.0908-0.1357,0.2422-0.2188,0.4053-0.2227c0.1494,0,0.3174,0.0732,0.415,0.2051l2.5381,3.4805
		c0.1621,0.2236,0.1133,0.5361-0.1094,0.6992c-0.2227,0.1611-0.5352,0.1133-0.6992-0.1094l-2.1152-2.9014l-1.6787,2.5156
		c-0.0889,0.1338-0.2373,0.2168-0.3975,0.2227c-0.1768,0.002-0.3145-0.0664-0.4131-0.1934l-1.2178-1.5664L8.6284,20.793
		C8.5303,20.9209,8.3818,20.9883,8.2314,20.9883z"/>
</g>
<rect y="0.0001" fill="none" width="24" height="24"/>
</svg>
