<?xml version="1.0" encoding="utf-8"?>
<!-- Generator: Adobe Illustrator 18.1.0, SVG Export Plug-In . SVG Version: 6.00 Build 0)  -->
<svg version="1.1" id="Layer_1" xmlns="http://www.w3.org/2000/svg" xmlns:xlink="http://www.w3.org/1999/xlink" x="0px" y="0px"
	 width="24px" height="24px" viewBox="0 0 24 24" enable-background="new 0 0 24 24" xml:space="preserve">
<g>
	<path d="M15.3945,23.7578c-0.8193,0-1.4912-0.6641-1.498-1.4795c-0.042-4.5908-0.8066-7.6758-1.9028-7.6758
		c-1.1084,0-1.873,3.085-1.9141,7.6768c-0.0078,0.8154-0.6797,1.4785-1.498,1.4785c-0.2866,0-0.5684-0.084-0.814-0.2412
		C0.2026,18.6592,0.2632,10.1299,0.6401,6.6885c0.4106-3.7441,3.5532-6.354,6.1172-6.354c0.0044,0,0.0996,0.0015,0.1045,0.0015
		c1.5938,0.0444,3.2363,0.417,4.334,0.7212c0.5166,0.1436,1.0688,0.1436,1.5845,0c1.0967-0.3042,2.7393-0.6768,4.335-0.7212
		c0.0049,0,0.0996-0.0015,0.1045-0.0015c2.5635,0,5.7051,2.6099,6.1162,6.354c0.377,3.4414,0.4385,11.9697-7.127,16.8281
		C15.9629,23.6738,15.6807,23.7578,15.3945,23.7578z M11.9819,13.6025c2.3452,0,2.8784,4.7129,2.9146,8.667
		c0.0039,0.4258,0.4688,0.5996,0.7725,0.4053c7.0947-4.5557,7.0303-12.6211,6.6729-15.877
		c-0.3428-3.127-2.9873-5.4634-5.1221-5.4634c-1.5713,0.043-3.1289,0.397-4.1719,0.6865c-0.6924,0.1914-1.4292,0.1914-2.1196,0
		C9.8848,1.7314,8.3267,1.3774,6.834,1.3359c-0.0005,0-0.0015,0-0.002,0c-2.2114,0-4.855,2.3354-5.1978,5.4619
		c-0.3569,3.2559-0.4209,11.3213,6.6733,15.877c0.3013,0.1943,0.7681,0.0225,0.772-0.4053
		C9.1147,18.3154,9.647,13.6025,11.9819,13.6025z"/>
	<path d="M11.5864,5.8633c-3.6377,0-5.2856-1.5786-5.3638-1.6558c-0.1968-0.1938-0.1987-0.5107-0.0049-0.707
		c0.1934-0.1963,0.5088-0.1982,0.7051-0.0068c0.041,0.0386,1.9717,1.8135,6.2969,1.2622c1.9482-0.2476,2.8037-0.8525,3.2139-1.1431
		l0.3428,0.3701l0.2871,0.4092c-0.5293,0.3745-1.5215,1.0767-3.7168,1.356C12.7148,5.8281,12.1279,5.8633,11.5864,5.8633z"/>
</g>
<rect x="0.0142" y="0.0346" fill="none" width="24" height="24"/>
</svg>
