<?xml version="1.0" encoding="utf-8"?>
<!-- Generator: Adobe Illustrator 18.1.0, SVG Export Plug-In . SVG Version: 6.00 Build 0)  -->
<svg version="1.1" id="Layer_1" xmlns="http://www.w3.org/2000/svg" xmlns:xlink="http://www.w3.org/1999/xlink" x="0px" y="0px"
	 width="24px" height="24px" viewBox="0 0 24 24" enable-background="new 0 0 24 24" xml:space="preserve">
<g>
	<path d="M6.4517,21.6797c-0.1055,0-0.21-0.0332-0.2969-0.0977c-0.1279-0.0947-0.2031-0.2432-0.2031-0.4023v-6.9238
		c0-0.2178,0.1406-0.4102,0.3481-0.4766l2.4863-0.7949c2.9976-0.959,2.9976-0.959,8.7988-2.7188l5.7725-1.752
		c0.1514-0.0444,0.3164-0.0171,0.4434,0.0767c0.127,0.0947,0.2021,0.2437,0.2021,0.4019v6.9248
		c0,0.2197-0.1426,0.4131-0.3525,0.4775L6.5991,21.6572C6.5508,21.6729,6.501,21.6797,6.4517,21.6797z M6.9517,14.6211v5.8809
		l16.0513-4.9541V9.6665l-5.1279,1.5562c-5.7939,1.7578-5.7939,1.7578-8.7837,2.7148L6.9517,14.6211z"/>
	<path d="M6.4517,14.7559c-1.8315,0-3.7344-0.7598-4.8477-1.9346c-0.1899-0.2002-0.1816-0.5166,0.019-0.707
		c0.2007-0.1875,0.5176-0.1802,0.7065,0.0195c0.9194,0.9697,2.5762,1.6221,4.1221,1.6221c0.2764,0,0.5,0.2236,0.5,0.5
		S6.728,14.7559,6.4517,14.7559z"/>
	<path d="M6.4517,21.6797c-3.4717,0-6.4043-2.6396-6.4043-5.7637V8.9922c0-0.2764,0.2236-0.5,0.5-0.5s0.5,0.2236,0.5,0.5
		c0,1.1538,0.4556,2.2695,1.2822,3.1416c0.1899,0.2002,0.1816,0.5166-0.0186,0.7061c-0.2002,0.1904-0.5171,0.1816-0.707-0.0186
		c-0.2046-0.2158-0.3906-0.4434-0.5566-0.6826v3.7773c0,2.582,2.4751,4.7637,5.4043,4.7637c0.2764,0,0.5,0.2236,0.5,0.5
		S6.728,21.6797,6.4517,21.6797z"/>
	<path d="M6.4517,21.6797c-3.4717,0-6.4043-2.6396-6.4043-5.7637V8.9922c0-0.2764,0.2236-0.5,0.5-0.5s0.5,0.2236,0.5,0.5
		c0,1.1538,0.4556,2.2695,1.2822,3.1416c0.9194,0.9697,2.5762,1.6221,4.1221,1.6221c0.2764,0,0.5,0.2236,0.5,0.5
		s-0.2236,0.5-0.5,0.5c-1.8315,0-3.7344-0.7598-4.8477-1.9346c-0.2046-0.2158-0.3906-0.4434-0.5566-0.6826v3.7773
		c0,2.582,2.4751,4.7637,5.4043,4.7637c0.2764,0,0.5,0.2236,0.5,0.5S6.728,21.6797,6.4517,21.6797z"/>
	<path d="M6.4521,14.7559c-1.832,0-3.7349-0.7598-4.8481-1.9346c-1.0039-1.0586-1.5566-2.4185-1.5566-3.8291
		c0-0.1162,0.0083-0.23,0.0171-0.3433c0.021-0.2749,0.2671-0.5127,0.5376-0.4878C0.8774,8.1816,1.0859,8.394,1.0654,8.6689
		c0,0.0005-0.0039,0.0557-0.0039,0.0562C1.0547,8.8135,1.0474,8.9019,1.0474,8.9922c0,1.1533,0.4556,2.269,1.2822,3.1416
		c0.9048,0.9551,2.5234,1.6016,4.0488,1.6211l16.9771-5.2402c0.2646-0.0815,0.5439,0.0659,0.625,0.3301
		c0.082,0.2637-0.0664,0.5439-0.3301,0.625L6.5996,14.7334C6.5518,14.748,6.502,14.7559,6.4521,14.7559z"/>
	<path d="M6.4521,14.7559c-1.832,0-3.7349-0.7598-4.8481-1.9346c-1.0039-1.0586-1.5566-2.4185-1.5566-3.8291
		c0-0.1162,0.0083-0.23,0.0171-0.3433C0.2695,5.8408,2.4712,3.6938,5.4224,3.375c0.2705-0.0322,0.521,0.1685,0.5508,0.4434
		c0.0298,0.2744-0.1689,0.521-0.4434,0.5508C3.0669,4.6353,1.231,6.4033,1.0654,8.6689C1.0547,8.8135,1.0474,8.9019,1.0474,8.9922
		c0,1.1533,0.4556,2.269,1.2822,3.1416c0.9048,0.9551,2.5234,1.6016,4.0488,1.6211L21.7803,9.001L8.4478,5.0312
		C8.1831,4.9526,8.0322,4.6743,8.1113,4.4097c0.0786-0.2642,0.3564-0.4155,0.6216-0.3364l14.9126,4.4399
		c0.2109,0.0625,0.3564,0.2563,0.3574,0.4766s-0.1416,0.415-0.3525,0.48L6.5996,14.7334C6.5518,14.748,6.502,14.7559,6.4521,14.7559
		z"/>
	<path d="M6.5015,18.1172c-0.2134,0-0.4106-0.1377-0.4775-0.3516c-0.082-0.2637,0.0654-0.5439,0.3291-0.626l16.9683-5.2734
		c0.2686-0.0796,0.5449,0.0659,0.626,0.3291c0.082,0.2637-0.0654,0.5439-0.3291,0.626L6.6499,18.0947
		C6.6006,18.1104,6.5503,18.1172,6.5015,18.1172z"/>
	<path fill="none" stroke="#000000" stroke-linecap="round" stroke-linejoin="round" d="M23.4534,11.7974"/>
	<path d="M6.1489,10.3086c-0.8169,0-1.6011-0.1816-2.1919-0.5493C3.2217,9.3018,2.8477,8.603,2.9038,7.791
		C2.998,6.4419,4.0361,6.0171,4.5723,5.981C4.8638,5.9751,5.0864,6.1709,5.105,6.4463C5.123,6.7197,4.918,6.957,4.6455,6.9785
		C4.5283,6.9897,3.9556,7.0859,3.9019,7.8604C3.8711,8.3032,4.0615,8.647,4.4849,8.9102C5.4321,9.499,7.1294,9.4365,8.27,8.7729
		c0.7393-0.4307,0.9175-0.8413,0.6812-1.5688C8.731,6.5259,8.3276,6.4941,7.959,6.5522c-0.2705,0.0459-0.5288-0.1426-0.5723-0.415
		s0.1421-0.5288,0.415-0.5723c1.0049-0.166,1.7739,0.3232,2.1006,1.3306c0.3828,1.1787,0.0137,2.0757-1.1289,2.7417
		C8.0083,10.0825,7.0586,10.3081,6.1489,10.3086z"/>
	<path d="M5.5952,7.54c-0.041,0-0.0825-0.0049-0.1245-0.0156C5.335,7.4893,4.1382,7.1553,3.8569,6.1611
		C3.6675,5.4893,3.958,4.7485,4.7207,3.9595c0.8765-0.9067,1.0371-1.4028,1.0659-1.5737C5.8281,2.1353,5.9863,1.9302,6.21,1.8364
		c0.2114-0.0889,0.4502-0.0625,0.6392,0.0708C7.749,2.5371,9.2451,3.7852,9.147,5.0586c-0.0498,0.6499-0.4771,1.1772-1.269,1.5669
		c-0.2476,0.1221-0.5479,0.02-0.6694-0.228S7.189,5.8501,7.4365,5.728c0.4526-0.2227,0.6924-0.4736,0.7134-0.7461
		c0.0376-0.4849-0.5444-1.2422-1.5093-1.9873C6.4385,3.481,6.0366,4.0371,5.4395,4.6548C4.957,5.1538,4.7368,5.5913,4.8188,5.8872
		C4.9243,6.2656,5.521,6.5029,5.7217,6.5562C5.9878,6.627,6.1475,6.8999,6.0781,7.166C6.019,7.3911,5.8174,7.54,5.5952,7.54z"/>
</g>
<rect x="0.0142" y="0.0346" fill="none" width="24" height="24"/>
</svg>
