<?xml version="1.0" encoding="utf-8"?>
<!-- Generator: Adobe Illustrator 18.1.0, SVG Export Plug-In . SVG Version: 6.00 Build 0)  -->
<svg version="1.1" id="Layer_1" xmlns="http://www.w3.org/2000/svg" xmlns:xlink="http://www.w3.org/1999/xlink" x="0px" y="0px"
	 width="24px" height="24px" viewBox="0 0 24 24" enable-background="new 0 0 24 24" xml:space="preserve">
<g>
	<path d="M14.9863,24h-7c-0.2764,0-0.5-0.2236-0.5-0.5S7.71,23,7.9863,23h7c0.2764,0,0.5,0.2236,0.5,0.5S15.2627,24,14.9863,24z"/>
	<path d="M11.5312,19.9854c-2.7554,0-5.5449-1.8115-5.5449-5.2744V5.2886c0-3.4639,2.7954-5.2759,5.5566-5.2759
		c2.6221,0,5.4434,1.6509,5.4434,5.2759v9.4224c0,1.6338-0.5947,3.0059-1.7207,3.9678
		C14.2803,19.5215,12.9541,19.9854,11.5312,19.9854z M11.543,1.0127c-2.1948,0-4.5566,1.3379-4.5566,4.2759v9.4224
		c0,2.9375,2.356,4.2744,4.5449,4.2744c1.1846,0,2.2803-0.3789,3.084-1.0664c0.8975-0.7666,1.3711-1.876,1.3711-3.208V5.2886
		C15.9863,2.335,13.7549,1.0127,11.543,1.0127z"/>
	<path d="M16.4863,15h-10c-0.2764,0-0.5-0.2236-0.5-0.5S6.21,14,6.4863,14h10c0.2764,0,0.5,0.2236,0.5,0.5S16.7627,15,16.4863,15z"
		/>
	<path d="M11.4863,24c-0.2764,0-0.5-0.2236-0.5-0.5v-2c0-0.2764,0.2236-0.5,0.5-0.5s0.5,0.2236,0.5,0.5v2
		C11.9863,23.7764,11.7627,24,11.4863,24z"/>
	<path d="M8.4697,11.48c-0.1299,0-0.25-0.0503-0.3501-0.1504C8.0298,11.2397,7.98,11.1196,7.98,10.98
		c0-0.1304,0.0498-0.2603,0.1396-0.3501c0.1904-0.1899,0.52-0.1899,0.71,0c0.0903,0.0898,0.1401,0.2197,0.1401,0.3501
		c0,0.1299-0.0498,0.2598-0.1401,0.3599C8.73,11.4297,8.6099,11.48,8.4697,11.48z"/>
	<path d="M11.5,11.48c-0.1304,0-0.2603-0.0503-0.3604-0.1401C11.0498,11.2397,11,11.1099,11,10.98
		c0-0.1304,0.0498-0.2603,0.1499-0.3604c0.1699-0.1699,0.5098-0.1797,0.6997,0.0103C11.9399,10.7197,12,10.8496,12,10.98
		c0,0.1299-0.0601,0.2598-0.1504,0.3496C11.75,11.4297,11.6299,11.48,11.5,11.48z"/>
	<path d="M14.5098,11.48c-0.1299,0-0.2598-0.0503-0.3496-0.1401c-0.1006-0.1001-0.1504-0.23-0.1504-0.3599
		c0-0.1304,0.0498-0.2603,0.1396-0.3501c0.1904-0.1899,0.5205-0.1899,0.71,0c0.0908,0.0898,0.1504,0.2197,0.1504,0.3501
		c0,0.1299-0.0596,0.2598-0.1396,0.3496C14.7598,11.4297,14.6396,11.48,14.5098,11.48z"/>
	<path d="M9.98,12.9697c-0.1304,0-0.25-0.0498-0.3501-0.1396C9.5298,12.7197,9.48,12.5996,9.48,12.4697s0.0498-0.2598,0.1499-0.3496
		c0.1899-0.2002,0.5298-0.1904,0.71,0c0.0898,0.0898,0.1401,0.2197,0.1401,0.3496s-0.0503,0.2598-0.1401,0.3496
		C10.2397,12.9199,10.1099,12.9697,9.98,12.9697z"/>
	<path d="M12.9902,12.9697c-0.1309,0-0.2607-0.0498-0.3506-0.1504c-0.0996-0.0898-0.1494-0.2197-0.1494-0.3496
		s0.0498-0.2598,0.1494-0.3604c0.1797-0.1797,0.5098-0.1797,0.7002,0c0.0996,0.1006,0.1504,0.2305,0.1504,0.3604
		s-0.0508,0.25-0.1406,0.3496C13.25,12.9199,13.1201,12.9697,12.9902,12.9697z"/>
	<path d="M9.98,10.0098c-0.1304,0-0.25-0.0498-0.3501-0.1401C9.5298,9.77,9.48,9.6396,9.48,9.5098S9.5298,9.25,9.6196,9.1597
		c0.21-0.1997,0.52-0.1899,0.71-0.0098C10.4297,9.25,10.48,9.3799,10.48,9.5098S10.4297,9.77,10.3398,9.8599
		C10.2397,9.96,10.1099,10.0098,9.98,10.0098z"/>
	<path d="M12.9902,10.0098c-0.1309,0-0.2607-0.0498-0.3506-0.1499C12.54,9.77,12.4902,9.6396,12.4902,9.5098
		S12.54,9.25,12.6396,9.1597c0.1797-0.1899,0.5098-0.1899,0.7002,0c0.0996,0.0903,0.1504,0.2202,0.1504,0.3501
		S13.4395,9.77,13.3496,9.8599C13.2402,9.96,13.1201,10.0098,12.9902,10.0098z"/>
	<path d="M8.4697,8.5098c-0.1401,0-0.27-0.0601-0.3599-0.1499S7.9697,8.1396,7.9697,8.0098c0-0.1401,0.0503-0.2598,0.1401-0.3599
		c0.1802-0.1802,0.52-0.1899,0.71,0c0.1001,0.1001,0.1499,0.23,0.1499,0.3599s-0.0601,0.25-0.1499,0.3501
		C8.73,8.4497,8.5996,8.5098,8.4697,8.5098z"/>
	<path d="M11.4897,8.5098c-0.1299,0-0.2598-0.0498-0.3501-0.1401c-0.0996-0.0996-0.1499-0.23-0.1499-0.3599
		c0-0.1401,0.0503-0.27,0.1499-0.3599c0.1899-0.1899,0.5103-0.1802,0.7002,0c0.1001,0.0898,0.1499,0.2197,0.1499,0.3599
		c0,0.1299-0.0498,0.2603-0.1499,0.3501C11.75,8.4497,11.6196,8.5098,11.4897,8.5098z"/>
	<path d="M14.5,8.5098c-0.1299,0-0.2598-0.0601-0.3604-0.1499C14.0498,8.2598,14,8.1396,14,8.0098s0.0498-0.2598,0.1396-0.3501
		c0.1904-0.1899,0.5205-0.1997,0.71-0.0098C14.9502,7.75,15,7.8799,15,8.0098s-0.0498,0.25-0.1406,0.3501
		C14.7598,8.46,14.6299,8.5098,14.5,8.5098z"/>
	<path d="M8.4697,5.5298c-0.1401,0-0.27-0.0498-0.3599-0.1499C8.02,5.29,7.9697,5.1597,7.9697,5.0298S8.02,4.77,8.1099,4.6797
		c0.1802-0.1797,0.52-0.1899,0.71,0c0.0898,0.1001,0.1499,0.2202,0.1499,0.3501S8.9097,5.29,8.8198,5.3799
		C8.73,5.48,8.5996,5.5298,8.4697,5.5298z"/>
	<path d="M11.4897,5.5298c-0.1299,0-0.2598-0.0498-0.3501-0.1401c-0.0996-0.0996-0.1499-0.23-0.1499-0.3599
		S11.04,4.77,11.1396,4.6797c0.1899-0.1899,0.52-0.1899,0.7002,0c0.1001,0.0903,0.1499,0.2202,0.1499,0.3501
		S11.9399,5.29,11.8398,5.3896C11.75,5.48,11.6196,5.5298,11.4897,5.5298z"/>
	<path d="M14.5,5.5298c-0.1299,0-0.2598-0.0498-0.3604-0.1401C14.0498,5.29,14,5.1597,14,5.0298s0.0498-0.25,0.1396-0.3501
		c0.1904-0.1899,0.5205-0.1899,0.71,0C14.9502,4.7798,15,4.9097,15,5.0298c0,0.1299-0.0498,0.2603-0.1406,0.3501
		C14.7598,5.48,14.6299,5.5298,14.5,5.5298z"/>
	<path d="M9.98,4.0298c-0.1304,0-0.25-0.0498-0.3501-0.1401C9.5298,3.79,9.48,3.6597,9.48,3.5298s0.0498-0.25,0.1396-0.3501
		c0.1904-0.1899,0.5303-0.1899,0.7202,0C10.4297,3.2798,10.48,3.3999,10.48,3.5298S10.4297,3.79,10.3398,3.8799
		C10.2397,3.98,10.1099,4.0298,9.98,4.0298z"/>
	<path d="M12.9902,4.0298c-0.1309,0-0.2607-0.0498-0.3604-0.1499C12.54,3.79,12.4902,3.6597,12.4902,3.5298
		S12.54,3.27,12.6396,3.1797c0.1904-0.1899,0.5098-0.1899,0.7002-0.0098c0.0996,0.1001,0.1504,0.23,0.1504,0.3599
		S13.4395,3.79,13.3398,3.8799C13.25,3.98,13.1201,4.0298,12.9902,4.0298z"/>
	<path d="M9.98,7.02c-0.1304,0-0.2603-0.0503-0.3501-0.1504C9.54,6.7798,9.48,6.6499,9.48,6.52
		c0-0.1304,0.0498-0.2603,0.1396-0.3501c0.2002-0.1899,0.52-0.1899,0.71-0.0103C10.4297,6.2598,10.48,6.3896,10.48,6.52
		c0,0.1299-0.0503,0.2598-0.1401,0.3496C10.2397,6.9697,10.1099,7.02,9.98,7.02z"/>
	<path d="M12.9902,7.02c-0.1309,0-0.2607-0.0503-0.3506-0.1401c-0.0996-0.1001-0.1494-0.23-0.1494-0.3599
		c0-0.1304,0.0498-0.2603,0.1494-0.3501c0.1797-0.1899,0.5205-0.1899,0.71,0c0.0898,0.0898,0.1406,0.2197,0.1406,0.3501
		c0,0.1299-0.0508,0.2598-0.1406,0.3496C13.25,6.9697,13.1201,7.02,12.9902,7.02z"/>
</g>
<rect x="-0.0136" fill="none" width="24" height="24"/>
</svg>
