<?xml version="1.0" encoding="utf-8"?>
<!-- Generator: Adobe Illustrator 18.1.0, SVG Export Plug-In . SVG Version: 6.00 Build 0)  -->
<svg version="1.1" id="Layer_1" xmlns="http://www.w3.org/2000/svg" xmlns:xlink="http://www.w3.org/1999/xlink" x="0px" y="0px"
	 width="24px" height="24px" viewBox="0 0 24 24" enable-background="new 0 0 24 24" xml:space="preserve">
<g>
	<path d="M23.5,22h-23C0.2236,22,0,21.7764,0,21.5v-19C0,2.2236,0.2236,2,0.5,2h23C23.7764,2,24,2.2236,24,2.5v19
		C24,21.7764,23.7764,22,23.5,22z M1,21h22V3H1V21z"/>
	<path d="M23.4736,8.001H0.5479c-0.2764,0-0.5-0.2236-0.5-0.5s0.2236-0.5,0.5-0.5h22.9258c0.2764,0,0.5,0.2236,0.5,0.5
		S23.75,8.001,23.4736,8.001z"/>
	<path d="M18.502,11.999H5.4707c-0.2764,0-0.5-0.2236-0.5-0.5s0.2236-0.5,0.5-0.5H18.502c0.2764,0,0.5,0.2236,0.5,0.5
		S18.7783,11.999,18.502,11.999z"/>
	<path d="M18.502,14.999H5.4707c-0.2764,0-0.5-0.2236-0.5-0.5s0.2236-0.5,0.5-0.5H18.502c0.2764,0,0.5,0.2236,0.5,0.5
		S18.7783,14.999,18.502,14.999z"/>
	<path d="M18.502,18H5.4707c-0.2764,0-0.5-0.2236-0.5-0.5s0.2236-0.5,0.5-0.5H18.502c0.2764,0,0.5,0.2236,0.5,0.5
		S18.7783,18,18.502,18z"/>
	<path d="M3.4883,8.001c-0.1377,0-0.2744-0.0566-0.3735-0.1675c-0.1836-0.2061-0.165-0.522,0.041-0.7061L8.709,2.1812
		c0.2046-0.1836,0.521-0.166,0.7061,0.041c0.1836,0.2061,0.165,0.522-0.041,0.7061L3.8208,7.8745
		C3.7256,7.959,3.6069,8.001,3.4883,8.001z"/>
	<path d="M0.5479,6.9517c-0.1411,0-0.2817-0.0596-0.3804-0.1758c-0.1792-0.21-0.1543-0.5259,0.0562-0.7046l4.5732-3.897
		c0.21-0.1802,0.5249-0.1548,0.7046,0.0562c0.1792,0.21,0.1543,0.5259-0.0562,0.7046L0.8721,6.832
		C0.7778,6.9126,0.6626,6.9517,0.5479,6.9517z"/>
	<path d="M7.4082,8.001c-0.1377,0-0.2744-0.0566-0.3735-0.1675c-0.1836-0.2061-0.165-0.5225,0.041-0.7061l5.5532-4.9463
		c0.207-0.1846,0.5225-0.165,0.7061,0.041s0.166,0.5225-0.04,0.7061L7.7407,7.8745C7.6455,7.9595,7.5269,8.001,7.4082,8.001z"/>
	<path d="M11.3286,8.001c-0.1377,0-0.2744-0.0566-0.3735-0.1675c-0.1836-0.2061-0.165-0.522,0.041-0.7061l5.5527-4.9463
		c0.2061-0.1836,0.5234-0.165,0.7061,0.041c0.1836,0.2061,0.166,0.522-0.04,0.7061l-5.5537,4.9463
		C11.5659,7.959,11.4473,8.001,11.3286,8.001z"/>
	<path d="M15.249,8.001c-0.1377,0-0.2744-0.0566-0.373-0.1675c-0.1836-0.2061-0.166-0.522,0.04-0.7061l5.5527-4.9463
		c0.207-0.1836,0.5225-0.165,0.7061,0.041s0.166,0.522-0.04,0.7061L15.582,7.8745C15.4863,7.959,15.3672,8.001,15.249,8.001z"/>
	<path d="M19.1689,8.001c-0.1445,0-0.2871-0.0625-0.3867-0.1826C18.6074,7.605,18.6387,7.29,18.8516,7.1147l4.3047-3.5356
		c0.2129-0.1753,0.5273-0.144,0.7041,0.0688c0.1748,0.2134,0.1436,0.5283-0.0693,0.7036l-4.3047,3.5356
		C19.3936,7.9639,19.2812,8.001,19.1689,8.001z"/>
</g>
<rect fill="none" width="24" height="24"/>
</svg>
