<?xml version="1.0" encoding="utf-8"?>
<!-- Generator: Adobe Illustrator 18.1.0, SVG Export Plug-In . SVG Version: 6.00 Build 0)  -->
<svg version="1.1" id="Layer_1" xmlns="http://www.w3.org/2000/svg" xmlns:xlink="http://www.w3.org/1999/xlink" x="0px" y="0px"
	 width="24px" height="24px" viewBox="0 0 24 24" enable-background="new 0 0 24 24" xml:space="preserve">
<g>
	<g>
		<g>
			<path d="M2.5,2.0029c-0.2764,0-0.5-0.2236-0.5-0.5v-1c0-0.2764,0.2236-0.5,0.5-0.5S3,0.2266,3,0.5029v1
				C3,1.7793,2.7764,2.0029,2.5,2.0029z"/>
			<path d="M2.5,14.7529c-0.2764,0-0.5-0.2236-0.5-0.5v-2.125c0-0.2764,0.2236-0.5,0.5-0.5s0.5,0.2236,0.5,0.5v2.125
				C3,14.5293,2.7764,14.7529,2.5,14.7529z M2.5,8.3779c-0.2764,0-0.5-0.2236-0.5-0.5v-2.125c0-0.2764,0.2236-0.5,0.5-0.5
				S3,5.4766,3,5.7529v2.125C3,8.1543,2.7764,8.3779,2.5,8.3779z"/>
			<path d="M3.5,20.0029h-1c-0.2764,0-0.5-0.2236-0.5-0.5v-1c0-0.2764,0.2236-0.5,0.5-0.5s0.5,0.2236,0.5,0.5v0.5h0.5
				c0.2764,0,0.5,0.2236,0.5,0.5S3.7764,20.0029,3.5,20.0029z"/>
			<path d="M8.8999,20.0029H7.1001c-0.2764,0-0.5-0.2236-0.5-0.5s0.2236-0.5,0.5-0.5h1.7998c0.2764,0,0.5,0.2236,0.5,0.5
				S9.1763,20.0029,8.8999,20.0029z"/>
			<path d="M13.5,20.0029h-1c-0.2764,0-0.5-0.2236-0.5-0.5s0.2236-0.5,0.5-0.5h1c0.2764,0,0.5,0.2236,0.5,0.5
				S13.7764,20.0029,13.5,20.0029z"/>
		</g>
	</g>
	<path d="M21.5,3.0029h-1.9668c-0.2764,0-0.5-0.2236-0.5-0.5v-2c0-0.2764,0.2236-0.5,0.5-0.5s0.5,0.2236,0.5,0.5v1.5H21.5
		c0.2764,0,0.5,0.2236,0.5,0.5S21.7764,3.0029,21.5,3.0029z"/>
	<path d="M21.1133,11.0029h-7.2617C13.374,11.0029,13,10.6387,13,10.1738V0.8677c0-0.4771,0.3818-0.8647,0.8516-0.8647h5.7666
		c0.2227,0,0.4365,0.0884,0.6006,0.2495l1.5098,1.4756C21.9023,1.9004,22,2.1226,22,2.3413v7.8325
		C22,10.6309,21.6025,11.0029,21.1133,11.0029z M14,10.0029h7V2.4141l-1.4443-1.4111H14V10.0029z"/>
	<path d="M21.5,16.0039h-1.9668c-0.2764,0-0.5-0.2236-0.5-0.5v-2c0-0.2764,0.2236-0.5,0.5-0.5s0.5,0.2236,0.5,0.5v1.5H21.5
		c0.2764,0,0.5,0.2236,0.5,0.5S21.7764,16.0039,21.5,16.0039z"/>
	<path d="M21.1133,24.0039h-7.2617C13.374,24.0039,13,23.6396,13,23.1748v-9.3057c0-0.4775,0.3818-0.8652,0.8516-0.8652h5.7666
		c0.2217,0,0.4346,0.0879,0.5996,0.248l1.5107,1.4766C21.9023,14.9023,22,15.125,22,15.3428v7.832
		C22,23.6318,21.6025,24.0039,21.1133,24.0039z M14,23.0039h7V15.415l-1.4434-1.4111H14V23.0039z"/>
	<g>
		<g>
			<path d="M13.5,7.0029h-1c-0.2764,0-0.5-0.2236-0.5-0.5s0.2236-0.5,0.5-0.5h1c0.2764,0,0.5,0.2236,0.5,0.5
				S13.7764,7.0029,13.5,7.0029z"/>
			<path d="M8.8999,7.0029H7.1001c-0.2764,0-0.5-0.2236-0.5-0.5s0.2236-0.5,0.5-0.5h1.7998c0.2764,0,0.5,0.2236,0.5,0.5
				S9.1763,7.0029,8.8999,7.0029z"/>
			<path d="M3.5,7.0029h-1c-0.2764,0-0.5-0.2236-0.5-0.5s0.2236-0.5,0.5-0.5h1c0.2764,0,0.5,0.2236,0.5,0.5
				S3.7764,7.0029,3.5,7.0029z"/>
		</g>
	</g>
</g>
<rect y="0.0001" fill="none" width="24" height="24"/>
</svg>
