<?xml version="1.0" encoding="utf-8"?>
<!-- Generator: Adobe Illustrator 18.1.0, SVG Export Plug-In . SVG Version: 6.00 Build 0)  -->
<svg version="1.1" id="Layer_1" xmlns="http://www.w3.org/2000/svg" xmlns:xlink="http://www.w3.org/1999/xlink" x="0px" y="0px"
	 width="24px" height="24px" viewBox="0 0 24 24" enable-background="new 0 0 24 24" xml:space="preserve">
<g>
	<path d="M22.4805,7.0039H7.5503c-0.2764,0-0.5-0.2236-0.5-0.5s0.2236-0.5,0.5-0.5h14.9302c0.2764,0,0.5,0.2236,0.5,0.5
		S22.7568,7.0039,22.4805,7.0039z"/>
	<path d="M22.4805,13.0039H7.5503c-0.2764,0-0.5-0.2236-0.5-0.5s0.2236-0.5,0.5-0.5h14.9302c0.2764,0,0.5,0.2236,0.5,0.5
		S22.7568,13.0039,22.4805,13.0039z"/>
	<path d="M22.4805,19.0039H7.5503c-0.2764,0-0.5-0.2236-0.5-0.5s0.2236-0.5,0.5-0.5h14.9302c0.2764,0,0.5,0.2236,0.5,0.5
		S22.7568,19.0039,22.4805,19.0039z"/>
	<path d="M3.4683,7.8521c-0.7432,0-1.3477-0.605-1.3477-1.3481s0.6045-1.3481,1.3477-1.3481s1.3481,0.605,1.3481,1.3481
		S4.2114,7.8521,3.4683,7.8521z M3.4683,6.1558c-0.1919,0-0.3477,0.1562-0.3477,0.3481s0.1558,0.3481,0.3477,0.3481
		s0.3481-0.1562,0.3481-0.3481S3.6602,6.1558,3.4683,6.1558z"/>
	<path d="M3.4683,13.8525c-0.7432,0-1.3477-0.6045-1.3477-1.3477c0-0.7437,0.6045-1.3486,1.3477-1.3486s1.3481,0.605,1.3481,1.3486
		C4.8164,13.248,4.2114,13.8525,3.4683,13.8525z M3.4683,12.1562c-0.1919,0-0.3477,0.1562-0.3477,0.3486
		c0,0.1914,0.1558,0.3477,0.3477,0.3477s0.3481-0.1562,0.3481-0.3477C3.8164,12.3125,3.6602,12.1562,3.4683,12.1562z"/>
	<path d="M3.4683,19.8525c-0.7432,0-1.3477-0.6045-1.3477-1.3477s0.6045-1.3477,1.3477-1.3477s1.3481,0.6045,1.3481,1.3477
		S4.2114,19.8525,3.4683,19.8525z M3.4683,18.1572c-0.1919,0-0.3477,0.1562-0.3477,0.3477s0.1558,0.3477,0.3477,0.3477
		s0.3481-0.1562,0.3481-0.3477S3.6602,18.1572,3.4683,18.1572z"/>
</g>
<rect y="0.0011" fill="none" width="24" height="24"/>
</svg>
