<?xml version="1.0" encoding="utf-8"?>
<!-- Generator: Adobe Illustrator 18.1.0, SVG Export Plug-In . SVG Version: 6.00 Build 0)  -->
<svg version="1.1" id="Layer_1" xmlns="http://www.w3.org/2000/svg" xmlns:xlink="http://www.w3.org/1999/xlink" x="0px" y="0px"
	 width="24px" height="24px" viewBox="0 0 24 24" enable-background="new 0 0 24 24" xml:space="preserve">
<g>
	<path d="M4.4678,17.8457c-0.2764,0-0.5-0.2236-0.5-0.5v-9.876c0-2.7949,2.1846-3.5332,3.3398-3.5332h1.1079
		c0.2764,0,0.5,0.2236,0.5,0.5s-0.2236,0.5-0.5,0.5H7.3076c-0.2373,0.002-2.3398,0.0913-2.3398,2.5332v9.876
		C4.9678,17.6221,4.7441,17.8457,4.4678,17.8457z"/>
	<path d="M4.4692,20.1348H4.4663c-0.709,0-1.2861-0.5771-1.2861-1.2861v-0.7168c0-0.709,0.5771-1.2861,1.2861-1.2861
		c0.7119,0,1.2891,0.5771,1.2891,1.2861v0.7168C5.7554,19.5576,5.1782,20.1348,4.4692,20.1348z M4.4692,17.8457
		c-0.1606,0-0.2891,0.1279-0.2891,0.2861v0.7168c0,0.1582,0.1284,0.2861,0.2861,0.2861h0.0029c0.1577,0,0.2861-0.1279,0.2861-0.2861
		v-0.7168C4.7554,17.9736,4.627,17.8457,4.4692,17.8457z"/>
	<path d="M14.5947,24.0264H8.3955c-0.4985,0-0.8057-0.2041-0.9756-0.375c-0.3535-0.3555-0.3892-0.8223-0.3882-1.0068V9.376
		c-0.002-2.2773,1.8994-3.5669,2.9629-3.9673V3.0049H9.5815c-0.2764,0-0.5-0.2236-0.5-0.5V0.498c0-0.2764,0.2236-0.5,0.5-0.5h3.9097
		c0.2764,0,0.5,0.2236,0.5,0.5v2.0068c0,0.2764-0.2236,0.5-0.5,0.5l-0.4844,0.0005h2.4756c0.2764,0,0.5,0.2236,0.5,0.5v1.3521
		c0,0.2764-0.2236,0.5-0.5,0.5H13.001L13,5.4106c1.0645,0.4019,2.9609,1.6909,2.959,3.9663v13.2705
		c0.001,0.1816-0.0342,0.6484-0.3877,1.0039C15.4014,23.8223,15.0938,24.0264,14.5947,24.0264z M10.0815,2.0049h0.4131
		c0.2764,0,0.5,0.2236,0.5,0.5v3.2759c0,0.2417-0.1729,0.4487-0.4102,0.4917c-0.5635,0.103-2.5547,1.0977-2.5527,3.103v13.272
		c-0.0005,0.0938,0.0244,0.2266,0.0972,0.2998C8.1816,23,8.271,23.0264,8.3955,23.0264h6.1992c0.125,0,0.2148-0.0264,0.2666-0.0801
		c0.0732-0.0723,0.0986-0.2051,0.0977-0.2959V9.3765c0.002-2.0068-1.9902-3.001-2.5537-3.104
		c-0.2402-0.0435-0.4131-0.2539-0.4102-0.498l0.0117-0.9233c0.0039-0.2734,0.2266-0.4937,0.5-0.4937h2.4756V4.0054h-2.4756
		c-0.2764,0-0.5-0.2236-0.5-0.5V2.5049c0-0.2764,0.2236-0.5,0.5-0.5h0.4844V0.998h-2.9097V2.0049z"/>
	<path d="M22.417,6.9185c-0.0234,0-0.0469-0.0015-0.0703-0.0049l-6.9346-0.9893c-0.2471-0.0352-0.4297-0.2461-0.4297-0.4951v-2.54
		c0-0.2495,0.1846-0.4609,0.4316-0.4951l6.9346-0.9565c0.1436-0.0225,0.2881,0.0239,0.3965,0.1182
		c0.1094,0.0952,0.1719,0.2324,0.1719,0.377v4.4858c0,0.145-0.0625,0.2827-0.1729,0.3779
		C22.6533,6.8755,22.5361,6.9185,22.417,6.9185z M15.9824,4.9956l5.9346,0.8467V2.5063l-5.9346,0.8184V4.9956z"/>
</g>
<rect x="-0.0136" y="0.0002" fill="none" width="24" height="24"/>
</svg>
