<?xml version="1.0" encoding="utf-8"?>
<!-- Generator: Adobe Illustrator 18.1.0, SVG Export Plug-In . SVG Version: 6.00 Build 0)  -->
<svg version="1.1" id="Layer_1" xmlns="http://www.w3.org/2000/svg" xmlns:xlink="http://www.w3.org/1999/xlink" x="0px" y="0px"
	 width="24px" height="24px" viewBox="0 0 24 24" enable-background="new 0 0 24 24" xml:space="preserve">
<g>
	<path d="M4.5195,20.9492H3.0688c-0.2764,0-0.5-0.2236-0.5-0.5V18.999H2.4614c-0.2764,0-0.5-0.2236-0.5-0.5v-1.9512
		c0-0.2764,0.2236-0.5,0.5-0.5s0.5,0.2236,0.5,0.5v1.4512h0.1074c0.2764,0,0.5,0.2236,0.5,0.5v1.4502h0.9507
		c0.2764,0,0.5,0.2236,0.5,0.5S4.7959,20.9492,4.5195,20.9492z"/>
	<path d="M23.4863,20.999H21.5c-0.2764,0-0.5-0.2236-0.5-0.5s0.2236-0.5,0.5-0.5h1.4863v-5.5625c0-0.165-0.082-0.3193-0.2197-0.4131
		l-1.8008-1.2266c-0.0781-0.0527-0.1387-0.126-0.1768-0.2129l-1.5713-3.585H2.9863v1.5273c0,0.2764-0.2236,0.5-0.5,0.5
		s-0.5-0.2236-0.5-0.5V8.499c0-0.2764,0.2236-0.5,0.5-0.5h17.0586c0.1982,0,0.3779,0.1177,0.458,0.2993l1.6445,3.7534l1.6826,1.1455
		c0.4111,0.2803,0.6562,0.7432,0.6562,1.2393v6.0625C23.9863,20.7754,23.7627,20.999,23.4863,20.999z"/>
	<path d="M17.5898,21.0117H8.4287c-0.2764,0-0.5-0.2236-0.5-0.5s0.2236-0.5,0.5-0.5h9.1611c0.2764,0,0.5,0.2236,0.5,0.5
		S17.8662,21.0117,17.5898,21.0117z"/>
	<path d="M19.5449,22.9043c-1.3535,0-2.4541-1.1016-2.4541-2.4551s1.1006-2.4541,2.4541-2.4541S22,19.0957,22,20.4492
		S20.8984,22.9043,19.5449,22.9043z M19.5449,18.9951c-0.8018,0-1.4541,0.6523-1.4541,1.4541c0,0.8027,0.6523,1.4551,1.4541,1.4551
		c0.8027,0,1.4551-0.6523,1.4551-1.4551C21,19.6475,20.3477,18.9951,19.5449,18.9951z"/>
	<path d="M6.4741,22.9043c-1.3535,0-2.4546-1.1016-2.4546-2.4551s1.1011-2.4541,2.4546-2.4541s2.4546,1.1006,2.4546,2.4541
		S7.8276,22.9043,6.4741,22.9043z M6.4741,18.9951c-0.8022,0-1.4546,0.6523-1.4546,1.4541c0,0.8027,0.6523,1.4551,1.4546,1.4551
		s1.4546-0.6523,1.4546-1.4551C7.9287,19.6475,7.2764,18.9951,6.4741,18.9951z"/>
	<path d="M3.5195,15.0117h-2c-0.2764,0-0.5-0.2236-0.5-0.5s0.2236-0.5,0.5-0.5h2c0.2764,0,0.5,0.2236,0.5,0.5
		S3.7959,15.0117,3.5195,15.0117z"/>
	<path d="M4.5195,13.0117h-4c-0.2764,0-0.5-0.2236-0.5-0.5s0.2236-0.5,0.5-0.5h4c0.2764,0,0.5,0.2236,0.5,0.5
		S4.7959,13.0117,4.5195,13.0117z"/>
	<path d="M23.4746,18.9951H3.0688c-0.2764,0-0.5-0.2236-0.5-0.5s0.2236-0.5,0.5-0.5h20.4058c0.2764,0,0.5,0.2236,0.5,0.5
		S23.751,18.9951,23.4746,18.9951z"/>
	<path d="M16.4863,18.9512c-0.2764,0-0.5-0.2236-0.5-0.5V8.499c0-0.2764,0.2236-0.5,0.5-0.5s0.5,0.2236,0.5,0.5v9.9521
		C16.9863,18.7275,16.7627,18.9512,16.4863,18.9512z"/>
</g>
<rect x="-0.0136" fill="none" width="24" height="24"/>
</svg>
