<?xml version="1.0" encoding="utf-8"?>
<!-- Generator: Adobe Illustrator 18.1.0, SVG Export Plug-In . SVG Version: 6.00 Build 0)  -->
<svg version="1.1" id="Layer_1" xmlns="http://www.w3.org/2000/svg" xmlns:xlink="http://www.w3.org/1999/xlink" x="0px" y="0px"
	 width="24px" height="24px" viewBox="0 0 24 24" enable-background="new 0 0 24 24" xml:space="preserve">
<g>
	<path d="M19.0684,12.7012c-1.4707,0-2.668-1.1973-2.668-2.6689c0-1.4712,1.1973-2.6685,2.668-2.6685
		c1.4717,0,2.6689,1.1973,2.6689,2.6685C21.7373,11.5039,20.54,12.7012,19.0684,12.7012z M19.0684,8.3638
		c-0.9199,0-1.668,0.7485-1.668,1.6685c0,0.9204,0.748,1.6689,1.668,1.6689s1.6689-0.7485,1.6689-1.6689
		C20.7373,9.1123,19.9883,8.3638,19.0684,8.3638z"/>
	<path d="M22.127,16.0342H0.6909c-0.1475,0-0.2876-0.0654-0.3828-0.1777c-0.0947-0.1133-0.1353-0.2627-0.1099-0.4082
		c0.5693-3.2812,2.2607-4.877,3.7529-6.2847c2.8228-2.6631,6.814-4.1294,11.2383-4.1294h8.3311c0.2764,0,0.5,0.2236,0.5,0.5v8.5312
		C24.0205,15.1328,23.1533,16.0342,22.127,16.0342z M1.3018,15.0342H22.127c0.4756,0,0.8936-0.4531,0.8936-0.9688V6.0342h-7.8311
		c-4.1685,0-7.9155,1.3696-10.5518,3.8569C3.0425,11.3955,1.8472,12.6748,1.3018,15.0342z"/>
	<path d="M23.5205,6.0342c-0.2764,0-0.5-0.2236-0.5-0.5V2.9653c0-0.5049-0.4092-0.9312-0.8936-0.9312H10.02
		c-0.2764,0-0.5-0.2236-0.5-0.5s0.2236-0.5,0.5-0.5H22.127c1.0439,0,1.8936,0.8662,1.8936,1.9312v2.5688
		C24.0205,5.8105,23.7969,6.0342,23.5205,6.0342z"/>
	<path d="M3.5933,24.1191c-0.1279,0-0.2559-0.0488-0.3535-0.1465c-0.1953-0.1953-0.1953-0.5117,0-0.707
		c0.3008-0.3008,0.4668-0.7012,0.4668-1.126c0-0.4258-0.166-0.8252-0.4668-1.126c-1.0112-1.0107-1.0112-2.6562,0-3.667
		c0.1953-0.1953,0.5117-0.1953,0.707,0s0.1953,0.5117,0,0.707C3.646,18.3545,3.48,18.7549,3.48,19.1807
		c0,0.4248,0.166,0.8252,0.4668,1.126c0.4897,0.4893,0.7598,1.1396,0.7598,1.833c0,0.6924-0.27,1.3438-0.7598,1.833
		C3.8491,24.0703,3.7212,24.1191,3.5933,24.1191z"/>
	<path d="M8.5938,24.1191c-0.1279,0-0.2559-0.0488-0.3535-0.1465c-0.1953-0.1953-0.1953-0.5117,0-0.707
		c0.3008-0.3008,0.4663-0.7012,0.4663-1.126c0-0.4258-0.1655-0.8252-0.4663-1.126c-1.0112-1.0107-1.0112-2.6562,0-3.667
		c0.1953-0.1953,0.5117-0.1953,0.707,0s0.1953,0.5117,0,0.707c-0.3008,0.3008-0.4668,0.7012-0.4668,1.127
		c0,0.4248,0.166,0.8252,0.4668,1.126c0.4897,0.4893,0.7593,1.1396,0.7593,1.833c0,0.6924-0.2695,1.3428-0.7593,1.833
		C8.8496,24.0703,8.7217,24.1191,8.5938,24.1191z"/>
	<path d="M13.5938,24.1191c-0.1279,0-0.2559-0.0488-0.3535-0.1465c-0.1953-0.1953-0.1953-0.5117,0-0.707
		c0.3008-0.3008,0.4668-0.7012,0.4668-1.126c0-0.4258-0.166-0.8252-0.4668-1.126c-1.0107-1.0107-1.0107-2.6562,0-3.667
		c0.1953-0.1953,0.5117-0.1953,0.707,0s0.1953,0.5117,0,0.707c-0.3008,0.3008-0.4668,0.7012-0.4668,1.127
		c0,0.4248,0.166,0.8252,0.4668,1.126c0.4893,0.4893,0.7598,1.1396,0.7598,1.833c0,0.6924-0.2695,1.3438-0.7598,1.833
		C13.8496,24.0703,13.7217,24.1191,13.5938,24.1191z"/>
	<path d="M18.5947,24.1191c-0.1279,0-0.2559-0.0488-0.3535-0.1465c-0.1953-0.1953-0.1953-0.5117,0-0.707
		c0.6201-0.6211,0.6201-1.6318,0-2.252c-1.0107-1.0107-1.0107-2.6562,0-3.667c0.1953-0.1953,0.5117-0.1953,0.707,0
		s0.1953,0.5117,0,0.707c-0.3008,0.3008-0.4668,0.7012-0.4668,1.127c0,0.4248,0.166,0.8252,0.4668,1.126
		c1.0098,1.0098,1.0107,2.6543,0,3.666C18.8506,24.0703,18.7227,24.1191,18.5947,24.1191z"/>
</g>
<rect x="0.0142" y="0.0344" fill="none" width="24" height="24"/>
</svg>
