<?xml version="1.0" encoding="utf-8"?>
<!-- Generator: Adobe Illustrator 18.1.0, SVG Export Plug-In . SVG Version: 6.00 Build 0)  -->
<svg version="1.1" id="Layer_1" xmlns="http://www.w3.org/2000/svg" xmlns:xlink="http://www.w3.org/1999/xlink" x="0px" y="0px"
	 width="24px" height="24px" viewBox="0 0 24 24" enable-background="new 0 0 24 24" xml:space="preserve">
<g>
	<path d="M3.9175,8.02c-0.1475,0-0.2935-0.0649-0.3921-0.189C3.3535,7.6147,3.3896,7.3003,3.606,7.1284
		c3.2319-2.5659,7.8726-2.6934,11.2856-0.3076c0.2266,0.1582,0.2822,0.4697,0.124,0.6958
		c-0.1592,0.2271-0.4727,0.2808-0.6963,0.1235C11.2651,5.5068,7.1152,5.6182,4.228,7.9116C4.1362,7.9844,4.0264,8.02,3.9175,8.02z"
		/>
	<path d="M16.3906,20.4932c-0.1113,0-0.2236-0.0371-0.3164-0.1123c-0.2139-0.1748-0.2451-0.4902-0.0713-0.7041
		c2.3594-2.8916,2.4844-7.0439,0.3047-10.0962c-0.1602-0.2246-0.1084-0.5371,0.1162-0.6973
		c0.2266-0.1597,0.5371-0.1089,0.6982,0.1162c2.4404,3.4185,2.2998,8.0688-0.3438,11.3101
		C16.6797,20.4307,16.5352,20.4932,16.3906,20.4932z"/>
	<path d="M2.875,11.1094L2.875,11.1094c-0.1328,0-0.2598-0.0527-0.3535-0.1465L0.4561,8.897c-0.1953-0.1953-0.1953-0.5117,0-0.707
		L2.522,6.1245C2.6157,6.0308,2.7427,5.978,2.8755,5.978l0,0c0.1328,0,0.2598,0.0527,0.3535,0.1465l2.0649,2.0659
		c0.1953,0.1953,0.1953,0.5117,0,0.707l-2.0654,2.0654C3.1348,11.0566,3.0078,11.1094,2.875,11.1094z M1.5166,8.5435L2.875,9.9023
		l1.3584-1.3584L2.8755,7.1851L1.5166,8.5435z"/>
	<path d="M15.9658,10.5015L15.9658,10.5015c-0.1328,0-0.2598-0.0527-0.3535-0.1465l-2.0654-2.0659
		c-0.1953-0.1953-0.1953-0.5117,0-0.707l2.0654-2.0659c0.1875-0.1875,0.5195-0.1875,0.707,0l2.0664,2.0659
		c0.0938,0.0938,0.1465,0.2207,0.1465,0.3535s-0.0527,0.2598-0.1465,0.3535l-2.0664,2.0659
		C16.2256,10.4487,16.0986,10.5015,15.9658,10.5015z M14.6074,7.9355l1.3584,1.3589l1.3594-1.3589l-1.3594-1.3589L14.6074,7.9355z"
		/>
	<path d="M15.3916,23.624c-0.1279,0-0.2559-0.0488-0.3535-0.1465l-2.0664-2.0654c-0.0938-0.0938-0.1465-0.2207-0.1465-0.3535
		s0.0527-0.2598,0.1465-0.3535l2.0654-2.0654c0.1953-0.1953,0.5117-0.1953,0.707,0l2.0664,2.0654
		c0.0938,0.0938,0.1465,0.2207,0.1465,0.3535s-0.0527,0.2598-0.1465,0.3535l-2.0654,2.0654
		C15.6475,23.5752,15.5195,23.624,15.3916,23.624z M14.0322,21.0586l1.3594,1.3584l1.3584-1.3584l-1.3594-1.3584L14.0322,21.0586z"
		/>
	<path d="M9.6284,2.5513c-0.1323,0-0.2598-0.0527-0.3535-0.1465L8.623,1.7529c-0.1953-0.1953-0.1953-0.5117,0-0.707L9.2744,0.394
		c0.1875-0.188,0.5195-0.188,0.707,0l0.6519,0.6519c0.1953,0.1953,0.1953,0.5117,0,0.707L9.9819,2.4048
		C9.8882,2.4985,9.7612,2.5513,9.6284,2.5513z"/>
	<path d="M22.6221,15.5449c-0.1279,0-0.2559-0.0488-0.3535-0.1465l-0.6523-0.6514c-0.0938-0.0938-0.1465-0.2207-0.1465-0.3535
		s0.0527-0.2598,0.1465-0.3535l0.6523-0.6523c0.0938-0.0938,0.2207-0.1465,0.3535-0.1465l0,0c0.1328,0,0.2598,0.0527,0.3535,0.1465
		L23.627,14.04c0.1953,0.1953,0.1953,0.5117,0,0.707l-0.6514,0.6514C22.8779,15.4961,22.75,15.5449,22.6221,15.5449z"/>
	<g>
		<g>
			<path d="M17.8311,10.0508c-0.127,0-0.2539-0.0483-0.3516-0.1445l-0.7109-0.7031c-0.1963-0.1943-0.1982-0.5107-0.0039-0.707
				c0.1934-0.1973,0.5098-0.1982,0.707-0.0039l0.7109,0.7031c0.1963,0.1943,0.1982,0.5107,0.0039,0.707
				C18.0889,10.0015,17.96,10.0508,17.8311,10.0508z"/>
			<path d="M20.1143,12.3086c-0.127,0-0.2539-0.0488-0.3516-0.1455l-0.7607-0.7524c-0.1963-0.1943-0.1982-0.5107-0.0039-0.707
				c0.1943-0.1973,0.5107-0.1973,0.707-0.0039l0.7607,0.7529c0.1963,0.1943,0.1982,0.5107,0.0039,0.7075
				C20.3721,12.2588,20.2432,12.3086,20.1143,12.3086z"/>
			<path d="M22.3477,14.5156c-0.127,0-0.2539-0.0479-0.3516-0.1445l-0.7109-0.7031c-0.1963-0.1943-0.1982-0.5107-0.0039-0.707
				s0.5107-0.1982,0.707-0.0039l0.7109,0.7031c0.1963,0.1943,0.1982,0.5107,0.0039,0.707
				C22.6055,14.4658,22.4766,14.5156,22.3477,14.5156z"/>
		</g>
	</g>
	<g>
		<g>
			<path d="M10.666,2.9272c-0.1284,0-0.2568-0.0493-0.3545-0.1475l-0.7051-0.709c-0.1948-0.1958-0.1938-0.5122,0.002-0.707
				c0.1953-0.1958,0.5122-0.1934,0.707,0.002l0.7051,0.709c0.1948,0.1958,0.1938,0.5122-0.002,0.707
				C10.9209,2.8789,10.7935,2.9272,10.666,2.9272z"/>
			<path d="M12.8584,5.1323c-0.1289,0-0.2568-0.0493-0.3545-0.1475l-0.7305-0.7354c-0.1948-0.1963-0.1938-0.5127,0.002-0.707
				c0.1973-0.1953,0.5137-0.1924,0.707,0.002l0.7305,0.7354c0.1953,0.1963,0.1934,0.5127-0.002,0.707
				C13.1133,5.084,12.9854,5.1323,12.8584,5.1323z"/>
			<path d="M15.0244,7.3115c-0.1289,0-0.2568-0.0493-0.3545-0.1475l-0.7051-0.7095c-0.1943-0.1958-0.1934-0.5127,0.002-0.707
				c0.1973-0.1963,0.5137-0.1934,0.707,0.002l0.7051,0.7095c0.1943,0.1958,0.1934,0.5127-0.002,0.707
				C15.2793,7.2632,15.1514,7.3115,15.0244,7.3115z"/>
		</g>
	</g>
</g>
<rect y="-0.0001" fill="none" width="24" height="24"/>
</svg>
