<?xml version="1.0" encoding="utf-8"?>
<!-- Generator: Adobe Illustrator 18.1.0, SVG Export Plug-In . SVG Version: 6.00 Build 0)  -->
<svg version="1.1" id="Layer_1" xmlns="http://www.w3.org/2000/svg" xmlns:xlink="http://www.w3.org/1999/xlink" x="0px" y="0px"
	 width="24px" height="24px" viewBox="0 0 24 24" enable-background="new 0 0 24 24" xml:space="preserve">
<g>
	<path d="M7.5244,7.9888h-7c-0.2764,0-0.5-0.2236-0.5-0.5v-7c0-0.2764,0.2236-0.5,0.5-0.5h7c0.2764,0,0.5,0.2236,0.5,0.5v7
		C8.0244,7.7651,7.8008,7.9888,7.5244,7.9888z M1.0244,6.9888h6v-6h-6V6.9888z"/>
	<path d="M14.5244,7.9888h-7c-0.2764,0-0.5-0.2236-0.5-0.5v-7c0-0.2764,0.2236-0.5,0.5-0.5h7c0.2764,0,0.5,0.2236,0.5,0.5v7
		C15.0244,7.7651,14.8008,7.9888,14.5244,7.9888z M8.0244,6.9888h6v-6h-6V6.9888z"/>
	<path d="M21.5244,7.9888h-7c-0.2764,0-0.5-0.2236-0.5-0.5v-7c0-0.2764,0.2236-0.5,0.5-0.5h7c0.2764,0,0.5,0.2236,0.5,0.5v7
		C22.0244,7.7651,21.8008,7.9888,21.5244,7.9888z M15.0244,6.9888h6v-6h-6V6.9888z"/>
	<path d="M7.5244,14.9893h-7c-0.2764,0-0.5-0.2236-0.5-0.5v-7c0-0.2764,0.2236-0.5,0.5-0.5h7c0.2764,0,0.5,0.2236,0.5,0.5v7
		C8.0244,14.7656,7.8008,14.9893,7.5244,14.9893z M1.0244,13.9893h6v-6h-6V13.9893z"/>
	<path d="M14.5244,14.9893h-7c-0.2764,0-0.5-0.2236-0.5-0.5v-7c0-0.2764,0.2236-0.5,0.5-0.5h7c0.2764,0,0.5,0.2236,0.5,0.5v7
		C15.0244,14.7656,14.8008,14.9893,14.5244,14.9893z M8.0244,13.9893h6v-6h-6V13.9893z"/>
	<path d="M7.5244,21.9902h-7c-0.2764,0-0.5-0.2236-0.5-0.5v-7c0-0.2764,0.2236-0.5,0.5-0.5h7c0.2764,0,0.5,0.2236,0.5,0.5v7
		C8.0244,21.7666,7.8008,21.9902,7.5244,21.9902z M1.0244,20.9902h6v-6h-6V20.9902z"/>
</g>
<rect x="0.0242" y="-0.0111" fill="none" width="24" height="24"/>
</svg>
