<?xml version="1.0" encoding="utf-8"?>
<!-- Generator: Adobe Illustrator 18.1.0, SVG Export Plug-In . SVG Version: 6.00 Build 0)  -->
<svg version="1.1" id="Layer_1" xmlns="http://www.w3.org/2000/svg" xmlns:xlink="http://www.w3.org/1999/xlink" x="0px" y="0px"
	 width="24px" height="24px" viewBox="0 0 24 24" enable-background="new 0 0 24 24" xml:space="preserve">
<g>
	<g>
		<path d="M21.501,24H2.5005c-0.2764,0-0.5-0.2236-0.5-0.5V9.7148c0-0.2764,0.2236-0.5,0.5-0.5s0.5,0.2236,0.5,0.5V23H21.001V9.7148
			c0-0.2764,0.2236-0.5,0.5-0.5s0.5,0.2236,0.5,0.5V23.5C22.001,23.7764,21.7773,24,21.501,24z"/>
		<path d="M20.501,9.2876c-0.2764,0-0.5-0.2236-0.5-0.5V3h-4v1.5381c0,0.2764-0.2236,0.5-0.5,0.5s-0.5-0.2236-0.5-0.5V2.5
			c0-0.2764,0.2236-0.5,0.5-0.5h5c0.2764,0,0.5,0.2236,0.5,0.5v6.2876C21.001,9.064,20.7773,9.2876,20.501,9.2876z"/>
		<path d="M0.5508,11.8652c-0.1406,0-0.2803-0.0591-0.3794-0.1743c-0.1797-0.2095-0.1558-0.5249,0.0537-0.7051l11.4502-9.833
			c0.1875-0.1611,0.4644-0.1611,0.6519,0l11.4492,9.833c0.209,0.1802,0.2334,0.4956,0.0527,0.7051
			c-0.1797,0.2104-0.4941,0.2339-0.7051,0.0537L12.001,2.1914L0.8765,11.7446C0.7822,11.8257,0.6665,11.8652,0.5508,11.8652z"/>
	</g>
	<path d="M11.4019,21.1924c-0.1831,0-0.3643-0.0996-0.457-0.2617c-0.0728-0.1279-0.083-0.2744-0.0405-0.4043
		c-0.0107-0.123-0.0444-0.3955-0.145-0.9697c-0.2598-1.4795-0.1299-2.8008-0.1245-2.8564c0.0073-0.0703,0.0293-0.1387,0.0649-0.2002
		c0.0415-0.0713,1.0356-1.7617,2.6089-2.1201c1.2783-0.293,2.54-1.0908,2.5527-1.0986c0.2314-0.1465,0.541-0.0791,0.6904,0.1533
		c0.1484,0.2324,0.0801,0.542-0.1533,0.6904c-0.0576,0.0361-1.4219,0.8984-2.8672,1.2295c-0.9668,0.2207-1.707,1.25-1.9102,1.5586
		c-0.0234,0.334-0.0708,1.3662,0.1235,2.4707c0.2114,1.207,0.2827,1.6133-0.1797,1.7803
		C11.5117,21.1836,11.4565,21.1924,11.4019,21.1924z"/>
	<path d="M8.873,18.1123L8.873,18.1123c-2.998,0-3.5825-4.4932-3.606-4.6846C5.25,13.29,5.2915,13.1514,5.3809,13.0449
		c0.0898-0.1064,0.2197-0.1699,0.3584-0.1768c0,0,0.1338-0.0068,0.3608-0.0068c1.5181,0,5.1001,0.2607,5.5723,2.6797
		c0.0122,0.0625,0.0122,0.127,0,0.1904c-0.1045,0.5449-0.0469,0.9375-0.0464,0.9414c0.0293,0.1885-0.0518,0.3809-0.2095,0.4893
		C10.5049,17.793,9.6489,18.1123,8.873,18.1123z M6.3608,13.8643c0.2295,1.0586,0.8989,3.248,2.5122,3.248
		c0.5073,0,1.0908-0.207,1.7378-0.6152c-0.0063-0.209,0.0024-0.5029,0.0605-0.8496C10.271,14.1064,7.4082,13.8916,6.3608,13.8643z"
		/>
	<path d="M14.3701,18.502L14.3701,18.502c-1.0361,0-2.2197-0.4502-3.52-1.3379c-0.1123-0.0771-0.189-0.1973-0.2109-0.3311
		c-0.0093-0.0566-0.0874-0.5723,0.0518-1.291c0.3037-1.5732,1.6851-4.2588,7.52-4.5645c0.1396-0.0068,0.2744,0.0444,0.375,0.1411
		c0.0996,0.0972,0.1543,0.2319,0.1514,0.3711C18.7295,11.7764,18.5088,18.502,14.3701,18.502z M11.6108,16.4697
		c1.0493,0.6846,1.9771,1.0322,2.7593,1.0322c2.5967,0,3.1973-3.9971,3.3311-5.4873c-4.6816,0.3945-5.7896,2.4785-6.0288,3.7168
		C11.6128,16.041,11.6055,16.3018,11.6108,16.4697z"/>
	<path d="M11.1328,17.251c-0.1646,0-0.3257-0.0811-0.4214-0.2295c-0.3755-0.5859-1.8071-1.0527-2.6211-1.209
		c-0.271-0.0527-0.4487-0.3145-0.3965-0.5859c0.0527-0.2715,0.312-0.4434,0.5859-0.3965c0.2583,0.0498,2.5474,0.5195,3.2734,1.6504
		c0.1489,0.2324,0.0815,0.542-0.1509,0.6914C11.3188,17.2256,11.2251,17.251,11.1328,17.251z"/>
</g>
<rect x="0.0005" fill="none" width="24" height="24"/>
</svg>
