<?xml version="1.0" encoding="utf-8"?>
<!-- Generator: Adobe Illustrator 18.1.0, SVG Export Plug-In . SVG Version: 6.00 Build 0)  -->
<svg version="1.1" id="Layer_1" xmlns="http://www.w3.org/2000/svg" xmlns:xlink="http://www.w3.org/1999/xlink" x="0px" y="0px"
	 width="24px" height="24px" viewBox="0 0 24 24" enable-background="new 0 0 24 24" xml:space="preserve">
<g>
	<g>
		<g>
			<path d="M15.5381,8.8257c-0.2764,0-0.5-0.2236-0.5-0.5v-1c0-0.2764,0.2236-0.5,0.5-0.5s0.5,0.2236,0.5,0.5v1
				C16.0381,8.6021,15.8145,8.8257,15.5381,8.8257z"/>
			<path d="M15.5381,5.4951c-0.2764,0-0.5-0.2236-0.5-0.5v-1.165c0-0.2764,0.2236-0.5,0.5-0.5s0.5,0.2236,0.5,0.5v1.165
				C16.0381,5.2715,15.8145,5.4951,15.5381,5.4951z"/>
			<path d="M15.5381,2c-0.2764,0-0.5-0.2236-0.5-0.5V1h-0.5c-0.2764,0-0.5-0.2236-0.5-0.5s0.2236-0.5,0.5-0.5h1
				c0.2764,0,0.5,0.2236,0.5,0.5v1C16.0381,1.7764,15.8145,2,15.5381,2z"/>
			<path d="M11.2886,1h-1.625c-0.2764,0-0.5-0.2236-0.5-0.5S9.3872,0,9.6636,0h1.625c0.2764,0,0.5,0.2236,0.5,0.5
				S11.5649,1,11.2886,1z M6.4136,1h-1.625c-0.2764,0-0.5-0.2236-0.5-0.5S4.5122,0,4.7886,0h1.625c0.2764,0,0.5,0.2236,0.5,0.5
				S6.6899,1,6.4136,1z"/>
			<path d="M0.5386,2c-0.2764,0-0.5-0.2236-0.5-0.5v-1c0-0.2764,0.2236-0.5,0.5-0.5h1c0.2764,0,0.5,0.2236,0.5,0.5
				S1.8149,1,1.5386,1h-0.5v0.5C1.0386,1.7764,0.8149,2,0.5386,2z"/>
			<path d="M0.5386,11.75c-0.2764,0-0.5-0.2236-0.5-0.5V9.625c0-0.2764,0.2236-0.5,0.5-0.5s0.5,0.2236,0.5,0.5v1.625
				C1.0386,11.5264,0.8149,11.75,0.5386,11.75z M0.5386,6.875c-0.2764,0-0.5-0.2236-0.5-0.5V4.75c0-0.2764,0.2236-0.5,0.5-0.5
				s0.5,0.2236,0.5,0.5v1.625C1.0386,6.6514,0.8149,6.875,0.5386,6.875z"/>
			<path d="M1.5386,16h-1c-0.2764,0-0.5-0.2236-0.5-0.5v-1c0-0.2764,0.2236-0.5,0.5-0.5s0.5,0.2236,0.5,0.5V15h0.5
				c0.2764,0,0.5,0.2236,0.5,0.5S1.8149,16,1.5386,16z"/>
			<path d="M5.0337,16h-1.165c-0.2764,0-0.5-0.2236-0.5-0.5s0.2236-0.5,0.5-0.5h1.165c0.2764,0,0.5,0.2236,0.5,0.5
				S5.3101,16,5.0337,16z"/>
			<path d="M8.3638,16h-1c-0.2764,0-0.5-0.2236-0.5-0.5s0.2236-0.5,0.5-0.5h1c0.2764,0,0.5,0.2236,0.5,0.5S8.6401,16,8.3638,16z"/>
		</g>
	</g>
	<g>
		<g>
			<path d="M8.3638,17c-0.2764,0-0.5-0.2236-0.5-0.5v-1c0-0.2764,0.2236-0.5,0.5-0.5s0.5,0.2236,0.5,0.5v1
				C8.8638,16.7764,8.6401,17,8.3638,17z"/>
			<path d="M8.3638,20.6357c-0.2764,0-0.5-0.2236-0.5-0.5v-1.2119c0-0.2764,0.2236-0.5,0.5-0.5s0.5,0.2236,0.5,0.5v1.2119
				C8.8638,20.4121,8.6401,20.6357,8.3638,20.6357z"/>
			<path d="M9.3638,24.0596h-1c-0.2764,0-0.5-0.2236-0.5-0.5v-1c0-0.2764,0.2236-0.5,0.5-0.5s0.5,0.2236,0.5,0.5v0.5h0.5
				c0.2764,0,0.5,0.2236,0.5,0.5S9.6401,24.0596,9.3638,24.0596z"/>
			<path d="M19.29,24.0596h-1.6543c-0.2764,0-0.5-0.2236-0.5-0.5s0.2236-0.5,0.5-0.5H19.29c0.2764,0,0.5,0.2236,0.5,0.5
				S19.5664,24.0596,19.29,24.0596z M14.3271,24.0596h-1.6543c-0.2764,0-0.5-0.2236-0.5-0.5s0.2236-0.5,0.5-0.5h1.6543
				c0.2764,0,0.5,0.2236,0.5,0.5S14.6035,24.0596,14.3271,24.0596z"/>
			<path d="M23.5977,24.0596h-1c-0.2764,0-0.5-0.2236-0.5-0.5s0.2236-0.5,0.5-0.5h0.5v-0.5c0-0.2764,0.2236-0.5,0.5-0.5
				s0.5,0.2236,0.5,0.5v1C24.0977,23.8359,23.874,24.0596,23.5977,24.0596z"/>
			<path d="M23.5977,19.751c-0.2764,0-0.5-0.2236-0.5-0.5v-1.6543c0-0.2764,0.2236-0.5,0.5-0.5s0.5,0.2236,0.5,0.5v1.6543
				C24.0977,19.5273,23.874,19.751,23.5977,19.751z M23.5977,14.7881c-0.2764,0-0.5-0.2236-0.5-0.5v-1.6543
				c0-0.2764,0.2236-0.5,0.5-0.5s0.5,0.2236,0.5,0.5v1.6543C24.0977,14.5645,23.874,14.7881,23.5977,14.7881z"/>
			<path d="M23.5977,9.8257c-0.2764,0-0.5-0.2236-0.5-0.5v-0.5h-0.5c-0.2764,0-0.5-0.2236-0.5-0.5s0.2236-0.5,0.5-0.5h1
				c0.2764,0,0.5,0.2236,0.5,0.5v1C24.0977,9.6021,23.874,9.8257,23.5977,9.8257z"/>
			<path d="M20.1738,8.8257h-1.2119c-0.2764,0-0.5-0.2236-0.5-0.5s0.2236-0.5,0.5-0.5h1.2119c0.2764,0,0.5,0.2236,0.5,0.5
				S20.4502,8.8257,20.1738,8.8257z"/>
			<path d="M16.5381,8.8257h-1c-0.2764,0-0.5-0.2236-0.5-0.5s0.2236-0.5,0.5-0.5h1c0.2764,0,0.5,0.2236,0.5,0.5
				S16.8145,8.8257,16.5381,8.8257z"/>
		</g>
	</g>
	<path d="M15.5381,16H8.3638c-0.2764,0-0.5-0.2236-0.5-0.5V8.3257c0-0.2764,0.2236-0.5,0.5-0.5h7.1743c0.2764,0,0.5,0.2236,0.5,0.5
		V15.5C16.0381,15.7764,15.8145,16,15.5381,16z M8.8638,15h6.1743V8.8257H8.8638V15z"/>
</g>
<rect x="0.0293" y="0.0001" fill="none" width="24" height="24"/>
</svg>
