<?xml version="1.0" encoding="utf-8"?>
<!-- Generator: Adobe Illustrator 18.1.0, SVG Export Plug-In . SVG Version: 6.00 Build 0)  -->
<svg version="1.1" id="Layer_1" xmlns="http://www.w3.org/2000/svg" xmlns:xlink="http://www.w3.org/1999/xlink" x="0px" y="0px"
	 width="24px" height="24px" viewBox="0 0 24 24" enable-background="new 0 0 24 24" xml:space="preserve">
<g>
	<path d="M0.9741,15.0088c-0.0752,0-0.1519-0.0166-0.2236-0.0527c-0.2471-0.124-0.3467-0.4248-0.2227-0.6719l4.5195-9.0112
		C5.1318,5.104,5.3052,4.9971,5.4941,4.9971h0.0005c0.1895,0,0.3623,0.1074,0.4468,0.2769l4.4917,9.0122
		c0.1235,0.2471,0.0229,0.5469-0.2241,0.6699c-0.2476,0.126-0.5474,0.0225-0.6704-0.2246L5.4927,6.6152l-4.0713,8.1182
		C1.334,14.9082,1.1572,15.0088,0.9741,15.0088z"/>
	<path d="M5.48,18.9844c-2.7598,0-5.0054-2.0078-5.0054-4.4766c0-0.2764,0.2236-0.5,0.5-0.5h9.0112c0.2764,0,0.5,0.2236,0.5,0.5
		C10.4858,16.9766,8.2402,18.9844,5.48,18.9844z M1.5161,15.0078c0.2798,1.6807,1.9507,2.9766,3.9639,2.9766
		s3.6846-1.2959,3.9644-2.9766H1.5161z"/>
	<path d="M13.9756,15.0088c-0.0762,0-0.1523-0.0166-0.2246-0.0527c-0.2461-0.124-0.3457-0.4248-0.2227-0.6719l4.5195-9.0112
		c0.085-0.1689,0.2578-0.2759,0.4473-0.2759c0,0,0,0,0.001,0c0.1895,0,0.3623,0.1074,0.4463,0.2769l4.4922,9.0122
		c0.123,0.2471,0.0225,0.5469-0.2246,0.6699c-0.2451,0.124-0.5469,0.0234-0.6699-0.2246l-4.0459-8.1162l-4.0713,8.1182
		C14.335,14.9082,14.1582,15.0088,13.9756,15.0088z"/>
	<path d="M18.4814,18.9844c-2.7598,0-5.0059-2.0078-5.0059-4.4766c0-0.2764,0.2236-0.5,0.5-0.5h9.0117c0.2764,0,0.5,0.2236,0.5,0.5
		C23.4873,16.9766,21.2412,18.9844,18.4814,18.9844z M14.5166,15.0078c0.2803,1.6807,1.9512,2.9766,3.9648,2.9766
		s3.6846-1.2959,3.9648-2.9766H14.5166z"/>
	<path d="M18.4951,5.9971H5.4941c-0.2764,0-0.5-0.2236-0.5-0.5s0.2236-0.5,0.5-0.5h13.001c0.2764,0,0.5,0.2236,0.5,0.5
		S18.7715,5.9971,18.4951,5.9971z"/>
	<path d="M11.9917,8.8472c-0.2764,0-0.5-0.2236-0.5-0.5v-4.603c0-0.2764,0.2236-0.5,0.5-0.5c0.2759,0,0.5005,0.2236,0.5005,0.5
		v4.603C12.4922,8.6235,12.2676,8.8472,11.9917,8.8472z"/>
</g>
<rect x="-0.01" y="-0.0011" fill="none" width="24" height="24"/>
</svg>
