<?xml version="1.0" encoding="utf-8"?>
<!-- Generator: Adobe Illustrator 18.1.0, SVG Export Plug-In . SVG Version: 6.00 Build 0)  -->
<svg version="1.1" id="Layer_1" xmlns="http://www.w3.org/2000/svg" xmlns:xlink="http://www.w3.org/1999/xlink" x="0px" y="0px"
	 width="24px" height="24px" viewBox="0 0 24 24" enable-background="new 0 0 24 24" xml:space="preserve">
<g>
	<path d="M17.5811,13.6768c-0.4111,0-0.8242-0.041-1.2285-0.1221c-0.2705-0.0547-0.4463-0.3174-0.3916-0.5889
		s0.3242-0.4463,0.5889-0.3916c0.3389,0.0684,0.6865,0.1025,1.0312,0.1025c2.874,0,5.2129-2.3389,5.2129-5.2134
		s-2.3389-5.2129-5.2129-5.2129c-2.7178,0-5.002,2.1206-5.1992,4.8276c-0.0205,0.2754-0.2549,0.4771-0.5356,0.4624
		c-0.2754-0.02-0.4819-0.2593-0.4619-0.5347c0.2354-3.2275,2.9575-5.7554,6.1968-5.7554c3.4258,0,6.2129,2.7871,6.2129,6.2129
		C23.7939,10.8896,21.0068,13.6768,17.5811,13.6768z"/>
	<path d="M8.6245,22.752c-4.6484,0-8.4302-3.7822-8.4302-8.4307s3.7817-8.4307,8.4302-8.4307c4.6489,0,8.4312,3.7822,8.4312,8.4307
		S13.2734,22.752,8.6245,22.752z M8.6245,6.8906c-4.0972,0-7.4302,3.3335-7.4302,7.4307c0,4.0977,3.333,7.4307,7.4302,7.4307
		s7.4312-3.333,7.4312-7.4307C16.0557,10.2241,12.7217,6.8906,8.6245,6.8906z"/>
	<path d="M7.2588,18.1221c-0.1226,0-0.2451-0.0449-0.3418-0.1348c-0.2017-0.1885-0.2119-0.5049-0.0234-0.707l5.7188-6.1123
		c0.1885-0.1997,0.5049-0.2124,0.707-0.0234c0.2012,0.189,0.2119,0.5054,0.0234,0.707L7.624,17.9639
		C7.5254,18.0693,7.3921,18.1221,7.2588,18.1221z"/>
	<path d="M7.2588,18.1221c-0.1333,0-0.2666-0.0527-0.3652-0.1582L4.2378,15.125c-0.1885-0.2021-0.1782-0.5186,0.0234-0.707
		c0.2021-0.1875,0.5176-0.1787,0.707,0.0234l2.6558,2.8389c0.1885,0.2021,0.1782,0.5186-0.0234,0.707
		C7.5039,18.0771,7.3813,18.1221,7.2588,18.1221z"/>
	<path d="M19.209,9.5918c-0.1279,0-0.2559-0.0488-0.3535-0.1465l-3.2568-3.2568c-0.1953-0.1953-0.1953-0.5117,0-0.707
		s0.5117-0.1953,0.707,0l3.2568,3.2568c0.1953,0.1953,0.1953,0.5117,0,0.707C19.4648,9.543,19.3369,9.5918,19.209,9.5918z"/>
	<path d="M16.4697,9.0742c-0.1279,0-0.2559-0.0488-0.3535-0.1465c-0.1953-0.1953-0.1953-0.5117,0-0.707l2.7393-2.7393
		c0.1953-0.1953,0.5117-0.1953,0.707,0s0.1953,0.5117,0,0.707l-2.7393,2.7393C16.7256,9.0254,16.5977,9.0742,16.4697,9.0742z"/>
</g>
<rect x="-0.006" y="0.001" fill="none" width="24" height="24"/>
</svg>
