<?xml version="1.0" encoding="utf-8"?>
<!-- Generator: Adobe Illustrator 18.1.0, SVG Export Plug-In . SVG Version: 6.00 Build 0)  -->
<svg version="1.1" id="Layer_1" xmlns="http://www.w3.org/2000/svg" xmlns:xlink="http://www.w3.org/1999/xlink" x="0px" y="0px"
	 width="24px" height="24px" viewBox="0 0 24 24" enable-background="new 0 0 24 24" xml:space="preserve">
<g>
	<path d="M15.7969,24.0195H8.2031c-0.584,0-1.0854-0.4795-1.1411-1.0928L5.9502,7.6055c-0.02-0.2754,0.187-0.5146,0.4624-0.5347
		c0.269-0.0195,0.5151,0.187,0.5347,0.4624l1.1113,15.3125c0.0088,0.0938,0.085,0.1738,0.1445,0.1738h7.5938
		c0.0596,0,0.1357-0.0801,0.1455-0.1836l1.1094-15.292c0.0205-0.2759,0.2607-0.4849,0.5352-0.4624
		c0.2754,0.02,0.4824,0.2593,0.4629,0.5347L16.9395,22.918C16.8818,23.54,16.3809,24.0195,15.7969,24.0195z"/>
	<path d="M18.5,8.0195h-13c-0.2764,0-0.5-0.2236-0.5-0.5v-2c0-0.2764,0.2236-0.5,0.5-0.5h13c0.2764,0,0.5,0.2236,0.5,0.5v2
		C19,7.7959,18.7764,8.0195,18.5,8.0195z M6,7.0195h12v-1H6V7.0195z"/>
	<path d="M8.8218,11.9741c-0.1279,0-0.2559-0.0488-0.3535-0.1465c-0.1953-0.1953-0.1953-0.5117,0-0.707l1.7285-1.7285
		c0.1953-0.1953,0.5117-0.1953,0.707,0s0.1953,0.5117,0,0.707l-1.7285,1.7285C9.0776,11.9253,8.9497,11.9741,8.8218,11.9741z"/>
	<path d="M9.2617,14.1729c-0.1279,0-0.2559-0.0488-0.3535-0.1465c-0.1953-0.1953-0.1953-0.5117,0-0.707l2.6235-2.623
		c0.1953-0.1953,0.5132-0.1953,0.7075,0c0.1953,0.1953,0.1943,0.5117,0,0.707l-2.624,2.623
		C9.5176,14.124,9.3896,14.1729,9.2617,14.1729z"/>
	<path d="M12.5,6.0195c-0.2764,0-0.5-0.2236-0.5-0.5V0.6719c0-0.2764,0.2236-0.5,0.5-0.5s0.5,0.2236,0.5,0.5v4.8477
		C13,5.7959,12.7764,6.0195,12.5,6.0195z"/>
</g>
<rect y="0.0197" fill="none" width="24" height="24"/>
</svg>
