<?xml version="1.0" encoding="utf-8"?>
<!-- Generator: Adobe Illustrator 18.1.0, SVG Export Plug-In . SVG Version: 6.00 Build 0)  -->
<svg version="1.1" id="Layer_1" xmlns="http://www.w3.org/2000/svg" xmlns:xlink="http://www.w3.org/1999/xlink" x="0px" y="0px"
	 width="24px" height="24px" viewBox="0 0 24 24" enable-background="new 0 0 24 24" xml:space="preserve">
<g>
	<path d="M12,14.0781c-1.1455,0-2.0776-0.9326-2.0776-2.0781S10.8545,9.9224,12,9.9224S14.0781,10.8545,14.0781,12
		S13.1455,14.0781,12,14.0781z M12,10.9224c-0.5942,0-1.0776,0.4834-1.0776,1.0776c0,0.5947,0.4834,1.0781,1.0776,1.0781
		c0.5947,0,1.0781-0.4834,1.0781-1.0781C13.0781,11.4058,12.5947,10.9224,12,10.9224z"/>
	<path d="M5.2729,19.3076c-0.1226,0-0.2451-0.0449-0.3418-0.1348C2.9189,17.2881,1.8105,14.7412,1.8105,12
		c0-2.7407,1.1079-5.2881,3.1206-7.1729c0.2021-0.1885,0.5186-0.1777,0.7065,0.0229c0.189,0.2017,0.1787,0.5181-0.0229,0.7065
		C3.8062,7.2505,2.8105,9.5386,2.8105,12c0,2.4619,0.9961,4.75,2.8042,6.4424c0.2017,0.1895,0.2119,0.5059,0.0229,0.707
		C5.5396,19.2549,5.4062,19.3076,5.2729,19.3076z"/>
	<path d="M8.0942,16.0078c-0.1172,0-0.2349-0.041-0.3296-0.124C6.6426,14.9004,5.999,13.4844,5.999,12
		c0-1.4849,0.6436-2.9004,1.7656-3.8838c0.2065-0.1812,0.5234-0.1621,0.7056,0.0464C8.6523,8.3701,8.6313,8.686,8.4238,8.8682
		C7.5181,9.6621,6.999,10.8032,6.999,12c0,1.1963,0.519,2.3379,1.4248,3.1318c0.2075,0.1816,0.2285,0.498,0.0464,0.7051
		C8.3716,15.9502,8.2329,16.0078,8.0942,16.0078z"/>
	<path d="M18.7266,19.3076c-0.1338,0-0.2666-0.0527-0.3652-0.1582c-0.1885-0.2021-0.1777-0.5186,0.0234-0.707
		c1.8086-1.6924,2.8047-3.9795,2.8047-6.4404c0-2.4624-0.9961-4.751-2.8047-6.4453c-0.2012-0.1885-0.2119-0.5049-0.0234-0.7065
		c0.1885-0.2007,0.5049-0.2119,0.707-0.0229c2.0127,1.8848,3.1211,4.4331,3.1211,7.1748c0,2.7402-1.1084,5.2871-3.1211,7.1709
		C18.9717,19.2627,18.8486,19.3076,18.7266,19.3076z"/>
	<path d="M15.9053,16.0078c-0.1387,0-0.2773-0.0576-0.376-0.1709c-0.1816-0.207-0.1611-0.5234,0.0469-0.7051
		C16.4814,14.3379,17.001,13.1963,17.001,12s-0.5195-2.3379-1.4248-3.1318c-0.208-0.1821-0.2285-0.498-0.0469-0.7056
		c0.1816-0.2085,0.498-0.2275,0.7051-0.0464C17.3574,9.1001,18.001,10.5156,18.001,12s-0.6436,2.9004-1.7666,3.8838
		C16.1396,15.9668,16.0225,16.0078,15.9053,16.0078z"/>
</g>
<rect fill="none" width="24" height="24"/>
</svg>
