<?xml version="1.0" encoding="utf-8"?>
<!-- Generator: Adobe Illustrator 18.1.0, SVG Export Plug-In . SVG Version: 6.00 Build 0)  -->
<svg version="1.1" id="Layer_1" xmlns="http://www.w3.org/2000/svg" xmlns:xlink="http://www.w3.org/1999/xlink" x="0px" y="0px"
	 width="24px" height="24px" viewBox="0 0 24 24" enable-background="new 0 0 24 24" xml:space="preserve">
<g>
	<path d="M16.5508,23.9014c-0.2764,0-0.5-0.2236-0.5-0.5v-5.3936h-2.377c-0.2764,0-0.5-0.2236-0.5-0.5s0.2236-0.5,0.5-0.5h2.877
		c0.2764,0,0.5,0.2236,0.5,0.5v5.8936C17.0508,23.6777,16.8271,23.9014,16.5508,23.9014z"/>
	<path d="M18.5771,23.9014c-0.2764,0-0.5-0.2236-0.5-0.5v-5.8936c0-0.2764,0.2236-0.5,0.5-0.5h2.1387l-1.9609-4.915
		c-0.0352-0.0879-0.0439-0.1846-0.0264-0.2778l0.4395-2.3291c0.0635-2.0869-0.0049-2.8765-0.0547-3.167l-1.1816,1.2764
		c-0.1895,0.2041-0.5449,0.2041-0.7344,0l-1.2002-1.2969c-0.0498,0.0088-0.0986,0.02-0.1484,0.0352
		c-0.2695,0.0786-0.5439-0.0728-0.6221-0.3374s0.0723-0.543,0.3369-0.6216c0.3447-0.1035,0.7637-0.1919,1.0029,0.0669l0.998,1.0781
		l0.998-1.0781c0.2393-0.2563,0.6533-0.1699,1.002-0.0669c0.0283,0.0083,0.0547,0.019,0.0811,0.0317
		c0.375,0.1465,0.6396,0.335,0.5137,4.189l-0.4219,2.2617l2.1816,5.4653c0.0605,0.1543,0.042,0.3291-0.0508,0.4658
		c-0.0928,0.1377-0.248,0.2197-0.4141,0.2197h-2.377v5.3936C19.0771,23.6777,18.8535,23.9014,18.5771,23.9014z"/>
	<path d="M7.5024,23.9814L7.5024,23.9814c-0.2764,0-0.5-0.2236-0.5-0.5l0.0005-7.9463c0-0.2764,0.2241-0.5,0.5-0.5l0,0
		c0.2764,0,0.5,0.2236,0.5,0.5l-0.0005,7.9463C8.0024,23.7578,7.7783,23.9814,7.5024,23.9814z"/>
	<path d="M7.5029,4.5566c-1.165,0-1.938-1.4463-1.938-2.4028c0-1.0684,0.8691-1.9375,1.9375-1.9375
		c1.0688,0,1.938,0.8691,1.938,1.9375C9.4404,3.1104,8.6675,4.5566,7.5029,4.5566z M7.5024,1.2163
		c-0.5171,0-0.9375,0.4204-0.9375,0.9375c0,0.5796,0.4854,1.4028,0.938,1.4028s0.9375-0.8232,0.9375-1.4028
		C8.4404,1.6367,8.0195,1.2163,7.5024,1.2163z"/>
	<path d="M17.5645,4.7744c-1.1211,0-1.8652-1.4463-1.8652-2.4028c0-1.0684,0.8369-1.9375,1.8652-1.9375s1.8652,0.8691,1.8652,1.9375
		C19.4297,3.3281,18.6855,4.7744,17.5645,4.7744z M17.5645,1.4341c-0.4775,0-0.8652,0.4204-0.8652,0.9375
		c0,0.6162,0.4854,1.4028,0.8652,1.4028s0.8652-0.7866,0.8652-1.4028C18.4297,1.8545,18.042,1.4341,17.5645,1.4341z"/>
	<path d="M9.3633,23.9814c-0.0098,0-0.0195,0-0.0293-0.001c-0.2759-0.0156-0.4863-0.252-0.4702-0.5273L9.27,16.4062
		c0.0156-0.2764,0.249-0.498,0.5278-0.4707c0.2759,0.0156,0.4863,0.252,0.4702,0.5273l-0.4062,7.0469
		C9.8467,23.7764,9.626,23.9814,9.3633,23.9814z"/>
	<path d="M5.6416,23.9814c-0.2632,0-0.4834-0.2051-0.4985-0.4717l-0.5449-9.4531c-0.1714,0.0127-0.354-0.0166-0.5103-0.1514
		c-0.104-0.0908-0.1875-0.2676-0.1924-0.4053C3.6138,5.9688,4.2598,5.4253,4.4722,5.2466C4.5273,5.1997,4.5918,5.166,4.6616,5.1465
		c0.0918-0.0249,0.2109-0.0337,0.748-0.0562l0.2856-0.0127C6.1504,5.0562,6.5649,5.2988,6.7871,5.729
		c0.2246,0.4355,1.2061,0.4355,1.4312,0.0005c0.2222-0.4302,0.6426-0.6753,1.0918-0.6519l0.2817,0.0127
		c0.5474,0.0225,0.6602,0.0312,0.7549,0.0576c0.0664,0.0186,0.1289,0.0513,0.1826,0.0952c0.1538,0.127,0.3291,0.3726,0.4604,1.2314
		c0.042,0.2729-0.1455,0.5283-0.4185,0.5698c-0.2778,0.0381-0.5283-0.146-0.5698-0.4185C9.9619,6.3691,9.9229,6.2046,9.8931,6.103
		C9.7915,6.0991,9.6646,6.0942,9.5503,6.0894L9.248,6.0757C9.1982,6.0815,9.1348,6.1338,9.1069,6.188
		c-0.2861,0.5547-0.9009,0.8994-1.604,0.8994c-0.7036,0-1.3184-0.3447-1.6045-0.8999C5.8706,6.1338,5.8013,6.0747,5.7578,6.0757
		L5.4507,6.0898C5.3311,6.0947,5.1978,6.0996,5.0879,6.105c-0.0938,0.3447-0.3823,1.7979-0.2085,6.9272
		c0.168-0.0059,0.3457,0.0215,0.4985,0.1543c0.104,0.0898,0.1899,0.2705,0.1953,0.4082l0.5679,9.8584
		c0.0161,0.2754-0.1948,0.5117-0.4702,0.5273C5.6611,23.9814,5.6514,23.9814,5.6416,23.9814z"/>
	<path d="M13.4746,15.9902c-0.0928,0-0.1855-0.0254-0.2686-0.0781c-0.1953-0.125-0.2793-0.3672-0.2041-0.5859l0.8379-2.418
		l-0.041-1.3862l-0.9844-0.8394c-0.2051-0.1748-0.2354-0.4805-0.0674-0.6914l0.8662-1.0889
		c0.0127-0.0161,0.0781-0.0825,0.0928-0.0967c0.9893-0.9595,2.6768-0.9321,3.6338,0.0532c0.9854,1.0161,0.9609,2.6445-0.0547,3.6304
		l-3.4619,3.3594C13.7266,15.9424,13.6016,15.9902,13.4746,15.9902z M13.832,10.2363l0.7842,0.6685
		c0.1074,0.0913,0.1709,0.2241,0.1758,0.3652l0.0508,1.7007c0.002,0.0605-0.0078,0.1211-0.0273,0.1787l-0.1797,0.5176l1.9521-1.895
		c0.6201-0.6021,0.6357-1.5967,0.0342-2.2168c-0.583-0.6016-1.6152-0.6167-2.2178-0.0337L13.832,10.2363z"/>
	<path d="M11.9868,15.9814c-0.127,0-0.252-0.0479-0.3467-0.1396l-3.4746-3.3457c-0.4941-0.4756-0.7734-1.1152-0.7861-1.8013
		c-0.0132-0.6855,0.2417-1.3354,0.7173-1.8291c0.9517-0.9878,2.6431-1.0195,3.6304-0.0688c0.1572,0.1519,0.25,0.4375,0.1528,0.6328
		l-0.5938,1.1924l1.0889,1.3433c0.0723,0.0894,0.1113,0.2007,0.1113,0.3149v3.2012c0,0.2002-0.1191,0.3818-0.3037,0.46
		C12.1191,15.9688,12.0527,15.9814,11.9868,15.9814z M9.9468,9.0791c-0.4302,0-0.8315,0.1704-1.1294,0.48
		c-0.2905,0.3018-0.4463,0.6982-0.4385,1.1167c0.0078,0.4189,0.1782,0.8096,0.48,1.0996l2.6279,2.5303V12.457l-1.1797-1.4551
		c-0.1235-0.1523-0.1465-0.3623-0.0596-0.5376l0.5586-1.1221C10.5366,9.1641,10.2476,9.0791,9.9468,9.0791z"/>
</g>
<rect x="0.0142" y="0.0344" fill="none" width="24" height="24"/>
</svg>
