<?xml version="1.0" encoding="utf-8"?>
<!-- Generator: Adobe Illustrator 18.1.0, SVG Export Plug-In . SVG Version: 6.00 Build 0)  -->
<svg version="1.1" id="Layer_1" xmlns="http://www.w3.org/2000/svg" xmlns:xlink="http://www.w3.org/1999/xlink" x="0px" y="0px"
	 width="24px" height="24px" viewBox="0 0 24 24" enable-background="new 0 0 24 24" xml:space="preserve">
<g>
	<path d="M18.7637,19.7383c-0.1279,0-0.2559-0.0488-0.3535-0.1465c-0.1953-0.1953-0.1953-0.5117,0-0.707l2.3838-2.3838
		l-2.3838-2.3828c-0.1953-0.1953-0.1953-0.5117,0-0.707s0.5117-0.1953,0.707,0l2.7373,2.7363
		c0.0938,0.0938,0.1465,0.2207,0.1465,0.3535s-0.0527,0.2598-0.1465,0.3535l-2.7373,2.7373
		C19.0195,19.6895,18.8916,19.7383,18.7637,19.7383z"/>
	<path d="M21.501,17.001h-19c-0.2764,0-0.5-0.2236-0.5-0.5s0.2236-0.5,0.5-0.5h19c0.2764,0,0.5,0.2236,0.5,0.5
		S21.7773,17.001,21.501,17.001z"/>
	<path d="M5.2378,10.7368c-0.1279,0-0.2559-0.0488-0.3535-0.1465L2.1475,7.8535c-0.1953-0.1953-0.1953-0.5117,0-0.707l2.7368-2.7368
		c0.1953-0.1953,0.5117-0.1953,0.707,0s0.1953,0.5117,0,0.707L3.208,7.5l2.3833,2.3833c0.1953,0.1953,0.1953,0.5117,0,0.707
		C5.4937,10.688,5.3657,10.7368,5.2378,10.7368z"/>
	<path d="M21.501,8h-19c-0.2764,0-0.5-0.2236-0.5-0.5S2.2246,7,2.501,7h19c0.2764,0,0.5,0.2236,0.5,0.5S21.7773,8,21.501,8z"/>
</g>
<rect y="0.001" fill="none" width="24" height="24"/>
</svg>
