<?xml version="1.0" encoding="utf-8"?>
<!-- Generator: Adobe Illustrator 18.1.0, SVG Export Plug-In . SVG Version: 6.00 Build 0)  -->
<svg version="1.1" id="Layer_1" xmlns="http://www.w3.org/2000/svg" xmlns:xlink="http://www.w3.org/1999/xlink" x="0px" y="0px"
	 width="24px" height="24px" viewBox="0 0 24 24" enable-background="new 0 0 24 24" xml:space="preserve">
<g>
	<path d="M16.5146,24.0352H7.5142c-0.2764,0-0.5-0.2236-0.5-0.5v-23c0-0.2764,0.2236-0.5,0.5-0.5h9.0005
		c0.2764,0,0.5,0.2236,0.5,0.5v23C17.0146,23.8115,16.791,24.0352,16.5146,24.0352z M8.0142,23.0352h8.0005v-22H8.0142V23.0352z"/>
	<path d="M10.52,18.04c-0.1304,0-0.2603-0.0605-0.3604-0.1504c-0.0996-0.0996-0.1499-0.2197-0.1499-0.3594
		c0-0.1201,0.0601-0.25,0.1499-0.3506c0.1899-0.1895,0.5303-0.1797,0.71,0c0.0903,0.0898,0.1401,0.2197,0.1401,0.3506
		c0,0.1396-0.0498,0.2598-0.1401,0.3594C10.77,17.9795,10.6499,18.04,10.52,18.04z"/>
	<path d="M10.5098,16.0303c-0.1299,0-0.2598-0.0508-0.3501-0.1406c-0.0898-0.0996-0.1499-0.2197-0.1499-0.3496
		c0-0.1406,0.0601-0.2705,0.1499-0.3604c0.1699-0.1797,0.5103-0.1895,0.71,0c0.0903,0.0898,0.1401,0.2197,0.1401,0.3604
		c0,0.1201-0.0498,0.25-0.1401,0.3398C10.77,15.9795,10.6396,16.0303,10.5098,16.0303z"/>
	<path d="M10.5098,14.04c-0.1201,0-0.25-0.0605-0.3398-0.1504c-0.1001-0.0996-0.1602-0.2197-0.1602-0.3594
		c0-0.1309,0.0601-0.2607,0.1499-0.3506c0.1802-0.1797,0.52-0.1895,0.71,0c0.0903,0.1006,0.1504,0.2197,0.1504,0.3506
		c0,0.1299-0.0601,0.2598-0.1504,0.3496C10.77,13.9795,10.6396,14.04,10.5098,14.04z"/>
	<path d="M10.52,12.04c-0.1304,0-0.2603-0.0601-0.3604-0.1504c-0.0996-0.0996-0.1499-0.23-0.1499-0.3496
		c0-0.1401,0.0601-0.27,0.1499-0.3604c0.1899-0.1899,0.5303-0.1899,0.71,0.0103c0.0903,0.0801,0.1401,0.21,0.1401,0.3501
		c0,0.1299-0.0498,0.25-0.1401,0.3496C10.7798,11.98,10.6396,12.04,10.52,12.04z"/>
	<path d="M10.52,10.04c-0.1401,0-0.27-0.0601-0.3604-0.1504c-0.0898-0.0996-0.1499-0.23-0.1499-0.3599s0.0503-0.25,0.1499-0.3398
		c0.1899-0.2002,0.52-0.2002,0.71-0.0103c0.0903,0.1001,0.1401,0.2202,0.1401,0.3501S10.96,9.79,10.8696,9.8799
		C10.77,9.98,10.6499,10.04,10.52,10.04z"/>
	<path d="M10.52,8.04c-0.1401,0-0.27-0.0601-0.3604-0.1504c-0.0898-0.0996-0.1499-0.23-0.1499-0.3599
		c0-0.1201,0.0601-0.25,0.1499-0.3501c0.1899-0.1899,0.52-0.1899,0.71,0c0.0903,0.1001,0.1401,0.23,0.1401,0.3501
		c0,0.1299-0.0498,0.2603-0.1401,0.3501C10.77,7.98,10.6499,8.04,10.52,8.04z"/>
	<path d="M10.52,6.04c-0.1401,0-0.27-0.0601-0.3604-0.1504c-0.0898-0.0996-0.1499-0.23-0.1499-0.3599
		c0-0.1201,0.0601-0.25,0.1499-0.3501c0.1899-0.1899,0.52-0.1899,0.71,0c0.0903,0.1001,0.1401,0.23,0.1401,0.3501
		c0,0.1299-0.0498,0.2603-0.1401,0.3501C10.77,5.98,10.6499,6.04,10.52,6.04z"/>
	<path d="M10.52,4.04c-0.1401,0-0.27-0.0601-0.3604-0.1504c-0.0996-0.0996-0.1499-0.23-0.1499-0.3599s0.0503-0.25,0.1499-0.3501
		c0.1899-0.1899,0.52-0.1899,0.71,0c0.0903,0.1001,0.1401,0.2202,0.1401,0.3501S10.96,3.79,10.8696,3.8799
		C10.77,3.98,10.6499,4.04,10.52,4.04z"/>
	<path d="M13.5195,18.04c-0.1396,0-0.2695-0.0605-0.3594-0.1504c-0.0908-0.0996-0.1504-0.2197-0.1504-0.3594
		c0-0.1309,0.0596-0.2607,0.1504-0.3506c0.1797-0.1797,0.5098-0.1895,0.71,0c0.0898,0.1006,0.1396,0.2305,0.1396,0.3506
		c0,0.1299-0.0498,0.2598-0.1396,0.3496C13.7695,17.9795,13.6396,18.04,13.5195,18.04z"/>
	<path d="M13.5195,16.0303c-0.1299,0-0.2598-0.0508-0.3594-0.1406c-0.1006-0.0996-0.1504-0.2295-0.1504-0.3496
		c0-0.1406,0.0596-0.2598,0.1504-0.3604c0.1895-0.1797,0.5195-0.1797,0.71,0c0.0898,0.0898,0.1396,0.2197,0.1396,0.3604
		c0,0.1299-0.0498,0.25-0.1396,0.3496C13.7695,15.9795,13.6396,16.0303,13.5195,16.0303z"/>
	<path d="M13.5098,14.04c-0.1299,0-0.25-0.0605-0.3496-0.1504c-0.1006-0.0996-0.1504-0.2197-0.1504-0.3594
		c0-0.1309,0.0596-0.2607,0.1504-0.3506c0.1797-0.1797,0.5195-0.1895,0.71,0c0.0898,0.0898,0.1494,0.2197,0.1494,0.3506
		c0,0.1299-0.0596,0.2598-0.1494,0.3594C13.7695,13.9795,13.6396,14.04,13.5098,14.04z"/>
	<path d="M13.5098,12.0303c-0.1299,0-0.2598-0.0503-0.3496-0.1406c-0.0908-0.0996-0.1504-0.23-0.1504-0.3599
		s0.0596-0.25,0.1504-0.3501c0.1797-0.1797,0.5195-0.1899,0.71,0c0.0898,0.1001,0.1494,0.23,0.1494,0.3501
		c0,0.1299-0.0596,0.2603-0.1494,0.3599C13.7695,11.98,13.6494,12.0303,13.5098,12.0303z"/>
	<path d="M13.5098,10.0298c-0.1299,0-0.2598-0.0498-0.3496-0.1401C13.0693,9.79,13.0098,9.6699,13.0098,9.54
		c0-0.1401,0.0596-0.2603,0.1504-0.3604c0.1895-0.1899,0.5195-0.1899,0.6992,0c0.1006,0.1001,0.1602,0.23,0.1602,0.3604
		c0,0.1196-0.0596,0.25-0.1494,0.3496C13.7695,9.98,13.6494,10.0298,13.5098,10.0298z"/>
	<path d="M13.5098,8.04c-0.1299,0-0.2598-0.0601-0.3496-0.1504c-0.0908-0.0996-0.1504-0.2197-0.1504-0.3599
		c0-0.1299,0.0596-0.25,0.1504-0.3501c0.1797-0.1797,0.5195-0.1899,0.71,0c0.0898,0.1001,0.1494,0.23,0.1494,0.3501
		c0,0.1299-0.0596,0.2603-0.1494,0.3599C13.7695,7.98,13.6494,8.04,13.5098,8.04z"/>
	<path d="M13.5098,6.0298c-0.1299,0-0.2598-0.0498-0.3496-0.1499c-0.0908-0.0801-0.1504-0.21-0.1504-0.3501
		c0-0.1299,0.0596-0.25,0.1504-0.3501c0.1895-0.1899,0.5098-0.1899,0.6992,0c0.1006,0.1001,0.1602,0.23,0.1602,0.3501
		c0,0.1401-0.0596,0.27-0.1494,0.3599C13.7695,5.98,13.6494,6.0298,13.5098,6.0298z"/>
	<path d="M13.5098,4.0298c-0.1299,0-0.2598-0.0498-0.3496-0.1401C13.0693,3.79,13.0098,3.6699,13.0098,3.54
		c0-0.1401,0.0596-0.27,0.1504-0.3604c0.1895-0.1899,0.5195-0.1899,0.6992,0c0.1006,0.1001,0.1602,0.23,0.1602,0.3604
		c0,0.1196-0.0596,0.25-0.1494,0.3496C13.7695,3.98,13.6494,4.0298,13.5098,4.0298z"/>
	<path d="M13.5146,24.0352h-3.0005c-0.2764,0-0.5-0.2236-0.5-0.5v-3c0-0.2764,0.2236-0.5,0.5-0.5h3.0005
		c0.2764,0,0.5,0.2236,0.5,0.5v3C14.0146,23.8115,13.791,24.0352,13.5146,24.0352z M11.0142,23.0352h2.0005v-2h-2.0005V23.0352z"/>
	<path d="M7.5142,24.0352h-7c-0.2764,0-0.5-0.2236-0.5-0.5v-19c0-0.2764,0.2236-0.5,0.5-0.5h7c0.2764,0,0.5,0.2236,0.5,0.5v19
		C8.0142,23.8115,7.7905,24.0352,7.5142,24.0352z M1.0142,23.0352h6v-18h-6V23.0352z"/>
	<path d="M23.5146,24.0352h-7c-0.2764,0-0.5-0.2236-0.5-0.5v-17c0-0.2764,0.2236-0.5,0.5-0.5h7c0.2764,0,0.5,0.2236,0.5,0.5v17
		C24.0146,23.8115,23.791,24.0352,23.5146,24.0352z M17.0146,23.0352h6v-16h-6V23.0352z"/>
	<path d="M5.1377,8.0352H3.0151c-0.2764,0-0.5-0.2236-0.5-0.5s0.2236-0.5,0.5-0.5h2.1226c0.2764,0,0.5,0.2236,0.5,0.5
		S5.4141,8.0352,5.1377,8.0352z"/>
	<path d="M5.1377,10.0356H3.0151c-0.2764,0-0.5-0.2236-0.5-0.5s0.2236-0.5,0.5-0.5h2.1226c0.2764,0,0.5,0.2236,0.5,0.5
		S5.4141,10.0356,5.1377,10.0356z"/>
	<path d="M5.1377,12.0352H3.0151c-0.2764,0-0.5-0.2231-0.5-0.4995s0.2236-0.5,0.5-0.5h2.1226c0.2764,0,0.5,0.2236,0.5,0.5
		S5.4141,12.0352,5.1377,12.0352z"/>
	<path d="M5.1377,14.0361H3.0151c-0.2764,0-0.5-0.2236-0.5-0.5s0.2236-0.5,0.5-0.5h2.1226c0.2764,0,0.5,0.2236,0.5,0.5
		S5.4141,14.0361,5.1377,14.0361z"/>
	<path d="M5.1377,16.0361H3.0151c-0.2764,0-0.5-0.2236-0.5-0.5s0.2236-0.5,0.5-0.5h2.1226c0.2764,0,0.5,0.2236,0.5,0.5
		S5.4141,16.0361,5.1377,16.0361z"/>
	<path d="M5.1377,18.0361H3.0151c-0.2764,0-0.5-0.2236-0.5-0.5s0.2236-0.5,0.5-0.5h2.1226c0.2764,0,0.5,0.2236,0.5,0.5
		S5.4141,18.0361,5.1377,18.0361z"/>
	<path d="M5.1377,20.0361H3.0151c-0.2764,0-0.5-0.2236-0.5-0.5s0.2236-0.5,0.5-0.5h2.1226c0.2764,0,0.5,0.2236,0.5,0.5
		S5.4141,20.0361,5.1377,20.0361z"/>
	<path d="M21.1387,10.0356h-2.123c-0.2764,0-0.5-0.2236-0.5-0.5s0.2236-0.5,0.5-0.5h2.123c0.2764,0,0.5,0.2236,0.5,0.5
		S21.415,10.0356,21.1387,10.0356z"/>
	<path d="M21.1387,12.0352h-2.123c-0.2764,0-0.5-0.2231-0.5-0.4995s0.2236-0.5,0.5-0.5h2.123c0.2764,0,0.5,0.2236,0.5,0.5
		S21.415,12.0352,21.1387,12.0352z"/>
	<path d="M21.1387,14.0361h-2.123c-0.2764,0-0.5-0.2236-0.5-0.5s0.2236-0.5,0.5-0.5h2.123c0.2764,0,0.5,0.2236,0.5,0.5
		S21.415,14.0361,21.1387,14.0361z"/>
	<path d="M21.1387,16.0361h-2.123c-0.2764,0-0.5-0.2236-0.5-0.5s0.2236-0.5,0.5-0.5h2.123c0.2764,0,0.5,0.2236,0.5,0.5
		S21.415,16.0361,21.1387,16.0361z"/>
	<path d="M21.1387,18.0361h-2.123c-0.2764,0-0.5-0.2236-0.5-0.5s0.2236-0.5,0.5-0.5h2.123c0.2764,0,0.5,0.2236,0.5,0.5
		S21.415,18.0361,21.1387,18.0361z"/>
	<path d="M21.1387,20.0361h-2.123c-0.2764,0-0.5-0.2236-0.5-0.5s0.2236-0.5,0.5-0.5h2.123c0.2764,0,0.5,0.2236,0.5,0.5
		S21.415,20.0361,21.1387,20.0361z"/>
</g>
<rect x="0.0142" y="0.0354" fill="none" width="24" height="24"/>
</svg>
