<?xml version="1.0" encoding="utf-8"?>
<!-- Generator: Adobe Illustrator 18.1.0, SVG Export Plug-In . SVG Version: 6.00 Build 0)  -->
<svg version="1.1" id="Layer_1" xmlns="http://www.w3.org/2000/svg" xmlns:xlink="http://www.w3.org/1999/xlink" x="0px" y="0px"
	 width="24px" height="24px" viewBox="0 0 24 24" enable-background="new 0 0 24 24" xml:space="preserve">
<g>
	<path d="M17.3604,23.4492c-0.3271,0-0.6543-0.0342-0.9795-0.1025c-1.5869-0.3369-2.8896-1.4492-3.668-3.1318
		c-0.1152-0.251-0.0059-0.5479,0.2441-0.6641c0.2529-0.1143,0.5479-0.0068,0.6641,0.2441c0.6416,1.3906,1.6963,2.3037,2.9668,2.5732
		c1.2334,0.2627,2.5381-0.1221,3.668-1.0771c1.166-0.9873,2.0039-2.457,2.3594-4.1387s0.1836-3.3643-0.4834-4.7383
		c-0.6455-1.3306-1.6826-2.2075-2.918-2.4688c-0.6562-0.1392-1.3311-0.0977-2.0049,0.1245
		c-0.2617,0.085-0.5439-0.0566-0.6309-0.3184c-0.0869-0.2627,0.0557-0.5454,0.3184-0.6318
		c0.8408-0.2773,1.6895-0.3281,2.5244-0.1528c1.5439,0.3267,2.8271,1.396,3.6113,3.0112c0.7627,1.5728,0.9629,3.4839,0.5615,5.3813
		c-0.4014,1.8984-1.3574,3.5654-2.6924,4.6943C19.8193,22.9697,18.5898,23.4492,17.3604,23.4492z"/>
	<path d="M16.5801,23.377c-0.0967,0-0.1934-0.0273-0.2783-0.085c-0.2295-0.1533-0.291-0.4648-0.1367-0.6934
		c0.9688-1.4434,1.3428-3.9717,0.834-5.6357c-0.5967-1.9561-0.1729-4.8174,0.9658-6.5151l0.8613-1.2842
		c0.1553-0.231,0.4688-0.2891,0.6934-0.1367c0.2295,0.1538,0.291,0.4644,0.1367,0.6934l-0.8613,1.2842
		c-0.957,1.4272-1.3408,4.022-0.8389,5.6655c0.5947,1.9482,0.1729,4.7969-0.9609,6.4854
		C16.8984,23.2998,16.7402,23.377,16.5801,23.377z"/>
	<path d="M8.1572,20.5742c-4.3335,0-7.8589-4.4756-7.8589-9.9766s3.5254-9.9766,7.8589-9.9766c4.334,0,7.8594,4.4756,7.8594,9.9766
		S12.4912,20.5742,8.1572,20.5742z M8.1572,1.6211c-3.7822,0-6.8589,4.0269-6.8589,8.9766c0,4.9492,3.0767,8.9766,6.8589,8.9766
		s6.8594-4.0273,6.8594-8.9766C15.0166,5.6479,11.9395,1.6211,8.1572,1.6211z"/>
	<path d="M8.0215,20.5742c-0.1978,0-0.3853-0.1182-0.4639-0.3135c-1.0312-2.5645-0.791-6.4697,0.5469-8.8906
		C9.2983,9.2085,9.52,5.5864,8.5981,3.2954L7.7998,1.3105c-0.103-0.2563,0.021-0.5474,0.2773-0.6504
		C8.332,0.5591,8.6235,0.6807,8.7275,0.9375l0.7983,1.9849c1.0366,2.5767,0.7969,6.4995-0.5464,8.9312
		c-1.189,2.1514-1.4106,5.7559-0.4941,8.0342c0.103,0.2559-0.021,0.5469-0.2773,0.6504C8.147,20.5625,8.084,20.5742,8.0215,20.5742z
		"/>
</g>
<rect x="0.0142" y="0.0346" fill="none" width="24" height="24"/>
</svg>
