<?xml version="1.0" encoding="utf-8"?>
<!-- Generator: Adobe Illustrator 18.1.0, SVG Export Plug-In . SVG Version: 6.00 Build 0)  -->
<svg version="1.1" id="Layer_1" xmlns="http://www.w3.org/2000/svg" xmlns:xlink="http://www.w3.org/1999/xlink" x="0px" y="0px"
	 width="24px" height="24px" viewBox="0 0 24 24" enable-background="new 0 0 24 24" xml:space="preserve">
<g>
	<path d="M18.5146,3.0342H7.5142c-0.2764,0-0.5-0.2236-0.5-0.5v-2c0-0.2764,0.2236-0.5,0.5-0.5h11.0005c0.2764,0,0.5,0.2236,0.5,0.5
		v2C19.0146,2.8105,18.791,3.0342,18.5146,3.0342z M8.0142,2.0342h10.0005v-1H8.0142V2.0342z"/>
	<path d="M18.5146,24.0342h-3.9004c-0.2568,0-0.4717-0.1943-0.4971-0.4502l-1.1357-11.3193L11.8452,23.584
		c-0.0259,0.2559-0.2407,0.4502-0.4976,0.4502H7.5142c-0.2764,0-0.5-0.2236-0.5-0.5v-21c0-0.2764,0.2236-0.5,0.5-0.5h11.0005
		c0.2764,0,0.5,0.2236,0.5,0.5v21C19.0146,23.8105,18.791,24.0342,18.5146,24.0342z M15.0664,23.0342h2.9482v-20H8.0142v20h2.8813
		L12.4844,7.207c0.0254-0.2559,0.2402-0.4502,0.4971-0.4502l0,0c0.2568,0,0.4717,0.1943,0.4971,0.4502L15.0664,23.0342z"/>
	<path d="M7.6182,5.8467c-0.0605,0-0.0981-0.0024-0.1055-0.0029c-0.2754-0.02-0.4824-0.2598-0.4619-0.5352
		c0.02-0.2744,0.2549-0.4727,0.5322-0.4624c0.02,0.0039,0.6157,0.0283,1.022-0.3384c0.2559-0.231,0.396-0.5889,0.416-1.0635
		c0.0117-0.2759,0.2695-0.4976,0.5205-0.4785c0.2759,0.0117,0.4902,0.2446,0.4785,0.5205C9.9878,4.2451,9.7339,4.8418,9.2646,5.2598
		C8.6641,5.7944,7.8965,5.8467,7.6182,5.8467z"/>
	<path d="M18.417,5.8472c-0.2891,0-1.0986-0.0537-1.7207-0.6084c-0.4678-0.417-0.7207-1.0063-0.7539-1.7515
		c-0.0117-0.2759,0.2021-0.5093,0.4785-0.5215c0.2588-0.0361,0.5098,0.2026,0.5215,0.4775
		c0.0195,0.4653,0.1611,0.8184,0.4199,1.0488c0.4346,0.3892,1.0859,0.355,1.0918,0.3545c0.252-0.0254,0.5146,0.1865,0.5342,0.4634
		c0.0195,0.2754-0.1885,0.5146-0.4639,0.5337C18.5166,5.8447,18.4785,5.8472,18.417,5.8472z"/>
	<path d="M13.0898,7.0161c-0.0791,0-0.1348-0.0044-0.1543-0.0059c-0.2578-0.0239-0.4541-0.2397-0.4541-0.498V2.52
		c0-0.2764,0.2236-0.5,0.5-0.5s0.5,0.2236,0.5,0.5v3.437c0.0928-0.0303,0.1826-0.0752,0.2529-0.1401
		c0.1182-0.1089,0.1748-0.2749,0.1748-0.5073V2.52c0-0.2764,0.2236-0.5,0.5-0.5s0.5,0.2236,0.5,0.5v2.7891
		c0,0.6523-0.2734,1.0391-0.5029,1.249C13.9629,6.9624,13.3721,7.0161,13.0898,7.0161z"/>
	<path d="M12.9814,7.7764c-0.2764,0-0.5-0.2236-0.5-0.5V6.5122c0-0.2764,0.2236-0.5,0.5-0.5s0.5,0.2236,0.5,0.5v0.7642
		C13.4814,7.5527,13.2578,7.7764,12.9814,7.7764z"/>
</g>
<rect x="0.0142" y="0.0344" fill="none" width="24" height="24"/>
</svg>
