<?xml version="1.0" encoding="utf-8"?>
<!-- Generator: Adobe Illustrator 18.1.0, SVG Export Plug-In . SVG Version: 6.00 Build 0)  -->
<svg version="1.1" id="Layer_1" xmlns="http://www.w3.org/2000/svg" xmlns:xlink="http://www.w3.org/1999/xlink" x="0px" y="0px"
	 width="24px" height="24px" viewBox="0 0 24 24" enable-background="new 0 0 24 24" xml:space="preserve">
<g>
	<path d="M12.0293,18.4873c-1.0566,0-6.3594-0.1143-6.9692-2.3779c-0.0288-0.0605-0.0532-0.1855-0.0532-0.3135L5.0073,3.0625
		c-0.0005-0.0068-0.0005-0.0132-0.0005-0.02c0-2.0527,3.7832-2.7812,7.0225-2.7812s7.0225,0.7285,7.0225,2.7812v12.7534
		c0,0.1279-0.0244,0.2529-0.0732,0.3721C18.3887,18.373,13.0859,18.4873,12.0293,18.4873z M6.0073,3.0234
		c0.0005,0.0083,0.0005,0.0171,0.0005,0.0254l-0.001,12.7471c0.2666,0.9717,2.9033,1.6914,6.0225,1.6914
		s5.7559-0.7197,6.0039-1.6377l0.0186-12.7871c0-1.002-2.7021-1.8013-6.0225-1.8013C8.73,1.2612,6.042,2.0498,6.0073,3.0234z"/>
	<path d="M11.9971,5.3291c-3.9302,0-6.8325-1.2236-6.979-2.3218c0-0.2764,0.2183-0.5488,0.4946-0.5488
		c0.2339,0,0.4263,0.126,0.4795,0.3325c0.1836,0.3599,2.1055,1.5381,6.0049,1.5381c3.9463,0,5.9023-1.1904,6.0742-1.5103
		c0.0371-0.2744,0.2852-0.4375,0.5537-0.4019c0.2744,0.0361,0.459,0.3159,0.4229,0.5898
		C18.9014,4.105,15.9707,5.3291,11.9971,5.3291z"/>
	<path d="M11.9971,9.6353c-3.9302,0-6.8325-1.2241-6.979-2.3228c0-0.2759,0.2183-0.5483,0.4946-0.5483
		c0.2339,0,0.4268,0.126,0.4795,0.3325c0.1851,0.3608,2.1069,1.5386,6.0049,1.5386c3.9463,0,5.9023-1.1909,6.0742-1.5107
		c0.0371-0.2749,0.2852-0.4365,0.5537-0.4019c0.2744,0.0361,0.459,0.3159,0.4229,0.5898
		C18.9014,8.4111,15.9707,9.6353,11.9971,9.6353z"/>
	<path d="M11.9971,13.9404c-3.9302,0-6.8325-1.2236-6.979-2.3223c0-0.2759,0.2183-0.5483,0.4941-0.5483
		c0.2446,0,0.4434,0.1367,0.4863,0.3599c0.0054,0.0249,0.0107,0.0518,0.0127,0.0728c0.1494,0.251,2.0708,1.438,5.9858,1.438
		c3.9473,0,5.9023-1.1904,6.0742-1.5103c0.0371-0.2749,0.2852-0.4409,0.5537-0.4019c0.2734,0.0361,0.459,0.3159,0.4229,0.5898
		C18.9014,12.7168,15.9707,13.9404,11.9971,13.9404z"/>
	<g>
		<g>
			<path d="M2.9878,22.0303h-2.5c-0.2764,0-0.5-0.2236-0.5-0.5s0.2236-0.5,0.5-0.5h2.5c0.2764,0,0.5,0.2236,0.5,0.5
				S3.2642,22.0303,2.9878,22.0303z"/>
			<path d="M8.4854,22.0303h-2.5c-0.2764,0-0.5-0.2236-0.5-0.5s0.2236-0.5,0.5-0.5h2.5c0.2764,0,0.5,0.2236,0.5,0.5
				S8.7617,22.0303,8.4854,22.0303z"/>
		</g>
	</g>
	<g>
		<g>
			<path d="M17.9893,22.0303h-2.5c-0.2764,0-0.5-0.2236-0.5-0.5s0.2236-0.5,0.5-0.5h2.5c0.2764,0,0.5,0.2236,0.5,0.5
				S18.2656,22.0303,17.9893,22.0303z"/>
			<path d="M23.4873,22.0303h-2.5c-0.2764,0-0.5-0.2236-0.5-0.5s0.2236-0.5,0.5-0.5h2.5c0.2764,0,0.5,0.2236,0.5,0.5
				S23.7637,22.0303,23.4873,22.0303z"/>
		</g>
	</g>
	<path d="M12.0293,21.1602c-0.2764,0-0.5-0.2236-0.5-0.5v-2.6729c0-0.2764,0.2236-0.5,0.5-0.5s0.5,0.2236,0.5,0.5v2.6729
		C12.5293,20.9365,12.3057,21.1602,12.0293,21.1602z"/>
	<path d="M12.0293,22.9189c-0.7607,0-1.3799-0.6182-1.3799-1.3789s0.6191-1.3799,1.3799-1.3799s1.3799,0.6191,1.3799,1.3799
		S12.79,22.9189,12.0293,22.9189z M12.0293,21.1602c-0.2095,0-0.3799,0.1709-0.3799,0.3799s0.1704,0.3789,0.3799,0.3789
		c0.209,0,0.3799-0.1699,0.3799-0.3789S12.2383,21.1602,12.0293,21.1602z"/>
</g>
<rect fill="none" width="24" height="24"/>
</svg>
