<?xml version="1.0" encoding="utf-8"?>
<!-- Generator: Adobe Illustrator 18.1.0, SVG Export Plug-In . SVG Version: 6.00 Build 0)  -->
<svg version="1.1" id="Layer_1" xmlns="http://www.w3.org/2000/svg" xmlns:xlink="http://www.w3.org/1999/xlink" x="0px" y="0px"
	 width="24px" height="24px" viewBox="0 0 24 24" enable-background="new 0 0 24 24" xml:space="preserve">
<rect x="-0.015" y="-0.0293" fill="none" width="24" height="24"/>
<g>
	<path d="M1.4849,23.8789c-0.2764,0-0.5-0.2236-0.5-0.5V5.4897c0-0.2764,0.2236-0.5,0.5-0.5s0.5,0.2236,0.5,0.5v17.8892
		C1.9849,23.6553,1.7612,23.8789,1.4849,23.8789z"/>
	<path d="M7.2827,12.1875c-0.2114,0-0.4048-0.1357-0.4736-0.3423C6.7422,11.6455,5.1934,6.8848,6.8032,1.3813
		c0.0688-0.2349,0.2979-0.3882,0.5415-0.3555l15.3945,1.916c0.1621,0.02,0.3037,0.1177,0.3799,0.2612
		c0.0586,0.1108,1.4277,2.751,0.0156,5.937c-0.0674,0.1519-0.2061,0.2603-0.3691,0.2896l-15.3945,2.75
		C7.3413,12.1846,7.312,12.1875,7.2827,12.1875z M7.6494,2.0713c-1.0952,4.1416-0.3262,7.8369-0.0098,9.0439l14.6826-2.6221
		c0.8506-2.1431,0.2695-3.9717,0.0156-4.5938L7.6494,2.0713z"/>
	<path d="M7.2837,12.1875c-0.1445,0-0.2881-0.0625-0.3872-0.1836L2.6128,6.7842C2.4585,6.5957,2.4619,6.3237,2.6216,6.1396
		l4.2837-4.9448c0.1816-0.2095,0.498-0.231,0.7051-0.0508c0.209,0.1807,0.2314,0.4966,0.0508,0.7051L3.6533,6.4756l4.0166,4.894
		c0.1748,0.2139,0.144,0.5288-0.0693,0.7036C7.5073,12.1494,7.395,12.1875,7.2837,12.1875z"/>
	<path d="M12.4854,11.2578c-0.2764,0-0.5-0.2236-0.5-0.5V2.1694c0-0.2764,0.2236-0.5,0.5-0.5s0.5,0.2236,0.5,0.5v8.5884
		C12.9854,11.0342,12.7617,11.2578,12.4854,11.2578z"/>
	<path d="M17.4854,10.3647c-0.2764,0-0.5-0.2236-0.5-0.5V2.792c0-0.2764,0.2236-0.5,0.5-0.5s0.5,0.2236,0.5,0.5v7.0728
		C17.9854,10.1411,17.7617,10.3647,17.4854,10.3647z"/>
</g>
</svg>
