<?xml version="1.0" encoding="utf-8"?>
<!-- Generator: Adobe Illustrator 18.1.0, SVG Export Plug-In . SVG Version: 6.00 Build 0)  -->
<svg version="1.1" id="Layer_1" xmlns="http://www.w3.org/2000/svg" xmlns:xlink="http://www.w3.org/1999/xlink" x="0px" y="0px"
	 width="24px" height="24px" viewBox="0 0 24 24" enable-background="new 0 0 24 24" xml:space="preserve">
<g>
	<path d="M11.9854,23.7939c-6.5166,0-11.8179-5.3018-11.8179-11.8184S5.4688,0.1577,11.9854,0.1577S23.8027,5.459,23.8027,11.9756
		S18.502,23.7939,11.9854,23.7939z M11.9854,1.1577c-5.9648,0-10.8179,4.853-10.8179,10.8179s4.853,10.8184,10.8179,10.8184
		s10.8174-4.8535,10.8174-10.8184S17.9502,1.1577,11.9854,1.1577z"/>
	<path d="M11.5215,19.082c-0.2764,0-0.5-0.2236-0.5-0.5v-0.3623c0-0.2764,0.2236-0.5,0.5-0.5s0.5,0.2236,0.5,0.5v0.3623
		C12.0215,18.8584,11.7979,19.082,11.5215,19.082z"/>
	<path d="M11.5215,16.1201c-0.2764,0-0.5-0.2236-0.5-0.5v-2.1973c0-0.5479,0.3525-1.042,0.877-1.2285
		c2.2236-0.7886,3.3037-1.812,3.3037-3.1294c0-1.7095-1.6143-3.1006-3.5981-3.1006c-1.2993,0-2.5024,0.6084-3.1401,1.5879
		C8.313,7.7842,8.0034,7.8501,7.7725,7.6987C7.541,7.5483,7.4751,7.2388,7.626,7.0073c0.8198-1.2603,2.3438-2.043,3.978-2.043
		c2.5356,0,4.5981,1.8394,4.5981,4.1006c0,1.7925-1.2979,3.1245-3.9688,4.0718c-0.126,0.0449-0.2119,0.1602-0.2119,0.2861v2.1973
		C12.0215,15.8965,11.7979,16.1201,11.5215,16.1201z"/>
</g>
<rect x="-0.0136" y="0.0002" fill="none" width="24" height="24"/>
</svg>
