<?xml version="1.0" encoding="utf-8"?>
<!-- Generator: Adobe Illustrator 18.1.0, SVG Export Plug-In . SVG Version: 6.00 Build 0)  -->
<svg version="1.1" id="Layer_1" xmlns="http://www.w3.org/2000/svg" xmlns:xlink="http://www.w3.org/1999/xlink" x="0px" y="0px"
	 width="24px" height="24px" viewBox="0 0 24 24" enable-background="new 0 0 24 24" xml:space="preserve">
<g>
	<path d="M12,3.02c-0.1304,0-0.2603-0.0503-0.3501-0.1504C11.5498,2.7798,11.5,2.6499,11.5,2.52
		c0-0.1304,0.0498-0.2603,0.1499-0.3501C11.8398,1.98,12.1602,1.98,12.3496,2.1597C12.4502,2.27,12.5,2.3896,12.5,2.52
		c0,0.1299-0.0498,0.25-0.1406,0.3496C12.2598,2.9697,12.1299,3.02,12,3.02z"/>
	<path d="M10.0298,3.02c-0.1299,0-0.2598-0.0503-0.3501-0.1504C9.5796,2.7798,9.5298,2.6499,9.5298,2.52
		c0-0.1304,0.0498-0.25,0.1401-0.3501c0.1997-0.1899,0.5298-0.1899,0.7197,0C10.48,2.27,10.5298,2.3896,10.5298,2.52
		c0,0.1299-0.0498,0.2598-0.1401,0.3496C10.29,2.9697,10.1597,3.02,10.0298,3.02z"/>
	<path d="M13.9697,3.02c-0.1396,0-0.2695-0.0503-0.3604-0.1504c-0.0898-0.0898-0.1396-0.2197-0.1396-0.3496
		c0-0.1304,0.0498-0.2603,0.1396-0.3501c0.1807-0.1899,0.5303-0.1899,0.71,0c0.1006,0.0898,0.1504,0.2197,0.1504,0.3501
		c0,0.1299-0.0498,0.2598-0.1504,0.3496C14.2295,2.9697,14.0996,3.02,13.9697,3.02z"/>
	<path d="M12,4.9897c-0.1304,0-0.2603-0.0498-0.3501-0.1401C11.5498,4.75,11.5,4.6196,11.5,4.4897
		c0-0.1401,0.0498-0.27,0.1499-0.3599c0.1797-0.1802,0.5103-0.1802,0.6997,0.0098C12.4502,4.23,12.5,4.3599,12.5,4.4897
		s-0.0498,0.25-0.1406,0.3501C12.25,4.9399,12.1299,4.9897,12,4.9897z"/>
	<path d="M10.0298,4.9897c-0.1299,0-0.2598-0.0498-0.3501-0.1401C9.5796,4.75,9.5298,4.6196,9.5298,4.4897
		S9.5796,4.23,9.6699,4.1396c0.1899-0.1899,0.52-0.1899,0.71,0C10.48,4.23,10.5298,4.3599,10.5298,4.4897S10.48,4.75,10.3896,4.8398
		C10.29,4.9399,10.1597,4.9897,10.0298,4.9897z"/>
	<path d="M13.9697,4.9897c-0.1299,0-0.2598-0.0498-0.3604-0.1499c-0.0898-0.0898-0.1396-0.21-0.1396-0.3501
		c0-0.1299,0.0498-0.2598,0.1396-0.3501c0.1904-0.1899,0.5205-0.1899,0.71-0.0098c0.1006,0.1001,0.1504,0.23,0.1504,0.3599
		S14.4199,4.75,14.3193,4.8398C14.2295,4.9399,14.0996,4.9897,13.9697,4.9897z"/>
	<path d="M12,6.96c-0.1304,0-0.2603-0.0503-0.3501-0.1401C11.5498,6.7197,11.5,6.5898,11.5,6.46
		c0-0.1304,0.0498-0.2603,0.1499-0.3604c0.1997-0.1899,0.5103-0.1797,0.6997,0C12.4502,6.1997,12.5,6.3296,12.5,6.46
		c0,0.1299-0.0498,0.25-0.1406,0.3501C12.25,6.9097,12.1299,6.96,12,6.96z"/>
	<path d="M10.0298,6.96c-0.1299,0-0.2598-0.0503-0.3501-0.1401C9.5796,6.71,9.5298,6.5898,9.5298,6.46
		c0-0.1304,0.0498-0.2603,0.1401-0.3501c0.1899-0.1899,0.52-0.1899,0.71-0.0103c0.1001,0.1001,0.1499,0.23,0.1499,0.3604
		c0,0.1299-0.0498,0.25-0.1401,0.3501C10.29,6.9097,10.1597,6.96,10.0298,6.96z"/>
	<path d="M13.9697,6.96c-0.1396,0-0.2695-0.0601-0.3604-0.1499c-0.0898-0.0903-0.1396-0.2202-0.1396-0.3501
		c0-0.1401,0.0498-0.2603,0.1396-0.3501c0.1807-0.1899,0.5303-0.1899,0.71,0c0.1006,0.0898,0.1504,0.2197,0.1504,0.3501
		c0,0.1299-0.0498,0.25-0.1504,0.3501C14.2295,6.9097,14.0996,6.96,13.9697,6.96z"/>
	<path d="M12,11.0464c-2.46,0-4.4614-1.9409-4.4614-4.3271V0.5049c0-0.2764,0.2236-0.5,0.5-0.5h7.9224c0.2764,0,0.5,0.2236,0.5,0.5
		v6.2144C16.4609,9.1055,14.46,11.0464,12,11.0464z M8.5386,1.0049v5.7144c0,1.8345,1.5527,3.3271,3.4614,3.3271
		c1.9082,0,3.4609-1.4927,3.4609-3.3271V1.0049H8.5386z"/>
	<path d="M11.9976,23.873c-1.0566,0-1.9165-0.8604-1.9165-1.917v-6.418c0-0.2764,0.2236-0.5,0.5-0.5h2.833
		c0.2764,0,0.5,0.2236,0.5,0.5v6.418C13.9141,23.0127,13.0547,23.873,11.9976,23.873z M11.0811,16.0381v5.918
		c0,0.5059,0.4111,0.917,0.9165,0.917s0.9165-0.4111,0.9165-0.917v-5.918H11.0811z"/>
	<path d="M12,22.0303c-0.1304,0-0.2603-0.0508-0.3501-0.1406C11.5498,21.79,11.5,21.6699,11.5,21.5303
		c0-0.1309,0.0498-0.2607,0.1499-0.3506c0.1797-0.1895,0.52-0.1895,0.6997,0c0.0898,0.0898,0.1504,0.2197,0.1504,0.3506
		c0,0.1396-0.0498,0.2598-0.1504,0.3594C12.25,21.9795,12.1299,22.0303,12,22.0303z"/>
	<path d="M11.9976,13.9678c-0.2764,0-0.5-0.2236-0.5-0.5v-2.9214c0-0.2764,0.2236-0.5,0.5-0.5c0.2759,0,0.5005,0.2236,0.5005,0.5
		v2.9214C12.498,13.7441,12.2734,13.9678,11.9976,13.9678z"/>
</g>
<rect y="0.0197" fill="none" width="24" height="24"/>
</svg>
