<?xml version="1.0" encoding="utf-8"?>
<!-- Generator: Adobe Illustrator 18.1.0, SVG Export Plug-In . SVG Version: 6.00 Build 0)  -->
<svg version="1.1" id="Layer_1" xmlns="http://www.w3.org/2000/svg" xmlns:xlink="http://www.w3.org/1999/xlink" x="0px" y="0px"
	 width="24px" height="24px" viewBox="0 0 24 24" enable-background="new 0 0 24 24" xml:space="preserve">
<g>
	<path d="M16.2979,15.5234c-0.1133,0-0.2275-0.0381-0.3213-0.1172l-2.1416-1.7988c-0.2119-0.1777-0.2393-0.4932-0.0615-0.7041
		c0.1777-0.2119,0.4932-0.2402,0.7041-0.0615l2.1416,1.7988c0.2119,0.1777,0.2393,0.4932,0.0615,0.7041
		C16.582,15.4629,16.4404,15.5234,16.2979,15.5234z"/>
	<path d="M14.3301,16.6133c-0.1113,0-0.2236-0.0371-0.3164-0.1133l-1.7461-1.4287c-0.2139-0.1748-0.2451-0.4893-0.0703-0.7031
		s0.4893-0.2451,0.7031-0.0703l1.7461,1.4287c0.2139,0.1748,0.2451,0.4893,0.0703,0.7031
		C14.6182,16.5508,14.4746,16.6133,14.3301,16.6133z"/>
	<path d="M11.2163,18.8281c-0.3486,0-0.7344-0.1318-1.1172-0.4561c-0.5073-0.3916-5.123-3.9971-5.7739-5.8701
		c-0.0908-0.2607,0.0474-0.5454,0.3081-0.6362c0.2583-0.0898,0.5454,0.0474,0.6362,0.3081c0.4697,1.3496,4.0991,4.3711,5.458,5.4209
		c0.3218,0.2705,0.6064,0.2998,0.7798,0.0938c0.144-0.1699,0.1733-0.46-0.103-0.6934l-0.7856-0.7617
		c-0.1982-0.1924-0.2031-0.5088-0.0107-0.707c0.1924-0.1973,0.5088-0.2031,0.707-0.0098l0.7612,0.7383
		c0.7041,0.5938,0.6592,1.5312,0.1943,2.0801C12.0244,18.626,11.6484,18.8281,11.2163,18.8281z"/>
	<path d="M13.8057,18.4883c-0.374,0-0.7549-0.1494-1.0928-0.4346l-2.0737-1.8008c-0.2085-0.1816-0.231-0.4971-0.0498-0.7061
		c0.1807-0.208,0.498-0.2305,0.7051-0.0498l2.0698,1.7969c0.1406,0.1191,0.3555,0.251,0.5732,0.1709
		c0.1621-0.0586,0.293-0.2227,0.3271-0.4082c0.0225-0.125,0.0088-0.3076-0.1836-0.4717l0,0c-0.001,0-0.001,0-0.001,0
		c-0.2109-0.1787-0.2373-0.4941-0.0586-0.7051c0.1787-0.21,0.4951-0.2354,0.7041-0.0586l0.5225,0.4414
		c0.1553,0.1318,0.3125,0.1699,0.4824,0.1074c0.209-0.0752,0.3887-0.2881,0.4287-0.5068c0.0312-0.1738-0.0273-0.3223-0.1787-0.4531
		l-0.0068-0.0068c-0.21-0.1787-0.2354-0.4932-0.0566-0.7041c0.1787-0.209,0.4941-0.2344,0.7041-0.0576
		c0.0039,0.0039,0.0078,0.0068,0.0117,0.0107l0.0693,0.0596c0.3799,0.3174,0.6982-0.0225,0.7598-0.0947
		c0.0605-0.0713,0.3438-0.4453-0.0342-0.7656l-4.8965-3.9922c-0.29,0.0967-0.6821,0.2041-1.0234,0.2197
		c-0.3472,0.4717-1.1543,1.439-2.0391,1.6016c-0.3843,0.0684-0.7485-0.0127-1.0576-0.2378
		c-0.5522-0.4023-0.7471-1.2017-0.521-2.1377c0.3467-1.437,1.6465-3.0366,3.7681-3.3711c0.0981-0.0337,1.5391-0.3687,4.8311,1.2896
		l1.0459-0.3169c0.2627-0.0801,0.543,0.0698,0.623,0.3335c0.0801,0.2642-0.0693,0.5435-0.334,0.6235l-1.2383,0.375
		c-0.1221,0.0376-0.2568,0.0259-0.374-0.0342c-3.0479-1.5698-4.3369-1.2954-4.3501-1.293c-1.7139,0.2729-2.731,1.5142-3,2.6279
		C8.7397,10.0454,8.7954,10.4858,9,10.6353c0.0884,0.0635,0.1743,0.0811,0.2876,0.0615c0.522-0.0952,1.2295-0.9136,1.5527-1.4072
		c0.1187-0.1831,0.3447-0.269,0.5562-0.207c0.1323,0.0234,0.6387-0.0972,1.0537-0.2554c0.1641-0.0645,0.3555-0.0347,0.4951,0.0791
		l5.1221,4.1758c0.7686,0.6504,0.6592,1.5889,0.1572,2.1816c-0.2656,0.3145-0.6465,0.5361-1.0586,0.5781
		c-0.0029,0.0664-0.0107,0.1328-0.0225,0.1992c-0.1045,0.5752-0.5264,1.0732-1.0752,1.2705
		c-0.2793,0.1006-0.5703,0.1104-0.8467,0.042c-0.1279,0.4824-0.4883,0.8877-0.9463,1.0527
		C14.1221,18.4609,13.9648,18.4883,13.8057,18.4883z"/>
	<path d="M4.2183,14.8828c-0.0459,0-0.0913-0.0059-0.1362-0.0186l-3.6304-1.0283c-0.2656-0.0752-0.4199-0.3516-0.3447-0.6182
		l2.1289-7.5166c0.0747-0.2666,0.353-0.4238,0.6172-0.3447l3.6304,1.0278c0.1274,0.0361,0.2354,0.1211,0.3003,0.2373
		C6.8481,6.7373,6.8643,6.874,6.8281,7.0015l-2.1289,7.5181c-0.0361,0.127-0.1216,0.2354-0.2373,0.2998
		C4.3867,14.8613,4.3027,14.8828,4.2183,14.8828z M1.2051,13.0098l2.6685,0.7559L5.73,7.21L3.0615,6.4546L1.2051,13.0098z"/>
	<path d="M19.7939,15.084c-0.085,0-0.1689-0.0215-0.2441-0.0635c-0.1152-0.0645-0.2012-0.1729-0.2373-0.2998l-2.1289-7.5181
		c-0.0752-0.2656,0.0791-0.542,0.3447-0.6172l3.6299-1.0283c0.1289-0.0361,0.2656-0.0205,0.3809,0.0444
		c0.1152,0.0645,0.2012,0.1729,0.2373,0.3003l2.1289,7.5171c0.0752,0.2666-0.0791,0.543-0.3447,0.6182l-3.6299,1.0283
		C19.8857,15.0781,19.8398,15.084,19.7939,15.084z M18.2822,7.4111l1.8564,6.5557l2.668-0.7559l-1.8564-6.5557L18.2822,7.4111z"/>
	<path d="M6.2031,7.8721c-0.0815,0-0.1641-0.02-0.2407-0.062C5.7207,7.6768,5.6323,7.373,5.7656,7.1309
		c0.1255-0.2275,0.3149-0.5718,4.4536-0.6616c0.3003,0.0049,0.5054,0.2139,0.5107,0.4893c0.0059,0.2759-0.2129,0.5049-0.4893,0.5107
		C7.3325,7.5322,6.6294,7.728,6.4971,7.7769C6.4116,7.8389,6.3086,7.8721,6.2031,7.8721z"/>
	<path d="M18.5498,14.5547c-0.3262,0-0.5713-0.0605-0.5938-0.0664c-0.2676-0.0693-0.4287-0.3428-0.3594-0.6094
		c0.0693-0.2656,0.3398-0.4307,0.6074-0.3594l0,0c0.0059-0.001,0.6699,0.1533,0.9561-0.1699
		c0.1816-0.209,0.499-0.2285,0.7051-0.0469c0.208,0.1816,0.2285,0.4971,0.0469,0.7051
		C19.5215,14.4541,18.9688,14.5547,18.5498,14.5547z"/>
</g>
<rect x="-0.0016" y="-0.003" fill="none" width="24" height="24"/>
</svg>
