<?xml version="1.0" encoding="utf-8"?>
<!-- Generator: Adobe Illustrator 18.1.0, SVG Export Plug-In . SVG Version: 6.00 Build 0)  -->
<svg version="1.1" id="Layer_1" xmlns="http://www.w3.org/2000/svg" xmlns:xlink="http://www.w3.org/1999/xlink" x="0px" y="0px"
	 width="24px" height="24px" viewBox="0 0 24 24" enable-background="new 0 0 24 24" xml:space="preserve">
<g>
	<path d="M1.2451,14.1338c-0.1279,0-0.2559-0.0488-0.3535-0.1465c-0.1953-0.1953-0.1953-0.5117,0-0.707L13.3213,0.8491
		c0.1953-0.1953,0.5117-0.1953,0.707,0s0.1953,0.5117,0,0.707L1.5986,13.9873C1.501,14.085,1.373,14.1338,1.2451,14.1338z"/>
	<path d="M13.6934,23.3438c-0.1279,0-0.2559-0.0488-0.3535-0.1465L0.8916,10.7485c-0.1953-0.1953-0.1953-0.5117,0-0.707
		s0.5117-0.1953,0.707,0l12.4482,12.4487c0.1953,0.1953,0.1953,0.5117,0,0.707C13.9492,23.2949,13.8213,23.3438,13.6934,23.3438z"/>
	<path d="M13.2793,23.7188c-0.1426,0-0.2842-0.0605-0.3828-0.1787c-0.1777-0.2119-0.1504-0.5273,0.0615-0.7041
		c3.2021-2.6855,5.0391-6.6211,5.0391-10.7959c0-4.2188-1.8682-8.1807-5.126-10.8687c-0.2129-0.1758-0.2432-0.4912-0.0674-0.7041
		c0.1758-0.2134,0.4902-0.2422,0.7041-0.0674c3.4883,2.8789,5.4893,7.1216,5.4893,11.6401c0,4.4717-1.9668,8.6855-5.3965,11.5615
		C13.5068,23.6807,13.3926,23.7188,13.2793,23.7188z"/>
	<path d="M22.625,12.5146H2.8647c-0.2764,0-0.5-0.2236-0.5-0.5s0.2236-0.5,0.5-0.5H22.625c0.2764,0,0.5,0.2236,0.5,0.5
		S22.9014,12.5146,22.625,12.5146z"/>
	<path d="M20.7148,14.4248c-0.1279,0-0.2559-0.0488-0.3535-0.1465c-0.1953-0.1953-0.1953-0.5117,0-0.707l1.5566-1.5566
		l-1.5566-1.5571c-0.1953-0.1953-0.1953-0.5117,0-0.707s0.5117-0.1953,0.707,0l1.9102,1.9106c0.1953,0.1953,0.1953,0.5117,0,0.707
		l-1.9102,1.9102C20.9707,14.376,20.8428,14.4248,20.7148,14.4248z"/>
</g>
<rect x="-0.0008" y="-0.0147" fill="none" width="24" height="24"/>
</svg>
