<?xml version="1.0" encoding="utf-8"?>
<!-- Generator: Adobe Illustrator 18.1.0, SVG Export Plug-In . SVG Version: 6.00 Build 0)  -->
<svg version="1.1" id="Layer_1" xmlns="http://www.w3.org/2000/svg" xmlns:xlink="http://www.w3.org/1999/xlink" x="0px" y="0px"
	 width="24px" height="24px" viewBox="0 0 24 24" enable-background="new 0 0 24 24" xml:space="preserve">
<g>
	<path d="M5.4287,24.0098c-0.2764,0-0.5-0.2236-0.5-0.5V16.584c0-0.2764,0.2236-0.5,0.5-0.5s0.5,0.2236,0.5,0.5v6.9258
		C5.9287,23.7861,5.7051,24.0098,5.4287,24.0098z"/>
	<path d="M18.5078,24.0098c-0.2764,0-0.5-0.2236-0.5-0.5V6.5073c0-0.2764,0.2236-0.5,0.5-0.5s0.5,0.2236,0.5,0.5v17.0024
		C19.0078,23.7861,18.7842,24.0098,18.5078,24.0098z"/>
	<path d="M9.7251,18.7217c-0.1279,0-0.2559-0.0488-0.3535-0.1465L4.147,13.3516c-0.2593-0.2598-0.3848-0.6328-0.3364-0.9961
		l0.4541-3.376c0.0303-0.2231,0.2056-0.3984,0.4287-0.4287l3.3755-0.4541c0.0225-0.0029,0.1367-0.0107,0.1587-0.0107
		c0.3159,0,0.6133,0.123,0.8374,0.3467l5.2241,5.2246c0.1953,0.1953,0.1953,0.5117,0,0.707l-4.2104,4.2109
		C9.981,18.6729,9.853,18.7217,9.7251,18.7217z M5.2051,9.4912l-0.4033,2.9971c-0.0078,0.0576,0.0117,0.1152,0.0527,0.1572
		l4.8706,4.8691l3.5034-3.5039L8.3584,9.1401C8.3242,9.106,8.2764,9.0859,8.2275,9.0859L5.2051,9.4912z"/>
	<path d="M6.4297,11.2197c-0.1299,0-0.2598-0.0601-0.3501-0.1499C5.98,10.98,5.9297,10.8496,5.9297,10.7197
		S5.98,10.46,6.0796,10.3599c0.1802-0.1899,0.52-0.1802,0.7002,0c0.1001,0.1001,0.1499,0.23,0.1499,0.3599
		S6.8799,10.98,6.7798,11.0698C6.6899,11.1597,6.5601,11.2197,6.4297,11.2197z"/>
	<path d="M8.1626,14.8818c-0.1279,0-0.2559-0.0488-0.3535-0.1465c-0.1953-0.1953-0.1953-0.5117,0-0.707l1.0215-1.0215
		c0.1953-0.1953,0.5117-0.1953,0.707,0s0.1953,0.5117,0,0.707l-1.0215,1.0215C8.4185,14.833,8.2905,14.8818,8.1626,14.8818z"/>
	<path d="M9.5112,16.2305c-0.1279,0-0.2559-0.0488-0.3535-0.1465c-0.1953-0.1953-0.1953-0.5117,0-0.707l1.918-1.918
		c0.1953-0.1953,0.5117-0.1953,0.707,0s0.1953,0.5117,0,0.707l-1.918,1.918C9.7671,16.1816,9.6392,16.2305,9.5112,16.2305z"/>
	<g>
		<path d="M21.3809,24.0098H2.5557c-1.4487,0-2.6274-1.1787-2.6274-2.627V8.6348c0-1.4487,1.1787-2.6274,2.6274-2.6274h18.8252
			c1.4482,0,2.627,1.1787,2.627,2.6274v12.748C24.0078,22.8311,22.8291,24.0098,21.3809,24.0098z M2.5557,7.0073
			c-0.8975,0-1.6274,0.73-1.6274,1.6274v12.748c0,0.8975,0.73,1.627,1.6274,1.627h18.8252c0.8975,0,1.627-0.7295,1.627-1.627V8.6348
			c0-0.8975-0.7295-1.6274-1.627-1.6274H2.5557z"/>
		<path d="M15.4951,5.0068c-0.2764,0-0.5-0.2236-0.5-0.5V4.1353c0-0.6543-0.5762-1.187-1.2842-1.187h-3.4849
			c-0.7085,0-1.2852,0.5327-1.2852,1.187v0.3716c0,0.2764-0.2236,0.5-0.5,0.5s-0.5-0.2236-0.5-0.5V4.1353
			c0-1.2061,1.0249-2.187,2.2852-2.187h3.4849c1.2598,0,2.2842,0.981,2.2842,2.187v0.3716
			C15.9951,4.7832,15.7715,5.0068,15.4951,5.0068z"/>
	</g>
</g>
<rect x="-0.0136" fill="none" width="24" height="24"/>
</svg>
