<?xml version="1.0" encoding="utf-8"?>
<!-- Generator: Adobe Illustrator 18.1.0, SVG Export Plug-In . SVG Version: 6.00 Build 0)  -->
<svg version="1.1" id="Layer_1" xmlns="http://www.w3.org/2000/svg" xmlns:xlink="http://www.w3.org/1999/xlink" x="0px" y="0px"
	 width="24px" height="24px" viewBox="0 0 24 24" enable-background="new 0 0 24 24" xml:space="preserve">
<g>
	<path d="M19,23.9814H5.0288c-1.6299,0-2.9556-1.3252-2.9556-2.9551L1.208,5.3501C1.207,3.6929,2.5327,2.3672,4.1626,2.3672h3.7612
		c0.2764,0,0.5,0.2236,0.5,0.5s-0.2236,0.5-0.5,0.5H4.1626c-1.0781,0-1.9556,0.8774-1.9556,1.9556L3.0723,20.999
		c0.001,1.1055,0.8784,1.9824,1.9565,1.9824H19c1.0781,0,1.9551-0.877,1.9551-1.9551l0.8672-15.731
		c-0.001-1.0508-0.8779-1.9282-1.9561-1.9282h-3.7617c-0.2764,0-0.5-0.2236-0.5-0.5s0.2236-0.5,0.5-0.5h3.7617
		c1.6299,0,2.9551,1.3257,2.9551,2.9556l-0.8672,15.731C21.9551,22.6562,20.6299,23.9814,19,23.9814z"/>
	<path d="M12.0146,7.812c-0.7349,0-1.333-0.5981-1.333-1.333s0.5981-1.3325,1.333-1.3325c0.7344,0,1.332,0.5977,1.332,1.3325
		S12.749,7.812,12.0146,7.812z M12.0146,6.1465c-0.1836,0-0.333,0.1489-0.333,0.3325s0.1494,0.333,0.333,0.333
		c0.1826,0,0.332-0.1494,0.332-0.333S12.1973,6.1465,12.0146,6.1465z"/>
	<path d="M12.0146,6.1465c-0.2764,0-0.5-0.2236-0.5-0.5V2.3442c0-0.2764,0.2236-0.5,0.5-0.5s0.5,0.2236,0.5,0.5v3.3022
		C12.5146,5.9229,12.291,6.1465,12.0146,6.1465z"/>
	<path d="M12.0146,11.0576c-2.9956,0-5.4331-2.4375-5.4331-5.4331s2.4375-5.4326,5.4331-5.4326c2.9951,0,5.4326,2.437,5.4326,5.4326
		S15.0098,11.0576,12.0146,11.0576z M12.0146,1.1919c-2.4443,0-4.4331,1.9883-4.4331,4.4326s1.9888,4.4331,4.4331,4.4331
		s4.4326-1.9888,4.4326-4.4331S14.459,1.1919,12.0146,1.1919z"/>
</g>
<rect x="0.0142" y="0.0346" fill="none" width="24" height="24"/>
</svg>
