<?xml version="1.0" encoding="utf-8"?>
<!-- Generator: Adobe Illustrator 18.1.0, SVG Export Plug-In . SVG Version: 6.00 Build 0)  -->
<svg version="1.1" id="Layer_1" xmlns="http://www.w3.org/2000/svg" xmlns:xlink="http://www.w3.org/1999/xlink" x="0px" y="0px"
	 width="24px" height="24px" viewBox="0 0 24 24" enable-background="new 0 0 24 24" xml:space="preserve">
<g>
	<path d="M21.6094,24.0215H2.3901c-0.2485,0-0.4595-0.1826-0.4946-0.4287L0.1514,11.5425c-0.021-0.1436,0.0215-0.2896,0.1167-0.3989
		c0.0947-0.1099,0.2329-0.1729,0.3779-0.1729h22.7075c0.1455,0,0.2832,0.063,0.3779,0.1729
		c0.0947,0.1094,0.1377,0.2554,0.1172,0.3989l-1.7441,12.0503C22.0684,23.8389,21.8574,24.0215,21.6094,24.0215z M2.8228,23.0215
		h18.354l1.5996-11.0508H1.2236L2.8228,23.0215z"/>
	<path d="M21.46,10.1055c-0.2764,0-0.5-0.2236-0.5-0.5V9.2539c0-0.1479-0.1299-0.2686-0.29-0.2686H7.4351
		c-0.2002,0-0.3813-0.1196-0.46-0.3037C6.6675,7.9604,6.2598,7.228,6.061,7.0288H3.3306c-0.1602,0-0.2905,0.1206-0.2905,0.2686
		v2.3081c0,0.2764-0.2236,0.5-0.5,0.5s-0.5-0.2236-0.5-0.5V7.2974c0-0.6997,0.5791-1.2686,1.2905-1.2686H6.165
		c0.2183,0,0.7163,0,1.5967,1.9565h12.9082c0.7109,0,1.29,0.5688,1.29,1.2686v0.3516C21.96,9.8818,21.7363,10.1055,21.46,10.1055z"
		/>
	<path d="M15.4629,15.9463H7.6616c-0.2764,0-0.5-0.2236-0.5-0.5s0.2236-0.5,0.5-0.5h7.8013c0.2764,0,0.5,0.2236,0.5,0.5
		S15.7393,15.9463,15.4629,15.9463z"/>
</g>
<rect y="0.0001" fill="none" width="24" height="24"/>
</svg>
