<?xml version="1.0" encoding="utf-8"?>
<!-- Generator: Adobe Illustrator 18.1.0, SVG Export Plug-In . SVG Version: 6.00 Build 0)  -->
<svg version="1.1" id="Layer_1" xmlns="http://www.w3.org/2000/svg" xmlns:xlink="http://www.w3.org/1999/xlink" x="0px" y="0px"
	 width="24px" height="24px" viewBox="0 0 24 24" enable-background="new 0 0 24 24" xml:space="preserve">
<g>
	<path d="M6.4409,23.9814c-0.0186,0-0.0371-0.001-0.0562-0.0029c-0.2744-0.0312-0.4717-0.2783-0.4414-0.5527l0.4883-4.376H2.5918
		l0.4883,4.376c0.0303,0.2744-0.167,0.5215-0.4414,0.5527c-0.2725,0.0322-0.5215-0.166-0.5527-0.4414l-0.5503-4.9316
		c-0.0156-0.1416,0.0298-0.2832,0.1245-0.3887c0.0947-0.1064,0.2305-0.167,0.3726-0.167h4.958c0.1421,0,0.2778,0.0605,0.3726,0.167
		c0.0947,0.1055,0.1401,0.2471,0.1245,0.3887l-0.5503,4.9316C6.9087,23.793,6.6924,23.9814,6.4409,23.9814z"/>
	<path d="M22.5146,24.0352H11.5142c-0.2764,0-0.5-0.2236-0.5-0.5v-23c0-0.2764,0.2236-0.5,0.5-0.5h11.0005
		c0.2764,0,0.5,0.2236,0.5,0.5v23C23.0146,23.8115,22.791,24.0352,22.5146,24.0352z M12.0137,23.0352h10.001v-22h-10.001V23.0352z"
		/>
	<path d="M23.5146,24.0352H0.5142c-0.2764,0-0.5-0.2236-0.5-0.5s0.2236-0.5,0.5-0.5h23.0005c0.2764,0,0.5,0.2236,0.5,0.5
		S23.791,24.0352,23.5146,24.0352z"/>
	<path d="M14.4736,13.915c-0.748,0-1.3574-0.6094-1.3574-1.3574c0-0.749,0.6094-1.3584,1.3574-1.3584
		c0.749,0,1.3584,0.6094,1.3584,1.3584C15.832,13.3057,15.2227,13.915,14.4736,13.915z M14.4736,12.1992
		c-0.1973,0-0.3574,0.1611-0.3574,0.3584s0.1602,0.3574,0.3574,0.3574s0.3584-0.1602,0.3584-0.3574S14.6709,12.1992,14.4736,12.1992
		z"/>
	<path d="M4.5186,14.6611c-2.3501,0-4.2617-1.748-4.2617-3.897c0-0.2764,0.2236-0.5,0.5-0.5c2.3501,0,4.2617,1.7485,4.2617,3.897
		C5.0186,14.4375,4.7949,14.6611,4.5186,14.6611z M1.3149,11.3115c0.2686,1.2373,1.4268,2.0967,2.6455,2.3018
		C3.6919,12.376,2.5337,11.5171,1.3149,11.3115z"/>
	<path d="M4.5186,16.0967c-0.2764,0-0.5-0.2236-0.5-0.5c0-2.5098,2.4463-4.5522,5.4531-4.5522c0.2764,0,0.5,0.2236,0.5,0.5
		C9.9717,14.0547,7.5254,16.0967,4.5186,16.0967z M8.9165,12.0713c-2.0952,0.208-3.5488,1.5762-3.8428,2.998
		C7.1689,14.8613,8.6226,13.4932,8.9165,12.0713z"/>
	<path d="M4.5186,10.6548c-0.2764,0-0.5-0.2236-0.5-0.5c0-1.9385,1.8774-3.5151,4.1851-3.5151c0.2764,0,0.5,0.2236,0.5,0.5
		C8.7036,9.0781,6.8262,10.6548,4.5186,10.6548z M7.6211,7.6816c-1.3169,0.1934-2.2476,1.0288-2.52,1.9312
		C6.418,9.4194,7.3486,8.584,7.6211,7.6816z"/>
	<path d="M4.5186,19.0498c-0.2764,0-0.5-0.2236-0.5-0.5V6.5771c0-0.2764,0.2236-0.5,0.5-0.5s0.5,0.2236,0.5,0.5v11.9727
		C5.0186,18.8262,4.7949,19.0498,4.5186,19.0498z"/>
</g>
<rect x="0.0142" y="0.0354" fill="none" width="24" height="24"/>
</svg>
