<?xml version="1.0" encoding="utf-8"?>
<!-- Generator: Adobe Illustrator 18.1.0, SVG Export Plug-In . SVG Version: 6.00 Build 0)  -->
<svg version="1.1" id="Layer_1" xmlns="http://www.w3.org/2000/svg" xmlns:xlink="http://www.w3.org/1999/xlink" x="0px" y="0px"
	 width="24px" height="24px" viewBox="0 0 24 24" enable-background="new 0 0 24 24" xml:space="preserve">
<g>
	<path d="M11.9907,22.8887c-2.1562,0-5.6167-2.3223-6.124-5.4697c-0.6865-0.1914-1.1821-0.8145-1.1821-1.5508
		c0-0.4795,0.2144-0.9268,0.5698-1.2295c-0.1719-0.6133-0.2588-1.2461-0.2588-1.8848c0-0.2764,0.2236-0.5,0.5-0.5
		s0.5,0.2236,0.5,0.5c0,0.6592,0.1084,1.3115,0.3218,1.9375c0.0835,0.2441-0.0332,0.5117-0.269,0.6172
		c-0.2207,0.0996-0.3638,0.3184-0.3638,0.5596c0,0.3379,0.2749,0.6133,0.6133,0.6133c0.2607,0,0.4976,0.2002,0.5181,0.46
		c0.2104,2.6836,3.3281,4.9473,5.1748,4.9473c1.8472,0,4.9653-2.2646,5.1763-4.9473c0.0205-0.2617,0.2256-0.4648,0.5-0.4609
		c0.3564,0,0.6299-0.2744,0.6299-0.6123c0-0.2412-0.1426-0.4609-0.3633-0.5596c-0.2363-0.1055-0.3525-0.373-0.2695-0.6172
		c0.2139-0.626,0.3223-1.2783,0.3223-1.9375c0-0.2764,0.2236-0.5,0.5-0.5s0.5,0.2236,0.5,0.5c0,0.6387-0.0869,1.2715-0.2588,1.8848
		c0.3555,0.3018,0.5693,0.75,0.5693,1.2295c0,0.7412-0.502,1.3662-1.1826,1.5557C17.624,20.3604,14.3984,22.8887,11.9907,22.8887z"
		/>
	<path d="M7.377,15.7842c-0.1577,0-0.3096-0.0742-0.4048-0.207c-0.062-0.0801-0.4102-0.4971-0.9268-0.2666
		c-0.2529,0.1094-0.5479-0.0039-0.6587-0.2568c-0.1113-0.2529,0.0034-0.5479,0.2563-0.6592c0.4902-0.2158,0.9365-0.1797,1.2998-0.04
		l0.1895-2.6128c0.0195-0.2754,0.2666-0.481,0.5347-0.4624c0.2754,0.02,0.4824,0.2593,0.4624,0.5347l-0.2539,3.5063
		c-0.0151,0.21-0.1597,0.3877-0.3618,0.4443C7.4688,15.7783,7.4224,15.7842,7.377,15.7842z"/>
	<path d="M16.626,15.7842c-0.0459,0-0.0918-0.0059-0.1367-0.0195c-0.2021-0.0566-0.3467-0.2344-0.3623-0.4443l-0.2539-3.4995
		c-0.0195-0.2754,0.1875-0.5146,0.4629-0.5347c0.2686-0.0176,0.5146,0.186,0.5352,0.4624l0.1885,2.6069
		c0.3633-0.1416,0.8086-0.1768,1.3008,0.0391c0.2529,0.1113,0.3682,0.4062,0.2568,0.6592
		c-0.1123,0.2529-0.4062,0.3672-0.6592,0.2568c-0.5498-0.2441-0.9121,0.2461-0.9268,0.2666
		C16.9355,15.709,16.7832,15.7842,16.626,15.7842z"/>
	<path d="M18.5029,13.2285c-0.0859,0-0.1729-0.0215-0.252-0.0684c-1.708-0.9971-3.9316-1.5464-6.2598-1.5464
		s-4.5508,0.5493-6.2593,1.5454c-0.2378,0.1416-0.5444,0.0586-0.6836-0.1797s-0.0591-0.5449,0.1797-0.6836
		c1.8589-1.085,4.2607-1.6821,6.7632-1.6821c2.5029,0,4.9053,0.5977,6.7637,1.6831c0.2383,0.1387,0.3193,0.4453,0.1797,0.6836
		C18.8418,13.1396,18.6748,13.2285,18.5029,13.2285z"/>
	<path d="M12.001,9.8423c-0.0762,0-0.1523-0.0176-0.2222-0.0522C9.9941,8.9048,9.9951,7.73,10.001,7.5986l-0.0005-2.0981
		c0-0.2764,0.2236-0.5,0.5-0.5h3.0005c0.2764,0,0.5,0.2236,0.5,0.5v2.1211C14.0068,7.73,14.0068,8.9048,12.2236,9.79
		C12.1533,9.8247,12.0771,9.8423,12.001,9.8423z M11.0005,6.0005v1.6211c0.0005,0.0308,0.0283,0.5986,1.0005,1.1543
		c0.9717-0.5557,0.999-1.123,1-1.1489V6.0005H11.0005z"/>
	<path d="M17.3467,21.335c-0.2344,0-0.4434-0.166-0.4902-0.4043c-0.0527-0.2715,0.125-0.5342,0.3955-0.5869
		c1.3164-0.2549,5.6113-1.3604,5.6113-4.8594c0-2.2656-3.2803-3.5781-3.3135-3.5913c-0.1855-0.0728-0.3105-0.25-0.3174-0.4497
		c-0.0088-0.2661-0.2725-6.5386-5.4863-7.7144c-0.2275-0.0513-0.3896-0.2539-0.3896-0.4878V2.2051
		c0-0.0742-0.0547-0.1348-0.1221-0.1348h-2.3682c-0.0674,0-0.1221,0.0605-0.1221,0.1348v1.0176
		c0,0.2363-0.1655,0.4404-0.3965,0.4893c-5.3018,1.123-5.5703,7.4624-5.5796,7.7319c-0.0063,0.1992-0.1309,0.376-0.3164,0.4492
		c-0.0332,0.0132-3.314,1.3335-3.314,3.5913c0,3.4912,4.2812,4.5996,5.5933,4.8564c0.2715,0.0527,0.4478,0.3154,0.395,0.5859
		c-0.0537,0.2715-0.3188,0.4512-0.5864,0.3945c-1.502-0.293-6.4019-1.582-6.4019-5.8369c0-2.498,2.7334-3.9697,3.6548-4.395
		c0.1318-1.4009,0.9668-6.9351,5.9517-8.2612v-0.623c0-0.6255,0.5034-1.1348,1.1221-1.1348h2.3682
		c0.6191,0,1.1221,0.5093,1.1221,1.1348v0.647c4.8984,1.3711,5.7217,6.8447,5.8525,8.2373c0.9209,0.4253,3.6543,1.897,3.6543,4.395
		c0,4.2637-4.9141,5.5488-6.4199,5.8418C17.4111,21.332,17.3789,21.335,17.3467,21.335z"/>
	<path d="M12.7373,18.9688h-1.4927c-0.2764,0-0.5-0.2236-0.5-0.5s0.2236-0.5,0.5-0.5h1.4927c0.2764,0,0.5,0.2236,0.5,0.5
		S13.0137,18.9688,12.7373,18.9688z"/>
	<path d="M9.9897,16.0195c-0.1201,0-0.25-0.0498-0.3398-0.1396C9.5498,15.7803,9.5,15.6494,9.5,15.5195s0.0498-0.2598,0.1396-0.3496
		c0.1899-0.1904,0.52-0.1904,0.71,0c0.0903,0.0898,0.1504,0.2197,0.1504,0.3496s-0.0601,0.2607-0.1504,0.3506
		C10.25,15.9697,10.1196,16.0195,9.9897,16.0195z"/>
	<path d="M13.9902,16.0195c-0.1309,0-0.2607-0.0498-0.3506-0.1396c-0.0996-0.0996-0.1494-0.2305-0.1494-0.3604
		s0.0498-0.2598,0.1494-0.3496c0.1797-0.1904,0.5205-0.1904,0.7002,0c0.0898,0.0898,0.1504,0.2197,0.1504,0.3496
		s-0.0508,0.25-0.1504,0.3506C14.2402,15.9697,14.1094,16.0195,13.9902,16.0195z"/>
</g>
<rect x="0.0005" y="0.0004" fill="none" width="24" height="24"/>
</svg>
