<?xml version="1.0" encoding="utf-8"?>
<!-- Generator: Adobe Illustrator 18.1.0, SVG Export Plug-In . SVG Version: 6.00 Build 0)  -->
<svg version="1.1" id="Layer_1" xmlns="http://www.w3.org/2000/svg" xmlns:xlink="http://www.w3.org/1999/xlink" x="0px" y="0px"
	 width="24px" height="24px" viewBox="0 0 24 24" enable-background="new 0 0 24 24" xml:space="preserve">
<g>
	<path d="M21.3965,23.9951H2.5718c-1.4487,0-2.6274-1.1787-2.6274-2.627V8.6201c0-1.4487,1.1787-2.6274,2.6274-2.6274h18.8247
		c1.4492,0,2.6279,1.1787,2.6279,2.6274v12.748C24.0244,22.8164,22.8457,23.9951,21.3965,23.9951z M2.5718,6.9927
		c-0.8975,0-1.6274,0.73-1.6274,1.6274v12.748c0,0.8975,0.73,1.627,1.6274,1.627h18.8247c0.8975,0,1.6279-0.7295,1.6279-1.627
		V8.6201c0-0.8975-0.7305-1.6274-1.6279-1.6274H2.5718z"/>
	<path d="M16.4648,4.9927c-0.2764,0-0.5-0.2236-0.5-0.5v-0.54c0-1.0757-0.9385-1.9507-2.0928-1.9507h-3.7876
		c-1.1538,0-2.0928,0.875-2.0928,1.9507v0.54c0,0.2764-0.2236,0.5-0.5,0.5s-0.5-0.2236-0.5-0.5v-0.54
		c0-1.627,1.3872-2.9507,3.0928-2.9507h3.7876c1.7051,0,3.0928,1.3237,3.0928,2.9507v0.54
		C16.9648,4.769,16.7412,4.9927,16.4648,4.9927z"/>
	<path d="M23.5244,13.0215H13.4678c-0.2764,0-0.5-0.2236-0.5-0.5s0.2236-0.5,0.5-0.5h10.0566c0.2764,0,0.5,0.2236,0.5,0.5
		S23.8008,13.0215,23.5244,13.0215z"/>
	<path d="M10.4517,13.0215H0.4448c-0.2764,0-0.5-0.2236-0.5-0.5s0.2236-0.5,0.5-0.5h10.0068c0.2764,0,0.5,0.2236,0.5,0.5
		S10.728,13.0215,10.4517,13.0215z"/>
	<path d="M12.9863,14.9863h-2.0532c-0.541,0-0.981-0.4404-0.981-0.9814v-2.0532c0-0.541,0.4399-0.981,0.981-0.981h2.0532
		c0.541,0,0.9814,0.4399,0.9814,0.981v2.0532C13.9678,14.5459,13.5273,14.9863,12.9863,14.9863z M12.9678,11.9517l-2.0347,0.019
		l0.019,2.0342l2.0156-0.0186V11.9517z"/>
</g>
<rect x="-0.0123" y="-0.0146" fill="none" width="24" height="24"/>
</svg>
