<?xml version="1.0" encoding="utf-8"?>
<!-- Generator: Adobe Illustrator 18.1.0, SVG Export Plug-In . SVG Version: 6.00 Build 0)  -->
<svg version="1.1" id="Layer_1" xmlns="http://www.w3.org/2000/svg" xmlns:xlink="http://www.w3.org/1999/xlink" x="0px" y="0px"
	 width="24px" height="24px" viewBox="0 0 24 24" enable-background="new 0 0 24 24" xml:space="preserve">
<g>
	<path d="M19.4531,23.8438c-0.2764,0-0.5-0.2236-0.5-0.5v-1.0459c0-0.0879-0.0479-0.1689-0.1162-0.1963
		c-5.8135-2.334-6.8037-3.3359-7.0054-4.0088c-0.0137-0.0469-0.021-0.0947-0.021-0.1436v-0.9932c0-0.127,0.0483-0.25,0.1357-0.3428
		c0.583-0.6191,1.0342-1.4814,1.3066-2.4922c0.0293-0.1104,0.0957-0.207,0.1875-0.2744c0.2344-0.1709,0.3926-0.4424,0.4346-0.7441
		c0.0439-0.3154-0.0391-0.627-0.2344-0.877c-0.0693-0.0879-0.1064-0.1963-0.1064-0.3076V9.6953c0-2.2329-1.1914-3.3652-3.541-3.3652
		c-2.2842,0-3.5425,1.1953-3.5425,3.3652v2.2231c0,0.1118-0.0371,0.2202-0.106,0.3081c-0.1948,0.249-0.2783,0.5596-0.2344,0.874
		c0.042,0.3027,0.2002,0.5752,0.4341,0.7461c0.0918,0.0674,0.1577,0.1641,0.1875,0.2734c0.2715,1.0107,0.7236,1.873,1.3076,2.4932
		c0.0869,0.0928,0.1357,0.2158,0.1357,0.3428v0.9922c0,0.0488-0.0073,0.0967-0.021,0.1436
		c-0.2017,0.6719-1.1914,1.6738-7.0044,4.0088c-0.0698,0.0283-0.1182,0.1084-0.1182,0.1973v1.0459c0,0.2764-0.2236,0.5-0.5,0.5
		s-0.5-0.2236-0.5-0.5v-1.0459c0-0.5,0.292-0.9414,0.7437-1.124c5.3359-2.1436,6.2515-3.04,6.3999-3.3193v-0.7061
		c-0.5996-0.6885-1.0684-1.584-1.3652-2.6104c-0.3716-0.3291-0.6201-0.793-0.6904-1.2998c-0.0728-0.5244,0.0444-1.043,0.3311-1.48
		v-2.063c0-2.7334,1.6982-4.3652,4.5425-4.3652c2.8857,0,4.541,1.5913,4.541,4.3652v2.0625
		c0.2871,0.4375,0.4043,0.957,0.3311,1.4824c-0.0703,0.5068-0.3193,0.9707-0.6914,1.2988
		c-0.2969,1.0264-0.7646,1.9209-1.3633,2.6094v0.707c0.1484,0.2803,1.0645,1.1758,6.3984,3.3184
		c0.4443,0.1777,0.7441,0.6299,0.7441,1.124v1.0459C19.9531,23.6201,19.7295,23.8438,19.4531,23.8438z"/>
	<path d="M23.0039,6.0005h-7c-0.2764,0-0.5-0.2236-0.5-0.5s0.2236-0.5,0.5-0.5h7c0.2764,0,0.5,0.2236,0.5,0.5
		S23.2803,6.0005,23.0039,6.0005z"/>
</g>
<rect x="0.0005" y="0.0004" fill="none" width="24" height="24"/>
</svg>
