<?xml version="1.0" encoding="utf-8"?>
<!-- Generator: Adobe Illustrator 18.1.0, SVG Export Plug-In . SVG Version: 6.00 Build 0)  -->
<svg version="1.1" id="Layer_1" xmlns="http://www.w3.org/2000/svg" xmlns:xlink="http://www.w3.org/1999/xlink" x="0px" y="0px"
	 width="24px" height="24px" viewBox="0 0 24 24" enable-background="new 0 0 24 24" xml:space="preserve">
<g>
	<path d="M21.5146,24.0352H10.5142c-0.2764,0-0.5-0.2236-0.5-0.5V7.208c0-0.1636,0.0801-0.3174,0.2148-0.4106
		c0.1343-0.0938,0.3052-0.1152,0.4595-0.0581l11.001,4.0928c0.1953,0.0728,0.3252,0.2598,0.3252,0.4688v12.2344
		C22.0146,23.8115,21.791,24.0352,21.5146,24.0352z M11.0142,23.0352h10.0005V11.6484L11.0142,7.9277V23.0352z"/>
	<path d="M6.5098,18.04c-0.1201,0-0.25-0.0605-0.3501-0.1504c-0.0898-0.0996-0.1499-0.2197-0.1499-0.3594
		c0-0.1201,0.0601-0.25,0.1499-0.3506c0.1899-0.1895,0.52-0.1895,0.71,0c0.0903,0.0898,0.1401,0.2197,0.1401,0.3506
		c0,0.1396-0.0498,0.2598-0.1401,0.3594C6.77,17.9795,6.6396,18.04,6.5098,18.04z"/>
	<path d="M15.5146,24.0352h-2c-0.2764,0-0.5-0.2236-0.5-0.5v-4c0-0.2764,0.2236-0.5,0.5-0.5h2c0.2764,0,0.5,0.2236,0.5,0.5v4
		C16.0146,23.8115,15.791,24.0352,15.5146,24.0352z M14.0146,23.0352h1v-3h-1V23.0352z"/>
	<path d="M8.5142,24.0352h-4c-0.2764,0-0.5-0.2236-0.5-0.5v-4c0-0.2764,0.2236-0.5,0.5-0.5h4c0.2764,0,0.5,0.2236,0.5,0.5v4
		C9.0142,23.8115,8.7905,24.0352,8.5142,24.0352z M5.0142,23.0352h3v-3h-3V23.0352z"/>
	<path d="M10.5142,24.0352h-8c-0.2764,0-0.5-0.2236-0.5-0.5v-8.4355c0-0.2275,0.1543-0.4268,0.375-0.4844l8-2.0693
		c0.1489-0.0391,0.3091-0.0049,0.4312,0.0889c0.1221,0.0947,0.1938,0.2412,0.1938,0.3955v10.5049
		C11.0142,23.8115,10.7905,24.0352,10.5142,24.0352z M3.0142,23.0352h7v-9.3594l-7,1.8105V23.0352z"/>
	<path d="M14.5527,17.0352h-1.0381c-0.2764,0-0.5-0.2236-0.5-0.5s0.2236-0.5,0.5-0.5h1.0381c0.2764,0,0.5,0.2236,0.5,0.5
		S14.8291,17.0352,14.5527,17.0352z"/>
	<path d="M14.5527,14.0352h-1.0381c-0.2764,0-0.5-0.2236-0.5-0.5s0.2236-0.5,0.5-0.5h1.0381c0.2764,0,0.5,0.2236,0.5,0.5
		S14.8291,14.0352,14.5527,14.0352z"/>
	<path d="M18.5146,17.0352h-1c-0.2764,0-0.5-0.2236-0.5-0.5s0.2236-0.5,0.5-0.5h1c0.2764,0,0.5,0.2236,0.5,0.5
		S18.791,17.0352,18.5146,17.0352z"/>
	<path d="M18.5146,20.0352h-1c-0.2764,0-0.5-0.2236-0.5-0.5s0.2236-0.5,0.5-0.5h1c0.2764,0,0.5,0.2236,0.5,0.5
		S18.791,20.0352,18.5146,20.0352z"/>
	<path d="M18.5146,14.0352h-1c-0.2764,0-0.5-0.2236-0.5-0.5s0.2236-0.5,0.5-0.5h1c0.2764,0,0.5,0.2236,0.5,0.5
		S18.791,14.0352,18.5146,14.0352z"/>
	<path d="M23.458,12.5234c-0.0576,0-0.1172-0.0098-0.1748-0.0312L8.6606,7.0522C8.4019,6.9561,8.27,6.668,8.3662,6.4092
		C8.4634,6.1504,8.751,6.019,9.0093,6.1147l14.6235,5.4399c0.2588,0.0962,0.3896,0.3843,0.2939,0.6436
		C23.8516,12.3994,23.6611,12.5234,23.458,12.5234z"/>
	<path d="M0.5503,16.1074c-0.2222,0-0.4253-0.1494-0.4834-0.375c-0.0693-0.2676,0.0913-0.54,0.3589-0.6094l9.9634-2.5771
		c0.2676-0.0684,0.54,0.0918,0.6089,0.3594c0.0693,0.2676-0.0913,0.54-0.3589,0.6094l-9.9634,2.5771
		C0.6338,16.1025,0.5918,16.1074,0.5503,16.1074z"/>
</g>
<rect x="0.0142" y="0.0354" fill="none" width="24" height="24"/>
</svg>
