<?xml version="1.0" encoding="utf-8"?>
<!-- Generator: Adobe Illustrator 18.1.0, SVG Export Plug-In . SVG Version: 6.00 Build 0)  -->
<svg version="1.1" id="Layer_1" xmlns="http://www.w3.org/2000/svg" xmlns:xlink="http://www.w3.org/1999/xlink" x="0px" y="0px"
	 width="24px" height="24px" viewBox="0 0 24 24" enable-background="new 0 0 24 24" xml:space="preserve">
<g>
	<path d="M8.6118,24.0156c-0.1069,0-0.2134-0.002-0.3174-0.0039l-0.3081-0.0029c-0.8394,0-1.5225-0.6826-1.5225-1.5225
		l0.3394-2.0684c-1.4839,0.0615-2.9453-0.5312-3.9395-1.6504l-1.3364-0.3643c-0.8999-0.249-0.9663-0.8281-1.0869-1.8809
		c-0.0366-0.3164-0.0811-0.7051-0.1523-1.1875c-0.0054-0.3066,0.085-0.876,0.9209-1.1201l0.8091-0.3252
		c0.5396-1.3184,1.6572-2.3311,3.0337-2.7695L4.0039,9.1108c-0.0371-0.0713-0.0566-0.1504-0.0566-0.231
		c0-0.582,0.3379-0.9844,0.8813-1.0503c1.0806-0.1333,3.1172,1.248,3.9331,2.5122c0.3174-0.2466,0.6567-0.4653,1.0142-0.6543
		c0.2441-0.1279,0.5464-0.0352,0.6758,0.209c0.1289,0.2441,0.0352,0.5464-0.209,0.6758c-0.478,0.252-0.9175,0.5674-1.3066,0.937
		c-0.1289,0.1226-0.3125,0.1655-0.4849,0.1172c-0.1709-0.0503-0.3022-0.1875-0.3447-0.3608
		c-0.1519-0.6162-1.207-1.6284-2.2588-2.166c-0.4663-0.2378-0.728-0.2739-0.8682-0.2803l1.2524,2.4019
		c0.0737,0.1411,0.0757,0.3091,0.0054,0.4517c-0.0703,0.1431-0.2046,0.2437-0.3613,0.2715
		c-1.3936,0.2471-2.542,1.2031-2.9971,2.4941c-0.0479,0.1367-0.1523,0.2451-0.2866,0.2988l-1.0581,0.4219
		c-0.2148,0.0645-0.2578,0.1162-0.2583,0.1162c0.0747,0.4082,0.1206,0.8086,0.1577,1.1328
		c0.1108,0.9619,0.1108,0.9619,0.3584,1.0312l1.4824,0.4033c0.0991,0.0273,0.1875,0.084,0.2534,0.1631
		c0.9111,1.0967,2.3613,1.6113,3.7842,1.3486c0.1621-0.0312,0.3257,0.0205,0.4419,0.1338c0.1167,0.1143,0.1699,0.2783,0.1431,0.4395
		L7.457,22.5684c0.0068,0.2061,0.2412,0.4404,0.5293,0.4404l0.3237,0.0039c0.4658,0.0039,1.0449,0.0156,1.2329-0.1689
		c0.0659-0.0645,0.0996-0.1846,0.0996-0.3574l0.1382-1.2734c0.019-0.1689,0.1226-0.3164,0.2749-0.3926
		c0.1533-0.0742,0.3335-0.0684,0.4795,0.0195c1.147,0.6875,3.9775,0.5898,5.1045,0.0059c0.1436-0.0752,0.3145-0.0742,0.458-0.002
		c0.1445,0.0742,0.2441,0.2129,0.2676,0.373l0.1748,1.1973c0.0049,0.3604,0.2393,0.5947,0.5283,0.5947h0.6924
		c0.4131,0,0.9619-0.3584,0.9619-0.5225l-0.4365-3.9893c-0.0107-0.0996,0.0088-0.2012,0.0566-0.29
		c0.2988-0.5576,0.499-1.1611,0.5947-1.7949c0.2285-2.2764-0.6729-4.2588-2.5391-5.5576c-0.2275-0.1577-0.2832-0.4697-0.125-0.6963
		s0.4707-0.2817,0.6953-0.125c2.1787,1.5161,3.2305,3.8252,2.96,6.5029c-0.1064,0.7178-0.3184,1.3848-0.6318,2.0039l0.4229,3.8926
		c0.0029,0.9688-1.1777,1.5762-1.959,1.5762h-0.6924c-0.8398,0-1.5234-0.6826-1.5234-1.5225l-0.0752-0.501
		c-1.335,0.416-3.3926,0.4707-4.77,0.0146l-0.0601,0.542c0.0029,0.3945-0.1309,0.7549-0.3955,1.0146
		C9.832,23.9629,9.21,24.0156,8.6118,24.0156z"/>
	<path d="M13.4785,9.9961c-2.4678,0-4.4751-2.0073-4.4751-4.4751s2.0073-4.4751,4.4751-4.4751s4.4756,2.0073,4.4756,4.4751
		S15.9463,9.9961,13.4785,9.9961z M13.4785,2.0459c-1.916,0-3.4751,1.5591-3.4751,3.4751s1.5591,3.4751,3.4751,3.4751
		s3.4756-1.5591,3.4756-3.4751S15.3945,2.0459,13.4785,2.0459z"/>
	<path d="M19.2949,14.6865c-0.1875,0-0.3682-0.1064-0.4531-0.2881c-0.1172-0.25-0.0088-0.5479,0.2412-0.665
		c0.4443-0.208,0.8857-0.4824,1.2588-0.7832c-0.2529-0.2383-0.4912-0.5859-0.666-1.0908c-0.3799-1.0962-0.1484-1.668,0.1123-1.9541
		c0.2705-0.2974,0.6768-0.4053,1.1104-0.2988c0.6416,0.1572,1.1992,0.748,1.3887,1.4702c0.1152,0.4409,0.042,0.8701-0.1494,1.271
		c0.3428-0.1475,0.6455-0.417,0.792-0.6865c0.1309-0.2437,0.4355-0.3315,0.6777-0.2021c0.2422,0.1313,0.333,0.4351,0.2012,0.6777
		c-0.3779,0.7002-1.333,1.4121-2.3428,1.3174c-0.0508-0.0039-0.1064-0.0107-0.165-0.0205c-0.5762,0.54-1.2773,0.9639-1.7939,1.2061
		C19.4385,14.6719,19.3662,14.6865,19.2949,14.6865z M20.5801,10.5669c-0.0273,0-0.0469,0.0044-0.0537,0.0122
		c-0.0469,0.0522-0.123,0.3252,0.0947,0.9531c0.1084,0.3145,0.25,0.5498,0.4229,0.7051c0.2334-0.3193,0.3477-0.6353,0.2764-0.9072
		c-0.1094-0.4141-0.415-0.6924-0.6602-0.7524C20.6299,10.5698,20.6016,10.5669,20.5801,10.5669z"/>
	<path d="M5.4199,14.9902c-0.1299,0-0.2603-0.0508-0.3501-0.1406c-0.1001-0.0996-0.1499-0.2295-0.1499-0.3594
		c0-0.1406,0.0498-0.2705,0.1401-0.3604c0.1997-0.1904,0.5195-0.1797,0.71,0c0.0898,0.0996,0.1499,0.2295,0.1499,0.3604
		c0,0.1299-0.0503,0.2598-0.1499,0.3496C5.6699,14.9395,5.5498,14.9902,5.4199,14.9902z"/>
	<path d="M13.4531,7.668c-0.4561,0-1.0322-0.2344-1.4336-0.5835c-0.2085-0.1812-0.2305-0.4971-0.0493-0.7056
		c0.1821-0.208,0.4976-0.2305,0.7056-0.0493c0.2324,0.2026,0.5898,0.3384,0.7773,0.3384c0.2568,0,0.4746-0.1616,0.4746-0.3525
		c0-0.1675-0.3857-0.3057-0.6152-0.3726c-0.3711-0.1167-1.334-0.4189-1.334-1.3325c0-0.7456,0.6611-1.3525,1.4746-1.3525
		c0.5156,0,1.001,0.2515,1.2656,0.6562c0.1504,0.231,0.0859,0.5405-0.1455,0.6919c-0.2295,0.1499-0.54,0.0874-0.6924-0.145
		c-0.1934-0.2998-0.9014-0.1748-0.9023,0.1494c0,0.0444,0,0.1797,0.624,0.3755c0.876,0.2563,1.3252,0.7046,1.3252,1.3296
		C14.9277,7.061,14.2666,7.668,13.4531,7.668z"/>
	<path d="M13.4531,4.2578c-0.2764,0-0.5-0.2236-0.5-0.5V3.292c0-0.2764,0.2236-0.5,0.5-0.5s0.5,0.2236,0.5,0.5v0.4658
		C13.9531,4.0342,13.7295,4.2578,13.4531,4.2578z"/>
	<path d="M13.4531,8.1338c-0.2764,0-0.5-0.2236-0.5-0.5V7.168c0-0.2764,0.2236-0.5,0.5-0.5s0.5,0.2236,0.5,0.5v0.4658
		C13.9531,7.9102,13.7295,8.1338,13.4531,8.1338z"/>
</g>
<rect x="-0.0137" y="0.0031" fill="none" width="24" height="24"/>
<rect x="-0.0137" fill="none" width="24" height="24"/>
</svg>
