<?xml version="1.0" encoding="utf-8"?>
<!-- Generator: Adobe Illustrator 18.1.0, SVG Export Plug-In . SVG Version: 6.00 Build 0)  -->
<svg version="1.1" id="Layer_1" xmlns="http://www.w3.org/2000/svg" xmlns:xlink="http://www.w3.org/1999/xlink" x="0px" y="0px"
	 width="24px" height="24px" viewBox="0 0 24 24" enable-background="new 0 0 24 24" xml:space="preserve">
<g>
	<path d="M12.4795,17.248c-0.2764,0-0.5-0.2236-0.5-0.5v-2.3223c0-0.2764,0.2236-0.5,0.5-0.5s0.5,0.2236,0.5,0.5v2.3223
		C12.9795,17.0244,12.7559,17.248,12.4795,17.248z"/>
	<path d="M14.4912,17.5576c-0.2764,0-0.5-0.2236-0.5-0.5v-1.9961c0-0.2764,0.2236-0.5,0.5-0.5s0.5,0.2236,0.5,0.5v1.9961
		C14.9912,17.334,14.7676,17.5576,14.4912,17.5576z"/>
	<path d="M10.978,23.8242c-0.1582,0-0.3135-0.0742-0.4106-0.2139l-0.3247-0.4561c-1.9102-2.6631-3.6382-5.3154-3.3467-6.6719
		c0.0708-0.3301,0.2539-0.5889,0.5288-0.748c0.3765-0.2168,0.7827-0.248,1.1772-0.0938c0.5381,0.2119,0.9985,0.7676,1.3667,1.3887
		v-6.4766c-0.0005-1.437,1.7134-1.7734,2.5186-1.0957c0.3174,0.2671,0.4922,0.6558,0.4922,1.0957v2.501
		c0.5244-0.167,1.124-0.0557,1.5195,0.2764c0.1396,0.1182,0.252,0.2598,0.334,0.4189c0.5547-0.2422,1.2422-0.1494,1.6768,0.2168
		c0.3174,0.2666,0.4922,0.6562,0.4922,1.0957v1.3154c0,0.2764-0.2236,0.5-0.5,0.5s-0.5-0.2236-0.5-0.5v-1.3154
		c0-0.1455-0.0439-0.2529-0.1357-0.3301c-0.0908-0.0762-0.2246-0.1201-0.3682-0.1201c-0.085,0-0.5068,0.0215-0.5068,0.4502
		c0,0.2764-0.2236,0.5-0.5,0.5s-0.5-0.2236-0.5-0.5v-0.6357c0-0.1455-0.0439-0.2529-0.1357-0.3301
		c-0.0908-0.0762-0.2256-0.1201-0.3691-0.1201c-0.085,0-0.5068,0.0215-0.5068,0.4502c0,0.2764-0.2236,0.5-0.5,0.5
		s-0.5-0.2236-0.5-0.5v-3.873c0-0.1455-0.0444-0.2534-0.1357-0.3301c-0.0903-0.0767-0.2251-0.1201-0.3687-0.1201
		c-0.0845,0-0.5063,0.0215-0.5063,0.4502v8.9043c0,0.248-0.1816,0.458-0.4263,0.4941c-0.2441,0.0391-0.48-0.1113-0.5522-0.3486
		c-0.3359-1.1045-1.1025-2.7744-1.7549-3.0312c-0.1094-0.0439-0.1982-0.0342-0.3086,0.0283
		c-0.0161,0.0088-0.0376,0.0215-0.0532,0.0928c-0.1582,0.7373,0.9121,2.7148,3.1821,5.8789l0.332,0.4668
		c0.1577,0.2266,0.1025,0.5381-0.124,0.6963C11.1763,23.7949,11.0767,23.8242,10.978,23.8242z"/>
	<path d="M17.4463,23.8242c-0.0566,0-0.1143-0.0098-0.1699-0.0293c-0.2598-0.0947-0.3945-0.3809-0.3008-0.6406
		c1.1738-3.2471,1.04-6.7207,1.0381-6.7559c0-0.4502-0.4219-0.4717-0.5059-0.4717s-0.5049,0.0215-0.5049,0.4502v1.0254
		c0,0.2764-0.2236,0.5-0.5,0.5s-0.5-0.2236-0.5-0.5V16.377c0-1.9043,3.0107-1.9043,3.0107,0
		c0.0059,0.1279,0.1426,3.6865-1.0967,7.1172C17.8428,23.6973,17.6514,23.8242,17.4463,23.8242z"/>
	<path d="M12.4795,17.248c-0.2764,0-0.5-0.2236-0.5-0.5v-2.3223c0-0.2764,0.2236-0.5,0.5-0.5s0.5,0.2236,0.5,0.5v2.3223
		C12.9795,17.0244,12.7559,17.248,12.4795,17.248z"/>
	<path d="M14.4912,17.5576c-0.2764,0-0.5-0.2236-0.5-0.5v-1.9961c0-0.2764,0.2236-0.5,0.5-0.5s0.5,0.2236,0.5,0.5v1.9961
		C14.9912,17.334,14.7676,17.5576,14.4912,17.5576z"/>
	<path d="M10.978,23.8242c-0.1582,0-0.3135-0.0742-0.4106-0.2139l-0.3247-0.4561c-1.9102-2.6631-3.6382-5.3154-3.3467-6.6719
		c0.0708-0.3301,0.2539-0.5889,0.5288-0.748c0.3765-0.2168,0.7827-0.248,1.1772-0.0938c0.5381,0.2119,0.9985,0.7676,1.3667,1.3887
		v-6.4766c-0.0005-1.437,1.7134-1.7734,2.5186-1.0957c0.3174,0.2671,0.4922,0.6558,0.4922,1.0957v2.501
		c0.5244-0.167,1.124-0.0557,1.5195,0.2764c0.1396,0.1182,0.252,0.2598,0.334,0.4189c0.5547-0.2422,1.2422-0.1494,1.6768,0.2168
		c0.3174,0.2666,0.4922,0.6562,0.4922,1.0957v1.3154c0,0.2764-0.2236,0.5-0.5,0.5s-0.5-0.2236-0.5-0.5v-1.3154
		c0-0.1455-0.0439-0.2529-0.1357-0.3301c-0.0908-0.0762-0.2246-0.1201-0.3682-0.1201c-0.085,0-0.5068,0.0215-0.5068,0.4502
		c0,0.2764-0.2236,0.5-0.5,0.5s-0.5-0.2236-0.5-0.5v-0.6357c0-0.1455-0.0439-0.2529-0.1357-0.3301
		c-0.0908-0.0762-0.2256-0.1201-0.3691-0.1201c-0.085,0-0.5068,0.0215-0.5068,0.4502c0,0.2764-0.2236,0.5-0.5,0.5
		s-0.5-0.2236-0.5-0.5v-3.873c0-0.1455-0.0444-0.2534-0.1357-0.3301c-0.0903-0.0767-0.2251-0.1201-0.3687-0.1201
		c-0.0845,0-0.5063,0.0215-0.5063,0.4502v8.9043c0,0.248-0.1816,0.458-0.4263,0.4941c-0.2441,0.0391-0.48-0.1113-0.5522-0.3486
		c-0.3359-1.1045-1.1025-2.7744-1.7549-3.0312c-0.1094-0.0439-0.1982-0.0342-0.3086,0.0283
		c-0.0161,0.0088-0.0376,0.0215-0.0532,0.0928c-0.1582,0.7373,0.9121,2.7148,3.1821,5.8789l0.332,0.4668
		c0.1577,0.2266,0.1025,0.5381-0.124,0.6963C11.1763,23.7949,11.0767,23.8242,10.978,23.8242z"/>
	<path d="M17.4463,23.8242c-0.0566,0-0.1143-0.0098-0.1699-0.0293c-0.2598-0.0947-0.3945-0.3809-0.3008-0.6406
		c1.1738-3.2471,1.04-6.7207,1.0381-6.7559c0-0.4502-0.4219-0.4717-0.5059-0.4717s-0.5049,0.0215-0.5049,0.4502v1.0254
		c0,0.2764-0.2236,0.5-0.5,0.5s-0.5-0.2236-0.5-0.5V16.377c0-1.9043,3.0107-1.9043,3.0107,0
		c0.0059,0.1279,0.1426,3.6865-1.0967,7.1172C17.8428,23.6973,17.6514,23.8242,17.4463,23.8242z"/>
	<g>
		<path d="M6.6108,3.2983c-0.8701,0-1.5781-0.708-1.5781-1.5786c0-0.8701,0.708-1.5781,1.5781-1.5781
			c0.8706,0,1.5786,0.708,1.5786,1.5781C8.1895,2.5903,7.4814,3.2983,6.6108,3.2983z M6.6108,1.1416
			c-0.3188,0-0.5781,0.2593-0.5781,0.5781S6.292,2.2983,6.6108,2.2983s0.5786-0.2598,0.5786-0.5786S6.9297,1.1416,6.6108,1.1416z"/>
		<path d="M11.4058,3.2983c-0.8701,0-1.5781-0.708-1.5781-1.5786c0-0.8701,0.708-1.5781,1.5781-1.5781
			c0.8706,0,1.5786,0.708,1.5786,1.5781C12.9844,2.5903,12.2764,3.2983,11.4058,3.2983z M11.4058,1.1416
			c-0.3188,0-0.5781,0.2593-0.5781,0.5781s0.2593,0.5786,0.5781,0.5786s0.5786-0.2598,0.5786-0.5786S11.7246,1.1416,11.4058,1.1416z
			"/>
		<path d="M16.2002,3.2983c-0.8701,0-1.5781-0.708-1.5781-1.5786c0-0.8701,0.708-1.5781,1.5781-1.5781
			c0.8711,0,1.5791,0.708,1.5791,1.5781C17.7793,2.5903,17.0713,3.2983,16.2002,3.2983z M16.2002,1.1416
			c-0.3184,0-0.5781,0.2593-0.5781,0.5781s0.2598,0.5786,0.5781,0.5786c0.3193,0,0.5791-0.2598,0.5791-0.5786
			S16.5195,1.1416,16.2002,1.1416z"/>
		<path d="M6.6108,7.6221c-0.8701,0-1.5781-0.708-1.5781-1.5781c0-0.8706,0.708-1.5786,1.5781-1.5786
			c0.8706,0,1.5786,0.708,1.5786,1.5786C8.1895,6.9141,7.4814,7.6221,6.6108,7.6221z M6.6108,5.4653
			c-0.3188,0-0.5781,0.2598-0.5781,0.5786S6.292,6.6221,6.6108,6.6221s0.5786-0.2593,0.5786-0.5781S6.9297,5.4653,6.6108,5.4653z"/>
		<path d="M11.4058,7.6221c-0.8701,0-1.5781-0.708-1.5781-1.5781c0-0.8706,0.708-1.5786,1.5781-1.5786
			c0.8706,0,1.5786,0.708,1.5786,1.5786C12.9844,6.9141,12.2764,7.6221,11.4058,7.6221z M11.4058,5.4653
			c-0.3188,0-0.5781,0.2598-0.5781,0.5786s0.2593,0.5781,0.5781,0.5781s0.5786-0.2593,0.5786-0.5781S11.7246,5.4653,11.4058,5.4653z
			"/>
		<path d="M16.2002,7.6221c-0.8701,0-1.5781-0.708-1.5781-1.5781c0-0.8706,0.708-1.5786,1.5781-1.5786
			c0.8711,0,1.5791,0.708,1.5791,1.5786C17.7793,6.9141,17.0713,7.6221,16.2002,7.6221z M16.2002,5.4653
			c-0.3184,0-0.5781,0.2598-0.5781,0.5786s0.2598,0.5781,0.5781,0.5781c0.3193,0,0.5791-0.2593,0.5791-0.5781
			S16.5195,5.4653,16.2002,5.4653z"/>
		<path d="M6.6108,11.9463c-0.8701,0-1.5781-0.708-1.5781-1.5786c0-0.8701,0.708-1.5781,1.5781-1.5781
			c0.8706,0,1.5786,0.708,1.5786,1.5781C8.1895,11.2383,7.4814,11.9463,6.6108,11.9463z M6.6108,9.7896
			c-0.3188,0-0.5781,0.2593-0.5781,0.5781s0.2593,0.5786,0.5781,0.5786s0.5786-0.2598,0.5786-0.5786S6.9297,9.7896,6.6108,9.7896z"
			/>
		<path d="M16.2002,11.9463c-0.8701,0-1.5781-0.708-1.5781-1.5786c0-0.8701,0.708-1.5781,1.5781-1.5781
			c0.8711,0,1.5791,0.708,1.5791,1.5781C17.7793,11.2383,17.0713,11.9463,16.2002,11.9463z M16.2002,9.7896
			c-0.3184,0-0.5781,0.2593-0.5781,0.5781s0.2598,0.5786,0.5781,0.5786c0.3193,0,0.5791-0.2598,0.5791-0.5786
			S16.5195,9.7896,16.2002,9.7896z"/>
	</g>
</g>
<rect x="0.0293" fill="none" width="24" height="24"/>
</svg>
