<?xml version="1.0" encoding="utf-8"?>
<!-- Generator: Adobe Illustrator 18.1.0, SVG Export Plug-In . SVG Version: 6.00 Build 0)  -->
<svg version="1.1" id="Layer_1" xmlns="http://www.w3.org/2000/svg" xmlns:xlink="http://www.w3.org/1999/xlink" x="0px" y="0px"
	 width="24px" height="24px" viewBox="0 0 24 24" enable-background="new 0 0 24 24" xml:space="preserve">
<g>
	<path d="M18.373,20.25c-0.1191,0-0.2402-0.0254-0.3496-0.0742c-0.1182-0.0527-0.1719-0.0771-4.8623-4.7363l-0.1152-0.1143
		c-0.1924-0.1924-0.2979-0.2969-0.2695-4.2324l0.001-0.1919c-0.002-0.4614,0.373-0.8428,0.8359-0.8496l3.833-0.0181
		c0.2266,0,0.4385,0.0864,0.5977,0.2441l4.7275,4.6816c0.1602,0.1582,0.25,0.3701,0.251,0.5967s-0.0859,0.4395-0.2461,0.6006
		L18.9688,20c-0.1182,0.1182-0.2734,0.1914-0.3721,0.2197C18.5527,20.2324,18.4189,20.25,18.373,20.25z M13.8408,14.7051
		l0.0254,0.0254c3.1768,3.1562,4.1963,4.1494,4.5225,4.46l3.5703-3.6289l-4.5723-4.5278l-3.6104,0.0659
		C13.7578,13.6768,13.8076,14.4648,13.8408,14.7051z"/>
	<path d="M15.3516,13.9609c-0.708,0-1.2832-0.5752-1.2832-1.2832c0-0.7075,0.5752-1.2832,1.2832-1.2832s1.2832,0.5757,1.2832,1.2832
		C16.6348,13.3857,16.0596,13.9609,15.3516,13.9609z M15.3516,12.3945c-0.1562,0-0.2832,0.127-0.2832,0.2832
		s0.127,0.2832,0.2832,0.2832s0.2832-0.127,0.2832-0.2832S15.5078,12.3945,15.3516,12.3945z"/>
	<path d="M18.5137,24.042H3.5264c-0.2764,0-0.5-0.2236-0.5-0.5V5.5542c0-0.2764,0.2236-0.5,0.5-0.5h14.9873
		c0.2764,0,0.5,0.2236,0.5,0.5v2.8076c0,0.2764-0.2236,0.5-0.5,0.5s-0.5-0.2236-0.5-0.5V6.0542H4.0264V23.042h13.9873v-1.4688
		c0-0.2764,0.2236-0.5,0.5-0.5s0.5,0.2236,0.5,0.5v1.9688C19.0137,23.8184,18.79,24.042,18.5137,24.042z"/>
	<path d="M14.4863,8.0229c-0.2764,0-0.5-0.2236-0.5-0.5V4.189c0-1.7285-1.333-3.189-2.9111-3.189
		C9.4014,1,7.9863,2.4902,7.9863,4.189v3.334c0,0.2764-0.2236,0.5-0.5,0.5s-0.5-0.2236-0.5-0.5V4.189
		C6.9863,1.9185,8.8311,0,11.0142,0c2.2173,0,3.9722,1.8794,3.9722,4.189v3.334C14.9863,7.7993,14.7627,8.0229,14.4863,8.0229z"/>
</g>
<rect x="-0.0136" fill="none" width="24" height="24"/>
</svg>
