<?xml version="1.0" encoding="utf-8"?>
<!-- Generator: Adobe Illustrator 18.1.0, SVG Export Plug-In . SVG Version: 6.00 Build 0)  -->
<svg version="1.1" id="Layer_1" xmlns="http://www.w3.org/2000/svg" xmlns:xlink="http://www.w3.org/1999/xlink" x="0px" y="0px"
	 width="24px" height="24px" viewBox="0 0 24 24" enable-background="new 0 0 24 24" xml:space="preserve">
<g>
	<path d="M12.0146,9.9219c-0.1519,0-0.2954-0.0688-0.3901-0.1875L6.9053,3.8447C6.7734,3.6802,6.7588,3.4502,6.8691,3.2705
		l1.8149-2.9556C8.7754,0.167,8.9365,0.0767,9.1104,0.0767h5.8076c0.1738,0,0.335,0.0903,0.4258,0.2383l1.8145,2.9556
		c0.1104,0.1797,0.0967,0.4097-0.0352,0.5742l-4.7178,5.8896C12.3096,9.853,12.166,9.9219,12.0146,9.9219z M7.9058,3.4941
		l4.1089,5.1279l4.1074-5.1279l-1.4834-2.4175H9.3901L7.9058,3.4941z"/>
	<path d="M16.7324,4.0322h-9.437c-0.2764,0-0.5-0.2236-0.5-0.5s0.2236-0.5,0.5-0.5h9.437c0.2764,0,0.5,0.2236,0.5,0.5
		S17.0088,4.0322,16.7324,4.0322z"/>
	<path d="M12.0146,9.9219c-0.2178,0-0.418-0.1431-0.481-0.3628L9.8506,3.6694C9.814,3.5405,9.8306,3.4019,9.897,3.2847
		l1.6831-2.9556c0.1372-0.2397,0.4424-0.3232,0.6816-0.187c0.2402,0.1367,0.3242,0.4419,0.1875,0.6821l-1.5791,2.7729l1.625,5.6875
		c0.0762,0.2651-0.0771,0.542-0.3428,0.6182C12.1064,9.9155,12.0596,9.9219,12.0146,9.9219z"/>
	<path d="M12.0146,9.9219c-0.0454,0-0.0913-0.0063-0.1372-0.019c-0.2656-0.0762-0.4194-0.353-0.3438-0.6182l1.6255-5.6875
		l-1.5791-2.7729c-0.1367-0.2402-0.0527-0.5454,0.187-0.6821c0.2397-0.1353,0.5454-0.0527,0.6821,0.187l1.6826,2.9556
		c0.0664,0.1172,0.083,0.2559,0.0459,0.3848l-1.6826,5.8896C12.4326,9.7788,12.2324,9.9219,12.0146,9.9219z"/>
	<path d="M12.0146,23.8818c-4.2002,0-7.6172-3.417-7.6172-7.6162c0-3.3838,2.1763-6.313,5.415-7.29
		c0.2656-0.0796,0.5439,0.0698,0.623,0.334c0.0801,0.2646-0.0698,0.5435-0.334,0.623c-2.7695,0.8354-4.7041,3.4395-4.7041,6.333
		c0,3.6484,2.9683,6.6162,6.6172,6.6162c3.6484,0,6.6162-2.9678,6.6162-6.6162c0-2.8936-1.9346-5.4976-4.7041-6.333
		c-0.2646-0.0796-0.4141-0.3584-0.334-0.623c0.0801-0.2642,0.3623-0.4131,0.623-0.334c3.1885,0.9614,5.415,3.959,5.415,7.29
		C19.6309,20.4648,16.2139,23.8818,12.0146,23.8818z"/>
</g>
<rect x="0.0142" y="0.0344" fill="none" width="24" height="24"/>
</svg>
