<?xml version="1.0" encoding="utf-8"?>
<!-- Generator: Adobe Illustrator 18.1.0, SVG Export Plug-In . SVG Version: 6.00 Build 0)  -->
<svg version="1.1" id="Layer_1" xmlns="http://www.w3.org/2000/svg" xmlns:xlink="http://www.w3.org/1999/xlink" x="0px" y="0px"
	 width="24px" height="24px" viewBox="0 0 24 24" enable-background="new 0 0 24 24" xml:space="preserve">
<g>
	<path d="M21.8018,21h-8.626c-0.1514,0-0.2939-0.0684-0.3896-0.1865c-0.0947-0.1172-0.1309-0.2715-0.0986-0.4199l0.4844-2.2266
		c0.0586-0.2686,0.3232-0.4404,0.5947-0.3818c0.2695,0.0586,0.4404,0.3252,0.3818,0.5947L13.7959,20h7.3848L17.4814,3.0312
		l-2.0459,9.0791c-0.0596,0.2686-0.3223,0.4434-0.5977,0.377c-0.2686-0.0605-0.4385-0.3281-0.377-0.5972l2.541-11.2793
		c0.0508-0.228,0.2539-0.3901,0.4873-0.3901c0.2295-0.0361,0.4385,0.1631,0.4883,0.3936L22.29,20.3936
		c0.0322,0.1475-0.0039,0.3027-0.0986,0.4199C22.0967,20.9316,21.9531,21,21.8018,21z"/>
	<path d="M11.2495,19.5889c-0.9067,0-1.8057-0.2861-2.5952-0.8496c-0.2251-0.1611-0.2769-0.4736-0.1162-0.6982
		s0.4741-0.2754,0.6973-0.1162c1.0986,0.7861,2.4097,0.8838,3.5996,0.2715c1.3564-0.6982,2.1992-2.1611,2.1992-3.8193
		c0-1.9287-1.1729-3.605-2.8516-4.0767c-0.1895-0.0532-0.3301-0.2134-0.3589-0.4087c-0.3369-2.2856-2.0894-3.9448-4.167-3.9448
		c-1.2397,0-2.4121,0.6035-3.2163,1.6558c-0.938,1.2266-1.248,2.8794-0.8296,4.4209c0.0576,0.2129-0.0303,0.4375-0.2173,0.5547
		c-1.5645,0.9795-1.6143,2.876-0.8667,4.1631c0.5635,0.9707,1.7515,1.8174,3.2441,1.0176c0.2456-0.1299,0.5464-0.0391,0.6772,0.2041
		s0.0396,0.5459-0.2036,0.6768c-1.9878,1.0684-3.7329,0.0684-4.5825-1.3965C0.7285,15.6357,0.7598,13.293,2.562,11.937
		c-0.3662-1.7378,0.0288-3.5615,1.084-4.9419c0.9951-1.3018,2.457-2.0483,4.0107-2.0483c2.481,0,4.5825,1.8696,5.103,4.4883
		c1.9434,0.6992,3.2744,2.6841,3.2744,4.9419c0,2.0342-1.0508,3.8389-2.7412,4.709C12.6377,19.4219,11.9414,19.5889,11.2495,19.5889
		z"/>
	<path d="M17.4893,23.9492c-0.2764,0-0.5-0.2236-0.5-0.5v-5.9678c0-0.2764,0.2236-0.5,0.5-0.5s0.5,0.2236,0.5,0.5v5.9678
		C17.9893,23.7256,17.7656,23.9492,17.4893,23.9492z"/>
	<path d="M7.4888,23.9492c-0.2764,0-0.5-0.2236-0.5-0.5V10.5181c0-0.2764,0.2236-0.5,0.5-0.5s0.5,0.2236,0.5,0.5v12.9312
		C7.9888,23.7256,7.7651,23.9492,7.4888,23.9492z"/>
	<path d="M7.5312,17.6992c-0.0229,0-0.0464-0.002-0.0698-0.0049c-0.2734-0.0381-0.4644-0.291-0.4258-0.5645
		c0.0166-0.1182,0.4253-2.9062,2.127-3.9502c0.73-0.4492,1.5708-0.5156,2.4971-0.1953c0.2612,0.0898,0.3999,0.374,0.3101,0.6348
		c-0.0894,0.2617-0.374,0.4014-0.6353,0.3105c-0.6401-0.2188-1.1787-0.1865-1.6489,0.1025
		c-1.0825,0.6631-1.5649,2.5615-1.6597,3.2363C7.9907,17.5186,7.7769,17.6992,7.5312,17.6992z"/>
	<path d="M7.5312,16.3652c-0.1899,0-0.3711-0.1084-0.4551-0.292c-0.2505-0.5459-0.9683-1.708-1.5913-1.8164
		c-0.1255-0.0234-0.3174-0.0176-0.5874,0.2588c-0.1924,0.1992-0.5093,0.2012-0.707,0.0078
		c-0.1973-0.1934-0.2007-0.5098-0.0078-0.707c0.5547-0.5674,1.1069-0.6104,1.4751-0.5449c1.3101,0.2295,2.2275,2.166,2.3281,2.3867
		c0.1143,0.251,0.0034,0.5469-0.2476,0.6611C7.6714,16.3506,7.6006,16.3652,7.5312,16.3652z"/>
</g>
<rect x="-0.0113" fill="none" width="24" height="24"/>
</svg>
