<?xml version="1.0" encoding="utf-8"?>
<!-- Generator: Adobe Illustrator 18.1.0, SVG Export Plug-In . SVG Version: 6.00 Build 0)  -->
<svg version="1.1" id="Layer_1" xmlns="http://www.w3.org/2000/svg" xmlns:xlink="http://www.w3.org/1999/xlink" x="0px" y="0px"
	 width="24px" height="24px" viewBox="0 0 24 24" enable-background="new 0 0 24 24" xml:space="preserve">
<g>
	<path d="M11.3286,19.5098c-1.5952,0-3.0767-0.3301-3.1392-0.3447c-0.188-0.042-0.335-0.1895-0.3774-0.377
		c-0.0415-0.1836-1-4.5234,0.4893-6.3857c0.5488-0.687,1.3643-0.9824,2.3711-0.8345c0.4058-1.355,1.6772-4.9565,3.7163-4.9565
		c0.3721,0,0.7383,0.1172,1.0947,0.3496c0.7422-1.2891,2.9541-4.189,7.9629-3.9004c0.2539,0.0142,0.457,0.2168,0.4707,0.4707
		c0.2773,4.9214-2.624,7.1963-3.9062,7.9556c0.4102,0.6284,0.3975,1.1851,0.292,1.5728c-0.4805,1.7617-3.6475,2.873-4.8926,3.2461
		c0.1133,0.7861-0.0332,1.4473-0.4385,1.9717C14.3379,19.0947,13.1123,19.5098,11.3286,19.5098z M8.7227,18.252
		c0.502,0.0938,1.5396,0.2578,2.606,0.2578c1.438,0,2.4243-0.292,2.8521-0.8447c0.29-0.375,0.3438-0.8945,0.1631-1.5889
		c-0.0693-0.2676,0.0918-0.54,0.3584-0.6094c1.627-0.4248,4.3232-1.5244,4.6357-2.6699c0.0352-0.1279,0.1406-0.5176-0.4551-1.1157
		c-0.1191-0.1187-0.1689-0.2891-0.1357-0.4536c0.0342-0.1641,0.1484-0.3013,0.3037-0.3638c0.166-0.0669,3.958-1.6562,3.8838-6.8213
		c-5.208-0.0537-6.7559,3.7246-6.8213,3.8848c-0.0625,0.1558-0.1992,0.27-0.3633,0.3037c-0.1699,0.0347-0.3359-0.0171-0.4541-0.1353
		c-0.3213-0.3213-0.627-0.4844-0.9072-0.4844c-1.2568,0-2.481,3.1421-2.877,4.6641c-0.0698,0.2666-0.3438,0.4248-0.6094,0.3584
		c-0.834-0.2178-1.4307-0.0957-1.8198,0.3926C8.1758,14.1592,8.4722,16.9365,8.7227,18.252z"/>
	<path d="M5.4604,22.0176c-0.1279,0-0.2559-0.0488-0.3535-0.1465c-0.1953-0.1953-0.1953-0.5117,0-0.707l2.8394-2.8398
		c0.1953-0.1953,0.5117-0.1953,0.707,0s0.1953,0.5117,0,0.707L5.814,21.8711C5.7163,21.9688,5.5884,22.0176,5.4604,22.0176z"/>
	<path d="M10.4692,17.0088c-0.1279,0-0.2559-0.0488-0.3535-0.1465c-0.1953-0.1953-0.1953-0.5117,0-0.707l5.481-5.481
		c0.1953-0.1953,0.5117-0.1953,0.707,0s0.1953,0.5117,0,0.707l-5.481,5.481C10.7251,16.96,10.5972,17.0088,10.4692,17.0088z"/>
	<path d="M3.4873,22.0176H0.5728c-0.2764,0-0.5-0.2236-0.5-0.5s0.2236-0.5,0.5-0.5h2.9146c0.2764,0,0.5,0.2236,0.5,0.5
		S3.7637,22.0176,3.4873,22.0176z"/>
</g>
<rect y="-0.0001" fill="none" width="24" height="24"/>
</svg>
