<?xml version="1.0" encoding="utf-8"?>
<!-- Generator: Adobe Illustrator 18.1.0, SVG Export Plug-In . SVG Version: 6.00 Build 0)  -->
<svg version="1.1" id="Layer_1" xmlns="http://www.w3.org/2000/svg" xmlns:xlink="http://www.w3.org/1999/xlink" x="0px" y="0px"
	 width="24px" height="24px" viewBox="0 0 24 24" enable-background="new 0 0 24 24" xml:space="preserve">
<g>
	<path d="M23.498,20.999h-1.9863c-0.2764,0-0.5-0.2236-0.5-0.5s0.2236-0.5,0.5-0.5h1.4863v-3.5615
		c0-0.166-0.082-0.3203-0.2188-0.4141l-1.8018-1.2256c-0.0605-0.041-0.1123-0.0957-0.1494-0.1592l-1.5566-2.6392H16.498
		c-0.2764,0-0.5-0.2236-0.5-0.5s0.2236-0.5,0.5-0.5h3.0586c0.1768,0,0.3408,0.0938,0.4307,0.2461l1.6455,2.7886l1.709,1.1631
		c0.4111,0.2793,0.6562,0.7432,0.6562,1.2402v4.0615C23.998,20.7754,23.7744,20.999,23.498,20.999z"/>
	<path d="M17.6025,21.0117h-5.1611c-0.2764,0-0.5-0.2236-0.5-0.5s0.2236-0.5,0.5-0.5h5.1611c0.2764,0,0.5,0.2236,0.5,0.5
		S17.8789,21.0117,17.6025,21.0117z"/>
	<path d="M19.5566,22.9043c-1.3535,0-2.4541-1.1016-2.4541-2.4551s1.1006-2.4541,2.4541-2.4541s2.4551,1.1006,2.4551,2.4541
		S20.9102,22.9043,19.5566,22.9043z M19.5566,18.9951c-0.8018,0-1.4541,0.6523-1.4541,1.4541c0,0.8027,0.6523,1.4551,1.4541,1.4551
		c0.8027,0,1.4551-0.6523,1.4551-1.4551C21.0117,19.6475,20.3594,18.9951,19.5566,18.9951z"/>
	<path d="M4.4863,22.9043c-1.3535,0-2.4546-1.1016-2.4546-2.4551s1.1011-2.4541,2.4546-2.4541s2.4546,1.1006,2.4546,2.4541
		S5.8398,22.9043,4.4863,22.9043z M4.4863,18.9951c-0.8022,0-1.4546,0.6523-1.4546,1.4541c0,0.8027,0.6523,1.4551,1.4546,1.4551
		s1.4546-0.6523,1.4546-1.4551C5.9409,19.6475,5.2886,18.9951,4.4863,18.9951z"/>
	<path d="M10.4868,22.9043c-1.3535,0-2.4546-1.1016-2.4546-2.4551s1.1011-2.4541,2.4546-2.4541s2.4546,1.1006,2.4546,2.4541
		S11.8403,22.9043,10.4868,22.9043z M10.4868,18.9951c-0.8022,0-1.4546,0.6523-1.4546,1.4541c0,0.8027,0.6523,1.4551,1.4546,1.4551
		s1.4546-0.6523,1.4546-1.4551C11.9414,19.6475,11.2891,18.9951,10.4868,18.9951z"/>
	<path d="M23.498,19H1.0811c-0.2764,0-0.5-0.2236-0.5-0.5s0.2236-0.5,0.5-0.5h22.417c0.2764,0,0.5,0.2236,0.5,0.5
		S23.7744,19,23.498,19z"/>
	<path d="M2.5317,20.9492H1.4883c-0.2764,0-0.5-0.2236-0.5-0.5v-1.4541H0.4736c-0.1328,0-0.2603-0.0527-0.354-0.1465
		c-0.0938-0.0947-0.1465-0.2217-0.146-0.3545l0.0239-10.9409c0.0005-0.2759,0.2241-0.499,0.5-0.499H16.499
		c0.2764,0,0.5,0.2236,0.5,0.5v10.7759c0,0.2764-0.2236,0.5-0.5,0.5s-0.5-0.2236-0.5-0.5V8.0542H0.9966l-0.022,9.9409h0.5137
		c0.2764,0,0.5,0.2236,0.5,0.5v1.4541h0.5435c0.2764,0,0.5,0.2236,0.5,0.5S2.8081,20.9492,2.5317,20.9492z"/>
	<path d="M8.5322,21.0117H6.4375c-0.2764,0-0.5-0.2236-0.5-0.5s0.2236-0.5,0.5-0.5h2.0947c0.2764,0,0.5,0.2236,0.5,0.5
		S8.8086,21.0117,8.5322,21.0117z"/>
</g>
<rect x="-0.0137" y="0.0002" fill="none" width="24" height="24"/>
</svg>
