<?xml version="1.0" encoding="utf-8"?>
<!-- Generator: Adobe Illustrator 18.1.0, SVG Export Plug-In . SVG Version: 6.00 Build 0)  -->
<svg version="1.1" id="Layer_1" xmlns="http://www.w3.org/2000/svg" xmlns:xlink="http://www.w3.org/1999/xlink" x="0px" y="0px"
	 width="24px" height="24px" viewBox="0 0 24 24" enable-background="new 0 0 24 24" xml:space="preserve">
<g>
	<path d="M7.8433,8.5732c-0.0156,0-0.0312-0.0005-0.0469-0.002C7.499,8.5435,6.9219,8.3452,6.6484,7.7788
		C6.2979,7.0522,6.5513,6.0493,7.4238,4.7114c0.9976-1.5278,0.9233-2.1885,0.8447-2.4019c-0.0532-0.146-0.1504-0.1982-0.1514-0.1987
		C7.8525,2.0322,7.7017,1.7539,7.7808,1.4893c0.0786-0.2646,0.356-0.415,0.6216-0.3364C8.4604,1.1699,8.978,1.3403,9.2075,1.9653
		C9.4946,2.748,9.1763,3.856,8.2617,5.2583C7.3442,6.6636,7.4844,7.21,7.5488,7.3442c0.0952,0.1968,0.3379,0.231,0.3403,0.231
		c0.2749,0.0259,0.4771,0.2695,0.4517,0.5444C8.3164,8.3789,8.0986,8.5732,7.8433,8.5732z"/>
	<path d="M10.4731,9.0171c-0.0151,0-0.0303-0.0005-0.0459-0.002c-0.2661-0.0249-0.6431-0.1895-0.8276-0.5723
		c-0.2358-0.4873-0.0869-1.1279,0.4551-1.959c0.5127-0.7861,0.4897-1.1348,0.4556-1.1851
		c-0.2646-0.0786-0.3862-0.3438-0.3076-0.6084c0.0791-0.2637,0.3867-0.4009,0.6509-0.3228c0.0713,0.021,0.436,0.1494,0.5991,0.5947
		c0.1914,0.5205,0.0078,1.1968-0.5601,2.0679c-0.479,0.7344-0.3936,0.9756-0.3926,0.978c0.2749,0.0254,0.4873,0.2744,0.4614,0.5493
		C10.9375,8.8174,10.7275,9.0171,10.4731,9.0171z"/>
	<path d="M4.7456,9.0171c-0.0151,0-0.0303-0.0005-0.0459-0.002C4.4336,8.9902,4.0566,8.8257,3.8721,8.4429
		c-0.2358-0.4873-0.0869-1.1279,0.4551-1.959c0.564-0.8643,0.4644-1.1646,0.4595-1.1768C4.522,5.2285,4.3984,4.9595,4.4771,4.6948
		S4.8633,4.2886,5.126,4.3677c0.0713,0.021,0.436,0.1494,0.5996,0.5947C5.9165,5.4829,5.7334,6.1597,5.165,7.0308
		C4.686,7.7646,4.7715,8.0059,4.7725,8.0083c0.2749,0.0254,0.4873,0.2744,0.4614,0.5493C5.21,8.8174,5,9.0171,4.7456,9.0171z"/>
	<path d="M7.645,21.9414c-2.7026,0-5.6118-0.6816-5.6118-2.1787l-1.04-6.0146c-0.0469-0.2725,0.1357-0.5312,0.4082-0.5781
		c0.2729-0.0439,0.5308,0.1367,0.5771,0.4082l1.0474,6.0996c0.0073,0.4268,1.6235,1.2637,4.6191,1.2637
		c2.9966,0,4.6128-0.8369,4.6128-1.1787l1.0713-6.1855c0.0469-0.2734,0.3105-0.459,0.5781-0.4062
		c0.2725,0.0469,0.4541,0.3057,0.4062,0.5781L13.25,19.8486C13.2578,21.2598,10.3481,21.9414,7.645,21.9414z"/>
	<path d="M7.645,15.4873c-3.5986,0-7.2412-0.9316-7.2412-2.7119c0-3.5625,14.4829-3.5625,14.4829,0
		C14.8867,14.5557,11.2437,15.4873,7.645,15.4873z M7.645,11.0625c-3.752,0-6.2412,1.0312-6.2412,1.7129
		s2.4893,1.7119,6.2412,1.7119c3.7524,0,6.2417-1.0303,6.2417-1.7119S11.3975,11.0625,7.645,11.0625z"/>
	<path d="M13.5908,15.4873c-0.2188,0-0.4199-0.1445-0.4814-0.3662c-0.0742-0.2656,0.0811-0.541,0.3477-0.6152l9.1816-2.5557
		l-8.1719,1.3184c-0.2754,0.0488-0.5303-0.1406-0.5732-0.4131c-0.0449-0.2734,0.1406-0.5293,0.4131-0.5732l8.752-1.4126
		c0.1504-0.0239,0.293,0.0186,0.4043,0.1128c0.1113,0.0952,0.1758,0.2344,0.1758,0.3809v0.9678
		c0,0.2246-0.1494,0.4219-0.3662,0.4814l-9.5479,2.6562C13.6797,15.4814,13.6348,15.4873,13.5908,15.4873z"/>
</g>
<rect y="0.0197" fill="none" width="24" height="24"/>
</svg>
