<?xml version="1.0" encoding="utf-8"?>
<!-- Generator: Adobe Illustrator 18.1.0, SVG Export Plug-In . SVG Version: 6.00 Build 0)  -->
<svg version="1.1" id="Layer_1" xmlns="http://www.w3.org/2000/svg" xmlns:xlink="http://www.w3.org/1999/xlink" x="0px" y="0px"
	 width="24px" height="24px" viewBox="0 0 24 24" enable-background="new 0 0 24 24" xml:space="preserve">
<g>
	<path d="M14.8652,18.0059c-0.1162,0-0.2334-0.04-0.3281-0.123c-0.208-0.1807-0.2305-0.4971-0.0488-0.7051l2.333-2.6836
		l-2.333-2.6826c-0.1816-0.2085-0.1592-0.5239,0.0488-0.7056c0.209-0.1812,0.5244-0.1587,0.7051,0.0493l2.6191,3.0107
		c0.1641,0.1885,0.1641,0.4678,0,0.6562l-2.6191,3.0117C15.1436,17.9473,15.0049,18.0059,14.8652,18.0059z"/>
	<path d="M9.209,18.0059c-0.1396,0-0.2783-0.0586-0.3774-0.1719l-2.6191-3.0117c-0.1636-0.1885-0.1636-0.4678,0-0.6562
		l2.6191-3.0107c0.1821-0.2095,0.4976-0.23,0.7056-0.0493c0.2085,0.1816,0.2305,0.4971,0.0493,0.7056l-2.334,2.6826l2.334,2.6836
		c0.1812,0.208,0.1592,0.5244-0.0493,0.7051C9.4424,17.9658,9.3257,18.0059,9.209,18.0059z"/>
	<path d="M10.2485,20.3877c-0.0522,0-0.105-0.0078-0.1572-0.0254c-0.2622-0.0869-0.4043-0.3701-0.3174-0.6318L13.4238,8.71
		c0.0859-0.2622,0.3701-0.4043,0.6318-0.3174S14.46,8.7622,14.373,9.0244l-3.6499,11.0205
		C10.6538,20.2549,10.4585,20.3877,10.2485,20.3877z"/>
	<path d="M20.4932,5.0024h-4c-0.2764,0-0.5-0.2236-0.5-0.5v-4c0-0.2764,0.2236-0.5,0.5-0.5s0.5,0.2236,0.5,0.5v3.5h3.5
		c0.2764,0,0.5,0.2236,0.5,0.5S20.7695,5.0024,20.4932,5.0024z"/>
	<path d="M19.7021,24.002H4.2808c-0.7095,0-1.2871-0.583-1.2871-1.2998V1.3081c0-0.7197,0.5776-1.3057,1.2871-1.3057h12.2124
		c0.4189,0,0.6416,0.2192,0.8037,0.3789l3.3125,3.2686c0.1787,0.1768,0.3838,0.4331,0.3838,0.8525v18.1997
		C20.9932,23.4189,20.4141,24.002,19.7021,24.002z M16.4873,0.9956L4.2808,1.0024c-0.1558,0-0.2871,0.1401-0.2871,0.3057v21.394
		c0,0.1621,0.1313,0.2998,0.2871,0.2998h15.4214c0.1582,0,0.291-0.1377,0.291-0.2998V4.5024c0-0.0366,0-0.0552-0.0869-0.1406
		l-3.3125-3.2686C16.5664,1.0654,16.5078,1.0083,16.4873,0.9956z"/>
</g>
<rect y="0.0011" fill="none" width="24" height="24"/>
</svg>
