<?xml version="1.0" encoding="utf-8"?>
<!-- Generator: Adobe Illustrator 18.1.0, SVG Export Plug-In . SVG Version: 6.00 Build 0)  -->
<svg version="1.1" id="Layer_1" xmlns="http://www.w3.org/2000/svg" xmlns:xlink="http://www.w3.org/1999/xlink" x="0px" y="0px"
	 width="24px" height="24px" viewBox="0 0 24 24" enable-background="new 0 0 24 24" xml:space="preserve">
<g>
	<path d="M12,18.9844c-6.6367,0-11.8354-2.3262-11.8354-5.2959c0-2.0337,2.3569-3.791,6.3052-4.7012
		c0.2695-0.061,0.5376,0.106,0.5996,0.375s-0.106,0.5376-0.375,0.5996c-3.3594,0.7739-5.5298,2.2373-5.5298,3.7266
		c0,2.0742,4.354,4.2959,10.8354,4.2959s10.8359-2.2217,10.8359-4.2959c0-1.4932-2.1709-2.957-5.5303-3.729
		c-0.2686-0.062-0.4365-0.3301-0.375-0.5991c0.0615-0.2686,0.3281-0.438,0.5996-0.3755c3.9482,0.9072,6.3057,2.6655,6.3057,4.7036
		C23.8359,16.6582,18.6367,18.9844,12,18.9844z"/>
	<path d="M12,15.041c-3.3931,0-5.9517-1.207-5.9517-2.8066V9.9917c0-2.4722,2.0044-4.4834,4.4683-4.4834l0.312,0.0449
		c1.1938,0.1968,1.0996,0.2041,2.5737-0.0381c0.0039,0,0.0088,0,0.0127,0c2.5391,0,4.5371,2.0083,4.5371,4.4766v2.2427
		C17.9521,13.834,15.3936,15.041,12,15.041z M10.4355,6.5015C8.604,6.5083,7.0483,8.0708,7.0483,9.9917v2.2427
		c0,0.7539,1.8838,1.8066,4.9517,1.8066c3.0684,0,4.9521-1.0527,4.9521-1.8066V9.9917c0-1.9209-1.5557-3.4834-3.4688-3.4834
		c-1.3037,0.2275-1.5435,0.2417-2.8179,0.0312L10.4355,6.5015z"/>
	<path d="M12,13.0771c-3.3931,0-5.9517-1.2065-5.9517-2.8062c0-0.2764,0.2236-0.5,0.5-0.5s0.5,0.2236,0.5,0.5
		c0,0.7544,1.8838,1.8062,4.9517,1.8062c3.0684,0,4.9521-1.0518,4.9521-1.8062c0-0.2764,0.2236-0.5,0.5-0.5s0.5,0.2236,0.5,0.5
		C17.9521,11.8706,15.3936,13.0771,12,13.0771z"/>
	<path d="M11.3618,8.3657c-0.0063,0-0.0122,0-0.0181-0.0005c-0.2759-0.0098-0.4917-0.2412-0.4819-0.5171
		c0.0356-1.0186,0.8462-1.9053,0.939-2.0029c0.1899-0.2012,0.5049-0.208,0.7051-0.0205c0.2012,0.1885,0.2109,0.5049,0.0225,0.7061
		c-0.1787,0.1919-0.6479,0.8081-0.6675,1.3525C11.8516,8.1533,11.6299,8.3657,11.3618,8.3657z"/>
</g>
<rect y="0.0354" fill="none" width="24" height="24"/>
</svg>
