<?xml version="1.0" encoding="utf-8"?>
<!-- Generator: Adobe Illustrator 18.1.0, SVG Export Plug-In . SVG Version: 6.00 Build 0)  -->
<svg version="1.1" id="Layer_1" xmlns="http://www.w3.org/2000/svg" xmlns:xlink="http://www.w3.org/1999/xlink" x="0px" y="0px"
	 width="24px" height="24px" viewBox="0 0 24 24" enable-background="new 0 0 24 24" xml:space="preserve">
<g>
	<path d="M16.9902,23.8389c-1.1748,0-5.0068-0.1045-5.0068-1.4512v-6.8115c0-0.2764,0.2236-0.5,0.5-0.5s0.5,0.2236,0.5,0.5v6.6953
		c0.3252,0.2178,1.6992,0.5674,4.0068,0.5674c2.2773,0,3.6816-0.3545,4.0068-0.5684v-1.8662c0-0.0986,0.0293-0.1963,0.085-0.2783
		l0.9229-1.3799l-0.0586-0.2314l-0.1221,0.1055c-0.1484,0.1279-0.3574,0.1582-0.5352,0.0771
		c-0.1777-0.082-0.292-0.2598-0.292-0.4551v-2.666c0-0.2764,0.2236-0.5,0.5-0.5s0.5,0.2236,0.5,0.5v1.5898
		c0.1162-0.0615,0.2539-0.0742,0.3828-0.0352c0.165,0.0527,0.292,0.1855,0.335,0.3535l0.3145,1.2305
		c0.0352,0.1377,0.0098,0.2842-0.0693,0.4023l-0.9629,1.4395v1.8311C21.9971,23.7344,18.165,23.8389,16.9902,23.8389z"/>
	<path d="M3.0435,20.2939c-1.1113,0-2.1704-1.1738-2.2969-1.3184c-0.2212-0.2715-0.8594-1.0566-0.0967-1.7822l0.5762-0.5469
		c2.7412-2.6016,10.0225-9.5117,12.8462-13.2153c0.168-0.2202,0.4834-0.2612,0.7002-0.0942
		c0.2197,0.1675,0.2627,0.481,0.0947,0.7007C11.9951,7.8047,4.6714,14.7549,1.9146,17.3711L1.3394,17.918
		c-0.0518,0.083-0.0278,0.168,0.1719,0.4131c0.3047,0.3467,1.1191,1.0557,1.6318,0.9531c0.2988-0.0615,0.4878-0.4648,0.5938-0.792
		c0.7305-2.2588,3.0967-4.2861,6.3721-7.0913c1.8745-1.606,3.9985-3.4258,6.1978-5.6313c0.1953-0.1963,0.5127-0.1953,0.708-0.001
		c0.1953,0.1948,0.1953,0.5117,0.001,0.707c-2.2275,2.2334-4.3682,4.0669-6.2563,5.6846c-3.0322,2.5977-5.4272,4.6494-6.0713,6.6406
		c-0.2729,0.8438-0.7251,1.3359-1.3442,1.4629C3.2437,20.2842,3.1431,20.2939,3.0435,20.2939z"/>
	<path d="M18.5859,4.6328c-0.125,0-0.25-0.0464-0.3467-0.1401c-0.1992-0.1914-0.2051-0.5078-0.0137-0.707l0.6865-0.709
		l-1.6113-1.646l-0.6992,0.6997c-0.1953,0.1953-0.5117,0.1953-0.707,0s-0.1953-0.5117,0-0.707l0.8682-0.8687
		c0.1406-0.1436,0.334-0.2246,0.54-0.2246c0,0,0,0,0.001,0c0.2061,0.0005,0.3994,0.082,0.5439,0.2295l1.9404,1.9829
		c0.2881,0.2954,0.292,0.7603,0.0078,1.0586L18.9463,4.48C18.8477,4.5815,18.7168,4.6328,18.5859,4.6328z"/>
	<path d="M17.998,11.8164c-0.0889,0-0.1777-0.0239-0.2559-0.0708c-0.125-0.0742-0.2109-0.1992-0.2363-0.3423
		c-0.1934-1.0967-0.7822-4.0781-1.2246-4.9551l-3.002-3.2715c-0.1807-0.1968-0.1748-0.501,0.0137-0.6904l1.8291-1.8398
		c0.0938-0.0942,0.2217-0.1475,0.3545-0.1475l0,0c0.1338,0,0.2607,0.0532,0.3555,0.1479l3.2529,3.2803l0,0
		c0.002,0,1.8945,1.6694,4.333,2.8379c0.2422,0.1157,0.3496,0.4028,0.2432,0.6494c-0.0527,0.1216-1.3359,2.9912-5.5059,4.3765
		C18.1045,11.8081,18.0508,11.8164,17.998,11.8164z M14.3389,2.8525l2.7227,2.9673c0.0273,0.0293,0.0508,0.062,0.0703,0.0967
		c0.4873,0.8862,1.0225,3.5176,1.252,4.729c2.4492-0.9609,3.6611-2.4868,4.126-3.2158c-2.333-1.2041-4.0361-2.7095-4.1113-2.7769
		l-2.9219-2.9443L14.3389,2.8525z"/>
	<path d="M16.9902,17.0273c-1.1748,0-5.0068-0.1045-5.0068-1.4512c0-1.3457,3.832-1.4502,5.0068-1.4502s5.0068,0.1045,5.0068,1.4502
		C21.9971,16.9229,18.165,17.0273,16.9902,17.0273z M13.2295,15.5762c0.5576,0.207,1.834,0.4512,3.7607,0.4512
		c1.8994,0,3.1914-0.2471,3.7568-0.4521c-0.5605-0.207-1.835-0.4492-3.7568-0.4492C15.0635,15.126,13.7881,15.3691,13.2295,15.5762z
		"/>
	<path d="M15.1035,19.5381c-0.2764,0-0.5-0.2236-0.5-0.5v-2.5986c0-0.2764,0.2236-0.5,0.5-0.5s0.5,0.2236,0.5,0.5v2.5986
		C15.6035,19.3145,15.3799,19.5381,15.1035,19.5381z"/>
	<path d="M19.4258,18.2822c-0.2764,0-0.5-0.2236-0.5-0.5V16.376c0-0.2764,0.2236-0.5,0.5-0.5s0.5,0.2236,0.5,0.5v1.4062
		C19.9258,18.0586,19.7021,18.2822,19.4258,18.2822z"/>
</g>
<rect x="-0.0008" y="-0.0147" fill="none" width="24" height="24"/>
</svg>
