<?xml version="1.0" encoding="utf-8"?>
<!-- Generator: Adobe Illustrator 18.1.0, SVG Export Plug-In . SVG Version: 6.00 Build 0)  -->
<svg version="1.1" id="Layer_1" xmlns="http://www.w3.org/2000/svg" xmlns:xlink="http://www.w3.org/1999/xlink" x="0px" y="0px"
	 width="24px" height="24px" viewBox="0 0 24 24" enable-background="new 0 0 24 24" xml:space="preserve">
<g>
	<path d="M11.5415,24.041c-0.2764,0-0.5-0.2236-0.5-0.5v-7.9707c0-0.2764,0.2236-0.5,0.5-0.5s0.4995,0.2236,0.4995,0.5v7.9707
		C12.041,23.8174,11.8179,24.041,11.5415,24.041z"/>
	<path d="M17.9756,24.041H5.1079c-0.2764,0-0.5-0.2236-0.5-0.5s0.2236-0.5,0.5-0.5h12.8677c0.2764,0,0.5,0.2236,0.5,0.5
		S18.252,24.041,17.9756,24.041z"/>
	<path d="M19.2871,14.0576c-0.0049,0-0.0117,0.001-0.0195,0H3.8159c-0.1548,0-0.3008-0.0713-0.3955-0.1943
		c-0.0947-0.1221-0.1274-0.2822-0.0884-0.4316L6.7217,0.4224c0.0576-0.2202,0.2563-0.374,0.4839-0.374h8.6724
		c0.2275,0,0.4268,0.1538,0.4834,0.374l3.3564,12.8804c0.0439,0.0752,0.0693,0.1621,0.0693,0.2549
		C19.7871,13.834,19.5635,14.0576,19.2871,14.0576z M4.4629,13.0576h14.1582L15.4912,1.0483H7.5918L4.4629,13.0576z"/>
	<path d="M15.4873,17.7939c-0.2764,0-0.5-0.2236-0.5-0.5v-3.7363c0-0.2764,0.2236-0.5,0.5-0.5s0.5,0.2236,0.5,0.5v3.7363
		C15.9873,17.5703,15.7637,17.7939,15.4873,17.7939z"/>
	<path d="M15.4873,20.1035c-0.2764,0-0.5-0.2236-0.5-0.5v-0.2178c0-0.2764,0.2236-0.5,0.5-0.5s0.5,0.2236,0.5,0.5v0.2178
		C15.9873,19.8799,15.7637,20.1035,15.4873,20.1035z"/>
</g>
<rect x="0.0142" y="0.0354" fill="none" width="24" height="24"/>
</svg>
