<?xml version="1.0" encoding="utf-8"?>
<!-- Generator: Adobe Illustrator 18.1.0, SVG Export Plug-In . SVG Version: 6.00 Build 0)  -->
<svg version="1.1" id="Layer_1" xmlns="http://www.w3.org/2000/svg" xmlns:xlink="http://www.w3.org/1999/xlink" x="0px" y="0px"
	 width="24px" height="24px" viewBox="0 0 24 24" enable-background="new 0 0 24 24" xml:space="preserve">
<g>
	<path d="M12.0088,23.9248L12.0088,23.9248c-2.5986,0-4.9531-0.5928-6.2983-1.5859c-1.9614-1.4492-2.9321-3.8613-2.9668-7.375
		l-0.0024-1.2432C2.7412,6.1494,6.8081,0.2183,12,0.2183c4.6084,0,9.2588,4.5303,9.2588,14.6519
		c0,0.0107-0.0029,0.1104-0.0039,0.1211c-0.0342,3.4863-1.0039,5.8984-2.9648,7.3477
		C16.9443,23.332,14.5957,23.9248,12.0088,23.9248z M12,1.2183c-4.6309,0-8.2588,5.4917-8.2588,12.5024v1.1494
		c0.0342,3.2627,0.8716,5.415,2.563,6.6641c1.1797,0.8711,3.312,1.3906,5.7046,1.3906c2.3809,0,4.5078-0.5195,5.6875-1.3906
		c1.6904-1.249,2.5283-3.4014,2.5596-6.5801C20.2588,5.4902,15.9775,1.2183,12,1.2183z"/>
	<path d="M8.5,13.9766c-0.2764,0-0.5-0.2236-0.5-0.5v-2.9141c0-0.2764,0.2236-0.5,0.5-0.5s0.5,0.2236,0.5,0.5v2.9141
		C9,13.7529,8.7764,13.9766,8.5,13.9766z"/>
	<path d="M11.5,13.9766c-0.2764,0-0.5-0.2236-0.5-0.5v-0.9141c0-0.2764,0.2236-0.5,0.5-0.5s0.5,0.2236,0.5,0.5v0.9141
		C12,13.7529,11.7764,13.9766,11.5,13.9766z"/>
	<path d="M5.5,13.9766c-0.2764,0-0.5-0.2236-0.5-0.5v-0.9141c0-0.2764,0.2236-0.5,0.5-0.5s0.5,0.2236,0.5,0.5v0.9141
		C6,13.7529,5.7764,13.9766,5.5,13.9766z"/>
	<path d="M14.5,13.9766c-0.2764,0-0.5-0.2236-0.5-0.5v-0.9141c0-0.2764,0.2236-0.5,0.5-0.5s0.5,0.2236,0.5,0.5v0.9141
		C15,13.7529,14.7764,13.9766,14.5,13.9766z"/>
	<path d="M17.5,13.9766c-0.2764,0-0.5-0.2236-0.5-0.5v-0.9141c0-0.2764,0.2236-0.5,0.5-0.5s0.5,0.2236,0.5,0.5v0.9141
		C18,13.7529,17.7764,13.9766,17.5,13.9766z"/>
	<path d="M9.1719,19.5254c-0.187,0-0.3662-0.1055-0.4517-0.2852l-0.2207-0.4619l-0.2202,0.4619
		c-0.1177,0.248-0.4165,0.3564-0.666,0.2363c-0.2495-0.1182-0.3555-0.417-0.2363-0.666l0.5991-1.2578
		c0.0825-0.1738,0.3311-0.3418,0.5239-0.3418c0.2261,0,0.4282,0.1338,0.5264,0.3477l0.5962,1.252
		c0.1191,0.249,0.0132,0.5479-0.2363,0.666C9.3169,19.5098,9.2437,19.5254,9.1719,19.5254z"/>
	<path d="M20.7422,16.0195H3.2583c-0.2764,0-0.5-0.2236-0.5-0.5s0.2236-0.5,0.5-0.5h17.4839c0.2764,0,0.5,0.2236,0.5,0.5
		S21.0186,16.0195,20.7422,16.0195z"/>
</g>
<rect y="0.0197" fill="none" width="24" height="24"/>
</svg>
