<?xml version="1.0" encoding="utf-8"?>
<!-- Generator: Adobe Illustrator 18.1.0, SVG Export Plug-In . SVG Version: 6.00 Build 0)  -->
<svg version="1.1" id="Layer_1" xmlns="http://www.w3.org/2000/svg" xmlns:xlink="http://www.w3.org/1999/xlink" x="0px" y="0px"
	 width="24px" height="24px" viewBox="0 0 24 24" enable-background="new 0 0 24 24" xml:space="preserve">
<g>
	<path d="M8.4902,23.8398c-0.0645,0-0.1294-0.0127-0.1914-0.0381c-0.187-0.0771-0.3086-0.2598-0.3086-0.4619v-8.8291
		c0-0.2764,0.2236-0.5,0.5-0.5s0.5,0.2236,0.5,0.5v7.624l2.7358-2.7305c0.1943-0.1953,0.5112-0.1953,0.7065,0l2.7344,2.7295v-7.623
		c0-0.2764,0.2236-0.5,0.5-0.5s0.5,0.2236,0.5,0.5v8.8291c0,0.2021-0.1221,0.3848-0.3086,0.4619
		c-0.1846,0.0771-0.4014,0.0352-0.5449-0.1084l-3.2344-3.2295l-3.2358,3.2295C8.748,23.7891,8.6201,23.8398,8.4902,23.8398z"/>
	<path d="M13.6074,13.4531c-0.6289,0-1.2432-0.2334-1.7231-0.6396c-0.7495,0.5732-1.7944,0.7129-2.6704,0.3301
		c-0.8936-0.3955-1.4756-1.2393-1.5562-2.1953c-0.9648-0.1201-1.7827-0.7441-2.1372-1.6577C5.1646,8.3711,5.354,7.3564,5.9824,6.624
		c-0.584-0.7612-0.7217-1.7769-0.3276-2.6689c0.3887-0.8794,1.2334-1.4712,2.1938-1.5552c0.1177-0.96,0.7402-1.7832,1.6602-2.1377
		c0.8911-0.3452,1.9385-0.1528,2.6641,0.4629c0.751-0.5752,1.7959-0.7158,2.6699-0.3301c0.8936,0.394,1.4756,1.2383,1.5557,2.1953
		c0.9648,0.1191,1.7822,0.7437,2.1367,1.6587c0.3574,0.918,0.168,1.9316-0.4619,2.665c0.584,0.7612,0.7217,1.7773,0.3271,2.6699
		c-0.3877,0.8789-1.2324,1.4702-2.1924,1.5547c-0.1182,0.958-0.7402,1.7812-1.6592,2.1377
		C14.2461,13.3936,13.9287,13.4531,13.6074,13.4531z M11.9019,11.6143c0.0044,0,0.0088,0,0.0132,0
		c0.1484,0.0039,0.2881,0.0742,0.3799,0.1914c0.4434,0.5645,1.2314,0.7969,1.8926,0.5381c0.6748-0.2617,1.0908-0.9331,1.0352-1.6714
		c-0.0107-0.1484,0.0449-0.2944,0.1523-0.3979c0.1074-0.103,0.248-0.1572,0.4033-0.1362c0.7383,0.0825,1.4229-0.313,1.708-0.9585
		c0.29-0.6562,0.1123-1.4233-0.4424-1.9082c-0.1123-0.0981-0.1748-0.2412-0.1709-0.3901s0.0742-0.2881,0.1914-0.3799
		c0.584-0.4575,0.8008-1.2173,0.5391-1.8906c-0.2451-0.6328-0.8516-1.0415-1.543-1.0415l-0.1289,0.0049
		c-0.1494,0.0078-0.2949-0.0449-0.3984-0.1519c-0.1035-0.1074-0.1533-0.2554-0.1367-0.4033c0.084-0.7329-0.3008-1.4194-0.958-1.709
		c-0.6494-0.2871-1.4355-0.0967-1.9072,0.4434c-0.0996,0.1128-0.251,0.1724-0.3906,0.1709
		c-0.1489-0.0044-0.2886-0.0747-0.3804-0.1919c-0.4409-0.5649-1.2256-0.7949-1.8911-0.5371C9.1938,1.4556,8.7778,2.127,8.833,2.8667
		c0.0112,0.1484-0.0444,0.2944-0.1519,0.3975c-0.1074,0.1035-0.25,0.1582-0.4033,0.1362c-0.7241-0.085-1.4229,0.312-1.708,0.959
		c-0.29,0.6553-0.1123,1.4219,0.4424,1.9077C7.124,6.3652,7.1865,6.5078,7.1826,6.6567C7.1782,6.8057,7.1079,6.9448,6.9907,7.0366
		c-0.583,0.4565-0.7988,1.2173-0.5376,1.8926c0.2451,0.6318,0.8521,1.04,1.5464,1.04l0.126-0.0044
		c0.1538-0.0107,0.2944,0.0454,0.3975,0.1519c0.1035,0.1074,0.1533,0.2554,0.1362,0.4033c-0.083,0.7314,0.3018,1.418,0.9585,1.7085
		c0.647,0.2852,1.436,0.0977,1.9077-0.4429C11.6201,11.6768,11.7578,11.6143,11.9019,11.6143z M12.0254,9.3555
		c-0.3599,0-0.7104-0.0742-1.0415-0.2202C10.3521,8.856,9.8672,8.3477,9.6172,7.7036C9.3677,7.0591,9.3838,6.3564,9.6626,5.7251
		c0.5591-1.2666,2.1348-1.8853,3.4106-1.3223c1.3037,0.5757,1.8965,2.106,1.3203,3.4111
		C13.9795,8.7505,13.0498,9.3555,12.0254,9.3555z M12.0303,5.1826c-0.6289,0-1.1987,0.3716-1.4526,0.9463
		c-0.1714,0.3872-0.1812,0.8179-0.0278,1.2134c0.1533,0.395,0.4507,0.707,0.8379,0.8779c0.7842,0.3477,1.75-0.0352,2.0918-0.8101
		c0.3525-0.8003-0.0107-1.7393-0.8105-2.0923C12.4658,5.228,12.251,5.1826,12.0303,5.1826z"/>
</g>
<rect x="0.0293" y="-0.0001" fill="none" width="24" height="24"/>
</svg>
