<?xml version="1.0" encoding="utf-8"?>
<!-- Generator: Adobe Illustrator 18.1.0, SVG Export Plug-In . SVG Version: 6.00 Build 0)  -->
<svg version="1.1" id="Layer_1" xmlns="http://www.w3.org/2000/svg" xmlns:xlink="http://www.w3.org/1999/xlink" x="0px" y="0px"
	 width="24px" height="24px" viewBox="0 0 24 24" enable-background="new 0 0 24 24" xml:space="preserve">
<g>
	<path d="M5.04,23.7344c-1.7109,0-3.0454-0.3916-3.7568-1.1035c-1.04-1.04-1.2822-3.8369-0.6025-6.959
		c0.4639-2.1318,1.7622-6.228,5.2402-9.7065c4.1836-4.1836,9.6182-5.668,13-5.668c1.6992,0,3.002,0.3657,3.666,1.0303
		c2.3203,2.3203,1.1387,10.8892-4.6377,16.6655C13.7109,22.2314,8.3462,23.7344,5.04,23.7344z M18.9209,1.2974
		c-3.1914,0-8.3252,1.4077-12.293,5.375c-3.2974,3.2979-4.5293,7.187-4.9702,9.2114c-0.6699,3.0771-0.3398,5.3682,0.3325,6.04
		c0.5151,0.5156,1.627,0.8105,3.0498,0.8105c3.1152,0,8.1797-1.4268,12.2021-5.4482c5.4424-5.4419,6.4307-13.458,4.6377-15.2515
		C21.418,1.5728,20.3115,1.2974,18.9209,1.2974z"/>
	<path d="M8.9351,23.165c-0.1279,0-0.2559-0.0488-0.3535-0.1465l-7.5967-7.5967c-0.1953-0.1953-0.1953-0.5117,0-0.707
		s0.5117-0.1953,0.707,0l7.5967,7.5967c0.1953,0.1953,0.1953,0.5117,0,0.707C9.1909,23.1162,9.063,23.165,8.9351,23.165z"/>
	<path d="M7.2329,17.1816c-0.1279,0-0.2559-0.0488-0.3535-0.1465c-0.1953-0.1953-0.1953-0.5117,0-0.707l9.4048-9.4043
		c0.1953-0.1953,0.5117-0.1953,0.707,0s0.1953,0.5117,0,0.707l-9.4048,9.4043C7.4888,17.1328,7.3608,17.1816,7.2329,17.1816z"/>
	<path d="M22.6113,9.4697c-0.1279,0-0.2559-0.0488-0.3535-0.1465l-7.5869-7.5869c-0.1953-0.1953-0.1953-0.5117,0-0.707
		s0.5117-0.1953,0.707,0l7.5869,7.5869c0.1953,0.1953,0.1953,0.5117,0,0.707C22.8672,9.4209,22.7393,9.4697,22.6113,9.4697z"/>
	<path d="M11.8379,14.6621c-0.1279,0-0.2559-0.0488-0.3535-0.1465l-2.0854-2.085c-0.1953-0.1953-0.1953-0.5117,0-0.707
		s0.5117-0.1953,0.707,0l2.0854,2.085c0.1953,0.1953,0.1953,0.5117,0,0.707C12.0938,14.6133,11.9658,14.6621,11.8379,14.6621z"/>
	<path d="M9.5576,16.9424c-0.1279,0-0.2559-0.0488-0.3535-0.1465L7.1191,14.71c-0.1953-0.1953-0.1953-0.5117,0-0.707
		s0.5117-0.1953,0.707,0l2.085,2.0859c0.1953,0.1953,0.1953,0.5117,0,0.707C9.8135,16.8936,9.6855,16.9424,9.5576,16.9424z"/>
	<path d="M14.1172,12.3818c-0.1279,0-0.2559-0.0479-0.3535-0.1465l-2.085-2.085c-0.1953-0.1953-0.1953-0.5117,0-0.707
		s0.5117-0.1953,0.707,0l2.085,2.0854c0.1953,0.1953,0.1953,0.5122,0,0.7075C14.373,12.334,14.2451,12.3818,14.1172,12.3818z"/>
	<path d="M16.3975,10.1025c-0.1279,0-0.2559-0.0488-0.3535-0.1465l-2.085-2.0854c-0.1953-0.1953-0.1953-0.5117,0-0.707
		s0.5117-0.1953,0.707,0l2.085,2.0854c0.1953,0.1953,0.1953,0.5117,0,0.707C16.6533,10.0537,16.5254,10.1025,16.3975,10.1025z"/>
</g>
<rect x="-0.0061" fill="none" width="24" height="24"/>
</svg>
