<?xml version="1.0" encoding="utf-8"?>
<!-- Generator: Adobe Illustrator 18.1.0, SVG Export Plug-In . SVG Version: 6.00 Build 0)  -->
<svg version="1.1" id="Layer_1" xmlns="http://www.w3.org/2000/svg" xmlns:xlink="http://www.w3.org/1999/xlink" x="0px" y="0px"
	 width="24px" height="24px" viewBox="0 0 24 24" enable-background="new 0 0 24 24" xml:space="preserve">
<g>
	<path d="M20.5146,11.5342c-0.2764,0-0.5-0.2236-0.5-0.5V6.9038c0-1.4482,1.3193-2.8696,2.6631-2.8696h0.3369
		c0.2764,0,0.5,0.2236,0.5,0.5s-0.2236,0.5-0.5,0.5h-0.3369c-0.793,0-1.6631,0.9785-1.6631,1.8696v4.1304
		C21.0146,11.3105,20.791,11.5342,20.5146,11.5342z"/>
	<path fill="none" stroke="#000000" stroke-linecap="round" stroke-linejoin="round" stroke-miterlimit="10" d="M11.3213,10.6173"/>
	<path d="M12.8447,18.0342H7.2065c-0.2764,0-0.5-0.2236-0.5-0.5s0.2236-0.5,0.5-0.5h5.6382c0.2764,0,0.5,0.2236,0.5,0.5
		S13.1211,18.0342,12.8447,18.0342z"/>
	<path d="M17.749,17.5371c-0.1787,0-0.3525-0.0967-0.4424-0.2666c-0.1289-0.2441-0.0352-0.5469,0.209-0.6758
		c1.6113-0.8506,2.499-2.46,2.499-4.5303v-1.0303H1.0142v1.0303c0,1.6045,0.7964,3.2744,2.0288,4.2549
		c0.2163,0.1719,0.252,0.4863,0.0801,0.7031c-0.1714,0.2158-0.4858,0.2529-0.7021,0.0801
		c-1.4619-1.1631-2.4067-3.1406-2.4067-5.0381v-1.5303c0-0.2764,0.2236-0.5,0.5-0.5h20.0005c0.2764,0,0.5,0.2236,0.5,0.5v1.5303
		c0,2.4238-1.1055,4.3975-3.0322,5.415C17.9082,17.5186,17.8281,17.5371,17.749,17.5371z"/>
	<path d="M1.4946,9.0205c-0.2764,0-0.5-0.2236-0.5-0.5V7.7383c0-3.6943,2.6484-6.6997,5.9038-6.6997h6.6357
		c0.2764,0,0.5,0.2236,0.5,0.5s-0.2236,0.5-0.5,0.5H6.8984c-2.7041,0-4.9038,2.5566-4.9038,5.6997v0.7822
		C1.9946,8.7969,1.771,9.0205,1.4946,9.0205z"/>
	<path d="M4.5259,23.3799c-2.1201,0-3.8452-1.7256-3.8452-3.8457s1.7251-3.8447,3.8452-3.8447s3.8447,1.7246,3.8447,3.8447
		S6.646,23.3799,4.5259,23.3799z M4.5259,16.6895c-1.5688,0-2.8452,1.2764-2.8452,2.8447c0,1.5693,1.2764,2.8457,2.8452,2.8457
		c1.5684,0,2.8447-1.2764,2.8447-2.8457C7.3706,17.9658,6.0942,16.6895,4.5259,16.6895z"/>
	<path d="M15.5244,23.3799c-2.1201,0-3.8447-1.7256-3.8447-3.8457s1.7246-3.8447,3.8447-3.8447s3.8447,1.7246,3.8447,3.8447
		S17.6445,23.3799,15.5244,23.3799z M15.5244,16.6895c-1.5684,0-2.8447,1.2764-2.8447,2.8447c0,1.5693,1.2764,2.8457,2.8447,2.8457
		s2.8447-1.2764,2.8447-2.8457C18.3691,17.9658,17.0928,16.6895,15.5244,16.6895z"/>
	<path d="M4.5298,20.0303c-0.1299,0-0.2598-0.0508-0.3501-0.1406c-0.1001-0.0996-0.1499-0.2197-0.1499-0.3594
		c0-0.1309,0.0498-0.2607,0.1401-0.3506c0.1899-0.1895,0.52-0.1895,0.71,0c0.0898,0.1006,0.1499,0.2305,0.1499,0.3506
		c0,0.1299-0.0601,0.2598-0.1499,0.3496C4.7798,19.9795,4.6499,20.0303,4.5298,20.0303z"/>
	<path d="M15.5195,20.0303c-0.1201,0-0.25-0.0508-0.3496-0.1406c-0.0898-0.0996-0.1504-0.2295-0.1504-0.3594
		c0-0.1201,0.0605-0.25,0.1504-0.3506c0.1895-0.1895,0.5195-0.1895,0.71,0c0.0898,0.0898,0.1396,0.2197,0.1396,0.3506
		c0,0.1396-0.0498,0.2598-0.1396,0.3594C15.7803,19.9795,15.6494,20.0303,15.5195,20.0303z"/>
	<path d="M5.5562,9.0332c-0.2764,0-0.5-0.2236-0.5-0.5V7.751c0-3.6943,2.0718-6.6997,4.6187-6.6997c0.2764,0,0.5,0.2236,0.5,0.5
		s-0.2236,0.5-0.5,0.5c-1.9614,0-3.6187,2.6104-3.6187,5.6997v0.7822C6.0562,8.8096,5.8325,9.0332,5.5562,9.0332z"/>
	<path d="M9.4634,9.0332c-0.2764,0-0.5-0.2236-0.5-0.5V7.7505c0-3.6943,2.0718-6.6997,4.6187-6.6997c0.2764,0,0.5,0.2236,0.5,0.5
		s-0.2236,0.5-0.5,0.5c-1.9614,0-3.6187,2.6104-3.6187,5.6997v0.7827C9.9634,8.8096,9.7397,9.0332,9.4634,9.0332z"/>
</g>
<rect x="0.0142" y="0.0344" fill="none" width="24" height="24"/>
</svg>
