<?xml version="1.0" encoding="utf-8"?>
<!-- Generator: Adobe Illustrator 18.1.0, SVG Export Plug-In . SVG Version: 6.00 Build 0)  -->
<svg version="1.1" id="Layer_1" xmlns="http://www.w3.org/2000/svg" xmlns:xlink="http://www.w3.org/1999/xlink" x="0px" y="0px"
	 width="24px" height="24px" viewBox="0 0 24 24" enable-background="new 0 0 24 24" xml:space="preserve">
<g>
	<path d="M14.7734,25.0684H9.2378c-0.6777,0-1.2295-0.5518-1.2295-1.2295V12.2412c0-0.6777,0.5518-1.2295,1.2295-1.2295h5.5356
		c0.6777,0,1.2295,0.5518,1.2295,1.2295v11.5977C16.001,24.5176,15.4502,25.0684,14.7734,25.0684z M9.2378,12.0117
		c-0.1265,0-0.2295,0.1025-0.2295,0.2295v11.5977c0,0.127,0.103,0.2295,0.2295,0.2295h5.5356c0.126,0,0.2285-0.1025,0.2285-0.2295
		l0.001-11.5977c0-0.127-0.1025-0.2295-0.2295-0.2295H9.2378z"/>
	<path d="M11.1553,10.0371c-0.0342,0-0.0684-0.0034-0.103-0.0107c-0.7632-0.1606-1.3188-0.5024-1.6519-1.0161
		C9.0649,8.4922,8.9814,7.8301,9.1523,7.043c0.3237-1.4878,1.0601-2.3032,1.6519-2.958c0.6216-0.688,0.9639-1.0669,0.6816-1.9429
		c-0.0835-0.2593-0.1377-0.5308,0.0288-0.7598c0.0942-0.1289,0.2729-0.2192,0.4326-0.2192c0.8564,0,2.5352,3.4492,2.8809,5.2183
		c0.4434,2.2646-0.4873,3.1558-1.3447,3.5049c-0.1914,0.0767-0.4092,0.0303-0.5518-0.1196C12.79,9.6172,12.7549,9.396,12.8428,9.21
		c0.2031-0.4331-0.043-1.2651-0.3086-1.8667c-0.1855,0.1816-0.4141,0.3057-0.5996,0.4067c-0.437,0.2378-0.6655,0.3818-0.6807,0.812
		c-0.0073,0.2227,0.0513,0.3994,0.1846,0.5498c0.1421,0.0879,0.2368,0.2456,0.2368,0.4253c0,0.2793-0.1973,0.5005-0.5093,0.5
		C11.1626,10.0371,11.1592,10.0371,11.1553,10.0371z M12.5195,3.2432c-0.1572,0.6094-0.5693,1.0654-0.9731,1.5122
		c-0.5391,0.5962-1.1499,1.2725-1.4165,2.4995c-0.1128,0.5176-0.0757,0.9253,0.1099,1.2119
		c0.0054,0.0083,0.0107,0.0161,0.0166,0.0244c0.0503-0.9941,0.7412-1.3701,1.2007-1.6196c0.4448-0.2422,0.4399-0.2803,0.4233-0.4058
		c-0.0112-0.082-0.0444-0.3335,0.1304-0.5332c0.0957-0.1084,0.2559-0.1812,0.3994-0.1812c0.3145,0,0.5215,0.2568,0.6973,0.5342
		c0.2129,0.3359,0.5889,1.0811,0.7422,1.8618c0.0283-0.0938,0.0508-0.1943,0.0654-0.3032
		C14.1084,6.4771,13.2373,4.4927,12.5195,3.2432z"/>
	<path d="M10.5083,20.0098c-0.2764,0-0.5-0.2236-0.5-0.5v-5.9395c0-0.2764,0.2236-0.5,0.5-0.5s0.5,0.2236,0.5,0.5v5.9395
		C11.0083,19.7861,10.7847,20.0098,10.5083,20.0098z"/>
	<path d="M17.626,25.0684H6.3848c-0.2764,0-0.5-0.2236-0.5-0.5s0.2236-0.5,0.5-0.5H17.626c0.2764,0,0.5,0.2236,0.5,0.5
		S17.9023,25.0684,17.626,25.0684z"/>
</g>
<rect x="0.0142" y="1.0354" fill="none" width="24" height="24"/>
</svg>
