<?xml version="1.0" encoding="utf-8"?>
<!-- Generator: Adobe Illustrator 18.1.0, SVG Export Plug-In . SVG Version: 6.00 Build 0)  -->
<svg version="1.1" id="Layer_1" xmlns="http://www.w3.org/2000/svg" xmlns:xlink="http://www.w3.org/1999/xlink" x="0px" y="0px"
	 width="24px" height="24px" viewBox="0 0 24 24" enable-background="new 0 0 24 24" xml:space="preserve">
<g>
	<path d="M17.5,15.0195h-11c-0.2764,0-0.5-0.2236-0.5-0.5v-3.3896c-0.9863-0.6128-2.375-1.9004-2.375-3.5317
		c0-1.9854,1.6431-3.6768,3.8003-3.98c0.7168-2.0347,2.6875-3.3301,5.1187-3.3301c2.3037,0,4.2471,1.2148,5.0352,3.1191
		c1.9141,0.4517,3.2744,2.0127,3.2744,3.8066c0,1.8965-1.0332,3.2344-2.8535,3.7246v3.5811C18,14.7959,17.7764,15.0195,17.5,15.0195
		z M7,14.0195h10V10.54c0-0.2402,0.1709-0.4468,0.4072-0.4912c2.0215-0.3833,2.4463-1.7529,2.4463-2.835
		c0-1.394-1.1484-2.605-2.7295-2.8794c-0.1797-0.0312-0.3281-0.1577-0.3877-0.3301c-0.6904-2.0049-2.6895-2.7163-4.1924-2.7163
		c-1.5923,0-3.6631,0.7661-4.2578,2.9258C8.23,4.4185,8.0508,4.5649,7.8389,4.5801C6.0366,4.7056,4.625,6.0312,4.625,7.5981
		c0,1.1416,1.0952,2.2544,2.1128,2.8047C6.8994,10.4902,7,10.6592,7,10.8428V14.0195z"/>
	<path d="M9.5,12.916c-0.2764,0-0.5-0.2236-0.5-0.5v-1.8149c0-0.2764,0.2236-0.5,0.5-0.5s0.5,0.2236,0.5,0.5v1.8149
		C10,12.6924,9.7764,12.916,9.5,12.916z"/>
	<path d="M12,12.916c-0.2764,0-0.5-0.2236-0.5-0.5v-1.8149c0-0.2764,0.2236-0.5,0.5-0.5s0.5,0.2236,0.5,0.5v1.8149
		C12.5,12.6924,12.2764,12.916,12,12.916z"/>
	<path d="M14.5,12.916c-0.2764,0-0.5-0.2236-0.5-0.5v-1.8149c0-0.2764,0.2236-0.5,0.5-0.5s0.5,0.2236,0.5,0.5v1.8149
		C15,12.6924,14.7764,12.916,14.5,12.916z"/>
	<path d="M12.0625,23.8057c-2.8726,0-5.0537-2.6514-5.4409-5.2627c-0.5083-0.1523-0.8882-0.5596-1.0054-1.1074
		c-0.1514-0.7051,0.1855-1.377,0.8379-1.6699c0.25-0.1162,0.5474-0.001,0.6611,0.251c0.1133,0.252,0.001,0.5479-0.251,0.6611
		c-0.2607,0.1172-0.3105,0.3604-0.2705,0.5479c0.0195,0.0898,0.1094,0.3818,0.4639,0.3818c0.2612,0,0.4956,0.2012,0.5161,0.4609
		c0.1743,2.2412,2.0605,4.7373,4.4888,4.7373c2.4277,0,4.3145-2.4961,4.4902-4.7373c0.0195-0.2598,0.2373-0.4609,0.498-0.4609
		c0.3711,0,0.4609-0.293,0.4805-0.3828c0.04-0.1875-0.0098-0.4297-0.2705-0.5469c-0.252-0.1133-0.3643-0.4092-0.251-0.6611
		s0.4102-0.3662,0.6611-0.251c0.6523,0.2939,0.9893,0.9639,0.8379,1.6689c-0.1182,0.5508-0.501,0.96-1.0049,1.1104
		C17.1152,21.1562,14.9336,23.8057,12.0625,23.8057z"/>
	<path d="M12.0625,20.2637c-0.2764,0-0.5-0.2236-0.5-0.5v-0.709c0-0.2764,0.2236-0.5,0.5-0.5s0.5,0.2236,0.5,0.5v0.709
		C12.5625,20.04,12.3389,20.2637,12.0625,20.2637z"/>
	<path d="M9.6128,18.0713c-0.2764,0-0.5-0.2236-0.5-0.5s0.2236-0.5205,0.5-0.5205s0.5,0.2031,0.5,0.4795v0.041
		C10.1128,17.8477,9.8892,18.0713,9.6128,18.0713z"/>
	<path d="M14.5,18.0713c-0.2764,0-0.5-0.2236-0.5-0.5s0.2236-0.5205,0.5-0.5205s0.5,0.2031,0.5,0.4795v0.041
		C15,17.8477,14.7764,18.0713,14.5,18.0713z"/>
</g>
<rect y="0.0197" fill="none" width="24" height="24"/>
</svg>
