<?xml version="1.0" encoding="utf-8"?>
<!-- Generator: Adobe Illustrator 18.1.0, SVG Export Plug-In . SVG Version: 6.00 Build 0)  -->
<svg version="1.1" id="Layer_1" xmlns="http://www.w3.org/2000/svg" xmlns:xlink="http://www.w3.org/1999/xlink" x="0px" y="0px"
	 width="24px" height="24px" viewBox="0 0 24 24" enable-background="new 0 0 24 24" xml:space="preserve">
<g>
	<path d="M23.5918,24.0596H8.3579c-0.2764,0-0.5-0.2236-0.5-0.5V16H0.5322c-0.2764,0-0.5-0.2236-0.5-0.5v-15
		c0-0.2764,0.2236-0.5,0.5-0.5h15c0.2764,0,0.5,0.2236,0.5,0.5v7.3257h7.5596c0.2764,0,0.5,0.2236,0.5,0.5v15.2339
		C24.0918,23.8359,23.8682,24.0596,23.5918,24.0596z M8.8579,23.0596h14.2339V8.8257h-7.5596c-0.2764,0-0.5-0.2236-0.5-0.5V1h-14v14
		h7.3257c0.2764,0,0.5,0.2236,0.5,0.5V23.0596z"/>
</g>
<rect x="0.0293" y="0.0001" fill="none" width="24" height="24"/>
</svg>
