<?xml version="1.0" encoding="utf-8"?>
<!-- Generator: Adobe Illustrator 18.1.0, SVG Export Plug-In . SVG Version: 6.00 Build 0)  -->
<svg version="1.1" id="Layer_1" xmlns="http://www.w3.org/2000/svg" xmlns:xlink="http://www.w3.org/1999/xlink" x="0px" y="0px"
	 width="24px" height="24px" viewBox="0 0 24 24" enable-background="new 0 0 24 24" xml:space="preserve">
<g>
	<path d="M18.4834,23.998H1.5469c-0.2764,0-0.5-0.2236-0.5-0.5V0.5322c0-0.2764,0.2236-0.5,0.5-0.5h19.9648
		c0.2764,0,0.5,0.2236,0.5,0.5V6.499c0,0.2764-0.2236,0.5-0.5,0.5h-2.5283v16.499C18.9834,23.7744,18.7598,23.998,18.4834,23.998z
		 M2.0469,22.998h15.9365V6.499c0-0.2764,0.2236-0.5,0.5-0.5h2.5283V1.0322H2.0469V22.998z"/>
	<path d="M14.502,19.998H5.4775c-0.2764,0-0.5-0.2236-0.5-0.5s0.2236-0.5,0.5-0.5h9.0244c0.2764,0,0.5,0.2236,0.5,0.5
		S14.7783,19.998,14.502,19.998z"/>
	<path d="M14.502,16.998H5.4775c-0.2764,0-0.5-0.2236-0.5-0.5s0.2236-0.5,0.5-0.5h9.0244c0.2764,0,0.5,0.2236,0.5,0.5
		S14.7783,16.998,14.502,16.998z"/>
	<path d="M14.502,13.998H5.4775c-0.2764,0-0.5-0.2236-0.5-0.5s0.2236-0.5,0.5-0.5h9.0244c0.2764,0,0.5,0.2236,0.5,0.5
		S14.7783,13.998,14.502,13.998z"/>
	<path d="M21.4951,23.998h-1.0117c-0.2764,0-0.5-0.2236-0.5-0.5s0.2236-0.5,0.5-0.5h0.5117v-5h-0.5117c-0.2764,0-0.5-0.2236-0.5-0.5
		s0.2236-0.5,0.5-0.5h1.0117c0.2764,0,0.5,0.2236,0.5,0.5v6C21.9951,23.7744,21.7715,23.998,21.4951,23.998z"/>
	<path d="M21.4951,15.998h-1.0117c-0.2764,0-0.5-0.2236-0.5-0.5s0.2236-0.5,0.5-0.5h0.5117v-5h-0.5117c-0.2764,0-0.5-0.2236-0.5-0.5
		s0.2236-0.5,0.5-0.5h1.0117c0.2764,0,0.5,0.2236,0.5,0.5v6C21.9951,15.7744,21.7715,15.998,21.4951,15.998z"/>
	<path d="M5.4775,10.0181c-0.062,0-0.1245-0.0112-0.1855-0.0356C5.0356,9.8799,4.9106,9.5889,5.0132,9.3325l1.9937-4.9893
		c0.1523-0.3799,0.7764-0.3799,0.9287,0l1.9941,4.9893c0.1025,0.2563-0.0225,0.5474-0.2788,0.6499
		C9.3955,10.084,9.103,9.9609,9.001,9.7036L7.4712,5.876L5.9419,9.7036C5.8638,9.8994,5.6758,10.0181,5.4775,10.0181z"/>
	<path d="M8.8354,8.4419h-2.728c-0.2764,0-0.5-0.2236-0.5-0.5s0.2236-0.5,0.5-0.5h2.728c0.2764,0,0.5,0.2236,0.5,0.5
		S9.1118,8.4419,8.8354,8.4419z"/>
</g>
<rect y="-0.002" fill="none" width="24" height="24"/>
</svg>
