<?xml version="1.0" encoding="utf-8"?>
<!-- Generator: Adobe Illustrator 18.1.0, SVG Export Plug-In . SVG Version: 6.00 Build 0)  -->
<svg version="1.1" id="Layer_1" xmlns="http://www.w3.org/2000/svg" xmlns:xlink="http://www.w3.org/1999/xlink" x="0px" y="0px"
	 width="24px" height="24px" viewBox="0 0 24 24" enable-background="new 0 0 24 24" xml:space="preserve">
<g>
	<path d="M16.6084,24.0342H7.3521c-1.8716,0-3.3379-1.4082-3.3379-3.2061V10.0347c0-0.2764,0.2236-0.5,0.5-0.5s0.5,0.2236,0.5,0.5
		v10.7935c0,1.2373,1.0269,2.2061,2.3379,2.2061h9.2563c1.3271,0,2.4062-0.9893,2.4062-2.2061V10.0347c0-0.2764,0.2236-0.5,0.5-0.5
		s0.5,0.2236,0.5,0.5v10.7935C20.0146,22.5957,18.4863,24.0342,16.6084,24.0342z"/>
	<path d="M18.835,4.0347H5.1934c-0.6504,0-1.1792-0.5288-1.1792-1.1792V1.2134c0-0.6499,0.5288-1.1787,1.1792-1.1787H18.835
		c0.6504,0,1.1797,0.5288,1.1797,1.1787v1.6421C20.0146,3.5059,19.4854,4.0347,18.835,4.0347z M5.1934,1.0347
		c-0.0986,0-0.1792,0.0801-0.1792,0.1787v1.6421c0,0.0986,0.0806,0.1792,0.1792,0.1792H18.835c0.0986,0,0.1797-0.0806,0.1797-0.1792
		V1.2134c0-0.0986-0.0811-0.1787-0.1797-0.1787H5.1934z"/>
	<path d="M4.605,9.002c-0.3633,0-0.7017-0.2065-1.0049-0.6138C2.23,6.5474,4.4634,3.5625,4.7227,3.2285
		c0.0947-0.1226,0.2402-0.1938,0.395-0.1938h13.9771c0.2754,0,0.499,0.2246,0.5,0.5c0,0.0122,0.0146,1.251,0.8428,2.3198
		c0.4307,0.5557,0.5352,1.2002,0.2783,1.7241c-0.2246,0.4585-0.6973,0.7432-1.2344,0.7432l0,0c-0.543,0-1.1064-0.2847-1.5869-0.8018
		c-0.9004-0.9688-1.5693-1.4595-1.9873-1.4595c-0.0859,0-0.3477,0-0.6025,0.6733c-0.4697,1.2407-1.1797,1.501-1.6914,1.501
		c-0.7832,0-1.6338-0.6118-2.5269-1.8188c-0.103-0.1392-0.1782-0.2173-0.2271-0.2603c-0.1016,0.1377-0.2412,0.4331-0.3394,0.6406
		c-0.3413,0.7241-0.8091,1.7153-1.7954,1.8945c-0.1582,0.0283-0.2964,0.041-0.4175,0.041c-0.9873,0-1.1519-0.7944-1.2305-1.1758
		C6.9971,7.1729,6.9849,7.1724,6.8374,7.1655l0,0c-0.2588,0-0.5928,0.4448-0.8613,0.8027C5.5947,8.4766,5.2002,9.002,4.605,9.002z
		 M5.3696,4.0347C4.75,4.9067,3.6802,6.8208,4.4019,7.791c0.1113,0.1494,0.1816,0.1953,0.2061,0.208
		c0.1323-0.0503,0.4043-0.4121,0.5684-0.6313C5.5786,6.832,6.0791,6.165,6.8271,6.165C7.8188,6.209,7.979,6.9819,8.0557,7.3535
		c0.0781,0.3784,0.0815,0.3784,0.2515,0.3784c0.0693,0,0.1484-0.0088,0.2388-0.0254c0.48-0.0869,0.7935-0.751,1.0698-1.3369
		c0.2915-0.6177,0.5933-1.2568,1.2197-1.2568c0.4756,0,0.8296,0.4043,1.0547,0.7085c0.6548,0.8853,1.2993,1.4136,1.7231,1.4136
		c0.3574,0,0.6084-0.4648,0.7559-0.8555c0.4141-1.0903,1.0645-1.3188,1.5381-1.3188c0.7471,0,1.5605,0.5317,2.7197,1.7788
		c0.2852,0.3066,0.5967,0.4824,0.8545,0.4824l0,0c0.1572,0,0.2793-0.0669,0.3369-0.1831c0.084-0.1733,0.0205-0.4243-0.1719-0.6714
		c-0.6914-0.8931-0.9287-1.8613-1.0098-2.4326H5.3696z"/>
	<path d="M11.6348,16.5439H9.0591c-0.1787,0-0.3438-0.0957-0.4331-0.25l-1.2881-2.2314c-0.0894-0.1543-0.0894-0.3457,0-0.5
		l1.2881-2.231c0.0894-0.1548,0.2544-0.25,0.4331-0.25h2.5757c0.1787,0,0.3438,0.0952,0.4326,0.25l1.2881,2.231
		c0.0898,0.1543,0.0898,0.3457,0,0.5l-1.2881,2.2314C11.9785,16.4482,11.8135,16.5439,11.6348,16.5439z M9.3477,15.5439h1.9985
		l0.9995-1.7314l-0.9995-1.7314H9.3477l-0.9995,1.7314L9.3477,15.5439z"/>
	<path d="M15.4824,18.7744h-2.5762c-0.1787,0-0.3438-0.0957-0.4326-0.25l-1.2886-2.2305c-0.0894-0.1543-0.0894-0.3457,0-0.5
		l1.2886-2.2314c0.0889-0.1543,0.2539-0.25,0.4326-0.25h2.5762c0.1787,0,0.3438,0.0957,0.4326,0.25l1.2881,2.2314
		c0.0898,0.1543,0.0898,0.3457,0,0.5l-1.2881,2.2305C15.8262,18.6787,15.6611,18.7744,15.4824,18.7744z M13.1953,17.7744h1.998
		l1-1.7305l-1-1.7314h-1.998l-1,1.7314L13.1953,17.7744z"/>
	<path d="M11.6348,21.0049H9.0591c-0.1787,0-0.3438-0.0957-0.4331-0.25l-1.2881-2.2305c-0.0894-0.1543-0.0894-0.3457,0-0.5
		l1.2881-2.2305c0.0894-0.1543,0.2544-0.25,0.4331-0.25h2.5757c0.1787,0,0.3438,0.0957,0.4326,0.25l1.2881,2.2305
		c0.0898,0.1543,0.0898,0.3457,0,0.5l-1.2881,2.2305C11.9785,20.9092,11.8135,21.0049,11.6348,21.0049z M9.3477,20.0049h1.9985
		l0.9995-1.7305l-0.9995-1.7305H9.3477l-0.999,1.7305L9.3477,20.0049z"/>
</g>
<rect x="0.0142" y="0.0346" fill="none" width="24" height="24"/>
</svg>
