<?xml version="1.0" encoding="utf-8"?>
<!-- Generator: Adobe Illustrator 18.1.0, SVG Export Plug-In . SVG Version: 6.00 Build 0)  -->
<svg version="1.1" id="Layer_1" xmlns="http://www.w3.org/2000/svg" xmlns:xlink="http://www.w3.org/1999/xlink" x="0px" y="0px"
	 width="24px" height="24px" viewBox="0 0 24 24" enable-background="new 0 0 24 24" xml:space="preserve">
<g>
	<path d="M6.4585,17.9873H1.3169c-0.6968,0-1.2637-0.5615-1.2637-1.252V2.2949c0-0.6904,0.5669-1.2524,1.2637-1.2524h2.8809
		c0.4858,0,0.8584,0.4438,1.3755,1.6382C5.6826,2.9341,5.5664,3.2285,5.313,3.3384C5.0571,3.4478,4.7651,3.3311,4.6553,3.0781
		c-0.3047-0.7046-0.4868-0.9536-0.561-1.0356H1.3169c-0.1455,0-0.2637,0.1133-0.2637,0.2524v14.4404
		c0,0.1387,0.1182,0.252,0.2637,0.252h5.1416c0.2764,0,0.5,0.2236,0.5,0.5S6.7349,17.9873,6.4585,17.9873z"/>
	<path d="M19.4912,8.4609c-0.2764,0-0.5-0.2236-0.5-0.5V4.3428c0-0.1455-0.1182-0.2637-0.2637-0.2637h-1.8486
		c-0.2764,0-0.5-0.2236-0.5-0.5s0.2236-0.5,0.5-0.5h1.8486c0.6973,0,1.2637,0.5669,1.2637,1.2637v3.6182
		C19.9912,8.2373,19.7676,8.4609,19.4912,8.4609z"/>
	<path d="M19.4912,7.0488H0.5532c-0.2764,0-0.5-0.2236-0.5-0.5s0.2236-0.5,0.5-0.5h18.938c0.2764,0,0.5,0.2236,0.5,0.5
		S19.7676,7.0488,19.4912,7.0488z"/>
	<path d="M17.4619,7.0488c-0.0049,0-0.0117,0.0005-0.0195,0H2.7593c-0.2441,0-0.4526-0.1763-0.4932-0.417l-0.519-3.0864
		c-0.0444-0.2661,0.1294-0.5195,0.394-0.5732l14.0737-2.8535c0.1318-0.0244,0.2666,0.001,0.3789,0.0752
		c0.1104,0.0747,0.1865,0.1904,0.2119,0.3218l1.1025,5.8066c0.0352,0.0684,0.0537,0.145,0.0537,0.2266
		C17.9619,6.8252,17.7383,7.0488,17.4619,7.0488z M3.1821,6.0488h13.6567L15.918,1.1997L2.8135,3.8564L3.1821,6.0488z"/>
	<path d="M15.5479,23.9678c-4.1226,0-7.4766-3.3535-7.4766-7.4766c0-4.1221,3.354-7.4761,7.4766-7.4761
		c4.123,0,7.4766,3.354,7.4766,7.4761C23.0244,20.6143,19.6709,23.9678,15.5479,23.9678z M15.5479,10.0151
		c-3.5713,0-6.4766,2.9048-6.4766,6.4761s2.9053,6.4766,6.4766,6.4766s6.4766-2.9053,6.4766-6.4766S19.1191,10.0151,15.5479,10.0151
		z"/>
	<path d="M19.2373,16.9912h-3.6895c-0.2764,0-0.5-0.2236-0.5-0.5v-5.248c0-0.2764,0.2236-0.5,0.5-0.5s0.5,0.2236,0.5,0.5v4.748
		h3.1895c0.2764,0,0.5,0.2236,0.5,0.5S19.5137,16.9912,19.2373,16.9912z"/>
</g>
<rect y="0.0001" fill="none" width="24" height="24"/>
</svg>
