<?xml version="1.0" encoding="utf-8"?>
<!-- Generator: Adobe Illustrator 18.1.0, SVG Export Plug-In . SVG Version: 6.00 Build 0)  -->
<svg version="1.1" id="Layer_1" xmlns="http://www.w3.org/2000/svg" xmlns:xlink="http://www.w3.org/1999/xlink" x="0px" y="0px"
	 width="24px" height="24px" viewBox="0 0 24 24" enable-background="new 0 0 24 24" xml:space="preserve">
<g>
	<path d="M11.5195,13.9697c-0.2764,0-0.5-0.2236-0.5-0.5v-7.978c0-0.2764,0.2236-0.5,0.5-0.5s0.5,0.2236,0.5,0.5v7.978
		C12.0195,13.7461,11.7959,13.9697,11.5195,13.9697z"/>
	<path d="M15.4287,9.981H7.6099c-0.2764,0-0.5-0.2236-0.5-0.5s0.2236-0.5,0.5-0.5h7.8188c0.2764,0,0.5,0.2236,0.5,0.5
		S15.7051,9.981,15.4287,9.981z"/>
	<path d="M6.6191,23.7783c-0.0718,0-0.1436-0.0156-0.2109-0.0469c-0.1763-0.082-0.2891-0.2588-0.2891-0.4531v-5.3818
		c-2.9771-0.918-5.9263-4.373-5.9263-8.873c0-4.8921,3.7227-9.0254,8.1294-9.0254h7.5205c4.2988,0,7.9307,4.1216,7.9307,9
		c0,4.8789-3.6318,9-7.9307,9h-2.1865l-6.7148,5.6621C6.8496,23.7383,6.7349,23.7783,6.6191,23.7783z M8.3223,0.998
		c-3.7979,0-7.1294,3.75-7.1294,8.0254c0,4.1982,2.8169,7.3662,5.54,8.0039c0.2266,0.0537,0.3862,0.2549,0.3862,0.4873v4.6875
		l6.0322-5.0859c0.0898-0.0762,0.2041-0.1182,0.3223-0.1182h2.3691c3.7568,0,6.9307-3.6631,6.9307-8c0-4.3364-3.1738-8-6.9307-8
		H8.3223z"/>
</g>
<rect y="-0.002" fill="none" width="24" height="24"/>
</svg>
