<?xml version="1.0" encoding="utf-8"?>
<!-- Generator: Adobe Illustrator 18.1.0, SVG Export Plug-In . SVG Version: 6.00 Build 0)  -->
<svg version="1.1" id="Layer_1" xmlns="http://www.w3.org/2000/svg" xmlns:xlink="http://www.w3.org/1999/xlink" x="0px" y="0px"
	 width="24px" height="24px" viewBox="0 0 24 24" enable-background="new 0 0 24 24" xml:space="preserve">
<g>
	<path d="M2.2642,23.7217c-0.5229,0-1.0151-0.2031-1.3853-0.5732c-0.7637-0.7637-0.7637-2.0078,0-2.7715l2.2056-2.2051
		c0.4551-0.4561,0.811-1.0166,1.0283-1.6211l1.103-3.0654c0.2021-0.5605,0.5317-1.0801,0.9531-1.5029l10.501-10.5
		c0.7842-0.7847,1.8281-1.2168,2.9375-1.2168s2.1533,0.4321,2.9375,1.2168c1.6191,1.6196,1.6191,4.2549,0,5.875l-10.5,10.5
		c-0.4214,0.4209-0.9409,0.751-1.5034,0.9541l-3.0649,1.1025c-0.6055,0.2178-1.166,0.5732-1.6211,1.0283l-2.2056,2.2061
		C3.2793,23.5186,2.7876,23.7217,2.2642,23.7217z M19.6074,1.2656c-0.8428,0-1.6348,0.3281-2.2305,0.9238l-10.5005,10.5
		c-0.3184,0.3184-0.5674,0.7109-0.7197,1.1338l-1.1025,3.0654c-0.2671,0.7432-0.7036,1.4307-1.2627,1.9902L1.5859,21.084
		c-0.374,0.374-0.374,0.9834,0,1.3574c0.3623,0.3613,0.9941,0.3613,1.3574,0l2.2051-2.2061
		c0.5586-0.5586,1.2466-0.9951,1.9893-1.2627l3.0649-1.1025c0.4248-0.1523,0.8169-0.4014,1.1343-0.7197l10.501-10.5
		c1.2295-1.23,1.2295-3.2314,0-4.4609C21.2422,1.5938,20.4502,1.2656,19.6074,1.2656z"/>
	<path d="M4.8809,21.71c-0.1279,0-0.2559-0.0488-0.3535-0.1465L2.4634,19.5c-0.1953-0.1953-0.1953-0.5117,0-0.707
		s0.5117-0.1953,0.707,0l2.064,2.0635c0.1953,0.1953,0.1953,0.5117,0,0.707C5.1367,21.6611,5.0088,21.71,4.8809,21.71z"/>
	<path d="M8.7554,15.7715c-0.1279,0-0.2559-0.0488-0.3535-0.1465c-0.1953-0.1953-0.1953-0.5117,0-0.707L19.1641,4.1558
		c0.1953-0.1953,0.5117-0.1953,0.707,0s0.1953,0.5117,0,0.707L9.1089,15.625C9.0112,15.7227,8.8833,15.7715,8.7554,15.7715z"/>
	<path d="M16.707,4.9634c-0.1279,0-0.2559-0.0488-0.3535-0.1465l-1.1553-1.1558c-0.1953-0.1953-0.1953-0.5117,0-0.707
		s0.5117-0.1953,0.707,0l1.1553,1.1558c0.1953,0.1953,0.1953,0.5117,0,0.707C16.9629,4.9146,16.835,4.9634,16.707,4.9634z"/>
	<path d="M14.7119,6.9585c-0.1279,0-0.2559-0.0488-0.3535-0.1465l-1.1553-1.1558c-0.1953-0.1953-0.1953-0.5117,0-0.707
		s0.5117-0.1953,0.707,0l1.1553,1.1558c0.1953,0.1953,0.1953,0.5117,0,0.707C14.9678,6.9097,14.8398,6.9585,14.7119,6.9585z"/>
	<path d="M12.7168,8.9536c-0.1279,0-0.2559-0.0488-0.3535-0.1465L11.208,7.6514c-0.1953-0.1953-0.1953-0.5117,0-0.707
		s0.5117-0.1953,0.707,0l1.1553,1.1558c0.1953,0.1953,0.1953,0.5117,0,0.707C12.9727,8.9048,12.8447,8.9536,12.7168,8.9536z"/>
	<path d="M10.7217,10.9487c-0.1279,0-0.2559-0.0488-0.3535-0.1465L9.2124,9.6465c-0.1953-0.1953-0.1953-0.5117,0-0.707
		s0.5117-0.1953,0.707,0l1.1558,1.1558c0.1953,0.1953,0.1953,0.5117,0,0.707C10.9775,10.8999,10.8496,10.9487,10.7217,10.9487z"/>
	<path d="M8.7266,12.9443c-0.1279,0-0.2559-0.0488-0.3535-0.1465l-1.1558-1.1558c-0.1953-0.1953-0.1953-0.5117,0-0.707
		s0.5117-0.1953,0.707,0l1.1558,1.1558c0.1953,0.1953,0.1953,0.5117,0,0.707C8.9824,12.8955,8.8545,12.9443,8.7266,12.9443z"/>
	<path d="M9.0142,6.0347h-7c-0.2764,0-0.5-0.2236-0.5-0.5s0.2236-0.5,0.5-0.5h7c0.2764,0,0.5,0.2236,0.5,0.5
		S9.2905,6.0347,9.0142,6.0347z"/>
	<path d="M5.5142,9.5347c-0.2764,0-0.5-0.2236-0.5-0.5v-7c0-0.2764,0.2236-0.5,0.5-0.5s0.5,0.2236,0.5,0.5v7
		C6.0142,9.311,5.7905,9.5347,5.5142,9.5347z"/>
</g>
<rect x="0.0142" y="0.0346" fill="none" width="24" height="24"/>
</svg>
