<?xml version="1.0" encoding="utf-8"?>
<!-- Generator: Adobe Illustrator 18.1.0, SVG Export Plug-In . SVG Version: 6.00 Build 0)  -->
<svg version="1.1" id="Layer_1" xmlns="http://www.w3.org/2000/svg" xmlns:xlink="http://www.w3.org/1999/xlink" x="0px" y="0px"
	 width="24px" height="24px" viewBox="0 0 24 24" enable-background="new 0 0 24 24" xml:space="preserve">
<g>
	<path d="M6.5049,23.002h-5c-0.2764,0-0.5-0.2236-0.5-0.5v-5.001c0-0.2764,0.2236-0.5,0.5-0.5h5c0.2764,0,0.5,0.2236,0.5,0.5v5.001
		C7.0049,22.7783,6.7812,23.002,6.5049,23.002z M2.0049,22.002h4v-4.001h-4V22.002z"/>
	<path d="M6.5049,15.001h-5c-0.2764,0-0.5-0.2236-0.5-0.5V9.5005c0-0.2764,0.2236-0.5,0.5-0.5h5c0.2764,0,0.5,0.2236,0.5,0.5v5.0005
		C7.0049,14.7773,6.7812,15.001,6.5049,15.001z M2.0049,14.001h4v-4.0005h-4V14.001z"/>
	<path d="M6.5049,7h-5c-0.2764,0-0.5-0.2236-0.5-0.5v-5c0-0.2764,0.2236-0.5,0.5-0.5h5c0.2764,0,0.5,0.2236,0.5,0.5v5
		C7.0049,6.7764,6.7812,7,6.5049,7z M2.0049,6h4V2h-4V6z"/>
	<path d="M21.4453,20H9.5142c-0.2764,0-0.5-0.2236-0.5-0.5s0.2236-0.5,0.5-0.5h11.9312c0.2764,0,0.5,0.2236,0.5,0.5
		S21.7217,20,21.4453,20z"/>
	<path d="M21.4453,11.9995H9.5142c-0.2764,0-0.5-0.2236-0.5-0.5s0.2236-0.5,0.5-0.5h11.9312c0.2764,0,0.5,0.2236,0.5,0.5
		S21.7217,11.9995,21.4453,11.9995z"/>
	<path d="M21.4453,3.9985H9.5142c-0.2764,0-0.5-0.2236-0.5-0.5s0.2236-0.5,0.5-0.5h11.9312c0.2764,0,0.5,0.2236,0.5,0.5
		S21.7217,3.9985,21.4453,3.9985z"/>
</g>
<rect x="0.0001" fill="none" width="24" height="24"/>
</svg>
