<?xml version="1.0" encoding="utf-8"?>
<!-- Generator: Adobe Illustrator 18.1.0, SVG Export Plug-In . SVG Version: 6.00 Build 0)  -->
<svg version="1.1" id="Layer_1" xmlns="http://www.w3.org/2000/svg" xmlns:xlink="http://www.w3.org/1999/xlink" x="0px" y="0px"
	 width="24px" height="24px" viewBox="0 0 24 24" enable-background="new 0 0 24 24" xml:space="preserve">
<g>
	<path d="M14.9346,24H9.0654c-0.1494,0-0.291-0.0664-0.3862-0.1826c-0.0947-0.1152-0.1333-0.2666-0.1045-0.4131l2.728-13.936
		c0.0532-0.271,0.311-0.4502,0.5869-0.3945c0.0386,0.0078,0.0752,0.0195,0.1094,0.0352c0.0342-0.0156,0.0713-0.0273,0.1104-0.0352
		c0.2646-0.0518,0.5332,0.1235,0.5859,0.3945l2.7295,13.936c0.0293,0.1465-0.0088,0.2979-0.1045,0.4131
		C15.2256,23.9336,15.084,24,14.9346,24z M9.6729,23h4.6543l-2.3276-11.8848L9.6729,23z"/>
	<path d="M12,10.084c-0.8921,0-1.6182-0.7261-1.6182-1.6187S11.1079,6.8467,12,6.8467c0.8926,0,1.6191,0.7261,1.6191,1.6187
		S12.8926,10.084,12,10.084z M12,7.8467c-0.3408,0-0.6182,0.2773-0.6182,0.6187S11.6592,9.084,12,9.084
		c0.3418,0,0.6191-0.2773,0.6191-0.6187S12.3418,7.8467,12,7.8467z"/>
	<path d="M6.2124,13.792c-0.1226,0-0.2451-0.0449-0.3418-0.1348c-1.4565-1.3643-2.2588-3.2085-2.2588-5.1929
		C3.6123,6.481,4.4141,4.6377,5.8706,3.2739c0.2021-0.1865,0.5181-0.1772,0.707,0.0234c0.1885,0.2017,0.1782,0.5181-0.0234,0.707
		c-1.2524,1.1724-1.9419,2.7563-1.9424,4.46c0,1.7046,0.6899,3.2896,1.9424,4.4624c0.2017,0.1895,0.2119,0.5059,0.0229,0.707
		C6.479,13.7393,6.3457,13.792,6.2124,13.792z"/>
	<path d="M3.8726,16.1318c-0.1245,0-0.249-0.0459-0.3457-0.1387c-2.0791-1.9902-3.2236-4.6636-3.2236-7.5273
		c0-2.8643,1.145-5.5376,3.2236-7.5278c0.1982-0.1909,0.5156-0.1836,0.707,0.0156c0.1909,0.1992,0.1841,0.5161-0.0156,0.707
		C2.3384,3.46,1.3032,5.877,1.3032,8.4658c0,2.5884,1.0352,5.0049,2.915,6.8047c0.1997,0.1914,0.2065,0.5078,0.0156,0.707
		C4.1357,16.0801,4.0039,16.1318,3.8726,16.1318z"/>
	<path d="M8.5518,11.4521c-0.1172,0-0.2349-0.041-0.3296-0.124C7.395,10.603,6.9209,9.5601,6.9209,8.4658
		S7.395,6.3276,8.2222,5.6025c0.2065-0.1812,0.5229-0.1621,0.7056,0.0464c0.1821,0.2075,0.1611,0.5234-0.0464,0.7056
		C8.271,6.8896,7.9209,7.6592,7.9209,8.4658c0,0.8062,0.3501,1.5752,0.9604,2.1104c0.2075,0.1821,0.2285,0.498,0.0464,0.7056
		C8.8291,11.3945,8.6904,11.4521,8.5518,11.4521z"/>
	<path d="M17.7881,13.792c-0.1338,0-0.2666-0.0527-0.3652-0.1582c-0.1885-0.2012-0.1777-0.5176,0.0234-0.707
		c1.252-1.1729,1.9414-2.7573,1.9414-4.4614c0-1.7046-0.6895-3.2886-1.9414-4.4614c-0.2012-0.1885-0.2119-0.5049-0.0234-0.7065
		c0.1904-0.2012,0.5049-0.2114,0.707-0.0229c1.4561,1.3633,2.2578,3.207,2.2578,5.1909s-0.8018,3.8276-2.2578,5.1919
		C18.0332,13.7471,17.9111,13.792,17.7881,13.792z"/>
	<path d="M20.127,16.1318c-0.1318,0-0.2627-0.0518-0.3613-0.1543c-0.1904-0.1992-0.1836-0.5156,0.0156-0.707
		c1.8809-1.7998,2.916-4.2173,2.916-6.8066c-0.001-2.5884-1.0361-5.0044-2.916-6.8032c-0.1992-0.1909-0.2061-0.5073-0.0156-0.707
		c0.1924-0.1982,0.5078-0.207,0.707-0.0156c2.0791,1.9897,3.2236,4.6621,3.2246,7.5259c0,2.8647-1.1455,5.5391-3.2246,7.5293
		C20.376,16.0859,20.251,16.1318,20.127,16.1318z"/>
	<path d="M15.4482,11.4521c-0.1387,0-0.2773-0.0576-0.376-0.1704c-0.1816-0.2075-0.1611-0.5234,0.0469-0.7056
		c0.6104-0.5352,0.96-1.3047,0.96-2.1108s-0.3496-1.5757-0.96-2.1108c-0.208-0.1821-0.2285-0.498-0.0469-0.7056
		c0.1816-0.2085,0.498-0.2275,0.7051-0.0464c0.8281,0.7251,1.3018,1.7686,1.3018,2.8628c0,1.0947-0.4736,2.1382-1.3018,2.8628
		C15.6826,11.4111,15.5654,11.4521,15.4482,11.4521z"/>
</g>
<rect fill="none" width="24" height="24"/>
</svg>
