<?xml version="1.0" encoding="utf-8"?>
<!-- Generator: Adobe Illustrator 18.1.0, SVG Export Plug-In . SVG Version: 6.00 Build 0)  -->
<svg version="1.1" id="Layer_1" xmlns="http://www.w3.org/2000/svg" xmlns:xlink="http://www.w3.org/1999/xlink" x="0px" y="0px"
	 width="24px" height="24px" viewBox="0 0 24 24" enable-background="new 0 0 24 24" xml:space="preserve">
<g>
	<path d="M21.9854,24.0195H10.0146C8.9038,24.0195,8,23.1162,8,22.0049V10.0342c0-1.1108,0.9038-2.0146,2.0146-2.0146h11.9707
		C23.0967,8.0195,24,8.9233,24,10.0342v11.9707C24,23.1162,23.0967,24.0195,21.9854,24.0195z M10.0146,9.0195
		C9.4551,9.0195,9,9.4746,9,10.0342v11.9707c0,0.5596,0.4551,1.0146,1.0146,1.0146h11.9707c0.5596,0,1.0146-0.4551,1.0146-1.0146
		V10.0342c0-0.5596-0.4551-1.0146-1.0146-1.0146H10.0146z"/>
	<path d="M6,16.0195H2.0146C0.9038,16.0195,0,15.1162,0,14.0049V2.0342c0-1.1108,0.9038-2.0146,2.0146-2.0146h11.9707
		C15.0967,0.0195,16,0.9233,16,2.0342v3.9854c0,0.2764-0.2236,0.5-0.5,0.5s-0.5-0.2236-0.5-0.5V2.0342
		c0-0.5596-0.4551-1.0146-1.0146-1.0146H2.0146C1.4551,1.0195,1,1.4746,1,2.0342v11.9707c0,0.5596,0.4551,1.0146,1.0146,1.0146H6
		c0.2764,0,0.5,0.2236,0.5,0.5S6.2764,16.0195,6,16.0195z"/>
	<path d="M11.9526,20.2002c-0.8848,0-1.6045-0.7197-1.6045-1.6055c0-0.8848,0.7197-1.6045,1.6045-1.6045
		c0.8853,0,1.605,0.7197,1.605,1.6045C13.5576,19.4805,12.8379,20.2002,11.9526,20.2002z M11.9526,17.9902
		c-0.3335,0-0.6045,0.2715-0.6045,0.6045c0,0.334,0.271,0.6055,0.6045,0.6055s0.605-0.2715,0.605-0.6055
		C12.5576,18.2617,12.2861,17.9902,11.9526,17.9902z"/>
	<path d="M16,20.2002c-0.8848,0-1.6045-0.7197-1.6045-1.6055c0-0.8848,0.7197-1.6045,1.6045-1.6045s1.6045,0.7197,1.6045,1.6045
		C17.6045,19.4805,16.8848,20.2002,16,20.2002z M16,17.9902c-0.333,0-0.6045,0.2715-0.6045,0.6045
		c0,0.334,0.2715,0.6055,0.6045,0.6055s0.6045-0.2715,0.6045-0.6055C16.6045,18.2617,16.333,17.9902,16,17.9902z"/>
	<path d="M20.0469,20.2002c-0.8848,0-1.6045-0.7197-1.6045-1.6055c0-0.8848,0.7197-1.6045,1.6045-1.6045
		c0.8857,0,1.6055,0.7197,1.6055,1.6045C21.6523,19.4805,20.9326,20.2002,20.0469,20.2002z M20.0469,17.9902
		c-0.333,0-0.6045,0.2715-0.6045,0.6045c0,0.334,0.2715,0.6055,0.6045,0.6055c0.334,0,0.6055-0.2715,0.6055-0.6055
		C20.6523,18.2617,20.3809,17.9902,20.0469,17.9902z"/>
	<path d="M3.7695,5.3345c-0.8848,0-1.6045-0.7202-1.6045-1.605S2.8848,2.125,3.7695,2.125S5.374,2.8447,5.374,3.7295
		S4.6543,5.3345,3.7695,5.3345z M3.7695,3.125c-0.3335,0-0.6045,0.271-0.6045,0.6045s0.271,0.605,0.6045,0.605
		S4.374,4.063,4.374,3.7295S4.103,3.125,3.7695,3.125z"/>
	<path d="M7.0806,8.6455c-0.8848,0-1.6045-0.7197-1.6045-1.6045s0.7197-1.605,1.6045-1.605s1.605,0.7202,1.605,1.605
		S7.9653,8.6455,7.0806,8.6455z M7.0806,6.436c-0.3335,0-0.6045,0.2715-0.6045,0.605s0.271,0.6045,0.6045,0.6045
		s0.605-0.271,0.605-0.6045S7.4141,6.436,7.0806,6.436z"/>
	<path d="M11.9526,15.0488c-0.8848,0-1.6045-0.7197-1.6045-1.6045s0.7197-1.6045,1.6045-1.6045c0.8853,0,1.605,0.7197,1.605,1.6045
		S12.8379,15.0488,11.9526,15.0488z M11.9526,12.8398c-0.3335,0-0.6045,0.2715-0.6045,0.6045s0.271,0.6045,0.6045,0.6045
		s0.605-0.2715,0.605-0.6045S12.2861,12.8398,11.9526,12.8398z"/>
	<path d="M16,15.0488c-0.8848,0-1.6045-0.7197-1.6045-1.6045S15.1152,11.8398,16,11.8398s1.6045,0.7197,1.6045,1.6045
		S16.8848,15.0488,16,15.0488z M16,12.8398c-0.333,0-0.6045,0.2715-0.6045,0.6045S15.667,14.0488,16,14.0488
		s0.6045-0.2715,0.6045-0.6045S16.333,12.8398,16,12.8398z"/>
	<path d="M20.0469,15.0488c-0.8848,0-1.6045-0.7197-1.6045-1.6045s0.7197-1.6045,1.6045-1.6045
		c0.8857,0,1.6055,0.7197,1.6055,1.6045S20.9326,15.0488,20.0469,15.0488z M20.0469,12.8398c-0.333,0-0.6045,0.2715-0.6045,0.6045
		s0.2715,0.6045,0.6045,0.6045c0.334,0,0.6055-0.2715,0.6055-0.6045S20.3809,12.8398,20.0469,12.8398z"/>
</g>
<rect y="0.0197" fill="none" width="24" height="24"/>
</svg>
