<?xml version="1.0" encoding="utf-8"?>
<!-- Generator: Adobe Illustrator 18.1.0, SVG Export Plug-In . SVG Version: 6.00 Build 0)  -->
<svg version="1.1" id="Layer_1" xmlns="http://www.w3.org/2000/svg" xmlns:xlink="http://www.w3.org/1999/xlink" x="0px" y="0px"
	 width="24px" height="24px" viewBox="0 0 24 24" enable-background="new 0 0 24 24" xml:space="preserve">
<g>
	<path d="M22.8672,6.9878H5.0522c-0.2764,0-0.5-0.2236-0.5-0.5s0.2236-0.5,0.5-0.5h17.8149c0.2764,0,0.5,0.2236,0.5,0.5
		S23.1436,6.9878,22.8672,6.9878z"/>
	<path d="M7.9932,23.9092c-1.3608,0-2.4683-1.1035-2.4683-2.46c0-1.3555,1.1074-2.459,2.4683-2.459s2.4683,1.1035,2.4683,2.459
		C10.4614,22.8057,9.354,23.9092,7.9932,23.9092z M7.9932,19.9902c-0.8096,0-1.4683,0.6543-1.4683,1.459s0.6587,1.46,1.4683,1.46
		s1.4683-0.6553,1.4683-1.46S8.8027,19.9902,7.9932,19.9902z"/>
	<path d="M17.9941,23.9092c-1.3613,0-2.4688-1.1035-2.4688-2.46c0-1.3555,1.1074-2.459,2.4688-2.459
		c1.3604,0,2.4678,1.1035,2.4678,2.459C20.4619,22.8057,19.3545,23.9092,17.9941,23.9092z M17.9941,19.9902
		c-0.8096,0-1.4688,0.6543-1.4688,1.459s0.6592,1.46,1.4688,1.46s1.4678-0.6553,1.4678-1.46S18.8037,19.9902,17.9941,19.9902z"/>
	<path d="M21.9326,10H5.7061c-0.2764,0-0.5-0.2236-0.5-0.5S5.4297,9,5.7061,9h16.2266c0.2764,0,0.5,0.2236,0.5,0.5
		S22.209,10,21.9326,10z"/>
	<path d="M21.001,13H6.3569c-0.2764,0-0.5-0.2236-0.5-0.5s0.2236-0.5,0.5-0.5h14.644c0.2764,0,0.5,0.2236,0.5,0.5
		S21.2773,13,21.001,13z"/>
	<path d="M20.0703,16H7.0078c-0.2354,0-0.439-0.1641-0.4888-0.3936L4.001,4.001H0.502c-0.2764,0-0.5-0.2236-0.5-0.5
		s0.2236-0.5,0.5-0.5h3.9023c0.2354,0,0.439,0.1641,0.4888,0.394L7.4111,15h12.6592c0.2764,0,0.5,0.2236,0.5,0.5
		S20.3467,16,20.0703,16z"/>
</g>
<rect x="0.0019" y="-0.0147" fill="none" width="24" height="24"/>
</svg>
