<?xml version="1.0" encoding="utf-8"?>
<!-- Generator: Adobe Illustrator 18.1.0, SVG Export Plug-In . SVG Version: 6.00 Build 0)  -->
<svg version="1.1" id="Layer_1" xmlns="http://www.w3.org/2000/svg" xmlns:xlink="http://www.w3.org/1999/xlink" x="0px" y="0px"
	 width="24px" height="24px" viewBox="0 0 24 24" enable-background="new 0 0 24 24" xml:space="preserve">
<g>
	<path d="M12.8975,15H0.5C0.2236,15,0,14.7764,0,14.5v-11C0,3.2236,0.2236,3,0.5,3H23c0.2764,0,0.5,0.2236,0.5,0.5S23.2764,4,23,4H1
		v10h11.8975c0.2764,0,0.5,0.2236,0.5,0.5S13.1738,15,12.8975,15z"/>
	<path d="M23,15h-7.8994c-0.2764,0-0.5-0.2236-0.5-0.5s0.2236-0.5,0.5-0.5H23c0.2764,0,0.5,0.2236,0.5,0.5S23.2764,15,23,15z"/>
	<path d="M21.502,12.2373c-0.2764,0-0.5-0.2246-0.5-0.5005V6.2651c0-0.2764,0.2236-0.5,0.5-0.5s0.5,0.2236,0.5,0.5v5.4717
		C22.002,12.0127,21.7783,12.2373,21.502,12.2373z"/>
	<path d="M16.7793,21.7354L16.7793,21.7354c-0.2656,0-0.5127-0.1436-0.6455-0.374l-0.9775-1.7158l-0.5771,0.5781
		c-0.4004,0.3994-1.166,0.1523-1.2607-0.4004l-1.2012-6.8877c-0.0381-0.2168,0.0205-0.4375,0.1611-0.6045
		c0.2607-0.3115,0.7676-0.3525,1.0703-0.0771l5.2627,4.7266c0.2129,0.1934,0.2959,0.4824,0.2197,0.7559
		c-0.0771,0.2725-0.2969,0.4756-0.5742,0.5303l-0.5146,0.1016l0.9648,1.2734c0.123,0.1611,0.1748,0.3701,0.1416,0.5723
		c-0.0342,0.2021-0.1514,0.3828-0.3213,0.4961l-1.332,0.8984C17.0732,21.6914,16.9287,21.7354,16.7793,21.7354z M15.2666,18.3281
		c0.0225,0,0.0439,0.001,0.0664,0.0049c0.1553,0.0205,0.291,0.1123,0.3682,0.248l1.1641,2.0439l0.8818-0.5947l-1.2852-1.6963
		c-0.1045-0.1367-0.1299-0.3184-0.0693-0.4795c0.0615-0.1611,0.2021-0.2793,0.3711-0.3125l0.7998-0.1582l-4.335-3.8936
		l0.9912,5.6787l0.6934-0.6943C15.0068,18.3799,15.1348,18.3281,15.2666,18.3281z"/>
	<path d="M3.8423,11.0342c-0.2085,0-0.3955-0.1294-0.4683-0.3247L2.3394,7.9414C2.2427,7.6826,2.374,7.3945,2.6323,7.2979
		c0.2612-0.0962,0.5469,0.0347,0.6436,0.293l0.5625,1.5054l0.5532-1.5029C4.4639,7.397,4.6504,7.2666,4.8594,7.2661
		c0.0005,0,0.001,0,0.0015,0c0.2085,0,0.3955,0.1294,0.4683,0.3252l0.5625,1.5049l0.5527-1.5029
		C6.54,7.334,6.8276,7.2036,7.0864,7.2969C7.3452,7.3921,7.478,7.6797,7.3828,7.939L6.3643,10.707
		c-0.0723,0.1963-0.2588,0.3267-0.4678,0.3271c-0.0005,0-0.001,0-0.0015,0c-0.2085,0-0.3955-0.1294-0.4683-0.3252L4.8643,9.2041
		L4.3115,10.707c-0.0723,0.1958-0.2588,0.3267-0.4678,0.3271C3.8433,11.0342,3.8428,11.0342,3.8423,11.0342z"/>
	<path d="M11.2896,11.0342c-0.2085,0-0.3955-0.1294-0.4683-0.3247l-0.5625-1.5054L9.7056,10.707
		c-0.0723,0.1958-0.2588,0.3267-0.4678,0.3271c-0.0005,0-0.001,0-0.0015,0c-0.2085,0-0.3955-0.1294-0.4683-0.3247L7.7334,7.9414
		c-0.0967-0.2588,0.0347-0.5469,0.293-0.6436c0.2598-0.0962,0.5469,0.0347,0.6436,0.293l0.5625,1.5054l0.5532-1.5029
		c0.0723-0.1958,0.2588-0.3267,0.4678-0.3271c0.0005,0,0.001,0,0.0015,0c0.2085,0,0.3955,0.1294,0.4683,0.3247l0.5625,1.5054
		l0.5527-1.5024c0.0957-0.2603,0.3813-0.3906,0.6421-0.2969c0.2588,0.0952,0.3916,0.3828,0.2969,0.6416l-1.0186,2.7681
		c-0.0723,0.1963-0.2588,0.3271-0.4678,0.3276C11.2905,11.0342,11.29,11.0342,11.2896,11.0342z"/>
	<path d="M16.5986,11.0342c-0.209,0-0.3955-0.1294-0.4688-0.3247l-0.5625-1.5059l-0.5527,1.5034
		c-0.0723,0.1963-0.2598,0.3267-0.4688,0.3271h-0.001c-0.209,0-0.3955-0.1294-0.4688-0.3252L13.042,7.9409
		c-0.0967-0.2583,0.0352-0.5464,0.2939-0.6431c0.2568-0.0957,0.5469,0.0342,0.6436,0.2935l0.5615,1.5049l0.5527-1.5029
		c0.0723-0.1958,0.2598-0.3267,0.4688-0.3271h0.001c0.209,0,0.3955,0.1294,0.4688,0.3247l0.5625,1.5059l0.5527-1.5034
		c0.0967-0.2598,0.3818-0.3901,0.6426-0.2964c0.2588,0.0952,0.3916,0.3828,0.2969,0.6421l-1.0186,2.7681
		c-0.0723,0.1958-0.2598,0.3267-0.4688,0.3271H16.5986z"/>
	<path d="M18.5303,11.04c-0.1309,0-0.2607-0.0601-0.3506-0.1504c-0.0996-0.0996-0.1494-0.2197-0.1494-0.3599
		c0-0.1299,0.0498-0.25,0.1494-0.3501c0.1797-0.1899,0.5205-0.1899,0.71,0c0.0898,0.1001,0.1406,0.23,0.1406,0.3501
		c0,0.1299-0.0508,0.2603-0.1406,0.3501C18.79,10.98,18.6699,11.04,18.5303,11.04z"/>
</g>
<rect fill="none" width="24" height="24"/>
</svg>
