<?xml version="1.0" encoding="utf-8"?>
<!-- Generator: Adobe Illustrator 18.1.0, SVG Export Plug-In . SVG Version: 6.00 Build 0)  -->
<svg version="1.1" id="Layer_1" xmlns="http://www.w3.org/2000/svg" xmlns:xlink="http://www.w3.org/1999/xlink" x="0px" y="0px"
	 width="24px" height="24px" viewBox="0 0 24 24" enable-background="new 0 0 24 24" xml:space="preserve">
<g>
	<path d="M12.001,23.7939H12c-3.1592,0-6.126-1.2275-8.354-3.4551c-4.605-4.6055-4.605-12.0996,0-16.7051
		c2.228-2.2275,5.1943-3.4546,8.353-3.4546c3.1582,0,6.125,1.2271,8.3525,3.4546c2.2275,2.228,3.4551,5.1943,3.4551,8.353
		s-1.2275,6.1255-3.4551,8.353C18.125,22.5674,15.1592,23.7939,12.001,23.7939z M11.999,1.1792c-2.8916,0-5.6069,1.123-7.646,3.1616
		c-4.2153,4.2158-4.2153,11.0752,0,15.291c2.0391,2.0391,4.7549,3.1621,7.647,3.1621h0.001c2.8906,0,5.6055-1.1221,7.6436-3.1611
		c2.0391-2.0391,3.1621-4.7549,3.1621-7.646c0-2.8916-1.123-5.6069-3.1621-7.646C17.6055,2.3022,14.8906,1.1792,11.999,1.1792z"/>
	<path d="M3.9995,20.4854c-0.1279,0-0.2559-0.0488-0.3535-0.1465c-0.1953-0.1953-0.1953-0.5117,0-0.707l15.9985-15.998
		c0.1953-0.1953,0.5117-0.1953,0.707,0s0.1953,0.5117,0,0.707L4.353,20.3389C4.2554,20.4365,4.1274,20.4854,3.9995,20.4854z"/>
</g>
<rect fill="none" width="24" height="24"/>
</svg>
