<?xml version="1.0" encoding="utf-8"?>
<!-- Generator: Adobe Illustrator 18.1.0, SVG Export Plug-In . SVG Version: 6.00 Build 0)  -->
<svg version="1.1" id="Layer_1" xmlns="http://www.w3.org/2000/svg" xmlns:xlink="http://www.w3.org/1999/xlink" x="0px" y="0px"
	 width="24px" height="24px" viewBox="0 0 24 24" enable-background="new 0 0 24 24" xml:space="preserve">
<g>
	<path d="M21.4863,24h-19c-0.2764,0-0.5-0.2236-0.5-0.5V10.5132c0-0.2764,0.2236-0.5,0.5-0.5s0.5,0.2236,0.5,0.5V23h18V10.5132
		c0-0.2764,0.2236-0.5,0.5-0.5s0.5,0.2236,0.5,0.5V23.5C21.9863,23.7764,21.7627,24,21.4863,24z"/>
	<path d="M10.4863,24h-4c-0.2764,0-0.5-0.2236-0.5-0.5v-9c0-0.2764,0.2236-0.5,0.5-0.5h4c0.2764,0,0.5,0.2236,0.5,0.5v9
		C10.9863,23.7764,10.7627,24,10.4863,24z M6.9863,23h3v-8h-3V23z"/>
	<path d="M17.5117,18.002h-3.9775c-0.2764,0-0.5-0.2236-0.5-0.5v-2.9795c0-0.2764,0.2236-0.5,0.5-0.5h3.9775
		c0.2764,0,0.5,0.2236,0.5,0.5v2.9795C18.0117,17.7783,17.7881,18.002,17.5117,18.002z M14.0342,17.002h2.9775v-1.9795h-2.9775
		V17.002z"/>
	<path d="M11.9849,9.0708c-0.7178,0-1.3901-0.2446-1.8936-0.6885c-0.144-0.127-0.271-0.2666-0.3809-0.4185
		c-0.9653,1.334-3.0522,1.4009-4.1655,0.418c-0.144-0.127-0.2715-0.2671-0.3809-0.4194C4.1987,9.2935,2.1074,9.3633,0.9951,8.3818
		C0.4214,7.875,0.1177,7.1606,0.1177,6.3159c0-0.1113,0.0371-0.2197,0.106-0.3076l3.7231-4.7695
		c0.0947-0.1216,0.2402-0.1924,0.394-0.1924h15.3086c0.1543,0,0.2998,0.0713,0.3945,0.1934L23.75,6.0093
		c0.0684,0.0874,0.1055,0.1953,0.1055,0.3066c0,2.9487-3.6807,3.5342-5.0479,1.646c-0.9668,1.3369-3.0557,1.4023-4.168,0.4199
		c-0.1445-0.127-0.2715-0.2666-0.3809-0.4185C13.7305,8.6943,12.8545,9.0703,11.9849,9.0708z M10.2114,6.3159
		c0,0.5493,0.187,1.0044,0.541,1.3164c0.9131,0.8057,3.0073,0.5361,3.0073-1.3164c0-0.2764,0.2236-0.5,0.5-0.5s0.5,0.2236,0.5,0.5
		c0,0.5488,0.1875,1.0039,0.541,1.3159c0.915,0.8071,3.0059,0.5371,3.0059-1.3159c0-0.2764,0.2236-0.5,0.5-0.5s0.5,0.2236,0.5,0.5
		c0,1.2109,0.8926,1.7529,1.7773,1.7529c0.8408,0,1.6885-0.4932,1.7656-1.5889l-3.4453-4.4336H4.585L1.1235,6.4805
		c0.0337,0.4761,0.2163,0.8716,0.5332,1.1514c0.9185,0.8105,3.0083,0.541,3.0088-1.3159c0-0.2764,0.2236-0.5,0.5-0.5
		s0.5,0.2236,0.5,0.5c0,0.5488,0.187,1.0039,0.541,1.3159C7.1206,8.439,9.2119,8.1689,9.2114,6.3159c0-0.2764,0.2236-0.5,0.5-0.5
		S10.2114,6.0396,10.2114,6.3159z"/>
</g>
<rect x="-0.0136" y="0.0001" fill="none" width="24" height="24"/>
</svg>
