<?xml version="1.0" encoding="utf-8"?>
<!-- Generator: Adobe Illustrator 18.1.0, SVG Export Plug-In . SVG Version: 6.00 Build 0)  -->
<svg version="1.1" id="Layer_1" xmlns="http://www.w3.org/2000/svg" xmlns:xlink="http://www.w3.org/1999/xlink" x="0px" y="0px"
	 width="24px" height="24px" viewBox="0 0 24 24" enable-background="new 0 0 24 24" xml:space="preserve">
<g>
	<path d="M10.4863,10.0425H3.4858c-0.1328,0-0.2598-0.0527-0.3535-0.1465S2.9858,9.6753,2.9858,9.5425L2.9863,2
		c0-0.2764,0.2236-0.5,0.5-0.5l0,0c0.2764,0,0.5,0.2241,0.5,0.5L3.9858,9.0425h6.5005c0.2764,0,0.5,0.2236,0.5,0.5
		S10.7627,10.0425,10.4863,10.0425z"/>
	<path d="M20.4863,10h-7c-0.2764,0-0.5-0.2236-0.5-0.5S13.21,9,13.4863,9h6.5V2c0-0.2764,0.2236-0.5,0.5-0.5s0.5,0.2236,0.5,0.5v7.5
		C20.9863,9.7764,20.7627,10,20.4863,10z"/>
	<path d="M23.4863,4h-1.5c-0.2764,0-0.5-0.2236-0.5-0.5S21.71,3,21.9863,3h1V1h-22v2h1c0.2764,0,0.5,0.2236,0.5,0.5
		S2.2627,4,1.9863,4h-1.5c-0.2764,0-0.5-0.2236-0.5-0.5v-3c0-0.2764,0.2236-0.5,0.5-0.5h23c0.2764,0,0.5,0.2236,0.5,0.5v3
		C23.9863,3.7764,23.7627,4,23.4863,4z"/>
	<path d="M10.1655,23.5645c-0.1738,0-0.3428-0.0908-0.4351-0.2529c-2.8232-4.9639-0.2935-9.2979,0.2559-10.1348V7
		c0-1.9917,2.3008-2.4419,3.3633-1.4971C13.6406,5.7607,13.9863,6.2295,13.9863,7v6c0,0.2764-0.2236,0.5-0.5,0.5
		s-0.5-0.2236-0.5-0.5V7c0-0.3203-0.1006-0.5723-0.3008-0.7495c-0.1768-0.1577-0.4316-0.248-0.6982-0.248
		c-0.4619,0-1.001,0.2612-1.001,0.9976v6.3311c0,0.1074-0.0352,0.2129-0.0991,0.2988c-0.1274,0.1719-3.0874,4.2646-0.2876,9.1875
		c0.1367,0.2402,0.0527,0.5449-0.1875,0.6816C10.334,23.543,10.2495,23.5645,10.1655,23.5645z"/>
	<path d="M16.3525,23.7305c-0.0195,0-0.0391-0.001-0.0596-0.0039c-0.2734-0.0312-0.4697-0.2803-0.4385-0.5547
		c0.0156-0.126,0.373-3.1152,1.3594-5.832c1.8662-5.1387,1.3721-7.7114,1.3672-7.7368c-0.0557-0.2695,0.1172-0.5347,0.3867-0.5913
		c0.2725-0.0552,0.5342,0.1143,0.5908,0.3828c0.0244,0.1133,0.5752,2.835-1.4053,8.2871c-0.9453,2.6045-1.3018,5.5771-1.3047,5.6074
		C16.8184,23.543,16.6025,23.7305,16.3525,23.7305z"/>
	<path d="M10.4863,12.9219H7.0186c-0.5713,0-1.0757-0.2217-1.4204-0.623c-0.3008-0.3506-0.4668-0.8169-0.4668-1.313
		c0-0.9658,0.6484-1.9434,1.8872-1.9434h3.4678c0.2764,0,0.5,0.2236,0.5,0.5v2.8794
		C10.9863,12.6982,10.7627,12.9219,10.4863,12.9219z M7.0186,10.0425c-0.6548,0-0.8872,0.5083-0.8872,0.9434
		c0,0.2534,0.0825,0.4946,0.2256,0.6621c0.1562,0.1816,0.3789,0.2739,0.6616,0.2739h2.9678v-1.8794H7.0186z"/>
	<path d="M9.4839,15.8008H8.2363c-1.2446,0-1.896-0.9756-1.896-1.9404c0-0.4961,0.167-0.9639,0.4702-1.3154
		c0.3467-0.4014,0.853-0.623,1.4258-0.623h2.25c0.2764,0,0.5,0.2236,0.5,0.5s-0.2236,0.5-0.5,0.5h-2.25
		c-0.6611,0-0.896,0.5059-0.896,0.9385c0,0.4336,0.2349,0.9404,0.896,0.9404h1.2476c0.2764,0,0.5,0.2236,0.5,0.5
		S9.7603,15.8008,9.4839,15.8008z"/>
</g>
<rect x="-0.0136" y="0.0001" fill="none" width="24" height="24"/>
</svg>
