<?xml version="1.0" encoding="utf-8"?>
<!-- Generator: Adobe Illustrator 18.1.0, SVG Export Plug-In . SVG Version: 6.00 Build 0)  -->
<svg version="1.1" id="Layer_1" xmlns="http://www.w3.org/2000/svg" xmlns:xlink="http://www.w3.org/1999/xlink" x="0px" y="0px"
	 width="24px" height="24px" viewBox="0 0 24 24" enable-background="new 0 0 24 24" xml:space="preserve">
<g>
	<path d="M9.4863,16.9658c-0.2764,0-0.5-0.2236-0.5-0.5V8.5684c0-0.2764,0.2236-0.5,0.5-0.5s0.5,0.2236,0.5,0.5v7.8975
		C9.9863,16.7422,9.7627,16.9658,9.4863,16.9658z"/>
	<path d="M14.4863,16.9658c-0.2764,0-0.5-0.2236-0.5-0.5V8.5684c0-0.2764,0.2236-0.5,0.5-0.5s0.5,0.2236,0.5,0.5v7.8975
		C14.9863,16.7422,14.7627,16.9658,14.4863,16.9658z"/>
	<path d="M16.4854,17H7.4868c-0.8271,0-1.5005-0.6738-1.5005-1.501V9.5005C5.9863,8.6733,6.6597,8,7.4868,8h8.9985
		c0.8271,0,1.501,0.6733,1.501,1.5005v5.9985C17.9863,16.3262,17.3125,17,16.4854,17z M7.4868,9
		C7.2109,9,6.9863,9.2246,6.9863,9.5005v5.9985c0,0.2764,0.2246,0.501,0.5005,0.501h8.9985c0.2764,0,0.501-0.2246,0.501-0.501
		V9.5005C16.9863,9.2246,16.7617,9,16.4854,9H7.4868z"/>
	<path d="M13.4863,9c-0.2764,0-0.5-0.2236-0.5-0.5V7.3613c0-0.186-0.1406-0.3613-0.249-0.3613h-1.502
		c-0.1187,0-0.249,0.189-0.249,0.3613V8.5c0,0.2764-0.2236,0.5-0.5,0.5s-0.5-0.2236-0.5-0.5V7.3613
		C9.9863,6.7041,10.4883,6,11.2354,6h1.502c0.7471,0,1.249,0.7041,1.249,1.3613V8.5C13.9863,8.7764,13.7627,9,13.4863,9z"/>
	<path d="M4.4897,22.0498c-0.1299,0-0.2598-0.0498-0.3501-0.1396c-0.0996-0.1104-0.1499-0.2305-0.1499-0.3604
		S4.04,21.29,4.1299,21.2002c0.1899-0.1904,0.5298-0.1904,0.71,0c0.0898,0.0898,0.1499,0.2197,0.1499,0.3496
		s-0.0498,0.2598-0.1499,0.3496C4.75,22,4.6196,22.0498,4.4897,22.0498z"/>
	<path d="M19.4902,22.0498c-0.1309,0-0.2607-0.0498-0.3506-0.1396c-0.0996-0.1006-0.1494-0.2305-0.1494-0.3604
		c0-0.1396,0.0498-0.2695,0.1494-0.3604c0.1699-0.1699,0.5098-0.1797,0.7002,0c0.0898,0.1006,0.1504,0.2305,0.1504,0.3604
		s-0.0508,0.25-0.1406,0.3496C19.7402,22,19.6201,22.0498,19.4902,22.0498z"/>
	<path d="M23.4863,19h-23c-0.2764,0-0.5-0.2236-0.5-0.5V9.9399C-0.0137,6.1782,2.9219,3,6.3965,3H17.248
		c3.5898,0,6.7383,3.2432,6.7383,6.9399V18.5C23.9863,18.7764,23.7627,19,23.4863,19z M0.9863,18h22V9.9399
		C22.9863,6.8311,20.251,4,17.248,4H6.3965C3.4639,4,0.9863,6.7202,0.9863,9.9399V18z"/>
	<path d="M11.9863,4c-0.8472,0-1.5361-0.689-1.5361-1.5361c0-0.8467,0.689-1.5356,1.5361-1.5356
		c0.8467,0,1.5361,0.689,1.5361,1.5356C13.5225,3.311,12.833,4,11.9863,4z M11.9863,1.9282c-0.2954,0-0.5361,0.2402-0.5361,0.5356
		S11.6909,3,11.9863,3c0.2959,0,0.5361-0.2407,0.5361-0.5361S12.2822,1.9282,11.9863,1.9282z"/>
	<path d="M4.4863,23.6797c-1.1743,0-2.1299-0.9551-2.1299-2.1299s0.9556-2.1299,2.1299-2.1299s2.1299,0.9551,2.1299,2.1299
		S5.6606,23.6797,4.4863,23.6797z M4.4863,20.4199c-0.623,0-1.1299,0.5068-1.1299,1.1299s0.5068,1.1299,1.1299,1.1299
		s1.1299-0.5068,1.1299-1.1299S5.1094,20.4199,4.4863,20.4199z"/>
	<path d="M19.4873,23.6797c-1.1748,0-2.1299-0.9551-2.1299-2.1299s0.9551-2.1299,2.1299-2.1299s2.1299,0.9551,2.1299,2.1299
		S20.6621,23.6797,19.4873,23.6797z M19.4873,20.4199c-0.623,0-1.1299,0.5068-1.1299,1.1299s0.5068,1.1299,1.1299,1.1299
		s1.1299-0.5068,1.1299-1.1299S20.1104,20.4199,19.4873,20.4199z"/>
</g>
<rect x="-0.0136" y="0.0001" fill="none" width="24" height="24"/>
</svg>
