<?xml version="1.0" encoding="utf-8"?>
<!-- Generator: Adobe Illustrator 18.1.0, SVG Export Plug-In . SVG Version: 6.00 Build 0)  -->
<svg version="1.1" id="Layer_1" xmlns="http://www.w3.org/2000/svg" xmlns:xlink="http://www.w3.org/1999/xlink" x="0px" y="0px"
	 width="24px" height="24px" viewBox="0 0 24 24" enable-background="new 0 0 24 24" xml:space="preserve">
<g>
	<path d="M18.7412,16.9248c-0.2764,0-0.5-0.2236-0.5-0.5v-2.8584c0-0.2764,0.2236-0.5,0.5-0.5h1.8496c0.2764,0,0.5,0.2236,0.5,0.5
		s-0.2236,0.5-0.5,0.5h-1.3496v2.3584C19.2412,16.7012,19.0176,16.9248,18.7412,16.9248z"/>
	<path d="M20.3301,15.4951h-1.5889c-0.2764,0-0.5-0.2236-0.5-0.5s0.2236-0.5,0.5-0.5h1.5889c0.2764,0,0.5,0.2236,0.5,0.5
		S20.6064,15.4951,20.3301,15.4951z"/>
	<path d="M22.4219,20.0459H9.5059c-0.855,0-1.5503-0.6953-1.5503-1.5498v-6.9395c0-0.8545,0.6953-1.5498,1.5503-1.5498h12.916
		c0.8545,0,1.5498,0.6953,1.5498,1.5498v6.9395C23.9717,19.3506,23.2764,20.0459,22.4219,20.0459z M9.5059,11.0068
		c-0.3032,0-0.5503,0.2466-0.5503,0.5498v6.9395c0,0.3027,0.2471,0.5498,0.5503,0.5498h12.916c0.3027,0,0.5498-0.2471,0.5498-0.5498
		v-6.9395c0-0.3032-0.2471-0.5498-0.5498-0.5498H9.5059z"/>
	<path d="M18.4736,5H14.334c-0.2764,0-0.5-0.2236-0.5-0.4995l-0.0039-3.9712c0-0.2764,0.2236-0.5,0.499-0.5005
		c0.001,0,0.001,0,0.001,0c0.2764,0,0.5,0.2236,0.5,0.4995L14.833,4h3.6406c0.2764,0,0.5,0.2236,0.5,0.5S18.75,5,18.4736,5z"/>
	<path d="M17.6748,23.9717H1.3359c-0.7158,0-1.2979-0.583-1.2979-1.2988V1.3267c0-0.7158,0.582-1.2979,1.2979-1.2979h12.9941
		c0.3438,0,0.668,0.1328,0.9111,0.374l3.3447,3.2969C18.7646,3.8765,18.9736,4.083,18.9736,4.5v3.9023c0,0.2764-0.2236,0.5-0.5,0.5
		s-0.5-0.2236-0.5-0.5V4.5c-0.0088-0.0142-0.042-0.0415-0.0801-0.0786l-3.3545-3.3071c-0.0566-0.0552-0.1299-0.0854-0.209-0.0854
		H1.3359c-0.1641,0-0.2979,0.1338-0.2979,0.2979v21.3462c0,0.165,0.1338,0.2988,0.2979,0.2988h16.3389
		c0.165,0,0.2988-0.1338,0.2988-0.2988v-1.1094c0-0.2764,0.2236-0.5,0.5-0.5s0.5,0.2236,0.5,0.5v1.1094
		C18.9736,23.3887,18.3906,23.9717,17.6748,23.9717z"/>
	<path d="M11.5024,16.9248c-0.2764,0-0.5-0.2236-0.5-0.5v-2.8584c0-0.2764,0.2236-0.5,0.5-0.5h1.0728
		c0.0566,0,0.6621-0.0117,1.0713,0.3838c0.2266,0.2188,0.3467,0.5146,0.3467,0.8555c0,0.9502-0.8457,1.3027-1.4141,1.3076
		l-0.5771,0.001v0.8105C12.002,16.7012,11.7788,16.9248,11.5024,16.9248z M12.002,14.0664v0.5479l0.5723-0.001
		c0.1514-0.0049,0.4189-0.0508,0.4189-0.3076c0-0.0967-0.0283-0.124-0.041-0.1357c-0.0811-0.0791-0.3057-0.0957-0.3584-0.1035
		H12.002z"/>
	<path d="M15.8252,16.9248h-0.9648c-0.2764,0-0.5-0.2236-0.5-0.5v-2.8584c0-0.2764,0.2236-0.5,0.5-0.5h0.9648
		c1.0176,0,1.8447,0.8643,1.8447,1.9268c0,1.0342-0.7842,1.8799-1.7637,1.9248C15.8799,16.9229,15.8525,16.9248,15.8252,16.9248z
		 M15.3604,15.9248h0.3945c0.0234-0.0029,0.0469-0.0049,0.0703-0.0049c0.4658,0,0.8447-0.416,0.8447-0.9268
		s-0.3789-0.9268-0.8447-0.9268h-0.4648V15.9248z"/>
</g>
<rect y="0.0001" fill="none" width="24" height="24"/>
</svg>
