<?xml version="1.0" encoding="utf-8"?>
<!-- Generator: Adobe Illustrator 18.1.0, SVG Export Plug-In . SVG Version: 6.00 Build 0)  -->
<svg version="1.1" id="Layer_1" xmlns="http://www.w3.org/2000/svg" xmlns:xlink="http://www.w3.org/1999/xlink" x="0px" y="0px"
	 width="24px" height="24px" viewBox="0 0 24 24" enable-background="new 0 0 24 24" xml:space="preserve">
<g>
	<path d="M6.2495,17.9326c-0.3696,0-0.7275-0.2002-0.9097-0.5498l-4.647-8.9082C0.4316,7.9736,0.6265,7.3535,1.127,7.0923
		l12.4541-6.4966c0.2422-0.1265,0.5186-0.1519,0.7812-0.0684c0.2607,0.082,0.4746,0.2612,0.6006,0.5044l4.6465,8.9067
		c0.2607,0.5005,0.0664,1.1201-0.4336,1.3813l-0.2793,0.146c-0.2451,0.1265-0.5469,0.0332-0.6748-0.2124
		c-0.1279-0.2446-0.0322-0.5469,0.2119-0.6743l0.2793-0.1455l-4.6367-8.9399L1.5898,7.9785l4.6362,8.9414l0.4067-0.1846
		c0.2451-0.127,0.5474-0.0332,0.6743,0.2129c0.1274,0.2451,0.0322,0.5469-0.2124,0.6738l-0.3735,0.1943
		C6.5703,17.8955,6.4087,17.9326,6.2495,17.9326z"/>
	<path d="M6.1714,11.5962c-1.0518,0-1.9077-0.856-1.9077-1.9082c0-1.0518,0.856-1.9077,1.9077-1.9077
		c1.0522,0,1.9082,0.856,1.9082,1.9077C8.0796,10.7402,7.2236,11.5962,6.1714,11.5962z M6.1714,8.7803
		c-0.5005,0-0.9077,0.4072-0.9077,0.9077c0,0.501,0.4072,0.9082,0.9077,0.9082c0.501,0,0.9082-0.4072,0.9082-0.9082
		C7.0796,9.1875,6.6724,8.7803,6.1714,8.7803z"/>
	<path d="M9.3799,12.7578c-0.0249,0-0.0503-0.002-0.0757-0.0059c-0.2729-0.041-0.4604-0.2959-0.4189-0.5693l0.5996-3.9414
		C9.5088,8.084,9.606,7.9478,9.7466,7.874c0.1401-0.0747,0.3076-0.0781,0.4507-0.0073l2.1953,1.0664l0.3242-3.7798
		c0.0146-0.1665,0.1113-0.3149,0.2578-0.3955c0.1484-0.0806,0.3232-0.0811,0.4727-0.0044l2.5117,1.3159
		c0.2441,0.1279,0.3389,0.4302,0.2109,0.6748c-0.1289,0.2451-0.4336,0.3389-0.6758,0.2109l-1.8457-0.9668l-0.3223,3.7554
		c-0.0137,0.1641-0.1084,0.3105-0.251,0.3916c-0.1416,0.0815-0.3164,0.0879-0.4658,0.0151L10.3711,9.063l-0.4976,3.27
		C9.8359,12.5801,9.623,12.7578,9.3799,12.7578z"/>
	<path d="M15.5283,22.0322c-1.6699,0-3.0283-1.3584-3.0283-3.0283c0-1.6689,1.3584-3.0273,3.0283-3.0273
		s3.0283,1.3584,3.0283,3.0273C18.5566,20.6738,17.1982,22.0322,15.5283,22.0322z M15.5283,16.9766
		c-1.1182,0-2.0283,0.9092-2.0283,2.0273s0.9102,2.0283,2.0283,2.0283s2.0283-0.9102,2.0283-2.0283S16.6465,16.9766,15.5283,16.9766
		z"/>
	<path d="M22.1396,24c-0.0059,0-0.0137,0-0.0195,0H9.8965c-0.5972,0-1.0879-0.2109-1.459-0.626
		c-0.4648-0.5176-0.4507-1.165-0.4463-1.3789l0.0005-5.9072c0-1.3906,1-2.0674,1.9292-2.1084h2.1689
		c0.1426-0.9375,0.5986-1.9434,2.1846-1.9434h2.5088c1.5869,0,2.042,1.0059,2.1846,1.9443h3.1396
		c1.2012,0,1.8115,1.041,1.8848,2.0723l0.0127,5.9297c0,1.21-0.9111,1.8076-1.6328,1.9609C22.3027,23.9795,22.2236,24,22.1396,24z
		 M9.9429,14.9795c-0.0776,0.0039-0.9512,0.0723-0.9512,1.1084v5.8809c-0.0039,0.1875-0.0107,0.5137,0.1909,0.7383
		C9.3638,22.9102,9.5835,23,9.8965,23h12.0713c0.0303-0.0098,0.0625-0.0156,0.0957-0.0195c0.0098-0.001,0.9414-0.1016,0.9414-0.9971
		l-0.0117-5.8945c-0.0068-0.083-0.1016-1.1084-0.8857-1.1084h-3.5889c-0.2627,0-0.4814-0.2041-0.499-0.4658
		c-0.085-1.25-0.4834-1.4785-1.2363-1.4785h-2.5088c-0.7529,0-1.1514,0.2285-1.2363,1.4775
		c-0.0186,0.2617-0.2363,0.4658-0.499,0.4658H9.9429z"/>
	<path d="M20.4502,17.9697c-0.1309,0-0.2607-0.0498-0.3506-0.1504c-0.0898-0.0791-0.1494-0.21-0.1494-0.3496
		c0-0.1299,0.0596-0.2598,0.1494-0.3496c0.1904-0.1904,0.5098-0.1904,0.7002-0.0107c0.0996,0.1104,0.1504,0.2305,0.1504,0.3604
		s-0.0508,0.2598-0.1406,0.3496C20.71,17.9199,20.5801,17.9697,20.4502,17.9697z"/>
</g>
<rect x="-0.0136" y="0.0002" fill="none" width="24" height="24"/>
</svg>
