<?xml version="1.0" encoding="utf-8"?>
<!-- Generator: Adobe Illustrator 18.1.0, SVG Export Plug-In . SVG Version: 6.00 Build 0)  -->
<svg version="1.1" id="Layer_1" xmlns="http://www.w3.org/2000/svg" xmlns:xlink="http://www.w3.org/1999/xlink" x="0px" y="0px"
	 width="24px" height="24px" viewBox="0 0 24 24" enable-background="new 0 0 24 24" xml:space="preserve">
<g>
	<path d="M18.4883,23.998H1.5518c-0.2764,0-0.5-0.2236-0.5-0.5V0.5322c0-0.2764,0.2236-0.5,0.5-0.5h19.9648
		c0.2764,0,0.5,0.2236,0.5,0.5V6.499c0,0.2764-0.2236,0.5-0.5,0.5h-2.5283v16.499C18.9883,23.7744,18.7646,23.998,18.4883,23.998z
		 M2.0518,22.998h15.9365V6.499c0-0.2764,0.2236-0.5,0.5-0.5h2.5283V1.0322H2.0518V22.998z"/>
	<path d="M14.5068,19.998H5.4824c-0.2764,0-0.5-0.2236-0.5-0.5s0.2236-0.5,0.5-0.5h9.0244c0.2764,0,0.5,0.2236,0.5,0.5
		S14.7832,19.998,14.5068,19.998z"/>
	<path d="M14.5068,16.998H5.4824c-0.2764,0-0.5-0.2236-0.5-0.5s0.2236-0.5,0.5-0.5h9.0244c0.2764,0,0.5,0.2236,0.5,0.5
		S14.7832,16.998,14.5068,16.998z"/>
	<path d="M21.5,23.998h-1.0117c-0.2764,0-0.5-0.2236-0.5-0.5s0.2236-0.5,0.5-0.5H21v-5h-0.5117c-0.2764,0-0.5-0.2236-0.5-0.5
		s0.2236-0.5,0.5-0.5H21.5c0.2764,0,0.5,0.2236,0.5,0.5v6C22,23.7744,21.7764,23.998,21.5,23.998z"/>
	<path d="M21.5,15.998h-1.0117c-0.2764,0-0.5-0.2236-0.5-0.5s0.2236-0.5,0.5-0.5H21v-5h-0.5117c-0.2764,0-0.5-0.2236-0.5-0.5
		s0.2236-0.5,0.5-0.5H21.5c0.2764,0,0.5,0.2236,0.5,0.5v6C22,15.7744,21.7764,15.998,21.5,15.998z"/>
	<path d="M14.252,13.998H5.8042c-0.4531,0-0.8218-0.3691-0.8218-0.8232v-1.1357c0-0.3389,0.2119-0.6475,0.5278-0.769
		c2.1777-0.8335,2.7549-1.2324,2.9043-1.3706V9.7886C8.1489,9.4741,7.937,9.0845,7.7939,8.6455
		C7.5967,8.4556,7.4663,8.2021,7.4282,7.9272C7.3901,7.6494,7.4458,7.3745,7.5859,7.1367V6.2744
		c0-1.3989,0.936-2.2681,2.4424-2.2681c1.5288,0,2.4414,0.8477,2.4414,2.2681v0.8613c0.1406,0.2388,0.1963,0.5137,0.1582,0.792
		c-0.0391,0.2749-0.1689,0.5278-0.3662,0.7183c-0.1436,0.439-0.3545,0.8281-0.6201,1.1426v0.1304
		c0.1084,0.0898,0.6445,0.4873,2.9033,1.3506c0.3154,0.1196,0.5283,0.4292,0.5283,0.7695v1.1357
		C15.0732,13.6289,14.7051,13.998,14.252,13.998z M5.9824,12.998h8.0908v-0.8379c-2.9287-1.1279-3.291-1.5874-3.4087-1.9609
		c-0.0151-0.0483-0.0229-0.0991-0.0229-0.1499V9.5952c0-0.1318,0.0518-0.2578,0.1445-0.3516
		c0.2476-0.2505,0.4409-0.604,0.5586-1.0215c0.0317-0.1118,0.1011-0.209,0.1963-0.2749c0.0522-0.0361,0.0874-0.0938,0.0962-0.1572
		c0.0063-0.0454,0.002-0.1138-0.0537-0.1816c-0.0737-0.0894-0.1138-0.2017-0.1138-0.3174V6.2744
		c0-0.8652-0.458-1.2681-1.4414-1.2681c-0.957,0-1.4424,0.4268-1.4424,1.2681v1.0171c0,0.1157-0.04,0.228-0.1138,0.3174
		C8.417,7.6763,8.4126,7.7446,8.4189,7.7905C8.4277,7.854,8.4629,7.9111,8.5146,7.9478C8.6094,8.0137,8.6787,8.1104,8.71,8.2217
		c0.1187,0.418,0.312,0.771,0.5601,1.022c0.0928,0.0938,0.1445,0.2197,0.1445,0.3516v0.4541c0,0.0508-0.0078,0.1016-0.0229,0.1504
		c-0.1177,0.3726-0.4795,0.8315-3.4092,1.9604V12.998z"/>
</g>
<rect y="-0.002" fill="none" width="24" height="24"/>
</svg>
