<?xml version="1.0" encoding="utf-8"?>
<!-- Generator: Adobe Illustrator 18.1.0, SVG Export Plug-In . SVG Version: 6.00 Build 0)  -->
<svg version="1.1" id="Layer_1" xmlns="http://www.w3.org/2000/svg" xmlns:xlink="http://www.w3.org/1999/xlink" x="0px" y="0px"
	 width="24px" height="24px" viewBox="0 0 24 24" enable-background="new 0 0 24 24" xml:space="preserve">
<g>
	<path d="M11.5,23.752c-0.1011,0-0.2012-0.0303-0.2866-0.0898C11.0796,23.5684,11,23.415,11,23.252V12.6152
		c0-0.21,0.1313-0.3975,0.3286-0.4697l8.9995-3.2876c0.1543-0.0562,0.3252-0.0332,0.458,0.0601C20.9199,9.0112,21,9.1646,21,9.3276
		v10.6362c0,0.21-0.1309,0.3975-0.3281,0.4697l-9.0005,3.2881C11.6157,23.7422,11.5576,23.752,11.5,23.752z M12,12.9648v9.5723
		l8-2.9229v-9.5718L12,12.9648z"/>
	<path d="M11.5,23.752c-0.0576,0-0.1157-0.0098-0.1714-0.0303l-9-3.2881C2.1313,20.3613,2,20.1738,2,19.9639V9.3276
		C2,9.1646,2.0796,9.0112,2.2134,8.918c0.1343-0.0933,0.3042-0.1162,0.458-0.0601l9,3.2876C11.8687,12.2178,12,12.4053,12,12.6152
		V23.252c0,0.1631-0.0796,0.3164-0.2134,0.4102C11.7012,23.7217,11.6011,23.752,11.5,23.752z M3,19.6143l8,2.9229v-9.5723l-8-2.9224
		V19.6143z"/>
	<path fill="none" stroke="#000000" stroke-linecap="round" stroke-linejoin="round" stroke-miterlimit="10" d="M2.5741,9.3276"/>
	<path d="M11.5,9.707c-0.2764,0-0.5-0.2236-0.5-0.5V0.9937c0-0.2764,0.2236-0.5,0.5-0.5s0.5,0.2236,0.5,0.5V9.207
		C12,9.4834,11.7764,9.707,11.5,9.707z"/>
	<path d="M14.1816,4.1738c-0.1279,0-0.2559-0.0488-0.3535-0.1465l-2.3237-2.3228L9.2388,4.0234
		C9.0469,4.2212,8.731,4.2256,8.5317,4.0312C8.3345,3.8384,8.3306,3.522,8.5239,3.3242l2.6187-2.6802
		c0.0938-0.0962,0.2217-0.1968,0.3574-0.1504c0.1323,0,0.2598,0.0527,0.3535,0.1465l2.6816,2.6802
		c0.1953,0.1953,0.1953,0.5117,0,0.707C14.4375,4.125,14.3096,4.1738,14.1816,4.1738z"/>
	<path d="M11.5044,13.1152c-0.0581,0-0.1162-0.0098-0.1714-0.0303L2.3286,9.7974C2.1313,9.7251,2,9.5376,2,9.3276
		c0-0.2104,0.1313-0.3979,0.3291-0.4697l7.0298-2.561C9.6196,6.2031,9.9058,6.3364,10,6.5952
		c0.0947,0.2598-0.0391,0.5469-0.2988,0.6411L3.9595,9.3281l7.5449,2.7549l7.5376-2.7549L13.3457,7.25
		c-0.2598-0.0947-0.3936-0.3818-0.2988-0.6411c0.0957-0.2583,0.3857-0.3921,0.6406-0.2983l6.9834,2.5474
		C20.8682,8.9297,21,9.1177,21,9.3276s-0.1309,0.3975-0.3281,0.4697l-8.9956,3.2876
		C11.6206,13.1055,11.5625,13.1152,11.5044,13.1152z"/>
</g>
<rect fill="none" width="24" height="24"/>
</svg>
