<?xml version="1.0" encoding="utf-8"?>
<!-- Generator: Adobe Illustrator 18.1.0, SVG Export Plug-In . SVG Version: 6.00 Build 0)  -->
<svg version="1.1" id="Layer_1" xmlns="http://www.w3.org/2000/svg" xmlns:xlink="http://www.w3.org/1999/xlink" x="0px" y="0px"
	 width="24px" height="24px" viewBox="0 0 24 24" enable-background="new 0 0 24 24" xml:space="preserve">
<g>
	<path d="M6.4863,18.46c-0.1343,0-0.2661-0.0537-0.3623-0.1553l-5.6753-5.9648c-0.1836-0.1934-0.1836-0.4966,0.0005-0.6895
		l5.6753-5.9551C6.2656,5.5474,6.4834,5.501,6.6719,5.5757C6.8618,5.6519,6.9863,5.8354,6.9863,6.04V8h3.5
		c0.2764,0,0.5,0.2236,0.5,0.5v7c0,0.2764-0.2236,0.5-0.5,0.5h-3.5v1.96c0,0.2041-0.1245,0.3887-0.3145,0.4639
		C6.6118,18.4482,6.5488,18.46,6.4863,18.46z M1.5015,11.9956l4.4849,4.7134V15.5c0-0.2764,0.2236-0.5,0.5-0.5h3.5V9h-3.5
		c-0.2764,0-0.5-0.2236-0.5-0.5V7.2896L1.5015,11.9956z"/>
	<path d="M17.4863,18.46c-0.0625,0-0.126-0.0117-0.1855-0.0361c-0.1904-0.0752-0.3145-0.2598-0.3145-0.4639V16h-3.5
		c-0.2764,0-0.5-0.2236-0.5-0.5v-7c0-0.2764,0.2236-0.5,0.5-0.5h3.5V6.04c0-0.2046,0.125-0.3882,0.3145-0.4644
		c0.1904-0.0747,0.4062-0.0283,0.5479,0.1196l5.6758,5.9648c0.1836,0.1934,0.1836,0.4971,0,0.6895l-5.6758,5.9551
		C17.752,18.4062,17.6201,18.46,17.4863,18.46z M13.9863,15h3.5c0.2764,0,0.5,0.2236,0.5,0.5v1.2109l4.4854-4.7061L17.9863,7.291
		V8.5c0,0.2764-0.2236,0.5-0.5,0.5h-3.5V15z"/>
</g>
<rect x="-0.0136" fill="none" width="24" height="24"/>
</svg>
