<?xml version="1.0" encoding="utf-8"?>
<!-- Generator: Adobe Illustrator 18.1.0, SVG Export Plug-In . SVG Version: 6.00 Build 0)  -->
<svg version="1.1" id="Layer_1" xmlns="http://www.w3.org/2000/svg" xmlns:xlink="http://www.w3.org/1999/xlink" x="0px" y="0px"
	 width="24px" height="24px" viewBox="0 0 24 24" enable-background="new 0 0 24 24" xml:space="preserve">
<g>
	<path d="M12,6.0874c-5.0654,0-10.5171-0.9224-10.5171-2.9468c0-0.2764,0.2236-0.5,0.5-0.5s0.5,0.2236,0.5,0.5
		c0,0.6606,3.3594,1.9468,9.5171,1.9468c6.1572,0,9.5166-1.2861,9.5166-1.9468c0-0.2764,0.2236-0.5,0.5-0.5s0.5,0.2236,0.5,0.5
		C22.5166,5.165,17.0654,6.0874,12,6.0874z"/>
	<path d="M9.6318,23.7285c-0.0791,0-0.1582-0.0186-0.231-0.0566c-0.1655-0.0859-0.269-0.2568-0.269-0.4434v-8.0645L1.7573,3.895
		C1.585,3.6846,1.4829,3.4175,1.4829,3.1406c0-2.0244,5.4517-2.9463,10.5171-2.9463s10.5166,0.9219,10.5166,2.9463
		c0,0.2788-0.1025,0.5464-0.3057,0.7954l-7.3096,11.2271v4.7334c0,0.1631-0.0801,0.3164-0.2139,0.4102l-4.7695,3.332
		C9.8325,23.6982,9.7324,23.7285,9.6318,23.7285z M12,1.1943c-6.1577,0-9.5171,1.2856-9.5171,1.9463
		c0,0.0557,0.0513,0.127,0.0815,0.1641l7.4858,11.4365c0.0532,0.0811,0.0815,0.1758,0.0815,0.2734v7.2549l3.7695-2.6338v-4.6211
		c0-0.0967,0.0283-0.1914,0.0811-0.2725l7.4219-11.3945c0.0615-0.0801,0.1123-0.1509,0.1123-0.207
		C21.5166,2.48,18.1572,1.1943,12,1.1943z"/>
</g>
<rect y="0.001" fill="none" width="24" height="24"/>
</svg>
