<?xml version="1.0" encoding="utf-8"?>
<!-- Generator: Adobe Illustrator 18.1.0, SVG Export Plug-In . SVG Version: 6.00 Build 0)  -->
<svg version="1.1" id="Layer_1" xmlns="http://www.w3.org/2000/svg" xmlns:xlink="http://www.w3.org/1999/xlink" x="0px" y="0px"
	 width="24px" height="24px" viewBox="0 0 24 24" enable-background="new 0 0 24 24" xml:space="preserve">
<g>
	<path d="M4.5249,23.8975L4.5249,23.8975c-0.2764,0-0.5-0.2236-0.5-0.5l0.0005-8.0068c0-0.2764,0.2241-0.5,0.5-0.5l0,0
		c0.2764,0,0.5,0.2236,0.5,0.5l-0.0005,8.0068C5.0249,23.6738,4.8008,23.8975,4.5249,23.8975z"/>
	<path d="M4.5254,5.9131c-1.1006,0-1.8311-1.3608-1.8311-2.2612c0-1.0098,0.8213-1.8311,1.8311-1.8311s1.8311,0.8213,1.8311,1.8311
		C6.3564,4.5522,5.626,5.9131,4.5254,5.9131z M4.5254,2.8208c-0.458,0-0.8311,0.373-0.8311,0.8311
		c0,0.5542,0.4658,1.2612,0.8311,1.2612s0.8311-0.707,0.8311-1.2612C5.3564,3.1938,4.9834,2.8208,4.5254,2.8208z"/>
	<path d="M6.248,23.8975c-0.0093,0-0.0186,0-0.0283-0.001c-0.2759-0.0146-0.4868-0.251-0.4712-0.5264l0.5264-9.4678
		c0.0073-0.1357,0.0908-0.3086,0.1929-0.3975c0.1387-0.1201,0.3003-0.1504,0.4507-0.1514C7.0684,8.8892,6.835,7.5068,6.7188,7.106
		C6.6294,7.1025,6.5205,7.0986,6.4219,7.0942L6.1392,7.0815c-0.061,0.002-0.0737,0.042-0.0947,0.083
		c-0.272,0.5269-0.8535,0.854-1.519,0.854S3.2783,7.6914,3.0068,7.165c-0.0215-0.042-0.062-0.0845-0.0942-0.0835L2.6289,7.0942
		C2.5249,7.0986,2.4092,7.103,2.311,7.1079c-0.0825,0.3242-0.3325,1.6553-0.1787,6.2456c0.1504,0.001,0.312,0.0312,0.4507,0.1514
		c0.104,0.0898,0.188,0.2666,0.1934,0.4043l0.5254,9.4609c0.0156,0.2754-0.1958,0.5117-0.4712,0.5264
		c-0.2832,0.0322-0.5117-0.1963-0.5269-0.4717L1.8008,14.376c-0.1689-0.0186-0.3198-0.0273-0.4614-0.1504
		c-0.104-0.0908-0.186-0.2627-0.1909-0.4014C0.8906,6.9194,1.4761,6.4316,1.6963,6.2476C1.7505,6.2021,1.8154,6.168,1.8838,6.1489
		C1.9736,6.124,2.0791,6.1162,2.5884,6.0952l0.2617-0.0117c0.4307-0.0254,0.834,0.2114,1.0459,0.624
		c0.1182,0.229,0.4131,0.311,0.6294,0.311s0.5112-0.082,0.6299-0.3115c0.2119-0.4121,0.6152-0.647,1.0464-0.6235l0.2607,0.0117
		C6.9717,6.1162,7.0771,6.124,7.167,6.1489c0.0684,0.019,0.1333,0.0532,0.1875,0.0986c0.2207,0.1841,0.8062,0.6724,0.5479,7.5767
		c-0.0049,0.1377-0.0869,0.3105-0.1909,0.4014c-0.1411,0.123-0.311,0.1357-0.4614,0.1504l-0.5034,9.0488
		C6.7319,23.6914,6.5112,23.8975,6.248,23.8975z"/>
	<path d="M16.4004,12.918h-0.7559c-0.1328,0-0.2598-0.0527-0.3535-0.1455l-0.3438-0.3428h-0.4033c-0.2764,0-0.5-0.2246-0.5-0.5005
		V9.4663c0-0.2764,0.2236-0.5,0.5-0.5h2.957c0.2764,0,0.5,0.2236,0.5,0.5v2.4629c0,0.2759-0.2236,0.5005-0.5,0.5005h-0.4033
		l-0.3438,0.3428C16.6602,12.8652,16.5332,12.918,16.4004,12.918z M15.8516,11.918h0.3418l0.3438-0.3428
		c0.0938-0.0938,0.2207-0.146,0.3535-0.146h0.1104V9.9663h-1.957v1.4629h0.1104c0.1328,0,0.2598,0.0522,0.3535,0.146L15.8516,11.918
		z"/>
	<path d="M17.3008,9.9663c-0.0029,0-0.0039,0.0005-0.0117,0h-2.5322c-0.2764,0-0.5-0.2236-0.5-0.5
		c0-0.603-0.6475-1.5742-0.875-1.8672c-0.0068-0.0083-0.0127-0.0171-0.0186-0.0264c-0.749-0.8901-1.1953-2.0522-1.1953-3.1201
		c0-2.0962,1.7295-3.8013,3.8545-3.8013c2.126,0,3.8555,1.7051,3.8555,3.8013c0,1.083-0.46,2.2642-1.2295,3.1597
		c-0.3164,0.4175-0.8477,1.3169-0.8477,1.854c0,0.2021-0.1221,0.3848-0.3086,0.4619C17.4307,9.9541,17.3652,9.9663,17.3008,9.9663z
		 M15.1934,8.9663h1.6699c0.2148-0.9209,0.916-1.8618,1.0088-1.9834C18.5,6.2515,18.8779,5.291,18.8779,4.4526
		c0-1.5444-1.2812-2.8013-2.8555-2.8013S13.168,2.9082,13.168,4.4526c0,0.8403,0.3789,1.8027,0.9902,2.5117
		c0.0186,0.022,0.0352,0.0449,0.0498,0.0693C14.3818,7.2642,14.9941,8.1216,15.1934,8.9663z"/>
	<path d="M16.0225,9.9663c-0.2764,0-0.5-0.2236-0.5-0.5V6.2822c0-0.2764,0.2236-0.5,0.5-0.5s0.5,0.2236,0.5,0.5v3.1841
		C16.5225,9.7427,16.2988,9.9663,16.0225,9.9663z"/>
	<path d="M10.6997,4.9824H9.3105c-0.2764,0-0.5-0.2236-0.5-0.5s0.2236-0.5,0.5-0.5h1.3892c0.2764,0,0.5,0.2236,0.5,0.5
		S10.9761,4.9824,10.6997,4.9824z"/>
	<path d="M11.2607,2.9067c-0.1245,0-0.2495-0.0464-0.3462-0.1392L9.792,1.6899c-0.1992-0.1914-0.2056-0.5078-0.0146-0.707
		c0.1909-0.1997,0.5078-0.2056,0.707-0.0146l1.1226,1.0776c0.1992,0.1914,0.2056,0.5078,0.0146,0.707
		C11.5234,2.8555,11.3921,2.9067,11.2607,2.9067z"/>
	<path d="M10.1382,8.1353c-0.1313,0-0.2627-0.0513-0.3608-0.1538C9.5864,7.7822,9.5928,7.4658,9.792,7.2744l1.1226-1.0776
		c0.1982-0.1909,0.5156-0.1851,0.707,0.0146c0.1909,0.1992,0.1846,0.5156-0.0146,0.707l-1.1226,1.0776
		C10.3877,8.0889,10.2627,8.1353,10.1382,8.1353z"/>
	<path d="M22.7666,4.9824h-1.3887c-0.2764,0-0.5-0.2236-0.5-0.5s0.2236-0.5,0.5-0.5h1.3887c0.2764,0,0.5,0.2236,0.5,0.5
		S23.043,4.9824,22.7666,4.9824z"/>
	<path d="M20.8164,2.9067c-0.1309,0-0.2627-0.0513-0.3604-0.1538c-0.1914-0.1992-0.1855-0.5156,0.0137-0.707l1.1221-1.0776
		c0.2002-0.1895,0.5166-0.1851,0.707,0.0146c0.1914,0.1992,0.1855,0.5156-0.0137,0.707l-1.1221,1.0776
		C21.0654,2.8604,20.9414,2.9067,20.8164,2.9067z"/>
	<path d="M21.9385,8.1353c-0.125,0-0.249-0.0464-0.3467-0.1392l-1.1221-1.0776c-0.1992-0.1914-0.2051-0.5078-0.0137-0.707
		c0.1914-0.2002,0.5078-0.2036,0.707-0.0146l1.1221,1.0776c0.1992,0.1914,0.2051,0.5078,0.0137,0.707
		C22.2012,8.084,22.0693,8.1353,21.9385,8.1353z"/>
	<path d="M15.6357,5.1621c-0.0586,0-0.1172-0.0103-0.1729-0.0308l-0.7324-0.2705c-0.2598-0.0957-0.3916-0.3833-0.2959-0.6426
		c0.0957-0.2588,0.3857-0.3911,0.6416-0.2959l0.5088,0.188l0.25-0.1484c0.1592-0.0947,0.3545-0.0928,0.5117,0l0.2344,0.1396
		l0.5342-0.1831c0.2617-0.0894,0.5459,0.0498,0.6348,0.311c0.0898,0.2612-0.0498,0.5459-0.3105,0.6353l-0.7529,0.2578
		c-0.1396,0.0464-0.292,0.0308-0.418-0.0435l-0.1777-0.106l-0.1992,0.1187C15.8135,5.1382,15.7246,5.1621,15.6357,5.1621z"/>
</g>
<rect fill="none" width="24" height="24"/>
</svg>
