<?xml version="1.0" encoding="utf-8"?>
<!-- Generator: Adobe Illustrator 18.1.0, SVG Export Plug-In . SVG Version: 6.00 Build 0)  -->
<svg version="1.1" id="Layer_1" xmlns="http://www.w3.org/2000/svg" xmlns:xlink="http://www.w3.org/1999/xlink" x="0px" y="0px"
	 width="24px" height="24px" viewBox="0 0 24 24" enable-background="new 0 0 24 24" xml:space="preserve">
<g>
	<path d="M10.0347,22.7686c-5.4194,0-9.8281-4.4092-9.8281-9.8281c0-5.4194,4.4087-9.8286,9.8281-9.8286
		s9.8286,4.4092,9.8286,9.8286C19.8633,18.3594,15.4541,22.7686,10.0347,22.7686z M10.0347,4.1118
		c-4.8677,0-8.8281,3.9604-8.8281,8.8286s3.9604,8.8281,8.8281,8.8281s8.8286-3.96,8.8286-8.8281S14.9023,4.1118,10.0347,4.1118z"/>
	<path d="M10.0352,14.3066c-0.7534,0-1.3662-0.6133-1.3662-1.3662s0.6128-1.3662,1.3662-1.3662
		c0.7529,0,1.3657,0.6133,1.3657,1.3662S10.7881,14.3066,10.0352,14.3066z M10.0352,12.5742c-0.2021,0-0.3662,0.1641-0.3662,0.3662
		s0.1641,0.3662,0.3662,0.3662c0.2017,0,0.3657-0.1641,0.3657-0.3662S10.2368,12.5742,10.0352,12.5742z"/>
	<path d="M20.0127,20.8398c-0.0732,0-0.1484-0.0156-0.2188-0.0498c-0.248-0.1211-0.3516-0.4199-0.2314-0.6689l2.4238-4.9912V2
		c0-0.2764,0.2236-0.5,0.5-0.5s0.5,0.2236,0.5,0.5v13.2451c0,0.0752-0.0176,0.1504-0.0498,0.2188l-2.4736,5.0947
		C20.376,20.7363,20.1982,20.8398,20.0127,20.8398z"/>
	<path d="M19.4092,23.4629c-0.1719,0-0.3418-0.0449-0.4912-0.1299l-0.6533-0.3701c-0.4756-0.2725-0.6416-0.8789-0.374-1.3525
		l0.8213-1.4443c0.2588-0.457,0.8896-0.6328,1.3506-0.3721l0.6553,0.3721c0.2295,0.1299,0.3955,0.3428,0.4668,0.5977
		c0.0703,0.2549,0.0371,0.5225-0.0928,0.7529l-0.8213,1.4443C20.0957,23.2705,19.7646,23.4629,19.4092,23.4629z M19.5684,20.6631
		l-0.8076,1.4404l0.6445,0.3564l0.8164-1.4365L19.5684,20.6631z"/>
	<path d="M10.0352,16.2256c-1.8115,0-3.2856-1.4746-3.2856-3.2861s1.4741-3.2852,3.2856-3.2852c1.812,0,3.2861,1.4736,3.2861,3.2852
		S11.8472,16.2256,10.0352,16.2256z M10.0352,10.6543c-1.2603,0-2.2856,1.0249-2.2856,2.2852c0,1.2607,1.0254,2.2861,2.2856,2.2861
		c1.2607,0,2.2861-1.0254,2.2861-2.2861C12.3213,11.6792,11.2959,10.6543,10.0352,10.6543z"/>
</g>
<rect x="-0.0136" y="0.0002" fill="none" width="24" height="24"/>
</svg>
