<?xml version="1.0" encoding="utf-8"?>
<!-- Generator: Adobe Illustrator 18.1.0, SVG Export Plug-In . SVG Version: 6.00 Build 0)  -->
<svg version="1.1" id="Layer_1" xmlns="http://www.w3.org/2000/svg" xmlns:xlink="http://www.w3.org/1999/xlink" x="0px" y="0px"
	 width="24px" height="24px" viewBox="0 0 24 24" enable-background="new 0 0 24 24" xml:space="preserve">
<g>
	<path d="M12.0527,20.4893c-1.6255,0-3.2651-0.2158-4.8472-0.6611c-0.2656-0.0752-0.4204-0.3516-0.3457-0.6172
		c0.0757-0.2656,0.3525-0.418,0.6172-0.3457c4.8354,1.3604,10.2261,0.4619,13.9038-2.2832
		c-1.1445-1.3496-3.0918-4.2578-3.2217-8.5386c-0.0078-0.2759,0.209-0.5063,0.4854-0.5151c0.2715-0.0005,0.5059,0.209,0.5146,0.4849
		c0.1338,4.439,2.3623,7.2778,3.3145,8.2925c0.0957,0.1006,0.1436,0.2363,0.1348,0.375c-0.0098,0.1387-0.0762,0.2666-0.1836,0.3545
		C19.668,19.2812,15.8975,20.4893,12.0527,20.4893z"/>
	<path d="M3.5371,18.2119c-0.0884,0-0.1777-0.0234-0.2588-0.0723c-0.5596-0.3389-1.0884-0.7109-1.5713-1.1055
		c-0.1079-0.0879-0.1738-0.2168-0.1831-0.3545c-0.0088-0.1387,0.0396-0.2744,0.1348-0.376c1.0615-1.1289,3.5098-4.2959,3.312-9.2881
		c-0.1357-3.4106,1.8174-5.1338,3.48-5.979c2.2627-1.1499,4.9673-1.1509,7.231,0c1.0752,0.5464,1.9189,1.2749,2.5068,2.166
		c0.1523,0.2305,0.0889,0.5405-0.1416,0.6929c-0.2314,0.1499-0.541,0.0884-0.6924-0.1421c-0.4922-0.7441-1.207-1.3584-2.126-1.8252
		c-1.9814-1.0059-4.3452-1.0059-6.3247,0C6.8647,2.9644,5.8779,4.6626,5.9697,6.9756c0.1929,4.8604-1.957,8.124-3.2183,9.6055
		c0.3311,0.2471,0.6812,0.4824,1.0454,0.7031c0.2358,0.1436,0.3115,0.4512,0.1685,0.6865
		C3.8711,18.126,3.7061,18.2119,3.5371,18.2119z"/>
	<path d="M12.0654,23.8232c-1.522,0-2.7603-1.0254-2.7603-2.2861c0-0.2764,0.2236-0.5,0.5-0.5s0.5,0.2236,0.5,0.5
		c0,0.6973,0.8062,1.2861,1.7603,1.2861c0.9551,0,1.7617-0.5889,1.7617-1.2861c0-0.2764,0.2236-0.5,0.5-0.5s0.5,0.2236,0.5,0.5
		C14.8271,22.7979,13.5879,23.8232,12.0654,23.8232z"/>
	<path d="M0.7217,23.7471c-0.1279,0-0.2559-0.0488-0.3535-0.1465c-0.1953-0.1953-0.1953-0.5117,0-0.707l22.5215-22.521
		c0.1953-0.1953,0.5117-0.1953,0.707,0s0.1953,0.5117,0,0.707L1.0752,23.6006C0.9775,23.6982,0.8496,23.7471,0.7217,23.7471z"/>
</g>
<rect x="-0.0137" y="0.0002" fill="none" width="24" height="24"/>
</svg>
