<?xml version="1.0" encoding="utf-8"?>
<!-- Generator: Adobe Illustrator 18.1.0, SVG Export Plug-In . SVG Version: 6.00 Build 0)  -->
<svg version="1.1" id="Layer_1" xmlns="http://www.w3.org/2000/svg" xmlns:xlink="http://www.w3.org/1999/xlink" x="0px" y="0px"
	 width="24px" height="24px" viewBox="0 0 24 24" enable-background="new 0 0 24 24" xml:space="preserve">
<g>
	<path d="M11.9692,23.6357c-3.4482,0-7.3525-0.6943-7.7769-2.2197l-1.2837-5.3516c-0.0645-0.2686,0.1011-0.5381,0.3696-0.6025
		c0.2681-0.0664,0.5386,0.1016,0.603,0.3701l1.2793,5.334c0.1396,0.501,2.6069,1.4697,6.8086,1.4697
		c4.4888,0,6.6821-0.9785,6.8101-1.4775l1.2998-5.4746c0.0645-0.2695,0.3281-0.4404,0.6016-0.3711
		c0.2686,0.0635,0.4346,0.333,0.3711,0.6016L19.75,21.3975C19.3252,23.0518,15.2939,23.6357,11.9692,23.6357z"/>
	<path d="M11.9692,23.6357c-0.2764,0-0.5-0.2236-0.5-0.5V17.291c0-0.2764,0.2236-0.5,0.5-0.5c0.2759,0,0.4995,0.2236,0.4995,0.5
		v5.8447C12.4688,23.4121,12.2451,23.6357,11.9692,23.6357z"/>
	<path d="M8.0298,23.3154c-0.2529,0-0.4702-0.1914-0.4966-0.4482l-0.5757-5.5244c-0.0288-0.2744,0.1704-0.5205,0.4453-0.5488
		c0.2759-0.0352,0.521,0.1709,0.5488,0.4453l0.5757,5.5244c0.0288,0.2744-0.1704,0.5205-0.4453,0.5488
		C8.0645,23.3145,8.0469,23.3154,8.0298,23.3154z"/>
	<path d="M15.9268,23.3398c-0.0176,0-0.0342-0.001-0.0518-0.0029c-0.2744-0.0273-0.4746-0.2734-0.4463-0.5479l0.5664-5.5488
		c0.0283-0.2764,0.2793-0.4775,0.5479-0.4463c0.2744,0.0273,0.4746,0.2734,0.4463,0.5479l-0.5664,5.5488
		C16.3965,23.1484,16.1797,23.3398,15.9268,23.3398z"/>
	<path d="M10.1997,16.6201c-1.0542,0-2.0625-0.3916-2.8389-1.0898c-0.7754,0.7061-1.7534,1.0898-2.8047,1.0898
		c-2.1064,0-4.2856-1.5898-4.2856-4.25c0-1.749,1.0522-3.292,2.6509-3.9385c0.5303-4.5103,4.4204-7.998,8.9971-7.998
		c4.4937,0,8.2847,3.2788,8.9556,7.6821c1.7578,0.5562,2.957,2.1733,2.957,4.0474c0,1.1973-0.4717,2.2949-1.3281,3.0908
		c-0.7939,0.7373-1.8701,1.1592-2.9541,1.1592l0,0c-0.9805,0-1.915-0.3428-2.6729-0.9727
		c-1.1855,0.7207-2.7148,0.8076-3.9834,0.2148C12.1338,16.2803,11.1904,16.6201,10.1997,16.6201z M7.3594,14.3154L7.3594,14.3154
		c0.1455,0,0.2837,0.0635,0.3789,0.1738c1.1777,1.3662,3.438,1.4658,4.7285,0.2061c0.1621-0.1572,0.4062-0.1875,0.5996-0.0762
		c1.1064,0.6377,2.5342,0.5518,3.5576-0.2129c0.1982-0.1494,0.4785-0.1289,0.6533,0.0479c0.7881,0.793,1.6699,0.959,2.2715,0.959
		l0,0c0.834,0,1.6621-0.3252,2.2734-0.8926c0.6504-0.6035,1.0088-1.4414,1.0088-2.3574c0-1.5234-1.0371-2.8247-2.5205-3.165
		c-0.207-0.0474-0.3613-0.2197-0.3857-0.4307c-0.4658-4.0669-3.9072-7.1338-8.0063-7.1338c-4.168,0-7.6963,3.251-8.0322,7.4019
		c-0.0166,0.2021-0.1538,0.375-0.3477,0.436c-1.3564,0.4297-2.2681,1.6748-2.2681,3.0986c0,2.0342,1.6709,3.25,3.2856,3.25
		c0.9346,0,1.7954-0.4014,2.4243-1.1309C7.0757,14.3789,7.2139,14.3154,7.3594,14.3154z"/>
	<path d="M9.5,5.96c-0.1304,0-0.2603-0.0503-0.3501-0.1401C9.0498,5.7197,9,5.5996,9,5.46c0-0.1304,0.0498-0.2603,0.1499-0.3501
		c0.1797-0.1899,0.5098-0.1899,0.6997-0.0103C9.9497,5.21,10,5.3398,10,5.46c0,0.1299-0.0503,0.2598-0.1401,0.3501
		C9.75,5.9097,9.6299,5.96,9.5,5.96z"/>
	<path d="M7.46,8.0898c-0.1401,0-0.27-0.0601-0.3604-0.1499C7.0098,7.8398,6.9497,7.7197,6.9497,7.5898
		c0-0.1401,0.0601-0.27,0.1602-0.3599c0.1699-0.1802,0.5098-0.1802,0.7002,0C7.8999,7.3198,7.96,7.4497,7.96,7.5898
		c0,0.1299-0.0601,0.25-0.1499,0.3501C7.7197,8.0298,7.5898,8.0898,7.46,8.0898z"/>
	<path d="M12.3301,7.0996c-0.1299,0-0.2607-0.0498-0.3501-0.1396c-0.1001-0.0903-0.1504-0.2202-0.1504-0.3501
		c0-0.1401,0.0503-0.2603,0.1504-0.3599c0.1802-0.1899,0.5103-0.1899,0.6997,0c0.1006,0.0996,0.1504,0.2197,0.1504,0.3599
		c0,0.1201-0.0498,0.25-0.1406,0.3501C12.5801,7.0498,12.46,7.0996,12.3301,7.0996z"/>
	<path d="M11.3999,10.0298c-0.1299,0-0.2603-0.0498-0.3501-0.1499c-0.1001-0.0898-0.1499-0.2202-0.1499-0.3501
		s0.0498-0.2598,0.1499-0.3501c0.1899-0.1899,0.52-0.1899,0.7002,0c0.0996,0.0903,0.1499,0.2202,0.1499,0.3501
		S11.8496,9.79,11.75,9.8799C11.6597,9.98,11.5298,10.0298,11.3999,10.0298z"/>
	<path d="M14.5,5.0898c-0.1406,0-0.2705-0.0601-0.3604-0.1499C14.0498,4.8496,14,4.7197,14,4.5898s0.0498-0.2603,0.1396-0.3599
		c0.1797-0.1802,0.5098-0.1899,0.7002,0C14.9502,4.3296,15,4.46,15,4.5898s-0.0605,0.2598-0.1504,0.3501
		C14.75,5.04,14.6299,5.0898,14.5,5.0898z"/>
	<path d="M11.3999,4.02c-0.1299,0-0.2603-0.0601-0.3501-0.1504C10.96,3.7798,10.8999,3.6499,10.8999,3.52
		c0-0.1304,0.0498-0.2603,0.1499-0.3604c0.2002-0.1899,0.5103-0.1797,0.7002,0c0.0996,0.1001,0.1499,0.23,0.1499,0.3604
		c0,0.1299-0.0503,0.2598-0.1499,0.3599C11.6597,3.9697,11.5298,4.02,11.3999,4.02z"/>
	<path d="M16.3496,8.0898c-0.1299,0-0.2598-0.0601-0.3594-0.1499c-0.0908-0.0903-0.1406-0.2202-0.1406-0.3501
		s0.0498-0.2603,0.1406-0.3501c0.1992-0.1997,0.5195-0.1899,0.71-0.0098c0.0996,0.0996,0.1494,0.23,0.1494,0.3599
		s-0.0498,0.25-0.1494,0.3501C16.6094,8.0298,16.4795,8.0898,16.3496,8.0898z"/>
</g>
<rect x="0.0142" y="0.0346" fill="none" width="24" height="24"/>
</svg>
