<?xml version="1.0" encoding="utf-8"?>
<!-- Generator: Adobe Illustrator 18.1.0, SVG Export Plug-In . SVG Version: 6.00 Build 0)  -->
<svg version="1.1" id="Layer_1" xmlns="http://www.w3.org/2000/svg" xmlns:xlink="http://www.w3.org/1999/xlink" x="0px" y="0px"
	 width="24px" height="24px" viewBox="0 0 24 24" enable-background="new 0 0 24 24" xml:space="preserve">
<g>
	<path d="M6.5244,23.002H1.5239c-0.2764,0-0.5-0.2236-0.5-0.5v-5.001c0-0.2764,0.2236-0.5,0.5-0.5h5.0005
		c0.2764,0,0.5,0.2236,0.5,0.5v5.001C7.0244,22.7783,6.8008,23.002,6.5244,23.002z M2.0239,22.002h4.0005v-4.001H2.0239V22.002z"/>
	<path d="M6.5244,15.001H1.5239c-0.2764,0-0.5-0.2236-0.5-0.5V9.5005c0-0.2764,0.2236-0.5,0.5-0.5h5.0005
		c0.2764,0,0.5,0.2236,0.5,0.5v5.0005C7.0244,14.7773,6.8008,15.001,6.5244,15.001z M2.0239,14.001h4.0005v-4.0005H2.0239V14.001z"
		/>
	<path d="M6.5244,7H1.5239c-0.2764,0-0.5-0.2236-0.5-0.5v-5c0-0.2764,0.2236-0.5,0.5-0.5h5.0005c0.2764,0,0.5,0.2236,0.5,0.5v5
		C7.0244,6.7764,6.8008,7,6.5244,7z M2.0239,6h4.0005V2H2.0239V6z"/>
	<path d="M21.4648,20H9.5332c-0.2764,0-0.5-0.2236-0.5-0.5s0.2236-0.5,0.5-0.5h11.9316c0.2764,0,0.5,0.2236,0.5,0.5
		S21.7412,20,21.4648,20z"/>
	<path d="M21.4648,11.9995H9.5332c-0.2764,0-0.5-0.2236-0.5-0.5s0.2236-0.5,0.5-0.5h11.9316c0.2764,0,0.5,0.2236,0.5,0.5
		S21.7412,11.9995,21.4648,11.9995z"/>
	<path d="M21.4648,3.9985H9.5332c-0.2764,0-0.5-0.2236-0.5-0.5s0.2236-0.5,0.5-0.5h11.9316c0.2764,0,0.5,0.2236,0.5,0.5
		S21.7412,3.9985,21.4648,3.9985z"/>
	<path d="M1.5239,6.7651c-0.1318,0-0.2637-0.0518-0.3618-0.1553C0.9717,6.4102,0.979,6.0938,1.1792,5.9033l5.0005-4.7651
		c0.1997-0.1904,0.5166-0.1836,0.7065,0.0171C7.0767,1.355,7.0693,1.6714,6.8691,1.8618L1.8687,6.627
		C1.772,6.7192,1.6479,6.7651,1.5239,6.7651z"/>
	<path d="M6.5244,7C6.3965,7,6.2686,6.9512,6.1709,6.8535l-5.0005-5c-0.1953-0.1953-0.1953-0.5117,0-0.707s0.5117-0.1953,0.707,0
		l5.0005,5c0.1953,0.1953,0.1953,0.5117,0,0.707C6.7803,6.9512,6.6523,7,6.5244,7z"/>
</g>
<rect x="0.0001" fill="none" width="24" height="24"/>
</svg>
