<?xml version="1.0" encoding="utf-8"?>
<!-- Generator: Adobe Illustrator 18.1.0, SVG Export Plug-In . SVG Version: 6.00 Build 0)  -->
<svg version="1.1" id="Layer_1" xmlns="http://www.w3.org/2000/svg" xmlns:xlink="http://www.w3.org/1999/xlink" x="0px" y="0px"
	 width="24px" height="24px" viewBox="0 0 24 24" enable-background="new 0 0 24 24" xml:space="preserve">
<g>
	<path d="M6.5488,18.3994c-0.1025,0-0.2036-0.0312-0.2891-0.0918l-2.8662-2.0303c-0.2251-0.1602-0.2783-0.4717-0.1191-0.6973
		c0.1602-0.2256,0.4717-0.2773,0.6973-0.1191l2.3696,1.6787l3.167-7.0601c0.085-0.1899,0.2822-0.2988,0.4868-0.2944
		c0.2075,0.0127,0.3857,0.1528,0.4473,0.3516l1.4653,4.7559l2.2163-3.1353c0.0859-0.1221,0.2227-0.1992,0.3721-0.21
		c0.1514-0.0112,0.2959,0.0454,0.3984,0.1538l2.0352,2.1367l3.3291-1.5527c0.248-0.1172,0.5469-0.0098,0.6641,0.2422
		c0.1172,0.25,0.0088,0.5479-0.2422,0.6641l-3.6543,1.7041c-0.1943,0.0898-0.4248,0.0479-0.5732-0.1084l-1.8633-1.9561
		l-2.4521,3.4688c-0.1104,0.1562-0.2959,0.2334-0.4868,0.2061c-0.1885-0.0303-0.3433-0.165-0.3994-0.3467l-1.374-4.4595
		l-2.8726,6.4048c-0.061,0.1357-0.1802,0.2383-0.3242,0.2773C6.6372,18.3936,6.5928,18.3994,6.5488,18.3994z"/>
	<path d="M23.5029,23h-23c-0.2764,0-0.5-0.2236-0.5-0.5v-21c0-0.2764,0.2236-0.5,0.5-0.5h23c0.2764,0,0.5,0.2236,0.5,0.5v21
		C24.0029,22.7764,23.7793,23,23.5029,23z M1.0029,22h22V2h-22V22z"/>
	<path d="M2.5,4C2.3696,4,2.25,3.9497,2.1499,3.8599C2.0601,3.7598,2,3.6299,2,3.5c0-0.1304,0.0601-0.2603,0.1499-0.3501
		C2.3496,2.96,2.6699,2.96,2.8496,3.1396C2.9497,3.2397,3,3.3696,3,3.5c0,0.1299-0.0503,0.2598-0.1401,0.3496
		C2.7598,3.9497,2.6299,4,2.5,4z"/>
	<path d="M4.5,4C4.3696,4,4.2397,3.9497,4.1499,3.8496C4.0601,3.7598,4,3.6299,4,3.5c0-0.1304,0.0601-0.2603,0.1499-0.3604
		c0.1699-0.1699,0.52-0.1797,0.71,0.0103C4.9497,3.2397,5,3.3696,5,3.5c0,0.1299-0.0503,0.2598-0.1401,0.3496
		C4.7598,3.9497,4.6299,4,4.5,4z"/>
	<path d="M6.5,4C6.3696,4,6.2397,3.9497,6.1499,3.8496C6.0498,3.75,6,3.6299,6,3.5c0-0.1304,0.0498-0.25,0.1396-0.3501
		c0.2002-0.1899,0.5303-0.1899,0.7202,0C6.9497,3.25,7,3.3696,7,3.5c0,0.1299-0.0503,0.2598-0.1401,0.3496
		C6.7598,3.9497,6.6299,4,6.5,4z"/>
	<path d="M23.5029,6h-23c-0.2764,0-0.5-0.2236-0.5-0.5S0.2266,5,0.5029,5h23c0.2764,0,0.5,0.2236,0.5,0.5S23.7793,6,23.5029,6z"/>
</g>
<rect fill="none" width="24" height="24"/>
</svg>
