<?xml version="1.0" encoding="utf-8"?>
<!-- Generator: Adobe Illustrator 18.1.0, SVG Export Plug-In . SVG Version: 6.00 Build 0)  -->
<svg version="1.1" id="Layer_1" xmlns="http://www.w3.org/2000/svg" xmlns:xlink="http://www.w3.org/1999/xlink" x="0px" y="0px"
	 width="24px" height="24px" viewBox="0 0 24 24" enable-background="new 0 0 24 24" xml:space="preserve">
<g>
	<path d="M11.9863,23.8301c-0.1685,0-0.3252-0.085-0.4175-0.2256c-0.3047-0.4619-7.4526-11.374-7.4526-15.5459
		c0-4.3398,3.5303-7.8706,7.8701-7.8706s7.8701,3.5308,7.8701,7.8706c0,4.1719-7.1484,15.084-7.4521,15.5459
		C12.3115,23.7451,12.1543,23.8301,11.9863,23.8301z M11.9863,1.188c-3.7881,0-6.8701,3.082-6.8701,6.8706
		c0,3.3276,5.3208,11.918,6.8701,14.3486c1.5488-2.4307,6.8701-11.021,6.8701-14.3486C18.8564,4.27,15.7744,1.188,11.9863,1.188z"/>
	<path d="M11.9863,10.0444c-1.6782,0-3.0439-1.3652-3.0439-3.0435s1.3657-3.0439,3.0439-3.0439
		c1.6787,0,3.0439,1.3657,3.0439,3.0439S13.665,10.0444,11.9863,10.0444z M11.9863,4.957c-1.127,0-2.0439,0.917-2.0439,2.0439
		s0.917,2.0435,2.0439,2.0435s2.0439-0.9165,2.0439-2.0435S13.1133,4.957,11.9863,4.957z"/>
</g>
<rect x="-0.0136" y="0.0001" fill="none" width="24" height="24"/>
</svg>
