<?xml version="1.0" encoding="utf-8"?>
<!-- Generator: Adobe Illustrator 18.1.0, SVG Export Plug-In . SVG Version: 6.00 Build 0)  -->
<svg version="1.1" id="Layer_1" xmlns="http://www.w3.org/2000/svg" xmlns:xlink="http://www.w3.org/1999/xlink" x="0px" y="0px"
	 width="24px" height="24px" viewBox="0 0 24 24" enable-background="new 0 0 24 24" xml:space="preserve">
<g>
	<path d="M18.8223,24.0195H4.1621c-0.1479,0-0.2886-0.0654-0.3833-0.1787c-0.0952-0.1133-0.1348-0.2637-0.1089-0.4092L7.7783,0.4141
		c0.0425-0.2383,0.25-0.4121,0.4922-0.4121h6.4434c0.2422,0,0.4492,0.1738,0.4922,0.4121l4.1084,23.0176
		c0.0264,0.1455-0.0137,0.2959-0.1084,0.4092C19.1104,23.9541,18.9707,24.0195,18.8223,24.0195z M4.7593,23.0195h13.4663
		L14.2949,1.002H8.689L4.7593,23.0195z"/>
	<path d="M11.4922,4.022c-0.2764,0-0.5-0.2236-0.5-0.5v-3.02c0-0.2764,0.2236-0.5,0.5-0.5s0.5,0.2236,0.5,0.5v3.02
		C11.9922,3.7983,11.7686,4.022,11.4922,4.022z"/>
	<path d="M11.4922,13c-0.2764,0-0.5-0.2236-0.5-0.5V8.5029c0-0.2764,0.2236-0.5,0.5-0.5s0.5,0.2236,0.5,0.5V12.5
		C11.9922,12.7764,11.7686,13,11.4922,13z"/>
	<path d="M11.4922,24.0195c-0.2764,0-0.5-0.2236-0.5-0.5v-6.0156c0-0.2764,0.2236-0.5,0.5-0.5s0.5,0.2236,0.5,0.5v6.0156
		C11.9922,23.7959,11.7686,24.0195,11.4922,24.0195z"/>
</g>
<rect x="-0.0136" y="0.0002" fill="none" width="24" height="24"/>
</svg>
