<?xml version="1.0" encoding="utf-8"?>
<!-- Generator: Adobe Illustrator 18.1.0, SVG Export Plug-In . SVG Version: 6.00 Build 0)  -->
<svg version="1.1" id="Layer_1" xmlns="http://www.w3.org/2000/svg" xmlns:xlink="http://www.w3.org/1999/xlink" x="0px" y="0px"
	 width="24px" height="24px" viewBox="0 0 24 24" enable-background="new 0 0 24 24" xml:space="preserve">
<rect x="-0.0136" y="0.0121" fill="none" width="24" height="24"/>
<rect x="-0.0136" y="0.0091" fill="none" width="24" height="24"/>
<g>
	<path d="M12.3438,23.7979c-0.2061,0-0.3213-0.0039-0.3213-0.0039l-0.2642,0.0029c-1.5752,0-9.4385-0.2432-9.5859-5.0537
		C2.0293,14.0557,7.7007,5.5811,8.5474,4.3433C8.439,3.7666,7.376,2.1147,6.3594,0.8101c-0.1172-0.1504-0.1387-0.355-0.0547-0.5264
		c0.084-0.1719,0.2583-0.2808,0.4492-0.2808h10.5684c0.1914,0,0.3652,0.1089,0.4492,0.2808c0.084,0.1714,0.0625,0.376-0.0547,0.5269
		c-1.0166,1.3047-2.0801,2.9565-2.1885,3.5332c0.8457,1.2378,6.5186,9.7266,6.375,14.4141
		C21.7559,23.5547,13.9141,23.7979,12.3438,23.7979z M12.0225,22.7939l0.3213,0.0039c1.4082,0,8.4414-0.1963,8.5596-4.0713
		c0.1416-4.6279-6.2285-13.8594-6.293-13.9521c-0.0498-0.0728-0.0801-0.1577-0.0869-0.2456
		C14.46,3.7305,15.541,2.0801,16.3213,1.0029H7.7549c0.7803,1.0771,1.8608,2.7275,1.7979,3.5259
		C9.5459,4.6172,9.5151,4.7021,9.4648,4.7749c-0.0645,0.0923-6.4346,9.3101-6.2925,13.937c0.1187,3.8877,7.1729,4.085,8.5859,4.085
		L12.0225,22.7939z"/>
	<path d="M19.4189,8.71c-0.082,0-0.1641-0.0195-0.2402-0.0615c-0.8125-0.4453-1.0107-1.1196-1.2021-1.772
		c-0.1172-0.3975-0.2383-0.8081-0.499-1.2612c-0.5488-0.9487-2.3389-0.6113-2.3555-0.6074
		c-0.0332,0.0068-0.0674,0.0103-0.1006,0.0103H9.0542C7.814,5,7.7876,5.0239,7.1943,5.7051C7.019,5.9067,6.8057,6.1519,6.52,6.4482
		C5.96,7.0293,5.3647,7.3291,4.7515,7.3394C3.9487,7.3213,3.5078,6.9067,3.4556,6.856c-0.1982-0.1924-0.2031-0.5088-0.0107-0.707
		c0.1914-0.1973,0.5034-0.2026,0.7026-0.0151c0.1167,0.1064,0.7354,0.5737,1.6528-0.3799c0.271-0.2812,0.4731-0.5137,0.6396-0.7051
		c0.771-0.8857,1.0483-1.0518,2.623-1.0308h5.9126c0.3779-0.0674,2.5205-0.3735,3.3672,1.0972
		c0.3213,0.5566,0.4717,1.0679,0.5928,1.479c0.1895,0.6455,0.292,0.9404,0.7236,1.1772c0.2422,0.1328,0.3311,0.4365,0.1982,0.6787
		C19.7666,8.6162,19.5957,8.71,19.4189,8.71z"/>
	<path d="M13.6631,3.5957h-3.3794c-0.2764,0-0.5-0.2236-0.5-0.5s0.2236-0.5,0.5-0.5h3.3794c0.2764,0,0.5,0.2236,0.5,0.5
		S13.9395,3.5957,13.6631,3.5957z"/>
	<path d="M13.6631,6.4976h-3.3794c-0.2764,0-0.5-0.2236-0.5-0.5s0.2236-0.5,0.5-0.5h3.3794c0.2764,0,0.5,0.2236,0.5,0.5
		S13.9395,6.4976,13.6631,6.4976z"/>
	<g>
		<path d="M13.124,15.918H9.0371c-0.2764,0-0.5-0.2236-0.5-0.5s0.2236-0.5,0.5-0.5h4.0869c0.2764,0,0.5,0.2236,0.5,0.5
			S13.4004,15.918,13.124,15.918z"/>
		<path d="M13.4492,19.8027c-0.4072,0-0.8838-0.1162-1.4229-0.4229c-1.2739-0.7217-2.4771,0.2627-2.5229,0.3018
			c-0.001,0.001-0.0024,0.002-0.0034,0.0029c-0.2109,0.1768-0.5249,0.1523-0.7036-0.0576s-0.1543-0.5244,0.0552-0.7041
			c0.001-0.001,0.0024-0.002,0.0044-0.0039c1.3677-1.1611,0.9316-3.3584,0.6978-4.5391l-0.0283-0.1426
			c-0.1353-0.6895-0.1338-1.332,0.0039-1.9092c0.3613-1.5088,1.4019-2.3398,2.9307-2.3398c0.8398,0,1.6992,0.4365,2.3564,1.1978
			c0.1797,0.209,0.1572,0.5244-0.0518,0.7051c-0.208,0.1802-0.5234,0.1587-0.7061-0.0518
			c-0.2207-0.2559-0.8184-0.8511-1.5986-0.8511c-1.0493,0-1.7085,0.5288-1.958,1.5723c-0.104,0.4365-0.1025,0.9365,0.0049,1.4854
			l0.0273,0.1396c0.1826,0.9189,0.5059,2.5498,0.0083,3.9668c0.582-0.0957,1.2656-0.0449,1.978,0.3584
			c1.1777,0.6689,1.6182-0.0156,1.6367-0.0449c0.1455-0.2354,0.4561-0.3086,0.6875-0.1641
			c0.2354,0.1445,0.3086,0.4531,0.1641,0.6875C14.79,19.3447,14.2549,19.8027,13.4492,19.8027z"/>
	</g>
</g>
</svg>
