<?xml version="1.0" encoding="utf-8"?>
<!-- Generator: Adobe Illustrator 18.1.0, SVG Export Plug-In . SVG Version: 6.00 Build 0)  -->
<svg version="1.1" id="Layer_1" xmlns="http://www.w3.org/2000/svg" xmlns:xlink="http://www.w3.org/1999/xlink" x="0px" y="0px"
	 width="24px" height="24px" viewBox="0 0 24 24" enable-background="new 0 0 24 24" xml:space="preserve">
<g>
	<path d="M23.5,24H0.812c-0.2017,0-0.3838-0.1211-0.4614-0.3076S0.3149,23.291,0.457,23.1484l22.6875-22.895
		c0.1426-0.144,0.3594-0.1865,0.5459-0.1104C23.8779,0.2202,24,0.4028,24,0.6055V23.5C24,23.7764,23.7764,24,23.5,24z M2.0112,23H23
		V1.8203L2.0112,23z M19.5,20h-7.3457c-0.2017,0-0.3838-0.1211-0.4614-0.3076c-0.0776-0.1855-0.0361-0.4004,0.106-0.5439
		l7.3457-7.4346c0.1426-0.1445,0.3584-0.1875,0.5459-0.1108C19.8779,11.6802,20,11.8628,20,12.0654V19.5
		C20,19.7764,19.7764,20,19.5,20z M13.3516,19H19v-5.7168L13.3516,19z"/>
	<path d="M8.6333,20.3613c-0.1279,0-0.2559-0.0488-0.3535-0.1465l-2.0732-2.0732c-0.1953-0.1953-0.1953-0.5117,0-0.707
		s0.5117-0.1953,0.707,0l2.0732,2.0732c0.1953,0.1953,0.1953,0.5117,0,0.707C8.8892,20.3125,8.7612,20.3613,8.6333,20.3613z"/>
	<path d="M9.5449,17.5215c-0.1279,0-0.2559-0.0488-0.3535-0.1465l-1.1089-1.1094c-0.1953-0.1953-0.1953-0.5117,0-0.707
		s0.5117-0.1953,0.707,0l1.1089,1.1094c0.1953,0.1953,0.1953,0.5117,0,0.707C9.8008,17.4727,9.6729,17.5215,9.5449,17.5215z"/>
	<path d="M12.3848,16.6104c-0.1279,0-0.2559-0.0488-0.3535-0.1465l-2.0737-2.0732c-0.1953-0.1953-0.1953-0.5117,0-0.707
		s0.5117-0.1953,0.707,0l2.0737,2.0732c0.1953,0.1953,0.1953,0.5117,0,0.707C12.6406,16.5615,12.5127,16.6104,12.3848,16.6104z"/>
	<path d="M13.2959,13.7705c-0.1279,0-0.2559-0.0488-0.3535-0.1465l-1.1094-1.1094c-0.1953-0.1953-0.1953-0.5117,0-0.707
		s0.5117-0.1953,0.707,0l1.1094,1.1094c0.1953,0.1953,0.1953,0.5117,0,0.707C13.5518,13.7217,13.4238,13.7705,13.2959,13.7705z"/>
	<path d="M16.1357,12.8594c-0.1279,0-0.2559-0.0488-0.3535-0.1465l-2.0732-2.0737c-0.1953-0.1953-0.1953-0.5117,0-0.707
		s0.5117-0.1953,0.707,0l2.0732,2.0737c0.1953,0.1953,0.1953,0.5117,0,0.707C16.3916,12.8105,16.2637,12.8594,16.1357,12.8594z"/>
	<path d="M17.0469,10.0195c-0.1279,0-0.2559-0.0488-0.3535-0.1465L15.585,8.7637c-0.1953-0.1953-0.1953-0.5122,0-0.707
		c0.1953-0.1953,0.5117-0.1953,0.707,0l1.1084,1.1094c0.1953,0.1953,0.1953,0.5122,0,0.707
		C17.3027,9.9707,17.1748,10.0195,17.0469,10.0195z"/>
	<path d="M19.8867,9.1079c-0.1279,0-0.2559-0.0488-0.3535-0.1465L17.46,6.8882c-0.1953-0.1953-0.1953-0.5117,0-0.707
		s0.5117-0.1953,0.707,0l2.0732,2.0732c0.1953,0.1953,0.1953,0.5117,0,0.707C20.1426,9.0591,20.0146,9.1079,19.8867,9.1079z"/>
</g>
<rect y="-0.0001" fill="none" width="24" height="24"/>
</svg>
