<?xml version="1.0" encoding="utf-8"?>
<!-- Generator: Adobe Illustrator 18.1.0, SVG Export Plug-In . SVG Version: 6.00 Build 0)  -->
<svg version="1.1" id="Layer_1" xmlns="http://www.w3.org/2000/svg" xmlns:xlink="http://www.w3.org/1999/xlink" x="0px" y="0px"
	 width="24px" height="24px" viewBox="0 0 24 24" enable-background="new 0 0 24 24" xml:space="preserve">
<g>
	<path d="M14.0049,22.9346c-2.2139,0-4.4258-0.501-6.7612-1.5332c-0.541-0.2383-1.7803,0.0996-3.0938,0.46
		c-0.3979,0.1084-0.8159,0.2227-1.2495,0.332c-0.9097,0.2344-1.8481-0.3115-2.0991-1.209l-0.0898-0.3066
		c-0.3735-1.251-0.5605-2.0059-0.4795-2.4062c0.1445-0.7197,0.7065-1.2598,1.4316-1.375l0.6084-0.1006
		c2.063-0.3467,6.356-1.0664,8.8271-0.3506l5.4956,1.5928c0.3682,0.1074,0.6494,0.2939,0.8506,0.5244l3.8701-1.7432
		c0.6104-0.2744,1.2461-0.2266,1.7451,0.1318c0.5107,0.3672,0.7998,1.0098,0.7363,1.6377
		c-0.0605,0.5986-0.4287,1.0918-1.0107,1.3545c-1.1406,0.5137-2.0654,0.9385-2.8291,1.2881
		C16.3857,22.8701,16.2461,22.9346,14.0049,22.9346z M6.7559,20.3232c0.333,0,0.6309,0.0488,0.8921,0.1641
		c2.2056,0.9736,4.2847,1.4473,6.3569,1.4473c2.0225,0,2.0225,0,5.5352-1.6113c0.7656-0.3516,1.6924-0.7764,2.8359-1.292
		c0.2578-0.1162,0.4014-0.2988,0.4258-0.543c0.0273-0.2734-0.1035-0.5654-0.3262-0.7256c-0.2041-0.1484-0.4639-0.1611-0.75-0.0312
		l-3.8945,1.7549c0.0215,0.2285-0.002,0.4619-0.0664,0.6826c-0.2393,0.8262-1.0498,1.498-2.1426,1.1816l-5.7729-1.6748
		c-0.2651-0.0771-0.418-0.3545-0.3408-0.6201c0.0762-0.2656,0.353-0.4189,0.6191-0.3408l5.7739,1.6748
		c0.5146,0.1543,0.8096-0.1758,0.9033-0.499c0.0381-0.1309,0.0479-0.2793,0.0117-0.4189c-0.0117-0.0195-0.0234-0.04-0.0332-0.0625
		c-0.0146-0.0322-0.0254-0.0654-0.0322-0.0986c-0.0791-0.1348-0.2178-0.248-0.4355-0.3115l-5.4946-1.5928
		c-2.2534-0.6533-6.3936,0.042-8.3828,0.376l-0.6182,0.1025c-0.3076,0.0488-0.5459,0.2773-0.6074,0.584
		c-0.0327,0.2803,0.3359,1.5166,0.457,1.9238l0.0947,0.3223c0.1064,0.3789,0.5083,0.6055,0.8906,0.5098
		c0.4277-0.1084,0.8394-0.2207,1.231-0.3281C5.0166,20.5869,5.9814,20.3232,6.7559,20.3232z"/>
	<path d="M22.4258,12.6201H7.3291c-0.2764,0-0.5-0.2236-0.5-0.5s0.2236-0.5,0.5-0.5h15.0967c0.2764,0,0.5,0.2236,0.5,0.5
		S22.7021,12.6201,22.4258,12.6201z"/>
	<path d="M21.5391,9.1523H8.1729c-0.2764,0-0.5-0.2236-0.5-0.5s0.2236-0.5,0.5-0.5h13.3662c0.2764,0,0.5,0.2236,0.5,0.5
		S21.8154,9.1523,21.5391,9.1523z"/>
	<path d="M18.2559,16.1367c-0.042,0-0.085-0.0049-0.1279-0.0166c-0.2666-0.0703-0.4258-0.3438-0.3555-0.6113
		c0.2744-1.041,0.4199-2.2129,0.4199-3.3887c0-3.7812-1.4863-7.0078-3.2451-7.0449c-0.2754-0.0059-0.4932-0.2329-0.4893-0.5078
		c0.0049-0.2734,0.2275-0.4922,0.5-0.4922c0.002,0,0.0039,0,0.0049,0c4.3906,0.0469,7.9629,3.6558,7.9629,8.0449
		c0,0.8574-0.1396,1.7119-0.4141,2.5391c-0.0879,0.2607-0.3672,0.4043-0.6328,0.3164c-0.2617-0.0869-0.4033-0.3701-0.3164-0.6328
		c0.2412-0.7246,0.3633-1.4727,0.3633-2.2227c0-2.9805-1.8809-5.5503-4.5186-6.5732c1.0869,1.4487,1.7852,3.8364,1.7852,6.5732
		c0,1.2793-0.1523,2.5049-0.4531,3.6445C18.6797,15.9883,18.4775,16.1367,18.2559,16.1367z"/>
	<path d="M11.2583,14.9043c-0.2417,0-0.4541-0.1758-0.4932-0.4219c-0.1221-0.7676-0.1836-1.5625-0.1836-2.3623
		c0-4.4844,1.8657-8.019,4.2466-8.0464l0.0723,0.9966c-0.0078,0.0005-0.0146,0.0005-0.0225,0.0005v0.0005V5.0708
		c-1.8164,0.0498-3.2964,3.2656-3.2964,7.0493c0,0.748,0.0576,1.4902,0.1709,2.2061c0.0435,0.2725-0.1426,0.5283-0.4155,0.5723
		C11.3105,14.9023,11.2842,14.9043,11.2583,14.9043z"/>
	<path d="M18.2559,16.1377c-0.042,0-0.085-0.0049-0.1279-0.0166c-0.2666-0.0703-0.4258-0.3438-0.3555-0.6113
		c0.2744-1.042,0.4199-2.2139,0.4199-3.3896c0-3.4683-1.25-6.4697-2.8145-6.9717v10.0918c0,0.2764-0.2236,0.5-0.5,0.5
		s-0.5-0.2236-0.5-0.5V4.5713c0-0.2764,0.2236-0.5,0.5-0.5c2.459,0.0542,4.3145,3.5879,4.3145,8.0488
		c0,1.2783-0.1523,2.5049-0.4531,3.6455C18.6807,15.9893,18.4775,16.1377,18.2559,16.1377z"/>
	<path d="M11.2583,14.9043c-0.2417,0-0.4541-0.1758-0.4932-0.4209c-0.1221-0.7646-0.1836-1.5605-0.1836-2.3633
		c0-2.7476,0.7002-5.1387,1.7905-6.585c-2.6519,1.0146-4.543,3.5884-4.543,6.585c0,0.5684,0.0767,1.1562,0.228,1.748
		c0.0684,0.2676-0.0928,0.54-0.3604,0.6084c-0.2671,0.0693-0.54-0.0928-0.6084-0.3604c-0.1719-0.6729-0.2593-1.3447-0.2593-1.9961
		c0-4.4111,3.5898-8.021,8.002-8.0464c0.001,0,0.002,0,0.0029,0c0.2744,0,0.498,0.2212,0.5,0.4956
		c0.002,0.2759-0.2188,0.501-0.4941,0.5044c-1.7666,0.0205-3.2583,3.2471-3.2583,7.0464c0,0.751,0.0576,1.4932,0.1709,2.2051
		c0.0435,0.2734-0.1421,0.5293-0.415,0.5732C11.3105,14.9023,11.2842,14.9043,11.2583,14.9043z"/>
</g>
<rect fill="none" width="24" height="24"/>
</svg>
