<?xml version="1.0" encoding="utf-8"?>
<!-- Generator: Adobe Illustrator 18.1.0, SVG Export Plug-In . SVG Version: 6.00 Build 0)  -->
<svg version="1.1" id="Layer_1" xmlns="http://www.w3.org/2000/svg" xmlns:xlink="http://www.w3.org/1999/xlink" x="0px" y="0px"
	 width="24px" height="24px" viewBox="0 0 24 24" enable-background="new 0 0 24 24" xml:space="preserve">
<g>
	<path d="M12.0137,23.8105c-5.1265,0-5.1265-0.8994-5.1265-1.1953l-0.4321-7.4258c-0.0347-0.5967,0.0708-1.2031,0.3047-1.7549
		l2.4839-5.835c0.0757-0.186,0.2705-1.1416,0.5796-2.8394l0.0586-0.3188c0.0513-0.2715,0.3086-0.4517,0.5845-0.3979
		c0.271,0.0513,0.4492,0.313,0.3979,0.5845l-0.0571,0.3115c-0.3525,1.937-0.5327,2.7925-0.6436,3.0522l-2.4834,5.8345
		c-0.1738,0.4102-0.2524,0.8613-0.2271,1.3047l0.4224,7.2705c0.418,0.165,1.8428,0.4092,4.1382,0.4092
		c2.2979,0,3.7236-0.2441,4.1406-0.4092l0.4209-7.2705c0.0254-0.4443-0.0527-0.8955-0.2275-1.3047l-2.4834-5.835
		c-0.1104-0.2598-0.291-1.1162-0.6436-3.0547l-0.0566-0.3091c-0.0518-0.271,0.127-0.5327,0.3984-0.584
		c0.2656-0.0503,0.5332,0.126,0.584,0.3984l0.0576,0.3154c0.3096,1.6997,0.5049,2.6567,0.5801,2.8433l2.4834,5.833
		c0.2344,0.5508,0.3408,1.1572,0.3057,1.7559l-0.4326,7.4551C17.1416,22.9111,17.1416,23.8105,12.0137,23.8105z"/>
	<path d="M13.7061,5.0347h-3.3833c-0.7217,0-1.3086-0.5869-1.3086-1.3086V1.3433c0-0.7217,0.5869-1.3086,1.3086-1.3086h3.3833
		c0.7217,0,1.3086,0.5869,1.3086,1.3086v2.3828C15.0146,4.4478,14.4277,5.0347,13.7061,5.0347z M10.3228,1.0347
		c-0.1699,0-0.3086,0.1387-0.3086,0.3086v2.3828c0,0.1699,0.1387,0.3086,0.3086,0.3086h3.3833c0.1699,0,0.3086-0.1387,0.3086-0.3086
		V1.3433c0-0.1699-0.1387-0.3086-0.3086-0.3086H10.3228z"/>
	<path d="M14.5146,3.0347H9.5142c-0.2764,0-0.5-0.2236-0.5-0.5s0.2236-0.5,0.5-0.5h5.0005c0.2764,0,0.5,0.2236,0.5,0.5
		S14.791,3.0347,14.5146,3.0347z"/>
	<path d="M13.9658,20.0342h-3.9033c-0.2476,0-0.458-0.1816-0.4946-0.4268c-0.689-4.6426-0.689-4.6807-0.689-4.7295
		c0-1.0273,1.3481-1.8018,3.1357-1.8018c1.7871,0,3.1348,0.7744,3.1348,1.8008c0,0.0488,0,0.0869-0.6895,4.7305
		C14.4238,19.8525,14.2139,20.0342,13.9658,20.0342z M10.4937,19.0342h3.0405c0.2607-1.7539,0.6016-4.0664,0.6182-4.207
		c-0.0029-0.2324-0.8135-0.751-2.1377-0.751c-1.3247,0-2.1357,0.5195-2.1357,0.8018C9.8931,14.9727,10.2339,17.2812,10.4937,19.0342
		z"/>
</g>
<rect x="0.0142" y="0.0346" fill="none" width="24" height="24"/>
</svg>
