<?xml version="1.0" encoding="utf-8"?>
<!-- Generator: Adobe Illustrator 18.1.0, SVG Export Plug-In . SVG Version: 6.00 Build 0)  -->
<svg version="1.1" id="Layer_1" xmlns="http://www.w3.org/2000/svg" xmlns:xlink="http://www.w3.org/1999/xlink" x="0px" y="0px"
	 width="24px" height="24px" viewBox="0 0 24 24" enable-background="new 0 0 24 24" xml:space="preserve">
<rect x="-0.0167" y="0.0121" fill="none" width="24" height="24"/>
<rect x="-0.0167" y="0.0091" fill="none" width="24" height="24"/>
<g>
	<path d="M12.0215,23.75c-6.4824,0-11.7563-5.2734-11.7563-11.7559S5.5391,0.2378,12.0215,0.2378s11.7559,5.2739,11.7559,11.7563
		S18.5039,23.75,12.0215,23.75z M12.0215,1.2378c-5.9312,0-10.7563,4.8252-10.7563,10.7563c0,5.9307,4.8252,10.7559,10.7563,10.7559
		c5.9307,0,10.7559-4.8252,10.7559-10.7559C22.7773,6.063,17.9521,1.2378,12.0215,1.2378z"/>
	<path d="M14.0078,12.9658H8.3062c-0.2764,0-0.5-0.2236-0.5-0.5s0.2236-0.5,0.5-0.5h5.7017c0.2764,0,0.5,0.2236,0.5,0.5
		S14.2842,12.9658,14.0078,12.9658z"/>
	<path d="M14.2891,18.4824c-0.5195,0-1.1416-0.1504-1.8711-0.5645c-1.8892-1.0723-3.6743,0.3857-3.7402,0.4404
		c-0.0015,0.002-0.0029,0.0029-0.0039,0.0039c-0.2109,0.1768-0.5249,0.1523-0.7041-0.0576c-0.1787-0.21-0.1538-0.5244,0.0557-0.7041
		c0.0015-0.001,0.0039-0.0029,0.0068-0.0059c1.9917-1.6924,1.3696-4.8271,1.0356-6.5117l-0.0391-0.1968
		C8.8462,9.9536,8.8472,9.0869,9.0327,8.3101c0.48-2.0054,1.8623-3.1094,3.8921-3.1094c1.1113,0,2.2539,0.583,3.1338,1.6001
		c0.1807,0.209,0.1582,0.5244-0.0508,0.7051c-0.209,0.1812-0.5244,0.1587-0.7051-0.0508c-0.3262-0.377-1.2119-1.2544-2.3779-1.2544
		c-1.5654,0-2.5474,0.7881-2.9194,2.3418c-0.1519,0.6362-0.1504,1.3604,0.0049,2.1514l0.0386,0.1943
		c0.2642,1.3325,0.7456,3.7593-0.1118,5.7563c0.8403-0.21,1.8843-0.2148,2.9751,0.4043c1.8057,1.0244,2.5146-0.084,2.5449-0.1309
		c0.1465-0.2363,0.4551-0.3086,0.6875-0.1641c0.2354,0.1445,0.3086,0.4521,0.1641,0.6875
		C16.2998,17.4561,15.6465,18.4824,14.2891,18.4824z"/>
</g>
</svg>
