<?xml version="1.0" encoding="utf-8"?>
<!-- Generator: Adobe Illustrator 18.1.0, SVG Export Plug-In . SVG Version: 6.00 Build 0)  -->
<svg version="1.1" id="Layer_1" xmlns="http://www.w3.org/2000/svg" xmlns:xlink="http://www.w3.org/1999/xlink" x="0px" y="0px"
	 width="24px" height="24px" viewBox="0 0 24 24" enable-background="new 0 0 24 24" xml:space="preserve">
<g>
	<path d="M4.5059,11.9712c-0.2764,0-0.5-0.2236-0.5-0.5V9.1543c0.0156-1.0879,0.7144-3.1318,3.2471-3.1318h7.6377
		c0.1074-0.0044,3.0508-0.1382,3.1123-2.4165V0.6392c0-0.2764,0.2236-0.5,0.5-0.5s0.5,0.2236,0.5,0.5v2.9805
		c-0.0693,2.5898-2.71,3.3569-4.0957,3.4023L7.2529,7.0225c-2.1353,0-2.2422,1.9219-2.2471,2.1411v2.3076
		C5.0059,11.7476,4.7822,11.9712,4.5059,11.9712z"/>
	<path d="M23.5176,23.9697H0.4902c-0.2764,0-0.5-0.2236-0.5-0.5V11.4712c0-0.2764,0.2236-0.5,0.5-0.5h23.0273
		c0.2764,0,0.5,0.2236,0.5,0.5v11.9985C24.0176,23.7461,23.7939,23.9697,23.5176,23.9697z M0.9902,22.9697h22.0273V11.9712H0.9902
		V22.9697z"/>
	<path d="M15.9883,21.0098H8.0508c-0.2764,0-0.5-0.2236-0.5-0.5s0.2236-0.5,0.5-0.5h7.9375c0.2764,0,0.5,0.2236,0.5,0.5
		S16.2646,21.0098,15.9883,21.0098z"/>
	<path d="M6.5098,17.9697c-0.1299,0-0.2598-0.0498-0.3599-0.1504c-0.0898-0.0898-0.1401-0.2197-0.1401-0.3496
		c0-0.1396,0.0503-0.2695,0.1499-0.3604c0.1602-0.1699,0.5103-0.1797,0.7002,0.0107c0.0898,0.0898,0.1499,0.2197,0.1499,0.3496
		S6.96,17.7295,6.8599,17.8193C6.7598,17.9199,6.6396,17.9697,6.5098,17.9697z"/>
	<path d="M9.5098,17.9697c-0.1299,0-0.2598-0.0498-0.3501-0.1396c-0.0996-0.1006-0.1499-0.2305-0.1499-0.3604
		c0-0.1396,0.0503-0.2695,0.1499-0.3604c0.1802-0.1797,0.5103-0.1797,0.7002,0.0107c0.0898,0.0801,0.1499,0.21,0.1499,0.3496
		c0,0.1299-0.0498,0.2598-0.1499,0.3496C9.7598,17.9199,9.6299,17.9697,9.5098,17.9697z"/>
	<path d="M12.5098,17.9697c-0.1299,0-0.2598-0.0498-0.3604-0.1396c-0.0898-0.1006-0.1396-0.2305-0.1396-0.3604
		s0.0498-0.2598,0.1396-0.3604c0.1904-0.1797,0.5205-0.1797,0.71,0c0.0908,0.0908,0.1504,0.2305,0.1504,0.3604
		s-0.0596,0.2598-0.1504,0.3496C12.7598,17.9199,12.6396,17.9697,12.5098,17.9697z"/>
	<path d="M15.5098,17.9697c-0.1299,0-0.2598-0.0498-0.3496-0.1396c-0.1006-0.1006-0.1504-0.2305-0.1504-0.3604
		s0.0498-0.2598,0.1396-0.3496c0.2002-0.1904,0.5303-0.1904,0.71,0c0.0908,0.0801,0.1504,0.21,0.1504,0.3496
		c0,0.1299-0.0596,0.2598-0.1504,0.3496C15.7695,17.9199,15.6396,17.9697,15.5098,17.9697z"/>
	<path d="M18.5098,17.9697c-0.1299,0-0.2598-0.0498-0.3496-0.1396c-0.1006-0.1006-0.1504-0.2305-0.1504-0.3604
		s0.0498-0.2598,0.1504-0.3604c0.1699-0.1699,0.5098-0.1797,0.6992,0c0.1006,0.1006,0.1504,0.2305,0.1504,0.3604
		s-0.0498,0.25-0.1396,0.3496C18.7598,17.9199,18.6396,17.9697,18.5098,17.9697z"/>
	<path d="M4.5098,15.9697c-0.1299,0-0.2598-0.0498-0.3599-0.1396c-0.0898-0.1006-0.1401-0.2305-0.1401-0.3604
		s0.0503-0.25,0.1401-0.3496c0.1997-0.1904,0.52-0.1904,0.71,0c0.0898,0.0898,0.1499,0.2197,0.1499,0.3496
		s-0.0601,0.2598-0.1499,0.3496C4.7598,15.9199,4.6299,15.9697,4.5098,15.9697z"/>
	<path d="M7.5098,15.9697c-0.1299,0-0.2598-0.0498-0.3501-0.1396c-0.0996-0.1006-0.1499-0.2305-0.1499-0.3604
		s0.0503-0.2598,0.1401-0.3496c0.1899-0.1904,0.52-0.1904,0.71,0C7.96,15.21,8.0098,15.3398,8.0098,15.4697
		s-0.0601,0.2598-0.1499,0.3496C7.7598,15.9199,7.6299,15.9697,7.5098,15.9697z"/>
	<path d="M10.5098,15.9697c-0.1299,0-0.2598-0.0498-0.3599-0.1504c-0.0898-0.0898-0.1401-0.2197-0.1401-0.3496
		s0.0503-0.2598,0.1401-0.3496c0.1797-0.1904,0.52-0.1904,0.71,0c0.1001,0.0996,0.1499,0.2197,0.1499,0.3496
		s-0.0498,0.2598-0.1401,0.3496C10.7598,15.9199,10.6396,15.9697,10.5098,15.9697z"/>
	<path d="M13.5098,15.9697c-0.1299,0-0.2598-0.0498-0.3604-0.1396c-0.0898-0.1006-0.1396-0.2305-0.1396-0.3604
		s0.0498-0.25,0.1396-0.3496c0.1904-0.1904,0.5205-0.1904,0.71-0.0107c0.1006,0.1006,0.1504,0.2305,0.1504,0.3604
		s-0.0596,0.2598-0.1504,0.3496C13.7598,15.9199,13.6396,15.9697,13.5098,15.9697z"/>
	<path d="M16.5098,15.9697c-0.1396,0-0.2695-0.0498-0.3604-0.1504c-0.0898-0.0898-0.1396-0.2197-0.1396-0.3496
		s0.0498-0.2598,0.1396-0.3496c0.1904-0.1904,0.5107-0.1904,0.71-0.0107c0.1006,0.1104,0.1504,0.2305,0.1504,0.3604
		s-0.0596,0.2598-0.1504,0.3496C16.7695,15.9199,16.6396,15.9697,16.5098,15.9697z"/>
	<path d="M19.5098,15.9697c-0.1396,0-0.2598-0.0498-0.3604-0.1504c-0.0898-0.0898-0.1396-0.2197-0.1396-0.3496
		s0.0498-0.2598,0.1396-0.3496c0.2002-0.2002,0.5205-0.1904,0.71-0.0107c0.1006,0.1006,0.1504,0.2305,0.1504,0.3604
		s-0.0596,0.2598-0.1504,0.3604C19.7695,15.9199,19.6396,15.9697,19.5098,15.9697z"/>
</g>
<rect fill="none" width="24" height="24"/>
</svg>
