<?xml version="1.0" encoding="utf-8"?>
<!-- Generator: Adobe Illustrator 18.1.0, SVG Export Plug-In . SVG Version: 6.00 Build 0)  -->
<svg version="1.1" id="Layer_1" xmlns="http://www.w3.org/2000/svg" xmlns:xlink="http://www.w3.org/1999/xlink" x="0px" y="0px"
	 width="24px" height="24px" viewBox="0 0 24 24" enable-background="new 0 0 24 24" xml:space="preserve">
<g>
	<path d="M5.5317,23.0146c-1.3716,0-2.6602-0.5439-3.6284-1.5322c-1.9937-2.0332-1.9937-5.3418-0.0005-7.375L12.3174,3.48
		c0.1943-0.1953,0.5107-0.2007,0.707-0.0068c0.1973,0.1934,0.2012,0.5098,0.0078,0.707L2.6167,14.8066
		c-1.6147,1.6484-1.6147,4.3291,0.0005,5.9766c0.7788,0.7939,1.814,1.2314,2.9141,1.2314c1.1006,0,2.1348-0.4375,2.9136-1.2314
		L21.7217,7.2344c1.1641-1.187,1.1641-3.1187,0-4.3062c-1.1191-1.1431-3.0713-1.144-4.1924,0L6.9102,13.7627
		c-0.7124,0.7285-0.7124,1.9121,0,2.6396c0.3423,0.3486,0.7959,0.541,1.2778,0.541h0.0005c0.4819,0,0.936-0.1924,1.2783-0.541
		l7.7568-7.916c0.1943-0.1953,0.5107-0.2007,0.707-0.0068c0.1973,0.1934,0.2012,0.5098,0.0078,0.707l-7.7578,7.915
		c-0.5317,0.543-1.2393,0.8418-1.9922,0.8418c-0.0005,0-0.0005,0-0.0005,0c-0.7534,0-1.4604-0.2988-1.9922-0.8418
		c-1.0903-1.1123-1.0903-2.9238,0-4.0381L16.8145,2.228c0.75-0.7651,1.748-1.1865,2.8105-1.187c1.0625,0,2.0605,0.4214,2.8115,1.187
		c1.542,1.5737,1.541,4.1333,0,5.7065L9.1587,21.4824C8.1909,22.4707,6.9028,23.0146,5.5317,23.0146z"/>
</g>
<rect fill="none" width="24" height="24"/>
</svg>
