<?xml version="1.0" encoding="utf-8"?>
<!-- Generator: Adobe Illustrator 18.1.0, SVG Export Plug-In . SVG Version: 6.00 Build 0)  -->
<svg version="1.1" id="Layer_1" xmlns="http://www.w3.org/2000/svg" xmlns:xlink="http://www.w3.org/1999/xlink" x="0px" y="0px"
	 width="24px" height="24px" viewBox="0 0 24 24" enable-background="new 0 0 24 24" xml:space="preserve">
<path d="M18.5059,7.9985c-0.0596,0-0.1201-0.0107-0.1797-0.0332L5.3242,2.9648C5.0669,2.8657,4.938,2.5762,5.0371,2.3184
	c0.0996-0.2578,0.3877-0.3857,0.6465-0.2871l13.002,5.0005c0.2578,0.0991,0.3857,0.3887,0.2871,0.6465
	C18.8965,7.877,18.707,7.9985,18.5059,7.9985z"/>
<g>
	<path d="M0.9839,12.0098c-0.0752,0-0.1519-0.0171-0.2236-0.0532c-0.2471-0.1235-0.3467-0.4243-0.2227-0.6709l4.5195-9.0117
		C5.1416,2.105,5.3149,1.998,5.5039,1.998h0.0005c0.1895,0,0.3623,0.1074,0.4468,0.2769l4.4922,9.0117
		c0.1235,0.2471,0.0229,0.5474-0.2241,0.6704c-0.2476,0.127-0.5469,0.0225-0.6704-0.2241L5.5024,3.6162l-4.0713,8.1177
		C1.3438,11.9087,1.167,12.0098,0.9839,12.0098z"/>
	<path d="M5.4902,15.9844c-2.7603,0-5.0059-2.0078-5.0059-4.4756c0-0.2764,0.2236-0.5,0.5-0.5h9.0117c0.2764,0,0.5,0.2236,0.5,0.5
		C10.4961,13.9766,8.2505,15.9844,5.4902,15.9844z M1.5259,12.0088c0.2803,1.6807,1.9512,2.9756,3.9644,2.9756
		s3.6841-1.2949,3.9644-2.9756H1.5259z"/>
	<path d="M22.9971,17.0098c-0.1836,0-0.3604-0.1016-0.4473-0.2773l-4.0449-8.1157l-4.0723,8.1177
		c-0.125,0.2471-0.4277,0.3447-0.6719,0.2227c-0.2461-0.124-0.3457-0.4248-0.2227-0.6719l4.5205-9.0107
		c0.085-0.1689,0.2578-0.2759,0.4473-0.2759c0,0,0,0,0.001,0c0.1895,0.0005,0.3623,0.1074,0.4463,0.2769l4.4912,9.0117
		c0.123,0.2471,0.0225,0.5469-0.2246,0.6699C23.1484,16.9932,23.0723,17.0098,22.9971,17.0098z"/>
	<path d="M18.4912,20.9854c-2.7598,0-5.0059-2.0078-5.0059-4.4766c0-0.2764,0.2236-0.5,0.5-0.5h9.0117c0.2764,0,0.5,0.2236,0.5,0.5
		C23.4971,18.9775,21.251,20.9854,18.4912,20.9854z M14.5264,17.0088c0.2803,1.6807,1.9512,2.9766,3.9648,2.9766
		s3.6846-1.2959,3.9648-2.9766H14.5264z"/>
	<path d="M12.002,24c-0.2764,0-0.5-0.2236-0.5-0.5V2.7451c0-0.2764,0.2236-0.5,0.5-0.5s0.5,0.2236,0.5,0.5V23.5
		C12.502,23.7764,12.2783,24,12.002,24z"/>
	<path d="M16.4551,24h-9c-0.2764,0-0.5-0.2236-0.5-0.5s0.2236-0.5,0.5-0.5h9c0.2764,0,0.5,0.2236,0.5,0.5S16.7314,24,16.4551,24z"/>
</g>
<rect fill="none" width="24" height="24"/>
</svg>
