<?xml version="1.0" encoding="utf-8"?>
<!-- Generator: Adobe Illustrator 18.1.0, SVG Export Plug-In . SVG Version: 6.00 Build 0)  -->
<svg version="1.1" id="Layer_1" xmlns="http://www.w3.org/2000/svg" xmlns:xlink="http://www.w3.org/1999/xlink" x="0px" y="0px"
	 width="24px" height="24px" viewBox="0 0 24 24" enable-background="new 0 0 24 24" xml:space="preserve">
<g>
	<path d="M11.999,23.834c-6.5117,0-11.8091-5.2979-11.8091-11.8105c0-6.5117,5.2974-11.8091,11.8091-11.8091
		s11.8086,5.2974,11.8086,11.8091C23.8076,18.5361,18.5107,23.834,11.999,23.834z M11.999,1.2144
		c-5.96,0-10.8091,4.8491-10.8091,10.8091c0,5.9609,4.8491,10.8105,10.8091,10.8105s10.8086-4.8496,10.8086-10.8105
		C22.8076,6.0635,17.959,1.2144,11.999,1.2144z"/>
	<path d="M8.5566,11.9937c-1.3491,0-2.4468-1.0972-2.4468-2.4463s1.0977-2.4468,2.4468-2.4468s2.4463,1.0977,2.4463,2.4468
		S9.9058,11.9937,8.5566,11.9937z M8.5566,8.1006c-0.7979,0-1.4468,0.6489-1.4468,1.4468c0,0.7974,0.6489,1.4463,1.4468,1.4463
		c0.7974,0,1.4463-0.6489,1.4463-1.4463C10.0029,8.7495,9.354,8.1006,8.5566,8.1006z"/>
	<path d="M15.4639,11.9937c-1.3486,0-2.4463-1.0972-2.4463-2.4463s1.0977-2.4468,2.4463-2.4468s2.4463,1.0977,2.4463,2.4468
		S16.8125,11.9937,15.4639,11.9937z M15.4639,8.1006c-0.7979,0-1.4463,0.6489-1.4463,1.4468c0,0.7974,0.6484,1.4463,1.4463,1.4463
		s1.4463-0.6489,1.4463-1.4463C16.9102,8.7495,16.2617,8.1006,15.4639,8.1006z"/>
	<path d="M15.2197,16.9805H8.7783c-0.2764,0-0.5-0.2236-0.5-0.5s0.2236-0.5,0.5-0.5h6.4414c0.2764,0,0.5,0.2236,0.5,0.5
		S15.4961,16.9805,15.2197,16.9805z"/>
</g>
<rect fill="none" width="24" height="24"/>
</svg>
