<?xml version="1.0" encoding="utf-8"?>
<!-- Generator: Adobe Illustrator 18.1.0, SVG Export Plug-In . SVG Version: 6.00 Build 0)  -->
<svg version="1.1" id="Layer_1" xmlns="http://www.w3.org/2000/svg" xmlns:xlink="http://www.w3.org/1999/xlink" x="0px" y="0px"
	 width="24px" height="24px" viewBox="0 0 24 24" enable-background="new 0 0 24 24" xml:space="preserve">
<g>
	<path d="M11.9873,4.6782c-1.1797,0-2.1294-1.3223-2.1294-2.4175c0-1.0747,0.9551-1.9487,2.1294-1.9487
		c1.1738,0,2.1289,0.874,2.1289,1.9487C14.1162,3.356,13.167,4.6782,11.9873,4.6782z M11.9873,1.312
		c-0.6226,0-1.1294,0.4258-1.1294,0.9487c0,0.5928,0.5693,1.4175,1.1294,1.4175c0.5596,0,1.1289-0.8247,1.1289-1.4175
		C13.1162,1.7378,12.6094,1.312,11.9873,1.312z"/>
	<path d="M17.9863,14h-12c-0.2764,0-0.5-0.2236-0.5-0.5S5.71,13,5.9863,13h12c0.2764,0,0.5,0.2236,0.5,0.5S18.2627,14,17.9863,14z"
		/>
	<path d="M16.4795,11.9834c-0.2705,0-0.4932-0.2163-0.5-0.4883L15.9189,8.938c0-1.0649-0.8105-2.0298-2.0908-2.5288
		c-0.4629,0.4175-1.123,0.6592-1.8345,0.6592l0,0c-0.7183,0-1.3828-0.2417-1.8467-0.6592C8.8667,6.9077,8.0557,7.8721,8.0557,8.9263
		l-0.0601,2.5688c-0.0068,0.2754-0.2314,0.4956-0.5117,0.4883c-0.2759-0.0068-0.4946-0.2358-0.4883-0.5117l0.0601-2.5571
		c0-1.5649,1.2095-2.9678,3.0806-3.5615c0.2002-0.0625,0.418,0.0054,0.5464,0.1699c0.2612,0.3364,0.7632,0.5454,1.311,0.5454l0,0
		c0.5483,0,1.0337-0.2041,1.2993-0.5454c0.127-0.166,0.3467-0.2339,0.5459-0.1699c1.8711,0.5942,3.0801,1.9966,3.0801,3.5732
		l0.0605,2.5454c0.0068,0.2759-0.2119,0.5049-0.4883,0.5117C16.4873,11.9834,16.4834,11.9834,16.4795,11.9834z"/>
	<path d="M14.1387,24h-4.397c-0.2407,0-0.4473-0.1719-0.4912-0.4082l-1.874-10c-0.0278-0.1455,0.0117-0.2969,0.1064-0.4111
		C7.5781,13.0664,7.7188,13,7.8677,13h8.145c0.1484,0,0.29,0.0664,0.3848,0.1807s0.1338,0.2656,0.1064,0.4111l-1.874,10
		C14.5859,23.8281,14.3789,24,14.1387,24z M10.1567,23h3.5669l1.6865-9H8.4702L10.1567,23z"/>
	<path d="M10.4863,14c-0.2764,0-0.5-0.2236-0.5-0.5v-3.167c0-0.1182,0.042-0.2329,0.1187-0.3232l1.3223-1.5615
		c0.1792-0.2104,0.4956-0.2354,0.7046-0.0581c0.2109,0.1782,0.2363,0.4937,0.0586,0.7046l-1.2041,1.4214V13.5
		C10.9863,13.7764,10.7627,14,10.4863,14z"/>
</g>
<rect x="-0.0137" y="0.0002" fill="none" width="24" height="24"/>
</svg>
