<?xml version="1.0" encoding="utf-8"?>
<!-- Generator: Adobe Illustrator 18.1.0, SVG Export Plug-In . SVG Version: 6.00 Build 0)  -->
<svg version="1.1" id="Layer_1" xmlns="http://www.w3.org/2000/svg" xmlns:xlink="http://www.w3.org/1999/xlink" x="0px" y="0px"
	 width="24px" height="24px" viewBox="0 0 24 24" enable-background="new 0 0 24 24" xml:space="preserve">
<g>
	<path d="M5.8545,23.6992c-1.4707,0-2.854-0.5723-3.894-1.6123c-2.147-2.1475-2.147-5.6416,0-7.7891L14.2559,2.0024
		c1.04-1.04,2.4238-1.6128,3.8945-1.6128s2.8535,0.5728,3.8936,1.6128s1.6133,2.4233,1.6133,3.8945
		c0,1.4707-0.5732,2.854-1.6133,3.894L9.7485,22.0869C8.7085,23.127,7.3257,23.6992,5.8545,23.6992z M18.1504,1.3896
		c-1.2041,0-2.3359,0.4688-3.1875,1.3198L2.6675,15.0049c-1.7568,1.7578-1.7568,4.6172,0,6.375
		c0.8516,0.8506,1.9834,1.3193,3.187,1.3193c1.2041,0,2.3359-0.4678,3.187-1.3193L21.3369,9.084
		c0.8516-0.8516,1.3203-1.9834,1.3203-3.187c0-1.2041-0.4688-2.3359-1.3203-3.1875C20.4854,1.8584,19.3545,1.3896,18.1504,1.3896z"
		/>
	<path d="M12.002,19.626c-0.1279,0-0.2559-0.0488-0.3535-0.1465l-7.0806-7.0811c-0.1953-0.1953-0.1953-0.5117,0-0.707
		s0.5117-0.1953,0.707,0l7.0806,7.0811c0.1953,0.1953,0.1953,0.5117,0,0.707C12.2578,19.5771,12.1299,19.626,12.002,19.626z"/>
	<path d="M19.084,12.5449c-0.1279,0-0.2559-0.0488-0.3535-0.1465l-7.082-7.0815c-0.1953-0.1953-0.1953-0.5117,0-0.707
		s0.5117-0.1953,0.707,0l7.082,7.0815c0.1953,0.1953,0.1953,0.5117,0,0.707C19.3398,12.4961,19.2119,12.5449,19.084,12.5449z"/>
	<path d="M8.9697,11.54c-0.1299,0-0.2598-0.0601-0.3501-0.1504C8.52,11.29,8.4697,11.1699,8.4697,11.04
		c0-0.1401,0.0503-0.2603,0.1499-0.3604c0.1704-0.1797,0.5103-0.1899,0.71,0c0.0903,0.1001,0.1401,0.2202,0.1401,0.3604
		c0,0.1299-0.0498,0.25-0.1401,0.3398C9.23,11.48,9.0996,11.54,8.9697,11.54z"/>
	<path d="M10.9897,11.54c-0.1299,0-0.25-0.0601-0.3501-0.1504c-0.0996-0.0996-0.1499-0.23-0.1499-0.3496
		c0-0.1304,0.0503-0.2603,0.1401-0.3501c0.1997-0.2002,0.54-0.1899,0.7197,0c0.0903,0.0898,0.1401,0.21,0.1401,0.3501
		c0,0.1299-0.0498,0.25-0.1401,0.3496C11.25,11.48,11.1196,11.54,10.9897,11.54z"/>
	<path d="M10.9897,9.52c-0.1299,0-0.2598-0.0601-0.3501-0.1504c-0.0898-0.0898-0.1499-0.2197-0.1499-0.3496
		c0-0.1401,0.0601-0.2603,0.1499-0.3604c0.1704-0.1797,0.5103-0.1899,0.71,0c0.0903,0.1001,0.1401,0.23,0.1401,0.3604
		c0,0.1196-0.0498,0.25-0.1401,0.3398C11.25,9.46,11.1196,9.52,10.9897,9.52z"/>
	<path d="M13.0195,11.54c-0.1299,0-0.2598-0.0601-0.3496-0.1602c-0.0898-0.0898-0.1504-0.21-0.1504-0.3501
		c0-0.1299,0.0498-0.2598,0.1504-0.3501c0.1895-0.1797,0.5098-0.1899,0.7002,0c0.0996,0.1001,0.1494,0.23,0.1494,0.3501
		c0,0.1299-0.0498,0.2603-0.1396,0.3501C13.2803,11.48,13.1494,11.54,13.0195,11.54z"/>
	<path d="M13.0195,9.52c-0.1299,0-0.2598-0.0601-0.3496-0.1504c-0.0898-0.0898-0.1504-0.2197-0.1504-0.3496
		c0-0.1401,0.0498-0.2603,0.1504-0.3604c0.1797-0.1797,0.5098-0.1899,0.7002,0c0.0996,0.1001,0.1494,0.23,0.1494,0.3604
		c0,0.1299-0.0498,0.25-0.1396,0.3496C13.2803,9.46,13.1494,9.52,13.0195,9.52z"/>
	<path d="M15.0498,11.5298c-0.1299,0-0.2598-0.0498-0.3496-0.1401c-0.1006-0.0996-0.1504-0.2197-0.1504-0.3496
		c0-0.1401,0.0498-0.2603,0.1504-0.3604c0.1797-0.1797,0.5098-0.1899,0.6992,0c0.1006,0.1001,0.1504,0.23,0.1504,0.3604
		c0,0.1196-0.0498,0.25-0.1396,0.3398C15.3096,11.48,15.1797,11.5298,15.0498,11.5298z"/>
	<path d="M15.0498,13.5596c-0.1299,0-0.2598-0.0498-0.3496-0.1396c-0.1006-0.1006-0.1504-0.2197-0.1504-0.3604
		c0-0.1299,0.0498-0.2598,0.1504-0.3496c0.1797-0.1904,0.5098-0.1904,0.6992,0c0.1006,0.0996,0.1504,0.2295,0.1504,0.3496
		c0,0.1299-0.0498,0.2598-0.1396,0.3506C15.2998,13.5098,15.1797,13.5596,15.0498,13.5596z"/>
	<path d="M13.0195,13.5596c-0.1299,0-0.25-0.0498-0.3496-0.1396c-0.1006-0.1006-0.1504-0.2305-0.1504-0.3604
		c0-0.1201,0.0498-0.25,0.1406-0.3496c0.2197-0.2002,0.5293-0.1797,0.71,0c0.0996,0.0898,0.1494,0.2197,0.1494,0.3496
		c0,0.1406-0.0498,0.2598-0.1396,0.3604C13.2803,13.5098,13.1494,13.5596,13.0195,13.5596z"/>
	<path d="M13.0195,15.5898c-0.1299,0-0.25-0.0498-0.3496-0.1396c-0.1006-0.1006-0.1504-0.2207-0.1504-0.3506
		s0.0498-0.2598,0.1406-0.3594c0.21-0.2002,0.5293-0.1807,0.7197,0c0.0898,0.0996,0.1396,0.2197,0.1396,0.3594
		c0,0.1299-0.0498,0.25-0.1396,0.3506C13.2803,15.54,13.1494,15.5898,13.0195,15.5898z"/>
	<path d="M10.9897,13.5596c-0.1299,0-0.25-0.0498-0.3501-0.1396c-0.0996-0.1006-0.1499-0.2305-0.1499-0.3604
		c0-0.1201,0.0503-0.25,0.1401-0.3496c0.21-0.2002,0.5298-0.1797,0.71,0c0.1001,0.0898,0.1499,0.2197,0.1499,0.3496
		c0,0.1406-0.0498,0.2598-0.1401,0.3604C11.25,13.5098,11.1196,13.5596,10.9897,13.5596z"/>
	<path d="M10.9897,15.5898c-0.1299,0-0.25-0.0498-0.3501-0.1396c-0.0996-0.1006-0.1499-0.2305-0.1499-0.3506
		c0-0.1299,0.0503-0.2598,0.1401-0.3594c0.21-0.2002,0.5298-0.1807,0.71,0c0.1001,0.0898,0.1499,0.2197,0.1499,0.3594
		c0,0.1299-0.0498,0.25-0.1401,0.3506C11.25,15.54,11.1196,15.5898,10.9897,15.5898z"/>
	<path d="M8.96,13.5596c-0.1304,0-0.25-0.0498-0.3501-0.1396C8.5098,13.3193,8.46,13.2002,8.46,13.0596
		c0-0.1299,0.0601-0.2598,0.1499-0.3496c0.2002-0.1904,0.52-0.1797,0.7002-0.0098C9.4097,12.7998,9.46,12.9297,9.46,13.0596
		c0,0.1406-0.0503,0.2598-0.1401,0.3604C9.2197,13.5098,9.0898,13.5596,8.96,13.5596z"/>
</g>
<rect x="0.0142" y="0.0346" fill="none" width="24" height="24"/>
</svg>
