<?xml version="1.0" encoding="utf-8"?>
<!-- Generator: Adobe Illustrator 18.1.0, SVG Export Plug-In . SVG Version: 6.00 Build 0)  -->
<svg version="1.1" id="Layer_1" xmlns="http://www.w3.org/2000/svg" xmlns:xlink="http://www.w3.org/1999/xlink" x="0px" y="0px"
	 width="24px" height="24px" viewBox="0 0 24 24" enable-background="new 0 0 24 24" xml:space="preserve">
<g>
	<path d="M5.7363,24.0049H1.1484c-0.6646,0-1.2056-0.5273-1.2056-1.1748v-3.6045c0-0.6611,0.5522-1.2197,1.2056-1.2197h4.5879
		c0.6538,0,1.2065,0.5586,1.2065,1.2197v3.6045C6.9429,23.4775,6.4019,24.0049,5.7363,24.0049z M1.1484,19.0059
		c-0.1055,0-0.2056,0.1064-0.2056,0.2197v3.6045c0,0.1133,0.106,0.1748,0.2056,0.1748h4.5879c0.1016,0,0.2065-0.0654,0.2065-0.1748
		v-3.6045c0-0.1113-0.1025-0.2197-0.2065-0.2197H1.1484z"/>
	<path d="M13.7373,24.0049H9.1494c-0.6646,0-1.2056-0.5273-1.2056-1.1748v-9.6045c0-0.6621,0.5522-1.2207,1.2056-1.2207h4.5879
		c0.6543,0,1.207,0.5586,1.207,1.2207v9.6045C14.9443,23.4775,14.4033,24.0049,13.7373,24.0049z M9.1494,13.0049
		c-0.1055,0-0.2056,0.1074-0.2056,0.2207v9.6045c0,0.1133,0.106,0.1748,0.2056,0.1748h4.5879c0.1016,0,0.207-0.0654,0.207-0.1748
		v-9.6045c0-0.1113-0.1025-0.2207-0.207-0.2207H9.1494z"/>
	<path d="M21.7383,24.0049h-4.5879c-0.665,0-1.2061-0.5273-1.2061-1.1748V3.2241c0-0.6611,0.5527-1.2197,1.2061-1.2197h4.5879
		c0.6533,0,1.2061,0.5586,1.2061,1.2197v19.606C22.9443,23.4775,22.4033,24.0049,21.7383,24.0049z M17.1504,3.0044
		c-0.1055,0-0.2061,0.1069-0.2061,0.2197v19.606c0,0.1133,0.1064,0.1748,0.2061,0.1748h4.5879c0.1016,0,0.2061-0.0654,0.2061-0.1748
		V3.2241c0-0.1108-0.1025-0.2197-0.2061-0.2197H17.1504z"/>
	<path d="M1.4434,12.9736c-0.1279,0-0.2559-0.0488-0.3535-0.1465c-0.1953-0.1953-0.1953-0.5117,0-0.707l8.9614-8.9609
		c0.1953-0.1953,0.5117-0.1953,0.707,0s0.1953,0.5117,0,0.707l-8.9614,8.9609C1.6992,12.9248,1.5713,12.9736,1.4434,12.9736z"/>
	<path d="M10.4863,8.5c-0.2764,0-0.5-0.2236-0.5-0.5V4h-4c-0.2764,0-0.5-0.2236-0.5-0.5S5.71,3,5.9863,3h4.5
		c0.2764,0,0.5,0.2236,0.5,0.5V8C10.9863,8.2764,10.7627,8.5,10.4863,8.5z"/>
</g>
<rect x="-0.0136" fill="none" width="24" height="24"/>
</svg>
