<?xml version="1.0" encoding="utf-8"?>
<!-- Generator: Adobe Illustrator 18.1.0, SVG Export Plug-In . SVG Version: 6.00 Build 0)  -->
<svg version="1.1" id="Layer_1" xmlns="http://www.w3.org/2000/svg" xmlns:xlink="http://www.w3.org/1999/xlink" x="0px" y="0px"
	 width="24px" height="24px" viewBox="0 0 24 24" enable-background="new 0 0 24 24" xml:space="preserve">
<g>
	<path d="M21.6455,12.9902c-0.0254,0-0.0508-0.002-0.0752-0.0059l-4.6279-0.6992c-0.2725-0.041-0.4609-0.2959-0.4189-0.5688
		c0.041-0.2739,0.3076-0.4575,0.5684-0.4199l4.1328,0.6245l1.2803-8.4712L7.8047,1.2285L7.3892,3.98
		C7.3477,4.2529,7.0898,4.4355,6.8198,4.3999C6.5469,4.3584,6.3589,4.1035,6.3999,3.8306L6.8901,0.585
		c0.02-0.1309,0.0913-0.249,0.1978-0.3276S7.3276,0.1484,7.4595,0.165l15.689,2.3701c0.1318,0.02,0.249,0.0913,0.3281,0.1978
		c0.0791,0.1069,0.1123,0.2402,0.0918,0.3716l-1.4297,9.4609C22.1016,12.8125,21.8887,12.9902,21.6455,12.9902z"/>
	<path d="M18.9727,12.5312c-0.0283,0-0.0566-0.002-0.085-0.0068c-0.2725-0.0469-0.4551-0.3057-0.4092-0.5776
		c0.2939-1.7178,1.9365-2.9058,3.6484-2.6426c0.2725,0.041,0.4609,0.2959,0.4189,0.5688s-0.3018,0.4561-0.5693,0.4194
		c-1.1768-0.1738-2.3096,0.6392-2.5117,1.8228C19.4229,12.3594,19.2109,12.5312,18.9727,12.5312z"/>
	<path d="M22.5322,5.9883c-0.0215,0-0.0439-0.0015-0.0654-0.0044c-0.7471-0.0972-1.4062-0.4868-1.8574-1.0977
		c-0.4775-0.6465-0.6699-1.4917-0.5293-2.3184c0.0469-0.2725,0.3076-0.4561,0.5771-0.4082
		c0.2725,0.0464,0.4551,0.3047,0.4092,0.5771c-0.0977,0.5679,0.0264,1.1206,0.3477,1.5557c0.2871,0.3896,0.707,0.6382,1.1816,0.7002
		c0.2744,0.0356,0.4668,0.2861,0.4316,0.5601C22.9941,5.8047,22.7793,5.9883,22.5322,5.9883z"/>
	<path d="M7.3916,3.7358c-0.1548,0-0.3101-0.0112-0.4658-0.0347C6.6528,3.6597,6.4648,3.4048,6.5059,3.1318
		c0.0415-0.2729,0.2949-0.457,0.5693-0.4199c0.5469,0.0845,1.0957-0.0522,1.542-0.3818C9.063,2.001,9.3545,1.5181,9.437,0.9697
		c0.041-0.2729,0.2969-0.4551,0.5693-0.4199c0.2729,0.0415,0.4609,0.2964,0.4199,0.5693c-0.123,0.8125-0.5547,1.5283-1.2158,2.0161
		C8.6763,3.5293,8.0435,3.7358,7.3916,3.7358z"/>
	<path d="M20.5342,19.0723c-2.0039,0-3.5156-0.8184-3.5156-1.9043c0-0.2764,0.2236-0.5,0.5-0.5s0.5,0.2236,0.5,0.5
		c0,0.3184,0.9551,0.9043,2.5156,0.9043c1.5596,0,2.5146-0.5859,2.5146-0.9043c0-0.2764,0.2236-0.5,0.5-0.5s0.5,0.2236,0.5,0.5
		C24.0488,18.2539,22.5381,19.0723,20.5342,19.0723z"/>
	<path d="M20.5342,20.8359c-2.0039,0-3.5156-0.8184-3.5156-1.9043c0-0.2764,0.2236-0.5,0.5-0.5s0.5,0.2236,0.5,0.5
		c0,0.3184,0.9551,0.9043,2.5156,0.9043c1.5596,0,2.5146-0.5859,2.5146-0.9043c0-0.2764,0.2236-0.5,0.5-0.5s0.5,0.2236,0.5,0.5
		C24.0488,20.0176,22.5381,20.8359,20.5342,20.8359z"/>
	<path d="M20.5342,22.5996c-2.0039,0-3.5156-0.8184-3.5156-1.9043v-5.291c0-0.2764,0.2236-0.5,0.5-0.5s0.5,0.2236,0.5,0.5v5.291
		c0,0.3184,0.9551,0.9043,2.5156,0.9043c1.5596,0,2.5146-0.5859,2.5146-0.9043v-5.291c0-0.2764,0.2236-0.5,0.5-0.5
		s0.5,0.2236,0.5,0.5v5.291C24.0488,21.7812,22.5381,22.5996,20.5342,22.5996z"/>
	<path d="M20.5342,17.3096c-2.0039,0-3.5156-0.8193-3.5156-1.9053S18.5303,13.5,20.5342,13.5s3.5146,0.8184,3.5146,1.9043
		S22.5381,17.3096,20.5342,17.3096z M20.5342,14.5c-1.5605,0-2.5156,0.5859-2.5156,0.9043c0,0.3193,0.9551,0.9053,2.5156,0.9053
		c1.5596,0,2.5146-0.5859,2.5146-0.9053C23.0488,15.0859,22.0938,14.5,20.5342,14.5z"/>
	<g>
		<path d="M4.5957,10.4868c-2.0039,0-3.5151-0.8188-3.5151-1.9048c0-0.2764,0.2236-0.5,0.5-0.5s0.5,0.2236,0.5,0.5
			c0,0.3188,0.9551,0.9048,2.5151,0.9048S7.1108,8.9009,7.1108,8.582c0-0.2764,0.2236-0.5,0.5-0.5s0.5,0.2236,0.5,0.5
			C8.1108,9.668,6.5996,10.4868,4.5957,10.4868z"/>
		<path d="M4.5957,12.25c-2.0039,0-3.5151-0.8188-3.5151-1.9043c0-0.2764,0.2236-0.5,0.5-0.5s0.5,0.2236,0.5,0.5
			c0,0.3188,0.9551,0.9043,2.5151,0.9043s2.5151-0.5854,2.5151-0.9043c0-0.2764,0.2236-0.5,0.5-0.5s0.5,0.2236,0.5,0.5
			C8.1108,11.4312,6.5996,12.25,4.5957,12.25z"/>
		<path d="M4.5957,14.0137c-2.0039,0-3.5151-0.8184-3.5151-1.9043c0-0.2764,0.2236-0.5,0.5-0.5s0.5,0.2236,0.5,0.5
			c0,0.3184,0.9551,0.9043,2.5151,0.9043s2.5151-0.5859,2.5151-0.9043c0-0.2764,0.2236-0.5,0.5-0.5s0.5,0.2236,0.5,0.5
			C8.1108,13.1953,6.5996,14.0137,4.5957,14.0137z"/>
		<path d="M4.5957,15.7773c-2.0039,0-3.5151-0.8193-3.5151-1.9053c0-0.2764,0.2236-0.5,0.5-0.5s0.5,0.2236,0.5,0.5
			c0,0.3193,0.9551,0.9053,2.5151,0.9053s2.5151-0.5859,2.5151-0.9053c0-0.2764,0.2236-0.5,0.5-0.5s0.5,0.2236,0.5,0.5
			C8.1108,14.958,6.5996,15.7773,4.5957,15.7773z"/>
		<path d="M4.5957,17.541c-2.0039,0-3.5151-0.8193-3.5151-1.9053c0-0.2764,0.2236-0.5,0.5-0.5s0.5,0.2236,0.5,0.5
			c0,0.3193,0.9551,0.9053,2.5151,0.9053s2.5151-0.5859,2.5151-0.9053c0-0.2764,0.2236-0.5,0.5-0.5s0.5,0.2236,0.5,0.5
			C8.1108,16.7217,6.5996,17.541,4.5957,17.541z"/>
		<path d="M4.5957,19.3037c-2.0039,0-3.5151-0.8184-3.5151-1.9043c0-0.2764,0.2236-0.5,0.5-0.5s0.5,0.2236,0.5,0.5
			c0,0.3184,0.9551,0.9043,2.5151,0.9043s2.5151-0.5859,2.5151-0.9043c0-0.2764,0.2236-0.5,0.5-0.5s0.5,0.2236,0.5,0.5
			C8.1108,18.4854,6.5996,19.3037,4.5957,19.3037z"/>
		<path d="M4.5957,21.0674c-2.0039,0-3.5151-0.8184-3.5151-1.9043c0-0.2764,0.2236-0.5,0.5-0.5s0.5,0.2236,0.5,0.5
			c0,0.3184,0.9551,0.9043,2.5151,0.9043s2.5151-0.5859,2.5151-0.9043c0-0.2764,0.2236-0.5,0.5-0.5s0.5,0.2236,0.5,0.5
			C8.1108,20.249,6.5996,21.0674,4.5957,21.0674z"/>
		<path d="M4.5957,22.8311c-2.0039,0-3.5151-0.8184-3.5151-1.9043V6.7886c0-0.2764,0.2236-0.5,0.5-0.5s0.5,0.2236,0.5,0.5v14.1382
			c0,0.3184,0.9551,0.9043,2.5151,0.9043s2.5151-0.5859,2.5151-0.9043V6.7886c0-0.2764,0.2236-0.5,0.5-0.5s0.5,0.2236,0.5,0.5
			v14.1382C8.1108,22.0127,6.5996,22.8311,4.5957,22.8311z"/>
		<path d="M4.5957,8.6934c-2.0039,0-3.5151-0.8188-3.5151-1.9048s1.5112-1.9048,3.5151-1.9048s3.5151,0.8188,3.5151,1.9048
			S6.5996,8.6934,4.5957,8.6934z M4.5957,5.8838c-1.5601,0-2.5151,0.5859-2.5151,0.9048s0.9551,0.9048,2.5151,0.9048
			s2.5151-0.5859,2.5151-0.9048S6.1558,5.8838,4.5957,5.8838z"/>
	</g>
	<g>
		<path d="M12.54,16.7861c-2.0039,0-3.5146-0.8184-3.5146-1.9043c0-0.2764,0.2236-0.5,0.5-0.5s0.5,0.2236,0.5,0.5
			c0,0.3184,0.9546,0.9043,2.5146,0.9043c1.5605,0,2.5156-0.5859,2.5156-0.9043c0-0.2764,0.2236-0.5,0.5-0.5s0.5,0.2236,0.5,0.5
			C16.0557,15.9678,14.5439,16.7861,12.54,16.7861z"/>
		<path d="M12.54,18.5498c-2.0039,0-3.5146-0.8184-3.5146-1.9043c0-0.2764,0.2236-0.5,0.5-0.5s0.5,0.2236,0.5,0.5
			c0,0.3184,0.9546,0.9043,2.5146,0.9043c1.5605,0,2.5156-0.5859,2.5156-0.9043c0-0.2764,0.2236-0.5,0.5-0.5s0.5,0.2236,0.5,0.5
			C16.0557,17.7314,14.5439,18.5498,12.54,18.5498z"/>
		<path d="M12.54,20.3135c-2.0039,0-3.5146-0.8184-3.5146-1.9043c0-0.2764,0.2236-0.5,0.5-0.5s0.5,0.2236,0.5,0.5
			c0,0.3184,0.9546,0.9043,2.5146,0.9043c1.5605,0,2.5156-0.5859,2.5156-0.9043c0-0.2764,0.2236-0.5,0.5-0.5s0.5,0.2236,0.5,0.5
			C16.0557,19.4951,14.5439,20.3135,12.54,20.3135z"/>
		<path d="M12.54,22.0771c-2.0039,0-3.5146-0.8193-3.5146-1.9053c0-0.2764,0.2236-0.5,0.5-0.5s0.5,0.2236,0.5,0.5
			c0,0.3193,0.9546,0.9053,2.5146,0.9053c1.5605,0,2.5156-0.5859,2.5156-0.9053c0-0.2764,0.2236-0.5,0.5-0.5s0.5,0.2236,0.5,0.5
			C16.0557,21.2578,14.5439,22.0771,12.54,22.0771z"/>
		<path d="M12.54,23.8398c-2.0039,0-3.5146-0.8184-3.5146-1.9043v-8.8467c0-0.2764,0.2236-0.5,0.5-0.5s0.5,0.2236,0.5,0.5v8.8467
			c0,0.3184,0.9546,0.9043,2.5146,0.9043c1.5605,0,2.5156-0.5859,2.5156-0.9043v-8.8467c0-0.2764,0.2236-0.5,0.5-0.5
			s0.5,0.2236,0.5,0.5v8.8467C16.0557,23.0215,14.5439,23.8398,12.54,23.8398z"/>
		<path d="M12.54,14.9932c-2.0039,0-3.5146-0.8184-3.5146-1.9043s1.5107-1.9053,3.5146-1.9053s3.5156,0.8193,3.5156,1.9053
			S14.5439,14.9932,12.54,14.9932z M12.54,12.1836c-1.5601,0-2.5146,0.5859-2.5146,0.9053c0,0.3184,0.9546,0.9043,2.5146,0.9043
			c1.5605,0,2.5156-0.5859,2.5156-0.9043C15.0557,12.7695,14.1006,12.1836,12.54,12.1836z"/>
	</g>
	<path d="M14.3838,9.5566c-0.0918,0-0.1846-0.0063-0.2773-0.0195c-0.5625-0.0776-1.2627-0.4844-1.7031-0.9888
		c-0.1816-0.208-0.1602-0.5239,0.0479-0.7056c0.207-0.1816,0.5244-0.1606,0.7061,0.0483c0.2812,0.3223,0.7578,0.6104,1.0859,0.6558
		c0.2295,0.0303,0.4502-0.0142,0.627-0.1289c0.1533-0.1011,0.25-0.2446,0.2725-0.4043c0.0137-0.0967,0.0537-0.3892-0.8564-0.7979
		c-0.4814-0.2275-1.5898-0.751-1.4365-1.8472c0.0615-0.4492,0.3154-0.8413,0.7148-1.103c0.3779-0.2476,0.8438-0.3486,1.3115-0.2832
		c0.6338,0.0879,1.1846,0.4766,1.4375,1.0142c0.1182,0.25,0.0107,0.5479-0.2393,0.6655c-0.2471,0.1182-0.5479,0.0112-0.665-0.2388
		c-0.1113-0.2358-0.3682-0.4087-0.6699-0.4507c-0.2285-0.0312-0.4502,0.0137-0.627,0.1289c-0.1533,0.1011-0.25,0.2446-0.2725,0.4043
		c-0.0264,0.1919,0.0596,0.4214,0.8652,0.8018C15.0908,6.481,16.291,7.02,16.1328,8.1509c-0.0615,0.4492-0.3154,0.8413-0.7148,1.103
		C15.1152,9.4526,14.7559,9.5566,14.3838,9.5566z"/>
	<path d="M14.8086,4.9775c-0.0234,0-0.0469-0.0015-0.0703-0.0049c-0.2734-0.0381-0.4639-0.2905-0.4258-0.564l0.0869-0.6235
		c0.0391-0.2739,0.2998-0.4609,0.5645-0.4263c0.2734,0.0381,0.4639,0.2905,0.4258,0.564l-0.0869,0.6235
		C15.2676,4.7969,15.0537,4.9775,14.8086,4.9775z"/>
	<path d="M14.0889,10.1655c-0.0234,0-0.0469-0.0015-0.0703-0.0049c-0.2734-0.0381-0.4639-0.2905-0.4258-0.564l0.0869-0.6235
		c0.0391-0.2744,0.2979-0.4624,0.5645-0.4263c0.2734,0.0381,0.4639,0.2905,0.4258,0.564L14.583,9.7344
		C14.5479,9.9849,14.334,10.1655,14.0889,10.1655z"/>
</g>
<rect x="-0.0137" fill="none" width="24" height="24"/>
</svg>
