<?xml version="1.0" encoding="utf-8"?>
<!-- Generator: Adobe Illustrator 18.1.0, SVG Export Plug-In . SVG Version: 6.00 Build 0)  -->
<svg version="1.1" id="Layer_1" xmlns="http://www.w3.org/2000/svg" xmlns:xlink="http://www.w3.org/1999/xlink" x="0px" y="0px"
	 width="24px" height="24px" viewBox="0 0 24 24" enable-background="new 0 0 24 24" xml:space="preserve">
<g>
	<path d="M4.5425,9.9463c-0.2764,0-0.5-0.2236-0.5-0.5V3.5288c0-0.2764,0.2236-0.5,0.5-0.5s0.5,0.2236,0.5,0.5v5.9175
		C5.0425,9.7227,4.8188,9.9463,4.5425,9.9463z"/>
	<path d="M7.2832,6.8613c-0.1309,0-0.2612-0.0513-0.3594-0.1523L4.5444,4.2471L2.165,6.709
		C1.9736,6.9067,1.6572,6.9131,1.458,6.7207c-0.1982-0.1919-0.2036-0.5083-0.0117-0.707l2.7388-2.834
		c0.1885-0.1943,0.5303-0.1943,0.7188,0l2.7388,2.834c0.1919,0.1987,0.1865,0.5151-0.0117,0.707
		C7.5337,6.8145,7.4082,6.8613,7.2832,6.8613z"/>
	<path d="M10.4023,20.9375c-0.0649,0-0.1309-0.0127-0.1943-0.0391c-0.2544-0.1074-0.3735-0.4014-0.2661-0.6553L16.0146,5.855
		c0.1562-0.3701,0.7656-0.3711,0.9219,0l6.0742,14.3882c0.1074,0.2539-0.0117,0.5479-0.2666,0.6553
		c-0.2529,0.1045-0.5469-0.0107-0.6553-0.2666L16.4756,7.335l-5.6128,13.2969C10.7822,20.8232,10.5972,20.9375,10.4023,20.9375z"/>
	<path d="M20.4658,16.001h-7.9795c-0.2764,0-0.5-0.2236-0.5-0.5s0.2236-0.5,0.5-0.5h7.9795c0.2764,0,0.5,0.2236,0.5,0.5
		S20.7422,16.001,20.4658,16.001z"/>
	<path d="M7.5283,20.9072c-0.2002,0-0.3892-0.1211-0.4658-0.3184l-2.5181-6.4746l-2.5181,6.4746
		c-0.1001,0.2568-0.3916,0.3848-0.647,0.2842c-0.2573-0.0996-0.3848-0.3896-0.2847-0.6475l2.9839-7.6719
		c0.1494-0.3828,0.7822-0.3828,0.9316,0l2.9839,7.6719c0.1001,0.2578-0.0273,0.5479-0.2847,0.6475
		C7.6499,20.8965,7.5889,20.9072,7.5283,20.9072z"/>
	<path d="M6.3979,18.001h-3.707c-0.2764,0-0.5-0.2236-0.5-0.5s0.2236-0.5,0.5-0.5h3.707c0.2764,0,0.5,0.2236,0.5,0.5
		S6.6743,18.001,6.3979,18.001z"/>
</g>
<rect y="0.0011" fill="none" width="24" height="24"/>
</svg>
