<?xml version="1.0" encoding="utf-8"?>
<!-- Generator: Adobe Illustrator 18.1.0, SVG Export Plug-In . SVG Version: 6.00 Build 0)  -->
<svg version="1.1" id="Layer_1" xmlns="http://www.w3.org/2000/svg" xmlns:xlink="http://www.w3.org/1999/xlink" x="0px" y="0px"
	 width="24px" height="24px" viewBox="0 0 24 24" enable-background="new 0 0 24 24" xml:space="preserve">
<g>
	<path d="M23.2207,16.04H21.248c-0.2764,0-0.5-0.2236-0.5-0.5s0.2236-0.5,0.5-0.5h1.9727c0.2764,0,0.5,0.2236,0.5,0.5
		S23.4971,16.04,23.2207,16.04z"/>
	<path d="M19.3105,16.04H4.6929c-0.2764,0-0.5-0.2236-0.5-0.5s0.2236-0.5,0.5-0.5h14.6177c0.2764,0,0.5,0.2236,0.5,0.5
		S19.5869,16.04,19.3105,16.04z"/>
	<path d="M2.7905,16.04H0.8267c-0.2764,0-0.5-0.2236-0.5-0.5s0.2236-0.5,0.5-0.5h1.9639c0.2764,0,0.5,0.2236,0.5,0.5
		S3.0669,16.04,2.7905,16.04z"/>
	<path d="M4.7598,21.1963c-0.2734,0-0.4966-0.2197-0.5-0.4941L4.0771,5.9731H3.416L3.2339,19.5273
		c-0.0039,0.2734-0.2271,0.4932-0.5,0.4932c-0.002,0-0.0044,0-0.0068,0C2.4512,20.0166,2.23,19.79,2.2339,19.5137l0.189-14.0474
		c0.0039-0.2734,0.2266-0.4932,0.5-0.4932h1.6479c0.2739,0,0.4966,0.2202,0.5,0.4937l0.189,15.2236
		c0.0034,0.2754-0.2178,0.502-0.4937,0.5059C4.7637,21.1963,4.7617,21.1963,4.7598,21.1963z"/>
	<path d="M19.2236,21.1963c-0.0029,0-0.0049,0-0.0078,0c-0.2764-0.0049-0.4961-0.2314-0.4922-0.5078l0.2441-15.2231
		c0.0049-0.2729,0.2266-0.4922,0.5-0.4922h1.6475c0.2734,0,0.4961,0.2197,0.5,0.4932l0.1895,14.0474
		c0.0039,0.2764-0.2168,0.5029-0.4932,0.5068c-0.002,0-0.0049,0-0.0068,0c-0.2734,0-0.4961-0.2197-0.5-0.4932L20.6221,5.9731H19.96
		l-0.2363,14.731C19.7188,20.9775,19.4961,21.1963,19.2236,21.1963z"/>
	<path d="M11.8984,12.8564c-0.0869,0-0.1733-0.002-0.2598-0.0068c-4.5278-0.2236-7.3999-6.2114-7.52-6.4663
		C4.001,6.1338,4.1079,5.8359,4.3574,5.7183C4.6069,5.6011,4.9048,5.7075,5.0229,5.957c0.0269,0.0571,2.7388,5.7021,6.667,5.8945
		c2.4312,0.0879,4.9097-1.8789,7.3384-5.938c0.1426-0.2373,0.4502-0.314,0.6855-0.1724c0.2373,0.1421,0.3145,0.4487,0.1719,0.686
		C17.332,10.6953,14.6465,12.8564,11.8984,12.8564z"/>
	<path d="M23.2207,9.2534c-0.1094,0-0.2188-0.0356-0.3115-0.1084c-0.9004-0.7163-1.3662-1.4624-1.707-2.0073
		c-0.1602-0.2578-0.2998-0.4805-0.4336-0.6162c-0.1934-0.1968-0.1914-0.5132,0.0059-0.707c0.1943-0.1943,0.5107-0.1924,0.707,0.0049
		c0.2109,0.2148,0.377,0.4805,0.5693,0.7886c0.3184,0.5103,0.7148,1.145,1.4814,1.7539c0.2158,0.1719,0.252,0.4863,0.0801,0.7026
		C23.5137,9.1885,23.3672,9.2534,23.2207,9.2534z"/>
	<path d="M0.6382,9.2534c-0.1475,0-0.2935-0.0649-0.3921-0.189C0.0742,8.8481,0.1104,8.5337,0.3267,8.3618
		C1.1309,7.7231,1.6108,7.064,1.9966,6.5342c0.2041-0.2803,0.3804-0.522,0.5703-0.7148c0.1929-0.1973,0.5098-0.1997,0.707-0.0049
		c0.1968,0.1938,0.1987,0.5103,0.0049,0.707C3.1299,6.6729,2.9814,6.8809,2.8047,7.123c-0.3989,0.5479-0.9458,1.2988-1.856,2.022
		C0.8569,9.2178,0.7471,9.2534,0.6382,9.2534z"/>
	<path d="M6.647,16.04c-0.2764,0-0.5-0.2236-0.5-0.5v-3.9146c0-0.2764,0.2236-0.5,0.5-0.5s0.5,0.2236,0.5,0.5V15.54
		C7.147,15.8164,6.9233,16.04,6.647,16.04z"/>
	<path d="M8.7979,16.04c-0.2764,0-0.5-0.2236-0.5-0.5v-2.291c0-0.2764,0.2236-0.5,0.5-0.5s0.5,0.2236,0.5,0.5v2.291
		C9.2979,15.8164,9.0742,16.04,8.7979,16.04z"/>
	<path d="M10.9487,16.04c-0.2764,0-0.5-0.2236-0.5-0.5v-1.3047c0-0.2764,0.2236-0.5,0.5-0.5s0.5,0.2236,0.5,0.5V15.54
		C11.4487,15.8164,11.2251,16.04,10.9487,16.04z"/>
	<path d="M13.0996,16.04c-0.2764,0-0.5-0.2236-0.5-0.5v-1.3857c0-0.2764,0.2236-0.5,0.5-0.5s0.5,0.2236,0.5,0.5V15.54
		C13.5996,15.8164,13.376,16.04,13.0996,16.04z"/>
	<path d="M15.25,16.04c-0.2764,0-0.5-0.2236-0.5-0.5V13.085c0-0.2764,0.2236-0.5,0.5-0.5s0.5,0.2236,0.5,0.5V15.54
		C15.75,15.8164,15.5264,16.04,15.25,16.04z"/>
	<path d="M17.4004,16.04c-0.2764,0-0.5-0.2236-0.5-0.5v-4.1416c0-0.2764,0.2236-0.5,0.5-0.5s0.5,0.2236,0.5,0.5V15.54
		C17.9004,15.8164,17.6768,16.04,17.4004,16.04z"/>
	<path d="M18.4082,21.4834c-0.7393,0-1.4346-0.2881-1.957-0.8105c-0.6904-0.6904-1.8125-0.6885-2.501,0
		c-1.0811,1.0801-2.8364,1.0801-3.915,0c-0.6899-0.6904-1.8125-0.6885-2.5015,0c-1.0791,1.0801-2.835,1.0801-3.915,0
		c-0.668-0.668-1.833-0.668-2.501,0c-0.1953,0.1953-0.5117,0.1953-0.707,0s-0.1953-0.5117,0-0.707
		c1.0459-1.0449,2.8691-1.0449,3.915,0c0.6895,0.6904,1.8115,0.6885,2.501,0c1.0791-1.0781,2.8354-1.0801,3.9155,0
		c0.6895,0.6895,1.8115,0.6895,2.501,0c1.0811-1.0811,2.835-1.0791,3.915,0c0.6895,0.6904,1.8115,0.6885,2.501,0
		c1.0459-1.0449,2.8711-1.0449,3.915,0c0.1953,0.1953,0.1953,0.5117,0,0.707s-0.5117,0.1953-0.707,0
		c-0.6885-0.6885-1.8105-0.6904-2.501,0C19.8438,21.1953,19.1484,21.4834,18.4082,21.4834z"/>
</g>
<rect x="-0.0137" fill="none" width="24" height="24"/>
</svg>
