<?xml version="1.0" encoding="utf-8"?>
<!-- Generator: Adobe Illustrator 18.1.0, SVG Export Plug-In . SVG Version: 6.00 Build 0)  -->
<svg version="1.1" id="Layer_1" xmlns="http://www.w3.org/2000/svg" xmlns:xlink="http://www.w3.org/1999/xlink" x="0px" y="0px"
	 width="24px" height="24px" viewBox="0 0 24 24" enable-background="new 0 0 24 24" xml:space="preserve">
<g>
	<path d="M17.3076,12.21c-0.2559,0-0.4736-0.1963-0.4971-0.4556L16.2109,5.084c-0.002-0.6514-0.4717-1.145-1.0488-1.145h-6.354
		c-0.5771,0-1.0469,0.4937-1.0469,1.1001l-0.6006,6.7148c-0.0244,0.2754-0.2529,0.4736-0.543,0.4531
		c-0.2749-0.0244-0.4775-0.2676-0.4531-0.543l0.5986-6.6699C6.7612,3.8809,7.6797,2.939,8.8081,2.939h6.354
		c1.1289,0,2.0469,0.9419,2.0469,2.1001l0.5977,6.6255c0.0244,0.2754-0.1787,0.5181-0.4531,0.5425
		C17.3379,12.209,17.3232,12.21,17.3076,12.21z"/>
	<path fill="none" stroke="#000000" stroke-linecap="round" stroke-linejoin="round" stroke-miterlimit="10" d="M7.341,20.4699"/>
	<path d="M6.6631,21.2607c-0.1816,0-0.3564-0.0986-0.4453-0.2715l-3.1714-6.1758c-0.2202-0.4287-0.1001-0.9492,0.2861-1.2373
		l5.959-4.4585c1.2104-0.8164,1.8662-1.2583,2.6938-1.2583c0.8271,0,1.4766,0.437,2.6533,1.2305l6,4.4863
		c0.3848,0.2881,0.5049,0.8076,0.2861,1.2363l-3.1719,6.1768c-0.125,0.2471-0.4287,0.3428-0.6729,0.2158
		c-0.2451-0.126-0.3428-0.4268-0.2158-0.6729l3.1709-6.1758l-5.9756-4.4517c-1.0986-0.7397-1.5723-1.0454-2.0742-1.0454
		s-0.9819,0.3101-2.1152,1.0732l-5.939,4.4443l3.1763,6.1553c0.126,0.2461,0.0293,0.5469-0.2163,0.6729
		C6.8179,21.2432,6.7397,21.2607,6.6631,21.2607z"/>
	<path d="M15.2461,6.3145c-0.0342,0-0.0703-0.0034-0.1055-0.0112l-1.1895-0.2578c-0.2705-0.0586-0.4414-0.3247-0.3828-0.5947
		c0.0586-0.2695,0.3223-0.4448,0.5938-0.3828l1.1895,0.2578c0.2705,0.0586,0.4414,0.3247,0.3828,0.5947
		C15.6836,6.1548,15.4766,6.3145,15.2461,6.3145z"/>
	<path d="M12.5801,6.0244h-1.1895c-0.2764,0-0.5-0.2236-0.5-0.5s0.2236-0.5,0.5-0.5h1.1895c0.2764,0,0.5,0.2236,0.5,0.5
		S12.8564,6.0244,12.5801,6.0244z"/>
	<path d="M8.7236,6.3145c-0.2305,0-0.4375-0.1597-0.4883-0.394c-0.0586-0.27,0.1128-0.5361,0.3828-0.5947l1.1895-0.2578
		c0.271-0.0581,0.5361,0.1123,0.5947,0.3828c0.0586,0.27-0.1128,0.5361-0.3828,0.5947L8.8301,6.3032
		C8.7944,6.311,8.7588,6.3145,8.7236,6.3145z"/>
	<path d="M11.4595,3.9248c-0.2764,0-0.5-0.2236-0.5-0.5V0.6016c0-0.2764,0.2236-0.5,0.5-0.5s0.5,0.2236,0.5,0.5v2.8232
		C11.9595,3.7012,11.7358,3.9248,11.4595,3.9248z"/>
	<path d="M13.4668,3.9248c-0.2764,0-0.5-0.2236-0.5-0.5V1.8325c0-0.2764,0.2236-0.5,0.5-0.5s0.5,0.2236,0.5,0.5v1.5923
		C13.9668,3.7012,13.7432,3.9248,13.4668,3.9248z"/>
	<path d="M10.2158,12.2178c-0.1621,0-0.3208-0.0781-0.417-0.2231c-0.1528-0.2305-0.0903-0.5405,0.1396-0.6934l0.5396-0.3584
		c0.231-0.1538,0.5405-0.0898,0.6934,0.1396c0.1528,0.2305,0.0903,0.5405-0.1396,0.6934l-0.5396,0.3579
		C10.4067,12.1904,10.311,12.2178,10.2158,12.2178z"/>
	<path d="M13.7549,12.2178c-0.0957,0-0.1914-0.0273-0.2764-0.084l-0.5391-0.3579c-0.2305-0.1528-0.293-0.4634-0.1396-0.6934
		c0.1523-0.2314,0.4648-0.292,0.6924-0.1396l0.5391,0.3584c0.2305,0.1528,0.293,0.4634,0.1396,0.6934
		C14.0752,12.1396,13.916,12.2178,13.7549,12.2178z"/>
	<path d="M5.9824,21.373c-0.6714,0-1.3428-0.2559-1.854-0.7666c-0.6138-0.6133-1.6816-0.6133-2.2944,0
		c-0.1953,0.1953-0.5117,0.1953-0.707,0s-0.1953-0.5117,0-0.707c0.9897-0.9893,2.7178-0.9912,3.7085,0
		c0.6328,0.6309,1.6616,0.6309,2.2944,0c0.9902-0.9912,2.7178-0.9893,3.7085,0c0.6323,0.6309,1.6616,0.6299,2.2944,0
		c0.9912-0.9912,2.7178-0.9893,3.708,0c0.6318,0.6309,1.6611,0.6309,2.2949,0c0.9902-0.9902,2.7178-0.9902,3.708,0
		c0.1953,0.1953,0.1953,0.5117,0,0.707s-0.5117,0.1953-0.707,0c-0.6123-0.6123-1.6797-0.6143-2.2939,0
		c-1.0205,1.0225-2.6846,1.0225-3.709,0c-0.6123-0.6123-1.6797-0.6143-2.2939,0c-1.0225,1.0215-2.6855,1.0225-3.7085,0
		c-0.6123-0.6133-1.6812-0.6133-2.2944,0C7.3257,21.1172,6.6538,21.373,5.9824,21.373z"/>
	<path d="M5.9824,23.7451c-0.6714,0-1.3428-0.2559-1.854-0.7666c-0.6138-0.6133-1.6816-0.6133-2.2944,0
		c-0.1953,0.1953-0.5117,0.1953-0.707,0s-0.1953-0.5117,0-0.707c0.9897-0.9893,2.7178-0.9912,3.7085,0
		c0.6328,0.6309,1.6616,0.6309,2.2944,0c0.9902-0.9912,2.7178-0.9893,3.7085,0c0.6323,0.6309,1.6616,0.6299,2.2944,0
		c0.9912-0.9902,2.7178-0.9902,3.708,0c0.6318,0.6318,1.6611,0.6318,2.2949,0c0.9902-0.9902,2.7178-0.9902,3.708,0
		c0.1953,0.1953,0.1953,0.5117,0,0.707s-0.5117,0.1953-0.707,0c-0.6123-0.6123-1.6797-0.6143-2.2939,0
		c-1.0205,1.0225-2.6846,1.0225-3.709,0c-0.6123-0.6123-1.6797-0.6143-2.2939,0c-1.0225,1.0225-2.6855,1.0225-3.7085,0
		c-0.6123-0.6133-1.6812-0.6133-2.2944,0C7.3257,23.4893,6.6538,23.7451,5.9824,23.7451z"/>
</g>
<rect x="-0.0136" y="0.0002" fill="none" width="24" height="24"/>
</svg>
