<?xml version="1.0" encoding="utf-8"?>
<!-- Generator: Adobe Illustrator 18.1.0, SVG Export Plug-In . SVG Version: 6.00 Build 0)  -->
<svg version="1.1" id="Layer_1" xmlns="http://www.w3.org/2000/svg" xmlns:xlink="http://www.w3.org/1999/xlink" x="0px" y="0px"
	 width="24px" height="24px" viewBox="0 0 24 24" enable-background="new 0 0 24 24" xml:space="preserve">
<g>
	<path d="M22.5312,21.9746h-6.5605c-0.2764,0-0.5-0.2236-0.5-0.5s0.2236-0.5,0.5-0.5h6.5605c0.2451,0,0.4453-0.2021,0.4453-0.4502
		V3.5054c0-0.2485-0.2002-0.4507-0.4453-0.4507H6.4473c-0.1968,0-0.3755-0.1157-0.4561-0.2949
		C5.6367,1.9722,5.1597,1.1846,4.939,1.0146H1.4414c-0.2456,0-0.4453,0.2021-0.4453,0.4507v19.0591
		c0,0.248,0.1997,0.4502,0.4453,0.4502h7.48c0.2764,0,0.5,0.2236,0.5,0.5s-0.2236,0.5-0.5,0.5h-7.48
		c-0.7969,0-1.4453-0.6504-1.4453-1.4502V1.4653c0-0.7998,0.6484-1.4507,1.4453-1.4507h3.5679c0.1997,0,0.7891,0,1.7578,2.04
		h15.7642c0.7969,0,1.4453,0.6509,1.4453,1.4507v17.019C23.9766,21.3242,23.3281,21.9746,22.5312,21.9746z"/>
	<path d="M23.4766,7.0254H0.4961c-0.2764,0-0.5-0.2236-0.5-0.5s0.2236-0.5,0.5-0.5h22.9805c0.2764,0,0.5,0.2236,0.5,0.5
		S23.7529,7.0254,23.4766,7.0254z"/>
	<path d="M12.4971,24.0625c-0.2764,0-0.5-0.2236-0.5-0.5V10.4121c0-0.2764,0.2236-0.5,0.5-0.5s0.5,0.2236,0.5,0.5v13.1504
		C12.9971,23.8389,12.7734,24.0625,12.4971,24.0625z"/>
	<path d="M8.9644,14.4443c-0.1279,0-0.2559-0.0488-0.3535-0.1465c-0.1953-0.1953-0.1953-0.5117,0-0.707l3.5327-3.5322
		c0.1953-0.1953,0.5117-0.1953,0.707,0l3.5322,3.5322c0.1953,0.1953,0.1953,0.5117,0,0.707s-0.5117,0.1953-0.707,0l-3.1787-3.1787
		l-3.1792,3.1787C9.2202,14.3955,9.0923,14.4443,8.9644,14.4443z"/>
</g>
<rect y="0.0001" fill="none" width="24" height="24"/>
</svg>
