<?xml version="1.0" encoding="utf-8"?>
<!-- Generator: Adobe Illustrator 18.1.0, SVG Export Plug-In . SVG Version: 6.00 Build 0)  -->
<svg version="1.1" id="Layer_1" xmlns="http://www.w3.org/2000/svg" xmlns:xlink="http://www.w3.org/1999/xlink" x="0px" y="0px"
	 width="24px" height="24px" viewBox="0 0 24 24" enable-background="new 0 0 24 24" xml:space="preserve">
<g>
	<path d="M11.9897,23.8086c-6.5103,0-11.8071-5.2969-11.8071-11.8066c0-6.5103,5.2969-11.8071,11.8071-11.8071
		S23.7969,5.4917,23.7969,12.002C23.7969,18.5117,18.5,23.8086,11.9897,23.8086z M11.9897,1.1948
		c-5.959,0-10.8071,4.8481-10.8071,10.8071s4.8481,10.8066,10.8071,10.8066c5.9595,0,10.8071-4.8477,10.8071-10.8066
		S17.9492,1.1948,11.9897,1.1948z"/>
	<path d="M11.0474,17.2461c-0.1279,0-0.2559-0.0488-0.3535-0.1465l-4.7446-4.7441c-0.0938-0.0938-0.1465-0.2207-0.1465-0.3535
		s0.0527-0.2598,0.1465-0.3535l4.7446-4.7451c0.1953-0.1953,0.5117-0.1953,0.707,0s0.1953,0.5117,0,0.707L7.0098,12.002
		l4.3911,4.3906c0.1953,0.1953,0.1953,0.5117,0,0.707C11.3032,17.1973,11.1753,17.2461,11.0474,17.2461z"/>
	<path d="M17.7842,12.502H6.3027c-0.2764,0-0.5-0.2236-0.5-0.5s0.2236-0.5,0.5-0.5h11.4814c0.2764,0,0.5,0.2236,0.5,0.5
		S18.0605,12.502,17.7842,12.502z"/>
</g>
<rect x="-0.0086" y="-0.0147" fill="none" width="24" height="24"/>
</svg>
