<?xml version="1.0" encoding="utf-8"?>
<!-- Generator: Adobe Illustrator 18.1.0, SVG Export Plug-In . SVG Version: 6.00 Build 0)  -->
<svg version="1.1" id="Layer_1" xmlns="http://www.w3.org/2000/svg" xmlns:xlink="http://www.w3.org/1999/xlink" x="0px" y="0px"
	 width="24px" height="24px" viewBox="0 0 24 24" enable-background="new 0 0 24 24" xml:space="preserve">
<g>
	<path d="M18.1377,24H5.8682c-1.5801,0-2.8652-1.2852-2.8652-2.8652V2.8652C3.0029,1.2852,4.2881,0,5.8682,0h12.2695
		c1.5801,0,2.8652,1.2852,2.8652,2.8652v18.2695C21.0029,22.7148,19.7178,24,18.1377,24z M5.8682,1
		C4.8398,1,4.0029,1.8369,4.0029,2.8652v18.2695C4.0029,22.1631,4.8398,23,5.8682,23h12.2695c1.0283,0,1.8652-0.8369,1.8652-1.8652
		V2.8652C20.0029,1.8369,19.166,1,18.1377,1H5.8682z"/>
	<path d="M16.4805,7h-5.9561c-0.2764,0-0.5-0.2236-0.5-0.5s0.2236-0.5,0.5-0.5h5.9561c0.2764,0,0.5,0.2236,0.5,0.5
		S16.7568,7,16.4805,7z"/>
	<path d="M14.4746,9h-3.9502c-0.2764,0-0.5-0.2236-0.5-0.5s0.2236-0.5,0.5-0.5h3.9502c0.2764,0,0.5,0.2236,0.5,0.5
		S14.751,9,14.4746,9z"/>
	<path d="M7.501,24c-0.2764,0-0.5-0.2236-0.5-0.5v-23c0-0.2764,0.2236-0.5,0.5-0.5s0.5,0.2236,0.5,0.5v23
		C8.001,23.7764,7.7773,24,7.501,24z"/>
</g>
<rect fill="none" width="24" height="24"/>
</svg>
