<?xml version="1.0" encoding="utf-8"?>
<!-- Generator: Adobe Illustrator 18.1.0, SVG Export Plug-In . SVG Version: 6.00 Build 0)  -->
<svg version="1.1" id="Layer_1" xmlns="http://www.w3.org/2000/svg" xmlns:xlink="http://www.w3.org/1999/xlink" x="0px" y="0px"
	 width="24px" height="24px" viewBox="0 0 24 24" enable-background="new 0 0 24 24" xml:space="preserve">
<g>
	<path d="M2.0605,9.6348c-0.2637,0-0.4839-0.2061-0.4985-0.4727C1.5322,8.6245,1.5283,7.9756,1.5493,7.1782
		C1.7275,0.4375,8.019,0.2007,8.0825,0.1987c1.1289-0.0234,2.0259,0.3955,2.6309,1.2046c1.3579,1.8164,0.9619,5.2485,0.2095,7.6357
		c-0.083,0.2637-0.3618,0.4087-0.6274,0.3267c-0.2632-0.083-0.4097-0.3638-0.3267-0.6274c0.7354-2.332,1.0029-5.3198-0.0566-6.7358
		c-0.415-0.5562-0.9932-0.8174-1.8076-0.8037C7.8882,1.2051,2.7017,1.4243,2.5493,7.2046c-0.0205,0.77-0.0171,1.3926,0.0107,1.9028
		c0.0156,0.2754-0.1958,0.5112-0.4717,0.5264C2.0791,9.6348,2.0698,9.6348,2.0605,9.6348z"/>
	<path d="M5.9795,21.5918c-2.1743,0-2.9238-1.6123-3.0142-2.499c-0.0498-1.1387-0.1074-2.0771-0.1709-2.875
		c-0.022-0.2754,0.1836-0.5166,0.459-0.5381c0.271-0.0195,0.5156,0.1836,0.5381,0.458c0.0645,0.8096,0.1221,1.7598,0.1709,2.8828
		c0.0176,0.1426,0.2461,1.665,2.2251,1.5654c2.6543-0.1523,3.1118-0.6055,3.1382-1.8896c0.0098-0.4707-0.0669-1.1045-0.1553-1.8389
		c-0.061-0.5049-0.127-1.0527-0.1748-1.6279c-0.0234-0.2754,0.1812-0.5176,0.4565-0.54c0.2817-0.0195,0.5166,0.1816,0.5396,0.4561
		c0.0474,0.5635,0.1118,1.0986,0.1714,1.5928c0.0933,0.7715,0.1733,1.4375,0.1626,1.9785
		c-0.0503,2.4375-1.8779,2.7402-4.0806,2.8672C6.1543,21.5889,6.0654,21.5918,5.9795,21.5918z"/>
	<path d="M3.9966,15.4639c-0.1372,0-0.2734-0.0557-0.3721-0.166C3.52,15.1807,1.0781,12.418,2.1582,10.1284
		c0.998-2.1162,4.0093-4.1558,4.1372-4.2417c0.21-0.1416,0.4937-0.103,0.6582,0.0894l2.812,3.2725
		c0.0137,0.0093,1.1538,1.1108,1.064,2.6709c-0.0635,1.0981-0.707,2.1138-1.9131,3.02c-0.2197,0.1689-0.5332,0.1211-0.7002-0.0986
		c-0.1655-0.2217-0.1211-0.5342,0.0996-0.7002c0.96-0.7217,1.4697-1.4883,1.5151-2.2783c0.0625-1.085-0.7808-1.9175-0.7891-1.9253
		L6.4927,6.9736C5.686,7.5654,3.7549,9.0874,3.0625,10.5552c-0.6636,1.4072,0.7178,3.4185,1.3062,4.0747
		c0.1846,0.2061,0.1675,0.5215-0.0381,0.7061C4.2349,15.4219,4.1157,15.4639,3.9966,15.4639z"/>
	<path d="M6.5737,6.8018c-0.0732,0-0.1475-0.0161-0.2178-0.0503c-0.2485-0.1206-0.3521-0.4199-0.2314-0.668l1.0503-2.1621
		c0.1206-0.248,0.4189-0.3525,0.668-0.2314c0.2485,0.1206,0.3521,0.4199,0.2314,0.668L7.0239,6.52
		C6.9375,6.6982,6.7593,6.8018,6.5737,6.8018z"/>
	<path d="M21.9385,11.8755c-0.0088,0-0.0186-0.0005-0.0283-0.001c-0.2754-0.0156-0.4863-0.252-0.4707-0.5273
		c0.0283-0.5005,0.0322-1.1226,0.0117-1.9023c-0.1533-5.8027-5.3389-6.001-5.5596-6.0063c-0.8203-0.0146-1.3936,0.251-1.8086,0.8105
		c-1.0664,1.4355-0.7588,4.542-0.0225,6.8208c0.085,0.2627-0.0586,0.5444-0.3223,0.6294c-0.2607,0.085-0.5439-0.0591-0.6289-0.3218
		c-0.7783-2.4087-1.2012-5.877,0.1699-7.7246c0.6045-0.8154,1.4805-1.2388,2.6348-1.2144c0.0664,0.002,6.3584,0.2393,6.5371,6.98
		c0.0205,0.8076,0.0166,1.457-0.0137,1.9854C22.4229,11.6699,22.2021,11.8755,21.9385,11.8755z"/>
	<path d="M18.0195,23.832c-0.0859,0-0.1738-0.0029-0.2646-0.0078c-2.2031-0.127-4.0303-0.4297-4.0801-2.8672
		c-0.0107-0.542,0.0693-1.21,0.1621-1.9834c0.0596-0.4922,0.124-1.0264,0.1709-1.5879c0.0225-0.2754,0.2764-0.4688,0.54-0.4561
		c0.2744,0.0225,0.4795,0.2646,0.4561,0.54c-0.0479,0.5742-0.1133,1.1201-0.1738,1.624c-0.0889,0.7354-0.165,1.3711-0.1553,1.8428
		c0.0264,1.2842,0.4834,1.7363,3.1367,1.8896c2.0439,0.1006,2.2207-1.5254,2.2285-1.5947c0.0469-1.0938,0.1045-2.0439,0.1689-2.8525
		c0.0215-0.2754,0.2861-0.4727,0.5371-0.459c0.2754,0.0215,0.4814,0.2617,0.459,0.5371c-0.0625,0.7988-0.1201,1.7373-0.168,2.8467
		C20.9443,22.2188,20.1943,23.832,18.0195,23.832z"/>
	<path d="M20.0039,17.7041c-0.1182,0-0.2373-0.042-0.333-0.1279c-0.2061-0.1836-0.2236-0.5-0.04-0.7051
		c0.0215-0.0244,2.1025-2.3867,1.3066-4.0762c-0.6943-1.4697-2.623-2.9897-3.4297-3.5811l-2.5156,2.9268
		c-0.042,0.043-0.8906,0.877-0.8232,1.9697c0.0488,0.7881,0.5586,1.5518,1.5156,2.2705c0.2207,0.166,0.2646,0.4785,0.0986,0.7002
		c-0.165,0.2197-0.4766,0.2666-0.7002,0.0986c-1.2061-0.9062-1.8496-1.9219-1.9131-3.0195
		c-0.0898-1.5605,1.0508-2.6621,1.0986-2.7085l2.7783-3.2354c0.165-0.1924,0.4473-0.23,0.6582-0.0894
		c0.127,0.0859,3.1387,2.126,4.1367,4.2412c1.0791,2.29-1.3613,5.0527-1.4658,5.1699
		C20.2773,17.6475,20.1406,17.7041,20.0039,17.7041z"/>
	<path d="M17.4258,9.042c-0.1914,0-0.374-0.1108-0.457-0.2974l-0.9922-2.2402c-0.1123-0.2524,0.002-0.5479,0.2549-0.6597
		c0.249-0.1108,0.5469,0.001,0.6592,0.2544l0.9922,2.2402c0.1123,0.2524-0.002,0.5479-0.2549,0.6597
		C17.5625,9.0283,17.4941,9.042,17.4258,9.042z"/>
</g>
<rect y="0.0354" fill="none" width="24" height="24"/>
</svg>
