<?xml version="1.0" encoding="utf-8"?>
<!-- Generator: Adobe Illustrator 18.1.0, SVG Export Plug-In . SVG Version: 6.00 Build 0)  -->
<svg version="1.1" id="Layer_1" xmlns="http://www.w3.org/2000/svg" xmlns:xlink="http://www.w3.org/1999/xlink" x="0px" y="0px"
	 width="24px" height="24px" viewBox="0 0 24 24" enable-background="new 0 0 24 24" xml:space="preserve">
<g>
	<path d="M11.9912,21.0273c-0.1685,0-0.3252-0.085-0.4175-0.2256c-0.2656-0.4033-6.5015-9.9209-6.5015-13.5737
		c0-3.8149,3.104-6.9189,6.9189-6.9189c3.8154,0,6.9189,3.104,6.9189,6.9189c0,3.6528-6.2354,13.1704-6.501,13.5737
		C12.3164,20.9424,12.1592,21.0273,11.9912,21.0273z M11.9912,1.3091c-3.2637,0-5.9189,2.6553-5.9189,5.9189
		c0,2.8438,4.5063,10.1538,5.9189,12.3755c1.4131-2.2217,5.9189-9.5317,5.9189-12.3755
		C17.9102,3.9644,15.2549,1.3091,11.9912,1.3091z"/>
	<path d="M11.9912,9.0083c-1.3682,0-2.4814-1.1133-2.4814-2.4814s1.1133-2.4814,2.4814-2.4814s2.4814,1.1133,2.4814,2.4814
		S13.3594,9.0083,11.9912,9.0083z M11.9912,5.0454c-0.8169,0-1.4814,0.6646-1.4814,1.4814s0.6646,1.4814,1.4814,1.4814
		c0.8164,0,1.4814-0.6646,1.4814-1.4814S12.8076,5.0454,11.9912,5.0454z"/>
	<path d="M11.9907,23.793c-3.2603,0-6.561-0.8955-6.561-2.6084c0-1.0498,1.2827-1.9004,3.52-2.333
		c0.2666-0.0508,0.5332,0.125,0.5854,0.3965c0.0527,0.2705-0.1245,0.5332-0.396,0.5859c-1.9736,0.3818-2.7095,1.0312-2.7095,1.3506
		c0,0.6406,2.2178,1.6084,5.561,1.6084s5.562-0.9678,5.562-1.6084c0-0.3174-0.7285-0.9629-2.6846-1.3467
		c-0.2715-0.0527-0.4482-0.3154-0.3945-0.5859c0.0518-0.2725,0.3184-0.4512,0.5859-0.3945
		c2.2197,0.4346,3.4932,1.2832,3.4932,2.3271C18.5527,22.8975,15.252,23.793,11.9907,23.793z"/>
</g>
<rect x="-0.0137" y="0.0001" fill="none" width="24" height="24"/>
</svg>
