<?xml version="1.0" encoding="utf-8"?>
<!-- Generator: Adobe Illustrator 18.1.0, SVG Export Plug-In . SVG Version: 6.00 Build 0)  -->
<svg version="1.1" id="Layer_1" xmlns="http://www.w3.org/2000/svg" xmlns:xlink="http://www.w3.org/1999/xlink" x="0px" y="0px"
	 width="24px" height="24px" viewBox="0 0 24 24" enable-background="new 0 0 24 24" xml:space="preserve">
<g>
	<path d="M7.665,20.9727c-0.1328,0-0.2598-0.0527-0.3535-0.1465l-4.0693-4.0693c-0.0938-0.0938-0.1465-0.2207-0.1465-0.3535
		s0.0527-0.2598,0.1465-0.3535L14.0273,5.2646c0.1953-0.1953,0.5117-0.1953,0.707,0l4.0693,4.0688
		c0.1953,0.1953,0.1953,0.5117,0,0.707L8.0186,20.8262C7.9248,20.9199,7.7979,20.9727,7.665,20.9727z M4.3027,16.4033l3.3623,3.3623
		L17.7432,9.687l-3.3623-3.3618L4.3027,16.4033z"/>
	<path d="M16.416,8.1528c-0.1279,0-0.2559-0.0488-0.3535-0.1465c-0.1953-0.1953-0.1953-0.5117,0-0.707l5.4609-5.4614
		c0.1953-0.1953,0.5117-0.1953,0.707,0s0.1953,0.5117,0,0.707l-5.4609,5.4614C16.6719,8.104,16.5439,8.1528,16.416,8.1528z"/>
	<path d="M13.0977,9.4365c-0.1279,0-0.2559-0.0488-0.3535-0.1465l-1.0176-1.0171c-0.1953-0.1953-0.1953-0.5117,0-0.707
		s0.5117-0.1953,0.707,0l1.0176,1.0171c0.1953,0.1953,0.1953,0.5117,0,0.707C13.3535,9.3877,13.2256,9.4365,13.0977,9.4365z"/>
	<path d="M12.7217,11.8467c-0.1279,0-0.2559-0.0488-0.3535-0.1465l-2.0347-2.0347c-0.1953-0.1953-0.1953-0.5117,0-0.707
		s0.5117-0.1953,0.707,0l2.0347,2.0347c0.1953,0.1953,0.1953,0.5117,0,0.707C12.9775,11.7979,12.8496,11.8467,12.7217,11.8467z"/>
	<path d="M10.3115,12.2227c-0.1279,0-0.2559-0.0488-0.3535-0.1465l-1.0171-1.0176c-0.1953-0.1953-0.1953-0.5117,0-0.707
		s0.5117-0.1953,0.707,0l1.0171,1.0171c0.1953,0.1953,0.1953,0.5117,0,0.7075C10.5674,12.1738,10.4395,12.2227,10.3115,12.2227z"/>
	<path d="M9.936,14.6318c-0.1279,0-0.2559-0.0488-0.3535-0.1465l-2.0347-2.0342c-0.1953-0.1953-0.1953-0.5117,0-0.707
		s0.5117-0.1953,0.707,0l2.0347,2.0342c0.1953,0.1953,0.1953,0.5117,0,0.707C10.1919,14.583,10.064,14.6318,9.936,14.6318z"/>
	<path d="M7.5259,15.0078c-0.1279,0-0.2559-0.0488-0.3535-0.1465l-1.0176-1.0176c-0.1953-0.1953-0.1953-0.5117,0-0.707
		s0.5117-0.1953,0.707,0l1.0176,1.0176c0.1953,0.1953,0.1953,0.5117,0,0.707C7.7817,14.959,7.6538,15.0078,7.5259,15.0078z"/>
	<path d="M7.1499,17.418c-0.1279,0-0.2559-0.0488-0.3535-0.1465l-2.0342-2.0342c-0.1953-0.1953-0.1953-0.5117,0-0.707
		s0.5117-0.1953,0.707,0l2.0342,2.0342c0.1953,0.1953,0.1953,0.5117,0,0.707C7.4058,17.3691,7.2778,17.418,7.1499,17.418z"/>
	<path d="M4.6758,23.9609c-0.1279,0-0.2559-0.0488-0.3535-0.1465l-4.0688-4.0684c-0.1953-0.1953-0.1953-0.5117,0-0.707
		s0.5117-0.1953,0.707,0l4.0688,4.0684c0.1953,0.1953,0.1953,0.5117,0,0.707C4.9316,23.9121,4.8037,23.9609,4.6758,23.9609z"/>
	<path d="M3.6284,22.9131c-0.1279,0-0.2559-0.0488-0.3535-0.1465l-1.9731-1.9727c-0.0938-0.0938-0.1465-0.2207-0.1465-0.3535
		s0.0527-0.2598,0.1465-0.3535l2.9888-2.9893c0.1953-0.1953,0.5117-0.1953,0.707,0l1.9731,1.9727
		c0.0938,0.0938,0.1465,0.2207,0.1465,0.3535s-0.0527,0.2598-0.1465,0.3535l-2.9888,2.9893
		C3.8843,22.8643,3.7563,22.9131,3.6284,22.9131z M2.3623,20.4404l1.2661,1.2656l2.2817-2.2822L4.644,18.1582L2.3623,20.4404z"/>
	<path d="M21.877,12.2295c-1.1006,0-1.9961-0.8955-1.9961-1.9961c0-0.478,1.3271-3.6841,1.9961-3.6841s1.9951,3.2061,1.9951,3.6841
		C23.8721,11.334,22.9775,12.2295,21.877,12.2295z M21.877,7.9976c-0.4199,0.7324-0.9961,1.8423-0.9961,2.2358
		c0,0.5493,0.4473,0.9961,0.9961,0.9961s0.9951-0.4468,0.9951-0.9961C22.8721,9.834,22.2988,8.729,21.877,7.9976z"/>
</g>
<rect x="0.0142" y="0.0346" fill="none" width="24" height="24"/>
</svg>
