<?xml version="1.0" encoding="utf-8"?>
<!-- Generator: Adobe Illustrator 18.1.0, SVG Export Plug-In . SVG Version: 6.00 Build 0)  -->
<svg version="1.1" id="Layer_1" xmlns="http://www.w3.org/2000/svg" xmlns:xlink="http://www.w3.org/1999/xlink" x="0px" y="0px"
	 width="24px" height="24px" viewBox="0 0 24 24" enable-background="new 0 0 24 24" xml:space="preserve">
<g>
	<path d="M5.417,23.0225c-0.2432,0-0.4868-0.0771-0.6973-0.2314c-0.4121-0.3018-0.5811-0.8105-0.4316-1.2969l2.0776-6.793
		L0.645,10.4087c-0.4082-0.3076-0.5703-0.8193-0.4136-1.3052c0.1562-0.4854,0.5869-0.8062,1.0962-0.8169l7.1909-0.1455
		l2.3589-6.7134c0.1675-0.4785,0.6045-0.7881,1.1133-0.7881c0.5073,0,0.9438,0.3091,1.1118,0.7881l2.3584,6.7134l7.1904,0.1455
		c0.5107,0.0107,0.9404,0.332,1.0977,0.8179c0.1562,0.4854-0.0068,0.9976-0.4141,1.3042l-3.9531,2.9409
		c-0.2207,0.1631-0.5342,0.1201-0.7002-0.1025c-0.165-0.2217-0.1182-0.5352,0.1025-0.7002l3.9512-2.9395
		c0.083-0.0615,0.0791-0.1411,0.0615-0.1963c-0.0146-0.0454-0.0557-0.1221-0.166-0.1245l-7.5361-0.1528
		c-0.209-0.0044-0.3926-0.1377-0.4619-0.3345l-2.4736-7.0405c-0.0635-0.1802-0.2578-0.23-0.3384-0.0005l-2.4736,7.041
		C9.2783,8.9961,9.0942,9.1294,8.8857,9.1338L1.3486,9.2866c-0.1099,0.0024-0.1509,0.0786-0.1655,0.124
		C1.165,9.4663,1.1616,9.5459,1.2461,9.6094l6.0005,4.502c0.1685,0.127,0.2393,0.3457,0.1777,0.5469l-2.1802,7.1289
		c-0.0308,0.1006,0.0186,0.1621,0.0659,0.1963c0.0396,0.0293,0.1177,0.0674,0.2061,0.0049l5.6641-3.9004
		c0.23-0.1553,0.5396-0.0986,0.6953,0.1289c0.1567,0.2275,0.0996,0.5381-0.1279,0.6953l-5.6631,3.8994
		C5.8809,22.9521,5.6489,23.0225,5.417,23.0225z"/>
	<path d="M17.541,22.9248c-0.2764,0-0.5-0.2236-0.5-0.5v-7.8467c0-0.2764,0.2236-0.5,0.5-0.5s0.5,0.2236,0.5,0.5v7.8467
		C18.041,22.7012,17.8174,22.9248,17.541,22.9248z"/>
	<path d="M21.4648,19.001h-7.8467c-0.2764,0-0.5-0.2236-0.5-0.5s0.2236-0.5,0.5-0.5h7.8467c0.2764,0,0.5,0.2236,0.5,0.5
		S21.7412,19.001,21.4648,19.001z"/>
</g>
<rect x="0.0293" y="-0.0001" fill="none" width="24" height="24"/>
</svg>
