<?xml version="1.0" encoding="utf-8"?>
<!-- Generator: Adobe Illustrator 18.1.0, SVG Export Plug-In . SVG Version: 6.00 Build 0)  -->
<svg version="1.1" id="Layer_1" xmlns="http://www.w3.org/2000/svg" xmlns:xlink="http://www.w3.org/1999/xlink" x="0px" y="0px"
	 width="24px" height="24px" viewBox="0 0 24 24" enable-background="new 0 0 24 24" xml:space="preserve">
<g>
	<path d="M14.2031,22.3936c-0.2686,0-0.4902-0.2129-0.5-0.4824c-0.0098-0.2764,0.207-0.5078,0.4824-0.5176
		c3.582-0.125,4.833-1.1592,4.958-4.0977c0.0117-0.2754,0.1934-0.4785,0.5215-0.4785c0.2754,0.0117,0.4902,0.2451,0.4785,0.5215
		c-0.1719,4.0293-2.4922,4.9346-5.9229,5.0547C14.2148,22.3936,14.209,22.3936,14.2031,22.3936z"/>
	<path d="M13.5361,23.0811h-1.4248c-0.6431,0-1.1665-0.5234-1.1665-1.166c0-0.6436,0.5234-1.167,1.1665-1.167h1.4248
		c0.6436,0,1.167,0.5234,1.167,1.167C14.7031,22.5576,14.1797,23.0811,13.5361,23.0811z M12.1113,21.748
		c-0.0918,0-0.1665,0.0752-0.1665,0.167s0.0747,0.166,0.1665,0.166h1.4248c0.0918,0,0.167-0.0742,0.167-0.166
		s-0.0752-0.167-0.167-0.167H12.1113z"/>
	<path d="M6.4717,17.9951h-1.332C3.96,17.9951,3,17.1611,3,16.1357v-4.2866c0-1.0249,0.96-1.8589,2.1396-1.8589h1.332
		c0.2764,0,0.5,0.2236,0.5,0.5v7.0049C6.9717,17.7715,6.748,17.9951,6.4717,17.9951z M5.1396,10.9902
		C4.522,10.9902,4,11.3838,4,11.8491v4.2866c0,0.4658,0.522,0.8594,1.1396,0.8594h0.832v-6.0049H5.1396z"/>
	<path d="M18.833,17.9951h-1.332c-0.2764,0-0.5-0.2236-0.5-0.5v-7.0049c0-0.2764,0.2236-0.5,0.5-0.5h1.332
		c1.1797,0,2.1396,0.834,2.1396,1.8589v4.2866C20.9727,17.1611,20.0127,17.9951,18.833,17.9951z M18.001,16.9951h0.832
		c0.6182,0,1.1396-0.3936,1.1396-0.8594v-4.2866c0-0.4653-0.5215-0.8589-1.1396-0.8589h-0.832V16.9951z"/>
	<path d="M18.4834,10.9902c-0.2764,0-0.5-0.2236-0.5-0.5V8.0664c0-3.3052-2.6895-5.9941-5.9946-5.9941s-5.9941,2.689-5.9941,5.9941
		v2.4238c0,0.2764-0.2236,0.5-0.5,0.5s-0.5-0.2236-0.5-0.5V8.0664c0-3.8564,3.1377-6.9941,6.9941-6.9941
		c3.8569,0,6.9946,3.1377,6.9946,6.9941v2.4238C18.9834,10.7666,18.7598,10.9902,18.4834,10.9902z"/>
</g>
<rect fill="none" width="24" height="24"/>
</svg>
