<?xml version="1.0" encoding="utf-8"?>
<!-- Generator: Adobe Illustrator 18.1.0, SVG Export Plug-In . SVG Version: 6.00 Build 0)  -->
<svg version="1.1" id="Layer_1" xmlns="http://www.w3.org/2000/svg" xmlns:xlink="http://www.w3.org/1999/xlink" x="0px" y="0px"
	 width="24px" height="24px" viewBox="0 0 24 24" enable-background="new 0 0 24 24" xml:space="preserve">
<g>
	<path d="M8.7822,24.0342H7.7852c-0.1709,0-0.3301-0.0869-0.4219-0.2314c-0.0918-0.1436-0.1035-0.3252-0.0312-0.4795l4.249-9.1211
		l-5.3516-0.3994l-2.3037,2.5791c-0.0952,0.1064-0.2305,0.167-0.373,0.167c0,0,0,0-0.0005,0l-1.9097-0.001
		c-0.1797,0-0.3452-0.0967-0.4341-0.2529s-0.0869-0.3477,0.0049-0.5029l2.3677-3.9814L1.2207,8.1987
		C1.1201,8.0454,1.1118,7.8486,1.1992,7.6875c0.0874-0.1616,0.2563-0.2622,0.4399-0.2622h1.9126c0.1426,0,0.2778,0.0605,0.373,0.167
		l2.3042,2.5786l5.3496-0.397L7.3315,0.7012c-0.0728-0.1548-0.061-0.3359,0.0308-0.48c0.0918-0.1445,0.2505-0.2319,0.4214-0.2319
		l0.9985-0.0005c1.0137,0.0015,1.248,0.2783,5.1582,4.9048c1.0186,1.2056,2.2959,2.7168,3.9131,4.6113l0.0625,0.0044
		c1.8379,0.1235,4.9141,0.3301,4.915,2.5015c-0.001,2.1924-3.168,2.3926-4.8701,2.5l-0.1084,0.0068
		c-1.627,1.9062-2.9092,3.4238-3.9307,4.6328C10.0278,23.7588,9.7944,24.0342,8.7822,24.0342z M8.5698,23.0342h0.2124
		c0.5327,0,0.8721-0.3838,4.375-4.5273c1.0508-1.2441,2.3779-2.8145,4.0723-4.7979c0.0869-0.1016,0.2109-0.1641,0.3438-0.1738
		l0.332-0.0215c1.2744-0.082,3.9248-0.252,3.9258-1.5029c-0.001-1.2363-2.5908-1.4106-3.9814-1.5039l-0.2754-0.019
		c-0.1338-0.0093-0.2578-0.0718-0.3447-0.1738c-1.6836-1.9712-3.0049-3.5347-4.0527-4.7749
		C9.6572,1.375,9.3159,0.9897,8.7817,0.9888H8.5703l4.2217,9.0181c0.0693,0.1489,0.0615,0.3228-0.0215,0.4644
		c-0.083,0.1421-0.2305,0.2339-0.3945,0.2461l-6.3184,0.4692c-0.1616,0.0127-0.3071-0.0493-0.4102-0.1655L3.3281,8.4253H2.5635
		l2.0254,3.0991c0.1045,0.1597,0.1089,0.3647,0.0112,0.5293L2.522,15.5479l0.8071,0.001l2.3188-2.5957
		c0.103-0.1152,0.2529-0.1807,0.4102-0.166l6.3188,0.4707c0.1641,0.0127,0.3115,0.1045,0.3945,0.2461s0.0908,0.3154,0.0215,0.4639
		L8.5698,23.0342z"/>
</g>
<rect x="-0.0137" y="0.0002" fill="none" width="24" height="24"/>
</svg>
