<?xml version="1.0" encoding="utf-8"?>
<!-- Generator: Adobe Illustrator 18.1.0, SVG Export Plug-In . SVG Version: 6.00 Build 0)  -->
<svg version="1.1" id="Layer_1" xmlns="http://www.w3.org/2000/svg" xmlns:xlink="http://www.w3.org/1999/xlink" x="0px" y="0px"
	 width="24px" height="24px" viewBox="0 0 24 24" enable-background="new 0 0 24 24" xml:space="preserve">
<g>
	<path d="M11.5117,23.6533c-0.0459,0-0.0923-0.0059-0.1387-0.0195c-0.2651-0.0762-0.4185-0.3535-0.3423-0.6191
		c0.0112-0.0391,1.1284-3.9805,0.4136-6.2686c-0.7808-2.498-0.8535-4.8071-0.8564-4.9038c-0.002-0.0713,0.0112-0.1416,0.0386-0.207
		c0.0542-0.1299,1.3574-3.1865,3.8911-4.123c2.2471-0.8306,4.3447-2.5708,4.3662-2.5884c0.209-0.1768,0.5264-0.1494,0.7041,0.063
		c0.1768,0.2119,0.1484,0.5273-0.0635,0.7041c-0.0898,0.0762-2.248,1.8677-4.6602,2.7593
		c-1.9023,0.7031-3.0415,2.9761-3.2715,3.4741c0.0244,0.481,0.1611,2.4595,0.8057,4.5229c0.8047,2.5762-0.3564,6.6709-0.4067,6.8447
		C11.9287,23.5107,11.7285,23.6533,11.5117,23.6533z"/>
	<path d="M6.7817,14.3984c-4.5283,0-6.3467-6.8901-6.4219-7.1836c-0.0347-0.1343-0.0112-0.2773,0.064-0.3945
		c0.0747-0.1167,0.1953-0.1973,0.332-0.2217C0.8193,6.5874,2.332,6.3198,4.2183,6.3198c3.959,0,6.4399,1.1665,7.1758,3.373
		c0.0205,0.061,0.0288,0.125,0.0249,0.189c-0.0645,1.043,0.1377,1.7671,0.1475,1.8008c0.0083,0.0278,0.0146,0.0566,0.0181,0.0859
		c0.019,0.1611-0.041,0.3213-0.1616,0.4307C9.8047,13.6582,8.2437,14.3984,6.7817,14.3984z M1.4888,7.501
		c0.501,1.5435,2.1885,5.8975,5.293,5.8975c1.145,0,2.4062-0.5879,3.7524-1.749c-0.1299-0.5947-0.124-1.4263-0.1167-1.7207
		C9.2598,6.7607,3.3394,7.2603,1.4888,7.501z"/>
	<path d="M16.3066,13.8418c-0.001,0-0.001,0-0.002,0c-1.5654,0-3.3965-0.5283-5.4434-1.5684
		c-0.1216-0.0615-0.2129-0.1699-0.2524-0.3013c-0.0107-0.0361-0.2656-0.8994-0.188-2.1519c0.1685-2.731,1.9395-7.585,11.9014-9.4121
		c0.1338-0.0229,0.2783,0.0078,0.3896,0.0913c0.1113,0.084,0.1836,0.21,0.1973,0.3486c0.0322,0.3115,0.7568,7.6733-2.4062,11.1802
		C19.418,13.2314,18.0068,13.8418,16.3066,13.8418z M11.52,11.4854c1.8208,0.9004,3.4292,1.3564,4.7856,1.3564c0,0,0,0,0.001,0
		c1.4238,0,2.5537-0.4844,3.4531-1.4819c2.4014-2.6611,2.2969-8.1221,2.1953-9.8628c-8.8105,1.772-10.3887,5.9941-10.5361,8.3848
		C11.3735,10.6187,11.4614,11.1978,11.52,11.4854z"/>
	<path d="M11.0884,12.3281c-0.1426,0-0.2842-0.0605-0.3828-0.1787c-0.9854-1.1694-4.0688-1.6011-5.1743-1.6689
		c-0.2754-0.0166-0.4854-0.2539-0.4683-0.5298c0.0171-0.2754,0.2461-0.4766,0.5298-0.4683
		c0.1797,0.0107,4.4175,0.2896,5.8774,2.0229c0.1782,0.2114,0.1509,0.5269-0.0601,0.7046
		C11.3164,12.2891,11.2017,12.3281,11.0884,12.3281z"/>
	<path d="M11.5117,23.6533c-0.0459,0-0.0923-0.0059-0.1387-0.0195c-0.2651-0.0762-0.4185-0.3535-0.3423-0.6191
		c0.0112-0.0391,1.1284-3.9805,0.4136-6.2686c-0.7808-2.498-0.8535-4.8071-0.8564-4.9038c-0.002-0.0713,0.0112-0.1416,0.0386-0.207
		c0.0542-0.1299,1.3574-3.1865,3.8911-4.123c2.2471-0.8306,4.3447-2.5708,4.3662-2.5884c0.209-0.1768,0.5264-0.1494,0.7041,0.063
		c0.1768,0.2119,0.1484,0.5273-0.0635,0.7041c-0.0898,0.0762-2.248,1.8677-4.6602,2.7593
		c-1.9023,0.7031-3.0415,2.9761-3.2715,3.4741c0.0244,0.481,0.1611,2.4595,0.8057,4.5229c0.8047,2.5762-0.3564,6.6709-0.4067,6.8447
		C11.9287,23.5107,11.7285,23.6533,11.5117,23.6533z"/>
	<path d="M6.7817,14.3984c-4.5283,0-6.3467-6.8901-6.4219-7.1836c-0.0347-0.1343-0.0112-0.2773,0.064-0.3945
		c0.0747-0.1167,0.1953-0.1973,0.332-0.2217C0.8193,6.5874,2.332,6.3198,4.2183,6.3198c3.959,0,6.4399,1.1665,7.1758,3.373
		c0.0205,0.061,0.0288,0.125,0.0249,0.189c-0.0645,1.043,0.1377,1.7671,0.1475,1.8008c0.0083,0.0278,0.0146,0.0566,0.0181,0.0859
		c0.019,0.1611-0.041,0.3213-0.1616,0.4307C9.8047,13.6582,8.2437,14.3984,6.7817,14.3984z M1.4888,7.501
		c0.501,1.5435,2.1885,5.8975,5.293,5.8975c1.145,0,2.4062-0.5879,3.7524-1.749c-0.1299-0.5947-0.124-1.4263-0.1167-1.7207
		C9.2598,6.7607,3.3394,7.2603,1.4888,7.501z"/>
	<path d="M16.3066,13.8418c-0.001,0-0.001,0-0.002,0c-1.5654,0-3.3965-0.5283-5.4434-1.5684
		c-0.1216-0.0615-0.2129-0.1699-0.2524-0.3013c-0.0107-0.0361-0.2656-0.8994-0.188-2.1519c0.1685-2.731,1.9395-7.585,11.9014-9.4121
		c0.1338-0.0229,0.2783,0.0078,0.3896,0.0913c0.1113,0.084,0.1836,0.21,0.1973,0.3486c0.0322,0.3115,0.7568,7.6733-2.4062,11.1802
		C19.418,13.2314,18.0068,13.8418,16.3066,13.8418z M11.52,11.4854c1.8208,0.9004,3.4292,1.3564,4.7856,1.3564c0,0,0,0,0.001,0
		c1.4238,0,2.5537-0.4844,3.4531-1.4819c2.4014-2.6611,2.2969-8.1221,2.1953-9.8628c-8.8105,1.772-10.3887,5.9941-10.5361,8.3848
		C11.3735,10.6187,11.4614,11.1978,11.52,11.4854z"/>
	<path d="M11.0884,12.3281c-0.1426,0-0.2842-0.0605-0.3828-0.1787c-0.9854-1.1694-4.0688-1.6011-5.1743-1.6689
		c-0.2754-0.0166-0.4854-0.2539-0.4683-0.5298c0.0171-0.2754,0.2461-0.4766,0.5298-0.4683
		c0.1797,0.0107,4.4175,0.2896,5.8774,2.0229c0.1782,0.2114,0.1509,0.5269-0.0601,0.7046
		C11.3164,12.2891,11.2017,12.3281,11.0884,12.3281z"/>
</g>
<rect y="-0.0147" fill="none" width="24" height="24"/>
</svg>
