<?xml version="1.0" encoding="utf-8"?>
<!-- Generator: Adobe Illustrator 18.1.0, SVG Export Plug-In . SVG Version: 6.00 Build 0)  -->
<svg version="1.1" id="Layer_1" xmlns="http://www.w3.org/2000/svg" xmlns:xlink="http://www.w3.org/1999/xlink" x="0px" y="0px"
	 width="24px" height="24px" viewBox="0 0 24 24" enable-background="new 0 0 24 24" xml:space="preserve">
<g>
	<path d="M16.4863,24h-9c-0.2764,0-0.5-0.2236-0.5-0.5v-9c0-0.2764,0.2236-0.5,0.5-0.5h9c0.2764,0,0.5,0.2236,0.5,0.5v9
		C16.9863,23.7764,16.7627,24,16.4863,24z M7.9863,23h8v-8h-8V23z"/>
	<path d="M22.4863,24h-6c-0.2764,0-0.5-0.2236-0.5-0.5V11.8906l-0.8672-0.936c-0.085-0.0928-0.1328-0.2139-0.1328-0.3398V4.5
		c0-0.2764,0.2236-0.5,0.5-0.5h2c0.2764,0,0.5,0.2236,0.5,0.5V5V4.5c0-0.2764,0.2236-0.5,0.5-0.5h2c0.2764,0,0.5,0.2236,0.5,0.5V5
		V4.5c0-0.2764,0.2236-0.5,0.5-0.5h2c0.2764,0,0.5,0.2236,0.5,0.5v6.1147c0,0.126-0.0479,0.2471-0.1328,0.3398l-0.8672,0.936V23.5
		C22.9863,23.7764,22.7627,24,22.4863,24z M16.9863,23h5V11.6948c0-0.126,0.0479-0.2471,0.1328-0.3398l0.8672-0.936V5h-1v0.5
		c0,0.2764-0.2236,0.5-0.5,0.5h-1c-0.2764,0-0.5-0.2236-0.5-0.5V5h-1v0.5c0,0.2764-0.2236,0.5-0.5,0.5h-1
		c-0.2764,0-0.5-0.2236-0.5-0.5V5h-1v5.4189l0.8672,0.936c0.085,0.0928,0.1328,0.2139,0.1328,0.3398V23z"/>
	<path d="M13.4863,24c-0.2764,0-0.5-0.2236-0.5-0.5v-3.3906c0-0.585-0.458-1.0625-1.0278-1.082
		c-0.5571,0.0195-0.9722,0.4775-0.9722,1.082V23.5c0,0.2764-0.2236,0.5-0.5,0.5s-0.5-0.2236-0.5-0.5v-3.3906
		c0-1.1172,0.8071-2.0029,1.8628-2.0781c0.0361-0.0049,0.0713-0.0059,0.1094-0.0049c0.0366-0.001,0.0728,0,0.1089,0.0049
		c1.0703,0.0762,1.9189,0.9785,1.9189,2.0781V23.5C13.9863,23.7764,13.7627,24,13.4863,24z"/>
	<path d="M20.4863,15h-2c-0.2764,0-0.5-0.2236-0.5-0.5v-2.0098c0-0.8164,0.665-1.4805,1.4834-1.4805
		c0.8232,0,1.5166,0.6777,1.5166,1.4805V14.5C20.9863,14.7764,20.7627,15,20.4863,15z M18.9863,14h1v-1.5098
		c0-0.2559-0.2402-0.4805-0.5137-0.4805c-0.2646,0-0.4863,0.2197-0.4863,0.4805V14z"/>
	<path d="M7.4863,24h-6c-0.2764,0-0.5-0.2236-0.5-0.5V11.8906l-0.8667-0.936c-0.0859-0.0928-0.1333-0.2139-0.1333-0.3398V4.5
		c0-0.2764,0.2236-0.5,0.5-0.5h2c0.2764,0,0.5,0.2236,0.5,0.5V5V4.5c0-0.2764,0.2236-0.5,0.5-0.5h2c0.2764,0,0.5,0.2236,0.5,0.5V5
		V4.5c0-0.2764,0.2236-0.5,0.5-0.5h2c0.2764,0,0.5,0.2236,0.5,0.5v6.1147c0,0.126-0.0474,0.2471-0.1333,0.3398l-0.8667,0.936V23.5
		C7.9863,23.7764,7.7627,24,7.4863,24z M1.9863,23h5V11.6948c0-0.126,0.0474-0.2471,0.1333-0.3398l0.8667-0.936V5h-1v0.5
		c0,0.2764-0.2236,0.5-0.5,0.5h-1c-0.2764,0-0.5-0.2236-0.5-0.5V5h-1v0.5c0,0.2764-0.2236,0.5-0.5,0.5h-1
		c-0.2764,0-0.5-0.2236-0.5-0.5V5h-1v5.4189l0.8667,0.936c0.0859,0.0928,0.1333,0.2139,0.1333,0.3398V23z"/>
	<path d="M5.4863,15h-2c-0.2764,0-0.5-0.2236-0.5-0.5v-2.0098c0-0.8027,0.6899-1.4805,1.5063-1.4805
		c0.8354,0,1.4937,0.6641,1.4937,1.4805V14.5C5.9863,14.7764,5.7627,15,5.4863,15z M3.9863,14h1v-1.5098
		c0-0.2646-0.21-0.4805-0.4678-0.4805c-0.2954,0-0.5322,0.2246-0.5322,0.4805V14z"/>
</g>
<rect x="-0.0137" y="0.0001" fill="none" width="24" height="24"/>
</svg>
