<?xml version="1.0" encoding="utf-8"?>
<!-- Generator: Adobe Illustrator 18.1.0, SVG Export Plug-In . SVG Version: 6.00 Build 0)  -->
<svg version="1.1" id="Layer_1" xmlns="http://www.w3.org/2000/svg" xmlns:xlink="http://www.w3.org/1999/xlink" x="0px" y="0px"
	 width="24px" height="24px" viewBox="0 0 24 24" enable-background="new 0 0 24 24" xml:space="preserve">
<g>
	<path d="M16.3604,8.0439c-0.1387,0-0.2773-0.0576-0.376-0.1699l-3.5596-4.0537c-0.1816-0.2075-0.1611-0.5234,0.0459-0.7056
		c0.207-0.1826,0.5234-0.1616,0.7061,0.0454l3.5596,4.0537c0.1816,0.2075,0.1611,0.5234-0.0459,0.7056
		C16.5957,8.0029,16.4775,8.0439,16.3604,8.0439z"/>
	<path d="M7.4746,8.0439c-0.1172,0-0.2349-0.041-0.3301-0.124C6.937,7.7373,6.9165,7.4214,7.0986,7.2139l3.5591-4.0537
		c0.1826-0.207,0.498-0.2271,0.7061-0.0459c0.2075,0.1826,0.228,0.4985,0.0459,0.7061L7.8506,7.874
		C7.7515,7.9863,7.6133,8.0439,7.4746,8.0439z"/>
	<path d="M11.9175,4.3779c-0.936,0-1.6973-0.7583-1.6973-1.6899s0.7612-1.6899,1.6973-1.6899s1.6968,0.7583,1.6968,1.6899
		S12.8535,4.3779,11.9175,4.3779z M11.9175,1.998c-0.3843,0-0.6973,0.3096-0.6973,0.6899s0.313,0.6899,0.6973,0.6899
		s0.6968-0.3096,0.6968-0.6899S12.3018,1.998,11.9175,1.998z"/>
	<path d="M17.9404,16.9805H6.3662c-0.2764,0-0.5-0.2236-0.5-0.5s0.2236-0.5,0.5-0.5h11.5742c0.2764,0,0.5,0.2236,0.5,0.5
		S18.2168,16.9805,17.9404,16.9805z"/>
	<path d="M18.6621,13.998H5.644c-0.2764,0-0.5-0.2236-0.5-0.5s0.2236-0.5,0.5-0.5h13.0181c0.2764,0,0.5,0.2236,0.5,0.5
		S18.9385,13.998,18.6621,13.998z"/>
	<path d="M17.2188,19.9629H7.0879c-0.2764,0-0.5-0.2236-0.5-0.5s0.2236-0.5,0.5-0.5h10.1309c0.2764,0,0.5,0.2236,0.5,0.5
		S17.4951,19.9629,17.2188,19.9629z"/>
	<path d="M17.7158,22.9805H6.2549c-2.4932,0-2.8984-1.4736-4.1016-5.8496c-0.2109-0.7666-0.4492-1.6338-0.73-2.6123
		c-0.8418-0.3828-1.3906-1.2178-1.3906-2.1572v-0.6328c0-1.3188,1.0781-2.3921,2.4038-2.3921h19.1006
		c1.3252,0,2.4033,1.0732,2.4033,2.3921v0.6328c0,0.9395-0.5488,1.7744-1.3906,2.1572c-0.2881,1.0049-0.5312,1.8936-0.7451,2.6768
		C20.6221,21.5225,20.2236,22.9805,17.7158,22.9805z M2.4365,10.3364c-0.7739,0-1.4038,0.6245-1.4038,1.3921v0.6328
		c0,0.5967,0.3843,1.1211,0.9561,1.3057c0.1582,0.0508,0.2808,0.1768,0.3271,0.3369c0.312,1.0811,0.5728,2.0303,0.8018,2.8623
		c1.2061,4.3867,1.4541,5.1143,3.1372,5.1143h11.4609c1.6963,0,1.9414-0.7188,3.124-5.0488
		c0.2324-0.8486,0.498-1.8193,0.8174-2.9277c0.0459-0.1602,0.1689-0.2861,0.3271-0.3369c0.5723-0.1846,0.9561-0.709,0.9561-1.3057
		v-0.6328c0-0.7676-0.6299-1.3921-1.4033-1.3921H2.4365z"/>
</g>
<rect x="-0.0136" y="0.0001" fill="none" width="24" height="24"/>
</svg>
