<?xml version="1.0" encoding="utf-8"?>
<!-- Generator: Adobe Illustrator 18.1.0, SVG Export Plug-In . SVG Version: 6.00 Build 0)  -->
<svg version="1.1" id="Layer_1" xmlns="http://www.w3.org/2000/svg" xmlns:xlink="http://www.w3.org/1999/xlink" x="0px" y="0px"
	 width="24px" height="24px" viewBox="0 0 24 24" enable-background="new 0 0 24 24" xml:space="preserve">
<g>
	<path d="M22.1553,24.001H1.8452C0.8276,24.001,0,23.1738,0,22.1562V1.8462C0,0.8286,0.8276,0.001,1.8452,0.001h20.3101
		C23.1729,0.001,24,0.8286,24,1.8462v20.3101C24,23.1738,23.1729,24.001,22.1553,24.001z M1.8452,1.001
		C1.3794,1.001,1,1.3804,1,1.8462v20.3101c0,0.4658,0.3794,0.8447,0.8452,0.8447h20.3101c0.4658,0,0.8447-0.3789,0.8447-0.8447
		V1.8462c0-0.4658-0.3789-0.8452-0.8447-0.8452H1.8452z"/>
	<path d="M11.5454,10.001H8.5c-0.2764,0-0.5-0.2236-0.5-0.5s0.2236-0.5,0.5-0.5h3.0454c0.2764,0,0.5005,0.2236,0.5005,0.5
		S11.8218,10.001,11.5454,10.001z"/>
	<path d="M11.5454,14.001H8.5c-0.2764,0-0.5-0.2236-0.5-0.5s0.2236-0.5,0.5-0.5h3.0454c0.2764,0,0.5005,0.2236,0.5005,0.5
		S11.8218,14.001,11.5454,14.001z"/>
	<path d="M8.5,16.001H6.9141c-2.4995,0-4.6113-2.0605-4.6113-4.5s2.1118-4.5,4.6113-4.5H8.5c0.2764,0,0.5,0.2236,0.5,0.5v8
		C9,15.7773,8.7764,16.001,8.5,16.001z M6.9141,8.001c-1.9575,0-3.6113,1.603-3.6113,3.5c0,1.8975,1.6538,3.5,3.6113,3.5H8v-7
		H6.9141z"/>
	<path d="M8.5,16.501c-0.2764,0-0.5-0.2236-0.5-0.5v-9c0-0.2764,0.2236-0.5,0.5-0.5S9,6.7246,9,7.001v9
		C9,16.2773,8.7764,16.501,8.5,16.501z"/>
	<path d="M17.3281,10.001H15.5c-0.2764,0-0.5-0.2236-0.5-0.5s0.2236-0.5,0.5-0.5h1.8281c0.2764,0,0.5,0.2236,0.5,0.5
		S17.6045,10.001,17.3281,10.001z"/>
	<path d="M17.3281,14.001H15.5c-0.2764,0-0.5-0.2236-0.5-0.5s0.2236-0.5,0.5-0.5h1.8281c0.2764,0,0.5,0.2236,0.5,0.5
		S17.6045,14.001,17.3281,14.001z"/>
	<path d="M17.1475,16.001H15.5c-0.2764,0-0.5-0.2236-0.5-0.5v-8c0-0.2764,0.2236-0.5,0.5-0.5h1.6475
		c2.4268,0,4.4775,2.0605,4.4775,4.5S19.5742,16.001,17.1475,16.001z M16,15.001h1.1475c1.8848,0,3.4775-1.6025,3.4775-3.5
		c0-1.897-1.5928-3.5-3.4775-3.5H16V15.001z"/>
	<path d="M2.8027,12.001H0.5c-0.2764,0-0.5-0.2236-0.5-0.5s0.2236-0.5,0.5-0.5h2.3027c0.2764,0,0.5,0.2236,0.5,0.5
		S3.0791,12.001,2.8027,12.001z"/>
	<path d="M23.5,12.001h-2.375c-0.2764,0-0.5-0.2236-0.5-0.5s0.2236-0.5,0.5-0.5H23.5c0.2764,0,0.5,0.2236,0.5,0.5
		S23.7764,12.001,23.5,12.001z"/>
</g>
<rect y="0.001" fill="none" width="24" height="24"/>
</svg>
