<?xml version="1.0" encoding="utf-8"?>
<!-- Generator: Adobe Illustrator 18.1.0, SVG Export Plug-In . SVG Version: 6.00 Build 0)  -->
<svg version="1.1" id="Layer_1" xmlns="http://www.w3.org/2000/svg" xmlns:xlink="http://www.w3.org/1999/xlink" x="0px" y="0px"
	 width="24px" height="24px" viewBox="0 0 24 24" enable-background="new 0 0 24 24" xml:space="preserve">
<g>
	<path d="M11.999,19.1797c-2.3975,0-4.605-1.3506-5.6235-3.4414c-0.0757-0.1543-0.0659-0.3379,0.0254-0.4834
		c0.0913-0.1465,0.2515-0.2354,0.4238-0.2354h10.3481c0.1729,0,0.333,0.0889,0.4238,0.2354
		c0.0918,0.1455,0.1016,0.3291,0.0254,0.4834C16.6035,17.8291,14.3965,19.1797,11.999,19.1797z M7.7046,16.0195
		c0.9624,1.333,2.5688,2.1602,4.2944,2.1602s3.332-0.8271,4.2939-2.1602H7.7046z"/>
	<path d="M11.9941,23.834c-6.5117,0-11.8091-5.2979-11.8091-11.8105c0-6.5117,5.2974-11.8091,11.8091-11.8091
		s11.8086,5.2974,11.8086,11.8091C23.8027,18.5361,18.5059,23.834,11.9941,23.834z M11.9941,1.2144
		c-5.96,0-10.8091,4.8491-10.8091,10.8091c0,5.9609,4.8491,10.8105,10.8091,10.8105s10.8086-4.8496,10.8086-10.8105
		C22.8027,6.0635,17.9541,1.2144,11.9941,1.2144z"/>
	<path d="M8.5518,11.9937c-1.3491,0-2.4468-1.0972-2.4468-2.4463s1.0977-2.4468,2.4468-2.4468s2.4463,1.0977,2.4463,2.4468
		S9.9009,11.9937,8.5518,11.9937z M8.5518,8.1006c-0.7979,0-1.4468,0.6489-1.4468,1.4468c0,0.7974,0.6489,1.4463,1.4468,1.4463
		c0.7974,0,1.4463-0.6489,1.4463-1.4463C9.998,8.7495,9.3491,8.1006,8.5518,8.1006z"/>
	<path d="M15.459,11.9937c-1.3486,0-2.4463-1.0972-2.4463-2.4463s1.0977-2.4468,2.4463-2.4468s2.4463,1.0977,2.4463,2.4468
		S16.8076,11.9937,15.459,11.9937z M15.459,8.1006c-0.7979,0-1.4463,0.6489-1.4463,1.4468c0,0.7974,0.6484,1.4463,1.4463,1.4463
		s1.4463-0.6489,1.4463-1.4463C16.9053,8.7495,16.2568,8.1006,15.459,8.1006z"/>
</g>
<rect fill="none" width="24" height="24"/>
</svg>
