<?xml version="1.0" encoding="utf-8"?>
<!-- Generator: Adobe Illustrator 18.1.0, SVG Export Plug-In . SVG Version: 6.00 Build 0)  -->
<svg version="1.1" id="Layer_1" xmlns="http://www.w3.org/2000/svg" xmlns:xlink="http://www.w3.org/1999/xlink" x="0px" y="0px"
	 width="24px" height="24px" viewBox="0 0 24 24" enable-background="new 0 0 24 24" xml:space="preserve">
<g>
	<path d="M12.0361,13.4531c-0.0864,0-0.1733-0.0225-0.2505-0.0674L0.7632,7C0.6064,6.9092,0.5107,6.7407,0.5137,6.5596
		C0.5166,6.3779,0.6172,6.2129,0.7769,6.127l11.0225-5.9224c0.1479-0.0791,0.3257-0.0791,0.4731,0L23.2959,6.127
		c0.1602,0.0859,0.2607,0.251,0.2637,0.4326C23.5625,6.7407,23.4668,6.9092,23.3105,7l-11.0234,6.3857
		C12.209,13.4307,12.123,13.4531,12.0361,13.4531z M2.0396,6.584l9.9966,5.791l9.998-5.791l-9.998-5.3716L2.0396,6.584z"/>
	<path d="M12.0361,18.5537c-0.0864,0-0.1733-0.0225-0.2505-0.0674L0.7632,12.1006c-0.1543-0.0898-0.2495-0.2544-0.2495-0.4326
		s0.0952-0.3433,0.2495-0.4326l2.751-1.5938C3.7529,9.5029,4.0596,9.585,4.1973,9.8237c0.1387,0.2388,0.0571,0.5449-0.1821,0.6831
		L2.0112,11.668l10.0249,5.8076l10.0264-5.8076l-2.0049-1.1611c-0.2383-0.1382-0.3203-0.4443-0.1816-0.6831
		c0.1387-0.2407,0.4453-0.3203,0.6836-0.1821l2.751,1.5938c0.1543,0.0894,0.249,0.2544,0.249,0.4326s-0.0947,0.3428-0.249,0.4326
		l-11.0234,6.3857C12.209,18.5312,12.123,18.5537,12.0361,18.5537z"/>
	<path d="M12.0361,23.8145c-0.0864,0-0.1733-0.0225-0.2505-0.0674L0.7632,17.3613c-0.1543-0.0898-0.2495-0.2539-0.2495-0.4326
		s0.0952-0.3428,0.2495-0.4326l2.751-1.5938c0.2388-0.1377,0.5454-0.0576,0.6831,0.1816c0.1387,0.2393,0.0571,0.5449-0.1821,0.6836
		l-2.0039,1.1611l10.0249,5.8076l10.0264-5.8076l-2.0049-1.1611c-0.2383-0.1387-0.3203-0.4443-0.1816-0.6836
		c0.1387-0.2412,0.4453-0.3203,0.6836-0.1816l2.751,1.5938c0.1543,0.0898,0.249,0.2539,0.249,0.4326s-0.0947,0.3428-0.249,0.4326
		l-11.0234,6.3857C12.209,23.792,12.123,23.8145,12.0361,23.8145z"/>
</g>
<rect y="-0.005" fill="none" width="24" height="24"/>
</svg>
