<?xml version="1.0" encoding="utf-8"?>
<!-- Generator: Adobe Illustrator 18.1.0, SVG Export Plug-In . SVG Version: 6.00 Build 0)  -->
<svg version="1.1" id="Layer_1" xmlns="http://www.w3.org/2000/svg" xmlns:xlink="http://www.w3.org/1999/xlink" x="0px" y="0px"
	 width="24px" height="24px" viewBox="0 0 24 24" enable-background="new 0 0 24 24" xml:space="preserve">
<g>
	<path d="M12.0137,13.9688c-5.3047,0-10.6748-1.1982-10.6748-3.4893c0-1.7383,3.063-2.6055,4.8887-2.9678
		c0.2676-0.0566,0.5342,0.1216,0.5874,0.3931c0.0537,0.2705-0.1221,0.5337-0.3931,0.5874c-2.8052,0.5571-4.083,1.4204-4.083,1.9873
		c0,1.0151,3.769,2.4893,9.6748,2.4893c5.9053,0,9.6738-1.4741,9.6738-2.4893c0-0.7583-2.3154-2.0469-7.2842-2.4038
		c-0.2754-0.0195-0.4824-0.2588-0.4629-0.5342c0.0205-0.2759,0.2607-0.4873,0.5352-0.4629c3.7881,0.272,8.2119,1.3257,8.2119,3.4009
		C22.6875,12.7705,17.3184,13.9688,12.0137,13.9688z"/>
	<path d="M12.0137,24.0645c-4.9028,0-10.1133-1.2529-10.1133-3.5762v-9.0298c0-0.2764,0.2236-0.5,0.5-0.5s0.5,0.2236,0.5,0.5v9.0298
		c0,1.0762,3.4668,2.5762,9.1133,2.5762c5.6455,0,9.1123-1.5,9.1123-2.5762v-9.0288c0-0.2764,0.2236-0.5,0.5-0.5s0.5,0.2236,0.5,0.5
		v9.0288C22.126,22.8115,16.916,24.0645,12.0137,24.0645z"/>
	<path d="M12.0137,22.0166c-0.1206,0-0.2407-0.043-0.3364-0.1299l-7.4521-6.7705c-0.2041-0.1855-0.2192-0.502-0.0337-0.7061
		c0.186-0.2061,0.5024-0.2188,0.7065-0.0342l7.1157,6.4648l7.1152-6.4727c0.2061-0.1846,0.5225-0.1709,0.707,0.0332
		c0.1855,0.2051,0.1709,0.5205-0.0332,0.707l-7.4521,6.7783C12.2549,21.9736,12.1338,22.0166,12.0137,22.0166z"/>
	<path d="M19.4648,20.8311c-0.0938,0-0.1875-0.0254-0.2705-0.0801l-7.1807-4.6299L4.832,20.751
		c-0.2334,0.1514-0.5425,0.083-0.6914-0.1494c-0.1494-0.2314-0.0825-0.541,0.1494-0.6904l7.4526-4.8047
		c0.1655-0.1074,0.3784-0.1074,0.5415,0l7.4512,4.8047c0.2324,0.1494,0.2998,0.459,0.1494,0.6904
		C19.7891,20.75,19.6289,20.8311,19.4648,20.8311z"/>
	<path d="M10.5806,11.501c-0.7935,0-1.439-0.6455-1.439-1.439s0.6455-1.439,1.439-1.439s1.439,0.6455,1.439,1.439
		S11.374,11.501,10.5806,11.501z M10.5806,9.623c-0.2422,0-0.439,0.1968-0.439,0.439s0.1968,0.439,0.439,0.439
		s0.439-0.1968,0.439-0.439S10.8228,9.623,10.5806,9.623z"/>
	<path d="M9.9297,9.8853c-0.1309,0-0.2622-0.0513-0.3604-0.1533L1.6704,1.5283C1.479,1.3296,1.4849,1.0132,1.6841,0.8213
		c0.1978-0.1904,0.5161-0.1851,0.707,0.0137L10.29,9.0386c0.1914,0.1987,0.1855,0.5151-0.0137,0.707
		C10.1797,9.8389,10.0547,9.8853,9.9297,9.8853z"/>
	<path d="M11.4053,7.7793c-0.7935,0-1.439-0.6455-1.439-1.439s0.6455-1.439,1.439-1.439c0.7939,0,1.4395,0.6455,1.4395,1.439
		S12.1992,7.7793,11.4053,7.7793z M11.4053,5.9014c-0.2422,0-0.439,0.1968-0.439,0.439s0.1968,0.439,0.439,0.439
		s0.4395-0.1968,0.4395-0.439S11.6475,5.9014,11.4053,5.9014z"/>
	<path d="M12.2529,6.4419c-0.1699,0-0.3354-0.0869-0.4292-0.2432c-0.1416-0.2368-0.0645-0.5439,0.1724-0.686l8.626-5.1641
		c0.2344-0.1416,0.543-0.0649,0.6855,0.1724c0.1426,0.2368,0.0654,0.5439-0.1719,0.686l-8.626,5.1641
		C12.4297,6.4189,12.3408,6.4419,12.2529,6.4419z"/>
</g>
<rect x="0.0142" y="0.0354" fill="none" width="24" height="24"/>
</svg>
