<?xml version="1.0" encoding="utf-8"?>
<!-- Generator: Adobe Illustrator 18.1.0, SVG Export Plug-In . SVG Version: 6.00 Build 0)  -->
<svg version="1.1" id="Layer_1" xmlns="http://www.w3.org/2000/svg" xmlns:xlink="http://www.w3.org/1999/xlink" x="0px" y="0px"
	 width="24px" height="24px" viewBox="0 0 24 24" enable-background="new 0 0 24 24" xml:space="preserve">
<g>
	<path d="M10.8403,23.9766H8.0737c-0.1436,0-0.2798-0.0615-0.375-0.1689c-0.0947-0.1074-0.1387-0.251-0.1211-0.3926
		c0.0073-0.0586,0.728-5.9131,0.791-12.9229c0.0024-0.2749,0.2261-0.4956,0.5-0.4956c0.0015,0,0.0029,0,0.0044,0
		c0.2764,0.0024,0.498,0.2285,0.4956,0.5044c-0.0522,5.8105-0.5532,10.8369-0.7339,12.4756h1.7603
		c0.1665-1.4863,0.687-6.5752,0.7402-12.4844c0.0024-0.2749,0.2261-0.4956,0.5-0.4956c0.0015,0,0.0029,0,0.0044,0
		c0.2764,0.0024,0.498,0.2285,0.4951,0.5044c-0.0635,7.0703-0.791,12.9785-0.7983,13.0371
		C11.3052,23.7891,11.0928,23.9766,10.8403,23.9766z"/>
	<path d="M15.8428,23.9766h-2.6826c-0.251,0-0.4629-0.1855-0.4961-0.4346c-0.0078-0.0586-0.7759-5.9688-0.8398-13.041
		c-0.0024-0.2759,0.2197-0.502,0.4951-0.5044c0.002,0,0.0039,0,0.0049,0c0.2744,0,0.4971,0.2207,0.5,0.4956
		c0.0537,5.9121,0.6035,11.002,0.7783,12.4844h1.6797c-0.1807-1.6387-0.6816-6.665-0.7344-12.4756
		c-0.0029-0.2759,0.2197-0.502,0.4951-0.5044c0.002,0,0.0039,0,0.0049,0c0.2744,0,0.4971,0.2207,0.5,0.4956
		c0.0635,7.0137,0.7842,12.8643,0.791,12.9229c0.0176,0.1416-0.0264,0.2852-0.1211,0.3926S15.9863,23.9766,15.8428,23.9766z"/>
	<path d="M20.8076,23.9766h-2.6963c-0.2227,0-0.4189-0.1475-0.4805-0.3613c-0.0186-0.0654-1.9072-6.6602-2.373-13.0547
		c-0.0195-0.2754,0.1875-0.5146,0.4629-0.5347c0.2461-0.021,0.5146,0.1865,0.5352,0.4624
		c0.3955,5.4424,1.8408,11.0361,2.2354,12.4883h1.6572c-0.4922-1.8096-1.8457-7.1611-2.207-12.4463
		c-0.0186-0.2759,0.1895-0.5142,0.4648-0.5332c0.2637-0.0146,0.5137,0.1895,0.5332,0.4648
		c0.4336,6.3486,2.3281,12.8086,2.3477,12.873c0.0449,0.1514,0.0156,0.3145-0.0791,0.4404
		C21.1143,23.9023,20.9658,23.9766,20.8076,23.9766z"/>
	<path d="M5.8057,23.9766H3.1226c-0.1577,0-0.3062-0.0742-0.4004-0.2012c-0.0947-0.126-0.124-0.29-0.0791-0.4404
		c0.019-0.0645,1.915-6.5244,2.3481-12.8726c0.019-0.2749,0.248-0.4697,0.5332-0.4648c0.2754,0.019,0.4834,0.2578,0.4648,0.5332
		C5.6284,15.8154,4.2739,21.167,3.7817,22.9766h1.646c0.4014-1.4434,1.8711-7.0195,2.2461-12.5132
		c0.019-0.2749,0.2495-0.4707,0.5332-0.4648c0.2754,0.019,0.4834,0.2578,0.4648,0.5332c-0.4414,6.4614-2.3672,13.021-2.3867,13.0864
		C6.2222,23.8311,6.0273,23.9766,5.8057,23.9766z"/>
	<path d="M22.2549,11.001H1.751c-0.9492,0-1.7212-0.8159-1.7212-1.8184V7.3975c0-1.0029,0.772-1.8188,1.7212-1.8188h3.6338
		c0.2764,0,0.5,0.2236,0.5,0.5s-0.2236,0.5-0.5,0.5H1.751c-0.3975,0-0.7212,0.3672-0.7212,0.8188v1.7852
		c0,0.4512,0.3237,0.8184,0.7212,0.8184h20.5039c0.3975,0,0.7217-0.3672,0.7217-0.8184V7.397c0-0.4512-0.3242-0.8184-0.7217-0.8184
		h-3.7695c-0.2764,0-0.5-0.2236-0.5-0.5s0.2236-0.5,0.5-0.5h3.7695c0.9492,0,1.7217,0.8159,1.7217,1.8184v1.7856
		C23.9766,10.1851,23.2041,11.001,22.2549,11.001z"/>
	<path d="M18.4854,7.9902c0,0,0,0-0.001,0L5.4458,7.9722c-0.1328,0-0.2603-0.0532-0.354-0.1475S4.9458,7.603,4.9463,7.4702
		l0.0264-6.9673c0.001-0.2754,0.2246-0.498,0.5-0.498h10.8379c0.125,0,0.2461,0.0469,0.3379,0.1318l2.1748,1.999
		c0.1035,0.0947,0.1621,0.228,0.1621,0.3682v4.9863c0,0.1328-0.0527,0.2603-0.1465,0.354
		C18.7451,7.9375,18.6182,7.9902,18.4854,7.9902z M5.9482,6.9727l12.0371,0.0171V2.7236l-1.8701-1.7188H5.9707L5.9482,6.9727z"/>
	<path d="M21.4795,9.02c-0.1299,0-0.2598-0.0601-0.3496-0.1504C21.04,8.7798,20.9795,8.6499,20.9795,8.52
		c0-0.1401,0.0605-0.27,0.1504-0.3604c0.1699-0.1797,0.5098-0.1899,0.71,0c0.0898,0.1001,0.1396,0.2202,0.1396,0.3604
		c0,0.1299-0.0498,0.25-0.1396,0.3496C21.7402,8.9697,21.6094,9.02,21.4795,9.02z"/>
</g>
<rect fill="none" width="24" height="24"/>
</svg>
