<?xml version="1.0" encoding="utf-8"?>
<!-- Generator: Adobe Illustrator 18.1.0, SVG Export Plug-In . SVG Version: 6.00 Build 0)  -->
<svg version="1.1" id="Layer_1" xmlns="http://www.w3.org/2000/svg" xmlns:xlink="http://www.w3.org/1999/xlink" x="0px" y="0px"
	 width="24px" height="24px" viewBox="0 0 24 24" enable-background="new 0 0 24 24" xml:space="preserve">
<g>
	<path d="M12.458,23.8037c-0.666,0-1.3428-0.0615-2.0122-0.1816c-5.1885-0.9326-8.4727-5.1318-7.6396-9.7666
		c0.7422-4.1265,4.5127-7.1221,8.9663-7.1221c0.5908,0,1.1885,0.0537,1.7773,0.1592c2.4512,0.4404,4.5947,1.7446,6.0381,3.6724
		c1.4521,1.9399,2.0225,4.2827,1.6064,6.5972C20.4805,21.1348,16.9688,23.8037,12.458,23.8037z M11.7725,7.7334
		c-3.9688,0-7.3257,2.6494-7.9819,6.2998c-0.7446,4.1396,2.1289,7.7588,6.832,8.6045c0.6113,0.1104,1.2285,0.166,1.8354,0.166
		c4.0107,0,7.126-2.3389,7.752-5.8193c0.3662-2.0381-0.1387-4.1045-1.4229-5.8203c-1.291-1.7241-3.2139-2.8916-5.415-3.2871
		C12.8428,7.7817,12.3047,7.7334,11.7725,7.7334z"/>
	<path d="M15.8018,6.7256c-0.9668,0-2.0361-0.4043-3.1777-1.2017c-0.1309-0.0913-0.21-0.2393-0.2139-0.3984
		c-0.0273-1.1655,0.332-2.1382,1.0664-2.8906c2.0303-2.0767,6.3184-1.6675,6.3174-1.6689c0.1357,0.0132,0.2607,0.0811,0.3447,0.188
		s0.1211,0.2437,0.1025,0.3784C20.21,1.3608,19.4209,6.7256,15.8018,6.7256z M13.4111,4.8496
		c0.8857,0.5815,1.6895,0.876,2.3906,0.876c2.1836,0,3.0693-2.9507,3.3457-4.1919c-1.1318-0.0249-3.668,0.0825-4.9551,1.3999
		C13.6973,3.4404,13.4404,4.0693,13.4111,4.8496z"/>
	<path d="M12.9893,8.9717c-0.0352,0-0.0713-0.0039-0.1064-0.0117c-0.2705-0.0591-0.4414-0.3252-0.3818-0.5952
		c0.6533-2.9883-1.48-7.3047-1.5015-7.3481c-0.1235-0.2471-0.0234-0.5474,0.2236-0.6709c0.2476-0.1221,0.5469-0.0234,0.6709,0.2236
		c0.0947,0.1895,2.312,4.6797,1.5835,8.0093C13.4268,8.8125,13.2197,8.9717,12.9893,8.9717z"/>
	<path d="M8.4497,11.6396c-0.1299,0-0.2598-0.0498-0.3501-0.1396C8,11.3999,7.9497,11.2798,7.9497,11.1499
		c0-0.1401,0.0503-0.27,0.1499-0.3599c0.1802-0.1802,0.52-0.1802,0.7002,0c0.0898,0.0898,0.1499,0.2197,0.1499,0.3599
		c0,0.1299-0.0498,0.25-0.1499,0.3501C8.71,11.5898,8.5796,11.6396,8.4497,11.6396z"/>
	<path d="M9.25,14.5498c-0.1304,0-0.2603-0.0498-0.3501-0.1396C8.7998,14.3096,8.75,14.1797,8.75,14.0498
		s0.0498-0.2598,0.1396-0.3496c0.2002-0.1904,0.52-0.1904,0.71,0C9.6899,13.79,9.75,13.9199,9.75,14.0498
		s-0.0601,0.2598-0.1504,0.3604C9.5,14.5,9.3799,14.5498,9.25,14.5498z"/>
</g>
<rect y="0.0346" fill="none" width="24" height="24"/>
</svg>
