<?xml version="1.0" encoding="utf-8"?>
<!-- Generator: Adobe Illustrator 18.1.0, SVG Export Plug-In . SVG Version: 6.00 Build 0)  -->
<svg version="1.1" id="Layer_1" xmlns="http://www.w3.org/2000/svg" xmlns:xlink="http://www.w3.org/1999/xlink" x="0px" y="0px"
	 width="24px" height="24px" viewBox="0 0 24 24" enable-background="new 0 0 24 24" xml:space="preserve">
<g>
	<path d="M11.3662,18.0342c-4.501,0-8.1626-3.6621-8.1626-8.1631s3.6616-8.1626,8.1626-8.1626s8.1631,3.6616,8.1631,8.1626
		S15.8672,18.0342,11.3662,18.0342z M11.3662,2.7085c-3.9497,0-7.1626,3.2129-7.1626,7.1626c0,3.9502,3.2129,7.1631,7.1626,7.1631
		c3.9502,0,7.1631-3.2129,7.1631-7.1631C18.5293,5.9214,15.3164,2.7085,11.3662,2.7085z"/>
	<path d="M11.3477,20.5039c-1.6479,0-3.3193-0.3838-4.8804-1.1943c-1.2075-0.627-2.2666-1.4619-3.1475-2.4814
		c-0.1807-0.209-0.1572-0.5254,0.0513-0.7051c0.2095-0.1807,0.5239-0.1582,0.7056,0.0508c0.7979,0.9238,1.7573,1.6797,2.8516,2.249
		c4.7144,2.4453,10.5415,0.6025,12.9897-4.1133c1.8408-3.5469,1.3291-7.7817-1.3027-10.7881
		c-0.1816-0.208-0.1611-0.5239,0.0469-0.7056c0.207-0.1826,0.5225-0.1611,0.7051,0.0464c2.9053,3.3188,3.4697,7.9927,1.4375,11.9082
		C18.9131,18.4131,15.1943,20.5039,11.3477,20.5039z"/>
	<path d="M11.8838,15.2793c-0.2593,0-0.481-0.1094-0.6187-0.3096c-0.3149-0.457-0.0449-1.2256,0.2368-1.79
		c1.248-2.1528,0.7324-2.8438,0.7275-2.8506c-0.2656-0.3091-0.9971-1.1372-1.3506-1.4302c-0.3237-0.269-0.4243-0.7012-0.2622-1.1289
		c0.1904-0.5024,0.7666-1.042,1.4751-1.0015c0.1973,0.0059,0.3564,0.0479,0.4814,0.0996c0.0195-0.0439,0.041-0.0947,0.0654-0.1538
		c0.0664-0.1611,0.0879-0.2915,0.0586-0.3579c-0.0518-0.1206-0.3418-0.2295-0.5332-0.3013
		c-0.1279-0.0483-0.2461-0.0942-0.3398-0.1426c-0.0913,0.0308-0.4053,0.4121-0.7373,0.8159l-0.1494,0.1816
		c-0.3662,0.4434-0.7046,0.4478-0.9238,0.3745C9.5068,7.1143,9.4551,6.458,9.4497,6.3281C9.4482,6.293,9.4463,6.2402,9.4712,6.126
		c-0.25,0.0713-0.6055,0.106-1.1045,0.0361c-0.5894-0.083-0.7676-0.4194-0.8213-0.6133C7.3521,4.853,8.2339,4.0107,8.7769,3.5708
		C8.9922,3.397,9.3057,3.4297,9.48,3.644c0.1738,0.2144,0.1411,0.5293-0.0732,0.7031c-0.3281,0.2671-0.6514,0.605-0.8032,0.8286
		c0.501,0.0503,0.6479-0.0347,0.6499-0.0356l0.9263-0.6069c0.1855-0.1201,0.4282-0.104,0.5962,0.04
		c0.168,0.1436,0.2217,0.3809,0.1318,0.5825c-0.0659,0.1489-0.1353,0.311-0.1992,0.4668c0.5503-0.6328,0.9502-0.9219,1.5767-0.5977
		c0.0635,0.0327,0.1436,0.0615,0.2305,0.0938c0.3496,0.1313,0.8779,0.3296,1.0996,0.8394c0.1416,0.3276,0.124,0.7109-0.0527,1.1387
		c-0.2021,0.4897-0.3428,0.7954-0.6641,0.8921c-0.2764,0.083-0.4922-0.0601-0.5947-0.1299
		c-0.0801-0.0547-0.1289-0.0874-0.2432-0.0908c-0.1318-0.0337-0.2739,0.0649-0.3872,0.1792
		c-0.1025,0.103-0.1348,0.1987-0.1338,0.2271c0.4692,0.3623,1.397,1.4438,1.436,1.4897c0.1562,0.144,1.0293,1.1924-0.5938,3.9902
		c-0.082,0.166-0.1602,0.373-0.21,0.543c0.8281-0.3174,2.6064-1.4541,2.6895-2.0381c0.1387-0.979,0.2148-1.5186,1.3506-1.5386
		c0.6543-0.0112,0.9531-0.1631,1.0156-0.3013c0.1133-0.2529,0.4121-0.3628,0.6611-0.251c0.252,0.1133,0.3643,0.4097,0.251,0.6611
		c-0.2578,0.5737-0.9014,0.8735-1.9102,0.8911c-0.2139,0.0034-0.2793,0.0171-0.2998,0.0244
		c0.0098,0.0317-0.0391,0.3774-0.0781,0.6548c-0.1934,1.3555-3.0898,2.8975-3.874,2.9746
		C11.9458,15.2783,11.9146,15.2793,11.8838,15.2793z"/>
	<path d="M5.4375,12.168c-0.1313,0-0.2632-0.0518-0.3613-0.1543c-0.1909-0.1992-0.1841-0.5161,0.0156-0.707
		c0.0337-0.0322,0.8301-0.7935,1.2695-1.1128c0.3921-0.2852,0.5781-0.3628,0.9722-0.4688C7.2769,9.6587,7.2183,9.5928,7.1714,9.5405
		C6.9224,9.2607,6.687,8.9971,6.5986,8.7178C6.5293,8.499,6.4668,8.397,6.3716,8.2432c-0.019-0.0308-0.0381-0.062-0.0576-0.0942
		C6.123,8.3677,5.8735,8.7041,5.6621,9.0361C5.5137,9.269,5.2056,9.3379,4.9717,9.1895C4.7388,9.041,4.6699,8.7319,4.8184,8.499
		c1.021-1.6045,1.4663-1.5752,1.6631-1.5571c0.2295,0.0166,0.4258,0.1572,0.5239,0.377c0.0801,0.1777,0.1514,0.2925,0.2173,0.3989
		C7.332,7.8955,7.4458,8.0796,7.5518,8.4155c0.0337,0.0859,0.2417,0.3203,0.3662,0.46c0.3662,0.4106,0.7114,0.7988,0.5767,1.2441
		c-0.0415,0.1362-0.1665,0.3799-0.5381,0.4766L7.834,10.6279c-0.5396,0.1392-0.5718,0.1475-0.8848,0.3745
		c-0.3193,0.2324-0.9497,0.8198-1.166,1.0269C5.6865,12.1221,5.562,12.168,5.4375,12.168z"/>
	<path d="M18.9912,3.6919c-0.1396,0-0.2783-0.0581-0.377-0.1719c-0.1816-0.2085-0.1592-0.5244,0.0488-0.7056l2.5117-2.1836
		c0.208-0.1812,0.5244-0.1587,0.7051,0.0493c0.1816,0.2085,0.1592,0.5244-0.0488,0.7056l-2.5117,2.1836
		C19.2246,3.6514,19.1074,3.6919,18.9912,3.6919z"/>
	<path fill="none" stroke="#000000" stroke-linecap="round" stroke-linejoin="round" d="M5.5658,14.8781"/>
	<path fill="none" stroke="#000000" stroke-linecap="round" stroke-linejoin="round" d="M3.6982,16.5008"/>
	<path d="M11.4863,24c-0.2764,0-0.5-0.2236-0.5-0.5v-1.8525c0-0.2764,0.2236-0.5,0.5-0.5s0.5,0.2236,0.5,0.5V23.5
		C11.9863,23.7764,11.7627,24,11.4863,24z"/>
	<path d="M14.9863,24h-7c-0.2764,0-0.5-0.2236-0.5-0.5S7.71,23,7.9863,23h7c0.2764,0,0.5,0.2236,0.5,0.5S15.2627,24,14.9863,24z"/>
</g>
<rect x="-0.0137" fill="none" width="24" height="24"/>
</svg>
