<?xml version="1.0" encoding="utf-8"?>
<!-- Generator: Adobe Illustrator 18.1.0, SVG Export Plug-In . SVG Version: 6.00 Build 0)  -->
<svg version="1.1" id="Layer_1" xmlns="http://www.w3.org/2000/svg" xmlns:xlink="http://www.w3.org/1999/xlink" x="0px" y="0px"
	 width="24px" height="24px" viewBox="0 0 24 24" enable-background="new 0 0 24 24" xml:space="preserve">
<g>
	<path d="M13.1836,2.9946c-0.2764,0-0.5-0.2236-0.5-0.5V1.7915c0-0.3657-0.2979-0.6631-0.6631-0.6631
		c-0.3657,0-0.6636,0.2974-0.6636,0.6631v0.7031c0,0.2764-0.2236,0.5-0.5,0.5s-0.5-0.2236-0.5-0.5V1.7915
		c0-0.917,0.7461-1.6631,1.6636-1.6631c0.917,0,1.6631,0.7461,1.6631,1.6631v0.7031C13.6836,2.771,13.46,2.9946,13.1836,2.9946z"/>
	<path d="M15.791,23.8447c-0.3164,0-0.627-0.0977-0.8965-0.2861c-0.377-0.2637-0.6367-0.6846-0.7119-1.1543l-0.5674-4.8477
		c-0.0312-0.2734,0.165-0.5225,0.4395-0.5547c0.2686-0.0312,0.5215,0.1641,0.5547,0.4395l0.5635,4.8252
		c0.0293,0.1826,0.1387,0.3633,0.2949,0.4727c0.0908,0.0625,0.2393,0.1309,0.4268,0.0957c0.3477-0.0664,0.5859-0.46,0.5215-0.8594
		l-0.5156-4.4189c-0.0312-0.2744,0.165-0.5225,0.4395-0.5547c0.2676-0.0312,0.5215,0.1641,0.5547,0.4395l0.5117,4.3965
		c0.1484,0.9141-0.4443,1.8115-1.3232,1.9795C15.9863,23.8359,15.8887,23.8447,15.791,23.8447z"/>
	<path d="M8.2539,23.8447c-0.0972,0-0.1948-0.0088-0.292-0.0273c-0.8789-0.168-1.4712-1.0654-1.3193-2.001l0.5093-4.375
		c0.0322-0.2744,0.2827-0.4629,0.5542-0.4395c0.2744,0.0322,0.4712,0.2803,0.439,0.5547l-0.5122,4.3975
		c-0.0679,0.4219,0.1704,0.8145,0.5171,0.8809c0.187,0.0342,0.3369-0.0322,0.4287-0.0967c0.1562-0.1084,0.2646-0.2891,0.2979-0.4932
		l0.5913-4.8076c0.0332-0.2734,0.2808-0.4775,0.5571-0.4346c0.2739,0.0332,0.4688,0.2832,0.4351,0.5576l-0.5938,4.8262
		c-0.0786,0.4883-0.3384,0.9082-0.7148,1.1719C8.8813,23.7471,8.5708,23.8447,8.2539,23.8447z"/>
	<path d="M17.5293,15.9707c-0.2764,0-0.5-0.2236-0.5-0.5V3.0029h-10v12.4678c0,0.2764-0.2236,0.5-0.5,0.5s-0.5-0.2236-0.5-0.5
		V2.5029c0-0.2764,0.2236-0.5,0.5-0.5h11c0.2764,0,0.5,0.2236,0.5,0.5v12.9678C18.0293,15.7471,17.8057,15.9707,17.5293,15.9707z"/>
	<path d="M19.5293,18.0029h-15c-0.2764,0-0.5-0.2236-0.5-0.5v-2c0-0.2764,0.2236-0.5,0.5-0.5h15c0.2764,0,0.5,0.2236,0.5,0.5v2
		C20.0293,17.7793,19.8057,18.0029,19.5293,18.0029z M5.0293,17.0029h14v-1h-14V17.0029z"/>
</g>
<rect x="0.0293" y="0.0001" fill="none" width="24" height="24"/>
</svg>
