<?xml version="1.0" encoding="utf-8"?>
<!-- Generator: Adobe Illustrator 18.1.0, SVG Export Plug-In . SVG Version: 6.00 Build 0)  -->
<svg version="1.1" id="Layer_1" xmlns="http://www.w3.org/2000/svg" xmlns:xlink="http://www.w3.org/1999/xlink" x="0px" y="0px"
	 width="24px" height="24px" viewBox="0 0 24 24" enable-background="new 0 0 24 24" xml:space="preserve">
<g>
	<path d="M21.0371,9.9824h-1.0977c-0.4697,0-0.8516-0.3828-0.8516-0.853V6.8359c0-0.4702,0.3818-0.853,0.8516-0.853h1.0977
		c0.4697,0,0.8516,0.3828,0.8516,0.853v2.2935C21.8887,9.5996,21.5068,9.9824,21.0371,9.9824z M20.0879,8.9824h0.8008V6.9829
		h-0.8008V8.9824z"/>
	<path d="M16.5186,8.9824h-10.04c-0.2764,0-0.5-0.2236-0.5-0.5V0.5088c0-0.2764,0.2236-0.5,0.5-0.5h10.04
		c0.2764,0,0.5,0.2236,0.5,0.5v7.9736C17.0186,8.7588,16.7949,8.9824,16.5186,8.9824z M6.9785,7.9824h9.04V1.0088h-9.04V7.9824z"/>
	<path d="M16.5186,24.0361h-10.04c-0.2764,0-0.5-0.2236-0.5-0.5V8.4824c0-0.2764,0.2236-0.5,0.5-0.5h10.04
		c0.2764,0,0.5,0.2236,0.5,0.5v15.0537C17.0186,23.8125,16.7949,24.0361,16.5186,24.0361z M6.9785,23.0361h9.04V8.9824h-9.04
		V23.0361z"/>
	<path d="M13.5117,14.9561H9.4849c-0.2764,0-0.5-0.2236-0.5-0.5v-1.9746c0-0.2764,0.2236-0.5,0.5-0.5h4.0269
		c0.2764,0,0.5,0.2236,0.5,0.5v1.9746C14.0117,14.7324,13.7881,14.9561,13.5117,14.9561z M9.9849,13.9561h3.0269v-0.9746H9.9849
		V13.9561z"/>
	<path d="M17.9453,20.0518h-1.4268c-0.2764,0-0.5-0.2236-0.5-0.5s0.2236-0.5,0.5-0.5h1.4268c1.1484,0,2.082-0.9336,2.082-2.0811
		V11.582c0-0.2764,0.2236-0.5,0.5-0.5s0.5,0.2236,0.5,0.5v5.3887C21.0273,18.6699,19.6445,20.0518,17.9453,20.0518z"/>
	<path d="M20.4883,6.9829c-0.2764,0-0.5-0.2236-0.5-0.5c0-0.8643-0.46-1.6382-1.2305-2.0688
		c-0.2412-0.1348-0.3271-0.4395-0.1924-0.6807c0.1357-0.2417,0.4404-0.3267,0.6807-0.1924
		c1.0908,0.6104,1.7422,1.7104,1.7422,2.9419C20.9883,6.7593,20.7646,6.9829,20.4883,6.9829z"/>
	<path d="M18.8906,24.0361H4.106c-0.2764,0-0.5-0.2236-0.5-0.5s0.2236-0.5,0.5-0.5h14.7847c0.2764,0,0.5,0.2236,0.5,0.5
		S19.167,24.0361,18.8906,24.0361z"/>
</g>
<rect x="-0.0137" y="0.0002" fill="none" width="24" height="24"/>
</svg>
