<?xml version="1.0" encoding="utf-8"?>
<!-- Generator: Adobe Illustrator 18.1.0, SVG Export Plug-In . SVG Version: 6.00 Build 0)  -->
<svg version="1.1" id="Layer_1" xmlns="http://www.w3.org/2000/svg" xmlns:xlink="http://www.w3.org/1999/xlink" x="0px" y="0px"
	 width="24px" height="24px" viewBox="0 0 24 24" enable-background="new 0 0 24 24" xml:space="preserve">
<g>
	<path d="M19.8262,24.0254c-0.0039,0.001-0.0117,0.001-0.0195,0H5.1211c-0.1416,0-0.2769-0.0605-0.3716-0.165
		c-0.0947-0.1055-0.1406-0.2461-0.1255-0.3867L6.6128,4.4976C6.6392,4.2432,6.854,4.0498,7.1099,4.0498h10.7085
		c0.2559,0,0.4707,0.1934,0.4971,0.4478l1.9736,18.8384c0.0244,0.0586,0.0371,0.1221,0.0371,0.1895
		C20.3262,23.8018,20.1025,24.0254,19.8262,24.0254z M5.6763,23.0254H19.252L17.3682,5.0498H7.5601L5.6763,23.0254z"/>
	<path d="M17.8174,5.0396c-0.2764,0-0.5-0.2236-0.5-0.5c0-1.9438-1.3047-3.5254-2.9092-3.5254h-3.8887
		c-1.6045,0-2.9097,1.5815-2.9097,3.5254c0,0.2764-0.2236,0.5-0.5,0.5s-0.5-0.2236-0.5-0.5c0-2.4951,1.7539-4.5254,3.9097-4.5254
		h3.8887c2.1553,0,3.9092,2.0303,3.9092,4.5254C18.3174,4.8159,18.0938,5.0396,17.8174,5.0396z"/>
	<path d="M6.7227,8.7378c-0.0854,0-0.1724-0.022-0.252-0.0684L5.916,8.3452C5.6777,8.2061,5.5977,7.8999,5.7368,7.6611
		C5.876,7.4238,6.1821,7.3423,6.4209,7.4819l0.5547,0.3242c0.2383,0.1392,0.3184,0.4453,0.1792,0.6841
		C7.062,8.6494,6.8945,8.7378,6.7227,8.7378z"/>
	<path d="M9.3384,8.8394c-0.2764,0-0.5-0.2236-0.5-0.5V7.812c0-0.2764,0.2236-0.5,0.5-0.5s0.5,0.2236,0.5,0.5v0.5273
		C9.8384,8.6157,9.6147,8.8394,9.3384,8.8394z"/>
	<path d="M12.4639,8.8394c-0.2764,0-0.5-0.2236-0.5-0.5V7.812c0-0.2764,0.2236-0.5,0.5-0.5s0.5,0.2236,0.5,0.5v0.5273
		C12.9639,8.6157,12.7402,8.8394,12.4639,8.8394z"/>
	<path d="M15.5889,8.8394c-0.2764,0-0.5-0.2236-0.5-0.5V7.812c0-0.2764,0.2236-0.5,0.5-0.5s0.5,0.2236,0.5,0.5v0.5273
		C16.0889,8.6157,15.8652,8.8394,15.5889,8.8394z"/>
	<path d="M18.2041,8.7378c-0.1768,0-0.3477-0.0942-0.4385-0.2603c-0.1328-0.2427-0.0439-0.5464,0.1992-0.6787l0.5938-0.3242
		c0.2422-0.1323,0.5459-0.0435,0.6777,0.1992c0.1328,0.2427,0.0439,0.5464-0.1992,0.6787l-0.5938,0.3242
		C18.3672,8.7183,18.2852,8.7378,18.2041,8.7378z"/>
	<path d="M6.3994,11.8213c-0.0845,0-0.1704-0.0215-0.249-0.0664l-0.5625-0.3237c-0.2393-0.1382-0.3218-0.4438-0.1841-0.6831
		c0.1377-0.2388,0.4443-0.3203,0.6831-0.1841l0.5625,0.3237c0.2393,0.1382,0.3218,0.4438,0.1841,0.6831
		C6.7407,11.7314,6.5723,11.8213,6.3994,11.8213z"/>
	<path d="M9.3384,11.9233c-0.2764,0-0.5-0.2236-0.5-0.5V10.896c0-0.2764,0.2236-0.5,0.5-0.5s0.5,0.2236,0.5,0.5v0.5273
		C9.8384,11.6997,9.6147,11.9233,9.3384,11.9233z"/>
	<path d="M12.4639,11.9233c-0.2764,0-0.5-0.2236-0.5-0.5V10.896c0-0.2764,0.2236-0.5,0.5-0.5s0.5,0.2236,0.5,0.5v0.5273
		C12.9639,11.6997,12.7402,11.9233,12.4639,11.9233z"/>
	<path d="M15.5889,11.9233c-0.2764,0-0.5-0.2236-0.5-0.5V10.896c0-0.2764,0.2236-0.5,0.5-0.5s0.5,0.2236,0.5,0.5v0.5273
		C16.0889,11.6997,15.8652,11.9233,15.5889,11.9233z"/>
	<path d="M18.5273,11.8213c-0.1777,0-0.3496-0.0952-0.4404-0.2632c-0.1309-0.2432-0.04-0.5464,0.2031-0.6772l0.6016-0.3237
		c0.2451-0.1309,0.5459-0.0396,0.6777,0.2036c0.1309,0.2432,0.04,0.5464-0.2031,0.6772l-0.6016,0.3237
		C18.6885,11.8022,18.6074,11.8213,18.5273,11.8213z"/>
	<path d="M6.0762,14.9053c-0.0781,0-0.1577-0.0186-0.2319-0.0576l-0.6172-0.3242c-0.2446-0.1279-0.3389-0.4307-0.2104-0.6748
		c0.1299-0.2432,0.4312-0.3379,0.6753-0.21l0.6172,0.3242c0.2446,0.1279,0.3389,0.4307,0.2104,0.6748
		C6.4297,14.8076,6.2559,14.9053,6.0762,14.9053z"/>
	<path d="M9.3384,15.0068c-0.2764,0-0.5-0.2236-0.5-0.5v-0.5273c0-0.2764,0.2236-0.5,0.5-0.5s0.5,0.2236,0.5,0.5v0.5273
		C9.8384,14.7832,9.6147,15.0068,9.3384,15.0068z"/>
	<path d="M12.4639,15.0068c-0.2764,0-0.5-0.2236-0.5-0.5v-0.5273c0-0.2764,0.2236-0.5,0.5-0.5s0.5,0.2236,0.5,0.5v0.5273
		C12.9639,14.7832,12.7402,15.0068,12.4639,15.0068z"/>
	<path d="M15.5889,15.0068c-0.2764,0-0.5-0.2236-0.5-0.5v-0.5273c0-0.2764,0.2236-0.5,0.5-0.5s0.5,0.2236,0.5,0.5v0.5273
		C16.0889,14.7832,15.8652,15.0068,15.5889,15.0068z"/>
	<path d="M18.8506,14.9053c-0.1836,0-0.3613-0.1025-0.4482-0.2783c-0.1221-0.248-0.0205-0.5479,0.2266-0.6699l0.6562-0.3242
		c0.2451-0.1201,0.5469-0.0215,0.6699,0.2266c0.1221,0.248,0.0205,0.5479-0.2266,0.6699l-0.6562,0.3242
		C19.001,14.8887,18.9258,14.9053,18.8506,14.9053z"/>
	<path d="M5.7529,17.9893c-0.0879,0-0.1768-0.0234-0.2573-0.0713l-0.5391-0.3242c-0.2363-0.1426-0.313-0.4502-0.1709-0.6865
		c0.1426-0.2373,0.4502-0.3115,0.6865-0.1709l0.5391,0.3242c0.2363,0.1426,0.313,0.4502,0.1709,0.6865
		C6.0879,17.9033,5.9224,17.9893,5.7529,17.9893z"/>
	<path d="M9.3384,18.0908c-0.2764,0-0.5-0.2236-0.5-0.5v-0.5273c0-0.2764,0.2236-0.5,0.5-0.5s0.5,0.2236,0.5,0.5v0.5273
		C9.8384,17.8672,9.6147,18.0908,9.3384,18.0908z"/>
	<path d="M12.4639,18.0908c-0.2764,0-0.5-0.2236-0.5-0.5v-0.5273c0-0.2764,0.2236-0.5,0.5-0.5s0.5,0.2236,0.5,0.5v0.5273
		C12.9639,17.8672,12.7402,18.0908,12.4639,18.0908z"/>
	<path d="M15.5889,18.0908c-0.2764,0-0.5-0.2236-0.5-0.5v-0.5273c0-0.2764,0.2236-0.5,0.5-0.5s0.5,0.2236,0.5,0.5v0.5273
		C16.0889,17.8672,15.8652,18.0908,15.5889,18.0908z"/>
	<path d="M19.1787,17.9893c-0.1738,0-0.3428-0.0908-0.4355-0.2539c-0.1357-0.2402-0.0508-0.5449,0.1895-0.6816l0.5732-0.3242
		c0.2402-0.1357,0.5439-0.0527,0.6816,0.1895c0.1357,0.2402,0.0508,0.5449-0.1895,0.6816l-0.5732,0.3242
		C19.3467,17.9688,19.2627,17.9893,19.1787,17.9893z"/>
	<path d="M5.4297,21.0732c-0.0811,0-0.1631-0.0195-0.2393-0.0615l-0.5933-0.3242c-0.2422-0.1318-0.3315-0.4355-0.1992-0.6787
		c0.1328-0.2422,0.436-0.332,0.6787-0.1982l0.5933,0.3242c0.2422,0.1318,0.3315,0.4355,0.1992,0.6787
		C5.7783,20.9795,5.6064,21.0732,5.4297,21.0732z"/>
	<path d="M9.3384,21.1748c-0.2764,0-0.5-0.2236-0.5-0.5v-0.5273c0-0.2764,0.2236-0.5,0.5-0.5s0.5,0.2236,0.5,0.5v0.5273
		C9.8384,20.9512,9.6147,21.1748,9.3384,21.1748z"/>
	<path d="M12.4639,21.1748c-0.2764,0-0.5-0.2236-0.5-0.5v-0.5273c0-0.2764,0.2236-0.5,0.5-0.5s0.5,0.2236,0.5,0.5v0.5273
		C12.9639,20.9512,12.7402,21.1748,12.4639,21.1748z"/>
	<path d="M15.5889,21.1748c-0.2764,0-0.5-0.2236-0.5-0.5v-0.5273c0-0.2764,0.2236-0.5,0.5-0.5s0.5,0.2236,0.5,0.5v0.5273
		C16.0889,20.9512,15.8652,21.1748,15.5889,21.1748z"/>
	<path d="M19.5068,21.0732c-0.1797,0-0.3545-0.0977-0.4434-0.2695c-0.1279-0.2441-0.0322-0.5469,0.2129-0.6738l0.623-0.3242
		c0.2412-0.126,0.5459-0.0342,0.6738,0.2129c0.1279,0.2441,0.0322,0.5469-0.2129,0.6738l-0.623,0.3242
		C19.6641,21.0547,19.585,21.0732,19.5068,21.0732z"/>
</g>
<rect y="0.0197" fill="none" width="24" height="24"/>
</svg>
