<?xml version="1.0" encoding="utf-8"?>
<!-- Generator: Adobe Illustrator 18.1.0, SVG Export Plug-In . SVG Version: 6.00 Build 0)  -->
<svg version="1.1" id="Layer_1" xmlns="http://www.w3.org/2000/svg" xmlns:xlink="http://www.w3.org/1999/xlink" x="0px" y="0px"
	 width="24px" height="24px" viewBox="0 0 24 24" enable-background="new 0 0 24 24" xml:space="preserve">
<g>
	<path d="M3.1167,22c-0.0552,0-0.1113-0.0088-0.1665-0.0283c-0.2603-0.0918-0.397-0.3779-0.3052-0.6377
		c0.0269-0.0762,2.6782-7.6309,2.6782-10.834c0-0.2764,0.2236-0.5,0.5-0.5h6.2266c0.2764,0,0.5,0.2236,0.5,0.5
		c0,2.8809,2.7393,10.6152,2.7666,10.6924c0.0928,0.2607-0.043,0.5469-0.3027,0.6387c-0.2617,0.0947-0.5469-0.0439-0.6387-0.3027
		C14.2656,21.2197,11.8188,14.3115,11.5703,11H6.3066C6.083,14.5586,3.6948,21.3643,3.5884,21.666
		C3.5156,21.8721,3.3228,22,3.1167,22z"/>
	<path d="M12.4951,14H7.54c-0.2764,0-0.5-0.2236-0.5-0.5S7.2637,13,7.54,13h4.9551c0.2764,0,0.5,0.2236,0.5,0.5
		S12.7715,14,12.4951,14z"/>
	<path d="M20.834,21.9336c-0.2061,0-0.3994-0.1279-0.4717-0.334c-0.082-0.2324-1.9141-5.457-2.1055-8.5996H14.001
		c-0.2764,0-0.5-0.2236-0.5-0.5s0.2236-0.5,0.5-0.5h4.7393c0.2764,0,0.5,0.2236,0.5,0.5c0,2.8809,2.0449,8.709,2.0654,8.7676
		c0.0918,0.2598-0.0449,0.5459-0.3057,0.6377C20.9453,21.9248,20.8896,21.9336,20.834,21.9336z"/>
	<path d="M19.1377,16h-4.0215c-0.2764,0-0.5-0.2236-0.5-0.5s0.2236-0.5,0.5-0.5h4.0215c0.2764,0,0.5,0.2236,0.5,0.5
		S19.4141,16,19.1377,16z"/>
	<path d="M23.001,24H1.0005c-0.2764,0-0.5-0.2236-0.5-0.5s0.2236-0.5,0.5-0.5H23.001c0.2764,0,0.5,0.2236,0.5,0.5
		S23.2773,24,23.001,24z"/>
	<path d="M8.8037,8.7969c-0.1611,0-0.3188-0.0776-0.4155-0.2212c-0.1841-0.2739-0.4175-0.9058-0.124-1.5352
		c0.3833-0.8208,1.4512-1.314,3.2651-1.5073c2.1436-0.2285,2.7012-0.8052,2.8418-1.0425c0.1162-0.1948,0.0732-0.3525,0.0723-0.354
		c-0.1055-0.2549,0.0146-0.5474,0.2695-0.6538c0.2529-0.106,0.5479,0.0137,0.6543,0.269c0.0254,0.0615,0.2383,0.6172-0.1357,1.2485
		c-0.4795,0.8101-1.6895,1.3237-3.5967,1.5269C9.709,6.7324,9.27,7.2505,9.1704,7.4634C9.043,7.7368,9.2163,8.0151,9.2183,8.0181
		c0.1538,0.229,0.0933,0.5396-0.1362,0.6938C8.9966,8.7695,8.8994,8.7969,8.8037,8.7969z"/>
	<path d="M16.0928,10.9072c-0.1709,0-0.3418-0.0928-0.4443-0.2451c-0.1367-0.2041-0.2383-0.5674-0.0732-0.9209
		c0.2051-0.4399,0.7227-0.6982,1.582-0.7896c0.6602-0.0708,0.875-0.2158,0.9316-0.2686c-0.0439-0.228,0.0762-0.4634,0.2988-0.5562
		c0.2529-0.1055,0.5479,0.0142,0.6543,0.269c0.0771,0.1851,0.0977,0.4868-0.0742,0.7773c-0.251,0.4243-0.8086,0.6768-1.7051,0.7725
		c-0.6514,0.0693-0.7842,0.2246-0.7852,0.2261c0.1533,0.2295,0.0928,0.5063-0.1367,0.6602
		C16.2646,10.8838,16.1787,10.9072,16.0928,10.9072z"/>
</g>
<rect x="0.0005" fill="none" width="24" height="24"/>
</svg>
