<?xml version="1.0" encoding="utf-8"?>
<!-- Generator: Adobe Illustrator 18.1.0, SVG Export Plug-In . SVG Version: 6.00 Build 0)  -->
<svg version="1.1" id="Layer_1" xmlns="http://www.w3.org/2000/svg" xmlns:xlink="http://www.w3.org/1999/xlink" x="0px" y="0px"
	 width="24px" height="24px" viewBox="0 0 24 24" enable-background="new 0 0 24 24" xml:space="preserve">
<g>
	<path d="M20.1523,23.4414c0,0,0,0-0.001,0c-0.7207,0-1.2393-0.6309-2.0244-1.5859c-0.46-0.5586-1.0312-1.2549-1.7803-1.9883
		c-0.7363-0.7217-1.5439-1.0869-2.4014-1.0869c-0.749,0-1.3564,0.2783-1.6514,0.4434c-0.459,0.2568-0.9214,0.4365-1.375,0.5322
		c-0.3115,0.0664-0.626,0.0996-0.9341,0.0996c-2.0879,0-3.749-1.4883-5.4072-3.1465C1.6738,13.8037,1.5176,8.8652,4.2432,6.1396
		c1.2993-1.2993,3.2261-2.0444,5.2856-2.0444c2.1187,0,4.063,0.7769,5.4741,2.1885c1.9102,1.9097,3.5801,3.8315,3.0469,6.3413
		c-0.0967,0.4541-0.2754,0.917-0.5312,1.374c-0.3652,0.6504-1.0322,2.3447,0.6426,4.0537c0.7334,0.748,1.4277,1.3203,1.9863,1.7793
		c0.9336,0.7686,1.5508,1.2764,1.585,1.9717c0.0186,0.3828-0.1514,0.748-0.5195,1.1162
		C20.8623,23.2705,20.5156,23.4414,20.1523,23.4414z M13.9453,17.7803c1.1289,0,2.1719,0.4619,3.1006,1.3721
		c0.7881,0.7725,1.3789,1.4902,1.8535,2.0674c0.4932,0.6006,1.0039,1.2217,1.2529,1.2217l0,0c0.0791,0,0.208-0.083,0.3535-0.2285
		c0.1504-0.1514,0.2314-0.2793,0.2275-0.3604c-0.0117-0.2529-0.5996-0.7363-1.2217-1.248
		c-0.5762-0.4746-1.2939-1.0654-2.0654-1.8525c-2.209-2.2529-1.1709-4.582-0.7998-5.2422c0.2061-0.3691,0.3496-0.7363,0.4248-1.0918
		c0.4297-2.0225-1.0029-3.6548-2.7754-5.4272c-1.2227-1.2227-2.9155-1.8955-4.7671-1.8955c-1.7964,0-3.4653,0.6382-4.5786,1.7515
		c-2.3491,2.3491-2.1929,6.627,0.3345,9.1553c1.7144,1.7148,3.4438,3.2002,5.4268,2.7754c0.3555-0.0752,0.7227-0.2178,1.0933-0.4258
		C12.1846,18.1387,12.9688,17.7803,13.9453,17.7803z"/>
	<path d="M16.5049,4.6392c-1.1406,0-2.0693-0.9277-2.0693-2.0684s0.9287-2.0688,2.0693-2.0688s2.0684,0.9282,2.0684,2.0688
		S17.6455,4.6392,16.5049,4.6392z M16.5049,1.502c-0.5898,0-1.0693,0.4795-1.0693,1.0688c0,0.5889,0.4795,1.0684,1.0693,1.0684
		c0.5889,0,1.0684-0.4795,1.0684-1.0684C17.5732,1.9814,17.0938,1.502,16.5049,1.502z"/>
	<path d="M12.0488,19.2881c-0.1279,0-0.2559-0.0488-0.3535-0.1465c-0.1953-0.1953-0.1953-0.5117,0-0.707l5.0332-5.0332
		c0.1953-0.1953,0.5117-0.1953,0.707,0s0.1953,0.5117,0,0.707l-5.0332,5.0332C12.3047,19.2393,12.1768,19.2881,12.0488,19.2881z"/>
	<path d="M5.5083,13.5156c-0.2764,0-0.5-0.2236-0.5-0.5v-2.9995c0-0.2764,0.2236-0.5,0.5-0.5s0.5,0.2236,0.5,0.5v2.9995
		C6.0083,13.292,5.7847,13.5156,5.5083,13.5156z"/>
	<path d="M7.5083,14.9697c-0.2764,0-0.5-0.2236-0.5-0.5v-5.937c0-0.2764,0.2236-0.5,0.5-0.5s0.5,0.2236,0.5,0.5v5.937
		C8.0083,14.7461,7.7847,14.9697,7.5083,14.9697z"/>
</g>
<rect x="-0.0061" fill="none" width="24" height="24"/>
</svg>
