<?xml version="1.0" encoding="utf-8"?>
<!-- Generator: Adobe Illustrator 18.1.0, SVG Export Plug-In . SVG Version: 6.00 Build 0)  -->
<svg version="1.1" id="Layer_1" xmlns="http://www.w3.org/2000/svg" xmlns:xlink="http://www.w3.org/1999/xlink" x="0px" y="0px"
	 width="24px" height="24px" viewBox="0 0 24 24" enable-background="new 0 0 24 24" xml:space="preserve">
<g>
	<path d="M12.4727,24.0068H3.5371c-1.396,0-2.5317-1.1357-2.5317-2.5312V2.5029c0-1.3955,1.1357-2.5312,2.5317-2.5312h8.9355
		c1.3965,0,2.5322,1.1357,2.5322,2.5312c0,0.2764-0.2236,0.5-0.5,0.5s-0.5-0.2236-0.5-0.5c0-0.8442-0.6875-1.5312-1.5322-1.5312
		H3.5371c-0.8447,0-1.5317,0.687-1.5317,1.5312v18.9727c0,0.8447,0.687,1.5312,1.5317,1.5312h8.9355
		c0.8447,0,1.5322-0.6865,1.5322-1.5312v-5.999c0-0.2764,0.2236-0.5,0.5-0.5s0.5,0.2236,0.5,0.5v5.999
		C15.0049,22.8711,13.8691,24.0068,12.4727,24.0068z"/>
	<path d="M8.0049,22.3809c-0.7461,0-1.353-0.6074-1.353-1.3535s0.6069-1.3525,1.353-1.3525s1.3535,0.6064,1.3535,1.3525
		S8.751,22.3809,8.0049,22.3809z M8.0049,20.6748c-0.1948,0-0.353,0.1582-0.353,0.3525c0,0.1953,0.1582,0.3535,0.353,0.3535
		s0.3535-0.1582,0.3535-0.3535C8.3584,20.833,8.1997,20.6748,8.0049,20.6748z"/>
	<path d="M14.5137,18.998H1.5142c-0.2764,0-0.5-0.2236-0.5-0.5v-15c0-0.2764,0.2236-0.5,0.5-0.5h9.1523c0.2764,0,0.5,0.2236,0.5,0.5
		s-0.2236,0.5-0.5,0.5H2.0142v14h12.4995c0.2764,0,0.5,0.2236,0.5,0.5S14.79,18.998,14.5137,18.998z"/>
	<path d="M12.5098,17.5908c-0.0732,0-0.1465-0.0156-0.2158-0.0488c-0.1738-0.083-0.2842-0.2588-0.2842-0.4512v-3.4746
		c-1.981-0.6553-3.9761-2.9028-3.9761-5.7065c0-3.2598,2.4692-5.9116,5.5044-5.9116h4.9834c2.9902,0,5.4229,2.6914,5.4229,6
		s-2.4326,6-5.4229,6h-1.3926l-4.3047,3.4814C12.7334,17.5527,12.6221,17.5908,12.5098,17.5908z M13.5381,2.998
		c-2.4414,0-4.5044,2.249-4.5044,4.9116c0,2.4937,1.8608,4.4536,3.5854,4.8384c0.2285,0.0518,0.3906,0.2539,0.3906,0.4883v2.8066
		l3.6279-2.9336c0.0889-0.0723,0.2002-0.1113,0.3145-0.1113h1.5693c2.3975,0,4.4229-2.2896,4.4229-5s-2.0254-5-4.4229-5H13.5381z"/>
	<path d="M16.8311,11.9229L16.8311,11.9229c-0.8691,0-1.8721-0.6099-3.1553-1.9185c-1.208-1.2319-2.6553-3.0312-1.2881-4.4277
		c0.4746-0.4917,0.668-0.6475,0.9229-0.6475c0.251,0.0024,0.3027,0.0029,1.8486,1.6094c0.1729,0.1763,0.2363,0.3374,0.2305,0.5083
		c-0.0098,0.314-0.2461,0.5493-0.46,0.7402c0.1777,0.3154,0.6982,0.8501,0.9941,1.0186c0.0254-0.0264,0.0488-0.0498,0.0703-0.0723
		c0.1807-0.1846,0.3682-0.376,0.6709-0.376c0.3486,0,0.5576,0.2261,1.0156,0.7207c0.21,0.2266,0.4912,0.5303,0.8809,0.9238
		c0.2422,0.2485,0.2471,0.6387,0.0137,0.8911c-0.0254,0.0278-0.6162,0.6616-0.998,0.855
		C17.3477,11.8643,17.0967,11.9229,16.8311,11.9229z M13.2988,6.0762c-0.0469,0.0459-0.1025,0.1025-0.1689,0.1714
		c-0.2793,0.2852-0.8672,0.8867,1.2607,3.0566c1.3115,1.3379,2.0508,1.6187,2.4404,1.6187l0,0c0.1084,0,0.2051-0.022,0.2949-0.0674
		c0.082-0.0415,0.2803-0.21,0.4785-0.4014c-0.2754-0.2837-0.4883-0.5146-0.6572-0.6968c-0.0986-0.1064-0.1943-0.21-0.2725-0.2896
		c-0.0615,0.0625-0.1328,0.1343-0.2188,0.2139c-0.0352,0.0322-0.0977,0.0757-0.1396,0.0967
		c-0.0938,0.0474-0.2002,0.0723-0.3135,0.0723l0,0c-0.7256,0-1.7832-1.1763-2.0361-1.7651c-0.1953-0.4561-0.0312-0.728,0.084-0.8491
		c0.0518-0.0513,0.1025-0.0967,0.1572-0.145c0.0146-0.0132,0.0322-0.0288,0.0508-0.0454
		C13.7656,6.5361,13.4727,6.2441,13.2988,6.0762z"/>
	<path d="M17.6953,8.3667c-0.0049,0-0.0107,0-0.0166-0.0005c-0.2754-0.0088-0.4922-0.2397-0.4834-0.5161
		c0.0117-0.3618-0.1211-0.7007-0.375-0.9541c-0.2539-0.2549-0.6211-0.3926-0.9541-0.3755C15.8604,6.521,15.8545,6.521,15.8496,6.521
		c-0.2686,0-0.4912-0.2129-0.5-0.4834c-0.0088-0.2759,0.208-0.5073,0.4834-0.5161c0.6416-0.0293,1.2432,0.2158,1.6943,0.667
		c0.4521,0.4517,0.6885,1.0532,0.668,1.6948C18.1865,8.1533,17.9639,8.3667,17.6953,8.3667z"/>
	<path d="M18.9209,8.0356c-0.0039,0-0.0068,0-0.0107,0c-0.2764-0.0063-0.4951-0.2349-0.4893-0.5107
		c0.0137-0.6035-0.2129-1.1689-0.6377-1.5933s-1.0225-0.6514-1.5918-0.6362c-0.2559,0.0029-0.5049-0.2129-0.5107-0.4888
		c-0.0059-0.2764,0.2129-0.5049,0.4893-0.5112c0.9209-0.0195,1.7021,0.311,2.3203,0.9292c0.6191,0.6187,0.9492,1.4434,0.9307,2.3218
		C19.415,7.8188,19.1924,8.0356,18.9209,8.0356z"/>
</g>
<rect y="-0.002" fill="none" width="24" height="24"/>
</svg>
