<?xml version="1.0" encoding="utf-8"?>
<!-- Generator: Adobe Illustrator 18.1.0, SVG Export Plug-In . SVG Version: 6.00 Build 0)  -->
<svg version="1.1" id="Layer_1" xmlns="http://www.w3.org/2000/svg" xmlns:xlink="http://www.w3.org/1999/xlink" x="0px" y="0px"
	 width="24px" height="24px" viewBox="0 0 24 24" enable-background="new 0 0 24 24" xml:space="preserve">
<g>
	<path d="M14.7861,19.998H9.1958c-1.2158,0-2.2046-0.9893-2.2046-2.2051v-7.5469c0-1.2158,0.9888-2.2046,2.2046-2.2046h5.5903
		c1.2158,0,2.2041,0.9888,2.2041,2.2046v7.5469C16.9902,19.0088,16.002,19.998,14.7861,19.998z M12.5283,18.998h2.2578
		c0.6641,0,1.2041-0.541,1.2041-1.2051v-7.5469c0-0.6641-0.54-1.2046-1.2041-1.2046H9.1958c-0.6641,0-1.2046,0.5405-1.2046,1.2046
		v7.5469c0,0.6641,0.5405,1.2051,1.2046,1.2051H12.5283z"/>
	<path d="M10.5005,12.9824c-0.2764,0-0.5-0.2236-0.5-0.5V8.5415c0-0.2764,0.2236-0.5,0.5-0.5s0.5,0.2236,0.5,0.5v3.9409
		C11.0005,12.7588,10.7769,12.9824,10.5005,12.9824z"/>
	<path d="M13.501,12.9824c-0.2764,0-0.5-0.2236-0.5-0.5V8.5415c0-0.2764,0.2236-0.5,0.5-0.5s0.5,0.2236,0.5,0.5v3.9409
		C14.001,12.7588,13.7773,12.9824,13.501,12.9824z"/>
	<path d="M10.5005,19.9834c-0.2764,0-0.5-0.2236-0.5-0.5V15.542c0-0.2764,0.2236-0.5,0.5-0.5s0.5,0.2236,0.5,0.5v3.9414
		C11.0005,19.7598,10.7769,19.9834,10.5005,19.9834z"/>
	<path d="M13.501,19.9834c-0.2764,0-0.5-0.2236-0.5-0.5V15.542c0-0.2764,0.2236-0.5,0.5-0.5s0.5,0.2236,0.5,0.5v3.9414
		C14.001,19.7598,13.7773,19.9834,13.501,19.9834z"/>
	<path d="M19.6338,23.998H4.3726C3.6416,23.998,3,23.376,3,22.666V1.3203C3,0.6035,3.6284-0.002,4.3726-0.002h11.7817
		c0.334,0,0.6719,0.1382,0.9258,0.3784l3.498,3.3027C20.8467,3.9355,21,4.2764,21,4.6172V22.666
		C21,23.3877,20.374,23.998,19.6338,23.998z M4.3726,0.998C4.188,0.998,4,1.1606,4,1.3203V22.666c0,0.1641,0.188,0.332,0.3726,0.332
		h15.2612c0.1816,0,0.3662-0.168,0.3662-0.332V4.6172c0-0.0645-0.0439-0.1499-0.1094-0.2124l-3.4971-3.3013
		c-0.0703-0.0664-0.1592-0.1055-0.2393-0.1055H4.3726z"/>
</g>
<rect y="-0.002" fill="none" width="24" height="24"/>
</svg>
