<?xml version="1.0" encoding="utf-8"?>
<!-- Generator: Adobe Illustrator 18.1.0, SVG Export Plug-In . SVG Version: 6.00 Build 0)  -->
<svg version="1.1" id="Layer_1" xmlns="http://www.w3.org/2000/svg" xmlns:xlink="http://www.w3.org/1999/xlink" x="0px" y="0px"
	 width="24px" height="24px" viewBox="0 0 24 24" enable-background="new 0 0 24 24" xml:space="preserve">
<g>
	<path d="M8.4863,20.5c-0.2764,0-0.5-0.2236-0.5-0.5V3.0864c0-0.2358,0.1646-0.4395,0.395-0.4888L20.3808,0.017
		c0.1475-0.0308,0.3018,0.0049,0.4199,0.0996c0.1172,0.0952,0.1855,0.2383,0.1855,0.3892V18c0,0.2764-0.2236,0.5-0.5,0.5
		s-0.5-0.2236-0.5-0.5V1.125l-11,2.3652V20C8.9863,20.2764,8.7627,20.5,8.4863,20.5z"/>
	<path d="M8.4858,8.5112c-0.2285,0-0.4346-0.1572-0.4873-0.3896c-0.061-0.269,0.1079-0.5371,0.3774-0.5981l12-2.7192
		c0.2705-0.063,0.5361,0.1084,0.5977,0.3774s-0.1074,0.5371-0.377,0.5981l-12,2.7192C8.5596,8.5073,8.5225,8.5112,8.4858,8.5112z"/>
	<path d="M4.8931,23.8418c-1.4839,0-2.6626-0.7305-3.0024-1.8623c-0.4502-1.5,0.77-3.1973,2.7202-3.7822
		c0.4473-0.1348,0.9023-0.2031,1.3521-0.2031c1.4839,0,2.6616,0.7305,3.0015,1.8623c0.2271,0.7549,0.0493,1.5713-0.4995,2.2988
		c-0.5137,0.6816-1.3022,1.208-2.2202,1.4834C5.7974,23.7734,5.3428,23.8418,4.8931,23.8418z M5.9629,18.9941
		c-0.3521,0-0.7104,0.0537-1.0645,0.1602c-1.3979,0.4199-2.3369,1.582-2.0498,2.5381c0.2783,0.9258,1.7329,1.4023,3.1084,0.9893
		c0.7158-0.2148,1.3228-0.6162,1.71-1.1289c0.3516-0.4658,0.4727-0.9668,0.3394-1.4092C7.7998,19.4561,6.979,18.9941,5.9629,18.9941
		z"/>
	<path d="M16.8184,21.7969c-1.4834,0-2.6621-0.7314-3.002-1.8623c-0.2275-0.7559-0.0498-1.5723,0.499-2.2998
		c0.5137-0.6816,1.3027-1.208,2.2207-1.4834c0.4473-0.1348,0.9014-0.2031,1.3516-0.2031c1.4834,0,2.6621,0.7314,3.002,1.8623
		c0.4512,1.5-0.7686,3.1973-2.7197,3.7832C17.7227,21.7285,17.2686,21.7969,16.8184,21.7969z M17.8877,16.9482
		c-0.3525,0-0.71,0.0547-1.0645,0.1602c-0.7158,0.2148-1.3223,0.6162-1.71,1.1289c-0.3516,0.4668-0.4727,0.9668-0.3398,1.4102
		c0.2783,0.9258,1.7314,1.3975,3.1094,0.9893c1.3975-0.4209,2.3369-1.583,2.0498-2.5391
		C19.7256,17.4102,18.9043,16.9482,17.8877,16.9482z"/>
</g>
<rect x="-0.0136" y="0.0002" fill="none" width="24" height="24"/>
</svg>
