<?xml version="1.0" encoding="utf-8"?>
<!-- Generator: Adobe Illustrator 18.1.0, SVG Export Plug-In . SVG Version: 6.00 Build 0)  -->
<svg version="1.1" id="Layer_1" xmlns="http://www.w3.org/2000/svg" xmlns:xlink="http://www.w3.org/1999/xlink" x="0px" y="0px"
	 width="24px" height="24px" viewBox="0 0 24 24" enable-background="new 0 0 24 24" xml:space="preserve">
<g>
	<path d="M15.9121,23.9863c-0.0049,0.001-0.0117,0.001-0.0195,0H8.1631c-0.1562,0-0.3037-0.0732-0.3979-0.1973
		c-0.0947-0.125-0.1255-0.2861-0.084-0.4365l0.6431-2.3115c0.0605-0.2168,0.2573-0.3662,0.4819-0.3662H15.25
		c0.2246,0,0.4219,0.1494,0.4814,0.3662l0.6074,2.1836c0.0469,0.0762,0.0732,0.166,0.0732,0.2617
		C16.4121,23.7627,16.1885,23.9863,15.9121,23.9863z M8.8213,22.9863h6.4131l-0.3643-1.3115H9.186L8.8213,22.9863z"/>
	<path d="M4.9165,12.252c-0.752,0-1.5103-0.27-2.1968-0.7925c-0.895-0.6812-1.564-1.7178-1.8838-2.9194
		C0.1641,6.0146,1.2612,3.522,3.2817,2.9839c0.5547-0.1484,1.1294-0.1401,1.7075,0.0264C5.2544,3.0859,5.4082,3.3628,5.332,3.6284
		c-0.0757,0.2646-0.3545,0.418-0.6182,0.3428C4.313,3.8569,3.9175,3.8496,3.5391,3.9507C2.0513,4.3467,1.2725,6.29,1.8027,8.2832
		c0.2627,0.9878,0.8032,1.8335,1.5225,2.3804c0.6816,0.5186,1.4399,0.7021,2.1382,0.5166c0.2661-0.0713,0.541,0.0874,0.6118,0.355
		c0.0708,0.2666-0.0879,0.541-0.355,0.6113C5.4556,12.2168,5.1865,12.252,4.9165,12.252z"/>
	<path d="M19.127,12.25c-0.2646,0-0.5283-0.0332-0.791-0.1035c-0.2666-0.0703-0.4248-0.3447-0.3545-0.6113
		c0.0713-0.2661,0.3438-0.4243,0.6123-0.355c1.4824,0.3994,3.1299-0.9038,3.6602-2.897s-0.249-3.937-1.7363-4.3325
		c-0.3857-0.103-0.7842-0.0933-1.1885,0.0249c-0.2695,0.0806-0.543-0.0732-0.6211-0.3384c-0.0781-0.2646,0.0732-0.543,0.3379-0.6206
		c0.584-0.1733,1.1641-0.1826,1.7295-0.0327c2.0195,0.5381,3.1162,3.0303,2.4453,5.5562C22.6348,10.7388,20.8994,12.25,19.127,12.25
		z"/>
	<path d="M12.0283,16.4902c-4.2202,0-7.6538-3.6963-7.6538-8.2402V1.2632c0-0.6909,0.5625-1.2534,1.2534-1.2534h12.8008
		c0.6904,0,1.2529,0.5625,1.2529,1.2534V8.25C19.6816,12.7939,16.248,16.4902,12.0283,16.4902z M5.6279,1.0098
		c-0.1396,0-0.2534,0.1138-0.2534,0.2534V8.25c0,3.9922,2.9849,7.2402,6.6538,7.2402s6.6533-3.248,6.6533-7.2402V1.2632
		c0-0.1396-0.1133-0.2534-0.2529-0.2534H5.6279z"/>
	<path d="M9.8208,11.2368c-0.1592,0-0.3945-0.1143-0.4888-0.2427c-0.2515-0.3433-0.123-0.7524,0.3022-2.1079l0.1733-0.5576
		c-0.21-0.1558-0.4023-0.2969-0.5762-0.4243C8.0879,7.0664,7.7031,6.7842,7.8638,6.2817c0.1626-0.5083,0.6392-0.5146,2.2178-0.5356
		l0.5776-0.0093c0.0859-0.2476,0.1626-0.4736,0.2314-0.6782c0.4521-1.3335,0.604-1.7832,1.1309-1.7832
		c0.5293,0,0.6797,0.4395,1.1787,1.895l0.1963,0.5674c0.2627,0.0034,0.5029,0.0059,0.7207,0.0078
		c1.4248,0.0127,1.9043,0.0171,2.0674,0.519c0.165,0.5073-0.2168,0.79-1.4824,1.7256l-0.4561,0.3394
		c0.0771,0.248,0.1494,0.4736,0.2148,0.6782c0.4004,1.2588,0.5215,1.6387,0.2744,1.9775c-0.0947,0.1289-0.3311,0.2437-0.4902,0.2437
		l0,0c-0.3496,0-0.7246-0.2622-1.7266-0.9624l-0.4922-0.3423c-0.2168,0.1514-0.4141,0.2905-0.5923,0.416
		C10.5088,10.9927,10.1631,11.2368,9.8208,11.2368z M9.3623,6.7583c0.1421,0.1064,0.2998,0.2217,0.46,0.3394
		c0.2524,0.1846,0.542,0.397,0.8682,0.6416c0.1685,0.1265,0.2393,0.3447,0.1777,0.5459L10.5884,9.186
		c-0.0742,0.2358-0.1465,0.4668-0.2085,0.6719c0.1484-0.1025,0.3115-0.2178,0.478-0.3345c0.2554-0.1807,0.5498-0.3877,0.8857-0.6191
		c0.1704-0.1172,0.397-0.1177,0.5669,0l0.7812,0.5425c0.2061,0.144,0.4082,0.2856,0.5879,0.4077
		C13.627,9.6855,13.5684,9.5,13.5078,9.311c-0.0947-0.2964-0.2031-0.6372-0.3223-1.0254c-0.0615-0.2017,0.0098-0.4199,0.1787-0.5464
		l0.7432-0.5532c0.2061-0.1519,0.4072-0.3003,0.583-0.4336c-0.1807-0.0034-0.3799-0.0054-0.582-0.0068
		c-0.3135-0.0029-0.6729-0.0063-1.0801-0.0142c-0.209-0.0044-0.3926-0.1377-0.4619-0.3345l-0.3125-0.9023
		c-0.0791-0.2329-0.1572-0.4609-0.2295-0.6616c-0.0586,0.1685-0.1221,0.356-0.1865,0.5464
		c-0.0996,0.2949-0.2148,0.6343-0.3496,1.0176c-0.0693,0.1968-0.2529,0.3301-0.4614,0.3345l-0.9321,0.0146
		C9.8369,6.7495,9.5845,6.7529,9.3623,6.7583z"/>
	<path d="M11.0557,21.6973c-0.2764,0-0.5-0.2236-0.5-0.5v-3.4512c0-0.2764,0.2236-0.5,0.5-0.5s0.5,0.2236,0.5,0.5v3.4512
		C11.5557,21.4736,11.332,21.6973,11.0557,21.6973z"/>
	<path d="M13.001,21.6973c-0.2764,0-0.5-0.2236-0.5-0.5v-3.4512c0-0.2764,0.2236-0.5,0.5-0.5s0.5,0.2236,0.5,0.5v3.4512
		C13.501,21.4736,13.2773,21.6973,13.001,21.6973z"/>
</g>
<rect x="0.0293" y="-0.0001" fill="none" width="24" height="24"/>
</svg>
