<?xml version="1.0" encoding="utf-8"?>
<!-- Generator: Adobe Illustrator 18.1.0, SVG Export Plug-In . SVG Version: 6.00 Build 0)  -->
<svg version="1.1" id="Layer_1" xmlns="http://www.w3.org/2000/svg" xmlns:xlink="http://www.w3.org/1999/xlink" x="0px" y="0px"
	 width="24px" height="24px" viewBox="0 0 24 24" enable-background="new 0 0 24 24" xml:space="preserve">
<g>
	<path d="M5.2622,23.7402c-0.0591,0-0.1182-0.0107-0.1743-0.0312c-0.124-0.0459-0.2251-0.1396-0.2803-0.2607l-1.6992-3.7109
		c-0.0552-0.1211-0.0601-0.2588-0.0137-0.3828c0.0464-0.125,0.1406-0.2256,0.2612-0.2803l3.5342-1.6055
		c0.2534-0.1143,0.5483-0.0029,0.6621,0.248c0.1143,0.252,0.0029,0.5479-0.248,0.6621l-3.0776,1.3984l1.2822,2.7998l6.2822-2.877
		c0.252-0.1143,0.5469-0.0039,0.6631,0.2471c0.1143,0.251,0.0039,0.5479-0.2471,0.6631l-6.7368,3.085
		C5.4043,23.7246,5.3335,23.7402,5.2622,23.7402z"/>
	<path d="M16.9014,18.4102c-0.1895,0-0.3701-0.1084-0.4551-0.292c-0.1143-0.251-0.0039-0.5479,0.2471-0.6631l3.0791-1.4092
		l-1.2822-2.8018l-6.2803,2.876c-0.2505,0.1113-0.5479,0.0049-0.6626-0.2471c-0.1147-0.251-0.0049-0.5479,0.2466-0.6631
		l6.7344-3.084c0.1201-0.0527,0.2588-0.0586,0.3818-0.0137c0.125,0.0459,0.2256,0.1396,0.2812,0.2607l1.6992,3.7109
		c0.0547,0.1201,0.0596,0.2578,0.0137,0.3818c-0.0459,0.125-0.1396,0.2256-0.2607,0.2812l-3.5342,1.6182
		C17.042,18.3955,16.9717,18.4102,16.9014,18.4102z"/>
	<path d="M4.248,21.5234c-0.1899,0-0.3711-0.1084-0.4551-0.292c-0.1147-0.251-0.0049-0.5479,0.2466-0.6631l1.8555-0.8496
		c0.25-0.1152,0.5474-0.0039,0.6626,0.2471c0.1147,0.251,0.0049,0.5479-0.2466,0.6631l-1.8555,0.8496
		C4.3882,21.5088,4.3174,21.5234,4.248,21.5234z"/>
	<path d="M16.5576,16.75c-0.1895,0-0.3711-0.1084-0.4551-0.293c-0.1143-0.251-0.0029-0.5479,0.248-0.6621l3.1934-1.4521
		c0.252-0.1113,0.5479-0.0039,0.6621,0.248c0.1143,0.251,0.0029,0.5479-0.248,0.6621l-3.1934,1.4521
		C16.6973,16.7354,16.627,16.75,16.5576,16.75z"/>
	<path d="M18.7354,23.7402c-0.0703,0-0.1406-0.0146-0.208-0.0449L3.3545,16.748c-0.1206-0.0557-0.2144-0.1562-0.2607-0.2812
		c-0.0459-0.124-0.041-0.2617,0.0142-0.3818l1.6992-3.7109c0.1152-0.251,0.4116-0.3594,0.6626-0.2471l15.1729,6.9473
		c0.1211,0.0557,0.2148,0.1562,0.2607,0.2812c0.0459,0.124,0.041,0.2617-0.0137,0.3818l-1.6992,3.7109
		C19.1055,23.6318,18.9248,23.7402,18.7354,23.7402z M4.2251,16.0469l14.2642,6.5303l1.2822-2.8018L5.5083,13.2451L4.2251,16.0469z"
		/>
	<path d="M19.751,21.5234c-0.0703,0-0.1406-0.0146-0.208-0.0449l-1.8555-0.8496c-0.251-0.1152-0.3613-0.4121-0.2471-0.6631
		c0.1162-0.252,0.4131-0.3584,0.6631-0.2471l1.8555,0.8496c0.251,0.1152,0.3613,0.4121,0.2471,0.6631
		C20.1211,21.415,19.9404,21.5234,19.751,21.5234z"/>
	<path d="M7.4399,16.75c-0.0688,0-0.1392-0.0146-0.2065-0.0449l-3.1929-1.4521c-0.2515-0.1143-0.3623-0.4111-0.248-0.6621
		c0.1133-0.251,0.4092-0.3623,0.6621-0.248l3.1929,1.4521c0.2515,0.1143,0.3623,0.4111,0.248,0.6621
		C7.812,16.6416,7.6299,16.75,7.4399,16.75z"/>
	<path d="M6.9902,11.5737c-0.2578,0-0.4766-0.1978-0.498-0.459c-0.0649-0.7944,0.0205-1.6206,0.1035-2.4194
		c0.1211-1.168,0.2354-2.2705-0.1006-3.1943C6.3979,5.2397,6.4834,4.9482,6.7085,4.7783c0.2256-0.1704,0.5317-0.1719,0.7588-0.0054
		c0.2622,0.1963,1.4429,1.8057,2.1729,3.0864C9.7173,7.4395,9.7754,6.9497,9.835,6.4463c0.2563-2.1646,0.5752-4.8584,2.6855-6.1255
		c0.1982-0.1177,0.4424-0.1196,0.6396-0.0073c0.1992,0.1123,0.3223,0.3237,0.3223,0.5518c0,0.8989,0,3.249,0.418,4.9897
		c0.4814-1.0088,1.3369-2.249,2.6885-2.4741c0.2529-0.0479,0.5215,0.0771,0.6553,0.3115s0.1045,0.5278-0.0723,0.7305
		c-1.0312,1.2031-0.6377,2.3818-0.1816,3.7466c0.3096,0.9248,0.6289,1.8809,0.4961,2.8916
		c-0.0361,0.2744-0.2959,0.4629-0.5615,0.4302c-0.2734-0.0361-0.4668-0.2871-0.4307-0.561c0.1035-0.7817-0.166-1.5889-0.4521-2.4434
		c-0.3672-1.1011-0.7734-2.314-0.3232-3.5537c-0.7002,0.6738-1.1562,1.7773-1.3496,2.5024
		c-0.0537,0.1987-0.2236,0.3447-0.4277,0.3677c-0.2051,0.0215-0.4023-0.0815-0.498-0.2646
		c-0.6055-1.1523-0.9121-3.0508-0.9561-5.9399c-1.2095,1.166-1.4561,3.2505-1.6592,4.9653
		c-0.1421,1.1992-0.2646,2.2349-0.6821,2.8677c-0.0562,0.085-0.1372,0.1509-0.2319,0.189c-0.1313,0.0532-0.29,0.0518-0.4175-0.0117
		c-0.127-0.0625-0.2324-0.1719-0.271-0.3086C9.0708,8.75,8.3311,7.5933,7.7109,6.7051C7.7358,7.396,7.6621,8.1035,7.5903,8.7983
		c-0.0815,0.7881-0.1587,1.5327-0.1011,2.2344c0.0225,0.2754-0.1826,0.5166-0.4575,0.5396
		C7.0176,11.5732,7.0039,11.5737,6.9902,11.5737z"/>
</g>
<rect x="-0.0008" y="-0.0147" fill="none" width="24" height="24"/>
</svg>
