<?xml version="1.0" encoding="utf-8"?>
<!-- Generator: Adobe Illustrator 18.1.0, SVG Export Plug-In . SVG Version: 6.00 Build 0)  -->
<svg version="1.1" id="Layer_1" xmlns="http://www.w3.org/2000/svg" xmlns:xlink="http://www.w3.org/1999/xlink" x="0px" y="0px"
	 width="24px" height="24px" viewBox="0 0 24 24" enable-background="new 0 0 24 24" xml:space="preserve">
<g>
	<path d="M13.0967,23.0234c-0.2383,0-0.4443-0.1689-0.4902-0.4023L8.8423,3.6328L6.3735,14.6602
		c-0.0508,0.2285-0.2539,0.3906-0.4878,0.3906H0.6294c-0.2764,0-0.5-0.2236-0.5-0.5s0.2236-0.5,0.5-0.5h4.856L8.3843,1.1021
		c0.0513-0.2285,0.2539-0.3906,0.4878-0.3906c0.002,0,0.0039,0,0.0063,0c0.2363,0.0029,0.438,0.1709,0.4839,0.4028l3.708,18.7041
		l2.0576-11.5625c0.0381-0.2173,0.2148-0.3833,0.4336-0.4092c0.2158-0.0254,0.4287,0.0947,0.5166,0.2969l2.1318,4.8916h5.1865
		c0.2764,0,0.5,0.2236,0.5,0.5s-0.2236,0.5-0.5,0.5h-5.5137c-0.1992,0-0.3789-0.1182-0.458-0.2998l-1.6025-3.6758l-2.2334,12.5518
		c-0.042,0.2363-0.2471,0.4102-0.4873,0.4121C13.0996,23.0234,13.0986,23.0234,13.0967,23.0234z"/>
</g>
<rect x="0.0142" y="0.0346" fill="none" width="24" height="24"/>
</svg>
