<?xml version="1.0" encoding="utf-8"?>
<!-- Generator: Adobe Illustrator 18.1.0, SVG Export Plug-In . SVG Version: 6.00 Build 0)  -->
<svg version="1.1" id="Layer_1" xmlns="http://www.w3.org/2000/svg" xmlns:xlink="http://www.w3.org/1999/xlink" x="0px" y="0px"
	 width="24px" height="24px" viewBox="0 0 24 24" enable-background="new 0 0 24 24" xml:space="preserve">
<g>
	<path d="M16.7705,9.29c-0.2764,0-0.5-0.2236-0.5-0.5V8.1074c0-2.3535-1.915-4.2681-4.2686-4.2681S7.7339,5.7539,7.7339,8.1074V8.79
		c0,0.2764-0.2236,0.5-0.5,0.5s-0.5-0.2236-0.5-0.5V8.1074c0-2.9048,2.3633-5.2681,5.2681-5.2681
		c2.9053,0,5.2686,2.3633,5.2686,5.2681V8.79C17.2705,9.0664,17.0469,9.29,16.7705,9.29z"/>
	<path d="M12.002,22.2197c-1.8159,0-4.0439-2.748-4.8228-5.2051c-0.0835-0.2637,0.062-0.5449,0.3257-0.6279
		c0.2617-0.083,0.5444,0.0625,0.6274,0.3252c0.7563,2.3857,2.7939,4.5078,3.8696,4.5078c1.0771,0,3.1152-2.1211,3.8701-4.5059
		c0.083-0.2627,0.3613-0.4082,0.6279-0.3252c0.2627,0.083,0.4082,0.3643,0.3252,0.6279
		C16.0479,19.4727,13.8203,22.2197,12.002,22.2197z"/>
	<path d="M12.002,23.8027c-0.2764,0-0.5-0.2236-0.5-0.5v-1.583c0-0.2764,0.2236-0.5,0.5-0.5s0.5,0.2236,0.5,0.5v1.583
		C12.502,23.5791,12.2783,23.8027,12.002,23.8027z"/>
	<path d="M14.3779,13.9854H9.627c-0.2764,0-0.5-0.2236-0.5-0.5s0.2236-0.5,0.5-0.5h4.751c0.2764,0,0.5,0.2236,0.5,0.5
		S14.6543,13.9854,14.3779,13.9854z"/>
	<path d="M15.9697,16.9854H8.0342c-0.2764,0-0.5-0.2236-0.5-0.5s0.2236-0.5,0.5-0.5h7.9355c0.2764,0,0.5,0.2236,0.5,0.5
		S16.2461,16.9854,15.9697,16.9854z"/>
	<path d="M15.001,19.9854H9.0054c-0.2764,0-0.5-0.2236-0.5-0.5s0.2236-0.5,0.5-0.5h5.9956c0.2764,0,0.5,0.2236,0.5,0.5
		S15.2773,19.9854,15.001,19.9854z"/>
	<path d="M13.002,10.9854h-1.9995c-0.2764,0-0.5-0.2236-0.5-0.5s0.2236-0.5,0.5-0.5h1.9995c0.2764,0,0.5,0.2236,0.5,0.5
		S13.2783,10.9854,13.002,10.9854z"/>
	<path d="M13.5107,4.064c-0.2266,0-0.4307-0.1533-0.4854-0.3828c-0.1865-0.7817-0.1475-2.4888,1.3418-3.353
		c0.2363-0.1382,0.5439-0.0576,0.6836,0.1816c0.1387,0.2388,0.0576,0.5449-0.1816,0.6836
		c-1.2119,0.7031-0.8848,2.1943-0.8711,2.2573c0.0625,0.2686-0.1045,0.5371-0.3721,0.6001
		C13.5869,4.0596,13.5488,4.064,13.5107,4.064z"/>
	<path d="M10.3706,4.1294c-0.0386,0-0.0776-0.0044-0.1167-0.0137c-0.2681-0.064-0.4336-0.333-0.3706-0.6011
		c0.0166-0.0728,0.3374-1.5562-0.8711-2.2568C8.7734,1.1191,8.6919,0.813,8.8306,0.5742C8.9688,0.335,9.2739,0.2524,9.5142,0.3926
		c1.4893,0.8643,1.5293,2.5713,1.3423,3.353C10.8013,3.9751,10.5967,4.1294,10.3706,4.1294z"/>
	<path d="M5.1533,18.2881c-1.1636,0-2.2573-0.4531-3.0801-1.2764c-0.8228-0.8223-1.2759-1.917-1.2759-3.0801
		s0.4531-2.2573,1.2759-3.0801c1.5464-1.5459,8.937-3.9727,9.7744-4.2441c0.1797-0.0586,0.374-0.0107,0.5078,0.1221
		c0.1328,0.1328,0.1797,0.3291,0.1221,0.5078c-0.2715,0.8374-2.6978,8.2285-4.2441,9.7744
		C7.4106,17.835,6.3169,18.2881,5.1533,18.2881z M11.2119,7.873c-2.6372,0.8975-7.4062,2.6602-8.4316,3.6855
		c-1.3086,1.3086-1.3086,3.4375,0,4.7461c1.2676,1.2676,3.4785,1.2676,4.7461,0C8.5522,15.2783,10.3149,10.5103,11.2119,7.873z"/>
	<path d="M18.8516,18.2881c-1.1631,0-2.2578-0.4531-3.0801-1.2764c-1.5459-1.5459-3.9736-8.937-4.2451-9.7744
		c-0.0581-0.1787-0.0107-0.375,0.1221-0.5078c0.1333-0.1333,0.3291-0.1812,0.5078-0.1221c0.8379,0.2715,8.2295,2.6982,9.7754,4.2441
		c1.6982,1.6982,1.6982,4.4619,0,6.1602C21.1094,17.835,20.0146,18.2881,18.8516,18.2881z M12.792,7.873
		c0.8975,2.6372,2.6611,7.4062,3.6865,8.4316c1.2676,1.2676,3.4785,1.2676,4.7461,0c1.3086-1.3086,1.3086-3.4375,0-4.7461
		C20.1992,10.5332,15.4297,8.7705,12.792,7.873z"/>
</g>
<rect x="0.0022" y="-0.0147" fill="none" width="24" height="24"/>
</svg>
