<?xml version="1.0" encoding="utf-8"?>
<!-- Generator: Adobe Illustrator 18.1.0, SVG Export Plug-In . SVG Version: 6.00 Build 0)  -->
<svg version="1.1" id="Layer_1" xmlns="http://www.w3.org/2000/svg" xmlns:xlink="http://www.w3.org/1999/xlink" x="0px" y="0px"
	 width="24px" height="24px" viewBox="0 0 24 24" enable-background="new 0 0 24 24" xml:space="preserve">
<g>
	<path d="M12.0273,22.5859c-2.3711,0-6.1646-2.6592-6.6987-6.0127c-0.751-0.1953-1.2969-0.8691-1.2969-1.668
		c0-0.6797,0.4009-1.2979,1.022-1.5752c0.2534-0.1162,0.5479,0.001,0.6606,0.252c0.1128,0.252-0.0005,0.5479-0.2524,0.6602
		c-0.2612,0.1172-0.4302,0.3779-0.4302,0.6631c0,0.4004,0.3257,0.7256,0.7256,0.7256c0.2607,0,0.4995,0.2002,0.52,0.46
		c0.2339,2.9805,3.6982,5.4951,5.75,5.4951c2.0996,0,5.5107-2.4619,5.75-5.4951c0.0205-0.2607,0.2373-0.4609,0.498-0.4609
		c0.001,0,0.001,0,0.002,0c0.4209,0,0.7451-0.3252,0.7451-0.7246c0-0.2852-0.1689-0.5459-0.4307-0.6631
		c-0.252-0.1133-0.3643-0.4092-0.251-0.6611c0.1133-0.251,0.4062-0.3652,0.6611-0.251c0.6201,0.2783,1.0205,0.8965,1.0205,1.5752
		c0,0.8037-0.5527,1.4805-1.2979,1.6719C18.209,19.8027,14.668,22.5859,12.0273,22.5859z"/>
	<path d="M6.9463,14.7617c-0.1538,0-0.3052-0.0703-0.4033-0.2031c-0.0474-0.0635-0.4658-0.5879-1.084-0.3145
		c-0.2534,0.1104-0.5483-0.0039-0.6587-0.2568c-0.1113-0.2529,0.0034-0.5479,0.2563-0.6592
		c1.1001-0.4814,1.9814,0.209,2.2939,0.6406c0.1621,0.2236,0.1123,0.5361-0.1113,0.6982
		C7.1504,14.7305,7.0479,14.7617,6.9463,14.7617z"/>
	<path d="M17.1318,14.7588c-0.1035,0-0.207-0.0312-0.2959-0.0967c-0.2207-0.1631-0.2695-0.4717-0.1094-0.6934
		c0.3145-0.4316,1.1973-1.123,2.2939-0.6406c0.2529,0.1113,0.3682,0.4062,0.2568,0.6592c-0.1113,0.2539-0.4062,0.3662-0.6592,0.2568
		c-0.6221-0.2754-1.0391,0.2529-1.084,0.3145C17.4355,14.6895,17.2842,14.7588,17.1318,14.7588z"/>
	<path d="M12.0283,11.3501c-2.395,0-4.4185-0.3794-6.3672-1.1943c-0.2549-0.1064-0.375-0.3994-0.2686-0.6543
		c0.106-0.2549,0.3999-0.375,0.6543-0.2686c1.8228,0.7622,3.7231,1.1172,5.9814,1.1172c2.3047,0,3.8848-0.2856,5.6387-1.0181
		c0.2529-0.1064,0.5469,0.0132,0.6533,0.2686c0.1064,0.2549-0.0137,0.5479-0.2686,0.6543
		C16.166,11.043,14.4766,11.3501,12.0283,11.3501z"/>
	<path d="M2.5054,9.9849c-0.2764,0-0.5-0.2236-0.5-0.5V7.4409c0-0.2764,0.2236-0.5,0.5-0.5s0.5,0.2236,0.5,0.5v2.0439
		C3.0054,9.7612,2.7817,9.9849,2.5054,9.9849z"/>
	<path d="M3.0156,11.9814h-1.02c-0.561,0-1.0171-0.4141-1.0171-0.9233c0-0.0347,0.0034-0.0698,0.0107-0.104l0.2358-1.1099
		c0.0361-0.4795,0.4775-0.8594,1.0146-0.8594H2.772c0.5371,0,0.9785,0.3799,1.0146,0.8599l0.2354,1.1099
		c0.0073,0.0342,0.0107,0.0688,0.0107,0.1035C4.0327,11.5674,3.5767,11.9814,3.0156,11.9814z M2.7891,9.9082L2.2397,9.9849
		l-0.248,1.0723l1.0137-0.0747l-0.2056-0.9707C2.7925,9.9775,2.7891,9.9429,2.7891,9.9082z"/>
	<path d="M12.1328,7.9409c-0.0439,0-0.0879-0.0059-0.1299-0.0171L0.8975,4.9336c-0.2222-0.0601-0.375-0.2637-0.3701-0.4941
		c0.0054-0.23,0.1665-0.4268,0.3916-0.4771l11.1055-2.4722c0.0703-0.0156,0.1455-0.0161,0.2178,0.0005L23.292,3.9629
		c0.2246,0.0503,0.3857,0.2471,0.3906,0.4766c0.0049,0.23-0.1475,0.4336-0.3691,0.4937L12.2637,7.9233
		C12.2207,7.9351,12.1768,7.9409,12.1328,7.9409z M3.1216,4.4966l9.0112,2.4263l8.9658-2.4263l-8.9658-2.0059L3.1216,4.4966z"/>
	<path d="M18.1025,14.1748c-0.2627,0-0.4834-0.2041-0.499-0.4697l-0.4668-7.7056c-0.0166-0.2759,0.1934-0.5127,0.4688-0.5293
		c0.2939-0.0083,0.5137,0.1938,0.5293,0.4688l0.4668,7.7056c0.0166,0.2754-0.1934,0.5127-0.4688,0.5293
		C18.1221,14.1748,18.1123,14.1748,18.1025,14.1748z"/>
	<path d="M5.582,14.1631c-0.0112,0-0.0225,0-0.0337-0.001c-0.2754-0.0186-0.4839-0.2568-0.4658-0.5322l0.52-7.8462
		c0.0181-0.2754,0.2603-0.4775,0.5322-0.4658c0.2754,0.0186,0.4839,0.2563,0.4658,0.5322l-0.52,7.8462
		C6.063,13.96,5.8433,14.1631,5.582,14.1631z"/>
	<path d="M11.5889,4.9507H1.0273c-0.2764,0-0.5-0.2236-0.5-0.5s0.2236-0.5,0.5-0.5h10.5615c0.2764,0,0.5,0.2236,0.5,0.5
		S11.8652,4.9507,11.5889,4.9507z"/>
	<path d="M9.1318,16.7656c-1.2964,0-2.3511-1.0547-2.3511-2.3516c0-1.2959,1.0547-2.3506,2.3511-2.3506s2.3511,1.0547,2.3511,2.3506
		C11.4829,15.7109,10.4282,16.7656,9.1318,16.7656z M9.1318,13.0635c-0.7451,0-1.3511,0.6055-1.3511,1.3506
		s0.606,1.3516,1.3511,1.3516s1.3511-0.6064,1.3511-1.3516S9.877,13.0635,9.1318,13.0635z"/>
	<path d="M14.9219,16.7656c-1.2959,0-2.3506-1.0547-2.3506-2.3516c0-1.2959,1.0547-2.3506,2.3506-2.3506
		c1.2969,0,2.3516,1.0547,2.3516,2.3506C17.2734,15.7109,16.2188,16.7656,14.9219,16.7656z M14.9219,13.0635
		c-0.7451,0-1.3506,0.6055-1.3506,1.3506s0.6055,1.3516,1.3506,1.3516s1.3516-0.6064,1.3516-1.3516S15.667,13.0635,14.9219,13.0635z
		"/>
	<path d="M13.0713,14.9141c-0.2764,0-0.5-0.2236-0.5-0.5c0-0.2998-0.2441-0.5439-0.5439-0.5439
		c-0.3003,0-0.5444,0.2441-0.5444,0.5439c0,0.2764-0.2236,0.5-0.5,0.5s-0.5-0.2236-0.5-0.5c0-0.8516,0.6929-1.5439,1.5444-1.5439
		s1.5439,0.6924,1.5439,1.5439C13.5713,14.6904,13.3477,14.9141,13.0713,14.9141z"/>
	<path d="M11.9526,19.4658c-0.0049,0-0.0098,0-0.0142,0c-1.0454-0.0059-1.7993-0.7666-1.8306-0.7998
		c-0.1929-0.1973-0.189-0.5137,0.0088-0.707c0.1968-0.1924,0.5132-0.1885,0.7056,0.0078c0.0166,0.0166,0.5122,0.499,1.1294,0.499
		c0,0,0,0,0.0005,0c0.3584,0,0.709-0.1689,1.042-0.502c0.1953-0.1953,0.5117-0.1953,0.707,0s0.1953,0.5117,0,0.707
		C13.1738,19.1982,12.5859,19.4658,11.9526,19.4658z"/>
	<path d="M9.2397,15.0801c-0.1299,0-0.2598-0.0498-0.3501-0.1504C8.79,14.8398,8.7397,14.71,8.7397,14.5801
		c0-0.1406,0.0601-0.2705,0.1499-0.3604c0.1704-0.1797,0.52-0.1797,0.71,0.0098c0.0903,0.0898,0.1401,0.2207,0.1401,0.3506
		s-0.0498,0.25-0.1401,0.3496C9.5,15.0303,9.3696,15.0801,9.2397,15.0801z"/>
	<path d="M14.7803,15.0801c-0.1406,0-0.2705-0.0605-0.3604-0.1504s-0.1396-0.2197-0.1396-0.3496s0.0498-0.2607,0.1396-0.3506
		c0.1895-0.1895,0.5195-0.1895,0.71-0.0098c0.0898,0.0996,0.1504,0.2305,0.1504,0.3604s-0.0605,0.2598-0.1504,0.3496
		C15.04,15.0303,14.9102,15.0801,14.7803,15.0801z"/>
</g>
<rect x="0.0005" y="0.0004" fill="none" width="24" height="24"/>
</svg>
