<?xml version="1.0" encoding="utf-8"?>
<!-- Generator: Adobe Illustrator 18.1.0, SVG Export Plug-In . SVG Version: 6.00 Build 0)  -->
<svg version="1.1" id="Layer_1" xmlns="http://www.w3.org/2000/svg" xmlns:xlink="http://www.w3.org/1999/xlink" x="0px" y="0px"
	 width="24px" height="24px" viewBox="0 0 24 24" enable-background="new 0 0 24 24" xml:space="preserve">
<g>
	<path d="M23.5,20.0195h-23c-0.2764,0-0.5-0.2236-0.5-0.5v-16c0-0.2764,0.2236-0.5,0.5-0.5h23c0.2764,0,0.5,0.2236,0.5,0.5v16
		C24,19.7959,23.7764,20.0195,23.5,20.0195z M1,19.0195h22v-15H1V19.0195z"/>
	<path d="M18.5,18.0195h-16c-0.2764,0-0.5-0.2236-0.5-0.5v-12c0-0.2764,0.2236-0.5,0.5-0.5h16c0.2764,0,0.5,0.2236,0.5,0.5v12
		C19,17.7959,18.7764,18.0195,18.5,18.0195z M3,17.0195h15v-11H3V17.0195z"/>
	<path d="M21.0146,18.0195c-0.7402,0-1.3428-0.6025-1.3428-1.3428s0.6025-1.3428,1.3428-1.3428s1.3428,0.6025,1.3428,1.3428
		S21.7549,18.0195,21.0146,18.0195z M21.0146,16.334c-0.1895,0-0.3428,0.1533-0.3428,0.3428s0.1533,0.3428,0.3428,0.3428
		s0.3428-0.1533,0.3428-0.3428S21.2041,16.334,21.0146,16.334z"/>
	<g>
		<g>
			<path d="M12.3457,11.2729c-1.2236,0-2.3794-0.313-3.2554-0.8809c-0.854-0.5537-2.2944-0.5522-3.1465-0.0005
				c-0.2314,0.1519-0.541,0.085-0.6914-0.1465c-0.1509-0.2314-0.085-0.541,0.1465-0.6919c1.186-0.771,3.0459-0.7725,4.2354,0
				c1.4312,0.9277,3.9897,0.9277,5.4224,0c0.2305-0.1499,0.541-0.0854,0.6924,0.1475c0.1494,0.2314,0.084,0.541-0.1475,0.6914
				C14.7256,10.96,13.5693,11.2729,12.3457,11.2729z"/>
		</g>
	</g>
	<g>
		<g>
			<path d="M12.3457,13.8857c-1.2231,0-2.3789-0.3125-3.2554-0.8809c-0.8545-0.5547-2.2949-0.5537-3.1465-0.001
				c-0.2314,0.1514-0.541,0.0859-0.6919-0.1465c-0.1504-0.2314-0.0845-0.541,0.147-0.6914c1.186-0.7715,3.0459-0.771,4.2354-0.001
				c1.4326,0.9297,3.9907,0.9297,5.4224,0c0.2305-0.1475,0.541-0.084,0.6924,0.1475c0.1494,0.2324,0.084,0.542-0.1475,0.6924
				C14.7246,13.5732,13.5684,13.8857,12.3457,13.8857z"/>
		</g>
	</g>
	<path d="M4.8179,22.0195H3.6255c-0.9858,0-1.8184-0.8643-1.8184-1.8867v-0.6133c0-0.2764,0.2236-0.5,0.5-0.5s0.5,0.2236,0.5,0.5
		v0.6133c0,0.4727,0.3823,0.8867,0.8184,0.8867h1.1924c0.436,0,0.8184-0.4141,0.8184-0.8867v-0.6133c0-0.2764,0.2236-0.5,0.5-0.5
		s0.5,0.2236,0.5,0.5v0.6133C6.6362,21.1553,5.8037,22.0195,4.8179,22.0195z"/>
	<path d="M20.0967,22.0195h-1.1934c-0.9854,0-1.8174-0.8643-1.8174-1.8867v-0.6133c0-0.2764,0.2236-0.5,0.5-0.5s0.5,0.2236,0.5,0.5
		v0.6133c0,0.4727,0.3818,0.8867,0.8174,0.8867h1.1934c0.4355,0,0.8174-0.4141,0.8174-0.8867v-0.6133c0-0.2764,0.2236-0.5,0.5-0.5
		s0.5,0.2236,0.5,0.5v0.6133C21.9141,21.1553,21.082,22.0195,20.0967,22.0195z"/>
</g>
<rect y="0.0197" fill="none" width="24" height="24"/>
</svg>
