<?xml version="1.0" encoding="utf-8"?>
<!-- Generator: Adobe Illustrator 18.1.0, SVG Export Plug-In . SVG Version: 6.00 Build 0)  -->
<svg version="1.1" id="Layer_1" xmlns="http://www.w3.org/2000/svg" xmlns:xlink="http://www.w3.org/1999/xlink" x="0px" y="0px"
	 width="24px" height="24px" viewBox="0 0 24 24" enable-background="new 0 0 24 24" xml:space="preserve">
<g>
	<path d="M10.5225,6.4849c-1.1167,0-2.0254-0.9087-2.0254-2.0254c0-1.1172,0.9087-2.0259,2.0254-2.0259s2.0254,0.9087,2.0254,2.0259
		C12.5479,5.5762,11.6392,6.4849,10.5225,6.4849z M10.5225,3.4336c-0.5654,0-1.0254,0.4604-1.0254,1.0259s0.46,1.0254,1.0254,1.0254
		s1.0254-0.46,1.0254-1.0254S11.0879,3.4336,10.5225,3.4336z"/>
	<path d="M16.543,19.001c-0.2764,0-0.5-0.2236-0.5-0.5v-0.7607c-1.7441-0.8105-2.1631-1.2148-2.2646-1.5996
		c-0.0107-0.041-0.0166-0.084-0.0166-0.127v-0.3613c0-0.1162,0.041-0.2295,0.1152-0.3193c0.1533-0.1846,0.2783-0.4619,0.3535-0.7793
		c0.0244-0.1055,0.083-0.2012,0.167-0.2705c0.0234-0.0205,0.0469-0.1172,0.002-0.1826c-0.0566-0.083-0.0869-0.1816-0.0869-0.2822
		v-0.8086c0-0.7998-0.3994-0.9072-0.79-0.9072c-0.2168,0-0.791,0-0.791,0.9072v0.8096c0,0.1016-0.0303,0.2002-0.0879,0.2832
		c-0.0439,0.0635-0.0195,0.1611,0.0039,0.1816c0.0811,0.0693,0.1426,0.166,0.166,0.2695c0.0752,0.3174,0.2002,0.5947,0.3535,0.7793
		c0.0742,0.0898,0.1152,0.2031,0.1152,0.3193v0.3613c0,0.043-0.0059,0.0859-0.0166,0.127
		c-0.1006,0.3848-0.5205,0.7891-2.2642,1.5996v0.7607c0,0.2764-0.2236,0.5-0.5,0.5s-0.5-0.2236-0.5-0.5v-0.9043
		c0-0.3027,0.1685-0.5752,0.4292-0.6943c1.3403-0.6143,1.7373-0.916,1.8516-1.0283v-0.0547
		c-0.1738-0.252-0.3125-0.5576-0.4067-0.8994c-0.2769-0.333-0.3354-0.8291-0.144-1.2314v-0.6787
		c0-1.1763,0.6865-1.9072,1.791-1.9072s1.79,0.731,1.79,1.9072v0.6787c0.1914,0.4033,0.1328,0.8994-0.1445,1.2324
		c-0.0938,0.3408-0.2324,0.6465-0.4062,0.8984v0.0771c0.0752,0.0586,0.4404,0.3594,1.8516,1.0049
		c0.2617,0.1221,0.4297,0.3945,0.4297,0.6963v0.9033C17.043,18.7773,16.8193,19.001,16.543,19.001z"/>
	<path d="M18.4863,22.0029h-10c-0.2764,0-0.5-0.2236-0.5-0.5v-13c0-0.2764,0.2236-0.5,0.5-0.5h10c0.2764,0,0.5,0.2236,0.5,0.5v13
		C18.9863,21.7793,18.7627,22.0029,18.4863,22.0029z M8.9863,21.0029h9v-12h-9V21.0029z"/>
	<path d="M4.4863,6.0508c-0.2764,0-0.5-0.2236-0.5-0.5v-2.002c0-0.2764,0.2236-0.5,0.5-0.5s0.5,0.2236,0.5,0.5v2.002
		C4.9863,5.8271,4.7627,6.0508,4.4863,6.0508z"/>
	<path d="M5.4863,14.0352c-0.2764,0-0.5-0.2236-0.5-0.5V11.603c0-0.2764,0.2236-0.5,0.5-0.5s0.5,0.2236,0.5,0.5v1.9321
		C5.9863,13.8115,5.7627,14.0352,5.4863,14.0352z"/>
	<path d="M14.4863,6.9551c-0.2764,0-0.5-0.2236-0.5-0.5V5.5508c0-0.2764,0.2236-0.5,0.5-0.5s0.5,0.2236,0.5,0.5v0.9043
		C14.9863,6.7314,14.7627,6.9551,14.4863,6.9551z"/>
	<path d="M16.4863,6.9551c-0.2764,0-0.5-0.2236-0.5-0.5V5.5508c0-0.2764,0.2236-0.5,0.5-0.5s0.5,0.2236,0.5,0.5v0.9043
		C16.9863,6.7314,16.7627,6.9551,16.4863,6.9551z"/>
	<path d="M14.4863,3.9551c-0.2764,0-0.5-0.2236-0.5-0.5V2.5508c0-0.2764,0.2236-0.5,0.5-0.5s0.5,0.2236,0.5,0.5v0.9043
		C14.9863,3.7314,14.7627,3.9551,14.4863,3.9551z"/>
	<path d="M16.4863,3.9551c-0.2764,0-0.5-0.2236-0.5-0.5V2.5508c0-0.2764,0.2236-0.5,0.5-0.5s0.5,0.2236,0.5,0.5v0.9043
		C16.9863,3.7314,16.7627,3.9551,16.4863,3.9551z"/>
	<path d="M18.1484,24.0029H8.9932c-2.1138,0-2.9561-1.75-3.0063-2.9268l-0.0005-5.0732H4.7744
		c-0.9858,0-1.7881-0.8047-1.7881-1.7939v-3.418c0-0.9858,0.8022-1.7876,1.7881-1.7876h1.2119v-6.168
		c0-1.918,1.623-2.7324,2.7134-2.812l9.4712-0.0205c1.8643,0,2.6963,1.626,2.8008,2.7188l0.0146,18.4248
		C20.9863,22.8818,19.8721,24.0029,18.1484,24.0029z M6.9863,21.0547c0.0005,0,0.1069,1.9482,2.0068,1.9482h9.1553
		c1.168,0,1.8379-0.6768,1.8379-1.8564V2.8745c-0.0049-0.0234-0.0088-0.0454-0.0107-0.0581
		c-0.001-0.0181-0.1914-1.8135-1.8037-1.8135L8.7373,1.022c0.0176,0-1.751,0.1484-1.751,1.8135v6.668c0,0.2764-0.2236,0.5-0.5,0.5
		H4.7744c-0.4346,0-0.7881,0.3535-0.7881,0.7876v3.418c0,0.4375,0.3535,0.7939,0.7881,0.7939h1.7119c0.2764,0,0.5,0.2236,0.5,0.5
		V21.0547L6.9863,21.0547z"/>
</g>
<rect x="-0.0136" y="0.0002" fill="none" width="24" height="24"/>
</svg>
