<?xml version="1.0" encoding="utf-8"?>
<!-- Generator: Adobe Illustrator 18.1.0, SVG Export Plug-In . SVG Version: 6.00 Build 0)  -->
<svg version="1.1" id="Layer_1" xmlns="http://www.w3.org/2000/svg" xmlns:xlink="http://www.w3.org/1999/xlink" x="0px" y="0px"
	 width="24px" height="24px" viewBox="0 0 24 24" enable-background="new 0 0 24 24" xml:space="preserve">
<g>
	<path d="M3.2065,10.4683c-0.0376,0-0.0757-0.0039-0.1138-0.0132c-0.269-0.0625-0.4365-0.3311-0.3735-0.6001
		c1.0073-4.3315,4.8179-7.3564,9.2661-7.3564s8.2578,3.0249,9.2656,7.356c0.0625,0.269-0.1055,0.5376-0.374,0.6001
		c-0.2715,0.0664-0.5381-0.105-0.6006-0.3735c-0.9014-3.8755-4.3105-6.5825-8.291-6.5825c-3.981,0-7.3906,2.707-8.2925,6.583
		C3.6392,10.3125,3.4336,10.4683,3.2065,10.4683z"/>
	<path d="M13.6143,21.376c-0.2363,0-0.4463-0.1689-0.4912-0.4102c-0.0498-0.2715,0.1309-0.5322,0.4023-0.582
		c3.7578-0.6885,6.6113-3.8271,6.9404-7.6338c0.0234-0.2754,0.2734-0.4678,0.541-0.4551c0.2754,0.0234,0.4785,0.2656,0.4551,0.541
		c-0.3672,4.2539-3.5566,7.7627-7.7568,8.5322C13.6748,21.373,13.6445,21.376,13.6143,21.376z"/>
	<path d="M10.3862,21.3818c-0.0293,0-0.0591-0.0029-0.0889-0.0078c-4.228-0.7598-7.4316-4.2803-7.7905-8.5605
		c-0.0234-0.2754,0.1812-0.5176,0.4561-0.54c0.2876-0.0176,0.5176,0.1807,0.54,0.4561c0.3213,3.8301,3.188,6.9805,6.9712,7.6602
		c0.272,0.0488,0.4526,0.3086,0.4038,0.5811C10.8345,21.2119,10.6235,21.3818,10.3862,21.3818z"/>
	<path d="M11.9854,23.833c-6.5181,0-11.8213-5.3037-11.8213-11.8223c0-6.5181,5.3032-11.8208,11.8213-11.8208
		c6.5186,0,11.8213,5.3027,11.8213,11.8208C23.8066,18.5293,18.5039,23.833,11.9854,23.833z M11.9854,1.1899
		c-5.9668,0-10.8213,4.854-10.8213,10.8208c0,5.9678,4.8545,10.8223,10.8213,10.8223s10.8213-4.8545,10.8213-10.8223
		C22.8066,6.0439,17.9521,1.1899,11.9854,1.1899z"/>
	<path d="M11.9854,16.1162c-2.2637,0-4.1055-1.8418-4.1055-4.1055c0-2.2632,1.8418-4.1045,4.1055-4.1045
		s4.1045,1.8413,4.1045,4.1045C16.0898,14.2744,14.249,16.1162,11.9854,16.1162z M11.9854,8.9062
		c-1.7124,0-3.1055,1.3926-3.1055,3.1045s1.3931,3.1055,3.1055,3.1055c1.7119,0,3.1045-1.3936,3.1045-3.1055
		S13.6973,8.9062,11.9854,8.9062z"/>
	<path d="M10.3872,21.376c-0.0269,0-0.0537-0.002-0.0811-0.0068c-0.2725-0.0449-0.457-0.3018-0.4131-0.5742
		c0.0073-0.0439,0.6943-4.4482-1.5186-6.5801c-1.1494-1.1064-2.9209-1.4277-5.2671-0.9551
		c-0.271,0.0547-0.5342-0.1211-0.5889-0.3916s0.1206-0.5342,0.3916-0.5889c2.6885-0.5415,4.7607-0.1318,6.1606,1.2178
		c2.5898,2.498,1.8423,7.2588,1.8091,7.46C10.8398,21.2021,10.6279,21.376,10.3872,21.376z"/>
	<path d="M13.6143,21.376c-0.2383,0-0.4492-0.1709-0.4912-0.4141c-0.0352-0.2021-0.833-4.9824,1.7383-7.4863
		c1.3838-1.3467,3.4463-1.7563,6.1309-1.2158c0.2705,0.0547,0.4463,0.3184,0.3916,0.5889
		c-0.0547,0.2715-0.3213,0.4482-0.5889,0.3916c-2.3408-0.4717-4.1025-0.1514-5.2363,0.9521
		c-2.1963,2.1396-1.458,6.5537-1.4512,6.5977c0.0479,0.2725-0.1348,0.5312-0.4062,0.5781
		C13.6719,21.374,13.6436,21.376,13.6143,21.376z"/>
	<path d="M9.0146,10.4692H3.2095c-0.2764,0-0.5-0.2236-0.5-0.5s0.2236-0.5,0.5-0.5h5.8052c0.2764,0,0.5,0.2236,0.5,0.5
		S9.291,10.4692,9.0146,10.4692z"/>
	<path d="M20.7607,10.4692h-5.8057c-0.2764,0-0.5-0.2236-0.5-0.5s0.2236-0.5,0.5-0.5h5.8057c0.2764,0,0.5,0.2236,0.5,0.5
		S21.0371,10.4692,20.7607,10.4692z"/>
</g>
<rect x="-0.0136" y="0.0002" fill="none" width="24" height="24"/>
</svg>
