<?xml version="1.0" encoding="utf-8"?>
<!-- Generator: Adobe Illustrator 18.1.0, SVG Export Plug-In . SVG Version: 6.00 Build 0)  -->
<svg version="1.1" id="Layer_1" xmlns="http://www.w3.org/2000/svg" xmlns:xlink="http://www.w3.org/1999/xlink" x="0px" y="0px"
	 width="24px" height="24px" viewBox="0 0 24 24" enable-background="new 0 0 24 24" xml:space="preserve">
<g>
	<path d="M14.8027,15H1c-0.2764,0-0.5-0.2236-0.5-0.5S0.7236,14,1,14h13.8027c0.2764,0,0.5,0.2236,0.5,0.5S15.0791,15,14.8027,15z"
		/>
	<path d="M23.5,15h-6.4209c-0.2764,0-0.5-0.2236-0.5-0.5s0.2236-0.5,0.5-0.5H23V4H1C0.7236,4,0.5,3.7764,0.5,3.5S0.7236,3,1,3h22.5
		C23.7764,3,24,3.2236,24,3.5v11C24,14.7764,23.7764,15,23.5,15z"/>
	<path d="M18.585,21.4756L18.585,21.4756c-0.2637,0-0.5098-0.1426-0.6416-0.3701l-0.9512-1.6719l-0.5566,0.5576
		c-0.3965,0.3965-1.1592,0.1523-1.252-0.3984l-1.1777-6.749c-0.0381-0.2158,0.0205-0.4346,0.1602-0.6006
		c0.2607-0.3101,0.7617-0.3501,1.0645-0.0752l5.1562,4.6309c0.2109,0.1914,0.2939,0.4775,0.2188,0.749
		c-0.0762,0.2715-0.2939,0.4736-0.5703,0.5273l-0.4893,0.0967l0.9365,1.2363c0.123,0.1631,0.1729,0.3701,0.1396,0.5693
		c-0.0342,0.1992-0.1484,0.3779-0.3154,0.4902l-1.3086,0.8818C18.875,21.4316,18.7324,21.4756,18.585,21.4756z M17.1025,18.1162
		c0.0225,0,0.0439,0.002,0.0664,0.0049c0.1553,0.0205,0.291,0.1123,0.3682,0.248l1.1348,1.9941l0.8477-0.5703l-1.2539-1.6543
		c-0.1045-0.1367-0.1299-0.3184-0.0693-0.4795c0.0615-0.1611,0.2021-0.2793,0.3711-0.3125l0.7646-0.1514l-4.2119-3.7832
		l0.9629,5.5176l0.666-0.667C16.8428,18.168,16.9707,18.1162,17.1025,18.1162z"/>
	<path d="M17.4824,11.0176L17.4824,11.0176c-0.2529,0-0.4932-0.1221-0.6416-0.3271L14.8955,8.291
		c-0.2363-0.3198-0.2168-0.73,0.0293-1.0088c0.1416-0.1772,0.3887-0.2715,0.5967-0.2715l3.9219-0.0005
		c0.2998,0,0.5693,0.1641,0.7041,0.4282c0.1357,0.2676,0.1113,0.5942-0.0635,0.8325l-1.9756,2.4409
		C17.9756,10.8955,17.7363,11.0176,17.4824,11.0176z M15.9551,8.0107l1.5273,1.8853l1.5273-1.8857L15.9551,8.0107z"/>
	<path d="M11.499,14.8916c-0.2764,0-0.5-0.2236-0.5-0.5V3.5c0-0.2764,0.2236-0.5,0.5-0.5s0.5,0.2236,0.5,0.5v10.8916
		C11.999,14.668,11.7754,14.8916,11.499,14.8916z"/>
</g>
<rect fill="none" width="24" height="24"/>
</svg>
