<?xml version="1.0" encoding="utf-8"?>
<!-- Generator: Adobe Illustrator 18.1.0, SVG Export Plug-In . SVG Version: 6.00 Build 0)  -->
<svg version="1.1" id="Layer_1" xmlns="http://www.w3.org/2000/svg" xmlns:xlink="http://www.w3.org/1999/xlink" x="0px" y="0px"
	 width="24px" height="24px" viewBox="0 0 24 24" enable-background="new 0 0 24 24" xml:space="preserve">
<g>
	<path d="M2.5859,23.6416c-0.1045,0-0.2085-0.0332-0.2954-0.0967c-0.1445-0.1055-0.2212-0.2812-0.2017-0.459L4.502,1.5479
		C4.5332,1.2744,4.7773,1.084,5.0542,1.1064c7.8022,0.8647,14.6235,5.8652,17.8013,13.0498c0.1123,0.252-0.002,0.5479-0.2549,0.6592
		l-19.812,8.7832C2.7236,23.6279,2.6548,23.6416,2.5859,23.6416z M5.4395,2.1616L3.1797,22.3311l18.5537-8.2246
		C18.6875,7.6401,12.5176,3.1172,5.4395,2.1616z"/>
	<path d="M2.9961,19.9795c-0.2378,0-0.4487-0.1699-0.4917-0.4121c-0.0483-0.2725,0.1328-0.5322,0.4048-0.5801
		c1.0161-0.1807,1.7534-1.0625,1.7534-2.0967c0-0.8574-0.5107-1.6279-1.3018-1.9619c-0.2544-0.1084-0.373-0.4014-0.2656-0.6553
		c0.1074-0.2549,0.4009-0.3711,0.6553-0.2666c1.1616,0.4922,1.9121,1.623,1.9121,2.8838c0,1.5195-1.0845,2.8154-2.5786,3.0811
		C3.0547,19.9766,3.0249,19.9795,2.9961,19.9795z"/>
	<path d="M9.0684,12.9473c-1.7256,0-3.1294-1.4038-3.1294-3.1294s1.4038-3.1294,3.1294-3.1294s3.1299,1.4038,3.1299,3.1294
		S10.7939,12.9473,9.0684,12.9473z M9.0684,7.6885c-1.1743,0-2.1294,0.9551-2.1294,2.1294s0.9551,2.1294,2.1294,2.1294
		s2.1299-0.9551,2.1299-2.1294S10.2427,7.6885,9.0684,7.6885z"/>
	<path d="M11.1382,19.8477c-0.1758,0-0.3457-0.0928-0.4375-0.2568c-0.5439-0.9766-0.5288-2.1387,0.0405-3.1064
		c0.5679-0.9668,1.5752-1.5439,2.6953-1.5439c1.3428,0,2.5342,0.8545,2.9648,2.126c0.0889,0.2617-0.0518,0.5449-0.3135,0.6338
		c-0.2607,0.0869-0.5459-0.0508-0.6338-0.3135c-0.293-0.8652-1.1035-1.4463-2.0176-1.4463c-0.7617,0-1.4468,0.3926-1.8335,1.0498
		c-0.3877,0.6602-0.3984,1.4502-0.0283,2.1143c0.1343,0.2412,0.0474,0.5459-0.1938,0.6797
		C11.3042,19.8271,11.2207,19.8477,11.1382,19.8477z"/>
	<path d="M20.417,15.7363c-0.1074,0-0.2158-0.0342-0.3066-0.1055c-1.2148-0.9424-2.1523-2.2656-3.1455-3.666
		c-2.3232-3.2769-4.957-6.9912-12.2559-7.71C4.4341,4.228,4.2334,3.9834,4.2603,3.7085s0.2637-0.4712,0.5464-0.4487
		c7.7529,0.7632,10.6484,4.8462,12.9746,8.127c0.9482,1.3389,1.8447,2.6025,2.9424,3.4551
		c0.2178,0.1689,0.2578,0.4834,0.0879,0.7012C20.7139,15.6699,20.5654,15.7363,20.417,15.7363z"/>
</g>
<rect x="0.0142" y="0.0346" fill="none" width="24" height="24"/>
</svg>
