<?xml version="1.0" encoding="utf-8"?>
<!-- Generator: Adobe Illustrator 18.1.0, SVG Export Plug-In . SVG Version: 6.00 Build 0)  -->
<svg version="1.1" id="Layer_1" xmlns="http://www.w3.org/2000/svg" xmlns:xlink="http://www.w3.org/1999/xlink" x="0px" y="0px"
	 width="24px" height="24px" viewBox="0 0 24 24" enable-background="new 0 0 24 24" xml:space="preserve">
<g>
	<path d="M18.4209,24H5.5498c-0.8794,0-1.9897-0.3057-2.4868-0.9893c-0.2476-0.3398-0.3145-0.7422-0.1885-1.1318l1.3281-3.9492
		c0.0884-0.2607,0.3711-0.4004,0.6338-0.3145c0.2617,0.0879,0.4023,0.3711,0.3145,0.6328l-1.3267,3.9434
		c-0.0215,0.0664-0.0229,0.1348,0.0474,0.2314C4.0781,22.7061,4.7622,23,5.5498,23h12.8711c0.7812,0,1.5156-0.3135,1.7119-0.6064
		c0.0547-0.082,0.0439-0.126,0.0244-0.1709l-1.3379-3.959c-0.0889-0.2617,0.0518-0.5459,0.3135-0.6338
		c0.2617-0.0869,0.5459,0.0537,0.6338,0.3135l1.3271,3.9287c0.1416,0.3418,0.0996,0.7354-0.1299,1.0781
		C20.4805,23.6719,19.3066,24,18.4209,24z"/>
	<path d="M11.9854,18.9951c-5.1377,0-9.3174-4.1797-9.3174-9.3179c0-5.1377,4.1797-9.3174,9.3174-9.3174
		s9.3174,4.1797,9.3174,9.3174C21.3027,14.8154,17.123,18.9951,11.9854,18.9951z M11.9854,1.3599
		c-4.5864,0-8.3174,3.731-8.3174,8.3174s3.731,8.3179,8.3174,8.3179c4.5859,0,8.3174-3.7314,8.3174-8.3179
		S16.5713,1.3599,11.9854,1.3599z"/>
	<path d="M11.9849,15.4307c-1.981,0-3.5923-1.6113-3.5923-3.5923s1.6113-3.5928,3.5923-3.5928s3.5923,1.6118,3.5923,3.5928
		S13.9658,15.4307,11.9849,15.4307z M11.9849,9.2456c-1.4292,0-2.5923,1.1631-2.5923,2.5928c0,1.4292,1.1631,2.5923,2.5923,2.5923
		s2.5923-1.1631,2.5923-2.5923C14.5771,10.4087,13.4141,9.2456,11.9849,9.2456z"/>
	<path d="M11.9849,13.5654c-0.9526,0-1.7275-0.7744-1.7275-1.7271s0.7749-1.7275,1.7275-1.7275s1.7271,0.7749,1.7271,1.7275
		S12.9375,13.5654,11.9849,13.5654z M11.9849,11.1108c-0.4014,0-0.7275,0.3262-0.7275,0.7275c0,0.4009,0.3262,0.7271,0.7275,0.7271
		c0.4009,0,0.7271-0.3262,0.7271-0.7271C12.7119,11.437,12.3857,11.1108,11.9849,11.1108z"/>
</g>
<rect x="-0.0136" fill="none" width="24" height="24"/>
</svg>
