<?xml version="1.0" encoding="utf-8"?>
<!-- Generator: Adobe Illustrator 18.1.0, SVG Export Plug-In . SVG Version: 6.00 Build 0)  -->
<svg version="1.1" id="Layer_1" xmlns="http://www.w3.org/2000/svg" xmlns:xlink="http://www.w3.org/1999/xlink" x="0px" y="0px"
	 width="24px" height="24px" viewBox="0 0 24 24" enable-background="new 0 0 24 24" xml:space="preserve">
<g>
	<path d="M20.5,22.001h-1c-0.2764,0-0.5-0.2236-0.5-0.5s0.2236-0.5,0.5-0.5H20v-17H7v0.5005c0,0.2764-0.2236,0.5-0.5,0.5
		S6,4.7778,6,4.5015V3.501c0-0.2764,0.2236-0.5,0.5-0.5h14c0.2764,0,0.5,0.2236,0.5,0.5v18C21,21.7773,20.7764,22.001,20.5,22.001z"
		/>
	<path d="M23.5,19.001h-1c-0.2764,0-0.5-0.2236-0.5-0.5s0.2236-0.5,0.5-0.5H23v-17H10v0.5c0,0.2764-0.2236,0.5-0.5,0.5
		S9,1.7773,9,1.501v-1c0-0.2764,0.2236-0.5,0.5-0.5h14c0.2764,0,0.5,0.2236,0.5,0.5v18C24,18.7773,23.7764,19.001,23.5,19.001z"/>
	<path d="M17.5,24.001h-14c-0.2764,0-0.5-0.2236-0.5-0.5v-17c0-0.2764,0.2236-0.5,0.5-0.5h14c0.2764,0,0.5,0.2236,0.5,0.5v17
		C18,23.7773,17.7764,24.001,17.5,24.001z M4,23.001h13v-16H4V23.001z"/>
	<path d="M10.5,17.501c-0.2764,0-0.5-0.2236-0.5-0.5v-5c0-0.2764,0.2236-0.5,0.5-0.5s0.5,0.2236,0.5,0.5v5
		C11,17.2773,10.7764,17.501,10.5,17.501z"/>
	<path d="M13,15.001H8c-0.2764,0-0.5-0.2236-0.5-0.5s0.2236-0.5,0.5-0.5h5c0.2764,0,0.5,0.2236,0.5,0.5S13.2764,15.001,13,15.001z"
		/>
</g>
<rect y="0.001" fill="none" width="24" height="24"/>
</svg>
