<?xml version="1.0" encoding="utf-8"?>
<!-- Generator: Adobe Illustrator 18.1.0, SVG Export Plug-In . SVG Version: 6.00 Build 0)  -->
<svg version="1.1" id="Layer_1" xmlns="http://www.w3.org/2000/svg" xmlns:xlink="http://www.w3.org/1999/xlink" x="0px" y="0px"
	 width="24px" height="24px" viewBox="0 0 24 24" enable-background="new 0 0 24 24" xml:space="preserve">
<g>
	<path d="M7.5498,22.1055c-0.687,0-1.2461-0.5518-1.2471-1.2295c0-0.6787,0.5591-1.2314,1.2461-1.2334
		c0.689,0.002,1.248,0.5537,1.248,1.2314C8.7959,21.5537,8.2368,22.1055,7.5498,22.1055z M7.5488,20.6426
		c-0.1348,0-0.2461,0.1045-0.2461,0.2324c0,0.2539,0.4941,0.2549,0.4941-0.001C7.7969,20.7471,7.6855,20.6426,7.5488,20.6426z"/>
	<path d="M7.5107,23.8535c-1.8594,0-3.3721-1.4854-3.3721-3.3105L4.9009,9.7046C3.8838,9.0269,1.6455,7.2778,1.646,5.0117
		C1.6455,3.0874,2.6211,1.2993,4.2559,0.228C4.4102,0.1279,4.606,0.1196,4.7676,0.2065c0.1616,0.0874,0.2622,0.2563,0.2622,0.4399
		V3.917L6.2334,5.71l2.5547-0.0005L9.9917,3.917l0.0005-3.2715c0-0.1836,0.1011-0.3525,0.2627-0.4395
		c0.1621-0.0864,0.3579-0.0786,0.5112,0.022c1.6343,1.0708,2.6099,2.8589,2.6108,4.7832c-0.001,2.2656-2.2393,4.0156-3.2563,4.6929
		l0.7612,10.8037C10.8833,22.3682,9.3706,23.8535,7.5107,23.8535z M4.0298,1.6934C3.1499,2.5723,2.6455,3.7573,2.646,5.0117
		C2.6455,6.979,4.9712,8.5767,5.6841,9.0195c0.1577,0.0981,0.248,0.2749,0.2349,0.46L5.1372,20.5781
		c0.0015,1.2393,1.0654,2.2754,2.3735,2.2754s2.3726-1.0361,2.3726-2.3105L9.1025,9.4795c-0.0132-0.1851,0.0771-0.3618,0.2344-0.46
		c0.7129-0.4429,3.0391-2.0415,3.04-4.0083c-0.001-1.2539-0.5054-2.4395-1.3848-3.3184l-0.0005,2.3765
		c0,0.0996-0.0298,0.1963-0.085,0.2788l-1.437,2.1401C9.377,6.6265,9.2212,6.7095,9.0547,6.7095L5.9668,6.71
		c-0.1665,0-0.3223-0.083-0.415-0.2212l-1.437-2.1406c-0.0557-0.0825-0.085-0.1797-0.085-0.2788V1.6934z"/>
	<path d="M17.543,23.8896c-1.9502,0-3.5371-1.3115-3.5371-2.9238v-5.6611c0-0.1953,0.1133-0.373,0.291-0.4541
		c0.3691-0.1699,0.5986-0.4619,0.5986-0.7627s-0.2295-0.5928-0.5986-0.7627c-0.1777-0.0811-0.291-0.2588-0.291-0.4541v-2.0728
		c0-0.2764,0.2236-0.5,0.5-0.5h6.0742c0.2764,0,0.5,0.2236,0.5,0.5v2.0728c0,0.1953-0.1133,0.373-0.291,0.4541
		c-0.3691,0.1699-0.5986,0.4619-0.5986,0.7627s0.2295,0.5928,0.5986,0.7627c0.1777,0.0811,0.291,0.2588,0.291,0.4541v5.6611
		C21.0801,22.5781,19.4932,23.8896,17.543,23.8896z M15.0059,15.5996v5.3662c0,1.0605,1.1377,1.9238,2.5371,1.9238
		s2.5371-0.8633,2.5371-1.9238v-5.3662c-0.5557-0.3574-0.8896-0.9141-0.8896-1.5117s0.334-1.1543,0.8896-1.5117v-1.2778h-5.0742
		v1.2778c0.5557,0.3574,0.8896,0.9141,0.8896,1.5117S15.5615,15.2422,15.0059,15.5996z"/>
	<path d="M17.543,11.2983c-0.2764,0-0.5-0.2236-0.5-0.5V3.0786c0-0.2764,0.2236-0.5,0.5-0.5s0.5,0.2236,0.5,0.5v7.7197
		C18.043,11.0747,17.8193,11.2983,17.543,11.2983z"/>
	<path d="M18.1475,3.5786h-1.209c-0.2178,0-0.4111-0.1416-0.4766-0.3496l-0.4658-1.4761c-0.0361-0.1133-0.0303-0.2354,0.0156-0.3447
		l0.4658-1.104c0.0781-0.1851,0.2598-0.3057,0.4609-0.3057h1.209c0.2012,0,0.3828,0.1206,0.4609,0.3057l0.4658,1.104
		c0.0459,0.1094,0.0518,0.2314,0.0156,0.3447L18.624,3.229C18.5586,3.437,18.3652,3.5786,18.1475,3.5786z M17.3047,2.5786h0.4766
		l0.2998-0.9512l-0.2656-0.6289h-0.5449l-0.2656,0.6289L17.3047,2.5786z"/>
	<path d="M17.543,21.374c-0.2764,0-0.5-0.2236-0.5-0.5v-4.6865c0-0.2764,0.2236-0.5,0.5-0.5s0.5,0.2236,0.5,0.5v4.6865
		C18.043,21.1504,17.8193,21.374,17.543,21.374z"/>
</g>
<rect fill="none" width="24" height="24"/>
</svg>
