<?xml version="1.0" encoding="utf-8"?>
<!-- Generator: Adobe Illustrator 18.1.0, SVG Export Plug-In . SVG Version: 6.00 Build 0)  -->
<svg version="1.1" id="Layer_1" xmlns="http://www.w3.org/2000/svg" xmlns:xlink="http://www.w3.org/1999/xlink" x="0px" y="0px"
	 width="24px" height="24px" viewBox="0 0 24 24" enable-background="new 0 0 24 24" xml:space="preserve">
<g>
	<path d="M4.4888,10.0972c-1.9395,0-3.501-2.3091-3.501-4.2207c0-1.8706,1.4438-5.3262,3.501-5.3262
		c2.0576,0,3.5015,3.4556,3.5015,5.3262C7.9902,7.7881,6.4282,10.0972,4.4888,10.0972z M4.4888,1.5503
		c-1.2402,0-2.501,2.7754-2.501,4.3262c0,1.4194,1.1777,3.2207,2.501,3.2207c1.3237,0,2.5015-1.8013,2.5015-3.2207
		C6.9902,4.3257,5.7295,1.5503,4.4888,1.5503z"/>
	<path d="M20.2363,13.1221c0,0-0.0684,0-0.0693,0c-1.0527,0-2.1045-0.5859-2.1045-2.2305c0-1.5522-0.0078-2.8755-0.0146-4.0024
		c-0.0273-4.6128-0.0352-5.8525,0.5732-6.4639c0.2217-0.2236,0.5156-0.332,0.8975-0.332c1.6758,0,1.8047,1.8091,1.8477,2.4033
		l0.7646,8.8843c0.002,0.7617-0.209,1.2402-0.6416,1.5059C21.1045,13.1221,20.623,13.1221,20.2363,13.1221z M19.5186,1.0933
		c-0.1006,0-0.1641,0.0122-0.1885,0.0371c-0.3145,0.3164-0.3027,2.2476-0.2822,5.7529c0.0068,1.1289,0.0146,2.4541,0.0146,4.0083
		c0,0.8281,0.3389,1.2305,1.0352,1.2305h0.1387c0.248,0,0.5869,0,0.7305-0.0879c0.1377-0.084,0.166-0.3784,0.166-0.6104
		l-0.7637-8.8486C20.2637,1.0933,19.7969,1.0933,19.5186,1.0933z"/>
	<path d="M18.5625,23.9697c-0.2764,0-0.5-0.2236-0.5-0.5V2.3833c0-0.2764,0.2236-0.5,0.5-0.5s0.5,0.2236,0.5,0.5v21.0864
		C19.0625,23.7461,18.8389,23.9697,18.5625,23.9697z"/>
	<path d="M4.4893,23.9697c-0.2759,0-0.5-0.2236-0.5-0.5L3.9888,9.5972c0-0.2764,0.2236-0.5,0.5-0.5s0.5,0.2236,0.5,0.5
		l0.0005,13.8726C4.9893,23.7461,4.7656,23.9697,4.4893,23.9697z"/>
	<path d="M12.5615,23.9775c-0.2764,0-0.5-0.2236-0.5-0.5V8.9946c0-0.2764,0.2236-0.5,0.5-0.5s0.5,0.2236,0.5,0.5v14.4829
		C13.0615,23.7539,12.8379,23.9775,12.5615,23.9775z"/>
	<path d="M12.5615,6.0229c-0.2764,0-0.5-0.2236-0.5-0.5V1.0503c0-0.2764,0.2236-0.5,0.5-0.5s0.5,0.2236,0.5,0.5v4.4727
		C13.0615,5.7993,12.8379,6.0229,12.5615,6.0229z"/>
	<path d="M14.8125,6.0967c-0.2764,0-0.5-0.2236-0.5-0.5V1.0503c0-0.2764,0.2236-0.5,0.5-0.5s0.5,0.2236,0.5,0.5v4.5464
		C15.3125,5.873,15.0889,6.0967,14.8125,6.0967z"/>
	<path d="M10.311,6.0967c-0.2764,0-0.5-0.2236-0.5-0.5V1.0503c0-0.2764,0.2236-0.5,0.5-0.5s0.5,0.2236,0.5,0.5v4.5464
		C10.811,5.873,10.5874,6.0967,10.311,6.0967z"/>
	<path d="M12.6475,9.4946h-0.1719c-1.4692,0-2.6646-1.1953-2.6646-2.6646V5.5229c0-0.2764,0.2236-0.5,0.5-0.5h4.5015
		c0.2764,0,0.5,0.2236,0.5,0.5v1.3071C15.3125,8.2993,14.1172,9.4946,12.6475,9.4946z M10.811,6.0229v0.8071
		c0,0.918,0.7466,1.6646,1.6646,1.6646h0.1719c0.918,0,1.665-0.7466,1.665-1.6646V6.0229H10.811z"/>
</g>
<rect x="0.0142" y="0.0346" fill="none" width="24" height="24"/>
</svg>
