<?xml version="1.0" encoding="utf-8"?>
<!-- Generator: Adobe Illustrator 18.1.1, SVG Export Plug-In . SVG Version: 6.00 Build 0)  -->
<svg version="1.1" id="Layer_1" xmlns="http://www.w3.org/2000/svg" xmlns:xlink="http://www.w3.org/1999/xlink" x="0px" y="0px"
	 width="24px" height="24px" viewBox="0 0 24 24" enable-background="new 0 0 24 24" xml:space="preserve">
<rect fill="none" width="24" height="24"/>
<path d="M18,7c-0.3658,0-0.7046,0.106-1,0.2783V5c0-1.103-0.8975-2-2-2c-0.3658,0-0.7046,0.106-1,0.2783V3c0-1.103-0.8975-2-2-2
	c-1.103,0-2,0.897-2,2v0.2781C9.7047,3.1059,9.3659,3,9,3C7.897,3,7,3.897,7,5v9.6687l-1.9614-3.323
	c-0.2192-0.3452-0.584-0.5728-1.0264-0.6406c-0.5132-0.0776-1.0483,0.0684-1.4307,0.3901
	c-0.5762,0.4868-0.7212,1.3149-0.3828,1.8882c0.0776,0.2168,1.9209,5.3447,4.2808,8.0869c0.0107,0.0088,1.0688,0.9502,1.3037,2.1973
	c0.0449,0.2402,0.2549,0.4072,0.4907,0.4072c0.0308,0,0.0615-0.0029,0.0928-0.0088c0.2715-0.0508,0.4502-0.3125,0.3989-0.584
	c-0.2993-1.5918-1.5698-2.7139-1.5776-2.7139C5,17.8184,3.1592,12.6992,3.1035,12.5664c-0.1353-0.2354-0.083-0.5332,0.1235-0.7075
	c0.1597-0.1353,0.4087-0.1982,0.6338-0.1655c0.0884,0.0137,0.25,0.0562,0.3271,0.1777l2.8804,4.8818
	c0.0107,0.0182,0.0281,0.0289,0.0406,0.0453c0.0212,0.0278,0.0422,0.0538,0.0688,0.0766c0.0234,0.0199,0.0481,0.035,0.0743,0.0501
	c0.0294,0.0172,0.0581,0.0325,0.0909,0.0435c0.0301,0.01,0.0602,0.0142,0.0917,0.0184C7.457,16.9899,7.4768,17,7.5,17
	c0.012,0,0.022-0.006,0.0338-0.0068c0.0312-0.002,0.0607-0.0104,0.0916-0.0184c0.0339-0.009,0.0667-0.0173,0.0974-0.0329
	c0.0098-0.0048,0.0206-0.0047,0.0302-0.0102c0.0185-0.0109,0.0294-0.0283,0.046-0.0411c0.0273-0.0209,0.0528-0.0414,0.0753-0.0673
	c0.0212-0.0247,0.0372-0.0508,0.053-0.0787c0.0158-0.0275,0.0302-0.0542,0.0406-0.0847c0.0112-0.033,0.0161-0.0659,0.0203-0.1006
	C7.9905,16.5389,8,16.521,8,16.5V5c0-0.5513,0.4487-1,1-1s1,0.4487,1,1v7.5c0,0.2764,0.2236,0.5,0.5,0.5s0.5-0.2236,0.5-0.5V5V3
	c0-0.5513,0.4487-1,1-1c0.5518,0,1,0.4487,1,1v2v7.5c0,0.2764,0.2236,0.5,0.5,0.5s0.5-0.2236,0.5-0.5V5c0-0.5513,0.4482-1,1-1
	s1,0.4487,1,1v4v4.5c0,0.2764,0.2236,0.5,0.5,0.5s0.5-0.2236,0.5-0.5V9c0-0.5513,0.4482-1,1-1c0.623,0,0.6904,0.7324,0.6904,1.0308
	c-0.0703,2.1147-0.4385,7.9536-1.2842,9.5493c-1.0127,1.9131-1.3008,3.8135-1.3779,4.542
	c-0.0293,0.2744,0.1699,0.5205,0.4443,0.5498c0.0176,0.002,0.0361,0.0029,0.0537,0.0029c0.252,0,0.4688-0.1904,0.4961-0.4473
	c0.0713-0.6709,0.3369-2.4209,1.2676-4.1797c1.126-2.125,1.3896-9.6641,1.4004-10.0005C19.6904,7.8037,19.0273,7,18,7z"/>
</svg>
