<?xml version="1.0" encoding="utf-8"?>
<!-- Generator: Adobe Illustrator 18.1.0, SVG Export Plug-In . SVG Version: 6.00 Build 0)  -->
<svg version="1.1" id="Layer_1" xmlns="http://www.w3.org/2000/svg" xmlns:xlink="http://www.w3.org/1999/xlink" x="0px" y="0px"
	 width="24px" height="24px" viewBox="0 0 24 24" enable-background="new 0 0 24 24" xml:space="preserve">
<g>
	<path d="M15.6924,8.0083c-0.0234,0-0.0459-0.0015-0.0693-0.0049c-0.2734-0.0376-0.4648-0.29-0.4268-0.5635
		c0.0654-0.4731-0.1299-0.9819-0.3369-1.5205C14.6426,5.356,14.3945,4.71,14.4668,4.0371C14.0684,4.5522,13.876,5.168,13.8633,5.21
		c-0.0586,0.189-0.2217,0.3262-0.418,0.3496c-0.208,0.0254-0.3887-0.0703-0.4893-0.2393c-0.4365-0.7295-0.6709-1.8857-0.7236-3.6055
		c-0.6792,0.7236-0.8267,1.8545-0.96,2.8745c-0.1055,0.8081-0.1968,1.5059-0.5439,1.9673C10.6704,6.6338,10.5908,6.6929,10.5,6.7256
		c-0.1294,0.0469-0.2773,0.041-0.3994-0.0181C9.9785,6.6475,9.8779,6.5435,9.8369,6.4141C9.7495,6.1411,9.3628,5.5864,8.9775,5.0845
		C8.9644,5.4033,8.9268,5.7231,8.8896,6.0386C8.8301,6.543,8.7739,7.019,8.8179,7.459c0.0273,0.2749-0.1733,0.5195-0.4482,0.5469
		c-0.2651,0.0269-0.52-0.1729-0.5469-0.4482C7.7686,7.0098,7.8335,6.4565,7.8965,5.9219c0.0845-0.7188,0.1641-1.3979-0.061-1.9404
		C7.752,3.7798,7.833,3.4551,8.0005,3.3145C8.2061,3.144,8.4941,3.125,8.7207,3.27c0.1685,0.1113,0.9194,0.9854,1.4761,1.7896
		c0.0308-0.1924,0.0576-0.397,0.084-0.5996c0.1768-1.3511,0.4185-3.2017,2.0571-4.0649c0.1855-0.0991,0.415-0.0923,0.5977,0.0171
		c0.1504,0.0903,0.2852,0.3247,0.2852,0.5c0,0.519,0,1.8037,0.2236,2.8506c0.3896-0.6172,1.0068-1.2734,1.916-1.4062
		c0.252-0.0381,0.5049,0.0864,0.623,0.3154c0.0986,0.1914,0.0488,0.5166-0.1016,0.6704C15.2383,4.0015,15.418,4.5854,15.793,5.561
		c0.2314,0.6035,0.4941,1.2876,0.3936,2.0156C16.1523,7.8271,15.9375,8.0083,15.6924,8.0083z"/>
	<path d="M7.7729,21.4912c-0.0815,0-0.1646-0.0205-0.2412-0.0625C7.29,21.2949,7.2021,20.9912,7.3359,20.749l2.9409-5.3203
		c0.1333-0.2412,0.437-0.3291,0.6792-0.1953c0.2417,0.1338,0.3296,0.4375,0.1958,0.6797l-2.9409,5.3203
		C8.1196,21.3984,7.9492,21.4912,7.7729,21.4912z"/>
	<path d="M17.124,23.8467c-0.1875,0-0.3682-0.1064-0.4531-0.2881l-3.5928-7.6758c-0.1172-0.25-0.0088-0.5479,0.2412-0.665
		c0.248-0.1172,0.5479-0.0098,0.665,0.2412l3.5928,7.6758c0.1172,0.25,0.0088,0.5479-0.2412,0.665
		C17.2676,23.832,17.1953,23.8467,17.124,23.8467z"/>
	<path d="M16.2686,22.0195H8.2153c-0.2764,0-0.5-0.2236-0.5-0.5s0.2236-0.5,0.5-0.5h8.0532c0.2764,0,0.5,0.2236,0.5,0.5
		S16.5449,22.0195,16.2686,22.0195z"/>
	<path d="M12.123,16.3525c-3.8481,0-6.833-3.6729-6.833-6.833c0-0.2764,0.2236-0.5,0.5-0.5h12.666c0.2764,0,0.5,0.2236,0.5,0.5
		C18.9561,12.6797,15.9717,16.3525,12.123,16.3525z M6.3184,10.0195c0.2866,2.5703,2.7212,5.333,5.8047,5.333
		c3.084,0,5.5176-2.7627,5.8047-5.333H6.3184z"/>
	<path d="M9.104,13.4473c-0.1294,0-0.2588-0.0498-0.3569-0.1494c-0.5869-0.5986-1.0068-1.3228-1.2129-2.0952
		c-0.0713-0.2666,0.0869-0.5405,0.354-0.6118c0.2651-0.0703,0.5405,0.0869,0.6118,0.354c0.1621,0.6055,0.4941,1.1772,0.9609,1.6519
		c0.1934,0.1973,0.1904,0.5137-0.0068,0.707C9.3569,13.3994,9.2305,13.4473,9.104,13.4473z"/>
	<path d="M6.9922,23.8467c-0.9971,0-1.8081-0.8115-1.8081-1.8086s0.811-1.8076,1.8081-1.8076s1.8081,0.8105,1.8081,1.8076
		S7.9893,23.8467,6.9922,23.8467z M6.9922,21.2305c-0.4458,0-0.8081,0.3623-0.8081,0.8076c0,0.4463,0.3623,0.8086,0.8081,0.8086
		s0.8081-0.3623,0.8081-0.8086C7.8003,21.5928,7.438,21.2305,6.9922,21.2305z"/>
	<path d="M5.79,10.0195H5.0029c-0.2764,0-0.5-0.2236-0.5-0.5s0.2236-0.5,0.5-0.5H5.79c0.2764,0,0.5,0.2236,0.5,0.5
		S6.0664,10.0195,5.79,10.0195z"/>
	<path d="M20.4424,12.0195h-2.3799c-0.2764,0-0.5-0.2236-0.5-0.5s0.2236-0.5,0.5-0.5h2.3799c0.2764,0,0.5,0.2236,0.5,0.5
		S20.7188,12.0195,20.4424,12.0195z"/>
</g>
<rect y="0.0197" fill="none" width="24" height="24"/>
</svg>
