<?xml version="1.0" encoding="utf-8"?>
<!-- Generator: Adobe Illustrator 18.1.0, SVG Export Plug-In . SVG Version: 6.00 Build 0)  -->
<svg version="1.1" id="Layer_1" xmlns="http://www.w3.org/2000/svg" xmlns:xlink="http://www.w3.org/1999/xlink" x="0px" y="0px"
	 width="24px" height="24px" viewBox="0 0 24 24" enable-background="new 0 0 24 24" xml:space="preserve">
<g>
	<path d="M11.9897,23.7207c-6.4414,0-11.6816-5.2402-11.6816-11.6816c0-6.4409,5.2402-11.6812,11.6816-11.6812
		c6.4419,0,11.6821,5.2402,11.6821,11.6812C23.6719,18.4805,18.4316,23.7207,11.9897,23.7207z M11.9897,1.3579
		c-5.8896,0-10.6816,4.7915-10.6816,10.6812s4.792,10.6816,10.6816,10.6816c5.8901,0,10.6821-4.792,10.6821-10.6816
		S17.8799,1.3579,11.9897,1.3579z"/>
	<path d="M10.1382,14.3623c-2.3188,0-4.2056-1.8867-4.2056-4.2051c0-2.3193,1.8867-4.2061,4.2056-4.2061
		s4.2056,1.8867,4.2056,4.2061C14.3438,12.4756,12.457,14.3623,10.1382,14.3623z M10.1382,6.9512
		c-1.7676,0-3.2056,1.438-3.2056,3.2061c0,1.7671,1.438,3.2051,3.2056,3.2051s3.2056-1.438,3.2056-3.2051
		C13.3438,8.3892,11.9058,6.9512,10.1382,6.9512z"/>
	<path d="M17.1895,17.708c-0.1279,0-0.2559-0.0488-0.3535-0.1465l-4.4316-4.4307c-0.1953-0.1953-0.1953-0.5117,0-0.707
		s0.5117-0.1953,0.707,0l4.4316,4.4307c0.1953,0.1953,0.1953,0.5117,0,0.707C17.4453,17.6592,17.3174,17.708,17.1895,17.708z"/>
</g>
<rect fill="none" width="24" height="24"/>
</svg>
