<?xml version="1.0" encoding="utf-8"?>
<!-- Generator: Adobe Illustrator 18.1.0, SVG Export Plug-In . SVG Version: 6.00 Build 0)  -->
<svg version="1.1" id="Layer_1" xmlns="http://www.w3.org/2000/svg" xmlns:xlink="http://www.w3.org/1999/xlink" x="0px" y="0px"
	 width="24px" height="24px" viewBox="0 0 24 24" enable-background="new 0 0 24 24" xml:space="preserve">
<g>
	<path fill="none" stroke="#000000" stroke-linecap="round" stroke-linejoin="round" stroke-miterlimit="10" d="M8.1151,21.9785"/>
	<path d="M17.96,12.7246c-0.1279,0-0.2559-0.0488-0.3535-0.1465c-0.1953-0.1953-0.1953-0.5117,0-0.707l0,0
		c0.2588-0.2583,0.4707-0.6284,0.0869-1.4136c-0.3828-0.7837-1.2334-1.6802-1.8398-2.2866
		C14.9746,7.292,13.7031,6.123,12.8164,6.123c-0.251,0-0.4609,0.0938-0.6621,0.2954l0,0c-0.1953,0.1953-0.5122,0.1953-0.7075,0
		s-0.1953-0.5117,0-0.707c0.0015-0.0015,0.0029-0.0029,0.0044-0.0044l3.9775-3.978c0.917-0.917,2.1367-1.4224,3.4336-1.4224
		c1.2979,0,2.5166,0.5054,3.4336,1.4224s1.4229,2.1362,1.4229,3.4336c0,1.2969-0.5059,2.5166-1.4229,3.4336l-3.9785,3.978
		c-0.001,0.001-0.0029,0.0029-0.0039,0.0039C18.2158,12.6758,18.0879,12.7246,17.96,12.7246z M13.375,5.1978
		c1.0752,0.2769,2.2002,1.2808,3.1855,2.2661c1.0586,1.0581,1.6855,1.8462,2.0312,2.5542c0.1094,0.2246,0.1865,0.4351,0.2363,0.6318
		l2.7607-2.7607c0.7285-0.7285,1.1299-1.6968,1.1299-2.7266c0-1.0303-0.4014-1.9985-1.1299-2.7266
		c-1.457-1.4561-3.9961-1.4561-5.4531,0L13.375,5.1978z"/>
	<path d="M5.0806,23.7969c-1.2437,0-2.4873-0.4736-3.4341-1.4199c-1.311-1.3115-1.7617-3.291-1.1479-5.043L8.6924,2.4238
		c0.1323-0.2422,0.436-0.3301,0.6792-0.1968c0.2417,0.1328,0.3301,0.437,0.1968,0.6792l-8.1602,14.834
		c-0.4536,1.3164-0.0957,2.8887,0.9453,3.9297c1.5044,1.5049,3.9507,1.5029,5.4541,0c1.103-1.1035,1.4297-2.6904,0.8525-4.1426
		c-0.5806-1.46-1.9097-2.3945-3.4683-2.4385c-0.2759-0.0078-0.4937-0.2383-0.4858-0.5146c0.0078-0.2754,0.2432-0.4873,0.5142-0.4854
		c1.9644,0.0557,3.6387,1.2324,4.3691,3.0693c0.7275,1.8291,0.3154,3.8291-1.0747,5.2188
		C7.5679,23.3232,6.3242,23.7969,5.0806,23.7969z"/>
	<path d="M18.8203,7.3594c-1.1885,0-2.1553-0.9668-2.1553-2.1548s0.9668-2.1548,2.1553-2.1548c1.1875,0,2.1543,0.9668,2.1543,2.1548
		S20.0078,7.3594,18.8203,7.3594z M18.8203,4.0498c-0.6367,0-1.1553,0.5181-1.1553,1.1548s0.5186,1.1548,1.1553,1.1548
		s1.1543-0.5181,1.1543-1.1548S19.457,4.0498,18.8203,4.0498z"/>
	<path d="M8.1611,22.5234c-0.1279,0-0.2559-0.0488-0.3535-0.1465c-0.1953-0.1953-0.1953-0.5117,0-0.707l9.7988-9.7988
		c0.1953-0.1953,0.5117-0.1953,0.707,0s0.1953,0.5117,0,0.707L8.5146,22.377C8.417,22.4746,8.2891,22.5234,8.1611,22.5234z"/>
</g>
<rect x="0.0142" y="0.0354" fill="none" width="24" height="24"/>
</svg>
