<?xml version="1.0" encoding="utf-8"?>
<!-- Generator: Adobe Illustrator 18.1.0, SVG Export Plug-In . SVG Version: 6.00 Build 0)  -->
<svg version="1.1" id="Layer_1" xmlns="http://www.w3.org/2000/svg" xmlns:xlink="http://www.w3.org/1999/xlink" x="0px" y="0px"
	 width="24px" height="24px" viewBox="0 0 24 24" enable-background="new 0 0 24 24" xml:space="preserve">
<g>
	<path d="M18.792,24H5.3804c-1.2676,0-2.3799-1.0156-2.3799-2.1738V7.3657c0-0.2856,0.1182-0.7251,1.4663-2.3047L3.1323,2.8071
		c-0.1406-0.2378-0.062-0.5444,0.1753-0.6851C3.5469,1.981,3.853,2.0605,3.9927,2.2974l1.5176,2.563
		c0.1099,0.1855,0.0884,0.4204-0.0532,0.583C4.1489,6.9468,4.0117,7.3369,3.9976,7.3999l0.0029,14.4263
		C4.0005,22.498,4.729,23,5.3804,23H18.792C19.4697,23,20,22.4844,20,21.8262V5.1323C20,4.4067,17.9248,2.0059,17.292,2h-5.8818
		c-0.3003,0-0.7544,0-1.6235,0.856C9.6929,2.9482,9.5669,3,9.4355,3H6.936C6.7705,3,6.6162,2.9185,6.5229,2.7817L5.4785,1.249
		C5.3228,1.0205,5.3818,0.7095,5.6099,0.5542c0.228-0.1567,0.5396-0.0977,0.6948,0.1313L7.2002,2h2.0347c1.0767-1,1.7861-1,2.1753-1
		h5.8818C18.5283,1,21,3.9653,21,5.1323v16.6938C21,23.0244,20.0098,24,18.792,24z"/>
	<path d="M14.6855,16H9.3154c-0.7251,0-1.3149-0.5898-1.3149-1.3145v-1.3711C8.0005,12.5898,8.5903,12,9.3154,12h5.3701
		c0.7256,0,1.3154,0.5898,1.3154,1.3145v1.3711C16.001,15.4102,15.4111,16,14.6855,16z M9.3154,13
		c-0.1738,0-0.3149,0.1406-0.3149,0.3145v1.3711C9.0005,14.8594,9.1416,15,9.3154,15h5.3701c0.1738,0,0.3154-0.1406,0.3154-0.3145
		v-1.3711c0-0.1738-0.1416-0.3145-0.3154-0.3145H9.3154z"/>
	<path d="M16.0068,11.4771c-0.083,0-0.167-0.0205-0.2441-0.0635c-0.2412-0.1348-0.3271-0.4395-0.1924-0.6802l1.918-3.4326
		c0.1357-0.2422,0.4404-0.3271,0.6807-0.1929c0.2412,0.1348,0.3271,0.4395,0.1924,0.6802l-1.918,3.4326
		C16.3516,11.3848,16.1816,11.4771,16.0068,11.4771z"/>
	<path d="M17.9248,20.876c-0.1748,0-0.3447-0.0918-0.4365-0.2559l-1.918-3.4326c-0.1348-0.2412-0.0488-0.5459,0.1924-0.6807
		c0.2393-0.1328,0.5449-0.0498,0.6807,0.1924l1.918,3.4326c0.1348,0.2412,0.0488,0.5459-0.1924,0.6807
		C18.0918,20.8555,18.0078,20.876,17.9248,20.876z"/>
	<path d="M7.9976,11.4771c-0.1753,0-0.3452-0.0923-0.437-0.2563l-1.918-3.4326C5.5078,7.5474,5.5942,7.2427,5.8354,7.1079
		c0.2407-0.1343,0.5449-0.0488,0.6802,0.1929l1.918,3.4326c0.1348,0.2407,0.0483,0.5454-0.1929,0.6802
		C8.1636,11.4565,8.0801,11.4771,7.9976,11.4771z"/>
	<path d="M6.0786,20.876c-0.0825,0-0.166-0.0205-0.2432-0.0635c-0.2412-0.1348-0.3276-0.4395-0.1929-0.6807l1.918-3.4326
		c0.1348-0.2422,0.439-0.3281,0.6802-0.1924c0.2412,0.1348,0.3276,0.4395,0.1929,0.6807l-1.918,3.4326
		C6.4238,20.7842,6.2539,20.876,6.0786,20.876z"/>
	<path d="M17.001,5h-5c-0.2764,0-0.5-0.2236-0.5-0.5s0.2236-0.5,0.5-0.5h5c0.2764,0,0.5,0.2236,0.5,0.5S17.2773,5,17.001,5z"/>
	<path d="M2.9971,3.437c-0.1602,0-0.3169-0.0767-0.4141-0.2188C2.4277,2.9897,2.4868,2.6792,2.7153,2.5234l3.3965-2.311
		c0.2285-0.1553,0.5386-0.0957,0.6948,0.1323c0.1553,0.2285,0.0962,0.5391-0.1323,0.6948l-3.3965,2.311
		C3.1919,3.4092,3.0938,3.437,2.9971,3.437z"/>
</g>
<rect x="0.0005" fill="none" width="24" height="24"/>
</svg>
