<?xml version="1.0" encoding="utf-8"?>
<!-- Generator: Adobe Illustrator 18.1.0, SVG Export Plug-In . SVG Version: 6.00 Build 0)  -->
<svg version="1.1" id="Layer_1" xmlns="http://www.w3.org/2000/svg" xmlns:xlink="http://www.w3.org/1999/xlink" x="0px" y="0px"
	 width="24px" height="24px" viewBox="0 0 24 24" enable-background="new 0 0 24 24" xml:space="preserve">
<g>
	<path d="M22.502,23.9746H1.4126c-0.7969,0-1.4453-0.6504-1.4453-1.4502V3.4653c0-0.7998,0.6484-1.4507,1.4453-1.4507h3.5679
		c0.1997,0,0.7891,0,1.7578,2.04H22.502c0.7969,0,1.4453,0.6509,1.4453,1.4507v17.019
		C23.9473,23.3242,23.2988,23.9746,22.502,23.9746z M1.4126,3.0146c-0.2456,0-0.4453,0.2021-0.4453,0.4507v19.0591
		c0,0.248,0.1997,0.4502,0.4453,0.4502H22.502c0.2451,0,0.4453-0.2021,0.4453-0.4502V5.5054c0-0.2485-0.2002-0.4507-0.4453-0.4507
		H6.4185c-0.1968,0-0.3755-0.1157-0.4561-0.2949C5.6079,3.9722,5.1309,3.1846,4.9102,3.0146H1.4126z"/>
	<path d="M23.4473,9.0254h-22.98c-0.2764,0-0.5-0.2236-0.5-0.5s0.2236-0.5,0.5-0.5h22.98c0.2764,0,0.5,0.2236,0.5,0.5
		S23.7236,9.0254,23.4473,9.0254z"/>
</g>
<rect y="0.0001" fill="none" width="24" height="24"/>
</svg>
