<?xml version="1.0" encoding="utf-8"?>
<!-- Generator: Adobe Illustrator 18.1.0, SVG Export Plug-In . SVG Version: 6.00 Build 0)  -->
<svg version="1.1" id="Layer_1" xmlns="http://www.w3.org/2000/svg" xmlns:xlink="http://www.w3.org/1999/xlink" x="0px" y="0px"
	 width="24px" height="24px" viewBox="0 0 24 24" enable-background="new 0 0 24 24" xml:space="preserve">
<g>
	<path d="M22.79,24H4.1831c-0.6597,0-1.1968-0.5371-1.1968-1.1973V4.1973C2.9863,3.5371,3.5234,3,4.1831,3H22.79
		c0.6592,0,1.1963,0.5371,1.1963,1.1973v18.6055C23.9863,23.4629,23.4492,24,22.79,24z M4.1831,4
		C4.0747,4,3.9863,4.0884,3.9863,4.1973v18.6055C3.9863,22.9111,4.0747,23,4.1831,23H22.79c0.1084,0,0.1963-0.0889,0.1963-0.1973
		V4.1973C22.9863,4.0884,22.8984,4,22.79,4H4.1831z"/>
	<path d="M1.1826,21c-0.6597,0-1.1963-0.5371-1.1963-1.1973V1.1973C-0.0137,0.5371,0.5229,0,1.1826,0h18.6064
		c0.6602,0,1.1973,0.5371,1.1973,1.1973c0,0.2764-0.2236,0.5-0.5,0.5s-0.5-0.2236-0.5-0.5C19.9863,1.0884,19.8975,1,19.7891,1
		H1.1826C1.0742,1,0.9863,1.0884,0.9863,1.1973v18.6055C0.9863,19.9111,1.0742,20,1.1826,20c0.2764,0,0.5,0.2236,0.5,0.5
		S1.459,21,1.1826,21z"/>
	<path d="M11.4863,18.1123c-0.2764,0-0.5-0.2236-0.5-0.5V8.853c0-0.2344,0.1631-0.4375,0.3921-0.4883L17.3789,7.04
		c0.1445-0.0337,0.3018,0.0029,0.4209,0.0986c0.1182,0.0947,0.1865,0.2383,0.1865,0.3896V16c0,0.2764-0.2236,0.5-0.5,0.5
		s-0.5-0.2236-0.5-0.5V8.1509l-5,1.104v8.3574C11.9863,17.8887,11.7627,18.1123,11.4863,18.1123z"/>
	<path d="M11.5405,12.002c-0.229,0-0.4355-0.1582-0.4878-0.3911c-0.0596-0.2695,0.1099-0.5371,0.3794-0.5972l5.9487-1.3247
		c0.2734-0.0591,0.5371,0.1108,0.5967,0.3794c0.0596,0.2695-0.1104,0.5371-0.3799,0.5972l-5.9478,1.3247
		C11.6133,11.998,11.5767,12.002,11.5405,12.002z"/>
	<path d="M9.627,19.8281c-0.8647,0-1.5552-0.4443-1.7588-1.1309c-0.2705-0.9131,0.4072-1.8984,1.5435-2.2432
		c1.1069-0.3369,2.2539,0.1289,2.5166,1.0156c0.271,0.9131-0.4067,1.8984-1.5435,2.2432
		C10.1348,19.7891,9.8794,19.8281,9.627,19.8281z M10.1694,17.3389c-0.1538,0-0.311,0.0244-0.4673,0.0723
		c-0.6338,0.1924-0.9697,0.6816-0.875,1.001c0.1016,0.3438,0.6992,0.5176,1.2671,0.3438c0.6343-0.1924,0.9702-0.6816,0.875-1.001
		C10.8955,17.5059,10.5742,17.3389,10.1694,17.3389z"/>
	<path d="M15.6445,18.124c-0.8643,0-1.5547-0.4443-1.7588-1.1309c-0.2705-0.9131,0.4072-1.8984,1.543-2.2441
		c1.1123-0.3369,2.2529,0.1289,2.5176,1.0156c0.2705,0.9131-0.4082,1.8984-1.5439,2.2441
		C16.1523,18.085,15.8975,18.124,15.6445,18.124z M16.1865,15.6348c-0.1543,0-0.3115,0.0234-0.4668,0.0713
		c-0.6338,0.1924-0.9697,0.6826-0.875,1.002c0.1006,0.3428,0.6973,0.5186,1.2666,0.3438c0.6338-0.1934,0.9707-0.6836,0.876-1.002
		C16.9141,15.8018,16.5918,15.6348,16.1865,15.6348z"/>
</g>
<rect x="-0.0136" y="0.0002" fill="none" width="24" height="24"/>
</svg>
