<?xml version="1.0" encoding="utf-8"?>
<!-- Generator: Adobe Illustrator 18.1.0, SVG Export Plug-In . SVG Version: 6.00 Build 0)  -->
<svg version="1.1" id="Layer_1" xmlns="http://www.w3.org/2000/svg" xmlns:xlink="http://www.w3.org/1999/xlink" x="0px" y="0px"
	 width="24px" height="24px" viewBox="0 0 24 24" enable-background="new 0 0 24 24" xml:space="preserve">
<g>
	<path d="M16.2207,18.0449c-0.1328,0-0.2783-0.0068-0.4346-0.0244c-0.1328-0.0146-0.2529-0.082-0.3359-0.1865
		s-0.1211-0.2373-0.1045-0.3701c0.0127-0.1094,0.3398-2.7012,2.0566-3.8467c0.2275-0.1523,0.5391-0.0918,0.6934,0.1387
		c0.1533,0.2295,0.0908,0.54-0.1387,0.6934c-0.9189,0.6133-1.3398,1.8633-1.5127,2.5859c0.0986-0.0098,0.1797-0.0234,0.2412-0.0371
		c0.2803-0.5215,1.127-1.8018,2.8467-2.1729c1.04-0.2256,1.543-0.04,1.9482,0.1104c0.3564,0.1328,0.5947,0.2188,1.3389-0.0684
		c0.002-0.002,0.0039-0.0039,0.0059-0.0049c-0.0254-0.0107-0.1045-0.1807-0.4834-0.4893c-1.0439-0.8506-2.3174-0.6738-2.8154-0.5586
		c-0.1738,0.0391-0.3447-0.0127-0.4668-0.1338c-0.1221-0.1221-0.1729-0.2979-0.1338-0.4658c0.0479-0.207,0.0107-0.416-0.0967-0.5469
		c-0.0928-0.1113-0.2441-0.1699-0.4326-0.1572c-0.1992-0.0078-0.3916-0.1104-0.4746-0.2949l-2.249-4.9863
		c-0.0928-0.2061-0.0361-0.4487,0.1387-0.5918c0.1748-0.1445,0.4248-0.1519,0.6074-0.021c0.1865,0.1333,0.5723,0.2559,0.7949,0.2798
		l0.21-1.3618c-0.0186,0.0005-0.0361,0.001-0.0508,0.0015l-0.1699,0.0029c-0.7148,0-1.1299,0.1616-1.1709,0.3208
		c-0.0518,0.2026-0.2236,0.3511-0.4316,0.373c-0.2051,0.022-0.4072-0.0869-0.5-0.2744c-0.084-0.168-0.2363-0.1533-0.2949-0.1392
		c-0.0605,0.0137-0.2021,0.0654-0.2051,0.251c-0.0049,0.2759-0.207,0.52-0.5088,0.4912c-0.2764-0.0049-0.4961-0.2324-0.4912-0.5088
		c0.0098-0.5918,0.4062-1.0781,0.9844-1.209c0.3203-0.0728,0.6387-0.022,0.9033,0.1279c0.3193-0.248,0.8486-0.4326,1.7148-0.4326
		l0.1416-0.0029c0.3145-0.0063,0.6992-0.019,0.9512,0.2656c0.1377,0.1558,0.1953,0.3662,0.1611,0.5913l-0.2861,1.8608
		c-0.0391,0.2563-0.2031,0.4629-0.4492,0.5669c-0.1914,0.0811-0.4219,0.0918-0.6562,0.0635l1.6455,3.6479
		c0.3584,0.0581,0.667,0.2295,0.8896,0.5c0.1641,0.1992,0.2734,0.4443,0.3193,0.707c0.7988-0.0771,1.999,0,3.0527,0.8584
		c0.2402,0.1953,0.9688,0.7881,0.8281,1.4863c-0.0508,0.2529-0.1982,0.4619-0.4414,0.623
		c-0.0303,0.0234-0.0625,0.0439-0.0977,0.0596c-0.1279,0.0723-0.2764,0.1328-0.4473,0.1826
		c-0.0537,0.0156-0.1143,0.0215-0.1592,0.0205c-0.6807,0.1729-1.0869,0.0645-1.5205-0.0957
		c-0.3418-0.126-0.6348-0.2354-1.3916-0.0723c-1.6074,0.3477-2.2168,1.7422-2.2422,1.8018
		c-0.0479,0.1123-0.1367,0.2061-0.2471,0.2588C17.207,17.8838,16.8457,18.0449,16.2207,18.0449z M9.4956,18.0049
		c-0.0107,0-0.0215,0-0.0322-0.001l-7.4478-0.0088c-0.6851-0.0146-1.1802-0.0254-1.52-0.4814
		c-0.5122-0.6846-0.3867-1.8018,0.3726-3.3184c0.3896-0.7783,0.9683-1.4697,1.6289-1.96c-0.1934-0.4072-0.21-0.8628-0.0308-1.2764
		c0.2896-0.667,0.998-1.0664,1.8828-1.0381l6.2783,0.1245c1.144,0.0215,1.7212,0.6567,1.8804,1.2446
		c0.1904,0.7036-0.1328,1.4512-0.8032,1.8594c-0.3301,0.2949-1.0811,2.5947-1.3638,3.46c-0.0493,0.1504-0.0923,0.2812-0.1294,0.3945
		h2.4497l2.2256-5.249c0.0479-0.1597,0.1445-0.3174,0.2764-0.4512l-0.8828-2.7832c-0.084-0.2632,0.0625-0.5444,0.3252-0.6279
		c0.2656-0.0854,0.5449,0.062,0.6279,0.3252l0.9912,3.124c0.0762,0.2393-0.0371,0.4976-0.2646,0.604
		c-0.0391,0.0186-0.1074,0.062-0.1357,0.1519l-2.0771,4.9062h0.1055c0.2764,0,0.5,0.2236,0.5,0.5s-0.2236,0.5-0.5,0.5h-0.8486
		c-0.0078,0-0.0156,0-0.0234,0H9.5278C9.5171,18.0049,9.5063,18.0049,9.4956,18.0049z M4.2935,10.9204
		c-0.4517,0-0.7905,0.1616-0.9097,0.4365c-0.0923,0.2129-0.0283,0.4629,0.1719,0.6685c0.1079,0.1113,0.1582,0.2656,0.1367,0.4189
		c-0.022,0.1533-0.1133,0.2871-0.2476,0.3643c-0.6792,0.3867-1.2925,1.0557-1.6821,1.834
		c-0.6406,1.2793-0.6606,2.0127-0.4663,2.2725c0.0483,0.0654,0.3857,0.0723,0.7427,0.0801l0.3516,0.0078l6.7656,0.001
		c0.0664-0.1924,0.1533-0.459,0.2339-0.7051c0.8062-2.4678,1.2808-3.6963,1.7974-4.0049c0.2842-0.1738,0.4282-0.4727,0.3555-0.7427
		c-0.0835-0.3076-0.4326-0.4966-0.9346-0.5059l-6.2783-0.1245C4.3179,10.9204,4.3057,10.9204,4.2935,10.9204z"/>
	<path d="M20.2891,21.8223c-0.0215,0-0.043-0.001-0.0645-0.001c-1.541-0.0293-2.8965-1.0879-3.2959-2.5742
		c-0.0723-0.2666,0.0859-0.541,0.3525-0.6123c0.2715-0.0723,0.541,0.085,0.6123,0.3525c0.2852,1.0596,1.251,1.8135,2.3496,1.834
		c0.0146,0,0.0303,0.001,0.0459,0.001c1.3457,0,2.4541-1.083,2.4795-2.4355c0.0059-0.3408-0.0566-0.6738-0.1855-0.9873
		c-0.1055-0.2559,0.0166-0.5479,0.2715-0.6523c0.2568-0.1064,0.5479,0.0156,0.6523,0.2715
		c0.1816,0.4395,0.2695,0.9062,0.2617,1.3857C23.7324,20.3027,22.1777,21.8223,20.2891,21.8223z"/>
	<path d="M20.2881,20.291c-1.0684,0-1.9375-0.8691-1.9375-1.9375s0.8691-1.9375,1.9375-1.9375s1.9375,0.8691,1.9375,1.9375
		S21.3564,20.291,20.2881,20.291z M20.2881,17.416c-0.5166,0-0.9375,0.4209-0.9375,0.9375s0.4209,0.9375,0.9375,0.9375
		s0.9375-0.4209,0.9375-0.9375S20.8047,17.416,20.2881,17.416z"/>
	<path d="M8.3828,16.0684c-0.0063,0-0.0127,0-0.0186,0c-0.2759-0.0107-0.4917-0.2422-0.4814-0.5186
		c0.0312-0.8682-0.1699-1.5186-0.5977-1.9346c-0.604-0.585-1.5806-0.6523-2.2905-0.6055c-0.2681,0.0205-0.5142-0.1904-0.5322-0.4658
		s0.1904-0.5137,0.4658-0.5322c0.9185-0.0566,2.186,0.0439,3.0532,0.8867c0.6396,0.6201,0.9429,1.5254,0.9004,2.6885
		C8.8721,15.8564,8.6504,16.0684,8.3828,16.0684z"/>
	<path d="M11.3657,13.2881H9.499c-0.2764,0-0.5-0.2236-0.5-0.5s0.2236-0.5,0.5-0.5h1.8667c0.2764,0,0.5,0.2236,0.5,0.5
		S11.6421,13.2881,11.3657,13.2881z"/>
	<path d="M12.8027,8.6489c-0.168,0-0.333-0.085-0.4268-0.2397c-0.1436-0.2358-0.0693-0.5435,0.166-0.687l2.0986-1.2798
		c0.2363-0.144,0.5439-0.0698,0.6875,0.1665c0.1436,0.2358,0.0693,0.5435-0.166,0.687l-2.0986,1.2798
		C12.9814,8.6255,12.8916,8.6489,12.8027,8.6489z"/>
	<path d="M5.3535,21.8223c-0.022,0-0.0439-0.001-0.0659-0.001c-1.5229-0.0293-2.8325-1.042-3.2583-2.5205
		c-0.0767-0.2656,0.0767-0.543,0.3423-0.6191c0.2651-0.0801,0.5425,0.0771,0.6187,0.3418c0.3037,1.0547,1.2349,1.7773,2.3164,1.7979
		c1.1421,0.0088,2.0977-0.7188,2.4092-1.7979c0.0767-0.2656,0.353-0.4219,0.6191-0.3418c0.2651,0.0771,0.4185,0.3535,0.3418,0.6191
		C8.2461,20.793,6.8853,21.8223,5.3535,21.8223z"/>
	<path d="M5.3369,20.2393c-0.0132,0-0.0269,0-0.04,0c-0.5845-0.0098-1.1284-0.293-1.4907-0.7773
		c-0.166-0.2207-0.1211-0.5342,0.1001-0.7002c0.2217-0.166,0.5347-0.1201,0.6997,0.1006C4.7095,19,4.9395,19.2324,5.3154,19.2393
		c0.2954,0.0059,0.5703-0.1309,0.7529-0.376c0.1655-0.2217,0.4785-0.2676,0.6997-0.1016c0.2217,0.165,0.2671,0.4775,0.1021,0.6992
		C6.5,19.957,5.9429,20.2393,5.3369,20.2393z"/>
	<path d="M5.3369,20.2393c-0.0132,0-0.0269,0-0.04,0c-0.5845-0.0098-1.1284-0.293-1.4907-0.7773
		c-0.166-0.2207-0.1211-0.5342,0.1001-0.7002c0.2217-0.166,0.5347-0.1201,0.6997,0.1006C4.7095,19,4.9395,19.2324,5.3154,19.2393
		c0.2954,0.0059,0.5703-0.1309,0.7529-0.376c0.1655-0.2217,0.4785-0.2676,0.6997-0.1016c0.2217,0.165,0.2671,0.4775,0.1021,0.6992
		C6.5,19.957,5.9429,20.2393,5.3369,20.2393z"/>
</g>
<rect x="-0.0136" y="0.0001" fill="none" width="24" height="24"/>
</svg>
