<?xml version="1.0" encoding="utf-8"?>
<!-- Generator: Adobe Illustrator 18.1.0, SVG Export Plug-In . SVG Version: 6.00 Build 0)  -->
<svg version="1.1" id="Layer_1" xmlns="http://www.w3.org/2000/svg" xmlns:xlink="http://www.w3.org/1999/xlink" x="0px" y="0px"
	 width="24px" height="24px" viewBox="0 0 24 24" enable-background="new 0 0 24 24" xml:space="preserve">
<g>
	<path d="M12.3467,23.7949c-0.2061,0-0.3213-0.0039-0.3213-0.0039l-0.2642,0.0029c-1.5752,0-9.4385-0.2432-9.5859-5.0537
		C2.0322,14.0527,7.7041,5.5781,8.5508,4.3403C8.4424,3.7637,7.3794,2.1118,6.3623,0.8076
		C6.2451,0.6567,6.2236,0.4521,6.3076,0.2808C6.3916,0.1089,6.5659,0,6.7568,0h10.5684c0.1914,0,0.3652,0.1089,0.4492,0.2808
		c0.084,0.1714,0.0625,0.376-0.0547,0.5269c-1.0166,1.3047-2.0801,2.9565-2.1885,3.5332c0.8457,1.2378,6.5186,9.7266,6.375,14.4141
		C21.7588,23.5518,13.917,23.7949,12.3467,23.7949z M12.0254,22.791l0.3213,0.0039c1.4082,0,8.4414-0.1963,8.5596-4.0713
		c0.1416-4.6279-6.2285-13.8594-6.293-13.9521c-0.0498-0.0728-0.0801-0.1577-0.0869-0.2456C14.4629,3.7275,15.5439,2.0771,16.3242,1
		H7.7578c0.7803,1.0771,1.8613,2.7275,1.7983,3.5259C9.5493,4.6143,9.5186,4.6992,9.4683,4.772
		c-0.0645,0.0923-6.4351,9.3101-6.293,13.937c0.1187,3.8877,7.1729,4.085,8.5859,4.085L12.0254,22.791z"/>
	<path d="M19.4219,8.707c-0.082,0-0.1641-0.0195-0.2402-0.0615c-0.8125-0.4453-1.0107-1.1201-1.2021-1.7725
		c-0.1172-0.397-0.2383-0.8081-0.5-1.2612c-0.542-0.9404-2.3379-0.6099-2.3555-0.6064L9.0576,5.0151
		C7.812,4.9922,7.79,5.0205,7.1978,5.7021C7.0225,5.9038,6.8091,6.1484,6.5229,6.4453c-0.5601,0.5811-1.1553,0.8804-1.769,0.8906
		C3.9487,7.3574,3.5112,6.9038,3.459,6.853C3.2607,6.6606,3.2559,6.3442,3.4482,6.146c0.1909-0.1968,0.5039-0.2026,0.7026-0.0151
		c0.1167,0.106,0.7354,0.5713,1.6523-0.3799c0.2715-0.2812,0.4736-0.5137,0.6401-0.7051c0.77-0.8862,1.0532-1.0522,2.623-1.0308
		h5.9121c0.3779-0.0674,2.5205-0.3726,3.3672,1.0967c0.3213,0.5566,0.4717,1.0684,0.5928,1.479
		c0.1895,0.6455,0.292,0.9409,0.7236,1.1777c0.2422,0.1328,0.3311,0.4365,0.1982,0.6787C19.7695,8.6133,19.5986,8.707,19.4219,8.707
		z"/>
	<path d="M13.666,3.5928h-3.3789c-0.2764,0-0.5-0.2236-0.5-0.5s0.2236-0.5,0.5-0.5h3.3789c0.2764,0,0.5,0.2236,0.5,0.5
		S13.9424,3.5928,13.666,3.5928z"/>
	<path d="M13.666,6.4946h-3.3789c-0.2764,0-0.5-0.2236-0.5-0.5s0.2236-0.5,0.5-0.5h3.3789c0.2764,0,0.5,0.2236,0.5,0.5
		S13.9424,6.4946,13.666,6.4946z"/>
	<path d="M12.749,14.5459H8.4854c-0.2764,0-0.5-0.2236-0.5-0.5s0.2236-0.5,0.5-0.5h4.2637c0.2764,0,0.5,0.2236,0.5,0.5
		S13.0254,14.5459,12.749,14.5459z"/>
	<path d="M12.749,16.459H8.4854c-0.2764,0-0.5-0.2236-0.5-0.5s0.2236-0.5,0.5-0.5h4.2637c0.2764,0,0.5,0.2236,0.5,0.5
		S13.0254,16.459,12.749,16.459z"/>
	<path d="M12.3535,19.375c-1.8755,0-3.4009-1.9336-3.4009-4.3105c0-2.376,1.5254-4.3096,3.4009-4.3096
		c1.0791,0,2.0693,0.6235,2.7148,1.71c0.1416,0.2373,0.0635,0.5449-0.1738,0.6855c-0.2363,0.1406-0.5439,0.0635-0.6855-0.1738
		c-0.4619-0.7764-1.1377-1.2217-1.8555-1.2217c-1.3237,0-2.4009,1.4844-2.4009,3.3096s1.0771,3.3105,2.4009,3.3105
		c0.7451,0,1.4629-0.498,1.9189-1.3311c0.1328-0.2432,0.4385-0.3301,0.6787-0.1982c0.2422,0.1328,0.3311,0.4365,0.1982,0.6787
		C14.5146,18.6836,13.4697,19.375,12.3535,19.375z"/>
</g>
<rect x="-0.0136" fill="none" width="24" height="24"/>
</svg>
