<?xml version="1.0" encoding="utf-8"?>
<!-- Generator: Adobe Illustrator 18.1.0, SVG Export Plug-In . SVG Version: 6.00 Build 0)  -->
<svg version="1.1" id="Layer_1" xmlns="http://www.w3.org/2000/svg" xmlns:xlink="http://www.w3.org/1999/xlink" x="0px" y="0px"
	 width="24px" height="24px" viewBox="0 0 24 24" enable-background="new 0 0 24 24" xml:space="preserve">
<g>
	<path d="M11.5337,18.0078c-0.2764,0-0.5-0.2236-0.5-0.5V10.519c0-0.2764,0.2236-0.5,0.5-0.5s0.4995,0.2236,0.4995,0.5v6.9888
		C12.0332,17.7842,11.8101,18.0078,11.5337,18.0078z"/>
	<path d="M14.7979,14.2832c-0.1279,0-0.2559-0.0488-0.3535-0.1465l-2.9106-2.9106L8.623,14.1367
		c-0.1953,0.1953-0.5117,0.1953-0.707,0s-0.1953-0.5117,0-0.707l3.2642-3.2642c0.1953-0.1953,0.5117-0.1953,0.707,0l3.2642,3.2642
		c0.1953,0.1953,0.1953,0.5117,0,0.707C15.0537,14.2344,14.9258,14.2832,14.7979,14.2832z"/>
	<path d="M18.5918,20.998H5.1826c-2.0771,0-3.8696-1.4092-4.5674-3.5898c-0.7388-2.3086,0.0278-4.7158,1.9541-6.1929
		c0.6045-3.6455,3.2852-6.2695,6.4409-6.2695c1.4604,0,2.8447,0.564,4.0181,1.6333c2.5127-0.2534,4.5918,1.208,5.4072,3.6357
		c2.8018-0.0972,5.2217,2.4209,5.2217,5.3896C23.6572,18.5283,21.3379,20.998,18.5918,20.998z M9.0103,5.9458
		c-2.7134,0-5.019,2.3633-5.4829,5.6196c-0.0195,0.1357-0.0933,0.2573-0.2051,0.3369c-2.0527,1.4629-2.2524,3.6465-1.7549,5.2012
		c0.563,1.7588,1.9819,2.8945,3.6152,2.8945h13.4092c2.2041,0,4.0654-2.0117,4.0654-4.3936c0-2.5352-2.0996-4.6406-4.5303-4.3667
		c-0.2471,0.0254-0.4756-0.1289-0.5391-0.3687c-0.4268-1.6045-1.6992-3.3193-3.9883-3.3193c-0.2178,0-0.4414,0.0161-0.6719,0.0493
		c-0.1602,0.02-0.3096-0.0288-0.4199-0.1367C11.4883,6.4702,10.2788,5.9458,9.0103,5.9458z"/>
</g>
<rect y="0.0001" fill="none" width="24" height="24"/>
</svg>
