<?xml version="1.0" encoding="utf-8"?>
<!-- Generator: Adobe Illustrator 18.1.0, SVG Export Plug-In . SVG Version: 6.00 Build 0)  -->
<svg version="1.1" id="Layer_1" xmlns="http://www.w3.org/2000/svg" xmlns:xlink="http://www.w3.org/1999/xlink" x="0px" y="0px"
	 width="24px" height="24px" viewBox="0 0 24 24" enable-background="new 0 0 24 24" xml:space="preserve">
<g>
	<path d="M12,13.8818c-0.2764,0-0.5-0.2236-0.5-0.5V1.5503c0-0.2764,0.2236-0.5,0.5-0.5s0.5,0.2236,0.5,0.5v11.8315
		C12.5,13.6582,12.2764,13.8818,12,13.8818z"/>
	<path d="M12,13.8818c-0.1279,0-0.2559-0.0488-0.3535-0.1465l-3.3096-3.3091c-0.1953-0.1953-0.1953-0.5117,0-0.707
		s0.5117-0.1953,0.707,0L12,12.6748l2.9561-2.9556c0.1953-0.1953,0.5117-0.1953,0.707,0s0.1953,0.5117,0,0.707l-3.3096,3.3091
		C12.2559,13.833,12.1279,13.8818,12,13.8818z"/>
	<path d="M15.6006,24.0615H8.3999c-0.5342,0-0.9688-0.3965-0.9688-0.8828l0.4766-2.707c0.0488-0.2715,0.3066-0.4521,0.5801-0.4043
		c0.272,0.0488,0.4531,0.3086,0.4043,0.5801l-0.4316,2.4111l7.0874,0.0029l-0.4404-2.4141
		c-0.0488-0.2715,0.1318-0.5312,0.4043-0.5801c0.2646-0.043,0.5312,0.1318,0.5801,0.4043l0.4697,2.6191
		C16.5693,23.665,16.1348,24.0615,15.6006,24.0615z"/>
	<path d="M21.8008,18.9688H2.1987c-1.1763,0-2.1333-0.957-2.1333-2.1328V5.1284c0-1.1763,0.957-2.1328,2.1333-2.1328h6.9717
		c0.2764,0,0.5,0.2236,0.5,0.5s-0.2236,0.5-0.5,0.5H2.1987c-0.625,0-1.1333,0.5083-1.1333,1.1328v11.7075
		c0,0.625,0.5083,1.1328,1.1333,1.1328h19.6021c0.625,0,1.1338-0.5078,1.1338-1.1328V5.1284c0-0.6245-0.5088-1.1328-1.1338-1.1328
		h-6.9707c-0.2764,0-0.5-0.2236-0.5-0.5s0.2236-0.5,0.5-0.5h6.9707c1.1768,0,2.1338,0.9565,2.1338,2.1328v11.7075
		C23.9346,18.0117,22.9775,18.9688,21.8008,18.9688z"/>
	<path d="M17.2939,24.0615H6.7061c-0.2764,0-0.5-0.2236-0.5-0.5s0.2236-0.5,0.5-0.5h10.5879c0.2764,0,0.5,0.2236,0.5,0.5
		S17.5703,24.0615,17.2939,24.0615z"/>
</g>
<rect y="0.0001" fill="none" width="24" height="24"/>
</svg>
