<?xml version="1.0" encoding="utf-8"?>
<!-- Generator: Adobe Illustrator 18.1.0, SVG Export Plug-In . SVG Version: 6.00 Build 0)  -->
<svg version="1.1" id="Layer_1" xmlns="http://www.w3.org/2000/svg" xmlns:xlink="http://www.w3.org/1999/xlink" x="0px" y="0px"
	 width="24px" height="24px" viewBox="0 0 24 24" enable-background="new 0 0 24 24" xml:space="preserve">
<g>
	<path d="M11.9849,23.5469c-1.5088,0-2.7651-1.1035-3.0044-2.5459H5.4863c-0.2764,0-0.5-0.2236-0.5-0.5V0.5
		c0-0.2764,0.2236-0.5,0.5-0.5h3.9536c0.2764,0,0.5,0.2236,0.5,0.5c0,1.1279,0.9175,2.0454,2.0449,2.0454
		S14.0303,1.6279,14.0303,0.5c0-0.2764,0.2236-0.5,0.5-0.5h3.9561c0.2764,0,0.5,0.2236,0.5,0.5v20c0,0.2764-0.2236,0.5-0.5,0.5
		l-3.4971,0.001C14.75,22.4434,13.4941,23.5469,11.9849,23.5469z M5.9863,20l3.4531,0.001c0.2764,0,0.5,0.2236,0.5,0.5
		c0,1.1279,0.9175,2.0459,2.0454,2.0459c1.1274,0,2.0454-0.918,2.0454-2.0459c0-0.2764,0.2236-0.5,0.5-0.5h3.4561V1h-2.9971
		c-0.2393,1.4424-1.4951,2.5454-3.0044,2.5454c-1.5088,0-2.7646-1.103-3.0039-2.5454H5.9863V20z"/>
	<g>
		<g>
			<path d="M6.4863,8.0005h-1c-0.2764,0-0.5-0.2236-0.5-0.5s0.2236-0.5,0.5-0.5h1c0.2764,0,0.5,0.2236,0.5,0.5
				S6.7627,8.0005,6.4863,8.0005z"/>
			<path d="M14.9482,8.0005h-1.6924c-0.2764,0-0.5-0.2236-0.5-0.5s0.2236-0.5,0.5-0.5h1.6924c0.2764,0,0.5,0.2236,0.5,0.5
				S15.2246,8.0005,14.9482,8.0005z M10.7173,8.0005H9.0249c-0.2764,0-0.5-0.2236-0.5-0.5s0.2236-0.5,0.5-0.5h1.6924
				c0.2764,0,0.5,0.2236,0.5,0.5S10.9937,8.0005,10.7173,8.0005z"/>
			<path d="M18.4863,8.0005h-1c-0.2764,0-0.5-0.2236-0.5-0.5s0.2236-0.5,0.5-0.5h1c0.2764,0,0.5,0.2236,0.5,0.5
				S18.7627,8.0005,18.4863,8.0005z"/>
		</g>
	</g>
</g>
<rect x="-0.0136" y="0.0001" fill="none" width="24" height="24"/>
</svg>
