<?xml version="1.0" encoding="utf-8"?>
<!-- Generator: Adobe Illustrator 18.1.0, SVG Export Plug-In . SVG Version: 6.00 Build 0)  -->
<svg version="1.1" id="Layer_1" xmlns="http://www.w3.org/2000/svg" xmlns:xlink="http://www.w3.org/1999/xlink" x="0px" y="0px"
	 width="24px" height="24px" viewBox="0 0 24 24" enable-background="new 0 0 24 24" xml:space="preserve">
<g>
	<path d="M11.9297,23.8164c-3.6514,0-6.854-3.8408-6.854-8.2197c0-0.9531,0.1582-1.8945,0.4697-2.7959
		c0.0459-0.1328,0.1455-0.2402,0.2744-0.2959c0.1284-0.0547,0.2754-0.0537,0.4028,0.0029c0.8882,0.3984,1.814,0.6006,2.7515,0.6006
		c2.4492,0,4.7583-1.375,6.1772-3.6782c0.0752-0.1221,0.1992-0.2061,0.3398-0.2305s0.2861,0.0127,0.3984,0.1021
		c1.8125,1.4478,2.8945,3.8008,2.8945,6.2949C18.7842,19.9756,15.5811,23.8164,11.9297,23.8164z M6.3354,13.6328
		c-0.1724,0.6406-0.2598,1.2988-0.2598,1.9639c0,3.8457,2.7354,7.2197,5.854,7.2197c3.1191,0,5.8545-3.374,5.8545-7.2197
		c0-1.9932-0.7783-3.8779-2.1045-5.1509c-1.6201,2.3042-4.0879,3.6626-6.7056,3.6626C8.0776,14.1084,7.1924,13.9492,6.3354,13.6328z
		"/>
	<path d="M18.2842,21.1172c-0.2061,0-0.3994-0.1279-0.4717-0.334c-0.0918-0.2598,0.0449-0.5459,0.3057-0.6377l2.4131-0.8516
		c0.374-1.5879,2.1211-10.3374-3.9229-13.5259c-0.2441-0.1289-0.3379-0.4316-0.209-0.6758c0.1289-0.2456,0.4336-0.3364,0.6758-0.209
		c7.3389,3.8721,4.3887,14.8169,4.3574,14.9263c-0.0439,0.1572-0.1611,0.2832-0.3154,0.3379l-2.667,0.9414
		C18.3955,21.1084,18.3398,21.1172,18.2842,21.1172z"/>
	<path d="M5.6904,21.1172c-0.0552,0-0.1113-0.0088-0.1665-0.0283l-2.667-0.9414c-0.1548-0.0547-0.2729-0.1826-0.3159-0.3408
		C2.4204,19.3633-0.3271,8.8921,6.7734,4.936c0.2393-0.1333,0.5449-0.0479,0.6802,0.1938C7.5879,5.3711,7.501,5.6753,7.2598,5.8101
		C1.4053,9.0718,3.0811,17.7109,3.4453,19.2939l2.4116,0.8516c0.2603,0.0918,0.397,0.3779,0.3052,0.6377
		C6.0894,20.9893,5.8965,21.1172,5.6904,21.1172z"/>
	<path d="M11.9297,8.5342c-2.2446,0-4.3057-0.1123-4.8662-1.4653c-1.1494-3.3311-1.1494-3.5981-1.1494-3.686
		c0-1.75,2.6426-3.1206,6.0156-3.1206s6.0156,1.3706,6.0156,3.1206c0,0.0879,0,0.355-1.1387,3.6577
		C16.2666,8.4316,14.5254,8.5342,11.9297,8.5342z M11.9297,1.2622c-2.9556,0-5.0156,1.1177-5.0156,2.1206
		C6.9482,3.5869,7.4927,5.249,7.998,6.7144c0.2979,0.7173,2.0664,0.8198,3.9316,0.8198c2.0469,0,3.6367-0.0615,3.9385-0.8379
		c0.498-1.4473,1.043-3.1094,1.0791-3.3535C16.9453,2.3799,14.8857,1.2622,11.9297,1.2622z"/>
	<path d="M12.001,6.5005c-0.2764,0-0.5-0.2236-0.5-0.5v-3c0-0.2764,0.2236-0.5,0.5-0.5s0.5,0.2236,0.5,0.5v3
		C12.501,6.2769,12.2773,6.5005,12.001,6.5005z"/>
	<path d="M13.501,5.0005h-3.0005c-0.2764,0-0.5-0.2236-0.5-0.5s0.2236-0.5,0.5-0.5h3.0005c0.2764,0,0.5,0.2236,0.5,0.5
		S13.7773,5.0005,13.501,5.0005z"/>
	<path d="M11.9756,20.3428c-0.0044,0-0.0093,0-0.0137,0c-1.0513-0.0059-1.8086-0.7705-1.8403-0.8037
		c-0.1929-0.1973-0.189-0.5137,0.0088-0.707c0.1968-0.1924,0.5127-0.1885,0.7051,0.0078l0,0
		c0.0049,0.0049,0.5098,0.5029,1.1392,0.5029c0.0005,0,0.0005,0,0.001,0c0.3613,0,0.7148-0.1699,1.0508-0.5059
		c0.1953-0.1953,0.5117-0.1953,0.707,0s0.1953,0.5117,0,0.707C13.2031,20.0742,12.6123,20.3428,11.9756,20.3428z"/>
	<path d="M10.5005,15.9951H9.5117c-0.2764,0-0.5-0.2236-0.5-0.5s0.2236-0.5,0.5-0.5h0.9888c0.2764,0,0.5,0.2236,0.5,0.5
		S10.7769,15.9951,10.5005,15.9951z"/>
	<path d="M14.5117,15.9951h-0.9893c-0.2764,0-0.5-0.2236-0.5-0.5s0.2236-0.5,0.5-0.5h0.9893c0.2764,0,0.5,0.2236,0.5,0.5
		S14.7881,15.9951,14.5117,15.9951z"/>
</g>
<rect x="0.0005" y="0.0004" fill="none" width="24" height="24"/>
</svg>
