<?xml version="1.0" encoding="utf-8"?>
<!-- Generator: Adobe Illustrator 18.1.0, SVG Export Plug-In . SVG Version: 6.00 Build 0)  -->
<svg version="1.1" id="Layer_1" xmlns="http://www.w3.org/2000/svg" xmlns:xlink="http://www.w3.org/1999/xlink" x="0px" y="0px"
	 width="24px" height="24px" viewBox="0 0 24 24" enable-background="new 0 0 24 24" xml:space="preserve">
<g>
	<path d="M12,20.7812c-6.561,0-11.8984-5.4756-11.8984-12.207c0-0.2764,0.2236-0.5,0.5-0.5s0.5,0.2236,0.5,0.5
		c0,6.1797,4.8892,11.207,10.8984,11.207c6.0098,0,10.8984-5.0273,10.8984-11.207c0-0.2764,0.2236-0.5,0.5-0.5s0.5,0.2236,0.5,0.5
		C23.8984,15.3057,18.5605,20.7812,12,20.7812z"/>
	<path d="M12,18.6309c-5.4062,0-9.8047-4.5117-9.8047-10.0566c0-0.2764,0.2236-0.5,0.5-0.5h8.2778c0.2764,0,0.5,0.2236,0.5,0.5
		c0,0.3174,0.2456,0.5757,0.5474,0.5757s0.5479-0.2583,0.5479-0.5757c0-0.2764,0.2236-0.5,0.5-0.5h8.2363
		c0.2764,0,0.5,0.2236,0.5,0.5C21.8047,14.1191,17.4062,18.6309,12,18.6309z M3.2085,9.0742
		C3.4614,13.8369,7.3081,17.6309,12,17.6309c4.6924,0,8.5381-3.7939,8.791-8.5566h-7.3027
		c-0.2061,0.6245-0.7861,1.0757-1.4678,1.0757s-1.2617-0.4512-1.4678-1.0757H3.2085z"/>
	<path d="M12,18.6309c-0.2764,0-0.5-0.2236-0.5-0.5v-8.481c0-0.2764,0.2236-0.5,0.5-0.5s0.5,0.2236,0.5,0.5v8.481
		C12.5,18.4072,12.2764,18.6309,12,18.6309z"/>
	<path d="M18.4434,15.9658c-0.1299,0-0.2598-0.0508-0.3584-0.1514l-5.8398-5.9976c-0.1924-0.1978-0.1885-0.5142,0.0098-0.707
		c0.1973-0.1904,0.5127-0.189,0.707,0.0098l5.8398,5.9976c0.1924,0.1973,0.1885,0.5146-0.0098,0.707
		C18.6953,15.9189,18.5693,15.9658,18.4434,15.9658z"/>
	<path d="M5.5918,15.9658c-0.126,0-0.2515-0.0469-0.3486-0.1416c-0.1982-0.1924-0.2021-0.5098-0.0098-0.707l5.8398-5.9976
		c0.1924-0.1978,0.5093-0.2017,0.707-0.0098c0.1982,0.1929,0.2021,0.5093,0.0098,0.707l-5.8398,5.9976
		C5.8521,15.915,5.7222,15.9658,5.5918,15.9658z"/>
	<path d="M8.2651,10.9634c-0.1812,0-0.3564-0.0986-0.4448-0.271C7.6938,10.4468,7.79,10.145,8.0356,10.019l0.7266-0.374
		c0.2437-0.1289,0.5469-0.0303,0.6733,0.2153s0.0303,0.5474-0.2153,0.6733l-0.7266,0.374
		C8.4204,10.9458,8.3423,10.9634,8.2651,10.9634z"/>
	<path d="M13.5156,13.1143c-0.1914,0-0.374-0.1104-0.457-0.2969l-0.3955-0.8872c-0.1123-0.2524,0.001-0.5479,0.2539-0.6602
		c0.248-0.1123,0.5479,0.0005,0.6602,0.2529l0.3955,0.8882c0.1123,0.252-0.001,0.5479-0.2539,0.6602
		C13.6533,13.1006,13.584,13.1143,13.5156,13.1143z"/>
</g>
<rect y="0.0346" fill="none" width="24" height="24"/>
</svg>
