<?xml version="1.0" encoding="utf-8"?>
<!-- Generator: Adobe Illustrator 18.1.0, SVG Export Plug-In . SVG Version: 6.00 Build 0)  -->
<svg version="1.1" id="Layer_1" xmlns="http://www.w3.org/2000/svg" xmlns:xlink="http://www.w3.org/1999/xlink" x="0px" y="0px"
	 width="24px" height="24px" viewBox="0 0 24 24" enable-background="new 0 0 24 24" xml:space="preserve">
<g>
	<path d="M21.5195,5.0049h-4c-0.2764,0-0.5-0.2236-0.5-0.5v-4c0-0.2764,0.2236-0.5,0.5-0.5s0.5,0.2236,0.5,0.5v3.5h3.5
		c0.2764,0,0.5,0.2236,0.5,0.5S21.7959,5.0049,21.5195,5.0049z"/>
	<path d="M20.7275,24.0049H5.3066c-0.71,0-1.2871-0.583-1.2871-1.2998v-2.6611c0-0.2764,0.2236-0.5,0.5-0.5s0.5,0.2236,0.5,0.5
		v2.6611c0,0.1621,0.1313,0.2998,0.2871,0.2998h15.4209c0.1582,0,0.292-0.1377,0.292-0.2998V4.5049c0-0.0352,0-0.0542-0.0879-0.1406
		l-3.3125-3.2686c-0.0273-0.0278-0.0859-0.0854-0.1064-0.0977L5.3066,1.0049c-0.1558,0-0.2871,0.1401-0.2871,0.3057v2.6851
		c0,0.2764-0.2236,0.5-0.5,0.5s-0.5-0.2236-0.5-0.5V1.3105c0-0.7197,0.5771-1.3057,1.2871-1.3057h12.2129
		c0.418,0,0.6406,0.2192,0.8027,0.3789l3.3125,3.2686c0.1787,0.1772,0.3848,0.4341,0.3848,0.8525v18.2002
		C22.0195,23.4219,21.4395,24.0049,20.7275,24.0049z"/>
	<path d="M9.4961,16.8799c-2.9966,0-5.4346-2.4385-5.4346-5.4351s2.438-5.4346,5.4346-5.4346c2.9971,0,5.4346,2.438,5.4346,5.4346
		S12.4932,16.8799,9.4961,16.8799z M9.4961,7.0103c-2.4453,0-4.4346,1.9893-4.4346,4.4346c0,2.4458,1.9893,4.4351,4.4346,4.4351
		s4.4346-1.9893,4.4346-4.4351C13.9307,8.9995,11.9414,7.0103,9.4961,7.0103z"/>
	<path d="M0.5767,20.8643c-0.1279,0-0.2559-0.0488-0.3535-0.1465c-0.1953-0.1953-0.1953-0.5117,0-0.707l5.4321-5.4326
		c0.1953-0.1953,0.5117-0.1953,0.707,0s0.1953,0.5117,0,0.707l-5.4321,5.4326C0.8325,20.8154,0.7046,20.8643,0.5767,20.8643z"/>
</g>
<rect y="0.0001" fill="none" width="24" height="24"/>
</svg>
