<?xml version="1.0" encoding="utf-8"?>
<!-- Generator: Adobe Illustrator 18.1.0, SVG Export Plug-In . SVG Version: 6.00 Build 0)  -->
<svg version="1.1" id="Layer_1" xmlns="http://www.w3.org/2000/svg" xmlns:xlink="http://www.w3.org/1999/xlink" x="0px" y="0px"
	 width="24px" height="24px" viewBox="0 0 24 24" enable-background="new 0 0 24 24" xml:space="preserve">
<g>
	<path d="M0.6006,6.9243c-0.2764,0-0.5-0.2236-0.5-0.5s0.2236-0.5,0.5-0.5c1.3604,0,2.4673-1.0322,2.4673-2.3008
		c0-0.2764,0.2236-0.5,0.5-0.5s0.5,0.2236,0.5,0.5C4.0679,5.4434,2.5127,6.9243,0.6006,6.9243z"/>
	<path d="M18.4053,6.9243c-1.9121,0-3.4678-1.481-3.4678-3.3008c0-0.2764,0.2236-0.5,0.5-0.5s0.5,0.2236,0.5,0.5
		c0,1.2686,1.1074,2.3008,2.4678,2.3008c0.2764,0,0.5,0.2236,0.5,0.5S18.6816,6.9243,18.4053,6.9243z"/>
	<path d="M6.5352,6.9243c-1.9121,0-3.4673-1.481-3.4673-3.3008c0-0.2764,0.2236-0.5,0.5-0.5s0.5,0.2236,0.5,0.5
		c0,1.2686,1.1069,2.3008,2.4673,2.3008c1.3608,0,2.4678-1.0322,2.4678-2.3008c0-0.2764,0.2236-0.5,0.5-0.5s0.5,0.2236,0.5,0.5
		C10.0029,5.4434,8.4473,6.9243,6.5352,6.9243z"/>
	<path d="M12.4697,6.9243c-1.9116,0-3.4668-1.481-3.4668-3.3008c0-0.2764,0.2236-0.5,0.5-0.5s0.5,0.2236,0.5,0.5
		c0,1.2686,1.1064,2.3008,2.4668,2.3008s2.4678-1.0322,2.4678-2.3008c0-0.2764,0.2236-0.5,0.5-0.5s0.5,0.2236,0.5,0.5
		C15.9375,5.4434,14.3818,6.9243,12.4697,6.9243z"/>
	<path d="M5.6011,13.9248c-0.2764,0-0.5-0.2236-0.5-0.5s0.2236-0.5,0.5-0.5c1.3604,0,2.4673-1.0322,2.4673-2.3008
		c0-0.2764,0.2236-0.5,0.5-0.5s0.5,0.2236,0.5,0.5C9.0684,12.4443,7.5132,13.9248,5.6011,13.9248z"/>
	<path d="M23.4053,13.9248c-1.9121,0-3.4678-1.4805-3.4678-3.3008c0-0.2764,0.2236-0.5,0.5-0.5s0.5,0.2236,0.5,0.5
		c0,1.2686,1.1074,2.3008,2.4678,2.3008c0.2764,0,0.5,0.2236,0.5,0.5S23.6816,13.9248,23.4053,13.9248z"/>
	<path d="M11.5356,13.9248c-1.9121,0-3.4673-1.4805-3.4673-3.3008c0-0.2764,0.2236-0.5,0.5-0.5s0.5,0.2236,0.5,0.5
		c0,1.2686,1.1069,2.3008,2.4673,2.3008c1.3608,0,2.4673-1.0322,2.4673-2.3008c0-0.2764,0.2236-0.5,0.5-0.5s0.5,0.2236,0.5,0.5
		C15.0029,12.4443,13.4473,13.9248,11.5356,13.9248z"/>
	<path d="M17.4707,13.9248c-1.9121,0-3.4678-1.4805-3.4678-3.3008c0-0.2764,0.2236-0.5,0.5-0.5s0.5,0.2236,0.5,0.5
		c0,1.2686,1.1074,2.3008,2.4678,2.3008s2.4668-1.0322,2.4668-2.3008c0-0.2764,0.2236-0.5,0.5-0.5s0.5,0.2236,0.5,0.5
		C20.9375,12.4443,19.3818,13.9248,17.4707,13.9248z"/>
	<path d="M0.6006,20.9248c-0.2764,0-0.5-0.2236-0.5-0.5s0.2236-0.5,0.5-0.5c1.3604,0,2.4673-1.0322,2.4673-2.3008
		c0-0.2764,0.2236-0.5,0.5-0.5s0.5,0.2236,0.5,0.5C4.0679,19.4443,2.5127,20.9248,0.6006,20.9248z"/>
	<path d="M18.4053,20.9248c-1.9121,0-3.4678-1.4805-3.4678-3.3008c0-0.2764,0.2236-0.5,0.5-0.5s0.5,0.2236,0.5,0.5
		c0,1.2686,1.1074,2.3008,2.4678,2.3008c0.2764,0,0.5,0.2236,0.5,0.5S18.6816,20.9248,18.4053,20.9248z"/>
	<path d="M6.5352,20.9248c-1.9121,0-3.4673-1.4805-3.4673-3.3008c0-0.2764,0.2236-0.5,0.5-0.5s0.5,0.2236,0.5,0.5
		c0,1.2686,1.1069,2.3008,2.4673,2.3008c1.3608,0,2.4678-1.0322,2.4678-2.3008c0-0.2764,0.2236-0.5,0.5-0.5s0.5,0.2236,0.5,0.5
		C10.0029,19.4443,8.4473,20.9248,6.5352,20.9248z"/>
	<path d="M12.4697,20.9248c-1.9116,0-3.4668-1.4805-3.4668-3.3008c0-0.2764,0.2236-0.5,0.5-0.5s0.5,0.2236,0.5,0.5
		c0,1.2686,1.1064,2.3008,2.4668,2.3008s2.4678-1.0322,2.4678-2.3008c0-0.2764,0.2236-0.5,0.5-0.5s0.5,0.2236,0.5,0.5
		C15.9375,19.4443,14.3818,20.9248,12.4697,20.9248z"/>
</g>
<rect y="0.0354" fill="none" width="24" height="24"/>
</svg>
