<?xml version="1.0" encoding="utf-8"?>
<!-- Generator: Adobe Illustrator 18.1.0, SVG Export Plug-In . SVG Version: 6.00 Build 0)  -->
<svg version="1.1" id="Layer_1" xmlns="http://www.w3.org/2000/svg" xmlns:xlink="http://www.w3.org/1999/xlink" x="0px" y="0px"
	 width="24px" height="24px" viewBox="0 0 24 24" enable-background="new 0 0 24 24" xml:space="preserve">
<g>
	<path d="M23.5195,23H0.519c-0.2764,0-0.5-0.2236-0.5-0.5v-21c0-0.2764,0.2236-0.5,0.5-0.5h23.0005c0.2764,0,0.5,0.2236,0.5,0.5v21
		C24.0195,22.7764,23.7959,23,23.5195,23z M1.019,22h22.0005V2H1.019V22z"/>
	<path d="M23.4932,8.001H0.5674c-0.2764,0-0.5-0.2236-0.5-0.5s0.2236-0.5,0.5-0.5h22.9258c0.2764,0,0.5,0.2236,0.5,0.5
		S23.7695,8.001,23.4932,8.001z"/>
	<path d="M21.4863,6.001c-0.1299,0-0.2598-0.0503-0.3574-0.1504l-2.0186-2.063c-0.1934-0.1973-0.1895-0.5137,0.0078-0.707
		c0.1992-0.1929,0.5156-0.1895,0.707,0.0078l2.0186,2.063c0.1934,0.1973,0.1895,0.5137-0.0078,0.707
		C21.7383,5.9536,21.6123,6.001,21.4863,6.001z"/>
	<path d="M19.4678,6.001c-0.126,0-0.252-0.0474-0.3496-0.1426c-0.1973-0.1934-0.2012-0.5098-0.0078-0.707l2.0186-2.063
		c0.1924-0.1973,0.5088-0.2007,0.707-0.0078c0.1973,0.1934,0.2012,0.5098,0.0078,0.707l-2.0186,2.063
		C19.7275,5.9507,19.5977,6.001,19.4678,6.001z"/>
	<path d="M17.5049,6h-2c-0.2764,0-0.5-0.2236-0.5-0.5v-2c0-0.2764,0.2236-0.5,0.5-0.5h2c0.2764,0,0.5,0.2236,0.5,0.5v2
		C18.0049,5.7764,17.7812,6,17.5049,6z M16.0049,5h1V4h-1V5z"/>
	<path d="M13.5049,6h-2.0005c-0.2764,0-0.5-0.2236-0.5-0.5s0.2236-0.5,0.5-0.5h2.0005c0.2764,0,0.5,0.2236,0.5,0.5
		S13.7812,6,13.5049,6z"/>
	<path d="M14.502,19H9.6157c-0.2764,0-0.5-0.2236-0.5-0.5s0.2236-0.5,0.5-0.5h4.8862c0.2764,0,0.5,0.2236,0.5,0.5
		S14.7783,19,14.502,19z"/>
	<path d="M4.6235,19c-0.1167,0-0.2334-0.04-0.3281-0.123c-0.2085-0.1807-0.2305-0.4971-0.0493-0.7051l3.1958-3.6738l-3.1958-3.6733
		c-0.1812-0.2085-0.1592-0.5239,0.0493-0.7056C4.5039,9.9385,4.8188,9.96,5.001,10.1685l3.481,4.0015
		c0.1636,0.1885,0.1636,0.4678,0,0.6562l-3.481,4.002C4.9019,18.9414,4.7632,19,4.6235,19z"/>
</g>
<rect fill="none" width="24" height="24"/>
</svg>
