<?xml version="1.0" encoding="utf-8"?>
<!-- Generator: Adobe Illustrator 18.1.1, SVG Export Plug-In . SVG Version: 6.00 Build 0)  -->
<svg version="1.1" id="Layer_1" xmlns="http://www.w3.org/2000/svg" xmlns:xlink="http://www.w3.org/1999/xlink" x="0px" y="0px"
	 width="24px" height="24px" viewBox="0 0 24 24" enable-background="new 0 0 24 24" xml:space="preserve">
<rect fill="none" width="24" height="24"/>
<g>
	<path d="M5.0664,16.2939l-1.1211,1.5962C3.2902,14.2106,3.3121,8.4494,4.0664,6.4048C4.1616,6.146,4.0293,5.8584,3.77,5.7627
		C3.5112,5.6694,3.2241,5.7998,3.1279,6.0591c-0.8086,2.1921-0.856,8.0582-0.1813,11.9275l-1.5072-1.0598
		c-0.2261-0.1602-0.5371-0.1035-0.6968,0.1221c-0.1587,0.2256-0.1045,0.5371,0.1216,0.6963l2.5396,1.7852
		c0.0831,0.0582,0.1815,0.0873,0.2811,0.0887c0.0022,0,0.0038,0.0021,0.006,0.0021c0.0001,0,0.0002-0.0001,0.0004-0.0001
		c0.0001,0,0.0001,0.0001,0.0001,0.0001c0.0288,0,0.0576-0.0029,0.0859-0.0078c0.0044-0.0007,0.0079-0.0038,0.0122-0.0047
		c0.0082-0.0017,0.0163-0.001,0.0244-0.0031c0.0257-0.0065,0.045-0.0228,0.0687-0.0328c0.0317-0.0134,0.0635-0.0242,0.0917-0.0438
		c0.0287-0.0199,0.0502-0.0455,0.0739-0.0706c0.0167-0.0176,0.0383-0.0299,0.0524-0.05l1.7842-2.54
		c0.1587-0.2256,0.104-0.5371-0.1216-0.6963C5.5371,16.0127,5.2251,16.0684,5.0664,16.2939z"/>
	<path d="M23.0986,11.2388c-0.1836-0.5063-0.4668-0.9067-0.8164-1.1577c-0.4316-0.3096-0.9531-0.377-1.4717-0.1885
		c-0.3438,0.1251-0.6257,0.3404-0.8444,0.6033l-0.0951-0.2615c-0.1826-0.502-0.5498-0.9028-1.0342-1.1284
		c-0.4834-0.2256-1.0293-0.248-1.5293-0.0669c-0.3889,0.1417-0.7073,0.3923-0.9335,0.7048
		c-0.1879-0.2304-0.4208-0.4222-0.6984-0.5515c-0.4854-0.2251-1.0283-0.252-1.5293-0.0669
		c-0.3441,0.1252-0.6263,0.3408-0.845,0.6039l-2.1472-5.8998c-0.1826-0.502-0.5498-0.9033-1.0337-1.1289
		C9.6353,2.4741,9.0928,2.4512,8.5913,2.6343C8.0894,2.8169,7.6885,3.1841,7.4629,3.668C7.2368,4.1523,7.2134,4.6953,7.396,5.1973
		l3.181,8.7406c-0.4769-0.3254-1.1177-0.3083-1.6141,0.0553c-0.5117,0.375-0.9199,1.1826-0.5327,2.3193
		c0.0562,0.1719,1.4136,4.2246,4.6509,6.04c0.0039,0.002,0.3691,0.1504,0.8086,0.4463c0.085,0.0586,0.1826,0.0859,0.2793,0.0859
		c0.1602,0,0.3184-0.0771,0.4141-0.2207c0.1553-0.2285,0.0947-0.5391-0.1348-0.6934c-0.5049-0.3408-0.9297-0.5195-0.9385-0.5195
		c0,0,0,0,0.001,0c-2.834-1.5947-4.1177-5.4111-4.1323-5.4551c-0.1821-0.5352-0.1167-0.9824,0.1753-1.1963
		c0.1558-0.1143,0.3477-0.1279,0.4556-0.0488l0.9121,0.7393c0.1567,0.127,0.2788,0.2939,0.3521,0.4834l0.7373,1.9039l0.002,0.0053
		c0.0001,0.0001,0.0002,0.0002,0.0002,0.0003l0.0037,0.0095c0.0341,0.0885,0.0951,0.1544,0.1647,0.2083
		c0.015,0.0117,0.0283,0.0212,0.0446,0.0311c0.0767,0.0469,0.161,0.0781,0.2522,0.0786c0.0016,0,0.0027,0.0013,0.0043,0.0013
		c0.0566,0,0.1143-0.0098,0.1709-0.0303c0.0019-0.0007,0.0031-0.0023,0.005-0.0031c0.0016-0.0006,0.0032-0.0002,0.0048-0.0009
		c0.0287-0.0111,0.0494-0.0322,0.0748-0.0477c0.03-0.0184,0.0633-0.0326,0.0883-0.0563c0.0246-0.0233,0.0394-0.0532,0.0585-0.0805
		c0.0176-0.0251,0.0396-0.0471,0.0522-0.0749c0.0137-0.0301,0.0163-0.0635,0.0238-0.0958c0.007-0.0303,0.0192-0.0588,0.0204-0.0903
		c0.0013-0.0311-0.0094-0.0623-0.0142-0.0938c-0.0049-0.0327-0.003-0.0652-0.0148-0.0975L8.3354,4.8555
		C8.2441,4.6045,8.2563,4.333,8.3691,4.0908s0.313-0.4258,0.5645-0.5171c0.2495-0.0903,0.5215-0.0796,0.7642,0.0332
		c0.2422,0.1128,0.4258,0.3135,0.5171,0.5645l3.249,8.9272c0.0334,0.0916,0.0954,0.16,0.1666,0.2158
		c0.0154,0.0121,0.0285,0.0228,0.0452,0.033c0.0752,0.0463,0.1581,0.0757,0.2484,0.0773c0.0035,0.0001,0.0062,0.003,0.0096,0.003
		c0.0566,0,0.1143-0.0098,0.1709-0.0303c0.1948-0.0703,0.3188-0.2495,0.3286-0.4442c0.0033-0.0649-0.0061-0.1315-0.0298-0.1964
		l-0.5127-1.4097c-0.1885-0.5186,0.0801-1.0938,0.5977-1.2822c0.25-0.0908,0.5234-0.0791,0.7646,0.0337
		c0.2422,0.1128,0.4258,0.313,0.5176,0.564l0.3416,0.939c0.0001,0.0003,0.0001,0.0007,0.0002,0.001l0.5127,1.4092
		c0.0331,0.0918,0.0956,0.1605,0.1672,0.2162c0.0152,0.012,0.0282,0.0224,0.0446,0.0325c0.0753,0.0463,0.1585,0.0758,0.2485,0.0775
		c0.0034,0.0001,0.006,0.0029,0.0094,0.0029c0.0566,0,0.1143-0.0098,0.1709-0.0303c0.2598-0.0947,0.3936-0.3809,0.2988-0.6406
		l-0.5128-1.4097c-0.1882-0.5179,0.0803-1.0928,0.5977-1.2817c0.251-0.0898,0.5244-0.0796,0.7646,0.0337
		c0.2422,0.1128,0.4258,0.313,0.5176,0.564l0.6836,1.8799l0.1709,0.4697c0.0742,0.2031,0.2656,0.3291,0.4697,0.3291
		c0.0566,0,0.1143-0.0098,0.1709-0.0303c0.2598-0.0947,0.3936-0.3809,0.2988-0.6406l-0.1709-0.4697
		c-0.1885-0.5186,0.0801-1.0938,0.5977-1.2822c0.208-0.0752,0.3818-0.0557,0.5479,0.062c0.1826,0.1313,0.3457,0.375,0.4434,0.6353
		c0.0059,0.0259,0.626,2.5742,0.3594,4.7568c-0.1201,0.9775-0.1318,1.9404-0.0371,2.9434c0.0254,0.2598,0.2422,0.4531,0.4971,0.4531
		c0.0166,0,0.0322-0.001,0.0479-0.002c0.2754-0.0264,0.4766-0.2705,0.4512-0.5449c-0.0889-0.9307-0.0781-1.8232,0.0332-2.7285
		C23.7842,14.0449,23.1416,11.4014,23.0986,11.2388z"/>
</g>
</svg>
