<?xml version="1.0" encoding="utf-8"?>
<!-- Generator: Adobe Illustrator 18.1.0, SVG Export Plug-In . SVG Version: 6.00 Build 0)  -->
<svg version="1.1" id="Layer_1" xmlns="http://www.w3.org/2000/svg" xmlns:xlink="http://www.w3.org/1999/xlink" x="0px" y="0px"
	 width="24px" height="24px" viewBox="0 0 24 24" enable-background="new 0 0 24 24" xml:space="preserve">
<g>
	<path d="M22.6797,17.9854L22.6797,17.9854c-0.0029-0.001-0.0059-0.001-0.0078,0H20.5c-0.2764,0-0.5-0.2236-0.5-0.5
		s0.2236-0.5,0.5-0.5h2.1719c0.002,0,0.0059,0,0.0078,0c0.0625,0,0.1123-0.0469,0.1123-0.1074
		c-0.042-0.2285-1.6797-8.6108-2.3066-11.8149c-0.0127-0.0283-0.3027-0.1021-0.626-0.0659
		c-0.2549,0.0283-0.5195-0.168-0.5508-0.4429c-0.0303-0.2749,0.1689-0.5215,0.4434-0.5513
		c0.6699-0.0747,1.4697,0.1011,1.6992,0.8096c2.3408,11.9424,2.3408,12,2.3408,12.0654
		C23.792,17.4883,23.293,17.9854,22.6797,17.9854z"/>
	<path d="M5.4863,6.0151c-0.2764,0-0.5-0.2236-0.5-0.5V2.5796c0-0.2764,0.2236-0.5,0.5-0.5s0.5,0.2236,0.5,0.5v2.9355
		C5.9863,5.7915,5.7627,6.0151,5.4863,6.0151z"/>
	<path d="M10.4868,6.0151c-0.2764,0-0.5-0.2236-0.5-0.5V2.5796c0-0.2764,0.2236-0.5,0.5-0.5s0.5,0.2236,0.5,0.5v2.9355
		C10.9868,5.7915,10.7632,6.0151,10.4868,6.0151z"/>
	<path d="M15.4873,6.0151c-0.2764,0-0.5-0.2236-0.5-0.5V2.5796c0-0.2764,0.2236-0.5,0.5-0.5s0.5,0.2236,0.5,0.5v2.9355
		C15.9873,5.7915,15.7637,6.0151,15.4873,6.0151z"/>
	<path d="M19.8057,20H1.1855c-0.6562,0-1.1899-0.5342-1.1899-1.1904V5.1904C-0.0044,4.5342,0.5293,4,1.1855,4h18.6201
		c0.6562,0,1.1895,0.5342,1.1895,1.1904v13.6191C20.9951,19.4658,20.4619,20,19.8057,20z M1.1855,5
		C1.0811,5,0.9956,5.0854,0.9956,5.1904v13.6191C0.9956,18.915,1.0811,19,1.1855,19h18.6201c0.1045,0,0.1895-0.085,0.1895-0.1904
		V5.1904c0-0.105-0.085-0.1904-0.1895-0.1904H1.1855z"/>
	<path d="M5.6758,12.2588c-1.2764,0-2.3149-1.0381-2.3149-2.3145s1.0386-2.3149,2.3149-2.3149S7.9907,8.668,7.9907,9.9443
		S6.9521,12.2588,5.6758,12.2588z M5.6758,8.6294c-0.7251,0-1.3149,0.5898-1.3149,1.3149s0.5898,1.3149,1.3149,1.3149
		s1.3149-0.5898,1.3149-1.3149S6.4009,8.6294,5.6758,8.6294z"/>
	<path d="M4.8252,20c-0.1001,0-0.2012-0.0303-0.2891-0.0928C4.311,19.748,4.2583,19.4355,4.418,19.2109l6.0122-8.4697
		c0.0928-0.1304,0.2427-0.209,0.4028-0.2104c0.1333-0.0435,0.3115,0.0737,0.4067,0.2021l2.0522,2.77l2.8066-4.4131
		c0.0898-0.1421,0.2451-0.229,0.4131-0.2319c0.1602-0.0063,0.3252,0.0786,0.4209,0.2168l3.9795,5.7886
		c0.1562,0.2275,0.0986,0.5391-0.1289,0.6953c-0.2266,0.1572-0.5391,0.0996-0.6953-0.1289l-3.5508-5.1655l-2.792,4.3901
		c-0.0879,0.1387-0.2393,0.2256-0.4043,0.2314c-0.168-0.0039-0.3223-0.0713-0.4189-0.2021l-2.0752-2.8013l-5.6133,7.9067
		C5.1357,19.9268,4.9819,20,4.8252,20z"/>
</g>
<rect x="-0.0137" y="0.0002" fill="none" width="24" height="24"/>
</svg>
