<?xml version="1.0" encoding="utf-8"?>
<!-- Generator: Adobe Illustrator 18.1.0, SVG Export Plug-In . SVG Version: 6.00 Build 0)  -->
<svg version="1.1" id="Layer_1" xmlns="http://www.w3.org/2000/svg" xmlns:xlink="http://www.w3.org/1999/xlink" x="0px" y="0px"
	 width="24px" height="24px" viewBox="0 0 24 24" enable-background="new 0 0 24 24" xml:space="preserve">
<g>
	<path d="M8.9697,23.7266c-0.5435,0-1.0801-0.0479-1.6011-0.1475c-2.8511-0.543-4.8745-2.5283-5.6973-5.5908
		C0.4688,13.5117,1.3994,9.126,4.291,5.6382c2.9043-3.502,7.5181-5.6519,11.502-5.3486c1.7871,0.1362,2.9531,0.7773,3.4658,1.9058
		c1.2607,2.7739-2.1807,7.4316-2.3281,7.6284c-0.1641,0.2222-0.4775,0.2676-0.6992,0.1011c-0.2217-0.165-0.2666-0.478-0.1016-0.6997
		c0.9033-1.2104,3.0625-4.7598,2.2178-6.6167c-0.3506-0.7705-1.2354-1.2153-2.6309-1.3218
		C12.0439,1.0054,7.7671,3.0117,5.061,6.2764c-2.6792,3.231-3.54,7.2979-2.4238,11.4521c0.9199,3.4248,3.1826,4.5371,4.9185,4.8682
		c3.0029,0.5762,6.7354-0.8408,8.498-3.2139c0.7656-1.0303,1.4678-2.6602,0.4668-4.5771c-0.1279-0.2451-0.0332-0.5469,0.2119-0.6748
		c0.2451-0.126,0.5469-0.0332,0.6748,0.2119c0.9678,1.8535,0.7725,3.8555-0.5508,5.6357
		C15.1572,22.2656,11.9717,23.7256,8.9697,23.7266z"/>
	<path d="M6.5024,14.2041c-0.1484,0-0.2949-0.0654-0.3936-0.1914c-0.1709-0.2168-0.1328-0.5312,0.0845-0.7021
		c1.4082-1.1055,5.3145-1.6538,5.7554-1.7124c0.2593-0.0381,0.5249,0.1553,0.561,0.4292c0.0371,0.2734-0.1553,0.5254-0.4287,0.5615
		c-1.123,0.1504-4.2588,0.7139-5.2705,1.5088C6.7192,14.1689,6.6104,14.2041,6.5024,14.2041z"/>
	<path d="M22.7559,19.2881c-0.2393,0-0.4512-0.1738-0.4922-0.418c-0.0361-0.2178-0.9688-5.3379-7.6904-6.1631
		c-0.3223-0.0352-0.6377,0.1025-0.8213,0.3711c-0.6836,1.0039-2.0166,3.0576-3.2588,5.5332
		c-0.124,0.2461-0.4238,0.3457-0.6709,0.2227c-0.2471-0.124-0.3467-0.4248-0.2227-0.6719c1.2681-2.5264,2.6279-4.6221,3.3262-5.6465
		c0.3936-0.5801,1.0615-0.8931,1.7695-0.8008c7.4873,0.9189,8.5449,6.9336,8.5547,6.9941c0.0439,0.2725-0.1406,0.5283-0.4121,0.5732
		C22.8105,19.2861,22.7832,19.2881,22.7559,19.2881z"/>
	<path d="M23.3066,16.1592c-0.2031,0-0.3945-0.125-0.4688-0.3271c-1.4648-3.9751-6.2773-4.3579-7.8594-4.4839
		c-0.5732-0.0459-1.001-0.458-1.2939-1.1675c-0.5283-1.2808-0.5391-3.2856,0.4824-4.4795c0.1797-0.2085,0.4951-0.2324,0.7051-0.0547
		c0.21,0.1797,0.2344,0.4951,0.0547,0.7051c-0.6777,0.7925-0.7109,2.1191-0.4424,3.082c0.1719,0.6172,0.4121,0.8848,0.4951,0.9126
		c4.7451,0.3765,7.6777,2.104,8.7959,5.1401c0.0957,0.2588-0.0371,0.5469-0.2959,0.6416
		C23.4229,16.1494,23.3643,16.1592,23.3066,16.1592z"/>
	<path d="M12.7891,11.3428c-0.0566,0-0.1143-0.0098-0.1709-0.0303c-3.104-1.1279-4.0264-2.3667-4.3735-2.8335L8.1914,8.4097
		C8.019,8.2715,7.9536,8.0293,8.0469,7.8174C8.1582,7.5649,8.4526,7.4512,8.7065,7.562c0.1523,0.0674,0.2349,0.1787,0.3403,0.3198
		c0.2983,0.4009,1.0908,1.4653,3.9131,2.4912c0.2598,0.0942,0.3936,0.3809,0.2988,0.6406
		C13.1855,11.2168,12.9932,11.3428,12.7891,11.3428z"/>
</g>
<rect x="0.0142" fill="none" width="24" height="24"/>
</svg>
