<?xml version="1.0" encoding="utf-8"?>
<!-- Generator: Adobe Illustrator 18.1.0, SVG Export Plug-In . SVG Version: 6.00 Build 0)  -->
<svg version="1.1" id="Layer_1" xmlns="http://www.w3.org/2000/svg" xmlns:xlink="http://www.w3.org/1999/xlink" x="0px" y="0px"
	 width="24px" height="24px" viewBox="0 0 24 24" enable-background="new 0 0 24 24" xml:space="preserve">
<g>
	<path d="M22.6943,24.0146H1.3418c-0.7246,0-1.314-0.5918-1.314-1.3184v-2.8721c0-0.543,0.3394-1.0371,0.8447-1.2314
		c1.7227-0.6592,3.5337-1.0039,4.9888-1.2803c1.0518-0.2002,2.6162-0.498,2.8423-0.7959v-1.0479
		c-3.4653-0.1104-4.9116-1.2441-4.9746-1.2939c-0.1289-0.1045-0.1982-0.2656-0.1841-0.4307
		c0.0137-0.166,0.1084-0.3135,0.2529-0.3945c0.9038-0.5088,1.5835-4.1235,1.7773-6.5278c-0.0015-3.6479,2.8896-6.6484,6.4434-6.6484
		c3.9805,0,6.4443,3.4717,6.4443,6.6885c0.1934,2.3647,0.873,5.98,1.7754,6.4878c0.1445,0.0811,0.2393,0.2285,0.2529,0.3945
		c0.0137,0.165-0.0547,0.3262-0.1846,0.4307c-0.0625,0.0498-1.5088,1.1836-4.9736,1.2939v1.0479
		c0.2266,0.2988,1.793,0.5967,2.8447,0.7969c1.4551,0.2764,3.2646,0.6211,4.9863,1.2793c0.5059,0.1943,0.8447,0.6895,0.8447,1.2314
		v2.8721C24.0088,23.4229,23.4189,24.0146,22.6943,24.0146z M4.8643,13.6816C5.541,14,6.9268,14.4707,9.2051,14.4775
		c0.2754,0.001,0.4985,0.2246,0.4985,0.5v1.6465c0,0.0508-0.0078,0.1016-0.0229,0.1504c-0.2778,0.8818-1.6123,1.1357-3.6323,1.5205
		c-1.4165,0.2686-3.1792,0.6045-4.8179,1.2314c-0.123,0.0469-0.2026,0.1641-0.2026,0.2979v2.8721
		c0,0.1758,0.1406,0.3184,0.314,0.3184h21.3525c0.1738,0,0.3145-0.1426,0.3145-0.3184v-2.8721c0-0.1318-0.082-0.251-0.2031-0.2979
		c-1.6367-0.626-3.3984-0.9609-4.8145-1.2305c-2.0215-0.3848-3.3574-0.6387-3.6348-1.5215
		c-0.0156-0.0488-0.0234-0.0996-0.0234-0.1504v-1.6465c0-0.2754,0.2227-0.499,0.499-0.5c2.2764-0.0068,3.6621-0.4775,4.3398-0.7959
		c-1.2314-1.665-1.6328-5.855-1.707-6.7798c-0.002-2.7759-2.083-5.7285-5.4463-5.7285c-3.0024,0-5.4448,2.5518-5.4448,5.6885
		C6.4976,7.8213,6.0967,12.0166,4.8643,13.6816z"/>
</g>
<rect x="0.0005" y="0.0004" fill="none" width="24" height="24"/>
</svg>
