<?xml version="1.0" encoding="utf-8"?>
<!-- Generator: Adobe Illustrator 18.1.0, SVG Export Plug-In . SVG Version: 6.00 Build 0)  -->
<svg version="1.1" id="Layer_1" xmlns="http://www.w3.org/2000/svg" xmlns:xlink="http://www.w3.org/1999/xlink" x="0px" y="0px"
	 width="24px" height="24px" viewBox="0 0 24 24" enable-background="new 0 0 24 24" xml:space="preserve">
<g>
	<path d="M18.501,24H5.5005c-0.2764,0-0.5-0.2236-0.5-0.5v-20c0-0.2764,0.2236-0.5,0.5-0.5h11.3794c0.2764,0,0.5,0.2236,0.5,0.5
		s-0.2236,0.5-0.5,0.5H6.0005v19H18.001V11.8179c0-0.2764,0.2236-0.5,0.5-0.5s0.5,0.2236,0.5,0.5V23.5
		C19.001,23.7764,18.7773,24,18.501,24z"/>
	<path d="M15.1855,10H5.0005c-0.2764,0-0.5-0.2236-0.5-0.5S4.7241,9,5.0005,9h10.1851c0.2764,0,0.5,0.2236,0.5,0.5
		S15.4619,10,15.1855,10z"/>
	<path d="M16.8799,4H5.0005c-0.2764,0-0.5-0.2236-0.5-0.5S4.7241,3,5.0005,3h11.8794c0.2764,0,0.5,0.2236,0.5,0.5
		S17.1562,4,16.8799,4z"/>
	<path d="M19.001,18H5.0005c-0.2764,0-0.5-0.2236-0.5-0.5s0.2236-0.5,0.5-0.5H19.001c0.2764,0,0.5,0.2236,0.5,0.5
		S19.2773,18,19.001,18z"/>
	<path d="M19.001,24H5.0005c-0.2764,0-0.5-0.2236-0.5-0.5s0.2236-0.5,0.5-0.5H19.001c0.2764,0,0.5,0.2236,0.5,0.5
		S19.2773,24,19.001,24z"/>
	<path d="M18.501,12.3174c-2.2217,0-4.0283-1.8062-4.0283-4.0273c0-1.3496,3.1328-8.0112,4.0283-8.0112s4.0273,6.6616,4.0273,8.0112
		C22.5283,10.5112,20.7217,12.3174,18.501,12.3174z M18.501,1.6919c-0.9062,1.4771-3.0283,5.2095-3.0283,6.5981
		c0,1.6694,1.3584,3.0278,3.0283,3.0278c1.6689,0,3.0273-1.3584,3.0273-3.0278C21.5283,6.9062,19.4072,3.1704,18.501,1.6919z"/>
	<path d="M12.4424,15.7129c-0.2764,0-0.5-0.2236-0.5-0.5v-3.4258c0-0.2764,0.2236-0.5,0.5-0.5s0.5,0.2236,0.5,0.5v3.4258
		C12.9424,15.4893,12.7188,15.7129,12.4424,15.7129z"/>
	<path d="M16.5508,15.7129H14.501c-0.2764,0-0.5-0.2236-0.5-0.5v-3.4258c0-0.2764,0.2236-0.5,0.5-0.5s0.5,0.2236,0.5,0.5v2.9258
		h1.5498c0.2764,0,0.5,0.2236,0.5,0.5S16.8271,15.7129,16.5508,15.7129z"/>
	<path d="M9.1279,15.7129c-1.1294,0-2.0479-0.9932-2.0479-2.2129s0.9185-2.2129,2.0479-2.2129c1.1289,0,2.0474,0.9932,2.0474,2.2129
		S10.2568,15.7129,9.1279,15.7129z M9.1279,12.2871c-0.5776,0-1.0479,0.5439-1.0479,1.2129s0.4702,1.2129,1.0479,1.2129
		s1.0474-0.5439,1.0474-1.2129S9.7056,12.2871,9.1279,12.2871z"/>
</g>
<rect x="0.0005" fill="none" width="24" height="24"/>
</svg>
