<?xml version="1.0" encoding="utf-8"?>
<!-- Generator: Adobe Illustrator 18.1.0, SVG Export Plug-In . SVG Version: 6.00 Build 0)  -->
<svg version="1.1" id="Layer_1" xmlns="http://www.w3.org/2000/svg" xmlns:xlink="http://www.w3.org/1999/xlink" x="0px" y="0px"
	 width="24px" height="24px" viewBox="0 0 24 24" enable-background="new 0 0 24 24" xml:space="preserve">
<g>
	<path d="M12.6934,4.5894c-1.1284,0-2.0464-0.9185-2.0464-2.0469s0.918-2.0469,2.0464-2.0469c1.1289,0,2.0469,0.9185,2.0469,2.0469
		S13.8223,4.5894,12.6934,4.5894z M12.6934,1.4956c-0.5771,0-1.0464,0.4697-1.0464,1.0469s0.4692,1.0469,1.0464,1.0469
		s1.0469-0.4697,1.0469-1.0469S13.2705,1.4956,12.6934,1.4956z"/>
	<path d="M11.4624,19.9863c-0.2754,0-0.499-0.2227-0.5-0.499c0-0.0342-0.0098-3.46-0.0752-4.5303
		c-0.0044-0.0781-0.0366-0.1484-0.0923-0.2051l-2.5591-2.6025c-0.0317-0.0322-0.0586-0.0684-0.0801-0.1074
		c-0.2695-0.4834-0.3296-1.064-0.1641-1.5928l1.0439-3.3384c0.3408-1.0894,1.4438-1.7578,2.5083-1.5249
		c1.1533,0.2534,1.7803,1.2871,1.5967,2.6328l-0.335,2.7358l2.6475,0.0415c0.2764,0.0044,0.4961,0.2319,0.4922,0.5078
		c-0.0039,0.2764-0.2207,0.5029-0.5078,0.4922l-3.2041-0.0503c-0.1416-0.0024-0.2759-0.0645-0.3691-0.1714
		c-0.0933-0.1074-0.1367-0.2485-0.1191-0.3896l0.4043-3.2944c0.0537-0.3979,0.0811-1.3296-0.8203-1.5278
		C10.7656,6.439,10.1772,6.811,9.9897,7.4097L8.9458,10.748c-0.0776,0.2485-0.0571,0.5195,0.0552,0.7534l2.5068,2.5493
		c0.2251,0.2285,0.3589,0.5293,0.3774,0.8467c0.0669,1.0986,0.0767,4.4453,0.0771,4.5879c0.001,0.2754-0.2227,0.5-0.4985,0.501
		C11.4634,19.9863,11.4629,19.9863,11.4624,19.9863z"/>
	<path d="M6.2729,15.0303H2.4961c-0.2764,0-0.5-0.2236-0.5-0.5s0.2236-0.5,0.5-0.5h3.5396l1.293-1.584
		c0.1738-0.2139,0.4878-0.2451,0.7036-0.0713c0.2139,0.1748,0.2456,0.4902,0.0708,0.7041l-1.4429,1.7676
		C6.5654,14.9629,6.4233,15.0303,6.2729,15.0303z"/>
	<path d="M5.4287,9.7104c-0.0635,0-0.1279-0.0122-0.1904-0.0376C4.9829,9.5674,4.8613,9.2754,4.9663,9.02l1.4951-3.6304
		c0.0771-0.1875,0.2598-0.3096,0.4624-0.3096h1.584c0.2764,0,0.5,0.2236,0.5,0.5s-0.2236,0.5-0.5,0.5h-1.249L5.8911,9.4009
		C5.8115,9.5938,5.625,9.7104,5.4287,9.7104z"/>
	<path d="M22.1934,23.9873H1.8604c-0.8135,0-1.4756-0.6621-1.4756-1.4756s0.6621-1.4756,1.4756-1.4756h20.333
		c0.8135,0,1.4756,0.6621,1.4756,1.4756S23.0068,23.9873,22.1934,23.9873z M1.8604,22.0361c-0.2622,0-0.4756,0.2129-0.4756,0.4756
		s0.2134,0.4756,0.4756,0.4756h20.333c0.2627,0,0.4756-0.2129,0.4756-0.4756s-0.2129-0.4756-0.4756-0.4756H1.8604z"/>
	<path d="M19.3545,22.0361c-0.0215,0-0.042-0.001-0.0635-0.0039c-0.2734-0.0342-0.4678-0.2842-0.4336-0.5586l1.5664-12.459
		c0.0352-0.2749,0.2852-0.4648,0.5586-0.4336c0.2734,0.0347,0.4678,0.2847,0.4336,0.5586l-1.5664,12.459
		C19.8174,21.8516,19.6025,22.0361,19.3545,22.0361z"/>
	<path d="M18.2783,10.8345c-0.1865,0-0.3662-0.105-0.4512-0.2852c-0.1191-0.2495-0.0127-0.5479,0.2363-0.6665l4.5625-2.1714
		c0.2471-0.1187,0.5479-0.0132,0.666,0.2368c0.1191,0.2495,0.0127,0.5479-0.2363,0.6665l-4.5625,2.1714
		C18.4238,10.8188,18.3506,10.8345,18.2783,10.8345z"/>
</g>
<rect x="0.0142" y="0.0346" fill="none" width="24" height="24"/>
</svg>
