<?xml version="1.0" encoding="utf-8"?>
<!-- Generator: Adobe Illustrator 18.1.0, SVG Export Plug-In . SVG Version: 6.00 Build 0)  -->
<svg version="1.1" id="Layer_1" xmlns="http://www.w3.org/2000/svg" xmlns:xlink="http://www.w3.org/1999/xlink" x="0px" y="0px"
	 width="24px" height="24px" viewBox="0 0 24 24" enable-background="new 0 0 24 24" xml:space="preserve">
<g>
	<path d="M21.1348,24H2.8652C1.2852,24,0,22.7148,0,21.1348V2.8652C0,1.2852,1.2852,0,2.8652,0h18.2695
		C22.7148,0,24,1.2852,24,2.8652v18.2695C24,22.7148,22.7148,24,21.1348,24z M2.8652,1C1.8369,1,1,1.8369,1,2.8652v18.2695
		C1,22.1631,1.8369,23,2.8652,23h18.2695C22.1631,23,23,22.1631,23,21.1348V2.8652C23,1.8369,22.1631,1,21.1348,1H2.8652z"/>
	<path d="M18.4854,6H5.5146c-0.2764,0-0.5-0.2236-0.5-0.5S5.2383,5,5.5146,5h12.9707c0.2764,0,0.5,0.2236,0.5,0.5
		S18.7617,6,18.4854,6z"/>
	<path d="M18.4854,10H5.5146c-0.2764,0-0.5-0.2236-0.5-0.5S5.2383,9,5.5146,9h12.9707c0.2764,0,0.5,0.2236,0.5,0.5
		S18.7617,10,18.4854,10z"/>
	<path d="M18.4854,14H5.5146c-0.2764,0-0.5-0.2236-0.5-0.5s0.2236-0.5,0.5-0.5h12.9707c0.2764,0,0.5,0.2236,0.5,0.5
		S18.7617,14,18.4854,14z"/>
	<path d="M18.4854,18H5.5146c-0.2764,0-0.5-0.2236-0.5-0.5s0.2236-0.5,0.5-0.5h12.9707c0.2764,0,0.5,0.2236,0.5,0.5
		S18.7617,18,18.4854,18z"/>
</g>
<rect fill="none" width="24" height="24"/>
</svg>
