<?xml version="1.0" encoding="utf-8"?>
<!-- Generator: Adobe Illustrator 18.1.0, SVG Export Plug-In . SVG Version: 6.00 Build 0)  -->
<svg version="1.1" id="Layer_1" xmlns="http://www.w3.org/2000/svg" xmlns:xlink="http://www.w3.org/1999/xlink" x="0px" y="0px"
	 width="24px" height="24px" viewBox="0 0 24 24" enable-background="new 0 0 24 24" xml:space="preserve">
<g>
	<path d="M22.498,3.001H10.5693c-0.2764,0-0.5-0.2236-0.5-0.5s0.2236-0.5,0.5-0.5H22.498c0.2764,0,0.5,0.2236,0.5,0.5
		S22.7744,3.001,22.498,3.001z"/>
	<path d="M18.4268,6.0005h-7.8574c-0.2764,0-0.5-0.2236-0.5-0.5s0.2236-0.5,0.5-0.5h7.8574c0.2764,0,0.5,0.2236,0.5,0.5
		S18.7031,6.0005,18.4268,6.0005z"/>
	<path d="M22.498,9.001H10.5693c-0.2764,0-0.5-0.2236-0.5-0.5s0.2236-0.5,0.5-0.5H22.498c0.2764,0,0.5,0.2236,0.5,0.5
		S22.7744,9.001,22.498,9.001z"/>
	<path d="M18.4268,12h-7.8574c-0.2764,0-0.5-0.2231-0.5-0.4995s0.2236-0.5,0.5-0.5h7.8574c0.2764,0,0.5,0.2236,0.5,0.5
		S18.7031,12,18.4268,12z"/>
	<path d="M22.498,15.001H10.5693c-0.2764,0-0.5-0.2236-0.5-0.5s0.2236-0.5,0.5-0.5H22.498c0.2764,0,0.5,0.2236,0.5,0.5
		S22.7744,15.001,22.498,15.001z"/>
	<path d="M18.4268,18.001h-7.8574c-0.2764,0-0.5-0.2236-0.5-0.5s0.2236-0.5,0.5-0.5h7.8574c0.2764,0,0.5,0.2236,0.5,0.5
		S18.7031,18.001,18.4268,18.001z"/>
	<path d="M22.498,21.001H10.5693c-0.2764,0-0.5-0.2236-0.5-0.5s0.2236-0.5,0.5-0.5H22.498c0.2764,0,0.5,0.2236,0.5,0.5
		S22.7744,21.001,22.498,21.001z"/>
	<path d="M6.3647,12.001H0.9297c-0.2764,0-0.5-0.2236-0.5-0.5s0.2236-0.5,0.5-0.5h5.4351c0.2764,0,0.5,0.2236,0.5,0.5
		S6.6411,12.001,6.3647,12.001z"/>
	<path d="M3.5674,14.7041c-0.1309,0-0.2612-0.0508-0.3594-0.1523c-0.1919-0.1992-0.1865-0.5156,0.0117-0.707l2.4302-2.3481
		L3.2153,9.082C3.019,8.8877,3.0181,8.5713,3.2124,8.375c0.1943-0.1953,0.5112-0.1968,0.707-0.0029l2.7974,2.7739
		c0.0957,0.0947,0.1489,0.2236,0.1479,0.3584c-0.001,0.1343-0.0557,0.2627-0.1523,0.356L3.915,14.5635
		C3.8179,14.6572,3.6924,14.7041,3.5674,14.7041z"/>
	<path d="M8.5098,23.001c-0.2764,0-0.5-0.2236-0.5-0.5V1.4829c0-0.2764,0.2236-0.5,0.5-0.5s0.5,0.2236,0.5,0.5V22.501
		C9.0098,22.7773,8.7861,23.001,8.5098,23.001z"/>
</g>
<rect y="0.0011" fill="none" width="24" height="24"/>
</svg>
