<?xml version="1.0" encoding="utf-8"?>
<!-- Generator: Adobe Illustrator 18.1.0, SVG Export Plug-In . SVG Version: 6.00 Build 0)  -->
<svg version="1.1" id="Layer_1" xmlns="http://www.w3.org/2000/svg" xmlns:xlink="http://www.w3.org/1999/xlink" x="0px" y="0px"
	 width="24px" height="24px" viewBox="0 0 24 24" enable-background="new 0 0 24 24" xml:space="preserve">
<g>
	<path d="M8.3608,16H0.5352c-0.2764,0-0.5-0.2236-0.5-0.5v-15c0-0.2764,0.2236-0.5,0.5-0.5h15c0.2764,0,0.5,0.2236,0.5,0.5v7.8257
		c0,0.2764-0.2236,0.5-0.5,0.5s-0.5-0.2236-0.5-0.5V1h-14v14h7.3257c0.2764,0,0.5,0.2236,0.5,0.5S8.6372,16,8.3608,16z"/>
	<path d="M23.5947,24.0596H8.3608c-0.2764,0-0.5-0.2236-0.5-0.5V15.5c0-0.2764,0.2236-0.5,0.5-0.5s0.5,0.2236,0.5,0.5v7.5596
		h14.2339V8.8257h-7.5596c-0.2764,0-0.5-0.2236-0.5-0.5s0.2236-0.5,0.5-0.5h8.0596c0.2764,0,0.5,0.2236,0.5,0.5v15.2339
		C24.0947,23.8359,23.8711,24.0596,23.5947,24.0596z"/>
	<g>
		<g>
			<path d="M9.3608,16h-1c-0.2764,0-0.5-0.2236-0.5-0.5v-1c0-0.2764,0.2236-0.5,0.5-0.5s0.5,0.2236,0.5,0.5V15h0.5
				c0.2764,0,0.5,0.2236,0.5,0.5S9.6372,16,9.3608,16z"/>
			<path d="M8.3608,12.9307c-0.2764,0-0.5-0.2236-0.5-0.5V11.396c0-0.2764,0.2236-0.5,0.5-0.5s0.5,0.2236,0.5,0.5v1.0347
				C8.8608,12.707,8.6372,12.9307,8.3608,12.9307z"/>
			<path d="M8.3608,9.8257c-0.2764,0-0.5-0.2236-0.5-0.5v-1c0-0.2764,0.2236-0.5,0.5-0.5h1c0.2764,0,0.5,0.2236,0.5,0.5
				s-0.2236,0.5-0.5,0.5h-0.5v0.5C8.8608,9.6021,8.6372,9.8257,8.3608,9.8257z"/>
			<path d="M12.4658,8.8257h-1.0352c-0.2764,0-0.5-0.2236-0.5-0.5s0.2236-0.5,0.5-0.5h1.0352c0.2764,0,0.5,0.2236,0.5,0.5
				S12.7422,8.8257,12.4658,8.8257z"/>
			<path d="M15.5352,9.8257c-0.2764,0-0.5-0.2236-0.5-0.5v-0.5h-0.5c-0.2764,0-0.5-0.2236-0.5-0.5s0.2236-0.5,0.5-0.5h1
				c0.2764,0,0.5,0.2236,0.5,0.5v1C16.0352,9.6021,15.8115,9.8257,15.5352,9.8257z"/>
			<path d="M15.5352,12.9307c-0.2764,0-0.5-0.2236-0.5-0.5v-1.0352c0-0.2764,0.2236-0.5,0.5-0.5s0.5,0.2236,0.5,0.5v1.0352
				C16.0352,12.707,15.8115,12.9307,15.5352,12.9307z"/>
			<path d="M15.5352,16h-1c-0.2764,0-0.5-0.2236-0.5-0.5s0.2236-0.5,0.5-0.5h0.5v-0.5c0-0.2764,0.2236-0.5,0.5-0.5
				s0.5,0.2236,0.5,0.5v1C16.0352,15.7764,15.8115,16,15.5352,16z"/>
			<path d="M12.4658,16h-1.0347c-0.2764,0-0.5-0.2236-0.5-0.5s0.2236-0.5,0.5-0.5h1.0347c0.2764,0,0.5,0.2236,0.5,0.5
				S12.7422,16,12.4658,16z"/>
		</g>
	</g>
</g>
<rect x="0.0293" y="0.0001" fill="none" width="24" height="24"/>
</svg>
