<?xml version="1.0" encoding="utf-8"?>
<!-- Generator: Adobe Illustrator 18.1.0, SVG Export Plug-In . SVG Version: 6.00 Build 0)  -->
<svg version="1.1" id="Layer_1" xmlns="http://www.w3.org/2000/svg" xmlns:xlink="http://www.w3.org/1999/xlink" x="0px" y="0px"
	 width="24px" height="24px" viewBox="0 0 24 24" enable-background="new 0 0 24 24" xml:space="preserve">
<g>
	<path d="M9.7153,7.9238c-0.1904,0-0.3799-0.0298-0.563-0.0884C8.1709,7.52,7.6206,6.4482,7.9258,5.4463
		c0.3018-0.9897,1.3745-1.5679,2.3521-1.2559c0.981,0.3149,1.5312,1.3867,1.2266,2.3892
		C11.2593,7.3838,10.5405,7.9238,9.7153,7.9238z M9.7148,5.1021c-0.3818,0-0.7163,0.2554-0.8325,0.6357
		C8.7354,6.2202,8.9937,6.7344,9.458,6.8833c0.4551,0.1465,0.9473-0.1289,1.0894-0.5947c0.147-0.4829-0.1113-0.9971-0.5752-1.146
		C9.8882,5.1157,9.8018,5.1021,9.7148,5.1021z"/>
	<path d="M8.6221,21.9648c-0.2754,0-0.4995-0.2227-0.5-0.499c0-0.0312-0.0088-3.1533-0.0664-4.1299
		c-0.0039-0.0605-0.0288-0.1182-0.0703-0.1611l-2.2729-2.375c-0.0308-0.0322-0.0571-0.0684-0.0781-0.1074
		c-0.2437-0.4492-0.2979-0.9873-0.1489-1.4775l0.9268-3.0449C6.7227,9.1504,7.73,8.5264,8.7095,8.7461
		c1.0405,0.2349,1.6001,1.1689,1.46,2.437l-0.1558,1.8149l1.9805,0.0312c0.2764,0.0049,0.4961,0.2314,0.4922,0.5078
		c-0.0049,0.2754-0.2188,0.4902-0.5078,0.4922l-2.5166-0.04c-0.1387-0.002-0.2705-0.0615-0.3633-0.165
		c-0.0928-0.1025-0.1392-0.2393-0.127-0.3779l0.2026-2.3608c0.04-0.3633,0.0508-1.1978-0.6851-1.3638
		c-0.4683-0.106-0.9614,0.2188-1.1201,0.7393l-0.9268,3.0449c-0.0659,0.2168-0.0498,0.4521,0.0439,0.6562l2.2207,2.3203
		c0.2056,0.2139,0.3291,0.4961,0.3467,0.7949c0.0596,1.0039,0.0679,4.0566,0.0684,4.1865c0.0005,0.2754-0.2227,0.5-0.4985,0.501
		C8.623,21.9648,8.6226,21.9648,8.6221,21.9648z"/>
	<path d="M4.0142,17.9756h-3.353c-0.2764,0-0.5-0.2236-0.5-0.5s0.2236-0.5,0.5-0.5h3.1118l1.1313-1.4238
		c0.1729-0.2158,0.4868-0.2529,0.7026-0.0801c0.2163,0.1719,0.2524,0.4863,0.0806,0.7031l-1.2817,1.6123
		C4.3105,17.9062,4.1665,17.9756,4.0142,17.9756z"/>
	<path d="M2.4995,12.8994c-0.0796,0-0.1602-0.0186-0.2349-0.0586c-0.2437-0.1299-0.3359-0.4336-0.2056-0.6768l1.5532-2.9106
		c0.0869-0.1631,0.2563-0.2646,0.4409-0.2646h1.4062c0.2764,0,0.5,0.2236,0.5,0.5s-0.2236,0.5-0.5,0.5H4.353l-1.4121,2.646
		C2.8511,12.8037,2.6782,12.8994,2.4995,12.8994z"/>
	<path d="M16.4863,19h-5c-0.2764,0-0.5-0.2236-0.5-0.5v-0.9316c0-0.2764,0.2236-0.5,0.5-0.5s0.5,0.2236,0.5,0.5V18h4.5
		c0.2764,0,0.5,0.2236,0.5,0.5S16.7627,19,16.4863,19z"/>
	<path d="M11.4863,3.0063c-0.2764,0-0.5-0.2236-0.5-0.5V0.5c0-0.2764,0.2236-0.5,0.5-0.5h12c0.2764,0,0.5,0.2236,0.5,0.5
		s-0.2236,0.5-0.5,0.5h-11.5v1.5063C11.9863,2.7827,11.7627,3.0063,11.4863,3.0063z"/>
	<path fill="none" stroke="#000000" stroke-linecap="round" stroke-linejoin="round" d="M8.7034,8.0052"/>
	<path fill="none" stroke="#000000" stroke-linecap="round" stroke-linejoin="round" d="M8.7034,13.6717"/>
	<path d="M16.4863,23.3633c-0.0859,0-0.1719-0.0225-0.249-0.0664c-0.1553-0.0889-0.251-0.2549-0.251-0.4336V4.7041
		c0-0.1777,0.0938-0.3418,0.2471-0.4316l7-4.0957c0.1553-0.0908,0.3467-0.0918,0.502-0.002c0.1553,0.0889,0.251,0.2544,0.251,0.4336
		v18.1592c0,0.1777-0.0938,0.3418-0.2471,0.4316l-7,4.0957C16.6611,23.3408,16.5732,23.3633,16.4863,23.3633z M16.9863,4.9907
		v17.0005l6-3.5107v-17L16.9863,4.9907z"/>
</g>
<rect x="-0.0136" y="0.0002" fill="none" width="24" height="24"/>
</svg>
