<?xml version="1.0" encoding="utf-8"?>
<!-- Generator: Adobe Illustrator 18.1.0, SVG Export Plug-In . SVG Version: 6.00 Build 0)  -->
<svg version="1.1" id="Layer_1" xmlns="http://www.w3.org/2000/svg" xmlns:xlink="http://www.w3.org/1999/xlink" x="0px" y="0px"
	 width="24px" height="24px" viewBox="0 0 24 24" enable-background="new 0 0 24 24" xml:space="preserve">
<g>
	<path d="M12.0059,23.0439c-6.521,0-11.3691-6.4512-11.8062-12.4756c-0.0103-0.1387,0.0376-0.2749,0.1323-0.3765
		c0.0947-0.1021,0.2275-0.1597,0.3662-0.1597h22.6152c0.1387,0,0.2715,0.0576,0.3662,0.1597
		c0.0947,0.1016,0.1426,0.2378,0.1328,0.3765C23.375,16.5938,18.5264,23.0439,12.0059,23.0439z M1.248,11.0322
		c0.6392,5.417,4.9839,11.0117,10.7578,11.0117c5.7734,0,10.1182-5.5947,10.7578-11.0117H1.248z"/>
	<path d="M6.3862,18.4688c-0.1309,0-0.2612-0.0508-0.3594-0.1523c-1.4038-1.4531-2.4531-3.3516-2.9536-5.3467
		c-0.0674-0.2686,0.0952-0.54,0.3633-0.6074c0.2637-0.0625,0.5396,0.0957,0.6064,0.3633c0.459,1.8281,1.4189,3.5674,2.7026,4.8955
		c0.1919,0.1992,0.1865,0.5156-0.0117,0.707C6.6367,18.4219,6.5112,18.4688,6.3862,18.4688z"/>
	<path d="M15.6719,11.0322c-0.0498,0-0.1006-0.0073-0.1504-0.0234c-0.2637-0.083-0.4092-0.3638-0.3262-0.627l2.7969-8.8604
		c0.083-0.2632,0.3643-0.4097,0.627-0.3262c0.2637,0.083,0.4092,0.3638,0.3262,0.627l-2.7969,8.8604
		C16.0811,10.896,15.8848,11.0322,15.6719,11.0322z"/>
	<path d="M17.7275,11.0322c-0.083,0-0.166-0.0205-0.2432-0.0635c-0.2412-0.1343-0.3281-0.439-0.1934-0.6802l5.2314-9.377
		c0.1348-0.2422,0.4395-0.3276,0.6797-0.1929c0.2412,0.1343,0.3281,0.439,0.1934,0.6802l-5.2314,9.377
		C18.0723,10.9399,17.9023,11.0322,17.7275,11.0322z"/>
	<path d="M14.7139,11.0322H3.5581c-0.1504,0-0.2925-0.0674-0.3877-0.1841c-0.0947-0.1162-0.1323-0.269-0.1021-0.4165
		c0.5127-2.4985,3.0645-4.3125,6.0679-4.3125c3.0024,0,5.5542,1.8135,6.0679,4.3125c0.0293,0.147-0.0078,0.3003-0.1025,0.4165
		C15.0068,10.9648,14.8643,11.0322,14.7139,11.0322z M4.2266,10.0322h9.8193c-0.6777-1.7197-2.6357-2.9131-4.9097-2.9131
		C6.8618,7.1191,4.9028,8.3125,4.2266,10.0322z"/>
</g>
<rect y="0.0197" fill="none" width="24" height="24"/>
</svg>
