<?xml version="1.0" encoding="utf-8"?>
<!-- Generator: Adobe Illustrator 18.1.0, SVG Export Plug-In . SVG Version: 6.00 Build 0)  -->
<svg version="1.1" id="Layer_1" xmlns="http://www.w3.org/2000/svg" xmlns:xlink="http://www.w3.org/1999/xlink" x="0px" y="0px"
	 width="24px" height="24px" viewBox="0 0 24 24" enable-background="new 0 0 24 24" xml:space="preserve">
<g>
	<path d="M11.5195,23.9307c-5.7344,0-10.3999-4.665-10.3999-10.3994S5.7852,3.1313,11.5195,3.1313s10.3994,4.6655,10.3994,10.3999
		S17.2539,23.9307,11.5195,23.9307z M11.5195,4.1313c-5.1831,0-9.3999,4.2168-9.3999,9.3999c0,5.1826,4.2168,9.3994,9.3999,9.3994
		c5.1826,0,9.3994-4.2168,9.3994-9.3994C20.9189,8.3481,16.7021,4.1313,11.5195,4.1313z"/>
	<path d="M11.5195,15.1875c-0.9131,0-1.6562-0.7432-1.6562-1.6562s0.7432-1.6562,1.6562-1.6562s1.6562,0.7432,1.6562,1.6562
		S12.4326,15.1875,11.5195,15.1875z M11.5195,12.875c-0.3618,0-0.6562,0.2939-0.6562,0.6562s0.2944,0.6562,0.6562,0.6562
		s0.6562-0.2939,0.6562-0.6562S11.8813,12.875,11.5195,12.875z"/>
	<path d="M11.519,12.875c-0.2764,0-0.5-0.2236-0.5-0.5V6.0679c0-0.2764,0.2236-0.5,0.5-0.5s0.5005,0.2236,0.5005,0.5v6.3071
		C12.0195,12.6514,11.7954,12.875,11.519,12.875z"/>
	<path d="M11.5195,4.1313c-0.2764,0-0.5-0.2236-0.5-0.5V1.1851c0-0.2764,0.2236-0.5,0.5-0.5s0.5,0.2236,0.5,0.5v2.4463
		C12.0195,3.9077,11.7959,4.1313,11.5195,4.1313z"/>
	<path d="M18.5195,7.0308c-0.1279,0-0.2559-0.0488-0.3535-0.1465c-0.1953-0.1953-0.1953-0.5117,0-0.707l2.8174-2.8169
		c0.1953-0.1953,0.5117-0.1953,0.707,0s0.1953,0.5117,0,0.707L18.873,6.8843C18.7754,6.9819,18.6475,7.0308,18.5195,7.0308z"/>
	<path d="M22.292,5.1685c-0.1279,0-0.2559-0.0488-0.3535-0.1465l-1.9102-1.9097c-0.1953-0.1953-0.1953-0.5117,0-0.707
		s0.5117-0.1953,0.707,0l1.9102,1.9097c0.1953,0.1953,0.1953,0.5117,0,0.707C22.5479,5.1196,22.4199,5.1685,22.292,5.1685z"/>
</g>
<rect x="0.0142" y="0.0346" fill="none" width="24" height="24"/>
</svg>
