<?xml version="1.0" encoding="utf-8"?>
<!-- Generator: Adobe Illustrator 18.1.0, SVG Export Plug-In . SVG Version: 6.00 Build 0)  -->
<svg version="1.1" id="Layer_1" xmlns="http://www.w3.org/2000/svg" xmlns:xlink="http://www.w3.org/1999/xlink" x="0px" y="0px"
	 width="24px" height="24px" viewBox="0 0 24 24" enable-background="new 0 0 24 24" xml:space="preserve">
<g>
	<path d="M21,19H1c-0.5513,0-1-0.4482-1-1V6c0-0.5513,0.4487-1,1-1h20c0.5518,0,1,0.4487,1,1v3h1c0.5518,0,1,0.4487,1,1v4
		c0,0.5518-0.4482,1-1,1h-1v3C22,18.5518,21.5518,19,21,19z M21,18v0.5l0.001-0.5H21z M1,6v12h20v-3.5c0-0.2764,0.2236-0.5,0.5-0.5
		H23v-4h-1.5C21.2236,10,21,9.7764,21,9.5V6H1z"/>
</g>
<rect fill="none" width="24" height="24"/>
</svg>
