<?xml version="1.0" encoding="utf-8"?>
<!-- Generator: Adobe Illustrator 18.1.0, SVG Export Plug-In . SVG Version: 6.00 Build 0)  -->
<svg version="1.1" id="Layer_1" xmlns="http://www.w3.org/2000/svg" xmlns:xlink="http://www.w3.org/1999/xlink" x="0px" y="0px"
	 width="24px" height="24px" viewBox="0 0 24 24" enable-background="new 0 0 24 24" xml:space="preserve">
<g>
	<path d="M23.4639,22.9922H0.5918c-0.2764,0-0.5-0.2236-0.5-0.5s0.2236-0.5,0.5-0.5h22.8721c0.2764,0,0.5,0.2236,0.5,0.5
		S23.7402,22.9922,23.4639,22.9922z"/>
	<path d="M11.5522,22.9922c-0.2764,0-0.5-0.2236-0.5-0.5V5.7095c0-0.2764,0.2236-0.5,0.5-0.5s0.5005,0.2236,0.5005,0.5v16.7827
		C12.0527,22.7686,11.8286,22.9922,11.5522,22.9922z"/>
	<path d="M11.5527,15.7695c-0.0229,0-0.0464-0.002-0.0698-0.0049c-0.2734-0.0381-0.4644-0.291-0.4258-0.5645
		c0.0205-0.1475,0.5312-3.6353,2.6431-4.9307c0.8926-0.5483,1.9238-0.6279,3.0625-0.2358c0.2617,0.0894,0.4004,0.374,0.3105,0.6353
		c-0.0898,0.2603-0.374,0.4009-0.6348,0.3101c-0.8545-0.2939-1.5801-0.2471-2.2148,0.1426
		c-1.7148,1.0522-2.1719,4.186-2.1758,4.2173C12.0127,15.5889,11.7983,15.7695,11.5527,15.7695z"/>
	<path d="M11.5527,14.0713c-0.1899,0-0.3711-0.1084-0.4551-0.292c-0.2607-0.5693-1.2104-2.23-2.1265-2.3896
		c-0.1855-0.0337-0.479-0.0303-0.8687,0.3682c-0.1924,0.1978-0.5093,0.2012-0.707,0.0078s-0.2007-0.5098-0.0078-0.707
		c0.6655-0.6787,1.3228-0.73,1.7568-0.6538c1.5986,0.2803,2.7378,2.686,2.8623,2.9595c0.1152,0.251,0.0039,0.5469-0.2471,0.6621
		C11.6929,14.0566,11.6221,14.0713,11.5527,14.0713z"/>
	<path d="M16.1289,18.1709c-1.2236,0-2.3984-0.3994-3.3965-1.1543c-0.2197-0.166-0.2637-0.4795-0.0967-0.7002
		c0.165-0.2207,0.4795-0.2627,0.7002-0.0967c0.8232,0.6221,1.7891,0.9512,2.793,0.9512c2.7227,0,4.9385-2.4277,4.9385-5.4116
		c0-2.4771-1.5332-4.6313-3.7275-5.2397c-0.1904-0.0527-0.332-0.2129-0.3604-0.4082c-0.4375-2.9331-2.7246-5.062-5.4385-5.062
		c-1.6401,0-3.1836,0.7915-4.2349,2.1714c-1.1929,1.5654-1.584,3.665-1.0469,5.6162C6.3184,9.0513,6.229,9.2783,6.04,9.395
		c-1.0884,0.6719-1.7642,1.938-1.7642,3.3042c0,1.5137,0.7852,2.8389,2.0488,3.458c1.1191,0.5479,2.3799,0.4121,3.374-0.3584
		c0.2188-0.1709,0.5317-0.1299,0.7017,0.0879c0.1694,0.2178,0.1299,0.5322-0.0884,0.7012
		c-1.3037,1.0127-2.9585,1.1875-4.4272,0.4668c-1.6094-0.7881-2.6089-2.457-2.6089-4.3555c0-1.5796,0.7319-3.0586,1.9316-3.9473
		C4.7251,6.603,5.2012,4.3335,6.5107,2.6147c1.2417-1.6304,3.0752-2.5654,5.0303-2.5654c3.1143,0,5.749,2.3369,6.374,5.6011
		c2.46,0.8354,4.1523,3.2998,4.1523,6.1089C22.0674,15.2949,19.4033,18.1709,16.1289,18.1709z"/>
</g>
<rect x="-0.0008" y="-0.0147" fill="none" width="24" height="24"/>
</svg>
