<?xml version="1.0" encoding="utf-8"?>
<!-- Generator: Adobe Illustrator 18.1.0, SVG Export Plug-In . SVG Version: 6.00 Build 0)  -->
<svg version="1.1" id="Layer_1" xmlns="http://www.w3.org/2000/svg" xmlns:xlink="http://www.w3.org/1999/xlink" x="0px" y="0px"
	 width="24px" height="24px" viewBox="0 0 24 24" enable-background="new 0 0 24 24" xml:space="preserve">
<g>
	<path d="M11.9844,23.7949c-6.4775,0-11.7471-5.2695-11.7471-11.7471S5.5068,0.3008,11.9844,0.3008s11.7471,5.2695,11.7471,11.7471
		S18.4619,23.7949,11.9844,23.7949z M11.9844,1.3008c-5.9258,0-10.7471,4.8213-10.7471,10.7471s4.8213,10.7471,10.7471,10.7471
		s10.7471-4.8213,10.7471-10.7471S17.9102,1.3008,11.9844,1.3008z"/>
	<path d="M12.0439,23.7949c-0.2764,0-0.5-0.2236-0.5-0.5s0.2236-0.5,0.5-0.5c2.7773,0,5.124-4.9219,5.124-10.7471
		c0-5.8257-2.3467-10.7471-5.124-10.7471c-0.2764,0-0.5-0.2236-0.5-0.5s0.2236-0.5,0.5-0.5c3.4336,0,6.124,5.1602,6.124,11.7471
		S15.4775,23.7949,12.0439,23.7949z"/>
	<path d="M11.9517,23.7949c-3.4336,0-6.1235-5.1602-6.1235-11.7471S8.5181,0.3008,11.9517,0.3008c0.2759,0,0.4995,0.2236,0.4995,0.5
		s-0.2236,0.5-0.4995,0.5c-2.7773,0-5.1235,4.9214-5.1235,10.7471c0,5.8252,2.3462,10.7471,5.1235,10.7471
		c0.2759,0,0.4995,0.2236,0.4995,0.5S12.2275,23.7949,11.9517,23.7949z"/>
	<path d="M11.9844,23.7949c-0.2764,0-0.5-0.2236-0.5-0.5V0.8008c0-0.2764,0.2236-0.5,0.5-0.5s0.5,0.2236,0.5,0.5v22.4941
		C12.4844,23.5713,12.2607,23.7949,11.9844,23.7949z"/>
	<path d="M23.2217,13H0.7373c-0.2764,0-0.5-0.2236-0.5-0.5s0.2236-0.5,0.5-0.5h22.4844c0.2764,0,0.5,0.2236,0.5,0.5
		S23.498,13,23.2217,13z"/>
	<path d="M22.2734,8H1.6953c-0.2764,0-0.5-0.2236-0.5-0.5S1.4189,7,1.6953,7h20.5781c0.2764,0,0.5,0.2236,0.5,0.5
		S22.5498,8,22.2734,8z"/>
	<path d="M21.8232,18H2.145c-0.2764,0-0.5-0.2236-0.5-0.5s0.2236-0.5,0.5-0.5h19.6782c0.2764,0,0.5,0.2236,0.5,0.5
		S22.0996,18,21.8232,18z"/>
</g>
<rect x="-0.0137" y="0.0001" fill="none" width="24" height="24"/>
</svg>
