<?xml version="1.0" encoding="utf-8"?>
<!-- Generator: Adobe Illustrator 18.1.0, SVG Export Plug-In . SVG Version: 6.00 Build 0)  -->
<svg version="1.1" id="Layer_1" xmlns="http://www.w3.org/2000/svg" xmlns:xlink="http://www.w3.org/1999/xlink" x="0px" y="0px"
	 width="24px" height="24px" viewBox="0 0 24 24" enable-background="new 0 0 24 24" xml:space="preserve">
<g>
	<path d="M5.5776,24.0078c-0.1191,0-0.2383-0.042-0.334-0.1279c-0.2056-0.1846-0.2227-0.5-0.0386-0.7061
		c0.0132-0.0146,1.3364-1.5137,2.8149-4.7627v-1.9072c0-0.2764,0.2236-0.5,0.5-0.5h0.5957c0.1963-0.5342,0.4277-1.126,0.8193-1.751
		v-1.6777c0-0.2529,0.188-0.4619,0.4321-0.4951c0.5425-2.4731,0.9243-5.6196,1.062-8.7573
		c-0.3276-0.1924-0.5464-0.5483-0.5464-0.9487c0-0.4233,0.2441-0.7949,0.5991-0.979c0.0029-0.2153,0.0044-0.4326,0.0044-0.6519
		c0-0.2764,0.2236-0.5,0.5-0.5s0.5,0.2236,0.5,0.5c0,0.2192,0.002,0.436,0.0039,0.6514c0.3555,0.1841,0.5996,0.5557,0.5996,0.9795
		c0,0.4004-0.2188,0.7559-0.5459,0.9487c0.1377,3.1377,0.5186,6.2837,1.0615,8.7544c0.251,0.0244,0.4482,0.2334,0.4521,0.4912
		l0.0244,1.6621c0.3887,0.5508,0.5898,1.1748,0.7549,1.6836c0.0098,0.0303,0.0195,0.0605,0.0283,0.0898h0.5811
		c0.2764,0,0.5,0.2236,0.5,0.5v1.9072c1.4795,3.248,2.8076,4.7471,2.8213,4.7627c0.1836,0.2051,0.167,0.5205-0.0381,0.7051
		c-0.2061,0.1836-0.5205,0.168-0.7051-0.0361c-0.0596-0.0654-1.4648-1.6426-3.0342-5.1172
		c-0.0293-0.0654-0.0439-0.1348-0.0439-0.2061v-1.5156h-0.4385c-0.209,0-0.3965-0.1309-0.4688-0.3271
		c-0.0518-0.1387-0.1016-0.293-0.1543-0.4561c-0.1621-0.501-0.3457-1.0693-0.6934-1.5117
		c-0.0684-0.0869-0.1055-0.1924-0.1074-0.3027l-0.0195-1.3516c-0.1699-0.0488-0.3047-0.1865-0.3467-0.3662
		c-0.2881-1.2368-0.5352-2.6567-0.7314-4.1704c-0.1958,1.5132-0.4434,2.9331-0.7319,4.1704
		c-0.0396,0.1699-0.1626,0.3018-0.3193,0.3574v1.3535c0,0.0977-0.0283,0.1934-0.082,0.2744
		c-0.4209,0.6406-0.6431,1.249-0.8579,1.8369l-0.061,0.166c-0.0723,0.1963-0.2598,0.3271-0.4692,0.3271H9.02v1.5156
		c0,0.0713-0.0151,0.1406-0.0444,0.2061c-1.5679,3.4746-2.9678,5.0508-3.0269,5.1162C5.8501,23.9521,5.7144,24.0078,5.5776,24.0078z
		"/>
	<path d="M20.252,24.0078h-1.8564c-0.2764,0-0.5-0.2236-0.5-0.5s0.2236-0.5,0.5-0.5h1.8564c0.2764,0,0.5,0.2236,0.5,0.5
		S20.5283,24.0078,20.252,24.0078z"/>
	<path d="M5.5771,24.0078H3.7207c-0.2764,0-0.5-0.2236-0.5-0.5s0.2236-0.5,0.5-0.5h1.8564c0.2764,0,0.5,0.2236,0.5,0.5
		S5.8535,24.0078,5.5771,24.0078z"/>
	<path d="M18.3955,24.0078h-3.8154c-0.2764,0-0.5-0.2236-0.5-0.5v-0.6689c0-1.1523-0.6553-2.3916-2.0938-2.3916
		c-1.2368,0-2.1006,0.9834-2.1006,2.3916v0.6689c0,0.2764-0.2236,0.5-0.5,0.5H5.5771c-0.2764,0-0.5-0.2236-0.5-0.5
		s0.2236-0.5,0.5-0.5h3.3086v-0.1689c0-1.9648,1.3042-3.3916,3.1006-3.3916c1.793,0,3.0938,1.4268,3.0938,3.3916v0.1689h3.3154
		c0.2764,0,0.5,0.2236,0.5,0.5S18.6719,24.0078,18.3955,24.0078z"/>
	<path d="M14.8057,13.0752H9.2368c-0.2764,0-0.5-0.2236-0.5-0.5s0.2236-0.5,0.5-0.5h5.5688c0.2764,0,0.5,0.2236,0.5,0.5
		S15.082,13.0752,14.8057,13.0752z"/>
	<path d="M17.5898,17.002H6.4526c-0.2764,0-0.5-0.2236-0.5-0.5s0.2236-0.5,0.5-0.5h11.1372c0.2764,0,0.5,0.2236,0.5,0.5
		S17.8662,17.002,17.5898,17.002z"/>
</g>
<rect x="-0.0136" fill="none" width="24" height="24"/>
</svg>
