<?xml version="1.0" encoding="utf-8"?>
<!-- Generator: Adobe Illustrator 18.1.0, SVG Export Plug-In . SVG Version: 6.00 Build 0)  -->
<svg version="1.1" id="Layer_1" xmlns="http://www.w3.org/2000/svg" xmlns:xlink="http://www.w3.org/1999/xlink" x="0px" y="0px"
	 width="24px" height="24px" viewBox="0 0 24 24" enable-background="new 0 0 24 24" xml:space="preserve">
<g>
	<path d="M22.1279,24H1.8442c-1.0244,0-1.8579-0.833-1.8579-1.8574V7.8579C-0.0137,6.8335,0.8198,6,1.8442,6h20.2837
		c1.0244,0,1.8584,0.8335,1.8584,1.8579v14.2847C23.9863,23.167,23.1523,24,22.1279,24z M1.8442,7
		C1.3711,7,0.9863,7.3848,0.9863,7.8579v14.2847C0.9863,22.6152,1.3711,23,1.8442,23h20.2837c0.4736,0,0.8584-0.3848,0.8584-0.8574
		V7.8579C22.9863,7.3848,22.6016,7,22.1279,7H1.8442z"/>
	<path d="M21.4863,7h-4c-0.2764,0-0.5-0.2236-0.5-0.5v-3c0-0.2764,0.2236-0.5,0.5-0.5h4c0.2764,0,0.5,0.2236,0.5,0.5v3
		C21.9863,6.7764,21.7627,7,21.4863,7z M17.9863,6h3V4h-3V6z"/>
	<path d="M6.4854,7h-4c-0.2764,0-0.5-0.2236-0.5-0.5v-3c0-0.2764,0.2236-0.5,0.5-0.5h4c0.2764,0,0.5,0.2236,0.5,0.5v3
		C6.9854,6.7764,6.7617,7,6.4854,7z M2.9854,6h3V4h-3V6z"/>
	<path d="M8.9863,15h-5c-0.2764,0-0.5-0.2236-0.5-0.5S3.71,14,3.9863,14h5c0.2764,0,0.5,0.2236,0.5,0.5S9.2627,15,8.9863,15z"/>
	<path d="M19.9873,15h-5c-0.2764,0-0.5-0.2236-0.5-0.5s0.2236-0.5,0.5-0.5h5c0.2764,0,0.5,0.2236,0.5,0.5S20.2637,15,19.9873,15z"/>
	<path d="M6.4863,17.5c-0.2764,0-0.5-0.2236-0.5-0.5v-5c0-0.2764,0.2236-0.5,0.5-0.5s0.5,0.2236,0.5,0.5v5
		C6.9863,17.2764,6.7627,17.5,6.4863,17.5z"/>
</g>
<rect x="-0.0137" fill="none" width="24" height="24"/>
</svg>
