<?xml version="1.0" encoding="utf-8"?>
<!-- Generator: Adobe Illustrator 18.1.0, SVG Export Plug-In . SVG Version: 6.00 Build 0)  -->
<svg version="1.1" id="Layer_1" xmlns="http://www.w3.org/2000/svg" xmlns:xlink="http://www.w3.org/1999/xlink" x="0px" y="0px"
	 width="24px" height="24px" viewBox="0 0 24 24" enable-background="new 0 0 24 24" xml:space="preserve">
<g>
	<path d="M6.5098,23.002h-5c-0.2764,0-0.5-0.2236-0.5-0.5v-5.001c0-0.2764,0.2236-0.5,0.5-0.5h5c0.2764,0,0.5,0.2236,0.5,0.5v5.001
		C7.0098,22.7783,6.7861,23.002,6.5098,23.002z M2.0098,22.002h4v-4.001h-4V22.002z"/>
	<path d="M6.5098,15.001h-5c-0.2764,0-0.5-0.2236-0.5-0.5V9.5005c0-0.2764,0.2236-0.5,0.5-0.5h5c0.2764,0,0.5,0.2236,0.5,0.5v5.0005
		C7.0098,14.7773,6.7861,15.001,6.5098,15.001z M2.0098,14.001h4v-4.0005h-4V14.001z"/>
	<path d="M21.4502,20H9.519c-0.2764,0-0.5-0.2236-0.5-0.5s0.2236-0.5,0.5-0.5h11.9312c0.2764,0,0.5,0.2236,0.5,0.5
		S21.7266,20,21.4502,20z"/>
	<path d="M21.4502,11.9995H9.519c-0.2764,0-0.5-0.2236-0.5-0.5s0.2236-0.5,0.5-0.5h11.9312c0.2764,0,0.5,0.2236,0.5,0.5
		S21.7266,11.9995,21.4502,11.9995z"/>
	<path d="M21.4502,3.9985H9.519c-0.2764,0-0.5-0.2236-0.5-0.5s0.2236-0.5,0.5-0.5h11.9312c0.2764,0,0.5,0.2236,0.5,0.5
		S21.7266,3.9985,21.4502,3.9985z"/>
	<path d="M3.1982,7C3.0596,7,2.9268,6.9424,2.832,6.8403L1.1436,5.0249c-0.188-0.2021-0.1768-0.5186,0.0259-0.7065
		C1.3706,4.1309,1.687,4.1421,1.876,4.3442l1.3047,1.4028l3.9966-4.7212c0.1787-0.21,0.4927-0.2363,0.7051-0.0586
		C8.0928,1.146,8.1191,1.4614,7.9409,1.6724L3.5801,6.8232C3.4873,6.9321,3.353,6.9966,3.21,7C3.2061,7,3.2021,7,3.1982,7z"/>
</g>
<rect x="0.0001" fill="none" width="24" height="24"/>
</svg>
