<?xml version="1.0" encoding="utf-8"?>
<!-- Generator: Adobe Illustrator 18.1.0, SVG Export Plug-In . SVG Version: 6.00 Build 0)  -->
<svg version="1.1" id="Layer_1" xmlns="http://www.w3.org/2000/svg" xmlns:xlink="http://www.w3.org/1999/xlink" x="0px" y="0px"
	 width="24px" height="24px" viewBox="0 0 24 24" enable-background="new 0 0 24 24" xml:space="preserve">
<g>
	<path d="M22.6592,23H1.3843C0.6338,23,0,22.4189,0,21.7314V9.0161C0,8.6284,0.2173,8.2407,0.5815,7.979l10.686-7.6538
		c0.4438-0.3198,1.0811-0.3193,1.5264,0.0005l10.6494,7.6528C23.792,8.231,24,8.6187,24,9.0161v12.729
		C24,22.3516,23.4609,23,22.6592,23z M12.0303,1.0806c-0.0659,0-0.1279,0.0195-0.1797,0.0566L1.1646,8.791
		C1.0513,8.8726,1,8.9717,1,9.0161v12.7153C1,21.8486,1.1865,22,1.3843,22h21.2749C22.8955,22,23,21.8154,23,21.7451V9.0161
		c0-0.0742-0.0566-0.165-0.1416-0.2261L12.21,1.1377C12.1582,1.1001,12.0967,1.0806,12.0303,1.0806z"/>
	<path d="M12.0225,15.8145c-0.0815,0-0.1631-0.0195-0.2368-0.0596L0.2549,9.5459C0.0117,9.4146-0.0796,9.1113,0.0513,8.8687
		C0.1816,8.625,0.4868,8.5352,0.7285,8.665l11.293,6.0811L23.2148,8.666c0.2393-0.1309,0.5459-0.0425,0.6777,0.2007
		c0.1318,0.2427,0.042,0.5464-0.2012,0.6782l-11.4307,6.209C12.1865,15.7939,12.1045,15.8145,12.0225,15.8145z"/>
</g>
<rect fill="none" width="24" height="24"/>
</svg>
