<?xml version="1.0" encoding="utf-8"?>
<!-- Generator: Adobe Illustrator 18.1.0, SVG Export Plug-In . SVG Version: 6.00 Build 0)  -->
<svg version="1.1" id="Layer_1" xmlns="http://www.w3.org/2000/svg" xmlns:xlink="http://www.w3.org/1999/xlink" x="0px" y="0px"
	 width="24px" height="24px" viewBox="0 0 24 24" enable-background="new 0 0 24 24" xml:space="preserve">
<g>
	<path d="M11.9863,19.6953c-4.2529,0-7.7129-3.46-7.7129-7.7129s3.46-7.7129,7.7129-7.7129s7.7129,3.46,7.7129,7.7129
		S16.2393,19.6953,11.9863,19.6953z M11.9863,5.2695c-3.7017,0-6.7129,3.0112-6.7129,6.7129c0,3.7012,3.0112,6.7129,6.7129,6.7129
		c3.7012,0,6.7129-3.0117,6.7129-6.7129C18.6992,8.2808,15.6875,5.2695,11.9863,5.2695z"/>
	<path d="M19.3203,19.7305c-0.127,0-0.2539-0.0479-0.3516-0.1445c-0.1963-0.1943-0.1982-0.5107-0.0039-0.707
		c1.8291-1.8496,2.8359-4.2988,2.8359-6.8965c0-2.5791-0.9961-5.0166-2.8057-6.8628c-0.1934-0.1973-0.1895-0.5142,0.0078-0.707
		c0.1973-0.1938,0.5127-0.1885,0.707,0.0068c1.9932,2.0347,3.0908,4.7207,3.0908,7.563c0,2.8633-1.1094,5.5625-3.125,7.5996
		C19.5781,19.6807,19.4492,19.7305,19.3203,19.7305z"/>
	<path d="M4.6523,19.7305c-0.1289,0-0.2578-0.0498-0.3555-0.1484c-2.0151-2.0381-3.125-4.7373-3.125-7.5996
		c0-2.8418,1.0977-5.5278,3.0908-7.563C4.457,4.2227,4.7725,4.2202,4.9702,4.4121c0.1973,0.1934,0.2002,0.5103,0.0073,0.7075
		C3.168,6.9663,2.1719,9.4038,2.1719,11.9824c0,2.5977,1.0073,5.0469,2.8359,6.8965c0.1943,0.1963,0.1924,0.5127-0.0039,0.707
		C4.9062,19.6826,4.7793,19.7305,4.6523,19.7305z"/>
	<path d="M11.9863,13.5488c-0.2764,0-0.5-0.2236-0.5-0.5V8.123c0-0.2764,0.2236-0.5,0.5-0.5s0.5,0.2236,0.5,0.5v4.9258
		C12.4863,13.3252,12.2627,13.5488,11.9863,13.5488z"/>
	<path d="M11.9863,16.2988c-0.2764,0-0.5-0.2236-0.5-0.5v-0.4893c0-0.2764,0.2236-0.5,0.5-0.5s0.5,0.2236,0.5,0.5v0.4893
		C12.4863,16.0752,12.2627,16.2988,11.9863,16.2988z"/>
</g>
<rect x="-0.0136" fill="none" width="24" height="24"/>
</svg>
