<?xml version="1.0" encoding="utf-8"?>
<!-- Generator: Adobe Illustrator 18.1.1, SVG Export Plug-In . SVG Version: 6.00 Build 0)  -->
<svg version="1.1" id="Layer_1" xmlns="http://www.w3.org/2000/svg" xmlns:xlink="http://www.w3.org/1999/xlink" x="0px" y="0px"
	 width="24px" height="24px" viewBox="0 0 24 24" enable-background="new 0 0 24 24" xml:space="preserve">
<rect fill="none" width="24" height="24"/>
<g>
	<path d="M2.7653,6.2377c0.0325,0.0563,0.076,0.106,0.1282,0.1463c0.0518,0.04,0.1114,0.0699,0.1758,0.0872
		c0.0425,0.0112,0.0859,0.0166,0.1289,0.0166c0.0001,0,0.0001-0.0001,0.0002-0.0001c0.0001,0,0.0002,0.0001,0.0003,0.0001
		c0.0007,0,0.0012-0.0007,0.002-0.0007c0.0865-0.0005,0.1721-0.0227,0.248-0.0667l1.8286-1.0596
		c0.2393-0.1387,0.3208-0.4443,0.1821-0.6831C5.3213,4.4385,5.0146,4.3579,4.7764,4.4956L3.9919,4.9502l0.8694-3.2627
		c0.0708-0.2671-0.0879-0.541-0.3545-0.6123c-0.2656-0.0669-0.54,0.0874-0.6118,0.3545L3.0256,4.6924L2.5713,3.9082
		C2.4331,3.6694,2.1265,3.5874,1.8882,3.7261C1.6489,3.8643,1.5674,4.1704,1.7061,4.4092L2.7653,6.2377z"/>
	<path d="M3.032,7.9874C2.9995,7.931,2.956,7.8814,2.9037,7.8411C2.8782,7.8214,2.8462,7.8126,2.8173,7.7982
		C2.7875,7.7833,2.7615,7.7629,2.728,7.7539C2.7175,7.7512,2.7072,7.7542,2.6966,7.7523C2.576,7.727,2.4532,7.7441,2.3486,7.8047
		L0.5195,8.8643C0.2803,9.0024,0.1987,9.3086,0.3374,9.5474c0.1382,0.2397,0.4463,0.3223,0.6831,0.1821l0.7849-0.4548L0.936,12.5371
		c-0.0708,0.2666,0.0879,0.541,0.3545,0.6123C1.334,13.1611,1.377,13.166,1.4199,13.166c0.2207,0,0.4229-0.1475,0.4824-0.3711
		l0.8693-3.2622l0.4539,0.7837c0.0928,0.1602,0.2607,0.2495,0.4331,0.2495c0.085,0,0.1714-0.0215,0.25-0.0674
		c0.2393-0.1382,0.3208-0.4443,0.1821-0.6831L3.032,7.9874z"/>
	<path d="M23.7881,17.9004c-0.7998-1.0791-1.5303-3.0645-1.8184-4.9385c-0.2705-1.7632-0.8379-3.4653-1.6855-5.0566
		c-0.3564-0.6729-1.1904-0.9497-1.9453-0.6118c-0.29,0.1309-0.5244,0.3433-0.6777,0.6104l-0.3086-0.5044
		c-0.3945-0.6528-1.2451-0.8813-1.9785-0.5015c-0.2471,0.1284-0.4482,0.3174-0.5869,0.5479l-0.0498-0.085
		c-0.3955-0.6494-1.25-0.8765-1.9961-0.4912C12.4922,6.9985,12.29,7.187,12.1484,7.416L9.1587,2.3618
		c-0.394-0.6509-1.2446-0.8809-1.978-0.501c-0.355,0.1836-0.6143,0.4917-0.73,0.8672c-0.1123,0.3638-0.0752,0.7471,0.103,1.0776
		l3.3628,6.3306c0.5435,1.0405,1.0811,2.5103,1.0474,3.6274l-3.4463-1.6729c-1.4121-0.5332-1.9995-0.1899-2.4858,0.5391
		c-0.0483,0.0732-0.0767,0.1572-0.0825,0.2441c-0.0396,0.6006,0.7861,1.5039,2.437,2.6719
		c0.5659,0.4404,0.9756,0.8818,1.3721,1.3096c0.8193,0.8838,1.5933,1.7188,3.4233,2.1777c2.79,0.6982,5.3555,4.1221,5.3818,4.1562
		c0.0977,0.1318,0.249,0.2021,0.4014,0.2021c0.1035,0,0.208-0.0322,0.2979-0.0986c0.2217-0.1641,0.2686-0.4775,0.1035-0.6992
		c-0.1123-0.1523-2.8027-3.7441-5.9414-4.5312c-1.542-0.3867-2.1558-1.0488-2.9331-1.8867
		c-0.4038-0.4355-0.8613-0.9297-1.5098-1.4326c-0.9185-0.6504-1.793-1.4316-1.9961-1.7314
		c0.1812-0.2266,0.3892-0.2852,1.1362-0.0039l4.0146,1.9512c0.1333,0.0664,0.2871,0.0664,0.4214,0.0078
		c0.1348-0.0596,0.2363-0.1758,0.2773-0.3174c0.52-1.7861-0.6587-4.2603-1.0342-4.979L7.4355,3.334
		c-0.0518-0.0952-0.062-0.2056-0.0293-0.311c0.0361-0.1172,0.1191-0.2148,0.2759-0.2954c0.2236-0.1172,0.4985-0.0503,0.6187,0.1479
		l5.1719,8.7417c0.0986,0.167,0.2764,0.2656,0.4795,0.2432l0.1045-0.0103c0.166-0.0161,0.3125-0.1143,0.3916-0.2612
		s0.0791-0.3237,0.001-0.4707l-1.4697-2.7666c-0.0635-0.1182-0.0498-0.231-0.0273-0.3047c0.0381-0.123,0.127-0.2256,0.291-0.311
		c0.2314-0.1201,0.5186-0.0552,0.6367,0.1396l2.0742,3.4995c0.0996,0.168,0.3867,0.251,0.5732,0.2334
		c0.165-0.0161,0.3115-0.1128,0.3906-0.2583s0.0811-0.3213,0.0049-0.4683l-1.2939-2.5103c-0.0508-0.0952-0.0615-0.2056-0.0293-0.311
		c0.0371-0.1177,0.1201-0.2153,0.2773-0.2959c0.2217-0.1167,0.502-0.0459,0.6211,0.1548l1.9395,3.1685
		c0.1377,0.2251,0.4277,0.3037,0.6592,0.1816c0.2324-0.1221,0.3311-0.4043,0.2246-0.645l-0.8145-1.8428
		c-0.0449-0.0977-0.0488-0.209-0.0098-0.3125c0.043-0.1162,0.1328-0.21,0.2949-0.2827c0.2285-0.103,0.498-0.0234,0.6084,0.1875
		c0.7959,1.4932,1.3281,3.0879,1.5811,4.7402c0.3154,2.0518,1.1016,4.1641,2.002,5.3818c0.166,0.2217,0.4785,0.2666,0.7002,0.1045
		C23.9053,18.4355,23.9521,18.123,23.7881,17.9004z"/>
</g>
</svg>
