<?xml version="1.0" encoding="utf-8"?>
<!-- Generator: Adobe Illustrator 18.1.0, SVG Export Plug-In . SVG Version: 6.00 Build 0)  -->
<svg version="1.1" id="Layer_1" xmlns="http://www.w3.org/2000/svg" xmlns:xlink="http://www.w3.org/1999/xlink" x="0px" y="0px"
	 width="24px" height="24px" viewBox="0 0 24 24" enable-background="new 0 0 24 24" xml:space="preserve">
<g>
	<path d="M18.0537,24.0098H4.9678c-1.062,0-1.9258-0.8711-1.9258-1.9424V1.9229c0-1.0718,0.8638-1.9434,1.9258-1.9434h13.0859
		c1.0615,0,1.9258,0.8716,1.9258,1.9434v20.1445C19.9795,23.1387,19.1152,24.0098,18.0537,24.0098z M4.9678,0.9795
		c-0.5103,0-0.9258,0.4233-0.9258,0.9434v20.1445c0,0.5195,0.4155,0.9424,0.9258,0.9424h13.0859
		c0.5107,0,0.9258-0.4229,0.9258-0.9424V1.9229c0-0.52-0.415-0.9434-0.9258-0.9434H4.9678z"/>
	<path d="M7.4976,12.9697c-0.8159,0-1.48-0.6641-1.48-1.48s0.6641-1.48,1.48-1.48s1.48,0.6641,1.48,1.48
		S8.3135,12.9697,7.4976,12.9697z M7.4976,11.0098c-0.2646,0-0.48,0.2153-0.48,0.48s0.2153,0.48,0.48,0.48s0.48-0.2153,0.48-0.48
		S7.7622,11.0098,7.4976,11.0098z"/>
	<path d="M11.498,12.9697c-0.8159,0-1.48-0.6641-1.48-1.48s0.6641-1.48,1.48-1.48c0.8154,0,1.4795,0.6641,1.4795,1.48
		S12.3135,12.9697,11.498,12.9697z M11.498,11.0098c-0.2646,0-0.48,0.2153-0.48,0.48s0.2153,0.48,0.48,0.48
		c0.2642,0,0.4795-0.2153,0.4795-0.48S11.7622,11.0098,11.498,11.0098z"/>
	<path d="M15.498,12.9697c-0.8154,0-1.4795-0.6641-1.4795-1.48s0.6641-1.48,1.4795-1.48c0.8164,0,1.4805,0.6641,1.4805,1.48
		S16.3145,12.9697,15.498,12.9697z M15.498,11.0098c-0.2646,0-0.4795,0.2153-0.4795,0.48s0.2148,0.48,0.4795,0.48
		s0.4805-0.2153,0.4805-0.48S15.7627,11.0098,15.498,11.0098z"/>
	<path d="M7.4976,16.9697c-0.8159,0-1.48-0.6641-1.48-1.4795c0-0.8164,0.6641-1.4805,1.48-1.4805s1.48,0.6641,1.48,1.4805
		C8.9775,16.3057,8.3135,16.9697,7.4976,16.9697z M7.4976,15.0098c-0.2646,0-0.48,0.2158-0.48,0.4805s0.2153,0.4795,0.48,0.4795
		s0.48-0.2148,0.48-0.4795S7.7622,15.0098,7.4976,15.0098z"/>
	<path d="M11.498,16.9697c-0.8159,0-1.48-0.6641-1.48-1.4795c0-0.8164,0.6641-1.4805,1.48-1.4805
		c0.8154,0,1.4795,0.6641,1.4795,1.4805C12.9775,16.3057,12.3135,16.9697,11.498,16.9697z M11.498,15.0098
		c-0.2646,0-0.48,0.2158-0.48,0.4805s0.2153,0.4795,0.48,0.4795c0.2642,0,0.4795-0.2148,0.4795-0.4795
		S11.7622,15.0098,11.498,15.0098z"/>
	<path d="M15.498,16.9697c-0.8154,0-1.4795-0.6641-1.4795-1.4795c0-0.8164,0.6641-1.4805,1.4795-1.4805
		c0.8164,0,1.4805,0.6641,1.4805,1.4805C16.9785,16.3057,16.3145,16.9697,15.498,16.9697z M15.498,15.0098
		c-0.2646,0-0.4795,0.2158-0.4795,0.4805s0.2148,0.4795,0.4795,0.4795s0.4805-0.2148,0.4805-0.4795S15.7627,15.0098,15.498,15.0098z
		"/>
	<path d="M7.4976,20.9707c-0.8159,0-1.48-0.6641-1.48-1.4805c0-0.8154,0.6641-1.4795,1.48-1.4795s1.48,0.6641,1.48,1.4795
		C8.9775,20.3066,8.3135,20.9707,7.4976,20.9707z M7.4976,19.0107c-0.2646,0-0.48,0.2148-0.48,0.4795s0.2153,0.4805,0.48,0.4805
		s0.48-0.2158,0.48-0.4805S7.7622,19.0107,7.4976,19.0107z"/>
	<path d="M11.498,20.9707c-0.8159,0-1.48-0.6641-1.48-1.4805c0-0.8154,0.6641-1.4795,1.48-1.4795
		c0.8154,0,1.4795,0.6641,1.4795,1.4795C12.9775,20.3066,12.3135,20.9707,11.498,20.9707z M11.498,19.0107
		c-0.2646,0-0.48,0.2148-0.48,0.4795s0.2153,0.4805,0.48,0.4805c0.2642,0,0.4795-0.2158,0.4795-0.4805
		S11.7622,19.0107,11.498,19.0107z"/>
	<path d="M15.498,20.9707c-0.8154,0-1.4795-0.6641-1.4795-1.4805c0-0.8154,0.6641-1.4795,1.4795-1.4795
		c0.8164,0,1.4805,0.6641,1.4805,1.4795C16.9785,20.3066,16.3145,20.9707,15.498,20.9707z M15.498,19.0107
		c-0.2646,0-0.4795,0.2148-0.4795,0.4795s0.2148,0.4805,0.4795,0.4805s0.4805-0.2158,0.4805-0.4805S15.7627,19.0107,15.498,19.0107z
		"/>
	<path d="M16.4863,8h-10c-0.2764,0-0.5-0.2236-0.5-0.5v-4c0-0.2764,0.2236-0.5,0.5-0.5h10c0.2764,0,0.5,0.2236,0.5,0.5v4
		C16.9863,7.7764,16.7627,8,16.4863,8z M6.9863,7h9V4h-9V7z"/>
</g>
<rect x="-0.0137" y="0.0031" fill="none" width="24" height="24"/>
<rect x="-0.0137" fill="none" width="24" height="24"/>
</svg>
