<?xml version="1.0" encoding="utf-8"?>
<!-- Generator: Adobe Illustrator 18.1.0, SVG Export Plug-In . SVG Version: 6.00 Build 0)  -->
<svg version="1.1" id="Layer_1" xmlns="http://www.w3.org/2000/svg" xmlns:xlink="http://www.w3.org/1999/xlink" x="0px" y="0px"
	 width="24px" height="24px" viewBox="0 0 24 24" enable-background="new 0 0 24 24" xml:space="preserve">
<g>
	<path d="M18.832,14.7314c-0.1279,0-0.2559-0.0488-0.3535-0.1465c-0.1953-0.1953-0.1953-0.5117,0-0.707l2.3838-2.3828
		l-2.3838-2.3833c-0.1953-0.1953-0.1953-0.5117,0-0.707s0.5117-0.1953,0.707,0l2.7373,2.7368
		c0.0938,0.0938,0.1465,0.2207,0.1465,0.3535s-0.0527,0.2598-0.1465,0.3535l-2.7373,2.7363
		C19.0879,14.6826,18.96,14.7314,18.832,14.7314z"/>
	<path d="M21.5693,12.001H13.5c-0.2764,0-0.5-0.2236-0.5-0.5s0.2236-0.5,0.5-0.5h8.0693c0.2764,0,0.5,0.2236,0.5,0.5
		S21.8457,12.001,21.5693,12.001z"/>
	<path d="M13.5,21.501c-0.2764,0-0.5-0.2236-0.5-0.5v-19c0-0.2764,0.2236-0.5,0.5-0.5s0.5,0.2236,0.5,0.5v19
		C14,21.2773,13.7764,21.501,13.5,21.501z"/>
	<path d="M5.2358,14.7441c-0.1279,0-0.2559-0.0488-0.3535-0.1465l-2.7368-2.7373c-0.1953-0.1953-0.1953-0.5117,0-0.707
		l2.7368-2.7368c0.1953-0.1953,0.5117-0.1953,0.707,0s0.1953,0.5117,0,0.707l-2.3833,2.3833l2.3833,2.3838
		c0.1953,0.1953,0.1953,0.5117,0,0.707C5.4917,14.6953,5.3638,14.7441,5.2358,14.7441z"/>
	<path d="M10.5679,12.001H2.499c-0.2764,0-0.5-0.2236-0.5-0.5s0.2236-0.5,0.5-0.5h8.0688c0.2764,0,0.5,0.2236,0.5,0.5
		S10.8442,12.001,10.5679,12.001z"/>
	<path d="M10.5679,21.501c-0.2764,0-0.5-0.2236-0.5-0.5v-19c0-0.2764,0.2236-0.5,0.5-0.5s0.5,0.2236,0.5,0.5v19
		C11.0679,21.2773,10.8442,21.501,10.5679,21.501z"/>
</g>
<rect y="0.001" fill="none" width="24" height="24"/>
</svg>
