<?xml version="1.0" encoding="utf-8"?>
<!-- Generator: Adobe Illustrator 18.1.0, SVG Export Plug-In . SVG Version: 6.00 Build 0)  -->
<svg version="1.1" id="Layer_1" xmlns="http://www.w3.org/2000/svg" xmlns:xlink="http://www.w3.org/1999/xlink" x="0px" y="0px"
	 width="24px" height="24px" viewBox="0 0 24 24" enable-background="new 0 0 24 24" xml:space="preserve">
<g>
	<path d="M11.9419,23.9209c-0.2764,0-0.5-0.2236-0.5-0.5V12.2266c0-0.2764,0.2236-0.5,0.5-0.5c0.2759,0,0.4995,0.2236,0.4995,0.5
		v11.1943C12.4414,23.6973,12.2178,23.9209,11.9419,23.9209z"/>
	<path d="M11.9424,23.9209c-0.1577,0-0.3125-0.0742-0.4097-0.2129L2.0093,10.1382v6.7729c0,3.3135,3.0889,6.0098,6.8857,6.0098
		c0.2764,0,0.5,0.2236,0.5,0.5s-0.2236,0.5-0.5,0.5c-4.3481,0-7.8857-3.1445-7.8857-7.0098v-8.356
		c0-0.2183,0.1416-0.4111,0.3496-0.4766c0.2075-0.0669,0.4346,0.0103,0.5596,0.1895l10.4331,14.8657
		c0.1582,0.2256,0.1035,0.5381-0.1221,0.6963C12.1416,23.8916,12.042,23.9209,11.9424,23.9209z"/>
	<path d="M11.9414,23.9209c-0.1001,0-0.2007-0.0303-0.2886-0.0918c-0.2256-0.1602-0.2783-0.4717-0.1187-0.6973l10.54-14.8657
		c0.126-0.1772,0.3535-0.2515,0.5596-0.1875c0.208,0.0664,0.3486,0.2588,0.3486,0.4766v8.356c0,3.8652-3.5371,7.0098-7.8857,7.0098
		c-0.2764,0-0.5-0.2236-0.5-0.5s0.2236-0.5,0.5-0.5c3.7969,0,6.8857-2.6963,6.8857-6.0098V10.125L12.3496,23.71
		C12.252,23.8477,12.0977,23.9209,11.9414,23.9209z"/>
	<path d="M11.9419,12.7266c-4.6211,0-8.3804-3.7593-8.3804-8.3799c0-1.1431,0.228-2.2544,0.6782-3.3027
		C4.3052,0.8916,4.4419,0.7817,4.605,0.75c0.1621-0.0303,0.3301,0.0205,0.4478,0.1377l2.9487,2.9492L11.5884,0.25
		c0.1865-0.187,0.519-0.188,0.7075,0l3.5859,3.5869l2.9492-2.9492c0.1172-0.1172,0.2812-0.167,0.4482-0.1377
		c0.1621,0.0317,0.2988,0.1416,0.3643,0.2939c0.4502,1.0483,0.6787,2.1597,0.6787,3.3027
		C20.3223,8.9673,16.5625,12.7266,11.9419,12.7266z M4.8965,2.146c-0.2227,0.71-0.335,1.4473-0.335,2.2007
		c0,4.0693,3.311,7.3799,7.3804,7.3799c4.0698,0,7.3804-3.3105,7.3804-7.3799c0-0.7534-0.1123-1.4907-0.335-2.2012l-2.752,2.752
		c-0.1875,0.1875-0.5195,0.1875-0.707,0l-3.5864-3.5869L8.355,4.8975c-0.1875,0.1875-0.5195,0.1875-0.707,0L4.8965,2.146z"/>
</g>
<rect x="-0.0136" y="0.0002" fill="none" width="24" height="24"/>
</svg>
