<?xml version="1.0" encoding="utf-8"?>
<!-- Generator: Adobe Illustrator 18.1.0, SVG Export Plug-In . SVG Version: 6.00 Build 0)  -->
<svg version="1.1" id="Layer_1" xmlns="http://www.w3.org/2000/svg" xmlns:xlink="http://www.w3.org/1999/xlink" x="0px" y="0px"
	 width="24px" height="24px" viewBox="0 0 24 24" enable-background="new 0 0 24 24" xml:space="preserve">
<g>
	<g>
		<path d="M12.0146,23.7617c-6.4771,0-11.7461-5.2695-11.7461-11.7461c0-6.4761,5.269-11.7451,11.7461-11.7451
			c6.4766,0,11.7451,5.269,11.7451,11.7451C23.7598,18.4922,18.4912,23.7617,12.0146,23.7617z M12.0146,1.2705
			c-5.9253,0-10.7461,4.8203-10.7461,10.7451c0,5.9258,4.8208,10.7461,10.7461,10.7461c5.9248,0,10.7451-4.8203,10.7451-10.7461
			C22.7598,6.0908,17.9395,1.2705,12.0146,1.2705z"/>
	</g>
	<path d="M4.0503,20.3887c-0.1279,0-0.2559-0.0488-0.3535-0.1465c-0.1953-0.1953-0.1953-0.5117,0-0.707
		c4.2378-4.2383,4.2378-10.877,0-15.1147c-0.1953-0.1953-0.1953-0.5117,0-0.707s0.5117-0.1953,0.707,0
		c4.5571,4.5571,4.5571,11.9722,0,16.5288C4.3062,20.3398,4.1782,20.3887,4.0503,20.3887z"/>
	<path d="M19.9775,20.4551c-0.1279,0-0.2559-0.0488-0.3535-0.1465c-4.5752-4.5752-4.5752-12.02,0-16.5952
		c0.1953-0.1953,0.5117-0.1953,0.707,0s0.1953,0.5117,0,0.707c-4.1855,4.1855-4.1855,10.9956,0,15.1812
		c0.1953,0.1953,0.1953,0.5117,0,0.707C20.2334,20.4062,20.1055,20.4551,19.9775,20.4551z"/>
</g>
<rect fill="none" width="24" height="24"/>
</svg>
