<?xml version="1.0" encoding="utf-8"?>
<!-- Generator: Adobe Illustrator 18.1.0, SVG Export Plug-In . SVG Version: 6.00 Build 0)  -->
<svg version="1.1" id="Layer_1" xmlns="http://www.w3.org/2000/svg" xmlns:xlink="http://www.w3.org/1999/xlink" x="0px" y="0px"
	 width="24px" height="24px" viewBox="0 0 24 24" enable-background="new 0 0 24 24" xml:space="preserve">
<g>
	<path d="M19.2822,21.959H4.6938c-1.103,0-2.1411-0.5762-2.7095-1.5049c-1.3652-2.2275-1.9678-4.8066-1.7437-7.4561
		C0.7388,7.1201,5.4653,2.4106,11.2344,2.0435c6.8496-0.4316,12.5469,5.127,12.5469,12.0278c0,2.2627-0.6172,4.4678-1.7852,6.3779
		C21.4258,21.3809,20.3857,21.959,19.2822,21.959z M11.9888,3.0195c-0.229,0-0.459,0.0073-0.6909,0.022
		C6.019,3.3774,1.6938,7.6938,1.2368,13.082c-0.2061,2.4365,0.3472,4.8047,1.6001,6.8506c0.3882,0.6328,1.0996,1.0264,1.8569,1.0264
		h14.5884c0.7578,0,1.4707-0.3955,1.8604-1.0312c1.0723-1.7529,1.6387-3.7783,1.6387-5.8564
		C22.7812,7.9771,17.9395,3.0195,11.9888,3.0195z"/>
	<path d="M4.0005,14.9385h-0.874c-0.2764,0-0.5-0.2236-0.5-0.5s0.2236-0.5,0.5-0.5h0.874c0.2764,0,0.5,0.2236,0.5,0.5
		S4.2769,14.9385,4.0005,14.9385z"/>
	<path d="M6.1572,8.9766c-0.1299,0-0.2593-0.0503-0.3574-0.1504L5.1416,8.1533c-0.1929-0.1973-0.1895-0.5142,0.0078-0.707
		c0.1978-0.1929,0.5137-0.1885,0.707,0.0078L6.5146,8.127c0.1929,0.1973,0.1895,0.5142-0.0078,0.707
		C6.4097,8.9292,6.2832,8.9766,6.1572,8.9766z"/>
	<path d="M11.9727,6.3115c-0.2764,0-0.5-0.2236-0.5-0.5V4.9551c0-0.2764,0.2236-0.5,0.5-0.5s0.5,0.2236,0.5,0.5v0.8564
		C12.4727,6.0879,12.249,6.3115,11.9727,6.3115z"/>
	<path d="M17.9658,8.9766c-0.126,0-0.252-0.0474-0.3496-0.1426c-0.1973-0.1929-0.2012-0.5098-0.0078-0.707l0.6475-0.6621
		c0.1924-0.1973,0.5088-0.2007,0.707-0.0078c0.1973,0.1929,0.2012,0.5098,0.0078,0.707l-0.6475,0.6621
		C18.2256,8.9263,18.0957,8.9766,17.9658,8.9766z"/>
	<path d="M20.832,14.9395h-0.9111c-0.2764,0-0.5-0.2236-0.5-0.5s0.2236-0.5,0.5-0.5h0.9111c0.2764,0,0.5,0.2236,0.5,0.5
		S21.1084,14.9395,20.832,14.9395z"/>
	<path d="M11.9727,18.958c-0.5728,0-1.1104-0.2275-1.5142-0.6406c-0.8267-0.8447-0.8267-2.2207,0-3.0654
		c0.8076-0.8262,2.2202-0.8262,3.0278,0c0.8262,0.8447,0.8262,2.2207,0,3.0654C13.083,18.7305,12.5449,18.958,11.9727,18.958z
		 M11.9727,15.6113c-0.3013,0-0.585,0.1211-0.7993,0.3398c-0.4497,0.46-0.4497,1.207,0,1.667c0.4287,0.4365,1.1694,0.4375,1.5981,0
		c0.4492-0.46,0.4492-1.207,0-1.667C12.5576,15.7324,12.2734,15.6113,11.9727,15.6113z"/>
	<path d="M10.8159,16.1016c-0.1299,0-0.2598-0.0498-0.3574-0.1504l-4.5864-4.6914c-0.1934-0.1978-0.1895-0.5142,0.0078-0.707
		c0.1982-0.1924,0.5151-0.189,0.707,0.0078l4.5864,4.6914c0.1934,0.1973,0.1895,0.5137-0.0078,0.707
		C11.0684,16.0537,10.9419,16.1016,10.8159,16.1016z"/>
</g>
<rect x="-0.0106" y="0.0002" fill="none" width="24" height="24"/>
</svg>
