<?xml version="1.0" encoding="utf-8"?>
<!-- Generator: Adobe Illustrator 18.1.0, SVG Export Plug-In . SVG Version: 6.00 Build 0)  -->
<svg version="1.1" id="Layer_1" xmlns="http://www.w3.org/2000/svg" xmlns:xlink="http://www.w3.org/1999/xlink" x="0px" y="0px"
	 width="24px" height="24px" viewBox="0 0 24 24" enable-background="new 0 0 24 24" xml:space="preserve">
<g>
	<g>
		<path d="M21.498,24.0029H0.4985c-0.2764,0-0.5-0.2236-0.5-0.5s0.2236-0.5,0.5-0.5H20.998V9.7178c0-0.2764,0.2236-0.5,0.5-0.5
			s0.5,0.2236,0.5,0.5v13.7852C21.998,23.7793,21.7744,24.0029,21.498,24.0029z"/>
		<path d="M20.498,9.2905c-0.2764,0-0.5-0.2236-0.5-0.5V3.0029h-4V4.541c0,0.2764-0.2236,0.5-0.5,0.5s-0.5-0.2236-0.5-0.5V2.5029
			c0-0.2764,0.2236-0.5,0.5-0.5h5c0.2764,0,0.5,0.2236,0.5,0.5v6.2876C20.998,9.0669,20.7744,9.2905,20.498,9.2905z"/>
		<path d="M23.4482,11.8682c-0.1152,0-0.2314-0.0396-0.3262-0.1206L11.9888,2.186L3.8633,8.7568
			C3.6484,8.9307,3.334,8.8965,3.1602,8.6826C2.9863,8.4678,3.0195,8.1528,3.2344,7.9795l8.4497-6.833
			c0.1875-0.1514,0.4556-0.1484,0.6401,0.0093l11.4502,9.833c0.209,0.1802,0.2334,0.4956,0.0527,0.7051
			C23.7285,11.8091,23.5889,11.8682,23.4482,11.8682z"/>
	</g>
	<g>
		<path d="M7.9443,16.0381c-0.2764,0-0.5-0.2236-0.5-0.5v-4.1455c0-0.2764,0.2236-0.5,0.5-0.5s0.5,0.2236,0.5,0.5v4.1455
			C8.4443,15.8145,8.2207,16.0381,7.9443,16.0381z"/>
		<path d="M4.6499,20.2998c-0.1299,0-0.25-0.0498-0.3501-0.1396c-0.0898-0.1006-0.1499-0.2305-0.1499-0.3604
			s0.0498-0.25,0.1499-0.3496C4.5,19.2598,4.8198,19.2598,5,19.4395c0.0996,0.1006,0.1499,0.2305,0.1499,0.3604
			s-0.0503,0.2598-0.1401,0.3496C4.9097,20.25,4.7798,20.2998,4.6499,20.2998z"/>
		<path d="M15.2803,20.2998c-0.1309,0-0.2607-0.0498-0.3506-0.1396c-0.0996-0.1006-0.1494-0.2305-0.1494-0.3604
			s0.0498-0.2598,0.1396-0.3496c0.2002-0.1904,0.5195-0.1904,0.71,0c0.0898,0.0898,0.1504,0.2197,0.1504,0.3496
			s-0.0605,0.2598-0.1504,0.3604C15.5303,20.25,15.3994,20.2998,15.2803,20.2998z"/>
		<g>
			<path d="M12.0098,20.3018H7.959c-0.2764,0-0.5-0.2236-0.5-0.5s0.2236-0.5,0.5-0.5h4.0508c0.2764,0,0.5,0.2236,0.5,0.5
				S12.2861,20.3018,12.0098,20.3018z"/>
			<g>
				<path d="M4.6533,21.9482c-1.1543,0-2.0933-0.9629-2.0933-2.1465s0.939-2.1465,2.0933-2.1465s2.0933,0.9629,2.0933,2.1465
					S5.8076,21.9482,4.6533,21.9482z M4.6533,18.6553c-0.603,0-1.0933,0.5146-1.0933,1.1465s0.4902,1.1465,1.0933,1.1465
					s1.0933-0.5146,1.0933-1.1465S5.2563,18.6553,4.6533,18.6553z"/>
				<path d="M15.2764,21.9482c-1.1543,0-2.0938-0.9629-2.0938-2.1465s0.9395-2.1465,2.0938-2.1465s2.0928,0.9629,2.0928,2.1465
					S16.4307,21.9482,15.2764,21.9482z M15.2764,18.6553c-0.6035,0-1.0938,0.5146-1.0938,1.1465s0.4902,1.1465,1.0938,1.1465
					c0.6025,0,1.0928-0.5146,1.0928-1.1465S15.8789,18.6553,15.2764,18.6553z"/>
				<path d="M19.2285,20.3018h-0.709c-0.2764,0-0.5-0.2236-0.5-0.5s0.2236-0.5,0.5-0.5h0.1826
					c-0.2783-3.0283-2.5664-3.1709-3.8242-3.25l-0.2334-0.0146c-0.5703-0.043-0.6924-0.5312-0.7393-0.7148
					c-0.2598-1.0381-1.2275-3.4429-4.6025-3.4429c-0.0127,0-0.0249,0-0.0376,0l-0.229,0.0005c-0.2896,0-0.7568,0-0.8247,0.0024
					c-4.0562,0.1235-4.6821,2.4224-4.7627,3.4048c-0.0312,0.3809-0.3013,0.6982-0.6885,0.8086
					c-1.1421,0.332-1.4902,2.127-1.5571,3.2061h0.0605c0.2764,0,0.5,0.2236,0.5,0.5s-0.2236,0.5-0.5,0.5H0.6914
					c-0.2715,0-0.4937-0.2168-0.5-0.4883c-0.0034-0.1631-0.0635-3.9941,2.292-4.6787c0.0488-0.9053,0.6987-4.1001,5.6978-4.2524
					c0.0698-0.002,0.5542-0.0024,0.8545-0.0024l0.2246-0.0005c0.0142,0,0.0288,0,0.0435,0c4.1523,0,5.3027,3.1499,5.5645,4.1704
					l0.0723,0.0039c1.2891,0.0811,4.7139,0.2939,4.7881,4.7393c0.002,0.1348-0.0498,0.2637-0.1436,0.3594
					S19.3623,20.3018,19.2285,20.3018z"/>
			</g>
		</g>
		<path d="M14.6816,16.0381H2.7764c-0.2764,0-0.5-0.2236-0.5-0.5s0.2236-0.5,0.5-0.5h11.9053c0.2764,0,0.5,0.2236,0.5,0.5
			S14.958,16.0381,14.6816,16.0381z"/>
	</g>
</g>
<rect x="-0.0137" fill="none" width="24" height="24"/>
</svg>
