<?xml version="1.0" encoding="utf-8"?>
<!-- Generator: Adobe Illustrator 18.1.0, SVG Export Plug-In . SVG Version: 6.00 Build 0)  -->
<svg version="1.1" id="Layer_1" xmlns="http://www.w3.org/2000/svg" xmlns:xlink="http://www.w3.org/1999/xlink" x="0px" y="0px"
	 width="24px" height="24px" viewBox="0 0 24 24" enable-background="new 0 0 24 24" xml:space="preserve">
<g>
	<path d="M19.6475,23.998H4.3354C3.6113,23.998,3,23.3916,3,22.6748V18.498c0-0.2764,0.2236-0.5,0.5-0.5h1.1914
		c0.2637,0,0.4868-0.2285,0.4868-0.5s-0.2231-0.5-0.4868-0.5H3.5c-0.2764,0-0.5-0.2236-0.5-0.5v-3c0-0.2764,0.2236-0.5,0.5-0.5
		h1.1914c0.2637,0,0.4868-0.2295,0.4868-0.501c0-0.2705-0.2231-0.499-0.4868-0.499H3.5c-0.2764,0-0.5-0.2236-0.5-0.5v-3
		c0-0.2764,0.2236-0.5,0.5-0.5h1.1914c0.2637,0,0.4868-0.229,0.4868-0.5005c0-0.271-0.2231-0.4995-0.4868-0.4995H3.5
		c-0.2764,0-0.5-0.2236-0.5-0.5V1.3125C3,0.6001,3.6113-0.002,4.3354-0.002h15.312C20.3809-0.002,21,0.6001,21,1.3125v21.3623
		C21,23.3799,20.3682,23.998,19.6475,23.998z M4,18.998v3.6768c0,0.1631,0.166,0.3232,0.3354,0.3232h15.312
		C19.8223,22.998,20,22.835,20,22.6748V1.3125c0-0.1558-0.1777-0.3145-0.3525-0.3145H4.3354C4.1631,0.998,4,1.1509,4,1.3125V5.998
		h0.6914c0.8198,0,1.4868,0.6729,1.4868,1.4995c0,0.8271-0.667,1.5005-1.4868,1.5005H4v2h0.6914
		c0.8198,0,1.4868,0.6724,1.4868,1.499c0,0.8271-0.667,1.501-1.4868,1.501H4v2h0.6914c0.8198,0,1.4868,0.6729,1.4868,1.5
		s-0.667,1.5-1.4868,1.5H4z M14.8057,17.251c-1.3359,0-2.6035-0.6523-3.3911-1.7451L8.562,11.9092
		C7.5,10.3276,7.5591,9.0786,7.7896,8.3008c0.2925-0.9873,1.021-1.7744,2.0513-2.2163c0.2998-0.1348,0.7314-0.0244,0.9297,0.2783
		l1.7383,2.667c0.1934,0.2954,0.1562,0.6802-0.0898,0.9351c-0.4492,0.4609-0.46,0.7559-0.4268,0.8311l0.0801,0.0977
		c1.0557,1.3867,1.4805,1.8623,1.6504,2.0244c0.1445-0.0527,0.3906-0.2158,0.541-0.3652c0.3086-0.3047,0.8408-0.2744,1.1104,0.0508
		l2.2725,2.6963c0.1377,0.1611,0.2012,0.3789,0.1689,0.5947c-0.0322,0.2168-0.1572,0.4082-0.3428,0.5254
		C16.5967,16.9717,15.6992,17.251,14.8057,17.251z M10.0513,7.0898C9.3936,7.4248,8.937,7.9482,8.7485,8.5845
		c-0.2432,0.8213-0.0332,1.7617,0.6079,2.7192l2.8555,3.5996c0.9902,1.3711,2.8184,1.7422,4.4814,0.8174l-1.9238-2.2832
		c-0.2471,0.2002-0.6904,0.499-1.127,0.499c-0.0195,0-0.0908-0.0039-0.1104-0.0059c-0.2539-0.0283-0.4404-0.0488-2.2554-2.4307
		l-0.1074-0.1401c-0.0786-0.1157-0.5381-0.8799,0.3965-1.9448L10.0513,7.0898z"/>
</g>
<rect y="-0.002" fill="none" width="24" height="24"/>
</svg>
