<?xml version="1.0" encoding="utf-8"?>
<!-- Generator: Adobe Illustrator 18.1.0, SVG Export Plug-In . SVG Version: 6.00 Build 0)  -->
<svg version="1.1" id="Layer_1" xmlns="http://www.w3.org/2000/svg" xmlns:xlink="http://www.w3.org/1999/xlink" x="0px" y="0px"
	 width="24px" height="24px" viewBox="0 0 24 24" enable-background="new 0 0 24 24" xml:space="preserve">
<g>
	<path d="M0.8325,17.293c-0.0933,0-0.1875-0.0264-0.272-0.0811c-0.2314-0.1504-0.2974-0.46-0.147-0.6914l4.9331-7.5996
		c0.0859-0.1323,0.23-0.2163,0.3877-0.2266C5.8799,8.6812,6.0449,8.749,6.1475,8.8696l4.6875,5.5249
		c0.1787,0.21,0.1528,0.5254-0.0576,0.7041c-0.2114,0.1807-0.5259,0.1533-0.7051-0.0576l-4.2524-5.0117l-4.5674,7.0361
		C1.1567,17.2129,0.9961,17.293,0.8325,17.293z"/>
	<path d="M23.2109,16.9043c-0.1602,0-0.3184-0.0771-0.415-0.2207L14.2686,4.022l-4.7803,9.2642
		c-0.127,0.2451-0.4277,0.3418-0.6738,0.2148c-0.2451-0.127-0.3413-0.4287-0.2148-0.6738l5.168-10.0146
		c0.0811-0.1567,0.2393-0.2593,0.415-0.2695c0.1768-0.0049,0.3457,0.0728,0.4443,0.2197l8.999,13.3623
		c0.1543,0.2295,0.0938,0.54-0.1357,0.6943C23.4043,16.877,23.3076,16.9043,23.2109,16.9043z"/>
	<path d="M15.9385,9.6567c-0.0059,0-0.0107,0-0.0166-0.0005c-0.1436-0.0044-0.2773-0.0703-0.3682-0.1807l-1.1543-1.3945
		L13.626,9.104c-0.0928,0.124-0.2383,0.1973-0.3936,0.1987c-0.1523,0.0122-0.3018-0.0688-0.3984-0.1909l-1.1997-1.5273
		c-0.1709-0.2173-0.1328-0.5317,0.084-0.7021c0.2168-0.1709,0.5308-0.1343,0.7026,0.084l0.7988,1.0176l0.7637-1.0098
		c0.0918-0.1221,0.2344-0.1953,0.3877-0.1987c0.123,0.0063,0.2988,0.0635,0.3955,0.1812l1.1973,1.4463l1.0088-1.0664
		c0.1895-0.2007,0.5059-0.209,0.707-0.0195c0.2002,0.1899,0.209,0.5063,0.0195,0.707l-1.3975,1.4766
		C16.207,9.6006,16.0752,9.6567,15.9385,9.6567z"/>
</g>
<rect x="-0.0008" y="-0.0147" fill="none" width="24" height="24"/>
</svg>
