<?xml version="1.0" encoding="utf-8"?>
<!-- Generator: Adobe Illustrator 18.1.0, SVG Export Plug-In . SVG Version: 6.00 Build 0)  -->
<svg version="1.1" id="Layer_1" xmlns="http://www.w3.org/2000/svg" xmlns:xlink="http://www.w3.org/1999/xlink" x="0px" y="0px"
	 width="24px" height="24px" viewBox="0 0 24 24" enable-background="new 0 0 24 24" xml:space="preserve">
<g>
	<path d="M6.7969,24.0029c-0.2261,0-0.4307-0.1543-0.4858-0.3838L1.6289,4.0718C1.5649,3.8047,1.728,3.5366,1.9937,3.4702
		l6.3989-1.6016C8.6621,1.8037,8.9321,1.9644,8.999,2.2319C9.0664,2.5,8.9033,2.7715,8.6357,2.8384L2.7168,4.3198L7.167,22.9004
		l11.9355-2.8516c0.2695-0.0693,0.5391,0.1025,0.6025,0.3701c0.0645,0.2686-0.1016,0.5381-0.3701,0.6025L6.9136,23.9893
		C6.8745,23.999,6.8354,24.0029,6.7969,24.0029z"/>
	<path d="M21.5146,21.0352H8.5142c-0.2764,0-0.5-0.2236-0.5-0.5v-20c0-0.2764,0.2236-0.5,0.5-0.5h13.0005
		c0.2764,0,0.5,0.2236,0.5,0.5v20C22.0146,20.8115,21.791,21.0352,21.5146,21.0352z M9.0142,20.0352h12.0005v-19H9.0142V20.0352z"/>
	<path d="M15.0703,15.3047L15.0703,15.3047c-0.1523,0-0.2969-0.0693-0.3916-0.1895l-3.3696-4.248
		c-0.1445-0.1816-0.1445-0.4395,0-0.6211l3.3696-4.2485c0.1895-0.2393,0.5938-0.2393,0.7832,0l3.3701,4.2485
		c0.1445,0.1816,0.1445,0.4395,0,0.6211l-3.3701,4.248C15.3672,15.2354,15.2227,15.3047,15.0703,15.3047z M12.3389,10.5566
		L15.0703,14l2.7314-3.4434l-2.7314-3.4438L12.3389,10.5566z"/>
	<path d="M12.4766,4.9741c-0.1904,0-0.3721-0.1089-0.4551-0.2939l-0.6211-1.3711l-0.6206,1.3711
		c-0.1143,0.251-0.4092,0.3633-0.6616,0.2495C9.8667,4.8159,9.7549,4.5195,9.8687,4.2681l1.0762-2.3774
		c0.1621-0.3584,0.749-0.3584,0.9111,0l1.0757,2.3774c0.1143,0.2515,0.0029,0.5479-0.249,0.6616
		C12.6162,4.96,12.5459,4.9741,12.4766,4.9741z"/>
	<path d="M18.8984,19.5166c-0.1963,0-0.375-0.1152-0.4551-0.2939l-1.0762-2.3779c-0.1143-0.252-0.0029-0.5479,0.249-0.6611
		c0.249-0.1133,0.5479-0.0029,0.6611,0.249l0.6211,1.3711l0.6211-1.3711c0.1133-0.252,0.4121-0.3623,0.6611-0.249
		c0.252,0.1133,0.3633,0.4092,0.249,0.6611l-1.0762,2.3779C19.2734,19.4014,19.0947,19.5166,18.8984,19.5166z"/>
</g>
<rect x="0.0142" y="0.0354" fill="none" width="24" height="24"/>
</svg>
