<?xml version="1.0" encoding="utf-8"?>
<!-- Generator: Adobe Illustrator 18.1.0, SVG Export Plug-In . SVG Version: 6.00 Build 0)  -->
<svg version="1.1" id="Layer_1" xmlns="http://www.w3.org/2000/svg" xmlns:xlink="http://www.w3.org/1999/xlink" x="0px" y="0px"
	 width="24px" height="24px" viewBox="0 0 24 24" enable-background="new 0 0 24 24" xml:space="preserve">
<g>
	<path d="M13.4404,3.001H1.5112c-0.2764,0-0.5-0.2236-0.5-0.5s0.2236-0.5,0.5-0.5h11.9292c0.2764,0,0.5,0.2236,0.5,0.5
		S13.7168,3.001,13.4404,3.001z"/>
	<path d="M13.4404,6.0005H5.583c-0.2764,0-0.5-0.2236-0.5-0.5s0.2236-0.5,0.5-0.5h7.8574c0.2764,0,0.5,0.2236,0.5,0.5
		S13.7168,6.0005,13.4404,6.0005z"/>
	<path d="M13.4404,9.001H1.5112c-0.2764,0-0.5-0.2236-0.5-0.5s0.2236-0.5,0.5-0.5h11.9292c0.2764,0,0.5,0.2236,0.5,0.5
		S13.7168,9.001,13.4404,9.001z"/>
	<path d="M13.4404,12H5.583c-0.2764,0-0.5-0.2231-0.5-0.4995s0.2236-0.5,0.5-0.5h7.8574c0.2764,0,0.5,0.2236,0.5,0.5
		S13.7168,12,13.4404,12z"/>
	<path d="M13.4404,15.001H1.5112c-0.2764,0-0.5-0.2236-0.5-0.5s0.2236-0.5,0.5-0.5h11.9292c0.2764,0,0.5,0.2236,0.5,0.5
		S13.7168,15.001,13.4404,15.001z"/>
	<path d="M13.4404,18.001H5.583c-0.2764,0-0.5-0.2236-0.5-0.5s0.2236-0.5,0.5-0.5h7.8574c0.2764,0,0.5,0.2236,0.5,0.5
		S13.7168,18.001,13.4404,18.001z"/>
	<path d="M13.4404,21.001H1.5112c-0.2764,0-0.5-0.2236-0.5-0.5s0.2236-0.5,0.5-0.5h11.9292c0.2764,0,0.5,0.2236,0.5,0.5
		S13.7168,21.001,13.4404,21.001z"/>
	<path d="M23.0801,12.001h-5.4355c-0.2764,0-0.5-0.2236-0.5-0.5s0.2236-0.5,0.5-0.5h5.4355c0.2764,0,0.5,0.2236,0.5,0.5
		S23.3564,12.001,23.0801,12.001z"/>
	<path d="M20.4424,14.7041c-0.125,0-0.25-0.0469-0.3477-0.1406l-2.7979-2.7031c-0.0967-0.0933-0.1514-0.2217-0.1523-0.356
		c-0.001-0.1348,0.0527-0.2637,0.1484-0.3584l2.7979-2.7739c0.1953-0.1953,0.5117-0.1934,0.707,0.0029
		c0.1943,0.1963,0.1924,0.5127-0.0039,0.707l-2.4346,2.4146l2.4307,2.3481c0.1982,0.1914,0.2041,0.5078,0.0117,0.707
		C20.7041,14.6533,20.5732,14.7041,20.4424,14.7041z"/>
	<path d="M15.5,23.001c-0.2764,0-0.5-0.2236-0.5-0.5V1.4829c0-0.2764,0.2236-0.5,0.5-0.5s0.5,0.2236,0.5,0.5V22.501
		C16,22.7773,15.7764,23.001,15.5,23.001z"/>
</g>
<rect y="0.0011" fill="none" width="24" height="24"/>
</svg>
