<?xml version="1.0" encoding="utf-8"?>
<!-- Generator: Adobe Illustrator 18.1.0, SVG Export Plug-In . SVG Version: 6.00 Build 0)  -->
<svg version="1.1" id="Layer_1" xmlns="http://www.w3.org/2000/svg" xmlns:xlink="http://www.w3.org/1999/xlink" x="0px" y="0px"
	 width="24px" height="24px" viewBox="0 0 24 24" enable-background="new 0 0 24 24" xml:space="preserve">
<g>
	<path d="M6.1685,23.7207c-0.3213,0-0.6299-0.1416-0.8472-0.3906C5.1143,23.0938,5,22.7734,5,22.4287V0.5C5,0.2236,5.2236,0,5.5,0
		h13C18.7764,0,19,0.2236,19,0.5v21.9277c0,0.7246-0.5205,1.292-1.1855,1.292c-0.2764,0-0.5469-0.0996-0.7812-0.2881l-5.0845-4.9268
		l-4.9644,4.8945C6.7109,23.6211,6.4419,23.7207,6.1685,23.7207z M6,1v21.4287c0,0.1377,0.0464,0.2119,0.0742,0.2441
		c0.0649,0.0742,0.1484,0.0586,0.2466-0.0205l5.2739-5.2031c0.1929-0.1895,0.5049-0.1914,0.6992-0.0029l5.3994,5.2363
		c0.0596,0.0391,0.3057,0.0332,0.3066-0.2549V1H6z"/>
</g>
<rect fill="none" width="24" height="24"/>
</svg>
