<?xml version="1.0" encoding="utf-8"?>
<!-- Generator: Adobe Illustrator 18.1.0, SVG Export Plug-In . SVG Version: 6.00 Build 0)  -->
<svg version="1.1" id="Layer_1" xmlns="http://www.w3.org/2000/svg" xmlns:xlink="http://www.w3.org/1999/xlink" x="0px" y="0px"
	 width="24px" height="24px" viewBox="0 0 24 24" enable-background="new 0 0 24 24" xml:space="preserve">
<g>
	<path d="M18.3398,8.8594c-1.8203,0-3.3008-1.4937-3.3008-3.3291s1.4805-3.3291,3.3008-3.3291s3.3008,1.4937,3.3008,3.3291
		S20.1602,8.8594,18.3398,8.8594z M18.3398,3.2012c-1.2686,0-2.3008,1.0449-2.3008,2.3291s1.0322,2.3291,2.3008,2.3291
		s2.3008-1.0449,2.3008-2.3291S19.6084,3.2012,18.3398,3.2012z"/>
	<path d="M18.3398,11.001H5.6025c-3.0127,0-5.4639-2.4673-5.4639-5.5s2.4512-5.5,5.4639-5.5h12.7373
		c3.0127,0,5.4639,2.4673,5.4639,5.5S21.3525,11.001,18.3398,11.001z M5.6025,1.001c-2.4614,0-4.4639,2.0186-4.4639,4.5
		s2.0024,4.5,4.4639,4.5h12.7373c2.4609,0,4.4639-2.0186,4.4639-4.5s-2.0029-4.5-4.4639-4.5H5.6025z"/>
	<path d="M5.6025,21.8018c-1.8198,0-3.3008-1.4932-3.3008-3.3291s1.481-3.3291,3.3008-3.3291s3.3008,1.4932,3.3008,3.3291
		S7.4224,21.8018,5.6025,21.8018z M5.6025,16.1436c-1.2686,0-2.3008,1.0449-2.3008,2.3291s1.0322,2.3291,2.3008,2.3291
		s2.3008-1.0449,2.3008-2.3291S6.8711,16.1436,5.6025,16.1436z"/>
	<path d="M18.3398,24.002H5.6025c-3.0127,0-5.4639-2.4678-5.4639-5.5s2.4512-5.5,5.4639-5.5h12.7373
		c3.0127,0,5.4639,2.4678,5.4639,5.5S21.3525,24.002,18.3398,24.002z M5.6025,14.002c-2.4614,0-4.4639,2.0186-4.4639,4.5
		s2.0024,4.5,4.4639,4.5h12.7373c2.4609,0,4.4639-2.0186,4.4639-4.5s-2.0029-4.5-4.4639-4.5H5.6025z"/>
</g>
<rect x="-0.006" y="0.001" fill="none" width="24" height="24"/>
</svg>
