<?xml version="1.0" encoding="utf-8"?>
<!-- Generator: Adobe Illustrator 18.1.0, SVG Export Plug-In . SVG Version: 6.00 Build 0)  -->
<svg version="1.1" id="Layer_1" xmlns="http://www.w3.org/2000/svg" xmlns:xlink="http://www.w3.org/1999/xlink" x="0px" y="0px"
	 width="24px" height="24px" viewBox="0 0 24 24" enable-background="new 0 0 24 24" xml:space="preserve">
<g>
	<path d="M22.3701,23.9307H1.7319c-0.1782,0-0.3428-0.0947-0.4321-0.248c-0.0894-0.1543-0.0903-0.3438-0.0029-0.499L11.6157,5.0054
		c0.1777-0.312,0.6919-0.3125,0.8696-0.0005l10.3193,18.1787c0.0879,0.1553,0.0869,0.3447-0.0029,0.499
		C22.7129,23.8359,22.5479,23.9307,22.3701,23.9307z M2.5908,22.9307h18.9209l-9.4609-16.666L2.5908,22.9307z"/>
	<path d="M15.8311,23.9307h-3.7803c-0.2764,0-0.5-0.2236-0.5-0.5v-9.0889c0-0.2383,0.1685-0.4434,0.4023-0.4902
		c0.2363-0.0488,0.4678,0.0791,0.5596,0.2979l3.7803,9.0889c0.0635,0.1543,0.0469,0.3311-0.0459,0.4697
		C16.1543,23.8477,15.998,23.9307,15.8311,23.9307z M12.5508,22.9307h2.5312l-2.5312-6.085V22.9307z"/>
	<path d="M12.0508,5.752c-0.165,0-0.3276-0.0825-0.4224-0.2329l-0.8179-1.293c-0.1479-0.2334-0.0781-0.542,0.1553-0.6895
		c0.2329-0.1475,0.5435-0.0781,0.6895,0.1553l0.8184,1.293c0.1475,0.2334,0.0781,0.542-0.1553,0.6895
		C12.2354,5.7271,12.1426,5.752,12.0508,5.752z"/>
	<path d="M1.7324,23.9307c-0.1655,0-0.3276-0.082-0.4229-0.2324l-0.8184-1.292c-0.1479-0.2334-0.0786-0.542,0.1548-0.6904
		c0.2339-0.1445,0.5425-0.0771,0.6899,0.1553l0.8184,1.292c0.1479,0.2334,0.0786,0.542-0.1548,0.6904
		C1.9165,23.9053,1.8237,23.9307,1.7324,23.9307z"/>
	<path d="M12.0508,5.752c-0.0918,0-0.1846-0.0249-0.2676-0.0776c-0.2334-0.1475-0.3027-0.4565-0.1548-0.6899l0.8179-1.293
		c0.1494-0.2339,0.459-0.3018,0.6904-0.1548c0.2334,0.1475,0.3027,0.4565,0.1553,0.6899l-0.8184,1.293
		C12.3779,5.6699,12.2158,5.752,12.0508,5.752z"/>
	<path d="M22.3701,23.9307c-0.0918,0-0.1846-0.0254-0.2676-0.0771c-0.2334-0.1484-0.3027-0.457-0.1553-0.6904l0.8184-1.292
		c0.1494-0.2334,0.459-0.2988,0.6904-0.1553c0.2334,0.1484,0.3027,0.457,0.1553,0.6904l-0.8184,1.292
		C22.6973,23.8486,22.5352,23.9307,22.3701,23.9307z"/>
	<path d="M12.0508,14.8418c-0.2764,0-0.5-0.2236-0.5-0.5V5.252c0-0.2764,0.2236-0.5,0.5-0.5s0.5,0.2236,0.5,0.5v9.0898
		C12.5508,14.6182,12.3271,14.8418,12.0508,14.8418z"/>
	<path d="M15.8311,23.9307c-0.1074,0-0.2158-0.0342-0.3076-0.1055c-0.2178-0.1699-0.2568-0.4844-0.0869-0.7021l2.3174-2.9717
		l-6.0376-5.4385c-0.2056-0.1846-0.2217-0.501-0.0371-0.7061c0.1855-0.2051,0.5015-0.2227,0.7065-0.0361l6.3838,5.75
		c0.1943,0.1748,0.2207,0.4717,0.0596,0.6787l-2.6035,3.3389C16.127,23.8643,15.9795,23.9307,15.8311,23.9307z"/>
</g>
<rect x="-0.0008" y="-0.0147" fill="none" width="24" height="24"/>
</svg>
