<?xml version="1.0" encoding="utf-8"?>
<!-- Generator: Adobe Illustrator 18.1.0, SVG Export Plug-In . SVG Version: 6.00 Build 0)  -->
<svg version="1.1" id="Layer_1" xmlns="http://www.w3.org/2000/svg" xmlns:xlink="http://www.w3.org/1999/xlink" x="0px" y="0px"
	 width="24px" height="24px" viewBox="0 0 24 24" enable-background="new 0 0 24 24" xml:space="preserve">
<g>
	<path d="M11.999,23.7607c-0.2764,0-0.5-0.2236-0.5-0.5V8.0762c0-0.2764,0.2236-0.5,0.5-0.5s0.5,0.2236,0.5,0.5v15.1846
		C12.499,23.5371,12.2754,23.7607,11.999,23.7607z"/>
	<path d="M11.999,10.3867c-0.1377,0-0.2749-0.0566-0.3735-0.168c-0.1836-0.2061-0.165-0.522,0.0415-0.7056l2.625-2.3345
		c0.2051-0.1846,0.5205-0.165,0.7061,0.0415c0.1836,0.2061,0.165,0.522-0.042,0.7056l-2.625,2.3345
		C12.2363,10.3452,12.1172,10.3867,11.999,10.3867z"/>
	<path d="M11.999,13.9316c-0.1377,0-0.2749-0.0566-0.3735-0.168c-0.1836-0.2061-0.165-0.5225,0.041-0.7061l2.4497-2.1782
		c0.2051-0.1846,0.5205-0.166,0.7061,0.041c0.1826,0.2065,0.165,0.5225-0.042,0.7061l-2.4492,2.1792
		C12.2363,13.8896,12.1172,13.9316,11.999,13.9316z"/>
	<path d="M11.999,17.4775c-0.1377,0-0.2749-0.0566-0.3735-0.168c-0.1836-0.2061-0.165-0.5225,0.041-0.7061l2.2427-1.9941
		c0.2051-0.1826,0.5205-0.165,0.7061,0.042c0.1826,0.2061,0.165,0.5225-0.042,0.7061l-2.2422,1.9941
		C12.2363,17.4355,12.1172,17.4775,11.999,17.4775z"/>
	<path d="M11.999,10.3867c-0.1182,0-0.2373-0.0415-0.3325-0.1265l-2.624-2.3345c-0.2061-0.1836-0.2246-0.4995-0.041-0.7061
		c0.1821-0.2061,0.4995-0.2256,0.7061-0.041l2.6235,2.3345c0.207,0.1836,0.2246,0.4995,0.042,0.7061
		C12.2734,10.3301,12.1367,10.3867,11.999,10.3867z"/>
	<path d="M11.999,13.9316c-0.1182,0-0.2368-0.042-0.3325-0.126l-2.4492-2.1792c-0.2061-0.1836-0.2246-0.4995-0.041-0.7061
		c0.1836-0.207,0.498-0.2256,0.7061-0.041l2.4487,2.1782c0.207,0.1836,0.2246,0.5,0.042,0.7061
		C12.2734,13.875,12.1367,13.9316,11.999,13.9316z"/>
	<path d="M11.999,17.4775c-0.1182,0-0.2368-0.042-0.3325-0.126l-2.2417-1.9941c-0.2061-0.1836-0.2246-0.5-0.041-0.7061
		c0.1826-0.207,0.498-0.2246,0.7061-0.042l2.2412,1.9941c0.207,0.1836,0.2246,0.5,0.042,0.7061
		C12.2734,17.4209,12.1367,17.4775,11.999,17.4775z"/>
	<path d="M11.999,20.3262c-0.0986,0-0.1968-0.0293-0.2817-0.0869c-0.9038-0.6162-2.4043-1.5146-2.9102-1.5801
		c-0.7368-0.0967-1.6895-0.3643-2.0415-1.0967c-0.1533-0.3193-0.2441-0.8516,0.1958-1.5771
		c0.1675-0.2764,0.2383-0.5039,0.1943-0.625c-0.0688-0.1924-0.5127-0.3467-0.8062-0.4492c-0.1138-0.04-0.2222-0.0781-0.3184-0.1172
		c-0.4575-0.1846-1.0464-0.6631-1.2012-1.4004c-0.0889-0.4229-0.0576-1.0664,0.5952-1.7383
		c0.3257-0.335,1.8638-2.0962,0.1699-3.8945c-0.8896-0.9443-0.7617-1.6895-0.606-2.0498c0.2905-0.6729,1.1079-1.0908,2.1333-1.0908
		c0.3872,0,0.7754,0.0596,1.1548,0.1768c0.0771,0.0234,0.1504,0.0356,0.2183,0.0356c0.6792,0,1.1836-1.3149,1.4092-2.4404
		c0.1978-0.9883,1.0425-2.0552,2.0625-2.0552c1.0835,0,1.9292,1.0669,2.1265,2.0552c0.2256,1.126,0.7295,2.4404,1.4092,2.4404
		c0.0674,0,0.1406-0.0122,0.2178-0.0356c0.3799-0.1172,0.7676-0.1768,1.1553-0.1768c1.0244,0,1.8428,0.418,2.1328,1.0908
		c0.1553,0.3604,0.2842,1.1055-0.6055,2.0498c-1.6943,1.7988-0.1553,3.5596,0.1699,3.8945
		c0.6523,0.6719,0.6836,1.3164,0.5947,1.7383c-0.1543,0.7373-0.7432,1.2158-1.2012,1.4004
		c-0.0957,0.0391-0.2031,0.0771-0.3164,0.1162c-0.2939,0.1025-0.7383,0.2568-0.8076,0.4502
		c-0.0439,0.1211,0.0273,0.3486,0.1943,0.625c0.4492,0.7412,0.3477,1.2852,0.1836,1.6104
		c-0.4316,0.8545-1.6777,1.0312-2.0488,1.0654c-0.3955,0.0361-1.8096,0.8486-2.8936,1.5791
		C12.1943,20.2979,12.0967,20.3262,11.999,20.3262z M7.1226,5.6201c-0.5918,0-1.0913,0.2007-1.2153,0.4878
		C5.8081,6.3369,5.96,6.6895,6.3228,7.0752c1.6831,1.7866,1.1221,3.9375-0.1807,5.2773c-0.2778,0.2861-0.3901,0.5664-0.3335,0.835
		c0.0659,0.3145,0.3511,0.5801,0.5986,0.6807c0.082,0.0332,0.1743,0.0645,0.2715,0.0986c0.501,0.1748,1.1875,0.4141,1.4185,1.0557
		c0.1543,0.4297,0.063,0.9141-0.2803,1.4805c-0.1147,0.1895-0.2339,0.4512-0.1499,0.626c0.1162,0.2422,0.6143,0.4531,1.2695,0.5381
		c0.7847,0.1025,2.3633,1.0957,3.0635,1.5586c0.7197-0.4717,2.3525-1.4932,3.0801-1.5605c0.5137-0.0469,1.1064-0.2402,1.2471-0.5195
		c0.0918-0.1816-0.0283-0.4492-0.1455-0.6426c-0.3438-0.5664-0.4346-1.0518-0.2803-1.4814
		c0.2314-0.6426,0.9189-0.8809,1.4209-1.0557c0.0967-0.0342,0.1885-0.0654,0.2695-0.0986c0.2471-0.0996,0.5322-0.3652,0.5977-0.6797
		c0.0566-0.2686-0.0557-0.5498-0.333-0.835c-1.3027-1.3394-1.8643-3.4902-0.1816-5.2773c0.3633-0.3857,0.5146-0.7383,0.416-0.9678
		c-0.1836-0.4243-1.21-0.6221-2.0752-0.3555c-0.1719,0.0532-0.3447,0.0806-0.5127,0.0806h-0.001
		c-1.5137,0-2.1465-2.0327-2.3887-3.2441C13,2.0215,12.4922,1.3369,12.0312,1.3369c-0.5249,0-1.0327,0.6846-1.146,1.2515
		c-0.2427,1.2114-0.8755,3.2441-2.3896,3.2441c-0.168,0-0.3408-0.0269-0.5132-0.0806C7.7026,5.6655,7.4053,5.6201,7.1226,5.6201z"/>
</g>
<rect x="-0.0008" y="-0.0147" fill="none" width="24" height="24"/>
</svg>
