<?xml version="1.0" encoding="utf-8"?>
<!-- Generator: Adobe Illustrator 18.1.0, SVG Export Plug-In . SVG Version: 6.00 Build 0)  -->
<svg version="1.1" id="Layer_1" xmlns="http://www.w3.org/2000/svg" xmlns:xlink="http://www.w3.org/1999/xlink" x="0px" y="0px"
	 width="24px" height="24px" viewBox="0 0 24 24" enable-background="new 0 0 24 24" xml:space="preserve">
<g>
	<path d="M17.5342,24.0352c-0.0049,0-0.0127,0-0.0195,0H5.5142c-0.2764,0-0.5-0.2236-0.5-0.5c0-2.3223,0.9893-3.5,2.9409-3.5h7.1523
		c1.8887,0,2.8662,1.1289,2.9062,3.3555c0.0137,0.0459,0.0205,0.0938,0.0205,0.1445
		C18.0342,23.8115,17.8105,24.0352,17.5342,24.0352z M6.0312,23.0352H16.998c-0.1016-1.4131-0.6709-2-1.8906-2H7.9551
		C6.7139,21.0352,6.1343,21.6221,6.0312,23.0352z"/>
	<path d="M7.0083,19.2744c-0.0508,0-0.1016-0.0068-0.1523-0.0234c-0.2627-0.083-0.4077-0.3643-0.3252-0.627
		c0.0088-0.0283,0.8525-2.8105-0.853-6.1152C4.9082,11.0181,4.1924,7.9321,5.374,5.5396c0.8062-1.6323,2.3276-2.6943,4.5264-3.1602
		c0.229-0.9341,0.9663-2.249,2.6045-2.249c0.2764,0,0.5,0.2236,0.5,0.5v4.1499c0,0.2764-0.2236,0.5-0.5,0.5s-0.5-0.2236-0.5-0.5
		V1.2051c-1.0083,0.3247-1.1719,1.5972-1.1792,1.6592c-0.0259,0.2183-0.1919,0.3945-0.4087,0.4331
		C8.3643,3.6641,6.9692,4.5679,6.2705,5.9824C5.2603,8.0283,5.916,10.79,6.5664,12.0498c1.9048,3.6914,0.958,6.75,0.917,6.8789
		C7.4155,19.1406,7.2192,19.2744,7.0083,19.2744z"/>
	<path d="M18.6396,13.3369c-0.7998,0-1.3877-0.5137-1.8623-0.9277l-0.2695-0.2314c-0.7695-0.6362-1.8086-0.5229-2.8535,0.3037
		c-0.2148,0.1719-0.5303,0.1367-0.7021-0.0811c-0.1719-0.2168-0.1357-0.5308,0.0811-0.7026
		c1.6826-1.3335,3.2275-1.0225,4.1113-0.2905c0.0986,0.0811,0.1943,0.165,0.29,0.2485c0.7109,0.6196,1.1387,0.9946,2.1133,0.3257
		c0.3496-0.2397,0.5479-0.5015,0.5898-0.7773c0.0576-0.377-0.1816-0.7026-0.1846-0.7056c-0.0684-0.0884-0.1064-0.1973-0.1064-0.3091
		l0.0029-0.2446c0.0088-0.501-0.0049-0.6777-0.2012-0.854l-3.3877-2.749c-0.1035-0.0845-0.1689-0.2065-0.1826-0.3394
		c-0.2139-2.1895-3.5879-2.5527-3.6221-2.5562c-0.2744-0.0273-0.4756-0.272-0.4482-0.5469
		c0.0273-0.2744,0.2803-0.4688,0.5459-0.4482c0.168,0.0161,4.0312,0.4263,4.4922,3.2397l3.251,2.6392
		c0.5732,0.5122,0.5625,1.1079,0.5527,1.6333l-0.001,0.0781c0.1455,0.2422,0.3682,0.7266,0.2783,1.3135
		c-0.0859,0.5605-0.4268,1.0483-1.0127,1.4507C19.5527,13.1904,19.0664,13.3369,18.6396,13.3369z"/>
	<path d="M16.3467,19.2754c-0.0332,0-0.0664-0.0039-0.1006-0.0107c-0.2705-0.0547-0.4453-0.3184-0.3906-0.5889
		c0.0059-0.0293,0.582-2.9902-1.0381-4.5645c-0.3955-0.3838-0.8154-0.7588-1.2285-1.1289
		c-1.5508-1.3857-3.0156-2.6943-3.0156-4.2524c0-0.2764,0.2236-0.5,0.5-0.5s0.5,0.2236,0.5,0.5
		c0,1.1108,1.3027,2.2744,2.6816,3.5063c0.4238,0.3799,0.8545,0.7646,1.2598,1.1582c2.0146,1.958,1.3506,5.3379,1.3213,5.4814
		C16.7871,19.1123,16.5791,19.2754,16.3467,19.2754z"/>
	<path d="M14.4922,6.9976h-0.9854c-0.2764,0-0.5-0.2236-0.5-0.5s0.2236-0.5,0.5-0.5h0.9854c0.2764,0,0.5,0.2236,0.5,0.5
		S14.7686,6.9976,14.4922,6.9976z"/>
</g>
<rect x="0.0142" y="0.0354" fill="none" width="24" height="24"/>
</svg>
