<?xml version="1.0" encoding="utf-8"?>
<!-- Generator: Adobe Illustrator 18.1.0, SVG Export Plug-In . SVG Version: 6.00 Build 0)  -->
<svg version="1.1" id="Layer_1" xmlns="http://www.w3.org/2000/svg" xmlns:xlink="http://www.w3.org/1999/xlink" x="0px" y="0px"
	 width="24px" height="24px" viewBox="0 0 24 24" enable-background="new 0 0 24 24" xml:space="preserve">
<g>
	<path d="M20.5098,5.0049h-4c-0.2764,0-0.5-0.2236-0.5-0.5v-4c0-0.2764,0.2236-0.5,0.5-0.5s0.5,0.2236,0.5,0.5v3.5h3.5
		c0.2764,0,0.5,0.2236,0.5,0.5S20.7861,5.0049,20.5098,5.0049z"/>
	<path d="M19.7178,24.0049H4.2969c-0.7095,0-1.2871-0.583-1.2871-1.2998V1.3105c0-0.7197,0.5776-1.3057,1.2871-1.3057h12.2129
		c0.418,0,0.6406,0.2192,0.8027,0.3789l3.3125,3.2686c0.1787,0.1772,0.3848,0.4341,0.3848,0.8525v18.2002
		C21.0098,23.4219,20.4307,24.0049,19.7178,24.0049z M16.5029,0.998L4.2969,1.0049c-0.1558,0-0.2871,0.1401-0.2871,0.3057v21.3945
		c0,0.1621,0.1313,0.2998,0.2871,0.2998h15.4209c0.1582,0,0.292-0.1377,0.292-0.2998V4.5049c0-0.0352,0-0.0542-0.0879-0.1406
		l-3.3125-3.2686C16.582,1.0679,16.5234,1.0103,16.5029,0.998z"/>
	<path d="M12.2324,17.9639c-0.1953,0-0.3804-0.1152-0.4609-0.3057L9.332,11.8589l-2.4395,5.7993
		c-0.1074,0.2539-0.4004,0.373-0.6548,0.2666c-0.2544-0.1074-0.374-0.4004-0.2671-0.6553l2.9004-6.894
		c0.1562-0.3711,0.7656-0.3711,0.9219,0l2.9004,6.894c0.1074,0.2549-0.0127,0.5479-0.2666,0.6553
		C12.3633,17.9512,12.2969,17.9639,12.2324,17.9639z"/>
	<path d="M11.3164,15.7861H7.3481c-0.2764,0-0.5-0.2236-0.5-0.5s0.2236-0.5,0.5-0.5h3.9683c0.2764,0,0.5,0.2236,0.5,0.5
		S11.5928,15.7861,11.3164,15.7861z"/>
	<path d="M17.4336,17.8457c-0.2764,0-0.5-0.2236-0.5-0.5v-2.8838c0.001-0.0303,0.0234-0.7695-0.4736-1.1357
		c-0.4561-0.3359-1.2754-0.3105-2.3652,0.0762c-0.2637,0.0908-0.5459-0.0439-0.6387-0.3047
		c-0.0918-0.2607,0.0449-0.5459,0.3047-0.6387c1.4473-0.5112,2.5586-0.4868,3.3027,0.0703c0.9248,0.6904,0.8721,1.9072,0.8691,1.959
		l0.001,2.8574C17.9336,17.6221,17.71,17.8457,17.4336,17.8457z"/>
	<path d="M15.0381,17.9434c-1.1387,0-1.8906-0.666-2.0127-1.7842c-0.0889-0.8135,0.2451-1.2832,0.542-1.5342
		c1.1543-0.9795,3.7139-0.3018,4.001-0.2197c0.2656,0.0742,0.4209,0.3496,0.3467,0.6162c-0.0732,0.2656-0.3477,0.4238-0.6162,0.3467
		c-0.8926-0.248-2.5205-0.4639-3.085,0.0195c-0.1055,0.0889-0.2393,0.2539-0.1943,0.6621c0.0244,0.2217,0.0977,0.8936,1.0186,0.8936
		c0.0039,0,0.0088,0,0.0127,0c0.8848-0.0059,1.8418-0.6367,1.8848-1.0869c0.0273-0.2754,0.2773-0.4648,0.5459-0.4502
		c0.2744,0.0264,0.4766,0.2705,0.4502,0.5459c-0.1064,1.1113-1.6318,1.9834-2.874,1.9912
		C15.0508,17.9434,15.0449,17.9434,15.0381,17.9434z"/>
</g>
<rect y="0.0001" fill="none" width="24" height="24"/>
</svg>
