<?xml version="1.0" encoding="utf-8"?>
<!-- Generator: Adobe Illustrator 18.1.0, SVG Export Plug-In . SVG Version: 6.00 Build 0)  -->
<svg version="1.1" id="Layer_1" xmlns="http://www.w3.org/2000/svg" xmlns:xlink="http://www.w3.org/1999/xlink" x="0px" y="0px"
	 width="24px" height="24px" viewBox="0 0 24 24" enable-background="new 0 0 24 24" xml:space="preserve">
<g>
	<path d="M8.5674,23.0703c-2.4507,0-3.8257-0.6934-4.9561-1.2637L3.4961,21.748c-3.5249-2.165-3.1753-5.5498-2.8672-8.5352
		c0.1841-1.7842,0.3579-3.4688-0.166-4.9087c-0.1064-0.291-0.0117-0.6128,0.2363-0.7998C0.9497,7.3159,1.2866,7.313,1.5386,7.4971
		c0.3491,0.2627,2.4961,3.1821,3.5171,5.1455c0.1997-0.7627,0.3184-1.7642,0.4414-2.8027c0.3784-3.1987,0.8501-7.1792,3.9165-9.0205
		C9.6313,0.689,9.9014,0.687,10.1216,0.811c0.2192,0.1245,0.356,0.3589,0.356,0.6108c0,3.7363,0.2695,6.4565,0.8208,8.251
		c0.6221-1.5269,1.9194-3.8516,4.1411-4.2217c0.2754-0.0542,0.5752,0.0835,0.7246,0.3428c0.1504,0.2622,0.1211,0.5796-0.0771,0.8081
		c-1.3203,1.54-0.667,4.4248-0.3252,5.5933c0.0781,0.2656-0.0742,0.543-0.3389,0.6201c-0.2686,0.0781-0.543-0.0752-0.6201-0.3389
		c-0.4219-1.4395-0.9121-3.9424,0.0283-5.7817c-1.6191,0.8149-2.6367,3.1328-3.0132,4.5376
		c-0.0532,0.1987-0.2227,0.3447-0.4277,0.3677c-0.2095,0.0229-0.4019-0.082-0.4976-0.2646
		C9.9644,9.5688,9.5127,6.5884,9.4795,1.9819C7.2305,3.7031,6.8223,7.1528,6.4902,9.957c-0.21,1.7715-0.3911,3.3008-0.9858,4.2021
		C5.4438,14.251,5.355,14.3203,5.251,14.3564c-0.1294,0.0449-0.2891,0.041-0.4116-0.0225s-0.2295-0.1689-0.2666-0.3018
		c-0.2915-1.0391-1.8501-3.3687-2.8467-4.73c0.1782,1.2949,0.0361,2.6704-0.1025,4.0132c-0.3052,2.9541-0.5933,5.7451,2.3589,7.5605
		l0.0796,0.0381c1.2251,0.6172,2.6138,1.3154,5.4268,1.123c0.2651-0.0215,0.5142,0.1895,0.5337,0.4648
		c0.019,0.2754-0.189,0.5137-0.4644,0.5332C9.2095,23.0596,8.8794,23.0703,8.5674,23.0703z"/>
	<path d="M17.4863,24h-6c-0.2764,0-0.5-0.2236-0.5-0.5v-9c0-0.2764,0.2236-0.5,0.5-0.5h6c0.2764,0,0.5,0.2236,0.5,0.5v3
		c0,0.2764-0.2236,0.5-0.5,0.5h-5.5v2h5.5c0.2764,0,0.5,0.2236,0.5,0.5v3C17.9863,23.7764,17.7627,24,17.4863,24z M11.9863,23h5v-2
		h-5V23z M11.9863,17h5v-2h-5V17z"/>
	<path d="M23.3799,18h-5.8936c-0.2764,0-0.5-0.2236-0.5-0.5v-3c0-0.2764,0.2236-0.5,0.5-0.5h5.8936c0.2764,0,0.5,0.2236,0.5,0.5
		s-0.2236,0.5-0.5,0.5h-5.3936v2h5.3936c0.2764,0,0.5,0.2236,0.5,0.5S23.6562,18,23.3799,18z"/>
	<path d="M23.3799,24h-5.8936c-0.2764,0-0.5-0.2236-0.5-0.5v-3c0-0.2764,0.2236-0.5,0.5-0.5h5.8936c0.2764,0,0.5,0.2236,0.5,0.5
		s-0.2236,0.5-0.5,0.5h-5.3936v2h5.3936c0.2764,0,0.5,0.2236,0.5,0.5S23.6562,24,23.3799,24z"/>
	<path d="M20.4863,21h-6c-0.2764,0-0.5-0.2236-0.5-0.5v-3c0-0.2764,0.2236-0.5,0.5-0.5h6c0.2764,0,0.5,0.2236,0.5,0.5v3
		C20.9863,20.7764,20.7627,21,20.4863,21z M14.9863,20h5v-2h-5V20z"/>
	<path d="M23.3799,21h-2.8936c-0.2764,0-0.5-0.2236-0.5-0.5v-3c0-0.2764,0.2236-0.5,0.5-0.5h2.8936c0.2764,0,0.5,0.2236,0.5,0.5
		s-0.2236,0.5-0.5,0.5h-2.3936v2h2.3936c0.2764,0,0.5,0.2236,0.5,0.5S23.6562,21,23.3799,21z"/>
	<path d="M14.4863,21h-3c-0.2764,0-0.5-0.2236-0.5-0.5s0.2236-0.5,0.5-0.5h2.5v-2h-2.5c-0.2764,0-0.5-0.2236-0.5-0.5
		s0.2236-0.5,0.5-0.5h3c0.2764,0,0.5,0.2236,0.5,0.5v3C14.9863,20.7764,14.7627,21,14.4863,21z"/>
</g>
<rect x="-0.0136" fill="none" width="24" height="24"/>
</svg>
