<?xml version="1.0" encoding="utf-8"?>
<!-- Generator: Adobe Illustrator 18.1.0, SVG Export Plug-In . SVG Version: 6.00 Build 0)  -->
<svg version="1.1" id="Layer_1" xmlns="http://www.w3.org/2000/svg" xmlns:xlink="http://www.w3.org/1999/xlink" x="0px" y="0px"
	 width="24px" height="24px" viewBox="0 0 24 24" enable-background="new 0 0 24 24" xml:space="preserve">
<g>
	<path d="M18.7363,15.9336c-2.6846,0-6.0898-2.7188-6.0898-5.7749c0-0.9438,0.2871-1.6421,0.666-2.1382h-2.6494
		c0.3794,0.4961,0.666,1.1943,0.666,2.1382c0,3.0562-3.4053,5.7749-6.0898,5.7749c-1.3306,0-2.3794-0.3936-3.1177-1.1709
		c-0.8501-0.8945-1.2354-2.251-1.1445-4.0312C1.1626,7.0947,4.2217,7.021,4.2524,7.0205H9.127c0.0068,0,0.0151,0,0.0229,0h5.6763
		c0.0088-0.001,0.0146-0.0005,0.0225,0h4.8691c0.0361,0.0005,3.0947,0.0742,3.2803,3.7109
		c0.0908,1.7803-0.2939,3.1377-1.1445,4.0322C21.1152,15.54,20.0664,15.9336,18.7363,15.9336z M14.9141,8.0205
		c-0.248,0.0889-1.2676,0.5518-1.2676,2.1382c0,2.4595,2.8672,4.7749,5.0898,4.7749c1.0459,0,1.8506-0.2891,2.3926-0.8594
		c0.6533-0.6885,0.9473-1.7959,0.8711-3.292c-0.1387-2.708-2.2002-2.7607-2.2871-2.7617H14.9141z M9.063,8.0205H4.2578
		C4.0459,8.0254,2.1104,8.147,1.9761,10.7822c-0.0767,1.4961,0.2163,2.6035,0.8706,3.292c0.542,0.5703,1.3472,0.8594,2.3926,0.8594
		c2.2227,0,5.0898-2.3154,5.0898-4.7749C10.3291,8.564,9.3013,8.1055,9.063,8.0205z"/>
	<path d="M10.8213,10.4536c-0.2759,0-0.4976-0.2363-0.4976-0.5127c0-0.6802,0.7153-1.1934,1.6641-1.1934
		s1.6646,0.5132,1.6646,1.1934c0,0.2764-0.2236,0.5-0.5,0.5s-0.5-0.2236-0.5-0.5c-0.0273-0.0391-0.2646-0.1934-0.6646-0.1934
		c-0.4004,0-0.6372,0.1543-0.6685,0.2188C11.3193,10.2422,11.0977,10.4536,10.8213,10.4536z"/>
	<path d="M1.6982,10.0205h-1.207c-0.2764,0-0.5-0.2236-0.5-0.5s0.2236-0.5,0.5-0.5h1.207c0.2764,0,0.5,0.2236,0.5,0.5
		S1.9746,10.0205,1.6982,10.0205z"/>
	<path d="M23.5342,10.0205h-1.2568c-0.2764,0-0.5-0.2236-0.5-0.5s0.2236-0.5,0.5-0.5h1.2568c0.2764,0,0.5,0.2236,0.5,0.5
		S23.8105,10.0205,23.5342,10.0205z"/>
	<path d="M2.958,10.9365c-0.1284,0-0.2563-0.0488-0.354-0.147c-0.1948-0.1953-0.1948-0.5122,0.001-0.707L4.123,8.5684
		c0.1953-0.1943,0.5122-0.1943,0.707,0.001s0.1948,0.5122-0.001,0.707L3.311,10.7905C3.2134,10.8877,3.0859,10.9365,2.958,10.9365z"
		/>
	<path d="M3.4346,12.4941c-0.1284,0-0.2563-0.0488-0.354-0.1465c-0.1948-0.1963-0.1948-0.5127,0.001-0.7075l2.3589-2.3525
		c0.1958-0.1943,0.5127-0.1953,0.707,0.001c0.1948,0.1953,0.1948,0.5122-0.001,0.707l-2.3589,2.353
		C3.6899,12.4453,3.5625,12.4941,3.4346,12.4941z"/>
</g>
<rect y="0.0354" fill="none" width="24" height="24"/>
</svg>
