<?xml version="1.0" encoding="utf-8"?>
<!-- Generator: Adobe Illustrator 18.1.0, SVG Export Plug-In . SVG Version: 6.00 Build 0)  -->
<svg version="1.1" id="Layer_1" xmlns="http://www.w3.org/2000/svg" xmlns:xlink="http://www.w3.org/1999/xlink" x="0px" y="0px"
	 width="24px" height="24px" viewBox="0 0 24 24" enable-background="new 0 0 24 24" xml:space="preserve">
<g>
	<path d="M18.4951,24.001H5.4961c-0.564,0-1.0493-0.292-1.2983-0.7812c-0.2568-0.5039-0.2148-1.1152,0.1069-1.5566l6.5156-8.043
		c0.5308-0.7314,1.8057-0.751,2.3662,0.0205l6.4844,8.002c0.3418,0.4678,0.3887,1.0537,0.1367,1.5498
		C19.5547,23.6914,19.0518,24.001,18.4951,24.001z M11.9956,14.0342c-0.1528,0-0.292,0.0713-0.3823,0.1943l-6.5156,8.043
		c-0.0835,0.1162-0.0938,0.3281-0.0088,0.4941c0.0791,0.1562,0.2163,0.2354,0.4072,0.2354h12.999
		c0.1807,0,0.3379-0.0977,0.4209-0.2617c0.04-0.0771,0.1143-0.2793-0.0381-0.4873l-6.4844-8.0029
		C12.2881,14.1045,12.1484,14.0342,11.9956,14.0342z"/>
	<path d="M23.5,17.001H18c-0.2764,0-0.5-0.2236-0.5-0.5s0.2236-0.5,0.5-0.5h5v-15H1v15h5c0.2764,0,0.5,0.2236,0.5,0.5
		s-0.2236,0.5-0.5,0.5H0.5c-0.2764,0-0.5-0.2236-0.5-0.5v-16c0-0.2764,0.2236-0.5,0.5-0.5h23c0.2764,0,0.5,0.2236,0.5,0.5v16
		C24,16.7773,23.7764,17.001,23.5,17.001z"/>
</g>
<rect y="0.001" fill="none" width="24" height="24"/>
</svg>
