<?xml version="1.0" encoding="utf-8"?>
<!-- Generator: Adobe Illustrator 18.1.0, SVG Export Plug-In . SVG Version: 6.00 Build 0)  -->
<svg version="1.1" id="Layer_1" xmlns="http://www.w3.org/2000/svg" xmlns:xlink="http://www.w3.org/1999/xlink" x="0px" y="0px"
	 width="24px" height="24px" viewBox="0 0 24 24" enable-background="new 0 0 24 24" xml:space="preserve">
<g>
	<path d="M7.4663,22.0908c-1.6055,0-2.8789-0.7871-3.2451-2.0068c-0.2441-0.8125-0.0522-1.6924,0.5396-2.4775
		c0.5576-0.7383,1.4131-1.3096,2.4097-1.6084c0.4858-0.1465,0.98-0.2207,1.4683-0.2207c1.605,0,2.8784,0.7881,3.2446,2.0068
		c0.2437,0.8125,0.0522,1.6924-0.5396,2.4775c-0.5576,0.7393-1.4131,1.3105-2.4097,1.6094
		C8.4482,22.0176,7.9546,22.0908,7.4663,22.0908z M8.6387,16.7773c-0.3906,0-0.7881,0.0596-1.1807,0.1777
		c-0.7944,0.2393-1.4688,0.6836-1.8989,1.2539c-0.395,0.5234-0.5303,1.0879-0.3799,1.5879
		c0.2358,0.7861,1.1338,1.2939,2.2871,1.2939c0.3906,0,0.7881-0.0596,1.1807-0.1768c0.7939-0.2383,1.4683-0.6846,1.8984-1.2539
		c0.395-0.5244,0.5303-1.0889,0.3799-1.5889C10.6895,17.2852,9.792,16.7773,8.6387,16.7773z"/>
	<path d="M11.4863,18.5c-0.2764,0-0.5-0.2236-0.5-0.5V0c0-0.1782,0.0952-0.3433,0.2495-0.4326
		c0.1548-0.0894,0.3452-0.0903,0.4995-0.001c0.2451,0.1406,6.0088,3.4951,6.3359,7.6006c0.1338,1.687-0.6553,3.2363-2.3477,4.6045
		c-0.2148,0.1729-0.5293,0.1401-0.7031-0.0742c-0.1738-0.2148-0.1406-0.5298,0.0742-0.7031
		c1.4199-1.1479,2.0859-2.4087,1.9795-3.7461c-0.2197-2.7715-3.5615-5.3154-5.0879-6.3389V18
		C11.9863,18.2764,11.7627,18.5,11.4863,18.5z"/>
</g>
<rect x="-0.0137" y="-0.9998" fill="none" width="24" height="24"/>
</svg>
