<?xml version="1.0" encoding="utf-8"?>
<!-- Generator: Adobe Illustrator 18.1.0, SVG Export Plug-In . SVG Version: 6.00 Build 0)  -->
<svg version="1.1" id="Layer_1" xmlns="http://www.w3.org/2000/svg" xmlns:xlink="http://www.w3.org/1999/xlink" x="0px" y="0px"
	 width="24px" height="24px" viewBox="0 0 24 24" enable-background="new 0 0 24 24" xml:space="preserve">
<g>
	<path d="M20.5049,5h-4c-0.2764,0-0.5-0.2236-0.5-0.5v-4c0-0.2764,0.2236-0.5,0.5-0.5s0.5,0.2236,0.5,0.5V4h3.5
		c0.2764,0,0.5,0.2236,0.5,0.5S20.7812,5,20.5049,5z"/>
	<path d="M19.7129,24H4.292c-0.7095,0-1.2871-0.583-1.2871-1.2998V1.3057C3.0049,0.5859,3.5825,0,4.292,0h12.2129
		c0.418,0,0.6406,0.2192,0.8027,0.3789l3.3125,3.269c0.1787,0.1763,0.3848,0.4326,0.3848,0.8521v18.2002
		C21.0049,23.417,20.4258,24,19.7129,24z M16.498,0.9932L4.292,1C4.1362,1,4.0049,1.1401,4.0049,1.3057v21.3945
		C4.0049,22.8623,4.1362,23,4.292,23h15.4209c0.1582,0,0.292-0.1377,0.292-0.2998V4.5c0-0.0347,0-0.0542-0.0869-0.1396
		l-3.3135-3.2695C16.5771,1.063,16.5186,1.0054,16.498,0.9932z"/>
	<path d="M17.042,18H7c-0.2764,0-0.5-0.2236-0.5-0.5S6.7236,17,7,17h10.042c0.2764,0,0.5,0.2236,0.5,0.5S17.3184,18,17.042,18z"/>
	<path d="M17.042,15H7c-0.2764,0-0.5-0.2236-0.5-0.5S6.7236,14,7,14h10.042c0.2764,0,0.5,0.2236,0.5,0.5S17.3184,15,17.042,15z"/>
	<path d="M17.042,12H7c-0.2764,0-0.5-0.2236-0.5-0.5S6.7236,11,7,11h10.042c0.2764,0,0.5,0.2236,0.5,0.5S17.3184,12,17.042,12z"/>
	<path d="M12.5791,9H7C6.7236,9,6.5,8.7764,6.5,8.5S6.7236,8,7,8h5.5791c0.2764,0,0.5,0.2236,0.5,0.5S12.8555,9,12.5791,9z"/>
</g>
<rect y="0.0001" fill="none" width="24" height="24"/>
</svg>
