<?xml version="1.0" encoding="utf-8"?>
<!-- Generator: Adobe Illustrator 18.1.0, SVG Export Plug-In . SVG Version: 6.00 Build 0)  -->
<svg version="1.1" id="Layer_1" xmlns="http://www.w3.org/2000/svg" xmlns:xlink="http://www.w3.org/1999/xlink" x="0px" y="0px"
	 width="24px" height="24px" viewBox="0 0 24 24" enable-background="new 0 0 24 24" xml:space="preserve">
<g>
	<path d="M9.4712,22.0908c-1.6055,0-2.8789-0.7871-3.2446-2.0068c-0.2441-0.8125-0.0527-1.6924,0.5396-2.4775
		c0.5571-0.7383,1.4131-1.3096,2.4097-1.6084c0.4858-0.1465,0.98-0.2207,1.4683-0.2207c1.605,0,2.8784,0.7881,3.2437,2.0068
		c0.2451,0.8125,0.0537,1.6924-0.5391,2.4775c-0.5576,0.7393-1.4131,1.3105-2.4097,1.6094
		C10.4531,22.0176,9.9595,22.0908,9.4712,22.0908z M10.644,16.7773c-0.3906,0-0.7881,0.0596-1.1807,0.1777
		c-0.7944,0.2383-1.4688,0.6836-1.8989,1.2539c-0.3955,0.5234-0.5303,1.0879-0.3799,1.5879
		c0.2358,0.7861,1.1333,1.2939,2.2866,1.2939c0.3906,0,0.7881-0.0596,1.1807-0.1768c0.7939-0.2393,1.4683-0.6846,1.8989-1.2539
		c0.3945-0.5244,0.5303-1.0889,0.3799-1.5889C12.6943,17.2852,11.7969,16.7773,10.644,16.7773z"/>
	<path d="M13.4912,18.5c-0.2764,0-0.5-0.2236-0.5-0.5V0c0-0.1782,0.0947-0.3433,0.249-0.4326c0.1553-0.0894,0.3447-0.0903,0.5-0.001
		c0.2451,0.1406,6.0098,3.4951,6.3369,7.6011c0.1338,1.6865-0.6562,3.2358-2.3477,4.604c-0.2148,0.1729-0.5303,0.1401-0.7031-0.0742
		c-0.1738-0.2148-0.1406-0.5298,0.0742-0.7031c1.4199-1.1484,2.0859-2.4092,1.9795-3.7476
		c-0.2207-2.7754-3.5635-5.3164-5.0889-6.3384V18C13.9912,18.2764,13.7676,18.5,13.4912,18.5z"/>
	<path d="M9.9863,5h-9c-0.2764,0-0.5-0.2236-0.5-0.5S0.71,4,0.9863,4h9c0.2764,0,0.5,0.2236,0.5,0.5S10.2627,5,9.9863,5z"/>
	<path d="M9.9863,9h-9c-0.2764,0-0.5-0.2236-0.5-0.5S0.71,8,0.9863,8h9c0.2764,0,0.5,0.2236,0.5,0.5S10.2627,9,9.9863,9z"/>
	<path d="M9.9863,13h-9c-0.2764,0-0.5-0.2236-0.5-0.5S0.71,12,0.9863,12h9c0.2764,0,0.5,0.2236,0.5,0.5S10.2627,13,9.9863,13z"/>
</g>
<rect x="-1.0137" y="-0.9998" fill="none" width="24" height="24"/>
</svg>
