<?xml version="1.0" encoding="utf-8"?>
<!-- Generator: Adobe Illustrator 18.1.0, SVG Export Plug-In . SVG Version: 6.00 Build 0)  -->
<svg version="1.1" id="Layer_1" xmlns="http://www.w3.org/2000/svg" xmlns:xlink="http://www.w3.org/1999/xlink" x="0px" y="0px"
	 width="24px" height="24px" viewBox="0 0 24 24" enable-background="new 0 0 24 24" xml:space="preserve">
<g>
	<path d="M19.5098,17.002h-6.0537c-0.2764,0-0.5-0.2236-0.5-0.5s0.2236-0.5,0.5-0.5h6.0537c0.2764,0,0.5,0.2236,0.5,0.5
		S19.7861,17.002,19.5098,17.002z"/>
	<path d="M22.2148,20.9727H1.7559c-1.0034,0-1.8198-0.8164-1.8198-1.8203V5.8218c0-1.0039,0.8164-1.8203,1.8198-1.8203h20.459
		c1.0029,0,1.8193,0.8164,1.8193,1.8203v13.3306C24.0342,20.1562,23.2178,20.9727,22.2148,20.9727z M1.7559,5.0015
		c-0.4521,0-0.8198,0.3682-0.8198,0.8203v13.3306c0,0.4521,0.3677,0.8203,0.8198,0.8203h20.459
		c0.4521,0,0.8193-0.3682,0.8193-0.8203V5.8218c0-0.4521-0.3672-0.8203-0.8193-0.8203H1.7559z"/>
	<path d="M23.5342,11.9839H0.436c-0.2764,0-0.5-0.2236-0.5-0.5V7.5215c0-0.2764,0.2236-0.5,0.5-0.5h23.0981
		c0.2764,0,0.5,0.2236,0.5,0.5v3.9624C24.0342,11.7603,23.8105,11.9839,23.5342,11.9839z M0.936,10.9839h22.0981V8.0215H0.936
		V10.9839z"/>
</g>
<rect x="-0.0136" y="0.0031" fill="none" width="24" height="24"/>
<rect x="-0.0136" fill="none" width="24" height="24"/>
</svg>
