<?xml version="1.0" encoding="utf-8"?>
<!-- Generator: Adobe Illustrator 18.1.0, SVG Export Plug-In . SVG Version: 6.00 Build 0)  -->
<svg version="1.1" id="Layer_1" xmlns="http://www.w3.org/2000/svg" xmlns:xlink="http://www.w3.org/1999/xlink" x="0px" y="0px"
	 width="24px" height="24px" viewBox="0 0 24 24" enable-background="new 0 0 24 24" xml:space="preserve">
<g>
	<path d="M20.5,5.0098h-4c-0.2764,0-0.5-0.2236-0.5-0.5v-4c0-0.2764,0.2236-0.5,0.5-0.5s0.5,0.2236,0.5,0.5v3.5h3.5
		c0.2764,0,0.5,0.2236,0.5,0.5S20.7764,5.0098,20.5,5.0098z"/>
	<path d="M19.708,24.0098H4.2871C3.5776,24.0098,3,23.4268,3,22.71V1.3154c0-0.7197,0.5776-1.3057,1.2871-1.3057H16.5
		c0.418,0,0.6406,0.2192,0.8027,0.3789l3.3125,3.2686C20.7939,3.8345,21,4.0913,21,4.5098V22.71
		C21,23.4268,20.4209,24.0098,19.708,24.0098z M16.4932,1.0029L4.2871,1.0098C4.1313,1.0098,4,1.1499,4,1.3154V22.71
		c0,0.1621,0.1313,0.2998,0.2871,0.2998H19.708c0.1582,0,0.292-0.1377,0.292-0.2998V4.5098c0-0.0352,0-0.0542-0.0879-0.1406
		l-3.3125-3.2686C16.5723,1.0728,16.5137,1.0151,16.4932,1.0029z"/>
	<path d="M16.3799,19.9619H7.4873c-0.2764,0-0.5-0.2236-0.5-0.5s0.2236-0.5,0.5-0.5h8.8926c0.2764,0,0.5,0.2236,0.5,0.5
		S16.6562,19.9619,16.3799,19.9619z"/>
	<path d="M16.1865,16.959H7.8071c-0.4517,0-0.8193-0.3848-0.8193-0.8574v-1.2529c0-0.3506,0.2002-0.6621,0.5098-0.7939
		c2.2354-0.9502,2.7695-1.3887,2.8945-1.5293v-0.1943c-0.2695-0.3486-0.4824-0.7832-0.624-1.2739
		c-0.4033-0.4185-0.4849-1.0723-0.1978-1.5928V8.4868c0-1.5117,0.9297-2.4512,2.4263-2.4512c1.519,0,2.4263,0.9165,2.4263,2.4512
		v0.9785c0.2793,0.5151,0.1963,1.1768-0.1982,1.5908c-0.1416,0.4917-0.3545,0.9268-0.624,1.2749v0.208
		c0.0977,0.1045,0.5986,0.5391,2.8945,1.5156c0.3105,0.1318,0.5107,0.4434,0.5107,0.7939v1.2529
		C17.0059,16.5742,16.6387,16.959,16.1865,16.959z M7.9878,15.959h8.0181v-1.0264c-2.915-1.2471-3.2773-1.7598-3.3857-2.1426
		c-0.0127-0.0449-0.0195-0.0908-0.0195-0.1367v-0.502c0-0.123,0.0449-0.2407,0.127-0.3325c0.251-0.2827,0.4482-0.6821,0.5684-1.1558
		c0.0273-0.1084,0.0898-0.2041,0.1787-0.2725c0.1191-0.0918,0.165-0.3242,0.0459-0.4858c-0.0635-0.0859-0.0977-0.1899-0.0977-0.2964
		V8.4868c0-0.9902-0.4531-1.4512-1.4263-1.4512c-0.9463,0-1.4263,0.4883-1.4263,1.4512v1.1221c0,0.1069-0.0342,0.2109-0.0977,0.2969
		c-0.1206,0.1636-0.0752,0.3911,0.0464,0.4854c0.0879,0.0684,0.1504,0.1641,0.1777,0.272c0.1201,0.4727,0.3169,0.8726,0.5688,1.1562
		c0.0815,0.0913,0.1265,0.21,0.1265,0.332v0.502c0,0.0459-0.0063,0.0918-0.019,0.1367c-0.1084,0.3828-0.4702,0.8955-3.3853,2.1426
		V15.959z"/>
</g>
<rect y="0.0001" fill="none" width="24" height="24"/>
</svg>
