<?xml version="1.0" encoding="utf-8"?>
<!-- Generator: Adobe Illustrator 18.1.0, SVG Export Plug-In . SVG Version: 6.00 Build 0)  -->
<svg version="1.1" id="Layer_1" xmlns="http://www.w3.org/2000/svg" xmlns:xlink="http://www.w3.org/1999/xlink" x="0px" y="0px"
	 width="24px" height="24px" viewBox="0 0 24 24" enable-background="new 0 0 24 24" xml:space="preserve">
<g>
	<path d="M23,22.0195H1c-0.2764,0-0.5-0.2236-0.5-0.5s0.2236-0.5,0.5-0.5h22c0.2764,0,0.5,0.2236,0.5,0.5
		S23.2764,22.0195,23,22.0195z"/>
	<path d="M21.8926,20.0195H1.9912c-0.2764,0-0.5-0.2236-0.5-0.5c0-6.0586,4.395-10.4561,10.4507-10.4561
		c6.0552,0,10.4507,4.3975,10.4507,10.4561C22.3926,19.7959,22.1689,20.0195,21.8926,20.0195z M2.5024,19.0195h18.8794
		c-0.2344-5.2197-4.1318-8.9561-9.4399-8.9561S2.7368,13.7998,2.5024,19.0195z"/>
	<path d="M13.1182,8.687c-0.2764,0-0.5-0.2236-0.5-0.5c0-1.2402-1.3516-1.2441-1.3521,0c0,0.2764-0.2236,0.5-0.5,0.5
		s-0.5-0.2236-0.5-0.5c0-0.7109,0.2739-1.1499,0.5039-1.3931c0.8843-0.9355,2.8481-0.5229,2.8481,1.3931
		C13.6182,8.4634,13.3945,8.687,13.1182,8.687z"/>
	<path d="M5.3169,17.6221c-0.0459,0-0.0928-0.0059-0.1396-0.0195c-0.2651-0.0771-0.4175-0.3545-0.3403-0.6201
		c0.7539-2.5938,2.1953-4.3643,4.2832-5.2622c0.2554-0.1099,0.5479,0.0088,0.6572,0.2617c0.1089,0.2534-0.0083,0.5483-0.2617,0.6567
		c-1.8262,0.7861-3.0425,2.2979-3.7188,4.623C5.7334,17.4805,5.5337,17.6221,5.3169,17.6221z"/>
	<path d="M11.9414,4.9487c-0.2764,0-0.5-0.2236-0.5-0.5V0.6226c0-0.2764,0.2236-0.5,0.5-0.5s0.5,0.2236,0.5,0.5v3.8262
		C12.4414,4.7251,12.2178,4.9487,11.9414,4.9487z"/>
	<path d="M17.6592,7.3286c-0.125,0-0.249-0.0464-0.3467-0.1392c-0.1992-0.1914-0.2051-0.5078-0.0137-0.707l2.9678-3.0913
		c0.1914-0.2002,0.5078-0.2036,0.707-0.0146c0.1992,0.1914,0.2051,0.5078,0.0137,0.707l-2.9678,3.0913
		C17.9219,7.2773,17.79,7.3286,17.6592,7.3286z"/>
	<path d="M6.2251,7.3286c-0.1313,0-0.2627-0.0513-0.3608-0.1538L2.896,4.0835c-0.1909-0.1992-0.1846-0.5156,0.0146-0.707
		c0.1987-0.1909,0.5156-0.1851,0.707,0.0146l2.9683,3.0913c0.1909,0.1992,0.1846,0.5156-0.0146,0.707
		C6.4746,7.2822,6.3496,7.3286,6.2251,7.3286z"/>
	<path d="M20.6162,24.0195H3.2676c-0.1719,0-0.332-0.0889-0.4233-0.2344l-1.2559-2c-0.0967-0.1543-0.1021-0.3486-0.0142-0.5078
		s0.2554-0.2578,0.4375-0.2578h19.8604c0.1816,0,0.3496,0.0986,0.4375,0.2578s0.083,0.3535-0.0137,0.5078l-1.2559,2
		C20.9482,23.9307,20.7881,24.0195,20.6162,24.0195z M3.5439,23.0195h16.7959l0.6279-1H2.916L3.5439,23.0195z"/>
</g>
<rect y="0.0197" fill="none" width="24" height="24"/>
</svg>
