<?xml version="1.0" encoding="utf-8"?>
<!-- Generator: Adobe Illustrator 18.1.0, SVG Export Plug-In . SVG Version: 6.00 Build 0)  -->
<svg version="1.1" id="Layer_1" xmlns="http://www.w3.org/2000/svg" xmlns:xlink="http://www.w3.org/1999/xlink" x="0px" y="0px"
	 width="24px" height="24px" viewBox="0 0 24 24" enable-background="new 0 0 24 24" xml:space="preserve">
<g>
	<path d="M13.5,21h-3c-0.2764,0-0.5-0.2236-0.5-0.5v-5c0-0.2764,0.2236-0.5,0.5-0.5h3c0.2764,0,0.5,0.2236,0.5,0.5v5
		C14,20.7764,13.7764,21,13.5,21z M11,20h2v-4h-2V20z"/>
	<path d="M12.7256,22.4912h-1.4507c-0.2764,0-0.5-0.2236-0.5-0.5V20.5c0-0.2764,0.2236-0.5,0.5-0.5h1.4507
		c0.2764,0,0.5,0.2236,0.5,0.5v1.4912C13.2256,22.2676,13.002,22.4912,12.7256,22.4912z M11.7749,21.4912h0.4507V21h-0.4507V21.4912
		z"/>
	<path d="M13.0508,15.9746h-2.1011c-0.2764,0-0.5-0.2236-0.5-0.5v-2.2188c0-0.6504,0.5288-1.1787,1.1792-1.1787h0.7422
		c0.6504,0,1.1797,0.5283,1.1797,1.1787v2.2188C13.5508,15.751,13.3271,15.9746,13.0508,15.9746z M11.4497,14.9746h1.1011v-1.7188
		c0-0.0986-0.0811-0.1787-0.1797-0.1787h-0.7422c-0.0986,0-0.1792,0.0801-0.1792,0.1787V14.9746z"/>
	<path d="M12.0195,8.3506c-0.9766,0-1.7715-0.7949-1.7715-1.7715c0-0.9771,0.7949-1.772,1.7715-1.772
		c0.9775,0,1.7725,0.7949,1.7725,1.772C13.792,7.5557,12.9971,8.3506,12.0195,8.3506z M12.0195,5.8071
		c-0.4253,0-0.7715,0.3462-0.7715,0.772c0,0.4253,0.3462,0.7715,0.7715,0.7715c0.4258,0,0.7725-0.3462,0.7725-0.7715
		C12.792,6.1533,12.4453,5.8071,12.0195,5.8071z"/>
	<path d="M17.1777,10H6.8623C5.2842,10,4,8.7363,4,7.1826V0.5791c0-0.2764,0.2236-0.5,0.5-0.5S5,0.3027,5,0.5791v6.6035
		C5,8.1846,5.8354,9,6.8623,9h10.3154C18.1992,9,19,8.2017,19,7.1826V0.5791c0-0.2764,0.2236-0.5,0.5-0.5s0.5,0.2236,0.5,0.5v6.6035
		C20,8.7363,18.7344,10,17.1777,10z"/>
	<path d="M19.5,4h-15C4.2236,4,4,3.7764,4,3.5S4.2236,3,4.5,3h15C19.7764,3,20,3.2236,20,3.5S19.7764,4,19.5,4z"/>
	<path d="M12,23.8984c-0.2764,0-0.5-0.2236-0.5-0.5v-1.4072c0-0.2764,0.2236-0.5,0.5-0.5s0.5,0.2236,0.5,0.5v1.4072
		C12.5,23.6748,12.2764,23.8984,12,23.8984z"/>
</g>
<rect fill="none" width="24" height="24"/>
</svg>
