<?xml version="1.0" encoding="utf-8"?>
<!-- Generator: Adobe Illustrator 18.1.0, SVG Export Plug-In . SVG Version: 6.00 Build 0)  -->
<svg version="1.1" id="Layer_1" xmlns="http://www.w3.org/2000/svg" xmlns:xlink="http://www.w3.org/1999/xlink" x="0px" y="0px"
	 width="24px" height="24px" viewBox="0 0 24 24" enable-background="new 0 0 24 24" xml:space="preserve">
<g>
	<path d="M21.8848,9.0352H2.1436c-1.1743,0-2.1294-0.9551-2.1294-2.1294V2.165c0-1.1743,0.9551-2.1299,2.1294-2.1299h19.7412
		c1.1748,0,2.1299,0.9556,2.1299,2.1299v4.7407C24.0146,8.0801,23.0596,9.0352,21.8848,9.0352z M2.1436,1.0352
		c-0.6226,0-1.1294,0.5068-1.1294,1.1299v4.7407c0,0.6226,0.5068,1.1294,1.1294,1.1294h19.7412c0.623,0,1.1299-0.5068,1.1299-1.1294
		V2.165c0-0.623-0.5068-1.1299-1.1299-1.1299H2.1436z"/>
	<path d="M20.4941,7.0352H3.4619c-0.2764,0-0.5-0.2236-0.5-0.5s0.2236-0.5,0.5-0.5h17.0322c0.2764,0,0.5,0.2236,0.5,0.5
		S20.7705,7.0352,20.4941,7.0352z"/>
	<path d="M15.7363,16.0176c-0.9492,0-1.7217-0.7725-1.7217-1.7227v-3.7827c0-0.2764,0.2236-0.5,0.5-0.5s0.5,0.2236,0.5,0.5v3.7827
		c0,0.3984,0.3242,0.7227,0.7217,0.7227c0.3984,0,0.7227-0.3242,0.7227-0.7227c0-0.2764,0.2236-0.5,0.5-0.5s0.5,0.2236,0.5,0.5
		C17.459,15.2451,16.6865,16.0176,15.7363,16.0176z"/>
	<path d="M7.4204,19.5088c-0.8789,0-1.5938-0.7148-1.5938-1.5938c0-0.2764,0.2236-0.5,0.5-0.5s0.5,0.2236,0.5,0.5
		c0,0.3271,0.2666,0.5938,0.5938,0.5938s0.5938-0.2666,0.5938-0.5938v-7.4028c0-0.2764,0.2236-0.5,0.5-0.5s0.5,0.2236,0.5,0.5
		v7.4028C9.0142,18.7939,8.2993,19.5088,7.4204,19.5088z"/>
	<path d="M13.918,23.6621c-1.6279,0-2.9038-1.2598-2.9038-2.8672V10.5122c0-0.2764,0.2236-0.5,0.5-0.5s0.4995,0.2236,0.4995,0.5
		v10.2827c0,1.0469,0.8369,1.8672,1.9043,1.8672c1.0498,0,1.9043-0.8926,1.9043-1.9893c0-1.1113-0.876-2.0508-1.9121-2.0508
		c-0.2764,0-0.5-0.2236-0.5-0.5s0.2236-0.5,0.5-0.5c1.5781,0,2.9121,1.3975,2.9121,3.0508
		C16.8223,22.3213,15.5195,23.6621,13.918,23.6621z"/>
</g>
<rect x="0.0142" y="0.0354" fill="none" width="24" height="24"/>
</svg>
