<?xml version="1.0" encoding="utf-8"?>
<!-- Generator: Adobe Illustrator 18.1.0, SVG Export Plug-In . SVG Version: 6.00 Build 0)  -->
<svg version="1.1" id="Layer_1" xmlns="http://www.w3.org/2000/svg" xmlns:xlink="http://www.w3.org/1999/xlink" x="0px" y="0px"
	 width="24px" height="24px" viewBox="0 0 24 24" enable-background="new 0 0 24 24" xml:space="preserve">
<g>
	<g>
		<g>
			<path d="M7.5332,3.5054h-1c-0.2764,0-0.5-0.2236-0.5-0.5s0.2236-0.5,0.5-0.5h1c0.2764,0,0.5,0.2236,0.5,0.5
				S7.8096,3.5054,7.5332,3.5054z"/>
			<path d="M12.9023,3.5054h-1.7896c-0.2764,0-0.5-0.2236-0.5-0.5s0.2236-0.5,0.5-0.5h1.7896c0.2764,0,0.5,0.2236,0.5,0.5
				S13.1787,3.5054,12.9023,3.5054z"/>
			<path d="M17.4814,3.5054h-1c-0.2764,0-0.5-0.2236-0.5-0.5s0.2236-0.5,0.5-0.5h1c0.2764,0,0.5,0.2236,0.5,0.5
				S17.7578,3.5054,17.4814,3.5054z"/>
		</g>
	</g>
	<path d="M10.4863,13h-3.627c-0.1406,0-0.2749-0.0596-0.3696-0.1631l-1.373-1.5098c-0.084-0.0918-0.1304-0.2119-0.1304-0.3364
		V4.3623c0-0.1069,0.0342-0.2114,0.0981-0.2974l0.7842-1.0605L5.0845,1.9458C5.021,1.8594,4.9863,1.7549,4.9863,1.6479V0.5
		c0-0.2764,0.2236-0.5,0.5-0.5s0.5,0.2236,0.5,0.5v0.9829l0.9062,1.2236c0.1309,0.1763,0.1309,0.418,0,0.5947L5.9863,4.5269v6.2705
		L7.0806,12h3.4058c0.2764,0,0.5,0.2236,0.5,0.5S10.7627,13,10.4863,13z"/>
	<path d="M17.5459,13h-4.0596c-0.2764,0-0.5-0.2236-0.5-0.5s0.2236-0.5,0.5-0.5h3.7822l0.7178-1.1523V4.5273l-0.9072-1.2261
		c-0.1309-0.1768-0.1299-0.4185,0.001-0.5952l0.9062-1.2231V0.5c0-0.2764,0.2236-0.5,0.5-0.5s0.5,0.2236,0.5,0.5v1.1479
		c0,0.1074-0.0342,0.2114-0.0986,0.2979l-0.7842,1.0586l0.7852,1.0605c0.0635,0.0859,0.0977,0.1904,0.0977,0.2974v6.6284
		c0,0.0933-0.0264,0.1851-0.0752,0.2646l-0.9404,1.5093C17.8789,12.9111,17.7188,13,17.5459,13z"/>
	<path d="M20.4727,1H3.4883c-0.2764,0-0.5-0.2236-0.5-0.5S3.2119,0,3.4883,0h16.9844c0.2764,0,0.5,0.2236,0.5,0.5
		S20.749,1,20.4727,1z"/>
	<path d="M10.4141,23.998c-0.1719,0-0.3394-0.0889-0.4321-0.248c-2.3623-4.042-0.4761-7.3457,0.0044-8.0713v-4.7251
		c0.0005-1.936,2.291-2.3784,3.3564-1.4648c0.415,0.356,0.6436,0.876,0.6436,1.4648v4.5552c0,0.2764-0.2236,0.5-0.5,0.5
		s-0.5-0.2236-0.5-0.5v-4.5552c0-0.3008-0.0986-0.5381-0.2939-0.7056c-0.1787-0.1533-0.4355-0.2412-0.7056-0.2412
		c-0.4614,0-1.0005,0.248-1.0005,0.9468v4.8813c0,0.1074-0.0352,0.2129-0.0991,0.2988c-0.0957,0.1289-2.3213,3.2119-0.042,7.1123
		c0.1392,0.2383,0.0591,0.5439-0.1792,0.6836C10.5864,23.9766,10.4995,23.998,10.4141,23.998z"/>
	<path d="M15.373,23.998c-0.0205,0-0.04-0.001-0.0605-0.0039c-0.2744-0.0322-0.4697-0.2812-0.4365-0.5557
		c0.0117-0.1025,0.3096-2.5234,1.1289-4.7246c1.5049-4.0361,0.7725-6.002,0.7646-6.0205c-0.1064-0.2549,0.0137-0.5479,0.2676-0.6543
		c0.2568-0.1055,0.5479,0.0127,0.6543,0.2676c0.0381,0.0918,0.917,2.2891-0.749,6.7568c-0.7793,2.0908-1.0713,4.4707-1.0742,4.4941
		C15.8379,23.8115,15.6221,23.998,15.373,23.998z"/>
	<path d="M10.4478,15.4854H7.75c-1.1426,0-1.7407-0.877-1.7407-1.7432c0-0.4482,0.1548-0.8691,0.436-1.1865
		C6.7637,12.1973,7.2271,12,7.75,12h2.7363c0.2764,0,0.5,0.2236,0.5,0.5s-0.2236,0.5-0.5,0.5H7.75
		c-0.2397,0-0.4272,0.0742-0.5566,0.2197c-0.1172,0.1318-0.1841,0.3223-0.1841,0.5225c0,0.3428,0.1938,0.7432,0.7407,0.7432h2.6978
		c0.2764,0,0.5,0.2236,0.5,0.5S10.7241,15.4854,10.4478,15.4854z"/>
	<path d="M9.6943,17.9551H8.6211c-1.0718,0-1.6328-0.875-1.6328-1.7383c0-0.4385,0.1406-0.8516,0.3955-1.1631
		c0.2993-0.3662,0.7388-0.5684,1.2373-0.5684h1.8267c0.2764,0,0.5,0.2236,0.5,0.5s-0.2236,0.5-0.5,0.5H8.6211
		c-0.6147,0-0.6328,0.6562-0.6328,0.7314s0.0181,0.7383,0.6328,0.7383h1.0732c0.2764,0,0.5,0.2236,0.5,0.5
		S9.9707,17.9551,9.6943,17.9551z"/>
	<path d="M8.6631,8.3784c-0.8833,0-1.6016-0.8647-1.6016-1.9277s0.7183-1.9277,1.6016-1.9277c0.8828,0,1.6011,0.8647,1.6011,1.9277
		S9.5459,8.3784,8.6631,8.3784z M8.6631,5.5229c-0.3203,0-0.6016,0.4336-0.6016,0.9277s0.2812,0.9277,0.6016,0.9277
		s0.6011-0.4336,0.6011-0.9277S8.9834,5.5229,8.6631,5.5229z"/>
	<path d="M14.0488,8.3828c-0.0752,0-0.1514-0.0166-0.2227-0.0522c-0.2471-0.123-0.3477-0.4229-0.2256-0.6704l1.0625-2.1372H13.792
		c-0.2764,0-0.5-0.2236-0.5-0.5s0.2236-0.5,0.5-0.5h1.6777c0.1729,0,0.334,0.0894,0.4248,0.2368
		c0.0918,0.147,0.0996,0.3306,0.0234,0.4858l-1.4209,2.8599C14.4092,8.2812,14.2324,8.3828,14.0488,8.3828z"/>
	<path d="M11.8105,8.3921c-0.5884,0-1.1885-0.2993-1.4292-0.7441c-0.1318-0.2432-0.0415-0.5464,0.2012-0.6777
		c0.2432-0.1313,0.5469-0.042,0.6777,0.2012c0.064,0.1182,0.3999,0.2617,0.667,0.2104c0.1655-0.0312,0.188-0.1084,0.1997-0.1987
		c0.0166-0.1362-0.0176-0.1724-0.0283-0.1846c-0.0991-0.1035-0.4019-0.1367-0.541-0.1245
		c-0.2031,0.0156-0.3887-0.0898-0.4819-0.2666c-0.0928-0.1772-0.0713-0.3926,0.0552-0.5479l0.4399-0.54h-0.6479
		c-0.2764,0-0.5-0.2236-0.5-0.5s0.2236-0.5,0.5-0.5h1.7002c0.1934,0,0.3691,0.1108,0.4512,0.2852
		c0.083,0.1743,0.0586,0.3809-0.0635,0.5308l-0.5732,0.7036c0.1377,0.0635,0.2705,0.1504,0.3838,0.2695
		c0.1709,0.1782,0.3604,0.4966,0.2979,0.9985c-0.0693,0.5562-0.4453,0.9517-1.0068,1.0576
		C12.0137,8.3833,11.9121,8.3921,11.8105,8.3921z"/>
</g>
<rect x="-0.0136" y="0.0001" fill="none" width="24" height="24"/>
</svg>
