<?xml version="1.0" encoding="utf-8"?>
<!-- Generator: Adobe Illustrator 18.1.0, SVG Export Plug-In . SVG Version: 6.00 Build 0)  -->
<svg version="1.1" id="Layer_1" xmlns="http://www.w3.org/2000/svg" xmlns:xlink="http://www.w3.org/1999/xlink" x="0px" y="0px"
	 width="24px" height="24px" viewBox="0 0 24 24" enable-background="new 0 0 24 24" xml:space="preserve">
<g>
	<path d="M5.5781,24c-0.0073-0.001-0.0132,0-0.02,0H0.5332c-0.1348,0-0.2637-0.0547-0.3579-0.1504
		c-0.0938-0.0967-0.145-0.2266-0.1421-0.3613l0.5425-23C0.582,0.2168,0.8042,0,1.0757,0h3.6294c0.269,0,0.4897,0.2129,0.4995,0.4814
		l0.8481,22.8604c0.0166,0.0498,0.0254,0.1025,0.0254,0.1582C6.0781,23.7764,5.8545,24,5.5781,24z M1.0449,23h3.9941L4.2231,1H1.564
		L1.0449,23z"/>
	<path d="M11.5,24H5.5581c-0.269,0-0.4897-0.2129-0.4995-0.4814l-0.354-9.417C4.6978,13.9199,4.79,13.749,4.9458,13.6543
		l6.2959-3.7939c0.1553-0.0923,0.3481-0.0947,0.5044-0.0073C11.9028,9.9419,12,10.1084,12,10.2886V23.5
		C12,23.7764,11.7764,24,11.5,24z M6.0396,23H11V11.1738l-5.2852,3.1855L6.0396,23z"/>
	<path d="M17.5,24h-6c-0.2764,0-0.5-0.2236-0.5-0.5v-9.5391c0-0.1738,0.0903-0.3359,0.2388-0.4268l6.0005-3.6719
		c0.1543-0.0952,0.3467-0.0991,0.5049-0.0098C17.9023,9.9409,18,10.1074,18,10.2886V23.5C18,23.7764,17.7764,24,17.5,24z M12,23h5
		V11.1807l-5,3.0605V23z"/>
	<path d="M23.5,24h-6c-0.2764,0-0.5-0.2236-0.5-0.5v-9.5391c0-0.1738,0.0908-0.3359,0.2393-0.4268l6-3.6719
		c0.1543-0.0952,0.3467-0.0991,0.5049-0.0098C23.9023,9.9409,24,10.1074,24,10.2886V23.5C24,23.7764,23.7764,24,23.5,24z M18,23h5
		V11.1807l-5,3.0605V23z"/>
	<path d="M8.5068,17.1348c-0.2764,0-0.5-0.2236-0.5-0.5v-1.2568c0-0.2764,0.2236-0.5,0.5-0.5s0.5,0.2236,0.5,0.5v1.2568
		C9.0068,16.9111,8.7832,17.1348,8.5068,17.1348z"/>
	<path d="M14.5078,17.1348c-0.2764,0-0.5-0.2236-0.5-0.5v-1.2568c0-0.2764,0.2236-0.5,0.5-0.5s0.5,0.2236,0.5,0.5v1.2568
		C15.0078,16.9111,14.7842,17.1348,14.5078,17.1348z"/>
	<path d="M20.5078,17.1348c-0.2764,0-0.5-0.2236-0.5-0.5v-1.2568c0-0.2764,0.2236-0.5,0.5-0.5s0.5,0.2236,0.5,0.5v1.2568
		C21.0078,16.9111,20.7842,17.1348,20.5078,17.1348z"/>
</g>
<rect fill="none" width="24" height="24"/>
</svg>
