<?xml version="1.0" encoding="utf-8"?>
<!-- Generator: Adobe Illustrator 18.1.0, SVG Export Plug-In . SVG Version: 6.00 Build 0)  -->
<svg version="1.1" id="Layer_1" xmlns="http://www.w3.org/2000/svg" xmlns:xlink="http://www.w3.org/1999/xlink" x="0px" y="0px"
	 width="24px" height="24px" viewBox="0 0 24 24" enable-background="new 0 0 24 24" xml:space="preserve">
<g>
	<path d="M19.5029,20.2881c-0.0928,0-0.1855-0.0254-0.2666-0.0771c-0.3818-0.2412-3.7295-2.418-3.6953-4.584
		c0.0107-0.6738,0.3281-1.2549,0.9473-1.7314c-0.5566-1.0439-1.791-3.6611-0.9941-5.0542c0.1758-0.3076,0.5088-0.6611,1.1338-0.8096
		c-0.3232-1.3198-0.6504-4.4971,2.542-7.3481c0.1895-0.1689,0.4766-0.1689,0.666,0c3.1924,2.8511,2.8652,6.0278,2.542,7.3477
		c0.625,0.1489,0.958,0.5024,1.1348,0.8105c0.7959,1.3931-0.4375,4.0107-0.9951,5.0547c0.6182,0.4766,0.9365,1.0566,0.9473,1.7314
		c0.0342,2.165-3.3135,4.3418-3.6953,4.583C19.6885,20.2627,19.5957,20.2881,19.5029,20.2881z M19.5029,1.7417
		c-3.1738,3.1323-1.7773,6.4849-1.7627,6.5195c0.0664,0.1548,0.0518,0.3325-0.041,0.4731C17.6074,8.875,17.4502,8.96,17.2822,8.96
		c-0.7041,0.001-0.8672,0.2847-0.9199,0.3779c-0.5039,0.8818,0.4795,3.2051,1.2178,4.4629
		c0.1396,0.2373,0.0596,0.5439-0.1777,0.6836c-0.5732,0.3369-0.8545,0.7158-0.8613,1.1582
		c-0.0205,1.2451,1.9326,2.8418,2.9619,3.5469c1.0293-0.7051,2.9824-2.3018,2.9619-3.5469
		c-0.0068-0.4414-0.2881-0.8203-0.8613-1.1572c-0.2373-0.1396-0.3164-0.4453-0.1777-0.6836
		c0.7383-1.2588,1.7217-3.584,1.2178-4.4639c-0.0527-0.0933-0.2148-0.377-0.9199-0.3779c-0.167,0-0.3232-0.0854-0.416-0.2251
		c-0.0918-0.1396-0.1084-0.3174-0.043-0.4717C21.3252,8.1206,22.6602,4.8516,19.5029,1.7417z"/>
	<path d="M19.5029,23.9795c-0.2764,0-0.5-0.2236-0.5-0.5v-3.6914c0-0.2764,0.2236-0.5,0.5-0.5s0.5,0.2236,0.5,0.5v3.6914
		C20.0029,23.7559,19.7793,23.9795,19.5029,23.9795z"/>
	<path d="M19.5029,16.9395c-0.2764,0-0.5-0.2236-0.5-0.5V9.5161c0-0.2764,0.2236-0.5,0.5-0.5s0.5,0.2236,0.5,0.5v6.9233
		C20.0029,16.7158,19.7793,16.9395,19.5029,16.9395z"/>
	<path d="M13.376,24H0.5679c-0.2764,0-0.5-0.2236-0.5-0.5c0-3.123,1.9497-5.8379,3.96-7.0264V15.5c0-0.2754-0.2197-0.5-0.4902-0.5
		c-0.2764,0-0.5-0.2236-0.5-0.5v-3c0-0.2764,0.2236-0.5,0.5-0.5h6.8691c0.2764,0,0.5,0.2236,0.5,0.5v3c0,0.2764-0.2236,0.5-0.5,0.5
		c-0.2705,0-0.4902,0.2246-0.4902,0.5v0.9736c2.0098,1.1885,3.9595,3.9033,3.9595,7.0264C13.876,23.7764,13.6523,24,13.376,24z
		 M1.0874,23h11.769c-0.2051-2.627-1.9878-4.9111-3.6714-5.7891c-0.165-0.0859-0.2686-0.2568-0.2686-0.4434V15.5
		c0-0.6504,0.4136-1.2061,0.9902-1.4131V12H4.0376v2.0869c0.5767,0.207,0.9902,0.7627,0.9902,1.4131v1.2676
		c0,0.1865-0.1035,0.3574-0.2686,0.4434C3.0757,18.0889,1.2925,20.373,1.0874,23z"/>
</g>
<rect fill="none" width="24" height="24"/>
</svg>
