<?xml version="1.0" encoding="utf-8"?>
<!-- Generator: Adobe Illustrator 18.1.0, SVG Export Plug-In . SVG Version: 6.00 Build 0)  -->
<svg version="1.1" id="Layer_1" xmlns="http://www.w3.org/2000/svg" xmlns:xlink="http://www.w3.org/1999/xlink" x="0px" y="0px"
	 width="24px" height="24px" viewBox="0 0 24 24" enable-background="new 0 0 24 24" xml:space="preserve">
<g>
	<path d="M17.9092,20.7812c-2.7822,0-5.0459-2.2637-5.0459-5.0459s2.2637-5.0449,5.0459-5.0449s5.0449,2.2627,5.0449,5.0449
		S20.6914,20.7812,17.9092,20.7812z M17.9092,11.6904c-2.2305,0-4.0459,1.8145-4.0459,4.0449s1.8154,4.0459,4.0459,4.0459
		s4.0449-1.8154,4.0449-4.0459S20.1396,11.6904,17.9092,11.6904z"/>
	<path d="M18.5088,24.042H3.5215c-0.2764,0-0.5-0.2236-0.5-0.5V5.5542c0-0.2764,0.2236-0.5,0.5-0.5h14.9873
		c0.2764,0,0.5,0.2236,0.5,0.5v3.8076c0,0.2764-0.2236,0.5-0.5,0.5s-0.5-0.2236-0.5-0.5V6.0542H4.0215V23.042h13.9873v-1.1357
		c0-0.2764,0.2236-0.5,0.5-0.5s0.5,0.2236,0.5,0.5v1.6357C19.0088,23.8184,18.7852,24.042,18.5088,24.042z"/>
	<path d="M14.4814,8.0229c-0.2764,0-0.5-0.2236-0.5-0.5V4.189c0-1.7285-1.333-3.189-2.9106-3.189
		C9.3965,1,7.9814,2.4902,7.9814,4.189v3.334c0,0.2764-0.2236,0.5-0.5,0.5s-0.5-0.2236-0.5-0.5V4.189
		C6.9814,1.9185,8.8262,0,11.0093,0c2.2183,0,3.9722,1.8794,3.9722,4.189v3.334C14.9814,7.7993,14.7578,8.0229,14.4814,8.0229z"/>
	<path d="M18.0664,18.292c-0.415,0-0.876-0.0967-1.2539-0.2744c-0.249-0.1182-0.3564-0.416-0.2383-0.666s0.418-0.3545,0.666-0.2383
		c0.3359,0.1602,0.833,0.2256,1.1084,0.1475c0.1914-0.0537,0.3506-0.166,0.4482-0.3154c0.0488-0.0742,0.123-0.2256,0.0742-0.3975
		c-0.0215-0.0771-0.0869-0.3105-0.958-0.3193c-0.4941-0.0146-1.6299-0.0469-1.9111-1.0469
		c-0.1152-0.4102-0.0439-0.8418,0.2002-1.2158c0.2305-0.3525,0.5908-0.6123,1.0156-0.7314
		c0.5732-0.1641,1.1865-0.0352,1.6055,0.3301c0.208,0.1807,0.2305,0.4971,0.0488,0.7051c-0.1807,0.208-0.4961,0.2324-0.7051,0.0488
		c-0.168-0.1455-0.4258-0.1924-0.6787-0.1211c-0.1914,0.0537-0.3516,0.166-0.4492,0.3154c-0.0488,0.0742-0.123,0.2256-0.0742,0.3975
		c0.041,0.1455,0.1875,0.2959,0.9678,0.3184c0.3916,0.0039,1.6113,0.0166,1.9014,1.0479c0.1152,0.4102,0.0439,0.8418-0.2002,1.2158
		c-0.2295,0.3525-0.5898,0.6123-1.0137,0.7314C18.4561,18.2695,18.2666,18.292,18.0664,18.292z"/>
	<path d="M17.3516,14.2158c-0.2188,0-0.4199-0.1445-0.4814-0.3652l-0.1543-0.5508c-0.0742-0.2656,0.0811-0.542,0.3467-0.6162
		c0.2656-0.0781,0.542,0.082,0.6162,0.3467l0.1543,0.5508c0.0742,0.2656-0.0811,0.542-0.3467,0.6162
		C17.4414,14.21,17.3955,14.2158,17.3516,14.2158z"/>
	<path d="M18.6387,18.793c-0.2188,0-0.4199-0.1445-0.4814-0.3652l-0.1543-0.5508c-0.0742-0.2656,0.0811-0.542,0.3467-0.6162
		c0.2656-0.0781,0.542,0.082,0.6162,0.3467l0.1543,0.5508c0.0742,0.2656-0.0811,0.542-0.3467,0.6162
		C18.7285,18.7871,18.6826,18.793,18.6387,18.793z"/>
</g>
<rect x="-0.0136" fill="none" width="24" height="24"/>
</svg>
