<?xml version="1.0" encoding="utf-8"?>
<!-- Generator: Adobe Illustrator 18.1.0, SVG Export Plug-In . SVG Version: 6.00 Build 0)  -->
<svg version="1.1" id="Layer_1" xmlns="http://www.w3.org/2000/svg" xmlns:xlink="http://www.w3.org/1999/xlink" x="0px" y="0px"
	 width="24px" height="24px" viewBox="0 0 24 24" enable-background="new 0 0 24 24" xml:space="preserve">
<g>
	<path d="M7.4746,24.0107H4.4341c-0.2764,0-0.5-0.2236-0.5-0.5V6.5195c0-0.2764,0.2236-0.5,0.5-0.5h3.0405
		c0.2764,0,0.5,0.2236,0.5,0.5v16.9912C7.9746,23.7871,7.751,24.0107,7.4746,24.0107z M4.9341,23.0107h2.0405V7.0195H4.9341V23.0107
		z"/>
	<path d="M19.5127,24.0107h-3.04c-0.2764,0-0.5-0.2236-0.5-0.5V6.5195c0-0.2764,0.2236-0.5,0.5-0.5h3.04
		c0.2764,0,0.5,0.2236,0.5,0.5v16.9912C20.0127,23.7871,19.7891,24.0107,19.5127,24.0107z M16.9727,23.0107h2.04V7.0195h-2.04
		V23.0107z"/>
	<path d="M21.3857,24.0098H2.561c-1.4487,0-2.6274-1.1787-2.6274-2.627V8.6348c0-1.4487,1.1787-2.6274,2.6274-2.6274h18.8247
		c1.4482,0,2.627,1.1787,2.627,2.6274v12.748C24.0127,22.8311,22.834,24.0098,21.3857,24.0098z M2.561,7.0073
		c-0.8975,0-1.6274,0.73-1.6274,1.6274v12.748c0,0.8975,0.73,1.627,1.6274,1.627h18.8247c0.8975,0,1.627-0.7295,1.627-1.627V8.6348
		c0-0.8975-0.7295-1.6274-1.627-1.6274H2.561z"/>
	<path d="M15.501,5.0073c-0.2764,0-0.5-0.2236-0.5-0.5V4.1353c0-0.6543-0.5762-1.187-1.2852-1.187H10.231
		c-0.7085,0-1.2847,0.5327-1.2847,1.187v0.3721c0,0.2764-0.2236,0.5-0.5,0.5s-0.5-0.2236-0.5-0.5V4.1353
		c0-1.2061,1.0249-2.187,2.2847-2.187h3.4849c1.2598,0,2.2852,0.981,2.2852,2.187v0.3721
		C16.001,4.7837,15.7773,5.0073,15.501,5.0073z"/>
</g>
<rect x="-0.0137" fill="none" width="24" height="24"/>
</svg>
