<?xml version="1.0" encoding="utf-8"?>
<!-- Generator: Adobe Illustrator 18.1.0, SVG Export Plug-In . SVG Version: 6.00 Build 0)  -->
<svg version="1.1" id="Layer_1" xmlns="http://www.w3.org/2000/svg" xmlns:xlink="http://www.w3.org/1999/xlink" x="0px" y="0px"
	 width="24px" height="24px" viewBox="0 0 24 24" enable-background="new 0 0 24 24" xml:space="preserve">
<g>
	<path d="M21.1211,24H2.8789C1.2915,24,0,22.709,0,21.1211V2.8784C0,1.291,1.2915,0,2.8789,0h18.2422C22.709,0,24,1.291,24,2.8784
		v18.2427C24,22.709,22.709,24,21.1211,24z M2.8789,1C1.8428,1,1,1.8428,1,2.8784v18.2427C1,22.1572,1.8428,23,2.8789,23h18.2422
		C22.1572,23,23,22.1572,23,21.1211V2.8784C23,1.8428,22.1572,1,21.1211,1H2.8789z"/>
	<path d="M23.5,7h-23C0.2236,7,0,6.7764,0,6.5S0.2236,6,0.5,6h23C23.7764,6,24,6.2236,24,6.5S23.7764,7,23.5,7z"/>
	<path d="M7.5098,4.0898c-0.1401,0-0.27-0.0601-0.3599-0.1499C7.0601,3.8496,7.0098,3.7197,7.0098,3.5898S7.0601,3.3296,7.1499,3.23
		c0.1797-0.1802,0.52-0.1899,0.71,0c0.0898,0.0996,0.1499,0.23,0.1499,0.3599S7.9497,3.8496,7.8599,3.9399
		C7.7598,4.04,7.6396,4.0898,7.5098,4.0898z"/>
	<path d="M16.5098,4.0898c-0.1396,0-0.2695-0.0601-0.3604-0.1499c-0.0898-0.0903-0.1396-0.2202-0.1396-0.3501
		s0.0498-0.2603,0.1396-0.3599c0.1904-0.1802,0.5205-0.1802,0.71,0c0.1006,0.0996,0.1504,0.23,0.1504,0.3599
		s-0.0498,0.25-0.1504,0.3501C16.7695,4.04,16.6396,4.0898,16.5098,4.0898z"/>
	<path d="M16.5078,19.9229c-0.2764,0-0.5-0.2236-0.5-0.5v-8.1973l-1.3955,0.5151c-0.2568,0.0957-0.5469-0.0371-0.6416-0.2959
		c-0.0957-0.2593,0.0361-0.5469,0.2959-0.6426l2.0684-0.7637c0.1504-0.0566,0.3242-0.0352,0.459,0.0591
		c0.1338,0.0933,0.2139,0.2466,0.2139,0.4102v8.915C17.0078,19.6992,16.7842,19.9229,16.5078,19.9229z"/>
	<path d="M9.4531,20.0352c-1.4609,0-2.9717-0.7236-3.5425-1.7783c-0.1318-0.2432-0.0415-0.5469,0.2012-0.6777
		c0.2432-0.1309,0.5469-0.042,0.6777,0.2012c0.458,0.8447,2.0293,1.4287,3.2358,1.2031c0.6074-0.1143,1.3594-0.4746,1.4932-1.5439
		c0.0781-0.627-0.0459-1.1025-0.3794-1.4521c-0.6704-0.7021-2.0713-0.7529-2.5581-0.7207c-0.208,0.0127-0.3892-0.0889-0.4819-0.2656
		c-0.0928-0.1777-0.0713-0.3936,0.0552-0.5479l2.8076-3.4453H6.6704c-0.2764,0-0.5-0.2236-0.5-0.5s0.2236-0.5,0.5-0.5h5.3442
		c0.1934,0,0.3691,0.1113,0.4512,0.2856c0.083,0.1743,0.0586,0.3809-0.0635,0.5303l-2.8369,3.481
		c0.7261,0.0869,1.667,0.332,2.2969,0.9922c0.5469,0.5732,0.7646,1.335,0.6484,2.2666c-0.1602,1.2822-0.9985,2.1582-2.3003,2.4023
		C9.9634,20.0127,9.7085,20.0352,9.4531,20.0352z"/>
</g>
<rect fill="none" width="24" height="24"/>
</svg>
