<?xml version="1.0" encoding="utf-8"?>
<!-- Generator: Adobe Illustrator 18.1.0, SVG Export Plug-In . SVG Version: 6.00 Build 0)  -->
<svg version="1.1" id="Layer_1" xmlns="http://www.w3.org/2000/svg" xmlns:xlink="http://www.w3.org/1999/xlink" x="0px" y="0px"
	 width="24px" height="24px" viewBox="0 0 24 24" enable-background="new 0 0 24 24" xml:space="preserve">
<g>
	<path d="M16.5146,17.0342H7.5142c-0.2764,0-0.5-0.2236-0.5-0.5V4.9634c0-2.6182,2.2432-4.748,5.0005-4.748
		c2.7568,0,5,2.1299,5,4.7476v11.5713C17.0146,16.8105,16.791,17.0342,16.5146,17.0342z M8.0142,16.0342h8.0005V4.9629
		c0-2.0312-1.832-3.7476-4-3.7476c-2.1685,0-4.0005,1.7163-4.0005,3.748V16.0342z"/>
	<path d="M9.5142,14.9971c-0.2764,0-0.5-0.2236-0.5-0.5V7.5186c0-0.2764,0.2236-0.5,0.5-0.5s0.5,0.2236,0.5,0.5v6.9785
		C10.0142,14.7734,9.7905,14.9971,9.5142,14.9971z"/>
	<path d="M11.5142,14.9971c-0.2764,0-0.5-0.2236-0.5-0.5v-1.9785c0-0.2764,0.2236-0.5,0.5-0.5s0.4995,0.2236,0.4995,0.5v1.9785
		C12.0137,14.7734,11.7905,14.9971,11.5142,14.9971z"/>
	<path d="M11.9976,23.8672c-1.1099,0-2.0127-0.8555-2.0127-1.9072v-3.4316c0-0.2764,0.2236-0.5,0.5-0.5s0.5,0.2236,0.5,0.5V21.96
		c0,0.5,0.4541,0.9072,1.0127,0.9072c0.5591,0,1.0132-0.4072,1.0132-0.9072v-3.4316c0-0.2764,0.2236-0.5,0.5-0.5s0.5,0.2236,0.5,0.5
		V21.96C14.0107,23.0117,13.1074,23.8672,11.9976,23.8672z"/>
</g>
<rect x="0.0142" y="0.0346" fill="none" width="24" height="24"/>
</svg>
