<?xml version="1.0" encoding="utf-8"?>
<!-- Generator: Adobe Illustrator 18.1.0, SVG Export Plug-In . SVG Version: 6.00 Build 0)  -->
<svg version="1.1" id="Layer_1" xmlns="http://www.w3.org/2000/svg" xmlns:xlink="http://www.w3.org/1999/xlink" x="0px" y="0px"
	 width="24px" height="24px" viewBox="0 0 24 24" enable-background="new 0 0 24 24" xml:space="preserve">
<g>
	<path d="M11.999,14.9404c-4.1016,0-7.7246-0.8701-9.4556-2.2705c-0.2148-0.1738-0.248-0.4883-0.0742-0.7031
		c0.1738-0.2139,0.4883-0.248,0.7031-0.0742c1.5376,1.2441,5.0024,2.0479,8.8267,2.0479s7.2891-0.8037,8.8271-2.0479
		c0.2148-0.1733,0.5303-0.1406,0.7031,0.0742c0.1738,0.2148,0.1406,0.5293-0.0742,0.7031
		C19.7236,14.0703,16.1006,14.9404,11.999,14.9404z"/>
	<path d="M5.7725,23.9062c-0.1489,0-0.2964-0.0664-0.395-0.1924c-0.1694-0.2178-0.1309-0.5322,0.0869-0.7021l12.4546-9.708
		c0.2178-0.1699,0.5322-0.1309,0.7021,0.0869s0.1309,0.5322-0.0869,0.7021l-12.4546,9.708
		C5.9883,23.8721,5.8799,23.9062,5.7725,23.9062z"/>
	<path d="M18.2266,23.9062c-0.1074,0-0.2158-0.0342-0.3076-0.1055l-12.4546-9.708c-0.2178-0.1699-0.2563-0.4844-0.0869-0.7021
		s0.4834-0.2578,0.7021-0.0869l12.4546,9.708c0.2178,0.1699,0.2568,0.4844,0.0869,0.7021
		C18.5225,23.8398,18.375,23.9062,18.2266,23.9062z"/>
	<path d="M17.4072,12.3389c-0.0059,0-0.0117,0-0.0186,0c-0.2754-0.0107-0.4912-0.2422-0.4814-0.5186l0.3164-8.5894
		c0.0215-0.5723-0.1865-1.1147-0.584-1.5269c-0.3975-0.4126-0.9316-0.6396-1.5039-0.6396H8.8535
		c-0.5728,0-1.1074,0.2271-1.5049,0.6396C6.9512,2.1162,6.7441,2.6587,6.7651,3.231l0.3159,8.5894
		c0.0103,0.2764-0.2051,0.5078-0.481,0.5186c-0.2651,0.002-0.5078-0.2051-0.5181-0.4814L5.7661,3.2681
		C5.7349,2.4219,6.041,1.6196,6.6289,1.0103c0.5874-0.6099,1.3774-0.9458,2.2246-0.9458h6.2822
		c0.8467,0,1.6367,0.3359,2.2236,0.9453c0.5879,0.6099,0.8945,1.4116,0.8643,2.2578l-0.3164,8.5898
		C17.8965,12.127,17.6748,12.3389,17.4072,12.3389z"/>
</g>
<rect x="-0.0008" y="-0.0147" fill="none" width="24" height="24"/>
</svg>
