<?xml version="1.0" encoding="utf-8"?>
<!-- Generator: Adobe Illustrator 18.1.0, SVG Export Plug-In . SVG Version: 6.00 Build 0)  -->
<svg version="1.1" id="Layer_1" xmlns="http://www.w3.org/2000/svg" xmlns:xlink="http://www.w3.org/1999/xlink" x="0px" y="0px"
	 width="24px" height="24px" viewBox="0 0 24 24" enable-background="new 0 0 24 24" xml:space="preserve">
<g>
	<path d="M20.4229,10.541c-0.082,0-0.1641-0.0195-0.2402-0.0615c-0.2422-0.1328-0.3311-0.437-0.1982-0.6787
		c1.1211-2.0435,0.7754-4.4331-0.8789-6.0879c-1.6553-1.6558-4.0449-2-6.0889-0.8799c-0.2402,0.1313-0.5449,0.0454-0.6787-0.1982
		c-0.1328-0.2417-0.0439-0.5459,0.1982-0.6787c2.4434-1.3394,5.2988-0.9287,7.2764,1.0498
		c1.9766,1.9766,2.3887,4.8325,1.0488,7.2754C20.7705,10.4473,20.5986,10.541,20.4229,10.541z"/>
	<path d="M20.4414,10.5601c-0.0615,0-0.123-0.0112-0.1807-0.0342c-0.124-0.0479-0.2236-0.1431-0.2773-0.2642l-1.1943-2.7129
		c-0.1113-0.2529,0.0039-0.5479,0.2568-0.6592c0.2529-0.1104,0.5469,0.0039,0.6592,0.2559l0.9922,2.2554l2.2568-0.9932
		c0.2529-0.1094,0.5479,0.0039,0.6592,0.2559c0.1113,0.2529-0.0039,0.5479-0.2568,0.6592l-2.7139,1.1948
		C20.5791,10.5459,20.5098,10.5601,20.4414,10.5601z"/>
	<path d="M8.4336,22.4121c-1.5659,0-3.0972-0.624-4.3027-1.8291c-1.9766-1.9775-2.3882-4.833-1.0483-7.2754
		c0.1328-0.2422,0.436-0.332,0.6787-0.1982c0.2422,0.1328,0.3311,0.4365,0.1982,0.6787c-1.1206,2.0439-0.7759,4.4326,0.8784,6.0879
		c1.6558,1.6543,4.0454,2,6.0894,0.8799c0.2417-0.1328,0.5464-0.0439,0.6787,0.1982c0.1328,0.2422,0.0439,0.5459-0.1982,0.6787
		C10.4541,22.1562,9.4365,22.4121,8.4336,22.4121z"/>
	<path d="M4.6973,16.7412c-0.1924,0-0.3755-0.1113-0.458-0.2988l-0.9937-2.2549l-2.2554,0.9941
		c-0.2529,0.1094-0.5479-0.0039-0.6592-0.2568c-0.1113-0.252,0.0034-0.5479,0.2559-0.6592l2.7129-1.1953
		c0.2539-0.1094,0.5479,0.0039,0.6592,0.2568L5.1543,16.04c0.1113,0.252-0.0034,0.5479-0.2559,0.6592
		C4.833,16.7275,4.7642,16.7412,4.6973,16.7412z"/>
	<path d="M6.3374,12.126c-3.2173,0-5.835-2.6182-5.835-5.8359c0-3.2173,2.6177-5.835,5.835-5.835
		c3.2178,0,5.8354,2.6177,5.8354,5.835C12.1729,9.5078,9.5552,12.126,6.3374,12.126z M6.3374,1.4551
		c-2.666,0-4.835,2.1689-4.835,4.835c0,2.6665,2.1689,4.8354,4.835,4.8354c2.6665,0,4.8354-2.1689,4.8354-4.8354
		C11.1729,3.624,9.0039,1.4551,6.3374,1.4551z"/>
	<path d="M17.9072,23.3145c-3.2178,0-5.8359-2.6172-5.8359-5.835s2.6182-5.835,5.8359-5.835s5.835,2.6172,5.835,5.835
		S21.125,23.3145,17.9072,23.3145z M17.9072,12.6445c-2.667,0-4.8359,2.1689-4.8359,4.835s2.1689,4.835,4.8359,4.835
		c2.666,0,4.835-2.1689,4.835-4.835S20.5732,12.6445,17.9072,12.6445z"/>
	<path d="M6.3809,9.3574c-0.6196,0-1.439-0.3359-1.9922-0.8164C4.1802,8.3599,4.1582,8.0439,4.3394,7.8354
		c0.1816-0.2095,0.498-0.23,0.7056-0.0493C5.4131,8.1064,6,8.3574,6.3809,8.3574c0.5337,0,0.9683-0.3516,0.9683-0.7837
		c0-0.1313,0-0.4795-1.1084-0.8037C5.6875,6.5967,4.4131,6.1973,4.4131,5.0063c0-0.9834,0.8828-1.7837,1.9683-1.7837
		c0.6914,0,1.3403,0.3345,1.6934,0.8735c0.1514,0.231,0.0869,0.541-0.144,0.6919C7.6992,4.9409,7.3901,4.8745,7.2388,4.644
		c-0.1704-0.2598-0.499-0.4214-0.8574-0.4214c-0.5337,0-0.9683,0.3516-0.9683,0.7837c0,0.2368,0.1353,0.4985,1.1177,0.8066
		c0.4429,0.1294,1.8184,0.5317,1.8184,1.7607C8.3491,8.5571,7.4663,9.3574,6.3809,9.3574z"/>
	<path d="M6.3813,4.2227c-0.2764,0-0.5-0.2236-0.5-0.5V3.0215c0-0.2764,0.2236-0.5,0.5-0.5s0.5,0.2236,0.5,0.5v0.7012
		C6.8813,3.999,6.6577,4.2227,6.3813,4.2227z"/>
	<path d="M6.3813,10.0586c-0.2764,0-0.5-0.2236-0.5-0.5V8.8574c0-0.2764,0.2236-0.5,0.5-0.5s0.5,0.2236,0.5,0.5v0.7012
		C6.8813,9.835,6.6577,10.0586,6.3813,10.0586z"/>
	<path d="M18.4873,17.3164h-3.1729c-0.2764,0-0.5-0.2236-0.5-0.5s0.2236-0.5,0.5-0.5h3.1729c0.2764,0,0.5,0.2236,0.5,0.5
		S18.7637,17.3164,18.4873,17.3164z"/>
	<path d="M18.4873,18.7393h-3.1729c-0.2764,0-0.5-0.2236-0.5-0.5s0.2236-0.5,0.5-0.5h3.1729c0.2764,0,0.5,0.2236,0.5,0.5
		S18.7637,18.7393,18.4873,18.7393z"/>
	<path d="M18.1924,20.9092c-1.4658,0-2.6582-1.4961-2.6582-3.335s1.1924-3.335,2.6582-3.335c0.8486,0,1.625,0.4863,2.1309,1.335
		c0.1416,0.2373,0.0635,0.5439-0.1738,0.6855c-0.2354,0.1396-0.543,0.0645-0.6855-0.1738
		c-0.3203-0.5381-0.7842-0.8467-1.2715-0.8467c-0.8984,0-1.6582,1.0693-1.6582,2.335s0.7598,2.335,1.6582,2.335
		c0.5078,0,0.999-0.3447,1.3154-0.9229c0.1328-0.2441,0.4375-0.333,0.6777-0.1992c0.2432,0.1318,0.332,0.4355,0.1992,0.6777
		C19.8916,20.3691,19.0713,20.9092,18.1924,20.9092z"/>
</g>
<rect x="-0.0227" fill="none" width="24" height="24"/>
</svg>
