<?xml version="1.0" encoding="utf-8"?>
<!-- Generator: Adobe Illustrator 18.1.0, SVG Export Plug-In . SVG Version: 6.00 Build 0)  -->
<svg version="1.1" id="Layer_1" xmlns="http://www.w3.org/2000/svg" xmlns:xlink="http://www.w3.org/1999/xlink" x="0px" y="0px"
	 width="24px" height="24px" viewBox="0 0 24 24" enable-background="new 0 0 24 24" xml:space="preserve">
<g>
	<path d="M22.1211,16.0342h-5.1064c-0.2764,0-0.5-0.2236-0.5-0.5s0.2236-0.5,0.5-0.5h5.1064c0.4756,0,0.8936-0.4531,0.8936-0.9688
		V6.0342h-7.8311c-4.1685,0-7.916,1.3696-10.5522,3.8569c-1.5952,1.5044-2.79,2.7837-3.3354,5.1431h5.7183
		c0.2764,0,0.5,0.2236,0.5,0.5s-0.2236,0.5-0.5,0.5H0.6851c-0.1475,0-0.2876-0.0654-0.3828-0.1777
		c-0.0947-0.1133-0.1353-0.2627-0.1099-0.4082c0.5693-3.2822,2.2607-4.8774,3.7524-6.2847
		c2.8228-2.6631,6.814-4.1294,11.2388-4.1294h8.3311c0.2764,0,0.5,0.2236,0.5,0.5v8.5312
		C24.0146,15.1328,23.1475,16.0342,22.1211,16.0342z"/>
	<path d="M23.5146,6.0342c-0.2764,0-0.5-0.2236-0.5-0.5V2.9653c0-0.5049-0.4092-0.9312-0.8936-0.9312H10.0142
		c-0.2764,0-0.5-0.2236-0.5-0.5s0.2236-0.5,0.5-0.5h12.1069c1.0439,0,1.8936,0.8662,1.8936,1.9312v2.5688
		C24.0146,5.8105,23.791,6.0342,23.5146,6.0342z"/>
	<path d="M16.8604,20.9316c-0.1279,0-0.2559-0.0488-0.3535-0.1465l-9.7939-9.7944c-0.1953-0.1953-0.1953-0.5117,0-0.707
		s0.5117-0.1953,0.707,0l9.7939,9.7944c0.1953,0.1953,0.1953,0.5117,0,0.707C17.1162,20.8828,16.9883,20.9316,16.8604,20.9316z"/>
	<path d="M7.0664,20.9316c-0.1279,0-0.2559-0.0488-0.3535-0.1465c-0.1953-0.1953-0.1953-0.5117,0-0.707l9.7939-9.7944
		c0.1953-0.1953,0.5117-0.1953,0.707,0s0.1953,0.5117,0,0.707l-9.7939,9.7944C7.3223,20.8828,7.1943,20.9316,7.0664,20.9316z"/>
</g>
<rect x="0.0142" y="0.0344" fill="none" width="24" height="24"/>
</svg>
