<?xml version="1.0" encoding="utf-8"?>
<!-- Generator: Adobe Illustrator 18.1.0, SVG Export Plug-In . SVG Version: 6.00 Build 0)  -->
<svg version="1.1" id="Layer_1" xmlns="http://www.w3.org/2000/svg" xmlns:xlink="http://www.w3.org/1999/xlink" x="0px" y="0px"
	 width="24px" height="24px" viewBox="0 0 24 24" enable-background="new 0 0 24 24" xml:space="preserve">
<g>
	<path d="M22.5264,21.9746h-3.5596c-0.2764,0-0.5-0.2236-0.5-0.5s0.2236-0.5,0.5-0.5h3.5596c0.2451,0,0.4453-0.2021,0.4453-0.4502
		V3.5054c0-0.2485-0.2002-0.4507-0.4453-0.4507H6.4424c-0.1968,0-0.3755-0.1157-0.4561-0.2949
		C5.6318,1.9722,5.1548,1.1846,4.9341,1.0146H1.4365c-0.2456,0-0.4453,0.2021-0.4453,0.4507v19.0591
		c0,0.248,0.1997,0.4502,0.4453,0.4502H4.916c0.2764,0,0.5,0.2236,0.5,0.5s-0.2236,0.5-0.5,0.5H1.4365
		c-0.7969,0-1.4453-0.6504-1.4453-1.4502V1.4653c0-0.7998,0.6484-1.4507,1.4453-1.4507h3.5679c0.1997,0,0.7891,0,1.7578,2.04
		h15.7642c0.7969,0,1.4453,0.6509,1.4453,1.4507v17.019C23.9717,21.3242,23.3232,21.9746,22.5264,21.9746z"/>
	<path d="M23.4717,7.0254H0.4912c-0.2764,0-0.5-0.2236-0.5-0.5s0.2236-0.5,0.5-0.5h22.9805c0.2764,0,0.5,0.2236,0.5,0.5
		S23.748,7.0254,23.4717,7.0254z"/>
	<path d="M12,19.96c-1.2432,0-2.2549-1.0117-2.2549-2.2549S10.7568,15.4502,12,15.4502s2.2549,1.0117,2.2549,2.2549
		S13.2432,19.96,12,19.96z M12,16.4502c-0.6919,0-1.2549,0.5625-1.2549,1.2549S11.3081,18.96,12,18.96
		c0.6924,0,1.2549-0.5625,1.2549-1.2549S12.6924,16.4502,12,16.4502z"/>
	<path d="M10.5552,23.873c-0.041,0-0.0825-0.0049-0.124-0.0156C9.855,23.71,9.3242,23.4932,8.8086,23.1943
		c-0.1948-0.1133-0.29-0.3428-0.2324-0.5605l0.3237-1.2256c-0.207-0.1729-0.3994-0.3633-0.5747-0.5693l-1.2236,0.334
		c-0.2207,0.0576-0.4478-0.0352-0.562-0.2275c-0.2939-0.4951-0.5288-1.0547-0.6782-1.6152
		c-0.0576-0.2178,0.0371-0.4482,0.2319-0.5615l1.0962-0.6367c-0.0239-0.2705-0.0254-0.541-0.0039-0.8115l-1.1011-0.6279
		c-0.1953-0.1123-0.2925-0.3408-0.2363-0.5586c0.146-0.5684,0.3696-1.1143,0.6641-1.6221c0.1133-0.1953,0.3433-0.292,0.5605-0.2324
		l1.2256,0.3242c0.1738-0.208,0.3643-0.4004,0.5708-0.5752l-0.3345-1.2236c-0.0591-0.2178,0.0342-0.4473,0.228-0.5625
		c0.499-0.2949,1.0581-0.5288,1.6167-0.6768c0.2168-0.0576,0.4473,0.0371,0.5601,0.2319l0.6382,1.0972
		c0.2686-0.0244,0.5386-0.0254,0.8091-0.0029l0.6279-1.1016c0.1113-0.1953,0.335-0.2944,0.5596-0.2363
		c0.585,0.1509,1.1006,0.3623,1.6211,0.665c0.1953,0.1133,0.29,0.3428,0.2324,0.5605l-0.3242,1.2256
		c0.207,0.1729,0.3984,0.3633,0.5732,0.5693l1.2236-0.335c0.2178-0.0586,0.4482,0.0342,0.5625,0.2275
		c0.2988,0.5059,0.5264,1.0498,0.6768,1.6182c0.0576,0.2178-0.0371,0.4463-0.2314,0.5596l-1.0977,0.6396
		c0.0244,0.2686,0.0254,0.5381,0.0039,0.8057l1.1016,0.6279c0.1953,0.1123,0.292,0.3408,0.2363,0.5596
		c-0.1484,0.5762-0.3662,1.1064-0.665,1.6221c-0.1133,0.1953-0.3398,0.2871-0.5605,0.2324l-1.2246-0.3242
		c-0.1729,0.2061-0.3633,0.3975-0.5684,0.5723l0.335,1.2236c0.0596,0.2168-0.0342,0.4473-0.2275,0.5615
		c-0.5039,0.2998-1.0488,0.5273-1.6182,0.6787c-0.2168,0.0547-0.4463-0.0371-0.5605-0.2324l-0.6367-1.0957
		c-0.2676,0.0234-0.5371,0.0264-0.8081,0.0039l-0.6284,1.1016C10.8989,23.7793,10.7314,23.873,10.5552,23.873z M9.6436,22.5078
		c0.2192,0.1084,0.4409,0.1992,0.6729,0.2754l0.5967-1.0459c0.1025-0.1787,0.3057-0.2754,0.5098-0.2461
		c0.3994,0.0615,0.8008,0.0557,1.1885-0.0059c0.2031-0.0352,0.4082,0.0625,0.5127,0.2422l0.6045,1.04
		c0.2305-0.0781,0.4541-0.1729,0.6709-0.2812l-0.3174-1.1611c-0.0547-0.1992,0.0195-0.4121,0.1865-0.5342
		c0.3223-0.2383,0.6045-0.5215,0.8369-0.8438c0.1211-0.168,0.333-0.2412,0.5332-0.1904l1.1621,0.3076
		c0.1094-0.2197,0.2002-0.4414,0.2764-0.6738l-1.0449-0.5957c-0.1797-0.1025-0.2773-0.3057-0.2461-0.5107
		c0.0596-0.3916,0.0586-0.791-0.0059-1.1875c-0.0322-0.2041,0.0635-0.4072,0.2422-0.5107l1.041-0.6064
		c-0.0781-0.2295-0.1719-0.4541-0.2803-0.6709l-1.1621,0.3174c-0.2002,0.0537-0.4121-0.0195-0.5352-0.1875
		c-0.2363-0.3223-0.5195-0.6035-0.8418-0.8369c-0.168-0.1211-0.2441-0.333-0.1914-0.5332l0.3076-1.1641
		c-0.2188-0.1084-0.4404-0.1992-0.6729-0.2754l-0.5957,1.0449c-0.1025,0.1797-0.3066,0.2793-0.5107,0.2461
		c-0.3984-0.0605-0.7993-0.0566-1.1895,0.0049c-0.208,0.0361-0.4087-0.0625-0.5122-0.2422l-0.6055-1.041
		c-0.2285,0.0791-0.4536,0.1729-0.6704,0.2812l0.3174,1.1611c0.0547,0.2002-0.02,0.4131-0.1875,0.5361
		c-0.3223,0.2344-0.604,0.5186-0.8379,0.8428c-0.1211,0.1689-0.332,0.2422-0.5337,0.1914l-1.1626-0.3076
		C7.0923,15.5645,7,15.7891,6.9238,16.0195l1.0444,0.5957c0.1797,0.1025,0.2773,0.3057,0.2461,0.5098
		c-0.0605,0.3965-0.0586,0.7979,0.0059,1.1924c0.0332,0.2041-0.063,0.4082-0.2422,0.5127l-1.0396,0.6045
		c0.0786,0.2285,0.1729,0.4541,0.2808,0.6699l1.1611-0.3174c0.2017-0.0537,0.4131,0.0205,0.5352,0.1865
		c0.2368,0.3232,0.521,0.6045,0.8442,0.8369c0.168,0.1211,0.2441,0.334,0.1914,0.5342L9.6436,22.5078z"/>
</g>
<rect y="0.0001" fill="none" width="24" height="24"/>
</svg>
