<?xml version="1.0" encoding="utf-8"?>
<!-- Generator: Adobe Illustrator 18.1.0, SVG Export Plug-In . SVG Version: 6.00 Build 0)  -->
<svg version="1.1" id="Layer_1" xmlns="http://www.w3.org/2000/svg" xmlns:xlink="http://www.w3.org/1999/xlink" x="0px" y="0px"
	 width="24px" height="24px" viewBox="0 0 24 24" enable-background="new 0 0 24 24" xml:space="preserve">
<g>
	<path d="M11.9858,23.7842c-6.4868,0-11.7642-5.2773-11.7642-11.7646c0-6.4868,5.2773-11.7642,11.7642-11.7642
		S23.75,5.5327,23.75,12.0195C23.75,18.5068,18.4727,23.7842,11.9858,23.7842z M11.9858,1.2554
		c-5.9355,0-10.7642,4.8286-10.7642,10.7642s4.8286,10.7646,10.7642,10.7646c5.9351,0,10.7642-4.8291,10.7642-10.7646
		S17.9209,1.2554,11.9858,1.2554z"/>
	<path d="M4.0205,20.4844c-0.1279,0-0.2559-0.0488-0.3535-0.1465c-0.1953-0.1953-0.1953-0.5117,0-0.707L19.5967,3.7012
		c0.1953-0.1953,0.5117-0.1953,0.707,0s0.1953,0.5117,0,0.707L4.374,20.3379C4.2764,20.4355,4.1484,20.4844,4.0205,20.4844z"/>
	<path d="M12.2783,19.874c-0.2764,0-0.5-0.2236-0.5-0.5V5.0659c0-0.2764,0.2236-0.5,0.5-0.5s0.5,0.2236,0.5,0.5V19.374
		C12.7783,19.6504,12.5547,19.874,12.2783,19.874z"/>
	<path d="M12.2783,7.3594c-0.1738,0-0.3438-0.0918-0.4355-0.2549c-0.1357-0.2407-0.0503-0.5454,0.1904-0.6807l1.5078-0.8486
		c0.2363-0.1353,0.5439-0.0518,0.6807,0.1904c0.1357,0.2407,0.0508,0.5454-0.1904,0.6807l-1.5078,0.8486
		C12.4463,7.3389,12.3623,7.3594,12.2783,7.3594z"/>
	<path d="M12.2783,9.334c-0.1748,0-0.3438-0.0918-0.4355-0.2549c-0.1357-0.2407-0.0503-0.5454,0.1904-0.6807l1.5078-0.8481
		c0.2393-0.1362,0.5449-0.0503,0.6807,0.1904s0.0498,0.5454-0.1904,0.6807L12.5234,9.27C12.4463,9.3135,12.3613,9.334,12.2783,9.334
		z"/>
	<path d="M12.2783,11.3208c-0.1738,0-0.3438-0.0918-0.4355-0.2549c-0.1357-0.2407-0.0503-0.5454,0.1904-0.6807l1.5078-0.8486
		c0.2363-0.1348,0.5439-0.0518,0.6807,0.1904c0.1357,0.2407,0.0508,0.5454-0.1904,0.6807l-1.5078,0.8486
		C12.4463,11.3003,12.3623,11.3208,12.2783,11.3208z"/>
	<path d="M12.2783,13.293c-0.1738,0-0.3438-0.0918-0.4355-0.2549c-0.1357-0.2402-0.0503-0.5449,0.1904-0.6807l1.5078-0.8486
		c0.2363-0.1362,0.5439-0.0518,0.6807,0.1904c0.1357,0.2407,0.0508,0.5449-0.1904,0.6807l-1.5078,0.8486
		C12.4463,13.2725,12.3623,13.293,12.2783,13.293z"/>
	<path d="M12.2783,8.4224c-0.084,0-0.168-0.0205-0.2451-0.0645l-1.5083-0.8486c-0.2407-0.1353-0.3262-0.4399-0.1904-0.6807
		c0.1353-0.2407,0.4395-0.3281,0.6807-0.1904l1.5083,0.8486c0.2412,0.1353,0.3262,0.4399,0.1904,0.6807
		C12.6221,8.3306,12.4521,8.4224,12.2783,8.4224z"/>
	<path d="M12.2783,10.397c-0.083,0-0.168-0.0205-0.2451-0.064l-1.5083-0.8481c-0.2407-0.1357-0.3262-0.4404-0.1909-0.6812
		c0.1348-0.2412,0.4399-0.3276,0.6812-0.1909l1.5083,0.8481c0.2402,0.1357,0.3262,0.4404,0.1904,0.6812
		C12.6221,10.3052,12.4531,10.397,12.2783,10.397z"/>
	<path d="M12.2783,12.3838c-0.084,0-0.168-0.0205-0.2451-0.0645l-1.5083-0.8486c-0.2407-0.1353-0.3262-0.4399-0.1904-0.6807
		c0.1353-0.2412,0.4395-0.3271,0.6807-0.1904l1.5083,0.8486c0.2412,0.1353,0.3262,0.4399,0.1904,0.6807
		C12.6221,12.292,12.4521,12.3838,12.2783,12.3838z"/>
	<path d="M12.2783,14.3555c-0.0879,0-0.1758-0.0225-0.2559-0.0703l-1.7842-1.0625c-0.2373-0.1416-0.3149-0.4482-0.1738-0.6855
		c0.1416-0.2373,0.4478-0.3164,0.6855-0.1738l1.7842,1.0625c0.2373,0.1416,0.3154,0.4482,0.1738,0.6855
		C12.6143,14.2686,12.4482,14.3555,12.2783,14.3555z"/>
	<path d="M7.625,19.874c-0.0083,0-0.0161,0-0.0244-0.001c-0.2759-0.0127-0.4888-0.2471-0.4756-0.5234
		C7.5928,9.6328,5.2046,5.7598,5.1802,5.7217C5.0322,5.4893,5.0996,5.1802,5.3315,5.0317c0.2329-0.1484,0.54-0.083,0.6895,0.1484
		c0.106,0.1636,2.5884,4.127,2.103,14.2183C8.1108,19.666,7.8901,19.874,7.625,19.874z"/>
	<path d="M6.4648,7.998c-0.1196,0-0.2397-0.0425-0.3354-0.1289C5.9248,7.6841,5.9087,7.3677,6.0938,7.1626l1.2217-1.3521
		C7.5,5.6064,7.8174,5.5898,8.022,5.7749s0.2207,0.5015,0.0356,0.7065L6.8359,7.8335C6.7373,7.9424,6.6011,7.998,6.4648,7.998z"/>
	<path d="M6.9233,9.6826c-0.1333,0-0.2661-0.0527-0.3647-0.1577c-0.189-0.2017-0.1787-0.5181,0.0225-0.707l1.2754-1.1968
		c0.2021-0.1885,0.5186-0.1787,0.707,0.0225c0.189,0.2017,0.1787,0.5181-0.0225,0.707L7.2656,9.5474
		C7.1689,9.6377,7.0459,9.6826,6.9233,9.6826z"/>
	<path d="M7.2754,11.5352c-0.1431,0-0.2847-0.061-0.3838-0.1787c-0.1772-0.2119-0.1494-0.5273,0.062-0.7046L8.312,9.5137
		c0.2124-0.1772,0.5278-0.1489,0.7046,0.062c0.1772,0.2119,0.1494,0.5273-0.062,0.7046l-1.3584,1.1382
		C7.5024,11.4971,7.3887,11.5352,7.2754,11.5352z"/>
	<path d="M7.6094,13.3936c-0.1538,0-0.3057-0.0703-0.4033-0.2041c-0.1636-0.2227-0.1157-0.5352,0.1069-0.6992l1.375-1.0093
		c0.2217-0.1641,0.5352-0.1157,0.6987,0.1069s0.1157,0.5352-0.1069,0.6992l-1.375,1.0098
		C7.8159,13.3623,7.7119,13.3936,7.6094,13.3936z"/>
	<path d="M6.6436,8.7085c-0.0483,0-0.0977-0.0068-0.1465-0.022L4.6084,8.1084C4.3447,8.0278,4.1958,7.748,4.2769,7.4839
		c0.0811-0.2637,0.3599-0.4141,0.6245-0.3315L6.79,7.7305C7.0537,7.811,7.2026,8.0908,7.1216,8.355
		C7.0557,8.5703,6.8579,8.7085,6.6436,8.7085z"/>
	<path d="M7.1279,10.6128c-0.0522,0-0.1055-0.0083-0.1582-0.0259L5.0498,9.9468C4.7881,9.8599,4.6465,9.5767,4.7339,9.3145
		c0.0874-0.2617,0.3687-0.4038,0.6323-0.3159l1.9199,0.6401c0.2617,0.0869,0.4033,0.3701,0.3159,0.6323
		C7.5322,10.4805,7.3374,10.6128,7.1279,10.6128z"/>
	<path d="M7.416,12.5684c-0.0679,0-0.1377-0.0137-0.2041-0.0439l-1.8154-0.8125c-0.252-0.1133-0.3647-0.4087-0.252-0.6611
		c0.1128-0.2515,0.4072-0.3638,0.6611-0.252l1.8154,0.813c0.252,0.1133,0.3647,0.4087,0.252,0.6606
		C7.7896,12.458,7.6074,12.5684,7.416,12.5684z"/>
	<path d="M7.5933,14.4746c-0.0752,0-0.1514-0.0166-0.2236-0.0527l-1.772-0.8877c-0.2466-0.124-0.3467-0.4248-0.2231-0.6709
		c0.1235-0.2471,0.4229-0.3477,0.6714-0.2236l1.772,0.8877c0.2466,0.124,0.3467,0.4248,0.2231,0.6709
		C7.9531,14.374,7.7769,14.4746,7.5933,14.4746z"/>
	<path d="M16.9229,19.874c-0.2656,0-0.4863-0.208-0.499-0.4756C15.9375,9.3071,18.4209,5.3438,18.5264,5.1802
		c0.1504-0.2314,0.458-0.2964,0.6895-0.1484c0.2314,0.1484,0.2988,0.4575,0.1514,0.6899
		c-0.0244,0.0381-2.4121,3.9111-1.9453,13.6279c0.0137,0.2764-0.1992,0.5107-0.4746,0.5234
		C16.9385,19.874,16.9307,19.874,16.9229,19.874z"/>
	<path d="M18.082,7.998c-0.1367,0-0.2725-0.0557-0.3711-0.165L16.4902,6.481c-0.1855-0.2051-0.1689-0.521,0.0361-0.7061
		c0.2051-0.1865,0.5205-0.1685,0.7061,0.0361l1.2207,1.3521c0.1855,0.2051,0.1689,0.521-0.0361,0.7061
		C18.3213,7.9556,18.2012,7.998,18.082,7.998z"/>
	<path d="M17.6553,9.5488c-0.1113,0-0.2227-0.0366-0.3154-0.1123l-1.3066-1.063c-0.2139-0.1743-0.2471-0.4893-0.0723-0.7031
		c0.1738-0.2153,0.4893-0.2466,0.7031-0.0723l1.3066,1.063c0.2139,0.1743,0.2471,0.4893,0.0723,0.7031
		C17.9443,9.4858,17.7998,9.5488,17.6553,9.5488z"/>
	<path d="M17.2725,11.5352c-0.1133,0-0.2275-0.0381-0.3213-0.1167l-1.3584-1.1382c-0.2119-0.1772-0.2393-0.4927-0.0615-0.7046
		c0.1777-0.2104,0.4922-0.2383,0.7041-0.062l1.3584,1.1382c0.2119,0.1772,0.2393,0.4927,0.0615,0.7046
		C17.5566,11.4741,17.415,11.5352,17.2725,11.5352z"/>
	<path d="M16.9385,13.3936c-0.1035,0-0.207-0.0312-0.2959-0.0967l-1.375-1.0098c-0.2227-0.1641-0.2705-0.4766-0.1074-0.6992
		c0.166-0.2227,0.4795-0.2681,0.6992-0.1069l1.375,1.0093c0.2227,0.1641,0.2705,0.4766,0.1074,0.6992
		C17.2432,13.3232,17.0918,13.3936,16.9385,13.3936z"/>
	<path d="M17.9033,8.7383c-0.2109,0-0.4082-0.1348-0.4756-0.3467c-0.085-0.2632,0.0596-0.5444,0.3223-0.6294l1.8887-0.6079
		c0.2617-0.0835,0.5459,0.0601,0.6289,0.3228c0.085,0.2632-0.0596,0.5444-0.3223,0.6294l-1.8887,0.6079
		C18.0059,8.7305,17.9541,8.7383,17.9033,8.7383z"/>
	<path d="M17.4189,10.6128c-0.209,0-0.4043-0.1323-0.4746-0.3418c-0.0869-0.2622,0.0547-0.5454,0.3164-0.6323l1.9199-0.6401
		c0.2617-0.0879,0.5449,0.0542,0.6328,0.3159c0.0869,0.2622-0.0547,0.5454-0.3164,0.6323l-1.9199,0.6401
		C17.5244,10.6045,17.4717,10.6128,17.4189,10.6128z"/>
	<path d="M17.1309,12.5684c-0.1904,0-0.373-0.1104-0.4561-0.2959c-0.1133-0.252,0-0.5474,0.252-0.6606l1.8154-0.813
		c0.25-0.1123,0.5469-0.0005,0.6602,0.252s0,0.5479-0.252,0.6611l-1.8154,0.8125C17.2686,12.5547,17.1992,12.5684,17.1309,12.5684z"
		/>
	<path d="M17.0176,14.5078c-0.1777,0-0.3496-0.0947-0.4404-0.2627c-0.1309-0.2432-0.04-0.5459,0.2031-0.6777l1.708-0.9209
		c0.2412-0.1289,0.5459-0.041,0.6777,0.2031c0.1309,0.2432,0.04,0.5459-0.2031,0.6777l-1.708,0.9209
		C17.1797,14.4883,17.0977,14.5078,17.0176,14.5078z"/>
</g>
<rect x="-0.0142" y="0.0197" fill="none" width="24" height="24"/>
</svg>
