<?xml version="1.0" encoding="utf-8"?>
<!-- Generator: Adobe Illustrator 18.1.0, SVG Export Plug-In . SVG Version: 6.00 Build 0)  -->
<svg version="1.1" id="Layer_1" xmlns="http://www.w3.org/2000/svg" xmlns:xlink="http://www.w3.org/1999/xlink" x="0px" y="0px"
	 width="24px" height="24px" viewBox="0 0 24 24" enable-background="new 0 0 24 24" xml:space="preserve">
<g>
	<path d="M22.6934,21H1.2788c-0.7129,0-1.2925-0.5801-1.2925-1.293V4.2935C-0.0137,3.5801,0.5659,3,1.2788,3h21.4146
		c0.7129,0,1.293,0.5801,1.293,1.2935V19.707C23.9863,20.4199,23.4062,21,22.6934,21z M1.2788,4
		C1.1177,4,0.9863,4.1318,0.9863,4.2935V19.707c0,0.1611,0.1313,0.293,0.2925,0.293h21.4146c0.1611,0,0.293-0.1318,0.293-0.293
		V4.2935C22.9863,4.1318,22.8545,4,22.6934,4H1.2788z"/>
	<path d="M6.4502,12.1055c-1.4258,0-2.5859-1.1606-2.5859-2.5864s1.1602-2.5854,2.5859-2.5854S9.0356,8.0933,9.0356,9.519
		S7.876,12.1055,6.4502,12.1055z M6.4502,7.9336c-0.8745,0-1.5859,0.7114-1.5859,1.5854c0,0.8745,0.7114,1.5859,1.5859,1.5859
		c0.874,0,1.5854-0.7114,1.5854-1.5859C8.0356,8.645,7.3242,7.9336,6.4502,7.9336z"/>
	<path d="M5.4731,21c-0.1001,0-0.2012-0.0303-0.2891-0.0918c-0.2251-0.1602-0.2778-0.4727-0.1182-0.6973l6.9082-9.7329
		c0.0923-0.1304,0.2427-0.209,0.4028-0.2104c0.001,0,0.0029,0,0.0049,0c0.1582,0,0.3076,0.0747,0.4014,0.2021l2.4248,3.2705
		l3.2832-5.1636c0.0898-0.1416,0.2451-0.2285,0.4131-0.2314c0.1611,0.0054,0.3252,0.0786,0.4209,0.2168l4.5732,6.6519
		c0.1562,0.2275,0.0986,0.5391-0.1289,0.6953c-0.2275,0.1572-0.5381,0.0996-0.6953-0.1289l-4.1445-6.0288l-3.2686,5.1392
		c-0.0879,0.1387-0.2393,0.2256-0.4043,0.2314c-0.1699-0.0078-0.3223-0.0703-0.4189-0.2021l-2.4473-3.3008l-6.5093,9.1699
		C5.7837,20.9268,5.6299,21,5.4731,21z"/>
</g>
<rect x="-0.0136" y="0.0002" fill="none" width="24" height="24"/>
</svg>
