<?xml version="1.0" encoding="utf-8"?>
<!-- Generator: Adobe Illustrator 18.1.0, SVG Export Plug-In . SVG Version: 6.00 Build 0)  -->
<svg version="1.1" id="Layer_1" xmlns="http://www.w3.org/2000/svg" xmlns:xlink="http://www.w3.org/1999/xlink" x="0px" y="0px"
	 width="24px" height="24px" viewBox="0 0 24 24" enable-background="new 0 0 24 24" xml:space="preserve">
<g>
	<path d="M0.481,20.6553c-0.2764,0-0.5-0.2236-0.5-0.5v-1.0889c0-0.5127,0.3027-0.9648,0.771-1.1523
		c5.6602-2.2402,6.6255-3.1777,6.7808-3.4697v-0.7441c-0.6348-0.7168-1.1309-1.6504-1.4443-2.7207
		c-0.3936-0.3403-0.6562-0.8232-0.7295-1.3511c-0.0757-0.543,0.0488-1.0791,0.3506-1.5298V5.9463
		c0-2.833,1.7847-4.5244,4.7734-4.5244c3.0327,0,4.772,1.6489,4.772,4.5244v2.1514c0.3027,0.4517,0.4268,0.9893,0.3516,1.5332
		c-0.0732,0.5273-0.3359,1.0098-0.7295,1.3496c-0.3145,1.0693-0.8096,2.0029-1.4443,2.7197v0.7373
		c0.0479,0.0791,0.1943,0.2666,0.6309,0.5723c0.2256,0.1582,0.2812,0.4697,0.1221,0.6963
		c-0.1582,0.2266-0.4697,0.2812-0.6963,0.1221c-0.5957-0.417-0.9248-0.7803-1.0352-1.1445
		c-0.0146-0.0469-0.0215-0.0957-0.0215-0.1445v-1.0342c0-0.1289,0.0498-0.252,0.1387-0.3457
		c0.6191-0.6475,1.0977-1.5474,1.3857-2.6021c0.0303-0.1104,0.0977-0.207,0.1904-0.2744c0.2529-0.1816,0.4238-0.4697,0.4688-0.79
		c0.0459-0.3311-0.0439-0.6582-0.2529-0.9219c-0.0703-0.0884-0.1084-0.1978-0.1084-0.3105v-2.314
		c0-2.3057-1.3047-3.5244-3.772-3.5244c-2.4331,0-3.7734,1.2515-3.7734,3.5244v2.3149c0,0.1128-0.0381,0.2227-0.1084,0.311
		c-0.208,0.2622-0.2979,0.5884-0.252,0.9185c0.0444,0.3213,0.2153,0.6099,0.4683,0.792c0.0933,0.0669,0.1602,0.1636,0.1904,0.2744
		c0.2876,1.0547,0.7671,1.9546,1.3862,2.6021c0.0889,0.0928,0.1387,0.2168,0.1387,0.3457v1.0342
		c0,0.0498-0.0073,0.0986-0.0215,0.1455c-0.2114,0.6943-1.2549,1.7314-7.3901,4.1592c-0.0835,0.0332-0.1401,0.123-0.1401,0.2227
		v1.0889C0.981,20.4316,0.7573,20.6553,0.481,20.6553z"/>
	<path d="M19.0498,23.7891c-2.6396,0-4.7871-2.1475-4.7871-4.7881s2.1475-4.7881,4.7871-4.7881
		c2.6406,0,4.7881,2.1475,4.7881,4.7881S21.6904,23.7891,19.0498,23.7891z M19.0498,15.2129c-2.0879,0-3.7871,1.6992-3.7871,3.7881
		s1.6992,3.7881,3.7871,3.7881c2.0889,0,3.7881-1.6992,3.7881-3.7881S21.1387,15.2129,19.0498,15.2129z"/>
	<path d="M18.3135,21.2344c-0.1221,0-0.2451-0.0449-0.3418-0.1348c-0.2012-0.1885-0.2119-0.5049-0.0234-0.707l2.751-2.9404
		c0.1895-0.2012,0.5049-0.2119,0.707-0.0234c0.2012,0.1885,0.2119,0.5049,0.0234,0.707l-2.751,2.9404
		C18.5801,21.1816,18.4473,21.2344,18.3135,21.2344z"/>
	<path d="M18.3135,21.2344c-0.1338,0-0.2666-0.0527-0.3652-0.1582l-1.2773-1.3652c-0.1885-0.2021-0.1777-0.5186,0.0234-0.707
		c0.2031-0.1875,0.5186-0.1787,0.707,0.0234l1.2773,1.3652c0.1885,0.2021,0.1777,0.5186-0.0234,0.707
		C18.5586,21.1895,18.4355,21.2344,18.3135,21.2344z"/>
</g>
<rect x="0.0005" y="0.0004" fill="none" width="24" height="24"/>
</svg>
