<?xml version="1.0" encoding="utf-8"?>
<!-- Generator: Adobe Illustrator 18.1.0, SVG Export Plug-In . SVG Version: 6.00 Build 0)  -->
<svg version="1.1" id="Layer_1" xmlns="http://www.w3.org/2000/svg" xmlns:xlink="http://www.w3.org/1999/xlink" x="0px" y="0px"
	 width="24px" height="24px" viewBox="0 0 24 24" enable-background="new 0 0 24 24" xml:space="preserve">
<g>
	<path d="M22.1514,13.957H14.499c-0.2764,0-0.5-0.2236-0.5-0.5v-2.9746c0-0.2764,0.2236-0.5,0.5-0.5h7.6523
		c0.96,0,1.7412,0.7812,1.7412,1.7417v0.4917C23.8926,13.1758,23.1113,13.957,22.1514,13.957z M14.999,12.957h7.1523
		c0.4092,0,0.7412-0.332,0.7412-0.7412v-0.4917c0-0.4092-0.332-0.7417-0.7412-0.7417H14.999V12.957z"/>
	<path d="M14.499,14.9854H5.0273c-2.6763,0-4.8535-2.1777-4.8535-4.8535V9.4854c0-0.2764,0.2236-0.5,0.5-0.5H14.499
		c0.2764,0,0.5,0.2236,0.5,0.5v5C14.999,14.7617,14.7754,14.9854,14.499,14.9854z M1.1738,9.9854v0.1465
		c0,2.125,1.7285,3.8535,3.8535,3.8535h8.9717v-4H1.1738z"/>
	<path d="M14.499,16.4854c-0.2764,0-0.5-0.2236-0.5-0.5v-8c0-0.2764,0.2236-0.5,0.5-0.5s0.5,0.2236,0.5,0.5v8
		C14.999,16.2617,14.7754,16.4854,14.499,16.4854z"/>
	<path d="M16.5098,13.957c-0.2764,0-0.5-0.2236-0.5-0.5v-2.9746c0-0.2764,0.2236-0.5,0.5-0.5s0.5,0.2236,0.5,0.5v2.9746
		C17.0098,13.7334,16.7861,13.957,16.5098,13.957z"/>
	<path d="M18.5098,13.957c-0.2764,0-0.5-0.2236-0.5-0.5v-2.9746c0-0.2764,0.2236-0.5,0.5-0.5s0.5,0.2236,0.5,0.5v2.9746
		C19.0098,13.7334,18.7861,13.957,18.5098,13.957z"/>
	<path d="M20.5098,13.957c-0.2764,0-0.5-0.2236-0.5-0.5v-2.9746c0-0.2764,0.2236-0.5,0.5-0.5s0.5,0.2236,0.5,0.5v2.9746
		C21.0098,13.7334,20.7861,13.957,20.5098,13.957z"/>
	<path d="M14.499,12.9854h-6.5c-0.2764,0-0.5-0.2236-0.5-0.5s0.2236-0.5,0.5-0.5h6.5c0.2764,0,0.5,0.2236,0.5,0.5
		S14.7754,12.9854,14.499,12.9854z"/>
</g>
<rect x="-0.0008" y="-0.0147" fill="none" width="24" height="24"/>
</svg>
