<?xml version="1.0" encoding="utf-8"?>
<!-- Generator: Adobe Illustrator 18.1.0, SVG Export Plug-In . SVG Version: 6.00 Build 0)  -->
<svg version="1.1" id="Layer_1" xmlns="http://www.w3.org/2000/svg" xmlns:xlink="http://www.w3.org/1999/xlink" x="0px" y="0px"
	 width="24px" height="24px" viewBox="0 0 24 24" enable-background="new 0 0 24 24" xml:space="preserve">
<g>
	<path d="M18.1367,18.0215H7.9146c-0.4907,0-0.8896-0.4014-0.8896-0.8955v-1.3896c0-0.3672,0.229-0.7031,0.5698-0.835
		c2.7983-1.082,3.439-1.5771,3.5835-1.7324v-0.2275c-0.3301-0.3857-0.5913-0.8701-0.7646-1.4194
		c-0.2314-0.2168-0.3848-0.5103-0.4287-0.8296c-0.0454-0.3247,0.0225-0.645,0.1909-0.9209V8.6846
		c0-1.6426,1.0923-2.6626,2.8506-2.6626c1.7842,0,2.8496,0.9956,2.8496,2.6626V9.771c0.1689,0.2759,0.2363,0.5967,0.1914,0.9214
		c-0.0439,0.3193-0.1982,0.6133-0.4297,0.8301c-0.1738,0.5508-0.4346,1.0352-0.7646,1.4189v0.2402
		c0.127,0.1387,0.75,0.624,3.584,1.7188c0.3418,0.1318,0.5713,0.4688,0.5693,0.8389v1.3867
		C19.0264,17.6201,18.627,18.0215,18.1367,18.0215z M8.0249,17.0215h10.0015v-1.2148c-3.5625-1.3818-4.001-1.9395-4.1309-2.3545
		c-0.0146-0.0488-0.0225-0.0986-0.0225-0.1494v-0.5557c0-0.1309,0.0518-0.2568,0.1436-0.3506
		c0.3115-0.3174,0.5557-0.7661,0.7041-1.2974c0.0312-0.1113,0.0996-0.208,0.1943-0.2744c0.0879-0.0615,0.1465-0.1602,0.1621-0.27
		c0.0107-0.0786,0.0039-0.1963-0.0889-0.311c-0.0732-0.0894-0.1123-0.2007-0.1123-0.3154V8.6846
		c0-1.1187-0.6055-1.6626-1.8496-1.6626c-1.228,0-1.8506,0.5596-1.8506,1.6626v1.2441c0,0.1147-0.0396,0.2261-0.1118,0.3154
		c-0.0728,0.0894-0.104,0.1997-0.0889,0.3105c0.0151,0.1099,0.0742,0.208,0.1616,0.27c0.0942,0.0659,0.1626,0.1631,0.1938,0.2739
		c0.1484,0.5303,0.3921,0.9795,0.7046,1.2988c0.0918,0.0928,0.1436,0.2188,0.1436,0.3496v0.5557
		c0,0.0508-0.0078,0.1006-0.0234,0.1484c-0.1289,0.415-0.5659,0.9727-4.1304,2.3555V17.0215z"/>
	<path d="M20.6924,23.998H4.3071C3.5864,23.998,3,23.4111,3,22.6904V1.3062C3,0.585,3.5864-0.002,4.3071-0.002h16.3862
		C21.4141-0.002,22,0.585,22,1.3062v21.3843C22,23.4111,21.4131,23.998,20.6924,23.998z M4.3071,0.998
		C4.1377,0.998,4,1.1362,4,1.3062v21.3843c0,0.1699,0.1377,0.3076,0.3071,0.3076h16.3853c0.1699,0,0.3076-0.1377,0.3076-0.3076
		V1.3062c0-0.1699-0.1377-0.3081-0.3066-0.3081H4.3071z"/>
	<path d="M4.584,20.998H1.4849c-0.2764,0-0.5-0.2236-0.5-0.5s0.2236-0.5,0.5-0.5H4.584c0.2764,0,0.5,0.2236,0.5,0.5
		S4.8604,20.998,4.584,20.998z"/>
	<path d="M4.584,17.9971H1.4849c-0.2764,0-0.5-0.2236-0.5-0.5s0.2236-0.5,0.5-0.5H4.584c0.2764,0,0.5,0.2236,0.5,0.5
		S4.8604,17.9971,4.584,17.9971z"/>
	<path d="M4.584,14.9971H1.4849c-0.2764,0-0.5-0.2236-0.5-0.5s0.2236-0.5,0.5-0.5H4.584c0.2764,0,0.5,0.2236,0.5,0.5
		S4.8604,14.9971,4.584,14.9971z"/>
	<path d="M4.584,11.9966H1.4849c-0.2764,0-0.5-0.2236-0.5-0.5s0.2236-0.5,0.5-0.5H4.584c0.2764,0,0.5,0.2236,0.5,0.5
		S4.8604,11.9966,4.584,11.9966z"/>
	<path d="M4.584,8.9966H1.4849c-0.2764,0-0.5-0.2236-0.5-0.5s0.2236-0.5,0.5-0.5H4.584c0.2764,0,0.5,0.2236,0.5,0.5
		S4.8604,8.9966,4.584,8.9966z"/>
	<path d="M4.584,5.9961H1.4849c-0.2764,0-0.5-0.2236-0.5-0.5s0.2236-0.5,0.5-0.5H4.584c0.2764,0,0.5,0.2236,0.5,0.5
		S4.8604,5.9961,4.584,5.9961z"/>
	<path d="M4.584,2.9961H1.4849c-0.2764,0-0.5-0.2236-0.5-0.5s0.2236-0.5,0.5-0.5H4.584c0.2764,0,0.5,0.2236,0.5,0.5
		S4.8604,2.9961,4.584,2.9961z"/>
</g>
<rect y="-0.002" fill="none" width="24" height="24"/>
</svg>
