<?xml version="1.0" encoding="utf-8"?>
<!-- Generator: Adobe Illustrator 18.1.0, SVG Export Plug-In . SVG Version: 6.00 Build 0)  -->
<svg version="1.1" id="Layer_1" xmlns="http://www.w3.org/2000/svg" xmlns:xlink="http://www.w3.org/1999/xlink" x="0px" y="0px"
	 width="24px" height="24px" viewBox="0 0 24 24" enable-background="new 0 0 24 24" xml:space="preserve">
<g>
	<path d="M23.5,21h-13c-0.2764,0-0.5-0.2236-0.5-0.5s0.2236-0.5,0.5-0.5H23v-8.7236C23,8.9585,21.0264,7,18.6904,7H6.0347
		c-0.2764,0-0.5-0.2236-0.5-0.5S5.7583,6,6.0347,6h12.6558C21.5684,6,24,8.4165,24,11.2764V20.5C24,20.7764,23.7764,21,23.5,21z"/>
	<path d="M10.5,21h-10C0.2236,21,0,20.7764,0,20.5v-9.3652C0,8.3516,2.3535,6,5.1396,6h0.895C8.7725,6,11,8.3032,11,11.1348V20.5
		C11,20.7764,10.7764,21,10.5,21z M1,20h9v-8.8652C10,8.855,8.2212,7,6.0347,7h-0.895C2.8955,7,1,8.8936,1,11.1348V20z"/>
	<path d="M8.5,19h-6C2.2236,19,2,18.7764,2,18.5S2.2236,18,2.5,18h6C8.7764,18,9,18.2236,9,18.5S8.7764,19,8.5,19z"/>
	<path d="M23.5,4h-9C14.2236,4,14,3.7764,14,3.5v-3C14,0.2236,14.2236,0,14.5,0h9C23.7764,0,24,0.2236,24,0.5v3
		C24,3.7764,23.7764,4,23.5,4z M15,3h8V1h-8V3z"/>
	<path d="M14.5,11.7271c-0.2764,0-0.5-0.2236-0.5-0.5V3.5C14,3.2236,14.2236,3,14.5,3S15,3.2236,15,3.5v7.7271
		C15,11.5034,14.7764,11.7271,14.5,11.7271z"/>
	<path d="M14.5518,14.1982c-0.957,0-1.7354-0.7783-1.7354-1.7354s0.7783-1.7358,1.7354-1.7358s1.7354,0.7788,1.7354,1.7358
		S15.5088,14.1982,14.5518,14.1982z M14.5518,11.7271c-0.4053,0-0.7354,0.3306-0.7354,0.7358s0.3301,0.7354,0.7354,0.7354
		s0.7354-0.3301,0.7354-0.7354S14.957,11.7271,14.5518,11.7271z"/>
	<path d="M12.5,23.9014c-0.2764,0-0.5-0.2236-0.5-0.5V20.5c0-0.2764,0.2236-0.5,0.5-0.5s0.5,0.2236,0.5,0.5v2.9014
		C13,23.6777,12.7764,23.9014,12.5,23.9014z"/>
</g>
<rect fill="none" width="24" height="24"/>
</svg>
