<?xml version="1.0" encoding="utf-8"?>
<!-- Generator: Adobe Illustrator 18.1.0, SVG Export Plug-In . SVG Version: 6.00 Build 0)  -->
<svg version="1.1" id="Layer_1" xmlns="http://www.w3.org/2000/svg" xmlns:xlink="http://www.w3.org/1999/xlink" x="0px" y="0px"
	 width="24px" height="24px" viewBox="0 0 24 24" enable-background="new 0 0 24 24" xml:space="preserve">
<g>
	<path d="M16.2012,24.0195h-1.9883c-0.1387,0-0.2715-0.0576-0.3662-0.1592c-0.0938-0.1016-0.1426-0.2373-0.1328-0.376l0.1895-2.6768
		c0.0303-0.5361-0.0977-0.9756-0.3701-1.2646c-0.2422-0.2559-0.5908-0.3906-1.0107-0.3906l-7.0801,0.0059
		c-1.1987,0-1.707,1.0469-1.9224,1.9258l-0.3628,2.5078c-0.0356,0.2451-0.2461,0.4277-0.4946,0.4277H0.6748
		c-0.1431,0-0.2793-0.0615-0.3745-0.1689c-0.0947-0.1074-0.1392-0.25-0.1216-0.3916L2.9976,0.4585
		c0.0308-0.2505,0.2437-0.439,0.4961-0.439h15.5259c0.1436,0,0.2793,0.0615,0.374,0.1685c0.0957,0.1074,0.1396,0.25,0.1221,0.3926
		l-2.8184,22.9995C16.667,23.8311,16.4541,24.0195,16.2012,24.0195z M14.75,23.0195h1.0088l2.6953-22H3.936l-2.6963,22H2.23
		l0.3096-2.127c0.4277-1.7549,1.4824-2.7344,2.9023-2.7344l7.0806-0.0059c0.6914,0,1.3086,0.25,1.7373,0.7041
		c0.4668,0.4932,0.6885,1.1904,0.6416,2.0146L14.75,23.0195z"/>
	<path d="M23.3252,24.0195h-1.9883c-0.248,0-0.459-0.1826-0.4951-0.4277l-0.3711-2.5547c-0.2998-1.2158-0.9473-1.8555-1.9131-1.8555
		c-0.2764,0-0.5-0.2236-0.5-0.5s0.2236-0.5,0.5-0.5c0.8369,0,2.3252,0.3457,2.8936,2.6641l0.3184,2.1738h0.9531L18.5283,0.6113
		c-0.0508-0.271,0.1279-0.5322,0.3994-0.5835c0.2656-0.0464,0.5322,0.1274,0.583,0.3999l4.3057,23
		c0.0273,0.1455-0.0117,0.2969-0.1064,0.4111S23.4736,24.0195,23.3252,24.0195z"/>
	<path d="M14.8936,6.0195H6.9741c-0.2764,0-0.5-0.2236-0.5-0.5s0.2236-0.5,0.5-0.5h7.9194c0.2764,0,0.5,0.2236,0.5,0.5
		S15.1699,6.0195,14.8936,6.0195z"/>
	<path d="M14.2686,9.0195H6.1567c-0.2764,0-0.5-0.2236-0.5-0.5s0.2236-0.5,0.5-0.5h8.1118c0.2764,0,0.5,0.2236,0.5,0.5
		S14.5449,9.0195,14.2686,9.0195z"/>
	<path d="M13.9043,12.0195H5.4224c-0.2764,0-0.5-0.2236-0.5-0.5s0.2236-0.5,0.5-0.5h8.4819c0.2764,0,0.5,0.2236,0.5,0.5
		S14.1807,12.0195,13.9043,12.0195z"/>
	<path d="M9.8472,24.0195H7.8594c-0.252,0-0.4644-0.1875-0.4961-0.4375l-0.3809-3.0088c-0.0347-0.2734,0.1592-0.5234,0.4331-0.5586
		c0.2798-0.0342,0.5244,0.1602,0.5591,0.4336l0.3257,2.5713h1.0078c-0.1211-1.627-0.1587-2.3662-0.1323-2.6094
		c0.0288-0.2754,0.2788-0.4775,0.5488-0.4434c0.2744,0.0283,0.4736,0.2754,0.4453,0.5488
		c-0.0186,0.1816,0.0337,1.0859,0.1553,2.6875l0.0205,0.2812c0.0098,0.1387-0.0381,0.2744-0.1328,0.376
		S9.9858,24.0195,9.8472,24.0195z"/>
	<path fill="none" stroke="#000000" stroke-linecap="round" stroke-linejoin="round" stroke-miterlimit="10" d="M7.5264,20.4632"/>
	<path fill="none" stroke="#000000" stroke-linecap="round" stroke-linejoin="round" stroke-miterlimit="10" d="M9.721,20.4632"/>
</g>
<rect y="0.0197" fill="none" width="24" height="24"/>
</svg>
