<?xml version="1.0" encoding="utf-8"?>
<!-- Generator: Adobe Illustrator 18.1.0, SVG Export Plug-In . SVG Version: 6.00 Build 0)  -->
<svg version="1.1" id="Layer_1" xmlns="http://www.w3.org/2000/svg" xmlns:xlink="http://www.w3.org/1999/xlink" x="0px" y="0px"
	 width="24px" height="24px" viewBox="0 0 24 24" enable-background="new 0 0 24 24" xml:space="preserve">
<g>
	<path d="M6.5142,18.7236c-3.0977,0-5.5-3.3838-5.5-6.2939V6.3882c0-0.6177,0.2856-1.3535,1.647-1.3535h7.3667
		c1.2437,0,1.9858,0.5059,1.9858,1.3535v6.0405C12.0137,15.3398,9.6118,18.7236,6.5142,18.7236z M2.6611,6.0347
		c-0.647,0-0.647,0.1484-0.647,0.3535v6.0415c0,2.3975,2.0073,5.2939,4.5,5.2939s4.5-2.8965,4.5-5.2949V6.3882
		c0-0.2793-0.6201-0.3535-0.9863-0.3535H2.6611z"/>
	<path d="M6.5142,23.9062c-0.2764,0-0.5-0.2236-0.5-0.5v-5.1826c0-0.2764,0.2236-0.5,0.5-0.5s0.5,0.2236,0.5,0.5v5.1826
		C7.0142,23.6826,6.7905,23.9062,6.5142,23.9062z"/>
	<g>
		<path d="M8.9575,10.2817c-0.9609,0-1.9146-0.1724-2.6548-0.5176C5.0776,9.1929,2.9834,9.2065,1.7256,9.7935
			C1.4751,9.9097,1.1782,9.8018,1.061,9.5518C0.9443,9.3013,1.0527,9.0039,1.3027,8.8872c1.5366-0.7173,3.9199-0.7305,5.4229-0.0293
			c1.2236,0.5708,3.3188,0.5566,4.5771-0.0293c0.25-0.1172,0.5474-0.0078,0.6646,0.2417c0.1167,0.25,0.0088,0.5479-0.2417,0.6646
			C10.9453,10.0991,9.9473,10.2817,8.9575,10.2817z"/>
	</g>
	<path d="M6.5142,6.0347c-0.2764,0-0.5-0.2236-0.5-0.5V4.4907c0-0.5142,0.3301-0.9692,0.8213-1.1318
		c0.4199-0.1387,0.791-0.583,0.6885-1.166c-0.0703-0.4043-0.415-0.749-0.8188-0.8193C6.3896,1.3188,6.0908,1.3984,5.8545,1.5967
		C5.6211,1.7925,5.4873,2.0791,5.4873,2.3833c0,0.2764-0.2236,0.5-0.5,0.5s-0.5-0.2236-0.5-0.5
		c0-0.6006,0.2637-1.1665,0.7241-1.5527c0.4595-0.3857,1.0654-0.5474,1.666-0.4424c0.8174,0.1431,1.4888,0.8145,1.6318,1.6323
		c0.1768,1.0073-0.395,1.9697-1.3599,2.2881C7.0688,4.335,7.0142,4.4082,7.0142,4.4907v1.0439
		C7.0142,5.811,6.7905,6.0347,6.5142,6.0347z"/>
	<path d="M18.5488,23.6631c-2.8154,0-5.1064-2.291-5.1064-5.1064c0-1.9268,4.1523-10.3071,5.1064-10.3071
		s5.1064,8.3804,5.1064,10.3071C23.6553,21.3721,21.3643,23.6631,18.5488,23.6631z M18.5488,9.6499
		c-1.1055,1.7739-4.1064,6.9888-4.1064,8.9067c0,2.2646,1.8418,4.1064,4.1064,4.1064s4.1064-1.8418,4.1064-4.1064
		C22.6553,16.6387,19.6543,11.4238,18.5488,9.6499z"/>
	<path d="M17.5752,21.5635c-0.04,0-0.0811-0.0049-0.1211-0.0146c-1.3076-0.3271-2.2207-1.499-2.2207-2.8486
		c0-0.4775,0.2178-1.1797,0.667-2.1465c0.1152-0.251,0.415-0.3613,0.6631-0.2432c0.251,0.1152,0.3594,0.4131,0.2432,0.6631
		c-0.499,1.0771-0.5732,1.5439-0.5732,1.7266c0,0.8906,0.6016,1.6631,1.4629,1.8779c0.2686,0.0674,0.4307,0.3389,0.3643,0.6064
		C18.0029,21.4121,17.7998,21.5635,17.5752,21.5635z"/>
</g>
<rect x="0.0142" y="0.0346" fill="none" width="24" height="24"/>
</svg>
