<?xml version="1.0" encoding="utf-8"?>
<!-- Generator: Adobe Illustrator 18.1.0, SVG Export Plug-In . SVG Version: 6.00 Build 0)  -->
<svg version="1.1" id="Layer_1" xmlns="http://www.w3.org/2000/svg" xmlns:xlink="http://www.w3.org/1999/xlink" x="0px" y="0px"
	 width="24px" height="24px" viewBox="0 0 24 24" enable-background="new 0 0 24 24" xml:space="preserve">
<g>
	<path d="M20.5,5h-4C16.2236,5,16,4.7764,16,4.5v-4C16,0.2236,16.2236,0,16.5,0S17,0.2236,17,0.5V4h3.5C20.7764,4,21,4.2236,21,4.5
		S20.7764,5,20.5,5z"/>
	<path d="M19.708,24H4.2871C3.5776,24,3,23.417,3,22.7002V1.3057C3,0.5859,3.5776,0,4.2871,0H16.5
		c0.418,0,0.6406,0.2192,0.8027,0.3789l3.3125,3.269C20.7939,3.8242,21,4.0806,21,4.5v18.2002C21,23.417,20.4209,24,19.708,24z
		 M16.4932,0.9932L4.2871,1C4.1313,1,4,1.1401,4,1.3057v21.3945C4,22.8623,4.1313,23,4.2871,23H19.708
		C19.8662,23,20,22.8623,20,22.7002V4.5c0-0.0347,0-0.0542-0.0869-0.1396l-3.3135-3.2695
		C16.5723,1.063,16.5137,1.0054,16.4932,0.9932z"/>
</g>
<rect y="0.0001" fill="none" width="24" height="24"/>
</svg>
