<?xml version="1.0" encoding="utf-8"?>
<!-- Generator: Adobe Illustrator 18.1.0, SVG Export Plug-In . SVG Version: 6.00 Build 0)  -->
<svg version="1.1" id="Layer_1" xmlns="http://www.w3.org/2000/svg" xmlns:xlink="http://www.w3.org/1999/xlink" x="0px" y="0px"
	 width="24px" height="24px" viewBox="0 0 24 24" enable-background="new 0 0 24 24" xml:space="preserve">
<g>
	<path d="M8.2261,19.124c-1.3159,0-2.3867-1.0703-2.3867-2.3867s1.0708-2.3867,2.3867-2.3867s2.3867,1.0703,2.3867,2.3867
		S9.542,19.124,8.2261,19.124z M8.2261,15.3506c-0.7646,0-1.3867,0.6221-1.3867,1.3867s0.6221,1.3867,1.3867,1.3867
		s1.3867-0.6221,1.3867-1.3867S8.9907,15.3506,8.2261,15.3506z"/>
	<path d="M19.2969,17.0107c-1.3164,0-2.3867-1.0703-2.3867-2.3867s1.0703-2.3867,2.3867-2.3867s2.3867,1.0703,2.3867,2.3867
		S20.6133,17.0107,19.2969,17.0107z M19.2969,13.2373c-0.7646,0-1.3867,0.6221-1.3867,1.3867s0.6221,1.3867,1.3867,1.3867
		s1.3867-0.6221,1.3867-1.3867S20.0615,13.2373,19.2969,13.2373z"/>
	<path d="M11.5703,16.5986c-0.2354,0-0.4448-0.167-0.4907-0.4062c-0.0518-0.2715,0.126-0.5332,0.3975-0.585l4.4185-0.8438
		c0.2666-0.0498,0.5322,0.126,0.585,0.3975c0.0518,0.2715-0.126,0.5332-0.3975,0.585l-4.4185,0.8438
		C11.6328,16.5957,11.6016,16.5986,11.5703,16.5986z"/>
	<path d="M8.23,17.2402c-0.1304,0-0.2603-0.0508-0.3604-0.1504C7.7798,17,7.73,16.8701,7.73,16.7402
		c0-0.1406,0.0498-0.2705,0.1499-0.3604c0.1602-0.1797,0.5098-0.1797,0.6997,0C8.6699,16.4795,8.73,16.5996,8.73,16.7402
		c0,0.1299-0.0503,0.25-0.1504,0.3496C8.48,17.1895,8.3496,17.2402,8.23,17.2402z"/>
	<path d="M19.2998,15.1201c-0.1299,0-0.2598-0.0508-0.3604-0.1406c-0.0898-0.0996-0.1396-0.2197-0.1396-0.3594
		c0-0.1299,0.0498-0.25,0.1396-0.3506c0.21-0.1895,0.5205-0.1797,0.71,0c0.1006,0.1006,0.1504,0.2207,0.1504,0.3506
		c0,0.1396-0.0596,0.2695-0.1504,0.3594C19.5596,15.0693,19.4297,15.1201,19.2998,15.1201z"/>
	<path d="M5.1426,17.8506c-0.0327,0-0.0654-0.0029-0.0986-0.0098L4.3853,17.709c-0.5093-0.1035-0.9028-0.498-1.0034-1.0059
		L1.8232,8.8315C1.687,8.1401,2.1377,7.4658,2.8291,7.3281l9.9834-1.9766c0.4941-0.0967,1.0029,0.1055,1.293,0.5171l2.5098,3.5562
		l4.3691-0.1816c1.0039-0.0488,1.9062,0.6543,2.1045,1.6567l0.4004,2.0239c0.0664,0.334-0.001,0.6758-0.1914,0.96
		c-0.1904,0.2832-0.4795,0.4766-0.8145,0.543c-0.2666,0.0547-0.5342-0.1221-0.5879-0.3926
		c-0.0537-0.2715,0.1221-0.5342,0.3926-0.5879c0.0742-0.0146,0.1377-0.0566,0.1787-0.1191c0.042-0.0615,0.0566-0.1357,0.042-0.209
		l-0.4004-2.0239c-0.1025-0.5151-0.5361-0.8696-1.083-0.8521l-4.6406,0.1929c-0.1719,0.0098-0.3311-0.0728-0.4287-0.2109
		l-2.667-3.7783c-0.0635-0.0908-0.1719-0.1353-0.2832-0.1128L3.0239,8.3091C2.873,8.3389,2.7744,8.4863,2.8047,8.6372l1.5581,7.8716
		c0.022,0.1104,0.1084,0.1973,0.2197,0.2197l0.6577,0.1318c0.271,0.0537,0.4463,0.3174,0.3921,0.5879
		C5.585,17.6865,5.376,17.8506,5.1426,17.8506z"/>
	<path d="M1.8135,16.4326c-0.2339,0-0.4429-0.165-0.4897-0.4033l-0.8711-4.397c-0.0532-0.271,0.1226-0.5342,0.3936-0.5874
		l1.8521-0.3667c0.1304-0.0273,0.2651,0.0005,0.3755,0.0747c0.1099,0.0737,0.1865,0.1885,0.2119,0.3184l0.8711,4.3984
		c0.0254,0.1299-0.0015,0.2646-0.0752,0.375s-0.1885,0.1865-0.3184,0.2119l-1.8521,0.3662
		C1.8784,16.4297,1.8457,16.4326,1.8135,16.4326z M1.5308,11.9287l0.6768,3.416l0.8711-0.1719l-0.6768-3.417L1.5308,11.9287z"/>
	<path d="M3.0723,13.0674c-0.2339,0-0.4429-0.165-0.4897-0.4033c-0.0537-0.2705,0.1221-0.5332,0.3931-0.5869l13.292-2.6323
		c0.2637-0.0527,0.5332,0.1226,0.5869,0.3936s-0.1221,0.5342-0.3936,0.5874l-13.291,2.6318
		C3.1372,13.0645,3.1045,13.0674,3.0723,13.0674z"/>
	<path d="M10.7969,11.5376c-0.2339,0-0.4429-0.1646-0.4897-0.4028L9.3965,6.5376C9.3433,6.2666,9.519,6.0034,9.79,5.9497
		c0.2695-0.0552,0.5337,0.1226,0.5874,0.3936l0.9106,4.5972c0.0532,0.271-0.1226,0.5342-0.3936,0.5879
		C10.8618,11.5347,10.8291,11.5376,10.7969,11.5376z"/>
	<path d="M6.2495,12.4385c-0.2339,0-0.4429-0.165-0.4897-0.4033L4.8491,7.438C4.7959,7.167,4.9717,6.9038,5.2427,6.8501
		c0.2686-0.0522,0.5342,0.1221,0.5874,0.3936l0.9106,4.5972c0.0532,0.2705-0.1226,0.5342-0.3936,0.5879
		C6.3145,12.4346,6.2817,12.4385,6.2495,12.4385z"/>
	<path d="M3.1753,6.1768c-0.2339,0-0.4429-0.1646-0.4902-0.4028c-0.0532-0.271,0.1226-0.5342,0.3936-0.5874l7.8701-1.5586
		c0.2681-0.0518,0.5342,0.1221,0.5879,0.3936c0.0532,0.271-0.1226,0.5342-0.3936,0.5879L3.2729,6.1675
		C3.2402,6.1738,3.2075,6.1768,3.1753,6.1768z"/>
	<path d="M0.6641,21.917c-0.1421,0-0.2832-0.0596-0.3818-0.1768c-0.1787-0.2109-0.1528-0.5264,0.0581-0.7051
		c0.9775-0.8281,8.8062-4.1982,14.3481-2.7764c0.6826-0.6162,2.8633-2.374,5.2695-2.1631c1.4482,0.1328,2.6973,0.9531,3.71,2.4375
		c0.1553,0.2285,0.0967,0.54-0.1309,0.6953s-0.5391,0.0986-0.6953-0.1309c-0.8369-1.2275-1.8379-1.9023-2.9746-2.0059
		c-2.3926-0.2148-4.6621,2.0527-4.6846,2.0752c-0.1299,0.1299-0.3203,0.1758-0.4951,0.1289
		c-5.02-1.4609-12.8394,1.7715-13.7007,2.5029C0.8931,21.8779,0.7778,21.917,0.6641,21.917z"/>
</g>
<rect x="-0.0137" fill="none" width="24" height="24"/>
</svg>
