<?xml version="1.0" encoding="utf-8"?>
<!-- Generator: Adobe Illustrator 18.1.0, SVG Export Plug-In . SVG Version: 6.00 Build 0)  -->
<svg version="1.1" id="Layer_1" xmlns="http://www.w3.org/2000/svg" xmlns:xlink="http://www.w3.org/1999/xlink" x="0px" y="0px"
	 width="24px" height="24px" viewBox="0 0 24 24" enable-background="new 0 0 24 24" xml:space="preserve">
<g>
	<path d="M12.0146,23.9619H0.5381c-0.2764,0-0.5-0.2236-0.5-0.5V11.9854c0-6.6016,5.3726-11.9727,11.9766-11.9727
		c6.6016,0,11.9727,5.3711,11.9727,11.9727C23.9873,18.5889,18.6162,23.9619,12.0146,23.9619z M1.0381,22.9619h10.9766
		c6.0508,0,10.9727-4.9238,10.9727-10.9766c0-6.0503-4.9219-10.9727-10.9727-10.9727c-6.0527,0-10.9766,4.9224-10.9766,10.9727
		V22.9619z"/>
	<path d="M16.166,17.9766H5.9399c-0.4907,0-0.8896-0.4014-0.8896-0.8955v-1.3906c0-0.3672,0.229-0.7031,0.5698-0.835
		c2.7759-1.0742,3.4312-1.5625,3.585-1.7324v-0.2295c-0.3306-0.3857-0.5918-0.8701-0.7651-1.4199
		c-0.2314-0.2168-0.3848-0.5107-0.4287-0.8306c-0.0449-0.3242,0.0229-0.6445,0.1914-0.9199V8.6357
		c0-1.6431,1.0923-2.6636,2.8511-2.6636c1.7852,0,2.8506,0.9956,2.8506,2.6636v1.0869c0.1689,0.2764,0.2363,0.5972,0.1914,0.9219
		c-0.0449,0.3198-0.1982,0.6133-0.4297,0.8301c-0.1729,0.5488-0.4346,1.0332-0.7646,1.4189v0.2412
		c0.126,0.1377,0.748,0.623,3.585,1.7188c0.3418,0.1338,0.5703,0.4697,0.5703,0.8369v1.3906
		C17.0566,17.5752,16.6572,17.9766,16.166,17.9766z M6.0503,16.9766h10.0063v-1.2168c-3.5664-1.3828-4.0039-1.9404-4.1328-2.3555
		c-0.0146-0.0479-0.0225-0.0977-0.0225-0.1484v-0.5557c0-0.1309,0.0513-0.2559,0.1426-0.3496
		c0.3125-0.3203,0.5566-0.7695,0.7051-1.2993c0.0312-0.1113,0.0996-0.208,0.1943-0.2744c0.0879-0.0615,0.1465-0.1602,0.1621-0.27
		c0.0107-0.0786,0.0039-0.1968-0.0898-0.312c-0.0723-0.0889-0.1113-0.2002-0.1113-0.3149V8.6357
		c0-1.1196-0.6055-1.6636-1.8506-1.6636c-1.2285,0-1.8511,0.5596-1.8511,1.6636v1.2446c0,0.1147-0.0396,0.2261-0.1123,0.3154
		c-0.0928,0.1147-0.0996,0.2319-0.0889,0.3105c0.0156,0.1099,0.0747,0.2085,0.1626,0.2705
		c0.0942,0.0664,0.1626,0.1631,0.1934,0.2744c0.1479,0.5293,0.3916,0.979,0.7051,1.2993c0.0913,0.0938,0.1426,0.2188,0.1426,0.3496
		v0.5557c0,0.0508-0.0078,0.1006-0.0225,0.1484c-0.1289,0.4141-0.5664,0.9727-4.1323,2.3564V16.9766z"/>
</g>
<rect x="0.0005" y="0.0004" fill="none" width="24" height="24"/>
</svg>
