<?xml version="1.0" encoding="utf-8"?>
<!-- Generator: Adobe Illustrator 18.1.0, SVG Export Plug-In . SVG Version: 6.00 Build 0)  -->
<svg version="1.1" id="Layer_1" xmlns="http://www.w3.org/2000/svg" xmlns:xlink="http://www.w3.org/1999/xlink" x="0px" y="0px"
	 width="24px" height="24px" viewBox="0 0 24 24" enable-background="new 0 0 24 24" xml:space="preserve">
<g>
	<path d="M14.7783,21.4238c-0.084,0-0.1689-0.0205-0.2471-0.0654L1.8208,14.1348c-0.2778-0.1582-0.4756-0.4131-0.5576-0.7197
		c-0.082-0.3047-0.0391-0.623,0.1206-0.8955L4.4136,7.355c0.3281-0.5591,1.0562-0.7505,1.6201-0.4302l4.2222,2.3994
		c0.2402,0.1362,0.3242,0.4414,0.1875,0.6816c-0.1362,0.2393-0.4409,0.3232-0.6816,0.1875L5.5396,7.7939
		C5.4473,7.7422,5.3271,7.772,5.2759,7.8608l-3.0293,5.1646c-0.0298,0.0508-0.0259,0.0996-0.0176,0.1309
		c0.0068,0.0264,0.0278,0.0762,0.0859,0.1094l12.7104,7.2236c0.2402,0.1367,0.3242,0.4414,0.1875,0.6816
		C15.1211,21.333,14.9521,21.4238,14.7783,21.4238z"/>
	<path d="M15.1348,18.9521c-0.1709,0-0.3379-0.0879-0.4316-0.2471L7.1567,5.8369c-0.1602-0.272-0.2031-0.5898-0.1216-0.8945
		c0.082-0.3071,0.2803-0.563,0.5581-0.7207l5.2466-2.9819c0.5654-0.3198,1.2939-0.1289,1.6201,0.4312l2.499,4.1826
		c0.1416,0.2368,0.0635,0.5439-0.1729,0.6855c-0.2383,0.1392-0.5449,0.0645-0.6865-0.1729l-2.501-4.187
		c-0.0518-0.0908-0.1709-0.1235-0.2646-0.0703L8.0874,5.0908C8.0288,5.124,8.0083,5.1738,8.001,5.2007
		C7.9927,5.2319,7.9888,5.2798,8.019,5.3306l7.5474,12.8687c0.1396,0.2383,0.0596,0.5449-0.1787,0.6846
		C15.3086,18.9297,15.2207,18.9521,15.1348,18.9521z"/>
	<path d="M22.8506,24.0029H17.208c-0.6504,0-1.1787-0.5283-1.1787-1.1787V1.1816c0-0.6499,0.5283-1.1787,1.1787-1.1787h5.6426
		c0.6504,0,1.1787,0.5288,1.1787,1.1787v21.6426C24.0293,23.4746,23.501,24.0029,22.8506,24.0029z M17.208,1.0029
		c-0.0986,0-0.1787,0.0801-0.1787,0.1787v21.6426c0,0.0986,0.0801,0.1787,0.1787,0.1787h5.6426
		c0.0986,0,0.1787-0.0801,0.1787-0.1787V1.1816c0-0.0986-0.0801-0.1787-0.1787-0.1787H17.208z"/>
	<path d="M14.5361,24.0029H1.208c-0.6504,0-1.1792-0.5283-1.1792-1.1787v-5.6416c0-0.6504,0.5288-1.1797,1.1792-1.1797H7
		c0.2764,0,0.5,0.2236,0.5,0.5s-0.2236,0.5-0.5,0.5H1.208c-0.0986,0-0.1792,0.0811-0.1792,0.1797v5.6416
		c0,0.0986,0.0806,0.1787,0.1792,0.1787h13.3281c0.2764,0,0.5,0.2236,0.5,0.5S14.8125,24.0029,14.5361,24.0029z"/>
	<path d="M20.0303,21c-0.1309,0-0.2607-0.0498-0.3506-0.1406c-0.0996-0.0996-0.1494-0.2197-0.1494-0.3594
		c0-0.1299,0.0498-0.2598,0.1494-0.3506c0.1797-0.1895,0.5098-0.1895,0.7002-0.0098c0.0996,0.1104,0.1504,0.2402,0.1504,0.3604
		c0,0.1299-0.0508,0.2598-0.1406,0.3496C20.2803,20.9502,20.1602,21,20.0303,21z"/>
	<path d="M22.0293,18.0029h-4c-0.2764,0-0.5-0.2236-0.5-0.5s0.2236-0.5,0.5-0.5h4c0.2764,0,0.5,0.2236,0.5,0.5
		S22.3057,18.0029,22.0293,18.0029z"/>
</g>
<rect x="0.0293" y="0.0001" fill="none" width="24" height="24"/>
</svg>
