<?xml version="1.0" encoding="utf-8"?>
<!-- Generator: Adobe Illustrator 18.1.0, SVG Export Plug-In . SVG Version: 6.00 Build 0)  -->
<svg version="1.1" id="Layer_1" xmlns="http://www.w3.org/2000/svg" xmlns:xlink="http://www.w3.org/1999/xlink" x="0px" y="0px"
	 width="24px" height="24px" viewBox="0 0 24 24" enable-background="new 0 0 24 24" xml:space="preserve">
<g>
	<path d="M11.9897,23.8115c-0.7808,0-1.4023-0.2705-1.8481-0.8047C9.271,21.9629,9.2495,20.0576,9.52,17.9326
		c-1.3413,1.7607-2.748,3.1621-4.2061,3.1621c-0.6138,0-1.1768-0.252-1.6733-0.748c-0.5518-0.5518-0.7993-1.1826-0.7363-1.876
		c0.1226-1.3564,1.4517-2.7168,3.1436-4.0264c-0.7393,0.1006-1.4697,0.167-2.1597,0.167c-3.0591,0-3.7012-1.4238-3.7012-2.6191
		c0-1.1982,0.6523-2.6265,3.7588-2.6265c0.6724,0,1.395,0.062,2.1162,0.1543C4.3911,8.248,3.0415,6.9131,2.9141,5.5225
		C2.8506,4.8286,3.0991,4.1958,3.6528,3.6421c0.5063-0.5063,1.0728-0.7632,1.6836-0.7632c1.189,0,2.4521,0.9292,4.1758,3.1318
		c-0.2573-2.0278-0.2632-3.9614,0.6235-5.019c0.4468-0.5322,1.0703-0.8022,1.8535-0.8022c0.7861,0,1.4092,0.2705,1.8535,0.8042
		c0.8848,1.062,0.8691,3.0073,0.5967,5.0532c1.3223-1.7183,2.7656-3.1523,4.2314-3.1523c0.6143,0,1.1768,0.2515,1.6729,0.7476
		c0.5557,0.5552,0.8047,1.188,0.7412,1.8804c-0.126,1.3789-1.5146,2.7441-3.1543,3.998c0.7236-0.0933,1.4492-0.1558,2.123-0.1558
		c3.1045,0,3.7559,1.4287,3.7559,2.6274c0,0.9414-0.4043,1.6689-1.1699,2.1045c-0.6045,0.3438-1.4277,0.5107-2.5176,0.5107l0,0
		c-0.6846,0-1.4238-0.0664-2.1787-0.167c1.8486,1.4258,3.0322,2.7129,3.1514,4.0283c0.0625,0.6934-0.1865,1.3252-0.7393,1.8779
		c-0.498,0.498-1.0615,0.751-1.6738,0.751c-1.4609,0-2.9141-1.4648-4.249-3.2207c0.2842,2.0732,0.3066,4.0439-0.5889,5.124
		C13.3975,23.5391,12.7734,23.8115,11.9897,23.8115z M10.3447,15.4268c0.064,0,0.1289,0.0127,0.1909,0.0381
		c0.2178,0.0898,0.3433,0.3193,0.3008,0.5518c-0.3037,1.668-0.936,5.1396,0.0732,6.3496c0.25,0.2998,0.6035,0.4453,1.0801,0.4453
		c0.479,0,0.8335-0.1465,1.0835-0.4492c1.0049-1.2119,0.3623-4.6152,0.0176-6.4443c-0.0439-0.2324,0.0811-0.4639,0.2998-0.5547
		c0.2197-0.0889,0.4697-0.0156,0.6045,0.1797c1.0107,1.4785,3.1143,4.5547,4.6865,4.5547c0.3428,0,0.6592-0.1504,0.9668-0.458
		c0.3379-0.3379,0.4854-0.6924,0.4502-1.0811c-0.1416-1.5654-3.0449-3.5742-4.4395-4.54c-0.1943-0.1338-0.2676-0.3848-0.1777-0.6025
		s0.3145-0.3389,0.5518-0.3008c1.3955,0.2559,2.8564,0.4922,4.0889,0.4922l0,0c0.8994,0,1.5791-0.1279,2.0234-0.3799
		c0.4531-0.2578,0.6641-0.6504,0.6641-1.2354c0-0.7578-0.3135-1.6274-2.7559-1.6274c-1.2607,0-2.75,0.2397-4.041,0.4741
		c-0.2266,0.0415-0.4609-0.084-0.5508-0.3013c-0.0898-0.2183-0.0156-0.4692,0.1787-0.6025
		c1.3984-0.9634,4.3076-2.9668,4.4482-4.5039c0.0361-0.3877-0.1123-0.7417-0.4521-1.082c-0.3057-0.3057-0.6221-0.4546-0.9658-0.4546
		c-1.5801,0-3.7354,3.1152-4.6553,4.4453c-0.1348,0.1929-0.3896,0.2661-0.6025,0.1772c-0.2178-0.0903-0.3428-0.3208-0.3008-0.5522
		c0.3076-1.6709,0.9482-5.1475-0.0381-6.3311c-0.248-0.2988-0.6035-0.4443-1.085-0.4443c-0.4805,0-0.8359,0.1455-1.0869,0.4448
		c-0.9824,1.1709-0.3999,4.4648-0.0874,6.2344c0.041,0.231-0.084,0.459-0.3008,0.5488c-0.2153,0.0889-0.4663,0.0176-0.6011-0.1753
		C8.4922,6.2104,6.688,3.8789,5.3364,3.8789c-0.3403,0-0.6602,0.1538-0.9766,0.4702C4.0215,4.6875,3.8745,5.0415,3.9102,5.4316
		C4.0508,6.9688,6.8516,8.8984,8.356,9.9351c0.1938,0.1338,0.2686,0.3848,0.1787,0.6025c-0.0903,0.2183-0.3228,0.3438-0.5518,0.3013
		c-1.2881-0.2344-2.7754-0.4731-4.0371-0.4731c-2.4453,0-2.7588,0.8691-2.7588,1.6265c0,0.7539,0.3071,1.6191,2.7012,1.6191
		c1.2598,0,2.7041-0.2451,4.0752-0.4961c0.2329-0.0391,0.4614,0.083,0.5518,0.3008s0.0161,0.4688-0.1777,0.6025
		c-1.2852,0.8887-4.2944,2.9678-4.4375,4.542c-0.0352,0.3896,0.1113,0.7422,0.4478,1.0791
		c0.3066,0.3066,0.6226,0.4551,0.9663,0.4551c1.5479,0,3.5459-2.8955,4.6191-4.4521
		C10.0288,15.5039,10.1846,15.4268,10.3447,15.4268z"/>
	<path d="M11.9287,14.8301c-1.5703,0-2.8477-1.2773-2.8477-2.8477s1.2773-2.8481,2.8477-2.8481s2.8477,1.2778,2.8477,2.8481
		S13.499,14.8301,11.9287,14.8301z M11.9287,10.1343c-1.019,0-1.8477,0.8291-1.8477,1.8481c0,1.0186,0.8286,1.8477,1.8477,1.8477
		c1.0186,0,1.8477-0.8291,1.8477-1.8477C13.7764,10.9634,12.9473,10.1343,11.9287,10.1343z"/>
</g>
<rect x="-0.0008" y="-0.0147" fill="none" width="24" height="24"/>
</svg>
