<?xml version="1.0" encoding="utf-8"?>
<!-- Generator: Adobe Illustrator 18.1.0, SVG Export Plug-In . SVG Version: 6.00 Build 0)  -->
<svg version="1.1" id="Layer_1" xmlns="http://www.w3.org/2000/svg" xmlns:xlink="http://www.w3.org/1999/xlink" x="0px" y="0px"
	 width="24px" height="24px" viewBox="0 0 24 24" enable-background="new 0 0 24 24" xml:space="preserve">
<g>
	<path d="M5.5801,13.9521c-1.354,0-2.4556-1.1016-2.4556-2.4551c0-1.354,1.1016-2.4556,2.4556-2.4556s2.4556,1.1016,2.4556,2.4556
		C8.0356,12.8506,6.9341,13.9521,5.5801,13.9521z M5.5801,10.0415c-0.8027,0-1.4556,0.6528-1.4556,1.4556
		s0.6528,1.4551,1.4556,1.4551s1.4556-0.6523,1.4556-1.4551S6.3828,10.0415,5.5801,10.0415z"/>
	<path d="M5.3892,22.0049c-0.1025,0-0.2056-0.0312-0.2949-0.0967c-0.2227-0.1631-0.271-0.4756-0.1079-0.6982l6.0322-8.2422
		c0.0938-0.1289,0.2427-0.2051,0.4019-0.2051c0.0005,0,0.001,0,0.0015,0c0.1582,0,0.3071,0.0752,0.4019,0.2021l2.187,2.9512
		l2.9775-4.6846c0.0898-0.1416,0.2441-0.2285,0.4111-0.2319c0.0039,0,0.0078,0,0.0107,0c0.1631,0,0.3174,0.0801,0.4102,0.2148
		l4.1182,5.9243c0.1582,0.2266,0.1016,0.5381-0.125,0.6953s-0.5381,0.1016-0.6953-0.125l-3.6895-5.3066l-2.9648,4.6641
		c-0.0879,0.1387-0.2393,0.2256-0.4043,0.2314c-0.1621-0.0098-0.3213-0.0703-0.4189-0.2021l-2.2163-2.9902L5.793,21.7998
		C5.6953,21.9336,5.5435,22.0049,5.3892,22.0049z"/>
	<path d="M22.5234,24H1.4678c-0.8169,0-1.4814-0.6426-1.4814-1.4316V7.5078C-0.0137,6.7046,0.6787,6,1.4678,6h5.8564l3.4751-3.5635
		c0.1934-0.1978,0.5098-0.2002,0.707-0.0088c0.1978,0.1929,0.2017,0.5093,0.0088,0.707L7.8931,6.8491
		C7.7988,6.9458,7.6699,7,7.5352,7H1.4678C1.2295,7,0.9863,7.2563,0.9863,7.5078v15.0605C0.9863,22.7979,1.2114,23,1.4678,23
		h21.0557c0.251,0,0.4629-0.1973,0.4629-0.4316V7.5078C22.9863,7.2515,22.7568,7,22.5234,7h-6.0674
		c-0.1348,0-0.2637-0.0542-0.3584-0.1509l-3.623-3.7148c-0.1924-0.1978-0.1885-0.5142,0.0098-0.707
		c0.1963-0.1919,0.5127-0.1885,0.707,0.0088L16.667,6h5.8564c0.7793,0,1.4629,0.7046,1.4629,1.5078v15.0605
		C23.9863,23.3574,23.3301,24,22.5234,24z"/>
	<path d="M11.9956,3.6274c-0.9385,0-1.7021-0.7632-1.7021-1.7017s0.7637-1.7017,1.7021-1.7017c0.938,0,1.7017,0.7632,1.7017,1.7017
		S12.9336,3.6274,11.9956,3.6274z M11.9956,1.2241c-0.3872,0-0.7021,0.3149-0.7021,0.7017s0.3149,0.7017,0.7021,0.7017
		s0.7017-0.3149,0.7017-0.7017S12.3828,1.2241,11.9956,1.2241z"/>
	<path d="M16.4561,7H7.5352c-0.2764,0-0.5-0.2236-0.5-0.5S7.2588,6,7.5352,6h8.9209c0.2764,0,0.5,0.2236,0.5,0.5
		S16.7324,7,16.4561,7z"/>
</g>
<rect x="-0.0136" y="0.0002" fill="none" width="24" height="24"/>
</svg>
