<?xml version="1.0" encoding="utf-8"?>
<!-- Generator: Adobe Illustrator 18.1.0, SVG Export Plug-In . SVG Version: 6.00 Build 0)  -->
<svg version="1.1" id="Layer_1" xmlns="http://www.w3.org/2000/svg" xmlns:xlink="http://www.w3.org/1999/xlink" x="0px" y="0px"
	 width="24px" height="24px" viewBox="0 0 24 24" enable-background="new 0 0 24 24" xml:space="preserve">
<g>
	<path d="M3.1743,22.9531c-0.0869,0-0.1733-0.0225-0.2505-0.0674C2.8091,22.8193,2.7256,22.71,2.6914,22.582l-2.6162-9.79
		c-0.0713-0.2666,0.0869-0.541,0.354-0.6123l20.1665-5.3892c0.2715-0.0732,0.54,0.0884,0.6123,0.354l2.6172,9.79
		c0.0342,0.1279,0.0156,0.2646-0.0508,0.3789c-0.0664,0.1152-0.1758,0.1992-0.3037,0.2334L3.3032,22.9365
		C3.2607,22.9473,3.2178,22.9531,3.1743,22.9531z M1.1704,13.0166l2.3579,8.8242L22.7295,16.71l-2.3584-8.8242L1.1704,13.0166z"/>
	<path d="M8.5151,3.8296c-0.6821,0-1.3125-0.3955-1.606-1.0083c-0.2588-0.541-0.2358-1.1704,0.0615-1.6836
		c0.2974-0.5137,0.832-0.8462,1.4297-0.8906c0.0122-0.001,0.1147-0.0049,0.127-0.0049c0.6792,0,1.3086,0.394,1.603,1.0034
		c0.2622,0.542,0.2402,1.1733-0.0581,1.689C9.7734,3.4497,9.2363,3.7832,8.6357,3.8252C8.624,3.8262,8.5269,3.8296,8.5151,3.8296z
		 M8.5273,1.2422c-0.3252,0.0225-0.5576,0.166-0.6914,0.3965c-0.1338,0.231-0.1426,0.5044-0.0244,0.751
		c0.126,0.2632,0.4087,0.4399,0.7036,0.4399v0.5l0.0503-0.5015c0.2734-0.0195,0.5073-0.1636,0.6411-0.395
		C9.3408,2.2017,9.3491,1.9272,9.23,1.6807C9.1035,1.4185,8.8208,1.2422,8.5273,1.2422z"/>
	<path d="M4.481,12.1152c-0.0649,0-0.1309-0.0127-0.1943-0.04c-0.2544-0.1069-0.3735-0.4004-0.2661-0.6548l3.5381-8.3877
		C7.6655,2.7778,7.959,2.6582,8.2134,2.7666C8.4678,2.8735,8.5869,3.167,8.4795,3.4214l-3.5381,8.3877
		C4.8613,12,4.6758,12.1152,4.481,12.1152z"/>
	<path d="M16.8018,8.8223c-0.1055,0-0.2109-0.0327-0.3008-0.1006L9.2241,3.248C9.0034,3.082,8.9595,2.7686,9.1255,2.5479
		c0.165-0.2207,0.4785-0.2651,0.7002-0.0986l7.2769,5.4736c0.2207,0.166,0.2646,0.4795,0.0986,0.7002
		C17.1035,8.7534,16.9531,8.8223,16.8018,8.8223z"/>
	<path d="M13.2705,16.8857c-0.0869,0-0.1738-0.0225-0.25-0.0674c-0.1152-0.0664-0.1992-0.1758-0.2334-0.3037l-0.8774-3.2881
		c-0.0342-0.1279-0.0161-0.2646,0.0503-0.3789c0.0664-0.1152,0.1758-0.1992,0.3037-0.2334l2.1289-0.5684
		c0.2686-0.0674,0.541,0.0879,0.6123,0.3545s-0.0879,0.541-0.3545,0.6123l-1.6455,0.4395l0.6201,2.3213l1.6445-0.4395
		c0.2686-0.0684,0.542,0.0889,0.6123,0.3545c0.0713,0.2666-0.0879,0.541-0.3545,0.6123l-2.1279,0.5684
		C13.3574,16.8799,13.3135,16.8857,13.2705,16.8857z"/>
	<path d="M12.832,15.2422c-0.2217,0-0.4229-0.1475-0.4834-0.3711c-0.0713-0.2666,0.0879-0.541,0.3545-0.6123l1.8271-0.4883
		c0.2686-0.0693,0.54,0.0889,0.6123,0.3545c0.0713,0.2666-0.0879,0.541-0.3545,0.6123l-1.8271,0.4883
		C12.918,15.2363,12.874,15.2422,12.832,15.2422z"/>
	<path d="M16.8008,15.9434c-0.2217,0-0.4238-0.1475-0.4834-0.3711l-0.8779-3.2881c-0.0547-0.207,0.0273-0.4253,0.2051-0.5444
		c0.1797-0.1196,0.4111-0.1128,0.582,0.0181l2.248,1.7168l-0.4824-1.8057c-0.0713-0.2666,0.0879-0.541,0.3545-0.6118
		c0.2695-0.0752,0.541,0.0879,0.6123,0.354l0.8594,3.2207c0.0547,0.207-0.0273,0.4258-0.2051,0.5449
		c-0.1797,0.1172-0.4121,0.1113-0.582-0.0186l-2.2471-1.7168l0.5,1.873c0.0713,0.2666-0.0879,0.541-0.3545,0.6123
		C16.8867,15.9375,16.8428,15.9434,16.8008,15.9434z"/>
	<path d="M9.7197,17.8359c-0.2207,0-0.4229-0.1475-0.4824-0.3711l-0.4014-1.5029c0-0.002-0.0005-0.0039-0.0015-0.0059
		l-0.4746-1.7793c-0.0342-0.1279-0.0161-0.2646,0.0503-0.3789c0.0664-0.1152,0.1758-0.1992,0.3037-0.2334l1.2334-0.3291
		c0.0562-0.0166,0.7217-0.2051,1.2793,0.1035c0.3052,0.1689,0.5181,0.4521,0.6157,0.8193c0.2739,1.0264-0.5425,1.6514-1.1577,1.8223
		l-0.7544,0.2031l0.2729,1.0234c0.0713,0.2666-0.0874,0.541-0.354,0.6123C9.8062,17.8301,9.7627,17.8359,9.7197,17.8359z
		 M9.4546,14.4023l0.2178,0.8145l0.749-0.2012c0.1284-0.0381,0.5615-0.1992,0.4551-0.5996
		c-0.0356-0.1318-0.0898-0.1768-0.1328-0.2021c-0.1484-0.083-0.418-0.0479-0.5244-0.0156L9.4546,14.4023z"/>
	<path d="M6.292,18.6992c-0.9604,0-1.813-0.6807-2.0728-1.6562c-0.313-1.1729,0.3389-2.3682,1.4531-2.666
		c1.0967-0.2959,2.2803,0.4365,2.5879,1.5879c0.313,1.1729-0.3389,2.3691-1.4531,2.667C6.6387,18.6768,6.4653,18.6992,6.292,18.6992
		z M6.188,15.3096c-0.0869,0-0.1733,0.0117-0.2578,0.0342c-0.5815,0.1553-0.9155,0.8018-0.7451,1.4414
		c0.168,0.6299,0.7827,1.0332,1.3643,0.8799c0.5815-0.1553,0.9155-0.8018,0.7451-1.4424
		C7.1504,15.6855,6.6958,15.3096,6.188,15.3096z"/>
</g>
<rect x="-0.0136" fill="none" width="24" height="24"/>
</svg>
