<?xml version="1.0" encoding="utf-8"?>
<!-- Generator: Adobe Illustrator 18.1.0, SVG Export Plug-In . SVG Version: 6.00 Build 0)  -->
<svg version="1.1" id="Layer_1" xmlns="http://www.w3.org/2000/svg" xmlns:xlink="http://www.w3.org/1999/xlink" x="0px" y="0px"
	 width="24px" height="24px" viewBox="0 0 24 24" enable-background="new 0 0 24 24" xml:space="preserve">
<g>
	<g>
		<g>
			<path d="M8.9575,4.2632c-0.1831,0-0.3594-0.1006-0.4473-0.2754c-0.124-0.2466-0.0249-0.5469,0.2222-0.6714l0.4463-0.2246
				c0.2441-0.125,0.5469-0.0254,0.6714,0.2222c0.124,0.2466,0.0249,0.5469-0.2222,0.6714L9.1816,4.21
				C9.1099,4.2461,9.0332,4.2632,8.9575,4.2632z"/>
			<path d="M6.2705,5.6172c-0.1831,0-0.3589-0.1006-0.4468-0.2749C5.6992,5.0957,5.7983,4.7954,6.0449,4.6709l0.5371-0.271
				c0.2466-0.126,0.5474-0.0254,0.6714,0.2212C7.3779,4.8677,7.2788,5.168,7.0322,5.2925l-0.5371,0.271
				C6.4229,5.6001,6.3462,5.6172,6.2705,5.6172z"/>
			<path d="M3.6743,6.9253c-0.1831,0-0.3589-0.1006-0.4468-0.2749C3.103,6.4038,3.2021,6.103,3.4487,5.979l0.4468-0.2251
				c0.2466-0.126,0.5464-0.0254,0.6714,0.2212c0.1245,0.2466,0.0254,0.5474-0.2212,0.6714L3.8989,6.8716
				C3.8267,6.9082,3.75,6.9253,3.6743,6.9253z"/>
		</g>
	</g>
	<g>
		<g>
			<path d="M9.4033,4.0386h-0.5c-0.2764,0-0.5-0.2236-0.5-0.5s0.2236-0.5,0.5-0.5h0.5c0.2764,0,0.5,0.2236,0.5,0.5
				S9.6797,4.0386,9.4033,4.0386z"/>
			<path d="M6.7251,4.0386H6.1807c-0.2764,0-0.5-0.2236-0.5-0.5s0.2236-0.5,0.5-0.5h0.5444c0.2764,0,0.5,0.2236,0.5,0.5
				S7.0015,4.0386,6.7251,4.0386z"/>
			<path d="M4.0024,4.0386h-0.5c-0.2764,0-0.5-0.2236-0.5-0.5s0.2236-0.5,0.5-0.5h0.5c0.2764,0,0.5,0.2236,0.5,0.5
				S4.2788,4.0386,4.0024,4.0386z"/>
		</g>
	</g>
	<g>
		<g>
			<path d="M9.4028,4.0386c-0.0757,0-0.1523-0.0171-0.2246-0.0537L8.7319,3.7598C8.4854,3.6357,8.3862,3.335,8.5107,3.0884
				s0.4229-0.3472,0.6714-0.2212l0.4463,0.2251c0.2466,0.124,0.3457,0.4248,0.2212,0.6714C9.7617,3.938,9.5859,4.0386,9.4028,4.0386
				z"/>
			<path d="M6.8066,2.7305c-0.0757,0-0.1523-0.0171-0.2246-0.0537l-0.5371-0.271C5.7983,2.2812,5.6992,1.981,5.8237,1.7344
				C5.9487,1.4883,6.25,1.3887,6.4951,1.5132l0.5371,0.271C7.2788,1.9087,7.3779,2.209,7.2534,2.4556
				C7.1655,2.6299,6.9893,2.7305,6.8066,2.7305z"/>
			<path d="M4.1201,1.3765c-0.0757,0-0.1523-0.0171-0.2246-0.0537L3.4487,1.0977C3.2021,0.9736,3.103,0.6729,3.2275,0.4263
				c0.124-0.2466,0.4238-0.3462,0.6714-0.2212l0.4468,0.2251c0.2466,0.124,0.3457,0.4248,0.2212,0.6714
				C4.479,1.2759,4.3032,1.3765,4.1201,1.3765z"/>
		</g>
	</g>
	<path d="M15.8506,24.0029H9.2085c-0.6504,0-1.1792-0.5283-1.1792-1.1787V10.1816c0-0.6499,0.5288-1.1787,1.1792-1.1787h6.6421
		c0.6504,0,1.1787,0.5288,1.1787,1.1787v12.6426C17.0293,23.4746,16.501,24.0029,15.8506,24.0029z M9.2085,10.0029
		c-0.0986,0-0.1792,0.0801-0.1792,0.1787v12.6426c0,0.0986,0.0806,0.1787,0.1792,0.1787h6.6421
		c0.0986,0,0.1787-0.0801,0.1787-0.1787V10.1816c0-0.0986-0.0801-0.1787-0.1787-0.1787H9.2085z"/>
	<path d="M15.5293,10.0029h-6c-0.2764,0-0.5-0.2236-0.5-0.5V8.79c0-1.5107,1.3218-2.7871,2.8862-2.7871h1.2837
		c1.5078,0,2.8301,1.2261,2.8301,2.6235v0.8765C16.0293,9.7793,15.8057,10.0029,15.5293,10.0029z M10.0293,9.0029h5V8.6265
		c0-0.8345-0.8896-1.6235-1.8301-1.6235h-1.2837c-1.0049,0-1.8862,0.835-1.8862,1.7871V9.0029z"/>
	<path d="M12.5293,6.9248c-0.2764,0-0.5-0.2236-0.5-0.5V4.5029c0-0.2764,0.2236-0.5,0.5-0.5s0.5,0.2236,0.5,0.5v1.9219
		C13.0293,6.7012,12.8057,6.9248,12.5293,6.9248z"/>
	<path d="M13.5293,5.0029h-2c-0.2764,0-0.5-0.2236-0.5-0.5v-2c0-0.2764,0.2236-0.5,0.5-0.5h2c0.2764,0,0.5,0.2236,0.5,0.5v2
		C14.0293,4.7793,13.8057,5.0029,13.5293,5.0029z M12.0293,4.0029h1v-1h-1V4.0029z"/>
</g>
<rect x="0.0293" y="0.0001" fill="none" width="24" height="24"/>
</svg>
