<?xml version="1.0" encoding="utf-8"?>
<!-- Generator: Adobe Illustrator 18.1.1, SVG Export Plug-In . SVG Version: 6.00 Build 0)  -->
<svg version="1.1" id="Layer_1" xmlns="http://www.w3.org/2000/svg" xmlns:xlink="http://www.w3.org/1999/xlink" x="0px" y="0px"
	 width="24px" height="24px" viewBox="0 0 24 24" enable-background="new 0 0 24 24" xml:space="preserve">
<rect fill="none" width="24" height="24"/>
<g>
	<path d="M7.2969,5.8927c0.0698,0.0337,0.1436,0.0493,0.2163,0.0493c0.186,0,0.3647-0.1045,0.4512-0.2832
		C8.084,5.4103,7.9795,5.1115,7.7305,4.9914L5.845,4.0838c2.862-1.0479,5.8533-1.3494,8.5358-0.8361
		c0.2656,0.0474,0.5322-0.126,0.585-0.397c0.0518-0.2715-0.126-0.5332-0.3975-0.5854C11.7427,1.7231,8.6036,2.0246,5.6041,3.104
		l0.8481-1.7626c0.1196-0.249,0.0151-0.5479-0.2339-0.6675C5.9707,0.5558,5.6709,0.6593,5.5508,0.9079L4.1484,3.8224
		c-0.0027,0.0057-0.002,0.0119-0.0045,0.0177C4.1293,3.8735,4.1244,3.9089,4.1173,3.9447C4.1117,3.9734,4.1022,4.001,4.1017,4.0298
		c-0.0005,0.0292,0.0081,0.0576,0.0127,0.087C4.1201,4.1524,4.1236,4.1875,4.1368,4.221c0.0023,0.0059,0.0013,0.0121,0.0038,0.0179
		c0.0046,0.0106,0.0159,0.0148,0.0212,0.0249C4.1953,4.329,4.2429,4.3841,4.3033,4.4301c0.0167,0.0126,0.0299,0.0259,0.048,0.0363
		c0.0115,0.0067,0.0188,0.0176,0.031,0.0235L7.2969,5.8927z"/>
	<path d="M21.251,16.7341c-0.1504-0.5107-0.5215-0.8848-1.0439-1.0547c-0.3475-0.1131-0.7022-0.1171-1.0364-0.0446l1.6311-5.0199
		c0.165-0.5083,0.1221-1.0498-0.1201-1.5259s-0.6562-0.8291-1.1641-0.9941c-0.3401-0.1104-0.695-0.1196-1.0367-0.0458l0.0856-0.2633
		c0.165-0.5083,0.1221-1.0498-0.1201-1.5259s-0.6553-0.8291-1.1641-0.9941c-0.8286-0.2699-1.7026,0.0399-2.2034,0.6974
		c-0.2371-0.3051-0.5644-0.5451-0.9587-0.6735c-1.0469-0.3403-2.1782,0.2358-2.5205,1.2847l-1.9469,5.9928
		c-0.1757-0.5487-0.6903-0.9308-1.306-0.9503c-0.6333-0.0269-1.4531,0.3652-1.8477,1.5c-0.0615,0.1699-1.4868,4.1992-0.0532,7.624
		c0.002,0.0039,0.1982,0.3438,0.3613,0.8477c0.0684,0.2109,0.2646,0.3457,0.4756,0.3457c0.0508,0,0.103-0.0078,0.1543-0.0244
		c0.2627-0.085,0.4062-0.3672,0.3213-0.6299c-0.189-0.584-0.4165-0.9863-0.4204-0.9863c-1.2505-3.001,0.0879-6.7988,0.1035-6.8428
		c0.186-0.5332,0.5229-0.8281,0.874-0.835c0.1938,0.0068,0.3525,0.1123,0.3892,0.2422l0.2637,1.1445
		c0.0454,0.1973,0.0386,0.4043-0.02,0.5977l-0.5924,1.9589l-0.0004,0.001c0,0.0001,0,0.0001,0,0.0001L8.3525,16.57
		c-0.0091,0.0299-0.0052,0.0595-0.0085,0.0895c-0.0038,0.0347-0.0131,0.0693-0.0098,0.1032c0.0029,0.03,0.0163,0.0568,0.0245,0.0855
		c0.0094,0.0332,0.0143,0.0676,0.0303,0.098c0.013,0.0248,0.0345,0.0434,0.0515,0.0657c0.0219,0.0288,0.0401,0.0599,0.0681,0.0836
		c0.0223,0.0189,0.0516,0.0286,0.0774,0.0435c0.0302,0.0175,0.0563,0.0399,0.0908,0.0511c0.002,0.0007,0.0041,0.0004,0.0061,0.001
		c0.0014,0.0004,0.0023,0.0015,0.0037,0.002c0.0073,0.0022,0.0145,0.0002,0.0218,0.0021c0.0409,0.0104,0.082,0.0194,0.1227,0.0194
		c0.0068,0,0.012-0.0057,0.0188-0.006c0.0908-0.0035,0.1751-0.0315,0.2499-0.0801c0.0161-0.0104,0.0276-0.0225,0.0425-0.0347
		c0.0682-0.0557,0.1243-0.1251,0.1557-0.2129c0.0018-0.0049,0.0071-0.007,0.0087-0.012l3.2441-9.9854
		c0.1709-0.5239,0.7334-0.813,1.2607-0.6426c0.5244,0.1704,0.8115,0.7358,0.6416,1.2603l-2.0088,6.1821
		c-0.085,0.2627,0.0586,0.5449,0.3213,0.6299c0.2617,0.0869,0.5449-0.0586,0.6299-0.3213l2.3184-7.1333
		c0.1699-0.5244,0.7363-0.8101,1.2598-0.6416c0.2539,0.0825,0.4609,0.2588,0.582,0.4966c0.1211,0.2383,0.1426,0.5093,0.0596,0.7637
		l-2.627,8.084c-0.085,0.2627,0.0586,0.5449,0.3213,0.6299c0.0508,0.0166,0.1035,0.0244,0.1543,0.0244
		c0.005,0,0.0089-0.0043,0.0139-0.0045c0.0922-0.0025,0.1776-0.0319,0.2537-0.0813c0.0159-0.0102,0.0278-0.0214,0.0425-0.0334
		c0.0724-0.059,0.1347-0.1313,0.1655-0.2266l2.0088-6.1816c0.082-0.2539,0.2588-0.4604,0.4971-0.582s0.5117-0.1416,0.7637-0.0601
		c0.2539,0.0825,0.4609,0.2588,0.582,0.4966c0.1211,0.2383,0.1426,0.5093,0.0596,0.7637l-2.1631,6.6572l-0.1543,0.4756
		c-0.085,0.2627,0.0586,0.5449,0.3213,0.6299c0.0508,0.0166,0.1035,0.0244,0.1543,0.0244c0.2109,0,0.4072-0.1348,0.4756-0.3457
		l0.1543-0.4756c0.082-0.2539,0.2588-0.46,0.4971-0.5811c0.2373-0.123,0.5078-0.1436,0.7627-0.0605
		c0.5713,0.1855,0.4541,0.8379,0.3525,1.1592c-0.0107,0.0244-1.0928,2.4141-2.6465,3.9697
		c-0.3867,0.3867-0.7422,0.7891-1.0869,1.2305c-0.1699,0.2178-0.1309,0.5322,0.0869,0.7021
		c0.0918,0.0713,0.1992,0.1055,0.3076,0.1055c0.1484,0,0.2959-0.0664,0.3945-0.1924c0.3193-0.4092,0.6475-0.7812,1.0049-1.1387
		c1.6826-1.6846,2.8047-4.1621,2.8711-4.3174C21.3486,17.6364,21.373,17.1471,21.251,16.7341z"/>
</g>
</svg>
