<?xml version="1.0" encoding="utf-8"?>
<!-- Generator: Adobe Illustrator 18.1.0, SVG Export Plug-In . SVG Version: 6.00 Build 0)  -->
<svg version="1.1" id="Layer_1" xmlns="http://www.w3.org/2000/svg" xmlns:xlink="http://www.w3.org/1999/xlink" x="0px" y="0px"
	 width="24px" height="24px" viewBox="0 0 24 24" enable-background="new 0 0 24 24" xml:space="preserve">
<g>
	<path d="M12.4697,14.502c-0.2764,0-0.5-0.2236-0.5-0.5v-7.71c0-0.2764,0.2236-0.5,0.5-0.5s0.5,0.2236,0.5,0.5v7.71
		C12.9697,14.2783,12.7461,14.502,12.4697,14.502z"/>
	<path d="M10.8452,16.0117c-0.7939,0-1.4292-0.4062-1.6182-1.0361c-0.251-0.8369,0.3691-1.7373,1.4121-2.0508
		c1.0166-0.3047,2.0649,0.1211,2.3091,0.9326c0.127,0.4219,0.0283,0.8896-0.2686,1.2842c-0.2676,0.3535-0.6738,0.626-1.144,0.7666
		C11.3081,15.9775,11.0757,16.0117,10.8452,16.0117z M11.3286,13.8213c-0.1323,0-0.2676,0.0205-0.4019,0.0605
		c-0.5161,0.1553-0.8174,0.5537-0.7417,0.8066c0.0801,0.2666,0.5933,0.4043,1.063,0.2627c0.2646-0.0791,0.4951-0.2295,0.6328-0.4121
		c0.061-0.0811,0.1562-0.2393,0.1099-0.3936C11.9331,13.9551,11.6606,13.8213,11.3286,13.8213z"/>
	<path d="M14.0205,11.5283c-0.1455,0-0.29-0.0635-0.3887-0.1855c-0.1738-0.2148-0.1406-0.5298,0.0742-0.7031
		c0.5166-0.4175,0.751-0.8467,0.7178-1.3115c-0.0781-1.1045-1.6221-2.2559-2.21-2.6064c-0.2368-0.1411-0.3149-0.4478-0.1738-0.6851
		c0.1406-0.2368,0.4453-0.3169,0.6846-0.1748c0.1045,0.0625,2.5635,1.5415,2.6973,3.3931c0.0576,0.8047-0.3076,1.5322-1.0869,2.1621
		C14.2422,11.4917,14.1309,11.5283,14.0205,11.5283z"/>
	<path d="M16.4453,24.0088H7.5088c-1.396,0-2.5317-1.1357-2.5317-2.5312V2.5054c0-1.3955,1.1357-2.5312,2.5317-2.5312h8.9365
		c1.3955,0,2.5312,1.1353,2.5312,2.5308v18.9727C18.9766,22.873,17.8408,24.0088,16.4453,24.0088z M7.5088,0.9741
		c-0.8447,0-1.5317,0.687-1.5317,1.5312v18.9722c0,0.8447,0.687,1.5312,1.5317,1.5312h8.9365c0.8447,0,1.5312-0.6865,1.5312-1.5312
		V2.5049c0-0.8442-0.6865-1.5308-1.5312-1.5308H7.5088z"/>
	<path d="M11.9771,22.3828c-0.7461,0-1.3535-0.6064-1.3535-1.3525s0.6074-1.3535,1.3535-1.3535c0.7456,0,1.353,0.6074,1.353,1.3535
		S12.7227,22.3828,11.9771,22.3828z M11.9771,20.6768c-0.1948,0-0.3535,0.1582-0.3535,0.3535c0,0.1943,0.1587,0.3525,0.3535,0.3525
		s0.353-0.1582,0.353-0.3525C12.3301,20.835,12.1719,20.6768,11.9771,20.6768z"/>
	<path d="M18.4854,19H5.4858c-0.2764,0-0.5-0.2236-0.5-0.5v-15c0-0.2764,0.2236-0.5,0.5-0.5h12.9995c0.2764,0,0.5,0.2236,0.5,0.5v15
		C18.9854,18.7764,18.7617,19,18.4854,19z M5.9858,18h11.9995V4H5.9858V18z"/>
</g>
<rect x="-0.0137" y="0.0002" fill="none" width="24" height="24"/>
</svg>
