<?xml version="1.0" encoding="utf-8"?>
<!-- Generator: Adobe Illustrator 18.1.0, SVG Export Plug-In . SVG Version: 6.00 Build 0)  -->
<svg version="1.1" id="Layer_1" xmlns="http://www.w3.org/2000/svg" xmlns:xlink="http://www.w3.org/1999/xlink" x="0px" y="0px"
	 width="24px" height="24px" viewBox="0 0 24 24" enable-background="new 0 0 24 24" xml:space="preserve">
<g>
	<path d="M20.0254,12.6582c-0.9141,0-1.6572-0.7432-1.6572-1.6567s0.7432-1.6572,1.6572-1.6572s1.6572,0.7437,1.6572,1.6572
		S20.9395,12.6582,20.0254,12.6582z M20.0254,10.3442c-0.3623,0-0.6572,0.2949-0.6572,0.6572s0.2949,0.6567,0.6572,0.6567
		s0.6572-0.2944,0.6572-0.6567S20.3877,10.3442,20.0254,10.3442z"/>
	<path d="M15.2285,22H3.7847c-0.9746,0-1.7983-0.8672-1.7983-1.8936v-9.3081C1.9863,9.8066,2.793,9,3.7847,9h11.4438
		c0.9854,0,1.7578,0.79,1.7578,1.7983v9.3081C16.9863,21.1328,16.1816,22,15.2285,22z M3.7847,10
		c-0.4404,0-0.7983,0.3579-0.7983,0.7983v9.3081C2.9863,20.5742,3.3667,21,3.7847,21h11.4438c0.4463,0,0.7578-0.4707,0.7578-0.8936
		v-9.3081c0-0.4551-0.3262-0.7983-0.7578-0.7983H3.7847z"/>
	<path d="M21.6816,24H2.3438c-1.2339,0-2.3574-1.1611-2.3574-2.4355V9.2158C-0.0137,7.9941,1.0439,7,2.3438,7h19.3379
		c1.2705,0,2.3047,0.9941,2.3047,2.2158v12.3486C23.9863,22.8623,22.9092,24,21.6816,24z M2.3438,8
		C1.6079,8,0.9863,8.5566,0.9863,9.2158v12.3486C0.9863,22.2891,1.6587,23,2.3438,23h19.3379c0.6709,0,1.3047-0.6973,1.3047-1.4355
		V9.2158C22.9863,8.5342,22.4131,8,21.6816,8H2.3438z"/>
	<path d="M11.8667,8c-0.1543,0-0.2998-0.0713-0.3945-0.1934L7.5229,2.7266C7.353,2.5088,7.3926,2.1948,7.6108,2.0254
		C7.8281,1.855,8.1431,1.895,8.312,2.1133l3.5547,4.5723l3.5542-4.5723c0.1699-0.2188,0.4834-0.2588,0.7012-0.0879
		c0.2178,0.1694,0.2578,0.4834,0.0879,0.7012l-3.9482,5.0801C12.167,7.9287,12.0215,8,11.8667,8z"/>
	<path d="M16.418,3.1304c-0.8193,0-1.4854-0.6665-1.4854-1.4854s0.666-1.4849,1.4854-1.4849s1.4854,0.666,1.4854,1.4849
		S17.2373,3.1304,16.418,3.1304z M16.418,1.1602c-0.2676,0-0.4854,0.2173-0.4854,0.4849s0.2178,0.4854,0.4854,0.4854
		s0.4854-0.2178,0.4854-0.4854S16.6855,1.1602,16.418,1.1602z"/>
	<path d="M7.3154,3.1304c-0.8188,0-1.4854-0.6665-1.4854-1.4854s0.6665-1.4849,1.4854-1.4849s1.4849,0.666,1.4849,1.4849
		S8.1343,3.1304,7.3154,3.1304z M7.3154,1.1602c-0.2676,0-0.4854,0.2173-0.4854,0.4849s0.2178,0.4854,0.4854,0.4854
		S7.8003,1.9126,7.8003,1.645S7.583,1.1602,7.3154,1.1602z"/>
</g>
<rect x="-0.0136" y="0.0002" fill="none" width="24" height="24"/>
</svg>
