<?xml version="1.0" encoding="utf-8"?>
<!-- Generator: Adobe Illustrator 18.1.0, SVG Export Plug-In . SVG Version: 6.00 Build 0)  -->
<svg version="1.1" id="Layer_1" xmlns="http://www.w3.org/2000/svg" xmlns:xlink="http://www.w3.org/1999/xlink" x="0px" y="0px"
	 width="24px" height="24px" viewBox="0 0 24 24" enable-background="new 0 0 24 24" xml:space="preserve">
<g>
	<path d="M22.5,16h-21C1.2236,16,1,15.7764,1,15.5v-6C1,9.2236,1.2236,9,1.5,9h21C22.7764,9,23,9.2236,23,9.5v6
		C23,15.7764,22.7764,16,22.5,16z M2,15h20v-5H2V15z"/>
	<path d="M18.5068,13.8037c-0.7285,0-1.3213-0.5928-1.3213-1.3213c0-0.7295,0.5928-1.3228,1.3213-1.3228
		c0.7295,0,1.3223,0.5933,1.3223,1.3228C19.8291,13.2109,19.2363,13.8037,18.5068,13.8037z M18.5068,12.1592
		c-0.1768,0-0.3213,0.1455-0.3213,0.3232c0,0.1768,0.1445,0.3213,0.3213,0.3213c0.1777,0,0.3223-0.1445,0.3223-0.3213
		C18.8291,12.3047,18.6846,12.1592,18.5068,12.1592z"/>
	<path d="M22.5,6.999h-21c-0.2764,0-0.5-0.2236-0.5-0.5v-6c0-0.2764,0.2236-0.5,0.5-0.5h21c0.2764,0,0.5,0.2236,0.5,0.5v6
		C23,6.7754,22.7764,6.999,22.5,6.999z M2,5.999h20v-5H2V5.999z"/>
	<path d="M18.5068,4.8032c-0.7285,0-1.3213-0.5933-1.3213-1.3223s0.5928-1.3218,1.3213-1.3218c0.7295,0,1.3223,0.5928,1.3223,1.3218
		S19.2363,4.8032,18.5068,4.8032z M18.5068,3.1592c-0.1768,0-0.3213,0.1445-0.3213,0.3218c0,0.1777,0.1445,0.3223,0.3213,0.3223
		c0.1777,0,0.3223-0.1445,0.3223-0.3223C18.8291,3.3037,18.6846,3.1592,18.5068,3.1592z"/>
	<g>
		<g>
			<path d="M3.0068,22.0303h-2.5c-0.2764,0-0.5-0.2236-0.5-0.5s0.2236-0.5,0.5-0.5h2.5c0.2764,0,0.5,0.2236,0.5,0.5
				S3.2832,22.0303,3.0068,22.0303z"/>
			<path d="M8.5049,22.0303h-2.5c-0.2764,0-0.5-0.2236-0.5-0.5s0.2236-0.5,0.5-0.5h2.5c0.2764,0,0.5,0.2236,0.5,0.5
				S8.7812,22.0303,8.5049,22.0303z"/>
		</g>
	</g>
	<g>
		<g>
			<path d="M17.0078,22.0332c0,0,0,0-0.001,0l-2.5-0.0029c-0.2754,0-0.499-0.2246-0.499-0.501c0-0.2754,0.2246-0.499,0.5-0.499
				c0,0,0,0,0.001,0l2.5,0.0029c0.2754,0,0.499,0.2246,0.499,0.501C17.5078,21.8096,17.2832,22.0332,17.0078,22.0332z"/>
			<path d="M22.4668,22.04h-0.001l-2.5-0.0039c-0.2764,0-0.499-0.2246-0.499-0.501c0-0.2754,0.2246-0.499,0.5-0.499h0.001
				l2.5,0.0039c0.2764,0,0.499,0.2246,0.499,0.501C22.9668,21.8164,22.7422,22.04,22.4668,22.04z"/>
		</g>
	</g>
	<path d="M11.4463,21.1602c-0.2764,0-0.5-0.2236-0.5-0.5V17.584c0-0.2764,0.2236-0.5,0.5-0.5s0.5,0.2236,0.5,0.5v3.0762
		C11.9463,20.9365,11.7227,21.1602,11.4463,21.1602z"/>
	<path d="M11.4463,22.9189c-0.7607,0-1.3794-0.6182-1.3794-1.3789s0.6187-1.3799,1.3794-1.3799s1.3799,0.6191,1.3799,1.3799
		S12.207,22.9189,11.4463,22.9189z M11.4463,21.1602c-0.209,0-0.3794,0.1709-0.3794,0.3799s0.1704,0.3789,0.3794,0.3789
		c0.2095,0,0.3799-0.1699,0.3799-0.3789S11.6558,21.1602,11.4463,21.1602z"/>
</g>
<rect fill="none" width="24" height="24"/>
</svg>
