<?xml version="1.0" encoding="utf-8"?>
<!-- Generator: Adobe Illustrator 18.1.0, SVG Export Plug-In . SVG Version: 6.00 Build 0)  -->
<svg version="1.1" id="Layer_1" xmlns="http://www.w3.org/2000/svg" xmlns:xlink="http://www.w3.org/1999/xlink" x="0px" y="0px"
	 width="24px" height="24px" viewBox="0 0 24 24" enable-background="new 0 0 24 24" xml:space="preserve">
<g>
	<path d="M11.2407,17.9131c-0.0005,0-0.001,0-0.0015,0c-0.2363-0.001-0.4395-0.167-0.4878-0.3975l-1.334-6.3853l-0.7451,3.5073
		c-0.0493,0.2314-0.2529,0.3965-0.4893,0.3965H6.5059c-0.2764,0-0.5-0.2236-0.5-0.5s0.2236-0.5,0.5-0.5h1.2725l1.1538-5.4331
		c0.0493-0.231,0.2534-0.396,0.4893-0.396c0.0005,0,0.0005,0,0.001,0C9.6587,8.2056,9.8623,8.3716,9.9106,8.603L11.2476,15
		l0.5908-2.752c0.0454-0.2119,0.2212-0.3701,0.437-0.3926c0.2227-0.0244,0.4209,0.0962,0.5088,0.293l0.8408,1.8857h2.8135
		c0.2764,0,0.5,0.2236,0.5,0.5s-0.2236,0.5-0.5,0.5h-3.1377c-0.1973,0-0.376-0.1162-0.457-0.2959l-0.3496-0.7832l-0.7646,3.5625
		C11.6802,17.748,11.4766,17.9131,11.2407,17.9131z"/>
	<path d="M14.0977,12.0977c-0.001,0-0.002,0-0.0029-0.001c-0.2812-0.001-0.3652-0.002-2.2134-2.2378l-0.0767-0.0923
		c-0.4131-0.499-0.499-1.1313-0.2334-1.6958c0.4414-0.938,1.7236-1.3315,2.5498-0.7344c0.8242-0.5928,2.1104-0.2041,2.5449,0.7261
		c0.2725,0.584,0.1768,1.2202-0.2627,1.7456l-0.0908,0.1064C14.4609,12.0977,14.377,12.0977,14.0977,12.0977z M13.1836,8.0293
		c-0.2822,0-0.5801,0.1963-0.708,0.4668c-0.1016,0.2173-0.0693,0.4287,0.0957,0.6289l0.0811,0.0972
		c0.792,0.9585,1.2197,1.4482,1.4492,1.6987c0.2314-0.2451,0.6592-0.7222,1.4482-1.6533l0.0928-0.1084
		c0.1816-0.2173,0.2236-0.4463,0.1172-0.6733c-0.2139-0.4565-0.8799-0.626-1.2422-0.1523
		c-0.0938,0.1245-0.2412,0.1973-0.3975,0.1973l0,0c-0.1562,0-0.3037-0.0728-0.3975-0.1973
		C13.5684,8.1318,13.3877,8.0293,13.1836,8.0293z"/>
	<path d="M20.5146,12.0029c-0.2764,0-0.5-0.2231-0.5-0.4995V8.5669c0-0.2764,0.2236-0.5,0.5-0.5s0.5,0.2236,0.5,0.5v2.9365
		C21.0146,11.7798,20.791,12.0029,20.5146,12.0029z"/>
	<path d="M16.2061,20.0342H6.8228c-1.5488,0-2.8086-1.2598-2.8086-2.8076V6.8428c0-1.5483,1.2598-2.8081,2.8086-2.8081h9.3833
		c1.5488,0,2.8086,1.2598,2.8086,2.8081v10.3838C19.0146,18.7744,17.7549,20.0342,16.2061,20.0342z M6.8228,5.0347
		c-0.9971,0-1.8086,0.811-1.8086,1.8081v10.3838c0,0.9971,0.8115,1.8076,1.8086,1.8076h9.3833c0.9971,0,1.8086-0.8105,1.8086-1.8076
		V6.8428c0-0.9971-0.8115-1.8081-1.8086-1.8081H6.8228z"/>
	<path d="M6.3237,5.0894c-0.2158,0-0.4146-0.1401-0.479-0.3574C5.7656,4.4673,5.9165,4.189,6.1812,4.1104
		c0.4839-0.144,0.9536-1.644,1.0508-2.8887c0.0522-0.6655,0.5889-1.187,1.2217-1.187h6.1392c0.6328,0,1.1689,0.5215,1.2207,1.187
		c0.0986,1.2446,0.5684,2.7446,1.0518,2.8887c0.2646,0.0786,0.415,0.3569,0.3369,0.6216s-0.3525,0.417-0.6221,0.3364
		c-1.4854-0.4419-1.7529-3.6328-1.7627-3.7686c-0.0117-0.1387-0.1182-0.2651-0.2246-0.2651H8.4536
		c-0.1069,0-0.2139,0.1265-0.2246,0.2651C8.2183,1.4351,7.9526,4.626,6.4663,5.0684C6.4189,5.0825,6.3706,5.0894,6.3237,5.0894z"/>
	<path d="M14.5928,24.0342H8.4536c-0.6348,0-1.1714-0.5117-1.2217-1.165c-0.2036-2.6064-0.8013-2.8584-0.8691-2.8779
		c-0.2646-0.0791-0.415-0.3574-0.3359-0.6221c0.0781-0.2646,0.3555-0.4121,0.6221-0.3369c0.8862,0.2646,1.4033,1.4941,1.5801,3.7598
		c0.0103,0.1338,0.1108,0.2422,0.2246,0.2422h6.1392c0.1133,0,0.2139-0.1084,0.2246-0.2422
		c0.0977-1.2549,0.4434-3.4141,1.6514-3.7734c0.2676-0.0762,0.5439,0.0732,0.6221,0.3369c0.0781,0.2646-0.0723,0.543-0.3369,0.6221
		c-0.3535,0.1045-0.8037,1.1543-0.9404,2.8926C15.7627,23.5225,15.2266,24.0342,14.5928,24.0342z"/>
</g>
<rect x="0.0142" y="0.0346" fill="none" width="24" height="24"/>
</svg>
