<?xml version="1.0" encoding="utf-8"?>
<!-- Generator: Adobe Illustrator 18.1.0, SVG Export Plug-In . SVG Version: 6.00 Build 0)  -->
<svg version="1.1" id="Layer_1" xmlns="http://www.w3.org/2000/svg" xmlns:xlink="http://www.w3.org/1999/xlink" x="0px" y="0px"
	 width="24px" height="24px" viewBox="0 0 24 24" enable-background="new 0 0 24 24" xml:space="preserve">
<g>
	<path d="M11.9995,23.8506c-6.5239,0-11.8315-5.3076-11.8315-11.8311c0-6.5239,5.3076-11.8315,11.8315-11.8315
		s11.8315,5.3076,11.8315,11.8315C23.8311,18.543,18.5234,23.8506,11.9995,23.8506z M11.9995,1.188
		C6.0269,1.188,1.168,6.0469,1.168,12.0195s4.8589,10.8311,10.8315,10.8311c5.9722,0,10.8315-4.8584,10.8315-10.8311
		S17.9717,1.188,11.9995,1.188z"/>
	<path d="M19.9326,20.5986c-0.0508,0-0.1016-0.0078-0.1523-0.0234c-1.0654-0.3408-2.1328-0.5459-3.0742-0.7275
		c-1.6367-0.3145-2.7178-0.5215-2.9561-1.2861c-0.0146-0.0479-0.0225-0.0977-0.0225-0.1484v-1.3164c0-0.2754,0.2227-0.499,0.498-0.5
		c1.6748-0.0049,2.7295-0.333,3.2861-0.5791c-0.9414-1.4248-1.2471-4.6455-1.3047-5.3711c-0.002-2.1797-1.6094-4.4893-4.2075-4.4893
		c-2.3188,0-4.2056,1.9961-4.2056,4.4492c-0.0596,0.7598-0.3652,3.9854-1.3066,5.4111c0.5547,0.2451,1.6099,0.5742,3.2856,0.5791
		c0.2754,0.001,0.4985,0.2246,0.4985,0.5v1.3164c0,0.0508-0.0078,0.1006-0.0225,0.1484c-0.2378,0.7637-1.3193,0.9717-2.9561,1.2861
		c-0.9424,0.1816-2.0103,0.3867-3.0757,0.7275c-0.2646,0.082-0.5444-0.0625-0.6284-0.3242
		c-0.0845-0.2627,0.061-0.5449,0.3237-0.6289c1.1226-0.3584,2.2217-0.5703,3.1914-0.7559c0.8184-0.1582,1.9248-0.3701,2.1675-0.5859
		v-0.6943c-2.707-0.1094-3.8501-1.0146-3.9004-1.0557c-0.1279-0.1045-0.1963-0.2646-0.1821-0.4297
		c0.0137-0.1641,0.1074-0.3115,0.251-0.3926c0.6113-0.3477,1.1797-2.9395,1.3555-5.1416c-0.0015-2.9648,2.334-5.4092,5.2041-5.4092
		c3.2153,0,5.2056,2.8286,5.2056,5.4492c0.1748,2.1621,0.7432,4.7549,1.3535,5.1016c0.1436,0.0811,0.2373,0.2285,0.251,0.3926
		c0.0137,0.165-0.0547,0.3252-0.1826,0.4297c-0.0498,0.041-1.1924,0.9463-3.8994,1.0557v0.7031
		c0.2207,0.2031,1.3408,0.418,2.167,0.5771c0.9697,0.1865,2.0684,0.3975,3.1904,0.7559c0.2627,0.084,0.4082,0.3662,0.3242,0.6289
		C20.3408,20.4629,20.1445,20.5986,19.9326,20.5986z"/>
</g>
<rect x="0.0005" y="0.0004" fill="none" width="24" height="24"/>
</svg>
