<?xml version="1.0" encoding="utf-8"?>
<!-- Generator: Adobe Illustrator 18.1.0, SVG Export Plug-In . SVG Version: 6.00 Build 0)  -->
<svg version="1.1" id="Layer_1" xmlns="http://www.w3.org/2000/svg" xmlns:xlink="http://www.w3.org/1999/xlink" x="0px" y="0px"
	 width="24px" height="24px" viewBox="0 0 24 24" enable-background="new 0 0 24 24" xml:space="preserve">
<g>
	<path d="M15.1289,24.0195H8.8198c-0.4736,0-0.9023-0.2744-1.1177-0.7148c-0.2578-0.5273-0.7241-0.8691-1.0698-1.0625
		C6.2417,22.0205,6,21.6104,6,21.1689V6.9976c0-0.2432,0.0874-0.4927,0.2466-0.7026l1.3345-2.0483
		c0.1514-0.2319,0.4604-0.2969,0.6919-0.146s0.2969,0.4609,0.146,0.6919L7.064,6.8701C7.0132,6.939,7,6.9771,7,6.9976v14.1714
		c0,0.0801,0.0483,0.1592,0.123,0.2012c0.4683,0.2627,1.1064,0.7363,1.4775,1.4951c0.0366,0.0742,0.1133,0.1543,0.2192,0.1543
		h6.3091c0.0947,0,0.1924-0.0635,0.2363-0.1543c0.3682-0.7529,1.0117-1.2285,1.4863-1.4951C16.9355,21.3223,17,21.2354,17,21.168V7
		c0,0.0039-0.001-0.0112-0.0703-0.1016l-1.3506-2.1094c-0.1494-0.2329-0.0811-0.542,0.1514-0.6909
		c0.2324-0.1484,0.542-0.082,0.6904,0.1519L17.75,6.3276C17.9111,6.5386,18,6.7681,18,6.9976V21.168
		c0,0.4326-0.252,0.8438-0.6572,1.0732c-0.3525,0.1973-0.8242,0.542-1.0791,1.0635C16.0518,23.7393,15.6064,24.0195,15.1289,24.0195
		z"/>
	<path d="M17.3945,22.0195H6.5942c-0.2764,0-0.5-0.2236-0.5-0.5s0.2236-0.5,0.5-0.5h10.8003c0.2764,0,0.5,0.2236,0.5,0.5
		S17.6709,22.0195,17.3945,22.0195z"/>
	<path d="M15.5068,11.7671c-0.2764,0-0.5-0.2236-0.5-0.5V7.084l-1.7871-2.249c-0.1748-0.2144-0.1416-0.5293,0.0723-0.7031
		c0.2129-0.1733,0.5283-0.1431,0.7031,0.0723l1.7959,2.2085c0.1533,0.2339,0.2158,0.4497,0.2158,0.6714v4.1831
		C16.0068,11.5435,15.7832,11.7671,15.5068,11.7671z"/>
	<path d="M11.5,3.5195c-0.2764,0-0.5-0.2236-0.5-0.5V1.896c0-0.2031-0.0566-0.3662-0.1641-0.4717C10.5845,1.1797,10,1.2046,10,1.896
		v1.1235c0,0.2764-0.2236,0.5-0.5,0.5S9,3.2959,9,3.0195V1.896C9,0.8413,9.752,0.29,10.4951,0.29C11.2246,0.29,12,0.8525,12,1.896
		v1.1235C12,3.2959,11.7764,3.5195,11.5,3.5195z"/>
	<path d="M11.5,3.0195h-2c-0.2764,0-0.5-0.2236-0.5-0.5s0.2236-0.5,0.5-0.5h2c0.2764,0,0.5,0.2236,0.5,0.5
		S11.7764,3.0195,11.5,3.0195z"/>
	<path d="M16.7012,5.0195H7.2559c-0.2764,0-0.5-0.2236-0.5-0.5s0.2236-0.5,0.5-0.5h9.4453c0.2764,0,0.5,0.2236,0.5,0.5
		S16.9775,5.0195,16.7012,5.0195z"/>
	<path d="M12.5,19.0195h-6c-0.2764,0-0.5-0.2236-0.5-0.5v-10c0-0.2764,0.2236-0.5,0.5-0.5h6c0.2764,0,0.5,0.2236,0.5,0.5v10
		C13,18.7959,12.7764,19.0195,12.5,19.0195z M7,18.0195h5v-9H7V18.0195z"/>
</g>
<rect y="0.0197" fill="none" width="24" height="24"/>
</svg>
