<?xml version="1.0" encoding="utf-8"?>
<!-- Generator: Adobe Illustrator 18.1.0, SVG Export Plug-In . SVG Version: 6.00 Build 0)  -->
<svg version="1.1" id="Layer_1" xmlns="http://www.w3.org/2000/svg" xmlns:xlink="http://www.w3.org/1999/xlink" x="0px" y="0px"
	 width="24px" height="24px" viewBox="0 0 24 24" enable-background="new 0 0 24 24" xml:space="preserve">
<g>
	<path d="M9.9624,20.998H1.0098C0.4624,20.998,0,20.5059,0,19.9238c0-0.9551-0.0068-1.8613-0.0132-2.7197
		c-0.043-5.7358-0.0713-9.5254,2.144-11.8477c1.4604-1.5278,3.4468-2.3027,5.9038-2.3027C8.585,3.0537,9,3.4893,9,4.0674v2.7476
		c0,0.5688-0.4453,1.0142-1.0142,1.0142c-0.8936,0-1.4204,0.3364-1.708,1.0913c-0.229,0.6006-0.2695,1.3569-0.2764,2.0776h3.9609
		c0.5723,0,1.0376,0.4531,1.0376,1.0098v7.916C11,20.4961,10.5151,20.998,9.9624,20.998z M7.9331,4.0674
		c-2.1372,0-3.8101,0.6523-5.0791,1.98c-1.9355,2.0288-1.9097,5.4619-1.8672,11.1499C0.9932,18.0576,1,18.9658,1,19.9238
		l8.9478,0.0742L10,12.0078L5.5,11.998c-0.2764,0-0.5-0.2236-0.5-0.5c0-0.9302,0-2.0327,0.3433-2.9336
		c0.439-1.1514,1.3281-1.7354,2.6426-1.7354L8,4.0674C7.9775,4.0674,7.9556,4.0674,7.9331,4.0674z"/>
	<path d="M22.9629,20.998h-8.9531C13.4629,20.998,13,20.5059,13,19.9238c0-0.9551-0.0068-1.8613-0.0137-2.7197
		c-0.042-5.7358-0.0703-9.5254,2.1436-11.8477c1.4619-1.5283,3.4482-2.3027,5.9053-2.3027C21.585,3.0537,22,3.4893,22,4.0674v2.7476
		c0,0.5591-0.4551,1.0142-1.0146,1.0142c-0.8936,0-1.4199,0.3364-1.708,1.0913c-0.2285,0.6006-0.2686,1.3569-0.2754,2.0776h3.9609
		c0.5723,0,1.0371,0.4531,1.0371,1.0098v7.916C24,20.4961,23.5156,20.998,22.9629,20.998z M20.9336,4.0674
		c-2.1367,0-3.8105,0.6523-5.0801,1.98c-1.9346,2.0288-1.9092,5.4614-1.8672,11.1489C13.9932,18.0576,14,18.9658,14,19.9238
		l8.9482,0.0742L23,12.0078l-4.5-0.0098c-0.2764,0-0.5-0.2236-0.5-0.5c0-0.9302,0-2.0327,0.3428-2.9336
		c0.4395-1.1514,1.3281-1.7354,2.6426-1.7354L21,4.0674C20.9775,4.0674,20.9551,4.0674,20.9336,4.0674z"/>
</g>
<rect y="-0.002" fill="none" width="24" height="24"/>
</svg>
