<?xml version="1.0" encoding="utf-8"?>
<!-- Generator: Adobe Illustrator 18.1.0, SVG Export Plug-In . SVG Version: 6.00 Build 0)  -->
<svg version="1.1" id="Layer_1" xmlns="http://www.w3.org/2000/svg" xmlns:xlink="http://www.w3.org/1999/xlink" x="0px" y="0px"
	 width="24px" height="24px" viewBox="0 0 24 24" enable-background="new 0 0 24 24" xml:space="preserve">
<g>
	<path d="M11.9863,23.7822c-6.4941,0-11.7773-5.2832-11.7773-11.7773S5.4922,0.2275,11.9863,0.2275s11.7773,5.2832,11.7773,11.7773
		S18.4805,23.7822,11.9863,23.7822z M11.9863,1.2275C6.0435,1.2275,1.209,6.062,1.209,12.0049
		c0,5.9424,4.8345,10.7773,10.7773,10.7773c5.9424,0,10.7773-4.835,10.7773-10.7773C22.7637,6.062,17.9287,1.2275,11.9863,1.2275z"
		/>
	<path d="M13.3135,10.9824H6.522c-0.2764,0-0.5-0.2236-0.5-0.5s0.2236-0.5,0.5-0.5h6.7915c0.2764,0,0.5,0.2236,0.5,0.5
		S13.5898,10.9824,13.3135,10.9824z"/>
	<path d="M13.3135,14.0293H6.522c-0.2764,0-0.5-0.2236-0.5-0.5s0.2236-0.5,0.5-0.5h6.7915c0.2764,0,0.5,0.2236,0.5,0.5
		S13.5898,14.0293,13.3135,14.0293z"/>
	<path d="M12.6826,18.6738c-2.8232,0-5.1201-2.9463-5.1201-6.5684s2.2969-6.5688,5.1201-6.5688
		c1.6113,0,3.0947,0.9399,4.0703,2.5786c0.1416,0.2373,0.0635,0.5444-0.1738,0.6855c-0.2354,0.1392-0.5439,0.0649-0.6855-0.1738
		c-0.791-1.3286-1.9609-2.0903-3.2109-2.0903c-2.272,0-4.1201,2.498-4.1201,5.5688c0,3.0703,1.8481,5.5684,4.1201,5.5684
		c1.2979,0,2.5371-0.8496,3.3164-2.2734c0.1328-0.2432,0.4385-0.3301,0.6787-0.1982c0.2422,0.1328,0.3311,0.4365,0.1982,0.6787
		C15.9189,17.6299,14.3516,18.6738,12.6826,18.6738z"/>
</g>
<rect x="-0.0137" y="0.0031" fill="none" width="24" height="24"/>
<rect x="-0.0137" fill="none" width="24" height="24"/>
</svg>
