<?xml version="1.0" encoding="utf-8"?>
<!-- Generator: Adobe Illustrator 18.1.0, SVG Export Plug-In . SVG Version: 6.00 Build 0)  -->
<svg version="1.1" id="Layer_1" xmlns="http://www.w3.org/2000/svg" xmlns:xlink="http://www.w3.org/1999/xlink" x="0px" y="0px"
	 width="24px" height="24px" viewBox="0 0 24 24" enable-background="new 0 0 24 24" xml:space="preserve">
<g>
	<path d="M18.8721,18.001H5.1284C4.5483,18.001,4,17.4814,4,16.9316V7.0703C4,6.5205,4.5483,6.001,5.1284,6.001h13.7437
		C19.4521,6.001,20,6.5205,20,7.0703v9.8613C20,17.4814,19.4521,18.001,18.8721,18.001z M18.8701,7.001H5.1284
		C5.0908,7.0049,5.0112,7.064,4.9956,7.1016L5,16.9316c0.0112,0.0059,0.0908,0.0654,0.1309,0.0693h13.7393
		c0.041-0.0049,0.1191-0.0635,0.1348-0.1006L19,7.0703C18.9893,7.064,18.9102,7.0049,18.8701,7.001z"/>
	<path d="M8.1011,12.1367c-1.0234,0-1.8564-0.8335-1.8564-1.8569s0.833-1.8564,1.8564-1.8564c1.0239,0,1.8569,0.833,1.8569,1.8564
		S9.125,12.1367,8.1011,12.1367z M8.1011,9.4233c-0.4722,0-0.8564,0.3843-0.8564,0.8564s0.3843,0.8564,0.8564,0.8564
		c0.4727,0,0.8569-0.3843,0.8569-0.8564S8.5737,9.4233,8.1011,9.4233z"/>
	<path d="M8.2915,18.001c-0.0869,0-0.1743-0.0225-0.2544-0.0703c-0.2378-0.1406-0.3159-0.4473-0.1753-0.6846l3.7285-6.2881
		c0.0854-0.144,0.2373-0.2358,0.4048-0.2446c0.1592-0.0156,0.3271,0.0674,0.4268,0.2017l1.3838,1.8672l1.9463-3.0605
		c0.0889-0.1406,0.2432-0.2275,0.4092-0.2319c0.1758-0.0015,0.3252,0.0757,0.4209,0.2109l3.3262,4.6948
		c0.1592,0.2256,0.1064,0.5371-0.1191,0.6973c-0.2246,0.1572-0.5371,0.1074-0.6973-0.1191l-2.8955-4.0874l-1.9375,3.0474
		c-0.0879,0.1387-0.2393,0.2256-0.4043,0.2314c-0.1621-0.0078-0.3213-0.0703-0.4189-0.2021l-1.3691-1.8477l-3.3442,5.6406
		C8.6289,17.9131,8.4624,18.001,8.2915,18.001z"/>
	<path d="M4.5,5.0176c-0.2764,0-0.5-0.2236-0.5-0.5v-2c0-0.2764,0.2236-0.5,0.5-0.5S5,2.2412,5,2.5176v2
		C5,4.7939,4.7764,5.0176,4.5,5.0176z"/>
	<path d="M2.5,7.0176h-2c-0.2764,0-0.5-0.2236-0.5-0.5s0.2236-0.5,0.5-0.5h2c0.2764,0,0.5,0.2236,0.5,0.5S2.7764,7.0176,2.5,7.0176z
		"/>
	<path d="M23.501,7.0176h-2c-0.2764,0-0.5-0.2236-0.5-0.5s0.2236-0.5,0.5-0.5h2c0.2764,0,0.5,0.2236,0.5,0.5
		S23.7773,7.0176,23.501,7.0176z"/>
	<path d="M2.5,18.0186h-2c-0.2764,0-0.5-0.2236-0.5-0.5s0.2236-0.5,0.5-0.5h2c0.2764,0,0.5,0.2236,0.5,0.5
		S2.7764,18.0186,2.5,18.0186z"/>
	<path d="M23.501,18.0186h-2c-0.2764,0-0.5-0.2236-0.5-0.5s0.2236-0.5,0.5-0.5h2c0.2764,0,0.5,0.2236,0.5,0.5
		S23.7773,18.0186,23.501,18.0186z"/>
	<path d="M19.5,5.0176c-0.2764,0-0.5-0.2236-0.5-0.5v-2c0-0.2764,0.2236-0.5,0.5-0.5s0.5,0.2236,0.5,0.5v2
		C20,4.7939,19.7764,5.0176,19.5,5.0176z"/>
	<path d="M4.5,22.0186c-0.2764,0-0.5-0.2236-0.5-0.5v-2c0-0.2764,0.2236-0.5,0.5-0.5s0.5,0.2236,0.5,0.5v2
		C5,21.7949,4.7764,22.0186,4.5,22.0186z"/>
	<path d="M19.5,22.0186c-0.2764,0-0.5-0.2236-0.5-0.5v-2c0-0.2764,0.2236-0.5,0.5-0.5s0.5,0.2236,0.5,0.5v2
		C20,21.7949,19.7764,22.0186,19.5,22.0186z"/>
</g>
<rect y="0.0011" fill="none" width="24" height="24"/>
</svg>
