<?xml version="1.0" encoding="utf-8"?>
<!-- Generator: Adobe Illustrator 18.1.0, SVG Export Plug-In . SVG Version: 6.00 Build 0)  -->
<svg version="1.1" id="Layer_1" xmlns="http://www.w3.org/2000/svg" xmlns:xlink="http://www.w3.org/1999/xlink" x="0px" y="0px"
	 width="24px" height="24px" viewBox="0 0 24 24" enable-background="new 0 0 24 24" xml:space="preserve">
<g>
	<path d="M11.999,23.1094c-0.1523,0-0.2959-0.0693-0.3911-0.1885L0.3325,8.7827c-0.1313-0.165-0.145-0.395-0.0337-0.5747
		L4.6357,1.21c0.0908-0.1475,0.252-0.2368,0.4248-0.2368h13.877c0.1729,0,0.334,0.0894,0.4248,0.2368l4.3359,6.998
		c0.1113,0.1797,0.0977,0.4097-0.0342,0.5747L12.3896,22.9209C12.2949,23.04,12.1514,23.1094,11.999,23.1094z M1.3345,8.4351
		L11.999,21.8076L22.6631,8.4351l-4.0039-6.4619H5.3389L1.3345,8.4351z"/>
	<path d="M23.2734,8.9712H0.7236c-0.2764,0-0.5-0.2236-0.5-0.5s0.2236-0.5,0.5-0.5h22.5498c0.2764,0,0.5,0.2236,0.5,0.5
		S23.5498,8.9712,23.2734,8.9712z"/>
	<path d="M11.9985,23.1094c-0.2178,0-0.418-0.1436-0.4805-0.3633L7.4971,8.6079C7.46,8.478,7.4771,8.3389,7.5444,8.2222l4.021-6.998
		c0.1367-0.2397,0.4424-0.3228,0.6826-0.1846c0.2393,0.1377,0.3223,0.4434,0.1846,0.6826l-3.916,6.8154l3.9629,13.9351
		c0.0762,0.2656-0.0781,0.542-0.3438,0.6172C12.0898,23.1035,12.0439,23.1094,11.9985,23.1094z"/>
	<path d="M11.9995,23.1094c-0.0454,0-0.0913-0.0059-0.1372-0.0195c-0.2656-0.0752-0.4199-0.3516-0.3442-0.6172l3.9624-13.9355
		l-3.915-6.8149c-0.1377-0.2393-0.0547-0.5449,0.1846-0.6826c0.2397-0.1372,0.5449-0.0552,0.6826,0.1846l4.0205,6.998
		c0.0674,0.1167,0.084,0.2559,0.0469,0.3857l-4.0205,14.1382C12.417,22.9658,12.2168,23.1094,11.9995,23.1094z"/>
	<path d="M16.0195,8.9712c-0.0645,0-0.1299-0.0122-0.1924-0.0386c-0.2549-0.1064-0.375-0.3989-0.2695-0.6538l2.918-6.998
		c0.1064-0.2554,0.4014-0.3765,0.6543-0.269c0.2549,0.1064,0.375,0.3989,0.2695,0.6538l-2.918,6.998
		C16.4014,8.8555,16.2148,8.9712,16.0195,8.9712z"/>
	<path d="M7.978,8.9712c-0.1958,0-0.3813-0.1157-0.4614-0.3076l-2.9175-6.998c-0.1064-0.2549,0.0142-0.5479,0.269-0.6538
		c0.2554-0.1055,0.5474,0.0142,0.6538,0.269l2.9175,6.998c0.1064,0.2549-0.0142,0.5479-0.269,0.6538
		C8.1074,8.959,8.0425,8.9712,7.978,8.9712z"/>
</g>
<rect y="-0.0001" fill="none" width="24" height="24"/>
</svg>
