<?xml version="1.0" encoding="utf-8"?>
<!-- Generator: Adobe Illustrator 18.1.0, SVG Export Plug-In . SVG Version: 6.00 Build 0)  -->
<svg version="1.1" id="Layer_1" xmlns="http://www.w3.org/2000/svg" xmlns:xlink="http://www.w3.org/1999/xlink" x="0px" y="0px"
	 width="24px" height="24px" viewBox="0 0 24 24" enable-background="new 0 0 24 24" xml:space="preserve">
<g>
	<path d="M10.4966,8.0073c-0.2764,0-0.5-0.2236-0.5-0.5V4.5762c0-0.2764,0.2236-0.5,0.5-0.5h3.0171c0.2764,0,0.5,0.2236,0.5,0.5
		v2.9302c0,0.2764-0.2236,0.5-0.5,0.5s-0.5-0.2236-0.5-0.5V5.0762h-2.0171v2.4312C10.9966,7.7837,10.7729,8.0073,10.4966,8.0073z"/>
	<path d="M12.0049,5.0762c-0.2764,0-0.5-0.2236-0.5-0.5V0.7295c0-0.2764,0.2236-0.5,0.5-0.5s0.5,0.2236,0.5,0.5v3.8467
		C12.5049,4.8525,12.2812,5.0762,12.0049,5.0762z"/>
	<path d="M12.0049,23.9971c-3.8735,0-7.2554-2.6221-8.2246-6.376c-0.0391-0.1494-0.0059-0.3086,0.0884-0.4316
		c0.0947-0.1221,0.2407-0.1934,0.3955-0.1934h15.4819c0.1543,0,0.3008,0.0713,0.3955,0.1934
		c0.0947,0.123,0.127,0.2822,0.0889,0.4316C19.2607,21.375,15.8789,23.9971,12.0049,23.9971z M4.939,17.9961
		c1.0493,2.9746,3.8677,5.001,7.0659,5.001s6.0166-2.0264,7.0664-5.001H4.939z"/>
	<path d="M19.7461,13.9902H4.2642c-0.1548,0-0.3008-0.0713-0.3955-0.1934c-0.0942-0.123-0.1274-0.2822-0.0884-0.4316
		c0.9692-3.7539,4.3511-6.376,8.2246-6.376c3.874,0,7.2559,2.6221,8.2256,6.376c0.0381,0.1494,0.0059,0.3086-0.0889,0.4316
		C20.0469,13.9189,19.9004,13.9902,19.7461,13.9902z M4.939,12.9902h14.1323c-1.0498-2.9751-3.8682-5.001-7.0664-5.001
		S5.9883,10.0151,4.939,12.9902z"/>
	<path d="M19.7461,17.9961H4.2642c-0.228,0-0.4272-0.1543-0.4839-0.375c-0.1851-0.7158-0.2788-1.4316-0.2788-2.1279
		s0.0938-1.4121,0.2788-2.1279c0.0566-0.2207,0.2559-0.375,0.4839-0.375h15.4819c0.2275,0,0.4268,0.1543,0.4844,0.375
		c0.1855,0.7158,0.2793,1.4316,0.2793,2.1279s-0.0938,1.4121-0.2793,2.1279C20.1729,17.8418,19.9736,17.9961,19.7461,17.9961z
		 M4.6606,16.9961h14.689c0.1064-0.5078,0.1602-1.0117,0.1602-1.5029s-0.0537-0.9951-0.1602-1.5029H4.6606
		c-0.1055,0.5078-0.1592,1.0117-0.1592,1.5029S4.5552,16.4883,4.6606,16.9961z"/>
</g>
<rect x="0.0142" y="0.0354" fill="none" width="24" height="24"/>
</svg>
