<?xml version="1.0" encoding="utf-8"?>
<!-- Generator: Adobe Illustrator 18.1.0, SVG Export Plug-In . SVG Version: 6.00 Build 0)  -->
<svg version="1.1" id="Layer_1" xmlns="http://www.w3.org/2000/svg" xmlns:xlink="http://www.w3.org/1999/xlink" x="0px" y="0px"
	 width="24px" height="24px" viewBox="0 0 24 24" enable-background="new 0 0 24 24" xml:space="preserve">
<g>
	<path d="M20.4482,23.96H3.521c-0.2764,0-0.5-0.2236-0.5-0.5v-9.0234c0-0.2764,0.2236-0.5,0.5-0.5s0.5,0.2236,0.5,0.5V22.96h15.9272
		v-8.5234c0-0.2764,0.2236-0.5,0.5-0.5s0.5,0.2236,0.5,0.5V23.46C20.9482,23.7363,20.7246,23.96,20.4482,23.96z"/>
	<path d="M21.5146,13.0029h-7.916c-0.2764,0-0.5-0.2236-0.5-0.5s0.2236-0.5,0.5-0.5h7.416V8.0293H2.9556v3.9736h7.5083
		c0.2764,0,0.5,0.2236,0.5,0.5s-0.2236,0.5-0.5,0.5H2.4556c-0.2764,0-0.5-0.2236-0.5-0.5V7.5293c0-0.2764,0.2236-0.5,0.5-0.5
		h19.0591c0.2764,0,0.5,0.2236,0.5,0.5v4.9736C22.0146,12.7793,21.791,13.0029,21.5146,13.0029z"/>
	<path d="M11.9766,8.0293c-0.0601,0-0.1211-0.0107-0.1787-0.0332c-0.6255-0.2397-6.1216-2.4165-6.5161-5.0288
		C5.1958,2.4009,5.312,1.5547,6.3516,0.7378C6.8789,0.3232,7.417,0.1133,7.9507,0.1133c2.8521,0,4.2407,5.9932,4.4888,7.1841
		c0.0361,0.0693,0.0566,0.1484,0.0566,0.2319c0,0.2798-0.249,0.4888-0.5093,0.5C11.9834,8.0293,11.98,8.0293,11.9766,8.0293z
		 M7.9507,1.1133c-0.3042,0-0.6343,0.1382-0.981,0.4106C6.1699,2.1523,6.2456,2.6533,6.2705,2.8179
		c0.2026,1.3428,2.8945,2.9463,5.0068,3.8809C10.6602,4.2354,9.3984,1.1133,7.9507,1.1133z"/>
	<path d="M11.9766,8.0293c-0.1084,0-0.2153-0.0352-0.3047-0.1035c-0.1475-0.1133-0.2197-0.2988-0.188-0.4819
		c0.1138-0.6558,1.1909-6.4072,3.9292-6.4072c0.4609,0,0.9316,0.166,1.3975,0.4927c0.8262,0.5791,0.9512,1.2437,0.9102,1.6992
		c-0.1992,2.2266-4.9893,4.5024-5.5342,4.7544C12.1191,8.0142,12.0479,8.0293,11.9766,8.0293z M15.4131,2.0366
		c-1.2314,0-2.2373,2.5107-2.7373,4.5864c1.7891-0.9487,3.9541-2.4253,4.0488-3.4839c0.0166-0.1812-0.0166-0.4604-0.4883-0.7915
		C15.9424,2.1416,15.665,2.0366,15.4131,2.0366z"/>
	<path d="M13.5986,23.96h-3.1348c-0.2764,0-0.5-0.2236-0.5-0.5V7.5293c0-0.2764,0.2236-0.5,0.5-0.5h3.1348
		c0.2764,0,0.5,0.2236,0.5,0.5V23.46C14.0986,23.7363,13.875,23.96,13.5986,23.96z M10.9639,22.96h2.1348V8.0293h-2.1348V22.96z"/>
</g>
<rect x="-0.0136" fill="none" width="24" height="24"/>
</svg>
