<?xml version="1.0" encoding="utf-8"?>
<!-- Generator: Adobe Illustrator 18.1.0, SVG Export Plug-In . SVG Version: 6.00 Build 0)  -->
<svg version="1.1" id="Layer_1" xmlns="http://www.w3.org/2000/svg" xmlns:xlink="http://www.w3.org/1999/xlink" x="0px" y="0px"
	 width="24px" height="24px" viewBox="0 0 24 24" enable-background="new 0 0 24 24" xml:space="preserve">
<g>
	<path d="M7.4512,23.1123c-1.4409,0-2.6128-1.1719-2.6128-2.6123s1.1719-2.6123,2.6128-2.6123S10.064,19.0596,10.064,20.5
		S8.8921,23.1123,7.4512,23.1123z M7.4512,18.8877c-0.8892,0-1.6128,0.7236-1.6128,1.6123s0.7236,1.6123,1.6128,1.6123
		S9.064,21.3887,9.064,20.5S8.3403,18.8877,7.4512,18.8877z"/>
	<path d="M7.4497,21c-0.1299,0-0.25-0.0498-0.3501-0.1406C7.0098,20.7598,6.9497,20.6299,6.9497,20.5s0.0601-0.2598,0.1499-0.3506
		C7.29,19.96,7.6099,19.96,7.7998,20.1396c0.1001,0.1006,0.1499,0.2305,0.1499,0.3604s-0.0498,0.25-0.1396,0.3496
		C7.71,20.9502,7.5796,21,7.4497,21z"/>
	<path d="M22.9863,21h-11.502c-0.2764,0-0.5-0.2236-0.5-0.5s0.2236-0.5,0.5-0.5h11.502c0.2764,0,0.5,0.2236,0.5,0.5
		S23.2627,21,22.9863,21z"/>
	<path d="M19.8564,20.9248c-0.2598,0-0.4785-0.2012-0.498-0.4639c-0.8076-11.2002-5.0391-11.459-5.082-11.4604H3.4575
		c-1.2627,0-2.2896,1.0557-2.2896,2.353v6.2188c0,1.2969,1.0269,2.3525,2.2896,2.3525c0.2764,0,0.5,0.2236,0.5,0.5
		s-0.2236,0.5-0.5,0.5c-1.814,0-3.2896-1.5039-3.2896-3.3525v-6.2188c0-1.8486,1.4756-3.353,3.2896-3.353h10.8267
		c0.2109,0,5.1885,0.1396,6.0723,12.3882c0.0195,0.2754-0.1875,0.5146-0.4629,0.5352
		C19.8809,20.9248,19.8691,20.9248,19.8564,20.9248z"/>
	<path d="M3.9863,19H0.8057c-0.2764,0-0.5-0.2236-0.5-0.5s0.2236-0.5,0.5-0.5h3.1807c0.2764,0,0.5,0.2236,0.5,0.5
		S4.2627,19,3.9863,19z"/>
	<path d="M19.6689,19h-8.6826c-0.2764,0-0.5-0.2236-0.5-0.5s0.2236-0.5,0.5-0.5h8.6826c0.2764,0,0.5,0.2236,0.5,0.5
		S19.9453,19,19.6689,19z"/>
	<path d="M5.7759,14.9541H4.334c-1.0244,0-1.8579-0.834-1.8579-1.8584v-0.7148c0-1.0249,0.8335-1.8584,1.8579-1.8584h1.4419
		c1.0244,0,1.8579,0.8335,1.8579,1.8584v0.7148C7.6338,14.1201,6.8003,14.9541,5.7759,14.9541z M4.334,11.5225
		c-0.4731,0-0.8579,0.3853-0.8579,0.8584v0.7148c0,0.4736,0.3848,0.8584,0.8579,0.8584h1.4419c0.4731,0,0.8579-0.3848,0.8579-0.8584
		v-0.7148c0-0.4731-0.3848-0.8584-0.8579-0.8584H4.334z"/>
	<path d="M14.5547,14.9541h-3.1631c-1.0132,0-1.8379-0.8242-1.8379-1.8379v-0.7559c0-1.0132,0.8247-1.8379,1.8379-1.8379h2.5371
		c1.2725,0,2.4629,2.0986,2.4629,3.0527C16.3916,14.4902,15.7734,14.9541,14.5547,14.9541z M11.3916,11.5225
		c-0.4619,0-0.8379,0.376-0.8379,0.8379v0.7559c0,0.4619,0.376,0.8379,0.8379,0.8379h3.1631c0.8369,0,0.8369-0.1924,0.8369-0.3789
		c0-0.5527-0.9072-2.0527-1.4629-2.0527H11.3916z"/>
	<path d="M4.6172,9.0005c-0.2085,0-0.4028-0.1309-0.4736-0.3394c-0.0889-0.2612,0.0513-0.5454,0.313-0.6343l8.355-2.8394
		c0.2607-0.0879,0.5449,0.0503,0.6348,0.313c0.0889,0.2612-0.0518,0.5454-0.3125,0.6343l-8.356,2.8394
		C4.7246,8.9922,4.6704,9.0005,4.6172,9.0005z"/>
	<path d="M11.4844,9.0005c-0.2764,0-0.5-0.2236-0.5-0.5V6.167c0-0.2764,0.2236-0.5,0.5-0.5s0.5,0.2236,0.5,0.5v2.3335
		C11.9844,8.7769,11.7607,9.0005,11.4844,9.0005z"/>
</g>
<rect x="-0.0136" fill="none" width="24" height="24"/>
</svg>
