<?xml version="1.0" encoding="utf-8"?>
<!-- Generator: Adobe Illustrator 18.1.1, SVG Export Plug-In . SVG Version: 6.00 Build 0)  -->
<svg version="1.1" id="Layer_1" xmlns="http://www.w3.org/2000/svg" xmlns:xlink="http://www.w3.org/1999/xlink" x="0px" y="0px"
	 width="24px" height="24px" viewBox="0 0 24 24" enable-background="new 0 0 24 24" xml:space="preserve">
<rect fill="none" width="24" height="24"/>
<path d="M20.3809,20.0195c-0.4883-1.252-0.6719-3.3584-0.458-5.2422c0.2012-1.7734,0.0996-3.5649-0.3008-5.3218
	c-0.167-0.7441-0.9062-1.2329-1.7168-1.1011c-0.3145,0.0493-0.5957,0.1929-0.8135,0.4102l-0.166-0.5679
	c-0.21-0.7305-0.9658-1.1729-1.7773-1.002c-0.2725,0.0586-0.5166,0.1885-0.7109,0.3745l-0.0264-0.0952
	c-0.21-0.7314-0.9795-1.1743-1.7959-0.9976c-0.2744,0.0591-0.5195,0.1875-0.7153,0.3716l-1.5596-5.6616
	c-0.2109-0.7319-0.9736-1.1772-1.7764-1.002c-0.3911,0.084-0.7222,0.313-0.9326,0.645c-0.2041,0.3213-0.269,0.7012-0.1841,1.0669
	l1.5854,6.9902c0.2505,1.1484,0.3828,2.708,0.0581,3.7764L6.2046,10.145c-1.2227-0.8872-1.8789-0.7095-2.54-0.1323
	c-0.0654,0.0571-0.1152,0.1309-0.1436,0.2134c-0.1958,0.5688,0.3638,1.6572,1.6499,3.2183c0.4312,0.5723,0.7104,1.1064,0.9805,1.623
	c0.5591,1.0674,1.0869,2.0762,2.7324,2.999c2.5083,1.4062,4.0869,5.3828,4.1025,5.4229c0.0771,0.1973,0.2656,0.3184,0.4658,0.3184
	c0.0605,0,0.1221-0.0107,0.1816-0.0342c0.2578-0.1006,0.3848-0.3906,0.2842-0.6475c-0.0693-0.1768-1.7227-4.3496-4.5449-5.9326
	c-1.3867-0.7764-1.8052-1.5771-2.3354-2.5898c-0.2754-0.5264-0.5874-1.1221-1.0811-1.7783
	c-0.7153-0.8682-1.3545-1.8511-1.4712-2.1938c0.2334-0.1709,0.4497-0.1714,1.0972,0.2949l3.3623,2.936
	c0.1108,0.0967,0.2598,0.1387,0.4043,0.1172c0.1455-0.0225,0.2739-0.1074,0.3511-0.2334c0.9683-1.583,0.4814-4.2827,0.3086-5.0762
	L8.4219,1.6729c-0.0244-0.105-0.0054-0.2144,0.0537-0.3076c0.0659-0.1035,0.1719-0.1758,0.3442-0.2129
	C9.0693,1.0986,9.314,1.2349,9.3779,1.4575l2.6973,9.7925c0.0518,0.187,0.207,0.3276,0.3984,0.3604l0.1035,0.0176
	c0.168,0.0249,0.332-0.0288,0.4473-0.1494c0.1143-0.1211,0.1611-0.2915,0.124-0.4541l-0.6924-3.0562
	c-0.0303-0.1304,0.0127-0.2354,0.0537-0.3003c0.0684-0.1089,0.1807-0.1846,0.3633-0.2236c0.2549-0.0562,0.5137,0.0825,0.5762,0.3013
	l1.084,3.9214c0.0518,0.188,0.3027,0.3438,0.4951,0.376c0.1572,0.0234,0.3281-0.0293,0.4424-0.1484
	c0.1143-0.1196,0.1621-0.2881,0.1279-0.4497l-0.5908-2.7622c-0.0244-0.105-0.0059-0.2139,0.0527-0.3066
	c0.0664-0.104,0.1719-0.1763,0.3447-0.2134c0.2432-0.0522,0.4941,0.0825,0.5605,0.3125l1.041,3.5659
	c0.0723,0.2529,0.3252,0.4043,0.5869,0.3486c0.2578-0.0566,0.4268-0.3037,0.3867-0.5635L17.6777,9.834
	c-0.0186-0.106,0.0068-0.2139,0.0713-0.3037c0.0723-0.1011,0.1836-0.168,0.3584-0.1958c0.2471-0.0371,0.4873,0.1084,0.5391,0.3413
	c0.376,1.6489,0.4707,3.3271,0.2822,4.9883c-0.2344,2.0635-0.0303,4.3076,0.5205,5.7188c0.7715,1.9775,0.792,2.5303,0.7979,2.5303
	c0,0,0,0,0-0.001c-0.0488,0.2715,0.1318,0.5312,0.4033,0.5811c0.2666,0.042,0.5312-0.1299,0.5811-0.4033
	C21.2725,22.8623,21.2168,22.1611,20.3809,20.0195z"/>
</svg>
