<?xml version="1.0" encoding="utf-8"?>
<!-- Generator: Adobe Illustrator 18.1.0, SVG Export Plug-In . SVG Version: 6.00 Build 0)  -->
<svg version="1.1" id="Layer_1" xmlns="http://www.w3.org/2000/svg" xmlns:xlink="http://www.w3.org/1999/xlink" x="0px" y="0px"
	 width="24px" height="24px" viewBox="0 0 24 24" enable-background="new 0 0 24 24" xml:space="preserve">
<g>
	<path d="M21.501,17h-7c-0.2764,0-0.5-0.2236-0.5-0.5v-2c0-0.2764,0.2236-0.5,0.5-0.5h7c0.2764,0,0.5,0.2236,0.5,0.5v2
		C22.001,16.7764,21.7773,17,21.501,17z M15.001,16h6v-1h-6V16z"/>
	<path d="M20.501,15c-0.2764,0-0.5-0.2236-0.5-0.5v-1.3018C20.001,9.6069,17.291,7,13.5576,7h-3.0571c-0.2764,0-0.5-0.2236-0.5-0.5
		V6h-2v0.5c0,0.2764-0.2236,0.5-0.5,0.5h-6.5v4h12.5571c1.1797,0,2.4434,0.8833,2.4434,2.1982V14.5c0,0.2764-0.2236,0.5-0.5,0.5
		s-0.5-0.2236-0.5-0.5v-1.3018c0-0.6855-0.7617-1.1982-1.4434-1.1982H0.5005c-0.2764,0-0.5-0.2236-0.5-0.5v-5
		c0-0.2764,0.2236-0.5,0.5-0.5h6.5V5.5c0-0.2764,0.2236-0.5,0.5-0.5h3c0.2764,0,0.5,0.2236,0.5,0.5V6h2.5571
		c4.3125,0,7.4434,3.0273,7.4434,7.1982V14.5C21.001,14.7764,20.7773,15,20.501,15z"/>
	<path d="M11.5771,3H6.2666C5.499,3,4.9199,2.355,4.9199,1.5S5.499,0,6.2666,0h5.3105c0.7676,0,1.3467,0.645,1.3467,1.5
		S12.3447,3,11.5771,3z M6.2666,1C6.0659,1,5.9199,1.2104,5.9199,1.5S6.0659,2,6.2666,2h5.3105c0.2007,0,0.3467-0.2104,0.3467-0.5
		S11.7778,1,11.5771,1H6.2666z"/>
	<path d="M18.001,23.7715c-1.1123,0-2.0166-0.9043-2.0166-2.0156c0-0.4844,1.3398-3.7285,2.0166-3.7285
		c0.6758,0,2.0156,3.2441,2.0156,3.7285C20.0166,22.8672,19.1123,23.7715,18.001,23.7715z M18.001,19.4766
		c-0.4277,0.7432-1.0166,1.8779-1.0166,2.2793c0,0.5596,0.4561,1.0156,1.0166,1.0156c0.5596,0,1.0156-0.4561,1.0156-1.0156
		C19.0166,21.3545,18.4277,20.2197,18.001,19.4766z"/>
	<path d="M8.9351,4.5c-0.2764,0-0.5-0.2236-0.5-0.5V2.5c0-0.2764,0.2236-0.5,0.5-0.5s0.5,0.2236,0.5,0.5V4
		C9.4351,4.2764,9.2114,4.5,8.9351,4.5z"/>
</g>
<rect x="0.0005" fill="none" width="24" height="24"/>
</svg>
