<?xml version="1.0" encoding="utf-8"?>
<!-- Generator: Adobe Illustrator 18.1.0, SVG Export Plug-In . SVG Version: 6.00 Build 0)  -->
<svg version="1.1" id="Layer_1" xmlns="http://www.w3.org/2000/svg" xmlns:xlink="http://www.w3.org/1999/xlink" x="0px" y="0px"
	 width="24px" height="24px" viewBox="0 0 24 24" enable-background="new 0 0 24 24" xml:space="preserve">
<g>
	<path d="M15.083,12.998H8.9321C8.4922,12.998,8,12.5967,8,12.0605V6.8647C8,6.3789,8.4097,5.998,8.9326,5.998h6.1514
		C15.6494,5.998,16,6.4478,16,6.8643v5.1963C16,12.5684,15.5801,12.998,15.083,12.998z M9,6.998v5.0625l6-0.0615V6.998H9z"/>
	<path d="M17.6582,23.9346H6.4175c-0.7764,0-1.4077-0.626-1.4077-1.3965V1.6406c0-0.8804,0.7227-1.5967,1.6108-1.5967h1.0161
		c0.7954,0,1.481,0.5884,1.5942,1.3691l0.3057,1.5845h8.1216c0.7764,0,1.4072,0.6265,1.4072,1.397v18.1436
		C19.0654,23.3086,18.4346,23.9346,17.6582,23.9346z M6.6206,1.0439c-0.3369,0-0.6108,0.2676-0.6108,0.5967v20.8975
		c0,0.2188,0.1831,0.3965,0.4077,0.3965h11.2407c0.2246,0,0.4072-0.1777,0.4072-0.3965V4.3945c0-0.2188-0.1826-0.397-0.4072-0.397
		H9.1235c-0.2397,0-0.4458-0.1699-0.4912-0.4058L8.2451,1.5791C8.1992,1.2646,7.939,1.0439,7.6367,1.0439H6.6206z"/>
	<path d="M9.4604,15.998H8.5c-0.2764,0-0.5-0.2236-0.5-0.5s0.2236-0.5,0.5-0.5h0.9604c0.2764,0,0.5,0.2236,0.5,0.5
		S9.7368,15.998,9.4604,15.998z"/>
	<path d="M9.4604,17.998H8.5c-0.2764,0-0.5-0.2236-0.5-0.5s0.2236-0.5,0.5-0.5h0.9604c0.2764,0,0.5,0.2236,0.5,0.5
		S9.7368,17.998,9.4604,17.998z"/>
	<path d="M9.4604,19.999H8.5c-0.2764,0-0.5-0.2236-0.5-0.5s0.2236-0.5,0.5-0.5h0.9604c0.2764,0,0.5,0.2236,0.5,0.5
		S9.7368,19.999,9.4604,19.999z"/>
	<path d="M12.4609,15.998h-0.9604c-0.2764,0-0.5-0.2236-0.5-0.5s0.2236-0.5,0.5-0.5h0.9604c0.2764,0,0.5,0.2236,0.5,0.5
		S12.7373,15.998,12.4609,15.998z"/>
	<path d="M12.4609,17.998h-0.9604c-0.2764,0-0.5-0.2236-0.5-0.5s0.2236-0.5,0.5-0.5h0.9604c0.2764,0,0.5,0.2236,0.5,0.5
		S12.7373,17.998,12.4609,17.998z"/>
	<path d="M12.4609,19.999h-0.9604c-0.2764,0-0.5-0.2236-0.5-0.5s0.2236-0.5,0.5-0.5h0.9604c0.2764,0,0.5,0.2236,0.5,0.5
		S12.7373,19.999,12.4609,19.999z"/>
	<path d="M15.4609,15.998h-0.96c-0.2764,0-0.5-0.2236-0.5-0.5s0.2236-0.5,0.5-0.5h0.96c0.2764,0,0.5,0.2236,0.5,0.5
		S15.7373,15.998,15.4609,15.998z"/>
	<path d="M15.4609,17.998h-0.96c-0.2764,0-0.5-0.2236-0.5-0.5s0.2236-0.5,0.5-0.5h0.96c0.2764,0,0.5,0.2236,0.5,0.5
		S15.7373,17.998,15.4609,17.998z"/>
	<path d="M15.4609,19.999h-0.96c-0.2764,0-0.5-0.2236-0.5-0.5s0.2236-0.5,0.5-0.5h0.96c0.2764,0,0.5,0.2236,0.5,0.5
		S15.7373,19.999,15.4609,19.999z"/>
</g>
<rect y="-0.002" fill="none" width="24" height="24"/>
</svg>
