<?xml version="1.0" encoding="utf-8"?>
<!-- Generator: Adobe Illustrator 18.1.0, SVG Export Plug-In . SVG Version: 6.00 Build 0)  -->
<svg version="1.1" id="Layer_1" xmlns="http://www.w3.org/2000/svg" xmlns:xlink="http://www.w3.org/1999/xlink" x="0px" y="0px"
	 width="24px" height="24px" viewBox="0 0 24 24" enable-background="new 0 0 24 24" xml:space="preserve">
<g>
	<path d="M6.5205,23.7832c-0.0947,0-0.189-0.0273-0.271-0.0801c-0.1426-0.0918-0.229-0.25-0.229-0.4199v-7.835
		c0-0.1963,0.1147-0.374,0.2935-0.4551l5.4644-2.4766c0.1538-0.0713,0.333-0.0566,0.4775,0.0352
		c0.1426,0.0918,0.2285,0.25,0.2285,0.4199v7.8359c0,0.1963-0.1143,0.374-0.293,0.4551l-5.4644,2.4756
		C6.6611,23.7686,6.5908,23.7832,6.5205,23.7832z M7.0205,15.7705v6.7373l4.4644-2.0225v-6.7383L7.0205,15.7705z"/>
	<path d="M6.5205,23.7832c-0.0645,0-0.1289-0.0127-0.1904-0.0381L0.313,21.2695c-0.187-0.0762-0.3096-0.2588-0.3096-0.4619v-7.8359
		c0-0.167,0.083-0.3223,0.2217-0.415c0.1377-0.0947,0.3135-0.1113,0.4688-0.0469l6.0171,2.4766
		c0.1875,0.0771,0.3096,0.2588,0.3096,0.4619v7.835c0,0.167-0.083,0.3223-0.2217,0.415
		C6.7153,23.7549,6.6182,23.7832,6.5205,23.7832z M1.0034,20.4727l5.0171,2.0645v-6.7539l-5.0171-2.0654V20.4727z"/>
	<path d="M6.5205,15.9482c-0.0645,0-0.1294-0.0127-0.1904-0.0381L0.313,13.4336c-0.1875-0.0771-0.3101-0.2598-0.3096-0.4629
		s0.1235-0.3857,0.3115-0.4619l6.0171-2.4482c0.127-0.0503,0.2695-0.0479,0.3931,0.0068l5.4644,2.4482
		c0.1797,0.0801,0.2949,0.2578,0.2949,0.4551c0.001,0.1963-0.1143,0.375-0.293,0.4561l-5.4644,2.4766
		C6.6616,15.9336,6.5908,15.9482,6.5205,15.9482z M1.8237,12.9746l4.687,1.9287l4.2568-1.9287l-4.2563-1.9072L1.8237,12.9746z"/>
	<path d="M11.9849,13.4717c-0.0952,0-0.1899-0.0273-0.2725-0.0811c-0.1421-0.0918-0.2275-0.25-0.2275-0.4189V5.4849
		c0-0.1997,0.1191-0.3809,0.3027-0.4595l5.5151-2.3662c0.1553-0.0674,0.332-0.0508,0.4727,0.042C17.915,2.7935,18,2.9507,18,3.1187
		v7.4053c0,0.1978-0.1162,0.377-0.2969,0.457l-5.5156,2.4478C12.123,13.457,12.0537,13.4717,11.9849,13.4717z M12.4854,5.8145
		v6.3887L17,10.1987V3.8774L12.4854,5.8145z"/>
	<path d="M11.9849,13.4717c-0.0693,0-0.1392-0.0146-0.2046-0.0439l-5.4644-2.4473c-0.1797-0.0806-0.2954-0.2593-0.2954-0.4565
		V3.1187c0-0.1685,0.085-0.3257,0.2256-0.418c0.1411-0.0918,0.3198-0.1069,0.4731-0.041l5.4644,2.3662
		c0.1826,0.0796,0.3008,0.2598,0.3008,0.459v7.4868c0,0.1699-0.085,0.3271-0.2275,0.4199
		C12.1748,13.4443,12.0801,13.4717,11.9849,13.4717z M7.0205,10.2002l4.4644,2V5.813L7.0205,3.8799V10.2002z"/>
	<path d="M11.9849,5.9849c-0.0679,0-0.1353-0.0137-0.1987-0.041L6.3218,3.5776C6.1387,3.498,6.02,3.3174,6.0205,3.1177
		s0.1196-0.3799,0.3032-0.4585l5.4644-2.3394c0.126-0.0537,0.2686-0.0537,0.3916-0.001l5.5156,2.3394
		C17.8799,2.7368,18,2.9175,18,3.1177s-0.1191,0.3813-0.3027,0.4604l-5.5156,2.3662C12.1191,5.9712,12.0518,5.9849,11.9849,5.9849z
		 M7.7847,3.1211l4.2012,1.8193l4.2397-1.8193l-4.2397-1.7983L7.7847,3.1211z"/>
	<path d="M17.5,23.7832c-0.0977,0-0.1943-0.0283-0.2773-0.084C17.083,23.6064,17,23.4502,17,23.2832v-7.835
		c0-0.2021,0.1221-0.3848,0.3086-0.4619l5.9658-2.4766c0.1543-0.0635,0.3311-0.0469,0.4688,0.0459
		c0.1396,0.0928,0.2227,0.249,0.2227,0.416v7.8359c0,0.2021-0.1221,0.3848-0.3086,0.4619l-5.9658,2.4756
		C17.6299,23.7705,17.5645,23.7832,17.5,23.7832z M18,15.7822v6.752l4.9658-2.0605v-6.7529L18,15.7822z"/>
	<path d="M17.5,23.7832c-0.0693,0-0.1396-0.0146-0.2051-0.0439l-5.5146-2.4756c-0.1797-0.0801-0.2954-0.2588-0.2954-0.4561v-7.8359
		c0-0.1699,0.0859-0.3271,0.2285-0.4199c0.1426-0.0908,0.3228-0.1045,0.4761-0.0361l5.5156,2.4766
		C17.8848,15.0732,18,15.251,18,15.4482v7.835c0,0.1699-0.0859,0.3271-0.2285,0.4199C17.6895,23.7559,17.5947,23.7832,17.5,23.7832z
		 M12.4854,20.4844L17,22.5107v-6.7393l-4.5146-2.0273V20.4844z"/>
	<path d="M17.5,15.9482c-0.0703,0-0.1396-0.0146-0.2051-0.0439l-5.5146-2.4766c-0.1802-0.0811-0.2959-0.2598-0.2954-0.457
		s0.1167-0.376,0.2974-0.4561l5.5146-2.4478c0.124-0.0557,0.2656-0.0581,0.3926-0.0054l5.9658,2.4473
		c0.1875,0.0771,0.3105,0.2598,0.3105,0.4619s-0.1211,0.3848-0.3086,0.4629l-5.9658,2.4766
		C17.6299,15.9355,17.5654,15.9482,17.5,15.9482z M13.2109,12.9746l4.2969,1.9287l4.6475-1.9287l-4.6475-1.9072L13.2109,12.9746z"/>
</g>
<rect x="-0.0136" y="0.0002" fill="none" width="24" height="24"/>
</svg>
