<?xml version="1.0" encoding="utf-8"?>
<!-- Generator: Adobe Illustrator 18.1.0, SVG Export Plug-In . SVG Version: 6.00 Build 0)  -->
<svg version="1.1" id="Layer_1" xmlns="http://www.w3.org/2000/svg" xmlns:xlink="http://www.w3.org/1999/xlink" x="0px" y="0px"
	 width="24px" height="24px" viewBox="0 0 24 24" enable-background="new 0 0 24 24" xml:space="preserve">
<g>
	<path d="M3.4697,20.9248c-0.1279,0-0.2559-0.0488-0.3535-0.1465c-0.1953-0.1953-0.1953-0.5117,0-0.707L22.7695,0.4346
		c0.1953-0.1953,0.5117-0.1953,0.707,0s0.1953,0.5122,0,0.707L3.8232,20.7783C3.7256,20.876,3.5977,20.9248,3.4697,20.9248z"/>
	<path d="M22.0098,5.917c-0.0381,0-0.0771-0.0044-0.1172-0.0137c-0.2686-0.0649-0.4336-0.335-0.3691-0.603l0.9229-3.835
		l-3.835,0.9224c-0.2705,0.064-0.5391-0.1016-0.6035-0.3696S18.1084,1.48,18.377,1.415l4.6289-1.1133
		c0.1699-0.042,0.3477,0.0098,0.4707,0.1328s0.1729,0.3013,0.1328,0.4702l-1.1133,4.6289
		C22.4404,5.7632,22.2363,5.917,22.0098,5.917z"/>
	<path d="M20.499,20.9248c-0.1279,0-0.2559-0.0488-0.3535-0.1465L0.522,1.1416c-0.1953-0.1953-0.1953-0.5122,0-0.707
		c0.1953-0.1953,0.5117-0.1953,0.707,0l19.6235,19.6367c0.1953,0.1953,0.1953,0.5117,0,0.707
		C20.7549,20.876,20.627,20.9248,20.499,20.9248z"/>
	<path d="M1.9878,5.917c-0.2256,0-0.4307-0.1538-0.4858-0.3833L0.3892,0.9048C0.3486,0.7358,0.3989,0.5576,0.522,0.4346
		s0.3003-0.1753,0.4702-0.1328L5.6206,1.415C5.8892,1.48,6.0547,1.75,5.9902,2.0181c-0.0649,0.2686-0.3384,0.4302-0.603,0.3696
		L1.5527,1.4653l0.9219,3.835c0.0645,0.2686-0.1011,0.5381-0.3696,0.603C2.0659,5.9126,2.0264,5.917,1.9878,5.917z"/>
	<path d="M16.499,20.4248c-0.2764,0-0.5-0.2236-0.5-0.5v-3.5c0-0.2764,0.2236-0.5,0.5-0.5h3.5c0.2764,0,0.5,0.2236,0.5,0.5
		s-0.2236,0.5-0.5,0.5h-3v3C16.999,20.2012,16.7754,20.4248,16.499,20.4248z"/>
	<path d="M18.499,22.4248c-0.2764,0-0.5-0.2236-0.5-0.5v-3.5c0-0.2764,0.2236-0.5,0.5-0.5h3.5c0.2764,0,0.5,0.2236,0.5,0.5
		s-0.2236,0.5-0.5,0.5h-3v3C18.999,22.2012,18.7754,22.4248,18.499,22.4248z"/>
	<path d="M20.499,23.9404c-0.2764,0-0.5-0.2236-0.5-0.5v-3.0156c0-0.2764,0.2236-0.5,0.5-0.5h3.0156c0.2764,0,0.5,0.2236,0.5,0.5
		s-0.2236,0.5-0.5,0.5H20.999v2.5156C20.999,23.7168,20.7754,23.9404,20.499,23.9404z"/>
	<path d="M7.4697,20.4248c-0.2764,0-0.5-0.2236-0.5-0.5v-3h-3c-0.2764,0-0.5-0.2236-0.5-0.5s0.2236-0.5,0.5-0.5h3.5
		c0.2764,0,0.5,0.2236,0.5,0.5v3.5C7.9697,20.2012,7.7461,20.4248,7.4697,20.4248z"/>
	<path d="M5.4697,22.4248c-0.2764,0-0.5-0.2236-0.5-0.5v-3h-3c-0.2764,0-0.5-0.2236-0.5-0.5s0.2236-0.5,0.5-0.5h3.5
		c0.2764,0,0.5,0.2236,0.5,0.5v3.5C5.9697,22.2012,5.7461,22.4248,5.4697,22.4248z"/>
	<path d="M3.4697,23.9404c-0.2764,0-0.5-0.2236-0.5-0.5v-2.5156H0.4541c-0.2764,0-0.5-0.2236-0.5-0.5s0.2236-0.5,0.5-0.5h3.0156
		c0.2764,0,0.5,0.2236,0.5,0.5v3.0156C3.9697,23.7168,3.7461,23.9404,3.4697,23.9404z"/>
</g>
<rect x="-0.0008" y="-0.0147" fill="none" width="24" height="24"/>
</svg>
