<?xml version="1.0" encoding="utf-8"?>
<!-- Generator: Adobe Illustrator 18.1.0, SVG Export Plug-In . SVG Version: 6.00 Build 0)  -->
<svg version="1.1" id="Layer_1" xmlns="http://www.w3.org/2000/svg" xmlns:xlink="http://www.w3.org/1999/xlink" x="0px" y="0px"
	 width="24px" height="24px" viewBox="0 0 24 24" enable-background="new 0 0 24 24" xml:space="preserve">
<g>
	<path d="M13.4824,20.5771L13.4824,20.5771c-0.8496,0-1.541-0.6982-1.541-1.5557l-0.0015-3.1133L3.061,14.958
		c-2.0371-0.3574-2.918-1.7539-2.9019-2.9824c0.0166-1.2334,0.9136-2.6099,2.8813-2.9028l8.9009-0.9517l-0.001-3.1138
		c0.0005-1.3745,1.5967-1.8789,2.458-1.2529l8.8037,7.0215c0.3857,0.2773,0.6191,0.7319,0.6211,1.2329
		c0.002,0.5029-0.2305,0.9619-0.6377,1.2588l-8.7695,6.9922C14.127,20.4717,13.8096,20.5771,13.4824,20.5771z M13.5029,4.4683
		c-0.2266,0-0.5625,0.1436-0.5625,0.5391l0.001,3.563c0,0.2554-0.1924,0.4702-0.4473,0.4971l-9.3267,0.9971
		c-1.3662,0.2041-1.9976,1.1143-2.0083,1.9243c-0.0098,0.7456,0.519,1.7114,2.0415,1.98l9.2915,0.9932
		c0.2549,0.0273,0.4473,0.2412,0.4473,0.4971l0.002,3.5625c0,0.3477,0.2744,0.5557,0.541,0.5557l0,0
		c0.1152,0,0.2256-0.0371,0.3271-0.1113l8.7695-6.9922c0.1621-0.1191,0.2441-0.2822,0.2441-0.4609
		c-0.001-0.1772-0.083-0.3374-0.2246-0.4399L13.793,4.5498C13.7031,4.4849,13.584,4.4683,13.5029,4.4683z"/>
</g>
<rect y="0.001" fill="none" width="24" height="24"/>
</svg>
