<?xml version="1.0" encoding="utf-8"?>
<!-- Generator: Adobe Illustrator 18.1.0, SVG Export Plug-In . SVG Version: 6.00 Build 0)  -->
<svg version="1.1" id="Layer_1" xmlns="http://www.w3.org/2000/svg" xmlns:xlink="http://www.w3.org/1999/xlink" x="0px" y="0px"
	 width="24px" height="24px" viewBox="0 0 24 24" enable-background="new 0 0 24 24" xml:space="preserve">
<g>
	<path d="M13.2246,24.0732l-0.7422-0.0088l-0.7427,0.0088c-0.4727,0-0.853-0.0352-1.1714-0.207
		c-0.2861-0.1533-0.6274-0.4854-0.6274-1.1885l0.2007-17.1611c0.0034-0.2739,0.2261-0.4941,0.5-0.4941h3.6797
		c0.2734,0,0.4971,0.2202,0.5,0.4941l0.2021,17.1553C15.0234,24.0732,13.7627,24.0732,13.2246,24.0732z M12.4824,23.0645
		l0.7422,0.0088c0.7988,0,0.7988-0.1074,0.7988-0.3955L13.8271,6.0225h-2.6914l-0.1948,16.6611c0,0.248,0.0684,0.2842,0.1011,0.3027
		c0.1621,0.0869,0.5376,0.0869,0.6978,0.0869L12.4824,23.0645z"/>
	<path d="M20.7314,7.9165c-0.0059,0-0.0127,0-0.0186-0.0005c-0.1377-0.0049-0.2676-0.0674-0.3584-0.1714
		c-0.6504-0.7466-2.6797-2.6846-4.2422-2.6846c-0.5586,0-1.0127,0.2515-1.3857,0.7681c-0.0938,0.1299-0.2451,0.207-0.4053,0.207
		h-3.6797c-0.2764,0-0.5-0.2236-0.5-0.5c0-0.5,0-0.5-0.6089-0.5H8.7285c-0.6089,0-0.6089,0-0.6089,0.5c0,0.2764-0.2236,0.5-0.5,0.5
		H5.6499c-0.8867,0-1.6357-0.813-1.6357-1.7754V1.7334c0-0.9521,0.7183-1.6982,1.6357-1.6982h1.9697c0.2764,0,0.5,0.2236,0.5,0.5
		c0,0.5,0,0.5,0.6089,0.5h0.8042c0.6089,0,0.6089,0,0.6089-0.5c0-0.2764,0.2236-0.5,0.5-0.5h3.6562
		c0.1191-0.0278,4.1943-0.5713,7.6367,6.4121c0.0957,0.1929,0.0566,0.4248-0.0967,0.5762l-0.7549,0.748
		C20.9893,7.8647,20.8633,7.9165,20.7314,7.9165z M16.1123,4.0601c1.8496,0,3.832,1.8179,4.6338,2.6387l0.1309-0.1299
		c-2.6406-5.1431-5.4668-5.5498-6.2832-5.5498c-0.1113,0-0.1787,0.0078-0.1943,0.0103l-3.3047,0.0054
		c-0.2095,1.0005-1.0708,1.0005-1.562,1.0005H8.7285c-0.4912,0-1.3521,0-1.562-1H5.6499c-0.3623,0-0.6357,0.3003-0.6357,0.6982
		v2.5264c0,0.4131,0.2969,0.7754,0.6357,0.7754h1.5166c0.21-1,1.0708-1,1.562-1h0.8042c0.4912,0,1.3521,0,1.562,1h2.9834
		C14.6182,4.396,15.3164,4.0601,16.1123,4.0601z"/>
</g>
<rect x="0.0142" y="0.0354" fill="none" width="24" height="24"/>
</svg>
