<?xml version="1.0" encoding="utf-8"?>
<!-- Generator: Adobe Illustrator 18.1.0, SVG Export Plug-In . SVG Version: 6.00 Build 0)  -->
<svg version="1.1" id="Layer_1" xmlns="http://www.w3.org/2000/svg" xmlns:xlink="http://www.w3.org/1999/xlink" x="0px" y="0px"
	 width="24px" height="24px" viewBox="0 0 24 24" enable-background="new 0 0 24 24" xml:space="preserve">
<g>
	<path d="M13.2344,21.0029H10.812c-0.2251,0-0.4224-0.1504-0.4819-0.3672c-2.4888-9.0386,0.8477-19.8281,0.9907-20.2832
		c0.0659-0.208,0.2588-0.3496,0.4771-0.3496h0.4512c0.2188,0,0.4111,0.1416,0.4766,0.3496
		c0.1436,0.4551,3.4795,11.2446,0.9912,20.2832C13.6562,20.8525,13.459,21.0029,13.2344,21.0029z M11.1968,20.0029h1.6528
		c1.8467-7.2227-0.0977-15.7319-0.8262-18.4614C11.2954,4.2715,9.3521,12.7852,11.1968,20.0029z"/>
	<path d="M7.9751,12.3184c-0.0093,0-0.019,0-0.0283-0.001c-0.2759-0.0156-0.4868-0.251-0.4712-0.5269
		c0.2124-3.8188,0.8955-6.396,1.1797-7.3271c0.2617-0.8599,1.0605-1.4604,1.9414-1.4604h2.418c0.2764,0,0.5,0.2236,0.5,0.5
		s-0.2236,0.5-0.5,0.5h-2.418c-0.4448,0-0.8501,0.3096-0.9854,0.7524C9.3984,5.4546,8.686,8.0322,8.4736,11.8462
		C8.459,12.1123,8.2383,12.3184,7.9751,12.3184z"/>
	<path d="M12.0234,24.0049c-0.2764,0-0.5-0.2236-0.5-0.5v-1.1172c0-0.2764,0.2236-0.5,0.5-0.5s0.5,0.2236,0.5,0.5v1.1172
		C12.5234,23.7812,12.2998,24.0049,12.0234,24.0049z"/>
	<path d="M12.3496,22.8877h-0.6523c-0.2397,0-0.4453-0.1699-0.4907-0.4053l-0.3643-1.8848
		c-0.0283-0.1465,0.0103-0.2979,0.105-0.4131c0.0952-0.1152,0.2363-0.1816,0.3857-0.1816h1.3809
		c0.1494,0,0.291,0.0664,0.3857,0.1816s0.1338,0.2666,0.1055,0.4131l-0.3643,1.8848
		C12.7949,22.7178,12.5889,22.8877,12.3496,22.8877z"/>
</g>
<rect x="0.0293" y="0.0001" fill="none" width="24" height="24"/>
</svg>
