<?xml version="1.0" encoding="utf-8"?>
<!-- Generator: Adobe Illustrator 18.1.0, SVG Export Plug-In . SVG Version: 6.00 Build 0)  -->
<svg version="1.1" id="Layer_1" xmlns="http://www.w3.org/2000/svg" xmlns:xlink="http://www.w3.org/1999/xlink" x="0px" y="0px"
	 width="24px" height="24px" viewBox="0 0 24 24" enable-background="new 0 0 24 24" xml:space="preserve">
<g>
	<path d="M12.0859,23.834c-3.0444,0-8.1973-0.4775-8.1973-2.2686L2.1938,3.3916C2.1685,3.1167,2.3706,2.873,2.6455,2.8472
		c0.2676-0.0273,0.5186,0.1763,0.5444,0.4517l1.6968,18.2207c0.1753,0.4746,2.8037,1.3145,7.1992,1.3145
		c4.3945,0,7.0225-0.8398,7.1992-1.29l1.6963-18.2451c0.0264-0.2754,0.2764-0.478,0.5439-0.4517
		c0.2754,0.0259,0.4775,0.2695,0.4521,0.5444l-1.6973,18.2197C20.2822,23.3564,15.1299,23.834,12.0859,23.834z"/>
	<path d="M12.0859,6.5107c-4.9165,0-9.894-1.0933-9.894-3.1831s4.9775-3.1836,9.894-3.1836c4.916,0,9.8936,1.0938,9.8936,3.1836
		S17.002,6.5107,12.0859,6.5107z M12.0859,1.144c-5.4292,0-8.894,1.2935-8.894,2.1836s3.4648,2.1831,8.894,2.1831
		c5.4287,0,8.8936-1.293,8.8936-2.1831S17.5146,1.144,12.0859,1.144z"/>
	<path d="M12.0859,23.834c-0.1328,0-0.2656-0.0527-0.3643-0.1572l-8.3594-8.8779c-0.189-0.2012-0.1797-0.5176,0.0215-0.707
		s0.5171-0.1807,0.707,0.0215l8.3594,8.8779c0.1895,0.2012,0.1797,0.5176-0.0215,0.707C12.332,23.7891,12.209,23.834,12.0859,23.834
		z"/>
	<path d="M19.5586,22.4863c-0.1289,0-0.2578-0.0498-0.3555-0.1484L2.5005,5.4619c-0.1943-0.1963-0.1924-0.5127,0.0039-0.707
		c0.1963-0.1934,0.5132-0.1934,0.707,0.0039l16.7026,16.876c0.1943,0.1963,0.1924,0.5127-0.0039,0.707
		C19.8125,22.4385,19.6855,22.4863,19.5586,22.4863z"/>
	<path d="M20.4482,14.9111c-0.1279,0-0.2568-0.0488-0.3545-0.1475l-8.3623-8.4004c-0.1948-0.1953-0.1938-0.5122,0.002-0.707
		s0.5137-0.1934,0.707,0.002l8.3623,8.4004c0.1943,0.1953,0.1943,0.5117-0.002,0.707
		C20.7031,14.8623,20.5762,14.9111,20.4482,14.9111z"/>
	<path d="M12.0859,23.834c-0.1226,0-0.2456-0.0449-0.3418-0.1348c-0.2017-0.1895-0.2119-0.5059-0.0229-0.707l8.3618-8.9229
		c0.1895-0.2021,0.5059-0.2109,0.707-0.0234c0.2012,0.1895,0.2119,0.5059,0.0234,0.707l-8.3623,8.9229
		C12.3525,23.7812,12.2197,23.834,12.0859,23.834z"/>
	<path d="M4.6113,22.4883c-0.127,0-0.2544-0.0479-0.3516-0.1445c-0.1963-0.1943-0.1982-0.5107-0.0039-0.707L20.959,4.7598
		c0.1934-0.1963,0.5098-0.1973,0.707-0.0039c0.1963,0.1943,0.1982,0.5107,0.0039,0.707L4.9668,22.3398
		C4.8691,22.4385,4.7402,22.4883,4.6113,22.4883z"/>
	<path d="M3.7266,14.9561c-0.127,0-0.2544-0.0479-0.3516-0.1445c-0.1963-0.1943-0.1982-0.5107-0.0039-0.707l8.3594-8.4453
		c0.1938-0.1963,0.5107-0.1973,0.707-0.0039c0.1963,0.1943,0.1982,0.5107,0.0039,0.707L4.082,14.8076
		C3.9844,14.9062,3.8555,14.9561,3.7266,14.9561z"/>
</g>
<rect fill="none" width="24" height="24"/>
</svg>
