<?xml version="1.0" encoding="utf-8"?>
<!-- Generator: Adobe Illustrator 18.1.0, SVG Export Plug-In . SVG Version: 6.00 Build 0)  -->
<svg version="1.1" id="Layer_1" xmlns="http://www.w3.org/2000/svg" xmlns:xlink="http://www.w3.org/1999/xlink" x="0px" y="0px"
	 width="24px" height="24px" viewBox="0 0 24 24" enable-background="new 0 0 24 24" xml:space="preserve">
<g>
	<path d="M21.5732,18.7686c-0.0459,0-0.0918-0.0059-0.1387-0.0195c-0.2646-0.0762-0.418-0.3535-0.3418-0.6191
		c0.46-1.5986-0.4668-3.2734-2.0664-3.7334l-2.4541-0.7061c-1.0273-0.3906-1.3369-1.0244-1.4229-1.4893
		c-0.3213-1.7446,1.9531-3.9961,2.9463-4.8838c0.832-0.8394,1.1592-2.0571,0.8525-3.2368
		c-0.3066-1.1772-1.1855-2.0801-2.3516-2.4155c-1.2422-0.354-2.5107-0.0107-3.4014,0.9224
		c-0.8945,0.938-1.1816,2.2251-0.7686,3.4434c0.3965,1.5205,0.8799,4.187-0.2168,5.3501c-0.3188,0.3374-0.9121,0.6963-1.9409,0.4946
		l-2.498-0.7168c-0.7764-0.2241-1.5903-0.1304-2.2944,0.2593c-0.7051,0.3901-1.2163,1.0312-1.439,1.8066
		c-0.0762,0.2646-0.3521,0.4238-0.6187,0.3418c-0.2656-0.0762-0.4185-0.3535-0.3423-0.6191
		c0.6128-2.1284,2.8418-3.3623,4.9707-2.7495l2.4565,0.7065c0.6611,0.1279,0.8999-0.1255,0.978-0.2095
		c0.6499-0.689,0.4199-2.7134-0.0122-4.3779c-0.5171-1.5186-0.1372-3.2256,1.002-4.4199c1.1523-1.2095,2.7949-1.6543,4.4014-1.1929
		c1.5088,0.4341,2.6465,1.6021,3.043,3.1245c0.3965,1.5254-0.0264,3.1006-1.1328,4.2144c-1.7725,1.5854-2.8047,3.1382-2.6504,3.9766
		c0.0215,0.1152,0.0869,0.4668,0.7568,0.7236l2.4141,0.6924c2.1289,0.6123,3.3623,2.8428,2.75,4.9717
		C21.9902,18.626,21.791,18.7686,21.5732,18.7686z"/>
	<path d="M20.0029,24h-17c-0.2764,0-0.5-0.2236-0.5-0.5s0.2236-0.5,0.5-0.5h17c0.2764,0,0.5,0.2236,0.5,0.5S20.2793,24,20.0029,24z"
		/>
	<path d="M21.5732,18.7686c-0.0459,0-0.0918-0.0059-0.1387-0.0195L3.4189,13.5664c-0.2656-0.0762-0.4185-0.3535-0.3423-0.6191
		c0.0762-0.2646,0.3545-0.4209,0.6187-0.3418l18.0166,5.1826c0.2646,0.0762,0.418,0.3535,0.3418,0.6191
		C21.9902,18.626,21.791,18.7686,21.5732,18.7686z"/>
	<path d="M20.1475,20.1895c-0.0459,0-0.0918-0.0059-0.1377-0.0195L3.8721,15.5312c-0.2651-0.0762-0.4185-0.3535-0.3423-0.6182
		l0.4868-1.6943c0.0366-0.1279,0.1221-0.2354,0.2383-0.2998c0.1162-0.0635,0.2515-0.0801,0.3804-0.043l16.1372,4.6396
		c0.1279,0.0361,0.2354,0.1221,0.2998,0.2383s0.0801,0.2529,0.043,0.3809l-0.4873,1.6934
		C20.5645,20.0469,20.3652,20.1895,20.1475,20.1895z M4.6289,14.708l15.1768,4.3633l0.21-0.7324L4.8394,13.9756L4.6289,14.708z"/>
</g>
<rect fill="none" width="24" height="24"/>
</svg>
