<?xml version="1.0" encoding="utf-8"?>
<!-- Generator: Adobe Illustrator 18.1.0, SVG Export Plug-In . SVG Version: 6.00 Build 0)  -->
<svg version="1.1" id="Layer_1" xmlns="http://www.w3.org/2000/svg" xmlns:xlink="http://www.w3.org/1999/xlink" x="0px" y="0px"
	 width="24px" height="24px" viewBox="0 0 24 24" enable-background="new 0 0 24 24" xml:space="preserve">
<g>
	<path d="M22.4805,2.001H1.5479c-0.2764,0-0.5-0.2236-0.5-0.5s0.2236-0.5,0.5-0.5h20.9326c0.2764,0,0.5,0.2236,0.5,0.5
		S22.7568,2.001,22.4805,2.001z"/>
	<path d="M13.5098,5.001H1.5479c-0.2764,0-0.5-0.2236-0.5-0.5s0.2236-0.5,0.5-0.5h11.9619c0.2764,0,0.5,0.2236,0.5,0.5
		S13.7861,5.001,13.5098,5.001z"/>
	<path d="M22.4805,8.001H1.5479c-0.2764,0-0.5-0.2236-0.5-0.5s0.2236-0.5,0.5-0.5h20.9326c0.2764,0,0.5,0.2236,0.5,0.5
		S22.7568,8.001,22.4805,8.001z"/>
	<path d="M13.5098,11.001H1.5479c-0.2764,0-0.5-0.2236-0.5-0.5s0.2236-0.5,0.5-0.5h11.9619c0.2764,0,0.5,0.2236,0.5,0.5
		S13.7861,11.001,13.5098,11.001z"/>
	<path d="M22.4805,14.001H1.5479c-0.2764,0-0.5-0.2236-0.5-0.5s0.2236-0.5,0.5-0.5h20.9326c0.2764,0,0.5,0.2236,0.5,0.5
		S22.7568,14.001,22.4805,14.001z"/>
	<path d="M13.5098,17.001H1.5479c-0.2764,0-0.5-0.2236-0.5-0.5s0.2236-0.5,0.5-0.5h11.9619c0.2764,0,0.5,0.2236,0.5,0.5
		S13.7861,17.001,13.5098,17.001z"/>
	<path d="M22.4805,20.001H1.5479c-0.2764,0-0.5-0.2236-0.5-0.5s0.2236-0.5,0.5-0.5h20.9326c0.2764,0,0.5,0.2236,0.5,0.5
		S22.7568,20.001,22.4805,20.001z"/>
	<path d="M13.5098,23.001H1.5479c-0.2764,0-0.5-0.2236-0.5-0.5s0.2236-0.5,0.5-0.5h11.9619c0.2764,0,0.5,0.2236,0.5,0.5
		S13.7861,23.001,13.5098,23.001z"/>
</g>
<rect y="0.0011" fill="none" width="24" height="24"/>
</svg>
