<?xml version="1.0" encoding="utf-8"?>
<!-- Generator: Adobe Illustrator 18.1.0, SVG Export Plug-In . SVG Version: 6.00 Build 0)  -->
<svg version="1.1" id="Layer_1" xmlns="http://www.w3.org/2000/svg" xmlns:xlink="http://www.w3.org/1999/xlink" x="0px" y="0px"
	 width="24px" height="24px" viewBox="0 0 24 24" enable-background="new 0 0 24 24" xml:space="preserve">
<g>
	<path d="M23.5293,5.0049h-4c-0.2764,0-0.5-0.2236-0.5-0.5v-4c0-0.2764,0.2236-0.5,0.5-0.5s0.5,0.2236,0.5,0.5v3.5h3.5
		c0.2764,0,0.5,0.2236,0.5,0.5S23.8057,5.0049,23.5293,5.0049z"/>
	<path d="M22.7373,24.0049H7.3164c-0.71,0-1.2871-0.583-1.2871-1.2998V16.043c0-0.2764,0.2236-0.5,0.5-0.5s0.5,0.2236,0.5,0.5
		v6.6621c0,0.1621,0.1313,0.2998,0.2871,0.2998h15.4209c0.1582,0,0.292-0.1377,0.292-0.2998V4.5049c0-0.0352,0-0.0542-0.0879-0.1406
		l-3.3125-3.2686c-0.0273-0.0278-0.0859-0.0854-0.1064-0.0977L7.3164,1.0049c-0.1558,0-0.2871,0.1401-0.2871,0.3057v7.6855
		c0,0.2764-0.2236,0.5-0.5,0.5s-0.5-0.2236-0.5-0.5V1.3105c0-0.7197,0.5771-1.3057,1.2871-1.3057h12.2129
		c0.418,0,0.6406,0.2192,0.8027,0.3789l3.3125,3.2686c0.1787,0.1772,0.3848,0.4341,0.3848,0.8525v18.2002
		C24.0293,23.4219,23.4492,24.0049,22.7373,24.0049z"/>
	<path d="M13.5938,13.0352H0.6567c-0.2764,0-0.5-0.2236-0.5-0.5s0.2236-0.5,0.5-0.5h12.937c0.2764,0,0.5,0.2236,0.5,0.5
		S13.8701,13.0352,13.5938,13.0352z"/>
	<path d="M3.709,16.2188c-0.1313,0-0.2627-0.0518-0.3608-0.1543l-3.0522-3.1836c-0.1855-0.1934-0.1855-0.498,0-0.6914l3.0522-3.1831
		c0.1914-0.1992,0.5073-0.2051,0.707-0.0146c0.1992,0.1909,0.2061,0.5078,0.0146,0.707l-2.7202,2.8364l2.7202,2.8379
		c0.1914,0.1992,0.1846,0.5156-0.0146,0.707C3.958,16.1729,3.8335,16.2188,3.709,16.2188z"/>
</g>
<rect y="0.0001" fill="none" width="24" height="24"/>
</svg>
