<?xml version="1.0" encoding="utf-8"?>
<!-- Generator: Adobe Illustrator 18.1.0, SVG Export Plug-In . SVG Version: 6.00 Build 0)  -->
<svg version="1.1" id="Layer_1" xmlns="http://www.w3.org/2000/svg" xmlns:xlink="http://www.w3.org/1999/xlink" x="0px" y="0px"
	 width="24px" height="24px" viewBox="0 0 24 24" enable-background="new 0 0 24 24" xml:space="preserve">
<g>
	<path d="M9.9917,23.7363c-3.624,0-6.4155-4.0107-6.9238-7.7266c-0.5688-4.166,1.6997-7.5562,5.394-8.0615
		c1.1714-0.1616,2.3711,0.1382,3.5073,0.8428c1.1353-0.7046,2.3394-1.0029,3.5063-0.8428c1.7373,0.2378,3.2637,1.1729,4.2979,2.6333
		c1.1055,1.5601,1.4932,3.4995,1.0908,5.4614c-0.7764,3.7803-3.5889,7.6904-6.9541,7.6904l0,0c-0.1943,0-0.3896-0.0127-0.5859-0.04
		c-0.4629-0.0625-0.918-0.1807-1.355-0.3516c-0.438,0.1709-0.8931,0.2891-1.355,0.3516
		C10.4058,23.7217,10.1982,23.7363,9.9917,23.7363z M9.0835,8.9062c-0.1616,0-0.3237,0.0107-0.4858,0.0332
		c-3.1206,0.4263-5.0293,3.3428-4.5386,6.9355c0.5386,3.9404,3.5205,7.2295,6.4194,6.8281c0.4429-0.0605,0.8779-0.1816,1.293-0.3604
		c0.1265-0.0537,0.2676-0.0557,0.3955,0c0.415,0.1787,0.8496,0.2998,1.292,0.3604c3.0127,0.4082,5.709-3.3711,6.4248-6.8613
		c0.3467-1.6875,0.0176-3.3496-0.9258-4.6821c-0.873-1.2324-2.1582-2.021-3.6172-2.2202c-1.0244-0.1396-2.0791,0.166-3.0879,0.8608
		c-0.1699,0.1182-0.3965,0.1182-0.5674,0C10.8369,9.2153,9.937,8.9062,9.0835,8.9062z"/>
	<path d="M11.9692,9.2139c-0.0005,0-0.001,0-0.002,0c-0.2485-0.001-0.4585-0.1841-0.4932-0.4302
		c-0.0327-0.2319-0.7681-5.6934,1.9351-7.1953c0.1699-0.0933,0.377-0.0815,0.5322,0.0288c0.1562,0.1108,0.2363,0.3022,0.2041,0.4917
		c0.002,0.0205,0.0498,0.0601,0.1465,0.0928c0.208,0.0713,0.3633,0.2168,0.4365,0.4106c0.1553,0.4111-0.084,0.8276-0.5176,1.584
		c-0.5723,0.9976-1.4385,2.5059-1.7471,4.5908C12.4277,9.0322,12.2168,9.2139,11.9692,9.2139z M13.4385,2.8193
		c-0.5674,0.5952-0.8574,1.5713-0.9893,2.5806c0.3154-0.6934,0.6426-1.2622,0.8945-1.7017
		c0.1338-0.2344,0.2812-0.4912,0.3643-0.6665C13.5996,2.9692,13.5107,2.897,13.4385,2.8193z"/>
	<path d="M11.1812,7.6113h-0.0005C7.1445,7.6108,3.9248,4.6318,3.8511,0.8296C3.8462,0.5674,4.0444,0.3457,4.3062,0.3218
		c4.3213-0.3848,7.9927,2.7803,8.0532,6.752c0.0049,0.2622-0.1953,0.4834-0.4561,0.5059
		C11.6597,7.6011,11.4189,7.6113,11.1812,7.6113z M4.8804,1.29c0.312,3.02,2.9873,5.3208,6.3003,5.3213h0.0005
		c0.0503,0,0.1001-0.0005,0.1504-0.0015C11.0181,3.5835,8.2012,1.2241,4.8804,1.29z"/>
	<path d="M6.2065,16.5869c-0.2568,0-0.4751-0.1963-0.4976-0.457c-0.3853-4.4316,2.2505-5.6074,2.3633-5.6553
		c0.2544-0.1089,0.5474,0.0098,0.6558,0.2642c0.1079,0.2524-0.0088,0.5444-0.2603,0.6543
		c-0.0923,0.0415-2.0815,0.9849-1.7627,4.6509c0.0239,0.2744-0.1797,0.5176-0.4546,0.541
		C6.2358,16.5859,6.2212,16.5869,6.2065,16.5869z"/>
</g>
<rect y="0.0346" fill="none" width="24" height="24"/>
</svg>
