<?xml version="1.0" encoding="utf-8"?>
<!-- Generator: Adobe Illustrator 18.1.0, SVG Export Plug-In . SVG Version: 6.00 Build 0)  -->
<svg version="1.1" id="Layer_1" xmlns="http://www.w3.org/2000/svg" xmlns:xlink="http://www.w3.org/1999/xlink" x="0px" y="0px"
	 width="24px" height="24px" viewBox="0 0 24 24" enable-background="new 0 0 24 24" xml:space="preserve">
<g>
	<path d="M20.4863,23.9258L20.4863,23.9258c-0.2764,0-0.5-0.2236-0.5-0.5l0.001-8.2949c0-0.2764,0.2236-0.5,0.5-0.5l0,0
		c0.2764,0,0.5,0.2236,0.5,0.5l-0.001,8.2949C20.9863,23.7021,20.7627,23.9258,20.4863,23.9258z"/>
	<path d="M20.4873,5.2949c-1.1143,0-1.8535-1.3994-1.8535-2.3252c0-1.0361,0.8311-1.8789,1.8535-1.8789
		c1.0215,0,1.8525,0.8428,1.8525,1.8789C22.3398,3.8955,21.6006,5.2949,20.4873,5.2949z M20.4873,2.0908
		c-0.4707,0-0.8535,0.394-0.8535,0.8789c0,0.582,0.4785,1.3252,0.8535,1.3252c0.374,0,0.8525-0.7432,0.8525-1.3252
		C21.3398,2.4849,20.957,2.0908,20.4873,2.0908z"/>
	<path d="M22.2373,23.9258c-0.0088,0-0.0176,0-0.0273-0.001c-0.2754-0.0146-0.4873-0.251-0.4717-0.5264l0.5352-9.8086
		c0.0068-0.1348,0.0918-0.3115,0.1943-0.4004c0.1406-0.1221,0.3057-0.1514,0.459-0.1514c0.1533-4.6704-0.0879-6.0986-0.2061-6.5078
		c-0.0918-0.0034-0.2041-0.0078-0.3057-0.0122L22.127,6.5049C22.0938,6.5,22.0527,6.5425,22.0234,6.5986
		c-0.2725,0.54-0.8613,0.8765-1.5371,0.8765c-0.6748,0-1.2637-0.3364-1.5371-0.8774c-0.0283-0.0552-0.0615-0.085-0.1025-0.0928
		c-0.2373,0.0264-4.3564,0.7031-5.7422,0.9375l5.1436,0.4634c0.2568,0.0244,0.4531,0.2397,0.4531,0.498v5.2134l0.5342,9.7812
		c0.0156,0.2754-0.1963,0.5117-0.4717,0.5264c-0.293,0.041-0.5107-0.1963-0.5264-0.4717l-0.5352-9.8086l-0.001-4.7852
		l-4.6904-0.4375c-0.4971-0.0469-0.8721-0.4478-0.8906-0.9531c-0.0186-0.5122,0.3184-0.9287,0.8184-1.0127
		c0.8789-0.1484,5.6318-0.9351,5.8438-0.9492c0.4355-0.0283,0.8447,0.2173,1.0586,0.6387c0.2471,0.4883,1.0479,0.4849,1.291,0.001
		c0.2148-0.4229,0.625-0.667,1.0576-0.6396L22.457,5.519c0.5156,0.0215,0.623,0.0298,0.7148,0.0557
		c0.0703,0.02,0.1357,0.0557,0.1904,0.103c0.2217,0.1895,0.8096,0.6934,0.5488,7.8301c-0.0059,0.1377-0.0879,0.3125-0.1924,0.4033
		c-0.1445,0.125-0.3125,0.1514-0.4697,0.1504l-0.5127,9.3916C22.7217,23.7197,22.501,23.9258,22.2373,23.9258z"/>
	<path d="M9.4863,2c-0.2764,0-0.5-0.2236-0.5-0.5V0.5186c0-0.2764,0.2236-0.5,0.5-0.5s0.5,0.2236,0.5,0.5V1.5
		C9.9863,1.7764,9.7627,2,9.4863,2z"/>
	<path d="M15.4863,2c-0.2764,0-0.5-0.2236-0.5-0.5V0.5186c0-0.2764,0.2236-0.5,0.5-0.5s0.5,0.2236,0.5,0.5V1.5
		C15.9863,1.7764,15.7627,2,15.4863,2z"/>
	<path d="M15.9863,19h-15.5c-0.2764,0-0.5-0.2236-0.5-0.5v-17c0-0.2764,0.2236-0.5,0.5-0.5h16.5c0.2764,0,0.5,0.2236,0.5,0.5
		s-0.2236,0.5-0.5,0.5h-16v16h15c0.2764,0,0.5,0.2236,0.5,0.5S16.2627,19,15.9863,19z"/>
	<path d="M3.9404,11.4287c-0.8149,0-1.478-0.6626-1.478-1.4775s0.6631-1.478,1.478-1.478s1.478,0.6631,1.478,1.478
		S4.7554,11.4287,3.9404,11.4287z M3.9404,9.4731c-0.2637,0-0.478,0.2144-0.478,0.478c0,0.2632,0.2144,0.4775,0.478,0.4775
		s0.478-0.2144,0.478-0.4775C4.4185,9.6875,4.2041,9.4731,3.9404,9.4731z"/>
	<path d="M8.9541,7.9707c-0.8149,0-1.478-0.6631-1.478-1.478s0.6631-1.478,1.478-1.478s1.4775,0.6631,1.4775,1.478
		S9.769,7.9707,8.9541,7.9707z M8.9541,6.0146c-0.2637,0-0.478,0.2144-0.478,0.478s0.2144,0.478,0.478,0.478
		c0.2632,0,0.4775-0.2144,0.4775-0.478S9.2173,6.0146,8.9541,6.0146z"/>
	<path d="M13.0967,15.7871c-0.8154,0-1.4785-0.6631-1.4785-1.4775c0-0.8154,0.6631-1.4785,1.4785-1.4785
		c0.8145,0,1.4775,0.6631,1.4775,1.4785C14.5742,15.124,13.9111,15.7871,13.0967,15.7871z M13.0967,13.8311
		c-0.2637,0-0.4785,0.2148-0.4785,0.4785s0.2148,0.4775,0.4785,0.4775s0.4775-0.2139,0.4775-0.4775S13.3604,13.8311,13.0967,13.8311
		z"/>
	<path d="M4.7642,9.9272c-0.1528,0-0.3037-0.0698-0.4019-0.2017c-0.1646-0.2217-0.1187-0.5352,0.103-0.6997l3.2124-2.3857
		c0.2212-0.1655,0.5342-0.1187,0.6997,0.103c0.1646,0.2217,0.1187,0.5352-0.103,0.6997L5.062,9.8286
		C4.9722,9.895,4.8677,9.9272,4.7642,9.9272z"/>
	<path d="M12.5654,13.9893c-0.1836,0-0.3604-0.1016-0.4473-0.2764L9.0371,7.5356C8.9136,7.2886,9.0142,6.9883,9.2612,6.8652
		c0.2495-0.123,0.5474-0.0225,0.6704,0.2241l3.0811,6.1763c0.123,0.2471,0.0234,0.5479-0.2236,0.6709
		C12.7168,13.9727,12.6406,13.9893,12.5654,13.9893z"/>
	<path d="M12.4863,24c-0.2764,0-0.5-0.2236-0.5-0.5v-2.874c0-0.2764,0.2236-0.5,0.5-0.5s0.5,0.2236,0.5,0.5V23.5
		C12.9863,23.7764,12.7627,24,12.4863,24z"/>
	<path d="M14.9863,24h-6c-0.2764,0-0.5-0.2236-0.5-0.5S8.71,23,8.9863,23h6c0.2764,0,0.5,0.2236,0.5,0.5S15.2627,24,14.9863,24z"/>
</g>
<rect x="-0.0137" fill="none" width="24" height="24"/>
</svg>
