<?xml version="1.0" encoding="utf-8"?>
<!-- Generator: Adobe Illustrator 18.1.0, SVG Export Plug-In . SVG Version: 6.00 Build 0)  -->
<svg version="1.1" id="Layer_1" xmlns="http://www.w3.org/2000/svg" xmlns:xlink="http://www.w3.org/1999/xlink" x="0px" y="0px"
	 width="24px" height="24px" viewBox="0 0 24 24" enable-background="new 0 0 24 24" xml:space="preserve">
<g>
	<path d="M2.0132,13.0762c-0.8965,0-1.6255-0.7285-1.6255-1.625s0.729-1.6255,1.6255-1.6255c0.896,0,1.625,0.729,1.625,1.6255
		S2.9092,13.0762,2.0132,13.0762z M2.0132,10.8257c-0.3447,0-0.6255,0.2808-0.6255,0.6255s0.2808,0.625,0.6255,0.625
		s0.625-0.2803,0.625-0.625S2.3579,10.8257,2.0132,10.8257z"/>
	<path d="M8.6323,8.8643c-0.8965,0-1.6255-0.729-1.6255-1.6255c0-0.896,0.729-1.625,1.6255-1.625c0.896,0,1.625,0.729,1.625,1.625
		C10.2573,8.1353,9.5283,8.8643,8.6323,8.8643z M8.6323,6.6138c-0.3447,0-0.6255,0.2803-0.6255,0.625s0.2808,0.6255,0.6255,0.6255
		s0.625-0.2808,0.625-0.6255S8.9771,6.6138,8.6323,6.6138z"/>
	<path d="M15.251,19.0938c-0.8965,0-1.625-0.7285-1.625-1.625s0.7285-1.625,1.625-1.625s1.626,0.7285,1.626,1.625
		S16.1475,19.0938,15.251,19.0938z M15.251,16.8438c-0.3447,0-0.625,0.2803-0.625,0.625s0.2803,0.625,0.625,0.625
		s0.626-0.2803,0.626-0.625S15.5957,16.8438,15.251,16.8438z"/>
	<path d="M21.8701,11.873c-0.8965,0-1.625-0.729-1.625-1.6255c0-0.896,0.7285-1.625,1.625-1.625s1.626,0.729,1.626,1.625
		C23.4961,11.144,22.7666,11.873,21.8701,11.873z M21.8701,9.6226c-0.3447,0-0.625,0.2803-0.625,0.625s0.2803,0.6255,0.625,0.6255
		s0.626-0.2808,0.626-0.6255S22.2148,9.6226,21.8701,9.6226z"/>
	<path d="M2.9609,11.3481c-0.166,0-0.3281-0.0825-0.4233-0.2329c-0.1475-0.2334-0.0776-0.5425,0.1558-0.6899l4.7334-2.9897
		c0.2354-0.1465,0.5425-0.0767,0.6899,0.1558c0.1475,0.2334,0.0776,0.5425-0.1558,0.6899L3.2275,11.271
		C3.1445,11.3232,3.0522,11.3481,2.9609,11.3481z"/>
	<path d="M14.6406,17.0254c-0.1631,0-0.3242-0.0801-0.4199-0.2285L8.8228,8.4536C8.6729,8.2217,8.7393,7.9121,8.9712,7.7622
		c0.2319-0.1504,0.5415-0.084,0.6914,0.1484l5.3979,8.3433c0.1494,0.2314,0.084,0.541-0.1484,0.6914
		C14.8281,16.999,14.7344,17.0254,14.6406,17.0254z"/>
	<path d="M16.0098,17.1416c-0.1211,0-0.2422-0.043-0.3379-0.1318c-0.2031-0.1865-0.2178-0.502-0.0303-0.7061l5.085-5.5479
		c0.1875-0.2041,0.5049-0.2163,0.7061-0.0308c0.2031,0.1865,0.2178,0.5029,0.0303,0.7065l-5.085,5.5479
		C16.2793,17.0869,16.1445,17.1416,16.0098,17.1416z"/>
</g>
<rect fill="none" width="24" height="24"/>
</svg>
