<?xml version="1.0" encoding="utf-8"?>
<!-- Generator: Adobe Illustrator 18.1.0, SVG Export Plug-In . SVG Version: 6.00 Build 0)  -->
<svg version="1.1" id="Layer_1" xmlns="http://www.w3.org/2000/svg" xmlns:xlink="http://www.w3.org/1999/xlink" x="0px" y="0px"
	 width="24px" height="24px" viewBox="0 0 24 24" enable-background="new 0 0 24 24" xml:space="preserve">
<g>
	<path d="M16.4863,20.3711c-0.2764,0-0.5-0.2236-0.5-0.5V14c0-0.2764,0.2236-0.5,0.5-0.5s0.5,0.2236,0.5,0.5v5.8711
		C16.9863,20.1475,16.7627,20.3711,16.4863,20.3711z"/>
	<path d="M16.5283,20.3711c-0.1348,0-0.2637-0.0537-0.3574-0.1504l-2.748-2.8066c-0.1934-0.1973-0.1895-0.5137,0.0078-0.707
		c0.1973-0.1924,0.5156-0.1904,0.707,0.0078l2.3906,2.4414l2.3896-2.4414c0.1924-0.1982,0.5117-0.2002,0.707-0.0078
		c0.1973,0.1934,0.2012,0.5098,0.0078,0.707l-2.7471,2.8066C16.792,20.3174,16.6631,20.3711,16.5283,20.3711z"/>
	<path d="M16.4863,10.5c-0.2764,0-0.5-0.2236-0.5-0.5V4.3135c0-0.2764,0.2236-0.5,0.5-0.5s0.5,0.2236,0.5,0.5V10
		C16.9863,10.2764,16.7627,10.5,16.4863,10.5z"/>
	<path d="M19.2754,7.6201c-0.1299,0-0.2598-0.0503-0.3574-0.1504l-2.3896-2.4414l-2.3906,2.4414
		c-0.1914,0.1978-0.5098,0.2021-0.707,0.0078c-0.1973-0.1934-0.2012-0.5098-0.0078-0.707l2.748-2.8066
		c0.0938-0.0962,0.2227-0.1504,0.3574-0.1504l0,0c0.1348,0,0.2637,0.0542,0.3574,0.1504l2.7471,2.8066
		c0.1934,0.1973,0.1895,0.5137-0.0078,0.707C19.5283,7.5728,19.4014,7.6201,19.2754,7.6201z"/>
	<path d="M21.1094,24H2.8633c-1.5864,0-2.877-1.291-2.877-2.877V2.8774C-0.0137,1.291,1.2769,0,2.8633,0h18.2461
		c1.5859,0,2.877,1.291,2.877,2.8774V21.123C23.9863,22.709,22.6953,24,21.1094,24z M2.8633,1c-1.0352,0-1.877,0.8423-1.877,1.8774
		V21.123c0,1.0352,0.8418,1.877,1.877,1.877h18.2461c1.0352,0,1.877-0.8418,1.877-1.877V2.8774C22.9863,1.8423,22.1445,1,21.1094,1
		H2.8633z"/>
	<path d="M7.4717,20.8691c-0.2764,0-0.5-0.2236-0.5-0.5v-5.8633c0-0.2764,0.2236-0.5,0.5-0.5s0.5,0.2236,0.5,0.5v5.8633
		C7.9717,20.6455,7.748,20.8691,7.4717,20.8691z"/>
	<path d="M7.4717,6.5356c-0.9526,0-1.5605-1.1274-1.5605-1.9038c0-0.8608,0.7002-1.561,1.5605-1.561
		c0.8608,0,1.561,0.7002,1.561,1.561C9.0327,5.4082,8.4248,6.5356,7.4717,6.5356z M7.4717,4.0708
		c-0.3091,0-0.5605,0.2515-0.5605,0.561c0,0.4102,0.3442,0.9038,0.5605,0.9038s0.561-0.4937,0.561-0.9038
		C8.0327,4.3223,7.7812,4.0708,7.4717,4.0708z"/>
	<path d="M8.8447,20.8691c-0.0098,0-0.0195,0-0.0293-0.001c-0.2759-0.0156-0.4863-0.252-0.4702-0.5273l0.4199-7.2803
		c0.0078-0.1348,0.0864-0.2979,0.188-0.3867c0.103-0.0889,0.2178-0.127,0.3276-0.1396C9.3882,9.2261,9.229,8.0601,9.1362,7.6729
		c-0.0479-0.0015-0.0991-0.0034-0.147-0.0054L8.7505,7.6562C8.5386,8.1216,8.04,8.4028,7.4717,8.4028S6.4048,8.1216,6.1714,7.668
		L5.9551,7.667C5.9072,7.6694,5.8564,7.6714,5.8076,7.6733c-0.0928,0.3877-0.252,1.5552-0.1445,4.8628
		c0.1162,0.0137,0.2271,0.0508,0.3267,0.1377c0.104,0.0898,0.1836,0.2568,0.1895,0.3945l0.4185,7.2725
		c0.0161,0.2754-0.1948,0.5117-0.4702,0.5273c-0.2715,0.0273-0.5122-0.1943-0.5278-0.4707L5.2046,13.54
		c-0.1211-0.0117-0.2358-0.0488-0.3384-0.1387c-0.1045-0.0908-0.1821-0.2549-0.187-0.3926
		C4.4688,7.3882,4.9463,6.9854,5.1504,6.8135C5.2061,6.7666,5.271,6.7324,5.3413,6.7134c0.0806-0.022,0.1611-0.0283,0.5723-0.0454
		l0.2158-0.0098C6.5098,6.6406,6.8716,6.8452,7.0601,7.21c0.1475,0.2852,0.6758,0.2852,0.8232,0
		C8.0723,6.8457,8.436,6.6294,8.814,6.6582L9.0303,6.668c0.4106,0.0171,0.4912,0.0234,0.5718,0.0454
		c0.0693,0.019,0.1338,0.0527,0.189,0.0986c0.2051,0.1709,0.6841,0.5713,0.4736,6.1968c-0.0049,0.1377-0.0825,0.3018-0.187,0.3926
		c-0.1064,0.0928-0.2261,0.1289-0.3389,0.1406l-0.3955,6.8555C9.3281,20.6641,9.1074,20.8691,8.8447,20.8691z"/>
</g>
<rect x="-0.0136" y="0.0002" fill="none" width="24" height="24"/>
</svg>
