<?xml version="1.0" encoding="utf-8"?>
<!-- Generator: Adobe Illustrator 18.1.0, SVG Export Plug-In . SVG Version: 6.00 Build 0)  -->
<svg version="1.1" id="Layer_1" xmlns="http://www.w3.org/2000/svg" xmlns:xlink="http://www.w3.org/1999/xlink" x="0px" y="0px"
	 width="24px" height="24px" viewBox="0 0 24 24" enable-background="new 0 0 24 24" xml:space="preserve">
<g>
	<path d="M4.2705,23.8428c-1.7607,0-2.8301-1.3477-2.9766-2.6787c-0.125-1.1406,0.4536-2.4482,2.0298-2.7988
		c0.2524-0.0547,0.4937-0.0586,0.7065-0.0625c0.1841-0.0029,0.3579-0.0049,0.4805-0.042c0.1885-0.0576,0.5405-0.1631,0.4023-1.0254
		c-0.2866-1.7861-2.0962-3.1787-4.0117-4.6523l-0.3042-0.2344c-0.5005-0.3867-0.5674-0.7188-0.2559-1.27
		c0.6099-1.0771,3.9961-4.2847,4.9907-4.5874c0.1562-0.0474,0.3091-0.0718,0.4541-0.0718c1.1255,0,1.3984,1.2695,1.6177,2.29
		c0.1035,0.4819,0.2109,0.9805,0.3755,1.2637c0.2617,0.4502,0.7661,0.7085,1.3833,0.7085c0.5708-0.0005,1.1333-0.2334,1.4692-0.6089
		c0.2773-0.3105,0.3926-0.6948,0.3423-1.1421c-0.0928-0.8257-0.5269-1.7793-1.2607-1.9209
		C9.4385,6.9575,9.2622,6.9961,9.1128,7.0254C8.4185,7.1626,7.98,6.856,7.5181,6.2466c-0.48-0.6338-0.5811-1.2314-0.2998-1.7773
		c0.0449-0.0884,0.0845-0.165,3.8926-3.979c0.1255-0.1255,0.335-0.3354,0.6401-0.3354c0.292,0,0.4932,0.1875,0.627,0.3115
		c1.6064,1.4907,4.2207,3.8843,4.7646,4.3071c0.4854-0.0024,0.6357-0.3315,0.7441-1.5483c0.0156-0.1758,0.0303-0.3408,0.0508-0.4829
		c0.1621-1.1089,0.7207-1.4087,1.4912-1.7104c1.5479-0.6055,3.0713-0.0508,3.7549,1.292c0.4883,0.958,0.4287,2.0947-0.1533,2.896
		c-0.7324,1.0093-1.792,1.0117-2.5654,1.0142c-0.7314,0.002-1.0225,0.0327-1.1816,0.3501
		c-0.6621,1.3208,2.1338,3.9912,3.8164,4.9473c0.1807,0.103,0.4541,0.2583,0.5088,0.5771c0.0557,0.3184-0.1494,0.5566-0.2852,0.7139
		l-3.208,3.7285c-0.2979,0.3457-0.4463,0.46-0.8604,0.5537c-1.4873,0.3389-1.7773-0.8047-1.9453-1.6074
		c-0.1318-0.6289-0.2686-1.2803-0.8369-1.6826c-0.3916-0.2773-0.7881-0.418-1.1797-0.418c-0.6963,0-1.334,0.4805-1.5518,1.1689
		c-0.2275,0.7207,0.0596,1.4277,0.7871,1.9395c0.3691,0.2598,0.7373,0.4336,1.0605,0.5879c0.6621,0.3135,1.3467,0.6377,1.335,1.5254
		c-0.0264,1.8857-2.7803,4.1768-3.8711,4.7705c-0.1758,0.0957-0.3496,0.1807-0.5557,0.1807c-0.3584,0-0.5703-0.2539-0.7109-0.4219
		l-0.7505-0.9082c-0.7705-0.9365-2.0601-2.5049-2.333-2.6943c-0.3662-0.208-1.375-0.0654-1.7881,0.666
		C6.7134,20.5674,6.623,21.041,6.5356,21.499c-0.1797,0.9404-0.4028,2.1113-1.7622,2.3076
		C4.6001,23.8311,4.4326,23.8428,4.2705,23.8428z M1.2163,11.563L1.5112,11.79c1.9863,1.5283,4.04,3.1084,4.3892,5.2871
		c0.2402,1.501-0.5864,1.9854-1.1006,2.1406c-0.2563,0.0771-0.5098,0.0811-0.7544,0.085c-0.166,0.0029-0.3374,0.002-0.5063,0.0391
		c-1.3032,0.29-1.2871,1.3848-1.251,1.7129c0.1069,0.9766,0.9658,1.9668,2.3428,1.7617c0.5967-0.0859,0.7271-0.4805,0.9224-1.5049
		c0.0977-0.5117,0.2085-1.0928,0.4902-1.5928c0.4282-0.7588,1.3203-1.2686,2.2202-1.2686c0.3506,0,0.6772,0.0801,0.9443,0.2324
		c0.314,0.1787,0.9541,0.9209,2.5996,2.9209l0.7461,0.9033c0.0029,0.0029,0.0059,0.0068,0.0088,0.0098
		c0.0039-0.002,0.0078-0.0039,0.0117-0.0068c1.166-0.6338,3.332-2.6719,3.3496-3.9053c0.0029-0.208-0.1113-0.2998-0.7627-0.6084
		c-0.3428-0.1621-0.7686-0.3643-1.207-0.6729c-1.0771-0.7559-1.5234-1.9287-1.166-3.0596c0.3477-1.0996,1.377-1.8672,2.5049-1.8672
		c0.6025,0,1.1943,0.2021,1.7578,0.6016c0.8887,0.6299,1.0908,1.5918,1.2373,2.2939c0.1748,0.835,0.251,0.874,0.4648,0.874
		c0.0781,0,0.1729-0.0117,0.2812-0.0361c0.1543-0.0352,0.1543-0.0352,0.3232-0.2314l3.0898-3.5908
		c-1.5684-0.9551-5.1572-3.9785-4.0586-6.1719c0.4502-0.8975,1.3506-0.8999,2.0742-0.9019c0.71-0.002,1.3242-0.0039,1.7588-0.6016
		c0.3623-0.5,0.3906-1.228,0.0713-1.8545c-0.1533-0.3008-0.6152-1-1.5947-1c-0.2861,0-0.5908,0.062-0.9053,0.1851
		c-0.6143,0.2407-0.7783,0.3281-0.8652,0.9233c-0.0186,0.1255-0.0312,0.2715-0.0449,0.4277
		c-0.0811,0.9033-0.2178,2.6475-1.9619,2.4453c-0.2012-0.0225-0.3486-0.0391-5.1616-4.5024
		c-1.3716,1.3735-3.5405,3.5566-3.7026,3.7485C8.0405,5.0571,8.0127,5.2437,8.3149,5.6426c0.3159,0.416,0.4219,0.4282,0.4326,0.4282
		c0.0557,0,0.1108-0.0142,0.1729-0.0264c0.2427-0.0474,0.541-0.1016,0.9824-0.0161c1.2368,0.2383,1.9287,1.5737,2.0654,2.791
		c0.0815,0.7314-0.1226,1.3955-0.5908,1.9199c-0.5273,0.5898-1.3555,0.9419-2.2144,0.9424c-0.9688,0-1.8091-0.4507-2.248-1.2056
		c-0.2446-0.4204-0.3687-0.998-0.4888-1.5566c-0.1362-0.6328-0.3223-1.5-0.6401-1.5c-0.0459,0-0.1006,0.0098-0.1626,0.0288
		C5.0112,7.6343,1.793,10.5591,1.2163,11.563z"/>
</g>
<rect x="0.0142" y="0.0354" fill="none" width="24" height="24"/>
</svg>
