<?xml version="1.0" encoding="utf-8"?>
<!-- Generator: Adobe Illustrator 18.1.0, SVG Export Plug-In . SVG Version: 6.00 Build 0)  -->
<svg version="1.1" id="Layer_1" xmlns="http://www.w3.org/2000/svg" xmlns:xlink="http://www.w3.org/1999/xlink" x="0px" y="0px"
	 width="24px" height="24px" viewBox="0 0 24 24" enable-background="new 0 0 24 24" xml:space="preserve">
<g>
	<path d="M13.9912,22.8652c-2.2148,0-4.4268-0.502-6.7617-1.5342c-0.54-0.2383-1.7803,0.1016-3.0913,0.46
		c-0.3984,0.1094-0.8174,0.2236-1.252,0.333c-0.9077,0.2344-1.8491-0.3115-2.0991-1.209l-0.0913-0.3115
		c-0.3721-1.249-0.5586-2.002-0.4785-2.4014c0.1455-0.7217,0.708-1.2617,1.4326-1.375l0.5977-0.0986
		c2.0649-0.3467,6.3618-1.0693,8.8374-0.3535l5.4951,1.5938c0.3457,0.1006,0.6348,0.2822,0.8477,0.5254l3.874-1.7451
		c0.6104-0.2744,1.2461-0.2275,1.7441,0.1318c0.5107,0.3672,0.7998,1.0107,0.7373,1.6377
		c-0.0605,0.5996-0.4297,1.0928-1.0117,1.3555c-1.1797,0.5312-2.127,0.9668-2.9033,1.3242
		C16.3809,22.8027,16.2441,22.8652,13.9912,22.8652z M6.7422,20.2529c0.333,0,0.6309,0.0488,0.8916,0.1641
		c2.2051,0.9746,4.2847,1.4482,6.3574,1.4482c2.0342,0,2.0342,0,5.46-1.5752c0.7773-0.3584,1.7275-0.7949,2.9102-1.3281
		c0.2588-0.1162,0.4023-0.2988,0.4268-0.543c0.0273-0.2744-0.1035-0.5664-0.3262-0.7266c-0.207-0.1484-0.4639-0.1611-0.75-0.0312
		l-3.8945,1.7549c0.0518,0.543-0.1514,1.1064-0.5488,1.4873c-0.4365,0.4199-1.042,0.5576-1.6611,0.377L9.835,19.6064
		c-0.2651-0.0771-0.418-0.3545-0.3408-0.6201c0.0762-0.2646,0.353-0.418,0.6191-0.3408l5.7734,1.6738
		c0.2783,0.083,0.5107,0.0361,0.6895-0.1377c0.2002-0.1904,0.293-0.5098,0.2275-0.7754c0-0.002-0.001-0.0039-0.001-0.0059
		c-0.0127-0.0195-0.0234-0.04-0.0332-0.0615c-0.0146-0.0332-0.0264-0.0674-0.0332-0.1016c-0.0859-0.1455-0.2314-0.249-0.4346-0.3076
		l-5.4951-1.5938c-2.2544-0.6543-6.4009,0.0439-8.3931,0.3789l-0.6079,0.1006c-0.3076,0.0479-0.5459,0.2773-0.6079,0.584
		c-0.0322,0.2793,0.3354,1.5137,0.4565,1.9189L1.75,20.6455c0.1064,0.3789,0.5103,0.6035,0.8906,0.5098
		c0.4287-0.1084,0.8408-0.2217,1.2334-0.3291C5.0044,20.5166,5.9683,20.2529,6.7422,20.2529z"/>
	<path d="M15.5068,15.9629c-0.0244,0-0.0498-0.002-0.0742-0.0059c-0.2734-0.04-0.4619-0.2949-0.4209-0.5674
		c0.168-1.1299,0.1533-2.0557-0.041-2.6777c-0.5449-1.7461-0.5967-3.3599-0.5986-3.4277c-0.002-0.0713,0.0117-0.1416,0.0391-0.207
		c0.0381-0.0923,0.9639-2.2622,2.7744-2.9316c1.5254-0.5635,2.9551-1.7485,2.9697-1.7603c0.2119-0.1772,0.5264-0.1504,0.7041,0.0635
		c0.1768,0.2119,0.1484,0.5269-0.0635,0.7041c-0.0635,0.0527-1.5723,1.3062-3.2637,1.9307
		c-1.2129,0.4487-1.9707,1.8955-2.1553,2.2837c0.0215,0.3818,0.124,1.6875,0.5488,3.0459c0.2422,0.7764,0.2676,1.8271,0.0742,3.123
		C15.9639,15.7842,15.75,15.9629,15.5068,15.9629z"/>
	<path d="M11.8999,11.1992L11.8999,11.1992c-3.2451-0.0005-4.5303-4.8682-4.5835-5.0757C7.2817,5.9893,7.3052,5.8462,7.3804,5.729
		c0.0752-0.1167,0.1953-0.1973,0.332-0.2217c0.0444-0.0078,1.1016-0.1948,2.417-0.1948c2.8062,0,4.5708,0.8418,5.1021,2.4346
		c0.0205,0.061,0.0283,0.125,0.0244,0.1895c-0.0439,0.7021,0.0947,1.187,0.0957,1.1914c0.0537,0.1841-0.002,0.3848-0.1445,0.5132
		C14.0605,10.6753,12.9482,11.1992,11.8999,11.1992z M8.4521,6.4131c0.3975,1.1587,1.5122,3.7861,3.4478,3.7861l0,0
		c0.7329,0,1.5464-0.3735,2.4214-1.1113c-0.0449-0.2534-0.0889-0.6401-0.0693-1.1084C13.498,6.0322,9.8545,6.248,8.4521,6.4131z"/>
	<path d="M18.4736,10.8149c-1.1045,0-2.3926-0.3696-3.8281-1.0991c-0.1221-0.062-0.2129-0.1709-0.252-0.3018
		c-0.0078-0.0259-0.1914-0.6479-0.1357-1.54c0.1191-1.9297,1.3613-5.3589,8.3428-6.6396c0.1338-0.0229,0.2783,0.0078,0.3896,0.0913
		c0.1113,0.084,0.1836,0.21,0.1973,0.3486C23.21,1.8926,23.7158,7.04,21.4863,9.5122
		C20.707,10.3765,19.6934,10.8149,18.4736,10.8149z M15.3076,8.9287c2.4746,1.2051,4.2842,1.1934,5.4365-0.0864
		c1.5469-1.7158,1.5498-5.1753,1.4863-6.5161c-5.8271,1.2227-6.877,4.02-6.9746,5.6099
		C15.2285,8.3711,15.2715,8.7227,15.3076,8.9287z"/>
	<path d="M14.8721,9.77c-0.1426,0-0.2832-0.0605-0.3828-0.1782c-0.5703-0.6782-2.4268-1.0332-3.4624-1.0977
		c-0.2754-0.0171-0.4854-0.2544-0.4683-0.5298s0.252-0.4756,0.5298-0.4683c0.3174,0.0195,3.1343,0.2256,4.1665,1.4521
		c0.1777,0.2109,0.1504,0.5264-0.0605,0.7041C15.1006,9.7314,14.9863,9.77,14.8721,9.77z"/>
</g>
<rect x="-0.0113" fill="none" width="24" height="24"/>
</svg>
