<?xml version="1.0" encoding="utf-8"?>
<!-- Generator: Adobe Illustrator 18.1.0, SVG Export Plug-In . SVG Version: 6.00 Build 0)  -->
<svg version="1.1" id="Layer_1" xmlns="http://www.w3.org/2000/svg" xmlns:xlink="http://www.w3.org/1999/xlink" x="0px" y="0px"
	 width="24px" height="24px" viewBox="0 0 24 24" enable-background="new 0 0 24 24" xml:space="preserve">
<g>
	<path d="M11.21,21.8545c-2.2964,0-4.1646-1.9404-4.1646-4.3252V8.3647c0-0.2764,0.2236-0.5,0.5-0.5s0.5,0.2236,0.5,0.5v9.1646
		c0,1.834,1.4194,3.3252,3.1646,3.3252s3.1641-1.4912,3.1641-3.3252v-2.7354c0-2.1836,1.7119-3.9609,3.8164-3.9609
		s3.8164,1.7773,3.8164,3.9609v1.0654c0,0.2764-0.2236,0.5-0.5,0.5s-0.5-0.2236-0.5-0.5v-1.0654
		c0-1.6328-1.2637-2.9609-2.8164-2.9609s-2.8164,1.3281-2.8164,2.9609v2.7354C15.374,19.9141,13.5059,21.8545,11.21,21.8545z"/>
	<path d="M20.501,20.8027c-0.2764,0-0.5-0.2236-0.5-0.5v-1.4805c0-0.2764,0.2236-0.5,0.5-0.5s0.5,0.2236,0.5,0.5v1.4805
		C21.001,20.5791,20.7773,20.8027,20.501,20.8027z"/>
	<path d="M22.501,20.8027c-0.2764,0-0.5-0.2236-0.5-0.5v-1.4805c0-0.2764,0.2236-0.5,0.5-0.5s0.5,0.2236,0.5,0.5v1.4805
		C23.001,20.5791,22.7773,20.8027,22.501,20.8027z"/>
	<path d="M23.501,19.3047h-4c-0.2764,0-0.5-0.2236-0.5-0.5v-0.8545c0-1.4043,1.1445-2.5908,2.5-2.5908s2.5,1.1865,2.5,2.5908v0.8545
		C24.001,19.0811,23.7773,19.3047,23.501,19.3047z M20.001,18.3047h3v-0.3545c0-0.8477-0.7012-1.5908-1.5-1.5908
		s-1.5,0.7432-1.5,1.5908V18.3047z"/>
	<path d="M7.5454,8.8643c-0.0879,0-0.1772-0.0229-0.2583-0.0723c-0.2358-0.1426-0.312-0.4492-0.1694-0.6855
		c0.0469-0.0776,1.1714-1.9146,2.9014-2.2788c1.4302-0.3013,2.8589-1.1685,2.8735-1.1772c0.2354-0.1431,0.5439-0.0688,0.6865,0.165
		c0.1445,0.2354,0.0713,0.543-0.1641,0.6875c-0.0645,0.0391-1.5869,0.9653-3.1899,1.3032C8.9243,7.0801,7.9829,8.6084,7.9736,8.6235
		C7.8794,8.7783,7.7144,8.8643,7.5454,8.8643z"/>
	<path d="M5.0669,9.7783c-0.0005,0-0.0005,0-0.001,0C1.7378,9.7773,1.1738,4.77,1.1519,4.5571
		C1.1372,4.4189,1.1812,4.2808,1.2725,4.1763s0.2222-0.1665,0.3608-0.1714l0.1948-0.002c1.3481,0,5.7866,0.2192,6.2861,3.0381
		c0.0112,0.0635,0.0103,0.1279-0.0029,0.1909C7.9814,7.8452,8.04,8.2896,8.041,8.2939c0.0259,0.1899-0.0586,0.3809-0.2178,0.4868
		C6.8291,9.4429,5.9019,9.7783,5.0669,9.7783z M2.2358,5.0117c0.2251,1.1699,0.9375,3.7661,2.8306,3.7666h0.0005
		c0.5723,0,1.231-0.2271,1.9614-0.6758C7.0234,7.8691,7.0366,7.5288,7.1118,7.1294C6.6968,5.3506,3.4478,5.0586,2.2358,5.0117z"/>
	<path d="M11.1772,10.3169L11.1772,10.3169c-1.1562,0-2.4756-0.5195-3.9204-1.5444C7.1455,8.6938,7.0713,8.5728,7.0513,8.438
		C7.0479,8.4131,6.9639,7.8247,7.1328,7.0249c0.3643-1.7251,1.938-4.6528,8.3867-4.8784c0.1387-0.0205,0.2744,0.0488,0.3721,0.1475
		c0.0986,0.0991,0.1514,0.2344,0.1455,0.3735C16.0234,2.98,15.6553,10.3169,11.1772,10.3169z M8.0278,8.0908
		c1.1938,0.8135,2.2524,1.2261,3.1494,1.2261c2.9194,0,3.6489-4.5435,3.8149-6.1436c-5.2964,0.3359-6.5874,2.667-6.8809,4.0586
		C8.0342,7.5972,8.0234,7.9028,8.0278,8.0908z"/>
	<path d="M7.5459,8.8647c-0.1675,0-0.3311-0.084-0.4258-0.2373C6.7051,7.9561,5.1069,7.4019,4.1973,7.21
		C3.9268,7.1528,3.7539,6.8877,3.811,6.6177c0.0571-0.2705,0.3228-0.4424,0.5923-0.3862C4.687,6.291,7.1982,6.8516,7.9707,8.1021
		C8.1157,8.3369,8.043,8.645,7.8081,8.79C7.7266,8.8408,7.6357,8.8647,7.5459,8.8647z"/>
</g>
<rect x="0.0005" fill="none" width="24" height="24"/>
</svg>
