<?xml version="1.0" encoding="utf-8"?>
<!-- Generator: Adobe Illustrator 18.1.0, SVG Export Plug-In . SVG Version: 6.00 Build 0)  -->
<svg version="1.1" id="Layer_1" xmlns="http://www.w3.org/2000/svg" xmlns:xlink="http://www.w3.org/1999/xlink" x="0px" y="0px"
	 width="24px" height="24px" viewBox="0 0 24 24" enable-background="new 0 0 24 24" xml:space="preserve">
<g>
	<path d="M19.418,16.5127c-0.2207,0-0.4219-0.1465-0.4824-0.3691c-0.0723-0.2666,0.085-0.541,0.3516-0.6133
		c2.0195-0.5479,3.4297-2.4561,3.4297-4.6406c0-4.0723-1.7197-4.8691-4.6914-4.8691c-0.2764,0-0.5-0.2236-0.5-0.5
		s0.2236-0.5,0.5-0.5c2.8145,0,5.6914,0.6973,5.6914,5.8691c0,2.6348-1.7139,4.9404-4.168,5.6055
		C19.5049,16.5068,19.4609,16.5127,19.418,16.5127z"/>
	<path d="M14.0059,20.9092c-2.3247,0-6.2593-0.4316-6.2593-2.0488c0-0.0449,0-0.0459,0.3662-2.9336
		c0.0352-0.2744,0.2866-0.4697,0.5591-0.4336c0.2739,0.0352,0.4678,0.2852,0.4331,0.5586
		c-0.2036,1.6035-0.3525,2.7842-0.3613,2.8604c0.1387,0.3027,2.0674,0.9971,5.2622,0.9971c3.1943,0,5.123-0.6943,5.2617-1.0674
		c-0.0234-0.1309-1.1475-8.7349-1.7383-13.2563c-0.0352-0.2739,0.1572-0.5249,0.4316-0.5605
		c0.2695-0.0396,0.5244,0.1572,0.5605,0.4307c1.7432,13.3403,1.7432,13.3599,1.7432,13.4048
		C20.2646,20.4775,16.3301,20.9092,14.0059,20.9092z"/>
	<path d="M7.3101,14.5107c-0.1514,0-0.3008-0.0684-0.3989-0.1982L3.0439,9.2124C2.877,8.9922,2.9204,8.6787,3.1401,8.5117
		c0.2197-0.168,0.5337-0.123,0.7007,0.0962L7.708,13.709c0.167,0.2197,0.1235,0.5332-0.0962,0.7002
		C7.5215,14.4775,7.415,14.5107,7.3101,14.5107z"/>
	<path d="M7.7959,10.7407c-0.1069,0-0.2148-0.0342-0.3062-0.105L4.252,8.124C4.0337,7.9546,3.9941,7.6406,4.1636,7.4224
		C4.333,7.2046,4.6475,7.165,4.8652,7.334L8.103,9.8457c0.2178,0.1694,0.2578,0.4834,0.0884,0.7017
		C8.0928,10.6743,7.9453,10.7407,7.7959,10.7407z"/>
	<path d="M9.3174,10.9116c-0.021,0-0.042-0.0015-0.0635-0.0039C8.98,10.873,8.7861,10.6226,8.8208,10.3486l0.501-3.9434
		c0.1001-0.7896,0.7598-1.3848,1.5347-1.3848h1.2568c0.1582,0,0.3076,0.0752,0.4014,0.2026
		c0.7402,0.9971,2.3018,0.9966,3.0381-0.0005c0.0938-0.127,0.2432-0.2021,0.4014-0.2021h2.0713c0.2764,0,0.5,0.2236,0.5,0.5
		s-0.2236,0.5-0.5,0.5h-1.833c-0.5537,0.6299-1.3281,0.9863-2.1592,0.9863l0,0c-0.8311,0-1.6045-0.3564-2.1582-0.9863h-1.0186
		c-0.2725,0-0.5054,0.2197-0.5425,0.5107l-0.501,3.9434C9.7808,10.7271,9.5654,10.9116,9.3174,10.9116z"/>
	<path d="M8.6094,16.4893c-0.021,0-0.042-0.001-0.0635-0.0039c-0.2739-0.0352-0.4678-0.2852-0.4331-0.5586l0.708-5.5781
		c0.0356-0.2739,0.2856-0.4604,0.5591-0.4331c0.2739,0.0347,0.4678,0.2852,0.4331,0.5591l-0.708,5.5771
		C9.0728,16.3047,8.8574,16.4893,8.6094,16.4893z"/>
	<path d="M2.3994,9.6606c-0.7739,0-1.5005-0.3125-2.0454-0.8804C0.1626,8.5815,0.1689,8.2646,0.3682,8.0737
		c0.1982-0.1914,0.5156-0.1855,0.7065,0.0142c0.71,0.7383,1.9395,0.7383,2.6494,0c0.7456-0.7764,0.7456-2.0391,0-2.8149
		c-0.1914-0.1992-0.1851-0.5156,0.0137-0.707c0.2002-0.1914,0.5161-0.1855,0.707,0.0137c1.1133,1.1582,1.1133,3.043,0,4.2012
		C3.8999,9.3481,3.1733,9.6606,2.3994,9.6606z"/>
	<path d="M0.7148,8.9336c-0.0308,0-0.0615-0.0029-0.0928-0.0088c-0.271-0.0508-0.4497-0.311-0.3994-0.582
		C0.248,8.2061,0.8794,4.9883,3.9971,4.4341C4.27,4.3877,4.5288,4.5674,4.5767,4.8389c0.0483,0.272-0.1328,0.5312-0.4048,0.5796
		c-2.4282,0.4316-2.9453,2.999-2.9663,3.1079C1.1602,8.7661,0.9502,8.9336,0.7148,8.9336z"/>
	<path d="M14.0059,15.8838c-1.0967,0-1.9893-0.8926-1.9893-1.9893c0-0.4766,1.3223-3.6704,1.9893-3.6704
		s1.9893,3.1938,1.9893,3.6704C15.9951,14.9912,15.1025,15.8838,14.0059,15.8838z M14.0068,11.6724
		c-0.4189,0.729-0.9902,1.8315-0.9902,2.2222c0,0.5459,0.4434,0.9893,0.9893,0.9893s0.9893-0.4434,0.9893-0.9893
		C14.9951,13.4971,14.4258,12.4004,14.0068,11.6724z"/>
</g>
<rect x="0.0022" y="-0.0147" fill="none" width="24" height="24"/>
</svg>
