<?xml version="1.0" encoding="utf-8"?>
<!-- Generator: Adobe Illustrator 18.1.0, SVG Export Plug-In . SVG Version: 6.00 Build 0)  -->
<svg version="1.1" id="Layer_1" xmlns="http://www.w3.org/2000/svg" xmlns:xlink="http://www.w3.org/1999/xlink" x="0px" y="0px"
	 width="24px" height="24px" viewBox="0 0 24 24" enable-background="new 0 0 24 24" xml:space="preserve">
<g>
	<path d="M5.4893,15h-2c-0.2764,0-0.5-0.2236-0.5-0.5v-5c0-0.2764,0.2236-0.5,0.5-0.5h2c0.2764,0,0.5,0.2236,0.5,0.5v5
		C5.9893,14.7764,5.7656,15,5.4893,15z M3.9893,14h1v-4h-1V14z"/>
	<path d="M9.4897,15h-2c-0.2764,0-0.5-0.2236-0.5-0.5v-5c0-0.2764,0.2236-0.5,0.5-0.5h2c0.2764,0,0.5,0.2236,0.5,0.5v5
		C9.9897,14.7764,9.7661,15,9.4897,15z M7.9897,14h1v-4h-1V14z"/>
	<path d="M21.0098,19h-20c-0.5513,0-1-0.4482-1-1V6c0-0.5513,0.4487-1,1-1h20c0.5518,0,1,0.4487,1,1v3h1c0.5518,0,1,0.4487,1,1v4
		c0,0.5518-0.4482,1-1,1h-1v3C22.0098,18.5518,21.5615,19,21.0098,19z M21.0098,18v0.5l0.001-0.5H21.0098z M1.0098,6v12h20v-3.5
		c0-0.2764,0.2236-0.5,0.5-0.5h1.5v-4h-1.5c-0.2764,0-0.5-0.2236-0.5-0.5V6H1.0098z"/>
</g>
<rect fill="none" width="24" height="24"/>
</svg>
