<?xml version="1.0" encoding="utf-8"?>
<!-- Generator: Adobe Illustrator 18.1.0, SVG Export Plug-In . SVG Version: 6.00 Build 0)  -->
<svg version="1.1" id="Layer_1" xmlns="http://www.w3.org/2000/svg" xmlns:xlink="http://www.w3.org/1999/xlink" x="0px" y="0px"
	 width="24px" height="24px" viewBox="0 0 24 24" enable-background="new 0 0 24 24" xml:space="preserve">
<g>
	<path d="M16.2979,21.9707c-0.001,0-0.001,0-0.001,0c-1.9053,0-3.543-0.9121-4.5659-2.5205
		c-1.9624,0.9971-4.4888,0.4727-5.9121-1.1865c-2.647,0.1484-5.0278-1.6924-5.5547-4.2783
		c-0.2866-1.4023-0.0093-2.8315,0.7803-4.0259c0.7451-1.127,1.8628-1.9165,3.166-2.2422c0.8809-1.7202,2.604-2.7778,4.5557-2.7778
		c1.5132,0,2.8833,0.6309,3.8491,1.752c0.8896-1.0044,2.1309-1.5684,3.4951-1.5684c1.2988,0,2.5576,0.5166,3.4541,1.418
		c0.7725,0.7754,1.2217,1.7637,1.3145,2.8799c1.7031,0.2207,2.6826,1.5454,2.9072,2.8545c0.2275,1.3271-0.2725,2.9287-1.8594,3.6904
		c0.1348,1.5098-0.2979,2.9248-1.2383,4.0205C19.6211,21.2295,17.9795,21.9707,16.2979,21.9707z M11.9136,18.2686
		c0.0425,0,0.085,0.0059,0.1265,0.0166c0.1357,0.0352,0.251,0.127,0.3164,0.251c0.8125,1.5469,2.249,2.4346,3.9404,2.4346
		c0,0,0,0,0.001,0c1.3936,0,2.752-0.6113,3.6318-1.6357c0.5859-0.6826,1.2285-1.8633,0.9609-3.6074
		c-0.0361-0.2363,0.0996-0.4658,0.3242-0.5469c1.4287-0.5146,1.7471-1.7959,1.585-2.7363
		c-0.1611-0.9419-0.8877-2.0454-2.4053-2.0552c-0.2764-0.002-0.498-0.2266-0.4971-0.5024c0.0049-1.0376-0.3545-1.9507-1.041-2.6406
		c-0.7109-0.7139-1.7119-1.123-2.7461-1.123c-1.2539,0-2.377,0.6079-3.0811,1.6685c-0.0928,0.1396-0.249,0.2236-0.417,0.2236
		c0,0,0,0-0.001,0c-0.167,0-0.3242-0.0845-0.416-0.2246c-0.7769-1.1763-2.0264-1.8511-3.4292-1.8511
		c-1.6392,0-3.0781,0.9272-3.7554,2.4199C4.9385,8.5176,4.79,8.6274,4.6172,8.6489C3.5024,8.877,2.5205,9.54,1.8784,10.5112
		s-0.8672,2.1343-0.6348,3.2749c0.4434,2.1758,2.4917,3.7031,4.7422,3.46c0.1753-0.0176,0.3462,0.0547,0.4521,0.1934
		c1.1895,1.5586,3.5298,1.9951,5.2041,0.9092C11.7236,18.2959,11.8179,18.2686,11.9136,18.2686z"/>
	<path d="M7.6431,15.624c-1.5483,0-2.8076-1.2861-2.8076-2.8662s1.2593-2.8652,2.8076-2.8652c0.7285,0,1.4194,0.2842,1.9453,0.8003
		c0.1973,0.1934,0.2002,0.5098,0.0068,0.707c-0.1943,0.1973-0.5107,0.1997-0.707,0.0068c-0.3379-0.3315-0.7803-0.5142-1.2451-0.5142
		c-0.9966,0-1.8076,0.8369-1.8076,1.8652c0,1.0293,0.811,1.8662,1.8076,1.8662c0.4849,0,0.9409-0.1963,1.2832-0.5527
		c0.1909-0.1982,0.5083-0.2061,0.7065-0.0137c0.1992,0.1914,0.2056,0.5078,0.0142,0.707C9.1147,15.3184,8.4028,15.624,7.6431,15.624
		z"/>
	<path d="M12.8926,15.6318c-1.4976,0-2.7163-1.2871-2.7163-2.8701c0-1.582,1.2188-2.8691,2.7163-2.8691
		c1.4971,0,2.7148,1.2871,2.7148,2.8691C15.6074,14.3447,14.3896,15.6318,12.8926,15.6318z M12.8926,10.8926
		c-0.9463,0-1.7163,0.8384-1.7163,1.8691c0,1.0312,0.77,1.8701,1.7163,1.8701c0.9453,0,1.7148-0.8389,1.7148-1.8701
		C14.6074,11.731,13.8379,10.8926,12.8926,10.8926z"/>
	<path d="M18.3076,17.1318h-1.915c-0.2051,0-0.3887-0.125-0.4648-0.3145c-0.0752-0.1904-0.0273-0.4082,0.1211-0.5488l1.3936-1.3203
		c0.2314-0.2148,0.3369-0.4336,0.2871-0.5879c-0.0332-0.1035-0.1377-0.1816-0.2646-0.1973
		c-0.2002-0.0264-0.4023,0.1055-0.5586,0.3545c-0.1484,0.2354-0.458,0.3037-0.6895,0.1582
		c-0.2344-0.1475-0.3047-0.4561-0.1582-0.6895c0.3682-0.584,0.9482-0.8906,1.5303-0.8154c0.5107,0.0635,0.9395,0.4102,1.0928,0.8818
		c0.1748,0.541-0.0273,1.1338-0.5547,1.625l-0.4795,0.4541h0.6602c0.2764,0,0.5,0.2236,0.5,0.5S18.584,17.1318,18.3076,17.1318z"/>
</g>
<rect x="0.0005" fill="none" width="24" height="24"/>
</svg>
