<?xml version="1.0" encoding="utf-8"?>
<!-- Generator: Adobe Illustrator 18.1.0, SVG Export Plug-In . SVG Version: 6.00 Build 0)  -->
<svg version="1.1" id="Layer_1" xmlns="http://www.w3.org/2000/svg" xmlns:xlink="http://www.w3.org/1999/xlink" x="0px" y="0px"
	 width="24px" height="24px" viewBox="0 0 24 24" enable-background="new 0 0 24 24" xml:space="preserve">
<g>
	<path d="M3.9111,17.3262c-0.2158,0-0.415-0.1406-0.4795-0.3584L0.3545,6.5688c-0.0376-0.1274-0.0229-0.2642,0.04-0.3809
		C0.458,6.0713,0.5649,5.9849,0.6919,5.9473l17.2476-5.103c0.2637-0.0801,0.542,0.0728,0.6211,0.3374l3.0771,10.3999
		c0.0371,0.1274,0.0234,0.2642-0.04,0.3809s-0.1709,0.2026-0.2979,0.2407L4.0532,17.3057
		C4.0059,17.3193,3.958,17.3262,3.9111,17.3262z M1.4551,6.7642l2.7935,9.4409l16.2886-4.8188l-2.7939-9.4414L1.4551,6.7642z"/>
	<path d="M6.7109,16.498c-0.2158,0-0.415-0.1406-0.4795-0.3584c-0.3784-1.2783-1.7295-2.0117-3.0068-1.6338
		c-0.2651,0.0771-0.5425-0.0723-0.6211-0.3379c-0.0781-0.2646,0.0728-0.543,0.3379-0.6211c1.8047-0.5312,3.7134,0.501,4.249,2.3096
		c0.0781,0.2646-0.0728,0.543-0.3374,0.6211C6.8057,16.4912,6.7578,16.498,6.7109,16.498z"/>
	<path d="M18.1934,13.0361c-0.2197,0-0.4209-0.1455-0.4824-0.3672c-0.2461-0.897-0.1133-1.8901,0.3652-2.7251
		c0.4678-0.8179,1.209-1.3979,2.0859-1.6338c0.2705-0.0728,0.541,0.0864,0.6123,0.353c0.0723,0.2666-0.0859,0.541-0.3525,0.6128
		c-0.6182,0.166-1.1436,0.5801-1.4785,1.165c-0.3467,0.6055-0.4443,1.3208-0.2676,1.9624c0.0732,0.2666-0.084,0.542-0.3496,0.6152
		C18.2812,13.0303,18.2373,13.0361,18.1934,13.0361z"/>
	<path d="M17.9326,4.729c-0.502,0-1-0.126-1.458-0.374c-0.7852-0.4258-1.377-1.186-1.625-2.0854
		c-0.0732-0.2661,0.083-0.5415,0.3496-0.6147c0.2705-0.0718,0.541,0.083,0.6152,0.3491c0.1777,0.6479,0.582,1.1709,1.1377,1.4717
		c0.499,0.2715,1.0674,0.3262,1.6025,0.1558c0.2627-0.0859,0.5449,0.0625,0.6279,0.3247c0.084,0.2632-0.0615,0.5444-0.3252,0.6284
		C18.5537,4.6812,18.2422,4.729,17.9326,4.729z"/>
	<path d="M1.6626,9.7261c-0.2158,0-0.415-0.1406-0.4795-0.3579C1.105,9.103,1.2559,8.8252,1.5205,8.7466
		C2.7998,8.3682,3.5327,7.019,3.1543,5.7402c-0.0781-0.2651,0.0728-0.543,0.3374-0.6216c0.2661-0.0801,0.543,0.0728,0.6216,0.3374
		c0.5347,1.8081-0.501,3.7144-2.3086,4.2495C1.7573,9.7197,1.7095,9.7261,1.6626,9.7261z"/>
	<path d="M23.5166,24.0225H5.5303c-0.2764,0-0.5-0.2236-0.5-0.5v-5.2988c0-0.2764,0.2236-0.5,0.5-0.5s0.5,0.2236,0.5,0.5v4.7988
		h16.9863v-9.9863h-0.2793c-0.2764,0-0.5-0.2236-0.5-0.5s0.2236-0.5,0.5-0.5h0.7793c0.2764,0,0.5,0.2236,0.5,0.5v10.9863
		C24.0166,23.7988,23.793,24.0225,23.5166,24.0225z"/>
	<path d="M8.4497,24.0225c-0.2764,0-0.5-0.2236-0.5-0.5c0-1.334-1.0854-2.4199-2.4194-2.4199c-0.2764,0-0.5-0.2236-0.5-0.5
		s0.2236-0.5,0.5-0.5c1.8853,0,3.4194,1.5342,3.4194,3.4199C8.9497,23.7988,8.7261,24.0225,8.4497,24.0225z"/>
	<path d="M20.6494,24.0225c-0.2764,0-0.5-0.2236-0.5-0.5c0-1.8857,1.4336-3.4199,3.1963-3.4199c0.2764,0,0.5,0.2236,0.5,0.5
		s-0.2236,0.5-0.5,0.5c-1.2109,0-2.1963,1.0859-2.1963,2.4199C21.1494,23.7988,20.9258,24.0225,20.6494,24.0225z"/>
	<path d="M23.3457,16.0957c-1.2451,0-2.3857-0.7822-2.9053-1.9922c-0.1094-0.2539,0.0078-0.5479,0.2617-0.6562
		c0.252-0.1104,0.5469,0.0078,0.6562,0.2617c0.3623,0.8428,1.1426,1.3867,1.9873,1.3867c0.2764,0,0.5,0.2236,0.5,0.5
		S23.6221,16.0957,23.3457,16.0957z"/>
	<path d="M11.2427,11.936c-0.4419,0-0.9248-0.0942-1.3267-0.272c-0.2524-0.1118-0.3662-0.4067-0.2544-0.6597
		c0.1118-0.252,0.4077-0.3657,0.6597-0.2544c0.4058,0.1792,0.9834,0.2397,1.3145,0.1387c0.2319-0.0718,0.4229-0.2144,0.5391-0.4019
		c0.1025-0.1665,0.1309-0.3481,0.0801-0.5117c-0.0342-0.1094-0.1396-0.3994-1.167-0.3833c-0.5464-0.002-1.8037-0.0068-2.1372-1.0874
		C8.6753,7.6143,9.249,6.6431,10.2295,6.3398c0.6274-0.1929,1.3052-0.0703,1.7744,0.3169c0.2119,0.1763,0.2422,0.4917,0.0654,0.7041
		c-0.1743,0.2134-0.4902,0.2427-0.7036,0.0664c-0.2129-0.1772-0.5366-0.2266-0.8408-0.1323
		C10.0713,7.4355,9.7935,7.8457,9.9058,8.209c0.061,0.1968,0.2451,0.3794,1.1763,0.3828c0.437-0.0049,1.7832-0.0269,2.1279,1.0874
		c0.1377,0.4438,0.0723,0.917-0.1846,1.332c-0.2422,0.394-0.6318,0.6899-1.0947,0.833C11.729,11.9062,11.4927,11.936,11.2427,11.936
		z"/>
	<path d="M10.3774,7.3174c-0.2139,0-0.4116-0.1377-0.4775-0.3525L9.708,6.3433c-0.0815-0.2637,0.0664-0.5439,0.3301-0.625
		c0.2656-0.0801,0.5439,0.0664,0.625,0.3301l0.1919,0.6216c0.0815,0.2637-0.0664,0.5439-0.3301,0.625
		C10.4756,7.3101,10.4263,7.3174,10.3774,7.3174z"/>
	<path d="M11.9751,12.4883c-0.2139,0-0.4116-0.1387-0.4775-0.3525l-0.1919-0.6221c-0.0815-0.2637,0.0664-0.5439,0.3301-0.625
		c0.2651-0.0806,0.5439,0.0664,0.625,0.3301l0.1924,0.6216c0.0811,0.2642-0.0664,0.5435-0.3301,0.6255
		C12.0732,12.4805,12.0234,12.4883,11.9751,12.4883z"/>
	<path d="M15.2461,18.0166h-2.8936c-0.2764,0-0.5-0.2236-0.5-0.5s0.2236-0.5,0.5-0.5h2.8936c0.2764,0,0.5,0.2236,0.5,0.5
		S15.5225,18.0166,15.2461,18.0166z"/>
	<path d="M15.2461,19.3145h-2.8936c-0.2764,0-0.5-0.2236-0.5-0.5s0.2236-0.5,0.5-0.5h2.8936c0.2764,0,0.5,0.2236,0.5,0.5
		S15.5225,19.3145,15.2461,19.3145z"/>
	<path d="M14.9775,21.2939c-1.3613,0-2.4688-1.3848-2.4688-3.0859s1.1074-3.0859,2.4688-3.0859c0.79,0,1.5117,0.4521,1.9805,1.2393
		c0.1416,0.2373,0.0635,0.5439-0.1738,0.6855c-0.2363,0.1406-0.5439,0.0645-0.6855-0.1738c-0.2842-0.4775-0.6924-0.751-1.1211-0.751
		c-0.7959,0-1.4688,0.9551-1.4688,2.0859s0.6729,2.0859,1.4688,2.0859c0.4463,0,0.8799-0.3066,1.1611-0.8203
		c0.1328-0.2422,0.4375-0.3311,0.6787-0.1982c0.2422,0.1328,0.3311,0.4365,0.1982,0.6787
		C16.5566,20.793,15.7949,21.2939,14.9775,21.2939z"/>
</g>
<rect x="-0.0137" y="0.0031" fill="none" width="24" height="24"/>
<rect x="-0.0137" fill="none" width="24" height="24"/>
</svg>
