<?xml version="1.0" encoding="utf-8"?>
<!-- Generator: Adobe Illustrator 18.1.0, SVG Export Plug-In . SVG Version: 6.00 Build 0)  -->
<svg version="1.1" id="Layer_1" xmlns="http://www.w3.org/2000/svg" xmlns:xlink="http://www.w3.org/1999/xlink" x="0px" y="0px"
	 width="24px" height="24px" viewBox="0 0 24 24" enable-background="new 0 0 24 24" xml:space="preserve">
<g>
	<path d="M16.0703,18.0098H6.0288c-0.2764,0-0.5-0.2236-0.5-0.5s0.2236-0.5,0.5-0.5h10.0415c0.2764,0,0.5,0.2236,0.5,0.5
		S16.3467,18.0098,16.0703,18.0098z"/>
	<path d="M16.0703,15.0098H6.0288c-0.2764,0-0.5-0.2236-0.5-0.5s0.2236-0.5,0.5-0.5h10.0415c0.2764,0,0.5,0.2236,0.5,0.5
		S16.3467,15.0098,16.0703,15.0098z"/>
	<path d="M16.0703,12.0098H6.0288c-0.2764,0-0.5-0.2236-0.5-0.5s0.2236-0.5,0.5-0.5h10.0415c0.2764,0,0.5,0.2236,0.5,0.5
		S16.3467,12.0098,16.0703,12.0098z"/>
	<path d="M11.6074,9.0098H6.0288c-0.2764,0-0.5-0.2236-0.5-0.5s0.2236-0.5,0.5-0.5h5.5786c0.2764,0,0.5,0.2236,0.5,0.5
		S11.8838,9.0098,11.6074,9.0098z"/>
	<path d="M5.0737,1.0103c-0.2764,0-0.5-0.2236-0.5-0.5s0.2236-0.5,0.5-0.5l15.7222-0.0005c0.2764,0,0.5,0.2236,0.5,0.5
		s-0.2236,0.5-0.5,0.5L5.0737,1.0103z"/>
	<path d="M20.7959,5.998H5.0737c-0.2764,0-0.5-0.2236-0.5-0.5s0.2236-0.5,0.5-0.5c1.1504,0,2.0864-0.8945,2.0864-1.9941
		s-0.936-1.9941-2.0864-1.9941c-0.2764,0-0.5-0.2236-0.5-0.5s0.2236-0.5,0.5-0.5h15.7222c1.7012,0,3.0859,1.3433,3.0859,2.9941
		S22.4971,5.998,20.7959,5.998z M7.374,4.998h13.4219c1.1504,0,2.0859-0.8945,2.0859-1.9941s-0.9355-1.9941-2.0859-1.9941H7.374
		c0.4888,0.5298,0.7861,1.229,0.7861,1.9941S7.8628,4.4683,7.374,4.998z"/>
	<path d="M17.1953,23.9844c-0.001,0-0.002,0-0.002,0c-0.1377-0.001-0.2695-0.0576-0.3633-0.1582l-2.7207-2.9082l-2.7217,2.9082
		c-0.0947,0.1006-0.2271,0.1582-0.3652,0.1582l0,0c-0.1382,0-0.2705-0.0576-0.3652-0.1582L7.936,20.918l-2.6294,2.8105
		c-0.1895,0.2012-0.541,0.2012-0.7305,0L2.2178,21.208c-0.1118-0.0918-0.1841-0.2285-0.1841-0.3818V3.0039
		c-0.001-0.7988,0.3096-1.5503,0.874-2.1162c0.5654-0.5659,1.3179-0.8779,2.1182-0.8779c0.2764,0,0.5,0.2236,0.5,0.5
		s-0.2236,0.5-0.5,0.5c-1.0996,0-1.9941,0.8945-1.9941,1.9941l0.002,17.6123l1.9077,2.0391l2.6294-2.8105
		c0.1895-0.2012,0.541-0.2012,0.7305,0l2.7212,2.9082l2.7217-2.9082c0.0947-0.1006,0.2266-0.1582,0.3652-0.1582l0,0
		c0.1387,0,0.2705,0.0576,0.3652,0.1582l2.7236,2.9111l1.835-1.9248V5.498c0-0.2764,0.2236-0.5,0.5-0.5s0.5,0.2236,0.5,0.5v15.5332
		c0,0.1289-0.0498,0.252-0.1377,0.3447l-2.3379,2.4531C17.4629,23.9287,17.332,23.9844,17.1953,23.9844z"/>
</g>
<rect y="0.0001" fill="none" width="24" height="24"/>
</svg>
