<?xml version="1.0" encoding="utf-8"?>
<!-- Generator: Adobe Illustrator 18.1.0, SVG Export Plug-In . SVG Version: 6.00 Build 0)  -->
<svg version="1.1" id="Layer_1" xmlns="http://www.w3.org/2000/svg" xmlns:xlink="http://www.w3.org/1999/xlink" x="0px" y="0px"
	 width="24px" height="24px" viewBox="0 0 24 24" enable-background="new 0 0 24 24" xml:space="preserve">
<g>
	<path d="M22.0059,7.5684c-0.1279,0-0.2559-0.0488-0.3535-0.1465l-5.1299-5.1304c-0.1953-0.1953-0.1953-0.5117,0-0.707
		s0.5117-0.1953,0.707,0l5.1299,5.1304c0.1953,0.1953,0.1953,0.5117,0,0.707C22.2617,7.5195,22.1338,7.5684,22.0059,7.5684z"/>
	<path d="M16.876,7.5684c-0.1279,0-0.2559-0.0488-0.3535-0.1465c-0.1953-0.1953-0.1953-0.5117,0-0.707l5.1299-5.1304
		c0.1953-0.1953,0.5117-0.1953,0.707,0s0.1953,0.5117,0,0.707l-5.1299,5.1304C17.1318,7.5195,17.0039,7.5684,16.876,7.5684z"/>
	<path d="M8.4658,22.0039H6.4917c-0.2764,0-0.5-0.2236-0.5-0.5s0.2236-0.5,0.5-0.5h1.9741c0.2764,0,0.5,0.2236,0.5,0.5
		S8.7422,22.0039,8.4658,22.0039z"/>
	<path d="M1.4907,6.0039c-0.2764,0-0.5-0.2236-0.5-0.5v-1c0-0.2764,0.2236-0.5,0.5-0.5s0.5,0.2236,0.5,0.5v1
		C1.9907,5.7803,1.7671,6.0039,1.4907,6.0039z"/>
	<path d="M13.4912,6.0039c-0.2764,0-0.5-0.2236-0.5-0.5v-1c0-0.2764,0.2236-0.5,0.5-0.5s0.5,0.2236,0.5,0.5v1
		C13.9912,5.7803,13.7676,6.0039,13.4912,6.0039z"/>
	<path d="M13.4912,5.0039H1.4907c-0.2764,0-0.5-0.2236-0.5-0.5s0.2236-0.5,0.5-0.5h12.0005c0.2764,0,0.5,0.2236,0.5,0.5
		S13.7676,5.0039,13.4912,5.0039z"/>
	<path d="M7.4907,22.0039c-0.2764,0-0.5-0.2236-0.5-0.5v-17c0-0.2764,0.2236-0.5,0.5-0.5s0.5,0.2236,0.5,0.5v17
		C7.9907,21.7803,7.7671,22.0039,7.4907,22.0039z"/>
</g>
<rect y="0.0011" fill="none" width="24" height="24"/>
</svg>
