<?xml version="1.0" encoding="utf-8"?>
<!-- Generator: Adobe Illustrator 18.1.0, SVG Export Plug-In . SVG Version: 6.00 Build 0)  -->
<svg version="1.1" id="Layer_1" xmlns="http://www.w3.org/2000/svg" xmlns:xlink="http://www.w3.org/1999/xlink" x="0px" y="0px"
	 width="24px" height="24px" viewBox="0 0 24 24" enable-background="new 0 0 24 24" xml:space="preserve">
<g>
	<path d="M20.4219,18.9014H6.1455c-0.3643,0-0.7051-0.1621-0.9351-0.4434c-0.229-0.2812-0.3188-0.6455-0.2461-1l0.5347-1.9043
		l-2.0459-8.958c-0.0615-0.269,0.1069-0.5371,0.376-0.5986c0.2681-0.0645,0.5371,0.1064,0.5986,0.376l2.0747,9.083
		c0.0166,0.0723,0.0171,0.1475,0.001,0.2197l-0.5679,2.0186c-0.0083,0.0449,0.0273,0.1035,0.0498,0.1309
		c0.0229,0.0283,0.0747,0.0762,0.1602,0.0762h14.2764c0.2764,0,0.5,0.2236,0.5,0.5S20.6982,18.9014,20.4219,18.9014z"/>
	<path d="M10.5195,6.9844H3.9404c-0.1509,0-0.2939-0.0684-0.3887-0.1855C3.4565,6.6816,3.4199,6.5273,3.4517,6.3799l0.4614-2.1602
		C3.8555,4.1035,3.7334,4.0249,3.5977,4.0249H0.6338c-0.2764,0-0.5-0.2236-0.5-0.5s0.2236-0.5,0.5-0.5h2.9639
		c0.6333,0,1.189,0.4482,1.3208,1.0654c0.0151,0.0688,0.0151,0.1401,0,0.209L4.5586,5.9844h5.9609c0.2764,0,0.5,0.2236,0.5,0.5
		S10.7959,6.9844,10.5195,6.9844z"/>
	<path d="M22.9141,6.9844h-6.3945c-0.2764,0-0.5-0.2236-0.5-0.5s0.2236-0.5,0.5-0.5h6.3945c0.2764,0,0.5,0.2236,0.5,0.5
		S23.1904,6.9844,22.9141,6.9844z"/>
	<path d="M6.0146,16.0674c-0.252,0-0.4688-0.1904-0.4966-0.4463c-0.0298-0.2744,0.1689-0.5215,0.4434-0.5508l14.1948-1.5342
		c0.2178-0.0029,0.3584-0.1133,0.3955-0.2705l2.3145-8.4966c0.0723-0.2656,0.3477-0.4229,0.6143-0.3511
		c0.2656,0.0728,0.4229,0.3477,0.3506,0.6138l-2.3105,8.48c-0.1396,0.5938-0.6797,1.0215-1.3105,1.0215L6.0688,16.0645
		C6.0508,16.0664,6.0322,16.0674,6.0146,16.0674z"/>
	<path d="M6.9824,23.8896c-1.1118,0-2.0166-0.9004-2.0166-2.0078s0.9048-2.0078,2.0166-2.0078s2.0161,0.9004,2.0161,2.0078
		S8.0942,23.8896,6.9824,23.8896z M6.9824,20.874c-0.5605,0-1.0166,0.4521-1.0166,1.0078s0.4561,1.0078,1.0166,1.0078
		c0.5601,0,1.0161-0.4521,1.0161-1.0078S7.5425,20.874,6.9824,20.874z"/>
	<path d="M18.9062,23.8896c-1.1113,0-2.0156-0.9004-2.0156-2.0078s0.9043-2.0078,2.0156-2.0078s2.0156,0.9004,2.0156,2.0078
		S20.0176,23.8896,18.9062,23.8896z M18.9062,20.874c-0.5596,0-1.0156,0.4521-1.0156,1.0078s0.4561,1.0078,1.0156,1.0078
		s1.0156-0.4521,1.0156-1.0078S19.4658,20.874,18.9062,20.874z"/>
	<path d="M13.5205,11.9819c-0.2764,0-0.5-0.2236-0.5-0.5V0.5938c0-0.2764,0.2236-0.5,0.5-0.5s0.5,0.2236,0.5,0.5v10.8882
		C14.0205,11.7583,13.7969,11.9819,13.5205,11.9819z"/>
	<path d="M13.5205,11.9819c-0.1279,0-0.2549-0.0483-0.3525-0.1455L10.1924,8.876c-0.1958-0.1948-0.1968-0.5112-0.002-0.707
		c0.1958-0.1958,0.5112-0.1963,0.707-0.002l2.623,2.6099l2.623-2.6099c0.1953-0.1943,0.5117-0.1943,0.707,0.002
		c0.1943,0.1958,0.1943,0.5122-0.002,0.707l-2.9756,2.9604C13.7754,11.9336,13.6484,11.9819,13.5205,11.9819z"/>
</g>
<rect x="-0.0137" y="0.0001" fill="none" width="24" height="24"/>
</svg>
