<?xml version="1.0" encoding="utf-8"?>
<!-- Generator: Adobe Illustrator 18.1.1, SVG Export Plug-In . SVG Version: 6.00 Build 0)  -->
<svg version="1.1" id="Layer_1" xmlns="http://www.w3.org/2000/svg" xmlns:xlink="http://www.w3.org/1999/xlink" x="0px" y="0px"
	 width="24px" height="24px" viewBox="0 0 24 24" enable-background="new 0 0 24 24" xml:space="preserve">
<rect fill="none" width="24" height="24"/>
<g>
	<path d="M3.6934,2.9121C3.6771,2.894,3.6546,2.8848,3.6362,2.8693c-0.0279-0.0236-0.054-0.0479-0.0868-0.065
		C3.52,2.7891,3.488,2.783,3.4562,2.7738C3.4299,2.7662,3.407,2.7518,3.3789,2.7485C3.3726,2.7477,3.367,2.7505,3.3607,2.75
		C3.3546,2.7495,3.3494,2.7459,3.3433,2.7456C3.3097,2.7429,3.282,2.7547,3.2512,2.7587C3.2237,2.7626,3.1958,2.7618,3.1697,2.7701
		c-0.0372,0.012-0.0699,0.0322-0.1028,0.053c-0.024,0.0145-0.0483,0.0265-0.0695,0.0447C2.9919,2.8727,2.9848,2.8745,2.9795,2.8794
		L0.7358,4.9717C0.5337,5.1602,0.5225,5.4766,0.7109,5.6782c0.189,0.2026,0.5049,0.2129,0.7065,0.0249l1.3139-1.2254
		c-0.1406,3.7008,0.5489,9.6582,1.6666,11.8484c0.0884,0.1729,0.2637,0.2725,0.4458,0.2725c0.0762,0,0.1538-0.0176,0.2266-0.0547
		c0.2461-0.125,0.3438-0.4268,0.2183-0.6729C4.2523,13.8405,3.5881,7.9955,3.7333,4.4578l1.2618,1.4124
		c0.0991,0.1108,0.2358,0.167,0.373,0.167c0.1187,0,0.2378-0.042,0.333-0.127c0.2061-0.1841,0.2236-0.5005,0.04-0.7061
		L3.6934,2.9121z"/>
	<path d="M23.0986,11.2388c-0.1836-0.5063-0.4668-0.9067-0.8164-1.1577c-0.4316-0.3096-0.9531-0.377-1.4717-0.1885
		c-0.3438,0.1251-0.6257,0.3404-0.8444,0.6033l-0.0951-0.2615c-0.1826-0.502-0.5498-0.9028-1.0342-1.1284
		c-0.4834-0.2256-1.0293-0.248-1.5293-0.0669c-0.3439,0.1253-0.6261,0.3409-0.8447,0.604l-2.4893-6.8398
		c-0.1826-0.502-0.5498-0.9028-1.0342-1.1284c-0.4824-0.2251-1.0254-0.2495-1.5298-0.0669
		c-0.8188,0.2984-1.3168,1.0802-1.3068,1.9063C9.7281,3.4197,9.3226,3.432,8.9331,3.5737C7.897,3.9507,7.3608,5.1006,7.7378,6.1372
		l2.8391,7.8006c-0.4769-0.3254-1.1176-0.3082-1.614,0.0554c-0.5117,0.375-0.9199,1.1826-0.5327,2.3193
		c0.0562,0.1719,1.4136,4.2246,4.6509,6.04c0.0039,0.002,0.3691,0.1504,0.8086,0.4463c0.085,0.0586,0.1826,0.0859,0.2793,0.0859
		c0.1602,0,0.3184-0.0771,0.4141-0.2207c0.1553-0.2285,0.0947-0.5391-0.1348-0.6934c-0.5049-0.3408-0.9297-0.5195-0.9385-0.5195
		c0,0,0,0,0.001,0c-2.834-1.5947-4.1177-5.4111-4.1323-5.4551c-0.1821-0.5352-0.1167-0.9824,0.1753-1.1963
		c0.1558-0.1143,0.3477-0.1279,0.4556-0.0488l0.9121,0.7393c0.1567,0.127,0.2788,0.2939,0.3521,0.4834l0.7373,1.9039l0.002,0.0053
		c0.0001,0.0001,0.0002,0.0002,0.0002,0.0003l0.0037,0.0095c0.0341,0.0885,0.0951,0.1544,0.1647,0.2083
		c0.015,0.0117,0.0283,0.0212,0.0446,0.0311c0.0767,0.0469,0.161,0.0781,0.2522,0.0786c0.0016,0,0.0027,0.0013,0.0043,0.0013
		c0.0566,0,0.1143-0.0098,0.1709-0.0303c0.0019-0.0007,0.0031-0.0023,0.005-0.0031c0.0016-0.0006,0.0032-0.0002,0.0048-0.0009
		c0.0287-0.0111,0.0494-0.0322,0.0748-0.0477c0.03-0.0184,0.0633-0.0326,0.0883-0.0563c0.0246-0.0233,0.0394-0.0532,0.0585-0.0805
		c0.0176-0.0251,0.0396-0.0471,0.0522-0.0749c0.0137-0.0301,0.0163-0.0635,0.0238-0.0958c0.007-0.0303,0.0192-0.0588,0.0204-0.0903
		c0.0013-0.0311-0.0094-0.0623-0.0142-0.0938c-0.0049-0.0327-0.003-0.0652-0.0148-0.0975L8.6772,5.7954
		C8.4888,5.2769,8.7568,4.7017,9.2749,4.5132c0.5184-0.1863,1.092,0.0801,1.2813,0.5961l2.9077,7.9893
		c0.0335,0.0919,0.0958,0.1605,0.1674,0.2164c0.0151,0.0118,0.0278,0.0222,0.0441,0.0322c0.0753,0.0464,0.1583,0.0759,0.2486,0.0775
		c0.0035,0.0001,0.0062,0.003,0.0096,0.003c0.0566,0,0.1143-0.0098,0.1709-0.0303c0.2598-0.0947,0.3936-0.3809,0.2988-0.6406
		l-2.9067-7.9883c-0.0006-0.0016-0.0016-0.003-0.0023-0.0046l-0.34-0.9343c-0.1885-0.5181,0.0801-1.0933,0.5977-1.2822
		c0.5205-0.1904,1.0938,0.0801,1.2822,0.5977l3.5908,9.8667c0.0333,0.0914,0.0954,0.1599,0.1667,0.2156
		c0.0156,0.0122,0.0289,0.0231,0.0458,0.0333c0.0752,0.0461,0.1581,0.0756,0.2478,0.0772c0.0034,0.0001,0.006,0.0029,0.0094,0.0029
		c0.0566,0,0.1143-0.0098,0.1709-0.0303c0.2598-0.0947,0.3936-0.3809,0.2988-0.6406l-0.5127-1.4092
		c-0.1885-0.5181,0.0801-1.0933,0.5977-1.2822c0.251-0.0898,0.5244-0.0796,0.7646,0.0337c0.2422,0.1128,0.4258,0.313,0.5176,0.564
		l0.6836,1.8799l0.1709,0.4697c0.0742,0.2031,0.2656,0.3291,0.4697,0.3291c0.0566,0,0.1143-0.0098,0.1709-0.0303
		c0.2598-0.0947,0.3936-0.3809,0.2988-0.6406l-0.1709-0.4697c-0.1885-0.5186,0.0801-1.0938,0.5977-1.2822
		c0.208-0.0752,0.3818-0.0557,0.5479,0.062c0.1826,0.1313,0.3457,0.375,0.4434,0.6353c0.0059,0.0259,0.626,2.5742,0.3594,4.7568
		c-0.1201,0.9775-0.1318,1.9404-0.0371,2.9434c0.0254,0.2598,0.2422,0.4531,0.4971,0.4531c0.0166,0,0.0322-0.001,0.0479-0.002
		c0.2754-0.0264,0.4766-0.2705,0.4512-0.5449c-0.0889-0.9307-0.0781-1.8232,0.0332-2.7285
		C23.7842,14.0449,23.1416,11.4014,23.0986,11.2388z"/>
</g>
</svg>
