<?xml version="1.0" encoding="utf-8"?>
<!-- Generator: Adobe Illustrator 18.1.0, SVG Export Plug-In . SVG Version: 6.00 Build 0)  -->
<svg version="1.1" id="Layer_1" xmlns="http://www.w3.org/2000/svg" xmlns:xlink="http://www.w3.org/1999/xlink" x="0px" y="0px"
	 width="24px" height="24px" viewBox="0 0 24 24" enable-background="new 0 0 24 24" xml:space="preserve">
<g>
	<path d="M5.6924,24.043L5.6924,24.043c-0.3262,0-0.4956-0.0098-0.4956-0.0098l-3.2207,0.001c-1.0635,0-1.9619-0.9492-1.9619-2.0732
		v-1.4268c0-0.2764,0.2236-0.5,0.5-0.5h23.0005c0.2764,0,0.5,0.2236,0.5,0.5v3c0,0.2764-0.2236,0.5-0.5,0.5h-7
		c-0.2764,0-0.5-0.2236-0.5-0.5v-1.0098C10.7075,23.8906,7.0513,24.043,5.6924,24.043z M1.0142,21.0342v0.9268
		c0,0.6328,0.5068,1.0732,0.9619,1.0732h3.2471c0.0337,0.001,0.1851,0.0088,0.4692,0.0088l0,0
		c1.3721,0,5.1602-0.1611,10.6924-1.6494c0.1504-0.042,0.3105-0.0098,0.4336,0.0859c0.124,0.0947,0.1963,0.2412,0.1963,0.3965
		v1.1582h6v-2H1.0142z"/>
	<path d="M22.8125,21.0342c-0.0059,0-0.0117,0-0.0176,0c-0.2764-0.0098-0.4922-0.2412-0.4824-0.5176l0.6846-19.5005h-8.9482
		c0.125,1.8892,0.5029,8.1787,0.2158,11.0132c-0.3779,3.7412-4.9185,3.9639-8.2344,4.127
		c-0.6519,0.0322-1.2715,0.0615-1.8232,0.1152c-2.8608,0.2744-2.8735,4.0967-2.8726,4.2598
		c0.0015,0.2754-0.2207,0.501-0.4966,0.5029c-0.001,0-0.0024,0-0.0034,0c-0.2744,0-0.4976-0.2217-0.5-0.4961
		c-0.0137-1.6934,0.7578-4.9727,3.7769-5.2627c0.5659-0.0537,1.2017-0.085,1.8696-0.1182c3.9648-0.1943,7.019-0.5557,7.2896-3.229
		c0.3232-3.1997-0.25-11.2949-0.2559-11.3765c-0.0098-0.1382,0.0381-0.2749,0.1328-0.3765s0.2275-0.1592,0.3662-0.1592h10.001
		c0.1357,0,0.2656,0.0552,0.3594,0.1528c0.0947,0.0977,0.1455,0.229,0.1406,0.3647l-0.7021,20.0181
		C23.3027,20.8213,23.0811,21.0342,22.8125,21.0342z"/>
	<path d="M13.8379,11.4287c-0.2578,0-0.4766-0.1982-0.4971-0.4595c-0.0225-0.2754,0.1826-0.5166,0.458-0.5391
		c1.1572-0.0938,1.1504-0.8018,1.1494-0.832l0.0342-9.084c0.001-0.2754,0.2246-0.498,0.5-0.498c0.001,0,0.001,0,0.002,0
		c0.2764,0.001,0.499,0.2256,0.498,0.502l-0.0342,9.0679c0.0166,0.5669-0.3945,1.7056-2.0693,1.8413
		C13.8652,11.4282,13.8516,11.4287,13.8379,11.4287z"/>
	<path d="M16.1455,13.6025c-0.1699,0-0.3359-0.0869-0.4297-0.2441c-0.5508-0.9238-2.29-0.6797-2.3057-0.6758
		c-0.2666,0.04-0.5293-0.1436-0.5723-0.415c-0.0439-0.2725,0.1406-0.5288,0.4131-0.5728c0.0986-0.0156,2.416-0.3711,3.3242,1.1519
		c0.1416,0.2373,0.0635,0.5439-0.1738,0.6855C16.3213,13.5801,16.2334,13.6025,16.1455,13.6025z"/>
	<path d="M14.9648,15.6299c-0.21,0-0.4053-0.1328-0.4746-0.3438c-0.3467-1.0479-2.04-1.2139-2.0566-1.2158
		c-0.2744-0.0254-0.478-0.2676-0.4536-0.542c0.0239-0.2744,0.2749-0.4707,0.5405-0.4541c0.0967,0.0078,2.3662,0.2236,2.9189,1.8994
		c0.0869,0.2617-0.0557,0.5449-0.3184,0.6309C15.0693,15.6221,15.0166,15.6299,14.9648,15.6299z"/>
	<path d="M12.9199,17.0938c-0.2568,0-0.4746-0.1973-0.4971-0.458c-0.0918-1.0762-1.6069-1.498-1.6226-1.502
		c-0.2656-0.0723-0.4243-0.3467-0.353-0.6123c0.0713-0.2666,0.3398-0.4287,0.6104-0.3545c0.0903,0.0234,2.21,0.6045,2.3613,2.3848
		c0.0234,0.2744-0.1807,0.5166-0.4561,0.54C12.9492,17.0928,12.9346,17.0938,12.9199,17.0938z"/>
</g>
<rect x="0.0142" y="0.0344" fill="none" width="24" height="24"/>
</svg>
