<?xml version="1.0" encoding="utf-8"?>
<!-- Generator: Adobe Illustrator 18.1.0, SVG Export Plug-In . SVG Version: 6.00 Build 0)  -->
<svg version="1.1" id="Layer_1" xmlns="http://www.w3.org/2000/svg" xmlns:xlink="http://www.w3.org/1999/xlink" x="0px" y="0px"
	 width="24px" height="24px" viewBox="0 0 24 24" enable-background="new 0 0 24 24" xml:space="preserve">
<g>
	<path d="M7.77,21.4912c-0.0815,0-0.1646-0.0205-0.2412-0.0625c-0.2417-0.1338-0.3296-0.4375-0.1958-0.6797l2.9409-5.3203
		c0.1333-0.2412,0.437-0.3291,0.6792-0.1953c0.2417,0.1338,0.3296,0.4375,0.1958,0.6797L8.208,21.2334
		C8.1167,21.3984,7.9463,21.4912,7.77,21.4912z"/>
	<path d="M17.1201,23.8467c-0.1875,0-0.3682-0.1064-0.4531-0.2881l-3.5918-7.6758c-0.1172-0.25-0.0088-0.5479,0.2412-0.665
		c0.249-0.1172,0.5479-0.0098,0.665,0.2412l3.5918,7.6758c0.1172,0.25,0.0088,0.5479-0.2412,0.665
		C17.2637,23.832,17.1914,23.8467,17.1201,23.8467z"/>
	<path d="M16.2656,22.0195H8.2124c-0.2764,0-0.5-0.2236-0.5-0.5s0.2236-0.5,0.5-0.5h8.0532c0.2764,0,0.5,0.2236,0.5,0.5
		S16.542,22.0195,16.2656,22.0195z"/>
	<path d="M12.1201,16.3525c-3.8481,0-6.833-3.6729-6.833-6.833c0-0.2764,0.2236-0.5,0.5-0.5h12.666c0.2764,0,0.5,0.2236,0.5,0.5
		C18.9531,12.6797,15.9688,16.3525,12.1201,16.3525z M6.3154,10.0195c0.2866,2.5703,2.7212,5.333,5.8047,5.333
		c3.084,0,5.5176-2.7627,5.8047-5.333H6.3154z"/>
	<path d="M9.1011,13.4473c-0.1294,0-0.2588-0.0498-0.3569-0.1494c-0.5869-0.5986-1.0068-1.3228-1.2129-2.0952
		c-0.0713-0.2666,0.0869-0.5405,0.354-0.6118c0.2651-0.0703,0.5405,0.0869,0.6118,0.354c0.1621,0.6055,0.4941,1.1772,0.9609,1.6519
		c0.1934,0.1973,0.1904,0.5137-0.0068,0.707C9.354,13.3994,9.2275,13.4473,9.1011,13.4473z"/>
	<path d="M6.9893,23.8467c-0.9971,0-1.8081-0.8115-1.8081-1.8086s0.811-1.8076,1.8081-1.8076s1.8081,0.8105,1.8081,1.8076
		S7.9863,23.8467,6.9893,23.8467z M6.9893,21.2305c-0.4458,0-0.8081,0.3623-0.8081,0.8076c0,0.4463,0.3623,0.8086,0.8081,0.8086
		s0.8081-0.3623,0.8081-0.8086C7.7974,21.5928,7.4351,21.2305,6.9893,21.2305z"/>
	<path d="M5.7871,10.0195H5c-0.2764,0-0.5-0.2236-0.5-0.5s0.2236-0.5,0.5-0.5h0.7871c0.2764,0,0.5,0.2236,0.5,0.5
		S6.0635,10.0195,5.7871,10.0195z"/>
	<path d="M20.4395,12.0195h-2.3799c-0.2764,0-0.5-0.2236-0.5-0.5s0.2236-0.5,0.5-0.5h2.3799c0.2764,0,0.5,0.2236,0.5,0.5
		S20.7158,12.0195,20.4395,12.0195z"/>
	<path d="M10.9692,7.731c-0.0156,0-0.0312-0.0005-0.0469-0.002c-0.2944-0.0273-0.8652-0.2236-1.1357-0.7842
		c-0.3467-0.7173-0.0967-1.707,0.7632-3.0259c0.9795-1.501,0.9072-2.1479,0.8306-2.3564c-0.0503-0.1377-0.1426-0.1899-0.1436-0.1904
		c-0.2646-0.0786-0.4155-0.3569-0.3364-0.6216c0.0786-0.2646,0.356-0.415,0.6216-0.3364c0.0576,0.0171,0.5698,0.1855,0.7974,0.8037
		c0.2832,0.7729-0.0303,1.8652-0.9316,3.2476c-0.8936,1.3691-0.7646,1.9062-0.7036,2.0386c0.0898,0.1953,0.3291,0.2285,0.3394,0.23
		c0.27,0.0352,0.4673,0.2812,0.437,0.5522C11.4321,7.541,11.2202,7.731,10.9692,7.731z"/>
	<path d="M13.5576,7.731c-0.0156,0-0.0312-0.0005-0.0459-0.002c-0.2646-0.0249-0.6387-0.188-0.8213-0.5674
		c-0.2334-0.4829-0.0869-1.1157,0.4482-1.9355c0.5527-0.8472,0.4561-1.1387,0.4512-1.1509
		c-0.2646-0.0786-0.3857-0.3447-0.3076-0.6099c0.0791-0.2646,0.3857-0.4019,0.6514-0.3252
		c0.0703,0.0215,0.4326,0.1489,0.5957,0.5903c0.1885,0.5146,0.0078,1.1826-0.5527,2.0425
		c-0.4648,0.7109-0.3867,0.9517-0.3857,0.9536c0.2744,0.0254,0.4834,0.2725,0.458,0.5474
		C14.0244,7.5332,13.8125,7.731,13.5576,7.731z"/>
</g>
<rect y="0.0197" fill="none" width="24" height="24"/>
</svg>
