<?xml version="1.0" encoding="utf-8"?>
<!-- Generator: Adobe Illustrator 18.1.0, SVG Export Plug-In . SVG Version: 6.00 Build 0)  -->
<svg version="1.1" id="Layer_1" xmlns="http://www.w3.org/2000/svg" xmlns:xlink="http://www.w3.org/1999/xlink" x="0px" y="0px"
	 width="24px" height="24px" viewBox="0 0 24 24" enable-background="new 0 0 24 24" xml:space="preserve">
<g>
	<path d="M16.4834,6H7.5356c-0.2764,0-0.5-0.2236-0.5-0.5S7.2593,5,7.5356,5h8.9478c0.2764,0,0.5,0.2236,0.5,0.5
		S16.7598,6,16.4834,6z"/>
	<path d="M16.4834,9H7.5356c-0.2764,0-0.5-0.2236-0.5-0.5S7.2593,8,7.5356,8h8.9478c0.2764,0,0.5,0.2236,0.5,0.5
		S16.7598,9,16.4834,9z"/>
	<path d="M16.4834,12H7.5356c-0.2764,0-0.5-0.2236-0.5-0.5s0.2236-0.5,0.5-0.5h8.9478c0.2764,0,0.5,0.2236,0.5,0.5
		S16.7598,12,16.4834,12z"/>
	<path d="M14.459,15H7.5356c-0.2764,0-0.5-0.2236-0.5-0.5s0.2236-0.5,0.5-0.5h6.9233c0.2764,0,0.5,0.2236,0.5,0.5
		S14.7354,15,14.459,15z"/>
	<path d="M16.0137,20.7285c-0.9492,0-1.7207-0.7715-1.7207-1.7207s0.7715-1.7207,1.7207-1.7207s1.7207,0.7715,1.7207,1.7207
		S16.9629,20.7285,16.0137,20.7285z M16.0137,18.2871c-0.3975,0-0.7207,0.3232-0.7207,0.7207s0.3232,0.7207,0.7207,0.7207
		s0.7207-0.3232,0.7207-0.7207S16.4111,18.2871,16.0137,18.2871z"/>
	<path d="M18.1348,24H5.8652C4.2852,24,3,22.7148,3,21.1348V2.8652C3,1.2852,4.2852,0,5.8652,0h12.2695
		C19.7148,0,21,1.2852,21,2.8652v18.2695C21,22.7148,19.7148,24,18.1348,24z M5.8652,1C4.8369,1,4,1.8369,4,2.8652v18.2695
		C4,22.1631,4.8369,23,5.8652,23h12.2695C19.1631,23,20,22.1631,20,21.1348V2.8652C20,1.8369,19.1631,1,18.1348,1H5.8652z"/>
</g>
<rect fill="none" width="24" height="24"/>
</svg>
