<?xml version="1.0" encoding="utf-8"?>
<!-- Generator: Adobe Illustrator 18.1.0, SVG Export Plug-In . SVG Version: 6.00 Build 0)  -->
<svg version="1.1" id="Layer_1" xmlns="http://www.w3.org/2000/svg" xmlns:xlink="http://www.w3.org/1999/xlink" x="0px" y="0px"
	 width="24px" height="24px" viewBox="0 0 24 24" enable-background="new 0 0 24 24" xml:space="preserve">
<g>
	<g>
		<path d="M18.4297,23.9824H5.541c-0.2764,0-0.5-0.2236-0.5-0.5V2.439c0-0.1924,0.1089-0.3599,0.2681-0.4434l2.0615-1.8472
			c0.1895-0.1699,0.4775-0.1699,0.667,0l1.8071,1.6191l1.8066-1.6191c0.1895-0.1704,0.4775-0.1699,0.667,0l1.8066,1.6191
			l1.8057-1.6187c0.1895-0.1709,0.4766-0.1704,0.668-0.0005l2.0928,1.875c0.1406,0.0898,0.2383,0.2422,0.2383,0.4155v21.0435
			C18.9297,23.7588,18.7061,23.9824,18.4297,23.9824z M6.041,22.9824h11.8887V2.6836l-1.665-1.4912L14.459,2.811
			c-0.1895,0.1709-0.4766,0.1704-0.668,0.0005l-1.8062-1.6191l-1.8066,1.6191c-0.1895,0.1699-0.4775,0.1699-0.667,0L7.7041,1.1924
			L6.041,2.6826V22.9824z"/>
	</g>
	<path d="M14.4648,20.0068H9.4551c-0.2764,0-0.5-0.2236-0.5-0.5s0.2236-0.5,0.5-0.5h5.0098c0.2764,0,0.5,0.2236,0.5,0.5
		S14.7412,20.0068,14.4648,20.0068z"/>
	<path d="M14.4648,17.0068H9.4551c-0.2764,0-0.5-0.2236-0.5-0.5s0.2236-0.5,0.5-0.5h5.0098c0.2764,0,0.5,0.2236,0.5,0.5
		S14.7412,17.0068,14.4648,17.0068z"/>
	<path d="M11.4648,13.1211c-0.728,0-1.6904-0.3955-2.3408-0.9619c-0.2085-0.1812-0.2305-0.4971-0.0488-0.7051
		c0.1812-0.208,0.4985-0.2295,0.7051-0.0488c0.4614,0.4014,1.2012,0.7158,1.6846,0.7158c0.7031,0,1.2754-0.4717,1.2754-1.0518
		c0-0.2827-0.1465-0.7017-1.4155-1.0728C10.625,9.7778,9.189,9.3276,9.189,7.9644c0-1.1318,1.021-2.0522,2.2759-2.0522
		c0.8027,0,1.5537,0.3867,1.9609,1.0093c0.1504,0.231,0.0859,0.541-0.1455,0.6919c-0.2295,0.1499-0.5391,0.0874-0.6924-0.145
		c-0.2236-0.3433-0.6543-0.5562-1.123-0.5562c-0.7036,0-1.2759,0.4722-1.2759,1.0522c0,0.3774,0.2422,0.7046,1.4253,1.0752
		c0.5186,0.1514,2.126,0.6216,2.126,2.0298C13.7402,12.2002,12.7197,13.1211,11.4648,13.1211z"/>
	<path d="M11.4648,6.9116c-0.2764,0-0.5-0.2236-0.5-0.5V5.5635c0-0.2764,0.2236-0.5,0.5-0.5s0.5,0.2236,0.5,0.5v0.8481
		C11.9648,6.688,11.7412,6.9116,11.4648,6.9116z"/>
	<path d="M11.4648,13.9697c-0.2764,0-0.5-0.2236-0.5-0.5v-0.8486c0-0.2764,0.2236-0.5,0.5-0.5s0.5,0.2236,0.5,0.5v0.8486
		C11.9648,13.7461,11.7412,13.9697,11.4648,13.9697z"/>
</g>
<rect x="-0.0136" y="0.0031" fill="none" width="24" height="24"/>
<rect x="-0.0136" fill="none" width="24" height="24"/>
</svg>
