<?xml version="1.0" encoding="utf-8"?>
<!-- Generator: Adobe Illustrator 18.1.0, SVG Export Plug-In . SVG Version: 6.00 Build 0)  -->
<svg version="1.1" id="Layer_1" xmlns="http://www.w3.org/2000/svg" xmlns:xlink="http://www.w3.org/1999/xlink" x="0px" y="0px"
	 width="24px" height="24px" viewBox="0 0 24 24" enable-background="new 0 0 24 24" xml:space="preserve">
<g>
	<path d="M10.519,19.0029c-3.0225,0-5.4814-2.459-5.4814-5.4805c0-3.0229,2.459-5.4819,5.4814-5.4819
		c3.022,0,5.481,2.459,5.481,5.4819C16,16.5439,13.541,19.0029,10.519,19.0029z M10.519,9.0405
		c-2.4712,0-4.4814,2.0107-4.4814,4.4819c0,2.4707,2.0103,4.4805,4.4814,4.4805S15,15.9932,15,13.5225
		C15,11.0513,12.9902,9.0405,10.519,9.0405z"/>
	<path d="M18.5107,11.9995c-0.8184,0-1.4844-0.6655-1.4844-1.4839s0.666-1.4844,1.4844-1.4844s1.4834,0.666,1.4834,1.4844
		S19.3291,11.9995,18.5107,11.9995z M18.5107,10.0312c-0.2666,0-0.4844,0.2173-0.4844,0.4844c0,0.2666,0.2178,0.4839,0.4844,0.4839
		s0.4834-0.2173,0.4834-0.4839C18.9941,10.2485,18.7773,10.0312,18.5107,10.0312z"/>
	<path d="M7.4536,14.0215c-0.2686,0-0.4902-0.2129-0.499-0.4834c-0.0317-0.9609,0.3232-1.8628,0.9995-2.5391
		c0.6768-0.6758,1.5728-1.0303,2.5391-0.9995c0.2759,0.0088,0.4922,0.2397,0.4829,0.5161
		c-0.0088,0.2759-0.2236,0.5112-0.5161,0.4829c-0.6816-0.0098-1.3198,0.2295-1.7983,0.7075c-0.479,0.4785-0.73,1.1182-0.708,1.7988
		c0.0093,0.2764-0.207,0.5068-0.4829,0.5166C7.4648,14.0215,7.4595,14.0215,7.4536,14.0215z"/>
	<path d="M21.3525,21H2.6377c-0.8364,0-1.522-0.2969-2.0381-0.8809c-0.6401-0.7227-0.6206-1.6455-0.6143-1.9492l0.001-9.1743
		C-0.0137,7.02,1.3862,6.0576,2.687,6l3.5415-0.0005c0.2798-2.5845,1.3765-4,3.1167-4L12.8467,2c1.7402,0,2.8369,1.4155,3.1162,4
		h5.3828c1.709,0,2.5869,1.3984,2.6787,2.6982l-0.0381,9.4492c0,1.9004-1.5449,2.7461-2.584,2.8496
		C21.3857,20.999,21.3691,21,21.3525,21z M2.709,6.9995C2.6602,7.002,0.9863,7.0981,0.9863,8.9956v9.1265
		c-0.0059,0.2979-0.0186,0.9043,0.3623,1.334C1.6763,19.8271,2.0854,20,2.6377,20h18.6875
		c0.4834-0.0576,1.6611-0.4912,1.6611-1.8545l0.0391-9.4141C23.0137,8.5874,22.8584,7,21.3457,7h-5.8408
		c-0.2627,0-0.4814-0.2041-0.499-0.4663C14.917,5.2139,14.5186,3,12.8467,3L9.3452,2.9995c-1.6719,0-2.0708,2.2139-2.1597,3.5337
		c-0.0181,0.2622-0.2358,0.4663-0.499,0.4663H2.709z"/>
</g>
<rect x="-0.0136" y="0.0002" fill="none" width="24" height="24"/>
</svg>
