<?xml version="1.0" encoding="utf-8"?>
<!-- Generator: Adobe Illustrator 18.1.0, SVG Export Plug-In . SVG Version: 6.00 Build 0)  -->
<svg version="1.1" id="Layer_1" xmlns="http://www.w3.org/2000/svg" xmlns:xlink="http://www.w3.org/1999/xlink" x="0px" y="0px"
	 width="24px" height="24px" viewBox="0 0 24 24" enable-background="new 0 0 24 24" xml:space="preserve">
<g>
	<path d="M5.4951,17.9863c-0.0039,0-0.0073,0-0.0112,0c-0.1309-0.0029-0.2583-0.0537-0.3496-0.1465l-0.1597-0.1484
		c-0.6865-0.6289-2.7749-2.5449-3.5059-3.7295c-0.8623-1.3975-1.1265-3.3696-0.7847-5.8633
		C0.957,6.1069,1.5864,2.4707,1.5928,2.4341c0.0415-0.2397,0.2495-0.4146,0.4927-0.4146h6.814c0.2432,0,0.4512,0.1748,0.4927,0.4146
		c0.0063,0.0366,0.6357,3.6733,0.9087,5.6646c0.3418,2.4961,0.0781,4.4697-0.7847,5.8652
		c-0.7305,1.1846-2.8193,3.0986-3.5059,3.7275l-0.1611,0.1484C5.7554,17.9326,5.6265,17.9863,5.4951,17.9863z M2.5068,3.0195
		C2.334,4.0312,1.8911,6.6577,1.6753,8.2344c-0.3096,2.2578-0.0928,4.0078,0.644,5.2021c0.4238,0.6865,1.4907,1.8203,3.1729,3.373
		c1.6826-1.5508,2.7495-2.6846,3.1733-3.3711c0.7373-1.1934,0.9541-2.9438,0.644-5.2041C9.0938,6.6577,8.6509,4.0312,8.478,3.0195
		H2.5068z"/>
	<path d="M5.5,24.0195c-0.2764,0-0.5-0.2236-0.5-0.5v-6.0293c0-0.2764,0.2236-0.5,0.5-0.5s0.5,0.2236,0.5,0.5v6.0293
		C6,23.7959,5.7764,24.0195,5.5,24.0195z"/>
	<path d="M9.5254,24.0195h-8.042c-0.2764,0-0.5-0.2236-0.5-0.5s0.2236-0.5,0.5-0.5h8.042c0.2764,0,0.5,0.2236,0.5,0.5
		S9.8018,24.0195,9.5254,24.0195z"/>
	<path d="M9.937,11.0195H1.0391c-0.2764,0-0.5-0.2236-0.5-0.5s0.2236-0.5,0.5-0.5H9.937c0.2764,0,0.5,0.2236,0.5,0.5
		S10.2134,11.0195,9.937,11.0195z"/>
	<path d="M21.9814,12.915h-0.0615C20.96,12.915,20,12.3818,20,10.8853c0-1.3921-0.0078-2.5762-0.0137-3.5825
		c-0.0264-4.0591-0.0332-5.1499,0.5234-5.71c0.209-0.21,0.4824-0.312,0.8359-0.312c1.5352,0,1.6523,1.6396,1.6914,2.1782
		l0.6758,7.8535c0.002,0.2847,0.002,1.0205-0.5938,1.3857C22.7646,12.915,22.3311,12.915,21.9814,12.915z M21.3457,2.2808
		c-0.0967,0-0.125,0.0151-0.125,0.0151c-0.2656,0.1968-0.252,2.2119-0.2344,5.0005C20.9922,8.3042,21,9.4907,21,10.8853
		c0,0.6929,0.2803,1.0298,0.8574,1.0298h0.124c0.1992,0,0.502,0,0.6152-0.0693c0.1064-0.0659,0.1182-0.3647,0.1182-0.4902
		L22.04,3.5376C21.9502,2.2808,21.5723,2.2808,21.3457,2.2808z"/>
	<path d="M15.5,24.0195c-0.2764,0-0.5-0.2236-0.5-0.5v-12.937c0-0.2764,0.2236-0.5,0.5-0.5s0.5,0.2236,0.5,0.5v12.937
		C16,23.7959,15.7764,24.0195,15.5,24.0195z"/>
	<path d="M15.5,7.9858c-0.2764,0-0.5-0.2236-0.5-0.5v-4c0-0.2764,0.2236-0.5,0.5-0.5s0.5,0.2236,0.5,0.5v4
		C16,7.7622,15.7764,7.9858,15.5,7.9858z"/>
	<path d="M20.5,24.0742c-0.2764,0-0.5-0.2236-0.5-0.5V3.4858c0-0.2764,0.2236-0.5,0.5-0.5s0.5,0.2236,0.5,0.5v20.0884
		C21,23.8506,20.7764,24.0742,20.5,24.0742z"/>
	<path d="M17.5,7.9858c-0.2764,0-0.5-0.2236-0.5-0.5v-4c0-0.2764,0.2236-0.5,0.5-0.5s0.5,0.2236,0.5,0.5v4
		C18,7.7622,17.7764,7.9858,17.5,7.9858z"/>
	<path d="M13.5,7.9858c-0.2764,0-0.5-0.2236-0.5-0.5v-4c0-0.2764,0.2236-0.5,0.5-0.5s0.5,0.2236,0.5,0.5v4
		C14,7.7622,13.7764,7.9858,13.5,7.9858z"/>
	<path d="M15.5039,11.0825h-0.0342c-0.0088,0-0.0186,0-0.0273-0.0005C14.0693,11.0493,13,9.9429,13,8.5449V7.5195
		c0-0.2764,0.2236-0.5,0.5-0.5h4c0.2764,0,0.5,0.2236,0.5,0.5v1.0254c0,1.374-1.1035,2.5039-2.4688,2.5366
		C15.5225,11.082,15.5127,11.0825,15.5039,11.0825z M14,8.0195v0.5254c0,0.854,0.6523,1.5283,1.4863,1.5376
		C16.3213,10.0732,17,9.3843,17,8.5449V8.0195H14z"/>
</g>
<rect y="0.0197" fill="none" width="24" height="24"/>
</svg>
