<?xml version="1.0" encoding="utf-8"?>
<!-- Generator: Adobe Illustrator 18.1.0, SVG Export Plug-In . SVG Version: 6.00 Build 0)  -->
<svg version="1.1" id="Layer_1" xmlns="http://www.w3.org/2000/svg" xmlns:xlink="http://www.w3.org/1999/xlink" x="0px" y="0px"
	 width="24px" height="24px" viewBox="0 0 24 24" enable-background="new 0 0 24 24" xml:space="preserve">
<g>
	<path d="M12.0127,23.8291c-2.2832,0-5.9507-2.4639-6.4756-5.8008c-0.7251-0.1943-1.251-0.8477-1.251-1.6221
		c0-0.5078,0.2295-0.9805,0.6089-1.2939C4.71,14.457,4.6162,13.7822,4.6162,13.0996c0-0.75,0.1118-1.4902,0.3325-2.1992
		c0.082-0.2637,0.3623-0.4106,0.626-0.3291c0.2637,0.082,0.4111,0.3623,0.3291,0.626c-0.1909,0.6133-0.2876,1.2529-0.2876,1.9023
		c0,0.7041,0.1157,1.3994,0.3433,2.0674c0.0835,0.2441-0.0332,0.5127-0.27,0.6182c-0.2451,0.1084-0.4033,0.3525-0.4033,0.6211
		c0,0.376,0.3057,0.6816,0.6816,0.6816c0.2607,0,0.4985,0.2002,0.519,0.46c0.2251,2.8643,3.5542,5.2812,5.5259,5.2812
		c2.0186,0,5.2969-2.3662,5.5254-5.2812c0.0195-0.2607,0.2471-0.417,0.5-0.4609c0.3965,0,0.7012-0.3057,0.7012-0.6807
		c0-0.2686-0.1582-0.5117-0.4033-0.6211c-0.2363-0.1055-0.3535-0.373-0.2705-0.6182c0.2285-0.6689,0.3438-1.3643,0.3438-2.0674
		c0-0.6387-0.0947-1.271-0.2812-1.8789c-0.0801-0.2642,0.0684-0.5435,0.332-0.6245c0.2676-0.0835,0.5439,0.0679,0.625,0.3315
		c0.2148,0.7031,0.3242,1.4336,0.3242,2.1719c0,0.6816-0.0938,1.3564-0.2793,2.0117c0.3799,0.3154,0.6094,0.7871,0.6094,1.2949
		c0,0.7793-0.5332,1.4365-1.2539,1.627C17.9795,21.1455,14.5625,23.8291,12.0127,23.8291z"/>
	<path d="M12.0127,14.2344c-3.894,0-7.231-2.0566-7.231-3.7397c0-0.0137,0.0049-0.0869,0.0059-0.1001
		c0.0088-0.1875-0.0024-1.2549-1.1304-2.7954C2.4482,5.9487,2.1367,5.04,2.646,4.6533C2.7358,4.585,2.855,4.563,2.959,4.5513
		c0.0005,0,0.001,0,0.001,0c0.3491,0,3.2446-0.0664,5.7886-2.2915c1.6362-1.4316,2.7148-2.1323,3.2642-2.1411
		c0.5166-0.0103,1.6279,0.71,3.2637,2.1411c2.5479,2.2275,5.4463,2.292,5.7686,2.292c0.1094,0,0.248,0.0352,0.335,0.1016
		c0.5156,0.3921,0.2129,1.2729-1.0127,2.9458c-1.1299,1.543-1.1387,2.6079-1.1299,2.8057
		C19.2432,12.1777,15.9062,14.2344,12.0127,14.2344z M3.5293,5.5234c0.126,0.2744,0.3887,0.7393,0.9346,1.4849
		c1.2935,1.7661,1.3389,3.0825,1.3223,3.4438c-0.0044,0.8325,2.479,2.7822,6.2266,2.7822c3.7471,0,6.2305-1.9497,6.2305-2.7397
		c-0.0215-0.4023,0.0225-1.7168,1.3174-3.4863c0.5479-0.7476,0.8105-1.2129,0.9365-1.4873
		c-1.1445-0.103-3.6445-0.5542-5.8789-2.5083c-1.8096-1.583-2.4707-1.8486-2.6055-1.8901c-0.1343,0.0415-0.7964,0.3071-2.606,1.8901
		C7.1582,4.9795,4.6411,5.4238,3.5293,5.5234z"/>
	<path d="M5.2856,10.7456c-0.2036,0-0.395-0.125-0.4692-0.3271C4.7212,10.1592,4.854,9.8716,5.1128,9.7764
		c0.2725-0.0991,6.7397-2.4224,13.7349-0.0034c0.2617,0.0903,0.3994,0.375,0.3096,0.6362s-0.3779,0.3975-0.6357,0.3091
		c-6.6641-2.3052-13-0.0273-13.063-0.0034C5.4014,10.7358,5.3433,10.7456,5.2856,10.7456z"/>
	<path d="M11.9854,8.0337c-0.0391,0-0.1094-0.0083-0.1475-0.0176c-0.7676-0.2222-2.0254-0.999-2.0254-2.541V4.3369
		c0-0.3911,0.4258-0.708,0.7998-0.5942c0.0283,0.0078,0.0703,0.0132,0.1152,0.0132c0.2642,0,0.5439-0.1758,0.748-0.4697
		c0.2261-0.3257,0.7861-0.3306,1.0176-0.0029c0.2422,0.3481,0.6133,0.5288,0.874,0.4565c0.374-0.1084,0.791,0.209,0.791,0.5972
		v1.1382c0,1.5327-1.2559,2.314-1.9971,2.5337C12.1152,8.0225,12.0332,8.0337,11.9854,8.0337z M10.8125,4.7534v0.7217
		c0,1.001,0.8701,1.4214,1.1768,1.5386c0.2871-0.1079,1.1689-0.5215,1.1689-1.5386V4.7534
		c-0.4209-0.0225-0.835-0.2134-1.1729-0.5332C11.6475,4.54,11.2334,4.7305,10.8125,4.7534z"/>
	<path d="M7.1138,16.2861c-0.1577,0-0.3096-0.0752-0.4048-0.207c-0.0684-0.0889-0.4521-0.5459-1.021-0.293
		c-0.2549,0.1104-0.5483-0.0039-0.6592-0.2568c-0.1113-0.252,0.0034-0.5479,0.2559-0.6592
		c0.5376-0.2363,1.0215-0.1826,1.4082-0.0215l0.1919-2.2295c0.0234-0.2754,0.2617-0.4727,0.541-0.4551
		c0.2749,0.0234,0.479,0.2656,0.4551,0.541l-0.269,3.124c-0.0176,0.208-0.1631,0.3828-0.3643,0.4385
		C7.2031,16.2803,7.1582,16.2861,7.1138,16.2861z"/>
	<path d="M16.9336,16.2842c-0.0459,0-0.0918-0.0068-0.1367-0.0195c-0.1992-0.0576-0.3438-0.2295-0.3613-0.4355l-0.2686-3.124
		c-0.0234-0.2754,0.1797-0.5176,0.4551-0.541c0.2695-0.0234,0.5166,0.1787,0.541,0.4551l0.1914,2.2295
		c0.3887-0.1621,0.874-0.2139,1.4082,0.0215c0.2529,0.1113,0.3682,0.4072,0.2568,0.6592c-0.1123,0.2529-0.4062,0.3662-0.6592,0.2568
		c-0.5684-0.2529-0.9541,0.2041-1.0244,0.2969C17.2393,16.2109,17.0889,16.2842,16.9336,16.2842z"/>
	<path d="M12.7373,20.0146h-1.4497c-0.2764,0-0.5-0.2236-0.5-0.5s0.2236-0.5,0.5-0.5h1.4497c0.2764,0,0.5,0.2236,0.5,0.5
		S13.0137,20.0146,12.7373,20.0146z"/>
	<path d="M14.1299,17.04c-0.1299,0-0.25-0.0498-0.3496-0.1406c-0.1006-0.0996-0.1504-0.2295-0.1504-0.3594
		c0-0.1201,0.0498-0.25,0.1396-0.3398c0.21-0.21,0.54-0.1904,0.7207-0.0107c0.0898,0.0908,0.1396,0.2207,0.1396,0.3506
		c0,0.1396-0.0498,0.2598-0.1504,0.3594C14.3896,16.9902,14.2598,17.04,14.1299,17.04z"/>
	<path d="M9.8896,17.04c-0.1196,0-0.25-0.0498-0.3496-0.1406c-0.1001-0.0996-0.1504-0.2197-0.1504-0.3594
		c0-0.1299,0.0503-0.25,0.1504-0.3506c0.1899-0.1895,0.52-0.1797,0.71,0c0.0898,0.1006,0.1396,0.2207,0.1396,0.3506
		c0,0.1396-0.0498,0.2598-0.1396,0.3594C10.1499,16.9902,10.02,17.04,9.8896,17.04z"/>
</g>
<rect x="0.0005" y="0.0004" fill="none" width="24" height="24"/>
</svg>
