<?xml version="1.0" encoding="utf-8"?>
<!-- Generator: Adobe Illustrator 18.1.0, SVG Export Plug-In . SVG Version: 6.00 Build 0)  -->
<svg version="1.1" id="Layer_1" xmlns="http://www.w3.org/2000/svg" xmlns:xlink="http://www.w3.org/1999/xlink" x="0px" y="0px"
	 width="24px" height="24px" viewBox="0 0 24 24" enable-background="new 0 0 24 24" xml:space="preserve">
<g>
	<path d="M18.3926,23.8779c-0.2998,0-0.5801-0.1162-0.7891-0.3281l-5.6553-5.6543l-5.5903,5.5898
		c-0.4229,0.4199-1.1553,0.4199-1.5752,0L0.4639,19.166c-0.2104-0.209-0.3276-0.4893-0.3276-0.7871
		c0-0.2988,0.1172-0.5791,0.3291-0.79L6.0527,12l-5.623-5.6226c-0.4331-0.4355-0.4326-1.1421-0.001-1.5762l4.3857-4.3872
		c0.4062-0.4062,1.1685-0.4062,1.5767-0.001l5.6245,5.6245l5.623-5.6235c0.4062-0.4062,1.1699-0.4062,1.5762,0l4.3193,4.3198
		c0.21,0.209,0.3262,0.4883,0.3262,0.7861c0.001,0.2983-0.1152,0.5791-0.3262,0.79l-5.623,5.6235l5.6562,5.6553
		c0.2109,0.2109,0.3271,0.4912,0.3262,0.79c0,0.2979-0.1162,0.5781-0.3271,0.7881l-4.3848,4.3848
		C18.9717,23.7617,18.6914,23.8779,18.3926,23.8779z M5.168,0.7676l0.3535,0.3535L1.1367,5.5078
		C1.0923,5.5522,1.0928,5.626,1.1377,5.6714l5.9756,5.9751c0.1953,0.1953,0.1953,0.5117,0,0.707l-5.9424,5.9443
		c0.0005,0-0.0005,0.1602,0,0.1611l4.3184,4.3193l0.5151,0.3535l-0.3535-0.3535l5.9438-5.9434c0.1953-0.1953,0.5117-0.1953,0.707,0
		l6.0908,6.043c0.0186,0,0.0527-0.0039,0.0811-0.0322l4.3867-4.3867l0.3535-0.5166l-0.3535,0.3535l-6.0098-6.0088
		c-0.0938-0.0938-0.1465-0.2207-0.1465-0.3535s0.0527-0.2598,0.1465-0.3535l5.9766-5.9766c0-0.0005,0-0.1621,0-0.1626
		l-4.3193-4.3198l-0.5156-0.3535l0.3535,0.3535l-5.9766,5.9771c-0.1875,0.1875-0.5195,0.1875-0.707,0L5.6846,1.1211L5.168,0.7676z"
		/>
</g>
<rect fill="none" width="24" height="24"/>
</svg>
