<?xml version="1.0" encoding="utf-8"?>
<!-- Generator: Adobe Illustrator 18.1.0, SVG Export Plug-In . SVG Version: 6.00 Build 0)  -->
<svg version="1.1" id="Layer_1" xmlns="http://www.w3.org/2000/svg" xmlns:xlink="http://www.w3.org/1999/xlink" x="0px" y="0px"
	 width="24px" height="24px" viewBox="0 0 24 24" enable-background="new 0 0 24 24" xml:space="preserve">
<g>
	<path d="M11.998,24.0039H0.9912c-0.5425,0-0.9834-0.4404-0.9834-0.9824v-1.7246c0-0.2637,0.1089-0.5205,0.2988-0.7051
		c2.1279-2.0674,8.0859-4.3398,8.5317-4.3398c0.0806,0,0.1636,0.0195,0.2349,0.0576c0.231,0.1201,0.3301,0.3984,0.228,0.6387
		c-0.1982,0.4658-0.4507,0.9922-0.7251,1.4092c1.1758,0.4629,3.2681,1.7383,3.9131,5.0508
		c0.0283,0.1465-0.0107,0.2988-0.1055,0.4141S12.1475,24.0039,11.998,24.0039z M7.8662,17.6025
		c-1.7559,0.6807-5.3423,2.2285-6.8633,3.707l0.0049,1.7119l10.3599-0.0166c-0.9331-3.3613-3.6553-3.8848-3.7769-3.9072
		c-0.2222-0.0391-0.3916-0.2227-0.4116-0.4473s0.1118-0.4355,0.3232-0.5137C7.5713,18.0859,7.708,17.8828,7.8662,17.6025z"/>
	<path d="M23.0049,24.0039H11.998c-0.1494,0-0.291-0.0664-0.3857-0.1816c-0.0952-0.1152-0.1338-0.2676-0.105-0.4141
		c0.644-3.3125,2.7358-4.5879,3.9116-5.0508c-0.2744-0.417-0.5254-0.9434-0.7236-1.4102c-0.0488-0.1143-0.0527-0.2422-0.0127-0.3594
		c0.0723-0.2061,0.2412-0.3701,0.4932-0.335c0.0479,0.002,0.0957,0.0117,0.1406,0.0283c1.0615,0.2715,6.3848,2.3799,8.373,4.3115
		c0.1895,0.1836,0.2979,0.4404,0.2979,0.7041v1.7246C23.9873,23.5635,23.5469,24.0039,23.0049,24.0039z M12.6289,23.0039h10.3584
		v-1.707c-1.4541-1.4062-5.0107-2.958-6.8398-3.668c0.165,0.2842,0.3008,0.4707,0.377,0.5234
		c0.2129,0.0781,0.3291,0.2822,0.3076,0.5078c-0.0205,0.2256-0.207,0.4004-0.4297,0.4385
		C16.2822,19.1201,13.5615,19.6436,12.6289,23.0039z"/>
	<path d="M9.4199,15.5352c-0.1973,0-0.3965-0.125-0.4897-0.3076c-0.0737-0.1455-0.0947-0.3271-0.0903-0.8477
		c-0.8403-0.8945-1.4175-2.0967-1.5942-3.3125c-0.4316-0.1509-0.7559-0.5161-0.8647-1.0015C6.2656,9.5532,6.417,9.0576,6.7642,8.728
		c-0.1235-0.4849-0.186-0.9829-0.186-1.4858c0-0.481,0.0566-0.9556,0.168-1.415C6.625,5.9912,6.4106,6.0708,6.2031,6.0083
		C5.9419,5.9312,5.7905,5.6592,5.8628,5.3965c0.0098-0.0361,0.8174-2.8477,3.4736-3.8936c-0.2441-0.0278-0.4902-0.0264-0.7402,0.022
		C8.3418,1.5737,8.0889,1.4165,8.0205,1.1646S8.0889,0.6504,8.335,0.5625c0.2002-0.0703,4.7803-1.6577,7.1455,1.2583
		c0.7246-0.0859,1.9883,0.1421,2.9336,1.7739c0.1318,0.228,0.0645,0.519-0.1543,0.666c-0.1973,0.1323-0.458,0.1064-0.627-0.0566
		c0.3369,0.6626,0.5527,1.5322,0.3135,2.5708c-0.0312,0.1362-0.1182,0.2534-0.2402,0.3223
		c-0.0537,0.0308-0.1523,0.0796-0.2725,0.1079c0,0.0122,0,0.0249,0,0.0371c0,0.5039-0.0625,1.002-0.1855,1.4858
		c0.3467,0.3301,0.498,0.8257,0.3828,1.3389c-0.1094,0.4873-0.4365,0.8535-0.8652,1.0029c-0.1777,1.2153-0.7549,2.4175-1.5947,3.311
		c0.0029,0.5303-0.0186,0.7021-0.0869,0.8398c-0.123,0.2471-0.4229,0.3477-0.6709,0.2236c-0.2246-0.1123-0.3281-0.3711-0.252-0.6035
		c0.0195-0.1338,0.0107-0.4189,0.0088-0.5674c-0.002-0.1357,0.0508-0.3545,0.1484-0.4502c0.8467-0.833,1.4053-2.0356,1.4932-3.2173
		c0.0195-0.2607,0.2373-0.4624,0.499-0.4624c0.2529,0,0.3252-0.2065,0.3447-0.2954c0.0127-0.0562,0.0615-0.3413-0.2002-0.4648
		c-0.2266-0.1074-0.3389-0.3667-0.2617-0.6055c0.1592-0.4951,0.2402-1.0117,0.2402-1.5356c0-0.479-0.0674-0.9531-0.2002-1.4092
		c-0.0723-0.249,0.0576-0.5117,0.2998-0.606c0.1436-0.0571,0.3037-0.041,0.4326,0.0347c-0.2607-1.0542-1.0781-1.6846-1.125-1.7197
		c-0.1758-0.1328-0.2451-0.3657-0.1689-0.5728c0.0234-0.062,0.0576-0.1172,0.0996-0.1641c0,0-0.001,0-0.002,0
		c-0.1777,0-0.2998,0.0342-0.3359,0.0454c-0.208,0.0669-0.4443-0.0078-0.5703-0.187c-0.8174-1.1699-2.1025-1.5386-3.29-1.583
		c0.0913,0.0215,0.1787,0.0381,0.2598,0.0469c0.2686,0.0288,0.4658,0.2661,0.4453,0.5356
		c-0.0215,0.2705-0.2617,0.4819-0.5229,0.4609C9.7266,2.0298,8.501,2.9502,7.7666,3.8789c0.1924-0.0522,0.3955,0.0151,0.52,0.1704
		c0.1323,0.166,0.146,0.3975,0.0337,0.5771C7.8345,5.4043,7.5781,6.3086,7.5781,7.2422c0,0.5229,0.0811,1.0396,0.2407,1.5356
		c0.0767,0.2393-0.0356,0.4985-0.2627,0.6055C7.2949,9.5068,7.3442,9.7915,7.3564,9.8472c0.02,0.0889,0.0923,0.2964,0.3301,0.2964
		c0.2617,0,0.4941,0.2017,0.5137,0.4629c0.0879,1.1807,0.646,2.3828,1.4927,3.2158c0.0957,0.0938,0.1494,0.2227,0.1494,0.3564
		c-0.0034,0.251-0.0127,0.5527,0.0103,0.6797c0.1255,0.2461,0.0117,0.5039-0.2344,0.6299
		C9.5552,15.5205,9.4878,15.5352,9.4199,15.5352z"/>
</g>
<rect x="0.0005" y="0.0004" fill="none" width="24" height="24"/>
</svg>
