<?xml version="1.0" encoding="utf-8"?>
<!-- Generator: Adobe Illustrator 18.1.0, SVG Export Plug-In . SVG Version: 6.00 Build 0)  -->
<svg version="1.1" id="Layer_1" xmlns="http://www.w3.org/2000/svg" xmlns:xlink="http://www.w3.org/1999/xlink" x="0px" y="0px"
	 width="24px" height="24px" viewBox="0 0 24 24" enable-background="new 0 0 24 24" xml:space="preserve">
<g>
	<path d="M11.7632,21.5596c-0.3257,0-0.6753-0.1221-1.0693-0.375L5.084,17H1.0952c-0.6294,0-1.104-0.4521-1.104-1.0518v-7.853
		C-0.0088,7.4912,0.4863,7,1.0952,7h3.8789l5.6948-4.1611c1.4375-0.9263,2.2705,0.0615,2.3213,1.0088l0.001,16.3057
		C12.9541,20.8447,12.5537,21.5596,11.7632,21.5596z M1.0952,8c-0.0518,0-0.104,0.0327-0.104,0.0952v7.853
		C0.9912,15.9951,1.064,16,1.0952,16H5.25c0.1079,0,0.2129,0.0352,0.2988,0.0996l5.7139,4.2637
		c0.2769,0.1758,0.4434,0.1963,0.5005,0.1963c0.1836,0,0.2285-0.4326,0.229-0.4375L11.9912,3.876l0,0
		c-0.002,0-0.0508-0.4268-0.2349-0.4268c-0.0566,0-0.2207,0.021-0.5225,0.2144L5.4321,7.9038C5.3467,7.9663,5.2432,8,5.1372,8
		H1.0952z"/>
	<path d="M22.4727,15.9727c-0.1279,0-0.2559-0.0488-0.3535-0.1465l-6.917-6.9175c-0.1953-0.1953-0.1953-0.5117,0-0.707
		s0.5117-0.1953,0.707,0l6.917,6.9175c0.1953,0.1953,0.1953,0.5117,0,0.707C22.7285,15.9238,22.6006,15.9727,22.4727,15.9727z"/>
	<path d="M15.5557,15.9727c-0.1279,0-0.2559-0.0488-0.3535-0.1465c-0.1953-0.1953-0.1953-0.5117,0-0.707l6.917-6.9175
		c0.1953-0.1953,0.5117-0.1953,0.707,0s0.1953,0.5117,0,0.707l-6.917,6.9175C15.8115,15.9238,15.6836,15.9727,15.5557,15.9727z"/>
</g>
<rect x="-0.0136" y="0.0002" fill="none" width="24" height="24"/>
</svg>
