<?xml version="1.0" encoding="utf-8"?>
<!-- Generator: Adobe Illustrator 18.1.0, SVG Export Plug-In . SVG Version: 6.00 Build 0)  -->
<svg version="1.1" id="Layer_1" xmlns="http://www.w3.org/2000/svg" xmlns:xlink="http://www.w3.org/1999/xlink" x="0px" y="0px"
	 width="24px" height="24px" viewBox="0 0 24 24" enable-background="new 0 0 24 24" xml:space="preserve">
<g>
	<path d="M22.9863,24h-22c-0.2764,0-0.5-0.2236-0.5-0.5S0.71,23,0.9863,23h22c0.2764,0,0.5,0.2236,0.5,0.5S23.2627,24,22.9863,24z"
		/>
	<path d="M8.4863,9h-2c-0.2764,0-0.5-0.2236-0.5-0.5v-5c0-0.2764,0.2236-0.5,0.5-0.5h2c0.2764,0,0.5,0.2236,0.5,0.5v5
		C8.9863,8.7764,8.7627,9,8.4863,9z M6.9863,8h1V4h-1V8z"/>
	<path d="M13.4863,9h-2c-0.2764,0-0.5-0.2236-0.5-0.5v-5c0-0.2764,0.2236-0.5,0.5-0.5h2c0.2764,0,0.5,0.2236,0.5,0.5v5
		C13.9863,8.7764,13.7627,9,13.4863,9z M11.9863,8h1V4h-1V8z"/>
	<path d="M9.4922,15.9619c-0.2764,0-0.5-0.2236-0.5-0.5v-4.9048c0-0.2764,0.2236-0.5,0.5-0.5s0.5,0.2236,0.5,0.5v4.9048
		C9.9922,15.7383,9.7686,15.9619,9.4922,15.9619z"/>
	<path d="M5.4697,21.0098c-0.1401,0-0.2598-0.0596-0.3599-0.1504c-0.0898-0.0898-0.1401-0.2197-0.1401-0.3496
		c0-0.1396,0.0503-0.2695,0.1499-0.3604c0.1904-0.1895,0.5103-0.1797,0.7002,0c0.1001,0.1006,0.1499,0.2207,0.1499,0.3604
		c0,0.1299-0.0498,0.2598-0.1499,0.3496C5.73,20.9502,5.5996,21.0098,5.4697,21.0098z"/>
	<path d="M18.46,21.0098c-0.1406,0-0.2705-0.0596-0.3604-0.1504c-0.0898-0.0996-0.1396-0.2295-0.1396-0.3496
		c0-0.1396,0.0498-0.2598,0.1396-0.3496c0.2002-0.2002,0.5205-0.1904,0.71-0.0107c0.0898,0.1006,0.1504,0.2305,0.1504,0.3604
		c0,0.1201-0.0605,0.25-0.1504,0.3398C18.7197,20.9502,18.5898,21.0098,18.46,21.0098z"/>
	<g>
		<path d="M14.4629,21.0059H9.5107c-0.2764,0-0.5-0.2236-0.5-0.5s0.2236-0.5,0.5-0.5h4.9521c0.2764,0,0.5,0.2236,0.5,0.5
			S14.7393,21.0059,14.4629,21.0059z"/>
		<g>
			<path d="M5.4688,22.9541c-1.3496,0-2.4478-1.0986-2.4478-2.4482s1.0981-2.4473,2.4478-2.4473
				c1.3501,0,2.4482,1.0977,2.4482,2.4473S6.8188,22.9541,5.4688,22.9541z M5.4688,19.0586c-0.7983,0-1.4478,0.6494-1.4478,1.4473
				c0,0.7988,0.6494,1.4482,1.4478,1.4482s1.4482-0.6494,1.4482-1.4482C6.917,19.708,6.2671,19.0586,5.4688,19.0586z"/>
			<path d="M18.457,22.9541c-1.3496,0-2.4482-1.0986-2.4482-2.4482s1.0986-2.4473,2.4482-2.4473s2.4482,1.0977,2.4482,2.4473
				S19.8066,22.9541,18.457,22.9541z M18.457,19.0586c-0.7988,0-1.4482,0.6494-1.4482,1.4473c0,0.7988,0.6494,1.4482,1.4482,1.4482
				s1.4482-0.6494,1.4482-1.4482C19.9053,19.708,19.2559,19.0586,18.457,19.0586z"/>
			<path d="M23.2881,21.0059h-0.8662c-0.2764,0-0.5-0.2236-0.5-0.5s0.2236-0.5,0.5-0.5h0.3418
				c-0.3008-3.7568-3.1992-3.9316-4.7861-4.0273l-0.2842-0.0176c-0.6182-0.043-0.7529-0.5752-0.8037-0.7754
				c-0.3223-1.2471-1.5273-4.1436-5.7349-4.1436c-0.0161,0-0.0312,0-0.0474,0l-0.2539,0.0005c-0.3535,0-0.9531,0-1.0381,0.0029
				c-5.0503,0.1479-5.8296,2.9263-5.9302,4.1138c-0.0356,0.4131-0.3354,0.7568-0.7642,0.876
				c-1.6113,0.4531-1.9233,2.9092-1.9824,3.9707h0.186c0.2764,0,0.5,0.2236,0.5,0.5s-0.2236,0.5-0.5,0.5H0.6255
				c-0.2715,0-0.4937-0.2168-0.5-0.4883c-0.0044-0.1895-0.0771-4.6582,2.7261-5.4453c0.1333-1.1328,0.915-4.8496,6.9346-5.0269
				c0.0869-0.0024,0.7031-0.0029,1.0664-0.0029l0.2505-0.0005c0.0171,0,0.0352,0,0.0522,0c5.0449,0,6.4053,3.7441,6.7031,4.8955
				c0.0029,0.0117,0.0059,0.0225,0.0078,0.0322l0.1709,0.0107c1.5488,0.0938,5.6631,0.3418,5.751,5.5166
				c0.002,0.1348-0.0498,0.2637-0.1436,0.3594S23.4219,21.0059,23.2881,21.0059z"/>
		</g>
	</g>
	<path d="M17.7295,15.9619H3.1738c-0.2764,0-0.5-0.2236-0.5-0.5s0.2236-0.5,0.5-0.5h14.5557c0.2764,0,0.5,0.2236,0.5,0.5
		S18.0059,15.9619,17.7295,15.9619z"/>
	<path d="M13.4863,9h-7c-0.2764,0-0.5-0.2236-0.5-0.5v-5c0-0.2764,0.2236-0.5,0.5-0.5h1.5V2.5c0-0.2764,0.2236-0.5,0.5-0.5h3
		c0.2764,0,0.5,0.2236,0.5,0.5V3h1.5c0.2764,0,0.5,0.2236,0.5,0.5v5C13.9863,8.7764,13.7627,9,13.4863,9z M6.9863,8h6V4h-1.5
		c-0.2764,0-0.5-0.2236-0.5-0.5V3h-2v0.5c0,0.2764-0.2236,0.5-0.5,0.5h-1.5V8z"/>
</g>
<rect x="-0.0136" fill="none" width="24" height="24"/>
</svg>
