<?xml version="1.0" encoding="utf-8"?>
<!-- Generator: Adobe Illustrator 18.1.0, SVG Export Plug-In . SVG Version: 6.00 Build 0)  -->
<svg version="1.1" id="Layer_1" xmlns="http://www.w3.org/2000/svg" xmlns:xlink="http://www.w3.org/1999/xlink" x="0px" y="0px"
	 width="24px" height="24px" viewBox="0 0 24 24" enable-background="new 0 0 24 24" xml:space="preserve">
<g>
	<path d="M20.5098,4.4917h-3.5371c-0.2764,0-0.5-0.2236-0.5-0.5V0.5c0-0.2764,0.2236-0.5,0.5-0.5s0.5,0.2236,0.5,0.5v2.9917h3.0371
		c0.2764,0,0.5,0.2236,0.5,0.5S20.7861,4.4917,20.5098,4.4917z"/>
	<path d="M19.8096,21.0752H6.1748c-0.6592,0-1.1958-0.5371-1.1958-1.1982V1.2031C4.979,0.5396,5.5156,0,6.1748,0h10.7979
		c0.3936,0,0.6074,0.209,0.749,0.3477l2.9277,2.8525c0.2295,0.2227,0.3604,0.5332,0.3604,0.8521V19.877
		C21.0098,20.5381,20.4717,21.0752,19.8096,21.0752z M16.9385,0.9858L6.1748,1C6.0688,1,5.979,1.0933,5.979,1.2031V19.877
		c0,0.1094,0.0879,0.1982,0.1958,0.1982h13.6348c0.1084,0,0.2002-0.0908,0.2002-0.1982V4.0522c0-0.0498-0.0215-0.1006-0.0576-0.1362
		l-2.9287-2.853C16.9912,1.0322,16.9668,1.0044,16.9385,0.9858z"/>
	<path d="M17,17H9c-0.2764,0-0.5-0.2236-0.5-0.5S8.7236,16,9,16h8c0.2764,0,0.5,0.2236,0.5,0.5S17.2764,17,17,17z"/>
	<path d="M17,14H9c-0.2764,0-0.5-0.2236-0.5-0.5S8.7236,13,9,13h8c0.2764,0,0.5,0.2236,0.5,0.5S17.2764,14,17,14z"/>
	<path d="M17,11H9c-0.2764,0-0.5-0.2236-0.5-0.5S8.7236,10,9,10h8c0.2764,0,0.5,0.2236,0.5,0.5S17.2764,11,17,11z"/>
	<path d="M14,8H9C8.7236,8,8.5,7.7764,8.5,7.5S8.7236,7,9,7h5c0.2764,0,0.5,0.2236,0.5,0.5S14.2764,8,14,8z"/>
	<path d="M17.8145,24.0254H3.2192c-0.6758,0-1.2256-0.5498-1.2256-1.2266V4.2056c0-0.6753,0.5498-1.2251,1.2256-1.2251
		c0.2764,0,0.5,0.2236,0.5,0.5s-0.2236,0.5-0.5,0.5c-0.1245,0-0.2256,0.1011-0.2256,0.2251v18.5933
		c0,0.125,0.1011,0.2266,0.2256,0.2266h14.5952c0.124,0,0.2256-0.1016,0.2256-0.2266c0-0.2764,0.2236-0.5,0.5-0.5
		s0.5,0.2236,0.5,0.5C19.04,23.4756,18.4902,24.0254,17.8145,24.0254z"/>
</g>
<rect y="0.0001" fill="none" width="24" height="24"/>
</svg>
