<?xml version="1.0" encoding="utf-8"?>
<!-- Generator: Adobe Illustrator 18.1.0, SVG Export Plug-In . SVG Version: 6.00 Build 0)  -->
<svg version="1.1" id="Layer_1" xmlns="http://www.w3.org/2000/svg" xmlns:xlink="http://www.w3.org/1999/xlink" x="0px" y="0px"
	 width="24px" height="24px" viewBox="0 0 24 24" enable-background="new 0 0 24 24" xml:space="preserve">
<g>
	<path d="M11.999,23.8154c-0.2764,0-0.5-0.2236-0.5-0.5V6.2764c0-0.2764,0.2236-0.5,0.5-0.5s0.5,0.2236,0.5,0.5v17.0391
		C12.499,23.5918,12.2754,23.8154,11.999,23.8154z"/>
	<path d="M11.999,11.3496c-0.1377,0-0.2749-0.0566-0.3735-0.1675c-0.1836-0.2065-0.165-0.5225,0.041-0.7061l1.8521-1.647
		c0.2041-0.1846,0.5215-0.165,0.7061,0.041c0.1826,0.2065,0.165,0.5225-0.042,0.7061l-1.8516,1.647
		C12.2363,11.3081,12.1172,11.3496,11.999,11.3496z"/>
	<path d="M11.999,14.9033c-0.1377,0-0.2749-0.0566-0.3735-0.168c-0.1836-0.2061-0.165-0.5225,0.0415-0.7061l2.7334-2.4302
		c0.2041-0.1841,0.5215-0.165,0.7061,0.0415c0.1836,0.2061,0.165,0.5225-0.042,0.7061l-2.7334,2.4307
		C12.2363,14.8613,12.1172,14.9033,11.999,14.9033z"/>
	<path d="M11.999,9.4678c-0.1182,0-0.2373-0.0415-0.3325-0.1265l-1.6592-1.4761c-0.2061-0.1836-0.2246-0.4995-0.041-0.7061
		c0.1826-0.2065,0.499-0.2251,0.7061-0.041l1.6587,1.4761c0.207,0.1836,0.2246,0.4995,0.042,0.7061
		C12.2734,9.4111,12.1367,9.4678,11.999,9.4678z"/>
	<path d="M11.999,13.0215c-0.1182,0-0.2368-0.042-0.332-0.126l-2.4556-2.1841c-0.2065-0.1836-0.2251-0.4995-0.0415-0.7056
		c0.1826-0.207,0.4995-0.2256,0.7056-0.0415l2.4556,2.1831c0.207,0.1836,0.2256,0.5,0.042,0.7061
		C12.2734,12.9648,12.1367,13.0215,11.999,13.0215z"/>
	<path d="M11.999,16.5762c-0.1187,0-0.2373-0.042-0.3325-0.126l-2.9272-2.6045c-0.2061-0.1836-0.2246-0.5-0.041-0.7061
		c0.1836-0.207,0.5-0.2227,0.7061-0.042l2.9268,2.6045c0.207,0.1836,0.2246,0.5,0.042,0.7061
		C12.2734,16.5195,12.1367,16.5762,11.999,16.5762z"/>
	<path d="M11.999,18.9141c-1.1318,0-2.2676-0.2617-3.2842-0.7578c-2.1294-1.0381-4.7568-3.0703-2.9985-8.7124
		c1.7651-5.6602,4.4326-8.0752,5.4976-8.8511c0.4604-0.334,1.1094-0.335,1.5703,0c1.0654,0.7754,3.7324,3.1904,5.498,8.8511
		c1.7578,5.6421-0.8691,7.6743-2.999,8.7124C14.2666,18.6523,13.1309,18.9141,11.999,18.9141z M11.999,1.3364
		c-0.0703,0-0.1382,0.0225-0.1963,0.0649c-0.9849,0.7168-3.4556,2.9653-5.1313,8.3403C5.168,14.5654,7.082,16.248,9.1528,17.2578
		c1.7627,0.8564,3.9282,0.8584,5.6929,0c2.0703-1.0098,3.9854-2.6924,2.4814-7.5161c-1.6768-5.376-4.1475-7.6235-5.1309-8.3403
		C12.1377,1.3589,12.0693,1.3364,11.999,1.3364z"/>
</g>
<rect x="-0.0008" y="-0.0147" fill="none" width="24" height="24"/>
</svg>
