<?xml version="1.0" encoding="utf-8"?>
<!-- Generator: Adobe Illustrator 18.1.0, SVG Export Plug-In . SVG Version: 6.00 Build 0)  -->
<svg version="1.1" id="Layer_1" xmlns="http://www.w3.org/2000/svg" xmlns:xlink="http://www.w3.org/1999/xlink" x="0px" y="0px"
	 width="24px" height="24px" viewBox="0 0 24 24" enable-background="new 0 0 24 24" xml:space="preserve">
<g>
	<path d="M12.5078,9.0596c-0.2744,0-0.498-0.2217-0.5-0.4966c-0.002-0.2852-0.0029-0.3813-0.9141-0.9243
		C9.4092,6.6348,7.1025,5.2603,8.48,2.7954l1.2349-2.0713c0.1411-0.2373,0.4478-0.3154,0.6855-0.1738
		c0.2373,0.1416,0.3149,0.4487,0.1738,0.6855l-1.228,2.0596c-0.7705,1.3789,0.0342,2.1577,2.2593,3.4839
		c0.8652,0.5161,1.3965,0.8779,1.4023,1.7769c0.002,0.2764-0.2207,0.5015-0.4971,0.5034
		C12.5098,9.0596,12.5088,9.0596,12.5078,9.0596z"/>
	<path d="M20.2061,23.0312c-1.9473,0-5.2393-2.2412-6.5225-4.9258h-3.2354C9.166,20.79,5.874,23.0312,3.9263,23.0312
		c-3.834,0-3.834-5.0322-3.834-7.1807c0-3.1953,2.5181-5.7949,5.6133-5.7949l12.6997,0.0005h0.001
		c3.1162,0,5.6338,2.5991,5.6338,5.7944C24.04,17.999,24.04,23.0312,20.2061,23.0312z M10.124,17.1055h3.8838
		c0.2021,0,0.3848,0.1221,0.4619,0.3086c1.0557,2.5488,4.2266,4.6172,5.7363,4.6172c2.4971,0,2.834-3.124,2.834-6.1807
		c0-2.6436-2.0693-4.7949-4.6133-4.7949L5.7275,11.0562c0,0-0.0005,0-0.001,0c-2.5654,0-4.6343,2.1509-4.6343,4.7944
		c0,3.0566,0.3369,6.1807,2.834,6.1807c1.5103,0,4.6802-2.0684,5.7358-4.6172C9.7393,17.2275,9.9219,17.1055,10.124,17.1055z"/>
	<path d="M5.5317,17.9082c-1.3394,0-2.4292-1.0898-2.4292-2.4287c0-1.3398,1.0898-2.4297,2.4292-2.4297s2.4287,1.0898,2.4287,2.4297
		C7.9604,16.8184,6.8711,17.9082,5.5317,17.9082z M5.5317,14.0498c-0.7881,0-1.4292,0.6416-1.4292,1.4297
		s0.6411,1.4287,1.4292,1.4287c0.7876,0,1.4287-0.6406,1.4287-1.4287S6.3193,14.0498,5.5317,14.0498z"/>
	<path d="M18.4795,17.9082c-0.2764,0-0.5-0.2236-0.5-0.5v-3.8584c0-0.2764,0.2236-0.5,0.5-0.5s0.5,0.2236,0.5,0.5v3.8584
		C18.9795,17.6846,18.7559,17.9082,18.4795,17.9082z"/>
	<path d="M20.4082,15.9795h-3.8584c-0.2764,0-0.5-0.2236-0.5-0.5s0.2236-0.5,0.5-0.5h3.8584c0.2764,0,0.5,0.2236,0.5,0.5
		S20.6846,15.9795,20.4082,15.9795z"/>
</g>
<rect x="0.0142" y="0.0354" fill="none" width="24" height="24"/>
</svg>
