<?xml version="1.0" encoding="utf-8"?>
<!-- Generator: Adobe Illustrator 18.1.0, SVG Export Plug-In . SVG Version: 6.00 Build 0)  -->
<svg version="1.1" id="Layer_1" xmlns="http://www.w3.org/2000/svg" xmlns:xlink="http://www.w3.org/1999/xlink" x="0px" y="0px"
	 width="24px" height="24px" viewBox="0 0 24 24" enable-background="new 0 0 24 24" xml:space="preserve">
<g>
	<path d="M7.5005,24.001H3.5c-0.2764,0-0.5-0.2236-0.5-0.5v-20c0-0.2764,0.2236-0.5,0.5-0.5h2c0.2764,0,0.5,0.2236,0.5,0.5
		s-0.2236,0.5-0.5,0.5H4v19h3.5005c0.2764,0,0.5,0.2236,0.5,0.5S7.7769,24.001,7.5005,24.001z"/>
	<path d="M19.5,9.0156c-0.2764,0-0.5-0.2236-0.5-0.5V4.001h-1.5c-0.2764,0-0.5-0.2236-0.5-0.5s0.2236-0.5,0.5-0.5h2
		c0.2764,0,0.5,0.2236,0.5,0.5v5.0146C20,8.792,19.7764,9.0156,19.5,9.0156z"/>
	<path d="M21.5,24.001h-12c-0.2764,0-0.5-0.2236-0.5-0.5v-13c0-0.2764,0.2236-0.5,0.5-0.5h9.6943
		c0.1357,0,0.2646,0.0547,0.3594,0.1523l2.3057,2.3809C21.9492,12.627,22,12.752,22,12.8818V23.501
		C22,23.7773,21.7764,24.001,21.5,24.001z M10,23.001h11v-9.917l-2.0176-2.083H10V23.001z"/>
	<path d="M18.5,21.001h-6.0195c-0.2764,0-0.5-0.2236-0.5-0.5s0.2236-0.5,0.5-0.5H18.5c0.2764,0,0.5,0.2236,0.5,0.5
		S18.7764,21.001,18.5,21.001z"/>
	<path d="M18.5,18.001h-6.0195c-0.2764,0-0.5-0.2236-0.5-0.5s0.2236-0.5,0.5-0.5H18.5c0.2764,0,0.5,0.2236,0.5,0.5
		S18.7764,18.001,18.5,18.001z"/>
	<path d="M18.5,15.001h-6.0195c-0.2764,0-0.5-0.2236-0.5-0.5s0.2236-0.5,0.5-0.5H18.5c0.2764,0,0.5,0.2236,0.5,0.5
		S18.7764,15.001,18.5,15.001z"/>
	<path d="M11.5498,2.9897c-0.1401,0-0.27-0.0498-0.3599-0.1499c-0.0903-0.0801-0.1401-0.21-0.1401-0.3501
		c0-0.1299,0.0498-0.2598,0.1401-0.3501c0.1899-0.1797,0.5098-0.1899,0.71,0c0.1001,0.1001,0.1499,0.23,0.1499,0.3501
		c0,0.1401-0.0601,0.27-0.1499,0.3599C11.8101,2.9399,11.6797,2.9897,11.5498,2.9897z"/>
	<path d="M14,6.001H9c-1.103,0-2-0.897-2-2s0.897-2,2-2V1.8413c0-1.0532,1.1616-1.8403,2.2007-1.8403h0.6938
		C12.8906,0.001,14,0.7568,14,1.8413V2.001c1.1025,0,2,0.897,2,2S15.1025,6.001,14,6.001z M9,3.001c-0.5513,0-1,0.4487-1,1
		s0.4487,1,1,1h5c0.5518,0,1-0.4487,1-1s-0.4482-1-1-1h-0.5c-0.2764,0-0.5-0.2236-0.5-0.5V1.8413
		c0-0.4653-0.6045-0.8403-1.1055-0.8403h-0.6938C10.6763,1.001,10,1.4087,10,1.8413V2.501c0,0.2764-0.2236,0.5-0.5,0.5H9z"/>
</g>
<rect y="0.0011" fill="none" width="24" height="24"/>
</svg>
