<?xml version="1.0" encoding="utf-8"?>
<!-- Generator: Adobe Illustrator 18.1.0, SVG Export Plug-In . SVG Version: 6.00 Build 0)  -->
<svg version="1.1" id="Layer_1" xmlns="http://www.w3.org/2000/svg" xmlns:xlink="http://www.w3.org/1999/xlink" x="0px" y="0px"
	 width="24px" height="24px" viewBox="0 0 24 24" enable-background="new 0 0 24 24" xml:space="preserve">
<g>
	<path d="M5.5054,13.0586c-0.1294,0-0.2588-0.0498-0.3569-0.1494l-1.937-1.9746l-1.9912,1.9531
		c-0.1968,0.1934-0.5137,0.1904-0.707-0.0059c-0.1934-0.1973-0.1904-0.5137,0.0068-0.707l2.3481-2.3042
		c0.1958-0.1934,0.5127-0.1919,0.707,0.0068l2.2871,2.3306c0.1934,0.1973,0.1904,0.5137-0.0068,0.707
		C5.7583,13.0107,5.6318,13.0586,5.5054,13.0586z"/>
	<path d="M8.7158,21.0918c-0.0649,0-0.1309-0.0127-0.1943-0.0391c-4.1606-1.7559-6.5977-6.3447-5.7959-10.9116
		c0.0483-0.2725,0.3062-0.4502,0.5791-0.4062c0.272,0.0479,0.4536,0.3071,0.4062,0.5791c-0.7227,4.1128,1.4644,8.2407,5.1992,9.8169
		c0.2544,0.1074,0.3735,0.4014,0.2661,0.6553C9.0957,20.9775,8.9106,21.0918,8.7158,21.0918z"/>
	<path d="M18.6104,22.2666c-0.0439,0-0.0879-0.0059-0.1328-0.0176l-3.1719-0.873c-0.2656-0.0732-0.4229-0.3486-0.3496-0.6152
		l0.8662-3.1484c0.0732-0.2666,0.3467-0.4209,0.6152-0.3496c0.2656,0.0732,0.4229,0.3486,0.3496,0.6152l-0.7344,2.666l2.6904,0.7402
		c0.2666,0.0732,0.4229,0.3486,0.3496,0.6152C19.0312,22.1211,18.8301,22.2666,18.6104,22.2666z"/>
	<path d="M15.4385,21.3936c-0.2031,0-0.3945-0.125-0.4697-0.3271c-0.0947-0.2598,0.0381-0.5469,0.2969-0.6426
		c3.918-1.4414,6.3887-5.4062,5.875-9.4277c-0.0352-0.2739,0.1592-0.5244,0.4326-0.5596c0.2695-0.0308,0.5244,0.1582,0.5596,0.4326
		c0.5723,4.4795-2.1709,8.8926-6.5215,10.4941C15.5537,21.3838,15.4961,21.3936,15.4385,21.3936z"/>
	<path d="M15.1611,6.082c-0.2197,0-0.4219-0.146-0.4824-0.3682c-0.0723-0.2666,0.084-0.5415,0.3506-0.6143l2.668-0.728
		l-0.7344-2.6914c-0.0723-0.2666,0.084-0.5415,0.3506-0.6143c0.2695-0.0747,0.542,0.085,0.6143,0.3506l0.8662,3.1738
		c0.0723,0.2666-0.084,0.5415-0.3506,0.6143L15.293,6.0645C15.249,6.0767,15.2041,6.082,15.1611,6.082z"/>
	<path d="M18.3115,5.2222c-0.1113,0-0.2227-0.0366-0.3154-0.1123c-3.2393-2.6348-7.9092-2.7402-11.106-0.2476
		C6.6709,5.0303,6.3569,4.9922,6.188,4.7754C6.0186,4.5571,6.0571,4.2432,6.2749,4.0732c3.5596-2.7749,8.7554-2.6675,12.3521,0.2612
		c0.2148,0.1743,0.2471,0.4893,0.0723,0.7031C18.6006,5.1592,18.4561,5.2222,18.3115,5.2222z"/>
</g>
<rect y="0.001" fill="none" width="24" height="24"/>
</svg>
