<?xml version="1.0" encoding="utf-8"?>
<!-- Generator: Adobe Illustrator 18.1.0, SVG Export Plug-In . SVG Version: 6.00 Build 0)  -->
<svg version="1.1" id="Layer_1" xmlns="http://www.w3.org/2000/svg" xmlns:xlink="http://www.w3.org/1999/xlink" x="0px" y="0px"
	 width="24px" height="24px" viewBox="0 0 24 24" enable-background="new 0 0 24 24" xml:space="preserve">
<g>
	<path d="M6.0117,13.8936c-0.9106,0-1.6519-0.7471-1.6519-1.665c0-0.9175,0.7412-1.6636,1.6519-1.6636s1.6514,0.7461,1.6514,1.6636
		C7.6631,13.1465,6.9224,13.8936,6.0117,13.8936z M6.0117,11.5649c-0.3594,0-0.6519,0.2979-0.6519,0.6636
		c0,0.3662,0.2925,0.665,0.6519,0.665s0.6514-0.2988,0.6514-0.665C6.6631,11.8628,6.3711,11.5649,6.0117,11.5649z"/>
	<path d="M5.7388,18.9658c-0.1025,0-0.2056-0.0312-0.2944-0.0967c-0.2231-0.1631-0.2715-0.4756-0.1089-0.6982l3.5532-4.8584
		c0.0942-0.1289,0.2432-0.2041,0.4023-0.2051c0.1377-0.0293,0.3086,0.0752,0.4033,0.2021l1.1094,1.498l1.5938-2.5088
		c0.0889-0.1396,0.2412-0.2266,0.4072-0.2314c0.1631-0.0068,0.3232,0.0732,0.4199,0.207l2.6182,3.6279
		c0.1621,0.2246,0.1113,0.5371-0.1123,0.6982c-0.2236,0.1621-0.5371,0.1113-0.6982-0.1123l-2.1865-3.0303l-1.5884,2.501
		c-0.0884,0.1387-0.2393,0.2256-0.4038,0.2314c-0.1831-0.0098-0.3218-0.0703-0.4199-0.2021l-1.1387-1.5371l-3.1519,4.3096
		C6.0449,18.8945,5.8931,18.9658,5.7388,18.9658z"/>
	<path d="M19.5332,12.5654c-1.1172,0-2.0254-0.9087-2.0254-2.0259s0.9082-2.0259,2.0254-2.0259s2.0254,0.9087,2.0254,2.0259
		S20.6504,12.5654,19.5332,12.5654z M19.5332,9.5137c-0.5654,0-1.0254,0.4604-1.0254,1.0259s0.46,1.0259,1.0254,1.0259
		s1.0254-0.4604,1.0254-1.0259S20.0986,9.5137,19.5332,9.5137z"/>
	<path d="M15.4893,19.0029h-13c-0.2764,0-0.5-0.2236-0.5-0.5v-10c0-0.2764,0.2236-0.5,0.5-0.5h13c0.2764,0,0.5,0.2236,0.5,0.5v10
		C15.9893,18.7793,15.7656,19.0029,15.4893,19.0029z M2.9893,18.0029h12v-9h-12V18.0029z"/>
	<path d="M20.4443,5.0029h-2.0029c-0.2764,0-0.5-0.2236-0.5-0.5s0.2236-0.5,0.5-0.5h2.0029c0.2764,0,0.5,0.2236,0.5,0.5
		S20.7207,5.0029,20.4443,5.0029z"/>
	<path d="M12.3896,6.0029h-1.9321c-0.2764,0-0.5-0.2236-0.5-0.5s0.2236-0.5,0.5-0.5h1.9321c0.2764,0,0.5,0.2236,0.5,0.5
		S12.666,6.0029,12.3896,6.0029z"/>
	<path d="M18.4414,15.0029h-0.9043c-0.2764,0-0.5-0.2236-0.5-0.5s0.2236-0.5,0.5-0.5h0.9043c0.2764,0,0.5,0.2236,0.5,0.5
		S18.7178,15.0029,18.4414,15.0029z"/>
	<path d="M18.4414,17.0029h-0.9043c-0.2764,0-0.5-0.2236-0.5-0.5s0.2236-0.5,0.5-0.5h0.9043c0.2764,0,0.5,0.2236,0.5,0.5
		S18.7178,17.0029,18.4414,17.0029z"/>
	<path d="M21.4414,15.0029h-0.9043c-0.2764,0-0.5-0.2236-0.5-0.5s0.2236-0.5,0.5-0.5h0.9043c0.2764,0,0.5,0.2236,0.5,0.5
		S21.7178,15.0029,21.4414,15.0029z"/>
	<path d="M21.4414,17.0029h-0.9043c-0.2764,0-0.5-0.2236-0.5-0.5s0.2236-0.5,0.5-0.5h0.9043c0.2764,0,0.5,0.2236,0.5,0.5
		S21.7178,17.0029,21.4414,17.0029z"/>
	<path d="M21.1758,21.0029H2.8457c-1.7354,0-2.8564-1.1143-2.8564-2.8379V9.0098c0-2.1123,1.75-2.9551,2.9263-3.0063l5.0737-0.0005
		V4.791c0-0.9858,0.8052-1.7881,1.7944-1.7881h3.4175c0.9863,0,1.7881,0.8022,1.7881,1.7881v1.2119h6.168
		c1.918,0,2.7324,1.6226,2.8125,2.7134l0.0195,9.4712c0,1.8643-1.626,2.6963-2.7178,2.8008
		C21.2295,20.999,21.2188,21.0029,21.1758,21.0029z M2.9375,7.0029c0.002,0.0005-1.9482,0.1074-1.9482,2.0068v9.1553
		c0,1.168,0.6768,1.8379,1.8564,1.8379H21.123c0.251-0.0352,1.8662-0.2852,1.8662-1.8145l-0.0186-9.4346l0,0
		c-0.002,0-0.1562-1.751-1.8135-1.751h-6.668c-0.2764,0-0.5-0.2236-0.5-0.5V4.791c0-0.4346-0.3535-0.7881-0.7881-0.7881H9.7837
		c-0.438,0-0.7944,0.3535-0.7944,0.7881v1.7119c0,0.2764-0.2236,0.5-0.5,0.5H2.9375z"/>
</g>
<rect x="-0.0137" y="0.0002" fill="none" width="24" height="24"/>
</svg>
