<?xml version="1.0" encoding="utf-8"?>
<!-- Generator: Adobe Illustrator 18.1.0, SVG Export Plug-In . SVG Version: 6.00 Build 0)  -->
<svg version="1.1" id="Layer_1" xmlns="http://www.w3.org/2000/svg" xmlns:xlink="http://www.w3.org/1999/xlink" x="0px" y="0px"
	 width="24px" height="24px" viewBox="0 0 24 24" enable-background="new 0 0 24 24" xml:space="preserve">
<g>
	<path d="M13.9346,19.9258c-0.1328,0-0.2607-0.0527-0.3545-0.1475l-4.1011-4.125c-0.1948-0.1963-0.1938-0.5127,0.002-0.707
		c0.1953-0.1953,0.5122-0.1953,0.707,0.002l3.73,3.751l9.0537-10.0044c0.1855-0.2041,0.5039-0.2202,0.707-0.0352
		c0.2041,0.1851,0.2197,0.5015,0.0352,0.7061l-9.4082,10.396c-0.0928,0.1016-0.2227,0.1611-0.3594,0.1641
		C13.9424,19.9258,13.9385,19.9258,13.9346,19.9258z"/>
	<path d="M0.623,11.9893c-0.0635,0-0.1274-0.0117-0.1899-0.0376c-0.2554-0.1045-0.3774-0.3965-0.2725-0.6523l2.4194-5.8984
		c0.1533-0.375,0.7715-0.375,0.9248,0l2.4199,5.8984c0.105,0.2559-0.0171,0.5479-0.2725,0.6523
		C5.3955,12.0576,5.104,11.9346,5,11.6792l-1.9575-4.771l-1.957,4.771C1.0063,11.8726,0.8198,11.9893,0.623,11.9893z"/>
	<path d="M4.6426,9.9912H1.4424c-0.2764,0-0.5-0.2236-0.5-0.5s0.2236-0.5,0.5-0.5h3.2002c0.2764,0,0.5,0.2236,0.5,0.5
		S4.9189,9.9912,4.6426,9.9912z"/>
	<path d="M7.5005,11.9893c-0.2764,0-0.5-0.2236-0.5-0.5V5.5908c0-0.2764,0.2236-0.5,0.5-0.5h2.0601
		c1.7637,0.0459,2.5576,0.9902,2.5684,1.9062c0.0059,0.4854-0.2188,0.998-0.6577,1.3882c0.6099,0.3691,0.8989,0.9731,0.9048,1.5405
		c0.0098,0.9604-0.7651,1.9736-2.2661,2.0532l-2.5103,0.0005C7.5674,11.9858,7.5342,11.9893,7.5005,11.9893z M8.0005,10.9795h2.083
		c0.8867-0.0474,1.2974-0.5742,1.2925-1.043c-0.0044-0.3984-0.3247-0.8735-1.2139-0.9019L9.7275,9.0352c-0.0098,0-0.0195,0-0.0293,0
		H8.0005V10.9795z M8.0005,8.0352h1.6997c0.9355-0.0503,1.4346-0.5654,1.4292-1.0269c-0.0049-0.4365-0.4961-0.8892-1.582-0.9175
		H8.0005V8.0352z"/>
	<path d="M16.4307,11.9692c-1.8135,0-3.2881-1.5449-3.2881-3.4443c0-1.8989,1.4746-3.4438,3.2881-3.4438
		c0.8555,0,1.666,0.3433,2.2822,0.9663c0.1943,0.1963,0.1924,0.5127-0.0039,0.707s-0.5127,0.1934-0.707-0.0039
		c-0.4268-0.4316-0.9854-0.6694-1.5713-0.6694c-1.2617,0-2.2881,1.0962-2.2881,2.4438s1.0264,2.4443,2.2881,2.4443
		c0.6113,0,1.1865-0.2554,1.6201-0.7197c0.1895-0.2012,0.5059-0.2119,0.7061-0.0244c0.2021,0.1885,0.2129,0.5049,0.0244,0.707
		C18.1572,11.6011,17.3223,11.9692,16.4307,11.9692z"/>
</g>
<rect y="0.0011" fill="none" width="24" height="24"/>
</svg>
