<?xml version="1.0" encoding="utf-8"?>
<!-- Generator: Adobe Illustrator 18.1.0, SVG Export Plug-In . SVG Version: 6.00 Build 0)  -->
<svg version="1.1" id="Layer_1" xmlns="http://www.w3.org/2000/svg" xmlns:xlink="http://www.w3.org/1999/xlink" x="0px" y="0px"
	 width="24px" height="24px" viewBox="0 0 24 24" enable-background="new 0 0 24 24" xml:space="preserve">
<g>
	<path d="M21.0771,12.5977c-0.1104,0-0.2207-0.0361-0.3125-0.1104l-2.4619-1.9756c-0.2158-0.1729-0.25-0.4878-0.0771-0.7031
		s0.4893-0.248,0.7021-0.0771L21,11.395l1.6641-2.0723c0.1738-0.2148,0.4873-0.2485,0.7031-0.0771
		c0.2148,0.1733,0.249,0.4878,0.0762,0.7031l-1.9766,2.4624C21.3682,12.5342,21.2236,12.5977,21.0771,12.5977z"/>
	<path d="M12.0381,21.5732c-5.2681,0-9.5542-4.2861-9.5542-9.5537c0-5.2686,4.2861-9.5547,9.5542-9.5547
		c5.2598,0,9.5391,4.3213,9.5391,9.6328c0,0.2764-0.2236,0.5-0.5,0.5s-0.5-0.2236-0.5-0.5c0-4.7603-3.8311-8.6328-8.5391-8.6328
		c-4.7168,0-8.5542,3.8374-8.5542,8.5547c0,4.7168,3.8374,8.5537,8.5542,8.5537c0.2764,0,0.5,0.2236,0.5,0.5
		S12.3145,21.5732,12.0381,21.5732z"/>
	<path d="M13.6719,14.1523c-0.1279,0-0.2559-0.0488-0.3535-0.1465l-3.2676-3.2671c-0.1953-0.1953-0.1953-0.5117,0-0.707
		s0.5117-0.1953,0.707,0l3.2676,3.2671c0.1953,0.1953,0.1953,0.5117,0,0.707C13.9277,14.1035,13.7998,14.1523,13.6719,14.1523z"/>
	<path d="M10.4043,14.1523c-0.1279,0-0.2559-0.0488-0.3535-0.1465c-0.1953-0.1953-0.1953-0.5117,0-0.707l3.2676-3.2671
		c0.1953-0.1953,0.5117-0.1953,0.707,0s0.1953,0.5117,0,0.707l-3.2676,3.2671C10.6602,14.1035,10.5322,14.1523,10.4043,14.1523z"/>
</g>
<rect y="0.001" fill="none" width="24" height="24"/>
</svg>
