<?xml version="1.0" encoding="utf-8"?>
<!-- Generator: Adobe Illustrator 18.1.0, SVG Export Plug-In . SVG Version: 6.00 Build 0)  -->
<svg version="1.1" id="Layer_1" xmlns="http://www.w3.org/2000/svg" xmlns:xlink="http://www.w3.org/1999/xlink" x="0px" y="0px"
	 width="24px" height="24px" viewBox="0 0 24 24" enable-background="new 0 0 24 24" xml:space="preserve">
<g>
	<path d="M20.5,21.0342h-17c-0.2764,0-0.5-0.2236-0.5-0.5V3.5347c0-0.2764,0.2236-0.5,0.5-0.5h17c0.2764,0,0.5,0.2236,0.5,0.5
		v16.9995C21,20.8105,20.7764,21.0342,20.5,21.0342z M4,20.0342h16V4.0347H4V20.0342z"/>
	<path d="M12,21.0342c-4.9624,0-9-4.0371-9-9c0-4.9624,4.0376-8.9995,9-8.9995c4.9629,0,9,4.0371,9,8.9995
		C21,16.9971,16.9629,21.0342,12,21.0342z M12,4.0347c-4.4111,0-8,3.5884-8,7.9995s3.5889,8,8,8s8-3.5889,8-8
		S16.4111,4.0347,12,4.0347z"/>
	<path d="M23.418,19.3047c-0.0869,0-0.1748-0.0225-0.2549-0.0693L0.3032,5.6943C0.0659,5.5537-0.0127,5.2471,0.1279,5.0093
		C0.2681,4.772,0.5752,4.6938,0.813,4.834l22.8599,13.54c0.2373,0.1416,0.3164,0.4482,0.1758,0.6855
		C23.7549,19.2168,23.5879,19.3047,23.418,19.3047z"/>
	<path d="M0.5586,19.3047c-0.1709,0-0.3374-0.0879-0.4307-0.2451c-0.1406-0.2373-0.062-0.5439,0.1753-0.6855l22.8599-13.54
		c0.2373-0.1392,0.5439-0.063,0.6855,0.1753c0.1406,0.2378,0.0615,0.5444-0.1758,0.6851L0.813,19.2354
		C0.7329,19.2822,0.645,19.3047,0.5586,19.3047z"/>
</g>
<rect y="0.0344" fill="none" width="24" height="24"/>
</svg>
