<?xml version="1.0" encoding="utf-8"?>
<!-- Generator: Adobe Illustrator 18.1.0, SVG Export Plug-In . SVG Version: 6.00 Build 0)  -->
<svg version="1.1" id="Layer_1" xmlns="http://www.w3.org/2000/svg" xmlns:xlink="http://www.w3.org/1999/xlink" x="0px" y="0px"
	 width="24px" height="24px" viewBox="0 0 24 24" enable-background="new 0 0 24 24" xml:space="preserve">
<g>
	<path d="M21.3154,21h-3.8662c-0.4629,0-0.9141-0.1318-1.3047-0.3828L5.7793,13H2.6387c-1.3413,0-2.4326-1.1216-2.4326-2.5
		S1.2974,8,2.6387,8h3.8667C6.9683,8,7.4194,8.1323,7.811,8.3833L18.1748,16h3.1406c1.3418,0,2.4336,1.1211,2.4336,2.5
		S22.6572,21,21.3154,21z M2.6387,9c-0.7764,0-1.4326,0.687-1.4326,1.5S1.8623,12,2.6387,12h3.3047
		c0.1064,0,0.2104,0.0342,0.2959,0.0967L16.71,19.793C16.9131,19.9219,17.1777,20,17.4492,20h3.8662
		c0.7773,0,1.4336-0.6865,1.4336-1.5S22.0928,17,21.3154,17h-3.3047c-0.1064,0-0.21-0.0342-0.2959-0.0967L7.2451,9.207
		C7.0415,9.0776,6.7764,9,6.5054,9H2.6387z"/>
	<path d="M12.1172,4.6963c-1.0728,0-1.9453-0.8726-1.9453-1.9453s0.8726-1.9458,1.9453-1.9458c1.0732,0,1.9463,0.873,1.9463,1.9458
		S13.1904,4.6963,12.1172,4.6963z M12.1172,1.8052c-0.5215,0-0.9453,0.4243-0.9453,0.9458s0.4238,0.9453,0.9453,0.9453
		s0.9463-0.4238,0.9463-0.9453S12.6387,1.8052,12.1172,1.8052z"/>
	<path d="M15.3818,12.1406c-0.1006,0-0.2012-0.0293-0.2891-0.0918l-1.6211-1.1465c-0.1123-0.0796-0.1875-0.2026-0.2061-0.3398
		l-0.4043-2.9194c0.0068-0.3516-0.0879-0.5996-0.2695-0.7881c-0.1797-0.186-0.4219-0.2881-0.6812-0.2881
		c-0.0034,0-0.0063,0-0.0093,0c-0.4941,0.0044-0.9146,0.4473-0.938,0.9863l-0.0288,0.8726c-0.0088,0.2764-0.228,0.52-0.5161,0.4829
		c-0.2759-0.0088-0.4922-0.2397-0.4829-0.5161l0.0288-0.8774c0.0464-1.085,0.8931-1.9385,1.9272-1.9482
		c0.5312,0.0142,1.0449,0.2056,1.4189,0.5928c0.3691,0.3818,0.5684,0.9053,0.5459,1.4365l0.3691,2.6143l1.4453,1.022
		c0.2256,0.1597,0.2783,0.4717,0.1191,0.6968C15.6924,12.0674,15.5381,12.1406,15.3818,12.1406z"/>
	<path d="M20.3906,11.6875c-0.0928,0-0.1855-0.0254-0.2686-0.0786l-3.7783-2.4097c-0.2334-0.1484-0.3018-0.4575-0.1533-0.6904
		c0.1494-0.2324,0.46-0.2993,0.6904-0.1523l3.7783,2.4097c0.2334,0.1484,0.3018,0.4575,0.1533,0.6904
		C20.7168,11.606,20.5557,11.6875,20.3906,11.6875z"/>
	<path d="M18.7285,12.0557c-0.2295,0-0.4365-0.1592-0.4883-0.3926c-0.0596-0.2695,0.1104-0.5366,0.3799-0.5962l1.1748-0.2598
		l-0.2598-1.1738c-0.0596-0.2695,0.1104-0.5366,0.3809-0.5962c0.2744-0.0576,0.5361,0.1113,0.5957,0.3804l0.3672,1.6621
		c0.0596,0.2695-0.1104,0.5366-0.3799,0.5962l-1.6621,0.3672C18.7998,12.0518,18.7637,12.0557,18.7285,12.0557z"/>
</g>
<rect x="-0.0136" y="0.0002" fill="none" width="24" height="24"/>
</svg>
