<?xml version="1.0" encoding="utf-8"?>
<!-- Generator: Adobe Illustrator 18.1.0, SVG Export Plug-In . SVG Version: 6.00 Build 0)  -->
<svg version="1.1" id="Layer_1" xmlns="http://www.w3.org/2000/svg" xmlns:xlink="http://www.w3.org/1999/xlink" x="0px" y="0px"
	 width="24px" height="24px" viewBox="0 0 24 24" enable-background="new 0 0 24 24" xml:space="preserve">
<g>
	<path d="M15.3281,23.833c-0.6533,0-1.2656-0.2529-1.7256-0.7129L0.791,10.3091c-0.9512-0.9517-0.9507-2.4995,0.0005-3.4507
		l6.0342-6.0342c0.917-0.9185,2.5303-0.9199,3.4507-0.0005l12.8115,12.812c0.459,0.459,0.7129,1.0713,0.7119,1.7246
		c0,0.6533-0.2529,1.2656-0.7119,1.7256l-6.0342,6.0342C16.5938,23.5801,15.9814,23.833,15.3281,23.833z M8.5513,1.1118
		c-0.3867,0-0.748,0.1489-1.0186,0.4194L1.4985,7.5654C0.937,8.127,0.937,9.0405,1.498,9.6021l12.8115,12.811
		c0.541,0.541,1.4961,0.541,2.0371,0l6.0342-6.0342c0.2705-0.2705,0.4189-0.6328,0.4189-1.0186s-0.1484-0.7471-0.4189-1.0176
		L9.5693,1.5308C9.2988,1.2607,8.937,1.1118,8.5513,1.1118z"/>
	<path d="M18.1191,19.4658c-0.7256,0-1.3154-0.5898-1.3154-1.3145s0.5898-1.3145,1.3154-1.3145
		c0.7246,0,1.3145,0.5898,1.3145,1.3145S18.8438,19.4658,18.1191,19.4658z M18.1191,17.8369c-0.1738,0-0.3154,0.1406-0.3154,0.3145
		s0.1416,0.3145,0.3154,0.3145s0.3145-0.1406,0.3145-0.3145S18.293,17.8369,18.1191,17.8369z"/>
	<path d="M12.2139,21.5244c-0.1328,0-0.2598-0.0527-0.3535-0.1465L1.6309,11.1484c-0.0938-0.0938-0.1465-0.2207-0.1465-0.3535
		s0.0527-0.2598,0.1465-0.3535l8.7783-8.7778c0.1953-0.1953,0.5117-0.1953,0.707,0l10.2285,10.229
		c0.1953,0.1953,0.1953,0.5117,0,0.707l-8.7773,8.7783C12.4736,21.4717,12.3467,21.5244,12.2139,21.5244z M2.6914,10.7949
		l9.5225,9.5225l8.0703-8.0713l-9.5215-9.522L2.6914,10.7949z"/>
	<path d="M20.4023,9.0542c-0.0049,0-0.0107,0-0.0166-0.0005c-0.2754-0.0088-0.4922-0.2397-0.4834-0.5161
		c0.041-1.2378-0.416-2.3989-1.2852-3.269c-0.8711-0.8701-2.04-1.3237-3.2705-1.2871c-0.0059,0.0005-0.0117,0.0005-0.0166,0.0005
		c-0.2686,0-0.4912-0.2134-0.5-0.4834c-0.0088-0.2764,0.208-0.5073,0.4834-0.5161c1.5391-0.0649,2.9434,0.5112,4.0107,1.5791
		s1.6279,2.4917,1.5781,4.0093C20.8936,8.8408,20.6709,9.0542,20.4023,9.0542z"/>
	<path d="M23.1602,8.7549c-0.0039,0-0.0068,0-0.0107,0C22.873,8.7485,22.6543,8.52,22.6602,8.2441
		c0.042-1.8984-0.6709-3.6792-2.0068-5.0146c-1.335-1.335-3.1201-2.0547-5.0127-2.0054c-0.2559,0.0122-0.5049-0.2124-0.5107-0.4893
		c-0.0059-0.2759,0.2129-0.5044,0.4893-0.5107c2.1592-0.0498,4.2119,0.7686,5.7412,2.2979
		c1.5303,1.5303,2.3467,3.5703,2.2998,5.7437C23.6543,8.5381,23.4316,8.7549,23.1602,8.7549z"/>
	<path d="M8.3486,20.9404c-1.4478,0-2.7988-0.5576-3.8232-1.582c-1.0679-1.0674-1.6284-2.4912-1.5781-4.0098
		c0.0093-0.2764,0.2588-0.4805,0.5161-0.4834c0.2759,0.0098,0.4922,0.2402,0.4829,0.5166c-0.0405,1.2383,0.416,2.3994,1.2861,3.2695
		c0.8706,0.8711,2.0454,1.332,3.2695,1.2861c0.2651-0.0107,0.5068,0.207,0.5161,0.4834s-0.207,0.5068-0.4829,0.5166
		C8.4727,20.9395,8.4106,20.9404,8.3486,20.9404z"/>
	<path d="M8.0493,23.6973c-2.1055,0-4.0742-0.8125-5.5615-2.2998c-1.5303-1.5303-2.3467-3.5703-2.2993-5.7432
		c0.0059-0.2754,0.2344-0.4648,0.5107-0.4893c0.2764,0.0059,0.4951,0.2354,0.4893,0.5107c-0.042,1.8984,0.6709,3.6787,2.0063,5.0146
		c1.335,1.335,3.1152,2.0449,5.0132,2.0049c0.3086-0.002,0.5049,0.2139,0.5112,0.4893c0.0059,0.2754-0.2129,0.5049-0.4888,0.5107
		C8.1699,23.6963,8.1094,23.6973,8.0493,23.6973z"/>
	<path d="M11.7495,15.2207c-0.2607,0-0.4805-0.2021-0.4985-0.4658c-0.0186-0.2754,0.1895-0.5137,0.4648-0.5332
		c0.6367-0.043,1.415-0.3574,1.7734-0.7148c0.2627-0.2627,0.4199-0.5947,0.4424-0.9355c0.0205-0.3145-0.0781-0.5986-0.2793-0.7993
		c-0.21-0.2119-0.6328-0.417-1.8481,0.2485c-0.6704,0.3506-2.0464,1.0684-3.0356,0.0781c-0.4077-0.4072-0.6099-0.9663-0.5693-1.5737
		c0.0391-0.582,0.2998-1.1416,0.7334-1.5747c0.5835-0.5845,1.4136-0.8491,2.1616-0.6934c0.2705,0.0562,0.4438,0.3213,0.3872,0.5913
		c-0.0566,0.2695-0.3228,0.4438-0.5913,0.3872c-0.4219-0.0859-0.9023,0.0732-1.2505,0.4219
		c-0.2627,0.2622-0.4199,0.5942-0.4424,0.9346c-0.0215,0.3154,0.0776,0.5996,0.2783,0.8003
		c0.2837,0.2837,0.7075,0.3481,1.8569-0.2534c0.4893-0.2671,2.0044-1.0991,3.0269-0.0742c0.4082,0.4072,0.6104,0.9668,0.5703,1.5742
		c-0.0391,0.582-0.2998,1.1416-0.7334,1.5752c-0.5322,0.5312-1.5244,0.9453-2.4121,1.0059
		C11.7725,15.2207,11.7607,15.2207,11.7495,15.2207z"/>
	<path d="M9.2861,9.8032c-0.1279,0-0.2559-0.0488-0.3535-0.1465l-0.623-0.6226c-0.1953-0.1948-0.1953-0.5117,0-0.707
		s0.5117-0.1953,0.707,0l0.623,0.6226c0.1953,0.1948,0.1953,0.5117,0,0.707C9.542,9.7544,9.4141,9.8032,9.2861,9.8032z"/>
	<path d="M14.4648,14.9824c-0.1279,0-0.2559-0.0488-0.3535-0.1465l-0.6221-0.6221c-0.1953-0.1953-0.1953-0.5117,0-0.707
		s0.5117-0.1953,0.707,0l0.6221,0.6221c0.1953,0.1953,0.1953,0.5117,0,0.707C14.7207,14.9336,14.5928,14.9824,14.4648,14.9824z"/>
</g>
<rect x="-0.0136" y="0.0031" fill="none" width="24" height="24"/>
<rect x="-0.0515" y="0.0031" fill="none" width="24" height="24"/>
</svg>
