<?xml version="1.0" encoding="utf-8"?>
<!-- Generator: Adobe Illustrator 18.1.0, SVG Export Plug-In . SVG Version: 6.00 Build 0)  -->
<svg version="1.1" id="Layer_1" xmlns="http://www.w3.org/2000/svg" xmlns:xlink="http://www.w3.org/1999/xlink" x="0px" y="0px"
	 width="24px" height="24px" viewBox="0 0 24 24" enable-background="new 0 0 24 24" xml:space="preserve">
<g>
	<g>
		<path d="M4.5571,11.0596c-0.2764,0-0.5-0.2236-0.5-0.5V7.4404c0-0.2764,0.2236-0.5,0.5-0.5s0.5,0.2236,0.5,0.5v3.1191
			C5.0571,10.8359,4.8335,11.0596,4.5571,11.0596z"/>
		<path d="M5.9072,10.2798c-0.085,0-0.1709-0.0215-0.2495-0.0669L2.9561,8.6533C2.7168,8.5151,2.6348,8.2095,2.7729,7.9702
			s0.4443-0.3213,0.6831-0.1831l2.7017,1.5596C6.397,9.4849,6.479,9.7905,6.3408,10.0298
			C6.248,10.1899,6.0801,10.2798,5.9072,10.2798z"/>
		<path d="M3.2065,10.2798c-0.1729,0-0.3408-0.0894-0.4336-0.25C2.6348,9.7905,2.7168,9.4849,2.9561,9.3467l2.7017-1.5596
			C5.896,7.6489,6.2021,7.73,6.3408,7.9702C6.479,8.2095,6.397,8.5151,6.1577,8.6533l-2.7017,1.5596
			C3.3774,10.2583,3.2915,10.2798,3.2065,10.2798z"/>
	</g>
	<g>
		<path d="M9.5571,11.0596c-0.2764,0-0.5-0.2236-0.5-0.5V7.4404c0-0.2764,0.2236-0.5,0.5-0.5s0.5,0.2236,0.5,0.5v3.1191
			C10.0571,10.8359,9.8335,11.0596,9.5571,11.0596z"/>
		<path d="M10.9072,10.2798c-0.085,0-0.1709-0.0215-0.2495-0.0669L7.9565,8.6533C7.7173,8.5151,7.6353,8.2095,7.7734,7.9702
			C7.9116,7.73,8.2163,7.6489,8.4565,7.7871l2.7012,1.5596c0.2393,0.1382,0.3213,0.4438,0.1831,0.6831
			C11.248,10.1904,11.0801,10.2798,10.9072,10.2798z"/>
		<path d="M8.207,10.2798c-0.1729,0-0.3408-0.0894-0.4336-0.25C7.6353,9.7905,7.7173,9.4849,7.9565,9.3467l2.7012-1.5596
			c0.2378-0.1382,0.5449-0.0571,0.6831,0.1831c0.1382,0.2393,0.0562,0.5449-0.1831,0.6831l-2.7012,1.5596
			C8.3779,10.2583,8.292,10.2798,8.207,10.2798z"/>
	</g>
	<g>
		<path d="M14.5576,11.0596c-0.2764,0-0.5-0.2236-0.5-0.5V7.4404c0-0.2764,0.2236-0.5,0.5-0.5s0.5,0.2236,0.5,0.5v3.1191
			C15.0576,10.8359,14.834,11.0596,14.5576,11.0596z"/>
		<path d="M15.9082,10.2798c-0.085,0-0.1709-0.0215-0.25-0.0669L12.957,8.6533c-0.2393-0.1382-0.3213-0.4438-0.1826-0.6831
			c0.1377-0.2402,0.4443-0.3193,0.6826-0.1831l2.7012,1.5596c0.2393,0.1382,0.3213,0.4438,0.1826,0.6831
			C16.249,10.1904,16.0801,10.2798,15.9082,10.2798z"/>
		<path d="M13.207,10.2798c-0.1719,0-0.3408-0.0894-0.4326-0.25c-0.1387-0.2393-0.0566-0.5449,0.1826-0.6831l2.7012-1.5596
			c0.2383-0.1377,0.5449-0.0576,0.6826,0.1831c0.1387,0.2393,0.0566,0.5449-0.1826,0.6831l-2.7012,1.5596
			C13.3779,10.2583,13.292,10.2798,13.207,10.2798z"/>
	</g>
	<g>
		<path d="M19.5576,11.0596c-0.2764,0-0.5-0.2236-0.5-0.5V7.4404c0-0.2764,0.2236-0.5,0.5-0.5s0.5,0.2236,0.5,0.5v3.1191
			C20.0576,10.8359,19.834,11.0596,19.5576,11.0596z"/>
		<path d="M20.9082,10.2798c-0.085,0-0.1709-0.0215-0.25-0.0669L17.957,8.6533c-0.2393-0.1382-0.3213-0.4438-0.1826-0.6831
			c0.1367-0.2402,0.4434-0.3193,0.6826-0.1831l2.7012,1.5596c0.2393,0.1382,0.3213,0.4438,0.1826,0.6831
			C21.249,10.1904,21.0801,10.2798,20.9082,10.2798z"/>
		<path d="M18.207,10.2798c-0.1719,0-0.3408-0.0894-0.4326-0.25c-0.1387-0.2393-0.0566-0.5449,0.1826-0.6831l2.7012-1.5596
			c0.2393-0.1377,0.5449-0.0576,0.6826,0.1831c0.1387,0.2393,0.0566,0.5449-0.1826,0.6831l-2.7012,1.5596
			C18.3779,10.2583,18.292,10.2798,18.207,10.2798z"/>
	</g>
	<g>
		<path d="M23.5322,14h-0.9834c-0.2764,0-0.5-0.2236-0.5-0.5s0.2236-0.5,0.5-0.5h0.4834V5h-22v8h11.457c0.2764,0,0.5,0.2236,0.5,0.5
			s-0.2236,0.5-0.5,0.5H0.5322c-0.2764,0-0.5-0.2236-0.5-0.5v-9c0-0.2764,0.2236-0.5,0.5-0.5h23c0.2764,0,0.5,0.2236,0.5,0.5v9
			C24.0322,13.7764,23.8086,14,23.5322,14z"/>
	</g>
	<path d="M17.5605,20.9033c-2.4258,0-4.3984-1.9727-4.3984-4.3984c0-2.4248,1.9727-4.3975,4.3984-4.3975
		s4.3984,1.9727,4.3984,4.3975C21.959,18.9307,19.9863,20.9033,17.5605,20.9033z M17.5605,13.1074
		c-1.874,0-3.3984,1.5244-3.3984,3.3975c0,1.874,1.5244,3.3984,3.3984,3.3984s3.3984-1.5244,3.3984-3.3984
		C20.959,14.6318,19.4346,13.1074,17.5605,13.1074z"/>
	<path d="M19.0264,18.4717c-0.1279,0-0.2559-0.0488-0.3535-0.1465l-2.9316-2.9326c-0.1953-0.1953-0.1953-0.5117,0-0.707
		s0.5117-0.1953,0.707,0l2.9316,2.9326c0.1953,0.1953,0.1953,0.5117,0,0.707C19.2822,18.4229,19.1543,18.4717,19.0264,18.4717z"/>
	<path d="M16.0947,18.4717c-0.1279,0-0.2559-0.0488-0.3535-0.1465c-0.1953-0.1953-0.1953-0.5117,0-0.707l2.9316-2.9326
		c0.1953-0.1953,0.5117-0.1953,0.707,0s0.1953,0.5117,0,0.707l-2.9316,2.9326C16.3506,18.4229,16.2227,18.4717,16.0947,18.4717z"/>
</g>
<rect x="0.0293" fill="none" width="24" height="24"/>
</svg>
