<?xml version="1.0" encoding="utf-8"?>
<!-- Generator: Adobe Illustrator 18.1.0, SVG Export Plug-In . SVG Version: 6.00 Build 0)  -->
<svg version="1.1" id="Layer_1" xmlns="http://www.w3.org/2000/svg" xmlns:xlink="http://www.w3.org/1999/xlink" x="0px" y="0px"
	 width="24px" height="24px" viewBox="0 0 24 24" enable-background="new 0 0 24 24" xml:space="preserve">
<g>
	<path d="M2.5127,19.0029c-0.1323,0-0.2593-0.0527-0.353-0.1465c-0.0942-0.0938-0.147-0.2207-0.147-0.3535L2.0054,0.4736
		c0-0.2759,0.2231-0.4995,0.4995-0.5L13.5771-0.042c0.001,0,0.001,0,0.001,0c0.1328,0,0.2598,0.0527,0.3535,0.1465
		c0.0938,0.0942,0.1465,0.2217,0.1465,0.3545l-0.0215,11.2617c-0.001,0.2759-0.2246,0.499-0.5,0.499h-0.001
		c-0.2764-0.001-0.5-0.2246-0.499-0.501l0.0205-10.7603L3.0054,0.9731L3.0127,18.002l10.0254-0.0137v-0.5986
		c0-0.2764,0.2236-0.5,0.5-0.5s0.5,0.2236,0.5,0.5v1.0977c0,0.2754-0.2236,0.5-0.499,0.5L2.5132,19.0029H2.5127z"/>
	<path d="M10.6348,18.9922c-0.2759,0-0.4995-0.2236-0.5-0.499c-0.002-1.3789,0.9014-2.6602,2.248-3.1885
		c0.2559-0.0996,0.5479,0.0254,0.6484,0.2832c0.1006,0.2568-0.0264,0.5469-0.2832,0.6484
		c-0.9663,0.3789-1.6147,1.2852-1.6133,2.2549c0.0005,0.2764-0.2231,0.501-0.499,0.501
		C10.6353,18.9922,10.6353,18.9922,10.6348,18.9922z"/>
	<path d="M13.5293,4.0396c-0.0029,0-0.0059,0-0.0088,0c-1.9375-0.0337-3.5137-1.6353-3.5137-3.5703c0-0.2764,0.2236-0.5,0.5-0.5
		s0.5,0.2236,0.5,0.5c0,1.417,1.1113,2.5459,2.5312,2.5703c0.2764,0.0049,0.4961,0.2324,0.4912,0.5088
		C14.0244,3.8213,13.8018,4.0396,13.5293,4.0396z"/>
	<path d="M2.5781,3.8481c-0.0195,0-0.0391,0-0.0586-0.0005C2.2437,3.8428,2.0234,3.6152,2.0283,3.3389
		C2.0332,3.063,2.2759,2.8726,2.5371,2.8477C3.1792,2.874,3.7769,2.6099,4.2373,2.1465C4.6904,1.6909,4.9429,1.084,4.9297,0.48
		C4.9238,0.2041,5.1426-0.0244,5.4189-0.0308c0.27,0.0254,0.5049,0.2134,0.5107,0.4893c0.019,0.874-0.3394,1.7461-0.9834,2.3936
		C4.3052,3.4956,3.4663,3.8481,2.5781,3.8481z"/>
	<path d="M5.5283,18.999c-0.2759,0-0.4995-0.2236-0.5-0.499c-0.002-1.3369-1.1138-2.4238-2.479-2.4238c-0.001,0-0.002,0-0.0029,0
		H2.5459c-0.2759,0-0.4995-0.2236-0.5-0.499c-0.0005-0.2764,0.2231-0.501,0.4995-0.501c0.0015,0,0.0029,0,0.0039,0
		c1.916,0,3.4761,1.5342,3.479,3.4219c0.0005,0.2764-0.2231,0.501-0.499,0.501C5.5288,18.999,5.5283,18.999,5.5283,18.999z"/>
	<path d="M15.4004,20.0459c-0.1318,0-0.2637-0.0518-0.3613-0.1553c-3.0273-3.1719-3.7188-5.333-4.8647-8.9131
		c-0.1719-0.5366-0.355-1.1089-0.5586-1.7251C9.269,8.2036,9.9238,7.3594,10.7163,7.0972c0.8047-0.2632,1.7964,0.0225,2.147,1.082
		l1.2354,3.5859c0.5625,0.2544,0.8828,0.2417,0.9971,0.1353c0.2354-0.2173,0.2285-1.0498-0.1895-2.0669
		c-0.4004-0.9727-1.0967-1.7075-1.6152-2.0713c-0.2256-0.1582-0.2812-0.4702-0.1221-0.6963
		c0.1572-0.2266,0.4727-0.2808,0.6963-0.1221c0.8213,0.5762,1.5566,1.5142,1.9658,2.5093c0.4512,1.0962,0.6729,2.5078-0.0566,3.1816
		c-0.5117,0.4736-1.2881,0.4521-2.3076-0.0635c-0.1152-0.0596-0.2041-0.1611-0.2461-0.2832L11.916,8.499
		c-0.2124-0.6401-0.7764-0.4897-0.8857-0.4521C10.96,8.0698,10.3511,8.292,10.5649,8.939c0.2051,0.6191,0.3892,1.1943,0.5615,1.7339
		c1.1401,3.5605,1.7681,5.5215,4.6353,8.5283c0.1914,0.1992,0.1836,0.5156-0.0166,0.7061
		C15.6484,20,15.5244,20.0459,15.4004,20.0459z"/>
	<path d="M16.6172,23.8467c-0.1582,0-0.3145-0.0752-0.4111-0.2158l-2.168-3.1436c-0.0762-0.1094-0.1045-0.2441-0.0811-0.374
		c0.0244-0.1309,0.0996-0.2461,0.208-0.3213l5.8838-4.0576c0.2256-0.1582,0.5381-0.1016,0.6953,0.127l2.1689,3.1436
		c0.0762,0.1094,0.1045,0.2441,0.0811,0.374c-0.0244,0.1309-0.0996,0.2461-0.208,0.3223l-5.8848,4.0576
		C16.8145,23.8184,16.7158,23.8467,16.6172,23.8467z M15.1445,20.3311l1.6006,2.3203l5.0615-3.4902l-1.6016-2.3203L15.1445,20.3311z
		"/>
	<path d="M19.3018,17.3496c-0.084,0-0.168-0.0195-0.2422-0.0586c-0.2988-0.1582-0.582-0.3086-0.54-5.7271
		c0.0332-4.3774-3.9219-6.3726-5.1348-6.8799c-0.2539-0.1069-0.374-0.3994-0.2676-0.6543c0.1064-0.2554,0.3975-0.3765,0.6543-0.2686
		c1.3574,0.5684,5.7861,2.8101,5.748,7.8105c-0.0293,3.7388,0.1152,4.7173,0.1748,4.9604c0.0088,0.0107,0.0176,0.0225,0.0254,0.0342
		c0.1572,0.2275,0.1006,0.5381-0.127,0.6953C19.5078,17.3203,19.4053,17.3496,19.3018,17.3496z"/>
	<path d="M6.7056,11.6187c-0.9829,0-1.7822-0.8823-1.7822-1.9668c0-0.6914,0.3345-1.3398,0.8726-1.6924
		C6.0273,7.8076,6.3364,7.873,6.4883,8.104c0.1509,0.231,0.0864,0.541-0.1445,0.6924C6.0845,8.9658,5.9233,9.2939,5.9233,9.6519
		c0,0.5332,0.3511,0.9668,0.7822,0.9668c0.2363,0,0.4976-0.1353,0.8052-1.1162C7.6401,9.0596,8.043,7.6855,9.2705,7.6855
		c0.4058,0,0.7637,0.1455,1.0942,0.4448c0.2046,0.1855,0.2202,0.5015,0.0347,0.7065c-0.1855,0.2046-0.502,0.2188-0.7065,0.0347
		c-0.1436-0.1304-0.27-0.186-0.4224-0.186c-0.1309,0-0.4785,0-0.8027,1.1069C8.2944,10.3452,7.8955,11.6187,6.7056,11.6187z"/>
	<path d="M10.2744,10.1519H4.8398c-0.2764,0-0.5-0.2236-0.5-0.5s0.2236-0.5,0.5-0.5h5.4346c0.2764,0,0.5,0.2236,0.5,0.5
		S10.5508,10.1519,10.2744,10.1519z"/>
</g>
<rect x="-0.0137" fill="none" width="24" height="24"/>
</svg>
