<?xml version="1.0" encoding="utf-8"?>
<!-- Generator: Adobe Illustrator 18.1.1, SVG Export Plug-In . SVG Version: 6.00 Build 0)  -->
<svg version="1.1" id="Layer_1" xmlns="http://www.w3.org/2000/svg" xmlns:xlink="http://www.w3.org/1999/xlink" x="0px" y="0px"
	 width="24px" height="24px" viewBox="0 0 24 24" enable-background="new 0 0 24 24" xml:space="preserve">
<rect fill="none" width="24" height="24"/>
<g>
	<path d="M7.6475,2.0259L8,1.6877v2.8275c0,0.2764,0.2236,0.5,0.5,0.5S9,4.7915,9,4.5151V1.6877l0.3525,0.3382
		C9.4497,2.1187,9.5742,2.165,9.6987,2.165c0.1313,0,0.2627-0.0518,0.3608-0.1538c0.1909-0.1992,0.1846-0.5156-0.0146-0.707
		L8.8462,0.1543c-0.0204-0.0196-0.046-0.0286-0.0686-0.0441C8.7484,0.0901,8.722,0.0668,8.6887,0.0532
		c-0.121-0.0493-0.2564-0.0493-0.3773,0C8.2779,0.0668,8.2513,0.0903,8.2219,0.1106C8.1995,0.126,8.1741,0.1349,8.1538,0.1543
		L6.9551,1.3042C6.7559,1.4956,6.7495,1.812,6.9404,2.0112C7.1309,2.2109,7.4478,2.2163,7.6475,2.0259z"/>
	<path d="M11.3013,2.1841c0.1226,0,0.2456-0.0449,0.3423-0.1353L12,1.7141v1.8445c0,0.2764,0.2236,0.5,0.5,0.5s0.5-0.2236,0.5-0.5
		V1.7144l0.3555,0.334c0.2012,0.1885,0.5166,0.1802,0.707-0.022c0.1895-0.2012,0.1797-0.5176-0.0215-0.7065l-1.1982-1.1255
		c-0.1934-0.1807-0.4932-0.1802-0.6846-0.0005L10.959,1.3193c-0.2012,0.1895-0.2114,0.5059-0.0225,0.707
		C11.0352,2.1313,11.168,2.1841,11.3013,2.1841z"/>
	<path d="M15.6484,3.0093L16,2.6716v2.8269c0,0.2764,0.2236,0.5,0.5,0.5s0.5-0.2236,0.5-0.5V2.6716l0.3516,0.3376
		c0.0977,0.0928,0.2217,0.1392,0.3467,0.1392c0.1309,0,0.2627-0.0513,0.3604-0.1538c0.1914-0.1992,0.1855-0.5156-0.0137-0.707
		l-1.1982-1.1499c-0.0217-0.0206-0.0484-0.0303-0.0724-0.0463c-0.0284-0.0192-0.0538-0.0418-0.0859-0.0549
		c-0.121-0.0492-0.2559-0.0492-0.3768,0c-0.032,0.0131-0.0575,0.0358-0.0859,0.0549c-0.024,0.016-0.0507,0.0257-0.0724,0.0463
		l-1.1982,1.1499c-0.1992,0.1914-0.2051,0.5078-0.0137,0.707C15.1318,3.1943,15.4482,3.2002,15.6484,3.0093z"/>
	<path d="M18,14c-0.3658,0-0.7046,0.106-1,0.2783V9c0-1.103-0.8975-2-2-2c-0.3658,0-0.7046,0.106-1,0.2783V7c0-1.103-0.8975-2-2-2
		c-0.8719,0-1.6072,0.564-1.8804,1.3437C9.8,6.1269,9.4146,6,9,6C7.897,6,7,6.897,7,8v6.3025
		c-0.3365-0.468-0.9451-0.6726-1.5352-0.5017c-0.6099,0.1777-1.27,0.7969-1.2944,1.998c-0.0059,0.1807-0.1162,4.4531,2.3057,7.2676
		c0.0029,0.0029,0.2954,0.2656,0.6055,0.6943c0.0977,0.1348,0.2505,0.2061,0.4053,0.2061c0.1016,0,0.2046-0.0312,0.293-0.0957
		c0.2236-0.1621,0.2734-0.4746,0.1113-0.6982c-0.3594-0.4951-0.6997-0.8076-0.7051-0.8076
		c-2.1167-2.4678-2.0176-6.4932-2.0161-6.5391c0.0117-0.5664,0.2261-0.9639,0.5737-1.0645c0.1855-0.0547,0.3691-0.002,0.4443,0.1104
		l0.6045,1.0049c0.1045,0.1738,0.1616,0.373,0.1655,0.5752L7,18.5098c0.0004,0.0168,0.0093,0.0307,0.0115,0.0471
		C7.0409,18.8051,7.2438,19,7.5,19c0.0018,0,0.0033-0.001,0.0051-0.001C7.5069,18.999,7.5085,19,7.5103,19
		c0.0327-0.0007,0.061-0.0139,0.0918-0.0206c0.0328-0.007,0.0673-0.0087,0.0973-0.0218c0.0269-0.0118,0.0474-0.0322,0.0716-0.0483
		c0.0294-0.0196,0.0613-0.0353,0.0859-0.0605c0.0202-0.0207,0.0318-0.0477,0.0482-0.0715c0.0198-0.0289,0.0432-0.0549,0.0567-0.0878
		c0.0128-0.0308,0.0137-0.0659,0.0201-0.0994C7.9876,18.5598,8,18.532,8,18.5V8c0-0.5513,0.4487-1,1-1s1,0.4487,1,1v6.5
		c0,0.2764,0.2236,0.5,0.5,0.5s0.5-0.2236,0.5-0.5V8V7c0-0.5513,0.4487-1,1-1c0.5518,0,1,0.4487,1,1v2v6.5
		c0,0.2764,0.2236,0.5,0.5,0.5s0.5-0.2236,0.5-0.5V9c0-0.5513,0.4482-1,1-1s1,0.4487,1,1v7v0.5c0,0.2764,0.2236,0.5,0.5,0.5
		s0.5-0.2236,0.5-0.5V16c0-0.5518,0.4482-1,1-1c0.6006,0,0.6904,0.6562,0.6934,0.9941c-0.0029,0.0264-0.2949,2.6387-1.29,4.5928
		c-0.4473,0.877-0.7881,1.7783-1.042,2.7539c-0.0693,0.2676,0.0918,0.54,0.3584,0.6104c0.042,0.0107,0.085,0.0156,0.126,0.0156
		c0.2227,0,0.4258-0.1494,0.4844-0.374c0.2354-0.9053,0.5508-1.7402,0.9639-2.5527c1.0801-2.1211,1.3809-4.8242,1.3965-4.9922
		C19.6904,14.8037,19.0273,14,18,14z"/>
</g>
</svg>
