<?xml version="1.0" encoding="utf-8"?>
<!-- Generator: Adobe Illustrator 18.1.0, SVG Export Plug-In . SVG Version: 6.00 Build 0)  -->
<svg version="1.1" id="Layer_1" xmlns="http://www.w3.org/2000/svg" xmlns:xlink="http://www.w3.org/1999/xlink" x="0px" y="0px"
	 width="24px" height="24px" viewBox="0 0 24 24" enable-background="new 0 0 24 24" xml:space="preserve">
<g>
	<path d="M22.084,13.5635c-0.1738,0-0.3428-0.0908-0.4355-0.2539C21.6025,13.2275,17.04,5.3022,9.4106,2.8501
		c0.0698,1.4141,0.8647,5.231,6.897,9.2183c0.2305,0.1523,0.2939,0.4619,0.1416,0.6924s-0.4619,0.2949-0.6924,0.1416
		C7.5791,7.4971,8.4009,2.3149,8.4399,2.0972c0.0249-0.1387,0.1069-0.2603,0.2256-0.335c0.1191-0.0747,0.2642-0.0967,0.3999-0.0591
		c8.4023,2.3232,13.252,10.7568,13.4541,11.1143c0.1357,0.2402,0.0508,0.5449-0.1895,0.6816
		C22.252,13.543,22.168,13.5635,22.084,13.5635z"/>
	<path d="M16.5781,9.2212c-0.1211,0-0.2422-0.0435-0.3379-0.1318l-2.124-1.9502c-0.2041-0.1865-0.2168-0.5029-0.0303-0.7065
		c0.1875-0.2026,0.5039-0.2158,0.7061-0.0298l2.124,1.9502c0.2041,0.1865,0.2168,0.5029,0.0303,0.7065
		C16.8477,9.1665,16.7129,9.2212,16.5781,9.2212z"/>
	<path d="M20.333,18.9854H3.6714c-1.9175,0-3.4771-1.5703-3.4771-3.5s1.5596-3.5,3.4771-3.5H20.333
		c1.918,0,3.4775,1.5703,3.4775,3.5S22.251,18.9854,20.333,18.9854z M3.6714,12.9854c-1.3657,0-2.4771,1.1211-2.4771,2.5
		s1.1113,2.5,2.4771,2.5H20.333c1.3662,0,2.4775-1.1211,2.4775-2.5s-1.1113-2.5-2.4775-2.5H3.6714z"/>
	<path d="M18.499,17.4854c-0.2764,0-0.5-0.2236-0.5-0.5v-3c0-0.2764,0.2236-0.5,0.5-0.5s0.5,0.2236,0.5,0.5v3
		C18.999,17.2617,18.7754,17.4854,18.499,17.4854z"/>
	<path d="M19.999,15.9854h-3c-0.2764,0-0.5-0.2236-0.5-0.5s0.2236-0.5,0.5-0.5h3c0.2764,0,0.5,0.2236,0.5,0.5
		S20.2754,15.9854,19.999,15.9854z"/>
</g>
<rect x="-0.0008" y="-0.0147" fill="none" width="24" height="24"/>
</svg>
