<?xml version="1.0" encoding="utf-8"?>
<!-- Generator: Adobe Illustrator 18.1.0, SVG Export Plug-In . SVG Version: 6.00 Build 0)  -->
<svg version="1.1" id="Layer_1" xmlns="http://www.w3.org/2000/svg" xmlns:xlink="http://www.w3.org/1999/xlink" x="0px" y="0px"
	 width="24px" height="24px" viewBox="0 0 24 24" enable-background="new 0 0 24 24" xml:space="preserve">
<g>
	<path d="M12.125,23.9863H3.4302c-0.2764,0-0.5-0.2236-0.5-0.5V0.5044c0-0.2764,0.2236-0.5,0.5-0.5h8.5547
		c1.8032,0,3.2817,0.249,4.394,0.7402c2.2002,0.9722,3.6025,3.1045,3.6602,5.5645c0.0469,2.0181-0.8555,3.856-2.4062,5.0112
		c2.3057,1.0088,3.5156,2.8936,3.5156,5.5029C21.1484,21.4424,17.9443,23.9863,12.125,23.9863z M3.9302,22.9863h8.1948
		c5.3242,0,8.0234-2.0732,8.0234-6.1631c0-2.5107-1.2783-4.1611-3.7988-4.9062c-0.1973-0.0581-0.3389-0.231-0.3564-0.4355
		s0.0908-0.3994,0.2744-0.4912c1.7832-0.8896,2.8184-2.6309,2.7715-4.6577c-0.0488-2.0688-1.2227-3.8594-3.0645-4.6729
		c-0.9844-0.4351-2.3271-0.6553-3.9897-0.6553H3.9302V22.9863z M12.125,21.2744H6.4478c-0.2764,0-0.5-0.2236-0.5-0.5V12.873
		c0-0.2764,0.2236-0.5,0.5-0.5h5.2725c2.7056,0,6.3022,0.4609,6.3022,4.4502c0,2.3232-1.3691,3.9023-3.7559,4.333
		C13.8457,21.2354,13.1436,21.2744,12.125,21.2744z M6.9478,20.2744h5.1772c0.9424,0,1.6025-0.0342,1.96-0.1016
		c1.9229-0.3467,2.9375-1.5049,2.9375-3.3496c0-2.4502-1.5361-3.4502-5.3022-3.4502H6.9478V20.2744z M11.3784,10.6611H6.4478
		c-0.2764,0-0.5-0.2236-0.5-0.5V3.2163c0-0.2764,0.2236-0.5,0.5-0.5h4.5571c2.5605,0,6.0684,0,6.0684,4.0273
		C17.0732,10.6611,13.2266,10.6611,11.3784,10.6611z M6.9478,9.6611h4.4307c2.9731,0,4.6948-0.4775,4.6948-2.9175
		c0-2.5742-1.6348-3.0273-5.0684-3.0273H6.9478V9.6611z"/>
</g>
<rect y="0.0011" fill="none" width="24" height="24"/>
</svg>
