<?xml version="1.0" encoding="utf-8"?>
<!-- Generator: Adobe Illustrator 18.1.0, SVG Export Plug-In . SVG Version: 6.00 Build 0)  -->
<svg version="1.1" id="Layer_1" xmlns="http://www.w3.org/2000/svg" xmlns:xlink="http://www.w3.org/1999/xlink" x="0px" y="0px"
	 width="24px" height="24px" viewBox="0 0 24 24" enable-background="new 0 0 24 24" xml:space="preserve">
<g>
	<path d="M17.5,10h-11C6.2236,10,6,9.7764,6,9.5v-9C6,0.2236,6.2236,0,6.5,0h11C17.7764,0,18,0.2236,18,0.5v9
		C18,9.7764,17.7764,10,17.5,10z M7,9h10V1H7V9z"/>
	<path d="M5.5,24h-5C0.2236,24,0,23.7764,0,23.5v-4C0,19.2236,0.2236,19,0.5,19h5C5.7764,19,6,19.2236,6,19.5v4
		C6,23.7764,5.7764,24,5.5,24z M1,23h4v-3H1V23z"/>
	<path d="M14.5,24h-5C9.2236,24,9,23.7764,9,23.5v-4C9,19.2236,9.2236,19,9.5,19h5c0.2764,0,0.5,0.2236,0.5,0.5v4
		C15,23.7764,14.7764,24,14.5,24z M10,23h4v-3h-4V23z"/>
	<path d="M23.5,24h-5c-0.2764,0-0.5-0.2236-0.5-0.5v-4c0-0.2764,0.2236-0.5,0.5-0.5h5c0.2764,0,0.5,0.2236,0.5,0.5v4
		C24,23.7764,23.7764,24,23.5,24z M19,23h4v-3h-4V23z"/>
	<path fill="none" stroke="#000000" stroke-linecap="round" stroke-linejoin="round" d="M12.0448,16.6111"/>
	<path d="M20.5,17.5c-0.2764,0-0.5-0.2236-0.5-0.5v-2H4v2c0,0.2764-0.2236,0.5-0.5,0.5S3,17.2764,3,17v-2.5
		C3,14.2236,3.2236,14,3.5,14h17c0.2764,0,0.5,0.2236,0.5,0.5V17C21,17.2764,20.7764,17.5,20.5,17.5z"/>
	<path d="M12.0449,17.5c-0.2764,0-0.5-0.2236-0.5-0.5v-5c0-0.2764,0.2236-0.5,0.5-0.5s0.5,0.2236,0.5,0.5v5
		C12.5449,17.2764,12.3213,17.5,12.0449,17.5z"/>
</g>
<rect fill="none" width="24" height="24"/>
</svg>
