<?xml version="1.0" encoding="utf-8"?>
<!-- Generator: Adobe Illustrator 18.1.0, SVG Export Plug-In . SVG Version: 6.00 Build 0)  -->
<svg version="1.1" id="Layer_1" xmlns="http://www.w3.org/2000/svg" xmlns:xlink="http://www.w3.org/1999/xlink" x="0px" y="0px"
	 width="24px" height="24px" viewBox="0 0 24 24" enable-background="new 0 0 24 24" xml:space="preserve">
<g>
	<path d="M19.499,11.895c-0.2764,0-0.5-0.2236-0.5-0.5s0.2236-0.5,0.5-0.5c0.4971,0,0.9014-0.4048,0.9014-0.9019
		s-0.4043-0.9014-0.9014-0.9014c-0.2764,0-0.5-0.2236-0.5-0.5s0.2236-0.5,0.5-0.5c1.0488,0,1.9014,0.853,1.9014,1.9014
		C21.4004,11.042,20.5479,11.895,19.499,11.895z"/>
	<path d="M18.1797,23.9854h-6.4375c-1.5381,0-2.7432-1.2432-2.7432-2.8311v-7.6689c0-0.2764,0.2236-0.5,0.5-0.5h11
		c0.2764,0,0.5,0.2236,0.5,0.5v7.6689C20.999,22.7422,19.7607,23.9854,18.1797,23.9854z M9.999,13.9854v7.1689
		c0,1.0439,0.7495,1.8311,1.7432,1.8311h6.4375c1.0205,0,1.8193-0.8047,1.8193-1.8311v-7.1689H9.999z"/>
	<path d="M9.499,13.9854h-6c-0.4058,0-1.25,0-1.25-6c0-1.4604,0.0679-2.8247,0.1909-3.8413C2.6016,2.8115,2.835,1.9854,3.499,1.9854
		h6c0.2764,0,0.5,0.2236,0.5,0.5v11C9.999,13.7617,9.7754,13.9854,9.499,13.9854z M3.6826,12.9854H8.999v-10H3.6826
		C3.1196,4.2075,3.1196,11.7632,3.6826,12.9854z"/>
	<path d="M17.499,13.9854h-6c-0.2764,0-0.5-0.2236-0.5-0.5v-5c0-0.2764,0.2236-0.5,0.5-0.5h6c0.2764,0,0.5,0.2236,0.5,0.5v5
		C17.999,13.7617,17.7754,13.9854,17.499,13.9854z M11.999,12.9854h5v-4h-5V12.9854z"/>
	<path d="M13.4395,12.5303c-0.1396,0-0.2695-0.0605-0.3594-0.1504s-0.1406-0.2197-0.1406-0.3496
		c0-0.1304,0.0508-0.2603,0.1406-0.3604c0.1895-0.1802,0.5195-0.1802,0.71,0c0.0996,0.1001,0.1494,0.23,0.1494,0.3604
		c0,0.1299-0.0498,0.25-0.1494,0.3496C13.7002,12.4697,13.5693,12.5303,13.4395,12.5303z"/>
	<path d="M15.5596,12.5303c-0.1299,0-0.2598-0.0605-0.3594-0.1504c-0.0908-0.0898-0.1406-0.2197-0.1406-0.3496
		c0-0.1406,0.0498-0.2603,0.1504-0.3604c0.1797-0.1802,0.5098-0.1802,0.7002,0c0.0996,0.1001,0.1494,0.23,0.1494,0.3604
		c0,0.1191-0.0498,0.25-0.1396,0.3496C15.8193,12.4795,15.6895,12.5303,15.5596,12.5303z"/>
	<path d="M13.4395,10.4399c-0.1299,0-0.2598-0.0503-0.3594-0.1401c-0.0898-0.1001-0.1406-0.23-0.1406-0.3599
		s0.0508-0.2603,0.1406-0.3501c0.1895-0.1899,0.5195-0.1899,0.71,0c0.0996,0.1001,0.1494,0.2202,0.1494,0.3501
		S13.8896,10.1997,13.79,10.29C13.6895,10.3896,13.5693,10.4399,13.4395,10.4399z"/>
	<path d="M15.5596,10.4399c-0.1299,0-0.2598-0.0503-0.3496-0.1401c-0.1006-0.1001-0.1504-0.2202-0.1504-0.3599
		c0-0.1299,0.0605-0.2603,0.1504-0.3501c0.1699-0.1802,0.5098-0.1899,0.7002,0c0.0996,0.0898,0.1494,0.2202,0.1494,0.3501
		s-0.0498,0.2598-0.1396,0.3501C15.8096,10.3896,15.6895,10.4399,15.5596,10.4399z"/>
	<path d="M14.5,11.4897c-0.1299,0-0.2598-0.0601-0.3604-0.1499C14.0498,11.25,14,11.1196,14,10.98
		c0-0.1304,0.0498-0.25,0.1396-0.3501c0.2002-0.1899,0.5205-0.1899,0.71,0C14.9502,10.73,15,10.8599,15,10.98
		c0,0.1396-0.0498,0.2598-0.1504,0.3599C14.7598,11.4297,14.6299,11.4897,14.5,11.4897z"/>
	<path d="M14.499,6.8301c-0.9941,0-1.8037-0.8096-1.8037-1.8042c0-0.0483,0.3623-4.8384,1.8037-4.8384s1.8037,4.79,1.8037,4.8384
		C16.3027,6.0205,15.4932,6.8301,14.499,6.8301z M14.499,1.3423c-0.374,0.7227-0.8037,2.9673-0.8037,3.6836
		c0,0.4434,0.3604,0.8042,0.8037,0.8042s0.8037-0.3608,0.8037-0.8042C15.3027,4.3096,14.873,2.0645,14.499,1.3423z"/>
</g>
<rect x="-0.0008" y="-0.0147" fill="none" width="24" height="24"/>
</svg>
