<?xml version="1.0" encoding="utf-8"?>
<!-- Generator: Adobe Illustrator 18.1.0, SVG Export Plug-In . SVG Version: 6.00 Build 0)  -->
<svg version="1.1" id="Layer_1" xmlns="http://www.w3.org/2000/svg" xmlns:xlink="http://www.w3.org/1999/xlink" x="0px" y="0px"
	 width="24px" height="24px" viewBox="0 0 24 24" enable-background="new 0 0 24 24" xml:space="preserve">
<g>
	<path d="M3.7314,23.7061c-1.8608,0-3.375-1.5137-3.375-3.375c0-1.8604,1.5142-3.374,3.375-3.374s3.3745,1.5137,3.3745,3.374
		C7.106,22.1924,5.5923,23.7061,3.7314,23.7061z M3.7314,17.957c-1.3096,0-2.375,1.0654-2.375,2.374
		c0,1.3096,1.0654,2.375,2.375,2.375c1.3091,0,2.3745-1.0654,2.3745-2.375C6.106,19.0225,5.0405,17.957,3.7314,17.957z"/>
	<path d="M5.0381,5.8179c-0.1279,0-0.2559-0.0488-0.3535-0.1465L0.6191,1.6055c-0.1953-0.1953-0.1953-0.5117,0-0.707
		s0.5117-0.1953,0.707,0l4.0654,4.0659c0.1953,0.1953,0.1953,0.5117,0,0.707C5.2939,5.769,5.166,5.8179,5.0381,5.8179z"/>
	<path d="M0.9727,5.8179c-0.1279,0-0.2559-0.0488-0.3535-0.1465c-0.1953-0.1953-0.1953-0.5117,0-0.707l4.0654-4.0659
		c0.1953-0.1953,0.5117-0.1953,0.707,0s0.1953,0.5117,0,0.707L1.3262,5.6714C1.2285,5.769,1.1006,5.8179,0.9727,5.8179z"/>
	<path d="M20.4863,6.5c-0.2764,0-0.5-0.2236-0.5-0.5V3h-3c-0.2764,0-0.5-0.2236-0.5-0.5S16.71,2,16.9863,2h3.5
		c0.2764,0,0.5,0.2236,0.5,0.5V6C20.9863,6.2764,20.7627,6.5,20.4863,6.5z"/>
	<path d="M8.6392,14.5234c-0.1279,0-0.2559-0.0488-0.3535-0.1465l-4.0659-4.0654c-0.1953-0.1953-0.1953-0.5117,0-0.707
		s0.5117-0.1953,0.707,0l4.0659,4.0654c0.1953,0.1953,0.1953,0.5117,0,0.707C8.895,14.4746,8.7671,14.5234,8.6392,14.5234z"/>
	<path d="M4.5732,14.5234c-0.1279,0-0.2559-0.0488-0.3535-0.1465c-0.1953-0.1953-0.1953-0.5117,0-0.707l4.0659-4.0654
		c0.1953-0.1953,0.5117-0.1953,0.707,0s0.1953,0.5117,0,0.707L4.9268,14.377C4.8291,14.4746,4.7012,14.5234,4.5732,14.5234z"/>
	<path d="M23.1162,12.4912c-0.1279,0-0.2559-0.0488-0.3535-0.1465l-4.0654-4.0664c-0.1953-0.1953-0.1953-0.5117,0-0.707
		s0.5117-0.1953,0.707,0l4.0654,4.0659c0.1953,0.1953,0.1953,0.5122,0,0.7075C23.3721,12.4424,23.2441,12.4912,23.1162,12.4912z"/>
	<path d="M19.0508,12.4912c-0.1279,0-0.2559-0.0488-0.3535-0.1465c-0.1953-0.1953-0.1953-0.5122,0-0.7075l4.0654-4.0659
		c0.1953-0.1953,0.5117-0.1953,0.707,0s0.1953,0.5117,0,0.707l-4.0654,4.0664C19.3066,12.4414,19.1787,12.4912,19.0508,12.4912z"/>
	<path d="M21.6318,23.1924c-0.1279,0-0.2559-0.0488-0.3535-0.1465l-4.0664-4.0664c-0.1953-0.1953-0.1953-0.5117,0-0.707
		s0.5117-0.1953,0.707,0l4.0664,4.0664c0.1953,0.1953,0.1953,0.5117,0,0.707C21.8877,23.1436,21.7598,23.1924,21.6318,23.1924z"/>
	<path d="M17.5654,23.1924c-0.1279,0-0.2559-0.0488-0.3535-0.1465c-0.1953-0.1953-0.1953-0.5117,0-0.707l4.0664-4.0664
		c0.1953-0.1953,0.5117-0.1953,0.707,0s0.1953,0.5117,0,0.707l-4.0664,4.0664C17.8213,23.1436,17.6934,23.1924,17.5654,23.1924z"/>
	<path d="M6.606,20.5615c-0.2388,0-0.4502-0.1709-0.4922-0.4141C6.0664,19.875,6.249,19.6162,6.521,19.5693l2.3525-0.4082
		c2.3711-0.4131,4.0269-2.3623,4.0269-4.7422v-3.3398c0-1.7231,0.6855-3.0806,2.3662-4.6855l4.8906-4.27
		c0.208-0.1826,0.5225-0.1606,0.7061,0.0479c0.1816,0.208,0.1602,0.5234-0.0479,0.7051l-4.874,4.2554
		c-1.4639,1.3984-2.041,2.5093-2.041,3.9473v3.3398c0,2.875-1.9966,5.2295-4.856,5.7266l-2.3525,0.4082
		C6.6631,20.5596,6.6343,20.5615,6.606,20.5615z"/>
</g>
<rect x="-0.0137" y="0.0001" fill="none" width="24" height="24"/>
</svg>
