<?xml version="1.0" encoding="utf-8"?>
<!-- Generator: Adobe Illustrator 18.1.0, SVG Export Plug-In . SVG Version: 6.00 Build 0)  -->
<svg version="1.1" id="Layer_1" xmlns="http://www.w3.org/2000/svg" xmlns:xlink="http://www.w3.org/1999/xlink" x="0px" y="0px"
	 width="24px" height="24px" viewBox="0 0 24 24" enable-background="new 0 0 24 24" xml:space="preserve">
<g>
	<path d="M12,23.7539c-6.4805,0-11.7529-5.2725-11.7529-11.7529S5.5195,0.248,12,0.248S23.7529,5.5205,23.7529,12.001
		S18.4805,23.7539,12,23.7539z M12,1.248c-5.9292,0-10.7529,4.8237-10.7529,10.7529c0,5.9287,4.8237,10.7529,10.7529,10.7529
		c5.9287,0,10.7529-4.8242,10.7529-10.7529C22.7529,6.0718,17.9287,1.248,12,1.248z"/>
	<path d="M12.3301,12.8965c-0.1289,0-0.2559-0.0498-0.3525-0.1455L6.2515,7.062c-0.1958-0.1943-0.1968-0.5112-0.002-0.707
		c0.1943-0.1948,0.5112-0.1963,0.707-0.002l5.4556,5.4204l3.1514-1.8008c0.2363-0.1367,0.5439-0.0557,0.6826,0.186
		c0.1367,0.2397,0.0537,0.5449-0.1865,0.6821l-3.4814,1.9902C12.501,12.875,12.415,12.8965,12.3301,12.8965z"/>
	<path d="M20.2148,13.1592c-0.7236,0-1.3125-0.5889-1.3125-1.3125s0.5889-1.312,1.3125-1.312s1.3115,0.5884,1.3115,1.312
		S20.9385,13.1592,20.2148,13.1592z M20.2148,11.5347c-0.1719,0-0.3125,0.1401-0.3125,0.312s0.1406,0.3125,0.3125,0.3125
		s0.3115-0.1406,0.3115-0.3125S20.3867,11.5347,20.2148,11.5347z"/>
	<path d="M3.7852,13.1592c-0.7231,0-1.3115-0.5889-1.3115-1.3125s0.5884-1.312,1.3115-1.312c0.7236,0,1.312,0.5884,1.312,1.312
		S4.5088,13.1592,3.7852,13.1592z M3.7852,11.5347c-0.1719,0-0.3115,0.1401-0.3115,0.312s0.1396,0.3125,0.3115,0.3125
		s0.312-0.1406,0.312-0.3125S3.957,11.5347,3.7852,11.5347z"/>
	<path d="M11.9917,4.9819c-0.7236,0-1.312-0.5884-1.312-1.312s0.5884-1.312,1.312-1.312c0.7231,0,1.312,0.5884,1.312,1.312
		S12.7148,4.9819,11.9917,4.9819z M11.9917,3.3579c-0.1719,0-0.312,0.1401-0.312,0.312s0.1401,0.312,0.312,0.312
		c0.1724,0,0.312-0.1401,0.312-0.312S12.1641,3.3579,11.9917,3.3579z"/>
	<path d="M11.9917,21.3965c-0.7236,0-1.312-0.5889-1.312-1.3125s0.5884-1.3115,1.312-1.3115c0.7231,0,1.312,0.5879,1.312,1.3115
		S12.7148,21.3965,11.9917,21.3965z M11.9917,19.7725c-0.1719,0-0.312,0.1396-0.312,0.3115s0.1401,0.3125,0.312,0.3125
		c0.1724,0,0.312-0.1406,0.312-0.3125S12.1641,19.7725,11.9917,19.7725z"/>
	<path d="M7.8296,5.29c-0.1299,0-0.2598-0.0503-0.3496-0.1504C7.3896,5.0498,7.3296,4.9199,7.3296,4.79
		c0-0.1304,0.0601-0.2603,0.1504-0.3604c0.1797-0.1797,0.5098-0.1797,0.6997,0c0.1001,0.1001,0.1602,0.23,0.1602,0.3604
		c0,0.1299-0.0601,0.2598-0.1499,0.3496C8.0898,5.2397,7.96,5.29,7.8296,5.29z"/>
	<path d="M7.8296,19.4697c-0.1299,0-0.2598-0.0498-0.3496-0.1504c-0.0903-0.0898-0.1504-0.2197-0.1504-0.3496
		s0.0601-0.25,0.1504-0.3496c0.1997-0.2002,0.5298-0.1904,0.71,0c0.0898,0.0898,0.1396,0.2197,0.1396,0.3496
		s-0.0498,0.2598-0.1396,0.3496C8.0996,19.4199,7.9697,19.4697,7.8296,19.4697z"/>
	<path d="M16.0693,5.2397c-0.1299,0-0.2598-0.0498-0.3496-0.1401C15.6201,5,15.5693,4.8696,15.5693,4.7397
		S15.6201,4.48,15.71,4.3896c0.1895-0.1899,0.5195-0.1899,0.71-0.0098c0.0996,0.1099,0.1494,0.2397,0.1494,0.3599
		c0,0.1299-0.0498,0.2603-0.1396,0.3501C16.3193,5.1899,16.2002,5.2397,16.0693,5.2397z"/>
	<path d="M16.0693,19.5195c-0.1299,0-0.2598-0.0498-0.3496-0.1494c-0.0996-0.1006-0.1504-0.2207-0.1504-0.3506
		s0.0508-0.2598,0.1406-0.3496c0.1895-0.2002,0.5303-0.1904,0.71-0.0098c0.0996,0.0996,0.1494,0.2295,0.1494,0.3594
		s-0.0498,0.25-0.1396,0.3398C16.3193,19.4697,16.2002,19.5195,16.0693,19.5195z"/>
	<path d="M19.0996,8.2397c-0.1299,0-0.2598-0.0498-0.3594-0.1499c-0.0801-0.0801-0.1406-0.21-0.1406-0.3501
		c0-0.1299,0.0605-0.2598,0.1504-0.3501c0.1797-0.1797,0.5098-0.1899,0.7002-0.0098c0.0996,0.1099,0.1494,0.23,0.1494,0.3599
		S19.5498,8,19.46,8.0996C19.3594,8.1899,19.2295,8.2397,19.0996,8.2397z"/>
	<path d="M19.0996,16.5303c-0.1299,0-0.2598-0.0508-0.3594-0.1504c-0.0801-0.0801-0.1406-0.21-0.1406-0.3496
		c0-0.1309,0.0498-0.2607,0.1504-0.3506c0.1797-0.1797,0.5098-0.1895,0.7002-0.0098c0.0996,0.1104,0.1494,0.2295,0.1494,0.3604
		c0,0.1299-0.0498,0.2598-0.1396,0.3496C19.3594,16.4795,19.2295,16.5303,19.0996,16.5303z"/>
	<path d="M4.8296,8.3198c-0.1196,0-0.25-0.0498-0.3496-0.1401c-0.0903-0.1001-0.1504-0.23-0.1504-0.3599
		c0-0.1401,0.0601-0.27,0.1504-0.3599c0.1899-0.1802,0.52-0.1802,0.71,0c0.0898,0.0898,0.1396,0.2197,0.1396,0.3599
		c0,0.1299-0.0498,0.2598-0.1396,0.3501C5.0898,8.27,4.96,8.3198,4.8296,8.3198z"/>
	<path d="M4.8296,16.46c-0.1196,0-0.25-0.0605-0.3496-0.1406C4.3799,16.21,4.3296,16.0898,4.3296,15.96s0.0601-0.2598,0.1504-0.3604
		c0.1899-0.1895,0.5298-0.1797,0.71,0.0098c0.0898,0.0801,0.1396,0.21,0.1396,0.3506c0,0.1299-0.0498,0.2598-0.1396,0.3496
		C5.0898,16.3994,4.9697,16.46,4.8296,16.46z"/>
</g>
<rect fill="none" width="24" height="24"/>
</svg>
