<?xml version="1.0" encoding="utf-8"?>
<!-- Generator: Adobe Illustrator 18.1.0, SVG Export Plug-In . SVG Version: 6.00 Build 0)  -->
<svg version="1.1" id="Layer_1" xmlns="http://www.w3.org/2000/svg" xmlns:xlink="http://www.w3.org/1999/xlink" x="0px" y="0px"
	 width="24px" height="24px" viewBox="0 0 24 24" enable-background="new 0 0 24 24" xml:space="preserve">
<g>
	<path d="M12.0273,23.9238c-0.2178,0-0.4102-0.1406-0.4766-0.3477l-3.856-12.0933c-0.0835-0.2632,0.0615-0.5444,0.3247-0.6284
		c0.2607-0.0845,0.5439,0.0615,0.6284,0.3247l3.3784,10.5962l3.3164-10.4341c0.083-0.2627,0.3672-0.4087,0.6279-0.3252
		c0.2637,0.0835,0.4092,0.3647,0.3252,0.6279l-3.792,11.9312C12.4375,23.7832,12.2451,23.9238,12.0273,23.9238L12.0273,23.9238z"/>
	<path d="M13.2051,13.8799c-0.957,0-1.9951-0.5205-2.377-1.668c-0.7393,0.1855-1.5425,0.0195-2.1484-0.4434
		c-1.0337,0.251-2.0913-0.2954-2.4863-1.2827c-0.2856-0.7148-0.1792-1.4805,0.27-2.0723C5.7505,6.6255,5.9365,4.6187,6.9814,2.9824
		c1.1069-1.7329,2.9932-2.7671,5.0459-2.7671c2.0664,0,3.96,1.0454,5.0645,2.7959c1.0361,1.6431,1.21,3.647,0.4883,5.4307
		c0.5146,0.5664,0.6855,1.356,0.4316,2.1064c-0.3291,0.9766-1.3057,1.5815-2.3135,1.4331
		c-0.1025,0.4395-0.3145,0.8281-0.6279,1.1445C14.5957,13.6055,13.916,13.8799,13.2051,13.8799z M11.0566,11.1045
		c0.0298,0,0.0591,0.0024,0.0884,0.0078l0.103,0.0161c0.2197,0.0322,0.4204,0.21,0.4512,0.4297
		c0.1362,0.9741,0.8672,1.3218,1.5059,1.3218c0.4463,0,0.8672-0.167,1.1543-0.457c0.2754-0.2783,0.4121-0.6445,0.4082-1.0903
		c-0.002-0.1738,0.0869-0.3359,0.2344-0.4282s0.3311-0.1021,0.4873-0.0249c0.165,0.0815,0.333,0.123,0.5,0.123
		c0.6006,0,0.9492-0.3999,1.0752-0.7739c0.126-0.3721,0.0898-0.8994-0.3887-1.2646c-0.1885-0.1436-0.25-0.3994-0.1484-0.6128
		c0.7422-1.5537,0.6367-3.3501-0.2822-4.8062c-0.9199-1.4585-2.4961-2.3296-4.2178-2.3296c-1.71,0-3.2812,0.8618-4.2031,2.3052
		C6.9038,4.9614,6.7837,6.7471,7.502,8.2979c0.0903,0.1943,0.0464,0.4243-0.1089,0.5723c-0.4106,0.3906-0.4092,0.8989-0.271,1.2446
		s0.4873,0.7148,1.0532,0.7148c0.1455,0,0.2896-0.0288,0.4287-0.0854c0.1851-0.0737,0.3955-0.0337,0.5376,0.1045
		c0.4517,0.439,1.1323,0.561,1.709,0.3003C10.916,11.1196,10.9858,11.1045,11.0566,11.1045z"/>
	<path d="M9.0801,6.6641c-0.1279,0-0.2559-0.0488-0.3535-0.1465c-0.1953-0.1953-0.1953-0.5117,0-0.707l0.2397-0.2397
		c0.1953-0.1953,0.5117-0.1953,0.707,0s0.1953,0.5117,0,0.707L9.4336,6.5176C9.3359,6.6152,9.208,6.6641,9.0801,6.6641z"/>
	<path d="M15.1143,5.7212c-0.1279,0-0.2559-0.0488-0.3535-0.147c-0.1953-0.1953-0.1953-0.5117,0-0.707l0.2402-0.2397
		c0.1953-0.1943,0.5117-0.1953,0.707,0.001c0.1953,0.1953,0.1953,0.5117,0,0.707l-0.2402,0.2397
		C15.3701,5.6724,15.2422,5.7212,15.1143,5.7212z"/>
	<path d="M14.1719,9.1982c-0.1279,0-0.2549-0.0483-0.3525-0.1455c-0.1963-0.1953-0.1963-0.5117-0.002-0.7075l0.2393-0.2402
		c0.1953-0.1953,0.5117-0.1958,0.707-0.0015C14.96,8.2988,14.96,8.6152,14.7656,8.811l-0.2393,0.2402
		C14.4287,9.1489,14.2998,9.1982,14.1719,9.1982z"/>
	<path d="M9.9214,3.7896c-0.2686,0-0.4907-0.2134-0.499-0.4844C9.4136,3.0293,9.6299,2.7983,9.9062,2.79l0.3394-0.0107
		c0.2842-0.019,0.5068,0.2075,0.5151,0.4839c0.0088,0.2759-0.2075,0.5068-0.4839,0.5151L9.9375,3.7891
		C9.9321,3.7896,9.9268,3.7896,9.9214,3.7896z"/>
	<path d="M12.3789,6.5547c-0.2695,0-0.4917-0.2139-0.5-0.4849c-0.0083-0.2759,0.209-0.5063,0.4854-0.5151l0.3389-0.0103
		c0.2852,0.0078,0.5059,0.209,0.5146,0.4849c0.0078,0.2759-0.209,0.5063-0.4854,0.5151l-0.3389,0.0103
		C12.3887,6.5547,12.3838,6.5547,12.3789,6.5547z"/>
	<path d="M12.5479,3.7949c-0.2695,0-0.4912-0.2134-0.5-0.4844c-0.0088-0.2759,0.208-0.5068,0.4844-0.5151l0.3398-0.0107
		c0.2812-0.0317,0.5068,0.208,0.5156,0.4839s-0.208,0.5068-0.4844,0.5151l-0.3398,0.0107
		C12.5586,3.7949,12.5527,3.7949,12.5479,3.7949z"/>
	<path d="M11.0293,9.4175c-0.2754,0-0.499-0.2231-0.5-0.4985l-0.001-0.3394c-0.001-0.2764,0.2227-0.5005,0.4985-0.5015
		c0.0005,0,0.001,0,0.0015,0c0.2754,0,0.499,0.2227,0.5,0.4985l0.001,0.3394c0.001,0.2764-0.2227,0.5005-0.4985,0.5015
		C11.0303,9.4175,11.0298,9.4175,11.0293,9.4175z"/>
</g>
<rect x="0.0142" y="0.0346" fill="none" width="24" height="24"/>
</svg>
