<?xml version="1.0" encoding="utf-8"?>
<!-- Generator: Adobe Illustrator 18.1.0, SVG Export Plug-In . SVG Version: 6.00 Build 0)  -->
<svg version="1.1" id="Layer_1" xmlns="http://www.w3.org/2000/svg" xmlns:xlink="http://www.w3.org/1999/xlink" x="0px" y="0px"
	 width="24px" height="24px" viewBox="0 0 24 24" enable-background="new 0 0 24 24" xml:space="preserve">
<g>
	<path fill="none" stroke="#000000" stroke-linecap="round" stroke-linejoin="round" stroke-miterlimit="3.864" d="M6.6725,7.9396
		c0,0,2.1462-0.4463,2.252-2.9168"/>
	<path fill="none" stroke="#000000" stroke-linecap="round" stroke-linejoin="round" stroke-miterlimit="3.864" d="M17.3543,7.9396
		c0,0-2.1462-0.4463-2.252-2.9168"/>
	<path fill="none" stroke="#000000" stroke-linecap="round" stroke-linejoin="round" stroke-miterlimit="3.864" d="M5.9876,4.1309"
		/>
	<path fill="none" stroke="#000000" stroke-linecap="round" stroke-linejoin="round" stroke-miterlimit="3.864" d="M18.0392,4.1309"
		/>
	<polygon fill="none" stroke="#000000" stroke-linecap="round" stroke-linejoin="round" stroke-miterlimit="3.864" points="
		23.2172,21.84 23.217,21.8396 23.2155,21.84 	"/>
	<path d="M12.0137,3.4927c-2.1445,0-4.2114-0.1206-5.9771-0.3481c-0.2495-0.0322-0.436-0.2446-0.436-0.4961V0.834
		c0-0.144,0.062-0.2808,0.1699-0.3755s0.252-0.1357,0.3945-0.1206c3.4316,0.4453,8.2656,0.4453,11.6963,0
		c0.1445-0.0146,0.2871,0.0259,0.3945,0.1206c0.1084,0.0947,0.1699,0.2314,0.1699,0.3755v1.8145
		c0,0.2515-0.1865,0.4639-0.4355,0.4961C16.2256,3.3721,14.1592,3.4927,12.0137,3.4927z M6.6006,2.2061
		c3.2505,0.3755,7.5781,0.3755,10.8252,0V1.3979c-3.2578,0.3667-7.5664,0.3677-10.8252,0V2.2061z"/>
	<path d="M12.0137,23.6895c-4.9717,0-8.7969-0.4639-11.3696-1.3789c-0.2495-0.0879-0.3867-0.3564-0.3125-0.6113L5.5078,3.9907
		l0.96,0.2803l-5.042,17.2476c2.4585,0.7773,6.0161,1.1709,10.5879,1.1709c4.5713,0,8.1289-0.3936,10.5869-1.1709L17.5596,4.271
		c-0.0781-0.2646,0.0742-0.5425,0.3389-0.6201c0.2686-0.0801,0.543,0.0752,0.6201,0.3398l5.1777,17.7085
		c0.0752,0.2549-0.0625,0.5234-0.3125,0.6113C20.8096,23.2256,16.9844,23.6895,12.0137,23.6895z"/>
	<path d="M12.0137,23.6895c-0.2764,0-0.5-0.2236-0.5-0.5v-2.7949c0-0.2764,0.2236-0.5,0.5-0.5s0.5,0.2236,0.5,0.5v2.7949
		C12.5137,23.4658,12.29,23.6895,12.0137,23.6895z"/>
	<path d="M6.3589,23.4404c-0.0293,0-0.0591-0.0029-0.0889-0.0078c-0.2715-0.0488-0.4526-0.3086-0.4038-0.5801l1.8506-10.3184
		c0.0488-0.2725,0.3062-0.4512,0.5806-0.4043C8.5688,12.1787,8.75,12.4385,8.7012,12.71L6.8506,23.0283
		C6.8071,23.2705,6.5967,23.4404,6.3589,23.4404z"/>
	<path d="M17.667,23.2139c-0.2412,0-0.4541-0.1758-0.4932-0.4219l-1.0156-6.4219c-0.043-0.2725,0.1436-0.5293,0.416-0.5723
		c0.2656-0.043,0.5283,0.1426,0.5723,0.416l1.0156,6.4219c0.043,0.2725-0.1436,0.5293-0.416,0.5723
		C17.7197,23.2119,17.6934,23.2139,17.667,23.2139z"/>
</g>
<rect x="0.0142" y="0.0344" fill="none" width="24" height="24"/>
</svg>
