<?xml version="1.0" encoding="utf-8"?>
<!-- Generator: Adobe Illustrator 18.1.0, SVG Export Plug-In . SVG Version: 6.00 Build 0)  -->
<svg version="1.1" id="Layer_1" xmlns="http://www.w3.org/2000/svg" xmlns:xlink="http://www.w3.org/1999/xlink" x="0px" y="0px"
	 width="24px" height="24px" viewBox="0 0 24 24" enable-background="new 0 0 24 24" xml:space="preserve">
<g>
	<path d="M18.2207,16.4014c-1.4238,0-2.9629-0.3535-4.4336-1.0918c-2.1797-1.0947-4.0776-3.2295-4.7231-5.312
		C8.982,9.7339,9.1299,9.4537,9.3936,9.3721C9.6602,9.292,9.9375,9.4385,10.019,9.7017c0.561,1.8105,2.2954,3.7485,4.2173,4.7134
		c3.3691,1.6934,7.1025,1.1797,8.3213-1.1436c1.1719-2.2368-1.2646-5.5703-4.2754-7.2803C18.042,5.855,17.958,5.5498,18.0947,5.3096
		c0.1357-0.2407,0.4414-0.3252,0.6816-0.1875c3.4023,1.9316,6.1543,5.7744,4.667,8.6143
		C22.5342,15.4697,20.5293,16.4014,18.2207,16.4014z"/>
	<path d="M9.5244,10.3599c-0.7261,0-1.3169-0.583-1.3169-1.2993s0.5908-1.2993,1.3169-1.2993s1.3164,0.583,1.3164,1.2993
		S10.2505,10.3599,9.5244,10.3599z M9.5244,8.7612c-0.1748,0-0.3169,0.1343-0.3169,0.2993s0.1421,0.2993,0.3169,0.2993
		c0.1743,0,0.3164-0.1343,0.3164-0.2993S9.6987,8.7612,9.5244,8.7612z"/>
	<path d="M9.5293,23.8086c-4.7207,0-9.5-1.1143-9.5-3.2451v-7.0752c0-0.2764,0.2236-0.5,0.5-0.5s0.5,0.2236,0.5,0.5v7.0752
		c0,0.915,3.311,2.2451,8.5,2.2451c5.1885,0,8.5-1.3301,8.5-2.2451V2.6758c0-0.2764,0.2236-0.5,0.5-0.5s0.5,0.2236,0.5,0.5v17.8877
		C19.0293,22.6943,14.25,23.8086,9.5293,23.8086z"/>
	<path d="M1.873,12.3486c-0.4639,0-0.9023-0.1426-1.2344-0.4023c-0.396-0.3091-0.6138-0.7651-0.6138-1.2842
		c0-0.0098,0.0122-7.9873,0.0122-7.9873l1,0.002l-0.0122,7.9858c0,0.6665,0.7612,0.686,0.8481,0.686
		c0.3115,0,0.8384-0.1406,0.8384-0.668l-0.001-2.3867l0,0l1-0.0176c0,0.2793,0.1021,0.4814,0.312,0.6348
		c0.2114,0.1548,0.5181,0.2437,0.8408,0.2437c0.4277,0,1.1523-0.1812,1.1523-0.8608V4.6226c0-0.2764,0.2241-0.5,0.5-0.5l0,0
		c0.2764,0,0.5,0.2241,0.5,0.5v3.6538C7.0151,9.998,4.9141,10.5039,3.7109,9.8896l0.0005,0.791
		C3.7114,11.7754,2.7866,12.3486,1.873,12.3486z"/>
	<path d="M9.5269,5.2383c-3.5293,0-9.502-0.5396-9.502-2.5625s5.9727-2.5625,9.502-2.5625c3.5298,0,9.5024,0.5396,9.5024,2.5625
		S13.0566,5.2383,9.5269,5.2383z M9.5269,1.1133c-5.3237,0-8.4092,1.0337-8.502,1.5645c0.0928,0.5269,3.1782,1.5605,8.502,1.5605
		s8.4097-1.0337,8.5024-1.5645C17.9365,2.147,14.8506,1.1133,9.5269,1.1133z"/>
</g>
<rect x="0.0293" y="0.0001" fill="none" width="24" height="24"/>
</svg>
