<?xml version="1.0" encoding="utf-8"?>
<!-- Generator: Adobe Illustrator 18.1.0, SVG Export Plug-In . SVG Version: 6.00 Build 0)  -->
<svg version="1.1" id="Layer_1" xmlns="http://www.w3.org/2000/svg" xmlns:xlink="http://www.w3.org/1999/xlink" x="0px" y="0px"
	 width="24px" height="24px" viewBox="0 0 24 24" enable-background="new 0 0 24 24" xml:space="preserve">
<g>
	<path d="M12.9863,23h-13c-0.2764,0-0.5-0.2236-0.5-0.5s0.2236-0.5,0.5-0.5h13c0.2764,0,0.5,0.2236,0.5,0.5S13.2627,23,12.9863,23z"
		/>
	<path d="M2.4048,16.3467c-0.2832,0-0.5332-0.1768-0.627-0.4521c-0.0972-0.2871,0.0054-0.5908,0.2495-0.7598l-2.5015-1.7236
		c-0.1411-0.0977-0.2227-0.2607-0.2158-0.4326c0.0068-0.1709,0.1011-0.3271,0.25-0.4131l0.7271-0.4189
		c0.1064-0.0615,0.2349-0.082,0.355-0.0547c0.8052,0.1738,1.4785,0.3311,2.0508,0.4639c2.2324,0.5215,2.7305,0.6143,3.5005,0.1719
		l3.0527-1.7627L5.6826,7.6802C5.5659,7.5723,5.5068,7.4155,5.5244,7.2573S5.6338,6.959,5.7715,6.8794l0.3975-0.2295
		C6.2944,6.5767,6.4468,6.562,6.5845,6.6113l6.3501,2.2241l3.7666-2.1743c0.3564-0.2007,3.4941-1.9263,5.2334-1.292
		c0.5303,0.1943,0.6387,0.5615,0.6562,0.7632c0.082,0.9419-1.668,2.0991-2.7178,2.7056L9.5767,14.7822
		c-0.1592,0.0693-2.3955,0.9395-7.082,1.5586C2.4644,16.3447,2.4346,16.3467,2.4048,16.3467z M0.9604,13.1846l2.2842,1.5742
		c0.1411,0.0977,0.2227,0.2607,0.2158,0.4316c0,0.001,0,0.002,0,0.0029c3.8057-0.583,5.6631-1.3008,5.6826-1.3086l10.23-5.9131
		c0.9814-0.5669,1.9316-1.3057,2.1689-1.6699c-1.0771-0.2881-3.207,0.5874-4.3457,1.228l-3.9609,2.2866
		c-0.126,0.0728-0.2773,0.0874-0.415,0.0386L7.4932,7.9893l3.5737,3.2939c0.2031,0.187,0.2158,0.5034,0.0288,0.7065
		c-0.1875,0.2026-0.5029,0.2163-0.7065,0.0288l-0.373-0.3438l-3.3228,1.918c-1.1396,0.6592-1.981,0.4609-4.228-0.0625
		C2.0278,13.4277,1.5308,13.3115,0.9604,13.1846z"/>
	<path d="M14.4404,15.7266c-0.124,0-0.2471-0.0459-0.3428-0.1357l-1.4697-1.3828c-0.2012-0.1895-0.2109-0.5059-0.0215-0.707
		s0.5059-0.2109,0.707-0.0215l1.1582,1.0898l0.1025-0.0801l0.2334-2.085c0.0303-0.2744,0.2822-0.4707,0.5527-0.4414
		c0.2744,0.0308,0.4717,0.2783,0.4414,0.5527l-0.2568,2.2949c-0.0156,0.1338-0.084,0.2568-0.1904,0.3389l-0.6074,0.4717
		C14.6562,15.6914,14.5488,15.7266,14.4404,15.7266z"/>
</g>
<rect x="-1.0136" y="0.0002" fill="none" width="24" height="24"/>
</svg>
