<?xml version="1.0" encoding="utf-8"?>
<!-- Generator: Adobe Illustrator 18.1.0, SVG Export Plug-In . SVG Version: 6.00 Build 0)  -->
<svg version="1.1" id="Layer_1" xmlns="http://www.w3.org/2000/svg" xmlns:xlink="http://www.w3.org/1999/xlink" x="0px" y="0px"
	 width="24px" height="24px" viewBox="0 0 24 24" enable-background="new 0 0 24 24" xml:space="preserve">
<g>
	<path d="M23.2891,5.9473c-0.0049,0.0005-0.0127,0-0.0195,0H4.7983c-0.2031,0-0.3862-0.123-0.4629-0.311
		S4.3032,5.2324,4.4482,5.0903l3.0225-2.9648C7.564,2.0337,7.6899,1.9824,7.8208,1.9824l0,0l12.4565,0.0029
		c0.1318,0,0.2578,0.0522,0.3516,0.1445l2.9189,2.8892c0.1445,0.0874,0.2412,0.2466,0.2412,0.4282
		C23.7891,5.7236,23.5654,5.9473,23.2891,5.9473z M6.022,4.9473h16.0317l-1.9824-1.9619L8.0249,2.9824L6.022,4.9473z"/>
	<g>
		<path d="M16.1934,22.2227c-0.1748,0-0.3525-0.0264-0.5312-0.0791l-5.8101-1.7051c-0.2651-0.0771-0.417-0.3555-0.3394-0.6201
			c0.0781-0.2646,0.356-0.415,0.6206-0.3389l5.8101,1.7051c0.2256,0.0635,0.4229,0.0469,0.5869-0.0557
			c0.1494-0.0947,0.2676-0.2598,0.3242-0.4531c0.0967-0.332,0.0264-0.7734-0.4941-0.9268l-5.5308-1.623
			c-0.7686-0.2256-3.4912-0.4072-6.1826,0.0293c-0.2744,0.0469-0.5298-0.1416-0.5737-0.4131
			c-0.0439-0.2725,0.1411-0.5293,0.4136-0.5732c2.7837-0.4531,5.6362-0.292,6.624-0.002l5.5308,1.623
			c1.0928,0.3203,1.417,1.333,1.1719,2.167c-0.126,0.4297-0.3916,0.791-0.748,1.0166
			C16.8047,22.1387,16.5059,22.2227,16.1934,22.2227z"/>
		<path d="M14.3291,23.7734c-1.8848,0-4.4419-0.3896-7.1001-1.5781c-0.4912-0.2178-1.4995,0.0576-2.1675,0.2402l-0.3701,0.0996
			c-0.2666,0.0703-0.5396-0.0908-0.6089-0.3604c-0.0688-0.2676,0.0928-0.54,0.3599-0.6084l0.355-0.0957
			c0.9014-0.2461,2.0229-0.5527,2.8398-0.1875c4.4019,1.9668,8.1685,1.5508,8.9712,1.1855l5.8516-2.668
			c0.5283-0.2412,0.4727-0.7354,0.3574-0.9893c-0.0508-0.1133-0.3418-0.6592-1.0107-0.3535l-4.3086,1.9639
			c-0.2471,0.1133-0.5469,0.0049-0.6621-0.248c-0.1143-0.251-0.0039-0.5479,0.248-0.6621l4.3086-1.9639
			c1.0596-0.4854,1.9746,0.0615,2.335,0.8486c0.3516,0.7725,0.1729,1.8467-0.8535,2.3145l-5.8516,2.668
			C16.5312,23.6025,15.5771,23.7734,14.3291,23.7734z"/>
		<path d="M4.5483,24h-4c-0.2764,0-0.5-0.2236-0.5-0.5v-7c0-0.2764,0.2236-0.5,0.5-0.5h4c0.2764,0,0.5,0.2236,0.5,0.5v7
			C5.0483,23.7764,4.8247,24,4.5483,24z M1.0483,23h3v-6h-3V23z"/>
	</g>
	<path d="M23.2695,9.9473H4.7983c-0.2031,0-0.3862-0.123-0.4629-0.311S4.3032,9.2324,4.4482,9.0903l2.0186-1.9795
		c0.1963-0.1938,0.5137-0.1904,0.707,0.0068s0.1904,0.5137-0.0068,0.707L6.0225,8.9473h16.0312l-1.1357-1.124
		c-0.1963-0.1943-0.1982-0.5107-0.0039-0.707c0.1934-0.1968,0.5107-0.1978,0.707-0.0039l2,1.9795
		c0.1445,0.1426,0.1875,0.3579,0.1113,0.5454C23.6553,9.8247,23.4727,9.9473,23.2695,9.9473z"/>
	<path d="M23.2695,13.9473H4.7983c-0.2031,0-0.3862-0.123-0.4629-0.3105c-0.0767-0.1885-0.0322-0.4043,0.1128-0.5469l2.0186-1.979
		c0.1963-0.1938,0.5137-0.1914,0.707,0.0068c0.1934,0.1973,0.1904,0.5137-0.0068,0.707l-1.1445,1.1226h16.0312l-1.1357-1.124
		c-0.1963-0.1943-0.1982-0.5107-0.0039-0.707c0.1934-0.1968,0.5107-0.1978,0.707-0.0039l2,1.9795
		c0.1445,0.1426,0.1875,0.3584,0.1113,0.5459C23.6553,13.8252,23.4727,13.9473,23.2695,13.9473z"/>
</g>
<rect y="-0.003" fill="none" width="24" height="24"/>
</svg>
