<?xml version="1.0" encoding="utf-8"?>
<!-- Generator: Adobe Illustrator 18.1.0, SVG Export Plug-In . SVG Version: 6.00 Build 0)  -->
<svg version="1.1" id="Layer_1" xmlns="http://www.w3.org/2000/svg" xmlns:xlink="http://www.w3.org/1999/xlink" x="0px" y="0px"
	 width="24px" height="24px" viewBox="0 0 24 24" enable-background="new 0 0 24 24" xml:space="preserve">
<g>
	<path d="M9.6812,16.6592c-0.6567,0-1.1909-0.5342-1.1909-1.1904c0-0.6572,0.5342-1.1914,1.1909-1.1914s1.1909,0.5342,1.1909,1.1914
		C10.8721,16.125,10.3379,16.6592,9.6812,16.6592z M9.6812,15.2773c-0.1055,0-0.1909,0.0859-0.1909,0.1914
		c0,0.2109,0.3818,0.2109,0.3818,0C9.8721,15.3633,9.7866,15.2773,9.6812,15.2773z"/>
	<path d="M14.4531,16.6592c-0.6572,0-1.1914-0.5342-1.1914-1.1904c0-0.6572,0.5342-1.1914,1.1914-1.1914
		s1.1914,0.5342,1.1914,1.1914C15.6445,16.125,15.1104,16.6592,14.4531,16.6592z M14.4531,15.2773
		c-0.1055,0-0.1914,0.0859-0.1914,0.1914c0,0.2109,0.3828,0.2109,0.3828,0C14.6445,15.3633,14.5586,15.2773,14.4531,15.2773z"/>
	<path d="M12.0674,23.7705c-2.5654,0-6.6738-2.8848-7.2339-6.5195c-0.811-0.1973-1.4028-0.9189-1.4028-1.7754
		c0-0.5625,0.2593-1.085,0.6865-1.4277c-0.1973-0.5762-0.3145-0.9814-0.3145-1.7861c0-0.2764,0.2236-0.5,0.5-0.5s0.5,0.2236,0.5,0.5
		c0,0.709,0.0986,0.9941,0.3145,1.6191l0.0752,0.2188c0.0835,0.2441-0.0332,0.5117-0.2686,0.6172
		c-0.2998,0.1348-0.4932,0.4326-0.4932,0.7588c0,0.458,0.3726,0.8301,0.8306,0.8301c0.2607,0,0.5015,0.2002,0.522,0.46
		c0.2559,3.2568,4.042,6.0049,6.2842,6.0049c2.2949,0,6.0234-2.6904,6.2842-6.0049c0.0205-0.2607,0.2188-0.4199,0.5-0.4609
		c0.4805,0,0.8525-0.3721,0.8525-0.8291c0-0.3262-0.1934-0.624-0.4922-0.7588c-0.2363-0.1055-0.3525-0.373-0.2695-0.6172
		l0.0361-0.1045c0.2432-0.71,0.3535-1.0342,0.3535-1.7891c0-0.2764,0.2236-0.5,0.5-0.5s0.5,0.2236,0.5,0.5
		c0,0.8037-0.1162,1.248-0.3154,1.8408c0.4277,0.3428,0.6875,0.8662,0.6875,1.4287c0,0.8623-0.5996,1.5869-1.4043,1.7803
		C18.7588,20.75,14.9248,23.7705,12.0674,23.7705z"/>
	<path d="M6.5513,15.2773c-0.1577,0-0.3096-0.0752-0.4048-0.207c-0.0498-0.0654-0.5244-0.6641-1.2261-0.3516
		c-0.2539,0.1104-0.5479-0.0039-0.6587-0.2568c-0.1113-0.2529,0.0034-0.5479,0.2563-0.6592c0.625-0.2725,1.186-0.1914,1.6221,0.0166
		l0.1069-1.1211c0.0264-0.2744,0.2676-0.4688,0.5449-0.4512c0.2749,0.0264,0.4766,0.2705,0.4502,0.5449l-0.1934,2.0322
		c-0.0195,0.208-0.1655,0.3809-0.3662,0.4355C6.6392,15.2715,6.5947,15.2773,6.5513,15.2773z"/>
	<path d="M17.6084,15.2754c-0.0449,0-0.0908-0.0059-0.1357-0.0186c-0.1992-0.0566-0.3438-0.2285-0.3623-0.4346l-0.1865-2.0898
		c-0.0244-0.2754,0.1787-0.5186,0.4531-0.543c0.2715-0.0215,0.5176,0.1777,0.543,0.4531l0.1045,1.1738
		c0.4355-0.2041,0.9941-0.2871,1.6172-0.0137c0.2529,0.1113,0.3682,0.4062,0.2568,0.6592
		c-0.1113,0.2539-0.4053,0.3662-0.6592,0.2568c-0.7012-0.3105-1.1768,0.2852-1.2285,0.3555
		C17.915,15.2021,17.7637,15.2754,17.6084,15.2754z"/>
	<path d="M10.4966,19.2959c-0.708,0-1.2573-0.3389-1.4751-0.5449c-0.2007-0.1904-0.209-0.5068-0.019-0.707
		s0.5068-0.208,0.7065-0.0195c0.0649,0.0615,0.3862,0.3086,0.8311,0.2705c0.3916-0.0137,0.7715-0.2188,1.1279-0.6094
		c0.0947-0.1035,0.229-0.1621,0.3691-0.1621l0,0c0.1406,0,0.2744,0.0586,0.3691,0.1631c0.3584,0.3916,0.7402,0.5967,1.1338,0.6084
		c0.4297-0.002,0.7666-0.2139,0.8242-0.2705c0.2012-0.1934,0.5156-0.1865,0.707,0.0098c0.1924,0.1982,0.1875,0.5156-0.0098,0.707
		c-0.2236,0.2168-0.7656,0.5654-1.5518,0.5537c-0.3799-0.0117-0.916-0.1299-1.4727-0.584c-0.5527,0.4502-1.0845,0.5703-1.4614,0.583
		C10.5493,19.2949,10.5229,19.2959,10.4966,19.2959z"/>
	<path d="M11.7773,13.5566c-0.0005,0-0.0005,0-0.0005,0c-3.9072,0-7.6401-0.6064-11.0957-1.8018
		c-0.1968-0.0684-0.3306-0.251-0.3359-0.459c-0.0059-0.208,0.1182-0.3979,0.311-0.4766c0.0464-0.019,4.6704-1.9482,5.1802-5.748
		c0.4092-3.0532,1.5859-4.9497,3.0703-4.9497c0.8555,0,1.6602,0.6133,2.3931,1.8232c0.3076,0.5078,1.166,0.5083,1.4746-0.0005
		c0.7324-1.2095,1.5371-1.8228,2.3926-1.8228c1.4844,0,2.6611,1.8965,3.0703,4.9497c0.5107,3.8105,5.1338,5.7285,5.1807,5.7476
		c0.1914,0.0776,0.3145,0.2651,0.3115,0.4717c-0.0039,0.2065-0.1338,0.3896-0.3271,0.4609
		C23.2021,11.8252,18.4219,13.5566,11.7773,13.5566z M2.1616,11.1831c3.0229,0.9116,6.2515,1.3735,9.6152,1.3735
		c4.5933,0,8.3267-0.8701,10.1226-1.3813c-1.5684-0.8926-4.2344-2.8447-4.6523-5.9712c-0.3604-2.6802-1.3193-4.0825-2.0801-4.0825
		c-0.4678,0-1.0137,0.4761-1.5371,1.3408c-0.3379,0.5566-0.9326,0.8882-1.5928,0.8882c-0.6606,0-1.2559-0.332-1.5928-0.8882
		C9.9204,1.5977,9.3745,1.1216,8.9067,1.1216c-0.7612,0-1.7197,1.4023-2.0791,4.0825C6.4072,8.3394,3.728,10.2935,2.1616,11.1831z"
		/>
	<path d="M11.873,10.4136c-1.8398,0-3.8486-0.1411-5.9331-0.5176C5.668,9.8467,5.4878,9.5864,5.5366,9.3149
		c0.0498-0.2715,0.3047-0.4521,0.5811-0.4033C10.79,9.7568,15.082,9.3794,17.8564,8.9141c0.2744-0.0474,0.5303,0.1382,0.5762,0.4106
		s-0.1387,0.5303-0.4102,0.5757C16.4033,10.1714,14.2832,10.4136,11.873,10.4136z"/>
	<path d="M12.79,21.0137h-1.4453c-0.2764,0-0.5-0.2236-0.5-0.5s0.2236-0.5,0.5-0.5H12.79c0.2764,0,0.5,0.2236,0.5,0.5
		S13.0664,21.0137,12.79,21.0137z"/>
</g>
<rect x="0.0005" y="0.0004" fill="none" width="24" height="24"/>
</svg>
