<?xml version="1.0" encoding="utf-8"?>
<!-- Generator: Adobe Illustrator 18.1.0, SVG Export Plug-In . SVG Version: 6.00 Build 0)  -->
<svg version="1.1" id="Layer_1" xmlns="http://www.w3.org/2000/svg" xmlns:xlink="http://www.w3.org/1999/xlink" x="0px" y="0px"
	 width="24px" height="24px" viewBox="0 0 24 24" enable-background="new 0 0 24 24" xml:space="preserve">
<g>
	<path d="M21.5146,5.0049h-4c-0.2764,0-0.5-0.2236-0.5-0.5v-4c0-0.2764,0.2236-0.5,0.5-0.5s0.5,0.2236,0.5,0.5v3.5h3.5
		c0.2764,0,0.5,0.2236,0.5,0.5S21.791,5.0049,21.5146,5.0049z"/>
	<path d="M20.7227,24.0049H5.3018c-0.71,0-1.2871-0.583-1.2871-1.2998v-2.6611c0-0.2764,0.2236-0.5,0.5-0.5s0.5,0.2236,0.5,0.5
		v2.6611c0,0.1621,0.1313,0.2998,0.2871,0.2998h15.4209c0.1582,0,0.292-0.1377,0.292-0.2998V4.5049c0-0.0352,0-0.0542-0.0879-0.1406
		l-3.3125-3.2686c-0.0273-0.0278-0.0859-0.0854-0.1064-0.0977L5.3018,1.0049c-0.1558,0-0.2871,0.1401-0.2871,0.3057v2.6851
		c0,0.2764-0.2236,0.5-0.5,0.5s-0.5-0.2236-0.5-0.5V1.3105c0-0.7197,0.5771-1.3057,1.2871-1.3057h12.2129
		c0.418,0,0.6406,0.2192,0.8027,0.3789l3.3125,3.2686c0.1787,0.1772,0.3848,0.4341,0.3848,0.8525v18.2002
		C22.0146,23.4219,21.4346,24.0049,20.7227,24.0049z"/>
	<path d="M6.3486,14.3359c-1.2246,0-2.2207-0.9961-2.2207-2.2207c0-1.2241,0.9961-2.2202,2.2207-2.2202
		c1.2241,0,2.2202,0.9961,2.2202,2.2202C8.5688,13.3398,7.5728,14.3359,6.3486,14.3359z M6.3486,10.895
		c-0.6733,0-1.2207,0.5474-1.2207,1.2202s0.5474,1.2207,1.2207,1.2207c0.6729,0,1.2202-0.5479,1.2202-1.2207
		S7.0215,10.895,6.3486,10.895z"/>
	<path d="M4.9316,18.1729c-0.0415,0-0.083-0.0049-0.1245-0.0156c-0.5742-0.1475-1.0806-0.3555-1.5928-0.6523
		c-0.1948-0.1133-0.29-0.3428-0.2324-0.5605L3.2979,15.75c-0.1997-0.168-0.3853-0.3516-0.5552-0.5508l-1.1943,0.3262
		c-0.2163,0.0586-0.4473-0.0332-0.5625-0.2285c-0.2896-0.4893-0.5195-1.0381-0.665-1.5869
		c-0.0576-0.2178,0.0371-0.4473,0.2319-0.5605l1.0688-0.6211c-0.0229-0.2617-0.0239-0.5234-0.0034-0.7847l-1.0737-0.6128
		c-0.1958-0.1113-0.293-0.3403-0.2368-0.5586c0.144-0.5591,0.3633-1.0947,0.6519-1.5923c0.1133-0.1948,0.3428-0.29,0.5605-0.2324
		l1.1953,0.3159c0.1685-0.2002,0.353-0.3862,0.5527-0.5562L2.9419,7.314C2.8828,7.0967,2.9756,6.8667,3.1694,6.752
		c0.4888-0.2896,1.0376-0.5195,1.5874-0.665C4.9746,6.0283,5.2036,6.124,5.3169,6.3188l0.6226,1.0698
		C6.1973,7.3662,6.459,7.3643,6.7222,7.3853L7.3354,6.312c0.1113-0.1948,0.3389-0.293,0.5581-0.2363
		C8.46,6.2212,8.981,6.4346,9.4868,6.7285c0.1943,0.1128,0.2896,0.3423,0.2319,0.5601L9.4028,8.4844
		c0.1992,0.168,0.3843,0.3516,0.5537,0.5503l1.1934-0.3262c0.2183-0.0566,0.4478,0.0342,0.562,0.228
		c0.2939,0.4976,0.5186,1.0317,0.665,1.5884c0.0576,0.2178-0.0371,0.4468-0.2314,0.5601l-1.0703,0.6221
		c0.0229,0.2598,0.0239,0.5205,0.0034,0.7803l1.0737,0.6123c0.1963,0.1123,0.293,0.3408,0.2363,0.5586
		c-0.1455,0.5684-0.3584,1.0898-0.6523,1.5938c-0.1133,0.1953-0.3438,0.291-0.5601,0.2324L9.981,15.168
		c-0.1675,0.1992-0.3506,0.3848-0.5488,0.5537l0.3262,1.1934c0.0591,0.2168-0.0337,0.4473-0.2275,0.5615
		c-0.4951,0.2939-1.0293,0.5176-1.5874,0.667c-0.2192,0.0557-0.4482-0.0371-0.561-0.2324l-0.6221-1.0693
		c-0.2573,0.0215-0.52,0.0244-0.7812,0.0039l-0.6133,1.0752C5.2754,18.0791,5.1079,18.1729,4.9316,18.1729z M4.0498,16.8184
		c0.2095,0.1035,0.4214,0.1904,0.6431,0.2637l0.5815-1.0186c0.103-0.1797,0.3076-0.2783,0.5103-0.2461
		c0.3911,0.0586,0.7817,0.0547,1.1611-0.0059c0.2041-0.0381,0.4087,0.0625,0.5127,0.2422l0.5894,1.0127
		c0.2197-0.0752,0.4341-0.165,0.6416-0.2686L8.3804,15.667c-0.0547-0.1992,0.0195-0.4121,0.1865-0.5352
		c0.3145-0.2305,0.5898-0.5078,0.8179-0.8242c0.1211-0.167,0.332-0.2402,0.5332-0.1904l1.1328,0.2998
		c0.103-0.21,0.1899-0.4219,0.2637-0.6445l-1.0181-0.5801c-0.1797-0.1025-0.2773-0.3057-0.2461-0.5098
		c0.0591-0.3857,0.0571-0.7764-0.0054-1.1616c-0.0332-0.2046,0.0635-0.4082,0.2422-0.5122l1.0137-0.5894
		c-0.0752-0.2197-0.165-0.4341-0.2686-0.6421l-1.1309,0.3091c-0.1997,0.0547-0.4126-0.0195-0.5352-0.187
		C9.1353,9.5845,8.8579,9.3086,8.542,9.0806c-0.1675-0.1211-0.2432-0.333-0.1904-0.5332l0.2998-1.1333
		C8.4419,7.311,8.2295,7.2241,8.0078,7.1504L7.4268,8.168C7.3242,8.3477,7.1265,8.4453,6.9165,8.4141
		C6.5254,8.353,6.1333,8.3579,5.7534,8.4189C5.5439,8.4521,5.3452,8.355,5.2412,8.1768L4.6519,7.1636
		C4.4331,7.2393,4.2178,7.3291,4.0107,7.4321l0.3091,1.1304c0.0547,0.2002-0.02,0.4131-0.187,0.5352
		C3.8164,9.3291,3.5405,9.6069,3.3125,9.9233c-0.1216,0.1689-0.3335,0.2456-0.5337,0.1914L1.6465,9.8154
		c-0.1016,0.208-0.1895,0.4229-0.2632,0.6431l1.0171,0.5806c0.1802,0.1025,0.2783,0.3052,0.2466,0.5103
		c-0.0596,0.3862-0.0576,0.7778,0.0054,1.1646c0.0332,0.2041-0.063,0.4082-0.2422,0.5127l-1.0122,0.5889
		c0.0752,0.2178,0.1655,0.4336,0.2686,0.6406l1.1304-0.3086C2.999,14.0947,3.209,14.167,3.3315,14.333
		c0.2329,0.3174,0.5107,0.5928,0.8262,0.8203c0.1685,0.1211,0.2441,0.333,0.1914,0.5332L4.0498,16.8184z"/>
</g>
<rect y="0.0001" fill="none" width="24" height="24"/>
</svg>
