<?xml version="1.0" encoding="utf-8"?>
<!-- Generator: Adobe Illustrator 18.1.0, SVG Export Plug-In . SVG Version: 6.00 Build 0)  -->
<svg version="1.1" id="Layer_1" xmlns="http://www.w3.org/2000/svg" xmlns:xlink="http://www.w3.org/1999/xlink" x="0px" y="0px"
	 width="24px" height="24px" viewBox="0 0 24 24" enable-background="new 0 0 24 24" xml:space="preserve">
<g>
	<path d="M5.499,15h-2c-0.2764,0-0.5-0.2236-0.5-0.5v-5c0-0.2764,0.2236-0.5,0.5-0.5h2c0.2764,0,0.5,0.2236,0.5,0.5v5
		C5.999,14.7764,5.7754,15,5.499,15z M3.999,14h1v-4h-1V14z"/>
	<path d="M9.4995,15h-2c-0.2764,0-0.5-0.2236-0.5-0.5v-5c0-0.2764,0.2236-0.5,0.5-0.5h2c0.2764,0,0.5,0.2236,0.5,0.5v5
		C9.9995,14.7764,9.7759,15,9.4995,15z M7.9995,14h1v-4h-1V14z"/>
	<path d="M13.5,15h-2c-0.2764,0-0.5-0.2236-0.5-0.5v-5C11,9.2236,11.2236,9,11.5,9h2C13.7764,9,14,9.2236,14,9.5v5
		C14,14.7764,13.7764,15,13.5,15z M12,14h1v-4h-1V14z"/>
	<path d="M17.5,15h-2c-0.2764,0-0.5-0.2236-0.5-0.5v-5C15,9.2236,15.2236,9,15.5,9h2C17.7764,9,18,9.2236,18,9.5v5
		C18,14.7764,17.7764,15,17.5,15z M16,14h1v-4h-1V14z"/>
	<path d="M21.0195,19H1.019c-0.5513,0-1-0.4482-1-1V6c0-0.5513,0.4487-1,1-1h20.0005c0.5518,0,1,0.4487,1,1v3h1
		c0.5518,0,1,0.4487,1,1v4c0,0.5518-0.4482,1-1,1h-1v3C22.0195,18.5518,21.5713,19,21.0195,19z M21.0195,18v0.5V18L21.0195,18z
		 M1.019,6v12h20.0005v-3.5c0-0.2764,0.2236-0.5,0.5-0.5h1.5v-4h-1.5c-0.2764,0-0.5-0.2236-0.5-0.5V6H1.019z"/>
</g>
<rect fill="none" width="24" height="24"/>
</svg>
