<?xml version="1.0" encoding="utf-8"?>
<!-- Generator: Adobe Illustrator 18.1.1, SVG Export Plug-In . SVG Version: 6.00 Build 0)  -->
<svg version="1.1" id="Layer_1" xmlns="http://www.w3.org/2000/svg" xmlns:xlink="http://www.w3.org/1999/xlink" x="0px" y="0px"
	 width="24px" height="24px" viewBox="0 0 24 24" enable-background="new 0 0 24 24" xml:space="preserve">
<rect fill="none" width="24" height="24"/>
<g>
	<path d="M2.6896,6.001h4.7557c0.2764,0,0.5-0.2236,0.5-0.5s-0.2236-0.5-0.5-0.5H2.6898l1.0587-1.1499
		c0.187-0.2031,0.1743-0.5195-0.0288-0.7065c-0.2026-0.187-0.519-0.1738-0.7065,0.0288L1.1821,5.1621
		C1.161,5.185,1.1508,5.2131,1.1347,5.2386c-0.0162,0.0255-0.036,0.0479-0.0474,0.0763C1.0641,5.3725,1.052,5.4332,1.0511,5.4944
		C1.0511,5.4967,1.0498,5.4987,1.0498,5.501c0,0.0028,0.0015,0.0051,0.0016,0.0079c0.001,0.0606,0.0129,0.1208,0.0359,0.1779
		c0.0121,0.03,0.0328,0.0539,0.0502,0.0807c0.0154,0.0239,0.0248,0.0504,0.0447,0.0719l0.014,0.0153l0,0l1.817,1.974
		C3.1113,7.936,3.2461,7.9902,3.3809,7.9902c0.1211,0,0.2427-0.0435,0.3384-0.1323c0.2036-0.187,0.2163-0.5029,0.0293-0.7061
		L2.6896,6.001z"/>
	<path d="M20,13c-0.3658,0-0.7046,0.106-1,0.2783V13c0-1.103-0.8975-2-2-2c-0.3658,0-0.7046,0.106-1,0.2783V5c0-1.103-0.8975-2-2-2
		c-0.8716,0-1.6072,0.5641-1.8804,1.3439C11.7998,4.127,11.4145,4,11,4C9.897,4,9,4.897,9,6v9.6688l-1.9609-3.3221
		c-0.4258-0.6694-1.3237-0.8862-2.0903-0.498c-0.6543,0.3291-1.1387,1.1201-0.75,2.1348c0.0776,0.2168,1.9209,5.3447,4.2788,8.085
		c0.0073,0.0059,0.7261,0.6475,1.1138,1.5889c0.0796,0.1934,0.2661,0.3096,0.4624,0.3096c0.0635,0,0.1279-0.0117,0.1904-0.0381
		c0.2554-0.1045,0.377-0.3975,0.272-0.6523c-0.4702-1.1416-1.3218-1.9092-1.3281-1.9092c0,0,0,0,0,0.001
		C7,18.8184,5.1592,13.6992,5.1367,13.6367c-0.2134-0.5576,0.0723-0.7998,0.2612-0.8945c0.2646-0.1338,0.6343-0.1162,0.79,0.1299
		l2.8804,4.8809c0.0106,0.018,0.0278,0.0286,0.0402,0.0447c0.0216,0.0284,0.0431,0.0547,0.0701,0.0778
		c0.0223,0.0188,0.0457,0.033,0.0706,0.0475c0.0308,0.0184,0.0613,0.0344,0.096,0.0458c0.0278,0.0091,0.0555,0.0128,0.0845,0.017
		C9.4537,17.9893,9.4751,18,9.5,18c0.0128,0,0.0234-0.0063,0.0359-0.0073c0.0295-0.002,0.0573-0.0101,0.0864-0.0174
		c0.0352-0.0091,0.069-0.0176,0.1008-0.0337c0.0097-0.0048,0.0204-0.0046,0.0298-0.01c0.0185-0.0109,0.0294-0.0283,0.046-0.0411
		c0.0273-0.0209,0.0528-0.0414,0.0753-0.0673c0.0212-0.0247,0.0372-0.0508,0.053-0.0787c0.0158-0.0275,0.0302-0.0542,0.0406-0.0847
		c0.0112-0.033,0.0161-0.0659,0.0203-0.1006C9.9905,17.5389,10,17.521,10,17.5V6c0-0.5513,0.4487-1,1-1s1,0.4487,1,1v7.5
		c0,0.2764,0.2236,0.5,0.5,0.5s0.5-0.2236,0.5-0.5V6V5c0-0.5513,0.4482-1,1-1s1,0.4487,1,1v8v1.5c0,0.2764,0.2236,0.5,0.5,0.5
		s0.5-0.2236,0.5-0.5V13c0-0.5518,0.4482-1,1-1s1,0.4482,1,1v2v0.5c0,0.2764,0.2236,0.5,0.5,0.5s0.5-0.2236,0.5-0.5V15
		c0-0.5518,0.4482-1,1-1c0.6006,0,0.6904,0.6562,0.6934,0.9941c-0.0029,0.0264-0.2949,2.6387-1.29,4.5928
		c-0.7715,1.5146-1.1191,2.8994-1.2744,3.7939c-0.0479,0.2725,0.1348,0.5312,0.4062,0.5781
		c0.0293,0.0059,0.0576,0.0078,0.0869,0.0078c0.2383,0,0.4492-0.1709,0.4912-0.4141c0.1445-0.8271,0.4658-2.1084,1.1807-3.5127
		c1.0801-2.1211,1.3809-4.8242,1.3965-4.9922C21.6904,13.8037,21.0273,13,20,13z"/>
</g>
</svg>
