<?xml version="1.0" encoding="utf-8"?>
<!-- Generator: Adobe Illustrator 18.1.0, SVG Export Plug-In . SVG Version: 6.00 Build 0)  -->
<svg version="1.1" id="Layer_1" xmlns="http://www.w3.org/2000/svg" xmlns:xlink="http://www.w3.org/1999/xlink" x="0px" y="0px"
	 width="24px" height="24px" viewBox="0 0 24 24" enable-background="new 0 0 24 24" xml:space="preserve">
<g>
	<path d="M14.1719,8.228c-0.0693,0-0.1406-0.0146-0.208-0.0454c-0.251-0.1147-0.3613-0.4111-0.2471-0.6626
		c1.3125-2.8721,1.3311-4.2559,1.2197-4.6938c-0.0293,0.0342-0.0635,0.0781-0.0996,0.1343
		c-0.1416,0.2188-0.2607,0.4604-0.376,0.6938c-0.3203,0.644-0.6836,1.3735-1.4404,1.4644c-0.7852,0.0903-1.6973-0.5552-3.0542-2.168
		C9.7603,2.7056,9.6064,2.5518,9.4971,2.4556c-0.0156,0.5923,0.2056,2.0879,1.1001,5.0747
		c0.0791,0.2646-0.0708,0.5435-0.3354,0.6226c-0.2666,0.0767-0.543-0.0713-0.6226-0.3354c-1.7495-5.8423-1.0723-6.2075-0.668-6.4263
		c0.5991-0.3228,1.2261,0.2812,1.7607,0.916c1.4331,1.7041,1.9858,1.8452,2.1704,1.8184c0.2207-0.0264,0.4551-0.499,0.6631-0.9165
		c0.1318-0.2661,0.2705-0.5415,0.4316-0.7915c0.4736-0.7324,1.0293-0.7842,1.3945-0.5835c0.998,0.5474,0.7051,2.8853-0.7646,6.1021
		C14.543,8.1196,14.3613,8.228,14.1719,8.228z"/>
	<path d="M11.9849,24.9082c-4.7554,0-7.374-2.1709-7.374-6.1133c0-4.1426,3.0962-10.2871,7.374-10.2871
		s7.3745,6.1445,7.3745,10.2871C19.3594,22.7373,16.7402,24.9082,11.9849,24.9082z M11.9849,9.5078
		c-3.373,0-6.374,5.1934-6.374,9.2871c0,4.2266,3.4663,5.1133,6.374,5.1133s6.3745-0.8867,6.3745-5.1133
		C18.3594,14.7012,15.3584,9.5078,11.9849,9.5078z"/>
	<path d="M12.0117,20.583c-0.7705,0-1.7905-0.4199-2.4805-1.0205c-0.2085-0.1816-0.2305-0.4971-0.0488-0.7051
		s0.498-0.2305,0.7051-0.0488c0.499,0.4346,1.3003,0.7744,1.8242,0.7744c0.7715,0,1.3994-0.5205,1.3994-1.1602
		c0-0.3135-0.1592-0.7773-1.54-1.1816c-0.7388-0.2305-2.2583-0.7061-2.2583-2.1396c0-1.1914,1.0762-2.1602,2.3989-2.1602
		c0.8467,0,1.6387,0.4072,2.0674,1.0635c0.1514,0.2305,0.0869,0.541-0.1445,0.6914c-0.2285,0.1514-0.541,0.0869-0.6914-0.1445
		c-0.2471-0.376-0.7188-0.6104-1.2314-0.6104c-0.7715,0-1.3989,0.5205-1.3989,1.1602c0,0.5029,0.4341,0.834,1.5483,1.1826
		c0.5498,0.1611,2.25,0.6582,2.25,2.1387C14.4111,19.6143,13.335,20.583,12.0117,20.583z"/>
	<path d="M12.0117,13.9414c-0.2764,0-0.5-0.2236-0.5-0.5v-0.9072c0-0.2764,0.2236-0.5,0.5-0.5s0.5,0.2236,0.5,0.5v0.9072
		C12.5117,13.7178,12.2881,13.9414,12.0117,13.9414z"/>
	<path d="M12.0117,21.4902c-0.2764,0-0.5-0.2236-0.5-0.5V20.083c0-0.2764,0.2236-0.5,0.5-0.5s0.5,0.2236,0.5,0.5v0.9072
		C12.5117,21.2666,12.2881,21.4902,12.0117,21.4902z"/>
</g>
<rect x="-0.0137" y="1.0031" fill="none" width="24" height="24"/>
<rect x="-0.0137" y="1" fill="none" width="24" height="24"/>
</svg>
