<?xml version="1.0" encoding="utf-8"?>
<!-- Generator: Adobe Illustrator 18.1.0, SVG Export Plug-In . SVG Version: 6.00 Build 0)  -->
<svg version="1.1" id="Layer_1" xmlns="http://www.w3.org/2000/svg" xmlns:xlink="http://www.w3.org/1999/xlink" x="0px" y="0px"
	 width="24px" height="24px" viewBox="0 0 24 24" enable-background="new 0 0 24 24" xml:space="preserve">
<g>
	<path d="M10.1421,21.7773L10.1421,21.7773c-2.7578,0-5.2593-0.9766-6.9204-2.6914c-1.1084,0.3047-2.252-0.0938-2.7119-0.9561
		c-0.4746-0.8945-0.168-2.0205,0.7227-2.7852C0.3394,11.1255,2.9858,6.3496,7.6367,3.877c1.9517-1.0376,4.0854-1.5854,6.1699-1.5854
		c2.7578,0,5.2588,0.9766,6.9199,2.6904c1.1035-0.3003,2.252,0.0928,2.7109,0.9585c0.4756,0.8931,0.1689,2.019-0.7217,2.7832
		c0.8926,4.2197-1.7539,8.9951-6.4053,11.4688C14.3594,21.2295,12.2266,21.7773,10.1421,21.7773z M3.3696,18.0107
		c0.1401,0,0.2773,0.0586,0.374,0.168c1.4658,1.6514,3.7979,2.5986,6.3984,2.5986c1.9214,0,3.8921-0.5078,5.6997-1.4678
		c4.3672-2.3223,6.8193-6.8066,5.8291-10.6606c-0.0518-0.2036,0.0283-0.418,0.2012-0.5366c0.6631-0.4551,0.957-1.1875,0.6826-1.7026
		c-0.2646-0.4995-1.0674-0.6719-1.793-0.3867c-0.1943,0.0762-0.418,0.0234-0.5576-0.1333
		c-1.4658-1.6514-3.7979-2.5981-6.3975-2.5981c-1.9214,0-3.8926,0.5078-5.7002,1.4683C3.7383,7.082,1.2866,11.5649,2.2769,15.4199
		c0.0522,0.2031-0.0283,0.417-0.2012,0.5361c-0.6636,0.4551-0.957,1.1875-0.6831,1.7041c0.2642,0.4961,1.0664,0.6709,1.793,0.3857
		C3.2456,18.0225,3.3076,18.0107,3.3696,18.0107z"/>
	<path d="M13.5,6c-0.1299,0-0.2598-0.0503-0.3506-0.1504C13.0596,5.7598,13,5.6299,13,5.5c0-0.1304,0.0596-0.2603,0.1494-0.3501
		c0.1904-0.1899,0.5205-0.1899,0.7002,0C13.9502,5.25,14.0098,5.3696,14.0098,5.5c0,0.1299-0.0596,0.2598-0.1504,0.3496
		C13.7598,5.9497,13.6396,6,13.5,6z"/>
	<path d="M16.4502,6.98c-0.1309,0-0.2607-0.0503-0.3506-0.1504c-0.0898-0.0796-0.1494-0.21-0.1494-0.3496
		c0-0.1304,0.0596-0.2603,0.1494-0.3501c0.1904-0.1899,0.5098-0.1899,0.7002-0.0103C16.8994,6.23,16.96,6.3496,16.96,6.48
		c0,0.1299-0.0605,0.2598-0.1504,0.3496C16.71,6.9297,16.5898,6.98,16.4502,6.98z"/>
	<path d="M15.5,9.0098c-0.1299,0-0.2598-0.0498-0.3506-0.1499C15.0596,8.7798,15,8.6499,15,8.5098
		c0-0.1299,0.0498-0.2598,0.1494-0.3501c0.1904-0.1899,0.5107-0.1899,0.7002,0C15.9502,8.2598,16,8.3799,16,8.5098
		c0,0.1401-0.0498,0.2603-0.1504,0.3599C15.7598,8.96,15.6299,9.0098,15.5,9.0098z"/>
</g>
<rect y="0.0346" fill="none" width="24" height="24"/>
</svg>
