<?xml version="1.0" encoding="utf-8"?>
<!-- Generator: Adobe Illustrator 18.1.0, SVG Export Plug-In . SVG Version: 6.00 Build 0)  -->
<svg version="1.1" id="Layer_1" xmlns="http://www.w3.org/2000/svg" xmlns:xlink="http://www.w3.org/1999/xlink" x="0px" y="0px"
	 width="24px" height="24px" viewBox="0 0 24 24" enable-background="new 0 0 24 24" xml:space="preserve">
<g>
	<path d="M20.7383,23.9736h-6.127c-0.2764,0-0.5-0.2236-0.5-0.5v-8.2607H9.9414v8.2607c0,0.2764-0.2236,0.5-0.5,0.5h-6.127
		c-0.7056,0-1.2798-0.582-1.2798-1.2979v-9.4697c-0.1621,0.0322-0.3384,0.0557-0.5146,0.0557c-0.5527,0-0.8589-0.2295-1.0186-0.4229
		c-0.6167-0.7451-0.5254-1.8647,0.2041-2.4956L10.877,1.5327c0.603-0.5215,1.5439-0.5503,2.1768-0.0732
		c0.0459,0.019,0.0879,0.0435,0.1221,0.0732l10.1709,8.8105c0.7295,0.6309,0.8213,1.7505,0.2041,2.4956
		c-0.1592,0.1934-0.4658,0.4229-1.0176,0.4229c-0.1768,0-0.3525-0.0234-0.5146-0.0557v9.4697
		C22.0186,23.3916,21.4443,23.9736,20.7383,23.9736z M15.1113,22.9736h5.627c0.1543,0,0.2803-0.1338,0.2803-0.2979V12.5293
		c0-0.1689,0.085-0.3252,0.2266-0.418c0.1387-0.0918,0.3184-0.1094,0.4736-0.04c0.1221,0.0527,0.5059,0.1904,0.8145,0.1904
		c0.1221,0,0.2168-0.0225,0.248-0.0596c0.2725-0.3301,0.2324-0.8247-0.0889-1.1025L12.5996,2.3564
		c-0.041-0.0181-0.0781-0.0405-0.1094-0.0674c-0.2695-0.2334-0.6904-0.2334-0.959,0L1.3599,11.0991
		c-0.3213,0.2783-0.3608,0.7729-0.0879,1.103c0.0308,0.0371,0.1255,0.0596,0.248,0.0596c0.311,0,0.7012-0.1406,0.8135-0.1904
		c0.1548-0.0674,0.3335-0.0518,0.4746,0.0391c0.1411,0.0928,0.2266,0.25,0.2266,0.4189v10.1465
		c0,0.1641,0.1255,0.2979,0.2798,0.2979h5.627v-8.2607c0-0.2764,0.2236-0.5,0.5-0.5h5.1699c0.2764,0,0.5,0.2236,0.5,0.5V22.9736z"/>
</g>
<rect fill="none" width="24" height="24"/>
</svg>
