<?xml version="1.0" encoding="utf-8"?>
<!-- Generator: Adobe Illustrator 18.1.0, SVG Export Plug-In . SVG Version: 6.00 Build 0)  -->
<svg version="1.1" id="Layer_1" xmlns="http://www.w3.org/2000/svg" xmlns:xlink="http://www.w3.org/1999/xlink" x="0px" y="0px"
	 width="24px" height="24px" viewBox="0 0 24 24" enable-background="new 0 0 24 24" xml:space="preserve">
<g>
	<path d="M23.543,23h-23c-0.2764,0-0.5-0.2236-0.5-0.5v-21c0-0.2764,0.2236-0.5,0.5-0.5h23c0.2764,0,0.5,0.2236,0.5,0.5v21
		C24.043,22.7764,23.8193,23,23.543,23z M1.043,22h22V2h-22V22z"/>
	<path d="M23.5166,5.0005H0.5913c-0.2764,0-0.5-0.2236-0.5-0.5s0.2236-0.5,0.5-0.5h22.9253c0.2764,0,0.5,0.2236,0.5,0.5
		S23.793,5.0005,23.5166,5.0005z"/>
	<path d="M10.5156,20H3.5142c-0.2764,0-0.5-0.2236-0.5-0.5v-3.999c0-0.2764,0.2236-0.5,0.5-0.5h7.0015c0.2764,0,0.5,0.2236,0.5,0.5
		V19.5C11.0156,19.7764,10.792,20,10.5156,20z M4.0142,19h6.0015v-2.999H4.0142V19z"/>
	<path d="M20.5166,20h-7.001c-0.2764,0-0.5-0.2236-0.5-0.5v-3.999c0-0.2764,0.2236-0.5,0.5-0.5h7.001c0.2764,0,0.5,0.2236,0.5,0.5
		V19.5C21.0166,19.7764,20.793,20,20.5166,20z M14.0156,19h6.001v-2.999h-6.001V19z"/>
	<path d="M10.5156,12.999H3.5142c-0.2764,0-0.5-0.2236-0.5-0.5V8.5c0-0.2764,0.2236-0.5,0.5-0.5h7.0015c0.2764,0,0.5,0.2236,0.5,0.5
		v3.999C11.0156,12.7754,10.792,12.999,10.5156,12.999z M4.0142,11.999h6.0015V9H4.0142V11.999z"/>
	<path d="M20.5166,12.999h-7.001c-0.2764,0-0.5-0.2236-0.5-0.5V8.5c0-0.2764,0.2236-0.5,0.5-0.5h7.001c0.2764,0,0.5,0.2236,0.5,0.5
		v3.999C21.0166,12.7754,20.793,12.999,20.5166,12.999z M14.0156,11.999h6.001V9h-6.001V11.999z"/>
</g>
<rect fill="none" width="24" height="24"/>
</svg>
