<?xml version="1.0" encoding="utf-8"?>
<!-- Generator: Adobe Illustrator 18.1.0, SVG Export Plug-In . SVG Version: 6.00 Build 0)  -->
<svg version="1.1" id="Layer_1" xmlns="http://www.w3.org/2000/svg" xmlns:xlink="http://www.w3.org/1999/xlink" x="0px" y="0px"
	 width="24px" height="24px" viewBox="0 0 24 24" enable-background="new 0 0 24 24" xml:space="preserve">
<g>
	<path d="M15.2471,21.0898c-0.0674,0-0.1348-0.001-0.2021-0.0029c-0.2764-0.0098-0.4922-0.2402-0.4834-0.5166
		c0.0088-0.2754,0.2021-0.4746,0.5166-0.4834c1.3477,0.0449,2.6299-0.4561,3.584-1.4092c0.9551-0.9541,1.4561-2.2275,1.4111-3.5859
		c-0.0088-0.2764,0.208-0.5068,0.4834-0.5166c0.3271-0.0078,0.5078,0.208,0.5166,0.4834c0.0537,1.6377-0.5518,3.1748-1.7041,4.3262
		C18.2646,20.4893,16.8076,21.0898,15.2471,21.0898z"/>
	<path d="M15.2461,23.7607c-0.0654,0-0.1299-0.001-0.1953-0.002c-0.2764-0.0059-0.4951-0.2354-0.4893-0.5107
		c0.0059-0.2764,0.2354-0.4648,0.5107-0.4893c2.0635,0.0332,4.0195-0.7324,5.4795-2.1914c1.46-1.46,2.2383-3.4062,2.1934-5.4814
		c-0.0059-0.2764,0.2129-0.5049,0.4893-0.5107c0.2744,0.0176,0.5049,0.2129,0.5107,0.4893c0.0508,2.3506-0.832,4.5557-2.4863,6.21
		C19.6504,22.8818,17.5215,23.7607,15.2461,23.7607z"/>
	<path d="M15.2393,18.4209c-0.0703,0-0.1406-0.002-0.2109-0.0068c-0.2754-0.0186-0.4834-0.2568-0.4658-0.5322
		c0.0186-0.2754,0.2666-0.4873,0.5322-0.4658c0.6104,0.0361,1.2383-0.1875,1.6787-0.6289c0.4414-0.4404,0.6699-1.0527,0.6289-1.6787
		c-0.0176-0.2764,0.1904-0.5137,0.4658-0.5322c0.2773-0.0186,0.5146,0.1904,0.5322,0.4658
		c0.0605,0.9141-0.2754,1.8086-0.9189,2.4531C16.8857,18.0898,16.0781,18.4209,15.2393,18.4209z"/>
	<path d="M10.0166,15.7734c-0.041,0-0.082-0.0049-0.1226-0.0156c-0.1709-0.043-0.3062-0.1729-0.3564-0.3418
		c-0.6177-2.0732-0.3203-3.9136,0.8154-5.0488c1.1289-1.1289,2.9917-1.4282,5.0493-0.8149
		c0.1689,0.0503,0.2988,0.1855,0.3418,0.3564c0.0439,0.1709-0.0059,0.3516-0.1309,0.4761l-5.2432,5.2422
		C10.2754,15.7217,10.1475,15.7734,10.0166,15.7734z M13.3662,10.2349c-0.96,0-1.7568,0.29-2.3062,0.8394
		c-0.7212,0.7212-0.9854,1.8633-0.7617,3.21l3.9722-3.9712C13.959,10.2607,13.6572,10.2349,13.3662,10.2349z"/>
	<path d="M14.5234,15.0381c-0.1279,0-0.2559-0.0488-0.3535-0.1465l-1.8857-1.8857c-0.1953-0.1953-0.1953-0.5117,0-0.707
		s0.5117-0.1953,0.707,0l1.8857,1.8857c0.1953,0.1953,0.1953,0.5117,0,0.707C14.7793,14.9893,14.6514,15.0381,14.5234,15.0381z"/>
	<path d="M14.9785,16.1367c-0.6309,0-1.1436-0.5127-1.1436-1.1436s0.5127-1.1436,1.1436-1.1436s1.1445,0.5127,1.1445,1.1436
		S15.6094,16.1367,14.9785,16.1367z M14.9785,14.8496c-0.0791,0-0.1436,0.0645-0.1436,0.1436c0,0.1592,0.2881,0.1572,0.2881,0
		C15.123,14.9141,15.0586,14.8496,14.9785,14.8496z"/>
	<path d="M9.8003,12.9355c-0.1279,0-0.2559-0.0488-0.3535-0.1465L4.855,8.1973c-0.1953-0.1953-0.1953-0.5117,0-0.707l2.6211-2.6211
		c0.1953-0.1953,0.5117-0.1953,0.707,0l4.5825,4.5825c0.1953,0.1953,0.1953,0.5117,0,0.707s-0.5117,0.1953-0.707,0l-4.229-4.229
		L5.9155,7.8438l4.2383,4.2383c0.1953,0.1953,0.1953,0.5117,0,0.707C10.0562,12.8867,9.9282,12.9355,9.8003,12.9355z"/>
	<path d="M4.9121,17.0146c-0.1279,0-0.2559-0.0488-0.3535-0.1465l-4.1875-4.1865c-0.0938-0.0938-0.1465-0.2207-0.1465-0.3535
		s0.0527-0.2598,0.1465-0.3535L2.9927,9.353c0.1953-0.1953,0.5117-0.1953,0.707,0l4.187,4.187c0.1953,0.1953,0.1953,0.5117,0,0.707
		l-2.6211,2.6211C5.168,16.9658,5.04,17.0146,4.9121,17.0146z M1.4316,12.3281l3.4805,3.4795l1.9141-1.9141l-3.48-3.48
		L1.4316,12.3281z"/>
	<path d="M13.8789,8.0479c-0.1279,0-0.2559-0.0488-0.3535-0.1465l-4.187-4.1875C9.2446,3.6201,9.1919,3.4932,9.1919,3.3604
		s0.0527-0.2598,0.1465-0.3535L11.96,0.3857c0.1953-0.1953,0.5117-0.1953,0.707,0l4.1875,4.187
		c0.0938,0.0938,0.1465,0.2207,0.1465,0.3535s-0.0527,0.2598-0.1465,0.3535l-2.6221,2.6216
		C14.1348,7.999,14.0068,8.0479,13.8789,8.0479z M10.3989,3.3604l3.48,3.4805l1.915-1.9146l-3.4805-3.48L10.3989,3.3604z"/>
	<path d="M9.9233,7.8164c-0.1279,0-0.2559-0.0488-0.3535-0.1465c-0.1953-0.1953-0.1953-0.5117,0-0.707l1.8623-1.8623
		c0.1953-0.1953,0.5122-0.1953,0.7075,0c0.1943,0.1953,0.1943,0.5117,0,0.707l-1.8628,1.8623
		C10.1792,7.7676,10.0513,7.8164,9.9233,7.8164z"/>
	<path d="M5.4399,12.2998c-0.1279,0-0.2559-0.0488-0.3535-0.1465c-0.1953-0.1953-0.1953-0.5117,0-0.707L6.9482,9.584
		c0.1953-0.1953,0.5117-0.1953,0.707,0s0.1953,0.5117,0,0.707l-1.8618,1.8623C5.6958,12.251,5.5679,12.2998,5.4399,12.2998z"/>
	<path d="M15.1895,6.7368c-0.1279,0-0.2559-0.0488-0.3535-0.1465l-4.187-4.187c-0.1953-0.1953-0.1953-0.5117,0-0.707
		s0.5117-0.1953,0.707,0l4.187,4.187c0.1953,0.1953,0.1953,0.5117,0,0.707C15.4453,6.688,15.3174,6.7368,15.1895,6.7368z"/>
	<path d="M6.2227,15.7041c-0.1279,0-0.2559-0.0488-0.3535-0.1465l-4.1875-4.187c-0.1953-0.1953-0.1953-0.5117,0-0.707
		s0.5117-0.1953,0.707,0l4.1875,4.187c0.1953,0.1953,0.1953,0.5117,0,0.707C6.4785,15.6553,6.3506,15.7041,6.2227,15.7041z"/>
</g>
<rect fill="none" width="24" height="24"/>
</svg>
