<?xml version="1.0" encoding="utf-8"?>
<!-- Generator: Adobe Illustrator 18.1.0, SVG Export Plug-In . SVG Version: 6.00 Build 0)  -->
<svg version="1.1" id="Layer_1" xmlns="http://www.w3.org/2000/svg" xmlns:xlink="http://www.w3.org/1999/xlink" x="0px" y="0px"
	 width="24px" height="24px" viewBox="0 0 24 24" enable-background="new 0 0 24 24" xml:space="preserve">
<g>
	<path d="M11.9854,23.7812c-3.1606,0-6.1289-1.2275-8.3579-3.4561C-0.981,15.7158-0.9805,8.2168,3.6284,3.6079
		c2.229-2.2295,5.1978-3.457,8.3584-3.457s6.1284,1.2275,8.3579,3.457c2.2295,2.229,3.457,5.1978,3.457,8.3584
		s-1.2275,6.1284-3.457,8.3579S15.1465,23.7812,11.9854,23.7812z M11.9868,1.1509c-2.8936,0-5.6108,1.1235-7.6514,3.1641
		c-4.2192,4.2192-4.2197,11.0845-0.001,15.3032c2.04,2.04,4.7573,3.1631,7.6509,3.1631s5.6113-1.123,7.6523-3.1641
		c2.04-2.04,3.1641-4.7578,3.1641-7.6509c0-2.8936-1.124-5.6108-3.1641-7.6514S14.8799,1.1509,11.9868,1.1509z"/>
	<path d="M19.9912,20.4707c-0.1279,0-0.2559-0.0488-0.3535-0.1465L3.6284,4.3149c-0.1953-0.1953-0.1953-0.5117,0-0.707
		s0.5117-0.1953,0.707,0l16.0093,16.0093c0.1953,0.1953,0.1953,0.5117,0,0.707C20.2471,20.4219,20.1191,20.4707,19.9912,20.4707z"/>
	<path d="M19.4863,15h-15c-0.2764,0-0.5-0.2236-0.5-0.5v-3c0-0.2764,0.2236-0.5,0.5-0.5h15c0.2764,0,0.5,0.2236,0.5,0.5v3
		C19.9863,14.7764,19.7627,15,19.4863,15z M4.9863,14h14v-2h-14V14z"/>
	<path d="M17.4863,15c-0.2764,0-0.5-0.2236-0.5-0.5v-3c0-0.2764,0.2236-0.5,0.5-0.5s0.5,0.2236,0.5,0.5v3
		C17.9863,14.7764,17.7627,15,17.4863,15z"/>
	<path d="M18.5811,9.9663c-0.2549,0-0.4727-0.1943-0.4971-0.4536c-0.0254-0.2749,0.1768-0.5186,0.4521-0.5444
		c0.0654-0.0518,0.1729-0.3198-0.373-1.1567c-0.6133-0.9409-0.8135-1.668-0.6094-2.2227c0.1709-0.4658,0.5508-0.5996,0.625-0.6221
		c0.2686-0.0762,0.5439,0.0723,0.6221,0.3369c0.0742,0.2515-0.0576,0.5151-0.2979,0.6084c-0.0439,0.0479-0.1123,0.418,0.498,1.3535
		c0.583,0.8945,0.7451,1.5811,0.4951,2.0986c-0.2549,0.5283-0.8057,0.5942-0.8682,0.6001
		C18.6123,9.9658,18.5967,9.9663,18.5811,9.9663z"/>
	<path d="M16.6162,9.9658c-0.2549,0-0.4727-0.1948-0.4971-0.4541c-0.0195-0.2119,0.0967-0.4053,0.2764-0.4941
		c-0.0254-0.0747-0.0801-0.1968-0.1973-0.3765c-0.3887-0.5972-0.5098-1.0742-0.3682-1.4585
		c0.1025-0.2798,0.3232-0.4351,0.4951-0.4863c0.2695-0.0786,0.5439,0.0723,0.623,0.3359c0.0596,0.2017-0.0127,0.4111-0.168,0.5347
		c0.0166,0.0791,0.0713,0.2451,0.2559,0.5278c0.1387,0.2124,0.5605,0.8594,0.2959,1.4067
		c-0.1494,0.3096-0.4541,0.4424-0.6689,0.4624C16.6475,9.9653,16.6318,9.9658,16.6162,9.9658z"/>
</g>
<rect x="-0.0137" y="0.0002" fill="none" width="24" height="24"/>
</svg>
