<?xml version="1.0" encoding="utf-8"?>
<!-- Generator: Adobe Illustrator 18.1.0, SVG Export Plug-In . SVG Version: 6.00 Build 0)  -->
<svg version="1.1" id="Layer_1" xmlns="http://www.w3.org/2000/svg" xmlns:xlink="http://www.w3.org/1999/xlink" x="0px" y="0px"
	 width="24px" height="24px" viewBox="0 0 24 24" enable-background="new 0 0 24 24" xml:space="preserve">
<g>
	<path d="M3.2261,23.1416c-1.3022,0-2.3618-1.0596-2.3618-2.3623c0-1.3018,1.0596-2.3613,2.3618-2.3613
		c1.3027,0,2.3623,1.0596,2.3623,2.3613C5.5884,22.082,4.5288,23.1416,3.2261,23.1416z M3.2261,19.418
		c-0.751,0-1.3618,0.6104-1.3618,1.3613s0.6108,1.3623,1.3618,1.3623s1.3623-0.6113,1.3623-1.3623S3.9771,19.418,3.2261,19.418z"/>
	<path d="M20.7734,23.1416c-1.3018,0-2.3613-1.0596-2.3613-2.3623c0-1.3018,1.0596-2.3613,2.3613-2.3613
		c1.3027,0,2.3623,1.0596,2.3623,2.3613C23.1357,22.082,22.0762,23.1416,20.7734,23.1416z M20.7734,19.418
		c-0.751,0-1.3613,0.6104-1.3613,1.3613s0.6104,1.3623,1.3613,1.3623s1.3623-0.6113,1.3623-1.3623S21.5244,19.418,20.7734,19.418z"
		/>
	<path d="M20.7734,5.5942c-1.3018,0-2.3613-1.0596-2.3613-2.3623c0-1.3022,1.0596-2.3618,2.3613-2.3618
		c1.3027,0,2.3623,1.0596,2.3623,2.3618C23.1357,4.5347,22.0762,5.5942,20.7734,5.5942z M20.7734,1.8701
		c-0.751,0-1.3613,0.6108-1.3613,1.3618s0.6104,1.3623,1.3613,1.3623s1.3623-0.6113,1.3623-1.3623S21.5244,1.8701,20.7734,1.8701z"
		/>
	<path d="M3.2261,5.5942c-1.3022,0-2.3618-1.0596-2.3618-2.3623c0-1.3022,1.0596-2.3618,2.3618-2.3618
		c1.3027,0,2.3623,1.0596,2.3623,2.3618C5.5884,4.5347,4.5288,5.5942,3.2261,5.5942z M3.2261,1.8701
		c-0.751,0-1.3618,0.6108-1.3618,1.3618s0.6108,1.3623,1.3618,1.3623s1.3623-0.6113,1.3623-1.3623S3.9771,1.8701,3.2261,1.8701z"/>
	<path d="M3.5,19.4395c-0.2764,0-0.5-0.2236-0.5-0.5V5.0942c0-0.2764,0.2236-0.5,0.5-0.5S4,4.8179,4,5.0942v13.8452
		C4,19.2158,3.7764,19.4395,3.5,19.4395z"/>
	<path d="M18.9121,21.001H5.0884c-0.2764,0-0.5-0.2236-0.5-0.5s0.2236-0.5,0.5-0.5h13.8237c0.2764,0,0.5,0.2236,0.5,0.5
		S19.1885,21.001,18.9121,21.001z"/>
	<path d="M20.5,19.418c-0.2764,0-0.5-0.2236-0.5-0.5V5.0942c0-0.2764,0.2236-0.5,0.5-0.5s0.5,0.2236,0.5,0.5V18.918
		C21,19.1943,20.7764,19.418,20.5,19.418z"/>
	<path d="M18.9121,4.001H5.0884c-0.2764,0-0.5-0.2236-0.5-0.5s0.2236-0.5,0.5-0.5h13.8237c0.2764,0,0.5,0.2236,0.5,0.5
		S19.1885,4.001,18.9121,4.001z"/>
</g>
<rect y="0.0011" fill="none" width="24" height="24"/>
</svg>
