<?xml version="1.0" encoding="utf-8"?>
<!-- Generator: Adobe Illustrator 18.1.0, SVG Export Plug-In . SVG Version: 6.00 Build 0)  -->
<svg version="1.1" id="Layer_1" xmlns="http://www.w3.org/2000/svg" xmlns:xlink="http://www.w3.org/1999/xlink" x="0px" y="0px"
	 width="24px" height="24px" viewBox="0 0 24 24" enable-background="new 0 0 24 24" xml:space="preserve">
<g>
	<path d="M20.4219,23.9756H3.5601c-0.8569,0-1.5537-0.6494-1.5537-1.4473V1.4546c0-0.7979,0.6968-1.4473,1.5537-1.4473h16.8618
		c0.8564,0,1.5537,0.6494,1.5537,1.4473v21.0737C21.9756,23.3262,21.2783,23.9756,20.4219,23.9756z M3.5601,1.0073
		c-0.3052,0-0.5537,0.2007-0.5537,0.4473v21.0737c0,0.2471,0.2485,0.4473,0.5537,0.4473h16.8618
		c0.3057,0,0.5537-0.2002,0.5537-0.4473V1.4546c0-0.2466-0.248-0.4473-0.5537-0.4473H3.5601z"/>
	<path d="M19.4805,21.001H4.5259c-0.2764,0-0.5-0.2236-0.5-0.5V2.5317c0-0.2764,0.2236-0.5,0.5-0.5h14.9546
		c0.2764,0,0.5,0.2236,0.5,0.5V20.501C19.9805,20.7773,19.7568,21.001,19.4805,21.001z M5.0259,20.001h13.9546V3.0317H5.0259V20.001
		z"/>
	<path d="M12,22.5c-0.1304,0-0.25-0.0498-0.3501-0.1406C11.5498,22.2598,11.5,22.1299,11.5,22s0.0601-0.2598,0.1499-0.3506
		c0.1997-0.1895,0.52-0.1895,0.6997-0.0098C12.4502,21.7402,12.5,21.8701,12.5,22s-0.0498,0.2598-0.1406,0.3496
		C12.2598,22.4502,12.1299,22.5,12,22.5z"/>
</g>
<rect fill="none" width="24" height="24"/>
</svg>
