<?xml version="1.0" encoding="utf-8"?>
<!-- Generator: Adobe Illustrator 18.1.0, SVG Export Plug-In . SVG Version: 6.00 Build 0)  -->
<svg version="1.1" id="Layer_1" xmlns="http://www.w3.org/2000/svg" xmlns:xlink="http://www.w3.org/1999/xlink" x="0px" y="0px"
	 width="24px" height="24px" viewBox="0 0 24 24" enable-background="new 0 0 24 24" xml:space="preserve">
<g>
	<path d="M9.7397,4.0298c-0.1821,0-0.3574-0.0996-0.4458-0.2725C9.1172,3.4106,9.0234,3.0205,9.0234,2.6289
		c0-1.3711,1.1152-2.4868,2.4858-2.4868c1.3716,0,2.4868,1.1157,2.4868,2.4868c0,0.3906-0.0938,0.7803-0.2705,1.1279
		c-0.126,0.2471-0.4297,0.3418-0.6719,0.2188c-0.2461-0.1255-0.3447-0.4268-0.2188-0.6729c0.1064-0.21,0.1611-0.437,0.1611-0.6738
		c0-0.8198-0.667-1.4868-1.4868-1.4868c-0.8193,0-1.4858,0.667-1.4858,1.4868c0,0.2378,0.0542,0.4644,0.1611,0.6733
		c0.1255,0.2461,0.0278,0.5474-0.2178,0.6729C9.894,4.0122,9.8164,4.0298,9.7397,4.0298z"/>
	<path d="M11.5098,23.793c-5.6401,0-10.2285-4.5889-10.2285-10.2285c0-5.6401,4.5884-10.2285,10.2285-10.2285
		c5.6396,0,10.2285,4.5884,10.2285,10.2285C21.7383,19.2041,17.1494,23.793,11.5098,23.793z M11.5098,4.3359
		c-5.0884,0-9.2285,4.1401-9.2285,9.2285c0,5.0889,4.1401,9.2285,9.2285,9.2285c5.0889,0,9.2285-4.1396,9.2285-9.2285
		C20.7383,8.4761,16.5986,4.3359,11.5098,4.3359z"/>
	<path d="M11.5098,6.6357c-0.2764,0-0.5-0.2236-0.5-0.5V3.8359c0-0.2764,0.2236-0.5,0.5-0.5s0.5,0.2236,0.5,0.5v2.2998
		C12.0098,6.4121,11.7861,6.6357,11.5098,6.6357z"/>
	<path d="M11.5098,23.792c-0.2764,0-0.5-0.2236-0.5-0.5v-2.2998c0-0.2764,0.2236-0.5,0.5-0.5s0.5,0.2236,0.5,0.5v2.2998
		C12.0098,23.5684,11.7861,23.792,11.5098,23.792z"/>
	<path d="M21.2383,13.9844h-2.3271c-0.2764,0-0.5-0.2236-0.5-0.5s0.2236-0.5,0.5-0.5h2.3271c0.2764,0,0.5,0.2236,0.5,0.5
		S21.5146,13.9844,21.2383,13.9844z"/>
	<path d="M4.0615,13.9844H1.7812c-0.2764,0-0.5-0.2236-0.5-0.5s0.2236-0.5,0.5-0.5h2.2803c0.2764,0,0.5,0.2236,0.5,0.5
		S4.3379,13.9844,4.0615,13.9844z"/>
	<path d="M6.2935,19.2803c-0.1294,0-0.2573-0.0508-0.3535-0.1465c-0.1543-0.1543-0.1909-0.3916-0.0898-0.585l3.5776-6.8545
		c0.0737-0.1411,0.21-0.2388,0.3677-0.2627c0.1533-0.0269,0.3154,0.0278,0.4292,0.1406l3.2773,3.2764
		c0.1123,0.1123,0.165,0.2715,0.1406,0.4297c-0.0244,0.1572-0.1221,0.293-0.2627,0.3672l-6.855,3.5781
		C6.4517,19.2617,6.3726,19.2803,6.2935,19.2803z M9.999,12.7607l-2.5259,4.8398l4.8403-2.5264L9.999,12.7607z"/>
	<path d="M13.1484,15.7021c-0.1318,0-0.2588-0.0518-0.3535-0.1465l-3.2773-3.2764c-0.1128-0.1123-0.165-0.2715-0.1406-0.4292
		c0.0239-0.1572,0.1216-0.2939,0.2627-0.3677l6.8545-3.5781c0.1943-0.1001,0.4307-0.0645,0.585,0.0898s0.1904,0.3911,0.0898,0.585
		l-3.5771,6.8545c-0.0742,0.1406-0.21,0.2383-0.3672,0.2627C13.1992,15.7002,13.1738,15.7021,13.1484,15.7021z M10.7065,12.0537
		l2.314,2.3135l2.5254-4.8398L10.7065,12.0537z"/>
</g>
<rect x="-0.0137" y="0.0001" fill="none" width="24" height="24"/>
</svg>
