<?xml version="1.0" encoding="utf-8"?>
<!-- Generator: Adobe Illustrator 18.1.1, SVG Export Plug-In . SVG Version: 6.00 Build 0)  -->
<svg version="1.1" id="Layer_1" xmlns="http://www.w3.org/2000/svg" xmlns:xlink="http://www.w3.org/1999/xlink" x="0px" y="0px"
	 width="24px" height="24px" viewBox="0 0 24 24" enable-background="new 0 0 24 24" xml:space="preserve">
<rect y="0.0001" fill="none" width="24" height="24"/>
<path d="M19,12c-0.3658,0-0.7046,0.106-1,0.2783V12c0-1.103-0.8975-2-2-2c-0.4145,0-0.7998,0.127-1.1196,0.3439
	C14.6072,9.5641,13.8716,9,13,9c-0.3659,0-0.7047,0.1059-1,0.2781V4c0-1.103-0.897-2-2-2S8,2.897,8,4v10.6686l-1.9609-3.3224
	c-0.4248-0.6689-1.3223-0.8848-2.0903-0.4976c-0.6543,0.3286-1.1387,1.1196-0.75,2.1348c0.0776,0.2168,1.9209,5.3447,4.2422,8.0488
	c0.5576,0.6055,1.4722,1.8232,1.5518,2.5137c0.0293,0.2549,0.2456,0.4424,0.4961,0.4424c0.019,0,0.0381-0.001,0.0576-0.0029
	c0.2744-0.0322,0.4712-0.2803,0.4395-0.5547c-0.1426-1.2354-1.6392-2.8916-1.7979-3.0625C6,17.8184,4.1592,12.6992,4.1367,12.6367
	c-0.2134-0.5576,0.0723-0.7998,0.2612-0.8945c0.2642-0.1333,0.6348-0.1152,0.79,0.1294l2.8809,4.8813
	c0.0103,0.0177,0.0272,0.0281,0.0393,0.044c0.0214,0.0283,0.0426,0.0546,0.0695,0.0778c0.0236,0.0203,0.0486,0.0354,0.0752,0.0507
	c0.0289,0.0169,0.0573,0.032,0.0895,0.0428c0.0304,0.0102,0.0607,0.0145,0.0926,0.0187C8.4572,16.9899,8.4769,17,8.5,17
	c0.012,0,0.022-0.006,0.0337-0.0068c0.031-0.002,0.0603-0.0105,0.0909-0.0184c0.0342-0.009,0.0673-0.0174,0.0982-0.0331
	c0.0098-0.0048,0.0205-0.0046,0.0301-0.0101c0.0185-0.0109,0.0294-0.0283,0.046-0.0411c0.0273-0.0209,0.0528-0.0414,0.0753-0.0673
	c0.0212-0.0247,0.0372-0.0508,0.053-0.0787c0.0158-0.0275,0.0302-0.0542,0.0406-0.0847c0.0112-0.033,0.0161-0.0659,0.0203-0.1006
	C8.9905,16.5389,9,16.521,9,16.5V4c0-0.5513,0.4487-1,1-1s1,0.4487,1,1v7v1.5c0,0.2764,0.2236,0.5,0.5,0.5s0.5-0.2236,0.5-0.5V11
	c0-0.5513,0.4482-1,1-1s1,0.4487,1,1v1v1.5c0,0.2764,0.2236,0.5,0.5,0.5s0.5-0.2236,0.5-0.5V12c0-0.5513,0.4482-1,1-1s1,0.4487,1,1
	v2v0.5c0,0.2764,0.2236,0.5,0.5,0.5s0.5-0.2236,0.5-0.5V14c0-0.5518,0.4482-1,1-1c0.6006,0,0.6904,0.6562,0.6934,0.9941
	c-0.0029,0.0264-0.2949,2.6387-1.29,4.5928c-0.8057,1.582-1.2803,4.0859-1.4072,4.8164c-0.0469,0.2715,0.1357,0.5303,0.4082,0.5781
	c0.0283,0.0049,0.0576,0.0068,0.0859,0.0068c0.2383,0,0.4492-0.1719,0.4922-0.415c0.1201-0.6943,0.5693-3.0762,1.3115-4.5332
	c1.0801-2.1211,1.3809-4.8242,1.3965-4.9922C20.6904,12.8037,20.0273,12,19,12z"/>
</svg>
