<?xml version="1.0" encoding="utf-8"?>
<!-- Generator: Adobe Illustrator 18.1.0, SVG Export Plug-In . SVG Version: 6.00 Build 0)  -->
<svg version="1.1" id="Layer_1" xmlns="http://www.w3.org/2000/svg" xmlns:xlink="http://www.w3.org/1999/xlink" x="0px" y="0px"
	 width="24px" height="24px" viewBox="0 0 24 24" enable-background="new 0 0 24 24" xml:space="preserve">
<g>
	<path d="M0.583,18.8945c-0.1001,0-0.1997-0.0303-0.2847-0.0889c-0.1348-0.0938-0.2153-0.2471-0.2153-0.4111V3.25
		c0-0.208,0.1289-0.3945,0.3237-0.4678l5.9243-2.23c0.125-0.0474,0.2637-0.043,0.3843,0.0132l4.7661,2.1772l5.6914-2.6001
		c0.0908-0.042,0.1924-0.0542,0.29-0.0386l6.1123,1.02c0.2412,0.04,0.418,0.249,0.418,0.4932v15.1436
		c0,0.1484-0.0664,0.2891-0.1807,0.3848c-0.1133,0.0947-0.2598,0.1348-0.4111,0.1064l-2.002-0.3721
		c-0.2715-0.0498-0.4502-0.3115-0.3994-0.583c0.0498-0.2715,0.3096-0.4502,0.583-0.3994l1.4102,0.2617V2.0405l-5.5439-0.9248
		l-5.7598,2.6313c-0.1328,0.0605-0.2832,0.0605-0.416,0L6.4888,1.561L1.083,3.5962v14.0757l5.248-1.9756
		c0.1235-0.0469,0.2598-0.042,0.3804,0.0117l4.7456,2.124c0.2524,0.1123,0.3652,0.4082,0.2524,0.6602s-0.4072,0.3682-0.6606,0.252
		l-4.5581-2.04l-5.7314,2.1582C0.7021,18.8838,0.6426,18.8945,0.583,18.8945z"/>
	<path d="M6.5073,14.043c-0.2764,0-0.5-0.2236-0.5-0.5V3.9321c0-0.2764,0.2236-0.5,0.5-0.5s0.5,0.2236,0.5,0.5v9.6108
		C7.0073,13.8193,6.7837,14.043,6.5073,14.043z"/>
	<path d="M11.4814,9.9585c-0.2764,0-0.5-0.2236-0.5-0.5v-3.666c0-0.2764,0.2236-0.5,0.5-0.5s0.5,0.2236,0.5,0.5v3.666
		C11.9814,9.7349,11.7578,9.9585,11.4814,9.9585z"/>
	<path d="M17.4873,8.6074c-0.2764,0-0.5-0.2236-0.5-0.5V3.25c0-0.2764,0.2236-0.5,0.5-0.5s0.5,0.2236,0.5,0.5v4.8574
		C17.9873,8.3838,17.7637,8.6074,17.4873,8.6074z"/>
	<path d="M15.9873,23.8721c-0.168,0-0.3242-0.084-0.417-0.2236c-0.4375-0.6611-4.2744-6.5283-4.2744-8.9131
		c0-2.5742,2.1045-4.668,4.6914-4.668s4.6914,2.0938,4.6914,4.668c0,2.3848-3.8369,8.252-4.2744,8.9131
		C16.3115,23.7881,16.1553,23.8721,15.9873,23.8721z M15.9873,11.0674c-2.0352,0-3.6914,1.6455-3.6914,3.668
		c0,1.5781,2.373,5.6406,3.6914,7.7168c1.3184-2.0762,3.6914-6.1387,3.6914-7.7168C19.6787,12.7129,18.0225,11.0674,15.9873,11.0674
		z"/>
	<path d="M15.9873,15.9648c-0.8477,0-1.5371-0.6865-1.5371-1.5312s0.6895-1.5312,1.5371-1.5312
		c0.8467,0,1.5361,0.6865,1.5361,1.5312S16.834,15.9648,15.9873,15.9648z M15.9873,13.9023c-0.2959,0-0.5371,0.2383-0.5371,0.5312
		s0.2412,0.5312,0.5371,0.5312s0.5361-0.2383,0.5361-0.5312S16.2832,13.9023,15.9873,13.9023z"/>
</g>
<rect x="-0.0136" y="0.0001" fill="none" width="24" height="24"/>
</svg>
