<?xml version="1.0" encoding="utf-8"?>
<!-- Generator: Adobe Illustrator 18.1.0, SVG Export Plug-In . SVG Version: 6.00 Build 0)  -->
<svg version="1.1" id="Layer_1" xmlns="http://www.w3.org/2000/svg" xmlns:xlink="http://www.w3.org/1999/xlink" x="0px" y="0px"
	 width="24px" height="24px" viewBox="0 0 24 24" enable-background="new 0 0 24 24" xml:space="preserve">
<g>
	<path d="M20.3398,23.9805H3.5732c-0.2539,0-0.4678-0.1904-0.4966-0.4424l-1.1426-9.9082c-0.0317-0.2744,0.165-0.5225,0.4395-0.5547
		c0.2773-0.0234,0.5225,0.165,0.5537,0.4395l1.0918,9.4658h15.8755l1.0898-9.4658c0.0322-0.2754,0.2871-0.4639,0.5547-0.4395
		c0.2744,0.0322,0.4707,0.2803,0.4395,0.5547l-1.1416,9.9082C20.8076,23.79,20.5938,23.9805,20.3398,23.9805z"/>
	<path d="M23.4434,14.0459H0.4702c-0.2764,0-0.5-0.2236-0.5-0.5V9.4863c0-0.2764,0.2236-0.5,0.5-0.5h22.9731
		c0.2764,0,0.5,0.2236,0.5,0.5v4.0596C23.9434,13.8223,23.7197,14.0459,23.4434,14.0459z M0.9702,13.0459h21.9731V9.9863H0.9702
		V13.0459z"/>
	<path d="M17.793,6.8394c-0.1279,0-0.2559-0.0488-0.3535-0.1465l-5.2959-5.2964L6.8472,6.6929c-0.1953,0.1953-0.5117,0.1953-0.707,0
		s-0.1953-0.5117,0-0.707L11.79,0.3359c0.1875-0.1875,0.5195-0.1875,0.707,0l5.6494,5.6499c0.1953,0.1953,0.1953,0.5117,0,0.707
		C18.0488,6.7905,17.9209,6.8394,17.793,6.8394z"/>
</g>
<rect x="-0.0136" y="0.0001" fill="none" width="24" height="24"/>
</svg>
