<?xml version="1.0" encoding="utf-8"?>
<!-- Generator: Adobe Illustrator 18.1.0, SVG Export Plug-In . SVG Version: 6.00 Build 0)  -->
<svg version="1.1" id="Layer_1" xmlns="http://www.w3.org/2000/svg" xmlns:xlink="http://www.w3.org/1999/xlink" x="0px" y="0px"
	 width="24px" height="24px" viewBox="0 0 24 24" enable-background="new 0 0 24 24" xml:space="preserve">
<g>
	<path d="M23.5078,18.0156h-5.5c-0.2764,0-0.5-0.2236-0.5-0.5s0.2236-0.5,0.5-0.5h5V1.0161H1.0083v15.9995h5
		c0.2764,0,0.5,0.2236,0.5,0.5s-0.2236,0.5-0.5,0.5h-5.5c-0.2764,0-0.5-0.2236-0.5-0.5V0.5161c0-0.2764,0.2236-0.5,0.5-0.5h22.9995
		c0.2764,0,0.5,0.2236,0.5,0.5v16.9995C24.0078,17.792,23.7842,18.0156,23.5078,18.0156z"/>
	<path d="M15.5078,12.916c-0.2764,0-0.5-0.2236-0.5-0.5V9.0161H9.0083v3.3999c0,0.2764-0.2236,0.5-0.5,0.5s-0.5-0.2236-0.5-0.5
		V8.5161c0-0.2764,0.2236-0.5,0.5-0.5h6.9995c0.2764,0,0.5,0.2236,0.5,0.5v3.8999C16.0078,12.6924,15.7842,12.916,15.5078,12.916z"
		/>
	<path d="M17.7295,15.0156H6.5542c-0.2764,0-0.5-0.2236-0.5-0.5s0.2236-0.5,0.5-0.5h11.1753c0.2764,0,0.5,0.2236,0.5,0.5
		S18.0059,15.0156,17.7295,15.0156z"/>
	<path d="M15.5469,23.793c-0.0186,0-0.0381-0.001-0.0566-0.0029c-0.2744-0.0312-0.4717-0.2783-0.4414-0.5527l0.9238-8.2217H8.1523
		l0.9238,8.2217c0.0308,0.2744-0.167,0.5215-0.4414,0.5527c-0.271,0.0283-0.5215-0.167-0.5527-0.4414l-0.9863-8.7773
		c-0.0156-0.1416,0.0293-0.2832,0.1245-0.3887c0.0947-0.1064,0.2305-0.167,0.3726-0.167h8.9395c0.1426,0,0.2783,0.0605,0.373,0.167
		c0.0947,0.1055,0.1396,0.2471,0.124,0.3887l-0.9863,8.7773C16.0137,23.6045,15.7979,23.793,15.5469,23.793z"/>
	<path d="M15.665,22.7314c-0.124,0-0.249-0.0459-0.3457-0.1387L7.2471,14.877c-0.1992-0.1904-0.2065-0.5068-0.0156-0.707
		c0.1914-0.1992,0.5073-0.2061,0.707-0.0156l8.0723,7.7158c0.1992,0.1904,0.207,0.5068,0.0156,0.707
		C15.9287,22.6797,15.7969,22.7314,15.665,22.7314z"/>
	<path d="M8.4595,22.7314c-0.1318,0-0.2632-0.0518-0.3613-0.1543c-0.1909-0.2002-0.1836-0.5166,0.0156-0.707l8.0728-7.7158
		c0.1992-0.1914,0.5176-0.1836,0.707,0.0156c0.1914,0.2002,0.1836,0.5166-0.0156,0.707l-8.0728,7.7158
		C8.708,22.6855,8.5835,22.7314,8.4595,22.7314z"/>
	<path d="M12.1416,22.7314c-0.1123,0-0.2251-0.0381-0.3169-0.1133L7.769,19.291c-0.1143-0.0938-0.1812-0.2334-0.1831-0.3809
		c-0.0015-0.1475,0.062-0.2891,0.1738-0.3848l3.9561-3.4023c0.187-0.1621,0.4629-0.1611,0.6514-0.001l3.9951,3.417
		c0.1113,0.0947,0.1748,0.2344,0.1748,0.3809s-0.0645,0.2852-0.1758,0.3799l-3.8955,3.3125
		C12.3721,22.6914,12.2568,22.7314,12.1416,22.7314z M8.8633,18.8955l3.2725,2.6846l3.1309-2.6621l-3.2236-2.7568L8.8633,18.8955z"
		/>
	<path d="M12.042,16.002c-0.1157,0-0.2319-0.04-0.3252-0.1201l-1.1514-0.9863c-0.21-0.1797-0.2344-0.4951-0.0547-0.7051
		c0.1807-0.209,0.4966-0.2344,0.7051-0.0547l0.8291,0.71l0.8477-0.7129c0.2109-0.1777,0.5283-0.1504,0.7051,0.0605
		c0.1777,0.2119,0.1504,0.5273-0.0605,0.7051l-1.1729,0.9863C12.2705,15.9629,12.1562,16.002,12.042,16.002z"/>
</g>
<rect x="-0.0061" fill="none" width="24" height="24"/>
</svg>
