<?xml version="1.0" encoding="utf-8"?>
<!-- Generator: Adobe Illustrator 18.1.0, SVG Export Plug-In . SVG Version: 6.00 Build 0)  -->
<svg version="1.1" id="Layer_1" xmlns="http://www.w3.org/2000/svg" xmlns:xlink="http://www.w3.org/1999/xlink" x="0px" y="0px"
	 width="24px" height="24px" viewBox="0 0 24 24" enable-background="new 0 0 24 24" xml:space="preserve">
<g>
	<g>
		<g>
			<path d="M3.0117,22.0303h-2.5c-0.2764,0-0.5-0.2236-0.5-0.5s0.2236-0.5,0.5-0.5h2.5c0.2764,0,0.5,0.2236,0.5,0.5
				S3.2881,22.0303,3.0117,22.0303z"/>
			<path d="M8.5093,22.0303h-2.5c-0.2764,0-0.5-0.2236-0.5-0.5s0.2236-0.5,0.5-0.5h2.5c0.2764,0,0.5,0.2236,0.5,0.5
				S8.7856,22.0303,8.5093,22.0303z"/>
		</g>
	</g>
	<g>
		<g>
			<path d="M17.0127,22.0303h-2.5c-0.2764,0-0.5-0.2236-0.5-0.5s0.2236-0.5,0.5-0.5h2.5c0.2764,0,0.5,0.2236,0.5,0.5
				S17.2891,22.0303,17.0127,22.0303z"/>
			<path d="M22.5107,22.0303h-2.5c-0.2764,0-0.5-0.2236-0.5-0.5s0.2236-0.5,0.5-0.5h2.5c0.2764,0,0.5,0.2236,0.5,0.5
				S22.7871,22.0303,22.5107,22.0303z"/>
		</g>
	</g>
	<path d="M11.4512,21.1602c-0.2764,0-0.5-0.2236-0.5-0.5V17.584c0-0.2764,0.2236-0.5,0.5-0.5s0.5,0.2236,0.5,0.5v3.0762
		C11.9512,20.9365,11.7275,21.1602,11.4512,21.1602z"/>
	<path d="M11.4512,22.9189c-0.7607,0-1.3799-0.6182-1.3799-1.3789s0.6191-1.3799,1.3799-1.3799s1.3799,0.6191,1.3799,1.3799
		S12.2119,22.9189,11.4512,22.9189z M11.4512,21.1602c-0.2095,0-0.3799,0.1709-0.3799,0.3799s0.1704,0.3789,0.3799,0.3789
		s0.3799-0.1699,0.3799-0.3789S11.6606,21.1602,11.4512,21.1602z"/>
	<path d="M20.502,15.9736H3.4126c-0.7969,0-1.4453-0.6504-1.4453-1.4502V1.4648c0-0.7998,0.6484-1.4507,1.4453-1.4507h3.5679
		c0.1997,0,0.7891,0,1.7578,2.04H20.502c0.7969,0,1.4453,0.6509,1.4453,1.4507v11.0186
		C21.9473,15.3232,21.2988,15.9736,20.502,15.9736z M3.4126,1.0142c-0.2456,0-0.4453,0.2021-0.4453,0.4507v13.0586
		c0,0.248,0.1997,0.4502,0.4453,0.4502H20.502c0.2451,0,0.4453-0.2021,0.4453-0.4502V3.5049c0-0.2485-0.2002-0.4507-0.4453-0.4507
		H8.4185c-0.1968,0-0.3755-0.1157-0.4561-0.2949C7.6079,1.9717,7.1309,1.1841,6.9102,1.0142H3.4126z"/>
	<path d="M21.4473,6.0249h-18.98c-0.2764,0-0.5-0.2236-0.5-0.5s0.2236-0.5,0.5-0.5h18.98c0.2764,0,0.5,0.2236,0.5,0.5
		S21.7236,6.0249,21.4473,6.0249z"/>
</g>
<rect fill="none" width="24" height="24"/>
</svg>
