<?xml version="1.0" encoding="utf-8"?>
<!-- Generator: Adobe Illustrator 18.1.0, SVG Export Plug-In . SVG Version: 6.00 Build 0)  -->
<svg version="1.1" id="Layer_1" xmlns="http://www.w3.org/2000/svg" xmlns:xlink="http://www.w3.org/1999/xlink" x="0px" y="0px"
	 width="24px" height="24px" viewBox="0 0 24 24" enable-background="new 0 0 24 24" xml:space="preserve">
<g>
	<path d="M23.4199,18.0273H6.5654c-0.2764,0-0.5-0.2236-0.5-0.5V0.6416c0-0.2764,0.2236-0.5,0.5-0.5s0.5,0.2236,0.5,0.5v16.3857
		h16.3545c0.2764,0,0.5,0.2236,0.5,0.5S23.6963,18.0273,23.4199,18.0273z"/>
	<path d="M17.5,23.5c-0.2764,0-0.5-0.2236-0.5-0.5v-5.4727c0-0.2764,0.2236-0.5,0.5-0.5s0.5,0.2236,0.5,0.5V23
		C18,23.2764,17.7764,23.5,17.5,23.5z"/>
	<path d="M17.5,15.5c-0.2764,0-0.5-0.2236-0.5-0.5V6.9995H9c-0.2764,0-0.5-0.2236-0.5-0.5s0.2236-0.5,0.5-0.5h8.5
		c0.2764,0,0.5,0.2236,0.5,0.5V15C18,15.2764,17.7764,15.5,17.5,15.5z"/>
	<path d="M6.5654,6.9995H1c-0.2764,0-0.5-0.2236-0.5-0.5s0.2236-0.5,0.5-0.5h5.5654c0.2764,0,0.5,0.2236,0.5,0.5
		S6.8418,6.9995,6.5654,6.9995z"/>
	<path d="M8.604,15.8838c-0.1279,0-0.2559-0.0488-0.3535-0.1465c-0.1953-0.1953-0.1953-0.5117,0-0.707L21.3691,1.9121
		c0.1953-0.1953,0.5117-0.1953,0.707,0s0.1953,0.5117,0,0.707L8.9575,15.7373C8.8599,15.835,8.7319,15.8838,8.604,15.8838z"/>
</g>
<rect y="-0.0001" fill="none" width="24" height="24"/>
</svg>
