<?xml version="1.0" encoding="utf-8"?>
<!-- Generator: Adobe Illustrator 18.1.1, SVG Export Plug-In . SVG Version: 6.00 Build 0)  -->
<svg version="1.1" id="Layer_1" xmlns="http://www.w3.org/2000/svg" xmlns:xlink="http://www.w3.org/1999/xlink" x="0px" y="0px"
	 width="24px" height="24px" viewBox="0 0 24 24" enable-background="new 0 0 24 24" xml:space="preserve">
<rect fill="none" width="24" height="24"/>
<g>
	<path d="M9.7851,4.6001c0.0047,0.0267,0.0021,0.0541,0.0113,0.0801c0.0018,0.0054,0.0065,0.0091,0.0085,0.0143
		c0.0023,0.0059,0.0012,0.012,0.0037,0.0179c0.0049,0.0115,0.017,0.0161,0.0227,0.0269c0.0341,0.0663,0.0812,0.1214,0.1404,0.1664
		c0.0168,0.0127,0.0304,0.0257,0.0485,0.0361c0.0124,0.0073,0.021,0.0192,0.0341,0.0254l2.9146,1.3799
		c0.0693,0.0327,0.1416,0.0479,0.2139,0.0479c0.1865,0,0.3662-0.1055,0.4521-0.2861c0.1182-0.2495,0.0117-0.5479-0.2383-0.666
		l-1.8657-0.8834c2.8575-1.0264,5.8438-1.3188,8.52-0.8154c0.2666,0.0483,0.5332-0.127,0.584-0.3984
		c0.0518-0.2715-0.127-0.5332-0.3984-0.584c-2.8237-0.5337-5.9592-0.2378-8.9564,0.8231l0.8402-1.7176
		c0.1211-0.248,0.0186-0.5474-0.2295-0.6689s-0.5474-0.0181-0.6689,0.2295L9.8188,4.2954C9.8161,4.3011,9.8167,4.3076,9.8141,4.3134
		c-0.0145,0.0325-0.0195,0.067-0.0267,0.1019C9.7814,4.4442,9.772,4.4716,9.7712,4.501C9.7702,4.5342,9.7793,4.5667,9.7851,4.6001z"
		/>
	<path d="M21.4072,16.1924c-0.4834-0.6846-1.1611-1.8164-1.6494-3.3184c-0.7363-2.2632-2.4355-4.3882-2.543-4.5176
		c-0.8809-0.8804-1.9189-0.9785-2.6436-0.2524c-0.2534,0.2531-0.4225,0.565-0.5117,0.9024L13.8643,8.811
		c-0.7559-0.7563-2.0732-0.7554-2.8281,0c-0.2535,0.2535-0.4227,0.5653-0.5117,0.9026l-4.438-4.4383
		c-0.7798-0.7803-2.0479-0.7803-2.8286,0C2.637,5.8962,2.519,6.8239,2.8867,7.5711C2.499,7.6401,2.1306,7.8168,1.8438,8.104
		C1.4658,8.4814,1.2578,8.9839,1.2578,9.5181s0.208,1.0366,0.5859,1.4141l6.8372,6.8375l-3.7366-0.964
		c-0.7705-0.1719-1.5601,0.3115-1.8296,1.127c-0.2305,0.6953-0.0132,1.5967,0.979,2.04c0.208,0.0986,5.1372,2.4209,8.7402,2.6904
		c0.0107,0.002,0.9824-0.0518,1.9131,0.3369c0.0635,0.0254,0.1279,0.0381,0.1924,0.0381c0.1953,0,0.3818-0.1152,0.4619-0.3076
		c0.1055-0.2549-0.0146-0.5479-0.2695-0.6543c-1.1533-0.4805-2.3115-0.4121-2.2891-0.4111
		c-3.3496-0.2539-8.271-2.5732-8.3311-2.6016c-0.5444-0.2422-0.5142-0.6162-0.4478-0.8164
		c0.0933-0.2803,0.3657-0.5293,0.6504-0.4678l5.4883,1.415c0.0214,0.006,0.0422,0.0014,0.0636,0.0044
		c0.0212,0.0027,0.0415,0.0122,0.0629,0.0122c0.0103,0,0.0199-0.0052,0.0301-0.0059c0.0393-0.0021,0.0754-0.0106,0.1123-0.0219
		c0.0235-0.0071,0.046-0.0134,0.0685-0.024c0.0367-0.0175,0.0684-0.0403,0.1-0.0663c0.0135-0.011,0.0301-0.0158,0.0427-0.0284
		c0.007-0.007,0.0092-0.0162,0.0156-0.0235c0.0233-0.0262,0.0403-0.0561,0.0579-0.0873c0.0165-0.0291,0.0325-0.0568,0.0428-0.088
		c0.0035-0.0104,0.0112-0.018,0.014-0.0288c0.0054-0.0205,0.0007-0.0404,0.0034-0.0609c0.0045-0.0341,0.0082-0.0667,0.0057-0.101
		c-0.0024-0.0327-0.0097-0.0627-0.0183-0.0939c-0.0082-0.0303-0.0168-0.059-0.0308-0.0876
		c-0.0154-0.0315-0.0354-0.0584-0.0571-0.0861c-0.0126-0.0161-0.0185-0.0353-0.0333-0.05l-8.1318-8.1323
		c-0.189-0.189-0.293-0.4399-0.293-0.707S2.3618,9,2.5508,8.811c0.3779-0.3779,1.0361-0.3779,1.4141,0l5.3032,5.3032
		c0.0977,0.0977,0.2256,0.1465,0.3535,0.1465s0.2559-0.0488,0.3535-0.1465c0.1953-0.1953,0.1953-0.5117,0-0.707L4.6719,8.104
		l-0.707-0.707c-0.3901-0.3901-0.3901-1.0244,0-1.4146c0.377-0.3779,1.0361-0.3784,1.4146,0l6.7173,6.7178
		c0.0977,0.0977,0.2256,0.1465,0.3535,0.1465s0.2559-0.0488,0.3535-0.1465c0.1953-0.1953,0.1953-0.5117,0-0.707l-1.0605-1.061
		c-0.189-0.189-0.293-0.4399-0.293-0.707s0.104-0.5181,0.293-0.707c0.3779-0.377,1.0342-0.3789,1.4141,0l1.4141,1.4141
		l0.3535,0.3535c0.0977,0.0977,0.2256,0.1465,0.3535,0.1465s0.2559-0.0488,0.3535-0.1465c0.1953-0.1953,0.1953-0.5117,0-0.707
		l-0.3535-0.3535c-0.1885-0.189-0.293-0.4399-0.293-0.707S15.0898,9,15.2783,8.811c0.4229-0.4233,0.9531-0.0244,1.1934,0.2124
		c0.0166,0.0205,1.6553,2.0693,2.335,4.1592c0.5273,1.6211,1.2607,2.8447,1.7832,3.5859c0.0967,0.1377,0.252,0.2119,0.4082,0.2119
		c0.0996,0,0.2002-0.0293,0.2881-0.0918C21.5117,16.7305,21.5654,16.418,21.4072,16.1924z"/>
</g>
</svg>
