<?xml version="1.0" encoding="utf-8"?>
<!-- Generator: Adobe Illustrator 18.1.0, SVG Export Plug-In . SVG Version: 6.00 Build 0)  -->
<svg version="1.1" id="Layer_1" xmlns="http://www.w3.org/2000/svg" xmlns:xlink="http://www.w3.org/1999/xlink" x="0px" y="0px"
	 width="24px" height="24px" viewBox="0 0 24 24" enable-background="new 0 0 24 24" xml:space="preserve">
<g>
	<path d="M20.3594,22.4512c-1.874,0-3.3984-1.5244-3.3984-3.3984s1.5244-3.3984,3.3984-3.3984s3.3984,1.5244,3.3984,3.3984
		S22.2334,22.4512,20.3594,22.4512z M20.3594,16.6543c-1.3223,0-2.3984,1.0762-2.3984,2.3984s1.0762,2.3984,2.3984,2.3984
		s2.3984-1.0762,2.3984-2.3984S21.6816,16.6543,20.3594,16.6543z"/>
	<path d="M4.9824,22.4512c-2.603,0-4.7212-2.1182-4.7212-4.7217s2.1182-4.7217,4.7212-4.7217s4.7212,2.1182,4.7212,4.7217
		S7.5854,22.4512,4.9824,22.4512z M4.9824,14.0078c-2.0518,0-3.7212,1.6699-3.7212,3.7217s1.6694,3.7217,3.7212,3.7217
		s3.7212-1.6699,3.7212-3.7217S7.0342,14.0078,4.9824,14.0078z"/>
	<path d="M5.501,11.9858c-0.2764,0-0.5-0.2236-0.5-0.5V4.4854c0-0.2764,0.2236-0.5,0.5-0.5s0.5,0.2236,0.5,0.5v7.0005
		C6.001,11.7622,5.7773,11.9858,5.501,11.9858z"/>
	<path d="M13.5889,4.9854H4.5166c-0.2764,0-0.5-0.2236-0.5-0.5s0.2236-0.5,0.5-0.5h9.0723c0.2764,0,0.5,0.2236,0.5,0.5
		S13.8652,4.9854,13.5889,4.9854z"/>
	<path d="M17.4609,11.959c-0.2764,0-0.5-0.2236-0.5-0.5V7.9883c0-0.2764,0.2236-0.5,0.5-0.5s0.5,0.2236,0.5,0.5v3.4707
		C17.9609,11.7354,17.7373,11.959,17.4609,11.959z"/>
	<path d="M8.5513,11.9858c-0.2764,0-0.5-0.2236-0.5-0.5V4.4854c0-0.2764,0.2236-0.5,0.5-0.5s0.5,0.2236,0.5,0.5v7.0005
		C9.0513,11.7622,8.8276,11.9858,8.5513,11.9858z"/>
	<path d="M14.4443,19.0283h-2.917c-0.2764,0-0.5-0.2236-0.5-0.5v-2.5771c0-0.1943-0.0659-0.3848-0.186-0.5371l-2.542-3.4282H2.5112
		c-0.2764,0-0.5-0.2236-0.5-0.5s0.2236-0.5,0.5-0.5h6.04c0.1582,0,0.3071,0.0752,0.4019,0.2021l2.6826,3.6187
		c0.249,0.3154,0.3916,0.7266,0.3916,1.1445v2.0771h1.917v-6.5161c0-0.2764,0.2236-0.5,0.5-0.5s0.5,0.2236,0.5,0.5v7.0161
		C14.9443,18.8047,14.7207,19.0283,14.4443,19.0283z"/>
	<path d="M14.4443,21.0283h-2.8882c-0.2764,0-0.5-0.2236-0.5-0.5s0.2236-0.5,0.5-0.5h2.8882c0.2764,0,0.5,0.2236,0.5,0.5
		S14.7207,21.0283,14.4443,21.0283z"/>
	<path d="M4.98,18.2295c-0.1304,0-0.25-0.0498-0.3501-0.1396C4.5298,17.9795,4.48,17.8594,4.48,17.7295s0.0601-0.2598,0.1499-0.3496
		c0.1899-0.2002,0.5298-0.1904,0.71,0C5.4297,17.4697,5.48,17.5996,5.48,17.7295s-0.0503,0.2607-0.1401,0.3506
		C5.2397,18.1797,5.1099,18.2295,4.98,18.2295z"/>
	<path d="M20.3594,19.5498c-0.1299,0-0.2598-0.0498-0.3496-0.1396c-0.0996-0.1006-0.1504-0.2305-0.1504-0.3604
		s0.0508-0.25,0.1406-0.3496c0.2002-0.1904,0.5195-0.1807,0.71,0c0.0996,0.0996,0.1494,0.2197,0.1494,0.3496
		s-0.0498,0.2598-0.1494,0.3496C20.6201,19.5,20.4902,19.5498,20.3594,19.5498z"/>
	<path d="M15.7051,19.0283h-1.2607c-0.2764,0-0.5-0.2236-0.5-0.5s0.2236-0.5,0.5-0.5h0.8428
		c0.5303-2.4082,2.6406-4.1748,5.0723-4.1748c0.6582,0,1.3086,0.125,1.915,0.3652c-0.0762-1.4502-3.1787-2.0967-4.2744-2.209
		l-3.5557,0.002c-0.2354,0-0.4385-0.1631-0.4883-0.3931l-1.5332-7.0269c-0.0596-0.2695,0.1123-0.5361,0.3818-0.5947
		c0.2734-0.061,0.5361,0.1123,0.5947,0.3818l1.4473,6.6333h3.2041c0.5811,0.0571,5.2246,0.6118,5.2246,3.2612v0.749
		c0,0.1807-0.0967,0.3467-0.2539,0.4355c-0.1562,0.0879-0.3496,0.0869-0.5039-0.0068c-0.6504-0.3906-1.3965-0.5977-2.1582-0.5977
		c-2.0439,0-3.8711,1.6445-4.1592,3.7432C16.166,18.8438,15.9551,19.0283,15.7051,19.0283z"/>
</g>
<rect x="0.0022" y="-0.0147" fill="none" width="24" height="24"/>
</svg>
