<?xml version="1.0" encoding="utf-8"?>
<!-- Generator: Adobe Illustrator 18.1.0, SVG Export Plug-In . SVG Version: 6.00 Build 0)  -->
<svg version="1.1" id="Layer_1" xmlns="http://www.w3.org/2000/svg" xmlns:xlink="http://www.w3.org/1999/xlink" x="0px" y="0px"
	 width="24px" height="24px" viewBox="0 0 24 24" enable-background="new 0 0 24 24" xml:space="preserve">
<g>
	<path d="M5.7964,10.0107c-0.0215,0-0.0425-0.0015-0.064-0.0039c-0.1313-0.0171-0.251-0.0854-0.332-0.1909
		C4.5439,8.7061,4.2798,7.2549,4.6553,5.73C5.021,4.2461,5.9541,2.8643,7.2837,1.8389c1.2998-1.0029,2.8413-1.5552,4.3398-1.5552
		c1.6099,0,2.979,0.6245,3.853,1.7588c0.1689,0.2183,0.1289,0.5322-0.0898,0.7012L6.1021,9.9067
		C6.0137,9.9746,5.9062,10.0107,5.7964,10.0107z M11.6235,1.2837c-1.2788,0-2.603,0.4785-3.7295,1.3472
		C6.7432,3.5186,5.938,4.7041,5.6265,5.9688c-0.2549,1.0347-0.1509,2.0166,0.291,2.8174l8.4321-6.5054
		C13.6709,1.6343,12.7217,1.2837,11.6235,1.2837z"/>
	<path d="M7.7759,21.4912c-0.0815,0-0.1646-0.0205-0.2412-0.0625c-0.2417-0.1338-0.3296-0.4375-0.1958-0.6797l2.9409-5.3203
		c0.1333-0.2412,0.4375-0.3291,0.6792-0.1953s0.3296,0.4375,0.1958,0.6797l-2.9409,5.3203
		C8.1226,21.3984,7.9521,21.4912,7.7759,21.4912z"/>
	<path d="M17.127,23.8467c-0.1875,0-0.3682-0.1064-0.4531-0.2881l-3.5928-7.6758c-0.1172-0.25-0.0088-0.5479,0.2412-0.665
		c0.248-0.1172,0.5479-0.0098,0.665,0.2412l3.5928,7.6758c0.1172,0.25,0.0088,0.5479-0.2412,0.665
		C17.2705,23.832,17.1982,23.8467,17.127,23.8467z"/>
	<path d="M16.2715,22.0195H8.2183c-0.2764,0-0.5-0.2236-0.5-0.5s0.2236-0.5,0.5-0.5h8.0532c0.2764,0,0.5,0.2236,0.5,0.5
		S16.5479,22.0195,16.2715,22.0195z"/>
	<path d="M12.126,16.3525c-3.8481,0-6.833-3.6729-6.833-6.833c0-0.2764,0.2236-0.5,0.5-0.5h12.666c0.2764,0,0.5,0.2236,0.5,0.5
		C18.959,12.6797,15.9746,16.3525,12.126,16.3525z M6.3213,10.0195c0.2866,2.5703,2.7212,5.333,5.8047,5.333
		c3.084,0,5.5176-2.7627,5.8047-5.333H6.3213z"/>
	<path d="M9.1069,13.4473c-0.1294,0-0.2588-0.0498-0.3569-0.1494c-0.5874-0.5986-1.0068-1.3232-1.2124-2.0952
		c-0.0713-0.2671,0.0874-0.541,0.354-0.6118c0.2681-0.0703,0.5405,0.0869,0.6118,0.354c0.1616,0.6055,0.4937,1.1763,0.9604,1.6519
		c0.1934,0.1973,0.1904,0.5137-0.0068,0.707C9.3599,13.3994,9.2334,13.4473,9.1069,13.4473z"/>
	<path d="M6.9956,23.8467c-0.9971,0-1.8081-0.8115-1.8081-1.8086s0.811-1.8076,1.8081-1.8076s1.8081,0.8105,1.8081,1.8076
		S7.9927,23.8467,6.9956,23.8467z M6.9956,21.2305c-0.4458,0-0.8081,0.3623-0.8081,0.8076c0,0.4463,0.3623,0.8086,0.8081,0.8086
		s0.8081-0.3623,0.8081-0.8086C7.8037,21.5928,7.4414,21.2305,6.9956,21.2305z"/>
	<path d="M5.7964,10.0195H5.0059c-0.2764,0-0.5-0.2236-0.5-0.5s0.2236-0.5,0.5-0.5h0.7905c0.2764,0,0.5,0.2236,0.5,0.5
		S6.0728,10.0195,5.7964,10.0195z"/>
	<path d="M20.4453,12.0195h-2.3799c-0.2764,0-0.5-0.2236-0.5-0.5s0.2236-0.5,0.5-0.5h2.3799c0.2764,0,0.5,0.2236,0.5,0.5
		S20.7217,12.0195,20.4453,12.0195z"/>
</g>
<rect y="0.0197" fill="none" width="24" height="24"/>
</svg>
