<?xml version="1.0" encoding="utf-8"?>
<!-- Generator: Adobe Illustrator 18.1.0, SVG Export Plug-In . SVG Version: 6.00 Build 0)  -->
<svg version="1.1" id="Layer_1" xmlns="http://www.w3.org/2000/svg" xmlns:xlink="http://www.w3.org/1999/xlink" x="0px" y="0px"
	 width="24px" height="24px" viewBox="0 0 24 24" enable-background="new 0 0 24 24" xml:space="preserve">
<g>
	<path d="M11.999,23.8506c-6.5239,0-11.8315-5.3076-11.8315-11.832c0-6.5234,5.3076-11.8311,11.8315-11.8311
		c6.5234,0,11.8311,5.3076,11.8311,11.8311C23.8301,18.543,18.5225,23.8506,11.999,23.8506z M11.999,1.1875
		c-5.9727,0-10.8315,4.8589-10.8315,10.8311c0,5.9727,4.8589,10.832,10.8315,10.832s10.8311-4.8594,10.8311-10.832
		C22.8301,6.0464,17.9717,1.1875,11.999,1.1875z"/>
	<path d="M19.5381,20.9707c-0.0645,0-0.1299-0.0127-0.1924-0.0381c-4.9932-2.0811-5.25-2.9023-5.3594-3.2529
		c-0.0146-0.0488-0.0225-0.0986-0.0225-0.1494v-0.9932c0-0.1309,0.0508-0.2559,0.1426-0.3496
		c0.6055-0.6201,1.0752-1.4814,1.3574-2.4912c0.0312-0.1113,0.0996-0.208,0.1934-0.2744c0.2461-0.1729,0.4111-0.4463,0.4531-0.75
		c0.043-0.3086-0.0439-0.6133-0.2432-0.8594c-0.0732-0.0894-0.1123-0.2007-0.1123-0.3154V9.2739
		c0-2.2021-1.2793-3.3662-3.7002-3.3662c-2.3867,0-3.7012,1.1953-3.7012,3.3662v2.2241c0,0.1147-0.0396,0.2261-0.1118,0.3154
		c-0.1992,0.2451-0.2856,0.5498-0.2432,0.8574c0.042,0.3037,0.207,0.5771,0.4531,0.75c0.0942,0.0664,0.1626,0.1641,0.1934,0.2744
		c0.2822,1.0107,0.752,1.8721,1.3584,2.4922c0.0913,0.0938,0.1426,0.2188,0.1426,0.3496v0.9932
		c0,0.0508-0.0078,0.1006-0.0225,0.1484c-0.1807,0.5791-0.9443,1.4102-5.2427,3.1953c-0.2549,0.1074-0.5474-0.0146-0.6538-0.2705
		c-0.106-0.2549,0.0151-0.5469,0.27-0.6533c3.8389-1.5938,4.5264-2.3105,4.6489-2.5205v-0.6943
		c-0.6221-0.6885-1.1084-1.584-1.4175-2.6104c-0.3896-0.3311-0.6489-0.8018-0.7202-1.3174c-0.0728-0.5234,0.0498-1.04,0.3452-1.4746
		V9.2739c0-2.7339,1.7573-4.3662,4.7012-4.3662c2.9873,0,4.7002,1.5913,4.7002,4.3662v2.0581
		c0.2969,0.4355,0.4189,0.9531,0.3467,1.4775c-0.0713,0.5146-0.3311,0.9854-0.7217,1.3164
		c-0.3086,1.0254-0.7949,1.9209-1.416,2.6094v0.6875c0.1191,0.1787,0.8232,0.9434,4.7666,2.5859
		c0.2549,0.1064,0.375,0.3994,0.2695,0.6543C19.9199,20.8555,19.7334,20.9707,19.5381,20.9707z"/>
</g>
<rect fill="none" width="24" height="24"/>
</svg>
