<?xml version="1.0" encoding="utf-8"?>
<!-- Generator: Adobe Illustrator 18.1.0, SVG Export Plug-In . SVG Version: 6.00 Build 0)  -->
<svg version="1.1" id="Layer_1" xmlns="http://www.w3.org/2000/svg" xmlns:xlink="http://www.w3.org/1999/xlink" x="0px" y="0px"
	 width="24px" height="24px" viewBox="0 0 24 24" enable-background="new 0 0 24 24" xml:space="preserve">
<g>
	<path d="M13.4639,12.0244h-2.9272c-0.2764,0-0.5-0.2231-0.5-0.4995V2.0747c0-1.083,0.8809-1.9639,1.9634-1.9639
		c1.083,0,1.9639,0.8809,1.9639,1.9639v9.4502C13.9639,11.8013,13.7402,12.0244,13.4639,12.0244z M11.0366,11.0249h1.9272V2.0747
		c0-0.5312-0.4326-0.9639-0.9639-0.9639s-0.9634,0.4326-0.9634,0.9639V11.0249z"/>
	<path d="M12,2.5601c-0.1304,0-0.2603-0.0503-0.3501-0.1401C11.5498,2.3198,11.5,2.1899,11.5,2.0601
		c0-0.1304,0.0498-0.2603,0.1499-0.3501c0.1797-0.1899,0.52-0.1899,0.6997,0C12.4502,1.8101,12.5,1.9399,12.5,2.0601
		c0,0.1299-0.0498,0.2598-0.1406,0.3496C12.2598,2.5098,12.1299,2.5601,12,2.5601z"/>
	<path d="M12,19.96c-0.1304,0-0.25-0.0498-0.3501-0.1406C11.5498,19.7197,11.5,19.5996,11.5,19.46
		c0-0.1299,0.0601-0.2598,0.1499-0.3506c0.1797-0.1797,0.5103-0.1895,0.6997,0C12.4502,19.2002,12.5,19.3301,12.5,19.46
		s-0.0498,0.2598-0.1406,0.3496C12.25,19.9102,12.1299,19.96,12,19.96z"/>
	<path d="M12,23.8281c-2.4062,0-4.3638-1.958-4.3638-4.3643S9.5938,15.1006,12,15.1006s4.3643,1.957,4.3643,4.3633
		S14.4062,23.8281,12,23.8281z M12,16.1006c-1.855,0-3.3638,1.5088-3.3638,3.3633c0,1.8555,1.5088,3.3643,3.3638,3.3643
		c1.8555,0,3.3643-1.5088,3.3643-3.3643C15.3643,17.6094,13.8555,16.1006,12,16.1006z"/>
	<path d="M15.668,15.9961c-0.124,0-0.2471-0.0459-0.3438-0.1377c-0.9043-0.8574-2.085-1.3301-3.3242-1.3301
		c-1.2388,0-2.4189,0.4727-3.3232,1.3301c-0.1997,0.1904-0.5156,0.1846-0.707-0.0186c-0.1899-0.2002-0.1816-0.5166,0.0186-0.7061
		c1.0908-1.0352,2.5156-1.6055,4.0117-1.6055s2.9209,0.5703,4.0117,1.6055c0.2012,0.1895,0.209,0.5059,0.0186,0.7061
		C15.9326,15.9443,15.7998,15.9961,15.668,15.9961z"/>
	<path d="M12.8691,14.5322c-0.2764,0-0.5-0.2236-0.5-0.5v-2.0078h-0.7383v2.0078c0,0.2764-0.2236,0.5-0.5,0.5s-0.5-0.2236-0.5-0.5
		v-2.5073c0-0.2764,0.2236-0.5,0.5-0.5h1.7383c0.2764,0,0.5,0.2236,0.5,0.5v2.5073C13.3691,14.3086,13.1455,14.5322,12.8691,14.5322
		z"/>
</g>
<rect y="0.0197" fill="none" width="24" height="24"/>
</svg>
