<?xml version="1.0" encoding="utf-8"?>
<!-- Generator: Adobe Illustrator 18.1.0, SVG Export Plug-In . SVG Version: 6.00 Build 0)  -->
<svg version="1.1" id="Layer_1" xmlns="http://www.w3.org/2000/svg" xmlns:xlink="http://www.w3.org/1999/xlink" x="0px" y="0px"
	 width="24px" height="24px" viewBox="0 0 24 24" enable-background="new 0 0 24 24" xml:space="preserve">
<g>
	<path d="M17,13H7c-0.2764,0-0.5-0.2236-0.5-0.5S6.7236,12,7,12h10c0.2764,0,0.5,0.2236,0.5,0.5S17.2764,13,17,13z"/>
	<path d="M16.3008,24h-8.604c-0.5088,0-0.939-0.4092-0.939-0.8936c0-0.0791,0.019-0.1582,0.0552-0.2285l0.1963-0.3945
		C7.5493,21.377,8.2212,20,10.1768,20h3.6436c2.001,0,2.6523,1.3965,3.1768,2.5186l0.1904,0.4014
		c0.0342,0.0684,0.0518,0.1436,0.0518,0.2207C17.2393,23.6143,16.8184,24,16.3008,24z M7.8691,23h8.25l-0.0283-0.0586
		C15.6045,21.8994,15.1846,21,13.8203,21h-3.6436c-1.3311,0-1.7656,0.8906-2.269,1.9219L7.8691,23z"/>
	<path d="M21.8936,17H2.103C0.8843,17,0,16.1475,0,14.9727V2.1831C0,0.9795,0.9434,0,2.103,0h19.7905C23.0547,0,24,0.9795,24,2.1831
		v12.7896C24,16.1475,23.1143,17,21.8936,17z M2.103,1C1.4946,1,1,1.5308,1,2.1831v12.7896C1,15.5869,1.4434,16,2.103,16h19.7905
		C22.5557,16,23,15.5869,23,14.9727V2.1831C23,1.5308,22.5039,1,21.8936,1H2.103z"/>
	<path d="M12,21c-0.2764,0-0.5-0.2236-0.5-0.5v-2c0-0.2764,0.2236-0.5,0.5-0.5s0.5,0.2236,0.5,0.5v2C12.5,20.7764,12.2764,21,12,21z
		"/>
	<path d="M11.9985,11.0337c-2.2075,0-4.0034-1.7959-4.0034-4.0034s1.7959-4.0039,4.0034-4.0039s4.0034,1.7964,4.0034,4.0039
		S14.2061,11.0337,11.9985,11.0337z M11.9985,4.0264c-1.6562,0-3.0034,1.3477-3.0034,3.0039s1.3472,3.0034,3.0034,3.0034
		c1.6558,0,3.0034-1.3472,3.0034-3.0034S13.6543,4.0264,11.9985,4.0264z"/>
	<path d="M11.4268,8.8872c-0.1226,0-0.2451-0.0444-0.3418-0.1348c-0.2017-0.189-0.2119-0.5054-0.0234-0.707l2.1357-2.2832
		c0.1895-0.2007,0.5049-0.2124,0.707-0.0234c0.2012,0.189,0.2119,0.5054,0.0234,0.707L11.792,8.729
		C11.6934,8.834,11.5601,8.8872,11.4268,8.8872z"/>
	<path d="M11.4268,8.8872c-0.1333,0-0.2666-0.0532-0.3652-0.1587L10.0698,7.668c-0.1885-0.2017-0.1777-0.5181,0.0239-0.7065
		c0.2012-0.188,0.5181-0.1777,0.7065,0.0239l0.9917,1.0605c0.1885,0.2017,0.1777,0.5181-0.0239,0.7065
		C11.6719,8.8428,11.5493,8.8872,11.4268,8.8872z"/>
</g>
<rect fill="none" width="24" height="24"/>
</svg>
