<?xml version="1.0" encoding="utf-8"?>
<!-- Generator: Adobe Illustrator 18.1.0, SVG Export Plug-In . SVG Version: 6.00 Build 0)  -->
<svg version="1.1" id="Layer_1" xmlns="http://www.w3.org/2000/svg" xmlns:xlink="http://www.w3.org/1999/xlink" x="0px" y="0px"
	 width="24px" height="24px" viewBox="0 0 24 24" enable-background="new 0 0 24 24" xml:space="preserve">
<g>
	<path d="M21.3809,24.0098H2.5562c-1.4487,0-2.6274-1.1787-2.6274-2.627V8.6348c0-1.4487,1.1787-2.6274,2.6274-2.6274h18.8247
		c1.4482,0,2.627,1.1787,2.627,2.6274v12.748C24.0078,22.8311,22.8291,24.0098,21.3809,24.0098z M2.5562,7.0073
		c-0.8975,0-1.6274,0.73-1.6274,1.6274v12.748c0,0.8975,0.73,1.627,1.6274,1.627h18.8247c0.8975,0,1.627-0.7295,1.627-1.627V8.6348
		c0-0.8975-0.7295-1.6274-1.627-1.6274H2.5562z"/>
	<path d="M15.4961,5.0073c-0.2764,0-0.5-0.2236-0.5-0.5V4.1353c0-0.6543-0.5762-1.187-1.2852-1.187h-3.4844
		c-0.7085,0-1.2852,0.5327-1.2852,1.187v0.3721c0,0.2764-0.2236,0.5-0.5,0.5s-0.5-0.2236-0.5-0.5V4.1353
		c0-1.2061,1.0249-2.187,2.2852-2.187h3.4844c1.2598,0,2.2852,0.981,2.2852,2.187v0.3721
		C15.9961,4.7837,15.7725,5.0073,15.4961,5.0073z"/>
</g>
<rect x="-0.0136" fill="none" width="24" height="24"/>
</svg>
