<?xml version="1.0" encoding="utf-8"?>
<!-- Generator: Adobe Illustrator 18.1.0, SVG Export Plug-In . SVG Version: 6.00 Build 0)  -->
<svg version="1.1" id="Layer_1" xmlns="http://www.w3.org/2000/svg" xmlns:xlink="http://www.w3.org/1999/xlink" x="0px" y="0px"
	 width="24px" height="24px" viewBox="0 0 24 24" enable-background="new 0 0 24 24" xml:space="preserve">
<g>
	<path d="M15.6924,24.0283h-7.377c-0.5405,0-0.9805-0.4004-0.9805-0.8916l0.4868-3.0439c0.0444-0.2715,0.2969-0.4629,0.5737-0.4131
		c0.2725,0.0439,0.4575,0.3008,0.4136,0.5732l-0.4492,2.7705l7.2944,0.0049l-0.4561-2.7754
		c-0.0449-0.2725,0.1406-0.5293,0.4131-0.5732c0.2686-0.0488,0.5293,0.1396,0.5732,0.4131l0.4805,2.9639
		C16.6719,23.6279,16.2324,24.0283,15.6924,24.0283z"/>
	<path d="M21.8789,18H2.1279c-1.1704,0-2.123-0.959-2.123-2.1377V2.1309C0.0049,0.936,0.9375,0,2.1279,0h19.751
		c1.1924,0,2.126,0.936,2.126,2.1309v13.7314C24.0049,17.041,23.0508,18,21.8789,18z M2.1279,1c-0.6299,0-1.123,0.4966-1.123,1.1309
		v13.7314C1.0049,16.5,1.498,17,2.1279,17h19.751c0.6318,0,1.126-0.5,1.126-1.1377V2.1309C23.0049,1.4966,22.5107,1,21.8789,1
		H2.1279z"/>
	<path d="M23.5049,15H0.5059c-0.2764,0-0.5-0.2236-0.5-0.5s0.2236-0.5,0.5-0.5h22.999c0.2764,0,0.5,0.2236,0.5,0.5
		S23.7812,15,23.5049,15z"/>
	<path d="M16.041,11.9854H8.8184c-1.2974,0-2.3989-0.8179-2.7417-2.0352C5.7632,8.8364,6.1958,7.7329,7.2095,7.022
		c0.3916-1.748,1.9019-2.9941,3.6709-2.9941c0.8037,0,1.5679,0.2583,2.2241,0.75c1.3584-0.0815,2.4844,0.5767,2.9941,1.6855
		C17.6787,6.5005,19,7.7495,19,9.2236C19,10.7207,17.6445,11.9854,16.041,11.9854z M10.8804,5.0278
		c-1.1587,0-2.4678,0.8169-2.7275,2.3784C8.1289,7.5493,8.0444,7.6753,7.9204,7.751C7.1597,8.2163,6.8301,8.937,7.0391,9.6792
		c0.1831,0.6504,0.8042,1.3062,1.7793,1.3062h7.2227c1.0615,0,1.959-0.8066,1.959-1.7617c0-1.019-1.0156-1.8584-2.1914-1.7505
		c-0.2334,0.02-0.4551-0.1235-0.5254-0.3491c-0.2227-0.7192-0.9756-1.4961-2.2705-1.3335
		c-0.1318,0.0132-0.2754-0.0234-0.3809-0.1123C12.1221,5.2524,11.5161,5.0278,10.8804,5.0278z"/>
</g>
<rect fill="none" width="24" height="24"/>
</svg>
