<?xml version="1.0" encoding="utf-8"?>
<!-- Generator: Adobe Illustrator 18.1.0, SVG Export Plug-In . SVG Version: 6.00 Build 0)  -->
<svg version="1.1" id="Layer_1" xmlns="http://www.w3.org/2000/svg" xmlns:xlink="http://www.w3.org/1999/xlink" x="0px" y="0px"
	 width="24px" height="24px" viewBox="0 0 24 24" enable-background="new 0 0 24 24" xml:space="preserve">
<g>
	<path d="M13.999,22.9346c-2.2144,0-4.4263-0.501-6.7617-1.5332c-0.541-0.2383-1.7808,0.1006-3.0942,0.46
		c-0.3979,0.1084-0.8154,0.2227-1.2485,0.332c-0.9053,0.2314-1.8491-0.3115-2.0991-1.209l-0.0903-0.3066
		c-0.373-1.251-0.5601-2.0049-0.4795-2.4062c0.1455-0.7197,0.7075-1.2598,1.4321-1.375l0.6084-0.1006
		c2.063-0.3467,6.3569-1.0664,8.8271-0.3506l5.4946,1.5928c0.3691,0.1074,0.6504,0.2939,0.8506,0.5254l3.8711-1.7441
		c0.6104-0.2744,1.2451-0.2266,1.7451,0.1318c0.5107,0.3672,0.7998,1.0098,0.7363,1.6377
		c-0.0605,0.5986-0.4287,1.0918-1.0107,1.3545c-1.1396,0.5137-2.0635,0.9375-2.8262,1.2871
		C16.3789,22.8701,16.2393,22.9346,13.999,22.9346z M6.7495,20.3232c0.3335,0,0.6313,0.0488,0.8921,0.1641
		c2.2056,0.9736,4.2852,1.4473,6.3574,1.4473c2.0225,0,2.0225,0,5.5381-1.6133c0.7646-0.3506,1.6904-0.7754,2.833-1.29
		c0.2578-0.1162,0.4014-0.2988,0.4258-0.543c0.0273-0.2734-0.1035-0.5654-0.3262-0.7256c-0.2051-0.1484-0.4639-0.1611-0.75-0.0312
		l-3.8945,1.7549c0.0215,0.2285-0.002,0.4619-0.0664,0.6826c-0.2393,0.8271-1.0615,1.4971-2.1426,1.1816l-5.7729-1.6748
		c-0.2651-0.0771-0.418-0.3545-0.3408-0.6201c0.0757-0.2656,0.3535-0.4189,0.6191-0.3408l5.7729,1.6748
		c0.5215,0.1562,0.8105-0.1768,0.9043-0.5c0.0381-0.1309,0.0479-0.2793,0.0117-0.4189c-0.0127-0.0195-0.0234-0.04-0.0332-0.0615
		c-0.0146-0.0312-0.0254-0.0645-0.0322-0.0967c-0.0791-0.1357-0.2178-0.25-0.4365-0.3135l-5.4937-1.5928
		c-2.2539-0.6533-6.3936,0.042-8.3828,0.376L1.814,17.8848c-0.3076,0.0488-0.5464,0.2783-0.6079,0.584
		c-0.0327,0.2793,0.3364,1.5166,0.4575,1.9229l0.0947,0.3232c0.106,0.3789,0.5073,0.6045,0.8906,0.5098
		c0.4272-0.1084,0.8384-0.2207,1.23-0.3281C5.0103,20.5869,5.9751,20.3232,6.7495,20.3232z"/>
	<path d="M20.1377,10.959c-0.1338,0-0.2666-0.0532-0.3652-0.1582c-1.2549-1.3403-2.9502-2.0786-4.7744-2.0786
		c-1.8252,0-3.521,0.7383-4.7764,2.0786c-0.189,0.2012-0.5054,0.2109-0.7065,0.0229c-0.2017-0.1885-0.2119-0.5049-0.0229-0.7065
		c1.4458-1.5444,3.4014-2.395,5.5059-2.395l0,0c2.1035,0,4.0586,0.8506,5.5049,2.395c0.1885,0.2017,0.1777,0.5181-0.0234,0.7065
		C20.3828,10.9141,20.2598,10.959,20.1377,10.959z"/>
	<path d="M22.6299,8.4673c-0.1318,0-0.2627-0.0518-0.3613-0.1543c-1.9229-2.0088-4.5059-3.1152-7.2725-3.1152
		C12.2305,5.1982,9.6484,6.3042,7.7266,8.313c-0.1914,0.1992-0.5088,0.2065-0.707,0.0156C6.8198,8.1377,6.813,7.8213,7.0039,7.6216
		c2.1128-2.2075,4.9507-3.4233,7.9922-3.4238c3.042,0,5.8809,1.2158,7.9951,3.4238c0.1904,0.1992,0.1836,0.5161-0.0156,0.707
		C22.8789,8.4214,22.7539,8.4673,22.6299,8.4673z"/>
	<path d="M12.3486,13.4512c-0.1172,0-0.2344-0.041-0.3291-0.124c-0.208-0.1816-0.229-0.498-0.0469-0.7051
		c0.7656-0.8745,1.8682-1.3755,3.0244-1.3755l0,0c1.1562,0,2.2588,0.501,3.0244,1.3755c0.1816,0.207,0.1611,0.5234-0.0469,0.7051
		c-0.207,0.1816-0.5234,0.1621-0.7051-0.0469c-0.5762-0.6572-1.4043-1.0342-2.2725-1.0342s-1.6963,0.377-2.2725,1.0342
		C12.626,13.3936,12.4873,13.4512,12.3486,13.4512z"/>
</g>
<rect fill="none" width="24" height="24"/>
</svg>
