<?xml version="1.0" encoding="utf-8"?>
<!-- Generator: Adobe Illustrator 18.1.0, SVG Export Plug-In . SVG Version: 6.00 Build 0)  -->
<svg version="1.1" id="Layer_1" xmlns="http://www.w3.org/2000/svg" xmlns:xlink="http://www.w3.org/1999/xlink" x="0px" y="0px"
	 width="24px" height="24px" viewBox="0 0 24 24" enable-background="new 0 0 24 24" xml:space="preserve">
<g>
	<path d="M5.7798,24H1.1919c-0.6646,0-1.2056-0.5273-1.2056-1.1748V8.2202C-0.0137,7.5586,0.5386,7,1.1919,7h4.5879
		c0.6538,0,1.2065,0.5586,1.2065,1.2202v14.605C6.9863,23.4727,6.4453,24,5.7798,24z M1.1919,8
		C1.0864,8,0.9863,8.1069,0.9863,8.2202v14.605C0.9863,22.9385,1.0923,23,1.1919,23h4.5879c0.1016,0,0.2065-0.0654,0.2065-0.1748
		V8.2202C5.9863,8.1089,5.8838,8,5.7798,8H1.1919z"/>
	<path d="M13.7803,24H9.1929c-0.6646,0-1.2056-0.5273-1.2056-1.1748v-9.6045c0-0.6611,0.5522-1.2197,1.2056-1.2197h4.5874
		c0.6543,0,1.207,0.5586,1.207,1.2197v9.6045C14.9873,23.4727,14.4463,24,13.7803,24z M9.1929,13.001
		c-0.1055,0-0.2056,0.1064-0.2056,0.2197v9.6045C8.9873,22.9385,9.0933,23,9.1929,23h4.5874c0.1016,0,0.207-0.0654,0.207-0.1748
		v-9.6045c0-0.1113-0.1025-0.2197-0.207-0.2197H9.1929z"/>
	<path d="M21.7812,24h-4.5879c-0.6758,0-1.2051-0.5156-1.2051-1.1748V3.2197c0-0.6616,0.5518-1.2202,1.2051-1.2202h4.5879
		c0.6543,0,1.207,0.5586,1.207,1.2202v19.6055C22.9883,23.4727,22.4473,24,21.7812,24z M17.1934,2.9995
		c-0.1055,0-0.2051,0.1069-0.2051,0.2202v19.6055c0,0.1133,0.1055,0.1748,0.2051,0.1748h4.5879c0.1016,0,0.207-0.0654,0.207-0.1748
		V3.2197c0-0.1113-0.1025-0.2202-0.207-0.2202H17.1934z"/>
</g>
<rect x="-0.0136" fill="none" width="24" height="24"/>
</svg>
