<?xml version="1.0" encoding="utf-8"?>
<!-- Generator: Adobe Illustrator 18.1.0, SVG Export Plug-In . SVG Version: 6.00 Build 0)  -->
<svg version="1.1" id="Layer_1" xmlns="http://www.w3.org/2000/svg" xmlns:xlink="http://www.w3.org/1999/xlink" x="0px" y="0px"
	 width="24px" height="24px" viewBox="0 0 24 24" enable-background="new 0 0 24 24" xml:space="preserve">
<g>
	<path d="M23.3301,20.04H0.6802c-0.2764,0-0.5-0.2236-0.5-0.5s0.2236-0.5,0.5-0.5h22.6499c0.2764,0,0.5,0.2236,0.5,0.5
		S23.6064,20.04,23.3301,20.04z"/>
	<path d="M5.4863,20.04H1.5103c-0.2764,0-0.5-0.2236-0.5-0.5V8.5127c0-0.2764,0.2236-0.5,0.5-0.5h3.9761
		c0.2764,0,0.5,0.2236,0.5,0.5V19.54C5.9863,19.8164,5.7627,20.04,5.4863,20.04z M2.0103,19.04h2.9761V9.0127H2.0103V19.04z"/>
	<path d="M9.5078,20.04H5.4863c-0.2764,0-0.5-0.2236-0.5-0.5V3.5503c0-0.2764,0.2236-0.5,0.5-0.5h4.0215
		c0.2764,0,0.5,0.2236,0.5,0.5V19.54C10.0078,19.8164,9.7842,20.04,9.5078,20.04z M5.9863,19.04h3.0215V4.0503H5.9863V19.04z"/>
	<path d="M18.5195,20.04c-0.2148,0-0.4141-0.1396-0.4785-0.3564L13.3066,3.936c-0.0801-0.2646,0.0703-0.5435,0.335-0.623
		l3.4697-1.0435c0.126-0.0381,0.2627-0.0239,0.3799,0.0386c0.1172,0.063,0.2041,0.1694,0.2422,0.2964l4.7344,15.749
		c0.0381,0.127,0.0244,0.2637-0.0381,0.3799c-0.0625,0.1172-0.1699,0.2041-0.2969,0.2422l-3.4697,1.043
		C18.6152,20.0332,18.5674,20.04,18.5195,20.04z M14.4082,4.127l4.4463,14.79l2.5117-0.7549L16.9199,3.3716L14.4082,4.127z"/>
	<path d="M14.4189,20.04H9.5078c-0.2764,0-0.5-0.2236-0.5-0.5V6.5547c0-0.2764,0.2236-0.5,0.5-0.5h4.9111
		c0.2764,0,0.5,0.2236,0.5,0.5V19.54C14.9189,19.8164,14.6953,20.04,14.4189,20.04z M10.0078,19.04h3.9111V7.0547h-3.9111V19.04z"/>
	<path d="M11.9556,10.3706c-0.6846,0-1.2412-0.5566-1.2412-1.2412s0.5566-1.2417,1.2412-1.2417
		c0.6851,0,1.2417,0.5571,1.2417,1.2417S12.6406,10.3706,11.9556,10.3706z M11.9556,8.8877c-0.1328,0-0.2412,0.1084-0.2412,0.2417
		c0,0.2661,0.4829,0.2651,0.4829,0C12.1973,8.9961,12.0889,8.8877,11.9556,8.8877z"/>
</g>
<rect x="0.0142" y="0.0354" fill="none" width="24" height="24"/>
</svg>
