<?xml version="1.0" encoding="utf-8"?>
<!-- Generator: Adobe Illustrator 18.1.0, SVG Export Plug-In . SVG Version: 6.00 Build 0)  -->
<svg version="1.1" id="Layer_1" xmlns="http://www.w3.org/2000/svg" xmlns:xlink="http://www.w3.org/1999/xlink" x="0px" y="0px"
	 width="24px" height="24px" viewBox="0 0 24 24" enable-background="new 0 0 24 24" xml:space="preserve">
<g>
	<path d="M8.3281,11.0029H2.6724c-1.4731,0-2.6719-1.1987-2.6719-2.6719V2.6748c0-1.4731,1.1987-2.6719,2.6719-2.6719h5.6558
		C9.8013,0.0029,11,1.2017,11,2.6748v5.6562C11,9.8042,9.8013,11.0029,8.3281,11.0029z M2.6724,1.0029
		c-0.9219,0-1.6719,0.75-1.6719,1.6719v5.6562c0,0.9219,0.75,1.6719,1.6719,1.6719h5.6558C9.25,10.0029,10,9.2529,10,8.3311V2.6748
		c0-0.9219-0.75-1.6719-1.6719-1.6719H2.6724z"/>
	<path d="M7.4399,6.0029H3.5337c-0.2764,0-0.5-0.2236-0.5-0.5s0.2236-0.5,0.5-0.5h3.9062c0.2764,0,0.5,0.2236,0.5,0.5
		S7.7163,6.0029,7.4399,6.0029z"/>
	<path d="M5.4868,7.9561c-0.2764,0-0.5-0.2236-0.5-0.5V3.5498c0-0.2764,0.2236-0.5,0.5-0.5s0.5,0.2236,0.5,0.5v3.9062
		C5.9868,7.7324,5.7632,7.9561,5.4868,7.9561z"/>
	<path d="M20.4404,6.0029h-3.9062c-0.2764,0-0.5-0.2236-0.5-0.5s0.2236-0.5,0.5-0.5h3.9062c0.2764,0,0.5,0.2236,0.5,0.5
		S20.7168,6.0029,20.4404,6.0029z"/>
	<path d="M21.3291,11.0029h-5.6562c-1.4736,0-2.6719-1.1987-2.6719-2.6719V2.6748c0-1.4731,1.1982-2.6719,2.6719-2.6719h5.6562
		c1.4736,0,2.6719,1.1987,2.6719,2.6719v5.6562C24.001,9.8042,22.8027,11.0029,21.3291,11.0029z M15.6729,1.0029
		c-0.9219,0-1.6719,0.75-1.6719,1.6719v5.6562c0,0.9219,0.75,1.6719,1.6719,1.6719h5.6562c0.9219,0,1.6719-0.75,1.6719-1.6719
		V2.6748c0-0.9219-0.75-1.6719-1.6719-1.6719H15.6729z"/>
	<path d="M8.3281,24.0039H2.6724c-1.4731,0-2.6719-1.1982-2.6719-2.6719v-5.6562c0-1.4736,1.1987-2.6719,2.6719-2.6719h5.6558
		c1.4731,0,2.6719,1.1982,2.6719,2.6719v5.6562C11,22.8057,9.8013,24.0039,8.3281,24.0039z M2.6724,14.0039
		c-0.9219,0-1.6719,0.75-1.6719,1.6719v5.6562c0,0.9219,0.75,1.6719,1.6719,1.6719h5.6558C9.25,23.0039,10,22.2539,10,21.332
		v-5.6562c0-0.9219-0.75-1.6719-1.6719-1.6719H2.6724z"/>
	<path d="M6.8677,20.3848c-0.1279,0-0.2559-0.0488-0.3535-0.1465L3.752,17.4766c-0.1953-0.1953-0.1953-0.5117,0-0.707
		s0.5117-0.1953,0.707,0l2.7622,2.7617c0.1953,0.1953,0.1953,0.5117,0,0.707C7.1235,20.3359,6.9956,20.3848,6.8677,20.3848z"/>
	<path d="M4.1055,20.3848c-0.1279,0-0.2559-0.0488-0.3535-0.1465c-0.1953-0.1953-0.1953-0.5117,0-0.707l2.7622-2.7617
		c0.1953-0.1953,0.5117-0.1953,0.707,0s0.1953,0.5117,0,0.707L4.459,20.2383C4.3613,20.3359,4.2334,20.3848,4.1055,20.3848z"/>
	<path d="M20.4404,19.0039h-3.9062c-0.2764,0-0.5-0.2236-0.5-0.5s0.2236-0.5,0.5-0.5h3.9062c0.2764,0,0.5,0.2236,0.5,0.5
		S20.7168,19.0039,20.4404,19.0039z"/>
	<path d="M21.3291,24.0039h-5.6562c-1.4736,0-2.6719-1.1982-2.6719-2.6719v-5.6562c0-1.4736,1.1982-2.6719,2.6719-2.6719h5.6562
		c1.4736,0,2.6719,1.1982,2.6719,2.6719v5.6562C24.001,22.8057,22.8027,24.0039,21.3291,24.0039z M15.6729,14.0039
		c-0.9219,0-1.6719,0.75-1.6719,1.6719v5.6562c0,0.9219,0.75,1.6719,1.6719,1.6719h5.6562c0.9219,0,1.6719-0.75,1.6719-1.6719
		v-5.6562c0-0.9219-0.75-1.6719-1.6719-1.6719H15.6729z"/>
	<path d="M18.5,17c-0.1299,0-0.2598-0.0498-0.3506-0.1406C18.0498,16.7598,18,16.6299,18,16.5s0.0498-0.2598,0.1494-0.3506
		c0.1904-0.1895,0.5107-0.1797,0.7002,0C18.9502,16.25,19,16.3701,19,16.5s-0.0498,0.2598-0.1406,0.3594
		C18.7598,16.9502,18.6299,17,18.5,17z"/>
	<path d="M18.5,21c-0.1299,0-0.2598-0.0498-0.3506-0.1406C18.0498,20.7598,18,20.6299,18,20.5s0.0498-0.2598,0.1494-0.3506
		c0.1699-0.1797,0.5107-0.1895,0.7002,0C18.9502,20.25,19,20.3799,19,20.5c0,0.1299-0.0498,0.2598-0.1406,0.3496
		C18.75,20.9502,18.6299,21,18.5,21z"/>
</g>
<rect x="0.0002" y="0.0031" fill="none" width="24" height="24"/>
</svg>
