<?xml version="1.0" encoding="utf-8"?>
<!-- Generator: Adobe Illustrator 18.1.0, SVG Export Plug-In . SVG Version: 6.00 Build 0)  -->
<svg version="1.1" id="Layer_1" xmlns="http://www.w3.org/2000/svg" xmlns:xlink="http://www.w3.org/1999/xlink" x="0px" y="0px"
	 width="24px" height="24px" viewBox="0 0 24 24" enable-background="new 0 0 24 24" xml:space="preserve">
<g>
	<path d="M13.1074,6.96c-0.0156,0-0.0303-0.0005-0.0459-0.002c-0.3174-0.0288-0.9307-0.2368-1.2153-0.8335
		c-0.3613-0.7573-0.085-1.7998,0.8452-3.1875c1.0742-1.604,0.998-2.3047,0.915-2.5317C13.543,0.231,13.4189,0.1729,13.418,0.1729
		C13.1523,0.0957,13-0.1816,13.0762-0.4468c0.0771-0.2651,0.3564-0.4175,0.6191-0.3413c0.0625,0.0181,0.6123,0.1943,0.8516,0.8516
		c0.2969,0.8169-0.0479,1.9712-1.0254,3.4302c-0.9609,1.4341-0.8604,2.0166-0.7725,2.2007
		c0.1084,0.2275,0.3994,0.2676,0.4023,0.2676c0.2754,0.0249,0.4775,0.2681,0.4531,0.543C13.5811,6.7646,13.3633,6.96,13.1074,6.96z"
		/>
	<path d="M15.9424,7.4263c-0.0137,0-0.0273-0.0005-0.042-0.002c-0.0625-0.0059-0.6162-0.0703-0.8672-0.5962
		c-0.2412-0.5059-0.0791-1.1694,0.4971-2.0288c0.5996-0.8955,0.5098-1.2153,0.498-1.2485
		c-0.2656-0.0771-0.4014-0.3545-0.3242-0.6196c0.0771-0.2656,0.373-0.417,0.6357-0.3413c0.208,0.0601,0.4971,0.2583,0.6279,0.6187
		c0.1973,0.541-0.002,1.2437-0.6074,2.1475c-0.5264,0.7856-0.4258,1.0381-0.4248,1.0405c0.2744,0.0249,0.5049,0.2837,0.4805,0.5586
		C16.3926,7.2158,16.1973,7.4263,15.9424,7.4263z"/>
	<path d="M9.7627,6.96c-0.0142,0-0.0283-0.0005-0.0425-0.002C9.6577,6.9521,9.1035,6.8877,8.8525,6.3618
		C8.6113,5.8555,8.7739,5.1919,9.3496,4.333c0.6001-0.896,0.5103-1.2158,0.498-1.2495c-0.2651-0.0771-0.4004-0.354-0.3237-0.6191
		C9.6011,2.1982,9.896,2.0479,10.1606,2.123c0.207,0.0605,0.4956,0.2583,0.627,0.6182c0.1973,0.541-0.0015,1.2441-0.6069,2.1484
		C9.6538,5.6753,9.7539,5.9277,9.7549,5.9302c0.2749,0.0249,0.5054,0.2837,0.4805,0.5586C10.2119,6.7495,10.0171,6.96,9.7627,6.96z"
		/>
	<path d="M19.6768,19.8848c-1.5957,0-3.3369-0.8545-5.1797-1.7588c-1.7842-0.875-3.6289-1.7803-5.2158-1.7803
		c-0.4502,0-0.8521,0.0703-1.2295,0.2158c-1.4868,0.5713-2.916,0.874-4.1333,0.874c-1.9082,0-3.2734-0.75-3.6514-2.0059
		c-0.5234-1.7383,0.9473-3.9575,3.9351-5.936c1.6714-1.1069,3.2104-1.5586,5.312-1.5586c1.1562,0,2.5112,0.1313,4.394,0.4253
		c3.2822,0.5127,7.8291,1.5166,9.416,4.3027c0.6963,1.2217,0.7285,2.6416,0.0967,4.2207
		C22.6133,18.9023,21.3887,19.8838,19.6768,19.8848z M9.2812,15.3457c1.8188,0,3.7695,0.957,5.6562,1.8828
		c1.7363,0.8516,3.376,1.6562,4.7393,1.6562c0.8018,0,1.9658-0.2461,2.8164-2.3721c0.5195-1.2998,0.5068-2.3975-0.0381-3.3545
		c-1.5312-2.6899-6.9277-3.5327-8.7012-3.8096c-1.8052-0.2822-3.1523-0.4136-4.2397-0.4136c-1.9126,0-3.2471,0.3906-4.7603,1.3926
		c-3.0605,2.0269-3.8301,3.8149-3.5293,4.814c0.4287,1.4238,3.2856,1.71,6.4678,0.4863
		C8.1797,15.4404,8.7144,15.3457,9.2812,15.3457z"/>
	<path d="M19.9902,22.0176c-0.1309,0-0.2637-0.0059-0.4004-0.0166c-1.5439-0.1211-3.209-0.8994-4.9707-1.7236
		c-2.334-1.0918-4.748-2.2197-6.5674-1.5215c-2.6323,1.0127-4.9897,1.1514-6.4663,0.3809
		c-0.7114-0.3711-1.1782-0.9336-1.3496-1.6279c-0.0088-0.0361-0.0137-0.0723-0.0146-0.1084l-0.0576-2.5
		c-0.0063-0.2764,0.2124-0.5049,0.4883-0.5117c0.27,0.0029,0.5049,0.2129,0.5117,0.4883l0.0562,2.4404
		c0.1118,0.3906,0.3901,0.7041,0.8281,0.9326c1.2041,0.6279,3.3145,0.4688,5.6445-0.4277c2.2173-0.8555,4.8271,0.3682,7.3506,1.5488
		c1.6777,0.7852,3.2617,1.5264,4.625,1.6328c1.4268,0.1162,2.3789-0.5059,3.0781-2.0059c0.0801-0.1709,0.1221-0.3799,0.1221-0.6045
		v-3.5049c0-0.2764,0.2236-0.5,0.5-0.5s0.5,0.2236,0.5,0.5v3.5049c0,0.3701-0.0742,0.7256-0.2158,1.0283
		C22.8389,21.165,21.6377,22.0176,19.9902,22.0176z"/>
	<path d="M5.3306,15.0752H5.3301c-0.1094,0-0.228-0.0039-0.356-0.0146c-0.8438-0.0645-1.1904-0.4521-1.3325-0.7666
		C3.2378,13.4033,4.0654,12.2266,4.2358,12c0.0942-0.126,0.2427-0.2002,0.3999-0.2002c0.2847,0,1.7207,0.0449,2.0522,0.9277
		c0.1875,0.4961,0.46,1.2148,0.0693,1.7812C6.4971,14.8848,6.0171,15.0752,5.3306,15.0752z M4.8916,12.8125
		c-0.2466,0.3975-0.4277,0.874-0.3394,1.0693c0.0425,0.0938,0.229,0.1611,0.4985,0.1816c0.1006,0.0078,0.1934,0.0117,0.2793,0.0117
		h0.0005c0.4028,0,0.5688-0.085,0.6035-0.1348c0.0928-0.1348-0.0884-0.6123-0.1562-0.792
		C5.708,12.9893,5.3213,12.8535,4.8916,12.8125z"/>
	<path d="M10.082,14.4707c-0.1421,0-0.2832-0.0605-0.3823-0.1768c-0.1782-0.2109-0.1519-0.5264,0.0591-0.7051l3.9482-3.3413
		c0.21-0.1768,0.5273-0.1523,0.7051,0.0591c0.1787,0.2104,0.1523,0.5259-0.0586,0.7046l-3.9492,3.3413
		C10.3105,14.4316,10.1958,14.4707,10.082,14.4707z"/>
	<path d="M13.0059,15.2021c-0.1416,0-0.2832-0.0605-0.3818-0.1768c-0.1787-0.2109-0.1523-0.5264,0.0586-0.7051l3.9482-3.3413
		c0.21-0.1768,0.5273-0.1523,0.7051,0.0586s0.1523,0.5264-0.0586,0.7051l-3.9482,3.3413
		C13.2354,15.1631,13.1201,15.2021,13.0059,15.2021z"/>
	<path d="M15.5654,16.2988c-0.1416,0-0.2832-0.0605-0.3818-0.1768c-0.1777-0.2109-0.1523-0.5264,0.0586-0.7051l3.9482-3.3418
		c0.21-0.1763,0.5273-0.1509,0.7051,0.0586c0.1777,0.2109,0.1523,0.5264-0.0586,0.7051l-3.9482,3.3418
		C15.7949,16.2598,15.6797,16.2988,15.5654,16.2988z"/>
</g>
<rect y="-0.9654" fill="none" width="24" height="24"/>
</svg>
