<?xml version="1.0" encoding="utf-8"?>
<!-- Generator: Adobe Illustrator 18.1.0, SVG Export Plug-In . SVG Version: 6.00 Build 0)  -->
<svg version="1.1" id="Layer_1" xmlns="http://www.w3.org/2000/svg" xmlns:xlink="http://www.w3.org/1999/xlink" x="0px" y="0px"
	 width="24px" height="24px" viewBox="0 0 24 24" enable-background="new 0 0 24 24" xml:space="preserve">
<g>
	<path d="M11.9771,23.7842c-6.5244,0-11.8325-5.3076-11.8325-11.8325c0-6.5244,5.3081-11.832,11.8325-11.832
		c6.5249,0,11.8325,5.3076,11.8325,11.832C23.8096,18.4766,18.502,23.7842,11.9771,23.7842z M11.9771,1.1196
		c-5.9731,0-10.8325,4.8594-10.8325,10.832c0,5.9731,4.8594,10.8325,10.8325,10.8325s10.8325-4.8594,10.8325-10.8325
		C22.8096,5.979,17.9502,1.1196,11.9771,1.1196z"/>
	<path d="M4.8091,14.2041c-0.2764,0-0.5-0.2236-0.5-0.5v-3.4434c0-0.2764,0.2236-0.5,0.5-0.5s0.5,0.2236,0.5,0.5v3.4434
		C5.3091,13.9805,5.0854,14.2041,4.8091,14.2041z"/>
	<path d="M7.6704,14.2041c-0.2764,0-0.5-0.2236-0.5-0.5v-2.0757c0.0024-0.1309-0.0347-0.4766-0.2314-0.6772
		c-0.125-0.1284-0.3086-0.1904-0.5601-0.1904c-0.9097,0-1.0703,0.8882-1.0767,0.9258c-0.0464,0.2725-0.3066,0.4541-0.5767,0.4092
		c-0.2725-0.0459-0.4556-0.3042-0.4097-0.5762c0.1035-0.6084,0.667-1.7588,2.063-1.7588c0.6631,0,1.064,0.2715,1.2837,0.4995
		c0.5229,0.5425,0.5107,1.3018,0.5073,1.3867l0.0005,2.0571C8.1704,13.9805,7.9468,14.2041,7.6704,14.2041z"/>
	<path d="M11.249,14.2529c-1.1475,0-2.0811-1.0322-2.0811-2.3013c0-1.2686,0.9336-2.3008,2.0811-2.3008s2.0811,1.0322,2.0811,2.3008
		c0,0.2759-0.2236,0.4995-0.5,0.4995H10.251c0.1631,0.4707,0.5488,0.8018,0.998,0.8018c0.4453,0,0.7822-0.1396,1.0029-0.416
		c0.1729-0.2158,0.4873-0.2529,0.7021-0.0791c0.2158,0.1719,0.252,0.4863,0.0791,0.7021
		C12.7451,13.8223,12.2012,14.2529,11.249,14.2529z M10.251,11.4517h1.9961c-0.1631-0.4697-0.5493-0.8008-0.998-0.8008
		S10.4141,10.9819,10.251,11.4517z"/>
	<path d="M15.6309,14.2041c-0.209,0-0.3955-0.1299-0.4688-0.3252L13.875,10.436c-0.0967-0.2588,0.0352-0.5469,0.2939-0.6436
		c0.2559-0.0957,0.5459,0.0342,0.6436,0.293l0.8145,2.1802l0.8008-2.1777c0.0723-0.1958,0.2598-0.3267,0.4688-0.3271h0.001
		c0.209,0,0.3955,0.1294,0.4688,0.3247l0.8145,2.1812l0.8027-2.1787c0.0957-0.2598,0.3867-0.3896,0.6416-0.2964
		c0.2588,0.0952,0.3916,0.3828,0.2959,0.6421l-1.2676,3.4434c-0.0713,0.1963-0.2588,0.3262-0.4678,0.3271h-0.001
		c-0.209,0-0.3955-0.1299-0.4688-0.3252l-0.8145-2.1802l-0.8008,2.1782c-0.0723,0.1963-0.2598,0.3262-0.4688,0.3271H15.6309z"/>
</g>
<rect x="-0.0137" fill="none" width="24" height="24"/>
</svg>
