<?xml version="1.0" encoding="utf-8"?>
<!-- Generator: Adobe Illustrator 18.1.0, SVG Export Plug-In . SVG Version: 6.00 Build 0)  -->
<svg version="1.1" id="Layer_1" xmlns="http://www.w3.org/2000/svg" xmlns:xlink="http://www.w3.org/1999/xlink" x="0px" y="0px"
	 width="24px" height="24px" viewBox="0 0 24 24" enable-background="new 0 0 24 24" xml:space="preserve">
<g>
	<path d="M13.1406,23.791c-0.1387,0-0.2715-0.0576-0.3662-0.1602l-1.7109-1.8438l-2.0371,1.4736
		c-0.127,0.0918-0.2896,0.1191-0.438,0.0732c-0.1499-0.0459-0.2695-0.1582-0.3237-0.3047l-0.8745-2.3574l-2.4463,0.583
		c-0.1504,0.0352-0.312-0.001-0.4331-0.0996c-0.1206-0.0996-0.188-0.249-0.1821-0.4053l0.0938-2.5127l-2.4824-0.3975
		c-0.1543-0.0254-0.2881-0.1211-0.3618-0.2588s-0.0786-0.3018-0.0137-0.4443l1.0493-2.2852l-2.1426-1.3184
		c-0.1333-0.082-0.2207-0.2217-0.2358-0.377s0.043-0.3096,0.1577-0.415l1.8442-1.71L0.7627,8.9937
		C0.6714,8.8672,0.644,8.7051,0.6895,8.5557c0.0454-0.1499,0.1582-0.2695,0.3047-0.3237l2.3574-0.8745L2.7681,4.9116
		C2.7319,4.7593,2.7686,4.5991,2.8677,4.478c0.0991-0.1206,0.2666-0.1934,0.4053-0.1821l2.5137,0.0942l0.3975-2.4829
		c0.0244-0.1543,0.1201-0.2881,0.2578-0.3618c0.1382-0.0757,0.3018-0.0786,0.4443-0.0137l2.2861,1.0493l1.3174-2.1426
		c0.0815-0.1333,0.2212-0.2207,0.377-0.2358c0.1523-0.0137,0.3091,0.043,0.4155,0.1577l1.71,1.8442l2.0381-1.4751
		c0.126-0.0908,0.2871-0.1187,0.4385-0.0732c0.1494,0.0454,0.2695,0.1582,0.3232,0.3047l0.874,2.3579l2.4463-0.5835
		c0.1533-0.0361,0.3115,0.0005,0.4336,0.0996c0.1211,0.0991,0.1885,0.2495,0.1826,0.4058l-0.0947,2.5132l2.4824,0.3979
		c0.1543,0.0249,0.2881,0.1201,0.3623,0.2578c0.0732,0.1382,0.0781,0.3022,0.0127,0.4443l-1.0488,2.2856l2.1426,1.3179
		c0.1338,0.0815,0.2207,0.2212,0.2363,0.377c0.0146,0.1553-0.043,0.3091-0.1582,0.4155l-1.8438,1.71l1.4746,2.0371
		c0.0918,0.126,0.1182,0.2881,0.0732,0.4385c-0.0459,0.1494-0.1582,0.2686-0.3047,0.3232l-2.3584,0.874l0.5527,2.3164
		c0.041,0.0723,0.0645,0.1562,0.0645,0.2461c0,0.2764-0.2236,0.5-0.5,0.5c-0.0049,0-0.0127,0-0.0195,0c-0.0059,0-0.0127,0-0.0186,0
		l-2.5137-0.0947l-0.3975,2.4834c-0.0254,0.1543-0.1211,0.2881-0.2588,0.3623c-0.1377,0.0732-0.3027,0.0762-0.4443,0.0127
		l-2.2842-1.0488l-1.3184,2.1426c-0.082,0.1338-0.2207,0.2207-0.377,0.2363C13.1729,23.79,13.1572,23.791,13.1406,23.791z
		 M11.1289,20.6221c0.1348,0,0.2686,0.0547,0.3667,0.1602l1.564,1.6865l1.2051-1.96c0.1328-0.2158,0.4053-0.2988,0.6348-0.1924
		l2.0889,0.959l0.3633-2.2705c0.04-0.249,0.249-0.4209,0.5127-0.4209l2.2979,0.0869l-0.5332-2.2363
		c-0.0586-0.2461,0.0752-0.4971,0.3125-0.585l2.1562-0.7998l-1.3486-1.8623c-0.1484-0.2041-0.1201-0.4873,0.0654-0.6592
		l1.6855-1.564l-1.959-1.2051c-0.2158-0.1323-0.2979-0.4048-0.1924-0.6343l0.959-2.0898l-2.2695-0.3638
		c-0.25-0.04-0.4297-0.2598-0.4209-0.5127l0.0869-2.2979l-2.2373,0.5337c-0.248,0.0586-0.4971-0.0757-0.585-0.3125L15.083,1.9258
		l-1.8633,1.3486c-0.2041,0.146-0.4873,0.1196-0.6592-0.0654l-1.564-1.686L9.792,3.4819C9.6597,3.6968,9.3872,3.7793,9.1577,3.6748
		L7.0674,2.7153l-0.3633,2.27c-0.04,0.249-0.2266,0.4482-0.5122,0.4204L3.8936,5.3198l0.5332,2.2363
		c0.0586,0.2461-0.0757,0.4971-0.3125,0.585L1.959,8.9404l1.3481,1.8633c0.1479,0.2046,0.1201,0.4878-0.0654,0.6597l-1.686,1.563
		l1.959,1.2051c0.2153,0.1318,0.2983,0.4043,0.1929,0.6348L2.748,16.9561l2.2695,0.3633c0.2495,0.04,0.4302,0.2607,0.4204,0.5127
		l-0.0854,2.2979l2.2368-0.5332c0.2466-0.0605,0.4961,0.0762,0.5845,0.3125l0.7993,2.1553l1.8628-1.3477
		C10.9238,20.6533,11.0269,20.6221,11.1289,20.6221z"/>
</g>
<rect x="0.0293" y="-0.0001" fill="none" width="24" height="24"/>
</svg>
