<?xml version="1.0" encoding="utf-8"?>
<!-- Generator: Adobe Illustrator 18.1.0, SVG Export Plug-In . SVG Version: 6.00 Build 0)  -->
<svg version="1.1" id="Layer_1" xmlns="http://www.w3.org/2000/svg" xmlns:xlink="http://www.w3.org/1999/xlink" x="0px" y="0px"
	 width="24px" height="24px" viewBox="0 0 24 24" enable-background="new 0 0 24 24" xml:space="preserve">
<g>
	<path d="M14.4814,17.0029H2.2012c-1.2422,0-2.2148-1.0244-2.2148-2.332v-4.3296c0-1.311,0.9727-2.3379,2.2148-2.3379h12.4814
		c0.2764,0,0.5,0.2236,0.5,0.5s-0.2236,0.5-0.5,0.5H2.2012c-0.7603,0-1.2148,0.6802-1.2148,1.3379v4.3296
		c0,0.6543,0.4546,1.332,1.2148,1.332h12.2803c0.2764,0,0.5,0.2236,0.5,0.5S14.7578,17.0029,14.4814,17.0029z"/>
	<path d="M21.5889,17.0029H19.541c-0.2764,0-0.5-0.2236-0.5-0.5s0.2236-0.5,0.5-0.5h2.0479c0.7314,0,1.3975-0.6348,1.3975-1.332
		v-4.3296c0-0.7002-0.666-1.3379-1.3975-1.3379h-2.248c-0.2764,0-0.5-0.2236-0.5-0.5s0.2236-0.5,0.5-0.5h2.248
		c1.2773,0,2.3975,1.0923,2.3975,2.3379v4.3296C23.9863,15.9131,22.8662,17.0029,21.5889,17.0029z"/>
	<path d="M17.0117,17.7461c-2.8574,0-5.1816-2.3242-5.1816-5.1816c0-2.8569,2.3242-5.1816,5.1816-5.1816
		s5.1816,2.3247,5.1816,5.1816C22.1934,15.4219,19.8691,17.7461,17.0117,17.7461z M17.0117,8.3828
		c-2.3057,0-4.1816,1.876-4.1816,4.1816s1.876,4.1816,4.1816,4.1816s4.1816-1.876,4.1816-4.1816S19.3174,8.3828,17.0117,8.3828z"/>
	<path d="M17.0117,15.9463c-1.8652,0-3.3818-1.5166-3.3818-3.3818c0-1.8647,1.5166-3.3818,3.3818-3.3818
		s3.3818,1.5171,3.3818,3.3818C20.3936,14.4297,18.877,15.9463,17.0117,15.9463z M17.0117,10.1826
		c-1.3135,0-2.3818,1.0684-2.3818,2.3818s1.0684,2.3818,2.3818,2.3818s2.3818-1.0684,2.3818-2.3818S18.3252,10.1826,17.0117,10.1826
		z"/>
	<path d="M2.4536,15.0527c-0.2764,0-0.5-0.2236-0.5-0.5v-3.9375c0-0.2764,0.2236-0.5,0.5-0.5s0.5,0.2236,0.5,0.5v3.9375
		C2.9536,14.8291,2.73,15.0527,2.4536,15.0527z"/>
	<path d="M4.4536,15.0527c-0.2764,0-0.5-0.2236-0.5-0.5v-3.9375c0-0.2764,0.2236-0.5,0.5-0.5s0.5,0.2236,0.5,0.5v3.9375
		C4.9536,14.8291,4.73,15.0527,4.4536,15.0527z"/>
	<path d="M6.4536,15.0527c-0.2764,0-0.5-0.2236-0.5-0.5v-3.9375c0-0.2764,0.2236-0.5,0.5-0.5s0.5,0.2236,0.5,0.5v3.9375
		C6.9536,14.8291,6.73,15.0527,6.4536,15.0527z"/>
	<path d="M5.5024,19.0029H2.4536c-0.2764,0-0.5-0.2236-0.5-0.5s0.2236-0.5,0.5-0.5h3.0488c0.2764,0,0.5,0.2236,0.5,0.5
		S5.7788,19.0029,5.5024,19.0029z"/>
	<path d="M21.5029,19.0029h-3.0479c-0.2764,0-0.5-0.2236-0.5-0.5s0.2236-0.5,0.5-0.5h3.0479c0.2764,0,0.5,0.2236,0.5,0.5
		S21.7793,19.0029,21.5029,19.0029z"/>
</g>
<rect x="-0.0136" y="0.0002" fill="none" width="24" height="24"/>
</svg>
