<?xml version="1.0" encoding="utf-8"?>
<!-- Generator: Adobe Illustrator 18.1.0, SVG Export Plug-In . SVG Version: 6.00 Build 0)  -->
<svg version="1.1" id="Layer_1" xmlns="http://www.w3.org/2000/svg" xmlns:xlink="http://www.w3.org/1999/xlink" x="0px" y="0px"
	 width="24px" height="24px" viewBox="0 0 24 24" enable-background="new 0 0 24 24" xml:space="preserve">
<g>
	<path d="M16.5039,4H12.5C12.2236,4,12,3.7764,12,3.5S12.2236,3,12.5,3h4.0039c0.2764,0,0.5,0.2236,0.5,0.5S16.7803,4,16.5039,4z"/>
	<path d="M14.502,7H12.5C12.2236,7,12,6.7764,12,6.5S12.2236,6,12.5,6h2.002c0.2764,0,0.5,0.2236,0.5,0.5S14.7783,7,14.502,7z"/>
	<path d="M16.5039,10H12.5C12.2236,10,12,9.7764,12,9.5S12.2236,9,12.5,9h4.0039c0.2764,0,0.5,0.2236,0.5,0.5S16.7803,10,16.5039,10
		z"/>
	<path d="M14.502,13H12.5c-0.2764,0-0.5-0.2236-0.5-0.5s0.2236-0.5,0.5-0.5h2.002c0.2764,0,0.5,0.2236,0.5,0.5S14.7783,13,14.502,13
		z"/>
	<path d="M16.5039,16H12.5c-0.2764,0-0.5-0.2236-0.5-0.5s0.2236-0.5,0.5-0.5h4.0039c0.2764,0,0.5,0.2236,0.5,0.5
		S16.7803,16,16.5039,16z"/>
	<path d="M14.502,19H12.5c-0.2764,0-0.5-0.2236-0.5-0.5s0.2236-0.5,0.5-0.5h2.002c0.2764,0,0.5,0.2236,0.5,0.5S14.7783,19,14.502,19
		z"/>
	<path d="M16.5039,22H12.5c-0.2764,0-0.5-0.2236-0.5-0.5s0.2236-0.5,0.5-0.5h4.0039c0.2764,0,0.5,0.2236,0.5,0.5
		S16.7803,22,16.5039,22z"/>
	<path d="M6.0303,23.9971c-0.0005,0-0.001,0-0.0015,0c-0.4424-0.001-0.834-0.3086-0.9736-0.7646
		C2.978,17.2715,2.978,17.2051,2.978,17.0957c0-0.2764,0.2236-0.5,0.5-0.5c0.2417,0,0.4429,0.1709,0.4897,0.3994
		c0.0952,0.3291,1.2646,3.708,2.0376,5.9268c0.8223-2.2207,2.0117-5.5977,2.1089-5.9287c0.0474-0.2275,0.2485-0.3975,0.4893-0.3975
		c0.2764,0,0.5,0.2236,0.5,0.5c0,0.1143,0,0.1768-2.1182,6.1572C6.8481,23.6973,6.4707,23.9971,6.0303,23.9971z"/>
	<path d="M7.0034,22h-2c-0.2764,0-0.5-0.2236-0.5-0.5s0.2236-0.5,0.5-0.5h2c0.2764,0,0.5,0.2236,0.5,0.5S7.2798,22,7.0034,22z"/>
	<path d="M8.6035,17.6553H3.478c-0.2764,0-0.5-0.2236-0.5-0.5V2.501c0-1.3784,1.1216-2.5,2.5-2.5h1.1255
		c1.3784,0,2.5,1.1216,2.5,2.5v14.6543C9.1035,17.4316,8.8799,17.6553,8.6035,17.6553z M3.978,16.6553h4.1255V2.501
		c0-0.8271-0.6729-1.5-1.5-1.5H5.478c-0.8271,0-1.5,0.6729-1.5,1.5V16.6553z"/>
	<path d="M20.5,24h-8c-0.2764,0-0.5-0.2236-0.5-0.5v-23C12,0.2236,12.2236,0,12.5,0h8C20.7764,0,21,0.2236,21,0.5v23
		C21,23.7764,20.7764,24,20.5,24z M13,23h7V1h-7V23z"/>
	<path d="M6.501,17.6553c-0.2764,0-0.5-0.2236-0.5-0.5V4.4897c0-0.2764,0.2236-0.5,0.5-0.5s0.5,0.2236,0.5,0.5v12.6655
		C7.001,17.4316,6.7773,17.6553,6.501,17.6553z"/>
</g>
<rect fill="none" width="24" height="24"/>
</svg>
