<?xml version="1.0" encoding="utf-8"?>
<!-- Generator: Adobe Illustrator 18.1.0, SVG Export Plug-In . SVG Version: 6.00 Build 0)  -->
<svg version="1.1" id="Layer_1" xmlns="http://www.w3.org/2000/svg" xmlns:xlink="http://www.w3.org/1999/xlink" x="0px" y="0px"
	 width="24px" height="24px" viewBox="0 0 24 24" enable-background="new 0 0 24 24" xml:space="preserve">
<g>
	<path d="M20.5381,5.0049h-4c-0.2764,0-0.5-0.2236-0.5-0.5v-4c0-0.2764,0.2236-0.5,0.5-0.5s0.5,0.2236,0.5,0.5v3.5h3.5
		c0.2764,0,0.5,0.2236,0.5,0.5S20.8145,5.0049,20.5381,5.0049z"/>
	<path d="M19.7471,24.0049H4.3257c-0.7095,0-1.2871-0.583-1.2871-1.2998V1.3105c0-0.7197,0.5776-1.3057,1.2871-1.3057h12.2124
		c0.4189,0,0.6416,0.2192,0.8037,0.3789l3.3125,3.2686c0.1787,0.1768,0.3838,0.4331,0.3838,0.8525v18.2002
		C21.0381,23.4219,20.459,24.0049,19.7471,24.0049z M16.5322,0.998L4.3257,1.0049c-0.1558,0-0.2871,0.1401-0.2871,0.3057v21.3945
		c0,0.1621,0.1313,0.2998,0.2871,0.2998h15.4214c0.1582,0,0.291-0.1377,0.291-0.2998V4.5049c0-0.0366,0-0.0552-0.0869-0.1406
		l-3.3125-3.2686C16.6113,1.0679,16.5527,1.0107,16.5322,0.998z"/>
	<path d="M11.5571,19.9971c-0.2764,0-0.5-0.2236-0.5-0.5V6.5557c0-0.2764,0.2236-0.5,0.5-0.5s0.4995,0.2236,0.4995,0.5v12.9414
		C12.0566,19.7734,11.8335,19.9971,11.5571,19.9971z"/>
	<path d="M14.8672,10.1704c-0.123,0-0.2461-0.0449-0.3428-0.1357l-2.9673-2.7925l-2.9673,2.7925
		c-0.2012,0.1885-0.5171,0.1802-0.707-0.0215c-0.189-0.2012-0.1797-0.5176,0.0215-0.707l3.3101-3.1147
		c0.1924-0.1807,0.4932-0.1807,0.6855,0L15.21,9.3062c0.2012,0.1895,0.2109,0.5059,0.0215,0.707
		C15.1328,10.1177,15,10.1704,14.8672,10.1704z"/>
</g>
<rect y="0.0001" fill="none" width="24" height="24"/>
</svg>
