<?xml version="1.0" encoding="utf-8"?>
<!-- Generator: Adobe Illustrator 18.1.0, SVG Export Plug-In . SVG Version: 6.00 Build 0)  -->
<svg version="1.1" id="Layer_1" xmlns="http://www.w3.org/2000/svg" xmlns:xlink="http://www.w3.org/1999/xlink" x="0px" y="0px"
	 width="24px" height="24px" viewBox="0 0 24 24" enable-background="new 0 0 24 24" xml:space="preserve">
<g>
	<path d="M20.6396,16.4932L20.6396,16.4932c-0.5273,0-1.1396-0.1875-2.1826-0.6699c-1.4531-0.6719-2.4395-2.0332-2.6621-3.0322
		c-0.1367-0.6113,0.0283-0.9702,0.1914-1.1646c0.2227-0.2651,0.5723-0.3999,1.0391-0.3999c1.0459,0,2.583,0.6777,3.7373,1.6475
		c1.084,0.9102,1.6172,1.8154,1.5,2.5488c-0.0645,0.4004-0.3242,0.7197-0.7129,0.876
		C21.3105,16.3955,21.0146,16.4932,20.6396,16.4932z M17.0254,12.2266c-0.2119,0-0.2773,0.0469-0.2783,0.0479
		c-0.0059,0.0186-0.0283,0.1807,0.0781,0.4893c0.2402,0.6904,0.9834,1.6582,2.0518,2.1514c0.876,0.4053,1.4033,0.5781,1.7627,0.5781
		l0,0c0.167,0,0.3174-0.0342,0.5371-0.1221c0.0869-0.0352,0.0928-0.0723,0.0986-0.1055c0.0342-0.2148-0.1709-0.7988-1.1553-1.626
		C19.0273,12.7217,17.71,12.2266,17.0254,12.2266z"/>
	<path d="M3.5996,16.4932c-0.3755,0-0.6709-0.0977-0.9102-0.1943c-0.3892-0.1562-0.6489-0.4756-0.7134-0.876
		c-0.1172-0.7334,0.4155-1.6387,1.5-2.5488c1.1699-0.9824,2.6763-1.6685,3.6636-1.6685c0.5581,0,0.8555,0.2148,1.0068,0.3955
		c0.2446,0.2915,0.3125,0.7202,0.1963,1.2417c-0.2158,0.9648-1.1094,2.3096-2.5615,2.9805
		C4.7383,16.3057,4.1265,16.4932,3.5996,16.4932z M7.1396,12.2051c-0.6362,0-1.9111,0.5029-3.021,1.4346
		c-0.9844,0.8271-1.189,1.4111-1.1548,1.625c0.0054,0.0332,0.0112,0.0713,0.0981,0.1064c0.2197,0.0879,0.3701,0.1221,0.5376,0.1221
		c0.3589,0,0.8857-0.1729,1.7622-0.5781c1.0449-0.4824,1.7393-1.4219,1.9639-2.1387c0.105-0.335,0.0684-0.5059,0.0522-0.5361
		C7.3779,12.2412,7.3291,12.2051,7.1396,12.2051z"/>
	<path d="M23.0156,24.0039H0.9727c-0.5425,0-0.9834-0.4414-0.9834-0.9834v-1.7266c0-0.2637,0.1079-0.5205,0.2969-0.7051
		c2.2319-2.167,4.9668-3.6807,7.9092-4.377c0.2939-0.0684,0.6133,0.1533,0.6304,0.457c0.1851,3.3115,1.8267,4.8193,3.2739,4.8193
		c1.4258,0,3.0508-1.4961,3.25-4.7812c0.0107-0.1787,0.1162-0.3379,0.2764-0.418c0.125-0.0615,0.2705-0.0684,0.3994-0.0195
		c2.8525,0.7197,5.5059,2.2119,7.6748,4.3184c0.1885,0.1807,0.2988,0.4395,0.2988,0.7061v1.7266
		C23.999,23.5625,23.5576,24.0039,23.0156,24.0039z M7.8774,17.3252c-2.5581,0.707-4.9316,2.0752-6.8936,3.9795l0.0054,1.7158
		l22.0098-0.0166v-1.71c-1.9082-1.8467-4.2178-3.1953-6.7041-3.916c-0.4053,3.5244-2.3564,5.1104-4.1953,5.1104
		C10.2959,22.4893,8.271,20.8682,7.8774,17.3252z"/>
	<path d="M14.874,15.667c-0.2764,0-0.5-0.2236-0.5-0.5v-0.7178c0-0.1338,0.0537-0.2627,0.1494-0.3564
		c0.8965-0.8818,1.4873-2.1543,1.5801-3.4033c0.0195-0.2612,0.2373-0.4629,0.499-0.4629c0.2539,0,0.3467-0.1968,0.376-0.2812
		c0.0537-0.1577,0.0439-0.3789-0.1455-0.5254c-0.1758-0.1357-0.2412-0.3711-0.1602-0.5781
		c0.2305-0.5874,0.3477-1.1982,0.3477-1.8159c0-2.7456-2.2334-4.9795-4.9795-4.9795S7.0605,4.2803,7.0605,7.0259
		c0,0.6333,0.1206,1.2554,0.3584,1.8486C7.498,9.0708,7.4443,9.2959,7.2856,9.436C7.1108,9.5894,7.1104,9.8071,7.168,9.96
		c0.0303,0.0801,0.1255,0.2666,0.355,0.2666c0.2617,0,0.4956,0.2021,0.5146,0.4634c0.0923,1.249,0.6821,2.521,1.5786,3.4028
		c0.0957,0.0938,0.1494,0.2227,0.1494,0.3564v0.7178c0,0.2764-0.2236,0.5-0.5,0.5s-0.5-0.2236-0.5-0.5v-0.5137
		C7.875,13.71,7.2646,12.4365,7.082,11.1509c-0.3857-0.1328-0.6968-0.4331-0.8496-0.8379C6.0566,9.8467,6.1187,9.3462,6.3833,8.958
		C6.1689,8.3335,6.0605,7.6851,6.0605,7.0259c0-3.2969,2.6826-5.9795,5.9805-5.9795c3.2969,0,5.9795,2.6826,5.9795,5.9795
		c0,0.6362-0.1025,1.2651-0.3057,1.8745c0.291,0.3809,0.375,0.8853,0.21,1.3682c-0.1475,0.4316-0.4678,0.75-0.8662,0.8857
		c-0.1836,1.2842-0.7949,2.5566-1.6846,3.499v0.5137C15.374,15.4434,15.1504,15.667,14.874,15.667z"/>
</g>
<rect x="0.0005" y="0.0004" fill="none" width="24" height="24"/>
</svg>
