<?xml version="1.0" encoding="utf-8"?>
<!-- Generator: Adobe Illustrator 18.1.0, SVG Export Plug-In . SVG Version: 6.00 Build 0)  -->
<svg version="1.1" id="Layer_1" xmlns="http://www.w3.org/2000/svg" xmlns:xlink="http://www.w3.org/1999/xlink" x="0px" y="0px"
	 width="24px" height="24px" viewBox="0 0 24 24" enable-background="new 0 0 24 24" xml:space="preserve">
<g>
	<path d="M17.9766,17.0879c-0.7402,0-1.4355-0.2881-1.958-0.8115c-0.334-0.334-0.7783-0.5176-1.251-0.5176
		c-0.2764,0-0.5-0.2236-0.5-0.5s0.2236-0.5,0.5-0.5c0.7402,0,1.4355,0.2881,1.958,0.8105c0.667,0.668,1.833,0.668,2.502,0
		c1.0781-1.0801,2.8359-1.0801,3.916,0c0.1953,0.1953,0.1953,0.5117,0,0.707s-0.5117,0.1953-0.707,0
		c-0.6895-0.6895-1.8125-0.6895-2.502,0C19.4111,16.7998,18.7158,17.0879,17.9766,17.0879z"/>
	<path d="M11.4995,16.9023c-1.0913,0-1.9795-0.8877-1.9795-1.9795s0.8882-1.9795,1.9795-1.9795s1.979,0.8877,1.979,1.9795
		S12.5908,16.9023,11.4995,16.9023z M11.4995,13.9434c-0.54,0-0.9795,0.4395-0.9795,0.9795s0.4395,0.9795,0.9795,0.9795
		c0.5396,0,0.979-0.4395,0.979-0.9795S12.0391,13.9434,11.4995,13.9434z"/>
	<path d="M11.4863,13.9434c-0.2764,0-0.5-0.2236-0.5-0.5V2.5c0-0.2764,0.2236-0.5,0.5-0.5s0.5,0.2236,0.5,0.5v10.9434
		C11.9863,13.7197,11.7627,13.9434,11.4863,13.9434z"/>
	<path d="M14.9863,5h-3.4868c-0.2764,0-0.5-0.2236-0.5-0.5s0.2236-0.5,0.5-0.5h3.4868c0.2764,0,0.5,0.2236,0.5,0.5
		S15.2627,5,14.9863,5z"/>
	<path d="M14.9863,8h-3.4868c-0.2764,0-0.5-0.2236-0.5-0.5s0.2236-0.5,0.5-0.5h3.4868c0.2764,0,0.5,0.2236,0.5,0.5
		S15.2627,8,14.9863,8z"/>
	<path d="M14.9863,11h-3.4868c-0.2764,0-0.5-0.2236-0.5-0.5s0.2236-0.5,0.5-0.5h3.4868c0.2764,0,0.5,0.2236,0.5,0.5
		S15.2627,11,14.9863,11z"/>
	<path d="M5.1401,17.0879c-0.7397,0-1.4351-0.2881-1.958-0.8115c-0.5298-0.5293-1.3408-0.6631-2.0225-0.3311
		c-0.248,0.1201-0.5479,0.0195-0.6689-0.2295c-0.1211-0.248-0.0186-0.5479,0.2295-0.6689c1.063-0.5205,2.3364-0.3115,3.1689,0.5225
		c0.6689,0.668,1.833,0.668,2.502,0c0.5151-0.5156,1.2007-0.8027,1.9302-0.8105c0.0015,0,0.0034,0,0.0049,0
		c0.2739,0,0.4971,0.2207,0.5,0.4951c0.0029,0.2764-0.2188,0.502-0.4951,0.5049c-0.4658,0.0049-0.9038,0.1885-1.2329,0.5176
		C6.5752,16.7998,5.8799,17.0879,5.1401,17.0879z"/>
	<path d="M17.9766,20.582c-0.7402,0-1.4355-0.2881-1.958-0.8115c-0.6895-0.6895-1.8125-0.6895-2.502,0
		c-1.0469,1.0469-2.8711,1.0469-3.916,0c-0.6904-0.6895-1.8125-0.6895-2.502,0c-1.0469,1.0459-2.8721,1.0459-3.916,0
		c-0.5298-0.5303-1.3433-0.6641-2.0229-0.3311c-0.248,0.1201-0.5479,0.0186-0.6689-0.2295s-0.0186-0.5479,0.2295-0.6689
		c1.061-0.5205,2.335-0.3105,3.1694,0.5225c0.668,0.668,1.833,0.6689,2.502,0c1.0781-1.0801,2.8354-1.0801,3.916,0
		c0.668,0.668,1.834,0.668,2.502,0c1.0781-1.0801,2.8359-1.0801,3.916,0c0.667,0.668,1.833,0.6689,2.502,0
		c1.0781-1.0801,2.8359-1.0801,3.916,0c0.1953,0.1953,0.1953,0.5117,0,0.707s-0.5117,0.1953-0.707,0
		c-0.6895-0.6895-1.8125-0.6895-2.502,0C19.4111,20.2939,18.7158,20.582,17.9766,20.582z"/>
</g>
<rect x="-0.0137" fill="none" width="24" height="24"/>
</svg>
