<?xml version="1.0" encoding="utf-8"?>
<!-- Generator: Adobe Illustrator 18.1.0, SVG Export Plug-In . SVG Version: 6.00 Build 0)  -->
<svg version="1.1" id="Layer_1" xmlns="http://www.w3.org/2000/svg" xmlns:xlink="http://www.w3.org/1999/xlink" x="0px" y="0px"
	 width="24px" height="24px" viewBox="0 0 24 24" enable-background="new 0 0 24 24" xml:space="preserve">
<g>
	<path d="M22.3506,11.0088H1.6318c-0.2764,0-0.5-0.2236-0.5-0.5c0-5.2285,4.8716-9.4824,10.8594-9.4824
		c5.9883,0,10.8594,4.2539,10.8594,9.4824C22.8506,10.7852,22.627,11.0088,22.3506,11.0088z M2.1489,10.0088H21.834
		c-0.3018-4.4453-4.6016-7.9824-9.8428-7.9824S2.4507,5.5635,2.1489,10.0088z"/>
	<path d="M19.751,23.0049H4.2314c-1.709,0-3.0996-1.4229-3.0996-3.1719v-0.3281c0-0.2764,0.2236-0.5,0.5-0.5h20.7188
		c0.2764,0,0.5,0.2236,0.5,0.5v0.3281C22.8506,21.582,21.46,23.0049,19.751,23.0049z M2.1382,20.0049
		c0.085,1.1172,0.9912,2,2.0933,2H19.751c1.1016,0,2.0078-0.8828,2.0928-2H2.1382z"/>
	<path d="M22.5547,20.0049H1.4272c-0.8047,0-1.4595-0.6367-1.4595-1.4189v-1.1621c0-0.7822,0.6548-1.4189,1.4595-1.4189h21.1274
		c0.8047,0,1.46,0.6367,1.46,1.4189v1.1621C24.0146,19.3682,23.3594,20.0049,22.5547,20.0049z M1.4272,17.0049
		c-0.2534,0-0.4595,0.1875-0.4595,0.4189v1.1621c0,0.2314,0.2061,0.4189,0.4595,0.4189h21.1274c0.2539,0,0.46-0.1875,0.46-0.4189
		v-1.1621c0-0.2314-0.2061-0.4189-0.46-0.4189H1.4272z"/>
	<path d="M21.1631,14.9316c-0.124,0-0.248-0.0459-0.3447-0.1377l-1.5146-1.4424l-1.5146,1.4424
		c-0.1934,0.1836-0.4961,0.1836-0.6895,0l-1.5146-1.4424l-1.459,1.3906c-0.1934,0.1836-0.4961,0.1836-0.6895,0l-1.5146-1.4434
		l-1.5142,1.4434c-0.1924,0.1836-0.4971,0.1836-0.6895,0L8.208,13.3027l-1.4863,1.416c-0.1934,0.1836-0.4961,0.1836-0.6895,0
		l-1.5146-1.4424l-1.5142,1.4424c-0.1924,0.1836-0.4961,0.1836-0.6895,0l-1.8594-1.7705c-0.2002-0.1904-0.208-0.5068-0.0176-0.707
		c0.1914-0.2002,0.5083-0.2061,0.707-0.0176l1.5146,1.4424l1.5142-1.4424c0.1924-0.1836,0.4961-0.1836,0.6895,0L6.377,13.666
		l1.459-1.3896c0.0859-0.1133,0.2007-0.1699,0.3428-0.1816c0.1377-0.002,0.2661,0.0527,0.3696,0.1514l1.5146,1.4434l1.5142-1.4434
		c0.1924-0.1836,0.4961-0.1836,0.6895,0l1.5146,1.4434l1.459-1.3906c0.1934-0.1836,0.4961-0.1836,0.6895,0l1.5146,1.4424
		l1.5146-1.4424c0.1934-0.1836,0.4961-0.1836,0.6895,0l1.5146,1.4424l1.459-1.3896c0.1992-0.1895,0.5156-0.1836,0.707,0.0176
		c0.1904,0.2002,0.1826,0.5166-0.0176,0.707l-1.8037,1.7178C21.4111,14.8857,21.2871,14.9316,21.1631,14.9316z"/>
	<path d="M9.6704,5.0791H9.4043c-0.2764,0-0.5-0.2236-0.5-0.5s0.2236-0.5,0.5-0.5h0.2661c0.2764,0,0.5,0.2236,0.5,0.5
		S9.9468,5.0791,9.6704,5.0791z"/>
	<path d="M12.6416,7.0166H12.376c-0.2764,0-0.5-0.2236-0.5-0.5s0.2236-0.5,0.5-0.5h0.2656c0.2764,0,0.5,0.2236,0.5,0.5
		S12.918,7.0166,12.6416,7.0166z"/>
	<path d="M14.6338,5.0791h-0.2656c-0.2764,0-0.5-0.2236-0.5-0.5s0.2236-0.5,0.5-0.5h0.2656c0.2764,0,0.5,0.2236,0.5,0.5
		S14.9102,5.0791,14.6338,5.0791z"/>
</g>
<rect y="0.0197" fill="none" width="24" height="24"/>
</svg>
