<?xml version="1.0" encoding="utf-8"?>
<!-- Generator: Adobe Illustrator 18.1.0, SVG Export Plug-In . SVG Version: 6.00 Build 0)  -->
<svg version="1.1" id="Layer_1" xmlns="http://www.w3.org/2000/svg" xmlns:xlink="http://www.w3.org/1999/xlink" x="0px" y="0px"
	 width="24px" height="24px" viewBox="0 0 24 24" enable-background="new 0 0 24 24" xml:space="preserve">
<g>
	<path d="M19.8477,18H4.125c-0.6279,0-1.1387-0.5107-1.1387-1.1387V4.1392C2.9863,3.5112,3.4971,3,4.125,3h15.7227
		c0.6279,0,1.1387,0.5112,1.1387,1.1392v12.7222C20.9863,17.4893,20.4756,18,19.8477,18z M4.125,4
		C4.0483,4,3.9863,4.0625,3.9863,4.1392v12.7222C3.9863,16.9375,4.0483,17,4.125,17h15.7227c0.0762,0,0.1387-0.0625,0.1387-0.1387
		V4.1392C19.9863,4.0625,19.9238,4,19.8477,4H4.125z"/>
	<path d="M7.9517,9.9927c-1.1143,0-2.0205-0.9062-2.0205-2.0205s0.9062-2.0205,2.0205-2.0205s2.0205,0.9062,2.0205,2.0205
		S9.0659,9.9927,7.9517,9.9927z M7.9517,6.9517c-0.5625,0-1.0205,0.458-1.0205,1.0205s0.458,1.0205,1.0205,1.0205
		s1.0205-0.458,1.0205-1.0205S8.5142,6.9517,7.9517,6.9517z"/>
	<path d="M6.4307,18c-0.0996,0-0.2007-0.0293-0.2886-0.0918c-0.2251-0.1592-0.2788-0.4717-0.1191-0.6973l5.7798-8.1675
		c0.0928-0.1309,0.2422-0.209,0.4023-0.2109c0.1475-0.0029,0.3125,0.0737,0.4072,0.2021l1.8867,2.5449l2.5918-4.0762
		c0.0898-0.1416,0.2441-0.2285,0.4121-0.2319c0.1709-0.0063,0.3252,0.0776,0.4199,0.2148l2.9736,4.2793
		c0.1582,0.2266,0.1016,0.5381-0.125,0.6953c-0.2256,0.1582-0.5381,0.1016-0.6953-0.125l-2.5449-3.6616l-2.5791,4.0562
		c-0.0879,0.1387-0.2393,0.2256-0.4043,0.2314c-0.1719-0.0078-0.3223-0.0703-0.4189-0.2021l-1.9082-2.5747l-5.3813,7.604
		C6.7417,17.9268,6.5874,18,6.4307,18z"/>
	<path d="M22.6963,24H1.2769c-0.7114,0-1.2905-0.5791-1.2905-1.291V1.2915C-0.0137,0.5796,0.5654,0,1.2769,0h21.4194
		c0.7109,0,1.29,0.5796,1.29,1.2915V22.709C23.9863,23.4209,23.4072,24,22.6963,24z M1.2769,1C1.1167,1,0.9863,1.1309,0.9863,1.2915
		V22.709c0,0.1602,0.1304,0.291,0.2905,0.291h21.4194c0.1602,0,0.29-0.1309,0.29-0.291V1.2915c0-0.1606-0.1299-0.2915-0.29-0.2915
		H1.2769z"/>
	<path d="M15.9863,21h-8c-0.2764,0-0.5-0.2236-0.5-0.5S7.71,20,7.9863,20h8c0.2764,0,0.5,0.2236,0.5,0.5S16.2627,21,15.9863,21z"/>
</g>
<rect x="-0.0136" y="0.0002" fill="none" width="24" height="24"/>
</svg>
