<?xml version="1.0" encoding="utf-8"?>
<!-- Generator: Adobe Illustrator 18.1.0, SVG Export Plug-In . SVG Version: 6.00 Build 0)  -->
<svg version="1.1" id="Layer_1" xmlns="http://www.w3.org/2000/svg" xmlns:xlink="http://www.w3.org/1999/xlink" x="0px" y="0px"
	 width="24px" height="24px" viewBox="0 0 24 24" enable-background="new 0 0 24 24" xml:space="preserve">
<g>
	<path d="M23.5381,23H0.5386c-0.2764,0-0.5-0.2236-0.5-0.5v-21c0-0.2764,0.2236-0.5,0.5-0.5h22.9995c0.2764,0,0.5,0.2236,0.5,0.5v21
		C24.0381,22.7764,23.8145,23,23.5381,23z M1.0386,22h21.9995V2H1.0386V22z"/>
	<path d="M23.5117,5.0005H0.5864c-0.2764,0-0.5-0.2236-0.5-0.5s0.2236-0.5,0.5-0.5h22.9253c0.2764,0,0.5,0.2236,0.5,0.5
		S23.7881,5.0005,23.5117,5.0005z"/>
	<path d="M20.5107,10.999H3.5098c-0.2764,0-0.5-0.2236-0.5-0.5V8.5c0-0.2764,0.2236-0.5,0.5-0.5h17.001c0.2764,0,0.5,0.2236,0.5,0.5
		v1.999C21.0107,10.7754,20.7871,10.999,20.5107,10.999z M4.0098,9.999h16.001V9H4.0098V9.999z"/>
	<path d="M10.5107,20h-7.001c-0.2764,0-0.5-0.2236-0.5-0.5v-5.999c0-0.2764,0.2236-0.5,0.5-0.5h7.001c0.2764,0,0.5,0.2236,0.5,0.5
		V19.5C11.0107,19.7764,10.7871,20,10.5107,20z M4.0098,19h6.001v-4.999h-6.001V19z"/>
	<path d="M20.5117,20h-7.001c-0.2764,0-0.5-0.2236-0.5-0.5v-5.999c0-0.2764,0.2236-0.5,0.5-0.5h7.001c0.2764,0,0.5,0.2236,0.5,0.5
		V19.5C21.0117,19.7764,20.7881,20,20.5117,20z M14.0107,19h6.001v-4.999h-6.001V19z"/>
</g>
<rect fill="none" width="24" height="24"/>
</svg>
