<?xml version="1.0" encoding="utf-8"?>
<!-- Generator: Adobe Illustrator 18.1.0, SVG Export Plug-In . SVG Version: 6.00 Build 0)  -->
<svg version="1.1" id="Layer_1" xmlns="http://www.w3.org/2000/svg" xmlns:xlink="http://www.w3.org/1999/xlink" x="0px" y="0px"
	 width="24px" height="24px" viewBox="0 0 24 24" enable-background="new 0 0 24 24" xml:space="preserve">
<g>
	<path d="M6.6143,23.7783c-0.0718,0-0.1436-0.0156-0.2109-0.0469c-0.1763-0.082-0.2891-0.2588-0.2891-0.4531v-5.3818
		c-2.9771-0.918-5.9258-4.373-5.9258-8.873c0-4.8921,3.7227-9.0254,8.1289-9.0254h7.5205c4.2998,0,7.9316,4.1216,7.9316,9
		c0,4.8789-3.6318,9-7.9316,9h-2.1865l-6.7148,5.6621C6.8447,23.7383,6.73,23.7783,6.6143,23.7783z M8.3174,0.998
		c-3.7979,0-7.1289,3.75-7.1289,8.0254c0,4.1982,2.8169,7.3662,5.5396,8.0039c0.2266,0.0537,0.3862,0.2549,0.3862,0.4873v4.6885
		l6.0322-5.0869c0.0898-0.0762,0.2041-0.1182,0.3223-0.1182h2.3691c3.7578,0,6.9316-3.6631,6.9316-8c0-4.3364-3.1738-8-6.9316-8
		H8.3174z"/>
	<path d="M6.7842,11.0278c-1.1509,0-2.0869-0.9507-2.0869-2.1191c0-1.1689,0.936-2.1196,2.0869-2.1196s2.0869,0.9507,2.0869,2.1196
		C8.8711,10.0771,7.9351,11.0278,6.7842,11.0278z M6.7842,7.7891c-0.5991,0-1.0869,0.5024-1.0869,1.1196
		s0.4878,1.1191,1.0869,1.1191s1.0869-0.502,1.0869-1.1191S7.3833,7.7891,6.7842,7.7891z"/>
	<path d="M11.7651,11.0278c-1.1509,0-2.0869-0.9507-2.0869-2.1191c0-1.1689,0.936-2.1196,2.0869-2.1196s2.0874,0.9507,2.0874,2.1196
		C13.8525,10.0771,12.916,11.0278,11.7651,11.0278z M11.7651,7.7891c-0.5991,0-1.0869,0.5024-1.0869,1.1196
		s0.4878,1.1191,1.0869,1.1191s1.0874-0.502,1.0874-1.1191S12.3643,7.7891,11.7651,7.7891z"/>
	<path d="M16.7461,11.0278c-1.1504,0-2.0869-0.9507-2.0869-2.1191c0-1.1689,0.9365-2.1196,2.0869-2.1196
		s2.0869,0.9507,2.0869,2.1196C18.833,10.0771,17.8965,11.0278,16.7461,11.0278z M16.7461,7.7891
		c-0.5996,0-1.0869,0.5024-1.0869,1.1196s0.4873,1.1191,1.0869,1.1191s1.0869-0.502,1.0869-1.1191S17.3457,7.7891,16.7461,7.7891z"
		/>
</g>
<rect y="-0.002" fill="none" width="24" height="24"/>
</svg>
