<?xml version="1.0" encoding="utf-8"?>
<!-- Generator: Adobe Illustrator 18.1.0, SVG Export Plug-In . SVG Version: 6.00 Build 0)  -->
<svg version="1.1" id="Layer_1" xmlns="http://www.w3.org/2000/svg" xmlns:xlink="http://www.w3.org/1999/xlink" x="0px" y="0px"
	 width="24px" height="24px" viewBox="0 0 24 24" enable-background="new 0 0 24 24" xml:space="preserve">
<g>
	<g>
		<path fill="none" stroke="#000000" stroke-linecap="round" stroke-linejoin="round" stroke-miterlimit="10" d="M15.207,18.5921"/>
		<path d="M0.8208,19.0918c-0.123,0-0.2456-0.0449-0.3423-0.1357c-0.2012-0.1885-0.2114-0.5049-0.022-0.707
			c0.748-0.7959,2.4731-3.0283,2.3335-6.5493C2.7173,9.8638,3.5093,8.3574,5.0205,7.458c1.7627-1.0483,4.2251-1.0498,5.9878-0.0005
			c1.5103,0.8989,2.3022,2.4053,2.23,4.2422c-0.1406,3.519,1.585,5.7524,2.333,6.5503c0.1895,0.2012,0.1797,0.5176-0.0225,0.7061
			c-0.1992,0.1885-0.5166,0.1807-0.7061-0.0225c-0.835-0.8887-2.7588-3.376-2.6045-7.2739
			c0.0742-1.8623-0.9062-2.8457-1.7412-3.3428C9.0356,7.4478,6.9941,7.4478,5.5317,8.3174
			c-0.8354,0.4976-1.8164,1.481-1.7427,3.3423c0.1548,3.8989-1.7695,6.3862-2.604,7.2749
			C1.0869,19.0391,0.9541,19.0918,0.8208,19.0918z"/>
		<path fill="none" stroke="#000000" stroke-linecap="round" stroke-linejoin="round" stroke-miterlimit="10" d="M0.8209,18.5921"/>
		<path d="M8.0142,21.4668c-2.7368,0-5.4736-0.8291-7.5093-2.4873c-0.2139-0.1748-0.2461-0.4893-0.0718-0.7031
			c0.1738-0.2139,0.4893-0.2451,0.7036-0.0723c3.7275,3.0371,10.0264,3.0371,13.7549,0c0.2139-0.1719,0.5283-0.1436,0.7031,0.0723
			c0.1748,0.2139,0.1426,0.5283-0.0723,0.7031C13.4883,20.6377,10.751,21.4668,8.0142,21.4668z"/>
		<path fill="none" stroke="#000000" stroke-linecap="round" stroke-linejoin="round" stroke-miterlimit="10" d="M0.8209,18.5921"/>
		<path fill="none" stroke="#000000" stroke-linecap="round" stroke-linejoin="round" stroke-miterlimit="10" d="M15.207,18.5921"/>
	</g>
	<path d="M8.0137,23.874c-1.1685,0-2.1191-0.7979-2.1191-1.7793c0-0.2764,0.2236-0.5,0.5-0.5s0.5,0.2236,0.5,0.5
		c0,0.4229,0.5127,0.7793,1.1191,0.7793c0.6069,0,1.1196-0.3564,1.1196-0.7793c0-0.2764,0.2236-0.5,0.5-0.5s0.5,0.2236,0.5,0.5
		C10.1333,23.0762,9.1826,23.874,8.0137,23.874z"/>
	<path d="M22.1221,9.9136h-5.7725c-0.2021,0-0.3848-0.1216-0.4619-0.3086s-0.0342-0.4019,0.1084-0.5449l4.9189-4.9189h-4.3418
		c-0.2764,0-0.5-0.2236-0.5-0.5s0.2236-0.5,0.5-0.5h5.5488c0.2021,0,0.3848,0.1216,0.4619,0.3086s0.0342,0.4019-0.1084,0.5449
		l-4.9189,4.9189h4.5654c0.2764,0,0.5,0.2236,0.5,0.5S22.3984,9.9136,22.1221,9.9136z"/>
	<path d="M13.1875,4.8071H9.5952c-0.2021,0-0.3848-0.1216-0.4619-0.3086c-0.0776-0.187-0.0347-0.4019,0.1084-0.5449l2.7388-2.7393
		H9.7344c-0.2764,0-0.5-0.2236-0.5-0.5s0.2236-0.5,0.5-0.5h3.4531c0.2021,0,0.3848,0.1216,0.4619,0.3086
		s0.0342,0.4019-0.1084,0.5449l-2.7388,2.7393h2.3853c0.2764,0,0.5,0.2236,0.5,0.5S13.4639,4.8071,13.1875,4.8071z"/>
	<path d="M21.4219,17.9375h-2.9541c-0.2021,0-0.3848-0.1221-0.4619-0.3086s-0.0342-0.4023,0.1084-0.5449l2.1006-2.1006H18.582
		c-0.2764,0-0.5-0.2236-0.5-0.5s0.2236-0.5,0.5-0.5h2.8398c0.2021,0,0.3848,0.1221,0.4619,0.3086s0.0342,0.4023-0.1084,0.5449
		l-2.1006,2.1006h1.7471c0.2764,0,0.5,0.2236,0.5,0.5S21.6982,17.9375,21.4219,17.9375z"/>
</g>
<rect x="-0.0136" y="0.0002" fill="none" width="24" height="24"/>
</svg>
