<?xml version="1.0" encoding="utf-8"?>
<!-- Generator: Adobe Illustrator 18.1.0, SVG Export Plug-In . SVG Version: 6.00 Build 0)  -->
<svg version="1.1" id="Layer_1" xmlns="http://www.w3.org/2000/svg" xmlns:xlink="http://www.w3.org/1999/xlink" x="0px" y="0px"
	 width="24px" height="24px" viewBox="0 0 24 24" enable-background="new 0 0 24 24" xml:space="preserve">
<g>
	<path d="M23.5,24h-23C0.2236,24,0,23.7764,0,23.5v-17C0,6.2236,0.2236,6,0.5,6h23C23.7764,6,24,6.2236,24,6.5v17
		C24,23.7764,23.7764,24,23.5,24z M1,23h22V7H1V23z"/>
	<rect x="8.5875" y="1.8914" transform="matrix(0.6649 0.7469 -0.7469 0.6649 6.4791 -5.2472)" width="1.0002" height="5.4119"/>
	<rect x="12.2667" y="4.0532" transform="matrix(0.7303 0.6831 -0.6831 0.7303 7.1465 -8.9942)" width="5.3943" height="1.0004"/>
	<path d="M12,3.6714c-0.9775,0-1.7725-0.7949-1.7725-1.7725S11.0225,0.1265,12,0.1265s1.7725,0.7949,1.7725,1.7725
		S12.9775,3.6714,12,3.6714z M12,1.1265c-0.4258,0-0.7725,0.3467-0.7725,0.7725S11.5742,2.6714,12,2.6714
		s0.7725-0.3467,0.7725-0.7725S12.4258,1.1265,12,1.1265z"/>
	<path d="M23.5,10h-23C0.2236,10,0,9.7764,0,9.5S0.2236,9,0.5,9h23C23.7764,9,24,9.2236,24,9.5S23.7764,10,23.5,10z"/>
	<path d="M5.4917,20.9502H4.5571c-0.2764,0-0.5-0.2236-0.5-0.5s0.2236-0.5,0.5-0.5h0.9346c0.2764,0,0.5,0.2236,0.5,0.5
		S5.7681,20.9502,5.4917,20.9502z"/>
	<path d="M8.5337,20.9502H7.5986c-0.2764,0-0.5-0.2236-0.5-0.5s0.2236-0.5,0.5-0.5h0.9351c0.2764,0,0.5,0.2236,0.5,0.5
		S8.8101,20.9502,8.5337,20.9502z"/>
	<path d="M11.4692,20.9502h-0.9346c-0.2764,0-0.5-0.2236-0.5-0.5s0.2236-0.5,0.5-0.5h0.9346c0.2764,0,0.5,0.2236,0.5,0.5
		S11.7456,20.9502,11.4692,20.9502z"/>
	<path d="M14.4697,20.9502h-0.9346c-0.2764,0-0.5-0.2236-0.5-0.5s0.2236-0.5,0.5-0.5h0.9346c0.2764,0,0.5,0.2236,0.5,0.5
		S14.7461,20.9502,14.4697,20.9502z"/>
	<path d="M5.4917,18.9502H4.5571c-0.2764,0-0.5-0.2236-0.5-0.5s0.2236-0.5,0.5-0.5h0.9346c0.2764,0,0.5,0.2236,0.5,0.5
		S5.7681,18.9502,5.4917,18.9502z"/>
	<path d="M8.5337,18.9502H7.5986c-0.2764,0-0.5-0.2236-0.5-0.5s0.2236-0.5,0.5-0.5h0.9351c0.2764,0,0.5,0.2236,0.5,0.5
		S8.8101,18.9502,8.5337,18.9502z"/>
	<path d="M11.4692,18.9502h-0.9346c-0.2764,0-0.5-0.2236-0.5-0.5s0.2236-0.5,0.5-0.5h0.9346c0.2764,0,0.5,0.2236,0.5,0.5
		S11.7456,18.9502,11.4692,18.9502z"/>
	<path d="M14.4697,18.9502h-0.9346c-0.2764,0-0.5-0.2236-0.5-0.5s0.2236-0.5,0.5-0.5h0.9346c0.2764,0,0.5,0.2236,0.5,0.5
		S14.7461,18.9502,14.4697,18.9502z"/>
	<path d="M17.4697,18.9502h-0.9346c-0.2764,0-0.5-0.2236-0.5-0.5s0.2236-0.5,0.5-0.5h0.9346c0.2764,0,0.5,0.2236,0.5,0.5
		S17.7461,18.9502,17.4697,18.9502z"/>
	<path d="M20.4707,18.9502h-0.9355c-0.2764,0-0.5-0.2236-0.5-0.5s0.2236-0.5,0.5-0.5h0.9355c0.2764,0,0.5,0.2236,0.5,0.5
		S20.7471,18.9502,20.4707,18.9502z"/>
	<path d="M5.4917,16.9492H4.5571c-0.2764,0-0.5-0.2236-0.5-0.5s0.2236-0.5,0.5-0.5h0.9346c0.2764,0,0.5,0.2236,0.5,0.5
		S5.7681,16.9492,5.4917,16.9492z"/>
	<path d="M8.5337,16.9492H7.5986c-0.2764,0-0.5-0.2236-0.5-0.5s0.2236-0.5,0.5-0.5h0.9351c0.2764,0,0.5,0.2236,0.5,0.5
		S8.8101,16.9492,8.5337,16.9492z"/>
	<path d="M11.4692,16.9492h-0.9346c-0.2764,0-0.5-0.2236-0.5-0.5s0.2236-0.5,0.5-0.5h0.9346c0.2764,0,0.5,0.2236,0.5,0.5
		S11.7456,16.9492,11.4692,16.9492z"/>
	<path d="M14.4697,16.9492h-0.9346c-0.2764,0-0.5-0.2236-0.5-0.5s0.2236-0.5,0.5-0.5h0.9346c0.2764,0,0.5,0.2236,0.5,0.5
		S14.7461,16.9492,14.4697,16.9492z"/>
	<path d="M17.4697,16.9492h-0.9346c-0.2764,0-0.5-0.2236-0.5-0.5s0.2236-0.5,0.5-0.5h0.9346c0.2764,0,0.5,0.2236,0.5,0.5
		S17.7461,16.9492,17.4697,16.9492z"/>
	<path d="M20.4707,16.9492h-0.9355c-0.2764,0-0.5-0.2236-0.5-0.5s0.2236-0.5,0.5-0.5h0.9355c0.2764,0,0.5,0.2236,0.5,0.5
		S20.7471,16.9492,20.4707,16.9492z"/>
	<path d="M5.4917,14.9492H4.5571c-0.2764,0-0.5-0.2236-0.5-0.5s0.2236-0.5,0.5-0.5h0.9346c0.2764,0,0.5,0.2236,0.5,0.5
		S5.7681,14.9492,5.4917,14.9492z"/>
	<path d="M8.5337,14.9492H7.5986c-0.2764,0-0.5-0.2236-0.5-0.5s0.2236-0.5,0.5-0.5h0.9351c0.2764,0,0.5,0.2236,0.5,0.5
		S8.8101,14.9492,8.5337,14.9492z"/>
	<path d="M11.4692,14.9492h-0.9346c-0.2764,0-0.5-0.2236-0.5-0.5s0.2236-0.5,0.5-0.5h0.9346c0.2764,0,0.5,0.2236,0.5,0.5
		S11.7456,14.9492,11.4692,14.9492z"/>
	<path d="M14.4697,14.9492h-0.9346c-0.2764,0-0.5-0.2236-0.5-0.5s0.2236-0.5,0.5-0.5h0.9346c0.2764,0,0.5,0.2236,0.5,0.5
		S14.7461,14.9492,14.4697,14.9492z"/>
	<path d="M17.4697,14.9492h-0.9346c-0.2764,0-0.5-0.2236-0.5-0.5s0.2236-0.5,0.5-0.5h0.9346c0.2764,0,0.5,0.2236,0.5,0.5
		S17.7461,14.9492,17.4697,14.9492z"/>
	<path d="M20.4707,14.9492h-0.9355c-0.2764,0-0.5-0.2236-0.5-0.5s0.2236-0.5,0.5-0.5h0.9355c0.2764,0,0.5,0.2236,0.5,0.5
		S20.7471,14.9492,20.4707,14.9492z"/>
	<path d="M14.4697,12.9492h-0.9346c-0.2764,0-0.5-0.2236-0.5-0.5s0.2236-0.5,0.5-0.5h0.9346c0.2764,0,0.5,0.2236,0.5,0.5
		S14.7461,12.9492,14.4697,12.9492z"/>
	<path d="M17.4697,12.9492h-0.9346c-0.2764,0-0.5-0.2236-0.5-0.5s0.2236-0.5,0.5-0.5h0.9346c0.2764,0,0.5,0.2236,0.5,0.5
		S17.7461,12.9492,17.4697,12.9492z"/>
	<path d="M20.4707,12.9492h-0.9355c-0.2764,0-0.5-0.2236-0.5-0.5s0.2236-0.5,0.5-0.5h0.9355c0.2764,0,0.5,0.2236,0.5,0.5
		S20.7471,12.9492,20.4707,12.9492z"/>
</g>
<rect fill="none" width="24" height="24"/>
</svg>
