<?xml version="1.0" encoding="utf-8"?>
<!-- Generator: Adobe Illustrator 18.1.0, SVG Export Plug-In . SVG Version: 6.00 Build 0)  -->
<svg version="1.1" id="Layer_1" xmlns="http://www.w3.org/2000/svg" xmlns:xlink="http://www.w3.org/1999/xlink" x="0px" y="0px"
	 width="24px" height="24px" viewBox="0 0 24 24" enable-background="new 0 0 24 24" xml:space="preserve">
<g>
	<path d="M15.665,9.5078H8.3271c-0.2764,0-0.5-0.2236-0.5-0.5s0.2236-0.5,0.5-0.5h7.3379c0.2764,0,0.5,0.2236,0.5,0.5
		S15.9414,9.5078,15.665,9.5078z"/>
	<path d="M12.0039,23.9473c-0.1343,0-0.2627-0.0537-0.3569-0.1494l-6.4854-6.6055c-0.0918-0.0938-0.1431-0.2197-0.1431-0.3506
		V0.6064c0-0.2764,0.2236-0.5,0.5-0.5h12.9697c0.2764,0,0.5,0.2236,0.5,0.5v16.2354c0,0.1309-0.0518,0.2568-0.1436,0.3506
		l-6.4844,6.6055C12.2666,23.8936,12.1377,23.9473,12.0039,23.9473z M6.0186,16.6377l5.9854,6.0957l5.9844-6.0957V1.1064H6.0186
		V16.6377z"/>
</g>
<rect y="-0.0001" fill="none" width="24" height="24"/>
</svg>
