<?xml version="1.0" encoding="utf-8"?>
<!-- Generator: Adobe Illustrator 18.1.0, SVG Export Plug-In . SVG Version: 6.00 Build 0)  -->
<svg version="1.1" id="Layer_1" xmlns="http://www.w3.org/2000/svg" xmlns:xlink="http://www.w3.org/1999/xlink" x="0px" y="0px"
	 width="24px" height="24px" viewBox="0 0 24 24" enable-background="new 0 0 24 24" xml:space="preserve">
<g>
	<path d="M13.1787,20.8359c-0.2197,0-0.4199-0.1445-0.4814-0.3662c-0.0742-0.2666,0.082-0.542,0.3477-0.6152l6.6904-1.8564
		c0.2695-0.0762,0.542,0.082,0.6152,0.3477c0.0742,0.2666-0.082,0.542-0.3477,0.6152l-6.6904,1.8564
		C13.2676,20.8301,13.2227,20.8359,13.1787,20.8359z"/>
	<path d="M10.1724,19.2324c-0.2188,0-0.4199-0.1445-0.4814-0.3662L4.6665,0.7563c-0.0737-0.2661,0.082-0.542,0.3481-0.6157
		c0.2671-0.0737,0.5415,0.082,0.6157,0.3481l5.0244,18.1099c0.0737,0.2666-0.082,0.542-0.3481,0.6152
		C10.2617,19.2266,10.2168,19.2324,10.1724,19.2324z"/>
	<path d="M12.6904,18.2617c-0.2197,0-0.4199-0.1445-0.4814-0.3662L9.6631,8.7212C9.6279,8.5933,9.6445,8.4565,9.71,8.3413
		c0.0649-0.1157,0.1738-0.2002,0.3013-0.2358l9.1743-2.5449c0.2715-0.0723,0.541,0.0825,0.6152,0.3481l2.5449,9.1743
		c0.0742,0.2666-0.082,0.542-0.3477,0.6152l-9.1738,2.5449C12.7793,18.2559,12.7344,18.2617,12.6904,18.2617z M10.7607,8.9355
		l2.2773,8.2109l8.2109-2.2783l-2.2783-8.2104L10.7607,8.9355z"/>
	<path d="M5.9458,3.9961H1.6333c-0.2764,0-0.5-0.2236-0.5-0.5s0.2236-0.5,0.5-0.5h4.3125c0.2764,0,0.5,0.2236,0.5,0.5
		S6.2222,3.9961,5.9458,3.9961z"/>
	<path d="M16.209,11.0718c-0.0576,0-0.1162-0.0098-0.1738-0.0312c-0.2588-0.0962-0.3906-0.3838-0.2949-0.6426l0.5811-1.5659
		c0.0557-0.1504,0.1797-0.2646,0.334-0.3076c0.1533-0.0425,0.3203-0.0098,0.4453,0.0894l1.3096,1.0366
		c0.2158,0.1714,0.2529,0.4858,0.0811,0.7026c-0.1729,0.2163-0.4863,0.2529-0.7021,0.0815l-0.7695-0.6094l-0.3418,0.9204
		C16.6025,10.9473,16.4121,11.0718,16.209,11.0718z"/>
	<path d="M17.9102,13.5078c-0.2188,0-0.4199-0.1445-0.4814-0.3652l-1.1201-4.002c-0.0742-0.2661,0.0811-0.542,0.3467-0.6162
		c0.2676-0.0781,0.542,0.0811,0.6162,0.3467l1.1201,4.002c0.0742,0.2656-0.0811,0.542-0.3467,0.6162
		C18,13.502,17.9541,13.5078,17.9102,13.5078z"/>
	<path d="M13.3809,11.8633c-0.0576,0-0.1162-0.0098-0.1738-0.0312c-0.2588-0.0962-0.3906-0.3838-0.2949-0.6426l0.5811-1.5654
		c0.0557-0.1504,0.1797-0.2646,0.334-0.3076s0.3193-0.0098,0.4453,0.0894l1.3096,1.0366c0.2158,0.1714,0.2529,0.4858,0.0811,0.7026
		c-0.1719,0.2173-0.4873,0.252-0.7021,0.0815l-0.7695-0.6094l-0.3418,0.9199C13.7744,11.7388,13.584,11.8633,13.3809,11.8633z"/>
	<path d="M15.082,14.3008c-0.2188,0-0.4199-0.1445-0.4814-0.3652l-1.1201-4.0029c-0.0742-0.2661,0.0811-0.542,0.3467-0.6162
		c0.2676-0.0762,0.542,0.0811,0.6162,0.3467l1.1201,4.0029c0.0742,0.2656-0.0811,0.542-0.3467,0.6162
		C15.1719,14.2949,15.126,14.3008,15.082,14.3008z"/>
	<path d="M14.6719,15.7363c-0.2188,0-0.4199-0.1445-0.4814-0.3652c-0.0742-0.2656,0.0811-0.542,0.3467-0.6162L18.873,13.54
		c0.2676-0.0762,0.542,0.0811,0.6162,0.3467s-0.0811,0.542-0.3467,0.6162l-4.3359,1.2148
		C14.7617,15.7305,14.7158,15.7363,14.6719,15.7363z"/>
	<path d="M10.8975,23.8691c-1.585,0-2.874-1.29-2.874-2.875s1.2891-2.874,2.874-2.874s2.875,1.2891,2.875,2.874
		S12.4824,23.8691,10.8975,23.8691z M10.8975,19.1201c-1.0332,0-1.874,0.8408-1.874,1.874c0,1.0342,0.8408,1.875,1.874,1.875
		c1.0337,0,1.875-0.8408,1.875-1.875C12.7725,19.9609,11.9312,19.1201,10.8975,19.1201z"/>
	<path d="M10.8999,21.5c-0.1299,0-0.2603-0.0605-0.3501-0.1504c-0.1001-0.0996-0.1499-0.2295-0.1499-0.3594
		c0-0.1309,0.0498-0.25,0.1401-0.3506c0.1997-0.1895,0.52-0.1797,0.71,0c0.0996,0.0898,0.1499,0.2197,0.1499,0.3506
		c0,0.1396-0.0601,0.2695-0.1499,0.3594C11.1499,21.4395,11.0298,21.5,10.8999,21.5z"/>
</g>
<rect x="-0.0137" fill="none" width="24" height="24"/>
</svg>
