<?xml version="1.0" encoding="utf-8"?>
<!-- Generator: Adobe Illustrator 18.1.0, SVG Export Plug-In . SVG Version: 6.00 Build 0)  -->
<svg version="1.1" id="Layer_1" xmlns="http://www.w3.org/2000/svg" xmlns:xlink="http://www.w3.org/1999/xlink" x="0px" y="0px"
	 width="24px" height="24px" viewBox="0 0 24 24" enable-background="new 0 0 24 24" xml:space="preserve">
<g>
	<path d="M17.3018,24.0635H6.7246c-0.3071,0-1.3159-0.127-1.395-1.7539L3.7827,5.6099C3.77,5.4702,3.8164,5.3311,3.9111,5.2271
		S4.1401,5.064,4.2808,5.064h15.4644c0.1406,0,0.2744,0.0591,0.3691,0.1631s0.1416,0.2432,0.1289,0.3828l-1.5469,16.7212
		C18.6182,23.9365,17.6094,24.0635,17.3018,24.0635z M4.8291,6.064l1.498,16.1753c0.0161,0.3213,0.0869,0.8242,0.3975,0.8242
		h10.5771c0.3115,0,0.3828-0.5029,0.3975-0.8027L19.1963,6.064H4.8291z"/>
	<path d="M20.6484,6.064H3.3774c-0.1533,0-0.2983-0.0703-0.3931-0.1909S2.8555,5.5952,2.8916,5.4463l0.5649-2.3345
		c0.0542-0.2241,0.2549-0.3823,0.4858-0.3823h1.894l0.6914-2.3428c0.0625-0.2124,0.2578-0.3584,0.4795-0.3584h10.0112
		c0.2217,0,0.417,0.146,0.4795,0.3584l0.6914,2.3428h1.8945c0.2305,0,0.4316,0.1582,0.4863,0.3823l0.5645,2.3345
		c0.0361,0.1489,0.001,0.3066-0.0938,0.4268C20.9463,5.9937,20.8018,6.064,20.6484,6.064z M4.0127,5.064h16l-0.3223-1.3345h-1.875
		c-0.2217,0-0.417-0.146-0.4795-0.3584l-0.6914-2.3428H7.3809L6.6895,3.3711C6.627,3.5835,6.4316,3.7295,6.21,3.7295h-1.874
		L4.0127,5.064z"/>
	<path d="M20.6484,6.064H3.3774c-0.1533,0-0.2983-0.0703-0.3931-0.1909S2.8555,5.5952,2.8916,5.4463l0.5649-2.3345
		c0.0542-0.2241,0.2549-0.3823,0.4858-0.3823h1.894l0.6914-2.3428c0.0625-0.2124,0.2578-0.3584,0.4795-0.3584h10.0112
		c0.2217,0,0.417,0.146,0.4795,0.3584l0.6914,2.3428h1.8945c0.2305,0,0.4316,0.1582,0.4863,0.3823l0.5645,2.3345
		c0.0361,0.1489,0.001,0.3066-0.0938,0.4268C20.9463,5.9937,20.8018,6.064,20.6484,6.064z M4.0127,5.064h16l-0.3223-1.3345h-1.875
		c-0.2217,0-0.417-0.146-0.4795-0.3584l-0.6914-2.3428H7.3809L6.6895,3.3711C6.627,3.5835,6.4316,3.7295,6.21,3.7295h-1.874
		L4.0127,5.064z"/>
	<path d="M19.2686,11.0166L19.2686,11.0166c-4.8916-0.0039-14.2144-0.0088-14.4961,0c-0.2358-0.0034-0.5059-0.2095-0.5137-0.4858
		c-0.0078-0.2754,0.208-0.5054,0.4839-0.5142c0.3271-0.0098,13.9468-0.0005,14.5259,0c0.2764,0,0.5,0.2241,0.5,0.5005
		C19.7686,10.793,19.5449,11.0166,19.2686,11.0166z"/>
	<path d="M18.627,18.0078L18.627,18.0078c-4.4561-0.0029-12.9526-0.0059-13.2251,0c-0.2612,0.0029-0.5063-0.21-0.5142-0.4854
		c-0.0083-0.2754,0.208-0.5059,0.4839-0.5146c0.3252-0.0088,12.729,0,13.2554,0c0.2764,0,0.5,0.2246,0.5,0.5
		C19.127,17.7842,18.9033,18.0078,18.627,18.0078z"/>
</g>
<rect x="0.0142" y="0.0346" fill="none" width="24" height="24"/>
</svg>
