<?xml version="1.0" encoding="utf-8"?>
<!-- Generator: Adobe Illustrator 18.1.0, SVG Export Plug-In . SVG Version: 6.00 Build 0)  -->
<svg version="1.1" id="Layer_1" xmlns="http://www.w3.org/2000/svg" xmlns:xlink="http://www.w3.org/1999/xlink" x="0px" y="0px"
	 width="24px" height="24px" viewBox="0 0 24 24" enable-background="new 0 0 24 24" xml:space="preserve">
<g>
	<path d="M6.6255,21.5801c-0.0635,0-0.1274-0.0117-0.188-0.0371c-0.1899-0.0771-0.3135-0.2617-0.312-0.4658l0.0317-5.0068H4.6953
		c-2.3984,0-4.3496-1.9414-4.3496-4.3286c0-1.417,0.9282-2.877,2.334-3.7075C3.1357,4.75,5.6953,2.394,8.8564,2.394
		c1.4971,0,2.7695,0.5059,3.9834,1.5884c2.5254-0.4722,4.9111,1.1221,5.4727,3.4917c2.7783-0.4355,5.3799,1.6797,5.3799,4.2676
		c0,2.3062-2.1416,4.3286-4.582,4.3286h-6.9766l-5.1479,5.3564C6.8896,21.5264,6.7588,21.5801,6.6255,21.5801z M8.8564,3.394
		c-2.7217,0-4.9141,2.1045-5.2134,5.0044C3.6255,8.5654,3.5259,8.7129,3.377,8.7905c-1.1963,0.6235-2.0312,1.8374-2.0312,2.9512
		c0,1.6011,1.2808,3.3286,3.3496,3.3286h1.9648c0.1333,0,0.2607,0.0527,0.3545,0.1475c0.0942,0.0947,0.1465,0.2227,0.1455,0.3555
		l-0.0269,4.2568l4.4268-4.6064c0.0942-0.0977,0.2241-0.1533,0.3604-0.1533h7.1899c1.9082,0,3.582-1.5557,3.582-3.3286
		c0-1.5747-1.4814-3.3296-3.6064-3.3296c-0.3447,0-0.6963,0.0479-1.0439,0.1416c-0.1387,0.0396-0.2891,0.0137-0.4111-0.0684
		c-0.1201-0.0815-0.1992-0.2114-0.2168-0.356c-0.2559-2.1914-2.3584-3.6621-4.6055-3.1182c-0.166,0.0405-0.3389-0.0063-0.4609-0.123
		C11.272,3.8687,10.1626,3.394,8.8564,3.394z"/>
</g>
<rect y="-0.002" fill="none" width="24" height="24"/>
</svg>
