<?xml version="1.0" encoding="utf-8"?>
<!-- Generator: Adobe Illustrator 18.1.0, SVG Export Plug-In . SVG Version: 6.00 Build 0)  -->
<svg version="1.1" id="Layer_1" xmlns="http://www.w3.org/2000/svg" xmlns:xlink="http://www.w3.org/1999/xlink" x="0px" y="0px"
	 width="24px" height="24px" viewBox="0 0 24 24" enable-background="new 0 0 24 24" xml:space="preserve">
<g>
	<path d="M7.4097,23.3604c-0.1748,0-0.3447-0.0918-0.4365-0.2549l-3.5757-6.3691c-0.1353-0.2412-0.0493-0.5459,0.1914-0.6807
		c0.2402-0.1367,0.5449-0.0498,0.6807,0.1904l3.5757,6.3691c0.1353,0.2412,0.0493,0.5459-0.1914,0.6807
		C7.5767,23.3398,7.4927,23.3604,7.4097,23.3604z"/>
	<path d="M14.1221,19.7783c-0.2637,0-0.4834-0.2051-0.499-0.4707c-0.1416-2.4326,0.4141-4.2324,1.6543-5.3486
		c1.6846-1.5176,3.9756-1.1621,4.0732-1.1436c0.2725,0.0449,0.4561,0.3008,0.4121,0.5732
		c-0.0439,0.2705-0.2988,0.4619-0.5732,0.4131c-0.0195-0.0029-1.9297-0.29-3.25,0.9072c-0.998,0.9023-1.4414,2.4307-1.3184,4.54
		c0.0166,0.2754-0.1943,0.5127-0.4697,0.5283C14.1416,19.7783,14.1318,19.7783,14.1221,19.7783z"/>
	<path d="M5.4404,23.7881c-1.228,0-2.6055-0.4561-3.5996-1.9385c-0.5801-0.8652-0.7773-1.7686-0.5864-2.6846
		c0.3848-1.8457,2.2314-3.0449,2.3096-3.0947l7.9097-4.4536l3.2148-10.937c0.0762-0.2598,0.3477-0.415,0.6104-0.3413l7.1133,1.9263
		c0.1289,0.0347,0.2383,0.1201,0.3047,0.2363c0.0654,0.1167,0.082,0.2544,0.0449,0.3833L22.1289,5.106
		c0,0.0005,0,0.0015-0.001,0.0024l-2.623,9.2002c-0.0156,0.0889-0.6426,3.0576-2.9531,4.2568
		c-2.3975,1.2441-8.8413,4.7012-8.9062,4.7354C7.1147,23.5566,6.3154,23.7881,5.4404,23.7881z M4.0786,16.9268
		c0.002,0-1.5508,1.0186-1.8462,2.4463c-0.1343,0.6504,0.0093,1.2783,0.4395,1.9199c1.6484,2.46,4.4043,1.1719,4.5205,1.1172
		c0.0454-0.0254,6.4961-3.4854,8.8984-4.7314c1.8818-0.9775,2.4385-3.5811,2.4434-3.6074l2.4932-8.7495l-6.1719-1.666l-2.4795,8.438
		c-0.0371,0.125-0.1211,0.2305-0.2344,0.2949L4.0786,16.9268L4.0786,16.9268z M15.1377,2.6963l6.1641,1.6636l0.3594-1.2627
		l-6.1514-1.666L15.1377,2.6963z"/>
	<path fill="none" stroke="#000000" stroke-linecap="round" stroke-linejoin="round" d="M14.5142,3.046"/>
	<path d="M16.3867,4.0508c-0.0459,0-0.0928-0.0063-0.1396-0.02c-0.2646-0.0771-0.418-0.3545-0.3408-0.6196l0.6465-2.2246
		c0.0771-0.2646,0.3516-0.4189,0.6201-0.3403c0.2646,0.0771,0.418,0.3545,0.3408,0.6196l-0.6465,2.2246
		C16.8037,3.9087,16.6035,4.0508,16.3867,4.0508z"/>
	<path d="M18.0537,4.4917c-0.0469,0-0.0947-0.0068-0.1426-0.021c-0.2646-0.0786-0.415-0.3569-0.3369-0.6216l0.6582-2.2114
		c0.0791-0.2642,0.3545-0.4155,0.6221-0.3364c0.2646,0.0786,0.415,0.3569,0.3369,0.6216l-0.6582,2.2114
		C18.4688,4.3516,18.2695,4.4917,18.0537,4.4917z"/>
	<path d="M19.7197,4.9326c-0.0469,0-0.0947-0.0063-0.1426-0.0205c-0.2646-0.0786-0.415-0.3569-0.3369-0.6216l0.6533-2.2026
		c0.0791-0.2642,0.3545-0.417,0.6221-0.3374c0.2646,0.0786,0.415,0.3569,0.3369,0.6216l-0.6533,2.2026
		C20.1348,4.792,19.9355,4.9326,19.7197,4.9326z"/>
</g>
<rect x="0.0142" y="0.0344" fill="none" width="24" height="24"/>
</svg>
