<?xml version="1.0" encoding="utf-8"?>
<!-- Generator: Adobe Illustrator 18.1.0, SVG Export Plug-In . SVG Version: 6.00 Build 0)  -->
<svg version="1.1" id="Layer_1" xmlns="http://www.w3.org/2000/svg" xmlns:xlink="http://www.w3.org/1999/xlink" x="0px" y="0px"
	 width="24px" height="24px" viewBox="0 0 24 24" enable-background="new 0 0 24 24" xml:space="preserve">
<g>
	<path d="M0.9771,8.0493c-0.2495,0-0.4653-0.186-0.4961-0.4399C0.4482,7.3354,0.6436,7.0859,0.9175,7.0527
		C1.022,7.0405,11.4858,5.7427,22.8525,1.6533c0.2568-0.0928,0.5459,0.041,0.6396,0.3013c0.0928,0.2603-0.042,0.5464-0.3018,0.6401
		C11.7134,6.7236,1.1431,8.0332,1.0376,8.0459C1.0171,8.0483,0.9971,8.0493,0.9771,8.0493z"/>
	<path d="M19.0645,17.9854h-13.25c-0.2764,0-0.5-0.2236-0.5-0.5s0.2236-0.5,0.5-0.5h13.25c0.2764,0,0.5,0.2236,0.5,0.5
		S19.3408,17.9854,19.0645,17.9854z"/>
	<path d="M9.4712,17.9727c-0.2764,0-0.5-0.2236-0.5-0.5v-5.9873c0-0.2764,0.2236-0.5,0.5-0.5s0.5,0.2236,0.5,0.5v5.9873
		C9.9712,17.749,9.7476,17.9727,9.4712,17.9727z"/>
	<path d="M15.499,17.9727c-0.2764,0-0.5-0.2236-0.5-0.5v-5.9873c0-0.2764,0.2236-0.5,0.5-0.5s0.5,0.2236,0.5,0.5v5.9873
		C15.999,17.749,15.7754,17.9727,15.499,17.9727z"/>
	<path d="M12.499,11.9854c-0.2764,0-0.5-0.2236-0.5-0.5V7.4595c0-0.2764,0.2236-0.5,0.5-0.5s0.5,0.2236,0.5,0.5v4.0259
		C12.999,11.7617,12.7754,11.9854,12.499,11.9854z"/>
	<path d="M10.1665,4.2363c-0.8623,0-1.564-0.7017-1.564-1.5645c0-0.8623,0.7017-1.564,1.564-1.564
		c0.8628,0,1.5645,0.7017,1.5645,1.564C11.731,3.5347,11.0293,4.2363,10.1665,4.2363z M10.1665,2.1079
		c-0.311,0-0.564,0.2529-0.564,0.564s0.2529,0.5645,0.564,0.5645s0.5645-0.2534,0.5645-0.5645S10.4775,2.1079,10.1665,2.1079z"/>
	<path d="M13.832,3.3081c-0.8623,0-1.5645-0.7017-1.5645-1.564c0-0.8628,0.7021-1.5645,1.5645-1.5645s1.5635,0.7017,1.5635,1.5645
		C15.3955,2.6064,14.6943,3.3081,13.832,3.3081z M13.832,1.1797c-0.3115,0-0.5645,0.2534-0.5645,0.5645s0.2529,0.564,0.5645,0.564
		c0.3105,0,0.5635-0.2529,0.5635-0.564S14.1426,1.1797,13.832,1.1797z"/>
	<path d="M15.5586,23.9854H9.3208c-2.209,0-4.0063-1.7979-4.0063-4.0068v-4.9863c0-2.209,1.7974-4.0068,4.0063-4.0068h6.2378
		c2.209,0,4.0059,1.7979,4.0059,4.0068v4.9863C19.5645,22.1875,17.7676,23.9854,15.5586,23.9854z M9.3208,11.9854
		c-1.6577,0-3.0063,1.3486-3.0063,3.0068v4.9863c0,1.6582,1.3486,3.0068,3.0063,3.0068h6.2378c1.6572,0,3.0059-1.3486,3.0059-3.0068
		v-4.9863c0-1.6582-1.3486-3.0068-3.0059-3.0068H9.3208z"/>
</g>
<rect x="-0.0008" y="-0.0147" fill="none" width="24" height="24"/>
</svg>
