<?xml version="1.0" encoding="utf-8"?>
<!-- Generator: Adobe Illustrator 18.1.0, SVG Export Plug-In . SVG Version: 6.00 Build 0)  -->
<svg version="1.1" id="Layer_1" xmlns="http://www.w3.org/2000/svg" xmlns:xlink="http://www.w3.org/1999/xlink" x="0px" y="0px"
	 width="24px" height="24px" viewBox="0 0 24 24" enable-background="new 0 0 24 24" xml:space="preserve">
<g>
	<path d="M5.7832,24c-0.0068-0.001-0.0127,0-0.02,0H0.5996c-0.1602,0-0.311-0.0771-0.4048-0.207
		c-0.0942-0.1299-0.1201-0.2969-0.0703-0.4492l0.9839-3C1.1758,20.1387,1.3672,20,1.5835,20h3.1958
		c0.2163,0,0.4077,0.1387,0.4751,0.3438l0.9434,2.876c0.0537,0.0801,0.0854,0.1768,0.0854,0.2803
		C6.2832,23.7764,6.0591,24,5.7832,24z M1.29,23h3.7832L4.417,21H1.9458L1.29,23z"/>
	<path d="M11.6875,24c-0.0068-0.001-0.0127,0-0.02,0H6.5039c-0.1602,0-0.311-0.0771-0.4048-0.207
		c-0.0942-0.1299-0.1201-0.2969-0.0703-0.4492l0.9839-3C7.0801,20.1387,7.2715,20,7.4878,20h3.1953
		c0.2163,0,0.4077,0.1387,0.4751,0.3438l0.9434,2.876c0.0547,0.0801,0.0859,0.1768,0.0859,0.2803
		C12.1875,23.7764,11.9634,24,11.6875,24z M7.1943,23h3.7827l-0.6562-2H7.8501L7.1943,23z"/>
	<path d="M8.813,21c-0.0068-0.001-0.0127-0.001-0.02,0H3.6294c-0.1602,0-0.311-0.0771-0.4048-0.207
		c-0.0942-0.1299-0.1201-0.2969-0.0703-0.4492l0.9839-3C4.2056,17.1387,4.397,17,4.6133,17h3.1953
		c0.2163,0,0.4077,0.1387,0.4751,0.3438l0.9438,2.876C9.2812,20.2998,9.313,20.3965,9.313,20.5C9.313,20.7764,9.0889,21,8.813,21z
		 M4.3193,20h3.7832l-0.6562-2H4.9756L4.3193,20z"/>
	<path d="M17.5908,24c-0.0039,0.001-0.0117,0.001-0.0195,0h-5.1631c-0.1602,0-0.3105-0.0771-0.4053-0.207
		c-0.0938-0.1299-0.1196-0.2969-0.0698-0.4482l0.9829-3C12.9834,20.1387,13.1758,20,13.3916,20h3.1963
		c0.2158,0,0.4082,0.1387,0.4756,0.3447l0.9424,2.876c0.0537,0.0791,0.085,0.1758,0.085,0.2793
		C18.0908,23.7764,17.8672,24,17.5908,24z M13.0986,23h3.7822l-0.6553-2h-2.4717L13.0986,23z"/>
	<path d="M11.6875,18c-0.0068-0.001-0.0127-0.001-0.02,0H6.5039c-0.1602,0-0.311-0.0771-0.4048-0.207
		c-0.0942-0.1299-0.1201-0.2969-0.0703-0.4492l0.9839-3C7.0801,14.1387,7.2715,14,7.4878,14h3.1953
		c0.2163,0,0.4077,0.1387,0.4751,0.3438l0.9434,2.876c0.0547,0.0801,0.0859,0.1768,0.0859,0.2803
		C12.1875,17.7764,11.9634,18,11.6875,18z M7.1943,17h3.7827l-0.6562-2H7.8501L7.1943,17z"/>
	<path d="M17.5908,18c-0.0039,0-0.0117,0-0.0195,0h-5.1631c-0.1602,0-0.3105-0.0771-0.4053-0.207
		c-0.0938-0.1299-0.1196-0.2969-0.0698-0.4482l0.9829-3C12.9834,14.1387,13.1758,14,13.3916,14h3.1963
		c0.2158,0,0.4082,0.1387,0.4756,0.3447l0.9424,2.876c0.0537,0.0791,0.085,0.1758,0.085,0.2793
		C18.0908,17.7764,17.8672,18,17.5908,18z M13.0986,17h3.7822l-0.6553-2h-2.4717L13.0986,17z"/>
	<path d="M14.7168,21c-0.0049,0-0.0127,0-0.0195,0H9.5332c-0.1602,0-0.311-0.0771-0.4048-0.207
		c-0.0942-0.1299-0.1201-0.2969-0.0703-0.4492l0.9839-3C10.1094,17.1387,10.3008,17,10.5171,17h3.1958
		c0.2158,0,0.4072,0.1387,0.4746,0.3438l0.9443,2.876c0.0537,0.0801,0.085,0.1768,0.085,0.2803
		C15.2168,20.7764,14.9932,21,14.7168,21z M10.2236,20h3.7832l-0.6562-2h-2.4712L10.2236,20z"/>
	<path d="M14.6973,15H9.0376c-0.2764,0-0.5-0.2236-0.5-0.5s0.2236-0.5,0.5-0.5h4.9165l-0.9521-2.3457
		c-0.1045-0.2559,0.0186-0.5474,0.2744-0.6514c0.2549-0.104,0.5479,0.019,0.6514,0.2754l1.2324,3.0332
		c0.0625,0.1543,0.0449,0.3301-0.0479,0.4678S14.8633,15,14.6973,15z"/>
	<path d="M23.4951,24c-0.0049,0.001-0.0127,0.001-0.0195,0h-5.1641c-0.1602,0-0.3105-0.0771-0.4053-0.207
		c-0.0938-0.1299-0.1201-0.2969-0.0693-0.4492l0.9844-3C18.8887,20.1387,19.0801,20,19.2959,20h3.1953
		c0.2158,0,0.4072,0.1387,0.4746,0.3438l0.9443,2.876c0.0537,0.0801,0.085,0.1768,0.085,0.2803
		C23.9951,23.7764,23.7715,24,23.4951,24z M19.002,23h3.7832l-0.6562-2h-2.4707L19.002,23z"/>
	<path d="M20.6201,21c-0.0049,0-0.0117,0-0.0195,0h-5.1631c-0.1602,0-0.3105-0.0771-0.4053-0.207
		c-0.0938-0.1299-0.1201-0.2969-0.0693-0.4492l0.9844-3C16.0146,17.1387,16.2061,17,16.4219,17h3.1953
		c0.2158,0,0.4082,0.1387,0.4756,0.3447l0.9424,2.876c0.0537,0.0791,0.085,0.1758,0.085,0.2793
		C21.1201,20.7764,20.8965,21,20.6201,21z M16.1279,20h3.7822l-0.6553-2h-2.4707L16.1279,20z"/>
	<path d="M17.5713,10.9536c-0.2539,0-0.4678-0.1904-0.4971-0.4424c-0.0918-0.7939-0.4043-2.2192-0.8506-2.6655
		c-0.4473-0.4473-1.8721-0.7588-2.665-0.8506c-0.252-0.0288-0.4424-0.2427-0.4424-0.4966s0.1904-0.4673,0.4424-0.4966
		c0.7939-0.0923,2.2197-0.4048,2.665-0.8511c0.4463-0.4458,0.7588-1.8716,0.8506-2.6655c0.0293-0.252,0.2432-0.4424,0.4971-0.4424
		s0.4678,0.1904,0.4971,0.4424c0.0918,0.7939,0.4043,2.2197,0.8506,2.6655c0.4473,0.4473,1.8721,0.7593,2.665,0.8511
		c0.252,0.0288,0.4424,0.2427,0.4424,0.4966s-0.1904,0.4673-0.4424,0.4966c-0.7939,0.0923-2.2188,0.4048-2.665,0.8506
		c-0.4473,0.4473-0.7598,1.8721-0.8506,2.665C18.0391,10.7632,17.8252,10.9536,17.5713,10.9536L17.5713,10.9536z M15.8232,6.4985
		c0.4346,0.1626,0.8398,0.3726,1.1074,0.6401c0.2676,0.2681,0.4775,0.6733,0.6406,1.1084c0.1631-0.4355,0.373-0.8408,0.6406-1.1084
		s0.6729-0.4775,1.1084-0.6401c-0.4355-0.1626-0.8408-0.3726-1.1084-0.6406c-0.2676-0.2676-0.4775-0.6729-0.6406-1.1079
		c-0.1631,0.4351-0.373,0.8403-0.6406,1.1079C16.6631,6.126,16.2578,6.3359,15.8232,6.4985z"/>
	<path d="M9.5332,13.4453c-0.2539,0-0.4673-0.1904-0.4966-0.4424c-0.0581-0.4951-0.251-1.3359-0.4819-1.5669
		c-0.2324-0.2319-1.0723-0.4248-1.5669-0.4819c-0.252-0.0288-0.4419-0.2427-0.4424-0.4961c0-0.2539,0.1904-0.4678,0.4424-0.4971
		c0.4951-0.0581,1.3354-0.2515,1.5669-0.4824c0.231-0.231,0.4238-1.0713,0.4819-1.5669c0.0293-0.252,0.2427-0.4419,0.4966-0.4419
		s0.4673,0.1899,0.4966,0.4419c0.0581,0.4951,0.251,1.3359,0.4824,1.5669c0.2324,0.2324,1.0723,0.4253,1.5669,0.4824
		c0.252,0.0288,0.4424,0.2427,0.4424,0.4961c0,0.2539-0.1904,0.4678-0.4424,0.4971c-0.4956,0.0581-1.3359,0.251-1.5669,0.4819
		c-0.2324,0.2324-0.4253,1.0728-0.4824,1.5669c-0.0288,0.252-0.2427,0.4424-0.4961,0.4424
		C9.5332,13.4453,9.5332,13.4453,9.5332,13.4453z M8.8848,10.4575c0.1445,0.0786,0.2739,0.1685,0.377,0.2715
		s0.1929,0.2324,0.2715,0.377c0.0786-0.1445,0.1689-0.2739,0.272-0.377s0.2324-0.1929,0.3765-0.2715
		c-0.144-0.0791-0.2739-0.1689-0.3765-0.272c-0.103-0.103-0.1934-0.2324-0.272-0.3765c-0.0786,0.144-0.1685,0.2734-0.2715,0.3765
		S9.0293,10.3789,8.8848,10.4575z"/>
</g>
<rect x="-0.0139" fill="none" width="24" height="24"/>
</svg>
