<?xml version="1.0" encoding="utf-8"?>
<!-- Generator: Adobe Illustrator 18.1.0, SVG Export Plug-In . SVG Version: 6.00 Build 0)  -->
<svg version="1.1" id="Layer_1" xmlns="http://www.w3.org/2000/svg" xmlns:xlink="http://www.w3.org/1999/xlink" x="0px" y="0px"
	 width="24px" height="24px" viewBox="0 0 24 24" enable-background="new 0 0 24 24" xml:space="preserve">
<g>
	<path d="M19.7969,6.0029H4.1768c-0.6328,0-1.1475-0.5815-1.1475-1.2959V1.4053c0-0.6772,0.4609-1.4023,1.1475-1.4023h15.6201
		c0.6943,0,1.2324,0.7539,1.2324,1.4023V4.707C21.0293,5.3975,20.4531,6.0029,19.7969,6.0029z M19.7852,1.002L4.1768,1.0029
		C4.1411,1.0278,4.0293,1.2148,4.0293,1.4053V4.707c0,0.1777,0.105,0.2959,0.1475,0.2959h15.6201
		c0.0742,0,0.2324-0.1401,0.2324-0.2959V1.4053C20.0293,1.23,19.8613,1.022,19.7852,1.002z"/>
	<path d="M12.0293,14.8867c-0.2764,0-0.5-0.2236-0.5-0.5V11.75c0-1.4517,1.0352-2.6133,2.5166-2.8257l6.6855-0.9331
		c0.9902-0.1421,1.6572-0.8799,1.6572-1.8359V5.4761c0-1.0737-0.7998-1.8833-1.8594-1.8833c-0.2764,0-0.5-0.2236-0.5-0.5
		s0.2236-0.5,0.5-0.5c1.6035,0,2.8594,1.2666,2.8594,2.8833v0.6792c0,1.4512-1.0352,2.6133-2.5166,2.8262l-6.6855,0.9331
		c-0.9902,0.1416-1.6572,0.8794-1.6572,1.8354v2.6367C12.5293,14.6631,12.3057,14.8867,12.0293,14.8867z"/>
	<path d="M3.5293,3.5293h-1c-0.2764,0-0.5-0.2236-0.5-0.5s0.2236-0.5,0.5-0.5h1c0.2764,0,0.5,0.2236,0.5,0.5
		S3.8057,3.5293,3.5293,3.5293z"/>
	<path d="M13.5293,24.0029h-3c-0.2764,0-0.5-0.2236-0.5-0.5v-7c0-0.2764,0.2236-0.5,0.5-0.5h3c0.2764,0,0.5,0.2236,0.5,0.5v7
		C14.0293,23.7793,13.8057,24.0029,13.5293,24.0029z M11.0293,23.0029h2v-6h-2V23.0029z"/>
</g>
<rect x="0.0293" y="0.0001" fill="none" width="24" height="24"/>
</svg>
