<?xml version="1.0" encoding="utf-8"?>
<!-- Generator: Adobe Illustrator 18.1.0, SVG Export Plug-In . SVG Version: 6.00 Build 0)  -->
<svg version="1.1" id="Layer_1" xmlns="http://www.w3.org/2000/svg" xmlns:xlink="http://www.w3.org/1999/xlink" x="0px" y="0px"
	 width="24px" height="24px" viewBox="0 0 24 24" enable-background="new 0 0 24 24" xml:space="preserve">
<rect x="-0.015" y="-0.0293" fill="none" width="24" height="24"/>
<g>
	<g>
		<path d="M17.7666,23.9834H4.8223c-2.1548,0-3.9775-1.3457-4.5361-3.3477c-0.5166-1.8525,0.2515-3.6904,2.0083-4.8457
			c0.6108-3.0146,3.2031-5.1787,6.2461-5.1787c1.3926,0,2.7163,0.4595,3.8413,1.3311c2.4258-0.2168,4.4189,0.9814,5.2256,2.9756
			c2.6982-0.0801,5.0654,2.0361,5.0654,4.5322C22.6729,21.9072,20.4258,23.9834,17.7666,23.9834z M8.5405,11.6113
			c-2.6274,0-4.8569,1.9209-5.3013,4.5674c-0.0244,0.1436-0.1099,0.2695-0.2344,0.3447c-1.5151,0.917-2.1714,2.3535-1.7559,3.8428
			c0.3638,1.3027,1.6094,2.6172,3.5732,2.6172h12.9443c2.1172,0,3.9062-1.6182,3.9062-3.5332c0-2.04-2.0264-3.7393-4.3613-3.5127
			c-0.249,0.0137-0.4541-0.123-0.5254-0.3486c-0.4424-1.416-1.9111-2.9443-4.4961-2.6318
			c-0.1357,0.0186-0.2734-0.0225-0.3789-0.1104C10.9326,12.0381,9.7671,11.6113,8.5405,11.6113z"/>
	</g>
	<path d="M16.3311,14.3027c-0.0732,0-0.1475-0.0156-0.2178-0.0498c-0.248-0.1201-0.3525-0.4189-0.2324-0.668
		c0.1729-0.3564,0.2598-0.7402,0.2598-1.1406c0-1.4497-1.1797-2.6289-2.6289-2.6289c-1.1455,0-2.1514,0.7319-2.5024,1.8208
		c-0.085,0.2627-0.3677,0.4077-0.6294,0.3228c-0.2632-0.085-0.4072-0.3667-0.3228-0.6294c0.4854-1.5039,1.8735-2.5142,3.4546-2.5142
		c2.001,0,3.6289,1.6279,3.6289,3.6289c0,0.5527-0.1211,1.083-0.3594,1.5762C16.6953,14.1992,16.5166,14.3027,16.3311,14.3027z"/>
	<path d="M23.3408,12.9629h-3.8623c-0.2764,0-0.5-0.2236-0.5-0.5s0.2236-0.5,0.5-0.5h3.8623c0.2764,0,0.5,0.2236,0.5,0.5
		S23.6172,12.9629,23.3408,12.9629z"/>
	<path d="M13.5176,7.0034c-0.2764,0-0.5-0.2236-0.5-0.5V2.6411c0-0.2764,0.2236-0.5,0.5-0.5s0.5,0.2236,0.5,0.5v3.8623
		C14.0176,6.7798,13.7939,7.0034,13.5176,7.0034z"/>
	<path d="M17.8584,8.623c-0.1279,0-0.2559-0.0488-0.3535-0.1465c-0.1953-0.1953-0.1953-0.5117,0-0.707l2.7305-2.731
		c0.1953-0.1953,0.5117-0.1953,0.707,0s0.1953,0.5117,0,0.707l-2.7305,2.731C18.1143,8.5742,17.9863,8.623,17.8584,8.623z"/>
	<path d="M9.1787,8.623c-0.1279,0-0.2559-0.0488-0.3535-0.1465l-2.731-2.731c-0.1953-0.1953-0.1953-0.5117,0-0.707
		s0.5117-0.1953,0.707,0l2.731,2.731c0.1953,0.1953,0.1953,0.5117,0,0.707C9.4346,8.5742,9.3066,8.623,9.1787,8.623z"/>
</g>
</svg>
