<?xml version="1.0" encoding="utf-8"?>
<!-- Generator: Adobe Illustrator 18.1.0, SVG Export Plug-In . SVG Version: 6.00 Build 0)  -->
<svg version="1.1" id="Layer_1" xmlns="http://www.w3.org/2000/svg" xmlns:xlink="http://www.w3.org/1999/xlink" x="0px" y="0px"
	 width="24px" height="24px" viewBox="0 0 24 24" enable-background="new 0 0 24 24" xml:space="preserve">
<g>
	<path d="M17.5557,19.4912c-0.001,0-0.001,0-0.001,0c-3.0449,0-6.314-2.9355-8.8223-5.4941
		C5.0386,10.23,3.3403,7.3955,3.3872,5.0767c0.0391-1.9395,1.2778-3.104,2.3706-4.1318c0.1567-0.1479,0.3115-0.293,0.4595-0.4385
		c0.3643-0.353,0.9849-0.3423,1.3315,0.0132l4.4097,4.4966c0.1743,0.1758,0.27,0.4121,0.269,0.6636
		c-0.001,0.2524-0.1016,0.4888-0.2808,0.666L10.5981,7.667c0.0122,0.0527,0.1279,0.6021,0.9761,1.6841
		c1.2871,1.6421,2.9268,2.8687,3.5322,2.8687c0.0742-0.0391,0.6367-0.5894,1.0059-0.9502l0.2246-0.2197
		c0.4746-0.4634,1.042-0.4839,1.4297-0.0889l4.4268,4.4707c0.3545,0.3633,0.3623,0.9346,0.0186,1.3037
		c-0.0498,0.0518-1.3604,1.332-1.4199,1.3867l-0.0801,0.0742C19.7959,19.0547,18.7334,19.4912,17.5557,19.4912z M6.834,1.2188
		C6.7646,1.3701,6.605,1.5205,6.4429,1.6729C5.4473,2.6094,4.4175,3.5776,4.3867,5.0967c-0.0405,2.0044,1.6147,4.687,5.0596,8.2012
		c2.3711,2.418,5.4355,5.1934,8.1084,5.1934h0.001c0.9277,0,1.7373-0.335,2.4736-1.0254l0.084-0.0791
		c0.082-0.0762,1.3027-1.2686,1.374-1.3408l-4.3887-4.3398c-0.0137,0.0142-0.0361,0.0327-0.0625,0.0586l-0.2246,0.2197
		c-0.3779,0.3691-0.9521,0.9316-1.0215,0.9941c-0.0322,0.0303-0.1377,0.1055-0.1768,0.126
		c-0.1533,0.0771-0.3223,0.1152-0.5068,0.1152c-1.5664,0-4.5576-3.103-5.2759-4.772C9.5513,7.7979,9.5693,7.2993,9.8853,6.9663
		l1.3604-1.3335L6.834,1.2188z"/>
	<path d="M16.9385,23.751c-0.0381,0-0.0762-0.001-0.1143-0.002c-1.2695-0.0342-2.5596-0.6484-3.4512-1.6436L6.04,14.5811
		c-0.0942-0.0684-1.3433-0.999-2.5586,0.1436c-0.4536,0.4502-0.6719,0.9746-0.6724,1.5322c-0.001,0.5586,0.2158,1.084,0.6104,1.4785
		L6,20.3164c0.1953,0.1953,0.1953,0.5117,0,0.707s-0.5117,0.1953-0.707,0l-2.5806-2.5811c-0.584-0.584-0.9048-1.3604-0.9033-2.1865
		c0.001-0.8262,0.3237-1.6006,0.9087-2.1826c0.002-0.002,0.0732-0.0713,0.0752-0.0742c1.5068-1.4131,3.2227-0.7197,3.9194-0.1553
		l7.3911,7.5791c0.7266,0.8096,1.748,1.2998,2.7471,1.3262c0.5469,0.0176,1.3389-0.1084,2.0107-0.7803
		c1.9932-1.9941,1.1445-3.9941,1.1357-4.0137C19.8848,17.7021,20,17.4072,20.252,17.2959c0.25-0.1133,0.5479,0.002,0.6592,0.2549
		c0.0479,0.1074,1.1299,2.6514-1.3428,5.125C18.8643,23.3799,17.957,23.751,16.9385,23.751z"/>
</g>
<rect y="-0.002" fill="none" width="24" height="24"/>
</svg>
