<?xml version="1.0" encoding="utf-8"?>
<!-- Generator: Adobe Illustrator 18.1.0, SVG Export Plug-In . SVG Version: 6.00 Build 0)  -->
<svg version="1.1" id="Layer_1" xmlns="http://www.w3.org/2000/svg" xmlns:xlink="http://www.w3.org/1999/xlink" x="0px" y="0px"
	 width="24px" height="24px" viewBox="0 0 24 24" enable-background="new 0 0 24 24" xml:space="preserve">
<g>
	<path d="M23.5078,20.0156H0.5083c-0.2764,0-0.5-0.2236-0.5-0.5V3.5161c0-0.2764,0.2236-0.5,0.5-0.5h22.9995
		c0.2764,0,0.5,0.2236,0.5,0.5v15.9995C24.0078,19.792,23.7842,20.0156,23.5078,20.0156z M1.0083,19.0156h21.9995V4.0161H1.0083
		V19.0156z"/>
	<path d="M11.9976,20.0156c-0.2764,0-0.5-0.2236-0.5-0.5V3.5161c0-0.2764,0.2236-0.5,0.5-0.5c0.2759,0,0.5005,0.2236,0.5005,0.5
		v15.9995C12.498,19.792,12.2734,20.0156,11.9976,20.0156z"/>
	<path d="M11.9976,14.2471c-1.5127,0-2.7432-1.2305-2.7432-2.7427c0-1.5127,1.2305-2.7432,2.7432-2.7432
		c1.5132,0,2.7437,1.2305,2.7437,2.7432C14.7412,13.0166,13.5107,14.2471,11.9976,14.2471z M11.9976,9.7612
		c-0.9614,0-1.7432,0.7817-1.7432,1.7432c0,0.9604,0.7817,1.7427,1.7432,1.7427s1.7437-0.7822,1.7437-1.7427
		C13.7412,10.543,12.959,9.7612,11.9976,9.7612z"/>
	<path d="M22.0225,17.3174c-3.2061,0-5.8135-2.6074-5.8135-5.813s2.6074-5.8135,5.8135-5.8135c0.2764,0,0.5,0.2236,0.5,0.5
		s-0.2236,0.5-0.5,0.5c-2.6543,0-4.8135,2.1592-4.8135,4.8135c0,2.6538,2.1592,4.813,4.8135,4.813c0.2764,0,0.5,0.2236,0.5,0.5
		S22.2988,17.3174,22.0225,17.3174z"/>
	<path d="M23.0078,14.0156h-2.5c-0.2764,0-0.5-0.2236-0.5-0.5V9.5161c0-0.2764,0.2236-0.5,0.5-0.5h2.5c0.2764,0,0.5,0.2236,0.5,0.5
		s-0.2236,0.5-0.5,0.5h-2v2.9995h2c0.2764,0,0.5,0.2236,0.5,0.5S23.2842,14.0156,23.0078,14.0156z"/>
	<path d="M2.0156,17.3174c-0.2764,0-0.5-0.2236-0.5-0.5s0.2236-0.5,0.5-0.5c2.6543,0,4.8135-2.1592,4.8135-4.813
		c0-2.6543-2.1592-4.8135-4.8135-4.8135c-0.2764,0-0.5-0.2236-0.5-0.5s0.2236-0.5,0.5-0.5c3.2056,0,5.8135,2.6079,5.8135,5.8135
		S5.2212,17.3174,2.0156,17.3174z"/>
	<path d="M3.5083,14.0156h-2.5c-0.2764,0-0.5-0.2236-0.5-0.5s0.2236-0.5,0.5-0.5h2v-2.9995h-2c-0.2764,0-0.5-0.2236-0.5-0.5
		s0.2236-0.5,0.5-0.5h2.5c0.2764,0,0.5,0.2236,0.5,0.5v3.9995C4.0083,13.792,3.7847,14.0156,3.5083,14.0156z"/>
</g>
<rect x="-0.0061" fill="none" width="24" height="24"/>
</svg>
