<?xml version="1.0" encoding="utf-8"?>
<!-- Generator: Adobe Illustrator 18.1.1, SVG Export Plug-In . SVG Version: 6.00 Build 0)  -->
<svg version="1.1" id="Layer_1" xmlns="http://www.w3.org/2000/svg" xmlns:xlink="http://www.w3.org/1999/xlink" x="0px" y="0px"
	 width="24px" height="24px" viewBox="0 0 24 24" enable-background="new 0 0 24 24" xml:space="preserve">
<rect y="-0.2203" fill="none" width="24" height="24"/>
<g>
	<path d="M11.3928,3.532L9.7075,4.8672C9.4912,5.0391,9.4546,5.3535,9.626,5.5698c0.0986,0.1245,0.2451,0.1895,0.3926,0.1895
		c0.1084,0,0.2183-0.0352,0.3101-0.1079l2.5806-2.0444c0.0222-0.0176,0.0353-0.0428,0.054-0.0636
		c0.0205-0.0225,0.0421-0.0425,0.0583-0.0687c0.0186-0.0303,0.0283-0.0637,0.0402-0.0974c0.0084-0.0234,0.0233-0.043,0.0282-0.0682
		c0.0012-0.0062-0.0011-0.0119-0.0002-0.018c0.001-0.0065,0.0052-0.012,0.006-0.0186c0.0032-0.0292-0.0054-0.0573-0.0071-0.0862
		c-0.0018-0.031-0.0001-0.0619-0.0076-0.0915c-0.0074-0.0295-0.0228-0.0552-0.0355-0.0829
		c-0.0144-0.0316-0.0264-0.0634-0.047-0.0913c-0.0037-0.0049-0.0045-0.0114-0.0083-0.0162l-2.0444-2.5801
		c-0.1724-0.2168-0.4863-0.2534-0.7026-0.0815S9.9902,0.729,10.1616,0.9453l1.2512,1.5784
		C8.1856,2.1192,4.9957,2.5215,2.3071,3.6924C2.0542,3.8027,1.938,4.0972,2.0483,4.3506c0.082,0.188,0.2656,0.3003,0.459,0.3003
		c0.0664,0,0.1343-0.0132,0.1992-0.0415C5.2604,3.4968,8.3087,3.1268,11.3928,3.532z"/>
	<path d="M21.084,6.6455c-0.6153-0.6161-1.5351-0.7383-2.2802-0.3799C18.731,5.8862,18.5482,5.524,18.2549,5.231
		c-0.7793-0.7793-2.0488-0.7793-2.8281,0l-6.8371,6.8367l0.9631-3.7361C9.7256,7.5581,9.2412,6.771,8.4263,6.5015
		C7.7295,6.2725,6.8286,6.4888,6.3872,7.481c-0.0986,0.208-2.4219,5.1372-2.6914,8.7407c0.0005,0.0098,0.0508,0.9824-0.3364,1.9131
		c-0.1064,0.2549,0.0142,0.5479,0.269,0.6543c0.063,0.0254,0.1279,0.0381,0.1924,0.0381c0.1958,0,0.3813-0.1152,0.4614-0.3076
		c0.4756-1.1416,0.4155-2.2891,0.4111-2.2891c0.2549-3.3506,2.5737-8.2715,2.6021-8.3315c0.2422-0.5435,0.6133-0.5156,0.8169-0.4478
		c0.2803,0.0928,0.5308,0.3657,0.4678,0.6504l-1.4155,5.4883c-0.0054,0.0205-0.0007,0.0404-0.0034,0.0609
		c-0.0045,0.0341-0.0082,0.0667-0.0057,0.101c0.0024,0.0327,0.0097,0.0627,0.0183,0.0939c0.0082,0.0303,0.0168,0.059,0.0308,0.0876
		c0.0154,0.0315,0.0354,0.0584,0.0571,0.0861c0.0126,0.0161,0.0185,0.0353,0.0333,0.05c0.0078,0.0078,0.0181,0.0103,0.0262,0.0175
		c0.0248,0.022,0.053,0.0378,0.0823,0.0546c0.0301,0.0173,0.0588,0.0339,0.0912,0.0444c0.0099,0.0032,0.0171,0.0107,0.0273,0.0134
		c0.0204,0.0056,0.0403,0.0009,0.0607,0.0038c0.0222,0.003,0.0434,0.0128,0.0657,0.0128c0.0115,0,0.0223-0.0058,0.0337-0.0066
		c0.0348-0.0023,0.0668-0.01,0.0999-0.0194c0.0281-0.0078,0.0547-0.0156,0.0814-0.0284c0.0336-0.0162,0.0622-0.0374,0.0915-0.0608
		c0.015-0.0119,0.0331-0.0173,0.0471-0.0312l8.1318-8.1313c0.3906-0.3896,1.0234-0.3896,1.4141,0
		c0.3896,0.3901,0.3896,1.0244,0,1.4146l-5.3027,5.3027c-0.1953,0.1953-0.1953,0.5117,0,0.707s0.5117,0.1953,0.707,0l5.3027-5.3027
		l0.707-0.707c0.3896-0.3887,1.0244-0.3906,1.415,0c0.3896,0.3896,0.3896,1.0239,0,1.4141l-5.6572,5.6572l-1.0605,1.0605
		c-0.1953,0.1953-0.1953,0.5117,0,0.707c0.0977,0.0977,0.2256,0.1465,0.3535,0.1465s0.2559-0.0488,0.3535-0.1465l1.0605-1.0605
		c0.3789-0.377,1.0352-0.377,1.4141,0c0.1895,0.1885,0.293,0.4395,0.293,0.707c0,0.2666-0.1045,0.5176-0.293,0.707l-1.4141,1.4141
		l-0.3535,0.3535c-0.1953,0.1953-0.1953,0.5117,0,0.707c0.0977,0.0977,0.2256,0.1465,0.3535,0.1465s0.2559-0.0488,0.3535-0.1465
		l0.3535-0.3535c0.3789-0.377,1.0352-0.377,1.4141,0c0.4248,0.4248,0.0234,0.9521-0.2129,1.1924
		c-0.0205,0.0166-2.0742,1.6572-4.1592,2.3359c-0.2539,0.082-0.4971,0.1348-0.7285,0.1855
		c-0.3633,0.0801-0.7388,0.1621-1.0947,0.3379c-0.2476,0.1221-0.3496,0.4219-0.2275,0.6689
		c0.0874,0.1768,0.2646,0.2793,0.4492,0.2793c0.0742,0,0.1494-0.0166,0.2207-0.0518c0.2471-0.1211,0.5342-0.1846,0.8662-0.2568
		c0.2617-0.0576,0.5361-0.1191,0.8232-0.2119c2.2637-0.7373,4.3887-2.4365,4.5176-2.5439c0.8799-0.8799,0.9785-1.917,0.2529-2.6426
		c-0.2586-0.2586-0.5731-0.4232-0.9039-0.5101l0.1969-0.1969c0.3779-0.3779,0.5859-0.8799,0.5859-1.4141
		c0-0.5352-0.208-1.0371-0.5859-1.4141c-0.2549-0.2549-0.5754-0.4163-0.9149-0.4993l4.451-4.4514
		C21.8633,8.6934,21.8633,7.4248,21.084,6.6455z"/>
</g>
</svg>
