<?xml version="1.0" encoding="utf-8"?>
<!-- Generator: Adobe Illustrator 18.1.0, SVG Export Plug-In . SVG Version: 6.00 Build 0)  -->
<svg version="1.1" id="Layer_1" xmlns="http://www.w3.org/2000/svg" xmlns:xlink="http://www.w3.org/1999/xlink" x="0px" y="0px"
	 width="24px" height="24px" viewBox="0 0 24 24" enable-background="new 0 0 24 24" xml:space="preserve">
<rect x="-0.0008" y="-0.0146" fill="none" width="24" height="24"/>
<g>
	<path d="M11.9912,23.7646c-4.2432,0-7.6953-3.4561-7.6953-7.7031c0-1.75,1.2158-4.9106,3.6133-9.394
		c1.0356-1.936,3.5063-6.4399,4.082-6.4399c1.127,0,7.6963,12.5684,7.6963,15.834C19.6875,20.3086,16.2354,23.7646,11.9912,23.7646z
		 M11.9912,1.6064c-1.5029,2.3506-6.6953,11.248-6.6953,14.4551c0,3.6963,3.0034,6.7031,6.6953,6.7031
		c3.6924,0,6.6963-3.0068,6.6963-6.7031C18.6875,12.8516,13.4941,3.9561,11.9912,1.6064z"/>
	<path d="M10.5728,20.8896c-0.0405,0-0.0811-0.0049-0.1221-0.0146c-2.1929-0.5498-3.7246-2.5156-3.7246-4.7822
		c0-0.8057,0.3838-2.0264,1.1729-3.7314c0.1162-0.25,0.4136-0.3594,0.6636-0.2441c0.2505,0.1162,0.3599,0.4131,0.2437,0.6641
		c-0.8926,1.9287-1.0801,2.8652-1.0801,3.3115c0,1.8066,1.2202,3.374,2.9678,3.8115c0.2676,0.0674,0.4307,0.3389,0.3633,0.6064
		C11.0005,20.7383,10.7964,20.8896,10.5728,20.8896z"/>
</g>
</svg>
