<?xml version="1.0" encoding="utf-8"?>
<!-- Generator: Adobe Illustrator 18.1.0, SVG Export Plug-In . SVG Version: 6.00 Build 0)  -->
<svg version="1.1" id="Layer_1" xmlns="http://www.w3.org/2000/svg" xmlns:xlink="http://www.w3.org/1999/xlink" x="0px" y="0px"
	 width="24px" height="24px" viewBox="0 0 24 24" enable-background="new 0 0 24 24" xml:space="preserve">
<g>
	<path d="M11.8921,13.8926c-0.5068,0-1.0137-0.1777-1.4092-0.5322L2.5557,6.2319C2.3506,6.0474,2.3335,5.7314,2.5186,5.5259
		C2.7031,5.3203,3.019,5.3052,3.2246,5.4888l7.9268,7.1274c0.4082,0.3672,1.0732,0.3672,1.4814,0l7.9268-7.1274
		c0.2031-0.1846,0.5205-0.1694,0.7061,0.0371c0.1846,0.2056,0.168,0.5215-0.0381,0.7061l-7.9268,7.1284
		C12.9062,13.7148,12.3994,13.8926,11.8921,13.8926z"/>
	<path d="M2.8911,18.6426c-0.1436,0-0.2861-0.0615-0.3848-0.1807c-0.1768-0.2119-0.1479-0.5273,0.0645-0.7041l5.3101-4.417
		c0.2119-0.1768,0.5273-0.1475,0.7041,0.0654c0.1768,0.2119,0.1479,0.5273-0.0645,0.7041l-5.3101,4.417
		C3.1172,18.6045,3.0034,18.6426,2.8911,18.6426z"/>
	<path d="M21.0723,21c-0.2764,0-0.5-0.2236-0.5-0.5s0.2236-0.5,0.5-0.5c1.0469,0,1.9307-0.8184,1.9307-1.7881V5.791
		c0-1.0044-0.8125-1.791-1.8496-1.791H2.8452C1.812,4,1.0029,4.7866,1.0029,5.791v12.4209C1.0029,19.2148,1.812,20,2.8452,20h9.4712
		c0.2764,0,0.5,0.2236,0.5,0.5s-0.2236,0.5-0.5,0.5H2.8452c-1.5938,0-2.8423-1.2246-2.8423-2.7881V5.791
		C0.0029,4.2261,1.2515,3,2.8452,3h18.3081c1.5713,0,2.8496,1.252,2.8496,2.791v12.4209C24.0029,19.749,22.6885,21,21.0723,21z"/>
	<path d="M16.6934,23.8291c-2.9229,0-5.3013-2.3779-5.3013-5.3018s2.3784-5.3018,5.3013-5.3018
		c2.9238,0,5.3018,2.3779,5.3018,5.3018S19.6172,23.8291,16.6934,23.8291z M16.6934,14.2256c-2.3721,0-4.3018,1.9297-4.3018,4.3018
		s1.9297,4.3018,4.3018,4.3018s4.3018-1.9297,4.3018-4.3018S19.0654,14.2256,16.6934,14.2256z"/>
	<path d="M15.9102,20.8867c-0.1201,0-0.2412-0.043-0.3359-0.1299l-1.1465-1.04c-0.2041-0.1855-0.2197-0.502-0.0342-0.7061
		c0.1865-0.2041,0.5029-0.2188,0.7061-0.0342l0.8184,0.7422l2.8047-2.4258c0.208-0.1797,0.5234-0.1582,0.7051,0.0508
		c0.1807,0.209,0.1582,0.5244-0.0508,0.7051l-3.1396,2.7158C16.1436,20.8467,16.0264,20.8867,15.9102,20.8867z"/>
</g>
<rect fill="none" width="24" height="24"/>
</svg>
