<?xml version="1.0" encoding="utf-8"?>
<!-- Generator: Adobe Illustrator 18.1.0, SVG Export Plug-In . SVG Version: 6.00 Build 0)  -->
<svg version="1.1" id="Layer_1" xmlns="http://www.w3.org/2000/svg" xmlns:xlink="http://www.w3.org/1999/xlink" x="0px" y="0px"
	 width="24px" height="24px" viewBox="0 0 24 24" enable-background="new 0 0 24 24" xml:space="preserve">
<g>
	<path d="M21.541,5.5c-0.2764,0-0.5-0.2236-0.5-0.5V3h-18v2c0,0.2764-0.2236,0.5-0.5,0.5s-0.5-0.2236-0.5-0.5V2.5
		c0-0.2764,0.2236-0.5,0.5-0.5h19c0.2764,0,0.5,0.2236,0.5,0.5V5C22.041,5.2764,21.8174,5.5,21.541,5.5z"/>
	<path d="M21.1631,8.1128c-0.2549,0-0.4727-0.1943-0.4971-0.4536c-0.0254-0.2754,0.1768-0.5186,0.4521-0.5444
		c1.1143-0.103,1.9229-1.0308,1.9229-2.2061v-1.792C23.041,1.8901,22.1553,1,20.9346,1H3.1377C1.9229,1,1.041,1.8901,1.041,3.1167
		v1.792c0,1.1514,0.8013,2.0776,1.9048,2.2017c0.2744,0.0312,0.4717,0.2788,0.4409,0.5532
		C3.3555,7.9375,3.1099,8.1318,2.8335,8.1045C1.2417,7.9248,0.041,6.5508,0.041,4.9087v-1.792C0.041,1.3398,1.3721,0,3.1377,0
		h17.7969c1.7705,0,3.1064,1.3398,3.1064,3.1167v1.792c0,1.6758-1.2168,3.0522-2.8311,3.2021
		C21.1943,8.1123,21.1787,8.1128,21.1631,8.1128z"/>
	<path d="M7.3491,21.999c-0.9189,0-1.8032-0.3818-2.4263-1.0479c-0.6196-0.6621-0.9272-1.5215-0.8662-2.4209L4.77,2.478
		c0.0122-0.2764,0.2598-0.4902,0.5215-0.4775C5.5674,2.0127,5.7812,2.2461,5.769,2.522L5.0552,18.5869
		c-0.0425,0.6309,0.1699,1.2236,0.5981,1.6807c0.4409,0.4717,1.043,0.7314,1.6958,0.7314c0.001,0,0.002,0,0.0029,0l9.2876-0.0127
		c0.6553-0.001,1.2578-0.2617,1.6982-0.7354c0.4268-0.459,0.6367-1.0527,0.5928-1.6719L18.1592,2.5239
		c-0.0137-0.2759,0.1992-0.5103,0.4746-0.5234c0.3037-0.0156,0.5107,0.2002,0.5234,0.4756l0.7715,16.0435
		c0.0635,0.8877-0.2412,1.748-0.8584,2.4121c-0.6221,0.6689-1.5078,1.0537-2.4287,1.0547L7.353,21.999
		C7.3521,21.999,7.3506,21.999,7.3491,21.999z"/>
	<path d="M12.9277,21.9893c-0.2764,0-0.5-0.2236-0.5-0.5V2.5c0-0.2764,0.2236-0.5,0.5-0.5s0.5,0.2236,0.5,0.5v18.9893
		C13.4277,21.7656,13.2041,21.9893,12.9277,21.9893z"/>
	<path d="M16.2637,21.9893c-0.2705,0-0.4932-0.2158-0.5-0.4873L15.2695,2.5132C15.2627,2.2368,15.4805,2.0073,15.7568,2
		c0.3057-0.0015,0.5059,0.2119,0.5127,0.4868l0.4941,18.9897c0.0068,0.2754-0.2109,0.5049-0.4873,0.5127
		C16.2725,21.9893,16.2676,21.9893,16.2637,21.9893z"/>
</g>
<rect x="-0.0137" fill="none" width="24" height="24"/>
</svg>
