<?xml version="1.0" encoding="utf-8"?>
<!-- Generator: Adobe Illustrator 18.1.0, SVG Export Plug-In . SVG Version: 6.00 Build 0)  -->
<svg version="1.1" id="Layer_1" xmlns="http://www.w3.org/2000/svg" xmlns:xlink="http://www.w3.org/1999/xlink" x="0px" y="0px"
	 width="24px" height="24px" viewBox="0 0 24 24" enable-background="new 0 0 24 24" xml:space="preserve">
<g>
	<path d="M11.0171,15.8809c-0.5381,0-0.9756-0.4375-0.9756-0.9746V9.1899c0-0.5376,0.4375-0.9751,0.9756-0.9751
		c0.2046,0,0.4014,0.0645,0.5698,0.1865l3.9365,2.8579c0.251,0.1831,0.4014,0.478,0.4004,0.7886
		c0,0.3115-0.1494,0.6055-0.4004,0.7871l-3.936,2.8594C11.4209,15.8164,11.2231,15.8809,11.0171,15.8809z M10.9995,9.2109
		l0.0415,5.6445l3.8945-2.8291L10.9995,9.2109z"/>
	<path d="M11.9819,20.6543c-7.8306,0-8.9922-0.6963-9.4297-0.959c-2.0586-1.2363-2.354-5.6904-2.3857-7.5479
		c0.0249-1.5259,0.2695-6.5479,2.3872-7.8203c0.437-0.2632,1.5996-0.9644,9.4277-0.9644c7.2754,0,9.042,0.5991,9.7676,1.1211
		c1.8428,1.3276,2.0547,5.7822,2.0596,7.6362c-0.0059,2.2227-0.2822,6.1387-2.0596,7.418
		C21.0283,20.0576,19.2666,20.6543,11.9819,20.6543z M11.9814,4.3628c-3.4443,0-7.7866,0.1426-8.9121,0.8213
		c-1.2485,0.75-1.855,4.0376-1.9028,6.9624c0.0459,2.7021,0.5693,5.8926,1.9004,6.6914c1.125,0.6748,5.4692,0.8164,8.915,0.8164
		c5.2397,0,8.3286-0.3125,9.1831-0.9277c1.0195-0.7344,1.6338-3.2031,1.6436-6.6064c-0.0078-2.606-0.4424-5.9595-1.6436-6.8247
		C20.3047,4.6768,17.2148,4.3628,11.9814,4.3628z"/>
</g>
<rect x="-0.0137" y="0.0002" fill="none" width="24" height="24"/>
</svg>
