<?xml version="1.0" encoding="utf-8"?>
<!-- Generator: Adobe Illustrator 18.1.0, SVG Export Plug-In . SVG Version: 6.00 Build 0)  -->
<svg version="1.1" id="Layer_1" xmlns="http://www.w3.org/2000/svg" xmlns:xlink="http://www.w3.org/1999/xlink" x="0px" y="0px"
	 width="24px" height="24px" viewBox="0 0 24 24" enable-background="new 0 0 24 24" xml:space="preserve">
<g>
	<path d="M22.4951,23.958H1.4761c-0.2764,0-0.5-0.2236-0.5-0.5V9.4902c0-0.2764,0.2236-0.5,0.5-0.5h21.019
		c0.2764,0,0.5,0.2236,0.5,0.5V23.458C22.9951,23.7344,22.7715,23.958,22.4951,23.958z M1.9761,22.958h20.019V9.9902H1.9761V22.958z
		"/>
	<path d="M23.5381,9.9902H0.4321c-0.2764,0-0.5-0.2236-0.5-0.5V5.5029c0-0.2764,0.2236-0.5,0.5-0.5s0.5,0.2236,0.5,0.5v3.4873
		h22.106V5.5029c0-0.2764,0.2236-0.5,0.5-0.5s0.5,0.2236,0.5,0.5v3.9873C24.0381,9.7666,23.8145,9.9902,23.5381,9.9902z"/>
	<path d="M23.5381,6.0029c-0.2148,0-0.4141-0.1396-0.4785-0.356l-1.3955-4.6387H2.3057L0.9111,5.647
		c-0.0801,0.2642-0.3594,0.4131-0.623,0.335c-0.2642-0.0796-0.4141-0.3584-0.335-0.623l1.502-4.9946
		c0.064-0.2114,0.2583-0.356,0.479-0.356h20.1021c0.2207,0,0.415,0.1445,0.4785,0.356l1.502,4.9946
		c0.0801,0.2646-0.0703,0.5435-0.335,0.623C23.6338,5.9961,23.5859,6.0029,23.5381,6.0029z"/>
	<path d="M15.4619,13.9893H8.5078c-0.2764,0-0.5-0.2236-0.5-0.5v-3.999c0-0.2764,0.2236-0.5,0.5-0.5h6.9541
		c0.2764,0,0.5,0.2236,0.5,0.5v3.999C15.9619,13.7656,15.7383,13.9893,15.4619,13.9893z M9.0078,12.9893h5.9541v-2.999H9.0078
		V12.9893z"/>
	<path d="M23.5381,6.0029H0.4321c-0.2764,0-0.5-0.2236-0.5-0.5s0.2236-0.5,0.5-0.5h23.106c0.2764,0,0.5,0.2236,0.5,0.5
		S23.8145,6.0029,23.5381,6.0029z"/>
</g>
<rect x="-0.0137" fill="none" width="24" height="24"/>
</svg>
