<?xml version="1.0" encoding="utf-8"?>
<!-- Generator: Adobe Illustrator 18.1.0, SVG Export Plug-In . SVG Version: 6.00 Build 0)  -->
<svg version="1.1" id="Layer_1" xmlns="http://www.w3.org/2000/svg" xmlns:xlink="http://www.w3.org/1999/xlink" x="0px" y="0px"
	 width="24px" height="24px" viewBox="0 0 24 24" enable-background="new 0 0 24 24" xml:space="preserve">
<g>
	<path d="M9.0117,23.8271c-0.4287,0-0.8447-0.1553-1.1768-0.4502c-0.9238-0.8223-1.3926-1.6445-1.3926-2.4453
		c0-0.8301,0.4326-1.9873,1.3232-3.5371c0.3623-0.7109,0.7456-2.2285,0.9429-3.0752c-1.3604-0.0049-3.2227-0.082-4.8164-0.9688
		c-1.0728-0.6045-1.7744-1.0898-1.7744-2.29c0-0.7236,0.5786-1.4097,0.9692-1.7905C2.8486,8.855,2.7275,8.4507,2.7275,8.0679
		c0-1.5176,0.4487-1.8853,1.5352-2.3203C4.2432,5.5249,4.231,5.2856,4.231,4.9292c0-1.5156,1.0791-1.9814,2.0474-2.0938
		c-0.0142-0.106-0.0244-0.1909-0.0244-0.2109c0-0.7559,0.2881-2.5137,2.9551-2.5137c0.1104,0,1.272,0.0049,2.417,0.0146
		c3.6221,0.0317,5.5762,2.1533,6.5146,3.1729l0.0918,0.0991c0.041,0.0444,0.0977,0.0688,0.1592,0.0688h2.4502
		c0.2061,0,0.3906,0.1265,0.4658,0.3184c1.1699,3.0034,1.1377,5.9287-0.0938,8.6958c-0.0811,0.1807-0.2598,0.2969-0.457,0.2969
		H18.749c-0.4844,0-0.834,0.0771-1.04,0.2295c-0.2832,0.2051-1.3682,1.6221-2.0156,2.4697
		c-0.5273,0.6895-0.9443,1.2344-1.1504,1.4531l-1.9404,2.0654c-0.896,0.9531-1.522,2.1318-1.8105,3.4092
		c-0.1436,0.6357-0.6011,1.1348-1.2236,1.334C9.3843,23.7979,9.1968,23.8271,9.0117,23.8271z M9.333,13.3184
		c0.1504,0,0.293,0.0684,0.3882,0.1846c0.0947,0.1172,0.1318,0.2705,0.1011,0.418c-0.0239,0.1143-0.5908,2.7998-1.1777,3.9502
		c-0.9956,1.7344-1.2021,2.6191-1.2021,3.0605c0,0.4951,0.3657,1.082,1.0576,1.6973c0.21,0.1885,0.4888,0.2461,0.7627,0.1572
		c0.2817-0.0898,0.4888-0.3154,0.5537-0.6025c0.3276-1.4512,1.0391-2.791,2.0576-3.874l1.9404-2.0645
		c0.1709-0.1816,0.6152-0.7627,1.085-1.377c1.0996-1.4375,1.8486-2.4004,2.2188-2.668c0.3828-0.2832,0.918-0.4229,1.6309-0.4229
		h1.6777c0.9531-2.3291,0.9756-4.7856,0.0684-7.311h-2.1035c-0.3398,0-0.666-0.1426-0.8945-0.3906l-0.0918-0.1001
		c-0.9082-0.9863-2.5986-2.8223-5.7881-2.8501C10.4761,1.1157,9.3193,1.1108,9.209,1.1108c-1.3154,0-1.9551,0.4951-1.9551,1.5137
		C7.2563,2.647,7.2651,2.7114,7.2769,2.7891l0.9971,0.0015c0.2764,0.0005,0.5,0.2246,0.4995,0.5005s-0.2241,0.4995-0.5,0.4995
		H8.2729l-1.4067-0.002l-0.355,0.0288C5.3296,3.9126,5.231,4.4189,5.231,4.9292c0,0.2681,0.0078,0.4629,0.0195,0.6284l2.5386-0.1035
		c0.2773-0.0244,0.5088,0.2026,0.52,0.479c0.0112,0.2759-0.2031,0.5088-0.479,0.52L4.8999,6.5723
		C3.7725,7,3.7275,7.0391,3.7275,8.0679c0,0.2236,0.0942,0.4937,0.2729,0.7822l3.1528-0.1558
		C7.417,8.6694,7.6636,8.8936,7.6772,9.1694C7.6909,9.4448,7.478,9.6797,7.2021,9.6934L3.9253,9.855
		c-0.3682,0.3237-0.8076,0.8511-0.8076,1.2056c0,0.5874,0.2124,0.8257,1.2632,1.418c1.5254,0.8477,3.4355,0.8555,4.7251,0.8398
		H9.333z"/>
</g>
<rect x="0.0293" y="-0.0001" fill="none" width="24" height="24"/>
</svg>
