<?xml version="1.0" encoding="utf-8"?>
<!-- Generator: Adobe Illustrator 18.1.0, SVG Export Plug-In . SVG Version: 6.00 Build 0)  -->
<svg version="1.1" id="Layer_1" xmlns="http://www.w3.org/2000/svg" xmlns:xlink="http://www.w3.org/1999/xlink" x="0px" y="0px"
	 width="24px" height="24px" viewBox="0 0 24 24" enable-background="new 0 0 24 24" xml:space="preserve">
<g>
	<path d="M21.1162,24H2.8833C1.2935,24,0,22.707,0,21.1172V2.8833C0,1.2935,1.2935,0,2.8833,0h18.2329
		C22.7061,0,24,1.2935,24,2.8833v18.2339C24,22.707,22.7061,24,21.1162,24z M2.8833,1C1.8447,1,1,1.8447,1,2.8833v18.2339
		C1,22.1553,1.8447,23,2.8833,23h18.2329C22.1553,23,23,22.1553,23,21.1172V2.8833C23,1.8447,22.1553,1,21.1162,1H2.8833z"/>
	<path d="M6.4966,9.8076c-1.4141,0-2.5645-1.1504-2.5645-2.5645s1.1504-2.5645,2.5645-2.5645S9.061,5.8291,9.061,7.2432
		S7.9106,9.8076,6.4966,9.8076z M6.4966,5.6787c-0.8628,0-1.5645,0.7017-1.5645,1.5645s0.7017,1.5645,1.5645,1.5645
		S8.061,8.106,8.061,7.2432S7.3594,5.6787,6.4966,5.6787z"/>
	<path d="M12.0928,18.5625c-1.4141,0-2.5645-1.1504-2.5645-2.5645s1.1504-2.5645,2.5645-2.5645s2.5645,1.1504,2.5645,2.5645
		S13.5068,18.5625,12.0928,18.5625z M12.0928,14.4336c-0.8628,0-1.5645,0.7021-1.5645,1.5645s0.7017,1.5645,1.5645,1.5645
		c0.8623,0,1.5645-0.7021,1.5645-1.5645S12.9551,14.4336,12.0928,14.4336z"/>
	<path d="M17.4795,20.0322c-0.2764,0-0.5-0.2236-0.5-0.5v-7.7231c0-0.2764,0.2236-0.5,0.5-0.5s0.5,0.2236,0.5,0.5v7.7231
		C17.9795,19.8086,17.7559,20.0322,17.4795,20.0322z"/>
	<path d="M17.4795,8.1802c-0.2764,0-0.5-0.2236-0.5-0.5v-3.249c0-0.2764,0.2236-0.5,0.5-0.5s0.5,0.2236,0.5,0.5v3.249
		C17.9795,7.9565,17.7559,8.1802,17.4795,8.1802z"/>
	<path d="M17.4795,12.3086c-1.4141,0-2.5645-1.1499-2.5645-2.564s1.1504-2.5645,2.5645-2.5645s2.5645,1.1504,2.5645,2.5645
		S18.8936,12.3086,17.4795,12.3086z M17.4795,8.1802c-0.8623,0-1.5645,0.7017-1.5645,1.5645s0.7021,1.5645,1.5645,1.5645
		s1.5645-0.7017,1.5645-1.5645S18.3418,8.1802,17.4795,8.1802z"/>
	<path d="M6.4966,20.0322c-0.2764,0-0.5-0.2236-0.5-0.5V9.3076c0-0.2764,0.2236-0.5,0.5-0.5s0.5,0.2236,0.5,0.5v10.2246
		C6.9966,19.8086,6.7729,20.0322,6.4966,20.0322z"/>
	<path d="M6.4966,5.6787c-0.2764,0-0.5-0.2236-0.5-0.5V4.4312c0-0.2764,0.2236-0.5,0.5-0.5s0.5,0.2236,0.5,0.5v0.7476
		C6.9966,5.4551,6.7729,5.6787,6.4966,5.6787z"/>
	<path d="M12.0928,20.0322c-0.2764,0-0.5-0.2236-0.5-0.5v-1.4697c0-0.2764,0.2236-0.5,0.5-0.5s0.5,0.2236,0.5,0.5v1.4697
		C12.5928,19.8086,12.3691,20.0322,12.0928,20.0322z"/>
	<path d="M12.0928,14.4336c-0.2764,0-0.5-0.2236-0.5-0.5V4.4312c0-0.2764,0.2236-0.5,0.5-0.5s0.5,0.2236,0.5,0.5v9.5024
		C12.5928,14.21,12.3691,14.4336,12.0928,14.4336z"/>
</g>
<rect fill="none" width="24" height="24"/>
</svg>
