<?xml version="1.0" encoding="utf-8"?>
<!-- Generator: Adobe Illustrator 18.1.0, SVG Export Plug-In . SVG Version: 6.00 Build 0)  -->
<svg version="1.1" id="Layer_1" xmlns="http://www.w3.org/2000/svg" xmlns:xlink="http://www.w3.org/1999/xlink" x="0px" y="0px"
	 width="24px" height="24px" viewBox="0 0 24 24" enable-background="new 0 0 24 24" xml:space="preserve">
<g>
	<path d="M17.5439,22.0869c-0.0498,0-0.0996-0.002-0.1494-0.0059c-1.3867-0.0078-8.5977-0.0488-12.4668-0.1406
		c-3.6821-0.0879-4.6992-4.6338-4.7407-4.8271c-0.0322-0.1494,0.0059-0.3057,0.1035-0.4229
		c0.0977-0.1182,0.2568-0.1719,0.397-0.1816l13.0527,0.3018c0.1875,0.0049,0.3574,0.1143,0.4395,0.2832
		c1.2041,2.5107,2.3613,3.9062,3.292,3.9873c0.0947,0.001,0.1494,0.001,0.1592,0.001c0.0312-0.002,0.0615-0.0068,0.0908-0.0117
		c2.416-0.4414,4.2969-9.4014,5.0576-17.7295L9.0083,2.9375C8.856,4.7783,8.2012,11.356,6.3696,15.2871
		c-0.1157,0.251-0.4136,0.3613-0.6641,0.2422c-0.2505-0.1162-0.3589-0.4141-0.2422-0.6641
		c2.0205-4.3369,2.5781-12.394,2.5835-12.4746c0.0181-0.2681,0.2383-0.4624,0.5137-0.4668l14.7783,0.4326
		c0.1377,0.0044,0.2676,0.0649,0.3584,0.1675c0.0918,0.1025,0.1367,0.2388,0.125,0.3755
		c-0.3721,4.3228-1.8955,18.4189-5.9209,19.1543C17.7822,22.0752,17.6631,22.0869,17.5439,22.0869z M1.3477,17.5244
		c0.3838,1.1191,1.4243,3.3643,3.6035,3.416c2.9434,0.0703,7.8281,0.1104,10.5967,0.1289c-0.7002-0.71-1.4092-1.7969-2.1357-3.2656
		L1.3477,17.5244z"/>
	<path d="M19.1133,7.5879c-0.0059,0-0.0117,0-0.0176-0.0005l-7.5376-0.2651c-0.2759-0.0098-0.4917-0.2412-0.4819-0.5171
		c0.0098-0.2764,0.2686-0.5054,0.5171-0.4819l7.5376,0.2651c0.2764,0.0098,0.4922,0.2412,0.4824,0.5171
		C19.6035,7.3755,19.3818,7.5879,19.1133,7.5879z"/>
	<path d="M18.0674,10.98c-0.0059,0-0.0117,0-0.0176-0.0005l-7.0459-0.2476c-0.2759-0.0093-0.4917-0.2412-0.4819-0.5171
		c0.0093-0.2764,0.2529-0.4951,0.5171-0.4819l7.0459,0.2476c0.2764,0.0093,0.4922,0.2412,0.4824,0.5171
		C18.5576,10.7676,18.3359,10.98,18.0674,10.98z"/>
	<path d="M14.1504,14.2959c-0.0059,0-0.0117,0-0.0176,0l-4.021-0.1416c-0.2759-0.0098-0.4917-0.2412-0.4819-0.5176
		c0.0093-0.2764,0.2588-0.4766,0.5171-0.4824l4.021,0.1416c0.2764,0.0098,0.4922,0.2412,0.4824,0.5176
		C14.6406,14.083,14.4189,14.2959,14.1504,14.2959z"/>
</g>
<rect fill="none" width="24" height="24"/>
</svg>
