<?xml version="1.0" encoding="utf-8"?>
<!-- Generator: Adobe Illustrator 18.1.0, SVG Export Plug-In . SVG Version: 6.00 Build 0)  -->
<svg version="1.1" id="Layer_1" xmlns="http://www.w3.org/2000/svg" xmlns:xlink="http://www.w3.org/1999/xlink" x="0px" y="0px"
	 width="24px" height="24px" viewBox="0 0 24 24" enable-background="new 0 0 24 24" xml:space="preserve">
<g>
	<path d="M21.1406,24H2.8711c-1.5801,0-2.8652-1.2852-2.8652-2.8652V2.8652C0.0059,1.2852,1.291,0,2.8711,0h18.2695
		c1.5801,0,2.8652,1.2852,2.8652,2.8652v18.2695C24.0059,22.7148,22.7207,24,21.1406,24z M2.8711,1
		C1.8428,1,1.0059,1.8369,1.0059,2.8652v18.2695C1.0059,22.1631,1.8428,23,2.8711,23h18.2695c1.0283,0,1.8652-0.8369,1.8652-1.8652
		V2.8652C23.0059,1.8369,22.1689,1,21.1406,1H2.8711z"/>
	<path d="M6.0059,7.9937c-1.0972,0-1.9897-0.8926-1.9897-1.9897c0-1.0967,0.8926-1.9893,1.9897-1.9893
		c1.0967,0,1.9893,0.8926,1.9893,1.9893C7.9951,7.1011,7.1025,7.9937,6.0059,7.9937z M6.0059,5.0146
		c-0.5459,0-0.9897,0.4438-0.9897,0.9893c0,0.5459,0.4438,0.9897,0.9897,0.9897c0.5454,0,0.9893-0.4438,0.9893-0.9897
		C6.9951,5.4585,6.5513,5.0146,6.0059,5.0146z"/>
	<path d="M6.0059,13.9941c-1.0972,0-1.9897-0.8926-1.9897-1.9893c0-1.0977,0.8926-1.9902,1.9897-1.9902
		c1.0967,0,1.9893,0.8926,1.9893,1.9902C7.9951,13.1016,7.1025,13.9941,6.0059,13.9941z M6.0059,11.0146
		c-0.5459,0-0.9897,0.4443-0.9897,0.9902s0.4438,0.9893,0.9897,0.9893c0.5454,0,0.9893-0.4434,0.9893-0.9893
		S6.5513,11.0146,6.0059,11.0146z"/>
	<path d="M6.0059,19.9941c-1.0972,0-1.9897-0.8926-1.9897-1.9893s0.8926-1.9893,1.9897-1.9893c1.0967,0,1.9893,0.8926,1.9893,1.9893
		S7.1025,19.9941,6.0059,19.9941z M6.0059,17.0156c-0.5459,0-0.9897,0.4434-0.9897,0.9893s0.4438,0.9893,0.9897,0.9893
		c0.5454,0,0.9893-0.4434,0.9893-0.9893S6.5513,17.0156,6.0059,17.0156z"/>
	<path d="M12.0059,7.9937c-1.0967,0-1.9893-0.8926-1.9893-1.9897c0-1.0967,0.8926-1.9893,1.9893-1.9893
		c1.0977,0,1.9902,0.8926,1.9902,1.9893C13.9961,7.1011,13.1035,7.9937,12.0059,7.9937z M12.0059,5.0146
		c-0.5454,0-0.9893,0.4438-0.9893,0.9893c0,0.5459,0.4438,0.9897,0.9893,0.9897c0.5459,0,0.9902-0.4438,0.9902-0.9897
		C12.9961,5.4585,12.5518,5.0146,12.0059,5.0146z"/>
	<path d="M12.0059,13.9941c-1.0967,0-1.9893-0.8926-1.9893-1.9893c0-1.0977,0.8926-1.9902,1.9893-1.9902
		c1.0977,0,1.9902,0.8926,1.9902,1.9902C13.9961,13.1016,13.1035,13.9941,12.0059,13.9941z M12.0059,11.0146
		c-0.5454,0-0.9893,0.4443-0.9893,0.9902s0.4438,0.9893,0.9893,0.9893c0.5459,0,0.9902-0.4434,0.9902-0.9893
		S12.5518,11.0146,12.0059,11.0146z"/>
	<path d="M12.0059,19.9941c-1.0967,0-1.9893-0.8926-1.9893-1.9893s0.8926-1.9893,1.9893-1.9893
		c1.0977,0,1.9902,0.8926,1.9902,1.9893S13.1035,19.9941,12.0059,19.9941z M12.0059,17.0156c-0.5454,0-0.9893,0.4434-0.9893,0.9893
		s0.4438,0.9893,0.9893,0.9893c0.5459,0,0.9902-0.4434,0.9902-0.9893S12.5518,17.0156,12.0059,17.0156z"/>
	<path d="M18.0068,7.9937c-1.0977,0-1.9902-0.8926-1.9902-1.9897c0-1.0967,0.8926-1.9893,1.9902-1.9893
		c1.0967,0,1.9893,0.8926,1.9893,1.9893C19.9961,7.1011,19.1035,7.9937,18.0068,7.9937z M18.0068,5.0146
		c-0.5459,0-0.9902,0.4438-0.9902,0.9893c0,0.5459,0.4443,0.9897,0.9902,0.9897s0.9893-0.4438,0.9893-0.9897
		C18.9961,5.4585,18.5527,5.0146,18.0068,5.0146z"/>
	<path d="M18.0068,13.9941c-1.0977,0-1.9902-0.8926-1.9902-1.9893c0-1.0977,0.8926-1.9902,1.9902-1.9902
		c1.0967,0,1.9893,0.8926,1.9893,1.9902C19.9961,13.1016,19.1035,13.9941,18.0068,13.9941z M18.0068,11.0146
		c-0.5459,0-0.9902,0.4443-0.9902,0.9902s0.4443,0.9893,0.9902,0.9893s0.9893-0.4434,0.9893-0.9893S18.5527,11.0146,18.0068,11.0146
		z"/>
	<path d="M18.0068,19.9941c-1.0977,0-1.9902-0.8926-1.9902-1.9893s0.8926-1.9893,1.9902-1.9893
		c1.0967,0,1.9893,0.8926,1.9893,1.9893S19.1035,19.9941,18.0068,19.9941z M18.0068,17.0156c-0.5459,0-0.9902,0.4434-0.9902,0.9893
		s0.4443,0.9893,0.9902,0.9893s0.9893-0.4434,0.9893-0.9893S18.5527,17.0156,18.0068,17.0156z"/>
</g>
<rect fill="none" width="24" height="24"/>
</svg>
