<?xml version="1.0" encoding="utf-8"?>
<!-- Generator: Adobe Illustrator 18.1.0, SVG Export Plug-In . SVG Version: 6.00 Build 0)  -->
<svg version="1.1" id="Layer_1" xmlns="http://www.w3.org/2000/svg" xmlns:xlink="http://www.w3.org/1999/xlink" x="0px" y="0px"
	 width="24px" height="24px" viewBox="0 0 24 24" enable-background="new 0 0 24 24" xml:space="preserve">
<g>
	<path d="M6.7124,8.9854c-0.0259,0-0.0522-0.002-0.0791-0.0063c-0.2729-0.0435-0.4585-0.2998-0.415-0.5723
		c0.0874-0.5493,0.5986-3.2925,2.0796-3.3511c0.6226-0.0273,1.2329,0.2852,1.7744,0.5581c0.2788,0.1411,0.75,0.377,0.8843,0.3457
		c0.6401-1.144,1.8491-1.5063,3.5894-1.7246c0.6943-0.0869,0.835-0.3691,0.9961-0.6958c0.1572-0.3179,0.4824-0.9814,1.4668-0.5483
		c1.3926,0.6123,3.5713,4.5337,3.6738,5.4385c0.0303,0.2744-0.167,0.522-0.4414,0.5532c-0.2705,0.0298-0.5215-0.167-0.5527-0.4409
		c-0.0781-0.6992-2.1426-4.2222-3.082-4.6353c-0.0459-0.02-0.0811-0.0327-0.1074-0.0415c-0.0205,0.0366-0.042,0.0815-0.0605,0.1187
		c-0.1885,0.3809-0.54,1.0898-1.7676,1.2437c-1.7158,0.2148-2.4609,0.5332-2.8506,1.2163c-0.5205,0.9111-1.5317,0.4009-2.1987,0.063
		C9.188,6.2876,8.6904,6.0332,8.3379,6.0547C7.916,6.0713,7.3921,7.3936,7.2056,8.564C7.1665,8.8101,6.9541,8.9854,6.7124,8.9854z"
		/>
	<path d="M20.4297,21.9854c-1.3623,0-2.4707-1.1084-2.4707-2.4697c0-1.3623,1.1084-2.4707,2.4707-2.4707
		c1.3613,0,2.4697,1.1084,2.4697,2.4707C22.8994,20.877,21.791,21.9854,20.4297,21.9854z M20.4297,18.0449
		c-0.8105,0-1.4707,0.6602-1.4707,1.4707s0.6602,1.4697,1.4707,1.4697s1.4697-0.6592,1.4697-1.4697S21.2402,18.0449,20.4297,18.0449
		z"/>
	<path d="M8.6787,21.9854H7.3081c-0.2188,0-0.4121-0.1426-0.4771-0.3506L2.8833,8.9854H1.0054c-0.2764,0-0.5-0.2236-0.5-0.5
		s0.2236-0.5,0.5-0.5H3.251c0.2188,0,0.4121,0.1421,0.4775,0.3511l3.9473,12.6489h0.6816l1.8169-3.9834
		c0.1147-0.25,0.4106-0.3604,0.6626-0.2471c0.2515,0.1152,0.3618,0.4111,0.2476,0.6631l-1.9507,4.2754
		C9.0522,21.8711,8.8745,21.9854,8.6787,21.9854z"/>
	<path d="M13.4863,18.084c-4.4048,0-8.4028-2.8906-8.6021-3.0361c-0.2227-0.1631-0.2705-0.4766-0.1074-0.6992
		c0.1636-0.2217,0.4761-0.2705,0.6987-0.1074c0.0542,0.0391,5.4863,3.9551,10.2949,2.5205c2.4004-0.7168,4.2773-2.6592,5.585-5.7764
		H3.875c-0.2764,0-0.5-0.2236-0.5-0.5s0.2236-0.5,0.5-0.5h18.2168c0.1641,0,0.3174,0.0806,0.4111,0.2148
		c0.0928,0.1348,0.1143,0.3066,0.0576,0.4604c-1.4316,3.8247-3.6211,6.1997-6.5078,7.061
		C15.1982,17.9766,14.334,18.084,13.4863,18.084z"/>
</g>
<rect x="0.0022" y="-0.0147" fill="none" width="24" height="24"/>
</svg>
