<?xml version="1.0" encoding="utf-8"?>
<!-- Generator: Adobe Illustrator 18.1.0, SVG Export Plug-In . SVG Version: 6.00 Build 0)  -->
<svg version="1.1" id="Layer_1" xmlns="http://www.w3.org/2000/svg" xmlns:xlink="http://www.w3.org/1999/xlink" x="0px" y="0px"
	 width="24px" height="24px" viewBox="0 0 24 24" enable-background="new 0 0 24 24" xml:space="preserve">
<g>
	<path d="M23.5,24.0039h-23c-0.2764,0-0.5-0.2236-0.5-0.5v-17c0-0.2764,0.2236-0.5,0.5-0.5h23c0.2764,0,0.5,0.2236,0.5,0.5v17
		C24,23.7803,23.7764,24.0039,23.5,24.0039z M1,23.0039h22v-16H1V23.0039z"/>
	<path d="M22.4209,4.0039H2.5845c-0.2764,0-0.5-0.2236-0.5-0.5s0.2236-0.5,0.5-0.5h19.8364c0.2764,0,0.5,0.2236,0.5,0.5
		S22.6973,4.0039,22.4209,4.0039z"/>
	<path d="M19.4854,1.0039H4.4741c-0.2764,0-0.5-0.2236-0.5-0.5s0.2236-0.5,0.5-0.5h15.0112c0.2764,0,0.5,0.2236,0.5,0.5
		S19.7617,1.0039,19.4854,1.0039z"/>
</g>
<rect y="0.001" fill="none" width="24" height="24"/>
</svg>
