<?xml version="1.0" encoding="utf-8"?>
<!-- Generator: Adobe Illustrator 18.1.0, SVG Export Plug-In . SVG Version: 6.00 Build 0)  -->
<svg version="1.1" id="Layer_1" xmlns="http://www.w3.org/2000/svg" xmlns:xlink="http://www.w3.org/1999/xlink" x="0px" y="0px"
	 width="24px" height="24px" viewBox="0 0 24 24" enable-background="new 0 0 24 24" xml:space="preserve">
<g>
	<path d="M22.4414,5.0044H10.5132c-0.2764,0-0.5-0.2236-0.5-0.5s0.2236-0.5,0.5-0.5h11.9282c0.2764,0,0.5,0.2236,0.5,0.5
		S22.7178,5.0044,22.4414,5.0044z"/>
	<path d="M22.4414,8.0044H10.5132c-0.2764,0-0.5-0.2236-0.5-0.5s0.2236-0.5,0.5-0.5h11.9282c0.2764,0,0.5,0.2236,0.5,0.5
		S22.7178,8.0044,22.4414,8.0044z"/>
	<path d="M22.4414,11.0044H10.5132c-0.2764,0-0.5-0.2236-0.5-0.5s0.2236-0.5,0.5-0.5h11.9282c0.2764,0,0.5,0.2236,0.5,0.5
		S22.7178,11.0044,22.4414,11.0044z"/>
	<path d="M22.4414,14.0039h-7.8711c-0.2764,0-0.5-0.2236-0.5-0.5s0.2236-0.5,0.5-0.5h7.8711c0.2764,0,0.5,0.2236,0.5,0.5
		S22.7178,14.0039,22.4414,14.0039z"/>
	<path d="M22.4414,17.0039h-7.8711c-0.2764,0-0.5-0.2236-0.5-0.5s0.2236-0.5,0.5-0.5h7.8711c0.2764,0,0.5,0.2236,0.5,0.5
		S22.7178,17.0039,22.4414,17.0039z"/>
	<path d="M22.4414,20.0039h-7.8711c-0.2764,0-0.5-0.2236-0.5-0.5s0.2236-0.5,0.5-0.5h7.8711c0.2764,0,0.5,0.2236,0.5,0.5
		S22.7178,20.0039,22.4414,20.0039z"/>
	<path d="M7.5098,7.9888H1.5923c-0.2764,0-0.5-0.2236-0.5-0.5s0.2236-0.5,0.5-0.5h5.9175c0.2764,0,0.5,0.2236,0.5,0.5
		S7.7861,7.9888,7.5098,7.9888z"/>
	<path d="M4.4248,10.7256c-0.125,0-0.2505-0.0469-0.3477-0.1406L1.2437,7.8462C1.1465,7.752,1.0913,7.6226,1.0913,7.4868
		s0.0552-0.2651,0.1523-0.3594l2.8335-2.7383c0.1997-0.1914,0.5151-0.186,0.707,0.0117c0.1919,0.1987,0.1865,0.5151-0.0117,0.707
		L2.3105,7.4868l2.4619,2.3794c0.1982,0.1919,0.2036,0.5083,0.0117,0.707C4.686,10.6743,4.5557,10.7256,4.4248,10.7256z"/>
</g>
<rect y="0.0011" fill="none" width="24" height="24"/>
</svg>
