<?xml version="1.0" encoding="utf-8"?>
<!-- Generator: Adobe Illustrator 18.1.0, SVG Export Plug-In . SVG Version: 6.00 Build 0)  -->
<svg version="1.1" id="Layer_1" xmlns="http://www.w3.org/2000/svg" xmlns:xlink="http://www.w3.org/1999/xlink" x="0px" y="0px"
	 width="24px" height="24px" viewBox="0 0 24 24" enable-background="new 0 0 24 24" xml:space="preserve">
<g>
	<path d="M20.5049,5.0049h-4c-0.2764,0-0.5-0.2236-0.5-0.5v-4c0-0.2764,0.2236-0.5,0.5-0.5s0.5,0.2236,0.5,0.5v3.5h3.5
		c0.2764,0,0.5,0.2236,0.5,0.5S20.7812,5.0049,20.5049,5.0049z"/>
	<path d="M19.7129,24.0049H4.292c-0.7095,0-1.2871-0.583-1.2871-1.2998V1.3105c0-0.7197,0.5776-1.3057,1.2871-1.3057h12.2129
		c0.418,0,0.6406,0.2192,0.8027,0.3789l3.3125,3.2686c0.1787,0.1772,0.3848,0.4341,0.3848,0.8525v18.2002
		C21.0049,23.4219,20.4258,24.0049,19.7129,24.0049z M16.498,0.998L4.292,1.0049c-0.1558,0-0.2871,0.1401-0.2871,0.3057v21.3945
		c0,0.1621,0.1313,0.2998,0.2871,0.2998h15.4209c0.1582,0,0.292-0.1377,0.292-0.2998V4.5049c0-0.0352,0-0.0542-0.0879-0.1406
		l-3.3125-3.2686C16.5771,1.0679,16.5186,1.0103,16.498,0.998z"/>
	<path d="M18.0557,18.0107H6.0308c-0.5229,0-0.9487-0.415-0.9487-0.9248v-8.144c0-0.5098,0.4258-0.9248,0.9487-0.9248h12.0249
		c0.5234,0,0.9492,0.415,0.9492,0.9248v8.144C19.0049,17.5957,18.5791,18.0107,18.0557,18.0107z M18.0049,8.9419L6.0308,9.0171
		l0.0513,8.0688l11.9229-0.0752V8.9419z"/>
	<path d="M8.832,13.5098c-0.9399,0-1.7051-0.7363-1.7051-1.6411c0-0.9053,0.7651-1.6416,1.7051-1.6416s1.7051,0.7363,1.7051,1.6416
		C10.5371,12.7734,9.772,13.5098,8.832,13.5098z M8.832,11.2271c-0.3887,0-0.7051,0.2876-0.7051,0.6416
		c0,0.353,0.3164,0.6411,0.7051,0.6411s0.7051-0.2881,0.7051-0.6411C9.5371,11.5146,9.2207,11.2271,8.832,11.2271z"/>
	<path d="M8.2798,17.9648c-0.1064,0-0.2144-0.0342-0.3052-0.1045c-0.2188-0.1689-0.2588-0.4824-0.0898-0.7012l3.9854-5.1553
		c0.0942-0.1221,0.2402-0.1938,0.3945-0.1943h0.001c0.1533,0,0.2988,0.0708,0.3936,0.1924l1.1895,1.5205l1.6924-2.5205
		c0.0908-0.1353,0.2412-0.2178,0.4043-0.2212c0.1621-0.0142,0.3174,0.0723,0.4141,0.2041l2.5391,3.4575
		c0.1631,0.2227,0.1152,0.5352-0.1074,0.6992c-0.2197,0.1621-0.5342,0.1172-0.6992-0.1074l-2.1172-2.8838l-1.6797,2.501
		c-0.0889,0.1338-0.2373,0.2158-0.3965,0.2217c-0.1904,0.002-0.3135-0.0654-0.4121-0.1924l-1.2188-1.5566l-3.5918,4.6465
		C8.5771,17.8984,8.4292,17.9648,8.2798,17.9648z"/>
</g>
<rect y="0.0001" fill="none" width="24" height="24"/>
</svg>
