<?xml version="1.0" encoding="utf-8"?>
<!-- Generator: Adobe Illustrator 18.1.0, SVG Export Plug-In . SVG Version: 6.00 Build 0)  -->
<svg version="1.1" id="Layer_1" xmlns="http://www.w3.org/2000/svg" xmlns:xlink="http://www.w3.org/1999/xlink" x="0px" y="0px"
	 width="24px" height="24px" viewBox="0 0 24 24" enable-background="new 0 0 24 24" xml:space="preserve">
<g>
	<path d="M23.2617,21.3574h-7.5791c-0.1514,0-0.2939-0.0684-0.3896-0.1865c-0.0947-0.1172-0.1309-0.2715-0.0986-0.4189
		l0.4805-2.2158c0.0586-0.2695,0.3135-0.4414,0.5947-0.3828c0.2695,0.0586,0.4404,0.3242,0.3818,0.5947l-0.3486,1.6094h6.3379
		L19.4619,5.7822l-1.9307,8.5225c-0.0615,0.2695-0.3242,0.4424-0.5977,0.377c-0.2695-0.0605-0.4385-0.3281-0.377-0.5977
		l2.4277-10.7163c0.0518-0.229,0.2656-0.4067,0.4893-0.3896c0.2344,0.001,0.4365,0.1646,0.4863,0.3936l3.79,17.3794
		c0.0322,0.1475-0.0039,0.3018-0.0986,0.4199S23.4131,21.3574,23.2617,21.3574z"/>
	<path d="M13.6602,20.2305c-0.7881,0-1.5693-0.248-2.2559-0.7383c-0.2246-0.1611-0.2769-0.4736-0.1162-0.6982
		s0.4731-0.2754,0.6973-0.1162c0.9131,0.6523,2.002,0.7354,2.9941,0.2266c1.1318-0.583,1.835-1.8057,1.835-3.1924
		c0-1.6113-0.9775-3.0127-2.3779-3.4062c-0.1895-0.0527-0.3301-0.2129-0.3594-0.4082c-0.2812-1.9126-1.7461-3.3013-3.481-3.3013
		c-1.0337,0-2.0122,0.5039-2.6841,1.3828c-0.7866,1.0283-1.0464,2.4136-0.6953,3.7065c0.0576,0.2129-0.0303,0.4375-0.2173,0.5547
		c-1.2993,0.8135-1.3394,2.3896-0.7178,3.4609c0.4844,0.835,1.4409,1.4912,2.6719,0.8301c0.2451-0.1299,0.5469-0.0391,0.6772,0.2041
		c0.1309,0.2432,0.0396,0.5459-0.2036,0.6768c-1.7432,0.9365-3.2695,0.0664-4.0103-1.209
		c-0.8081-1.3916-0.7856-3.4141,0.7529-4.6025c-0.2998-1.4893,0.0439-3.0469,0.9478-4.229
		c0.8628-1.1284,2.1304-1.7754,3.4785-1.7754c2.1392,0,3.9526,1.5996,4.4165,3.8467c1.6641,0.6187,2.8018,2.3276,2.8018,4.269
		c0,1.7627-0.9111,3.3262-2.3779,4.0811C14.8672,20.0859,14.2617,20.2305,13.6602,20.2305z"/>
	<path d="M19.4717,23.9492c-0.2764,0-0.5-0.2236-0.5-0.5v-5.2432c0-0.2764,0.2236-0.5,0.5-0.5s0.5,0.2236,0.5,0.5v5.2432
		C19.9717,23.7256,19.748,23.9492,19.4717,23.9492z"/>
	<path d="M10.4531,23.9492c-0.2764,0-0.5-0.2236-0.5-0.5V12.4209c0-0.2764,0.2236-0.5,0.5-0.5s0.5,0.2236,0.5,0.5v11.0283
		C10.9531,23.7256,10.7295,23.9492,10.4531,23.9492z"/>
	<path d="M10.4897,18.6191c-0.0229,0-0.0469-0.002-0.0703-0.0049c-0.2734-0.0391-0.4634-0.291-0.4253-0.5645
		c0.0142-0.1025,0.3677-2.5137,1.8481-3.4219c0.6421-0.3945,1.3804-0.4541,2.1919-0.1729c0.2617,0.0898,0.4004,0.374,0.3105,0.6348
		c-0.0898,0.2617-0.3721,0.4004-0.6348,0.3105c-0.5244-0.1787-0.9639-0.1523-1.3428,0.0791
		c-0.8955,0.5479-1.3018,2.1416-1.3828,2.71C10.9487,18.4385,10.7349,18.6191,10.4897,18.6191z"/>
	<path d="M10.4897,17.4814c-0.1899,0-0.3711-0.1084-0.4551-0.292c-0.2651-0.5781-0.8447-1.4277-1.3032-1.5078
		c-0.0552-0.0078-0.2061-0.0342-0.4355,0.2002c-0.1934,0.1982-0.5093,0.2002-0.707,0.0078
		c-0.1973-0.1934-0.2007-0.5098-0.0078-0.707c0.4946-0.5068,0.9922-0.5459,1.3237-0.4854c1.1543,0.2021,1.9521,1.8857,2.0396,2.0771
		c0.1143,0.251,0.0034,0.5469-0.2471,0.6611C10.6299,17.4668,10.5591,17.4814,10.4897,17.4814z"/>
	<path d="M8.3159,7H2.5508C1.4902,7,0.5767,6.311,0.2773,5.2856c-0.2817-0.9648,0.061-1.9224,0.896-2.5474
		c0.3311-1.4824,1.5718-2.5361,3.0244-2.5361c0.6533,0,1.2749,0.2144,1.8101,0.6221c1.0879-0.0571,1.9966,0.4941,2.4253,1.4087
		c1.2842,0.0674,2.3457,1.1304,2.3457,2.3813C10.7788,5.9072,9.6509,7,8.3159,7z M4.1978,1.2021
		c-0.8813,0-1.8784,0.6558-2.0781,1.9092C2.0972,3.2524,2.0156,3.3774,1.895,3.4541c-0.5864,0.374-0.832,0.9541-0.6577,1.5513
		C1.3818,5.5005,1.8438,6,2.5508,6h5.7651c0.793,0,1.4629-0.6348,1.4629-1.3857c0-0.8003-0.7568-1.4619-1.6367-1.3765
		c-0.2339,0.0186-0.4604-0.125-0.5288-0.355C7.395,2.1504,6.7422,1.7324,5.9136,1.8364C5.7715,1.853,5.6294,1.8105,5.5215,1.7173
		C5.1348,1.3804,4.6768,1.2021,4.1978,1.2021z"/>
</g>
<rect x="-0.0113" fill="none" width="24" height="24"/>
</svg>
