<?xml version="1.0" encoding="utf-8"?>
<!-- Generator: Adobe Illustrator 18.1.0, SVG Export Plug-In . SVG Version: 6.00 Build 0)  -->
<svg version="1.1" id="Layer_1" xmlns="http://www.w3.org/2000/svg" xmlns:xlink="http://www.w3.org/1999/xlink" x="0px" y="0px"
	 width="24px" height="24px" viewBox="0 0 24 24" enable-background="new 0 0 24 24" xml:space="preserve">
<g>
	<path d="M23.3027,11.0635c-0.1201,0-0.2412-0.043-0.3369-0.1309c-3-2.7368-6.8896-4.2441-10.9512-4.2441
		c-4.0625,0-7.9521,1.5073-10.9517,4.2441c-0.2026,0.188-0.5195,0.1729-0.7061-0.0322c-0.1865-0.2041-0.1719-0.52,0.0322-0.7061
		c3.1841-2.9058,7.313-4.5059,11.6255-4.5059c4.3115,0,8.4404,1.6001,11.625,4.5059c0.2041,0.186,0.2188,0.502,0.0322,0.7061
		C23.5732,11.0088,23.4385,11.0635,23.3027,11.0635z"/>
	<path d="M12.0146,12.208c-0.2764,0-0.5-0.2236-0.5-0.5V8.1611c0-0.2764,0.2236-0.5,0.5-0.5s0.5,0.2236,0.5,0.5v3.5469
		C12.5146,11.9844,12.291,12.208,12.0146,12.208z"/>
	<path d="M4.7563,17.3037c-0.2764,0-0.5-0.2236-0.5-0.5V10.229c0-0.2764,0.2236-0.5,0.5-0.5s0.5,0.2236,0.5,0.5v6.5747
		C5.2563,17.0801,5.0327,17.3037,4.7563,17.3037z"/>
	<path d="M19.2715,14.7451c-0.2764,0-0.5-0.2236-0.5-0.5V10.229c0-0.2764,0.2236-0.5,0.5-0.5s0.5,0.2236,0.5,0.5v4.0161
		C19.7715,14.5215,19.5479,14.7451,19.2715,14.7451z"/>
	<path d="M12.0146,6.6885c-0.2764,0-0.5-0.2236-0.5-0.5V3.6592c0-0.2764,0.2236-0.5,0.5-0.5s0.5,0.2236,0.5,0.5v2.5293
		C12.5146,6.4648,12.291,6.6885,12.0146,6.6885z"/>
	<path d="M12.0146,4.1592c-1.0586,0-1.9199-0.8608-1.9199-1.9194s0.8613-1.9194,1.9199-1.9194s1.9189,0.8608,1.9189,1.9194
		S13.0732,4.1592,12.0146,4.1592z M12.0146,1.3203c-0.5073,0-0.9199,0.4126-0.9199,0.9194s0.4126,0.9194,0.9199,0.9194
		c0.5068,0,0.9189-0.4126,0.9189-0.9194S12.5215,1.3203,12.0146,1.3203z"/>
	<path d="M19.8652,20.5273c-1.8887,0-3.4258-1.5371-3.4258-3.4258s1.5371-3.4258,3.4258-3.4258
		c0.7383,0,1.4424,0.2334,2.0371,0.6758c0.1543,0.1143,0.2285,0.3057,0.1934,0.4932c-0.0352,0.1885-0.1748,0.3398-0.3594,0.3906
		c-0.8379,0.2295-1.4229,0.9971-1.4229,1.8662c0,0.8682,0.585,1.6357,1.4229,1.8652c0.1846,0.0508,0.3242,0.2021,0.3594,0.3906
		c0.0352,0.1875-0.0391,0.3789-0.1934,0.4932C21.3066,20.293,20.6025,20.5273,19.8652,20.5273z M19.8652,14.6758
		c-1.3379,0-2.4258,1.0879-2.4258,2.4258s1.0879,2.4258,2.4258,2.4258c0.2119,0,0.4199-0.0273,0.6201-0.0811
		c-0.7197-0.543-1.1719-1.4053-1.1719-2.3447c0-0.9404,0.4512-1.8018,1.1719-2.3447
		C20.2852,14.7031,20.0771,14.6758,19.8652,14.6758z"/>
	<path d="M10.1909,17.9404c-0.1592,0-0.3794-0.1074-0.4736-0.2363c-0.2339-0.3184-0.125-0.667,0.2373-1.8203l0.124-0.3994
		l-0.4258-0.3145c-0.9556-0.7002-1.3135-0.9629-1.1616-1.4365c0.1533-0.4795,0.5957-0.4854,1.9097-0.5029l0.4209-0.0068
		c0.0645-0.1875,0.1226-0.3594,0.1753-0.5156c0.373-1.1045,0.5127-1.5181,1.0098-1.5181c0.501,0,0.6436,0.4146,1.0664,1.646
		l0.1338,0.3867l0.5352,0.0068c1.1904,0.0107,1.6357,0.0156,1.79,0.4893c0.1553,0.4785-0.2002,0.7412-1.2529,1.5195l-0.3311,0.2461
		c0.0615,0.1934,0.1182,0.3701,0.1689,0.5303c0.3271,1.0215,0.4375,1.3652,0.208,1.6807c-0.0947,0.1289-0.3164,0.2373-0.4756,0.2373
		c0,0,0,0-0.001,0c-0.3184-0.001-0.6191-0.2109-1.5117-0.834l-0.3213-0.2227l-0.4409,0.3076
		C10.7935,17.7344,10.5015,17.9404,10.1909,17.9404z M10.0688,14.2354c0.0581,0.042,0.1167,0.085,0.1753,0.1279l0.7173,0.5303
		c0.1689,0.127,0.2397,0.3457,0.1782,0.5469l-0.231,0.7432c-0.0337,0.1074-0.0674,0.2139-0.0986,0.3154
		c0.062-0.043,0.1255-0.0879,0.1885-0.1328l0.7324-0.5117c0.1714-0.1162,0.397-0.1172,0.5669,0l0.6113,0.4248
		c0.1064,0.0742,0.2119,0.1475,0.3125,0.2168c-0.0186-0.0586-0.0381-0.1182-0.0566-0.1768
		c-0.0811-0.252-0.1748-0.5449-0.2773-0.8789c-0.0615-0.2012,0.0098-0.4199,0.1787-0.5469l0.6182-0.459
		c0.0938-0.0693,0.1855-0.1377,0.2734-0.2031c-0.0742,0-0.1504-0.001-0.2246-0.002l-0.8936-0.0117
		c-0.209-0.0039-0.3926-0.1377-0.4619-0.334l-0.251-0.7236c-0.0391-0.1133-0.0771-0.2256-0.1143-0.333
		c-0.0229,0.0664-0.0459,0.1338-0.0684,0.2012c-0.0835,0.2471-0.1797,0.5322-0.2935,0.8555
		c-0.0688,0.1963-0.2529,0.3301-0.4614,0.334l-0.7754,0.0127C10.2964,14.2314,10.1802,14.2334,10.0688,14.2354z"/>
	<path d="M3.4868,23.5244c-0.0664,0-0.1333-0.0127-0.1978-0.041c-0.2534-0.1084-0.3706-0.4033-0.2617-0.6562l0.7817-1.8164
		c0.1094-0.2549,0.4048-0.373,0.6572-0.2617c0.2534,0.1084,0.3706,0.4033,0.2617,0.6562l-0.7817,1.8164
		C3.8647,23.4111,3.6802,23.5244,3.4868,23.5244z"/>
	<path d="M5.2397,19.4512c-0.0664,0-0.1333-0.0127-0.1978-0.041c-0.2534-0.1084-0.3706-0.4033-0.2617-0.6562l0.7817-1.8164
		c0.1094-0.2549,0.4033-0.373,0.6572-0.2617c0.2534,0.1084,0.3706,0.4033,0.2617,0.6562l-0.7817,1.8164
		C5.6177,19.3379,5.4331,19.4512,5.2397,19.4512z"/>
	<path d="M3.6255,20.0938c-0.0664,0-0.1333-0.0127-0.1978-0.041l-1.8159-0.7812c-0.2534-0.1084-0.3706-0.4033-0.2617-0.6562
		c0.1089-0.2549,0.4033-0.374,0.6572-0.2617l1.8159,0.7812c0.2534,0.1084,0.3706,0.4033,0.2617,0.6562
		C4.0034,19.9805,3.8188,20.0938,3.6255,20.0938z"/>
	<path d="M7.6987,21.8467c-0.0664,0-0.1333-0.0127-0.1978-0.041l-1.8159-0.7812c-0.2534-0.1084-0.3706-0.4033-0.2617-0.6562
		c0.1089-0.2549,0.4043-0.374,0.6572-0.2617l1.8159,0.7812c0.2534,0.1084,0.3706,0.4033,0.2617,0.6562
		C8.0767,21.7334,7.8921,21.8467,7.6987,21.8467z"/>
	<path d="M1.7759,21.7656c-0.1987,0-0.3867-0.1191-0.4644-0.3154c-0.1025-0.2559,0.0229-0.5469,0.2793-0.6494l1.8369-0.7314
		c0.2563-0.0986,0.5479,0.0234,0.6494,0.2803c0.1025,0.2559-0.0229,0.5469-0.2793,0.6494l-1.8369,0.7314
		C1.9004,21.7539,1.8374,21.7656,1.7759,21.7656z"/>
	<path d="M5.8955,20.125c-0.1987,0-0.3867-0.1191-0.4644-0.3154c-0.1025-0.2559,0.0229-0.5469,0.2793-0.6494l1.8369-0.7314
		c0.2554-0.0996,0.5474,0.0234,0.6494,0.2803c0.1025,0.2559-0.0229,0.5469-0.2793,0.6494l-1.8369,0.7314
		C6.02,20.1133,5.957,20.125,5.8955,20.125z"/>
	<path d="M4.2998,19.4385c-0.1987,0-0.3862-0.1191-0.4644-0.3145l-0.7319-1.8369c-0.1025-0.2568,0.0229-0.5479,0.2793-0.6504
		c0.2559-0.0986,0.5474,0.0234,0.6494,0.2793l0.7319,1.8369c0.1025,0.2568-0.0229,0.5479-0.2793,0.6504
		C4.4243,19.4268,4.3613,19.4385,4.2998,19.4385z"/>
	<path d="M5.9404,23.5576c-0.1987,0-0.3862-0.1191-0.4644-0.3145l-0.7319-1.8369c-0.1025-0.2568,0.0229-0.5479,0.2793-0.6504
		c0.2554-0.0996,0.5469,0.0234,0.6494,0.2793l0.7319,1.8369c0.1025,0.2568-0.0229,0.5479-0.2793,0.6504
		C6.0649,23.5459,6.002,23.5576,5.9404,23.5576z"/>
</g>
<rect x="0.0142" y="0.0344" fill="none" width="24" height="24"/>
</svg>
