<?xml version="1.0" encoding="utf-8"?>
<!-- Generator: Adobe Illustrator 18.1.0, SVG Export Plug-In . SVG Version: 6.00 Build 0)  -->
<svg version="1.1" id="Layer_1" xmlns="http://www.w3.org/2000/svg" xmlns:xlink="http://www.w3.org/1999/xlink" x="0px" y="0px"
	 width="24px" height="24px" viewBox="0 0 24 24" enable-background="new 0 0 24 24" xml:space="preserve">
<g>
	<path d="M12.0068,18.8877c-0.5015,0-4.8994-0.0459-4.8994-1.6367s4.3979-1.6367,4.8994-1.6367c0.502,0,4.8994,0.0459,4.8994,1.6367
		S12.5088,18.8877,12.0068,18.8877z M8.1787,17.251c0.3721,0.2549,1.688,0.6367,3.8281,0.6367c2.1396,0,3.4561-0.3818,3.8281-0.6367
		c-0.3721-0.2549-1.6885-0.6367-3.8281-0.6367C9.8667,16.6143,8.5508,16.9961,8.1787,17.251z"/>
	<path d="M12.0068,23.8545c-0.7173,0-2.9961-0.0713-3.1685-0.959l-1.7085-5.4961c-0.082-0.2637,0.0654-0.5439,0.3291-0.626
		c0.2651-0.085,0.5439,0.0664,0.626,0.3291l1.6943,5.4512c0.2944,0.1309,1.2271,0.3008,2.2275,0.3008
		c1.001,0,1.9336-0.1699,2.2275-0.3008l1.6943-5.4512c0.082-0.2627,0.3584-0.4121,0.626-0.3291
		c0.2637,0.082,0.4111,0.3623,0.3291,0.626l-1.709,5.4961C15.0029,23.7832,12.7246,23.8545,12.0068,23.8545z"/>
	<path d="M15.7109,13.3906c-0.9746,0-1.9424-0.2793-2.7812-0.834c-0.2305-0.1514-0.2939-0.4619-0.1416-0.6924
		c0.1514-0.231,0.4609-0.2939,0.6924-0.1421c1.251,0.8247,2.8574,0.8892,4.1953,0.1704c1.2363-0.6655,1.9746-1.8647,1.9746-3.2075
		c0-1.6885-1.2129-3.1616-2.9492-3.5815c-0.1943-0.0469-0.3418-0.2046-0.376-0.4019c-0.3447-2.0195-2.1689-3.4858-4.3359-3.4858
		c-1.4639,0-2.7822,0.6528-3.6167,1.7905c-0.7622,1.04-0.98,2.332-0.5972,3.5449c0.0718,0.229-0.0283,0.4766-0.2397,0.5903
		C6.6929,7.5962,6.1694,8.4438,6.1694,9.353c0,0.9297,0.5142,1.7573,1.376,2.2144c0.936,0.4951,2.0522,0.4404,2.9141-0.1445
		c0.228-0.1543,0.54-0.0957,0.6948,0.1333s0.0952,0.5396-0.1333,0.6948c-1.1699,0.792-2.6816,0.8691-3.9443,0.1992
		c-1.1943-0.6328-1.9072-1.791-1.9072-3.0972c0-1.147,0.5845-2.2192,1.5479-2.8818C6.3916,5.0654,6.6929,3.6069,7.5664,2.415
		c1.0098-1.377,2.6631-2.1992,4.4229-2.1992c2.543,0,4.7031,1.6641,5.2578,4.0015c2.0195,0.624,3.4033,2.4194,3.4033,4.4678
		c0,1.7168-0.9346,3.2451-2.501,4.0874C17.3828,13.1855,16.5449,13.3906,15.7109,13.3906z"/>
	<path d="M12.0312,11.5005c-0.0234,0-0.0474-0.002-0.0708-0.0054c-0.2734-0.0386-0.4639-0.2905-0.4253-0.564
		c0.0166-0.1182,0.4253-2.9062,2.127-3.9497c0.7305-0.4478,1.5703-0.5151,2.4971-0.1953c0.2617,0.0894,0.4004,0.374,0.3105,0.6353
		c-0.0898,0.2603-0.373,0.4004-0.6348,0.3101c-0.6387-0.2192-1.1787-0.1865-1.6484,0.1011
		c-1.2998,0.7959-1.6572,3.2134-1.6611,3.2378C12.4902,11.3198,12.2754,11.5005,12.0312,11.5005z"/>
	<path d="M12.0117,10.5845c-0.1982,0-0.3862-0.1191-0.4644-0.3145c-0.3335-0.8325-1.0659-2.0576-1.6514-2.1748
		C9.832,8.084,9.6606,8.0479,9.397,8.3169c-0.1938,0.1982-0.5093,0.2017-0.707,0.0078c-0.1978-0.1934-0.2007-0.5098-0.0078-0.707
		c0.5312-0.543,1.0605-0.5728,1.4106-0.5029c1.3169,0.2642,2.2168,2.3657,2.3838,2.7847c0.1016,0.2563-0.0234,0.5469-0.2793,0.6494
		C12.1367,10.5728,12.0732,10.5845,12.0117,10.5845z"/>
	<path d="M12.0117,17.2715c-0.2764,0-0.5-0.2236-0.5-0.5V5.0859c0-0.2764,0.2236-0.5,0.5-0.5s0.5,0.2236,0.5,0.5v11.6855
		C12.5117,17.0479,12.2881,17.2715,12.0117,17.2715z"/>
</g>
<rect x="0.0142" y="0.0354" fill="none" width="24" height="24"/>
</svg>
