<?xml version="1.0" encoding="utf-8"?>
<!-- Generator: Adobe Illustrator 18.1.0, SVG Export Plug-In . SVG Version: 6.00 Build 0)  -->
<svg version="1.1" id="Layer_1" xmlns="http://www.w3.org/2000/svg" xmlns:xlink="http://www.w3.org/1999/xlink" x="0px" y="0px"
	 width="24px" height="24px" viewBox="0 0 24 24" enable-background="new 0 0 24 24" xml:space="preserve">
<g>
	<path d="M4.4097,22.9648c-0.8882,0-1.7236-0.3457-2.3521-0.9736S1.083,20.5273,1.083,19.6387c0-0.8877,0.3462-1.7236,0.9746-2.3516
		l15.209-15.209c1.2568-1.2578,3.4492-1.2559,4.7041,0c1.2969,1.2969,1.2969,3.4072,0,4.7041l-15.209,15.209
		C6.1338,22.6191,5.2983,22.9648,4.4097,22.9648z M19.6182,2.1035c-0.6211,0-1.2051,0.2422-1.6445,0.6816l-15.209,15.209
		c-0.4395,0.4395-0.6816,1.0234-0.6816,1.6445c0,0.6221,0.2422,1.2061,0.6816,1.6455c0.8789,0.8789,2.4111,0.8789,3.29,0
		l15.209-15.209c0.9072-0.9072,0.9072-2.3828,0-3.29C20.8242,2.3457,20.2402,2.1035,19.6182,2.1035z"/>
	<path d="M1.8105,18.7412c-0.1284,0-0.2568-0.0488-0.3545-0.1475L1.356,18.4932c-1.3276-1.3281-1.3276-3.4893,0.001-4.8184
		L13.6543,1.377c1.3271-1.3271,3.4902-1.3291,4.8193,0l0.1006,0.1006c0.1953,0.1953,0.1953,0.5117,0,0.707s-0.5117,0.1953-0.707,0
		L17.7666,2.084c-0.9404-0.9395-2.4668-0.9375-3.4053,0L2.064,14.3818c-0.939,0.9385-0.939,2.4668,0,3.4053l0.1011,0.1016
		c0.1948,0.1953,0.1938,0.5117-0.002,0.707C2.0659,18.6924,1.938,18.7412,1.8105,18.7412z"/>
	<path d="M7.9644,23.6885c-0.8726,0-1.7451-0.332-2.4097-0.9961l-0.1011-0.1016c-0.1948-0.1953-0.1938-0.5117,0.002-0.707
		c0.1943-0.1953,0.5117-0.1953,0.707,0.002l0.1001,0.1006c0.938,0.9355,2.4653,0.9365,3.4043-0.001L21.9648,9.6875
		c0.4551-0.4551,0.7051-1.0596,0.7051-1.7026c0-0.6436-0.25-1.248-0.7051-1.7026l-0.1006-0.1006
		c-0.1953-0.1953-0.1953-0.5117,0-0.707s0.5117-0.1953,0.707,0l0.1006,0.1006c0.6436,0.6436,0.998,1.499,0.998,2.4097
		c0,0.9102-0.3545,1.7661-0.998,2.4097L10.374,22.6924C9.7095,23.3564,8.8369,23.6885,7.9644,23.6885z"/>
	<path d="M4.5127,20.0361c-0.2764,0-0.5-0.2236-0.5-0.5c0-1.458,1.1855-2.6436,2.6431-2.6436c0.9062,0,1.6436-0.7373,1.6436-1.6436
		c0-1.457,1.1855-2.6426,2.6431-2.6426c0.9062,0,1.6436-0.7373,1.6436-1.6436c0-1.4575,1.1855-2.6431,2.6436-2.6431
		c0.9053,0,1.6426-0.7373,1.6426-1.6436c0-1.4575,1.1855-2.6431,2.6436-2.6431c0.2764,0,0.5,0.2236,0.5,0.5s-0.2236,0.5-0.5,0.5
		c-0.9062,0-1.6436,0.7373-1.6436,1.6431c0,1.4575-1.1855,2.6436-2.6426,2.6436c-0.9062,0-1.6436,0.7373-1.6436,1.6431
		c0,1.458-1.1855,2.6436-2.6436,2.6436c-0.9058,0-1.6431,0.7373-1.6431,1.6426c0,1.458-1.186,2.6436-2.6436,2.6436
		c-0.9058,0-1.6431,0.7373-1.6431,1.6436C5.0127,19.8125,4.7891,20.0361,4.5127,20.0361z"/>
</g>
<rect x="0.0142" y="0.0346" fill="none" width="24" height="24"/>
</svg>
