<?xml version="1.0" encoding="utf-8"?>
<!-- Generator: Adobe Illustrator 18.1.0, SVG Export Plug-In . SVG Version: 6.00 Build 0)  -->
<svg version="1.1" id="Layer_1" xmlns="http://www.w3.org/2000/svg" xmlns:xlink="http://www.w3.org/1999/xlink" x="0px" y="0px"
	 width="24px" height="24px" viewBox="0 0 24 24" enable-background="new 0 0 24 24" xml:space="preserve">
<g>
	<path fill="none" stroke="#000000" stroke-linecap="round" stroke-linejoin="round" stroke-miterlimit="10" d="M19.4598,11.5161"/>
	<path d="M23.2979,16.1055c-0.0205,0-0.04-0.001-0.0605-0.0039c-1.1494-0.1406-3-3.0752-3.7422-4.3311
		c-0.0928-0.1567-0.0928-0.3521,0-0.5088c0.7422-1.2554,2.5928-4.1904,3.7422-4.3306c0.1387-0.0176,0.2773,0.0244,0.3838,0.1147
		s0.1699,0.2207,0.1768,0.3599c0.0039,0.1104,0.0957,2.5581-0.8516,4.1104c0.9473,1.5522,0.8555,4.0005,0.8516,4.1108
		c-0.0068,0.1387-0.0703,0.2695-0.1768,0.3604C23.5303,16.0635,23.416,16.1055,23.2979,16.1055z M20.5088,11.5161
		c0.792,1.3062,1.668,2.5063,2.2656,3.1362c-0.0596-0.8496-0.25-2.082-0.8291-2.8301c-0.1396-0.1802-0.1396-0.4321,0-0.6123
		c0.5518-0.7114,0.7637-1.9263,0.8311-2.832C22.1787,9.0063,21.3008,10.208,20.5088,11.5161z"/>
	<path d="M6.5005,16.8301H6.4692c-0.0522,0-0.104-0.0078-0.1538-0.0244c-2.8667-0.9258-4.8545-3.0752-5.7842-4.2734
		c-0.4565-0.5894-0.4565-1.4438,0-2.0317c0.9297-1.1987,2.9175-3.3477,5.7842-4.2744c0.314-0.1006,0.6851,0.1475,0.6851,0.4756
		v9.6284C7.0005,16.6064,6.7769,16.8301,6.5005,16.8301z M6.0005,7.4053c-2.2808,0.9336-3.8901,2.6909-4.6792,3.7085
		c-0.1782,0.229-0.1777,0.5757,0.0005,0.8057c0.7886,1.0171,2.3979,2.7739,4.6787,3.7075V7.4053z"/>
	<path d="M20.001,12H6.5005c-0.2764,0-0.5-0.2236-0.5-0.5s0.2236-0.5,0.5-0.5H20.001c0.2764,0,0.5,0.2236,0.5,0.5
		S20.2773,12,20.001,12z"/>
	<path d="M9.5005,17.1875c-0.2764,0-0.5-0.2236-0.5-0.5V6.3442c0-0.2764,0.2236-0.5,0.5-0.5s0.5,0.2236,0.5,0.5v10.3433
		C10.0005,16.9639,9.7769,17.1875,9.5005,17.1875z"/>
	<path d="M12.501,16.6934c-0.2764,0-0.5-0.2236-0.5-0.5v-9.354c0-0.2764,0.2236-0.5,0.5-0.5s0.5,0.2236,0.5,0.5v9.354
		C13.001,16.4697,12.7773,16.6934,12.501,16.6934z"/>
	<path d="M15.501,15.5869c-0.2764,0-0.5-0.2236-0.5-0.5V7.9453c0-0.2764,0.2236-0.5,0.5-0.5s0.5,0.2236,0.5,0.5v7.1416
		C16.001,15.3633,15.7773,15.5869,15.501,15.5869z"/>
	<path d="M18.501,14.0498c-0.2764,0-0.5-0.2236-0.5-0.5V9.4824c0-0.2764,0.2236-0.5,0.5-0.5s0.5,0.2236,0.5,0.5v4.0674
		C19.001,13.8262,18.7773,14.0498,18.501,14.0498z"/>
	<path d="M4.814,11.9385c-0.1279,0-0.2559-0.0488-0.3535-0.1465l-1.1611-1.1611c-0.1953-0.1953-0.1953-0.5117,0-0.707
		s0.5117-0.1953,0.707,0l1.1611,1.1611c0.1953,0.1953,0.1953,0.5117,0,0.707C5.0698,11.8896,4.9419,11.9385,4.814,11.9385z"/>
	<path d="M3.6528,11.9385c-0.1279,0-0.2559-0.0488-0.3535-0.1465c-0.1953-0.1953-0.1953-0.5117,0-0.707l1.1611-1.1611
		c0.1953-0.1953,0.5117-0.1953,0.707,0s0.1953,0.5117,0,0.707L4.0063,11.792C3.9087,11.8896,3.7808,11.9385,3.6528,11.9385z"/>
</g>
<rect x="0.0005" fill="none" width="24" height="24"/>
</svg>
