<?xml version="1.0" encoding="utf-8"?>
<!-- Generator: Adobe Illustrator 18.1.0, SVG Export Plug-In . SVG Version: 6.00 Build 0)  -->
<svg version="1.1" id="Layer_1" xmlns="http://www.w3.org/2000/svg" xmlns:xlink="http://www.w3.org/1999/xlink" x="0px" y="0px"
	 width="24px" height="24px" viewBox="0 0 24 24" enable-background="new 0 0 24 24" xml:space="preserve">
<g>
	<path d="M9.7979,22.0605h-3.145c-0.9312,0-1.689-0.7578-1.689-1.6885v-1.4922c0-0.2168-0.1025-0.4238-0.2739-0.5547l-3.6206-3.1055
		c-0.2739-0.21-0.4888-0.5293-0.5845-0.8818c-0.6846-2.5103,0.2188-3.5601,0.7236-3.9316c0.2612-3.2905,1.8447-4.209,2.4751-4.4458
		C5.186,3.2192,7.0312,3.0547,7.7178,3.1011c2.1226-1.7803,4.3896-0.7983,4.4863-0.7544c0.252,0.1128,0.3652,0.4082,0.252,0.6606
		c-0.1113,0.251-0.4043,0.3662-0.6582,0.2534c-0.0801-0.0361-1.9082-0.8022-3.5815,0.7329C8.0933,4.106,7.9209,4.1499,7.7603,4.1108
		C7.6929,4.0967,5.9551,3.7593,4.4712,6.6079C4.3999,6.7446,4.2695,6.8413,4.1177,6.8687c-0.063,0.0142-1.7363,0.4185-1.9287,3.8555
		c-0.0107,0.1938-0.1328,0.3643-0.3135,0.4365c-0.0332,0.0156-1.0767,0.5283-0.4258,2.9146c0.0391,0.1436,0.1274,0.2744,0.25,0.3682
		l3.6196,3.1045c0.3955,0.3018,0.6445,0.8057,0.6445,1.332v1.4922c0,0.3799,0.3091,0.6885,0.689,0.6885h3.145
		c0.2764,0,0.5,0.2236,0.5,0.5S10.0742,22.0605,9.7979,22.0605z"/>
	<path d="M12,13.3965c-0.2764,0-0.5-0.2236-0.5-0.5V2.8032c0-0.2764,0.2236-0.5,0.5-0.5s0.5,0.2236,0.5,0.5v10.0933
		C12.5,13.1729,12.2764,13.3965,12,13.3965z"/>
	<path d="M9.8682,13.6328c-0.2314,0-0.4395-0.1621-0.4888-0.3975L7.3892,3.7275C7.3325,3.457,7.5059,3.1924,7.7759,3.1357
		C8.0479,3.0757,8.311,3.252,8.3677,3.5225l1.9902,9.5078c0.0566,0.2705-0.1167,0.5352-0.3867,0.5918
		C9.9365,13.6299,9.9019,13.6328,9.8682,13.6328z"/>
	<path d="M7.6187,14.5215c-0.188,0-0.3682-0.1064-0.4531-0.2871l-3.5903-7.645c-0.1172-0.25-0.0098-0.5474,0.2402-0.665
		c0.2495-0.1172,0.5479-0.0098,0.665,0.2402l3.5903,7.644c0.1172,0.25,0.0098,0.5479-0.2402,0.665
		C7.7622,14.5059,7.6895,14.5215,7.6187,14.5215z"/>
	<path d="M5.9014,16.2588c-0.1436,0-0.2861-0.0615-0.3848-0.1807l-4.2109-5.062c-0.1768-0.2124-0.1479-0.5278,0.0645-0.7041
		c0.2114-0.1772,0.5278-0.1475,0.7041,0.0645l4.2109,5.063c0.1768,0.2119,0.1479,0.5273-0.0645,0.7041
		C6.1274,16.2207,6.0137,16.2588,5.9014,16.2588z"/>
	<path d="M17.2695,22.0605h-3.0674c-0.2764,0-0.5-0.2236-0.5-0.5s0.2236-0.5,0.5-0.5h3.0674c0.3799,0,0.6885-0.3086,0.6885-0.6885
		v-1.4922c0-0.5264,0.249-1.0303,0.667-1.3496l3.6592-3.0732c0.1387-0.1074,0.2275-0.2383,0.2666-0.3828
		c0.6504-2.3853-0.3926-2.8979-0.4375-2.9185c-0.168-0.0776-0.292-0.2471-0.3018-0.4316c-0.1934-3.437-1.8652-3.8413-1.9365-3.8569
		c-0.1455-0.0317-0.2773-0.1274-0.3457-0.2593c-1.4844-2.8496-3.2207-2.5137-3.2969-2.4956
		c-0.1553,0.0366-0.3291-0.0093-0.4492-0.1187c-1.6885-1.5498-3.5586-0.7417-3.5791-0.7339
		c-0.2534,0.1128-0.5483-0.001-0.6606-0.2524c-0.1128-0.2524,0.0005-0.5479,0.2524-0.6606
		c0.0991-0.0435,2.3633-1.0244,4.4863,0.7544c0.6865-0.0483,2.5312,0.1182,4.0352,2.8599c0.6299,0.2363,2.2129,1.1548,2.4746,4.4448
		c0.5049,0.3721,1.4082,1.4219,0.7236,3.9331c-0.0977,0.3535-0.3125,0.6719-0.6055,0.8975L19.25,18.3105
		c-0.1895,0.1455-0.292,0.3525-0.292,0.5693v1.4922C18.958,21.3027,18.2002,22.0605,17.2695,22.0605z"/>
	<path d="M14.1318,13.6328c-0.0342,0-0.0693-0.0029-0.1035-0.0107c-0.2705-0.0566-0.4434-0.3213-0.3867-0.5918l1.9902-9.5078
		c0.0557-0.2705,0.3262-0.4438,0.5918-0.3867c0.2705,0.0566,0.4434,0.3213,0.3867,0.5918l-1.9902,9.5078
		C14.5713,13.4707,14.3633,13.6328,14.1318,13.6328z"/>
	<path d="M16.3818,14.5215c-0.0713,0-0.1436-0.0156-0.2129-0.0479c-0.25-0.1172-0.3574-0.415-0.2393-0.665l3.5908-7.644
		c0.1172-0.25,0.4131-0.3579,0.665-0.2402c0.25,0.1177,0.3574,0.415,0.2393,0.665l-3.5908,7.645
		C16.749,14.415,16.5693,14.5215,16.3818,14.5215z"/>
	<path d="M18.0996,16.2588c-0.1133,0-0.2266-0.0381-0.3193-0.1152c-0.2129-0.1768-0.2412-0.4922-0.0654-0.7041l4.2109-5.063
		c0.1787-0.2119,0.4941-0.2402,0.7041-0.0645c0.2129,0.1763,0.2412,0.4917,0.0654,0.7041l-4.2109,5.062
		C18.3848,16.1973,18.2432,16.2588,18.0996,16.2588z"/>
	<path d="M12,23.6836c-0.104,0-0.2085-0.0322-0.2964-0.0977L7.998,20.8555c-0.2227-0.1641-0.27-0.4766-0.106-0.6992
		c0.1631-0.2217,0.4775-0.2705,0.6987-0.1055L12,22.5625l3.4082-2.5117c0.2227-0.165,0.5361-0.1162,0.6992,0.1055
		c0.1641,0.2227,0.1162,0.5352-0.1055,0.6992l-3.7051,2.7305C12.208,23.6514,12.1045,23.6836,12,23.6836z"/>
</g>
<rect y="0.0197" fill="none" width="24" height="24"/>
</svg>
