<?xml version="1.0" encoding="utf-8"?>
<!-- Generator: Adobe Illustrator 18.1.0, SVG Export Plug-In . SVG Version: 6.00 Build 0)  -->
<svg version="1.1" id="Layer_1" xmlns="http://www.w3.org/2000/svg" xmlns:xlink="http://www.w3.org/1999/xlink" x="0px" y="0px"
	 width="24px" height="24px" viewBox="0 0 24 24" enable-background="new 0 0 24 24" xml:space="preserve">
<g>
	<path d="M21.7441,24.0049h-4.5879c-0.666,0-1.207-0.5273-1.207-1.1748v-3.6045c0-0.6611,0.5527-1.2197,1.207-1.2197h4.5879
		c0.6533,0,1.2051,0.5586,1.2051,1.2197v3.6045C22.9492,23.4893,22.4199,24.0049,21.7441,24.0049z M17.1562,19.0059
		c-0.1045,0-0.207,0.1084-0.207,0.2197v3.6045c0,0.1094,0.1055,0.1748,0.207,0.1748h4.5879c0.0996,0,0.2051-0.0615,0.2051-0.1748
		v-3.6045c0-0.1133-0.0996-0.2197-0.2051-0.2197H17.1562z"/>
	<path d="M13.7432,24.0049H9.1553c-0.6655,0-1.2065-0.5273-1.2065-1.1748v-9.6045c0-0.6621,0.5527-1.2207,1.2065-1.2207h4.5879
		c0.6533,0,1.2051,0.5586,1.2051,1.2207v9.6045C14.9482,23.4893,14.4189,24.0049,13.7432,24.0049z M9.1553,13.0049
		c-0.104,0-0.2065,0.1094-0.2065,0.2207v9.6045c0,0.1094,0.105,0.1748,0.2065,0.1748h4.5879c0.0996,0,0.2051-0.0615,0.2051-0.1748
		v-9.6045c0-0.1133-0.0996-0.2207-0.2051-0.2207H9.1553z"/>
	<path d="M5.7422,24.0049H1.1548c-0.6655,0-1.207-0.5273-1.207-1.1748V3.2241c0-0.6611,0.5527-1.2197,1.207-1.2197h4.5874
		c0.6533,0,1.2056,0.5586,1.2056,1.2197v19.606C6.9478,23.4775,6.4067,24.0049,5.7422,24.0049z M1.1548,3.0044
		c-0.1045,0-0.207,0.1089-0.207,0.2197v19.606c0,0.1094,0.1055,0.1748,0.207,0.1748h4.5874c0.0996,0,0.2056-0.0615,0.2056-0.1748
		V3.2241c0-0.1128-0.1001-0.2197-0.2056-0.2197H1.1548z"/>
	<path d="M21.3672,12.9609c-0.1279,0-0.2559-0.0488-0.3535-0.1465l-8.9609-8.9609c-0.1953-0.1953-0.1953-0.5117,0-0.707
		s0.5117-0.1953,0.707,0l8.9609,8.9609c0.1953,0.1953,0.1953,0.5117,0,0.707C21.623,12.9121,21.4951,12.9609,21.3672,12.9609z"/>
	<path d="M21.4492,12.9736h-4.5c-0.2764,0-0.5-0.2236-0.5-0.5s0.2236-0.5,0.5-0.5h4V7.9741c0-0.2764,0.2236-0.5,0.5-0.5
		s0.5,0.2236,0.5,0.5v4.4995C21.9492,12.75,21.7256,12.9736,21.4492,12.9736z"/>
</g>
<rect x="-0.0137" fill="none" width="24" height="24"/>
</svg>
