<?xml version="1.0" encoding="utf-8"?>
<!-- Generator: Adobe Illustrator 18.1.0, SVG Export Plug-In . SVG Version: 6.00 Build 0)  -->
<svg version="1.1" id="Layer_1" xmlns="http://www.w3.org/2000/svg" xmlns:xlink="http://www.w3.org/1999/xlink" x="0px" y="0px"
	 width="24px" height="24px" viewBox="0 0 24 24" enable-background="new 0 0 24 24" xml:space="preserve">
<g>
	<path d="M13.4902,22.9922h-3c-0.2764,0-0.5-0.2236-0.5-0.5v-3.501H4.5947c-0.1948,0-0.3721-0.1133-0.4536-0.29
		c-0.082-0.1768-0.0537-0.3848,0.0723-0.5332l2.7388-3.2285H5.2124c-0.1934,0-0.3696-0.1113-0.4521-0.2871
		c-0.0825-0.1748-0.0566-0.3818,0.0664-0.5312l3.4092-4.1348H6.4546c-0.1895,0-0.3628-0.1069-0.4473-0.2769
		C5.9224,9.54,5.9409,9.3374,6.0552,9.186l5.2866-7.0312c0.0942-0.126,0.2422-0.1997,0.3994-0.1997l0,0
		c0.1572,0,0.3057,0.0737,0.3994,0.1997l5.2168,6.9404c0.1152,0.0918,0.1885,0.2329,0.1885,0.3911c0,0.2764-0.2236,0.5-0.5,0.5
		c-0.0039,0.0005-0.0117,0.001-0.0195,0h-1.7812l3.3379,4.0498c0.124,0.0908,0.2041,0.2373,0.2041,0.4033
		c0,0.2764-0.2236,0.5-0.5,0.5c-0.0049,0-0.0127,0.001-0.0195,0h-1.7402l2.7383,3.2285c0.126,0.1484,0.1533,0.3564,0.0723,0.5332
		c-0.082,0.1768-0.2598,0.29-0.4541,0.29h-4.8936v3.501C13.9902,22.7686,13.7666,22.9922,13.4902,22.9922z M10.9902,21.9922h2
		v-3.501c0-0.2764,0.2236-0.5,0.5-0.5h4.3145l-2.7383-3.2285c-0.126-0.1484-0.1533-0.3564-0.0723-0.5332
		c0.082-0.1768,0.2598-0.29,0.4541-0.29h1.7598l-3.4082-4.1353c-0.123-0.1494-0.1494-0.356-0.0664-0.5312
		c0.082-0.1748,0.2588-0.2866,0.4521-0.2866h1.8398l-4.2842-5.6992L7.4561,8.9863h1.8398c0.1934,0,0.3696,0.1118,0.4521,0.2866
		c0.0825,0.1753,0.0566,0.3823-0.0664,0.5312l-3.4092,4.1353h1.7593c0.1948,0,0.3721,0.1133,0.4536,0.29
		c0.082,0.1768,0.0537,0.3848-0.0723,0.5332l-2.7388,3.2285h4.8159c0.2764,0,0.5,0.2236,0.5,0.5V21.9922z"/>
	<path d="M23.5166,22.9922H0.6958c-0.2764,0-0.5-0.2236-0.5-0.5s0.2236-0.5,0.5-0.5h22.8208c0.2764,0,0.5,0.2236,0.5,0.5
		S23.793,22.9922,23.5166,22.9922z"/>
</g>
<rect x="-0.0008" y="-0.0147" fill="none" width="24" height="24"/>
</svg>
