<?xml version="1.0" encoding="utf-8"?>
<!-- Generator: Adobe Illustrator 18.1.0, SVG Export Plug-In . SVG Version: 6.00 Build 0)  -->
<svg version="1.1" id="Layer_1" xmlns="http://www.w3.org/2000/svg" xmlns:xlink="http://www.w3.org/1999/xlink" x="0px" y="0px"
	 width="24px" height="24px" viewBox="0 0 24 24" enable-background="new 0 0 24 24" xml:space="preserve">
<g>
	<path d="M4.6733,12.4814c-0.2246,0-0.4277-0.1523-0.4844-0.3789c-0.0942-0.376-0.1816-0.6943-0.2642-0.9971
		C3.624,10.0044,3.3862,9.1343,3.0938,6.6816C3.0811,6.498,2.8618,2.7979,4.4214,1.0493c0.5112-0.5732,1.1528-0.8828,1.9062-0.9204
		c3.6118-0.1807,3.8564,3.8525,3.9878,5.9941c0.0625,1.0186-0.2539,1.6816-0.5596,2.3223c-0.3481,0.7285-0.6768,1.417-0.5781,2.6855
		c0.0195,0.2515-0.1519,0.4785-0.3994,0.5288l-4.0054,0.811C4.7397,12.4775,4.7061,12.4814,4.6733,12.4814z M6.5503,1.1235
		L6.3774,1.1279C5.895,1.1519,5.4995,1.3438,5.1685,1.7144C3.8867,3.1499,4.0869,6.5562,4.0894,6.5908
		c0.2812,2.3516,0.5103,3.1899,0.8003,4.2515c0.0483,0.1768,0.0981,0.3589,0.1499,0.5542l3.1211-0.6323
		C8.1455,9.4966,8.5195,8.7134,8.853,8.0146C9.1387,7.417,9.3643,6.9448,9.3203,6.2334C9.1538,3.5171,8.8193,1.1235,6.5503,1.1235z"
		/>
	<path d="M7.7417,18.4326L7.7417,18.4326c-2.0205-0.001-2.6113-2.0078-3.0835-4.2441c-0.0273-0.1309-0.002-0.2666,0.0713-0.3779
		s0.188-0.1895,0.3188-0.2158l3.9277-0.7959c0.2637-0.0527,0.5195,0.1104,0.584,0.3682c0.5586,2.2207,0.8472,3.5186,0.2769,4.3828
		c-0.2979,0.4512-0.7886,0.7168-1.5435,0.8369C8.0981,18.417,7.915,18.4326,7.7417,18.4326z M5.7456,14.4736
		c0.5757,2.4717,1.1562,2.958,1.9961,2.959l0,0c0.1245,0,0.2559-0.0117,0.396-0.0342c0.6011-0.0947,0.7817-0.2734,0.8647-0.3994
		c0.3022-0.458,0.0952-1.5371-0.2964-3.125L5.7456,14.4736z"/>
	<path d="M19.3525,17.8838c-0.0322,0-0.0654-0.0029-0.0996-0.0098l-4.0059-0.8115c-0.2471-0.0508-0.4189-0.2773-0.3984-0.5293
		c0.0986-1.2676-0.2305-1.9561-0.5781-2.6846c-0.3057-0.6406-0.6221-1.3037-0.5625-2.2734
		c0.1348-2.1924,0.3818-6.2061,3.9893-6.0435c0.7549,0.0376,1.3965,0.3477,1.9082,0.9214c1.5596,1.749,1.3398,5.4478,1.3301,5.6045
		c-0.2959,2.4785-0.5332,3.3477-0.834,4.4492c-0.083,0.3027-0.1699,0.6221-0.2637,0.998
		C19.7812,17.7314,19.5781,17.8838,19.3525,17.8838z M15.8652,16.167l3.1211,0.6328c0.0527-0.1963,0.1025-0.3789,0.1504-0.5566
		c0.29-1.0615,0.5195-1.8994,0.8037-4.2773c-0.001-0.0068,0.2002-3.4121-1.082-4.8481c-0.3311-0.3711-0.7275-0.563-1.21-0.5869
		l-0.1729-0.0044c-2.2686,0-2.6035,2.3936-2.7666,5.0601c-0.0469,0.7612,0.1787,1.2339,0.4639,1.8315
		C15.5068,14.1172,15.8809,14.8994,15.8652,16.167z"/>
	<path d="M16.2871,23.835c-0.1748,0-0.3584-0.0156-0.5547-0.0459c-0.7363-0.1162-1.2412-0.3945-1.543-0.8496
		c-0.5889-0.8887-0.2686-2.1797,0.2178-4.1338l0.0576-0.2334c0.0645-0.2588,0.3125-0.4238,0.585-0.3701l3.9287,0.7959
		c0.1299,0.0264,0.2451,0.1045,0.3184,0.2158s0.0986,0.2471,0.0713,0.3779C18.8965,21.8281,18.3057,23.835,16.2871,23.835z
		 M15.3203,19.2773c-0.3633,1.4648-0.626,2.6133-0.2979,3.1094c0.0508,0.0771,0.2061,0.3096,0.8662,0.4141
		c1.083,0.1738,1.7305-0.084,2.3916-2.9238L15.3203,19.2773z"/>
</g>
<rect x="0.0142" y="0.0354" fill="none" width="24" height="24"/>
</svg>
