<?xml version="1.0" encoding="utf-8"?>
<!-- Generator: Adobe Illustrator 18.1.0, SVG Export Plug-In . SVG Version: 6.00 Build 0)  -->
<svg version="1.1" id="Layer_1" xmlns="http://www.w3.org/2000/svg" xmlns:xlink="http://www.w3.org/1999/xlink" x="0px" y="0px"
	 width="24px" height="24px" viewBox="0 0 24 24" enable-background="new 0 0 24 24" xml:space="preserve">
<g>
	<path d="M11.2119,22.6113c-0.0723,0-0.144-0.0156-0.2109-0.0469c-0.1323-0.0615-0.231-0.1777-0.2705-0.3184l-0.5713-2.0371
		c-0.0747-0.2656,0.0806-0.542,0.3462-0.6162c0.269-0.0732,0.542,0.0811,0.6167,0.3467l0.4141,1.4766l1.7012-0.7705
		c0.248-0.1133,0.5479-0.0029,0.6611,0.249c0.1143,0.251,0.0029,0.5479-0.249,0.6611l-2.2314,1.0107
		C11.3525,22.5967,11.2822,22.6113,11.2119,22.6113z"/>
	<path d="M11.2114,22.6113c-0.0781,0-0.1572-0.0186-0.2314-0.0566c-0.2446-0.1279-0.3389-0.4307-0.2109-0.6748l2.311-4.416
		l-2.1958,0.7666c-0.1924,0.0693-0.4043,0.0117-0.5396-0.1406c-0.1343-0.1514-0.1636-0.3701-0.0742-0.5518l2.7344-5.5537
		c0.123-0.248,0.4209-0.3477,0.6689-0.228c0.248,0.1221,0.3496,0.4214,0.2275,0.6694l-2.1943,4.459l2.2373-0.7812
		c0.1914-0.0693,0.4082-0.0107,0.5439,0.1445c0.1338,0.1553,0.1592,0.377,0.0645,0.5586l-2.8979,5.5361
		C11.5654,22.5137,11.3916,22.6113,11.2114,22.6113z"/>
	<g>
		<path d="M5.4707,19.9482c-1.3496,0-2.4478-1.0986-2.4478-2.4482s1.0981-2.4482,2.4478-2.4482
			c1.3501,0,2.4482,1.0986,2.4482,2.4482S6.8208,19.9482,5.4707,19.9482z M5.4707,16.0518c-0.7983,0-1.4478,0.6494-1.4478,1.4482
			s0.6494,1.4482,1.4478,1.4482S6.9189,18.2988,6.9189,17.5S6.269,16.0518,5.4707,16.0518z"/>
		<path d="M18.459,19.9482c-1.3496,0-2.4482-1.0986-2.4482-2.4482s1.0986-2.4482,2.4482-2.4482s2.4482,1.0986,2.4482,2.4482
			S19.8086,19.9482,18.459,19.9482z M18.459,16.0518c-0.7988,0-1.4482,0.6494-1.4482,1.4482s0.6494,1.4482,1.4482,1.4482
			s1.4482-0.6494,1.4482-1.4482S19.2578,16.0518,18.459,16.0518z"/>
		<path d="M23.29,18h-0.8662c-0.2764,0-0.5-0.2236-0.5-0.5s0.2236-0.5,0.5-0.5h0.3418c-0.1045-1.3193-0.5322-2.333-1.2754-3.0176
			c-1.1768-1.085-2.8857-1.1006-3.5693-1.0557c-0.4766,0.0186-0.9102-0.2852-1.0293-0.7461
			c-0.3232-1.2534-1.5752-4.1597-5.7822-4.145l-0.2539,0.0005c-0.3535,0-0.9531,0-1.0376,0.0029
			c-5.0508,0.1484-5.8301,2.9263-5.9307,4.1133c-0.0347,0.417-0.3271,0.7529-0.7617,0.877C1.5122,13.4814,1.1997,15.9385,1.1406,17
			h0.186c0.2764,0,0.5,0.2236,0.5,0.5S1.603,18,1.3267,18H0.6274c-0.2715,0-0.4937-0.2168-0.5-0.4883
			c-0.0044-0.1895-0.0771-4.6582,2.7261-5.4453c0.1333-1.1333,0.915-4.8496,6.9351-5.0273
			c0.0869-0.0024,0.7026-0.0029,1.0659-0.0029l0.2505-0.0005c0.0171,0,0.0352,0,0.0522,0c5.0439,0,6.4053,3.7441,6.7031,4.895
			c1.001-0.0674,2.8994,0.0181,4.3076,1.3164c1.0449,0.9629,1.5908,2.3906,1.6221,4.2441c0.002,0.1348-0.0498,0.2637-0.1436,0.3594
			S23.4238,18,23.29,18z"/>
	</g>
</g>
<rect x="0.0005" fill="none" width="24" height="24"/>
</svg>
