<?xml version="1.0" encoding="utf-8"?>
<!-- Generator: Adobe Illustrator 18.1.0, SVG Export Plug-In . SVG Version: 6.00 Build 0)  -->
<svg version="1.1" id="Layer_1" xmlns="http://www.w3.org/2000/svg" xmlns:xlink="http://www.w3.org/1999/xlink" x="0px" y="0px"
	 width="24px" height="24px" viewBox="0 0 24 24" enable-background="new 0 0 24 24" xml:space="preserve">
<g>
	<path d="M8.5142,18.7236c-3.0977,0-5.5-3.3838-5.5-6.2939V6.7695c0-0.9243,0.874-1.7349,1.8701-1.7349h7.3667
		c0.9561,0,1.7637,0.7944,1.7637,1.7349v5.6592C14.0146,15.3398,11.6118,18.7236,8.5142,18.7236z M4.8843,6.0347
		c-0.439,0-0.8701,0.3638-0.8701,0.7349v5.6602c0,2.3975,2.0073,5.2939,4.5,5.2939c2.4932,0,4.5005-2.8965,4.5005-5.2949V6.7695
		c0-0.3916-0.3564-0.7349-0.7637-0.7349H4.8843z"/>
	<path d="M8.5674,23.9062c-0.2764,0-0.5-0.2236-0.5-0.5v-5.1826c0-0.2764,0.2236-0.5,0.5-0.5s0.5,0.2236,0.5,0.5v5.1826
		C9.0674,23.6826,8.8438,23.9062,8.5674,23.9062z"/>
	<path d="M10.1211,4.5122c-0.2764,0-0.5-0.2236-0.5-0.5c0-0.5596-0.4551-1.0146-1.0146-1.0146
		c-0.5591,0-1.0142,0.4551-1.0142,1.0146c0,0.2764-0.2236,0.5-0.5,0.5s-0.5-0.2236-0.5-0.5c0-1.1108,0.9033-2.0146,2.0142-2.0146
		s2.0146,0.9038,2.0146,2.0146C10.6211,4.2886,10.3975,4.5122,10.1211,4.5122z"/>
	<path d="M19.5146,23.9062c-0.2764,0-0.5-0.2236-0.5-0.5V3.2456c0-1.1572-0.9629-2.2109-2.0195-2.2109H9.8589
		c-0.3867,0-0.8447,0.5195-0.8447,0.9585v0.5044c0,0.2764-0.2236,0.5-0.5,0.5s-0.5-0.2236-0.5-0.5V1.9932
		c0-1.0068,0.8965-1.9585,1.8447-1.9585h7.1362c1.6084,0,3.0195,1.5005,3.0195,3.2109v20.1606
		C20.0146,23.6826,19.791,23.9062,19.5146,23.9062z"/>
	<g>
		<path d="M10.9673,10.2817c-0.9463,0-1.8853-0.1729-2.6143-0.519C7.1558,9.1938,5.1035,9.207,3.8711,9.792
			c-0.249,0.1182-0.5479,0.0122-0.666-0.2373c-0.1187-0.2495-0.0122-0.5474,0.2373-0.666c1.5161-0.7178,3.8599-0.7319,5.3394-0.0293
			c1.1982,0.5693,3.2505,0.5562,4.4819-0.0293c0.248-0.1182,0.5479-0.0127,0.666,0.2373c0.1191,0.249,0.0127,0.5474-0.2363,0.666
			C12.9248,10.0986,11.9419,10.2817,10.9673,10.2817z"/>
	</g>
	<path d="M6.6387,11.0493H5.312c-0.2764,0-0.5-0.2236-0.5-0.5s0.2236-0.5,0.5-0.5h1.3267c0.2764,0,0.5,0.2236,0.5,0.5
		S6.915,11.0493,6.6387,11.0493z"/>
	<path d="M6.6387,12.6611H5.312c-0.2764,0-0.5-0.2236-0.5-0.5s0.2236-0.5,0.5-0.5h1.3267c0.2764,0,0.5,0.2236,0.5,0.5
		S6.915,12.6611,6.6387,12.6611z"/>
	<path d="M6.6387,14.2715H5.312c-0.2764,0-0.5-0.2236-0.5-0.5s0.2236-0.5,0.5-0.5h1.3267c0.2764,0,0.5,0.2236,0.5,0.5
		S6.915,14.2715,6.6387,14.2715z"/>
</g>
<rect x="0.0142" y="0.0346" fill="none" width="24" height="24"/>
</svg>
