<?xml version="1.0" encoding="utf-8"?>
<!-- Generator: Adobe Illustrator 18.1.0, SVG Export Plug-In . SVG Version: 6.00 Build 0)  -->
<svg version="1.1" id="Layer_1" xmlns="http://www.w3.org/2000/svg" xmlns:xlink="http://www.w3.org/1999/xlink" x="0px" y="0px"
	 width="24px" height="24px" viewBox="0 0 24 24" enable-background="new 0 0 24 24" xml:space="preserve">
<g>
	<path d="M11.9971,23.8848c-6.5518,0-11.8823-5.3301-11.8823-11.8818c0-6.5522,5.3306-11.8828,11.8823-11.8828
		s11.8818,5.3306,11.8818,11.8828C23.8789,18.5547,18.5488,23.8848,11.9971,23.8848z M11.9971,1.1201
		c-6.0005,0-10.8823,4.8818-10.8823,10.8828c0,6,4.8818,10.8818,10.8823,10.8818c6,0,10.8818-4.8818,10.8818-10.8818
		C22.8789,6.002,17.9971,1.1201,11.9971,1.1201z"/>
	<path d="M11.999,19.1025c-0.2764,0-0.5-0.2236-0.5-0.5V5.4023c0-0.2764,0.2236-0.5,0.5-0.5s0.5,0.2236,0.5,0.5v13.2002
		C12.499,18.8789,12.2754,19.1025,11.999,19.1025z"/>
	<path d="M18.5986,12.5029H5.3989c-0.2764,0-0.5-0.2236-0.5-0.5s0.2236-0.5,0.5-0.5h13.1997c0.2764,0,0.5,0.2236,0.5,0.5
		S18.875,12.5029,18.5986,12.5029z"/>
</g>
<rect y="0.001" fill="none" width="24" height="24"/>
</svg>
