<?xml version="1.0" encoding="utf-8"?>
<!-- Generator: Adobe Illustrator 18.1.0, SVG Export Plug-In . SVG Version: 6.00 Build 0)  -->
<svg version="1.1" id="Layer_1" xmlns="http://www.w3.org/2000/svg" xmlns:xlink="http://www.w3.org/1999/xlink" x="0px" y="0px"
	 width="24px" height="24px" viewBox="0 0 24 24" enable-background="new 0 0 24 24" xml:space="preserve">
<g>
	<path d="M13.2246,4.5474c-0.1279,0-0.2559-0.0488-0.3535-0.1465l-1.3848-1.3848l-1.3848,1.3848
		c-0.1953,0.1953-0.5117,0.1953-0.707,0s-0.1953-0.5117,0-0.707l1.7383-1.7383c0.1953-0.1953,0.5117-0.1953,0.707,0l1.7383,1.7383
		c0.1953,0.1953,0.1953,0.5117,0,0.707C13.4805,4.4985,13.3525,4.5474,13.2246,4.5474z"/>
	<path d="M11.4863,10.8647c-0.2764,0-0.5-0.2236-0.5-0.5V2.3091c0-0.2764,0.2236-0.5,0.5-0.5s0.5,0.2236,0.5,0.5v8.0557
		C11.9863,10.6411,11.7627,10.8647,11.4863,10.8647z"/>
	<path d="M2.9395,22.1914c-0.043,0-0.0864-0.0059-0.1299-0.0166l-2.3745-0.6367c-0.2666-0.0723-0.4248-0.3457-0.3535-0.6133
		l0.6362-2.374c0.0723-0.2656,0.3472-0.4189,0.6123-0.3535c0.2666,0.0723,0.4248,0.3457,0.3535,0.6133l-0.5068,1.8906l1.8916,0.5068
		c0.2666,0.0723,0.4253,0.3457,0.3535,0.6133C3.3618,22.0439,3.1602,22.1914,2.9395,22.1914z"/>
	<path d="M0.5649,21.5547c-0.1714,0-0.3389-0.0879-0.4316-0.2471c-0.1396-0.2383-0.0601-0.5439,0.1782-0.6846l6.9219-4.0615
		c0.2388-0.1377,0.5444-0.0605,0.6841,0.1787c0.1396,0.2383,0.0601,0.5439-0.1782,0.6846l-6.9219,4.0615
		C0.7378,21.5322,0.6509,21.5547,0.5649,21.5547z"/>
	<path d="M19.9971,22.1914c-0.2207,0-0.4229-0.1475-0.4834-0.3701c-0.0713-0.2666,0.0869-0.541,0.3535-0.6133l1.8916-0.5068
		l-0.5068-1.8916c-0.0713-0.2666,0.0869-0.54,0.3545-0.6123c0.2637-0.0664,0.54,0.0869,0.6123,0.3545l0.6357,2.374
		c0.0713,0.2666-0.0869,0.54-0.3535,0.6123l-2.374,0.6367C20.083,22.1855,20.04,22.1914,19.9971,22.1914z"/>
	<path d="M22.3711,21.5547c-0.0869,0-0.1738-0.0225-0.2539-0.0693l-6.8848-4.0615c-0.2383-0.1406-0.3174-0.4473-0.1768-0.6846
		c0.1416-0.2383,0.4463-0.3154,0.6846-0.1768l6.8848,4.0615c0.2383,0.1406,0.3174,0.4473,0.1768,0.6846
		C22.708,21.4668,22.542,21.5547,22.3711,21.5547z"/>
	<path d="M11.4863,18.9219c-0.1016,0-0.2026-0.0312-0.2881-0.0908c-0.1328-0.0938-0.2119-0.2471-0.2119-0.4092v-5.2012
		c0-0.2109,0.1328-0.3994,0.332-0.4707l4-1.4277c0.1533-0.0542,0.3223-0.0312,0.4561,0.062
		c0.1328,0.0938,0.2119,0.2461,0.2119,0.4087v5.2002c0,0.2109-0.1328,0.3994-0.332,0.4707l-4,1.4287
		C11.5996,18.9121,11.543,18.9219,11.4863,18.9219z M11.9863,13.5732v4.1387l3-1.0713V12.502L11.9863,13.5732z"/>
	<path d="M11.4863,18.9219c-0.0566,0-0.1133-0.0098-0.168-0.0293l-4-1.4287c-0.1992-0.0713-0.332-0.2598-0.332-0.4707V11.793
		c0-0.1626,0.0791-0.3149,0.2119-0.4087c0.1333-0.0933,0.3047-0.1162,0.4561-0.062l4,1.4277
		c0.1992,0.0713,0.332,0.2598,0.332,0.4707v5.2012c0,0.1621-0.0791,0.3154-0.2119,0.4092
		C11.689,18.8906,11.5879,18.9219,11.4863,18.9219z M7.9863,16.6406l3,1.0713v-4.1387l-3-1.0713V16.6406z"/>
	<path fill="none" stroke="#000000" stroke-linecap="round" stroke-linejoin="round" stroke-miterlimit="10" d="M8.0562,11.7857"/>
	<path d="M11.4863,13.7207c-0.0566,0-0.1138-0.0098-0.168-0.0293l-4-1.4277c-0.1992-0.0713-0.332-0.2598-0.332-0.4712
		s0.1333-0.3999,0.333-0.4707l4.0259-1.4282c0.1069-0.0391,0.2261-0.0396,0.3359,0.0005l3.9741,1.4282
		c0.1992,0.0718,0.3311,0.2603,0.3311,0.4712c0,0.2114-0.1328,0.3999-0.332,0.4702l-4,1.4277
		C11.6001,13.7109,11.543,13.7207,11.4863,13.7207z M8.9775,11.7944l2.5088,0.895l2.5176-0.8979l-2.4927-0.896L8.9775,11.7944z"/>
	<path d="M20.6357,9.8477h-1.2451c-0.2764,0-0.5-0.2236-0.5-0.5v-3.687c0-0.2764,0.2236-0.5,0.5-0.5h1.2451
		c0.6758,0,1.2705,0.2681,1.6758,0.7549c0.3516,0.4233,0.5449,0.9858,0.5449,1.5845c0,1.1401-0.7324,2.2939-2.1338,2.3398
		C20.6943,9.8452,20.665,9.8477,20.6357,9.8477z M19.8906,8.8477h0.665c0.0264-0.0044,0.0527-0.0063,0.0801-0.0063
		c0.3838,0,0.6885-0.1328,0.9062-0.395c0.2002-0.2412,0.3145-0.5859,0.3145-0.9463c0-0.4976-0.2568-1.3394-1.2207-1.3394h-0.7451
		V8.8477z"/>
	<path d="M16.7393,9.8047c-0.6797,0-1.373-0.3535-1.6465-0.8755c-0.1279-0.2446-0.0332-0.5469,0.2109-0.6748
		c0.2441-0.1294,0.5479-0.0342,0.6758,0.2109c0.1035,0.1987,0.5547,0.396,0.9131,0.3257c0.2686-0.0488,0.3232-0.21,0.3418-0.3608
		c0.0293-0.2417-0.0479-0.3223-0.0732-0.3491c-0.1621-0.1704-0.5713-0.2021-0.7373-0.1875
		c-0.1914,0.0137-0.3857-0.0898-0.4785-0.2646s-0.0752-0.3877,0.0479-0.5435l0.707-0.897h-1.04c-0.2764,0-0.5-0.2236-0.5-0.5
		s0.2236-0.5,0.5-0.5h2.0703c0.1914,0,0.3662,0.1094,0.4502,0.2817c0.083,0.1724,0.0615,0.3774-0.0576,0.5278l-0.8105,1.0293
		c0.2012,0.0742,0.4023,0.1875,0.5684,0.3599c0.1973,0.2051,0.417,0.5732,0.3457,1.1631c-0.0781,0.6489-0.5098,1.1069-1.1543,1.2246
		C16.9629,9.7949,16.8516,9.8047,16.7393,9.8047z"/>
</g>
<rect x="-0.0137" fill="none" width="24" height="24"/>
</svg>
