<?xml version="1.0" encoding="utf-8"?>
<!-- Generator: Adobe Illustrator 18.1.0, SVG Export Plug-In . SVG Version: 6.00 Build 0)  -->
<svg version="1.1" id="Layer_1" xmlns="http://www.w3.org/2000/svg" xmlns:xlink="http://www.w3.org/1999/xlink" x="0px" y="0px"
	 width="24px" height="24px" viewBox="0 0 24 24" enable-background="new 0 0 24 24" xml:space="preserve">
<g>
	<path d="M11.978,23.8418c-2.6777,0-6.9683-3.0156-7.543-6.8115c-0.8452-0.1992-1.4639-0.9473-1.4639-1.8379
		c0-0.6562,0.3413-1.2598,0.8882-1.6025c0.103-0.6592-0.019-2.0898-0.1021-3.0688C3.7075,9.9375,3.6655,9.4307,3.6655,9.1323
		c0-0.2764,0.2236-0.5,0.5-0.5s0.5,0.2236,0.5,0.5c0,0.2803,0.0415,0.7559,0.0884,1.3042c0.1401,1.6514,0.231,2.9678,0.0181,3.6377
		c-0.0435,0.1357-0.1426,0.2471-0.2725,0.3047c-0.3208,0.1436-0.5283,0.4629-0.5283,0.8135c0,0.4912,0.3999,0.8906,0.8911,0.8906
		c0.2607,0,0.5024,0.1992,0.5229,0.46c0.2686,3.416,4.2402,6.2988,6.5928,6.2988c2.4077,0,6.3198-2.8223,6.5933-6.2988
		c0.0205-0.2617,0.2607-0.459,0.5-0.4609c0.5146,0,0.9131-0.3994,0.9131-0.8896c0-0.3506-0.207-0.6699-0.5283-0.8135
		c-0.126-0.0557-0.2227-0.1621-0.2686-0.292c-0.2129-0.6143,0.0986-1.2812,0.4004-1.9258c0.1953-0.4175,0.3965-0.8486,0.3965-1.1528
		c0-0.2764,0.2236-0.5,0.5-0.5s0.5,0.2236,0.5,0.5c0,0.5264-0.249,1.0601-0.4902,1.5757c-0.1611,0.3438-0.3535,0.7549-0.375,1.0205
		c0.5332,0.3447,0.8652,0.9414,0.8652,1.5879c0,0.8955-0.626,1.6484-1.4639,1.8418C18.9648,20.6836,14.9609,23.8418,11.978,23.8418z
		"/>
	<path d="M14.1602,20.376c-0.2744,0-0.498-0.2217-0.5-0.4971c-0.002-0.2764,0.2207-0.501,0.4971-0.5029
		c4.0527-0.0234,6.1045-0.3516,6.8066-2.1504c0.2246-0.5752,0.251-1.1504,0.0713-1.54c-0.1074-0.2305-0.2822-0.3857-0.5352-0.4727
		c-0.0078-0.0029-0.0938-0.0352-0.1016-0.0381c-0.2744-0.0303-0.4805-0.2783-0.4512-0.5527s0.2715-0.4756,0.543-0.4443
		c0.1396,0.0146,0.208,0.0391,0.2822,0.0693c0.5625,0.1963,0.9492,0.541,1.1699,1.0186c0.2969,0.6406,0.2793,1.4873-0.0469,2.3232
		c-0.9932,2.5459-3.959,2.7646-7.7324,2.7871C14.1621,20.376,14.1611,20.376,14.1602,20.376z"/>
	<path d="M13.3125,21.1084h-0.3496c-0.7422,0-1.3467-0.5527-1.3467-1.2314s0.6045-1.2305,1.3467-1.2305h0.3496
		c0.7432,0,1.3477,0.5518,1.3477,1.2305S14.0557,21.1084,13.3125,21.1084z M12.9629,19.6465c-0.2041,0-0.3467,0.1211-0.3467,0.2305
		s0.1426,0.2314,0.3467,0.2314h0.3496c0.2051,0,0.3477-0.1221,0.3477-0.2314c0-0.1084-0.1484-0.2305-0.3477-0.2305H12.9629z"/>
	<path d="M10.8145,20.0391h-0.7148c-0.2764,0-0.5-0.2236-0.5-0.5s0.2236-0.5,0.5-0.5h0.7148c0.2764,0,0.5,0.2236,0.5,0.5
		S11.0908,20.0391,10.8145,20.0391z"/>
	<path d="M2.4722,11.9243c-0.0293,0-0.0596-0.0024-0.0894-0.0083c-0.2212-0.04-0.3882-0.2227-0.4087-0.4463
		c-0.019-0.2095-0.436-5.1787,2.5981-8.5034c1.7241-1.8892,4.2021-2.8472,7.3652-2.8472c3.5811,0,6.2432,1.0347,7.9121,3.0752
		c2.6875,3.2861,1.7852,7.9326,1.7461,8.1289c-0.0293,0.1431-0.1191,0.2661-0.2461,0.3374
		c-0.1279,0.0708-0.2803,0.0825-0.416,0.0327c-0.0566-0.0205-5.709-2.0791-9.5991-2.0791c-1.5674,0-2.5942,0.3252-3.0518,0.9658
		c-0.5127,0.7183-0.9258,1.0386-1.3389,1.0386c-0.0005,0-0.0005,0-0.0005,0c-0.3438,0-0.6265-0.2261-0.7563-0.6055
		C5.9536,10.333,6.1421,8.8604,6.6128,7.5137c-1.3667,1.1582-3.02,2.7446-3.6909,4.1289
		C2.8374,11.8169,2.6611,11.9243,2.4722,11.9243z M11.3345,8.6143c3.3579,0,7.7837,1.3984,9.3618,1.936
		c0.1387-1.2827,0.2461-4.4448-1.625-6.7275c-1.4697-1.7939-3.8701-2.7036-7.1338-2.7036c-2.8706,0-5.0996,0.8481-6.6265,2.521
		C3.5898,5.5264,3.1055,8.0776,2.9844,9.7261c1.8442-2.3247,4.9751-4.5522,5.1348-4.665c0.2217-0.1587,0.5273-0.1084,0.6904,0.1108
		c0.1616,0.2183,0.1191,0.5259-0.0957,0.6924C7.7002,6.6504,6.9907,9.5205,7.083,10.4751c0.0889-0.0923,0.2178-0.2402,0.3862-0.4761
		C8.125,9.0801,9.4258,8.6143,11.3345,8.6143z"/>
	<path d="M9.9546,14.0254H8.9819c-0.2764,0-0.5-0.2236-0.5-0.5s0.2236-0.5,0.5-0.5h0.9727c0.2764,0,0.5,0.2236,0.5,0.5
		S10.231,14.0254,9.9546,14.0254z"/>
	<path d="M15,14.0254h-0.9736c-0.2764,0-0.5-0.2236-0.5-0.5s0.2236-0.5,0.5-0.5H15c0.2764,0,0.5,0.2236,0.5,0.5
		S15.2764,14.0254,15,14.0254z"/>
</g>
<rect x="0.0005" y="0.0004" fill="none" width="24" height="24"/>
</svg>
