<?xml version="1.0" encoding="utf-8"?>
<!-- Generator: Adobe Illustrator 18.1.0, SVG Export Plug-In . SVG Version: 6.00 Build 0)  -->
<svg version="1.1" id="Layer_1" xmlns="http://www.w3.org/2000/svg" xmlns:xlink="http://www.w3.org/1999/xlink" x="0px" y="0px"
	 width="24px" height="24px" viewBox="0 0 24 24" enable-background="new 0 0 24 24" xml:space="preserve">
<g>
	<path d="M10.1338,11.7402c-0.1011,0-0.2036-0.0308-0.292-0.0947c-0.2241-0.1611-0.2744-0.4736-0.1133-0.6978l0.8188-1.1353
		c0.1611-0.2246,0.4736-0.2749,0.6982-0.1133c0.2241,0.1616,0.2744,0.4741,0.1133,0.6982L10.54,11.5327
		C10.4419,11.6685,10.2891,11.7402,10.1338,11.7402z"/>
	<path d="M13.0967,7.5571c-0.1006,0-0.2012-0.0298-0.2891-0.0918c-0.2256-0.1597-0.2783-0.4717-0.1191-0.6973l4.5518-6.4272
		c0.1602-0.2261,0.4727-0.2769,0.6973-0.1191c0.2256,0.1597,0.2783,0.4717,0.1191,0.6973l-4.5518,6.4272
		C13.4072,7.4839,13.2529,7.5571,13.0967,7.5571z"/>
	<path d="M11.5181,16.124c-0.1782,0.0088-0.2881-0.0654-0.3833-0.1787L1.8423,4.8599C1.7178,4.7109,1.6904,4.5034,1.7725,4.3271
		s0.2588-0.2886,0.4531-0.2886h18.8389c0.1953,0,0.373,0.1138,0.4541,0.2915c0.082,0.1777,0.0527,0.3867-0.0752,0.5347
		L11.897,15.9502C11.8018,16.0605,11.6636,16.124,11.5181,16.124z M3.2974,5.0386l8.2261,9.813l8.4502-9.813H3.2974z"/>
	<path d="M11.5181,24.0352c-0.2764,0-0.5-0.2236-0.5-0.5V15.624c0-0.2764,0.2236-0.5,0.5-0.5s0.4995,0.2236,0.4995,0.5v7.9111
		C12.0176,23.8115,11.7944,24.0352,11.5181,24.0352z"/>
	<path d="M17.3174,24.0352H5.7188c-0.2764,0-0.5-0.2236-0.5-0.5s0.2236-0.5,0.5-0.5h11.5986c0.2764,0,0.5,0.2236,0.5,0.5
		S17.5938,24.0352,17.3174,24.0352z"/>
	<path d="M11.7754,10.8486c-0.397,0-0.7769-0.1138-1.0996-0.3286c-0.4844-0.3223-0.7954-0.8354-0.876-1.4443
		c-0.0771-0.584,0.0693-1.1899,0.4126-1.7051c0.6943-1.0449,2.1362-1.4185,3.0854-0.7881c0.4844,0.3232,0.7959,0.8359,0.876,1.4453
		c0.0771,0.584-0.0693,1.1895-0.4131,1.7051C13.3027,10.4209,12.542,10.8486,11.7754,10.8486z M12.1982,7.2544
		c-0.4365,0-0.8784,0.2568-1.1538,0.6699c-0.2085,0.314-0.2988,0.6763-0.2534,1.0205c0.0425,0.3188,0.1982,0.5825,0.439,0.7427
		c0.5063,0.3369,1.2954,0.0952,1.6987-0.5088c0.209-0.314,0.2988-0.6763,0.2539-1.02c-0.042-0.3188-0.1982-0.583-0.4395-0.7437
		C12.583,7.3086,12.3994,7.2544,12.1982,7.2544z"/>
</g>
<rect x="0.0142" y="0.0346" fill="none" width="24" height="24"/>
</svg>
