<?xml version="1.0" encoding="utf-8"?>
<!-- Generator: Adobe Illustrator 18.1.0, SVG Export Plug-In . SVG Version: 6.00 Build 0)  -->
<svg version="1.1" id="Layer_1" xmlns="http://www.w3.org/2000/svg" xmlns:xlink="http://www.w3.org/1999/xlink" x="0px" y="0px"
	 width="24px" height="24px" viewBox="0 0 24 24" enable-background="new 0 0 24 24" xml:space="preserve">
<g>
	<path d="M21.4668,17.9541c-1.3047,0-2.3662-1.0615-2.3662-2.3662c0-0.6113,1.6611-4.4731,2.3662-4.4731
		s2.3662,3.8618,2.3662,4.4731C23.833,16.8926,22.7715,17.9541,21.4668,17.9541z M21.4668,12.5498
		c-0.5342,0.9111-1.3662,2.4824-1.3662,3.0381c0,0.7529,0.6133,1.3662,1.3662,1.3662s1.3662-0.6133,1.3662-1.3662
		C22.833,15.0322,22.001,13.4609,21.4668,12.5498z"/>
	<path d="M7.4863,10c-0.2764,0-0.5-0.2236-0.5-0.5v-2c0-0.2764,0.2236-0.5,0.5-0.5s0.5,0.2236,0.5,0.5v2
		C7.9863,9.7764,7.7627,10,7.4863,10z"/>
	<path d="M8.9863,8h-3c-0.2764,0-0.5-0.2236-0.5-0.5S5.71,7,5.9863,7h3c0.2764,0,0.5,0.2236,0.5,0.5S9.2627,8,8.9863,8z"/>
	<g>
		<path d="M17.7783,9.4624c-0.2764,0-0.5049-0.2236-0.5049-0.5s0.2188-0.5,0.4941-0.5h0.0107c0.2754,0,0.5,0.2236,0.5,0.5
			S18.0537,9.4624,17.7783,9.4624z"/>
		<path d="M21.4688,10.0991c-0.126,0-0.2529-0.0474-0.3496-0.1431l-1.0801-1.0581l-2.168,0.5493
			c-0.2705,0.0664-0.541-0.0957-0.6074-0.3623c-0.0684-0.2676,0.0938-0.5396,0.3613-0.6074l2.4404-0.6182
			c0.1699-0.042,0.3486,0.0059,0.4727,0.1279l1.2803,1.2549c0.1973,0.1934,0.2012,0.5098,0.0078,0.707
			C21.7275,10.0488,21.5986,10.0991,21.4688,10.0991z"/>
	</g>
	<path d="M12.5576,16H4.4863c-0.2617,0-0.4795-0.2021-0.4985-0.4629l-0.436-5.9062C3.5464,9.6011,3.5435,9.5708,3.5435,9.5396
		c0-0.3511-0.2271-0.6597-0.5781-0.7866L1.0723,8.21C0.8071,8.1338,0.6538,7.8569,0.73,7.5913
		C0.8062,7.3262,1.0811,7.1738,1.3486,7.249l1.9243,0.5532C3.8687,8.0161,4.2925,8.4585,4.4619,9h6.2212
		c0.1216,0,0.2393,0.0444,0.3306,0.1245l0.8691,0.7651l5.7451-1.4194C17.8301,8.4219,18.04,8.5,18.1582,8.6699
		c0.1182,0.1704,0.1201,0.3955,0.0029,0.5669l-4.0605,5.9644C13.7617,15.7012,13.1846,16,12.5576,16z M4.9507,15h7.6069
		c0.2949,0,0.5625-0.1348,0.7158-0.3613l3.3262-4.8843l-4.731,1.1689c-0.1597,0.0396-0.3276-0.0015-0.4507-0.1099L10.4941,10H4.5815
		L4.9507,15z"/>
</g>
<rect x="-0.0136" fill="none" width="24" height="24"/>
</svg>
