<?xml version="1.0" encoding="utf-8"?>
<!-- Generator: Adobe Illustrator 18.1.0, SVG Export Plug-In . SVG Version: 6.00 Build 0)  -->
<svg version="1.1" id="Layer_1" xmlns="http://www.w3.org/2000/svg" xmlns:xlink="http://www.w3.org/1999/xlink" x="0px" y="0px"
	 width="24px" height="24px" viewBox="0 0 24 24" enable-background="new 0 0 24 24" xml:space="preserve">
<g>
	<path d="M11.7485,21.5596c-0.3257,0-0.6753-0.1221-1.0693-0.375L5.0693,17H1.0811c-0.6299,0-1.1045-0.4521-1.1045-1.0518v-7.853
		C-0.0234,7.4912,0.4722,7,1.0811,7H4.96l5.6943-4.1611c1.4385-0.9263,2.2705,0.0615,2.3213,1.0088l0.001,16.3057
		C12.9395,20.8447,12.5391,21.5596,11.7485,21.5596z M1.0811,8C1.0293,8,0.9766,8.0327,0.9766,8.0952v7.853
		C0.9766,15.9951,1.0498,16,1.0811,16h4.1543c0.1079,0,0.2129,0.0352,0.2988,0.0996l5.7139,4.2637
		c0.2769,0.1758,0.4434,0.1963,0.5005,0.1963c0.1836,0,0.2285-0.4326,0.229-0.4375L11.9766,3.876l0,0
		c-0.002,0-0.0508-0.4268-0.2349-0.4268c-0.0566,0-0.2207,0.021-0.5225,0.2144L5.418,7.9038C5.3325,7.9663,5.229,8,5.123,8H1.0811z"
		/>
	<path d="M14.4219,14.9404c-0.1387,0-0.2773-0.0576-0.376-0.1699c-0.1816-0.208-0.1611-0.5234,0.0459-0.7061
		c0.5938-0.5205,0.9336-1.2676,0.9336-2.0498c0-0.7832-0.3398-1.5308-0.9336-2.0508c-0.207-0.1821-0.2275-0.498-0.0459-0.7056
		c0.1816-0.208,0.4971-0.2275,0.7061-0.0464c0.8096,0.71,1.2734,1.7314,1.2734,2.8027c0,1.0703-0.4639,2.0918-1.2734,2.8018
		C14.6562,14.8994,14.5391,14.9404,14.4219,14.9404z"/>
</g>
<rect x="-0.0137" y="0.0002" fill="none" width="24" height="24"/>
</svg>
