<?xml version="1.0" encoding="utf-8"?>
<!-- Generator: Adobe Illustrator 18.1.0, SVG Export Plug-In . SVG Version: 6.00 Build 0)  -->
<svg version="1.1" id="Layer_1" xmlns="http://www.w3.org/2000/svg" xmlns:xlink="http://www.w3.org/1999/xlink" x="0px" y="0px"
	 width="24px" height="24px" viewBox="0 0 24 24" enable-background="new 0 0 24 24" xml:space="preserve">
<g>
	<path d="M19.0508,19.7676c-0.0518,0-0.1689-0.0176-0.2178-0.0332L0.6572,14.0596c-0.2837-0.0908-0.4819-0.3389-0.5088-0.6328
		c-0.0239-0.3047,0.1333-0.584,0.3994-0.7168L22.8643,1.2979c0.2354-0.1235,0.5605-0.0977,0.7822,0.0752
		c0.2236,0.1787,0.3242,0.4692,0.2607,0.7437L19.7607,19.21c-0.0459,0.1924-0.1729,0.3613-0.3477,0.4619
		C19.2979,19.7354,19.1748,19.7676,19.0508,19.7676z M1.5864,13.3018l17.27,5.3926l3.9395-16.2383L1.5864,13.3018z"/>
	<path d="M10.4756,23.7979c-0.0977,0-0.1938-0.0283-0.2754-0.0801c-0.1592-0.085-0.3354-0.2588-0.3184-0.625l-0.002-6.5977
		c0-0.2764,0.2236-0.5,0.5-0.5l0,0c0.2759,0,0.5,0.2236,0.5,0.5l0.0024,5.499l3.1206-4.4209
		c0.1582-0.2275,0.4727-0.2803,0.6963-0.1201c0.2256,0.1592,0.2793,0.4707,0.1201,0.6963l-3.7588,5.3262
		C10.8828,23.7539,10.6172,23.7979,10.4756,23.7979z"/>
	<path d="M10.3799,16.9951c-0.1191,0-0.2383-0.042-0.3335-0.1279c-0.2061-0.1836-0.2231-0.5-0.0391-0.7061l8.1763-9.1216
		c0.1855-0.2061,0.501-0.2222,0.7061-0.0391c0.2051,0.1846,0.2227,0.5005,0.0381,0.7061l-8.1753,9.1226
		C10.6533,16.9395,10.5171,16.9951,10.3799,16.9951z"/>
</g>
<rect fill="none" width="24" height="24"/>
</svg>
