<?xml version="1.0" encoding="utf-8"?>
<!-- Generator: Adobe Illustrator 18.1.0, SVG Export Plug-In . SVG Version: 6.00 Build 0)  -->
<svg version="1.1" id="Layer_1" xmlns="http://www.w3.org/2000/svg" xmlns:xlink="http://www.w3.org/1999/xlink" x="0px" y="0px"
	 width="24px" height="24px" viewBox="0 0 24 24" enable-background="new 0 0 24 24" xml:space="preserve">
<g>
	<path d="M13.3857,11h-2.7603c-0.2764,0-0.5-0.2236-0.5-0.5s0.2236-0.5,0.5-0.5h2.7603c0.2764,0,0.5,0.2236,0.5,0.5
		S13.6621,11,13.3857,11z"/>
	<path d="M12.0059,12.3467c-0.2764,0-0.5-0.2236-0.5-0.5V9.1528c0-0.2764,0.2236-0.5,0.5-0.5s0.5,0.2236,0.5,0.5v2.6938
		C12.5059,12.123,12.2822,12.3467,12.0059,12.3467z"/>
	<path d="M13.3857,15.9883h-2.7603c-0.2764,0-0.5-0.2236-0.5-0.5s0.2236-0.5,0.5-0.5h2.7603c0.2764,0,0.5,0.2236,0.5,0.5
		S13.6621,15.9883,13.3857,15.9883z"/>
	<path d="M2.0786,9.626c-0.0459,0-0.0933-0.0063-0.1401-0.02c-0.2651-0.0771-0.417-0.355-0.3398-0.6201
		c1.3306-4.5615,5.5771-7.7476,10.3276-7.7476s8.9976,3.186,10.3276,7.7476c0.0771,0.2651-0.0752,0.543-0.3408,0.6201
		c-0.2695,0.0767-0.542-0.0757-0.6201-0.3398c-1.2061-4.1382-5.0576-7.0278-9.3667-7.0278c-4.3086,0-8.1606,2.8896-9.3677,7.0278
		C2.4951,9.4844,2.2954,9.626,2.0786,9.626z"/>
	<path d="M21.7734,9.626c-0.0615,0-0.123-0.0112-0.1807-0.0337l-3.5234-1.3687c-0.2578-0.1001-0.3857-0.3901-0.2852-0.6475
		c0.0986-0.2573,0.3887-0.3838,0.6465-0.2852l3.0576,1.188l1.1875-3.0576c0.0996-0.2578,0.3887-0.3843,0.6465-0.2852
		c0.2578,0.1001,0.3857,0.3896,0.2852,0.6475l-1.3682,3.5234c-0.0479,0.1235-0.1426,0.2231-0.2646,0.2764
		C21.9111,9.6118,21.8418,9.626,21.7734,9.626z"/>
	<path d="M12.0059,22.7656c-4.75,0-8.9971-3.1855-10.3276-7.748c-0.0771-0.2646,0.0747-0.542,0.3398-0.6201
		c0.2671-0.0732,0.5435,0.0752,0.6201,0.3408c1.207,4.1377,5.0591,7.0273,9.3677,7.0273c4.3076,0,8.1602-2.8896,9.3682-7.0273
		c0.0762-0.2656,0.3564-0.4141,0.6191-0.3408c0.2656,0.0781,0.418,0.3555,0.3408,0.6201
		C21.002,19.5801,16.7559,22.7656,12.0059,22.7656z"/>
	<path d="M0.79,18.9014c-0.0605,0-0.1216-0.0107-0.1812-0.0342c-0.2573-0.0996-0.3848-0.3896-0.2852-0.6465l1.3682-3.5234
		c0.1006-0.2588,0.3911-0.3867,0.6475-0.2852l3.5234,1.3682c0.2573,0.0996,0.3848,0.3896,0.2852,0.6465
		c-0.1006,0.2588-0.3916,0.3857-0.6475,0.2852l-3.0571-1.1865l-1.187,3.0566C1.1792,18.7803,0.9902,18.9014,0.79,18.9014z"/>
	<path d="M15.501,19H8.5005c-0.2764,0-0.5-0.2236-0.5-0.5v-12c0-0.2764,0.2236-0.5,0.5-0.5h1.5V5.5c0-0.2764,0.2236-0.5,0.5-0.5
		h3.0005c0.2764,0,0.5,0.2236,0.5,0.5V6h1.5c0.2764,0,0.5,0.2236,0.5,0.5v12C16.001,18.7764,15.7773,19,15.501,19z M9.0005,18
		h6.0005V7h-1.5c-0.2764,0-0.5-0.2236-0.5-0.5V6h-2.0005v0.5c0,0.2764-0.2236,0.5-0.5,0.5h-1.5V18z"/>
</g>
<rect x="0.0005" fill="none" width="24" height="24"/>
</svg>
