<?xml version="1.0" encoding="utf-8"?>
<!-- Generator: Adobe Illustrator 18.1.0, SVG Export Plug-In . SVG Version: 6.00 Build 0)  -->
<svg version="1.1" id="Layer_1" xmlns="http://www.w3.org/2000/svg" xmlns:xlink="http://www.w3.org/1999/xlink" x="0px" y="0px"
	 width="24px" height="24px" viewBox="0 0 24 24" enable-background="new 0 0 24 24" xml:space="preserve">
<g>
	<path d="M23,21.0195H1c-0.2764,0-0.5-0.2236-0.5-0.5s0.2236-0.5,0.5-0.5h22c0.2764,0,0.5,0.2236,0.5,0.5
		S23.2764,21.0195,23,21.0195z"/>
	<path d="M20.8975,24.0195H3.1064c-0.1899,0-0.3633-0.1074-0.4478-0.2773l-0.7925-1.5928c-0.123-0.2471-0.022-0.5469,0.2251-0.6699
		c0.2471-0.126,0.5479-0.0225,0.6704,0.2246l0.6543,1.3154h17.1699l0.6553-1.3311c0.1221-0.2471,0.4219-0.3486,0.6689-0.2275
		c0.248,0.1211,0.3496,0.4209,0.2275,0.6689l-0.792,1.6104C21.2617,23.9111,21.0879,24.0195,20.8975,24.0195z"/>
	<path d="M19.6797,21.0195c-0.123,0-0.2461-0.0449-0.3428-0.1357c-0.2012-0.1895-0.2109-0.5059-0.0215-0.707
		c2.6045-2.7705,2.8662-3.9102,1.2744-5.54c-0.1934-0.1982-0.1895-0.5146,0.0078-0.707c0.1992-0.1934,0.5156-0.1875,0.707,0.0078
		c2.248,2.3018,1.291,4.21-1.2607,6.9248C19.9453,20.9668,19.8125,21.0195,19.6797,21.0195z"/>
	<path d="M2.6191,21.0195c-0.1445,0-0.2876-0.0625-0.3862-0.1826c-0.0698-0.084-1.6948-2.085-1.2319-3.9697
		c0.2334-0.9521,0.936-1.6816,2.0874-2.1689c1.5747-0.668,2.8584-1.4658,4.0996-2.2383c1.7007-1.0576,3.1699-1.9717,4.9243-2.25
		c1.9346-0.3081,3.8105-0.1851,5.4287,0.354c0.2617,0.0874,0.4033,0.3706,0.3164,0.6323c-0.0879,0.2622-0.3711,0.4019-0.6328,0.3169
		c-1.4453-0.4819-3.2031-0.5933-4.9561-0.3159c-1.5542,0.2471-2.9434,1.1113-4.5522,2.1123
		c-1.2148,0.7549-2.5913,1.6113-4.2383,2.3086c-0.8447,0.3584-1.3516,0.8584-1.5059,1.4873
		c-0.2861,1.1641,0.6484,2.6299,1.0322,3.0967c0.1758,0.2129,0.1455,0.5273-0.0679,0.7031
		C2.8433,20.9824,2.731,21.0195,2.6191,21.0195z"/>
	<path d="M10.1079,18.7842c-0.0151,0-0.0303-0.001-0.0459-0.002c-0.2749-0.0254-0.4775-0.2686-0.4526-0.543
		c0.1641-1.8027,0.8472-3.1426,2.0303-3.9854c1.7949-1.2773,4.1689-0.9883,4.9814-0.8398l2.7373-2.7368
		c-0.1445-0.2124-0.2354-0.459-0.2617-0.7217c-0.0459-0.4658,0.1172-0.9229,0.4482-1.2529c0.5215-0.522,1.2949-0.6089,1.9199-0.2173
		c0.4141,0.2578,0.6689,0.6641,0.7256,1.1113c0.4463,0.0566,0.8525,0.3115,1.1113,0.7256c0.3906,0.627,0.3037,1.3989-0.2178,1.9199
		c-0.3242,0.3252-0.7715,0.4932-1.2295,0.4502c-0.2588-0.0205-0.5039-0.1064-0.7158-0.2451l-2.542,2.541
		c0.3027,0.3096,0.498,0.6768,0.585,1.0986c0.248,1.2188-0.5605,2.4277-0.5957,2.4785c-0.1543,0.2266-0.4619,0.2871-0.6924,0.1328
		c-0.2285-0.1543-0.2891-0.4648-0.1348-0.6943c0.0059-0.0088,0.6084-0.918,0.4414-1.7207
		c-0.0703-0.3398-0.2725-0.6143-0.6191-0.8359c-0.127-0.082-0.21-0.2168-0.2266-0.3672s0.0361-0.3008,0.1436-0.4072l3.2734-3.2729
		c0.1035-0.1035,0.251-0.1572,0.3945-0.1445c0.1465,0.0117,0.2803,0.0879,0.3662,0.2075c0.0977,0.1372,0.2412,0.2197,0.4053,0.2334
		c0.1641,0.0132,0.3232-0.0449,0.4395-0.1611c0.2285-0.228,0.1885-0.5029,0.0762-0.6836c-0.1123-0.1812-0.3389-0.3379-0.6494-0.2334
		c-0.1777,0.0625-0.3799,0.0156-0.5156-0.1196c-0.1348-0.1348-0.1816-0.335-0.1191-0.5156
		c0.1045-0.3062-0.0518-0.5361-0.2334-0.6494c-0.1797-0.1123-0.4551-0.1548-0.6836,0.0762
		c-0.1182,0.1182-0.1758,0.2808-0.1602,0.4473c0.0166,0.1665,0.1064,0.3154,0.2461,0.4087c0.125,0.083,0.2051,0.2178,0.2197,0.3667
		c0.0156,0.1489-0.0371,0.2969-0.1436,0.4028l-3.2764,3.2764c-0.124,0.124-0.3027,0.1729-0.4736,0.1318
		c-0.0254-0.0059-2.6787-0.6357-4.4482,0.6279c-0.9326,0.666-1.4746,1.7617-1.6104,3.2578
		C10.5815,18.5889,10.3638,18.7842,10.1079,18.7842z"/>
	<path d="M11.6104,9.0054c-0.0132,0-0.0264-0.0005-0.0396-0.0015c-0.3926-0.0312-1.1382-0.2666-1.4429-0.9526
		c-0.3594-0.8091-0.0044-1.8911,1.0859-3.3066c1.2773-1.6587,1.2197-2.4014,1.1357-2.6436
		c-0.0869-0.248-0.3086-0.3184-0.3105-0.3188c-0.2681-0.0674-0.4302-0.3394-0.3628-0.6069
		c0.0669-0.2676,0.3354-0.4326,0.6069-0.3628c0.0762,0.019,0.75,0.209,1.0107,0.9609c0.3027,0.873-0.1309,2.0781-1.2881,3.5815
		C10.876,6.8228,10.9541,7.4429,11.04,7.6416c0.1348,0.311,0.6084,0.3652,0.6133,0.3657c0.2729,0.0264,0.4766,0.2681,0.4521,0.5415
		C12.083,8.8091,11.8667,9.0054,11.6104,9.0054z"/>
	<path d="M15.3984,7.9326c-0.0127,0-0.0254-0.0005-0.0391-0.0015c-0.0752-0.0059-0.7383-0.0747-1.0029-0.6699
		c-0.2393-0.54-0.0283-1.228,0.6455-2.103c0.6982-0.9067,0.627-1.2593,0.6162-1.2969c-0.2676-0.0674-0.4443-0.3652-0.377-0.6328
		c0.0684-0.2676,0.3242-0.4575,0.5928-0.3882c0.2471,0.0625,0.5859,0.2793,0.7266,0.686c0.2002,0.5781-0.0498,1.3115-0.7656,2.2422
		c-0.6279,0.8145-0.5254,1.0835-0.5244,1.0859c0.0156,0.0366,0.1152,0.0737,0.1748,0.0806
		c0.2715,0.0312,0.4717,0.2739,0.4453,0.5454C15.8662,7.7383,15.6533,7.9326,15.3984,7.9326z"/>
	<path d="M6.521,9.9863c-0.0132,0-0.0264-0.0005-0.0396-0.0015C6.4067,9.979,5.7437,9.9102,5.4795,9.3154
		c-0.2397-0.54-0.0288-1.228,0.645-2.1035c0.7144-0.9277,0.626-1.2686,0.6138-1.3042c-0.2681-0.0679-0.4434-0.3613-0.376-0.6294
		C6.4302,5.0103,6.6865,4.8301,6.9565,4.894c0.2471,0.0625,0.5854,0.2798,0.7266,0.686c0.2002,0.5786-0.0503,1.312-0.7666,2.2422
		C6.3931,8.502,6.3613,8.8374,6.3931,8.9092c0.0186,0.0415,0.1392,0.0767,0.1665,0.0786C6.835,9.0093,7.0405,9.25,7.019,9.5254
		C6.9985,9.7876,6.7793,9.9863,6.521,9.9863z"/>
</g>
<rect y="0.0197" fill="none" width="24" height="24"/>
</svg>
