<?xml version="1.0" encoding="utf-8"?>
<!-- Generator: Adobe Illustrator 18.1.0, SVG Export Plug-In . SVG Version: 6.00 Build 0)  -->
<svg version="1.1" id="Layer_1" xmlns="http://www.w3.org/2000/svg" xmlns:xlink="http://www.w3.org/1999/xlink" x="0px" y="0px"
	 width="24px" height="24px" viewBox="0 0 24 24" enable-background="new 0 0 24 24" xml:space="preserve">
<g>
	<path d="M16.0215,17.541c-0.1279,0-0.2559-0.0488-0.3535-0.1465L7.625,9.3511c-0.1953-0.1953-0.1953-0.5117,0-0.707
		s0.5117-0.1953,0.707,0l8.043,8.0435c0.1953,0.1953,0.1953,0.5117,0,0.707C16.2773,17.4922,16.1494,17.541,16.0215,17.541z"/>
	<path d="M7.9785,17.541c-0.1279,0-0.2559-0.0488-0.3535-0.1465c-0.1953-0.1953-0.1953-0.5117,0-0.707l8.043-8.0435
		c0.1953-0.1953,0.5117-0.1953,0.707,0s0.1953,0.5117,0,0.707l-8.043,8.0435C8.2344,17.4922,8.1064,17.541,7.9785,17.541z"/>
	<path d="M20.5146,5h-4c-0.2764,0-0.5-0.2236-0.5-0.5v-4c0-0.2764,0.2236-0.5,0.5-0.5s0.5,0.2236,0.5,0.5V4h3.5
		c0.2764,0,0.5,0.2236,0.5,0.5S20.791,5,20.5146,5z"/>
	<path d="M19.7227,24H4.3018c-0.71,0-1.2876-0.583-1.2876-1.2998V1.3057C3.0142,0.5859,3.5918,0,4.3018,0h12.2129
		c0.418,0,0.6406,0.2192,0.8027,0.3789l3.3125,3.269c0.1787,0.1763,0.3848,0.4326,0.3848,0.8521v18.2002
		C21.0146,23.417,20.4355,24,19.7227,24z M16.5078,0.9932L4.3018,1C4.146,1,4.0142,1.1401,4.0142,1.3057v21.3945
		C4.0142,22.8623,4.146,23,4.3018,23h15.4209c0.1582,0,0.292-0.1377,0.292-0.2998V4.5c0-0.0347,0-0.0542-0.0869-0.1396
		l-3.3135-3.2695C16.5869,1.063,16.5283,1.0054,16.5078,0.9932z"/>
	<path d="M16.0215,17.541c-0.1279,0-0.2559-0.0488-0.3535-0.1465L7.625,9.3511c-0.1953-0.1953-0.1953-0.5117,0-0.707
		s0.5117-0.1953,0.707,0l8.043,8.0435c0.1953,0.1953,0.1953,0.5117,0,0.707C16.2773,17.4922,16.1494,17.541,16.0215,17.541z"/>
	<path d="M7.9785,17.541c-0.1279,0-0.2559-0.0488-0.3535-0.1465c-0.1953-0.1953-0.1953-0.5117,0-0.707l8.043-8.0435
		c0.1953-0.1953,0.5117-0.1953,0.707,0s0.1953,0.5117,0,0.707l-8.043,8.0435C8.2344,17.4922,8.1064,17.541,7.9785,17.541z"/>
</g>
<rect y="0.0001" fill="none" width="24" height="24"/>
</svg>
