<?xml version="1.0" encoding="utf-8"?>
<!-- Generator: Adobe Illustrator 18.1.0, SVG Export Plug-In . SVG Version: 6.00 Build 0)  -->
<svg version="1.1" id="Layer_1" xmlns="http://www.w3.org/2000/svg" xmlns:xlink="http://www.w3.org/1999/xlink" x="0px" y="0px"
	 width="24px" height="24px" viewBox="0 0 24 24" enable-background="new 0 0 24 24" xml:space="preserve">
<g>
	<path d="M23.3984,24.0029H0.5542c-0.2764,0-0.5-0.2236-0.5-0.5s0.2236-0.5,0.5-0.5h22.8442c0.2764,0,0.5,0.2236,0.5,0.5
		S23.6748,24.0029,23.3984,24.0029z"/>
	<path d="M21.4238,24.0029c-0.0049,0.001-0.0127,0-0.0195,0H2.8511c-0.1602,0-0.3105-0.0762-0.4048-0.2061
		c-0.0938-0.1299-0.1201-0.2959-0.0708-0.4482l7.479-23.002c0.0669-0.2056,0.2588-0.3452,0.4756-0.3452h3.5947
		c0.2168,0,0.4082,0.1396,0.4756,0.3452l7.4395,22.877c0.0527,0.0801,0.084,0.1758,0.084,0.2793
		C21.9238,23.7793,21.7002,24.0029,21.4238,24.0029z M3.5396,23.0029h17.1763L13.5615,1.0015h-2.8682L3.5396,23.0029z"/>
	<path d="M7.3823,10.0669c-0.1948,0-0.3804-0.1147-0.4609-0.3062C6.8145,9.5063,6.9336,9.2134,7.1885,9.106l8.3467-3.5146
		c0.2559-0.1064,0.5479,0.0127,0.6553,0.2671s-0.0127,0.5474-0.2666,0.6548l-8.3477,3.5146
		C7.5132,10.0542,7.4473,10.0669,7.3823,10.0669z"/>
	<path d="M8.8032,5.6968c-0.1948,0-0.3804-0.1147-0.4609-0.3062C8.2354,5.1362,8.3545,4.8433,8.6094,4.7358l5.8477-2.4619
		c0.2568-0.105,0.5479,0.0127,0.6553,0.2671s-0.0127,0.5474-0.2666,0.6548L8.9971,5.6577C8.9341,5.6841,8.8682,5.6968,8.8032,5.6968
		z"/>
	<path d="M3.7847,21.1309c-0.1948,0-0.3804-0.1152-0.4609-0.3057c-0.1069-0.2549,0.0122-0.5479,0.2671-0.6553l14.6758-6.1787
		c0.2559-0.1055,0.5479,0.0137,0.6553,0.2666c0.1074,0.2549-0.0127,0.5479-0.2666,0.6553L3.9785,21.0918
		C3.9155,21.1182,3.8496,21.1309,3.7847,21.1309z"/>
	<path d="M5.2056,16.7617c-0.1948,0-0.3804-0.1152-0.4609-0.3057c-0.1069-0.2549,0.0122-0.5479,0.2671-0.6553l12.1768-5.127
		c0.2568-0.106,0.5479,0.0132,0.6553,0.2671c0.1074,0.2544-0.0127,0.5474-0.2666,0.6548l-12.1777,5.127
		C5.3364,16.749,5.2705,16.7617,5.2056,16.7617z"/>
	<path d="M11.3984,24.0029c-0.1948,0-0.3804-0.1152-0.4609-0.3057c-0.1069-0.2549,0.0122-0.5479,0.2671-0.6553l8.8003-3.7051
		c0.2568-0.1064,0.5479,0.0127,0.6553,0.2666c0.1074,0.2549-0.0127,0.5479-0.2666,0.6553l-8.8013,3.7051
		C11.5293,23.9902,11.4634,24.0029,11.3984,24.0029z"/>
</g>
<rect x="-0.0227" y="0.0002" fill="none" width="24" height="24"/>
</svg>
