<?xml version="1.0" encoding="utf-8"?>
<!-- Generator: Adobe Illustrator 18.1.0, SVG Export Plug-In . SVG Version: 6.00 Build 0)  -->
<svg version="1.1" id="Layer_1" xmlns="http://www.w3.org/2000/svg" xmlns:xlink="http://www.w3.org/1999/xlink" x="0px" y="0px"
	 width="24px" height="24px" viewBox="0 0 24 24" enable-background="new 0 0 24 24" xml:space="preserve">
<g>
	<path d="M22.1221,23.8271c-0.4375,0.001-0.874-0.166-1.2061-0.498l-6.4756-6.4756c-0.1953-0.1953-0.1953-0.5117,0-0.707
		s0.5117-0.1953,0.707,0l6.4756,6.4756c0.2754,0.2764,0.7236,0.2744,0.999,0c0.2754-0.2754,0.2754-0.7236,0-0.999l-6.4756-6.4756
		c-0.1953-0.1953-0.1953-0.5117,0-0.707s0.5117-0.1953,0.707,0l6.4756,6.4756c0.665,0.665,0.665,1.7471,0,2.4131
		C22.9961,23.6611,22.5586,23.8271,22.1221,23.8271z"/>
	<path d="M9.4785,18.7842c-5.1313,0-9.3062-4.1748-9.3062-9.3057c0-5.1313,4.1748-9.3062,9.3062-9.3062
		c5.1318,0,9.3066,4.1748,9.3066,9.3062C18.7852,14.6094,14.6104,18.7842,9.4785,18.7842z M9.4785,1.1724
		c-4.5801,0-8.3062,3.7261-8.3062,8.3062s3.7261,8.3057,8.3062,8.3057s8.3066-3.7256,8.3066-8.3057S14.0586,1.1724,9.4785,1.1724z"
		/>
	<path d="M13.1934,13.9443H5.7412c-0.4326,0-0.7842-0.3672-0.7842-0.8193v-1.1201c0-0.334,0.1909-0.6313,0.4868-0.7578
		c1.9189-0.8213,2.4155-1.208,2.541-1.3389V9.772C7.7485,9.4604,7.561,9.0757,7.4351,8.6421
		C7.0723,8.2544,6.998,7.6577,7.2539,7.1792V6.3179c0-1.3843,0.8481-2.2441,2.2134-2.2441c1.3853,0,2.2124,0.8389,2.2124,2.2441
		v0.8604c0.2573,0.48,0.1826,1.0771-0.1816,1.4644c-0.126,0.4336-0.313,0.8184-0.5488,1.1294v0.1528
		c0.0918,0.0874,0.5532,0.4722,2.541,1.3228c0.2949,0.125,0.4863,0.4224,0.4863,0.7573v1.1201
		C13.9766,13.5771,13.625,13.9443,13.1934,13.9443z M5.957,12.9443h7.0195v-0.8291c-2.3301-1.0054-2.8818-1.4883-3.0083-1.937
		c-0.0127-0.0439-0.019-0.0898-0.019-0.1357V9.5942c0-0.1221,0.0444-0.2397,0.1255-0.3311
		c0.2148-0.2432,0.3901-0.6025,0.4937-1.0122c0.0273-0.1079,0.0903-0.2041,0.1782-0.2725c0.0874-0.0679,0.1196-0.2402,0.0303-0.3613
		c-0.063-0.0859-0.0972-0.1899-0.0972-0.2964V6.3179c0-0.8486-0.3853-1.2441-1.2124-1.2441c-0.8164,0-1.2134,0.4067-1.2134,1.2441
		v1.0034c0,0.1064-0.0342,0.21-0.0972,0.2959C8.0679,7.7383,8.1006,7.9111,8.188,7.9795S8.3379,8.1431,8.3652,8.251
		c0.103,0.4092,0.2788,0.7686,0.4941,1.0122c0.0811,0.0913,0.1255,0.209,0.1255,0.3311v0.4482c0,0.0459-0.0063,0.0913-0.0186,0.1357
		c-0.1265,0.4478-0.6777,0.9307-3.0093,1.937V12.9443z"/>
</g>
<rect x="0.0005" y="0.0004" fill="none" width="24" height="24"/>
</svg>
