<?xml version="1.0" encoding="utf-8"?>
<!-- Generator: Adobe Illustrator 18.1.0, SVG Export Plug-In . SVG Version: 6.00 Build 0)  -->
<svg version="1.1" id="Layer_1" xmlns="http://www.w3.org/2000/svg" xmlns:xlink="http://www.w3.org/1999/xlink" x="0px" y="0px"
	 width="24px" height="24px" viewBox="0 0 24 24" enable-background="new 0 0 24 24" xml:space="preserve">
<g>
	<path d="M1.5386,22.4219c-0.2002,0-0.3818-0.1191-0.4604-0.3047l-0.8394-1.9814c-0.0796-0.1875-0.0371-0.4053,0.1069-0.5488
		L11.6924,8.2402c-0.668-2.1787-0.082-4.5806,1.5361-6.1987c1.1699-1.1704,2.7256-1.8145,4.3799-1.8145
		c1.6553,0,3.2109,0.6445,4.3809,1.8149c2.415,2.415,2.415,6.3452,0,8.7603c-1.168,1.167-2.7197,1.8101-4.3721,1.8101
		c-0.7725,0-1.5234-0.1396-2.2363-0.415l-2.5049,2.5039c-0.0967,0.0967-0.2236,0.1553-0.3652,0.1465l-2.7222-0.0654l-0.5127,3.6553
		c-0.0298,0.2109-0.1899,0.3809-0.3994,0.4219l-2.9033,0.5664l-0.666,2.5049c-0.0566,0.2119-0.2456,0.3623-0.4653,0.3711
		l-3.2852,0.1201C1.5508,22.4219,1.5444,22.4219,1.5386,22.4219z M1.291,20.0557l0.5737,1.3535l2.5708-0.0938l0.6514-2.4492
		c0.0493-0.1846,0.1997-0.3252,0.3877-0.3623l2.8604-0.5586l0.5254-3.7432c0.0356-0.251,0.25-0.4219,0.5073-0.4307l2.9526,0.0713
		l2.5908-2.5898c0.1465-0.147,0.3682-0.188,0.5596-0.1021c0.668,0.3018,1.4102,0.4614,2.1465,0.4614
		c1.3848,0,2.6865-0.5391,3.665-1.5171c2.0254-2.0254,2.0254-5.3208,0-7.3462c-0.9814-0.9814-2.2861-1.522-3.6738-1.522
		s-2.6914,0.54-3.6729,1.5215c-1.4209,1.4204-1.8916,3.5615-1.2012,5.4551c0.0664,0.1826,0.0215,0.3872-0.1162,0.5249L1.291,20.0557
		z M19.2344,6.6377c-0.4922,0-0.9541-0.1914-1.3027-0.5386c-0.7178-0.7183-0.7178-1.8867,0-2.6045
		c0.6973-0.6963,1.9092-0.6953,2.6045,0c0.7178,0.7178,0.7178,1.8862,0,2.604C20.1885,6.4463,19.7266,6.6377,19.2344,6.6377z
		 M19.2344,3.9551c-0.2246,0-0.4365,0.0879-0.5957,0.2466c-0.3271,0.3281-0.3271,0.8618,0,1.1899
		c0.3184,0.3164,0.8721,0.3184,1.1904,0c0.3271-0.3281,0.3271-0.8618,0-1.1899C19.6699,4.0425,19.459,3.9551,19.2344,3.9551z"/>
</g>
<rect x="-0.0137" fill="none" width="24" height="24"/>
</svg>
