<?xml version="1.0" encoding="utf-8"?>
<!-- Generator: Adobe Illustrator 18.1.0, SVG Export Plug-In . SVG Version: 6.00 Build 0)  -->
<svg version="1.1" id="Layer_1" xmlns="http://www.w3.org/2000/svg" xmlns:xlink="http://www.w3.org/1999/xlink" x="0px" y="0px"
	 width="24px" height="24px" viewBox="0 0 24 24" enable-background="new 0 0 24 24" xml:space="preserve">
<g>
	<path d="M6.1982,17.9561c-1.1606,0-2.0039-0.2617-2.0791-0.2861c-0.2153-0.0684-0.3574-0.2734-0.3467-0.499
		c0.0386-0.8047,0.5728-1.5146,1.1099-2.0312c-1.6812-0.3291-3.7368-1.3076-4.0347-1.4512
		c-0.1216-0.0596-0.2144-0.165-0.2568-0.2939c-0.042-0.1289-0.0303-0.2695,0.0327-0.3896c0.9126-1.7329,2.5874-2.4839,3.6797-2.8008
		C2.8789,8.522,2.3169,5.1416,2.2485,4.6982C2.2114,4.4595,2.3511,4.2285,2.5791,4.1494c1.9014-0.6543,4.647,1.25,5.875,2.2197
		c0.8921-2.5347,2.9473-3.832,3.0425-3.8911c0.229-0.1421,0.5298-0.0771,0.6802,0.1489c0.3838,0.5791,0.7354,1.7549,1.0752,3.5957
		c0.0508,0.2715-0.1289,0.5322-0.4004,0.5825c-0.2676,0.0513-0.5322-0.1294-0.582-0.4009
		c-0.2676-1.4478-0.5098-2.2734-0.6924-2.7427C10.8994,4.2192,9.6445,5.4688,9.208,7.3525c-0.04,0.1714-0.167,0.3096-0.3345,0.3633
		C8.7051,7.7686,8.522,7.7305,8.3901,7.6147c-0.918-0.8086-3.4609-2.6855-5.0708-2.5996c0.2939,1.5156,1.0796,4.3833,2.311,5.0234
		c0.1963,0.1021,0.3013,0.3203,0.2603,0.5371S5.6704,10.957,5.4507,10.98c-0.0259,0.0024-2.4048,0.2715-3.6655,2.0415
		c1.4233,0.6377,3.5176,1.3945,4.355,1.2002c0.2393-0.0557,0.4824,0.0732,0.5742,0.2998c0.0918,0.2275,0.0049,0.4883-0.2051,0.6152
		c-0.3989,0.2422-1.3462,0.9492-1.646,1.6895c1.0127,0.2031,3.5503,0.4502,5.4424-1.6211c0.187-0.2051,0.502-0.2188,0.7065-0.0322
		c0.2036,0.1865,0.2178,0.502,0.0317,0.7061C9.5029,17.5664,7.6143,17.9561,6.1982,17.9561z"/>
	<path d="M11.7017,10.1406c-0.1904,0-0.3726-0.1094-0.4561-0.2939c-0.0972-0.2148-0.1694-0.4419-0.2153-0.6758
		c-0.1611-0.8149,0.0044-1.6445,0.4673-2.3354c0.4624-0.6909,1.1665-1.1606,1.9829-1.3223
		c1.5947-0.3135,3.1885,0.6694,3.6104,2.2456c0.0713,0.2671-0.0869,0.541-0.3545,0.6123c-0.2666,0.0742-0.54-0.0879-0.6123-0.3535
		c-0.2861-1.0688-1.3545-1.7402-2.4502-1.5229c-0.5537,0.1094-1.0312,0.4282-1.3457,0.897
		c-0.3135,0.4692-0.4263,1.0322-0.3164,1.5859c0.0312,0.1592,0.0801,0.3125,0.1455,0.457c0.1133,0.252,0.001,0.5479-0.25,0.6616
		C11.8403,10.1265,11.7705,10.1406,11.7017,10.1406z"/>
	<path d="M20.8975,11.2202c-0.0908,0-0.1816-0.0244-0.2637-0.0752c-0.2344-0.1455-0.3066-0.4541-0.1611-0.6885
		c0.2363-0.3813,0.4951-0.9551,0.3828-1.5239c-0.1094-0.5537-0.4287-1.0312-0.8975-1.3452
		c-0.4688-0.3145-1.0303-0.4268-1.5859-0.3174c-0.5537,0.1099-1.0312,0.4282-1.3457,0.8975
		c-0.3145,0.4688-0.4268,1.0322-0.3174,1.5859c0.0254,0.126,0.0732,0.2583,0.1191,0.3755c0.1006,0.2568-0.0264,0.5469-0.2842,0.6475
		c-0.2559,0.1011-0.5469-0.0269-0.6475-0.2842c-0.0654-0.168-0.1309-0.3599-0.168-0.543c-0.1621-0.8174,0.0039-1.6475,0.4668-2.3384
		s1.167-1.1602,1.9834-1.3218c0.8145-0.1587,1.6445,0.0049,2.3359,0.4673c0.6904,0.4624,1.1602,1.1665,1.3213,1.9819
		c0.1396,0.7036-0.0381,1.48-0.5137,2.2456C21.2275,11.1362,21.0645,11.2202,20.8975,11.2202z"/>
	<path d="M11.1665,15.3447c-0.0239,0-0.0483-0.002-0.0732-0.0049c-1.2998-0.1914-2.3447-1.1865-2.6001-2.4766
		c-0.3335-1.6836,0.7651-3.3252,2.4487-3.6582c1.3599-0.27,2.7446,0.4023,3.3755,1.6323c0.126,0.2456,0.0283,0.5474-0.2178,0.6729
		c-0.2412,0.127-0.5459,0.0298-0.6729-0.2168c-0.4268-0.8345-1.3701-1.291-2.2905-1.1079
		c-1.1431,0.2266-1.8887,1.3408-1.6621,2.4844c0.1733,0.875,0.8823,1.5508,1.7646,1.6797c0.2729,0.041,0.4619,0.2949,0.4219,0.5674
		C11.624,15.166,11.4106,15.3447,11.1665,15.3447z"/>
	<path d="M14.8525,23.8301c-0.6104,0-1.2061-0.1797-1.7246-0.5273c-0.6914-0.4619-1.1611-1.166-1.3228-1.9824
		c-0.1533-0.7793,0.022-1.6289,0.4819-2.3301c0.1504-0.2334,0.4619-0.2959,0.6924-0.1445s0.2949,0.4609,0.1436,0.6924
		c-0.3174,0.4844-0.4404,1.0635-0.3369,1.5889c0.1094,0.5537,0.4287,1.0312,0.8975,1.3447
		c0.4697,0.3145,1.0303,0.4248,1.5869,0.3174c0.5537-0.1104,1.0312-0.4287,1.3447-0.8975c0.3145-0.4688,0.4268-1.0312,0.3174-1.5859
		c-0.0264-0.1309-0.1113-0.333-0.1621-0.4531c-0.1074-0.2549,0.0127-0.5479,0.2666-0.6553
		c0.2568-0.1064,0.5488,0.0137,0.6553,0.2666c0.0889,0.2109,0.1787,0.4336,0.2207,0.6475c0.1621,0.8164-0.0039,1.6465-0.4668,2.3369
		c-0.4619,0.6904-1.166,1.1602-1.9824,1.3213C15.2607,23.8105,15.0557,23.8301,14.8525,23.8301z"/>
	<path d="M13.0225,19.7842c-0.6094,0-1.2065-0.1797-1.7246-0.5273c-0.6909-0.4619-1.1606-1.166-1.3223-1.9824
		c-0.333-1.6836,0.7656-3.3252,2.4502-3.6582c0.3711-0.0742,0.7578-0.0762,1.1465-0.0059c0.2725,0.0479,0.4531,0.3076,0.4053,0.5791
		s-0.3115,0.459-0.5791,0.4053c-0.2666-0.0479-0.5303-0.0459-0.7793,0.002c-1.1426,0.2266-1.8887,1.3408-1.6621,2.4844
		c0.1094,0.5537,0.4282,1.0312,0.897,1.3447c0.4683,0.3145,1.0288,0.4258,1.5864,0.3174c0.6123-0.1211,1.1143-0.4678,1.4121-0.9775
		c0.1396-0.2373,0.4443-0.3154,0.6846-0.1787c0.2383,0.1396,0.3184,0.4463,0.1787,0.6846c-0.4453,0.7598-1.1846,1.2754-2.082,1.4521
		C13.4307,19.7646,13.2256,19.7842,13.0225,19.7842z"/>
	<path d="M20.2168,16.4072c-0.0723,0-0.1445-0.0039-0.2178-0.0117c-0.2744-0.0283-0.4746-0.2744-0.4453-0.5488
		c0.0283-0.2744,0.2754-0.4736,0.5488-0.4453c0.1904,0.0215,0.4141-0.0156,0.6289-0.0586c1.1426-0.2266,1.8877-1.3408,1.6621-2.4844
		c-0.1094-0.5527-0.4287-1.0308-0.8975-1.3447c-0.4688-0.3145-1.0303-0.4277-1.5859-0.3174
		c-0.5498,0.1094-1.0264,0.4277-1.3398,0.8975c-0.1543,0.2305-0.4639,0.293-0.6943,0.1377
		c-0.2295-0.1533-0.291-0.4639-0.1377-0.6934c0.4629-0.6919,1.166-1.1616,1.9785-1.3228c0.8135-0.1606,1.6445,0.0049,2.3359,0.4673
		c0.6904,0.4624,1.1602,1.1665,1.3213,1.9824c0.1621,0.8154-0.0039,1.6455-0.4668,2.3359c-0.4619,0.6914-1.166,1.1611-1.9824,1.3223
		C20.7002,16.3682,20.4619,16.4072,20.2168,16.4072z"/>
	<path d="M17.7217,20.2061c-0.6104,0-1.207-0.1797-1.7256-0.5273c-0.6904-0.4629-1.1602-1.167-1.3213-1.9824
		c-0.1777-0.8965,0.0479-1.8232,0.6182-2.54c0.1748-0.2158,0.4893-0.251,0.7031-0.0801c0.2158,0.1729,0.252,0.4873,0.0801,0.7031
		c-0.3877,0.4863-0.541,1.1143-0.4209,1.7236c0.2266,1.1426,1.3291,1.8906,2.4834,1.6621c0.5537-0.1104,1.0312-0.4287,1.3457-0.8975
		c0.3145-0.4697,0.4268-1.0322,0.3174-1.5869c-0.1895-0.9531-1.0342-1.6689-2.0078-1.7012
		c-0.2754-0.0098-0.4922-0.2402-0.4834-0.5166c0.0088-0.2754,0.1875-0.4922,0.5166-0.4834
		c1.4561,0.0479,2.6719,1.0791,2.9551,2.5068c0.1621,0.8164-0.0039,1.6465-0.4668,2.3379c-0.4629,0.6904-1.167,1.1602-1.9834,1.3213
		C18.1289,20.1865,17.9248,20.2061,17.7217,20.2061z"/>
	<path d="M15.7637,15.9678c-1.7168,0-3.1133-1.3965-3.1133-3.1133c0-1.7163,1.3965-3.1128,3.1133-3.1128
		s3.1133,1.3965,3.1133,3.1128C18.877,14.5713,17.4805,15.9678,15.7637,15.9678z M15.7637,10.7417
		c-1.165,0-2.1133,0.9478-2.1133,2.1128s0.9482,2.1133,2.1133,2.1133s2.1133-0.9482,2.1133-2.1133S16.9287,10.7417,15.7637,10.7417z
		"/>
	<path d="M17.0215,5.9429c-0.0059,0-0.0117,0-0.0186-0.0005c-0.2754-0.0103-0.4912-0.2417-0.4814-0.5176
		c0.0029-0.0635,0.0615-1.5684,0.4297-2.8955c0.334-1.2026,0.8242-1.9253,1.458-2.1484c0.3066-0.1084,0.7998-0.1494,1.3926,0.2769
		c1.0967,0.8276,0.9443,1.7007,0.8271,2.0381c-0.2109,0.6123-0.7988,1.0513-1.4043,1.0513c-0.0068,0-0.0137,0-0.0215,0
		c-0.2764-0.0049-0.4961-0.2329-0.4912-0.5088s0.2256-0.5034,0.5088-0.4912c0.001,0,0.0029,0,0.0039,0
		c0.1562,0,0.3818-0.1533,0.459-0.3774c0.1309-0.3784-0.2412-0.7305-0.4736-0.9067c-0.1855-0.1323-0.3457-0.1821-0.4688-0.1387
		c-0.1084,0.0381-0.4893,0.2573-0.8271,1.4727c-0.3359,1.2114-0.3926,2.6499-0.3926,2.6646
		C17.5107,5.731,17.2891,5.9429,17.0215,5.9429z"/>
</g>
<rect y="0.0346" fill="none" width="24" height="24"/>
</svg>
