<?xml version="1.0" encoding="utf-8"?>
<!-- Generator: Adobe Illustrator 18.1.0, SVG Export Plug-In . SVG Version: 6.00 Build 0)  -->
<svg version="1.1" id="Layer_1" xmlns="http://www.w3.org/2000/svg" xmlns:xlink="http://www.w3.org/1999/xlink" x="0px" y="0px"
	 width="24px" height="24px" viewBox="0 0 24 24" enable-background="new 0 0 24 24" xml:space="preserve">
<g>
	<path d="M14.9854,17.9023c0,0,0,0-0.001,0c-1.0742,0-2.3604-1.2139-3.8481-2.6191c-0.4243-0.4004-0.854-0.8057-1.2788-1.1807
		c-0.877-0.7734-1.3384-1.5859-1.3721-2.415c-0.0381-0.9482,0.502-1.5366,0.5635-1.6006c0.0327-0.0342,3.3994-3.5728,3.6094-5.8599
		c0.2021-2.1982,1.7119-3.3848,3.0303-3.3848c0.5293,0,1.0186,0.1841,1.4141,0.5332c1.1162,0.981,1.4736,1.1455,1.4883,1.1519
		c0.54,0.2266,1.0303,0.4253,1.4785,0.6069c2.4717,1.002,3.9629,1.6069,3.5986,3.0015c-0.3535,1.3594-6.8486,10.3369-7.6982,11.3135
		C15.7129,17.7451,15.3721,17.9023,14.9854,17.9023z M15.6885,1.8423c-0.8887,0-1.8926,0.9263-2.0342,2.4766
		c-0.2422,2.6343-3.7358,6.3062-3.8848,6.4614c-0.0098,0.0103-0.3125,0.3481-0.2842,0.8848c0.0288,0.54,0.3765,1.1084,1.0337,1.6875
		c0.4331,0.3818,0.8711,0.7959,1.3037,1.2041c1.1646,1.0996,2.4849,2.3457,3.1626,2.3457l0,0c0.0977,0,0.1621-0.0312,0.2305-0.1094
		c1.0303-1.1855,7.2275-9.9204,7.4844-10.9097c0.1367-0.521-0.9375-0.9834-3.0068-1.8223
		c-0.4512-0.1831-0.9453-0.3833-1.4785-0.6074c-0.0947-0.0278-0.543-0.2456-1.7725-1.3276
		C16.2285,1.9375,15.9746,1.8423,15.6885,1.8423z"/>
	<path d="M13.3799,17.1143c-0.1084,0-0.2168-0.0342-0.3076-0.1064c-0.2178-0.1699-0.2559-0.4844-0.0859-0.7012
		c0.0723-0.0928,7.2686-9.3145,8.0957-12.145c0.0771-0.2642,0.3516-0.4175,0.6201-0.3398c0.2646,0.0776,0.417,0.355,0.3389,0.6201
		c-0.8799,3.0137-7.9658,12.0952-8.2676,12.48C13.6748,17.0488,13.5283,17.1143,13.3799,17.1143z"/>
	<path d="M15.7822,5.4561c-0.7002,0-1.2695-0.5693-1.2695-1.2695s0.5693-1.27,1.2695-1.27s1.2695,0.5698,1.2695,1.27
		S16.4824,5.4561,15.7822,5.4561z M15.7822,3.9165c-0.1484,0-0.2695,0.1211-0.2695,0.27c0,0.2969,0.5391,0.2969,0.5391,0
		C16.0518,4.0376,15.9307,3.9165,15.7822,3.9165z"/>
	<path d="M2.3281,23.1963c-0.5039,0-1.0083-0.1914-1.3921-0.5752c-0.1953-0.1953-0.1953-0.5117,0-0.707s0.5117-0.1953,0.707,0
		c0.3779,0.377,0.9927,0.3779,1.3706,0l6.6626-6.6631c0.1953-0.1953,0.5117-0.1953,0.707,0s0.1953,0.5117,0,0.707l-6.6626,6.6631
		C3.3369,23.0049,2.8325,23.1963,2.3281,23.1963z"/>
	<path d="M1.2896,22.7676c-0.1279,0-0.2559-0.0488-0.3535-0.1465c-0.3716-0.3721-0.5762-0.8662-0.5762-1.3926
		s0.2046-1.0205,0.5762-1.3916l6.6631-6.6631c0.1953-0.1953,0.5117-0.1953,0.707,0s0.1953,0.5117,0,0.707l-6.6631,6.6631
		c-0.1826,0.1826-0.2832,0.4258-0.2832,0.6846c0,0.2598,0.1006,0.5029,0.2832,0.6855c0.1953,0.1953,0.1953,0.5117,0,0.707
		C1.5454,22.7188,1.4175,22.7676,1.2896,22.7676z"/>
	<path d="M2.3198,21.7402c-0.1299,0-0.25-0.0508-0.3501-0.1406c-0.1001-0.1094-0.1499-0.2295-0.1499-0.3594
		c0-0.1309,0.0498-0.2607,0.1401-0.3506c0.1997-0.2002,0.5298-0.1895,0.71-0.0098c0.1001,0.0996,0.1499,0.2197,0.1499,0.3604
		c0,0.1299-0.0498,0.25-0.1401,0.3496C2.5698,21.6895,2.4497,21.7402,2.3198,21.7402z"/>
</g>
<rect y="0.0197" fill="none" width="24" height="24"/>
</svg>
