<?xml version="1.0" encoding="utf-8"?>
<!-- Generator: Adobe Illustrator 18.1.0, SVG Export Plug-In . SVG Version: 6.00 Build 0)  -->
<svg version="1.1" id="Layer_1" xmlns="http://www.w3.org/2000/svg" xmlns:xlink="http://www.w3.org/1999/xlink" x="0px" y="0px"
	 width="24px" height="24px" viewBox="0 0 24 24" enable-background="new 0 0 24 24" xml:space="preserve">
<g>
	<path d="M20.623,11.9697H6.1221c-0.145,0-0.2832-0.063-0.3784-0.1729L1.9082,7.3613C1.7476,7.1748,1.7461,6.8989,1.9048,6.7109
		l3.8354-4.5303c0.0952-0.1118,0.2349-0.1768,0.3818-0.1768h14.501c0.2764,0,0.5,0.2236,0.5,0.5v8.9658
		C21.123,11.7461,20.8994,11.9697,20.623,11.9697z M6.3506,10.9697H20.123V3.0039H6.354L2.9448,7.0308L6.3506,10.9697z"/>
	<path d="M12.4629,3.0039c-0.2764,0-0.5-0.2236-0.5-0.5V0.6353c0-0.2764,0.2236-0.5,0.5-0.5s0.5,0.2236,0.5,0.5v1.8687
		C12.9629,2.7803,12.7393,3.0039,12.4629,3.0039z"/>
	<path d="M12.4629,23.9609c-0.2764,0-0.5-0.2236-0.5-0.5v-9.9287c0-0.2764,0.2236-0.5,0.5-0.5s0.5,0.2236,0.5,0.5v9.9287
		C12.9629,23.7373,12.7393,23.9609,12.4629,23.9609z"/>
</g>
<rect x="-0.0136" y="0.0001" fill="none" width="24" height="24"/>
</svg>
