<?xml version="1.0" encoding="utf-8"?>
<!-- Generator: Adobe Illustrator 18.1.0, SVG Export Plug-In . SVG Version: 6.00 Build 0)  -->
<svg version="1.1" id="Layer_1" xmlns="http://www.w3.org/2000/svg" xmlns:xlink="http://www.w3.org/1999/xlink" x="0px" y="0px"
	 width="24px" height="24px" viewBox="0 0 24 24" enable-background="new 0 0 24 24" xml:space="preserve">
<g>
	<path d="M11.9854,23.9082c-6.5732,0-11.9209-5.3477-11.9209-11.9219c0-6.5732,5.3477-11.9209,11.9209-11.9209
		s11.9209,5.3477,11.9209,11.9209C23.9062,18.5605,18.5586,23.9082,11.9854,23.9082z M11.9854,1.0654
		c-6.022,0-10.9209,4.8989-10.9209,10.9209c0,6.0225,4.8989,10.9219,10.9209,10.9219c6.0215,0,10.9209-4.8994,10.9209-10.9219
		C22.9062,5.9644,18.0068,1.0654,11.9854,1.0654z"/>
	<path d="M11.9883,8.9771c-1.6416,0-2.9775-1.3359-2.9775-2.9775s1.3359-2.9771,2.9775-2.9771s2.9775,1.3354,2.9775,2.9771
		S13.6299,8.9771,11.9883,8.9771z M11.9883,4.0225c-1.0903,0-1.9775,0.8867-1.9775,1.9771s0.8872,1.9775,1.9775,1.9775
		c1.0908,0,1.9775-0.8872,1.9775-1.9775S13.0791,4.0225,11.9883,4.0225z"/>
	<path d="M15.501,19.9854H9.4287c-0.7671,0-1.3237-0.6133-1.3237-1.457c0-0.3633,0.1094-0.71,0.3071-0.9746
		c0.2451-0.3291,0.6064-0.5098,1.0166-0.5098h0.7002v-4.1328H9.4287c-0.7671,0-1.3232-0.6152-1.3232-1.4624
		c0-0.3628,0.1089-0.708,0.3066-0.9722c0.2446-0.3267,0.606-0.5063,1.0166-0.5063h4.8408c0.4395,0,0.7969,0.3589,0.7969,0.8003
		v6.2734h0.4346c0.7539,0,1.3223,0.6377,1.3223,1.4834c0,0.3613-0.1084,0.7031-0.3057,0.9619
		C16.2744,19.8096,15.9131,19.9854,15.501,19.9854z M9.4287,18.0439c-0.3198,0-0.3237,0.4795-0.3237,0.4844
		c0,0.0762,0.0156,0.457,0.3237,0.457h6.0723c0.3066,0,0.3223-0.3818,0.3223-0.458c0-0.0049-0.0039-0.4834-0.3223-0.4834h-0.9346
		c-0.2764,0-0.5-0.2236-0.5-0.5v-6.5737H9.4287c-0.3198,0-0.3232,0.459-0.3232,0.4785c0,0.0771,0.0156,0.4624,0.3232,0.4624h1.2002
		c0.2764,0,0.5,0.2236,0.5,0.5v5.1328c0,0.2764-0.2236,0.5-0.5,0.5H9.4287z"/>
</g>
<rect x="-0.0137" y="0.0002" fill="none" width="24" height="24"/>
</svg>
