<?xml version="1.0" encoding="utf-8"?>
<!-- Generator: Adobe Illustrator 18.1.0, SVG Export Plug-In . SVG Version: 6.00 Build 0)  -->
<svg version="1.1" id="Layer_1" xmlns="http://www.w3.org/2000/svg" xmlns:xlink="http://www.w3.org/1999/xlink" x="0px" y="0px"
	 width="24px" height="24px" viewBox="0 0 24 24" enable-background="new 0 0 24 24" xml:space="preserve">
<g>
	<path d="M15.4512,13H11.5c-0.2764,0-0.5-0.2236-0.5-0.5V6.5518c0-0.2764,0.2236-0.5,0.5-0.5s0.5,0.2236,0.5,0.5V12h3.4512
		c0.2764,0,0.5,0.2236,0.5,0.5S15.7275,13,15.4512,13z"/>
	<path d="M12.002,20.1123c-4.4775,0-8.1201-3.6436-8.1201-8.1211s3.6426-8.1206,8.1201-8.1206s8.1211,3.6431,8.1211,8.1206
		S16.4795,20.1123,12.002,20.1123z M12.002,4.8706c-3.9263,0-7.1201,3.1943-7.1201,7.1206c0,3.9268,3.1938,7.1211,7.1201,7.1211
		c3.9268,0,7.1211-3.1943,7.1211-7.1211C19.123,8.0649,15.9287,4.8706,12.002,4.8706z"/>
	<path d="M16.3838,24H7.4834c-0.2397,0-0.4458-0.1699-0.4912-0.4062l-0.6279-3.2793c-0.0518-0.2705,0.126-0.5332,0.397-0.585
		c0.2686-0.0488,0.5332,0.125,0.5854,0.3975L7.897,23h8.0737l0.5498-2.8496c0.0537-0.2725,0.3174-0.4443,0.5859-0.3965
		c0.2715,0.0527,0.4482,0.3145,0.3965,0.5859l-0.6279,3.2549C16.8291,23.8301,16.623,24,16.3838,24z"/>
	<path d="M17.0107,4.395c-0.2363,0-0.4463-0.1685-0.4902-0.4092L15.9678,1H7.8989L7.3472,3.9624
		c-0.0508,0.271-0.311,0.4463-0.5835,0.3999c-0.2715-0.0508-0.4502-0.312-0.3999-0.5835l0.6279-3.3706
		C7.0361,0.1719,7.2427,0,7.4834,0h8.9004c0.2412,0,0.4482,0.1719,0.4912,0.4092l0.6279,3.395
		c0.0508,0.2715-0.1289,0.5322-0.4004,0.5825C17.0723,4.3926,17.041,4.395,17.0107,4.395z"/>
	<path d="M22.5,15h-1.0273c-0.2764,0-0.5-0.2236-0.5-0.5s0.2236-0.5,0.5-0.5H22v-3h-0.5273c-0.2764,0-0.5-0.2236-0.5-0.5
		s0.2236-0.5,0.5-0.5H22.5c0.2764,0,0.5,0.2236,0.5,0.5v4C23,14.7764,22.7764,15,22.5,15z"/>
</g>
<rect fill="none" width="24" height="24"/>
</svg>
