<?xml version="1.0" encoding="utf-8"?>
<!-- Generator: Adobe Illustrator 18.1.0, SVG Export Plug-In . SVG Version: 6.00 Build 0)  -->
<svg version="1.1" id="Layer_1" xmlns="http://www.w3.org/2000/svg" xmlns:xlink="http://www.w3.org/1999/xlink" x="0px" y="0px"
	 width="24px" height="24px" viewBox="0 0 24 24" enable-background="new 0 0 24 24" xml:space="preserve">
<g>
	<path d="M22.0166,23.6494c-0.4336,0-0.8672-0.165-1.1973-0.4951l-6.4062-6.4053c-0.1953-0.1953-0.1953-0.5117,0-0.707
		s0.5117-0.1953,0.707,0l6.4062,6.4053c0.2627,0.2627,0.7188,0.2617,0.9795,0c0.1309-0.1309,0.2031-0.3047,0.2031-0.4902
		s-0.0723-0.3594-0.2031-0.4902l-6.4053-6.4043c-0.1953-0.1953-0.1953-0.5117,0-0.707s0.5117-0.1953,0.707,0l6.4053,6.4043
		c0.3193,0.3193,0.4961,0.7451,0.4961,1.1973s-0.1768,0.8779-0.4961,1.1973C22.8828,23.4844,22.4492,23.6494,22.0166,23.6494z"/>
	<path d="M9.5103,18.6611c-5.0786,0-9.21-4.1318-9.21-9.21s4.1313-9.2095,9.21-9.2095c5.0776,0,9.2095,4.1313,9.2095,9.2095
		S14.5879,18.6611,9.5103,18.6611z M9.5103,1.2417c-4.5269,0-8.21,3.6826-8.21,8.2095c0,4.5273,3.6831,8.21,8.21,8.21
		s8.2095-3.6826,8.2095-8.21C17.7197,4.9243,14.0371,1.2417,9.5103,1.2417z"/>
	<path d="M14.2119,10.0918H4.8438c-0.2764,0-0.5-0.2236-0.5-0.5s0.2236-0.5,0.5-0.5h9.3682c0.2764,0,0.5,0.2236,0.5,0.5
		S14.4883,10.0918,14.2119,10.0918z"/>
</g>
<rect y="0.0001" fill="none" width="24" height="24"/>
</svg>
