<?xml version="1.0" encoding="utf-8"?>
<!-- Generator: Adobe Illustrator 18.1.0, SVG Export Plug-In . SVG Version: 6.00 Build 0)  -->
<svg version="1.1" id="Layer_1" xmlns="http://www.w3.org/2000/svg" xmlns:xlink="http://www.w3.org/1999/xlink" x="0px" y="0px"
	 width="24px" height="24px" viewBox="0 0 24 24" enable-background="new 0 0 24 24" xml:space="preserve">
<g>
	<path d="M12.9414,20h-1.8887C10.4429,20,10,19.6094,10,19.0723V16.5c0-0.2764,0.2236-0.5,0.5-0.5s0.5,0.2236,0.5,0.5v2.4961
		C11.0146,18.998,11.0322,19,11.0527,19h1.8887c0.0234,0,0.043-0.002,0.0586-0.0049V16.5c0-0.2764,0.2236-0.5,0.5-0.5
		s0.5,0.2236,0.5,0.5v2.5723C14,19.6094,13.5547,20,12.9414,20z"/>
	<path d="M15.5,7C15.2236,7,15,6.7764,15,6.5V0.9893c-0.0039,0.0518-0.0596,0.0151-0.0859,0.0103L9.0703,1
		C9.0522,1.0044,8.9985,1.04,8.9834,1.0635L9,6.5C9,6.7764,8.7764,7,8.5,7S8,6.7764,8,6.5V0.9858C8,0.4307,8.5752,0,9.0703,0h5.8516
		C15.4209,0,16,0.4307,16,0.9858V6.5C16,6.7764,15.7764,7,15.5,7z"/>
	<path d="M12.4756,17.0039c-0.5093,0-3.0581-0.002-3.2378-0.0322C8.1313,16.7549,7,15.8018,7,14.5791V6.5C7,6.2236,7.2236,6,7.5,6
		h8.8945c0.2764,0,0.5,0.2236,0.5,0.5l0.001,8.084c0,1.2266-1.1064,2.1768-2.1768,2.3877
		C14.667,16.9863,14.6025,17.0039,12.4756,17.0039z M8,7v7.5791c0,0.6768,0.7329,1.2744,1.4175,1.4092
		c0.0952,0.0029,1.481,0.0156,3.0581,0.0156c1.3896,0,1.9902-0.0098,2.083-0.0176c0.626-0.125,1.3369-0.7002,1.3369-1.4023
		L15.8945,7H8z"/>
	<path d="M12,23.9658c-0.2764,0-0.5-0.2236-0.5-0.5V19.5c0-0.2764,0.2236-0.5,0.5-0.5s0.5,0.2236,0.5,0.5v3.9658
		C12.5,23.7422,12.2764,23.9658,12,23.9658z"/>
	<path d="M10.5,5.002c-0.2764,0-0.5-0.2236-0.5-0.5v-0.957c0-0.2764,0.2236-0.5,0.5-0.5s0.5,0.2236,0.5,0.5v0.957
		C11,4.7783,10.7764,5.002,10.5,5.002z"/>
	<path d="M13.5,5.002c-0.2764,0-0.5-0.2236-0.5-0.5v-0.957c0-0.2764,0.2236-0.5,0.5-0.5s0.5,0.2236,0.5,0.5v0.957
		C14,4.7783,13.7764,5.002,13.5,5.002z"/>
</g>
<rect fill="none" width="24" height="24"/>
</svg>
