<?xml version="1.0" encoding="utf-8"?>
<!-- Generator: Adobe Illustrator 18.1.0, SVG Export Plug-In . SVG Version: 6.00 Build 0)  -->
<svg version="1.1" id="Layer_1" xmlns="http://www.w3.org/2000/svg" xmlns:xlink="http://www.w3.org/1999/xlink" x="0px" y="0px"
	 width="24px" height="24px" viewBox="0 0 24 24" enable-background="new 0 0 24 24" xml:space="preserve">
<g>
	<path d="M20.5146,5.0098h-4c-0.2764,0-0.5-0.2236-0.5-0.5v-4c0-0.2764,0.2236-0.5,0.5-0.5s0.5,0.2236,0.5,0.5v3.5h3.5
		c0.2764,0,0.5,0.2236,0.5,0.5S20.791,5.0098,20.5146,5.0098z"/>
	<path d="M19.7227,24.0098H4.3018c-0.71,0-1.2876-0.583-1.2876-1.2998V1.3154c0-0.7197,0.5776-1.3057,1.2876-1.3057h12.2129
		c0.418,0,0.6406,0.2192,0.8027,0.3789l3.3125,3.2686c0.1787,0.1772,0.3848,0.4341,0.3848,0.8525V22.71
		C21.0146,23.4268,20.4355,24.0098,19.7227,24.0098z M16.5078,1.0029L4.3018,1.0098c-0.1558,0-0.2876,0.1401-0.2876,0.3057V22.71
		c0,0.1621,0.1318,0.2998,0.2876,0.2998h15.4209c0.1582,0,0.292-0.1377,0.292-0.2998V4.5098c0-0.0352,0-0.0542-0.0879-0.1406
		l-3.3125-3.2686C16.5869,1.0728,16.5283,1.0151,16.5078,1.0029z"/>
	<path d="M9.5239,14.043H6.562c-0.2764,0-0.5-0.2236-0.5-0.5v-2.9971c0-0.2764,0.2236-0.5,0.5-0.5h2.9619
		c0.2764,0,0.5,0.2236,0.5,0.5v2.9971C10.0239,13.8193,9.8003,14.043,9.5239,14.043z M7.062,13.043h1.9619v-1.9971H7.062V13.043z"/>
	<path d="M9.5239,11.0459H6.562c-0.2764,0-0.5-0.2236-0.5-0.5V7.5488c0-0.2764,0.2236-0.5,0.5-0.5h2.9619
		c0.2764,0,0.5,0.2236,0.5,0.5v2.9971C10.0239,10.8223,9.8003,11.0459,9.5239,11.0459z M7.062,10.0459h1.9619V8.0488H7.062V10.0459z
		"/>
	<path d="M9.5239,17.04H6.562c-0.2764,0-0.5-0.2236-0.5-0.5V13.543c0-0.2764,0.2236-0.5,0.5-0.5h2.9619c0.2764,0,0.5,0.2236,0.5,0.5
		V16.54C10.0239,16.8164,9.8003,17.04,9.5239,17.04z M7.062,16.04h1.9619V14.043H7.062V16.04z"/>
	<path d="M9.5239,20.0361H6.562c-0.2764,0-0.5-0.2236-0.5-0.5V16.54c0-0.2764,0.2236-0.5,0.5-0.5h2.9619
		c0.2764,0,0.5,0.2236,0.5,0.5v2.9961C10.0239,19.8125,9.8003,20.0361,9.5239,20.0361z M7.062,19.0361h1.9619V17.04H7.062V19.0361z"
		/>
	<path d="M13.4863,14.043H9.5239c-0.2764,0-0.5-0.2236-0.5-0.5v-2.9971c0-0.2764,0.2236-0.5,0.5-0.5h3.9624
		c0.2764,0,0.5,0.2236,0.5,0.5v2.9971C13.9863,13.8193,13.7627,14.043,13.4863,14.043z M10.0239,13.043h2.9624v-1.9971h-2.9624
		V13.043z"/>
	<path d="M13.4863,11.0459H9.5239c-0.2764,0-0.5-0.2236-0.5-0.5V7.5488c0-0.2764,0.2236-0.5,0.5-0.5h3.9624
		c0.2764,0,0.5,0.2236,0.5,0.5v2.9971C13.9863,10.8223,13.7627,11.0459,13.4863,11.0459z M10.0239,10.0459h2.9624V8.0488h-2.9624
		V10.0459z"/>
	<path d="M13.4863,17.04H9.5239c-0.2764,0-0.5-0.2236-0.5-0.5V13.543c0-0.2764,0.2236-0.5,0.5-0.5h3.9624
		c0.2764,0,0.5,0.2236,0.5,0.5V16.54C13.9863,16.8164,13.7627,17.04,13.4863,17.04z M10.0239,16.04h2.9624V14.043h-2.9624V16.04z"/>
	<path d="M13.4863,20.0361H9.5239c-0.2764,0-0.5-0.2236-0.5-0.5V16.54c0-0.2764,0.2236-0.5,0.5-0.5h3.9624
		c0.2764,0,0.5,0.2236,0.5,0.5v2.9961C13.9863,19.8125,13.7627,20.0361,13.4863,20.0361z M10.0239,19.0361h2.9624V17.04h-2.9624
		V19.0361z"/>
	<path d="M17.4482,14.043h-3.9619c-0.2764,0-0.5-0.2236-0.5-0.5v-2.9971c0-0.2764,0.2236-0.5,0.5-0.5h3.9619
		c0.2764,0,0.5,0.2236,0.5,0.5v2.9971C17.9482,13.8193,17.7246,14.043,17.4482,14.043z M13.9863,13.043h2.9619v-1.9971h-2.9619
		V13.043z"/>
	<path d="M17.4482,11.0459h-3.9619c-0.2764,0-0.5-0.2236-0.5-0.5V7.5488c0-0.2764,0.2236-0.5,0.5-0.5h3.9619
		c0.2764,0,0.5,0.2236,0.5,0.5v2.9971C17.9482,10.8223,17.7246,11.0459,17.4482,11.0459z M13.9863,10.0459h2.9619V8.0488h-2.9619
		V10.0459z"/>
	<path d="M17.4482,17.04h-3.9619c-0.2764,0-0.5-0.2236-0.5-0.5V13.543c0-0.2764,0.2236-0.5,0.5-0.5h3.9619
		c0.2764,0,0.5,0.2236,0.5,0.5V16.54C17.9482,16.8164,17.7246,17.04,17.4482,17.04z M13.9863,16.04h2.9619V14.043h-2.9619V16.04z"/>
	<path d="M17.4482,20.0361h-3.9619c-0.2764,0-0.5-0.2236-0.5-0.5V16.54c0-0.2764,0.2236-0.5,0.5-0.5h3.9619
		c0.2764,0,0.5,0.2236,0.5,0.5v2.9961C17.9482,19.8125,17.7246,20.0361,17.4482,20.0361z M13.9863,19.0361h2.9619V17.04h-2.9619
		V19.0361z"/>
</g>
<rect y="0.0001" fill="none" width="24" height="24"/>
</svg>
