<?xml version="1.0" encoding="utf-8"?>
<!-- Generator: Adobe Illustrator 18.1.0, SVG Export Plug-In . SVG Version: 6.00 Build 0)  -->
<svg version="1.1" id="Layer_1" xmlns="http://www.w3.org/2000/svg" xmlns:xlink="http://www.w3.org/1999/xlink" x="0px" y="0px"
	 width="24px" height="24px" viewBox="0 0 24 24" enable-background="new 0 0 24 24" xml:space="preserve">
<g>
	<path d="M21.124,24.0029H2.8545c-1.5801,0-2.8652-1.2852-2.8652-2.8652V2.8682c0-1.5801,1.2852-2.8652,2.8652-2.8652H21.124
		c1.5801,0,2.8652,1.2852,2.8652,2.8652v18.2695C23.9893,22.7178,22.7041,24.0029,21.124,24.0029z M2.8545,1.0029
		c-1.0283,0-1.8652,0.8369-1.8652,1.8652v18.2695c0,1.0283,0.8369,1.8652,1.8652,1.8652H21.124
		c1.0283,0,1.8652-0.8369,1.8652-1.8652V2.8682c0-1.0283-0.8369-1.8652-1.8652-1.8652H2.8545z"/>
	<path d="M6.3657,14.5137c-0.9888,0-1.7935-0.8047-1.7935-1.7939c0-0.9888,0.8047-1.793,1.7935-1.793s1.7935,0.8042,1.7935,1.793
		C8.1592,13.709,7.3545,14.5137,6.3657,14.5137z M6.3657,11.9268c-0.4375,0-0.7935,0.3555-0.7935,0.793s0.356,0.7939,0.7935,0.7939
		s0.7935-0.3564,0.7935-0.7939S6.8032,11.9268,6.3657,11.9268z"/>
	<path d="M12.0244,19.2559c-0.9888,0-1.793-0.8047-1.793-1.793c0-0.9893,0.8042-1.7939,1.793-1.7939
		c0.9893,0,1.7939,0.8047,1.7939,1.7939C13.8184,18.4512,13.0137,19.2559,12.0244,19.2559z M12.0244,16.6689
		c-0.437,0-0.793,0.3564-0.793,0.7939s0.356,0.793,0.793,0.793c0.4375,0,0.7939-0.3555,0.7939-0.793
		S12.4619,16.6689,12.0244,16.6689z"/>
	<path d="M17.6836,9.7612c-0.9883,0-1.793-0.8042-1.793-1.793s0.8047-1.7935,1.793-1.7935c0.9893,0,1.7939,0.8047,1.7939,1.7935
		S18.6729,9.7612,17.6836,9.7612z M17.6836,7.1748c-0.4375,0-0.793,0.356-0.793,0.7935c0,0.437,0.3555,0.793,0.793,0.793
		s0.7939-0.356,0.7939-0.793C18.4775,7.5308,18.1211,7.1748,17.6836,7.1748z"/>
	<path d="M23.4893,13.3809c-0.1143,0-0.2295-0.0391-0.3232-0.1182l-4.8174-4.0835C18.1377,9.001,18.1123,8.6851,18.29,8.4746
		c0.1807-0.21,0.4951-0.2354,0.7051-0.0581l4.8174,4.0825c0.2109,0.1787,0.2363,0.4941,0.0586,0.7051
		C23.7715,13.3213,23.6309,13.3809,23.4893,13.3809z"/>
	<path d="M12.6855,16.8535c-0.0879,0-0.1758-0.0225-0.2559-0.0703c-0.2373-0.1416-0.3154-0.4482-0.1738-0.6855l4.3379-7.2778
		c0.1416-0.2388,0.4502-0.3154,0.6855-0.1738c0.2373,0.1416,0.3154,0.4482,0.1738,0.6855l-4.3379,7.2778
		C13.0215,16.7666,12.8555,16.8535,12.6855,16.8535z"/>
	<path d="M11.0356,17.1338c-0.1133,0-0.2271-0.0381-0.3208-0.1172l-3.6807-3.084c-0.2114-0.1768-0.2393-0.4922-0.062-0.7041
		c0.1782-0.2119,0.4927-0.2402,0.7046-0.0615l3.6807,3.084c0.2114,0.1768,0.2393,0.4922,0.062,0.7041
		C11.3203,17.0732,11.1787,17.1338,11.0356,17.1338z"/>
	<path d="M0.4897,18.126c-0.1436,0-0.2856-0.0615-0.3843-0.1797c-0.1772-0.2119-0.1484-0.5273,0.0635-0.7041l4.8853-4.0762
		c0.2119-0.1768,0.5273-0.1475,0.7041,0.0635c0.1772,0.2119,0.1484,0.5273-0.0635,0.7041l-4.8853,4.0762
		C0.7163,18.0879,0.6025,18.126,0.4897,18.126z"/>
</g>
<rect x="-0.0136" fill="none" width="24" height="24"/>
</svg>
