<?xml version="1.0" encoding="utf-8"?>
<!-- Generator: Adobe Illustrator 18.1.0, SVG Export Plug-In . SVG Version: 6.00 Build 0)  -->
<svg version="1.1" id="Layer_1" xmlns="http://www.w3.org/2000/svg" xmlns:xlink="http://www.w3.org/1999/xlink" x="0px" y="0px"
	 width="24px" height="24px" viewBox="0 0 24 24" enable-background="new 0 0 24 24" xml:space="preserve">
<g>
	<path d="M18.7539,19.7383c-0.1279,0-0.2559-0.0488-0.3535-0.1465c-0.1953-0.1953-0.1953-0.5117,0-0.707l2.3838-2.3838
		l-2.3838-2.3828c-0.1953-0.1953-0.1953-0.5117,0-0.707s0.5117-0.1953,0.707,0l2.7373,2.7363
		c0.0938,0.0938,0.1465,0.2207,0.1465,0.3535s-0.0527,0.2598-0.1465,0.3535l-2.7373,2.7373
		C19.0098,19.6895,18.8818,19.7383,18.7539,19.7383z"/>
	<path d="M21.4912,17.001h-19c-0.2764,0-0.5-0.2236-0.5-0.5s0.2236-0.5,0.5-0.5h19c0.2764,0,0.5,0.2236,0.5,0.5
		S21.7676,17.001,21.4912,17.001z"/>
	<path d="M18.7539,10.7368c-0.1279,0-0.2559-0.0488-0.3535-0.1465c-0.1953-0.1953-0.1953-0.5117,0-0.707L20.7842,7.5l-2.3838-2.3833
		c-0.1953-0.1953-0.1953-0.5117,0-0.707s0.5117-0.1953,0.707,0l2.7373,2.7368c0.0938,0.0938,0.1465,0.2207,0.1465,0.3535
		s-0.0527,0.2598-0.1465,0.3535l-2.7373,2.7368C19.0098,10.688,18.8818,10.7368,18.7539,10.7368z"/>
	<path d="M21.4912,8h-19c-0.2764,0-0.5-0.2236-0.5-0.5S2.2148,7,2.4912,7h19c0.2764,0,0.5,0.2236,0.5,0.5S21.7676,8,21.4912,8z"/>
</g>
<rect y="0.001" fill="none" width="24" height="24"/>
</svg>
