<?xml version="1.0" encoding="utf-8"?>
<!-- Generator: Adobe Illustrator 18.1.0, SVG Export Plug-In . SVG Version: 6.00 Build 0)  -->
<svg version="1.1" id="Layer_1" xmlns="http://www.w3.org/2000/svg" xmlns:xlink="http://www.w3.org/1999/xlink" x="0px" y="0px"
	 width="24px" height="24px" viewBox="0 0 24 24" enable-background="new 0 0 24 24" xml:space="preserve">
<g>
	<path d="M11.999,23.6963c-3.3447,0-7.4375-0.7881-7.9658-3.0098C4.002,20.6084,3.978,20.4707,3.978,20.3311V3.6816
		c0-2.4312,4.0283-3.5083,8.021-3.5083c3.9932,0,8.0215,1.0771,8.0215,3.4829c0,0.0137-0.001,0.0283-0.002,0.0425l0.002,16.6323
		c0,0.1367-0.0234,0.2725-0.0703,0.4053C19.4375,22.9082,15.3438,23.6963,11.999,23.6963z M11.999,1.1733
		c-3.4038,0-7.021,0.8701-7.021,2.4829v16.6748c0.0063,0.0176,0.0239,0.1064,0.0278,0.125c0.3091,1.2979,3.25,2.2402,6.9932,2.2402
		c3.7441,0,6.6846-0.9424,6.9932-2.2402l0.0283-0.125V3.6821c0-0.0078,0-0.0166,0-0.0259l0,0
		C19.0205,2.0435,15.4033,1.1733,11.999,1.1733z"/>
	<path d="M11.9629,6.145c-4.6982,0-7.7822-1.6558-7.9253-2.8428c-0.0327-0.2739,0.1626-0.5229,0.437-0.5562
		c0.2695-0.0332,0.5229,0.1626,0.5562,0.437C5.1973,3.6392,7.6094,5.145,11.9629,5.145c4.3799,0,6.8291-1.5078,7.0088-1.9868
		c0.0322-0.2744,0.2832-0.4639,0.5527-0.4243c0.2744,0.0327,0.4678,0.2939,0.4346,0.5684
		C19.8203,4.4614,16.6367,6.145,11.9629,6.145z"/>
	<path d="M11.9619,11.9819c-4.7285,0-7.8301-1.7134-7.9722-2.9419c0-0.2764,0.2178-0.5498,0.4941-0.5498
		c0.2446,0,0.4434,0.1367,0.4858,0.3599c0.1934,0.5864,2.5664,2.1318,6.9922,2.1318c4.4912,0,6.9102-1.6035,7.0645-2.1128
		c0.0312-0.2739,0.2715-0.4678,0.5537-0.4316c0.2744,0.0317,0.4688,0.2871,0.4375,0.5615
		C19.875,10.2153,16.666,11.9819,11.9619,11.9819z"/>
	<path d="M11.9619,17.6797c-4.7285,0-7.8301-1.7129-7.9722-2.9414c0-0.2764,0.2178-0.5498,0.4941-0.5498
		c0.2437,0,0.4419,0.1367,0.4854,0.3584c0.1943,0.5879,2.5669,2.1328,6.9927,2.1328c4.4902,0,6.9102-1.6025,7.0645-2.1123
		c0.0312-0.2734,0.2715-0.459,0.5537-0.4316c0.2744,0.0322,0.4688,0.2881,0.4375,0.5615
		C19.875,15.9141,16.666,17.6797,11.9619,17.6797z"/>
</g>
<rect fill="none" width="24" height="24"/>
</svg>
