<?xml version="1.0" encoding="utf-8"?>
<!-- Generator: Adobe Illustrator 18.1.0, SVG Export Plug-In . SVG Version: 6.00 Build 0)  -->
<svg version="1.1" id="Layer_1" xmlns="http://www.w3.org/2000/svg" xmlns:xlink="http://www.w3.org/1999/xlink" x="0px" y="0px"
	 width="24px" height="24px" viewBox="0 0 24 24" enable-background="new 0 0 24 24" xml:space="preserve">
<g>
	<path d="M3.6001,23.7441c-0.2495,0-0.4653-0.1865-0.4961-0.4404c-0.0576-0.4805,0.0146-0.9492,0.0845-1.4043
		c0.0923-0.5986,0.1714-1.1162-0.0503-1.5342c-0.1304-0.2441-0.1348-0.4619-0.0117-0.6465c0.1025-0.1533,0.3066-0.249,0.4941-0.2285
		c0.397,0.04,1.3896,0.9795,2.0317,1.7373c0.0586-0.2607,0.1016-0.5498,0.1357-0.7822c0.0405-0.2725,0.0791-0.5283,0.1284-0.7334
		c0.1694-0.5869,0.6978-1.9619,2.0718-2.5264c0.1914-0.0801,0.4219-0.0605,0.5962,0.0576c0.1396,0.0928,0.2549,0.2998,0.2549,0.4678
		c0,1.0225,0.0854,1.832,0.2554,2.4199c0.4111-0.5518,1.0894-1.1699,2.1055-1.2861c0.269-0.0293,0.5337,0.1104,0.6372,0.3545
		c0.0879,0.207,0.0049,0.5146-0.1719,0.6543c-0.6221,0.4971-0.5117,0.8018-0.1021,1.6094c0.2686,0.5293,0.5723,1.1299,0.4365,1.834
		c-0.0522,0.2715-0.3101,0.4473-0.5854,0.3965c-0.271-0.0527-0.4487-0.3145-0.396-0.5859c0.0708-0.3682-0.1323-0.7686-0.3472-1.1914
		c-0.2153-0.4258-0.4956-0.9785-0.4268-1.5713c-0.4849,0.4385-0.7109,1.0029-0.7251,1.0391
		c-0.0659,0.1689-0.2173,0.2881-0.396,0.3135c-0.1812,0.0225-0.3564-0.0479-0.4668-0.1914
		C8.1729,20.875,7.9136,19.8838,7.853,18.417c-0.6021,0.4834-0.8716,1.2109-0.9697,1.5508c-0.0376,0.1592-0.0703,0.3848-0.106,0.625
		c-0.1055,0.71-0.2246,1.5156-0.6509,1.959c-0.0747,0.0771-0.1719,0.1289-0.2783,0.1465c-0.25,0.0947-0.4604-0.0498-0.562-0.2988
		c-0.0913-0.2236-0.5581-0.7432-1.0107-1.1904c-0.0137,0.2891-0.0571,0.5732-0.0986,0.8428
		c-0.062,0.4053-0.1211,0.7891-0.0796,1.1328c0.0327,0.2744-0.1626,0.5234-0.437,0.5557
		C3.6401,23.7432,3.6196,23.7441,3.6001,23.7441z"/>
	<path d="M7.9321,7.3564c-0.0146,0-0.0288-0.0005-0.0435-0.002C7.5781,7.3276,6.981,7.1294,6.7139,6.5566
		C6.3867,5.8564,6.6509,4.9111,7.522,3.6665c0.96-1.3721,0.9199-1.9795,0.8584-2.1768C8.3311,1.332,8.2231,1.2852,8.2017,1.2773
		c-0.251-0.0928-0.396-0.3711-0.3135-0.6265c0.0825-0.2544,0.3423-0.4019,0.5981-0.332c0.061,0.0171,0.6025,0.1836,0.8291,0.8145
		c0.2739,0.7622-0.0449,1.7788-0.9741,3.1064C7.4531,5.5093,7.563,6.0068,7.6177,6.1294C7.7051,6.3242,7.979,6.3589,7.9819,6.3589
		c0.271,0.0322,0.4707,0.2764,0.4429,0.5479C8.3984,7.1641,8.1855,7.3564,7.9321,7.3564z"/>
	<path d="M10.5854,6.8276c-0.0142,0-0.0288-0.0005-0.043-0.002c-0.2773-0.0239-0.665-0.1899-0.8462-0.5781
		c-0.2217-0.4746-0.0649-1.0835,0.4795-1.8608c0.5498-0.7861,0.4595-1.0547,0.458-1.0566c-0.2661-0.0742-0.3931-0.335-0.3193-0.6011
		s0.3799-0.4082,0.644-0.334c0.2061,0.0571,0.4917,0.2485,0.6172,0.5986c0.1816,0.5054-0.0083,1.1484-0.5806,1.9663
		c-0.4492,0.6416-0.3931,0.8643-0.3921,0.8667c0.2749,0.0234,0.4917,0.2676,0.4678,0.5425
		C11.0483,6.6299,10.8413,6.8276,10.5854,6.8276z"/>
	<path d="M4.8091,6.8276c-0.0142,0-0.0288-0.0005-0.043-0.002c-0.2773-0.0239-0.665-0.1899-0.8462-0.5781
		C3.6982,5.7729,3.855,5.1641,4.3994,4.3867c0.5498-0.7861,0.4595-1.0547,0.458-1.0566C4.5913,3.2559,4.4644,2.9951,4.5381,2.729
		s0.3779-0.4082,0.644-0.334c0.2061,0.0571,0.4917,0.2485,0.6172,0.5986C5.981,3.499,5.791,4.1421,5.2188,4.96
		C4.7695,5.6016,4.8257,5.8242,4.8267,5.8267c0.2749,0.0234,0.4917,0.2676,0.4678,0.5425C5.272,6.6299,5.0649,6.8276,4.8091,6.8276z
		"/>
	<path d="M7.708,15.6621c-2.7422,0-5.6934-0.6895-5.6934-2.2041L0.9585,7.3462C0.9116,7.0742,1.0942,6.8154,1.3667,6.769
		c0.2749-0.0435,0.5308,0.1367,0.5771,0.4082l1.0635,6.1958c0.0073,0.4346,1.6519,1.2891,4.7007,1.2891s4.6934-0.8545,4.6934-1.2041
		l1.0889-6.2822c0.0469-0.2734,0.3096-0.4531,0.5781-0.4067c0.2725,0.0474,0.4541,0.3066,0.4062,0.5786l-1.0811,6.1963
		C13.4014,14.9727,10.4502,15.6621,7.708,15.6621z"/>
	<path d="M7.708,9.1069c-3.6514,0-7.3481-0.9438-7.3481-2.7476c0-0.5742,0.3882-1.3921,2.2363-2.0259
		c0.2622-0.0879,0.5454,0.0498,0.6353,0.311c0.0894,0.2612-0.0498,0.5454-0.311,0.6353C1.8423,5.6494,1.3599,6.0884,1.3599,6.3594
		c0,0.6958,2.5317,1.7476,6.3481,1.7476c3.8159,0,6.3477-1.0518,6.3477-1.7476c0-0.2617-0.458-0.6885-1.4814-1.0522
		c-0.2598-0.0928-0.3955-0.3784-0.3027-0.6387c0.0918-0.2603,0.377-0.395,0.6387-0.3037c1.7734,0.6309,2.1455,1.4326,2.1455,1.9946
		C15.0557,8.1631,11.3594,9.1069,7.708,9.1069z"/>
	<path d="M13.7471,9.1069c-0.2188,0-0.4199-0.1445-0.4814-0.3662c-0.0742-0.2656,0.0811-0.5415,0.3477-0.6157l9.333-2.6128
		L14.6357,6.853c-0.2764,0.0415-0.5303-0.1416-0.5732-0.4141c-0.0439-0.2725,0.1406-0.5293,0.4131-0.5732l8.8906-1.4341
		c0.1504-0.0254,0.293,0.0181,0.4043,0.1128c0.1113,0.0952,0.1758,0.2344,0.1758,0.3809v0.9834
		c0,0.2246-0.1494,0.4214-0.3662,0.4819l-9.6992,2.6982C13.8359,9.1011,13.791,9.1069,13.7471,9.1069z"/>
</g>
<rect x="-0.0008" y="-0.0147" fill="none" width="24" height="24"/>
</svg>
