<?xml version="1.0" encoding="utf-8"?>
<!-- Generator: Adobe Illustrator 18.1.0, SVG Export Plug-In . SVG Version: 6.00 Build 0)  -->
<svg version="1.1" id="Layer_1" xmlns="http://www.w3.org/2000/svg" xmlns:xlink="http://www.w3.org/1999/xlink" x="0px" y="0px"
	 width="24px" height="24px" viewBox="0 0 24 24" enable-background="new 0 0 24 24" xml:space="preserve">
<g>
	<path d="M15.4941,2.9971c-0.2764,0-0.5-0.2236-0.5-0.5v-1.5c0-0.2764,0.2236-0.5,0.5-0.5s0.5,0.2236,0.5,0.5v1.5
		C15.9941,2.7734,15.7705,2.9971,15.4941,2.9971z"/>
	<path d="M8.4932,2.9971c-0.2764,0-0.5-0.2236-0.5-0.5v-1.5c0-0.2764,0.2236-0.5,0.5-0.5s0.5,0.2236,0.5,0.5v1.5
		C8.9932,2.7734,8.7695,2.9971,8.4932,2.9971z"/>
	<path d="M6.8423,23.9297c-0.0381,0-0.0771-0.0039-0.1157-0.0137c-0.2686-0.0635-0.4351-0.333-0.3711-0.6016l0.7026-2.9639
		c0.063-0.2695,0.3335-0.4395,0.6016-0.3711c0.269,0.0635,0.4351,0.333,0.3711,0.6016l-0.7026,2.9639
		C7.2739,23.7754,7.0688,23.9297,6.8423,23.9297z"/>
	<path d="M17.1436,23.9297c-0.2266,0-0.4316-0.1543-0.4863-0.3848l-0.7021-2.9639c-0.0635-0.2686,0.1025-0.5381,0.3711-0.6016
		c0.2705-0.0684,0.5371,0.1016,0.6016,0.3711l0.7021,2.9639c0.0635,0.2686-0.1025,0.5381-0.3711,0.6016
		C17.2197,23.9258,17.1816,23.9297,17.1436,23.9297z"/>
	<path d="M23.4941,18.9971h-23c-0.2764,0-0.5-0.2236-0.5-0.5v-16c0-0.2764,0.2236-0.5,0.5-0.5h23c0.2764,0,0.5,0.2236,0.5,0.5v16
		C23.9941,18.7734,23.7705,18.9971,23.4941,18.9971z M0.9941,17.9971h22v-15h-22V17.9971z"/>
	<path d="M4.2637,11.085c-0.7573,0-1.373-0.6157-1.373-1.373s0.6157-1.373,1.373-1.373s1.3735,0.6157,1.3735,1.373
		S5.021,11.085,4.2637,11.085z M4.2637,9.3389c-0.2056,0-0.373,0.1675-0.373,0.373s0.1675,0.373,0.373,0.373
		c0.2061,0,0.3735-0.1675,0.3735-0.373S4.4697,9.3389,4.2637,9.3389z"/>
	<path d="M9.3999,7.8164c-0.7573,0-1.373-0.6157-1.373-1.373s0.6157-1.373,1.373-1.373s1.3735,0.6157,1.3735,1.373
		S10.1572,7.8164,9.3999,7.8164z M9.3999,6.0703c-0.2056,0-0.373,0.1675-0.373,0.373s0.1675,0.373,0.373,0.373
		c0.2061,0,0.3735-0.1675,0.3735-0.373S9.606,6.0703,9.3999,6.0703z"/>
	<path d="M14.5361,15.7549c-0.7568,0-1.373-0.6162-1.373-1.374c0-0.7568,0.6162-1.373,1.373-1.373s1.373,0.6162,1.373,1.373
		C15.9092,15.1387,15.293,15.7549,14.5361,15.7549z M14.5361,14.0078c-0.2061,0-0.373,0.167-0.373,0.373s0.167,0.374,0.373,0.374
		s0.373-0.168,0.373-0.374S14.7422,14.0078,14.5361,14.0078z"/>
	<path d="M19.6729,10.1514c-0.7568,0-1.373-0.6157-1.373-1.373s0.6162-1.3735,1.373-1.3735s1.373,0.6162,1.373,1.3735
		S20.4297,10.1514,19.6729,10.1514z M19.6729,8.4048c-0.2061,0-0.373,0.1675-0.373,0.3735c0,0.2056,0.167,0.373,0.373,0.373
		s0.373-0.1675,0.373-0.373C20.0459,8.5723,19.8789,8.4048,19.6729,8.4048z"/>
	<path d="M4.9995,9.7441c-0.166,0-0.3286-0.0825-0.4233-0.2334C4.4287,9.2773,4.499,8.9683,4.7324,8.8213l3.6748-2.3164
		c0.2329-0.146,0.5425-0.0767,0.6895,0.1562c0.1475,0.2334,0.0771,0.5425-0.1562,0.6895L5.2656,9.667
		C5.1831,9.7192,5.0908,9.7441,4.9995,9.7441z"/>
	<path d="M14.0625,14.1494c-0.1631,0-0.3242-0.0801-0.4199-0.2285l-4.189-6.4741C9.3037,7.2148,9.3701,6.9053,9.6021,6.7554
		c0.2314-0.1499,0.541-0.0835,0.6914,0.1484l4.189,6.4741c0.1494,0.2314,0.084,0.541-0.1484,0.6914
		C14.25,14.123,14.1562,14.1494,14.0625,14.1494z"/>
	<path d="M15.124,14.2393c-0.1211,0-0.2422-0.043-0.3379-0.1318c-0.2031-0.1865-0.2168-0.5029-0.0303-0.7061l3.9463-4.3047
		c0.1875-0.2041,0.5049-0.2158,0.7061-0.0308c0.2031,0.1865,0.2168,0.5029,0.0303,0.7065l-3.9463,4.3047
		C15.3936,14.1846,15.2588,14.2393,15.124,14.2393z"/>
</g>
<rect x="-0.006" y="-0.003" fill="none" width="24" height="24"/>
</svg>
