<?xml version="1.0" encoding="utf-8"?>
<!-- Generator: Adobe Illustrator 18.1.0, SVG Export Plug-In . SVG Version: 6.00 Build 0)  -->
<svg version="1.1" id="Layer_1" xmlns="http://www.w3.org/2000/svg" xmlns:xlink="http://www.w3.org/1999/xlink" x="0px" y="0px"
	 width="24px" height="24px" viewBox="0 0 24 24" enable-background="new 0 0 24 24" xml:space="preserve">
<g>
	<path d="M22.5,18h-22C0.2236,18,0,17.7764,0,17.5v-4C0,13.2236,0.2236,13,0.5,13h22c0.2764,0,0.5,0.2236,0.5,0.5v4
		C23,17.7764,22.7764,18,22.5,18z M1,17h21v-3H1C1,14,1,17,1,17z"/>
	<path d="M20.5,18c-0.2764,0-0.5-0.2236-0.5-0.5v-4c0-0.2764,0.2236-0.5,0.5-0.5s0.5,0.2236,0.5,0.5v4
		C21,17.7764,20.7764,18,20.5,18z"/>
	<path d="M7.5,18C7.2236,18,7,17.7764,7,17.5v-4C7,13.2236,7.2236,13,7.5,13S8,13.2236,8,13.5v4C8,17.7764,7.7764,18,7.5,18z"/>
	<path d="M22.2559,11.9756c-0.2549,0-0.4727-0.1943-0.4971-0.4536c-0.0254-0.2749,0.1768-0.5186,0.4521-0.5444
		c0.0059-0.0005,0.3115-0.0415,0.4316-0.2988c0.0938-0.2021,0.2031-0.8398-0.8047-2.3838
		c-1.0127-1.5522-1.3662-2.7734-1.0518-3.6304c0.2471-0.6724,0.7998-0.8545,0.8623-0.8726
		c0.2695-0.0806,0.5439,0.0718,0.6221,0.3364c0.0771,0.2598-0.0664,0.5327-0.3223,0.6172
		c-0.0244,0.0103-0.1631,0.0757-0.2324,0.2891c-0.0801,0.25-0.1484,1.0156,0.96,2.7134c0.9639,1.4775,1.2461,2.5806,0.8633,3.373
		c-0.2939,0.6094-0.915,0.8228-1.2363,0.8525C22.2871,11.9751,22.2715,11.9756,22.2559,11.9756z"/>
	<path d="M19.3135,11.9756c-0.2549,0-0.4727-0.1943-0.4971-0.4536c-0.0254-0.2754,0.1768-0.5186,0.4521-0.5444
		c0.0762-0.0591,0.1875-0.3379-0.373-1.1968c-0.624-0.958-0.8271-1.6973-0.6211-2.2603c0.1729-0.4712,0.5566-0.6069,0.6318-0.6289
		c0.2666-0.0796,0.5439,0.0718,0.6221,0.3364c0.0752,0.252-0.0586,0.5166-0.2998,0.6094c-0.0479,0.0459-0.1309,0.4219,0.5049,1.397
		c0.5938,0.9102,0.7588,1.6079,0.5059,2.1328c-0.2588,0.5342-0.8154,0.6006-0.8789,0.6064
		C19.3448,11.9751,19.3291,11.9756,19.3135,11.9756z"/>
</g>
<rect y="0.0002" fill="none" width="24" height="24"/>
</svg>
