<?xml version="1.0" encoding="utf-8"?>
<!-- Generator: Adobe Illustrator 18.1.0, SVG Export Plug-In . SVG Version: 6.00 Build 0)  -->
<svg version="1.1" id="Layer_1" xmlns="http://www.w3.org/2000/svg" xmlns:xlink="http://www.w3.org/1999/xlink" x="0px" y="0px"
	 width="24px" height="24px" viewBox="0 0 24 24" enable-background="new 0 0 24 24" xml:space="preserve">
<g>
	<path d="M23.2607,24c-0.0049,0.001-0.0117,0.001-0.0195,0H10.7578c-0.1865,0-0.3574-0.1035-0.4434-0.2686
		s-0.0732-0.3652,0.0332-0.5176l6.2422-8.9424c0.0938-0.1338,0.2471-0.2139,0.4102-0.2139l0,0c0.1631,0,0.3164,0.0801,0.4102,0.2139
		l6.1748,8.8477c0.1074,0.0918,0.1758,0.2285,0.1758,0.3809C23.7607,23.7764,23.5371,24,23.2607,24z M11.7168,23h10.5654L17,15.4316
		L11.7168,23z"/>
	<path d="M10.48,21H0.7358c-0.1841,0-0.3535-0.1016-0.4409-0.2637c-0.0869-0.1631-0.0776-0.3604,0.0244-0.5137L8.9341,7.2769
		C9.0273,7.1377,9.208,7.0371,9.3506,7.0537c0.1665,0,0.3218,0.0825,0.4146,0.2207l5.0366,7.4795
		c0.1543,0.2295,0.0938,0.54-0.1357,0.6943c-0.2285,0.1523-0.5391,0.0938-0.6943-0.1357L9.353,8.4526L1.6689,20h8.811
		c0.2764,0,0.5,0.2236,0.5,0.5S10.7563,21,10.48,21z"/>
	<path d="M18.4883,7.4336c-1.0703,0-1.9414-0.8706-1.9414-1.9409s0.8711-1.9414,1.9414-1.9414s1.9414,0.8711,1.9414,1.9414
		S19.5586,7.4336,18.4883,7.4336z M18.4883,4.5513c-0.5195,0-0.9414,0.4224-0.9414,0.9414s0.4219,0.9409,0.9414,0.9409
		s0.9414-0.4219,0.9414-0.9409S19.0078,4.5513,18.4883,4.5513z"/>
	<path d="M23.0156,6.001h-1.7793c-0.2764,0-0.5-0.2236-0.5-0.5s0.2236-0.5,0.5-0.5h1.7793c0.2764,0,0.5,0.2236,0.5,0.5
		S23.292,6.001,23.0156,6.001z"/>
	<path d="M15.7461,6.001h-1.7783c-0.2764,0-0.5-0.2236-0.5-0.5s0.2236-0.5,0.5-0.5h1.7783c0.2764,0,0.5,0.2236,0.5,0.5
		S16.0225,6.001,15.7461,6.001z"/>
	<path d="M18.4912,3.2559c-0.2764,0-0.5-0.2236-0.5-0.5V0.9771c0-0.2764,0.2236-0.5,0.5-0.5s0.5,0.2236,0.5,0.5v1.7788
		C18.9912,3.0322,18.7676,3.2559,18.4912,3.2559z"/>
	<path d="M18.4912,10.5254c-0.2764,0-0.5-0.2236-0.5-0.5V8.2461c0-0.2764,0.2236-0.5,0.5-0.5s0.5,0.2236,0.5,0.5v1.7793
		C18.9912,10.3018,18.7676,10.5254,18.4912,10.5254z"/>
	<path d="M20.4902,4.002c-0.1279,0-0.2559-0.0488-0.3535-0.1465c-0.1953-0.1953-0.1953-0.5117,0-0.707l1.2578-1.2578
		c0.1953-0.1953,0.5117-0.1953,0.707,0s0.1953,0.5117,0,0.707l-1.2578,1.2578C20.7461,3.9531,20.6182,4.002,20.4902,4.002z"/>
	<path d="M15.2344,9.2578c-0.1279,0-0.2559-0.0488-0.3535-0.1465c-0.1953-0.1953-0.1953-0.5117,0-0.707l1.2578-1.2578
		c0.1953-0.1953,0.5117-0.1953,0.707,0s0.1953,0.5117,0,0.707l-1.2578,1.2578C15.4902,9.209,15.3623,9.2578,15.2344,9.2578z"/>
	<path d="M21.748,9.2578c-0.1279,0-0.2559-0.0488-0.3535-0.1465l-1.2578-1.2578c-0.1953-0.1953-0.1953-0.5117,0-0.707
		s0.5117-0.1953,0.707,0l1.2578,1.2578c0.1953,0.1953,0.1953,0.5117,0,0.707C22.0039,9.209,21.876,9.2578,21.748,9.2578z"/>
	<path d="M16.4922,4.002c-0.1279,0-0.2559-0.0488-0.3535-0.1465l-1.2578-1.2578c-0.1953-0.1953-0.1953-0.5117,0-0.707
		s0.5117-0.1953,0.707,0l1.2578,1.2578c0.1953,0.1953,0.1953,0.5117,0,0.707C16.748,3.9531,16.6201,4.002,16.4922,4.002z"/>
	<path d="M11.9863,12H6.7246c-0.2764,0-0.5-0.2236-0.5-0.5s0.2236-0.5,0.5-0.5h5.2617c0.2764,0,0.5,0.2236,0.5,0.5
		S12.2627,12,11.9863,12z"/>
</g>
<rect x="-0.0137" fill="none" width="24" height="24"/>
</svg>
