<?xml version="1.0" encoding="utf-8"?>
<!-- Generator: Adobe Illustrator 18.1.0, SVG Export Plug-In . SVG Version: 6.00 Build 0)  -->
<svg version="1.1" id="Layer_1" xmlns="http://www.w3.org/2000/svg" xmlns:xlink="http://www.w3.org/1999/xlink" x="0px" y="0px"
	 width="24px" height="24px" viewBox="0 0 24 24" enable-background="new 0 0 24 24" xml:space="preserve">
<g>
	<path d="M7.9697,19.3076c-1.7773,0-3.2236-1.4463-3.2236-3.2236s1.4463-3.2227,3.2236-3.2227s3.2231,1.4453,3.2231,3.2227
		S9.7471,19.3076,7.9697,19.3076z M7.9697,13.8613c-1.2261,0-2.2236,0.9971-2.2236,2.2227c0,1.2266,0.9976,2.2236,2.2236,2.2236
		s2.2231-0.9971,2.2231-2.2236C10.1929,14.8584,9.1958,13.8613,7.9697,13.8613z"/>
	<path d="M7.9678,23.9375c-0.3579,0-0.7109-0.0254-1.0796-0.0762c-0.2231-0.0303-0.3984-0.207-0.4272-0.4307l-0.2173-1.6611
		c-0.3706-0.1123-0.7285-0.2607-1.0698-0.4424l-1.3296,1.0215c-0.1787,0.1377-0.4268,0.1377-0.6064,0.002
		c-0.5718-0.4326-1.1021-0.9619-1.5332-1.5322c-0.1357-0.1797-0.1348-0.4277,0.0024-0.6064l1.0215-1.3291
		c-0.1831-0.3418-0.3315-0.7002-0.4438-1.0703L0.623,17.5957c-0.2231-0.0293-0.3994-0.2041-0.4302-0.4277
		c-0.0996-0.7188-0.0996-1.4482,0-2.167c0.0308-0.2236,0.207-0.3984,0.4302-0.4277l1.6611-0.2168
		c0.1128-0.3711,0.2612-0.7295,0.4443-1.0713L1.707,11.9561c-0.1372-0.1787-0.1382-0.4268-0.0024-0.6064
		c0.4316-0.5703,0.9619-1.1001,1.5332-1.5327C3.417,9.6816,3.665,9.6826,3.8442,9.8193l1.3296,1.022
		c0.3418-0.1826,0.6997-0.3311,1.0698-0.4429l0.2173-1.6611C6.4897,8.5142,6.665,8.3379,6.8882,8.3071
		c0.7422-0.103,1.4268-0.1021,2.1685,0.001c0.2231,0.0308,0.3979,0.207,0.4268,0.4302l0.2178,1.6621
		c0.3691,0.1123,0.7261,0.2603,1.0669,0.4424l1.3296-1.0215c0.1787-0.1367,0.4277-0.1387,0.6064-0.002
		c0.5791,0.4385,1.0947,0.9546,1.5322,1.5337c0.1357,0.1797,0.1348,0.4277-0.002,0.6064l-1.0215,1.3296
		c0.1816,0.3408,0.3291,0.6973,0.4414,1.0664l1.6611,0.2168c0.2236,0.0293,0.4004,0.2051,0.4307,0.4277
		c0.1025,0.7422,0.1025,1.4316,0,2.1689c-0.0303,0.2236-0.207,0.3984-0.4307,0.4277l-1.6611,0.2168
		c-0.1123,0.3691-0.2598,0.7256-0.4414,1.0654l1.0215,1.3301c0.1367,0.1787,0.1377,0.4268,0.0029,0.6064
		c-0.4375,0.5791-0.9541,1.0947-1.5332,1.5332c-0.1787,0.1357-0.4277,0.1367-0.6064-0.002l-1.3296-1.0215
		c-0.3398,0.1816-0.6973,0.3301-1.0669,0.4424l-0.2178,1.6621c-0.0293,0.2236-0.2041,0.4004-0.4272,0.4307
		C8.6836,23.9121,8.3276,23.9375,7.9678,23.9375z M7.4014,22.9131c0.3823,0.0312,0.7554,0.0312,1.1416-0.001l0.21-1.6035
		c0.0269-0.2061,0.1772-0.373,0.3784-0.4219c0.5015-0.1201,0.9775-0.3184,1.4155-0.5869c0.1772-0.1094,0.4028-0.0957,0.5664,0.0293
		l1.2832,0.9854c0.291-0.2461,0.5605-0.5156,0.8066-0.8066l-0.9863-1.2832c-0.126-0.1641-0.1377-0.3896-0.0303-0.5654
		c0.2686-0.4385,0.4658-0.915,0.5869-1.416c0.0488-0.2012,0.2168-0.3516,0.4219-0.3789l1.6025-0.209
		c0.0332-0.3828,0.0332-0.7568,0-1.1416l-1.6025-0.21c-0.2061-0.0273-0.373-0.1777-0.4219-0.3789
		c-0.1201-0.5-0.3174-0.9766-0.5869-1.416c-0.1074-0.1768-0.0957-0.4014,0.0303-0.5654l0.9854-1.2827
		c-0.2461-0.291-0.5156-0.561-0.8066-0.8076l-1.2822,0.9858c-0.1636,0.127-0.3892,0.1382-0.5659,0.0298
		c-0.4395-0.2695-0.916-0.4673-1.416-0.5879c-0.2012-0.0483-0.3516-0.2158-0.3784-0.4209l-0.21-1.604
		C8.1587,9.2231,7.7852,9.2231,7.4014,9.2554l-0.2095,1.603c-0.0269,0.2056-0.1777,0.373-0.3789,0.4214
		c-0.501,0.1201-0.978,0.3174-1.4189,0.5869c-0.1753,0.1094-0.4009,0.0967-0.5654-0.0298l-1.2827-0.9854
		c-0.2891,0.2451-0.5615,0.5176-0.8066,0.8062l0.9854,1.2817c0.126,0.1641,0.1382,0.3887,0.0298,0.5654
		c-0.2705,0.4424-0.4688,0.9199-0.5889,1.4209c-0.0488,0.2012-0.2163,0.3516-0.4214,0.3789l-1.6025,0.21
		c-0.0312,0.3789-0.0312,0.7607,0,1.1396l1.6025,0.21c0.2051,0.0273,0.3726,0.1777,0.4214,0.3789
		c0.1201,0.5,0.3184,0.9775,0.5889,1.4199c0.1084,0.1768,0.0962,0.4014-0.0298,0.5654l-0.9854,1.2812
		c0.2451,0.2891,0.5176,0.5615,0.8066,0.8066l1.2827-0.9854c0.1646-0.125,0.3901-0.1377,0.5659-0.0303
		c0.439,0.2695,0.9165,0.4668,1.4189,0.5879c0.2012,0.0488,0.3516,0.2158,0.3784,0.4219L7.4014,22.9131z"/>
	<path d="M18.2393,8.002c-1.251,0-2.2686-1.0181-2.2686-2.269c0-1.2515,1.0176-2.2695,2.2686-2.2695s2.2695,1.0181,2.2695,2.2695
		C20.5088,6.9839,19.4902,8.002,18.2393,8.002z M18.2393,4.4634c-0.6992,0-1.2686,0.5693-1.2686,1.2695
		c0,0.6997,0.5693,1.269,1.2686,1.269c0.7002,0,1.2695-0.5693,1.2695-1.269C19.5088,5.0327,18.9395,4.4634,18.2393,4.4634z"/>
	<path d="M16.9287,11.375c-0.041,0-0.083-0.0049-0.124-0.0156c-0.5293-0.1362-1.0146-0.3345-1.4844-0.6069
		c-0.1953-0.1133-0.29-0.3428-0.2324-0.5605l0.2871-1.083c-0.1738-0.147-0.3359-0.3076-0.4854-0.481l-1.082,0.2959
		c-0.2168,0.0596-0.4482-0.0332-0.5615-0.2275c-0.2705-0.4561-0.4854-0.9678-0.6201-1.4795
		c-0.0576-0.2173,0.0371-0.4463,0.2324-0.5596l0.9678-0.5635c-0.0186-0.228-0.0195-0.4565-0.0029-0.6841l-0.9736-0.5562
		c-0.1953-0.1118-0.292-0.3403-0.2363-0.5586c0.1338-0.5205,0.3379-1.019,0.6074-1.4824c0.1143-0.1948,0.3398-0.291,0.5605-0.2324
		l1.083,0.2861c0.1475-0.1738,0.3086-0.3364,0.4814-0.4854l-0.2949-1.0815c-0.0596-0.2173,0.0342-0.4478,0.2285-0.5625
		c0.4561-0.2695,0.9668-0.4834,1.4775-0.6187c0.2217-0.0571,0.4473,0.0371,0.5605,0.2319l0.5635,0.9692
		c0.2266-0.0186,0.4551-0.0205,0.6836-0.0024l0.5547-0.9727c0.1123-0.1953,0.3379-0.2944,0.5586-0.2368
		c0.5283,0.1357,1.0127,0.3345,1.4834,0.6074c0.1943,0.1133,0.29,0.3428,0.2324,0.5601l-0.2861,1.084
		c0.1729,0.147,0.334,0.3076,0.4834,0.481l1.082-0.2959c0.2188-0.0576,0.4473,0.0337,0.5625,0.2275
		c0.2725,0.4614,0.4805,0.959,0.6191,1.479c0.0576,0.2178-0.0371,0.4473-0.2324,0.5605l-0.9697,0.564
		c0.0186,0.2261,0.0195,0.4536,0.0029,0.6807l0.9736,0.5557c0.1953,0.1113,0.292,0.3398,0.2363,0.5581
		c-0.1348,0.5264-0.334,1.0117-0.6074,1.4839c-0.1123,0.1948-0.3398,0.2915-0.5605,0.2324l-1.083-0.2861
		c-0.1475,0.1729-0.3076,0.334-0.4795,0.4829l0.2959,1.082c0.0596,0.2173-0.0342,0.4473-0.2275,0.562
		c-0.4609,0.2734-0.959,0.4819-1.4795,0.6201c-0.2119,0.0576-0.4463-0.0366-0.5605-0.2319l-0.5635-0.9688
		c-0.2256,0.019-0.4521,0.0205-0.6807,0.0034l-0.5557,0.9736C17.2725,11.2812,17.1055,11.375,16.9287,11.375z M16.1562,10.0649
		c0.1738,0.084,0.3506,0.1562,0.5342,0.2183l0.5225-0.9155c0.1025-0.1797,0.3066-0.2778,0.5107-0.2461
		c0.3584,0.0552,0.7148,0.0527,1.0625-0.0054c0.2051-0.0308,0.4082,0.0635,0.5127,0.2422l0.5293,0.9106
		c0.1826-0.064,0.3604-0.1382,0.5332-0.2231L20.083,9.0288c-0.0547-0.1997,0.0195-0.4121,0.1865-0.5347
		c0.2891-0.2124,0.541-0.4663,0.749-0.7544c0.1191-0.1675,0.3271-0.2446,0.5332-0.1909l1.0186,0.269
		c0.085-0.1748,0.1572-0.3511,0.2188-0.5347l-0.915-0.5225c-0.1797-0.1025-0.2773-0.3052-0.2461-0.5093
		c0.0537-0.3545,0.0527-0.7124-0.0039-1.063c-0.0332-0.2046,0.0625-0.4082,0.2422-0.5122l0.9111-0.5303
		c-0.0645-0.1821-0.1387-0.3599-0.2236-0.5327l-1.0166,0.2778c-0.1982,0.0557-0.4121-0.019-0.5352-0.1865
		c-0.2129-0.2905-0.4668-0.543-0.7539-0.7495c-0.168-0.1211-0.2441-0.333-0.1914-0.5332l0.2695-1.0195
		c-0.1748-0.0845-0.3506-0.1567-0.5342-0.2188l-0.5215,0.9146c-0.1025,0.1802-0.3096,0.2769-0.5107,0.2466
		C18.4014,2.29,18.043,2.2925,17.6943,2.3491c-0.2012,0.0356-0.4082-0.0635-0.5127-0.2422l-0.5293-0.9111
		c-0.1807,0.064-0.3594,0.1387-0.5322,0.2231l0.2773,1.0156c0.0547,0.1997-0.0195,0.4126-0.1865,0.5352
		c-0.2891,0.2119-0.542,0.4663-0.751,0.7563c-0.1201,0.1675-0.3291,0.2446-0.5332,0.1909l-1.0176-0.269
		c-0.084,0.1733-0.1562,0.3516-0.2188,0.5342l0.9141,0.522c0.1797,0.1025,0.2773,0.3047,0.2461,0.5093
		c-0.0537,0.3535-0.0518,0.7129,0.0049,1.0674c0.0332,0.2041-0.0625,0.4077-0.2422,0.5117l-0.9092,0.5298
		c0.0635,0.1812,0.1377,0.3599,0.2227,0.5322l1.0166-0.2778c0.2012-0.0532,0.4131,0.0195,0.5352,0.1865
		c0.2129,0.2896,0.4668,0.542,0.7559,0.749c0.168,0.1211,0.2441,0.3335,0.1914,0.5342L16.1562,10.0649z"/>
</g>
<rect fill="none" width="24" height="24"/>
</svg>
