<?xml version="1.0" encoding="utf-8"?>
<!-- Generator: Adobe Illustrator 18.1.1, SVG Export Plug-In . SVG Version: 6.00 Build 0)  -->
<svg version="1.1" id="Layer_1" xmlns="http://www.w3.org/2000/svg" xmlns:xlink="http://www.w3.org/1999/xlink" x="0px" y="0px"
	 width="24px" height="24px" viewBox="0 0 24 24" enable-background="new 0 0 24 24" xml:space="preserve">
<rect fill="none" width="24" height="24"/>
<g>
	<path d="M6.7851,4.6001c0.0047,0.0267,0.0021,0.0541,0.0113,0.0801c0.0018,0.0054,0.0065,0.0091,0.0085,0.0143
		c0.0023,0.0059,0.0012,0.012,0.0037,0.0179c0.0049,0.0115,0.017,0.0161,0.0227,0.0269c0.0341,0.0663,0.0812,0.1214,0.1404,0.1664
		c0.0168,0.0127,0.0304,0.0257,0.0485,0.0361c0.0124,0.0073,0.021,0.0192,0.0341,0.0254l2.9146,1.3799
		c0.0688,0.0327,0.1416,0.0479,0.2134,0.0479c0.1875,0,0.3672-0.1055,0.4526-0.2861c0.1182-0.2495,0.0112-0.5479-0.2383-0.666
		L8.5307,4.5595c2.8572-1.0264,5.8439-1.3188,8.5201-0.8154c0.2637,0.0483,0.5332-0.127,0.584-0.3984
		c0.0518-0.2715-0.127-0.5332-0.3984-0.584c-2.8237-0.5333-5.9598-0.2372-8.9565,0.8232l0.8403-1.7177
		c0.1211-0.248,0.0186-0.5474-0.2295-0.6689C8.6436,1.0767,8.3433,1.1802,8.2217,1.4277L6.8188,4.2954
		C6.8161,4.3011,6.8167,4.3076,6.8141,4.3134c-0.0145,0.0325-0.0195,0.067-0.0267,0.1019C6.7814,4.4442,6.772,4.4716,6.7712,4.501
		C6.7702,4.5342,6.7793,4.5667,6.7851,4.6001z"/>
	<path d="M22.4072,16.1924c-0.4834-0.6846-1.1611-1.8164-1.6494-3.3184c-0.7363-2.2632-2.4355-4.3882-2.543-4.5176
		c-0.8818-0.8804-1.9189-0.9785-2.6436-0.2524c-0.2535,0.2531-0.4226,0.5649-0.5117,0.9023L14.8643,8.811
		c-0.7793-0.7803-2.0488-0.7803-2.8281,0c-0.2868,0.2868-0.4744,0.6453-0.5489,1.0349c-0.7448-0.3579-1.6637-0.2368-2.2797,0.3792
		c-0.2587,0.2589-0.4232,0.5735-0.5102,0.9044L4.9648,7.397c-0.7559-0.7563-2.0732-0.7554-2.8281,0
		C1.7588,7.7744,1.5508,8.2764,1.5508,8.811c0,0.5342,0.208,1.0361,0.5859,1.4141l7.5442,7.5446l-3.7366-0.964
		c-0.77-0.1719-1.5605,0.3115-1.8296,1.127c-0.2305,0.6953-0.0132,1.5967,0.979,2.04c0.208,0.0986,5.1372,2.4209,8.7402,2.6904
		c0.0098,0.002,0.9824-0.0518,1.9131,0.3369c0.0635,0.0254,0.1279,0.0381,0.1924,0.0381c0.1953,0,0.3818-0.1152,0.4619-0.3076
		c0.1055-0.2549-0.0146-0.5479-0.2695-0.6543c-1.1533-0.4805-2.3105-0.4121-2.2891-0.4111
		c-3.3496-0.2539-8.271-2.5732-8.3311-2.6016c-0.5444-0.2422-0.5142-0.6162-0.4478-0.8164
		c0.0933-0.2803,0.3672-0.5293,0.6504-0.4678l5.4883,1.415c0.0214,0.006,0.0422,0.0014,0.0637,0.0044
		c0.0212,0.0027,0.0414,0.0122,0.0628,0.0122c0.0102,0,0.0198-0.0052,0.03-0.0059c0.0391-0.0021,0.0751-0.0106,0.112-0.0218
		c0.0237-0.0071,0.0464-0.0135,0.069-0.0242c0.0365-0.0173,0.0679-0.0402,0.0992-0.0659c0.0137-0.0111,0.0305-0.0159,0.0432-0.0287
		c0.007-0.007,0.0093-0.0164,0.0157-0.0237c0.0231-0.0261,0.0401-0.0558,0.0577-0.0869c0.0165-0.0291,0.0327-0.0569,0.0429-0.0882
		c0.0035-0.0104,0.0112-0.0181,0.014-0.0288c0.0054-0.0205,0.0007-0.0404,0.0034-0.0609c0.0045-0.0341,0.0082-0.0667,0.0057-0.101
		c-0.0024-0.0327-0.0097-0.0627-0.0183-0.0939c-0.0082-0.0303-0.0168-0.059-0.0308-0.0876
		c-0.0154-0.0315-0.0354-0.0584-0.0571-0.0861c-0.0126-0.0161-0.0185-0.0353-0.0333-0.05L2.8438,9.5181
		c-0.189-0.189-0.293-0.4399-0.293-0.707s0.104-0.5181,0.293-0.707c0.3779-0.3779,1.0361-0.3779,1.4141,0l4.9497,4.9497
		l1.0605,1.0605c0.0977,0.0977,0.2256,0.1465,0.3535,0.1465s0.2559-0.0488,0.3535-0.1465c0.1953-0.1953,0.1953-0.5117,0-0.707
		l-1.0605-1.0605c-0.3896-0.3901-0.3896-1.0244,0-1.4146c0.3887-0.3887,1.0249-0.3896,1.4146,0l1.7676,1.7681
		c0.0977,0.0977,0.2256,0.1465,0.3535,0.1465s0.2559-0.0488,0.3535-0.1465c0.1953-0.1953,0.1953-0.5117,0-0.707l-1.0605-1.061
		c-0.1895-0.189-0.293-0.4399-0.293-0.707s0.1045-0.5181,0.293-0.707c0.3906-0.3896,1.0234-0.3896,1.4141,0l1.4141,1.4141
		l0.3535,0.3535c0.0977,0.0977,0.2256,0.1465,0.3535,0.1465s0.2559-0.0488,0.3535-0.1465c0.1953-0.1953,0.1953-0.5117,0-0.707
		l-0.3535-0.3535c-0.1885-0.189-0.293-0.4399-0.293-0.707S16.0898,9,16.2783,8.811c0.4238-0.4233,0.9531-0.0244,1.1934,0.2124
		c0.0166,0.0205,1.6553,2.0693,2.335,4.1592c0.5273,1.6211,1.2607,2.8447,1.7832,3.5859c0.0967,0.1377,0.252,0.2119,0.4082,0.2119
		c0.0996,0,0.2002-0.0293,0.2881-0.0918C22.5117,16.7305,22.5654,16.418,22.4072,16.1924z"/>
</g>
</svg>
