<?xml version="1.0" encoding="utf-8"?>
<!-- Generator: Adobe Illustrator 18.1.0, SVG Export Plug-In . SVG Version: 6.00 Build 0)  -->
<svg version="1.1" id="Layer_1" xmlns="http://www.w3.org/2000/svg" xmlns:xlink="http://www.w3.org/1999/xlink" x="0px" y="0px"
	 width="24px" height="24px" viewBox="0 0 24 24" enable-background="new 0 0 24 24" xml:space="preserve">
<g>
	<path d="M11.9849,23.7939c-2.564,0-6.6709-2.8838-7.231-6.5166c-0.8101-0.1963-1.4019-0.918-1.4019-1.7744
		c0-0.5645,0.2617-1.0898,0.6924-1.4326c-0.2261-0.751-0.3208-1.3936-0.3208-2.1367c0-0.2764,0.2236-0.5,0.5-0.5s0.5,0.2236,0.5,0.5
		c0,0.7471,0.1128,1.3828,0.3896,2.1943c0.0835,0.2441-0.0327,0.5117-0.2686,0.6172c-0.2993,0.1348-0.4927,0.4316-0.4927,0.7578
		c0,0.458,0.3726,0.8301,0.8301,0.8301c0.2607,0,0.501,0.1992,0.5215,0.459c0.2559,3.2549,4.04,6.002,6.2812,6.002
		c2.2944,0,6.021-2.6885,6.2808-6.002c0.0195-0.2598,0.2373-0.4609,0.498-0.4609c0.4355-0.0146,0.8535-0.3711,0.8535-0.8281
		c0-0.3262-0.1934-0.623-0.4922-0.7578c-0.2363-0.1055-0.3525-0.373-0.2695-0.6172c0.2773-0.8105,0.3896-1.4463,0.3896-2.1953
		c0-0.2764,0.2236-0.5,0.5-0.5s0.5,0.2236,0.5,0.5c0,0.7441-0.0947,1.3877-0.3203,2.1377c0.4307,0.3428,0.6924,0.8682,0.6924,1.4326
		c0,0.8623-0.5996,1.5869-1.4033,1.7803C18.6738,20.7754,14.8418,23.7939,11.9849,23.7939z"/>
	<path d="M6.4717,15.3057c-0.1577,0-0.3096-0.0752-0.4048-0.207c-0.0498-0.0654-0.5234-0.6641-1.2256-0.3516
		c-0.2544,0.1104-0.5479-0.0039-0.6587-0.2568c-0.1113-0.2529,0.0034-0.5479,0.2563-0.6592
		c0.6211-0.2725,1.1787-0.1924,1.6138,0.0127l0.1113-1.2939c0.0234-0.2754,0.2534-0.4785,0.541-0.4551
		c0.2749,0.0234,0.479,0.2656,0.4551,0.541l-0.1904,2.2129c-0.0176,0.208-0.1631,0.3828-0.3643,0.4385
		C6.561,15.2998,6.5161,15.3057,6.4717,15.3057z"/>
	<path d="M17.5234,15.3037c-0.0459,0-0.0908-0.0059-0.1367-0.0195c-0.1992-0.0566-0.3438-0.2285-0.3613-0.4355l-0.1943-2.251
		c-0.0234-0.2754,0.1797-0.5176,0.4551-0.541c0.2637-0.0254,0.5166,0.1797,0.541,0.4551l0.1152,1.332
		c0.4355-0.2051,0.9922-0.2842,1.6133-0.0127c0.2529,0.1113,0.3682,0.4062,0.2568,0.6592
		c-0.1123,0.2529-0.4062,0.3662-0.6592,0.2568c-0.7012-0.3145-1.1758,0.2852-1.2275,0.3555
		C17.8301,15.2305,17.6787,15.3037,17.5234,15.3037z"/>
	<path d="M11.8267,13.6289c-2.4585,0-5.2617-0.3379-8.1396-1.3516c-0.5278-0.1689-1.9648-0.6294-1.9648-2.1021
		c0-1.0356,0.7422-1.9009,1.7222-2.0918c0.7373-2.9761,2.9946-5.312,5.9673-6.1426c0.2671-0.0723,0.5425,0.0806,0.6162,0.3467
		c0.0742,0.2661-0.0811,0.542-0.3467,0.6162c-2.729,0.7627-4.7744,2.9619-5.3379,5.7397C4.2959,8.8765,4.0908,9.0439,3.853,9.0439
		c-0.6235,0-1.1309,0.5073-1.1309,1.1313c0,0.4463,0.2183,0.813,1.2837,1.1548c8.1182,2.8584,15.8574,0.0366,15.9355,0.0078
		c1.1611-0.3516,1.3057-0.8052,1.3057-1.1626c0-0.624-0.5068-1.1313-1.1309-1.1313c-0.2383,0-0.4424-0.1675-0.4902-0.4004
		c-0.5742-2.834-2.541-4.9795-5.2598-5.7397c-0.2656-0.0742-0.4209-0.3501-0.3467-0.6162c0.0742-0.2646,0.3486-0.4204,0.6162-0.3467
		c2.9707,0.8306,5.1494,3.1123,5.8896,6.1426c0.9795,0.1914,1.7217,1.0566,1.7217,2.0918c0,1.002-0.668,1.7119-1.9863,2.1099
		C20.0645,12.3594,16.5938,13.6289,11.8267,13.6289z"/>
	<path d="M12.1201,8.0005h-0.2393c-1.5884,0-2.8804-1.292-2.8804-2.8804V2.8809c0-1.5884,1.292-2.8804,2.8804-2.8804h0.2393
		c1.5889,0,2.8809,1.292,2.8809,2.8804v2.2393C15.001,6.7085,13.709,8.0005,12.1201,8.0005z M11.8809,1.0005
		c-1.0366,0-1.8804,0.8438-1.8804,1.8804v2.2393c0,1.0366,0.8438,1.8804,1.8804,1.8804h0.2393c1.0371,0,1.8809-0.8438,1.8809-1.8804
		V2.8809c0-1.0366-0.8438-1.8804-1.8809-1.8804H11.8809z"/>
	<path d="M13.0146,19.9951h-2.0117c-0.2764,0-0.5-0.2236-0.5-0.5s0.2236-0.5,0.5-0.5h2.0117c0.2764,0,0.5,0.2236,0.5,0.5
		S13.291,19.9951,13.0146,19.9951z"/>
	<path d="M9.96,16.0195c-0.1304,0-0.2603-0.0498-0.3604-0.1396C9.5098,15.7803,9.46,15.6494,9.46,15.5195
		s0.0498-0.2598,0.1499-0.3594c0.1699-0.1699,0.5098-0.1807,0.7002,0.0098c0.0898,0.0898,0.1499,0.2197,0.1499,0.3496
		s-0.0503,0.25-0.1401,0.3506C10.21,15.9697,10.0796,16.0195,9.96,16.0195z"/>
	<path d="M14.0195,16.0195c-0.1299,0-0.25-0.0498-0.3496-0.1396c-0.1006-0.0996-0.1504-0.2305-0.1504-0.3604
		s0.0498-0.2598,0.1504-0.3496c0.1797-0.1904,0.5195-0.1904,0.71,0c0.0898,0.0898,0.1396,0.2197,0.1396,0.3496
		s-0.0498,0.25-0.1396,0.3506C14.2803,15.9697,14.1494,16.0195,14.0195,16.0195z"/>
</g>
<rect x="0.0005" y="0.0004" fill="none" width="24" height="24"/>
</svg>
