<?xml version="1.0" encoding="utf-8"?>
<!-- Generator: Adobe Illustrator 18.1.0, SVG Export Plug-In . SVG Version: 6.00 Build 0)  -->
<svg version="1.1" id="Layer_1" xmlns="http://www.w3.org/2000/svg" xmlns:xlink="http://www.w3.org/1999/xlink" x="0px" y="0px"
	 width="24px" height="24px" viewBox="0 0 24 24" enable-background="new 0 0 24 24" xml:space="preserve">
<g>
	<path d="M12.002,23.8848c-6.5518,0-11.8823-5.3301-11.8823-11.8818c0-6.5522,5.3306-11.8828,11.8823-11.8828
		s11.8818,5.3306,11.8818,11.8828C23.8838,18.5547,18.5537,23.8848,12.002,23.8848z M12.002,1.1201
		c-6.0005,0-10.8823,4.8818-10.8823,10.8828c0,6,4.8818,10.8818,10.8823,10.8818c6,0,10.8818-4.8818,10.8818-10.8818
		C22.8838,6.002,18.002,1.1201,12.002,1.1201z"/>
	<path d="M18.5381,12.5029H5.4692c-0.2764,0-0.5-0.2236-0.5-0.5s0.2236-0.5,0.5-0.5h13.0688c0.2764,0,0.5,0.2236,0.5,0.5
		S18.8145,12.5029,18.5381,12.5029z"/>
</g>
<rect y="0.001" fill="none" width="24" height="24"/>
</svg>
