<?xml version="1.0" encoding="utf-8"?>
<!-- Generator: Adobe Illustrator 18.1.0, SVG Export Plug-In . SVG Version: 6.00 Build 0)  -->
<svg version="1.1" id="Layer_1" xmlns="http://www.w3.org/2000/svg" xmlns:xlink="http://www.w3.org/1999/xlink" x="0px" y="0px"
	 width="24px" height="24px" viewBox="0 0 24 24" enable-background="new 0 0 24 24" xml:space="preserve">
<g>
	<path d="M0.8838,23.6221c-0.1279,0-0.2559-0.0488-0.3535-0.1465c-0.1953-0.1953-0.1953-0.5117,0-0.707L22.8896,0.4097
		c0.1953-0.1953,0.5117-0.1953,0.707,0s0.1953,0.5117,0,0.707L1.2373,23.4756C1.1396,23.5732,1.0117,23.6221,0.8838,23.6221z"/>
	<path d="M8.0825,14.0615c-0.1973,0-0.3843-0.1172-0.4629-0.3115c-0.7393-1.8154-0.3345-3.8076,1.0566-5.1992
		c1.3882-1.3877,3.3784-1.7939,5.1948-1.0522c0.2559,0.104,0.3789,0.3955,0.2744,0.6514c-0.1045,0.2554-0.3965,0.3794-0.6514,0.2744
		c-1.4355-0.5835-3.0112-0.2651-4.1108,0.834c-1.1016,1.1016-1.4224,2.6782-0.8379,4.1147
		c0.1045,0.2559-0.0186,0.5479-0.2744,0.6514C8.2095,14.0498,8.1455,14.0615,8.0825,14.0615z"/>
	<path d="M4.7739,17.3701c-0.1064,0-0.2134-0.0342-0.3042-0.1035c-1.7046-1.3105-3.1514-3.0732-4.1836-5.0967
		c-0.0728-0.1426-0.0728-0.3115,0-0.4541C3.5601,5.2944,10.3882,2.3994,16.5303,4.833c0.2568,0.1016,0.3818,0.3926,0.2803,0.6489
		c-0.1025,0.2568-0.3926,0.3823-0.6494,0.2808C10.5859,3.5503,4.3726,6.1509,1.2949,11.9429
		c0.9561,1.7964,2.2603,3.3599,3.7842,4.5308c0.2188,0.168,0.2603,0.4824,0.0918,0.7012
		C5.0723,17.3027,4.9238,17.3701,4.7739,17.3701z"/>
	<path d="M12.0889,16.751c-0.6113,0-1.2314-0.1191-1.8325-0.3643c-0.2559-0.1035-0.3789-0.3955-0.2744-0.6514
		c0.1035-0.2568,0.3975-0.3809,0.6514-0.2744c1.436,0.584,3.0093,0.2666,4.1089-0.833c1.1025-1.1025,1.4238-2.6797,0.8398-4.1157
		c-0.1045-0.2559,0.0186-0.5474,0.2744-0.6514c0.2539-0.1064,0.5469,0.0186,0.6514,0.2744c0.7393,1.8149,0.333,3.8081-1.0586,5.1997
		C14.5205,16.2637,13.3232,16.751,12.0889,16.751z"/>
	<path d="M12.0381,19.9092c-1.4819,0-2.981-0.2773-4.4414-0.8564c-0.2568-0.1016-0.3823-0.3926-0.2808-0.6494
		c0.1021-0.2568,0.3921-0.3848,0.6489-0.2803c5.5742,2.21,11.7881-0.3877,14.8672-6.1802
		c-0.9551-1.7964-2.2598-3.3589-3.7842-4.5308c-0.2188-0.1685-0.2598-0.4824-0.0918-0.7012
		c0.1689-0.2192,0.4824-0.2603,0.7012-0.0918c1.7061,1.311,3.1523,3.0732,4.1836,5.0967c0.0732,0.1426,0.0732,0.3115,0,0.4541
		C21.3457,17.0635,16.7842,19.9092,12.0381,19.9092z"/>
	<path d="M12.5361,14.333c-0.2246,0-0.4277-0.1514-0.4854-0.3779c-0.0669-0.2686,0.0957-0.54,0.3633-0.6074
		c0.5205-0.1299,0.9248-0.5342,1.0537-1.0537c0.0664-0.2676,0.3359-0.4302,0.6064-0.3643c0.2676,0.0669,0.4307,0.3379,0.3643,0.6064
		c-0.2197,0.8789-0.9014,1.5615-1.7803,1.7822C12.6172,14.3281,12.5762,14.333,12.5361,14.333z"/>
	<path d="M12.0889,16.751c-0.6113,0-1.2314-0.1191-1.8325-0.3643c-0.2559-0.1035-0.3789-0.3955-0.2744-0.6514
		c0.1035-0.2568,0.3975-0.3809,0.6514-0.2744c1.438,0.585,3.0112,0.2656,4.1099-0.833c1.1016-1.1016,1.4229-2.6792,0.8389-4.1157
		c-0.1045-0.2559,0.0186-0.5474,0.2744-0.6514c0.2539-0.1064,0.5469,0.0186,0.6514,0.2744c0.7393,1.8159,0.334,3.8081-1.0576,5.1997
		C14.5215,16.2637,13.3242,16.751,12.0889,16.751z"/>
	<path d="M10.1738,11.9712c-0.04,0-0.0806-0.0049-0.1211-0.0146c-0.2681-0.0669-0.4312-0.3379-0.3647-0.606
		c0.2192-0.8809,0.9023-1.5645,1.7832-1.7837c0.2671-0.0645,0.5396,0.0967,0.606,0.3647c0.0664,0.2676-0.0967,0.5391-0.3647,0.606
		c-0.5205,0.1294-0.9243,0.5337-1.0537,1.0542C10.6021,11.8193,10.3979,11.9712,10.1738,11.9712z"/>
	<path d="M12.5361,14.333c-0.2246,0-0.4277-0.1514-0.4854-0.3779c-0.0669-0.2686,0.0957-0.54,0.3633-0.6074
		c0.5205-0.1299,0.9248-0.5342,1.0547-1.0547c0.0684-0.2666,0.335-0.4326,0.6074-0.3628c0.2676,0.0669,0.4297,0.3384,0.3633,0.6069
		c-0.2207,0.8779-0.9033,1.5605-1.7812,1.7812C12.6172,14.3281,12.5762,14.333,12.5361,14.333z"/>
</g>
<rect fill="none" width="24" height="24"/>
</svg>
