<?xml version="1.0" encoding="utf-8"?>
<!-- Generator: Adobe Illustrator 18.1.0, SVG Export Plug-In . SVG Version: 6.00 Build 0)  -->
<svg version="1.1" id="Layer_1" xmlns="http://www.w3.org/2000/svg" xmlns:xlink="http://www.w3.org/1999/xlink" x="0px" y="0px"
	 width="24px" height="24px" viewBox="0 0 24 24" enable-background="new 0 0 24 24" xml:space="preserve">
<g>
	<path d="M12.0459,17.0498c-2.7051,0-4.9058-2.2617-4.9058-5.041s2.2007-5.0405,4.9058-5.0405s4.9062,2.2612,4.9062,5.0405
		S14.751,17.0498,12.0459,17.0498z M12.0459,7.9683c-2.1538,0-3.9058,1.8125-3.9058,4.0405c0,2.2285,1.752,4.041,3.9058,4.041
		c2.1543,0,3.9062-1.8125,3.9062-4.041C15.9521,9.7808,14.2002,7.9683,12.0459,7.9683z"/>
	<path d="M12.0459,14.377c-1.2749,0-2.312-1.0615-2.312-2.3672s1.0371-2.3677,2.312-2.3677c1.2744,0,2.3115,1.062,2.3115,2.3677
		S13.3203,14.377,12.0459,14.377z M12.0459,10.6421c-0.7236,0-1.312,0.6138-1.312,1.3677s0.5884,1.3672,1.312,1.3672
		s1.3115-0.6133,1.3115-1.3672S12.7695,10.6421,12.0459,10.6421z"/>
	<path d="M12.0459,20.0205c-4.7212,0-9.1309-2.9844-11.5088-7.7891c-0.0688-0.1396-0.0688-0.3037,0-0.4434
		C2.9146,6.9834,7.3242,3.999,12.0459,3.999s9.1318,2.9844,11.5088,7.7891c0.0693,0.1396,0.0693,0.3037,0,0.4434
		C21.1768,17.0361,16.7666,20.0205,12.0459,20.0205z M1.5454,12.0098c2.2314,4.3311,6.2344,7.0107,10.5005,7.0107
		c4.2656,0,8.2686-2.6797,10.5-7.0107c-2.2305-4.3311-6.2334-7.0107-10.5-7.0107S3.7764,7.6787,1.5454,12.0098z"/>
</g>
<rect fill="none" width="24" height="24"/>
</svg>
