<?xml version="1.0" encoding="utf-8"?>
<!-- Generator: Adobe Illustrator 18.1.0, SVG Export Plug-In . SVG Version: 6.00 Build 0)  -->
<svg version="1.1" id="Layer_1" xmlns="http://www.w3.org/2000/svg" xmlns:xlink="http://www.w3.org/1999/xlink" x="0px" y="0px"
	 width="24px" height="24px" viewBox="0 0 24 24" enable-background="new 0 0 24 24" xml:space="preserve">
<g>
	<path d="M16.5137,17.0635H0.5791c-0.2764,0-0.5-0.2236-0.5-0.5V5.501c0-0.2764,0.2236-0.5,0.5-0.5h15.9346
		c0.2764,0,0.5,0.2236,0.5,0.5v11.0625C17.0137,16.8398,16.79,17.0635,16.5137,17.0635z M1.0791,16.0635h14.9346V6.001H1.0791
		V16.0635z"/>
	<path d="M23.3916,19.9863h-2.0488c-0.2764,0-0.5-0.2236-0.5-0.5s0.2236-0.5,0.5-0.5h1.5488v-1.9277
		c-0.2422-0.0352-0.4277-0.2432-0.4277-0.4951v-3.9561c0-1.9375-1.0752-3.2559-1.4492-3.6562h-4.001v7.6123
		c0,0.2764-0.2236,0.5-0.5,0.5H2.0659v1.9229h1.7393c0.2764,0,0.5,0.2236,0.5,0.5s-0.2236,0.5-0.5,0.5H1.5659
		c-0.2764,0-0.5-0.2236-0.5-0.5v-2.9229c0-0.2764,0.2236-0.5,0.5-0.5h14.4478V8.4512c0-0.2764,0.2236-0.5,0.5-0.5h4.708
		c0.123,0,0.2412,0.0449,0.333,0.127c0.0781,0.0693,1.9092,1.7339,1.9092,4.5293v3.4609c0.2422,0.0352,0.4277,0.2432,0.4277,0.4951
		v2.9229C23.8916,19.7627,23.668,19.9863,23.3916,19.9863z"/>
	<path d="M17.3604,19.9863H7.7881c-0.2764,0-0.5-0.2236-0.5-0.5s0.2236-0.5,0.5-0.5h9.5723c0.2764,0,0.5,0.2236,0.5,0.5
		S17.6367,19.9863,17.3604,19.9863z"/>
	<path d="M19.3516,23.4463c-1.5459,0-2.8037-1.2578-2.8037-2.8037s1.2578-2.8037,2.8037-2.8037s2.8037,1.2578,2.8037,2.8037
		S20.8975,23.4463,19.3516,23.4463z M19.3516,18.8389c-0.9941,0-1.8037,0.8096-1.8037,1.8037s0.8096,1.8037,1.8037,1.8037
		s1.8037-0.8096,1.8037-1.8037S20.3457,18.8389,19.3516,18.8389z"/>
	<circle cx="19.3516" cy="20.6426" r="1.127"/>
	<path d="M5.7969,23.4463c-1.5459,0-2.8037-1.2578-2.8037-2.8037s1.2578-2.8037,2.8037-2.8037s2.8032,1.2578,2.8032,2.8037
		S7.3428,23.4463,5.7969,23.4463z M5.7969,18.8389c-0.9946,0-1.8037,0.8096-1.8037,1.8037s0.8091,1.8037,1.8037,1.8037
		c0.9941,0,1.8032-0.8096,1.8032-1.8037S6.791,18.8389,5.7969,18.8389z"/>
	<circle cx="5.7964" cy="20.6426" r="1.127"/>
	<path d="M19.5195,13.9736c-0.2764,0-0.5-0.2236-0.5-0.5V8.4512c0-0.2764,0.2236-0.5,0.5-0.5s0.5,0.2236,0.5,0.5v5.0225
		C20.0195,13.75,19.7959,13.9736,19.5195,13.9736z"/>
	<path d="M22.9639,13.9736h-6.4502c-0.2764,0-0.5-0.2236-0.5-0.5s0.2236-0.5,0.5-0.5h6.4502c0.2764,0,0.5,0.2236,0.5,0.5
		S23.2402,13.9736,22.9639,13.9736z"/>
	<path d="M20.6377,7.5874c-0.1523,0-0.3027-0.0693-0.4014-0.2012c-0.0107-0.0146-1.1074-1.4653-2.3213-1.4653
		c-0.001,0-0.001,0-0.002,0h-0.001c-0.2754,0-0.5-0.2231-0.5-0.499c0-0.2764,0.2227-0.5005,0.499-0.501c0.001,0,0.0029,0,0.0039,0
		c1.7197,0,3.0674,1.793,3.124,1.8691c0.165,0.2217,0.1182,0.5342-0.1035,0.6987C20.8467,7.5552,20.7422,7.5874,20.6377,7.5874z"/>
</g>
<rect x="-0.0136" fill="none" width="24" height="24"/>
</svg>
