<?xml version="1.0" encoding="utf-8"?>
<!-- Generator: Adobe Illustrator 18.1.0, SVG Export Plug-In . SVG Version: 6.00 Build 0)  -->
<svg version="1.1" id="Layer_1" xmlns="http://www.w3.org/2000/svg" xmlns:xlink="http://www.w3.org/1999/xlink" x="0px" y="0px"
	 width="24px" height="24px" viewBox="0 0 24 24" enable-background="new 0 0 24 24" xml:space="preserve">
<g>
	<path d="M14.5166,5H7.4868c-0.2764,0-0.5-0.2236-0.5-0.5c0-2.3545,1.7637-4.1992,4.0146-4.1992
		c2.2515,0,4.0151,1.8447,4.0151,4.1992C15.0166,4.7764,14.793,5,14.5166,5z M8.022,4h5.9595
		c-0.2197-1.5483-1.4502-2.6992-2.98-2.6992S8.2417,2.4517,8.022,4z"/>
	<g>
		<g>
			<path d="M11.0015,7.4492c-0.2764,0-0.5-0.2236-0.5-0.5v-0.5c0-0.2764,0.2236-0.5,0.5-0.5s0.5,0.2236,0.5,0.5v0.5
				C11.5015,7.2256,11.2778,7.4492,11.0015,7.4492z"/>
			<path d="M11.0015,9.9907c-0.2764,0-0.5-0.2236-0.5-0.5v-0.5c0-0.2764,0.2236-0.5,0.5-0.5s0.5,0.2236,0.5,0.5v0.5
				C11.5015,9.7671,11.2778,9.9907,11.0015,9.9907z"/>
		</g>
	</g>
	<g>
		<g>
			<path d="M9.3838,7.4463c-0.0522,0-0.106-0.0083-0.1582-0.0259C8.9634,7.333,8.8223,7.0498,8.9097,6.7881L9.0679,6.314
				C9.1553,6.0522,9.439,5.9097,9.7002,5.998c0.2622,0.0874,0.4033,0.3706,0.3159,0.6323L9.8579,7.1045
				C9.7881,7.314,9.5933,7.4463,9.3838,7.4463z"/>
			<path d="M8.543,9.9673c-0.0522,0-0.106-0.0083-0.1582-0.0259C8.1226,9.854,7.9814,9.5708,8.0688,9.3091L8.2271,8.835
				C8.3145,8.5732,8.5977,8.4312,8.8594,8.519c0.2622,0.0874,0.4033,0.3706,0.3159,0.6323L9.0171,9.6255
				C8.9473,9.835,8.7524,9.9673,8.543,9.9673z"/>
		</g>
	</g>
	<g>
		<g>
			<path d="M12.6191,7.4463c-0.209,0-0.4043-0.1323-0.4746-0.3418l-0.1577-0.4741c-0.0874-0.2617,0.0542-0.5449,0.3159-0.6323
				c0.2627-0.0874,0.5449,0.0542,0.6328,0.3159l0.1582,0.4741c0.0869,0.2617-0.0547,0.5449-0.3164,0.6323
				C12.7246,7.438,12.6719,7.4463,12.6191,7.4463z"/>
			<path d="M13.46,9.9673c-0.209,0-0.4043-0.1323-0.4746-0.3418l-0.1582-0.4741c-0.0869-0.2617,0.0547-0.5449,0.3164-0.6323
				c0.2627-0.0854,0.5449,0.0537,0.6328,0.3159l0.1582,0.4741c0.0869,0.2617-0.0547,0.5449-0.3164,0.6323
				C13.5654,9.959,13.5127,9.9673,13.46,9.9673z"/>
		</g>
	</g>
	<g>
		<path d="M9.4893,16.9561c-0.2764,0-0.5-0.2236-0.5-0.5v-4.9067c0-0.2764,0.2236-0.5,0.5-0.5s0.5,0.2236,0.5,0.5v4.9067
			C9.9893,16.7324,9.7656,16.9561,9.4893,16.9561z"/>
		<path d="M5.4697,22c-0.1299,0-0.2598-0.0498-0.3501-0.1406C5.02,21.75,4.9697,21.6299,4.9697,21.5s0.0503-0.2598,0.1401-0.3506
			c0.1899-0.1895,0.52-0.1895,0.71,0c0.0898,0.0801,0.1499,0.21,0.1499,0.3506c0,0.1299-0.0601,0.2598-0.1499,0.3496
			C5.7197,21.9502,5.5898,22,5.4697,22z"/>
		<path d="M18.4502,22c-0.1201,0-0.25-0.0498-0.3506-0.1406c-0.0898-0.0996-0.1494-0.2295-0.1494-0.3594
			s0.0596-0.2598,0.1494-0.3604c0.1807-0.1797,0.5205-0.1797,0.71,0.0098c0.0898,0.0908,0.1406,0.2207,0.1406,0.3506
			s-0.0508,0.25-0.1406,0.3496C18.71,21.9502,18.5801,22,18.4502,22z"/>
		<g>
			<path d="M14.46,22H9.5073c-0.2764,0-0.5-0.2236-0.5-0.5s0.2236-0.5,0.5-0.5H14.46c0.2764,0,0.5,0.2236,0.5,0.5
				S14.7363,22,14.46,22z"/>
			<g>
				<path d="M5.4658,23.9482c-1.3501,0-2.4482-1.0986-2.4482-2.4482s1.0981-2.4482,2.4482-2.4482
					c1.3496,0,2.4478,1.0986,2.4478,2.4482S6.8154,23.9482,5.4658,23.9482z M5.4658,20.0518c-0.7983,0-1.4482,0.6494-1.4482,1.4482
					s0.6499,1.4482,1.4482,1.4482S6.9136,22.2988,6.9136,21.5S6.2642,20.0518,5.4658,20.0518z"/>
				<path d="M18.4541,23.9482c-1.3496,0-2.4482-1.0986-2.4482-2.4482s1.0986-2.4482,2.4482-2.4482s2.4473,1.0986,2.4473,2.4482
					S19.8037,23.9482,18.4541,23.9482z M18.4541,20.0518c-0.7988,0-1.4482,0.6494-1.4482,1.4482s0.6494,1.4482,1.4482,1.4482
					c0.7979,0,1.4473-0.6494,1.4473-1.4482S19.252,20.0518,18.4541,20.0518z"/>
				<path d="M23.2852,22h-0.8662c-0.2764,0-0.5-0.2236-0.5-0.5s0.2236-0.5,0.5-0.5h0.3418
					c-0.3018-3.7568-3.1992-3.9316-4.7861-4.0273l-0.2842-0.0176c-0.6162-0.0459-0.7529-0.5742-0.8047-0.7734
					c-0.3213-1.249-1.5244-4.1455-5.7344-4.1455c-0.0156,0-0.0312,0-0.0474,0h-0.2793c-0.3564,0-0.9312,0.001-1.0142,0.0029
					c-5.0474,0.1484-5.8276,2.9268-5.9287,4.1133c-0.0347,0.4131-0.3345,0.7568-0.7637,0.877
					C1.5068,17.4824,1.1948,19.9385,1.1357,21h0.186c0.2764,0,0.5,0.2236,0.5,0.5s-0.2236,0.5-0.5,0.5H0.6226
					c-0.2715,0-0.4937-0.2168-0.5-0.4883c-0.0044-0.1895-0.0771-4.6582,2.7261-5.4453c0.1338-1.1338,0.9165-4.8496,6.9346-5.0273
					c0.0869-0.002,0.6758-0.0024,1.041-0.0024l0.2754-0.0005c0.0171,0,0.0352,0,0.0527,0c5.0479,0,6.4053,3.7441,6.7021,4.8955
					c0.0029,0.0117,0.0059,0.0225,0.0078,0.0322l0.1719,0.0107c1.5488,0.0938,5.6621,0.3418,5.751,5.5166
					c0.002,0.1348-0.0498,0.2637-0.1436,0.3594S23.4189,22,23.2852,22z"/>
			</g>
		</g>
		<path d="M17.7266,16.9561H3.1709c-0.2764,0-0.5-0.2236-0.5-0.5s0.2236-0.5,0.5-0.5h14.5557c0.2764,0,0.5,0.2236,0.5,0.5
			S18.0029,16.9561,17.7266,16.9561z"/>
	</g>
</g>
<rect x="-0.0136" fill="none" width="24" height="24"/>
</svg>
