<?xml version="1.0" encoding="utf-8"?>
<!-- Generator: Adobe Illustrator 18.1.0, SVG Export Plug-In . SVG Version: 6.00 Build 0)  -->
<svg version="1.1" id="Layer_1" xmlns="http://www.w3.org/2000/svg" xmlns:xlink="http://www.w3.org/1999/xlink" x="0px" y="0px"
	 width="24px" height="24px" viewBox="0 0 24 24" enable-background="new 0 0 24 24" xml:space="preserve">
<g>
	<path d="M11.9668,23.8516c-0.2466,0-0.459-0.1816-0.4946-0.4287c-0.3022-2.1074-6.8765-2.3154-10.9531-1.9482
		c-0.1377,0.0127-0.2783-0.0352-0.3818-0.1289c-0.1035-0.0947-0.1626-0.2285-0.1626-0.3691V1.6216
		c0-0.1387,0.0576-0.271,0.1587-0.3657c0.1016-0.0942,0.2373-0.1396,0.376-0.1333c0,0,0.7925,0.0552,2.0635,0.209
		c0.2744,0.0337,0.4697,0.2827,0.4365,0.5566C2.9756,2.1626,2.731,2.356,2.4526,2.3247c-0.624-0.0757-1.1294-0.127-1.478-0.1592
		v18.27c2.0015-0.1426,8.0688-0.4082,10.4927,1.3379v-1.459c0-0.2764,0.2236-0.5,0.5-0.5c0.2759,0,0.4995,0.2236,0.4995,0.5v3.0371
		c0,0.2627-0.2021,0.4805-0.4639,0.499C11.9907,23.8516,11.979,23.8516,11.9668,23.8516z"/>
	<path d="M11.9678,23.8516c-0.0234,0-0.0474-0.002-0.0718-0.0049c-0.2734-0.04-0.4629-0.293-0.4238-0.5664
		c0.4868-3.377,9.0337-3.0176,11.4878-2.8447V2.1626c-0.3535,0.0312-0.8643,0.0806-1.4785,0.1543
		c-0.2744,0.0298-0.5234-0.1621-0.5557-0.437c-0.0332-0.2744,0.1621-0.5234,0.4365-0.5562
		c1.2373-0.1479,2.0654-0.2012,2.0654-0.2012c0.1396-0.0059,0.2734,0.0405,0.374,0.1343C23.9023,1.3516,23.96,1.4834,23.96,1.6216
		v19.355c0,0.1406-0.0586,0.2744-0.1621,0.3691c-0.1045,0.0938-0.2334,0.1387-0.3828,0.1289
		c-4.0762-0.3643-10.6494-0.1562-10.9531,1.9482C12.4268,23.6719,12.2129,23.8516,11.9678,23.8516z"/>
	<path d="M11.9668,20.8145c-0.2456,0-0.4575-0.1797-0.4941-0.4268c-0.1465-0.9902-2.4429-1.5811-6.1431-1.5811
		c-1.5376,0-2.7612,0.1045-2.7734,0.1055c-0.1387,0.0098-0.2778-0.0352-0.3813-0.1299s-0.1621-0.2285-0.1621-0.3682V0.7378
		c0-0.1377,0.0571-0.2695,0.1572-0.3643c0.1006-0.0947,0.2378-0.1416,0.373-0.1348c1.5801,0.0962,9.4844,0.7251,9.9189,3.666
		l0.0049,16.4097c0,0.2617-0.2012,0.4795-0.4629,0.499C11.9917,20.8145,11.979,20.8145,11.9668,20.8145z M5.3296,17.8066
		c2.9619,0,5.0142,0.3555,6.1377,1.0615V3.978C11.2505,2.5464,6.562,1.5552,3.0127,1.2739v16.603
		C3.5264,17.8457,4.3613,17.8066,5.3296,17.8066z"/>
	<path d="M11.9678,20.8145c-0.0122,0-0.0249,0-0.0371-0.001c-0.2612-0.0195-0.4634-0.2373-0.4634-0.499V3.978
		c0.4409-3.0142,8.3442-3.6431,9.9243-3.7393c0.1416-0.0068,0.2734,0.0405,0.373,0.1348c0.1006,0.0947,0.1572,0.2266,0.1572,0.3643
		v17.6763c0,0.1396-0.0586,0.2734-0.1621,0.3682s-0.249,0.1406-0.3809,0.1299c-0.0127-0.001-1.2363-0.1055-2.7744-0.1055
		c-3.6992,0-5.9961,0.5908-6.1426,1.5811C12.4258,20.6348,12.2139,20.8145,11.9678,20.8145z M20.9219,1.2744
		c-3.5488,0.2817-8.2383,1.2764-8.46,2.7769l0.0049,14.8169c1.123-0.7061,3.1758-1.0615,6.1377-1.0615
		c0.9688,0,1.8037,0.0391,2.3174,0.0703V1.2744z"/>
</g>
<rect fill="none" width="24" height="24"/>
</svg>
