<?xml version="1.0" encoding="utf-8"?>
<!-- Generator: Adobe Illustrator 18.1.0, SVG Export Plug-In . SVG Version: 6.00 Build 0)  -->
<svg version="1.1" id="Layer_1" xmlns="http://www.w3.org/2000/svg" xmlns:xlink="http://www.w3.org/1999/xlink" x="0px" y="0px"
	 width="24px" height="24px" viewBox="0 0 24 24" enable-background="new 0 0 24 24" xml:space="preserve">
<g>
	<path d="M3.4653,6.9468c-0.1592,0-0.3569-0.0972-0.4512-0.2256C2.8071,6.439,2.894,6.1626,3.1514,5.3428l0.0503-0.1631
		L2.998,5.0288C2.3267,4.5376,2.0205,4.3135,2.1582,3.8813C2.2979,3.4448,2.686,3.4395,3.6245,3.4263l0.1528-0.0024l0.082-0.2402
		C4.125,2.3984,4.2461,2.0405,4.6992,2.0405c0.4541,0,0.5771,0.3579,0.8745,1.2231l0.0552,0.1587l0.2578,0.0034
		C6.7231,3.4331,7.105,3.4365,7.2456,3.8682c0.1411,0.4351-0.168,0.6641-0.9155,1.2173l-0.125,0.0933l0.0503,0.1611
		C6.5137,6.1621,6.6006,6.439,6.3931,6.7212C6.2988,6.8491,6.1016,6.9468,5.9424,6.9468c0,0,0,0-0.0005,0
		c-0.2612,0-0.4712-0.1479-1.0317-0.543L4.7036,6.2593l-0.207,0.1445C3.9365,6.7988,3.7271,6.9468,3.4653,6.9468z M4.7036,5.1494
		c0.0991,0,0.1982,0.0293,0.2837,0.0884L5.229,5.4062l-0.0845-0.271C5.083,4.9336,5.1538,4.7153,5.3223,4.5889l0.2251-0.1675
		L5.2612,4.418C5.0527,4.4136,4.8691,4.2803,4.7998,4.084L4.7036,3.8057L4.6079,4.0835C4.5391,4.2803,4.355,4.4136,4.1465,4.418
		L3.8599,4.4224L4.085,4.5889c0.1685,0.1265,0.2393,0.3447,0.1777,0.5459l-0.084,0.2715l0.2412-0.1685
		C4.5054,5.1787,4.6045,5.1494,4.7036,5.1494z"/>
	<path d="M3.4668,13.9482c-0.1592,0-0.3569-0.0977-0.4512-0.2256c-0.2075-0.2832-0.1201-0.5625,0.1401-1.3945l0.0459-0.1475
		l-0.2041-0.1514c-0.6709-0.4912-0.9771-0.7153-0.8394-1.1475c0.1396-0.4365,0.5278-0.4419,1.4663-0.4551l0.1528-0.0024
		l0.082-0.2402C4.125,9.3989,4.2461,9.041,4.6992,9.041c0.4541,0,0.5771,0.3579,0.8745,1.2231l0.0552,0.1592l0.2563,0.0029
		c0.8379,0.0073,1.2202,0.0107,1.3604,0.4424c0.1411,0.4355-0.1685,0.6646-0.9165,1.2183l-0.124,0.0918l0.0503,0.1621
		c0.2583,0.8223,0.3452,1.0986,0.1377,1.3809c-0.0942,0.1289-0.2915,0.2256-0.4507,0.2256c0,0,0,0-0.0005,0
		c-0.2612,0-0.4707-0.1475-1.0308-0.542l-0.2075-0.1445l-0.2144,0.1494C3.9351,13.8018,3.7275,13.9482,3.4668,13.9482z
		 M3.8599,11.4229l0.2251,0.1665c0.1685,0.1265,0.2393,0.3447,0.1777,0.5464l-0.0845,0.2715l0.2417-0.1689
		c0.1709-0.1172,0.397-0.1172,0.5669,0l0.2422,0.1689l-0.0845-0.2715c-0.0615-0.2017,0.0093-0.4199,0.1782-0.5464l0.2246-0.1675
		l-0.2861-0.0034c-0.2085-0.0044-0.3921-0.1377-0.4614-0.334l-0.0962-0.2783L4.6079,11.084
		c-0.0688,0.1968-0.2529,0.3301-0.4614,0.3345L3.8599,11.4229z"/>
	<path d="M3.4663,20.9482c-0.1587,0-0.3564-0.0967-0.4507-0.2246c-0.2075-0.2832-0.1201-0.5635,0.1401-1.3945l0.0459-0.1475
		L2.998,19.0303c-0.6714-0.4912-0.9775-0.7148-0.8398-1.1475c0.1392-0.4365,0.5278-0.4424,1.4668-0.4551l0.1523-0.0029
		l0.0806-0.2344c0.2676-0.7891,0.3896-1.1494,0.8423-1.1494c0.4541,0,0.5757,0.3545,0.8691,1.2109l0.0601,0.1719l0.2515,0.0039
		c0.8413,0.0078,1.2251,0.0117,1.3652,0.4434c0.1411,0.4346-0.166,0.6621-0.9087,1.2109l-0.1323,0.0977l0.0503,0.1611
		c0.2583,0.8223,0.3452,1.0996,0.1377,1.3818c-0.0942,0.1279-0.2915,0.2256-0.4507,0.2256c0,0,0,0-0.0005,0
		c-0.2617,0-0.4717-0.1484-1.0322-0.5439l-0.2061-0.1436l-0.2144,0.1504C3.9351,20.8018,3.7275,20.9482,3.4663,20.9482z
		 M3.8594,18.4238l0.2256,0.166c0.1685,0.127,0.2393,0.3447,0.1777,0.5469l-0.084,0.2705l0.2412-0.1689
		c0.1709-0.1172,0.3965-0.1172,0.5674,0l0.2412,0.1689l-0.084-0.2705c-0.0615-0.2012,0.0093-0.4199,0.1782-0.5469l0.2251-0.167
		l-0.2866-0.0039c-0.2085-0.0049-0.3921-0.1377-0.4614-0.334l-0.0962-0.2783L4.6079,18.085
		c-0.0693,0.1963-0.2529,0.3301-0.4614,0.334L3.8594,18.4238z"/>
	<path d="M21.4365,19H9.5044c-0.2764,0-0.5-0.2236-0.5-0.5s0.2236-0.5,0.5-0.5h11.9321c0.2764,0,0.5,0.2236,0.5,0.5
		S21.7129,19,21.4365,19z"/>
	<path d="M21.4365,12H9.5044c-0.2764,0-0.5-0.2236-0.5-0.5s0.2236-0.5,0.5-0.5h11.9321c0.2764,0,0.5,0.2236,0.5,0.5
		S21.7129,12,21.4365,12z"/>
	<path d="M21.4365,5H9.5044c-0.2764,0-0.5-0.2236-0.5-0.5S9.228,4,9.5044,4h11.9321c0.2764,0,0.5,0.2236,0.5,0.5
		S21.7129,5,21.4365,5z"/>
</g>
<rect x="0.0001" fill="none" width="24" height="24"/>
</svg>
