<?xml version="1.0" encoding="utf-8"?>
<!-- Generator: Adobe Illustrator 18.1.0, SVG Export Plug-In . SVG Version: 6.00 Build 0)  -->
<svg version="1.1" id="Layer_1" xmlns="http://www.w3.org/2000/svg" xmlns:xlink="http://www.w3.org/1999/xlink" x="0px" y="0px"
	 width="24px" height="24px" viewBox="0 0 24 24" enable-background="new 0 0 24 24" xml:space="preserve">
<g>
	<path d="M11.3135,12.4766H1.7256c-0.2764,0-0.5-0.2236-0.5-0.5s0.2236-0.5,0.5-0.5h9.5879c0.2764,0,0.5,0.2236,0.5,0.5
		S11.5898,12.4766,11.3135,12.4766z"/>
	<path d="M6.6655,17.0283c-0.1299,0-0.2593-0.0498-0.3574-0.1504c-0.1929-0.1973-0.1895-0.5137,0.0078-0.707l4.2847-4.1943
		L6.3159,7.7817C6.1187,7.5884,6.1152,7.272,6.3081,7.0747c0.1948-0.1968,0.5112-0.2002,0.707-0.0078l4.6499,4.5522
		c0.0962,0.0942,0.1504,0.2231,0.1504,0.3574c0,0.1348-0.0542,0.2637-0.1504,0.3574l-4.6499,4.5518
		C6.918,16.9805,6.7915,17.0283,6.6655,17.0283z"/>
	<path d="M23.4863,24h-15c-0.2764,0-0.5-0.2236-0.5-0.5v-4.9355c0-0.2764,0.2236-0.5,0.5-0.5s0.5,0.2236,0.5,0.5V23h14V1h-14v4.4551
		c0,0.2764-0.2236,0.5-0.5,0.5s-0.5-0.2236-0.5-0.5V0.5c0-0.2764,0.2236-0.5,0.5-0.5h15c0.2764,0,0.5,0.2236,0.5,0.5v23
		C23.9863,23.7764,23.7627,24,23.4863,24z"/>
	<path d="M23.4863,23.9707c-0.0703,0-0.1406-0.0146-0.207-0.0449l-8-3.6387c-0.1787-0.0811-0.293-0.2588-0.293-0.4551V4.1211
		c0-0.1958,0.1143-0.374,0.293-0.4551l8-3.6387c0.1562-0.0698,0.335-0.0566,0.4775,0.0347
		c0.1436,0.0918,0.2295,0.2505,0.2295,0.4204v22.9883c0,0.1699-0.0859,0.3281-0.2295,0.4209
		C23.6748,23.9443,23.5811,23.9707,23.4863,23.9707z M15.9863,19.5098l7,3.1846V1.2593l-7,3.1836V19.5098z"/>
	<path d="M19.4961,11.9658h-1.9795c-0.2764,0-0.5-0.2236-0.5-0.5s0.2236-0.5,0.5-0.5h1.9795c0.2764,0,0.5,0.2236,0.5,0.5
		S19.7725,11.9658,19.4961,11.9658z"/>
</g>
<rect x="-0.0137" y="0.0002" fill="none" width="24" height="24"/>
</svg>
