<?xml version="1.0" encoding="utf-8"?>
<!-- Generator: Adobe Illustrator 18.1.0, SVG Export Plug-In . SVG Version: 6.00 Build 0)  -->
<svg version="1.1" id="Layer_1" xmlns="http://www.w3.org/2000/svg" xmlns:xlink="http://www.w3.org/1999/xlink" x="0px" y="0px"
	 width="24px" height="24px" viewBox="0 0 24 24" enable-background="new 0 0 24 24" xml:space="preserve">
<g>
	<path d="M16.4297,24.0049H7.5654c-0.3481,0-0.6748-0.1348-0.9204-0.3809l-6.2671-6.2686
		c-0.2422-0.2422-0.3813-0.5771-0.3813-0.9199V7.5698c0-0.3438,0.1396-0.6797,0.3828-0.9214L6.645,0.3828
		C6.8867,0.1401,7.2222,0.001,7.5654,0.001h8.8643c0.3428,0,0.6787,0.1392,0.9209,0.3823l6.2686,6.2656
		c0.2422,0.2407,0.3818,0.5767,0.3818,0.9204v8.8652c0,0.3477-0.1348,0.6738-0.3789,0.9199l-6.2725,6.2695
		C17.1045,23.8701,16.7773,24.0049,16.4297,24.0049z M7.5654,1.001c-0.0791,0-0.1567,0.0322-0.2129,0.0884L1.0854,7.3564
		C1.0283,7.4131,0.9966,7.4902,0.9966,7.5698v8.8657c0,0.0791,0.0322,0.1562,0.0884,0.2129l6.2671,6.2686
		c0.0562,0.0557,0.1338,0.0879,0.2134,0.0879h8.8643c0.0801,0,0.1562-0.0312,0.2129-0.0879l6.2715-6.2686
		c0.0547-0.0557,0.0869-0.1338,0.0869-0.2139V7.5693c0-0.0796-0.0322-0.1567-0.0879-0.2124l-6.2705-6.2671
		c-0.0566-0.0566-0.1338-0.0889-0.2129-0.0889H7.5654z"/>
	<path d="M16.708,17.4199c-0.1279,0-0.2559-0.0488-0.3535-0.1465L6.9365,7.856c-0.1953-0.1953-0.1953-0.5117,0-0.707
		s0.5117-0.1953,0.707,0l9.418,9.4175c0.1953,0.1953,0.1953,0.5117,0,0.707C16.9639,17.3711,16.8359,17.4199,16.708,17.4199z"/>
	<path d="M7.29,17.4199c-0.1279,0-0.2559-0.0488-0.3535-0.1465c-0.1953-0.1953-0.1953-0.5117,0-0.707l9.418-9.4175
		c0.1953-0.1953,0.5117-0.1953,0.707,0s0.1953,0.5117,0,0.707l-9.418,9.4175C7.5459,17.3711,7.418,17.4199,7.29,17.4199z"/>
</g>
<rect fill="none" width="24" height="24"/>
</svg>
