<?xml version="1.0" encoding="utf-8"?>
<!-- Generator: Adobe Illustrator 18.1.0, SVG Export Plug-In . SVG Version: 6.00 Build 0)  -->
<svg version="1.1" id="Layer_1" xmlns="http://www.w3.org/2000/svg" xmlns:xlink="http://www.w3.org/1999/xlink" x="0px" y="0px"
	 width="24px" height="24px" viewBox="0 0 24 24" enable-background="new 0 0 24 24" xml:space="preserve">
<g>
	<path d="M5.7441,9.3262c-0.1196,0-0.2393-0.0425-0.335-0.1289C5.2041,9.0122,5.188,8.6963,5.373,8.4912
		C7.1157,6.561,9.4731,5.498,12.0107,5.498c2.5371,0,4.8945,1.063,6.6367,2.9932c0.1855,0.2051,0.1689,0.521-0.0361,0.7061
		c-0.2061,0.1851-0.5215,0.1685-0.7061-0.0361c-1.5508-1.7173-3.6436-2.6631-5.8945-2.6631S7.666,7.4438,6.1152,9.1611
		C6.0166,9.2705,5.8804,9.3262,5.7441,9.3262z"/>
	<path d="M21.3145,6.1758c-0.1348,0-0.2686-0.0542-0.3672-0.1611C18.583,3.4531,15.4092,2.042,12.0098,2.042
		c-3.3979,0-6.5718,1.4111-8.9355,3.9727C2.8867,6.2183,2.5698,6.2295,2.3677,6.0435C2.1646,5.856,2.1519,5.5396,2.3389,5.3369
		C4.8945,2.5674,8.3291,1.042,12.0098,1.042c3.6816,0,7.1162,1.5254,9.6719,4.2949c0.1875,0.2026,0.1748,0.519-0.0283,0.7065
		C21.5576,6.1318,21.4355,6.1758,21.3145,6.1758z"/>
	<path d="M8.7812,12.4766c-0.1138,0-0.2285-0.0391-0.3223-0.1182c-0.2109-0.1777-0.2373-0.4937-0.0591-0.7046
		c0.9131-1.0806,2.229-1.7002,3.6099-1.7002c1.3818,0,2.6982,0.6196,3.6113,1.7002c0.1787,0.2109,0.1514,0.5259-0.0586,0.7046
		c-0.2119,0.1777-0.5264,0.1514-0.7051-0.0586c-0.7227-0.8555-1.7607-1.3462-2.8477-1.3462c-1.0859,0-2.1235,0.4907-2.8462,1.3462
		C9.0649,12.416,8.9233,12.4766,8.7812,12.4766z"/>
	<path d="M16.4502,21.8379c-0.2764,0-0.5-0.2236-0.5-0.5v-4.7314c0-0.2764,0.2236-0.5,0.5-0.5h3.0449c0.2764,0,0.5,0.2236,0.5,0.5
		s-0.2236,0.5-0.5,0.5h-2.5449v4.2314C16.9502,21.6143,16.7266,21.8379,16.4502,21.8379z"/>
	<path d="M19.0488,19.4727h-2.5986c-0.2764,0-0.5-0.2236-0.5-0.5s0.2236-0.5,0.5-0.5h2.5986c0.2764,0,0.5,0.2236,0.5,0.5
		S19.3252,19.4727,19.0488,19.4727z"/>
	<path d="M6.6934,21.8379c-0.2109,0-0.3989-0.1318-0.4702-0.3301l-1.2324-3.417l-1.2124,3.4141
		c-0.0708,0.1992-0.2588,0.332-0.4697,0.333c-0.0005,0-0.001,0-0.0015,0c-0.2109,0-0.3989-0.1318-0.4702-0.3301l-1.7065-4.7314
		c-0.0938-0.2598,0.041-0.5469,0.3008-0.6406c0.2593-0.0908,0.5459,0.042,0.6396,0.3008l1.2324,3.417l1.2124-3.4141
		c0.0708-0.1992,0.2588-0.332,0.4697-0.333c0.0005,0,0.001,0,0.0015,0c0.2109,0,0.3989,0.1318,0.4702,0.3301l1.2324,3.417
		l1.2124-3.4141c0.0923-0.2607,0.3755-0.4004,0.6387-0.3037c0.2603,0.0918,0.396,0.3779,0.3037,0.6377l-1.6797,4.7314
		c-0.0708,0.1992-0.2588,0.332-0.4697,0.333C6.6943,21.8379,6.6938,21.8379,6.6934,21.8379z"/>
	<path d="M10.4946,21.8379c-0.2764,0-0.5-0.2236-0.5-0.5v-4.7314c0-0.2764,0.2236-0.5,0.5-0.5s0.5,0.2236,0.5,0.5v4.7314
		C10.9946,21.6143,10.771,21.8379,10.4946,21.8379z"/>
	<path d="M21.4902,21.8379c-0.2764,0-0.5-0.2236-0.5-0.5v-4.7314c0-0.2764,0.2236-0.5,0.5-0.5s0.5,0.2236,0.5,0.5v4.7314
		C21.9902,21.6143,21.7666,21.8379,21.4902,21.8379z"/>
	<path d="M14.3076,19.9619h-1.5117c-0.2764,0-0.5-0.2236-0.5-0.5s0.2236-0.5,0.5-0.5h1.5117c0.2764,0,0.5,0.2236,0.5,0.5
		S14.584,19.9619,14.3076,19.9619z"/>
</g>
<rect fill="none" width="24" height="24"/>
</svg>
