<?xml version="1.0" encoding="utf-8"?>
<!-- Generator: Adobe Illustrator 18.1.0, SVG Export Plug-In . SVG Version: 6.00 Build 0)  -->
<svg version="1.1" id="Layer_1" xmlns="http://www.w3.org/2000/svg" xmlns:xlink="http://www.w3.org/1999/xlink" x="0px" y="0px"
	 width="24px" height="24px" viewBox="0 0 24 24" enable-background="new 0 0 24 24" xml:space="preserve">
<g>
	<path d="M9.2896,14.1143c-0.6528,0-1.375-0.1318-2.0898-0.3818c-0.8936-0.3115-1.6821-0.7773-2.2202-1.3096
		c-0.6309-0.625-0.8657-1.2915-0.6616-1.8765c0.2402-0.687,1.0244-1.0806,2.1509-1.0806c0.6523,0,1.3745,0.1318,2.0884,0.3809
		c2.0298,0.7095,3.2686,2.0796,2.8818,3.1875C11.1992,13.7207,10.4155,14.1143,9.2896,14.1143z M6.4688,10.4658
		c-0.7344,0-1.1353,0.2061-1.2065,0.4106c-0.0674,0.1919,0.0942,0.5117,0.4209,0.8354c0.4282,0.4238,1.1016,0.8164,1.8467,1.0771
		c0.6094,0.2129,1.2183,0.3252,1.7598,0.3252c0.7334,0,1.1338-0.2061,1.2051-0.4102c0.1392-0.3975-0.6948-1.3638-2.2676-1.9131
		C7.6182,10.5781,7.0103,10.4658,6.4688,10.4658z"/>
	<path d="M12.0176,23.835c-3.7158,0-9.9399-9.1865-9.9399-14.6709c0-5.2109,4.1802-8.9932,9.9399-8.9932
		s9.9395,3.7822,9.9395,8.9932C21.957,14.6484,15.7334,23.835,12.0176,23.835z M12.0176,1.1709
		c-5.2637,0-8.9399,3.2871-8.9399,7.9932c0,5.0879,6.0938,13.6709,8.9399,13.6709c2.8457,0,8.9395-8.583,8.9395-13.6709
		C20.957,4.458,17.2812,1.1709,12.0176,1.1709z"/>
	<path d="M14.7451,14.1143c-1.1279,0-1.9111-0.3945-2.1504-1.0811c-0.2051-0.585,0.0293-1.2515,0.6602-1.8765
		c0.5381-0.5327,1.3271-0.998,2.2207-1.3101c0.7148-0.2495,1.4365-0.3813,2.0889-0.3813c1.127,0,1.9102,0.394,2.1504,1.0806
		c0.3867,1.1084-0.8525,2.4785-2.8818,3.1865C16.1191,13.9824,15.3975,14.1143,14.7451,14.1143z M17.5645,10.4653
		c-0.541,0-1.1494,0.1128-1.7588,0.3257c-0.7451,0.2603-1.4189,0.6523-1.8467,1.0767c-0.3262,0.3237-0.4873,0.6431-0.4209,0.8354
		c0.0713,0.2051,0.4727,0.4111,1.207,0.4111c0.541,0,1.1494-0.1133,1.7578-0.3252c1.5732-0.5498,2.4072-1.5156,2.2686-1.9136
		C18.7002,10.6719,18.2988,10.4653,17.5645,10.4653z"/>
</g>
<rect x="0.0172" y="0.0031" fill="none" width="24" height="24"/>
</svg>
