<?xml version="1.0" encoding="utf-8"?>
<!-- Generator: Adobe Illustrator 18.1.0, SVG Export Plug-In . SVG Version: 6.00 Build 0)  -->
<svg version="1.1" id="Layer_1" xmlns="http://www.w3.org/2000/svg" xmlns:xlink="http://www.w3.org/1999/xlink" x="0px" y="0px"
	 width="24px" height="24px" viewBox="0 0 24 24" enable-background="new 0 0 24 24" xml:space="preserve">
<g>
	<path d="M11.9839,24.0195c-0.2764,0-0.5-0.2236-0.5-0.5v-7.1318c0-0.2764,0.2236-0.5,0.5-0.5c0.2759,0,0.5005,0.2236,0.5005,0.5
		v7.1318C12.4844,23.7959,12.2598,24.0195,11.9839,24.0195z"/>
	<path d="M15.4844,24.0195H8.4839c-0.2764,0-0.5-0.2236-0.5-0.5s0.2236-0.5,0.5-0.5h7.0005c0.2764,0,0.5,0.2236,0.5,0.5
		S15.7607,24.0195,15.4844,24.0195z"/>
	<path d="M12,16.8877c-3.6592,0-6.6362-2.8604-6.6362-6.377c0-0.6348,0.0967-0.9961,0.2573-1.5947l0.1367-0.5195
		c0.0562-0.2217,0.2559-0.377,0.4844-0.377h11.5156c0.2285,0,0.4287,0.1553,0.4844,0.377l0.1318,0.5034
		c0.1631,0.6133,0.2617,0.9834,0.2617,1.624C18.6357,14.0332,15.6592,16.8877,12,16.8877z M6.6279,9.0195l-0.041,0.1553
		c-0.1533,0.5718-0.2231,0.8325-0.2231,1.3359c0,2.9648,2.5283,5.377,5.6362,5.377c3.1074,0,5.6357-2.4062,5.6357-5.3638
		c0-0.5098-0.0713-0.7783-0.2285-1.3672l-0.0352-0.1372H6.6279z"/>
	<path d="M9.9292,9.0195c-0.2061,0-0.3994-0.1284-0.4717-0.334L6.7124,0.8789C6.6206,0.6182,6.7578,0.333,7.0181,0.2412
		c0.2617-0.0908,0.5464,0.0449,0.6377,0.3057l2.7451,7.8066c0.0918,0.2607-0.0454,0.5459-0.3057,0.6377
		C10.04,9.0107,9.9844,9.0195,9.9292,9.0195z"/>
	<path d="M17.1631,9.0195c-0.2764,0-0.5-0.2236-0.5-0.5c0-0.6685-0.3447-1.269-0.9229-1.6064
		c-0.5801-0.3384-1.2725-0.3457-1.8545-0.0171c-0.126,0.0713-0.2803,0.085-0.415,0.0347c-0.1377-0.0498-0.2461-0.1562-0.2979-0.2925
		c-0.4336-1.1426-1.5439-1.9102-2.7627-1.9102c-0.9136,0-1.7612,0.4121-2.3257,1.1313C7.519,6.5791,7.3188,7.502,7.5361,8.3906
		C7.6016,8.6592,7.437,8.9297,7.1689,8.9951c-0.27,0.0635-0.5391-0.0986-0.6045-0.3672c-0.29-1.189-0.0229-2.4233,0.7334-3.3862
		C8.0532,4.2798,9.1875,3.728,10.4102,3.728c1.4546,0,2.793,0.8159,3.4775,2.0762c0.7754-0.2642,1.625-0.1816,2.3564,0.2456
		c0.8887,0.5186,1.4189,1.4419,1.4189,2.4697C17.6631,8.7959,17.4395,9.0195,17.1631,9.0195z"/>
</g>
<rect y="0.0197" fill="none" width="24" height="24"/>
</svg>
