<?xml version="1.0" encoding="utf-8"?>
<!-- Generator: Adobe Illustrator 18.1.0, SVG Export Plug-In . SVG Version: 6.00 Build 0)  -->
<svg version="1.1" id="Layer_1" xmlns="http://www.w3.org/2000/svg" xmlns:xlink="http://www.w3.org/1999/xlink" x="0px" y="0px"
	 width="24px" height="24px" viewBox="0 0 24 24" enable-background="new 0 0 24 24" xml:space="preserve">
<g>
	<path d="M10.0034,23.8115c-0.2021,0-0.3911-0.123-0.4668-0.3213c-0.2329-0.6074-0.2349-1.1484-0.2363-1.626
		c-0.002-0.6699-0.0034-1.1982-0.6143-1.8672c-0.1099-0.1191-0.2007-0.2275-0.2808-0.3223
		c-0.271-0.3213-0.2871-0.3408-0.5586-0.3408c-0.1792,0-0.437,0.0273-0.8101,0.0879c-1.6743,0.25-2.9204-0.7305-2.9204-2.1465
		c0-0.5645-0.0293-0.7031-0.042-0.7363c-0.4258-0.4219-0.4233-0.8252-0.3066-1.1582c-0.2559-0.2041-0.395-0.4941-0.395-0.8418
		c0-0.0449,0.0381-0.2793,0.0933-0.5605c0.0181-0.0938,0.0376-0.1934,0.0566-0.292c-0.4653,0-1.1748-0.0049-1.4678-0.7236
		c-0.3042-0.7451,0.3037-1.3555,0.5635-1.6157c0.7915-0.7915,1.2832-2.8975,1.4072-4.0396
		c0.4214-5.2163,5.0264-7.0723,8.8408-7.0723c4.0059,0,8.3525,2.0225,8.9111,5.8872c0.5752,3.9854,0.3174,4.4297-1.1143,6.894
		l-0.1514,0.2578c-0.7617,1.2891-2.3467,3.9707-1.8867,7.5684c0.0312,0.2432-0.1191,0.4736-0.3545,0.543l-8.125,2.4053
		C10.0981,23.8047,10.0503,23.8115,10.0034,23.8115z M7.8467,18.334c0.7368,0,1.0088,0.3232,1.3232,0.6973
		c0.0723,0.085,0.1538,0.1826,0.2534,0.291c0.8721,0.9541,0.875,1.7959,0.877,2.5391c0.001,0.2803,0.002,0.5508,0.0488,0.8262
		l7.2378-2.1426c-0.335-3.7207,1.2754-6.4453,2.0635-7.7793l0.1475-0.251c1.3721-2.3613,1.5156-2.6079,0.9893-6.249
		c-0.4775-3.3022-4.3457-5.0303-7.9209-5.0303c-3.3892,0-7.4775,1.6152-7.8452,6.1665c-0.0049,0.0469-0.376,3.3325-1.6953,4.6519
		c-0.2646,0.2656-0.3809,0.4443-0.3452,0.5322c0.0293,0.0713,0.084,0.1006,0.5132,0.1006c0.2324,0,0.4756,0,0.7183,0.0527
		c0.25,0.0537,0.4189,0.2871,0.3916,0.542c-0.02,0.1875-0.0947,0.5723-0.1567,0.8896c-0.0366,0.1875-0.0688,0.3477-0.0762,0.4072
		l0,0c0.002,0,0.0029,0.0479,0.1973,0.0977c0.1538,0.04,0.2798,0.1504,0.3389,0.2979c0.0596,0.1484,0.0449,0.3154-0.0391,0.4502
		c-0.061,0.0986-0.1621,0.2607-0.1724,0.3213c0.0039,0.001,0.021,0.0303,0.0713,0.0811c0.291,0.292,0.3496,0.5352,0.3496,1.4492
		c0,0.875,0.7603,1.1855,1.4111,1.1855c0.1157,0,0.2344-0.0088,0.3555-0.0273C7.3115,18.3652,7.6099,18.334,7.8467,18.334z"/>
	<path d="M13.9336,10.1089c-1.1797,0-2.1387-0.9595-2.1387-2.1387c0-1.1797,0.959-2.1392,2.1387-2.1392s2.1396,0.9595,2.1396,2.1392
		C16.0732,9.1494,15.1133,10.1089,13.9336,10.1089z M13.9336,6.8311c-0.6279,0-1.1387,0.5112-1.1387,1.1392
		s0.5107,1.1387,1.1387,1.1387s1.1396-0.5107,1.1396-1.1387S14.5615,6.8311,13.9336,6.8311z"/>
	<path d="M13.9346,12.8955c-0.2256,0-0.4492-0.0156-0.6797-0.0479c-0.2227-0.0312-0.3975-0.207-0.4268-0.4307l-0.1133-0.874
		c-0.1514-0.0513-0.2988-0.1123-0.4424-0.1831l-0.7002,0.5386c-0.1782,0.1367-0.4268,0.1377-0.606,0.0024
		c-0.3584-0.2705-0.6909-0.603-0.9619-0.9609c-0.1357-0.1797-0.1348-0.4277,0.0024-0.6064l0.5381-0.7002
		c-0.0708-0.1431-0.1318-0.291-0.1836-0.4419l-0.875-0.1147C9.2632,9.0479,9.0869,8.873,9.0562,8.6499
		c-0.0625-0.4497-0.0625-0.9067,0-1.3594c0.0308-0.2231,0.207-0.3984,0.4302-0.4272l0.875-0.1147
		c0.0518-0.1509,0.1128-0.2983,0.1836-0.4419l-0.5381-0.7002C9.8696,5.4277,9.8687,5.1797,10.0049,5
		c0.27-0.3569,0.6025-0.689,0.9609-0.9604c0.1797-0.1362,0.4277-0.1353,0.6064,0.002l0.7002,0.5386
		c0.1436-0.0703,0.291-0.1313,0.4414-0.1826l0.1143-0.875c0.0293-0.2231,0.2041-0.3994,0.4277-0.4302
		c0.46-0.064,0.8955-0.064,1.3594,0.0005c0.2236,0.0308,0.3984,0.207,0.4277,0.4307l0.1143,0.875
		c0.1494,0.0513,0.2969,0.1123,0.4395,0.1826l0.7002-0.5381c0.1787-0.1367,0.4277-0.1387,0.6064-0.002
		c0.3633,0.2749,0.6865,0.5986,0.9609,0.9614C18,5.1821,17.999,5.4307,17.8623,5.6089l-0.5381,0.7002
		c0.0693,0.1426,0.1309,0.2891,0.1816,0.439l0.875,0.1147c0.2236,0.0288,0.3994,0.2041,0.4307,0.4268
		c0.0635,0.459,0.0635,0.9043,0,1.3608c-0.0312,0.2231-0.207,0.3979-0.4307,0.4268l-0.874,0.1147
		c-0.0518,0.1499-0.1123,0.2969-0.1826,0.439l0.5381,0.7007c0.1367,0.1782,0.1377,0.4263,0.0029,0.606
		c-0.2754,0.3638-0.5986,0.688-0.9619,0.9624c-0.1807,0.1353-0.4277,0.1353-0.6064-0.0024l-0.7002-0.5381
		c-0.1426,0.0698-0.2891,0.1309-0.4395,0.1821L15.043,12.418c-0.0293,0.2227-0.2041,0.3994-0.4277,0.4297
		C14.3838,12.8799,14.1582,12.8955,13.9346,12.8955z M13.7686,11.8921c0.1094,0.0049,0.2227,0.0049,0.334,0l0.1055-0.8032
		c0.0273-0.2051,0.1777-0.3721,0.3779-0.4209c0.2822-0.0684,0.5498-0.1797,0.7949-0.3306c0.1777-0.1074,0.4014-0.0962,0.5664,0.0298
		l0.6426,0.4937c0.082-0.0752,0.1611-0.1543,0.2363-0.2368L16.332,9.9814c-0.126-0.1646-0.1377-0.3896-0.0293-0.5659
		c0.1504-0.2471,0.2617-0.5142,0.3291-0.7944c0.0488-0.2012,0.2158-0.3516,0.4219-0.3784l0.8027-0.105
		c0.0049-0.1118,0.0049-0.2231-0.001-0.3354l-0.8018-0.105c-0.2061-0.0269-0.373-0.1772-0.4219-0.3784
		c-0.0674-0.2798-0.1787-0.5474-0.3301-0.7944c-0.1074-0.1768-0.0957-0.4019,0.0303-0.5659l0.4941-0.6421
		c-0.0762-0.082-0.1553-0.1611-0.2373-0.2368l-0.6416,0.4932c-0.165,0.1255-0.3906,0.1377-0.5654,0.0298
		c-0.248-0.1514-0.5156-0.2622-0.7959-0.3296c-0.2012-0.0488-0.3516-0.2163-0.3789-0.4219l-0.1045-0.8027
		c-0.1113-0.0054-0.2227-0.0059-0.335,0l-0.1045,0.8022c-0.0273,0.2056-0.1777,0.3726-0.3789,0.4214
		c-0.2803,0.0674-0.5479,0.1782-0.7969,0.3301c-0.1758,0.1064-0.4014,0.0962-0.5654-0.0303l-0.6416-0.4932
		c-0.082,0.0752-0.1611,0.1543-0.2363,0.2363l0.4927,0.6411c0.126,0.1641,0.1382,0.3892,0.0298,0.5654
		C11.415,6.77,11.3037,7.0381,11.2363,7.3188C11.188,7.5205,11.02,7.6709,10.8149,7.6978l-0.8022,0.105
		c-0.0049,0.1118-0.0049,0.2231,0,0.3345l0.8022,0.105c0.2051,0.0269,0.373,0.1772,0.4214,0.3789
		c0.0674,0.2817,0.1787,0.5498,0.3301,0.7969c0.1084,0.1768,0.0962,0.4014-0.0298,0.5659l-0.4927,0.6416
		c0.0752,0.0815,0.1543,0.1606,0.2363,0.2363l0.6416-0.4937c0.1641-0.1274,0.3896-0.1387,0.5654-0.0298
		c0.249,0.1519,0.5166,0.2627,0.7969,0.3296c0.2012,0.0479,0.3525,0.2158,0.3799,0.4219L13.7686,11.8921z"/>
</g>
<rect x="0.0142" y="-0.003" fill="none" width="24" height="24"/>
</svg>
