<?xml version="1.0" encoding="utf-8"?>
<!-- Generator: Adobe Illustrator 18.1.0, SVG Export Plug-In . SVG Version: 6.00 Build 0)  -->
<svg version="1.1" id="Layer_1" xmlns="http://www.w3.org/2000/svg" xmlns:xlink="http://www.w3.org/1999/xlink" x="0px" y="0px"
	 width="24px" height="24px" viewBox="0 0 24 24" enable-background="new 0 0 24 24" xml:space="preserve">
<g>
	<path d="M17.8066,24.0342H6.4092c-0.2539,0-0.4673-0.1904-0.4966-0.4424L4.1777,8.5923c-0.0166-0.1416,0.0283-0.2837,0.123-0.3901
		c0.0952-0.1064,0.231-0.1675,0.3735-0.1675H19.541c0.1426,0,0.2783,0.061,0.373,0.1675s0.1396,0.2485,0.124,0.3901l-1.7344,14.9995
		C18.2744,23.8438,18.0605,24.0342,17.8066,24.0342z M6.8545,23.0342h10.5068l1.6182-13.9995H5.2354L6.8545,23.0342z"/>
	<path d="M6.5903,8.7056c-1.0166,0-1.8438-0.8271-1.8438-1.8442s0.8271-1.8442,1.8438-1.8442c0.2764,0,0.5,0.2236,0.5,0.5
		s-0.2236,0.5-0.5,0.5c-0.4653,0-0.8438,0.3789-0.8438,0.8442S6.125,7.7056,6.5903,7.7056s0.8442-0.3789,0.8442-0.8442
		c0-0.2764,0.2236-0.5,0.5-0.5s0.5,0.2236,0.5,0.5C8.4346,7.8784,7.6074,8.7056,6.5903,8.7056z"/>
	<path d="M10.8838,8.7056c-1.0166,0-1.8438-0.8271-1.8438-1.8442c0-0.2764,0.2236-0.5,0.5-0.5s0.5,0.2236,0.5,0.5
		c0,0.4653,0.3784,0.8442,0.8438,0.8442s0.8438-0.3789,0.8438-0.8442c0-0.2764,0.2236-0.5,0.5-0.5s0.5,0.2236,0.5,0.5
		C12.7275,7.8784,11.9004,8.7056,10.8838,8.7056z"/>
	<path d="M11.4258,6.4331c-0.2075,0-0.4019-0.1304-0.4727-0.3374c-0.3306-0.9619,0.1826-2.0132,1.1445-2.3433
		c0.4678-0.1606,0.9668-0.1289,1.4082,0.0864c0.4424,0.2158,0.7744,0.5913,0.9346,1.0571c0.0898,0.2612-0.0488,0.5459-0.3105,0.6353
		c-0.2627,0.0894-0.5459-0.0498-0.6348-0.3101c-0.0732-0.2129-0.2256-0.3848-0.4277-0.4839
		c-0.2031-0.0991-0.4326-0.1128-0.6445-0.0396c-0.4404,0.1514-0.6753,0.6323-0.5244,1.0728
		c0.0898,0.2612-0.0488,0.5459-0.3101,0.6353C11.5347,6.4243,11.4795,6.4331,11.4258,6.4331z"/>
	<path d="M15.5615,5.1074c-0.207,0-0.4014-0.1299-0.4727-0.3369c-0.1611-0.4658-0.1299-0.9663,0.0859-1.4092
		c0.2158-0.4424,0.5918-0.7749,1.0566-0.9351c0.9668-0.3301,2.0127,0.1836,2.3447,1.1436c0.0898,0.2612-0.0488,0.5459-0.3096,0.6357
		c-0.2598,0.0908-0.5459-0.0488-0.6357-0.3096c-0.1523-0.4399-0.6328-0.6743-1.0742-0.5244
		c-0.2119,0.0737-0.3838,0.2256-0.4834,0.4282c-0.0986,0.2026-0.1123,0.4316-0.0391,0.6445
		c0.0898,0.2612-0.0488,0.5459-0.3096,0.6357C15.6709,5.0986,15.6152,5.1074,15.5615,5.1074z"/>
	<path d="M17.6631,8.7051c-0.2695,0-0.4922-0.2148-0.5-0.4863c-0.0078-0.2759,0.21-0.5059,0.4863-0.5137
		c0.4648-0.0127,0.832-0.4019,0.8193-0.8677c-0.0059-0.2251-0.0996-0.4341-0.2637-0.5889
		c-0.1641-0.1553-0.3721-0.2324-0.6045-0.2305c-0.0039,0-0.0088,0-0.0137,0c-0.2695,0-0.4922-0.2148-0.5-0.4858
		c-0.0078-0.2759,0.21-0.5063,0.4863-0.5142c0.4795-0.0244,0.96,0.1646,1.3184,0.5034c0.3584,0.3384,0.5635,0.7959,0.5771,1.2886
		c0.0283,1.0166-0.7754,1.8667-1.792,1.895C17.6719,8.7051,17.668,8.7051,17.6631,8.7051z"/>
	<path d="M8.915,6.0171c-1.0166,0-1.8438-0.8271-1.8438-1.8438c0-1.0171,0.8271-1.8442,1.8438-1.8442
		c1.0171,0,1.8442,0.8271,1.8442,1.8442c0,0.2764-0.2236,0.5-0.5,0.5s-0.5-0.2236-0.5-0.5c0-0.4653-0.3789-0.8442-0.8442-0.8442
		S8.0713,3.708,8.0713,4.1733S8.4497,5.0171,8.915,5.0171c0.2764,0,0.5,0.2236,0.5,0.5S9.1914,6.0171,8.915,6.0171z"/>
	<path d="M14.2354,9.0347c-0.1523,0-0.3027-0.0693-0.4004-0.2007C13.54,8.4395,13.416,7.9536,13.4873,7.4658
		c0.0703-0.4873,0.3262-0.9185,0.7217-1.2129c0.8145-0.6089,1.9707-0.4399,2.5801,0.3735c0.165,0.2212,0.1201,0.5342-0.1006,0.6997
		s-0.5342,0.1201-0.7002-0.1011c-0.2793-0.3726-0.8086-0.4497-1.1816-0.1714c-0.3721,0.2788-0.4492,0.8091-0.1709,1.1816
		c0.165,0.2212,0.1201,0.5347-0.1016,0.6997C14.4443,9.0024,14.3398,9.0347,14.2354,9.0347z"/>
	<path d="M13.6846,3.3257c-0.1357,0-0.2705-0.0552-0.3691-0.1631c-0.6855-0.752-0.6309-1.9204,0.1211-2.6055
		c0.2041-0.1855,0.5215-0.1704,0.7061,0.0327c0.1865,0.2041,0.1719,0.5205-0.0322,0.7065
		c-0.3447,0.3135-0.3691,0.8486-0.0566,1.1924c0.1865,0.2041,0.1719,0.5205-0.0322,0.7065
		C13.9258,3.2827,13.8047,3.3257,13.6846,3.3257z"/>
	<path d="M11.7236,3.3071c-0.2344,0-0.4438-0.1655-0.4902-0.4043c-0.043-0.2212-0.1699-0.4126-0.3569-0.5386
		c-0.187-0.1255-0.4121-0.1733-0.6333-0.1279C9.9678,2.2876,9.709,2.1123,9.6562,1.8418c-0.0532-0.271,0.1235-0.5337,0.3945-0.5869
		c0.4839-0.0942,0.9741,0.0044,1.3838,0.2798c0.4087,0.2754,0.6865,0.6929,0.7803,1.1768c0.0527,0.271-0.124,0.5337-0.395,0.5864
		C11.7876,3.3042,11.7554,3.3071,11.7236,3.3071z"/>
	<path d="M12.1074,24.0342c-0.2764,0-0.5-0.2236-0.5-0.5V10.7183c0-0.2764,0.2236-0.5,0.5-0.5s0.5,0.2236,0.5,0.5v12.8159
		C12.6074,23.8105,12.3838,24.0342,12.1074,24.0342z"/>
	<path d="M14.9268,24.0342c-0.0098,0-0.0195,0-0.0293-0.001c-0.2764-0.0166-0.4863-0.2529-0.4697-0.5283l0.7607-12.8164
		c0.0166-0.2759,0.2568-0.4883,0.5283-0.4692c0.2764,0.0161,0.4863,0.2529,0.4697,0.5288l-0.7607,12.8154
		C15.4102,23.8291,15.1895,24.0342,14.9268,24.0342z"/>
	<path d="M9.2886,24.0342c-0.2627,0-0.4829-0.2051-0.4985-0.4707L8.0288,10.748c-0.0166-0.2759,0.1938-0.5127,0.4692-0.5288
		c0.2876-0.0166,0.5127,0.1934,0.5288,0.4692l0.7612,12.8164c0.0166,0.2754-0.1938,0.5117-0.4692,0.5283
		C9.3086,24.0342,9.2983,24.0342,9.2886,24.0342z"/>
	<path fill="none" stroke="#000000" stroke-linecap="round" stroke-linejoin="round" stroke-miterlimit="10" d="M12.1078,10.3042"/>
	<path fill="none" stroke="#000000" stroke-linecap="round" stroke-linejoin="round" stroke-miterlimit="10" d="M15.6876,10.3042"/>
	<path fill="none" stroke="#000000" stroke-linecap="round" stroke-linejoin="round" stroke-miterlimit="10" d="M8.528,10.3042"/>
	<path fill="none" stroke="#000000" stroke-linecap="round" stroke-linejoin="round" stroke-miterlimit="10" d="M12.1078,10.3042"/>
</g>
<rect x="0.0142" y="0.0346" fill="none" width="24" height="24"/>
</svg>
