<?xml version="1.0" encoding="utf-8"?>
<!-- Generator: Adobe Illustrator 18.1.0, SVG Export Plug-In . SVG Version: 6.00 Build 0)  -->
<svg version="1.1" id="Layer_1" xmlns="http://www.w3.org/2000/svg" xmlns:xlink="http://www.w3.org/1999/xlink" x="0px" y="0px"
	 width="24px" height="24px" viewBox="0 0 24 24" enable-background="new 0 0 24 24" xml:space="preserve">
<g>
	<path d="M11.4863,12.9521c-0.2764,0-0.5-0.2236-0.5-0.5V1.5952c0-0.2764,0.2236-0.5,0.5-0.5s0.5,0.2236,0.5,0.5v10.8569
		C11.9863,12.7285,11.7627,12.9521,11.4863,12.9521z"/>
	<path d="M15.0312,5.6318c-0.1279,0-0.2559-0.0488-0.3535-0.1465l-3.1831-3.1831L8.311,5.4854c-0.1953,0.1953-0.5117,0.1953-0.707,0
		s-0.1953-0.5117,0-0.707l3.5371-3.5366c0.1953-0.1953,0.5117-0.1953,0.707,0l3.5366,3.5366c0.1953,0.1953,0.1953,0.5117,0,0.707
		C15.2871,5.583,15.1592,5.6318,15.0312,5.6318z"/>
	<path d="M11.4946,20.9697c-1.9238,0-3.4893-1.5645-3.4893-3.4883s1.5654-3.4893,3.4893-3.4893
		c1.9233,0,3.4888,1.5654,3.4888,3.4893S13.418,20.9697,11.4946,20.9697z M11.4946,14.9922c-1.3726,0-2.4893,1.1162-2.4893,2.4893
		c0,1.3721,1.1167,2.4883,2.4893,2.4883s2.4888-1.1162,2.4888-2.4883C13.9834,16.1084,12.8672,14.9922,11.4946,14.9922z"/>
	<path d="M6.0127,23c-0.6353,0-1.1562-0.2256-1.5483-0.6719c-0.4888-0.5508-0.4741-1.2451-0.4692-1.4727l0.0005-6.4629
		c0-1.5967,1.1953-2.3691,2.0439-2.4077l2.0068-0.0005c0.0981-0.8149,0.3579-1.6035,1.2729-1.8857
		c0.2671-0.0815,0.5444,0.0669,0.6255,0.3306c0.0811,0.2642-0.0669,0.5439-0.3306,0.6255
		c-0.2969,0.0913-0.5308,0.2573-0.6118,1.4629c-0.0181,0.2627-0.2358,0.4668-0.499,0.4668H6.062
		c-0.2075,0.0098-1.0664,0.2793-1.0664,1.4082v6.4316c-0.0039,0.1973-0.0122,0.583,0.2178,0.8418C5.417,21.8975,5.6631,22,6.0117,22
		l12.9756-0.0234c0.1562-0.0078,1.0312-0.0898,1.0312-0.9033v-7.1504c-0.0195-0.2578-0.1592-0.9375-1.0146-0.9375h-4.4941
		c-0.2627,0-0.4814-0.2041-0.499-0.4668c-0.0771-1.1455-0.4062-1.3477-0.709-1.4473c-0.2627-0.0864-0.4053-0.3691-0.3184-0.6313
		s0.3691-0.4058,0.6309-0.3188c0.9307,0.3066,1.2363,1.0952,1.3467,1.8643h4.043c1.2988,0,1.9473,0.9561,2.0137,1.9023l0.001,7.1855
		c0,1.4492-1.3164,1.8789-2.0127,1.9033L6.0127,23z"/>
	<path d="M17.46,15.9697c-0.1299,0-0.2598-0.0498-0.3604-0.1504c-0.0898-0.0898-0.1396-0.2197-0.1396-0.3496
		s0.0498-0.2598,0.1396-0.3496c0.2002-0.1904,0.5205-0.1904,0.71-0.0107c0.0898,0.1006,0.1504,0.2305,0.1504,0.3604
		s-0.0605,0.2598-0.1504,0.3496C17.71,15.9199,17.5898,15.9697,17.46,15.9697z"/>
</g>
<rect x="-0.0137" y="0.0002" fill="none" width="24" height="24"/>
</svg>
