<?xml version="1.0" encoding="utf-8"?>
<!-- Generator: Adobe Illustrator 18.1.0, SVG Export Plug-In . SVG Version: 6.00 Build 0)  -->
<svg version="1.1" id="Layer_1" xmlns="http://www.w3.org/2000/svg" xmlns:xlink="http://www.w3.org/1999/xlink" x="0px" y="0px"
	 width="24px" height="24px" viewBox="0 0 24 24" enable-background="new 0 0 24 24" xml:space="preserve">
<rect x="-0.015" y="-0.0293" fill="none" width="24" height="24"/>
<g>
	<path d="M11.9766,23.7764c-0.2764,0-0.5-0.2236-0.5-0.5V0.6538c0-0.2764,0.2236-0.5,0.5-0.5s0.5,0.2236,0.5,0.5v22.6226
		C12.4766,23.5527,12.2529,23.7764,11.9766,23.7764z"/>
	<path d="M11.9766,6.123L11.9766,6.123c-0.1328,0-0.2598-0.0527-0.3535-0.1465L8.0293,2.3818c-0.1953-0.1953-0.1953-0.5117,0-0.707
		s0.5117-0.1953,0.707,0l3.2402,3.2412l3.2422-3.2412c0.1953-0.1953,0.5117-0.1953,0.707,0s0.1953,0.5117,0,0.707l-3.5957,3.5947
		C12.2363,6.0703,12.1094,6.123,11.9766,6.123z"/>
	<path d="M8.3818,22.4512c-0.1279,0-0.2559-0.0488-0.3535-0.1465c-0.1953-0.1953-0.1953-0.5117,0-0.707l3.5947-3.5957
		c0.1875-0.1875,0.5195-0.1875,0.707,0l3.5957,3.5957c0.1953,0.1953,0.1953,0.5117,0,0.707s-0.5117,0.1953-0.707,0l-3.2422-3.2422
		l-3.2412,3.2422C8.6377,22.4023,8.5098,22.4512,8.3818,22.4512z"/>
	<path d="M21.7725,18.1211c-0.085,0-0.1709-0.0215-0.25-0.0674L1.9307,6.7427C1.6914,6.6045,1.6094,6.2988,1.7476,6.0596
		s0.4443-0.3218,0.6831-0.1831l19.5918,11.312c0.2393,0.1377,0.3213,0.4434,0.1826,0.6826
		C22.1133,18.0312,21.9443,18.1211,21.7725,18.1211z"/>
	<path d="M1.5737,10.6094c-0.2207,0-0.4229-0.1475-0.4824-0.3706C1.02,9.9722,1.1782,9.6978,1.4448,9.6265l4.4272-1.1855
		L4.686,4.0122c-0.0713-0.2666,0.0869-0.541,0.3535-0.6123c0.2676-0.0703,0.5415,0.0874,0.6123,0.3535L6.9673,8.665
		C7.0015,8.793,6.9839,8.9297,6.9175,9.0444S6.7417,9.2432,6.6138,9.2773l-4.9102,1.3149
		C1.6602,10.604,1.6167,10.6094,1.5737,10.6094z"/>
	<path d="M18.8271,20.5713c-0.2207,0-0.4229-0.1475-0.4834-0.3701l-1.3164-4.9102c-0.0713-0.2676,0.0869-0.541,0.3535-0.6133
		l4.9121-1.3174c0.2695-0.0654,0.541,0.0879,0.6133,0.3535c0.0713,0.2666-0.0869,0.541-0.3535,0.6133l-4.4297,1.1875l1.1875,4.4268
		c0.0713,0.2676-0.0869,0.541-0.3535,0.6133C18.9131,20.5654,18.8701,20.5713,18.8271,20.5713z"/>
	<path d="M2.1816,18.1211c-0.1729,0-0.3408-0.0898-0.4336-0.25c-0.1382-0.2393-0.0562-0.5449,0.1831-0.6826l19.5923-11.312
		c0.2383-0.1387,0.5449-0.0571,0.6826,0.1831c0.1387,0.2393,0.0566,0.5449-0.1826,0.6831L2.4312,18.0537
		C2.3525,18.0996,2.2666,18.1211,2.1816,18.1211z"/>
	<path d="M5.1689,20.5469c-0.043,0-0.0864-0.0059-0.1299-0.0166c-0.2666-0.0723-0.4253-0.3457-0.3535-0.6133l1.187-4.4268
		l-4.4282-1.1865c-0.2666-0.0723-0.4253-0.3457-0.3535-0.6133c0.0723-0.2656,0.3457-0.4189,0.6123-0.3535l4.9111,1.3164
		c0.1279,0.0352,0.2373,0.1182,0.3037,0.2334s0.084,0.251,0.0498,0.3799l-1.3164,4.9102
		C5.5913,20.3994,5.3896,20.5469,5.1689,20.5469z"/>
	<path d="M22.4229,10.5859c-0.043,0-0.0859-0.0054-0.1289-0.0171l-4.9111-1.3154c-0.2676-0.0713-0.4258-0.3457-0.3545-0.6123
		l1.3154-4.9116c0.0723-0.2661,0.3516-0.4233,0.6123-0.3535c0.2676,0.0713,0.4258,0.3457,0.3545,0.6123L18.124,8.417l4.4277,1.186
		c0.2676,0.0713,0.4258,0.3457,0.3545,0.6123C22.8457,10.4385,22.6436,10.5859,22.4229,10.5859z"/>
</g>
</svg>
