<?xml version="1.0" encoding="utf-8"?>
<!-- Generator: Adobe Illustrator 18.1.1, SVG Export Plug-In . SVG Version: 6.00 Build 0)  -->
<svg version="1.1" id="Layer_1" xmlns="http://www.w3.org/2000/svg" xmlns:xlink="http://www.w3.org/1999/xlink" x="0px" y="0px"
	 width="24px" height="24px" viewBox="0 0 24 24" enable-background="new 0 0 24 24" xml:space="preserve">
<rect x="0.1897" fill="none" width="24" height="24"/>
<g>
	<path d="M18.8372,3.367c0.001-0.0302,0.0056-0.0599,0.0012-0.0892c-0.0045-0.0304-0.0175-0.0577-0.0275-0.0869
		c-0.0112-0.0325-0.0199-0.0648-0.0374-0.0942c-0.0032-0.0054-0.0034-0.012-0.0068-0.0173l-1.7559-2.7163
		c-0.1504-0.2334-0.4609-0.2969-0.6914-0.1484c-0.2314,0.1499-0.2979,0.4595-0.1484,0.6914l1.0621,1.6431
		c-3.1097-0.6957-6.2639-0.6017-8.9991,0.2881C7.9712,2.9228,7.8276,3.205,7.9131,3.4677c0.0854,0.2617,0.3682,0.4058,0.6304,0.3208
		c2.5958-0.8457,5.6019-0.9209,8.5735-0.238l-1.7585,1.1365C15.127,4.8368,15.0605,5.1464,15.21,5.3783
		c0.0957,0.1479,0.2559,0.2285,0.4199,0.2285c0.0938,0,0.1875-0.0259,0.2715-0.0801l2.7168-1.7559
		c0.0058-0.0037,0.009-0.0102,0.0146-0.0142c0.0102-0.0071,0.0162-0.017,0.0258-0.025c0.0703-0.0576,0.1215-0.1317,0.152-0.2175
		c0.0032-0.009,0.0129-0.0129,0.0156-0.0222c0.0017-0.0057,0.0001-0.0114,0.0015-0.0171c0.0018-0.0068,0.0067-0.0121,0.0082-0.019
		C18.8422,3.4265,18.8362,3.3968,18.8372,3.367z"/>
	<path d="M17.1299,11.9892c-0.4336-0.3091-0.9531-0.377-1.4717-0.1885c-0.3366,0.1225-0.6216,0.3337-0.845,0.6015l-1.8044-4.9589
		c-0.3779-1.0361-1.5293-1.5742-2.5635-1.1948c-0.3369,0.1224-0.622,0.3338-0.8454,0.6019L9.5054,6.5907
		c-0.1826-0.502-0.5498-0.9028-1.0342-1.1289C7.9873,5.2362,7.4443,5.2123,6.9419,5.3954C6.4399,5.578,6.0391,5.9452,5.8135,6.4291
		C5.684,6.7064,5.629,7.003,5.633,7.3001C5.2485,7.2032,4.845,7.2228,4.4648,7.3612C3.9629,7.5438,3.562,7.911,3.3364,8.3949
		C3.1104,8.8793,3.0869,9.4223,3.2695,9.9242l2.1554,5.9217c-0.4772-0.3245-1.1175-0.3091-1.6144,0.0554
		c-0.5117,0.375-0.9199,1.1826-0.5327,2.3203c0.0483,0.1465,1.2085,3.6025,3.8809,5.5479c0.0889,0.0645,0.1919,0.0957,0.2939,0.0957
		c0.1543,0,0.3066-0.0713,0.4048-0.2061c0.1626-0.2227,0.1133-0.5352-0.1099-0.6982c-2.4072-1.752-3.5088-5.0195-3.5215-5.0566
		c-0.1821-0.5352-0.1167-0.9824,0.1753-1.1963c0.1587-0.1143,0.3486-0.127,0.4556-0.0488l0.9121,0.7393
		c0.1572,0.127,0.2793,0.2949,0.3521,0.4834l0.7432,1.9189c0.0341,0.0882,0.0952,0.1541,0.1649,0.2081
		c0.0152,0.0118,0.0286,0.0214,0.045,0.0314c0.0765,0.0468,0.1607,0.0778,0.2517,0.0784c0.0017,0,0.0031,0.0015,0.0048,0.0015
		c0.0566,0,0.1147-0.0098,0.1709-0.0303c0.002-0.0007,0.0031-0.0023,0.005-0.0031c0.0016-0.0006,0.0032-0.0002,0.0048-0.0009
		c0.0276-0.0107,0.0472-0.0311,0.0717-0.0458c0.0313-0.0189,0.0657-0.0339,0.0916-0.0585c0.0214-0.0203,0.0338-0.0467,0.0511-0.0702
		c0.0208-0.0283,0.0452-0.0537,0.0596-0.0855c0.0123-0.0272,0.0142-0.0574,0.0215-0.0863c0.0084-0.0331,0.0212-0.0647,0.0226-0.0993
		c0.0014-0.0342-0.0098-0.0685-0.0156-0.1031c-0.005-0.0295-0.0027-0.0589-0.0134-0.088l-0.0033-0.009
		c-0.0001-0.0002-0.0001-0.0005-0.0001-0.0007l-0.0023-0.0058L4.209,9.5824C4.1177,9.3314,4.1299,9.06,4.2427,8.8178
		s0.313-0.4258,0.5645-0.5171c0.2495-0.0908,0.522-0.0796,0.7642,0.0332c0.242,0.1127,0.4254,0.3133,0.5173,0.564l2.2234,6.1079
		c0.0331,0.0914,0.0952,0.1598,0.1665,0.2155c0.0157,0.0123,0.0291,0.0232,0.0461,0.0335c0.0753,0.0461,0.1581,0.0755,0.2478,0.0771
		c0.0034,0.0001,0.006,0.0029,0.0093,0.0029c0.0566,0,0.1147-0.0098,0.1709-0.0303c0.2598-0.0947,0.3936-0.3809,0.2988-0.6406
		L7.0283,8.5565C7.0282,8.5562,7.028,8.5559,7.0278,8.5555L6.686,7.6166C6.5947,7.3656,6.6069,7.0941,6.7197,6.852
		s0.313-0.4258,0.564-0.5171c0.2515-0.0908,0.522-0.0791,0.7651,0.0332C8.291,6.4813,8.4746,6.6815,8.5659,6.9325l2.9072,7.9873
		c0.0333,0.0912,0.0953,0.1596,0.1664,0.2153c0.0158,0.0124,0.0292,0.0233,0.0463,0.0337c0.0752,0.046,0.158,0.0754,0.2477,0.0771
		c0.0034,0.0001,0.006,0.0029,0.0093,0.0029c0.0566,0,0.1147-0.0098,0.1714-0.0303c0.2588-0.0947,0.3926-0.3809,0.2988-0.6406
		l-2.2236-6.1084c-0.0913-0.2505-0.0796-0.522,0.0332-0.7642s0.3135-0.4258,0.5645-0.5176c0.5166-0.186,1.0938,0.0801,1.2822,0.5977
		l2.3936,6.5776l0.1709,0.4707c0.0732,0.2031,0.2656,0.3291,0.4697,0.3291c0.0566,0,0.1143-0.0098,0.1709-0.0303
		c0.2598-0.0938,0.3936-0.3809,0.2988-0.6406l-0.1709-0.4707c-0.0908-0.251-0.0791-0.5225,0.0332-0.7646
		c0.1133-0.2412,0.3135-0.4248,0.5645-0.5166c0.208-0.0732,0.3809-0.0566,0.5479,0.0625c0.1826,0.1309,0.3457,0.374,0.4434,0.6348
		c0.0059,0.0254,0.626,2.5742,0.3594,4.7568c-0.1201,0.9775-0.1318,1.9404-0.0371,2.9434c0.0254,0.2598,0.2422,0.4531,0.4971,0.4531
		c0.0166,0,0.0322-0.001,0.0479-0.002c0.2754-0.0264,0.4766-0.2705,0.4512-0.5449c-0.0889-0.9307-0.0781-1.8232,0.0332-2.7285
		c0.2891-2.3623-0.3535-5.0068-0.3965-5.1689C17.7617,12.6396,17.4795,12.2401,17.1299,11.9892z"/>
</g>
</svg>
