<?xml version="1.0" encoding="utf-8"?>
<!-- Generator: Adobe Illustrator 18.1.0, SVG Export Plug-In . SVG Version: 6.00 Build 0)  -->
<svg version="1.1" id="Layer_1" xmlns="http://www.w3.org/2000/svg" xmlns:xlink="http://www.w3.org/1999/xlink" x="0px" y="0px"
	 width="24px" height="24px" viewBox="0 0 24 24" enable-background="new 0 0 24 24" xml:space="preserve">
<g>
	<path d="M12.3018,18.2988c-0.2324,0-0.4341-0.1602-0.4868-0.3867L9.7915,9.2124l-1.1743,4.4497
		c-0.0581,0.2188-0.2563,0.3721-0.4834,0.3721H1.0142c-0.2764,0-0.5-0.2236-0.5-0.5s0.2236-0.5,0.5-0.5h6.7344l1.5903-6.0249
		c0.0586-0.2222,0.2603-0.3872,0.4907-0.3726c0.23,0.0034,0.4277,0.1631,0.4795,0.3867l1.9614,8.4326l1.0234-5.0103
		c0.0439-0.2129,0.2197-0.3735,0.4365-0.397c0.2109-0.0225,0.4229,0.0957,0.5107,0.2939l1.1963,2.6914h7.5771
		c0.2764,0,0.5,0.2236,0.5,0.5s-0.2236,0.5-0.5,0.5h-7.9023c-0.1973,0-0.377-0.1162-0.457-0.2969l-0.6943-1.5615l-1.1689,5.7236
		c-0.0479,0.2295-0.248,0.3965-0.4834,0.3994C12.3066,18.2988,12.3037,18.2988,12.3018,18.2988z"/>
	<path d="M21.7666,12.0898c-0.1133,0-0.2275-0.0391-0.3213-0.1172c-0.2119-0.1772-0.2393-0.4927-0.0625-0.7041
		c0.8398-1.0029,1.3027-2.2764,1.3027-3.585c0-3.0815-2.5078-5.5884-5.5898-5.5884c-1.8281,0-3.5801,0.8667-4.6855,2.3184
		c-0.0938,0.1245-0.2412,0.1973-0.3975,0.1973l0,0c-0.1562,0-0.3037-0.0732-0.3979-0.1973
		c-1.1035-1.4517-2.8545-2.3184-4.6836-2.3184c-3.0825,0-5.5903,2.5068-5.5903,5.5884c0,1.3086,0.4629,2.5815,1.3027,3.585
		c0.1772,0.2114,0.1494,0.5269-0.0625,0.7041c-0.2114,0.1777-0.5273,0.1484-0.7041-0.0625
		c-0.9907-1.1826-1.5361-2.6841-1.5361-4.2266c0-3.6328,2.9565-6.5884,6.5903-6.5884c1.9312,0,3.7886,0.8267,5.0825,2.2368
		c1.2939-1.4102,3.1514-2.2368,5.082-2.2368c3.6338,0,6.5898,2.9556,6.5898,6.5884c0,1.543-0.5449,3.0439-1.5352,4.2266
		C22.0508,12.0283,21.9092,12.0898,21.7666,12.0898z"/>
	<path d="M11.9038,22.9238c-0.0029,0-0.0059,0-0.0088,0c-0.4409-0.002-0.8569-0.1963-1.1421-0.5332l-5.4795-6.4775
		c-0.1782-0.2109-0.1519-0.5264,0.0591-0.7051c0.2104-0.1787,0.5259-0.1514,0.7046,0.0586l5.479,6.4775
		c0.0977,0.1152,0.2266,0.1729,0.3877,0.1797c0.1499,0,0.2856-0.0615,0.3833-0.1748l5.6299-6.4873
		c0.1826-0.207,0.498-0.2305,0.7061-0.0498c0.208,0.1816,0.2305,0.4971,0.0498,0.7061l-5.6299,6.4873
		C12.7559,22.7354,12.3418,22.9238,11.9038,22.9238z"/>
</g>
<rect x="0.0142" y="0.0346" fill="none" width="24" height="24"/>
</svg>
