<?xml version="1.0" encoding="utf-8"?>
<!-- Generator: Adobe Illustrator 18.1.0, SVG Export Plug-In . SVG Version: 6.00 Build 0)  -->
<svg version="1.1" id="Layer_1" xmlns="http://www.w3.org/2000/svg" xmlns:xlink="http://www.w3.org/1999/xlink" x="0px" y="0px"
	 width="24px" height="24px" viewBox="0 0 24 24" enable-background="new 0 0 24 24" xml:space="preserve">
<g>
	<path d="M0.5044,14.0527c-0.1157,0-0.2314-0.04-0.3262-0.1211c-0.2095-0.1797-0.2329-0.4961-0.0527-0.7051l4.3369-5.0415
		c0.0947-0.1104,0.2334-0.1738,0.3789-0.1738h5.1484c0.2764,0,0.5,0.2236,0.5,0.5s-0.2236,0.5-0.5,0.5H5.0708l-4.1875,4.8677
		C0.7847,13.9941,0.6445,14.0527,0.5044,14.0527z"/>
	<path d="M23.5059,14.0527c-0.1406,0-0.2803-0.0586-0.3789-0.1738l-4.1875-4.8677h-4.9287c-0.2764,0-0.5-0.2236-0.5-0.5
		s0.2236-0.5,0.5-0.5h5.1582c0.1455,0,0.2842,0.0635,0.3789,0.1738l4.3369,5.0415c0.1807,0.209,0.1562,0.5254-0.0527,0.7051
		C23.7373,14.0127,23.6211,14.0527,23.5059,14.0527z"/>
	<path d="M21.6475,24.0127H2.3628c-1.3003,0-2.3584-1.0576-2.3584-2.3584v-8.1016c0-0.2764,0.2236-0.5,0.5-0.5h7.0654
		c0.2764,0,0.5,0.2236,0.5,0.5v2.291c0,0.6514,0.5298,1.1807,1.1807,1.1807h5.5601c0.6514,0,1.1807-0.5293,1.1807-1.1807v-2.291
		c0-0.2764,0.2236-0.5,0.5-0.5h7.0146c0.2764,0,0.5,0.2236,0.5,0.5v8.1016C24.0059,22.9551,22.9482,24.0127,21.6475,24.0127z
		 M1.0044,14.0527v7.6016c0,0.749,0.6094,1.3584,1.3584,1.3584h19.2847c0.749,0,1.3584-0.6094,1.3584-1.3584v-7.6016h-6.0146v1.791
		c0,1.2021-0.9785,2.1807-2.1807,2.1807H9.2505c-1.2026,0-2.1807-0.9785-2.1807-2.1807v-1.791H1.0044z"/>
	<path d="M12,13.7344c-0.2764,0-0.5-0.2236-0.5-0.5V0.606c0-0.2764,0.2236-0.5,0.5-0.5s0.5,0.2236,0.5,0.5v12.6284
		C12.5,13.5107,12.2764,13.7344,12,13.7344z"/>
	<path d="M15.1494,4.2554c-0.1279,0-0.2559-0.0488-0.3535-0.1465L12,1.313L9.2041,4.1089c-0.1953,0.1953-0.5117,0.1953-0.707,0
		s-0.1953-0.5117,0-0.707l3.1494-3.1494c0.1953-0.1953,0.5117-0.1953,0.707,0l3.1494,3.1494c0.1953,0.1953,0.1953,0.5117,0,0.707
		C15.4053,4.2065,15.2773,4.2554,15.1494,4.2554z"/>
</g>
<rect y="0.0001" fill="none" width="24" height="24"/>
</svg>
