<?xml version="1.0" encoding="utf-8"?>
<!-- Generator: Adobe Illustrator 18.1.0, SVG Export Plug-In . SVG Version: 6.00 Build 0)  -->
<svg version="1.1" id="Layer_1" xmlns="http://www.w3.org/2000/svg" xmlns:xlink="http://www.w3.org/1999/xlink" x="0px" y="0px"
	 width="24px" height="24px" viewBox="0 0 24 24" enable-background="new 0 0 24 24" xml:space="preserve">
<g>
	<path d="M22.4385,5.0044H10.5103c-0.2764,0-0.5-0.2236-0.5-0.5s0.2236-0.5,0.5-0.5h11.9282c0.2764,0,0.5,0.2236,0.5,0.5
		S22.7148,5.0044,22.4385,5.0044z"/>
	<path d="M22.4385,8.0044H10.5103c-0.2764,0-0.5-0.2236-0.5-0.5s0.2236-0.5,0.5-0.5h11.9282c0.2764,0,0.5,0.2236,0.5,0.5
		S22.7148,8.0044,22.4385,8.0044z"/>
	<path d="M22.4385,11.0044H10.5103c-0.2764,0-0.5-0.2236-0.5-0.5s0.2236-0.5,0.5-0.5h11.9282c0.2764,0,0.5,0.2236,0.5,0.5
		S22.7148,11.0044,22.4385,11.0044z"/>
	<path d="M22.4385,14.0039H1.5381c-0.2764,0-0.5-0.2236-0.5-0.5s0.2236-0.5,0.5-0.5h20.9004c0.2764,0,0.5,0.2236,0.5,0.5
		S22.7148,14.0039,22.4385,14.0039z"/>
	<path d="M22.4385,17.0039H1.5381c-0.2764,0-0.5-0.2236-0.5-0.5s0.2236-0.5,0.5-0.5h20.9004c0.2764,0,0.5,0.2236,0.5,0.5
		S22.7148,17.0039,22.4385,17.0039z"/>
	<path d="M22.4385,20.0039H1.5381c-0.2764,0-0.5-0.2236-0.5-0.5s0.2236-0.5,0.5-0.5h20.9004c0.2764,0,0.5,0.2236,0.5,0.5
		S22.7148,20.0039,22.4385,20.0039z"/>
	<path d="M7.5054,7.9849H1.5879c-0.2764,0-0.5-0.2236-0.5-0.5s0.2236-0.5,0.5-0.5h5.9175c0.2764,0,0.5,0.2236,0.5,0.5
		S7.7817,7.9849,7.5054,7.9849z"/>
	<path d="M4.6729,10.7256c-0.1309,0-0.2612-0.0513-0.3594-0.1523c-0.1919-0.1987-0.1865-0.5151,0.0117-0.707l2.4619-2.3794
		L4.3252,5.1079C4.127,4.916,4.1216,4.5996,4.3135,4.4009c0.1919-0.1968,0.5088-0.2031,0.707-0.0117l2.834,2.7383
		c0.0972,0.0942,0.1523,0.2236,0.1523,0.3594S7.9517,7.752,7.8545,7.8462l-2.834,2.7388
		C4.9233,10.6787,4.7979,10.7256,4.6729,10.7256z"/>
</g>
<rect y="0.0011" fill="none" width="24" height="24"/>
</svg>
