<?xml version="1.0" encoding="utf-8"?>
<!-- Generator: Adobe Illustrator 18.1.0, SVG Export Plug-In . SVG Version: 6.00 Build 0)  -->
<svg version="1.1" id="Layer_1" xmlns="http://www.w3.org/2000/svg" xmlns:xlink="http://www.w3.org/1999/xlink" x="0px" y="0px"
	 width="24px" height="24px" viewBox="0 0 24 24" enable-background="new 0 0 24 24" xml:space="preserve">
<g>
	<path d="M5.0786,1.0103c-0.2764,0-0.5-0.2236-0.5-0.5s0.2236-0.5,0.5-0.5l15.7222-0.0005c0.2764,0,0.5,0.2236,0.5,0.5
		s-0.2236,0.5-0.5,0.5L5.0786,1.0103z"/>
	<path d="M20.8008,5.998H5.0786c-0.2764,0-0.5-0.2236-0.5-0.5s0.2236-0.5,0.5-0.5c1.1504,0,2.0864-0.8945,2.0864-1.9941
		S6.229,1.0098,5.0786,1.0098c-0.2764,0-0.5-0.2236-0.5-0.5s0.2236-0.5,0.5-0.5h15.7222c1.7012,0,3.0859,1.3433,3.0859,2.9941
		S22.502,5.998,20.8008,5.998z M7.3789,4.998h13.4219c1.1504,0,2.0859-0.8945,2.0859-1.9941s-0.9355-1.9941-2.0859-1.9941H7.3789
		C7.8677,1.5396,8.165,2.2388,8.165,3.0039S7.8677,4.4683,7.3789,4.998z"/>
	<path d="M17.2002,23.9844c-0.001,0-0.002,0-0.002,0c-0.1377-0.001-0.2695-0.0576-0.3633-0.1582l-2.7217-2.9082l-2.7207,2.9082
		c-0.1895,0.2012-0.541,0.2012-0.7305,0L7.9404,20.918l-2.6289,2.8105c-0.1895,0.2012-0.541,0.2012-0.7305,0L2.2231,21.209
		c-0.1123-0.0918-0.1851-0.2295-0.1851-0.3828V3.0039c-0.001-0.7988,0.3101-1.5508,0.875-2.1162
		c0.5654-0.5664,1.3174-0.8779,2.1177-0.8779c0.2764,0,0.5,0.2236,0.5,0.5s-0.2236,0.5-0.5,0.5
		c-1.0996,0-1.9941,0.8945-1.9941,1.9941l0.0015,17.6123l1.9082,2.0391l2.6289-2.8105c0.1895-0.2012,0.541-0.2012,0.7305,0
		l2.7217,2.9082l2.7207-2.9082c0.1895-0.2012,0.541-0.2012,0.7305,0l2.7246,2.9111l1.835-1.9248V5.498c0-0.2764,0.2236-0.5,0.5-0.5
		s0.5,0.2236,0.5,0.5v15.5332c0,0.1289-0.0498,0.252-0.1377,0.3447l-2.3379,2.4531C17.4678,23.9287,17.3369,23.9844,17.2002,23.9844
		z"/>
	<path d="M11.3833,15.1514c-0.0884,0-0.1787-0.002-0.271-0.0068c-0.2759-0.0127-0.4888-0.2471-0.4756-0.5234
		c0.0137-0.2764,0.2759-0.5078,0.5234-0.4746c0.7373,0.0273,1.2891-0.0986,1.5576-0.376c0.1533-0.1592,0.2168-0.3682,0.1953-0.6406
		c-0.0371-0.4619-0.8086-0.9326-2.0117-1.228c-1.9141-0.5039-2.1987-1.4829-2.1987-2.022c0-1.0654,1.0562-1.8999,2.4048-1.8999
		c0.8774,0,1.6914,0.542,2.1094,1.0786c0.1699,0.2183,0.1309,0.5322-0.0879,0.7017c-0.2168,0.1689-0.5322,0.1299-0.7012-0.0874
		C12.166,9.3369,11.6147,8.98,11.1074,8.98c-0.7617,0-1.4048,0.4121-1.4048,0.8999c0,0.6069,1.0107,0.9385,1.4453,1.0532
		c1.7261,0.4238,2.6841,1.1558,2.7612,2.1157c0.0459,0.5596-0.1172,1.0498-0.4727,1.416C13,14.916,12.2939,15.1514,11.3833,15.1514z
		"/>
	<path d="M10.8276,18.0186c-0.8774,0-1.6919-0.541-2.1099-1.0771c-0.1694-0.2178-0.1304-0.5322,0.0874-0.7021
		c0.2173-0.1709,0.5312-0.1309,0.7017,0.0869c0.2676,0.3447,0.8076,0.6924,1.3208,0.6924c0.7612,0,1.4048-0.4121,1.4048-0.8994
		c0-0.6074-1.0107-0.9395-1.4453-1.0537c-1.0269-0.252-2.7637-0.8701-2.7637-2.1553c0-0.5518,0.1885-1.022,0.5449-1.3604
		c0.5117-0.4849,1.3237-0.688,2.478-0.6328c0.2759,0.0146,0.4878,0.2495,0.4736,0.5254c-0.0151,0.2754-0.2524,0.4771-0.5254,0.4736
		c-0.8491-0.0444-1.4443,0.0806-1.7378,0.3594c-0.1572,0.1484-0.2334,0.3564-0.2334,0.6348c0,0.4014,0.8457,0.9004,2.0103,1.1865
		c1.9146,0.5039,2.1987,1.4834,2.1987,2.0225C13.2324,17.1846,12.1758,18.0186,10.8276,18.0186z"/>
</g>
<rect y="0.0001" fill="none" width="24" height="24"/>
</svg>
