<?xml version="1.0" encoding="utf-8"?>
<!-- Generator: Adobe Illustrator 18.1.0, SVG Export Plug-In . SVG Version: 6.00 Build 0)  -->
<svg version="1.1" id="Layer_1" xmlns="http://www.w3.org/2000/svg" xmlns:xlink="http://www.w3.org/1999/xlink" x="0px" y="0px"
	 width="24px" height="24px" viewBox="0 0 24 24" enable-background="new 0 0 24 24" xml:space="preserve">
<g>
	<path d="M12.4688,24.0068H3.5322c-1.396,0-2.5317-1.1357-2.5317-2.5312V2.5029c0-1.3955,1.1357-2.5312,2.5317-2.5312h8.9365
		C13.8643-0.0283,15,1.1074,15,2.5029c0,0.2764-0.2236,0.5-0.5,0.5s-0.5-0.2236-0.5-0.5c0-0.8442-0.6865-1.5312-1.5312-1.5312
		H3.5322c-0.8447,0-1.5317,0.687-1.5317,1.5312v18.9727c0,0.8447,0.687,1.5312,1.5317,1.5312h8.9365
		c0.8447,0,1.5312-0.6865,1.5312-1.5312v-5.999c0-0.2764,0.2236-0.5,0.5-0.5s0.5,0.2236,0.5,0.5v5.999
		C15,22.8711,13.8643,24.0068,12.4688,24.0068z"/>
	<path d="M8.0005,22.3809c-0.7461,0-1.3535-0.6074-1.3535-1.3535s0.6074-1.3525,1.3535-1.3525s1.353,0.6064,1.353,1.3525
		S8.7466,22.3809,8.0005,22.3809z M8.0005,20.6748c-0.1948,0-0.3535,0.1582-0.3535,0.3525c0,0.1953,0.1587,0.3535,0.3535,0.3535
		s0.353-0.1582,0.353-0.3535C8.3535,20.833,8.1953,20.6748,8.0005,20.6748z"/>
	<path d="M14.5088,18.998H1.5093c-0.2764,0-0.5-0.2236-0.5-0.5v-15c0-0.2764,0.2236-0.5,0.5-0.5h9.1523c0.2764,0,0.5,0.2236,0.5,0.5
		s-0.2236,0.5-0.5,0.5H2.0093v14h12.4995c0.2764,0,0.5,0.2236,0.5,0.5S14.7852,18.998,14.5088,18.998z"/>
	<path d="M12.5049,17.5908c-0.0732,0-0.1465-0.0156-0.2158-0.0488c-0.1738-0.083-0.2842-0.2588-0.2842-0.4512v-3.4746
		c-1.981-0.6553-3.9761-2.9028-3.9761-5.7065c0-3.2598,2.4692-5.9116,5.5044-5.9116h4.9834c2.9902,0,5.4229,2.6914,5.4229,6
		s-2.4326,6-5.4229,6H17.124l-4.3047,3.4814C12.7285,17.5527,12.6172,17.5908,12.5049,17.5908z M13.5332,2.998
		c-2.4414,0-4.5044,2.249-4.5044,4.9116c0,2.4937,1.8608,4.4536,3.5854,4.8384c0.2285,0.0518,0.3906,0.2539,0.3906,0.4883v2.8066
		l3.6279-2.9336c0.0889-0.0723,0.2002-0.1113,0.3145-0.1113h1.5693c2.3975,0,4.4229-2.2896,4.4229-5s-2.0254-5-4.4229-5H13.5332z"/>
	<path d="M12.1104,10.0288c-0.3813,0-0.8638-0.1807-1.2002-0.4497c-0.2158-0.1724-0.251-0.4873-0.0786-0.7026
		c0.1729-0.2148,0.4883-0.251,0.7026-0.0786c0.1704,0.1362,0.4404,0.231,0.5762,0.231c0.168,0,0.2695-0.0845,0.2822-0.1216l0,0
		c-0.0166,0-0.1104-0.0723-0.4121-0.1533c-0.3218-0.0928-1.1538-0.3325-1.1538-1.1118c0-0.6226,0.5757-1.1289,1.2837-1.1289
		c0.4463,0,0.8535,0.1973,1.0879,0.5273c0.1602,0.2251,0.1074,0.5376-0.1172,0.6973c-0.2246,0.1592-0.5371,0.1069-0.6973-0.1172
		c-0.0371-0.0518-0.1377-0.1074-0.2734-0.1074c-0.1738,0-0.2764,0.0913-0.2832,0.1255c0.002-0.0151,0.0898,0.0562,0.4219,0.1519
		c0.7568,0.2031,1.1455,0.5771,1.1455,1.1094C13.3945,9.5225,12.8184,10.0288,12.1104,10.0288z"/>
	<path d="M20.4658,10.0288c-0.3809,0-0.8633-0.1807-1.2002-0.4497c-0.2158-0.1724-0.25-0.4873-0.0781-0.7026
		c0.1729-0.2153,0.4863-0.25,0.7031-0.0786c0.1699,0.1362,0.4395,0.231,0.5752,0.231c0.1709,0,0.2695-0.084,0.2832-0.1216
		c-0.001,0-0.001,0-0.001,0c-0.0166,0-0.1104-0.0723-0.4121-0.1533c-0.3213-0.0928-1.1533-0.332-1.1533-1.1118
		c0-0.6226,0.5752-1.1289,1.2832-1.1289c0.4463,0,0.8535,0.1973,1.0879,0.5273c0.1602,0.2251,0.1074,0.5376-0.1172,0.6973
		c-0.2236,0.1592-0.5361,0.1069-0.6973-0.1172c-0.0371-0.0518-0.1377-0.1074-0.2734-0.1074c-0.1768,0-0.2764,0.0908-0.2832,0.1255
		c0.0225-0.0215,0.0996,0.0586,0.4219,0.1519C21.3613,7.9937,21.75,8.3677,21.75,8.8999
		C21.75,9.5225,21.1738,10.0288,20.4658,10.0288z"/>
	<path d="M14.3408,10.0288c-0.2764,0-0.5-0.2236-0.5-0.5V7.0151c0-0.2764,0.2236-0.5,0.5-0.5s0.5,0.2236,0.5,0.5v2.5137
		C14.8408,9.8052,14.6172,10.0288,14.3408,10.0288z"/>
	<path d="M16.293,10.0288c-0.2764,0-0.5-0.2236-0.5-0.5V8.0132c0.001-0.1011-0.0283-0.3159-0.1299-0.4185
		c-0.0332-0.0342-0.0957-0.0796-0.251-0.0796c-0.4541,0-0.5615,0.4688-0.5781,0.5625c-0.0488,0.27-0.3008,0.4551-0.5762,0.4072
		c-0.2705-0.0454-0.4541-0.2979-0.4111-0.5684c0.0771-0.4849,0.5029-1.4014,1.5654-1.4014c0.4951,0,0.8018,0.2104,0.9727,0.3867
		c0.4199,0.4351,0.4102,1.0591,0.4082,1.1289v1.498C16.793,9.8052,16.5693,10.0288,16.293,10.0288z"/>
	<path d="M18.2461,10.0288c-0.2764,0-0.5-0.2236-0.5-0.5V8.0132c0.001-0.1006-0.0293-0.3159-0.1299-0.4189
		c-0.0342-0.0337-0.0967-0.0791-0.251-0.0791c-0.4844,0-0.5752,0.5356-0.5781,0.5581c-0.0439,0.2729-0.2988,0.457-0.5732,0.415
		c-0.2725-0.0435-0.458-0.2998-0.415-0.5723c0.0781-0.4849,0.5049-1.4009,1.5664-1.4009c0.4941,0,0.8008,0.21,0.9717,0.3862
		c0.4199,0.4351,0.4111,1.0591,0.4092,1.1289v1.4985C18.7461,9.8052,18.5225,10.0288,18.2461,10.0288z"/>
</g>
<rect y="-0.002" fill="none" width="24" height="24"/>
</svg>
