<?xml version="1.0" encoding="utf-8"?>
<!-- Generator: Adobe Illustrator 18.1.0, SVG Export Plug-In . SVG Version: 6.00 Build 0)  -->
<svg version="1.1" id="Layer_1" xmlns="http://www.w3.org/2000/svg" xmlns:xlink="http://www.w3.org/1999/xlink" x="0px" y="0px"
	 width="24px" height="24px" viewBox="0 0 24 24" enable-background="new 0 0 24 24" xml:space="preserve">
<g>
	<path d="M12.4863,4.8564c-0.2764,0-0.5-0.2236-0.5-0.5V0.6597c0-0.2764,0.2236-0.5,0.5-0.5s0.5,0.2236,0.5,0.5v3.6968
		C12.9863,4.6328,12.7627,4.8564,12.4863,4.8564z"/>
	<path d="M14.8467,5.5386c-0.085,0-0.1709-0.0215-0.25-0.0669c-0.2393-0.1382-0.3213-0.4438-0.1826-0.6831l2.0127-3.4858
		c0.1377-0.2402,0.4434-0.3193,0.6826-0.1831c0.2393,0.1382,0.3213,0.4438,0.1826,0.6831l-2.0127,3.4858
		C15.1875,5.4492,15.0186,5.5386,14.8467,5.5386z"/>
	<path d="M10.125,5.5386c-0.1729,0-0.3408-0.0894-0.4336-0.25L7.6792,1.8027C7.541,1.5635,7.623,1.2578,7.8623,1.1196
		c0.2373-0.1382,0.5444-0.0571,0.6831,0.1831l2.0122,3.4858c0.1382,0.2393,0.0562,0.5449-0.1831,0.6831
		C10.2959,5.5171,10.21,5.5386,10.125,5.5386z"/>
	<path d="M2.2461,15.9355c-1.0728,0-1.9458-0.873-1.9458-1.9463c0-1.0723,0.873-1.9453,1.9458-1.9453c0.2764,0,0.5,0.2236,0.5,0.5
		s-0.2236,0.5-0.5,0.5c-0.5215,0-0.9458,0.4238-0.9458,0.9453s0.4243,0.9463,0.9458,0.9463c0.2764,0,0.5,0.2236,0.5,0.5
		S2.5225,15.9355,2.2461,15.9355z"/>
	<path d="M9.4263,20.0088c-0.3921,0-0.792-0.0391-1.1875-0.1162c-2.3638-0.4619-4.2656-2.3594-4.7334-4.7207
		c-0.3545-1.7881,0.0786-3.5386,1.2192-4.9277c1.1733-1.4282,2.9873-2.2812,4.853-2.2812h1.9878c0.2764,0,0.5,0.2236,0.5,0.5v1.0688
		c0,0.2588,0.2109,0.4692,0.4697,0.4692s0.4697-0.2104,0.4697-0.4692V8.4634c0-0.2764,0.2236-0.5,0.5-0.5h10.0049
		c0.2764,0,0.5,0.2236,0.5,0.5v3.0562c0,0.2764-0.2236,0.5-0.5,0.5h-5.7637c-1.2295,0-2.2324,0.9824-2.335,2.2852
		C15.1641,17.5029,12.5352,20.0078,9.4263,20.0088z M9.5776,8.9629c-1.5693,0-3.0947,0.7163-4.0801,1.916
		c-0.9473,1.1533-1.3066,2.6094-1.0117,4.0986c0.3901,1.9678,1.9751,3.5479,3.9443,3.9336
		c2.9604,0.5723,5.7505-1.6631,5.9849-4.6846c0.1426-1.8281,1.5742-3.207,3.3311-3.207h5.2637V8.9634h-9.0049v0.5684
		c0,0.8101-0.6592,1.4692-1.4697,1.4692s-1.4697-0.6592-1.4697-1.4692V8.9629H9.5776z"/>
</g>
<rect x="-0.0061" fill="none" width="24" height="24"/>
</svg>
