<?xml version="1.0" encoding="utf-8"?>
<!-- Generator: Adobe Illustrator 18.1.0, SVG Export Plug-In . SVG Version: 6.00 Build 0)  -->
<svg version="1.1" id="Layer_1" xmlns="http://www.w3.org/2000/svg" xmlns:xlink="http://www.w3.org/1999/xlink" x="0px" y="0px"
	 width="24px" height="24px" viewBox="0 0 24 24" enable-background="new 0 0 24 24" xml:space="preserve">
<g>
	<path d="M10.5,24h-10C0.2236,24,0,23.7764,0,23.5v-23C0,0.2236,0.2236,0,0.5,0h10C10.7764,0,11,0.2236,11,0.5v23
		C11,23.7764,10.7764,24,10.5,24z M1,23h9V1H1V23z"/>
	<path d="M8,4H3C2.7236,4,2.5,3.7764,2.5,3.5S2.7236,3,3,3h5c0.2764,0,0.5,0.2236,0.5,0.5S8.2764,4,8,4z"/>
	<path d="M8,6H3C2.7236,6,2.5,5.7764,2.5,5.5S2.7236,5,3,5h5c0.2764,0,0.5,0.2236,0.5,0.5S8.2764,6,8,6z"/>
	<path d="M8,8H3C2.7236,8,2.5,7.7764,2.5,7.5S2.7236,7,3,7h5c0.2764,0,0.5,0.2236,0.5,0.5S8.2764,8,8,8z"/>
	<path d="M8,10H3c-0.2764,0-0.5-0.2236-0.5-0.5S2.7236,9,3,9h5c0.2764,0,0.5,0.2236,0.5,0.5S8.2764,10,8,10z"/>
	<path d="M8,15H3c-0.2764,0-0.5-0.2236-0.5-0.5S2.7236,14,3,14h5c0.2764,0,0.5,0.2236,0.5,0.5S8.2764,15,8,15z"/>
	<path d="M8,17H3c-0.2764,0-0.5-0.2236-0.5-0.5S2.7236,16,3,16h5c0.2764,0,0.5,0.2236,0.5,0.5S8.2764,17,8,17z"/>
	<path d="M8,19H3c-0.2764,0-0.5-0.2236-0.5-0.5S2.7236,18,3,18h5c0.2764,0,0.5,0.2236,0.5,0.5S8.2764,19,8,19z"/>
	<path d="M8,21H3c-0.2764,0-0.5-0.2236-0.5-0.5S2.7236,20,3,20h5c0.2764,0,0.5,0.2236,0.5,0.5S8.2764,21,8,21z"/>
	<path d="M23.501,24h-10c-0.2764,0-0.5-0.2236-0.5-0.5v-23c0-0.2764,0.2236-0.5,0.5-0.5h10c0.2764,0,0.5,0.2236,0.5,0.5v23
		C24.001,23.7764,23.7773,24,23.501,24z M14.001,23h9V1h-9V23z"/>
	<path d="M21.001,4h-5c-0.2764,0-0.5-0.2236-0.5-0.5s0.2236-0.5,0.5-0.5h5c0.2764,0,0.5,0.2236,0.5,0.5S21.2773,4,21.001,4z"/>
	<path d="M21.001,6h-5c-0.2764,0-0.5-0.2236-0.5-0.5s0.2236-0.5,0.5-0.5h5c0.2764,0,0.5,0.2236,0.5,0.5S21.2773,6,21.001,6z"/>
	<path d="M21.001,8h-5c-0.2764,0-0.5-0.2236-0.5-0.5s0.2236-0.5,0.5-0.5h5c0.2764,0,0.5,0.2236,0.5,0.5S21.2773,8,21.001,8z"/>
	<path d="M21.001,10h-5c-0.2764,0-0.5-0.2236-0.5-0.5s0.2236-0.5,0.5-0.5h5c0.2764,0,0.5,0.2236,0.5,0.5S21.2773,10,21.001,10z"/>
	<path d="M21.001,15h-5c-0.2764,0-0.5-0.2236-0.5-0.5s0.2236-0.5,0.5-0.5h5c0.2764,0,0.5,0.2236,0.5,0.5S21.2773,15,21.001,15z"/>
	<path d="M21.001,17h-5c-0.2764,0-0.5-0.2236-0.5-0.5s0.2236-0.5,0.5-0.5h5c0.2764,0,0.5,0.2236,0.5,0.5S21.2773,17,21.001,17z"/>
	<path d="M21.001,19h-5c-0.2764,0-0.5-0.2236-0.5-0.5s0.2236-0.5,0.5-0.5h5c0.2764,0,0.5,0.2236,0.5,0.5S21.2773,19,21.001,19z"/>
	<path d="M21.001,21h-5c-0.2764,0-0.5-0.2236-0.5-0.5s0.2236-0.5,0.5-0.5h5c0.2764,0,0.5,0.2236,0.5,0.5S21.2773,21,21.001,21z"/>
	<path d="M5.5,12.5c-0.1304,0-0.25-0.0498-0.3501-0.1406C5.0498,12.25,5,12.1299,5,12c0-0.1304,0.0498-0.25,0.1396-0.3501
		c0.2002-0.2002,0.5303-0.1899,0.7202,0C5.9497,11.7397,6,11.8696,6,12c0,0.1299-0.0503,0.2598-0.1504,0.3496
		C5.7598,12.4502,5.6299,12.5,5.5,12.5z"/>
	<path d="M18.5,12.5c-0.1299,0-0.2598-0.0498-0.3506-0.1406C18.0498,12.2598,18,12.1299,18,12c0-0.1304,0.0596-0.2603,0.1494-0.3501
		c0.1807-0.1899,0.5205-0.1899,0.7002,0C18.9502,11.7397,19,11.8696,19,12c0,0.1299-0.0498,0.2598-0.1406,0.3496
		C18.7598,12.4502,18.6299,12.5,18.5,12.5z"/>
</g>
<rect fill="none" width="24" height="24"/>
</svg>
