<?xml version="1.0" encoding="utf-8"?>
<!-- Generator: Adobe Illustrator 18.1.0, SVG Export Plug-In . SVG Version: 6.00 Build 0)  -->
<svg version="1.1" id="Layer_1" xmlns="http://www.w3.org/2000/svg" xmlns:xlink="http://www.w3.org/1999/xlink" x="0px" y="0px"
	 width="24px" height="24px" viewBox="0 0 24 24" enable-background="new 0 0 24 24" xml:space="preserve">
<g>
	<path d="M18.5967,20.998H5.1875c-2.0771,0-3.8701-1.4092-4.5674-3.5898c-0.7388-2.3096,0.0278-4.7158,1.9536-6.1929
		c0.605-3.6455,3.2856-6.27,6.4409-6.27c1.4609,0,2.8452,0.564,4.0186,1.6338c2.5137-0.2534,4.5928,1.208,5.4072,3.6357
		c2.8066-0.0835,5.2207,2.4209,5.2207,5.3896C23.6611,18.5283,21.3418,20.998,18.5967,20.998z M9.0146,5.9453
		c-2.7129,0-5.0186,2.3638-5.4829,5.6206c-0.0195,0.1353-0.0933,0.2568-0.2051,0.3364c-2.0522,1.4629-2.252,3.6455-1.7544,5.2012
		c0.5625,1.7578,1.9819,2.8945,3.6152,2.8945h13.4092c2.2031,0,4.0645-2.0117,4.0645-4.3936c0-2.5342-2.1035-4.6372-4.5293-4.3667
		c-0.2451,0.0254-0.4756-0.1289-0.5391-0.3687c-0.4268-1.6045-1.6992-3.3193-3.9883-3.3193c-0.2178,0-0.4414,0.0161-0.6719,0.0493
		c-0.1592,0.02-0.3096-0.0288-0.4199-0.1367C11.4932,6.4697,10.2837,5.9453,9.0146,5.9453z"/>
	<path d="M14.5205,17.7998c-0.1279,0-0.2559-0.0488-0.3535-0.1465l-5.9131-5.9131c-0.1953-0.1953-0.1953-0.5117,0-0.707
		s0.5117-0.1953,0.707,0l5.9131,5.9131c0.1953,0.1953,0.1953,0.5117,0,0.707C14.7764,17.751,14.6484,17.7998,14.5205,17.7998z"/>
	<path d="M8.6074,17.7998c-0.1279,0-0.2559-0.0488-0.3535-0.1465c-0.1953-0.1953-0.1953-0.5117,0-0.707l5.9131-5.9131
		c0.1953-0.1953,0.5117-0.1953,0.707,0s0.1953,0.5117,0,0.707l-5.9131,5.9131C8.8633,17.751,8.7354,17.7998,8.6074,17.7998z"/>
</g>
<rect y="0.0001" fill="none" width="24" height="24"/>
</svg>
