<?xml version="1.0" encoding="utf-8"?>
<!-- Generator: Adobe Illustrator 18.1.0, SVG Export Plug-In . SVG Version: 6.00 Build 0)  -->
<svg version="1.1" id="Layer_1" xmlns="http://www.w3.org/2000/svg" xmlns:xlink="http://www.w3.org/1999/xlink" x="0px" y="0px"
	 width="24px" height="24px" viewBox="0 0 24 24" enable-background="new 0 0 24 24" xml:space="preserve">
<g>
	<path d="M15.8604,19.7998c-0.1211-0.0244-0.2773-0.0605-0.3721-0.165c-0.8877-0.9873-2.1572-1.5527-3.4834-1.5527
		c-1.3252,0-2.5952,0.5654-3.4834,1.5527c-0.0947,0.1045-0.2563,0.1475-0.3716,0.165c-0.1387,0-0.271-0.0576-0.3657-0.1592
		l-7.3706-7.9111c-0.1768-0.1895-0.1792-0.4829-0.0059-0.6753C3.3643,7.77,7.5913,5.8867,12.0049,5.8867
		c4.4141,0,8.6416,1.8833,11.5977,5.1675c0.1738,0.1924,0.1719,0.4858-0.0049,0.6753l-7.3711,7.9111
		C16.1318,19.7422,15.999,19.7998,15.8604,19.7998z M1.4624,11.3882l6.6992,7.1909c1.0439-0.957,2.417-1.4971,3.8433-1.4971
		c1.4268,0,2.7998,0.54,3.8438,1.4971l6.7002-7.1909c-2.749-2.8662-6.5654-4.5015-10.5439-4.5015
		C8.0269,6.8867,4.2104,8.522,1.4624,11.3882z"/>
	<path d="M11.9805,22.8916c-0.7451,0-1.3516-0.6064-1.3516-1.3516s0.6064-1.3516,1.3516-1.3516s1.3516,0.6064,1.3516,1.3516
		S12.7256,22.8916,11.9805,22.8916z M11.9805,21.1885c-0.1938,0-0.3516,0.1572-0.3516,0.3516s0.1577,0.3516,0.3516,0.3516
		c0.1943,0,0.3516-0.1572,0.3516-0.3516S12.1748,21.1885,11.9805,21.1885z"/>
	<path d="M11.5845,21.2861c-0.1572,0-0.312-0.0742-0.4097-0.2119l-6.48-9.2153c-0.1587-0.2261-0.1045-0.5376,0.1216-0.6968
		c0.2256-0.1597,0.5376-0.1045,0.6968,0.1216l6.48,9.2144c0.1582,0.2266,0.1045,0.5381-0.1216,0.6973
		C11.7842,21.2568,11.6836,21.2861,11.5845,21.2861z"/>
	<path d="M12.4873,14.9082c-0.2764,0-0.5-0.2236-0.5-0.5V4.6729c0-0.2764,0.2236-0.5,0.5-0.5s0.5,0.2236,0.5,0.5v9.7354
		C12.9873,14.6846,12.7637,14.9082,12.4873,14.9082z"/>
	<path d="M12.4873,5.5127c-0.2764,0-0.5-0.2236-0.5-0.5c0-1.606-1.3066-2.9126-2.9131-2.9126S6.1611,3.4067,6.1611,5.0127
		c0,0.2764-0.2236,0.5-0.5,0.5s-0.5-0.2236-0.5-0.5c0-2.1572,1.7554-3.9126,3.9131-3.9126s3.9131,1.7554,3.9131,3.9126
		C12.9873,5.2891,12.7637,5.5127,12.4873,5.5127z"/>
	<path d="M19.3125,5.5127c-0.2764,0-0.5-0.2236-0.5-0.5c0-1.606-1.3066-2.9126-2.9121-2.9126c-1.6064,0-2.9131,1.3066-2.9131,2.9126
		c0,0.2764-0.2236,0.5-0.5,0.5s-0.5-0.2236-0.5-0.5c0-2.1572,1.7559-3.9126,3.9131-3.9126s3.9121,1.7554,3.9121,3.9126
		C19.8125,5.2891,19.5889,5.5127,19.3125,5.5127z"/>
</g>
<rect x="-0.0136" fill="none" width="24" height="24"/>
</svg>
