<?xml version="1.0" encoding="utf-8"?>
<!-- Generator: Adobe Illustrator 18.1.0, SVG Export Plug-In . SVG Version: 6.00 Build 0)  -->
<svg version="1.1" id="Layer_1" xmlns="http://www.w3.org/2000/svg" xmlns:xlink="http://www.w3.org/1999/xlink" x="0px" y="0px"
	 width="24px" height="24px" viewBox="0 0 24 24" enable-background="new 0 0 24 24" xml:space="preserve">
<g>
	<path d="M20.1475,13h-3.3193C16.3789,13,16,12.6377,16,12.209V7.748C16,7.3286,16.3633,7,16.8281,7h3.3193
		C20.626,7,21,7.3286,21,7.748v4.4609C21,12.6377,20.6094,13,20.1475,13z M17,12h3V8h-3V12z"/>
	<path d="M10.4761,17H3.5728c-0.2764,0-0.5-0.2236-0.5-0.5s0.2236-0.5,0.5-0.5h6.9033c0.2764,0,0.5,0.2236,0.5,0.5
		S10.7524,17,10.4761,17z"/>
	<path d="M10.4761,14H3.5728c-0.2764,0-0.5-0.2236-0.5-0.5s0.2236-0.5,0.5-0.5h6.9033c0.2764,0,0.5,0.2236,0.5,0.5
		S10.7524,14,10.4761,14z"/>
	<path d="M6.5312,11H3.5728c-0.2764,0-0.5-0.2236-0.5-0.5s0.2236-0.5,0.5-0.5h2.9585c0.2764,0,0.5,0.2236,0.5,0.5
		S6.8076,11,6.5312,11z"/>
	<path d="M23.5,20h-23C0.2236,20,0,19.7764,0,19.5v-15C0,4.2236,0.2236,4,0.5,4h23C23.7764,4,24,4.2236,24,4.5v15
		C24,19.7764,23.7764,20,23.5,20z M1,19h22V5H1V19z"/>
</g>
<rect fill="none" width="24" height="24"/>
</svg>
