<?xml version="1.0" encoding="utf-8"?>
<!-- Generator: Adobe Illustrator 18.1.0, SVG Export Plug-In . SVG Version: 6.00 Build 0)  -->
<svg version="1.1" id="Layer_1" xmlns="http://www.w3.org/2000/svg" xmlns:xlink="http://www.w3.org/1999/xlink" x="0px" y="0px"
	 width="24px" height="24px" viewBox="0 0 24 24" enable-background="new 0 0 24 24" xml:space="preserve">
<g>
	<path d="M4.6958,8.6045c-0.1133,0-0.2236-0.0386-0.3125-0.1099C4.2798,8.4116,4.2134,8.291,4.1987,8.1592l-0.521-4.7271
		c-0.0303-0.2744,0.168-0.5215,0.4424-0.5518l12.4316-1.3706c0.1104-0.0093,0.2178,0.0122,0.3115,0.0684l3.415,2.0454
		c0.1348,0.0806,0.2246,0.2202,0.2402,0.377c0.0166,0.1562-0.042,0.3115-0.1572,0.4185l-2.8945,2.6821
		c-0.0781,0.0728-0.1787,0.1187-0.2852,0.1304L4.7505,8.6016C4.7324,8.6035,4.7139,8.6045,4.6958,8.6045z M4.7266,3.8198
		l0.4116,3.7329l11.77-1.2974l2.2842-2.1167l-2.6982-1.6162L4.7266,3.8198z"/>
	<path d="M6.4072,15.4902c-0.0918,0-0.1826-0.0254-0.2617-0.0742l-3.3926-2.082c-0.1338-0.082-0.2217-0.2227-0.2363-0.3789
		c-0.0146-0.1572,0.0454-0.3115,0.1621-0.417l2.9233-2.6514c0.0796-0.0718,0.1797-0.1162,0.2866-0.127L18.333,8.5244
		c0.2891-0.022,0.5205,0.1733,0.5469,0.4482l0.4707,4.7324c0.0137,0.1318-0.0264,0.2637-0.1104,0.3662
		c-0.084,0.1035-0.2051,0.168-0.3369,0.1807L6.4565,15.4883C6.4399,15.4893,6.4238,15.4902,6.4072,15.4902z M3.8442,12.8311
		l2.6812,1.6445l11.7812-1.1689l-0.3721-3.7378L6.1514,10.7388L3.8442,12.8311z"/>
	<path d="M11.4883,3.0039c-0.2764,0-0.5-0.2236-0.5-0.5V0.6353c0-0.2764,0.2236-0.5,0.5-0.5s0.5,0.2236,0.5,0.5v1.8687
		C11.9883,2.7803,11.7646,3.0039,11.4883,3.0039z"/>
	<path d="M11.4883,23.9609c-0.2764,0-0.5-0.2236-0.5-0.5v-6.7852c0-0.2764,0.2236-0.5,0.5-0.5s0.5,0.2236,0.5,0.5v6.7852
		C11.9883,23.7373,11.7646,23.9609,11.4883,23.9609z"/>
</g>
<rect x="-0.0136" y="0.0001" fill="none" width="24" height="24"/>
</svg>
