<?xml version="1.0" encoding="utf-8"?>
<!-- Generator: Adobe Illustrator 18.1.0, SVG Export Plug-In . SVG Version: 6.00 Build 0)  -->
<svg version="1.1" id="Layer_1" xmlns="http://www.w3.org/2000/svg" xmlns:xlink="http://www.w3.org/1999/xlink" x="0px" y="0px"
	 width="24px" height="24px" viewBox="0 0 24 24" enable-background="new 0 0 24 24" xml:space="preserve">
<g>
	<path d="M12.9932,14h-2.082C10.3916,14,10,13.6064,10,13.084V11.52c0-0.2764,0.2236-0.5,0.5-0.5s0.5,0.2236,0.5,0.5V13h1.9932
		c0.0039,0,0.0049,0,0.0068,0v-1.48c0-0.2764,0.2236-0.5,0.5-0.5s0.5,0.2236,0.5,0.5v1.564C14,13.5801,13.5391,14,12.9932,14z"/>
	<path d="M17.5,6h-11C6.2236,6,6,5.7764,6,5.5V3.3413L5.7339,3.1504C5.5991,3.0542,5.521,2.897,5.5249,2.7314
		c0.0044-0.166,0.0903-0.3188,0.23-0.4082L6,2.166V1.5C6,1.2236,6.2236,1,6.5,1h11C17.7764,1,18,1.2236,18,1.5v0.6665l0.2451,0.1567
		c0.1387,0.0898,0.2246,0.2422,0.2295,0.4082c0.0039,0.1655-0.0742,0.3223-0.209,0.4189L18,3.3413V5.5C18,5.7764,17.7764,6,17.5,6z
		 M7,5h10V3.0845c0-0.1191,0.043-0.2334,0.1182-0.3223C17.043,2.6729,17,2.5591,17,2.4395V2H7v0.4395
		c0,0.1196-0.043,0.2334-0.1177,0.3223C6.9575,2.8511,7,2.9653,7,3.0845V5z"/>
	<path d="M19.1592,12H4.8506c-0.2954,0-0.4814-0.124-0.5854-0.228C3.999,11.5054,3.9995,11.1328,4,10.8037V6.269
		C3.9995,5.8892,3.999,5.5015,4.2725,5.228C4.3765,5.124,4.561,5,4.8506,5h14.3086c0.2891,0,0.4727,0.123,0.5752,0.2266
		C20.0029,5.4956,20.001,5.8726,20,6.2051v4.5605c0.001,0.3833,0.0029,0.7456-0.2588,1.0078C19.6387,11.8765,19.4531,12,19.1592,12z
		 M19.1592,11v0.5l0.002-0.5C19.1602,11,19.1602,11,19.1592,11z M5.0024,11H18.999C19.001,10.9443,19,10.8823,19,10.833V6.269
		C19,6.1699,19.001,6.0747,18.998,6H5.0034C5,6.0732,5,6.1616,5,6.2295v4.5361C5,10.8457,5,10.9312,5.0024,11z"/>
	<path d="M15.5,4.5C15.2236,4.5,15,4.2764,15,4V3c0-0.2764,0.2236-0.5,0.5-0.5S16,2.7236,16,3v1C16,4.2764,15.7764,4.5,15.5,4.5z"/>
	<path d="M8.5,4.5C8.2236,4.5,8,4.2764,8,4V3c0-0.2764,0.2236-0.5,0.5-0.5S9,2.7236,9,3v1C9,4.2764,8.7764,4.5,8.5,4.5z"/>
	<path d="M12.0049,23.9658c-0.2764,0-0.5-0.2236-0.5-0.5v-9.9697c0-0.2764,0.2236-0.5,0.5-0.5s0.5,0.2236,0.5,0.5v9.9697
		C12.5049,23.7422,12.2812,23.9658,12.0049,23.9658z"/>
</g>
<rect fill="none" width="24" height="24"/>
</svg>
