<?xml version="1.0" encoding="utf-8"?>
<!-- Generator: Adobe Illustrator 18.1.0, SVG Export Plug-In . SVG Version: 6.00 Build 0)  -->
<svg version="1.1" id="Layer_1" xmlns="http://www.w3.org/2000/svg" xmlns:xlink="http://www.w3.org/1999/xlink" x="0px" y="0px"
	 width="24px" height="24px" viewBox="0 0 24 24" enable-background="new 0 0 24 24" xml:space="preserve">
<g>
	<path d="M4.5903,4.7446c-0.293,0-0.5762-0.0356-0.8491-0.1069C2.4536,4.3003,1.8979,3.2783,1.875,3.2354L0.7764,0.9668
		c-0.1201-0.2485-0.0161-0.5474,0.2324-0.668c0.2515-0.1187,0.5479-0.0156,0.668,0.2324l1.0898,2.2515
		c0.0049,0.0078,0.3813,0.6733,1.2451,0.8916c0.8481,0.2158,1.877-0.0625,3.063-0.8228c0.6841-0.4385,1.3662-0.5693,2.0225-0.3911
		C10.251,2.7734,10.8613,3.9497,10.8867,4c0.125,0.2461,0.0269,0.5469-0.2192,0.6724c-0.2461,0.1226-0.5469,0.0273-0.6724-0.2192
		C9.9917,4.4468,9.5547,3.6177,8.8306,3.4243c-0.3774-0.1035-0.7759-0.0142-1.2168,0.269C6.522,4.3931,5.5088,4.7446,4.5903,4.7446z
		"/>
	<path d="M18.0996,23.8613c-1.8496,0-3.6143-0.9932-4.7197-2.6553l-4.7964-7.9639c-1.4526-2.5981-0.2861-6.0103,2.5928-7.6196
		c0.978-0.5464,2.0679-0.835,3.1509-0.835c2.0254,0,3.7793,0.9741,4.6914,2.6055l4.2656,8.2524
		c1.3193,2.9434,0.3711,5.9248-2.3467,7.4453C20.0225,23.6016,19.0674,23.8613,18.0996,23.8613z M14.3271,5.7876
		c-0.9131,0-1.834,0.2446-2.6631,0.708c-2.3975,1.3403-3.3916,4.1416-2.2158,6.2446l4.7764,7.9307
		c1.3994,2.1016,3.9863,2.7988,6.2246,1.5469c2.2754-1.2725,3.0352-3.6816,1.9346-6.1387l-4.2461-8.2124
		C17.4121,6.5703,15.9854,5.7876,14.3271,5.7876z"/>
	<path d="M14.5488,12.1582c-0.1748,0-0.3447-0.0928-0.4365-0.2568l-1.6709-2.9917c-0.1348-0.2407-0.0488-0.5454,0.1924-0.6802
		c0.2393-0.1333,0.5449-0.0493,0.6807,0.1929l1.6709,2.9917c0.1348,0.2407,0.0488,0.5454-0.1924,0.6807
		C14.7158,12.1377,14.6318,12.1582,14.5488,12.1582z"/>
</g>
<rect fill="none" width="24" height="24"/>
</svg>
