<?xml version="1.0" encoding="utf-8"?>
<!-- Generator: Adobe Illustrator 18.1.0, SVG Export Plug-In . SVG Version: 6.00 Build 0)  -->
<svg version="1.1" id="Layer_1" xmlns="http://www.w3.org/2000/svg" xmlns:xlink="http://www.w3.org/1999/xlink" x="0px" y="0px"
	 width="24px" height="24px" viewBox="0 0 24 24" enable-background="new 0 0 24 24" xml:space="preserve">
<g>
	<path d="M12.001,23.0078L12.001,23.0078c-1.5708,0-3.1553-0.5596-3.1553-1.8096V16.623c-0.5479-1.0098-1.9844-2.585-3.5029-4.248
		C2.8242,9.6147,0.2192,6.7607,0.2192,4.9795c0-2.1113,5.6147-3.958,11.7798-3.958S23.7783,2.8682,23.7783,4.896
		c0,1.8643-2.6045,4.7183-5.123,7.478c-1.5186,1.6641-2.9551,3.2383-3.5029,4.249v4.5752c0,0.3535-0.1465,1.0098-1.1279,1.4404
		C13.4824,22.877,12.7637,23.0078,12.001,23.0078z M11.999,2.0215c-6.5962,0-10.7798,2.0215-10.7798,2.8745
		c0,1.4771,2.6963,4.4312,4.8623,6.8047c1.6182,1.7729,3.1465,3.4478,3.7114,4.5767c0.0347,0.0693,0.0527,0.1455,0.0527,0.2236
		v4.6973c0,0.4395,0.9868,0.8096,2.1553,0.8096l0,0c0.6182,0,1.209-0.1035,1.6221-0.2852c0.2412-0.1055,0.5293-0.2832,0.5293-0.5244
		V16.501c0-0.0781,0.0186-0.1543,0.0527-0.2236c0.5654-1.1289,2.0938-2.8037,3.7119-4.5771
		c2.166-2.3735,4.8613-5.3276,4.8613-6.7207C22.7783,4.043,18.5947,2.0215,11.999,2.0215z"/>
	<path d="M11.999,7.9526c-1.4902,0-8.9858-0.1167-10.2515-2.4214C1.6147,5.2891,1.7031,4.9854,1.9453,4.8521
		C2.186,4.7212,2.4907,4.8081,2.6245,5.0498C3.2197,6.1348,7.25,6.9526,11.999,6.9526c4.748,0,8.7783-0.8179,9.374-1.9028
		c0.1328-0.2427,0.4395-0.3286,0.6787-0.1978c0.2422,0.1333,0.3311,0.437,0.1982,0.6792
		C20.9844,7.8359,13.4883,7.9526,11.999,7.9526z"/>
</g>
<rect fill="none" width="24" height="24"/>
</svg>
