<?xml version="1.0" encoding="utf-8"?>
<!-- Generator: Adobe Illustrator 18.1.0, SVG Export Plug-In . SVG Version: 6.00 Build 0)  -->
<svg version="1.1" id="Layer_1" xmlns="http://www.w3.org/2000/svg" xmlns:xlink="http://www.w3.org/1999/xlink" x="0px" y="0px"
	 width="24px" height="24px" viewBox="0 0 24 24" enable-background="new 0 0 24 24" xml:space="preserve">
<g>
	<path d="M12,2.6099c-0.1304,0-0.25-0.0498-0.3501-0.1401C11.5498,2.3696,11.5,2.2397,11.5,2.1099s0.0498-0.2603,0.1499-0.3501
		c0.1899-0.1899,0.5103-0.1899,0.6997-0.0098C12.4502,1.8599,12.5,1.98,12.5,2.1099S12.4502,2.3696,12.3594,2.46
		C12.25,2.5601,12.1299,2.6099,12,2.6099z"/>
	<path d="M12,20.748c-2.5449,0-5.2837-0.665-5.2837-2.124c0-0.9561,1.2314-1.6855,3.3208-1.9863V2.1221
		c0-1.0825,0.8804-1.9629,1.9629-1.9629c1.082,0,1.9629,0.8804,1.9629,1.9629v14.5156c2.0889,0.3008,3.3203,1.0303,3.3203,1.9863
		C17.2832,20.083,14.5449,20.748,12,20.748z M12,1.1592c-0.5308,0-0.9629,0.4321-0.9629,0.9629v14.9561
		c0,0.2549-0.1924,0.4697-0.4458,0.4971c-2.0479,0.2236-2.875,0.832-2.875,1.0488c0,0.3262,1.501,1.124,4.2837,1.124
		c2.7822,0,4.2832-0.7979,4.2832-1.124c0-0.2168-0.8271-0.8252-2.874-1.0488c-0.2539-0.0273-0.4463-0.2422-0.4463-0.4971V2.1221
		C12.9629,1.5913,12.5312,1.1592,12,1.1592z"/>
	<path d="M12.002,23.8672c-2.9126,0-5.2822-2.375-5.2822-5.2939c0-0.2764,0.2236-0.5,0.5-0.5s0.5,0.2236,0.5,0.5
		c0,2.3682,1.9209,4.2939,4.2822,4.2939c2.3604,0,4.2812-1.9258,4.2812-4.2939c0-0.2764,0.2236-0.5,0.5-0.5s0.5,0.2236,0.5,0.5
		C17.2832,21.4922,14.9141,23.8672,12.002,23.8672z"/>
</g>
<rect y="0.0197" fill="none" width="24" height="24"/>
</svg>
