<?xml version="1.0" encoding="utf-8"?>
<!-- Generator: Adobe Illustrator 18.1.0, SVG Export Plug-In . SVG Version: 6.00 Build 0)  -->
<svg version="1.1" id="Layer_1" xmlns="http://www.w3.org/2000/svg" xmlns:xlink="http://www.w3.org/1999/xlink" x="0px" y="0px"
	 width="24px" height="24px" viewBox="0 0 24 24" enable-background="new 0 0 24 24" xml:space="preserve">
<g>
	<path d="M22.4473,2.0098h-3.7705c-0.2764,0-0.5-0.2236-0.5-0.5s0.2236-0.5,0.5-0.5h3.7705c0.2764,0,0.5,0.2236,0.5,0.5
		S22.7236,2.0098,22.4473,2.0098z"/>
	<path d="M22.4473,5.0098h-3.7705c-0.2764,0-0.5-0.2236-0.5-0.5s0.2236-0.5,0.5-0.5h3.7705c0.2764,0,0.5,0.2236,0.5,0.5
		S22.7236,5.0098,22.4473,5.0098z"/>
	<path d="M22.4473,8.0098h-3.7705c-0.2764,0-0.5-0.2236-0.5-0.5s0.2236-0.5,0.5-0.5h3.7705c0.2764,0,0.5,0.2236,0.5,0.5
		S22.7236,8.0098,22.4473,8.0098z"/>
	<path d="M22.4473,11.0098h-3.7705c-0.2764,0-0.5-0.2236-0.5-0.5s0.2236-0.5,0.5-0.5h3.7705c0.2764,0,0.5,0.2236,0.5,0.5
		S22.7236,11.0098,22.4473,11.0098z"/>
	<path d="M22.4473,14.0098h-3.7705c-0.2764,0-0.5-0.2236-0.5-0.5s0.2236-0.5,0.5-0.5h3.7705c0.2764,0,0.5,0.2236,0.5,0.5
		S22.7236,14.0098,22.4473,14.0098z"/>
	<path d="M22.4473,17.0098H1.5474c-0.2764,0-0.5-0.2236-0.5-0.5s0.2236-0.5,0.5-0.5h20.8999c0.2764,0,0.5,0.2236,0.5,0.5
		S22.7236,17.0098,22.4473,17.0098z"/>
	<path d="M22.4473,20.0098H1.5474c-0.2764,0-0.5-0.2236-0.5-0.5s0.2236-0.5,0.5-0.5h20.8999c0.2764,0,0.5,0.2236,0.5,0.5
		S22.7236,20.0098,22.4473,20.0098z"/>
	<path d="M22.4473,23.0098H1.5474c-0.2764,0-0.5-0.2236-0.5-0.5s0.2236-0.5,0.5-0.5h20.8999c0.2764,0,0.5,0.2236,0.5,0.5
		S22.7236,23.0098,22.4473,23.0098z"/>
	<path d="M15.875,14.001H2.1313c-0.5801,0-1.1284-0.5195-1.1284-1.0693V2.0703c0-0.5498,0.5483-1.0698,1.1284-1.0698H15.875
		c0.5801,0,1.1279,0.52,1.1279,1.0698v10.8613C17.0029,13.4814,16.4551,14.001,15.875,14.001z M15.8721,2.0005H2.1313
		c-0.0381,0.0039-0.1172,0.063-0.1328,0.1006l0.0044,10.8306c0.0112,0.0059,0.0908,0.0654,0.1309,0.0693H15.873
		c0.041-0.0049,0.1191-0.0635,0.1348-0.1006L16.0029,2.0703C15.9922,2.064,15.9121,2.0044,15.8721,2.0005z"/>
	<path d="M5.1523,7.2324c-1.0503,0-1.9048-0.8545-1.9048-1.9048c0-1.0498,0.8545-1.9043,1.9048-1.9043s1.9048,0.8545,1.9048,1.9043
		C7.0571,6.3779,6.2026,7.2324,5.1523,7.2324z M5.1523,4.4233c-0.499,0-0.9048,0.4058-0.9048,0.9043
		c0,0.499,0.4058,0.9048,0.9048,0.9048s0.9048-0.4058,0.9048-0.9048C6.0571,4.8291,5.6514,4.4233,5.1523,4.4233z"/>
	<path d="M5.2944,14.001c-0.0869,0-0.1743-0.0225-0.2544-0.0703c-0.2378-0.1406-0.3159-0.4473-0.1753-0.6846l3.728-6.2886
		c0.0854-0.144,0.2373-0.2358,0.4048-0.2446C9.1699,6.709,9.3252,6.7808,9.4248,6.9146l1.3838,1.8677l1.9463-3.061
		c0.0889-0.1406,0.2432-0.2275,0.4092-0.2319c0.1631-0.0059,0.3252,0.0757,0.4209,0.2109l3.3262,4.6953
		c0.1592,0.2256,0.1064,0.5376-0.1191,0.6973c-0.2236,0.1577-0.5371,0.1069-0.6973-0.1191l-2.8955-4.0879l-1.9375,3.0469
		c-0.0884,0.1392-0.2393,0.2256-0.4043,0.2314c-0.1733,0.0142-0.3213-0.0693-0.4194-0.2017L9.0693,8.1147l-3.3442,5.6411
		C5.6318,13.9131,5.4653,14.001,5.2944,14.001z"/>
</g>
<rect y="0.0011" fill="none" width="24" height="24"/>
</svg>
