<?xml version="1.0" encoding="utf-8"?>
<!-- Generator: Adobe Illustrator 18.1.0, SVG Export Plug-In . SVG Version: 6.00 Build 0)  -->
<svg version="1.1" id="Layer_1" xmlns="http://www.w3.org/2000/svg" xmlns:xlink="http://www.w3.org/1999/xlink" x="0px" y="0px"
	 width="24px" height="24px" viewBox="0 0 24 24" enable-background="new 0 0 24 24" xml:space="preserve">
<g>
	<path d="M18.7461,17.0879c-0.9521,0-1.9424-0.3994-2.9922-0.8223c-1.2041-0.4854-2.4492-0.9873-3.8022-0.9873
		c-1.3662,0-2.6851,0.5342-3.8486,1.0049c-1.0215,0.4141-1.9858,0.8047-2.8784,0.8047c-2.8027,0-5.0825-2.2803-5.0825-5.082
		c0-2.8022,2.2798-5.082,5.0825-5.082c0.9136,0,1.8892,0.3877,2.9214,0.7983c1.209,0.4805,2.4595,0.9775,3.8057,0.9775
		c1.3784,0,2.6294-0.4961,3.8394-0.9761c1.0371-0.4111,2.0166-0.7998,2.9551-0.7998c2.8018,0,5.082,2.2798,5.082,5.082
		C23.8281,14.8076,21.5479,17.0879,18.7461,17.0879z M11.9517,14.2783c1.5474,0,2.9438,0.5635,4.1763,1.0596
		c0.957,0.3857,1.8604,0.75,2.6182,0.75c2.251,0,4.082-1.8311,4.082-4.082s-1.8311-4.082-4.082-4.082
		c-0.7471,0-1.6406,0.3545-2.5869,0.7295c-1.2363,0.4902-2.6387,1.0464-4.2075,1.0464c-1.5376,0-2.939-0.5571-4.1748-1.0483
		c-0.9414-0.374-1.8301-0.7275-2.5522-0.7275c-2.251,0-4.0825,1.8311-4.0825,4.082s1.8315,4.082,4.0825,4.082
		c0.6978,0,1.5747-0.3555,2.5029-0.7314C8.9756,14.8516,10.3906,14.2783,11.9517,14.2783z"/>
	<path d="M18.7461,14.5684c-1.4131,0-2.5625-1.1494-2.5625-2.5625s1.1494-2.5625,2.5625-2.5625
		c1.4121,0,2.5615,1.1494,2.5615,2.5625S20.1582,14.5684,18.7461,14.5684z M18.7461,10.4434c-0.8613,0-1.5625,0.7012-1.5625,1.5625
		s0.7012,1.5625,1.5625,1.5625s1.5615-0.7012,1.5615-1.5625S19.6074,10.4434,18.7461,10.4434z"/>
	<path d="M5.2246,14.5684c-1.4126,0-2.562-1.1494-2.562-2.5625c0-1.4126,1.1494-2.562,2.562-2.562s2.562,1.1494,2.562,2.562
		C7.7866,13.4189,6.6372,14.5684,5.2246,14.5684z M5.2246,10.4438c-0.8613,0-1.562,0.7007-1.562,1.562s0.7007,1.5625,1.562,1.5625
		s1.562-0.7012,1.562-1.5625S6.0859,10.4438,5.2246,10.4438z"/>
</g>
<rect x="-0.0137" y="0.0002" fill="none" width="24" height="24"/>
</svg>
