<?xml version="1.0" encoding="utf-8"?>
<!-- Generator: Adobe Illustrator 18.1.0, SVG Export Plug-In . SVG Version: 6.00 Build 0)  -->
<svg version="1.1" id="Layer_1" xmlns="http://www.w3.org/2000/svg" xmlns:xlink="http://www.w3.org/1999/xlink" x="0px" y="0px"
	 width="24px" height="24px" viewBox="0 0 24 24" enable-background="new 0 0 24 24" xml:space="preserve">
<g>
	<path d="M7.5322,1.8633c-0.2764,0-0.5-0.2236-0.5-0.5V1.2051c0-0.3247,0-1.0845,4.9531-1.0854c0.0044,0,0.0093,0,0.0137,0
		c1.2051,0,2.3408,0.062,3.2002,0.1743c1.1016,0.144,1.7393,0.3389,1.7393,0.9082v0.1582c0,0.2764-0.2236,0.5-0.5,0.5
		c-0.2441,0-0.4482-0.1758-0.4912-0.4077c-0.4463-0.1387-1.8057-0.333-3.9478-0.333c-0.0049,0-0.0093,0-0.0142,0
		C9.8345,1.1201,8.4712,1.3159,8.0239,1.4551C7.981,1.6875,7.7769,1.8633,7.5322,1.8633z"/>
	<path d="M11.9595,7.939c-0.0005,0-0.0005,0-0.001,0c-4.9238,0-4.9238-0.2368-4.9248-0.7549l-0.001-4.2529
		c0-0.2246,0.1499-0.4219,0.3662-0.4819C8.2729,2.2065,9.9922,2.062,11.998,2.062c1.9932,0,3.7031,0.1436,4.5732,0.3843
		c0.2168,0.0601,0.3672,0.2568,0.3672,0.4819l0.002,4.2524c0,0.5967-0.667,0.6309-1.877,0.6929
		C14.2422,7.9155,13.1396,7.939,11.9595,7.939z M8.0337,6.8086c0.5845,0.0693,1.9805,0.1304,3.9248,0.1304c0.0005,0,0.001,0,0.001,0
		c1.9116,0,3.3755-0.062,3.981-0.1333l-0.002-3.479C15.0723,3.1611,13.6201,3.062,11.998,3.062
		c-1.6338,0-3.0947,0.1001-3.9653,0.2671L8.0337,6.8086z"/>
	<path d="M12.0098,23.8701c-0.6392,0-1.2534-0.2305-1.7344-0.6416c-0.3179,0.0771-0.6792,0.041-0.937-0.0703
		c-0.2871-0.126-0.4585-0.3633-0.4585-0.6348l-0.001-3.2939c0-0.2432,0.1748-0.4512,0.4146-0.4922
		c1.5537-0.2705,1.5801-5.7344,1.1025-9.5283c-0.0347-0.2739,0.1597-0.5239,0.4336-0.5586
		c0.2798-0.0327,0.5244,0.1597,0.5586,0.4336c0.2017,1.6021,1.0288,9.3086-1.5093,10.5078l0.001,2.6768
		c0.0742,0,0.1528-0.0039,0.1909-0.0215c0.0986-0.0918,0.2192-0.123,0.3511-0.1221c0.1343,0.0078,0.2466,0.0781,0.3359,0.1787
		c0.3179,0.3604,0.7744,0.5664,1.2529,0.5664c0.001,0,0.001,0,0.002,0c0.4746,0,0.9287-0.2021,1.2451-0.5547
		c0.1768-0.1953,0.4707-0.2217,0.6777-0.0615c0.0283,0.0117,0.1064,0.0156,0.1787,0.0117l-0.001-2.6826
		c-2.5195-1.2217-1.7002-8.9009-1.5-10.4995c0.0342-0.2749,0.2861-0.4663,0.5586-0.4341c0.2734,0.0342,0.4678,0.2842,0.4336,0.5581
		c-0.4746,3.7944-0.4434,9.2593,1.1094,9.5288c0.2041,0.0352,0.3652,0.1924,0.4043,0.3965
		c0.0146,0.0742,0.0127,0.1494-0.0059,0.2197l0.001,3.1689c0,0.2598-0.1523,0.4834-0.418,0.6143
		c-0.25,0.1221-0.6211,0.1699-0.9512,0.0977c-0.4805,0.4082-1.0938,0.6367-1.7314,0.6367
		C12.0127,23.8701,12.0107,23.8701,12.0098,23.8701z"/>
	<path d="M12.0049,22.2363c-0.8286,0-1.5029-0.6738-1.5029-1.502s0.6743-1.502,1.5029-1.502c0.8281,0,1.502,0.6738,1.502,1.502
		S12.833,22.2363,12.0049,22.2363z M12.0049,20.2324c-0.2773,0-0.5029,0.2256-0.5029,0.502s0.2256,0.502,0.5029,0.502
		c0.2764,0,0.502-0.2256,0.502-0.502S12.2812,20.2324,12.0049,20.2324z"/>
	<path d="M11.9917,6.7656c-0.6636,0-1.2031-0.5396-1.2031-1.2031s0.5396-1.2031,1.2031-1.2031s1.2036,0.5396,1.2036,1.2031
		S12.6553,6.7656,11.9917,6.7656z M11.9917,5.3594c-0.1118,0-0.2031,0.0913-0.2031,0.2031c0,0.2236,0.4067,0.2236,0.4067,0
		C12.1953,5.4507,12.1035,5.3594,11.9917,5.3594z"/>
</g>
<rect x="-0.0136" fill="none" width="24" height="24"/>
</svg>
