<?xml version="1.0" encoding="utf-8"?>
<!-- Generator: Adobe Illustrator 18.1.0, SVG Export Plug-In . SVG Version: 6.00 Build 0)  -->
<svg version="1.1" id="Layer_1" xmlns="http://www.w3.org/2000/svg" xmlns:xlink="http://www.w3.org/1999/xlink" x="0px" y="0px"
	 width="24px" height="24px" viewBox="0 0 24 24" enable-background="new 0 0 24 24" xml:space="preserve">
<g>
	<path d="M3.562,23.7539c0,0,0,0-0.0005,0c-1.3716,0-2.3135-1.0098-2.353-1.0527c-0.0166-0.0127-1.1392-1.0586-0.9492-2.5645
		c0.1611-1.2803,1.2046-2.4414,3.1006-3.4521C8.8647,13.751,9.6807,6.5547,9.6885,6.4824C9.686,6.3726,9.7324,2.5811,12.9854,0.6724
		c0.4375-0.2573,0.9404-0.3877,1.4922-0.3877c2.7061,0,5.9141,3.1768,6.0488,3.312c0.1855,0.1855,4.5205,4.5732,2.833,7.4502
		c-1.9092,3.252-5.7002,3.2998-5.8613,3.2998c-0.0215,0.0049-7.2178,0.8203-10.1514,6.3252
		C6.2563,22.7168,4.9829,23.7539,3.562,23.7539z M14.4775,1.2847c-0.377,0-0.6992,0.082-0.9863,0.25
		c-2.7656,1.623-2.8057,4.9673-2.8057,5.0005c-0.0356,0.3672-0.8745,7.8447-6.855,11.0322c-1.5654,0.834-2.457,1.7627-2.5781,2.6855
		c-0.1299,0.9893,0.6558,1.7354,0.6641,1.7432c0.0342,0.0352,0.7212,0.7578,1.645,0.7578c0.0005,0,0.0005,0,0.0005,0
		c1.0083,0,2.0117-0.8828,2.9019-2.5527c3.188-5.9805,10.665-6.8193,10.9814-6.8516c0.083-0.0029,3.4365-0.0576,5.0508-2.8086
		c1.0801-1.8403-1.5664-5.1265-2.6768-6.2373C19.7891,4.2739,16.7695,1.2847,14.4775,1.2847z"/>
	<path d="M3.5273,22.0381c-0.8735,0-1.5845-0.7109-1.5845-1.584s0.7109-1.584,1.5845-1.584s1.584,0.7109,1.584,1.584
		S4.4009,22.0381,3.5273,22.0381z M3.5273,19.8701c-0.3223,0-0.5845,0.2617-0.5845,0.584s0.2622,0.584,0.5845,0.584
		c0.3218,0,0.584-0.2617,0.584-0.584S3.8491,19.8701,3.5273,19.8701z"/>
	<path d="M17.0479,12.4346c-0.001,0-0.001,0-0.001,0c-0.5,0-0.8799-0.1406-1.1299-0.418c-0.1787-0.1978-0.1709-0.5005,0.0176-0.6885
		c0.0361-0.0356,0.0469-0.2026-0.0752-0.498c-0.4736-1.1431-2.2207-2.7183-3.0156-2.7183c-0.0508,0-0.084,0.0083-0.1006,0.0244
		c-0.1914,0.1914-0.502,0.1973-0.6982,0.0122c-0.8809-0.8311,0.0215-3.334,0.4512-4.3716c0.0127-0.0405,0.5957-1.7046,2.1973-1.7046
		c0.5898,0,1.2266,0.2378,1.8936,0.7075c0.1201,0.085,0.1973,0.2188,0.21,0.3657c0.0078,0.0854-0.0068,0.1699-0.041,0.2466
		c0.2207,0.8091,3.1143,3.7021,3.9219,3.9229c0.0781-0.0337,0.1621-0.0488,0.2471-0.0415c0.1465,0.0127,0.2812,0.0894,0.3662,0.21
		c0.6465,0.9185,0.8438,1.7612,0.5859,2.5054c-0.3877,1.1157-1.6592,1.5059-1.7129,1.5215
		C20.165,11.5181,18.3047,12.4346,17.0479,12.4346z M16.9414,11.4312c0.0322,0.0024,0.0674,0.0034,0.1055,0.0034h0.001
		c0.8477,0,2.2734-0.6143,2.751-0.8511c0.0859-0.0332,0.9189-0.2964,1.1348-0.9263c0.124-0.3633,0.0264-0.8115-0.2891-1.3359
		c-1.2246-0.1421-4.2764-3.2607-4.792-4.5054c-0.0615-0.147-0.0928-0.2764-0.1035-0.3901
		c-0.3906-0.2349-0.7441-0.3535-1.0557-0.3535c-0.8936,0-1.2578,1.0454-1.2617,1.0562c-0.4785,1.1611-0.7891,2.4131-0.7725,2.9966
		c1.2715-0.1899,3.5049,1.8271,4.124,3.3228C16.9521,10.8564,16.9805,11.1802,16.9414,11.4312z"/>
</g>
<rect y="0.0197" fill="none" width="24" height="24"/>
</svg>
