<?xml version="1.0" encoding="utf-8"?>
<!-- Generator: Adobe Illustrator 18.1.0, SVG Export Plug-In . SVG Version: 6.00 Build 0)  -->
<svg version="1.1" id="Layer_1" xmlns="http://www.w3.org/2000/svg" xmlns:xlink="http://www.w3.org/1999/xlink" x="0px" y="0px"
	 width="24px" height="24px" viewBox="0 0 24 24" enable-background="new 0 0 24 24" xml:space="preserve">
<g>
	<path d="M17.0576,24.0234H6.8594c-1.686,0-3.1499-1.1133-3.6421-2.7695c-0.3813-1.2842-0.1621-3.0605,1.5503-4.2842
		c0.4956-2.5693,2.5679-4.4121,5.0024-4.4121c1.1191,0,2.1816,0.3906,3.0864,1.1318c1.917-0.168,3.4951,0.8486,4.1553,2.5303
		c0.0078,0,0.0156,0,0.0244,0c2.1631,0,3.9922,1.7871,3.9932,3.9014C21.0293,22.2363,19.2109,24.0234,17.0576,24.0234z
		 M9.77,13.5576c-1.7207,0-3.665,1.2998-4.0522,3.7832c-0.022,0.1396-0.1021,0.2646-0.2212,0.3418
		c-1.2051,0.7852-1.6987,2.0137-1.3208,3.2861c0.3042,1.0225,1.2515,2.0547,2.6836,2.0547h10.1982
		c1.6104,0,2.9717-1.3291,2.9717-2.9023c-0.001-1.6758-1.5537-3.0596-3.3174-2.8848c-0.2363,0.0283-0.4639-0.126-0.5312-0.3574
		c-0.3398-1.1699-1.4697-2.4287-3.4209-2.1729c-0.1436,0.0186-0.2881-0.0264-0.3965-0.1221
		C11.6089,13.9121,10.7119,13.5576,9.77,13.5576z"/>
	<path d="M22.5215,21.9746c-0.2764,0-0.5-0.2236-0.5-0.5s0.2236-0.5,0.5-0.5c0.2451,0,0.4453-0.2021,0.4453-0.4502V3.5054
		c0-0.2485-0.2002-0.4507-0.4453-0.4507H6.4375c-0.1968,0-0.3755-0.1157-0.4561-0.2949C5.627,1.9722,5.1499,1.1846,4.9292,1.0146
		H1.4321c-0.2456,0-0.4458,0.2021-0.4458,0.4507v19.0591c0,0.248,0.2002,0.4502,0.4458,0.4502c0.2764,0,0.5,0.2236,0.5,0.5
		s-0.2236,0.5-0.5,0.5c-0.7974,0-1.4458-0.6504-1.4458-1.4502V1.4653c0-0.7998,0.6484-1.4507,1.4458-1.4507h3.5674
		c0.1997,0,0.7891,0,1.7578,2.04h15.7642c0.7969,0,1.4453,0.6509,1.4453,1.4507v17.019
		C23.9668,21.3242,23.3184,21.9746,22.5215,21.9746z"/>
	<path d="M23.4668,7.0254H0.4863c-0.2764,0-0.5-0.2236-0.5-0.5s0.2236-0.5,0.5-0.5h22.9805c0.2764,0,0.5,0.2236,0.5,0.5
		S23.7432,7.0254,23.4668,7.0254z"/>
</g>
<rect y="0.0001" fill="none" width="24" height="24"/>
</svg>
