<?xml version="1.0" encoding="utf-8"?>
<!-- Generator: Adobe Illustrator 18.1.0, SVG Export Plug-In . SVG Version: 6.00 Build 0)  -->
<svg version="1.1" id="Layer_1" xmlns="http://www.w3.org/2000/svg" xmlns:xlink="http://www.w3.org/1999/xlink" x="0px" y="0px"
	 width="24px" height="24px" viewBox="0 0 24 24" enable-background="new 0 0 24 24" xml:space="preserve">
<g>
	<path d="M23.5,24h-23C0.2236,24,0,23.7764,0,23.5v-23C0,0.2236,0.2236,0,0.5,0h23C23.7764,0,24,0.2236,24,0.5v23
		C24,23.7764,23.7764,24,23.5,24z M1,23h22V1H1V23z"/>
	<path d="M12.334,12.8994c-0.1289,0-0.2559-0.0498-0.3525-0.1455L6.1968,7.0088C6.001,6.814,6,6.4976,6.1943,6.3013
		C6.3906,6.1055,6.7061,6.105,6.9019,6.2988l5.5142,5.4775l3.1855-1.8198c0.2363-0.1367,0.5439-0.0557,0.6826,0.186
		c0.1367,0.2397,0.0537,0.5454-0.1865,0.6821L12.582,12.834C12.5049,12.8779,12.4189,12.8994,12.334,12.8994z"/>
	<path d="M20.2979,13.165c-0.7275,0-1.3203-0.5918-1.3203-1.3198s0.5928-1.3203,1.3203-1.3203s1.3203,0.5923,1.3203,1.3203
		S21.0254,13.165,20.2979,13.165z M20.2979,11.5249c-0.1768,0-0.3203,0.1436-0.3203,0.3203c0,0.1763,0.1436,0.3198,0.3203,0.3198
		s0.3203-0.1436,0.3203-0.3198C20.6182,11.6685,20.4746,11.5249,20.2979,11.5249z"/>
	<path d="M3.7026,13.165c-0.728,0-1.3203-0.5918-1.3203-1.3198s0.5923-1.3203,1.3203-1.3203c0.7275,0,1.3198,0.5923,1.3198,1.3203
		S4.4302,13.165,3.7026,13.165z M3.7026,11.5249c-0.1768,0-0.3203,0.1436-0.3203,0.3203c0,0.1763,0.1436,0.3198,0.3203,0.3198
		c0.1763,0,0.3198-0.1436,0.3198-0.3198C4.0225,11.6685,3.8789,11.5249,3.7026,11.5249z"/>
	<path d="M11.9917,4.9058c-0.728,0-1.3203-0.5923-1.3203-1.3203c0-0.7275,0.5923-1.3198,1.3203-1.3198s1.3198,0.5923,1.3198,1.3198
		C13.3115,4.3135,12.7197,4.9058,11.9917,4.9058z M11.9917,3.2656c-0.1768,0-0.3203,0.1436-0.3203,0.3198
		c0,0.1768,0.1436,0.3203,0.3203,0.3203c0.1763,0,0.3198-0.1436,0.3198-0.3203C12.3115,3.4092,12.168,3.2656,11.9917,3.2656z"/>
	<path d="M11.9917,21.4863c-0.728,0-1.3203-0.5928-1.3203-1.3203s0.5923-1.3203,1.3203-1.3203s1.3198,0.5928,1.3198,1.3203
		S12.7197,21.4863,11.9917,21.4863z M11.9917,19.8457c-0.1768,0-0.3203,0.1436-0.3203,0.3203s0.1436,0.3203,0.3203,0.3203
		c0.1763,0,0.3198-0.1436,0.3198-0.3203S12.168,19.8457,11.9917,19.8457z"/>
	<path d="M7.79,5.2197c-0.1304,0-0.2603-0.0601-0.3501-0.1499C7.3398,4.9697,7.29,4.8496,7.29,4.7197S7.3398,4.46,7.4297,4.3696
		c0.21-0.1997,0.52-0.1899,0.71-0.0098C8.2397,4.46,8.29,4.5898,8.29,4.7197s-0.0503,0.25-0.1401,0.3501
		C8.0498,5.1597,7.9199,5.2197,7.79,5.2197z"/>
	<path d="M7.79,19.54c-0.1304,0-0.2603-0.0498-0.3501-0.1504C7.3496,19.2998,7.29,19.1699,7.29,19.04s0.0596-0.2598,0.1499-0.3506
		c0.1797-0.1797,0.5098-0.1895,0.6997-0.0098C8.2397,18.7803,8.29,18.9102,8.29,19.04s-0.0503,0.2598-0.1401,0.3496
		C8.0498,19.4902,7.9199,19.54,7.79,19.54z"/>
	<path d="M16.1094,5.1699c-0.1299,0-0.2598-0.0503-0.3594-0.1499c-0.0898-0.0903-0.1406-0.2202-0.1406-0.3501
		s0.0508-0.2603,0.1504-0.3501c0.1699-0.1899,0.5098-0.1899,0.7002-0.0098c0.0996,0.1099,0.1494,0.23,0.1494,0.3599
		s-0.0498,0.25-0.1396,0.3501C16.3701,5.1196,16.2402,5.1699,16.1094,5.1699z"/>
	<path d="M16.1094,19.5898c-0.1299,0-0.2598-0.0596-0.3496-0.1504c-0.0996-0.0898-0.1504-0.2197-0.1504-0.3496
		s0.0508-0.2598,0.1406-0.3604c0.2002-0.1797,0.5303-0.1797,0.71,0c0.0996,0.1006,0.1494,0.2305,0.1494,0.3604
		s-0.0498,0.2598-0.1396,0.3496C16.3701,19.5303,16.2402,19.5898,16.1094,19.5898z"/>
	<path d="M19.1699,8.1997c-0.1201,0-0.25-0.0498-0.3506-0.1396c-0.0898-0.1001-0.1396-0.2202-0.1396-0.3604
		c0-0.1396,0.0498-0.27,0.1504-0.3599C19,7.1597,19.3398,7.1597,19.5303,7.3496c0.0898,0.0903,0.1494,0.2202,0.1494,0.3501
		S19.6201,7.96,19.5303,8.0498C19.4297,8.1499,19.3096,8.1997,19.1699,8.1997z"/>
	<path d="M19.1699,16.5693c-0.1299,0-0.2598-0.0498-0.3506-0.1396c-0.0898-0.0898-0.1396-0.2197-0.1396-0.3604
		c0-0.1299,0.0498-0.2598,0.1396-0.3496c0.2002-0.1895,0.5205-0.1797,0.7002,0c0.1006,0.0996,0.1602,0.2197,0.1602,0.3496
		c0,0.1406-0.0596,0.2705-0.1494,0.3604C19.4297,16.5195,19.3096,16.5693,19.1699,16.5693z"/>
	<path d="M4.7598,8.2798c-0.1299,0-0.2598-0.0601-0.3501-0.1499C4.3101,8.0298,4.2598,7.9097,4.2598,7.7798
		S4.3101,7.52,4.3999,7.4297c0.1997-0.1997,0.52-0.1899,0.71-0.0098C5.21,7.52,5.2598,7.6499,5.2598,7.7798
		S5.21,8.0298,5.1196,8.1299C5.02,8.2197,4.8896,8.2798,4.7598,8.2798z"/>
	<path d="M4.7598,16.5c-0.1299,0-0.25-0.0605-0.3501-0.1504C4.3101,16.2598,4.2598,16.1299,4.2598,16
		c0-0.1406,0.0601-0.2705,0.1499-0.3604c0.1899-0.1797,0.52-0.1797,0.7002,0C5.21,15.7402,5.2598,15.8594,5.2598,16
		c0,0.1299-0.0498,0.2598-0.1499,0.3496C5.02,16.4395,4.8896,16.5,4.7598,16.5z"/>
</g>
<rect fill="none" width="24" height="24"/>
</svg>
