<?xml version="1.0" encoding="utf-8"?>
<!-- Generator: Adobe Illustrator 18.1.0, SVG Export Plug-In . SVG Version: 6.00 Build 0)  -->
<svg version="1.1" id="Layer_1" xmlns="http://www.w3.org/2000/svg" xmlns:xlink="http://www.w3.org/1999/xlink" x="0px" y="0px"
	 width="24px" height="24px" viewBox="0 0 24 24" enable-background="new 0 0 24 24" xml:space="preserve">
<g>
	<path d="M18.4873,24.0371L18.4873,24.0371c-0.2764,0-0.5-0.2236-0.5-0.5l0.001-8.7979c0-0.2764,0.2236-0.5,0.5-0.5l0,0
		c0.2764,0,0.5,0.2236,0.5,0.5l-0.001,8.7979C18.9873,23.8135,18.7637,24.0371,18.4873,24.0371z"/>
	<path d="M18.4883,4.2773c-1.1797,0-1.9629-1.4658-1.9629-2.4355c0-1.082,0.8809-1.9624,1.9629-1.9624s1.9619,0.8804,1.9619,1.9624
		C20.4502,2.8115,19.668,4.2773,18.4883,4.2773z M18.4883,0.8794c-0.5312,0-0.9629,0.4316-0.9629,0.9624
		c0,0.5928,0.498,1.4355,0.9629,1.4355s0.9619-0.8428,0.9619-1.4355C19.4502,1.311,19.0186,0.8794,18.4883,0.8794z"/>
	<path d="M16.5947,24.0371c-0.2637,0-0.4844-0.2061-0.499-0.4727l-0.5771-10.4023l-0.001-3.9727l-1.0254,0.6982
		c-0.3809,0.2598-0.8447,0.3774-1.3066,0.3306l-3.603-0.3735C8.9458,9.7568,8.5083,9.2588,8.502,8.6309
		C8.4961,8.0044,8.9238,7.499,9.5425,7.4019l3.3198-0.377c0.1709-0.019,0.3311-0.0825,0.4658-0.1831
		c3.0225-2.2603,3.1289-2.2671,3.3203-2.2793c0.4521-0.0249,0.8799,0.2236,1.1035,0.6587c0.1396,0.2715,0.4717,0.3687,0.7354,0.3687
		l0,0c0.332,0,0.6201-0.1445,0.7363-0.3691c0.2227-0.4336,0.6533-0.6875,1.1016-0.6582l0.2959,0.0137
		c0.5498,0.0225,0.6631,0.0312,0.7578,0.0581c0.0674,0.019,0.1309,0.0522,0.1846,0.0967c0.2373,0.1968,0.8682,0.7192,0.5859,8.2866
		c-0.0059,0.1387-0.0898,0.3154-0.1934,0.4062c-0.1602,0.1387-0.3506,0.1514-0.5215,0.1514l-0.5557,9.9893
		c-0.0146,0.2754-0.2441,0.5059-0.5264,0.4717c-0.2764-0.0146-0.4873-0.251-0.4717-0.5264l0.5781-10.4023
		c0.0068-0.1357,0.0938-0.3145,0.1953-0.4023c0.1562-0.1357,0.3418-0.166,0.5107-0.1543c0.1709-5.062-0.1025-6.5522-0.2305-6.9619
		c-0.1025-0.0039-0.2354-0.0088-0.3545-0.0137l-0.3174-0.0146c-0.0811-0.0093-0.1396,0.0981-0.1504,0.1187
		c-0.29,0.562-0.9121,0.9106-1.625,0.9106c0,0,0,0-0.001,0c-0.7119,0-1.334-0.3491-1.623-0.9106
		c-0.0078-0.0151-0.04-0.0728-0.0889-0.1021c-0.29,0.1855-1.1592,0.8027-2.8467,2.0649c-0.2764,0.207-0.6055,0.3374-0.9521,0.3765
		l-3.2988,0.374C9.5347,8.415,9.501,8.5298,9.502,8.6211c0.001,0.0762,0.0278,0.207,0.2007,0.231l3.5854,0.3711
		c0.2266,0.0254,0.4541-0.0342,0.6416-0.1616l1.8066-1.231c0.1533-0.1035,0.3516-0.1157,0.5146-0.0288
		c0.1641,0.0864,0.2666,0.2563,0.2666,0.4419v4.8911l0.5762,10.375c0.0156,0.2754-0.1953,0.5117-0.4717,0.5264
		C16.6133,24.0371,16.6035,24.0371,16.5947,24.0371z"/>
	<path d="M10.1138,23.9951H4.918c-0.25,0-0.4614-0.1846-0.4956-0.4326L3.0386,13.4199c-0.0371-0.2734,0.1543-0.5254,0.4282-0.5625
		c0.27-0.0479,0.5254,0.1533,0.563,0.4277l1.3247,9.71h4.3228l1.3247-9.71c0.0371-0.2734,0.2852-0.4746,0.563-0.4277
		c0.2739,0.0371,0.4653,0.2891,0.4282,0.5625l-1.3838,10.1426C10.5752,23.8105,10.3638,23.9951,10.1138,23.9951z"/>
	<path d="M8.0962,11.6045c-0.0361,0-0.0732-0.0039-0.1104-0.0122l-1.3228-0.2974c-0.269-0.0605-0.4385-0.3281-0.3779-0.5977
		s0.3252-0.439,0.5977-0.3779l1.3228,0.2974c0.269,0.0605,0.4385,0.3281,0.3779,0.5977
		C8.5312,11.4468,8.3247,11.6045,8.0962,11.6045z"/>
	<path d="M6.6021,15.6611c-0.1079,0-0.2173-0.0352-0.3086-0.1074c-0.2173-0.1699-0.2544-0.4844-0.084-0.7021l0.9282-1.1797
		c0.1709-0.2158,0.4858-0.2549,0.7021-0.083c0.2173,0.1699,0.2544,0.4844,0.084,0.7021l-0.9282,1.1797
		C6.897,15.5957,6.75,15.6611,6.6021,15.6611z"/>
	<path d="M7.5303,19.3506c-0.1064,0-0.2139-0.0342-0.3047-0.1035l-1.2324-0.9492c-0.2188-0.1689-0.2593-0.4824-0.0908-0.7012
		c0.1675-0.2188,0.4819-0.2598,0.7012-0.0918l1.2324,0.9492c0.2188,0.1689,0.2593,0.4824,0.0908,0.7012
		C7.8286,19.2832,7.6802,19.3506,7.5303,19.3506z"/>
</g>
<rect x="-0.0137" y="0.0002" fill="none" width="24" height="24"/>
</svg>
