<?xml version="1.0" encoding="utf-8"?>
<!-- Generator: Adobe Illustrator 18.1.0, SVG Export Plug-In . SVG Version: 6.00 Build 0)  -->
<svg version="1.1" id="Layer_1" xmlns="http://www.w3.org/2000/svg" xmlns:xlink="http://www.w3.org/1999/xlink" x="0px" y="0px"
	 width="24px" height="24px" viewBox="0 0 24 24" enable-background="new 0 0 24 24" xml:space="preserve">
<g>
	<path d="M12.0039,23.834c-6.5117,0-11.8091-5.2979-11.8091-11.8105c0-6.5117,5.2974-11.8091,11.8091-11.8091
		s11.8086,5.2974,11.8086,11.8091C23.8125,18.5361,18.5156,23.834,12.0039,23.834z M12.0039,1.2144
		c-5.96,0-10.8091,4.8491-10.8091,10.8091c0,5.9609,4.8491,10.8105,10.8091,10.8105s10.8086-4.8496,10.8086-10.8105
		C22.8125,6.0635,17.9639,1.2144,12.0039,1.2144z"/>
	<path d="M8.561,11.9937c-1.3491,0-2.4463-1.0972-2.4463-2.4463S7.2119,7.1006,8.561,7.1006s2.4468,1.0977,2.4468,2.4468
		S9.9102,11.9937,8.561,11.9937z M8.561,8.1006c-0.7974,0-1.4463,0.6489-1.4463,1.4468c0,0.7974,0.6489,1.4463,1.4463,1.4463
		c0.7979,0,1.4468-0.6489,1.4468-1.4463C10.0078,8.7495,9.3589,8.1006,8.561,8.1006z"/>
	<path d="M15.4688,11.9937c-1.3496,0-2.4473-1.0972-2.4473-2.4463s1.0977-2.4468,2.4473-2.4468
		c1.3486,0,2.4463,1.0977,2.4463,2.4468S16.8174,11.9937,15.4688,11.9937z M15.4688,8.1006c-0.7979,0-1.4473,0.6489-1.4473,1.4468
		c0,0.7974,0.6494,1.4463,1.4473,1.4463s1.4463-0.6489,1.4463-1.4463C16.915,8.7495,16.2666,8.1006,15.4688,8.1006z"/>
	<path d="M15.4824,17.8135c-0.2041,0-0.3955-0.126-0.4697-0.3281c-0.5566-1.5195-1.7373-2.502-3.0088-2.502
		c-1.272,0-2.4536,0.9824-3.0098,2.502c-0.0947,0.2588-0.3828,0.3926-0.6416,0.2979c-0.2593-0.0947-0.3926-0.3818-0.2979-0.6416
		c0.7026-1.9189,2.2524-3.1582,3.9492-3.1582c1.6963,0,3.2461,1.2393,3.9482,3.1582c0.0947,0.2598-0.0381,0.5469-0.2979,0.6416
		C15.5977,17.8037,15.5391,17.8135,15.4824,17.8135z"/>
</g>
<rect fill="none" width="24" height="24"/>
</svg>
