<?xml version="1.0" encoding="utf-8"?>
<!-- Generator: Adobe Illustrator 18.1.0, SVG Export Plug-In . SVG Version: 6.00 Build 0)  -->
<svg version="1.1" id="Layer_1" xmlns="http://www.w3.org/2000/svg" xmlns:xlink="http://www.w3.org/1999/xlink" x="0px" y="0px"
	 width="24px" height="24px" viewBox="0 0 24 24" enable-background="new 0 0 24 24" xml:space="preserve">
<g>
	<path d="M17.1426,24.0195H4.8579C3.8335,24.0195,3,23.1865,3,22.1621V5.8774C3,4.853,3.8335,4.0195,4.8579,4.0195h12.2837
		C18.166,4.0195,19,4.853,19,5.8774v16.2847C19,23.1865,18.167,24.0195,17.1426,24.0195z M4.8579,5.0195
		C4.3848,5.0195,4,5.4043,4,5.8774v16.2847c0,0.4727,0.3848,0.8574,0.8579,0.8574h12.2847c0.4727,0,0.8574-0.3848,0.8574-0.8574
		V5.8774c0-0.4731-0.3848-0.8579-0.8584-0.8579H4.8579z"/>
	<path d="M19.7793,17.0195H18.5c-0.2764,0-0.5-0.2236-0.5-0.5s0.2236-0.5,0.5-0.5h1.2793c1.2246,0,2.2207-1.0234,2.2207-2.2812
		v-3.4409c0-1.2559-0.9961-2.2778-2.2207-2.2778H18.5c-0.2764,0-0.5-0.2236-0.5-0.5s0.2236-0.5,0.5-0.5h1.2793
		C21.5557,7.0195,23,8.4897,23,10.2974v3.4409C23,15.5479,21.5557,17.0195,19.7793,17.0195z"/>
	<path d="M7.5,20.9883c-0.2764,0-0.5-0.2236-0.5-0.5v-11c0-0.2764,0.2236-0.5,0.5-0.5S8,9.2119,8,9.4883v11
		C8,20.7646,7.7764,20.9883,7.5,20.9883z"/>
	<path d="M11,20.9883c-0.2764,0-0.5-0.2236-0.5-0.5v-11c0-0.2764,0.2236-0.5,0.5-0.5s0.5,0.2236,0.5,0.5v11
		C11.5,20.7646,11.2764,20.9883,11,20.9883z"/>
	<path d="M14.5,20.9883c-0.2764,0-0.5-0.2236-0.5-0.5v-11c0-0.2764,0.2236-0.5,0.5-0.5s0.5,0.2236,0.5,0.5v11
		C15,20.7646,14.7764,20.9883,14.5,20.9883z"/>
	<path d="M16.9121,5.0195c-0.0195,0-0.0391-0.001-0.0586-0.0034c-0.2744-0.0317-0.4707-0.2803-0.4395-0.5542
		c0.0898-0.7661-0.2207-1.4775-0.8281-1.9043c-0.5635-0.395-1.2656-0.4482-1.874-0.1436c-0.1973,0.0991-0.4346,0.0562-0.5879-0.1045
		c-0.626-0.6641-1.4956-1.0176-2.3818-0.9751C9.8477,1.3794,9.0117,1.8257,8.4482,2.5586C8.3149,2.7319,8.084,2.7974,7.8804,2.7236
		C7.3247,2.521,6.7246,2.5962,6.2319,2.9268C5.7065,3.2812,5.3799,3.8828,5.3574,4.5366C5.3486,4.8125,5.1133,5.0449,4.8408,5.019
		C4.5649,5.0098,4.3486,4.7783,4.3584,4.5024c0.0327-0.9727,0.5244-1.8716,1.3145-2.4043c0.6602-0.4448,1.4497-0.5908,2.2056-0.416
		c0.7324-0.8066,1.7402-1.2925,2.814-1.3462c1.0605-0.0488,2.1064,0.3228,2.9072,1.0415c0.8584-0.3037,1.793-0.1763,2.5605,0.3618
		c0.8994,0.6309,1.3779,1.7188,1.248,2.8379C17.3779,4.832,17.1621,5.0195,16.9121,5.0195z"/>
</g>
<rect y="0.0197" fill="none" width="24" height="24"/>
</svg>
