<?xml version="1.0" encoding="utf-8"?>
<!-- Generator: Adobe Illustrator 18.1.0, SVG Export Plug-In . SVG Version: 6.00 Build 0)  -->
<svg version="1.1" id="Layer_1" xmlns="http://www.w3.org/2000/svg" xmlns:xlink="http://www.w3.org/1999/xlink" x="0px" y="0px"
	 width="24px" height="24px" viewBox="0 0 24 24" enable-background="new 0 0 24 24" xml:space="preserve">
<g>
	<path d="M13.6279,14.9512H7.1494c-0.2764,0-0.5-0.2236-0.5-0.5s0.2236-0.5,0.5-0.5h6.4785c2.3584,0,4.2764-1.9736,4.2764-4.3999
		s-1.918-4.4004-4.2764-4.4004H5.7173c-2.375,0-4.3813,2.0317-4.3813,4.437c0,1.749,0.9082,3.3223,2.3135,4.0088
		c0.2485,0.1211,0.3511,0.4209,0.23,0.6689c-0.1201,0.2471-0.4204,0.3506-0.6685,0.2295c-1.7466-0.8525-2.875-2.7793-2.875-4.9072
		c0-2.9473,2.4644-5.437,5.3813-5.437h7.9106c2.9092,0,5.2764,2.4224,5.2764,5.4004
		C18.9043,12.5283,16.5371,14.9512,13.6279,14.9512z"/>
	<path d="M18.3076,19.8516h-7.9111c-2.9092,0-5.2764-2.4229-5.2764-5.4004s2.3672-5.3999,5.2764-5.3999h6.4551
		c0.2764,0,0.5,0.2236,0.5,0.5s-0.2236,0.5-0.5,0.5h-6.4551c-2.3579,0-4.2764,1.9741-4.2764,4.3999
		c0,2.4268,1.9185,4.4004,4.2764,4.4004h7.9111c2.3721,0,4.376-1.9893,4.376-4.3447c0-1.7461-0.9131-3.2583-2.3828-3.9463
		c-0.25-0.1167-0.3584-0.4146-0.2412-0.6646c0.1172-0.2505,0.417-0.3579,0.665-0.2407c1.8252,0.854,2.959,2.7129,2.959,4.8516
		C23.6836,17.4043,21.2217,19.8516,18.3076,19.8516z"/>
</g>
<rect y="0.0011" fill="none" width="24" height="24"/>
</svg>
