<?xml version="1.0" encoding="utf-8"?>
<!-- Generator: Adobe Illustrator 18.1.0, SVG Export Plug-In . SVG Version: 6.00 Build 0)  -->
<svg version="1.1" id="Layer_1" xmlns="http://www.w3.org/2000/svg" xmlns:xlink="http://www.w3.org/1999/xlink" x="0px" y="0px"
	 width="24px" height="24px" viewBox="0 0 24 24" enable-background="new 0 0 24 24" xml:space="preserve">
<g>
	<path d="M5.2852,23.5391c-0.0308,0-0.0625-0.0029-0.0942-0.0088c-0.271-0.0518-0.4492-0.3135-0.3975-0.585l0.6313-3.3115
		c0.0518-0.2705,0.3096-0.4502,0.585-0.3975c0.271,0.0518,0.4492,0.3135,0.3975,0.585l-0.6313,3.3115
		C5.73,23.3721,5.5205,23.5391,5.2852,23.5391z"/>
	<path d="M13.6133,23.5391c-0.2354,0-0.4443-0.167-0.4902-0.4062l-0.6299-3.3115c-0.0518-0.2715,0.127-0.5332,0.3975-0.585
		c0.2754-0.0508,0.5332,0.126,0.585,0.3975l0.6299,3.3115c0.0518,0.2715-0.127,0.5332-0.3975,0.585
		C13.6758,23.5361,13.6445,23.5391,13.6133,23.5391z"/>
	<path d="M9.4497,11.4058c-1.0371,0-1.8809-0.8438-1.8809-1.8809S8.4126,7.644,9.4497,7.644c1.0376,0,1.8813,0.8438,1.8813,1.8809
		c0,0.2764-0.2236,0.5-0.5,0.5s-0.5-0.2236-0.5-0.5c0-0.4858-0.3955-0.8809-0.8813-0.8809s-0.8809,0.395-0.8809,0.8809
		s0.395,0.8809,0.8809,0.8809c0.2764,0,0.5,0.2236,0.5,0.5S9.7261,11.4058,9.4497,11.4058z"/>
	<path d="M23.2119,10.0254H9.8613c-0.2764,0-0.5-0.2236-0.5-0.5s0.2236-0.5,0.5-0.5h13.3506c0.2764,0,0.5,0.2236,0.5,0.5
		S23.4883,10.0254,23.2119,10.0254z"/>
	<path d="M21.0801,10.0127c-0.1289,0-0.2568-0.0493-0.3545-0.1475c-0.1943-0.1958-0.1943-0.5122,0.002-0.707l2.3018-2.2891
		c0.1963-0.1948,0.5127-0.1938,0.707,0.002s0.1943,0.5122-0.002,0.707l-2.3018,2.2891C21.335,9.9644,21.208,10.0127,21.0801,10.0127
		z"/>
	<path d="M18.7666,10.0127c-0.1289,0-0.2568-0.0493-0.3545-0.1475c-0.1943-0.1958-0.1943-0.5122,0.002-0.707l2.3018-2.2891
		c0.1963-0.1948,0.5127-0.1938,0.707,0.002s0.1943,0.5122-0.002,0.707l-2.3018,2.2891
		C19.0215,9.9644,18.8945,10.0127,18.7666,10.0127z"/>
	<path d="M23.3818,12.3271c-0.1279,0-0.2549-0.0488-0.3525-0.1455l-2.3018-2.2896c-0.1963-0.1948-0.1963-0.5112-0.002-0.707
		c0.1953-0.1963,0.5117-0.1963,0.707-0.002l2.3018,2.2891c0.1963,0.1948,0.1963,0.5112,0.002,0.7075
		C23.6387,12.2773,23.5098,12.3271,23.3818,12.3271z"/>
	<path d="M21.0684,12.3271c-0.1279,0-0.2549-0.0488-0.3525-0.1455l-2.3018-2.2896c-0.1963-0.1948-0.1963-0.5112-0.002-0.707
		c0.1953-0.1963,0.5117-0.1963,0.707-0.002l2.3018,2.2891c0.1963,0.1948,0.1963,0.5112,0.002,0.7075
		C21.3252,12.2773,21.1963,12.3271,21.0684,12.3271z"/>
	<path d="M9.4497,18.5498c-4.9766,0-9.0249-4.0488-9.0249-9.0249s4.0483-9.0244,9.0249-9.0244c4.9761,0,9.0249,4.0483,9.0249,9.0244
		c0,0.2764-0.2236,0.5-0.5,0.5s-0.5-0.2236-0.5-0.5c0-4.4248-3.5996-8.0244-8.0249-8.0244c-4.4248,0-8.0249,3.5996-8.0249,8.0244
		c0,4.4253,3.6001,8.0249,8.0249,8.0249c3.7026,0,6.9048-2.5127,7.7876-6.1094c0.0654-0.2676,0.334-0.4355,0.6045-0.3662
		c0.2686,0.0654,0.4326,0.3364,0.3662,0.6045C17.2158,15.7246,13.6143,18.5498,9.4497,18.5498z"/>
	<path d="M9.4497,14.9863c-3.0112,0-5.4614-2.4502-5.4614-5.4614c0-3.0117,2.4502-5.4619,5.4614-5.4619s5.4614,2.4502,5.4614,5.4619
		c0,0.2764-0.2236,0.5-0.5,0.5s-0.5-0.2236-0.5-0.5c0-2.4604-2.0015-4.4619-4.4614-4.4619S4.9883,7.0645,4.9883,9.5249
		c0,2.46,2.0015,4.4614,4.4614,4.4614c1.7412,0,3.3335-1.0332,4.0562-2.6333c0.1143-0.2515,0.4092-0.3628,0.6621-0.2495
		c0.252,0.1138,0.3633,0.4097,0.25,0.6616C13.5332,13.7217,11.583,14.9863,9.4497,14.9863z"/>
</g>
<rect x="0.0142" y="0.0354" fill="none" width="24" height="24"/>
</svg>
