<?xml version="1.0" encoding="utf-8"?>
<!-- Generator: Adobe Illustrator 18.1.0, SVG Export Plug-In . SVG Version: 6.00 Build 0)  -->
<svg version="1.1" id="Layer_1" xmlns="http://www.w3.org/2000/svg" xmlns:xlink="http://www.w3.org/1999/xlink" x="0px" y="0px"
	 width="24px" height="24px" viewBox="0 0 24 24" enable-background="new 0 0 24 24" xml:space="preserve">
<g>
	<path d="M12.9297,17.8721c-0.3008,0-0.583-0.1172-0.7959-0.3301l-5.7993-5.7993c-0.439-0.439-0.439-1.1533-0.0005-1.5928
		l9.7354-9.7354c0.4258-0.4258,1.168-0.4253,1.5938-0.0005l5.7988,5.7993c0.4385,0.4395,0.4385,1.1538,0,1.5928l-9.7354,9.7358
		C13.5127,17.7549,13.2305,17.8721,12.9297,17.8721z M16.4229,0.7681l0.3535,0.3535l-9.7349,9.7349
		c-0.0493,0.0493-0.0493,0.1299,0,0.1792l5.8882,5.8364c0.0244,0,0.0596-0.0068,0.0908-0.0381l9.7344-9.7344
		c0.0488-0.0493,0.0488-0.1299,0-0.1797l-5.7988-5.7983L16.4229,0.7681z"/>
	<path d="M6.5103,11.3862c-0.2285,0-0.4346-0.1572-0.4873-0.3896c-0.061-0.2695,0.1079-0.5371,0.3774-0.5981l8.1064-1.835
		l1.8115-8.0825c0.0615-0.269,0.3271-0.437,0.5977-0.3784c0.2695,0.0601,0.4385,0.3276,0.3789,0.5972l-1.8809,8.3911
		c-0.043,0.1885-0.1895,0.3354-0.3779,0.3784l-8.415,1.9048C6.584,11.3823,6.5469,11.3862,6.5103,11.3862z"/>
	<path d="M0.6025,19.1367c-0.1279,0-0.2559-0.0488-0.3535-0.1465c-0.1953-0.1953-0.1953-0.5117,0-0.707l4.8999-4.9004
		c0.1953-0.1953,0.5117-0.1953,0.707,0s0.1953,0.5117,0,0.707l-4.8999,4.9004C0.8584,19.0879,0.7305,19.1367,0.6025,19.1367z"/>
	<path d="M4.2754,19.583c-0.1279,0-0.2559-0.0488-0.3535-0.1465c-0.1953-0.1953-0.1953-0.5117,0-0.707l3.2871-3.2871
		c0.1953-0.1953,0.5117-0.1953,0.707,0s0.1953,0.5117,0,0.707l-3.2871,3.2871C4.5312,19.5342,4.4033,19.583,4.2754,19.583z"/>
	<path d="M7.9785,19.999c-0.1279,0-0.2559-0.0488-0.3535-0.1465c-0.1953-0.1953-0.1953-0.5117,0-0.707l1.6436-1.6436
		c0.1953-0.1953,0.5117-0.1953,0.707,0s0.1953,0.5117,0,0.707L8.332,19.8525C8.2344,19.9502,8.1064,19.999,7.9785,19.999z"/>
</g>
<rect fill="none" width="24" height="24"/>
</svg>
