<?xml version="1.0" encoding="utf-8"?>
<!-- Generator: Adobe Illustrator 18.1.0, SVG Export Plug-In . SVG Version: 6.00 Build 0)  -->
<svg version="1.1" id="Layer_1" xmlns="http://www.w3.org/2000/svg" xmlns:xlink="http://www.w3.org/1999/xlink" x="0px" y="0px"
	 width="24px" height="24px" viewBox="0 0 24 24" enable-background="new 0 0 24 24" xml:space="preserve">
<g>
	<path d="M23.5615,6.0176c-0.1387,0-0.2773-0.0576-0.376-0.1709l-4.1934-4.7915H5.0977L0.9043,5.8467
		c-0.1836,0.208-0.499,0.228-0.7056,0.0474c-0.208-0.1821-0.229-0.498-0.0474-0.7056l4.3428-4.9624
		c0.0952-0.1089,0.2324-0.1709,0.3765-0.1709h14.3481c0.1445,0,0.2812,0.062,0.376,0.1709l4.3428,4.9624
		c0.1826,0.2075,0.1611,0.5234-0.0469,0.7056C23.7959,5.9771,23.6787,6.0176,23.5615,6.0176z"/>
	<path d="M21.7002,24.0615H2.3887c-1.3018,0-2.3608-1.0742-2.3608-2.3945V5.5176c0-0.2764,0.2236-0.5,0.5-0.5h7.2822
		c0.2764,0,0.5,0.2236,0.5,0.5v2.3242c0,0.6689,0.5308,1.2129,1.1826,1.2129h5.104c0.6523,0,1.1826-0.5439,1.1826-1.2129V5.5176
		c0-0.2764,0.2236-0.5,0.5-0.5h7.2822c0.2764,0,0.5,0.2236,0.5,0.5V21.667C24.0615,22.9873,23.002,24.0615,21.7002,24.0615z
		 M1.0278,6.0176V21.667c0,0.7686,0.6104,1.3945,1.3608,1.3945h19.3115c0.751,0,1.3613-0.626,1.3613-1.3945V6.0176h-6.2822v1.8242
		c0,1.2202-0.9795,2.2129-2.1826,2.2129h-5.104c-1.2036,0-2.1826-0.9927-2.1826-2.2129V6.0176H1.0278z"/>
	<path d="M14.5967,16.0254h-5.104c-1.2036,0-2.1826-0.9873-2.1826-2.2002v-1.8076H0.5278c-0.2764,0-0.5-0.2231-0.5-0.4995
		s0.2236-0.5,0.5-0.5h7.2822c0.2764,0,0.5,0.2236,0.5,0.5v2.3071c0,0.6621,0.5308,1.2002,1.1826,1.2002h5.104
		c0.6523,0,1.1826-0.5381,1.1826-1.2002v-2.3071c0-0.2764,0.2236-0.5,0.5-0.5h7.2822c0.2764,0,0.5,0.2236,0.5,0.5
		s-0.2236,0.4995-0.5,0.4995h-6.7822v1.8076C16.7793,15.0381,15.7998,16.0254,14.5967,16.0254z"/>
	<path d="M14.5967,22.0264h-5.104c-1.2036,0-2.1826-0.9873-2.1826-2.2002v-1.8076H0.5278c-0.2764,0-0.5-0.2236-0.5-0.5
		s0.2236-0.5,0.5-0.5h7.2822c0.2764,0,0.5,0.2236,0.5,0.5v2.3076c0,0.6621,0.5308,1.2002,1.1826,1.2002h5.104
		c0.6523,0,1.1826-0.5381,1.1826-1.2002v-2.3076c0-0.2764,0.2236-0.5,0.5-0.5h7.2822c0.2764,0,0.5,0.2236,0.5,0.5
		s-0.2236,0.5-0.5,0.5h-6.7822v1.8076C16.7793,21.0391,15.7998,22.0264,14.5967,22.0264z"/>
</g>
<rect y="0.0001" fill="none" width="24" height="24"/>
</svg>
