<?xml version="1.0" encoding="utf-8"?>
<!-- Generator: Adobe Illustrator 18.1.0, SVG Export Plug-In . SVG Version: 6.00 Build 0)  -->
<svg version="1.1" id="Layer_1" xmlns="http://www.w3.org/2000/svg" xmlns:xlink="http://www.w3.org/1999/xlink" x="0px" y="0px"
	 width="24px" height="24px" viewBox="0 0 24 24" enable-background="new 0 0 24 24" xml:space="preserve">
<g>
	<path d="M4.5024,21.9854h-4c-0.2764,0-0.5-0.2236-0.5-0.5V5.71c0-0.1333,0.0532-0.2612,0.1479-0.355l2-1.9834
		c0.1953-0.1934,0.5088-0.1934,0.7041,0l2,1.9834C4.9492,5.4487,5.0024,5.5767,5.0024,5.71v15.7754
		C5.0024,21.7617,4.7788,21.9854,4.5024,21.9854z M1.0024,20.9854h3V5.9185l-1.5-1.4878l-1.5,1.4878V20.9854z"/>
	<path d="M9.5029,10.9854H4.5024c-0.2764,0-0.5-0.2236-0.5-0.5s0.2236-0.5,0.5-0.5h5.0005c0.2764,0,0.5,0.2236,0.5,0.5
		S9.7793,10.9854,9.5029,10.9854z"/>
	<path d="M9.5029,16.9854H4.5024c-0.2764,0-0.5-0.2236-0.5-0.5s0.2236-0.5,0.5-0.5h5.0005c0.2764,0,0.5,0.2236,0.5,0.5
		S9.7793,16.9854,9.5029,16.9854z"/>
	<path d="M2.5,10.9897c-0.1304,0-0.25-0.0601-0.3501-0.1499S2,10.6196,2,10.4897c0-0.1401,0.0601-0.27,0.1499-0.3599
		c0.1797-0.1802,0.52-0.1899,0.71,0C2.9497,10.2197,3,10.3496,3,10.4897c0,0.1299-0.0503,0.25-0.1401,0.3501
		C2.7598,10.9297,2.6299,10.9897,2.5,10.9897z"/>
	<path d="M2.5,16.9902c-0.1304,0-0.25-0.0605-0.3501-0.1504C2.0498,16.7402,2,16.6201,2,16.4795c0-0.1201,0.0498-0.25,0.1396-0.3496
		c0.2002-0.1904,0.54-0.1797,0.7202,0.0098C2.9497,16.2197,3,16.3496,3,16.4795c0,0.1406-0.0503,0.2607-0.1504,0.3604
		C2.7598,16.9297,2.6299,16.9902,2.5,16.9902z"/>
	<path d="M13.5029,21.9854h-4c-0.2764,0-0.5-0.2236-0.5-0.5V5.71c0-0.1333,0.0532-0.2612,0.1479-0.355l2-1.9834
		c0.1953-0.1934,0.5088-0.1934,0.7041,0l2.0005,1.9834c0.0938,0.0938,0.1475,0.2217,0.1475,0.355v15.7754
		C14.0029,21.7617,13.7793,21.9854,13.5029,21.9854z M10.0029,20.9854h3V5.9185l-1.5-1.4878l-1.5,1.4878V20.9854z"/>
	<path d="M18.5029,10.9854h-5c-0.2764,0-0.5-0.2236-0.5-0.5s0.2236-0.5,0.5-0.5h5c0.2764,0,0.5,0.2236,0.5,0.5
		S18.7793,10.9854,18.5029,10.9854z"/>
	<path d="M18.5029,16.9854h-5c-0.2764,0-0.5-0.2236-0.5-0.5s0.2236-0.5,0.5-0.5h5c0.2764,0,0.5,0.2236,0.5,0.5
		S18.7793,16.9854,18.5029,16.9854z"/>
	<path d="M11.5,10.9897c-0.1304,0-0.2603-0.0601-0.3501-0.1499C11.0601,10.7397,11,10.6196,11,10.48
		c0-0.1304,0.0601-0.25,0.1499-0.3501c0.1899-0.1899,0.52-0.1802,0.71,0C11.9497,10.2197,12,10.3496,12,10.48
		c0,0.1396-0.0503,0.27-0.1401,0.3599C11.7598,10.9297,11.6299,10.9897,11.5,10.9897z"/>
	<path d="M11.5,16.9902c-0.1201,0-0.25-0.0605-0.3501-0.1504C11.0498,16.7402,11,16.6201,11,16.4795
		c0-0.1299,0.0601-0.2598,0.1499-0.3496c0.1899-0.1904,0.52-0.1904,0.71,0C11.9497,16.2295,12,16.3594,12,16.4795
		c0,0.1406-0.0503,0.2607-0.1401,0.3604C11.7598,16.9297,11.6299,16.9902,11.5,16.9902z"/>
	<path d="M22.5029,21.9854h-4c-0.2764,0-0.5-0.2236-0.5-0.5V5.71c0-0.1333,0.0537-0.2612,0.1475-0.355l2-1.9834
		c0.1953-0.1934,0.5098-0.1934,0.7051,0l2,1.9834c0.0938,0.0938,0.1475,0.2217,0.1475,0.355v15.7754
		C23.0029,21.7617,22.7793,21.9854,22.5029,21.9854z M19.0029,20.9854h3V5.9185l-1.5-1.4878l-1.5,1.4878V20.9854z"/>
	<path d="M20.5,10.98c-0.1299,0-0.2598-0.0503-0.3506-0.1401C20.0596,10.7397,20,10.6099,20,10.4897
		c0-0.1401,0.0596-0.2598,0.1494-0.3599c0.1904-0.1899,0.5205-0.1899,0.71,0C20.9502,10.2197,21,10.3496,21,10.4897
		c0,0.1201-0.0498,0.25-0.1406,0.3501C20.7598,10.9297,20.6299,10.98,20.5,10.98z"/>
	<path d="M20.5,16.9902c-0.1299,0-0.25-0.0605-0.3506-0.1504C20.0498,16.7402,20,16.6094,20,16.4795
		c0-0.1201,0.0498-0.25,0.1396-0.3398c0.2002-0.2002,0.5303-0.2002,0.7197-0.0098C20.9502,16.2295,21,16.3594,21,16.4795
		c0,0.1299-0.0498,0.2607-0.1406,0.3604C20.7598,16.9297,20.6299,16.9902,20.5,16.9902z"/>
</g>
<rect x="0.0022" y="-0.0147" fill="none" width="24" height="24"/>
</svg>
