<?xml version="1.0" encoding="utf-8"?>
<!-- Generator: Adobe Illustrator 18.1.0, SVG Export Plug-In . SVG Version: 6.00 Build 0)  -->
<svg version="1.1" id="Layer_1" xmlns="http://www.w3.org/2000/svg" xmlns:xlink="http://www.w3.org/1999/xlink" x="0px" y="0px"
	 width="24px" height="24px" viewBox="0 0 24 24" enable-background="new 0 0 24 24" xml:space="preserve">
<g>
	<path d="M13.9189,21.3008c-0.415,0-0.8291-0.0723-0.9834-0.2266c-0.0918-0.0898-0.377-0.3691-0.5146-1.4375
		c-0.0732-0.1748-0.2373-0.5732-0.4111-1.0059c-0.3179-0.7852-0.5063-1.2881-0.5752-1.5352
		c-0.0557-0.2041-0.1309-0.3789-0.207-0.4834c-0.0283-0.001-0.2798-0.0674-0.3823-0.0518
		c-0.4175,0.1631-1.1475,0.2568-2.0923,0.2588c-1.0542-0.002-2.0142-0.123-2.5713-0.3223c-0.3335-0.123-0.6338-0.0869-0.6353-0.085
		c-0.1147,0.7246-0.5947,1.1211-0.9126,1.3838c-0.3579,0.2832-1.231,1.0596-1.3481,1.207
		c-0.1406,0.2383-0.4365,0.3008-0.6753,0.1621c-0.2378-0.1406-0.3071-0.4609-0.167-0.6992
		c0.1831-0.3105,1.5483-1.4375,1.5615-1.4473c0.2681-0.2217,0.5-0.4316,0.5396-0.6895c0.083-0.584,0.5098-0.9365,1.1401-0.9385
		c0.2559,0,0.5376,0.0557,0.8384,0.166c0.4443,0.1602,1.3003,0.2607,2.2295,0.2627c0.8022-0.002,1.4512-0.0791,1.8252-0.2168
		c0.2939-0.1055,1.1562,0.0137,1.4556,0.417c0.1904,0.2617,0.3037,0.585,0.3652,0.8096c0.0391,0.1406,0.165,0.5049,0.5391,1.4277
		c0.1982,0.4941,0.3828,0.9404,0.4316,1.0566c0.0186,0.043,0.0303,0.0879,0.0352,0.1338c0.0498,0.417,0.1289,0.6953,0.1885,0.832
		c0.2432,0.0293,0.667,0.0303,0.7891-0.0234c0.001-0.0098,0-0.0342-0.002-0.0625c-0.2305-0.1768-0.5654-0.4883-0.6621-0.8604
		c-0.0918-0.4229-0.2041-2.3164-0.2041-2.6025c0-0.1494,0.0049-0.9043,0.0518-1.1875c0.0166-0.0977,0.0615-0.1885,0.1289-0.2607
		c0.0693-0.1152,0.4355-0.7686,0.4717-1.0098c0.0039-0.0381,0.0752-0.3652,0.1699-0.7764c0.124-0.5469,0.3564-1.563,0.3701-1.7432
		c0.002-0.4722,0.332-1.6724,0.7002-2.1133c0.0254-0.0513,0.0654-0.3198,0.0684-0.48c0.0039-0.2666,0.2178-0.5054,0.4844-0.5137
		c0.0088-0.0039,0.0967,0.001,0.2188,0.0044c0.1943,0.0059,0.4932,0.0146,0.6484,0.0146c0.1133-0.001,0.1943-0.0029,0.2432-0.02
		c0.0967-0.0352,0.3418-0.124,0.418-0.1987l0,0c-0.0137,0,0.123-0.9546,0.1738-1.3208c-0.1367-0.0312-0.2988-0.0469-0.4697-0.0625
		c-0.5137-0.0483-1.1543-0.1084-1.4883-0.6836c-0.2051-0.3052-0.6338-0.5015-1.0117-0.4888
		c-0.4844,0.0156-0.9121,0.3018-1.2031,0.8052c-0.3359,0.5713-0.5957,1.1309-0.8252,1.6245
		c-0.0898,0.1943-0.1758,0.3794-0.2617,0.5542c-0.2939,0.606-0.6387,1.2148-1.1582,1.563c-1.3311,0.8999-3.249,0.7925-4.9399,0.6978
		c-1.5029-0.0835-2.9248-0.1631-3.519,0.4541c-1.0078,1.0688-1.1421,2.5083-1.146,3.6431c-0.001,0.2754-0.2246,0.498-0.5,0.498
		c-0.0005,0-0.001,0-0.002,0c-0.2759-0.001-0.499-0.2256-0.498-0.502c0.0044-1.2158,0.1562-2.9863,1.4214-4.3281
		c0.915-0.9546,2.5581-0.8613,4.2998-0.7637c1.6074,0.0903,3.271,0.1831,4.3257-0.5288c0.3242-0.2173,0.5952-0.7139,0.8174-1.1709
		c0.083-0.1699,0.1665-0.3496,0.2539-0.5381c0.2393-0.5142,0.5103-1.0972,0.8687-1.707c0.4609-0.7983,1.2031-1.2734,2.0332-1.3008
		c0.7617-0.0186,1.4746,0.333,1.8926,0.959c0.0928,0.1572,0.4336,0.189,0.7344,0.2173c0.2559,0.0239,0.5205,0.0483,0.7725,0.1304
		c0.3779,0.1177,0.623,0.4517,0.6191,0.8496c-0.002,0.0493-0.0039,0.083-0.2168,1.5483c0.0039,0.0962-0.0449,0.3394-0.2705,0.563
		c-0.2158,0.2109-0.5068,0.3276-0.7861,0.4287c-0.2139,0.0742-0.4043,0.0762-0.5723,0.0776c-0.1006,0-0.2539-0.0034-0.4053-0.0073
		c-0.0391,0.2129-0.1123,0.4478-0.2441,0.6138c-0.1768,0.2109-0.4746,1.1631-0.4766,1.5078
		c-0.0088,0.2202-0.1289,0.7744-0.3945,1.9395c-0.0791,0.3438-0.1426,0.6211-0.1553,0.6963
		c-0.0625,0.4229-0.4189,1.0674-0.6133,1.3779c-0.0186,0.2139-0.0273,0.6514-0.0283,0.9385c0,0.3135,0.1152,2.085,0.1768,2.3711
		c0.0244,0.0615,0.2314,0.2607,0.4141,0.3799c0.0605,0.0391,0.1133,0.0928,0.1514,0.1543c0.0391,0.0625,0.1201,0.1924,0.1299,0.6719
		c-0.0449,0.3887-0.2471,0.6777-0.5312,0.8281C14.6641,21.2432,14.291,21.3008,13.9189,21.3008z"/>
	<path d="M11.9858,23.8154c-3.1611,0-6.1294-1.2275-8.3584-3.4561c-2.229-2.2295-3.4565-5.1982-3.4565-8.3584
		c0.0005-3.1616,1.228-6.1299,3.4575-8.3589c2.2295-2.2295,5.1978-3.457,8.3584-3.457s6.1284,1.2275,8.3579,3.4565
		s3.457,5.1978,3.457,8.3584c0,3.1611-1.2275,6.1289-3.457,8.3584S15.1465,23.8154,11.9858,23.8154z M11.9868,1.1851
		c-2.8936,0-5.6108,1.1235-7.6514,3.1641c-2.0405,2.04-3.1641,4.7573-3.1646,7.6519c0,2.8936,1.1235,5.6113,3.1636,7.6514
		c2.0405,2.04,4.7573,3.1631,7.6514,3.1631s5.6118-1.124,7.6519-3.1641S22.8018,14.8936,22.8018,12s-1.124-5.6108-3.1641-7.6514
		C17.5977,2.3086,14.8799,1.1851,11.9868,1.1851z"/>
	<path d="M19.9912,20.5049c-0.1279,0-0.2559-0.0488-0.3535-0.1465L3.6284,4.3486c-0.1953-0.1953-0.1953-0.5117,0-0.707
		s0.5117-0.1953,0.707,0l16.0093,16.0098c0.1953,0.1953,0.1953,0.5117,0,0.707C20.2471,20.4561,20.1191,20.5049,19.9912,20.5049z"/>
</g>
<rect x="-0.0136" y="0.0002" fill="none" width="24" height="24"/>
</svg>
