<?xml version="1.0" encoding="utf-8"?>
<!-- Generator: Adobe Illustrator 18.1.0, SVG Export Plug-In . SVG Version: 6.00 Build 0)  -->
<svg version="1.1" id="Layer_1" xmlns="http://www.w3.org/2000/svg" xmlns:xlink="http://www.w3.org/1999/xlink" x="0px" y="0px"
	 width="24px" height="24px" viewBox="0 0 24 24" enable-background="new 0 0 24 24" xml:space="preserve">
<g>
	<g>
		<path d="M17.5215,6.731c-0.1406,0-0.2803-0.0591-0.3789-0.1738c-0.1797-0.209-0.1562-0.5249,0.0527-0.7051l2.6133-2.2515
			c0.4297-0.3267,0.4961-1.063,0.1621-1.5342c-0.1533-0.2153-0.377-0.355-0.6299-0.394c-0.252-0.0415-0.4951,0.0254-0.6973,0.1787
			L17.8203,2.54c-0.21,0.1768-0.5264,0.1489-0.7041-0.0625c-0.1768-0.2119-0.1484-0.5273,0.0635-0.7041l0.8418-0.7041
			c0.4385-0.3345,0.9561-0.4673,1.4717-0.3853c0.5225,0.0801,0.9814,0.3657,1.292,0.8032c0.6572,0.9258,0.498,2.2495-0.3486,2.8906
			l-2.5889,2.2319C17.7529,6.6909,17.6377,6.731,17.5215,6.731z"/>
		<path d="M17.5,11.3696c-0.1426,0-0.2842-0.061-0.3838-0.1792c-0.1768-0.2114-0.1484-0.5269,0.0625-0.7041l3.9043-3.2676
			c0.4395-0.3193,0.5215-1.0532,0.1973-1.5327c-0.1484-0.2188-0.3691-0.3643-0.6221-0.4087
			c-0.2451-0.043-0.4951,0.0151-0.7002,0.1636l-2.1533,1.6572c-0.2188,0.1665-0.5332,0.1274-0.7012-0.0918
			c-0.168-0.2188-0.127-0.5327,0.0918-0.7012l2.165-1.666c0.4385-0.3169,0.9551-0.4385,1.4717-0.3467
			c0.5215,0.0918,0.9746,0.3877,1.2764,0.8325c0.6367,0.9409,0.4482,2.2607-0.4111,2.8823l-3.876,3.2456
			C17.7275,11.3315,17.6133,11.3696,17.5,11.3696z"/>
		<path d="M17.5088,19.1006c-0.1709,0-0.3379-0.0879-0.4307-0.2471c-0.1406-0.2373-0.0605-0.5439,0.1777-0.6836
			c1.6387-0.9639,3.1475-2.1631,3.1631-2.1748c0.7393-0.5557,0.9951-0.9658,0.8955-1.4219
			c-0.0537-0.2441-0.1982-0.4512-0.4082-0.583c-0.2217-0.1406-0.501-0.1875-0.7617-0.124
			c-0.2402,0.0557-0.4785-0.0674-0.5732-0.2891c-0.0957-0.2217-0.0195-0.4805,0.1826-0.6152l1.7031-1.1304
			c0.5312-0.4048,0.6895-0.9424,0.4209-1.4956c-0.2871-0.4966-0.8076-0.6865-1.2773-0.4429l-2.8105,1.917
			c-0.2246,0.1558-0.5381,0.0977-0.6943-0.1318c-0.1553-0.228-0.0967-0.5391,0.1318-0.6943l2.8613-1.9478
			c0.999-0.5215,2.1035-0.1592,2.6719,0.832c0.4951,1.0146,0.2109,2.0674-0.7246,2.7783l-0.6768,0.4492
			c0.0264,0.0156,0.0537,0.0312,0.0801,0.0488c0.4385,0.2754,0.7402,0.707,0.8516,1.2139c0.2471,1.127-0.5439,1.8887-1.2607,2.4268
			c-0.0518,0.042-1.5654,1.2461-3.2686,2.2461C17.6826,19.0781,17.5957,19.1006,17.5088,19.1006z"/>
		<path d="M17.5088,15.5547c-0.1611,0-0.3203-0.0781-0.416-0.2236c-0.1533-0.2295-0.0908-0.54,0.1396-0.6924l2.5215-1.6758
			c0.2266-0.1523,0.54-0.0928,0.6924,0.1396c0.1533,0.2295,0.0908,0.54-0.1396,0.6924l-2.5215,1.6758
			C17.7002,15.5273,17.6045,15.5547,17.5088,15.5547z"/>
	</g>
	<path d="M7.4302,23.8164c-0.0723,0-0.1401-0.0039-0.2026-0.0117c-3.0752-0.3984-4.5762-1.9414-5.2935-3.165
		c-0.9873-1.6855-1.1279-3.9082-0.3667-5.8027c0.7935-1.9746,0.582-4.7446,0.4126-6.9707C1.7905,5.3828,1.6538,3.5884,2.8003,3.1475
		C3.3984,2.917,3.9849,2.9717,4.498,3.3047c2.0933,1.3579,2.4658,7.2861,2.5015,7.9575c0.0142,0.2759-0.1973,0.5107-0.4731,0.5254
		c-0.271,0.0229-0.5103-0.1963-0.5259-0.4727C5.876,8.9746,5.21,4.9585,3.9536,4.1436C3.707,3.9834,3.4624,3.9644,3.1592,4.0811
		C2.7075,4.2549,2.8633,6.2983,2.9771,7.79c0.1772,2.3301,0.3984,5.2295-0.4819,7.4199c-0.6479,1.6133-0.5327,3.5,0.3018,4.9238
		c0.8667,1.4785,2.4429,2.4053,4.5586,2.6787c1.021,0.1416,4.7031-1.6191,6.8018-2.7529c0.2402-0.1279,0.5449-0.041,0.6777,0.2031
		c0.1309,0.2432,0.04,0.5459-0.2031,0.6777C13.7158,21.4346,9.2104,23.8164,7.4302,23.8164z"/>
	<path d="M15.7197,21H8.2134C6.9932,21,6,19.9902,6,18.748v-16.46C6,1.0479,7.0137,0,8.2134,0h7.5063C16.9561,0,18,1.0479,18,2.2881
		v16.46C18,19.9688,16.9561,21,15.7197,21z M8.2134,1C7.5557,1,7,1.5898,7,2.2881v16.46C7,19.4385,7.5444,20,8.2134,20h7.5063
		C16.4014,20,17,19.415,17,18.748v-16.46C17,1.6138,16.3896,1,15.7197,1H8.2134z"/>
	<path d="M12,19.5195c-0.1304,0-0.25-0.0498-0.3501-0.1396C11.5498,19.2695,11.5,19.1494,11.5,19.0195s0.0498-0.2598,0.1396-0.3496
		c0.2002-0.2002,0.5303-0.1904,0.71-0.0098c0.1006,0.0996,0.1504,0.2295,0.1504,0.3594s-0.0498,0.25-0.1406,0.3506
		C12.25,19.4697,12.1299,19.5195,12,19.5195z"/>
	<path d="M17.418,4H6.5C6.2236,4,6,3.7764,6,3.5S6.2236,3,6.5,3h10.918c0.2764,0,0.5,0.2236,0.5,0.5S17.6943,4,17.418,4z"/>
	<path d="M17.418,18.001H6.5c-0.2764,0-0.5-0.2236-0.5-0.5s0.2236-0.5,0.5-0.5h10.918c0.2764,0,0.5,0.2236,0.5,0.5
		S17.6943,18.001,17.418,18.001z"/>
</g>
<rect fill="none" width="24" height="24"/>
</svg>
