<?xml version="1.0" encoding="utf-8"?>
<!-- Generator: Adobe Illustrator 18.1.0, SVG Export Plug-In . SVG Version: 6.00 Build 0)  -->
<svg version="1.1" id="Layer_1" xmlns="http://www.w3.org/2000/svg" xmlns:xlink="http://www.w3.org/1999/xlink" x="0px" y="0px"
	 width="24px" height="24px" viewBox="0 0 24 24" enable-background="new 0 0 24 24" xml:space="preserve">
<g>
	<path d="M20.6094,11.0244h-1.8477c-0.2764,0-0.5-0.2236-0.5-0.5s0.2236-0.5,0.5-0.5h1.8477c0.2764,0,0.5,0.2236,0.5,0.5
		S20.8857,11.0244,20.6094,11.0244z"/>
	<path d="M19.5977,7.998h-1.3271c-0.2764,0-0.5-0.2236-0.5-0.5s0.2236-0.5,0.5-0.5h1.3271c0.2764,0,0.5,0.2236,0.5,0.5
		S19.874,7.998,19.5977,7.998z"/>
	<path d="M18.4287,4.9717h-0.708c-0.2764,0-0.5-0.2236-0.5-0.5s0.2236-0.5,0.5-0.5h0.708c0.624,0,1.0107-0.4873,1.0107-0.939
		c0-0.4756-0.4375-0.7598-1.1689-0.7598c-0.0752-0.001-6.3838-0.0889-11.606,1.6958C6.4033,4.0552,6.1187,3.9185,6.0298,3.6572
		C5.9404,3.396,6.0801,3.1118,6.3413,3.0225c5.394-1.8433,11.6792-1.7524,11.938-1.7495c1.4893,0,2.1602,0.8838,2.1602,1.7598
		C20.4395,3.9653,19.6709,4.9717,18.4287,4.9717z"/>
	<path d="M12.1025,22.6357c-0.2148,0-0.4209-0.0449-0.6099-0.1367c-0.5728-0.2783-0.8594-0.917-0.7866-1.752
		c0.3354-3.8486-4.4639-7.6807-4.5127-7.7188c-0.2168-0.1709-0.2539-0.4854-0.083-0.7021c0.1704-0.2158,0.4854-0.2539,0.7017-0.083
		c0.2158,0.1689,5.2729,4.2021,4.8901,8.5898c-0.0342,0.3945,0.0508,0.6807,0.2275,0.7666
		c0.1875,0.0918,0.5752,0.0137,0.9844-0.3701c1.0713-1.0049,1.7549-3.5703,0.1523-7.4893
		c-0.0625-0.1543-0.0449-0.3301,0.0479-0.4678c0.0928-0.1387,0.248-0.2217,0.415-0.2217h7.2363
		c0.3252,0,0.5811-0.1025,0.7607-0.3047c0.1592-0.1797,0.251-0.4375,0.251-0.707c0-0.377-0.2129-1.0146-1.0117-1.0146h-0.1562
		c-0.2764,0-0.5-0.2236-0.5-0.5s0.2236-0.5,0.5-0.5c0.3252,0,0.5811-0.1025,0.7607-0.3042c0.1592-0.1802,0.251-0.4375,0.251-0.7075
		c0-0.377-0.2129-1.0146-1.0117-1.0146h-1.0117c-0.2764,0-0.5-0.2236-0.5-0.5s0.2236-0.5,0.5-0.5
		c0.3252,0,0.5801-0.1025,0.7598-0.3047c0.1602-0.1797,0.252-0.4375,0.252-0.707c0-0.377-0.2129-1.0146-1.0117-1.0146
		l-1.1689,0.0005l0,0c-0.2764,0-0.5-0.2236-0.5-0.5c0-0.2759,0.2236-0.5,0.5-0.5l1.1689-0.0005
		c1.3203,0,2.0117,1.0137,2.0117,2.0146c0,0.4053-0.1094,0.7915-0.3125,1.1157c0.8721,0.2827,1.3242,1.1006,1.3242,1.9106
		c0,0.519-0.1787,1.0059-0.5039,1.3716c-0.0195,0.0225-0.041,0.0454-0.0635,0.0684c0.4775,0.3882,0.7236,0.9897,0.7236,1.5864
		c0,0.5186-0.1787,1.0059-0.5039,1.3721c-0.2598,0.292-0.7314,0.6396-1.5078,0.6396h-6.5088
		c1.4385,4.0039,0.6338,6.6953-0.6592,7.9082C13.127,22.4014,12.5928,22.6357,12.1025,22.6357z"/>
	<path d="M6.5,14h-6C0.2236,14,0,13.7764,0,13.5v-12C0,1.2236,0.2236,1,0.5,1h6C6.7764,1,7,1.2236,7,1.5v12
		C7,13.7764,6.7764,14,6.5,14z M1,13h5V2H1V13z"/>
</g>
<rect fill="none" width="24" height="24"/>
</svg>
