<?xml version="1.0" encoding="utf-8"?>
<!-- Generator: Adobe Illustrator 18.1.0, SVG Export Plug-In . SVG Version: 6.00 Build 0)  -->
<svg version="1.1" id="Layer_1" xmlns="http://www.w3.org/2000/svg" xmlns:xlink="http://www.w3.org/1999/xlink" x="0px" y="0px"
	 width="24px" height="24px" viewBox="0 0 24 24" enable-background="new 0 0 24 24" xml:space="preserve">
<g>
	<g>
		<path fill="none" stroke="#000000" stroke-linecap="round" stroke-linejoin="round" stroke-miterlimit="10" d="M22.1055,16.647"/>
		<path d="M22.1055,17.1475c-0.1328,0-0.2666-0.0527-0.3643-0.1582c-1.1484-1.2227-3.7949-4.6465-3.583-10.0132
			c0.0928-2.313-0.8945-4.0112-2.9336-5.0479c-1.9814-1.0059-4.3442-1.0059-6.3242,0C6.8613,2.9644,5.874,4.6626,5.9658,6.9756
			c0.2129,5.3711-2.4346,8.792-3.5825,10.0137c-0.1885,0.2012-0.5059,0.2109-0.7065,0.0215
			c-0.2012-0.1895-0.2109-0.5059-0.022-0.707c1.0615-1.1289,3.5098-4.2959,3.312-9.2881c-0.1357-3.4111,1.8179-5.1343,3.4805-5.979
			c2.2642-1.1489,4.9658-1.1499,7.2305,0c1.6621,0.8452,3.6152,2.5688,3.4805,5.9795c-0.1982,4.9888,2.25,8.1577,3.3115,9.2896
			c0.1895,0.2012,0.1797,0.5176-0.0225,0.7061C22.3516,17.1025,22.2285,17.1475,22.1055,17.1475z"/>
		<path fill="none" stroke="#000000" stroke-linecap="round" stroke-linejoin="round" stroke-miterlimit="10" d="M2.0192,16.647"/>
		<path d="M12.0615,20.4658c-3.7759,0-7.5508-1.1436-10.3584-3.4307c-0.2139-0.1748-0.2461-0.4893-0.0718-0.7031
			s0.4893-0.2461,0.7036-0.0723c5.2725,4.2959,14.1807,4.2939,19.4551,0c0.2129-0.1729,0.5293-0.1436,0.7031,0.0723
			c0.1748,0.2139,0.1426,0.5283-0.0723,0.7031C19.6143,19.3223,15.8369,20.4658,12.0615,20.4658z"/>
		<path fill="none" stroke="#000000" stroke-linecap="round" stroke-linejoin="round" stroke-miterlimit="10" d="M2.0192,16.647"/>
		<path fill="none" stroke="#000000" stroke-linecap="round" stroke-linejoin="round" stroke-miterlimit="10" d="M22.1055,16.647"/>
	</g>
	<path d="M12.0615,23.8232c-1.522,0-2.7603-1.0254-2.7603-2.2861c0-0.2764,0.2236-0.5,0.5-0.5s0.5,0.2236,0.5,0.5
		c0,0.6973,0.8062,1.2861,1.7603,1.2861c0.9551,0,1.7617-0.5889,1.7617-1.2861c0-0.2764,0.2236-0.5,0.5-0.5s0.5,0.2236,0.5,0.5
		C14.8232,22.7979,13.584,23.8232,12.0615,23.8232z"/>
</g>
<rect x="-0.0136" y="0.0002" fill="none" width="24" height="24"/>
</svg>
