<?xml version="1.0" encoding="utf-8"?>
<!-- Generator: Adobe Illustrator 18.1.0, SVG Export Plug-In . SVG Version: 6.00 Build 0)  -->
<svg version="1.1" id="Layer_1" xmlns="http://www.w3.org/2000/svg" xmlns:xlink="http://www.w3.org/1999/xlink" x="0px" y="0px"
	 width="24px" height="24px" viewBox="0 0 24 24" enable-background="new 0 0 24 24" xml:space="preserve">
<g>
	<path d="M11.5405,23.7822c-2.8057,0-5.6455-0.8164-5.6455-2.376c0-1.0791,1.3975-1.9189,3.7388-2.2451
		c0.2671-0.0381,0.5259,0.1523,0.564,0.4258s-0.1523,0.5264-0.4263,0.5645c-1.9624,0.2734-2.8765,0.9111-2.8765,1.2549
		c0,0.4668,1.6396,1.376,4.6455,1.376c3.0054,0,4.645-0.9092,4.645-1.376c0-0.3379-0.8965-0.9678-2.8213-1.2461
		c-0.2734-0.04-0.4629-0.2939-0.4238-0.5664c0.04-0.2744,0.3086-0.458,0.5664-0.4238c2.3037,0.334,3.6787,1.1699,3.6787,2.2363
		C17.1855,22.9658,14.3457,23.7822,11.5405,23.7822z"/>
	<path d="M11.54,21.9062c-0.2764,0-0.5-0.2236-0.5-0.5V0.7358c0-0.2764,0.2236-0.5,0.5-0.5s0.5,0.2236,0.5,0.5v20.6704
		C12.04,21.6826,11.8164,21.9062,11.54,21.9062z"/>
	<path d="M11.54,7.8657c-0.0908,0-0.1812-0.0244-0.2607-0.0737C11.1304,7.7012,11.04,7.54,11.04,7.3657V0.7354
		c0-0.1743,0.0903-0.3354,0.2393-0.4263c0.1484-0.0918,0.333-0.0981,0.4883-0.019l6.4854,3.3149
		c0.167,0.0854,0.2725,0.2573,0.2725,0.4453s-0.1055,0.3599-0.2725,0.4453L11.7676,7.811
		C11.6958,7.8477,11.6182,7.8657,11.54,7.8657z M12.04,1.5522v4.9961l4.8867-2.498L12.04,1.5522z"/>
</g>
<rect x="-0.0061" fill="none" width="24" height="24"/>
</svg>
