<?xml version="1.0" encoding="utf-8"?>
<!-- Generator: Adobe Illustrator 18.1.0, SVG Export Plug-In . SVG Version: 6.00 Build 0)  -->
<svg version="1.1" id="Layer_1" xmlns="http://www.w3.org/2000/svg" xmlns:xlink="http://www.w3.org/1999/xlink" x="0px" y="0px"
	 width="24px" height="24px" viewBox="0 0 24 24" enable-background="new 0 0 24 24" xml:space="preserve">
<g>
	<g>
		<path d="M21.5,24h-19C2.2236,24,2,23.7764,2,23.5V9.6597c0-0.2764,0.2236-0.5,0.5-0.5S3,9.3833,3,9.6597V23h18V9.6489
			c0-0.2764,0.2236-0.5,0.5-0.5s0.5,0.2236,0.5,0.5V23.5C22,23.7764,21.7764,24,21.5,24z"/>
		<path d="M20.5,9.2905c-0.2764,0-0.5-0.2236-0.5-0.5V3h-4v1.4961c0,0.2764-0.2236,0.5-0.5,0.5s-0.5-0.2236-0.5-0.5V2.5
			C15,2.2236,15.2236,2,15.5,2h5C20.7764,2,21,2.2236,21,2.5v6.2905C21,9.0669,20.7764,9.2905,20.5,9.2905z"/>
		<path d="M23.4561,11.8286c-0.1152,0-0.2314-0.0396-0.3262-0.1206l-11.124-9.5532L0.8818,11.708
			c-0.208,0.1802-0.5234,0.1567-0.7051-0.0537c-0.1797-0.2095-0.1558-0.5249,0.0537-0.7051l11.4497-9.833
			c0.1875-0.1611,0.4644-0.1611,0.6519,0l11.4502,9.833c0.209,0.1802,0.2334,0.4956,0.0527,0.7051
			C23.7363,11.7695,23.5967,11.8286,23.4561,11.8286z"/>
	</g>
	<path d="M15.709,16.208c-0.1338,0-0.2666-0.0527-0.3652-0.1582c-0.877-0.9375-2.0625-1.4531-3.3369-1.4531
		c-1.2759,0-2.4614,0.5156-3.3394,1.4531c-0.1895,0.2012-0.5049,0.2109-0.7065,0.0234c-0.2017-0.1895-0.2119-0.5059-0.0229-0.707
		c1.0684-1.1406,2.5137-1.7695,4.0688-1.7695l0,0c1.5537,0,2.999,0.6289,4.0674,1.7695c0.1885,0.2012,0.1777,0.5176-0.0234,0.707
		C15.9541,16.1631,15.832,16.208,15.709,16.208z"/>
	<path d="M17.5049,14.4131c-0.1318,0-0.2627-0.0518-0.3613-0.1543c-1.3584-1.4199-3.1836-2.2012-5.1387-2.2012
		c-1.9536,0-3.7773,0.7822-5.1357,2.2012c-0.1909,0.2002-0.5083,0.2061-0.707,0.0156c-0.1997-0.1914-0.2065-0.5078-0.0156-0.707
		c1.5488-1.6182,3.6294-2.5093,5.8584-2.5098c2.2305,0,4.3115,0.8911,5.8613,2.5098c0.1904,0.1992,0.1836,0.5156-0.0156,0.707
		C17.7539,14.3672,17.6289,14.4131,17.5049,14.4131z"/>
	<path d="M10.0981,18.0029c-0.1172,0-0.2349-0.041-0.3296-0.124c-0.2075-0.1816-0.2285-0.498-0.0464-0.7051
		c0.5781-0.6602,1.4102-1.0381,2.2837-1.0381c0.873,0,1.7061,0.3779,2.2842,1.0371c0.1816,0.208,0.1611,0.5244-0.0459,0.7061
		c-0.209,0.1816-0.5244,0.1621-0.7061-0.0459c-0.7783-0.8867-2.2876-0.8857-3.064-0.001
		C10.3755,17.9453,10.2368,18.0029,10.0981,18.0029z"/>
	<path d="M12.0098,19.9795c-0.1299,0-0.2598-0.0596-0.3501-0.1494c-0.0996-0.1006-0.1499-0.2207-0.1499-0.3506
		s0.0503-0.2598,0.1401-0.3594c0.1899-0.1807,0.5298-0.1807,0.7095,0.0098c0.0908,0.0801,0.1504,0.21,0.1504,0.3496
		c0,0.1299-0.0596,0.2607-0.1504,0.3506C12.2695,19.9199,12.1396,19.9795,12.0098,19.9795z"/>
</g>
<rect fill="none" width="24" height="24"/>
</svg>
