<?xml version="1.0" encoding="utf-8"?>
<!-- Generator: Adobe Illustrator 18.1.0, SVG Export Plug-In . SVG Version: 6.00 Build 0)  -->
<svg version="1.1" id="Layer_1" xmlns="http://www.w3.org/2000/svg" xmlns:xlink="http://www.w3.org/1999/xlink" x="0px" y="0px"
	 width="24px" height="24px" viewBox="0 0 24 24" enable-background="new 0 0 24 24" xml:space="preserve">
<g>
	<path d="M12.0156,23.75c-6.4829,0-11.7568-5.2734-11.7568-11.7559S5.5327,0.2378,12.0156,0.2378
		c6.4824,0,11.7559,5.2739,11.7559,11.7563S18.498,23.75,12.0156,23.75z M12.0156,1.2378c-5.9312,0-10.7568,4.8252-10.7568,10.7563
		c0,5.9307,4.8257,10.7559,10.7568,10.7559c5.9307,0,10.7559-4.8252,10.7559-10.7559C22.7715,6.063,17.9463,1.2378,12.0156,1.2378z"
		/>
	<path d="M9.5151,17.9785c-0.2764,0-0.5-0.2236-0.5-0.5V6.5278c0-0.2764,0.2236-0.5,0.5-0.5s0.5,0.2236,0.5,0.5v10.9507
		C10.0151,17.7549,9.7915,17.9785,9.5151,17.9785z"/>
	<path d="M10.5151,7.0278c-0.2764,0-0.5-0.2236-0.5-0.5V4.6055c0-0.2764,0.2236-0.5,0.5-0.5s0.5,0.2236,0.5,0.5v1.9224
		C11.0151,6.8042,10.7915,7.0278,10.5151,7.0278z"/>
	<path d="M10.5151,19.8828c-0.2764,0-0.5-0.2236-0.5-0.5v-1.9043c0-0.2764,0.2236-0.5,0.5-0.5s0.5,0.2236,0.5,0.5v1.9043
		C11.0151,19.6592,10.7915,19.8828,10.5151,19.8828z"/>
	<path d="M12.5156,7.0278c-0.2764,0-0.5-0.2236-0.5-0.5V4.6055c0-0.2764,0.2236-0.5,0.5-0.5s0.5,0.2236,0.5,0.5v1.9224
		C13.0156,6.8042,12.792,7.0278,12.5156,7.0278z"/>
	<path d="M12.5156,19.8828c-0.2764,0-0.5-0.2236-0.5-0.5v-1.9043c0-0.2764,0.2236-0.5,0.5-0.5s0.5,0.2236,0.5,0.5v1.9043
		C13.0156,19.6592,12.792,19.8828,12.5156,19.8828z"/>
	<path d="M13.5713,12.165c-0.1387,0-0.2803-0.0068-0.4238-0.0195c-0.2754-0.0254-0.4775-0.269-0.4521-0.5439
		c0.0264-0.2754,0.2783-0.4795,0.5439-0.4521c1.0068,0.0923,1.8535-0.2427,2.3105-0.9229c0.3828-0.5693,0.4277-1.2939,0.1172-1.8911
		c-0.4229-0.8149-1.3945-1.2793-2.7373-1.3076h-4.604c-0.2764,0-0.5-0.2236-0.5-0.5s0.2236-0.5,0.5-0.5h4.6147
		c1.7109,0.0361,3.0244,0.7095,3.6143,1.8467c0.4785,0.9219,0.4111,2.0371-0.1758,2.9102
		C15.7812,11.6743,14.7725,12.165,13.5713,12.165z"/>
	<path fill="none" stroke="#000000" stroke-linecap="round" stroke-linejoin="round" d="M9.5711,17.4785"/>
	<path d="M8.3257,17.9785c-0.2764,0-0.5-0.2236-0.5-0.5s0.2236-0.5,0.5-0.5h5.48c1.7051-0.0205,2.4697-1.2344,2.4688-2.4277
		c-0.001-1.1455-0.7266-2.3867-2.3184-2.4033H9.5713c-0.2764,0-0.5-0.2236-0.5-0.5s0.2236-0.5,0.5-0.5h4.3896
		c2.1758,0.0229,3.3125,1.7295,3.3135,3.4023c0.001,1.6318-1.082,3.4004-3.4629,3.4287H8.3257z"/>
</g>
<rect x="-0.0091" fill="none" width="24" height="24"/>
</svg>
