<?xml version="1.0" encoding="utf-8"?>
<!-- Generator: Adobe Illustrator 18.1.0, SVG Export Plug-In . SVG Version: 6.00 Build 0)  -->
<svg version="1.1" id="Layer_1" xmlns="http://www.w3.org/2000/svg" xmlns:xlink="http://www.w3.org/1999/xlink" x="0px" y="0px"
	 width="24px" height="24px" viewBox="0 0 24 24" enable-background="new 0 0 24 24" xml:space="preserve">
<g>
	<path d="M20.5195,5.0098h-4c-0.2764,0-0.5-0.2236-0.5-0.5v-4c0-0.2764,0.2236-0.5,0.5-0.5s0.5,0.2236,0.5,0.5v3.5h3.5
		c0.2764,0,0.5,0.2236,0.5,0.5S20.7959,5.0098,20.5195,5.0098z"/>
	<path d="M19.7275,24.0098H4.3066c-0.71,0-1.2876-0.583-1.2876-1.2998V1.3154c0-0.7197,0.5776-1.3057,1.2876-1.3057h12.2129
		c0.418,0,0.6406,0.2192,0.8027,0.3789l3.3125,3.2686c0.1787,0.1772,0.3848,0.4341,0.3848,0.8525V22.71
		C21.0195,23.4268,20.4404,24.0098,19.7275,24.0098z M16.5127,1.0029L4.3066,1.0098c-0.1558,0-0.2876,0.1401-0.2876,0.3057V22.71
		c0,0.1621,0.1318,0.2998,0.2876,0.2998h15.4209c0.1582,0,0.292-0.1377,0.292-0.2998V4.5098c0-0.0352,0-0.0542-0.0879-0.1406
		l-3.3125-3.2686C16.5918,1.0728,16.5332,1.0151,16.5127,1.0029z"/>
	<path d="M14.3955,19.0449h-4.792c-0.791,0-1.4346-0.7041-1.4346-1.5693L7.7578,12.584c-0.002-0.9072,0.6416-1.6113,1.4321-1.6113
		h5.6187c0.791,0,1.4346,0.7041,1.4346,1.5693l-0.415,4.9756C15.8301,18.3408,15.1865,19.0449,14.3955,19.0449z M9.1899,11.9727
		c-0.2354,0-0.4341,0.2607-0.4341,0.5693l0.4111,4.8916c0.002,0.3506,0.2012,0.6113,0.4365,0.6113h4.792
		c0.2354,0,0.4346-0.2607,0.4346-0.5693l0.415-4.9756c-0.002-0.2666-0.2012-0.5273-0.4365-0.5273H9.1899z"/>
	<path d="M13.5293,11.9668c-0.2764,0-0.5-0.2236-0.5-0.5v-2.561c0-0.5947-0.4619-1.0786-1.0293-1.0786s-1.0293,0.4839-1.0293,1.0786
		v2.561c0,0.2764-0.2236,0.5-0.5,0.5s-0.5-0.2236-0.5-0.5v-2.561c0-1.146,0.9102-2.0786,2.0293-2.0786s2.0293,0.9326,2.0293,2.0786
		v2.561C14.0293,11.7432,13.8057,11.9668,13.5293,11.9668z"/>
	<path d="M11.9995,16.7754c-0.2764,0-0.5-0.2236-0.5-0.5v-1.2666c0-0.2764,0.2236-0.5,0.5-0.5c0.2759,0,0.5005,0.2236,0.5005,0.5
		v1.2666C12.5,16.5518,12.2754,16.7754,11.9995,16.7754z"/>
</g>
<rect y="0.0001" fill="none" width="24" height="24"/>
</svg>
