<?xml version="1.0" encoding="utf-8"?>
<!-- Generator: Adobe Illustrator 18.1.0, SVG Export Plug-In . SVG Version: 6.00 Build 0)  -->
<svg version="1.1" id="Layer_1" xmlns="http://www.w3.org/2000/svg" xmlns:xlink="http://www.w3.org/1999/xlink" x="0px" y="0px"
	 width="24px" height="24px" viewBox="0 0 24 24" enable-background="new 0 0 24 24" xml:space="preserve">
<g>
	<path d="M19.5371,17.0723c-2.0039,0-3.5156-0.8184-3.5156-1.9043c0-0.2764,0.2236-0.5,0.5-0.5s0.5,0.2236,0.5,0.5
		c0,0.3184,0.9551,0.9043,2.5156,0.9043c1.5596,0,2.5146-0.5859,2.5146-0.9043c0-0.2764,0.2236-0.5,0.5-0.5s0.5,0.2236,0.5,0.5
		C23.0518,16.2539,21.541,17.0723,19.5371,17.0723z"/>
	<path d="M19.5371,18.8359c-2.0039,0-3.5156-0.8184-3.5156-1.9043c0-0.2764,0.2236-0.5,0.5-0.5s0.5,0.2236,0.5,0.5
		c0,0.3184,0.9551,0.9043,2.5156,0.9043c1.5596,0,2.5146-0.5859,2.5146-0.9043c0-0.2764,0.2236-0.5,0.5-0.5s0.5,0.2236,0.5,0.5
		C23.0518,18.0176,21.541,18.8359,19.5371,18.8359z"/>
	<path d="M19.5371,20.5996c-2.0039,0-3.5156-0.8193-3.5156-1.9053v-5.29c0-0.2764,0.2236-0.5,0.5-0.5s0.5,0.2236,0.5,0.5v5.29
		c0,0.3193,0.9551,0.9053,2.5156,0.9053c1.5596,0,2.5146-0.5859,2.5146-0.9053v-5.29c0-0.2764,0.2236-0.5,0.5-0.5
		s0.5,0.2236,0.5,0.5v5.29C23.0518,19.7803,21.541,20.5996,19.5371,20.5996z"/>
	<path d="M19.5371,15.3096c-2.0039,0-3.5156-0.8193-3.5156-1.9053s1.5117-1.9048,3.5156-1.9048s3.5146,0.8188,3.5146,1.9048
		S21.541,15.3096,19.5371,15.3096z M19.5371,12.499c-1.5605,0-2.5156,0.5859-2.5156,0.9053s0.9551,0.9053,2.5156,0.9053
		c1.5596,0,2.5146-0.5859,2.5146-0.9053S21.0967,12.499,19.5371,12.499z"/>
	<g>
		<path d="M3.5986,8.4868c-2.0039,0-3.5151-0.8188-3.5151-1.9048c0-0.2764,0.2236-0.5,0.5-0.5s0.5,0.2236,0.5,0.5
			c0,0.3188,0.9551,0.9048,2.5151,0.9048S6.1138,6.9009,6.1138,6.582c0-0.2764,0.2236-0.5,0.5-0.5s0.5,0.2236,0.5,0.5
			C7.1138,7.668,5.6025,8.4868,3.5986,8.4868z"/>
		<path d="M3.5986,10.25c-2.0039,0-3.5151-0.8188-3.5151-1.9043c0-0.2764,0.2236-0.5,0.5-0.5s0.5,0.2236,0.5,0.5
			c0,0.3188,0.9551,0.9043,2.5151,0.9043s2.5151-0.5854,2.5151-0.9043c0-0.2764,0.2236-0.5,0.5-0.5s0.5,0.2236,0.5,0.5
			C7.1138,9.4312,5.6025,10.25,3.5986,10.25z"/>
		<path d="M3.5986,12.0137c-2.0039,0-3.5151-0.8188-3.5151-1.9048c0-0.2764,0.2236-0.5,0.5-0.5s0.5,0.2236,0.5,0.5
			c0,0.3188,0.9551,0.9048,2.5151,0.9048s2.5151-0.5859,2.5151-0.9048c0-0.2764,0.2236-0.5,0.5-0.5s0.5,0.2236,0.5,0.5
			C7.1138,11.1948,5.6025,12.0137,3.5986,12.0137z"/>
		<path d="M3.5986,13.7773c-2.0039,0-3.5151-0.8193-3.5151-1.9048c0-0.2764,0.2236-0.5,0.5-0.5s0.5,0.2236,0.5,0.5
			c0,0.3188,0.9551,0.9048,2.5151,0.9048s2.5151-0.5859,2.5151-0.9048c0-0.2764,0.2236-0.5,0.5-0.5s0.5,0.2236,0.5,0.5
			C7.1138,12.958,5.6025,13.7773,3.5986,13.7773z"/>
		<path d="M3.5986,15.54c-2.0039,0-3.5151-0.8184-3.5151-1.9043c0-0.2764,0.2236-0.5,0.5-0.5s0.5,0.2236,0.5,0.5
			c0,0.3184,0.9551,0.9043,2.5151,0.9043s2.5151-0.5859,2.5151-0.9043c0-0.2764,0.2236-0.5,0.5-0.5s0.5,0.2236,0.5,0.5
			C7.1138,14.7217,5.6025,15.54,3.5986,15.54z"/>
		<path d="M3.5986,17.3037c-2.0039,0-3.5151-0.8184-3.5151-1.9043c0-0.2764,0.2236-0.5,0.5-0.5s0.5,0.2236,0.5,0.5
			c0,0.3184,0.9551,0.9043,2.5151,0.9043s2.5151-0.5859,2.5151-0.9043c0-0.2764,0.2236-0.5,0.5-0.5s0.5,0.2236,0.5,0.5
			C7.1138,16.4854,5.6025,17.3037,3.5986,17.3037z"/>
		<path d="M3.5986,19.0674c-2.0039,0-3.5151-0.8184-3.5151-1.9043c0-0.2764,0.2236-0.5,0.5-0.5s0.5,0.2236,0.5,0.5
			c0,0.3184,0.9551,0.9043,2.5151,0.9043s2.5151-0.5859,2.5151-0.9043c0-0.2764,0.2236-0.5,0.5-0.5s0.5,0.2236,0.5,0.5
			C7.1138,18.249,5.6025,19.0674,3.5986,19.0674z"/>
		<path d="M3.5986,20.8311c-2.0039,0-3.5151-0.8193-3.5151-1.9053V4.7886c0-0.2764,0.2236-0.5,0.5-0.5s0.5,0.2236,0.5,0.5v14.1372
			c0,0.3193,0.9551,0.9053,2.5151,0.9053s2.5151-0.5859,2.5151-0.9053V4.7886c0-0.2764,0.2236-0.5,0.5-0.5s0.5,0.2236,0.5,0.5
			v14.1372C7.1138,20.0117,5.6025,20.8311,3.5986,20.8311z"/>
		<path d="M3.5986,6.6934c-2.0039,0-3.5151-0.8188-3.5151-1.9048s1.5112-1.9048,3.5151-1.9048s3.5151,0.8188,3.5151,1.9048
			S5.6025,6.6934,3.5986,6.6934z M3.5986,3.8838c-1.5601,0-2.5151,0.5859-2.5151,0.9048s0.9551,0.9048,2.5151,0.9048
			s2.5151-0.5859,2.5151-0.9048S5.1587,3.8838,3.5986,3.8838z"/>
	</g>
	<g>
		<path d="M11.543,14.7861c-2.0039,0-3.5146-0.8184-3.5146-1.9043c0-0.2764,0.2236-0.5,0.5-0.5s0.5,0.2236,0.5,0.5
			c0,0.3184,0.9546,0.9043,2.5146,0.9043c1.5605,0,2.5156-0.5859,2.5156-0.9043c0-0.2764,0.2236-0.5,0.5-0.5s0.5,0.2236,0.5,0.5
			C15.0586,13.9678,13.5469,14.7861,11.543,14.7861z"/>
		<path d="M11.543,16.5498c-2.0039,0-3.5146-0.8184-3.5146-1.9043c0-0.2764,0.2236-0.5,0.5-0.5s0.5,0.2236,0.5,0.5
			c0,0.3184,0.9546,0.9043,2.5146,0.9043c1.5605,0,2.5156-0.5859,2.5156-0.9043c0-0.2764,0.2236-0.5,0.5-0.5s0.5,0.2236,0.5,0.5
			C15.0586,15.7314,13.5469,16.5498,11.543,16.5498z"/>
		<path d="M11.543,18.3135c-2.0039,0-3.5146-0.8193-3.5146-1.9053c0-0.2764,0.2236-0.5,0.5-0.5s0.5,0.2236,0.5,0.5
			c0,0.3193,0.9546,0.9053,2.5146,0.9053c1.5605,0,2.5156-0.5859,2.5156-0.9053c0-0.2764,0.2236-0.5,0.5-0.5s0.5,0.2236,0.5,0.5
			C15.0586,17.4941,13.5469,18.3135,11.543,18.3135z"/>
		<path d="M11.543,20.0762c-2.0039,0-3.5146-0.8184-3.5146-1.9043c0-0.2764,0.2236-0.5,0.5-0.5s0.5,0.2236,0.5,0.5
			c0,0.3184,0.9546,0.9043,2.5146,0.9043c1.5605,0,2.5156-0.5859,2.5156-0.9043c0-0.2764,0.2236-0.5,0.5-0.5s0.5,0.2236,0.5,0.5
			C15.0586,19.2578,13.5469,20.0762,11.543,20.0762z"/>
		<path d="M11.543,21.8398c-2.0039,0-3.5146-0.8184-3.5146-1.9043v-8.8472c0-0.2764,0.2236-0.5,0.5-0.5s0.5,0.2236,0.5,0.5v8.8472
			c0,0.3184,0.9546,0.9043,2.5146,0.9043c1.5605,0,2.5156-0.5859,2.5156-0.9043v-8.8472c0-0.2764,0.2236-0.5,0.5-0.5
			s0.5,0.2236,0.5,0.5v8.8472C15.0586,21.0215,13.5469,21.8398,11.543,21.8398z"/>
		<path d="M11.5435,12.9932c-2.0039,0-3.5151-0.8193-3.5151-1.9048c0-1.0859,1.5112-1.9048,3.5151-1.9048
			c2.0044,0,3.5151,0.8188,3.5151,1.9048C15.0586,12.1738,13.5479,12.9932,11.5435,12.9932z M11.5435,10.1836
			c-1.5601,0-2.5151,0.5859-2.5151,0.9048s0.9551,0.9048,2.5151,0.9048s2.5151-0.5859,2.5151-0.9048
			S13.1035,10.1836,11.5435,10.1836z"/>
	</g>
</g>
<rect x="-0.0136" fill="none" width="24" height="24"/>
</svg>
