<?xml version="1.0" encoding="utf-8"?>
<!-- Generator: Adobe Illustrator 18.1.0, SVG Export Plug-In . SVG Version: 6.00 Build 0)  -->
<svg version="1.1" id="Layer_1" xmlns="http://www.w3.org/2000/svg" xmlns:xlink="http://www.w3.org/1999/xlink" x="0px" y="0px"
	 width="24px" height="24px" viewBox="0 0 24 24" enable-background="new 0 0 24 24" xml:space="preserve">
<g>
	<path d="M3.2954,22.7793L3.2954,22.7793c-1.2002-0.001-1.5034-1.6055-1.7656-5.4443C0.9116,8.2637,3.6636,5.5874,6.0918,3.2261
		l0.271-0.2642c0.6226-0.6094,1.2305-0.9185,1.8076-0.9185c1.147,0,1.7871,1.1938,1.9849,1.8989
		c0.9937,3.5322,1.187,7.6499,1.0508,10.1025c-0.1299,2.3467-0.5186,4.7598-3.6401,6.2109
		c-0.9985,0.4648-1.8018,1.0723-2.4473,1.5596C4.3784,22.375,3.8438,22.7793,3.2954,22.7793z M8.1704,3.0435
		c-0.3018,0-0.6851,0.2192-1.1084,0.6333L6.7891,3.9429c-2.2725,2.21-4.8481,4.7148-4.2612,13.3237
		c0.2407,3.5352,0.5488,4.4053,0.7642,4.5127h0.0034h0.0005c0.2124,0,0.7476-0.4043,1.2197-0.7617
		c0.6831-0.5166,1.5337-1.1592,2.6284-1.668c2.6221-1.2197,2.9453-3.2314,3.064-5.3594c0.106-1.9141,0.0117-6.126-1.0156-9.7778
		C9.1895,4.2017,8.8389,3.0435,8.1704,3.0435z"/>
	<path d="M20.8135,22.7793c-0.5479,0-1.083-0.4043-1.8232-0.9639c-0.6455-0.4873-1.4482-1.0947-2.4473-1.5596
		c-3.1221-1.4512-3.5098-3.8643-3.6396-6.2109c-0.1367-2.4502,0.0557-6.5669,1.0498-10.103
		c0.1973-0.7046,0.8379-1.8984,1.9854-1.8984c0.5771,0,1.1846,0.3091,1.8076,0.9185l0.2715,0.2646
		c2.4277,2.3613,5.1797,5.0376,4.5615,14.1084C22.3174,21.1738,22.0137,22.7793,20.8135,22.7793z M15.9385,3.0435
		c-0.665,0-1.0195,1.1567-1.0225,1.1685c-1.0273,3.6558-1.1211,7.8662-1.0146,9.7773c0.1182,2.1289,0.4404,4.1406,3.0635,5.3604
		c1.0947,0.5088,1.9453,1.1514,2.6289,1.668c0.4717,0.3574,1.0068,0.7617,1.2197,0.7617v0.5l0.0068-0.501
		c0.2119-0.1064,0.5205-0.9775,0.7607-4.5117c0.5869-8.6084-1.9883-11.1133-4.2607-13.3232l-0.2734-0.2666
		C16.624,3.2627,16.2402,3.0435,15.9385,3.0435z"/>
	<path d="M12.0146,8.1001c-0.2764,0-0.5-0.2236-0.5-0.5v-7.8096c0-0.2764,0.2236-0.5,0.5-0.5s0.5,0.2236,0.5,0.5v7.8096
		C12.5146,7.8765,12.291,8.1001,12.0146,8.1001z"/>
	<path d="M6.6011,11.9355L6.106,11.0664c0,0,5.0532-2.8799,5.4141-3.084c-0.0308-0.0049-0.002-0.231-0.0054-0.3706
		c-0.0063-0.2759,0.2124-0.5049,0.4883-0.5117c0.2861,0.0093,0.5049,0.2124,0.5117,0.4883c0.0068,0.2905-0.0283,0.9956-0.502,1.2642
		C11.6514,9.0566,6.6011,11.9355,6.6011,11.9355z"/>
	<path d="M9.1914,10.3882c-0.0972,0-0.1953-0.0283-0.2817-0.0874L6.0713,8.3594c-0.228-0.1558-0.2861-0.4668-0.1304-0.6948
		s0.4668-0.2861,0.6948-0.1304l2.8384,1.9414c0.228,0.1558,0.2861,0.4668,0.1304,0.6948
		C9.5078,10.312,9.3511,10.3882,9.1914,10.3882z"/>
	<path d="M8.626,13.3936c-0.0308,0-0.062-0.0029-0.0933-0.0088c-0.271-0.0508-0.4497-0.3125-0.3984-0.584l0.5664-3.0054
		c0.0508-0.271,0.3135-0.4473,0.584-0.3984c0.271,0.0508,0.4497,0.3125,0.3984,0.584l-0.5664,3.0054
		C9.0718,13.2266,8.8618,13.3936,8.626,13.3936z"/>
	<path d="M17.7139,12.001c-0.084,0-0.168-0.021-0.2461-0.0645c-0.207-0.1172-5.0791-2.8706-5.4355-3.0972
		c-0.4175-0.2656-0.5005-0.9346-0.5166-1.21c-0.0166-0.2749,0.1934-0.5107,0.4683-0.5278c0.3022-0.0146,0.5122,0.1929,0.5298,0.4678
		c0.0117,0.1792,0.0625,0.4072,0.1055,0.4697c0.2275,0.1328,3.9355,2.2324,5.3408,3.0264c0.2402,0.1362,0.3252,0.4409,0.1895,0.6816
		C18.0576,11.9097,17.8877,12.001,17.7139,12.001z"/>
	<path d="M14.875,10.3882c-0.1592,0-0.3154-0.0762-0.4131-0.2178c-0.1553-0.228-0.0967-0.5391,0.1309-0.6948l2.8389-1.9414
		c0.2275-0.1553,0.5391-0.0972,0.6953,0.1304c0.1553,0.228,0.0967,0.5391-0.1309,0.6948l-2.8389,1.9414
		C15.0713,10.3599,14.9727,10.3882,14.875,10.3882z"/>
	<path d="M15.4404,13.3936c-0.2354,0-0.4453-0.167-0.4902-0.4072L14.3838,9.981c-0.0518-0.2715,0.127-0.5332,0.3984-0.584
		c0.2666-0.0508,0.5332,0.127,0.584,0.3984l0.5664,3.0054c0.0518,0.2715-0.127,0.5332-0.3984,0.584
		C15.5029,13.3906,15.4717,13.3936,15.4404,13.3936z"/>
</g>
<rect x="0.0142" y="-0.9654" fill="none" width="24" height="24"/>
</svg>
