<?xml version="1.0" encoding="utf-8"?>
<!-- Generator: Adobe Illustrator 18.1.0, SVG Export Plug-In . SVG Version: 6.00 Build 0)  -->
<svg version="1.1" id="Layer_1" xmlns="http://www.w3.org/2000/svg" xmlns:xlink="http://www.w3.org/1999/xlink" x="0px" y="0px"
	 width="24px" height="24px" viewBox="0 0 24 24" enable-background="new 0 0 24 24" xml:space="preserve">
<g>
	<path d="M12.0332,22.8076c-0.1279,0-0.2559-0.0488-0.3535-0.1465l-9.6274-9.627c-2.4702-2.4702-2.4702-6.4888,0-8.959
		c1.1797-1.1797,2.8052-1.856,4.46-1.856c1.7036,0,3.3521,0.71,4.6421,1.999c0.1294,0.1294,0.1777,0.3193,0.126,0.4951
		l-1.0044,3.3965l1.7119,1.835c0.0874,0.0938,0.1353,0.2168,0.1343,0.3447l-0.0146,2.1372l0.7119-2.001l-0.9805-2.8931
		c-0.0352-0.1045-0.0352-0.2173,0.0005-0.3218L12.79,4.4131c0.0244-0.0723,0.0654-0.1382,0.1201-0.1924
		c1.291-1.2915,2.9404-2.0024,4.6436-2.0024c1.6543,0,3.2803,0.6768,4.46,1.8569c1.1973,1.1963,1.8564,2.7876,1.8564,4.4795
		s-0.6592,3.2832-1.8564,4.4795l-9.627,9.627C12.2891,22.7588,12.1611,22.8076,12.0332,22.8076z M6.5122,3.2192
		c-1.3916,0-2.7593,0.5698-3.7529,1.563c-2.0801,2.0801-2.0801,5.4648,0,7.5449l9.2739,9.2734l9.2734-9.2734
		c1.0078-1.0078,1.5635-2.3477,1.5635-3.7725S22.3145,5.79,21.3066,4.7822c-0.9941-0.9941-2.3623-1.564-3.7529-1.564
		c-1.4219,0-2.7529,0.563-3.8545,1.6294l-0.8584,2.5249l0.9814,2.8965c0.0361,0.1069,0.0352,0.2222-0.0029,0.3281l-1.7617,4.9517
		c-0.0815,0.2295-0.3169,0.3662-0.5581,0.3242c-0.2402-0.042-0.4146-0.252-0.4131-0.4961l0.0342-4.8955l-1.771-1.8979
		C9.229,8.4536,9.1855,8.27,9.2358,8.1006l0.999-3.3784C9.1597,3.7378,7.8784,3.2192,6.5122,3.2192z"/>
</g>
<rect x="0.0293" y="-0.0001" fill="none" width="24" height="24"/>
</svg>
