<?xml version="1.0" encoding="utf-8"?>
<!-- Generator: Adobe Illustrator 18.1.0, SVG Export Plug-In . SVG Version: 6.00 Build 0)  -->
<svg version="1.1" id="Layer_1" xmlns="http://www.w3.org/2000/svg" xmlns:xlink="http://www.w3.org/1999/xlink" x="0px" y="0px"
	 width="24px" height="24px" viewBox="0 0 24 24" enable-background="new 0 0 24 24" xml:space="preserve">
<g>
	<path d="M23.0146,5.0352H12.3438c-0.2764,0-0.5-0.2236-0.5-0.5s0.2236-0.5,0.5-0.5h10.6709c0.2764,0,0.5,0.2236,0.5,0.5
		S23.291,5.0352,23.0146,5.0352z"/>
	<path d="M9.627,5.0352H8.4468c-0.2764,0-0.5-0.2236-0.5-0.5s0.2236-0.5,0.5-0.5H9.627c0.2764,0,0.5,0.2236,0.5,0.5
		S9.9033,5.0352,9.627,5.0352z"/>
	<path d="M5.73,5.0352H4.5503c-0.2764,0-0.5-0.2236-0.5-0.5s0.2236-0.5,0.5-0.5H5.73c0.2764,0,0.5,0.2236,0.5,0.5
		S6.0063,5.0352,5.73,5.0352z"/>
	<path d="M1.8335,5.0352H1.0142c-0.2764,0-0.5-0.2236-0.5-0.5s0.2236-0.5,0.5-0.5h0.8193c0.2764,0,0.5,0.2236,0.5,0.5
		S2.1099,5.0352,1.8335,5.0352z"/>
	<path d="M3.1919,6.377c-1.0249,0-1.8584-0.8335-1.8584-1.8584S2.167,2.6602,3.1919,2.6602s1.8584,0.8335,1.8584,1.8584
		S4.2168,6.377,3.1919,6.377z M3.1919,3.6602c-0.4731,0-0.8584,0.3853-0.8584,0.8584S2.7188,5.377,3.1919,5.377
		s0.8584-0.3853,0.8584-0.8584S3.665,3.6602,3.1919,3.6602z"/>
	<path d="M7.0884,6.377C6.0635,6.377,5.23,5.5435,5.23,4.5186s0.8335-1.8584,1.8584-1.8584s1.8584,0.8335,1.8584,1.8584
		S8.1133,6.377,7.0884,6.377z M7.0884,3.6602c-0.4731,0-0.8584,0.3853-0.8584,0.8584S6.6152,5.377,7.0884,5.377
		s0.8584-0.3853,0.8584-0.8584S7.5615,3.6602,7.0884,3.6602z"/>
	<path d="M10.9849,6.377c-1.0244,0-1.8579-0.8335-1.8579-1.8584s0.8335-1.8584,1.8579-1.8584c1.0249,0,1.8589,0.8335,1.8589,1.8584
		S12.0098,6.377,10.9849,6.377z M10.9849,3.6602c-0.4731,0-0.8579,0.3853-0.8579,0.8584s0.3848,0.8584,0.8579,0.8584
		c0.4736,0,0.8589-0.3853,0.8589-0.8584S11.4585,3.6602,10.9849,3.6602z"/>
	<path d="M11.6826,19.0352H1.0142c-0.2764,0-0.5-0.2236-0.5-0.5s0.2236-0.5,0.5-0.5h10.6685c0.2764,0,0.5,0.2236,0.5,0.5
		S11.959,19.0352,11.6826,19.0352z"/>
	<path d="M15.5791,19.0352h-1.1797c-0.2764,0-0.5-0.2236-0.5-0.5s0.2236-0.5,0.5-0.5h1.1797c0.2764,0,0.5,0.2236,0.5,0.5
		S15.8555,19.0352,15.5791,19.0352z"/>
	<path d="M19.4766,19.0352h-1.1807c-0.2764,0-0.5-0.2236-0.5-0.5s0.2236-0.5,0.5-0.5h1.1807c0.2764,0,0.5,0.2236,0.5,0.5
		S19.7529,19.0352,19.4766,19.0352z"/>
	<path d="M23.0137,19.0352h-0.8213c-0.2764,0-0.5-0.2236-0.5-0.5s0.2236-0.5,0.5-0.5h0.8213c0.2764,0,0.5,0.2236,0.5,0.5
		S23.29,19.0352,23.0137,19.0352z"/>
	<path d="M20.834,20.3633c-1.0244,0-1.8584-0.834-1.8584-1.8584s0.834-1.8584,1.8584-1.8584s1.8584,0.834,1.8584,1.8584
		S21.8584,20.3633,20.834,20.3633z M20.834,17.6465c-0.4736,0-0.8584,0.3848-0.8584,0.8584s0.3848,0.8584,0.8584,0.8584
		s0.8584-0.3848,0.8584-0.8584S21.3076,17.6465,20.834,17.6465z"/>
	<path d="M16.9375,20.3633c-1.0244,0-1.8584-0.834-1.8584-1.8584s0.834-1.8584,1.8584-1.8584s1.8584,0.834,1.8584,1.8584
		S17.9619,20.3633,16.9375,20.3633z M16.9375,17.6465c-0.4736,0-0.8584,0.3848-0.8584,0.8584s0.3848,0.8584,0.8584,0.8584
		s0.8584-0.3848,0.8584-0.8584S17.4111,17.6465,16.9375,17.6465z"/>
	<path d="M13.041,20.3633c-1.0244,0-1.8584-0.834-1.8584-1.8584s0.834-1.8584,1.8584-1.8584s1.8584,0.834,1.8584,1.8584
		S14.0654,20.3633,13.041,20.3633z M13.041,17.6465c-0.4736,0-0.8584,0.3848-0.8584,0.8584s0.3848,0.8584,0.8584,0.8584
		s0.8584-0.3848,0.8584-0.8584S13.5146,17.6465,13.041,17.6465z"/>
	<path d="M23.0146,12.0352h-4.8262c-0.2764,0-0.5-0.2236-0.5-0.5s0.2236-0.5,0.5-0.5h4.8262c0.2764,0,0.5,0.2236,0.5,0.5
		S23.291,12.0352,23.0146,12.0352z"/>
	<path d="M15.4717,12.0352H14.292c-0.2764,0-0.5-0.2236-0.5-0.5s0.2236-0.5,0.5-0.5h1.1797c0.2764,0,0.5,0.2236,0.5,0.5
		S15.748,12.0352,15.4717,12.0352z"/>
	<path d="M11.5752,12.0352H4.5503c-0.2764,0-0.5-0.2236-0.5-0.5s0.2236-0.5,0.5-0.5h7.0249c0.2764,0,0.5,0.2236,0.5,0.5
		S11.8516,12.0352,11.5752,12.0352z"/>
	<path d="M1.8335,12.0352H1.0142c-0.2764,0-0.5-0.2236-0.5-0.5s0.2236-0.5,0.5-0.5h0.8193c0.2764,0,0.5,0.2236,0.5,0.5
		S2.1099,12.0352,1.8335,12.0352z"/>
	<path d="M3.1919,13.3809c-1.0249,0-1.8584-0.834-1.8584-1.8584c0-1.0249,0.8335-1.8584,1.8584-1.8584s1.8584,0.8335,1.8584,1.8584
		C5.0503,12.5469,4.2168,13.3809,3.1919,13.3809z M3.1919,10.6641c-0.4731,0-0.8584,0.3853-0.8584,0.8584
		s0.3853,0.8584,0.8584,0.8584s0.8584-0.3853,0.8584-0.8584S3.665,10.6641,3.1919,10.6641z"/>
	<path d="M12.9336,13.3809c-1.0249,0-1.8584-0.834-1.8584-1.8584s0.8335-1.8579,1.8584-1.8579c1.0244,0,1.8584,0.8335,1.8584,1.8579
		S13.958,13.3809,12.9336,13.3809z M12.9336,10.6646c-0.4736,0-0.8584,0.3848-0.8584,0.8579s0.3848,0.8584,0.8584,0.8584
		s0.8584-0.3853,0.8584-0.8584S13.4072,10.6646,12.9336,10.6646z"/>
	<path d="M16.8301,13.3809c-1.0244,0-1.8584-0.834-1.8584-1.8584c0-1.0249,0.834-1.8584,1.8584-1.8584s1.8584,0.8335,1.8584,1.8584
		C18.6885,12.5469,17.8545,13.3809,16.8301,13.3809z M16.8301,10.6641c-0.4736,0-0.8584,0.3853-0.8584,0.8584
		s0.3848,0.8584,0.8584,0.8584s0.8584-0.3853,0.8584-0.8584S17.3037,10.6641,16.8301,10.6641z"/>
</g>
<rect x="0.0142" y="0.0354" fill="none" width="24" height="24"/>
</svg>
