<?xml version="1.0" encoding="utf-8"?>
<!-- Generator: Adobe Illustrator 18.1.0, SVG Export Plug-In . SVG Version: 6.00 Build 0)  -->
<svg version="1.1" id="Layer_1" xmlns="http://www.w3.org/2000/svg" xmlns:xlink="http://www.w3.org/1999/xlink" x="0px" y="0px"
	 width="24px" height="24px" viewBox="0 0 24 24" enable-background="new 0 0 24 24" xml:space="preserve">
<g>
	<path d="M16.0195,24.0352H8.0537c-1.1245,0-2.0396-0.8867-2.0396-1.9756v-8.1113c0-4.1807,4.0532-4.8989,5.7842-5.2056
		c1.061-0.1309,2.2134-1.2139,2.2134-2.5659c0-1.0894-0.8867-1.9756-1.9756-1.9756c-1.0898,0-1.9761,0.8862-1.9761,1.9756
		c0,1.1064-0.9009,2.0068-2.0083,2.0068S6.0435,7.2832,6.0435,6.1768c0-3.3037,2.6855-5.9912,5.9868-5.9912
		c3.2998,0,5.9844,2.6836,5.9844,5.9824v15.8916C18.0146,23.167,17.1387,24.0352,16.0195,24.0352z M12.0361,3.2012
		c1.6406,0,2.9756,1.335,2.9756,2.9756c0,1.9014-1.585,3.373-3.0654,3.5542c-1.7065,0.3032-4.9321,0.875-4.9321,4.2173v8.1113
		c0,0.5381,0.4663,0.9756,1.0396,0.9756h7.9658c0.5576,0,0.9951-0.4287,0.9951-0.9756V6.168c0-2.7476-2.2363-4.9824-4.9844-4.9824
		c-2.7495,0-4.9868,2.2393-4.9868,4.9912c0,0.5552,0.4521,1.0068,1.0083,1.0068s1.0083-0.4517,1.0083-1.0068
		C9.0601,4.5361,10.395,3.2012,12.0361,3.2012z"/>
</g>
<rect x="0.0142" y="0.0354" fill="none" width="24" height="24"/>
</svg>
