<?xml version="1.0" encoding="utf-8"?>
<!-- Generator: Adobe Illustrator 18.1.0, SVG Export Plug-In . SVG Version: 6.00 Build 0)  -->
<svg version="1.1" id="Layer_1" xmlns="http://www.w3.org/2000/svg" xmlns:xlink="http://www.w3.org/1999/xlink" x="0px" y="0px"
	 width="24px" height="24px" viewBox="0 0 24 24" enable-background="new 0 0 24 24" xml:space="preserve">
<g>
	<path d="M19.5146,24.0342H4.5142c-0.2764,0-0.5-0.2236-0.5-0.5v-10c0-0.2764,0.2236-0.5,0.5-0.5h15.0005
		c0.2764,0,0.5,0.2236,0.5,0.5v10C20.0146,23.8105,19.791,24.0342,19.5146,24.0342z M5.0142,23.0342h14.0005v-9H5.0142V23.0342z"/>
	<path d="M20.4531,14.0342H3.5273c-0.2764,0-0.5-0.2236-0.5-0.5s0.2236-0.5,0.5-0.5h16.9258c0.2764,0,0.5,0.2236,0.5,0.5
		S20.7295,14.0342,20.4531,14.0342z"/>
	<path d="M20.4531,24.0342H3.5273c-0.2764,0-0.5-0.2236-0.5-0.5s0.2236-0.5,0.5-0.5h16.9258c0.2764,0,0.5,0.2236,0.5,0.5
		S20.7295,24.0342,20.4531,24.0342z"/>
	<path d="M16.5146,22.0342H7.5142c-0.2764,0-0.5-0.2236-0.5-0.5v-6c0-0.2764,0.2236-0.5,0.5-0.5h9.0005c0.2764,0,0.5,0.2236,0.5,0.5
		v6C17.0146,21.8105,16.791,22.0342,16.5146,22.0342z M8.0142,21.0342h8.0005v-5H8.0142V21.0342z"/>
	<path d="M11.9907,8.1724c-0.2764,0-0.5-0.2236-0.5-0.5V6.4277c0-1.3086,1.064-2.373,2.3726-2.373h6.6523
		c0.7568,0,1.373-0.6157,1.373-1.3726c0-0.2764,0.2236-0.5,0.5-0.5s0.5,0.2236,0.5,0.5c0,1.3081-1.0645,2.3726-2.373,2.3726h-6.6523
		c-0.7568,0-1.3721,0.6157-1.3721,1.373v1.2446C12.4912,7.9487,12.2666,8.1724,11.9907,8.1724z"/>
	<path d="M22.3877,3.1821c-0.8154,0-1.4795-0.6641-1.4795-1.48c0-0.8164,0.6641-1.4805,1.4795-1.4805
		c0.8164,0,1.4805,0.6641,1.4805,1.4805C23.8682,2.5181,23.2041,3.1821,22.3877,3.1821z M22.3877,1.2217
		c-0.2646,0-0.4795,0.2153-0.4795,0.4805c0,0.2646,0.2148,0.48,0.4795,0.48s0.4805-0.2153,0.4805-0.48
		C22.8682,1.437,22.6523,1.2217,22.3877,1.2217z"/>
	<path d="M11.9907,19.2998c-0.8037,0-1.4575-0.6533-1.4575-1.457s0.6538-1.458,1.4575-1.458c0.8032,0,1.4575,0.6543,1.4575,1.458
		S12.7939,19.2998,11.9907,19.2998z M11.9907,17.3848c-0.2524,0-0.4575,0.2051-0.4575,0.458c0,0.252,0.2051,0.457,0.4575,0.457
		s0.4575-0.2051,0.4575-0.457C12.4482,17.5898,12.2432,17.3848,11.9907,17.3848z"/>
	<path d="M17.6719,14.0342c-0.2764,0-0.5-0.2236-0.5-0.5c0-2.9565-2.3242-5.3618-5.1812-5.3618s-5.1816,2.4053-5.1816,5.3618
		c0,0.2764-0.2236,0.5-0.5,0.5s-0.5-0.2236-0.5-0.5c0-3.5078,2.7729-6.3618,6.1816-6.3618s6.1812,2.854,6.1812,6.3618
		C18.1719,13.8105,17.9482,14.0342,17.6719,14.0342z"/>
</g>
<rect x="0.0142" y="0.0346" fill="none" width="24" height="24"/>
</svg>
