<?xml version="1.0" encoding="utf-8"?>
<!-- Generator: Adobe Illustrator 18.1.0, SVG Export Plug-In . SVG Version: 6.00 Build 0)  -->
<svg version="1.1" id="Layer_1" xmlns="http://www.w3.org/2000/svg" xmlns:xlink="http://www.w3.org/1999/xlink" x="0px" y="0px"
	 width="24px" height="24px" viewBox="0 0 24 24" enable-background="new 0 0 24 24" xml:space="preserve">
<g>
	<path d="M20.5146,14.5918c-0.2764,0-0.5-0.2236-0.5-0.5V11.397c0-0.751-0.6152-1.3618-1.3721-1.3618H5.3862
		c-0.7563,0-1.3721,0.6108-1.3721,1.3618v2.6948c0,0.2764-0.2236,0.5-0.5,0.5s-0.5-0.2236-0.5-0.5V11.397
		c0-1.3022,1.064-2.3618,2.3721-2.3618h13.2563c1.3076,0,2.3721,1.0596,2.3721,2.3618v2.6948
		C21.0146,14.3682,20.791,14.5918,20.5146,14.5918z"/>
	<path d="M21.9141,20.0352H2.1143c-1.1582,0-2.1001-0.9307-2.1001-2.0752v-3.8682c0-1.0947,0.897-1.9854,2-1.9854
		c1.106,0,2,0.8906,2,1.9854v1.9434h16.0005v-1.9434c0-1.0947,0.8906-1.9854,1.9844-1.9854c1.1182,0,2.0156,0.8906,2.0156,1.9854
		V17.96C24.0146,19.1045,23.0723,20.0352,21.9141,20.0352z M2.0215,13.1064c-0.5586,0-1.0073,0.4424-1.0073,0.9854V17.96
		c0,0.583,0.5039,1.0752,1.1001,1.0752h19.7998c0.5967,0,1.1006-0.4922,1.1006-1.0752v-3.8682c0-0.543-0.4482-0.9854-1-0.9854
		c-0.5586,0-1,0.4424-1,0.9854v2.4434c0,0.2764-0.2236,0.5-0.5,0.5H3.5142c-0.2764,0-0.5-0.2236-0.5-0.5v-2.4434
		C3.0142,13.5488,2.5688,13.1064,2.0215,13.1064z"/>
	<path d="M20.5146,21.9775c-0.2764,0-0.5-0.2236-0.5-0.5v-1.9424c0-0.2764,0.2236-0.5,0.5-0.5s0.5,0.2236,0.5,0.5v1.9424
		C21.0146,21.7539,20.791,21.9775,20.5146,21.9775z"/>
	<path d="M3.5142,21.9775c-0.2764,0-0.5-0.2236-0.5-0.5v-1.9424c0-0.2764,0.2236-0.5,0.5-0.5s0.5,0.2236,0.5,0.5v1.9424
		C4.0142,21.7539,3.7905,21.9775,3.5142,21.9775z"/>
	<path d="M12.0146,17.0352c-0.2764,0-0.5-0.2236-0.5-0.5v-7c0-0.2764,0.2236-0.5,0.5-0.5s0.5,0.2236,0.5,0.5v7
		C12.5146,16.8115,12.291,17.0352,12.0146,17.0352z"/>
</g>
<rect x="0.0142" y="0.0354" fill="none" width="24" height="24"/>
</svg>
