<?xml version="1.0" encoding="utf-8"?>
<!-- Generator: Adobe Illustrator 18.1.0, SVG Export Plug-In . SVG Version: 6.00 Build 0)  -->
<svg version="1.1" id="Layer_1" xmlns="http://www.w3.org/2000/svg" xmlns:xlink="http://www.w3.org/1999/xlink" x="0px" y="0px"
	 width="24px" height="24px" viewBox="0 0 24 24" enable-background="new 0 0 24 24" xml:space="preserve">
<g>
	<path d="M20.4268,18.9014H6.1504c-0.3643,0-0.7051-0.1621-0.9351-0.4434c-0.229-0.2812-0.3188-0.6455-0.2461-1l0.5347-1.9043
		L3.458,6.5957c-0.0615-0.269,0.1069-0.5371,0.376-0.5986c0.2671-0.0645,0.5371,0.1064,0.5986,0.376l2.0747,9.083
		c0.0166,0.0723,0.0171,0.1475,0.001,0.2197l-0.5679,2.0186c-0.0083,0.0449,0.0273,0.1035,0.0498,0.1309
		c0.0229,0.0283,0.0747,0.0762,0.1602,0.0762h14.2764c0.2764,0,0.5,0.2236,0.5,0.5S20.7031,18.9014,20.4268,18.9014z"/>
	<path d="M22.9189,6.9844H3.9453c-0.1509,0-0.2939-0.0684-0.3887-0.1855C3.4614,6.6816,3.4248,6.5273,3.4565,6.3799L3.918,4.2197
		C3.8604,4.1035,3.7383,4.0249,3.6025,4.0249H0.6387c-0.2764,0-0.5-0.2236-0.5-0.5s0.2236-0.5,0.5-0.5h2.9639
		c0.6333,0,1.189,0.4482,1.3208,1.0654c0.0151,0.0688,0.0151,0.1401,0,0.209L4.5635,5.9844h18.3555c0.2764,0,0.5,0.2236,0.5,0.5
		S23.1953,6.9844,22.9189,6.9844z"/>
	<path d="M6.0195,16.0674c-0.252,0-0.4688-0.1904-0.4966-0.4463c-0.0298-0.2744,0.1689-0.5215,0.4434-0.5508l14.1948-1.5342
		c0.2178-0.0029,0.3584-0.1133,0.3955-0.2705l2.3145-8.4966c0.0723-0.2656,0.3457-0.4229,0.6143-0.3511
		c0.2656,0.0728,0.4229,0.3477,0.3506,0.6138l-2.3105,8.48c-0.1396,0.5938-0.6797,1.0215-1.3105,1.0215L6.0737,16.0645
		C6.0557,16.0664,6.0371,16.0674,6.0195,16.0674z"/>
	<path d="M6.9868,23.8896c-1.1118,0-2.0161-0.9004-2.0161-2.0078S5.875,19.874,6.9868,19.874s2.0166,0.9004,2.0166,2.0078
		S8.0986,23.8896,6.9868,23.8896z M6.9868,20.874c-0.5601,0-1.0161,0.4521-1.0161,1.0078s0.4561,1.0078,1.0161,1.0078
		c0.5605,0,1.0166-0.4521,1.0166-1.0078S7.5474,20.874,6.9868,20.874z"/>
	<path d="M18.9111,23.8896c-1.1113,0-2.0156-0.9004-2.0156-2.0078s0.9043-2.0078,2.0156-2.0078s2.0156,0.9004,2.0156,2.0078
		S20.0225,23.8896,18.9111,23.8896z M18.9111,20.874c-0.5596,0-1.0156,0.4521-1.0156,1.0078s0.4561,1.0078,1.0156,1.0078
		s1.0156-0.4521,1.0156-1.0078S19.4707,20.874,18.9111,20.874z"/>
	<path d="M9.6558,4.9668c-0.1694,0-0.3345-0.0859-0.4282-0.2412C9.0845,4.4893,9.1602,4.1821,9.3965,4.0391l6.4053-3.8765
		c0.2148-0.1328,0.499-0.0796,0.6553,0.123l2.9551,3.8452c0.168,0.2188,0.127,0.5327-0.0918,0.7012
		c-0.2188,0.1675-0.5322,0.127-0.7012-0.0918l-2.6826-3.4907l-6.0225,3.645C9.833,4.9434,9.7441,4.9668,9.6558,4.9668z"/>
</g>
<rect x="-0.0136" y="0.0001" fill="none" width="24" height="24"/>
</svg>
