<?xml version="1.0" encoding="utf-8"?>
<!-- Generator: Adobe Illustrator 18.1.0, SVG Export Plug-In . SVG Version: 6.00 Build 0)  -->
<svg version="1.1" id="Layer_1" xmlns="http://www.w3.org/2000/svg" xmlns:xlink="http://www.w3.org/1999/xlink" x="0px" y="0px"
	 width="24px" height="24px" viewBox="0 0 24 24" enable-background="new 0 0 24 24" xml:space="preserve">
<g>
	<path d="M16.7012,22.8135c0,0,0,0-0.001,0c-2.5029,0-5.5435-1.9111-9.5688-6.0166c-3.9961-4.0752-5.835-7.1392-5.7861-9.6416
		c0.04-2.0898,1.3828-3.3569,2.5669-4.4751c0.1665-0.1572,0.3306-0.312,0.4883-0.4668c0.1865-0.1816,0.4297-0.2808,0.6865-0.2808
		C5.354,1.9346,5.606,2.042,5.7861,2.2271l4.7856,4.8804c0.1812,0.1826,0.2817,0.4287,0.2798,0.6904
		c-0.0015,0.2627-0.1055,0.5088-0.2925,0.6929L9.0957,9.9248c0,0.0571,0.0825,0.5674,0.8394,1.5996
		c1.2642,1.7236,3.2866,3.415,4.0845,3.4141c0.1309-0.0732,1.4834-1.3975,1.4834-1.3975c0.3984-0.3682,1.0166-0.3438,1.374,0.0195
		l4.8037,4.8525c0.3691,0.3779,0.377,0.9727,0.0186,1.3564l-0.252,0.2734C20.251,21.3418,18.8936,22.8135,16.7012,22.8135z
		 M5.0708,2.9258C4.9385,3.0864,4.7695,3.2456,4.5986,3.4072C3.5063,4.4385,2.377,5.5044,2.3447,7.1748
		c-0.042,2.1855,1.7568,5.1035,5.5005,8.9229c3.7725,3.8467,6.6685,5.7158,8.855,5.7158c1.7549,0.001,2.8516-1.1895,4.0117-2.4482
		l0.2559-0.2773l-4.8018-4.8242c-0.0078,0.0352-1.3418,1.3408-1.4316,1.4238c-0.0371,0.0332-0.1533,0.1152-0.1973,0.1367
		c-0.1475,0.0742-0.3242,0.1143-0.5176,0.1143c-1.6865,0.001-4.9126-3.3506-5.688-5.1538
		c-0.2959-0.6875-0.2788-1.2129,0.0513-1.5605l1.4756-1.4468L5.0708,2.9258z"/>
	<path d="M20.6787,10.8418c-0.0049,0-0.0107,0-0.0166-0.0005c-0.2754-0.0088-0.4922-0.2397-0.4834-0.5161
		c0.0576-1.7598-0.5918-3.4102-1.8281-4.647c-1.2373-1.2373-2.8926-1.8735-4.6475-1.8291
		c-0.0059,0.0005-0.0117,0.0005-0.0166,0.0005c-0.2686,0-0.4912-0.2134-0.5-0.4834c-0.0088-0.2764,0.208-0.5073,0.4834-0.5161
		c2.0566-0.0693,3.9531,0.686,5.3877,2.1211c1.4346,1.4341,2.1875,3.3472,2.1211,5.3872
		C21.1699,10.6284,20.9473,10.8418,20.6787,10.8418z"/>
	<path d="M24.0684,10.8418c-0.0039,0-0.0068,0-0.0107,0c-0.2764-0.0063-0.4951-0.2349-0.4893-0.5107
		c0.0586-2.6689-0.9434-5.1724-2.8213-7.0503c-1.877-1.8774-4.3564-2.8979-7.0498-2.8208c-0.2754,0.019-0.5049-0.2124-0.5107-0.4893
		c-0.0059-0.2759,0.2129-0.5044,0.4893-0.5107c2.9443-0.0527,5.7061,1.0415,7.7783,3.1138s3.1787,4.835,3.1143,7.7788
		C24.5625,10.625,24.3398,10.8418,24.0684,10.8418z"/>
	<path d="M17.29,10.8418c-0.0117,0-0.0225-0.0005-0.0342-0.001c-0.2754-0.0181-0.4834-0.2563-0.4658-0.5317
		c0.0547-0.8335-0.25-1.6479-0.8369-2.2344c-0.585-0.5859-1.3994-0.894-2.2334-0.8364c-0.2998,0.0146-0.5137-0.1909-0.5322-0.4663
		c-0.0176-0.2754,0.1904-0.5137,0.4658-0.5317c1.1143-0.0713,2.2158,0.3369,3.0078,1.1274c0.79,0.79,1.2002,1.8862,1.127,3.0068
		C17.7705,10.6392,17.5508,10.8418,17.29,10.8418z"/>
</g>
<rect x="1" y="-1.002" fill="none" width="24" height="24"/>
</svg>
