<?xml version="1.0" encoding="utf-8"?>
<!-- Generator: Adobe Illustrator 18.1.0, SVG Export Plug-In . SVG Version: 6.00 Build 0)  -->
<svg version="1.1" id="Layer_1" xmlns="http://www.w3.org/2000/svg" xmlns:xlink="http://www.w3.org/1999/xlink" x="0px" y="0px"
	 width="24px" height="24px" viewBox="0 0 24 24" enable-background="new 0 0 24 24" xml:space="preserve">
<g>
	<g>
		<path d="M18.1758,24.0811h-1.4053c-0.4346-0.002-0.8193-0.2764-0.9609-0.6816l-0.0928-0.2676l-0.0029,0.0312
			c-0.0508,0.5234-0.4863,0.918-1.0127,0.918l-0.5244-0.001c-0.001,0-0.0029,0-0.0039,0c-0.3682,0-0.7012-0.2012-0.8779-0.5117
			c-0.1777,0.3096-0.5098,0.5117-0.8838,0.5117l-0.5635,0.001c-0.417-0.002-0.7871-0.2539-0.9419-0.6318
			c-0.1558,0.3799-0.5273,0.6309-0.9414,0.6309H8.8691c-0.3613,0-0.6812-0.1875-0.8618-0.4756
			c-0.1816,0.292-0.5034,0.4756-0.8628,0.4756H5.8301c-0.3838,0-0.7305-0.2119-0.9048-0.5527
			c-0.0942-0.1826-0.1631-0.3154,1.4814-10.7686c0.0435-0.2725,0.2964-0.457,0.5718-0.416c0.2729,0.043,0.459,0.2988,0.4165,0.5723
			c-0.5464,3.4697-1.3896,8.9814-1.5127,10.1553l1.2622,0.0098l0.5547-1.7217c0.0708-0.2256,0.2954-0.3613,0.5254-0.3477
			c0.2354,0.0234,0.4224,0.208,0.4487,0.4424l0.1792,1.6133l1.1118,0.0137l0.4717-1.3223c0.0698-0.2021,0.2993-0.3535,0.4731-0.3359
			c0.2129,0,0.4028,0.1357,0.4717,0.3379l0.4502,1.3105l0.5791,0.0098l0.3213-1.6904c0.042-0.2305,0.2383-0.4014,0.4727-0.4111
			c0.1982,0.0088,0.4424,0.1455,0.5029,0.3721l0.4551,1.7188l0.54,0.0117l0.2383-2.3281c0.0225-0.2344,0.2051-0.4209,0.4385-0.4482
			c0.2393-0.0371,0.4551,0.1104,0.5322,0.332l0.8428,2.4336l1.3623,0.0107c-0.1201-1.167-0.9619-6.707-1.5068-10.1934
			c-0.043-0.2725,0.1445-0.5283,0.417-0.5713c0.2725-0.0352,0.5283,0.1436,0.5713,0.417
			c1.6396,10.4961,1.5713,10.6211,1.4688,10.8105C18.8857,23.875,18.5449,24.0811,18.1758,24.0811z"/>
		<path d="M6.9014,13.3369c-0.0083,0-0.0166,0-0.0249-0.001c-0.2759-0.0127-0.4883-0.248-0.4751-0.5234
			c0.0933-1.916,2.1475-1.8823,3.1362-1.8633l0.0781,0.001c0.0688-0.1685,0.1045-0.5601,0.0527-0.9155l-1.2266-5.332
			c-0.2725-1.1855-0.0288-2.3325,0.6855-3.23c0.7026-0.8828,1.7666-1.3892,2.9185-1.3892c1.1484,0,2.208,0.5029,2.9072,1.3804
			c0.709,0.8887,0.9619,2.0679,0.6943,3.2354l-1.2383,5.4038c-0.0439,0.3496,0,0.6943,0.0645,0.8481l0.0352-0.0005
			c0.9639-0.0132,3.001-0.0352,3.0938,1.8354c0.0137,0.2754-0.1982,0.5098-0.4746,0.5234
			c-0.2764,0.0332-0.5107-0.1992-0.5234-0.4746c-0.0391-0.7725-0.7178-0.9058-2.084-0.8843l-0.2588,0.002
			c-0.0928,0-0.1846-0.0259-0.2637-0.0752c-0.7109-0.4414-0.6172-1.6055-0.5723-1.9517l1.2471-5.4497
			c0.2021-0.8818,0.0234-1.73-0.501-2.3892c-0.5088-0.6377-1.2832-1.0034-2.126-1.0034c-0.8452,0-1.624,0.3691-2.1362,1.0122
			C9.3887,2.7495,9.2139,3.5962,9.4165,4.479l1.2339,5.3711c0.0234,0.0459,0.2539,1.522-0.5596,2.0273
			c-0.0791,0.0493-0.1704,0.0752-0.2637,0.0752c0,0,0,0-0.0005,0l-0.3062-0.0034c-1.4058-0.0278-2.0811,0.1064-2.1201,0.9121
			C7.3872,13.1289,7.166,13.3369,6.9014,13.3369z M12.0469,5.1528c-0.7197-0.001-1.3042-0.584-1.3042-1.3003v-0.001
			c0-0.7168,0.5845-1.3003,1.3032-1.3003c0.7188,0.001,1.3037,0.584,1.3037,1.3003C13.3496,4.5684,12.7646,5.1519,12.0469,5.1528z
			 M12.0449,3.5513c-0.166,0-0.3022,0.1348-0.3022,0.3003c0,0.166,0.1362,0.3013,0.3042,0.3013c0.166,0,0.3027-0.1353,0.3027-0.3013
			C12.3496,3.686,12.2129,3.5513,12.0449,3.5513z"/>
	</g>
	<path d="M17.6582,17.0371L17.6582,17.0371l-11.311-0.0098c-0.2759,0-0.4995-0.2246-0.4995-0.5c0-0.2764,0.2241-0.5,0.5-0.5h0.0005
		l11.3101,0.0098c0.2764,0,0.5,0.2246,0.5,0.5C18.1582,16.8135,17.9346,17.0371,17.6582,17.0371z"/>
	<path d="M17.2178,14.042H6.7905c-0.2764,0-0.5-0.2236-0.5-0.5s0.2236-0.5,0.5-0.5h10.4272c0.2764,0,0.5,0.2236,0.5,0.5
		S17.4941,14.042,17.2178,14.042z"/>
</g>
<rect y="-0.0001" fill="none" width="24" height="24"/>
</svg>
