<?xml version="1.0" encoding="utf-8"?>
<!-- Generator: Adobe Illustrator 18.1.0, SVG Export Plug-In . SVG Version: 6.00 Build 0)  -->
<svg version="1.1" id="Layer_1" xmlns="http://www.w3.org/2000/svg" xmlns:xlink="http://www.w3.org/1999/xlink" x="0px" y="0px"
	 width="24px" height="24px" viewBox="0 0 24 24" enable-background="new 0 0 24 24" xml:space="preserve">
<g>
	<path d="M10.77,23.7061c-4.8223,0-8.7456-3.9229-8.7456-8.7451S5.9478,6.2153,10.77,6.2153c0.3013,0,0.6011,0.0156,0.8945,0.0449
		c0.2749,0.0278,0.4751,0.2729,0.4478,0.5474c-0.0283,0.2749-0.2695,0.4766-0.5474,0.4478c-0.2612-0.0264-0.5269-0.04-0.7949-0.04
		c-4.271,0-7.7456,3.4746-7.7456,7.7456c0,4.2705,3.4746,7.7451,7.7456,7.7451s7.7456-3.4746,7.7456-7.7451
		c0-0.7451-0.1211-1.5137-0.3584-2.2842c-0.082-0.2637,0.0664-0.5439,0.3301-0.625c0.2646-0.0825,0.5439,0.0664,0.625,0.3301
		c0.2676,0.8662,0.4033,1.7344,0.4033,2.5791C19.5156,19.7832,15.5928,23.7061,10.77,23.7061z"/>
	<path d="M13.7012,20.165c-0.1172,0-0.2334-0.0283-0.3408-0.085c-0.5537-0.2939-0.6523-1.2949-0.6611-1.8652
		c0.0439-2.6338-0.8901-3.3516-0.8999-3.3574c-0.3257-0.1221-1.499-0.5742-2.0117-0.6865
		c-0.4365-0.0947-0.7437-0.4541-0.8008-0.9395c-0.0684-0.5811,0.2319-1.3784,0.9229-1.71c0.2222-0.1069,0.4189-0.1416,0.5786-0.1484
		c-0.0044-0.0684-0.0107-0.1528-0.0195-0.2563c-0.019-0.2173-0.0728-0.3726-0.1519-0.4365
		c-0.1362-0.1104-0.4858-0.0684-0.7432-0.0391c-0.1509,0.0186-0.291,0.0337-0.4082,0.0337
		c-0.1318,0.0923-0.252,0.6572-0.3794,1.2554L8.73,12.1924C8.6016,12.793,8.29,12.9629,8.0513,13
		c-0.5493,0.0889-0.9292-0.5146-0.9985-0.6357c-0.0215-0.0371-0.0601-0.1055-0.105-0.3174
		c-0.1943,0.2168-0.5396,0.4717-1.1499,0.6875c-0.6011,0.2119-0.9316-0.0156-1.0752-0.1709
		c-0.5317-0.5713-0.0913-1.8491,0.2183-2.5601c0.1104-0.2539,0.4048-0.3687,0.6577-0.2588
		c0.2534,0.1104,0.3691,0.4048,0.2593,0.6582C5.6367,10.9116,5.4756,11.501,5.4683,11.79c0.6406-0.2266,0.7661-0.4487,0.7671-0.4507
		l0.6147-1.0942c0.1094-0.1914,0.3345-0.2876,0.5474-0.2388c0.2153,0.0503,0.3721,0.2358,0.3857,0.4561
		c0.02,0.3247,0.0513,0.6943,0.084,0.9824c0.248-1.1445,0.4429-1.77,1.2983-1.77c0.083,0,0.1816-0.0137,0.2886-0.0264
		c0.4326-0.0522,1.0269-0.123,1.4937,0.2554c0.2993,0.2437,0.4736,0.6226,0.5171,1.126c0.0508,0.5796,0.0688,0.9468-0.1821,1.1909
		c-0.2134,0.207-0.4712,0.1777-0.6118,0.1611c-0.1147-0.0127-0.1953-0.0225-0.3286,0.041
		c-0.1631,0.0781-0.2998,0.2705-0.3481,0.4902c-0.0366,0.1641-0.0049,0.2676,0.0103,0.2861c0.6963,0.1475,2.189,0.748,2.2524,0.7734
		c0.2275,0.1357,1.4961,1.043,1.4424,4.2432c0.0049,0.2725,0.0469,0.5908,0.1006,0.8037c0.2764-0.29,0.7246-0.8916,1.127-1.6328
		c0.1318-0.2441,0.4385-0.3311,0.6777-0.2012c0.2432,0.1318,0.333,0.4355,0.2012,0.6777c-0.4404,0.8115-1.1406,1.8311-1.6377,2.1543
		C14.0186,20.1152,13.8574,20.165,13.7012,20.165z"/>
	<path d="M16.4629,16.6064L16.4629,16.6064c-0.168,0-0.3252-0.085-0.418-0.2256c-0.207-0.3135-5.0664-7.7324-5.0664-10.6025
		c0-3.0239,2.46-5.4844,5.4844-5.4844s5.4854,2.4604,5.4854,5.4844c0,2.8701-4.8604,10.2891-5.0674,10.6025
		C16.7881,16.5215,16.6309,16.6064,16.4629,16.6064z M16.4629,1.2939c-2.4727,0-4.4844,2.0117-4.4844,4.4844
		c0,1.9424,2.9297,6.957,4.4844,9.4062c1.5557-2.4492,4.4854-7.4639,4.4854-9.4062C20.9482,3.3057,18.9365,1.2939,16.4629,1.2939z"
		/>
	<path d="M16.4629,7.6709c-1.2539,0-2.2734-1.02-2.2734-2.2739c0-1.2534,1.0195-2.2734,2.2734-2.2734s2.2744,1.02,2.2744,2.2734
		C18.7373,6.6509,17.7168,7.6709,16.4629,7.6709z M16.4629,4.1235c-0.7021,0-1.2734,0.5713-1.2734,1.2734
		c0,0.7026,0.5713,1.2739,1.2734,1.2739c0.7031,0,1.2744-0.5713,1.2744-1.2739C17.7373,4.6948,17.166,4.1235,16.4629,4.1235z"/>
</g>
<rect x="-0.0137" y="0.0001" fill="none" width="24" height="24"/>
</svg>
