<?xml version="1.0" encoding="utf-8"?>
<!-- Generator: Adobe Illustrator 18.1.0, SVG Export Plug-In . SVG Version: 6.00 Build 0)  -->
<svg version="1.1" id="Layer_1" xmlns="http://www.w3.org/2000/svg" xmlns:xlink="http://www.w3.org/1999/xlink" x="0px" y="0px"
	 width="24px" height="24px" viewBox="0 0 24 24" enable-background="new 0 0 24 24" xml:space="preserve">
<g>
	<path d="M21.1211,24H2.8789C1.2915,24,0,22.709,0,21.1211V2.8784C0,1.291,1.2915,0,2.8789,0h18.2422C22.709,0,24,1.291,24,2.8784
		v18.2427C24,22.709,22.709,24,21.1211,24z M2.8789,1C1.8428,1,1,1.8428,1,2.8784v18.2427C1,22.1572,1.8428,23,2.8789,23h18.2422
		C22.1572,23,23,22.1572,23,21.1211V2.8784C23,1.8428,22.1572,1,21.1211,1H2.8789z"/>
	<rect x="0.5" y="6" width="23" height="1"/>
	<path d="M7.5098,4.0898c-0.1401,0-0.27-0.0601-0.3599-0.1499C7.0601,3.8496,7.0098,3.7197,7.0098,3.5898S7.0601,3.3296,7.1499,3.23
		c0.1797-0.1802,0.52-0.1899,0.71,0c0.0898,0.0996,0.1499,0.23,0.1499,0.3599S7.9497,3.8496,7.8599,3.9399
		C7.7598,4.04,7.6396,4.0898,7.5098,4.0898z"/>
	<path d="M16.5098,4.0898c-0.1396,0-0.2695-0.0601-0.3604-0.1499c-0.0898-0.0903-0.1396-0.2202-0.1396-0.3501
		s0.0498-0.2603,0.1396-0.3599c0.1904-0.1802,0.5205-0.1802,0.71,0c0.1006,0.0996,0.1504,0.23,0.1504,0.3599
		s-0.0498,0.25-0.1504,0.3501C16.7695,4.04,16.6396,4.0898,16.5098,4.0898z"/>
	<path d="M5.5635,18.877c-1.6147,0-2.355-1.3477-2.3867-1.4082c-0.1304-0.2432-0.0386-0.5459,0.2051-0.6768
		c0.2446-0.1299,0.5464-0.0381,0.6768,0.2061c0.02,0.0361,0.5503,0.9512,1.6445,0.874c1.187-0.083,1.208-1.6885,1.2085-1.7568
		v-4.8438c0-0.2764,0.2236-0.5,0.5-0.5s0.5,0.2236,0.5,0.5v4.8447c0.0015,0.9004-0.4438,2.6348-2.1387,2.7539
		C5.7017,18.875,5.6318,18.877,5.5635,18.877z"/>
	<path d="M13.3652,18.877c-0.2764,0-0.5-0.2236-0.5-0.5v-3.0654c0.001-0.0312,0.0264-0.8379-0.5156-1.2363
		c-0.4897-0.3584-1.3584-0.332-2.5132,0.0791C9.5752,14.25,9.29,14.1113,9.1973,13.8516c-0.0923-0.2607,0.0435-0.5459,0.3032-0.6387
		c1.5098-0.5391,2.6704-0.5166,3.4517,0.0645c0.9697,0.7227,0.915,2.0059,0.9121,2.0596l0.001,3.04
		C13.8652,18.6533,13.6416,18.877,13.3652,18.877z"/>
	<path d="M10.8389,18.9814c-1.1851,0-1.9678-0.6982-2.0952-1.8701c-0.0928-0.8535,0.2573-1.3457,0.5669-1.6074
		c1.2104-1.0234,3.8887-0.3066,4.1904-0.2227c0.2656,0.0752,0.4199,0.3506,0.3457,0.6172
		c-0.0752,0.2646-0.3486,0.4199-0.6172,0.3457c-0.9424-0.2646-2.665-0.4922-3.2734,0.0234
		c-0.1172,0.0996-0.2676,0.2842-0.2183,0.7363c0.0264,0.2432,0.1348,0.9756,1.1147,0.9775
		c0.9624-0.0068,1.9668-0.6836,2.0146-1.1846c0.0273-0.2754,0.2803-0.4668,0.5459-0.4502c0.2744,0.0264,0.4766,0.2705,0.4502,0.5459
		c-0.1113,1.166-1.7061,2.0801-3.0044,2.0889C10.8525,18.9814,10.8457,18.9814,10.8389,18.9814z"/>
	<path d="M15.4082,18.877c-0.2764,0-0.5-0.2236-0.5-0.5v-5.0527c0-0.2764,0.2236-0.5,0.5-0.5s0.5,0.2236,0.5,0.5v5.0527
		C15.9082,18.6533,15.6846,18.877,15.4082,18.877z"/>
	<path d="M19.4941,18.877c-0.2764,0-0.5-0.2236-0.5-0.5v-3.2422c0-0.0127-0.001-0.585-0.3711-0.957
		c-0.2324-0.2344-0.5811-0.3535-1.0361-0.3535c-1.4883,0-1.6758,1.3369-1.6826,1.3945c-0.0352,0.2734-0.292,0.4678-0.5596,0.4326
		c-0.2734-0.0352-0.4678-0.2852-0.4326-0.5596c0.0996-0.7842,0.7881-2.2676,2.6748-2.2676c0.7373,0,1.3281,0.2217,1.7559,0.6592
		c0.6533,0.666,0.6533,1.5615,0.6514,1.6621v3.2314C19.9941,18.6533,19.7705,18.877,19.4941,18.877z"/>
</g>
<rect fill="none" width="24" height="24"/>
</svg>
