<?xml version="1.0" encoding="utf-8"?>
<!-- Generator: Adobe Illustrator 18.1.0, SVG Export Plug-In . SVG Version: 6.00 Build 0)  -->
<svg version="1.1" id="Layer_1" xmlns="http://www.w3.org/2000/svg" xmlns:xlink="http://www.w3.org/1999/xlink" x="0px" y="0px"
	 width="24px" height="24px" viewBox="0 0 24 24" enable-background="new 0 0 24 24" xml:space="preserve">
<g>
	<path d="M11.9473,5.5195c-0.0205,0-0.0405-0.0005-0.0605-0.0005c-1.5625-0.0273-3.3022-1.1802-3.6665-3.6934
		c-0.04-0.2734,0.1494-0.5269,0.4229-0.5664C8.918,1.2119,9.1704,1.4082,9.2095,1.6821c0.2993,2.0645,1.6387,2.8184,2.6948,2.8369
		c1.2217,0.0127,2.5596-0.8394,2.915-2.8091c0.0498-0.2725,0.3135-0.4531,0.5811-0.4033c0.2715,0.0493,0.4521,0.3096,0.4033,0.5811
		C15.3486,4.4038,13.5498,5.5195,11.9473,5.5195z"/>
	<path d="M19.4639,23.0225H4.5073c-0.2764,0-0.5-0.2236-0.5-0.5V10.9531c-1.0669,0.1924-1.4272-0.208-1.9863-0.9238
		C1.9004,9.875,1.7607,9.6958,1.5884,9.4897c-0.0518-0.062-0.1455-0.1562-0.2578-0.2705C0.6401,8.5171-0.3057,7.5552,0.2959,6.8755
		l3.5327-3.9897c0.708-0.7988,1.9326-1.0356,3.0132-1.2446C7.1792,1.5757,7.502,1.5137,7.7837,1.4365
		c0.8936-0.2432,1.7446-0.1699,2.5913-0.0391c0.48,0.0747,0.9761,0.1519,1.5845,0.1519c0.6636,0,1.1919-0.0674,1.7026-0.1328
		c0.9736-0.1235,1.9131-0.1748,2.9541,0.1152c0.2773,0.0771,0.5547,0.1406,0.8281,0.2036c1.0391,0.2397,2.1143,0.4873,2.9248,1.4048
		l3.415,3.8555c0.3613,0.4077,0.1865,0.7021-1.6953,2.8628c-0.1367,0.1577-0.2373,0.272-0.2705,0.3145
		c-0.415,0.5229-0.751,0.8936-1.3037,0.8936c-0.1768,0-0.3467-0.0366-0.5547-0.0918l0.0039,11.5479
		c0,0.1328-0.0527,0.2598-0.1465,0.3535S19.5967,23.0225,19.4639,23.0225z M5.0073,22.0225h13.9565L18.96,10.3218
		c0-0.1543,0.0713-0.2998,0.1924-0.3945c0.1221-0.0947,0.2812-0.1294,0.4287-0.0908c0.1738,0.0435,0.3232,0.085,0.4541,0.1216
		c0.2168,0.0605,0.3887,0.1084,0.4795,0.1084c0.0781,0,0.2334-0.1543,0.5205-0.5156c0.0381-0.0479,0.1475-0.1748,0.2998-0.3496
		c0.7656-0.8784,1.2617-1.4771,1.4834-1.7881l-3.1973-3.6104C19.0215,3.125,18.1865,2.9326,17.2197,2.71
		c-0.2881-0.0664-0.5801-0.1338-0.8721-0.2153c-0.8926-0.2485-1.6387-0.2036-2.5586-0.0859
		c-0.5176,0.0659-1.1025,0.1406-1.8296,0.1406c-0.6855,0-1.2446-0.0869-1.7378-0.1636c-0.79-0.123-1.4375-0.1855-2.1743,0.0156
		C7.7441,2.4844,7.396,2.5522,7.0317,2.6226C6.1074,2.8013,5.0601,3.0039,4.5776,3.5488L1.1328,7.439
		c0.1323,0.2871,0.7095,0.874,0.9106,1.0791c0.1372,0.1392,0.25,0.2554,0.313,0.3311c0.1802,0.2158,0.3267,0.4033,0.4526,0.5649
		c0.437,0.5596,0.4878,0.5928,0.6851,0.5928c0.2124,0,0.5542-0.0781,0.8921-0.1626c0.1489-0.0391,0.3066-0.0039,0.4287,0.0908
		c0.1216,0.0947,0.1924,0.2402,0.1924,0.394V22.0225z"/>
	<path d="M19.46,10.8208c-0.168,0-0.3311-0.084-0.4248-0.2368c-0.082-0.1318-1.9854-3.292-0.4443-7.9644
		c0.0859-0.2617,0.3691-0.4077,0.6309-0.3179c0.2627,0.0864,0.4053,0.3691,0.3184,0.6313
		c-1.3877,4.2085,0.3281,7.0977,0.3457,7.1265c0.1436,0.2354,0.0703,0.543-0.165,0.687
		C19.6396,10.7969,19.5488,10.8208,19.46,10.8208z"/>
	<path d="M4.5078,10.8286c-0.0884,0-0.1782-0.0234-0.2593-0.0728c-0.2358-0.1431-0.311-0.4502-0.1685-0.686
		c0.0171-0.0293,1.7349-2.9551,0.3467-7.1655C4.3403,2.6416,4.4829,2.3594,4.7451,2.2725C5.0093,2.1851,5.29,2.3286,5.377,2.5908
		c1.5396,4.6704-0.3613,7.8652-0.4429,7.999C4.8398,10.7437,4.6758,10.8286,4.5078,10.8286z"/>
</g>
<rect x="0.0142" y="0.0354" fill="none" width="24" height="24"/>
</svg>
