<?xml version="1.0" encoding="utf-8"?>
<!-- Generator: Adobe Illustrator 18.1.0, SVG Export Plug-In . SVG Version: 6.00 Build 0)  -->
<svg version="1.1" id="Layer_1" xmlns="http://www.w3.org/2000/svg" xmlns:xlink="http://www.w3.org/1999/xlink" x="0px" y="0px"
	 width="24px" height="24px" viewBox="0 0 24 24" enable-background="new 0 0 24 24" xml:space="preserve">
<g>
	<path d="M11.9624,5.2515c-0.02,0-0.0396,0-0.0596-0.0005c-1.5405-0.0269-3.2554-1.1626-3.6138-3.6387
		c-0.04-0.2734,0.1494-0.5269,0.4229-0.5664C8.9834,0.998,9.2388,1.1953,9.2783,1.4688c0.2935,2.0249,1.6069,2.7642,2.6421,2.7827
		c1.1675-0.0166,2.5093-0.8242,2.8589-2.7563c0.0488-0.2725,0.3105-0.4531,0.5811-0.4033c0.2715,0.0493,0.4521,0.3096,0.4033,0.5811
		C15.3154,4.1523,13.542,5.2515,11.9624,5.2515z"/>
	<path d="M18.4463,22.9277c-0.2676,0-0.4893-0.2119-0.5-0.4814L17.418,8.5518c-0.0059-0.1572,0.0625-0.3081,0.1846-0.4072
		c0.124-0.0996,0.2861-0.1362,0.4365-0.0967c0.4746,0.1187,0.9531,0.4072,1.416,0.686c0.8477,0.5103,1.2529,0.6978,1.4385,0.4688
		c0.0371-0.0469,0.1484-0.1753,0.3018-0.3521c0.3018-0.3462,1.124-1.29,1.4473-1.7441l-3.1396-3.5459
		c-0.5889-0.665-1.4082-0.8535-2.3584-1.0723c-0.2822-0.0649-0.5693-0.1313-0.8555-0.2114c-1.001-0.2778-1.668-0.1929-2.5137-0.0845
		c-0.5088,0.0649-1.085,0.1387-1.8008,0.1387c-0.6753,0-1.2251-0.0854-1.7104-0.1611C9.5254,2.0547,8.9409,1.9639,8.1299,2.1851
		c-0.2983,0.0815-0.6411,0.1484-0.999,0.2178c-0.9077,0.1753-1.937,0.3745-2.4102,0.9077L1.3374,7.1318
		C1.4707,7.415,2.0327,7.9863,2.229,8.186c0.1348,0.1372,0.2461,0.2515,0.3081,0.3262c0.501,0.6016,0.9482,0.4902,2.1006,0.0117
		c0.395-0.1636,0.8433-0.3496,1.3198-0.4688c0.1553-0.0391,0.3154-0.0034,0.437,0.0972C6.5166,8.2515,6.585,8.4028,6.5786,8.5601
		L6.0698,21.2695c-0.0112,0.2764-0.249,0.4697-0.5195,0.4805c-0.2759-0.0117-0.4907-0.2441-0.4795-0.5195l0.48-11.9961
		c-0.1792,0.0679-0.356,0.1411-0.5303,0.2134C3.9727,9.8818,2.7866,10.3726,1.769,9.1528c-0.0508-0.061-0.1426-0.1533-0.2529-0.2656
		C0.8345,8.1943-0.0986,7.2456,0.498,6.5713l3.4741-3.9238c0.6982-0.7876,1.9048-1.021,2.9692-1.2266
		c0.3311-0.064,0.6484-0.125,0.9248-0.2007c1.0166-0.2773,1.7617-0.1606,2.5518-0.0386c0.4717,0.0737,0.959,0.1494,1.5566,0.1494
		c0.6514,0,1.1719-0.0664,1.6738-0.1309c0.8809-0.1123,1.7148-0.2202,2.9082,0.1138c0.2725,0.0757,0.5439,0.1382,0.8125,0.1997
		c1.0234,0.2358,2.082,0.4795,2.8818,1.3843l3.3584,3.7915c0.3594,0.4053,0.1885,0.6948-1.6602,2.8179
		c-0.1377,0.1587-0.2383,0.2739-0.2725,0.3164c-0.7578,0.958-1.9023,0.2705-2.7383-0.2334
		c-0.1631-0.0986-0.3291-0.1987-0.4912-0.2881l0.499,13.1069c0.0098,0.2754-0.2051,0.5078-0.4814,0.5186
		C18.459,22.9277,18.4521,22.9277,18.4463,22.9277z"/>
	<path d="M9.8955,23.167c-3.1597,0-4.6147-1.4951-4.689-1.5742c-0.1895-0.2002-0.1802-0.5166,0.0205-0.7061
		c0.2012-0.1895,0.5161-0.1797,0.7051,0.0176c0.0825,0.0869,1.9722,1.9688,6.3638,0.9775c4.8789-1.0977,6.333,0.0381,6.4824,0.1719
		c0.2061,0.1836,0.2256,0.5,0.042,0.7061c-0.1846,0.2061-0.499,0.2236-0.7061,0.042l0,0c-0.002-0.001-1.2617-0.9209-5.5996,0.0566
		C11.5376,23.0781,10.6655,23.167,9.8955,23.167z"/>
	<path d="M14.6064,11.5137h-0.0254c-1.0117,0-1.835-0.8232-1.835-1.835V7.8638c0-0.2764,0.2236-0.5,0.5-0.5h2.6953
		c0.2764,0,0.5,0.2236,0.5,0.5v1.8149C16.4414,10.6904,15.6182,11.5137,14.6064,11.5137z M13.7461,8.3638v1.3149
		c0,0.4604,0.375,0.835,0.835,0.835h0.0254c0.46,0,0.835-0.3745,0.835-0.835V8.3638H13.7461z"/>
</g>
<rect x="0.0142" y="0.0344" fill="none" width="24" height="24"/>
</svg>
