<?xml version="1.0" encoding="utf-8"?>
<!-- Generator: Adobe Illustrator 18.1.0, SVG Export Plug-In . SVG Version: 6.00 Build 0)  -->
<svg version="1.1" id="Layer_1" xmlns="http://www.w3.org/2000/svg" xmlns:xlink="http://www.w3.org/1999/xlink" x="0px" y="0px"
	 width="24px" height="24px" viewBox="0 0 24 24" enable-background="new 0 0 24 24" xml:space="preserve">
<g>
	<path d="M15.1152,18.0029H9.0054c-0.1362,0-0.2666-0.0557-0.3608-0.1543C8.5503,17.751,8.5,17.6182,8.5059,17.4824L9.1694,1.6279
		c-0.0005-0.9175,0.5596-1.625,1.3027-1.625h3.1753c0.7432,0,1.3037,0.7075,1.3037,1.646l0.6641,15.8335
		c0.0049,0.1357-0.0449,0.2686-0.1387,0.3662C15.3818,17.9473,15.252,18.0029,15.1152,18.0029z M9.5269,17.0029h5.0669
		l-0.6426-15.333c0-0.4155-0.1797-0.667-0.3037-0.667h-3.1753c-0.1235,0-0.3032,0.2515-0.3032,0.646L9.5269,17.0029z"/>
	<path d="M12.6699,22.0996h-1.2192c-0.2725,0-0.4946-0.2178-0.5-0.4902c-0.0405-2.0703-2.0112-3.6895-2.0312-3.7061
		c-0.2144-0.1729-0.248-0.4873-0.0747-0.7021c0.1733-0.2158,0.4873-0.249,0.7021-0.0762c0.0898,0.0723,2.0674,1.6875,2.3667,3.9746
		h0.2935c0.2988-2.2871,2.2764-3.9023,2.3662-3.9746c0.2178-0.1729,0.5303-0.1387,0.7021,0.0762
		c0.1738,0.2148,0.1396,0.5293-0.0742,0.7021c-0.0205,0.0166-1.9902,1.6357-2.0312,3.7061
		C13.1641,21.8818,12.9424,22.0996,12.6699,22.0996z"/>
	<path d="M11.3838,23.79c-0.1118,0-0.2217-0.0371-0.311-0.1084c-0.125-0.0996-0.1948-0.252-0.1885-0.4111l0.0669-1.6904
		c0.0107-0.2686,0.231-0.4805,0.4995-0.4805h1.2192c0.2764,0,0.5,0.2236,0.5,0.5l0.001,1.3379c0,0.2246-0.1504,0.4229-0.3682,0.4824
		l-1.2866,0.3525C11.4722,23.7842,11.4277,23.79,11.3838,23.79z M11.9312,22.0996l-0.0205,0.5273l0.2603-0.0713l-0.001-0.4561
		H11.9312z"/>
</g>
<rect x="0.0293" y="0.0001" fill="none" width="24" height="24"/>
</svg>
