<?xml version="1.0" encoding="utf-8"?>
<!-- Generator: Adobe Illustrator 18.1.0, SVG Export Plug-In . SVG Version: 6.00 Build 0)  -->
<svg version="1.1" id="Layer_1" xmlns="http://www.w3.org/2000/svg" xmlns:xlink="http://www.w3.org/1999/xlink" x="0px" y="0px"
	 width="24px" height="24px" viewBox="0 0 24 24" enable-background="new 0 0 24 24" xml:space="preserve">
<g>
	<path d="M21.5146,24.0342H2.5142c-0.2764,0-0.5-0.2236-0.5-0.5V13.3066c0-1.2529,0.9771-2.272,2.1782-2.272H19.835
		c1.2021,0,2.1797,1.019,2.1797,2.272v10.2275C22.0146,23.8105,21.791,24.0342,21.5146,24.0342z M3.0142,23.0342h18.0005v-9.7275
		c0-0.6895-0.54-1.2715-1.1797-1.2715H4.1924c-0.6387,0-1.1782,0.582-1.1782,1.2715V23.0342z"/>
	<path d="M12.0381,3.9678c-0.4878,0-0.8672-0.1509-1.0967-0.436c-0.1436-0.1782-0.2925-0.4922-0.187-0.978
		c0.1245-0.5728,0.4214-0.9019,0.6177-1.1191c0.1841-0.2036,0.1841-0.2036,0.1519-0.3047c-0.0259-0.0796-0.105-0.3247,0.0576-0.5488
		c0.0942-0.1289,0.2539-0.21,0.4136-0.21c0.6416,0,1.2744,1.6548,1.3115,2.2793c0.043,0.7227-0.3555,1.2227-1.041,1.3052l0,0
		C12.2656,3.9556,12.1729,3.9678,12.0381,3.9678z M12.1416,2.0747c-0.0088,0.0103-0.0186,0.02-0.0273,0.0303
		c-0.1689,0.187-0.3145,0.3481-0.3823,0.6606c-0.0229,0.1045-0.0093,0.1436-0.0088,0.1436
		c0.0093,0.0078,0.1025,0.0586,0.3149,0.0586c0.0566,0,0.0977-0.0039,0.1064-0.0049c0.1289-0.0156,0.1406-0.0479,0.1475-0.0669
		C12.3535,2.7241,12.2705,2.396,12.1416,2.0747z"/>
	<path d="M7.5381,3.9678c-0.4878,0-0.8672-0.1509-1.0967-0.436c-0.1436-0.1782-0.2925-0.4922-0.187-0.978
		C6.3789,1.981,6.6758,1.6523,6.8721,1.4346C7.0562,1.231,7.0562,1.231,7.0239,1.1309c-0.0264-0.0811-0.105-0.3262,0.0576-0.5498
		c0.0942-0.1294,0.2534-0.21,0.4136-0.21c0.6416,0,1.2739,1.6548,1.3115,2.2788c0.043,0.7231-0.356,1.2231-1.041,1.3057l0,0
		C7.7661,3.9556,7.6733,3.9678,7.5381,3.9678z M7.6421,2.0742C7.6328,2.085,7.6235,2.0952,7.6143,2.105
		C7.4453,2.292,7.2998,2.4536,7.2319,2.7656C7.209,2.8701,7.2227,2.9092,7.2231,2.9092C7.2324,2.917,7.3257,2.9678,7.5381,2.9678
		c0.0566,0,0.0977-0.0039,0.1069-0.0049C7.7734,2.9473,7.7852,2.915,7.792,2.896C7.8535,2.7241,7.77,2.396,7.6421,2.0742z"/>
	<path d="M16.543,3.9678c-0.4883,0-0.8672-0.1509-1.0977-0.436c-0.1426-0.1782-0.292-0.4927-0.1855-0.9785
		c0.124-0.5723,0.4209-0.9009,0.6172-1.1187c0.1836-0.2036,0.1836-0.2036,0.1514-0.3037c-0.0264-0.0811-0.1055-0.3262,0.0576-0.5498
		c0.0938-0.1294,0.2539-0.21,0.4131-0.21c0.6416,0,1.2754,1.6548,1.3125,2.2793c0.043,0.7227-0.3555,1.2227-1.041,1.3052l0,0
		C16.7705,3.9556,16.6777,3.9678,16.543,3.9678z M16.6465,2.0742c-0.0098,0.0103-0.0186,0.0205-0.0273,0.0308
		c-0.1689,0.187-0.3145,0.3481-0.3828,0.6606c-0.0225,0.1045-0.0088,0.1436-0.0088,0.144c0.0098,0.0073,0.1025,0.0581,0.3154,0.0581
		c0.0566,0,0.0977-0.0039,0.1064-0.0049C16.7783,2.9473,16.79,2.915,16.7969,2.896C16.8584,2.7241,16.7754,2.3955,16.6465,2.0742z"
		/>
	<path d="M23.0146,24.0342H1.0142c-0.2764,0-0.5-0.2236-0.5-0.5s0.2236-0.5,0.5-0.5h22.0005c0.2764,0,0.5,0.2236,0.5,0.5
		S23.291,24.0342,23.0146,24.0342z"/>
	<path d="M9.3267,17.6611c-0.0029,0-0.0063,0-0.0098,0c-1.0801-0.0078-1.7627-1.3398-1.8369-1.4912
		c-0.186-0.373-0.6191-0.9297-0.9541-0.9307c0,0-0.0005,0-0.001,0c-0.2539,0-0.5732,0.3408-0.876,0.9375
		c-0.5024,0.9902-1.0688,1.5049-1.7739,1.4844c-1.0801-0.0078-1.7627-1.3398-1.8369-1.4912
		c-0.1211-0.248-0.0186-0.5459,0.2285-0.668c0.2485-0.1221,0.5464-0.0205,0.6694,0.2275c0.1855,0.375,0.6147,0.9307,0.9468,0.9316
		c0.0005,0,0.001,0,0.0015,0c0.2524,0,0.5703-0.3408,0.873-0.9375c0.5024-0.9893,1.1211-1.5166,1.7754-1.4844
		c1.083,0.0059,1.77,1.3379,1.8452,1.4902c0.1855,0.375,0.6147,0.9307,0.9473,0.9316c0,0,0.0005,0,0.001,0
		c0.2529,0,0.5708-0.3408,0.8735-0.9375c0.502-0.9893,1.0811-1.5166,1.7749-1.4844c1.083,0.0059,1.7705,1.3379,1.8447,1.4902
		c0.1221,0.2471,0.0205,0.5459-0.2266,0.668c-0.2451,0.1211-0.5459,0.0215-0.6699-0.2256c-0.1875-0.375-0.6201-0.9316-0.9551-0.9326
		c-0.0005,0-0.0005,0-0.001,0c-0.2539,0-0.5732,0.3408-0.8755,0.9375C10.5913,17.1621,9.9976,17.6611,9.3267,17.6611z"/>
	<path d="M14.7695,17.6611c-0.0029,0-0.0068,0-0.0098,0c-1.0801-0.0078-1.7627-1.3398-1.8369-1.4912
		c-0.1211-0.248-0.0186-0.5459,0.2285-0.668c0.249-0.1211,0.5469-0.0205,0.6689,0.2275c0.1855,0.375,0.6152,0.9307,0.9473,0.9316
		c0.2803,0.0312,0.5713-0.3379,0.874-0.9375c0.5-0.9854,1.0947-1.4844,1.7676-1.4844c0.0029,0,0.0049,0,0.0078,0
		c1.083,0.0059,1.7715,1.3379,1.8457,1.4902c0.1855,0.375,0.6152,0.9307,0.9473,0.9316h0.001c0.2529,0,0.5713-0.3408,0.873-0.9375
		c0.126-0.2471,0.4258-0.3428,0.6729-0.2197c0.2461,0.125,0.3447,0.4268,0.2197,0.6729c-0.501,0.9854-1.0947,1.4844-1.7646,1.4844
		c-0.0039,0-0.0068,0-0.0107,0c-1.0801-0.0078-1.7617-1.3398-1.8359-1.4912c-0.1865-0.373-0.6201-0.9297-0.9551-0.9307
		c0,0,0,0-0.001,0c-0.2539,0-0.5732,0.3408-0.875,0.9375C16.0342,17.1621,15.4404,17.6611,14.7695,17.6611z"/>
	<path d="M7.5142,12.0342c-0.2764,0-0.5-0.2231-0.5-0.4995V5.6953c0-0.2764,0.2236-0.5,0.5-0.5s0.5,0.2236,0.5,0.5v5.8394
		C8.0142,11.811,7.7905,12.0342,7.5142,12.0342z"/>
	<path d="M12.0146,12.0342c-0.2764,0-0.5-0.2231-0.5-0.4995V5.6953c0-0.2764,0.2236-0.5,0.5-0.5s0.5,0.2236,0.5,0.5v5.8394
		C12.5146,11.811,12.291,12.0342,12.0146,12.0342z"/>
	<path d="M16.5146,12.0342c-0.2764,0-0.5-0.2231-0.5-0.4995V5.6953c0-0.2764,0.2236-0.5,0.5-0.5s0.5,0.2236,0.5,0.5v5.8394
		C17.0146,11.811,16.791,12.0342,16.5146,12.0342z"/>
</g>
<rect x="0.0142" y="0.0346" fill="none" width="24" height="24"/>
</svg>
