<?xml version="1.0" encoding="utf-8"?>
<!-- Generator: Adobe Illustrator 18.1.0, SVG Export Plug-In . SVG Version: 6.00 Build 0)  -->
<svg version="1.1" id="Layer_1" xmlns="http://www.w3.org/2000/svg" xmlns:xlink="http://www.w3.org/1999/xlink" x="0px" y="0px"
	 width="24px" height="24px" viewBox="0 0 24 24" enable-background="new 0 0 24 24" xml:space="preserve">
<g>
	<path d="M20.4951,5.0098h-4c-0.2764,0-0.5-0.2236-0.5-0.5v-4c0-0.2764,0.2236-0.5,0.5-0.5s0.5,0.2236,0.5,0.5v3.5h3.5
		c0.2764,0,0.5,0.2236,0.5,0.5S20.7715,5.0098,20.4951,5.0098z"/>
	<path d="M19.7031,24.0098H4.2822c-0.7095,0-1.2871-0.583-1.2871-1.2998V1.3154c0-0.7197,0.5776-1.3057,1.2871-1.3057h12.2129
		c0.417,0,0.6396,0.2183,0.8018,0.3779l3.3135,3.2695c0.1787,0.1772,0.3848,0.4341,0.3848,0.8525V22.71
		C20.9951,23.4268,20.416,24.0098,19.7031,24.0098z M16.4893,1.0029L4.2822,1.0098c-0.1558,0-0.2871,0.1401-0.2871,0.3057V22.71
		c0,0.1621,0.1313,0.2998,0.2871,0.2998h15.4209c0.1582,0,0.292-0.1377,0.292-0.2998V4.5098c0-0.0352,0-0.0542-0.0879-0.1406
		l-3.3115-3.2686C16.5664,1.0713,16.5088,1.0151,16.4893,1.0029z"/>
	<path d="M17.3906,20.0322H6.6304c-0.2764,0-0.5-0.2236-0.5-0.5s0.2236-0.5,0.5-0.5h10.7603c0.2764,0,0.5,0.2236,0.5,0.5
		S17.667,20.0322,17.3906,20.0322z"/>
	<path d="M17.3906,16.9932H6.6304c-0.2764,0-0.5-0.2236-0.5-0.5s0.2236-0.5,0.5-0.5h10.7603c0.2764,0,0.5,0.2236,0.5,0.5
		S17.667,16.9932,17.3906,16.9932z"/>
	<path d="M11.312,14.04c-1.3018,0-2.3608-1.1328-2.3608-2.5249s1.0591-2.5244,2.3608-2.5244c0.6191,0,1.2046,0.2544,1.647,0.7163
		c0.1914,0.1992,0.1855,0.5156-0.0146,0.707c-0.1992,0.1904-0.5156,0.1846-0.7061-0.0146c-0.2534-0.2637-0.582-0.4087-0.9263-0.4087
		c-0.7505,0-1.3608,0.6841-1.3608,1.5244c0,0.8413,0.6104,1.5249,1.3608,1.5249c0.3589,0,0.6978-0.1562,0.9556-0.4404
		c0.1865-0.2041,0.5029-0.2188,0.7061-0.0342c0.2041,0.1846,0.2197,0.501,0.0342,0.7061C12.5596,13.7666,11.957,14.04,11.312,14.04z
		"/>
	<path d="M15.835,14.04c-0.2031,0-0.3867-0.123-0.4629-0.3115l-1.5908-3.9058c-0.1045-0.2554,0.0186-0.5474,0.2744-0.6514
		c0.2549-0.1069,0.5469,0.0181,0.6514,0.2744l1.124,2.7593l1.1055-2.7568c0.1025-0.2568,0.3955-0.3799,0.6494-0.2783
		c0.2568,0.103,0.3809,0.394,0.2783,0.6504l-1.5654,3.9053c-0.0752,0.1895-0.2588,0.3135-0.4629,0.3145H15.835z"/>
</g>
<rect y="0.0001" fill="none" width="24" height="24"/>
</svg>
