<?xml version="1.0" encoding="utf-8"?>
<!-- Generator: Adobe Illustrator 18.1.0, SVG Export Plug-In . SVG Version: 6.00 Build 0)  -->
<svg version="1.1" id="Layer_1" xmlns="http://www.w3.org/2000/svg" xmlns:xlink="http://www.w3.org/1999/xlink" x="0px" y="0px"
	 width="24px" height="24px" viewBox="0 0 24 24" enable-background="new 0 0 24 24" xml:space="preserve">
<g>
	<path d="M21.4404,21.998H2.542c-0.2764,0-0.5-0.2236-0.5-0.5v-4.25c0-0.123,0.0449-0.2412,0.127-0.333l6.9155-7.7559
		c0.0947-0.1064,0.2305-0.1675,0.373-0.1675h5.0435c0.1426,0,0.2773,0.0605,0.373,0.1665l6.9395,7.7568
		c0.082,0.0908,0.127,0.21,0.127,0.333v4.25C21.9404,21.7744,21.7168,21.998,21.4404,21.998z M3.042,20.998h17.8984v-3.5586
		l-6.6631-7.4478H9.6816L3.042,17.4385V20.998z"/>
	<path d="M4.5288,23.9121c-0.2764,0-0.5-0.2236-0.5-0.5v-1.8828c0-0.2764,0.2236-0.5,0.5-0.5s0.5,0.2236,0.5,0.5v1.8828
		C5.0288,23.6885,4.8052,23.9121,4.5288,23.9121z"/>
	<path d="M19.4531,23.9121c-0.2764,0-0.5-0.2236-0.5-0.5v-1.8828c0-0.2764,0.2236-0.5,0.5-0.5s0.5,0.2236,0.5,0.5v1.8828
		C19.9531,23.6885,19.7295,23.9121,19.4531,23.9121z"/>
	<path d="M9.4575,9.9917c-0.2764,0-0.5-0.2236-0.5-0.5V8.4614c0-0.2764,0.2236-0.5,0.5-0.5s0.5,0.2236,0.5,0.5v1.0303
		C9.9575,9.7681,9.7339,9.9917,9.4575,9.9917z"/>
	<path d="M14.5156,9.9917c-0.2764,0-0.5-0.2236-0.5-0.5V8.4614c0-0.2764,0.2236-0.5,0.5-0.5s0.5,0.2236,0.5,0.5v1.0303
		C15.0156,9.7681,14.792,9.9917,14.5156,9.9917z"/>
	<path d="M11.9907,19.8906c-2.1147,0-3.8354-1.7207-3.8354-3.835c0-2.1152,1.7207-3.8359,3.8354-3.8359s3.8354,1.7207,3.8354,3.8359
		C15.8262,18.1699,14.1055,19.8906,11.9907,19.8906z M11.9907,13.2197c-1.5635,0-2.8354,1.2725-2.8354,2.8359
		s1.272,2.835,2.8354,2.835c1.563,0,2.8354-1.2715,2.8354-2.835S13.5537,13.2197,11.9907,13.2197z"/>
	<path d="M11.9907,17.9346c-1.0361,0-1.8789-0.8428-1.8789-1.8789s0.8428-1.8789,1.8789-1.8789
		c1.0366,0,1.8794,0.8428,1.8794,1.8789S13.0273,17.9346,11.9907,17.9346z M11.9907,15.1768c-0.4849,0-0.8789,0.3945-0.8789,0.8789
		s0.394,0.8789,0.8789,0.8789s0.8794-0.3945,0.8794-0.8789S12.4756,15.1768,11.9907,15.1768z"/>
	<path d="M16.0205,7.9272c-0.4951,0-0.8994-0.3823-0.9189-0.8701c0-0.0107-0.0195-1.1914-0.0303-1.5601
		C14.874,5.3076,13.8408,4.9766,12,4.9766c-1.834,0-2.873,0.3267-3.0894,0.5269c-0.0107,0.376-0.0298,1.542-0.0298,1.542
		c-0.019,0.499-0.4224,0.8818-0.9189,0.8818L1.9614,7.8984C1.4653,7.894,1.0649,7.5112,1.0474,7.0269
		c-0.001-0.0225-0.0864-2.3662,0.249-3.3462C2.1343,1.2324,5.4824,0.043,11.5327,0.043l0.4634,0.002l0.4531-0.002
		c6.0508,0,9.3994,1.1895,10.2354,3.6372c0.3369,0.98,0.252,3.3242,0.251,3.3477c-0.0176,0.4834-0.4189,0.8662-0.9131,0.8706
		l-5.9971,0.0288C16.0254,7.9272,16.0215,7.9272,16.0205,7.9272z M16.0205,6.9272v0.5l0.001-0.5
		C16.0205,6.9272,16.0205,6.9272,16.0205,6.9272z M2.0435,6.8989l5.8394,0.0278c0.0269-1.6299,0.0273-1.6318,0.0596-1.728
		C8.3193,4.0952,10.9058,3.9766,12,3.9766c1.0898,0,3.6631,0.1187,4.0391,1.2188c0.0332,0.0947,0.0342,0.0967,0.0605,1.7314
		l5.8398-0.0278c0.0283-0.9102-0.0137-2.3511-0.1992-2.895c-0.6729-1.9648-3.7988-2.9609-9.291-2.9609l-0.4531,0.002l-0.4634-0.002
		c-5.4917,0-8.6172,0.9961-9.2896,2.9604C2.0566,4.5479,2.0146,5.9897,2.0435,6.8989z"/>
</g>
<rect y="-0.002" fill="none" width="24" height="24"/>
</svg>
