<?xml version="1.0" encoding="utf-8"?>
<!-- Generator: Adobe Illustrator 18.1.0, SVG Export Plug-In . SVG Version: 6.00 Build 0)  -->
<svg version="1.1" id="Layer_1" xmlns="http://www.w3.org/2000/svg" xmlns:xlink="http://www.w3.org/1999/xlink" x="0px" y="0px"
	 width="24px" height="24px" viewBox="0 0 24 24" enable-background="new 0 0 24 24" xml:space="preserve">
<g>
	<path d="M20.4268,21.9854c-1.3623,0-2.4707-1.1084-2.4707-2.4697c0-1.3623,1.1084-2.4707,2.4707-2.4707
		c1.3613,0,2.4697,1.1084,2.4697,2.4707C22.8965,20.877,21.7881,21.9854,20.4268,21.9854z M20.4268,18.0449
		c-0.8105,0-1.4707,0.6602-1.4707,1.4707s0.6602,1.4697,1.4707,1.4697s1.4697-0.6592,1.4697-1.4697S21.2373,18.0449,20.4268,18.0449
		z"/>
	<path d="M8.6758,21.9854H7.3052c-0.2188,0-0.4121-0.1426-0.4771-0.3506L2.8799,8.9854H1.0024c-0.2764,0-0.5-0.2236-0.5-0.5
		s0.2236-0.5,0.5-0.5h2.2451c0.2188,0,0.4121,0.1421,0.4771,0.3511l3.9482,12.6489h0.6816l1.8169-3.9834
		c0.1147-0.25,0.4097-0.3604,0.6626-0.2471c0.2515,0.1152,0.3618,0.4111,0.2476,0.6631l-1.9507,4.2754
		C9.0493,21.8711,8.8716,21.9854,8.6758,21.9854z"/>
	<path d="M13.4834,18.084c-4.4048,0-8.4028-2.8906-8.6021-3.0361c-0.2227-0.1631-0.2705-0.4766-0.1074-0.6992
		c0.1641-0.2217,0.4766-0.2705,0.6987-0.1074c0.0542,0.0391,5.4858,3.9551,10.2949,2.5205c2.4004-0.7168,4.2773-2.6592,5.585-5.7764
		H3.8721c-0.2764,0-0.5-0.2236-0.5-0.5s0.2236-0.5,0.5-0.5h18.2168c0.1641,0,0.3174,0.0806,0.4111,0.2148
		c0.0928,0.1348,0.1143,0.3066,0.0576,0.4604c-1.4316,3.8247-3.6211,6.1997-6.5078,7.061
		C15.1953,17.9766,14.3311,18.084,13.4834,18.084z"/>
</g>
<rect x="0.0022" y="-0.0147" fill="none" width="24" height="24"/>
</svg>
