<?xml version="1.0" encoding="utf-8"?>
<!-- Generator: Adobe Illustrator 18.1.0, SVG Export Plug-In . SVG Version: 6.00 Build 0)  -->
<svg version="1.1" id="Layer_1" xmlns="http://www.w3.org/2000/svg" xmlns:xlink="http://www.w3.org/1999/xlink" x="0px" y="0px"
	 width="24px" height="24px" viewBox="0 0 24 24" enable-background="new 0 0 24 24" xml:space="preserve">
<g>
	<g>
		<path d="M12.0078,23.7617c-6.4761,0-11.7451-5.2695-11.7451-11.7461c0-6.4761,5.269-11.7451,11.7451-11.7451
			c6.4766,0,11.7461,5.269,11.7461,11.7451C23.7539,18.4922,18.4844,23.7617,12.0078,23.7617z M12.0078,1.2705
			c-5.9248,0-10.7451,4.8203-10.7451,10.7451c0,5.9258,4.8203,10.7461,10.7451,10.7461c5.9258,0,10.7461-4.8203,10.7461-10.7461
			C22.7539,6.0908,17.9336,1.2705,12.0078,1.2705z"/>
	</g>
	<path d="M15.1123,17.2676H8.9326c-0.2168,0-0.4087-0.1396-0.4756-0.3457l-1.9111-5.897c-0.0669-0.2056,0.0063-0.4312,0.1812-0.5581
		l4.999-3.6445c0.1782-0.1304,0.4214-0.1279,0.5962,0.0054l5.001,3.7905c0.1709,0.1294,0.2402,0.353,0.1729,0.5562l-1.9092,5.7505
		C15.5186,17.1299,15.3281,17.2676,15.1123,17.2676z M9.2964,16.2676h5.4556l1.6826-5.0688l-4.4199-3.3496L7.6089,11.061
		L9.2964,16.2676z"/>
	<path d="M12.0205,3.9619c-0.0674,0-0.1348-0.0137-0.1978-0.041l-4.29-1.8491C7.2788,1.9629,7.1621,1.6685,7.2715,1.415
		c0.1089-0.2539,0.4028-0.3716,0.6567-0.2612l4.0933,1.7642l4.1064-1.749c0.2549-0.1084,0.5479,0.0098,0.6562,0.2642
		c0.1084,0.2539-0.0098,0.5474-0.2637,0.6558l-4.3037,1.833C12.1543,3.9487,12.0869,3.9619,12.0205,3.9619z"/>
	<path d="M0.8003,13.4453c-0.1172,0-0.2344-0.041-0.3291-0.123c-0.208-0.1826-0.229-0.498-0.0474-0.7061L3.415,9.1934l-0.417-4.48
		C2.9727,4.4385,3.1748,4.1948,3.4497,4.1689c0.2681-0.0278,0.5186,0.1763,0.5444,0.4517l0.4365,4.6938
		c0.0127,0.1367-0.0312,0.272-0.1216,0.3755l-3.1323,3.5845C1.0781,13.3877,0.9395,13.4453,0.8003,13.4453z"/>
	<path d="M9.4038,23.458c-0.1714,0-0.3384-0.0879-0.4316-0.2471l-2.272-3.8711l-4.3013-0.9902
		c-0.269-0.0625-0.437-0.3301-0.375-0.5996s0.3276-0.4355,0.5996-0.375l4.5112,1.0391c0.1338,0.0312,0.2495,0.1152,0.3188,0.2344
		l2.3809,4.0566c0.1396,0.2383,0.0601,0.5439-0.1782,0.6846C9.5767,23.4355,9.4897,23.458,9.4038,23.458z"/>
	<path d="M14.6426,23.4512c-0.0869,0-0.1738-0.0225-0.2529-0.0684c-0.2383-0.1406-0.3184-0.4463-0.1787-0.6846l2.3789-4.0518
		c0.0703-0.1191,0.1855-0.2031,0.3193-0.2344l4.6123-1.0654c0.2715-0.0635,0.5371,0.1055,0.5996,0.375
		c0.0625,0.2686-0.1055,0.5371-0.375,0.5996l-4.4023,1.0166l-2.2695,3.8662C14.9805,23.3633,14.8135,23.4512,14.6426,23.4512z"/>
	<path d="M23.2178,13.4209c-0.1396,0-0.2783-0.0576-0.377-0.1709l-3.1094-3.5635c-0.0898-0.1025-0.1328-0.2378-0.1211-0.3735
		l0.4229-4.6782c0.0244-0.2759,0.2686-0.4858,0.543-0.4531c0.2754,0.0249,0.4775,0.2681,0.4531,0.543L20.626,9.1899l2.9688,3.4019
		c0.1816,0.208,0.1602,0.5244-0.0479,0.7061C23.4521,13.3799,23.335,13.4209,23.2178,13.4209z"/>
	<path d="M12.0205,7.7261c-0.2764,0-0.5-0.2236-0.5-0.5V3.4619c0-0.2764,0.2236-0.5,0.5-0.5s0.5,0.2236,0.5,0.5v3.7642
		C12.5205,7.5024,12.2969,7.7261,12.0205,7.7261z"/>
	<path d="M17.0215,11.5166c-0.1777,0-0.3506-0.0952-0.4404-0.2632c-0.1309-0.2432-0.0391-0.5464,0.2041-0.6772l3.0869-1.6587
		c0.2432-0.1309,0.5469-0.04,0.6768,0.2036c0.1309,0.2432,0.0391,0.5464-0.2041,0.6772l-3.0869,1.6587
		C17.1826,11.4976,17.1016,11.5166,17.0215,11.5166z"/>
	<path d="M17.0215,19.3994c-0.1367,0-0.2734-0.0566-0.3721-0.166l-1.9092-2.1318c-0.1846-0.2061-0.167-0.5225,0.0381-0.7061
		c0.2051-0.1846,0.5215-0.167,0.7061,0.0381l1.9092,2.1318c0.1846,0.2061,0.167,0.5225-0.0381,0.7061
		C17.2598,19.3574,17.1406,19.3994,17.0215,19.3994z"/>
	<path d="M7.0225,19.4014c-0.1191,0-0.2383-0.042-0.3335-0.1279c-0.2056-0.1836-0.2231-0.5-0.0391-0.7051l1.9102-2.1338
		c0.1841-0.2061,0.502-0.2236,0.7061-0.0391c0.2056,0.1836,0.2231,0.5,0.0391,0.7061L7.395,19.2344
		C7.2964,19.3447,7.1597,19.4014,7.0225,19.4014z"/>
	<path d="M7.021,11.3706c-0.0737,0-0.1484-0.0161-0.2192-0.0508L3.7129,9.8101C3.4648,9.689,3.3623,9.3892,3.4834,9.1411
		c0.1221-0.248,0.4214-0.3501,0.6689-0.2295l3.0889,1.5098c0.248,0.1211,0.3506,0.4209,0.2295,0.6689
		C7.3838,11.2676,7.2061,11.3706,7.021,11.3706z"/>
</g>
<rect x="-0.0061" fill="none" width="24" height="24"/>
</svg>
