<?xml version="1.0" encoding="utf-8"?>
<!-- Generator: Adobe Illustrator 18.1.0, SVG Export Plug-In . SVG Version: 6.00 Build 0)  -->
<svg version="1.1" id="Layer_1" xmlns="http://www.w3.org/2000/svg" xmlns:xlink="http://www.w3.org/1999/xlink" x="0px" y="0px"
	 width="24px" height="24px" viewBox="0 0 24 24" enable-background="new 0 0 24 24" xml:space="preserve">
<g>
	<path d="M22.9863,24h-22c-0.2764,0-0.5-0.2236-0.5-0.5S0.71,23,0.9863,23h22c0.2764,0,0.5,0.2236,0.5,0.5S23.2627,24,22.9863,24z"
		/>
	<path d="M8.4863,24h-6c-0.2764,0-0.5-0.2236-0.5-0.5v-12c0-0.2764,0.2236-0.5,0.5-0.5h6c0.2764,0,0.5,0.2236,0.5,0.5v12
		C8.9863,23.7764,8.7627,24,8.4863,24z M2.9863,23h5V12h-5V23z"/>
	<path d="M7.4863,12h-4c-0.2764,0-0.5-0.2236-0.5-0.5v-4c0-0.2764,0.2236-0.5,0.5-0.5h4c0.2764,0,0.5,0.2236,0.5,0.5v4
		C7.9863,11.7764,7.7627,12,7.4863,12z M3.9863,11h3V8h-3V11z"/>
	<path d="M6.4863,8h-2c-0.2764,0-0.5-0.2236-0.5-0.5v-3c0-0.2764,0.2236-0.5,0.5-0.5h2c0.2764,0,0.5,0.2236,0.5,0.5v3
		C6.9863,7.7764,6.7627,8,6.4863,8z M4.9863,7h1V5h-1V7z"/>
	<path d="M5.4863,22.0693c-0.2764,0-0.5-0.2236-0.5-0.5V13.918c0-0.2764,0.2236-0.5,0.5-0.5s0.5,0.2236,0.5,0.5v7.6514
		C5.9863,21.8457,5.7627,22.0693,5.4863,22.0693z"/>
	<path d="M5.5137,10.2334c-0.2764,0-0.5-0.2236-0.5-0.5v-0.52c0-0.2764,0.2236-0.5,0.5-0.5s0.5,0.2236,0.5,0.5v0.52
		C6.0137,10.0098,5.79,10.2334,5.5137,10.2334z"/>
	<path d="M5.4863,5c-0.2764,0-0.5-0.2236-0.5-0.5V1c0-0.2764,0.2236-0.5,0.5-0.5s0.5,0.2236,0.5,0.5v3.5
		C5.9863,4.7764,5.7627,5,5.4863,5z"/>
	<path d="M21.4873,24h-6c-0.2764,0-0.5-0.2236-0.5-0.5v-12c0-0.2764,0.2236-0.5,0.5-0.5h6c0.2764,0,0.5,0.2236,0.5,0.5v12
		C21.9873,23.7764,21.7637,24,21.4873,24z M15.9873,23h5V12h-5V23z"/>
	<path d="M20.4873,12h-4c-0.2764,0-0.5-0.2236-0.5-0.5v-4c0-0.2764,0.2236-0.5,0.5-0.5h4c0.2764,0,0.5,0.2236,0.5,0.5v4
		C20.9873,11.7764,20.7637,12,20.4873,12z M16.9873,11h3V8h-3V11z"/>
	<path d="M19.4873,8h-2c-0.2764,0-0.5-0.2236-0.5-0.5v-3c0-0.2764,0.2236-0.5,0.5-0.5h2c0.2764,0,0.5,0.2236,0.5,0.5v3
		C19.9873,7.7764,19.7637,8,19.4873,8z M17.9873,7h1V5h-1V7z"/>
	<path d="M18.4873,22.0693c-0.2764,0-0.5-0.2236-0.5-0.5V13.918c0-0.2764,0.2236-0.5,0.5-0.5s0.5,0.2236,0.5,0.5v7.6514
		C18.9873,21.8457,18.7637,22.0693,18.4873,22.0693z"/>
	<path d="M18.5146,10.2334c-0.2764,0-0.5-0.2236-0.5-0.5v-0.52c0-0.2764,0.2236-0.5,0.5-0.5s0.5,0.2236,0.5,0.5v0.52
		C19.0146,10.0098,18.791,10.2334,18.5146,10.2334z"/>
	<path d="M18.4873,5c-0.2764,0-0.5-0.2236-0.5-0.5V1c0-0.2764,0.2236-0.5,0.5-0.5s0.5,0.2236,0.5,0.5v3.5
		C18.9873,4.7764,18.7637,5,18.4873,5z"/>
	<path d="M15.4873,14h-7.001c-0.2764,0-0.5-0.2236-0.5-0.5S8.21,13,8.4863,13h7.001c0.2764,0,0.5,0.2236,0.5,0.5
		S15.7637,14,15.4873,14z"/>
	<path d="M15.3975,16.9863c-0.1172,0-0.2344-0.041-0.3291-0.124l-3.082-2.6982l-3.0815,2.6982
		c-0.209,0.1807-0.5244,0.1611-0.7056-0.0469c-0.1821-0.207-0.1611-0.5234,0.0464-0.7051l3.4111-2.9863
		c0.1895-0.165,0.4702-0.166,0.6587,0l3.4111,2.9863c0.208,0.1816,0.2285,0.498,0.0469,0.7051
		C15.6748,16.9287,15.5361,16.9863,15.3975,16.9863z"/>
</g>
<rect x="-0.0136" fill="none" width="24" height="24"/>
</svg>
