<?xml version="1.0" encoding="utf-8"?>
<!-- Generator: Adobe Illustrator 18.1.0, SVG Export Plug-In . SVG Version: 6.00 Build 0)  -->
<svg version="1.1" id="Layer_1" xmlns="http://www.w3.org/2000/svg" xmlns:xlink="http://www.w3.org/1999/xlink" x="0px" y="0px"
	 width="24px" height="24px" viewBox="0 0 24 24" enable-background="new 0 0 24 24" xml:space="preserve">
<g>
	<path d="M11.9775,18.916c-2.707,0-4.9092-2.2021-4.9092-4.9092s2.2021-4.9097,4.9092-4.9097s4.9092,2.2026,4.9092,4.9097
		S14.6846,18.916,11.9775,18.916z M11.9775,10.0972c-2.1558,0-3.9092,1.7539-3.9092,3.9097c0,2.1553,1.7534,3.9092,3.9092,3.9092
		c2.1553,0,3.9092-1.7539,3.9092-3.9092C15.8867,11.8511,14.1328,10.0972,11.9775,10.0972z"/>
	<path d="M10.9985,16.6553c-0.2764,0-0.5-0.2236-0.5-0.5v-4.29c0-0.2764,0.2236-0.5,0.5-0.5s0.5,0.2236,0.5,0.5v4.29
		C11.4985,16.4316,11.2749,16.6553,10.9985,16.6553z"/>
	<path d="M11.502,12.3652c-0.2764,0-0.5-0.2236-0.5-0.5v-0.7529c0-0.2764,0.2236-0.5,0.5-0.5s0.5,0.2236,0.5,0.5v0.7529
		C12.002,12.1416,11.7783,12.3652,11.502,12.3652z"/>
	<path d="M11.502,17.4004c-0.2764,0-0.5-0.2236-0.5-0.5v-0.7451c0-0.2764,0.2236-0.5,0.5-0.5s0.5,0.2236,0.5,0.5v0.7451
		C12.002,17.1768,11.7783,17.4004,11.502,17.4004z"/>
	<path d="M12.5801,14.3779c-0.0615,0-0.124-0.0029-0.1875-0.0088c-0.2744-0.0254-0.4775-0.2686-0.4521-0.5439
		s0.2715-0.4717,0.5439-0.4521c0.2861,0.0244,0.5088-0.0547,0.625-0.2285c0.0879-0.1309,0.0986-0.2959,0.0283-0.4316
		c-0.1104-0.2119-0.4053-0.3389-0.8086-0.3477h-1.7969c-0.2764,0-0.5-0.2236-0.5-0.5s0.2236-0.5,0.5-0.5h1.8076
		c0.791,0.0166,1.4014,0.3403,1.6855,0.8877c0.2383,0.46,0.2061,1.0156-0.0859,1.4492
		C13.6494,14.1328,13.1514,14.3779,12.5801,14.3779z"/>
	<path fill="none" stroke="#000000" stroke-linecap="round" stroke-linejoin="round" d="M11.0202,16.1548"/>
	<path d="M10.5322,16.6553c-0.2764,0-0.5-0.2236-0.5-0.5s0.2236-0.5,0.5-0.5h2.1465c0.6318-0.0078,0.6641-0.541,0.6631-0.6475
		c0-0.0645-0.0176-0.6309-0.6064-0.6367H11.02c-0.2764,0-0.5-0.2236-0.5-0.5s0.2236-0.5,0.5-0.5h1.7202
		c1.041,0.0107,1.6006,0.8506,1.6016,1.6348c0.001,0.8096-0.5674,1.6357-1.6572,1.6494H10.5322z"/>
	<path d="M23.4434,21.0205H1.9907c-1.144,0-2.0747-0.9307-2.0747-2.0752V5.4932c0-1.3589,0.9307-2.4648,2.0747-2.4648h21.4526
		c0.2764,0,0.5,0.2236,0.5,0.5s-0.2236,0.5-0.5,0.5H1.9907c-0.5825,0-1.0747,0.6709-1.0747,1.4648s0.4922,1.4644,1.0747,1.4644
		h21.4526c0.2764,0,0.5,0.2236,0.5,0.5v13.063C23.9434,20.7969,23.7197,21.0205,23.4434,21.0205z M0.916,7.6006v11.3447
		c0,0.5928,0.4819,1.0752,1.0747,1.0752h20.9526V7.9575H1.9907C1.5977,7.9575,1.2295,7.8271,0.916,7.6006z"/>
	<path d="M23.4434,5.9932H2.3096c-0.2764,0-0.5-0.2236-0.5-0.5s0.2236-0.5,0.5-0.5h21.1338c0.2764,0,0.5,0.2236,0.5,0.5
		S23.7197,5.9932,23.4434,5.9932z"/>
</g>
<rect x="-0.0197" y="0.0121" fill="none" width="24" height="24"/>
<rect x="-0.0197" y="0.0091" fill="none" width="24" height="24"/>
</svg>
