<?xml version="1.0" encoding="utf-8"?>
<!-- Generator: Adobe Illustrator 18.1.0, SVG Export Plug-In . SVG Version: 6.00 Build 0)  -->
<svg version="1.1" id="Layer_1" xmlns="http://www.w3.org/2000/svg" xmlns:xlink="http://www.w3.org/1999/xlink" x="0px" y="0px"
	 width="24px" height="24px" viewBox="0 0 24 24" enable-background="new 0 0 24 24" xml:space="preserve">
<g>
	<path d="M16.7402,18.417c-0.3975,0-0.7705-0.1543-1.0508-0.4355l-0.1572-0.1572c-0.3896-0.3896-0.5234-0.9473-0.377-1.4551
		L7.5928,8.8066c-0.5083,0.1436-1.0771,0.0005-1.4546-0.377L5.9814,8.2739C5.4019,7.6934,5.4019,6.7515,5.98,6.1719l5.4404-5.4395
		c0.5601-0.5596,1.5386-0.5625,2.1001,0l0.1562,0.1553c0.3945,0.3945,0.5283,0.9546,0.3779,1.4639l7.5566,7.5566
		c0.5117-0.1479,1.082-0.0039,1.4619,0.3755l0.1572,0.1577c0.5791,0.5781,0.5791,1.521,0,2.1016l-5.4395,5.4385
		C17.5107,18.2627,17.1377,18.417,16.7402,18.417z M7.7075,7.7144c0.1289,0,0.2568,0.0498,0.3535,0.1465l8.0405,8.0405
		c0.1641,0.1641,0.1934,0.4199,0.0713,0.6172c-0.1201,0.1934-0.0928,0.4395,0.0664,0.5986l0.1572,0.1572
		c0.1836,0.1836,0.5039,0.1836,0.6875,0l5.4395-5.4385c0.1895-0.1899,0.1895-0.498,0-0.687l-0.1572-0.1577
		c-0.1553-0.1548-0.4131-0.1841-0.6016-0.0664c-0.1973,0.1245-0.4551,0.0962-0.6201-0.0693l-8.0381-8.0381
		c-0.166-0.1655-0.1943-0.4238-0.0684-0.6211c0.1191-0.1895,0.0918-0.4419-0.0664-0.6001l-0.1562-0.1553
		c-0.1885-0.1875-0.5068-0.1846-0.6875-0.0015L6.6875,6.8789c-0.189,0.1895-0.189,0.4976,0.0005,0.687l0.1562,0.1558
		C7.001,7.8784,7.2583,7.9058,7.4434,7.79C7.5249,7.7393,7.6162,7.7144,7.7075,7.7144z"/>
	<path d="M0.6138,23.8486c-0.1279,0-0.2559-0.0488-0.3535-0.1465c-0.1953-0.1953-0.1953-0.5117,0-0.707l9.7754-9.7754
		c0.1953-0.1953,0.5117-0.1953,0.707,0s0.1953,0.5117,0,0.707l-9.7754,9.7754C0.8696,23.7998,0.7417,23.8486,0.6138,23.8486z"/>
	<path d="M15.748,16.7549c-0.1279,0-0.2559-0.0488-0.3535-0.1465c-0.1953-0.1953-0.1953-0.5117,0-0.707l5.75-5.7529
		c0.1953-0.1953,0.5117-0.1953,0.707,0s0.1953,0.5117,0,0.707l-5.75,5.7529C16.0039,16.7061,15.876,16.7549,15.748,16.7549z"/>
	<path d="M7.7075,8.7144c-0.1279,0-0.2559-0.0488-0.3535-0.1465c-0.1953-0.1953-0.1953-0.5117,0-0.707l5.7524-5.7505
		c0.1953-0.1953,0.5117-0.1953,0.707,0s0.1953,0.5117,0,0.707L8.061,8.5679C7.9634,8.6655,7.8354,8.7144,7.7075,8.7144z"/>
</g>
<rect x="-0.0005" y="-0.0011" fill="none" width="24" height="24"/>
</svg>
