<?xml version="1.0" encoding="utf-8"?>
<!-- Generator: Adobe Illustrator 18.1.0, SVG Export Plug-In . SVG Version: 6.00 Build 0)  -->
<svg version="1.1" id="Layer_1" xmlns="http://www.w3.org/2000/svg" xmlns:xlink="http://www.w3.org/1999/xlink" x="0px" y="0px"
	 width="24px" height="24px" viewBox="0 0 24 24" enable-background="new 0 0 24 24" xml:space="preserve">
<g>
	<path d="M23.2852,14.0352c-0.0039,0-0.0117,0-0.0195,0H0.7979c-0.1919,0-0.3672-0.1104-0.4502-0.2832
		c-0.0835-0.1729-0.0605-0.3779,0.0591-0.5283l3.9814-5C4.4829,8.1045,4.627,8.0352,4.7793,8.0352h14.5049
		c0.1523,0,0.2959,0.0693,0.3916,0.1885l3.9111,4.9131c0.1211,0.0908,0.1982,0.2354,0.1982,0.3984
		C23.7852,13.8115,23.5615,14.0352,23.2852,14.0352z M1.835,13.0352h20.3936l-3.1855-4H5.0205L1.835,13.0352z"/>
	<path d="M2.5142,22.0361c-0.2764,0-0.5-0.2236-0.5-0.5v-8.001c0-0.2764,0.2236-0.5,0.5-0.5s0.5,0.2236,0.5,0.5v8.001
		C3.0142,21.8125,2.7905,22.0361,2.5142,22.0361z"/>
	<path d="M6.5142,19.0176c-0.2764,0-0.5-0.2236-0.5-0.5v-2.9814c0-0.2764,0.2236-0.5,0.5-0.5s0.5,0.2236,0.5,0.5v2.9814
		C7.0142,18.7939,6.7905,19.0176,6.5142,19.0176z"/>
	<path d="M21.5146,22.0361c-0.2764,0-0.5-0.2236-0.5-0.5v-8.001c0-0.2764,0.2236-0.5,0.5-0.5s0.5,0.2236,0.5,0.5v8.001
		C22.0146,21.8125,21.791,22.0361,21.5146,22.0361z"/>
	<path d="M17.5146,19.0176c-0.2764,0-0.5-0.2236-0.5-0.5v-2.9814c0-0.2764,0.2236-0.5,0.5-0.5s0.5,0.2236,0.5,0.5v2.9814
		C18.0146,18.7939,17.791,19.0176,17.5146,19.0176z"/>
</g>
<rect x="0.0142" y="0.0354" fill="none" width="24" height="24"/>
</svg>
