<?xml version="1.0" encoding="utf-8"?>
<!-- Generator: Adobe Illustrator 18.1.0, SVG Export Plug-In . SVG Version: 6.00 Build 0)  -->
<svg version="1.1" id="Layer_1" xmlns="http://www.w3.org/2000/svg" xmlns:xlink="http://www.w3.org/1999/xlink" x="0px" y="0px"
	 width="24px" height="24px" viewBox="0 0 24 24" enable-background="new 0 0 24 24" xml:space="preserve">
<g>
	<path d="M19.4873,23.5215c-0.2764,0-0.5-0.2236-0.5-0.5V11.5078c0-0.2764,0.2236-0.5,0.5-0.5s0.5,0.2236,0.5,0.5v11.5137
		C19.9873,23.2979,19.7637,23.5215,19.4873,23.5215z"/>
	<path d="M19.4873,6.9287c-0.2764,0-0.5-0.2236-0.5-0.5V1.001c0-0.2764,0.2236-0.5,0.5-0.5s0.5,0.2236,0.5,0.5v5.4277
		C19.9873,6.7051,19.7637,6.9287,19.4873,6.9287z"/>
	<path d="M19.4873,12.0078c-1.6768,0-3.04-1.3638-3.04-3.0396s1.3633-3.0391,3.04-3.0391c1.6758,0,3.0391,1.3633,3.0391,3.0391
		S21.1631,12.0078,19.4873,12.0078z M19.4873,6.9292c-1.125,0-2.04,0.9146-2.04,2.0391s0.915,2.0396,2.04,2.0396
		c1.124,0,2.0391-0.915,2.0391-2.0396S20.6113,6.9292,19.4873,6.9292z"/>
	<path d="M4.5532,8.105c-1.6758,0-3.0391-1.3633-3.0391-3.0391s1.3633-3.0396,3.0391-3.0396s3.0396,1.3638,3.0396,3.0396
		S6.229,8.105,4.5532,8.105z M4.5532,3.0264c-1.1245,0-2.0391,0.915-2.0391,2.0396S3.4287,7.105,4.5532,7.105
		s2.0396-0.9146,2.0396-2.0391S5.6777,3.0264,4.5532,3.0264z"/>
	<path d="M12,20.1035c-1.6758,0-3.0391-1.3633-3.0391-3.0391S10.3242,14.0254,12,14.0254s3.0391,1.3633,3.0391,3.0391
		S13.6758,20.1035,12,20.1035z M12,15.0254c-1.1245,0-2.0391,0.915-2.0391,2.0391S10.8755,19.1035,12,19.1035
		c1.124,0,2.0391-0.915,2.0391-2.0391S13.124,15.0254,12,15.0254z"/>
	<path d="M4.5532,23.5215c-0.2764,0-0.5-0.2236-0.5-0.5V7.605c0-0.2764,0.2236-0.5,0.5-0.5s0.5,0.2236,0.5,0.5v15.4165
		C5.0532,23.2979,4.8296,23.5215,4.5532,23.5215z"/>
	<path d="M4.5532,3.0264c-0.2764,0-0.5-0.2236-0.5-0.5V1.001c0-0.2764,0.2236-0.5,0.5-0.5s0.5,0.2236,0.5,0.5v1.5254
		C5.0532,2.8027,4.8296,3.0264,4.5532,3.0264z"/>
	<path d="M12,23.5215c-0.2764,0-0.5-0.2236-0.5-0.5v-3.418c0-0.2764,0.2236-0.5,0.5-0.5s0.5,0.2236,0.5,0.5v3.418
		C12.5,23.2979,12.2764,23.5215,12,23.5215z"/>
	<path d="M12,15.0254c-0.2764,0-0.5-0.2236-0.5-0.5V1.001c0-0.2764,0.2236-0.5,0.5-0.5s0.5,0.2236,0.5,0.5v13.5244
		C12.5,14.8018,12.2764,15.0254,12,15.0254z"/>
</g>
<rect fill="none" width="24" height="24"/>
</svg>
