<?xml version="1.0" encoding="utf-8"?>
<!-- Generator: Adobe Illustrator 18.1.0, SVG Export Plug-In . SVG Version: 6.00 Build 0)  -->
<svg version="1.1" id="Layer_1" xmlns="http://www.w3.org/2000/svg" xmlns:xlink="http://www.w3.org/1999/xlink" x="0px" y="0px"
	 width="24px" height="24px" viewBox="0 0 24 24" enable-background="new 0 0 24 24" xml:space="preserve">
<g>
	<path d="M14.5,24H1.4829c-0.2764,0-0.5-0.2236-0.5-0.5V2.9507c0-0.2476,0.1812-0.458,0.4263-0.4946l13.0166-1.9453
		c0.1494-0.021,0.291,0.0215,0.4004,0.1157C14.9365,0.7217,15,0.8599,15,1.0054V23.5C15,23.7764,14.7764,24,14.5,24z M1.9829,23H14
		V1.5854L1.9829,3.3813V23z"/>
	<path d="M9.4409,23.9814H6.4517c-0.2764,0-0.5-0.2236-0.5-0.5v-4.9375c0-0.2764,0.2236-0.5,0.5-0.5h2.9893
		c0.2764,0,0.5,0.2236,0.5,0.5v4.9375C9.9409,23.7578,9.7173,23.9814,9.4409,23.9814z M6.9517,22.9814h1.9893v-3.9375H6.9517
		V22.9814z"/>
	<path d="M9.4409,15.9902H6.4517c-0.2764,0-0.5-0.2236-0.5-0.5v-3.0088c0-0.2764,0.2236-0.5,0.5-0.5h2.9893
		c0.2764,0,0.5,0.2236,0.5,0.5v3.0088C9.9409,15.7666,9.7173,15.9902,9.4409,15.9902z M6.9517,14.9902h1.9893v-2.0088H6.9517
		V14.9902z"/>
	<path d="M9.4409,9.9897H6.4517c-0.2764,0-0.5-0.2236-0.5-0.5V6.481c0-0.2764,0.2236-0.5,0.5-0.5h2.9893
		c0.2764,0,0.5,0.2236,0.5,0.5v3.0088C9.9409,9.7661,9.7173,9.9897,9.4409,9.9897z M6.9517,8.9897h1.9893V6.981H6.9517V8.9897z"/>
	<path d="M22.5,24h-8c-0.2764,0-0.5-0.2236-0.5-0.5V8.8994c0-0.1504,0.0674-0.293,0.1846-0.3877
		c0.1172-0.0952,0.2734-0.1338,0.417-0.1016l8,1.666C22.834,10.124,23,10.3286,23,10.5654V23.5C23,23.7764,22.7764,24,22.5,24z
		 M15,23h7V10.9722l-7-1.458V23z"/>
	<path d="M18.4551,23.9814c-0.2764,0-0.5-0.2236-0.5-0.5v-2.9648c0-0.2764,0.2236-0.5,0.5-0.5s0.5,0.2236,0.5,0.5v2.9648
		C18.9551,23.7578,18.7314,23.9814,18.4551,23.9814z"/>
	<path d="M18.4551,17.9688c-0.2764,0-0.5-0.2236-0.5-0.5v-1.0801c0-0.2764,0.2236-0.5,0.5-0.5s0.5,0.2236,0.5,0.5v1.0801
		C18.9551,17.7451,18.7314,17.9688,18.4551,17.9688z"/>
	<path d="M18.4551,14.9688c-0.2764,0-0.5-0.2236-0.5-0.5v-1.0811c0-0.2764,0.2236-0.5,0.5-0.5s0.5,0.2236,0.5,0.5v1.0811
		C18.9551,14.7451,18.7314,14.9688,18.4551,14.9688z"/>
</g>
<rect fill="none" width="24" height="24"/>
</svg>
