<?xml version="1.0" encoding="utf-8"?>
<!-- Generator: Adobe Illustrator 18.1.0, SVG Export Plug-In . SVG Version: 6.00 Build 0)  -->
<svg version="1.1" id="Layer_1" xmlns="http://www.w3.org/2000/svg" xmlns:xlink="http://www.w3.org/1999/xlink" x="0px" y="0px"
	 width="24px" height="24px" viewBox="0 0 24 24" enable-background="new 0 0 24 24" xml:space="preserve">
<g>
	<path d="M21.5,24.0342h-19c-0.2764,0-0.5-0.2236-0.5-0.5v-23c0-0.2764,0.2236-0.5,0.5-0.5h19c0.2764,0,0.5,0.2236,0.5,0.5v23
		C22,23.8105,21.7764,24.0342,21.5,24.0342z M3,23.0342h18v-22H3V23.0342z"/>
	<path d="M21.5,6.0342h-19c-0.2764,0-0.5-0.2236-0.5-0.5v-5c0-0.2764,0.2236-0.5,0.5-0.5h19c0.2764,0,0.5,0.2236,0.5,0.5v5
		C22,5.8105,21.7764,6.0342,21.5,6.0342z M3,5.0342h18v-4H3V5.0342z"/>
	<path d="M11.9634,4.3433c-0.7007,0-1.2705-0.5698-1.2705-1.2705s0.5698-1.2705,1.2705-1.2705s1.271,0.5698,1.271,1.2705
		S12.6641,4.3433,11.9634,4.3433z M11.9634,2.8022c-0.1489,0-0.2705,0.1216-0.2705,0.2705c0.0005,0.2983,0.5415,0.2974,0.5415,0
		C12.2344,2.9238,12.1133,2.8022,11.9634,2.8022z"/>
	<path d="M12.0273,20.1777c-2.6133,0-4.9448-1.7529-5.6704-4.2637c-0.0713-0.2471,0.0562-0.5078,0.2949-0.6025
		c2.5576-1.0215,4.6816-1.0342,6.1831-0.0342l0.7266,0.4893c0.9385,0.6357,1.8242,1.2363,2.709,1.6387
		c0.1445,0.0654,0.249,0.1963,0.2822,0.3516s-0.0098,0.3174-0.1162,0.4355C15.3135,19.4541,13.707,20.1777,12.0273,20.1777z
		 M7.4663,16.0713c0.7305,1.8496,2.5449,3.1064,4.561,3.1064c1.1719,0,2.3018-0.4248,3.1875-1.1836
		c-0.7354-0.3975-1.459-0.8877-2.2148-1.4004l-0.7188-0.4844C11.1445,15.3535,9.4897,15.3467,7.4663,16.0713z"/>
	<path d="M18.8447,16.0176c-0.0244,0-0.0488-0.002-0.0732-0.0049c-0.2725-0.04-0.4619-0.2939-0.4229-0.5674
		c0.0518-0.3555,0.0762-0.6514,0.0762-0.9307c0-0.2803-0.0244-0.5762-0.0762-0.9307c-0.0391-0.2734,0.1494-0.5273,0.4229-0.5674
		c0.2676-0.0361,0.5264,0.1484,0.5674,0.4229c0.0586,0.4033,0.0859,0.7451,0.0859,1.0752c0,0.3281-0.0273,0.6699-0.0859,1.0752
		C19.3027,15.8389,19.0889,16.0176,18.8447,16.0176z"/>
	<path d="M12,21.9395c-4.0938,0-7.4243-3.3311-7.4243-7.4248S7.9062,7.0903,12,7.0903c3.6543,0,6.8086,2.7295,7.3389,6.3491
		c0.04,0.2734-0.1494,0.5273-0.4229,0.5674c-0.2686,0.0322-0.5264-0.1494-0.5674-0.4229C17.8906,10.4521,15.1611,8.0903,12,8.0903
		c-3.5425,0-6.4243,2.8818-6.4243,6.4243c0,3.543,2.8818,6.4248,6.4243,6.4248c3.1621,0,5.8916-2.3623,6.3486-5.4941
		c0.041-0.2744,0.2988-0.4561,0.5674-0.4229c0.2734,0.04,0.4619,0.2939,0.4229,0.5674C18.8096,19.21,15.6553,21.9395,12,21.9395z"/>
	<path d="M18.8438,16.0176h-1.6201c-0.2764,0-0.5-0.2236-0.5-0.5v-2.0059c0-0.2764,0.2236-0.5,0.5-0.5h1.6201
		c0.2764,0,0.5,0.2236,0.5,0.5s-0.2236,0.5-0.5,0.5h-1.1201v1.0059h1.1201c0.2764,0,0.5,0.2236,0.5,0.5
		S19.1201,16.0176,18.8438,16.0176z"/>
	<path d="M14.9502,3.5698c-0.1309,0-0.2607-0.0498-0.3506-0.1499c-0.0898-0.0903-0.1494-0.21-0.1494-0.3501
		c0-0.1299,0.0596-0.2598,0.1494-0.3501c0.1807-0.1797,0.5205-0.1899,0.71,0c0.0898,0.1001,0.1406,0.23,0.1406,0.3501
		c0,0.1299-0.0508,0.2598-0.1406,0.3501C15.21,3.52,15.0898,3.5698,14.9502,3.5698z"/>
</g>
<rect y="0.0344" fill="none" width="24" height="24"/>
</svg>
