<?xml version="1.0" encoding="utf-8"?>
<!-- Generator: Adobe Illustrator 18.1.0, SVG Export Plug-In . SVG Version: 6.00 Build 0)  -->
<svg version="1.1" id="Layer_1" xmlns="http://www.w3.org/2000/svg" xmlns:xlink="http://www.w3.org/1999/xlink" x="0px" y="0px"
	 width="24px" height="24px" viewBox="0 0 24 24" enable-background="new 0 0 24 24" xml:space="preserve">
<g>
	<path d="M11.9863,19.168c-1.188,0-2.1543-0.9668-2.1543-2.1543s0.9663-2.1543,2.1543-2.1543c1.1875,0,2.1543,0.9668,2.1543,2.1543
		S13.1738,19.168,11.9863,19.168z M11.9863,15.8594c-0.6367,0-1.1543,0.5176-1.1543,1.1543s0.5176,1.1543,1.1543,1.1543
		s1.1543-0.5176,1.1543-1.1543S12.623,15.8594,11.9863,15.8594z"/>
	<path d="M16.9551,24H6.998c-1.1094,0-2.0117-0.959-2.0117-2.1367V2.0591C4.9863,0.9043,5.8701,0,6.998,0h9.957
		c1.1387,0,2.0312,0.9043,2.0312,2.0591v19.8042C18.9863,23.041,18.0752,24,16.9551,24z M6.998,1
		C6.4116,1,5.9863,1.4453,5.9863,2.0591v19.8042C5.9863,22.4902,6.4404,23,6.998,23h9.957c0.5684,0,1.0312-0.5098,1.0312-1.1367
		V2.0591C17.9863,1.4551,17.543,1,16.9551,1H6.998z"/>
	<path d="M11.9863,21.9443c-2.7188,0-4.9307-2.2119-4.9307-4.9307s2.2119-4.9307,4.9307-4.9307s4.9307,2.2119,4.9307,4.9307
		S14.7051,21.9443,11.9863,21.9443z M11.9863,13.083c-2.1675,0-3.9307,1.7637-3.9307,3.9307s1.7632,3.9307,3.9307,3.9307
		c2.167,0,3.9307-1.7637,3.9307-3.9307S14.1533,13.083,11.9863,13.083z"/>
	<path d="M15.3643,11H8.5898c-0.854,0-1.6035-0.7534-1.6035-1.6118V3.5698C6.9863,2.7334,7.7358,2,8.5898,2h6.7744
		c0.8643,0,1.6221,0.7334,1.6221,1.5698v5.8184C16.9863,10.2319,16.2129,11,15.3643,11z M8.5898,3
		C8.2852,3,7.9863,3.2822,7.9863,3.5698v5.8184C7.9863,9.6914,8.291,10,8.5898,10h6.7744c0.3027,0,0.6221-0.3145,0.6221-0.6118
		V3.5698C15.9863,3.2876,15.6729,3,15.3643,3H8.5898z"/>
</g>
<rect x="-0.0136" y="0.0002" fill="none" width="24" height="24"/>
</svg>
