<?xml version="1.0" encoding="utf-8"?>
<!-- Generator: Adobe Illustrator 18.1.0, SVG Export Plug-In . SVG Version: 6.00 Build 0)  -->
<svg version="1.1" id="Layer_1" xmlns="http://www.w3.org/2000/svg" xmlns:xlink="http://www.w3.org/1999/xlink" x="0px" y="0px"
	 width="24px" height="24px" viewBox="0 0 24 24" enable-background="new 0 0 24 24" xml:space="preserve">
<g>
	<path fill="none" stroke="#000000" stroke-linecap="round" stroke-linejoin="round" stroke-miterlimit="10" d="M16.0095,19.3176"/>
	<path d="M4.5317,21.9375H3.0811c-0.2764,0-0.5-0.2236-0.5-0.5v-1.6201H2.4736c-0.2764,0-0.5-0.2236-0.5-0.5v-0.8779
		c0-0.2764,0.2236-0.5,0.5-0.5s0.5,0.2236,0.5,0.5v0.3779h0.1074c0.2764,0,0.5,0.2236,0.5,0.5v1.6201h0.9507
		c0.2764,0,0.5,0.2236,0.5,0.5S4.8081,21.9375,4.5317,21.9375z"/>
	<path d="M22.4863,22h-1.9746c-0.2764,0-0.5-0.2236-0.5-0.5s0.2236-0.5,0.5-0.5h1.4746v-3.7041l-3.3096-1.4434
		c-0.0889-0.0391-0.166-0.1035-0.2197-0.1855l-2.3213-3.5498L2.9863,12.0449v0.4658c0,0.2764-0.2236,0.5-0.5,0.5
		s-0.5-0.2236-0.5-0.5V11.542c0-0.1328,0.0527-0.2603,0.1465-0.354c0.0938-0.0933,0.2212-0.146,0.3535-0.146
		c0.0005,0,0.0005,0,0.0005,0l13.5728,0.0195c0.376,0,0.7295,0.2012,0.9238,0.5249l2.2285,3.4077l3.1816,1.3779
		c0.3867,0.2109,0.5928,0.5479,0.5928,0.9238V21.5C22.9863,21.7764,22.7627,22,22.4863,22z"/>
	<path d="M16.6025,22H8.4409c-0.2764,0-0.5-0.2236-0.5-0.5s0.2236-0.5,0.5-0.5h8.1616c0.2764,0,0.5,0.2236,0.5,0.5
		S16.8789,22,16.6025,22z"/>
	<path d="M18.5566,23.8916c-1.3535,0-2.4541-1.1006-2.4541-2.4541s1.1006-2.4551,2.4541-2.4551s2.4551,1.1016,2.4551,2.4551
		S19.9102,23.8916,18.5566,23.8916z M18.5566,19.9824c-0.8018,0-1.4541,0.6523-1.4541,1.4551c0,0.8018,0.6523,1.4541,1.4541,1.4541
		c0.8027,0,1.4551-0.6523,1.4551-1.4541C20.0117,20.6348,19.3594,19.9824,18.5566,19.9824z"/>
	<path d="M6.4863,23.8916c-1.3535,0-2.4546-1.1006-2.4546-2.4541s1.1011-2.4551,2.4546-2.4551s2.4546,1.1016,2.4546,2.4551
		S7.8398,23.8916,6.4863,23.8916z M6.4863,19.9824c-0.8022,0-1.4546,0.6523-1.4546,1.4551c0,0.8018,0.6523,1.4541,1.4546,1.4541
		s1.4546-0.6523,1.4546-1.4541C7.9409,20.6348,7.2886,19.9824,6.4863,19.9824z"/>
	<path d="M3.5317,17h-2c-0.2764,0-0.5-0.2236-0.5-0.5s0.2236-0.5,0.5-0.5h2c0.2764,0,0.5,0.2236,0.5,0.5S3.8081,17,3.5317,17z"/>
	<path d="M4.5317,15h-4c-0.2764,0-0.5-0.2236-0.5-0.5s0.2236-0.5,0.5-0.5h4c0.2764,0,0.5,0.2236,0.5,0.5S4.8081,15,4.5317,15z"/>
	<path d="M17.1455,17c-0.0049,0.001-0.0127,0.001-0.0195,0h-3.6396c-0.2764,0-0.5-0.2236-0.5-0.5v-3c0-0.2764,0.2236-0.5,0.5-0.5
		h1.6572c0.168,0,0.3242,0.084,0.417,0.2246l1.918,2.9023c0.1025,0.0908,0.167,0.2246,0.167,0.373
		C17.6455,16.7764,17.4219,17,17.1455,17z M13.9863,16h2.21l-1.3213-2h-0.8887V16z"/>
	<path d="M6.4897,21.9395c-0.1299,0-0.2598-0.0498-0.3599-0.1494c-0.0898-0.1006-0.1401-0.2207-0.1401-0.3506
		s0.0503-0.2598,0.1401-0.3496c0.1997-0.2002,0.5298-0.1904,0.71-0.0098c0.0898,0.0996,0.1499,0.2295,0.1499,0.3594
		S6.9297,21.7002,6.8398,21.79S6.6196,21.9395,6.4897,21.9395z"/>
	<path d="M18.5596,21.9395c-0.1299,0-0.2598-0.0498-0.3594-0.1494c-0.0908-0.1006-0.1406-0.2305-0.1406-0.3506
		c0-0.1299,0.0498-0.2598,0.1406-0.3496c0.1895-0.1904,0.5195-0.1904,0.71-0.0098c0.0898,0.0996,0.1494,0.2295,0.1494,0.3594
		S19,21.6895,18.9199,21.79C18.8096,21.8896,18.6895,21.9395,18.5596,21.9395z"/>
	<path d="M9.8428,6.9473c-0.8896,0-1.4395-0.0254-1.5347-0.5249C8.2876,6.3149,8.2788,6.082,8.5156,5.8945L7.1733,4.6411
		c-0.1255-0.1167-0.1821-0.29-0.1499-0.4585C7.0552,4.0142,7.1714,3.874,7.3311,3.811l0.5278-0.2085
		c0.1147-0.0464,0.2432-0.0479,0.3599-0.0029c0.5186,0.1953,0.9546,0.3721,1.3291,0.5239c1.1553,0.4683,1.6172,0.6831,2.2026,0.4546
		l1.9702-0.7783l-1.9521-2.4443c-0.0991-0.124-0.1333-0.2876-0.0923-0.4409c0.0405-0.1533,0.1519-0.2778,0.2993-0.3359
		l0.2881-0.1138c0.1357-0.0537,0.2881-0.0459,0.417,0.0229l4.0332,2.1313l2.665-1.0522c0.0654-0.0254,1.4951-0.5679,2.667-0.5679
		c0.4434,0,0.8115,0.0786,1.0967,0.2329c0.4297,0.2339,0.4561,0.5869,0.4473,0.728c-0.0342,0.5547-0.7695,1.1196-2.1875,1.6792
		l-7.4756,2.9507C13.0322,6.8037,11.0571,6.9473,9.8428,6.9473z M9.0034,4.9819l0.7432,0.6938
		C9.8252,5.749,9.877,5.8447,9.8965,5.9473c1.1421-0.0039,2.9961-0.1377,3.7334-0.3096l7.4053-2.9287
		c0.5137-0.2026,1.0439-0.4785,1.3438-0.686c-0.0898-0.0146-0.1992-0.0239-0.333-0.0239c-0.9893,0-2.291,0.4946-2.3047,0.4995
		l-2.874,1.1348c-0.1357,0.0537-0.2881,0.0459-0.417-0.0229l-2.7705-1.4639l1.2441,1.5581c0.0986,0.124,0.1338,0.2876,0.0928,0.4409
		s-0.1523,0.2778-0.2998,0.3359l-2.5986,1.0264c-0.873,0.3442-1.5508,0.1074-2.9458-0.4575
		C9.1177,5.0278,9.061,5.0054,9.0034,4.9819z"/>
	<path d="M13.4863,17h-7c-0.2764,0-0.5-0.2236-0.5-0.5v-3c0-0.2764,0.2236-0.5,0.5-0.5h7c0.2764,0,0.5,0.2236,0.5,0.5v3
		C13.9863,16.7764,13.7627,17,13.4863,17z M6.9863,16h6v-2h-6V16z"/>
</g>
<rect x="-0.0136" fill="none" width="24" height="24"/>
</svg>
