<?xml version="1.0" encoding="utf-8"?>
<!-- Generator: Adobe Illustrator 18.1.0, SVG Export Plug-In . SVG Version: 6.00 Build 0)  -->
<svg version="1.1" id="Layer_1" xmlns="http://www.w3.org/2000/svg" xmlns:xlink="http://www.w3.org/1999/xlink" x="0px" y="0px"
	 width="24px" height="24px" viewBox="0 0 24 24" enable-background="new 0 0 24 24" xml:space="preserve">
<g>
	<path d="M18.873,4.8574c-1.2607,0-2.2861-1.0254-2.2861-2.2861c0-1.2603,1.0254-2.2856,2.2861-2.2856s2.2861,1.0254,2.2861,2.2856
		C21.1592,3.832,20.1338,4.8574,18.873,4.8574z M18.873,1.2856c-0.709,0-1.2861,0.5767-1.2861,1.2856s0.5771,1.2861,1.2861,1.2861
		s1.2861-0.5771,1.2861-1.2861S19.582,1.2856,18.873,1.2856z"/>
	<path d="M12.459,23.8975c-1.2607,0-2.2861-1.0254-2.2861-2.2861s1.0254-2.2861,2.2861-2.2861c1.2598,0,2.2852,1.0254,2.2852,2.2861
		S13.7188,23.8975,12.459,23.8975z M12.459,20.3252c-0.709,0-1.2861,0.5771-1.2861,1.2861s0.5771,1.2861,1.2861,1.2861
		s1.2852-0.5771,1.2852-1.2861S13.168,20.3252,12.459,20.3252z"/>
	<path d="M11.6904,10.6089c-0.123,0-0.2466-0.0454-0.3433-0.1362c-0.2007-0.1895-0.21-0.5059-0.0205-0.707l5.9341-6.2886
		c0.1875-0.2007,0.5049-0.21,0.7061-0.0205s0.21,0.5059,0.0205,0.707l-5.9336,6.2886
		C11.9556,10.5562,11.8232,10.6089,11.6904,10.6089z"/>
	<path d="M12.0186,20.3828c-0.2236,0-0.4268-0.1504-0.4844-0.377l-1.4238-5.5889c-0.0684-0.2676,0.0933-0.5391,0.3608-0.6074
		c0.2671-0.0713,0.54,0.0928,0.6079,0.3613l1.4238,5.5889c0.0684,0.2676-0.0938,0.5391-0.3613,0.6074
		C12.1006,20.3779,12.0586,20.3828,12.0186,20.3828z"/>
	<path d="M20.7578,19.7725c-0.9502,0-1.7236-0.7734-1.7236-1.7236s0.7734-1.7236,1.7236-1.7236s1.7236,0.7734,1.7236,1.7236
		S21.708,19.7725,20.7578,19.7725z M20.7578,17.3252c-0.3994,0-0.7236,0.3242-0.7236,0.7236s0.3242,0.7236,0.7236,0.7236
		s0.7236-0.3242,0.7236-0.7236S21.1572,17.3252,20.7578,17.3252z"/>
	<path d="M3.2397,17.5459c-0.9502,0-1.7236-0.7734-1.7236-1.7236s0.7734-1.7236,1.7236-1.7236s1.7236,0.7734,1.7236,1.7236
		S4.1899,17.5459,3.2397,17.5459z M3.2397,15.0986c-0.3989,0-0.7236,0.3242-0.7236,0.7236s0.3247,0.7236,0.7236,0.7236
		s0.7236-0.3242,0.7236-0.7236S3.6387,15.0986,3.2397,15.0986z"/>
	<path d="M4.6626,3.7051c-0.9502,0-1.7236-0.7734-1.7236-1.7236s0.7734-1.7236,1.7236-1.7236s1.7236,0.7734,1.7236,1.7236
		S5.6128,3.7051,4.6626,3.7051z M4.6626,1.2578c-0.3989,0-0.7236,0.3247-0.7236,0.7236s0.3247,0.7236,0.7236,0.7236
		s0.7236-0.3247,0.7236-0.7236S5.0615,1.2578,4.6626,1.2578z"/>
	<g>
		<g>
			<path d="M5.668,4.46c-0.1768,0-0.3486-0.0942-0.4395-0.2603L4.749,3.3223c-0.1323-0.2422-0.043-0.5459,0.1992-0.6787
				c0.2432-0.1313,0.5459-0.043,0.6787,0.1992l0.4795,0.8774c0.1323,0.2422,0.043,0.5459-0.1992,0.6787
				C5.8311,4.4404,5.749,4.46,5.668,4.46z"/>
			<path d="M7.4463,7.7139c-0.1768,0-0.3486-0.0942-0.4395-0.2603l-0.8892-1.627c-0.1323-0.2422-0.043-0.5459,0.1992-0.6787
				c0.2427-0.1323,0.5459-0.0425,0.6787,0.1992l0.8892,1.627C8.0171,7.2163,7.9277,7.52,7.6855,7.6528
				C7.6094,7.6943,7.5273,7.7139,7.4463,7.7139z"/>
			<path d="M8.8149,10.2183c-0.1768,0-0.3486-0.0942-0.4395-0.2603L7.896,9.0806C7.7637,8.8384,7.853,8.5347,8.0952,8.4019
				c0.2427-0.1323,0.5459-0.0435,0.6787,0.1992l0.4795,0.8774c0.1323,0.2422,0.043,0.5459-0.1992,0.6787
				C8.978,10.1987,8.896,10.2183,8.8149,10.2183z"/>
		</g>
	</g>
	<g>
		<g>
			<path d="M19.6885,17.9639c-0.085,0-0.1709-0.0215-0.249-0.0664l-0.8672-0.498c-0.2393-0.1377-0.3223-0.4434-0.1846-0.6826
				c0.1387-0.2412,0.4453-0.3213,0.6826-0.1846l0.8672,0.498c0.2393,0.1377,0.3223,0.4434,0.1846,0.6826
				C20.0293,17.874,19.8613,17.9639,19.6885,17.9639z"/>
			<path d="M16.8809,16.3516c-0.085,0-0.1709-0.0215-0.249-0.0664l-1.9404-1.1143c-0.2393-0.1377-0.3223-0.4434-0.1846-0.6826
				c0.1377-0.2412,0.4453-0.3213,0.6826-0.1846l1.9404,1.1143c0.2393,0.1377,0.3223,0.4434,0.1846,0.6826
				C17.2217,16.2617,17.0537,16.3516,16.8809,16.3516z"/>
			<path d="M12.999,14.1221c-0.085,0-0.1709-0.0215-0.249-0.0664l-0.8672-0.498c-0.2393-0.1377-0.3223-0.4434-0.1846-0.6826
				c0.1372-0.2402,0.4443-0.3213,0.6826-0.1846l0.8672,0.498c0.2393,0.1377,0.3223,0.4434,0.1846,0.6826
				C13.3398,14.0322,13.1719,14.1221,12.999,14.1221z"/>
		</g>
	</g>
	<g>
		<g>
			<path d="M4.3091,15.7373c-0.1689,0-0.334-0.0859-0.4282-0.2412c-0.1431-0.2363-0.0674-0.543,0.1689-0.6865l1.7109-1.0361
				c0.2349-0.1416,0.5439-0.0674,0.6865,0.1689c0.1431,0.2363,0.0674,0.543-0.1689,0.6865L4.5674,15.665
				C4.4868,15.7139,4.3975,15.7373,4.3091,15.7373z"/>
			<path d="M6.0879,14.6602c-0.1689,0-0.334-0.0859-0.4282-0.2412c-0.1431-0.2363-0.0674-0.543,0.1689-0.6865l1.7109-1.0361
				c0.2358-0.1416,0.5435-0.0674,0.6865,0.1689s0.0674,0.543-0.1689,0.6865l-1.7109,1.0361
				C6.2656,14.6367,6.1763,14.6602,6.0879,14.6602z"/>
		</g>
	</g>
	<path d="M9.9844,14.8721c-1.6396,0-2.9736-1.334-2.9736-2.9736c0-1.6401,1.334-2.9741,2.9736-2.9741
		c1.6401,0,2.9746,1.334,2.9746,2.9741C12.959,13.5381,11.6245,14.8721,9.9844,14.8721z M9.9844,9.9243
		c-1.0884,0-1.9736,0.8857-1.9736,1.9741c0,1.0879,0.8853,1.9736,1.9736,1.9736c1.0889,0,1.9746-0.8857,1.9746-1.9736
		C11.959,10.8101,11.0732,9.9243,9.9844,9.9243z"/>
</g>
<rect fill="none" width="24" height="24"/>
</svg>
