<?xml version="1.0" encoding="utf-8"?>
<!-- Generator: Adobe Illustrator 18.1.0, SVG Export Plug-In . SVG Version: 6.00 Build 0)  -->
<svg version="1.1" id="Layer_1" xmlns="http://www.w3.org/2000/svg" xmlns:xlink="http://www.w3.org/1999/xlink" x="0px" y="0px"
	 width="24px" height="24px" viewBox="0 0 24 24" enable-background="new 0 0 24 24" xml:space="preserve">
<g>
	<path d="M11.9863,23.8262c-6.4946,0-11.7783-5.2842-11.7783-11.7783S5.4917,0.27,11.9863,0.27
		c6.4941,0,11.7783,5.2837,11.7783,11.7778S18.4805,23.8262,11.9863,23.8262z M11.9863,1.27C6.043,1.27,1.208,6.105,1.208,12.0479
		c0,5.9434,4.835,10.7783,10.7783,10.7783s10.7783-4.835,10.7783-10.7783C22.7646,6.105,17.9297,1.27,11.9863,1.27z"/>
	<path d="M16.001,18.9834c-0.166,0-0.2988-0.0508-0.3848-0.0957c-0.6992-0.3721-0.7969-1.7959-0.8066-2.3916
		c0-2.3223-0.1475-4.2939-1.959-4.9839c-0.9902-0.3774-1.7603-0.6343-2.1689-0.7231c-0.5264-0.1147-0.8823-0.5361-0.9517-1.1284
		c-0.0859-0.7319,0.2915-1.7344,1.1592-2.1509c0.3677-0.1758,0.6816-0.1938,0.9043-0.1831
		c-0.0034-0.1206-0.0137-0.2969-0.0356-0.5532c-0.0312-0.3569-0.1235-0.6001-0.2749-0.7231c-0.2485-0.2012-0.73-0.144-1.1548-0.0928
		C10.1294,5.9814,9.9458,6.002,9.792,6.002c-0.2573,0-0.3325,0.1382-0.6997,1.8657L9.0161,8.2241
		C8.8926,8.8003,8.6313,9.1235,8.2397,9.1846C7.5918,9.2876,7.146,8.5537,7.062,8.4067C6.9888,8.2783,6.9229,8.002,6.8647,7.5806
		C6.7402,7.8652,6.3491,8.396,5.1245,8.8286C4.439,9.0693,4.0532,8.8608,3.8501,8.6436c-0.6807-0.731,0.0054-2.5532,0.332-3.3027
		C4.2925,5.0869,4.5854,4.9702,4.8403,5.082C5.0933,5.1924,5.209,5.4868,5.0991,5.7402c-0.3887,0.8936-0.6338,1.9414-0.522,2.208
		C4.5938,7.937,4.665,7.9302,4.7915,7.8853c0.9902-0.3491,1.1562-0.7065,1.1582-0.71C5.9604,7.125,5.9658,7.123,5.9912,7.0781
		l0.793-1.3887C6.894,5.4976,7.1177,5.4004,7.3315,5.4507C7.5469,5.5005,7.7036,5.686,7.7173,5.9067
		c0.0508,0.8257,0.1538,1.8394,0.2271,2.0317c0.021,0.0361,0.0518,0.0771,0.085,0.1167c0.0029-0.0127,0.0059-0.0264,0.0093-0.0405
		l0.0757-0.355C8.5024,5.835,8.6792,5.002,9.792,5.002c0.1196,0,0.2622-0.0186,0.4165-0.0371
		c0.5586-0.0674,1.3267-0.1597,1.9048,0.3091c0.3691,0.3003,0.585,0.7759,0.6406,1.4131c0.0723,0.8286,0.0752,1.2188-0.1943,1.481
		c-0.2314,0.2236-0.5176,0.1895-0.6875,0.1699c-0.1655-0.019-0.3208-0.0371-0.5503,0.0732
		c-0.4141,0.1987-0.644,0.7466-0.5986,1.1333c0.0278,0.2363,0.1318,0.2588,0.1709,0.2671c0.585,0.1274,1.5806,0.4868,2.312,0.7661
		c2.6035,0.9917,2.6035,3.9517,2.6035,5.9106c0.0098,0.5557,0.1172,1.1846,0.2373,1.4375c0.9277-0.7344,3.0186-4.2373,2.6387-5.3174
		c-0.502-1.4302-0.71-2.022,0.6299-2.7476c0.8779-0.4756,1.3496-0.9717,1.3262-1.397c-0.0156-0.2759,0.1963-0.5117,0.4717-0.5264
		c0.3096-0.0171,0.5117,0.1968,0.5264,0.4717c0.0469,0.8569-0.5742,1.6411-1.8477,2.3306
		c-0.5908,0.3198-0.5908,0.3198-0.1631,1.5366c0.6348,1.8066-2.167,5.9297-3.0938,6.5342
		C16.3359,18.9404,16.1543,18.9834,16.001,18.9834z"/>
	<path d="M5.1172,19.249c-0.0537,0-0.1079-0.0088-0.1611-0.0264c-0.2617-0.0898-0.4014-0.374-0.312-0.6348
		c0.9575-2.8086,1.3467-3.2275,2.0688-3.8408l0.1177-0.1025c-0.2031-0.1064-0.5298-0.2314-0.75-0.3154
		c-0.5132-0.1953-0.9985-0.3809-1.2778-0.6602c-0.2754-0.2754-0.4653-0.3887-0.7051-0.5322
		c-0.1367-0.082-0.2803-0.168-0.4473-0.2852c-0.1455,0.4141-0.3032,1.2676-0.376,2.0938c-0.0244,0.2744-0.2598,0.4717-0.542,0.4541
		c-0.2749-0.0244-0.4785-0.2666-0.4541-0.542c0.2441-2.7705,0.8203-3.0186,1.0098-3.1001c0.2363-0.1016,0.4956-0.063,0.7109,0.1074
		c0.2485,0.1968,0.4375,0.3091,0.6118,0.4136c0.2637,0.1582,0.5361,0.3213,0.8984,0.6836c0.1284,0.1279,0.5903,0.3047,0.9277,0.4326
		c0.7539,0.2881,1.4048,0.5361,1.5088,1.0938c0.0366,0.1963,0.0117,0.4922-0.3135,0.7852c-0.0972,0.0869-0.187,0.1631-0.272,0.2354
		c-0.5537,0.4707-0.8589,0.7295-1.77,3.4014C5.5195,19.1182,5.3252,19.249,5.1172,19.249z"/>
</g>
<rect x="-0.0136" y="0.0001" fill="none" width="24" height="24"/>
</svg>
