<?xml version="1.0" encoding="utf-8"?>
<!-- Generator: Adobe Illustrator 18.1.0, SVG Export Plug-In . SVG Version: 6.00 Build 0)  -->
<svg version="1.1" id="Layer_1" xmlns="http://www.w3.org/2000/svg" xmlns:xlink="http://www.w3.org/1999/xlink" x="0px" y="0px"
	 width="24px" height="24px" viewBox="0 0 24 24" enable-background="new 0 0 24 24" xml:space="preserve">
<g>
	<path d="M12,11.083c-2.4395,0-4.5-1.9941-4.5-4.355V0.5195c0-0.2764,0.2236-0.5,0.5-0.5h8c0.2764,0,0.5,0.2236,0.5,0.5V6.728
		C16.5,9.0889,14.4395,11.083,12,11.083z M8.5,1.0195V6.728c0,1.8184,1.603,3.355,3.5,3.355c1.8975,0,3.5-1.5366,3.5-3.355V1.0195
		H8.5z"/>
	<path d="M12,5.9551c-0.2764,0-0.5-0.2236-0.5-0.5V2.5513c0-0.2764,0.2236-0.5,0.5-0.5s0.5,0.2236,0.5,0.5v2.9038
		C12.5,5.7314,12.2764,5.9551,12,5.9551z"/>
	<path d="M14,5.9551c-0.2764,0-0.5-0.2236-0.5-0.5V2.5513c0-0.2764,0.2236-0.5,0.5-0.5s0.5,0.2236,0.5,0.5v2.9038
		C14.5,5.7314,14.2764,5.9551,14,5.9551z"/>
	<path d="M10,5.9551c-0.2764,0-0.5-0.2236-0.5-0.5V2.5513c0-0.2764,0.2236-0.5,0.5-0.5s0.5,0.2236,0.5,0.5v2.9038
		C10.5,5.7314,10.2764,5.9551,10,5.9551z"/>
	<path d="M12.0078,23.873c-1.0566,0-1.9165-0.8604-1.9165-1.917v-6.418c0-0.2764,0.2236-0.5,0.5-0.5h2.8335
		c0.2764,0,0.5,0.2236,0.5,0.5v6.418C13.9248,23.0127,13.0645,23.873,12.0078,23.873z M11.0913,16.0381v5.918
		c0,0.5059,0.4111,0.917,0.9165,0.917c0.5059,0,0.917-0.4111,0.917-0.917v-5.918H11.0913z"/>
	<path d="M12.0098,22.0303c-0.1299,0-0.2598-0.0508-0.3501-0.1406c-0.0996-0.0996-0.1499-0.2197-0.1499-0.3594
		c0-0.1309,0.0503-0.2607,0.1499-0.3506c0.1802-0.1895,0.5103-0.1895,0.6997,0c0.1006,0.1006,0.1504,0.2305,0.1504,0.3506
		c0,0.1299-0.0498,0.2598-0.1396,0.3496C12.2598,21.9795,12.1396,22.0303,12.0098,22.0303z"/>
	<path d="M12.0078,13.9678c-0.2764,0-0.5-0.2236-0.5-0.5V10.583c0-0.2764,0.2236-0.5,0.5-0.5s0.5,0.2236,0.5,0.5v2.8848
		C12.5078,13.7441,12.2842,13.9678,12.0078,13.9678z"/>
</g>
<rect y="0.0197" fill="none" width="24" height="24"/>
</svg>
