<?xml version="1.0" encoding="utf-8"?>
<!-- Generator: Adobe Illustrator 18.1.0, SVG Export Plug-In . SVG Version: 6.00 Build 0)  -->
<svg version="1.1" id="Layer_1" xmlns="http://www.w3.org/2000/svg" xmlns:xlink="http://www.w3.org/1999/xlink" x="0px" y="0px"
	 width="24px" height="24px" viewBox="0 0 24 24" enable-background="new 0 0 24 24" xml:space="preserve">
<g>
	<path d="M4.0195,7.0083C2.3604,7.0083,1.0107,5.6587,1.0107,4s1.3496-3.0083,3.0088-3.0083c1.6587,0,3.0083,1.3496,3.0083,3.0083
		S5.6782,7.0083,4.0195,7.0083z M4.0195,1.9917C2.9121,1.9917,2.0107,2.8926,2.0107,4s0.9014,2.0083,2.0088,2.0083
		S6.0278,5.1074,6.0278,4S5.127,1.9917,4.0195,1.9917z"/>
	<path d="M4.0195,15.0088c-1.6592,0-3.0088-1.3496-3.0088-3.0078c0-1.6592,1.3496-3.0088,3.0088-3.0088
		c1.6587,0,3.0083,1.3496,3.0083,3.0088C7.0278,13.6592,5.6782,15.0088,4.0195,15.0088z M4.0195,9.9922
		c-1.1074,0-2.0088,0.9014-2.0088,2.0088s0.9014,2.0078,2.0088,2.0078s2.0083-0.9004,2.0083-2.0078S5.127,9.9922,4.0195,9.9922z"/>
	<path d="M4.0195,23.0098c-1.6592,0-3.0088-1.3496-3.0088-3.0078c0-1.6592,1.3496-3.0088,3.0088-3.0088
		c1.6587,0,3.0083,1.3496,3.0083,3.0088C7.0278,21.6602,5.6782,23.0098,4.0195,23.0098z M4.0195,17.9932
		c-1.1074,0-2.0088,0.9014-2.0088,2.0088s0.9014,2.0078,2.0088,2.0078s2.0083-0.9004,2.0083-2.0078S5.127,17.9932,4.0195,17.9932z"
		/>
	<path d="M21.46,20H9.5288c-0.2764,0-0.5-0.2236-0.5-0.5s0.2236-0.5,0.5-0.5H21.46c0.2764,0,0.5,0.2236,0.5,0.5S21.7363,20,21.46,20
		z"/>
	<path d="M21.46,11.9995H9.5288c-0.2764,0-0.5-0.2236-0.5-0.5s0.2236-0.5,0.5-0.5H21.46c0.2764,0,0.5,0.2236,0.5,0.5
		S21.7363,11.9995,21.46,11.9995z"/>
	<path d="M21.46,3.9985H9.5288c-0.2764,0-0.5-0.2236-0.5-0.5s0.2236-0.5,0.5-0.5H21.46c0.2764,0,0.5,0.2236,0.5,0.5
		S21.7363,3.9985,21.46,3.9985z"/>
	<path d="M4.02,4.5c-0.1304,0-0.2603-0.0503-0.3604-0.1504C3.5698,4.2598,3.52,4.1299,3.52,4c0-0.1304,0.0498-0.2603,0.1499-0.3501
		c0.1699-0.1802,0.52-0.1899,0.6997,0C4.4697,3.7397,4.52,3.8696,4.52,4c0,0.1299-0.0503,0.2598-0.1504,0.3599
		C4.2798,4.4497,4.1499,4.5,4.02,4.5z"/>
</g>
<rect x="0.0001" fill="none" width="24" height="24"/>
</svg>
