<?xml version="1.0" encoding="utf-8"?>
<!-- Generator: Adobe Illustrator 18.1.0, SVG Export Plug-In . SVG Version: 6.00 Build 0)  -->
<svg version="1.1" id="Layer_1" xmlns="http://www.w3.org/2000/svg" xmlns:xlink="http://www.w3.org/1999/xlink" x="0px" y="0px"
	 width="24px" height="24px" viewBox="0 0 24 24" enable-background="new 0 0 24 24" xml:space="preserve">
<g>
	<path d="M14.2041,11.9995H6.7998c-0.4312,0-0.7822-0.3535-0.7822-0.7881v-1.0132c0-0.3276,0.1958-0.6157,0.499-0.7349
		C8.355,8.7485,8.8799,8.3965,9.0259,8.2686V8.2085c-0.2295-0.2803-0.4121-0.624-0.5376-1.0107
		C8.3135,7.022,8.1973,6.7905,8.1626,6.54C8.1274,6.2852,8.1758,6.0332,8.2998,5.813V5.0566c0-1.2808,0.8442-2.0767,2.2026-2.0767
		c1.3784,0,2.2017,0.7764,2.2017,2.0767v0.7559c0.124,0.2202,0.1729,0.4727,0.1377,0.7275
		c-0.0352,0.2505-0.1514,0.4824-0.3262,0.6582c-0.125,0.3862-0.3086,0.73-0.5376,1.0107v0.082
		c0.1011,0.0742,0.5864,0.4238,2.5083,1.1719c0.2988,0.1162,0.5,0.4116,0.5,0.7354v1.0132
		C14.9863,11.646,14.6357,11.9995,14.2041,11.9995z M7.0176,10.9995h6.9688v-0.6582c-2.3169-0.9102-2.853-1.3403-2.9858-1.7695
		c-0.0151-0.0479-0.0225-0.0977-0.0225-0.1479V8.019c0-0.1299,0.0508-0.2549,0.1416-0.3486
		c0.2109-0.2168,0.3755-0.5244,0.4766-0.8887c0.0308-0.1108,0.0991-0.208,0.1934-0.2744c0.0332-0.0234,0.0557-0.0615,0.0615-0.1045
		c0.0044-0.0317,0.0015-0.0786-0.0361-0.1255c-0.0718-0.0889-0.1108-0.1997-0.1108-0.314V5.0566
		c0-0.7344-0.3818-1.0767-1.2017-1.0767c-0.8091,0-1.2026,0.3521-1.2026,1.0767v0.9072c0,0.1143-0.0391,0.2251-0.1108,0.314
		c-0.0376,0.0464-0.04,0.0938-0.0356,0.125c0.0059,0.043,0.0283,0.0811,0.061,0.1045C9.3081,6.5737,9.376,6.6704,9.4072,6.7812
		C9.5083,7.146,9.6733,7.4536,9.8843,7.6704c0.0908,0.0938,0.1416,0.2188,0.1416,0.3486v0.4048
		c0,0.0498-0.0073,0.0996-0.0225,0.1475c-0.106,0.3442-0.4268,0.7646-2.9858,1.77V10.9995z"/>
	<path d="M18.2598,11.9995h-1.9766c-0.2764,0-0.5-0.2236-0.5-0.5s0.2236-0.5,0.5-0.5h1.6953v-0.2778
		C16.1982,10.04,15.79,9.7095,15.6738,9.3481c-0.0156-0.0493-0.0234-0.1006-0.0234-0.1523V8.8926
		c0-0.1328,0.0527-0.2607,0.1475-0.3545c0.1455-0.145,0.2646-0.3613,0.3359-0.6094c0.0107-0.0381,0.0254-0.0742,0.0449-0.1084
		c0.0312-0.1826,0.043-0.7212,0.0332-1.1348c0-0.3486-0.0967-0.6929-0.8174-0.6929c-0.7246,0-0.8174,0.3643-0.8174,0.6812
		c-0.0107,0.4736,0.0049,0.9766,0.0332,1.1465c0.0908,0.1611,0.0879,0.3662-0.0234,0.5288
		c-0.1553,0.2285-0.4658,0.2856-0.6953,0.1289c-0.1885-0.1294-0.3506-0.2412-0.3145-1.8159c0-1.0254,0.6963-1.6694,1.8174-1.6694
		s1.8174,0.644,1.8174,1.6812c0.0254,1.083-0.0449,1.4697-0.1533,1.6479c-0.0928,0.2759-0.2236,0.5249-0.3867,0.7344
		c0.1279,0.0659,0.5703,0.3203,1.8418,0.7993c0.2773,0.1035,0.4648,0.3726,0.4648,0.6694v0.7588
		C18.9785,11.6782,18.6562,11.9995,18.2598,11.9995z"/>
	<path d="M15.6973,24.0283h-7.377c-0.5405,0-0.9805-0.4004-0.9805-0.8916l0.4868-3.0439c0.0444-0.2715,0.2974-0.4629,0.5737-0.4131
		c0.2725,0.0439,0.4575,0.3008,0.4136,0.5732l-0.4492,2.7705l7.2944,0.0049l-0.4561-2.7754
		c-0.0449-0.2725,0.1406-0.5293,0.4131-0.5732c0.2686-0.0488,0.5293,0.1396,0.5732,0.4131l0.4805,2.9639
		C16.6768,23.6279,16.2373,24.0283,15.6973,24.0283z"/>
	<path d="M21.8838,18H2.1328c-1.1704,0-2.123-0.959-2.123-2.1377V2.1309C0.0098,0.936,0.9424,0,2.1328,0h19.751
		c1.1924,0,2.126,0.936,2.126,2.1309v13.7314C24.0098,17.041,23.0557,18,21.8838,18z M2.1328,1c-0.6299,0-1.123,0.4966-1.123,1.1309
		v13.7314C1.0098,16.5,1.5029,17,2.1328,17h19.751c0.6318,0,1.126-0.5,1.126-1.1377V2.1309C23.0098,1.4966,22.5156,1,21.8838,1
		H2.1328z"/>
	<path d="M23.5098,15H0.5107c-0.2764,0-0.5-0.2236-0.5-0.5s0.2236-0.5,0.5-0.5h22.999c0.2764,0,0.5,0.2236,0.5,0.5
		S23.7861,15,23.5098,15z"/>
</g>
<rect fill="none" width="24" height="24"/>
</svg>
