<?xml version="1.0" encoding="utf-8"?>
<!-- Generator: Adobe Illustrator 18.1.0, SVG Export Plug-In . SVG Version: 6.00 Build 0)  -->
<svg version="1.1" id="Layer_1" xmlns="http://www.w3.org/2000/svg" xmlns:xlink="http://www.w3.org/1999/xlink" x="0px" y="0px"
	 width="24px" height="24px" viewBox="0 0 24 24" enable-background="new 0 0 24 24" xml:space="preserve">
<g>
	<path d="M18.4756,23.8164c-0.2764,0-0.5-0.2236-0.5-0.5v-7.7861c0-0.2764,0.2236-0.5,0.5-0.5s0.5,0.2236,0.5,0.5v7.7861
		C18.9756,23.5928,18.752,23.8164,18.4756,23.8164z"/>
	<path d="M22.3682,19.9229H14.583c-0.2764,0-0.5-0.2236-0.5-0.5s0.2236-0.5,0.5-0.5h7.7852c0.2764,0,0.5,0.2236,0.5,0.5
		S22.6445,19.9229,22.3682,19.9229z"/>
	<path d="M12.0381,22.7529c-0.1279,0-0.2559-0.0488-0.3535-0.1465l-9.5693-9.5684C0.9253,11.8486,0.27,10.2666,0.27,8.584
		s0.6553-3.2646,1.8452-4.4546c1.1895-1.1899,2.7715-1.8452,4.4546-1.8452c1.6826,0,3.2646,0.6553,4.4546,1.8452l1.0137,1.0132
		l1.0137-1.0137c1.1895-1.1899,2.7715-1.8452,4.4541-1.8452s3.2646,0.6553,4.4551,1.8452c1.1895,1.1899,1.8447,2.772,1.8447,4.4546
		c0,1.6831-0.6553,3.2651-1.8457,4.4546l-1.2949,1.2344c-0.1992,0.1895-0.5156,0.1826-0.707-0.0176
		c-0.1904-0.2002-0.1826-0.5166,0.0176-0.707l1.2861-1.2256c0.9922-0.9922,1.5439-2.3228,1.5439-3.7388
		c0-1.4155-0.5508-2.7466-1.5518-3.7476s-2.332-1.5522-3.748-1.5522c-1.415,0-2.7461,0.5513-3.7471,1.5522l-1.3672,1.3672
		c-0.1953,0.1953-0.5117,0.1953-0.707,0l-1.3672-1.3667c-1.001-1.001-2.332-1.5522-3.7476-1.5522
		c-1.416,0-2.7466,0.5513-3.7476,1.5522S1.27,7.1685,1.27,8.584s0.5513,2.7461,1.5522,3.7471l9.2158,9.2148l0.8965-0.8965
		c0.1953-0.1953,0.5117-0.1953,0.707,0s0.1953,0.5117,0,0.707l-1.25,1.25C12.2939,22.7041,12.166,22.7529,12.0381,22.7529z"/>
</g>
<rect x="0.0293" y="-0.0001" fill="none" width="24" height="24"/>
</svg>
