<?xml version="1.0" encoding="utf-8"?>
<!-- Generator: Adobe Illustrator 18.1.0, SVG Export Plug-In . SVG Version: 6.00 Build 0)  -->
<svg version="1.1" id="Layer_1" xmlns="http://www.w3.org/2000/svg" xmlns:xlink="http://www.w3.org/1999/xlink" x="0px" y="0px"
	 width="24px" height="24px" viewBox="0 0 24 24" enable-background="new 0 0 24 24" xml:space="preserve">
<g>
	<path d="M17.4736,23.9121c-0.2764,0-0.5-0.2236-0.5-0.5V7.9463c0-0.2764,0.2236-0.5,0.5-0.5s0.5,0.2236,0.5,0.5v15.4658
		C17.9736,23.6885,17.75,23.9121,17.4736,23.9121z"/>
	<path d="M17.4746,13.4932c-0.0234,0-0.0469-0.002-0.0713-0.0049c-0.2725-0.0391-0.4629-0.291-0.4248-0.5645
		c0.0146-0.1074,0.3877-2.645,1.9424-3.5986c0.6729-0.4126,1.4453-0.4727,2.293-0.1807c0.2617,0.0894,0.4004,0.374,0.3105,0.6353
		c-0.0898,0.2603-0.374,0.3999-0.6348,0.3101c-0.5625-0.1934-1.0342-0.166-1.4443,0.0869c-0.957,0.585-1.3906,2.2822-1.4766,2.8867
		C17.9336,13.3125,17.7188,13.4932,17.4746,13.4932z"/>
	<path d="M17.4736,12.29c-0.1895,0-0.3701-0.1084-0.4551-0.292c-0.2822-0.6172-0.9033-1.5244-1.3994-1.6108
		c-0.0654-0.0122-0.2344-0.0391-0.4863,0.2192c-0.1914,0.1968-0.5098,0.2021-0.707,0.0078
		c-0.1973-0.1934-0.2012-0.5098-0.0078-0.707c0.5146-0.5254,1.0254-0.5674,1.375-0.5049c1.2061,0.2114,2.0439,1.9795,2.1357,2.1802
		c0.1143,0.251,0.0039,0.5474-0.2471,0.6616C17.6143,12.2754,17.5439,12.29,17.4736,12.29z"/>
	<path d="M1.4863,19.001c-0.2764,0-0.5-0.2236-0.5-0.5V15.5c0-0.2764,0.2236-0.5,0.5-0.5s0.5,0.2236,0.5,0.5v3.001
		C1.9863,18.7773,1.7627,19.001,1.4863,19.001z"/>
	<path d="M12.4951,19.001c-0.2764,0-0.5-0.2236-0.5-0.5V15.5c0-0.2764,0.2236-0.5,0.5-0.5s0.5,0.2236,0.5,0.5v3.001
		C12.9951,18.7773,12.7715,19.001,12.4951,19.001z"/>
	<path d="M17.4873,14.877c-3.4795,0-6.3105-2.8779-6.3105-6.4155c0-3.3062,2.6494-8.2109,6.3105-8.2109s6.3105,4.9048,6.3105,8.2109
		C23.7979,11.999,20.9668,14.877,17.4873,14.877z M17.4873,1.2505c-2.8105,0-5.3105,4.0322-5.3105,7.2109
		c0,2.9863,2.3818,5.4155,5.3105,5.4155s5.3105-2.4292,5.3105-5.4155C22.7979,5.2827,20.2979,1.2505,17.4873,1.2505z"/>
	<path d="M12.4951,18H1.4863c-0.2764,0-0.5-0.2236-0.5-0.5S1.21,17,1.4863,17h11.0088c0.2764,0,0.5,0.2236,0.5,0.5
		S12.7715,18,12.4951,18z"/>
	<path d="M12.4951,16H1.4863c-0.2764,0-0.5-0.2236-0.5-0.5S1.21,15,1.4863,15h11.0088c0.2764,0,0.5,0.2236,0.5,0.5
		S12.7715,16,12.4951,16z"/>
	<path d="M13.4863,23.8984c-0.2764,0-0.5-0.2236-0.5-0.5V21h-12v2.3984c0,0.2764-0.2236,0.5-0.5,0.5s-0.5-0.2236-0.5-0.5V20.5
		c0-0.2764,0.2236-0.5,0.5-0.5h13c0.2764,0,0.5,0.2236,0.5,0.5v2.8984C13.9863,23.6748,13.7627,23.8984,13.4863,23.8984z"/>
</g>
<rect x="-0.0136" y="0.0001" fill="none" width="24" height="24"/>
</svg>
