<?xml version="1.0" encoding="utf-8"?>
<!-- Generator: Adobe Illustrator 18.1.0, SVG Export Plug-In . SVG Version: 6.00 Build 0)  -->
<svg version="1.1" id="Layer_1" xmlns="http://www.w3.org/2000/svg" xmlns:xlink="http://www.w3.org/1999/xlink" x="0px" y="0px"
	 width="24px" height="24px" viewBox="0 0 24 24" enable-background="new 0 0 24 24" xml:space="preserve">
<g>
	<path d="M2.5747,18.2227c-0.2764,0-0.5-0.2236-0.5-0.5v-3.1191c0-0.2764,0.2236-0.5,0.5-0.5s0.5,0.2236,0.5,0.5v3.1191
		C3.0747,17.999,2.8511,18.2227,2.5747,18.2227z"/>
	<path d="M3.1587,21.0146h-1.168c-0.6021,0-1.0923-0.4902-1.0923-1.0918l0.2871-1.6943C1.1782,17.7129,1.668,17.2227,2.27,17.2227
		h0.6099c0.6021,0,1.0918,0.4902,1.0918,1.0918l0.272,1.5225C4.251,20.5244,3.7607,21.0146,3.1587,21.0146z M1.9062,19.9941
		c0.0181,0,0.0493,0.0205,0.0845,0.0205h1.168c0.0508,0,0.0923-0.041,0.0923-0.0918l-0.272-1.5225
		c-0.0073-0.1367-0.0483-0.1777-0.0991-0.1777H2.27c-0.0508,0-0.0918,0.041-0.0918,0.0918l-0.2871,1.6943
		C1.8931,19.998,1.8984,19.9941,1.9062,19.9941z"/>
	<path d="M23.5264,13.0137c-0.0039,0.001-0.0117,0.001-0.0195,0H0.5366c-0.1763,0-0.3398-0.0928-0.4302-0.2451
		c-0.0898-0.1514-0.0933-0.3398-0.0088-0.4941l3.8291-7.0205c0.0874-0.1606,0.2559-0.2607,0.439-0.2607h16.0474
		c0.1982,0,0.3779,0.1172,0.458,0.2983l3.042,6.9048c0.0713,0.0869,0.1133,0.1973,0.1133,0.3174
		C24.0264,12.79,23.8027,13.0137,23.5264,13.0137z M1.3789,12.0137h21.3613l-2.6533-6.0205H4.6626L1.3789,12.0137z"/>
	<path d="M12.0566,21.0146c-3.1699,0-6.5576-0.707-6.5576-2.6924c0-0.0371,0.0044-0.0752,0.0127-0.1113l1.3267-5.8086
		c0.061-0.2695,0.3291-0.438,0.5986-0.376c0.269,0.0615,0.4375,0.3291,0.376,0.5986l-1.312,5.7441
		c0.0767,0.8174,2.1421,1.6455,5.5557,1.6455c3.4141,0,5.4805-0.8281,5.5566-1.6455l-1.3125-5.7441
		c-0.0615-0.2695,0.1064-0.5371,0.376-0.5986c0.2725-0.0664,0.5381,0.1074,0.5986,0.376l1.3271,5.8086
		c0.0088,0.0361,0.0127,0.0742,0.0127,0.1113C18.6152,20.3076,15.2275,21.0146,12.0566,21.0146z"/>
	<path d="M11.7109,9.0205H2.7148c-0.2764,0-0.5-0.2236-0.5-0.5s0.2236-0.5,0.5-0.5h8.9961c0.2764,0,0.5,0.2236,0.5,0.5
		S11.9873,9.0205,11.7109,9.0205z"/>
</g>
<rect x="0.0142" y="-0.003" fill="none" width="24" height="24"/>
</svg>
