<?xml version="1.0" encoding="utf-8"?>
<!-- Generator: Adobe Illustrator 18.1.0, SVG Export Plug-In . SVG Version: 6.00 Build 0)  -->
<svg version="1.1" id="Layer_1" xmlns="http://www.w3.org/2000/svg" xmlns:xlink="http://www.w3.org/1999/xlink" x="0px" y="0px"
	 width="24px" height="24px" viewBox="0 0 24 24" enable-background="new 0 0 24 24" xml:space="preserve">
<g>
	<path d="M9.4487,22.793c-0.1221,0-0.2407-0.0449-0.3325-0.127c-0.1064-0.0947-0.1675-0.2305-0.1675-0.373V11.415
		c0-0.2764,0.2236-0.5,0.5-0.5s0.5,0.2236,0.5,0.5v10.3164l10.0142-1.1582V10.1411c0-0.2764,0.2236-0.5,0.5-0.5s0.5,0.2236,0.5,0.5
		v10.8774c0,0.2539-0.1904,0.4678-0.4424,0.4971L9.5063,22.79C9.4868,22.792,9.4678,22.793,9.4487,22.793z"/>
	<path fill="none" stroke="#000000" stroke-linecap="round" stroke-linejoin="round" stroke-miterlimit="10" d="M14.5635,6.3035"/>
	<path fill="none" stroke="#000000" stroke-linecap="round" stroke-linejoin="round" stroke-miterlimit="10" d="M7.7629,7.0902"/>
	<path d="M9.4482,11.915c-0.2505,0-0.4668-0.1875-0.4961-0.4424c-0.0317-0.2744,0.165-0.5225,0.439-0.5542l11.0142-1.2739
		c0.2656-0.0381,0.5215,0.1641,0.5547,0.439c0.0312,0.2744-0.165,0.5225-0.4395,0.5542L9.5063,11.9116
		C9.4868,11.9141,9.4673,11.915,9.4482,11.915z"/>
	<path d="M7.7622,7.5903c-0.2505,0-0.4668-0.1875-0.4961-0.4424c-0.0317-0.2744,0.165-0.5225,0.439-0.5542l6.8008-0.7866
		c0.2686-0.0352,0.5225,0.1641,0.5547,0.439c0.0312,0.2744-0.165,0.5225-0.4395,0.5542L7.8203,7.5869
		C7.8008,7.5894,7.7812,7.5903,7.7622,7.5903z"/>
	<path d="M9.4487,22.793c-0.0947,0-0.1895-0.0273-0.272-0.0801l-5.8989-3.8232c-0.1421-0.0928-0.228-0.25-0.228-0.4199V7.5928
		c0-0.2764,0.2236-0.5,0.5-0.5s0.5,0.2236,0.5,0.5v10.6055l4.8989,3.1748v-9.958c0-0.2764,0.2236-0.5,0.5-0.5s0.5,0.2236,0.5,0.5
		V22.293c0,0.1836-0.1001,0.3516-0.2612,0.4395C9.6128,22.7725,9.5308,22.793,9.4487,22.793z"/>
	<path d="M9.4482,11.915c-0.0933,0-0.1875-0.0259-0.2715-0.0806L3.2778,8.0122C3.0464,7.8623,2.98,7.5527,3.1304,7.3208
		c0.1504-0.2314,0.46-0.2988,0.6914-0.1475l5.8989,3.8223c0.2314,0.1499,0.2979,0.4595,0.1475,0.6914
		C9.7725,11.8345,9.6123,11.915,9.4482,11.915z"/>
	<path d="M20.4629,10.626c-0.0898,0-0.1807-0.0239-0.2627-0.0747c-0.2344-0.1445-0.3076-0.4526-0.1631-0.688l2.6748-4.3345
		l-5.5811-2.4224l-2.1426,3.4604c-0.1455,0.2349-0.4531,0.3076-0.6885,0.1621c-0.2344-0.1455-0.3066-0.4536-0.1611-0.6885
		l2.3701-3.8281c0.1309-0.2119,0.3994-0.2949,0.624-0.1953l6.5068,2.8242c0.1328,0.0576,0.2344,0.1704,0.2773,0.3086
		c0.0439,0.1387,0.0254,0.2891-0.0508,0.4126l-2.9775,4.8262C20.7939,10.5415,20.6299,10.626,20.4629,10.626z"/>
	<path fill="none" stroke="#000000" stroke-linecap="round" stroke-linejoin="round" stroke-miterlimit="10" d="M14.5635,6.3035"/>
	<path d="M20.4629,10.626c-0.0938,0-0.1875-0.0259-0.2715-0.0806L14.292,6.7231c-0.2324-0.1499-0.2979-0.4595-0.1484-0.6914
		c0.1514-0.2319,0.4619-0.2969,0.6914-0.1475l5.8994,3.8223c0.2324,0.1499,0.2979,0.4595,0.1484,0.6914
		C20.7871,10.5454,20.626,10.626,20.4629,10.626z"/>
	<path d="M14.5635,11.3232c-0.2764,0-0.5-0.2236-0.5-0.5V6.3037c0-0.2764,0.2236-0.5,0.5-0.5s0.5,0.2236,0.5,0.5v4.5195
		C15.0635,11.0996,14.8398,11.3232,14.5635,11.3232z"/>
	<path d="M9.6021,11.8975c-0.1938,0-0.3789-0.1138-0.46-0.3037L6.8848,6.3057L2.686,4.2979l1.3237,3.0986
		C4.1182,7.6504,4,7.9443,3.7461,8.0527C3.4922,8.1602,3.1982,8.0435,3.0898,7.7891L1.2456,3.4707
		C1.1641,3.2793,1.2095,3.0576,1.3594,2.9136c0.1509-0.144,0.374-0.1797,0.562-0.0903l5.5649,2.6616
		c0.1094,0.0527,0.1963,0.1431,0.2441,0.2549l2.3315,5.4614c0.1084,0.2539-0.0098,0.5479-0.2637,0.6562
		C9.7344,11.8848,9.668,11.8975,9.6021,11.8975z"/>
</g>
<rect x="-0.0136" fill="none" width="24" height="24"/>
</svg>
