<?xml version="1.0" encoding="utf-8"?>
<!-- Generator: Adobe Illustrator 18.1.0, SVG Export Plug-In . SVG Version: 6.00 Build 0)  -->
<svg version="1.1" id="Layer_1" xmlns="http://www.w3.org/2000/svg" xmlns:xlink="http://www.w3.org/1999/xlink" x="0px" y="0px"
	 width="24px" height="24px" viewBox="0 0 24 24" enable-background="new 0 0 24 24" xml:space="preserve">
<g>
	<path d="M14.6953,5.459c-1.3076,0-2.3711-1.0635-2.3711-2.3711s1.0635-2.3711,2.3711-2.3711s2.3711,1.0635,2.3711,2.3711
		S16.0029,5.459,14.6953,5.459z M14.6953,1.7168c-0.7559,0-1.3711,0.6152-1.3711,1.3711s0.6152,1.3711,1.3711,1.3711
		s1.3711-0.6152,1.3711-1.3711S15.4512,1.7168,14.6953,1.7168z"/>
	<path d="M4.5664,23.7793c-2.354,0-4.2695-1.916-4.2695-4.2705s1.9155-4.2695,4.2695-4.2695c2.3545,0,4.27,1.915,4.27,4.2695
		S6.9209,23.7793,4.5664,23.7793z M4.5664,16.2393c-1.8027,0-3.2695,1.4668-3.2695,3.2695c0,1.8037,1.4668,3.2705,3.2695,3.2705
		c1.8032,0,3.27-1.4668,3.27-3.2705C7.8364,17.7061,6.3696,16.2393,4.5664,16.2393z"/>
	<path d="M19.4619,23.7793c-2.3545,0-4.2695-1.916-4.2695-4.2705s1.915-4.2695,4.2695-4.2695s4.2695,1.915,4.2695,4.2695
		S21.8164,23.7793,19.4619,23.7793z M19.4619,16.2393c-1.8027,0-3.2695,1.4668-3.2695,3.2695c0,1.8037,1.4668,3.2705,3.2695,3.2705
		s3.2695-1.4668,3.2695-3.2705C22.7314,17.7061,21.2646,16.2393,19.4619,16.2393z"/>
	<path d="M12.5225,21.1523c-0.0039,0-0.0088,0-0.0137,0c-0.2754-0.0078-0.4932-0.2373-0.4863-0.5137
		c0.0537-1.9805,0.0791-4.1777,0.0381-4.7871l-3.813-2.9824c-0.7173-0.6592-0.8257-1.7104-0.2837-2.4707l2.293-3.2158
		c0.416-0.769,1.1831-1.23,2.0039-1.1997c0.8027,0.0356,1.5068,0.5249,1.8359,1.2773l1.9023,3.7974h2.4844
		c0.2764,0,0.5,0.2236,0.5,0.5s-0.2236,0.5-0.5,0.5h-2.793c-0.1895,0-0.3623-0.1069-0.4473-0.2759l-2.0518-4.0967
		c-0.1865-0.4243-0.5557-0.6846-0.9746-0.7031c-0.4307-0.002-0.8496,0.2476-1.1143,0.7305L8.7783,10.979
		c-0.2505,0.3511-0.2002,0.8364,0.1167,1.1294l3.9351,3.0762c0.0439,0.0342,0.0811,0.0742,0.1113,0.1211
		c0.0967,0.1475,0.2158,0.3311,0.0811,5.3604C13.0146,20.9375,12.793,21.1523,12.5225,21.1523z"/>
	<path d="M4.5698,20.0098c-0.1401,0-0.27-0.0498-0.3599-0.1504c-0.0903-0.0898-0.1401-0.2197-0.1401-0.3496
		S4.1196,19.25,4.21,19.1602c0.1997-0.2002,0.52-0.1904,0.71-0.0107c0.0898,0.1006,0.1499,0.2207,0.1499,0.3604
		c0,0.1299-0.0601,0.2598-0.1499,0.3496C4.8296,19.96,4.6997,20.0098,4.5698,20.0098z"/>
	<path d="M19.46,20.0098c-0.1299,0-0.2598-0.0498-0.3506-0.1504c-0.0996-0.0996-0.1494-0.2197-0.1494-0.3496
		s0.0498-0.2598,0.1396-0.3496c0.21-0.2002,0.5303-0.1904,0.71-0.0107c0.1006,0.1006,0.1504,0.2207,0.1504,0.3604
		c0,0.1299-0.0498,0.2598-0.1504,0.3496C19.7295,19.9502,19.5996,20.0098,19.46,20.0098z"/>
</g>
<rect x="0.0142" y="0.0346" fill="none" width="24" height="24"/>
</svg>
