<?xml version="1.0" encoding="utf-8"?>
<!-- Generator: Adobe Illustrator 18.1.0, SVG Export Plug-In . SVG Version: 6.00 Build 0)  -->
<svg version="1.1" id="Layer_1" xmlns="http://www.w3.org/2000/svg" xmlns:xlink="http://www.w3.org/1999/xlink" x="0px" y="0px"
	 width="24px" height="24px" viewBox="0 0 24 24" enable-background="new 0 0 24 24" xml:space="preserve">
<g>
	<path d="M6.6289,23.7783c-0.0718,0-0.1436-0.0156-0.2109-0.0469c-0.1763-0.082-0.2891-0.2588-0.2891-0.4531v-5.3818
		c-2.9771-0.918-5.9263-4.373-5.9263-8.873c0-4.8921,3.7227-9.0254,8.1289-9.0254h7.521c4.2988,0,7.9307,4.1216,7.9307,9
		c0,4.8789-3.6318,9-7.9307,9H13.666l-6.7148,5.6621C6.8594,23.7383,6.7446,23.7783,6.6289,23.7783z M8.3315,0.998
		c-3.7979,0-7.1289,3.75-7.1289,8.0254c0,4.1982,2.8169,7.3672,5.54,8.0039c0.2266,0.0537,0.3862,0.2549,0.3862,0.4873v4.6875
		l6.0322-5.0859c0.0898-0.0762,0.2041-0.1182,0.3223-0.1182h2.3691c3.7568,0,6.9307-3.6631,6.9307-8c0-4.3364-3.1738-8-6.9307-8
		H8.3315z"/>
	<path d="M12.2617,13.6934c-1.1841,0-2.1196-0.4141-2.7856-1.2314c-0.6011,0.1445-1.4204,0.2686-2.1636,0.2686
		c-0.168,0-1.6582-0.0215-2.2119-0.752c-0.189-0.2495-0.2461-0.5542-0.1606-0.8579c0.0889-0.3145,0.3394-0.5742,0.7144-0.7544
		c-0.0815-0.2637-0.0601-0.5371,0.0708-0.793c0.3115-0.6079,0.978-0.7544,1.8457-0.6582c0.3315,0.0361,0.6753,0.0542,1.0137,0.0117
		c-1.1011-1.0522-1.3638-2.6235-1.395-2.8394C7.1685,5.9434,7.23,5.7422,7.3252,5.6323c0.3354-0.3862,1.5884-0.4277,2.1113-0.4277
		c1.2188,0,2.0728,0.3013,2.6074,0.5854c0.8008-0.998,1.9287-1.6016,3.0352-1.6016c1.2617,0,2.2109,0.7949,2.4785,2.0469
		c0.2725,0.1514,0.5068,0.2749,0.7021,0.3774c0.6855,0.3618,1.0293,0.543,1.0088,0.9775c-0.0215,0.4307-0.3838,0.5791-1.042,0.8481
		c-0.1396,0.0576-0.2998,0.123-0.4805,0.1997c-0.0898,1.1631-0.7148,4.6235-4.9512,5.0288
		C12.6143,13.6836,12.4365,13.6934,12.2617,13.6934z M9.6763,11.3916c0.1675,0,0.3281,0.0845,0.4219,0.2314
		c0.5586,0.8291,1.4473,1.1611,2.6011,1.0479c3.8535-0.3682,4.0596-3.7041,4.0615-4.3691c0.001-0.1978,0.1172-0.3765,0.2988-0.4561
		c0.3027-0.1338,0.5605-0.2393,0.7744-0.3267c-0.0137-0.0073-0.0273-0.0142-0.041-0.0215c-0.249-0.1313-0.5605-0.2954-0.9336-0.5068
		c-0.1367-0.0771-0.2285-0.2134-0.249-0.3687c-0.1221-0.9111-0.6807-1.4336-1.5312-1.4336c-0.8975,0-1.873,0.6055-2.4834,1.543
		c-0.0752,0.1147-0.1934,0.1938-0.3281,0.2188c-0.1348,0.0244-0.2734-0.0063-0.3843-0.0869
		c-0.3394-0.2461-1.1094-0.6587-2.4468-0.6587c-0.2764,0-0.8384,0.0371-1.1841,0.0923c0.1567,0.6235,0.6064,1.896,1.73,2.3784
		c0.187,0.0806,0.3071,0.2661,0.3027,0.4702c-0.0044,0.2036-0.1318,0.3843-0.3223,0.4565c-0.8481,0.3218-1.6841,0.396-2.501,0.3066
		C7.2964,9.8906,7.1357,9.8721,6.9868,9.8721c-0.291,0-0.3301,0.0762-0.3716,0.1567c-0.0371,0.0728,0.1162,0.2139,0.147,0.2417
		c0.1436,0.127,0.2017,0.3247,0.1499,0.5093c-0.0518,0.1841-0.2041,0.3228-0.3926,0.3569
		c-0.4404,0.0791-0.6011,0.2285-0.6201,0.2637c0.0786,0.1152,0.71,0.3301,1.4131,0.3301c0.7964,0,1.6895-0.1597,2.2212-0.3179
		C9.5806,11.3984,9.6289,11.3916,9.6763,11.3916z M15.1699,7.9482c-0.623,0-1.1299-0.5127-1.1299-1.1426
		s0.5068-1.1426,1.1299-1.1426c0.6221,0,1.1289,0.5127,1.1289,1.1426S15.792,7.9482,15.1699,7.9482z M15.1699,6.6631
		c-0.0703,0-0.1299,0.0654-0.1299,0.1426c0,0.1543,0.2588,0.1543,0.2588,0C15.2988,6.7285,15.2402,6.6631,15.1699,6.6631z"/>
</g>
<rect y="-0.002" fill="none" width="24" height="24"/>
</svg>
