<?xml version="1.0" encoding="utf-8"?>
<!-- Generator: Adobe Illustrator 18.1.0, SVG Export Plug-In . SVG Version: 6.00 Build 0)  -->
<svg version="1.1" id="Layer_1" xmlns="http://www.w3.org/2000/svg" xmlns:xlink="http://www.w3.org/1999/xlink" x="0px" y="0px"
	 width="24px" height="24px" viewBox="0 0 24 24" enable-background="new 0 0 24 24" xml:space="preserve">
<g>
	<path d="M13.291,19.0029h-2.416c-0.2192,0-0.4131-0.1426-0.4775-0.3525c-2.4917-8.0635,0.8447-17.896,0.9878-18.3105
		c0.0698-0.2017,0.2593-0.3369,0.4727-0.3369h0.4497c0.2129,0,0.4033,0.1353,0.4727,0.3369
		c0.1436,0.4146,3.4795,10.2471,0.9883,18.3105C13.7041,18.8604,13.5107,19.0029,13.291,19.0029z M11.248,18.0029h1.6699
		c1.8223-6.4019-0.1133-14.082-0.835-16.54C11.3618,3.9219,9.4272,11.606,11.248,18.0029z"/>
	<path d="M13.9482,16.0029h-3.731c-0.2764,0-0.5-0.2236-0.5-0.5s0.2236-0.5,0.5-0.5h3.731c0.2764,0,0.5,0.2236,0.5,0.5
		S14.2246,16.0029,13.9482,16.0029z"/>
	<path d="M11.9033,23.8496c-0.0972,0-0.1938-0.0283-0.2773-0.084c-0.1401-0.0938-0.2236-0.251-0.2227-0.4189l0,0
		c-0.0005,0-0.0317-0.4756-0.5894-1.168c-0.2842-0.3535-0.4102-0.751-0.3643-1.1494c0.0767-0.6719,0.6045-1.1035,0.6646-1.1504
		c0.2163-0.1699,0.5322-0.1318,0.7021,0.085c0.1694,0.2158,0.1328,0.5283-0.082,0.7002c-0.1558,0.127-0.4795,0.4668-0.1411,0.8877
		c0.3218,0.3994,0.5161,0.7588,0.6323,1.0488c0.3447-0.2305,0.7148-0.5615,0.7695-0.9209c0.0469-0.3066-0.1514-0.6523-0.5879-1.0264
		c-0.21-0.1797-0.2344-0.4961-0.0547-0.7051c0.1816-0.209,0.498-0.2314,0.7051-0.0547c0.7188,0.6162,1.0293,1.2686,0.9258,1.9414
		c-0.1904,1.2236-1.7119,1.9014-1.8848,1.9746C12.0361,23.8369,11.9692,23.8496,11.9033,23.8496z"/>
</g>
<rect x="0.0293" y="0.0001" fill="none" width="24" height="24"/>
</svg>
