<?xml version="1.0" encoding="utf-8"?>
<!-- Generator: Adobe Illustrator 18.1.0, SVG Export Plug-In . SVG Version: 6.00 Build 0)  -->
<svg version="1.1" id="Layer_1" xmlns="http://www.w3.org/2000/svg" xmlns:xlink="http://www.w3.org/1999/xlink" x="0px" y="0px"
	 width="24px" height="24px" viewBox="0 0 24 24" enable-background="new 0 0 24 24" xml:space="preserve">
<g>
	<path d="M6.3096,7.9268c-0.0381,0-0.0767-0.0044-0.1152-0.0137l-5.5234-1.311c-0.1401-0.0332-0.2588-0.125-0.3262-0.252
		C0.2773,6.2236,0.2676,6.0737,0.3184,5.939l2.0625-5.4629c0.0508-0.1343,0.1567-0.2402,0.2915-0.291
		C2.8076,0.1343,2.957,0.1436,3.0835,0.2114l5.0117,2.666C8.3174,2.9956,8.417,3.2603,8.3281,3.4956L6.7773,7.6035
		C6.7026,7.8013,6.5137,7.9268,6.3096,7.9268z M1.4546,5.7607l4.5425,1.0781l1.2402-3.2852L3.1157,1.3613L1.4546,5.7607z"/>
	<path d="M18.8779,12.0947c-0.0596,0-0.1191-0.0107-0.1768-0.0322L6.3237,7.3896c-0.124-0.0469-0.2241-0.1411-0.2788-0.2617
		C5.9902,7.0068,5.9858,6.8691,6.0327,6.7451l1.1694-3.0972c0.0977-0.2583,0.3862-0.3896,0.6445-0.291l12.377,4.6724
		c0.2578,0.0977,0.3887,0.3857,0.291,0.6445l-1.1689,3.0977c-0.0469,0.124-0.1406,0.2241-0.2617,0.2793
		C19.0186,12.0801,18.9482,12.0947,18.8779,12.0947z M7.145,6.6309l11.4419,4.3193l0.8154-2.1621L7.9609,4.4692L7.145,6.6309z"/>
	<path d="M22.1934,12.1904c-0.041,0-0.083-0.0059-0.125-0.0166l-3.0557-0.7861c-0.1377-0.0356-0.2529-0.1279-0.3184-0.2539
		s-0.0742-0.2739-0.0244-0.4072l0.6387-1.6919c0.0498-0.1323,0.1533-0.2368,0.2852-0.2886
		c0.1318-0.0527,0.2783-0.0444,0.4053,0.0176l2.8223,1.4048c0.2295,0.1143,0.3359,0.3843,0.2451,0.6245l-0.4053,1.0737
		C22.5859,12.0645,22.3975,12.1904,22.1934,12.1904z M19.8027,10.5581l2.0811,0.5356l0.0879-0.2314l-1.9229-0.9565L19.8027,10.5581z
		"/>
	<path d="M14.9111,7.0581c-0.0586,0-0.1182-0.0103-0.1768-0.0322c-0.2578-0.0977-0.3887-0.3862-0.291-0.6445l0.8477-2.2437
		c0.0967-0.2583,0.3828-0.3887,0.6445-0.291c0.2578,0.0977,0.3887,0.3862,0.291,0.6445l-0.8477,2.2437
		C15.3037,6.9351,15.1133,7.0581,14.9111,7.0581z"/>
	<path d="M17.8613,5.6084c-0.0586,0-0.1182-0.0103-0.1768-0.0322l-4.2061-1.5879c-0.2578-0.0977-0.3887-0.3862-0.291-0.6445
		c0.0967-0.2588,0.3828-0.3896,0.6445-0.291l4.2061,1.5879c0.2578,0.0977,0.3887,0.3862,0.291,0.6445
		C18.2539,5.4854,18.0635,5.6084,17.8613,5.6084z"/>
	<path d="M8.4272,23.9062c-0.04,0-0.0811-0.0049-0.1216-0.0146c-0.2681-0.0674-0.4312-0.3389-0.3638-0.6064l3.585-14.3413
		c0.1113-0.4453,0.8589-0.4453,0.9702,0l3.5859,14.3413c0.0664,0.2676-0.0957,0.5391-0.3643,0.6064
		c-0.2666,0.0645-0.54-0.0967-0.6064-0.3643l-3.1006-12.4009L8.9116,23.5273C8.855,23.7549,8.6514,23.9062,8.4272,23.9062z"/>
	<path d="M14.1221,18.0029H9.9023c-0.2764,0-0.5-0.2236-0.5-0.5s0.2236-0.5,0.5-0.5h4.2197c0.2764,0,0.5,0.2236,0.5,0.5
		S14.3984,18.0029,14.1221,18.0029z"/>
</g>
<rect x="0.0172" y="0.0031" fill="none" width="24" height="24"/>
</svg>
