<?xml version="1.0" encoding="utf-8"?>
<!-- Generator: Adobe Illustrator 18.1.0, SVG Export Plug-In . SVG Version: 6.00 Build 0)  -->
<svg version="1.1" id="Layer_1" xmlns="http://www.w3.org/2000/svg" xmlns:xlink="http://www.w3.org/1999/xlink" x="0px" y="0px"
	 width="24px" height="24px" viewBox="0 0 24 24" enable-background="new 0 0 24 24" xml:space="preserve">
<g>
	<path d="M17.9414,17.0586c-3.2324,0-5.8613-3.8125-5.8613-8.4985s2.6289-8.4985,5.8613-8.4985
		c3.2314,0,5.8604,3.8125,5.8604,8.4985S21.1729,17.0586,17.9414,17.0586z M17.9414,1.0615c-2.6807,0-4.8613,3.3638-4.8613,7.4985
		c0,4.1343,2.1807,7.4985,4.8613,7.4985c2.6797,0,4.8604-3.3643,4.8604-7.4985C22.8018,4.4253,20.6211,1.0615,17.9414,1.0615z"/>
	<path d="M12.5801,23.8809c-0.1299,0-0.2578-0.0508-0.3535-0.1465l-1.6519-1.6523l-1.6519,1.6523
		c-0.1875,0.1875-0.5195,0.1875-0.707,0L6.564,22.082l-1.6519,1.6523c-0.0938,0.0938-0.2207,0.1465-0.3535,0.1465l0,0
		c-0.1328,0-0.2598-0.0527-0.3535-0.1465L2.5537,22.082l-1.6519,1.6523c-0.1436,0.1426-0.3574,0.1846-0.5449,0.1084
		c-0.1865-0.0771-0.3086-0.2598-0.3086-0.4619V8.668c0-4.7456,2.6294-8.6064,5.8608-8.6064h12.0322c0.2764,0,0.5,0.2236,0.5,0.5
		s-0.2236,0.5-0.5,0.5H5.9092c-2.6802,0-4.8608,3.4121-4.8608,7.6064v13.5059l1.1519-1.1523
		c0.0938-0.0938,0.2207-0.1465,0.3535-0.1465l0,0c0.1328,0,0.2598,0.0527,0.3535,0.1465l1.6514,1.6523l1.6519-1.6523
		c0.1875-0.1875,0.5195-0.1875,0.707,0l1.6519,1.6523l1.6519-1.6523c0.1875-0.1875,0.5195-0.1875,0.707,0l1.1519,1.1523V8.668
		c0-0.2764,0.2236-0.5,0.5-0.5s0.5,0.2236,0.5,0.5v14.7129c0,0.2021-0.1221,0.3848-0.3086,0.4619
		C12.71,23.8682,12.6445,23.8809,12.5801,23.8809z"/>
	<path d="M17.9414,11.5796c-1.2275,0-2.1895-1.3262-2.1895-3.0195s0.9619-3.0195,2.1895-3.0195s2.1885,1.3262,2.1885,3.0195
		S19.1689,11.5796,17.9414,11.5796z M17.9414,6.5405c-0.6338,0-1.1895,0.9438-1.1895,2.0195s0.5557,2.0195,1.1895,2.0195
		c0.6328,0,1.1885-0.9438,1.1885-2.0195S18.5742,6.5405,17.9414,6.5405z"/>
	<path d="M17.9414,17.0586h-5.3613c-0.2764,0-0.5-0.2236-0.5-0.5s0.2236-0.5,0.5-0.5h5.3613c0.2764,0,0.5,0.2236,0.5,0.5
		S18.2178,17.0586,17.9414,17.0586z"/>
</g>
<rect x="0.0142" y="0.0354" fill="none" width="24" height="24"/>
</svg>
