<?xml version="1.0" encoding="utf-8"?>
<!-- Generator: Adobe Illustrator 18.1.0, SVG Export Plug-In . SVG Version: 6.00 Build 0)  -->
<svg version="1.1" id="Layer_1" xmlns="http://www.w3.org/2000/svg" xmlns:xlink="http://www.w3.org/1999/xlink" x="0px" y="0px"
	 width="24px" height="24px" viewBox="0 0 24 24" enable-background="new 0 0 24 24" xml:space="preserve">
<g>
	<path d="M22.9951,24H0.9956c-0.2764,0-0.5-0.2236-0.5-0.5s0.2236-0.5,0.5-0.5h21.9995c0.2764,0,0.5,0.2236,0.5,0.5
		S23.2715,24,22.9951,24z"/>
	<path d="M3.5977,21c-0.2139,0-0.4116-0.1377-0.4775-0.3525l-1.624-5.2617c-0.0405-0.1309-0.0254-0.2715,0.041-0.3916
		c0.0664-0.1191,0.1792-0.2061,0.3115-0.2402c0.2236-0.0576,2.2266-0.542,3.4478,0.3203c0.2256,0.1592,0.2798,0.4707,0.1206,0.6963
		c-0.1592,0.2246-0.4712,0.2812-0.6968,0.1201c-0.5391-0.3799-1.4663-0.3564-2.1045-0.2666l1.4595,4.7285
		c0.0815,0.2637-0.0664,0.5439-0.3301,0.625C3.6958,20.9932,3.6465,21,3.5977,21z"/>
	<path d="M8.8472,21c-0.2627,0-0.4829-0.2051-0.4985-0.4707c-0.002-0.0352-0.2266-3.5693-2.0049-10.0439
		c-0.0459-0.167-0.0024-0.3462,0.1157-0.4727c0.1187-0.1274,0.2939-0.1865,0.4634-0.1499c0.1851,0.0366,4.5488,0.9585,6.2705,6.2446
		c0.085,0.2627-0.0586,0.5449-0.3203,0.6309c-0.2656,0.0869-0.5449-0.0586-0.6309-0.3203
		c-1.1177-3.4336-3.4502-4.8062-4.6953-5.3105c1.5913,6.0186,1.792,9.2236,1.7998,9.3633c0.0161,0.2764-0.1943,0.5127-0.4697,0.5283
		C8.8667,21,8.8569,21,8.8472,21z"/>
	<path d="M15.4893,21c-0.0586,0-0.1172-0.0098-0.1748-0.0312c-0.2588-0.0967-0.3906-0.3848-0.2939-0.6436l1.7842-4.7861
		c-0.0156,0-0.0322,0-0.0488,0c-3.4521,0-4.75,2.1182-4.8071,2.2139c-0.1401,0.2363-0.4458,0.3145-0.6836,0.1777
		c-0.2373-0.1396-0.3184-0.4434-0.1802-0.6816c0.0723-0.125,1.8184-3.0488,6.4688-2.6768c0.1562,0.0117,0.2979,0.0977,0.3818,0.2295
		s0.1016,0.2959,0.0469,0.4434l-2.0244,5.4297C15.8828,20.876,15.6924,21,15.4893,21z"/>
	<path d="M19.5645,20.4199c-0.0859,0-0.1719-0.0215-0.251-0.0674c-0.2383-0.1387-0.3203-0.4443-0.1816-0.6836
		c0.4658-0.8037,1.5566-1.9619,2.2803-2.6904c-2.5312-0.2998-3.1875,1.1055-3.2168,1.1719c-0.1104,0.251-0.4043,0.373-0.6543,0.2627
		c-0.252-0.1064-0.373-0.3926-0.2695-0.6465c0.0439-0.1074,1.1152-2.6094,5.2959-1.5889c0.1787,0.043,0.3184,0.1807,0.3652,0.3574
		c0.0469,0.1777-0.0068,0.3662-0.1406,0.4912c-0.0215,0.0205-2.1562,2.04-2.7949,3.1445
		C19.9043,20.3301,19.7363,20.4199,19.5645,20.4199z"/>
	<path d="M5.5415,19.3203c-0.2446,0-0.4585-0.1797-0.4941-0.4287l-0.8008-5.5361c-0.022-0.1494,0.0254-0.3008,0.1284-0.4121
		c0.1035-0.1104,0.2563-0.167,0.4019-0.1582c2.4873,0.1787,3.5396,1.7529,3.583,1.8203c0.1509,0.2314,0.0854,0.541-0.146,0.6914
		c-0.2305,0.1494-0.5386,0.0859-0.6904-0.1436c-0.0356-0.0527-0.6807-0.9775-2.1924-1.2852l0.7056,4.8809
		c0.0396,0.2734-0.1499,0.5264-0.4229,0.5664C5.5894,19.3184,5.5649,19.3203,5.5415,19.3203z"/>
	<path d="M1.4863,24c-0.2764,0-0.5-0.2236-0.5-0.5v-4c0-0.2764,0.2236-0.5,0.5-0.5h1.7432c0.2764,0,0.5,0.2236,0.5,0.5
		s-0.2236,0.5-0.5,0.5H1.9863v3.5C1.9863,23.7764,1.7627,24,1.4863,24z"/>
	<path d="M22.4492,24c-0.2764,0-0.5-0.2236-0.5-0.5v-3.1973l-1.7324-1.2139c-0.2256-0.1582-0.2812-0.4697-0.1221-0.6963
		c0.1582-0.2266,0.4707-0.2803,0.6963-0.1221l1.9453,1.3623c0.1338,0.0928,0.2129,0.2461,0.2129,0.4092V23.5
		C22.9492,23.7764,22.7256,24,22.4492,24z"/>
	<path d="M22.4492,22h-6.5889c-0.209,0-0.3965-0.1299-0.4688-0.3262L15.1416,21H2.9863c-0.2764,0-0.5-0.2236-0.5-0.5
		S2.71,20,2.9863,20h12.5029c0.209,0,0.3965,0.1299,0.4688,0.3262L16.208,21h6.2412c0.2764,0,0.5,0.2236,0.5,0.5
		S22.7256,22,22.4492,22z"/>
</g>
<rect x="-0.0136" fill="none" width="24" height="24"/>
</svg>
