<?xml version="1.0" encoding="utf-8"?>
<!-- Generator: Adobe Illustrator 18.1.0, SVG Export Plug-In . SVG Version: 6.00 Build 0)  -->
<svg version="1.1" id="Layer_1" xmlns="http://www.w3.org/2000/svg" xmlns:xlink="http://www.w3.org/1999/xlink" x="0px" y="0px"
	 width="24px" height="24px" viewBox="0 0 24 24" enable-background="new 0 0 24 24" xml:space="preserve">
<g>
	<path d="M19.4678,7.9702h-6.9551c-0.2764,0-0.5-0.2236-0.5-0.5s0.2236-0.5,0.5-0.5h6.9551c0.2764,0,0.5,0.2236,0.5,0.5
		S19.7441,7.9702,19.4678,7.9702z"/>
	<path d="M21.9375,18.9912H11.4834c-0.2764,0-0.5-0.2236-0.5-0.5s0.2236-0.5,0.5-0.5h10.4541c0.0498,0,0.2012,0,0.2354-0.0176
		c0.0303-0.0215,0.1924-0.1963,0.3428-1.4414c0.335-2.7754,0.335-7.2886,0-10.0615c-0.1816-1.5005-0.3311-1.5005-0.5781-1.5005
		H11.4834c-0.2764,0-0.5-0.2236-0.5-0.5s0.2236-0.5,0.5-0.5h10.4541c1.1045,0,1.3682,0.7017,1.5703,2.3804
		c0.3438,2.8389,0.3438,7.46,0,10.3008C23.3086,18.3018,23.0469,18.9912,21.9375,18.9912z"/>
	<path d="M2.4712,18.9912H2.0444c-1.1094,0-1.3716-0.6895-1.5708-2.3398c-0.3428-2.8398-0.3428-7.4604,0-10.3008
		c0.2026-1.6787,0.4658-2.3804,1.5708-2.3804h0.4268c0.2764,0,0.5,0.2236,0.5,0.5s-0.2236,0.5-0.5,0.5H2.0444
		c-0.2476,0-0.3965,0-0.5776,1.5005c-0.3354,2.7739-0.3354,7.2871,0,10.0615c0.1499,1.2451,0.312,1.4199,0.3428,1.4424
		c0.0337,0.0166,0.1851,0.0166,0.2349,0.0166h0.4268c0.2764,0,0.5,0.2236,0.5,0.5S2.7476,18.9912,2.4712,18.9912z"/>
	<path d="M8.3423,21.0137H5.6118c-0.9048,0-1.6406-0.7441-1.6406-1.6592V3.6792c0-0.915,0.7358-1.6592,1.6406-1.6592h2.7305
		c0.9048,0,1.6406,0.7441,1.6406,1.6592v15.6753C9.9829,20.2695,9.2471,21.0137,8.3423,21.0137z M5.6118,3.02
		c-0.353,0-0.6406,0.2959-0.6406,0.6592v15.6753c0,0.3633,0.2876,0.6592,0.6406,0.6592h2.7305c0.353,0,0.6406-0.2959,0.6406-0.6592
		V3.6792c0-0.3633-0.2876-0.6592-0.6406-0.6592H5.6118z"/>
	<path d="M13.4727,10.9707h-0.96c-0.2764,0-0.5-0.2236-0.5-0.5s0.2236-0.5,0.5-0.5h0.96c0.2764,0,0.5,0.2236,0.5,0.5
		S13.749,10.9707,13.4727,10.9707z"/>
	<path d="M13.4727,12.9707h-0.96c-0.2764,0-0.5-0.2236-0.5-0.5s0.2236-0.5,0.5-0.5h0.96c0.2764,0,0.5,0.2236,0.5,0.5
		S13.749,12.9707,13.4727,12.9707z"/>
	<path d="M13.4727,14.9707h-0.96c-0.2764,0-0.5-0.2236-0.5-0.5s0.2236-0.5,0.5-0.5h0.96c0.2764,0,0.5,0.2236,0.5,0.5
		S13.749,14.9707,13.4727,14.9707z"/>
	<path d="M16.4736,10.9707h-0.9609c-0.2764,0-0.5-0.2236-0.5-0.5s0.2236-0.5,0.5-0.5h0.9609c0.2764,0,0.5,0.2236,0.5,0.5
		S16.75,10.9707,16.4736,10.9707z"/>
	<path d="M16.4736,12.9707h-0.9609c-0.2764,0-0.5-0.2236-0.5-0.5s0.2236-0.5,0.5-0.5h0.9609c0.2764,0,0.5,0.2236,0.5,0.5
		S16.75,12.9707,16.4736,12.9707z"/>
	<path d="M16.4736,14.9707h-0.9609c-0.2764,0-0.5-0.2236-0.5-0.5s0.2236-0.5,0.5-0.5h0.9609c0.2764,0,0.5,0.2236,0.5,0.5
		S16.75,14.9707,16.4736,14.9707z"/>
	<path d="M19.4736,10.9707h-0.9609c-0.2764,0-0.5-0.2236-0.5-0.5s0.2236-0.5,0.5-0.5h0.9609c0.2764,0,0.5,0.2236,0.5,0.5
		S19.75,10.9707,19.4736,10.9707z"/>
	<path d="M19.4736,12.9707h-0.9609c-0.2764,0-0.5-0.2236-0.5-0.5s0.2236-0.5,0.5-0.5h0.9609c0.2764,0,0.5,0.2236,0.5,0.5
		S19.75,12.9707,19.4736,12.9707z"/>
	<path d="M19.4736,14.9707h-0.9609c-0.2764,0-0.5-0.2236-0.5-0.5s0.2236-0.5,0.5-0.5h0.9609c0.2764,0,0.5,0.2236,0.5,0.5
		S19.75,14.9707,19.4736,14.9707z"/>
</g>
<rect y="-0.002" fill="none" width="24" height="24"/>
</svg>
