<?xml version="1.0" encoding="utf-8"?>
<!-- Generator: Adobe Illustrator 18.1.0, SVG Export Plug-In . SVG Version: 6.00 Build 0)  -->
<svg version="1.1" id="Layer_1" xmlns="http://www.w3.org/2000/svg" xmlns:xlink="http://www.w3.org/1999/xlink" x="0px" y="0px"
	 width="24px" height="24px" viewBox="0 0 24 24" enable-background="new 0 0 24 24" xml:space="preserve">
<g>
	<path d="M21.1465,24H2.8774c-1.5801,0-2.8652-1.2852-2.8652-2.8652V2.8652C0.0122,1.2852,1.2974,0,2.8774,0h18.269
		c1.5801,0,2.8652,1.2852,2.8652,2.8652v18.2695C24.0117,22.7148,22.7266,24,21.1465,24z M2.8774,1
		C1.8491,1,1.0122,1.8369,1.0122,2.8652v18.2695C1.0122,22.1631,1.8491,23,2.8774,23h18.269c1.0283,0,1.8652-0.8369,1.8652-1.8652
		V2.8652C23.0117,1.8369,22.1748,1,21.1465,1H2.8774z"/>
	<path d="M10.3979,17H4.5308c-0.2764,0-0.5-0.2236-0.5-0.5s0.2236-0.5,0.5-0.5h5.8672c0.2764,0,0.5,0.2236,0.5,0.5
		S10.6743,17,10.3979,17z"/>
	<path d="M10.3979,20H4.5308c-0.2764,0-0.5-0.2236-0.5-0.5s0.2236-0.5,0.5-0.5h5.8672c0.2764,0,0.5,0.2236,0.5,0.5
		S10.6743,20,10.3979,20z"/>
	<path d="M19.3984,17h-5.8672c-0.2764,0-0.5-0.2236-0.5-0.5s0.2236-0.5,0.5-0.5h5.8672c0.2764,0,0.5,0.2236,0.5,0.5
		S19.6748,17,19.3984,17z"/>
	<path d="M19.3984,20h-5.8672c-0.2764,0-0.5-0.2236-0.5-0.5s0.2236-0.5,0.5-0.5h5.8672c0.2764,0,0.5,0.2236,0.5,0.5
		S19.6748,20,19.3984,20z"/>
	<path d="M19.3984,10.9995h-5.8672c-0.2764,0-0.5-0.2236-0.5-0.5s0.2236-0.5,0.5-0.5h5.8672c0.2764,0,0.5,0.2236,0.5,0.5
		S19.6748,10.9995,19.3984,10.9995z"/>
	<path d="M19.3984,7.9995h-5.8672c-0.2764,0-0.5-0.2236-0.5-0.5s0.2236-0.5,0.5-0.5h5.8672c0.2764,0,0.5,0.2236,0.5,0.5
		S19.6748,7.9995,19.3984,7.9995z"/>
	<path d="M19.3994,5H4.5317c-0.2764,0-0.5-0.2236-0.5-0.5S4.2554,4,4.5317,4h14.8677c0.2764,0,0.5,0.2236,0.5,0.5
		S19.6758,5,19.3994,5z"/>
	<path d="M19.3984,14h-5.8672c-0.2764,0-0.5-0.2236-0.5-0.5s0.2236-0.5,0.5-0.5h5.8672c0.2764,0,0.5,0.2236,0.5,0.5
		S19.6748,14,19.3984,14z"/>
	<path d="M10.5,14h-6C4.2236,14,4,13.7764,4,13.5v-6C4,7.2236,4.2236,7,4.5,7h6C10.7764,7,11,7.2236,11,7.5v6
		C11,13.7764,10.7764,14,10.5,14z M5,13h5V8H5V13z"/>
</g>
<rect fill="none" width="24" height="24"/>
</svg>
