<?xml version="1.0" encoding="utf-8"?>
<!-- Generator: Adobe Illustrator 18.1.0, SVG Export Plug-In . SVG Version: 6.00 Build 0)  -->
<svg version="1.1" id="Layer_1" xmlns="http://www.w3.org/2000/svg" xmlns:xlink="http://www.w3.org/1999/xlink" x="0px" y="0px"
	 width="24px" height="24px" viewBox="0 0 24 24" enable-background="new 0 0 24 24" xml:space="preserve">
<g>
	<path d="M8.0146,16.8066c-0.0771,0-0.1538-0.0176-0.2241-0.0527l-7.2803-3.6543c-0.2471-0.124-0.3467-0.4248-0.2227-0.6719
		c0.124-0.2461,0.4243-0.3477,0.6709-0.2227l7.0752,3.5518l5.2573-2.2012c0.2559-0.1045,0.5479,0.0137,0.6543,0.2676
		c0.1064,0.2549-0.0127,0.5479-0.2676,0.6543l-5.4702,2.29C8.146,16.7939,8.0801,16.8066,8.0146,16.8066z"/>
	<path d="M18.5098,12.4453c-0.1953,0-0.3818-0.1162-0.4619-0.3076c-0.1055-0.2554,0.0146-0.5479,0.2695-0.6538l4.8232-2.0063
		c0.2559-0.106,0.5479,0.0137,0.6543,0.2695c0.1055,0.2549-0.0146,0.5474-0.2695,0.6533l-4.8232,2.0068
		C18.6387,12.4326,18.5742,12.4453,18.5098,12.4453z"/>
	<path d="M0.7344,10.7915c-0.1953,0-0.3809-0.1152-0.4609-0.3066C0.1665,10.2305,0.2861,9.9375,0.541,9.8306l15.2158-6.3877
		c0.1328-0.0562,0.2852-0.0508,0.416,0.0132l7.3828,3.6748c0.2471,0.123,0.3477,0.4233,0.2246,0.6704
		c-0.1221,0.2476-0.4238,0.3472-0.6699,0.2251l-7.1777-3.5728L0.9277,10.7524C0.8647,10.7793,0.7993,10.7915,0.7344,10.7915z"/>
	<path d="M18.5098,10.1133c-0.1943,0-0.3799-0.1147-0.4609-0.3057c-0.1074-0.2544,0.0117-0.5479,0.2666-0.6548l4.8232-2.0347
		c0.252-0.106,0.5469,0.0107,0.6553,0.2661c0.1074,0.2544-0.0117,0.5479-0.2666,0.6548l-4.8232,2.0347
		C18.6406,10.1006,18.5752,10.1133,18.5098,10.1133z"/>
	<path d="M8.0146,14.4463c-0.0771,0-0.1538-0.0176-0.2241-0.0527l-7.2803-3.6553c-0.2471-0.124-0.3467-0.4243-0.2227-0.6709
		s0.4243-0.3467,0.6709-0.2227l7.0757,3.5518l5.2578-2.186c0.2568-0.1035,0.5479,0.0142,0.6543,0.27
		c0.1055,0.2549-0.0146,0.5479-0.2695,0.6533l-5.4702,2.2744C8.145,14.4336,8.0796,14.4463,8.0146,14.4463z"/>
	<path d="M8.0146,19.2275c-0.0771,0-0.1538-0.0176-0.2241-0.0527l-7.2803-3.6553c-0.2471-0.124-0.3467-0.4248-0.2227-0.6719
		s0.4243-0.3467,0.6709-0.2227l7.0762,3.5527l5.2583-2.1807c0.2539-0.1055,0.5469,0.0146,0.6533,0.2705
		c0.1055,0.2549-0.0156,0.5479-0.2705,0.6533l-5.4697,2.2686C8.145,19.2148,8.0796,19.2275,8.0146,19.2275z"/>
	<path d="M18.5098,14.8799c-0.1953,0-0.3809-0.1152-0.4609-0.3066c-0.1064-0.2549,0.0127-0.5479,0.2676-0.6543l4.8232-2.0205
		c0.2568-0.1084,0.5479,0.0132,0.6543,0.2676c0.1064,0.2549-0.0127,0.5479-0.2676,0.6543l-4.8232,2.0205
		C18.6396,14.8672,18.5742,14.8799,18.5098,14.8799z"/>
	<path d="M8.0146,21.5527c-0.0771,0-0.1538-0.0176-0.2241-0.0527l-7.2803-3.6543c-0.2471-0.124-0.3467-0.4248-0.2227-0.6719
		c0.124-0.2461,0.4243-0.3467,0.6709-0.2227l7.0757,3.5518l15.1064-6.2793c0.2559-0.1016,0.5479,0.0146,0.6543,0.2695
		c0.1055,0.2559-0.0146,0.5479-0.2695,0.6543L8.2065,21.5146C8.145,21.54,8.0796,21.5527,8.0146,21.5527z"/>
	<path d="M13.4844,19.2793c-0.2764,0-0.5-0.2236-0.5-0.5v-6.7969L5.915,8.4707C5.668,8.3477,5.5669,8.0479,5.6899,7.8003
		c0.1226-0.2471,0.4224-0.3486,0.6704-0.2251l7.3467,3.6494c0.1699,0.0845,0.2773,0.2578,0.2773,0.4478v7.1069
		C13.9844,19.0557,13.7607,19.2793,13.4844,19.2793z"/>
	<path d="M18.5098,17.1904c-0.2764,0-0.5-0.2236-0.5-0.5V9.9165l-6.9341-3.6196c-0.2446-0.1279-0.3394-0.4302-0.2119-0.6748
		c0.1284-0.2456,0.4307-0.3394,0.6748-0.2119l7.2026,3.7598c0.165,0.0864,0.2686,0.2573,0.2686,0.4434v7.0771
		C19.0098,16.9668,18.7861,17.1904,18.5098,17.1904z"/>
	<path d="M13.2539,10.4482c-0.1484,0-0.2939-0.0254-0.4268-0.0771c-0.2578-0.0991-0.3857-0.3887-0.2871-0.646
		c0.0996-0.2583,0.3896-0.3877,0.6465-0.2866c0.0459,0.0181,0.1367,0.0151,0.2168-0.0259c0.0518-0.0254,0.0752-0.0547,0.0781-0.064
		c0.0713-0.2412-0.0176-0.2856-0.1045-0.3291c-0.2119-0.1064-0.4668-0.0376-0.6074,0.0859c-0.5,0.4175-1.1655,0.5068-1.7065,0.2363
		c-0.6206-0.3105-0.8403-0.9546-0.5347-1.5669c0.1948-0.3901,0.605-0.6284,1.0894-0.6147c0.2759,0.0063,0.4946,0.2354,0.4878,0.5117
		c-0.0059,0.2759-0.252,0.4702-0.5112,0.4883c-0.0854-0.002-0.1523,0.0225-0.1714,0.0615c-0.0576,0.1157-0.04,0.1621,0.0874,0.2256
		c0.2241,0.1123,0.4619,0.021,0.6089-0.1011c0.4629-0.4067,1.1543-0.4971,1.7051-0.2212c0.5713,0.2856,0.8076,0.8633,0.6162,1.5083
		c-0.0869,0.2905-0.2979,0.5308-0.5957,0.6772C13.6582,10.4019,13.4541,10.4482,13.2539,10.4482z"/>
	<path d="M11.1045,8.332c-0.0752,0-0.1514-0.0171-0.2231-0.0527l-0.4272-0.2134c-0.2466-0.1235-0.3472-0.4238-0.2236-0.6709
		c0.123-0.2466,0.4233-0.3457,0.6709-0.2236l0.4272,0.2134c0.2466,0.1235,0.3472,0.4238,0.2236,0.6709
		C11.4648,8.231,11.2881,8.332,11.1045,8.332z"/>
	<path d="M14.2979,10.312c-0.0762,0-0.1523-0.0171-0.2236-0.0532l-0.3965-0.1987c-0.2471-0.1235-0.3467-0.4238-0.2236-0.6709
		c0.124-0.2476,0.4277-0.3462,0.6709-0.2227l0.3965,0.1987c0.2471,0.1235,0.3467,0.4238,0.2236,0.6709
		C14.6572,10.2109,14.4805,10.312,14.2979,10.312z"/>
</g>
<rect x="-0.0137" fill="none" width="24" height="24"/>
</svg>
