<?xml version="1.0" encoding="utf-8"?>
<!-- Generator: Adobe Illustrator 18.1.0, SVG Export Plug-In . SVG Version: 6.00 Build 0)  -->
<svg version="1.1" id="Layer_1" xmlns="http://www.w3.org/2000/svg" xmlns:xlink="http://www.w3.org/1999/xlink" x="0px" y="0px"
	 width="24px" height="24px" viewBox="0 0 24 24" enable-background="new 0 0 24 24" xml:space="preserve">
<g>
	<path d="M9.3784,20.6348c-5.0684,0-9.1914-4.123-9.1914-9.1909s4.123-9.1909,9.1914-9.1909c5.0679,0,9.1909,4.123,9.1909,9.1909
		S14.4463,20.6348,9.3784,20.6348z M9.3784,3.2529c-4.5166,0-8.1914,3.6743-8.1914,8.1909c0,4.5161,3.6748,8.1909,8.1914,8.1909
		c4.5161,0,8.1909-3.6748,8.1909-8.1909C17.5693,6.9272,13.8945,3.2529,9.3784,3.2529z"/>
	<path d="M9.3784,12.8789c-0.7915,0-1.4351-0.6436-1.4351-1.4351s0.6436-1.4351,1.4351-1.4351c0.791,0,1.4346,0.6436,1.4346,1.4351
		S10.1694,12.8789,9.3784,12.8789z M9.3784,11.0088c-0.2397,0-0.4351,0.1953-0.4351,0.4351s0.1953,0.4351,0.4351,0.4351
		s0.4346-0.1953,0.4346-0.4351S9.6182,11.0088,9.3784,11.0088z"/>
	<path d="M14.165,14.0312c-1.4268,0-2.5869-1.1611-2.5869-2.5874s1.1602-2.5869,2.5869-2.5869s2.5869,1.1606,2.5869,2.5869
		S15.5918,14.0312,14.165,14.0312z M14.165,9.8569c-0.875,0-1.5869,0.7119-1.5869,1.5869c0,0.8755,0.7119,1.5874,1.5869,1.5874
		s1.5869-0.7119,1.5869-1.5874C15.752,10.5688,15.04,9.8569,14.165,9.8569z"/>
	<path d="M4.5889,14.0312c-1.4263,0-2.5869-1.1611-2.5869-2.5874s1.1606-2.5869,2.5869-2.5869s2.5869,1.1606,2.5869,2.5869
		S6.0151,14.0312,4.5889,14.0312z M4.5889,9.8569c-0.875,0-1.5869,0.7119-1.5869,1.5869c0,0.8755,0.7119,1.5874,1.5869,1.5874
		s1.5869-0.7119,1.5869-1.5874C6.1758,10.5688,5.4639,9.8569,4.5889,9.8569z"/>
	<path d="M9.377,18.8193c-1.4263,0-2.5869-1.1611-2.5869-2.5879s1.1606-2.5869,2.5869-2.5869s2.5869,1.1602,2.5869,2.5869
		S10.8032,18.8193,9.377,18.8193z M9.377,14.6445c-0.875,0-1.5869,0.7119-1.5869,1.5869c0,0.876,0.7119,1.5879,1.5869,1.5879
		s1.5869-0.7119,1.5869-1.5879C10.9639,15.3564,10.252,14.6445,9.377,14.6445z"/>
	<path d="M9.377,9.2432c-1.4263,0-2.5869-1.1606-2.5869-2.5874c0-1.4263,1.1606-2.5869,2.5869-2.5869s2.5869,1.1606,2.5869,2.5869
		C11.9639,8.0825,10.8032,9.2432,9.377,9.2432z M9.377,5.0688c-0.875,0-1.5869,0.7119-1.5869,1.5869
		c0,0.8755,0.7119,1.5874,1.5869,1.5874s1.5869-0.7119,1.5869-1.5874C10.9639,5.7808,10.252,5.0688,9.377,5.0688z"/>
	<path d="M23.3652,21.4326c-0.0078,0-0.0156,0-0.0244-0.001c-0.2754-0.0127-0.4883-0.2471-0.4746-0.5234
		c0.0449-0.9355-0.2168-1.5889-0.7988-1.9961c-2.0918-1.4668-7.7803,0.4111-9.7959,1.2559
		c-0.2549,0.1074-0.5474-0.0127-0.6543-0.2676s0.0127-0.5479,0.2676-0.6543c0.3164-0.1328,7.7891-3.2334,10.7559-1.1533
		c0.874,0.6123,1.2861,1.5752,1.2236,2.8643C23.8516,21.2246,23.6309,21.4326,23.3652,21.4326z"/>
</g>
<rect x="-0.0137" y="0.0002" fill="none" width="24" height="24"/>
</svg>
