<?xml version="1.0" encoding="utf-8"?>
<!-- Generator: Adobe Illustrator 18.1.0, SVG Export Plug-In . SVG Version: 6.00 Build 0)  -->
<svg version="1.1" id="Layer_1" xmlns="http://www.w3.org/2000/svg" xmlns:xlink="http://www.w3.org/1999/xlink" x="0px" y="0px"
	 width="24px" height="24px" viewBox="0 0 24 24" enable-background="new 0 0 24 24" xml:space="preserve">
<g>
	<path d="M6.2173,8.4321c-1.4458,0-2.4053-1.8188-2.4053-3.022c0-1.3262,1.0791-2.4053,2.4053-2.4053S8.6226,4.084,8.6226,5.4102
		C8.6226,6.6133,7.6631,8.4321,6.2173,8.4321z M6.2173,4.0049c-0.7749,0-1.4053,0.6304-1.4053,1.4053
		c0,0.8457,0.708,2.022,1.4053,2.022s1.4053-1.1763,1.4053-2.022C7.6226,4.6353,6.9922,4.0049,6.2173,4.0049z"/>
	<path d="M22.9893,22h-22c-0.2764,0-0.5-0.2236-0.5-0.5s0.2236-0.5,0.5-0.5h22c0.2764,0,0.5,0.2236,0.5,0.5S23.2656,22,22.9893,22z"
		/>
	<path d="M6.748,19.9795H3.9214c-0.5991,0-1.1743-0.2539-1.5781-0.6963c-0.4043-0.4424-0.6045-1.0391-0.5498-1.6357l0.4136-4.5166
		c-0.002-1.5742,0.9683-3.0273,2.4697-3.6562C4.894,9.3828,5.146,9.4561,5.2812,9.6514c0.2896,0.418,0.6216,0.6484,0.936,0.6484l0,0
		c0.314,0,0.6465-0.2305,0.936-0.6484c0.1562-0.2285,0.4683-0.2842,0.6953-0.127c0.2275,0.1567,0.2842,0.4683,0.127,0.6953
		c-0.4814,0.6968-1.106,1.0801-1.7583,1.0801c0,0,0,0-0.0005,0c-0.5361,0-1.0537-0.2593-1.4883-0.7383
		c-0.936,0.5337-1.5234,1.5244-1.5234,2.6152l-0.4155,4.5625c-0.0298,0.3223,0.0742,0.6309,0.292,0.8701
		c0.2183,0.2383,0.5166,0.3701,0.8398,0.3701H6.748c0.2764,0,0.5,0.2236,0.5,0.5S7.0244,19.9795,6.748,19.9795z"/>
	<path d="M20.5381,19h-1.5518c-0.2764,0-0.5-0.2236-0.5-0.5s0.2236-0.5,0.5-0.5h1.5518c0.2031,0,0.4482-0.2246,0.4482-0.3652
		v-6.3481c0-0.1182-0.2314-0.2866-0.4482-0.2866H10.3242c-0.1631,0-0.3379,0.1152-0.3379,0.2866v6.3481
		c0,0.1777,0.1738,0.3652,0.3379,0.3652h1.6621c0.2764,0,0.5,0.2236,0.5,0.5s-0.2236,0.5-0.5,0.5h-1.6621
		c-0.7129,0-1.3379-0.6377-1.3379-1.3652v-6.3481C8.9863,10.5771,9.5864,10,10.3242,10h10.2139
		c0.6846,0,1.4482,0.5283,1.4482,1.2866v6.3481C21.9863,18.3369,21.2822,19,20.5381,19z"/>
	<path d="M17.2207,22c-0.0049,0.001-0.0127,0-0.0195,0h-3.4268c-0.1416,0-0.2764-0.0596-0.3711-0.165s-0.1406-0.2451-0.126-0.3857
		l0.5137-5C13.8174,16.1943,14.0312,16,14.2881,16h2.3535c0.2549,0,0.4688,0.1914,0.4971,0.4443l0.5439,4.8633
		c0.0244,0.0596,0.0381,0.124,0.0381,0.1924C17.7207,21.7764,17.4971,22,17.2207,22z M14.3281,21h2.3145l-0.4482-4h-1.4551
		L14.3281,21z"/>
</g>
<rect x="-0.0137" y="0.0002" fill="none" width="24" height="24"/>
</svg>
