<?xml version="1.0" encoding="utf-8"?>
<!-- Generator: Adobe Illustrator 18.1.0, SVG Export Plug-In . SVG Version: 6.00 Build 0)  -->
<svg version="1.1" id="Layer_1" xmlns="http://www.w3.org/2000/svg" xmlns:xlink="http://www.w3.org/1999/xlink" x="0px" y="0px"
	 width="24px" height="24px" viewBox="0 0 24 24" enable-background="new 0 0 24 24" xml:space="preserve">
<g>
	<path d="M5.5,21.9219c-0.2764,0-0.5-0.2236-0.5-0.5V2.5249c0-0.2764,0.2236-0.5,0.5-0.5S6,2.2485,6,2.5249v18.897
		C6,21.6982,5.7764,21.9219,5.5,21.9219z"/>
	<path d="M5.5,21.9219c-0.1343,0-0.2632-0.0537-0.3574-0.1504l-3.043-3.1084c-0.1929-0.1973-0.1895-0.5137,0.0078-0.707
		c0.1982-0.1914,0.5142-0.1904,0.707,0.0078L5.5,20.707l2.6855-2.7432c0.1938-0.1982,0.5107-0.1992,0.707-0.0078
		c0.1973,0.1934,0.2007,0.5098,0.0078,0.707l-3.043,3.1084C5.7632,21.8682,5.6343,21.9219,5.5,21.9219z"/>
	<path d="M21.4443,6.0044H9.5161c-0.2764,0-0.5-0.2236-0.5-0.5s0.2236-0.5,0.5-0.5h11.9282c0.2764,0,0.5,0.2236,0.5,0.5
		S21.7207,6.0044,21.4443,6.0044z"/>
	<path d="M21.4443,9.0044H9.5161c-0.2764,0-0.5-0.2236-0.5-0.5s0.2236-0.5,0.5-0.5h11.9282c0.2764,0,0.5,0.2236,0.5,0.5
		S21.7207,9.0044,21.4443,9.0044z"/>
	<path d="M21.4443,12.0039H9.5161c-0.2764,0-0.5-0.2231-0.5-0.4995s0.2236-0.5,0.5-0.5h11.9282c0.2764,0,0.5,0.2236,0.5,0.5
		S21.7207,12.0039,21.4443,12.0039z"/>
	<path d="M15.4805,15.0039H9.5161c-0.2764,0-0.5-0.2236-0.5-0.5s0.2236-0.5,0.5-0.5h5.9644c0.2764,0,0.5,0.2236,0.5,0.5
		S15.7568,15.0039,15.4805,15.0039z"/>
</g>
<rect y="0.0011" fill="none" width="24" height="24"/>
</svg>
