<?xml version="1.0" encoding="utf-8"?>
<!-- Generator: Adobe Illustrator 18.1.0, SVG Export Plug-In . SVG Version: 6.00 Build 0)  -->
<svg version="1.1" id="Layer_1" xmlns="http://www.w3.org/2000/svg" xmlns:xlink="http://www.w3.org/1999/xlink" x="0px" y="0px"
	 width="24px" height="24px" viewBox="0 0 24 24" enable-background="new 0 0 24 24" xml:space="preserve">
<g>
	<path d="M23.458,21.9873h-7.4727c-0.2764,0-0.5-0.2236-0.5-0.5s0.2236-0.5,0.5-0.5H22.96l0.0566-13.9297l-2.5234-0.0039
		c-0.2764-0.0005-0.499-0.2246-0.499-0.501c0-0.2759,0.2246-0.499,0.5-0.499h0.001l3.0244,0.0049
		c0.1328,0,0.2598,0.0532,0.3535,0.1475s0.1465,0.2217,0.1455,0.3545L23.958,21.4893C23.957,21.7646,23.7334,21.9873,23.458,21.9873
		z"/>
	<path d="M17.4795,4.0049c-0.0225,0-0.0439-0.0015-0.0664-0.0044c-0.2734-0.0356-0.4658-0.2871-0.4307-0.5605l0.1377-1.0469
		L3.9258,1.3364l-0.126,2.1968C3.7842,3.8091,3.5376,4.0156,3.2725,4.0039C2.9966,3.9883,2.7856,3.752,2.8018,3.4766L2.9565,0.769
		C2.9639,0.6343,3.0254,0.5088,3.127,0.4204C3.228,0.332,3.355,0.2891,3.4956,0.2988l14.229,1.1392
		c0.1367,0.0112,0.2627,0.0776,0.3486,0.1841s0.125,0.2437,0.1074,0.3794l-0.2061,1.5684
		C17.9414,3.8218,17.7266,4.0049,17.4795,4.0049z"/>
	<path d="M15.9277,22.6973c-0.0137,0-0.0273-0.001-0.041-0.002L1.6592,21.5449c-0.1357-0.0107-0.2612-0.0771-0.3472-0.1826
		c-0.0864-0.1055-0.1255-0.2422-0.1084-0.377l0.3184-2.5498c0.0347-0.2744,0.2798-0.4717,0.5581-0.4346
		c0.2739,0.0342,0.4683,0.2842,0.4341,0.5576l-0.2534,2.0322l13.209,1.0674l0.2627-3.2021c0.0225-0.2744,0.2695-0.4736,0.5391-0.457
		c0.2754,0.0225,0.4795,0.2637,0.457,0.5391l-0.3037,3.7002C16.4033,22.499,16.1846,22.6973,15.9277,22.6973z"/>
	<path d="M20.4941,18.9971h-20c-0.2764,0-0.5-0.2236-0.5-0.5v-15c0-0.2764,0.2236-0.5,0.5-0.5h20c0.2764,0,0.5,0.2236,0.5,0.5v15
		C20.9941,18.7734,20.7705,18.9971,20.4941,18.9971z M0.9941,17.9971h19v-14h-19V17.9971z"/>
	<path d="M7.062,14.8535c-1.1255,0-2.1987-0.4834-2.9443-1.3252c-0.7471-0.8438-1.0977-1.9668-0.9614-3.082
		C3.396,8.4761,5.0718,6.9902,7.0542,6.9902c0.3018,0,0.7148,0,0.9736,0.2925C8.166,7.439,8.2271,7.6479,8.1992,7.8711
		L7.9663,9.7842C9.791,8.9819,9.8267,8.9819,9.9976,8.9819c0.2134,0,0.4141,0.0942,0.5654,0.2651
		c0.4766,0.5381,0.4331,1.8535,0.3965,2.1504C10.7197,13.3682,9.0439,14.8535,7.062,14.8535z M7.0542,7.9902
		c-1.4775,0-2.7266,1.1079-2.9058,2.5771c-0.1011,0.8311,0.1606,1.6689,0.7178,2.2979c0.5562,0.6279,1.3564,0.9883,2.1958,0.9883
		c1.4771,0,2.7261-1.1074,2.9053-2.5771c0.0435-0.3579-0.0093-0.9546-0.0967-1.2378c-0.3403,0.1504-1.2988,0.5708-2.3052,1.0146
		C7.4019,11.1255,7.21,11.105,7.0659,10.9971c-0.1445-0.1069-0.2202-0.2832-0.1982-0.4619l0.3096-2.5439
		C7.1323,7.9902,7.0879,7.9902,7.0542,7.9902z"/>
	<path d="M17.4785,13.9971h-3.9707c-0.2764,0-0.5-0.2236-0.5-0.5s0.2236-0.5,0.5-0.5h3.9707c0.2764,0,0.5,0.2236,0.5,0.5
		S17.7549,13.9971,17.4785,13.9971z"/>
	<path d="M17.4785,10.9966h-3.9707c-0.2764,0-0.5-0.2236-0.5-0.5s0.2236-0.5,0.5-0.5h3.9707c0.2764,0,0.5,0.2236,0.5,0.5
		S17.7549,10.9966,17.4785,10.9966z"/>
	<path d="M17.4785,7.9966h-3.9707c-0.2764,0-0.5-0.2236-0.5-0.5s0.2236-0.5,0.5-0.5h3.9707c0.2764,0,0.5,0.2236,0.5,0.5
		S17.7549,7.9966,17.4785,7.9966z"/>
</g>
<rect x="-0.006" y="-0.003" fill="none" width="24" height="24"/>
</svg>
