<?xml version="1.0" encoding="utf-8"?>
<!-- Generator: Adobe Illustrator 18.1.0, SVG Export Plug-In . SVG Version: 6.00 Build 0)  -->
<svg version="1.1" id="Layer_1" xmlns="http://www.w3.org/2000/svg" xmlns:xlink="http://www.w3.org/1999/xlink" x="0px" y="0px"
	 width="24px" height="24px" viewBox="0 0 24 24" enable-background="new 0 0 24 24" xml:space="preserve">
<g>
	<path d="M22.835,24.0342H1.1934c-0.6504,0-1.1792-0.5283-1.1792-1.1787v-4.6426c0-0.6504,0.5288-1.1787,1.1792-1.1787H22.835
		c0.6504,0,1.1797,0.5283,1.1797,1.1787v4.6426C24.0146,23.5059,23.4854,24.0342,22.835,24.0342z M1.1934,18.0342
		c-0.0986,0-0.1792,0.0801-0.1792,0.1787v4.6426c0,0.0986,0.0806,0.1787,0.1792,0.1787H22.835c0.0986,0,0.1797-0.0801,0.1797-0.1787
		v-4.6426c0-0.0986-0.0811-0.1787-0.1797-0.1787H1.1934z"/>
	<path d="M22.3838,18.0342H1.6367c-0.2764,0-0.5-0.2236-0.5-0.5c0-6.7324,4.7759-12.0059,10.873-12.0059
		c6.0977,0,10.874,5.2734,10.874,12.0059C22.8838,17.8105,22.6602,18.0342,22.3838,18.0342z M2.1465,17.0342H21.874
		c-0.2266-5.9307-4.4775-10.5059-9.8643-10.5059C6.624,6.5283,2.373,11.1035,2.1465,17.0342z"/>
	<path d="M12.0098,6.5283c-1.3691,0-2.4834-1.1143-2.4834-2.4834c0-1.3696,1.1143-2.4839,2.4834-2.4839
		c1.3701,0,2.4844,1.1143,2.4844,2.4839C14.4941,5.4141,13.3799,6.5283,12.0098,6.5283z M12.0098,2.561
		c-0.8179,0-1.4834,0.6655-1.4834,1.4839c0,0.8179,0.6655,1.4834,1.4834,1.4834c0.8184,0,1.4844-0.6655,1.4844-1.4834
		C13.4941,3.2266,12.8281,2.561,12.0098,2.561z"/>
	<path d="M19.5137,22.0488c-0.2764,0-0.5-0.2236-0.5-0.5V19.499c0-0.2764,0.2236-0.5,0.5-0.5s0.5,0.2236,0.5,0.5v2.0498
		C20.0137,21.8252,19.79,22.0488,19.5137,22.0488z"/>
	<path d="M16.5137,22.0488c-0.2764,0-0.5-0.2236-0.5-0.5V19.499c0-0.2764,0.2236-0.5,0.5-0.5s0.5,0.2236,0.5,0.5v2.0498
		C17.0137,21.8252,16.79,22.0488,16.5137,22.0488z"/>
	<path d="M13.5137,22.0488c-0.2764,0-0.5-0.2236-0.5-0.5V19.499c0-0.2764,0.2236-0.5,0.5-0.5s0.5,0.2236,0.5,0.5v2.0498
		C14.0137,21.8252,13.79,22.0488,13.5137,22.0488z"/>
	<path d="M10.5132,22.0488c-0.2764,0-0.5-0.2236-0.5-0.5V19.499c0-0.2764,0.2236-0.5,0.5-0.5s0.5,0.2236,0.5,0.5v2.0498
		C11.0132,21.8252,10.7896,22.0488,10.5132,22.0488z"/>
	<path d="M7.5132,22.0488c-0.2764,0-0.5-0.2236-0.5-0.5V19.499c0-0.2764,0.2236-0.5,0.5-0.5s0.5,0.2236,0.5,0.5v2.0498
		C8.0132,21.8252,7.7896,22.0488,7.5132,22.0488z"/>
	<path d="M4.5132,22.0488c-0.2764,0-0.5-0.2236-0.5-0.5V19.499c0-0.2764,0.2236-0.5,0.5-0.5s0.5,0.2236,0.5,0.5v2.0498
		C5.0132,21.8252,4.7896,22.0488,4.5132,22.0488z"/>
</g>
<rect x="0.0142" y="0.0344" fill="none" width="24" height="24"/>
</svg>
