<?xml version="1.0" encoding="utf-8"?>
<!-- Generator: Adobe Illustrator 18.1.0, SVG Export Plug-In . SVG Version: 6.00 Build 0)  -->
<svg version="1.1" id="Layer_1" xmlns="http://www.w3.org/2000/svg" xmlns:xlink="http://www.w3.org/1999/xlink" x="0px" y="0px"
	 width="24px" height="24px" viewBox="0 0 24 24" enable-background="new 0 0 24 24" xml:space="preserve">
<g>
	<path d="M1.1904,17.9316c-0.6641,0-1.2041-0.5518-1.2041-1.2295V3.1274C-0.0137,2.4741,0.4907,2,1.186,2h18.5903
		c0.6777,0,1.208,0.5132,1.208,1.168c0,0.2764-0.2236,0.5-0.5,0.5s-0.5-0.2236-0.5-0.5c0-0.1631-0.1865-0.168-0.208-0.168H1.186
		C0.9863,3,0.9863,3.0957,0.9863,3.1274v13.5747c0,0.1221,0.0952,0.2295,0.2041,0.2295c0.2764,0,0.5,0.2236,0.5,0.5
		S1.4668,17.9316,1.1904,17.9316z"/>
	<path d="M22.7969,21H4.1763c-0.6562,0-1.1899-0.5342-1.1899-1.1904V6.1909C2.9863,5.5342,3.52,5,4.1763,5h18.6206
		c0.6562,0,1.1895,0.5342,1.1895,1.1909v13.6187C23.9863,20.4658,23.4531,21,22.7969,21z M4.1763,6
		C4.0718,6,3.9863,6.0854,3.9863,6.1909v13.6187C3.9863,19.915,4.0718,20,4.1763,20h18.6206c0.1045,0,0.1895-0.085,0.1895-0.1904
		V6.1909C22.9863,6.0854,22.9014,6,22.7969,6H4.1763z"/>
	<path d="M8.6665,13.2598c-1.2764,0-2.3149-1.0381-2.3149-2.3149c0-1.2764,1.0386-2.3149,2.3149-2.3149s2.3145,1.0386,2.3145,2.3149
		C10.981,12.2217,9.9429,13.2598,8.6665,13.2598z M8.6665,9.6299c-0.7251,0-1.3149,0.5898-1.3149,1.3149
		s0.5898,1.3149,1.3149,1.3149c0.7246,0,1.3145-0.5898,1.3145-1.3149S9.3911,9.6299,8.6665,9.6299z"/>
	<path d="M7.8159,21c-0.1001,0-0.2012-0.0303-0.2891-0.0918c-0.2251-0.1602-0.2778-0.4727-0.1182-0.6973l6.0112-8.4692
		c0.0928-0.1304,0.2432-0.209,0.4033-0.2104c0.1709-0.019,0.3115,0.0732,0.4062,0.2021l2.0537,2.7705l2.8057-4.4141
		c0.0898-0.1416,0.2451-0.229,0.4131-0.2319c0.1758-0.0044,0.3252,0.0786,0.4209,0.2168l3.9805,5.7886
		c0.1562,0.2275,0.0986,0.5391-0.1289,0.6953c-0.2266,0.1562-0.5391,0.0986-0.6953-0.1289l-3.5518-5.1655l-2.791,4.3901
		c-0.0879,0.1387-0.2393,0.2256-0.4043,0.2314c-0.165-0.0059-0.3213-0.0703-0.4189-0.2021l-2.0762-2.8008l-5.6128,7.9062
		C8.1265,20.9268,7.9727,21,7.8159,21z"/>
</g>
<rect x="-0.0137" y="0.0002" fill="none" width="24" height="24"/>
</svg>
