<?xml version="1.0" encoding="utf-8"?>
<!-- Generator: Adobe Illustrator 18.1.0, SVG Export Plug-In . SVG Version: 6.00 Build 0)  -->
<svg version="1.1" id="Layer_1" xmlns="http://www.w3.org/2000/svg" xmlns:xlink="http://www.w3.org/1999/xlink" x="0px" y="0px"
	 width="24px" height="24px" viewBox="0 0 24 24" enable-background="new 0 0 24 24" xml:space="preserve">
<g>
	<path d="M23.5,24h-23C0.2236,24,0,23.7764,0,23.5V10.4863c0-0.2764,0.2236-0.5,0.5-0.5h5c0.2764,0,0.5,0.2236,0.5,0.5
		s-0.2236,0.5-0.5,0.5H1V23h22V10.9878L18.501,11H18.5c-0.2754,0-0.499-0.2231-0.5-0.4985C17.999,10.2251,18.2227,10.001,18.499,10
		l5-0.0137H23.5c0.1328,0,0.2598,0.0522,0.3535,0.146S24,10.3535,24,10.4863V23.5C24,23.7764,23.7764,24,23.5,24z"/>
	<path d="M18.5,13.9678c-0.2764,0-0.5-0.2236-0.5-0.5V6.4019L15.625,4H6.062L6,13.4678c0,0.2764-0.2236,0.5-0.5,0.5
		s-0.5-0.2236-0.5-0.5V4.0332C5,3.4443,5.4565,3,6.062,3h9.5132c0.3008,0,0.5615,0.1001,0.7539,0.2891l2.3789,2.3599
		C18.9014,5.8413,19,6.0947,19,6.4019v7.0659C19,13.7441,18.7764,13.9678,18.5,13.9678z"/>
	<path d="M10.5,11.9478c-1.355,0-2.5-1.1094-2.5-2.4229V6.5C8,6.2236,8.2236,6,8.5,6S9,6.2236,9,6.5v3.0249
		c0,0.7715,0.687,1.4229,1.5,1.4229S12,10.2964,12,9.5249V2.0928c0-0.502-0.4673-0.9419-1-0.9419s-1,0.4404-1,0.9424V3.5
		C10,3.7764,9.7764,4,9.5,4S9,3.7764,9,3.5V2.0933c0-1.0527,0.916-1.9424,2-1.9424s2,0.8892,2,1.9419v7.4321
		C13,10.8384,11.855,11.9478,10.5,11.9478z"/>
	<path d="M18.5,7h-3.0078c-0.2764,0-0.5-0.2236-0.5-0.5v-3c0-0.2764,0.2236-0.5,0.5-0.5s0.5,0.2236,0.5,0.5V6H18.5
		C18.7764,6,19,6.2236,19,6.5S18.7764,7,18.5,7z"/>
	<path d="M11.981,17.8896c-0.0894,0-0.1782-0.0234-0.2578-0.0713L0.2422,10.915c-0.2363-0.1426-0.313-0.4497-0.1709-0.6865
		c0.1426-0.2368,0.4497-0.313,0.6865-0.1709l11.2236,6.749l11.2617-6.749c0.2344-0.1421,0.543-0.0659,0.6855,0.1719
		c0.1426,0.2368,0.0654,0.5439-0.1719,0.6855l-11.5186,6.9033C12.1592,17.8662,12.0703,17.8896,11.981,17.8896z"/>
</g>
<rect fill="none" width="24" height="24"/>
</svg>
