<?xml version="1.0" encoding="utf-8"?>
<!-- Generator: Adobe Illustrator 18.1.0, SVG Export Plug-In . SVG Version: 6.00 Build 0)  -->
<svg version="1.1" id="Layer_1" xmlns="http://www.w3.org/2000/svg" xmlns:xlink="http://www.w3.org/1999/xlink" x="0px" y="0px"
	 width="24px" height="24px" viewBox="0 0 24 24" enable-background="new 0 0 24 24" xml:space="preserve">
<g>
	<path d="M8.4707,23.8848c-0.1084,0-0.2153-0.0352-0.3037-0.1025c-0.1235-0.0947-0.1963-0.2412-0.1963-0.3975V7.2563
		c0-0.2256,0.1509-0.4233,0.3687-0.4824l12.0259-3.2778c0.1533-0.04,0.3125-0.0093,0.4355,0.085
		c0.124,0.0947,0.1963,0.2417,0.1963,0.3975v16.1289c0,0.2256-0.1514,0.4229-0.3682,0.4824L8.6021,23.8672
		C8.5591,23.8789,8.5146,23.8848,8.4707,23.8848z M8.9707,7.6382v15.0923l11.0264-3.0049V4.6328L8.9707,7.6382z"/>
	<path d="M5.4751,6.6387c-0.2163,0-0.416-0.1416-0.48-0.3594c-0.0776-0.2651,0.0742-0.543,0.3394-0.6206L16.9082,2.269
		c0.2666-0.0791,0.543,0.0752,0.6201,0.3394c0.0781,0.2651-0.0742,0.543-0.3389,0.6206L5.6157,6.6187
		C5.5688,6.6323,5.5215,6.6387,5.4751,6.6387z"/>
	<path d="M4.4775,4.7041c-0.2158,0-0.415-0.1406-0.4795-0.3579c-0.0786-0.2646,0.0728-0.543,0.3374-0.6216l12.0933-3.5889
		c0.1768-0.0518,0.373-0.002,0.5029,0.1328s0.1729,0.3301,0.1133,0.5073c-0.0078,0.0239-0.2129,0.6919,0.2188,1.3442
		c0.4863,0.7344,1.623,1.2051,3.2871,1.3604c0.2744,0.0259,0.4766,0.2695,0.4512,0.5444c-0.0264,0.2754-0.2598,0.478-0.5449,0.4517
		c-2.0186-0.189-3.3779-0.8032-4.041-1.8257c-0.3076-0.4746-0.4072-0.9536-0.4219-1.3428L4.6196,4.6836
		C4.5723,4.6978,4.5244,4.7041,4.4775,4.7041z"/>
	<path d="M8.5425,23.8848c-0.0137,0-0.0273-0.001-0.0415-0.002c-4.4478-0.3652-4.5054-3.8467-4.5054-3.8818L3.9775,4.2046
		c-0.0005-0.2759,0.2231-0.5,0.4995-0.5005h0.0005c0.2759,0,0.4995,0.2236,0.5,0.4995L4.9956,19.999
		c0.0015,0.1035,0.0781,2.5986,3.5874,2.8877c0.2754,0.0225,0.48,0.2637,0.4575,0.5391C9.019,23.6865,8.8003,23.8848,8.5425,23.8848
		z"/>
	<path d="M8.5425,7.7563c-0.0137,0-0.0273-0.0005-0.0415-0.0015C4.0562,7.3892,3.978,4.2402,3.9775,4.2085
		c-0.0024-0.2764,0.2197-0.502,0.4956-0.5044c0.292-0.0366,0.4995,0.2173,0.5044,0.4912C4.98,4.29,5.0811,6.4697,8.583,6.7578
		c0.2754,0.0229,0.48,0.2642,0.4575,0.5396C9.019,7.5586,8.8003,7.7563,8.5425,7.7563z"/>
</g>
<rect fill="none" width="24" height="24"/>
</svg>
