<?xml version="1.0" encoding="utf-8"?>
<!-- Generator: Adobe Illustrator 18.1.1, SVG Export Plug-In . SVG Version: 6.00 Build 0)  -->
<svg version="1.1" id="Layer_1" xmlns="http://www.w3.org/2000/svg" xmlns:xlink="http://www.w3.org/1999/xlink" x="0px" y="0px"
	 width="24px" height="24px" viewBox="0 0 24 24" enable-background="new 0 0 24 24" xml:space="preserve">
<rect fill="none" width="24" height="24"/>
<path d="M22.415,16.9961c-0.7295,0.127-3.2334,0.6006-4.8164,1.4072c-0.538,0.274-1.1252,0.493-1.6942,0.6689
	c0.0178-0.1071,0.0291-0.2128,0.0291-0.3135c0-0.4975-0.2338-0.9451-0.6053-1.2654c0.4155-0.3668,0.6834-0.8971,0.6834-1.4934
	c0-0.6-0.2714-1.1331-0.6914-1.5c0.42-0.3669,0.6914-0.9,0.6914-1.5c0-1.103-0.8975-2-2-2h-1.5h-2.5h-7c-0.5513,0-1-0.4487-1-1
	s0.4487-1,1-1h8.0793c0.0129,0.3611,0.1576,0.7002,0.4631,0.9658c0.3716,0.3232,0.8882,0.4863,1.3882,0.4863
	c0.3926,0,0.7754-0.1011,1.0684-0.3047c0.2812-0.1426,1.5225-0.793,2.1895-1.5327c0.5498,0.3228,1.5869,0.9009,2.6152,1.312
	c0.2559,0.1025,0.5469-0.022,0.6494-0.2788c0.1025-0.2563-0.0215-0.5474-0.2783-0.6499c-1.3809-0.5518-2.8389-1.4614-2.8535-1.4707
	c-0.1182-0.0737-0.2607-0.0962-0.3984-0.0581c-0.1348,0.0371-0.248,0.1289-0.3115,0.2534
	c-0.2344,0.4551-1.3477,1.1699-2.1211,1.5664c-0.3779,0.2593-1.0039,0.1714-1.291-0.0776
	c-0.1582-0.1372-0.1797-0.2788-0.0869-0.4658c0.0068-0.0122,0.707-1.2451,2.0195-2.9023c0.3535-0.4043,3.4141-0.7827,4.7861,0.0464
	c0.4814,0.6279,2.3145,2.9111,3.5273,3.0195C22.7285,8.9336,22.9746,8.731,23,8.4556c0.0244-0.2749-0.1787-0.5181-0.4531-0.5425
	c-0.5488-0.0488-1.9199-1.4395-2.876-2.7002c-0.0342-0.0449-0.0752-0.0835-0.123-0.1147c-1.6055-1.0625-5.4326-0.8291-6.1865,0.123
	C12.342,6.5069,11.6884,7.5303,11.4039,8H3.0117c-1.103,0-2,0.897-2,2s0.897,2,2,2h5.2781c-0.1722,0.2953-0.2781,0.6341-0.2781,1
	c0,0.8716,0.5641,1.6072,1.3439,1.8804C9.1387,15.2002,9.0117,15.5855,9.0117,16c0,1.1025,0.897,2,2,2H11.29
	c-0.1723,0.2954-0.2783,0.6342-0.2783,1c0,1.0244,0.8003,1.6875,2.0928,1.6875c0.0029,0,0.0059,0,0.0088,0
	c0.1143-0.0127,2.8174-0.3135,4.9385-1.3936c1.1592-0.5898,3.1016-1.0645,4.5332-1.3115c0.2725-0.0479,0.4551-0.3066,0.4082-0.5781
	C22.9453,17.1318,22.6816,16.9502,22.415,16.9961z M9.0117,13c0-0.5518,0.4487-1,1-1h2.5h1.5c0.5518,0,1,0.4482,1,1s-0.4482,1-1,1
	h-1.5h-1.5h-1C9.4604,14,9.0117,13.5518,9.0117,13z M10.0117,16c0-0.5518,0.4487-1,1-1h1.5h1.5c0.5518,0,1,0.4482,1,1s-0.4482,1-1,1
	h-0.0391h-0.9609h-0.5h-1.5C10.4604,17,10.0117,16.5518,10.0117,16z M13.0596,19.6904c-0.3916,0-1.0479-0.0898-1.0479-0.6904
	c0-0.5518,0.4482-1,1-1h0.9609c0.5303,0,0.9609,0.3408,0.9609,0.7588c0,0.2812-0.0684,0.5967-0.8838,0.7705
	c-0.0008,0.0002-0.0013,0.0007-0.0021,0.0009C13.4464,19.6446,13.0488,19.6904,13.0596,19.6904z"/>
</svg>
