<?xml version="1.0" encoding="utf-8"?>
<!-- Generator: Adobe Illustrator 18.1.1, SVG Export Plug-In . SVG Version: 6.00 Build 0)  -->
<svg version="1.1" id="Layer_1" xmlns="http://www.w3.org/2000/svg" xmlns:xlink="http://www.w3.org/1999/xlink" x="0px" y="0px"
	 width="24px" height="24px" viewBox="0 0 24 24" enable-background="new 0 0 24 24" xml:space="preserve">
<rect fill="none" width="24" height="24"/>
<g>
	<path d="M10,2C7.8325,2,6.0688,3.7637,6.0688,5.9312c0,0.2764,0.2236,0.5,0.5,0.5s0.5-0.2236,0.5-0.5C7.0688,4.3149,8.3838,3,10,3
		c1.6167,0,2.9316,1.3149,2.9316,2.9312c0,0.2764,0.2236,0.5,0.5,0.5s0.5-0.2236,0.5-0.5C13.9316,3.7637,12.168,2,10,2z"/>
	<path d="M4.5581,6.4419c0.2764,0,0.5-0.2236,0.5-0.5C5.0581,3.2168,7.2749,1,10,1c2.7246,0,4.9414,2.2168,4.9414,4.9419
		c0,0.2764,0.2236,0.5,0.5,0.5s0.5-0.2236,0.5-0.5C15.9414,2.6655,13.2764,0,10,0S4.0581,2.6655,4.0581,5.9419
		C4.0581,6.2183,4.2817,6.4419,4.5581,6.4419z"/>
	<path d="M19,13c-0.3658,0-0.7046,0.106-1,0.2783V13c0-1.103-0.8975-2-2-2c-0.4145,0-0.7998,0.127-1.1196,0.3439
		C14.6072,10.5641,13.8716,10,13,10c-0.3659,0-0.7047,0.1059-1,0.2781V6c0-1.103-0.897-2-2-2S8,4.897,8,6v9.6688l-1.9609-3.3221
		c-0.4248-0.6694-1.3223-0.8862-2.0903-0.498c-0.6543,0.3291-1.1387,1.1201-0.75,2.1348c0.0776,0.2168,1.9209,5.3447,4.2788,8.085
		c0.0073,0.0059,0.7261,0.6475,1.1138,1.5889c0.0796,0.1934,0.2661,0.3096,0.4624,0.3096c0.0635,0,0.1279-0.0117,0.1904-0.0381
		c0.2554-0.1045,0.377-0.3975,0.272-0.6523c-0.4702-1.1416-1.3218-1.9092-1.3281-1.9092c0,0,0,0,0,0.001
		C6,18.8184,4.1592,13.6992,4.1367,13.6367c-0.2134-0.5576,0.0723-0.7998,0.2612-0.8945c0.2642-0.1338,0.6348-0.1162,0.79,0.1299
		l2.8804,4.8809c0.0106,0.0179,0.0278,0.0284,0.0402,0.0445c0.0217,0.0284,0.0433,0.0549,0.0704,0.0782
		c0.0222,0.0187,0.0454,0.0328,0.0701,0.0472c0.0309,0.0184,0.0615,0.0345,0.0963,0.046c0.0278,0.0091,0.0555,0.0128,0.0845,0.017
		C8.4538,17.9893,8.4751,18,8.5,18c0.0128,0,0.0234-0.0063,0.0359-0.0073c0.0293-0.002,0.0571-0.0101,0.0861-0.0173
		c0.0353-0.0091,0.0693-0.0176,0.1011-0.0338c0.0097-0.0048,0.0204-0.0045,0.0298-0.0099c0.0185-0.0109,0.0294-0.0283,0.046-0.0411
		c0.0273-0.0209,0.0528-0.0414,0.0753-0.0673c0.0212-0.0247,0.0372-0.0508,0.053-0.0787c0.0158-0.0275,0.0302-0.0542,0.0406-0.0847
		c0.0112-0.033,0.0161-0.0659,0.0203-0.1006C8.9905,17.5389,9,17.521,9,17.5V6c0-0.5513,0.4487-1,1-1s1,0.4487,1,1v6v1.5
		c0,0.2764,0.2236,0.5,0.5,0.5s0.5-0.2236,0.5-0.5V12c0-0.5513,0.4482-1,1-1s1,0.4487,1,1v1v1.5c0,0.2764,0.2236,0.5,0.5,0.5
		s0.5-0.2236,0.5-0.5V13c0-0.5518,0.4482-1,1-1s1,0.4482,1,1v2v0.5c0,0.2764,0.2236,0.5,0.5,0.5s0.5-0.2236,0.5-0.5V15
		c0-0.5518,0.4482-1,1-1c0.6006,0,0.6904,0.6562,0.6934,0.9941c-0.0029,0.0264-0.2949,2.6387-1.29,4.5928
		c-0.7715,1.5146-1.1191,2.8994-1.2744,3.7939c-0.0479,0.2725,0.1348,0.5312,0.4062,0.5781
		c0.0293,0.0059,0.0576,0.0078,0.0869,0.0078c0.2383,0,0.4492-0.1709,0.4912-0.4141c0.1445-0.8271,0.4658-2.1084,1.1807-3.5127
		c1.0801-2.1211,1.3809-4.8242,1.3965-4.9922C20.6904,13.8037,20.0273,13,19,13z"/>
</g>
</svg>
