<?xml version="1.0" encoding="utf-8"?>
<!-- Generator: Adobe Illustrator 18.1.0, SVG Export Plug-In . SVG Version: 6.00 Build 0)  -->
<svg version="1.1" id="Layer_1" xmlns="http://www.w3.org/2000/svg" xmlns:xlink="http://www.w3.org/1999/xlink" x="0px" y="0px"
	 width="24px" height="24px" viewBox="0 0 24 24" enable-background="new 0 0 24 24" xml:space="preserve">
<g>
	<path d="M8.5093,10H3.5151c-0.2764,0-0.5-0.2236-0.5-0.5S3.2388,9,3.5151,9h4.9941c0.2764,0,0.5,0.2236,0.5,0.5
		S8.7856,10,8.5093,10z"/>
	<path d="M8.5093,13H3.5151c-0.2764,0-0.5-0.2236-0.5-0.5s0.2236-0.5,0.5-0.5h4.9941c0.2764,0,0.5,0.2236,0.5,0.5
		S8.7856,13,8.5093,13z"/>
	<path d="M8.5093,16H3.5151c-0.2764,0-0.5-0.2236-0.5-0.5s0.2236-0.5,0.5-0.5h4.9941c0.2764,0,0.5,0.2236,0.5,0.5
		S8.7856,16,8.5093,16z"/>
	<path d="M11.5,21.2314c-0.0464,0-0.0933-0.0068-0.1387-0.0195c-0.873-0.252-3.1279-0.4355-5.3618-0.4355
		c-1.9683,0-3.3188,0.1455-5.4282,0.4502c-0.1396,0.0176-0.2891-0.0225-0.3984-0.1172C0.063,21.0146,0,20.877,0,20.7314V5.8599
		c0-1.4995,3.0132-2.1704,5.9995-2.1704C8.9863,3.6895,12,4.3604,12,5.8599v14.8716c0,0.1572-0.0737,0.3057-0.1997,0.3994
		C11.7129,21.1973,11.6069,21.2314,11.5,21.2314z M5.9995,4.6895C2.7012,4.6895,1,5.5098,1,5.8599v14.2954
		c1.8433-0.2559,3.1548-0.3789,4.9995-0.3789c1.6196,0,3.707,0.1055,5.0005,0.333V5.8599C11,5.5098,9.2988,4.6895,5.9995,4.6895z"/>
	<path d="M11.5,21.2314c-0.1235,0-0.2437-0.0459-0.3359-0.1299C11.0596,21.0068,11,20.8721,11,20.7314V5.8599
		c0-1.1914,1.8623-1.7231,3.4248-1.9595c0.2734-0.0371,0.5283,0.1465,0.5693,0.4194c0.042,0.2729-0.1465,0.5278-0.4189,0.5688
		C12.6104,5.186,12,5.7046,12,5.8599v14.3198c0.498-0.0488,0.9346-0.0947,1.3291-0.1357c1.6611-0.1729,2.5752-0.2676,4.1709-0.2676
		c1.7949,0,3.5576,0.1211,5.5,0.3809V5.8599c-0.0264-0.1514-0.6875-0.6675-2.5791-0.9717c-0.2725-0.0439-0.458-0.3003-0.4141-0.5732
		c0.043-0.2725,0.3018-0.4575,0.5723-0.4141C21.8564,4.1064,24,4.6343,24,5.8599v14.8716c0,0.1455-0.0635,0.2832-0.1729,0.3779
		s-0.2529,0.1357-0.3984,0.1172c-2.124-0.3076-4.0078-0.4502-5.9287-0.4502c-1.5439,0-2.4404,0.0928-4.0674,0.2627
		c-0.5342,0.0557-1.1465,0.1191-1.8848,0.1904C11.5317,21.2305,11.5161,21.2314,11.5,21.2314z"/>
	<path d="M15.0264,14.4365c-0.2295,0-0.457-0.0703-0.6416-0.1973C14.1406,14.0703,14,13.8164,14,13.543V2.5
		C14,2.2236,14.2236,2,14.5,2h6C20.7764,2,21,2.2236,21,2.5v11.0322c0,0.4922-0.4443,0.8936-0.9912,0.8936
		c-0.2314,0-0.4492-0.0781-0.6123-0.2207l-1.8447-1.5596l-1.9258,1.5889C15.4805,14.3594,15.2617,14.4365,15.0264,14.4365z
		 M15,13.4287c0.0146,0.0039,0.0264,0.0078,0.0264,0.0078l0.0098-0.001l1.9834-1.5679c0.293-0.2515,0.8604-0.2637,1.1836,0.0195
		L20,13.4053V3h-5V13.4287z"/>
</g>
<rect fill="none" width="24" height="24"/>
</svg>
