<?xml version="1.0" encoding="utf-8"?>
<!-- Generator: Adobe Illustrator 18.1.0, SVG Export Plug-In . SVG Version: 6.00 Build 0)  -->
<svg version="1.1" id="Layer_1" xmlns="http://www.w3.org/2000/svg" xmlns:xlink="http://www.w3.org/1999/xlink" x="0px" y="0px"
	 width="24px" height="24px" viewBox="0 0 24 24" enable-background="new 0 0 24 24" xml:space="preserve">
<g>
	<path d="M18.3047,20.0273H5.7832c-2.5352-0.0049-4.6196-1.5889-5.3115-4.0352c-0.665-2.3525,0.1846-4.7002,2.1685-6.063
		C2.6177,8.3818,3.1577,6.9473,4.1782,5.8638c1.1201-1.1895,2.7109-1.8721,4.3652-1.8721c1.7598,0,3.332,0.7568,4.4575,2.1372
		c2.3682-0.1709,4.3701,1.0649,5.1709,3.1006c0.0459-0.001,0.0908-0.0015,0.1357-0.0015c2.9766,0,5.3975,2.4224,5.3975,5.3999
		S21.2822,20.0273,18.3047,20.0273z M8.5435,4.9917c-1.3794,0-2.7056,0.5679-3.6372,1.5576
		C4.2739,7.2207,3.543,8.3926,3.6494,10.1631c0.0112,0.1841-0.0796,0.3589-0.2363,0.4556c-2.1499,1.3271-2.4097,3.5776-1.979,5.1021
		c0.4307,1.5225,1.8281,3.3018,4.3501,3.3066h12.5205c2.4268,0,4.4004-1.9736,4.4004-4.3994c0-2.5693-2.2119-4.6265-4.832-4.3789
		c-0.2344,0.0234-0.4561-0.1245-0.5264-0.3511c-0.4492-1.4663-1.9248-3.0439-4.5156-2.7495
		c-0.1758,0.0205-0.3516-0.0557-0.458-0.1978C11.4326,5.6875,10.0728,4.9917,8.5435,4.9917z"/>
	<path d="M9.5171,16.5713c-0.2764,0-0.5-0.2236-0.5-0.5v-5.5576c0-0.2358,0.1646-0.4395,0.395-0.4888l4.959-1.0659
		c0.1475-0.0312,0.3018,0.0049,0.4199,0.0996c0.1172,0.0952,0.1855,0.2383,0.1855,0.3892v5.5571c0,0.2764-0.2236,0.5-0.5,0.5
		s-0.5-0.2236-0.5-0.5v-4.9385l-3.9595,0.8511v5.1538C10.0171,16.3477,9.7935,16.5713,9.5171,16.5713z"/>
	<path d="M8.1304,17.9521c-0.7046,0-1.2891-0.3965-1.4546-0.9873c-0.2188-0.7793,0.3296-1.6211,1.248-1.917
		c0.9038-0.2891,1.8608,0.125,2.0747,0.8887c0.2183,0.7783-0.3296,1.6201-1.248,1.916C8.5459,17.9189,8.3374,17.9521,8.1304,17.9521
		z M8.5425,15.9492C8.4399,15.9492,8.335,15.9658,8.23,16c-0.4126,0.1328-0.6528,0.4766-0.5913,0.6953
		c0.061,0.2168,0.4448,0.3203,0.8052,0.2061c0.4131-0.1338,0.6528-0.4766,0.5918-0.6953
		C8.9927,16.0527,8.7944,15.9492,8.5425,15.9492z"/>
	<path d="M13.0908,16.877c-0.7051,0-1.2896-0.3965-1.4551-0.9873c-0.2183-0.7803,0.3306-1.6221,1.25-1.917
		c0.8926-0.2881,1.8584,0.124,2.0732,0.8887c0.2188,0.7793-0.3301,1.6221-1.249,1.917
		C13.5068,16.8438,13.2979,16.877,13.0908,16.877z M13.5049,14.874c-0.1035,0-0.208,0.0176-0.3135,0.0508
		c-0.4141,0.1328-0.6543,0.4766-0.5928,0.6953c0.0605,0.2158,0.4414,0.3203,0.8057,0.2061
		c0.4131-0.1328,0.6533-0.4766,0.5918-0.6953C13.9531,14.9775,13.7559,14.874,13.5049,14.874z"/>
</g>
<rect x="-0.0136" y="0.0002" fill="none" width="24" height="24"/>
</svg>
