<?xml version="1.0" encoding="utf-8"?>
<!-- Generator: Adobe Illustrator 18.1.0, SVG Export Plug-In . SVG Version: 6.00 Build 0)  -->
<svg version="1.1" id="Layer_1" xmlns="http://www.w3.org/2000/svg" xmlns:xlink="http://www.w3.org/1999/xlink" x="0px" y="0px"
	 width="24px" height="24px" viewBox="0 0 24 24" enable-background="new 0 0 24 24" xml:space="preserve">
<g>
	<path d="M15.3994,23.4297c-0.2734,0-0.5498-0.0244-0.8281-0.0742c-1.1387-0.2041-2.1719-0.8711-2.9092-1.877
		c-0.1631-0.2236-0.1147-0.5361,0.1079-0.6992c0.2217-0.1631,0.5356-0.1152,0.6987,0.1074c0.585,0.7988,1.3945,1.3252,2.2793,1.4844
		c0.9668,0.1719,1.9355-0.0391,2.7383-0.5967c0.8027-0.5586,1.3408-1.3955,1.5137-2.3584c0.3564-1.9863-0.9688-3.8936-2.9561-4.251
		c-1.5176-0.2773-3.0596,0.4609-3.833,1.8242c-0.1357,0.2402-0.4414,0.3271-0.6812,0.1875
		c-0.2402-0.1357-0.3247-0.4414-0.1885-0.6816c0.9819-1.7305,2.9419-2.667,4.8794-2.3145c2.5303,0.4551,4.2178,2.8838,3.7637,5.4131
		C19.5791,21.8447,17.6104,23.4297,15.3994,23.4297z"/>
	<path d="M8.4121,23.8506c-2.5703,0-4.6611-2.0908-4.6611-4.6611c0-2.5693,2.0908-4.6602,4.6611-4.6602s4.6611,2.0908,4.6611,4.6602
		C13.0732,21.7598,10.9824,23.8506,8.4121,23.8506z M8.4121,15.5293c-2.0186,0-3.6611,1.6416-3.6611,3.6602
		s1.6426,3.6611,3.6611,3.6611s3.6611-1.6426,3.6611-3.6611S10.4307,15.5293,8.4121,15.5293z"/>
	<path d="M14.7168,15.1689c-0.1934,0-0.377-0.1123-0.459-0.3008L11.75,9.0903l-1.9634,4.353
		c-0.1128,0.251-0.4062,0.3652-0.6611,0.25c-0.252-0.1143-0.3638-0.4102-0.25-0.6621l2.4277-5.3818
		c0.0806-0.1792,0.2593-0.2944,0.4556-0.2944c0.001,0,0.0024,0,0.0034,0c0.1982,0.0015,0.3765,0.1191,0.4556,0.3008l2.958,6.814
		c0.1094,0.2539-0.0068,0.5479-0.2598,0.6582C14.8506,15.1553,14.7832,15.1689,14.7168,15.1689z"/>
	<path d="M15.332,9.5518c-1.0977,0-2.376-0.3882-3.7974-1.1543c-0.1387-0.0747-0.2344-0.2104-0.2573-0.3667
		c-0.0088-0.061-0.7993-6.1187,8.1377-7.6748c0.1377-0.0234,0.2812,0.0117,0.3926,0.0977s0.1807,0.2153,0.1914,0.3555
		c0.0166,0.2095,0.3818,5.1528-1.7949,7.5098C17.4482,9.1372,16.4814,9.5518,15.332,9.5518z M12.251,7.6445
		c2.3496,1.2051,4.085,1.2227,5.2178-0.0029c1.4912-1.6133,1.584-4.8848,1.5566-6.1938C12.5791,2.7783,12.2295,6.6421,12.251,7.6445
		z"/>
	<path d="M11.791,8.3208c-0.0708,0-0.1431-0.0151-0.2119-0.0474c-0.25-0.1172-0.3574-0.415-0.2402-0.665
		c0.0386-0.0825,0.9688-2.0269,2.7363-2.6323c1.4883-0.5098,2.8896-1.6182,2.9033-1.6294c0.2158-0.1709,0.5303-0.1362,0.7021,0.0796
		c0.1729,0.2158,0.1367,0.5308-0.0791,0.7026c-0.0625,0.0498-1.5527,1.228-3.2021,1.7935
		c-1.3721,0.4692-2.1475,2.0947-2.1553,2.1108C12.1592,8.2144,11.979,8.3208,11.791,8.3208z"/>
	<path d="M9.2012,9.3359c0,0,0,0-0.0005,0c-3.2822,0-4.02-4.8599-4.0503-5.0669c-0.0195-0.1377,0.019-0.2778,0.1069-0.3857
		C5.3447,3.7749,5.4741,3.708,5.6128,3.6987c0.0005,0.002,3.7944-0.2622,5.6494,1.6079c0.6694,0.6748,1.0044,1.5337,0.9966,2.5522
		c-0.001,0.1621-0.0811,0.3135-0.2139,0.4062C11.0273,8.9756,10.0703,9.3359,9.2012,9.3359z M6.2534,4.688
		c0.27,1.147,1.0737,3.6479,2.9473,3.6479c0.0005,0,0.0005,0,0.0005,0c0.6025,0,1.2915-0.2495,2.0503-0.7417
		c-0.0439-0.6348-0.2739-1.1543-0.6992-1.5835C9.4297,4.8794,7.2822,4.7036,6.2534,4.688z"/>
</g>
<rect y="0.0346" fill="none" width="24" height="24"/>
</svg>
