<?xml version="1.0" encoding="utf-8"?>
<!-- Generator: Adobe Illustrator 18.1.0, SVG Export Plug-In . SVG Version: 6.00 Build 0)  -->
<svg version="1.1" id="Layer_1" xmlns="http://www.w3.org/2000/svg" xmlns:xlink="http://www.w3.org/1999/xlink" x="0px" y="0px"
	 width="24px" height="24px" viewBox="0 0 24 24" enable-background="new 0 0 24 24" xml:space="preserve">
<g>
	<path d="M10.6968,11.9653c-1.6372,0-3.5171-0.0381-4.0264-0.1226c-3.123-0.5171-4.7524-1.6685-4.8438-3.4214
		C1.6641,5.2827,7.0088,1.4521,8.6812,0.9932c0.8467-0.2324,2.3091-0.6343,4.0454-0.6343c3.0918,0,5.6953,1.2466,7.7383,3.7051
		c1.6621,2.0005,2.2842,3.5879,1.9023,4.853c-0.4775,1.5806-2.3408,2.1392-3.7021,2.5474
		C17.1133,11.9302,12.1748,11.9653,10.6968,11.9653z M12.7266,1.3589c-1.6016,0-2.9795,0.3784-3.7197,0.582
		C7.478,2.3604,2.6978,5.9092,2.8252,8.3696c0.0791,1.5195,2.2236,2.1909,4.0088,2.4868c0.3184,0.0527,1.7798,0.1089,3.8628,0.1089
		c3.7378,0,6.7368-0.1753,7.6401-0.4468c1.1846-0.355,2.751-0.8242,3.0732-1.8906c0.2734-0.9062-0.3037-2.2266-1.7148-3.9253
		C17.8516,2.4839,15.5068,1.3589,12.7266,1.3589z"/>
	<path d="M10.8721,9.1479c-3.9585,0-5.5518-0.7549-5.6221-0.7891C5.002,8.2378,4.8994,7.9385,5.0205,7.6899
		c0.1206-0.2471,0.4175-0.3506,0.666-0.231l0,0c0.0161,0.0078,1.7041,0.7842,5.9492,0.6797
		c0.2822-0.0005,0.5059,0.2119,0.5117,0.4878c0.0068,0.2764-0.2114,0.5054-0.4873,0.5122
		C11.3877,9.145,11.125,9.1479,10.8721,9.1479z"/>
	<path d="M8.3003,23.9854c-0.0732,0-0.1475-0.0156-0.2173-0.0498c-0.2485-0.1211-0.3525-0.4199-0.2324-0.668
		C8.9131,21.0752,9.7607,13.249,9.769,13.1699c0.0288-0.2734,0.2705-0.4756,0.5503-0.4434
		c0.2744,0.0293,0.4731,0.2754,0.4438,0.5508c-0.0352,0.3281-0.8755,8.0791-2.0122,10.4258
		C8.6646,23.8818,8.4858,23.9854,8.3003,23.9854z"/>
	<path d="M16.8467,22.0361c-0.1172,0-0.2354-0.041-0.3301-0.124c-1.9863-1.7451-2.8506-7.9629-2.9434-8.667
		c-0.0352-0.2734,0.1572-0.5244,0.4316-0.5605c0.2549-0.0361,0.5244,0.1562,0.5605,0.4307c0.2363,1.8086,1.168,6.7773,2.6113,8.0449
		c0.207,0.1826,0.2275,0.498,0.0459,0.7061C17.123,21.9785,16.9854,22.0361,16.8467,22.0361z"/>
	<path d="M23.2529,23.9854H0.6562c-0.2764,0-0.5-0.2236-0.5-0.5s0.2236-0.5,0.5-0.5h22.5967c0.2764,0,0.5,0.2236,0.5,0.5
		S23.5293,23.9854,23.2529,23.9854z"/>
	<path d="M15.5898,23.9854c-0.1221,0-0.2441-0.0449-0.3408-0.1348c-0.2012-0.1875-0.2129-0.5039-0.0254-0.7061
		c0.0205-0.0215,1.9736-2.1562,1.6826-4.6543c-0.0312-0.2744,0.165-0.5225,0.4395-0.5547c0.2656-0.0273,0.5215,0.165,0.5547,0.4395
		c0.3447,2.9648-1.8516,5.3516-1.9453,5.4521C15.8564,23.9316,15.7236,23.9854,15.5898,23.9854z"/>
	<path d="M18.2041,23.9854c-0.1592,0-0.3164-0.0762-0.4131-0.2188c-0.1553-0.2275-0.0967-0.5381,0.1309-0.6943
		c0.0703-0.0479,1.4531-1.0361,1.0527-2.6182c-0.0684-0.2676,0.0938-0.54,0.3613-0.6074c0.2676-0.0723,0.54,0.0938,0.6074,0.3613
		c0.5771,2.2754-1.375,3.6338-1.458,3.6904C18.3994,23.957,18.3018,23.9854,18.2041,23.9854z"/>
	<path d="M5.0757,23.9854c-0.2173,0-0.417-0.1426-0.48-0.3623c-0.0762-0.2646,0.0771-0.542,0.3423-0.6182
		c0.3237-0.0928,0.8057-1.623,0.9414-3.4561c0.019-0.2559,0.229-0.4561,0.4863-0.4629c0.2705,0.0234,0.4775,0.1836,0.5083,0.4385
		l0.4824,3.8994c0.0342,0.2744-0.1606,0.5234-0.4346,0.5576c-0.2754,0.0371-0.5239-0.1611-0.5576-0.4346l-0.1001-0.8066
		c-0.2451,0.6113-0.5835,1.0918-1.0498,1.2256C5.168,23.9795,5.1216,23.9854,5.0757,23.9854z"/>
	<path d="M2.7461,23.9854c-0.1377,0-0.2749-0.0566-0.3735-0.168c-0.1836-0.2051-0.1655-0.5215,0.0396-0.7051
		c0.2637-0.2363,0.9194-0.9834,0.7876-1.5918C3.1416,21.251,3.313,20.9844,3.583,20.9268c0.2646-0.0566,0.5361,0.1133,0.5942,0.3828
		c0.2773,1.2822-0.9585,2.4238-1.1001,2.5498C2.9819,23.9434,2.8638,23.9854,2.7461,23.9854z"/>
	<path d="M21.3701,23.9854c-0.1699,0-0.335-0.0869-0.4287-0.2432c-0.1299-0.2168-0.7754-1.3408-0.708-2.1367
		c0.0234-0.2754,0.2676-0.4707,0.54-0.4561c0.2754,0.0225,0.4795,0.2646,0.4561,0.54c-0.0293,0.3555,0.3154,1.1143,0.5693,1.5391
		c0.1426,0.2373,0.0654,0.5439-0.1719,0.6855C21.5469,23.9629,21.458,23.9854,21.3701,23.9854z"/>
	<path d="M17.7256,23.9854c-0.0518,0-0.1045-0.0078-0.1553-0.0244c-0.7246-0.2383-0.96-1.6475-0.6973-4.1885
		c0.0283-0.2754,0.2881-0.4775,0.5479-0.4463c0.2754,0.0283,0.4746,0.2734,0.4463,0.5479c-0.1436,1.4004-0.1025,2.8496,0.0859,3.166
		c0.2158,0.1104,0.3252,0.3633,0.248,0.6006C18.1318,23.8516,17.9355,23.9854,17.7256,23.9854z"/>
</g>
<rect x="-0.0008" y="-0.0147" fill="none" width="24" height="24"/>
</svg>
