<?xml version="1.0" encoding="utf-8"?>
<!-- Generator: Adobe Illustrator 18.1.0, SVG Export Plug-In . SVG Version: 6.00 Build 0)  -->
<svg version="1.1" id="Layer_1" xmlns="http://www.w3.org/2000/svg" xmlns:xlink="http://www.w3.org/1999/xlink" x="0px" y="0px"
	 width="24px" height="24px" viewBox="0 0 24 24" enable-background="new 0 0 24 24" xml:space="preserve">
<g>
	<path d="M9.1074,23.2725c-0.1172,0-0.2349-0.041-0.3301-0.124c-0.2075-0.1826-0.228-0.499-0.0454-0.7061
		c2.5054-2.8506,3.5122-6.6162,2.7632-10.3311c-0.0547-0.2705,0.1206-0.5342,0.3916-0.5889
		c0.2695-0.0518,0.5342,0.1206,0.5889,0.3916c0.8115,4.0225-0.2793,8.1006-2.9927,11.1885
		C9.3843,23.2148,9.2461,23.2725,9.1074,23.2725z"/>
	<path d="M12.3379,23.6436c-0.0977,0-0.1963-0.0283-0.2822-0.0879c-0.228-0.1553-0.2861-0.4668-0.1304-0.6943
		c2.2798-3.3311,3.0962-7.3438,2.2993-11.3003c-0.0029-0.0166-0.0059-0.0337-0.0078-0.0508
		c-0.1289-0.5786-0.4717-1.0762-0.9668-1.4053c-0.5088-0.3389-1.1191-0.459-1.7207-0.3374
		c-1.2104,0.2441-2.0059,1.4067-1.8071,2.6162c0.0098,0.0244,0.0176,0.0508,0.0234,0.0771l-0.0088,0.0039c0,0,0.0005,0,0.0005,0.001
		l-0.0063,0.001l-0.457,0.1777l0.0903,0.4062c-0.1309,0.0273-0.2739,0.0049-0.3853-0.0684
		c-0.0894-0.0576-0.1602-0.1416-0.1987-0.2402l-0.001,0.001c0-0.001-0.0005-0.0029-0.001-0.0059
		c-0.0093-0.0234-0.0161-0.0488-0.0215-0.0742c-0.3584-1.7783,0.7964-3.5171,2.5747-3.876
		c0.8628-0.1729,1.7397-0.0015,2.4712,0.4849c0.7324,0.4863,1.2314,1.2285,1.4053,2.0903c0.0039,0.0186,0.0068,0.0376,0.0078,0.0566
		c0.833,4.2051-0.042,8.4668-2.4658,12.0068C12.6533,23.5674,12.4971,23.6436,12.3379,23.6436z"/>
	<path d="M6.3521,22.1201c-0.1333,0-0.2666-0.0527-0.3652-0.1582c-0.1885-0.2021-0.1782-0.5186,0.0234-0.707
		c1.894-1.7725,2.9648-4.2705,2.937-6.8535c-0.0029-0.2754,0.2188-0.502,0.4946-0.5049c0.002,0,0.0039,0,0.0054,0
		c0.2739,0,0.4971,0.2207,0.5,0.4951c0.0308,2.8623-1.1553,5.6299-3.2534,7.5938C6.5972,22.0752,6.4746,22.1201,6.3521,22.1201z"/>
	<path d="M15.9775,22.9082c-0.0742,0-0.1484-0.0166-0.2188-0.0508c-0.248-0.1201-0.3516-0.4199-0.2305-0.668
		c0.8389-1.7246,1.3887-3.5605,1.6318-5.4551c0.0352-0.2754,0.2891-0.4688,0.5596-0.4326c0.2744,0.0352,0.4678,0.2861,0.4326,0.5596
		c-0.2578,2.0039-0.8379,3.9434-1.7256,5.7656C16.3408,22.8047,16.1621,22.9082,15.9775,22.9082z"/>
	<path d="M4.1069,20.3857c-0.145,0-0.2886-0.0625-0.3872-0.1836c-0.1753-0.2129-0.1436-0.5283,0.0698-0.7031
		c1.8403-1.5078,2.7026-3.8809,2.2622-6.21c-0.0093-0.0244-0.0166-0.0498-0.022-0.0762C5.3682,9.9312,7.5,6.7222,10.7822,6.0601
		c3.2832-0.6582,6.4902,1.4712,7.1523,4.7529c0.2803,1.3901,0.4004,2.8198,0.3574,4.2485
		c-0.0088,0.2764-0.2256,0.4805-0.5146,0.4854c-0.2764-0.0088-0.4932-0.2393-0.4854-0.5146c0.041-1.3545-0.0732-2.707-0.3389-4.021
		c-0.2676-1.3286-1.0361-2.4731-2.1641-3.2231c-1.1289-0.7505-2.4824-1.0146-3.8096-0.7476
		c-2.7158,0.5479-4.4893,3.1836-3.9844,5.8979c0.0093,0.0244,0.0166,0.0498,0.022,0.0762c0.5479,2.7168-0.4463,5.498-2.5938,7.2578
		C4.3306,20.3486,4.2183,20.3857,4.1069,20.3857z"/>
	<path d="M19.8877,20.3574c-0.042,0-0.0859-0.0049-0.1289-0.0166c-0.2666-0.0713-0.4258-0.3457-0.3545-0.6123
		c0.8115-3.0449,0.9053-6.1641,0.2783-9.2676c-0.5332-2.6406-2.3584-4.7983-4.8838-5.7729
		c-0.2578-0.0991-0.3857-0.3887-0.2871-0.6465c0.0996-0.2578,0.3896-0.3872,0.6465-0.2861
		c2.8467,1.0981,4.9033,3.5308,5.5039,6.5078c0.6582,3.2554,0.5596,6.5269-0.291,9.7231
		C20.3115,20.21,20.1094,20.3574,19.8877,20.3574z"/>
	<path d="M3.8428,10.6562c-0.0371,0-0.0747-0.0039-0.1123-0.0127c-0.269-0.0615-0.437-0.3296-0.3755-0.5986
		c0.7764-3.3916,3.4756-6.0259,6.8774-6.7114c1.0181-0.2061,2.0684-0.2251,3.123-0.0601c0.2725,0.043,0.459,0.2993,0.416,0.5718
		c-0.0439,0.2729-0.3057,0.4531-0.5723,0.4165c-0.9355-0.1479-1.8672-0.1304-2.769,0.0522
		c-3.0171,0.6079-5.4116,2.9448-6.1006,5.9536C4.2769,10.4995,4.0708,10.6562,3.8428,10.6562z"/>
	<path d="M2.3979,18.1865c-0.1421,0-0.2832-0.0596-0.3818-0.1768c-0.1787-0.2109-0.1528-0.5264,0.0581-0.7051
		c1.0098-0.8555,1.4834-2.1855,1.2446-3.4824c-0.0063-0.0195-0.0117-0.0391-0.0161-0.0596
		c-0.1221-0.6064-0.1797-1.2344-0.1719-1.8667c0.0034-0.2739,0.2266-0.4937,0.5-0.4937c0.002,0,0.0039,0,0.0063,0
		c0.2759,0.0034,0.4971,0.23,0.4937,0.5063c-0.0068,0.5405,0.04,1.0767,0.1401,1.5942c0.0068,0.0195,0.0122,0.04,0.0166,0.0615
		c0.3369,1.6729-0.2632,3.3984-1.5669,4.5039C2.627,18.1475,2.5117,18.1865,2.3979,18.1865z"/>
	<path d="M23.124,12.7373c-0.0029,0-0.0068,0-0.0098,0c-0.2764-0.0059-0.4951-0.2334-0.4902-0.5098
		c0.0146-0.7466-0.0508-1.5015-0.1953-2.2446c-0.0088-0.0234-0.0156-0.0474-0.0205-0.0723
		C21.249,4.1621,15.6309,0.4243,9.8799,1.5869C8.3838,1.8887,6.999,2.4937,5.7646,3.3843C5.541,3.5474,5.2285,3.4961,5.0669,3.2715
		C4.9053,3.0479,4.9556,2.7354,5.1797,2.5737C6.5303,1.5986,8.0449,0.937,9.6821,0.6064
		c6.2651-1.2661,12.3882,2.7842,13.6909,9.0308c0.0088,0.0239,0.0166,0.0493,0.0215,0.0752
		c0.1689,0.8384,0.2461,1.6909,0.2295,2.5347C23.6182,12.5195,23.3955,12.7373,23.124,12.7373z"/>
	<path d="M1.1782,15.1885c-0.2246,0-0.4292-0.1523-0.4854-0.3809c-0.0337-0.1377-0.0654-0.2773-0.0947-0.417
		c-0.0093-0.0254-0.0171-0.0508-0.0225-0.0781c-0.7739-3.8384,0.4238-7.7827,3.2036-10.5513
		C3.9746,3.5659,4.291,3.5674,4.4868,3.7627c0.1948,0.1958,0.1938,0.5127-0.0015,0.7075c-2.5234,2.5127-3.6211,6.0845-2.9443,9.5688
		c0.0093,0.0244,0.0161,0.0498,0.0215,0.0752c0.0308,0.1533,0.0649,0.3047,0.1021,0.4551c0.0654,0.2686-0.0986,0.5391-0.3667,0.6045
		C1.2578,15.1836,1.2178,15.1885,1.1782,15.1885z"/>
</g>
<rect x="-0.0136" fill="none" width="24" height="24"/>
</svg>
