<?xml version="1.0" encoding="utf-8"?>
<!-- Generator: Adobe Illustrator 18.1.0, SVG Export Plug-In . SVG Version: 6.00 Build 0)  -->
<svg version="1.1" id="Layer_1" xmlns="http://www.w3.org/2000/svg" xmlns:xlink="http://www.w3.org/1999/xlink" x="0px" y="0px"
	 width="24px" height="24px" viewBox="0 0 24 24" enable-background="new 0 0 24 24" xml:space="preserve">
<g>
	<path d="M9.1968,10.4609c-1.1587,0-2.1011-0.9424-2.1011-2.1011c0-1.1582,0.9424-2.1006,2.1011-2.1006
		c1.1582,0,2.1006,0.9424,2.1006,2.1006C11.2974,9.5186,10.355,10.4609,9.1968,10.4609z M9.1968,7.2593
		c-0.6069,0-1.1011,0.4937-1.1011,1.1006s0.4941,1.1011,1.1011,1.1011s1.1006-0.4941,1.1006-1.1011S9.8037,7.2593,9.1968,7.2593z"/>
	<path d="M13.2266,8.8696H12.249c-0.2764,0-0.5-0.2236-0.5-0.5s0.2236-0.5,0.5-0.5h0.9775c0.2764,0,0.5,0.2236,0.5,0.5
		S13.5029,8.8696,13.2266,8.8696z"/>
	<path d="M6.1504,8.8696H5.1738c-0.2764,0-0.5-0.2236-0.5-0.5s0.2236-0.5,0.5-0.5h0.9766c0.2764,0,0.5,0.2236,0.5,0.5
		S6.4268,8.8696,6.1504,8.8696z"/>
	<path d="M9.1997,5.8203c-0.2764,0-0.5-0.2236-0.5-0.5V4.3428c0-0.2764,0.2236-0.5,0.5-0.5s0.5,0.2236,0.5,0.5v0.9775
		C9.6997,5.5967,9.4761,5.8203,9.1997,5.8203z"/>
	<path d="M11.4204,6.6489c-0.1279,0-0.2559-0.0488-0.3535-0.1465c-0.1953-0.1953-0.1953-0.5117,0-0.707l0.4092-0.4092
		c0.1953-0.1953,0.5122-0.1953,0.7075,0c0.1943,0.1953,0.1943,0.5117,0,0.707l-0.4097,0.4092
		C11.6763,6.6001,11.5483,6.6489,11.4204,6.6489z"/>
	<path d="M6.5703,11.499c-0.1279,0-0.2559-0.0488-0.3535-0.1465c-0.1953-0.1953-0.1953-0.5117,0-0.707l0.4092-0.4092
		c0.1953-0.1953,0.5117-0.1953,0.707,0s0.1953,0.5117,0,0.707l-0.4092,0.4092C6.8262,11.4502,6.6982,11.499,6.5703,11.499z"/>
	<path d="M11.8296,11.499c-0.1279,0-0.2559-0.0488-0.3535-0.1465l-0.4092-0.4092c-0.1953-0.1953-0.1953-0.5117,0-0.707
		s0.5117-0.1953,0.707,0l0.4097,0.4092c0.1943,0.1953,0.1943,0.5117,0,0.707C12.0859,11.4502,11.9575,11.499,11.8296,11.499z"/>
	<path d="M6.9795,6.6489c-0.1279,0-0.2559-0.0488-0.3535-0.1465L6.2168,6.0933c-0.1953-0.1953-0.1953-0.5117,0-0.707
		s0.5117-0.1953,0.707,0L7.333,5.7954c0.1953,0.1953,0.1953,0.5117,0,0.707C7.2354,6.6001,7.1074,6.6489,6.9795,6.6489z"/>
	<path d="M12.001,23.7441c0,0,0,0-0.001,0c-3.146,0-6.1006-1.2217-8.3193-3.4404s-3.4404-5.1729-3.4404-8.3188
		c0-3.1455,1.2217-6.0996,3.4404-8.3179c2.2188-2.2188,5.1729-3.4404,8.3184-3.4404s6.0996,1.2217,8.3184,3.4404
		c4.5869,4.5864,4.5879,12.0498,0.001,16.6377C18.0996,22.5225,15.1465,23.7441,12.001,23.7441z M11.999,1.2266
		c-2.8784,0-5.5815,1.1177-7.6113,3.1475s-3.1475,4.7324-3.1475,7.6108s1.1177,5.5815,3.1475,7.6118
		C6.4175,21.626,9.1211,22.7441,12,22.7441c0.001,0,0.001,0,0.001,0c2.8779,0,5.5801-1.1172,7.6104-3.1465
		c4.1963-4.1973,4.1963-11.0269-0.001-15.2236C17.5811,2.3442,14.8779,1.2266,11.999,1.2266z"/>
	<path d="M22.4043,16.7988c-0.123,0-0.2471-0.0449-0.3428-0.1367l-3.3184-3.1318l-2.7148,2.4502
		c-0.2061,0.1836-0.5225,0.168-0.7061-0.0361c-0.1855-0.2051-0.1689-0.5215,0.0361-0.7061l3.0576-2.7598
		c0.1924-0.1758,0.4893-0.1709,0.6777,0.0078l3.6533,3.4492c0.2012,0.1895,0.21,0.5059,0.0205,0.7061
		C22.6699,16.7461,22.5371,16.7988,22.4043,16.7988z"/>
	<path d="M9.1997,12.8955c-0.2764,0-0.5-0.2236-0.5-0.5v-0.9771c0-0.2764,0.2236-0.5,0.5-0.5s0.5,0.2236,0.5,0.5v0.9771
		C9.6997,12.6719,9.4761,12.8955,9.1997,12.8955z"/>
	<path d="M6.1499,22.1123c-0.1021,0-0.2051-0.0312-0.2939-0.0957c-0.2231-0.1631-0.2725-0.4756-0.1099-0.6992l6.8262-9.3677
		c0.0918-0.1255,0.2363-0.2017,0.3916-0.2056c0.1943-0.0029,0.3037,0.0649,0.4014,0.186l6.4521,7.9946
		c0.1738,0.2158,0.1406,0.5303-0.0742,0.7031c-0.2148,0.1738-0.5303,0.1406-0.7031-0.0742l-6.043-7.4883l-6.4424,8.8418
		C6.4565,22.041,6.3042,22.1123,6.1499,22.1123z"/>
</g>
<rect x="-0.0008" y="-0.0147" fill="none" width="24" height="24"/>
</svg>
