<?xml version="1.0" encoding="utf-8"?>
<!-- Generator: Adobe Illustrator 18.1.0, SVG Export Plug-In . SVG Version: 6.00 Build 0)  -->
<svg version="1.1" id="Layer_1" xmlns="http://www.w3.org/2000/svg" xmlns:xlink="http://www.w3.org/1999/xlink" x="0px" y="0px"
	 width="24px" height="24px" viewBox="0 0 24 24" enable-background="new 0 0 24 24" xml:space="preserve">
<g>
	<path d="M3.7583,20.918c-0.061,0-0.1235-0.0107-0.1836-0.0352l-0.73-0.2881c-0.5195-0.2256-0.8584-0.7334-0.8584-1.2695v-8.9785
		C1.9863,9.6167,2.6226,9,3.376,9h10.8369c0.5391,0,1.0391,0.3252,1.2451,0.8086l1.8809,4.2529l4.7324,0.9639
		c1.0654,0.1738,1.915,1.1465,1.915,2.2129v2.3076c0,0.7852-0.8154,1.3721-1.5449,1.3721c-0.2764,0-0.5-0.2236-0.5-0.5
		s0.2236-0.5,0.5-0.5c0.2402,0,0.5449-0.2305,0.5449-0.3721v-2.3076c0-0.5791-0.4912-1.1309-1.0947-1.2295l-5.0049-1.0186
		c-0.1592-0.0322-0.292-0.1396-0.3574-0.2881l-1.9883-4.4956C14.4883,10.0825,14.3545,10,14.2129,10H3.376
		c-0.1841,0-0.3896,0.1484-0.3896,0.3467v8.9785c0,0.1396,0.1016,0.2852,0.2412,0.3457l0.7144,0.2822
		c0.2568,0.1016,0.3828,0.3916,0.2812,0.6484C4.146,20.7979,3.9575,20.918,3.7583,20.918z"/>
	<path d="M2.4863,19h-2c-0.2764,0-0.5-0.2236-0.5-0.5v-5c0-0.2764,0.2236-0.5,0.5-0.5h2c0.2764,0,0.5,0.2236,0.5,0.5v5
		C2.9863,18.7764,2.7627,19,2.4863,19z M0.9863,18h1v-4h-1V18z"/>
	<path d="M16.9863,15H2.5459c-0.2764,0-0.5-0.2236-0.5-0.5s0.2236-0.5,0.5-0.5h14.4404c0.2764,0,0.5,0.2236,0.5,0.5
		S17.2627,15,16.9863,15z"/>
	<path d="M10.4863,14.9717c-0.2764,0-0.5-0.2236-0.5-0.5V9.5103c0-0.2764,0.2236-0.5,0.5-0.5s0.5,0.2236,0.5,0.5v4.9614
		C10.9863,14.748,10.7627,14.9717,10.4863,14.9717z"/>
	<path d="M6.4863,14.9717c-0.2764,0-0.5-0.2236-0.5-0.5V9.5103c0-0.2764,0.2236-0.5,0.5-0.5s0.5,0.2236,0.5,0.5v4.9614
		C6.9863,14.748,6.7627,14.9717,6.4863,14.9717z"/>
	<path d="M12.8877,8.1304H4.3442c-0.2764,0-0.5-0.2236-0.5-0.5C3.8442,6.1309,5.0308,5,6.6045,5h4.0229
		c1.5737,0,2.7603,1.1309,2.7603,2.6304C13.3877,7.9067,13.1641,8.1304,12.8877,8.1304z M4.9219,7.1304h7.3877
		C12.0928,6.4604,11.4409,6,10.6274,6H6.6045C5.791,6,5.1396,6.4604,4.9219,7.1304z"/>
	<path d="M7.4697,22c-0.1299,0-0.2598-0.0498-0.3501-0.1406C7.02,21.75,6.9697,21.6299,6.9697,21.5s0.0503-0.2598,0.1401-0.3506
		c0.1899-0.1895,0.5298-0.1895,0.71,0c0.0898,0.0801,0.1499,0.21,0.1499,0.3506c0,0.1299-0.0498,0.2598-0.1499,0.3496
		C7.7197,21.9502,7.5996,22,7.4697,22z"/>
	<path d="M18.46,22c-0.1299,0-0.2598-0.0498-0.3506-0.1406C18.0098,21.7598,17.96,21.6299,17.96,21.5s0.0498-0.2598,0.1396-0.3604
		c0.1904-0.1797,0.5205-0.1797,0.71,0.0098C18.8994,21.2402,18.96,21.3701,18.96,21.5s-0.0498,0.2598-0.1504,0.3496
		C18.71,21.9502,18.5801,22,18.46,22z"/>
	<path d="M14.4629,22h-2.9521c-0.2764,0-0.5-0.2236-0.5-0.5s0.2236-0.5,0.5-0.5h2.9521c0.2764,0,0.5,0.2236,0.5,0.5
		S14.7393,22,14.4629,22z"/>
	<path d="M7.4688,23.9482c-1.3496,0-2.4478-1.0986-2.4478-2.4482s1.0981-2.4482,2.4478-2.4482c1.3501,0,2.4482,1.0986,2.4482,2.4482
		S8.8188,23.9482,7.4688,23.9482z M7.4688,20.0518c-0.7983,0-1.4478,0.6494-1.4478,1.4482s0.6494,1.4482,1.4478,1.4482
		S8.917,22.2988,8.917,21.5S8.2671,20.0518,7.4688,20.0518z"/>
	<path d="M18.457,23.9482c-1.3496,0-2.4482-1.0986-2.4482-2.4482s1.0986-2.4482,2.4482-2.4482s2.4482,1.0986,2.4482,2.4482
		S19.8066,23.9482,18.457,23.9482z M18.457,20.0518c-0.7988,0-1.4482,0.6494-1.4482,1.4482s0.6494,1.4482,1.4482,1.4482
		s1.4482-0.6494,1.4482-1.4482S19.2559,20.0518,18.457,20.0518z"/>
</g>
<rect x="-0.0136" fill="none" width="24" height="24"/>
</svg>
