<?xml version="1.0" encoding="utf-8"?>
<!-- Generator: Adobe Illustrator 18.1.0, SVG Export Plug-In . SVG Version: 6.00 Build 0)  -->
<svg version="1.1" id="Layer_1" xmlns="http://www.w3.org/2000/svg" xmlns:xlink="http://www.w3.org/1999/xlink" x="0px" y="0px"
	 width="24px" height="24px" viewBox="0 0 24 24" enable-background="new 0 0 24 24" xml:space="preserve">
<g>
	<path d="M23.3408,10.9717H11.4893c-0.2764,0-0.5-0.2236-0.5-0.5s0.2236-0.5,0.5-0.5h11.8516c0.2764,0,0.5,0.2236,0.5,0.5
		S23.6172,10.9717,23.3408,10.9717z"/>
	<path d="M20.0254,14.2871c-0.1279,0-0.2559-0.0488-0.3535-0.1465c-0.1953-0.1953-0.1953-0.5117,0-0.707l2.9619-2.9619
		l-2.9619-2.9619c-0.1953-0.1953-0.1953-0.5117,0-0.707s0.5117-0.1953,0.707,0l3.3154,3.3154c0.1953,0.1953,0.1953,0.5117,0,0.707
		l-3.3154,3.3154C20.2812,14.2383,20.1533,14.2871,20.0254,14.2871z"/>
	<path d="M15.3955,19.0342h-7.812c-0.2764,0-0.5-0.2236-0.5-0.5s0.2236-0.5,0.5-0.5h7.312v-4.5527c0-0.2764,0.2236-0.5,0.5-0.5
		s0.5,0.2236,0.5,0.5v5.0527C15.8955,18.8105,15.6719,19.0342,15.3955,19.0342z"/>
	<path d="M15.3955,7.9619c-0.2764,0-0.5-0.2236-0.5-0.5V0.9746H0.4819c-0.2764,0-0.5-0.2236-0.5-0.5s0.2236-0.5,0.5-0.5h14.9136
		c0.2764,0,0.5,0.2236,0.5,0.5v6.9873C15.8955,7.7383,15.6719,7.9619,15.3955,7.9619z"/>
	<path fill="none" stroke="#000000" stroke-linecap="round" stroke-linejoin="round" d="M15.3951,7.4618"/>
	<path fill="none" stroke="#000000" stroke-linecap="round" stroke-linejoin="round" d="M15.3951,13.4815"/>
	<path d="M7.5835,23.5869c-0.0898,0-0.1797-0.0244-0.2593-0.0723L0.2227,19.207c-0.1494-0.0908-0.2407-0.2529-0.2407-0.4277V0.4746
		c0-0.1807,0.0972-0.3472,0.2549-0.4355c0.1572-0.0894,0.3501-0.085,0.5044,0.0078l7.1016,4.3076
		c0.1494,0.0908,0.2407,0.2529,0.2407,0.4277v18.3047c0,0.1807-0.0972,0.3467-0.2549,0.4355
		C7.7524,23.5654,7.668,23.5869,7.5835,23.5869z M0.9819,18.498l6.1016,3.7012V5.064L0.9819,1.3628V18.498z"/>
</g>
<rect fill="none" width="24" height="24"/>
</svg>
