<?xml version="1.0" encoding="utf-8"?>
<!-- Generator: Adobe Illustrator 18.1.0, SVG Export Plug-In . SVG Version: 6.00 Build 0)  -->
<svg version="1.1" id="Layer_1" xmlns="http://www.w3.org/2000/svg" xmlns:xlink="http://www.w3.org/1999/xlink" x="0px" y="0px"
	 width="24px" height="24px" viewBox="0 0 24 24" enable-background="new 0 0 24 24" xml:space="preserve">
<g>
	<path d="M23.5,23h-23C0.2236,23,0,22.7764,0,22.5v-21C0,1.2236,0.2236,1,0.5,1h23C23.7764,1,24,1.2236,24,1.5v21
		C24,22.7764,23.7764,23,23.5,23z M1,22h22V2H1V22z"/>
	<path d="M2.5,4C2.3696,4,2.2397,3.9497,2.1499,3.8599C2.0498,3.7598,2,3.6299,2,3.5c0-0.1304,0.0498-0.2603,0.1396-0.3501
		c0.2002-0.2002,0.5303-0.1899,0.71,0C2.9497,3.2397,3,3.3696,3,3.5c0,0.1299-0.0503,0.2598-0.1504,0.3496
		C2.7598,3.9497,2.6299,4,2.5,4z"/>
	<path d="M4.5,4C4.3696,4,4.2397,3.9497,4.1499,3.8496C4.0498,3.77,4,3.6396,4,3.5c0-0.1304,0.0498-0.2603,0.1499-0.3501
		C4.3398,2.96,4.6597,2.96,4.8496,3.1396C4.9497,3.2397,5,3.3696,5,3.5c0,0.1396-0.0601,0.27-0.1504,0.3599
		C4.7598,3.9497,4.6299,4,4.5,4z"/>
	<path d="M6.5,4C6.3696,4,6.2397,3.9497,6.1499,3.8599C6.0498,3.7598,6,3.6299,6,3.5c0-0.1304,0.0498-0.2603,0.1396-0.3501
		c0.2002-0.2002,0.52-0.1899,0.71-0.0103C6.9497,3.2397,7,3.3696,7,3.5c0,0.1299-0.0503,0.2598-0.1401,0.3496
		C6.7598,3.9497,6.6299,4,6.5,4z"/>
	<path d="M23.5,6h-23C0.2236,6,0,5.7764,0,5.5S0.2236,5,0.5,5h23C23.7764,5,24,5.2236,24,5.5S23.7764,6,23.5,6z"/>
	<path d="M7.501,20h-4c-0.2764,0-0.5-0.2236-0.5-0.5v-4c0-0.2764,0.2236-0.5,0.5-0.5h4c0.2764,0,0.5,0.2236,0.5,0.5v4
		C8.001,19.7764,7.7773,20,7.501,20z M4.001,19h3v-3h-3V19z"/>
	<path d="M7.501,13h-4c-0.2764,0-0.5-0.2236-0.5-0.5V8.4995c0-0.2764,0.2236-0.5,0.5-0.5h4c0.2764,0,0.5,0.2236,0.5,0.5V12.5
		C8.001,12.7764,7.7773,13,7.501,13z M4.001,12h3V8.9995h-3V12z"/>
	<path d="M19.4863,10h-8.9097c-0.2764,0-0.5-0.2236-0.5-0.5s0.2236-0.5,0.5-0.5h8.9097c0.2764,0,0.5,0.2236,0.5,0.5
		S19.7627,10,19.4863,10z"/>
	<path d="M19.4863,17h-8.9097c-0.2764,0-0.5-0.2236-0.5-0.5s0.2236-0.5,0.5-0.5h8.9097c0.2764,0,0.5,0.2236,0.5,0.5
		S19.7627,17,19.4863,17z"/>
	<path d="M14.4531,12h-3.8765c-0.2764,0-0.5-0.2236-0.5-0.5s0.2236-0.5,0.5-0.5h3.8765c0.2764,0,0.5,0.2236,0.5,0.5
		S14.7295,12,14.4531,12z"/>
	<path d="M14.4531,19h-3.8765c-0.2764,0-0.5-0.2236-0.5-0.5s0.2236-0.5,0.5-0.5h3.8765c0.2764,0,0.5,0.2236,0.5,0.5
		S14.7295,19,14.4531,19z"/>
</g>
<rect fill="none" width="24" height="24"/>
</svg>
