<?xml version="1.0" encoding="utf-8"?>
<!-- Generator: Adobe Illustrator 18.1.0, SVG Export Plug-In . SVG Version: 6.00 Build 0)  -->
<svg version="1.1" id="Layer_1" xmlns="http://www.w3.org/2000/svg" xmlns:xlink="http://www.w3.org/1999/xlink" x="0px" y="0px"
	 width="24px" height="24px" viewBox="0 0 24 24" enable-background="new 0 0 24 24" xml:space="preserve">
<g>
	<path d="M15.5,23.876c-3.0322,0-5.5-2.4902-5.5-5.5508v-1.252c-0.6274,1.1543-1.5156,2.291-2.5815,2.291l0,0
		c-0.1357,0-0.2715-0.0186-0.4038-0.0547c-0.5293-0.1465-1.2354-0.5654-1.5952-1.7314C4.6841,15.1973,5.8486,10.3193,9,6.5137
		V3.5195c0-0.2764,0.2236-0.5,0.5-0.5h11c0.2764,0,0.5,0.2236,0.5,0.5v14.8057C21,21.3857,18.5322,23.876,15.5,23.876z
		 M10.4995,14.1455c0.0264,0,0.0532,0.002,0.0801,0.0068C10.8218,14.1904,11,14.4004,11,14.6455v3.6797
		c0,2.5098,2.0186,4.5508,4.5,4.5508s4.5-2.041,4.5-4.5508V4.0195H10v2.6758c0,0.1182-0.042,0.2329-0.1187,0.3232
		c-2.9263,3.4546-4.1758,8.0967-3.5063,10.2646c0.1816,0.5889,0.4863,0.9463,0.9053,1.0615
		c0.9526,0.2607,2.2017-2.2119,2.7451-3.8564C10.0938,14.2812,10.2871,14.1455,10.4995,14.1455z"/>
	<path d="M8.8657,4.2783c-0.5884,0-1.2969-0.2681-1.9438-0.7354C5.7314,2.6831,5.2188,1.5024,5.729,0.7959
		c0.498-0.6909,1.8374-0.5586,2.9834,0.269c1.1904,0.8599,1.7031,2.0405,1.1929,2.7476C9.6885,4.1128,9.3193,4.2783,8.8657,4.2783z
		 M6.7686,1.3296c-0.145,0-0.2168,0.0347-0.229,0.0513C6.4624,1.4878,6.6831,2.1372,7.5078,2.7324
		c0.834,0.6021,1.5498,0.5444,1.5869,0.4946c0.0771-0.1069-0.1436-0.7563-0.9683-1.3516C7.5693,1.4731,7.0601,1.3296,6.7686,1.3296z
		"/>
	<g>
		<g>
			<path d="M20.5,7.0361H20c-0.2764,0-0.5-0.2236-0.5-0.5s0.2236-0.5,0.5-0.5h0.5c0.2764,0,0.5,0.2236,0.5,0.5
				S20.7764,7.0361,20.5,7.0361z"/>
			<path d="M17.2725,7.0361h-0.9092c-0.2764,0-0.5-0.2236-0.5-0.5s0.2236-0.5,0.5-0.5h0.9092c0.2764,0,0.5,0.2236,0.5,0.5
				S17.5488,7.0361,17.2725,7.0361z M13.6357,7.0361h-0.9092c-0.2764,0-0.5-0.2236-0.5-0.5s0.2236-0.5,0.5-0.5h0.9092
				c0.2764,0,0.5,0.2236,0.5,0.5S13.9121,7.0361,13.6357,7.0361z"/>
			<path d="M10,7.0361H9.5c-0.2764,0-0.5-0.2236-0.5-0.5s0.2236-0.5,0.5-0.5H10c0.2764,0,0.5,0.2236,0.5,0.5
				S10.2764,7.0361,10,7.0361z"/>
		</g>
	</g>
</g>
<rect y="0.0197" fill="none" width="24" height="24"/>
</svg>
