<?xml version="1.0" encoding="utf-8"?>
<!-- Generator: Adobe Illustrator 18.1.0, SVG Export Plug-In . SVG Version: 6.00 Build 0)  -->
<svg version="1.1" id="Layer_1" xmlns="http://www.w3.org/2000/svg" xmlns:xlink="http://www.w3.org/1999/xlink" x="0px" y="0px"
	 width="24px" height="24px" viewBox="0 0 24 24" enable-background="new 0 0 24 24" xml:space="preserve">
<g>
	<path d="M21.1377,24H2.8682c-1.5801,0-2.8652-1.2852-2.8652-2.8652V2.8652C0.0029,1.2852,1.2881,0,2.8682,0h18.2695
		c1.5801,0,2.8652,1.2852,2.8652,2.8652v18.2695C24.0029,22.7148,22.7178,24,21.1377,24z M2.8682,1
		C1.8398,1,1.0029,1.8369,1.0029,2.8652v18.2695C1.0029,22.1631,1.8398,23,2.8682,23h18.2695c1.0283,0,1.8652-0.8369,1.8652-1.8652
		V2.8652C23.0029,1.8369,22.166,1,21.1377,1H2.8682z"/>
	<path d="M19.4912,6H4.521c-0.2764,0-0.5-0.2236-0.5-0.5S4.2446,5,4.521,5h14.9702c0.2764,0,0.5,0.2236,0.5,0.5S19.7676,6,19.4912,6
		z"/>
	<path d="M19.4912,10H8.5161c-0.2764,0-0.5-0.2236-0.5-0.5S8.2397,9,8.5161,9h10.9751c0.2764,0,0.5,0.2236,0.5,0.5
		S19.7676,10,19.4912,10z"/>
	<path d="M19.4912,14H8.5161c-0.2764,0-0.5-0.2236-0.5-0.5s0.2236-0.5,0.5-0.5h10.9751c0.2764,0,0.5,0.2236,0.5,0.5
		S19.7676,14,19.4912,14z"/>
	<path d="M19.4912,18H8.5161c-0.2764,0-0.5-0.2236-0.5-0.5s0.2236-0.5,0.5-0.5h10.9751c0.2764,0,0.5,0.2236,0.5,0.5
		S19.7676,18,19.4912,18z"/>
	<path d="M4.5796,10C4.4497,10,4.3198,9.9497,4.23,9.8599C4.1299,9.7598,4.0796,9.6299,4.0796,9.5
		c0-0.1401,0.0503-0.27,0.1504-0.3604C4.4097,8.96,4.75,8.96,4.9297,9.1499C5.02,9.23,5.0796,9.3599,5.0796,9.5
		c0,0.1299-0.0498,0.2598-0.1499,0.3496C4.8296,9.9497,4.6997,10,4.5796,10z"/>
	<path d="M4.5796,14c-0.1299,0-0.2598-0.0498-0.3496-0.1406C4.1299,13.7598,4.0796,13.6299,4.0796,13.5
		c0-0.1406,0.0503-0.2705,0.1504-0.3604C4.3999,12.96,4.75,12.96,4.9297,13.1494C5.02,13.2295,5.0796,13.3701,5.0796,13.5
		s-0.0498,0.2598-0.1499,0.3496C4.8296,13.9502,4.6997,14,4.5796,14z"/>
	<path d="M4.5796,18c-0.1299,0-0.25-0.0498-0.3496-0.1406C4.1299,17.7598,4.0796,17.6299,4.0796,17.5
		c0-0.1406,0.0503-0.2705,0.1504-0.3604C4.4097,16.96,4.7397,16.96,4.9297,17.1494C5.02,17.2402,5.0796,17.3701,5.0796,17.5
		s-0.0498,0.2598-0.1499,0.3496C4.8296,17.9502,4.6997,18,4.5796,18z"/>
</g>
<rect fill="none" width="24" height="24"/>
</svg>
