<?xml version="1.0" encoding="utf-8"?>
<!-- Generator: Adobe Illustrator 18.1.0, SVG Export Plug-In . SVG Version: 6.00 Build 0)  -->
<svg version="1.1" id="Layer_1" xmlns="http://www.w3.org/2000/svg" xmlns:xlink="http://www.w3.org/1999/xlink" x="0px" y="0px"
	 width="24px" height="24px" viewBox="0 0 24 24" enable-background="new 0 0 24 24" xml:space="preserve">
<g>
	<path d="M19.7383,20.0381H8.9976c-2.1958,0-3.9819-1.8076-3.9819-4.0303c0-1.2139,0.7017-2.4717,1.8042-3.2607
		c0.5171-2.6611,2.6904-4.5703,5.2437-4.5703c1.1748,0,2.29,0.4062,3.2402,1.1768c1.998-0.1729,3.6777,0.877,4.3672,2.624
		c0.0166,0,0.0322,0,0.0488,0c2.2627,0,4.1748,1.8457,4.1748,4.0303S21.9912,20.0381,19.7383,20.0381z M12.0635,9.1768
		c-2.127,0-3.9331,1.6582-4.2944,3.9434c-0.022,0.1406-0.1035,0.2656-0.2236,0.3428c-0.9292,0.5967-1.5298,1.5957-1.5298,2.5449
		c0,1.6709,1.3379,3.0303,2.9819,3.0303h10.7407c1.7109,0,3.1562-1.3877,3.1562-3.0303c0-1.752-1.6396-3.1982-3.5215-3.0127
		c-0.2471,0.0283-0.4629-0.125-0.5312-0.3555c-0.4678-1.5854-1.8701-2.498-3.6328-2.27c-0.1406,0.0166-0.2861-0.0244-0.3945-0.1201
		C14.0146,9.5479,13.0635,9.1768,12.0635,9.1768z"/>
	<path d="M18.4824,5h-4.1387c-0.2764,0-0.5-0.2236-0.5-0.4995l-0.0039-3.9712c0-0.2764,0.2236-0.5,0.499-0.5005
		c0.001,0,0.001,0,0.001,0c0.2764,0,0.5,0.2236,0.5,0.4995L14.8428,4h3.6396c0.2764,0,0.5,0.2236,0.5,0.5S18.7588,5,18.4824,5z"/>
	<path d="M17.6846,23.9717H1.3457c-0.7158,0-1.2979-0.583-1.2979-1.2988V1.3267c0-0.7158,0.582-1.2979,1.2979-1.2979h12.9941
		c0.3438,0,0.668,0.1328,0.9111,0.374l3.3447,3.2969C18.7744,3.8765,18.9834,4.083,18.9834,4.5v3.9023c0,0.2764-0.2236,0.5-0.5,0.5
		s-0.5-0.2236-0.5-0.5V4.5c-0.0088-0.0142-0.042-0.0415-0.0801-0.0786l-3.3545-3.3071c-0.0566-0.0552-0.1299-0.0854-0.209-0.0854
		H1.3457c-0.1641,0-0.2979,0.1338-0.2979,0.2979v21.3462c0,0.165,0.1338,0.2988,0.2979,0.2988h16.3389
		c0.165,0,0.2988-0.1338,0.2988-0.2988v-1.1094c0-0.2764,0.2236-0.5,0.5-0.5s0.5,0.2236,0.5,0.5v1.1094
		C18.9834,23.3887,18.4004,23.9717,17.6846,23.9717z"/>
</g>
<rect y="0.0001" fill="none" width="24" height="24"/>
</svg>
