<?xml version="1.0" encoding="utf-8"?>
<!-- Generator: Adobe Illustrator 18.1.0, SVG Export Plug-In . SVG Version: 6.00 Build 0)  -->
<svg version="1.1" id="Layer_1" xmlns="http://www.w3.org/2000/svg" xmlns:xlink="http://www.w3.org/1999/xlink" x="0px" y="0px"
	 width="24px" height="24px" viewBox="0 0 24 24" enable-background="new 0 0 24 24" xml:space="preserve">
<g>
	<path d="M20.5684,23.9014c-0.2764,0-0.5-0.2236-0.5-0.5v-5.8936c0-0.2764,0.2236-0.5,0.5-0.5h2.1387l-1.9609-4.915
		c-0.0352-0.0879-0.0439-0.1846-0.0264-0.2778l0.4395-2.3291c0.0645-2.0889-0.0049-2.8779-0.0547-3.168l-1.1816,1.2773
		c-0.1895,0.2041-0.5449,0.2041-0.7344,0l-1.1816-1.2764C17.957,6.6113,17.8896,7.4141,17.96,9.5625l0.4316,2.2524
		c0.0176,0.0933,0.0088,0.1899-0.0264,0.2778l-1.9619,4.915h2.1387c0.2764,0,0.5,0.2236,0.5,0.5v5.8936c0,0.2764-0.2236,0.5-0.5,0.5
		s-0.5-0.2236-0.5-0.5v-5.3936h-2.377c-0.166,0-0.3213-0.082-0.4141-0.2197c-0.0928-0.1367-0.1113-0.3115-0.0508-0.4658
		l2.1816-5.4648l-0.4131-2.186c-0.1338-3.9346,0.1318-4.1201,0.5068-4.2656c0.0254-0.0127,0.0518-0.0229,0.0791-0.0312
		c0.3457-0.1035,0.7637-0.1919,1.0029,0.0669l0.998,1.0781l0.9971-1.0781c0.2393-0.2563,0.6553-0.1699,1.0029-0.0669
		c0.0283,0.0083,0.0547,0.019,0.0811,0.0317c0.375,0.1465,0.6396,0.335,0.5137,4.189l-0.4219,2.2617l2.1816,5.4653
		c0.0605,0.1543,0.042,0.3291-0.0508,0.4658c-0.0928,0.1377-0.248,0.2197-0.4141,0.2197h-2.377v5.3936
		C21.0684,23.6777,20.8447,23.9014,20.5684,23.9014z"/>
	<path d="M4.4932,23.9814c-0.2764,0-0.5-0.2236-0.5-0.5v-7.9463c0-0.2764,0.2236-0.5,0.5-0.5s0.5,0.2236,0.5,0.5v7.9463
		C4.9932,23.7578,4.7695,23.9814,4.4932,23.9814z"/>
	<path d="M4.4932,4.5566c-1.1646,0-1.9375-1.4463-1.9375-2.4028c0-1.0684,0.8691-1.9375,1.9375-1.9375
		c1.0688,0,1.938,0.8691,1.938,1.9375C6.4312,3.1104,5.6582,4.5566,4.4932,4.5566z M4.4932,1.2163
		c-0.5171,0-0.9375,0.4204-0.9375,0.9375c0,0.5796,0.4849,1.4028,0.9375,1.4028s0.938-0.8232,0.938-1.4028
		C5.4312,1.6367,5.0103,1.2163,4.4932,1.2163z"/>
	<path d="M11.5054,15.4287c-1.0303,0-1.688-1.2275-1.688-2.0723c0-0.9307,0.7573-1.6885,1.688-1.6885
		c0.9312,0,1.688,0.7578,1.688,1.6885C13.1934,14.2012,12.5361,15.4287,11.5054,15.4287z M11.5054,12.668
		c-0.3794,0-0.688,0.3086-0.688,0.6885c0,0.4609,0.3921,1.0723,0.688,1.0723s0.688-0.6113,0.688-1.0723
		C12.1934,12.9766,11.8848,12.668,11.5054,12.668z"/>
	<path d="M19.5557,4.7744c-1.1211,0-1.8652-1.4463-1.8652-2.4028c0-1.0684,0.8369-1.9375,1.8652-1.9375s1.8643,0.8691,1.8643,1.9375
		C21.4199,3.3281,20.6768,4.7744,19.5557,4.7744z M19.5557,1.4341c-0.4775,0-0.8652,0.4204-0.8652,0.9375
		c0,0.6162,0.4854,1.4028,0.8652,1.4028s0.8643-0.7866,0.8643-1.4028C20.4199,1.8545,20.0322,1.4341,19.5557,1.4341z"/>
	<path d="M6.354,23.9814c-0.0098,0-0.0195,0-0.0293-0.001c-0.2759-0.0156-0.4863-0.252-0.4702-0.5273l0.5688-9.8662
		c0.0078-0.1348,0.0928-0.3125,0.1948-0.4004c0.1528-0.1328,0.3271-0.1592,0.4985-0.1543C7.2856,8.0381,7.0156,6.5283,6.8862,6.103
		c-0.1016-0.0039-0.23-0.0088-0.3452-0.0137L6.2388,6.0757C6.1851,6.0815,6.1255,6.1338,6.0977,6.188
		C5.8115,6.7427,5.1968,7.0874,4.4932,7.0874c-0.7031,0-1.3179-0.3447-1.604-0.8999C2.8613,6.1338,2.7935,6.0747,2.7485,6.0757
		L2.4414,6.0898C2.3218,6.0947,2.1885,6.0996,2.0786,6.105c-0.0938,0.3447-0.3823,1.7979-0.2085,6.9272
		c0.167-0.0059,0.3457,0.0215,0.4985,0.1543c0.104,0.0898,0.1899,0.2705,0.1953,0.4082l0.5679,9.8584
		c0.0161,0.2754-0.1948,0.5117-0.4702,0.5273c-0.272,0.0264-0.5122-0.1943-0.5278-0.4707l-0.5449-9.4531
		c-0.1694,0.0059-0.3545-0.0156-0.5107-0.1523c-0.104-0.0908-0.1875-0.2676-0.1919-0.4053
		C0.6045,5.9688,1.2505,5.4253,1.4629,5.2466C1.5181,5.1997,1.5825,5.166,1.6523,5.1465c0.0918-0.0249,0.2109-0.0337,0.748-0.0562
		L2.686,5.0776c0.457-0.0215,0.8696,0.2212,1.0918,0.6514C4.0029,6.165,4.9844,6.1636,5.209,5.7295
		c0.2227-0.4302,0.6445-0.6753,1.0918-0.6519l0.2817,0.0127c0.5474,0.0225,0.6602,0.0312,0.7549,0.0576
		c0.0679,0.019,0.1309,0.0522,0.1851,0.0977C7.7354,5.4229,8.3828,5.9634,8.1006,13.5c-0.0049,0.1377-0.0879,0.3145-0.1919,0.4043
		c-0.1567,0.1367-0.3389,0.1602-0.5112,0.1523l-0.5449,9.4531C6.8374,23.7764,6.6167,23.9814,6.354,23.9814z"/>
	<path d="M11.5054,23.9053c-1.6147,0-2.3457-3.665-2.3457-4.7773c0-1.6094,1.0522-2.9189,2.3457-2.9189s2.3452,1.3096,2.3452,2.9189
		C13.8506,20.2402,13.1191,23.9053,11.5054,23.9053z M11.5054,17.209c-0.7295,0-1.3457,0.8789-1.3457,1.9189
		c0,1.4814,0.894,3.7773,1.3457,3.7773s1.3452-2.2959,1.3452-3.7773C12.8506,18.0879,12.2344,17.209,11.5054,17.209z"/>
</g>
<rect x="0.0142" y="0.0344" fill="none" width="24" height="24"/>
</svg>
