<?xml version="1.0" encoding="utf-8"?>
<!-- Generator: Adobe Illustrator 18.1.0, SVG Export Plug-In . SVG Version: 6.00 Build 0)  -->
<svg version="1.1" id="Layer_1" xmlns="http://www.w3.org/2000/svg" xmlns:xlink="http://www.w3.org/1999/xlink" x="0px" y="0px"
	 width="24px" height="24px" viewBox="0 0 24 24" enable-background="new 0 0 24 24" xml:space="preserve">
<g>
	<path d="M17.1719,23.9697h-3.5303c-0.1367,0-0.2676-0.0566-0.3623-0.1553c-0.0947-0.0996-0.1436-0.2334-0.1367-0.3701
		c0.2598-5.1904,0.457-5.9688,0.7812-6.1406c0.0986-0.2676,0.2002-1.0264,0.1582-1.7246c-0.04-0.6621,0.1582-1.4619,0.3174-2.1035
		c0.0752-0.3018,0.1689-0.6777,0.165-0.7969c-0.1182-4.0337-0.0068-4.397,0.0293-4.5161c0.3242-1.0576,3.9033-0.8984,3.9355-0.8936
		c0.2754-0.0015,1.0576-0.8677,1.6084-1.7822c0.0967-0.1621,0.2754-0.2612,0.4668-0.2407c0.5186,0.0391,1.0635,0.0337,1.4902-0.0049
		c-0.1855-0.0093-0.3535-0.1216-0.4316-0.2949c-0.001-0.001-0.001-0.0024-0.002-0.0034C20.1289,5.4302,17.46,5.189,17.1162,5.1553
		c-0.251,0.0273-3.2734,0.2222-4.2783-0.9971c-0.2275-0.2769-0.46-0.7524-0.2676-1.4453c0.1582-0.5752,0.1475-1.0142-0.0303-1.2358
		c-0.1777-0.2222-0.5186-0.2173-0.5283-0.2212c-0.002,0-0.0039,0-0.0059,0c-0.0664,0-0.4019,0.0015-0.5771,0.2256
		c-0.1743,0.2231-0.1836,0.6606-0.0259,1.2314c0.1914,0.6929-0.04,1.1685-0.2686,1.4458C10.1309,5.3774,7.1108,5.1826,6.77,5.1562
		C6.5024,5.188,3.8428,5.4292,2.311,4.9424c-0.0005,0.001-0.001,0.002-0.0015,0.0029c-0.0879,0.1973-0.29,0.3164-0.5068,0.2939
		C1.7305,5.2319,1.6582,5.2339,1.5791,5.229c0.4341,0.0444,1.1323,0.0654,1.7891,0.0171C3.5537,5.23,3.7368,5.3247,3.8345,5.4868
		c0.5518,0.915,1.3345,1.7812,1.6104,1.7822C5.479,7.2661,9.0557,7.106,9.3779,8.1631c0.1367,0.4443,0.0737,2.5435,0.0303,3.6313
		c0.2534,0.3062,0.5259,0.8472,0.4824,1.5718c-0.042,0.7012,0.0605,1.4629,0.1597,1.7275c0.3438,0.2021,0.5229,1.207,0.7798,8.3584
		c0.0049,0.1348-0.0454,0.2666-0.1396,0.3643s-0.2241,0.1533-0.3599,0.1533H6.8003c-0.2764,0-0.5-0.2236-0.5-0.5s0.2236-0.5,0.5-0.5
		h3.0112c-0.1196-3.1387-0.3086-6.4365-0.4478-7.127c-0.5693-0.5771-0.4849-2.3135-0.4712-2.5371
		c0.0371-0.6211-0.2993-0.9219-0.3135-0.9346c-0.1143-0.0996-0.1851-0.2529-0.1787-0.4043c0.0566-1.3457,0.083-2.9341,0.0352-3.4126
		C7.98,8.3521,6.2944,8.1982,5.5298,8.2651c-0.9253,0.0747-1.8862-1.2168-2.3901-2.002C1.8452,6.3325,0.3965,6.2178,0.1934,5.3896
		C0.1235,5.1045,0.1846,4.8335,0.3652,4.626C0.563,4.3994,0.875,4.2969,1.1729,4.2544c0.0039-0.0132,0.0078-0.0259,0.0127-0.0391
		c0.1191-0.3301,0.4678-0.4619,0.7544-0.4751c0.1045-0.0098,0.2144,0.0254,0.3042,0.0859c0.7251,0.4951,3.1553,0.4663,4.5151,0.334
		c1.2568,0.0879,3.1211-0.0513,3.6035-0.6377c0.0786-0.0957,0.1587-0.2441,0.0762-0.543c-0.2539-0.9189-0.1821-1.6348,0.2134-2.1279
		c0.4966-0.6191,1.2739-0.5957,1.3594-0.5947c0.0352-0.0049,0.8125-0.0249,1.3086,0.5947c0.3955,0.4932,0.4668,1.209,0.2139,2.1279
		c-0.083,0.2988-0.0029,0.4473,0.0762,0.5435c0.5303,0.644,2.5957,0.708,3.5166,0.6362c1.4492,0.1348,3.876,0.1611,4.6016-0.3325
		c0.0898-0.0605,0.2129-0.0894,0.3037-0.0864c0.2871,0.0132,0.6357,0.145,0.7549,0.4751c0.0049,0.0127,0.0088,0.0259,0.0127,0.0391
		c0.2979,0.0425,0.6094,0.145,0.8076,0.3716c0.1807,0.207,0.2422,0.478,0.1719,0.7637c-0.2021,0.8276-1.6494,0.9429-2.9463,0.8735
		c-0.5049,0.7852-1.5176,2.0791-2.3896,2.002c-0.7646-0.0664-2.4482,0.0859-2.9062,0.2886
		c-0.0352,0.4023-0.041,1.7598,0.0273,4.0957c0.0068,0.2559-0.0771,0.5967-0.1943,1.0674c-0.1426,0.5752-0.3203,1.292-0.29,1.8018
		c0.0137,0.2266,0.0996,1.9961-0.4902,2.5547c-0.1299,0.542-0.3057,2.7637-0.4219,4.8965h3.0039c0.2764,0,0.5,0.2236,0.5,0.5
		S17.4482,23.9697,17.1719,23.9697z"/>
	<path d="M14.1982,18.2402c-0.1299,0-0.2588-0.0498-0.3564-0.1494l-4.8481-4.9404c-0.1934-0.1973-0.1904-0.5137,0.0068-0.707
		c0.1963-0.1943,0.5122-0.1914,0.707,0.0059l4.8472,4.9404c0.1934,0.1973,0.1904,0.5137-0.0059,0.707
		C14.4512,18.1924,14.3242,18.2402,14.1982,18.2402z"/>
</g>
<rect x="-0.0137" fill="none" width="24" height="24"/>
</svg>
