<?xml version="1.0" encoding="utf-8"?>
<!-- Generator: Adobe Illustrator 18.1.0, SVG Export Plug-In . SVG Version: 6.00 Build 0)  -->
<svg version="1.1" id="Layer_1" xmlns="http://www.w3.org/2000/svg" xmlns:xlink="http://www.w3.org/1999/xlink" x="0px" y="0px"
	 width="24px" height="24px" viewBox="0 0 24 24" enable-background="new 0 0 24 24" xml:space="preserve">
<g>
	<path d="M11.999,23.1016c-3.2852,0-5.958-2.5801-5.958-5.751v-5.8408c0-0.2764,0.2236-0.5,0.5-0.5h10.916
		c0.2764,0,0.5,0.2236,0.5,0.5v5.8408C17.957,20.5215,15.2842,23.1016,11.999,23.1016z M7.041,12.0098v5.3408
		c0,2.6201,2.2241,4.751,4.958,4.751c2.7334,0,4.958-2.1309,4.958-4.751v-5.3408H7.041z"/>
	<path d="M19.0605,12.0098H4.938c-0.2764,0-0.5-0.2236-0.5-0.5c0-4.6948,3.3921-8.5146,7.561-8.5146
		c4.1699,0,7.5615,3.8198,7.5615,8.5146C19.5605,11.7861,19.3369,12.0098,19.0605,12.0098z M5.4521,11.0098h13.0938
		c-0.2246-3.9116-3.0752-7.0146-6.5469-7.0146C8.5278,3.9951,5.6777,7.0981,5.4521,11.0098z"/>
	<path d="M11.999,3.9956c-0.2764,0-0.5-0.2236-0.5-0.5V0.6694c0-0.2764,0.2236-0.5,0.5-0.5s0.5,0.2236,0.5,0.5v2.8262
		C12.499,3.772,12.2754,3.9956,11.999,3.9956z"/>
	<path d="M11.999,23.8008c-0.2764,0-0.5-0.2236-0.5-0.5v-0.6992c0-0.2764,0.2236-0.5,0.5-0.5s0.5,0.2236,0.5,0.5v0.6992
		C12.499,23.5771,12.2754,23.8008,11.999,23.8008z"/>
	<path d="M8.499,16.8926c-0.2764,0-0.5-0.2236-0.5-0.5V13.624c0-0.2764,0.2236-0.5,0.5-0.5s0.5,0.2236,0.5,0.5v2.7686
		C8.999,16.6689,8.7754,16.8926,8.499,16.8926z"/>
	<path d="M7.5,10c-0.1304,0-0.2603-0.0503-0.3501-0.1401C7.0498,9.7598,7,9.6299,7,9.5c0-0.1304,0.0498-0.2603,0.1396-0.3501
		c0.1899-0.1899,0.5303-0.1899,0.71,0C7.9399,9.2397,8,9.3696,8,9.5c0,0.1299-0.0503,0.2598-0.1504,0.3496
		C7.7598,9.9497,7.6299,10,7.5,10z"/>
	<path d="M10.5,10c-0.1401,0-0.27-0.0503-0.3604-0.1504C10.0498,9.7598,10,9.6299,10,9.5c0-0.1304,0.0498-0.2603,0.1499-0.3501
		C10.3296,8.96,10.6597,8.96,10.8496,9.1396C10.9497,9.2397,11,9.3696,11,9.5c0,0.1299-0.0503,0.25-0.1401,0.3496
		C10.7598,9.9497,10.6299,10,10.5,10z"/>
	<path d="M13.5,10c-0.1299,0-0.2598-0.0503-0.3604-0.1504C13.0498,9.7598,13,9.6299,13,9.5c0-0.1304,0.0498-0.2603,0.1396-0.3501
		c0.1904-0.1899,0.5098-0.1899,0.71-0.0103C13.9502,9.25,14,9.3696,14,9.5c0,0.1299-0.0498,0.2598-0.1504,0.3496
		C13.7598,9.9497,13.6299,10,13.5,10z"/>
	<path d="M10.5,6c-0.1304,0-0.2603-0.0503-0.3501-0.1401C10.0498,5.77,10,5.6396,10,5.5098c0-0.1401,0.0498-0.2598,0.1499-0.3599
		c0.1797-0.1802,0.5098-0.1899,0.6997,0C10.9497,5.25,11,5.3696,11,5.5098c0,0.1299-0.0503,0.25-0.1401,0.3501
		C10.75,5.9497,10.6299,6,10.5,6z"/>
	<path d="M13.5,6c-0.1406,0-0.2705-0.0503-0.3604-0.1504C13.0498,5.77,13,5.6396,13,5.5c0-0.1304,0.0498-0.2603,0.1396-0.3501
		c0.1904-0.1802,0.5098-0.1899,0.71,0C13.9502,5.25,14,5.3799,14,5.5c0,0.1299-0.0498,0.2598-0.1504,0.3599
		C13.7598,5.9497,13.6299,6,13.5,6z"/>
	<path d="M16.5,10c-0.1299,0-0.2598-0.0503-0.3506-0.1401C16.0498,9.7598,16,9.6299,16,9.5c0-0.1304,0.0498-0.2603,0.1494-0.3501
		c0.1807-0.1899,0.5107-0.1899,0.7002,0C16.9502,9.25,17,9.3696,17,9.5c0,0.1299-0.0498,0.25-0.1406,0.3496
		C16.75,9.9497,16.6299,10,16.5,10z"/>
	<path d="M15.4795,8c-0.1299,0-0.2598-0.0503-0.3496-0.1401C15.0303,7.7598,14.9795,7.6396,14.9795,7.5
		c0-0.1304,0.0508-0.2603,0.1504-0.3501c0.1797-0.1802,0.5195-0.1899,0.7002,0c0.0996,0.0898,0.1494,0.2197,0.1494,0.3501
		c0,0.1299-0.0498,0.2598-0.1396,0.3496C15.7295,7.9497,15.6094,8,15.4795,8z"/>
	<path d="M12,8c-0.1304,0-0.25-0.0503-0.3501-0.1401C11.5498,7.7598,11.5,7.6299,11.5,7.5c0-0.1304,0.0498-0.2603,0.1499-0.3501
		c0.1797-0.1899,0.5103-0.1899,0.6997,0C12.4502,7.25,12.5,7.3799,12.5,7.5c0,0.1299-0.0498,0.2598-0.1406,0.3496
		C12.25,7.9497,12.1299,8,12,8z"/>
	<path d="M9.48,8C9.3496,8,9.2197,7.9497,9.1196,7.8496C9.0298,7.7598,8.98,7.6299,8.98,7.5c0-0.1304,0.0498-0.25,0.1396-0.3501
		c0.1904-0.1899,0.5303-0.1899,0.71,0C9.9297,7.25,9.98,7.3696,9.98,7.5c0,0.1299-0.0503,0.2598-0.1401,0.3496
		C9.7397,7.9497,9.6099,8,9.48,8z"/>
</g>
<rect x="-0.0008" y="-0.0147" fill="none" width="24" height="24"/>
</svg>
