<?xml version="1.0" encoding="utf-8"?>
<!-- Generator: Adobe Illustrator 18.1.0, SVG Export Plug-In . SVG Version: 6.00 Build 0)  -->
<svg version="1.1" id="Layer_1" xmlns="http://www.w3.org/2000/svg" xmlns:xlink="http://www.w3.org/1999/xlink" x="0px" y="0px"
	 width="24px" height="24px" viewBox="0 0 24 24" enable-background="new 0 0 24 24" xml:space="preserve">
<g>
	<path d="M5.4941,15h-2c-0.2764,0-0.5-0.2236-0.5-0.5v-5c0-0.2764,0.2236-0.5,0.5-0.5h2c0.2764,0,0.5,0.2236,0.5,0.5v5
		C5.9941,14.7764,5.7705,15,5.4941,15z M3.9941,14h1v-4h-1V14z"/>
	<path d="M9.4946,15h-2c-0.2764,0-0.5-0.2236-0.5-0.5v-5c0-0.2764,0.2236-0.5,0.5-0.5h2c0.2764,0,0.5,0.2236,0.5,0.5v5
		C9.9946,14.7764,9.771,15,9.4946,15z M7.9946,14h1v-4h-1V14z"/>
	<path d="M13.4951,15h-2c-0.2764,0-0.5-0.2236-0.5-0.5v-5c0-0.2764,0.2236-0.5,0.5-0.5h2c0.2764,0,0.5,0.2236,0.5,0.5v5
		C13.9951,14.7764,13.7715,15,13.4951,15z M11.9951,14h1v-4h-1V14z"/>
	<path d="M21.0146,19H1.0142c-0.5513,0-1-0.4482-1-1V6c0-0.5513,0.4487-1,1-1h20.0005c0.5518,0,1,0.4487,1,1v3h1
		c0.5518,0,1,0.4487,1,1v4c0,0.5518-0.4482,1-1,1h-1v3C22.0146,18.5518,21.5664,19,21.0146,19z M21.0146,18v0.5V18L21.0146,18z
		 M1.0142,6v12h20.0005v-3.5c0-0.2764,0.2236-0.5,0.5-0.5h1.5v-4h-1.5c-0.2764,0-0.5-0.2236-0.5-0.5V6H1.0142z"/>
</g>
<rect fill="none" width="24" height="24"/>
</svg>
