<?xml version="1.0" encoding="utf-8"?>
<!-- Generator: Adobe Illustrator 18.1.0, SVG Export Plug-In . SVG Version: 6.00 Build 0)  -->
<svg version="1.1" id="Layer_1" xmlns="http://www.w3.org/2000/svg" xmlns:xlink="http://www.w3.org/1999/xlink" x="0px" y="0px"
	 width="24px" height="24px" viewBox="0 0 24 24" enable-background="new 0 0 24 24" xml:space="preserve">
<g>
	<path d="M11.9893,20.8955c-0.2764,0-0.5-0.2236-0.5-0.5V6.6714c0-0.2764,0.2236-0.5,0.5-0.5s0.5,0.2236,0.5,0.5v13.7241
		C12.4893,20.6719,12.2656,20.8955,11.9893,20.8955z"/>
	<path d="M16.3174,11.5396c-0.1289,0-0.2578-0.0493-0.3555-0.1479l-3.9727-4.0098l-3.9731,4.0098
		c-0.1943,0.1958-0.5107,0.1978-0.707,0.0029c-0.1958-0.1943-0.1973-0.5107-0.0029-0.707l4.3281-4.3682
		c0.1875-0.1895,0.5239-0.1895,0.7104,0l4.3281,4.3682c0.1943,0.1963,0.1924,0.5127-0.0039,0.707
		C16.5723,11.4912,16.4443,11.5396,16.3174,11.5396z"/>
	<path d="M21.0977,24H2.8813c-1.5947,0-2.8921-1.2969-2.8921-2.8916V2.8916C-0.0107,1.2974,1.2866,0,2.8813,0h18.2163
		c1.5947,0,2.8916,1.2974,2.8916,2.8916v18.2168C23.9893,22.7031,22.6924,24,21.0977,24z M2.8813,1
		C1.8379,1,0.9893,1.8486,0.9893,2.8916v18.2168C0.9893,22.1514,1.8379,23,2.8813,23h18.2163c1.043,0,1.8916-0.8486,1.8916-1.8916
		V2.8916C22.9893,1.8486,22.1406,1,21.0977,1H2.8813z"/>
	<path d="M19.4199,4H4.585c-0.2764,0-0.5-0.2236-0.5-0.5S4.3086,3,4.585,3h14.835c0.2764,0,0.5,0.2236,0.5,0.5S19.6963,4,19.4199,4z
		"/>
</g>
<rect x="-0.0136" y="0.0002" fill="none" width="24" height="24"/>
</svg>
