<?xml version="1.0" encoding="utf-8"?>
<!-- Generator: Adobe Illustrator 18.1.0, SVG Export Plug-In . SVG Version: 6.00 Build 0)  -->
<svg version="1.1" id="Layer_1" xmlns="http://www.w3.org/2000/svg" xmlns:xlink="http://www.w3.org/1999/xlink" x="0px" y="0px"
	 width="24px" height="24px" viewBox="0 0 24 24" enable-background="new 0 0 24 24" xml:space="preserve">
<g>
	<path d="M5.9766,20.752c-1.5854,0-2.875-1.0723-2.875-2.3906s1.2896-2.3916,2.875-2.3916s2.875,1.0732,2.875,2.3916
		S7.562,20.752,5.9766,20.752z M5.9766,16.9697c-1.0337,0-1.875,0.624-1.875,1.3916c0,0.7666,0.8413,1.3906,1.875,1.3906
		s1.875-0.624,1.875-1.3906C7.8516,17.5938,7.0103,16.9697,5.9766,16.9697z"/>
	<path d="M2.4062,23.6484c-0.8809,0-1.5977-0.6162-1.5977-1.373c0-0.7578,0.7168-1.374,1.5977-1.374s1.5972,0.6162,1.5972,1.374
		C4.0034,23.0322,3.2871,23.6484,2.4062,23.6484z M2.4062,21.9014c-0.3423,0-0.5977,0.1973-0.5977,0.374
		c0,0.1758,0.2554,0.373,0.5977,0.373c0.3418,0,0.5972-0.1973,0.5972-0.373C3.0034,22.0986,2.748,21.9014,2.4062,21.9014z"/>
	<path d="M13.2969,15.875c-0.999,0-1.936-0.2832-2.6763-0.8027c-1.2388,0.6133-2.9009,0.4541-3.8667-0.374
		c-3.1216-0.2236-5.5942-2.4463-5.9116-5.3457C0.5229,6.4312,2.5337,3.6606,5.5586,2.7812
		c0.3599-1.5415,1.8657-2.3691,3.1987-2.3691c0.8096,0,1.5449,0.2734,2.1162,0.7793c0.7788-0.5723,1.731-0.8833,2.7271-0.8833
		c1.4062,0,2.6855,0.6182,3.4785,1.666c1.3115,0.0273,2.5488,0.5615,3.4082,1.4756c0.7217,0.7686,1.1172,1.7451,1.1309,2.7788
		c1.1006,0.6763,1.7959,1.7026,1.9219,2.8564c0.1152,1.0542-0.251,2.1138-1.0322,2.9844c-1.0361,1.1562-2.665,1.8457-4.3555,1.8457
		l0,0c-0.2764,0-0.5527-0.0186-0.8271-0.0547C16.5342,15.0947,14.9961,15.875,13.2969,15.875z M10.665,13.9756
		c0.1152,0,0.2305,0.04,0.3228,0.1182c0.5957,0.5039,1.4155,0.7812,2.3091,0.7812c1.4463,0,2.7803-0.7188,3.3203-1.7891
		c0.1006-0.1982,0.3164-0.3066,0.541-0.2656c1.7139,0.334,3.5557-0.2471,4.6055-1.4185c0.416-0.4644,0.8896-1.2241,0.7822-2.2085
		c-0.0996-0.9111-0.708-1.7266-1.6689-2.2373c-0.1738-0.0918-0.2764-0.2764-0.2646-0.4722c0.0537-0.8716-0.249-1.7061-0.8535-2.3491
		c-0.6943-0.7383-1.709-1.1616-2.7852-1.1616l-0.1367,0.002c-0.1729,0.0107-0.3398-0.0796-0.4355-0.2266
		c-0.5879-0.9019-1.6348-1.4404-2.8008-1.4404c-0.9121,0-1.7749,0.3306-2.4277,0.9302c-0.1016,0.0928-0.2388,0.1396-0.3735,0.1304
		c-0.1372-0.0093-0.2642-0.0752-0.3516-0.1816c-0.4097-0.4995-1.0103-0.7749-1.6904-0.7749c-0.9966,0-2.1289,0.6401-2.2646,1.8267
		c-0.0234,0.209-0.1753,0.3804-0.3794,0.4297C3.3989,4.3223,1.5605,6.7192,1.8364,9.2441C2.106,11.707,4.271,13.585,6.9844,13.7109
		c0.124,0.0049,0.2412,0.0566,0.3296,0.1445c0.6948,0.6904,2.1392,0.7881,3.0859,0.1963
		C10.4814,14.001,10.5732,13.9756,10.665,13.9756z"/>
</g>
<rect y="-0.002" fill="none" width="24" height="24"/>
</svg>
