<?xml version="1.0" encoding="utf-8"?>
<!-- Generator: Adobe Illustrator 18.1.0, SVG Export Plug-In . SVG Version: 6.00 Build 0)  -->
<svg version="1.1" id="Layer_1" xmlns="http://www.w3.org/2000/svg" xmlns:xlink="http://www.w3.org/1999/xlink" x="0px" y="0px"
	 width="24px" height="24px" viewBox="0 0 24 24" enable-background="new 0 0 24 24" xml:space="preserve">
<g>
	<path d="M15.5146,15.5146c-0.2764,0-0.5-0.2236-0.5-0.5V2.7749c0-0.8589-0.7012-1.6123-1.5-1.6123
		c-0.7998,0-1.501,0.7534-1.501,1.6123v12.2397c0,0.2764-0.2231,0.5-0.4995,0.5s-0.5-0.2236-0.5-0.5V2.7749
		c0-1.416,1.145-2.6123,2.5005-2.6123s2.5,1.1963,2.5,2.6123v12.2397C16.0146,15.291,15.791,15.5146,15.5146,15.5146z"/>
	<path d="M7.5142,15.5146c-0.2764,0-0.5-0.2236-0.5-0.5V2.7749c0-1.5088,1.1143-2.832,2.3843-2.832c0.2764,0,0.5,0.2236,0.5,0.5
		s-0.2236,0.5-0.5,0.5c-0.7114,0-1.3843,0.8901-1.3843,1.832v12.2397C8.0142,15.291,7.7905,15.5146,7.5142,15.5146z"/>
	<path d="M12.4189,24.0146h-1.7231c-0.2422,0-0.4497-0.1738-0.4922-0.4121l-0.2461-1.3789
		c-0.7886-0.2988-2.3574-1.3408-1.6807-4.8047c0.0459-0.2354,0.2515-0.4043,0.4907-0.4043h5.5791
		c0.2393,0,0.4453,0.1689,0.4912,0.4043c0.6758,3.4639-0.8926,4.5049-1.6807,4.8047l-0.2461,1.3789
		C12.8682,23.8408,12.6611,24.0146,12.4189,24.0146z M11.1143,23.0146H12l0.2266-1.2676c0.0361-0.2002,0.1895-0.3594,0.3887-0.4014
		c0.8633-0.1816,1.6299-1.1553,1.3105-3.3311H9.189c-0.3198,2.1758,0.4468,3.1494,1.3101,3.3311
		c0.1992,0.042,0.3535,0.2012,0.3892,0.4014L11.1143,23.0146z"/>
</g>
<rect x="0.0142" y="0.0147" fill="none" width="24" height="24"/>
</svg>
