<?xml version="1.0" encoding="utf-8"?>
<!-- Generator: Adobe Illustrator 18.1.0, SVG Export Plug-In . SVG Version: 6.00 Build 0)  -->
<svg version="1.1" id="Layer_1" xmlns="http://www.w3.org/2000/svg" xmlns:xlink="http://www.w3.org/1999/xlink" x="0px" y="0px"
	 width="24px" height="24px" viewBox="0 0 24 24" enable-background="new 0 0 24 24" xml:space="preserve">
<g>
	<path d="M16.1973,7.8857c-0.1338,0-0.2666-0.0532-0.3652-0.1582c-1.001-1.0688-2.3525-1.6572-3.8076-1.6572
		c-1.4546,0-2.8066,0.5884-3.8076,1.6572C8.0283,7.9287,7.7119,7.9385,7.5103,7.7505C7.3086,7.562,7.2983,7.2456,7.4873,7.0439
		c1.1919-1.2729,2.8032-1.9736,4.5371-1.9736c1.7344,0,3.3457,0.7007,4.5381,1.9736c0.1885,0.2017,0.1777,0.5181-0.0234,0.7065
		C16.4424,7.8408,16.3203,7.8857,16.1973,7.8857z"/>
	<path d="M5.8296,5.6665c-0.1245,0-0.249-0.0459-0.3457-0.1387c-0.1997-0.1909-0.2065-0.5073-0.0156-0.707
		c1.7329-1.811,4.061-2.8081,6.5562-2.8081s4.8232,0.9971,6.5566,2.8081c0.1904,0.1992,0.1836,0.5161-0.0156,0.707
		c-0.1992,0.1914-0.5156,0.1826-0.707-0.0156c-1.543-1.6118-3.6143-2.4995-5.834-2.4995c-2.2192,0-4.291,0.8877-5.8335,2.4995
		C6.0928,5.6147,5.9609,5.6665,5.8296,5.6665z"/>
	<path d="M23.5225,23.9697H0.4946c-0.2764,0-0.5-0.2236-0.5-0.5V11.4712c0-0.2764,0.2236-0.5,0.5-0.5h23.0278
		c0.2764,0,0.5,0.2236,0.5,0.5v11.9985C24.0225,23.7461,23.7988,23.9697,23.5225,23.9697z M0.9946,22.9697h22.0278V11.9712H0.9946
		V22.9697z"/>
	<path d="M15.9932,21.0098H8.0557c-0.2764,0-0.5-0.2236-0.5-0.5s0.2236-0.5,0.5-0.5h7.9375c0.2764,0,0.5,0.2236,0.5,0.5
		S16.2695,21.0098,15.9932,21.0098z"/>
	<path d="M6.5098,17.9697c-0.1299,0-0.25-0.0498-0.3501-0.1396c-0.0996-0.1006-0.1499-0.2305-0.1499-0.3604
		c0-0.1396,0.0601-0.2695,0.1499-0.3604c0.1802-0.1797,0.52-0.1797,0.7002,0.0107c0.1001,0.0801,0.1499,0.21,0.1499,0.3496
		c0,0.1299-0.0498,0.2598-0.1499,0.3496C6.77,17.9199,6.6396,17.9697,6.5098,17.9697z"/>
	<path d="M9.5098,17.9697c-0.1299,0-0.2598-0.0498-0.3501-0.1396c-0.0996-0.1006-0.1499-0.2305-0.1499-0.3604
		s0.0503-0.2598,0.1499-0.3496c0.1899-0.1904,0.52-0.1904,0.7002,0c0.1001,0.0801,0.1499,0.2197,0.1499,0.3496
		S9.96,17.7295,9.8599,17.8193C9.77,17.9199,9.6396,17.9697,9.5098,17.9697z"/>
	<path d="M12.5098,17.9697c-0.1299,0-0.2598-0.0498-0.3496-0.1396c-0.1006-0.1006-0.1504-0.2305-0.1504-0.3604
		s0.0498-0.2598,0.1504-0.3604c0.1797-0.1797,0.5195-0.1797,0.71,0.0107c0.0898,0.0898,0.1396,0.2197,0.1396,0.3496
		s-0.0498,0.2598-0.1396,0.3496C12.7695,17.9199,12.6396,17.9697,12.5098,17.9697z"/>
	<path d="M15.5098,17.9697c-0.1299,0-0.2598-0.0498-0.3496-0.1504c-0.1006-0.0898-0.1504-0.2197-0.1504-0.3496
		c0-0.1396,0.0596-0.2695,0.1504-0.3604c0.1592-0.1699,0.5098-0.1797,0.6992,0c0.1006,0.1006,0.1504,0.2305,0.1504,0.3604
		s-0.0498,0.2598-0.1396,0.3496C15.7695,17.9199,15.6396,17.9697,15.5098,17.9697z"/>
	<path d="M18.5098,17.9697c-0.1299,0-0.2598-0.0498-0.3496-0.1396c-0.0908-0.1006-0.1504-0.2305-0.1504-0.3604
		c0-0.1396,0.0596-0.2598,0.1504-0.3604c0.1895-0.1797,0.5195-0.1797,0.6992,0c0.1006,0.1006,0.1504,0.2305,0.1504,0.3604
		s-0.0498,0.2598-0.1396,0.3496C18.7695,17.9199,18.6396,17.9697,18.5098,17.9697z"/>
	<path d="M4.5098,15.9697c-0.1299,0-0.2598-0.0498-0.3501-0.1396c-0.0996-0.1006-0.1499-0.2305-0.1499-0.3604
		s0.0503-0.25,0.1401-0.3496c0.1899-0.1904,0.5298-0.1904,0.71,0c0.1001,0.0996,0.1499,0.2197,0.1499,0.3496
		S4.96,15.7295,4.8696,15.8193C4.77,15.9199,4.6396,15.9697,4.5098,15.9697z"/>
	<path d="M7.5098,15.9697c-0.1299,0-0.2598-0.0498-0.3501-0.1396c-0.0996-0.1006-0.1499-0.2305-0.1499-0.3604
		s0.0503-0.25,0.1401-0.3496c0.1997-0.2002,0.54-0.1904,0.7197,0C7.96,15.21,8.0098,15.3398,8.0098,15.4697
		S7.96,15.7295,7.8599,15.8193C7.77,15.9199,7.6396,15.9697,7.5098,15.9697z"/>
	<path d="M10.5098,15.9697c-0.1299,0-0.25-0.0498-0.3501-0.1396c-0.0996-0.1006-0.1499-0.2305-0.1499-0.3604
		s0.0503-0.2598,0.1499-0.3496c0.1899-0.1904,0.52-0.1904,0.7002,0c0.1001,0.0898,0.1499,0.2197,0.1499,0.3496
		s-0.0498,0.2598-0.1499,0.3496C10.77,15.9199,10.6396,15.9697,10.5098,15.9697z"/>
	<path d="M13.5098,15.9697c-0.1299,0-0.2598-0.0498-0.3496-0.1396c-0.1006-0.1006-0.1504-0.2305-0.1504-0.3604
		s0.0498-0.25,0.1396-0.3496c0.2002-0.1904,0.5303-0.1904,0.7207,0c0.0898,0.0996,0.1396,0.2197,0.1396,0.3496
		s-0.0498,0.2598-0.1396,0.3496C13.7695,15.9199,13.6396,15.9697,13.5098,15.9697z"/>
	<path d="M16.5098,15.9697c-0.1299,0-0.2598-0.0498-0.3496-0.1396c-0.1006-0.1006-0.1504-0.2305-0.1504-0.3604
		s0.0596-0.2598,0.1504-0.3604c0.1699-0.1699,0.5098-0.1797,0.71,0.0107c0.0898,0.0898,0.1396,0.2197,0.1396,0.3496
		s-0.0498,0.25-0.1396,0.3496C16.7598,15.9199,16.6396,15.9697,16.5098,15.9697z"/>
	<path d="M19.5098,15.9697c-0.1299,0-0.25-0.0498-0.3496-0.1396c-0.1006-0.1006-0.1504-0.2305-0.1504-0.3604
		s0.0596-0.2598,0.1504-0.3496c0.1797-0.1904,0.5195-0.1904,0.71,0c0.0898,0.0898,0.1396,0.2197,0.1396,0.3496
		s-0.0498,0.25-0.1396,0.3496C19.7695,15.9199,19.6396,15.9697,19.5098,15.9697z"/>
</g>
<rect fill="none" width="24" height="24"/>
</svg>
