<?xml version="1.0" encoding="utf-8"?>
<!-- Generator: Adobe Illustrator 18.1.0, SVG Export Plug-In . SVG Version: 6.00 Build 0)  -->
<svg version="1.1" id="Layer_1" xmlns="http://www.w3.org/2000/svg" xmlns:xlink="http://www.w3.org/1999/xlink" x="0px" y="0px"
	 width="24px" height="24px" viewBox="0 0 24 24" enable-background="new 0 0 24 24" xml:space="preserve">
<g>
	<path d="M6.624,23.7783c-0.0718,0-0.1436-0.0156-0.2109-0.0469c-0.1763-0.082-0.2891-0.2588-0.2891-0.4531v-5.3818
		c-2.9771-0.918-5.9263-4.373-5.9263-8.873c0-4.8921,3.7227-9.0254,8.1289-9.0254h7.521c4.2988,0,7.9307,4.1216,7.9307,9
		c0,4.8789-3.6318,9-7.9307,9h-2.1865l-6.7148,5.6621C6.8545,23.7383,6.7397,23.7783,6.624,23.7783z M8.3267,0.998
		c-3.7979,0-7.1289,3.75-7.1289,8.0254c0,4.1982,2.8169,7.3662,5.54,8.0039c0.2266,0.0537,0.3862,0.2549,0.3862,0.4873v4.6875
		l6.0322-5.0859c0.0898-0.0762,0.2041-0.1182,0.3223-0.1182h2.3691c3.7568,0,6.9307-3.6631,6.9307-8c0-4.3364-3.1738-8-6.9307-8
		H8.3267z"/>
	<path d="M12.1377,14.6338c-0.1348,0-0.2632-0.0537-0.3569-0.1504L7.3716,9.9849c-1.2319-1.2563-1.2319-3.3003,0-4.5562
		c1.1978-1.2231,3.2939-1.2241,4.4932,0l0.2729,0.2783l0.2725-0.2788c1.1982-1.2236,3.2939-1.2246,4.4941,0
		c1.2305,1.2563,1.2305,3.3003,0,4.5562l-4.4092,4.499C12.4004,14.5801,12.2725,14.6338,12.1377,14.6338z M9.6182,5.48
		c-0.5786,0-1.1226,0.2305-1.5327,0.6489c-0.853,0.8696-0.853,2.2856,0,3.1558l4.0522,4.1353l4.0518-4.1353
		c0.8525-0.8701,0.8525-2.2861,0-3.1567c-0.8213-0.8369-2.2471-0.835-3.0645,0l-0.6299,0.6436
		c-0.1885,0.1904-0.5264,0.1914-0.7144,0l-0.6299-0.6426C10.7407,5.7104,10.1963,5.48,9.6182,5.48z"/>
</g>
<rect y="-0.002" fill="none" width="24" height="24"/>
</svg>
