<?xml version="1.0" encoding="utf-8"?>
<!-- Generator: Adobe Illustrator 18.1.0, SVG Export Plug-In . SVG Version: 6.00 Build 0)  -->
<svg version="1.1" id="Layer_1" xmlns="http://www.w3.org/2000/svg" xmlns:xlink="http://www.w3.org/1999/xlink" x="0px" y="0px"
	 width="24px" height="24px" viewBox="0 0 24 24" enable-background="new 0 0 24 24" xml:space="preserve">
<g>
	<path d="M15.4043,23.083c-1.083,0-2.1357-0.4629-2.8955-1.333c-1.2046-1.3818-1.9727-3.2568-2.2837-5.5713
		c-0.0366-0.2734,0.1553-0.5254,0.4292-0.5615c0.2759-0.0498,0.5254,0.1553,0.562,0.4287c0.2842,2.1172,0.9731,3.8145,2.0464,5.0469
		c0.8613,0.9883,2.2354,1.2656,3.4092,0.6934c3.9551-1.918,5.6523-7.585,6.1982-9.9321c0.0469-0.1997-0.0029-0.4033-0.1348-0.5591
		c-0.1328-0.1558-0.3252-0.2329-0.5322-0.2246c-4.0283,0.2676-6.0752-0.4902-7.4277-0.9917
		c-0.2588-0.0962-0.4229-0.396-0.3262-0.6548c0.0947-0.2588,0.3506-0.4053,0.6104-0.3066l0.0645,0.0239
		c1.3477,0.5005,3.1895,1.187,7.0127,0.9312c0.5381-0.0308,1.0215,0.1753,1.3604,0.5752c0.3398,0.3999,0.4668,0.9219,0.3477,1.4336
		c-0.7188,3.0889-2.5498,8.5742-6.7363,10.6055C16.5586,22.9531,15.9775,23.083,15.4043,23.083z"/>
	<path d="M14.3262,15.7959c-0.1025,0-0.207-0.0098-0.3115-0.0312c-0.5322-0.1084-1.0605-0.5889-1.3252-0.9902
		c-0.2256-0.3408-0.3125-0.6787-0.252-0.9775c0.0518-0.2529,0.2988-0.8447,1.4648-0.8447c0.2246,0,0.4639,0.0244,0.6729,0.0664
		c0.3779,0.0771,0.709,0.2881,0.9297,0.5938c0.2295,0.3184,0.3145,0.7002,0.2383,1.0742
		C15.6113,15.3291,15.0156,15.7959,14.3262,15.7959z M13.9023,13.9521c-0.3311,0-0.4824,0.0693-0.5098,0.0938
		c0.0225,0.1309,0.4922,0.6719,0.8213,0.7383c0.2559,0.0527,0.5068-0.0869,0.5488-0.2979c0.0273-0.1309-0.0312-0.2373-0.0684-0.2881
		c-0.0732-0.1016-0.1865-0.1729-0.3193-0.1992C14.2314,13.9697,14.0596,13.9521,13.9023,13.9521z"/>
	<path d="M18.3477,16.6162c-0.001,0-0.001,0-0.001,0c-0.1006,0-0.1953-0.0088-0.2822-0.0264
		c-0.3955-0.0811-0.7471-0.3145-0.9639-0.6426c-0.2041-0.3086-0.2773-0.6729-0.2051-1.0264
		c0.1523-0.7402,0.9453-1.2305,1.7295-1.0771c0.1113,0.0234,1.1113,0.2412,1.5137,0.8486c0.1445,0.2188,0.1953,0.4629,0.1465,0.7041
		C20.1299,16.1523,19.0518,16.6162,18.3477,16.6162z M18.3115,14.8125c-0.2158,0-0.3994,0.1299-0.4355,0.3096
		c-0.0244,0.1162,0.0186,0.2129,0.0586,0.2734c0.0713,0.1084,0.1914,0.1865,0.3291,0.2139l0.083,0.0068
		c0.4072,0,0.9062-0.2939,0.9609-0.4277c-0.0508-0.0479-0.4443-0.2754-0.8828-0.3643
		C18.3867,14.8164,18.3486,14.8125,18.3115,14.8125z"/>
	<path d="M17.0615,20.624c-0.1777,0-0.3545-0.0469-0.5137-0.1357c-0.8047-0.4502-1.7412-0.6455-2.6631-0.543
		c-0.0176,0.002-0.1006,0.0068-0.1191,0.0068c-0.4297,0-0.8145-0.2637-0.9775-0.6719c-0.165-0.4111-0.0654-0.8721,0.251-1.1748
		c0.7363-0.7002,1.7793-1.001,2.7695-0.7979c0.9971,0.2041,1.833,0.8828,2.2363,1.8174c0.1426,0.3301,0.1104,0.707-0.0869,1.0068
		C17.7588,20.4355,17.415,20.624,17.0615,20.624z M14.3652,18.9189c0.9326,0,1.8564,0.2412,2.6709,0.6963l0.0254,0.0088
		c0.0166,0,0.0439-0.0156,0.0605-0.041c-0.2686-0.6963-0.8369-1.1572-1.5127-1.2949c-0.6807-0.1416-1.3799,0.0654-1.8799,0.541
		l0.0361,0.123C13.9727,18.9297,14.1689,18.9189,14.3652,18.9189z"/>
	<path d="M7.7402,16.0068c-0.8203,0-1.6143-0.249-2.2969-0.7207c-4.02-2.7754-5.0449-8.7651-5.2979-12.0884
		C0.1094,2.7202,0.2676,2.2646,0.5923,1.9146c0.4048-0.4375,1.0254-0.6362,1.6113-0.5054C3.7661,1.7505,5.1738,1.916,6.5078,1.916
		c0.0005,0,0.0005,0,0.0005,0c1.8403,0,3.6538-0.313,5.7075-0.9849c0.1729-0.0566,0.3516-0.0854,0.5312-0.0854
		c0.917,0,1.6787,0.7466,1.6973,1.6641c0.0693,3.3311-0.3721,9.3896-4.1006,12.5391C9.6118,15.667,8.6875,16.0068,7.7402,16.0068z
		 M1.8364,2.3691c-0.1919,0-0.3779,0.082-0.5107,0.2256C1.1924,2.7378,1.1274,2.9253,1.1426,3.1216
		c0.1929,2.5327,1.0532,8.7075,4.8691,11.3423c1.1094,0.7666,2.6587,0.6885,3.6865-0.1787
		c3.5391-2.9897,3.7988-9.2163,3.7461-11.7549c-0.0098-0.4521-0.4805-0.792-0.918-0.6489C10.3696,2.5874,8.4575,2.916,6.5083,2.916
		c0,0,0,0-0.0005,0c-1.4062,0-2.8843-0.1733-4.5181-0.5303C1.939,2.3745,1.8872,2.3691,1.8364,2.3691z"/>
	<path d="M5.3452,8.7935c-0.7529,0-1.9868-0.7197-2.0283-1.5723C3.2764,6.3809,4.2988,5.9468,5.2666,5.8994
		c0.0015,0,0.0029,0,0.0044,0c0.8911,0,1.5557,0.603,1.5933,1.3721c0.0386,0.7974-0.6147,1.479-1.4565,1.5205
		C5.3994,8.7925,5.3535,8.7935,5.3452,8.7935z M5.3457,6.8975C4.8276,6.9224,4.3745,7.103,4.3071,7.2134
		c0.0449,0.1455,0.6567,0.5801,1.0381,0.5801v0.5L5.3594,7.793c0.2905-0.0142,0.5181-0.2261,0.5059-0.4727
		C5.854,7.083,5.6255,6.8975,5.3457,6.8975z"/>
	<path d="M9.6694,8.5825c-0.8135,0-1.48-0.6035-1.5176-1.3735c-0.019-0.394,0.127-0.7705,0.4116-1.0596
		c0.2739-0.2778,0.645-0.4414,1.0454-0.4609l0.1543-0.0034c0.8579,0,1.874,0.2959,1.9146,1.1294
		c0.0264,0.5493-0.4189,0.999-0.687,1.2183c-0.397,0.3247-0.8608,0.5293-1.2417,0.5479C9.7412,8.5811,9.6777,8.5825,9.6694,8.5825z
		 M9.7632,6.6851l-0.106,0.0024C9.5083,6.6943,9.373,6.7529,9.2759,6.8511C9.1899,6.939,9.1455,7.0483,9.1509,7.1602
		C9.1621,7.397,9.3901,7.5825,9.6694,7.5825v0.5l0.0312-0.501c0.3638-0.0176,0.96-0.5264,0.978-0.7231
		C10.6323,6.8247,10.2715,6.6851,9.7632,6.6851z"/>
	<path d="M7.6328,13.0752c-1.0132,0-1.9497-0.4609-2.5703-1.2642c-0.2568-0.3335-0.3008-0.7764-0.1143-1.1562
		c0.231-0.4702,0.7544-0.7183,1.2593-0.5815c0.9429,0.251,1.9561,0.2021,2.8696-0.1396c0.502-0.187,1.0776,0.0332,1.3379,0.5049
		c0.1963,0.355,0.1851,0.771-0.0298,1.1133c-0.5635,0.8994-1.5332,1.4678-2.5933,1.5195L7.6328,13.0752z M5.9497,11.0391
		l-0.104,0.0566c-0.0278,0.0571-0.0024,0.0898,0.0088,0.104c0.4292,0.5566,1.0776,0.8755,1.7783,0.8755l0.1108-0.002
		c0.7329-0.0361,1.4043-0.4297,1.7944-1.0527L9.46,10.8633C8.2959,11.2896,7.0928,11.3442,5.9497,11.0391z"/>
</g>
<rect x="0.0142" y="0.0354" fill="none" width="24" height="24"/>
</svg>
