<?xml version="1.0" encoding="utf-8"?>
<!-- Generator: Adobe Illustrator 18.1.0, SVG Export Plug-In . SVG Version: 6.00 Build 0)  -->
<svg version="1.1" id="Layer_1" xmlns="http://www.w3.org/2000/svg" xmlns:xlink="http://www.w3.org/1999/xlink" x="0px" y="0px"
	 width="24px" height="24px" viewBox="0 0 24 24" enable-background="new 0 0 24 24" xml:space="preserve">
<g>
	<path d="M15.5176,4.0347H8.5171c-0.2764,0-0.5-0.2236-0.5-0.5v-3c0-0.2764,0.2236-0.5,0.5-0.5h7.0005c0.2764,0,0.5,0.2236,0.5,0.5
		v3C16.0176,3.811,15.7939,4.0347,15.5176,4.0347z M9.0171,3.0347h6.0005v-2H9.0171V3.0347z"/>
	<path d="M16.2139,24.0352H7.8203c-1.5195,0-2.8032-1.2383-2.8032-2.7031V10.0752c0-2.0469,2.9575-3.5161,4-3.9702V3.5347
		c0-0.2764,0.2236-0.5,0.5-0.5h5.0005c0.2764,0,0.5,0.2236,0.5,0.5v2.5771c1.0312,0.4731,4,2.0044,4,3.9634V21.332
		C19.0176,22.7969,17.7334,24.0352,16.2139,24.0352z M10.0171,4.0347v2.4038c0,0.2056-0.126,0.3901-0.3174,0.4653
		c-0.9556,0.3755-3.6826,1.7637-3.6826,3.1714V21.332c0,0.9072,0.8428,1.7031,1.8032,1.7031h8.3936
		c0.9609,0,1.8037-0.7959,1.8037-1.7031V10.0752c0-1.334-2.7344-2.7759-3.6924-3.1758c-0.1865-0.0776-0.3076-0.2598-0.3076-0.4614
		V4.0347H10.0171z"/>
	<path d="M14.4932,19.9424c-0.0762,0-0.1523-0.0166-0.2246-0.0527l-4.9512-2.4844c-0.2471-0.124-0.3467-0.4248-0.2227-0.6719
		c0.123-0.2461,0.4248-0.3477,0.6709-0.2227l4.9521,2.4844c0.2461,0.124,0.3457,0.4248,0.2227,0.6719
		C14.8525,19.8418,14.6758,19.9424,14.4932,19.9424z"/>
	<path d="M12.8389,13.2354c-0.2764,0-0.5-0.2168-0.5-0.4932v-0.0146c0-0.2764,0.2236-0.5,0.5-0.5s0.5,0.2236,0.5,0.5
		S13.1152,13.2354,12.8389,13.2354z"/>
	<path d="M11.2524,13.2412c-0.2764,0-0.5-0.2158-0.5-0.4922v-0.0146c0-0.2764,0.2236-0.5,0.5-0.5s0.5,0.2236,0.5,0.5
		S11.5288,13.2412,11.2524,13.2412z"/>
	<path d="M12.0176,15.998c-0.9697,0-1.7656-0.6084-2.0181-1.5264c-0.6528-0.8271-1.04-1.7568-1.04-2.5059
		c0-1.6235,1.2861-2.8018,3.0581-2.8018c1.7715,0,3.0576,1.1782,3.0576,2.8018c0,0.75-0.3867,1.6797-1.04,2.5059
		C13.7822,15.3896,12.9863,15.998,12.0176,15.998z M12.0176,10.1641c-0.9912,0-2.0581,0.564-2.0581,1.8018
		c0,0.5439,0.3394,1.2959,0.8853,1.9609c0.0508,0.0615,0.0854,0.1338,0.1025,0.2119c0.1372,0.6338,0.6621,0.8594,1.0703,0.8594
		c0.4072,0,0.9326-0.2256,1.0703-0.8594c0.0166-0.0781,0.0518-0.1504,0.1016-0.2119c0.5469-0.665,0.8857-1.416,0.8857-1.9609
		C14.0752,10.728,13.0088,10.1641,12.0176,10.1641z"/>
	<path d="M9.3311,17.877c-0.0742,0-0.1499-0.0166-0.2217-0.0518c-0.2471-0.123-0.3486-0.4229-0.2261-0.6699l0.4189-0.8457
		c0.1221-0.248,0.4204-0.3486,0.6704-0.2266c0.2471,0.123,0.3486,0.4229,0.2261,0.6699l-0.4189,0.8457
		C9.6924,17.7754,9.5151,17.877,9.3311,17.877z"/>
	<path d="M14.2842,20.3652c-0.0752,0-0.1504-0.0166-0.2217-0.0518c-0.248-0.123-0.3486-0.4229-0.2266-0.6699l0.4189-0.8457
		c0.124-0.249,0.4238-0.3486,0.6699-0.2266c0.248,0.123,0.3486,0.4229,0.2266,0.6699l-0.4189,0.8457
		C14.6445,20.2637,14.4678,20.3652,14.2842,20.3652z"/>
	<path d="M9.5415,19.9424c-0.1831,0-0.3599-0.1006-0.4473-0.2754c-0.124-0.2471-0.0244-0.5479,0.2227-0.6719l4.9517-2.4844
		c0.2451-0.124,0.5469-0.0254,0.6719,0.2227c0.123,0.2471,0.0234,0.5479-0.2227,0.6719l-4.9526,2.4844
		C9.6934,19.9258,9.6167,19.9424,9.5415,19.9424z"/>
	<path d="M14.7031,17.877c-0.1836,0-0.3604-0.1016-0.4482-0.2783l-0.4189-0.8457c-0.1221-0.2471-0.0215-0.5469,0.2266-0.6699
		c0.2451-0.1201,0.5459-0.0225,0.6699,0.2266l0.4189,0.8457c0.1221,0.2471,0.0215,0.5469-0.2266,0.6699
		C14.8535,17.8604,14.7783,17.877,14.7031,17.877z"/>
	<path d="M9.751,20.3652c-0.1841,0-0.3613-0.1016-0.4487-0.2783l-0.4189-0.8457c-0.1226-0.2471-0.021-0.5469,0.2261-0.6699
		c0.249-0.123,0.5474-0.0215,0.6704,0.2266l0.4189,0.8457c0.1226,0.2471,0.021,0.5469-0.2261,0.6699
		C9.9009,20.3486,9.8252,20.3652,9.751,20.3652z"/>
</g>
<rect x="0.0142" y="0.0346" fill="none" width="24" height="24"/>
</svg>
