<?xml version="1.0" encoding="utf-8"?>
<!-- Generator: Adobe Illustrator 18.1.0, SVG Export Plug-In . SVG Version: 6.00 Build 0)  -->
<svg version="1.1" id="Layer_1" xmlns="http://www.w3.org/2000/svg" xmlns:xlink="http://www.w3.org/1999/xlink" x="0px" y="0px"
	 width="24px" height="24px" viewBox="0 0 24 24" enable-background="new 0 0 24 24" xml:space="preserve">
<g>
	<path d="M16.3916,15.9297c-0.2764,0-0.5-0.2236-0.5-0.5v-0.4971c-2.8281-1.1025-3.1787-1.5527-3.293-1.9199
		c-0.0146-0.0479-0.0225-0.0977-0.0225-0.1484v-0.4434c0-0.1309,0.0508-0.2559,0.1426-0.3496
		c0.2373-0.2432,0.4238-0.5869,0.5381-0.9937c0.0312-0.1108,0.0996-0.2075,0.1934-0.2734c0.0479-0.0337,0.0791-0.0869,0.0879-0.147
		c0.0059-0.043,0.002-0.1074-0.0498-0.1709c-0.0723-0.0894-0.1123-0.2007-0.1123-0.3159V9.1777c0-0.8369-0.4365-1.2266-1.375-1.2266
		c-0.9136,0-1.3765,0.4126-1.3765,1.2266v0.9932c0,0.1147-0.0396,0.2261-0.1118,0.3154c-0.0518,0.063-0.0552,0.1274-0.0493,0.1704
		c0.0083,0.0601,0.04,0.1138,0.0874,0.147c0.0942,0.0664,0.1626,0.1631,0.1934,0.2739c0.1138,0.4067,0.2998,0.7505,0.5381,0.9937
		c0.0913,0.0938,0.1426,0.2188,0.1426,0.3496v0.4434c0,0.0498-0.0078,0.1006-0.0225,0.1484
		c-0.1138,0.3662-0.4644,0.8174-3.2935,1.9199v0.4971c0,0.2764-0.2236,0.5-0.5,0.5s-0.5-0.2236-0.5-0.5v-0.6221
		c0-0.334,0.2085-0.6396,0.5186-0.7607c2.0898-0.8086,2.6504-1.1963,2.7974-1.332v-0.1025c-0.2563-0.3066-0.46-0.687-0.5981-1.1147
		c-0.1909-0.187-0.3169-0.4351-0.354-0.7041c-0.0376-0.2725,0.0161-0.542,0.1519-0.7759V9.1777
		c0-1.3735,0.9106-2.2266,2.3765-2.2266c1.4873,0,2.375,0.8325,2.375,2.2266v0.8389c0.1367,0.2344,0.1904,0.5039,0.1523,0.7769
		c-0.0371,0.2695-0.1631,0.5181-0.3545,0.7051c-0.1377,0.4272-0.3418,0.8071-0.5977,1.1138v0.1221
		c0.1055,0.0859,0.627,0.4727,2.7959,1.3115c0.3096,0.1182,0.5195,0.4238,0.5195,0.7617v0.6221
		C16.8916,15.7061,16.668,15.9297,16.3916,15.9297z"/>
	<path d="M12.6748,6.0005h-1.3491c-0.6465,0-1.1699-0.4395-1.2451-1.0449L9.6328,1.4141C9.5884,1.0625,9.6982,0.7168,9.9414,0.4414
		c0.2432-0.2764,0.5933-0.4409,0.9365-0.4409h2.2451c0.3438,0,0.6963,0.1665,0.9414,0.4448
		c0.2393,0.2715,0.3477,0.6104,0.3037,0.9546l-0.4482,3.5659C13.8467,5.5645,13.3223,6.0005,12.6748,6.0005z M10.8779,1.0005
		c-0.0479,0-0.1274,0.0352-0.1865,0.1021c-0.0361,0.041-0.0767,0.106-0.0664,0.1865l0.4478,3.5425
		c0.0137,0.1113,0.1377,0.1689,0.2529,0.1689h1.3491c0.1123,0,0.2393-0.0493,0.2529-0.1582l0.4482-3.5679
		c0.0088-0.0708-0.0283-0.1304-0.0615-0.168c-0.0605-0.0688-0.1436-0.106-0.1914-0.106H10.8779z"/>
	<path d="M17.6436,24H6.3579c-1.3438,0-2.3574-0.9131-2.3574-2.125V6.2358c0-1.2324,1.0576-2.2354,2.3574-2.2354h1.6426
		c0.2764,0,0.5,0.2236,0.5,0.5s-0.2236,0.5-0.5,0.5H6.3579c-0.7485,0-1.3574,0.5542-1.3574,1.2354V21.875
		c0,0.7305,0.6992,1.125,1.3574,1.125h11.2856c0.6582,0,1.3574-0.3945,1.3574-1.125V6.2358c0-0.6812-0.6094-1.2354-1.3574-1.2354
		H16.001c-0.2764,0-0.5-0.2236-0.5-0.5s0.2236-0.5,0.5-0.5h1.6426c1.2998,0,2.3574,1.0029,2.3574,2.2354V21.875
		C20.001,23.0869,18.9873,24,17.6436,24z"/>
	<path d="M16.3916,21h-3.7822c-0.2764,0-0.5-0.2236-0.5-0.5s0.2236-0.5,0.5-0.5h3.7822c0.2764,0,0.5,0.2236,0.5,0.5
		S16.668,21,16.3916,21z"/>
	<path d="M9.6089,21h-2c-0.2764,0-0.5-0.2236-0.5-0.5s0.2236-0.5,0.5-0.5h2c0.2764,0,0.5,0.2236,0.5,0.5S9.8853,21,9.6089,21z"/>
	<path d="M19.501,18H4.5005c-0.2764,0-0.5-0.2236-0.5-0.5s0.2236-0.5,0.5-0.5H19.501c0.2764,0,0.5,0.2236,0.5,0.5
		S19.7773,18,19.501,18z"/>
	<path d="M12,3.02c-0.1304,0-0.25-0.0503-0.3501-0.1401C11.5498,2.7798,11.5,2.6499,11.5,2.52c0-0.1304,0.0498-0.2603,0.1499-0.3501
		c0.1899-0.1899,0.52-0.1899,0.6997-0.0103C12.4502,2.2598,12.5,2.3896,12.5,2.52c0,0.1299-0.0498,0.2598-0.1504,0.3599
		C12.2598,2.9697,12.1299,3.02,12,3.02z"/>
</g>
<rect x="0.0005" y="0.0004" fill="none" width="24" height="24"/>
</svg>
