<?xml version="1.0" encoding="utf-8"?>
<!-- Generator: Adobe Illustrator 18.1.0, SVG Export Plug-In . SVG Version: 6.00 Build 0)  -->
<svg version="1.1" id="Layer_1" xmlns="http://www.w3.org/2000/svg" xmlns:xlink="http://www.w3.org/1999/xlink" x="0px" y="0px"
	 width="24px" height="24px" viewBox="0 0 24 24" enable-background="new 0 0 24 24" xml:space="preserve">
<g>
	<path d="M21.4434,23.9932H2.4595c-0.2764,0-0.5-0.2236-0.5-0.5V2.0439c0-0.2764,0.2236-0.5,0.5-0.5h18.9839
		c0.2764,0,0.5,0.2236,0.5,0.5v21.4492C21.9434,23.7695,21.7197,23.9932,21.4434,23.9932z M2.9595,22.9932h17.9839V2.5439H2.9595
		V22.9932z"/>
	<path d="M17.4932,20.0312H6.5625c-0.2764,0-0.5-0.2236-0.5-0.5s0.2236-0.5,0.5-0.5h10.9307c0.2764,0,0.5,0.2236,0.5,0.5
		S17.7695,20.0312,17.4932,20.0312z"/>
	<path d="M17.4932,16.9941H6.5625c-0.2764,0-0.5-0.2236-0.5-0.5s0.2236-0.5,0.5-0.5h10.9307c0.2764,0,0.5,0.2236,0.5,0.5
		S17.7695,16.9941,17.4932,16.9941z"/>
	<path d="M17.4932,13.957H6.5625c-0.2764,0-0.5-0.2236-0.5-0.5s0.2236-0.5,0.5-0.5h10.9307c0.2764,0,0.5,0.2236,0.5,0.5
		S17.7695,13.957,17.4932,13.957z"/>
	<path d="M11.5215,10.9902h-4.959c-0.2764,0-0.5-0.2236-0.5-0.5s0.2236-0.5,0.5-0.5h4.959c0.2764,0,0.5,0.2236,0.5,0.5
		S11.7979,10.9902,11.5215,10.9902z"/>
	<path d="M6.4917,5.2871c-0.2764,0-0.5-0.2236-0.5-0.5v-4.21c0-0.2764,0.2236-0.5,0.5-0.5s0.5,0.2236,0.5,0.5v4.21
		C6.9917,5.0635,6.7681,5.2871,6.4917,5.2871z"/>
	<path d="M12.0049,5.2871c-0.2764,0-0.5-0.2236-0.5-0.5v-4.21c0-0.2764,0.2236-0.5,0.5-0.5s0.5,0.2236,0.5,0.5v4.21
		C12.5049,5.0635,12.2812,5.2871,12.0049,5.2871z"/>
	<path d="M6.4912,7.1763c-0.9175,0-1.6641-0.7432-1.6641-1.6567s0.7466-1.6572,1.6641-1.6572c0.918,0,1.6646,0.7437,1.6646,1.6572
		S7.4092,7.1763,6.4912,7.1763z M6.4912,4.8623c-0.3662,0-0.6641,0.2949-0.6641,0.6572S6.125,6.1763,6.4912,6.1763
		s0.6646-0.2944,0.6646-0.6567S6.8574,4.8623,6.4912,4.8623z"/>
	<path d="M17.4932,5.2871c-0.2764,0-0.5-0.2236-0.5-0.5v-4.21c0-0.2764,0.2236-0.5,0.5-0.5s0.5,0.2236,0.5,0.5v4.21
		C17.9932,5.0635,17.7695,5.2871,17.4932,5.2871z"/>
	<path d="M17.4922,7.1763c-0.918,0-1.6641-0.7432-1.6641-1.6567s0.7461-1.6572,1.6641-1.6572s1.6641,0.7437,1.6641,1.6572
		S18.4102,7.1763,17.4922,7.1763z M17.4922,4.8623c-0.3662,0-0.6641,0.2949-0.6641,0.6572s0.2979,0.6567,0.6641,0.6567
		s0.6641-0.2944,0.6641-0.6567S17.8584,4.8623,17.4922,4.8623z"/>
	<path d="M12,7.1763c-0.9175,0-1.6641-0.7432-1.6641-1.6567S11.0825,3.8623,12,3.8623c0.918,0,1.6641,0.7437,1.6641,1.6572
		S12.918,7.1763,12,7.1763z M12,4.8623c-0.3662,0-0.6641,0.2949-0.6641,0.6572S11.6338,6.1763,12,6.1763
		s0.6641-0.2944,0.6641-0.6567S12.3662,4.8623,12,4.8623z"/>
</g>
<rect y="0.0001" fill="none" width="24" height="24"/>
</svg>
