<?xml version="1.0" encoding="utf-8"?>
<!-- Generator: Adobe Illustrator 18.1.0, SVG Export Plug-In . SVG Version: 6.00 Build 0)  -->
<svg version="1.1" id="Layer_1" xmlns="http://www.w3.org/2000/svg" xmlns:xlink="http://www.w3.org/1999/xlink" x="0px" y="0px"
	 width="24px" height="24px" viewBox="0 0 24 24" enable-background="new 0 0 24 24" xml:space="preserve">
<g>
	<path d="M19,24.001H5c-0.2764,0-0.5-0.2236-0.5-0.5s0.2236-0.5,0.5-0.5h14c0.2764,0,0.5,0.2236,0.5,0.5S19.2764,24.001,19,24.001z"
		/>
	<path d="M12.6699,19.001h-1.3398C7.8398,19.001,5,16.2734,5,12.9209V1.5098c0-0.2764,0.2236-0.5,0.5-0.5S6,1.2334,6,1.5098v11.4111
		c0,2.8008,2.3911,5.0801,5.3301,5.0801h1.3398c2.9395,0,5.3301-2.2793,5.3301-5.0801V1.5098c0-0.2764,0.2236-0.5,0.5-0.5
		s0.5,0.2236,0.5,0.5v11.4111C19,16.2734,16.1602,19.001,12.6699,19.001z"/>
</g>
<rect y="0.0011" fill="none" width="24" height="24"/>
</svg>
