<?xml version="1.0" encoding="utf-8"?>
<!-- Generator: Adobe Illustrator 18.1.0, SVG Export Plug-In . SVG Version: 6.00 Build 0)  -->
<svg version="1.1" id="Layer_1" xmlns="http://www.w3.org/2000/svg" xmlns:xlink="http://www.w3.org/1999/xlink" x="0px" y="0px"
	 width="24px" height="24px" viewBox="0 0 24 24" enable-background="new 0 0 24 24" xml:space="preserve">
<g>
	<path d="M12.0195,22.4697c-0.1299,0-0.2495-0.0498-0.3496-0.1504c-0.1001-0.0898-0.1499-0.2197-0.1499-0.3496
		s0.0498-0.2598,0.1499-0.3496c0.1997-0.2002,0.5303-0.1904,0.71,0c0.0898,0.0898,0.1396,0.2197,0.1396,0.3496
		s-0.0498,0.2598-0.1396,0.3496C12.2803,22.4102,12.1494,22.4697,12.0195,22.4697z"/>
	<path d="M8.0029,10.2637c-0.0469,0-0.0947-0.0063-0.1421-0.0205c-0.2646-0.0786-0.4155-0.3569-0.3374-0.6216
		c0.5015-1.6919,1.8779-2.958,3.5923-3.3042c0.4404-0.0889,0.8989-0.1113,1.3647-0.0669c0.2754,0.0259,0.4766,0.2695,0.4512,0.5444
		c-0.0264,0.2764-0.291,0.4873-0.5449,0.4507c-0.3682-0.0332-0.729-0.0181-1.0732,0.0522c-1.3506,0.2725-2.4355,1.272-2.8311,2.6079
		C8.418,10.123,8.2188,10.2637,8.0029,10.2637z"/>
	<path d="M10.7856,16.668c-0.1089,0-0.2188-0.0352-0.3105-0.1084c-0.2163-0.1719-0.252-0.4863-0.0801-0.7031
		c1.0825-1.3613,1.5078-3.1104,1.1675-4.7993c-0.0547-0.2705,0.1206-0.5342,0.3916-0.5889
		c0.2646-0.0542,0.5342,0.1206,0.5889,0.3916c0.3984,1.978-0.0986,4.0269-1.3657,5.6196
		C11.0786,16.6035,10.9331,16.668,10.7856,16.668z"/>
	<path d="M12.4102,16.8096c-0.0908,0-0.1816-0.0244-0.2646-0.0752c-0.2339-0.1465-0.3057-0.4541-0.1597-0.6895
		c0.9849-1.583,1.3257-3.4531,0.9604-5.2671c-0.0479-0.2397-0.1865-0.4458-0.3887-0.5811c-0.2051-0.1357-0.4492-0.1841-0.687-0.1348
		c-0.4399,0.0889-0.752,0.4966-0.7261,0.9482c0.0161,0.2754-0.1943,0.5122-0.4702,0.5278
		c-0.2676,0.0132-0.5122-0.1943-0.5278-0.4702c-0.0547-0.9453,0.6016-1.7993,1.5264-1.9863
		c1.0361-0.2046,2.0469,0.4644,2.2549,1.4985c0.415,2.0654,0.0273,4.1934-1.0928,5.9941
		C12.7402,16.7256,12.5771,16.8096,12.4102,16.8096z"/>
	<path d="M9.4087,16.1094c-0.123,0-0.2466-0.0449-0.3433-0.1367c-0.2007-0.1895-0.21-0.5059-0.0205-0.707
		c0.7344-0.7764,1.1646-1.79,1.2114-2.8535c0.0122-0.2754,0.2593-0.4951,0.5215-0.4771c0.2759,0.0122,0.4897,0.2456,0.4775,0.522
		c-0.0576,1.3027-0.5845,2.5439-1.4829,3.4961C9.6738,16.0566,9.5415,16.1094,9.4087,16.1094z"/>
	<path d="M14.2441,16.3447c-0.0664,0-0.1338-0.0127-0.1982-0.041c-0.2529-0.1094-0.3701-0.4033-0.2607-0.6572
		c0.29-0.6729,0.4951-1.3809,0.6084-2.1025c0.043-0.2744,0.3008-0.46,0.5713-0.417c0.2734,0.043,0.46,0.2988,0.417,0.5713
		c-0.127,0.8057-0.3545,1.5947-0.6787,2.3447C14.6221,16.2314,14.4375,16.3447,14.2441,16.3447z"/>
	<path d="M8.2881,15.2354c-0.1294,0-0.2593-0.0498-0.3569-0.1504c-0.1934-0.1963-0.1904-0.5137,0.0068-0.707
		c0.7271-0.7129,1.0498-1.7217,0.8687-2.709c-0.0054-0.0176-0.0098-0.0352-0.0137-0.0527
		c-0.1758-0.8706-0.0015-1.7573,0.4897-2.4971s1.2417-1.2437,2.1118-1.4194c1.792-0.3638,3.5527,0.8047,3.916,2.6016
		c0.124,0.6167,0.1865,1.2627,0.1865,1.9214c0,0.2764-0.2236,0.5-0.5,0.5s-0.5-0.2236-0.5-0.5c0-0.5938-0.0566-1.1733-0.168-1.7231
		c-0.1221-0.6089-0.4746-1.1333-0.9912-1.4771c-0.5176-0.3442-1.1377-0.4663-1.7456-0.3423
		c-1.2388,0.25-2.0498,1.4478-1.8291,2.6855c0.0054,0.0166,0.0103,0.0342,0.0137,0.0513c0.2695,1.3379-0.1558,2.7119-1.1387,3.6758
		C8.541,15.1875,8.4146,15.2354,8.2881,15.2354z"/>
	<path d="M16.209,14.7822c-0.0332,0-0.0654-0.0029-0.0986-0.0098c-0.2715-0.0537-0.4463-0.3174-0.3926-0.5879
		c0.2627-1.3145,0.2607-2.6484-0.0049-3.9639c-0.2363-1.1675-1.0332-2.1606-2.1318-2.6562c-0.251-0.1133-0.3633-0.4097-0.25-0.6611
		c0.1152-0.2524,0.4102-0.3638,0.6621-0.25c1.3906,0.6274,2.4004,1.8872,2.6992,3.3691c0.293,1.4458,0.2949,2.9121,0.0059,4.3574
		C16.6504,14.6182,16.4424,14.7822,16.209,14.7822z"/>
	<path d="M7.437,14.0859c-0.1147,0-0.2295-0.0391-0.3237-0.1191c-0.2104-0.1787-0.2363-0.4941-0.0571-0.7051
		c0.3164-0.3721,0.4478-0.8545,0.3638-1.3296c-0.0034-0.0122-0.0063-0.0249-0.0093-0.0376
		c-0.0483-0.2412-0.0718-0.4814-0.082-0.7197c-0.0122-0.2759,0.2017-0.5093,0.4775-0.5215
		c0.2979-0.0151,0.5098,0.2021,0.5215,0.4775c0.0078,0.1743,0.0229,0.3496,0.0557,0.5254c0.0039,0.0132,0.0068,0.0264,0.0098,0.0396
		c0.1592,0.7896-0.0503,1.5962-0.5752,2.2144C7.7192,14.0264,7.5786,14.0859,7.437,14.0859z"/>
	<path d="M16.4902,24.0088h-8.936c-1.396,0-2.5317-1.1357-2.5317-2.5312V2.5049c0-1.3955,1.1357-2.5312,2.5317-2.5312h8.936
		c1.3955,0,2.5312,1.1357,2.5312,2.5312v18.9727C19.0215,22.873,17.8857,24.0088,16.4902,24.0088z M7.5542,0.9736
		c-0.8447,0-1.5317,0.687-1.5317,1.5312v18.9727c0,0.8447,0.687,1.5312,1.5317,1.5312h8.936c0.8447,0,1.5312-0.6865,1.5312-1.5312
		V2.5049c0-0.8442-0.6865-1.5312-1.5312-1.5312H7.5542z"/>
	<path d="M18.5312,3.9995H5.5308c-0.2764,0-0.5-0.2236-0.5-0.5s0.2236-0.5,0.5-0.5h13.0005c0.2764,0,0.5,0.2236,0.5,0.5
		S18.8076,3.9995,18.5312,3.9995z"/>
	<path d="M18.5312,21.001H5.5308c-0.2764,0-0.5-0.2236-0.5-0.5s0.2236-0.5,0.5-0.5h13.0005c0.2764,0,0.5,0.2236,0.5,0.5
		S18.8076,21.001,18.5312,21.001z"/>
</g>
<rect x="0.0293" fill="none" width="24" height="24"/>
</svg>
