<?xml version="1.0" encoding="utf-8"?>
<!-- Generator: Adobe Illustrator 18.1.0, SVG Export Plug-In . SVG Version: 6.00 Build 0)  -->
<svg version="1.1" id="Layer_1" xmlns="http://www.w3.org/2000/svg" xmlns:xlink="http://www.w3.org/1999/xlink" x="0px" y="0px"
	 width="24px" height="24px" viewBox="0 0 24 24" enable-background="new 0 0 24 24" xml:space="preserve">
<g>
	<path d="M22.3223,13H1.6479c-0.2104,0-0.4087-0.1064-0.5293-0.2852c-0.1235-0.1826-0.1494-0.4111-0.0693-0.6123l2.9355-7.6963
		C4.0889,4.1543,4.3228,4,4.5864,4h14.7974c0.2695,0,0.498,0.1465,0.5957,0.3818l2.9453,7.7354
		c0.0762,0.1914,0.0508,0.418-0.0713,0.5986C22.7334,12.8936,22.5342,13,22.3223,13z M2.1587,12h19.6509l-2.6641-7H4.8286L2.1587,12
		z"/>
	<path d="M11.9854,22.3184c-0.2764,0-0.5-0.2236-0.5-0.5V12.5c0-0.2764,0.2236-0.5,0.5-0.5s0.5,0.2236,0.5,0.5v9.3184
		C12.4854,22.0947,12.2617,22.3184,11.9854,22.3184z"/>
	<path d="M11.9854,23.8594c-2.186,0-4.3994-0.6807-4.3994-1.9814c0-2.6016,8.7988-2.6016,8.7988,0
		C16.3848,23.1787,14.1719,23.8594,11.9854,23.8594z M11.9854,20.8965c-2.208,0-3.3994,0.6963-3.3994,0.9814
		s1.1914,0.9814,3.3994,0.9814s3.3994-0.6963,3.3994-0.9814S14.1934,20.8965,11.9854,20.8965z"/>
	<path d="M6.5068,7.0552c-0.2764,0-0.5-0.2236-0.5-0.5V3.6426c0-0.5181,0.2017-1.0059,0.5679-1.3726l1.5386-1.5386
		c0.4434-0.4434,1.0781-0.6475,1.6943-0.542l1.5669,0.2627c0.2725,0.0459,0.4561,0.3037,0.4106,0.5757
		c-0.0459,0.2725-0.3062,0.459-0.5757,0.4106L9.6426,1.1758C9.3423,1.125,9.0352,1.2236,8.8203,1.4385L7.2822,2.9766
		C7.105,3.1543,7.0068,3.3911,7.0068,3.6426v2.9126C7.0068,6.8315,6.7832,7.0552,6.5068,7.0552z"/>
	<path d="M15.3242,11c-0.0049,0-0.0117,0.0005-0.0195,0h-6.644c-0.1475,0-0.2871-0.0649-0.3818-0.1772
		c-0.0952-0.1128-0.1357-0.2612-0.1113-0.4062l0.5093-3C8.7178,7.1758,8.9263,7,9.1699,7h5.625c0.2441,0,0.4521,0.1758,0.4932,0.416
		l0.4863,2.8662c0.0322,0.0659,0.0498,0.1396,0.0498,0.2178C15.8242,10.7764,15.6006,11,15.3242,11z M9.2524,10h5.4604L14.373,8
		H9.5923L9.2524,10z"/>
	<path d="M11.9824,11c-0.2764,0-0.5-0.2236-0.5-0.5v-3c0-0.2764,0.2236-0.5,0.5-0.5s0.5,0.2236,0.5,0.5v3
		C12.4824,10.7764,12.2588,11,11.9824,11z"/>
</g>
<rect x="-0.0136" fill="none" width="24" height="24"/>
</svg>
