<?xml version="1.0" encoding="utf-8"?>
<!-- Generator: Adobe Illustrator 18.1.0, SVG Export Plug-In . SVG Version: 6.00 Build 0)  -->
<svg version="1.1" id="Layer_1" xmlns="http://www.w3.org/2000/svg" xmlns:xlink="http://www.w3.org/1999/xlink" x="0px" y="0px"
	 width="24px" height="24px" viewBox="0 0 24 24" enable-background="new 0 0 24 24" xml:space="preserve">
<g>
	<path d="M6.8594,16.4307c-0.1426,0-0.2837-0.0605-0.3823-0.1777c-0.1782-0.2109-0.1519-0.5264,0.0591-0.7041l4.6768-3.9487
		c0.2129-0.1787,0.5273-0.1514,0.7046,0.0591c0.1782,0.2114,0.1519,0.5264-0.0591,0.7051l-4.6768,3.9482
		C7.0874,16.3916,6.9731,16.4307,6.8594,16.4307z"/>
	<path d="M11.5361,12.4824c-0.1523,0-0.3022-0.0693-0.4004-0.2002c-0.166-0.2217-0.1211-0.5347,0.1001-0.7002
		c0.2197-0.167,0.5347-0.1221,0.7007,0.0991s0.1221,0.5337-0.0991,0.6997l-0.002,0.001
		C11.7456,12.4492,11.6406,12.4824,11.5361,12.4824z"/>
	<path d="M11.5352,12.4824c-0.1138,0-0.228-0.0391-0.3223-0.1182L6.5361,8.4146C6.3252,8.2368,6.2988,7.9209,6.4771,7.71
		C6.6538,7.499,6.9683,7.4712,7.1816,7.6509l4.6768,3.9492c0.2109,0.1777,0.2373,0.4937,0.0591,0.7046
		C11.8188,12.4219,11.6777,12.4824,11.5352,12.4824z"/>
	<path d="M11.5371,12.4834c-0.1045,0-0.2095-0.0322-0.2993-0.0996c-0.2212-0.166-0.2671-0.48-0.1011-0.7012
		c0.1655-0.2217,0.479-0.2666,0.6987-0.1006l0.002,0.0015c0.2212,0.1655,0.2661,0.479,0.1001,0.6997
		C11.8394,12.4141,11.6895,12.4834,11.5371,12.4834z"/>
	<path fill="none" stroke="#000000" stroke-linecap="round" stroke-linejoin="round" stroke-miterlimit="10" d="M11.5376,11.9803"/>
	<path d="M11.5381,12.4805c-0.1426,0-0.2837-0.0605-0.3823-0.1777c-0.1782-0.2109-0.1519-0.5264,0.0591-0.7041l4.501-3.8008
		l-3.6777-3.1055v3.7139c0,0.2764-0.2241,0.5-0.5005,0.5s-0.5-0.2236-0.5-0.5V3.6157c0-0.1948,0.1128-0.3716,0.2896-0.4536
		c0.1758-0.0825,0.3843-0.0552,0.5332,0.0718l4.9531,4.1821c0.1133,0.0947,0.1777,0.2344,0.1777,0.3818
		s-0.0645,0.2871-0.1777,0.3818l-4.9531,4.1826C11.7661,12.4414,11.6519,12.4805,11.5381,12.4805z"/>
	<path d="M11.5376,20.8486c-0.0713,0-0.1436-0.0156-0.2104-0.0469c-0.1768-0.082-0.2896-0.2588-0.2896-0.4531v-4.791
		c0-0.2764,0.2236-0.5,0.5-0.5s0.5005,0.2236,0.5005,0.5v3.7148l3.6777-3.1064l-4.5029-3.8018
		c-0.2109-0.1787-0.2373-0.4937-0.0591-0.7051c0.1772-0.2104,0.4912-0.2383,0.7046-0.0591l4.9551,4.1841
		c0.1133,0.0947,0.1777,0.2344,0.1777,0.3818s-0.0645,0.2871-0.1777,0.3818l-4.9531,4.1826
		C11.7681,20.8086,11.6533,20.8486,11.5376,20.8486z"/>
	<path fill="none" stroke="#000000" stroke-linecap="round" stroke-linejoin="round" stroke-miterlimit="10" d="M11.5376,11.9836"/>
	<path d="M12.2363,23.7832h-0.437c-4.8667,0-8.8262-3.959-8.8262-8.8262V9.043c0-4.8667,3.9595-8.8257,8.8262-8.8257h0.437
		c4.8662,0,8.8252,3.959,8.8252,8.8257v5.9141C21.0615,19.8242,17.1025,23.7832,12.2363,23.7832z M11.7993,1.2173
		c-4.3154,0-7.8262,3.5107-7.8262,7.8257v5.9141c0,4.3154,3.5107,7.8262,7.8262,7.8262h0.437c4.3145,0,7.8252-3.5107,7.8252-7.8262
		V9.043c0-4.3149-3.5107-7.8257-7.8252-7.8257H11.7993z"/>
</g>
<rect fill="none" width="24" height="24"/>
</svg>
