<?xml version="1.0" encoding="utf-8"?>
<!-- Generator: Adobe Illustrator 18.1.0, SVG Export Plug-In . SVG Version: 6.00 Build 0)  -->
<svg version="1.1" id="Layer_1" xmlns="http://www.w3.org/2000/svg" xmlns:xlink="http://www.w3.org/1999/xlink" x="0px" y="0px"
	 width="24px" height="24px" viewBox="0 0 24 24" enable-background="new 0 0 24 24" xml:space="preserve">
<g>
	<path d="M11.999,23.8613c-6.5327,0-11.8477-5.3145-11.8477-11.8467c0-6.5327,5.3149-11.8477,11.8477-11.8477
		c6.5332,0,11.8477,5.3149,11.8477,11.8477C23.8467,18.5469,18.5322,23.8613,11.999,23.8613z M11.999,1.167
		c-5.9814,0-10.8477,4.8662-10.8477,10.8477c0,5.9805,4.8662,10.8467,10.8477,10.8467s10.8477-4.8662,10.8477-10.8467
		C22.8467,6.0332,17.9805,1.167,11.999,1.167z"/>
	<path d="M11.999,16.2793c-2.3521,0-4.2651-1.9131-4.2651-4.2646c0-2.3521,1.9131-4.2651,4.2651-4.2651
		c2.3516,0,4.2646,1.9131,4.2646,4.2651C16.2637,14.3662,14.3506,16.2793,11.999,16.2793z M11.999,8.7495
		c-1.8003,0-3.2651,1.4648-3.2651,3.2651c0,1.7998,1.4648,3.2646,3.2651,3.2646c1.7998,0,3.2646-1.4648,3.2646-3.2646
		C15.2637,10.2144,13.7988,8.7495,11.999,8.7495z"/>
	<path d="M11.999,13.7188c-0.9395,0-1.7041-0.7646-1.7041-1.7041c0-0.9399,0.7646-1.7046,1.7041-1.7046s1.7041,0.7646,1.7041,1.7046
		C13.7031,12.9541,12.9385,13.7188,11.999,13.7188z M11.999,11.3101c-0.3882,0-0.7041,0.3159-0.7041,0.7046
		s0.3159,0.7041,0.7041,0.7041c0.3887,0,0.7041-0.3154,0.7041-0.7041S12.3877,11.3101,11.999,11.3101z"/>
</g>
<rect fill="none" width="24" height="24"/>
</svg>
