<?xml version="1.0" encoding="utf-8"?>
<!-- Generator: Adobe Illustrator 18.1.0, SVG Export Plug-In . SVG Version: 6.00 Build 0)  -->
<svg version="1.1" id="Layer_1" xmlns="http://www.w3.org/2000/svg" xmlns:xlink="http://www.w3.org/1999/xlink" x="0px" y="0px"
	 width="24px" height="24px" viewBox="0 0 24 24" enable-background="new 0 0 24 24" xml:space="preserve">
<g>
	<path d="M3.4058,9.9487c-0.2051,0-0.3979-0.1274-0.4707-0.3315L1.5308,5.688C1.4849,5.5591,1.4932,5.4175,1.5542,5.2954
		C1.6157,5.1738,1.7236,5.082,1.854,5.0415l15.8618-4.8896c0.2637-0.0801,0.543,0.0669,0.625,0.3301l2.7344,8.8188
		c0.082,0.2637-0.0654,0.5439-0.3291,0.6255c-0.2686,0.083-0.5439-0.0664-0.626-0.3296l-2.5869-8.3418L2.6479,5.8433l1.2285,3.437
		C3.9697,9.5405,3.834,9.8267,3.5742,9.9194C3.5186,9.9395,3.4614,9.9487,3.4058,9.9487z"/>
	<path d="M23.4756,19.0068h-4.4561c-1.6377,0-2.9707-1.333-2.9707-2.9707s1.333-2.9707,2.9707-2.9707h4.4561
		c0.2764,0,0.5,0.2236,0.5,0.5v4.9414C23.9756,18.7832,23.752,19.0068,23.4756,19.0068z M19.0195,14.0654
		c-1.0869,0-1.9707,0.8838-1.9707,1.9707s0.8838,1.9707,1.9707,1.9707h3.9561v-3.9414H19.0195z"/>
	<path d="M19.3496,16.54c-0.1201,0-0.25-0.0605-0.3398-0.1504c-0.0996-0.0996-0.1504-0.2197-0.1504-0.3496
		c0-0.1406,0.0508-0.2598,0.1406-0.3604c0.1895-0.1895,0.5195-0.1797,0.71,0c0.0996,0.1006,0.1494,0.2305,0.1494,0.3604
		s-0.0498,0.25-0.1494,0.3496C19.6094,16.4795,19.4795,16.54,19.3496,16.54z"/>
	<path d="M21.4541,14.0654c-0.2764,0-0.5-0.2236-0.5-0.5V9.4487c0-0.2764,0.2236-0.5,0.5-0.5s0.5,0.2236,0.5,0.5v4.1167
		C21.9541,13.8418,21.7305,14.0654,21.4541,14.0654z"/>
	<path d="M21.4541,23.0107H2.0015c-1.1436,0-2.0742-0.9307-2.0742-2.0742V7.4839c0-0.2764,0.2236-0.5,0.5-0.5s0.5,0.2236,0.5,0.5
		v13.4526c0,0.5928,0.4819,1.0742,1.0742,1.0742h18.9526v-3.5039c0-0.2764,0.2236-0.5,0.5-0.5s0.5,0.2236,0.5,0.5v4.0039
		C21.9541,22.7871,21.7305,23.0107,21.4541,23.0107z"/>
	<path d="M21.4541,6.0195h-2.0537c-0.2764,0-0.5-0.2236-0.5-0.5s0.2236-0.5,0.5-0.5h2.0537c0.2764,0,0.5,0.2236,0.5,0.5
		S21.7305,6.0195,21.4541,6.0195z"/>
	<path d="M21.4541,9.9487H2.0015c-1.1436,0-2.0742-1.106-2.0742-2.4648s0.9307-2.4644,2.0742-2.4644c0.2764,0,0.5,0.2236,0.5,0.5
		s-0.2236,0.5-0.5,0.5c-0.5825,0-1.0742,0.6704-1.0742,1.4644s0.4917,1.4648,1.0742,1.4648h19.4526c0.2764,0,0.5,0.2236,0.5,0.5
		S21.7305,9.9487,21.4541,9.9487z"/>
</g>
<rect x="-0.0136" y="0.0031" fill="none" width="24" height="24"/>
<rect x="-0.0136" fill="none" width="24" height="24"/>
</svg>
