<?xml version="1.0" encoding="utf-8"?>
<!-- Generator: Adobe Illustrator 18.1.0, SVG Export Plug-In . SVG Version: 6.00 Build 0)  -->
<svg version="1.1" id="Layer_1" xmlns="http://www.w3.org/2000/svg" xmlns:xlink="http://www.w3.org/1999/xlink" x="0px" y="0px"
	 width="24px" height="24px" viewBox="0 0 24 24" enable-background="new 0 0 24 24" xml:space="preserve">
<g>
	<path d="M13.4717,23.9746h-2.9561c-0.2764,0-0.5-0.2236-0.5-0.5s0.2236-0.5,0.5-0.5h2.9561c0.2764,0,0.5,0.2236,0.5,0.5
		S13.748,23.9746,13.4717,23.9746z"/>
	<path d="M2.5386,2.6416c-0.2764,0-0.5-0.2236-0.5-0.5V0.501c0-0.2764,0.2236-0.5,0.5-0.5s0.5,0.2236,0.5,0.5v1.6406
		C3.0386,2.418,2.8149,2.6416,2.5386,2.6416z"/>
	<path d="M21.4766,2.6416c-0.2764,0-0.5-0.2236-0.5-0.5V0.501c0-0.2764,0.2236-0.5,0.5-0.5s0.5,0.2236,0.5,0.5v1.6406
		C21.9766,2.418,21.7529,2.6416,21.4766,2.6416z"/>
	<path d="M21.4766,1.001H2.5386c-0.2764,0-0.5-0.2236-0.5-0.5s0.2236-0.5,0.5-0.5h18.938c0.2764,0,0.5,0.2236,0.5,0.5
		S21.7529,1.001,21.4766,1.001z"/>
	<path d="M12,23.9746c-0.2764,0-0.5-0.2236-0.5-0.5V0.501c0-0.2764,0.2236-0.5,0.5-0.5s0.5,0.2236,0.5,0.5v22.9736
		C12.5,23.751,12.2764,23.9746,12,23.9746z"/>
</g>
<rect y="0.0011" fill="none" width="24" height="24"/>
</svg>
