<?xml version="1.0" encoding="utf-8"?>
<!-- Generator: Adobe Illustrator 18.1.0, SVG Export Plug-In . SVG Version: 6.00 Build 0)  -->
<svg version="1.1" id="Layer_1" xmlns="http://www.w3.org/2000/svg" xmlns:xlink="http://www.w3.org/1999/xlink" x="0px" y="0px"
	 width="24px" height="24px" viewBox="0 0 24 24" enable-background="new 0 0 24 24" xml:space="preserve">
<g>
	<path d="M22.6885,16.873L22.6885,16.873c-0.1768,0-0.3486-0.0342-0.5137-0.1035l-5.4307-2.6855
		c-0.4463-0.1865-0.7529-0.627-0.7529-1.1094V9.999c0-0.4741,0.3154-0.9253,0.7852-1.1221l5.3877-2.6597
		c0.9629-0.4062,1.8271,0.2808,1.8271,1.1094v8.3208c0,0.3291-0.1484,0.6514-0.4082,0.8838
		C23.3369,16.752,23.0186,16.873,22.6885,16.873z M22.7002,7.1021c-0.041,0-0.082,0.0083-0.1221,0.0249l-5.3867,2.6597
		c-0.126,0.0537-0.2002,0.1396-0.2002,0.2124v2.9756c0,0.0742,0.0723,0.1602,0.168,0.2002l5.4307,2.6855
		c0.0127,0.0039,0.0557,0.0127,0.0986,0.0127l0,0c0.083,0,0.166-0.0312,0.2275-0.0869c0.0479-0.043,0.0752-0.0938,0.0752-0.1387
		V7.3267C22.9912,7.2251,22.8613,7.1021,22.7002,7.1021z"/>
	<path d="M15.5762,18H1.3716c-0.7739,0-1.3804-0.6416-1.3804-1.46V6.4326C-0.0088,5.6157,0.5845,5,1.3716,5h14.2046
		c0.7939,0,1.415,0.6294,1.415,1.4326V16.54C16.9912,17.3447,16.3564,18,15.5762,18z M1.3716,6
		C1.0908,6,0.9912,6.2329,0.9912,6.4326V16.54c0,0.2217,0.1191,0.46,0.3804,0.46h14.2046c0.2598,0,0.415-0.2334,0.415-0.46V6.4326
		C15.9912,6.1821,15.8164,6,15.5762,6H1.3716z"/>
	<path d="M5.3423,13.9658c-1.3687,0-2.4819-1.1133-2.4819-2.4824c0-1.3687,1.1133-2.4824,2.4819-2.4824s2.4824,1.1138,2.4824,2.4824
		C7.8247,12.8525,6.7109,13.9658,5.3423,13.9658z M5.3423,10.001c-0.8174,0-1.4819,0.665-1.4819,1.4824s0.6646,1.4824,1.4819,1.4824
		s1.4824-0.665,1.4824-1.4824S6.1597,10.001,5.3423,10.001z"/>
	<path d="M11.6401,13.9658c-1.3687,0-2.4824-1.1133-2.4824-2.4824c0-1.3687,1.1138-2.4824,2.4824-2.4824
		s2.4819,1.1138,2.4819,2.4824C14.1221,12.8525,13.0088,13.9658,11.6401,13.9658z M11.6401,10.001
		c-0.8174,0-1.4824,0.665-1.4824,1.4824s0.665,1.4824,1.4824,1.4824c0.8169,0,1.4819-0.665,1.4819-1.4824
		S12.457,10.001,11.6401,10.001z"/>
	<path d="M11.6396,10.001H5.3423c-0.2764,0-0.5-0.2236-0.5-0.5s0.2236-0.5,0.5-0.5h6.2974c0.2764,0,0.5,0.2236,0.5,0.5
		S11.916,10.001,11.6396,10.001z"/>
</g>
<rect x="-0.0137" y="0.0002" fill="none" width="24" height="24"/>
</svg>
