<?xml version="1.0" encoding="utf-8"?>
<!-- Generator: Adobe Illustrator 18.1.0, SVG Export Plug-In . SVG Version: 6.00 Build 0)  -->
<svg version="1.1" id="Layer_1" xmlns="http://www.w3.org/2000/svg" xmlns:xlink="http://www.w3.org/1999/xlink" x="0px" y="0px"
	 width="24px" height="24px" viewBox="0 0 24 24" enable-background="new 0 0 24 24" xml:space="preserve">
<g>
	<path d="M7.5601,15.4873c-3.9531,0-7.3398-5.0903-7.3398-9.2573c0-2.6387,1.437-4.3945,4.1558-5.0771
		C4.6426,1.0874,4.915,1.248,4.9824,1.5161c0.0674,0.2676-0.0952,0.5391-0.3633,0.6064C2.332,2.6973,1.2202,4.0405,1.2202,6.23
		c0,3.6396,2.9849,8.2573,6.3398,8.2573s6.3403-4.6177,6.3403-8.2573c0-2.1895-1.1123-3.5327-3.3989-4.1074
		c-0.2681-0.0674-0.4307-0.3389-0.3633-0.6064c0.0674-0.269,0.3423-0.4312,0.6064-0.3633c2.7192,0.6826,4.1558,2.4385,4.1558,5.0771
		C14.9004,10.397,11.5132,15.4873,7.5601,15.4873z"/>
	<path d="M20.5146,9.751c-1.7568,0-3.1865-1.4292-3.1865-3.186s1.4297-3.186,3.1865-3.186s3.1855,1.4292,3.1855,3.186
		S22.2715,9.751,20.5146,9.751z M20.5146,4.3789c-1.2061,0-2.1865,0.9805-2.1865,2.186s0.9805,2.186,2.1865,2.186
		c1.2051,0,2.1855-0.9805,2.1855-2.186S21.7197,4.3789,20.5146,4.3789z"/>
	<path d="M20.5146,8.124c-0.8604,0-1.5596-0.6992-1.5596-1.5591s0.6992-1.5591,1.5596-1.5591c0.8594,0,1.5586,0.6992,1.5586,1.5591
		S21.374,8.124,20.5146,8.124z M20.5146,6.0059c-0.3086,0-0.5596,0.251-0.5596,0.5591s0.251,0.5591,0.5596,0.5591
		c0.3076,0,0.5586-0.251,0.5586-0.5591S20.8223,6.0059,20.5146,6.0059z"/>
	<path d="M5.2471,2.8696c-0.689,0-1.2495-0.5605-1.2495-1.2495s0.5605-1.2495,1.2495-1.2495s1.2495,0.5605,1.2495,1.2495
		S5.936,2.8696,5.2471,2.8696z M5.2471,1.3706c-0.1377,0-0.2495,0.1118-0.2495,0.2495c0,0.2754,0.499,0.2754,0.499,0
		C5.4966,1.4824,5.3848,1.3706,5.2471,1.3706z"/>
	<path d="M9.8735,2.8696c-0.689,0-1.2495-0.5605-1.2495-1.2495s0.5605-1.2495,1.2495-1.2495s1.2495,0.5605,1.2495,1.2495
		S10.5625,2.8696,9.8735,2.8696z M9.8735,1.3706c-0.1377,0-0.2495,0.1118-0.2495,0.2495c0,0.2754,0.499,0.2754,0.499,0
		C10.123,1.4824,10.0112,1.3706,9.8735,1.3706z"/>
	<path d="M14.4404,23.8213h-0.6299c-3.6206,0-6.7964-3.041-6.7964-6.5078v-2.8418c0-0.2764,0.2236-0.5,0.5-0.5s0.5,0.2236,0.5,0.5
		v2.8418c0,2.9336,2.7085,5.5078,5.7964,5.5078h0.6299c3.0215,0,5.5742-2.5225,5.5742-5.5078V7.624c0-0.2764,0.2236-0.5,0.5-0.5
		s0.5,0.2236,0.5,0.5v9.6895C21.0146,20.8408,18.0039,23.8213,14.4404,23.8213z"/>
</g>
<rect x="0.0142" y="0.0346" fill="none" width="24" height="24"/>
</svg>
