<?xml version="1.0" encoding="utf-8"?>
<!-- Generator: Adobe Illustrator 18.1.0, SVG Export Plug-In . SVG Version: 6.00 Build 0)  -->
<svg version="1.1" id="Layer_1" xmlns="http://www.w3.org/2000/svg" xmlns:xlink="http://www.w3.org/1999/xlink" x="0px" y="0px"
	 width="24px" height="24px" viewBox="0 0 24 24" enable-background="new 0 0 24 24" xml:space="preserve">
<g>
	<path d="M20.6553,20.7285c-0.1133,0-0.2266-0.0381-0.3203-0.1162c-0.2119-0.1768-0.2402-0.4922-0.0635-0.7041
		c0.5615-0.6738,1.0439-1.4248,1.4316-2.2305c0.7041-1.4668,1.0615-3.0352,1.0615-4.6621c0-1.1987-0.207-2.3965-0.6143-3.5601
		c-1.5137-4.3174-5.5986-7.2183-10.1641-7.2183c-4.5762,0-8.6641,2.9092-10.1714,7.2393c-0.4028,1.1572-0.6069,2.3477-0.6069,3.5391
		c0,1.6201,0.353,3.1807,1.0493,4.6367c0.3892,0.8135,0.875,1.5732,1.4443,2.2559c0.1768,0.2129,0.1479,0.5273-0.0645,0.7041
		c-0.2119,0.1777-0.5264,0.1484-0.7041-0.0635C2.311,19.8018,1.7798,18.9727,1.355,18.084c-0.7612-1.5918-1.147-3.2979-1.147-5.0684
		c0-1.3032,0.2231-2.605,0.6626-3.8682c1.647-4.7314,6.1143-7.9102,11.1157-7.9102c4.9893,0,9.4531,3.1694,11.1074,7.8872
		c0.4453,1.2705,0.6709,2.5796,0.6709,3.8911c0,1.7783-0.3906,3.4922-1.1611,5.0957c-0.4229,0.8799-0.9492,1.7002-1.5645,2.4375
		C20.9404,20.667,20.7979,20.7285,20.6553,20.7285z"/>
	<path d="M15.4785,23H8.4941c-0.8315,0-1.5078-0.6768-1.5078-1.5078v-1.9844C6.9863,18.6768,7.6626,18,8.4941,18h6.9844
		c0.8311,0,1.5078,0.6768,1.5078,1.5078v1.9844C16.9863,22.3232,16.3096,23,15.4785,23z M8.4941,19
		c-0.2798,0-0.5078,0.2275-0.5078,0.5078v1.9844C7.9863,21.7725,8.2144,22,8.4941,22h6.9844c0.2803,0,0.5078-0.2275,0.5078-0.5078
		v-1.9844c0-0.2803-0.2275-0.5078-0.5078-0.5078H8.4941z"/>
	<path d="M23.2646,13.4414h-2.9385c-0.2764,0-0.5-0.2236-0.5-0.5s0.2236-0.5,0.5-0.5h2.9385c0.2764,0,0.5,0.2236,0.5,0.5
		S23.541,13.4414,23.2646,13.4414z"/>
	<path d="M3.7681,13.4414H0.708c-0.2764,0-0.5-0.2236-0.5-0.5s0.2236-0.5,0.5-0.5h3.0601c0.2764,0,0.5,0.2236,0.5,0.5
		S4.0444,13.4414,3.7681,13.4414z"/>
	<path d="M2.2197,19.0801c-0.1729,0-0.3408-0.0898-0.4336-0.25c-0.1382-0.2393-0.0562-0.5449,0.1831-0.6826l2.6436-1.5264
		c0.2373-0.1396,0.5444-0.0566,0.6831,0.1826c0.1382,0.2393,0.0562,0.5449-0.1831,0.6826l-2.6436,1.5264
		C2.3906,19.0586,2.3047,19.0801,2.2197,19.0801z"/>
	<path d="M16.1406,6.2461c-0.085,0-0.1709-0.0215-0.25-0.0669c-0.2393-0.1382-0.3213-0.4438-0.1826-0.6831l1.4521-2.5146
		c0.1367-0.2393,0.4434-0.3198,0.6826-0.1831c0.2393,0.1382,0.3213,0.4438,0.1826,0.6831l-1.4521,2.5146
		C16.4814,6.1567,16.3125,6.2461,16.1406,6.2461z"/>
	<path d="M11.9863,5.1641c-0.2764,0-0.5-0.2236-0.5-0.5V1.7373c0-0.2764,0.2236-0.5,0.5-0.5s0.5,0.2236,0.5,0.5v2.9268
		C12.4863,4.9404,12.2627,5.1641,11.9863,5.1641z"/>
	<path d="M7.8628,6.2988c-0.1729,0-0.3408-0.0898-0.4336-0.25L5.9473,3.4814C5.8091,3.2422,5.8911,2.9365,6.1304,2.7983
		c0.2383-0.1382,0.5444-0.0562,0.6831,0.1831l1.4819,2.5674c0.1382,0.2393,0.0562,0.5449-0.1831,0.6831
		C8.0337,6.2773,7.9478,6.2988,7.8628,6.2988z"/>
	<path d="M4.8623,9.3286c-0.085,0-0.1709-0.0215-0.2495-0.0669l-2.603-1.5029C1.7705,7.6206,1.6885,7.3149,1.8267,7.0757
		c0.1382-0.2397,0.4438-0.3218,0.6831-0.1831l2.603,1.5029c0.2393,0.1382,0.3213,0.4438,0.1831,0.6831
		C5.2031,9.2393,5.0352,9.3286,4.8623,9.3286z"/>
	<path d="M21.7881,19.0908c-0.085,0-0.1699-0.0215-0.249-0.0664L18.9521,17.54c-0.2393-0.1377-0.3223-0.4434-0.1846-0.6826
		c0.1377-0.2412,0.4414-0.3213,0.6826-0.1846l2.5869,1.4844c0.2393,0.1377,0.3223,0.4434,0.1846,0.6826
		C22.1289,19.001,21.9609,19.0908,21.7881,19.0908z"/>
	<path d="M11.9897,13.9102c-0.1299,0-0.2598-0.0508-0.3501-0.1406c-0.0996-0.0996-0.1499-0.2197-0.1499-0.3496
		c0-0.1396,0.0503-0.2705,0.1401-0.3604c0.1997-0.1895,0.5195-0.1797,0.71,0c0.0898,0.1006,0.1504,0.2305,0.1504,0.3604
		c0,0.1201-0.0508,0.25-0.1504,0.3496C12.2402,13.8594,12.1094,13.9102,11.9897,13.9102z"/>
	<path d="M11.9863,15.7559c-1.2905,0-2.3403-1.0498-2.3403-2.3408c0-1.29,1.0498-2.3398,2.3403-2.3398
		c1.291,0,2.3408,1.0498,2.3408,2.3398C14.3271,14.7061,13.2773,15.7559,11.9863,15.7559z M11.9863,12.0752
		c-0.7393,0-1.3403,0.6006-1.3403,1.3398s0.6011,1.3408,1.3403,1.3408s1.3408-0.6016,1.3408-1.3408S12.7256,12.0752,11.9863,12.0752
		z"/>
	<path d="M13.5322,12.917c-0.1641,0-0.3242-0.0811-0.4199-0.2285c-0.1504-0.2324-0.083-0.542,0.1484-0.6914l6.5127-4.2056
		c0.2314-0.1479,0.541-0.084,0.6914,0.1484s0.083,0.5415-0.1484,0.6914l-6.5127,4.2056
		C13.7197,12.8916,13.626,12.917,13.5322,12.917z"/>
</g>
<rect x="-0.0136" fill="none" width="24" height="24"/>
</svg>
