<?xml version="1.0" encoding="utf-8"?>
<!-- Generator: Adobe Illustrator 18.1.0, SVG Export Plug-In . SVG Version: 6.00 Build 0)  -->
<svg version="1.1" id="Layer_1" xmlns="http://www.w3.org/2000/svg" xmlns:xlink="http://www.w3.org/1999/xlink" x="0px" y="0px"
	 width="24px" height="24px" viewBox="0 0 24 24" enable-background="new 0 0 24 24" xml:space="preserve">
<g>
	<path d="M23.4922,24.0322H0.5054c-0.2764,0-0.5-0.2236-0.5-0.5V0.5454c0-0.2764,0.2236-0.5,0.5-0.5h18.6138
		c0.1328,0,0.2598,0.0527,0.3535,0.1465l4.373,4.373c0.0938,0.0938,0.1465,0.2207,0.1465,0.3535v18.6138
		C23.9922,23.8086,23.7686,24.0322,23.4922,24.0322z M1.0054,23.0322h21.9868V5.1255l-4.0801-4.0801H1.0054V23.0322z"/>
	<path d="M19.5234,24.0322H4.4736c-0.2764,0-0.5-0.2236-0.5-0.5V10.4917c0-0.2764,0.2236-0.5,0.5-0.5h15.0498
		c0.2764,0,0.5,0.2236,0.5,0.5v13.0405C20.0234,23.8086,19.7998,24.0322,19.5234,24.0322z M4.9736,23.0322h14.0498V10.9917H4.9736
		V23.0322z"/>
	<path d="M16.5273,7.9697H7.4702c-0.2764,0-0.5-0.2236-0.5-0.5V0.5454c0-0.2764,0.2236-0.5,0.5-0.5h9.0571
		c0.2764,0,0.5,0.2236,0.5,0.5v6.9243C17.0273,7.7461,16.8037,7.9697,16.5273,7.9697z M7.9702,6.9697h8.0571V1.0454H7.9702V6.9697z"
		/>
	<path d="M14.5176,5.9707h-1.125c-0.2764,0-0.5-0.2236-0.5-0.5v-3.123c0-0.2764,0.2236-0.5,0.5-0.5h1.125
		c0.2764,0,0.5,0.2236,0.5,0.5v3.123C15.0176,5.7471,14.7939,5.9707,14.5176,5.9707z M13.8926,4.9707h0.125v-2.123h-0.125V4.9707z"
		/>
	<path d="M16.3916,20.0078H7.606c-0.2764,0-0.5-0.2236-0.5-0.5s0.2236-0.5,0.5-0.5h8.7856c0.2764,0,0.5,0.2236,0.5,0.5
		S16.668,20.0078,16.3916,20.0078z"/>
	<path d="M16.3916,17.0078H7.606c-0.2764,0-0.5-0.2236-0.5-0.5s0.2236-0.5,0.5-0.5h8.7856c0.2764,0,0.5,0.2236,0.5,0.5
		S16.668,17.0078,16.3916,17.0078z"/>
	<path d="M16.3916,14.0068H7.606c-0.2764,0-0.5-0.2236-0.5-0.5s0.2236-0.5,0.5-0.5h8.7856c0.2764,0,0.5,0.2236,0.5,0.5
		S16.668,14.0068,16.3916,14.0068z"/>
</g>
<rect fill="none" width="24" height="24"/>
</svg>
