<?xml version="1.0" encoding="utf-8"?>
<!-- Generator: Adobe Illustrator 18.1.0, SVG Export Plug-In . SVG Version: 6.00 Build 0)  -->
<svg version="1.1" id="Layer_1" xmlns="http://www.w3.org/2000/svg" xmlns:xlink="http://www.w3.org/1999/xlink" x="0px" y="0px"
	 width="24px" height="24px" viewBox="0 0 24 24" enable-background="new 0 0 24 24" xml:space="preserve">
<g>
	<g>
		<g>
			<path d="M15.0176,4.0029h-0.5c-0.2764,0-0.5-0.2236-0.5-0.5s0.2236-0.5,0.5-0.5h0.5c0.2764,0,0.5,0.2236,0.5,0.5
				S15.2939,4.0029,15.0176,4.0029z"/>
			<path d="M17.1543,4.0029h-0.5342c-0.2764,0-0.5-0.2236-0.5-0.5s0.2236-0.5,0.5-0.5h0.5342c0.2764,0,0.5,0.2236,0.5,0.5
				S17.4307,4.0029,17.1543,4.0029z"/>
			<path d="M19.2568,4.0029h-0.5c-0.2764,0-0.5-0.2236-0.5-0.5s0.2236-0.5,0.5-0.5h0.5c0.2764,0,0.5,0.2236,0.5,0.5
				S19.5332,4.0029,19.2568,4.0029z"/>
		</g>
	</g>
	<g>
		<g>
			<path d="M20.5068,10c-0.2764,0-0.5-0.2236-0.5-0.5V9c0-0.2764,0.2236-0.5,0.5-0.5s0.5,0.2236,0.5,0.5v0.5
				C21.0068,9.7764,20.7832,10,20.5068,10z"/>
			<path d="M20.5068,7.894c-0.2764,0-0.5-0.2236-0.5-0.5V6.8589c0-0.2764,0.2236-0.5,0.5-0.5s0.5,0.2236,0.5,0.5V7.394
				C21.0068,7.6704,20.7832,7.894,20.5068,7.894z"/>
			<path d="M20.5068,5.7529c-0.2764,0-0.5-0.2236-0.5-0.5v-0.5c0-0.2764,0.2236-0.5,0.5-0.5s0.5,0.2236,0.5,0.5v0.5
				C21.0068,5.5293,20.7832,5.7529,20.5068,5.7529z"/>
		</g>
	</g>
	<path d="M20.5068,5.2529c-0.9648,0-1.75-0.7852-1.75-1.75s0.7852-1.75,1.75-1.75s1.75,0.7852,1.75,1.75
		S21.4717,5.2529,20.5068,5.2529z M20.5068,2.7529c-0.4131,0-0.75,0.3364-0.75,0.75s0.3369,0.75,0.75,0.75s0.75-0.3364,0.75-0.75
		S20.9199,2.7529,20.5068,2.7529z"/>
	<path d="M11.582,10H1.4985c-0.8232,0-1.4927-0.6182-1.4927-1.3779V1.4854C0.0059,0.6938,0.7036,0,1.4985,0H11.582
		c0.7715,0,1.4238,0.6802,1.4238,1.4854v7.1367C13.0059,9.3945,12.3809,10,11.582,10z M1.4985,1
		C1.2637,1,1.0059,1.2539,1.0059,1.4854v7.1367C1.0059,8.8447,1.2656,9,1.4985,9H11.582c0.2041,0,0.4238-0.1182,0.4238-0.3779
		V1.4854C12.0059,1.2358,11.7998,1,11.582,1H1.4985z"/>
	<path d="M12.5059,8h-12c-0.2764,0-0.5-0.2236-0.5-0.5S0.2295,7,0.5059,7h12c0.2764,0,0.5,0.2236,0.5,0.5S12.7822,8,12.5059,8z"/>
	<path d="M8.5132,12H4.5713c-0.2764,0-0.5-0.2236-0.5-0.5s0.2236-0.5,0.5-0.5h3.9419c0.2764,0,0.5,0.2236,0.5,0.5
		S8.7896,12,8.5132,12z"/>
	<path d="M6.5059,12c-0.2764,0-0.5-0.2236-0.5-0.5v-2c0-0.2764,0.2236-0.5,0.5-0.5s0.5,0.2236,0.5,0.5v2
		C7.0059,11.7764,6.7822,12,6.5059,12z"/>
	<path d="M22.582,22.001H12.499c-0.8228,0-1.4922-0.6182-1.4922-1.3779v-7.1367c0-0.791,0.6973-1.4854,1.4922-1.4854h10.083
		c0.7725,0,1.4248,0.6807,1.4248,1.4854v7.1367C24.0068,21.3955,23.3809,22.001,22.582,22.001z M12.499,13.001
		c-0.2344,0-0.4922,0.2539-0.4922,0.4854v7.1367c0,0.2227,0.2598,0.3779,0.4922,0.3779h10.083c0.2051,0,0.4248-0.1182,0.4248-0.3779
		v-7.1367c0-0.249-0.2061-0.4854-0.4248-0.4854H12.499z"/>
	<path d="M23.5068,20.001h-12c-0.2764,0-0.5-0.2236-0.5-0.5s0.2236-0.5,0.5-0.5h12c0.2764,0,0.5,0.2236,0.5,0.5
		S23.7832,20.001,23.5068,20.001z"/>
	<path d="M19.5137,24.001h-3.9414c-0.2764,0-0.5-0.2236-0.5-0.5s0.2236-0.5,0.5-0.5h3.9414c0.2764,0,0.5,0.2236,0.5,0.5
		S19.79,24.001,19.5137,24.001z"/>
	<path d="M17.5068,24.001c-0.2764,0-0.5-0.2236-0.5-0.5v-2c0-0.2764,0.2236-0.5,0.5-0.5s0.5,0.2236,0.5,0.5v2
		C18.0068,23.7773,17.7832,24.001,17.5068,24.001z"/>
	<g>
		<g>
			<path d="M9.4199,21.041h-0.5c-0.2764,0-0.5-0.2236-0.5-0.5s0.2236-0.5,0.5-0.5h0.5c0.2764,0,0.5,0.2236,0.5,0.5
				S9.6963,21.041,9.4199,21.041z"/>
			<path d="M7.3506,21.041H6.8276c-0.2764,0-0.5-0.2236-0.5-0.5s0.2236-0.5,0.5-0.5h0.5229c0.2764,0,0.5,0.2236,0.5,0.5
				S7.627,21.041,7.3506,21.041z"/>
			<path d="M5.2588,21.041h-0.5c-0.2764,0-0.5-0.2236-0.5-0.5s0.2236-0.5,0.5-0.5h0.5c0.2764,0,0.5,0.2236,0.5,0.5
				S5.5352,21.041,5.2588,21.041z"/>
		</g>
	</g>
	<g>
		<g>
			<path d="M3.5088,15.5439c-0.2764,0-0.5-0.2236-0.5-0.5v-0.5c0-0.2764,0.2236-0.5,0.5-0.5s0.5,0.2236,0.5,0.5v0.5
				C4.0088,15.3203,3.7852,15.5439,3.5088,15.5439z"/>
			<path d="M3.5088,17.6855c-0.2764,0-0.5-0.2236-0.5-0.5v-0.5352c0-0.2764,0.2236-0.5,0.5-0.5s0.5,0.2236,0.5,0.5v0.5352
				C4.0088,17.4619,3.7852,17.6855,3.5088,17.6855z"/>
			<path d="M3.5088,19.791c-0.2764,0-0.5-0.2236-0.5-0.5v-0.5c0-0.2764,0.2236-0.5,0.5-0.5s0.5,0.2236,0.5,0.5v0.5
				C4.0088,19.5674,3.7852,19.791,3.5088,19.791z"/>
		</g>
	</g>
	<path d="M3.5088,22.291c-0.9648,0-1.75-0.7852-1.75-1.75s0.7852-1.75,1.75-1.75s1.75,0.7852,1.75,1.75S4.4736,22.291,3.5088,22.291
		z M3.5088,19.791c-0.4136,0-0.75,0.3369-0.75,0.75s0.3364,0.75,0.75,0.75s0.75-0.3369,0.75-0.75S3.9224,19.791,3.5088,19.791z"/>
</g>
<rect fill="none" width="24" height="24"/>
</svg>
