<?xml version="1.0" encoding="utf-8"?>
<!-- Generator: Adobe Illustrator 18.1.0, SVG Export Plug-In . SVG Version: 6.00 Build 0)  -->
<svg version="1.1" id="Layer_1" xmlns="http://www.w3.org/2000/svg" xmlns:xlink="http://www.w3.org/1999/xlink" x="0px" y="0px"
	 width="24px" height="24px" viewBox="0 0 24 24" enable-background="new 0 0 24 24" xml:space="preserve">
<g>
	<path d="M21.1348,24H2.8652C1.2852,24,0,22.7148,0,21.1348V2.8652C0,1.2852,1.2852,0,2.8652,0h18.2695
		C22.7148,0,24,1.2852,24,2.8652v18.2695C24,22.7148,22.7148,24,21.1348,24z M2.8652,1C1.8369,1,1,1.8369,1,2.8652v18.2695
		C1,22.1631,1.8369,23,2.8652,23h18.2695C22.1631,23,23,22.1631,23,21.1348V2.8652C23,1.8369,22.1631,1,21.1348,1H2.8652z"/>
	<path d="M18.5195,7h-7.0137c-0.2764,0-0.5-0.2236-0.5-0.5s0.2236-0.5,0.5-0.5h7.0137c0.2764,0,0.5,0.2236,0.5,0.5
		S18.7959,7,18.5195,7z"/>
	<path d="M18.5195,13h-7.0137c-0.2764,0-0.5-0.2236-0.5-0.5s0.2236-0.5,0.5-0.5h7.0137c0.2764,0,0.5,0.2236,0.5,0.5
		S18.7959,13,18.5195,13z"/>
	<path d="M18.5195,19h-7.0137c-0.2764,0-0.5-0.2236-0.5-0.5s0.2236-0.5,0.5-0.5h7.0137c0.2764,0,0.5,0.2236,0.5,0.5
		S18.7959,19,18.5195,19z"/>
	<path d="M5.9995,7.9937c-1.0967,0-1.9893-0.8926-1.9893-1.9897c0-1.0967,0.8926-1.9893,1.9893-1.9893
		c1.0972,0,1.9897,0.8926,1.9897,1.9893C7.9893,7.1011,7.0967,7.9937,5.9995,7.9937z M5.9995,5.0146
		c-0.5454,0-0.9893,0.4438-0.9893,0.9893c0,0.5459,0.4438,0.9897,0.9893,0.9897c0.5459,0,0.9897-0.4438,0.9897-0.9897
		C6.9893,5.4585,6.5454,5.0146,5.9995,5.0146z"/>
	<path d="M5.9995,13.9941c-1.0967,0-1.9893-0.8926-1.9893-1.9893c0-1.0977,0.8926-1.9902,1.9893-1.9902
		c1.0972,0,1.9897,0.8926,1.9897,1.9902C7.9893,13.1016,7.0967,13.9941,5.9995,13.9941z M5.9995,11.0146
		c-0.5454,0-0.9893,0.4443-0.9893,0.9902s0.4438,0.9893,0.9893,0.9893c0.5459,0,0.9897-0.4434,0.9897-0.9893
		S6.5454,11.0146,5.9995,11.0146z"/>
	<path d="M5.9995,19.9941c-1.0967,0-1.9893-0.8926-1.9893-1.9893s0.8926-1.9893,1.9893-1.9893c1.0972,0,1.9897,0.8926,1.9897,1.9893
		S7.0967,19.9941,5.9995,19.9941z M5.9995,17.0156c-0.5454,0-0.9893,0.4434-0.9893,0.9893s0.4438,0.9893,0.9893,0.9893
		c0.5459,0,0.9897-0.4434,0.9897-0.9893S6.5454,17.0156,5.9995,17.0156z"/>
</g>
<rect fill="none" width="24" height="24"/>
</svg>
