<?xml version="1.0" encoding="utf-8"?>
<!-- Generator: Adobe Illustrator 18.1.0, SVG Export Plug-In . SVG Version: 6.00 Build 0)  -->
<svg version="1.1" id="Layer_1" xmlns="http://www.w3.org/2000/svg" xmlns:xlink="http://www.w3.org/1999/xlink" x="0px" y="0px"
	 width="24px" height="24px" viewBox="0 0 24 24" enable-background="new 0 0 24 24" xml:space="preserve">
<g>
	<path d="M21.3223,12.0352h-7.5859c-0.2764,0-0.5-0.2236-0.5-0.5c0-2.3267,1.9658-4.2925,4.293-4.2925s4.293,1.9658,4.293,4.2925
		C21.8223,11.8115,21.5986,12.0352,21.3223,12.0352z M14.2764,11.0352h6.5059c-0.249-1.5576-1.6377-2.7925-3.2529-2.7925
		S14.5254,9.4775,14.2764,11.0352z"/>
	<path d="M6.5142,24.0352c-0.2764,0-0.5-0.2236-0.5-0.5V7.0166c0-3.2002,2.6147-5.7778,5.9531-5.8687
		c1.5151-0.0435,2.9233,0.5005,4.019,1.5669c1.2793,1.2451,2.043,3.125,2.043,5.0278c0,0.2764-0.2236,0.5-0.5,0.5
		s-0.5-0.2236-0.5-0.5c0-1.6387-0.6504-3.2505-1.7402-4.311c-0.8984-0.8745-2.0586-1.334-3.2944-1.2837
		C9.1553,2.2246,7.0142,4.3179,7.0142,7.0166v16.5186C7.0142,23.8115,6.7905,24.0352,6.5142,24.0352z"/>
	<path d="M9.0142,24.0352h-5c-0.2764,0-0.5-0.2236-0.5-0.5s0.2236-0.5,0.5-0.5h5c0.2764,0,0.5,0.2236,0.5,0.5
		S9.2905,24.0352,9.0142,24.0352z"/>
	<path fill="none" stroke="#000000" stroke-linecap="round" stroke-linejoin="round" d="M16.8453,10.7035"/>
	<path d="M17.5146,19.3389c-0.2764,0-0.5-0.2236-0.5-0.5v-1.4502c0-0.2764,0.2236-0.5,0.5-0.5s0.5,0.2236,0.5,0.5v1.4502
		C18.0146,19.1152,17.791,19.3389,17.5146,19.3389z"/>
	<path d="M14.0498,18.2432c-0.126,0-0.252-0.0469-0.3486-0.1416c-0.1982-0.1934-0.2021-0.5098-0.0098-0.707l1.3799-1.415
		c0.1953-0.1973,0.5117-0.2012,0.707-0.0098c0.1982,0.1934,0.2021,0.5098,0.0098,0.707l-1.3799,1.415
		C14.3096,18.1924,14.1797,18.2432,14.0498,18.2432z"/>
	<path d="M20.9785,18.2432c-0.1299,0-0.2598-0.0508-0.3584-0.1514l-1.3799-1.415c-0.1924-0.1973-0.1885-0.5137,0.0098-0.707
		c0.1973-0.1914,0.5137-0.1875,0.707,0.0098l1.3799,1.415c0.1924,0.1973,0.1885,0.5137-0.0098,0.707
		C21.2305,18.1963,21.1045,18.2432,20.9785,18.2432z"/>
	<path d="M17.6113,15.6445c-1.1641,0-2.1113-0.9795-2.1113-2.1826c0-0.2764,0.2236-0.5,0.5-0.5s0.5,0.2236,0.5,0.5
		c0,0.6523,0.499,1.1826,1.1113,1.1826c0.6133,0,1.1123-0.5303,1.1123-1.1826c0-0.2764,0.2236-0.5,0.5-0.5s0.5,0.2236,0.5,0.5
		C19.7236,14.665,18.7764,15.6445,17.6113,15.6445z"/>
</g>
<rect x="0.0142" y="0.0354" fill="none" width="24" height="24"/>
</svg>
