<?xml version="1.0" encoding="utf-8"?>
<!-- Generator: Adobe Illustrator 18.1.0, SVG Export Plug-In . SVG Version: 6.00 Build 0)  -->
<svg version="1.1" id="Layer_1" xmlns="http://www.w3.org/2000/svg" xmlns:xlink="http://www.w3.org/1999/xlink" x="0px" y="0px"
	 width="24px" height="24px" viewBox="0 0 24 24" enable-background="new 0 0 24 24" xml:space="preserve">
<g>
	<path d="M17.5049,5.0098h-4c-0.2764,0-0.5-0.2236-0.5-0.5v-4c0-0.2764,0.2236-0.5,0.5-0.5s0.5,0.2236,0.5,0.5v3.5h3.5
		c0.2764,0,0.5,0.2236,0.5,0.5S17.7812,5.0098,17.5049,5.0098z"/>
	<path d="M16.7129,24.0098H1.2915c-0.7095,0-1.2871-0.583-1.2871-1.2998V1.3154c0-0.7197,0.5776-1.3057,1.2871-1.3057h12.2134
		c0.418,0,0.6406,0.2192,0.8027,0.3789l3.3125,3.2686c0.1787,0.1772,0.3848,0.4341,0.3848,0.8525v2.064c0,0.2764-0.2236,0.5-0.5,0.5
		s-0.5-0.2236-0.5-0.5v-2.064c0-0.0352,0-0.0542-0.0879-0.1406l-3.3125-3.2686c-0.0273-0.0278-0.0859-0.0854-0.1064-0.0977
		L1.2915,1.0098c-0.1558,0-0.2871,0.1401-0.2871,0.3057V22.71c0,0.1621,0.1313,0.2998,0.2871,0.2998h15.4214
		c0.1582,0,0.292-0.1377,0.292-0.2998v-1.1875c0-0.2764,0.2236-0.5,0.5-0.5s0.5,0.2236,0.5,0.5V22.71
		C18.0049,23.4268,17.4248,24.0098,16.7129,24.0098z"/>
	<path d="M10.4482,13.9648H4.437c-0.2764,0-0.5-0.2236-0.5-0.5s0.2236-0.5,0.5-0.5h6.0112c0.2764,0,0.5,0.2236,0.5,0.5
		S10.7246,13.9648,10.4482,13.9648z"/>
	<path d="M10.4482,16.9932H4.437c-0.2764,0-0.5-0.2236-0.5-0.5s0.2236-0.5,0.5-0.5h6.0112c0.2764,0,0.5,0.2236,0.5,0.5
		S10.7246,16.9932,10.4482,16.9932z"/>
	<path d="M10.4482,10.9355H4.437c-0.2764,0-0.5-0.2236-0.5-0.5s0.2236-0.5,0.5-0.5h6.0112c0.2764,0,0.5,0.2236,0.5,0.5
		S10.7246,10.9355,10.4482,10.9355z"/>
	<path d="M23.1709,20.0322h-9.3584c-0.4727,0-0.8574-0.3965-0.8574-0.8838v-1.3496c0-0.3643,0.2119-0.6865,0.5391-0.8213
		c2.5488-1.0459,3.1328-1.5205,3.2637-1.6699V15.082c-0.3027-0.376-0.542-0.8467-0.7002-1.3789
		c-0.209-0.209-0.3486-0.4893-0.3906-0.792c-0.0449-0.3174,0.0166-0.6309,0.1729-0.9014v-1.0591
		c0-1.604,1.0166-2.6001,2.6523-2.6001c1.6592,0,2.6504,0.9722,2.6504,2.6001v1.0581c0.1562,0.2705,0.2178,0.585,0.1738,0.9023
		c-0.042,0.3027-0.1816,0.583-0.3906,0.792c-0.1582,0.5322-0.3975,1.0029-0.7002,1.3789v0.2373
		c0.1064,0.1172,0.6572,0.5898,3.2627,1.6582c0.3223,0.1309,0.54,0.4609,0.54,0.8213v1.3496
		C24.0283,19.6357,23.6436,20.0322,23.1709,20.0322z M13.9551,19.0322h9.0732v-1.1621c-3.2617-1.3438-3.6631-1.8887-3.7822-2.2939
		c-0.0137-0.0449-0.0205-0.0928-0.0205-0.1406v-0.5391c0-0.125,0.0469-0.2461,0.1318-0.3389
		c0.2861-0.3096,0.5078-0.7451,0.6436-1.2588c0.0283-0.1104,0.0938-0.2061,0.1846-0.2734c0.0752-0.0566,0.126-0.1484,0.1406-0.252
		c0.0088-0.0654,0.0107-0.1924-0.0811-0.3115c-0.0664-0.0869-0.1025-0.1934-0.1025-0.3037v-1.2075
		c0-1.0767-0.54-1.6001-1.6504-1.6001c-1.0967,0-1.6523,0.5386-1.6523,1.6001v1.2085c0,0.1094-0.0361,0.2168-0.1025,0.3037
		c-0.0908,0.1182-0.0889,0.2451-0.0801,0.3096c0.0146,0.1045,0.0654,0.1963,0.1406,0.2529
		c0.0908,0.0674,0.1562,0.1631,0.1846,0.2734c0.1357,0.5137,0.3574,0.9492,0.6436,1.2588c0.085,0.0928,0.1318,0.2139,0.1318,0.3389
		v0.5391c0,0.0479-0.0068,0.0947-0.0205,0.1406c-0.1465,0.501-0.8486,1.084-3.7822,2.2939V19.0322z"/>
</g>
<rect y="0.0001" fill="none" width="24" height="24"/>
</svg>
