<?xml version="1.0" encoding="utf-8"?>
<!-- Generator: Adobe Illustrator 18.1.0, SVG Export Plug-In . SVG Version: 6.00 Build 0)  -->
<svg version="1.1" id="Layer_1" xmlns="http://www.w3.org/2000/svg" xmlns:xlink="http://www.w3.org/1999/xlink" x="0px" y="0px"
	 width="24px" height="24px" viewBox="0 0 24 24" enable-background="new 0 0 24 24" xml:space="preserve">
<g>
	<path d="M22.876,21.0352H11.7036c-0.1792,0-0.3447-0.0957-0.4341-0.252c-0.0889-0.1553-0.0879-0.3467,0.0029-0.501
		c0.1172-0.2002,0.2363-0.5254,0.1377-0.9414c-0.1104-0.4688-0.502-0.8438-0.9746-0.9336c-0.8042-0.1455-1.5132,0.46-1.5132,1.2383
		c0,0.1885,0.043,0.375,0.125,0.5449c0.0854,0.0898,0.1377,0.2109,0.1377,0.3447c0,0.2793-0.2397,0.4814-0.5103,0.5
		c-0.0029,0-0.0063,0-0.0098,0H0.4795c-0.2764,0-0.5-0.2236-0.5-0.5v-4.876c0-0.2285,0.1553-0.4287,0.377-0.4844
		c0.6807-0.1729,1.1562-0.7842,1.1562-1.4863s-0.4756-1.3125-1.1562-1.4854c-0.2217-0.0566-0.377-0.2563-0.377-0.4849V8.5176
		c0-0.2764,0.2236-0.5,0.5-0.5H23.457c0.2764,0,0.5,0.2236,0.5,0.5v11.4375C23.957,20.5508,23.4717,21.0352,22.876,21.0352z
		 M12.4121,20.0352H22.876c0.0449,0,0.0811-0.0361,0.0811-0.0801V9.0176H0.9795v2.3438c0.9194,0.394,1.5332,1.3018,1.5332,2.3271
		s-0.6138,1.9336-1.5332,2.3271v4.0195h6.9771c-0.0225-0.1279-0.0342-0.2588-0.0342-0.3896
		c0.0005-1.3906,1.2651-2.4941,2.6992-2.2207c0.8682,0.165,1.5601,0.8271,1.7622,1.6865
		C12.4561,19.4189,12.4648,19.7324,12.4121,20.0352z"/>
	<path d="M23.457,9.0176H0.4795c-0.2344,0-0.437-0.1626-0.4883-0.3916c-0.0508-0.2285,0.064-0.4619,0.2764-0.5615l12.2578-5.7349
		c0.4492-0.209,0.9453-0.3013,1.4258-0.2642c10.082,0.7983,10.0137,6.2378,10.0059,6.4692
		C23.9473,8.8037,23.7266,9.0176,23.457,9.0176z M2.728,8.0176h20.1743c-0.248-1.228-1.6104-4.3677-9.0293-4.9551
		c-0.3096-0.0234-0.6318,0.0371-0.9238,0.1733L2.728,8.0176z"/>
	<path d="M16.3477,19.1875c-1.4492,0-2.6279-1.1787-2.6279-2.6279s1.1787-2.6289,2.6279-2.6289s2.6279,1.1797,2.6279,2.6289
		S17.7969,19.1875,16.3477,19.1875z M16.3477,14.9307c-0.8975,0-1.6279,0.7305-1.6279,1.6289c0,0.8975,0.7305,1.6279,1.6279,1.6279
		s1.6279-0.7305,1.6279-1.6279C17.9756,15.6611,17.2451,14.9307,16.3477,14.9307z"/>
	<path d="M19.6328,13.79c-1.0811,0-1.96-0.8799-1.96-1.9609s0.8789-1.9604,1.96-1.9604s1.9609,0.8794,1.9609,1.9604
		S20.7139,13.79,19.6328,13.79z M19.6328,10.8687c-0.5293,0-0.96,0.4307-0.96,0.9604c0,0.5303,0.4307,0.9609,0.96,0.9609
		c0.5303,0,0.9609-0.4307,0.9609-0.9609C20.5938,11.2993,20.1631,10.8687,19.6328,10.8687z"/>
	<path d="M8.9282,16.0195c-1.1338,0-2.0562-0.9219-2.0562-2.0557s0.9224-2.0566,2.0562-2.0566c1.1333,0,2.0557,0.9229,2.0557,2.0566
		S10.0615,16.0195,8.9282,16.0195z M8.9282,12.9072c-0.5825,0-1.0562,0.4736-1.0562,1.0566c0,0.582,0.4736,1.0557,1.0562,1.0557
		c0.582,0,1.0557-0.4736,1.0557-1.0557C9.9839,13.3809,9.5103,12.9072,8.9282,12.9072z"/>
	<path d="M13.3076,12.8994c-0.7783,0-1.4121-0.6338-1.4121-1.4121c0-0.7788,0.6338-1.4121,1.4121-1.4121
		s1.4121,0.6333,1.4121,1.4121C14.7197,12.2656,14.0859,12.8994,13.3076,12.8994z M13.3076,11.0752
		c-0.2275,0-0.4121,0.1851-0.4121,0.4121s0.1846,0.4121,0.4121,0.4121s0.4121-0.1851,0.4121-0.4121S13.5352,11.0752,13.3076,11.0752
		z"/>
	<path d="M4.3174,18.75c-0.9824,0-1.7817-0.7988-1.7817-1.7812s0.7993-1.7822,1.7817-1.7822s1.7812,0.7998,1.7812,1.7822
		S5.2998,18.75,4.3174,18.75z M4.3174,16.1865c-0.4312,0-0.7817,0.3506-0.7817,0.7822c0,0.4307,0.3506,0.7812,0.7817,0.7812
		c0.4307,0,0.7812-0.3506,0.7812-0.7812C5.0986,16.5371,4.748,16.1865,4.3174,16.1865z"/>
	<path d="M20.8193,19.1895c-0.1299,0-0.25-0.0498-0.3496-0.1396c-0.0996-0.0996-0.1504-0.2305-0.1504-0.3604
		c0-0.1396,0.0605-0.2695,0.1504-0.3594c0.1797-0.1807,0.5205-0.1807,0.71,0c0.0898,0.0996,0.1396,0.2295,0.1396,0.3594
		s-0.0498,0.25-0.1396,0.3506C21.0801,19.1396,20.9502,19.1895,20.8193,19.1895z"/>
	<path d="M4.3198,11.79c-0.1299,0-0.2598-0.0503-0.3501-0.1401c-0.1001-0.1001-0.1499-0.23-0.1499-0.3501
		c0-0.1401,0.0498-0.2598,0.1401-0.3599c0.1997-0.1899,0.5298-0.1802,0.71,0.0098c0.0898,0.0801,0.1499,0.21,0.1499,0.3501
		c0,0.1299-0.0601,0.2603-0.1499,0.3501C4.5796,11.7397,4.4497,11.79,4.3198,11.79z"/>
</g>
<rect y="0.0197" fill="none" width="24" height="24"/>
</svg>
