<?xml version="1.0" encoding="utf-8"?>
<!-- Generator: Adobe Illustrator 18.1.0, SVG Export Plug-In . SVG Version: 6.00 Build 0)  -->
<svg version="1.1" id="Layer_1" xmlns="http://www.w3.org/2000/svg" xmlns:xlink="http://www.w3.org/1999/xlink" x="0px" y="0px"
	 width="24px" height="24px" viewBox="0 0 24 24" enable-background="new 0 0 24 24" xml:space="preserve">
<g>
	<path d="M12.0332,6.022c-0.2764,0-0.5-0.2236-0.5-0.5V1.6362c0-0.2764,0.2236-0.5,0.5-0.5s0.5,0.2236,0.5,0.5V5.522
		C12.5332,5.7983,12.3096,6.022,12.0332,6.022z"/>
	<path d="M15.5801,6.022c-0.0928,0-0.1855-0.0254-0.2686-0.0781c-0.2324-0.1484-0.3018-0.4575-0.1533-0.6904l2.0127-3.1631
		c0.1504-0.2334,0.4609-0.2988,0.6904-0.1533c0.2324,0.1484,0.3018,0.4575,0.1533,0.6904L16.002,5.7905
		C15.9062,5.9399,15.7451,6.022,15.5801,6.022z"/>
	<path d="M8.4854,6.022c-0.1655,0-0.3271-0.082-0.4224-0.2314L6.0508,2.6274C5.9023,2.394,5.9712,2.0854,6.2041,1.937
		C6.439,1.7891,6.7466,1.8579,6.8945,2.0903l2.0122,3.1631c0.1484,0.2334,0.0796,0.542-0.1533,0.6904
		C8.6699,5.9966,8.5771,6.022,8.4854,6.022z"/>
	<path d="M23.5146,19.0352H0.5142c-0.2764,0-0.5-0.2236-0.5-0.5v-10c0-0.2764,0.2236-0.5,0.5-0.5h23.0005
		c0.2764,0,0.5,0.2236,0.5,0.5v10C24.0146,18.8115,23.791,19.0352,23.5146,19.0352z M1.0142,18.0352h22.0005v-9H1.0142V18.0352z"/>
	<path d="M21.5146,20.1592c-0.2764,0-0.5-0.2236-0.5-0.5v-1.124c0-0.2764,0.2236-0.5,0.5-0.5s0.5,0.2236,0.5,0.5v1.124
		C22.0146,19.9355,21.791,20.1592,21.5146,20.1592z"/>
	<path d="M2.5132,20.1592c-0.2764,0-0.5-0.2236-0.5-0.5v-1.124c0-0.2764,0.2236-0.5,0.5-0.5s0.5,0.2236,0.5,0.5v1.124
		C3.0132,19.9355,2.7896,20.1592,2.5132,20.1592z"/>
	<path d="M4.9116,15.8994c-1.0688,0-1.938-1.0605-1.938-2.3643s0.8691-2.3638,1.938-2.3638s1.938,1.0601,1.938,2.3638
		S5.9805,15.8994,4.9116,15.8994z M4.9116,12.1709c-0.5083,0-0.938,0.625-0.938,1.3643s0.4297,1.3643,0.938,1.3643
		s0.938-0.625,0.938-1.3643S5.4199,12.1709,4.9116,12.1709z"/>
	<path d="M14.6611,15.8994c-1.0693,0-1.9385-1.0605-1.9385-2.3643s0.8691-2.3638,1.9385-2.3638
		c1.0684,0,1.9375,1.0601,1.9375,2.3638S15.7295,15.8994,14.6611,15.8994z M14.6611,12.1709c-0.5088,0-0.9385,0.625-0.9385,1.3643
		s0.4297,1.3643,0.9385,1.3643c0.5078,0,0.9375-0.625,0.9375-1.3643S15.1689,12.1709,14.6611,12.1709z"/>
	<path d="M19.1777,15.8994c-1.0693,0-1.9385-1.0605-1.9385-2.3643s0.8691-2.3638,1.9385-2.3638
		c1.0684,0,1.9375,1.0601,1.9375,2.3638S20.2461,15.8994,19.1777,15.8994z M19.1777,12.1709c-0.5088,0-0.9385,0.625-0.9385,1.3643
		s0.4297,1.3643,0.9385,1.3643c0.5078,0,0.9375-0.625,0.9375-1.3643S19.6855,12.1709,19.1777,12.1709z"/>
	<path d="M8.0776,15.8193c-0.0747,0-0.1504-0.0166-0.2222-0.0518c-0.2471-0.123-0.3481-0.4238-0.2251-0.6709l1.4141-2.8447H7.7583
		c-0.2764,0-0.5-0.2246-0.5-0.5005c0-0.2764,0.2236-0.5,0.5-0.5h2.0928c0.1729,0,0.334,0.0894,0.4248,0.2368
		c0.0913,0.147,0.1001,0.3306,0.0229,0.4858L8.5259,15.542C8.4385,15.7178,8.2617,15.8193,8.0776,15.8193z"/>
	<path d="M11.4614,13.3438c-0.2764,0-0.5-0.2236-0.5-0.5v-0.2139c0-0.2764,0.2236-0.5,0.5-0.5s0.5,0.2236,0.5,0.5v0.2139
		C11.9614,13.1201,11.7378,13.3438,11.4614,13.3438z"/>
	<path d="M11.4614,15.21c-0.2764,0-0.5-0.2236-0.5-0.5v-0.2129c0-0.2764,0.2236-0.5,0.5-0.5s0.5,0.2236,0.5,0.5V14.71
		C11.9614,14.9863,11.7378,15.21,11.4614,15.21z"/>
</g>
<rect x="0.0142" y="0.0354" fill="none" width="24" height="24"/>
</svg>
