<?xml version="1.0" encoding="utf-8"?>
<!-- Generator: Adobe Illustrator 18.1.0, SVG Export Plug-In . SVG Version: 6.00 Build 0)  -->
<svg version="1.1" id="Layer_1" xmlns="http://www.w3.org/2000/svg" xmlns:xlink="http://www.w3.org/1999/xlink" x="0px" y="0px"
	 width="24px" height="24px" viewBox="0 0 24 24" enable-background="new 0 0 24 24" xml:space="preserve">
<g>
	<path d="M15.7744,20.4619c-0.2656,0-0.4863-0.208-0.499-0.4756c-0.0137-0.2754,0.1992-0.5107,0.4746-0.5234
		c2.8408-0.1387,4.9082-0.875,5.1445-1.8311L20.917,3.4194c-0.001-0.0142-0.002-0.0283-0.002-0.041s0-0.0254,0.001-0.0376
		c-0.043-1.1289-2.7217-2.0088-6.1338-2.0088c-3.415,0-6.0957,0.8813-6.1348,2.0112c0.0005,0.0103,0.001,0.021,0.001,0.0317
		c0,0.0122-0.0005,0.0244-0.0015,0.0371v0.6113c0,0.2764-0.2236,0.5-0.5,0.5s-0.5-0.2236-0.5-0.5V3.3862c0-0.0029,0-0.0063,0-0.0093
		s0-0.0059,0-0.0088c0-2.2412,3.8438-3.0361,7.1353-3.0361c3.291,0,7.1348,0.7954,7.1348,3.0366c0,0.0034,0,0.0068,0,0.0103
		c0,0.0039,0,0.0073,0,0.0112v14.1577c0,0.1279-0.0225,0.2549-0.0684,0.377c-0.5156,2.1006-4.7607,2.4736-6.0498,2.5361
		C15.79,20.4619,15.7822,20.4619,15.7744,20.4619z"/>
	<path d="M8.1299,3.7124c-0.2271,0-0.418-0.1309-0.4648-0.3545C7.6548,3.3149,7.647,3.2603,7.647,3.2207
		c0-0.2764,0.2236-0.5,0.5-0.5s0.5,0.2236,0.5,0.5H8.6333c-0.021,0.2349-0.189,0.4556-0.4238,0.4863
		C8.1826,3.7104,8.1562,3.7124,8.1299,3.7124z"/>
	<path d="M15.0322,5.8159c-0.2715,0-0.4941-0.2168-0.5-0.4893c-0.0059-0.2759,0.2129-0.5044,0.4893-0.5107
		c3.8301-0.0835,5.7607-1.374,5.9082-1.6968c0.0332-0.2729,0.2734-0.4458,0.5518-0.4155c0.2744,0.0337,0.4639,0.3032,0.4307,0.5776
		c-0.1367,1.1289-3.1035,2.4526-6.8691,2.5347C15.0391,5.8159,15.0361,5.8159,15.0322,5.8159z"/>
	<path d="M15.7744,10.6123c-0.2627,0-0.4834-0.2051-0.499-0.4707c-0.0166-0.2754,0.1943-0.5122,0.4697-0.5283
		c3.4365-0.2031,5.0557-1.3706,5.1826-1.666c0.0332-0.2744,0.2812-0.4585,0.5518-0.4189c0.2744,0.0327,0.4658,0.2998,0.4326,0.5737
		c-0.125,1.0449-2.6094,2.3027-6.1084,2.5093C15.7939,10.6118,15.7842,10.6123,15.7744,10.6123z"/>
	<path d="M15.7598,15.4014c-0.2637,0-0.4834-0.2051-0.499-0.4717c-0.0156-0.2754,0.1943-0.5117,0.4707-0.5273
		c3.4473-0.1982,5.0693-1.3701,5.1963-1.667c0.0332-0.2744,0.2812-0.4551,0.5518-0.4189c0.2744,0.0322,0.4658,0.2988,0.4326,0.5732
		c-0.126,1.0498-2.6162,2.3086-6.124,2.5107C15.7783,15.4014,15.7686,15.4014,15.7598,15.4014z"/>
	<path d="M9.125,23.6758c-2.9702,0-6.6079-0.6846-7.083-2.6123c-0.0283-0.0654-0.0518-0.1934-0.0518-0.3242L1.9907,6.582
		c-0.0005-0.0073-0.0005-0.0146-0.0005-0.022c0-2.2412,3.8433-3.0366,7.1348-3.0366c3.291,0,7.1348,0.7954,7.1348,3.0366h-0.001
		c0.001,0.0073,0.001,0.0146,0.001,0.022v14.1572c0,0.1328-0.0234,0.2617-0.0703,0.3838
		C15.7334,22.9912,12.0957,23.6758,9.125,23.6758z M2.9907,6.5347c0.0005,0.0103,0.001,0.021,0.001,0.0317L2.9902,20.7393
		c0.2827,1.1406,2.9106,1.9365,6.1348,1.9365c3.2246,0,5.8525-0.7959,6.1123-1.8516l0.0225-14.2207
		c-0.002-0.0249-0.001-0.0498,0.001-0.0742c-0.001-1.1113-2.6953-2.0059-6.1357-2.0059C5.7104,4.5234,3.0303,5.4048,2.9907,6.5347z"
		/>
	<path d="M9.0923,9.0464c-4.3672,0-6.9648-1.5015-7.0913-2.5391c0-0.2764,0.2188-0.5479,0.4946-0.5479
		c0.2373,0,0.4321,0.1304,0.4819,0.3418c0.1743,0.415,2.1377,1.7451,6.1147,1.7451c4.0308,0,6.0308-1.3765,6.1782-1.728
		c0.0342-0.2744,0.2812-0.4595,0.5527-0.4194c0.2744,0.0327,0.4658,0.2988,0.4326,0.5732
		C16.126,7.5469,13.3379,9.0464,9.0923,9.0464z"/>
	<path d="M9.0923,13.834c-4.3672,0-6.9648-1.502-7.0913-2.5396c0-0.2764,0.2188-0.5479,0.4946-0.5479
		c0.2373,0,0.4321,0.1304,0.4819,0.3418c0.1743,0.415,2.1377,1.7456,6.1147,1.7456c4.0308,0,6.0308-1.377,6.1782-1.7285
		c0.0342-0.2749,0.2812-0.4551,0.5527-0.4194c0.2744,0.0327,0.4658,0.2988,0.4326,0.5732
		C16.126,12.334,13.3379,13.834,9.0923,13.834z"/>
	<path d="M9.0923,18.6211c-4.3672,0-6.9648-1.501-7.0913-2.5391c0-0.2764,0.2188-0.5479,0.4946-0.5479
		c0.2383,0,0.4336,0.1309,0.4829,0.3447c0.1738,0.4121,2.1372,1.7422,6.1138,1.7422c4.0308,0,6.0308-1.377,6.1782-1.7285
		c0.0342-0.2744,0.2812-0.4453,0.5527-0.4199c0.2744,0.0332,0.4658,0.2998,0.4326,0.5732
		C16.126,17.1211,13.3379,18.6211,9.0923,18.6211z"/>
</g>
<rect fill="none" width="24" height="24"/>
</svg>
