<?xml version="1.0" encoding="utf-8"?>
<!-- Generator: Adobe Illustrator 18.1.0, SVG Export Plug-In . SVG Version: 6.00 Build 0)  -->
<svg version="1.1" id="Layer_1" xmlns="http://www.w3.org/2000/svg" xmlns:xlink="http://www.w3.org/1999/xlink" x="0px" y="0px"
	 width="24px" height="24px" viewBox="0 0 24 24" enable-background="new 0 0 24 24" xml:space="preserve">
<g>
	<path d="M13.0352,23.9004c-0.832,0-1.6758-0.2295-2.395-0.4248l-0.0259-0.0068l-0.2026,0.0918
		c-0.813,0.3662-2.4106,0.3457-3.25-0.2324c-0.8086-0.5547-0.8608-1.2725-0.8281-1.9893c-1.7441-0.248-2.1431-1.1797-2.1431-1.9785
		c0-0.0508,0.0078-0.1016,0.0229-0.1494l0.1084-0.3467C3.0977,18.498,2.7944,17.71,2.7944,17.0205
		c0-0.3828,0.1362-0.7705,0.4058-1.1533l0.0815-0.127c-0.5557-0.4844-0.9292-1.1367-1.0947-1.9248
		c-0.3169-1.5068,0.4009-2.6895,2.02-3.3301c1.0859-0.4248,2.6592-0.6484,4.6807-0.6665C8.6987,8.8457,8.2559,6.874,7.5854,5.7607
		C7.0303,4.8096,6.5513,3.9883,6.5513,2.8413c0-1.8555,1.0259-2.6235,1.9043-2.7168c0.957-0.1069,1.835,0.5322,2.0386,1.4775
		c0.4365,2.0288,1.4126,3.0459,3.1846,4.8926c0.2998,0.313,0.6201,0.6475,0.9629,1.0122c0.1045,0.125,0.2217,0.2773,0.3789,0.4819
		c1.5488,2.0137,2.4668,3.1191,2.7285,3.2852c0.1494,0.0249,1.6406,0.1313,2.9551,0.2036c0.2002,0.0107,0.375,0.1401,0.4434,0.3291
		c0.5576,1.5439,0.7959,2.8184,0.7959,4.2607c0,1.5635-0.3701,2.8457-0.7314,3.8926c-0.0693,0.2021-0.2598,0.3369-0.4727,0.3369
		h-2.4092c-0.0605,0-0.1191,0.0293-0.1611,0.0811c-1.0811,1.3223-2.3564,2.3838-4.0156,3.3408
		c-0.0352,0.0205-0.0723,0.0361-0.1104,0.0479C13.7158,23.8613,13.376,23.9004,13.0352,23.9004z M12.0977,22.8008
		c0.5586,0.1025,1.124,0.1475,1.6104,0.0205c1.5244-0.8867,2.6963-1.8652,3.6865-3.0762c0.2324-0.2852,0.5732-0.4482,0.9355-0.4482
		h2.0498c0.3057-0.9316,0.5635-1.9707,0.5635-3.2295c0-1.2402-0.1836-2.3066-0.6279-3.6104
		c-2.7246-0.1543-2.9131-0.2422-3.0059-0.2861c-0.3252-0.1484-0.9355-0.7822-3.082-3.5728
		c-0.1514-0.1973-0.2646-0.3442-0.3203-0.4136c-0.334-0.3555-0.6523-0.687-0.9502-0.9976c-1.8359-1.9136-2.9438-3.0688-3.4404-5.374
		C9.4062,1.3018,8.9565,1.0811,8.5615,1.1187C8.0732,1.1709,7.5513,1.6509,7.5513,2.8413c0,0.877,0.375,1.52,0.8496,2.334
		c1.0522,1.7485,1.5576,4.9307,1.5786,5.0654c0.0225,0.1445-0.0195,0.2915-0.1143,0.4023
		c-0.0952,0.1108-0.2339,0.1748-0.3799,0.1748H9.1519c-2.0239,0-3.5645,0.2012-4.5786,0.5981
		c-1.5464,0.6113-1.5439,1.5449-1.4077,2.1943c0.1665,0.791,0.5967,1.3672,1.2788,1.7139c0.9844,0.5,2.3149,0.4102,3.0654,0.0703
		l1.9253-0.8672c0.0103-0.0059,0.0205-0.0098,0.0312-0.0146l0.7515-0.3389c-0.1675-0.3213-0.875-0.9951-1.9185-0.9951
		c-0.627,0-1.5576,0.3809-2.0576,0.5859c-0.0532,0.0215-0.1094,0.0342-0.167,0.0361l-0.689,0.0312
		c-0.2563,0.0303-0.5093-0.2002-0.522-0.4766c-0.0127-0.2754,0.2012-0.5098,0.4771-0.5215l0.6025-0.0273
		c0.7607-0.3096,1.6221-0.6279,2.356-0.6279c1.5659,0,2.7632,1.0986,2.9326,1.8857c0.0752,0.3496-0.0366,0.6689-0.2886,0.8574
		c0.479,0.2305,0.9141,0.5586,1.3916,1.1992c0.1562,0.21,0.208,0.4746,0.1426,0.7275c-0.0586,0.2227-0.2021,0.4092-0.3984,0.5225
		c0.2842,0.1836,0.5557,0.3994,0.8789,0.7686c0.0039,0.0049,0.0645,0.0811,0.0684,0.085c0.1416,0.1738,0.3779,0.4648,0.2646,0.8916
		c-0.0664,0.2529-0.2422,0.459-0.4824,0.5635l-0.3096,0.1396c0.7822,0.7227,1.3115,1.292,1.2207,1.8633
		c-0.0254,0.1553-0.1221,0.4414-0.4912,0.6084L12.0977,22.8008z M7.332,21.4023c-0.0244,0.5693,0.0229,0.8457,0.395,1.1016
		c0.5195,0.3555,1.7412,0.3848,2.2734,0.1445l0.3477-0.1562c0.0117-0.0059,0.0239-0.0117,0.0361-0.0166l2.2837-1.0293
		c-0.1875-0.29-0.7329-0.7881-0.9868-1.0205c-0.0601-0.0547-0.1182-0.1084-0.1733-0.1592L11.27,20.373
		c-2.1973,0.9971-2.2764,1.0312-3.6519,1.0303L7.332,21.4023z M6.9121,20.3926c0.1245,0.0059,0.2583,0.0098,0.4019,0.0098
		l0.3081,0.001c1.1592,0.002,1.1509,0.0039,3.2354-0.9404l0.4937-0.2227c0.0327-0.0195,0.0679-0.0352,0.1035-0.0469l0.7837-0.3525
		c-0.0186-0.0225-0.0498-0.0625-0.0518-0.0645c-0.3511-0.4014-0.6089-0.5498-1.0361-0.7939
		c-0.0601-0.0342-0.1221-0.0703-0.187-0.1084c-0.1646,0.0742-0.3179,0.1436-0.4619,0.208
		c-2.1523,0.9697-2.2344,1.0039-3.8169,0.9932l-0.6748-0.0039c-0.25,0-0.4814-0.0098-0.6958-0.0283l-0.1226,0.3906
		c0.0107,0.2969,0.1382,0.8643,1.6724,0.9561C6.8799,20.3887,6.896,20.3906,6.9121,20.3926z M4.123,16.2793l-0.0933,0.1455
		c-0.1602,0.2285-0.2354,0.4229-0.2354,0.5957c0,0.2598,0,1.0508,2.2153,1.0508l0.6841,0.0039
		c1.3643,0.0107,1.3608,0.0127,3.397-0.9053c0.1992-0.0889,0.417-0.1875,0.6562-0.2949c0.0269-0.0146,0.0552-0.0273,0.0845-0.0381
		c0.1841-0.082,0.3804-0.1699,0.5903-0.2627c-0.5239-0.6533-0.9258-0.79-1.7388-1.0625l-1.7622,0.7949
		C6.9941,16.7227,5.4312,16.8838,4.123,16.2793z"/>
</g>
<rect x="0.0293" y="-0.0001" fill="none" width="24" height="24"/>
</svg>
