<?xml version="1.0" encoding="utf-8"?>
<!-- Generator: Adobe Illustrator 18.1.0, SVG Export Plug-In . SVG Version: 6.00 Build 0)  -->
<svg version="1.1" id="Layer_1" xmlns="http://www.w3.org/2000/svg" xmlns:xlink="http://www.w3.org/1999/xlink" x="0px" y="0px"
	 width="24px" height="24px" viewBox="0 0 24 24" enable-background="new 0 0 24 24" xml:space="preserve">
<g>
	<path d="M12.9541,4.5688c-0.1289,0-0.2568-0.0493-0.3545-0.1475c-0.1953-0.1963-0.1934-0.5127,0.002-0.7075l2.5283-2.5107
		c0.1953-0.1934,0.5098-0.1934,0.7051,0l2.5293,2.5107c0.1953,0.1948,0.1973,0.5112,0.002,0.707
		c-0.1934,0.1958-0.5098,0.1978-0.707,0.0029l-2.1768-2.1611l-2.1758,2.1611C13.209,4.5205,13.0811,4.5688,12.9541,4.5688z"/>
	<path d="M2.2666,16.9346c-0.2686,0-0.4907-0.2139-0.499-0.4844c-0.0088-0.2754,0.208-0.5068,0.4839-0.5156
		c0.5195-0.0166,12.731-0.541,12.731-11.9639V1.5586c0-0.2764,0.2236-0.5,0.5-0.5s0.5,0.2236,0.5,0.5v2.4121
		c0,12.3975-13.563,12.959-13.6997,12.9639C2.2773,16.9346,2.272,16.9346,2.2666,16.9346z"/>
	<path d="M5.1099,11.8877c-2.7104,0-4.9155-2.2051-4.9155-4.916c0-2.7104,2.2051-4.9155,4.9155-4.9155
		c2.7109,0,4.916,2.2051,4.916,4.9155C10.0259,9.6826,7.8208,11.8877,5.1099,11.8877z M5.1099,3.0562
		c-2.1592,0-3.9155,1.7563-3.9155,3.9155s1.7563,3.916,3.9155,3.916s3.916-1.7568,3.916-3.916S7.269,3.0562,5.1099,3.0562z"/>
	<path d="M5.0835,9.8018c-0.5908,0-1.3696-0.3193-1.8945-0.7764c-0.208-0.1812-0.23-0.4971-0.0483-0.7056
		c0.1816-0.208,0.498-0.229,0.7056-0.0483C4.1875,8.5688,4.731,8.8018,5.0835,8.8018c0.4863,0,0.8818-0.3174,0.8818-0.708
		c0-0.1177,0-0.4297-1.022-0.728c-0.5278-0.1655-1.7412-0.5464-1.7412-1.688c0-0.9419,0.8438-1.708,1.8813-1.708
		c0.6616,0,1.2817,0.3203,1.6187,0.8354c0.1514,0.231,0.0864,0.541-0.145,0.6919c-0.2314,0.1514-0.541,0.0859-0.6919-0.145
		C5.7109,5.1162,5.4116,4.9697,5.0835,4.9697c-0.4858,0-0.8813,0.3174-0.8813,0.708c0,0.2114,0.125,0.4468,1.0312,0.731
		c0.4209,0.1226,1.7319,0.5054,1.7319,1.6851C6.9653,9.0356,6.1211,9.8018,5.0835,9.8018z"/>
	<path d="M5.0835,4.9697c-0.2764,0-0.5-0.2236-0.5-0.5V3.8096c0-0.2764,0.2236-0.5,0.5-0.5s0.5,0.2236,0.5,0.5v0.6602
		C5.5835,4.7461,5.3599,4.9697,5.0835,4.9697z"/>
	<path d="M5.0835,10.4619c-0.2764,0-0.5-0.2236-0.5-0.5V9.3013c0-0.2764,0.2236-0.5,0.5-0.5s0.5,0.2236,0.5,0.5v0.6606
		C5.5835,10.2383,5.3599,10.4619,5.0835,10.4619z"/>
	<path d="M23.5518,24h-2c-0.2764,0-0.5-0.2236-0.5-0.5v-21c0-0.2764,0.2236-0.5,0.5-0.5h2c0.2764,0,0.5,0.2236,0.5,0.5v21
		C24.0518,23.7764,23.8281,24,23.5518,24z M22.0518,23h1V3h-1V23z"/>
	<path d="M18.5508,24h-2c-0.2764,0-0.5-0.2236-0.5-0.5V11.5005c0-0.2764,0.2236-0.5,0.5-0.5h2c0.2764,0,0.5,0.2236,0.5,0.5V23.5
		C19.0508,23.7764,18.8271,24,18.5508,24z M17.0508,23h1V12.001h-1V23z"/>
	<path d="M13.5508,24h-2c-0.2764,0-0.5-0.2236-0.5-0.5v-6.999c0-0.2764,0.2236-0.5,0.5-0.5h2c0.2764,0,0.5,0.2236,0.5,0.5V23.5
		C14.0508,23.7764,13.8271,24,13.5508,24z M12.0508,23h1v-5.999h-1V23z"/>
	<path d="M8.5508,24h-2c-0.2764,0-0.5-0.2236-0.5-0.5v-3.999c0-0.2764,0.2236-0.5,0.5-0.5h2c0.2764,0,0.5,0.2236,0.5,0.5V23.5
		C9.0508,23.7764,8.8271,24,8.5508,24z M7.0508,23h1v-2.999h-1V23z"/>
	<path d="M3.5503,24h-2c-0.2764,0-0.5-0.2236-0.5-0.5v-2.999c0-0.2764,0.2236-0.5,0.5-0.5h2c0.2764,0,0.5,0.2236,0.5,0.5V23.5
		C4.0503,23.7764,3.8267,24,3.5503,24z M2.0503,23h1v-1.999h-1V23z"/>
</g>
<rect fill="none" width="24" height="24"/>
</svg>
