<?xml version="1.0" encoding="utf-8"?>
<!-- Generator: Adobe Illustrator 18.1.0, SVG Export Plug-In . SVG Version: 6.00 Build 0)  -->
<svg version="1.1" id="Layer_1" xmlns="http://www.w3.org/2000/svg" xmlns:xlink="http://www.w3.org/1999/xlink" x="0px" y="0px"
	 width="24px" height="24px" viewBox="0 0 24 24" enable-background="new 0 0 24 24" xml:space="preserve">
<g>
	<path d="M12.0166,19.9268c-0.2764,0-0.5-0.2236-0.5-0.5V1c0-0.2764,0.2236-0.5,0.5-0.5s0.5,0.2236,0.5,0.5v18.4268
		C12.5166,19.7031,12.293,19.9268,12.0166,19.9268z"/>
	<path d="M12,19.9268c-0.1274,0-0.2549-0.0488-0.3521-0.1455l-4.4648-4.4297c-0.1963-0.1943-0.1973-0.5107-0.0029-0.707
		c0.1948-0.1943,0.5127-0.1973,0.707-0.002L12,18.7227l4.1123-4.0801c0.1973-0.1973,0.5137-0.1934,0.707,0.002
		c0.1953,0.1963,0.1934,0.5127-0.002,0.707l-4.4648,4.4297C12.2549,19.8779,12.127,19.9268,12,19.9268z"/>
	<path d="M23.5,24h-23C0.2236,24,0,23.7764,0,23.5V17c0-0.2764,0.2236-0.5,0.5-0.5S1,16.7236,1,17v6h22v-6
		c0-0.2764,0.2236-0.5,0.5-0.5S24,16.7236,24,17v6.5C24,23.7764,23.7764,24,23.5,24z"/>
</g>
<rect y="0.0001" fill="none" width="24" height="24"/>
</svg>
