<?xml version="1.0" encoding="utf-8"?>
<!-- Generator: Adobe Illustrator 18.1.0, SVG Export Plug-In . SVG Version: 6.00 Build 0)  -->
<svg version="1.1" id="Layer_1" xmlns="http://www.w3.org/2000/svg" xmlns:xlink="http://www.w3.org/1999/xlink" x="0px" y="0px"
	 width="24px" height="24px" viewBox="0 0 24 24" enable-background="new 0 0 24 24" xml:space="preserve">
<g>
	<g>
		<path d="M4.5537,11.0596c-0.2764,0-0.5-0.2236-0.5-0.5V7.4404c0-0.2764,0.2236-0.5,0.5-0.5s0.5,0.2236,0.5,0.5v3.1191
			C5.0537,10.8359,4.8301,11.0596,4.5537,11.0596z"/>
		<path d="M5.9043,10.2798c-0.085,0-0.1709-0.0215-0.2495-0.0669L2.9531,8.6533C2.7139,8.5151,2.6318,8.2095,2.77,7.9702
			s0.4443-0.3213,0.6831-0.1831l2.7017,1.5596c0.2393,0.1382,0.3213,0.4438,0.1831,0.6831
			C6.2451,10.1899,6.0771,10.2798,5.9043,10.2798z"/>
		<path d="M3.2036,10.2798c-0.1729,0-0.3408-0.0894-0.4336-0.25C2.6318,9.7905,2.7139,9.4849,2.9531,9.3467l2.7017-1.5596
			C5.8931,7.6489,6.1992,7.73,6.3379,7.9702C6.4761,8.2095,6.394,8.5151,6.1548,8.6533l-2.7017,1.5596
			C3.3745,10.2583,3.2886,10.2798,3.2036,10.2798z"/>
	</g>
	<g>
		<path d="M9.5542,11.0596c-0.2764,0-0.5-0.2236-0.5-0.5V7.4404c0-0.2764,0.2236-0.5,0.5-0.5s0.5,0.2236,0.5,0.5v3.1191
			C10.0542,10.8359,9.8306,11.0596,9.5542,11.0596z"/>
		<path d="M10.9043,10.2798c-0.085,0-0.1709-0.0215-0.2495-0.0669L7.9536,8.6533C7.7144,8.5151,7.6323,8.2095,7.7705,7.9702
			C7.9087,7.73,8.2148,7.6489,8.4536,7.7871l2.7012,1.5596c0.2393,0.1382,0.3213,0.4438,0.1831,0.6831
			C11.2451,10.1904,11.0771,10.2798,10.9043,10.2798z"/>
		<path d="M8.2041,10.2798c-0.1729,0-0.3408-0.0894-0.4336-0.25C7.6323,9.7905,7.7144,9.4849,7.9536,9.3467l2.7012-1.5596
			c0.2378-0.1382,0.5449-0.0571,0.6831,0.1831c0.1382,0.2393,0.0562,0.5449-0.1831,0.6831l-2.7012,1.5596
			C8.375,10.2583,8.2891,10.2798,8.2041,10.2798z"/>
	</g>
	<g>
		<path d="M14.5547,11.0596c-0.2764,0-0.5-0.2236-0.5-0.5V7.4404c0-0.2764,0.2236-0.5,0.5-0.5s0.5,0.2236,0.5,0.5v3.1191
			C15.0547,10.8359,14.8311,11.0596,14.5547,11.0596z"/>
		<path d="M15.9053,10.2798c-0.085,0-0.1709-0.0215-0.25-0.0669l-2.7012-1.5596c-0.2393-0.1382-0.3213-0.4438-0.1826-0.6831
			c0.1377-0.2402,0.4443-0.3193,0.6826-0.1831l2.7012,1.5596c0.2393,0.1382,0.3213,0.4438,0.1826,0.6831
			C16.2461,10.1904,16.0771,10.2798,15.9053,10.2798z"/>
		<path d="M13.2041,10.2798c-0.1719,0-0.3408-0.0894-0.4326-0.25c-0.1387-0.2393-0.0566-0.5449,0.1826-0.6831l2.7012-1.5596
			c0.2383-0.1377,0.5449-0.0576,0.6826,0.1831c0.1387,0.2393,0.0566,0.5449-0.1826,0.6831l-2.7012,1.5596
			C13.375,10.2583,13.2891,10.2798,13.2041,10.2798z"/>
	</g>
	<g>
		<path d="M19.5547,11.0596c-0.2764,0-0.5-0.2236-0.5-0.5V7.4404c0-0.2764,0.2236-0.5,0.5-0.5s0.5,0.2236,0.5,0.5v3.1191
			C20.0547,10.8359,19.8311,11.0596,19.5547,11.0596z"/>
		<path d="M20.9053,10.2798c-0.085,0-0.1709-0.0215-0.25-0.0669l-2.7012-1.5596c-0.2393-0.1382-0.3213-0.4438-0.1826-0.6831
			c0.1367-0.2402,0.4434-0.3193,0.6826-0.1831l2.7012,1.5596c0.2393,0.1382,0.3213,0.4438,0.1826,0.6831
			C21.2461,10.1904,21.0771,10.2798,20.9053,10.2798z"/>
		<path d="M18.2041,10.2798c-0.1719,0-0.3408-0.0894-0.4326-0.25c-0.1387-0.2393-0.0566-0.5449,0.1826-0.6831l2.7012-1.5596
			c0.2393-0.1377,0.5449-0.0576,0.6826,0.1831c0.1387,0.2393,0.0566,0.5449-0.1826,0.6831l-2.7012,1.5596
			C18.375,10.2583,18.2891,10.2798,18.2041,10.2798z"/>
	</g>
	<g>
		<path d="M23.5293,14h-0.9844c-0.2764,0-0.5-0.2236-0.5-0.5s0.2236-0.5,0.5-0.5h0.4844V5h-22v8h11.457c0.2764,0,0.5,0.2236,0.5,0.5
			s-0.2236,0.5-0.5,0.5H0.5293c-0.2764,0-0.5-0.2236-0.5-0.5v-9c0-0.2764,0.2236-0.5,0.5-0.5h23c0.2764,0,0.5,0.2236,0.5,0.5v9
			C24.0293,13.7764,23.8057,14,23.5293,14z"/>
	</g>
	<path d="M17.5576,20.9033c-2.4258,0-4.3984-1.9727-4.3984-4.3984c0-2.4248,1.9727-4.3975,4.3984-4.3975
		s4.3984,1.9727,4.3984,4.3975C21.9561,18.9307,19.9834,20.9033,17.5576,20.9033z M17.5576,13.1074
		c-1.874,0-3.3984,1.5244-3.3984,3.3975c0,1.874,1.5244,3.3984,3.3984,3.3984s3.3984-1.5244,3.3984-3.3984
		C20.9561,14.6318,19.4316,13.1074,17.5576,13.1074z"/>
	<path d="M16.9219,18.5146c-0.1221,0-0.2451-0.0449-0.3418-0.1348c-0.2012-0.1885-0.2119-0.5049-0.0234-0.707l2.376-2.54
		c0.1895-0.2012,0.5049-0.2109,0.707-0.0234c0.2012,0.1885,0.2119,0.5049,0.0234,0.707l-2.376,2.54
		C17.1885,18.4619,17.0557,18.5146,16.9219,18.5146z"/>
	<path d="M16.9219,18.5146c-0.1338,0-0.2666-0.0527-0.3652-0.1582l-1.1035-1.1797c-0.1885-0.2021-0.1777-0.5186,0.0234-0.707
		c0.2031-0.1885,0.5186-0.1787,0.707,0.0234l1.1035,1.1797c0.1885,0.2021,0.1777,0.5186-0.0234,0.707
		C17.167,18.4697,17.0439,18.5146,16.9219,18.5146z"/>
</g>
<rect x="0.0293" fill="none" width="24" height="24"/>
</svg>
