<?xml version="1.0" encoding="utf-8"?>
<!-- Generator: Adobe Illustrator 18.1.0, SVG Export Plug-In . SVG Version: 6.00 Build 0)  -->
<svg version="1.1" id="Layer_1" xmlns="http://www.w3.org/2000/svg" xmlns:xlink="http://www.w3.org/1999/xlink" x="0px" y="0px"
	 width="24px" height="24px" viewBox="0 0 24 24" enable-background="new 0 0 24 24" xml:space="preserve">
<g>
	<path d="M18.1406,24H5.8711c-1.5801,0-2.8652-1.2852-2.8652-2.8652V4.8652C3.0059,3.2852,4.291,2,5.8711,2h12.2695
		c1.5801,0,2.8652,1.2852,2.8652,2.8652v16.2695C21.0059,22.7148,19.7207,24,18.1406,24z M5.8711,3
		C4.8428,3,4.0059,3.8369,4.0059,4.8652v16.2695C4.0059,22.1631,4.8428,23,5.8711,23h12.2695c1.0283,0,1.8652-0.8369,1.8652-1.8652
		V4.8652C20.0059,3.8369,19.1689,3,18.1406,3H5.8711z"/>
	<path d="M16.4375,9H7.5107c-0.2764,0-0.5-0.2236-0.5-0.5S7.2344,8,7.5107,8h8.9268c0.2764,0,0.5,0.2236,0.5,0.5
		S16.7139,9,16.4375,9z"/>
	<path d="M16.4375,13H7.5107c-0.2764,0-0.5-0.2236-0.5-0.5s0.2236-0.5,0.5-0.5h8.9268c0.2764,0,0.5,0.2236,0.5,0.5
		S16.7139,13,16.4375,13z"/>
	<path d="M16.4375,17H7.5107c-0.2764,0-0.5-0.2236-0.5-0.5s0.2236-0.5,0.5-0.5h8.9268c0.2764,0,0.5,0.2236,0.5,0.5
		S16.7139,17,16.4375,17z"/>
	<path d="M12.0059,4.0029c-0.2764,0-0.5-0.2236-0.5-0.5V0.5107c0-0.2764,0.2236-0.5,0.5-0.5s0.5,0.2236,0.5,0.5v2.9922
		C12.5059,3.7793,12.2822,4.0029,12.0059,4.0029z"/>
	<path d="M9.0059,4.0029c-0.2764,0-0.5-0.2236-0.5-0.5V0.5107c0-0.2764,0.2236-0.5,0.5-0.5s0.5,0.2236,0.5,0.5v2.9922
		C9.5059,3.7793,9.2822,4.0029,9.0059,4.0029z"/>
	<path d="M15.0059,4.0029c-0.2764,0-0.5-0.2236-0.5-0.5V0.5107c0-0.2764,0.2236-0.5,0.5-0.5s0.5,0.2236,0.5,0.5v2.9922
		C15.5059,3.7793,15.2822,4.0029,15.0059,4.0029z"/>
</g>
<rect fill="none" width="24" height="24"/>
</svg>
