<?xml version="1.0" encoding="utf-8"?>
<!-- Generator: Adobe Illustrator 18.1.0, SVG Export Plug-In . SVG Version: 6.00 Build 0)  -->
<svg version="1.1" id="Layer_1" xmlns="http://www.w3.org/2000/svg" xmlns:xlink="http://www.w3.org/1999/xlink" x="0px" y="0px"
	 width="24px" height="24px" viewBox="0 0 24 24" enable-background="new 0 0 24 24" xml:space="preserve">
<g>
	<path d="M21.5,17.0205c-0.2764,0-0.5-0.2236-0.5-0.5V5.2041C21,5.1562,20.9863,5,20.8145,5H3.2129C3.0894,5,3,5.0859,3,5.2041
		v11.3164c0,0.2764-0.2236,0.5-0.5,0.5s-0.5-0.2236-0.5-0.5V5.2041C2,4.5288,2.5327,4,3.2129,4h17.6016
		C21.4795,4,22,4.5288,22,5.2041v11.3164C22,16.7969,21.7764,17.0205,21.5,17.0205z"/>
	<path d="M22.709,21.0303H1.3169c-0.7168,0-1.2998-0.583-1.2998-1.2998v-1.2002c0-0.2764,0.2236-0.5,0.5-0.5h10.2578
		c0.2764,0,0.5,0.2236,0.5,0.5v0.3037l1.5425-0.0654l-0.0654-0.2383c0-0.2764,0.2236-0.5,0.5-0.5h10.2578
		c0.2764,0,0.5,0.2236,0.5,0.5v1.2002C24.0098,20.4473,23.4258,21.0303,22.709,21.0303z M1.0171,19.0303v0.7002
		c0,0.165,0.1343,0.2998,0.2998,0.2998H22.709c0.166,0,0.3008-0.1348,0.3008-0.2998v-0.7002h-9.2783
		c-0.0908,0.4219-0.4658,0.7383-0.9141,0.7383h-1.6079c-0.4482,0-0.8232-0.3164-0.9141-0.7383H1.0171z"/>
	<path d="M7.7676,13.0273c-0.2104,0-0.3979-0.1318-0.4697-0.3291l-0.2891-0.7944l-0.2832,0.7915
		c-0.0708,0.1992-0.2588,0.3311-0.4692,0.332c-0.1938-0.0039-0.3994-0.1309-0.4712-0.3291l-0.7622-2.0977
		C4.9282,10.3408,5.0625,10.0542,5.3218,9.96c0.2607-0.0952,0.5464,0.0396,0.6406,0.2988l0.2891,0.7944l0.2832-0.792
		c0.0708-0.1982,0.2588-0.3311,0.4692-0.3315c0.0005,0,0.001,0,0.0015,0c0.2104,0,0.3979,0.1313,0.4697,0.3291l0.2891,0.7944
		l0.2832-0.792c0.0933-0.2603,0.3789-0.397,0.6392-0.3022c0.2598,0.0928,0.3955,0.3789,0.3022,0.6392l-0.7505,2.0972
		c-0.0708,0.1992-0.2588,0.3311-0.4692,0.332C7.7686,13.0273,7.7681,13.0273,7.7676,13.0273z"/>
	<path d="M11.7681,13.0273c-0.2104,0-0.3979-0.1318-0.4697-0.3291l-0.2891-0.7944l-0.2832,0.7915
		c-0.0708,0.1992-0.2588,0.3311-0.4692,0.332c-0.1865-0.0039-0.3994-0.1309-0.4712-0.3291l-0.7622-2.0977
		C8.9287,10.3408,9.063,10.0542,9.3223,9.96c0.2612-0.0952,0.5464,0.0396,0.6406,0.2988l0.2891,0.7944l0.2832-0.792
		c0.0708-0.1982,0.2588-0.3311,0.4692-0.3315c0.0005,0,0.001,0,0.0015,0c0.2104,0,0.3979,0.1313,0.4697,0.3291l0.2891,0.7944
		l0.2832-0.792c0.0928-0.2598,0.3779-0.3945,0.6387-0.3022c0.2607,0.0928,0.3955,0.3789,0.3027,0.6392l-0.75,2.0972
		c-0.0713,0.1992-0.2593,0.3311-0.4697,0.332C11.769,13.0273,11.7686,13.0273,11.7681,13.0273z"/>
	<path d="M15.7686,13.0273c-0.21,0-0.3984-0.1318-0.4697-0.3291l-0.2891-0.7944l-0.2832,0.7915
		c-0.0713,0.1992-0.2588,0.3311-0.4697,0.332h-0.001c-0.21,0-0.3984-0.1318-0.4697-0.3291l-0.7627-2.0977
		c-0.0947-0.2598,0.0391-0.5464,0.2988-0.6406c0.2598-0.0952,0.5469,0.0396,0.6406,0.2988l0.2891,0.7944l0.2832-0.792
		c0.0713-0.1982,0.2588-0.3311,0.4697-0.3315h0.001c0.21,0,0.3984,0.1313,0.4697,0.3291l0.2891,0.7944l0.2832-0.792
		c0.0938-0.2598,0.3789-0.3945,0.6387-0.3022c0.2607,0.0928,0.3955,0.3789,0.3027,0.6392l-0.75,2.0972
		c-0.0713,0.1992-0.2588,0.3311-0.4697,0.332H15.7686z"/>
	<path d="M17.5303,13.0303c-0.1309,0-0.2607-0.0605-0.3506-0.1504s-0.1494-0.2197-0.1494-0.3496
		c0-0.1406,0.0596-0.2607,0.1494-0.3604c0.2002-0.1899,0.5205-0.1802,0.7002,0c0.0996,0.0996,0.1504,0.2295,0.1504,0.3604
		c0,0.1299-0.0508,0.2598-0.1406,0.3496C17.79,12.9697,17.6699,13.0303,17.5303,13.0303z"/>
</g>
<rect fill="none" width="24" height="24"/>
</svg>
