<?xml version="1.0" encoding="utf-8"?>
<!-- Generator: Adobe Illustrator 18.1.0, SVG Export Plug-In . SVG Version: 6.00 Build 0)  -->
<svg version="1.1" id="Layer_1" xmlns="http://www.w3.org/2000/svg" xmlns:xlink="http://www.w3.org/1999/xlink" x="0px" y="0px"
	 width="24px" height="24px" viewBox="0 0 24 24" enable-background="new 0 0 24 24" xml:space="preserve">
<g>
	<path d="M11.4917,9.229c-1.4756,0-2.6763-1.2007-2.6763-2.6768s1.2007-2.6768,2.6763-2.6768c1.4761,0,2.6772,1.2007,2.6772,2.6768
		S12.9678,9.229,11.4917,9.229z M11.4917,4.8755c-0.9243,0-1.6763,0.752-1.6763,1.6768s0.752,1.6768,1.6763,1.6768
		c0.9253,0,1.6772-0.752,1.6772-1.6768S12.417,4.8755,11.4917,4.8755z"/>
	<path d="M17.3564,23.916c-0.1836,0-0.3613-0.1025-0.4482-0.2793L11.543,12.752c-0.1226-0.2471-0.0205-0.5469,0.2271-0.6689
		c0.2476-0.123,0.5474-0.0205,0.6694,0.2275l5.3652,10.8848c0.1221,0.2471,0.0205,0.5469-0.2275,0.6689
		C17.5068,23.8994,17.4307,23.916,17.3564,23.916z"/>
	<path d="M6.6157,23.915c-0.0742,0-0.1499-0.0166-0.2207-0.0518c-0.2476-0.1221-0.3496-0.4219-0.2271-0.6699l5.375-10.8838
		c0.1216-0.2471,0.4233-0.3486,0.6699-0.2266c0.2471,0.1221,0.3486,0.4219,0.2266,0.6699l-5.375,10.8838
		C6.9775,23.8125,6.8003,23.915,6.6157,23.915z"/>
	<path d="M11.9912,22.2461c-0.2764,0-0.5-0.2236-0.5-0.5v-9.2148c0-0.2764,0.2236-0.5,0.5-0.5s0.5,0.2236,0.5,0.5v9.2148
		C12.4912,22.0225,12.2676,22.2461,11.9912,22.2461z"/>
	<path d="M16.4941,5.0034h-1c-0.2764,0-0.5-0.2236-0.5-0.5s0.2236-0.5,0.5-0.5h1c0.2764,0,0.5,0.2236,0.5,0.5
		S16.7705,5.0034,16.4941,5.0034z"/>
	<path d="M17.3018,11.0029c-0.0059,0-0.0137-0.0005-0.0293-0.0005H6.7373c-1.0435,0-1.7446-0.6973-1.7446-1.7349V3.8184
		c0-1.2817,1.0596-1.793,1.772-1.8237l2.4536-0.0005V1.7339c0-0.9434,0.7676-1.7109,1.7114-1.7109h0.7466
		c0.9438,0,1.7114,0.7676,1.7114,1.7109v0.2607h3.875c1.1729,0,1.6709,0.9873,1.7207,1.6514l0.0107,5.6328
		c0,1.1416-0.9863,1.6509-1.6494,1.7144C17.3154,11.0015,17.3135,11.0029,17.3018,11.0029z M6.7861,2.9941
		c-0.0117,0.001-0.7935,0.0439-0.7935,0.8242v5.4492c0,0.4878,0.2505,0.7349,0.7446,0.7349h10.499
		c0.2188-0.0371,0.7578-0.168,0.7578-0.7227l-0.0098-5.5962l0,0c-0.001,0-0.0625-0.689-0.7217-0.689h-4.375
		c-0.2764,0-0.5-0.2236-0.5-0.5V1.7339c0-0.3921-0.3193-0.7109-0.7114-0.7109h-0.7466c-0.3921,0-0.7114,0.3188-0.7114,0.7109v0.7603
		c0,0.2764-0.2236,0.5-0.5,0.5H6.7861z"/>
</g>
<rect x="-0.0137" y="0.0002" fill="none" width="24" height="24"/>
</svg>
