<?xml version="1.0" encoding="utf-8"?>
<!-- Generator: Adobe Illustrator 18.1.0, SVG Export Plug-In . SVG Version: 6.00 Build 0)  -->
<svg version="1.1" id="Layer_1" xmlns="http://www.w3.org/2000/svg" xmlns:xlink="http://www.w3.org/1999/xlink" x="0px" y="0px"
	 width="24px" height="24px" viewBox="0 0 24 24" enable-background="new 0 0 24 24" xml:space="preserve">
<g>
	<path d="M22.5283,22H1.5435C0.6924,22,0,21.333,0,20.5137v-4.9414C0,14.7344,0.7212,14,1.5435,14h20.9849
		C23.3398,14,24,14.7051,24,15.5723v4.9404C24,21.3467,23.3535,22,22.5283,22z M1.5435,15C1.269,15,1,15.2832,1,15.5723v4.9414
		C1,20.8145,1.2822,21,1.5435,21h20.9849C22.8057,21,23,20.7998,23,20.5127v-4.9404C23,15.2617,22.7842,15,22.5283,15H1.5435z"/>
	<path d="M19.0205,19.3496c-0.7324,0-1.3291-0.5967-1.3291-1.3291s0.5967-1.3291,1.3291-1.3291s1.3291,0.5967,1.3291,1.3291
		S19.7529,19.3496,19.0205,19.3496z M19.0205,17.6914c-0.1816,0-0.3291,0.1475-0.3291,0.3291s0.1475,0.3291,0.3291,0.3291
		s0.3291-0.1475,0.3291-0.3291S19.2021,17.6914,19.0205,17.6914z"/>
	<path d="M9.8472,11.1646c-0.1333,0-0.2666-0.0532-0.3652-0.1582c-0.1885-0.2017-0.1782-0.5181,0.0234-0.707
		c0.9756-0.9131,1.5127-2.147,1.5127-3.4741c0-1.3276-0.5371-2.562-1.5127-3.4756C9.3037,3.1611,9.2935,2.8447,9.4824,2.6431
		c0.1875-0.2026,0.5039-0.2124,0.7065-0.0229c1.1797,1.1045,1.8296,2.5981,1.8296,4.2051s-0.6499,3.1001-1.8296,4.2041
		C10.0923,11.1196,9.9697,11.1646,9.8472,11.1646z"/>
	<path d="M12,13.0254c-0.1318,0-0.2632-0.0518-0.3613-0.1543c-0.1909-0.1992-0.1841-0.5156,0.0156-0.707
		c1.4756-1.4116,2.2881-3.3081,2.2881-5.3394c0-2.0317-0.8125-3.9282-2.2881-5.3403c-0.1997-0.1909-0.2065-0.5073-0.0156-0.707
		c0.1914-0.1987,0.5078-0.2065,0.707-0.0156c1.6748,1.603,2.5967,3.7559,2.5967,6.063c0,2.3066-0.9229,4.4595-2.5967,6.062
		C12.249,12.9795,12.124,13.0254,12,13.0254z"/>
	<path d="M7.6567,9.3032c-0.1387,0-0.2769-0.0576-0.376-0.1704C7.0986,8.9253,7.1196,8.6094,7.3271,8.4272
		C7.7905,8.0205,8.0566,7.436,8.0566,6.8237C8.0562,6.2119,7.7905,5.6284,7.3271,5.2222C7.1196,5.04,7.0986,4.7241,7.2808,4.5166
		c0.1812-0.2075,0.4985-0.2275,0.7056-0.0464C8.666,5.0659,9.0562,5.9238,9.0566,6.8237c0,0.9004-0.3901,1.7588-1.0703,2.3555
		C7.8916,9.2622,7.7739,9.3032,7.6567,9.3032z"/>
	<path d="M4.5,15C4.2236,15,4,14.7764,4,14.5V7c0-0.2764,0.2236-0.5,0.5-0.5S5,6.7236,5,7v7.5C5,14.7764,4.7764,15,4.5,15z"/>
</g>
<rect fill="none" width="24" height="24"/>
</svg>
