<?xml version="1.0" encoding="utf-8"?>
<!-- Generator: Adobe Illustrator 18.1.0, SVG Export Plug-In . SVG Version: 6.00 Build 0)  -->
<svg version="1.1" id="Layer_1" xmlns="http://www.w3.org/2000/svg" xmlns:xlink="http://www.w3.org/1999/xlink" x="0px" y="0px"
	 width="24px" height="24px" viewBox="0 0 24 24" enable-background="new 0 0 24 24" xml:space="preserve">
<g>
	<g>
		<path d="M21.5068,24h-19c-0.2764,0-0.5-0.2236-0.5-0.5V9.7148c0-0.2764,0.2236-0.5,0.5-0.5s0.5,0.2236,0.5,0.5V23h18V9.7148
			c0-0.2764,0.2236-0.5,0.5-0.5s0.5,0.2236,0.5,0.5V23.5C22.0068,23.7764,21.7832,24,21.5068,24z"/>
		<path d="M20.5068,9.2876c-0.2764,0-0.5-0.2236-0.5-0.5V3h-4v1.5381c0,0.2764-0.2236,0.5-0.5,0.5s-0.5-0.2236-0.5-0.5V2.5
			c0-0.2764,0.2236-0.5,0.5-0.5h5c0.2764,0,0.5,0.2236,0.5,0.5v6.2876C21.0068,9.064,20.7832,9.2876,20.5068,9.2876z"/>
		<path d="M0.5566,11.8652c-0.1406,0-0.2803-0.0591-0.3794-0.1743c-0.1797-0.2095-0.1558-0.5249,0.0537-0.7051l11.4502-9.833
			c0.1875-0.1611,0.4644-0.1611,0.6519,0l11.4492,9.833c0.209,0.1802,0.2334,0.4956,0.0527,0.7051
			c-0.1787,0.2104-0.4941,0.2339-0.7051,0.0537l-11.123-9.5532L0.8823,11.7446C0.7881,11.8257,0.6724,11.8652,0.5566,11.8652z"/>
	</g>
	<g>
		<path d="M11.9985,20.0215c-0.2764,0-0.5-0.2236-0.5-0.5V9.457c0-0.2764,0.2236-0.5,0.5-0.5c0.2759,0,0.4995,0.2236,0.4995,0.5
			v10.0645C12.498,19.7979,12.2744,20.0215,11.9985,20.0215z"/>
		<path d="M11.9985,12.168c-0.1279,0-0.2559-0.0488-0.3535-0.1475l-1.5986-1.5986c-0.1953-0.1953-0.1953-0.5117,0-0.707
			s0.5117-0.1953,0.707,0l1.2451,1.2456l1.2466-1.2456c0.1953-0.1953,0.5117-0.1953,0.707,0s0.1953,0.5122,0,0.707l-1.6006,1.5996
			C12.2539,12.1191,12.126,12.168,11.9985,12.168z"/>
		<path d="M13.5986,19.4316c-0.1279,0-0.2559-0.0488-0.3535-0.1465l-1.2466-1.2461l-1.2456,1.2461
			c-0.1953,0.1953-0.5117,0.1953-0.707,0s-0.1953-0.5117,0-0.707l1.5991-1.5996c0.1875-0.1875,0.5181-0.1875,0.7065,0l1.6006,1.5996
			c0.1953,0.1953,0.1953,0.5117,0,0.707C13.8545,19.3828,13.7266,19.4316,13.5986,19.4316z"/>
		<path d="M16.3564,17.5049c-0.085,0-0.1709-0.0215-0.25-0.0674l-8.7158-5.0312c-0.2393-0.1377-0.3213-0.4438-0.1831-0.6831
			s0.4443-0.3208,0.6831-0.1831l8.7158,5.0322c0.2393,0.1377,0.3213,0.4434,0.1826,0.6826
			C16.6973,17.415,16.5283,17.5049,16.3564,17.5049z"/>
		<path d="M7.3706,14.1631c-0.2207,0-0.4229-0.1475-0.4824-0.3711c-0.0713-0.2666,0.0869-0.54,0.3535-0.6123l1.7012-0.4551
			l-0.4556-1.7017c-0.0713-0.2666,0.0869-0.541,0.3535-0.6123c0.2686-0.0698,0.541,0.0874,0.6123,0.3535l0.585,2.1851
			c0.0713,0.2666-0.0869,0.54-0.3535,0.6123l-2.1841,0.585C7.457,14.1572,7.4136,14.1631,7.3706,14.1631z"/>
		<path d="M15.0459,18.5957c-0.2207,0-0.4229-0.1475-0.4834-0.3711l-0.585-2.1846c-0.0713-0.2666,0.0869-0.54,0.3535-0.6123
			l2.1846-0.5859c0.2705-0.0664,0.541,0.0879,0.6133,0.3535c0.0713,0.2666-0.0869,0.541-0.3535,0.6133l-1.7021,0.4561l0.4561,1.7021
			c0.0713,0.2666-0.0869,0.54-0.3545,0.6123C15.1318,18.5898,15.0879,18.5957,15.0459,18.5957z"/>
		<path d="M7.6416,17.5049c-0.1729,0-0.3408-0.0898-0.4336-0.25c-0.1382-0.2393-0.0562-0.5449,0.1831-0.6826l8.7163-5.0322
			c0.2393-0.1387,0.5459-0.0571,0.6826,0.1831c0.1387,0.2393,0.0566,0.5454-0.1826,0.6831l-8.7163,5.0312
			C7.8125,17.4834,7.7266,17.5049,7.6416,17.5049z"/>
		<path d="M8.9702,18.584c-0.043,0-0.0864-0.0059-0.1299-0.0166c-0.2671-0.0723-0.4253-0.3467-0.3535-0.6133l0.4565-1.7012
			l-1.7021-0.4551c-0.2666-0.0723-0.4248-0.3457-0.3535-0.6123c0.0718-0.2666,0.3467-0.4189,0.6123-0.3545l2.1851,0.585
			c0.1279,0.0352,0.2373,0.1182,0.3037,0.2334s0.084,0.251,0.0498,0.3799l-0.5859,2.1846
			C9.3926,18.4365,9.1909,18.584,8.9702,18.584z"/>
		<path d="M16.6455,14.1533c-0.043,0-0.0859-0.0059-0.1299-0.0166l-2.1846-0.5859c-0.2666-0.0723-0.4248-0.3457-0.3535-0.6123
			l0.585-2.1851c0.0723-0.2661,0.3516-0.4238,0.6123-0.3535c0.2676,0.0713,0.4258,0.3457,0.3545,0.6123l-0.4561,1.7017
			l1.7021,0.4561c0.2666,0.0723,0.4248,0.3467,0.3535,0.6133C17.0684,14.0059,16.8662,14.1533,16.6455,14.1533z"/>
	</g>
</g>
<rect x="0.0005" fill="none" width="24" height="24"/>
</svg>
