<?xml version="1.0" encoding="utf-8"?>
<!-- Generator: Adobe Illustrator 18.1.0, SVG Export Plug-In . SVG Version: 6.00 Build 0)  -->
<svg version="1.1" id="Layer_1" xmlns="http://www.w3.org/2000/svg" xmlns:xlink="http://www.w3.org/1999/xlink" x="0px" y="0px"
	 width="24px" height="24px" viewBox="0 0 24 24" enable-background="new 0 0 24 24" xml:space="preserve">
<g>
	<path d="M12.0742,20.4023c-1.2339,0-2.4702-0.2754-3.6348-0.8291c-0.249-0.1182-0.3555-0.416-0.2368-0.666
		c0.1182-0.248,0.4175-0.3564,0.6665-0.2363c2.1885,1.0391,4.666,0.9678,6.8018-0.2031c2.124-1.1641,3.5146-3.2158,3.8154-5.6279
		c0.0342-0.2744,0.2861-0.4775,0.5576-0.4346c0.2744,0.0342,0.4688,0.2842,0.4346,0.5576c-0.3408,2.7354-1.918,5.0605-4.3271,6.3818
		C14.8672,20.0488,13.4727,20.4023,12.0742,20.4023z"/>
	<path d="M19.7715,11.6479c-0.1426,0-0.2842-0.061-0.3838-0.1792c-0.1768-0.2119-0.1484-0.5269,0.0625-0.7041
		c0.5166-0.4321,0.9902-0.8643,1.4082-1.2852c1.7656-1.7754,2.1201-2.9106,1.8623-3.3813
		c-0.2559-0.4673-1.3926-0.7798-3.8184-0.2568c-0.2715,0.0605-0.5371-0.1143-0.5938-0.3833
		c-0.0586-0.2695,0.1123-0.5356,0.3828-0.5942c3.3223-0.7188,4.502,0.0137,4.9072,0.7549c0.4062,0.7432,0.3838,2.1382-2.0312,4.5659
		c-0.4395,0.4419-0.9355,0.8955-1.4746,1.3467C19.999,11.6099,19.8848,11.6479,19.7715,11.6479z"/>
	<path d="M2.9658,19.3652c-1.5576,0-2.2388-0.5205-2.5288-1.0479c-0.4116-0.748-0.3877-2.1543,2.061-4.6035
		c0.1953-0.1953,0.5117-0.1953,0.707,0s0.1953,0.5117,0,0.707c-1.793,1.793-2.1528,2.9395-1.8916,3.415
		c0.2627,0.4775,1.4326,0.791,3.9297,0.2324c0.5771-0.1279,1.1948-0.2969,1.8364-0.5029c0.2637-0.083,0.5444,0.0605,0.6284,0.3242
		c0.0845,0.2627-0.0605,0.5439-0.3237,0.6289c-0.6704,0.2139-1.3174,0.3916-1.9238,0.5264
		C4.4463,19.2715,3.627,19.3652,2.9658,19.3652z"/>
	<path d="M7.2324,18.542c-0.1099,0-0.2183-0.0361-0.3076-0.1055c-2.2778-1.7764-3.4517-4.5508-3.1396-7.4243
		c0.3716-3.4238,2.8584-6.2944,6.1885-7.1436c2.5078-0.6411,5.2451-0.0352,7.2627,1.5967c1.4033,1.1343,2.3799,2.6523,2.8232,4.3901
		c0.0947,0.3726,0.1621,0.7671,0.209,1.2427c0.0166,0.1646-0.0488,0.3271-0.1758,0.4331c-3.4355,2.876-8.4238,5.6182-12.708,6.9873
		C7.335,18.5342,7.2832,18.542,7.2324,18.542z M12.0186,4.6113c-0.6035,0-1.2085,0.0762-1.7979,0.2261
		C7.293,5.584,5.1064,8.1089,4.7793,11.1206c-0.2651,2.438,0.688,4.7974,2.5562,6.3618c3.9707-1.3135,8.687-3.9062,11.9087-6.5469
		c-0.0391-0.3101-0.0889-0.5791-0.1533-0.833c-0.3896-1.5269-1.248-2.8618-2.4834-3.8599
		C15.3057,5.1904,13.6768,4.6113,12.0186,4.6113z"/>
	<path d="M7.8696,12.7637c-0.9775,0-1.7729-0.7954-1.7729-1.7729s0.7954-1.7729,1.7729-1.7729s1.7725,0.7954,1.7725,1.7729
		S8.8472,12.7637,7.8696,12.7637z M7.8696,10.2178c-0.4263,0-0.7729,0.3467-0.7729,0.7729s0.3467,0.7729,0.7729,0.7729
		c0.4258,0,0.7725-0.3467,0.7725-0.7729S8.2954,10.2178,7.8696,10.2178z"/>
	<circle cx="9.7798" cy="8.001" r="1.1069"/>
</g>
<rect x="0.0172" y="0.0031" fill="none" width="24" height="24"/>
</svg>
