<?xml version="1.0" encoding="utf-8"?>
<!-- Generator: Adobe Illustrator 18.1.0, SVG Export Plug-In . SVG Version: 6.00 Build 0)  -->
<svg version="1.1" id="Layer_1" xmlns="http://www.w3.org/2000/svg" xmlns:xlink="http://www.w3.org/1999/xlink" x="0px" y="0px"
	 width="24px" height="24px" viewBox="0 0 24 24" enable-background="new 0 0 24 24" xml:space="preserve">
<g>
	<path d="M12.0771,12.0352c-2.9902,0-5.7832-0.2725-7.8643-0.7661C1.6206,10.6533,0.3062,9.73,0.3062,8.5244
		c0-2.0684,4.5698-2.9297,6.5347-3.2041c0.2715-0.042,0.5264,0.1523,0.5645,0.4258S7.2529,6.2725,6.9795,6.3105
		C2.8462,6.8877,1.3062,7.9746,1.3062,8.5244c0,1.2075,4.1182,2.5107,10.771,2.5107c6.6523,0,10.7695-1.3032,10.7695-2.5107
		c0-0.5493-1.541-1.6362-5.6748-2.2144c-0.2734-0.0381-0.4639-0.291-0.4258-0.5645c0.0391-0.2739,0.2969-0.4629,0.5645-0.4258
		c1.9648,0.2744,6.5361,1.1367,6.5361,3.2046C23.8467,11.1157,17.5068,12.0352,12.0771,12.0352z"/>
	<path d="M12.0762,7.21c-2.2578,0-4.3237-0.3481-5.3921-0.9082C6.5308,6.2212,6.4297,6.0664,6.4175,5.8936
		C6.3159,4.4302,6.8213,3.022,7.8403,1.9297C8.916,0.7764,10.46,0.1152,12.0762,0.1152s3.1611,0.6611,4.2363,1.8145
		c1.0195,1.0923,1.5244,2.5,1.4229,3.9639c-0.0127,0.1733-0.1133,0.3276-0.2666,0.4082C16.4004,6.8618,14.334,7.21,12.0762,7.21z
		 M7.4048,5.5356C8.3984,5.9492,10.1787,6.21,12.0762,6.21s3.6777-0.2607,4.6719-0.6748c0.002-1.0796-0.4062-2.1084-1.167-2.9233
		c-0.8867-0.9512-2.165-1.4966-3.5049-1.4966c-1.3403,0-2.6177,0.5454-3.5044,1.4966C7.811,3.4268,7.4028,4.4556,7.4048,5.5356z"/>
	<path d="M17.2061,23.3887c-0.2236,0-0.4268-0.1504-0.4844-0.376l-2.3213-9.0537c-0.0684-0.2676,0.0928-0.54,0.3604-0.6084
		c0.2637-0.0684,0.54,0.0938,0.6084,0.3604l2.3213,9.0537c0.0684,0.2676-0.0928,0.54-0.3604,0.6084
		C17.2891,23.3838,17.2471,23.3887,17.2061,23.3887z"/>
	<path d="M6.9307,23.3848c-0.041,0-0.083-0.0049-0.1245-0.0156c-0.2676-0.0684-0.4287-0.3408-0.3604-0.6084l2.3208-9.0498
		c0.0688-0.2676,0.3423-0.4307,0.6084-0.3604c0.2676,0.0684,0.4287,0.3408,0.3604,0.6084l-2.3208,9.0498
		C7.3564,23.2344,7.1533,23.3848,6.9307,23.3848z"/>
	<path d="M12.0801,9.5098c-0.1401,0-0.2603-0.0498-0.3604-0.1401c-0.0898-0.0996-0.1401-0.2197-0.1401-0.3599
		c0-0.1299,0.0503-0.2598,0.1401-0.3501c0.1899-0.1899,0.5205-0.1899,0.71,0c0.0898,0.1001,0.1504,0.2202,0.1504,0.3501
		S12.5195,9.27,12.4297,9.3599C12.3398,9.46,12.21,9.5098,12.0801,9.5098z"/>
	<path d="M8.7197,9.4097c-0.1299,0-0.2598-0.0498-0.3501-0.1499C8.27,9.1597,8.2197,9.04,8.2197,8.9097
		c0-0.1299,0.0503-0.2598,0.1401-0.3496c0.2002-0.1904,0.5298-0.1904,0.7197,0c0.0903,0.0898,0.1401,0.2197,0.1401,0.3496
		c0,0.1304-0.0498,0.25-0.1401,0.3501C8.98,9.3599,8.8496,9.4097,8.7197,9.4097z"/>
	<path d="M5.3696,8.9199c-0.1299,0-0.2598-0.0503-0.3496-0.1401c-0.1001-0.1001-0.1504-0.23-0.1504-0.3599
		s0.0503-0.2603,0.1401-0.3501c0.2002-0.1899,0.52-0.1899,0.71-0.0098c0.1001,0.1099,0.1499,0.23,0.1499,0.3599
		S5.8198,8.6797,5.73,8.77C5.6299,8.8696,5.5,8.9199,5.3696,8.9199z"/>
	<path d="M15.4297,9.4097c-0.1299,0-0.2598-0.0498-0.3496-0.1499c-0.1006-0.0898-0.1504-0.2197-0.1504-0.3501
		c0-0.1299,0.0498-0.2598,0.1396-0.3496c0.1904-0.1904,0.5303-0.1904,0.7109,0c0.0996,0.0898,0.1494,0.2197,0.1494,0.3496
		c0,0.1304-0.0498,0.2603-0.1396,0.3501C15.6895,9.3599,15.5596,9.4097,15.4297,9.4097z"/>
	<path d="M18.7803,8.9199c-0.1309,0-0.2607-0.0503-0.3506-0.1499c-0.0898-0.0903-0.1494-0.2202-0.1494-0.3501
		s0.0596-0.2603,0.1494-0.3501c0.1904-0.1899,0.5098-0.1899,0.7002-0.0098c0.0996,0.1099,0.1504,0.23,0.1504,0.3599
		s-0.0508,0.25-0.1406,0.3501C19.04,8.8696,18.9199,8.9199,18.7803,8.9199z"/>
	<path d="M12.0762,23.8906c-0.2764,0-0.5-0.2236-0.5-0.5V13.835c0-0.2764,0.2236-0.5,0.5-0.5s0.5,0.2236,0.5,0.5v9.5557
		C12.5762,23.667,12.3525,23.8906,12.0762,23.8906z"/>
</g>
<rect x="0.0172" y="0.0031" fill="none" width="24" height="24"/>
</svg>
