<?xml version="1.0" encoding="utf-8"?>
<!-- Generator: Adobe Illustrator 18.1.0, SVG Export Plug-In . SVG Version: 6.00 Build 0)  -->
<svg version="1.1" id="Layer_1" xmlns="http://www.w3.org/2000/svg" xmlns:xlink="http://www.w3.org/1999/xlink" x="0px" y="0px"
	 width="24px" height="24px" viewBox="0 0 24 24" enable-background="new 0 0 24 24" xml:space="preserve">
<g>
	<path d="M23.4863,20h-1.5c-0.2764,0-0.5-0.2236-0.5-0.5s0.2236-0.5,0.5-0.5h1V6h-22v13h1c0.2764,0,0.5,0.2236,0.5,0.5
		s-0.2236,0.5-0.5,0.5h-1.5c-0.2764,0-0.5-0.2236-0.5-0.5v-14c0-0.2764,0.2236-0.5,0.5-0.5h23c0.2764,0,0.5,0.2236,0.5,0.5v14
		C23.9863,19.7764,23.7627,20,23.4863,20z"/>
	<path d="M19.2529,21H4.7085c-0.3735,0-0.7588-0.1807-0.9819-0.4609c-0.1812-0.2275-0.2461-0.501-0.1841-0.7725l0.335-2.918
		C3.9946,16.3262,4.4741,16,5.0527,16h13.8496c0.5889,0,1.0576,0.3164,1.166,0.7871c0.373,3.1094,0.373,3.1523,0.373,3.1914
		C20.4414,20.542,19.9082,21,19.2529,21z M5.0527,17c-0.1167,0-0.1919,0.0391-0.2085,0.0566l-0.3179,2.8799
		C4.5278,19.9443,4.6245,20,4.7085,20h14.5444c0.1162,0,0.1865-0.0508,0.1992-0.0693c-0.0234-0.0908-0.3467-2.793-0.3662-2.9639
		C19.0898,17.0332,19.0176,17,18.9023,17H5.0527z"/>
	<path d="M17.3643,13.9844H6.6079c-1.3628,0-2.4717-1.1084-2.4717-2.4717s1.1089-2.4722,2.4717-2.4722h10.7563
		c1.3633,0,2.4717,1.1089,2.4717,2.4722S18.7275,13.9844,17.3643,13.9844z M6.6079,10.0405c-0.8115,0-1.4717,0.6606-1.4717,1.4722
		s0.6602,1.4717,1.4717,1.4717h10.7563c0.8115,0,1.4717-0.6602,1.4717-1.4717s-0.6602-1.4722-1.4717-1.4722H6.6079z"/>
	<path d="M6.6084,13.9844c-1.3633,0-2.4722-1.1084-2.4722-2.4717s1.1089-2.4722,2.4722-2.4722c1.3628,0,2.4717,1.1089,2.4717,2.4722
		S7.9712,13.9844,6.6084,13.9844z M6.6084,10.0405c-0.8115,0-1.4722,0.6606-1.4722,1.4722s0.6606,1.4717,1.4722,1.4717
		s1.4717-0.6602,1.4717-1.4717S7.4199,10.0405,6.6084,10.0405z"/>
	<path d="M17.3643,13.9844c-1.3633,0-2.4717-1.1084-2.4717-2.4717s1.1084-2.4722,2.4717-2.4722s2.4717,1.1089,2.4717,2.4722
		S18.7275,13.9844,17.3643,13.9844z M17.3643,10.0405c-0.8115,0-1.4717,0.6606-1.4717,1.4722s0.6602,1.4717,1.4717,1.4717
		s1.4717-0.6602,1.4717-1.4717S18.1758,10.0405,17.3643,10.0405z"/>
	<path d="M6.5098,19c-0.1201,0-0.25-0.0498-0.3501-0.1504C6.0698,18.7598,6.02,18.6299,6.02,18.5s0.0498-0.2598,0.1396-0.3506
		c0.1899-0.1895,0.52-0.1895,0.7002-0.0098C6.96,18.2402,7.02,18.3701,7.02,18.5S6.96,18.7598,6.8696,18.8496
		C6.77,18.9502,6.6396,19,6.5098,19z"/>
	<path d="M17.5195,19c-0.1299,0-0.2598-0.0498-0.3594-0.1504c-0.0908-0.0898-0.1406-0.2197-0.1406-0.3496
		s0.0498-0.2598,0.1406-0.3506c0.1895-0.1895,0.5195-0.1895,0.71-0.0098c0.0898,0.1006,0.1494,0.2305,0.1494,0.3604
		s-0.0596,0.2598-0.1494,0.3496C17.7695,18.9502,17.6494,19,17.5195,19z"/>
</g>
<rect x="-0.0136" y="0.0002" fill="none" width="24" height="24"/>
</svg>
