<?xml version="1.0" encoding="utf-8"?>
<!-- Generator: Adobe Illustrator 18.1.0, SVG Export Plug-In . SVG Version: 6.00 Build 0)  -->
<svg version="1.1" id="Layer_1" xmlns="http://www.w3.org/2000/svg" xmlns:xlink="http://www.w3.org/1999/xlink" x="0px" y="0px"
	 width="24px" height="24px" viewBox="0 0 24 24" enable-background="new 0 0 24 24" xml:space="preserve">
<g>
	<path d="M15.4111,21.0049h-1.8418c-0.2764,0-0.5-0.2236-0.5-0.5s0.2236-0.5,0.5-0.5h1.8418c0.2764,0,0.5,0.2236,0.5,0.5
		S15.6875,21.0049,15.4111,21.0049z"/>
	<path d="M15.4111,18.0049h-1.8418c-0.2764,0-0.5-0.2236-0.5-0.5s0.2236-0.5,0.5-0.5h1.8418c0.2764,0,0.5,0.2236,0.5,0.5
		S15.6875,18.0049,15.4111,18.0049z"/>
	<path d="M15.4111,15.0049h-1.8418c-0.2764,0-0.5-0.2236-0.5-0.5s0.2236-0.5,0.5-0.5h1.8418c0.2764,0,0.5,0.2236,0.5,0.5
		S15.6875,15.0049,15.4111,15.0049z"/>
	<path d="M15.4111,12.0039h-1.8418c-0.2764,0-0.5-0.2231-0.5-0.4995s0.2236-0.5,0.5-0.5h1.8418c0.2764,0,0.5,0.2236,0.5,0.5
		S15.6875,12.0039,15.4111,12.0039z"/>
	<path d="M15.4111,9.0039h-1.8418c-0.2764,0-0.5-0.2236-0.5-0.5s0.2236-0.5,0.5-0.5h1.8418c0.2764,0,0.5,0.2236,0.5,0.5
		S15.6875,9.0039,15.4111,9.0039z"/>
	<path d="M23.2656,13.7412c-0.251,0-0.4678-0.1895-0.4961-0.4453l-0.8662-7.874c-0.1221-1.1089-1.0547-1.9448-2.1709-1.9448h-0.4023
		c-0.2764,0-0.5-0.2236-0.5-0.5s0.2236-0.5,0.5-0.5h0.4023c1.627,0,2.9873,1.2192,3.165,2.8354l0.8662,7.874
		c0.0303,0.2744-0.168,0.5215-0.4424,0.5518C23.3027,13.7402,23.2842,13.7412,23.2656,13.7412z"/>
	<path d="M17.3779,24.0049H7.1772c-0.2485,0-0.4595-0.1826-0.4951-0.4287l-1.2783-8.8721c-0.0103-0.084-0.9937-7.5737-4.4702-9.5625
		C0.3467,4.8062,0.0918,4.2485,0.2505,3.6499C0.5439,2.5479,2.271,1.4316,5.0049,1.4316c1.4067,0,2.9048,0.2964,4.4526,0.8804
		c0.3149,0.1191,0.6831,0.1743,1.1582,0.1743l8.7134-0.0093c0.001,0,0.001,0,0.001,0c0.1406,0,0.2754,0.0591,0.3701,0.1636
		c0.0947,0.104,0.1406,0.2437,0.1279,0.3838L17.876,23.5518C17.8516,23.8086,17.6357,24.0049,17.3779,24.0049z M7.6104,23.0049
		h9.3125l1.8574-19.5273l-8.1499,0.0088c-0.6143,0-1.0947-0.0757-1.5264-0.2388C7.6699,2.7061,6.2905,2.4316,5.0049,2.4316
		c-2.3994,0-3.6509,0.9609-3.7876,1.4751c-0.02,0.0747-0.0566,0.2129,0.2129,0.3667c3.9092,2.2363,4.9233,9.9688,4.9648,10.2969
		L7.6104,23.0049z"/>
</g>
<rect x="-0.0142" y="0.0048" fill="none" width="24" height="24"/>
</svg>
