<?xml version="1.0" encoding="utf-8"?>
<!-- Generator: Adobe Illustrator 18.1.0, SVG Export Plug-In . SVG Version: 6.00 Build 0)  -->
<svg version="1.1" id="Layer_1" xmlns="http://www.w3.org/2000/svg" xmlns:xlink="http://www.w3.org/1999/xlink" x="0px" y="0px"
	 width="24px" height="24px" viewBox="0 0 24 24" enable-background="new 0 0 24 24" xml:space="preserve">
<g>
	<path d="M11.999,23.6094c-6.3989,0-11.6045-5.2061-11.6045-11.6055c0-6.3989,5.2056-11.605,11.6045-11.605
		c6.3984,0,11.6045,5.2061,11.6045,11.605C23.6035,18.4033,18.3975,23.6094,11.999,23.6094z M11.999,1.3989
		c-5.8472,0-10.6045,4.7573-10.6045,10.605S6.1519,22.6094,11.999,22.6094c5.8477,0,10.6045-4.7578,10.6045-10.6055
		S17.8467,1.3989,11.999,1.3989z"/>
	<path d="M11.999,19.2129c-0.7241,0-1.313-0.5889-1.313-1.3125c0-0.7246,0.5889-1.3135,1.313-1.3135
		c0.7236,0,1.3125,0.5889,1.3125,1.3135C13.3115,18.624,12.7227,19.2129,11.999,19.2129z M11.999,17.5869
		c-0.1724,0-0.313,0.1406-0.313,0.3135c0,0.1719,0.1406,0.3125,0.313,0.3125c0.1719,0,0.3125-0.1406,0.3125-0.3125
		C12.3115,17.7275,12.1709,17.5869,11.999,17.5869z"/>
	<path d="M17.0967,12.7451c-0.1328,0-0.2646-0.0527-0.3633-0.1562c-1.2441-1.3159-2.9248-2.041-4.7339-2.041
		c-1.8096,0-3.4912,0.7246-4.7354,2.041c-0.1895,0.1992-0.5073,0.209-0.7065,0.0195c-0.2007-0.1895-0.21-0.5059-0.02-0.707
		c1.4351-1.5176,3.3745-2.3535,5.4619-2.3535l0,0c2.0864,0,4.0259,0.8359,5.4604,2.354c0.1895,0.2007,0.1807,0.5171-0.0195,0.7065
		C17.3438,12.7002,17.2197,12.7451,17.0967,12.7451z"/>
	<path d="M4.4297,10.2979c-0.125,0-0.2505-0.0469-0.3477-0.1406c-0.1982-0.1919-0.2036-0.5083-0.0117-0.707
		c2.0962-2.1689,4.9121-3.3638,7.9282-3.3638l0,0c3.0171,0,5.8335,1.1948,7.9292,3.3638c0.1924,0.1987,0.1865,0.5151-0.0117,0.707
		c-0.2002,0.1924-0.5166,0.1865-0.707-0.0117c-1.9062-1.9727-4.4668-3.0591-7.2104-3.0591c-2.7427,0-5.3032,1.0864-7.2095,3.0591
		C4.6909,10.2466,4.5605,10.2979,4.4297,10.2979z"/>
	<path d="M14.626,15.1934c-0.1377,0-0.2754-0.0566-0.374-0.1689c-0.5713-0.6445-1.3926-1.0146-2.2534-1.0146
		c-0.8604,0-1.6812,0.3701-2.252,1.0146c-0.1831,0.209-0.499,0.2285-0.7061,0.043c-0.2065-0.1826-0.2261-0.499-0.043-0.7051
		c0.7607-0.8594,1.8545-1.3525,3.001-1.3525c1.147,0,2.2407,0.4932,3.0015,1.3525c0.1836,0.2061,0.1641,0.5225-0.043,0.7051
		C14.8623,15.1523,14.7441,15.1934,14.626,15.1934z"/>
</g>
<rect fill="none" width="24" height="24"/>
</svg>
