<?xml version="1.0" encoding="utf-8"?>
<!-- Generator: Adobe Illustrator 18.1.0, SVG Export Plug-In . SVG Version: 6.00 Build 0)  -->
<svg version="1.1" id="Layer_1" xmlns="http://www.w3.org/2000/svg" xmlns:xlink="http://www.w3.org/1999/xlink" x="0px" y="0px"
	 width="24px" height="24px" viewBox="0 0 24 24" enable-background="new 0 0 24 24" xml:space="preserve">
<g>
	<path d="M12.001,23.7832c-5.7139,0-11.7871-1.584-11.7871-4.5205c0-1.9697,2.9458-3.5957,7.688-4.2422
		c0.272-0.0508,0.5254,0.1533,0.563,0.4277c0.0371,0.2734-0.1543,0.5254-0.4282,0.5625c-4.479,0.6113-6.8228,2.0986-6.8228,3.252
		c0,1.665,4.4302,3.5205,10.7871,3.5205c6.3564,0,10.7861-1.8555,10.7861-3.5205c0-1.3467-2.7549-2.6768-6.7002-3.2334
		c-0.2734-0.0391-0.4629-0.292-0.4248-0.5654c0.0391-0.2725,0.29-0.457,0.5654-0.4248c4.6631,0.6582,7.5596,2.2764,7.5596,4.2236
		C23.7871,22.1992,17.7148,23.7832,12.001,23.7832z"/>
	<path d="M12.001,20.7764c-0.2764,0-0.5-0.2236-0.5-0.5v-7.4219c0-0.2764,0.2236-0.5,0.5-0.5s0.5,0.2236,0.5,0.5v7.4219
		C12.501,20.5527,12.2773,20.7764,12.001,20.7764z"/>
	<path d="M12.001,4.1069c-1.0425,0-1.7339-1.2837-1.7339-2.1328c0-0.9556,0.7778-1.7334,1.7339-1.7334s1.7334,0.7778,1.7334,1.7334
		C13.7344,2.8232,13.043,4.1069,12.001,4.1069z M12.001,1.2407c-0.4048,0-0.7339,0.3291-0.7339,0.7334
		c0,0.4868,0.4185,1.1328,0.7339,1.1328s0.7334-0.646,0.7334-1.1328C12.7344,1.5698,12.4053,1.2407,12.001,1.2407z"/>
	<path d="M13.5967,20.7764c-0.0088,0-0.0186,0-0.0273-0.001c-0.2764-0.0156-0.4873-0.251-0.4717-0.5264l0.4883-8.7764
		c0.0068-0.1348,0.0889-0.3047,0.1914-0.3936c0.126-0.1094,0.2705-0.1436,0.4062-0.1489c0.1338-4.0288-0.0713-5.3267-0.1777-5.7192
		c-0.0781-0.0024-0.1709-0.0059-0.2539-0.0093l-0.2568-0.0117c-0.3125,0.5576-0.8643,0.8682-1.4941,0.8682
		c-0.6304,0-1.1821-0.3105-1.4399-0.8101l-0.3105-0.0464C10.1606,5.2051,10.061,5.209,9.9736,5.2129
		c-0.0728,0.3145-0.293,1.5645-0.1553,5.7173c0.1357,0.0054,0.2798,0.0396,0.4062,0.1494c0.104,0.0903,0.186,0.2637,0.1914,0.4019
		l0.4873,8.7676c0.0156,0.2754-0.1953,0.5117-0.4712,0.5264c-0.2847,0.0264-0.5117-0.1953-0.5269-0.4717l-0.4644-8.353
		c-0.1387-0.0034-0.2871-0.0352-0.417-0.1479c-0.104-0.0903-0.1846-0.2603-0.1895-0.3979c-0.2397-6.416,0.2925-6.8613,0.52-7.0518
		C9.4082,4.3081,9.4722,4.2739,9.54,4.2549c0.0884-0.0254,0.189-0.0332,0.6704-0.0527l0.2358-0.0103
		c0.4111-0.0303,0.8003,0.2017,1.0039,0.5981c0.2041,0.3955,0.8965,0.3965,1.1016-0.001c0.2031-0.3955,0.5869-0.6221,1.0059-0.5972
		l0.2344,0.0103c0.4814,0.0195,0.582,0.0273,0.6709,0.0527c0.0664,0.019,0.1289,0.0527,0.1826,0.0972
		c0.2275,0.189,0.7617,0.6323,0.5225,7.0527c-0.0059,0.1382-0.0859,0.3081-0.1904,0.3989c-0.1299,0.1123-0.2783,0.144-0.417,0.147
		l-0.4648,8.353C14.0811,20.5703,13.8604,20.7764,13.5967,20.7764z"/>
</g>
<rect x="0.0005" y="0.0004" fill="none" width="24" height="24"/>
</svg>
