<?xml version="1.0" encoding="utf-8"?>
<!-- Generator: Adobe Illustrator 18.1.0, SVG Export Plug-In . SVG Version: 6.00 Build 0)  -->
<svg version="1.1" id="Layer_1" xmlns="http://www.w3.org/2000/svg" xmlns:xlink="http://www.w3.org/1999/xlink" x="0px" y="0px"
	 width="24px" height="24px" viewBox="0 0 24 24" enable-background="new 0 0 24 24" xml:space="preserve">
<g>
	<path d="M8.3442,17.9639c-0.9111,0-1.6479-0.3965-2.1309-1.1465c-0.1396-0.2168-0.0913-0.5049,0.1118-0.6641
		c0.0693-0.0547,6.9922-5.4761,12.1133-8.6436c1.8916-1.1704,2.5156-1.3203,2.8486-1.3203c0.3145,0,0.5645,0.1567,0.668,0.4194
		c0.2744,0.6978-0.9922,2.3579-3.7637,4.9351C15.7773,13.7881,11.2856,17.9639,8.3442,17.9639z M7.3486,16.624
		c0.2617,0.2305,0.5864,0.3398,0.9956,0.3398c2.5483,0,7.0181-4.1553,9.1655-6.1523c1.6494-1.5337,2.709-2.7407,3.1914-3.4219
		c-0.3506,0.1611-0.8965,0.4507-1.7373,0.9707C14.6006,11.0591,8.9028,15.4209,7.3486,16.624z"/>
	<path d="M9.8315,22.0371H3.5591c-0.3789,0-0.7227-0.0723-1.022-0.2158c-0.4946-0.2363-1.0107-0.5625-1.5767-0.9971
		c-0.8394-0.6445-0.8994-1.2695-0.8022-1.6797c0.4424-1.8633,5.3936-2.9004,6.3818-3.0889c0.269-0.0488,0.5327,0.126,0.585,0.3975
		c0.0518,0.2715-0.126,0.5332-0.3975,0.585c-2.54,0.4863-5.4019,1.5176-5.5962,2.3379c-0.0532,0.2227,0.209,0.4795,0.4385,0.6553
		c0.5093,0.3916,0.9668,0.6816,1.3984,0.8877c0.1646,0.0781,0.3628,0.1182,0.5908,0.1182h6.2725
		c0.1587,0,0.3008-0.0176,0.4219-0.0518c1.0029-0.2812,1.9253-0.874,2.9028-1.8662c0.3174-0.3213,0.6641-0.6924,1.0264-1.0801
		c2.1738-2.3252,3.6846-3.8223,4.8408-3.3623c0.9219,0.3633,0.9219,1.7773,0.9219,2.2422v4.085h0.4414l0.2441-5.2861
		c0.0059-0.1328,0.0654-0.2598,0.165-0.3486c0.0254-0.0225,2.498-2.29,1.8301-5.251c-0.5938-2.626-1.2598-2.8936-1.2666-2.896
		c-0.251,0.0093-0.4609-0.209-0.4668-0.4858c-0.0059-0.2759,0.2568-0.5,0.5332-0.5054c0.0039,0,0.0088,0,0.0137,0
		c0.4121,0,1.417,0.3701,2.1611,3.667c0.7012,3.104-1.374,5.4575-1.9805,6.0659l-0.2568,5.5635
		c-0.0117,0.2666-0.2314,0.4766-0.499,0.4766h-1.4189c-0.2764,0-0.5-0.2236-0.5-0.5v-4.585c0-0.9473-0.1885-1.2725-0.2891-1.3125
		c-0.6025-0.2324-2.7246,2.0264-3.7432,3.1162c-0.3682,0.3936-0.7217,0.7715-1.0439,1.0986
		c-1.1055,1.1211-2.1685,1.7969-3.3447,2.127C10.3149,22.0068,10.082,22.0371,9.8315,22.0371z"/>
</g>
<rect x="0.0142" y="0.0344" fill="none" width="24" height="24"/>
</svg>
