<?xml version="1.0" encoding="utf-8"?>
<!-- Generator: Adobe Illustrator 18.1.0, SVG Export Plug-In . SVG Version: 6.00 Build 0)  -->
<svg version="1.1" id="Layer_1" xmlns="http://www.w3.org/2000/svg" xmlns:xlink="http://www.w3.org/1999/xlink" x="0px" y="0px"
	 width="24px" height="24px" viewBox="0 0 24 24" enable-background="new 0 0 24 24" xml:space="preserve">
<g>
	<path d="M23.4863,23.5c-0.2764,0-0.5-0.2236-0.5-0.5V12.374c0-6.0947-4.9346-11.0532-11-11.0532s-11,4.9585-11,11.0532V23
		c0,0.2764-0.2236,0.5-0.5,0.5s-0.5-0.2236-0.5-0.5V12.374c0-6.646,5.3833-12.0532,12-12.0532c6.6172,0,12,5.4072,12,12.0532V23
		C23.9863,23.2764,23.7627,23.5,23.4863,23.5z"/>
	<path d="M19.5889,23.001h-1.2764c-0.7363,0-1.335-0.5938-1.335-1.3232V21H7.0107v0.6777c0,0.7295-0.5991,1.3232-1.3359,1.3232
		H4.3994c-0.7363,0-1.3354-0.5938-1.3354-1.3232v-4.1836c0.1016-0.9873,0.2686-2.4551,0.4346-3.3193
		c-0.4468-0.0869-0.9883-0.2949-0.9883-0.9805V12.627c0-0.5303,0.4346-0.9619,0.9683-0.9619h2.1396c0.2764,0,0.5,0.2236,0.5,0.5
		s-0.2236,0.5-0.5,0.5H3.4785l0.0317,0.5293c0.022-0.0146,0.2739,0.0166,0.4248,0.0371l0.2637,0.0391
		c0.1577,0.0273,0.293,0.127,0.3643,0.2705s0.0693,0.3115-0.0044,0.4531C4.4561,14.251,4.2188,16.042,4.061,17.5459l0.0029,4.1318
		c0,0.1787,0.1504,0.3232,0.3354,0.3232h1.2754c0.1851,0,0.3359-0.1445,0.3359-0.3232V20.5c0-0.2764,0.2236-0.5,0.5-0.5h10.9668
		c0.2764,0,0.5,0.2236,0.5,0.5v1.1777c0,0.1787,0.1504,0.3232,0.335,0.3232h1.2764c0.1846,0,0.335-0.1445,0.335-0.3232v-4.1836
		c-0.1553-1.4531-0.3926-3.2451-0.5029-3.5156c-0.0566-0.1406-0.0537-0.3145,0.0205-0.4473
		c0.0742-0.1318,0.1973-0.2383,0.3467-0.2637l0.2607-0.0381c0.1465-0.0195,0.3926-0.0527,0.4561-0.0957l-0.042-0.5068
		l-2.0928,0.0381c-0.2764,0-0.5-0.2236-0.5-0.5s0.2236-0.5,0.5-0.5h2.124c0.5342,0,0.9688,0.4316,0.9688,0.9619v0.5674
		c0,0.6826-0.5322,0.8916-0.9746,0.9785c0.167,0.8623,0.333,2.3203,0.4326,3.2695l0.0029,4.2354
		C20.9238,22.4072,20.3252,23.001,19.5889,23.001z"/>
	<path d="M16.3154,14H7.6729c-1.2285,0-2.5547-0.7725-2.5547-2.0195c0-0.0459,0.0063-0.0918,0.019-0.1362l0.8242-2.9141
		C6.1914,7.7905,7.1143,7,8.2495,7h7.4888c1.1582,0,2.0605,0.7729,2.2979,1.9688l0.8154,2.8755
		c0.0127,0.0444,0.0186,0.0903,0.0186,0.1362C18.8701,13.2275,17.5439,14,16.3154,14z M6.1211,12.04
		C6.1729,12.6084,6.9619,13,7.6729,13h8.6426c0.7109,0,1.5-0.3916,1.5518-0.96l-0.8027-2.8374C16.9434,8.6011,16.5391,8,15.7383,8
		H8.2495C7.4531,8,7.0469,8.6021,6.9326,9.166L6.1211,12.04z"/>
	<path d="M13.9863,19h-4c-0.2764,0-0.5-0.2236-0.5-0.5S9.71,18,9.9863,18h4c0.2764,0,0.5,0.2236,0.5,0.5S14.2627,19,13.9863,19z"/>
	<path d="M13.9863,17h-4c-0.2764,0-0.5-0.2236-0.5-0.5S9.71,16,9.9863,16h4c0.2764,0,0.5,0.2236,0.5,0.5S14.2627,17,13.9863,17z"/>
	<path d="M17.4941,19.126c-0.9082,0-1.6465-0.7314-1.6465-1.6299s0.7383-1.6299,1.6465-1.6299c0.9072,0,1.6455,0.7314,1.6455,1.6299
		S18.4014,19.126,17.4941,19.126z M17.4941,16.8662c-0.3564,0-0.6465,0.2822-0.6465,0.6299s0.29,0.6299,0.6465,0.6299
		c0.3555,0,0.6455-0.2822,0.6455-0.6299S17.8496,16.8662,17.4941,16.8662z"/>
	<path d="M6.4932,19.126c-0.9077,0-1.646-0.7314-1.646-1.6299s0.7383-1.6299,1.646-1.6299s1.646,0.7314,1.646,1.6299
		S7.4009,19.126,6.4932,19.126z M6.4932,16.8662c-0.3564,0-0.646,0.2822-0.646,0.6299s0.2896,0.6299,0.646,0.6299
		s0.646-0.2822,0.646-0.6299S6.8496,16.8662,6.4932,16.8662z"/>
	<path d="M13.0273,9.5288h-2.062c-0.2764,0-0.5-0.2236-0.5-0.5s0.2236-0.5,0.5-0.5h2.062c0.2764,0,0.5,0.2236,0.5,0.5
		S13.3037,9.5288,13.0273,9.5288z"/>
	<path d="M20.4238,21H3.5635c-0.2764,0-0.5-0.2236-0.5-0.5s0.2236-0.5,0.5-0.5h16.8604c0.2764,0,0.5,0.2236,0.5,0.5
		S20.7002,21,20.4238,21z"/>
</g>
<rect x="-0.0136" fill="none" width="24" height="24"/>
</svg>
