<?xml version="1.0" encoding="utf-8"?>
<!-- Generator: Adobe Illustrator 18.1.0, SVG Export Plug-In . SVG Version: 6.00 Build 0)  -->
<svg version="1.1" id="Layer_1" xmlns="http://www.w3.org/2000/svg" xmlns:xlink="http://www.w3.org/1999/xlink" x="0px" y="0px"
	 width="24px" height="24px" viewBox="0 0 24 24" enable-background="new 0 0 24 24" xml:space="preserve">
<g>
	<path d="M23.5332,23H0.5337c-0.2764,0-0.5-0.2236-0.5-0.5v-21c0-0.2764,0.2236-0.5,0.5-0.5h22.9995c0.2764,0,0.5,0.2236,0.5,0.5v21
		C24.0332,22.7764,23.8096,23,23.5332,23z M1.0337,22h21.9995V2H1.0337V22z"/>
	<path d="M23.5078,5.0005H0.5815c-0.2764,0-0.5-0.2236-0.5-0.5s0.2236-0.5,0.5-0.5h22.9263c0.2764,0,0.5,0.2236,0.5,0.5
		S23.7842,5.0005,23.5078,5.0005z"/>
	<path d="M5.5044,20H3.5049c-0.2764,0-0.5-0.2236-0.5-0.5v-11c0-0.2764,0.2236-0.5,0.5-0.5h1.9995c0.2764,0,0.5,0.2236,0.5,0.5v11
		C6.0044,19.7764,5.7808,20,5.5044,20z M4.0049,19h0.9995V9H4.0049V19z"/>
	<path d="M20.5059,20h-2c-0.2764,0-0.5-0.2236-0.5-0.5v-11c0-0.2764,0.2236-0.5,0.5-0.5h2c0.2764,0,0.5,0.2236,0.5,0.5v11
		C21.0059,19.7764,20.7822,20,20.5059,20z M19.0059,19h1V9h-1V19z"/>
	<path d="M15.5059,20h-7.001c-0.2764,0-0.5-0.2236-0.5-0.5v-11c0-0.2764,0.2236-0.5,0.5-0.5h7.001c0.2764,0,0.5,0.2236,0.5,0.5v11
		C16.0059,19.7764,15.7822,20,15.5059,20z M9.0049,19h6.001V9h-6.001V19z"/>
</g>
<rect fill="none" width="24" height="24"/>
</svg>
