<?xml version="1.0" encoding="utf-8"?>
<!-- Generator: Adobe Illustrator 18.1.0, SVG Export Plug-In . SVG Version: 6.00 Build 0)  -->
<svg version="1.1" id="Layer_1" xmlns="http://www.w3.org/2000/svg" xmlns:xlink="http://www.w3.org/1999/xlink" x="0px" y="0px"
	 width="24px" height="24px" viewBox="0 0 24 24" enable-background="new 0 0 24 24" xml:space="preserve">
<g>
	<path d="M2.4829,17.001c-0.2764,0-0.5-0.2236-0.5-0.5V5.2041c0-0.6729,0.5479-1.2207,1.2207-1.2207h6.7969
		c0.2764,0,0.5,0.2236,0.5,0.5s-0.2236,0.5-0.5,0.5H3.2036c-0.1216,0-0.2207,0.0991-0.2207,0.2207V16.501
		C2.9829,16.7773,2.7593,17.001,2.4829,17.001z"/>
	<path d="M21.5244,17.001c-0.2764,0-0.5-0.2236-0.5-0.5V5.2041c0-0.1216-0.0986-0.2207-0.2197-0.2207h-6.7764
		c-0.2764,0-0.5-0.2236-0.5-0.5s0.2236-0.5,0.5-0.5h6.7764c0.6729,0,1.2197,0.5479,1.2197,1.2207V16.501
		C22.0244,16.7773,21.8008,17.001,21.5244,17.001z"/>
	<path d="M22.6992,21.0303H1.3071c-0.7168,0-1.2998-0.583-1.2998-1.2998v-1.2002c0-0.2764,0.2236-0.5,0.5-0.5h10.2578
		c0.2764,0,0.5,0.2236,0.5,0.5v0.3037l1.5425-0.0654l-0.0645-0.2383c0-0.2764,0.2236-0.5,0.5-0.5H23.5c0.2764,0,0.5,0.2236,0.5,0.5
		v1.2002C24,20.4473,23.416,21.0303,22.6992,21.0303z M1.0073,19.0303v0.7002c0,0.165,0.1343,0.2998,0.2998,0.2998h21.3921
		c0.166,0,0.3008-0.1348,0.3008-0.2998v-0.7002h-9.2773c-0.0908,0.4219-0.4668,0.7383-0.915,0.7383h-1.6079
		c-0.4482,0-0.8232-0.3164-0.9141-0.7383H1.0073z"/>
	<path d="M12.0039,13.9355c-0.2764,0-0.5-0.2236-0.5-0.5V0.894c0-0.2764,0.2236-0.5,0.5-0.5s0.5,0.2236,0.5,0.5v12.5415
		C12.5039,13.7119,12.2803,13.9355,12.0039,13.9355z"/>
	<path d="M12.0039,13.9355c-0.1279,0-0.2559-0.0488-0.3535-0.1465L8.6318,10.771c-0.1953-0.1953-0.1953-0.5117,0-0.707
		s0.5117-0.1953,0.707,0l2.665,2.6646l2.665-2.6646c0.1953-0.1953,0.5117-0.1953,0.707,0s0.1953,0.5117,0,0.707l-3.0186,3.0181
		C12.2598,13.8867,12.1318,13.9355,12.0039,13.9355z"/>
</g>
<rect fill="none" width="24" height="24"/>
</svg>
