<?xml version="1.0" encoding="utf-8"?>
<!-- Generator: Adobe Illustrator 18.1.0, SVG Export Plug-In . SVG Version: 6.00 Build 0)  -->
<svg version="1.1" id="Layer_1" xmlns="http://www.w3.org/2000/svg" xmlns:xlink="http://www.w3.org/1999/xlink" x="0px" y="0px"
	 width="24px" height="24px" viewBox="0 0 24 24" enable-background="new 0 0 24 24" xml:space="preserve">
<g>
	<path d="M12.0898,23.1631c-0.0029,0-0.0059,0-0.0088,0C9.7676,23.125,7.9927,22.46,6.8057,21.1875
		c-1.4473-1.5508-1.5117-3.4736-1.4722-4.2285c0.0547-1.0381,0.5249-2.0742,1.0688-3.2734
		c0.6655-1.4678,1.4204-3.1313,1.5591-5.1865c0.2158-3.188,2.4531-3.5322,3.4048-3.5322c0.1709,0,0.3232,0.0103,0.4492,0.0229
		C12,5.0093,12.1787,5.0088,12.3643,4.9902c0.126-0.0132,0.2783-0.0234,0.4492-0.0234c0.9521,0,3.1895,0.3442,3.4043,3.5322
		c0.1396,2.0547,0.8936,3.7178,1.5596,5.1855c0.5439,1.2002,1.0137,2.2354,1.0684,3.2744c0.04,0.7549-0.0234,2.6777-1.4707,4.2285
		c-1.1875,1.2725-2.9629,1.9365-5.2764,1.9756C12.0957,23.1631,12.0928,23.1631,12.0898,23.1631z M11.3662,5.9668
		c-1.4805,0-2.2905,0.8745-2.4067,2.5996c-0.1514,2.2358-0.9458,3.9873-1.6465,5.5322c-0.502,1.1064-0.936,2.0635-0.9805,2.9131
		c-0.0332,0.627,0.0186,2.2236,1.2041,3.4941c0.9937,1.0645,2.5254,1.6221,4.5532,1.6572c2.0283-0.0352,3.5605-0.5928,4.5537-1.6582
		c1.1855-1.2705,1.2373-2.8662,1.2041-3.4932c-0.0449-0.8506-0.4785-1.8066-0.9814-2.9141
		c-0.7002-1.5449-1.4941-3.2954-1.6465-5.5312c-0.1162-1.7251-0.9258-2.5996-2.4062-2.5996c-0.1318,0-0.249,0.0078-0.3457,0.0181
		c-0.252,0.0264-0.5024,0.0269-0.7563-0.0005C11.6152,5.9746,11.498,5.9668,11.3662,5.9668z"/>
	<path d="M11.3735,4.3926c-1.7847,0-3.5903-2.9077-3.7905-3.2393C7.5049,1.0239,7.4897,0.8662,7.5415,0.7241
		c0.0513-0.1416,0.1641-0.2529,0.3071-0.3018c0.0317-0.0112,0.7861-0.2671,1.689-0.2671c1.957,0,3.1353,1.1997,3.2339,3.292
		c0.0068,0.1343-0.041,0.2656-0.1328,0.3643C12.2842,4.1919,11.8472,4.3926,11.3735,4.3926z M8.8203,1.2168
		c0.7104,1.0063,1.7847,2.1758,2.5532,2.1758c0.0947,0,0.228-0.0156,0.3833-0.1284C11.624,1.8457,10.896,1.1553,9.5376,1.1553
		C9.2778,1.1553,9.0308,1.1821,8.8203,1.2168z"/>
	<path d="M12.0215,7.0693c-0.2344,0-0.4438-0.1655-0.4897-0.4048c-0.3086-1.5962-0.1187-4.8481,2.8052-5.7324
		c0.2637-0.0806,0.543,0.0693,0.623,0.334c0.0801,0.2642-0.0693,0.543-0.334,0.623c-2.7891,0.8438-2.1416,4.4341-2.1123,4.5864
		c0.0518,0.271-0.126,0.5332-0.3975,0.585C12.085,7.0664,12.0527,7.0693,12.0215,7.0693z"/>
	<path d="M12.5469,23.9141c-0.1875,0-0.3672-0.1064-0.4531-0.2871l-0.1577-0.3379l-0.1577,0.3369
		c-0.1172,0.25-0.4155,0.3584-0.6646,0.2412c-0.25-0.1172-0.3579-0.415-0.2407-0.665l0.6099-1.3027
		c0.082-0.1758,0.2583-0.2881,0.4526-0.2881l0,0c0.1943,0,0.3701,0.1123,0.4521,0.2871L13,23.2012
		c0.1172,0.25,0.0088,0.5479-0.2402,0.666C12.6904,23.8984,12.6182,23.9141,12.5469,23.9141z"/>
	<path d="M14.6025,20.2578c-0.1289,0-0.2568-0.0498-0.3545-0.1475c-0.1953-0.1953-0.1943-0.5117,0.001-0.707
		c0.0791-0.0791,1.917-1.9541,0.6318-3.7939c-0.1582-0.2266-0.1025-0.5381,0.124-0.6963c0.2246-0.1562,0.5361-0.1045,0.6963,0.124
		c1.416,2.0273,0.1299,4.207-0.748,5.0762C14.8564,20.21,14.7295,20.2578,14.6025,20.2578z"/>
</g>
<rect y="0.0346" fill="none" width="24" height="24"/>
</svg>
