<?xml version="1.0" encoding="utf-8"?>
<!-- Generator: Adobe Illustrator 18.1.0, SVG Export Plug-In . SVG Version: 6.00 Build 0)  -->
<svg version="1.1" id="Layer_1" xmlns="http://www.w3.org/2000/svg" xmlns:xlink="http://www.w3.org/1999/xlink" x="0px" y="0px"
	 width="24px" height="24px" viewBox="0 0 24 24" enable-background="new 0 0 24 24" xml:space="preserve">
<g>
	<path d="M16.9883,22.1953c-0.1982,0-0.3691-0.043-0.5127-0.1055l-13.624-5.9746c-0.2529-0.1113-0.3682-0.4062-0.2573-0.6592
		s0.4038-0.3682,0.6587-0.2568l13.625,5.9746c0.1963,0.083,0.7949-0.0664,1.7764-1.1963c0.9248-1.0645,1.8594-2.6201,2.6309-4.3809
		c1.6602-3.7866,1.7715-6.7329,1.1162-7.02L8.7773,2.6025C8.5244,2.4917,8.4092,2.1968,8.52,1.9438s0.4033-0.3677,0.6587-0.2573
		l13.625,5.9741c1.6797,0.7373,0.9688,4.7524-0.6025,8.3384c-0.8115,1.8496-1.8027,3.4951-2.792,4.6338
		C18.3545,21.8486,17.5557,22.1953,16.9883,22.1953z"/>
	<path d="M3.248,16.1973c-0.1396,0-0.2729-0.0273-0.3965-0.0811c-1.6694-0.7324-0.126-5.4629,1.0493-8.1421
		C4.938,5.6084,7.1333,1.6055,8.7817,1.6055c0.1401,0,0.2734,0.0273,0.397,0.0815c0.7036,0.3086,0.8979,1.3013,0.5952,3.0361
		C9.5205,6.1748,8.936,7.9878,8.1294,9.8281C7.0923,12.1943,4.897,16.1973,3.248,16.1973z M8.769,2.5981
		C8.2666,2.6055,6.5015,4.5337,4.8169,8.3755c-1.7017,3.8794-1.9209,6.4839-1.564,6.8218c0.521-0.0117,2.2808-1.9395,3.9604-5.7705
		C8.9268,5.5195,9.1367,2.9048,8.769,2.5981z"/>
	<path d="M11.7192,13.1533c-0.2876,0-0.5664-0.0195-0.8325-0.0596c-0.2734-0.04-0.4614-0.2949-0.4209-0.5684
		c0.0405-0.2725,0.2979-0.459,0.5684-0.4199c1.7393,0.2529,4.1123-0.5034,5.7744-1.8555c1.3379-1.0894,2.2686-2.5078,2.6191-3.9941
		c0.3398-1.439,0.0918-2.7666-0.6992-3.7383c-0.7764-0.9541-2.0732-1.4272-3.6338-1.3276
		c-1.5781,0.0981-3.2529,0.7803-4.5942,1.8716c-0.2144,0.1758-0.5288,0.1426-0.7031-0.0723
		C9.623,2.7754,9.6553,2.4604,9.8696,2.2861c1.499-1.2202,3.3813-1.9839,5.1626-2.0942c1.9043-0.1182,3.4873,0.4834,4.4717,1.6948
		c0.9912,1.2178,1.3105,2.8511,0.8975,4.5991C20,8.1855,18.9482,9.7979,17.4395,11.0254
		C15.8252,12.3389,13.5859,13.1533,11.7192,13.1533z"/>
	<path d="M10.1851,13.6055c-0.7422,0-1.3462-0.6035-1.3462-1.3457c0-0.7427,0.604-1.3467,1.3462-1.3467
		c0.7427,0,1.3467,0.604,1.3467,1.3467C11.5317,13.002,10.9277,13.6055,10.1851,13.6055z M10.1851,11.9131
		c-0.1909,0-0.3462,0.1553-0.3462,0.3467c0,0.1904,0.1553,0.3457,0.3462,0.3457s0.3467-0.1553,0.3467-0.3457
		C10.5317,12.0684,10.376,11.9131,10.1851,11.9131z"/>
	<path d="M3.062,23.6953c-1.1167,0-2.0254-0.9082-2.0254-2.0254c0-0.4863,1.3462-3.7471,2.0254-3.7471s2.0249,3.2607,2.0249,3.7471
		C5.0869,22.7871,4.1787,23.6953,3.062,23.6953z M3.0615,19.3711c-0.4297,0.748-1.0249,1.8926-1.0249,2.2988
		c0,0.5654,0.46,1.0254,1.0254,1.0254c0.5649,0,1.0249-0.46,1.0249-1.0254C4.0869,21.2656,3.4917,20.1191,3.0615,19.3711z"/>
</g>
<rect x="0.0293" y="0.0001" fill="none" width="24" height="24"/>
</svg>
