<?xml version="1.0" encoding="utf-8"?>
<!-- Generator: Adobe Illustrator 18.1.0, SVG Export Plug-In . SVG Version: 6.00 Build 0)  -->
<svg version="1.1" id="Layer_1" xmlns="http://www.w3.org/2000/svg" xmlns:xlink="http://www.w3.org/1999/xlink" x="0px" y="0px"
	 width="24px" height="24px" viewBox="0 0 24 24" enable-background="new 0 0 24 24" xml:space="preserve">
<g>
	<path d="M13.3145,23.9863h-2.6421c-0.2266,0-0.4458-0.0938-0.6021-0.2578c-0.1587-0.166-0.2397-0.3848-0.229-0.6162
		c0.1626-1.2568,0.4419-3.4492,0.5625-4.5566l-3.8696,0.4629c-0.397-0.0137-0.604-0.1162-0.7622-0.3262
		c-0.1582-0.2109-0.2065-0.4775-0.1328-0.7314l0.3481-1.1992c0.0117-0.04,0.0171-0.0693,0.0195-0.0918l-4.8555-3.9717
		c-0.2222-0.1807-0.334-0.459-0.2993-0.7441c0.0342-0.2842,0.209-0.5269,0.4668-0.6499c0.165-0.0791,0.5127-0.2476,0.7881-0.3838
		L1.2993,7.9819C1.231,7.728,1.2827,7.4644,1.4414,7.2573s0.3989-0.3262,0.6597-0.3262c0.0332,0,0.1367,0.0107,0.1689,0.0171
		c0.0054,0.001,1.7373,0.373,2.521,0.5435L5.0698,6.541c0.1689-0.5801,1.0063-0.7749,1.415-0.3223
		C6.9077,6.687,7.4312,7.2666,7.8828,7.7666c-0.1284-0.7617-0.3403-1.9312-0.687-3.7251L7.1396,3.75
		C7.0942,3.5088,7.1582,3.2603,7.3154,3.0703C7.563,2.77,8.0098,2.6821,8.354,2.8682c0.0698,0.0381,0.6279,0.3403,1.2324,0.647
		l1.6733-3.1226c0.2915-0.541,1.1748-0.542,1.4658-0.001c0.002,0.0024,1.2334,2.3105,1.6758,3.1265l1.2559-0.6523
		c0.3457-0.1763,0.7754-0.0859,1.0205,0.2017c0.1562,0.1846,0.2236,0.4282,0.1846,0.668c0,0.0015,0,0.0024-0.001,0.0039
		c0,0.0015,0,0.0029,0,0.0044l0,0c-0.001,0.0054-0.002,0.0107-0.0029,0.0161h-0.001c-0.1025,0.4834-0.5078,2.5625-0.7402,3.9858
		l1.3857-1.5332c0.4062-0.4512,1.2529-0.248,1.417,0.332l0.2686,0.9404c0.3359-0.0527,1.0215-0.1812,2.4141-0.4863l0.1191-0.0264
		c0.0342-0.0068,0.1357-0.0176,0.1699-0.0176c0.2539,0,0.499,0.1211,0.6562,0.3232c0.1582,0.2036,0.2119,0.4634,0.1484,0.7139
		c-0.0039,0.0137-0.0078,0.0269-0.0117,0.04c-0.1162,0.3643-0.6387,2.2026-0.7686,2.9072l0.7578,0.3569
		c0.2588,0.1216,0.4346,0.3643,0.4697,0.6484c0.0361,0.2842-0.0752,0.5635-0.2969,0.7451l-0.1318,0.1084
		c-1.9092,1.5693-4.2773,3.5107-4.7148,3.8506c-0.0127,0.0117-0.0215,0.0186-0.0273,0.0215
		c0.0039,0.0098,0.0068,0.0176,0.0088,0.0225l0.3359,1.1689c0.0498,0.1084,0.0752,0.2266,0.0752,0.3457
		c0,0.2119-0.0752,0.4121-0.21,0.5645c-0.1553,0.1729-0.373,0.2676-0.6152,0.2676c-0.0205,0-0.0938-0.0039-0.1133-0.0068
		l-0.3496-0.0439c-0.751-0.0947-2.5439-0.3232-3.4854-0.4375l0.5234,4.5293c0.0146,0.2559-0.0674,0.4805-0.2227,0.6455
		C13.7627,23.8916,13.542,23.9863,13.3145,23.9863z M10.8643,22.9863h2.2617l-0.5723-4.9453
		c-0.0166-0.1465,0.0322-0.293,0.1328-0.4004s0.2412-0.1719,0.3916-0.1562c0.4336,0.04,3.1738,0.3877,4.1523,0.5117l0.1025,0.0137
		l-0.3066-1.0215c-0.1377-0.2676-0.1338-0.7461,0.3594-1.1299c0.332-0.2568,1.9717-1.5957,4.6201-3.7715l-0.8096-0.3818
		c-0.4404-0.2153-0.3242-0.7153-0.1641-1.4082c0.2676-1.1553,0.4463-1.855,0.5889-2.2788
		c-2.0645,0.4497-2.5508,0.5029-2.7354,0.5029c-0.2227,0-0.4863-0.1616-0.5488-0.375L18.041,7.1089L15.8613,9.52
		c-0.04,0.0439-0.0869,0.0806-0.1396,0.1079c-0.2051,0.1069-0.498,0.0464-0.6436-0.1367c-0.3516-0.4414,0.4619-4.3745,0.7256-5.5923
		L14.665,4.5117c-0.0459,0.0239-0.0957,0.0405-0.1465,0.0493c-0.1162,0.021-0.1924,0.0312-0.2607,0.0312
		c-0.2578,0-0.4785-0.1304-0.6055-0.3579c-0.1914-0.3457-1.2627-2.3496-1.6592-3.0923l-1.6758,3.127
		c-0.1323,0.2764-0.5181,0.4736-1.1025,0.1787C8.8237,4.2505,8.4438,4.0503,8.1899,3.915c1.0269,5.3135,0.9531,5.4033,0.7573,5.6406
		c-0.0947,0.1152-0.2437,0.186-0.3926,0.186c-0.1289,0.022-0.2749-0.0601-0.3691-0.1553C8.1021,9.5,6.8672,8.1343,5.9438,7.1118
		L5.6445,8.126C5.5337,8.4082,5.314,8.5557,5.0557,8.5557c-0.0376,0-0.1396-0.0127-0.1763-0.021
		c-0.3428-0.0762-1.9067-0.4126-2.543-0.5493l0.8032,2.9517c0.0254,0.0962,0.0352,0.2109,0.0269,0.3032
		c-0.0151,0.168-0.1133,0.3164-0.2617,0.396c-0.1675,0.0898-0.6055,0.3042-0.9165,0.4556l4.749,3.8848
		c0.0771,0.0654,0.4072,0.3906,0.21,1.0654l-0.2773,0.9541l4.2305-0.5068c0.1523-0.0195,0.2944,0.0303,0.4014,0.1318
		c0.1079,0.1006,0.1655,0.2441,0.1572,0.3916C11.4243,18.6436,10.9824,22.0791,10.8643,22.9863z"/>
</g>
<rect x="-0.0008" y="-0.0147" fill="none" width="24" height="24"/>
</svg>
