<?xml version="1.0" encoding="utf-8"?>
<!-- Generator: Adobe Illustrator 18.1.0, SVG Export Plug-In . SVG Version: 6.00 Build 0)  -->
<svg version="1.1" id="Layer_1" xmlns="http://www.w3.org/2000/svg" xmlns:xlink="http://www.w3.org/1999/xlink" x="0px" y="0px"
	 width="24px" height="24px" viewBox="0 0 24 24" enable-background="new 0 0 24 24" xml:space="preserve">
<g>
	<path d="M12.0068,23.7246C5.542,23.7246,0.2822,18.4648,0.2822,12c0-6.4653,5.2598-11.7251,11.7246-11.7251
		c6.4658,0,11.7256,5.2598,11.7256,11.7251C23.7324,18.4648,18.4727,23.7246,12.0068,23.7246z M12.0068,1.2749
		C6.0933,1.2749,1.2822,6.0859,1.2822,12c0,5.9131,4.811,10.7246,10.7246,10.7246c5.9141,0,10.7256-4.8115,10.7256-10.7246
		C22.7324,6.0859,17.9209,1.2749,12.0068,1.2749z"/>
	<path d="M13.4141,23.6377c-0.0215,0-0.042-0.001-0.0635-0.0039c-0.2734-0.0342-0.4678-0.2842-0.4336-0.5586
		c0.417-3.3135-0.6973-6.5684-3.0566-8.9287c-2.3589-2.3589-5.6099-3.4741-8.9272-3.0571
		c-0.2778,0.0332-0.5234-0.1602-0.5581-0.4341c-0.0342-0.2739,0.1597-0.5239,0.4341-0.5581
		c3.6206-0.4517,7.1792,0.7642,9.7583,3.3423c2.5791,2.5801,3.7979,6.1377,3.3418,9.7607
		C13.877,23.4531,13.6621,23.6377,13.4141,23.6377z"/>
	<path d="M21.7139,13.9961c-3.0928,0-6.043-1.2119-8.2666-3.4355c-2.5786-2.5781-3.7974-6.1338-3.3433-9.7554
		c0.0342-0.2734,0.2817-0.4639,0.5581-0.4341c0.2739,0.0342,0.4683,0.2842,0.4341,0.5581c-0.415,3.3135,0.6997,6.5659,3.0581,8.9243
		c2.3594,2.3584,5.6162,3.4766,8.9258,3.0566c0.2695-0.0361,0.5234,0.1582,0.5586,0.4336c0.0342,0.2744-0.1602,0.5244-0.4336,0.5586
		C22.7061,13.9648,22.208,13.9961,21.7139,13.9961z"/>
	<path d="M4.0698,20.4375c-0.1279,0-0.2559-0.0488-0.3535-0.1465c-0.1953-0.1953-0.1953-0.5117,0-0.707L19.5908,3.7095
		c0.1953-0.1953,0.5117-0.1953,0.707,0s0.1953,0.5117,0,0.707L4.4233,20.291C4.3257,20.3887,4.1978,20.4375,4.0698,20.4375z"/>
</g>
<rect x="-0.0061" fill="none" width="24" height="24"/>
</svg>
