<?xml version="1.0" encoding="utf-8"?>
<!-- Generator: Adobe Illustrator 18.1.1, SVG Export Plug-In . SVG Version: 6.00 Build 0)  -->
<svg version="1.1" id="Layer_1" xmlns="http://www.w3.org/2000/svg" xmlns:xlink="http://www.w3.org/1999/xlink" x="0px" y="0px"
	 width="24px" height="24px" viewBox="0 0 24 24" enable-background="new 0 0 24 24" xml:space="preserve">
<rect fill="none" width="24" height="24"/>
<g>
	<path d="M8.1538,4.876c0.0201,0.0193,0.0453,0.0281,0.0676,0.0433c0.0295,0.0204,0.0564,0.0441,0.0901,0.0578
		C8.3719,5.0018,8.4359,5.0151,8.5,5.0151s0.1281-0.0134,0.1885-0.038c0.0337-0.0137,0.0605-0.0374,0.0901-0.0578
		c0.0223-0.0153,0.0475-0.024,0.0676-0.0433l1.1987-1.1504c0.1992-0.1914,0.2056-0.5078,0.0146-0.707
		C9.8687,2.8184,9.5508,2.813,9.3525,3.0039L9,3.3423V0.5151c0-0.2764-0.2236-0.5-0.5-0.5S8,0.2388,8,0.5151v2.8271L7.6475,3.0039
		C7.4478,2.813,7.1309,2.8184,6.9404,3.0186c-0.1909,0.1992-0.1846,0.5156,0.0146,0.707L8.1538,4.876z"/>
	<path d="M12.1582,3.9233C12.2539,4.0137,12.377,4.0586,12.5,4.0586s0.2461-0.0449,0.3418-0.1353l1.1982-1.125
		c0.2021-0.1895,0.2119-0.5059,0.0225-0.707c-0.1904-0.2026-0.5068-0.21-0.7061-0.0225L13,2.4036v-1.845
		c0-0.2764-0.2236-0.5-0.5-0.5s-0.5,0.2236-0.5,0.5v1.845l-0.3564-0.3347c-0.2026-0.1895-0.5181-0.1787-0.707,0.0225
		c-0.189,0.2017-0.1787,0.5181,0.0225,0.707L12.1582,3.9233z"/>
	<path d="M16.1533,5.8594c0.0229,0.022,0.0515,0.0327,0.0772,0.0495c0.0267,0.0176,0.0503,0.0392,0.0803,0.0515
		c0.0606,0.0247,0.1246,0.0381,0.1891,0.0381s0.1285-0.0134,0.1891-0.0381c0.03-0.0123,0.0536-0.0339,0.0803-0.0515
		c0.0258-0.0168,0.0543-0.0275,0.0772-0.0495l1.1982-1.1504c0.1992-0.1914,0.2051-0.5078,0.0137-0.707
		c-0.1904-0.2002-0.5059-0.2041-0.707-0.0146L17,4.325V1.4985c0-0.2764-0.2236-0.5-0.5-0.5s-0.5,0.2236-0.5,0.5V4.325
		l-0.3516-0.3376c-0.2002-0.1895-0.5156-0.1855-0.707,0.0146c-0.1914,0.1992-0.1855,0.5156,0.0137,0.707L16.1533,5.8594z"/>
	<path d="M18,14c-0.3658,0-0.7046,0.106-1,0.2783V9c0-1.103-0.8975-2-2-2c-0.3658,0-0.7046,0.106-1,0.2783V7c0-1.103-0.8975-2-2-2
		c-0.8719,0-1.6072,0.564-1.8804,1.3437C9.8,6.1269,9.4146,6,9,6C7.897,6,7,6.897,7,8v6.3025
		c-0.3365-0.468-0.9451-0.6726-1.5352-0.5017c-0.6099,0.1777-1.27,0.7969-1.2944,1.998c-0.0059,0.1807-0.1162,4.4531,2.3057,7.2676
		c0.0029,0.0029,0.2954,0.2656,0.6055,0.6943c0.0977,0.1348,0.2505,0.2061,0.4053,0.2061c0.1016,0,0.2046-0.0312,0.293-0.0957
		c0.2236-0.1621,0.2734-0.4746,0.1113-0.6982c-0.3594-0.4951-0.6997-0.8076-0.7051-0.8076
		c-2.1167-2.4678-2.0176-6.4932-2.0161-6.5391c0.0117-0.5664,0.2261-0.9639,0.5737-1.0645c0.1855-0.0547,0.3691-0.002,0.4443,0.1104
		l0.6045,1.0049c0.1045,0.1738,0.1616,0.373,0.1655,0.5752L7,18.5098c0.0004,0.0168,0.0093,0.0307,0.0115,0.0471
		C7.0409,18.8051,7.2438,19,7.5,19c0.0018,0,0.0033-0.001,0.0051-0.001C7.5069,18.999,7.5085,19,7.5103,19
		c0.0327-0.0007,0.061-0.0139,0.0918-0.0206c0.0328-0.007,0.0673-0.0087,0.0973-0.0218c0.0269-0.0118,0.0474-0.0322,0.0716-0.0483
		c0.0294-0.0196,0.0613-0.0353,0.0859-0.0605c0.0202-0.0207,0.0318-0.0477,0.0482-0.0715c0.0198-0.0289,0.0432-0.0549,0.0567-0.0878
		c0.0128-0.0308,0.0137-0.0659,0.0201-0.0994C7.9876,18.5598,8,18.532,8,18.5V8c0-0.5513,0.4487-1,1-1s1,0.4487,1,1v6.5
		c0,0.2764,0.2236,0.5,0.5,0.5s0.5-0.2236,0.5-0.5V8V7c0-0.5513,0.4487-1,1-1c0.5518,0,1,0.4487,1,1v2v6.5
		c0,0.2764,0.2236,0.5,0.5,0.5s0.5-0.2236,0.5-0.5V9c0-0.5513,0.4482-1,1-1s1,0.4487,1,1v7v0.5c0,0.2764,0.2236,0.5,0.5,0.5
		s0.5-0.2236,0.5-0.5V16c0-0.5518,0.4482-1,1-1c0.6006,0,0.6904,0.6562,0.6934,0.9941c-0.0029,0.0264-0.2949,2.6387-1.29,4.5928
		c-0.4473,0.877-0.7881,1.7783-1.042,2.7539c-0.0693,0.2676,0.0918,0.54,0.3584,0.6104c0.042,0.0107,0.085,0.0156,0.126,0.0156
		c0.2227,0,0.4258-0.1494,0.4844-0.374c0.2354-0.9053,0.5508-1.7402,0.9639-2.5527c1.0801-2.1211,1.3809-4.8242,1.3965-4.9922
		C19.6904,14.8037,19.0273,14,18,14z"/>
</g>
</svg>
