<?xml version="1.0" encoding="utf-8"?>
<!-- Generator: Adobe Illustrator 18.1.0, SVG Export Plug-In . SVG Version: 6.00 Build 0)  -->
<svg version="1.1" id="Layer_1" xmlns="http://www.w3.org/2000/svg" xmlns:xlink="http://www.w3.org/1999/xlink" x="0px" y="0px"
	 width="24px" height="24px" viewBox="0 0 24 24" enable-background="new 0 0 24 24" xml:space="preserve">
<g>
	<path d="M23.5146,23.9414c-0.2764,0-0.5-0.2236-0.5-0.5v-1.9023c0-0.2764,0.2236-0.5,0.5-0.5s0.5,0.2236,0.5,0.5v1.9023
		C24.0146,23.7178,23.791,23.9414,23.5146,23.9414z"/>
	<path d="M0.5127,23.9414c-0.2764,0-0.5-0.2236-0.5-0.5v-1.9023c0-0.2764,0.2236-0.5,0.5-0.5s0.5,0.2236,0.5,0.5v1.9023
		C1.0127,23.7178,0.7891,23.9414,0.5127,23.9414z"/>
	<path d="M23.5146,22.0352H0.5142c-0.2764,0-0.5-0.2236-0.5-0.5v-5c0-0.2764,0.2236-0.5,0.5-0.5h23.0005
		c0.2764,0,0.5,0.2236,0.5,0.5v5C24.0146,21.8115,23.791,22.0352,23.5146,22.0352z M1.0142,21.0352h22.0005v-4H1.0142V21.0352z"/>
	<path d="M2.5142,13.8779c-0.2764,0-0.5-0.2236-0.5-0.5V4.5352c0-0.2764,0.2236-0.5,0.5-0.5h19.0005c0.2764,0,0.5,0.2236,0.5,0.5
		v8.834c0,0.2764-0.2236,0.5-0.5,0.5s-0.5-0.2236-0.5-0.5v-8.334H3.0142v8.3428C3.0142,13.6543,2.7905,13.8779,2.5142,13.8779z"/>
	<path d="M18.5146,13.0352c-0.2764,0-0.5-0.2236-0.5-0.5v-2.917c0-0.1377-0.0645-0.269-0.1719-0.3506
		c-0.0537-0.041-0.166-0.105-0.3135-0.064c-0.9775,0.27-2.0225,0.2593-3.1064-0.0352c-0.1064-0.0288-0.1885-0.0161-0.2578,0.0371
		c-0.0938,0.0723-0.1504,0.2109-0.1504,0.3706v2.959c0,0.2764-0.2236,0.5-0.5,0.5s-0.5-0.2236-0.5-0.5v-2.959
		c0-0.4761,0.1982-0.9009,0.543-1.165c0.3193-0.2451,0.7227-0.3174,1.127-0.2075c0.9082,0.2466,1.7754,0.2593,2.5791,0.0361
		c0.4072-0.1143,0.8428-0.0298,1.1846,0.2319c0.3545,0.27,0.5664,0.6982,0.5664,1.1465v2.917
		C19.0146,12.8115,18.791,13.0352,18.5146,13.0352z"/>
	<path d="M10.5137,13.0352c-0.2764,0-0.5-0.2236-0.5-0.5v-2.917c0-0.1377-0.064-0.2686-0.1714-0.3506
		c-0.0547-0.0415-0.1685-0.105-0.3135-0.0635c-0.978,0.271-2.0234,0.2593-3.1064-0.0356c-0.103-0.0278-0.1875-0.0161-0.2578,0.0371
		C6.0698,9.2778,6.0137,9.4165,6.0137,9.5762v2.959c0,0.2764-0.2236,0.5-0.5,0.5s-0.5-0.2236-0.5-0.5v-2.959
		c0-0.4761,0.1982-0.9009,0.5435-1.1646c0.3198-0.2441,0.7202-0.3179,1.127-0.208c0.9082,0.2456,1.7754,0.2578,2.5791,0.0366
		c0.4067-0.1138,0.8418-0.0293,1.1846,0.2319c0.3545,0.2695,0.5659,0.6982,0.5659,1.146v2.917
		C11.0137,12.8115,10.79,13.0352,10.5137,13.0352z"/>
	<path d="M23.5176,17.0352H0.5259c-0.2764,0-0.5-0.2236-0.5-0.5v-0.1416c0-2.3623,2.5957-4.3584,5.6685-4.3584h12.6543
		c3.0732,0,5.6689,1.9961,5.6689,4.3584v0.1416C24.0176,16.8115,23.7939,17.0352,23.5176,17.0352z M1.0537,16.0352h21.9365
		c-0.2588-1.6592-2.2793-3-4.6416-3H5.6943C3.332,13.0352,1.3115,14.376,1.0537,16.0352z"/>
</g>
<rect x="0.0142" y="0.0354" fill="none" width="24" height="24"/>
</svg>
