<?xml version="1.0" encoding="utf-8"?>
<!-- Generator: Adobe Illustrator 18.1.1, SVG Export Plug-In . SVG Version: 6.00 Build 0)  -->
<svg version="1.1" id="Layer_1" xmlns="http://www.w3.org/2000/svg" xmlns:xlink="http://www.w3.org/1999/xlink" x="0px" y="0px"
	 width="24px" height="24px" viewBox="0 0 24 24" enable-background="new 0 0 24 24" xml:space="preserve">
<rect fill="none" width="24" height="24"/>
<path d="M20.584,19.7588c-0.542-1.2305-0.8174-3.3281-0.6836-5.2188c0.125-1.7793-0.0527-3.5649-0.5283-5.3047
	c-0.1982-0.7344-0.9551-1.1875-1.7607-1.0259c-0.3125,0.063-0.5889,0.2188-0.7969,0.4453L16.625,8.0942
	c-0.2422-0.7212-1.0225-1.1323-1.8184-0.9248c-0.3203,0.0835-0.5947,0.2642-0.791,0.5171L11.7305,1.332
	c-0.2412-0.7212-1.0317-1.1328-1.8369-0.9199C9.498,0.5151,9.1704,0.7622,8.9717,1.1084c-0.083,0.144-0.1387,0.2979-0.166,0.458
	C8.6074,1.5396,8.3989,1.5518,8.188,1.6074C7.8008,1.708,7.48,1.9507,7.2837,2.2915C7.0938,2.6211,7.0449,3.0039,7.1465,3.3701
	l1.6216,5.7524c0.2998,1.1357,0.4995,2.688,0.2207,3.77L5.9966,10.5c-1.2617-0.834-1.9087-0.6274-2.543-0.0234
	c-0.0635,0.0605-0.1099,0.1362-0.1348,0.2202c-0.1709,0.5762,0.4351,1.6401,1.7866,3.144c0.4556,0.5547,0.7578,1.0762,1.0498,1.5811
	c0.6045,1.042,1.1748,2.0273,2.8574,2.8779c2.5669,1.2969,4.3145,5.2021,4.332,5.2422c0.082,0.1865,0.2656,0.2979,0.457,0.2979
	c0.0674,0,0.1357-0.0137,0.2021-0.043c0.252-0.1113,0.3672-0.4062,0.2559-0.6582c-0.0771-0.1738-1.9072-4.2715-4.7959-5.7314
	c-1.4175-0.7168-1.8701-1.498-2.4429-2.4873c-0.2983-0.5137-0.6357-1.0967-1.1572-1.7305c-0.752-0.8379-1.4321-1.7925-1.564-2.1299
	c0.2266-0.1802,0.4429-0.1899,1.1084,0.248l3.4854,2.7891c0.1143,0.0918,0.2627,0.1309,0.4092,0.0996
	c0.1445-0.0283,0.269-0.1191,0.3408-0.248c0.9004-1.624,0.2974-4.2993,0.0894-5.0889l-1.623-5.7593
	c-0.0293-0.104-0.0146-0.2139,0.04-0.3096C8.2114,2.6841,8.314,2.6079,8.4844,2.563c0.248-0.0635,0.498,0.062,0.5728,0.2871
	l2.8545,8.5083c0.061,0.1816,0.2212,0.3125,0.4106,0.3369l0.1035,0.0132c0.1758,0.019,0.3438-0.0474,0.4512-0.1807
	c0.1094-0.1343,0.1416-0.3154,0.085-0.479L9.7979,1.9097C9.7617,1.7803,9.8003,1.6738,9.8384,1.6069
	c0.0645-0.1118,0.1733-0.1924,0.353-0.2393c0.252-0.0684,0.5171,0.0605,0.5942,0.292l3.6021,10.019
	c0.0635,0.1768,0.3154,0.3149,0.502,0.3389c0.1582,0.0244,0.3291-0.04,0.4385-0.165c0.1094-0.1245,0.1504-0.2954,0.1094-0.4561
	l-0.709-2.7329c-0.0283-0.105-0.0137-0.2148,0.041-0.311c0.0615-0.106,0.1641-0.1826,0.334-0.2271
	c0.2432-0.064,0.4971,0.061,0.5732,0.2881l1.1924,3.5186c0.084,0.2476,0.3467,0.3882,0.6025,0.3228
	c0.2539-0.0684,0.4121-0.3213,0.3613-0.5796l-0.3867-1.9775c-0.0234-0.105-0.002-0.2139,0.0586-0.3066
	c0.0674-0.104,0.1758-0.1753,0.3486-0.2104c0.2422-0.0483,0.4922,0.0874,0.5537,0.3169c0.4463,1.6323,0.6133,3.3052,0.4951,4.9722
	c-0.1455,2.0703,0.1553,4.3047,0.7656,5.6914c0.1123,0.2539,0.4082,0.3672,0.6592,0.2568
	C20.5801,20.3066,20.6953,20.0107,20.584,19.7588z"/>
</svg>
