<?xml version="1.0" encoding="utf-8"?>
<!-- Generator: Adobe Illustrator 18.1.0, SVG Export Plug-In . SVG Version: 6.00 Build 0)  -->
<svg version="1.1" id="Layer_1" xmlns="http://www.w3.org/2000/svg" xmlns:xlink="http://www.w3.org/1999/xlink" x="0px" y="0px"
	 width="24px" height="24px" viewBox="0 0 24 24" enable-background="new 0 0 24 24" xml:space="preserve">
<g>
	<path d="M19.7646,8.6499c-0.1279,0-0.2559-0.0488-0.3535-0.1465c-0.1953-0.1953-0.1953-0.5117,0-0.707L21.75,5.458l-2.3389-2.3384
		c-0.1953-0.1953-0.1953-0.5117,0-0.707s0.5117-0.1953,0.707,0l2.6924,2.6919c0.0938,0.0938,0.1465,0.2207,0.1465,0.3535
		s-0.0527,0.2598-0.1465,0.3535l-2.6924,2.6919C20.0205,8.6011,19.8926,8.6499,19.7646,8.6499z"/>
	<path d="M6.123,18.001H1.5254c-0.2764,0-0.5-0.2236-0.5-0.5s0.2236-0.5,0.5-0.5H6.123c2.8457,0,5.1606-2.3154,5.1606-5.1606
		v-0.3506c0-3.4795,2.8784-6.5317,6.1606-6.5317h5.0127c0.2764,0,0.5,0.2236,0.5,0.5s-0.2236,0.5-0.5,0.5h-5.0127
		c-2.749,0-5.1611,2.585-5.1611,5.5317v0.3506C12.2832,15.2373,9.52,18.001,6.123,18.001z"/>
	<path d="M19.7646,20.6924c-0.1279,0-0.2559-0.0488-0.3535-0.1465c-0.1953-0.1953-0.1953-0.5117,0-0.707L21.75,17.501
		l-2.3389-2.3389c-0.1953-0.1953-0.1953-0.5117,0-0.707s0.5117-0.1953,0.707,0l2.6924,2.6924
		c0.0938,0.0938,0.1465,0.2207,0.1465,0.3535s-0.0527,0.2598-0.1465,0.3535l-2.6924,2.6914
		C20.0205,20.6436,19.8926,20.6924,19.7646,20.6924z"/>
	<path d="M22.457,18.001h-5.0127c-1.4893,0-2.9297-0.5439-4.0547-1.5303c-0.207-0.1826-0.2275-0.498-0.0459-0.7061
		c0.1816-0.207,0.4971-0.2275,0.7061-0.0459c0.9424,0.8271,2.1475,1.2822,3.3945,1.2822h5.0127c0.2764,0,0.5,0.2236,0.5,0.5
		S22.7334,18.001,22.457,18.001z"/>
	<path d="M9.8481,7.3638c-0.1172,0-0.2349-0.041-0.3296-0.124C8.5757,6.4131,7.3696,5.958,6.123,5.958H1.5254
		c-0.2764,0-0.5-0.2236-0.5-0.5s0.2236-0.5,0.5-0.5H6.123c1.4893,0,2.9292,0.5435,4.0547,1.5298
		c0.2075,0.1821,0.2285,0.498,0.0464,0.7056C10.1255,7.3062,9.9868,7.3638,9.8481,7.3638z"/>
</g>
<rect y="0.001" fill="none" width="24" height="24"/>
</svg>
