<?xml version="1.0" encoding="utf-8"?>
<!-- Generator: Adobe Illustrator 18.1.0, SVG Export Plug-In . SVG Version: 6.00 Build 0)  -->
<svg version="1.1" id="Layer_1" xmlns="http://www.w3.org/2000/svg" xmlns:xlink="http://www.w3.org/1999/xlink" x="0px" y="0px"
	 width="24px" height="24px" viewBox="0 0 24 24" enable-background="new 0 0 24 24" xml:space="preserve">
<g>
	<path d="M22.5166,23.9746H1.4272c-0.7974,0-1.4458-0.6504-1.4458-1.4502V3.4653c0-0.7998,0.6484-1.4507,1.4458-1.4507h3.5674
		c0.1997,0,0.7891,0,1.7578,2.04h15.7642c0.7969,0,1.4453,0.6509,1.4453,1.4507v17.019
		C23.9619,23.3242,23.3135,23.9746,22.5166,23.9746z M1.4272,3.0146c-0.2456,0-0.4458,0.2021-0.4458,0.4507v19.0591
		c0,0.248,0.2002,0.4502,0.4458,0.4502h21.0894c0.2451,0,0.4453-0.2021,0.4453-0.4502V5.5054c0-0.2485-0.2002-0.4507-0.4453-0.4507
		H6.4326c-0.1968,0-0.3755-0.1157-0.4561-0.2949C5.6221,3.9722,5.145,3.1846,4.9243,3.0146H1.4272z"/>
	<path d="M23.4619,9.0254H0.4814c-0.2764,0-0.5-0.2236-0.5-0.5s0.2236-0.5,0.5-0.5h22.9805c0.2764,0,0.5,0.2236,0.5,0.5
		S23.7383,9.0254,23.4619,9.0254z"/>
	<path d="M16.3242,19.0371c-1.3623,0-2.6113-0.79-3.21-1.9971h-1.7734c-0.1367,0-0.2676-0.0557-0.3618-0.1553l-0.8765-0.9199
		l-1.4326,1.0811c-0.1719,0.1279-0.4038,0.1348-0.5806,0.0156l-1.21-0.8145l-1.0903,0.6318
		c-0.1904,0.1094-0.4302,0.083-0.5913-0.0664l-1.3042-1.2119c-0.1519-0.1416-0.2012-0.3613-0.123-0.5537l0.4375-1.0801
		c0.0762-0.1895,0.2598-0.3125,0.4634-0.3125h8.5552c0.6377-1.0947,1.8203-1.7861,3.0977-1.7861c1.9766,0,3.584,1.6084,3.584,3.585
		S18.3008,19.0371,16.3242,19.0371z M11.5552,16.04h1.8862c0.208,0,0.3945,0.1289,0.4678,0.3232
		c0.377,1.001,1.3477,1.6738,2.415,1.6738c1.4248,0,2.584-1.1592,2.584-2.584c0-1.4258-1.1592-2.585-2.584-2.585
		c-0.999,0-1.9189,0.5879-2.3418,1.4971c-0.082,0.1768-0.2588,0.2891-0.4531,0.2891h-8.521l-0.1816,0.4482l0.7808,0.7256
		l1.0405-0.6035c0.1665-0.0947,0.3706-0.0898,0.5303,0.0176l1.1738,0.79l1.5039-1.1338c0.2017-0.1523,0.4863-0.1299,0.6631,0.0547
		L11.5552,16.04z"/>
	<path d="M16.9102,16.6797c-0.6768,0-1.2266-0.5498-1.2266-1.2266s0.5498-1.2266,1.2266-1.2266
		c0.6758,0,1.2256,0.5498,1.2256,1.2266S17.5859,16.6797,16.9102,16.6797z M16.9102,15.2266c-0.125,0-0.2266,0.1016-0.2266,0.2266
		c0.001,0.249,0.4521,0.251,0.4521,0C17.1357,15.3281,17.0342,15.2266,16.9102,15.2266z"/>
</g>
<rect y="0.0001" fill="none" width="24" height="24"/>
</svg>
