<?xml version="1.0" encoding="utf-8"?>
<!-- Generator: Adobe Illustrator 18.1.0, SVG Export Plug-In . SVG Version: 6.00 Build 0)  -->
<svg version="1.1" id="Layer_1" xmlns="http://www.w3.org/2000/svg" xmlns:xlink="http://www.w3.org/1999/xlink" x="0px" y="0px"
	 width="24px" height="24px" viewBox="0 0 24 24" enable-background="new 0 0 24 24" xml:space="preserve">
<g>
	<path d="M20.623,7.5654c-0.001,0-0.001,0-0.001,0c-0.4922-0.001-2.1514-2.0063-2.1602-2.0269
		c-0.0771-0.186-0.0361-0.4082,0.1055-0.5518l1.2646-1.2812c0.1123-0.1157,0.2607-0.1953,0.416-0.2222
		c0.2061-0.0356,0.4365,0.0391,0.5732,0.1821l1.4707,1.4902c0.1426,0.1426,0.2061,0.3481,0.1699,0.562
		c-0.0225,0.1479-0.0996,0.2979-0.2168,0.416l-1.2637,1.2817C20.8867,7.5107,20.7568,7.5654,20.623,7.5654z M19.5986,5.3652
		c0.2764,0.2944,0.7061,0.731,1,1.0142l0.748-0.7583l-1-1.0132L19.5986,5.3652z"/>
	<path d="M11.5869,15.0625c-0.1255,0-0.2515-0.0469-0.3486-0.1416c-0.1978-0.1924-0.2021-0.5088-0.0098-0.707l4.8867-5.0264
		c0.1934-0.1982,0.5098-0.2017,0.707-0.0098c0.1982,0.1924,0.2021,0.5088,0.0098,0.707l-4.8867,5.0264
		C11.8472,15.0117,11.7173,15.0625,11.5869,15.0625z"/>
	<path d="M12.042,23.8682c-5.2788,0-9.5732-4.3496-9.5732-9.6963c0-5.3462,4.2944-9.6953,9.5732-9.6953
		c5.2793,0,9.5742,4.3491,9.5742,9.6953C21.6162,19.5186,17.3213,23.8682,12.042,23.8682z M12.042,5.4766
		c-4.7275,0-8.5732,3.9009-8.5732,8.6953c0,4.7949,3.8457,8.6963,8.5732,8.6963s8.5742-3.9014,8.5742-8.6963
		C20.6162,9.3774,16.7695,5.4766,12.042,5.4766z"/>
	<path d="M13.5,5.5947c-0.2764,0-0.5-0.2236-0.5-0.5V3.5C13,3.2236,13.2236,3,13.5,3H14V1h-4v2h0.5C10.7764,3,11,3.2236,11,3.5
		v1.5947c0,0.2764-0.2236,0.5-0.5,0.5s-0.5-0.2236-0.5-0.5V4H9.5C9.2236,4,9,3.7764,9,3.5V1c0-0.5513,0.4487-1,1-1h4
		c0.5518,0,1,0.4487,1,1v2.5C15,3.7764,14.7764,4,14.5,4H14v1.0947C14,5.3711,13.7764,5.5947,13.5,5.5947z"/>
</g>
<rect fill="none" width="24" height="24"/>
</svg>
