<?xml version="1.0" encoding="utf-8"?>
<!-- Generator: Adobe Illustrator 18.1.0, SVG Export Plug-In . SVG Version: 6.00 Build 0)  -->
<svg version="1.1" id="Layer_1" xmlns="http://www.w3.org/2000/svg" xmlns:xlink="http://www.w3.org/1999/xlink" x="0px" y="0px"
	 width="24px" height="24px" viewBox="0 0 24 24" enable-background="new 0 0 24 24" xml:space="preserve">
<g>
	<path d="M18.4834,5H5.5742c-0.2764,0-0.5-0.2236-0.5-0.5S5.2979,4,5.5742,4h12.9092c0.2764,0,0.5,0.2236,0.5,0.5
		S18.7598,5,18.4834,5z"/>
	<path d="M18.4834,11H5.5742c-0.2764,0-0.5-0.2236-0.5-0.5s0.2236-0.5,0.5-0.5h12.9092c0.2764,0,0.5,0.2236,0.5,0.5
		S18.7598,11,18.4834,11z"/>
	<path d="M11.4512,7h-5.877c-0.2764,0-0.5-0.2236-0.5-0.5S5.2979,6,5.5742,6h5.877c0.2764,0,0.5,0.2236,0.5,0.5S11.7275,7,11.4512,7
		z"/>
	<path d="M11.4512,13h-5.877c-0.2764,0-0.5-0.2236-0.5-0.5s0.2236-0.5,0.5-0.5h5.877c0.2764,0,0.5,0.2236,0.5,0.5
		S11.7275,13,11.4512,13z"/>
	<path d="M16.3037,24h-8.604c-0.5088,0-0.9385-0.4092-0.9385-0.8936c0-0.0791,0.019-0.1582,0.0552-0.2285l0.1963-0.3955
		C7.5527,21.377,8.2246,20,10.1802,20h3.6431c2.001,0,2.6523,1.3965,3.1768,2.5186l0.1904,0.4014
		c0.0342,0.0684,0.0518,0.1436,0.0518,0.2207C17.2422,23.6143,16.8213,24,16.3037,24z M7.8721,23h8.25l-0.0283-0.0586
		C15.6074,21.8994,15.1875,21,13.8232,21h-3.6431c-1.3311,0-1.7656,0.8906-2.269,1.9209L7.8721,23z"/>
	<path d="M21.8965,17H2.106c-1.2188,0-2.103-0.8525-2.103-2.0273V2.1831C0.0029,0.9795,0.9463,0,2.106,0h19.7905
		c1.1611,0,2.1064,0.9795,2.1064,2.1831v12.7896C24.0029,16.1475,23.1172,17,21.8965,17z M2.106,1
		c-0.6084,0-1.103,0.5308-1.103,1.1831v12.7896C1.0029,15.5869,1.4463,16,2.106,16h19.7905c0.6621,0,1.1064-0.4131,1.1064-1.0273
		V2.1831C23.0029,1.5308,22.5068,1,21.8965,1H2.106z"/>
	<path d="M12.0029,21c-0.2764,0-0.5-0.2236-0.5-0.5v-2c0-0.2764,0.2236-0.5,0.5-0.5s0.5,0.2236,0.5,0.5v2
		C12.5029,20.7764,12.2793,21,12.0029,21z"/>
</g>
<rect fill="none" width="24" height="24"/>
</svg>
