<?xml version="1.0" encoding="utf-8"?>
<!-- Generator: Adobe Illustrator 18.1.0, SVG Export Plug-In . SVG Version: 6.00 Build 0)  -->
<svg version="1.1" id="Layer_1" xmlns="http://www.w3.org/2000/svg" xmlns:xlink="http://www.w3.org/1999/xlink" x="0px" y="0px"
	 width="24px" height="24px" viewBox="0 0 24 24" enable-background="new 0 0 24 24" xml:space="preserve">
<g>
	<path d="M13.5029,15h-3c-0.2764,0-0.5-0.2236-0.5-0.5v-5c0-0.2764,0.2236-0.5,0.5-0.5h3c0.2764,0,0.5,0.2236,0.5,0.5v5
		C14.0029,14.7764,13.7793,15,13.5029,15z M11.0029,14h2v-4h-2V14z"/>
	<path d="M12.7285,16.4912h-1.4507c-0.2764,0-0.5-0.2236-0.5-0.5V14.5c0-0.2764,0.2236-0.5,0.5-0.5h1.4507
		c0.2764,0,0.5,0.2236,0.5,0.5v1.4912C13.2285,16.2676,13.0049,16.4912,12.7285,16.4912z M11.7778,15.4912h0.4507V15h-0.4507
		V15.4912z"/>
	<path d="M12.0234,8.3506c-0.9775,0-1.7725-0.7949-1.7725-1.7715c0-0.9771,0.7949-1.772,1.7725-1.772
		c0.9766,0,1.7715,0.7949,1.7715,1.772C13.7949,7.5557,13,8.3506,12.0234,8.3506z M12.0234,5.8071
		c-0.4258,0-0.7725,0.3462-0.7725,0.772c0,0.4253,0.3467,0.7715,0.7725,0.7715s0.7715-0.3462,0.7715-0.7715
		C12.7949,6.1533,12.4492,5.8071,12.0234,5.8071z"/>
	<path d="M17.1807,10H6.8652c-1.5781,0-2.8623-1.2637-2.8623-2.8174V0.5635c0-0.2764,0.2236-0.5,0.5-0.5s0.5,0.2236,0.5,0.5v6.6191
		C5.0029,8.1846,5.8384,9,6.8652,9h10.3154c1.0215,0,1.8223-0.7983,1.8223-1.8174V0.5635c0-0.2764,0.2236-0.5,0.5-0.5
		s0.5,0.2236,0.5,0.5v6.6191C20.0029,8.7363,18.7373,10,17.1807,10z"/>
	<path d="M19.5029,4h-15c-0.2764,0-0.5-0.2236-0.5-0.5S4.2266,3,4.5029,3h15c0.2764,0,0.5,0.2236,0.5,0.5S19.7793,4,19.5029,4z"/>
	<path d="M12.0029,23.9434c-0.2764,0-0.5-0.2236-0.5-0.5v-7.4521c0-0.2764,0.2236-0.5,0.5-0.5s0.5,0.2236,0.5,0.5v7.4521
		C12.5029,23.7197,12.2793,23.9434,12.0029,23.9434z"/>
</g>
<rect fill="none" width="24" height="24"/>
</svg>
