<?xml version="1.0" encoding="utf-8"?>
<!-- Generator: Adobe Illustrator 18.1.0, SVG Export Plug-In . SVG Version: 6.00 Build 0)  -->
<svg version="1.1" id="Layer_1" xmlns="http://www.w3.org/2000/svg" xmlns:xlink="http://www.w3.org/1999/xlink" x="0px" y="0px"
	 width="24px" height="24px" viewBox="0 0 24 24" enable-background="new 0 0 24 24" xml:space="preserve">
<g>
	<path d="M11.9648,14.4531c-2.9712,0-5.3882-2.417-5.3882-5.3887c0-2.9712,2.417-5.3887,5.3882-5.3887
		c2.9717,0,5.3887,2.4175,5.3887,5.3887C17.3535,12.0361,14.9365,14.4531,11.9648,14.4531z M11.9648,4.6758
		c-2.4194,0-4.3882,1.9688-4.3882,4.3887s1.9688,4.3887,4.3882,4.3887c2.4199,0,4.3887-1.9688,4.3887-4.3887
		S14.3848,4.6758,11.9648,4.6758z"/>
	<path d="M11.9912,14.4531c-0.2764,0-0.5-0.2236-0.5-0.5s0.2236-0.5,0.5-0.5c0.9199,0,1.9443-1.8027,1.9443-4.3892
		c0-2.5859-1.0244-4.3882-1.9443-4.3882c-0.2764,0-0.5-0.2236-0.5-0.5s0.2236-0.5,0.5-0.5c1.6514,0,2.9443,2.3667,2.9443,5.3882
		C14.9355,12.0859,13.6426,14.4531,11.9912,14.4531z"/>
	<path d="M11.9507,14.4531c-1.6509,0-2.9443-2.3672-2.9443-5.3892c0-3.0215,1.2935-5.3882,2.9443-5.3882
		c0.2759,0,0.5005,0.2236,0.5005,0.5s-0.2246,0.5-0.5005,0.5c-0.9194,0-1.9443,1.8022-1.9443,4.3882
		c0,2.5864,1.0249,4.3892,1.9443,4.3892c0.2759,0,0.5005,0.2236,0.5005,0.5S12.2266,14.4531,11.9507,14.4531z"/>
	<path d="M11.9648,14.4531c-0.2764,0-0.5-0.2236-0.5-0.5V4.1758c0-0.2764,0.2236-0.5,0.5-0.5s0.5,0.2236,0.5,0.5v9.7773
		C12.4648,14.2295,12.2412,14.4531,11.9648,14.4531z"/>
	<path d="M16.8535,9.5645H7.0762c-0.2764,0-0.5-0.2236-0.5-0.5s0.2236-0.5,0.5-0.5h9.7773c0.2764,0,0.5,0.2236,0.5,0.5
		S17.1299,9.5645,16.8535,9.5645z"/>
	<path d="M16.2793,7.3184H7.6226c-0.2764,0-0.5-0.2236-0.5-0.5s0.2236-0.5,0.5-0.5h8.6567c0.2764,0,0.5,0.2236,0.5,0.5
		S16.5557,7.3184,16.2793,7.3184z"/>
	<path d="M16.2793,11.8423H7.7031c-0.2764,0-0.5-0.2236-0.5-0.5s0.2236-0.5,0.5-0.5h8.5762c0.2764,0,0.5,0.2236,0.5,0.5
		S16.5557,11.8423,16.2793,11.8423z"/>
	<path d="M18.7539,24H3.4863c-0.2764,0-0.5-0.2236-0.5-0.5v-23c0-0.2764,0.2236-0.5,0.5-0.5h15.2686
		c1.1885,0,2.2314,1.0156,2.2314,2.1733v19.6528C20.9863,22.9844,19.9434,24,18.7539,24z M3.9863,23h14.7676
		c0.6445,0,1.2324-0.5596,1.2324-1.1738V2.1733C19.9863,1.5703,19.3877,1,18.7549,1H3.9863V23z"/>
	<path d="M13.5479,20.835c-0.3994,0-0.9053-0.1895-1.2578-0.4717c-0.2158-0.1729-0.25-0.4873-0.0781-0.7031
		c0.1738-0.2158,0.4873-0.248,0.7031-0.0781c0.1885,0.1514,0.4795,0.2529,0.6328,0.2529c0.2021,0,0.3311-0.1094,0.334-0.168l0,0
		c-0.0088,0-0.0947-0.0889-0.4639-0.1885c-0.3359-0.0957-1.2041-0.3457-1.2041-1.1514c0-0.6455,0.5986-1.1699,1.334-1.1699
		c0.4639,0,0.8867,0.2051,1.1318,0.5479c0.1602,0.2246,0.1084,0.5371-0.1172,0.6973c-0.2236,0.1592-0.5361,0.1074-0.6973-0.1172
		c-0.0449-0.0635-0.1611-0.1279-0.3174-0.1279c-0.2041,0-0.334,0.1113-0.334,0.1699c-0.002,0,0.042,0.0645,0.4727,0.1885
		c0.79,0.2129,1.1953,0.6006,1.1953,1.1494C14.8818,20.3105,14.2832,20.835,13.5479,20.835z"/>
	<path d="M16.5059,20.835c-0.4004,0-0.9062-0.1895-1.2588-0.4717c-0.2158-0.1729-0.25-0.4873-0.0781-0.7031
		c0.1738-0.2158,0.4873-0.248,0.7031-0.0781c0.1885,0.1514,0.4805,0.2529,0.6338,0.2529c0.2021,0,0.3311-0.1094,0.334-0.168
		c-0.002,0.001-0.0498-0.0762-0.4639-0.1885c-0.3359-0.0957-1.2051-0.3467-1.2051-1.1514c0-0.6455,0.5986-1.1699,1.335-1.1699
		c0.4629,0,0.8857,0.2051,1.1309,0.5479c0.1602,0.2246,0.1084,0.5371-0.1172,0.6973c-0.2236,0.1592-0.5371,0.1074-0.6973-0.1172
		c-0.0449-0.0635-0.1611-0.1279-0.3164-0.1279c-0.2041,0-0.335,0.1113-0.335,0.1699c-0.001,0,0.043,0.0645,0.4736,0.1885
		c0.79,0.2129,1.1953,0.6006,1.1953,1.1494C17.8398,20.3105,17.2412,20.835,16.5059,20.835z"/>
	<g>
		<path d="M9.1226,20.8486c-0.0669,0-0.1353-0.0137-0.2007-0.042c-0.2529-0.1113-0.3677-0.4062-0.2563-0.6592l1.1802-2.6846
			c0.0796-0.1816,0.2593-0.2988,0.4575-0.2988l0,0c0.1982,0,0.3779,0.1172,0.4575,0.2988l1.1797,2.6846
			c0.1113,0.2529-0.0034,0.5479-0.2563,0.6592c-0.2539,0.1094-0.5483-0.0039-0.6587-0.2568l-0.7222-1.6436l-0.7227,1.6436
			C9.4985,20.7373,9.3149,20.8486,9.1226,20.8486z"/>
		<path d="M11.1104,20H9.4956c-0.2764,0-0.5-0.2236-0.5-0.5s0.2236-0.5,0.5-0.5h1.6147c0.2764,0,0.5,0.2236,0.5,0.5
			S11.3867,20,11.1104,20z"/>
	</g>
	<path d="M6.644,20.8486c-0.2764,0-0.5-0.2236-0.5-0.5v-1.2295c0-0.001,0-0.001,0-0.002v-1.4531c0-0.2764,0.2236-0.5,0.5-0.5h1.0073
		c0.5068-0.0244,0.9551,0.1934,1.1948,0.584c0.2227,0.3623,0.23,0.8223,0.0205,1.2021c-0.2319,0.4189-0.6733,0.6611-1.2109,0.666
		l-0.5117,0.001v0.7314C7.144,20.625,6.9204,20.8486,6.644,20.8486z M7.144,18.1641v0.4531l0.5063-0.001
		c0.166-0.001,0.2881-0.0547,0.3413-0.1504c0.0352-0.0635,0.0361-0.1396,0.0024-0.1943c-0.0464-0.0742-0.168-0.126-0.3247-0.1074
		H7.144z"/>
</g>
<rect x="-0.0136" fill="none" width="24" height="24"/>
</svg>
