<?xml version="1.0" encoding="utf-8"?>
<!-- Generator: Adobe Illustrator 18.1.0, SVG Export Plug-In . SVG Version: 6.00 Build 0)  -->
<svg version="1.1" id="Layer_1" xmlns="http://www.w3.org/2000/svg" xmlns:xlink="http://www.w3.org/1999/xlink" x="0px" y="0px"
	 width="24px" height="24px" viewBox="0 0 24 24" enable-background="new 0 0 24 24" xml:space="preserve">
<g>
	<path d="M18.3428,8.8594c-1.8193,0-3.2998-1.4937-3.2998-3.3291s1.4805-3.3291,3.2998-3.3291c1.8203,0,3.3008,1.4937,3.3008,3.3291
		S20.1631,8.8594,18.3428,8.8594z M18.3428,3.2012c-1.2686,0-2.2998,1.0449-2.2998,2.3291s1.0312,2.3291,2.2998,2.3291
		s2.3008-1.0449,2.3008-2.3291S19.6113,3.2012,18.3428,3.2012z"/>
	<path d="M18.3428,11.001H5.6055c-3.0127,0-5.4639-2.4673-5.4639-5.5c0.0005-3.0327,2.4517-5.5,5.4639-5.5h12.7373
		c3.0127,0,5.4639,2.4673,5.4639,5.5S21.3555,11.001,18.3428,11.001z M5.6055,1.001c-2.4609,0-4.4634,2.0186-4.4639,4.5
		c0,2.4814,2.0024,4.5,4.4639,4.5h12.7373c2.4609,0,4.4639-2.0186,4.4639-4.5s-2.0029-4.5-4.4639-4.5H5.6055z"/>
	<path d="M5.6055,21.8018c-1.8198,0-3.3008-1.4932-3.3008-3.3291s1.481-3.3291,3.3008-3.3291s3.3008,1.4932,3.3008,3.3291
		S7.4253,21.8018,5.6055,21.8018z M5.6055,16.1436c-1.2686,0-2.3008,1.0449-2.3008,2.3291s1.0322,2.3291,2.3008,2.3291
		s2.3008-1.0449,2.3008-2.3291S6.874,16.1436,5.6055,16.1436z"/>
	<path d="M18.3428,24.002H5.6055c-3.0127,0-5.4639-2.4678-5.4639-5.5s2.4512-5.5,5.4639-5.5h12.7373
		c3.0127,0,5.4639,2.4678,5.4639,5.5S21.3555,24.002,18.3428,24.002z M5.6055,14.002c-2.4614,0-4.4639,2.0186-4.4639,4.5
		s2.0024,4.5,4.4639,4.5h12.7373c2.4609,0,4.4639-2.0186,4.4639-4.5s-2.0029-4.5-4.4639-4.5H5.6055z"/>
	<path d="M18.6055,20.3887c-0.2764,0-0.5-0.2236-0.5-0.5v-2.7744c0-0.2764,0.2236-0.5,0.5-0.5h1.7949c0.2764,0,0.5,0.2236,0.5,0.5
		s-0.2236,0.5-0.5,0.5h-1.2949v2.2744C19.1055,20.165,18.8818,20.3887,18.6055,20.3887z"/>
	<path d="M11.9814,20.3887c-0.9912,0-1.7974-0.8467-1.7974-1.8867c0-1.041,0.8062-1.8877,1.7974-1.8877s1.7969,0.8467,1.7969,1.8877
		C13.7783,19.542,12.9727,20.3887,11.9814,20.3887z M11.9814,17.6143c-0.4395,0-0.7974,0.3984-0.7974,0.8877
		s0.3579,0.8867,0.7974,0.8867s0.7969-0.3975,0.7969-0.8867S12.4209,17.6143,11.9814,17.6143z"/>
	<path d="M5.7695,7.4175c-0.9912,0-1.7974-0.8467-1.7974-1.8872s0.8062-1.8872,1.7974-1.8872s1.7974,0.8467,1.7974,1.8872
		S6.7607,7.4175,5.7695,7.4175z M5.7695,4.6431c-0.4395,0-0.7974,0.3979-0.7974,0.8872s0.3579,0.8872,0.7974,0.8872
		s0.7974-0.3979,0.7974-0.8872S6.209,4.6431,5.7695,4.6431z"/>
	<path d="M20.1475,19.002h-1.542c-0.2764,0-0.5-0.2236-0.5-0.5s0.2236-0.5,0.5-0.5h1.542c0.2764,0,0.5,0.2236,0.5,0.5
		S20.4238,19.002,20.1475,19.002z"/>
	<path d="M15.1045,20.3887c-0.2764,0-0.5-0.2236-0.5-0.5v-2.7744c0-0.2764,0.2236-0.5,0.5-0.5h1.7959c0.2764,0,0.5,0.2236,0.5,0.5
		s-0.2236,0.5-0.5,0.5h-1.2959v2.2744C15.6045,20.165,15.3809,20.3887,15.1045,20.3887z"/>
	<path d="M16.6465,19.002h-1.542c-0.2764,0-0.5-0.2236-0.5-0.5s0.2236-0.5,0.5-0.5h1.542c0.2764,0,0.5,0.2236,0.5,0.5
		S16.9229,19.002,16.6465,19.002z"/>
	<path d="M8.7681,7.4175c-0.2764,0-0.5-0.2236-0.5-0.5V4.1431c0-0.2139,0.1362-0.4043,0.3384-0.4731
		c0.2017-0.0688,0.4268-0.0024,0.5571,0.1675l1.2441,1.6104V4.1948c0-0.2764,0.2236-0.5,0.5-0.5s0.5,0.2236,0.5,0.5v2.7178
		c0,0.2139-0.1362,0.4043-0.3384,0.4731c-0.2026,0.0669-0.4268,0.0015-0.5571-0.1675L9.2681,5.6079v1.3096
		C9.2681,7.1938,9.0444,7.4175,8.7681,7.4175z"/>
</g>
<rect x="-0.006" y="0.001" fill="none" width="24" height="24"/>
</svg>
