<?xml version="1.0" encoding="utf-8"?>
<!-- Generator: Adobe Illustrator 18.1.0, SVG Export Plug-In . SVG Version: 6.00 Build 0)  -->
<svg version="1.1" id="Layer_1" xmlns="http://www.w3.org/2000/svg" xmlns:xlink="http://www.w3.org/1999/xlink" x="0px" y="0px"
	 width="24px" height="24px" viewBox="0 0 24 24" enable-background="new 0 0 24 24" xml:space="preserve">
<g>
	<path d="M17.5771,21H8.6362c-0.1494,0-0.2915-0.0674-0.3862-0.1826L5.1133,17H3.3501c-0.752,0-1.3638-0.6143-1.3638-1.3691V9.085
		C1.9863,8.7588,2.1191,8,3.3501,8h1.2935c0.1602,0,0.3428-0.2666,0.3428-0.5V7.3618C4.9863,6.6108,5.606,6,6.3672,6h9.1836
		c0.7617,0,1.4053,0.6187,1.4053,1.3506L16.959,8.541C16.959,8.8076,17.1436,9,17.3984,9h0.1895
		c0.7578,0,1.3984,0.6274,1.3984,1.3696V12h2v-1.5c0-0.2764,0.2236-0.5,0.5-0.5h1.1084c0.7803,0,1.3916,0.5669,1.3916,1.2905v7.3472
		c0,0.7383-0.6377,1.3623-1.3916,1.3623h-1.1084c-0.2764,0-0.5-0.2236-0.5-0.5V18h-2v1.6328C18.9863,20.374,18.3408,21,17.5771,21z
		 M8.8726,20h8.7046c0.21,0,0.4092-0.1787,0.4092-0.3672V17.5c0-0.2764,0.2236-0.5,0.5-0.5h3c0.2764,0,0.5,0.2236,0.5,0.5V19h0.6084
		c0.209,0,0.3916-0.1689,0.3916-0.3623v-7.3472c0-0.2134-0.2344-0.2905-0.3916-0.2905h-0.6084v1.5c0,0.2764-0.2236,0.5-0.5,0.5h-3
		c-0.2764,0-0.5-0.2236-0.5-0.5v-2.1304c0-0.1865-0.1973-0.3696-0.3984-0.3696h-0.1895c-0.8076,0-1.4395-0.6401-1.4395-1.4575
		l-0.0029-1.1904C15.9561,7.1704,15.7588,7,15.5508,7H6.3672C6.1606,7,5.9863,7.1655,5.9863,7.3618V7.5
		c0,0.7095-0.5513,1.5-1.3428,1.5H3.3501C3.0527,9,2.98,9.0522,2.9771,9.0547l0.0093,6.5762C2.9863,15.8311,3.1528,16,3.3501,16
		h1.9995c0.1494,0,0.2915,0.0674,0.3862,0.1826L8.8726,20z"/>
	<path d="M10.4893,7c-0.2764,0-0.5-0.2236-0.5-0.5v-2c0-0.2764,0.2236-0.5,0.5-0.5s0.5,0.2236,0.5,0.5v2
		C10.9893,6.7764,10.7656,7,10.4893,7z"/>
	<path d="M13.9863,5h-7c-0.2764,0-0.5-0.2236-0.5-0.5S6.71,4,6.9863,4h7c0.2764,0,0.5,0.2236,0.5,0.5S14.2627,5,13.9863,5z"/>
	<path d="M2.4863,13h-2c-0.2764,0-0.5-0.2236-0.5-0.5S0.21,12,0.4863,12h2c0.2764,0,0.5,0.2236,0.5,0.5S2.7627,13,2.4863,13z"/>
	<path d="M0.4863,16.9619c-0.2764,0-0.5-0.2236-0.5-0.5V8.5171c0-0.2764,0.2236-0.5,0.5-0.5s0.5,0.2236,0.5,0.5v7.9448
		C0.9863,16.7383,0.7627,16.9619,0.4863,16.9619z"/>
</g>
<rect x="-0.0137" fill="none" width="24" height="24"/>
</svg>
