<?xml version="1.0" encoding="utf-8"?>
<!-- Generator: Adobe Illustrator 18.1.0, SVG Export Plug-In . SVG Version: 6.00 Build 0)  -->
<svg version="1.1" id="Layer_1" xmlns="http://www.w3.org/2000/svg" xmlns:xlink="http://www.w3.org/1999/xlink" x="0px" y="0px"
	 width="24px" height="24px" viewBox="0 0 24 24" enable-background="new 0 0 24 24" xml:space="preserve">
<g>
	<path d="M11.9858,23.7842c-6.4868,0-11.7642-5.2773-11.7642-11.7646c0-6.4868,5.2773-11.7646,11.7642-11.7646
		S23.75,5.5327,23.75,12.0195C23.75,18.5068,18.4727,23.7842,11.9858,23.7842z M11.9858,1.2549
		c-5.9355,0-10.7642,4.8291-10.7642,10.7646s4.8286,10.7646,10.7642,10.7646c5.9351,0,10.7642-4.8291,10.7642-10.7646
		S17.9209,1.2549,11.9858,1.2549z"/>
	<path d="M4.0205,20.4844c-0.1279,0-0.2559-0.0488-0.3535-0.1465c-0.1953-0.1953-0.1953-0.5117,0-0.707L19.5967,3.7007
		c0.1953-0.1953,0.5117-0.1953,0.707,0s0.1953,0.5117,0,0.707L4.374,20.3379C4.2764,20.4355,4.1484,20.4844,4.0205,20.4844z"/>
	<path d="M13.9629,20.3076L13.9629,20.3076c-0.4404,0-0.6377-0.2285-0.7158-0.3652l-4.6001-8.001
		c-0.0439-0.0762-0.4248-0.7905-0.2583-2.2891c0.1567-1.4116-0.3149-2.1255-0.8613-2.9517C7.4194,6.5376,7.3115,6.374,7.209,6.2061
		C7.0239,6.0605,6.8755,5.9189,6.8271,5.7139C6.8164,5.668,6.8149,5.6138,6.8208,5.5576L6.7427,5.4263
		C6.605,5.1865,6.6875,4.8809,6.9268,4.7432l1.1479-0.6597c0.2397-0.1367,0.5449-0.0547,0.6826,0.1841l0.0771,0.1382
		c0.0503,0.022,0.0952,0.0479,0.1265,0.0776C9.1211,4.6353,9.167,4.8433,9.1968,5.063C9.291,5.2378,9.3774,5.4126,9.4639,5.5874
		c0.439,0.8882,0.8179,1.6548,2.1167,2.23c1.3804,0.6099,1.8052,1.2983,1.8491,1.375l4.5996,8.001
		c0.0781,0.1357,0.1768,0.4199-0.043,0.7998C17.4727,18.8799,14.9912,20.3076,13.9629,20.3076z M7.8452,5.4341
		C7.8477,5.436,7.8501,5.438,7.8525,5.4399c0.0488,0.0371,0.1323,0.1177,0.1646,0.1699c0.1123,0.188,0.2285,0.3638,0.3447,0.5396
		c0.5708,0.8633,1.2173,1.8418,1.021,3.6133c-0.1294,1.1611,0.1338,1.6846,0.1362,1.6899l4.5142,7.8521
		c0.7588-0.0732,2.6904-1.2393,3.0508-1.749l-4.5215-7.8652l0,0c0,0.0005-0.3213-0.4883-1.3862-0.9585
		C9.5459,8.0103,9.0259,6.9585,8.5674,6.0303C8.4741,5.8418,8.3809,5.6528,8.2778,5.4668C8.2476,5.4116,8.2188,5.2949,8.2104,5.2324
		C8.21,5.228,8.2095,5.2236,8.209,5.2188C8.1929,5.208,8.1777,5.1973,8.1636,5.1855L7.8379,5.373
		C7.8413,5.3931,7.8438,5.4136,7.8452,5.4341z"/>
	<path d="M12.6533,18.4082c-0.0439,0-0.0879-0.0059-0.1299-0.0176c-0.1289-0.0342-0.2373-0.1182-0.3037-0.2334l-1.9668-3.4219
		c-0.1377-0.2393-0.0552-0.5449,0.1846-0.6826l3.915-2.251c0.2363-0.1372,0.5439-0.0562,0.6826,0.1846l1.9678,3.4219
		c0.0664,0.1143,0.084,0.251,0.0488,0.3789c-0.0342,0.1289-0.1182,0.2373-0.2334,0.3037l-3.916,2.251
		C12.8262,18.3857,12.7402,18.4082,12.6533,18.4082z M11.3691,14.6709l1.4688,2.5547l3.0488-1.7529L14.417,12.918L11.3691,14.6709z"
		/>
</g>
<rect x="-0.0142" y="0.0197" fill="none" width="24" height="24"/>
</svg>
