<?xml version="1.0" encoding="utf-8"?>
<!-- Generator: Adobe Illustrator 18.1.0, SVG Export Plug-In . SVG Version: 6.00 Build 0)  -->
<svg version="1.1" id="Layer_1" xmlns="http://www.w3.org/2000/svg" xmlns:xlink="http://www.w3.org/1999/xlink" x="0px" y="0px"
	 width="24px" height="24px" viewBox="0 0 24 24" enable-background="new 0 0 24 24" xml:space="preserve">
<g>
	<path d="M17.4238,24.0342H5.5132c-0.2764,0-0.5-0.2236-0.5-0.5s0.2236-0.5,0.5-0.5h11.9106c0.2764,0,0.5,0.2236,0.5,0.5
		S17.7002,24.0342,17.4238,24.0342z"/>
	<path d="M7.5142,18.0332c-0.2764,0-0.5-0.2236-0.5-0.5V4.5024c0-0.2764,0.2236-0.5,0.5-0.5s0.5,0.2236,0.5,0.5v13.0308
		C8.0142,17.8096,7.7905,18.0332,7.5142,18.0332z"/>
	<path d="M18.5146,15.1973c-0.1211,0-0.2383-0.0439-0.3301-0.125c-0.1084-0.0947-0.1699-0.2314-0.1699-0.375V4.5024
		c0-0.1436,0.0615-0.2808,0.1699-0.3755s0.2578-0.1362,0.3936-0.1206c3.499,0.4517,5.0908,3.2295,5.0898,5.6191
		c-0.002,2.4478-1.5762,5.1187-5.0898,5.5679C18.5566,15.1963,18.5361,15.1973,18.5146,15.1973z M19.0146,5.0981v9.0044
		c2.5166-0.5664,3.6523-2.6021,3.6533-4.4775C22.6689,7.729,21.5342,5.6704,19.0146,5.0981z"/>
	<path d="M17.1514,22.0342H5.9023c-1.0234,0-1.8882-0.8916-1.8882-1.9463V8.3931c0-3.1045-3.438-7.5049-3.4727-7.5488
		C0.4229,0.6938,0.4004,0.4888,0.4844,0.3164C0.5679,0.144,0.7427,0.0347,0.9341,0.0347h17.5796c0.2764,0,0.5,0.2236,0.5,0.5
		v19.5532C19.0137,21.1426,18.1611,22.0342,17.1514,22.0342z M1.9229,1.0347c1.0459,1.4893,3.0913,4.7368,3.0913,7.3584v11.6948
		c0,0.4951,0.4233,0.9463,0.8882,0.9463h11.249c0.459,0,0.8623-0.4424,0.8623-0.9463V1.0347H1.9229z"/>
</g>
<rect x="0.0142" y="0.0346" fill="none" width="24" height="24"/>
</svg>
