<?xml version="1.0" encoding="utf-8"?>
<!-- Generator: Adobe Illustrator 18.1.0, SVG Export Plug-In . SVG Version: 6.00 Build 0)  -->
<svg version="1.1" id="Layer_1" xmlns="http://www.w3.org/2000/svg" xmlns:xlink="http://www.w3.org/1999/xlink" x="0px" y="0px"
	 width="24px" height="24px" viewBox="0 0 24 24" enable-background="new 0 0 24 24" xml:space="preserve">
<g>
	<path d="M23.4863,22h-23c-0.2764,0-0.5-0.2236-0.5-0.5v-19c0-0.2764,0.2236-0.5,0.5-0.5h23c0.2764,0,0.5,0.2236,0.5,0.5v19
		C23.9863,21.7764,23.7627,22,23.4863,22z M0.9863,21h22V3h-22V21z"/>
	<path d="M10.4863,18.001c-0.2764,0-0.5-0.2236-0.5-0.5V6.5c0-0.2764,0.2236-0.5,0.5-0.5s0.5,0.2236,0.5,0.5v11.001
		C10.9863,17.7773,10.7627,18.001,10.4863,18.001z"/>
	<path d="M23.4707,7H0.4771c-0.2764,0-0.5-0.2236-0.5-0.5S0.2007,6,0.4771,6h22.9937c0.2764,0,0.5,0.2236,0.5,0.5
		S23.7471,7,23.4707,7z"/>
	<path d="M23.4707,18.001H0.4771c-0.2764,0-0.5-0.2236-0.5-0.5s0.2236-0.5,0.5-0.5h22.9937c0.2764,0,0.5,0.2236,0.5,0.5
		S23.7471,18.001,23.4707,18.001z"/>
	<path d="M4.4609,5h-1c-0.2764,0-0.5-0.2236-0.5-0.5S3.1846,4,3.4609,4h1c0.2764,0,0.5,0.2236,0.5,0.5S4.7373,5,4.4609,5z"/>
	<path d="M8.4614,5h-1c-0.2764,0-0.5-0.2236-0.5-0.5S7.1851,4,7.4614,4h1c0.2764,0,0.5,0.2236,0.5,0.5S8.7378,5,8.4614,5z"/>
	<path d="M12.4619,5h-1.0005c-0.2764,0-0.5-0.2236-0.5-0.5s0.2236-0.5,0.5-0.5h1.0005c0.2764,0,0.5,0.2236,0.5,0.5
		S12.7383,5,12.4619,5z"/>
	<path d="M16.4619,5h-1c-0.2764,0-0.5-0.2236-0.5-0.5s0.2236-0.5,0.5-0.5h1c0.2764,0,0.5,0.2236,0.5,0.5S16.7383,5,16.4619,5z"/>
	<path d="M20.4619,5h-1c-0.2764,0-0.5-0.2236-0.5-0.5s0.2236-0.5,0.5-0.5h1c0.2764,0,0.5,0.2236,0.5,0.5S20.7383,5,20.4619,5z"/>
	<path d="M4.4609,20.002h-1c-0.2764,0-0.5-0.2236-0.5-0.5s0.2236-0.5,0.5-0.5h1c0.2764,0,0.5,0.2236,0.5,0.5
		S4.7373,20.002,4.4609,20.002z"/>
	<path d="M8.4614,20.002h-1c-0.2764,0-0.5-0.2236-0.5-0.5s0.2236-0.5,0.5-0.5h1c0.2764,0,0.5,0.2236,0.5,0.5
		S8.7378,20.002,8.4614,20.002z"/>
	<path d="M12.4619,20.002h-1.0005c-0.2764,0-0.5-0.2236-0.5-0.5s0.2236-0.5,0.5-0.5h1.0005c0.2764,0,0.5,0.2236,0.5,0.5
		S12.7383,20.002,12.4619,20.002z"/>
	<path d="M16.4619,20.002h-1c-0.2764,0-0.5-0.2236-0.5-0.5s0.2236-0.5,0.5-0.5h1c0.2764,0,0.5,0.2236,0.5,0.5
		S16.7383,20.002,16.4619,20.002z"/>
	<path d="M20.4619,20.002h-1c-0.2764,0-0.5-0.2236-0.5-0.5s0.2236-0.5,0.5-0.5h1c0.2764,0,0.5,0.2236,0.5,0.5
		S20.7383,20.002,20.4619,20.002z"/>
</g>
<rect x="-0.0136" y="0.0002" fill="none" width="24" height="24"/>
</svg>
