<?xml version="1.0" encoding="utf-8"?>
<!-- Generator: Adobe Illustrator 18.1.0, SVG Export Plug-In . SVG Version: 6.00 Build 0)  -->
<svg version="1.1" id="Layer_1" xmlns="http://www.w3.org/2000/svg" xmlns:xlink="http://www.w3.org/1999/xlink" x="0px" y="0px"
	 width="24px" height="24px" viewBox="0 0 24 24" enable-background="new 0 0 24 24" xml:space="preserve">
<g>
	<path d="M11.5298,23.8076L11.5298,23.8076c-0.3589,0-0.6904-0.2002-0.8438-0.5088c-1.6567-3.6367-1.6567-3.6484-1.6567-3.7959
		V4.9409c0-0.5869,0.4492-0.938,0.8838-0.938h3.2002c0.4404,0,0.916,0.3584,0.916,0.9375v14.5625c0,0.1475,0,0.1602-1.6621,3.7822
		C12.2031,23.6133,11.8848,23.8076,11.5298,23.8076z M10.0293,19.4082c0.165,0.3887,0.957,2.1367,1.4946,3.3184
		c0.5347-1.168,1.3374-2.9277,1.5054-3.3193V5.0029h-2.9995L10.0293,19.4082z"/>
	<path d="M11.5293,20.0029c-0.2764,0-0.5-0.2236-0.5-0.5V6.582c0-0.2764,0.2236-0.5,0.5-0.5s0.5,0.2236,0.5,0.5v12.9209
		C12.0293,19.7793,11.8057,20.0029,11.5293,20.0029z"/>
	<path d="M13.5293,20.0029h-4c-0.2764,0-0.5-0.2236-0.5-0.5s0.2236-0.5,0.5-0.5h4c0.2764,0,0.5,0.2236,0.5,0.5
		S13.8057,20.0029,13.5293,20.0029z"/>
	<path d="M12.6328,22.0029h-2.2134c-0.2764,0-0.5-0.2236-0.5-0.5s0.2236-0.5,0.5-0.5h2.2134c0.2764,0,0.5,0.2236,0.5,0.5
		S12.9092,22.0029,12.6328,22.0029z"/>
	<path d="M13.5293,3.0352c-0.2764,0-0.5-0.2236-0.5-0.5v-1.147c0-0.1821-0.1846-0.3853-0.4482-0.3853h-2.1367
		c-0.2563,0-0.415,0.2002-0.415,0.3853v1.147c0,0.2764-0.2236,0.5-0.5,0.5s-0.5-0.2236-0.5-0.5v-1.147
		c0-0.7637,0.6348-1.3853,1.415-1.3853h2.1367c0.7852,0,1.4482,0.6343,1.4482,1.3853v1.147
		C14.0293,2.8115,13.8057,3.0352,13.5293,3.0352z"/>
</g>
<rect x="0.0293" y="0.0001" fill="none" width="24" height="24"/>
</svg>
