<?xml version="1.0" encoding="utf-8"?>
<!-- Generator: Adobe Illustrator 18.1.0, SVG Export Plug-In . SVG Version: 6.00 Build 0)  -->
<svg version="1.1" id="Layer_1" xmlns="http://www.w3.org/2000/svg" xmlns:xlink="http://www.w3.org/1999/xlink" x="0px" y="0px"
	 width="24px" height="24px" viewBox="0 0 24 24" enable-background="new 0 0 24 24" xml:space="preserve">
<g>
	<path d="M9.7769,23.0195h-8.48C0.6704,23.0195,0,22.5566,0,21.8672V8.8037c0-0.7866,0.7607-1.7842,1.6162-1.7842h7.8413
		C10.312,7.0195,11,7.9956,11,8.8037v13.0635C11,22.5029,10.4512,23.0195,9.7769,23.0195z M1.6162,8.0195
		C1.3984,8.0195,1,8.4805,1,8.8037v13.0635c0.0083,0.043,0.1479,0.1523,0.2969,0.1523h8.48c0.1128,0,0.2231-0.0752,0.2231-0.1523
		V8.8037c0-0.3384-0.3413-0.7842-0.5425-0.7842H1.6162z"/>
	<path d="M9.5,8.0186c-0.2764,0-0.5-0.2236-0.5-0.5v-1.499H2v1.499c0,0.2764-0.2236,0.5-0.5,0.5S1,7.7949,1,7.5186v-1.999
		c0-0.2764,0.2236-0.5,0.5-0.5h8c0.2764,0,0.5,0.2236,0.5,0.5v1.999C10,7.7949,9.7764,8.0186,9.5,8.0186z"/>
	<path d="M9.6489,6.0195c-0.2764,0-0.5-0.2236-0.5-0.5s0.2236-0.5,0.5-0.5c0.1694,0,0.3071-0.1377,0.3071-0.3071
		c0-0.3408-0.1694-0.6582-0.4526-0.8496C8.7383,3.2783,7.1909,2.9116,5.5371,2.9116S2.3354,3.2783,1.5942,3.8452
		c-0.3071,0.209-0.4766,0.5264-0.4766,0.8672c0,0.1694,0.1377,0.3071,0.3071,0.3071c0.2764,0,0.5,0.2236,0.5,0.5
		s-0.2236,0.5-0.5,0.5c-0.7207,0-1.3071-0.5864-1.3071-1.3071c0-0.6733,0.334-1.3013,0.8931-1.6787
		c0.9082-0.6963,2.6094-1.1221,4.5264-1.1221c1.9165,0,3.6177,0.4258,4.5498,1.1396c0.5352,0.3599,0.8691,0.9878,0.8691,1.6611
		C10.9561,5.4331,10.3696,6.0195,9.6489,6.0195z"/>
	<path d="M5.7119,4.5674H5.3618c-0.2764,0-0.5-0.2236-0.5-0.5s0.2236-0.5,0.5-0.5h0.3501c0.2764,0,0.5,0.2236,0.5,0.5
		S5.9883,4.5674,5.7119,4.5674z"/>
	<path d="M4.311,3.8218H3.9604c-0.2764,0-0.5-0.2236-0.5-0.5s0.2236-0.5,0.5-0.5H4.311c0.2764,0,0.5,0.2236,0.5,0.5
		S4.5874,3.8218,4.311,3.8218z"/>
	<path d="M7.1133,3.8218H6.7632c-0.2764,0-0.5-0.2236-0.5-0.5s0.2236-0.5,0.5-0.5h0.3501c0.2764,0,0.5,0.2236,0.5,0.5
		S7.3896,3.8218,7.1133,3.8218z"/>
	<path d="M3.5171,23.0107c-0.2764,0-0.5-0.2236-0.5-0.5V19.667c0-0.2764,0.2236-0.5,0.5-0.5s0.5,0.2236,0.5,0.5v2.8438
		C4.0171,22.7871,3.7935,23.0107,3.5171,23.0107z"/>
	<path d="M7.5176,23.0107c-0.2764,0-0.5-0.2236-0.5-0.5V19.667c0-0.2764,0.2236-0.5,0.5-0.5s0.5,0.2236,0.5,0.5v2.8438
		C8.0176,22.7871,7.7939,23.0107,7.5176,23.0107z"/>
	<path d="M5.6172,15.876c-0.4995,0-1.1587-0.248-1.603-0.6035c-0.2158-0.1729-0.251-0.4873-0.0786-0.7031
		c0.1724-0.2148,0.4878-0.249,0.7026-0.0781c0.2656,0.2119,0.7046,0.3848,0.979,0.3848c0.3765,0,0.6392-0.2178,0.6392-0.4141
		c0-0.1406-0.2876-0.3018-0.769-0.4316c-0.457-0.1309-1.5093-0.4326-1.5093-1.3955c0-0.7798,0.7354-1.4146,1.6392-1.4146
		c0.5747,0,1.0972,0.251,1.397,0.6709c0.1602,0.2251,0.1079,0.5376-0.1167,0.6978c-0.2261,0.1592-0.5376,0.1074-0.6978-0.1172
		c-0.1089-0.1523-0.3374-0.252-0.5825-0.252c-0.3765,0-0.6392,0.2188-0.6392,0.415c0,0.1387,0.2612,0.2842,0.7769,0.4326
		c0.3657,0.0986,1.5015,0.4043,1.5015,1.3945C7.2563,15.2412,6.521,15.876,5.6172,15.876z"/>
	<path d="M22.7783,23.0195h-8.4805c-0.626,0-1.2969-0.4629-1.2969-1.1523V8.8037c0-0.7866,0.7607-1.7842,1.6162-1.7842h7.8418
		c0.8545,0,1.542,0.9761,1.542,1.7842v13.0635C24.001,22.5029,23.4521,23.0195,22.7783,23.0195z M14.6172,8.0195
		c-0.2178,0-0.6162,0.4609-0.6162,0.7842v13.0635c0.0078,0.043,0.1475,0.1523,0.2969,0.1523h8.4805
		c0.1123,0,0.2227-0.0752,0.2227-0.1523V8.8037c0-0.3384-0.3408-0.7842-0.542-0.7842H14.6172z"/>
	<path d="M22.501,8.0186c-0.2764,0-0.5-0.2236-0.5-0.5v-1.499h-7v1.499c0,0.2764-0.2236,0.5-0.5,0.5s-0.5-0.2236-0.5-0.5v-1.999
		c0-0.2764,0.2236-0.5,0.5-0.5h8c0.2764,0,0.5,0.2236,0.5,0.5v1.999C23.001,7.7949,22.7773,8.0186,22.501,8.0186z"/>
	<path d="M22.6494,6.0195c-0.2764,0-0.5-0.2236-0.5-0.5s0.2236-0.5,0.5-0.5c0.1699,0,0.3076-0.1377,0.3076-0.3071
		c0-0.3403-0.1689-0.6582-0.4531-0.8501c-0.7646-0.584-2.3125-0.9507-3.9658-0.9507c-1.6543,0-3.2021,0.3667-3.9434,0.9336
		c-0.3076,0.209-0.4766,0.5269-0.4766,0.8672c0,0.1694,0.1377,0.3071,0.3076,0.3071c0.2764,0,0.5,0.2236,0.5,0.5
		s-0.2236,0.5-0.5,0.5c-0.7207,0-1.3076-0.5864-1.3076-1.3071c0-0.6729,0.334-1.3003,0.8926-1.6782
		c0.9092-0.6968,2.6104-1.1226,4.5273-1.1226c1.916,0,3.6172,0.4258,4.5498,1.1396c0.5352,0.3608,0.8691,0.9883,0.8691,1.6611
		C23.957,5.4331,23.3701,6.0195,22.6494,6.0195z"/>
	<path d="M18.7129,4.5674h-0.3506c-0.2764,0-0.5-0.2236-0.5-0.5s0.2236-0.5,0.5-0.5h0.3506c0.2764,0,0.5,0.2236,0.5,0.5
		S18.9893,4.5674,18.7129,4.5674z"/>
	<path d="M16.5186,23.0107c-0.2764,0-0.5-0.2236-0.5-0.5V19.667c0-0.2764,0.2236-0.5,0.5-0.5s0.5,0.2236,0.5,0.5v2.8438
		C17.0186,22.7871,16.7949,23.0107,16.5186,23.0107z"/>
	<path d="M20.5186,23.0107c-0.2764,0-0.5-0.2236-0.5-0.5V19.667c0-0.2764,0.2236-0.5,0.5-0.5s0.5,0.2236,0.5,0.5v2.8438
		C21.0186,22.7871,20.7949,23.0107,20.5186,23.0107z"/>
	<path d="M17.5322,15.7764c-0.2764,0-0.5-0.2236-0.5-0.5v-1.627c0-0.001,0-0.002,0-0.0029v-1.9263c0-0.2764,0.2236-0.5,0.5-0.5
		h1.334c0.0586,0.0005,0.7734-0.0156,1.249,0.4429c0.2578,0.248,0.3936,0.5859,0.3936,0.9756c0,1.0947-0.9805,1.5-1.6387,1.5049
		l-0.8379,0.0029v1.1299C18.0322,15.5527,17.8086,15.7764,17.5322,15.7764z M18.0322,12.2197v0.9258l0.833-0.002
		c0.1455-0.0039,0.6436-0.0508,0.6436-0.5049c0-0.1523-0.0469-0.2168-0.0879-0.2559c-0.1387-0.1338-0.4395-0.165-0.5361-0.1631
		H18.0322z"/>
</g>
<rect y="0.0197" fill="none" width="24" height="24"/>
</svg>
