<?xml version="1.0" encoding="utf-8"?>
<!-- Generator: Adobe Illustrator 18.1.0, SVG Export Plug-In . SVG Version: 6.00 Build 0)  -->
<svg version="1.1" id="Layer_1" xmlns="http://www.w3.org/2000/svg" xmlns:xlink="http://www.w3.org/1999/xlink" x="0px" y="0px"
	 width="24px" height="24px" viewBox="0 0 24 24" enable-background="new 0 0 24 24" xml:space="preserve">
<g>
	<path d="M20.9893,23h-5.5c-0.2764,0-0.5-0.2236-0.5-0.5V20h-3.5c-0.2764,0-0.5-0.2236-0.5-0.5V17h-3.5
		c-0.2764,0-0.5-0.2236-0.5-0.5V14h-5c-0.2764,0-0.5-0.2236-0.5-0.5s0.2236-0.5,0.5-0.5h5.5c0.2764,0,0.5,0.2236,0.5,0.5V16h3.5
		c0.2764,0,0.5,0.2236,0.5,0.5V19h3.5c0.2764,0,0.5,0.2236,0.5,0.5V22h5c0.2764,0,0.5,0.2236,0.5,0.5S21.2656,23,20.9893,23z"/>
	<path d="M18.4238,4.5801c-1.0723,0-1.9453-0.873-1.9453-1.9458s0.873-1.9458,1.9453-1.9458s1.9453,0.873,1.9453,1.9458
		S19.4961,4.5801,18.4238,4.5801z M18.4238,1.6885c-0.5215,0-0.9453,0.4243-0.9453,0.9458s0.4238,0.9458,0.9453,0.9458
		s0.9453-0.4243,0.9453-0.9458S18.9453,1.6885,18.4238,1.6885z"/>
	<path d="M18.3398,21.1631c-0.0234,0-0.0469-0.002-0.0703-0.0049c-0.2734-0.0381-0.4639-0.291-0.4258-0.5645l0.7451-5.332
		c0.0068-0.0488-0.0068-0.0967-0.0371-0.1348l-2.7676-3.4775c-0.3154-0.3955-0.4561-0.9111-0.3857-1.4141l0.4277-3.0688
		c0.1494-1.0723,1.0918-1.8423,2.1045-1.7505c0.5381,0.0464,1.0195,0.3042,1.3555,0.7256c0.3311,0.4155,0.4795,0.9556,0.4053,1.4819
		l0.1211,2.6963l1.21,1.5791c0.168,0.2192,0.127,0.5327-0.0928,0.7007c-0.2168,0.1689-0.5332,0.1279-0.7002-0.0928l-1.3057-1.7036
		c-0.0625-0.0815-0.0986-0.1807-0.1035-0.2832l-0.124-2.9448c0.041-0.3496-0.0283-0.6055-0.1924-0.8105
		c-0.1631-0.2046-0.3975-0.3296-0.6592-0.3525c-0.5078-0.0415-0.9541,0.3579-1.0283,0.8926l-0.4277,3.0688
		c-0.0322,0.2324,0.0322,0.4702,0.1777,0.6523l2.7676,3.4771c0.1992,0.25,0.2891,0.5771,0.2451,0.8965l-0.7451,5.333
		C18.7988,20.9824,18.585,21.1631,18.3398,21.1631z"/>
	<path d="M13.8115,17.3506c-0.1338,0-0.2666-0.0527-0.3652-0.1582c-0.1885-0.2012-0.1777-0.5176,0.0234-0.707l2.6865-2.5156
		c0.2021-0.1865,0.5186-0.1787,0.707,0.0234c0.1885,0.2012,0.1777,0.5176-0.0234,0.707l-2.6865,2.5156
		C14.0566,17.3057,13.9346,17.3506,13.8115,17.3506z"/>
	<path d="M12.7881,10.6011c-0.041,0-0.084-0.0054-0.126-0.0161c-0.2676-0.0698-0.4277-0.3433-0.3574-0.6104l0.8066-3.0874
		c0.0234-0.0913,0.0732-0.1743,0.1416-0.2388l1.3086-1.2241c0.2031-0.1895,0.5195-0.1777,0.707,0.0234
		c0.1885,0.2017,0.1777,0.5181-0.0234,0.707l-1.2031,1.125l-0.7705,2.9478C13.2129,10.4521,13.0107,10.6011,12.7881,10.6011z"/>
</g>
<rect x="-0.0137" y="0.0002" fill="none" width="24" height="24"/>
</svg>
