<?xml version="1.0" encoding="utf-8"?>
<!-- Generator: Adobe Illustrator 18.1.0, SVG Export Plug-In . SVG Version: 6.00 Build 0)  -->
<svg version="1.1" id="Layer_1" xmlns="http://www.w3.org/2000/svg" xmlns:xlink="http://www.w3.org/1999/xlink" x="0px" y="0px"
	 width="24px" height="24px" viewBox="0 0 24 24" enable-background="new 0 0 24 24" xml:space="preserve">
<g>
	<path d="M19.2871,21.959H4.6992c-1.104,0-2.1436-0.5781-2.7134-1.5098c-1.168-1.9102-1.7856-4.1162-1.7856-6.3779
		c0-6.9009,5.6958-12.4614,12.5469-12.0278c5.7686,0.3672,10.4951,5.0767,10.9932,10.9546
		c0.2246,2.6484-0.3779,5.2275-1.7432,7.4561C21.4297,21.3828,20.3916,21.959,19.2871,21.959z M11.9922,3.0195
		c-5.9507,0-10.792,4.9575-10.792,11.0518c0,2.0781,0.5669,4.1025,1.6392,5.8564c0.3887,0.6357,1.1016,1.0312,1.8599,1.0312h14.5879
		c0.7578,0,1.4697-0.3936,1.8564-1.0264c1.2539-2.0469,1.8066-4.415,1.6006-6.8506c-0.457-5.3882-4.7822-9.7046-10.0615-10.0405
		C12.4512,3.0269,12.2217,3.0195,11.9922,3.0195z"/>
	<path d="M20.8555,14.9385h-0.875c-0.2764,0-0.5-0.2236-0.5-0.5s0.2236-0.5,0.5-0.5h0.875c0.2764,0,0.5,0.2236,0.5,0.5
		S21.1318,14.9385,20.8555,14.9385z"/>
	<path d="M17.8242,8.9766c-0.126,0-0.252-0.0474-0.3496-0.1426c-0.1973-0.1929-0.2012-0.5098-0.0078-0.707l0.6582-0.6729
		c0.1924-0.1963,0.5088-0.2007,0.707-0.0078c0.1973,0.1929,0.2012,0.5098,0.0078,0.707l-0.6582,0.6729
		C18.084,8.9263,17.9541,8.9766,17.8242,8.9766z"/>
	<path d="M12.0117,6.3115c-0.2764,0-0.5-0.2236-0.5-0.5V4.9551c0-0.2764,0.2236-0.5,0.5-0.5s0.5,0.2236,0.5,0.5v0.8564
		C12.5117,6.0879,12.2881,6.3115,12.0117,6.3115z"/>
	<path d="M6.0156,8.9766c-0.1299,0-0.2598-0.0503-0.3574-0.1504L5.0107,8.1641C4.8174,7.9668,4.8213,7.6499,5.0186,7.457
		c0.1978-0.1929,0.5156-0.1895,0.707,0.0078L6.373,8.127c0.1934,0.1973,0.1895,0.5142-0.0078,0.707
		C6.2681,8.9292,6.1416,8.9766,6.0156,8.9766z"/>
	<path d="M4.0605,14.9395H3.1499c-0.2764,0-0.5-0.2236-0.5-0.5s0.2236-0.5,0.5-0.5h0.9106c0.2764,0,0.5,0.2236,0.5,0.5
		S4.3369,14.9395,4.0605,14.9395z"/>
	<path d="M11.9561,18.9395c-0.5728,0-1.1084-0.2227-1.5083-0.627c-0.3994-0.4033-0.6157-0.9414-0.6094-1.5146
		c0.0142-1.1816,0.9863-2.1543,2.1675-2.168c0,0,0,0,0.001,0c0.5967,0,1.1318,0.2227,1.5322,0.627
		c0.3984,0.4043,0.6152,0.9424,0.6084,1.5146c-0.0137,1.1816-0.9863,2.1543-2.1675,2.168
		C11.978,18.9395,11.958,18.9395,11.9561,18.9395z M12.0293,15.6299c-0.6543,0.0078-1.1836,0.5371-1.1909,1.1797
		c-0.0034,0.3037,0.1104,0.5879,0.3208,0.7998c0.21,0.2129,0.4932,0.3301,0.7969,0.3301v0.5l0.0127-0.5
		c0.6426-0.0078,1.1709-0.5371,1.1787-1.1797c0.0039-0.3037-0.1104-0.5879-0.3203-0.7998
		C12.6172,15.7471,12.334,15.6299,12.0293,15.6299z"/>
	<path d="M12.0117,15.6113c-0.2764,0-0.5-0.2236-0.5-0.5V8.8115c0-0.2764,0.2236-0.5,0.5-0.5s0.5,0.2236,0.5,0.5v6.2998
		C12.5117,15.3877,12.2881,15.6113,12.0117,15.6113z"/>
</g>
<rect x="-0.0106" y="0.0002" fill="none" width="24" height="24"/>
</svg>
