<?xml version="1.0" encoding="utf-8"?>
<!-- Generator: Adobe Illustrator 18.1.0, SVG Export Plug-In . SVG Version: 6.00 Build 0)  -->
<svg version="1.1" id="Layer_1" xmlns="http://www.w3.org/2000/svg" xmlns:xlink="http://www.w3.org/1999/xlink" x="0px" y="0px"
	 width="24px" height="24px" viewBox="0 0 24 24" enable-background="new 0 0 24 24" xml:space="preserve">
<g>
	<path d="M11.478,24.0068H2.542c-1.396,0-2.5317-1.1357-2.5317-2.5312V2.5029c0-1.3955,1.1357-2.5312,2.5317-2.5312h8.936
		c1.396,0,2.5317,1.1357,2.5317,2.5312v18.9727C14.0098,22.8711,12.874,24.0068,11.478,24.0068z M2.542,0.9717
		c-0.8447,0-1.5317,0.687-1.5317,1.5312v18.9727c0,0.8447,0.687,1.5312,1.5317,1.5312h8.936c0.8442,0,1.5317-0.6865,1.5317-1.5312
		V2.5029c0-0.8442-0.6875-1.5312-1.5317-1.5312H2.542z"/>
	<path d="M7.0098,22.3809c-0.7461,0-1.353-0.6074-1.353-1.3535s0.6069-1.3525,1.353-1.3525s1.3535,0.6064,1.3535,1.3525
		S7.7559,22.3809,7.0098,22.3809z M7.0098,20.6748c-0.1948,0-0.353,0.1582-0.353,0.3525c0,0.1953,0.1582,0.3535,0.353,0.3535
		s0.3535-0.1582,0.3535-0.3535C7.3633,20.833,7.2046,20.6748,7.0098,20.6748z"/>
	<path d="M13.5186,18.998h-13c-0.2764,0-0.5-0.2236-0.5-0.5v-15c0-0.2764,0.2236-0.5,0.5-0.5h13c0.2764,0,0.5,0.2236,0.5,0.5v15
		C14.0186,18.7744,13.7949,18.998,13.5186,18.998z M1.0186,17.998h12v-14h-12V17.998z"/>
	<path d="M16.627,15.9385c-0.1387,0-0.2764-0.0576-0.375-0.1689c-0.1826-0.207-0.1631-0.5234,0.0439-0.7061
		c1.0898-0.9619,1.6895-2.2578,1.6895-3.6499c0-1.3926-0.5996-2.6885-1.6895-3.6494c-0.207-0.1826-0.2266-0.4985-0.0439-0.7056
		c0.1816-0.208,0.498-0.2271,0.7061-0.0444c1.3076,1.1538,2.0273,2.7158,2.0273,4.3989c0,1.6836-0.7197,3.2461-2.0273,4.4004
		C16.8623,15.8975,16.7451,15.9385,16.627,15.9385z"/>
	<path d="M19.1299,17.8896c-0.1279,0-0.2559-0.0488-0.3535-0.1465c-0.1953-0.1943-0.1953-0.5117,0-0.707
		c3.041-3.0479,3.041-8.1973,0-11.2446c-0.1953-0.1953-0.1953-0.5117,0-0.707c0.1953-0.1943,0.5117-0.1953,0.707,0.001
		c3.4834,3.4893,3.4834,9.1675,0,12.6577C19.3857,17.8408,19.2578,17.8896,19.1299,17.8896z"/>
</g>
<rect y="-0.002" fill="none" width="24" height="24"/>
</svg>
