<?xml version="1.0" encoding="utf-8"?>
<!-- Generator: Adobe Illustrator 18.1.0, SVG Export Plug-In . SVG Version: 6.00 Build 0)  -->
<svg version="1.1" id="Layer_1" xmlns="http://www.w3.org/2000/svg" xmlns:xlink="http://www.w3.org/1999/xlink" x="0px" y="0px"
	 width="24px" height="24px" viewBox="0 0 24 24" enable-background="new 0 0 24 24" xml:space="preserve">
<path d="M8.8315,21.2305c-4.791,0-8.689-3.8984-8.689-8.6895c0-5.9199,4.8164-10.7358,10.7363-10.7358
	c3.8916,0,7.3623,1.582,9.7734,4.4546c2.6777,3.1904,3.7646,7.5664,2.9824,12.0068c-0.1846,1.0674-1.0215,1.915-2.0811,2.1074
	c-1.4336,0.2588-3.8037,0.4854-6.9414,0.0859c-0.2734-0.0352-0.4678-0.2852-0.4326-0.5596s0.2871-0.4717,0.5596-0.4326
	c3.0088,0.3848,5.2695,0.1709,6.6367-0.0781c0.6475-0.1172,1.1602-0.6377,1.2744-1.2949c0.7305-4.1494-0.2773-8.2285-2.7646-11.1924
	c-2.2168-2.6421-5.416-4.0972-9.0068-4.0972c-5.3687,0-9.7363,4.3677-9.7363,9.7358c0,4.2402,3.4492,7.6895,7.689,7.6895
	c3.3364,0,6.0513-2.7148,6.0513-6.0508c0-2.6143-2.127-4.7412-4.7412-4.7412c-2.0361,0-3.6924,1.6562-3.6924,3.6924
	c0,1.5742,1.2803,2.8545,2.854,2.8545c1.0532,0,1.9561-0.75,2.147-1.7832c0.1372-0.7451-0.2163-1.4717-0.9014-1.8516
	c-0.4502-0.248-0.9341-0.2598-1.3257-0.0273c-0.3706,0.2178-0.6006,0.6201-0.6006,1.0498c0,0.2764-0.2236,0.5-0.5,0.5
	s-0.5-0.2236-0.5-0.5c0-0.7822,0.4189-1.5146,1.0933-1.9116c0.7056-0.4165,1.5508-0.4106,2.3179,0.0146
	c1.0669,0.5913,1.6167,1.7329,1.3999,2.9077c-0.2783,1.5078-1.5952,2.6016-3.1304,2.6016c-2.125,0-3.854-1.7295-3.854-3.8545
	c0-2.5874,2.105-4.6924,4.6924-4.6924c3.166,0,5.7412,2.5757,5.7412,5.7412C15.8828,18.0674,12.7197,21.2305,8.8315,21.2305z"/>
<rect x="0.0022" y="-0.0147" fill="none" width="24" height="24"/>
</svg>
