<?xml version="1.0" encoding="utf-8"?>
<!-- Generator: Adobe Illustrator 18.1.0, SVG Export Plug-In . SVG Version: 6.00 Build 0)  -->
<svg version="1.1" id="Layer_1" xmlns="http://www.w3.org/2000/svg" xmlns:xlink="http://www.w3.org/1999/xlink" x="0px" y="0px"
	 width="24px" height="24px" viewBox="0 0 24 24" enable-background="new 0 0 24 24" xml:space="preserve">
<g>
	<path d="M23.5146,6.0342H0.5142c-0.2764,0-0.5-0.2236-0.5-0.5v-3c0-0.2764,0.2236-0.5,0.5-0.5h23.0005c0.2764,0,0.5,0.2236,0.5,0.5
		v3C24.0146,5.8105,23.791,6.0342,23.5146,6.0342z M1.0142,5.0342h22.0005v-2H1.0142V5.0342z"/>
	<path d="M23.5146,22.0342h-9.2793c-0.2275,0-0.4268-0.1543-0.4844-0.374l-1.7031-6.5674l-1.7026,6.5674
		c-0.0571,0.2197-0.2559,0.374-0.4839,0.374H0.5142c-0.2764,0-0.5-0.2236-0.5-0.5v-16c0-0.2764,0.2236-0.5,0.5-0.5h23.0005
		c0.2764,0,0.5,0.2236,0.5,0.5v16C24.0146,21.8105,23.791,22.0342,23.5146,22.0342z M14.6221,21.0342h8.3926v-15H1.0142v15h8.4604
		l2.0894-8.0586c0.1143-0.4395,0.8521-0.4395,0.9683,0L14.6221,21.0342z"/>
	<path d="M2.6797,12.0918c-0.2378,0-0.4482-0.1704-0.4912-0.4126c-0.0483-0.2715,0.1328-0.5308,0.4043-0.5796
		c0.1665-0.0303,4.0864-0.7808,4.2832-4.6753c0.0146-0.2759,0.2505-0.4824,0.5249-0.4741c0.2759,0.0142,0.4878,0.249,0.4741,0.5249
		c-0.2378,4.6987-5.0596,5.6001-5.1084,5.6089C2.7373,12.0898,2.7085,12.0918,2.6797,12.0918z"/>
	<path d="M21.3496,12.0918c-0.0293,0-0.0586-0.002-0.0879-0.0078c-0.0488-0.0088-4.8711-0.9102-5.1084-5.6089
		c-0.0146-0.2759,0.1982-0.5107,0.4736-0.5249c0.3096-0.0146,0.5098,0.1987,0.5244,0.4741c0.1973,3.8945,4.1182,4.645,4.2852,4.6753
		c0.2715,0.0488,0.4521,0.3081,0.4043,0.5796C21.7969,11.9214,21.5869,12.0918,21.3496,12.0918z"/>
	<path d="M10.3799,20.0342H0.5142c-0.2764,0-0.5-0.2236-0.5-0.5s0.2236-0.5,0.5-0.5h9.8657c0.2764,0,0.5,0.2236,0.5,0.5
		S10.6562,20.0342,10.3799,20.0342z"/>
	<path d="M23.5146,20.0342h-9.7988c-0.2764,0-0.5-0.2236-0.5-0.5s0.2236-0.5,0.5-0.5h9.7988c0.2764,0,0.5,0.2236,0.5,0.5
		S23.791,20.0342,23.5146,20.0342z"/>
</g>
<rect x="0.0142" y="0.0344" fill="none" width="24" height="24"/>
</svg>
