<?xml version="1.0" encoding="utf-8"?>
<!-- Generator: Adobe Illustrator 18.1.0, SVG Export Plug-In . SVG Version: 6.00 Build 0)  -->
<svg version="1.1" id="Layer_1" xmlns="http://www.w3.org/2000/svg" xmlns:xlink="http://www.w3.org/1999/xlink" x="0px" y="0px"
	 width="24px" height="24px" viewBox="0 0 24 24" enable-background="new 0 0 24 24" xml:space="preserve">
<g>
	<path d="M11.7832,15.1523c-0.1138,0-0.228-0.0391-0.3218-0.1182c-0.2109-0.1777-0.2378-0.4932-0.0601-0.7041l7.8857-9.3511
		L9.936,12.8633c-0.2114,0.1787-0.5259,0.1514-0.7046-0.0596c-0.1777-0.2109-0.1509-0.5264,0.0601-0.7041L23.1377,0.4243
		c0.1992-0.1655,0.4932-0.1548,0.6758,0.0288c0.1836,0.1836,0.1963,0.4775,0.0283,0.6758L12.166,14.9746
		C12.0674,15.0918,11.9258,15.1523,11.7832,15.1523z"/>
	<path d="M9.0967,17.8379c-0.1279,0-0.2559-0.0488-0.3535-0.1465l-2.1699-2.1699c-0.0938-0.0938-0.1465-0.2207-0.1465-0.3535
		s0.0527-0.2598,0.1465-0.3535l2.687-2.6865c0.0938-0.0938,0.2207-0.1465,0.3535-0.1465l0,0c0.1328,0,0.2598,0.0527,0.3535,0.1465
		l2.1694,2.1709c0.1953,0.1953,0.1953,0.5117,0,0.707l-2.6865,2.6855C9.3525,17.7891,9.2246,17.8379,9.0967,17.8379z M7.6338,15.168
		l1.4629,1.4629l1.9795-1.9785l-1.4624-1.4639L7.6338,15.168z"/>
	<path d="M2.6284,23.876c-1.2266,0-2.1372-0.2227-2.2124-0.2422c-0.1743-0.0439-0.311-0.1777-0.3589-0.3516
		c-0.0483-0.1729,0.001-0.3594,0.1279-0.4863c0.0132-0.0137,1.355-1.3877,2.1772-4.4023c0.9565-3.5049,4.5044-3.7236,4.54-3.7246
		c0.2588-0.0371,0.5083,0.1973,0.5234,0.4727c0.0146,0.2744-0.1968,0.5098-0.4717,0.5254c-0.1167,0.0068-2.8643,0.1943-3.627,2.9902
		c-0.5586,2.0479-1.3398,3.3984-1.8662,4.1426c1.1372,0.1348,3.2617,0.1895,4.8867-0.9619c1.2959-0.918,2.0537-2.4473,2.252-4.5459
		c0.0259-0.2744,0.2651-0.4639,0.5444-0.4512c0.2749,0.0264,0.4771,0.2705,0.4507,0.5449c-0.2266,2.4053-1.127,4.1787-2.6748,5.2725
		C5.54,23.6318,3.9111,23.876,2.6284,23.876z"/>
</g>
<rect y="-0.0001" fill="none" width="24" height="24"/>
</svg>
