<?xml version="1.0" encoding="utf-8"?>
<!-- Generator: Adobe Illustrator 18.1.0, SVG Export Plug-In . SVG Version: 6.00 Build 0)  -->
<svg version="1.1" id="Layer_1" xmlns="http://www.w3.org/2000/svg" xmlns:xlink="http://www.w3.org/1999/xlink" x="0px" y="0px"
	 width="24px" height="24px" viewBox="0 0 24 24" enable-background="new 0 0 24 24" xml:space="preserve">
<g>
	<path d="M11.9912,23.6787c-6.4287,0-11.6592-5.2305-11.6592-11.6592c0-6.4292,5.2305-11.6597,11.6592-11.6597
		s11.6592,5.2305,11.6592,11.6597C23.6504,18.4482,18.4199,23.6787,11.9912,23.6787z M11.9912,1.3599
		c-5.8774,0-10.6592,4.7817-10.6592,10.6597s4.7817,10.6592,10.6592,10.6592c5.8779,0,10.6592-4.7812,10.6592-10.6592
		S17.8691,1.3599,11.9912,1.3599z M14.1348,19.9336c-0.3916,0-0.7266-0.2744-0.8145-0.668
		c-0.0879-0.3906,0.0977-0.7695,0.4619-0.9424c1.4346-0.6758,2.2568-1.6055,2.2568-2.5508c0-1.5488-2.2725-2.8867-5.3677-3.2129
		l0.0005,1.292c0.0005,0.9805-1.1343,1.333-1.7427,0.8887l-4.5933-4.0259c-0.248-0.1787-0.417-0.5112-0.4165-0.8608
		c0-0.3545,0.165-0.6777,0.4517-0.8867l4.522-3.9688c0.8276-0.6094,1.7788,0.0239,1.7783,0.8599l0.0005,1.3301
		c5.4736,0.6821,9.3389,3.4888,9.3389,6.7817c0,2.4502-2.0869,4.6602-5.582,5.9121C14.3291,19.917,14.2314,19.9336,14.1348,19.9336z
		 M10.1714,11.5146c0.0107,0,0.022,0.0005,0.0327,0.001c4.0244,0.2651,6.835,2.0156,6.835,4.2568
		c0,0.8672-0.4258,1.6963-1.208,2.4043c2.0117-1.1006,3.1797-2.6055,3.1797-4.207c0-2.8599-3.7012-5.3115-8.8081-5.8389
		c-0.0112,0.0005-0.0215,0.001-0.0308,0.001c-0.2759,0-0.5-0.2236-0.5-0.5L9.6714,5.8579c0-0.0615-0.0591-0.1011-0.0996-0.1011
		L4.9194,9.8545c0.0117,0.0083,0.0645,0.0981,0.0757,0.1079L9.5527,13.96c0.1191-0.0156,0.1191-0.085,0.1191-0.1084l-0.0005-1.8369
		c0-0.1382,0.0571-0.2705,0.1582-0.3647C9.9224,11.5625,10.0449,11.5146,10.1714,11.5146z"/>
</g>
<rect y="0.001" fill="none" width="24" height="24"/>
</svg>
