<?xml version="1.0" encoding="utf-8"?>
<!-- Generator: Adobe Illustrator 18.1.0, SVG Export Plug-In . SVG Version: 6.00 Build 0)  -->
<svg version="1.1" id="Layer_1" xmlns="http://www.w3.org/2000/svg" xmlns:xlink="http://www.w3.org/1999/xlink" x="0px" y="0px"
	 width="24px" height="24px" viewBox="0 0 24 24" enable-background="new 0 0 24 24" xml:space="preserve">
<g>
	<path d="M17.5527,24c-0.0049,0.001-0.0117,0.001-0.0195,0H6.5601c-0.1436,0-0.2808-0.0615-0.3755-0.1699
		c-0.0947-0.1074-0.1387-0.252-0.1206-0.3945L7.9268,9H2.7637c-0.2085,0-0.395-0.1294-0.4683-0.3247S2.2778,8.2603,2.4351,8.123
		l9.291-8.0996c0.1885-0.1641,0.4683-0.1646,0.6577,0.0005l9.2754,8.0996c0.1572,0.1367,0.2119,0.3569,0.1387,0.5522
		C21.7246,8.8706,21.5381,9,21.3301,9H16.166l1.8457,14.2998c0.0264,0.0615,0.041,0.1289,0.041,0.2002
		C18.0527,23.7764,17.8291,24,17.5527,24z M7.1289,23h9.8359L15.1016,8.564c-0.0186-0.1426,0.0254-0.2861,0.1201-0.394
		C15.3174,8.062,15.4541,8,15.5977,8h4.3994l-7.9424-6.936L4.0981,8h4.3975c0.1436,0,0.2808,0.062,0.3755,0.1699
		s0.1387,0.2515,0.1206,0.394L7.1289,23z"/>
	<path d="M6.5322,11H2.7637c-0.2764,0-0.5-0.2236-0.5-0.5s0.2236-0.5,0.5-0.5h3.7686c0.2764,0,0.5,0.2236,0.5,0.5
		S6.8086,11,6.5322,11z"/>
	<path d="M21.3838,11h-3.832c-0.2764,0-0.5-0.2236-0.5-0.5s0.2236-0.5,0.5-0.5h3.832c0.2764,0,0.5,0.2236,0.5,0.5
		S21.6602,11,21.3838,11z"/>
	<path d="M12.1436,19.5342c-0.6152,0-1.4272-0.3379-1.9741-0.8223c-0.2065-0.1826-0.2261-0.498-0.043-0.7051
		c0.1831-0.208,0.5-0.2266,0.7061-0.043c0.3613,0.3193,0.9375,0.5703,1.311,0.5703c0.5234,0,0.9492-0.3535,0.9492-0.7881
		c0-0.1318,0-0.4834-1.0918-0.8076c-0.5474-0.1748-1.8066-0.5762-1.8066-1.7676c0-0.9863,0.8745-1.7881,1.9492-1.7881
		c0.6865,0,1.3301,0.3369,1.6787,0.8789c0.1504,0.2314,0.083,0.541-0.1494,0.6904c-0.2275,0.1514-0.5391,0.084-0.6904-0.1494
		c-0.168-0.2588-0.4893-0.4199-0.8389-0.4199c-0.5234,0-0.9492,0.3535-0.9492,0.7881c0,0.2764,0.187,0.5205,1.1016,0.8115
		c0.4365,0.1299,1.7969,0.5342,1.7969,1.7637C14.0928,18.7324,13.2188,19.5342,12.1436,19.5342z"/>
	<path d="M12.1436,14.3828c-0.2764,0-0.5-0.2236-0.5-0.5v-0.7041c0-0.2764,0.2236-0.5,0.5-0.5s0.5,0.2236,0.5,0.5v0.7041
		C12.6436,14.1592,12.4199,14.3828,12.1436,14.3828z"/>
	<path d="M12.1436,20.2383c-0.2764,0-0.5-0.2236-0.5-0.5v-0.7041c0-0.2764,0.2236-0.5,0.5-0.5s0.5,0.2236,0.5,0.5v0.7041
		C12.6436,20.0146,12.4199,20.2383,12.1436,20.2383z"/>
</g>
<rect fill="none" width="24" height="24"/>
</svg>
