<?xml version="1.0" encoding="utf-8"?>
<!-- Generator: Adobe Illustrator 18.1.0, SVG Export Plug-In . SVG Version: 6.00 Build 0)  -->
<svg version="1.1" id="Layer_1" xmlns="http://www.w3.org/2000/svg" xmlns:xlink="http://www.w3.org/1999/xlink" x="0px" y="0px"
	 width="24px" height="24px" viewBox="0 0 24 24" enable-background="new 0 0 24 24" xml:space="preserve">
<rect x="-0.0136" y="0.0002" fill="none" width="24" height="24"/>
<g>
	<g>
		<g>
			<path d="M6.4995,7.0532h-1c-0.2764,0-0.5-0.2236-0.5-0.5s0.2236-0.5,0.5-0.5h1c0.2764,0,0.5,0.2236,0.5,0.5
				S6.7759,7.0532,6.4995,7.0532z"/>
			<path d="M14.9609,7.0532h-1.6924c-0.2764,0-0.5-0.2236-0.5-0.5s0.2236-0.5,0.5-0.5h1.6924c0.2764,0,0.5,0.2236,0.5,0.5
				S15.2373,7.0532,14.9609,7.0532z M10.7305,7.0532H9.0381c-0.2764,0-0.5-0.2236-0.5-0.5s0.2236-0.5,0.5-0.5h1.6924
				c0.2764,0,0.5,0.2236,0.5,0.5S11.0068,7.0532,10.7305,7.0532z"/>
			<path d="M18.499,7.0532h-1c-0.2764,0-0.5-0.2236-0.5-0.5s0.2236-0.5,0.5-0.5h1c0.2764,0,0.5,0.2236,0.5,0.5
				S18.7754,7.0532,18.499,7.0532z"/>
		</g>
	</g>
	<path d="M16.7588,24H7.2144c-0.2764,0-0.5-0.2236-0.5-0.5c0-0.7031-0.5044-1.4873-1.228-1.4873c-0.2764,0-0.5-0.2236-0.5-0.5
		V2.4868c0-0.2764,0.2236-0.5,0.5-0.5c0.7236,0,1.228-0.7837,1.228-1.4868c0-0.2764,0.2236-0.5,0.5-0.5h9.5444
		c0.2764,0,0.5,0.2236,0.5,0.5c0,0.7031,0.5039,1.4868,1.2275,1.4868c0.2764,0,0.5,0.2236,0.5,0.5v19.0259
		c0,0.2764-0.2236,0.5-0.5,0.5c-0.7236,0-1.2275,0.7842-1.2275,1.4873C17.2588,23.7764,17.0352,24,16.7588,24z M7.6641,23h8.6445
		c0.1748-0.876,0.7939-1.6953,1.6777-1.9238V2.9238C17.1025,2.6948,16.4834,1.8755,16.3086,1H7.6641
		C7.4893,1.8755,6.8706,2.6948,5.9863,2.9238v18.1523C6.8706,21.3047,7.4893,22.124,7.6641,23z"/>
</g>
</svg>
