<?xml version="1.0" encoding="utf-8"?>
<!-- Generator: Adobe Illustrator 18.1.0, SVG Export Plug-In . SVG Version: 6.00 Build 0)  -->
<svg version="1.1" id="Layer_1" xmlns="http://www.w3.org/2000/svg" xmlns:xlink="http://www.w3.org/1999/xlink" x="0px" y="0px"
	 width="24px" height="24px" viewBox="0 0 24 24" enable-background="new 0 0 24 24" xml:space="preserve">
<g>
	<path d="M16.5146,16.9697c0,0,0,0-0.001,0c-1.5898-0.001-3.1016-0.7021-4.5-2.0869c-1.3984,1.3848-2.9102,2.0869-4.5005,2.0869
		c-3.9634,0-7.2617-4.5498-7.2617-6.2661c0-0.2349,0.0591-0.4321,0.1758-0.5864c0.3535-0.4673,1.0254-0.4106,2.0151,0.3682
		c0.854,0.6719,1.5342,1.0122,2.0215,1.0122c0.5474,0,0.9004-0.4277,1.478-1.1841c0.7559-0.9907,1.7915-2.3472,4.0283-2.3472
		c0.9321,0,1.584,0.4922,2.0435,1.022c0.458-0.5298,1.1094-1.022,2.042-1.022c2.2373,0,3.2725,1.3564,4.0283,2.3472
		c0.5781,0.7563,0.9307,1.1841,1.4785,1.1841c0.4873,0,1.168-0.3408,2.0225-1.0122c1.041-0.8203,1.7529-0.8335,2.0684-0.2871
		c0.3359,0.583-0.0947,1.5747-0.5166,2.3037C22.1787,14.1611,19.7061,16.9697,16.5146,16.9697z M12.0137,13.6611
		c0.1406,0,0.2744,0.0586,0.3691,0.1621c1.3018,1.4238,2.6924,2.1455,4.1318,2.1465l0,0c2.4385,0,4.3105-2.0098,5.0029-2.874
		c0.7822-0.9756,1.1348-1.7886,1.2314-2.1924c-0.123,0.064-0.3008,0.1753-0.5469,0.3682c-1.0635,0.8359-1.9023,1.2256-2.6396,1.2266
		c-1.0693,0-1.6807-0.8022-2.2734-1.5781c-0.7324-0.9604-1.4912-1.9536-3.2334-1.9536c-0.7725,0-1.2744,0.6035-1.626,1.1294
		c-0.0928,0.1387-0.249,0.2222-0.416,0.2222l0,0c-0.1665,0-0.3228-0.083-0.4155-0.2217c-0.374-0.5586-0.8604-1.1299-1.6279-1.1299
		c-1.7422,0-2.5005,0.9932-3.2334,1.9536c-0.5923,0.7754-1.2041,1.5771-2.2729,1.5781c-0.7368,0-1.5757-0.3896-2.6396-1.2266
		c-0.2456-0.1934-0.4238-0.3042-0.5464-0.3682c0.0957,0.4033,0.4482,1.2148,1.2295,2.1904c0.6924,0.8643,2.5664,2.876,5.0059,2.876
		c1.4385,0,2.8286-0.7227,4.1313-2.1465C11.7393,13.7197,11.8735,13.6611,12.0137,13.6611z"/>
</g>
<rect x="0.0142" y="0.0354" fill="none" width="24" height="24"/>
</svg>
