<?xml version="1.0" encoding="utf-8"?>
<!-- Generator: Adobe Illustrator 18.1.0, SVG Export Plug-In . SVG Version: 6.00 Build 0)  -->
<svg version="1.1" id="Layer_1" xmlns="http://www.w3.org/2000/svg" xmlns:xlink="http://www.w3.org/1999/xlink" x="0px" y="0px"
	 width="24px" height="24px" viewBox="0 0 24 24" enable-background="new 0 0 24 24" xml:space="preserve">
<g>
	<path d="M15.3271,24H5.5576c-0.1401,0-0.2739-0.0586-0.3687-0.1621s-0.1416-0.2412-0.1294-0.3809L6.7769,3.7056
		c0.1748-2.0171,1.7505-3.5381,3.6655-3.5381c1.9141,0,3.4902,1.521,3.666,3.5381l0.0254,0.2671
		c0.0254,0.2749-0.1768,0.519-0.4512,0.5449c-0.2715,0.0259-0.5195-0.1768-0.5449-0.4512l-0.0254-0.2705
		c-0.1309-1.5-1.2783-2.6284-2.6699-2.6284c-1.3921,0-2.5396,1.1284-2.6694,2.6245L6.103,23h8.6792L13.3066,6.0488
		c-0.0244-0.2754,0.1797-0.5176,0.4551-0.5415c0.2627-0.0312,0.5166,0.1792,0.541,0.4546l1.5225,17.4951
		c0.0127,0.1396-0.0352,0.2773-0.1299,0.3809S15.4678,24,15.3271,24z"/>
	<path d="M22.252,7.6099c-0.0225,0-0.0439-0.0015-0.0654-0.0044L11.1328,6.1387c-0.2485-0.0327-0.4341-0.2451-0.4341-0.4956V4.3398
		c0-0.251,0.1855-0.4629,0.4341-0.4956l11.0537-1.4663c0.9121,0.0347,1.5576,1.0962,1.5576,2.6138
		C23.7441,6.5088,23.1162,7.6099,22.252,7.6099z M11.6987,5.2051l10.5601,1.4014c0.1543-0.064,0.4854-0.6548,0.4854-1.6147
		c0-0.9854-0.3486-1.5811-0.4971-1.6187L11.6987,4.7778V5.2051z"/>
	<path d="M15.9863,9h-11c-0.2764,0-0.5-0.2236-0.5-0.5S4.71,8,4.9863,8h11c0.2764,0,0.5,0.2236,0.5,0.5S16.2627,9,15.9863,9z"/>
	<path d="M6.5498,12.584c-0.1968,0-0.3838-0.1172-0.4629-0.3105c-0.1045-0.2559,0.0181-0.5479,0.2734-0.6523l7.5176-3.0757
		c0.2559-0.1035,0.5479,0.0181,0.6523,0.2734c0.1045,0.2559-0.0176,0.5479-0.2734,0.6523l-7.5176,3.0757
		C6.6772,12.5723,6.6133,12.584,6.5498,12.584z"/>
	<path d="M6.0415,18.4355c-0.1958,0-0.3818-0.1152-0.4614-0.3076c-0.1064-0.2549,0.0142-0.5479,0.269-0.6543l8.4946-3.5361
		c0.2568-0.1006,0.5479,0.0137,0.6543,0.2695c0.1055,0.2549-0.0146,0.5479-0.2695,0.6543l-8.4946,3.5361
		C6.1709,18.4229,6.106,18.4355,6.0415,18.4355z"/>
	<path d="M6.1499,23.9766c-0.1958,0-0.3818-0.1152-0.4614-0.3076c-0.1064-0.2549,0.0142-0.5479,0.269-0.6543l8.855-3.6865
		c0.2559-0.1016,0.5479,0.0137,0.6543,0.2695c0.1055,0.2549-0.0146,0.5479-0.2695,0.6543l-8.855,3.6865
		C6.2793,23.9639,6.2144,23.9766,6.1499,23.9766z"/>
	<path d="M20.3438,24h-5.0166c-0.2764,0-0.5-0.2236-0.5-0.5s0.2236-0.5,0.5-0.5h5.0166c0.2764,0,0.5,0.2236,0.5,0.5
		S20.6201,24,20.3438,24z"/>
	<path d="M5.5576,24H0.541c-0.2764,0-0.5-0.2236-0.5-0.5s0.2236-0.5,0.5-0.5h5.0166c0.2764,0,0.5,0.2236,0.5,0.5S5.834,24,5.5576,24
		z"/>
</g>
<rect x="-0.0137" y="0.0001" fill="none" width="24" height="24"/>
</svg>
