<?xml version="1.0" encoding="utf-8"?>
<!-- Generator: Adobe Illustrator 18.1.0, SVG Export Plug-In . SVG Version: 6.00 Build 0)  -->
<svg version="1.1" id="Layer_1" xmlns="http://www.w3.org/2000/svg" xmlns:xlink="http://www.w3.org/1999/xlink" x="0px" y="0px"
	 width="24px" height="24px" viewBox="0 0 24 24" enable-background="new 0 0 24 24" xml:space="preserve">
<rect x="-0.0008" y="-0.0146" fill="none" width="24" height="24"/>
<g>
	<path d="M11.9414,2.8989c-0.2764,0-0.5-0.2236-0.5-0.5V0.5557c0-0.2764,0.2236-0.5,0.5-0.5s0.5,0.2236,0.5,0.5v1.8433
		C12.4414,2.6753,12.2178,2.8989,11.9414,2.8989z"/>
	<path d="M11.9414,21.5957c-0.2764,0-0.5-0.2236-0.5-0.5v-6.3574c0-0.2764,0.2236-0.5,0.5-0.5s0.5,0.2236,0.5,0.5v6.3574
		C12.4414,21.3721,12.2178,21.5957,11.9414,21.5957z"/>
	<path d="M14.2119,23.8662c-1.5273,0-2.7705-1.2432-2.7705-2.7705c0-0.2764,0.2236-0.5,0.5-0.5s0.5,0.2236,0.5,0.5
		c0,0.9766,0.7939,1.7705,1.7705,1.7705s1.7705-0.7939,1.7705-1.7705c0-0.2764,0.2236-0.5,0.5-0.5s0.5,0.2236,0.5,0.5
		C16.9824,22.623,15.7393,23.8662,14.2119,23.8662z"/>
	<path d="M23.4238,13.0312c-0.0039,0.001-0.0117,0-0.0195,0h-0.2236c-0.2129,0-0.4033-0.1348-0.4727-0.3369
		c-0.3291-0.9521-1.2266-1.5918-2.2324-1.5918s-1.9033,0.6396-2.2324,1.5918c-0.0693,0.2021-0.2598,0.3369-0.4727,0.3369h-0.3184
		c-0.2129,0-0.4023-0.1348-0.4727-0.3359c-0.3301-0.9526-1.2275-1.5928-2.2324-1.5928c-1.0059,0-1.9033,0.6396-2.2324,1.5918
		c-0.0693,0.2021-0.2598,0.3369-0.4727,0.3369h-0.2085c-0.2129,0-0.4028-0.1348-0.4727-0.3369
		c-0.3296-0.9521-1.2266-1.5918-2.2324-1.5918c-1.0063,0-1.9033,0.6396-2.2324,1.5918c-0.0698,0.2021-0.2593,0.3369-0.4727,0.3369
		H6.1045c-0.2134,0-0.4028-0.1348-0.4727-0.3369c-0.3291-0.9521-1.2261-1.5918-2.2319-1.5918c-1.0063,0-1.9033,0.6396-2.2324,1.5918
		c-0.0698,0.2021-0.2593,0.3369-0.4727,0.3369H0.5356c-0.2764,0-0.5-0.2236-0.5-0.5c0-5.8628,5.3535-10.6323,11.9341-10.6323
		c6.5273,0,11.8467,4.6914,11.9336,10.4878c0.0137,0.0459,0.0205,0.0947,0.0205,0.1445
		C23.9238,12.8076,23.7002,13.0312,23.4238,13.0312z M3.3999,10.1025c1.1836,0,2.2612,0.6221,2.8643,1.603
		c0.6025-0.981,1.6802-1.603,2.8643-1.603c1.1484,0,2.1973,0.5854,2.8091,1.5166c0.6123-0.9312,1.6611-1.5166,2.8096-1.5166
		c1.1826,0,2.2607,0.6221,2.8643,1.603c0.6025-0.981,1.6807-1.603,2.8643-1.603c0.8701,0,1.6826,0.3359,2.292,0.9033
		c-0.833-4.5889-5.3574-8.1069-10.7979-8.1069c-5.4121,0-9.9189,3.4824-10.7842,8.0371
		C1.7852,10.4111,2.5664,10.1025,3.3999,10.1025z"/>
</g>
</svg>
