<?xml version="1.0" encoding="utf-8"?>
<!-- Generator: Adobe Illustrator 18.1.0, SVG Export Plug-In . SVG Version: 6.00 Build 0)  -->
<svg version="1.1" id="Layer_1" xmlns="http://www.w3.org/2000/svg" xmlns:xlink="http://www.w3.org/1999/xlink" x="0px" y="0px"
	 width="24px" height="24px" viewBox="0 0 24 24" enable-background="new 0 0 24 24" xml:space="preserve">
<g>
	<path d="M7.5005,19.9697H1.6201c-0.2764,0-0.5-0.2236-0.5-0.5s0.2236-0.5,0.5-0.5h5.8804c0.7959,0,1.4434-0.6475,1.4434-1.4434
		v-1.4482c0-0.2764,0.2236-0.5,0.5-0.5s0.5,0.2236,0.5,0.5v1.4482C9.9438,18.874,8.8477,19.9697,7.5005,19.9697z"/>
	<path d="M22.1533,16.2998c-0.041,0-0.084-0.0049-0.126-0.0156l-3.4902-0.9062c-0.165-0.043-0.2979-0.168-0.3496-0.3311
		c-0.0527-0.1631-0.0186-0.3418,0.0908-0.4727l3.1475-3.7852c0.124-0.1494,0.3223-0.2114,0.5107-0.1641l1.4629,0.3799
		c0.1279,0.0332,0.2383,0.1162,0.3047,0.2305c0.0674,0.1143,0.0869,0.251,0.0537,0.3794l-1.1201,4.311
		C22.5791,16.1504,22.376,16.2998,22.1533,16.2998z M19.5508,14.6074l2.2441,0.583l0.8691-3.3433l-0.6719-0.1743L19.5508,14.6074z"
		/>
	<path d="M17.2979,16.5039c-0.1211,0-0.2422-0.0146-0.3594-0.0449L1.2852,12.457c-0.3745-0.0957-0.689-0.332-0.8862-0.6646
		s-0.2529-0.7217-0.1567-1.0962L1.832,4.4766c0.1934-0.7583,0.9951-1.2412,1.7612-1.0435L22.1836,8.186
		c0.4824,0.1235,0.8623,0.4805,1.0166,0.9551c0.1543,0.4751,0.0566,0.9868-0.2607,1.3701l-4.5273,5.4683
		C18.1377,16.3125,17.7305,16.5039,17.2979,16.5039z M3.2344,4.3877c-0.2046,0-0.3828,0.1387-0.4336,0.3369l-1.5898,6.2197
		c-0.0298,0.1157-0.0127,0.2358,0.0483,0.3384c0.0605,0.1025,0.1577,0.1753,0.2734,0.2051l15.6548,4.0024
		c0.167,0.0449,0.3457-0.0166,0.4541-0.1484l4.5283-5.4688c0.1406-0.1699,0.1025-0.3525,0.0791-0.4229
		c-0.0225-0.0708-0.0996-0.2407-0.3135-0.2954L3.3442,4.4019C3.3076,4.3926,3.271,4.3877,3.2344,4.3877z"/>
	<path d="M17.4697,10.9497c-0.1299,0-0.2598-0.0498-0.3496-0.1396c-0.0898-0.0903-0.1504-0.2202-0.1504-0.3501
		c0-0.1401,0.0605-0.27,0.1504-0.3604c0.1895-0.1899,0.5098-0.1899,0.6992,0c0.1006,0.1001,0.1504,0.23,0.1504,0.3604
		c0,0.1196-0.0498,0.25-0.1396,0.3398C17.7295,10.8999,17.5996,10.9497,17.4697,10.9497z"/>
</g>
<rect x="-0.0137" fill="none" width="24" height="24"/>
</svg>
