<?xml version="1.0" encoding="utf-8"?>
<!-- Generator: Adobe Illustrator 18.1.0, SVG Export Plug-In . SVG Version: 6.00 Build 0)  -->
<svg version="1.1" id="Layer_1" xmlns="http://www.w3.org/2000/svg" xmlns:xlink="http://www.w3.org/1999/xlink" x="0px" y="0px"
	 width="24px" height="24px" viewBox="0 0 24 24" enable-background="new 0 0 24 24" xml:space="preserve">
<g>
	<path d="M20.4014,22.3721c-0.3486,0-0.6992-0.1162-1.0137-0.3496c-0.0693-0.0508-0.3135-0.208-0.5225-0.04
		c-0.6006,0.4805-1.4258,0.5059-2.0488,0.0615c-0.2002-0.1445-0.4316-0.1465-0.6338,0c-0.5967,0.4258-1.3711,0.4248-1.9668,0
		c-0.2002-0.1445-0.4316-0.1465-0.6338,0c-0.5938,0.4258-1.3662,0.4268-1.9663,0c-0.2012-0.1445-0.4321-0.1445-0.6333,0
		c-0.5957,0.4248-1.3687,0.4268-1.9668,0c-0.2021-0.1445-0.4321-0.1445-0.6333,0c-0.6245,0.4443-1.4468,0.4229-2.0483-0.0615
		c-0.2085-0.167-0.4531-0.0117-0.5229,0.041c-0.4907,0.3633-1.0884,0.4404-1.6431,0.2148c-0.5996-0.2461-1.0376-0.8213-1.1436-1.502
		c-0.0425-0.2734,0.1445-0.5293,0.4175-0.5713c0.2754-0.0381,0.5288,0.1455,0.5708,0.417c0.0522,0.3369,0.2573,0.6172,0.5347,0.7305
		c0.1299,0.0537,0.3911,0.1133,0.667-0.0918c0.5557-0.415,1.2422-0.4229,1.7456-0.0176c0.2549,0.2041,0.5771,0.2148,0.8413,0.0264
		c0.5449-0.3887,1.25-0.3887,1.7949,0c0.248,0.1777,0.5571,0.1777,0.8052,0c0.5449-0.3887,1.25-0.3887,1.7949,0
		c0.2471,0.1768,0.5557,0.1777,0.8047,0.001c0.5469-0.3906,1.25-0.3896,1.7949-0.001c0.25,0.1777,0.5596,0.1768,0.8066,0
		c0.543-0.3877,1.2471-0.3896,1.7939,0c0.2656,0.1895,0.5889,0.1777,0.8428-0.0273c0.501-0.4023,1.1865-0.3955,1.7451,0.0166
		c0.3936,0.2939,0.7188,0.0977,0.8789-0.043c0.3076-0.2744,0.499-0.8105,0.1914-1.3379c-0.3398-0.584-0.3467-1.2744-0.0176-1.7998
		c0.207-0.3301,0.2178-0.7822,0.0264-1.124c-0.3193-0.5732-0.3193-1.2861,0-1.8604c0.1836-0.3281,0.1826-0.751,0-1.0791
		c-0.1348-0.2412-0.0479-0.5459,0.1924-0.6807c0.2393-0.1338,0.5449-0.0479,0.6807,0.1924c0.3486,0.625,0.3486,1.4316,0,2.0547
		c-0.1523,0.2725-0.1523,0.6123,0,0.8857c0.3701,0.6621,0.3496,1.5029-0.0527,2.1416c-0.1289,0.207-0.1152,0.5078,0.0352,0.7666
		c0.5635,0.9658,0.2305,2.0332-0.3896,2.5869C21.1943,22.2207,20.7998,22.3721,20.4014,22.3721z"/>
	<path d="M3.498,12.0752c-0.2764,0-0.5-0.2241-0.5-0.5005c0-0.4019,0.1094-0.7876,0.3159-1.1162
		c0.1294-0.2061,0.1157-0.5063-0.0347-0.7651C3.0391,9.2812,2.9487,8.7832,3.0244,8.2925c0.106-0.6816,0.5444-1.2573,1.1445-1.5029
		C4.7236,6.563,5.3208,6.6416,5.8101,7.0049c0.0698,0.0518,0.313,0.208,0.5239,0.0405c0.6016-0.4814,1.4248-0.5059,2.0483-0.061
		C8.5835,7.127,8.814,7.1274,9.0151,6.9839c0.5986-0.4263,1.3696-0.4263,1.9673,0.0005c0.2012,0.1426,0.4316,0.1431,0.6328-0.0005
		c0.5977-0.4258,1.3682-0.4263,1.9678,0.0005c0.2246,0.1602,0.2764,0.4727,0.1162,0.6973
		c-0.1611,0.2256-0.4717,0.2769-0.6982,0.1162c-0.248-0.1763-0.5557-0.1772-0.8047,0c-0.5449,0.3896-1.25,0.3892-1.7949,0.0005
		c-0.248-0.1777-0.5571-0.1772-0.8052-0.0005c-0.5449,0.3896-1.25,0.3892-1.7949,0.0005c-0.2637-0.188-0.5854-0.1777-0.8418,0.0269
		C6.4565,8.228,5.7729,8.2217,5.2134,7.8076C4.937,7.6016,4.6768,7.6621,4.5479,7.7148C4.27,7.8286,4.0649,8.1084,4.0127,8.4453
		c-0.041,0.2651,0.0054,0.5298,0.1309,0.7451c0.3408,0.585,0.3472,1.2749,0.0171,1.8003c-0.1064,0.1689-0.1626,0.3711-0.1626,0.584
		C3.998,11.8511,3.7744,12.0752,3.498,12.0752z"/>
	<path d="M5.5029,11.0332c-0.2764,0-0.5-0.2236-0.5-0.5V9.5c0-0.2764,0.2236-0.5,0.5-0.5h6.9219c0.2764,0,0.5,0.2236,0.5,0.5
		s-0.2236,0.5-0.5,0.5H6.0029v0.5332C6.0029,10.8096,5.7793,11.0332,5.5029,11.0332z"/>
	<path d="M19.5029,20h-6.8936c-0.2764,0-0.5-0.2236-0.5-0.5s0.2236-0.5,0.5-0.5h6.3936v-4.5c0-0.2764,0.2236-0.5,0.5-0.5
		s0.5,0.2236,0.5,0.5v5C20.0029,19.7764,19.7793,20,19.5029,20z"/>
	<path d="M18.9951,11.397c-1.6543,0-3-1.374-3-3.0625s1.3457-3.0625,3-3.0625s3,1.374,3,3.0625S20.6494,11.397,18.9951,11.397z
		 M18.9951,6.272c-1.1025,0-2,0.9253-2,2.0625s0.8975,2.0625,2,2.0625s2-0.9253,2-2.0625S20.0977,6.272,18.9951,6.272z"/>
	<path d="M18.9951,13.165c-2.6055,0-4.7246-2.167-4.7246-4.8306s2.1191-4.8306,4.7246-4.8306s4.7246,2.167,4.7246,4.8306
		S21.6006,13.165,18.9951,13.165z M18.9951,4.5039c-2.0537,0-3.7246,1.7183-3.7246,3.8306s1.6709,3.8306,3.7246,3.8306
		s3.7246-1.7183,3.7246-3.8306S21.0488,4.5039,18.9951,4.5039z"/>
	<path d="M9.3662,14.6387c-0.6045,0-1.1719-0.2402-1.5981-0.6768c-0.4731-0.4863-1.2925-0.4854-1.7642-0.001
		c-0.8525,0.875-2.3438,0.874-3.1963,0.001c-0.4727-0.4863-1.292-0.4863-1.7646,0c-0.1929,0.1963-0.5098,0.2021-0.707,0.0078
		c-0.1978-0.1924-0.2017-0.5088-0.0088-0.707c0.8525-0.873,2.3438-0.873,3.1963,0c0.4727,0.4863,1.292,0.4863,1.7646,0
		c0.8516-0.8721,2.3442-0.874,3.1958,0.001c0.4727,0.4844,1.292,0.4854,1.7646-0.001c0.1934-0.1963,0.5103-0.2021,0.707-0.0078
		c0.1978,0.1924,0.2017,0.5088,0.0088,0.707C10.5381,14.3984,9.9707,14.6387,9.3662,14.6387z"/>
	<path d="M9.3662,17.0498c-0.6045,0-1.1719-0.2402-1.5981-0.6768c-0.4731-0.4873-1.2925-0.4854-1.7642-0.001
		c-0.8525,0.875-2.3438,0.874-3.1963,0.001c-0.4727-0.4863-1.292-0.4863-1.7646,0c-0.1929,0.1973-0.5098,0.2031-0.707,0.0078
		c-0.1978-0.1924-0.2017-0.5088-0.0088-0.707c0.8525-0.873,2.3438-0.873,3.1963,0c0.4727,0.4863,1.292,0.4863,1.7646,0
		c0.8516-0.8721,2.3442-0.874,3.1958,0.001c0.4727,0.4844,1.292,0.4854,1.7646-0.001c0.1934-0.1953,0.5103-0.2012,0.707-0.0078
		c0.1978,0.1924,0.2017,0.5088,0.0088,0.707C10.5381,16.8096,9.9707,17.0498,9.3662,17.0498z"/>
	<path d="M9.3662,19.4609c-0.604,0-1.1719-0.2412-1.5977-0.6768c-0.4746-0.4873-1.293-0.4854-1.7646-0.001
		c-0.8525,0.873-2.3442,0.8721-3.1958,0.001c-0.4736-0.4863-1.2925-0.4863-1.7651,0c-0.1929,0.1973-0.5098,0.2031-0.707,0.0078
		c-0.1978-0.1924-0.2017-0.5088-0.0088-0.707c0.8525-0.873,2.3438-0.873,3.1963,0c0.4727,0.4844,1.2915,0.4844,1.7651,0
		c0.8506-0.8721,2.3438-0.874,3.1953,0.001c0.4727,0.4824,1.2915,0.4834,1.7651-0.001c0.1929-0.1963,0.5088-0.2021,0.707-0.0078
		c0.1973,0.1924,0.2012,0.5098,0.0078,0.707C10.5381,19.2197,9.9702,19.4609,9.3662,19.4609z"/>
</g>
<rect fill="none" width="24" height="24"/>
</svg>
