<?xml version="1.0" encoding="utf-8"?>
<!-- Generator: Adobe Illustrator 18.1.0, SVG Export Plug-In . SVG Version: 6.00 Build 0)  -->
<svg version="1.1" id="Layer_1" xmlns="http://www.w3.org/2000/svg" xmlns:xlink="http://www.w3.org/1999/xlink" x="0px" y="0px"
	 width="24px" height="24px" viewBox="0 0 24 24" enable-background="new 0 0 24 24" xml:space="preserve">
<g>
	<path d="M10.3032,17.9697c-0.272,0-0.4946-0.2178-0.5-0.4902c-0.0273-1.418-0.4253-2.4971-1.1836-3.2051
		c-1.0796-1.0078-2.563-0.9482-2.5786-0.9482c-0.2275,0.0303-0.4775-0.1689-0.5186-0.4199
		c-0.0405-0.252,0.1143-0.4932,0.3599-0.5615L16.957,9.2896c0.2646-0.0718,0.541,0.083,0.6152,0.3491
		c0.0732,0.2661-0.083,0.5415-0.3496,0.6147l-9.0991,2.5103c0.3926,0.1768,0.7959,0.4248,1.168,0.7695
		c0.9702,0.9004,1.479,2.2217,1.5117,3.9268c0.0054,0.2764-0.2144,0.5039-0.4902,0.5098
		C10.3096,17.9697,10.3062,17.9697,10.3032,17.9697z"/>
	<path d="M12.8135,17.9697c-0.0029,0-0.0059,0-0.0098,0c-0.2764-0.0059-0.4951-0.2334-0.4902-0.5098
		c0.0293-1.5078,0.4805-2.6738,1.3408-3.4668c1.2412-1.1436,2.8682-1.0586,2.9336-1.0508c0.2754,0.0176,0.4854,0.2549,0.4678,0.5303
		c-0.0176,0.2744-0.2617,0.4873-0.5283,0.4678c-0.0146-0.001-1.2861-0.0566-2.2031,0.7949
		c-0.6475,0.6016-0.9873,1.5244-1.0107,2.7441C13.3086,17.752,13.085,17.9697,12.8135,17.9697z"/>
	<path d="M6.0146,9.4736c-0.2192,0-0.4204-0.1455-0.4814-0.3672C5.4595,8.8403,5.6157,8.5649,5.8823,8.4917L16.957,5.436
		c0.2646-0.0737,0.541,0.083,0.6152,0.3491c0.0732,0.2661-0.083,0.5415-0.3496,0.6147L6.1479,9.4556
		C6.1035,9.4678,6.0591,9.4736,6.0146,9.4736z"/>
	<path d="M6.0151,5.6201c-0.2158,0-0.415-0.1406-0.4795-0.3579C5.4575,4.9971,5.6084,4.7192,5.873,4.6406l7.1816-2.1255
		c0.2119-0.0781,0.959-0.438,0.6172-1.4385c-0.0889-0.2612,0.0508-0.5454,0.3125-0.6348c0.2559-0.0889,0.5449,0.0503,0.6348,0.3115
		c0.5107,1.4956-0.4736,2.4424-1.2598,2.7139L6.1572,5.5996C6.1099,5.6138,6.062,5.6201,6.0151,5.6201z"/>
	<path d="M12.4141,24.0146h-1.7231c-0.2422,0-0.4497-0.1738-0.4922-0.4121l-0.2461-1.3789
		c-0.7886-0.2988-2.3574-1.3408-1.6807-4.8047c0.0459-0.2354,0.2515-0.4043,0.4907-0.4043h5.5791
		c0.2393,0,0.4453,0.1689,0.4912,0.4043c0.6758,3.4639-0.8926,4.5049-1.6807,4.8047l-0.2461,1.3789
		C12.8633,23.8408,12.6562,24.0146,12.4141,24.0146z M11.1094,23.0146h0.8862l0.2261-1.2676
		c0.0361-0.2002,0.1895-0.3594,0.3887-0.4014c0.8633-0.1816,1.6299-1.1553,1.3105-3.3311H9.1841
		c-0.3198,2.1758,0.4468,3.1494,1.3101,3.3311c0.1992,0.042,0.3535,0.2012,0.3892,0.4014L11.1094,23.0146z"/>
</g>
<rect x="0.0142" y="0.0147" fill="none" width="24" height="24"/>
</svg>
