<?xml version="1.0" encoding="utf-8"?>
<!-- Generator: Adobe Illustrator 18.1.0, SVG Export Plug-In . SVG Version: 6.00 Build 0)  -->
<svg version="1.1" id="Layer_1" xmlns="http://www.w3.org/2000/svg" xmlns:xlink="http://www.w3.org/1999/xlink" x="0px" y="0px"
	 width="24px" height="24px" viewBox="0 0 24 24" enable-background="new 0 0 24 24" xml:space="preserve">
<g>
	<path d="M23.5293,8h-21c-0.2764,0-0.5-0.2236-0.5-0.5v-2c0-1.3784,1.1216-2.5,2.5-2.5h18c0.8271,0,1.5,0.6729,1.5,1.5v3
		C24.0293,7.7764,23.8057,8,23.5293,8z M3.0293,7h20V4.5c0-0.2759-0.2246-0.5-0.5-0.5h-18c-0.8271,0-1.5,0.6729-1.5,1.5V7z"/>
	<path d="M11.7402,12.4922c-0.1538,0-0.3062-0.0703-0.4048-0.2031c-0.3955-0.5317-0.2617-1.7402-0.1855-2.2349
		c0.0415-0.2729,0.2935-0.4629,0.5698-0.4185c0.2729,0.0415,0.46,0.2969,0.4189,0.5698c-0.0947,0.6191-0.0938,1.3301,0.0029,1.4912
		c0.1641,0.2217,0.1172,0.5327-0.1045,0.6978C11.9478,12.46,11.8438,12.4922,11.7402,12.4922z"/>
	<path d="M7.4312,10.0166H6.4868c-0.2764,0-0.5-0.2236-0.5-0.5s0.2236-0.5,0.5-0.5h0.9443c0.2764,0,0.5,0.2236,0.5,0.5
		S7.7075,10.0166,7.4312,10.0166z"/>
	<path d="M5.5352,21.8604H1.4888c-0.3008,0-0.5571-0.1309-0.7036-0.3584c-0.1406-0.2197-0.1567-0.498-0.043-0.7461
		c0.1152-0.251,0.4116-0.3623,0.6626-0.2461c0.1499,0.0684,0.2495,0.2012,0.2812,0.3506h3.8491
		c-0.0024-0.0127,0.1182-0.1201,0.1914-0.21c0.1729-0.2139,0.4878-0.248,0.7021-0.0752c0.2148,0.1719,0.25,0.4854,0.0786,0.7002
		C6.3979,21.4131,6.0049,21.8604,5.5352,21.8604z"/>
	<path d="M4.5293,4.0005c-0.2764,0-0.5-0.2236-0.5-0.5V2.5312c0-0.2764,0.2236-0.5,0.5-0.5s0.5,0.2236,0.5,0.5v0.9692
		C5.0293,3.7769,4.8057,4.0005,4.5293,4.0005z"/>
	<path d="M22.5293,4c-0.2764,0-0.5-0.2236-0.5-0.5V2.5312c0-0.2764,0.2236-0.5,0.5-0.5s0.5,0.2236,0.5,0.5V3.5
		C23.0293,3.7764,22.8057,4,22.5293,4z"/>
	<path d="M1.918,20.0244c-0.1934,0-0.2104-0.001-0.2212-0.0029c-0.4375-0.0742-1.1953-0.4883-1.1904-1.5547
		c0.0073-1.5205,2.2368-6.2998,2.4912-6.8394c0.3237-0.687,0.0381-1.9888-0.0991-2.4321C2.8169,8.9316,2.9644,8.6514,3.2275,8.5698
		c0.2642-0.083,0.5435,0.0649,0.626,0.3281c0.0625,0.2012,0.5957,1.9961,0.0483,3.1558c-0.9604,2.04-2.3911,5.4326-2.3955,6.417
		c-0.0024,0.498,0.3125,0.5586,0.3262,0.5615c0.105-0.002,2.4775-0.0234,4.4062-0.043c-0.0054-0.2363,0.0327-0.5088,0.1099-0.7793
		c0.1172-0.4111,0.2905-0.7354,0.4976-0.9512c-0.062-0.292-0.0391-0.6572,0.0776-1.0674c0.1167-0.4111,0.29-0.7344,0.4971-0.9502
		c-0.062-0.292-0.0391-0.6572,0.0776-1.0664c0.1782-0.6279,0.4883-1.0518,0.8496-1.1992l1.0752-2.959
		C9.4927,9.8247,9.6724,9.6948,9.876,9.688l11.1865-0.3779V9.0469c0-0.2764,0.2236-0.5,0.5-0.5s0.5,0.2236,0.5,0.5v0.7466
		c0,0.2695-0.2139,0.4907-0.4834,0.4995l-11.3315,0.3828l-1.0625,2.9238c-0.0747,0.207-0.2607,0.3408-0.4834,0.3291
		c-0.1768,0.1885-0.3604,0.832-0.3096,1.0859c0.1533,0.0889,0.248,0.2549,0.248,0.4316c0,0.0449-0.0059,0.0908-0.019,0.1367
		c-0.064,0.2246-0.2773,0.3535-0.4946,0.3633c-0.1768,0.1885-0.3599,0.832-0.3091,1.0859c0.1533,0.0889,0.248,0.2549,0.248,0.4316
		c0,0.0449-0.0059,0.0908-0.019,0.1367c-0.064,0.2246-0.2817,0.3613-0.4946,0.3633c-0.1768,0.1885-0.3599,0.832-0.3096,1.0859
		c0.1709,0.0996,0.271,0.2939,0.2437,0.498c-0.0332,0.2461-0.2422,0.4307-0.4907,0.4336
		C3.4961,20.0176,2.3218,20.0244,1.918,20.0244z"/>
	<path d="M13.4795,13.9629c-0.0332,0-0.0664-0.001-0.0996-0.0029l-4.6685-0.0312c-0.2764-0.002-0.4985-0.2275-0.4966-0.5039
		c0.002-0.2744,0.2256-0.4961,0.5-0.4961c0.001,0,0.0024,0,0.0034,0l4.6899,0.0322c0.2871,0.0137,0.5449-0.0811,0.7402-0.2676
		c0.1943-0.1855,0.3018-0.4355,0.3018-0.7041v-1.9614c0-0.2764,0.2236-0.5,0.5-0.5s0.5,0.2236,0.5,0.5v1.9614
		c0,0.5449-0.2178,1.0527-0.6123,1.4287C14.4668,13.7715,13.9873,13.9629,13.4795,13.9629z"/>
</g>
<rect x="0.0293" fill="none" width="24" height="24"/>
</svg>
