<?xml version="1.0" encoding="utf-8"?>
<!-- Generator: Adobe Illustrator 18.1.0, SVG Export Plug-In . SVG Version: 6.00 Build 0)  -->
<svg version="1.1" id="Layer_1" xmlns="http://www.w3.org/2000/svg" xmlns:xlink="http://www.w3.org/1999/xlink" x="0px" y="0px"
	 width="24px" height="24px" viewBox="0 0 24 24" enable-background="new 0 0 24 24" xml:space="preserve">
<g>
	<path d="M7.4541,23.1816c-3.9746,0-7.208-3.2344-7.208-7.209s3.2334-7.208,7.208-7.208c3.9751,0,7.209,3.2334,7.209,7.208
		S11.4292,23.1816,7.4541,23.1816z M7.4541,9.7646c-3.4233,0-6.208,2.7852-6.208,6.208c0,3.4238,2.7847,6.209,6.208,6.209
		c3.4238,0,6.209-2.7852,6.209-6.209C13.6631,12.5498,10.8779,9.7646,7.4541,9.7646z"/>
	<path d="M16.5439,23.1816c-3.9746,0-7.209-3.2344-7.209-7.209s3.2344-7.208,7.209-7.208s7.208,3.2334,7.208,7.208
		S20.5186,23.1816,16.5439,23.1816z M16.5439,9.7646c-3.4238,0-6.209,2.7852-6.209,6.208c0,3.4238,2.7852,6.209,6.209,6.209
		c3.4229,0,6.208-2.7852,6.208-6.209C22.752,12.5498,19.9668,9.7646,16.5439,9.7646z"/>
	<path d="M12.0098,15.2139c-3.9746,0-7.2085-3.2339-7.2085-7.209c0-3.9746,3.2339-7.208,7.2085-7.208s7.208,3.2334,7.208,7.208
		c0.001,1.9224-0.75,3.7319-2.1133,5.0957C15.7422,14.4629,13.9326,15.2139,12.0098,15.2139z M12.0098,1.7969
		c-3.4233,0-6.2085,2.7847-6.2085,6.208c0,3.4238,2.7852,6.209,6.2085,6.209c1.6553,0,3.2139-0.6465,4.3877-1.8213
		c1.1748-1.1738,1.8203-2.7319,1.8203-4.3877C18.2178,4.5815,15.4326,1.7969,12.0098,1.7969z"/>
</g>
<rect y="-0.0001" fill="none" width="24" height="24"/>
</svg>
