<?xml version="1.0" encoding="utf-8"?>
<!-- Generator: Adobe Illustrator 18.1.0, SVG Export Plug-In . SVG Version: 6.00 Build 0)  -->
<svg version="1.1" id="Layer_1" xmlns="http://www.w3.org/2000/svg" xmlns:xlink="http://www.w3.org/1999/xlink" x="0px" y="0px"
	 width="24px" height="24px" viewBox="0 0 24 24" enable-background="new 0 0 24 24" xml:space="preserve">
<g>
	<path d="M11.999,23.7324c-6.4536,0-11.7041-5.25-11.7041-11.7041c0-6.4536,5.2505-11.7036,11.7041-11.7036
		c6.4541,0,11.7041,5.25,11.7041,11.7036C23.7031,18.4824,18.4531,23.7324,11.999,23.7324z M11.999,1.3247
		c-5.9023,0-10.7041,4.8018-10.7041,10.7036c0,5.9023,4.8018,10.7041,10.7041,10.7041s10.7041-4.8018,10.7041-10.7041
		C22.7031,6.1265,17.9014,1.3247,11.999,1.3247z"/>
	<path d="M11.999,17.7529c-3.1567,0-5.7246-2.5684-5.7246-5.7246s2.5679-5.7241,5.7246-5.7241c3.1562,0,5.7246,2.5679,5.7246,5.7241
		S15.1553,17.7529,11.999,17.7529z M11.999,7.3042c-2.605,0-4.7246,2.1191-4.7246,4.7241c0,2.6055,2.1196,4.7246,4.7246,4.7246
		c2.6055,0,4.7246-2.1191,4.7246-4.7246C16.7236,9.4233,14.6045,7.3042,11.999,7.3042z"/>
	<path d="M15.9404,9.1011c-0.1279,0-0.2559-0.0488-0.3535-0.1465c-0.1953-0.1953-0.1953-0.5117,0-0.707l4.2324-4.2329
		c0.1953-0.1953,0.5117-0.1953,0.707,0s0.1953,0.5117,0,0.707l-4.2324,4.2329C16.1963,9.0522,16.0684,9.1011,15.9404,9.1011z"/>
	<path d="M4.3384,20.7041c-0.1279,0-0.2559-0.0488-0.3535-0.1465c-0.1953-0.1953-0.1953-0.5117,0-0.707l4.2329-4.2334
		c0.1953-0.1953,0.5117-0.1953,0.707,0s0.1953,0.5117,0,0.707l-4.2329,4.2334C4.5942,20.6553,4.4663,20.7041,4.3384,20.7041z"/>
	<path d="M20.1729,20.1885c-0.1279,0-0.2559-0.0488-0.3535-0.1465l-4.2324-4.2314c-0.1953-0.1953-0.1953-0.5117,0-0.707
		s0.5117-0.1953,0.707,0l4.2324,4.2314c0.1953,0.1953,0.1953,0.5117,0,0.707C20.4287,20.1396,20.3008,20.1885,20.1729,20.1885z"/>
	<path d="M8.5718,8.5879c-0.1279,0-0.2559-0.0488-0.3535-0.1465L3.9849,4.208c-0.1953-0.1953-0.1953-0.5117,0-0.707
		s0.5117-0.1953,0.707,0l4.2334,4.2334c0.1953,0.1953,0.1953,0.5117,0,0.707C8.8276,8.5391,8.6997,8.5879,8.5718,8.5879z"/>
</g>
<rect fill="none" width="24" height="24"/>
</svg>
