<?xml version="1.0" encoding="utf-8"?>
<!-- Generator: Adobe Illustrator 18.1.0, SVG Export Plug-In . SVG Version: 6.00 Build 0)  -->
<svg version="1.1" id="Layer_1" xmlns="http://www.w3.org/2000/svg" xmlns:xlink="http://www.w3.org/1999/xlink" x="0px" y="0px"
	 width="24px" height="24px" viewBox="0 0 24 24" enable-background="new 0 0 24 24" xml:space="preserve">
<g>
	<path d="M7.9878,13.6191c-0.9365,0-1.7856-0.0869-2.5967-0.2676C5.1626,13.3008,5,13.0977,5,12.8633V1.8848
		c0-0.168,0.084-0.3242,0.2241-0.417c0.1396-0.0923,0.3154-0.1089,0.4712-0.0435C6.625,1.8188,7.5566,2.0103,8.543,2.0103
		c1.4282,0,2.7788-0.4053,4.085-0.7974c1.2979-0.3892,2.5244-0.7573,3.8145-0.7573c1.6016,0,3.0391,0.6055,4.3955,1.8511
		C20.9414,2.4014,21,2.5347,21,2.6748v10.2451c0,0.165-0.0811,0.3193-0.2178,0.4121c-0.1357,0.0938-0.3086,0.1162-0.4629,0.0537
		c-1.1045-0.4268-2.3057-0.6348-3.6729-0.6348c-1.4053,0-2.8535,0.2178-4.2549,0.4287
		C10.9546,13.3955,9.4683,13.6191,7.9878,13.6191z M6,12.4541c1.8516,0.332,4.1328,0.0537,6.2432-0.2637
		c1.4365-0.2158,2.9229-0.4399,4.4033-0.4399c1.2197,0,2.3242,0.1538,3.3535,0.4683V2.8979
		c-1.126-0.9829-2.2617-1.4424-3.5576-1.4424c-1.1436,0-2.3008,0.3477-3.5273,0.7153C11.54,2.5835,10.1182,3.0103,8.543,3.0103
		c-0.877,0-1.7153-0.1323-2.543-0.4038V12.4541z"/>
	<path d="M5.5,23.5C5.2236,23.5,5,23.2764,5,23V1c0-0.2764,0.2236-0.5,0.5-0.5S6,0.7236,6,1v22C6,23.2764,5.7764,23.5,5.5,23.5z"/>
</g>
<rect fill="none" width="24" height="24"/>
</svg>
