<?xml version="1.0" encoding="utf-8"?>
<!-- Generator: Adobe Illustrator 18.1.0, SVG Export Plug-In . SVG Version: 6.00 Build 0)  -->
<svg version="1.1" id="Layer_1" xmlns="http://www.w3.org/2000/svg" xmlns:xlink="http://www.w3.org/1999/xlink" x="0px" y="0px"
	 width="24px" height="24px" viewBox="0 0 24 24" enable-background="new 0 0 24 24" xml:space="preserve">
<g>
	<path d="M8.3428,23.9082c-1.8965,0-3.6201-1.29-4.0786-3.2012L1.0737,7.4058C0.8164,6.3311,0.9956,5.2173,1.5796,4.2695
		C2.168,3.3135,3.0928,2.645,4.1836,2.3872l2.792-0.6577c0.2666-0.062,0.5381,0.103,0.6016,0.3721
		c0.063,0.269-0.1035,0.5381-0.3721,0.6016l-2.792,0.6577C3.583,3.5566,2.8789,4.0654,2.4312,4.7935
		C1.9878,5.5137,1.8511,6.3584,2.0464,7.1724l3.1904,13.3022c0.4067,1.7002,2.1357,2.749,3.8472,2.3467l7.418-1.752
		c0.2715-0.0684,0.5381,0.1025,0.6016,0.3711c0.0635,0.2695-0.1025,0.5381-0.3711,0.6016l-7.4185,1.752
		C8.9888,23.8711,8.6631,23.9082,8.3428,23.9082z"/>
	<path d="M17.8682,22.0352h-7.708c-2.2861,0-4.146-1.8594-4.146-4.1455V4.1816c0-2.2866,1.8599-4.1465,4.146-4.1465h7.708
		c2.2861,0,4.1465,1.8599,4.1465,4.1465v13.708C22.0146,20.1758,20.1543,22.0352,17.8682,22.0352z M10.1602,1.0352
		c-1.7349,0-3.146,1.4116-3.146,3.1465v13.708c0,1.7344,1.4111,3.1455,3.146,3.1455h7.708c1.7354,0,3.1465-1.4111,3.1465-3.1455
		V4.1816c0-1.7349-1.4111-3.1465-3.1465-3.1465H10.1602z"/>
	<path d="M19.0146,12.0352H9.0142c-0.2764,0-0.5-0.2236-0.5-0.5s0.2236-0.5,0.5-0.5h10.0005c0.2764,0,0.5,0.2236,0.5,0.5
		S19.291,12.0352,19.0146,12.0352z"/>
	<path d="M14.4893,9.0469c-0.2764,0-0.5-0.2236-0.5-0.5V5.2705L13.708,5.3716c-0.2568,0.0923-0.5469-0.0415-0.6396-0.3013
		c-0.0928-0.2603,0.042-0.5464,0.3018-0.6401l0.9502-0.3418c0.1533-0.0537,0.3242-0.0322,0.4561,0.0615
		c0.1338,0.0938,0.2129,0.2466,0.2129,0.4092v3.9878C14.9893,8.8232,14.7656,9.0469,14.4893,9.0469z"/>
	<path d="M15.5254,18.9883h-2.7539c-0.2051,0-0.3896-0.125-0.4648-0.3154c-0.0752-0.1914-0.0273-0.4082,0.1221-0.5488l2.0039-1.8838
		c0.3975-0.3672,0.5684-0.751,0.4717-1.0537c-0.0732-0.2275-0.293-0.3975-0.5605-0.4316c-0.3857-0.0459-0.748,0.1729-1.0205,0.6045
		c-0.1484,0.2344-0.458,0.3008-0.6904,0.1553c-0.2334-0.1484-0.3027-0.457-0.1553-0.6904c0.4834-0.7627,1.2246-1.1611,1.9932-1.0615
		c0.6514,0.084,1.1953,0.5234,1.3857,1.1191c0.2207,0.6885-0.0498,1.4502-0.7412,2.0898l-1.082,1.0166h1.4922
		c0.2764,0,0.5,0.2236,0.5,0.5S15.8018,18.9883,15.5254,18.9883z"/>
</g>
<rect x="0.0142" y="0.0354" fill="none" width="24" height="24"/>
</svg>
