<?xml version="1.0" encoding="utf-8"?>
<!-- Generator: Adobe Illustrator 18.1.0, SVG Export Plug-In . SVG Version: 6.00 Build 0)  -->
<svg version="1.1" id="Layer_1" xmlns="http://www.w3.org/2000/svg" xmlns:xlink="http://www.w3.org/1999/xlink" x="0px" y="0px"
	 width="24px" height="24px" viewBox="0 0 24 24" enable-background="new 0 0 24 24" xml:space="preserve">
<g>
	<path d="M5.0127,20.2373L5.0127,20.2373c-0.3022,0-0.5981-0.1221-0.8115-0.3359c-0.3271-0.3271-0.4258-0.8154-0.251-1.2432
		L4.02,18.4834c2.1904-5.4932,2.2925-5.5947,2.4004-5.7031C6.5103,12.6914,18.6338,0.5679,18.6338,0.5679
		c0.4297-0.4316,1.1885-0.4341,1.6221-0.001l3.2793,3.2788c0.2178,0.2202,0.3359,0.5073,0.3359,0.811
		c0,0.3047-0.1191,0.5923-0.334,0.8096c-0.0918,0.0908-12.1279,12.1265-12.2168,12.2153c-0.1064,0.1104-0.1948,0.2012-5.6348,2.375
		l-0.2422,0.0967C5.3047,20.209,5.1606,20.2373,5.0127,20.2373z M7.1694,13.4453c-0.0903,0.1777-0.4873,1.0615-2.2207,5.4092
		L4.877,19.0352c-0.0234,0.0566-0.0107,0.1162,0.0317,0.1592c0.041,0.041,0.1064,0.0537,0.1592,0.0322l0.2466-0.0986
		c4.2188-1.6855,5.147-2.0967,5.3413-2.1953c0.8311-0.832,12.0874-12.0874,12.1733-12.1729c0.0254-0.0259,0.042-0.0645,0.042-0.103
		s-0.0166-0.0771-0.0449-0.106l-3.2764-3.2759c-0.083-0.0825-0.1426-0.0659-0.208-0.0015
		C9.0835,11.5322,7.438,13.1777,7.1694,13.4453z"/>
	<path d="M9.4497,16.3145c-0.1279,0-0.2563-0.0488-0.354-0.1465c-0.1948-0.1953-0.1948-0.5117,0.0005-0.707L20.0244,4.5454
		c0.1953-0.1943,0.5117-0.1948,0.707,0.0005s0.1953,0.5122,0,0.7075L9.8032,16.168C9.7056,16.2656,9.5776,16.3145,9.4497,16.3145z"
		/>
	<path d="M10.9668,17.8281c-0.1279,0-0.2559-0.0488-0.3535-0.1465l-4.1934-4.1934c-0.1953-0.1953-0.1953-0.5117,0-0.707
		s0.5117-0.1953,0.707,0l4.1934,4.1934c0.1953,0.1953,0.1953,0.5117,0,0.707C11.2227,17.7793,11.0947,17.8281,10.9668,17.8281z"/>
	<path d="M6.2197,19.8066c-0.1279,0-0.2559-0.0488-0.3535-0.1465l-1.4194-1.4199c-0.1953-0.1953-0.1953-0.5117,0-0.707
		s0.5117-0.1953,0.707,0l1.4194,1.4199c0.1953,0.1953,0.1953,0.5117,0,0.707C6.4756,19.7578,6.3477,19.8066,6.2197,19.8066z"/>
	<path d="M17.3467,24H2c-1.1587,0-2-0.8408-2-2V6.7573C0,6.229,0.2051,5,2.104,5H11c0.2764,0,0.5,0.2236,0.5,0.5S11.2764,6,11,6
		H2.104C1,6,1,6.4741,1,6.7573V22c0,0.6074,0.3926,1,1,1h15.3467C17.6377,23,18,23,18,22v-9c0-0.2764,0.2236-0.5,0.5-0.5
		S19,12.7236,19,13v9C19,23.7402,17.9639,24,17.3467,24z"/>
</g>
<rect fill="none" width="24" height="24"/>
</svg>
