<?xml version="1.0" encoding="utf-8"?>
<!-- Generator: Adobe Illustrator 18.1.0, SVG Export Plug-In . SVG Version: 6.00 Build 0)  -->
<svg version="1.1" id="Layer_1" xmlns="http://www.w3.org/2000/svg" xmlns:xlink="http://www.w3.org/1999/xlink" x="0px" y="0px"
	 width="24px" height="24px" viewBox="0 0 24 24" enable-background="new 0 0 24 24" xml:space="preserve">
<g>
	<path d="M15.5059,10.7876c-0.2764,0-0.5-0.2236-0.5-0.5V0.9839H9.0503v9.3037c0,0.2764-0.2236,0.5-0.5,0.5s-0.5-0.2236-0.5-0.5
		V0.4839c0-0.2764,0.2236-0.5,0.5-0.5h6.9556c0.2764,0,0.5,0.2236,0.5,0.5v9.8037C16.0059,10.564,15.7822,10.7876,15.5059,10.7876z"
		/>
	<path d="M7.3325,23.915c-0.312,0-0.6108-0.1514-0.7988-0.4053c-0.1855-0.251-0.2388-0.5674-0.1465-0.8701l1.4556-4.7598
		L3.835,14.874c-0.3413-0.2568-0.4766-0.6855-0.3452-1.0908c0.1309-0.4062,0.4907-0.6748,0.916-0.6836l5.0396-0.1016l1.6533-4.7046
		c0.1401-0.3999,0.5049-0.6577,0.9297-0.6577c0.4238,0,0.7891,0.2578,0.9297,0.6572l1.6523,4.7051l5.0391,0.1016
		c0.4268,0.0088,0.7871,0.2773,0.918,0.6836c0.1299,0.4062-0.0059,0.834-0.3457,1.0898l-4.0088,3.0068l1.457,4.7598
		c0.0918,0.3027,0.0391,0.6191-0.1465,0.8701c-0.1885,0.2539-0.4863,0.4053-0.7988,0.4053l0,0
		c-0.1973,0-0.3896-0.0605-0.5557-0.1748l-4.1406-2.8506l-4.1396,2.8506C7.7231,23.8545,7.5303,23.915,7.3325,23.915z
		 M12.0283,19.7822c0.0986,0,0.1982,0.0293,0.2832,0.0879l4.4238,3.0459l-1.582-5.0791c-0.0615-0.2012,0.0098-0.4199,0.1787-0.5469
		l4.2891-3.2168l-5.377-0.082c-0.209-0.0039-0.3926-0.1377-0.4619-0.334l-1.7676-5.0327l-1.7407,5.0327
		c-0.0688,0.1963-0.2529,0.3301-0.4614,0.334l-5.3857,0.1084L8.7231,17.29c0.1685,0.127,0.2397,0.3447,0.1782,0.5469l-1.5459,5.0557
		l4.3892-3.0225C11.8301,19.8115,11.9292,19.7822,12.0283,19.7822z"/>
</g>
<rect x="0.0293" y="-0.0001" fill="none" width="24" height="24"/>
</svg>
