<?xml version="1.0" encoding="utf-8"?>
<!-- Generator: Adobe Illustrator 18.1.0, SVG Export Plug-In . SVG Version: 6.00 Build 0)  -->
<svg version="1.1" id="Layer_1" xmlns="http://www.w3.org/2000/svg" xmlns:xlink="http://www.w3.org/1999/xlink" x="0px" y="0px"
	 width="24px" height="24px" viewBox="0 0 24 24" enable-background="new 0 0 24 24" xml:space="preserve">
<g>
	<path d="M22.417,20.0459H10.5508c-0.8545,0-1.5498-0.6953-1.5498-1.5498v-6.9395c0-0.8545,0.6953-1.5498,1.5498-1.5498H22.417
		c0.8545,0,1.5498,0.6953,1.5498,1.5498v6.9395C23.9668,19.3506,23.2715,20.0459,22.417,20.0459z M10.5508,11.0068
		c-0.3032,0-0.5498,0.2466-0.5498,0.5498v6.9395c0,0.3027,0.2466,0.5498,0.5498,0.5498H22.417c0.3027,0,0.5498-0.2471,0.5498-0.5498
		v-6.9395c0-0.3032-0.2471-0.5498-0.5498-0.5498H10.5508z"/>
	<path d="M5.4761,6.96c-1.3071,0-2.3706-1.0635-2.3706-2.3711c0-0.8706,0.8052-4.5601,2.415-4.5601
		c1.5781,0,2.3267,3.6577,2.3267,4.5601C7.8472,5.8965,6.7837,6.96,5.4761,6.96z M5.5205,1.0288
		c-0.4761,0-1.415,2.3623-1.415,3.5601c0,0.7559,0.6147,1.3711,1.3706,1.3711s1.3711-0.6152,1.3711-1.3711
		C6.8472,3.3579,5.9795,1.0288,5.5205,1.0288z"/>
	<path d="M18.4688,5h-4.1387c-0.2764,0-0.5-0.2236-0.5-0.4995l-0.0049-3.9712c0-0.2759,0.2236-0.5,0.499-0.5005
		c0.001,0,0.001,0,0.001,0c0.2764,0,0.5,0.2236,0.5,0.4995L14.8291,4h3.6396c0.2764,0,0.5,0.2236,0.5,0.5S18.7451,5,18.4688,5z"/>
	<path d="M17.6699,23.9717H1.3315c-0.7158,0-1.2983-0.583-1.2983-1.2988V1.3267c0-0.7158,0.5825-1.2979,1.2983-1.2979h1.0923
		c0.2764,0,0.5,0.2236,0.5,0.5s-0.2236,0.5-0.5,0.5H1.3315c-0.1646,0-0.2983,0.1338-0.2983,0.2979v21.3462
		c0,0.165,0.1338,0.2988,0.2983,0.2988h16.3384c0.165,0,0.2988-0.1338,0.2988-0.2988v-1.1094c0-0.2764,0.2236-0.5,0.5-0.5
		s0.5,0.2236,0.5,0.5v1.1094C18.9688,23.3887,18.3857,23.9717,17.6699,23.9717z"/>
	<path d="M18.4688,8.9023c-0.2764,0-0.5-0.2236-0.5-0.5V4.5c-0.0088-0.0142-0.042-0.0415-0.0801-0.0786l-3.3535-3.3071
		c-0.0566-0.0547-0.1309-0.0854-0.21-0.0854H8.5801c-0.2764,0-0.5-0.2236-0.5-0.5s0.2236-0.5,0.5-0.5h5.7451
		c0.3428,0,0.667,0.1323,0.9111,0.373l3.3447,3.2979C18.7598,3.8765,18.9688,4.083,18.9688,4.5v3.9023
		C18.9688,8.6787,18.7451,8.9023,18.4688,8.9023z"/>
	<path d="M5.48,5C5.3496,5,5.2197,4.9497,5.1196,4.8599C5.0298,4.7598,4.98,4.6299,4.98,4.5c0-0.1304,0.0498-0.2603,0.1396-0.3501
		C5.3101,3.96,5.6299,3.96,5.8296,4.1396C5.9199,4.2397,5.98,4.3696,5.98,4.5c0,0.1299-0.0503,0.2598-0.1504,0.3496
		C5.73,4.9497,5.6099,5,5.48,5z"/>
	<path d="M16.3975,16.9648c-0.2764,0-0.5-0.2236-0.5-0.5v-2.9766c0-0.2764,0.2236-0.5,0.5-0.5s0.5,0.2236,0.5,0.5v2.9766
		C16.8975,16.7412,16.6738,16.9648,16.3975,16.9648z"/>
	<path d="M14.6025,16.9648h-2.1543c-0.1875,0-0.3594-0.1055-0.4453-0.2725c-0.0854-0.167-0.0698-0.3682,0.04-0.5205l1.5801-2.1836
		h-1.0449c-0.2764,0-0.5-0.2236-0.5-0.5s0.2236-0.5,0.5-0.5h2.0244c0.1875,0,0.3594,0.1055,0.4453,0.2725
		c0.085,0.167,0.0703,0.3682-0.04,0.5205l-1.5801,2.1836h1.1748c0.2764,0,0.5,0.2236,0.5,0.5S14.8789,16.9648,14.6025,16.9648z"/>
	<path d="M18.5557,16.9648c-0.2764,0-0.5-0.2236-0.5-0.5v-1.3623c0,0,0-0.001,0-0.002v-1.6123c0-0.2764,0.2236-0.5,0.5-0.5h1.1172
		c0.0547,0.001,0.6807-0.0127,1.1016,0.3926c0.2314,0.2236,0.3545,0.5273,0.3545,0.877c0,0.9746-0.8682,1.3359-1.4521,1.3408
		l-0.6211,0.002v0.8643C19.0557,16.7412,18.832,16.9648,18.5557,16.9648z M19.0557,13.9883v0.6123l0.6162-0.002
		c0.1318-0.0039,0.457-0.0449,0.457-0.3408c0-0.1084-0.0332-0.1416-0.0479-0.1553c-0.082-0.0811-0.2393-0.126-0.3945-0.1143H19.0557
		z"/>
	<path d="M5.4761,10.0225c-0.2764,0-0.5-0.2236-0.5-0.5V8.5278c0-0.2764,0.2236-0.5,0.5-0.5s0.5,0.2236,0.5,0.5v0.9946
		C5.9761,9.7988,5.7524,10.0225,5.4761,10.0225z"/>
	<path d="M5.4761,13.0225c-0.2764,0-0.5-0.2236-0.5-0.5v-0.9941c0-0.2764,0.2236-0.5,0.5-0.5s0.5,0.2236,0.5,0.5v0.9941
		C5.9761,12.7988,5.7524,13.0225,5.4761,13.0225z"/>
	<path d="M5.4761,16.0234c-0.2764,0-0.5-0.2236-0.5-0.5v-0.9951c0-0.2764,0.2236-0.5,0.5-0.5s0.5,0.2236,0.5,0.5v0.9951
		C5.9761,15.7998,5.7524,16.0234,5.4761,16.0234z"/>
</g>
<rect y="0.0001" fill="none" width="24" height="24"/>
</svg>
