<?xml version="1.0" encoding="utf-8"?>
<!-- Generator: Adobe Illustrator 18.1.0, SVG Export Plug-In . SVG Version: 6.00 Build 0)  -->
<svg version="1.1" id="Layer_1" xmlns="http://www.w3.org/2000/svg" xmlns:xlink="http://www.w3.org/1999/xlink" x="0px" y="0px"
	 width="24px" height="24px" viewBox="0 0 24 24" enable-background="new 0 0 24 24" xml:space="preserve">
<g>
	<path d="M5.6738,19.0518c-2.8726,0-5.21-1.7812-5.21-3.9697s2.3374-3.9697,5.21-3.9697s5.21,1.7812,5.21,3.9697
		S8.5464,19.0518,5.6738,19.0518z M5.6738,12.1123c-2.3213,0-4.21,1.332-4.21,2.9697s1.8887,2.9697,4.21,2.9697
		s4.21-1.332,4.21-2.9697S7.9951,12.1123,5.6738,12.1123z"/>
	<path d="M18.3262,19.0518c-2.873,0-5.21-1.7812-5.21-3.9697s2.3369-3.9697,5.21-3.9697s5.21,1.7812,5.21,3.9697
		S21.1992,19.0518,18.3262,19.0518z M18.3262,12.1123c-2.3213,0-4.21,1.332-4.21,2.9697s1.8887,2.9697,4.21,2.9697
		s4.21-1.332,4.21-2.9697S20.6475,12.1123,18.3262,12.1123z"/>
	<path d="M10.2231,14.4688c-0.2173,0-0.4175-0.1426-0.4805-0.3613c-0.0767-0.2656,0.0767-0.543,0.3418-0.6191
		c1.2573-0.3623,2.5981-0.3936,3.8794-0.0889c0.2686,0.0635,0.4346,0.333,0.3711,0.6016c-0.0645,0.2695-0.3369,0.4375-0.6016,0.3711
		c-1.1143-0.2637-2.2803-0.2393-3.3716,0.0771C10.3154,14.4629,10.2686,14.4688,10.2231,14.4688z"/>
	<path d="M1.2153,14.4688c-0.0796,0-0.1602-0.0186-0.2354-0.0596c-0.2437-0.1299-0.3354-0.4326-0.2051-0.6768l4.458-8.3271
		c0.1216-0.2256,1.2227-2.1851,2.8228-2.1851c0.0059,0,0.0122,0,0.0181,0c0.978,0.0093,1.8506,0.7466,2.5942,2.1924
		c0.126,0.2456,0.0293,0.5469-0.2163,0.6733c-0.2476,0.1255-0.5474,0.0278-0.6733-0.2163C9.3936,5.1216,8.7842,4.228,8.0659,4.2202
		C7.1592,4.2158,6.3657,5.4136,6.1138,5.8789l-4.457,8.3262C1.5664,14.373,1.394,14.4688,1.2153,14.4688z"/>
	<path d="M22.7705,14.418c-0.1777,0-0.3506-0.0957-0.4404-0.2637l-4.458-8.3281c-0.25-0.4609-1.0859-1.6572-1.9414-1.6572
		c-0.0039,0-0.0068,0-0.0098,0c-0.7188,0.0078-1.3281,0.9019-1.7139,1.6499c-0.127,0.2461-0.4287,0.3413-0.6729,0.2163
		c-0.2461-0.1265-0.3428-0.4282-0.2158-0.6733c0.7432-1.4458,1.6162-2.1836,2.5947-2.1924
		c0.0059-0.0005,0.0117-0.0005,0.0176-0.0005c1.6006,0,2.7012,1.96,2.8223,2.1846l4.458,8.3281
		c0.1309,0.2441,0.0391,0.5469-0.2041,0.6768C22.9316,14.3994,22.8506,14.418,22.7705,14.418z"/>
</g>
<rect fill="none" width="24" height="24"/>
</svg>
