<?xml version="1.0" encoding="utf-8"?>
<!-- Generator: Adobe Illustrator 18.1.1, SVG Export Plug-In . SVG Version: 6.00 Build 0)  -->
<svg version="1.1" id="Layer_1" xmlns="http://www.w3.org/2000/svg" xmlns:xlink="http://www.w3.org/1999/xlink" x="0px" y="0px"
	 width="24px" height="24px" viewBox="0 0 24 24" enable-background="new 0 0 24 24" xml:space="preserve">
<rect fill="none" width="24" height="24"/>
<g>
	<path d="M5.2134,3.7476c0.0942,0,0.1899-0.0269,0.2744-0.0825c0.231-0.1519,0.2944-0.4619,0.1426-0.6924L4.468,1.2084
		c-0.0359-0.0546-0.0827-0.1017-0.1377-0.139C4.2807,1.0359,4.2252,1.0143,4.1678,1.0004C4.1616,0.9988,4.1571,0.9944,4.1509,0.9932
		C4.1337,0.9896,4.1174,0.9947,4.1003,0.993C4.0527,0.9882,4.005,0.9834,3.9573,0.9924C3.9014,1.0032,3.85,1.0267,3.8013,1.055
		C3.793,1.0598,3.7835,1.0601,3.7754,1.0654L2.0103,2.228c-0.231,0.1519-0.2944,0.4619-0.1426,0.6924
		C2.0205,3.1509,2.3301,3.2148,2.5601,3.063l0.7573-0.4988L2.6367,5.8716C2.5811,6.1421,2.7554,6.4062,3.0259,6.4619
		C3.0596,6.4688,3.0938,6.4722,3.127,6.4722c0.2324,0,0.4404-0.1626,0.4893-0.3994l0.6805-3.3071l0.4987,0.7568
		C4.8916,3.6685,5.0508,3.7476,5.2134,3.7476z"/>
	<path d="M3.2236,11.1621l-0.757,0.4988L3.147,8.353c0.0557-0.2705-0.1187-0.5347-0.3892-0.5903
		C2.4883,7.707,2.2231,7.8813,2.1675,8.1519L1.4874,11.459l-0.4986-0.7569c-0.1514-0.23-0.4619-0.293-0.6924-0.1426
		c-0.231,0.1519-0.2944,0.4619-0.1426,0.6924l1.1626,1.7656c0.0357,0.0542,0.0822,0.101,0.1366,0.1381
		c0.054,0.0367,0.1152,0.063,0.1803,0.0767c0.0332,0.0068,0.0669,0.0098,0.1006,0.0098c0.0001,0,0.0001-0.0001,0.0001-0.0001
		c0.0001,0,0.0002,0.0001,0.0004,0.0001c0.0899,0,0.1727-0.0304,0.2474-0.074c0.0083-0.0048,0.0189-0.0028,0.027-0.0081
		l1.7646-1.1631c0.231-0.1519,0.2944-0.4619,0.1426-0.6924C3.7642,11.0747,3.4546,11.0107,3.2236,11.1621z"/>
	<path d="M23.7715,17.9004c-0.7998-1.0791-1.5303-3.0645-1.8184-4.9385c-0.2705-1.7632-0.8379-3.4653-1.6855-5.0566
		c-0.3564-0.6729-1.1904-0.9497-1.9453-0.6118c-0.29,0.1309-0.5244,0.3433-0.6777,0.6104l-0.3086-0.5049
		c-0.3955-0.6519-1.251-0.8809-1.9775-0.501c-0.249,0.1284-0.4502,0.3174-0.5889,0.5483l-0.0498-0.0854
		c-0.3965-0.6504-1.2539-0.876-1.9951-0.4912c-0.2451,0.127-0.4502,0.3184-0.5918,0.5474L9.1416,2.3618
		C8.7471,1.7109,7.8975,1.481,7.1641,1.8608C6.8091,2.0444,6.5493,2.3525,6.4336,2.728c-0.1123,0.3633-0.0752,0.7471,0.103,1.0776
		l3.3633,6.3301c0.543,1.042,1.0801,2.5117,1.0469,3.6279L7.501,12.0908c-1.4131-0.5332-1.9995-0.1899-2.4858,0.5391
		c-0.0483,0.0732-0.0767,0.1572-0.0825,0.2441c-0.0396,0.6006,0.7861,1.5039,2.4365,2.6719
		c0.5659,0.4404,0.9756,0.8818,1.3721,1.3096c0.8193,0.8838,1.5938,1.7188,3.4238,2.1777c2.7891,0.6982,5.3564,4.1221,5.3818,4.1562
		c0.0977,0.1318,0.249,0.2021,0.4014,0.2021c0.1035,0,0.208-0.0322,0.2979-0.0986c0.2217-0.1641,0.2686-0.4775,0.1035-0.6992
		c-0.1123-0.1523-2.8037-3.7441-5.9414-4.5312c-1.542-0.3867-2.1562-1.0488-2.9336-1.8867
		c-0.4038-0.4355-0.8618-0.9297-1.5098-1.4326c-0.9185-0.6504-1.7925-1.4316-1.9956-1.7314
		c0.1812-0.2266,0.3892-0.2852,1.1362-0.0039l4.0142,1.9512c0.1333,0.0664,0.2866,0.0664,0.4214,0.0078
		c0.1348-0.0596,0.2363-0.1758,0.2773-0.3174c0.5195-1.7832-0.6582-4.2593-1.0337-4.979L7.418,3.334
		c-0.0513-0.0952-0.0615-0.2056-0.0288-0.311C7.4253,2.9058,7.5088,2.8086,7.665,2.7275c0.2256-0.1167,0.499-0.0493,0.6191,0.1479
		l5.1719,8.7417c0.0986,0.168,0.2969,0.2578,0.4795,0.2432l0.1035-0.0103c0.166-0.0166,0.3135-0.1143,0.3916-0.2612
		c0.0791-0.147,0.0791-0.3237,0.001-0.4707l-1.4697-2.7676c-0.0635-0.1172-0.0498-0.2295-0.0264-0.3027
		c0.0371-0.1235,0.126-0.2266,0.291-0.312c0.2373-0.1216,0.5166-0.0566,0.6357,0.1396l2.0742,3.4995
		c0.0986,0.168,0.3838,0.251,0.5732,0.2334c0.165-0.0161,0.3115-0.1128,0.3916-0.2583c0.0791-0.1455,0.0811-0.3208,0.0049-0.4683
		l-1.2939-2.5103c-0.0518-0.0957-0.0615-0.2061-0.0293-0.312c0.0361-0.1167,0.1201-0.2144,0.2764-0.2949
		c0.2236-0.1162,0.4971-0.0508,0.6221,0.1548l1.9395,3.1685c0.1377,0.2251,0.4268,0.3037,0.6592,0.1816s0.3311-0.4043,0.2246-0.645
		l-0.8145-1.8428c-0.0449-0.0977-0.0488-0.209-0.0098-0.3125c0.043-0.1162,0.1328-0.21,0.2939-0.2827
		c0.2285-0.1025,0.499-0.0225,0.6094,0.1875c0.7959,1.4932,1.3281,3.0879,1.5811,4.7402c0.3154,2.0518,1.1016,4.1641,2.002,5.3818
		c0.166,0.2217,0.4785,0.2666,0.7002,0.1045C23.8887,18.4355,23.9355,18.123,23.7715,17.9004z"/>
</g>
</svg>
