<?xml version="1.0" encoding="utf-8"?>
<!-- Generator: Adobe Illustrator 18.1.0, SVG Export Plug-In . SVG Version: 6.00 Build 0)  -->
<svg version="1.1" id="Layer_1" xmlns="http://www.w3.org/2000/svg" xmlns:xlink="http://www.w3.org/1999/xlink" x="0px" y="0px"
	 width="24px" height="24px" viewBox="0 0 24 24" enable-background="new 0 0 24 24" xml:space="preserve">
<g>
	<path d="M21.5381,5.5c-0.2764,0-0.5-0.2236-0.5-0.5V3H3.0376v2c0,0.2764-0.2236,0.5-0.5,0.5s-0.5-0.2236-0.5-0.5V2.5
		c0-0.2764,0.2236-0.5,0.5-0.5h19.0005c0.2764,0,0.5,0.2236,0.5,0.5V5C22.0381,5.2764,21.8145,5.5,21.5381,5.5z"/>
	<path d="M5.6387,24.0283c-0.1382,0-0.27-0.0576-0.3647-0.1582s-0.1431-0.2363-0.1343-0.374L6.5098,2.4673
		c0.0176-0.2749,0.248-0.4814,0.5317-0.4663C7.3169,2.019,7.5259,2.2568,7.5078,2.5327L6.1724,23.0273l13.8101-0.0176L18.583,2.5342
		C18.5645,2.2588,18.7725,2.02,19.0479,2.001c0.2666-0.0161,0.5137,0.189,0.5332,0.4648l1.4355,21.0088
		c0.0088,0.1377-0.0391,0.2744-0.1338,0.375c-0.0938,0.1016-0.2266,0.1592-0.3643,0.1592L5.6392,24.0283H5.6387z"/>
	<path d="M6.0342,17.958H3.6807c-0.1411,0-0.2754-0.0596-0.3701-0.1641s-0.1411-0.2441-0.1274-0.3838l1.4443-14.958
		c0.0264-0.2749,0.2739-0.4775,0.5454-0.4497c0.2749,0.0264,0.4766,0.271,0.4497,0.5454L4.2314,16.958h1.8027
		c0.2764,0,0.5,0.2236,0.5,0.5S6.3105,17.958,6.0342,17.958z"/>
	<path d="M16.2969,23.9824c-0.2754,0-0.5-0.2236-0.5-0.499c-0.002-1.1133,0.4844-2.168,1.3672-2.9717
		c0.8447-0.7686,1.9727-1.209,3.0967-1.2109c0.001,0,0.001,0,0.001,0c0.2754,0,0.5,0.2236,0.5,0.499
		c0,0.2764-0.2236,0.501-0.499,0.501c-0.8789,0.001-1.7627,0.3477-2.4258,0.9502c-0.6719,0.6113-1.041,1.4033-1.04,2.2305
		c0,0.2764-0.2227,0.501-0.499,0.501C16.2969,23.9824,16.2969,23.9824,16.2969,23.9824z"/>
	<path d="M9.8599,23.9912c-0.2759,0-0.4995-0.2236-0.5-0.499c-0.0024-1.6904-1.6235-3.1719-3.4702-3.1719
		c-0.0015,0-0.0029,0-0.0049,0H5.8843c-0.2759,0-0.4995-0.2236-0.5-0.499c-0.0005-0.2783,0.2422-0.4873,0.5059-0.501
		c2.4204,0,4.4663,1.9082,4.4697,4.1699c0.0005,0.2764-0.2231,0.501-0.4995,0.501H9.8599z"/>
	<path d="M15.4375,14.1113c-0.1162,0-0.2334-0.04-0.3281-0.123c-0.208-0.1807-0.2305-0.4971-0.0488-0.7051
		c0.4209-0.4844,0.751-1.2598,0.751-1.7671c0-0.7441-0.501-1.3491-1.1172-1.3491c-0.3008,0-0.7461,0.1543-1.1367,1.4893
		c-0.2266,0.7227-0.6924,2.208-2.0957,2.208c-1.167,0-2.1162-1.0537-2.1162-2.3481c0-0.8286,0.3989-1.6045,1.0415-2.0244
		c0.2295-0.1509,0.5415-0.0869,0.6919,0.145c0.1514,0.231,0.0864,0.5405-0.145,0.6919c-0.3628,0.2373-0.5884,0.6924-0.5884,1.1875
		c0,0.7437,0.5005,1.3481,1.1162,1.3481c0.4019,0,0.749-0.2549,1.1387-1.4976c0.1572-0.5371,0.6436-2.1997,2.0938-2.1997
		c1.167,0,2.1172,1.0537,2.1172,2.3491c0,0.7524-0.4102,1.7495-0.9971,2.4233C15.7158,14.0527,15.5771,14.1113,15.4375,14.1113z"/>
	<path d="M17.5127,12.0156H8.6436c-0.2764,0-0.5-0.2236-0.5-0.5s0.2236-0.5,0.5-0.5h8.8691c0.2764,0,0.5,0.2236,0.5,0.5
		S17.7891,12.0156,17.5127,12.0156z"/>
	<path d="M21.1602,8.1128c-0.2549,0-0.4727-0.1943-0.4971-0.4536c-0.0254-0.2754,0.1768-0.5186,0.4521-0.5444
		c1.1143-0.103,1.9229-1.0308,1.9229-2.2061v-1.792C23.0381,1.8901,22.1514,1,20.9307,1H3.1348
		C1.9194,1,1.0376,1.8901,1.0376,3.1167v1.792c0,1.1514,0.8013,2.0771,1.9053,2.2017c0.2744,0.0312,0.4717,0.2788,0.4409,0.5532
		C3.3525,7.9375,3.103,8.1318,2.8306,8.1045c-1.5923-0.1797-2.793-1.5537-2.793-3.1958v-1.792C0.0376,1.3398,1.3691,0,3.1348,0
		h17.7959c1.7715,0,3.1074,1.3398,3.1074,3.1167v1.792c0,1.6758-1.2168,3.0522-2.8311,3.2021
		C21.1914,8.1123,21.1758,8.1128,21.1602,8.1128z"/>
</g>
<rect x="-0.0136" fill="none" width="24" height="24"/>
</svg>
