<?xml version="1.0" encoding="utf-8"?>
<!-- Generator: Adobe Illustrator 18.1.0, SVG Export Plug-In . SVG Version: 6.00 Build 0)  -->
<svg version="1.1" id="Layer_1" xmlns="http://www.w3.org/2000/svg" xmlns:xlink="http://www.w3.org/1999/xlink" x="0px" y="0px"
	 width="24px" height="24px" viewBox="0 0 24 24" enable-background="new 0 0 24 24" xml:space="preserve">
<g>
	<path d="M23.5,24.0195h-23c-0.2764,0-0.5-0.2236-0.5-0.5v-23c0-0.2764,0.2236-0.5,0.5-0.5h23c0.2764,0,0.5,0.2236,0.5,0.5v23
		C24,23.7959,23.7764,24.0195,23.5,24.0195z M1,23.0195h22v-22H1V23.0195z"/>
	<path d="M7.0161,10.3711c-2.2476,0-4.0762-1.8286-4.0762-4.0762s1.8286-4.0762,4.0762-4.0762s4.0762,1.8286,4.0762,4.0762
		S9.2637,10.3711,7.0161,10.3711z M7.0161,3.2188c-1.6963,0-3.0762,1.3799-3.0762,3.0762s1.3799,3.0762,3.0762,3.0762
		s3.0762-1.3799,3.0762-3.0762S8.7124,3.2188,7.0161,3.2188z"/>
	<path d="M7.0161,8.7256c-1.3403,0-2.4312-1.0903-2.4312-2.4307s1.0908-2.4312,2.4312-2.4312s2.4312,1.0908,2.4312,2.4312
		S8.3564,8.7256,7.0161,8.7256z M7.0161,4.8638c-0.7891,0-1.4312,0.6421-1.4312,1.4312s0.6421,1.4307,1.4312,1.4307
		S8.4473,7.084,8.4473,6.2949S7.8052,4.8638,7.0161,4.8638z"/>
	<path d="M7.0161,18.3408c-1.3403,0-2.4312-1.0908-2.4312-2.4307s1.0908-2.4307,2.4312-2.4307s2.4312,1.0908,2.4312,2.4307
		S8.3564,18.3408,7.0161,18.3408z M7.0161,14.4795c-0.7891,0-1.4312,0.6416-1.4312,1.4307s0.6421,1.4307,1.4312,1.4307
		s1.4312-0.6416,1.4312-1.4307S7.8052,14.4795,7.0161,14.4795z"/>
	<path d="M16.9844,8.7261c-1.3408,0-2.4316-1.0908-2.4316-2.4312c0-1.3408,1.0908-2.4316,2.4316-2.4316
		c1.3398,0,2.4307,1.0908,2.4307,2.4316C19.415,7.6353,18.3242,8.7261,16.9844,8.7261z M16.9844,4.8633
		c-0.7891,0-1.4316,0.6421-1.4316,1.4316c0,0.7891,0.6426,1.4312,1.4316,1.4312S18.415,7.084,18.415,6.2949
		C18.415,5.5054,17.7734,4.8633,16.9844,4.8633z"/>
	<path d="M16.9844,18.3418c-1.3408,0-2.4316-1.0908-2.4316-2.4316s1.0908-2.4316,2.4316-2.4316
		c1.3398,0,2.4307,1.0908,2.4307,2.4316S18.3242,18.3418,16.9844,18.3418z M16.9844,14.4785c-0.7891,0-1.4316,0.6426-1.4316,1.4316
		s0.6426,1.4316,1.4316,1.4316s1.4307-0.6426,1.4307-1.4316S17.7734,14.4785,16.9844,14.4785z"/>
	<path d="M16.9844,10.3711c-2.248,0-4.0762-1.8286-4.0762-4.0762s1.8281-4.0762,4.0762-4.0762s4.0762,1.8286,4.0762,4.0762
		S19.2324,10.3711,16.9844,10.3711z M16.9844,3.2188c-1.6963,0-3.0762,1.3799-3.0762,3.0762s1.3799,3.0762,3.0762,3.0762
		s3.0762-1.3799,3.0762-3.0762S18.6807,3.2188,16.9844,3.2188z"/>
	<path d="M7.0161,19.9863c-2.2476,0-4.0762-1.8281-4.0762-4.0762s1.8286-4.0762,4.0762-4.0762s4.0762,1.8281,4.0762,4.0762
		S9.2637,19.9863,7.0161,19.9863z M7.0161,12.834c-1.6963,0-3.0762,1.3799-3.0762,3.0762s1.3799,3.0762,3.0762,3.0762
		s3.0762-1.3799,3.0762-3.0762S8.7124,12.834,7.0161,12.834z"/>
	<path d="M16.9844,19.9863c-2.248,0-4.0762-1.8281-4.0762-4.0762s1.8281-4.0762,4.0762-4.0762s4.0762,1.8281,4.0762,4.0762
		S19.2324,19.9863,16.9844,19.9863z M16.9844,12.834c-1.6963,0-3.0762,1.3799-3.0762,3.0762s1.3799,3.0762,3.0762,3.0762
		s3.0762-1.3799,3.0762-3.0762S18.6807,12.834,16.9844,12.834z"/>
	<path d="M13.4707,22.0195h-2.9219c-0.2764,0-0.5-0.2236-0.5-0.5s0.2236-0.5,0.5-0.5h2.9219c0.2764,0,0.5,0.2236,0.5,0.5
		S13.7471,22.0195,13.4707,22.0195z"/>
	<path d="M15.5166,22.0195c-0.2764,0-0.5049-0.2236-0.5049-0.5s0.2188-0.5,0.4941-0.5h0.0107c0.2754,0,0.5,0.2236,0.5,0.5
		S15.792,22.0195,15.5166,22.0195z"/>
	<path d="M8.5474,22.0195c-0.2759,0-0.5049-0.2236-0.5049-0.5s0.2188-0.5,0.4951-0.5h0.0098c0.2764,0,0.5,0.2236,0.5,0.5
		S8.8237,22.0195,8.5474,22.0195z"/>
</g>
<rect y="0.0197" fill="none" width="24" height="24"/>
</svg>
