<?xml version="1.0" encoding="utf-8"?>
<!-- Generator: Adobe Illustrator 18.1.0, SVG Export Plug-In . SVG Version: 6.00 Build 0)  -->
<svg version="1.1" id="Layer_1" xmlns="http://www.w3.org/2000/svg" xmlns:xlink="http://www.w3.org/1999/xlink" x="0px" y="0px"
	 width="24px" height="24px" viewBox="0 0 24 24" enable-background="new 0 0 24 24" xml:space="preserve">
<g>
	<path d="M11.9854,23.7822c-6.4941,0-11.7773-5.2832-11.7773-11.7773S5.4912,0.2275,11.9854,0.2275s11.7773,5.2832,11.7773,11.7773
		S18.4795,23.7822,11.9854,23.7822z M11.9854,1.2275C6.0425,1.2275,1.208,6.062,1.208,12.0049
		c0,5.9424,4.8345,10.7773,10.7773,10.7773c5.9424,0,10.7773-4.835,10.7773-10.7773C22.7627,6.062,17.9277,1.2275,11.9854,1.2275z"
		/>
	<path d="M11.8867,18.1201c-1.2065,0-2.8755-0.6895-3.9678-1.6406c-0.2085-0.1807-0.2305-0.4971-0.0493-0.7051
		c0.1821-0.208,0.4976-0.2314,0.7056-0.0488c0.9141,0.7949,2.3374,1.3945,3.3115,1.3945c1.4951,0,2.7109-1.0352,2.7109-2.3076
		c0-1.0342-0.8789-1.752-2.8511-2.3281c-1.7705-0.5542-3.5708-1.3765-3.5708-3.2871c0-1.8237,1.6646-3.3076,3.7109-3.3076
		c1.3164,0,2.5449,0.6289,3.208,1.6416c0.1514,0.231,0.0869,0.541-0.1445,0.6924c-0.2285,0.1494-0.54,0.0869-0.6914-0.1445
		c-0.4805-0.7339-1.3896-1.1895-2.3721-1.1895c-1.4946,0-2.7109,1.0352-2.7109,2.3076c0,1.0317,0.8022,1.6851,2.8604,2.3306
		c1.5234,0.4443,3.5615,1.272,3.5615,3.2847C15.5977,16.6367,13.9326,18.1201,11.8867,18.1201z"/>
	<path d="M11.8867,19.6543c-0.2764,0-0.5-0.2236-0.5-0.5V4.855c0-0.2764,0.2236-0.5,0.5-0.5s0.5,0.2236,0.5,0.5v14.2993
		C12.3867,19.4307,12.1631,19.6543,11.8867,19.6543z"/>
</g>
<rect x="-0.0136" y="0.0031" fill="none" width="24" height="24"/>
<rect x="-0.0136" fill="none" width="24" height="24"/>
</svg>
