<?xml version="1.0" encoding="utf-8"?>
<!-- Generator: Adobe Illustrator 18.1.0, SVG Export Plug-In . SVG Version: 6.00 Build 0)  -->
<svg version="1.1" id="Layer_1" xmlns="http://www.w3.org/2000/svg" xmlns:xlink="http://www.w3.org/1999/xlink" x="0px" y="0px"
	 width="24px" height="24px" viewBox="0 0 24 24" enable-background="new 0 0 24 24" xml:space="preserve">
<g>
	<path d="M8.4863,23h-5.5c-0.2764,0-0.5-0.2236-0.5-0.5S2.71,22,2.9863,22h5v-2.5c0-0.2764,0.2236-0.5,0.5-0.5h3.5v-2.5
		c0-0.2764,0.2236-0.5,0.5-0.5h3.5v-2.5c0-0.2764,0.2236-0.5,0.5-0.5h5.5c0.2764,0,0.5,0.2236,0.5,0.5s-0.2236,0.5-0.5,0.5h-5v2.5
		c0,0.2764-0.2236,0.5-0.5,0.5h-3.5v2.5c0,0.2764-0.2236,0.5-0.5,0.5h-3.5v2.5C8.9863,22.7764,8.7627,23,8.4863,23z"/>
	<path d="M7.6167,4.7012c-1.0728,0-1.9458-0.873-1.9458-1.9458s0.873-1.9453,1.9458-1.9453s1.9458,0.8726,1.9458,1.9453
		S8.6895,4.7012,7.6167,4.7012z M7.6167,1.8101c-0.5215,0-0.9458,0.4238-0.9458,0.9453s0.4243,0.9458,0.9458,0.9458
		s0.9458-0.4243,0.9458-0.9458S8.1382,1.8101,7.6167,1.8101z"/>
	<path d="M9.3774,17.8594c-0.0083,0-0.0171,0-0.0254-0.001c-0.2759-0.0137-0.4883-0.248-0.4746-0.5244l0.1499-2.9854
		c0.002-0.0449-0.0161-0.0928-0.0498-0.1279L5.9185,12.041c-0.4209-0.4243-0.6104-0.9238-0.5884-1.4302l0.1338-3.0957
		c0.0464-1.0806,0.8931-1.9341,1.9268-1.9438c0.0063,0,0.0122,0,0.0181,0c0.5342,0,1.0312,0.2104,1.4019,0.5938
		c0.3691,0.3823,0.5674,0.9058,0.5444,1.436l0.3223,2.2783l2.2236-0.5537c0.2729-0.0645,0.5396,0.0977,0.606,0.3647
		c0.0664,0.2676-0.0967,0.5391-0.3643,0.606l-2.7622,0.6875c-0.1372,0.0327-0.2832,0.0083-0.4009-0.0713
		c-0.1172-0.0791-0.1953-0.2051-0.2148-0.3457L8.3604,7.6479c0.0068-0.3516-0.0869-0.5996-0.269-0.7881S7.6362,6.5396,7.3999,6.5713
		c-0.4932,0.0044-0.9136,0.4473-0.937,0.9868l-0.1338,3.0957c-0.0103,0.2339,0.0776,0.4648,0.2402,0.6333l3.0586,2.1797
		c0.2915,0.29,0.4121,0.6064,0.3984,0.9287l-0.1499,2.9893C9.8628,17.6514,9.6421,17.8594,9.3774,17.8594z"/>
	<path d="M4.2373,21.1973c-0.0503,0-0.1021-0.0078-0.1528-0.0234c-0.2627-0.085-0.4077-0.3662-0.3232-0.6289l2.1211-6.6094
		c0.0845-0.2637,0.3657-0.4053,0.6289-0.3242c0.2627,0.085,0.4077,0.3662,0.3232,0.6289l-2.1211,6.6094
		C4.6455,21.0625,4.4487,21.1973,4.2373,21.1973z"/>
	<path d="M1.9634,11.7534c-0.042,0-0.085-0.0054-0.1274-0.0166c-0.2671-0.0698-0.4268-0.3433-0.3564-0.6104l0.8633-3.2891
		c0.0352-0.1348,0.1255-0.2485,0.248-0.3145L4.002,6.771c0.2446-0.1294,0.5459-0.0371,0.6768,0.2061
		c0.1299,0.2441,0.0376,0.5469-0.2061,0.6768L3.2544,8.3027l-0.8081,3.0776C2.3877,11.605,2.1851,11.7534,1.9634,11.7534z"/>
</g>
<rect x="-0.0137" y="0.0002" fill="none" width="24" height="24"/>
</svg>
