<?xml version="1.0" encoding="utf-8"?>
<!-- Generator: Adobe Illustrator 18.1.0, SVG Export Plug-In . SVG Version: 6.00 Build 0)  -->
<svg version="1.1" id="Layer_1" xmlns="http://www.w3.org/2000/svg" xmlns:xlink="http://www.w3.org/1999/xlink" x="0px" y="0px"
	 width="24px" height="24px" viewBox="0 0 24 24" enable-background="new 0 0 24 24" xml:space="preserve">
<g>
	<path d="M20.4404,19.3125c-0.2002,0-0.4014-0.0234-0.6006-0.0723c-0.6807-0.165-1.2559-0.5947-1.6191-1.209
		c-0.1406-0.2373-0.0615-0.5439,0.1768-0.6846c0.2344-0.1406,0.543-0.0625,0.6846,0.1768c0.2246,0.3789,0.5771,0.6445,0.9941,0.7451
		c0.4053,0.0996,0.8242,0.0293,1.1787-0.1943c0.7568-0.4756,0.9961-1.5,0.5332-2.2842c-0.2236-0.3789-0.5771-0.6436-0.9932-0.7451
		c-0.4053-0.0996-0.8242-0.0303-1.1807,0.1953c-0.2305,0.1465-0.54,0.0771-0.6895-0.1582c-0.1465-0.2334-0.0762-0.542,0.1582-0.6895
		c0.5869-0.3682,1.2773-0.4824,1.9473-0.3193c0.6816,0.165,1.2559,0.5947,1.6191,1.209c0.7354,1.2451,0.3486,2.8779-0.8623,3.6387
		C21.376,19.1797,20.9121,19.3125,20.4404,19.3125z"/>
	<path d="M11.0303,24.0635c-4.9634,0-9.0015-5.165-9.0015-11.5146c0-0.2764,0.2236-0.5,0.5-0.5h17.0024c0.2764,0,0.5,0.2236,0.5,0.5
		C20.0312,18.8984,15.9932,24.0635,11.0303,24.0635z M3.0376,13.0488c0.1997,5.5664,3.7085,10.0146,7.9927,10.0146
		s7.793-4.4482,7.9922-10.0146H3.0376z"/>
	<path d="M9.9082,9.9531c-0.0161,0-0.0322-0.0005-0.0483-0.0024C9.5186,9.918,8.854,9.6865,8.5308,9.0269
		C8.1011,8.1504,8.4224,6.853,9.4849,5.1719c1.2339-1.9512,1.2104-2.8726,1.0864-3.2476c-0.0938-0.2832-0.2788-0.3623-0.2993-0.3701
		C10.0205,1.457,9.8823,1.1748,9.9707,0.9209c0.0874-0.2549,0.3516-0.3965,0.6099-0.3179c0.0654,0.02,0.6494,0.2183,0.918,0.9448
		c0.3584,0.9668-0.0347,2.3662-1.168,4.1582C9.1616,7.5547,9.3076,8.3306,9.4248,8.5781c0.1538,0.3262,0.522,0.376,0.5376,0.3779
		c0.271,0.0342,0.4683,0.2798,0.4385,0.5518C10.3726,9.7632,10.1597,9.9531,9.9082,9.9531z"/>
	<path d="M13.2227,9.9531c-0.0166,0-0.0322-0.0005-0.0488-0.0024c-0.0654-0.0063-0.6514-0.0781-0.9297-0.646
		c-0.2842-0.5791-0.1025-1.3662,0.5547-2.4058c0.6777-1.0723,0.6328-1.5327,0.6025-1.6484
		c-0.0205-0.0771-0.0537-0.0986-0.0605-0.1021c-0.2637-0.0815-0.3955-0.355-0.3145-0.6187c0.082-0.2637,0.3789-0.4053,0.6416-0.3252
		c0.2158,0.0664,0.5186,0.2812,0.6621,0.6689c0.2314,0.626,0.0068,1.4634-0.6855,2.5596c-0.6592,1.043-0.5205,1.395-0.5029,1.4316
		c0.0342,0.0698,0.127,0.0908,0.1279,0.0908c0.2744,0.0264,0.4766,0.2705,0.4502,0.5454
		C13.6943,9.7598,13.4766,9.9531,13.2227,9.9531z"/>
	<path d="M19.4951,24.0635H2.5444c-0.2764,0-0.5-0.2236-0.5-0.5s0.2236-0.5,0.5-0.5h16.9507c0.2764,0,0.5,0.2236,0.5,0.5
		S19.7715,24.0635,19.4951,24.0635z"/>
</g>
<rect x="0.0142" y="0.0346" fill="none" width="24" height="24"/>
</svg>
