<?xml version="1.0" encoding="utf-8"?>
<!-- Generator: Adobe Illustrator 18.1.0, SVG Export Plug-In . SVG Version: 6.00 Build 0)  -->
<svg version="1.1" id="Layer_1" xmlns="http://www.w3.org/2000/svg" xmlns:xlink="http://www.w3.org/1999/xlink" x="0px" y="0px"
	 width="24px" height="24px" viewBox="0 0 24 24" enable-background="new 0 0 24 24" xml:space="preserve">
<g>
	<path d="M0.6777,23.8447c-0.1279,0-0.2559-0.0488-0.3535-0.1465c-0.1953-0.1953-0.1953-0.5117,0-0.707l4.6323-4.6328
		c0.1953-0.1953,0.5117-0.1953,0.707,0s0.1953,0.5117,0,0.707l-4.6323,4.6328C0.9336,23.7959,0.8057,23.8447,0.6777,23.8447z"/>
	<path d="M10.7568,7.4741c-0.127,0-0.2544-0.0483-0.3516-0.1445c-0.1963-0.1943-0.1982-0.5112-0.0039-0.707l6.0479-6.1089
		c0.1943-0.1968,0.5107-0.1978,0.707-0.0039c0.1963,0.1943,0.1982,0.5112,0.0039,0.707l-6.0479,6.1089
		C11.0142,7.4248,10.8857,7.4741,10.7568,7.4741z"/>
	<path d="M17.0029,13.7197c-0.1289,0-0.2578-0.0498-0.3555-0.1484c-0.1943-0.1963-0.1924-0.5127,0.0039-0.707l6.1104-6.0449
		c0.1973-0.1943,0.5127-0.1934,0.707,0.0039c0.1943,0.1963,0.1924,0.5127-0.0039,0.707l-6.1104,6.0449
		C17.2568,13.6719,17.1299,13.7197,17.0029,13.7197z"/>
	<path d="M10.8525,21.4668c-0.0005,0-0.0005,0-0.0005,0c-2.2539,0-4.3477-0.8525-5.8955-2.4014
		C3.335,17.4443,2.4839,15.25,2.5591,12.8857c0.0752-2.3521,1.0601-4.5908,2.7734-6.3037l2.5156-2.5161
		c0.1875-0.1875,0.5195-0.1875,0.707,0l11.3999,11.4009c0.0938,0.0938,0.1465,0.2207,0.1465,0.3535s-0.0527,0.2598-0.1465,0.3535
		l-2.5156,2.5146C15.6738,20.4541,13.2734,21.4668,10.8525,21.4668z M8.2017,5.1265L6.0396,7.2891
		c-1.5327,1.5327-2.4141,3.5317-2.481,5.6289c-0.0664,2.085,0.6812,4.0166,2.105,5.4404c1.3594,1.3594,3.2021,2.1084,5.1885,2.1084
		c2.1577,0,4.3013-0.9053,5.8804-2.4854l2.1621-2.1611L8.2017,5.1265z"/>
	<path d="M20.4844,17.2021c-0.1279,0-0.2559-0.0488-0.3535-0.1465L6.8794,3.8037c-0.1953-0.1953-0.1953-0.5117,0-0.707
		s0.5117-0.1953,0.707,0l13.2515,13.252c0.1953,0.1953,0.1953,0.5117,0,0.707C20.7402,17.1533,20.6123,17.2021,20.4844,17.2021z"/>
</g>
<rect x="0.0142" y="0.0354" fill="none" width="24" height="24"/>
</svg>
