<?xml version="1.0" encoding="utf-8"?>
<!-- Generator: Adobe Illustrator 18.1.0, SVG Export Plug-In . SVG Version: 6.00 Build 0)  -->
<svg version="1.1" id="Layer_1" xmlns="http://www.w3.org/2000/svg" xmlns:xlink="http://www.w3.org/1999/xlink" x="0px" y="0px"
	 width="24px" height="24px" viewBox="0 0 24 24" enable-background="new 0 0 24 24" xml:space="preserve">
<g>
	<path d="M7.5884,16.9277c-2.4346,0-4.4155-1.9805-4.4155-4.415s1.981-4.4155,4.4155-4.4155s4.4155,1.981,4.4155,4.4155
		S10.0229,16.9277,7.5884,16.9277z M7.5884,9.0972c-1.8833,0-3.4155,1.5322-3.4155,3.4155c0,1.8828,1.5322,3.415,3.4155,3.415
		s3.415-1.5322,3.415-3.415C11.0034,10.6294,9.4717,9.0972,7.5884,9.0972z"/>
	<path d="M16.3975,19.8613H7.5884c-4.0537,0-7.3521-3.3018-7.3521-7.3604c0-4.0581,3.2983-7.3599,7.3521-7.3599h8.8091
		c4.0537,0,7.3516,3.3018,7.3516,7.3599C23.749,16.5596,20.4512,19.8613,16.3975,19.8613z M7.5884,6.1411
		c-3.5024,0-6.3521,2.853-6.3521,6.3599s2.8496,6.3604,6.3521,6.3604h8.8091c3.502,0,6.3516-2.8535,6.3516-6.3604
		s-2.8496-6.3599-6.3516-6.3599H7.5884z"/>
</g>
<rect x="-0.006" y="0.001" fill="none" width="24" height="24"/>
</svg>
