<?xml version="1.0" encoding="utf-8"?>
<!-- Generator: Adobe Illustrator 18.1.0, SVG Export Plug-In . SVG Version: 6.00 Build 0)  -->
<svg version="1.1" id="Layer_1" xmlns="http://www.w3.org/2000/svg" xmlns:xlink="http://www.w3.org/1999/xlink" x="0px" y="0px"
	 width="24px" height="24px" viewBox="0 0 24 24" enable-background="new 0 0 24 24" xml:space="preserve">
<g>
	<path d="M23.5,24.0195h-23c-0.2764,0-0.5-0.2236-0.5-0.5v-23c0-0.2764,0.2236-0.5,0.5-0.5h23c0.2764,0,0.5,0.2236,0.5,0.5v23
		C24,23.7959,23.7764,24.0195,23.5,24.0195z M1,23.0195h22v-22H1V23.0195z"/>
	<path d="M20.5,21.0195h-17c-0.2764,0-0.5-0.2236-0.5-0.5v-11c0-0.2764,0.2236-0.5,0.5-0.5h17c0.2764,0,0.5,0.2236,0.5,0.5v11
		C21,20.7959,20.7764,21.0195,20.5,21.0195z M4,20.0195h16v-10H4V20.0195z"/>
	<path d="M20.5,21.0195h-17c-0.2764,0-0.5-0.2236-0.5-0.5v-11c0-0.2764,0.2236-0.5,0.5-0.5h17c0.2764,0,0.5,0.2236,0.5,0.5v11
		C21,20.7959,20.7764,21.0195,20.5,21.0195z M4,20.0195h16v-10H4V20.0195z"/>
	<path d="M18.8984,17.0195c-0.0039,0.001-0.0117,0.001-0.0195,0H5.2495c-0.1997,0-0.3799-0.1191-0.459-0.3018
		c-0.0791-0.1836-0.0415-0.3965,0.0952-0.541l2.832-3c0.0947-0.1006,0.2261-0.1572,0.3638-0.1572h7.9653
		c0.1377,0,0.2695,0.0566,0.3633,0.1572l2.7598,2.9219c0.1377,0.0898,0.2285,0.2441,0.2285,0.4209
		C19.3984,16.7959,19.1748,17.0195,18.8984,17.0195z M6.4092,16.0195h11.3105l-1.8887-2H8.2974L6.4092,16.0195z"/>
	<path d="M20.5,8.0195h-17c-0.2764,0-0.5-0.2236-0.5-0.5s0.2236-0.5,0.5-0.5h17c0.2764,0,0.5,0.2236,0.5,0.5
		S20.7764,8.0195,20.5,8.0195z"/>
	<path d="M15.5,6.0195h-7c-0.2764,0-0.5-0.2236-0.5-0.5v-2c0-0.2764,0.2236-0.5,0.5-0.5h7c0.2764,0,0.5,0.2236,0.5,0.5v2
		C16,5.7959,15.7764,6.0195,15.5,6.0195z M9,5.0195h6v-1H9V5.0195z"/>
	<path d="M15.5,6.0195h-7c-0.2764,0-0.5-0.2236-0.5-0.5v-2c0-0.2764,0.2236-0.5,0.5-0.5h7c0.2764,0,0.5,0.2236,0.5,0.5v2
		C16,5.7959,15.7764,6.0195,15.5,6.0195z M9,5.0195h6v-1H9V5.0195z"/>
	<path d="M5.5,5.9995c-0.8164,0-1.481-0.6646-1.481-1.481S4.6836,3.0381,5.5,3.0381s1.4805,0.6641,1.4805,1.4805
		S6.3164,5.9995,5.5,5.9995z M5.5,4.0381c-0.2651,0-0.481,0.2153-0.481,0.4805s0.2158,0.481,0.481,0.481s0.4805-0.2158,0.4805-0.481
		S5.7651,4.0381,5.5,4.0381z"/>
	<path d="M18.5,6c-0.7979,0-1.4473-0.6494-1.4473-1.4473S17.7021,3.1055,18.5,3.1055s1.4473,0.6494,1.4473,1.4473S19.2979,6,18.5,6z
		 M18.5,4.1055c-0.2471,0-0.4473,0.2007-0.4473,0.4473S18.2529,5,18.5,5s0.4473-0.2007,0.4473-0.4473S18.7471,4.1055,18.5,4.1055z"
		/>
</g>
<rect y="0.0197" fill="none" width="24" height="24"/>
</svg>
