<?xml version="1.0" encoding="utf-8"?>
<!-- Generator: Adobe Illustrator 18.1.0, SVG Export Plug-In . SVG Version: 6.00 Build 0)  -->
<svg version="1.1" id="Layer_1" xmlns="http://www.w3.org/2000/svg" xmlns:xlink="http://www.w3.org/1999/xlink" x="0px" y="0px"
	 width="24px" height="24px" viewBox="0 0 24 24" enable-background="new 0 0 24 24" xml:space="preserve">
<g>
	<path d="M22.0088,22.5693c-0.1279,0-0.2559-0.0488-0.3535-0.1465l-5.1299-5.1309c-0.1953-0.1953-0.1953-0.5117,0-0.707
		s0.5117-0.1953,0.707,0l5.1299,5.1309c0.1953,0.1953,0.1953,0.5117,0,0.707C22.2646,22.5205,22.1367,22.5693,22.0088,22.5693z"/>
	<path d="M16.8789,22.5693c-0.1279,0-0.2559-0.0488-0.3535-0.1465c-0.1953-0.1953-0.1953-0.5117,0-0.707l5.1299-5.1309
		c0.1953-0.1953,0.5117-0.1953,0.707,0s0.1953,0.5117,0,0.707l-5.1299,5.1309C17.1348,22.5205,17.0068,22.5693,16.8789,22.5693z"/>
	<path d="M8.4688,22.0039H6.4946c-0.2764,0-0.5-0.2236-0.5-0.5s0.2236-0.5,0.5-0.5h1.9741c0.2764,0,0.5,0.2236,0.5,0.5
		S8.7451,22.0039,8.4688,22.0039z"/>
	<path d="M1.4941,6.0039c-0.2764,0-0.5-0.2236-0.5-0.5v-1c0-0.2764,0.2236-0.5,0.5-0.5s0.5,0.2236,0.5,0.5v1
		C1.9941,5.7803,1.7705,6.0039,1.4941,6.0039z"/>
	<path d="M13.4941,6.0039c-0.2764,0-0.5-0.2236-0.5-0.5v-1c0-0.2764,0.2236-0.5,0.5-0.5s0.5,0.2236,0.5,0.5v1
		C13.9941,5.7803,13.7705,6.0039,13.4941,6.0039z"/>
	<path d="M13.4941,5.0039h-12c-0.2764,0-0.5-0.2236-0.5-0.5s0.2236-0.5,0.5-0.5h12c0.2764,0,0.5,0.2236,0.5,0.5
		S13.7705,5.0039,13.4941,5.0039z"/>
	<path d="M7.4941,22.0039c-0.2764,0-0.5-0.2236-0.5-0.5v-17c0-0.2764,0.2236-0.5,0.5-0.5s0.5,0.2236,0.5,0.5v17
		C7.9941,21.7803,7.7705,22.0039,7.4941,22.0039z"/>
</g>
<rect y="0.0011" fill="none" width="24" height="24"/>
</svg>
