<?xml version="1.0" encoding="utf-8"?>
<!-- Generator: Adobe Illustrator 18.1.0, SVG Export Plug-In . SVG Version: 6.00 Build 0)  -->
<svg version="1.1" id="Layer_1" xmlns="http://www.w3.org/2000/svg" xmlns:xlink="http://www.w3.org/1999/xlink" x="0px" y="0px"
	 width="24px" height="24px" viewBox="0 0 24 24" enable-background="new 0 0 24 24" xml:space="preserve">
<g>
	<path d="M18.4893,23.9883c-3.0293,0-5.4932-2.4639-5.4932-5.4932s2.4639-5.4932,5.4932-5.4932s5.4932,2.4639,5.4932,5.4932
		S21.5186,23.9883,18.4893,23.9883z M18.4893,14.002c-2.4775,0-4.4932,2.0156-4.4932,4.4932s2.0156,4.4932,4.4932,4.4932
		s4.4932-2.0156,4.4932-4.4932S20.9668,14.002,18.4893,14.002z"/>
	<path d="M18.5488,21.7988c-0.2764,0-0.5-0.2236-0.5-0.5v-5.501c0-0.2764,0.2236-0.5,0.5-0.5s0.5,0.2236,0.5,0.5v5.501
		C19.0488,21.5752,18.8252,21.7988,18.5488,21.7988z"/>
	<path d="M21.2988,19.0479h-5.501c-0.2764,0-0.5-0.2236-0.5-0.5s0.2236-0.5,0.5-0.5h5.501c0.2764,0,0.5,0.2236,0.5,0.5
		S21.5752,19.0479,21.2988,19.0479z"/>
	<path d="M11.4951,19.9785H1.2368c-0.6479,0-1.1753-0.5293-1.1753-1.1807v-2.3926c0-0.4844,0.3027-0.9277,0.7539-1.1025
		c5.353-2.0547,6.2915-2.917,6.4482-3.1875v-0.6577c-0.6016-0.6626-1.0728-1.5229-1.3726-2.5093
		C5.5112,8.626,5.2588,8.1689,5.1895,7.6694C5.1196,7.1626,5.2383,6.6616,5.5249,6.2402V4.2637
		c0-2.6445,1.7104-4.2231,4.5757-4.2231c2.9072,0,4.5742,1.5391,4.5742,4.2231v1.9761c0.2871,0.4219,0.4062,0.9233,0.3359,1.4307
		c-0.0693,0.4995-0.3223,0.9561-0.7021,1.2778c-0.3008,0.9873-0.7715,1.8477-1.3721,2.5093v0.6772
		c0.0615,0.1709,0.1475,0.2188,0.9121,0.6211c0.2451,0.1279,0.3389,0.4307,0.21,0.6748c-0.1279,0.2461-0.4326,0.3379-0.6748,0.21
		c-1.0107-0.5312-1.2314-0.665-1.4243-1.2754c-0.0151-0.0488-0.0229-0.0996-0.0229-0.1504v-0.9561
		c0-0.1313,0.0518-0.2573,0.1436-0.3511c0.585-0.5933,1.0391-1.4199,1.3125-2.3911c0.0312-0.1113,0.1006-0.208,0.1953-0.2744
		c0.2354-0.1636,0.3926-0.4224,0.4326-0.709c0.04-0.291-0.042-0.5791-0.2324-0.811c-0.0732-0.0894-0.1133-0.2017-0.1133-0.3169
		V4.2637c0-2.1387-1.2021-3.2231-3.5742-3.2231c-2.3057,0-3.5757,1.1445-3.5757,3.2231v2.1421c0,0.1152-0.04,0.2271-0.1128,0.3164
		c-0.1899,0.2319-0.272,0.52-0.2319,0.8105c0.04,0.2866,0.1973,0.5454,0.4321,0.71C6.707,8.3086,6.7759,8.4058,6.8071,8.5171
		c0.2729,0.9697,0.7266,1.7964,1.3125,2.3906c0.0923,0.0938,0.144,0.2197,0.144,0.3511v0.957c0,0.0508-0.0078,0.1016-0.0229,0.1494
		c-0.2046,0.6514-1.2036,1.6201-7.0654,3.8701c-0.0674,0.0264-0.1138,0.0947-0.1138,0.1699v2.3926
		c0,0.0996,0.0786,0.1807,0.1753,0.1807h10.2583c0.2764,0,0.5,0.2236,0.5,0.5S11.7715,19.9785,11.4951,19.9785z"/>
</g>
<rect x="0.0005" y="0.0004" fill="none" width="24" height="24"/>
</svg>
