<?xml version="1.0" encoding="utf-8"?>
<!-- Generator: Adobe Illustrator 18.1.0, SVG Export Plug-In . SVG Version: 6.00 Build 0)  -->
<svg version="1.1" id="Layer_1" xmlns="http://www.w3.org/2000/svg" xmlns:xlink="http://www.w3.org/1999/xlink" x="0px" y="0px"
	 width="24px" height="24px" viewBox="0 0 24 24" enable-background="new 0 0 24 24" xml:space="preserve">
<g>
	<path d="M2.9741,18.4883c-0.4175,0-0.7666-0.1055-1.0425-0.2402c-1.1064-0.541-1.6104-1.8193-1.6104-2.7783
		c-0.0312-2.1504,1.1943-4.0918,1.4404-4.459c0.1528-0.229,0.4653-0.292,0.6948-0.1396c0.2295,0.1533,0.2925,0.4614,0.1396,0.6909
		c-0.1367,0.2041-1.3027,2.0005-1.2749,3.9009c0,0.6689,0.3677,1.5537,1.0498,1.8867c0.7666,0.3789,1.6387-0.0986,2.2339-0.5615
		c0.8145-0.6328,1.4458-1.2578,1.4521-1.2637c0.1958-0.1943,0.5122-0.1953,0.707,0.002c0.1948,0.1963,0.1938,0.5127-0.002,0.707
		c-0.0273,0.0273-0.6792,0.6729-1.5435,1.3438C4.3369,18.2637,3.583,18.4883,2.9741,18.4883z"/>
	<path d="M6.9224,16.7217c-0.2593,0-0.5151-0.1064-0.7046-0.3125l-4.5249-4.9155c-0.0269-0.0288-0.1162-0.1353-0.1353-0.1694
		c-0.1479-0.2705-0.1226-0.6094,0.0737-1.0117c0.6138-1.2563,2.9243-3.3052,5.498-3.7236c0.272-0.043,0.5293,0.1416,0.5737,0.4136
		C7.7471,7.2749,7.562,7.5317,7.2896,7.5762c-2.5933,0.4214-4.6475,2.6553-4.8164,3.3003l4.48,4.855l2.0254-1.251
		c0.2368-0.1445,0.5435-0.0645,0.686,0.1719c0.1421,0.2363,0.0654,0.5439-0.1714,0.6855L7.4146,16.584
		C7.2603,16.6768,7.0903,16.7217,6.9224,16.7217z"/>
	<path d="M21.0625,18.4941c-0.6084,0-1.3643-0.2256-2.2529-0.917c-0.8643-0.6709-1.5156-1.3164-1.543-1.3438
		c-0.1953-0.1943-0.1963-0.5107-0.002-0.707c0.1953-0.1973,0.5107-0.1963,0.707-0.002c0.0059,0.0059,0.6377,0.6318,1.4512,1.2637
		c0.5986,0.4658,1.4717,0.9463,2.2314,0.5703c0.6836-0.334,1.0527-1.2227,1.0527-1.8887c0.0273-1.9082-1.1377-3.7036-1.2705-3.9023
		l0.8281-0.5601c0.248,0.3706,1.4736,2.311,1.4424,4.4692c0,0.9863-0.5547,2.2617-1.6133,2.7803
		C21.8203,18.3906,21.4756,18.4941,21.0625,18.4941z"/>
	<path d="M17.1064,16.7217c-0.1689,0-0.3389-0.0449-0.4932-0.1377l-2.0781-1.2461c-0.2373-0.1416-0.3145-0.4492-0.1719-0.6855
		c0.1416-0.2383,0.4502-0.3154,0.6855-0.1719l2.0791,1.2461l4.4258-4.8594c-0.1826-0.6533-2.2422-2.8667-4.8516-3.291
		c-0.2725-0.0444-0.458-0.3013-0.4131-0.5737c0.043-0.2734,0.3066-0.4551,0.5732-0.4136c2.6006,0.4229,4.9229,2.4678,5.5342,3.7192
		c0.1973,0.4043,0.2227,0.7446,0.0762,1.0122c-0.0352,0.0635-0.1494,0.1934-0.207,0.2363l-4.4541,4.8525
		C17.6221,16.6143,17.3662,16.7217,17.1064,16.7217z"/>
	<path d="M14.1143,15.9971H9.8779c-0.5132,0-0.9604-0.3418-1.0869-0.8311C6.6426,6.918,6.6426,6.9019,6.6426,6.813
		c0-1.1685,2.8213-1.9824,5.3535-1.9824s5.3535,0.814,5.3535,1.9824c0,0.0889,0,0.105-2.1494,8.354
		C15.0742,15.6553,14.627,15.9971,14.1143,15.9971z M7.6641,6.8418c0.2295,0.9053,1.562,6.0273,2.0947,8.0732
		c0.0122,0.0479,0.0625,0.082,0.1191,0.082h4.2363c0.0566,0,0.1064-0.0342,0.1182-0.0811c0.543-2.082,1.9121-7.3447,2.1064-8.1172
		c-0.2178-0.2524-1.9033-0.9683-4.3428-0.9683C9.6318,5.8306,7.9756,6.5029,7.6641,6.8418z"/>
</g>
<rect x="0.0142" y="0.0346" fill="none" width="24" height="24"/>
</svg>
