<?xml version="1.0" encoding="utf-8"?>
<!-- Generator: Adobe Illustrator 18.1.0, SVG Export Plug-In . SVG Version: 6.00 Build 0)  -->
<svg version="1.1" id="Layer_1" xmlns="http://www.w3.org/2000/svg" xmlns:xlink="http://www.w3.org/1999/xlink" x="0px" y="0px"
	 width="24px" height="24px" viewBox="0 0 24 24" enable-background="new 0 0 24 24" xml:space="preserve">
<g>
	<path d="M14.7754,22H7.5C7.2236,22,7,21.7764,7,21.5v-4C7,17.2236,7.2236,17,7.5,17h7.2754c2.6152,0,4.2393-1.7246,4.2393-4.5
		c0-2.7759-1.624-4.5-4.2393-4.5H7.5C7.2236,8,7,7.7764,7,7.5v-4C7,3.2236,7.2236,3,7.5,3h7.2754c4.9121,0,9.0615,4.3506,9.0615,9.5
		S19.6875,22,14.7754,22z M8,21h6.7754c4.3701,0,8.0615-3.8926,8.0615-8.5S19.1455,4,14.7754,4H8v3h6.7754
		c3.1826,0,5.2393,2.1587,5.2393,5.5c0,3.3408-2.0566,5.5-5.2393,5.5H8V21z"/>
	<path d="M10.5,8C10.2236,8,10,7.7764,10,7.5V3.4834c0-0.2764,0.2236-0.5,0.5-0.5s0.5,0.2236,0.5,0.5V7.5
		C11,7.7764,10.7764,8,10.5,8z"/>
	<path d="M10.5,22c-0.2764,0-0.5-0.2236-0.5-0.5v-4c0-0.2764,0.2236-0.5,0.5-0.5s0.5,0.2236,0.5,0.5v4
		C11,21.7764,10.7764,22,10.5,22z"/>
	<path d="M2.498,8.1401c-0.2764,0-0.5-0.2236-0.5-0.5V3.4834c0-0.2764,0.2236-0.5,0.5-0.5s0.5,0.2236,0.5,0.5v4.1567
		C2.998,7.9165,2.7744,8.1401,2.498,8.1401z"/>
	<path d="M4.5474,6.0615H0.4492c-0.2764,0-0.5-0.2236-0.5-0.5s0.2236-0.5,0.5-0.5h4.0981c0.2764,0,0.5,0.2236,0.5,0.5
		S4.8237,6.0615,4.5474,6.0615z"/>
	<path d="M4.5474,20.0537H0.4492c-0.2764,0-0.5-0.2236-0.5-0.5s0.2236-0.5,0.5-0.5h4.0981c0.2764,0,0.5,0.2236,0.5,0.5
		S4.8237,20.0537,4.5474,20.0537z"/>
</g>
<rect fill="none" width="24" height="24"/>
</svg>
