<?xml version="1.0" encoding="utf-8"?>
<!-- Generator: Adobe Illustrator 18.1.0, SVG Export Plug-In . SVG Version: 6.00 Build 0)  -->
<svg version="1.1" id="Layer_1" xmlns="http://www.w3.org/2000/svg" xmlns:xlink="http://www.w3.org/1999/xlink" x="0px" y="0px"
	 width="24px" height="24px" viewBox="0 0 24 24" enable-background="new 0 0 24 24" xml:space="preserve">
<g>
	<path d="M20.5293,24H3.4102c-0.2764,0-0.5-0.2236-0.5-0.5v-6.0195c0-0.2764,0.2236-0.5,0.5-0.5h17.1191
		c0.2764,0,0.5,0.2236,0.5,0.5V23.5C21.0293,23.7764,20.8057,24,20.5293,24z M3.9102,23h16.1191v-5.0195H3.9102V23z"/>
	<path d="M7.4312,10.8208c-0.8721,0-1.751-0.3774-2.2812-1.1113c-1.3691,1.897-5.0586,1.3052-5.0586-1.6489
		c0-0.1211,0.0439-0.2378,0.1235-0.3291l3.1372-3.5884c0.0952-0.1084,0.2324-0.1709,0.3765-0.1709L20.248,3.9727
		c0.1445,0,0.2812,0.0625,0.376,0.1709l3.1367,3.5879c0.0801,0.0913,0.124,0.208,0.124,0.3291c0,0.8462-0.3047,1.562-0.8818,2.0703
		c-0.5039,0.4448-1.1777,0.6895-1.8965,0.6895l0,0c-0.8721,0-1.75-0.3774-2.2803-1.1108c-1.0596,1.4683-3.501,1.4668-4.5586,0
		c-1.0586,1.4668-3.499,1.4678-4.5586,0C9.1797,10.4434,8.3018,10.8208,7.4312,10.8208z M5.6499,8.0605
		c0,1.2163,0.8945,1.7603,1.7812,1.7603c0.8848,0,1.7773-0.5439,1.7773-1.7603c0-0.2764,0.2236-0.5,0.5-0.5s0.5,0.2236,0.5,0.5
		c0,1.2158,0.894,1.7603,1.7803,1.7603c0.8853,0,1.7788-0.5444,1.7788-1.7603c0-0.2764,0.2236-0.5,0.5-0.5s0.5,0.2236,0.5,0.5
		c0,1.2158,0.8945,1.7603,1.7803,1.7603c0.8848,0,1.7783-0.5444,1.7783-1.7603c0-0.2764,0.2236-0.5,0.5-0.5s0.5,0.2236,0.5,0.5
		c0,1.2158,0.8936,1.7598,1.7803,1.7598l0,0c0.4678,0,0.9189-0.1602,1.2354-0.4399c0.3154-0.2778,0.499-0.6694,0.5361-1.1401
		l-2.8564-3.2676H3.9556L1.0981,8.2407c0.084,1.0894,0.9321,1.5801,1.7734,1.5801c0.8853,0,1.7783-0.5444,1.7783-1.7603
		c0-0.2764,0.2236-0.5,0.5-0.5S5.6499,7.7842,5.6499,8.0605z"/>
	<path d="M20.5293,24H3.4102c-0.2764,0-0.5-0.2236-0.5-0.5V12.6768c0-0.2764,0.2236-0.5,0.5-0.5s0.5,0.2236,0.5,0.5V23h16.1191
		V12.6631c0-0.2764,0.2236-0.5,0.5-0.5s0.5,0.2236,0.5,0.5V23.5C21.0293,23.7764,20.8057,24,20.5293,24z"/>
	<path d="M20.2393,4.9722c-0.2764,0-0.5-0.2236-0.5-0.5V2.98H4.2007v1.4922c0,0.2764-0.2236,0.5-0.5,0.5s-0.5-0.2236-0.5-0.5V2.48
		c0-0.2764,0.2236-0.5,0.5-0.5h16.5386c0.2764,0,0.5,0.2236,0.5,0.5v1.9922C20.7393,4.7485,20.5156,4.9722,20.2393,4.9722z"/>
</g>
<rect x="-0.0137" y="0.0001" fill="none" width="24" height="24"/>
</svg>
