<?xml version="1.0" encoding="utf-8"?>
<!-- Generator: Adobe Illustrator 18.1.0, SVG Export Plug-In . SVG Version: 6.00 Build 0)  -->
<svg version="1.1" id="Layer_1" xmlns="http://www.w3.org/2000/svg" xmlns:xlink="http://www.w3.org/1999/xlink" x="0px" y="0px"
	 width="24px" height="24px" viewBox="0 0 24 24" enable-background="new 0 0 24 24" xml:space="preserve">
<g>
	<path d="M7.5015,14h-4c-0.2764,0-0.5-0.2236-0.5-0.5v-4c0-0.2764,0.2236-0.5,0.5-0.5h4c0.2764,0,0.5,0.2236,0.5,0.5v4
		C8.0015,13.7764,7.7778,14,7.5015,14z M4.0015,13h3v-3h-3V13z"/>
	<path d="M7.5015,7.9995h-4c-0.2764,0-0.5-0.2236-0.5-0.5v-4c0-0.2764,0.2236-0.5,0.5-0.5h4c0.2764,0,0.5,0.2236,0.5,0.5v4
		C8.0015,7.7759,7.7778,7.9995,7.5015,7.9995z M4.0015,6.9995h3v-3h-3V6.9995z"/>
	<path d="M19.4863,5h-8.9092c-0.2764,0-0.5-0.2236-0.5-0.5s0.2236-0.5,0.5-0.5h8.9092c0.2764,0,0.5,0.2236,0.5,0.5
		S19.7627,5,19.4863,5z"/>
	<path d="M19.4863,11h-8.9092c-0.2764,0-0.5-0.2236-0.5-0.5s0.2236-0.5,0.5-0.5h8.9092c0.2764,0,0.5,0.2236,0.5,0.5
		S19.7627,11,19.4863,11z"/>
	<path d="M14.4541,7h-3.877c-0.2764,0-0.5-0.2236-0.5-0.5s0.2236-0.5,0.5-0.5h3.877c0.2764,0,0.5,0.2236,0.5,0.5
		S14.7305,7,14.4541,7z"/>
	<path d="M14.4541,13h-3.877c-0.2764,0-0.5-0.2236-0.5-0.5s0.2236-0.5,0.5-0.5h3.877c0.2764,0,0.5,0.2236,0.5,0.5
		S14.7305,13,14.4541,13z"/>
	<path d="M16.3066,24h-8.604c-0.5088,0-0.9385-0.4092-0.9385-0.8936c0-0.0791,0.019-0.1582,0.0552-0.2285l0.1963-0.3955
		C7.5557,21.377,8.2275,20,10.1831,20h3.6431c2,0,2.6523,1.3945,3.1758,2.5156l0.1924,0.4033
		c0.0342,0.0693,0.0518,0.1445,0.0518,0.2217C17.2461,23.6143,16.8242,24,16.3066,24z M7.875,23h8.25
		c-0.0098-0.0205-0.0195-0.041-0.0283-0.0615C15.6104,21.8984,15.1904,21,13.8262,21h-3.6431c-1.3311,0-1.7656,0.8906-2.269,1.9209
		L7.875,23z"/>
	<path d="M21.8994,17H2.1089c-1.2188,0-2.103-0.8525-2.103-2.0273V2.1831C0.0059,0.9795,0.9492,0,2.1089,0h19.7905
		c1.1611,0,2.1064,0.9795,2.1064,2.1831v12.7896C24.0059,16.1475,23.1201,17,21.8994,17z M2.1089,1
		c-0.6084,0-1.103,0.5308-1.103,1.1831v12.7896C1.0059,15.5869,1.4492,16,2.1089,16h19.7905c0.6621,0,1.1064-0.4131,1.1064-1.0273
		V2.1831C23.0059,1.5308,22.5098,1,21.8994,1H2.1089z"/>
	<path d="M12.0059,21c-0.2764,0-0.5-0.2236-0.5-0.5v-2c0-0.2764,0.2236-0.5,0.5-0.5s0.5,0.2236,0.5,0.5v2
		C12.5059,20.7764,12.2822,21,12.0059,21z"/>
</g>
<rect fill="none" width="24" height="24"/>
</svg>
