<?xml version="1.0" encoding="utf-8"?>
<!-- Generator: Adobe Illustrator 18.1.0, SVG Export Plug-In . SVG Version: 6.00 Build 0)  -->
<svg version="1.1" id="Layer_1" xmlns="http://www.w3.org/2000/svg" xmlns:xlink="http://www.w3.org/1999/xlink" x="0px" y="0px"
	 width="24px" height="24px" viewBox="0 0 24 24" enable-background="new 0 0 24 24" xml:space="preserve">
<g>
	<g>
		<path d="M7.2891,6.9878H5.0552c-0.2764,0-0.5-0.2236-0.5-0.5s0.2236-0.5,0.5-0.5h2.2339c0.2764,0,0.5,0.2236,0.5,0.5
			S7.5654,6.9878,7.2891,6.9878z"/>
		<path d="M22.8701,6.9878h-2.1494c-0.2764,0-0.5-0.2236-0.5-0.5s0.2236-0.5,0.5-0.5h2.1494c0.2764,0,0.5,0.2236,0.5,0.5
			S23.1465,6.9878,22.8701,6.9878z"/>
		<path d="M7.9961,23.9092c-1.3608,0-2.4683-1.1035-2.4683-2.46c0-1.3555,1.1074-2.459,2.4683-2.459s2.4683,1.1035,2.4683,2.459
			C10.4644,22.8057,9.3569,23.9092,7.9961,23.9092z M7.9961,19.9902c-0.8096,0-1.4683,0.6543-1.4683,1.459s0.6587,1.46,1.4683,1.46
			s1.4683-0.6553,1.4683-1.46S8.8057,19.9902,7.9961,19.9902z"/>
		<path d="M17.9971,23.9092c-1.3613,0-2.4688-1.1035-2.4688-2.46c0-1.3555,1.1074-2.459,2.4688-2.459
			c1.3604,0,2.4678,1.1035,2.4678,2.459C20.4648,22.8057,19.3574,23.9092,17.9971,23.9092z M17.9971,19.9902
			c-0.8096,0-1.4688,0.6543-1.4688,1.459s0.6592,1.46,1.4688,1.46s1.4678-0.6553,1.4678-1.46S18.8066,19.9902,17.9971,19.9902z"/>
		<path d="M21.9355,10h-2.4248c-0.2764,0-0.5-0.2236-0.5-0.5s0.2236-0.5,0.5-0.5h2.4248c0.2764,0,0.5,0.2236,0.5,0.5
			S22.2119,10,21.9355,10z"/>
		<path d="M8.5332,10H5.709c-0.2764,0-0.5-0.2236-0.5-0.5S5.4326,9,5.709,9h2.8242c0.2764,0,0.5,0.2236,0.5,0.5S8.8096,10,8.5332,10
			z"/>
		<path d="M21.0039,13H6.3599c-0.2764,0-0.5-0.2236-0.5-0.5s0.2236-0.5,0.5-0.5h14.644c0.2764,0,0.5,0.2236,0.5,0.5
			S21.2803,13,21.0039,13z"/>
		<path d="M20.0732,16H7.0107c-0.2354,0-0.439-0.1641-0.4888-0.3936L4.0039,4.001h-3.499c-0.2764,0-0.5-0.2236-0.5-0.5
			s0.2236-0.5,0.5-0.5h3.9023c0.2354,0,0.439,0.1641,0.4888,0.394L7.4141,15h12.6592c0.2764,0,0.5,0.2236,0.5,0.5
			S20.3496,16,20.0732,16z"/>
	</g>
	<path d="M14.0049,10.8838c-2.9233,0-5.3018-2.3779-5.3018-5.3013s2.3784-5.3018,5.3018-5.3018
		c2.9238,0,5.3018,2.3784,5.3018,5.3018S16.9287,10.8838,14.0049,10.8838z M14.0049,1.2808c-2.3721,0-4.3018,1.9297-4.3018,4.3018
		c0,2.3716,1.9297,4.3013,4.3018,4.3013s4.3018-1.9297,4.3018-4.3013C18.3066,3.2104,16.377,1.2808,14.0049,1.2808z"/>
	<path d="M13.0166,7.7378c-0.1201,0-0.2412-0.0435-0.3359-0.1299l-1.1455-1.0396c-0.2046-0.1855-0.2197-0.5015-0.0342-0.7061
		c0.187-0.2046,0.5029-0.2188,0.7061-0.0342l0.8174,0.7417l2.8057-2.4258c0.209-0.1802,0.5244-0.1582,0.7051,0.0513
		c0.1807,0.209,0.1582,0.5249-0.0508,0.7056l-3.1406,2.7153C13.25,7.6973,13.1328,7.7378,13.0166,7.7378z"/>
</g>
<rect x="0.0049" y="-0.0147" fill="none" width="24" height="24"/>
</svg>
