<?xml version="1.0" encoding="utf-8"?>
<!-- Generator: Adobe Illustrator 18.1.0, SVG Export Plug-In . SVG Version: 6.00 Build 0)  -->
<svg version="1.1" id="Layer_1" xmlns="http://www.w3.org/2000/svg" xmlns:xlink="http://www.w3.org/1999/xlink" x="0px" y="0px"
	 width="24px" height="24px" viewBox="0 0 24 24" enable-background="new 0 0 24 24" xml:space="preserve">
<g>
	<path d="M3.835,19.0342H3.1929c-0.6499,0-1.1787-0.5283-1.1787-1.1787V7.2134c0-0.6504,0.5288-1.1792,1.1787-1.1792H3.835
		c0.6504,0,1.1792,0.5288,1.1792,1.1792v10.6421C5.0142,18.5059,4.4854,19.0342,3.835,19.0342z M3.1929,7.0342
		c-0.0986,0-0.1787,0.0806-0.1787,0.1792v10.6421c0,0.0986,0.0801,0.1787,0.1787,0.1787H3.835c0.0986,0,0.1792-0.0801,0.1792-0.1787
		V7.2134c0-0.0986-0.0806-0.1792-0.1792-0.1792H3.1929z"/>
	<path d="M1.835,17.0342H1.1929c-0.6499,0-1.1787-0.5283-1.1787-1.1787V9.2134c0-0.6504,0.5288-1.1792,1.1787-1.1792H1.835
		c0.6504,0,1.1792,0.5288,1.1792,1.1792v6.6421C3.0142,16.5059,2.4854,17.0342,1.835,17.0342z M1.1929,9.0342
		c-0.0986,0-0.1787,0.0806-0.1787,0.1792v6.6421c0,0.0986,0.0801,0.1787,0.1787,0.1787H1.835c0.0986,0,0.1792-0.0801,0.1792-0.1787
		V9.2134c0-0.0986-0.0806-0.1792-0.1792-0.1792H1.1929z"/>
	<path d="M20.8359,19.0342h-0.6416c-0.6504,0-1.1787-0.5283-1.1787-1.1787V7.2134c0-0.6504,0.5283-1.1792,1.1787-1.1792h0.6416
		c0.6504,0,1.1797,0.5288,1.1797,1.1792v10.6421C22.0156,18.5059,21.4863,19.0342,20.8359,19.0342z M20.1943,7.0342
		c-0.0986,0-0.1787,0.0806-0.1787,0.1792v10.6421c0,0.0986,0.0801,0.1787,0.1787,0.1787h0.6416
		c0.0986,0,0.1797-0.0801,0.1797-0.1787V7.2134c0-0.0986-0.0811-0.1792-0.1797-0.1792H20.1943z"/>
	<path d="M22.8359,17.0342h-0.6416c-0.6504,0-1.1787-0.5283-1.1787-1.1787V9.2134c0-0.6504,0.5283-1.1792,1.1787-1.1792h0.6416
		c0.6504,0,1.1797,0.5288,1.1797,1.1792v6.6421C24.0156,16.5059,23.4863,17.0342,22.8359,17.0342z M22.1943,9.0342
		c-0.0986,0-0.1787,0.0806-0.1787,0.1792v6.6421c0,0.0986,0.0801,0.1787,0.1787,0.1787h0.6416c0.0986,0,0.1797-0.0801,0.1797-0.1787
		V9.2134c0-0.0986-0.0811-0.1792-0.1797-0.1792H22.1943z"/>
	<path d="M17.5156,13.0342H6.5142c-0.2764,0-0.5-0.2236-0.5-0.5s0.2236-0.5,0.5-0.5h11.0015c0.2764,0,0.5,0.2236,0.5,0.5
		S17.792,13.0342,17.5156,13.0342z"/>
</g>
<rect x="0.0142" y="0.0346" fill="none" width="24" height="24"/>
</svg>
