<?xml version="1.0" encoding="utf-8"?>
<!-- Generator: Adobe Illustrator 18.1.0, SVG Export Plug-In . SVG Version: 6.00 Build 0)  -->
<svg version="1.1" id="Layer_1" xmlns="http://www.w3.org/2000/svg" xmlns:xlink="http://www.w3.org/1999/xlink" x="0px" y="0px"
	 width="24px" height="24px" viewBox="0 0 24 24" enable-background="new 0 0 24 24" xml:space="preserve">
<g>
	<g>
		<g>
			<path d="M7.4922,20.1523c-0.2764,0-0.5-0.2236-0.5-0.5v-2c0-0.2764,0.2236-0.5,0.5-0.5s0.5,0.2236,0.5,0.5v2
				C7.9922,19.9287,7.7686,20.1523,7.4922,20.1523z"/>
			<path d="M7.4922,23.9834c-0.2764,0-0.5-0.2236-0.5-0.5v-2c0-0.2764,0.2236-0.5,0.5-0.5s0.5,0.2236,0.5,0.5v2
				C7.9922,23.7598,7.7686,23.9834,7.4922,23.9834z"/>
		</g>
	</g>
	<g>
		<g>
			<path d="M4.2124,20.0996c-0.0508,0-0.103-0.0078-0.1538-0.0244c-0.2627-0.085-0.4067-0.3672-0.3218-0.6299l0.6157-1.9023
				c0.085-0.2617,0.3677-0.4062,0.6294-0.3213c0.2627,0.085,0.4067,0.3672,0.3218,0.6299L4.688,19.7539
				C4.6196,19.9648,4.4233,20.0996,4.2124,20.0996z"/>
			<path d="M2.9707,23.9385c-0.0508,0-0.103-0.0078-0.1538-0.0244c-0.2627-0.085-0.4067-0.3672-0.3218-0.6299l0.6157-1.9023
				c0.0845-0.2617,0.3687-0.4072,0.6294-0.3213c0.2627,0.085,0.4067,0.3672,0.3218,0.6299l-0.6157,1.9023
				C3.3779,23.8037,3.1816,23.9385,2.9707,23.9385z"/>
		</g>
	</g>
	<g>
		<g>
			<path d="M10.7725,20.0996c-0.2109,0-0.4072-0.1348-0.4756-0.3457l-0.6157-1.9023c-0.085-0.2627,0.0591-0.5449,0.3218-0.6299
				c0.2612-0.085,0.5449,0.0596,0.6294,0.3213l0.6157,1.9023c0.085,0.2627-0.0591,0.5449-0.3218,0.6299
				C10.8755,20.0918,10.8232,20.0996,10.7725,20.0996z"/>
			<path d="M12.0146,23.9385c-0.2109,0-0.4072-0.1348-0.4756-0.3457l-0.6157-1.9023c-0.085-0.2627,0.0591-0.5449,0.3218-0.6299
				c0.2622-0.0859,0.5444,0.0596,0.6294,0.3213l0.6157,1.9023c0.085,0.2627-0.0586,0.5449-0.3213,0.6299
				C12.1172,23.9307,12.0654,23.9385,12.0146,23.9385z"/>
		</g>
	</g>
	<path d="M19.0654,12.7012c-1.4707,0-2.668-1.1973-2.668-2.6689c0-1.4712,1.1973-2.6685,2.668-2.6685
		c1.4717,0,2.6689,1.1973,2.6689,2.6685C21.7344,11.5039,20.5371,12.7012,19.0654,12.7012z M19.0654,8.3638
		c-0.9199,0-1.668,0.7485-1.668,1.6685c0,0.9204,0.748,1.6689,1.668,1.6689s1.6689-0.7485,1.6689-1.6689
		C20.7344,9.1123,19.9854,8.3638,19.0654,8.3638z"/>
	<path d="M22.124,16.0342H0.688c-0.1475,0-0.2876-0.0654-0.3828-0.1777c-0.0947-0.1133-0.1353-0.2627-0.1099-0.4082
		c0.5693-3.2822,2.2607-4.8774,3.7524-6.2847c2.8228-2.6631,6.814-4.1294,11.2388-4.1294h8.3311c0.2764,0,0.5,0.2236,0.5,0.5v8.5312
		C24.0176,15.1328,23.1504,16.0342,22.124,16.0342z M1.2988,15.0342H22.124c0.4756,0,0.8936-0.4531,0.8936-0.9688V6.0342h-7.8311
		c-4.1685,0-7.916,1.3696-10.5522,3.8569C3.0391,11.3955,1.8442,12.6748,1.2988,15.0342z"/>
	<path d="M23.5176,6.0342c-0.2764,0-0.5-0.2236-0.5-0.5V2.9653c0-0.5049-0.4092-0.9312-0.8936-0.9312H10.0171
		c-0.2764,0-0.5-0.2236-0.5-0.5s0.2236-0.5,0.5-0.5H22.124c1.0439,0,1.8936,0.8662,1.8936,1.9312v2.5688
		C24.0176,5.8105,23.7939,6.0342,23.5176,6.0342z"/>
</g>
<rect x="0.0142" y="0.0344" fill="none" width="24" height="24"/>
</svg>
