<?xml version="1.0" encoding="utf-8"?>
<!-- Generator: Adobe Illustrator 18.1.0, SVG Export Plug-In . SVG Version: 6.00 Build 0)  -->
<svg version="1.1" id="Layer_1" xmlns="http://www.w3.org/2000/svg" xmlns:xlink="http://www.w3.org/1999/xlink" x="0px" y="0px"
	 width="24px" height="24px" viewBox="0 0 24 24" enable-background="new 0 0 24 24" xml:space="preserve">
<g>
	<path d="M13.9658,19.916c-0.2744,0-0.498-0.2217-0.5-0.4971c-0.002-0.2764,0.2207-0.501,0.4971-0.5029
		c3.8213-0.0225,5.7559-0.3301,6.4141-2.0176c0.2354-0.6025,0.2373-1.165,0.0068-1.543c-0.1279-0.2109-0.3174-0.3398-0.5322-0.3623
		c-0.2744-0.0283-0.4746-0.2744-0.4453-0.5488c0.0273-0.2754,0.2803-0.4785,0.5488-0.4453
		c0.5254,0.0547,0.9922,0.3594,1.2832,0.8359c0.3936,0.6465,0.4199,1.5312,0.0703,2.4268
		c-0.9463,2.4238-3.7598,2.6328-7.3398,2.6543C13.9678,19.916,13.9668,19.916,13.9658,19.916z"/>
	<path d="M13.165,20.6094H12.834c-0.7178,0-1.3018-0.5352-1.3018-1.1924s0.584-1.1914,1.3018-1.1914h0.3311
		c0.7168,0,1.3008,0.5342,1.3008,1.1914S13.8818,20.6094,13.165,20.6094z M12.834,19.2256c-0.1729,0-0.3018,0.1006-0.3018,0.1914
		s0.1289,0.1924,0.3018,0.1924h0.3311c0.1719,0,0.3008-0.1016,0.3008-0.1924s-0.1289-0.1914-0.3008-0.1914H12.834z"/>
	<path d="M11.9019,23.1943c-2.5381,0-6.6025-2.8535-7.1592-6.4482C3.9404,16.5488,3.355,15.834,3.355,14.9844
		c0-0.626,0.3242-1.2031,0.8438-1.5322c0.0874-0.5527-0.0156-1.5659-0.0928-2.3276c-0.0503-0.4951-0.0942-0.9404-0.0942-1.2393
		c0-0.2764,0.2236-0.5,0.5-0.5s0.5,0.2236,0.5,0.5c0,0.2744,0.043,0.6831,0.0889,1.1382c0.1064,1.0459,0.2271,2.2324,0.0103,2.9121
		c-0.0435,0.1357-0.1426,0.2471-0.2725,0.3047c-0.2939,0.1318-0.4834,0.4238-0.4834,0.7441c0,0.4502,0.3662,0.8164,0.8159,0.8164
		c0.2607,0,0.501,0.1992,0.5215,0.46c0.2529,3.2178,3.9941,5.9336,6.2095,5.9336c2.2681,0,5.9526-2.6582,6.2104-5.9336
		c0.0195-0.2607,0.2373-0.4609,0.498-0.4609c0.001,0,0.001,0,0.002,0c0.4717,0,0.8369-0.3662,0.8369-0.8154
		c0-0.3203-0.1904-0.6123-0.4844-0.7441c-0.126-0.0557-0.2236-0.1621-0.2686-0.292c-0.1855-0.5371-0.0791-1.5566,0.0928-2.9395
		c0.0684-0.5532,0.1328-1.0757,0.1328-1.3564c0-0.2764,0.2236-0.5,0.5-0.5s0.5,0.2236,0.5,0.5c0,0.3428-0.0654,0.8691-0.1406,1.4795
		c-0.0928,0.7466-0.2266,1.8291-0.1729,2.3223c0.5176,0.3301,0.8408,0.9062,0.8408,1.5303c0,0.8545-0.5928,1.5723-1.3887,1.7656
		C18.5234,20.207,14.7295,23.1943,11.9019,23.1943z"/>
	<path d="M10.8013,19.917H10.125c-0.2764,0-0.5-0.2236-0.5-0.5s0.2236-0.5,0.5-0.5h0.6763c0.2764,0,0.5,0.2236,0.5,0.5
		S11.0776,19.917,10.8013,19.917z"/>
	<path d="M4.5112,10.3853c-0.2485,0-0.4639-0.1851-0.4956-0.438C3.9814,9.6733,4.1758,9.4233,4.4497,9.3892
		c3.8447-0.48,9.4604-1.7373,9.9077-3.0312c0.0605-0.1753,0.2129-0.3022,0.3965-0.3306c0.1816-0.0293,0.3672,0.0474,0.4775,0.1963
		c0.9854,1.3252,2.9502,3.2993,4.0391,2.9521c0.2627-0.0854,0.5449,0.0625,0.6279,0.3252c0.084,0.2627-0.0615,0.5439-0.3252,0.6279
		c-1.7031,0.5396-3.8174-1.6836-4.7236-2.7764c-1.9453,1.8979-8.7915,2.8438-10.2759,3.0288
		C4.5527,10.3838,4.5317,10.3853,4.5112,10.3853z"/>
	<path d="M18.7686,21.7666c-0.2812,0-0.5742-0.0146-0.8779-0.043c-0.2744-0.0264-0.4766-0.2705-0.4502-0.5459
		c0.0273-0.2754,0.2744-0.4639,0.5459-0.4502c1.8135,0.1787,3.127-0.2344,3.9121-1.2109c1.4619-1.8174,1.2949-5.707-0.4844-11.2495
		c-2.2041-6.874-7.2402-6.1685-7.4561-6.1328c-0.0674,0.0103-0.1406,0.0073-0.208-0.0107c-0.0459-0.0107-4.501-1.1641-7.9536,1.0366
		c-2.0371,1.2983-3.3457,3.5137-3.8892,6.584c-1.0664,6.0244-1.0488,9.0928,0.0586,10.2617
		c0.6475,0.6826,1.7773,0.8545,3.8975,0.5977c0.2808-0.0361,0.5234,0.1611,0.5566,0.4355c0.0337,0.2744-0.1616,0.5234-0.4355,0.5566
		c-1.8115,0.2217-3.6392,0.2646-4.7441-0.9023c-1.3867-1.4629-1.4756-4.582-0.3174-11.123C1.5176,6.209,2.979,3.7671,5.2661,2.3125
		c3.5796-2.2769,7.9302-1.3535,8.647-1.1787c0.8535-0.0874,6.167-0.3003,8.4541,6.8276c1.9131,5.9624,2.0176,10.061,0.3105,12.1821
		C21.8086,21.2227,20.4961,21.7666,18.7686,21.7666z"/>
	<path d="M9.9893,14.0732H9.0283c-0.2764,0-0.5-0.2236-0.5-0.5s0.2236-0.5,0.5-0.5h0.9609c0.2764,0,0.5,0.2236,0.5,0.5
		S10.2656,14.0732,9.9893,14.0732z"/>
	<path d="M14.9727,14.0732h-0.9609c-0.2764,0-0.5-0.2236-0.5-0.5s0.2236-0.5,0.5-0.5h0.9609c0.2764,0,0.5,0.2236,0.5,0.5
		S15.249,14.0732,14.9727,14.0732z"/>
</g>
<rect x="0.0005" y="0.0004" fill="none" width="24" height="24"/>
</svg>
