<?xml version="1.0" encoding="utf-8"?>
<!-- Generator: Adobe Illustrator 18.1.0, SVG Export Plug-In . SVG Version: 6.00 Build 0)  -->
<svg version="1.1" id="Layer_1" xmlns="http://www.w3.org/2000/svg" xmlns:xlink="http://www.w3.org/1999/xlink" x="0px" y="0px"
	 width="24px" height="24px" viewBox="0 0 24 24" enable-background="new 0 0 24 24" xml:space="preserve">
<rect x="-0.025" y="-0.0147" fill="none" width="24" height="24"/>
<g>
	<g>
		<path d="M11.8623,12.7754c-0.2129,0-0.4102-0.1367-0.4771-0.3506c-0.5737-1.8354-0.6274-3.5322-0.6294-3.6035
			s0.0112-0.1416,0.0386-0.207c0.0405-0.0967,1.0112-2.3726,2.9087-3.0737c1.6113-0.5952,3.1201-1.8467,3.1357-1.8594
			c0.209-0.1768,0.5254-0.1489,0.7041,0.063c0.1768,0.2119,0.1484,0.5273-0.0625,0.7041c-0.0674,0.0562-1.6533,1.374-3.4307,2.0303
			c-1.2949,0.4785-2.0981,2.0229-2.2891,2.4258c0.022,0.3945,0.1279,1.7803,0.5791,3.2217c0.082,0.2637-0.0645,0.5439-0.3281,0.627
			C11.9619,12.7686,11.9116,12.7754,11.8623,12.7754z"/>
		<path d="M8.124,10.8135L8.124,10.8135C4.7256,10.813,3.377,5.7036,3.3213,5.4858c-0.0347-0.1343-0.0112-0.2773,0.064-0.3945
			C3.46,4.9746,3.5806,4.894,3.7173,4.8696C3.7642,4.8613,4.876,4.665,6.2593,4.665c2.9438,0,4.793,0.8804,5.3486,2.5464
			c0.0205,0.061,0.0288,0.125,0.0249,0.189c-0.0459,0.7456,0.1011,1.2598,0.1025,1.2646c0.0537,0.1841-0.002,0.3848-0.1445,0.5132
			C10.3882,10.2632,9.2222,10.8135,8.124,10.8135z M4.4561,5.7749c0.4111,1.209,1.5942,4.0381,3.668,4.0386
			c0.7822,0,1.6494-0.3994,2.5801-1.188c-0.0474-0.2656-0.0967-0.6787-0.0747-1.1821C9.8267,5.3525,5.915,5.6006,4.4561,5.7749z"/>
		<path d="M15.0518,10.4082c-0.001,0-0.001,0-0.002,0c-1.1602-0.0005-2.5127-0.3892-4.0205-1.1553
			c-0.1216-0.062-0.2129-0.1709-0.2524-0.3018c-0.0078-0.0273-0.1997-0.6772-0.1421-1.6123c0.125-2.0259,1.4307-5.626,8.7676-6.9717
			c0.1338-0.0239,0.2783,0.0083,0.3896,0.0913c0.1113,0.084,0.1836,0.21,0.1973,0.3486c0.0244,0.2295,0.5557,5.6421-1.7842,8.2373
			C17.3887,9.9492,16.3281,10.4082,15.0518,10.4082z M11.6914,8.4653c1.2803,0.6255,2.4092,0.9424,3.3594,0.9429c0,0,0,0,0.001,0
			c0.9951,0,1.7832-0.3379,2.4102-1.0332c1.6484-1.8281,1.6396-5.5234,1.5703-6.9165c-6.1826,1.2881-7.2954,4.2563-7.3994,5.9419
			C11.604,7.8706,11.6519,8.249,11.6914,8.4653z"/>
		<path d="M11.2563,9.3071c-0.1426,0-0.2842-0.0605-0.3828-0.1777c-0.6836-0.812-2.8789-1.1172-3.667-1.1665
			C6.9312,7.9458,6.7212,7.7085,6.7383,7.4331C6.7559,7.1577,6.9829,6.957,7.2681,6.9648c0.3335,0.0205,3.29,0.2373,4.3701,1.52
			c0.1782,0.2114,0.1509,0.5269-0.0601,0.7046C11.4844,9.2686,11.3696,9.3071,11.2563,9.3071z"/>
		<path d="M12.0068,15.1611c-0.0161,0-0.0322-0.001-0.0483-0.002c-0.2749-0.0264-0.4766-0.2705-0.4502-0.5459
			c0.0869-0.9121,0.0454-1.6494-0.123-2.1885c-0.5737-1.8354-0.6274-3.5322-0.6294-3.6035s0.0112-0.1416,0.0386-0.207
			c0.0405-0.0967,1.0112-2.3726,2.9087-3.0737c1.6113-0.5952,3.1201-1.8467,3.1357-1.8594c0.209-0.1768,0.5254-0.1489,0.7041,0.063
			c0.1768,0.2119,0.1484,0.5273-0.0625,0.7041c-0.0674,0.0562-1.6533,1.374-3.4307,2.0303
			c-1.2949,0.4785-2.0981,2.0229-2.2891,2.4258c0.022,0.3945,0.1279,1.7803,0.5791,3.2217c0.208,0.668,0.2637,1.5361,0.1641,2.583
			C12.4785,14.9678,12.2607,15.1611,12.0068,15.1611z"/>
		<path d="M8.124,10.8135L8.124,10.8135C4.7256,10.813,3.377,5.7036,3.3213,5.4858c-0.0347-0.1343-0.0112-0.2773,0.064-0.3945
			C3.46,4.9746,3.5806,4.894,3.7173,4.8696C3.7642,4.8613,4.876,4.665,6.2593,4.665c2.9438,0,4.793,0.8804,5.3486,2.5464
			c0.0205,0.061,0.0288,0.125,0.0249,0.189c-0.0459,0.7456,0.1011,1.2598,0.1025,1.2646c0.0537,0.1841-0.002,0.3848-0.1445,0.5132
			C10.3882,10.2632,9.2222,10.8135,8.124,10.8135z M4.4561,5.7749c0.4111,1.209,1.5942,4.0381,3.668,4.0386
			c0.7822,0,1.6494-0.3994,2.5801-1.188c-0.0474-0.2656-0.0967-0.6787-0.0747-1.1821C9.8267,5.3525,5.915,5.6006,4.4561,5.7749z"/>
		<path d="M15.0518,10.4082c-0.001,0-0.001,0-0.002,0c-1.1602-0.0005-2.5127-0.3892-4.0205-1.1553
			c-0.1216-0.062-0.2129-0.1709-0.2524-0.3018c-0.0078-0.0273-0.1997-0.6772-0.1421-1.6123c0.125-2.0259,1.4307-5.626,8.7676-6.9717
			c0.1338-0.0239,0.2783,0.0083,0.3896,0.0913c0.1113,0.084,0.1836,0.21,0.1973,0.3486c0.0244,0.2295,0.5557,5.6421-1.7842,8.2373
			C17.3887,9.9492,16.3281,10.4082,15.0518,10.4082z M11.6914,8.4653c1.2803,0.6255,2.4092,0.9424,3.3594,0.9429c0,0,0,0,0.001,0
			c0.9951,0,1.7832-0.3379,2.4102-1.0332c1.6484-1.8281,1.6396-5.5234,1.5703-6.9165c-6.1826,1.2881-7.2954,4.2563-7.3994,5.9419
			C11.604,7.8706,11.6519,8.249,11.6914,8.4653z"/>
		<path d="M11.2563,9.3071c-0.1426,0-0.2842-0.0605-0.3828-0.1777c-0.6836-0.812-2.8789-1.1172-3.667-1.1665
			C6.9312,7.9458,6.7212,7.7085,6.7383,7.4331C6.7559,7.1577,6.9829,6.957,7.2681,6.9648c0.3335,0.0205,3.29,0.2373,4.3701,1.52
			c0.1782,0.2114,0.1509,0.5269-0.0601,0.7046C11.4844,9.2686,11.3696,9.3071,11.2563,9.3071z"/>
	</g>
	<path d="M9.6997,23.9727H7.5552c-0.6792,0-1.2314-0.5381-1.2314-1.2002l0.0029-0.4453c0.0137-1.2285,0.0195-1.7891-0.8887-2.3662
		c-2.7988-1.7793-2.9048-1.8711-3.7773-3.2783c-0.2412-0.3887-0.5522-0.8896-1.0293-1.585c-0.6494-0.9453-0.6416-1.6904-0.627-3.042
		l0.0049-0.7231c0-0.6807,0.5293-1.1938,1.2314-1.1938s1.2319,0.5132,1.2319,1.1938v1.7739c0,0.2334,0.0713,0.4609,0.2061,0.6572
		c1.25,1.8203,1.3662,1.9258,1.5137,2.0586c0.2905,0.2246,0.519,0.3545,0.6807,0.4248c-0.0547-0.1562-0.1392-0.3467-0.2295-0.5059
		l-1.0493-1.2441c-0.312-0.2939-0.4233-0.7383-0.2588-1.1475c0.2954-0.7363,1.4443-0.9932,2.083-0.3828
		c1.4868,1.4229,1.9253,1.9375,2.1606,2.2139c0.2061,0.2422,0.2432,0.2852,0.835,0.7217c2.3169,1.1387,2.5171,2.8877,2.5171,4.5771
		v2.293C10.9312,23.4346,10.3789,23.9727,9.6997,23.9727z M1.2407,11.1387c-0.1055,0-0.2314,0.0337-0.2314,0.1938l-0.0049,0.7339
		c-0.0137,1.2588-0.019,1.7803,0.4512,2.4648c0.4893,0.7129,0.8081,1.2266,1.0547,1.624c0.7627,1.2305,0.7773,1.2539,3.4639,2.9619
		c1.3784,0.876,1.3662,1.9619,1.3525,3.2207l-0.0029,0.4346c0,0.1104,0.104,0.2002,0.2314,0.2002h2.1445
		c0.1274,0,0.2314-0.0898,0.2314-0.2002v-2.293c0-1.54-0.1499-2.793-2.0352-3.7266c-0.7349-0.5322-0.8208-0.6221-1.0781-0.9238
		c-0.2241-0.2627-0.6411-0.7529-2.0908-2.1396c-0.1738-0.166-0.4292-0.0547-0.4634,0.0322
		c-0.0107,0.0264,0.0571,0.0908,0.0601,0.0938l1.1392,1.3594c0.3789,0.6543,0.6841,1.4404,0.2783,1.8916
		c-0.105,0.1152-0.2964,0.2529-0.6147,0.2529c-0.5186,0-1.1113-0.3691-1.5176-0.6787c-0.0107-0.0078-0.0762-0.0664-0.0864-0.0762
		c-0.2266-0.2041-0.3511-0.3164-1.668-2.2344c-0.25-0.3643-0.3818-0.7871-0.3818-1.2236v-1.7739
		C1.4727,11.1724,1.3462,11.1387,1.2407,11.1387z"/>
	<path d="M16.3232,23.9727h-2.1445c-0.6787,0-1.2314-0.5381-1.2314-1.2002v-2.293c0-1.6895,0.2002-3.4385,2.5918-4.623
		c0.5166-0.3906,0.5537-0.4336,0.7598-0.6758c0.2363-0.2764,0.6748-0.791,2.1611-2.2139c0.6367-0.6104,1.7881-0.3535,2.083,0.3828
		c0.1641,0.4092,0.0527,0.8535-0.2969,1.1885l-1.0635,1.2773c-0.0596,0.1162-0.1309,0.2861-0.1797,0.4336
		c0.1602-0.0674,0.3828-0.1914,0.6611-0.4033c0.1699-0.1572,0.2871-0.2627,1.5361-2.082c0.1348-0.1963,0.2061-0.4238,0.2061-0.6572
		v-1.7739c0-0.6807,0.5293-1.1938,1.2314-1.1938s1.2314,0.5132,1.2314,1.1938l0.0049,0.7231
		c0.0146,1.3516,0.0225,2.0967-0.627,3.042c-0.4775,0.6953-0.7891,1.1973-1.0303,1.5859c-0.8721,1.4062-0.9775,1.498-3.7754,3.2773
		c-0.9092,0.5781-0.9033,1.1387-0.8896,2.3672l0.0029,0.4443C17.5547,23.4346,17.002,23.9727,16.3232,23.9727z M19.3701,13.5928
		c-0.0791,0-0.1514,0.0322-0.2188,0.0967c-1.4502,1.3867-1.8672,1.877-2.0908,2.1396c-0.2578,0.3018-0.3438,0.3916-1.0029,0.8779
		c-1.9609,0.9795-2.1104,2.2324-2.1104,3.7725v2.293c0,0.1104,0.1035,0.2002,0.2314,0.2002h2.1445
		c0.1279,0,0.2314-0.0898,0.2314-0.2002l-0.0029-0.4336c-0.0137-1.2588-0.0254-2.3457,1.3525-3.2217
		c2.6855-1.708,2.7002-1.7314,3.4629-2.9609c0.2471-0.3975,0.5664-0.9121,1.0557-1.625c0.4707-0.6846,0.4648-1.2061,0.4512-2.4648
		l-0.0049-0.7339c0-0.3203-0.4629-0.3203-0.4629,0v1.7739c0,0.4365-0.1318,0.8594-0.3818,1.2236
		c-1.3154,1.916-1.4404,2.0293-1.668,2.2344c-0.0098,0.0088-0.0752,0.0684-0.0869,0.0762c-0.4062,0.3096-0.999,0.6787-1.5176,0.6787
		c-0.3184,0-0.5098-0.1367-0.6143-0.2529c-0.4053-0.4512-0.1016-1.2373,0.2256-1.8164l1.1533-1.3936
		c0.041-0.0439,0.1084-0.1084,0.0986-0.1348C19.5938,13.6689,19.4951,13.5928,19.3701,13.5928z"/>
</g>
</svg>
