<?xml version="1.0" encoding="utf-8"?>
<!-- Generator: Adobe Illustrator 18.1.0, SVG Export Plug-In . SVG Version: 6.00 Build 0)  -->
<svg version="1.1" id="Layer_1" xmlns="http://www.w3.org/2000/svg" xmlns:xlink="http://www.w3.org/1999/xlink" x="0px" y="0px"
	 width="24px" height="24px" viewBox="0 0 24 24" enable-background="new 0 0 24 24" xml:space="preserve">
<g>
	<path d="M16.459,24.0088h-8.936c-1.396,0-2.5317-1.1357-2.5317-2.5312V2.5049c0-1.3955,1.1357-2.5312,2.5317-2.5312h8.936
		c1.3965,0,2.5322,1.1357,2.5322,2.5312v18.9727C18.9912,22.873,17.8555,24.0088,16.459,24.0088z M7.5229,0.9736
		c-0.8447,0-1.5317,0.687-1.5317,1.5312v18.9727c0,0.8447,0.687,1.5312,1.5317,1.5312h8.936c0.8447,0,1.5322-0.6865,1.5322-1.5312
		V2.5049c0-0.8442-0.6875-1.5312-1.5322-1.5312H7.5229z"/>
	<path d="M11.9912,22.3828c-0.7461,0-1.3535-0.6064-1.3535-1.3525s0.6074-1.3535,1.3535-1.3535s1.3535,0.6074,1.3535,1.3535
		S12.7373,22.3828,11.9912,22.3828z M11.9912,20.6768c-0.1948,0-0.3535,0.1582-0.3535,0.3535c0,0.1943,0.1587,0.3525,0.3535,0.3525
		c0.1953,0,0.3535-0.1582,0.3535-0.3525C12.3447,20.835,12.1865,20.6768,11.9912,20.6768z"/>
	<path d="M18.5,19h-13C5.2236,19,5,18.7764,5,18.5v-15C5,3.2236,5.2236,3,5.5,3h13C18.7764,3,19,3.2236,19,3.5v15
		C19,18.7764,18.7764,19,18.5,19z M6,18h12V4H6V18z"/>
</g>
<rect fill="none" width="24" height="24"/>
</svg>
