<?xml version="1.0" encoding="utf-8"?>
<!-- Generator: Adobe Illustrator 18.1.0, SVG Export Plug-In . SVG Version: 6.00 Build 0)  -->
<svg version="1.1" id="Layer_1" xmlns="http://www.w3.org/2000/svg" xmlns:xlink="http://www.w3.org/1999/xlink" x="0px" y="0px"
	 width="24px" height="24px" viewBox="0 0 24 24" enable-background="new 0 0 24 24" xml:space="preserve">
<g>
	<path d="M20.498,13.7588c-0.124,0-0.248-0.0459-0.3447-0.1377l-2.8389-2.7031c-0.2002-0.1904-0.208-0.5073-0.0176-0.707
		c0.1914-0.1992,0.5078-0.207,0.707-0.0176l2.4766,2.3584l2.3623-2.4795c0.1914-0.2007,0.5078-0.2075,0.707-0.0171
		c0.2002,0.1904,0.208,0.5068,0.0176,0.7065l-2.707,2.8418C20.7617,13.707,20.6299,13.7588,20.498,13.7588z"/>
	<path d="M11.5933,21.5781c-0.3911,0-0.7847-0.0234-1.1807-0.0723c-5.231-0.6377-8.9678-5.4131-8.3296-10.644
		c0.3086-2.5342,1.5859-4.7959,3.5967-6.3691c2.0098-1.5742,4.5122-2.2734,7.0469-1.9604
		c5.2031,0.6343,8.9121,5.4736,8.2676,10.7871c-0.0322,0.2744-0.2822,0.4746-0.5566,0.4355
		c-0.2734-0.0332-0.4688-0.2822-0.4355-0.5566c0.5771-4.7661-2.7402-9.1055-7.3965-9.6738
		C7.9268,2.9565,3.647,6.2993,3.0752,10.9829c-0.2764,2.269,0.3472,4.5103,1.7559,6.3101s3.4336,2.9434,5.7026,3.2207
		c3.5015,0.4238,6.8569-1.2969,8.5493-4.3926c0.1318-0.2422,0.4375-0.332,0.6787-0.1982c0.2422,0.1318,0.3311,0.4355,0.1982,0.6787
		C18.2617,19.708,15.0625,21.5781,11.5933,21.5781z"/>
	<path d="M13.5234,17.0127H9.5366c-0.7041,0-1.2773-0.5664-1.2773-1.2637L7.918,12.2754c-0.0024-0.7456,0.5708-1.3125,1.2749-1.3125
		h4.6743c0.7041,0,1.2773,0.5669,1.2773,1.2637l-0.3457,3.5713C14.8008,16.4463,14.2275,17.0127,13.5234,17.0127z M9.1929,11.9629
		c-0.1528,0-0.2773,0.1182-0.2773,0.2637l0.3413,3.4736c0.0024,0.1943,0.127,0.3125,0.2798,0.3125h3.9868
		c0.1533,0,0.2773-0.1182,0.2773-0.2637l0.3457-3.5713c-0.002-0.0967-0.126-0.2148-0.2793-0.2148H9.1929z"/>
	<path d="M13.5371,11.9629c-0.2764,0-0.5-0.2236-0.5-0.5V9.5293c0-0.7451-0.6758-1.3511-1.5068-1.3511s-1.5073,0.606-1.5073,1.3511
		v1.9336c0,0.2764-0.2236,0.5-0.5,0.5s-0.5-0.2236-0.5-0.5V9.5293c0-1.2964,1.125-2.3511,2.5073-2.3511
		c1.3818,0,2.5068,1.0547,2.5068,2.3511v1.9336C14.0371,11.7393,13.8135,11.9629,13.5371,11.9629z"/>
	<path d="M11.5298,15.1455c-0.2764,0-0.5-0.2236-0.5-0.5v-0.9043c0-0.2764,0.2236-0.5,0.5-0.5s0.4995,0.2236,0.4995,0.5v0.9043
		C12.0293,14.9219,11.8062,15.1455,11.5298,15.1455z"/>
</g>
<rect y="0.001" fill="none" width="24" height="24"/>
</svg>
