<?xml version="1.0" encoding="utf-8"?>
<!-- Generator: Adobe Illustrator 18.1.0, SVG Export Plug-In . SVG Version: 6.00 Build 0)  -->
<svg version="1.1" id="Layer_1" xmlns="http://www.w3.org/2000/svg" xmlns:xlink="http://www.w3.org/1999/xlink" x="0px" y="0px"
	 width="24px" height="24px" viewBox="0 0 24 24" enable-background="new 0 0 24 24" xml:space="preserve">
<g>
	<path d="M1.7695,7.6406c-0.2686,0-0.4902-0.2129-0.499-0.4834C1.209,5.3052,1.8931,3.5674,3.1963,2.2642
		C4.499,0.9609,6.231,0.2627,8.0894,0.3379C8.3652,0.3467,8.5815,0.5776,8.5723,0.854C8.5635,1.1304,8.3511,1.3765,8.0562,1.3369
		C6.4849,1.29,5.0088,1.8657,3.9033,2.9712S2.2178,5.5518,2.2695,7.124c0.0093,0.2759-0.207,0.5073-0.4829,0.5161
		C1.7808,7.6406,1.7754,7.6406,1.7695,7.6406z"/>
	<path d="M4.5347,7.3506c-0.2612,0-0.481-0.2026-0.4985-0.4673C3.9688,5.8589,4.3447,4.8569,5.0669,4.1348
		C5.7896,3.4121,6.793,3.0381,7.8154,3.104c0.2759,0.0181,0.4844,0.2563,0.4663,0.5317C8.2637,3.9116,8.019,4.1099,7.75,4.1021
		C7.0156,4.0503,6.2925,4.3228,5.7739,4.8418C5.2554,5.3604,4.9854,6.0806,5.0342,6.8179c0.0181,0.2754-0.1904,0.5137-0.4663,0.5317
		C4.5566,7.3501,4.5459,7.3506,4.5347,7.3506z"/>
	<path d="M7.479,18.0664c-0.8003,0-1.4741-0.2285-1.9546-0.709c-0.1953-0.1953-0.1953-0.5117,0-0.707s0.5117-0.1953,0.707,0
		c1.1035,1.1045,4.6631,0.001,8.0078-3.3428c3.3447-3.3452,4.4473-6.9053,3.3438-8.0083c-0.1953-0.1953-0.1953-0.5117,0-0.707
		s0.5117-0.1953,0.707,0c1.7041,1.7041,0.2354,5.8433-3.3438,9.4224C12.376,16.584,9.5176,18.0664,7.479,18.0664z"/>
	<path d="M11.6982,12.7051c-0.1597,0-0.3169-0.0762-0.4136-0.2188L8.1978,7.9604C8.0625,7.7617,8.0874,7.4951,8.2573,7.3252
		s0.4375-0.1948,0.6353-0.0596l4.5254,3.0869c0.2285,0.1558,0.2871,0.4668,0.1318,0.6948
		c-0.1553,0.2295-0.4678,0.2856-0.6943,0.1313L10.5142,9.582l1.5962,2.3413c0.1562,0.228,0.0977,0.5396-0.1309,0.6948
		C11.8931,12.6768,11.7954,12.7051,11.6982,12.7051z"/>
	<path d="M7.9966,8.4331c-0.7549,0-1.3687-0.6138-1.3687-1.3687s0.6138-1.3687,1.3687-1.3687s1.3687,0.6138,1.3687,1.3687
		S8.7515,8.4331,7.9966,8.4331z M7.9966,6.6958c-0.2031,0-0.3687,0.1655-0.3687,0.3687s0.1655,0.3687,0.3687,0.3687
		s0.3687-0.1655,0.3687-0.3687S8.1997,6.6958,7.9966,6.6958z"/>
	<path d="M11.2827,18.998c-0.1416,0-0.2754-0.0029-0.4009-0.0068c-2.2651-0.0723-4.4678-0.7441-5.3574-1.6338
		c-1.4741-1.4746-0.6523-4.6836,2.0454-7.9844c0.1743-0.2144,0.4893-0.2456,0.7036-0.0708C8.4873,9.4771,8.519,9.792,8.3442,10.0059
		c-2.2451,2.7471-3.1533,5.6035-2.1128,6.6445c0.5967,0.5967,2.4404,1.2695,4.6821,1.3418
		c1.4741,0.0361,4.2065-0.1484,6.0347-1.9766c1.8291-1.8281,2.0234-4.5654,1.9766-6.0342
		c-0.0723-2.2417-0.7451-4.0854-1.3418-4.6821c-1.0293-1.0283-3.8584-0.1416-6.5801,2.061
		c-0.2144,0.1738-0.5298,0.1401-0.7031-0.0742C10.126,7.0713,10.1592,6.7568,10.374,6.583c3.2744-2.6504,6.4551-3.4521,7.916-1.9907
		c0.8896,0.8896,1.5615,3.0923,1.6338,5.3569c0.0527,1.6304-0.1729,4.6787-2.2686,6.7734
		C15.7217,18.6572,12.9756,18.998,11.2827,18.998z"/>
	<path d="M14.6562,23.7998c-0.8945,0-1.7393-0.1338-2.3779-0.377c-1.1528-0.4375-1.3247-1.1221-1.3247-1.4902
		c0-0.4932,0.3496-1.2578,0.8911-1.9482c0.1709-0.2188,0.4844-0.2549,0.7021-0.085c0.2168,0.1709,0.2549,0.4844,0.085,0.7021
		c-0.4629,0.5898-0.6782,1.1426-0.6782,1.3311c0,0.4092,1.1558,0.8672,2.7026,0.8672c1.5586,0,2.6445-0.457,2.6445-0.8672
		c0-0.2715-0.4473-1.2744-1.3154-1.9893c-0.2139-0.1748-0.2441-0.4902-0.0684-0.7031c0.1758-0.2148,0.4912-0.2441,0.7031-0.0684
		c1.0059,0.8271,1.6807,2.0947,1.6807,2.7607C18.3008,23.3105,16.3369,23.7998,14.6562,23.7998z"/>
</g>
<rect fill="none" width="24" height="24"/>
</svg>
