<?xml version="1.0" encoding="utf-8"?>
<!-- Generator: Adobe Illustrator 18.1.0, SVG Export Plug-In . SVG Version: 6.00 Build 0)  -->
<svg version="1.1" id="Layer_1" xmlns="http://www.w3.org/2000/svg" xmlns:xlink="http://www.w3.org/1999/xlink" x="0px" y="0px"
	 width="24px" height="24px" viewBox="0 0 24 24" enable-background="new 0 0 24 24" xml:space="preserve">
<g>
	<path d="M6.9517,23.7236L6.9517,23.7236c-1.6714,0-3.3618-0.7324-4.6382-2.0088c-1.1636-1.1631-1.8706-2.6494-1.9912-4.1836
		c-0.1226-1.5635,0.376-2.9902,1.4033-4.0176c1.0127-1.0137,2.459-1.5151,4.0054-1.4043c0.667,0.0586,0.8628-0.2397,1.2695-0.9663
		c0.2158-0.3857,0.4609-0.8228,0.853-1.2148c0.8345-0.8345,1.9438-1.2939,3.124-1.2939c1.3496,0,2.6104,0.6084,3.46,1.6694
		c1.2656,1.5835,1.2715,3.8867,0.0137,5.4785c-0.5361,0.6768-1.1436,1.0176-1.6318,1.292c-0.6719,0.377-0.9502,0.5322-0.8989,1.252
		c0.1108,1.5479-0.3877,2.96-1.4048,3.9766C9.5991,23.2197,8.333,23.7236,6.9517,23.7236z M5.2876,13.0928
		c-1.1143,0-2.1279,0.4004-2.855,1.1279c-0.8174,0.8174-1.2129,1.9648-1.1133,3.2324c0.1016,1.2969,0.7061,2.5596,1.7012,3.5547
		c1.0903,1.0908,2.5234,1.7158,3.9312,1.7158l0,0c1.1147,0,2.1289-0.4004,2.8569-1.1279c0.8086-0.8086,1.2046-1.9443,1.1147-3.1973
		c-0.0972-1.3535,0.7017-1.8018,1.4067-2.1963c0.4541-0.2549,0.9229-0.5186,1.3359-1.041c0.9727-1.2295,0.9688-3.0098-0.0098-4.2324
		c-0.6582-0.8228-1.6348-1.2944-2.6787-1.2944c-0.9131,0-1.7715,0.3555-2.417,1.001c-0.2944,0.2944-0.4941,0.6514-0.6875,0.9966
		c-0.4121,0.7354-0.8828,1.583-2.2188,1.4746C5.5317,13.0977,5.4092,13.0928,5.2876,13.0928z"/>
	<path d="M14.3037,11.3799c-0.1279,0-0.2559-0.0488-0.3535-0.1465c-0.1953-0.1953-0.1953-0.5117,0-0.707L20.583,3.894
		c0.1396-0.1377,0.3379-0.1777,0.5117-0.1211l1.5088-1.5083c0.0684-0.0684,0.0684-0.1802,0-0.249l-0.5908-0.5903
		c-0.0674-0.0679-0.1807-0.0688-0.249,0l-1.5078,1.5088c0.0576,0.1738,0.0176,0.373-0.1211,0.5117l-6.6328,6.6323
		c-0.1953,0.1953-0.5117,0.1953-0.707,0s-0.1953-0.5117,0-0.707l6.3164-6.3164c-0.0576-0.1738-0.0176-0.373,0.1211-0.5117
		l1.8242-1.8247c0.457-0.458,1.2031-0.4575,1.6621-0.0005l0.5918,0.5913c0.458,0.459,0.458,1.2046,0,1.6626l-1.8252,1.8247
		c-0.1377,0.1392-0.3369,0.1797-0.5117,0.1211l-6.3164,6.3159C14.5596,11.3311,14.4316,11.3799,14.3037,11.3799z"/>
	<path d="M9.6479,16.6084c-1.2383,0-2.2461-1.0078-2.2461-2.2471c0-1.2383,1.0078-2.2461,2.2461-2.2461
		c1.2388,0,2.2466,1.0078,2.2466,2.2461C11.8945,15.6006,10.8867,16.6084,9.6479,16.6084z M9.6479,13.1152
		c-0.687,0-1.2461,0.5586-1.2461,1.2461s0.5591,1.2471,1.2461,1.2471c0.6875,0,1.2466-0.5596,1.2466-1.2471
		S10.3354,13.1152,9.6479,13.1152z"/>
	<path d="M7.1528,19.8271c-0.1279,0-0.2559-0.0488-0.3535-0.1465l-2.4697-2.4697c-0.1953-0.1953-0.1953-0.5117,0-0.707
		s0.5117-0.1953,0.707,0l2.4697,2.4697c0.1953,0.1953,0.1953,0.5117,0,0.707C7.4087,19.7783,7.2808,19.8271,7.1528,19.8271z"/>
	<path d="M20.9365,4.7476c-0.1279,0-0.2559-0.0488-0.3535-0.1465l-1.1553-1.1553c-0.1953-0.1953-0.1953-0.5117,0-0.707
		s0.5117-0.1953,0.707,0L21.29,3.894c0.1953,0.1953,0.1953,0.5117,0,0.707C21.1924,4.6987,21.0645,4.7476,20.9365,4.7476z"/>
	<path d="M22.1611,4.623c-0.1279,0-0.2559-0.0488-0.3535-0.1465l-0.3545-0.3545c-0.1953-0.1953-0.1953-0.5117,0-0.707
		s0.5117-0.1953,0.707,0l0.3545,0.3545c0.1953,0.1953,0.1953,0.5117,0,0.707C22.417,4.5742,22.2891,4.623,22.1611,4.623z"/>
	<path d="M20.2598,2.7222c-0.1279,0-0.2559-0.0488-0.3535-0.146l-0.3545-0.354c-0.1953-0.1953-0.1953-0.5117,0-0.7075
		c0.1953-0.1953,0.5117-0.1948,0.707-0.0005l0.3545,0.354c0.1953,0.1953,0.1953,0.5117,0,0.7075
		C20.5156,2.6733,20.3877,2.7222,20.2598,2.7222z"/>
	<path d="M23.1719,3.6113c-0.1279,0-0.2559-0.0488-0.3535-0.1465l-0.3535-0.354c-0.1953-0.1958-0.1953-0.5122,0-0.7075
		c0.1953-0.1943,0.5117-0.1948,0.707,0.0005l0.3535,0.354c0.1953,0.1958,0.1953,0.5122,0,0.7075
		C23.4277,3.5625,23.2998,3.6113,23.1719,3.6113z"/>
	<path d="M21.2715,1.7109c-0.1279,0-0.2559-0.0488-0.3535-0.1465L20.5635,1.21c-0.1953-0.1953-0.1953-0.5117,0-0.707
		s0.5117-0.1953,0.707,0l0.3545,0.3545c0.1953,0.1953,0.1953,0.5117,0,0.707C21.5273,1.6621,21.3994,1.7109,21.2715,1.7109z"/>
</g>
<rect y="0.0197" fill="none" width="24" height="24"/>
</svg>
