<?xml version="1.0" encoding="utf-8"?>
<!-- Generator: Adobe Illustrator 18.1.0, SVG Export Plug-In . SVG Version: 6.00 Build 0)  -->
<svg version="1.1" id="Layer_1" xmlns="http://www.w3.org/2000/svg" xmlns:xlink="http://www.w3.org/1999/xlink" x="0px" y="0px"
	 width="24px" height="24px" viewBox="0 0 24 24" enable-background="new 0 0 24 24" xml:space="preserve">
<g>
	<path d="M18.374,9.0449c-0.1279,0-0.2559-0.0488-0.3535-0.1465c-0.1953-0.1953-0.1953-0.5117,0-0.707l2.7119-2.7119l-2.7119-2.7119
		c-0.1953-0.1953-0.1953-0.5117,0-0.707s0.5117-0.1953,0.707,0L21.793,5.126c0.1953,0.1953,0.1953,0.5117,0,0.707l-3.0654,3.0654
		C18.6299,8.9961,18.502,9.0449,18.374,9.0449z"/>
	<path d="M18.374,21.0771c-0.1279,0-0.2559-0.0488-0.3535-0.1465c-0.1953-0.1953-0.1953-0.5117,0-0.707l2.7119-2.7119
		l-2.7119-2.7119c-0.1953-0.1953-0.1953-0.5117,0-0.707s0.5117-0.1953,0.707,0l3.0654,3.0654c0.1953,0.1953,0.1953,0.5117,0,0.707
		l-3.0654,3.0654C18.6299,21.0283,18.502,21.0771,18.374,21.0771z"/>
	<path d="M21.4395,18.0117h-6.1279c-0.0889,0-2.1963-0.0146-3.4521-1.2852c-0.6108-0.6182-0.915-1.416-0.9043-2.3711
		c0.0059-0.4854-0.1543-0.8857-0.4888-1.2236c-0.9209-0.9326-2.9478-1.1362-3.6509-1.1362H1.562c-0.2764,0-0.5-0.2236-0.5-0.5
		s0.2236-0.5,0.5-0.5h5.2534c0.1201,0,2.9619,0.0161,4.3623,1.4331c0.5244,0.5303,0.7861,1.1826,0.7773,1.9385
		c-0.0078,0.6875,0.1934,1.2295,0.6152,1.6562c0.9658,0.9766,2.7236,0.9883,2.7412,0.9883h6.1279c0.2764,0,0.5,0.2236,0.5,0.5
		S21.7158,18.0117,21.4395,18.0117z"/>
	<path d="M6.8154,11.9956H1.562c-0.2764,0-0.5-0.2236-0.5-0.5s0.2236-0.5,0.5-0.5h5.2534c0.0249,0,2.5474-0.0176,3.6523-1.1377
		c0.3335-0.3379,0.4932-0.7373,0.4873-1.2217c-0.0107-0.9556,0.2935-1.7534,0.9048-2.3716
		c1.2554-1.2705,3.3628-1.2852,3.4517-1.2852h6.1279c0.2764,0,0.5,0.2236,0.5,0.5s-0.2236,0.5-0.5,0.5h-6.1279
		c-0.0166,0-1.7852,0.0176-2.7432,0.9912c-0.4209,0.4268-0.6211,0.9678-0.6133,1.6538c0.0088,0.7554-0.2529,1.4072-0.7769,1.9375
		C9.7778,11.979,6.9355,11.9956,6.8154,11.9956z"/>
</g>
<rect y="0.001" fill="none" width="24" height="24"/>
</svg>
