<?xml version="1.0" encoding="utf-8"?>
<!-- Generator: Adobe Illustrator 18.1.0, SVG Export Plug-In . SVG Version: 6.00 Build 0)  -->
<svg version="1.1" id="Layer_1" xmlns="http://www.w3.org/2000/svg" xmlns:xlink="http://www.w3.org/1999/xlink" x="0px" y="0px"
	 width="24px" height="24px" viewBox="0 0 24 24" enable-background="new 0 0 24 24" xml:space="preserve">
<g>
	<path d="M17.166,22.7188L17.166,22.7188c-2.5039,0-5.5444-1.9121-9.5698-6.0176C3.6001,12.626,1.7612,9.563,1.8096,7.061
		c0.0405-2.0898,1.3828-3.3574,2.5669-4.4756C4.543,2.4282,4.707,2.2734,4.8652,2.1182c0.3809-0.3667,1.0254-0.356,1.3853,0.0137
		l4.7861,4.8809c0.1812,0.1826,0.2817,0.4287,0.2798,0.6904c-0.0015,0.2627-0.1055,0.5088-0.2925,0.6929L9.5605,9.8296
		c0,0.0571,0.0825,0.5674,0.8394,1.5991c1.2637,1.7236,3.2866,3.416,4.0845,3.415c0.082-0.0303,0.5645-0.4922,1.4658-1.3799
		c0.4346-0.4053,1.0332-0.3613,1.3916,0.002l4.8037,4.8525c0.3701,0.376,0.3779,0.9717,0.0186,1.3564l-0.252,0.2734
		C20.7148,21.2471,19.3584,22.7188,17.166,22.7188z M5.5356,2.8311C5.4033,2.9912,5.2344,3.1509,5.063,3.3125
		C3.9712,4.3438,2.8418,5.4102,2.8096,7.0801c-0.042,2.1855,1.7568,5.1035,5.5005,8.9219c3.772,3.8467,6.6694,5.7168,8.856,5.7168
		l0,0c1.7549,0,2.8506-1.1885,4.0107-2.4482l0.2559-0.2773l-4.8027-4.8252c-1.4785,1.4863-1.5322,1.5137-1.6221,1.5586
		c-0.1533,0.0771-0.3301,0.1172-0.5234,0.1172c-1.6855,0.001-4.9116-3.3506-5.6875-5.1533
		c-0.2959-0.688-0.2793-1.2134,0.0508-1.5615l1.4756-1.4463L5.5356,2.8311z"/>
	<path d="M22.9482,7.0488h-8.9512c-0.2764,0-0.5-0.2236-0.5-0.5s0.2236-0.5,0.5-0.5h8.9512c0.2764,0,0.5,0.2236,0.5,0.5
		S23.2246,7.0488,22.9482,7.0488z"/>
	<path d="M18.4727,11.5244c-0.2764,0-0.5-0.2236-0.5-0.5V2.0732c0-0.2764,0.2236-0.5,0.5-0.5s0.5,0.2236,0.5,0.5v8.9512
		C18.9727,11.3008,18.749,11.5244,18.4727,11.5244z"/>
</g>
<rect x="1" y="-1.002" fill="none" width="24" height="24"/>
</svg>
