<?xml version="1.0" encoding="utf-8"?>
<!-- Generator: Adobe Illustrator 18.1.0, SVG Export Plug-In . SVG Version: 6.00 Build 0)  -->
<svg version="1.1" id="Layer_1" xmlns="http://www.w3.org/2000/svg" xmlns:xlink="http://www.w3.org/1999/xlink" x="0px" y="0px"
	 width="24px" height="24px" viewBox="0 0 24 24" enable-background="new 0 0 24 24" xml:space="preserve">
<g>
	<path d="M23.5244,23H0.5239c-0.2764,0-0.5-0.2236-0.5-0.5v-21c0-0.2764,0.2236-0.5,0.5-0.5h23.0005c0.2764,0,0.5,0.2236,0.5,0.5v21
		C24.0244,22.7764,23.8008,23,23.5244,23z M1.0239,22h22.0005V2H1.0239V22z"/>
	<path d="M23.498,8.001H0.5718c-0.2764,0-0.5-0.2236-0.5-0.5s0.2236-0.5,0.5-0.5H23.498c0.2764,0,0.5,0.2236,0.5,0.5
		S23.7744,8.001,23.498,8.001z"/>
	<path d="M21.4912,6.001c-0.1299,0-0.2598-0.0503-0.3574-0.1504l-2.0186-2.063c-0.1934-0.1973-0.1895-0.5137,0.0078-0.707
		c0.1992-0.1929,0.5156-0.1895,0.707,0.0078l2.0186,2.063c0.1934,0.1973,0.1895,0.5137-0.0078,0.707
		C21.7432,5.9536,21.6172,6.001,21.4912,6.001z"/>
	<path d="M19.4727,6.001c-0.126,0-0.252-0.0474-0.3496-0.1426c-0.1973-0.1934-0.2012-0.5098-0.0078-0.707l2.0186-2.063
		c0.1924-0.1973,0.5088-0.2007,0.707-0.0078c0.1973,0.1934,0.2012,0.5098,0.0078,0.707l-2.0186,2.063
		C19.7324,5.9507,19.6025,6.001,19.4727,6.001z"/>
	<path d="M17.5098,6h-2c-0.2764,0-0.5-0.2236-0.5-0.5v-2c0-0.2764,0.2236-0.5,0.5-0.5h2c0.2764,0,0.5,0.2236,0.5,0.5v2
		C18.0098,5.7764,17.7861,6,17.5098,6z M16.0098,5h1V4h-1V5z"/>
	<path d="M13.5088,6h-1.9995c-0.2764,0-0.5-0.2236-0.5-0.5s0.2236-0.5,0.5-0.5h1.9995c0.2764,0,0.5,0.2236,0.5,0.5
		S13.7852,6,13.5088,6z"/>
	<path d="M12.0264,16.9873c-1.1143,0-2.0205-0.9062-2.0205-2.0205s0.9062-2.0205,2.0205-2.0205s2.0205,0.9062,2.0205,2.0205
		S13.1406,16.9873,12.0264,16.9873z M12.0264,13.9463c-0.5625,0-1.0205,0.458-1.0205,1.0205s0.458,1.0205,1.0205,1.0205
		s1.0205-0.458,1.0205-1.0205S12.5889,13.9463,12.0264,13.9463z"/>
	<path d="M12.0264,20.5342c-0.2417,0-0.4839-0.0156-0.7319-0.0479c-0.2236-0.0293-0.4004-0.2051-0.4312-0.4277l-0.1431-1.0469
		c-0.1997-0.0645-0.394-0.1436-0.5815-0.2363l-0.834,0.6494c-0.1772,0.1396-0.4263,0.1416-0.6069,0.0059
		C8.291,19.126,7.9131,18.752,7.6055,18.3516c-0.1372-0.1787-0.1382-0.4277-0.002-0.6074l0.6387-0.8408
		c-0.0957-0.1875-0.1777-0.3809-0.2441-0.5791l-1.0479-0.1309c-0.2236-0.0273-0.4014-0.2021-0.4336-0.4248
		c-0.0728-0.5088-0.0762-1.0254-0.0088-1.5371c0.0293-0.2236,0.2046-0.3994,0.4277-0.4297l1.0464-0.1436
		c0.0645-0.1992,0.1436-0.3936,0.2373-0.582l-0.6489-0.833c-0.1382-0.1777-0.1406-0.4258-0.0059-0.6064
		c0.3037-0.4067,0.6772-0.7847,1.0801-1.0933c0.1792-0.1377,0.4268-0.1377,0.6064-0.0015l0.8418,0.6392
		c0.1865-0.0957,0.3794-0.1768,0.5781-0.2437l0.1309-1.0479c0.0278-0.2236,0.2021-0.4009,0.4248-0.4331
		c0.5205-0.0742,1.0166-0.0771,1.5371-0.0083c0.2236,0.0298,0.3994,0.2046,0.4297,0.4277l0.1436,1.0469
		c0.1982,0.064,0.3926,0.1431,0.5791,0.2363l0.834-0.6489c0.1777-0.1382,0.4258-0.1396,0.6055-0.0063
		c0.4121,0.3071,0.7803,0.6709,1.0947,1.0815c0.1367,0.1787,0.1367,0.4272,0.001,0.606l-0.6396,0.8418
		c0.0957,0.1865,0.1768,0.3789,0.2432,0.5752l1.0479,0.1309c0.2236,0.0273,0.4014,0.2021,0.4336,0.4248
		c0.0742,0.5215,0.0771,1.0244,0.0078,1.5391c-0.0293,0.2227-0.2041,0.3984-0.4277,0.4287l-1.0449,0.1436
		c-0.0645,0.1982-0.1426,0.3916-0.2354,0.5781l0.6484,0.835c0.1387,0.1777,0.1406,0.4248,0.0059,0.6055
		c-0.3066,0.4121-0.6699,0.7803-1.0801,1.0938c-0.1768,0.1387-0.4268,0.1367-0.6055,0.002l-0.8428-0.6387
		c-0.1865,0.0957-0.3789,0.1768-0.5762,0.2432l-0.1309,1.0479c-0.0273,0.2236-0.2012,0.4004-0.4238,0.4336
		C12.5576,20.5146,12.292,20.5342,12.0264,20.5342z M11.8003,19.5283c0.1704,0.0088,0.3394,0.0068,0.5112-0.0029l0.1221-0.9795
		c0.0254-0.2051,0.1748-0.374,0.375-0.4238c0.3281-0.0811,0.6416-0.2139,0.9316-0.3926c0.1738-0.1104,0.3994-0.0986,0.5645,0.0264
		l0.7871,0.5967c0.127-0.1143,0.2471-0.2363,0.3594-0.3633l-0.6064-0.7812c-0.127-0.1631-0.1406-0.3887-0.0332-0.5654
		c0.1748-0.2891,0.3027-0.6025,0.3789-0.9316c0.0479-0.2021,0.2139-0.3545,0.4199-0.3818l0.9785-0.1338
		c0.0088-0.1709,0.0078-0.3408-0.0039-0.5127l-0.9795-0.1221c-0.2061-0.0254-0.374-0.1758-0.4238-0.377
		c-0.0801-0.3252-0.2119-0.6377-0.3916-0.9287c-0.1094-0.1758-0.0986-0.4004,0.0264-0.5654l0.5977-0.7866
		c-0.1143-0.1265-0.2363-0.2466-0.3633-0.3594l-0.7803,0.6069c-0.1641,0.127-0.3877,0.1387-0.5654,0.0332
		c-0.2891-0.1758-0.6035-0.3037-0.9336-0.3813c-0.2021-0.0474-0.3535-0.2139-0.3809-0.4189l-0.1338-0.979
		c-0.1709-0.0083-0.3398-0.0078-0.5122,0.0029l-0.1221,0.98c-0.0254,0.2056-0.1753,0.3735-0.376,0.4233
		c-0.3301,0.0815-0.6431,0.2139-0.9307,0.3916c-0.1763,0.1104-0.4009,0.1006-0.5659-0.0264l-0.7866-0.5967
		c-0.126,0.1143-0.2466,0.2363-0.3594,0.3638l0.606,0.7778c0.127,0.1641,0.1406,0.3887,0.0337,0.5654
		c-0.1763,0.293-0.3047,0.6084-0.3818,0.9365c-0.0469,0.2021-0.2139,0.3545-0.4189,0.3818l-0.9775,0.1338
		c-0.0088,0.1709-0.0078,0.3418,0.0029,0.5117l0.979,0.1221c0.2061,0.0254,0.3745,0.1758,0.4238,0.377
		c0.0806,0.3281,0.2129,0.6406,0.3931,0.9307c0.1094,0.1758,0.0986,0.4004-0.0264,0.5664l-0.5972,0.7861
		c0.1143,0.126,0.2363,0.2461,0.3638,0.3584l0.7793-0.6064c0.1636-0.1289,0.3896-0.1416,0.5659-0.0332
		c0.2896,0.1748,0.6045,0.3037,0.9355,0.3818c0.2017,0.0469,0.353,0.2139,0.3813,0.418L11.8003,19.5283z"/>
</g>
<rect fill="none" width="24" height="24"/>
</svg>
