<?xml version="1.0" encoding="utf-8"?>
<!-- Generator: Adobe Illustrator 18.1.0, SVG Export Plug-In . SVG Version: 6.00 Build 0)  -->
<svg version="1.1" id="Layer_1" xmlns="http://www.w3.org/2000/svg" xmlns:xlink="http://www.w3.org/1999/xlink" x="0px" y="0px"
	 width="24px" height="24px" viewBox="0 0 24 24" enable-background="new 0 0 24 24" xml:space="preserve">
<g>
	<path d="M8.4927,16.8887c-0.1572,0-0.3115-0.0732-0.4092-0.2119c-0.1592-0.2256-0.1055-0.5371,0.1201-0.6963l3.7915-2.6768V7.0503
		c0-0.2764,0.2236-0.5,0.5-0.5s0.5,0.2236,0.5,0.5v6.5122c0,0.1621-0.0791,0.3145-0.2119,0.4082l-4.0024,2.8262
		C8.6929,16.8594,8.5923,16.8887,8.4927,16.8887z"/>
	<path d="M11.9893,22.0303c-4.9106,0-8.9058-3.9951-8.9058-8.9053c0-4.9106,3.9951-8.9058,8.9058-8.9058
		c4.9102,0,8.9053,3.9951,8.9053,8.9058C20.8945,18.0352,16.8994,22.0303,11.9893,22.0303z M11.9893,5.2192
		c-4.3594,0-7.9058,3.5464-7.9058,7.9058s3.5464,7.9053,7.9058,7.9053s7.9053-3.5459,7.9053-7.9053S16.3486,5.2192,11.9893,5.2192z"
		/>
	<path d="M3.7285,6.0576c-0.0435,0-0.0869-0.0059-0.1294-0.0171C3.4712,6.0063,3.3618,5.9224,3.2954,5.8076
		C2.7979,4.9458,2.666,3.9414,2.9233,2.9805c0.2573-0.9614,0.874-1.7646,1.7358-2.2622c0.5659-0.3267,1.209-0.4995,1.8599-0.4995
		c1.3281,0,2.5654,0.7139,3.2295,1.8633c0.0664,0.1147,0.084,0.2515,0.0498,0.3794S9.6802,2.6987,9.5654,2.7651L3.9785,5.9907
		C3.9019,6.0347,3.8154,6.0576,3.7285,6.0576z M6.519,1.2188c-0.4756,0-0.9453,0.1265-1.3599,0.3657
		c-0.6304,0.3638-1.0815,0.9517-1.27,1.6548c-0.1445,0.5396-0.1211,1.0972,0.062,1.6128l4.6406-2.6797
		C8.0791,1.5747,7.3218,1.2188,6.519,1.2188z"/>
	<path d="M20.2715,6.0576c-0.0869,0-0.1729-0.0229-0.25-0.0669l-5.5869-3.2256C14.1953,2.627,14.1133,2.3213,14.252,2.082
		c0.6631-1.1494,1.9004-1.8633,3.2285-1.8633c0.6504,0,1.2939,0.1729,1.8604,0.4995c0.8623,0.4976,1.4785,1.3008,1.7363,2.2622
		c0.2568,0.9609,0.125,1.9653-0.373,2.8271c-0.0654,0.1147-0.1748,0.1987-0.3027,0.2329
		C20.3584,6.0518,20.3145,6.0576,20.2715,6.0576z M15.4082,2.1724l4.6406,2.6792c0.4287-1.2134-0.0547-2.6011-1.208-3.2671
		C17.7275,0.9414,16.2246,1.2207,15.4082,2.1724z"/>
	<path d="M18.9102,23.8818c-0.1709,0-0.3389-0.0889-0.4316-0.2471l-1.9775-3.3809c-0.1396-0.2393-0.0596-0.5449,0.1787-0.6846
		c0.2393-0.1367,0.5449-0.0586,0.6846,0.1787l1.9775,3.3809c0.1396,0.2393,0.0596,0.5449-0.1787,0.6846
		C19.083,23.8594,18.9961,23.8818,18.9102,23.8818z"/>
	<path d="M5.0659,23.8818c-0.0859,0-0.1729-0.0225-0.252-0.0684c-0.2383-0.1396-0.3184-0.4453-0.1792-0.6846l1.978-3.3809
		c0.1396-0.2383,0.4458-0.3174,0.6841-0.1787c0.2383,0.1396,0.3184,0.4453,0.1792,0.6846l-1.978,3.3809
		C5.4048,23.793,5.2378,23.8818,5.0659,23.8818z"/>
</g>
<rect fill="none" width="24" height="24"/>
</svg>
