<?xml version="1.0" encoding="utf-8"?>
<!-- Generator: Adobe Illustrator 18.1.0, SVG Export Plug-In . SVG Version: 6.00 Build 0)  -->
<svg version="1.1" id="Layer_1" xmlns="http://www.w3.org/2000/svg" xmlns:xlink="http://www.w3.org/1999/xlink" x="0px" y="0px"
	 width="24px" height="24px" viewBox="0 0 24 24" enable-background="new 0 0 24 24" xml:space="preserve">
<g>
	<path d="M11.9854,23.7715c-4.6206,0-8.3794-3.7588-8.3794-8.3789c0-4.6206,3.7588-8.3794,8.3794-8.3794
		c4.6201,0,8.3789,3.7588,8.3789,8.3794C20.3643,20.0127,16.6055,23.7715,11.9854,23.7715z M11.9854,8.0132
		c-4.0688,0-7.3794,3.3105-7.3794,7.3794c0,4.0684,3.3105,7.3789,7.3794,7.3789c4.0684,0,7.3789-3.3105,7.3789-7.3789
		C19.3643,11.3237,16.0537,8.0132,11.9854,8.0132z"/>
	<path d="M11.9761,17.4854c-1.125,0-2.04-0.915-2.04-2.04s0.915-2.04,2.04-2.04c1.1255,0,2.0405,0.915,2.0405,2.04
		S13.1016,17.4854,11.9761,17.4854z M11.9761,14.4053c-0.5732,0-1.04,0.4668-1.04,1.04s0.4668,1.04,1.04,1.04
		c0.5737,0,1.0405-0.4668,1.0405-1.04S12.5498,14.4053,11.9761,14.4053z"/>
	<path d="M13.0645,14.8564c-0.1289,0-0.2578-0.0498-0.3564-0.1494c-0.1934-0.1963-0.1914-0.5127,0.0059-0.707l1.1123-1.0967
		c0.1953-0.1924,0.5117-0.1924,0.707,0.0059c0.1934,0.1963,0.1914,0.5127-0.0059,0.707l-1.1123,1.0967
		C13.3184,14.8086,13.1914,14.8564,13.0645,14.8564z"/>
	<path d="M16.1758,9.2197c-0.2764,0-0.5-0.2236-0.5-0.5V5.0586c0-2.0347-1.6553-3.6899-3.6904-3.6899
		c-2.0347,0-3.6899,1.6553-3.6899,3.6899v3.6602c0,0.2764-0.2236,0.5-0.5,0.5s-0.5-0.2236-0.5-0.5V5.0586
		c0-2.5859,2.104-4.6899,4.6899-4.6899s4.6904,2.104,4.6904,4.6899v3.6611C16.6758,8.9961,16.4521,9.2197,16.1758,9.2197z"/>
	<path d="M17.7178,15.9453h-0.916c-0.2764,0-0.5-0.2236-0.5-0.5s0.2236-0.5,0.5-0.5h0.916c0.2764,0,0.5,0.2236,0.5,0.5
		S17.9941,15.9453,17.7178,15.9453z"/>
	<path d="M7.1606,15.9453h-0.916c-0.2764,0-0.5-0.2236-0.5-0.5s0.2236-0.5,0.5-0.5h0.916c0.2764,0,0.5,0.2236,0.5,0.5
		S7.437,15.9453,7.1606,15.9453z"/>
	<path d="M11.981,21.6816c-0.2764,0-0.5-0.2236-0.5-0.5v-0.916c0-0.2764,0.2236-0.5,0.5-0.5c0.2759,0,0.4995,0.2236,0.4995,0.5
		v0.916C12.4805,21.458,12.2568,21.6816,11.981,21.6816z"/>
	<path d="M11.981,11.125c-0.2764,0-0.5-0.2236-0.5-0.5V9.709c0-0.2764,0.2236-0.5,0.5-0.5c0.2759,0,0.4995,0.2236,0.4995,0.5v0.916
		C12.4805,10.9014,12.2568,11.125,11.981,11.125z"/>
	<path d="M15.4863,12.4404c-0.1279,0-0.2559-0.0498-0.3535-0.1475c-0.1953-0.1953-0.1953-0.5117,0-0.7065l0.6484-0.6479
		c0.1953-0.1953,0.5117-0.1953,0.707,0s0.1953,0.5122,0,0.707l-0.6484,0.6484C15.7422,12.3916,15.6143,12.4404,15.4863,12.4404z"/>
	<path d="M7.8276,20.0986c-0.1279,0-0.2559-0.0488-0.3535-0.1465c-0.1953-0.1953-0.1953-0.5117,0-0.707l0.6475-0.6475
		c0.1953-0.1953,0.5117-0.1953,0.707,0s0.1953,0.5117,0,0.707l-0.6475,0.6475C8.0835,20.0498,7.9556,20.0986,7.8276,20.0986z"/>
	<path d="M16.1348,20.0986c-0.1279,0-0.2559-0.0488-0.3535-0.1465l-0.6475-0.6475c-0.1953-0.1953-0.1953-0.5117,0-0.707
		s0.5117-0.1953,0.707,0l0.6475,0.6475c0.1953,0.1953,0.1953,0.5117,0,0.707C16.3906,20.0498,16.2627,20.0986,16.1348,20.0986z"/>
	<path d="M8.4756,12.4404c-0.1279,0-0.2559-0.0488-0.3535-0.1465l-0.6479-0.6484c-0.1953-0.1953-0.1953-0.5117,0-0.707
		s0.5117-0.1953,0.707,0l0.6479,0.6479c0.1953,0.1953,0.1953,0.5122,0,0.7075C8.7314,12.3916,8.6035,12.4404,8.4756,12.4404z"/>
</g>
<rect x="-0.0136" fill="none" width="24" height="24"/>
</svg>
