<?xml version="1.0" encoding="utf-8"?>
<!-- Generator: Adobe Illustrator 18.1.0, SVG Export Plug-In . SVG Version: 6.00 Build 0)  -->
<svg version="1.1" id="Layer_1" xmlns="http://www.w3.org/2000/svg" xmlns:xlink="http://www.w3.org/1999/xlink" x="0px" y="0px"
	 width="24px" height="24px" viewBox="0 0 24 24" enable-background="new 0 0 24 24" xml:space="preserve">
<g>
	<path d="M6.355,16H0.5293c-0.2764,0-0.5-0.2236-0.5-0.5v-15c0-0.2764,0.2236-0.5,0.5-0.5h15c0.2764,0,0.5,0.2236,0.5,0.5v5.8252
		c0,0.2764-0.2236,0.5-0.5,0.5s-0.5-0.2236-0.5-0.5V1h-14v14H6.355c0.2764,0,0.5,0.2236,0.5,0.5S6.6313,16,6.355,16z"/>
	<g>
		<g>
			<path d="M23.5889,24.0596h-1c-0.2764,0-0.5-0.2236-0.5-0.5s0.2236-0.5,0.5-0.5h0.5v-0.5c0-0.2764,0.2236-0.5,0.5-0.5
				s0.5,0.2236,0.5,0.5v1C24.0889,23.8359,23.8652,24.0596,23.5889,24.0596z"/>
			<path d="M19.2803,24.0596H17.626c-0.2764,0-0.5-0.2236-0.5-0.5s0.2236-0.5,0.5-0.5h1.6543c0.2764,0,0.5,0.2236,0.5,0.5
				S19.5566,24.0596,19.2803,24.0596z M14.3174,24.0596h-1.6543c-0.2764,0-0.5-0.2236-0.5-0.5s0.2236-0.5,0.5-0.5h1.6543
				c0.2764,0,0.5,0.2236,0.5,0.5S14.5938,24.0596,14.3174,24.0596z"/>
			<path d="M9.355,24.0596h-1c-0.2764,0-0.5-0.2236-0.5-0.5v-1c0-0.2764,0.2236-0.5,0.5-0.5s0.5,0.2236,0.5,0.5v0.5h0.5
				c0.2764,0,0.5,0.2236,0.5,0.5S9.6313,24.0596,9.355,24.0596z"/>
			<path d="M8.355,19.751c-0.2764,0-0.5-0.2236-0.5-0.5v-1.6543c0-0.2764,0.2236-0.5,0.5-0.5s0.5,0.2236,0.5,0.5v1.6543
				C8.855,19.5273,8.6313,19.751,8.355,19.751z M8.355,14.7881c-0.2764,0-0.5-0.2236-0.5-0.5v-1.6543c0-0.2764,0.2236-0.5,0.5-0.5
				s0.5,0.2236,0.5,0.5v1.6543C8.855,14.5645,8.6313,14.7881,8.355,14.7881z"/>
			<path d="M8.355,9.8257c-0.2764,0-0.5-0.2236-0.5-0.5v-1c0-0.2764,0.2236-0.5,0.5-0.5h1c0.2764,0,0.5,0.2236,0.5,0.5
				s-0.2236,0.5-0.5,0.5h-0.5v0.5C8.855,9.6021,8.6313,9.8257,8.355,9.8257z"/>
			<path d="M19.2803,8.8257H17.626c-0.2764,0-0.5-0.2236-0.5-0.5s0.2236-0.5,0.5-0.5h1.6543c0.2764,0,0.5,0.2236,0.5,0.5
				S19.5566,8.8257,19.2803,8.8257z M14.3174,8.8257h-1.6543c-0.2764,0-0.5-0.2236-0.5-0.5s0.2236-0.5,0.5-0.5h1.6543
				c0.2764,0,0.5,0.2236,0.5,0.5S14.5938,8.8257,14.3174,8.8257z"/>
			<path d="M23.5889,9.8257c-0.2764,0-0.5-0.2236-0.5-0.5v-0.5h-0.5c-0.2764,0-0.5-0.2236-0.5-0.5s0.2236-0.5,0.5-0.5h1
				c0.2764,0,0.5,0.2236,0.5,0.5v1C24.0889,9.6021,23.8652,9.8257,23.5889,9.8257z"/>
			<path d="M23.5889,19.751c-0.2764,0-0.5-0.2236-0.5-0.5v-1.6543c0-0.2764,0.2236-0.5,0.5-0.5s0.5,0.2236,0.5,0.5v1.6543
				C24.0889,19.5273,23.8652,19.751,23.5889,19.751z M23.5889,14.7881c-0.2764,0-0.5-0.2236-0.5-0.5v-1.6543
				c0-0.2764,0.2236-0.5,0.5-0.5s0.5,0.2236,0.5,0.5v1.6543C24.0889,14.5645,23.8652,14.7881,23.5889,14.7881z"/>
		</g>
	</g>
</g>
<rect x="0.0293" y="0.0001" fill="none" width="24" height="24"/>
</svg>
