<?xml version="1.0" encoding="utf-8"?>
<!-- Generator: Adobe Illustrator 18.1.0, SVG Export Plug-In . SVG Version: 6.00 Build 0)  -->
<svg version="1.1" id="Layer_1" xmlns="http://www.w3.org/2000/svg" xmlns:xlink="http://www.w3.org/1999/xlink" x="0px" y="0px"
	 width="24px" height="24px" viewBox="0 0 24 24" enable-background="new 0 0 24 24" xml:space="preserve">
<g>
	<path d="M12,23.6172c-0.1328,0-0.2598-0.0527-0.3535-0.1465L0.5308,12.3545c-0.1953-0.1953-0.1953-0.5117,0-0.707l4.2065-4.2065
		c0.1484-0.1479,0.373-0.188,0.5635-0.1001C5.4907,7.4287,5.606,7.626,5.5894,7.835C5.5298,8.5654,5.7856,9.2734,6.29,9.7783
		c0.9316,0.9316,2.5557,0.9316,3.4873,0c0.9614-0.9614,0.9614-2.5259,0-3.4873C9.2715,5.7852,8.5586,5.5273,7.834,5.5903
		C7.6177,5.6011,7.4272,5.4912,7.3398,5.3018C7.2515,5.1113,7.2915,4.8862,7.4399,4.7383l4.2065-4.2065
		c0.1875-0.1875,0.5195-0.1875,0.707,0l3.5137,3.5142c0.1338-0.6567,0.4561-1.269,0.9375-1.751c1.3086-1.311,3.5928-1.3091,4.9014,0
		c1.3516,1.3511,1.3516,3.5503,0,4.9014c-0.4844,0.4844-1.0889,0.8066-1.749,0.9399l3.5117,3.5112
		c0.1953,0.1953,0.1953,0.5117,0,0.707L12.3535,23.4707C12.2598,23.5645,12.1328,23.6172,12,23.6172z M1.5913,12.001L12,22.4102
		L22.4082,12.001l-3.9814-3.9814c-0.1533-0.1533-0.1904-0.3882-0.0918-0.5811c0.0996-0.1924,0.3057-0.2998,0.5254-0.2661
		c0.7812,0.1265,1.583-0.1274,2.1387-0.6831c0.9609-0.9614,0.9609-2.5259,0-3.4873c-0.9307-0.9312-2.5547-0.9321-3.4873,0
		c-0.5625,0.563-0.8115,1.3428-0.6836,2.1392c0.0352,0.2144-0.0723,0.4263-0.2656,0.5249
		c-0.1943,0.0981-0.4287,0.0615-0.5811-0.0918L12,1.5923L8.9048,4.6875C9.5,4.8374,10.0435,5.1431,10.4844,5.584
		c1.3516,1.3511,1.3516,3.5503,0,4.9014c-1.3096,1.3096-3.5918,1.3096-4.9014,0c-0.4395-0.439-0.7451-0.9858-0.8955-1.5806
		L1.5913,12.001z"/>
</g>
<rect y="0.001" fill="none" width="24" height="24"/>
</svg>
