<?xml version="1.0" encoding="utf-8"?>
<!-- Generator: Adobe Illustrator 18.1.0, SVG Export Plug-In . SVG Version: 6.00 Build 0)  -->
<svg version="1.1" id="Layer_1" xmlns="http://www.w3.org/2000/svg" xmlns:xlink="http://www.w3.org/1999/xlink" x="0px" y="0px"
	 width="24px" height="24px" viewBox="0 0 24 24" enable-background="new 0 0 24 24" xml:space="preserve">
<g>
	<path d="M14.002,22.9346c-2.2139,0-4.4258-0.501-6.7612-1.5332c-0.5415-0.2393-1.7817,0.1006-3.0952,0.46
		c-0.3975,0.1084-0.8149,0.2227-1.248,0.332c-0.9067,0.2305-1.8496-0.3115-2.0991-1.209l-0.0898-0.3066
		c-0.3735-1.251-0.5605-2.0059-0.4795-2.4062c0.1445-0.7197,0.7065-1.2598,1.4316-1.375l0.6084-0.1006
		c2.063-0.3467,6.3555-1.0664,8.8271-0.3506l5.4956,1.5928c0.3682,0.1074,0.6494,0.2939,0.8506,0.5244l3.8701-1.7432
		c0.6094-0.2744,1.2461-0.2266,1.7451,0.1318c0.5107,0.3672,0.7998,1.0098,0.7363,1.6377
		c-0.0605,0.5986-0.4287,1.0918-1.0107,1.3545c-1.1406,0.5137-2.0654,0.9385-2.8291,1.2881
		C16.3828,22.8701,16.2432,22.9346,14.002,22.9346z M6.7529,20.3232c0.333,0,0.6309,0.0488,0.8921,0.1641
		c2.2056,0.9736,4.2847,1.4473,6.3569,1.4473c2.0225,0,2.0225,0,5.5352-1.6113c0.7656-0.3516,1.6924-0.7764,2.8359-1.292
		c0.2578-0.1162,0.4014-0.2988,0.4258-0.543c0.0273-0.2734-0.1035-0.5654-0.3262-0.7256c-0.2051-0.1484-0.4639-0.1611-0.75-0.0312
		l-3.8945,1.7549c0.0215,0.2285-0.002,0.4619-0.0664,0.6826c-0.2393,0.8262-1.0498,1.498-2.1426,1.1816l-5.7729-1.6748
		c-0.2651-0.0771-0.418-0.3545-0.3408-0.6201c0.0767-0.2656,0.353-0.4189,0.6191-0.3408l5.7739,1.6748
		c0.5146,0.1543,0.8086-0.1758,0.9033-0.499c0.0381-0.1309,0.0479-0.2793,0.0117-0.4189c-0.0117-0.0195-0.0234-0.04-0.0332-0.0625
		c-0.0146-0.0322-0.0254-0.0654-0.0322-0.0986c-0.0791-0.1348-0.2178-0.248-0.4355-0.3115l-5.4946-1.5928
		c-2.2534-0.6533-6.3936,0.042-8.3828,0.376l-0.6182,0.1025c-0.3076,0.0488-0.5459,0.2773-0.6074,0.584
		c-0.0327,0.2803,0.3359,1.5166,0.457,1.9238l0.0947,0.3223c0.106,0.3779,0.5059,0.6055,0.8906,0.5098
		c0.4272-0.1084,0.8384-0.2207,1.23-0.3281C5.0132,20.5869,5.978,20.3232,6.7529,20.3232z"/>
	<path d="M15.4766,14.8477c-4.0312,0-7.311-3.2793-7.311-7.3105s3.2798-7.311,7.311-7.311s7.3105,3.2798,7.3105,7.311
		S19.5078,14.8477,15.4766,14.8477z M15.4766,1.2261c-3.48,0-6.311,2.8311-6.311,6.311c0,3.4795,2.8311,6.3105,6.311,6.3105
		c3.4795,0,6.3105-2.8311,6.3105-6.3105C21.7871,4.0571,18.9561,1.2261,15.4766,1.2261z"/>
	<path d="M17.7764,11.73c-0.1094,0-0.2178-0.0269-0.3184-0.0801c-0.459-0.2441-0.5664-0.9814-0.5752-1.5571l0.001-0.2969
		c0.0029-0.6963,0.0029-0.7769-0.251-1.7661l-0.4316-0.4819c-0.3818-0.1509-1.1621-0.4463-1.5195-0.5239
		c-0.3896-0.085-0.6621-0.4033-0.7119-0.8311c-0.0576-0.4932,0.1973-1.1694,0.7852-1.4507
		c0.1406-0.0679,0.2705-0.1016,0.3848-0.1172c-0.002-0.0283-0.0049-0.0601-0.0078-0.0942
		c-0.0137-0.1621-0.0518-0.2456-0.0801-0.2686c-0.0713-0.0586-0.3516-0.0259-0.502-0.0068c-0.123,0.0146-0.2373,0.0269-0.333,0.0269
		c-0.0107,0.0444-0.0986,0.46-0.1924,0.8999l-0.0439,0.2065c-0.1143,0.5308-0.4014,0.6826-0.6221,0.7168
		c-0.5117,0.0786-0.833-0.4453-0.8936-0.5513c-0.0117-0.021-0.0273-0.0483-0.0449-0.0967c-0.1738,0.147-0.4307,0.3003-0.8101,0.4346
		c-0.5264,0.1851-0.8267-0.021-0.958-0.1621c-0.436-0.4683-0.1587-1.4141,0.1509-2.125c0.1104-0.2534,0.4038-0.3696,0.6577-0.2588
		c0.2529,0.1104,0.3691,0.4048,0.2593,0.6577c-0.1289,0.2969-0.2339,0.6387-0.2759,0.874c0.312-0.1338,0.3804-0.2354,0.3809-0.2368
		l0.481-0.8569c0.1094-0.1919,0.3271-0.2881,0.5479-0.2388c0.2158,0.0498,0.3721,0.2354,0.3857,0.4561
		c0.0029,0.043,0.0059,0.0864,0.0088,0.1309c0.168-0.542,0.4053-0.8501,0.9688-0.8501c0.0615,0,0.1348-0.0103,0.2139-0.02
		c0.3389-0.0405,0.8506-0.1021,1.252,0.2241c0.2588,0.21,0.4082,0.5322,0.4453,0.958c0.043,0.4854,0.0566,0.7949-0.1748,1.02
		c-0.2051,0.2007-0.459,0.1699-0.5674,0.1567c-0.0869-0.0107-0.124-0.0151-0.1982,0.0225C15.0068,5.73,14.9336,6.02,14.9678,6.1025
		c0.4756,0.0635,1.5898,0.5103,1.7148,0.561c0.0703,0.0283,0.1338,0.0728,0.1846,0.1294l0.5918,0.6602
		c0.0537,0.0601,0.0918,0.1313,0.1123,0.209c0.3047,1.1816,0.3154,1.3301,0.3125,2.1382l-0.001,0.2847
		c0.002,0.1328,0.0166,0.2827,0.0371,0.4141c0.5342-0.6445,1.3457-2.1494,1.1982-2.5688c-0.292-0.8301-0.4678-1.3311,0.4609-1.8345
		c0.5234-0.2837,0.6543-0.5122,0.6494-0.6025c-0.0156-0.2759,0.1963-0.5112,0.4717-0.5264
		c0.2832-0.0283,0.5117,0.1963,0.5264,0.4717c0.0322,0.5811-0.3623,1.0977-1.1709,1.5361
		c-0.0811,0.0439-0.1318,0.0747-0.1641,0.0952c0.0254,0.1182,0.1045,0.3423,0.1699,0.5288c0.4111,1.168-1.2646,3.6094-1.8594,3.9976
		C18.0654,11.6851,17.9199,11.73,17.7764,11.73z"/>
	<path d="M11.5347,11.8823c-0.0532,0-0.1079-0.0083-0.1611-0.0269c-0.2617-0.0889-0.4014-0.373-0.312-0.6343
		c0.4824-1.4165,0.7275-1.8115,1.0645-2.1313c-0.041-0.0161-0.0801-0.0308-0.1143-0.0435
		c-0.3164-0.1211-0.6157-0.2354-0.8081-0.4277c-0.1392-0.1392-0.228-0.1924-0.3628-0.2729
		c-0.0059-0.0034-0.0122-0.0073-0.0181-0.0107c-0.0542,0.2446-0.106,0.5771-0.1328,0.8838
		c-0.0244,0.2754-0.2588,0.4805-0.542,0.4541C9.873,9.6484,9.6694,9.4058,9.6938,9.1309c0.1514-1.7158,0.541-1.8838,0.7075-1.9556
		c0.207-0.0889,0.4404-0.0547,0.6245,0.0903c0.1333,0.106,0.2349,0.166,0.3281,0.2222c0.1548,0.0923,0.3301,0.1973,0.5566,0.4238
		c0.0586,0.0479,0.3091,0.1436,0.4575,0.2002c0.4727,0.1802,0.918,0.3501,0.999,0.7871c0.0254,0.1362,0.0273,0.4014-0.2471,0.6475
		L12.959,9.6865c-0.2891,0.2461-0.4482,0.3813-0.9512,1.8569C11.937,11.7515,11.7427,11.8823,11.5347,11.8823z"/>
</g>
<rect fill="none" width="24" height="24"/>
</svg>
