<?xml version="1.0" encoding="utf-8"?>
<!-- Generator: Adobe Illustrator 18.1.0, SVG Export Plug-In . SVG Version: 6.00 Build 0)  -->
<svg version="1.1" id="Layer_1" xmlns="http://www.w3.org/2000/svg" xmlns:xlink="http://www.w3.org/1999/xlink" x="0px" y="0px"
	 width="24px" height="24px" viewBox="0 0 24 24" enable-background="new 0 0 24 24" xml:space="preserve">
<g>
	<path d="M17.2715,19.4238c-0.0654,0-0.1328-0.0127-0.1963-0.04l-1.4492-0.6182c-0.2539-0.1084-0.3721-0.4023-0.2637-0.6562
		s0.4004-0.3711,0.6562-0.2637l1.0381,0.4434l0.4102-0.7227l-3.041-8.8208c-0.0898-0.2612,0.0488-0.5459,0.3096-0.6357
		s0.5459,0.0483,0.6357,0.3096l3.1143,9.0347c0.0469,0.1357,0.0332,0.2852-0.0381,0.4102l-0.7412,1.3066
		C17.6152,19.3311,17.4463,19.4238,17.2715,19.4238z"/>
	<path d="M10.2954,5.0767c-0.1792,0-0.3477-0.0967-0.437-0.2568C8.688,2.7153,8.4893,1.4062,9.2505,0.8179
		c0.959-0.5166,1.8687-0.7549,2.7749-0.7549c1.5635,0,2.5713,0.7144,2.6143,0.7451c0.7705,0.5938,0.5781,1.8921-0.5762,3.979
		c-0.1016,0.1826-0.3086,0.2817-0.5107,0.2524c-1.0381-0.1538-2.1338-0.1431-3.1753,0.0303
		C10.3501,5.0742,10.3223,5.0767,10.2954,5.0767z M12.0254,1.063c-0.7412,0-1.4937,0.1992-2.2354,0.5923
		c-0.0708,0.0635-0.0576,0.791,0.7778,2.375c0.9199-0.1226,1.8628-0.1313,2.7817-0.0259c0.8223-1.5674,0.8291-2.2891,0.6914-2.395
		l0,0C14.04,1.6094,13.2451,1.063,12.0254,1.063z"/>
	<path d="M12.0371,23.9072c-0.1323,0-0.2598-0.0527-0.3535-0.1465l-2.7788-2.7803c-0.1055-0.1055-0.1582-0.252-0.144-0.4004
		l1.397-14.7036c0.0259-0.2749,0.271-0.4858,0.5449-0.4502c0.2749,0.0259,0.4766,0.27,0.4502,0.5449L9.7783,20.4404l2.2471,2.248
		l2.1006-2.2393L12.7471,5.9429c-0.0254-0.2749,0.1758-0.519,0.4512-0.5449c0.2559-0.0322,0.5195,0.1748,0.5449,0.4502
		l1.4004,14.7319c0.0137,0.1426-0.0352,0.2842-0.1338,0.3887l-2.6084,2.7803c-0.0918,0.0986-0.2207,0.1562-0.3564,0.1582
		C12.042,23.9072,12.04,23.9072,12.0371,23.9072z"/>
</g>
<rect x="-0.0004" y="-0.0011" fill="none" width="24" height="24"/>
</svg>
