<?xml version="1.0" encoding="utf-8"?>
<!-- Generator: Adobe Illustrator 18.1.0, SVG Export Plug-In . SVG Version: 6.00 Build 0)  -->
<svg version="1.1" id="Layer_1" xmlns="http://www.w3.org/2000/svg" xmlns:xlink="http://www.w3.org/1999/xlink" x="0px" y="0px"
	 width="24px" height="24px" viewBox="0 0 24 24" enable-background="new 0 0 24 24" xml:space="preserve">
<g>
	<path d="M10.5039,4.6694c-1.1914,0-2.1611-0.9697-2.1611-2.1611s0.9697-2.1611,2.1611-2.1611s2.1611,0.9697,2.1611,2.1611
		S11.6953,4.6694,10.5039,4.6694z M10.5039,1.3472c-0.6401,0-1.1611,0.521-1.1611,1.1611s0.521,1.1611,1.1611,1.1611
		s1.1611-0.521,1.1611-1.1611S11.144,1.3472,10.5039,1.3472z"/>
	<path d="M12.5264,22.1865c-0.0059,0-0.0117,0-0.0186,0c-0.2754-0.0107-0.4912-0.2422-0.4814-0.5186l0.1719-4.7275
		c0.0039-0.0801-0.0244-0.1553-0.0781-0.2109l-3.5908-3.6699c-0.3926-0.4072-0.6025-0.9609-0.5781-1.5225L8.1045,7.98
		c0.0522-1.2021,0.9927-2.1519,2.1411-2.1616c0.5957,0.0161,1.1597,0.2285,1.5762,0.6592c0.4097,0.4243,0.6304,1.0059,0.605,1.5947
		l0.3828,2.7178l3.0127-0.7236c0.2793-0.0659,0.5381,0.1016,0.6035,0.3696c0.0645,0.2686-0.1006,0.5386-0.3691,0.603l-3.5479,0.8521
		c-0.1387,0.0317-0.2832,0.0054-0.3994-0.0732c-0.1162-0.0796-0.1938-0.2046-0.2129-0.3447l-0.4644-3.354
		c0.0093-0.4111-0.106-0.7153-0.3296-0.9468c-0.2212-0.2285-0.5176-0.354-0.8369-0.354c-0.0034,0-0.0073,0-0.0112,0
		c-0.606,0.0054-1.1221,0.5459-1.1509,1.2046l-0.1533,3.5571c-0.0127,0.2896,0.0952,0.5742,0.2964,0.7822l3.5913,3.6709
		c0.2461,0.2549,0.376,0.5996,0.3594,0.9482l-0.1709,4.7236C13.0166,21.9746,12.7939,22.1865,12.5264,22.1865z"/>
	<path d="M6.6211,23.624c-0.0503,0-0.1021-0.0078-0.1528-0.0234c-0.2627-0.085-0.4077-0.3662-0.3232-0.6289l2.437-7.5957
		c0.084-0.2627,0.3643-0.4053,0.6289-0.3242c0.2627,0.085,0.4077,0.3662,0.3232,0.6289l-2.437,7.5957
		C7.0293,23.4893,6.8325,23.624,6.6211,23.624z"/>
	<path d="M6.4746,13.292c-0.0078,0-0.0151,0-0.0229-0.001l-2.502-0.1123c-0.6963-0.0322-1.2373-0.624-1.2065-1.3188l0.1104-2.4531
		c0.0898-2.0063,1.7324-3.5781,3.7402-3.5781l0.1699,0.0039C6.896,5.8384,7.0322,5.8975,7.1216,5.9951
		c0.0898,0.0981,0.1479,0.228,0.1421,0.3604l-0.29,6.459C6.9614,13.083,6.7402,13.292,6.4746,13.292z M6.2402,6.8511
		c-1.3062,0.167-2.3271,1.2495-2.3877,2.6006l-0.1104,2.4526c-0.0063,0.1455,0.1069,0.2695,0.2529,0.2764l2.002,0.0898
		L6.2402,6.8511z"/>
	<path d="M16.8379,20.749c-0.2393,0-0.4512-0.1729-0.4922-0.417L14.5479,9.6328c-0.0459-0.2725,0.1377-0.5303,0.4102-0.5762
		c0.2676-0.0405,0.5303,0.1372,0.5762,0.4102L17.332,20.166c0.0459,0.2725-0.1377,0.5303-0.4102,0.5762
		C16.8936,20.7471,16.8662,20.749,16.8379,20.749z"/>
</g>
<rect x="-0.0008" y="-0.0147" fill="none" width="24" height="24"/>
</svg>
