<?xml version="1.0" encoding="utf-8"?>
<!-- Generator: Adobe Illustrator 18.1.0, SVG Export Plug-In . SVG Version: 6.00 Build 0)  -->
<svg version="1.1" id="Layer_1" xmlns="http://www.w3.org/2000/svg" xmlns:xlink="http://www.w3.org/1999/xlink" x="0px" y="0px"
	 width="24px" height="24px" viewBox="0 0 24 24" enable-background="new 0 0 24 24" xml:space="preserve">
<g>
	<path d="M8.5933,3.8286c-0.9883,0-1.7925-0.8042-1.7925-1.7925s0.8042-1.792,1.7925-1.792s1.792,0.8037,1.792,1.792
		S9.5815,3.8286,8.5933,3.8286z M8.5933,1.2441c-0.437,0-0.7925,0.3555-0.7925,0.792c0,0.437,0.3555,0.7925,0.7925,0.7925
		c0.4365,0,0.792-0.3555,0.792-0.7925C9.3853,1.5996,9.0298,1.2441,8.5933,1.2441z"/>
	<path d="M3.2461,22.9531c-0.0869,0-0.1733-0.0225-0.2505-0.0674C2.8809,22.8193,2.7974,22.71,2.7632,22.582l-2.6162-9.79
		c-0.0713-0.2666,0.0869-0.541,0.354-0.6123l20.167-5.3892c0.127-0.0361,0.2656-0.0156,0.3789,0.0503
		c0.1152,0.0659,0.1992,0.1753,0.2334,0.3037l2.6162,9.79c0.0713,0.2666-0.0879,0.541-0.3545,0.6123L3.375,22.9365
		C3.3325,22.9473,3.2896,22.9531,3.2461,22.9531z M1.2422,13.0166l2.3579,8.8242L22.8008,16.71l-2.3574-8.8242L1.2422,13.0166z"/>
	<path d="M4.5527,12.1152c-0.0649,0-0.1309-0.0127-0.1943-0.04c-0.2544-0.1069-0.3735-0.4004-0.2661-0.6548l3.5386-8.3882
		c0.1074-0.2549,0.4004-0.374,0.6548-0.2661C8.54,2.873,8.6592,3.1665,8.5518,3.4209l-3.5386,8.3882
		C4.9326,12,4.7476,12.1152,4.5527,12.1152z"/>
	<path d="M16.873,8.8223c-0.1055,0-0.2119-0.0332-0.3027-0.1016L9.3198,3.2153c-0.2202-0.167-0.2632-0.481-0.0962-0.7007
		c0.168-0.2212,0.481-0.2617,0.7007-0.0962l7.2515,5.5054c0.2197,0.167,0.2627,0.481,0.0957,0.7007
		C17.1729,8.7544,17.0234,8.8223,16.873,8.8223z"/>
	<path d="M17.2227,15.9404c-0.0332,0-0.0654-0.0029-0.0986-0.0098c-0.2715-0.0537-0.4463-0.3174-0.3926-0.5879l0.6582-3.2969
		l-1.335,0.3613c-0.2695,0.0732-0.542-0.0859-0.6133-0.3525c-0.0723-0.2666,0.085-0.541,0.3516-0.6128l2.1143-0.5718
		c0.165-0.0454,0.3467-0.0015,0.4727,0.1172c0.126,0.1182,0.1826,0.2935,0.1484,0.4634l-0.8164,4.0874
		C17.6641,15.7764,17.4561,15.9404,17.2227,15.9404z"/>
	<path d="M6.1118,19.0029c-0.1548,0-0.3042-0.0723-0.3999-0.2002c-0.123-0.1631-0.1333-0.3857-0.0269-0.5605l1.314-2.1523
		c0.022-0.0361,0.5107-0.8496-0.0024-1.1631c-0.1616-0.0986-0.3018-0.1152-0.4517-0.0605c-0.3223,0.123-0.5996,0.5439-0.6582,0.7354
		c-0.0801,0.2637-0.3584,0.4102-0.624,0.332c-0.2642-0.0811-0.4131-0.3604-0.332-0.624c0.1196-0.3936,0.5679-1.1152,1.2588-1.3779
		c0.4424-0.168,0.9014-0.1191,1.3286,0.1416c0.3491,0.2129,0.5811,0.5254,0.6704,0.9023c0.1831,0.7705-0.2842,1.5527-0.3384,1.6387
		l-0.6577,1.0781l1.2168-0.3291c0.2676-0.0713,0.5415,0.085,0.6133,0.3516c0.0723,0.2666-0.0854,0.541-0.3516,0.6133l-2.4282,0.6572
		C6.1992,18.9971,6.1553,19.0029,6.1118,19.0029z"/>
	<path d="M11.8096,17.4609c-0.2202,0-0.4219-0.1465-0.4819-0.3691l-0.1299-0.4785L9.438,17.0889
		c-0.1846,0.0508-0.3838-0.0107-0.5093-0.1562c-0.126-0.1465-0.1562-0.3516-0.0786-0.5273l1.4902-3.3867
		c0.085-0.1943,0.2769-0.3154,0.4951-0.2979c0.2114,0.0166,0.3896,0.1641,0.4448,0.3682l0.6221,2.2979l0.1885-0.0508
		c0.2695-0.0723,0.542,0.085,0.6133,0.3516c0.0723,0.2666-0.085,0.541-0.3516,0.6133l-0.1895,0.0518l0.1299,0.4775
		c0.0723,0.2666-0.0859,0.541-0.3525,0.6133C11.897,17.4551,11.853,17.4609,11.8096,17.4609z M10.6851,14.7178l-0.4985,1.1328
		l0.7505-0.2031L10.6851,14.7178z"/>
	<path d="M13.3252,17.8291c-0.0352,0-0.0703-0.0039-0.1064-0.0107c-0.2695-0.0586-0.4414-0.3242-0.3838-0.5947l1.2139-5.6499
		c0.0586-0.2705,0.3242-0.4434,0.5947-0.3838c0.2695,0.0581,0.4414,0.3237,0.3838,0.5938l-1.2139,5.6509
		C13.7627,17.6689,13.5557,17.8291,13.3252,17.8291z"/>
</g>
<rect x="-0.0137" fill="none" width="24" height="24"/>
</svg>
