<?xml version="1.0" encoding="utf-8"?>
<!-- Generator: Adobe Illustrator 18.1.0, SVG Export Plug-In . SVG Version: 6.00 Build 0)  -->
<svg version="1.1" id="Layer_1" xmlns="http://www.w3.org/2000/svg" xmlns:xlink="http://www.w3.org/1999/xlink" x="0px" y="0px"
	 width="24px" height="24px" viewBox="0 0 24 24" enable-background="new 0 0 24 24" xml:space="preserve">
<g>
	<path d="M3.1138,22c-0.0552,0-0.1118-0.0088-0.167-0.0283c-0.2603-0.0928-0.3965-0.3779-0.3042-0.6387
		c0.0234-0.0664,2.3608-6.7002,2.6494-10.1792c0.0225-0.2749,0.2617-0.4902,0.5396-0.4565
		c0.2749,0.0225,0.4795,0.2642,0.4565,0.5396C5.9893,14.8447,3.6831,21.3896,3.585,21.667C3.5127,21.8721,3.3198,22,3.1138,22z"/>
	<path d="M14.8428,21.8604c-0.2061,0-0.3984-0.1279-0.4707-0.332C14.2627,21.2197,11.8159,14.3115,11.5674,11h-1.2676
		c-0.2764,0-0.5-0.2236-0.5-0.5s0.2236-0.5,0.5-0.5h1.7471c0.2764,0,0.5,0.2236,0.5,0.5c0,2.8809,2.7393,10.6152,2.7666,10.6924
		c0.0928,0.2607-0.043,0.5469-0.3027,0.6387C14.9551,21.8516,14.8984,21.8604,14.8428,21.8604z"/>
	<path d="M12.4922,14H7.5371c-0.2764,0-0.5-0.2236-0.5-0.5s0.2236-0.5,0.5-0.5h4.9551c0.2764,0,0.5,0.2236,0.5,0.5
		S12.7686,14,12.4922,14z"/>
	<path d="M20.8311,21.9336c-0.2061,0-0.3994-0.1279-0.4717-0.334c-0.082-0.2324-1.915-5.457-2.1064-8.5996h-4.2559
		c-0.2764,0-0.5-0.2236-0.5-0.5s0.2236-0.5,0.5-0.5h4.7393c0.2764,0,0.5,0.2236,0.5,0.5c0,2.8809,2.0459,8.709,2.0664,8.7676
		c0.0918,0.2598-0.0449,0.5459-0.3057,0.6377C20.9424,21.9248,20.8867,21.9336,20.8311,21.9336z"/>
	<path d="M19.1338,16h-4.0205c-0.2764,0-0.5-0.2236-0.5-0.5s0.2236-0.5,0.5-0.5h4.0205c0.2764,0,0.5,0.2236,0.5,0.5
		S19.4102,16,19.1338,16z"/>
	<path d="M22.9971,24H0.9976c-0.2764,0-0.5-0.2236-0.5-0.5s0.2236-0.5,0.5-0.5h21.9995c0.2764,0,0.5,0.2236,0.5,0.5
		S23.2734,24,22.9971,24z"/>
	<path d="M4.688,12.0244c-1.0073,0-1.8916-0.5708-2.3071-1.4902C2.1089,9.9326,2.084,9.2778,2.2876,8.6851
		C0.9575,8.5078,0.2642,7.3325,0.2642,6.1709c0-1.1704,0.6934-2.354,2.0239-2.5352C2.084,3.042,2.1089,2.3862,2.3809,1.7847
		c0.416-0.9194,1.2998-1.4907,2.3071-1.4907c0.7573,0,1.4536,0.3379,1.9233,0.8936c0.4702-0.5557,1.166-0.8936,1.9233-0.8936
		c1.0073,0,1.8916,0.5708,2.3071,1.4902c0.2715,0.6011,0.2969,1.2559,0.0938,1.8491c0.7139,0.0947,1.2959,0.4819,1.6611,1.1147
		c0.4844,0.8394,0.4834,1.9692-0.0039,2.8125c-0.3662,0.6348-0.9478,1.0249-1.6597,1.1221
		c0.0894,0.2593,0.1357,0.5317,0.1357,0.8081c0,1.6416-1.3169,2.5278-2.5557,2.5278c-0.7739,0-1.4502-0.3223-1.9092-0.8789
		C6.1343,11.6904,5.4414,12.0244,4.688,12.0244z M3.1665,7.6533c0.1763,0,0.3428,0.0933,0.4331,0.2505
		c0.1069,0.1855,0.084,0.4189-0.0576,0.5801c-0.4102,0.4653-0.5034,1.0776-0.25,1.6382c0.1973,0.4365,0.6675,0.9028,1.396,0.9028
		c0.6577,0,1.2397-0.4248,1.4487-1.0566c0.1348-0.4102,0.8145-0.4102,0.9492,0c0.2173,0.6572,0.7505,1.0498,1.4272,1.0498
		c0.7729,0,1.5557-0.5244,1.5557-1.5273c0-0.4683-0.2109-0.8062-0.3877-1.0068C9.5391,8.3228,9.5156,8.0894,9.623,7.9038
		C9.73,7.7183,9.9443,7.6191,10.1538,7.6631c0.8774,0.1738,1.3682-0.248,1.5732-0.6025c0.3091-0.5356,0.3101-1.2808,0.0034-1.8125
		c-0.2031-0.3521-0.6929-0.7695-1.5757-0.5918C9.9443,4.6982,9.7305,4.6016,9.623,4.416c-0.1069-0.1855-0.084-0.4189,0.0576-0.5801
		c0.4102-0.4658,0.5034-1.0791,0.25-1.6396c-0.1973-0.4365-0.6675-0.9023-1.396-0.9023c-0.6577,0-1.2397,0.4248-1.4487,1.0571
		C7.0186,2.5557,6.8271,2.6943,6.6113,2.6943l0,0c-0.2158,0-0.4072-0.1387-0.4746-0.3433C5.9282,1.7188,5.3457,1.2939,4.688,1.2939
		c-0.7285,0-1.1987,0.4663-1.396,0.9023c-0.2534,0.561-0.1602,1.1738,0.25,1.6396C3.6836,3.9971,3.7065,4.2305,3.5996,4.416
		c-0.1074,0.186-0.3232,0.2827-0.5317,0.2402C1.6821,4.3794,1.2642,5.522,1.2642,6.1709c0,0.6416,0.4189,1.7715,1.8047,1.4922
		C3.1016,7.6562,3.1343,7.6533,3.1665,7.6533z"/>
	<path d="M6.6113,8.3389c-1.2017,0-2.1797-0.9775-2.1797-2.1792S5.4097,3.98,6.6113,3.98S8.791,4.958,8.791,6.1597
		S7.813,8.3389,6.6113,8.3389z M6.6113,4.98c-0.6504,0-1.1797,0.5293-1.1797,1.1797s0.5293,1.1792,1.1797,1.1792
		S7.791,6.8101,7.791,6.1597S7.2617,4.98,6.6113,4.98z"/>
</g>
<rect x="0.0005" fill="none" width="24" height="24"/>
</svg>
