<?xml version="1.0" encoding="utf-8"?>
<!-- Generator: Adobe Illustrator 18.1.0, SVG Export Plug-In . SVG Version: 6.00 Build 0)  -->
<svg version="1.1" id="Layer_1" xmlns="http://www.w3.org/2000/svg" xmlns:xlink="http://www.w3.org/1999/xlink" x="0px" y="0px"
	 width="24px" height="24px" viewBox="0 0 24 24" enable-background="new 0 0 24 24" xml:space="preserve">
<g>
	<path d="M9.3271,4.3262c-1.0728,0-1.9458-0.873-1.9458-1.9458s0.873-1.9458,1.9458-1.9458s1.9458,0.873,1.9458,1.9458
		S10.3999,4.3262,9.3271,4.3262z M9.3271,1.4346c-0.5215,0-0.9458,0.4243-0.9458,0.9458s0.4243,0.9458,0.9458,0.9458
		s0.9458-0.4243,0.9458-0.9458S9.8486,1.4346,9.3271,1.4346z"/>
	<path d="M7.5405,12.6738c-0.0049,0-0.0093,0-0.0137,0C7.2505,12.666,7.0327,12.4365,7.04,12.1602l0.1338-5.0122
		c0.0469-1.0884,0.8936-1.9419,1.9272-1.9517c0.5498,0.0098,1.0449,0.2056,1.4194,0.5933c0.3691,0.3818,0.5679,0.9058,0.5449,1.436
		l0.2832,2.0015l0.603-0.4419c0.2222-0.1646,0.5347-0.1152,0.6987,0.1079c0.1631,0.2227,0.1152,0.5356-0.1074,0.6987l-1.2773,0.9351
		c-0.1416,0.1045-0.3286,0.125-0.4902,0.0571c-0.1621-0.0688-0.2764-0.2173-0.3003-0.3921l-0.4043-2.9194
		c0.0068-0.3516-0.0874-0.5996-0.2695-0.7881C9.6196,6.2959,9.3364,6.2158,9.1108,6.1963C8.6172,6.2007,8.1968,6.6436,8.1733,7.1826
		L8.04,12.1875C8.0327,12.459,7.8101,12.6738,7.5405,12.6738z"/>
	<path d="M6.502,21H2.6357c-1.3413,0-2.4326-1.1211-2.4326-2.5S1.2944,16,2.6357,16h3.1406l10.3389-7.5986
		C16.5322,8.1328,16.9834,8,17.4463,8h3.8662c1.3418,0,2.4336,1.1216,2.4336,2.5S22.6543,13,21.3125,13h-3.1406L7.8335,20.5996
		C7.4165,20.8682,6.9648,21,6.502,21z M2.6357,17c-0.7764,0-1.4326,0.6865-1.4326,1.5S1.8594,20,2.6357,20H6.502
		c0.2715,0,0.5361-0.0781,0.7661-0.2246l10.4438-7.6787C17.7979,12.0342,17.9014,12,18.0078,12h3.3047
		c0.7773,0,1.4336-0.687,1.4336-1.5S22.0898,9,21.3125,9h-3.8662c-0.2715,0-0.5361,0.0776-0.7646,0.2251L6.2363,16.9033
		C6.1509,16.9658,6.0469,17,5.9404,17H2.6357z"/>
	<path d="M14.5625,6.9307c-0.165,0-0.3262-0.0815-0.4219-0.231c-0.1484-0.2329-0.0801-0.542,0.1533-0.6904l3.7783-2.4102
		c0.2314-0.147,0.541-0.0811,0.6904,0.1523c0.1484,0.2329,0.0801,0.542-0.1533,0.6904l-3.7783,2.4102
		C14.748,6.9053,14.6553,6.9307,14.5625,6.9307z"/>
	<path d="M17.9736,6.1831c-0.0352,0-0.0713-0.0039-0.1074-0.0117c-0.2705-0.0596-0.4404-0.3267-0.3809-0.5962l0.2598-1.1743
		l-1.1738-0.2593c-0.2705-0.0596-0.4404-0.3267-0.3809-0.5962C16.25,3.2769,16.5146,3.106,16.7861,3.165l1.6621,0.3672
		c0.2705,0.0596,0.4404,0.3267,0.3809,0.5962L18.4619,5.791C18.4102,6.0244,18.2031,6.1831,17.9736,6.1831z"/>
</g>
<rect x="-0.0137" y="0.0002" fill="none" width="24" height="24"/>
</svg>
