<?xml version="1.0" encoding="utf-8"?>
<!-- Generator: Adobe Illustrator 18.1.0, SVG Export Plug-In . SVG Version: 6.00 Build 0)  -->
<svg version="1.1" id="Layer_1" xmlns="http://www.w3.org/2000/svg" xmlns:xlink="http://www.w3.org/1999/xlink" x="0px" y="0px"
	 width="24px" height="24px" viewBox="0 0 24 24" enable-background="new 0 0 24 24" xml:space="preserve">
<g>
	<path d="M19.5381,18.832c-0.002,0-0.0049,0-0.0068,0c-0.2764-0.0039-0.4971-0.2305-0.4932-0.5068l0.1318-9.8091
		c0-0.5117-0.3662-1.0933-0.6465-1.4624c-0.2793,0.3691-0.6465,0.9526-0.6465,1.4692l0.0771,5.2661
		c0.0039,0.2754-0.2168,0.5029-0.4932,0.5068c-0.2324-0.0176-0.5029-0.2168-0.5068-0.4932L16.877,8.5303
		c0-0.9995,0.7207-1.9619,1.1504-2.4473c0.2559-0.2876,0.7354-0.2871,0.9912-0.0024c0.4316,0.4873,1.1514,1.4492,1.1514,2.4424
		l-0.1318,9.8159C20.0342,18.6123,19.8115,18.832,19.5381,18.832z"/>
	<path d="M4.5117,18.832c-0.2729,0-0.4961-0.2197-0.5-0.4932L3.8789,8.5298c0-0.9995,0.7202-1.9614,1.1494-2.4468
		c0.1279-0.144,0.3086-0.2256,0.4971-0.2256c0.0005,0,0.001,0,0.0015,0c0.1885,0,0.3691,0.0825,0.4956,0.2256
		c0.4292,0.4854,1.1494,1.4473,1.1494,2.4399l-0.0776,5.3188c-0.0039,0.2764-0.2319,0.4561-0.5073,0.4932
		c-0.2759-0.0039-0.4966-0.2314-0.4927-0.5068l0.0776-5.3125c0-0.5107-0.3667-1.0923-0.6465-1.4619
		C5.2461,7.4233,4.8789,8.0063,4.8789,8.5229l0.1328,9.8022c0.0039,0.2764-0.2173,0.5029-0.4932,0.5068
		C4.5161,18.832,4.5137,18.832,4.5117,18.832z"/>
	<path d="M8.7002,10.9272c-0.2686,0-0.4907-0.2134-0.499-0.4839L8.0586,5.9639c-0.0005-2.333,2.2725-4.6841,3.2495-5.5874
		c0.3892-0.3608,1.0259-0.3618,1.4175-0.0005c0.9775,0.9038,3.251,3.2554,3.251,5.5718l-0.1445,4.4956
		c-0.0088,0.2705-0.2314,0.4839-0.5,0.4839c-0.0049,0-0.0107,0-0.0166-0.0005c-0.2754-0.0088-0.4922-0.2397-0.4834-0.5156
		l0.1445-4.4795c0-1.9595-2.2422-4.1855-2.9297-4.8208c-0.7471,0.6353-2.9888,2.8608-2.9888,4.8369l0.1421,4.4634
		c0.0088,0.2764-0.2075,0.5068-0.4834,0.5156C8.7109,10.9272,8.7056,10.9272,8.7002,10.9272z"/>
	<path d="M10.4326,17.9414c-0.0181,0-0.0366-0.001-0.0552-0.0029l-3.8281-0.4209c-0.231-0.0254-0.4141-0.207-0.4419-0.4375
		c-0.0166-0.1387-0.105-1.3965,1.8613-2.9395c1.6348-1.2832,1.9692-2.9561,1.9722-2.9727c0.0513-0.271,0.313-0.4492,0.5845-0.3979
		c0.2715,0.0518,0.4497,0.3135,0.3979,0.5845c-0.0161,0.0835-0.4106,2.0605-2.3374,3.5732c-0.895,0.7021-1.2505,1.291-1.3916,1.6543
		l3.2925,0.3623c0.2744,0.0303,0.4727,0.2773,0.4424,0.5518C10.9009,17.752,10.6846,17.9414,10.4326,17.9414z"/>
	<path d="M13.6016,17.9414c-0.251,0-0.4678-0.1895-0.4961-0.4453c-0.0303-0.2744,0.168-0.5215,0.4424-0.5518l3.2939-0.3623
		c-0.1406-0.3594-0.4961-0.9502-1.3936-1.6543c-1.9258-1.5127-2.3213-3.4897-2.3369-3.5732
		c-0.0518-0.2705,0.126-0.5308,0.3965-0.583c0.2637-0.0547,0.5312,0.1245,0.5859,0.3945c0.0029,0.0171,0.3525,1.7031,1.9717,2.9746
		c1.9658,1.543,1.8779,2.8008,1.8613,2.9395c-0.0273,0.2305-0.21,0.4121-0.4414,0.4375l-3.8281,0.4209
		C13.6387,17.9404,13.6201,17.9414,13.6016,17.9414z"/>
	<path d="M12.4912,8.4312c-0.1533,0-0.3047-0.0693-0.4043-0.1992c-0.0049-0.0059-0.0273-0.0225-0.0693-0.0225
		c-0.1626,0.2241-0.5107,0.2837-0.7334,0.1216c-0.2231-0.1626-0.3076-0.4639-0.145-0.687c0.3955-0.543,1.3599-0.5435,1.7563,0
		c0.1611,0.2212,0.1104,0.5259-0.1094,0.6899C12.6982,8.3999,12.5947,8.4312,12.4912,8.4312z"/>
	<path d="M5.624,23.7207c-1.1069,0-1.2837-3.1729-1.2837-3.2051c0-0.708,0.5757-1.2842,1.2837-1.2842s1.2837,0.5762,1.2837,1.2842
		C6.9077,20.5479,6.731,23.7207,5.624,23.7207z M5.624,20.2314c-0.1562,0-0.2837,0.1279-0.2837,0.2842
		c0,0.291,0.1318,1.0938,0.2837,1.6758c0.1519-0.582,0.2837-1.3857,0.2837-1.6758C5.9077,20.3594,5.7803,20.2314,5.624,20.2314z"/>
	<path d="M18.4102,23.7207c-1.1064,0-1.2832-3.1729-1.2832-3.2051c0-0.708,0.5752-1.2842,1.2832-1.2842s1.2842,0.5762,1.2842,1.2842
		C19.6943,20.5479,19.5176,23.7207,18.4102,23.7207z M18.4102,20.2314c-0.1562,0-0.2832,0.1279-0.2832,0.2842
		c0,0.291,0.1318,1.0938,0.2832,1.6758c0.1523-0.582,0.2842-1.3848,0.2842-1.6758C18.6943,20.3594,18.5664,20.2314,18.4102,20.2314z
		"/>
	<path d="M12.0176,23.7207c-1.2051,0-1.4502-3.3477-1.4502-3.3818c0-0.7363,0.6504-1.335,1.4502-1.335
		c0.7988,0,1.4492,0.5986,1.4492,1.335C13.4668,20.373,13.2217,23.7207,12.0176,23.7207z M12.0176,20.0039
		c-0.2441,0-0.4502,0.1533-0.4502,0.335c0,0.374,0.2251,1.5098,0.4502,2.1035c0.2246-0.5938,0.4492-1.7295,0.4492-2.1035
		C12.4668,20.1572,12.2607,20.0039,12.0176,20.0039z"/>
	<path d="M12.0176,18.5713c-1.7529,0-2.0854-0.25-2.0854-0.71V8.2827c0-1.4355,0.8564-3.0347,2.0854-3.0347
		c1.2285,0,2.085,1.5991,2.085,3.0347v9.5786C14.1025,18.3213,13.7705,18.5713,12.0176,18.5713z M10.9321,17.5098
		c0.2212,0.0312,0.5869,0.0615,1.0854,0.0615c0.498,0,0.8633-0.0303,1.085-0.0615V8.2827c0-1.0767-0.6064-2.0347-1.085-2.0347
		s-1.0854,0.958-1.0854,2.0347V17.5098z"/>
</g>
<rect x="0.0172" y="0.0031" fill="none" width="24" height="24"/>
</svg>
