<?xml version="1.0" encoding="utf-8"?>
<!-- Generator: Adobe Illustrator 18.1.0, SVG Export Plug-In . SVG Version: 6.00 Build 0)  -->
<svg version="1.1" id="Layer_1" xmlns="http://www.w3.org/2000/svg" xmlns:xlink="http://www.w3.org/1999/xlink" x="0px" y="0px"
	 width="24px" height="24px" viewBox="0 0 24 24" enable-background="new 0 0 24 24" xml:space="preserve">
<g>
	<path d="M11.7534,21.5596c-0.3257,0-0.6753-0.1221-1.0693-0.375L5.0742,17H1.0859c-0.6299,0-1.1045-0.4521-1.1045-1.0518v-7.853
		C-0.0186,7.4912,0.4771,7,1.0859,7h3.8789l5.6943-4.1611c1.4385-0.9263,2.2705,0.0615,2.3213,1.0088l0.001,16.3057
		C12.9443,20.8447,12.5439,21.5596,11.7534,21.5596z M1.0859,8C1.0342,8,0.9814,8.0327,0.9814,8.0952v7.853
		C0.9814,15.9951,1.0547,16,1.0859,16h4.1543c0.1079,0,0.2129,0.0352,0.2988,0.0996l5.7139,4.2637
		c0.2769,0.1758,0.4434,0.1963,0.5005,0.1963c0.1836,0,0.2285-0.4326,0.229-0.4375L11.9814,3.876l0,0
		c-0.002,0-0.0508-0.4268-0.2349-0.4268c-0.0566,0-0.2207,0.021-0.5225,0.2144L5.4229,7.9038C5.3374,7.9663,5.2339,8,5.1279,8
		H1.0859z"/>
	<path d="M17.5234,17.2236c-0.1338,0-0.2666-0.0527-0.3652-0.1582c-0.1885-0.2012-0.1777-0.5176,0.0234-0.707
		c1.2188-1.1426,1.8906-2.6846,1.8906-4.3438c0-1.6597-0.6719-3.2026-1.8906-4.3447c-0.2012-0.1885-0.2119-0.5049-0.0234-0.7065
		c0.1895-0.2012,0.5059-0.2114,0.707-0.0229c1.4229,1.333,2.207,3.1353,2.207,5.0742c0,1.9385-0.7842,3.7402-2.207,5.0742
		C17.7686,17.1787,17.6465,17.2236,17.5234,17.2236z"/>
	<path d="M14.4268,14.9404c-0.1387,0-0.2773-0.0576-0.376-0.1699c-0.1816-0.208-0.1611-0.5234,0.0459-0.7061
		c0.5938-0.5205,0.9336-1.2676,0.9336-2.0498c0-0.7832-0.3398-1.5308-0.9336-2.0508c-0.207-0.1821-0.2275-0.498-0.0459-0.7056
		c0.1826-0.208,0.4971-0.2275,0.7061-0.0464c0.8096,0.71,1.2734,1.7314,1.2734,2.8027c0,1.0703-0.4639,2.0918-1.2734,2.8018
		C14.6611,14.8994,14.5439,14.9404,14.4268,14.9404z"/>
</g>
<rect x="-0.0137" y="0.0002" fill="none" width="24" height="24"/>
</svg>
