<?xml version="1.0" encoding="utf-8"?>
<!-- Generator: Adobe Illustrator 18.1.0, SVG Export Plug-In . SVG Version: 6.00 Build 0)  -->
<svg version="1.1" id="Layer_1" xmlns="http://www.w3.org/2000/svg" xmlns:xlink="http://www.w3.org/1999/xlink" x="0px" y="0px"
	 width="24px" height="24px" viewBox="0 0 24 24" enable-background="new 0 0 24 24" xml:space="preserve">
<g>
	<path d="M23.5,24.001h-15c-0.2764,0-0.5-0.2236-0.5-0.5v-16c0-0.2764,0.2236-0.5,0.5-0.5h12.1602
		c0.1328,0,0.2607,0.0532,0.3545,0.1479l2.8398,2.8613C23.9482,10.1035,24,10.2305,24,10.3623V23.501
		C24,23.7773,23.7764,24.001,23.5,24.001z M9,23.001h14V10.5684L20.4521,8.001H9V23.001z"/>
	<path d="M20,19.001h-8c-0.2764,0-0.5-0.2236-0.5-0.5s0.2236-0.5,0.5-0.5h8c0.2764,0,0.5,0.2236,0.5,0.5S20.2764,19.001,20,19.001z"
		/>
	<path d="M20,16.001h-8c-0.2764,0-0.5-0.2236-0.5-0.5s0.2236-0.5,0.5-0.5h8c0.2764,0,0.5,0.2236,0.5,0.5S20.2764,16.001,20,16.001z"
		/>
	<path d="M20,13.001h-8c-0.2764,0-0.5-0.2236-0.5-0.5s0.2236-0.5,0.5-0.5h8c0.2764,0,0.5,0.2236,0.5,0.5S20.2764,13.001,20,13.001z"
		/>
	<path d="M6.5,16.001H0.4995c-0.2764,0-0.5-0.2236-0.5-0.5V0.5005c0-0.2764,0.2236-0.5,0.5-0.5h12.1597
		c0.1328,0,0.2607,0.0532,0.3545,0.1479l2.8398,2.8613C15.9473,3.103,15.999,3.23,15.999,3.3618V5.501c0,0.2764-0.2236,0.5-0.5,0.5
		s-0.5-0.2236-0.5-0.5V3.5679l-2.5479-2.5674H0.9995V15.001H6.5c0.2764,0,0.5,0.2236,0.5,0.5S6.7764,16.001,6.5,16.001z"/>
	<path d="M5.999,11.0005H3.9995c-0.2764,0-0.5-0.2236-0.5-0.5s0.2236-0.5,0.5-0.5H5.999c0.2764,0,0.5,0.2236,0.5,0.5
		S6.2754,11.0005,5.999,11.0005z"/>
	<path d="M5.999,8.0005H3.9995c-0.2764,0-0.5-0.2236-0.5-0.5s0.2236-0.5,0.5-0.5H5.999c0.2764,0,0.5,0.2236,0.5,0.5
		S6.2754,8.0005,5.999,8.0005z"/>
	<path d="M11.9995,5.0005h-8c-0.2764,0-0.5-0.2236-0.5-0.5s0.2236-0.5,0.5-0.5h8c0.2759,0,0.5005,0.2236,0.5005,0.5
		S12.2754,5.0005,11.9995,5.0005z"/>
</g>
<rect y="0.0011" fill="none" width="24" height="24"/>
</svg>
