<?xml version="1.0" encoding="utf-8"?>
<!-- Generator: Adobe Illustrator 18.1.0, SVG Export Plug-In . SVG Version: 6.00 Build 0)  -->
<svg version="1.1" id="Layer_1" xmlns="http://www.w3.org/2000/svg" xmlns:xlink="http://www.w3.org/1999/xlink" x="0px" y="0px"
	 width="24px" height="24px" viewBox="0 0 24 24" enable-background="new 0 0 24 24" xml:space="preserve">
<g>
	<path d="M19.3271,24.0322H4.7446c-0.1567,0-0.3042-0.0732-0.3984-0.1982c-0.0947-0.125-0.1255-0.2861-0.083-0.4375l3.6455-12.9727
		c0.2295-0.812,0.9785-1.3789,1.8218-1.3789h4.6104c0.8428,0,1.5918,0.5664,1.8223,1.3779l3.6455,12.9736
		c0.042,0.1514,0.0117,0.3125-0.083,0.4375S19.4834,24.0322,19.3271,24.0322z M5.4043,23.0322H18.667l-3.4668-12.3379
		c-0.1084-0.3818-0.4619-0.6494-0.8594-0.6494H9.7305c-0.3979,0-0.751,0.2671-0.8594,0.6499L5.4043,23.0322z"/>
	<path d="M14.4189,10.0449H9.6523c-0.7925,0-1.5078-0.5005-1.7793-1.2451L7.0562,6.5576c-0.2417-0.6646-0.144-1.4067,0.2612-1.9858
		c0.4053-0.5786,1.0693-0.9243,1.7759-0.9243h0.6611c0.0625,0,0.1245,0.0117,0.1826,0.0347c1.2773,0.501,2.9204,0.5,4.1978,0
		c0.0586-0.0229,0.1201-0.0347,0.1826-0.0347h0.6602c0.707,0,1.3711,0.3457,1.7764,0.9248s0.5029,1.3213,0.2607,1.9854
		l-0.8164,2.2417C15.9258,9.5444,15.2109,10.0449,14.4189,10.0449z M9.0933,4.6475c-0.3862,0-0.7349,0.1816-0.9565,0.498
		C7.915,5.4624,7.8638,5.8521,7.9956,6.2153L8.8125,8.457c0.1284,0.3516,0.4658,0.5879,0.8398,0.5879h4.7666
		c0.374,0,0.7109-0.2363,0.8398-0.5884l0.8164-2.2412c0.1318-0.3633,0.0811-0.7529-0.1406-1.0693
		c-0.2217-0.3169-0.5703-0.4985-0.957-0.4985h-0.5674c-1.4629,0.5469-3.2856,0.5469-4.748,0H9.0933z"/>
	<path d="M9.5142,4.6475c-0.2764,0-0.5-0.2236-0.5-0.5V1.0342c0-0.2764,0.2236-0.5,0.5-0.5s0.5,0.2236,0.5,0.5v3.1133
		C10.0142,4.4238,9.7905,4.6475,9.5142,4.6475z"/>
	<path d="M14.5146,4.6475c-0.2764,0-0.5-0.2236-0.5-0.5V1.0342c0-0.2764,0.2236-0.5,0.5-0.5s0.5,0.2236,0.5,0.5v3.1133
		C15.0146,4.4238,14.791,4.6475,14.5146,4.6475z"/>
	<path d="M11.54,19.1025c-0.2764,0-0.5-0.2236-0.5-0.5v-3.0439c0-0.2764,0.2236-0.5,0.5-0.5s0.5,0.2236,0.5,0.5v3.0439
		C12.04,18.8789,11.8164,19.1025,11.54,19.1025z"/>
	<path d="M8.6738,21.585c-0.0254,0-0.0508-0.002-0.0767-0.0059c-0.2729-0.042-0.46-0.2979-0.418-0.5703l1.2441-8.0693
		c0.042-0.2725,0.2988-0.459,0.5703-0.418c0.2729,0.042,0.46,0.2979,0.418,0.5703l-1.2441,8.0693
		C9.1294,21.4082,8.9165,21.585,8.6738,21.585z"/>
</g>
<rect x="0.0142" y="0.0344" fill="none" width="24" height="24"/>
</svg>
