<?xml version="1.0" encoding="utf-8"?>
<!-- Generator: Adobe Illustrator 18.1.0, SVG Export Plug-In . SVG Version: 6.00 Build 0)  -->
<svg version="1.1" id="Layer_1" xmlns="http://www.w3.org/2000/svg" xmlns:xlink="http://www.w3.org/1999/xlink" x="0px" y="0px"
	 width="24px" height="24px" viewBox="0 0 24 24" enable-background="new 0 0 24 24" xml:space="preserve">
<g>
	<path d="M5.2202,16.8096c-0.0962,0-0.1914-0.0273-0.2744-0.082c-0.1436-0.0938-0.2285-0.2549-0.2256-0.4268
		c0.041-2.3018,1.4619-4.4302,2.3057-5.4937c0.1714-0.2163,0.4863-0.2534,0.7021-0.0811c0.2163,0.1714,0.2529,0.4858,0.0811,0.7021
		c-0.6592,0.8315-1.708,2.3726-2.0073,4.0679l1.8521-0.8418c0.2529-0.1152,0.5483-0.0039,0.6621,0.248
		c0.1143,0.252,0.0034,0.5479-0.248,0.6621l-2.6406,1.2002C5.3613,16.7949,5.2905,16.8096,5.2202,16.8096z"/>
	<path d="M18.751,16.8096c-0.0703,0-0.1406-0.0146-0.207-0.0449l-2.6416-1.2002c-0.251-0.1143-0.3623-0.4102-0.248-0.6621
		c0.1152-0.252,0.4111-0.3613,0.6621-0.248l1.8506,0.8408c-0.3252-1.8115-1.5107-3.4512-2.0596-4.1328
		c-0.1729-0.2148-0.1387-0.5298,0.0762-0.7026c0.2129-0.1733,0.5293-0.1406,0.7031,0.0757
		c0.8643,1.0728,2.3203,3.2217,2.3643,5.5645c0.0029,0.1719-0.082,0.333-0.2256,0.4277
		C18.9424,16.7822,18.8467,16.8096,18.751,16.8096z"/>
	<path d="M13.9092,16.0439h-3.8706c-0.4375,0-0.8047-0.3428-0.8359-0.7803l-1.0361-9.541C8.1631,4.6719,8.5562,3.3296,9.1655,2.25
		c0.7725-1.3682,1.77-2.1221,2.8081-2.1221c2.3271,0,3.8115,3.6235,3.8115,5.5186l-1.041,9.6357
		C14.7148,15.7012,14.3467,16.0439,13.9092,16.0439z M10.1841,15.0439h3.5806l1.0234-9.4512
		c-0.0029-1.4731-1.2754-4.4648-2.8135-4.4648c-0.6528,0-1.3589,0.5884-1.938,1.6138c-0.5225,0.9258-0.8735,2.1021-0.873,2.9268
		L10.1841,15.0439z"/>
	<path d="M11.9741,8.6724c-1.002,0-1.8169-0.8154-1.8169-1.8174s0.8149-1.8169,1.8169-1.8169c1.0015,0,1.8169,0.8149,1.8169,1.8169
		S12.9756,8.6724,11.9741,8.6724z M11.9741,6.0381c-0.4502,0-0.8169,0.3667-0.8169,0.8169c0,0.4507,0.3667,0.8174,0.8169,0.8174
		c0.4507,0,0.8169-0.3667,0.8169-0.8174C12.791,6.4048,12.4248,6.0381,11.9741,6.0381z"/>
	<path d="M11.9731,23.8945c-1.6719,0-2.1338-5.3809-2.1338-5.4355c0-0.7344,0.3374-1.2988,0.9497-1.5889
		c0.1289-0.0615,0.2803-0.0635,0.4116-0.0088c0.1318,0.0566,0.2329,0.168,0.2778,0.3047c0.2212,0.6748,0.4023,0.958,0.4956,1.0693
		c0.0933-0.1113,0.2739-0.3945,0.4937-1.0693c0.0449-0.1367,0.1465-0.2471,0.2783-0.3037c0.1328-0.0557,0.2812-0.0537,0.4121,0.0078
		c0.6123,0.291,0.9502,0.8555,0.9502,1.5898C14.1084,18.5146,13.6465,23.8945,11.9731,23.8945z M10.8486,18.2979
		c-0.0059,0.0488-0.0093,0.1025-0.0093,0.1611c0,1.0645,0.6484,3.8896,1.1343,4.3945c0.4863-0.5039,1.1348-3.3291,1.1348-4.3936
		c0-0.0586-0.0029-0.1133-0.0098-0.1621C12.4502,19.6572,11.5,19.6572,10.8486,18.2979z"/>
</g>
<rect x="-0.0137" y="0.0002" fill="none" width="24" height="24"/>
</svg>
