<?xml version="1.0" encoding="utf-8"?>
<!-- Generator: Adobe Illustrator 18.1.0, SVG Export Plug-In . SVG Version: 6.00 Build 0)  -->
<svg version="1.1" id="Layer_1" xmlns="http://www.w3.org/2000/svg" xmlns:xlink="http://www.w3.org/1999/xlink" x="0px" y="0px"
	 width="24px" height="24px" viewBox="0 0 24 24" enable-background="new 0 0 24 24" xml:space="preserve">
<g>
	<path d="M18.9346,7.9272c-0.1719,0-0.3389-0.0889-0.4316-0.2485c-0.1396-0.2383-0.0586-0.5444,0.1797-0.6836l3.2686-1.9043
		c0.376-0.2148,0.6436-0.5601,0.7568-0.9736c0.1133-0.4141,0.0576-0.8467-0.1553-1.2192c-0.2119-0.3721-0.5576-0.6387-0.9717-0.752
		c-0.415-0.1123-0.8467-0.0576-1.2188,0.1553L17.084,4.1885c-0.2383,0.1372-0.5449,0.0562-0.6826-0.1836
		c-0.1377-0.2393-0.0557-0.5449,0.1846-0.6826l3.2793-1.8882c0.6045-0.3472,1.3096-0.4365,1.9785-0.2524
		c0.6719,0.1826,1.2324,0.6162,1.5771,1.2197c0.3457,0.605,0.4355,1.3076,0.252,1.979c-0.1836,0.6719-0.6172,1.2314-1.2217,1.5767
		l-3.2646,1.9023C19.1074,7.9053,19.0205,7.9272,18.9346,7.9272z"/>
	<path d="M19.4141,8.7676c-0.1729,0-0.3418-0.0903-0.4346-0.252l-3.0732-5.3779c-0.1367-0.2397-0.0537-0.5449,0.1865-0.6821
		c0.2363-0.1377,0.5439-0.0552,0.6826,0.186l3.0732,5.3779c0.1367,0.2397,0.0537,0.5449-0.1865,0.6821
		C19.584,8.7466,19.499,8.7676,19.4141,8.7676z"/>
	<path d="M2.5864,22.8887c-1.2979,0-2.3535-1.0557-2.3535-2.3535c0-0.6074,1.6523-4.4463,2.3535-4.4463s2.354,3.8389,2.354,4.4463
		C4.9404,21.833,3.8843,22.8887,2.5864,22.8887z M2.5869,17.5244c-0.5312,0.9053-1.354,2.4609-1.354,3.0107
		c0,0.7461,0.6074,1.3535,1.3535,1.3535c0.7466,0,1.354-0.6074,1.354-1.3535C3.9404,19.9844,3.1177,18.4297,2.5869,17.5244z"/>
	<path d="M3.248,15.0703c-0.1743,0-0.3428-0.0918-0.4341-0.252L2.2031,13.75c-0.1255-0.2197-0.0674-0.499,0.1362-0.6494
		l4.041-2.9966l9.3745-5.2939C15.9941,4.6743,16.2998,4.7573,16.4365,5c0.1357,0.2402,0.0508,0.5454-0.1895,0.6812l-9.3232,5.2603
		l-3.6323,2.6973l0.1704,0.2979l4.2231-1.7881l9.2671-5.2158c0.2393-0.1343,0.5459-0.0493,0.6807,0.1909
		c0.1357,0.2407,0.0498,0.5454-0.1904,0.6812L8.125,13.0439l-4.6821,1.9863C3.3799,15.0576,3.3135,15.0703,3.248,15.0703z"/>
</g>
<rect y="-0.0001" fill="none" width="24" height="24"/>
</svg>
