<?xml version="1.0" encoding="utf-8"?>
<!-- Generator: Adobe Illustrator 18.1.0, SVG Export Plug-In . SVG Version: 6.00 Build 0)  -->
<svg version="1.1" id="Layer_1" xmlns="http://www.w3.org/2000/svg" xmlns:xlink="http://www.w3.org/1999/xlink" x="0px" y="0px"
	 width="24px" height="24px" viewBox="0 0 24 24" enable-background="new 0 0 24 24" xml:space="preserve">
<g>
	<path d="M8.8682,11.1294c-1.9331,0-3.4473-2.377-3.4473-5.4116s1.5142-5.4116,3.4473-5.4116c2.0464,0,3.2695,2.9868,3.2695,5.874
		C12.1377,9.1406,10.8237,11.1294,8.8682,11.1294z M8.8682,1.3062c-1.3267,0-2.4473,2.0205-2.4473,4.4116
		s1.1206,4.4116,2.4473,4.4116c1.3574,0,2.2695-1.5869,2.2695-3.9492C11.1377,3.5835,10.0771,1.3062,8.8682,1.3062z"/>
	<path d="M15.209,10.9194c-1.04,0-2.2803-0.9204-2.2803-5.3066s1.2402-5.3066,2.2803-5.3066c1.6133,0,2.8291,2.2812,2.8291,5.3066
		S16.8223,10.9194,15.209,10.9194z M15.209,1.3062c-0.7773,0-1.2803,1.6904-1.2803,4.3066s0.5029,4.3066,1.2803,4.3066
		c0.8652,0,1.8291-1.7686,1.8291-4.3066S16.0742,1.3062,15.209,1.3062z"/>
	<path d="M19.8486,16.6768c-0.5361,0-1.0361-0.3369-1.4834-1.001c-1.7988-2.666-2.1543-4.2886,0.4893-6.8579
		c0.0859-0.1006,1.1123-1.2437,2.1064-1.2437c0.6045,0,1.3564,0.3721,1.5078,2.146c0.207,2.4019-0.4648,5.27-1.4961,6.394
		C20.6299,16.4873,20.252,16.6768,19.8486,16.6768z M20.9609,8.5742c-0.3877,0-1.0537,0.5557-1.3809,0.9312
		c-2.0771,2.02-2.1406,3.0112-0.3867,5.6118c0.2402,0.3555,0.4795,0.5596,0.6553,0.5596c0.1387,0,0.2871-0.1299,0.3877-0.2383
		c0.8232-0.8975,1.4121-3.582,1.2363-5.6328C21.4482,9.5166,21.3379,8.5742,20.9609,8.5742z"/>
	<path d="M4.0386,16.5098c-0.6274,0-1.209-0.2822-1.6807-0.8164c-0.9912-1.1211-1.3828-3.1982-1.0742-5.6987
		c0.0522-0.2856,0.5122-2.5186,1.978-2.5186c0.4922,0,1.002,0.2686,1.5151,0.7988c2.647,2.7339,3.0972,5.3862,1.2349,7.2769
		C5.3945,16.1787,4.7124,16.5098,4.0386,16.5098z M3.2617,8.4761c-0.479,0-0.8813,1.0884-0.9902,1.6714
		c-0.2646,2.1533,0.0459,3.9912,0.8354,4.8838c0.6138,0.6943,1.4102,0.6143,2.1919-0.1807
		c1.9536-1.9834,0.0615-4.5356-1.2407-5.8804C3.7495,8.6514,3.4668,8.4761,3.2617,8.4761z"/>
	<path d="M16.6699,23.7812c-0.6406,0-1.0586-0.4238-1.501-0.8721c-0.3066-0.3105-0.6543-0.6621-1.1455-0.9639
		c-1.3447-0.8252-2.8599-0.791-4.3687,0.1016c-1.2256,0.7266-2.1953,1.2109-2.9429,1.2109c-0.603,0-1.0503-0.3135-1.2603-0.8818
		c-0.4941-1.3428-0.6821-3.2148,3.3755-8.4727c0.0488-0.0654,1.3608-1.8125,3.2363-1.8125c1.1855,0,2.2871,0.6836,3.2764,2.0322
		c2.3105,3.1523,4.0488,5.71,3.6797,7.5674c-0.1416,0.7168-0.5869,1.3076-1.3223,1.7539
		C17.3252,23.6709,16.9893,23.7812,16.6699,23.7812z M11.9858,20.3477c0.8931,0,1.7544,0.251,2.561,0.7461
		c0.5938,0.3643,1.0039,0.7793,1.333,1.1133c0.5811,0.5879,0.7461,0.7188,1.2979,0.3828c0.5-0.3037,0.7734-0.6514,0.8613-1.0947
		c0.2891-1.4541-1.417-3.9316-3.5059-6.7803c-0.79-1.0771-1.6211-1.624-2.4697-1.624c-1.377,0-2.4277,1.4014-2.438,1.415
		c-4.0659,5.2686-3.5259,6.7363-3.2354,7.5244c0.0649,0.1758,0.1372,0.2275,0.3218,0.2275c0.5522,0,1.54-0.541,2.4331-1.0703
		C10.085,20.6299,11.0405,20.3477,11.9858,20.3477z"/>
</g>
<rect x="0.0142" y="0.0354" fill="none" width="24" height="24"/>
</svg>
