<?xml version="1.0" encoding="utf-8"?>
<!-- Generator: Adobe Illustrator 18.1.0, SVG Export Plug-In . SVG Version: 6.00 Build 0)  -->
<svg version="1.1" id="Layer_1" xmlns="http://www.w3.org/2000/svg" xmlns:xlink="http://www.w3.org/1999/xlink" x="0px" y="0px"
	 width="24px" height="24px" viewBox="0 0 24 24" enable-background="new 0 0 24 24" xml:space="preserve">
<g>
	<path d="M12.3809,9.248c-0.0098,0-0.0205-0.0005-0.0312-0.001C9.9619,9.0967,8.0918,7.1235,8.0918,4.7549
		c0-2.4819,2.019-4.501,4.501-4.501c2.4814,0,4.501,2.019,4.501,4.501c0,1.0127-0.3418,2.0361-0.9375,2.8071
		c-0.1689,0.2197-0.4834,0.2578-0.7012,0.0898c-0.2188-0.1685-0.2588-0.4829-0.0898-0.7012
		c0.4629-0.5996,0.7285-1.3999,0.7285-2.1958c0-1.9307-1.5703-3.501-3.501-3.501s-3.501,1.5703-3.501,3.501
		c0,1.8418,1.4585,3.377,3.3203,3.4941c0.2754,0.0176,0.4854,0.2549,0.4678,0.5303C12.8633,9.0444,12.6436,9.248,12.3809,9.248z"/>
	<path d="M15.5039,15.75c-2.4814,0-4.501-2.0195-4.501-4.501c0-2.4819,2.0195-4.5015,4.501-4.5015s4.501,2.0195,4.501,4.5015
		C20.0049,13.7305,17.9854,15.75,15.5039,15.75z M15.5039,7.7476c-1.9307,0-3.501,1.5708-3.501,3.5015s1.5703,3.501,3.501,3.501
		s3.501-1.5703,3.501-3.501S17.4346,7.7476,15.5039,7.7476z"/>
	<g>
		<path d="M16.1826,22.2227c-0.1748,0-0.3525-0.0264-0.5312-0.0791l-5.8101-1.7051c-0.2651-0.0771-0.417-0.3555-0.3394-0.6201
			c0.0781-0.2646,0.3555-0.415,0.6206-0.3389l5.8101,1.7051c0.2256,0.0635,0.4229,0.0469,0.5869-0.0557
			c0.1494-0.0947,0.2676-0.2598,0.3242-0.4531c0.0967-0.332,0.0264-0.7734-0.4941-0.9268l-5.5308-1.623
			c-0.7676-0.2246-3.4888-0.4072-6.1821,0.0293c-0.2788,0.0469-0.5293-0.1416-0.5737-0.4131
			c-0.0439-0.2725,0.1411-0.5293,0.4136-0.5732c2.7842-0.4531,5.6357-0.292,6.6235-0.002l5.5308,1.623
			c1.0928,0.3203,1.417,1.333,1.1719,2.167c-0.126,0.4297-0.3916,0.791-0.748,1.0166
			C16.7939,22.1387,16.4951,22.2227,16.1826,22.2227z"/>
		<path d="M14.3184,23.7734c-1.8848,0-4.4419-0.3896-7.1001-1.5781c-0.4897-0.2158-1.499,0.0576-2.1665,0.2402l-0.3706,0.0996
			c-0.2656,0.0703-0.5396-0.0908-0.6089-0.3604c-0.0688-0.2676,0.0928-0.54,0.3599-0.6084l0.3555-0.0957
			c0.9004-0.2461,2.0215-0.5537,2.8389-0.1875c4.4028,1.9678,8.1694,1.5508,8.9712,1.1855l5.8516-2.668
			c0.2627-0.1201,0.4092-0.3096,0.4336-0.5635c0.0264-0.2812-0.1123-0.5898-0.3379-0.751c-0.21-0.1504-0.4619-0.1611-0.749-0.0283
			l-4.3086,1.9639c-0.2471,0.1133-0.5469,0.0049-0.6621-0.248c-0.1143-0.251-0.0039-0.5479,0.248-0.6621l4.3086-1.9639
			c0.6084-0.2773,1.2441-0.2324,1.7432,0.124c0.5186,0.3701,0.8145,1.0225,0.7529,1.6611
			c-0.0586,0.6084-0.4287,1.1104-1.0146,1.3779l-5.8516,2.668C16.5205,23.6025,15.5664,23.7734,14.3184,23.7734z"/>
		<path d="M4.5376,24h-4c-0.2764,0-0.5-0.2236-0.5-0.5v-7c0-0.2764,0.2236-0.5,0.5-0.5h4c0.2764,0,0.5,0.2236,0.5,0.5v7
			C5.0376,23.7764,4.814,24,4.5376,24z M1.0376,23h3v-6h-3V23z"/>
	</g>
	<path d="M15.4785,13.873c-0.5352,0-1.2412-0.2881-1.7158-0.7012c-0.208-0.1807-0.2305-0.4961-0.0488-0.7051
		c0.1807-0.207,0.4961-0.2314,0.7051-0.0488c0.2891,0.251,0.7646,0.4551,1.0596,0.4551c0.3926,0,0.7236-0.2607,0.7236-0.5703
		c0-0.083,0-0.3369-0.8643-0.5898c-0.4805-0.1504-1.584-0.4966-1.584-1.5498c0-0.8657,0.7734-1.5698,1.7246-1.5698
		c0.6045,0,1.1719,0.2935,1.4814,0.7661c0.1504,0.231,0.0859,0.541-0.1455,0.6919c-0.2285,0.1509-0.54,0.0869-0.6924-0.145
		c-0.126-0.1929-0.373-0.313-0.6436-0.313c-0.3926,0-0.7246,0.2607-0.7246,0.5698c0,0.1655,0.1055,0.3521,0.874,0.5928
		c0.3828,0.1118,1.5742,0.4609,1.5742,1.5469C17.2021,13.1689,16.4287,13.873,15.4785,13.873z"/>
	<path d="M15.4785,9.5928c-0.2764,0-0.5-0.2236-0.5-0.5V8.5083c0-0.2764,0.2236-0.5,0.5-0.5s0.5,0.2236,0.5,0.5v0.5845
		C15.9785,9.3691,15.7549,9.5928,15.4785,9.5928z"/>
	<path d="M15.4785,14.458c-0.2764,0-0.5-0.2236-0.5-0.5v-0.585c0-0.2764,0.2236-0.5,0.5-0.5s0.5,0.2236,0.5,0.5v0.585
		C15.9785,14.2344,15.7549,14.458,15.4785,14.458z"/>
	<path d="M12.6387,7.0903c-0.4756,0-1.0996-0.2544-1.5181-0.6187c-0.208-0.1812-0.23-0.4971-0.0483-0.7051
		c0.1816-0.209,0.498-0.229,0.7056-0.0488c0.2642,0.23,0.6528,0.3726,0.8608,0.3726c0.2979,0,0.5488-0.1914,0.5488-0.4175
		c0-0.1948-0.375-0.3457-0.6895-0.4375c-0.4277-0.1338-1.4087-0.4404-1.4087-1.397c0-0.7817,0.6948-1.4175,1.5493-1.4175
		c0.542,0,1.0518,0.2642,1.3301,0.689c0.1504,0.231,0.0859,0.541-0.1455,0.6919c-0.2285,0.1504-0.54,0.0874-0.6924-0.145
		c-0.0938-0.1431-0.2871-0.2358-0.4922-0.2358c-0.2979,0-0.5488,0.1914-0.5488,0.4175c0,0.0664,0,0.2212,0.6982,0.4399
		c0.3398,0.0991,1.3994,0.4097,1.3994,1.3945C14.1875,6.4546,13.4932,7.0903,12.6387,7.0903z"/>
	<path d="M12.6387,3.4209c-0.2764,0-0.5-0.2236-0.5-0.5v-0.501c0-0.2764,0.2236-0.5,0.5-0.5s0.5,0.2236,0.5,0.5v0.501
		C13.1387,3.1973,12.915,3.4209,12.6387,3.4209z"/>
	<path d="M12.6387,7.5918c-0.2764,0-0.5-0.2236-0.5-0.5V6.5903c0-0.2764,0.2236-0.5,0.5-0.5s0.5,0.2236,0.5,0.5v0.5015
		C13.1387,7.3682,12.915,7.5918,12.6387,7.5918z"/>
</g>
<rect x="-0.0136" fill="none" width="24" height="24"/>
</svg>
