<?xml version="1.0" encoding="utf-8"?>
<!-- Generator: Adobe Illustrator 18.1.0, SVG Export Plug-In . SVG Version: 6.00 Build 0)  -->
<svg version="1.1" id="Layer_1" xmlns="http://www.w3.org/2000/svg" xmlns:xlink="http://www.w3.org/1999/xlink" x="0px" y="0px"
	 width="24px" height="24px" viewBox="0 0 24 24" enable-background="new 0 0 24 24" xml:space="preserve">
<g>
	<path d="M11.9722,23.9727c-0.0005,0-0.0215,0-0.0225,0c-2.8262-0.0098-4.9482-2.0166-5.1597-4.8799l-0.2432-8.3965
		c0.0103-2.7075,2.4546-4.8965,5.4482-4.8965c1.4668,0.0054,2.8262,0.5127,3.8496,1.4287c1.04,0.9312,1.6104,2.1709,1.6055,3.4917
		l-0.3018,8.3872C16.8789,22.0293,14.7998,23.9727,11.9722,23.9727z M12.0127,6.7998c-2.4619,0-4.4575,1.7422-4.4658,3.8838
		l0.2417,8.3574c0.1436,1.9385,1.4878,3.9219,4.165,3.9316l0.0186,0.5v-0.5c2.3179,0,3.9585-1.542,4.1782-3.9287l0.2998-8.3438
		c0.0039-1.0146-0.4482-1.9888-1.2725-2.7266C14.3369,7.2212,13.2129,6.8042,12.0127,6.7998z"/>
	<path d="M13.9443,4.8071c-0.1338,0-0.2666-0.0532-0.3652-0.1582c-0.833-0.8896-2.3364-0.8916-3.1699,0
		c-0.1899,0.2012-0.5054,0.2109-0.707,0.0234c-0.2017-0.189-0.2119-0.5054-0.0234-0.707c1.2158-1.2979,3.415-1.2988,4.6309,0
		c0.1885,0.2017,0.1777,0.5181-0.0234,0.7065C14.1895,4.7622,14.0674,4.8071,13.9443,4.8071z"/>
	<path d="M7.7681,2.8618c-0.1245,0-0.249-0.0459-0.3457-0.1387c-0.1997-0.1909-0.2065-0.5073-0.0156-0.707
		c1.2124-1.2666,2.8418-1.9644,4.5869-1.9644l0,0c1.7456,0,3.3745,0.6978,4.5874,1.9644c0.1904,0.1997,0.1836,0.5161-0.0156,0.707
		c-0.1992,0.1919-0.5166,0.1836-0.707-0.0156c-1.0215-1.0679-2.3945-1.6558-3.8647-1.6558c-1.4697,0-2.8423,0.5879-3.8643,1.6558
		C8.0312,2.8101,7.8994,2.8618,7.7681,2.8618z"/>
	<path d="M12.0049,12.3125c-0.2764,0-0.5-0.2236-0.5-0.4995V8.9976c0-0.2764,0.2236-0.5,0.5-0.5s0.5,0.2236,0.5,0.5v2.8154
		C12.5049,12.0889,12.2812,12.3125,12.0049,12.3125z"/>
</g>
<rect fill="none" width="24" height="24"/>
</svg>
