<?xml version="1.0" encoding="utf-8"?>
<!-- Generator: Adobe Illustrator 18.1.0, SVG Export Plug-In . SVG Version: 6.00 Build 0)  -->
<svg version="1.1" id="Layer_1" xmlns="http://www.w3.org/2000/svg" xmlns:xlink="http://www.w3.org/1999/xlink" x="0px" y="0px"
	 width="24px" height="24px" viewBox="0 0 24 24" enable-background="new 0 0 24 24" xml:space="preserve">
<g>
	<path d="M4.1665,23.8516c-1.0469,0-2.0317-0.4082-2.7734-1.1494c-0.7397-0.7393-1.147-1.7246-1.147-2.7725
		c-0.0005-1.0488,0.4072-2.0332,1.147-2.7725l9.0068-7.8477c-0.2632-1.4731-0.5176-4.4741,1.2739-6.2646
		c1.5596-1.5605,3.8164-2.2417,5.9805-1.8154c0.29,0.0571,0.5234,0.2681,0.6104,0.5513c0.0869,0.2837,0.0107,0.5898-0.1982,0.7998
		l-2.5195,2.519l-0.4414,2.1279l1.7627,1.7612l2.1279-0.4404l2.5186-2.5186c0.4268-0.4243,1.2363-0.1699,1.3516,0.4106
		c0.4307,2.1787-0.248,4.4146-1.8154,5.9814c-0.958,0.958-2.4268,1.4648-4.248,1.4648l0,0c-0.6523,0-1.3301-0.0635-2.0176-0.1895
		l-7.8086,8.9648C6.2031,23.4385,5.2134,23.8516,4.1665,23.8516z M16.3564,2.1025c-1.5,0-2.9121,0.5859-3.9756,1.6494
		c-1.6187,1.6182-1.1333,4.7305-0.9463,5.646c0.0361,0.1763-0.0254,0.3589-0.1611,0.4771l-9.1982,8.0127
		c-0.5259,0.5273-0.8291,1.2607-0.8291,2.042s0.3032,1.5146,0.854,2.0654c1.1055,1.1055,3.0229,1.1084,4.146-0.0146l7.9746-9.1572
		c0.1182-0.1357,0.2979-0.2021,0.4785-0.1611c0.71,0.1465,1.4375,0.2246,2.1035,0.2246l0,0c1.0811,0,2.5723-0.2041,3.541-1.1719
		c1.2402-1.2402,1.8252-2.9746,1.6035-4.7031l-2.3496,2.3496c-0.0693,0.0688-0.1562,0.1162-0.252,0.1362l-2.5391,0.5254
		c-0.1699,0.0347-0.3359-0.0176-0.4551-0.1362L14.208,7.7437c-0.1191-0.1191-0.1699-0.29-0.1357-0.4551L14.5986,4.75
		c0.0195-0.0952,0.0664-0.1831,0.1357-0.252l2.3486-2.3486C16.8418,2.1182,16.5986,2.1025,16.3564,2.1025z"/>
	<path d="M4.2783,21.0137c-0.3198,0-0.6206-0.124-0.8467-0.3506c-0.4648-0.4658-0.4648-1.2246,0-1.6904
		c0.4492-0.4521,1.2402-0.4531,1.6919-0.001c0.4663,0.4678,0.4658,1.2256,0.0005,1.6914
		C4.8984,20.8896,4.5977,21.0137,4.2783,21.0137z M4.2783,19.6211c-0.0308,0-0.0894,0.0078-0.1396,0.0576
		c-0.0752,0.0762-0.0757,0.2012,0.001,0.2773c0.0996,0.1016,0.1768,0.1006,0.2773,0.001c0.0762-0.0771,0.0762-0.2021-0.0005-0.2793
		C4.3672,19.6289,4.3086,19.6211,4.2783,19.6211z"/>
</g>
<rect fill="none" width="24" height="24"/>
</svg>
