<?xml version="1.0" encoding="utf-8"?>
<!-- Generator: Adobe Illustrator 18.1.0, SVG Export Plug-In . SVG Version: 6.00 Build 0)  -->
<svg version="1.1" id="Layer_1" xmlns="http://www.w3.org/2000/svg" xmlns:xlink="http://www.w3.org/1999/xlink" x="0px" y="0px"
	 width="24px" height="24px" viewBox="0 0 24 24" enable-background="new 0 0 24 24" xml:space="preserve">
<g>
	<path d="M20.418,18.9307H6.1406c-0.3638,0-0.7046-0.1621-0.9346-0.4434c-0.2295-0.2812-0.3193-0.6455-0.2466-1l0.5347-1.9072
		L3.4482,6.6138c-0.0615-0.2695,0.1069-0.5376,0.376-0.5986c0.2661-0.0654,0.5371,0.1064,0.5986,0.376l2.0747,9.0923
		c0.0176,0.0771,0.0166,0.1562-0.0024,0.2324l-0.5645,2.0068c-0.0083,0.0459,0.0273,0.1045,0.0498,0.1318
		c0.0234,0.0283,0.0747,0.0762,0.1602,0.0762H20.418c0.2764,0,0.5,0.2236,0.5,0.5S20.6943,18.9307,20.418,18.9307z"/>
	<path d="M22.9102,7.0024H3.9355c-0.1509,0-0.2939-0.0684-0.3887-0.1855C3.4517,6.6997,3.415,6.5454,3.4468,6.3979l0.4614-2.1621
		C3.8506,4.1187,3.7285,4.04,3.5928,4.04H0.6289c-0.2764,0-0.5-0.2236-0.5-0.5s0.2236-0.5,0.5-0.5h2.9639
		c0.6338,0,1.1895,0.4487,1.3208,1.0664c0.0151,0.0688,0.0151,0.1401,0,0.209l-0.3599,1.687h18.3564c0.2764,0,0.5,0.2236,0.5,0.5
		S23.1865,7.0024,22.9102,7.0024z"/>
	<path d="M6.0098,16.0938c-0.252,0-0.4688-0.1904-0.4966-0.4463c-0.0298-0.2744,0.1689-0.5215,0.4434-0.5508l14.1948-1.5352
		c0.2178-0.0029,0.3584-0.1143,0.3965-0.2725l2.3135-8.5039c0.0723-0.2656,0.3467-0.4243,0.6133-0.3511
		c0.2666,0.0723,0.4238,0.3472,0.3516,0.6138l-2.3096,8.4873c-0.1406,0.5967-0.6816,1.0234-1.3115,1.0234L6.064,16.0908
		C6.0459,16.0928,6.0278,16.0938,6.0098,16.0938z"/>
	<path d="M6.9775,23.9238c-1.1118,0-2.0166-0.9014-2.0166-2.0098s0.9048-2.0098,2.0166-2.0098s2.0161,0.9014,2.0161,2.0098
		S8.0894,23.9238,6.9775,23.9238z M6.9775,20.9043c-0.5605,0-1.0166,0.4531-1.0166,1.0098s0.4561,1.0098,1.0166,1.0098
		c0.5601,0,1.0161-0.4531,1.0161-1.0098S7.5376,20.9043,6.9775,20.9043z"/>
	<path d="M18.9014,23.9238c-1.1113,0-2.0156-0.9014-2.0156-2.0098s0.9043-2.0098,2.0156-2.0098
		c1.1123,0,2.0166,0.9014,2.0166,2.0098S20.0137,23.9238,18.9014,23.9238z M18.9014,20.9043c-0.5596,0-1.0156,0.4531-1.0156,1.0098
		s0.4561,1.0098,1.0156,1.0098c0.5605,0,1.0166-0.4531,1.0166-1.0098S19.4619,20.9043,18.9014,20.9043z"/>
</g>
<rect x="-0.0137" y="0.0001" fill="none" width="24" height="24"/>
</svg>
