<?xml version="1.0" encoding="utf-8"?>
<!-- Generator: Adobe Illustrator 18.1.0, SVG Export Plug-In . SVG Version: 6.00 Build 0)  -->
<svg version="1.1" id="Layer_1" xmlns="http://www.w3.org/2000/svg" xmlns:xlink="http://www.w3.org/1999/xlink" x="0px" y="0px"
	 width="24px" height="24px" viewBox="0 0 24 24" enable-background="new 0 0 24 24" xml:space="preserve">
<g>
	<path d="M12.0283,22.8076c-0.1279,0-0.2559-0.0488-0.3535-0.1465l-9.623-9.623c-1.1963-1.1958-1.855-2.7861-1.855-4.4775
		s0.6587-3.2812,1.855-4.4775c1.1958-1.1963,2.7861-1.855,4.4775-1.855s3.2812,0.6587,4.4775,1.855l1.0215,1.021l1.0215-1.021
		c1.1953-1.1963,2.7861-1.855,4.4775-1.855s3.2812,0.6587,4.4775,1.855c2.4688,2.4692,2.4688,6.4863,0,8.9551l-9.623,9.623
		C12.2842,22.7588,12.1562,22.8076,12.0283,22.8076z M6.5293,3.228c-1.4243,0-2.7637,0.5547-3.7705,1.562
		c-1.0073,1.0073-1.562,2.3462-1.562,3.7705s0.5547,2.7637,1.562,3.7705l9.2695,9.2695l9.2695-9.2695
		c2.0791-2.0786,2.0791-5.4619,0-7.541c-1.0078-1.0073-2.3467-1.562-3.7705-1.562c-1.4248,0-2.7637,0.5547-3.7705,1.562
		l-1.375,1.3745c-0.1953,0.1953-0.5117,0.1953-0.707,0L10.2998,4.79C9.2925,3.7827,7.9536,3.228,6.5293,3.228z"/>
</g>
<rect x="0.0293" y="-0.0001" fill="none" width="24" height="24"/>
</svg>
