<?xml version="1.0" encoding="utf-8"?>
<!-- Generator: Adobe Illustrator 18.1.0, SVG Export Plug-In . SVG Version: 6.00 Build 0)  -->
<svg version="1.1" id="Layer_1" xmlns="http://www.w3.org/2000/svg" xmlns:xlink="http://www.w3.org/1999/xlink" x="0px" y="0px"
	 width="24px" height="24px" viewBox="0 0 24 24" enable-background="new 0 0 24 24" xml:space="preserve">
<g>
	<path d="M17.3857,22.5986c-0.0127,0-0.0264-0.001-0.0391-0.002L0.4565,21.2705c-0.2603-0.0195-0.4609-0.2373-0.4609-0.498V6.7764
		c0-0.1377,0.0566-0.269,0.1567-0.3638c0.1006-0.0942,0.2329-0.1411,0.3721-0.1353l16.8906,0.98
		c0.2637,0.0151,0.4707,0.2344,0.4707,0.499v14.3423c0,0.1396-0.0586,0.2725-0.1602,0.3672
		C17.6328,22.5518,17.5107,22.5986,17.3857,22.5986z M0.9956,20.3105l15.8901,1.2471V8.228L0.9956,7.3062V20.3105z"/>
	<path d="M17.1699,6.3252c-0.0098,0-0.0195-0.0005-0.0293-0.001L5.4639,5.6465C5.188,5.6309,4.9775,5.394,4.9937,5.1187
		c0.0156-0.2759,0.2476-0.4902,0.5278-0.4702l11.6777,0.6777c0.2754,0.0156,0.4863,0.2524,0.4697,0.5278
		C17.6533,6.1201,17.4336,6.3252,17.1699,6.3252z"/>
	<path d="M19.4658,4.687c-0.0098,0-0.0195-0.0005-0.0293-0.001L7.7593,4.0083C7.4834,3.9927,7.2729,3.7559,7.2891,3.4805
		c0.0156-0.2764,0.2544-0.4868,0.5278-0.4702L19.4951,3.688c0.2754,0.0156,0.4863,0.2524,0.4697,0.5278
		C19.9492,4.4819,19.7295,4.687,19.4658,4.687z"/>
	<path d="M17.3857,22.5986c-0.0625,0-0.126-0.0117-0.1865-0.0361c-0.1895-0.0762-0.3135-0.2598-0.3135-0.4639V7.7563
		c0-0.146,0.0635-0.2847,0.1748-0.3799l6.0898-5.2129c0.1484-0.1279,0.3574-0.1562,0.5342-0.0742
		c0.1777,0.0815,0.291,0.2588,0.291,0.4541V15.748c0,0.1289-0.0498,0.2529-0.1387,0.3457l-6.0898,6.3506
		C17.6504,22.5449,17.5195,22.5986,17.3857,22.5986z M17.8857,7.9863v12.8682l5.0898-5.3076V3.6294L17.8857,7.9863z"/>
	<path d="M0.4961,7.2764c-0.1631,0-0.3228-0.0796-0.4185-0.2256c-0.1514-0.231-0.0874-0.541,0.1436-0.6924l7.4189-4.8662
		c0.0874-0.0571,0.1934-0.085,0.2949-0.0815l15.561,0.6333c0.2754,0.0112,0.4902,0.2441,0.4795,0.52
		c-0.0117,0.2759-0.2471,0.5054-0.5205,0.479L8.0547,2.4165L0.77,7.1943C0.6851,7.25,0.5903,7.2764,0.4961,7.2764z"/>
	<path d="M11.3135,12.7305c-0.0107,0-0.0767-0.002-0.0874-0.0029l-5.1738-0.3252c-0.7544-0.0479-1.3291-0.7002-1.2817-1.4536
		C4.8159,10.229,5.4155,9.665,6.1353,9.665l5.2627,0.3281c0.3652,0.0225,0.6997,0.1865,0.9419,0.4609s0.3633,0.627,0.3398,0.9922
		C12.6338,12.166,12.0342,12.7305,11.3135,12.7305z M6.1592,10.666c-0.2183,0-0.3784,0.1519-0.3906,0.3462
		c-0.0127,0.2031,0.1426,0.3794,0.3472,0.3926l5.1733,0.3247l0.0244,0.501v-0.5c0.1943,0,0.356-0.1523,0.3682-0.3472
		c0.0063-0.0986-0.0264-0.1938-0.0918-0.2676c-0.0654-0.0742-0.1558-0.1182-0.2539-0.1245L6.1611,10.666
		C6.1602,10.666,6.1597,10.666,6.1592,10.666z"/>
</g>
<rect x="-0.0136" fill="none" width="24" height="24"/>
</svg>
