<?xml version="1.0" encoding="utf-8"?>
<!-- Generator: Adobe Illustrator 18.1.0, SVG Export Plug-In . SVG Version: 6.00 Build 0)  -->
<svg version="1.1" id="Layer_1" xmlns="http://www.w3.org/2000/svg" xmlns:xlink="http://www.w3.org/1999/xlink" x="0px" y="0px"
	 width="24px" height="24px" viewBox="0 0 24 24" enable-background="new 0 0 24 24" xml:space="preserve">
<g>
	<path d="M19.2314,21H2.7031c-1.5234,0-2.7168-1.1621-2.7168-2.6465V6.7402C-0.0137,5.2295,1.2051,4,2.7031,4h11.752
		c0.2764,0,0.5,0.2236,0.5,0.5s-0.2236,0.5-0.5,0.5H2.7031C1.7563,5,0.9863,5.7808,0.9863,6.7402v11.6133
		C0.9863,19.2764,1.7402,20,2.7031,20h16.5283c0.9844,0,1.7549-0.7236,1.7549-1.6465V12.5c0-0.2764,0.2236-0.5,0.5-0.5
		s0.5,0.2236,0.5,0.5v5.8535C21.9863,19.8125,20.75,21,19.2314,21z"/>
	<path d="M3.4863,18c-0.2764,0-0.5-0.2236-0.5-0.5v-3c0-0.2764,0.2236-0.5,0.5-0.5s0.5,0.2236,0.5,0.5v3
		C3.9863,17.7764,3.7627,18,3.4863,18z"/>
	<path d="M17.4863,18c-0.2764,0-0.5-0.2236-0.5-0.5v-3c0-0.2764,0.2236-0.5,0.5-0.5s0.5,0.2236,0.5,0.5v3
		C17.9863,17.7764,17.7627,18,17.4863,18z"/>
	<path d="M11.4863,18c-0.2764,0-0.5-0.2236-0.5-0.5v-9c0-0.2764,0.2236-0.5,0.5-0.5s0.5,0.2236,0.5,0.5v9
		C11.9863,17.7764,11.7627,18,11.4863,18z"/>
	<path d="M5.4863,18c-0.2764,0-0.5-0.2236-0.5-0.5v-5c0-0.2764,0.2236-0.5,0.5-0.5s0.5,0.2236,0.5,0.5v5
		C5.9863,17.7764,5.7627,18,5.4863,18z"/>
	<path d="M9.4863,18c-0.2764,0-0.5-0.2236-0.5-0.5v-5c0-0.2764,0.2236-0.5,0.5-0.5s0.5,0.2236,0.5,0.5v5
		C9.9863,17.7764,9.7627,18,9.4863,18z"/>
	<path d="M15.4863,18c-0.2764,0-0.5-0.2236-0.5-0.5v-5c0-0.2764,0.2236-0.5,0.5-0.5s0.5,0.2236,0.5,0.5v5
		C15.9863,17.7764,15.7627,18,15.4863,18z"/>
	<path d="M13.4863,18c-0.2764,0-0.5-0.2236-0.5-0.5v-4c0-0.2764,0.2236-0.5,0.5-0.5s0.5,0.2236,0.5,0.5v4
		C13.9863,17.7764,13.7627,18,13.4863,18z"/>
	<path d="M7.4863,18c-0.2764,0-0.5-0.2236-0.5-0.5v-7c0-0.2764,0.2236-0.5,0.5-0.5s0.5,0.2236,0.5,0.5v7
		C7.9863,17.7764,7.7627,18,7.4863,18z"/>
	<path d="M19.5498,10.772c-2.3496,0-4.2617-1.9116-4.2617-4.2617s1.9121-4.2617,4.2617-4.2617s4.2617,1.9116,4.2617,4.2617
		S21.8994,10.772,19.5498,10.772z M19.5498,3.2485c-1.7988,0-3.2617,1.4634-3.2617,3.2617S17.751,9.772,19.5498,9.772
		s3.2617-1.4634,3.2617-3.2617S21.3486,3.2485,19.5498,3.2485z"/>
	<path d="M21.0645,7.0786c-0.1279,0-0.2559-0.0488-0.3535-0.1465L19.4863,5.707l-1.2246,1.2251
		c-0.1953,0.1953-0.5117,0.1953-0.707,0s-0.1953-0.5117,0-0.707l1.5781-1.5786c0.1875-0.1875,0.5195-0.1875,0.707,0l1.5781,1.5786
		c0.1953,0.1953,0.1953,0.5117,0,0.707C21.3203,7.0298,21.1924,7.0786,21.0645,7.0786z"/>
	<path d="M19.4863,8.5c-0.2764,0-0.5-0.2236-0.5-0.5V5c0-0.2764,0.2236-0.5,0.5-0.5s0.5,0.2236,0.5,0.5v3
		C19.9863,8.2764,19.7627,8.5,19.4863,8.5z"/>
</g>
<rect x="-0.0137" fill="none" width="24" height="24"/>
</svg>
