<?xml version="1.0" encoding="utf-8"?>
<!-- Generator: Adobe Illustrator 18.1.0, SVG Export Plug-In . SVG Version: 6.00 Build 0)  -->
<svg version="1.1" id="Layer_1" xmlns="http://www.w3.org/2000/svg" xmlns:xlink="http://www.w3.org/1999/xlink" x="0px" y="0px"
	 width="24px" height="24px" viewBox="0 0 24 24" enable-background="new 0 0 24 24" xml:space="preserve">
<g>
	<path d="M14.4834,22.0576H9.4922c-0.3057,0-0.5923-0.0332-0.8521-0.0977c-4.8682-1.2207-8.4014-6.1416-8.4014-11.7021
		c0-2.4351,0.708-4.7798,2.104-6.9692c0.0918-0.1436,0.2505-0.231,0.4214-0.231h18.4478c0.1709,0,0.3301,0.0874,0.4219,0.231
		c1.3955,2.1895,2.1035,4.5342,2.1035,6.9692c0,5.5605-3.5332,10.4814-8.4014,11.7021
		C15.0762,22.0244,14.7891,22.0576,14.4834,22.0576z M3.0415,4.0576c-1.1963,1.959-1.8027,4.0435-1.8027,6.2002
		c0,5.0254,3.2861,9.6396,7.644,10.7314c0.1802,0.0459,0.3857,0.0684,0.6094,0.0684h4.9912c0.2246,0,0.4297-0.0225,0.6104-0.0684
		c4.3574-1.0918,7.6436-5.7061,7.6436-10.7314c0-2.1567-0.6064-4.2412-1.8027-6.2002H3.0415z"/>
	<path d="M21.5859,10.3022c-1.3369,0-2.5518-0.5703-3.2031-1.4487c-0.6504,0.8779-1.8652,1.4487-3.2021,1.4487
		s-2.5518-0.5703-3.2031-1.4492c-0.6514,0.8789-1.8657,1.4492-3.2026,1.4492c-1.3374,0-2.5518-0.5708-3.2026-1.4492
		c-0.6509,0.8789-1.8657,1.4492-3.2026,1.4492c-0.2764,0-0.5-0.2236-0.5-0.5s0.2236-0.5,0.5-0.5
		c1.2373,0,2.3149-0.5981,2.6216-1.4546C5.0786,7.6016,5.312,7.4355,5.5713,7.4351c0,0,0.0005,0,0.001,0
		c0.2588,0,0.4922,0.165,0.5811,0.4116C6.46,8.7041,7.5376,9.3022,8.7749,9.3022s2.3149-0.5981,2.6216-1.4546
		c0.0879-0.2466,0.3213-0.4126,0.5811-0.4126c0.0005,0,0.001,0,0.0015,0c0.2603,0.0005,0.4937,0.1675,0.5806,0.4155
		c0.3057,0.8535,1.3838,1.4517,2.6211,1.4517s2.3145-0.5981,2.6211-1.4546c0.0889-0.2485,0.2959-0.4009,0.584-0.4126
		c0.2598,0.001,0.4922,0.168,0.5791,0.4155c0.3057,0.8535,1.3838,1.4517,2.6211,1.4517c0.2764,0,0.5,0.2236,0.5,0.5
		S21.8623,10.3022,21.5859,10.3022z"/>
	<path d="M10.7202,17.4844c-1.8101,0-2.9131-1.3359-3.4429-1.9775c-0.335-0.4043-0.3354-0.916-0.0439-1.2705
		c0.5737-0.6943,1.6768-2.0303,3.4863-2.0303c1.1245,0,2.3242,0.5303,3.5703,1.5762c0.5518-0.4043,1.5322-1.0527,1.9355-1.1064
		c0.1396-0.0205,0.2803,0.0234,0.3877,0.1133c0.1074,0.0908,0.1719,0.2227,0.1777,0.3633c0.0039,0.1133,0.0283,1.0098-0.2891,1.6934
		c0.3174,0.6836,0.293,1.5801,0.2891,1.6934c-0.0059,0.1406-0.0703,0.2725-0.1777,0.3633c-0.1074,0.0898-0.249,0.1299-0.3877,0.1133
		c-0.4033-0.0537-1.3838-0.7021-1.9355-1.1064C13.0439,16.9551,11.8447,17.4844,10.7202,17.4844z M10.7197,13.2061
		c-1.3389,0-2.2056,1.0498-2.6714,1.6143c0.4658,0.6143,1.333,1.6641,2.6719,1.6641c0.9639,0,2.0464-0.5361,3.2163-1.5928
		c0.0186-0.0166,0.0391-0.0322,0.0596-0.0459c-0.0215-0.0137-0.041-0.0293-0.0596-0.0459
		C12.7666,13.7422,11.6841,13.2061,10.7197,13.2061z M14.5449,14.8438c0.0312,0.0205,0.0605,0.0449,0.0879,0.0732
		c0.1172,0.1123,0.6377,0.4756,1.0898,0.7578c-0.043-0.2119-0.1084-0.4082-0.2012-0.5371c-0.125-0.1748-0.125-0.4092,0-0.584
		c0.0938-0.1299,0.1582-0.3271,0.2012-0.5391c-0.4492,0.2822-0.9736,0.6494-1.0938,0.7637
		C14.6025,14.8037,14.5742,14.8252,14.5449,14.8438z"/>
	<path d="M9.5698,15.0693c-0.1299,0-0.2598-0.0596-0.3501-0.1494c-0.1001-0.1006-0.1499-0.2197-0.1499-0.3506
		c0-0.1299,0.0498-0.2598,0.1401-0.3594c0.1997-0.1904,0.5298-0.1797,0.71,0c0.0898,0.0898,0.1499,0.2197,0.1499,0.3594
		c0,0.1309-0.0498,0.25-0.1499,0.3506C9.8296,15.0098,9.6997,15.0693,9.5698,15.0693z"/>
</g>
<rect x="-0.0121" y="-0.0146" fill="none" width="24" height="24"/>
</svg>
