<?xml version="1.0" encoding="utf-8"?>
<!-- Generator: Adobe Illustrator 18.1.0, SVG Export Plug-In . SVG Version: 6.00 Build 0)  -->
<svg version="1.1" id="Layer_1" xmlns="http://www.w3.org/2000/svg" xmlns:xlink="http://www.w3.org/1999/xlink" x="0px" y="0px"
	 width="24px" height="24px" viewBox="0 0 24 24" enable-background="new 0 0 24 24" xml:space="preserve">
<g>
	<path d="M15.541,12.9678c-0.207,0-0.4102-0.0166-0.6113-0.0498c-0.2725-0.0439-0.458-0.3008-0.4131-0.5732
		c0.043-0.2725,0.3066-0.4551,0.5732-0.4136c0.1484,0.0239,0.2988,0.0366,0.4512,0.0366c2.1484,0,3.8955-2.4258,3.8955-5.4077
		s-1.7471-5.4077-3.8955-5.4077c-1.0117,0-1.9736,0.543-2.707,1.5288c-0.166,0.2227-0.4795,0.2666-0.7002,0.1021
		c-0.2212-0.1646-0.2671-0.478-0.1025-0.6997c0.9277-1.2451,2.1738-1.9312,3.5098-1.9312c2.6992,0,4.8955,2.8745,4.8955,6.4077
		S18.2402,12.9678,15.541,12.9678z"/>
	<path d="M18.1348,6.2197c-0.2764,0-0.5-0.2236-0.5-0.5c0-1.3159-0.623-2.4956-1.5156-2.8687
		c-0.2539-0.1064-0.374-0.3994-0.2676-0.6543c0.1064-0.2554,0.3984-0.3755,0.6543-0.2686c1.2734,0.5327,2.1289,2.0562,2.1289,3.7915
		C18.6348,5.9961,18.4111,6.2197,18.1348,6.2197z"/>
	<path d="M15.541,19.3398c-0.2764,0-0.5-0.2236-0.5-0.5v-6.3721c0-0.2764,0.2236-0.5,0.5-0.5s0.5,0.2236,0.5,0.5v6.3721
		C16.041,19.1162,15.8174,19.3398,15.541,19.3398z"/>
	<path d="M8.5674,16.7715c-3.0039,0-5.4478-3.208-5.4478-7.1504s2.4438-7.1499,5.4478-7.1499c3.0044,0,5.4482,3.2075,5.4482,7.1499
		S11.5718,16.7715,8.5674,16.7715z M8.5674,3.4712c-2.4526,0-4.4478,2.7588-4.4478,6.1499c0,3.3916,1.9951,6.1504,4.4478,6.1504
		s4.4482-2.7588,4.4482-6.1504C13.0156,6.23,11.02,3.4712,8.5674,3.4712z"/>
	<path d="M11.4878,9.1758c-0.2764,0-0.5-0.2236-0.5-0.5c0-1.5063-0.7173-2.8584-1.7446-3.2876
		c-0.2549-0.1064-0.375-0.3994-0.2686-0.6543c0.1064-0.2554,0.3999-0.376,0.6543-0.2686c1.4111,0.5898,2.3589,2.2822,2.3589,4.2104
		C11.9878,8.9521,11.7642,9.1758,11.4878,9.1758z"/>
	<path d="M8.5674,23.9443c-0.2764,0-0.5-0.2236-0.5-0.5v-7.1729c0-0.2764,0.2236-0.5,0.5-0.5s0.5,0.2236,0.5,0.5v7.1729
		C9.0674,23.7207,8.8438,23.9443,8.5674,23.9443z"/>
</g>
<rect x="0.0142" y="0.0354" fill="none" width="24" height="24"/>
</svg>
