<?xml version="1.0" encoding="utf-8"?>
<!-- Generator: Adobe Illustrator 18.1.0, SVG Export Plug-In . SVG Version: 6.00 Build 0)  -->
<svg version="1.1" id="Layer_1" xmlns="http://www.w3.org/2000/svg" xmlns:xlink="http://www.w3.org/1999/xlink" x="0px" y="0px"
	 width="24px" height="24px" viewBox="0 0 24 24" enable-background="new 0 0 24 24" xml:space="preserve">
<g>
	<path d="M13.6748,23.8213c-0.001,0-0.001,0-0.001,0c-3.1533,0-6.1143-1.2246-8.3384-3.4482
		c-2.2236-2.2236-3.4487-5.1846-3.4482-8.3379c0-3.1528,1.2246-6.1138,3.4482-8.3374c2.2236-2.2241,5.1851-3.4487,8.3374-3.4487
		c3.1533,0,6.1143,1.2246,8.3379,3.4487c0.0986,0.0986,0.1514,0.2344,0.1465,0.374c-0.0059,0.1396-0.0703,0.2705-0.1768,0.3608
		l-8.9707,7.6025l8.9717,7.6025c0.1064,0.0908,0.1709,0.2217,0.1768,0.3613c0.0049,0.1396-0.0479,0.2754-0.1465,0.374
		C19.7881,22.5967,16.8271,23.8213,13.6748,23.8213z M13.6729,1.249c-2.8853,0-5.5952,1.1206-7.6304,3.1558
		c-2.0347,2.0347-3.1553,4.7446-3.1553,7.6304c-0.0005,2.8857,1.1206,5.5957,3.1553,7.6309
		c2.0352,2.0352,4.7451,3.1553,7.6313,3.1553c2.7031,0,5.252-0.9834,7.2363-2.7803l-8.9971-7.624
		c-0.1123-0.0957-0.1768-0.2354-0.1768-0.3818c0-0.147,0.0645-0.2866,0.1768-0.3813l8.9961-7.624
		C18.9258,2.2324,16.376,1.249,13.6729,1.249z"/>
	<path d="M12.7793,7.1968c-0.9653,0-1.7505-0.7852-1.7505-1.75s0.7852-1.75,1.7505-1.75c0.9648,0,1.75,0.7852,1.75,1.75
		S13.7441,7.1968,12.7793,7.1968z M12.7793,4.6968c-0.4141,0-0.751,0.3364-0.751,0.75s0.3369,0.75,0.751,0.75
		c0.4131,0,0.75-0.3364,0.75-0.75S13.1924,4.6968,12.7793,4.6968z"/>
</g>
<rect x="0.0142" y="0.0354" fill="none" width="24" height="24"/>
</svg>
