<?xml version="1.0" encoding="utf-8"?>
<!-- Generator: Adobe Illustrator 18.1.1, SVG Export Plug-In . SVG Version: 6.00 Build 0)  -->
<svg version="1.1" id="Layer_1" xmlns="http://www.w3.org/2000/svg" xmlns:xlink="http://www.w3.org/1999/xlink" x="0px" y="0px"
	 width="24px" height="24px" viewBox="0 0 24 24" enable-background="new 0 0 24 24" xml:space="preserve">
<rect y="-0.0687" fill="none" width="24" height="24"/>
<g>
	<path d="M13,1.9312c-0.9854,0-1.9131,0.3618-2.6387,1.0244C10.2427,2.9409,10.1226,2.9312,10,2.9312
		c-2.1675,0-3.9312,1.7637-3.9312,3.9312c0,0.2764,0.2236,0.5,0.5,0.5s0.5-0.2236,0.5-0.5c0-1.6162,1.3149-2.9312,2.9312-2.9312
		c0.1562,0,0.3066,0.0244,0.4565,0.0479c0.165,0.0269,0.3247-0.0303,0.437-0.147C11.4536,3.251,12.2012,2.9312,13,2.9312
		c1.6162,0,2.9316,1.3149,2.9316,2.9312c0,0.2764,0.2236,0.5,0.5,0.5s0.5-0.2236,0.5-0.5C16.9316,3.6948,15.168,1.9312,13,1.9312z"
		/>
	<path d="M4.5581,7.373c0.2764,0,0.5-0.2236,0.5-0.5c0-2.6948,2.1118-4.8628,4.8081-4.9346
		c0.0996-0.0029,0.1953-0.0352,0.2764-0.0923c0.8423-0.5986,1.8306-0.915,2.8574-0.915c2.7246,0,4.9414,2.2168,4.9414,4.9419
		c0,0.2764,0.2236,0.5,0.5,0.5s0.5-0.2236,0.5-0.5c0-3.2764-2.665-5.9419-5.9414-5.9419c-1.1855,0-2.3271,0.3501-3.312,1.0132
		C6.519,1.1069,4.0581,3.6826,4.0581,6.873C4.0581,7.1494,4.2817,7.373,4.5581,7.373z"/>
	<path d="M19,12.9316c-0.3658,0-0.7046,0.106-1,0.2783v-0.2783c0-1.103-0.8975-2.0005-2-2.0005c-0.3658,0-0.7046,0.106-1,0.2783
		V5.9312c0-1.103-0.8975-2-2-2c-0.8719,0-1.6072,0.564-1.8804,1.3437C10.8,5.058,10.4146,4.9312,10,4.9312c-1.103,0-2,0.897-2,2
		v8.6692l-1.9614-3.323c-0.4243-0.6699-1.3237-0.8823-2.0898-0.498c-0.6543,0.3291-1.1387,1.1201-0.75,2.1348
		c0.0776,0.2168,1.9209,5.3457,4.2778,8.084c0.0073,0.0059,0.7305,0.6582,1.1147,1.5908c0.0796,0.1934,0.2661,0.3096,0.4624,0.3096
		c0.0635,0,0.1279-0.0117,0.1904-0.0381c0.2554-0.1045,0.377-0.3975,0.272-0.6523c-0.4702-1.1416-1.3218-1.9102-1.3281-1.9102
		C6,18.75,4.1592,13.6299,4.1367,13.5674c-0.2134-0.5566,0.0718-0.7998,0.2607-0.8945c0.2651-0.1338,0.6348-0.1162,0.7905,0.1299
		l2.8804,4.8818c0.0107,0.0182,0.028,0.0289,0.0406,0.0452c0.0213,0.028,0.0424,0.0539,0.069,0.0768
		c0.0234,0.0199,0.048,0.0349,0.0742,0.05c0.0292,0.0172,0.058,0.0324,0.0906,0.0434c0.0302,0.0101,0.0604,0.0143,0.092,0.0186
		c0.0223,0.0031,0.0421,0.0131,0.0652,0.0131c0.012,0,0.022-0.0059,0.0338-0.0068c0.031-0.002,0.0604-0.0104,0.0911-0.0184
		c0.0342-0.009,0.0671-0.0175,0.098-0.0331c0.0098-0.0048,0.0205-0.0046,0.0301-0.0101c0.0185-0.0109,0.0294-0.0283,0.046-0.0411
		c0.0273-0.0209,0.0528-0.0414,0.0753-0.0673c0.0212-0.0247,0.0372-0.0508,0.053-0.0787c0.0158-0.0275,0.0302-0.0542,0.0406-0.0847
		c0.0112-0.033,0.0161-0.0659,0.0203-0.1006C8.9905,17.4705,9,17.4526,9,17.4316V6.9312c0-0.5513,0.4487-1,1-1s1,0.4487,1,1v6.5005
		c0,0.2764,0.2236,0.5,0.5,0.5s0.5-0.2236,0.5-0.5V6.9312v-1c0-0.5513,0.4482-1,1-1s1,0.4487,1,1v7.0005v1.5
		c0,0.2764,0.2236,0.5,0.5,0.5s0.5-0.2236,0.5-0.5v-1.5c0-0.5518,0.4482-1.0005,1-1.0005s1,0.4487,1,1.0005v2v0.5
		c0,0.2764,0.2236,0.5,0.5,0.5s0.5-0.2236,0.5-0.5v-0.5c0-0.5518,0.4482-1,1-1c0.6006,0,0.6904,0.6562,0.6934,0.9932
		c-0.0029,0.0264-0.293,2.6338-1.29,4.5938c-0.7715,1.5146-1.1191,2.8994-1.2744,3.7939c-0.0479,0.2725,0.1348,0.5312,0.4062,0.5781
		c0.0293,0.0059,0.0576,0.0078,0.0869,0.0078c0.2383,0,0.4492-0.1709,0.4912-0.4141c0.1445-0.8271,0.4658-2.1084,1.1807-3.5127
		c1.0801-2.1221,1.3809-4.8252,1.3965-4.9932C20.6904,13.7354,20.0273,12.9316,19,12.9316z"/>
</g>
</svg>
