<?xml version="1.0" encoding="utf-8"?>
<!-- Generator: Adobe Illustrator 18.1.0, SVG Export Plug-In . SVG Version: 6.00 Build 0)  -->
<svg version="1.1" id="Layer_1" xmlns="http://www.w3.org/2000/svg" xmlns:xlink="http://www.w3.org/1999/xlink" x="0px" y="0px"
	 width="24px" height="24px" viewBox="0 0 24 24" enable-background="new 0 0 24 24" xml:space="preserve">
<g>
	<path d="M11.2373,18.1826c0,0,0,0-0.0005,0c-0.2378,0-0.4424-0.168-0.4897-0.4004L9.4067,11.166l-0.7373,3.4717
		c-0.0493,0.2314-0.2529,0.3965-0.4893,0.3965h-2.166c-0.2764,0-0.5-0.2236-0.5-0.5s0.2236-0.5,0.5-0.5h1.7612l1.1538-5.4331
		c0.0493-0.2319,0.2114-0.4077,0.4917-0.396c0.2368,0.001,0.4404,0.1685,0.4878,0.4009l1.3301,6.5669l0.5957-2.9199
		c0.0435-0.2129,0.2192-0.3735,0.4351-0.3975c0.2285-0.0195,0.4238,0.0957,0.5117,0.293l0.8408,1.8857h4.3926
		c0.2764,0,0.5,0.2236,0.5,0.5s-0.2236,0.5-0.5,0.5h-4.7168c-0.1973,0-0.376-0.1162-0.457-0.2959l-0.3379-0.7588l-0.7759,3.8027
		C11.6797,18.0156,11.4751,18.1826,11.2373,18.1826z"/>
	<path d="M11.9727,21.0264c-4.9678,0-9.0093-4.041-9.0093-9.0088s4.0415-9.0098,9.0093-9.0098s9.0098,4.042,9.0098,9.0098
		S16.9404,21.0264,11.9727,21.0264z M11.9727,4.0078c-4.4165,0-8.0093,3.5933-8.0093,8.0098c0,4.416,3.5928,8.0088,8.0093,8.0088
		c4.417,0,8.0098-3.5928,8.0098-8.0088C19.9824,7.6011,16.3896,4.0078,11.9727,4.0078z"/>
	<path d="M16.3525,24.0342H7.5117c-0.2681,0-0.4883-0.2109-0.4995-0.4795L6.8325,19.248c-0.0117-0.2754,0.2026-0.5088,0.4785-0.5205
		c0.2759-0.001,0.5093,0.2031,0.5205,0.4795l0.1597,3.8271h7.8818l0.1592-3.8359c0.0117-0.2764,0.2383-0.4863,0.5205-0.4795
		c0.2764,0.0117,0.4902,0.2451,0.4795,0.5205l-0.1797,4.3154C16.8408,23.8232,16.6201,24.0342,16.3525,24.0342z"/>
	<path d="M7.3325,5.3818c-0.0073,0-0.0142,0-0.021-0.0005c-0.2759-0.0112-0.4902-0.2441-0.479-0.52l0.1797-4.3472
		c0.0112-0.2681,0.2314-0.4795,0.4995-0.4795h8.8408c0.2676,0,0.4883,0.2114,0.5,0.479l0.1797,4.2939
		c0.0107,0.2759-0.2031,0.5088-0.4795,0.5205c-0.2832,0.0039-0.5088-0.2031-0.5205-0.4785L15.873,1.0347H7.9917L7.8315,4.9023
		C7.8203,5.1714,7.5991,5.3818,7.3325,5.3818z"/>
	<path d="M22.5146,14.0342h-2.0322c-0.2764,0-0.5-0.2236-0.5-0.5s0.2236-0.5,0.5-0.5h1.5322v-1.9995h-1.5322
		c-0.2764,0-0.5-0.2236-0.5-0.5s0.2236-0.5,0.5-0.5h2.0322c0.2764,0,0.5,0.2236,0.5,0.5v2.9995
		C23.0146,13.8105,22.791,14.0342,22.5146,14.0342z"/>
	<path d="M15.0947,12.0977c-0.001,0-0.002,0-0.0029-0.001c-0.2812-0.001-0.3652-0.002-2.2139-2.2378l-0.0762-0.0923
		c-0.4131-0.499-0.499-1.1313-0.2334-1.6958c0.4414-0.938,1.7236-1.3315,2.5498-0.7344c0.8242-0.5928,2.1104-0.2041,2.5449,0.7261
		c0.2725,0.584,0.1768,1.2202-0.2627,1.7456l-0.0908,0.1064C15.458,12.0977,15.374,12.0977,15.0947,12.0977z M14.1807,8.0293
		c-0.2822,0-0.5801,0.1963-0.708,0.4668c-0.1016,0.2173-0.0693,0.4287,0.0957,0.6289l0.0811,0.0972
		c0.792,0.9585,1.2197,1.4482,1.4492,1.6987c0.2314-0.2451,0.6592-0.7222,1.4482-1.6533l0.0928-0.1084
		c0.1816-0.2173,0.2236-0.4463,0.1172-0.6733c-0.2139-0.4565-0.8799-0.626-1.2422-0.1523
		c-0.0938,0.1245-0.2412,0.1973-0.3975,0.1973l0,0c-0.1562,0-0.3037-0.0728-0.3975-0.1973
		C14.5654,8.1318,14.3848,8.0293,14.1807,8.0293z"/>
</g>
<rect x="0.0142" y="0.0346" fill="none" width="24" height="24"/>
</svg>
