<?xml version="1.0" encoding="utf-8"?>
<!-- Generator: Adobe Illustrator 18.1.0, SVG Export Plug-In . SVG Version: 6.00 Build 0)  -->
<svg version="1.1" id="Layer_1" xmlns="http://www.w3.org/2000/svg" xmlns:xlink="http://www.w3.org/1999/xlink" x="0px" y="0px"
	 width="24px" height="24px" viewBox="0 0 24 24" enable-background="new 0 0 24 24" xml:space="preserve">
<g>
	<path d="M20.5146,24.0352h-8c-0.2764,0-0.5-0.2236-0.5-0.5v-17c0-0.2764,0.2236-0.5,0.5-0.5h8c0.2764,0,0.5,0.2236,0.5,0.5v17
		C21.0146,23.8115,20.791,24.0352,20.5146,24.0352z M13.0146,23.0352h7v-16h-7V23.0352z"/>
	<path d="M10.5142,24.0352h-7c-0.2764,0-0.5-0.2236-0.5-0.5V4.7817c0-0.1821,0.0986-0.3496,0.2578-0.4375l7-3.8721
		c0.1548-0.0859,0.3428-0.0835,0.4961,0.0068c0.1523,0.0898,0.2461,0.2539,0.2461,0.4307v22.6255
		C11.0142,23.8115,10.7905,24.0352,10.5142,24.0352z M4.0142,23.0352h6V1.7578l-6,3.3188V23.0352z"/>
	<path d="M7.5107,20.0352H6.4746c-0.2764,0-0.5-0.2236-0.5-0.5s0.2236-0.5,0.5-0.5h1.0361c0.2764,0,0.5,0.2236,0.5,0.5
		S7.7871,20.0352,7.5107,20.0352z"/>
	<path d="M7.5107,18.0352H6.4746c-0.2764,0-0.5-0.2236-0.5-0.5s0.2236-0.5,0.5-0.5h1.0361c0.2764,0,0.5,0.2236,0.5,0.5
		S7.7871,18.0352,7.5107,18.0352z"/>
	<path d="M7.5107,16.0352H6.4746c-0.2764,0-0.5-0.2236-0.5-0.5s0.2236-0.5,0.5-0.5h1.0361c0.2764,0,0.5,0.2236,0.5,0.5
		S7.7871,16.0352,7.5107,16.0352z"/>
	<path d="M7.5107,14.0352H6.4746c-0.2764,0-0.5-0.2236-0.5-0.5s0.2236-0.5,0.5-0.5h1.0361c0.2764,0,0.5,0.2236,0.5,0.5
		S7.7871,14.0352,7.5107,14.0352z"/>
	<path d="M7.5107,12.0352H6.4746c-0.2764,0-0.5-0.2236-0.5-0.5s0.2236-0.5,0.5-0.5h1.0361c0.2764,0,0.5,0.2236,0.5,0.5
		S7.7871,12.0352,7.5107,12.0352z"/>
	<path d="M7.5107,10.0352H6.4746c-0.2764,0-0.5-0.2236-0.5-0.5s0.2236-0.5,0.5-0.5h1.0361c0.2764,0,0.5,0.2236,0.5,0.5
		S7.7871,10.0352,7.5107,10.0352z"/>
	<path d="M7.5107,8.0352H6.4746c-0.2764,0-0.5-0.2236-0.5-0.5s0.2236-0.5,0.5-0.5h1.0361c0.2764,0,0.5,0.2236,0.5,0.5
		S7.7871,8.0352,7.5107,8.0352z"/>
	<path d="M14.5146,21.0352c-0.2764,0-0.5-0.2236-0.5-0.5V10.5073c0-0.2764,0.2236-0.5,0.5-0.5s0.5,0.2236,0.5,0.5v10.0278
		C15.0146,20.8115,14.791,21.0352,14.5146,21.0352z"/>
	<path d="M16.5146,21.0352c-0.2764,0-0.5-0.2236-0.5-0.5V10.5073c0-0.2764,0.2236-0.5,0.5-0.5s0.5,0.2236,0.5,0.5v10.0278
		C17.0146,20.8115,16.791,21.0352,16.5146,21.0352z"/>
	<path d="M18.5146,21.0352c-0.2764,0-0.5-0.2236-0.5-0.5V10.5073c0-0.2764,0.2236-0.5,0.5-0.5s0.5,0.2236,0.5,0.5v10.0278
		C19.0146,20.8115,18.791,21.0352,18.5146,21.0352z"/>
	<path d="M23.0146,24.0352H1.0142c-0.2764,0-0.5-0.2236-0.5-0.5s0.2236-0.5,0.5-0.5h22.0005c0.2764,0,0.5,0.2236,0.5,0.5
		S23.291,24.0352,23.0146,24.0352z"/>
	<path d="M16.5146,7.0352c-0.2764,0-0.5-0.2236-0.5-0.5V2.5c0-0.2764,0.2236-0.5,0.5-0.5s0.5,0.2236,0.5,0.5v4.0352
		C17.0146,6.8115,16.791,7.0352,16.5146,7.0352z"/>
	<path d="M20.5146,21.0352h-8c-0.2764,0-0.5-0.2236-0.5-0.5s0.2236-0.5,0.5-0.5h8c0.2764,0,0.5,0.2236,0.5,0.5
		S20.791,21.0352,20.5146,21.0352z"/>
</g>
<rect x="0.0142" y="0.0354" fill="none" width="24" height="24"/>
</svg>
