<?xml version="1.0" encoding="utf-8"?>
<!-- Generator: Adobe Illustrator 18.1.0, SVG Export Plug-In . SVG Version: 6.00 Build 0)  -->
<svg version="1.1" id="Layer_1" xmlns="http://www.w3.org/2000/svg" xmlns:xlink="http://www.w3.org/1999/xlink" x="0px" y="0px"
	 width="24px" height="24px" viewBox="0 0 24 24" enable-background="new 0 0 24 24" xml:space="preserve">
<g>
	<path d="M23.5,24.001h-23c-0.2764,0-0.5-0.2236-0.5-0.5v-23c0-0.2764,0.2236-0.5,0.5-0.5h23c0.2764,0,0.5,0.2236,0.5,0.5v23
		C24,23.7773,23.7764,24.001,23.5,24.001z M1,23.001h22v-22H1V23.001z"/>
	<path d="M17.6719,18.1826c-0.1279,0-0.2559-0.0488-0.3535-0.1465L5.9341,6.6509c-0.1953-0.1953-0.1953-0.5117,0-0.707
		s0.5117-0.1953,0.707,0l11.3843,11.3853c0.1953,0.1953,0.1953,0.5117,0,0.707C17.9277,18.1338,17.7998,18.1826,17.6719,18.1826z"/>
	<path d="M6.2876,18.1826c-0.1279,0-0.2559-0.0488-0.3535-0.1465c-0.1953-0.1953-0.1953-0.5117,0-0.707L17.3184,5.9438
		c0.1953-0.1953,0.5117-0.1953,0.707,0s0.1953,0.5117,0,0.707L6.6411,18.0361C6.5435,18.1338,6.4155,18.1826,6.2876,18.1826z"/>
</g>
<rect y="0.001" fill="none" width="24" height="24"/>
</svg>
