<?xml version="1.0" encoding="utf-8"?>
<!-- Generator: Adobe Illustrator 18.1.0, SVG Export Plug-In . SVG Version: 6.00 Build 0)  -->
<svg version="1.1" id="Layer_1" xmlns="http://www.w3.org/2000/svg" xmlns:xlink="http://www.w3.org/1999/xlink" x="0px" y="0px"
	 width="24px" height="24px" viewBox="0 0 24 24" enable-background="new 0 0 24 24" xml:space="preserve">
<g>
	<path d="M8.04,17.001H5.2046c-2.7651,0-5.0146-2.2363-5.0146-4.9854c0-2.771,2.2495-5.0146,5.0146-5.0146H8.04
		c0.2764,0,0.5,0.2236,0.5,0.5s-0.2236,0.5-0.5,0.5H5.2046c-2.2139,0-4.0146,1.7954-4.0146,4.002c0,2.21,1.8008,3.998,4.0146,3.998
		H8.04c0.2764,0,0.5,0.2236,0.5,0.5S8.3164,17.001,8.04,17.001z"/>
	<path d="M18.7949,17.001H15.96c-0.2764,0-0.5-0.2236-0.5-0.5s0.2236-0.5,0.5-0.5h2.835c2.2139,0,4.0146-1.7881,4.0146-3.9854
		c0-2.2192-1.8008-4.0146-4.0146-4.0146H15.96c-0.2764,0-0.5-0.2236-0.5-0.5s0.2236-0.5,0.5-0.5h2.835
		c2.7646,0,5.0146,2.2437,5.0146,5.002C23.8096,14.7646,21.5596,17.001,18.7949,17.001z"/>
	<path d="M9.9839,6.5894c-0.1772,0-0.3486-0.0942-0.4395-0.2607L7.77,3.0718c-0.1323-0.2427-0.043-0.5464,0.1997-0.6782
		c0.2441-0.1328,0.5459-0.0425,0.6782,0.1997l1.7744,3.2568c0.1323,0.2427,0.043,0.5464-0.1997,0.6782
		C10.1465,6.5698,10.0645,6.5894,9.9839,6.5894z"/>
	<path d="M12.0176,5.8477c-0.2764,0-0.5-0.2236-0.5-0.5V1.876c0-0.2764,0.2236-0.5,0.5-0.5s0.5,0.2236,0.5,0.5v3.4717
		C12.5176,5.624,12.2939,5.8477,12.0176,5.8477z"/>
	<path d="M14.0166,6.5894c-0.0811,0-0.1631-0.0195-0.2393-0.061c-0.2422-0.1318-0.332-0.4355-0.2002-0.6782l1.7744-3.2568
		c0.1328-0.2427,0.4365-0.3311,0.6787-0.1997c0.2422,0.1318,0.332,0.4355,0.2002,0.6782l-1.7744,3.2568
		C14.3652,6.4951,14.1934,6.5894,14.0166,6.5894z"/>
	<path d="M8.2085,21.6338c-0.0806,0-0.1626-0.0195-0.2388-0.0605c-0.2427-0.1328-0.332-0.4365-0.1997-0.6787l1.7744-3.2568
		c0.1318-0.2412,0.4336-0.3311,0.6782-0.2002c0.2427,0.1328,0.332,0.4365,0.1997,0.6787L8.6479,21.373
		C8.5571,21.5391,8.3857,21.6338,8.2085,21.6338z"/>
	<path d="M12.0176,22.5898c-0.2764,0-0.5-0.2236-0.5-0.5v-3.4717c0-0.2764,0.2236-0.5,0.5-0.5s0.5,0.2236,0.5,0.5v3.4717
		C12.5176,22.3662,12.2939,22.5898,12.0176,22.5898z"/>
	<path d="M15.791,21.6338c-0.1768,0-0.3486-0.0947-0.4395-0.2607l-1.7744-3.2568c-0.1318-0.2422-0.042-0.5459,0.2002-0.6787
		c0.2412-0.1309,0.5469-0.042,0.6787,0.2002l1.7744,3.2568c0.1318,0.2422,0.042,0.5459-0.2002,0.6787
		C15.9541,21.6143,15.8721,21.6338,15.791,21.6338z"/>
</g>
<rect y="0.0011" fill="none" width="24" height="24"/>
</svg>
