<?xml version="1.0" encoding="utf-8"?>
<!-- Generator: Adobe Illustrator 18.1.0, SVG Export Plug-In . SVG Version: 6.00 Build 0)  -->
<svg version="1.1" id="Layer_1" xmlns="http://www.w3.org/2000/svg" xmlns:xlink="http://www.w3.org/1999/xlink" x="0px" y="0px"
	 width="24px" height="24px" viewBox="0 0 24 24" enable-background="new 0 0 24 24" xml:space="preserve">
<g>
	<path d="M15.5,24.0195h-7c-0.2764,0-0.5-0.2236-0.5-0.5v-0.7217c-4.1963-1.7656-7.1011-5.3594-7.4351-9.2354
		c-0.0122-0.1396,0.0352-0.2773,0.1294-0.3809c0.0947-0.1035,0.2285-0.1621,0.3687-0.1621h21.8745
		c0.1396,0,0.2734,0.0586,0.3682,0.1621s0.1416,0.2412,0.1299,0.3809c-0.334,3.876-3.2393,7.4697-7.4355,9.2354v0.7217
		C16,23.7959,15.7764,24.0195,15.5,24.0195z M9,23.0195h6v-0.5576c0-0.2061,0.126-0.3906,0.3174-0.4658
		c3.8135-1.498,6.5264-4.5879,7.0557-7.9766H1.627c0.5298,3.3887,3.2422,6.4785,7.0557,7.9766C8.874,22.0713,9,22.2559,9,22.4619
		V23.0195z"/>
	<path d="M2.479,12.3037c-0.0659,0-0.1328-0.0137-0.1968-0.041c-0.165-0.0703-0.3716-0.25-0.4575-0.542
		c-0.0938-0.3198-0.0288-0.6836,0.1987-1.106C1.7002,10.1592,1.1943,9.269,1.458,8.4482C1.6157,7.957,2.001,7.5981,2.605,7.3779
		c0.0068-0.8594,0.1587-2.7793,1.3389-3.4897c0.6821-0.4121,1.542-0.3389,2.5566,0.2173C6.9673,3.9424,7.9863,3.687,8.7993,4.1992
		C9.3853,4.5684,9.7222,5.231,9.8042,6.1714c0.5151,0.124,1.3354,0.4258,1.6167,1.1172c0.2227,0.5488,0.0591,1.167-0.4863,1.8374
		c-0.2935,0.3608-0.437,0.6797-0.3838,0.853c0.0435,0.1401,0.2559,0.2798,0.5688,0.3735c0.5581,0.167,1.2524,0.3745,1.5073,1.3208
		c0.0723,0.2666-0.0859,0.5405-0.3525,0.6128c-0.2617,0.0713-0.541-0.0859-0.6128-0.353c-0.0933-0.3467-0.2173-0.4399-0.8281-0.6226
		c-0.8364-0.25-1.1353-0.7021-1.2383-1.0371c-0.1611-0.5229,0.0288-1.1211,0.564-1.7783c0.167-0.2056,0.4331-0.5869,0.3354-0.8291
		c-0.125-0.3096-0.8076-0.5288-1.2295-0.5796c-0.2495-0.0303-0.439-0.2407-0.4414-0.4917C8.8159,5.7949,8.6284,5.2734,8.2661,5.0454
		C7.7612,4.7261,6.9238,4.9941,6.6704,5.1118C6.5205,5.1821,6.3447,5.1733,6.2017,5.0869C5.4351,4.626,4.8481,4.5088,4.4595,4.7446
		C3.6606,5.2261,3.5776,7.1021,3.6113,7.7212c0.0137,0.2417-0.1484,0.458-0.3838,0.5137c-0.3213,0.0762-0.7241,0.228-0.8174,0.519
		C2.2656,9.2031,2.7495,9.957,3.0063,10.252c0.1489,0.1714,0.1641,0.4214,0.0371,0.6089c-0.2095,0.3096-0.2505,0.4805-0.2573,0.5474
		C2.9614,11.5444,3.0303,11.7866,2.9385,12C2.8574,12.1895,2.6729,12.3037,2.479,12.3037z"/>
	<path d="M6.8501,12.2402c-0.1304,0-0.2607-0.0508-0.3589-0.1514C5.0825,10.6367,4.4663,8.8906,4.709,7.0396
		c0.0352-0.2739,0.2812-0.4717,0.5605-0.4307c0.2739,0.0356,0.4668,0.2866,0.4307,0.5605C5.4956,8.729,6.0034,10.1499,7.209,11.3921
		c0.1924,0.1982,0.1875,0.5146-0.0107,0.7065C7.1011,12.1934,6.9756,12.2402,6.8501,12.2402z"/>
	<path d="M6.8501,12.2402c-0.0669,0-0.1348-0.0137-0.1997-0.042c-0.2534-0.1104-0.3691-0.4048-0.2588-0.6577
		c0.0088-0.0195,0.8516-1.9634,1.1235-3.4634c0.0493-0.2715,0.313-0.4502,0.5815-0.4028c0.2715,0.0493,0.4521,0.3096,0.4028,0.5815
		c-0.2935,1.6157-1.1548,3.6006-1.1909,3.6841C7.2266,12.1279,7.0425,12.2402,6.8501,12.2402z"/>
	<path d="M5.6802,10.6011c-0.043,0-0.0864-0.0054-0.1294-0.0171l-2.1812-0.5825c-0.2671-0.0713-0.4253-0.3452-0.354-0.6118
		s0.3506-0.4233,0.6118-0.354l2.1812,0.5825c0.2671,0.0713,0.4253,0.3452,0.354,0.6118C6.103,10.4536,5.9009,10.6011,5.6802,10.6011
		z"/>
	<path d="M20.9736,12.2402c-0.167,0-0.3311-0.084-0.4258-0.2373c-0.1445-0.2354-0.0713-0.5435,0.1631-0.6885
		c0.0166-0.0112,0.5859-0.4058,0.5371-1.4814c-0.0117-0.2476-0.0645-0.3154-0.0654-0.3159
		c-0.0527,0.0063-0.3105,0.1294-0.4512,0.2373c-0.1064,0.0825-0.2383,0.1162-0.3789,0.0977
		c-0.1338-0.0205-0.2539-0.0947-0.333-0.2056c-0.5117-0.7217-1.2725-1.5557-2.0117-1.4443
		c-0.9658,0.1484-1.6992,1.7964-1.9004,2.4189c-0.0518,0.1597-0.1797,0.2832-0.3418,0.3281
		c-0.1621,0.0435-0.3369,0.0054-0.4629-0.105c-1.7275-1.5098-2.4277-1.4204-2.6514-1.3125
		c-0.4375,0.2119-0.5352,1.1265-0.5137,1.5356c0.0137,0.2759-0.1982,0.5112-0.4736,0.5254
		c-0.2764,0.0073-0.5112-0.1978-0.5254-0.4736c-0.0098-0.1963-0.0654-1.9331,1.0762-2.4873
		c0.7949-0.3843,1.8457-0.0566,3.2031,1.0083c0.3838-0.8613,1.1826-2.2324,2.4365-2.4258c0.8955-0.1445,1.8105,0.3584,2.7041,1.4844
		c0.2998-0.1382,0.7031-0.2437,1.0703-0.0713c0.2637,0.1226,0.584,0.4233,0.6172,1.1597c0.0771,1.689-0.9658,2.3516-1.0098,2.3789
		C21.1543,12.2158,21.0635,12.2402,20.9736,12.2402z"/>
	<path d="M17.9014,12.3037c-0.1572,0-0.3125-0.0752-0.4102-0.2148c-0.1582-0.2261-0.1025-0.5376,0.124-0.6958
		c1.0117-0.7061,1.4961-1.1191,1.5752-1.2241c0.166-0.2222,0.4795-0.2661,0.6992-0.1021c0.2217,0.1655,0.2666,0.4785,0.1016,0.6997
		c-0.1934,0.2603-0.8008,0.7466-1.8037,1.4463C18.1006,12.2744,18.001,12.3037,17.9014,12.3037z"/>
	<path d="M17.9014,12.3027c-0.2119,0-0.4082-0.1348-0.4766-0.3477c-0.0752-0.2349-0.6943-2.314,0.6475-2.8955
		c0.2559-0.1079,0.5479,0.0068,0.6582,0.2603c0.1094,0.2534-0.0068,0.5479-0.2598,0.6577c-0.3867,0.167-0.251,1.1729-0.0928,1.6743
		c0.083,0.2632-0.0625,0.5444-0.3252,0.6274C18.002,12.2949,17.9512,12.3027,17.9014,12.3027z"/>
	<path d="M18.6387,8.2749c-0.2061,0-0.3984-0.1279-0.4707-0.333c-0.0928-0.2598,0.0439-0.5454,0.3037-0.6382
		c0.3652-0.1304,0.7715-0.3691,0.877-0.5107c-0.0225-0.0103-0.0684-0.0493-0.1484-0.0991
		c-1.1172-0.6875-1.9707-0.8071-2.1338-0.7446c-0.165,0.2212-0.4434,0.2393-0.666,0.0732
		c-0.2217-0.1646-0.2334-0.5068-0.0693-0.7285c0,0,0-0.0005,0-0.001l0,0c0.001,0,0.001-0.0005,0.001-0.0005
		c0.6836-0.9229,1.6904-2.6973,1.4863-3.5366c-0.041-0.168-0.126-0.2725-0.2832-0.3496c-1.0176-0.498-3.7451,1.1104-5.3535,2.4175
		c-0.1123,0.0913-0.2568,0.1294-0.4009,0.1045c-0.1426-0.0249-0.2676-0.1104-0.3423-0.2339
		C10.8364,2.6997,9.9917,1.748,9.6997,1.7358C9.6445,1.8032,9.6562,1.8267,9.5752,1.8579l0,0c0.0029,0-0.7505,0.4976-0.5903,2.7017
		c0.02,0.2754-0.187,0.5146-0.4624,0.5347c-0.2744,0.021-0.5146-0.187-0.5347-0.4624C7.8027,2.0889,8.7041,1.2417,9.0332,1.02
		C9.2314,0.8174,9.4897,0.7168,9.772,0.7383c0.8086,0.0586,1.7144,1.2158,2.2197,1.9658c1.1909-0.8975,4.2886-3.0264,5.9849-2.1953
		c0.4219,0.207,0.7031,0.5566,0.8135,1.0112c0.2549,1.0493-0.4814,2.5273-1.0576,3.4736c0.6943,0.146,1.4658,0.5254,1.9912,0.8486
		c0.5791,0.3564,0.666,0.7632,0.6357,1.041c-0.083,0.7847-1.2109,1.2417-1.5537,1.3628C18.75,8.2656,18.6943,8.2749,18.6387,8.2749z
		"/>
	<path d="M13.7383,9.6851c-0.1602,0-0.3184-0.0776-0.415-0.2212c-0.8438-1.2578-1.8633-3.6763-0.3301-4.7627
		c0.5586-0.3955,1.0283-0.6572,1.3711-0.8486c0.251-0.1401,0.5361-0.2993,0.5859-0.3755c-0.0742-0.2661,0.0713-0.5596,0.3369-0.6338
		c0.2666-0.0718,0.5322,0.0645,0.6055,0.3296c0.2344,0.8408-0.3857,1.187-1.041,1.5532c-0.3408,0.1899-0.7656,0.4263-1.2803,0.7915
		c-0.9365,0.6631,0.1338,2.7202,0.582,3.3887c0.1543,0.2295,0.0928,0.54-0.1367,0.6938C13.9316,9.6577,13.835,9.6851,13.7383,9.6851
		z"/>
	<path d="M12.6973,6.5747c-0.082,0-0.1641-0.0195-0.2402-0.0615l-2.1177-1.1587c-0.2427-0.1323-0.3315-0.436-0.1987-0.6782
		c0.1323-0.2432,0.4351-0.333,0.6782-0.1987l2.1187,1.1587c0.2422,0.1323,0.3311,0.436,0.1982,0.6782
		C13.0449,6.481,12.874,6.5747,12.6973,6.5747z"/>
	<path d="M13.0117,8.2749c-0.1016,0-0.2041-0.0308-0.292-0.0942c-0.2246-0.1611-0.2754-0.4736-0.1143-0.6978
		c0.0459-0.063,1.1221-1.5396,2.9023-1.1909c0.2705,0.0532,0.4473,0.3159,0.3936,0.5869c-0.0527,0.271-0.3125,0.4473-0.5869,0.3945
		c-1.1543-0.2261-1.8906,0.7837-1.8965,0.7935C13.3193,8.2026,13.167,8.2749,13.0117,8.2749z"/>
</g>
<rect y="0.0197" fill="none" width="24" height="24"/>
</svg>
