<?xml version="1.0" encoding="utf-8"?>
<!-- Generator: Adobe Illustrator 18.1.0, SVG Export Plug-In . SVG Version: 6.00 Build 0)  -->
<svg version="1.1" id="Layer_1" xmlns="http://www.w3.org/2000/svg" xmlns:xlink="http://www.w3.org/1999/xlink" x="0px" y="0px"
	 width="24px" height="24px" viewBox="0 0 24 24" enable-background="new 0 0 24 24" xml:space="preserve">
<g>
	<path fill="none" stroke="#000000" stroke-linecap="round" stroke-linejoin="round" d="M2.9862,21.5813"/>
	<path fill="none" stroke="#000000" stroke-linecap="round" stroke-linejoin="round" d="M5.1632,21.5813"/>
	<path d="M10.4731,21.9717c-0.2764,0-0.5-0.2236-0.5-0.5v-7.9502c0-0.2764,0.2236-0.5,0.5-0.5s0.5,0.2236,0.5,0.5v7.9502
		C10.9731,21.748,10.7495,21.9717,10.4731,21.9717z"/>
	<path d="M8.4731,21.9717c-0.2764,0-0.5-0.2236-0.5-0.5v-7.9502c0-0.2764,0.2236-0.5,0.5-0.5s0.5,0.2236,0.5,0.5v7.9502
		C8.9731,21.748,8.7495,21.9717,8.4731,21.9717z"/>
	<path d="M5.4727,21.9717c-0.2764,0-0.5-0.2236-0.5-0.5v-7.9502c0-0.2764,0.2236-0.5,0.5-0.5s0.5,0.2236,0.5,0.5v7.9502
		C5.9727,21.748,5.749,21.9717,5.4727,21.9717z"/>
	<path d="M3.4727,21.9717c-0.2764,0-0.5-0.2236-0.5-0.5v-7.9502c0-0.2764,0.2236-0.5,0.5-0.5s0.5,0.2236,0.5,0.5v7.9502
		C3.9727,21.748,3.749,21.9717,3.4727,21.9717z"/>
	<path d="M15.4736,21.9717c-0.2764,0-0.5-0.2236-0.5-0.5v-7.9502c0-0.2764,0.2236-0.5,0.5-0.5s0.5,0.2236,0.5,0.5v7.9502
		C15.9736,21.748,15.75,21.9717,15.4736,21.9717z"/>
	<path d="M13.4736,21.9717c-0.2764,0-0.5-0.2236-0.5-0.5v-7.9502c0-0.2764,0.2236-0.5,0.5-0.5s0.5,0.2236,0.5,0.5v7.9502
		C13.9736,21.748,13.75,21.9717,13.4736,21.9717z"/>
	<path d="M20.4746,21.9717c-0.2764,0-0.5-0.2236-0.5-0.5v-7.9502c0-0.2764,0.2236-0.5,0.5-0.5s0.5,0.2236,0.5,0.5v7.9502
		C20.9746,21.748,20.751,21.9717,20.4746,21.9717z"/>
	<path d="M18.4736,21.9717c-0.2764,0-0.5-0.2236-0.5-0.5v-7.9502c0-0.2764,0.2236-0.5,0.5-0.5s0.5,0.2236,0.5,0.5v7.9502
		C18.9736,21.748,18.75,21.9717,18.4736,21.9717z"/>
	<path d="M23.3584,24.001H0.6128c-0.2764,0-0.5-0.2236-0.5-0.5s0.2236-0.5,0.5-0.5h22.7456c0.2764,0,0.5,0.2236,0.5,0.5
		S23.6348,24.001,23.3584,24.001z"/>
	<path d="M23.3584,12H0.6128c-0.2764,0-0.5-0.2236-0.5-0.5s0.2236-0.5,0.5-0.5h22.7456c0.2764,0,0.5,0.2236,0.5,0.5
		S23.6348,12,23.3584,12z"/>
	<path d="M16.3604,9.9326c-0.2764,0-0.5-0.2236-0.5-0.5c0-1.9497-1.7383-3.5356-3.8745-3.5356S8.1113,7.4829,8.1113,9.4326
		c0,0.2764-0.2236,0.5-0.5,0.5s-0.5-0.2236-0.5-0.5c0-2.501,2.1865-4.5356,4.8745-4.5356s4.8745,2.0347,4.8745,4.5356
		C16.8604,9.709,16.6367,9.9326,16.3604,9.9326z"/>
	<path d="M11.9858,5.897c-0.2764,0-0.5-0.2236-0.5-0.5V0.5059c0-0.2764,0.2236-0.5,0.5-0.5H14.79c0.2764,0,0.5,0.2236,0.5,0.5
		s-0.2236,0.5-0.5,0.5h-2.3047V5.397C12.4854,5.6733,12.2617,5.897,11.9858,5.897z"/>
</g>
<rect x="-0.0131" y="-0.0011" fill="none" width="24" height="24"/>
</svg>
