<?xml version="1.0" encoding="utf-8"?>
<!-- Generator: Adobe Illustrator 18.1.0, SVG Export Plug-In . SVG Version: 6.00 Build 0)  -->
<svg version="1.1" id="Layer_1" xmlns="http://www.w3.org/2000/svg" xmlns:xlink="http://www.w3.org/1999/xlink" x="0px" y="0px"
	 width="24px" height="24px" viewBox="0 0 24 24" enable-background="new 0 0 24 24" xml:space="preserve">
<g>
	<path d="M22.9893,24h-22c-0.2764,0-0.5-0.2236-0.5-0.5s0.2236-0.5,0.5-0.5h22c0.2764,0,0.5,0.2236,0.5,0.5S23.2656,24,22.9893,24z"
		/>
	<path d="M7.4863,23.9648c-0.2764,0-0.5-0.2236-0.5-0.5V1c0-0.2764,0.2236-0.5,0.5-0.5s0.5,0.2236,0.5,0.5v22.4648
		C7.9863,23.7412,7.7627,23.9648,7.4863,23.9648z"/>
	<path fill="none" stroke="#000000" stroke-linecap="round" stroke-linejoin="round" stroke-miterlimit="10" d="M12.8457,23.4324"/>
	<path d="M12.6553,15H7.5679c-0.2764,0-0.5-0.2236-0.5-0.5s0.2236-0.5,0.5-0.5h5.0874c0.2764,0,0.5,0.2236,0.5,0.5
		S12.9316,15,12.6553,15z"/>
	<path d="M11.7793,11H5.5405c-0.2764,0-0.5-0.2236-0.5-0.5s0.2236-0.5,0.5-0.5h6.2388c0.2764,0,0.5,0.2236,0.5,0.5
		S12.0557,11,11.7793,11z"/>
	<path d="M12.8457,19H7.5679c-0.2764,0-0.5-0.2236-0.5-0.5s0.2236-0.5,0.5-0.5h5.2778c0.2764,0,0.5,0.2236,0.5,0.5
		S13.1221,19,12.8457,19z"/>
	<path d="M16.9863,9h-4c-0.2764,0-0.5-0.2236-0.5-0.5S12.71,8,12.9863,8h4c0.2764,0,0.5,0.2236,0.5,0.5S17.2627,9,16.9863,9z"/>
	<path d="M14.9658,23.9648c-0.0312,0-0.0615-0.0029-0.0928-0.0088c-0.2715-0.0508-0.4502-0.3115-0.3994-0.583
		c1.834-9.7812-1.5098-14.8379-4.1973-17.2266c4.6162,6.8965,2.8037,16.9287,2.7129,17.4111
		c-0.0508,0.2715-0.3193,0.4463-0.584,0.3984c-0.2705-0.0508-0.4497-0.3125-0.3984-0.584
		c0.0244-0.1289,2.3438-12.9971-4.7671-19.1851c-0.1816-0.1577-0.2246-0.4224-0.103-0.6299s0.3735-0.2993,0.6001-0.2178
		c0.1113,0.04,2.7617,1.0156,5.0474,4.021c2.0898,2.7471,4.249,7.7871,2.6719,16.1963
		C15.4111,23.7969,15.2012,23.9648,14.9658,23.9648z"/>
</g>
<rect x="-0.0136" fill="none" width="24" height="24"/>
</svg>
