<?xml version="1.0" encoding="utf-8"?>
<!-- Generator: Adobe Illustrator 18.1.0, SVG Export Plug-In . SVG Version: 6.00 Build 0)  -->
<svg version="1.1" id="Layer_1" xmlns="http://www.w3.org/2000/svg" xmlns:xlink="http://www.w3.org/1999/xlink" x="0px" y="0px"
	 width="24px" height="24px" viewBox="0 0 24 24" enable-background="new 0 0 24 24" xml:space="preserve">
<g>
	<path d="M21.1074,24H2.7373C1.1514,24,0,22.8203,0,21.1953V2.7646C0,1.1626,1.1514,0,2.7373,0h18.3701
		C22.7568,0,24,1.1885,24,2.7646v18.4297C24,22.7676,22.7295,24,21.1074,24z M2.7373,1C1.6982,1,1,1.709,1,2.7646v18.4307
		C1,22.2578,1.7144,23,2.7373,23h18.3701C22.1865,23,23,22.2236,23,21.1943V2.7646C23,1.7588,22.1865,1,21.1074,1H2.7373z"/>
	<rect x="0.5" y="7" width="23" height="1"/>
	<rect x="4" y="7.4521" width="1" height="16.0479"/>
	<rect x="9" y="7.4521" width="1" height="16.0479"/>
	<rect x="14" y="7.4521" width="1" height="16.0479"/>
	<rect x="19" y="7.4521" width="1" height="16.0479"/>
	<rect x="0.5" y="19" width="23" height="1"/>
	<rect x="0.5" y="15" width="23" height="1"/>
	<rect x="0.5" y="11" width="23" height="1"/>
	<path d="M7.6416,4.8965c-0.7344,0-1.332-0.5977-1.332-1.332c0-0.7349,0.5977-1.3325,1.332-1.3325
		c0.7349,0,1.3325,0.5977,1.3325,1.3325C8.9741,4.2988,8.3765,4.8965,7.6416,4.8965z M7.6416,3.2319
		c-0.1831,0-0.332,0.1489-0.332,0.3325c0,0.1831,0.1489,0.332,0.332,0.332c0.1836,0,0.3325-0.1489,0.3325-0.332
		C7.9741,3.3809,7.8252,3.2319,7.6416,3.2319z"/>
	<path d="M16.3584,4.8965c-0.7344,0-1.332-0.5977-1.332-1.332c0-0.7349,0.5977-1.3325,1.332-1.3325s1.332,0.5977,1.332,1.3325
		C17.6904,4.2988,17.0928,4.8965,16.3584,4.8965z M16.3584,3.2319c-0.1826,0-0.332,0.1489-0.332,0.3325
		c0,0.1831,0.1494,0.332,0.332,0.332s0.332-0.1489,0.332-0.332C16.6904,3.3809,16.541,3.2319,16.3584,3.2319z"/>
</g>
<rect fill="none" width="24" height="24"/>
</svg>
