<?xml version="1.0" encoding="utf-8"?>
<!-- Generator: Adobe Illustrator 18.1.0, SVG Export Plug-In . SVG Version: 6.00 Build 0)  -->
<svg version="1.1" id="Layer_1" xmlns="http://www.w3.org/2000/svg" xmlns:xlink="http://www.w3.org/1999/xlink" x="0px" y="0px"
	 width="24px" height="24px" viewBox="0 0 24 24" enable-background="new 0 0 24 24" xml:space="preserve">
<g>
	<path fill="none" stroke="#000000" stroke-linecap="round" stroke-linejoin="round" d="M0.4949,14.6438"/>
	<path d="M8.1401,17.0527c-0.0308,0-0.0615,0-0.0972,0l-0.1816-0.001c-3.9092,0-7.8662-1.0127-7.8662-2.9492
		c0-0.2764,0.2236-0.5,0.5-0.5s0.5,0.2236,0.5,0.5c0,0.7949,2.6748,1.9492,6.8662,1.9492l0.189,0.001
		c0.1055-0.001,0.1606,0.001,0.3394-0.0059c0.2632,0.002,0.5078,0.2051,0.5176,0.4814c0.0103,0.2764-0.2051,0.5078-0.4814,0.5186
		C8.2847,17.0518,8.2129,17.0527,8.1401,17.0527z"/>
	<path fill="none" stroke="#000000" stroke-linecap="round" stroke-linejoin="round" d="M0.4949,11.6537"/>
	<path d="M8.1831,14.0625c-0.0352,0-0.0723,0-0.1152,0l-0.2065-0.001c-3.9092,0-7.8662-1.0127-7.8662-2.9492
		c0-0.2764,0.2236-0.5,0.5-0.5s0.5,0.2236,0.5,0.5c0,0.7949,2.6748,1.9492,6.8662,1.9492l0.2119,0.001
		c0.1665-0.001,0.2349,0.001,0.4854-0.0107c0.2671-0.0439,0.5103,0.1982,0.5234,0.4756c0.0132,0.2754-0.1997,0.5098-0.4756,0.5225
		C8.3931,14.0605,8.2998,14.0625,8.1831,14.0625z"/>
	<path fill="none" stroke="#000000" stroke-linecap="round" stroke-linejoin="round" d="M0.4949,8.6636"/>
	<path d="M7.8613,11.0718c-3.9092,0-7.8662-1.0132-7.8662-2.9492c0-0.2764,0.2236-0.5,0.5-0.5s0.5,0.2236,0.5,0.5
		c0,0.7949,2.6748,1.9492,6.8662,1.9492c4.1924,0,6.8672-1.1543,6.8672-1.9492c0-0.2764,0.2236-0.5,0.5-0.5s0.5,0.2236,0.5,0.5
		C15.7285,10.0586,11.771,11.0718,7.8613,11.0718z"/>
	<path fill="none" stroke="#000000" stroke-linecap="round" stroke-linejoin="round" d="M0.4949,5.6735"/>
	<path d="M8.146,20.043c-0.0312,0-0.0625,0-0.0991,0l-0.1855-0.001c-3.9092,0-7.8667-1.0127-7.8667-2.9492V4.9951
		c0-0.2764,0.2236-0.5,0.5-0.5s0.5,0.2236,0.5,0.5v12.0977c0,0.7949,2.6748,1.9492,6.8667,1.9492l0.1929,0.001
		c0.1104,0,0.166,0.001,0.3477-0.0059c0.272,0.0039,0.5078,0.2051,0.5176,0.4824c0.0103,0.2754-0.2056,0.5078-0.4814,0.5176
		C8.2939,20.042,8.2202,20.043,8.146,20.043z"/>
	<path d="M15.2285,12.0156c-0.2764,0-0.5-0.2236-0.5-0.5V4.9951c0-0.2764,0.2236-0.5,0.5-0.5s0.5,0.2236,0.5,0.5v6.5205
		C15.7285,11.792,15.5049,12.0156,15.2285,12.0156z"/>
	<path d="M7.8618,7.9443c-3.9097,0-7.8672-1.0132-7.8672-2.9492s3.9575-2.9492,7.8672-2.9492c3.9092,0,7.8667,1.0132,7.8667,2.9492
		S11.771,7.9443,7.8618,7.9443z M7.8618,3.0459c-4.1919,0-6.8672,1.1543-6.8672,1.9492s2.6753,1.9492,6.8672,1.9492
		s6.8667-1.1543,6.8667-1.9492S12.0537,3.0459,7.8618,3.0459z"/>
	<path fill="none" stroke="#000000" stroke-linecap="round" stroke-linejoin="round" d="M23.4461,17.7227"/>
	<path fill="none" stroke="#000000" stroke-linecap="round" stroke-linejoin="round" d="M23.4461,14.8369"/>
	<path d="M15.9473,20.0645c-3.9746,0-7.998-0.9834-7.998-2.8643c0-0.2764,0.2236-0.5,0.5-0.5s0.5,0.2236,0.5,0.5
		c0,0.7598,2.7261,1.8643,6.998,1.8643c4.2725,0,6.999-1.1045,6.999-1.8643c0-0.2764,0.2236-0.5,0.5-0.5s0.5,0.2236,0.5,0.5
		C23.9463,19.0811,19.9219,20.0645,15.9473,20.0645z"/>
	<path d="M15.9473,22.9502c-3.9746,0-7.998-0.9834-7.998-2.8643v-5.9033c0-0.2764,0.2236-0.5,0.5-0.5s0.5,0.2236,0.5,0.5v5.9033
		c0,0.7598,2.7261,1.8643,6.998,1.8643c4.2725,0,6.999-1.1045,6.999-1.8643v-5.9033c0-0.2764,0.2236-0.5,0.5-0.5s0.5,0.2236,0.5,0.5
		v5.9033C23.9463,21.9668,19.9219,22.9502,15.9473,22.9502z"/>
	<path d="M15.9473,17.0459c-3.9746,0-7.998-1.0381-7.998-3.0215s4.0234-3.021,7.998-3.021s7.999,1.0376,7.999,3.021
		S19.9219,17.0459,15.9473,17.0459z M15.9473,12.0029c-4.272,0-6.998,1.1973-6.998,2.0215s2.7261,2.0215,6.998,2.0215
		c4.2725,0,6.999-1.1973,6.999-2.0215S20.2197,12.0029,15.9473,12.0029z"/>
</g>
<rect x="-0.0136" y="0.0031" fill="none" width="24" height="24"/>
<rect x="-0.0136" fill="none" width="24" height="24"/>
</svg>
