<?xml version="1.0" encoding="utf-8"?>
<!-- Generator: Adobe Illustrator 18.1.0, SVG Export Plug-In . SVG Version: 6.00 Build 0)  -->
<svg version="1.1" id="Layer_1" xmlns="http://www.w3.org/2000/svg" xmlns:xlink="http://www.w3.org/1999/xlink" x="0px" y="0px"
	 width="24px" height="24px" viewBox="0 0 24 24" enable-background="new 0 0 24 24" xml:space="preserve">
<g>
	<path d="M11.479,17H6.5C6.2236,17,6,16.7764,6,16.5S6.2236,16,6.5,16h4.979c0.2764,0,0.5,0.2236,0.5,0.5S11.7554,17,11.479,17z"/>
	<path d="M11.479,14H6.5C6.2236,14,6,13.7764,6,13.5S6.2236,13,6.5,13h4.979c0.2764,0,0.5,0.2236,0.5,0.5S11.7554,14,11.479,14z"/>
	<path d="M11.479,17H6.5C6.2236,17,6,16.7764,6,16.5S6.2236,16,6.5,16h4.979c0.2764,0,0.5,0.2236,0.5,0.5S11.7554,17,11.479,17z"/>
	<path d="M11.479,11H6.5C6.2236,11,6,10.7764,6,10.5S6.2236,10,6.5,10h4.979c0.2764,0,0.5,0.2236,0.5,0.5S11.7554,11,11.479,11z"/>
	<path d="M11.479,8H6.5C6.2236,8,6,7.7764,6,7.5S6.2236,7,6.5,7h4.979c0.2764,0,0.5,0.2236,0.5,0.5S11.7554,8,11.479,8z"/>
	<path d="M20.4795,17H14.501c-0.2764,0-0.5-0.2236-0.5-0.5s0.2236-0.5,0.5-0.5h5.9785c0.2764,0,0.5,0.2236,0.5,0.5
		S20.7559,17,20.4795,17z"/>
	<path d="M20.4795,17H14.501c-0.2764,0-0.5-0.2236-0.5-0.5s0.2236-0.5,0.5-0.5h5.9785c0.2764,0,0.5,0.2236,0.5,0.5
		S20.7559,17,20.4795,17z"/>
	<path d="M20.4805,14H14.501c-0.2764,0-0.5-0.2236-0.5-0.5v-6c0-0.2764,0.2236-0.5,0.5-0.5h5.9795c0.2764,0,0.5,0.2236,0.5,0.5v6
		C20.9805,13.7764,20.7568,14,20.4805,14z M15.001,13h4.9795V8H15.001V13z"/>
	<path d="M21.8115,20.0322H2.085c-0.2764,0-0.5-0.2236-0.5-0.5s0.2236-0.5,0.5-0.5h19.7266c0.6592,0,1.1758-0.5293,1.1758-1.2061
		V6.3789c0-0.7188-0.5654-1.3257-1.2354-1.3257H3.9966v0.9404c0,0.2764-0.2236,0.5-0.5,0.5s-0.5-0.2236-0.5-0.5V4.5532
		c0-0.2764,0.2236-0.5,0.5-0.5H21.752c1.2324,0,2.2354,1.0435,2.2354,2.3257v11.4473
		C23.9873,19.043,23.0117,20.0322,21.8115,20.0322z"/>
	<path d="M1.9966,20.0361c-1.0801,0-1.9922-0.9268-1.9922-2.0244V5.9937c0-0.2764,0.2236-0.5,0.5-0.5h2.9927
		c0.2764,0,0.5,0.2236,0.5,0.5v12.0093C3.9966,19.1055,3.0806,20.0361,1.9966,20.0361z M1.0044,6.4937v11.5181
		c0,0.5459,0.4639,1.0244,0.9922,1.0244c0.5327,0,1-0.4824,1-1.0332L2.9971,6.4937H1.0044z"/>
</g>
<rect fill="none" width="24" height="24"/>
</svg>
