<?xml version="1.0" encoding="utf-8"?>
<!-- Generator: Adobe Illustrator 18.1.0, SVG Export Plug-In . SVG Version: 6.00 Build 0)  -->
<svg version="1.1" id="Layer_1" xmlns="http://www.w3.org/2000/svg" xmlns:xlink="http://www.w3.org/1999/xlink" x="0px" y="0px"
	 width="24px" height="24px" viewBox="0 0 24 24" enable-background="new 0 0 24 24" xml:space="preserve">
<g>
	<path d="M12,16.3232c-0.6953,0-1.2607-0.5654-1.2607-1.2607S11.3047,13.8018,12,13.8018s1.2607,0.5654,1.2607,1.2607
		S12.6953,16.3232,12,16.3232z M12,14.8018c-0.1436,0-0.2607,0.1172-0.2607,0.2607c0,0.2871,0.5215,0.2871,0.5215,0
		C12.2607,14.9189,12.1436,14.8018,12,14.8018z"/>
	<path d="M12,14.8018c-0.2764,0-0.5-0.2236-0.5-0.5v-3.229c0-0.2764,0.2236-0.5,0.5-0.5s0.5,0.2236,0.5,0.5v3.229
		C12.5,14.5781,12.2764,14.8018,12,14.8018z"/>
	<path d="M12,20.8721c-3.2036,0-5.8101-2.6064-5.8101-5.8096c0-3.2041,2.6064-5.8105,5.8101-5.8105
		c3.2041,0,5.8105,2.6064,5.8105,5.8105C17.8105,18.2656,15.2041,20.8721,12,20.8721z M12,10.252
		c-2.6523,0-4.8101,2.1582-4.8101,4.8105S9.3477,19.8721,12,19.8721s4.8105-2.1572,4.8105-4.8096S14.6523,10.252,12,10.252z"/>
	<path d="M18.3672,23.9639H5.6328c-0.9136,0-1.6572-0.7432-1.6572-1.6562v-7.0029c0-4.3691,3.4688-8.0474,7.7324-8.1987
		c4.5557-0.1821,8.3164,3.4976,8.3164,8.019v7.1826C20.0244,23.2207,19.2812,23.9639,18.3672,23.9639z M12,8.1006L11.7432,8.105
		c-3.7314,0.1328-6.7676,3.3628-6.7676,7.1997v7.0029c0,0.3623,0.2949,0.6562,0.6572,0.6562h12.7344
		c0.3623,0,0.6572-0.2939,0.6572-0.6562V15.125C19.0244,11.252,15.873,8.1006,12,8.1006z"/>
	<path d="M13.5,8.2505c-0.2764,0-0.5-0.2236-0.5-0.5V5.5576c0-0.2764,0.2236-0.5,0.5-0.5s0.5,0.2236,0.5,0.5v2.1929
		C14,8.0269,13.7764,8.2505,13.5,8.2505z"/>
	<path d="M10.5,8.2529c-0.2764,0-0.5-0.2236-0.5-0.5V5.5576c0-0.2764,0.2236-0.5,0.5-0.5s0.5,0.2236,0.5,0.5v2.1953
		C11,8.0293,10.7764,8.2529,10.5,8.2529z"/>
	<path d="M20.2988,4.0195H3.7012C2.3379,4.0195,1,2.686,1,1.3271V0.5195c0-0.2764,0.2236-0.5,0.5-0.5h21
		c0.2764,0,0.5,0.2236,0.5,0.5v0.8076C23,2.686,21.6621,4.0195,20.2988,4.0195z M2,1.0195v0.3076
		c0,0.791,0.9062,1.6924,1.7012,1.6924h16.5977C21.0938,3.0195,22,2.1182,22,1.3271V1.0195H2z"/>
</g>
<rect y="0.0197" fill="none" width="24" height="24"/>
</svg>
