<?xml version="1.0" encoding="utf-8"?>
<!-- Generator: Adobe Illustrator 18.1.0, SVG Export Plug-In . SVG Version: 6.00 Build 0)  -->
<svg version="1.1" id="Layer_1" xmlns="http://www.w3.org/2000/svg" xmlns:xlink="http://www.w3.org/1999/xlink" x="0px" y="0px"
	 width="24px" height="24px" viewBox="0 0 24 24" enable-background="new 0 0 24 24" xml:space="preserve">
<g>
	<path d="M21.4482,23.9932H2.4644c-0.2764,0-0.5-0.2236-0.5-0.5V2.0439c0-0.2764,0.2236-0.5,0.5-0.5h18.9839
		c0.2764,0,0.5,0.2236,0.5,0.5v21.4492C21.9482,23.7695,21.7246,23.9932,21.4482,23.9932z M2.9644,22.9932h17.9839V2.5439H2.9644
		V22.9932z"/>
	<path d="M6.4966,5.2871c-0.2764,0-0.5-0.2236-0.5-0.5v-4.21c0-0.2764,0.2236-0.5,0.5-0.5s0.5,0.2236,0.5,0.5v4.21
		C6.9966,5.0635,6.7729,5.2871,6.4966,5.2871z"/>
	<path d="M12.0098,5.2871c-0.2764,0-0.5-0.2236-0.5-0.5v-4.21c0-0.2764,0.2236-0.5,0.5-0.5s0.5,0.2236,0.5,0.5v4.21
		C12.5098,5.0635,12.2861,5.2871,12.0098,5.2871z"/>
	<path d="M6.4961,7.1763c-0.9175,0-1.6641-0.7432-1.6641-1.6567s0.7466-1.6572,1.6641-1.6572S8.1602,4.606,8.1602,5.5195
		S7.4136,7.1763,6.4961,7.1763z M6.4961,4.8623c-0.3662,0-0.6641,0.2949-0.6641,0.6572s0.2979,0.6567,0.6641,0.6567
		s0.6641-0.2944,0.6641-0.6567S6.8623,4.8623,6.4961,4.8623z"/>
	<path d="M17.498,5.2871c-0.2764,0-0.5-0.2236-0.5-0.5v-4.21c0-0.2764,0.2236-0.5,0.5-0.5s0.5,0.2236,0.5,0.5v4.21
		C17.998,5.0635,17.7744,5.2871,17.498,5.2871z"/>
	<path d="M17.4971,7.1763c-0.918,0-1.6641-0.7432-1.6641-1.6567s0.7461-1.6572,1.6641-1.6572s1.6641,0.7437,1.6641,1.6572
		S18.415,7.1763,17.4971,7.1763z M17.4971,4.8623c-0.3662,0-0.6641,0.2949-0.6641,0.6572s0.2979,0.6567,0.6641,0.6567
		s0.6641-0.2944,0.6641-0.6567S17.8633,4.8623,17.4971,4.8623z"/>
	<path d="M12.0049,7.1763c-0.9175,0-1.6641-0.7432-1.6641-1.6567s0.7466-1.6572,1.6641-1.6572c0.918,0,1.6641,0.7437,1.6641,1.6572
		S12.9229,7.1763,12.0049,7.1763z M12.0049,4.8623c-0.3662,0-0.6641,0.2949-0.6641,0.6572s0.2979,0.6567,0.6641,0.6567
		s0.6641-0.2944,0.6641-0.6567S12.3711,4.8623,12.0049,4.8623z"/>
	<path d="M17.4541,12.0352h-6.8018c-0.2764,0-0.5-0.2236-0.5-0.5s0.2236-0.5,0.5-0.5h6.8018c0.2764,0,0.5,0.2236,0.5,0.5
		S17.7305,12.0352,17.4541,12.0352z"/>
	<path d="M8.5249,13.0264H6.4961c-0.2764,0-0.5-0.2236-0.5-0.5v-2.0479c0-0.2764,0.2236-0.5,0.5-0.5h2.0288
		c0.2764,0,0.5,0.2236,0.5,0.5v2.0479C9.0249,12.8027,8.8013,13.0264,8.5249,13.0264z M6.9961,12.0264h1.0288v-1.0479H6.9961
		V12.0264z"/>
	<path d="M17.4541,16.0352h-6.8018c-0.2764,0-0.5-0.2236-0.5-0.5s0.2236-0.5,0.5-0.5h6.8018c0.2764,0,0.5,0.2236,0.5,0.5
		S17.7305,16.0352,17.4541,16.0352z"/>
	<path d="M17.4541,20.0361h-6.8018c-0.2764,0-0.5-0.2236-0.5-0.5s0.2236-0.5,0.5-0.5h6.8018c0.2764,0,0.5,0.2236,0.5,0.5
		S17.7305,20.0361,17.4541,20.0361z"/>
	<path d="M8.5249,17.0264H6.4961c-0.2764,0-0.5-0.2236-0.5-0.5v-2.0479c0-0.2764,0.2236-0.5,0.5-0.5h2.0288
		c0.2764,0,0.5,0.2236,0.5,0.5v2.0479C9.0249,16.8027,8.8013,17.0264,8.5249,17.0264z M6.9961,16.0264h1.0288v-1.0479H6.9961
		V16.0264z"/>
	<path d="M8.5249,21.0264H6.4961c-0.2764,0-0.5-0.2236-0.5-0.5v-2.0469c0-0.2764,0.2236-0.5,0.5-0.5h2.0288
		c0.2764,0,0.5,0.2236,0.5,0.5v2.0469C9.0249,20.8027,8.8013,21.0264,8.5249,21.0264z M6.9961,20.0264h1.0288v-1.0469H6.9961
		V20.0264z"/>
</g>
<rect y="0.0001" fill="none" width="24" height="24"/>
</svg>
