<?xml version="1.0" encoding="utf-8"?>
<!-- Generator: Adobe Illustrator 18.1.0, SVG Export Plug-In . SVG Version: 6.00 Build 0)  -->
<svg version="1.1" id="Layer_1" xmlns="http://www.w3.org/2000/svg" xmlns:xlink="http://www.w3.org/1999/xlink" x="0px" y="0px"
	 width="24px" height="24px" viewBox="0 0 24 24" enable-background="new 0 0 24 24" xml:space="preserve">
<g>
	<path d="M20.5176,12.0029c-0.2764,0-0.5-0.2231-0.5-0.4995V8.5669c0-0.2764,0.2236-0.5,0.5-0.5s0.5,0.2236,0.5,0.5v2.9365
		C21.0176,11.7798,20.7939,12.0029,20.5176,12.0029z"/>
	<path d="M16.209,20.0342H6.8257c-1.5488,0-2.8086-1.2598-2.8086-2.8076V6.8428c0-1.5483,1.2598-2.8081,2.8086-2.8081h9.3833
		c1.5488,0,2.8086,1.2598,2.8086,2.8081v10.3838C19.0176,18.7744,17.7578,20.0342,16.209,20.0342z M6.8257,5.0347
		c-0.9971,0-1.8086,0.811-1.8086,1.8081v10.3838c0,0.9971,0.8115,1.8076,1.8086,1.8076h9.3833c0.9971,0,1.8086-0.8105,1.8086-1.8076
		V6.8428c0-0.9971-0.8115-1.8081-1.8086-1.8081H6.8257z"/>
	<path d="M6.3267,5.0894c-0.2158,0-0.4146-0.1401-0.479-0.3574C5.7686,4.4673,5.9194,4.189,6.1841,4.1104
		c0.4839-0.144,0.9536-1.644,1.0508-2.8887c0.0522-0.6655,0.5889-1.187,1.2217-1.187h6.1392c0.6338,0,1.1709,0.522,1.2217,1.1885
		c0.0977,1.2432,0.5674,2.7432,1.0508,2.8872c0.2646,0.0786,0.415,0.3569,0.3369,0.6216s-0.3525,0.417-0.6221,0.3364
		c-1.4854-0.4419-1.7529-3.6328-1.7627-3.7686c-0.0107-0.1392-0.1182-0.2651-0.2246-0.2651H8.4565
		c-0.1069,0-0.2139,0.1265-0.2246,0.2651C8.2212,1.4351,7.9556,4.626,6.4692,5.0684C6.4219,5.0825,6.3735,5.0894,6.3267,5.0894z"/>
	<path d="M14.5957,24.0342H8.4565c-0.6348,0-1.1714-0.5117-1.2217-1.165c-0.2036-2.6064-0.8013-2.8584-0.8691-2.8779
		c-0.2646-0.0791-0.415-0.3574-0.3359-0.6221c0.0781-0.2646,0.3555-0.4121,0.6221-0.3369c0.8862,0.2646,1.4033,1.4941,1.5801,3.7598
		c0.0103,0.1338,0.1108,0.2422,0.2246,0.2422h6.1392c0.1133,0,0.2139-0.1084,0.2246-0.2422
		c0.0977-1.2549,0.4434-3.4141,1.6514-3.7734c0.2676-0.0762,0.543,0.0732,0.6221,0.3369c0.0781,0.2646-0.0723,0.543-0.3369,0.6221
		c-0.3535,0.1045-0.8037,1.1543-0.9404,2.8926C15.7656,23.5225,15.2295,24.0342,14.5957,24.0342z"/>
	<path d="M13.2568,8.7432c-0.7871,0-1.4268-0.6401-1.4268-1.4268s0.6396-1.4263,1.4268-1.4263s1.4268,0.6396,1.4268,1.4263
		S14.0439,8.7432,13.2568,8.7432z M13.2568,6.8901c-0.2354,0-0.4268,0.1914-0.4268,0.4263c0,0.2354,0.1914,0.4268,0.4268,0.4268
		s0.4268-0.1914,0.4268-0.4268C13.6836,7.0815,13.4922,6.8901,13.2568,6.8901z"/>
	<path d="M12.5195,17.9648c-0.2754,0-0.499-0.2227-0.5-0.499c0-0.0205-0.0059-2.0645-0.0449-2.7012l-1.5312-1.5537
		c-0.0312-0.0322-0.0586-0.0674-0.0801-0.1074c-0.1885-0.3369-0.23-0.7422-0.1143-1.1113l0.625-1.9995
		c0.2358-0.751,1.0015-1.2085,1.7373-1.0488c0.4043,0.0889,0.7549,0.3447,0.9619,0.7017s0.2549,0.7871,0.1318,1.1807l-0.1553,1.2529
		l1.3633,0.0215c0.2764,0.0049,0.4961,0.2314,0.4922,0.5078s-0.2314,0.5-0.5078,0.4922l-1.9199-0.0303
		c-0.1426-0.002-0.2773-0.0654-0.3701-0.1729s-0.1357-0.249-0.1182-0.3906l0.2422-1.894c0.0596-0.2144,0.0439-0.3496-0.0234-0.4663
		c-0.0674-0.1162-0.1777-0.1968-0.3115-0.2261c-0.2344-0.0513-0.4888,0.1157-0.5684,0.3711l-0.625,1.9995
		c-0.0283,0.0908-0.0244,0.1895,0.0103,0.2764l1.4761,1.501c0.1699,0.1738,0.2695,0.3994,0.2832,0.6377
		c0.04,0.6631,0.0469,2.6719,0.0469,2.7578c0.001,0.2754-0.2227,0.5-0.499,0.501H12.5195z"/>
	<path d="M9.4111,15.0889H7.1489c-0.2764,0-0.5-0.2236-0.5-0.5s0.2236-0.5,0.5-0.5h2.041l0.4707-0.5176
		c0.1865-0.2041,0.5029-0.2178,0.7061-0.0332c0.2041,0.1865,0.2192,0.502,0.0332,0.707l-0.6191,0.6807
		C9.686,15.0293,9.5518,15.0889,9.4111,15.0889z"/>
	<path d="M8.6221,11.8105c-0.0767,0-0.1543-0.0176-0.2275-0.0552c-0.2456-0.1255-0.3428-0.4268-0.2168-0.6729l0.9062-1.77
		c0.0854-0.167,0.2573-0.272,0.4448-0.272h0.7427c0.2764,0,0.5,0.2236,0.5,0.5s-0.2236,0.5-0.5,0.5h-0.437l-0.7671,1.498
		C8.979,11.7114,8.8037,11.8105,8.6221,11.8105z"/>
</g>
<rect x="0.0142" y="0.0346" fill="none" width="24" height="24"/>
</svg>
