<?xml version="1.0" encoding="utf-8"?>
<!-- Generator: Adobe Illustrator 18.1.0, SVG Export Plug-In . SVG Version: 6.00 Build 0)  -->
<svg version="1.1" id="Layer_1" xmlns="http://www.w3.org/2000/svg" xmlns:xlink="http://www.w3.org/1999/xlink" x="0px" y="0px"
	 width="24px" height="24px" viewBox="0 0 24 24" enable-background="new 0 0 24 24" xml:space="preserve">
<g>
	<path d="M20.5,21h-17C3.2236,21,3,20.7764,3,20.5v-17C3,3.2236,3.2236,3,3.5,3h17C20.7764,3,21,3.2236,21,3.5v17
		C21,20.7764,20.7764,21,20.5,21z M4,20h16V4H4V20z"/>
	<path d="M11.5,4C11.2236,4,11,3.7764,11,3.5V0.5889c0-0.2764,0.2236-0.5,0.5-0.5s0.5,0.2236,0.5,0.5V3.5
		C12,3.7764,11.7764,4,11.5,4z"/>
	<path d="M8.5,4C8.2236,4,8,3.7764,8,3.5V0.5889c0-0.2764,0.2236-0.5,0.5-0.5S9,0.3125,9,0.5889V3.5C9,3.7764,8.7764,4,8.5,4z"/>
	<path d="M5.5,4C5.2236,4,5,3.7764,5,3.5V0.5889c0-0.2764,0.2236-0.5,0.5-0.5S6,0.3125,6,0.5889V3.5C6,3.7764,5.7764,4,5.5,4z"/>
	<path d="M15.5,4C15.2236,4,15,3.7764,15,3.5V0.5889c0-0.2764,0.2236-0.5,0.5-0.5s0.5,0.2236,0.5,0.5V3.5
		C16,3.7764,15.7764,4,15.5,4z"/>
	<path d="M18.5,4C18.2236,4,18,3.7764,18,3.5V0.5889c0-0.2764,0.2236-0.5,0.5-0.5s0.5,0.2236,0.5,0.5V3.5
		C19,3.7764,18.7764,4,18.5,4z"/>
	<path d="M11.5,23.9111c-0.2764,0-0.5-0.2236-0.5-0.5V20.5c0-0.2764,0.2236-0.5,0.5-0.5s0.5,0.2236,0.5,0.5v2.9111
		C12,23.6875,11.7764,23.9111,11.5,23.9111z"/>
	<path d="M8.5,23.9111c-0.2764,0-0.5-0.2236-0.5-0.5V20.5C8,20.2236,8.2236,20,8.5,20S9,20.2236,9,20.5v2.9111
		C9,23.6875,8.7764,23.9111,8.5,23.9111z"/>
	<path d="M5.5,23.9111c-0.2764,0-0.5-0.2236-0.5-0.5V20.5C5,20.2236,5.2236,20,5.5,20S6,20.2236,6,20.5v2.9111
		C6,23.6875,5.7764,23.9111,5.5,23.9111z"/>
	<path d="M15.5,23.9111c-0.2764,0-0.5-0.2236-0.5-0.5V20.5c0-0.2764,0.2236-0.5,0.5-0.5s0.5,0.2236,0.5,0.5v2.9111
		C16,23.6875,15.7764,23.9111,15.5,23.9111z"/>
	<path d="M18.5,23.9111c-0.2764,0-0.5-0.2236-0.5-0.5V20.5c0-0.2764,0.2236-0.5,0.5-0.5s0.5,0.2236,0.5,0.5v2.9111
		C19,23.6875,18.7764,23.9111,18.5,23.9111z"/>
	<path d="M23.4111,12H20.5c-0.2764,0-0.5-0.2236-0.5-0.5s0.2236-0.5,0.5-0.5h2.9111c0.2764,0,0.5,0.2236,0.5,0.5
		S23.6875,12,23.4111,12z"/>
	<path d="M23.4111,9H20.5C20.2236,9,20,8.7764,20,8.5S20.2236,8,20.5,8h2.9111c0.2764,0,0.5,0.2236,0.5,0.5S23.6875,9,23.4111,9z"/>
	<path d="M23.4111,6H20.5C20.2236,6,20,5.7764,20,5.5S20.2236,5,20.5,5h2.9111c0.2764,0,0.5,0.2236,0.5,0.5S23.6875,6,23.4111,6z"/>
	<path d="M23.4111,16H20.5c-0.2764,0-0.5-0.2236-0.5-0.5s0.2236-0.5,0.5-0.5h2.9111c0.2764,0,0.5,0.2236,0.5,0.5
		S23.6875,16,23.4111,16z"/>
	<path d="M23.4111,19H20.5c-0.2764,0-0.5-0.2236-0.5-0.5s0.2236-0.5,0.5-0.5h2.9111c0.2764,0,0.5,0.2236,0.5,0.5
		S23.6875,19,23.4111,19z"/>
	<path d="M3.5,12H0.5889c-0.2764,0-0.5-0.2236-0.5-0.5s0.2236-0.5,0.5-0.5H3.5C3.7764,11,4,11.2236,4,11.5S3.7764,12,3.5,12z"/>
	<path d="M3.5,9H0.5889c-0.2764,0-0.5-0.2236-0.5-0.5S0.3125,8,0.5889,8H3.5C3.7764,8,4,8.2236,4,8.5S3.7764,9,3.5,9z"/>
	<path d="M3.5,6H0.5889c-0.2764,0-0.5-0.2236-0.5-0.5S0.3125,5,0.5889,5H3.5C3.7764,5,4,5.2236,4,5.5S3.7764,6,3.5,6z"/>
	<path d="M3.5,16H0.5889c-0.2764,0-0.5-0.2236-0.5-0.5s0.2236-0.5,0.5-0.5H3.5C3.7764,15,4,15.2236,4,15.5S3.7764,16,3.5,16z"/>
	<path d="M3.5,19H0.5889c-0.2764,0-0.5-0.2236-0.5-0.5s0.2236-0.5,0.5-0.5H3.5C3.7764,18,4,18.2236,4,18.5S3.7764,19,3.5,19z"/>
	<path d="M7.2153,14.4141c-0.1948,0-0.3804-0.1152-0.4609-0.3066c-0.2085-0.4951-0.3184-1.0537-0.3184-1.6152
		c0-1.9131,1.252-3.4697,2.7905-3.4697c0.7212,0,1.4038,0.3374,1.9229,0.9497c0.1787,0.2104,0.1523,0.5264-0.0581,0.7046
		c-0.2114,0.1792-0.5273,0.1519-0.7046-0.0581c-0.3257-0.3843-0.7378-0.5962-1.1602-0.5962c-0.9873,0-1.7905,1.1079-1.7905,2.4697
		c0,0.4297,0.083,0.8545,0.2402,1.2285c0.1069,0.2539-0.0127,0.5469-0.2671,0.6543C7.3457,14.4014,7.2803,14.4141,7.2153,14.4141z"
		/>
	<path d="M9.2266,15.9609c-1.043,0-1.9902-0.71-2.4722-1.8525c-0.0176-0.042-0.0293-0.0859-0.0352-0.1318
		c-0.0112-0.0898-0.019-0.1807-0.019-0.2744c0-1.2549,1.1011-2.2764,2.4541-2.2764s2.4541,1.0215,2.4541,2.2764
		c0,0.4141-0.123,0.8213-0.356,1.1787C10.6997,15.5898,9.9893,15.9609,9.2266,15.9609z M7.7041,13.7842
		c0.3281,0.7275,0.9067,1.1768,1.5225,1.1768c0.4482,0,0.8794-0.2354,1.2134-0.6621c0.1035-0.1611,0.1685-0.374,0.1685-0.5967
		c0-0.7041-0.6523-1.2764-1.4541-1.2764s-1.4541,0.5723-1.4541,1.2764C7.7002,13.7295,7.7017,13.7568,7.7041,13.7842z"/>
	<path d="M16.2988,15.9424c-0.2764,0-0.5-0.2236-0.5-0.5v-1.0166h-3.0371c-0.1924,0-0.3682-0.1104-0.4512-0.2842
		s-0.0586-0.3799,0.0625-0.5293l3.5371-4.3848c0.1338-0.165,0.3594-0.2271,0.5547-0.1577c0.2002,0.0708,0.334,0.2598,0.334,0.4717
		v3.8843h0.5596c0.2764,0,0.5,0.2236,0.5,0.5s-0.2236,0.5-0.5,0.5h-0.5596v1.0166C16.7988,15.7188,16.5752,15.9424,16.2988,15.9424z
		 M13.8076,13.4258h1.9912v-2.4683L13.8076,13.4258z"/>
</g>
<rect fill="none" width="24" height="24"/>
</svg>
