<?xml version="1.0" encoding="utf-8"?>
<!-- Generator: Adobe Illustrator 18.1.0, SVG Export Plug-In . SVG Version: 6.00 Build 0)  -->
<svg version="1.1" id="Layer_1" xmlns="http://www.w3.org/2000/svg" xmlns:xlink="http://www.w3.org/1999/xlink" x="0px" y="0px"
	 width="24px" height="24px" viewBox="0 0 24 24" enable-background="new 0 0 24 24" xml:space="preserve">
<g>
	<path d="M23.4863,24h-23c-0.2764,0-0.5-0.2236-0.5-0.5v-14c0-0.2764,0.2236-0.5,0.5-0.5h23c0.2764,0,0.5,0.2236,0.5,0.5v14
		C23.9863,23.7764,23.7627,24,23.4863,24z M0.9863,23h22V10h-22V23z"/>
	<path d="M7.4849,21.9248c-2.9858,0-5.415-2.4287-5.415-5.415s2.4292-5.415,5.415-5.415c2.9863,0,5.4155,2.4287,5.4155,5.415
		S10.4712,21.9248,7.4849,21.9248z M7.4849,12.0947c-2.4346,0-4.415,1.9805-4.415,4.415s1.9805,4.415,4.415,4.415
		s4.4155-1.9805,4.4155-4.415S9.9194,12.0947,7.4849,12.0947z"/>
	<path d="M11.145,10c-0.1655,0-0.3281-0.0825-0.4229-0.2329L7.0835,4.0137c-0.1479-0.2334-0.0781-0.542,0.1553-0.6895
		c0.2334-0.1479,0.543-0.0776,0.6895,0.1553l3.6387,5.7534c0.1479,0.2334,0.0781,0.542-0.1553,0.6895
		C11.3286,9.9751,11.2363,10,11.145,10z"/>
	<path d="M7.0317,4.374c-0.7988,0-1.4487-0.6372-1.4487-1.4209s0.6499-1.4214,1.4487-1.4214s1.4487,0.6377,1.4487,1.4214
		S7.8306,4.374,7.0317,4.374z M7.0317,2.5317c-0.2476,0-0.4487,0.189-0.4487,0.4214c0,0.2319,0.2012,0.4209,0.4487,0.4209
		s0.4487-0.189,0.4487-0.4209C7.4805,2.7207,7.2793,2.5317,7.0317,2.5317z"/>
	<path d="M15.7783,2.8125c-0.7988,0-1.4482-0.6377-1.4482-1.4214s0.6494-1.4209,1.4482-1.4209s1.4492,0.6372,1.4492,1.4209
		S16.5771,2.8125,15.7783,2.8125z M15.7783,0.9702c-0.2471,0-0.4482,0.189-0.4482,0.4209c0,0.2324,0.2012,0.4214,0.4482,0.4214
		c0.248,0,0.4492-0.189,0.4492-0.4214C16.2275,1.1592,16.0264,0.9702,15.7783,0.9702z"/>
	<path d="M11.4409,10c-0.0796,0-0.1606-0.019-0.2358-0.0596c-0.2432-0.1304-0.335-0.4336-0.2041-0.6768l3.9102-7.2905
		c0.1299-0.2437,0.4346-0.3345,0.6768-0.2041c0.2432,0.1304,0.335,0.4336,0.2041,0.6768l-3.9102,7.2905
		C11.792,9.9043,11.6191,10,11.4409,10z"/>
	<path d="M18.8516,15.9775L18.8516,15.9775c-0.4854,0-0.9414-0.1895-1.2852-0.5332c-0.3428-0.3428-0.5322-0.7988-0.5322-1.2842
		s0.1885-0.9414,0.5322-1.2852c0.5078-0.5078,1.3008-0.6621,1.9609-0.3994l0.7217-0.3926c0.1934-0.1055,0.4346-0.0723,0.5928,0.0859
		c0.1562,0.1562,0.1914,0.3975,0.0859,0.5918l-0.3926,0.7236c0.2705,0.668,0.123,1.4385-0.3994,1.96
		C19.793,15.7881,19.3369,15.9775,18.8516,15.9775z M18.8467,13.3447c-0.2168,0-0.4199,0.084-0.5732,0.2373
		c-0.1543,0.1543-0.2393,0.3594-0.2393,0.5781c0,0.2178,0.085,0.4229,0.2393,0.5771s0.3604,0.2402,0.5781,0.2402l0,0
		c0.2178,0,0.4229-0.085,0.5771-0.2402c0.2666-0.2666,0.3145-0.6777,0.1162-1.001c-0.0381-0.0625-0.0615-0.1309-0.0693-0.2012
		c-0.0693-0.0088-0.1367-0.0322-0.1982-0.0693C19.1475,13.3867,18.999,13.3447,18.8467,13.3447z"/>
	<path d="M6.4297,15.96c-0.1299,0-0.25-0.0498-0.3501-0.1504C5.98,15.71,5.9297,15.5898,5.9297,15.46
		c0-0.1406,0.0503-0.2598,0.1499-0.3604c0.1904-0.1895,0.52-0.1895,0.7002,0c0.1001,0.0898,0.1499,0.2197,0.1499,0.3604
		c0,0.1299-0.0498,0.25-0.1396,0.3496C6.6899,15.8994,6.5601,15.96,6.4297,15.96z"/>
	<path d="M6.4297,13.8398c-0.1299,0-0.25-0.0498-0.3501-0.1396c-0.0996-0.1006-0.1499-0.2305-0.1499-0.3604
		c0-0.1396,0.0601-0.2705,0.1499-0.3604c0.1904-0.1895,0.5103-0.1797,0.7002,0c0.1001,0.1006,0.1499,0.2305,0.1499,0.3604
		S6.8799,13.5996,6.79,13.6895C6.6797,13.79,6.5601,13.8398,6.4297,13.8398z"/>
	<path d="M8.5498,15.96c-0.1299,0-0.2598-0.0605-0.3501-0.1504C8.0996,15.71,8.0498,15.5898,8.0498,15.46
		c0-0.1406,0.0498-0.2705,0.1499-0.3604c0.1699-0.1797,0.5103-0.1895,0.7002,0C9,15.2002,9.0498,15.3193,9.0498,15.46
		c0,0.1299-0.0498,0.25-0.1401,0.3496C8.7998,15.9102,8.6797,15.96,8.5498,15.96z"/>
	<path d="M8.5498,13.8398c-0.1299,0-0.2598-0.0498-0.3501-0.1396c-0.1001-0.1006-0.1499-0.2305-0.1499-0.3604
		s0.0498-0.2598,0.1499-0.3604c0.1899-0.1797,0.5103-0.1797,0.7002,0C9,13.0801,9.0498,13.21,9.0498,13.3398
		S9,13.5898,8.9097,13.6895C8.7998,13.79,8.6797,13.8398,8.5498,13.8398z"/>
	<path d="M4.3198,15.96c-0.1299,0-0.2598-0.0605-0.3501-0.1504C3.8799,15.71,3.8198,15.5898,3.8198,15.46
		c0-0.1406,0.0601-0.2705,0.1499-0.3604c0.1802-0.1797,0.52-0.1895,0.71,0C4.77,15.2002,4.8198,15.3193,4.8198,15.46
		c0,0.1299-0.0498,0.25-0.1401,0.3496C4.5796,15.9102,4.4497,15.96,4.3198,15.96z"/>
	<path d="M10.6499,15.96c-0.1299,0-0.2603-0.0605-0.3501-0.1504c-0.1001-0.0996-0.1499-0.2295-0.1499-0.3496
		c0-0.1406,0.0498-0.2598,0.1401-0.3604c0.1899-0.1895,0.5298-0.1797,0.71,0c0.0898,0.0898,0.1499,0.2197,0.1499,0.3604
		c0,0.1299-0.0601,0.25-0.1499,0.3496C10.8999,15.8994,10.7798,15.96,10.6499,15.96z"/>
	<path d="M5.3696,17.0098c-0.1299,0-0.2598-0.0498-0.3496-0.1396c-0.1001-0.1104-0.1504-0.2305-0.1504-0.3604
		s0.0503-0.2598,0.1401-0.3496c0.2002-0.2002,0.5303-0.1904,0.71,0c0.0903,0.0898,0.1499,0.2197,0.1499,0.3496
		s-0.0498,0.2598-0.1499,0.3496C5.6299,16.96,5.5,17.0098,5.3696,17.0098z"/>
	<path d="M7.4897,17.0098c-0.1401,0-0.2598-0.0498-0.3599-0.1504C7.04,16.7695,6.98,16.6396,6.98,16.5098S7.04,16.25,7.1299,16.1494
		c0.1699-0.1797,0.5098-0.1895,0.71,0C7.9297,16.25,7.98,16.3799,7.98,16.5098s-0.0503,0.25-0.1401,0.3496
		C7.7397,16.96,7.6099,17.0098,7.4897,17.0098z"/>
	<path d="M9.5796,17.0098c-0.1299,0-0.25-0.0498-0.3496-0.1396c-0.1001-0.1104-0.1504-0.2305-0.1504-0.3604
		S9.1396,16.25,9.23,16.1602c0.1899-0.2002,0.52-0.1904,0.71,0c0.0898,0.0898,0.1396,0.2197,0.1396,0.3496
		s-0.0498,0.2598-0.1396,0.3496C9.8398,16.96,9.71,17.0098,9.5796,17.0098z"/>
	<path d="M5.3696,14.8994c-0.1299,0-0.2598-0.0498-0.3496-0.1396c-0.1001-0.0996-0.1504-0.2295-0.1504-0.3604
		c0-0.1299,0.0503-0.2598,0.1401-0.3496c0.2002-0.1904,0.5303-0.1797,0.71,0c0.0903,0.0898,0.1499,0.2197,0.1499,0.3496
		c0,0.1406-0.0596,0.2607-0.1499,0.3604C5.6299,14.8496,5.5,14.8994,5.3696,14.8994z"/>
	<path d="M7.48,14.8994c-0.1304,0-0.25-0.0498-0.3403-0.1396c-0.0996-0.0996-0.1499-0.2295-0.1499-0.3604
		c0-0.1299,0.0503-0.2598,0.1401-0.3496c0.1997-0.1904,0.52-0.1904,0.71,0c0.0898,0.0898,0.1499,0.2197,0.1499,0.3496
		c0,0.1309-0.0601,0.2607-0.1499,0.3604C7.7397,14.8496,7.6099,14.8994,7.48,14.8994z"/>
	<path d="M9.5796,14.8994c-0.1299,0-0.2598-0.0498-0.3496-0.1396c-0.1001-0.0996-0.1504-0.2197-0.1504-0.3604
		c0-0.1299,0.0601-0.2598,0.1504-0.3496c0.1699-0.1797,0.52-0.1904,0.71,0c0.0898,0.0898,0.1396,0.2197,0.1396,0.3496
		c0,0.1309-0.0498,0.2607-0.1396,0.3506C9.8398,14.8496,9.71,14.8994,9.5796,14.8994z"/>
	<path d="M5.3696,19.1201c-0.1299,0-0.2598-0.0605-0.3599-0.1504c-0.0898-0.0898-0.1401-0.2197-0.1401-0.3496
		c0-0.1406,0.0503-0.2607,0.1504-0.3604c0.1699-0.1797,0.5098-0.1797,0.6997,0c0.0903,0.0996,0.1499,0.2305,0.1499,0.3604
		s-0.0498,0.25-0.1499,0.3496C5.6196,19.0596,5.5,19.1201,5.3696,19.1201z"/>
	<path d="M8.5498,20.1895c-0.1299,0-0.2598-0.0498-0.3501-0.1396c-0.1001-0.0996-0.1499-0.2305-0.1499-0.3604
		s0.0498-0.2598,0.1499-0.3496c0.1802-0.1904,0.52-0.1904,0.7002,0C9,19.4297,9.0498,19.5596,9.0498,19.6895S9,19.9502,8.9097,20.04
		C8.7998,20.1396,8.6797,20.1895,8.5498,20.1895z"/>
	<path d="M7.4897,19.1201c-0.1299,0-0.2598-0.0605-0.3599-0.1504C7.04,18.8799,6.98,18.75,6.98,18.6201
		c0-0.1406,0.0601-0.2705,0.1499-0.3604c0.1899-0.1797,0.52-0.1797,0.71,0C7.9297,18.3594,7.98,18.4902,7.98,18.6201
		s-0.0503,0.25-0.1401,0.3496C7.7397,19.0596,7.6099,19.1201,7.4897,19.1201z"/>
	<path d="M6.4297,20.1699c-0.1299,0-0.25-0.0498-0.3501-0.1396c-0.0996-0.1104-0.1499-0.2305-0.1499-0.3604
		s0.0503-0.2598,0.1401-0.3506c0.2002-0.1895,0.54-0.1895,0.7202,0c0.0898,0.0908,0.1396,0.2207,0.1396,0.3506
		S6.8799,19.9297,6.79,20.0195C6.6899,20.1201,6.5601,20.1699,6.4297,20.1699z"/>
	<path d="M9.5796,19.1201c-0.1299,0-0.2598-0.0605-0.3496-0.1504c-0.1001-0.0898-0.1504-0.2197-0.1504-0.3496
		c0-0.1406,0.0601-0.2705,0.1504-0.3604c0.1797-0.1797,0.52-0.1797,0.6997,0c0.1001,0.0996,0.1499,0.2197,0.1499,0.3604
		c0,0.1299-0.0498,0.2598-0.1499,0.3496C9.8398,19.0596,9.71,19.1201,9.5796,19.1201z"/>
	<path d="M6.4297,18.0693c-0.1299,0-0.25-0.0498-0.3501-0.1396C5.98,17.8301,5.9297,17.71,5.9297,17.5693
		c0-0.1299,0.0503-0.25,0.1499-0.3496c0.1904-0.1895,0.52-0.1895,0.7002,0c0.1001,0.0996,0.1499,0.2305,0.1499,0.3496
		c0,0.1309-0.0498,0.2607-0.1396,0.3506C6.6899,18.0195,6.5601,18.0693,6.4297,18.0693z"/>
	<path d="M8.5498,18.0693c-0.1299,0-0.2598-0.0498-0.3501-0.1396c-0.1001-0.0996-0.1499-0.2295-0.1499-0.3604
		c0-0.1299,0.0498-0.25,0.1401-0.3398c0.1997-0.1992,0.52-0.1992,0.71-0.0098C9,17.3193,9.0498,17.4395,9.0498,17.5693
		c0,0.1406-0.0498,0.2607-0.1499,0.3604C8.7998,18.0195,8.6797,18.0693,8.5498,18.0693z"/>
	<path d="M4.3198,18.0693c-0.1299,0-0.2598-0.0498-0.3501-0.1396c-0.0898-0.0996-0.1499-0.2197-0.1499-0.3604
		c0-0.1299,0.0601-0.25,0.1499-0.3496c0.1699-0.1797,0.52-0.1895,0.71,0c0.0903,0.0996,0.1401,0.2197,0.1401,0.3496
		c0,0.1309-0.0498,0.2607-0.1401,0.3506C4.5796,18.0195,4.4497,18.0693,4.3198,18.0693z"/>
	<path d="M10.6499,18.0693c-0.1299,0-0.2603-0.0498-0.3599-0.1396c-0.0903-0.0996-0.1401-0.2295-0.1401-0.3604
		c0-0.1299,0.0498-0.25,0.1401-0.3398c0.1899-0.1992,0.5298-0.1992,0.71-0.0098c0.0996,0.0996,0.1499,0.2197,0.1499,0.3496
		c0,0.1309-0.0503,0.2607-0.1499,0.3506C10.8999,18.0195,10.7798,18.0693,10.6499,18.0693z"/>
</g>
<rect x="-0.0137" y="0.0002" fill="none" width="24" height="24"/>
</svg>
