<?xml version="1.0" encoding="utf-8"?>
<!-- Generator: Adobe Illustrator 18.1.0, SVG Export Plug-In . SVG Version: 6.00 Build 0)  -->
<svg version="1.1" id="Layer_1" xmlns="http://www.w3.org/2000/svg" xmlns:xlink="http://www.w3.org/1999/xlink" x="0px" y="0px"
	 width="24px" height="24px" viewBox="0 0 24 24" enable-background="new 0 0 24 24" xml:space="preserve">
<g>
	<path d="M12.0508,23.8115c-2.5,0-3.5479-14.269-3.5479-14.4131c0-1.6885,1.5918-3.062,3.5479-3.062
		c1.957,0,3.5488,1.3735,3.5488,3.062C15.5996,9.5425,14.5518,23.8115,12.0508,23.8115z M12.0508,7.3364
		c-1.4048,0-2.5479,0.9248-2.5479,2.062c0,5.2529,2,12.667,2.5479,13.374c0.5479-0.707,2.5488-8.1201,2.5488-13.374
		C14.5996,8.2612,13.4561,7.3364,12.0508,7.3364z"/>
	<path d="M12.502,10H11c-0.2764,0-0.5-0.2236-0.5-0.5S10.7236,9,11,9h1.502c0.2764,0,0.5,0.2236,0.5,0.5S12.7783,10,12.502,10z"/>
	<path d="M14.7002,14H12c-0.2764,0-0.5-0.2236-0.5-0.5S11.7236,13,12,13h2.7002c0.2764,0,0.5,0.2236,0.5,0.5S14.9766,14,14.7002,14z
		"/>
	<path d="M11.4238,18H10.001c-0.2764,0-0.5-0.2236-0.5-0.5s0.2236-0.5,0.5-0.5h1.4229c0.2764,0,0.5,0.2236,0.5,0.5
		S11.7002,18,11.4238,18z"/>
	<path d="M12.0508,7.3364c-0.2764,0-0.5-0.2236-0.5-0.5V4.0371c-0.0015-0.0591,0.0078-0.1191,0.0288-0.1777
		c0.002-0.0068,0.0044-0.0132,0.0073-0.02c0.0542-0.1367,0.1143-0.2583,0.1792-0.3672c0.7837-1.5562,1.8481-3.2095,2.8003-3.0225
		c0.8174,0.1621,0.8877,1.3677,0.9141,1.8213c0.0312,0.5303-0.0781,0.9058-0.335,1.1475c-0.3662,0.3447-0.8672,0.2861-1.3076,0.2334
		c-0.5801-0.0669-0.9375-0.0884-1.1895,0.2944c-0.0332,0.0645-0.0654,0.1299-0.0977,0.1948v2.6953
		C12.5508,7.1128,12.3271,7.3364,12.0508,7.3364z M13.4111,2.6157c0.2021,0.0029,0.3896,0.0249,0.5439,0.043
		c0.1729,0.0205,0.4326,0.0522,0.5137,0.0229c-0.0059-0.0078,0.0283-0.1025,0.0137-0.3521
		c-0.0293-0.5054-0.0986-0.7476-0.1445-0.8564C14.125,1.6094,13.7803,2.042,13.4111,2.6157z"/>
	<path d="M12.0508,6.4614c-0.1548,0-0.3076-0.0723-0.4053-0.207c-0.0024-0.0034-0.085-0.1177-0.2251-0.2983
		c-0.2681-0.2656-0.6558-0.3843-1.252-0.3843c-0.2593,0-0.52,0.0215-0.7671,0.041C9.1528,5.6323,8.9165,5.6504,8.7031,5.6504l0,0
		c-0.3364,0-0.8208-0.04-1.1387-0.3872C7.3398,5.0181,7.2451,4.6729,7.2832,4.2383C7.4126,2.7617,8.0835,2.4517,8.623,2.4517
		c1.103,0,2.5381,1.5435,3.5537,2.8477c0.1133,0.1206,0.2158,0.2573,0.3047,0.4077c0.1357,0.23,0.0664,0.5259-0.1562,0.6724
		C12.2402,6.4351,12.1455,6.4614,12.0508,6.4614z M8.623,3.4517c-0.1968,0-0.3066,0.4512-0.3438,0.8735
		C8.2637,4.5054,8.293,4.5781,8.3018,4.5874c0.0005,0.001,0.0615,0.063,0.4014,0.063l0,0c0.189,0,0.3989-0.0171,0.6196-0.0347
		c0.2915-0.0225,0.5947-0.0396,0.9053-0.0435C9.4771,3.8062,8.9116,3.4517,8.623,3.4517z"/>
	<path d="M12.041,4.6274c-0.0117,0-0.0234-0.0005-0.0361-0.0015c-0.2656-0.019-0.4697-0.2437-0.4639-0.5103
		c0-0.0044,0.0024-0.1055,0.0005-0.269c-0.0654-0.3594-0.4844-0.5728-1.0654-0.832C9.9751,2.791,9.4575,2.5596,9.3438,2.0503
		c-0.0693-0.312,0.04-0.6382,0.3262-0.9692c0.4834-0.561,0.9302-0.8335,1.3647-0.8335c0.9624,0,1.4692,1.1851,1.5063,3.5234
		c0.0146,0.1338,0.0137,0.2734-0.0039,0.4165C12.5068,4.4404,12.292,4.6274,12.041,4.6274z M10.3516,1.8325
		c0.1133,0.0815,0.3594,0.1919,0.5322,0.269c0.1714,0.0762,0.3594,0.1602,0.5454,0.2603c-0.1177-0.7383-0.2983-1.0742-0.3975-1.1152
		c0.001,0.001-0.1899,0.0063-0.605,0.4878C10.3916,1.7754,10.3677,1.8081,10.3516,1.8325z"/>
</g>
<rect fill="none" width="24" height="24"/>
</svg>
