<?xml version="1.0" encoding="utf-8"?>
<!-- Generator: Adobe Illustrator 18.1.0, SVG Export Plug-In . SVG Version: 6.00 Build 0)  -->
<svg version="1.1" id="Layer_1" xmlns="http://www.w3.org/2000/svg" xmlns:xlink="http://www.w3.org/1999/xlink" x="0px" y="0px"
	 width="24px" height="24px" viewBox="0 0 24 24" enable-background="new 0 0 24 24" xml:space="preserve">
<g>
	<path d="M21.3691,18.001h-2.584c-0.2764,0-0.5-0.2236-0.5-0.5s0.2236-0.5,0.5-0.5h2.584c0.8691,0,1.6309-0.7734,1.6309-1.6553
		V8.5581c0-0.8584-0.7314-1.5571-1.6309-1.5571H2.5625C1.6865,7.001,1,7.6851,1,8.5581v6.7876c0,0.9131,0.7012,1.6553,1.5625,1.6553
		h12.3877c0.2764,0,0.5,0.2236,0.5,0.5s-0.2236,0.5-0.5,0.5H2.5625C1.1494,18.001,0,16.8096,0,15.3457V8.5581
		C0,7.124,1.1255,6.001,2.5625,6.001h18.8066C22.8193,6.001,24,7.1479,24,8.5581v6.7876C24,16.7852,22.7949,18.001,21.3691,18.001z"
		/>
	<path d="M18.5547,23.0518L18.5547,23.0518c-0.2676,0-0.5156-0.1445-0.6484-0.377l-0.9834-1.7266l-0.584,0.585
		c-0.4004,0.4004-1.1689,0.1514-1.2627-0.4023l-1.208-6.9277c-0.0391-0.2158,0.0195-0.4375,0.1602-0.6055
		c0.2617-0.3125,0.7715-0.3516,1.0732-0.0771l5.293,4.7549c0.2129,0.1924,0.2969,0.4805,0.2207,0.7549
		c-0.0752,0.2734-0.2959,0.4775-0.5742,0.5322l-0.5234,0.1035l0.9736,1.2852c0.124,0.1631,0.1758,0.373,0.1416,0.5752
		c-0.0342,0.2012-0.1504,0.3818-0.3203,0.4951l-1.3408,0.9033C18.8496,23.0078,18.7051,23.0518,18.5547,23.0518z M17.0322,19.6309
		c0.0225,0,0.0439,0.001,0.0664,0.0049c0.1543,0.0205,0.291,0.1123,0.3682,0.248l1.1729,2.0586l0.8926-0.6006l-1.2949-1.709
		c-0.1045-0.1367-0.1299-0.3184-0.0693-0.4795c0.0615-0.1611,0.2021-0.2793,0.3711-0.3125l0.8096-0.1602l-4.3691-3.9258
		l0.998,5.7246l0.7012-0.7021C16.7725,19.6826,16.9004,19.6309,17.0322,19.6309z"/>
</g>
<rect y="0.0011" fill="none" width="24" height="24"/>
</svg>
