<?xml version="1.0" encoding="utf-8"?>
<!-- Generator: Adobe Illustrator 18.1.0, SVG Export Plug-In . SVG Version: 6.00 Build 0)  -->
<svg version="1.1" id="Layer_1" xmlns="http://www.w3.org/2000/svg" xmlns:xlink="http://www.w3.org/1999/xlink" x="0px" y="0px"
	 width="24px" height="24px" viewBox="0 0 24 24" enable-background="new 0 0 24 24" xml:space="preserve">
<g>
	<path d="M18.3545,9.9683c-0.2764,0-0.5-0.2236-0.5-0.5c0-4.4609-2.6816-8.23-5.8564-8.23s-5.8569,3.769-5.8569,8.23
		c0,0.2764-0.2236,0.5-0.5,0.5s-0.5-0.2236-0.5-0.5c0-5.0029,3.1401-9.23,6.8569-9.23s6.8564,4.2271,6.8564,9.23
		C18.8545,9.7446,18.6309,9.9683,18.3545,9.9683z"/>
	<path d="M16.71,23.9883H7.2856c-0.2764,0-0.5-0.2236-0.5-0.5c0-1.5215,1.2378-2.7598,2.7598-2.7598h0.6064v-1.8428
		c-3.5713-1.085-5.9429-4.8125-5.9429-9.4175c0-0.2764,0.2236-0.5,0.5-0.5h14.5781c0.2764,0,0.5,0.2236,0.5,0.5
		c0,4.606-2.3721,8.3335-5.9434,9.4175v1.8428h0.6064c1.5215,0,2.7598,1.2383,2.7598,2.7598
		C17.21,23.7646,16.9863,23.9883,16.71,23.9883z M7.8579,22.9883h8.2798c-0.2158-0.7275-0.8906-1.2598-1.6875-1.2598h-1.1064
		c-0.2764,0-0.5-0.2236-0.5-0.5v-2.7236c0-0.2305,0.1572-0.4307,0.3809-0.4854c3.1973-0.7852,5.3857-3.9883,5.5527-8.0513H5.2192
		c0.166,4.063,2.355,7.2661,5.5518,8.0513c0.2236,0.0547,0.3809,0.2549,0.3809,0.4854v2.7236c0,0.2764-0.2236,0.5-0.5,0.5H9.5454
		C8.7485,21.7285,8.0737,22.2607,7.8579,22.9883z"/>
	<path d="M9.979,6.6191c-0.0425,0-0.0854-0.0054-0.127-0.0166L7.8213,6.0684C7.5542,5.998,7.3945,5.7246,7.4648,5.458
		c0.0708-0.2676,0.3467-0.4248,0.6104-0.3564l1.5327,0.4028l0.2617-1.1333c0.0527-0.2266,0.2544-0.3872,0.4873-0.3872h1.3193
		l0.7759-1.6611c0.1172-0.251,0.416-0.3569,0.665-0.2417c0.25,0.1172,0.3584,0.4146,0.2412,0.6646l-0.9111,1.9497
		c-0.082,0.1763-0.2588,0.2886-0.4526,0.2886h-1.2402l-0.2881,1.248c-0.0308,0.1313-0.1133,0.2451-0.229,0.3154
		C10.1587,6.5947,10.0693,6.6191,9.979,6.6191z"/>
</g>
<rect x="0.0142" y="0.0346" fill="none" width="24" height="24"/>
</svg>
