<?xml version="1.0" encoding="utf-8"?>
<!-- Generator: Adobe Illustrator 18.1.0, SVG Export Plug-In . SVG Version: 6.00 Build 0)  -->
<svg version="1.1" id="Layer_1" xmlns="http://www.w3.org/2000/svg" xmlns:xlink="http://www.w3.org/1999/xlink" x="0px" y="0px"
	 width="24px" height="24px" viewBox="0 0 24 24" enable-background="new 0 0 24 24" xml:space="preserve">
<g>
	<path d="M20.5283,5.0098h-4c-0.2764,0-0.5-0.2236-0.5-0.5v-4c0-0.2764,0.2236-0.5,0.5-0.5s0.5,0.2236,0.5,0.5v3.5h3.5
		c0.2764,0,0.5,0.2236,0.5,0.5S20.8047,5.0098,20.5283,5.0098z"/>
	<path d="M17.0654,18.0098H7.0239c-0.2764,0-0.5-0.2236-0.5-0.5s0.2236-0.5,0.5-0.5h10.0415c0.2764,0,0.5,0.2236,0.5,0.5
		S17.3418,18.0098,17.0654,18.0098z"/>
	<path d="M17.0654,15.0098H7.0239c-0.2764,0-0.5-0.2236-0.5-0.5s0.2236-0.5,0.5-0.5h10.0415c0.2764,0,0.5,0.2236,0.5,0.5
		S17.3418,15.0098,17.0654,15.0098z"/>
	<path d="M17.0654,12.0098H7.0239c-0.2764,0-0.5-0.2236-0.5-0.5s0.2236-0.5,0.5-0.5h10.0415c0.2764,0,0.5,0.2236,0.5,0.5
		S17.3418,12.0098,17.0654,12.0098z"/>
	<path d="M12.6025,9.0098H7.0239c-0.2764,0-0.5-0.2236-0.5-0.5s0.2236-0.5,0.5-0.5h5.5786c0.2764,0,0.5,0.2236,0.5,0.5
		S12.8789,9.0098,12.6025,9.0098z"/>
	<path d="M18.1914,23.9844c-0.001,0-0.001,0-0.002,0c-0.1377-0.001-0.2695-0.0576-0.3633-0.1582l-2.7217-2.9082l-2.7217,2.9082
		c-0.0947,0.1006-0.2266,0.1582-0.3652,0.1582l0,0c-0.1382,0-0.2705-0.0576-0.3652-0.1582L8.9312,20.918l-2.6294,2.8105
		c-0.1895,0.2012-0.541,0.2012-0.7305,0L3.2139,21.209c-0.1123-0.0918-0.1851-0.2295-0.1851-0.3828V1.3154
		c0-0.7197,0.5776-1.3057,1.2871-1.3057h12.2124c0.4189,0,0.6416,0.2192,0.8037,0.3789l3.3125,3.2686
		c0.1787,0.1768,0.3838,0.4331,0.3838,0.8525v16.5215c0,0.1279-0.0498,0.252-0.1377,0.3447l-2.3369,2.4531
		C18.459,23.9287,18.3281,23.9844,18.1914,23.9844z M15.1045,19.6865c0.1387,0,0.2705,0.0576,0.3652,0.1582l2.7246,2.9111
		l1.834-1.9248V4.5098c0-0.0366,0-0.0552-0.0869-0.1406l-3.3125-3.2686c-0.0273-0.0278-0.0859-0.085-0.1064-0.0977L4.3159,1.0098
		c-0.1558,0-0.2871,0.1401-0.2871,0.3057v19.3008l1.9077,2.0391l2.6294-2.8105c0.1895-0.2012,0.541-0.2012,0.7305,0l2.7212,2.9082
		l2.7217-2.9082C14.834,19.7441,14.9658,19.6865,15.1045,19.6865z"/>
</g>
<rect y="0.0001" fill="none" width="24" height="24"/>
</svg>
