<?xml version="1.0" encoding="utf-8"?>
<!-- Generator: Adobe Illustrator 18.1.0, SVG Export Plug-In . SVG Version: 6.00 Build 0)  -->
<svg version="1.1" id="Layer_1" xmlns="http://www.w3.org/2000/svg" xmlns:xlink="http://www.w3.org/1999/xlink" x="0px" y="0px"
	 width="24px" height="24px" viewBox="0 0 24 24" enable-background="new 0 0 24 24" xml:space="preserve">
<g>
	<path d="M21.5293,17.001c-0.2764,0-0.5-0.2236-0.5-0.5V5.2041c0-0.1216-0.0986-0.2207-0.2197-0.2207H3.208
		c-0.1216,0-0.2202,0.0991-0.2202,0.2207V16.501c0,0.2764-0.2236,0.5-0.5,0.5s-0.5-0.2236-0.5-0.5V5.2041
		c0-0.6729,0.5474-1.2207,1.2202-1.2207h17.6016c0.6729,0,1.2197,0.5479,1.2197,1.2207V16.501
		C22.0293,16.7773,21.8057,17.001,21.5293,17.001z"/>
	<path d="M22.7041,21.0303H1.312c-0.7168,0-1.2998-0.583-1.2998-1.2998v-1.2002c0-0.2764,0.2236-0.5,0.5-0.5H10.77
		c0.2764,0,0.5,0.2236,0.5,0.5v0.3037l1.5425-0.0654l-0.0645-0.2383c0-0.2764,0.2236-0.5,0.5-0.5h10.2568
		c0.2764,0,0.5,0.2236,0.5,0.5v1.2002C24.0049,20.4473,23.4209,21.0303,22.7041,21.0303z M1.0122,19.0303v0.7002
		c0,0.165,0.1343,0.2998,0.2998,0.2998h21.3921c0.166,0,0.3008-0.1348,0.3008-0.2998v-0.7002h-9.2773
		c-0.0908,0.4219-0.4668,0.7383-0.915,0.7383h-1.6079c-0.4482,0-0.8232-0.3164-0.9141-0.7383H1.0122z"/>
	<path d="M6.1396,11.8379c-0.6406,0-1.1616-0.5176-1.1616-1.1533s0.521-1.1533,1.1616-1.1533s1.1616,0.5176,1.1616,1.1533
		S6.7803,11.8379,6.1396,11.8379z M6.1396,10.5312c-0.0894,0-0.1616,0.0688-0.1616,0.1533c0,0.1689,0.3232,0.1689,0.3232,0
		C6.3013,10.6001,6.229,10.5312,6.1396,10.5312z"/>
	<path d="M10.0312,9.3926c-0.6406,0-1.1616-0.5176-1.1616-1.1533s0.521-1.1528,1.1616-1.1528s1.1616,0.5171,1.1616,1.1528
		S10.6719,9.3926,10.0312,9.3926z M10.0312,8.0864c-0.0894,0-0.1616,0.0684-0.1616,0.1528c0,0.1689,0.3232,0.1689,0.3232,0
		C10.1929,8.1548,10.1206,8.0864,10.0312,8.0864z"/>
	<path d="M13.9229,15.3301c-0.6406,0-1.1611-0.5176-1.1611-1.1533s0.5205-1.1523,1.1611-1.1523s1.1621,0.5166,1.1621,1.1523
		S14.5635,15.3301,13.9229,15.3301z M13.9229,14.0244c-0.0889,0-0.1611,0.0684-0.1611,0.1523c0,0.1719,0.3232,0.1689,0.3232,0
		C14.085,14.0928,14.0127,14.0244,13.9229,14.0244z"/>
	<path d="M17.8145,11.1392c-0.6406,0-1.1611-0.5176-1.1611-1.1533s0.5205-1.1533,1.1611-1.1533s1.1621,0.5176,1.1621,1.1533
		S18.4551,11.1392,17.8145,11.1392z M17.8145,9.8325c-0.0889,0-0.1611,0.0688-0.1611,0.1533c0,0.1704,0.3242,0.168,0.3232,0
		C17.9766,9.9014,17.9043,9.8325,17.8145,9.8325z"/>
	<path d="M6.6973,10.8345c-0.1665,0-0.3291-0.083-0.4238-0.2339c-0.147-0.2339-0.0767-0.5425,0.1572-0.6895l2.6729-1.6792
		C9.3359,8.084,9.6465,8.1558,9.793,8.3892c0.147,0.2339,0.0767,0.5425-0.1572,0.6895l-2.6729,1.6792
		C6.8804,10.8096,6.7881,10.8345,6.6973,10.8345z"/>
	<path d="M13.5645,14.1299c-0.1621,0-0.3223-0.0791-0.418-0.2256L9.9722,9.061c-0.1514-0.231-0.0869-0.5405,0.144-0.6919
		c0.2319-0.1523,0.541-0.0869,0.6919,0.144l3.1743,4.8423c0.1514,0.2314,0.0869,0.541-0.1436,0.6924
		C13.7539,14.1035,13.6592,14.1299,13.5645,14.1299z"/>
	<path d="M14.3691,14.1973c-0.1221,0-0.2441-0.0439-0.3398-0.1338c-0.2031-0.1875-0.2148-0.5039-0.0264-0.7061l2.9893-3.2207
		c0.1895-0.2021,0.5059-0.2129,0.7061-0.0259c0.2031,0.1875,0.2148,0.5039,0.0264,0.7065l-2.9893,3.2197
		C14.6367,14.1436,14.5029,14.1973,14.3691,14.1973z"/>
</g>
<rect fill="none" width="24" height="24"/>
</svg>
