<?xml version="1.0" encoding="utf-8"?>
<!-- Generator: Adobe Illustrator 18.1.0, SVG Export Plug-In . SVG Version: 6.00 Build 0)  -->
<svg version="1.1" id="Layer_1" xmlns="http://www.w3.org/2000/svg" xmlns:xlink="http://www.w3.org/1999/xlink" x="0px" y="0px"
	 width="24px" height="24px" viewBox="0 0 24 24" enable-background="new 0 0 24 24" xml:space="preserve">
<g>
	<path d="M4.5366,14.0029c-0.1685,0-0.3252-0.085-0.4175-0.2256c-0.3857-0.585-3.7656-5.7827-3.7656-7.9053
		c0-2.3062,1.8765-4.1826,4.1831-4.1826c2.3062,0,4.1826,1.8765,4.1826,4.1826c0,2.1226-3.3794,7.3203-3.7651,7.9053
		C4.8618,13.918,4.7051,14.0029,4.5366,14.0029z M4.5366,2.6895c-1.7554,0-3.1831,1.4277-3.1831,3.1826
		c0,1.3613,2.0181,4.853,3.1831,6.7051c1.1646-1.8521,3.1826-5.3438,3.1826-6.7051C7.7192,4.1172,6.2915,2.6895,4.5366,2.6895z"/>
	<path d="M4.5361,7.4014c-0.9985,0-1.8105-0.812-1.8105-1.8105s0.812-1.811,1.8105-1.811s1.8105,0.8125,1.8105,1.811
		S5.5347,7.4014,4.5361,7.4014z M4.5361,4.7798c-0.4468,0-0.8105,0.3638-0.8105,0.811c0,0.4468,0.3638,0.8105,0.8105,0.8105
		s0.8105-0.3638,0.8105-0.8105C5.3467,5.1436,4.9829,4.7798,4.5361,4.7798z"/>
	<path d="M19.5898,19.9424c-0.168,0-0.3252-0.085-0.418-0.2256c-0.3848-0.585-3.7646-5.7812-3.7646-7.9048
		c0-2.3062,1.876-4.1826,4.1826-4.1826s4.1836,1.8765,4.1836,4.1826c0,2.1226-3.3809,7.3198-3.7656,7.9048
		C19.915,19.8574,19.7578,19.9424,19.5898,19.9424z M19.5898,8.6294c-1.7549,0-3.1826,1.4277-3.1826,3.1826
		c0,1.3618,2.0176,4.853,3.1826,6.7046c1.165-1.8516,3.1836-5.3438,3.1836-6.7046C22.7734,10.0571,21.3457,8.6294,19.5898,8.6294z"
		/>
	<path d="M19.5898,13.3408c-0.998,0-1.8105-0.8125-1.8105-1.8105c0-0.9985,0.8125-1.8105,1.8105-1.8105s1.8105,0.812,1.8105,1.8105
		C21.4004,12.5283,20.5879,13.3408,19.5898,13.3408z M19.5898,10.7197c-0.4473,0-0.8105,0.3638-0.8105,0.8105
		s0.3633,0.8105,0.8105,0.8105s0.8105-0.3638,0.8105-0.8105S20.0371,10.7197,19.5898,10.7197z"/>
	<path d="M17.0215,19.6133c-0.0459,0-0.0928-0.0059-0.1387-0.0195l-0.9609-0.2783c-0.2656-0.0771-0.418-0.3545-0.3418-0.6191
		c0.0771-0.2656,0.3564-0.4199,0.6191-0.3418l0.9609,0.2783c0.2656,0.0771,0.418,0.3545,0.3418,0.6191
		C17.4385,19.4707,17.2383,19.6133,17.0215,19.6133z M13.1797,18.498c-0.0459,0-0.0928-0.0059-0.1396-0.0195l-0.96-0.2783
		c-0.2646-0.0771-0.4175-0.3545-0.3403-0.6201c0.0762-0.2656,0.3521-0.4189,0.6196-0.3408l0.96,0.2783
		c0.2646,0.0771,0.417,0.3545,0.3408,0.6201C13.5967,18.3564,13.3965,18.498,13.1797,18.498z M9.3384,17.3828
		c-0.0459,0-0.0928-0.0059-0.1392-0.0195L8.2388,17.085c-0.2651-0.0771-0.418-0.3545-0.3413-0.6201
		c0.0767-0.2637,0.3535-0.4189,0.6196-0.3408l0.9604,0.2783c0.2651,0.0771,0.418,0.3545,0.3413,0.6201
		C9.7554,17.2402,9.5557,17.3828,9.3384,17.3828z M5.4971,16.2676c-0.0459,0-0.0928-0.0059-0.1392-0.0195l-0.9604-0.2783
		c-0.2651-0.0771-0.418-0.3545-0.3413-0.6201c0.0767-0.2646,0.3535-0.418,0.6196-0.3408l0.9604,0.2783
		c0.2651,0.0771,0.418,0.3545,0.3413,0.6201C5.9141,16.126,5.7144,16.2676,5.4971,16.2676z"/>
</g>
<rect x="-0.0136" y="0.0001" fill="none" width="24" height="24"/>
</svg>
