<?xml version="1.0" encoding="utf-8"?>
<!-- Generator: Adobe Illustrator 18.1.0, SVG Export Plug-In . SVG Version: 6.00 Build 0)  -->
<svg version="1.1" id="Layer_1" xmlns="http://www.w3.org/2000/svg" xmlns:xlink="http://www.w3.org/1999/xlink" x="0px" y="0px"
	 width="24px" height="24px" viewBox="0 0 24 24" enable-background="new 0 0 24 24" xml:space="preserve">
<g>
	<path d="M12.0166,23.8301c-6.5039,0-11.7949-5.292-11.7949-11.7959S5.5127,0.2393,12.0166,0.2393
		c2.8975,0,5.6846,1.062,7.8467,2.9907c0.1006,0.0898,0.1611,0.2168,0.167,0.3516c0.0049,0.1353-0.0439,0.2666-0.1367,0.3647
		c-0.6094,0.645-0.6309,1.6348-0.0508,2.3027c0.1787,0.2056,0.1602,0.5161-0.042,0.6987c-0.4912,0.4453-0.6797,1.0933-0.502,1.7339
		c0.1768,0.6382,0.6709,1.0957,1.3213,1.2236c0.1924,0.0381,0.3447,0.1851,0.3896,0.376c0.0449,0.1904-0.0254,0.3901-0.1807,0.5103
		c-0.5107,0.3955-0.751,1.0117-0.6416,1.647c0.1084,0.6367,0.541,1.1367,1.1543,1.3398c0.1387,0.0459,0.251,0.1494,0.3066,0.2852
		c0.0547,0.1348,0.0488,0.2871-0.0176,0.417c-0.4199,0.8193-0.1191,1.8174,0.6836,2.2725c0.2324,0.1318,0.3203,0.4248,0.1973,0.6631
		C20.4795,21.3721,16.458,23.8301,12.0166,23.8301z M12.0166,1.2393c-5.9521,0-10.7949,4.8428-10.7949,10.7949
		c0,5.9531,4.8428,10.7959,10.7949,10.7959c3.9199,0,7.4814-2.0918,9.3994-5.4873c-0.8252-0.6875-1.166-1.7979-0.8701-2.8262
		c-0.7119-0.3936-1.2021-1.0781-1.3447-1.9082c-0.124-0.7246,0.0381-1.4326,0.4395-2.0059
		c-0.6309-0.3457-1.1055-0.9336-1.3057-1.6538c-0.2354-0.8496-0.0488-1.7373,0.4844-2.4106
		c-0.541-0.8823-0.5293-1.9927,0.0244-2.8643C16.9189,2.1006,14.5127,1.2393,12.0166,1.2393z"/>
	<path d="M11.6172,17.0146c-2.7461,0-4.98-2.2344-4.98-4.9805c0-2.7456,2.2339-4.9795,4.98-4.9795s4.9795,2.2339,4.9795,4.9795
		C16.5967,14.7803,14.3633,17.0146,11.6172,17.0146z M11.6172,8.0547c-2.1943,0-3.98,1.7852-3.98,3.9795
		c0,2.1953,1.7856,3.9805,3.98,3.9805s3.9795-1.7852,3.9795-3.9805C15.5967,9.8398,13.8115,8.0547,11.6172,8.0547z"/>
	<path d="M22.5967,8.9663c-0.1191,0-0.2393-0.0425-0.335-0.1289l-0.7119-0.6426c-0.1104-0.0996-0.1709-0.2432-0.165-0.3916
		l0.0264-0.6421c0.0117-0.2764,0.2305-0.5005,0.5205-0.479c0.2764,0.0112,0.4902,0.2441,0.4795,0.52l-0.0176,0.4077l0.5381,0.4854
		c0.2051,0.1851,0.2217,0.501,0.0361,0.7061C22.8691,8.9106,22.7334,8.9663,22.5967,8.9663z"/>
	<path d="M21.082,5.9556c-0.0645,0-0.1299-0.0122-0.1924-0.0386l-0.4365-0.1821c-0.2549-0.1064-0.375-0.3989-0.2695-0.6538
		c0.1064-0.2559,0.4023-0.3765,0.6543-0.269l0.4365,0.1821c0.2549,0.1064,0.375,0.3989,0.2695,0.6538
		C21.4639,5.8398,21.2773,5.9556,21.082,5.9556z"/>
	<path d="M11.3896,19.2998c-0.1196,0-0.25-0.0498-0.3496-0.1504c-0.0903-0.0996-0.1401-0.2197-0.1401-0.3496
		s0.0498-0.2598,0.1401-0.3496c0.1899-0.2002,0.52-0.1904,0.71-0.0107c0.0898,0.1006,0.1499,0.2305,0.1499,0.3604
		s-0.0601,0.2598-0.1499,0.3496C11.6499,19.25,11.52,19.2998,11.3896,19.2998z"/>
	<path d="M17.1543,7.7441c-0.0645,0-0.1299-0.0122-0.1924-0.0386l-0.4365-0.1821c-0.2549-0.1064-0.375-0.3989-0.2695-0.6538
		c0.1064-0.2554,0.4014-0.3765,0.6543-0.269l0.4365,0.1821c0.2549,0.1064,0.375,0.3989,0.2695,0.6538
		C17.5361,7.6284,17.3496,7.7441,17.1543,7.7441z"/>
	<path d="M3.6084,7.6528c-0.0645,0-0.1294-0.0122-0.1919-0.0386L2.98,7.4326c-0.2554-0.106-0.376-0.3984-0.2695-0.6533
		c0.106-0.2559,0.4023-0.376,0.6533-0.2695l0.4365,0.1816c0.2554,0.106,0.376,0.3984,0.2695,0.6533
		C3.9902,7.5371,3.8042,7.6528,3.6084,7.6528z"/>
	<path d="M22.249,12.5684c-0.167,0-0.3301-0.084-0.4248-0.2363c-0.1455-0.2344-0.0732-0.543,0.1611-0.6885l0.4023-0.2495
		c0.2334-0.1431,0.543-0.0742,0.6885,0.1611c0.1455,0.2349,0.0732,0.5435-0.1611,0.689l-0.4023,0.249
		C22.4307,12.5439,22.3398,12.5684,22.249,12.5684z"/>
	<path d="M23.3096,14.79c-0.1396,0-0.2598-0.0498-0.3594-0.1406c-0.0908-0.0996-0.1406-0.2295-0.1406-0.3594
		s0.0498-0.2598,0.1406-0.3506c0.1992-0.1895,0.5195-0.1895,0.71,0c0.0898,0.1006,0.1494,0.2207,0.1494,0.3506
		s-0.0596,0.2598-0.1494,0.3594C23.5596,14.7402,23.4395,14.79,23.3096,14.79z"/>
	<path d="M15.5029,18.0684c-0.167,0-0.3301-0.084-0.4248-0.2363c-0.1455-0.2344-0.0732-0.543,0.1611-0.6885l0.4014-0.249
		c0.2344-0.1436,0.543-0.0742,0.6885,0.1611c0.1455,0.2344,0.0732,0.543-0.1611,0.6885l-0.4014,0.249
		C15.6846,18.0439,15.5938,18.0684,15.5029,18.0684z"/>
	<path d="M17.8896,12.1494c-0.1396,0-0.2695-0.0498-0.3594-0.1396c-0.0908-0.0898-0.1406-0.2197-0.1406-0.3599
		c0-0.1299,0.0498-0.2603,0.1406-0.3501c0.1895-0.1899,0.5195-0.1899,0.71,0c0.0898,0.1001,0.1494,0.23,0.1494,0.3501
		c0,0.1299-0.0596,0.2598-0.1494,0.3501C18.1494,12.0996,18.0195,12.1494,17.8896,12.1494z"/>
	<path d="M6.9365,8.0547c-0.167,0-0.3306-0.084-0.4253-0.2363C6.3657,7.584,6.4375,7.2754,6.6724,7.1299l0.4019-0.2495
		c0.2344-0.1455,0.543-0.0728,0.6885,0.1611C7.9082,7.2759,7.8364,7.5845,7.6016,7.73L7.1997,7.9795
		C7.1177,8.0303,7.0264,8.0547,6.9365,8.0547z"/>
	<path d="M7.5874,20.1328c-0.1675,0-0.3311-0.084-0.4253-0.2363c-0.1455-0.2354-0.0732-0.543,0.1616-0.6885l0.4019-0.249
		c0.2354-0.1455,0.543-0.0723,0.688,0.1611c0.1455,0.2354,0.0732,0.543-0.1616,0.6885l-0.4019,0.249
		C7.7681,20.1084,7.6772,20.1328,7.5874,20.1328z"/>
	<path d="M5.4297,11.4297c-0.1299,0-0.2598-0.0498-0.3501-0.1396c-0.0996-0.1001-0.1499-0.23-0.1499-0.3604
		c0-0.1396,0.0503-0.27,0.1499-0.3599c0.1704-0.1802,0.5103-0.1802,0.7002,0.0098c0.0898,0.0801,0.1499,0.2104,0.1499,0.3501
		c0,0.1304-0.0498,0.2603-0.1499,0.3501C5.6797,11.3799,5.5601,11.4297,5.4297,11.4297z"/>
	<path d="M13.6299,5.9897c-0.1396,0-0.2705-0.0601-0.3604-0.1499s-0.1396-0.2202-0.1396-0.3501s0.0498-0.2598,0.1396-0.3599
		c0.1699-0.1699,0.5205-0.1802,0.71,0c0.1006,0.1099,0.1504,0.23,0.1504,0.3599s-0.0498,0.25-0.1504,0.3501
		C13.8799,5.9399,13.7598,5.9897,13.6299,5.9897z"/>
	<path d="M9.417,4.6079c-0.167,0-0.3306-0.0835-0.4253-0.2358c-0.1455-0.2349-0.0737-0.543,0.1606-0.689l0.4014-0.2495
		c0.2349-0.145,0.5435-0.0742,0.689,0.1606s0.0737,0.543-0.1606,0.689L9.6807,4.5327C9.5981,4.5835,9.5073,4.6079,9.417,4.6079z"/>
	<path d="M18.8516,17.7188c-0.0059,0-0.0127,0-0.0195,0c-0.2764-0.0107-0.4912-0.2441-0.4805-0.5195l0.0186-0.4727
		c0.0117-0.2754,0.1943-0.4863,0.5195-0.4805c0.2764,0.0107,0.4912,0.2441,0.4805,0.5195l-0.0186,0.4727
		C19.3408,17.5078,19.1191,17.7188,18.8516,17.7188z"/>
	<path d="M6.0938,16.7988c-0.0068,0-0.0137,0-0.0205,0c-0.2759-0.0117-0.4907-0.2441-0.4795-0.5205l0.019-0.4727
		c0.0112-0.2754,0.2471-0.4922,0.5195-0.4795c0.2759,0.0117,0.4907,0.2441,0.4795,0.5205l-0.019,0.4727
		C6.582,16.5879,6.3604,16.7988,6.0938,16.7988z"/>
	<path d="M14.7871,21.0049c-0.0068,0-0.0137,0-0.0205,0c-0.2764-0.0117-0.4902-0.2451-0.4795-0.5205l0.0195-0.4727
		c0.0117-0.2754,0.2451-0.4795,0.5205-0.4795c0.2764,0.0117,0.4902,0.2451,0.4795,0.5205l-0.0195,0.4727
		C15.2754,20.7939,15.0537,21.0049,14.7871,21.0049z"/>
	<path d="M7.5996,4.25c-0.1396,0-0.27-0.0601-0.3599-0.1504C7.1499,4.0098,7.0996,3.8799,7.0996,3.75
		c0-0.1401,0.0503-0.2603,0.1401-0.3604c0.1802-0.1797,0.52-0.1797,0.71,0c0.1001,0.1001,0.1499,0.23,0.1499,0.3604
		c0,0.1196-0.0498,0.25-0.1499,0.3496C7.8599,4.1899,7.73,4.25,7.5996,4.25z"/>
	<path d="M2.9976,13.9189c-0.0068,0-0.0137,0-0.0205,0c-0.2759-0.0117-0.4907-0.2441-0.4795-0.5205l0.019-0.4727
		c0.0107-0.2754,0.2378-0.4834,0.5195-0.4795c0.2759,0.0117,0.4907,0.2441,0.4795,0.5205l-0.019,0.4727
		C3.4858,13.708,3.2642,13.9189,2.9976,13.9189z"/>
	<path d="M13.6172,3.5498c-0.0059,0-0.0127,0-0.0195-0.0005c-0.2764-0.0107-0.4912-0.2432-0.4805-0.519l0.0186-0.4722
		c0.0107-0.2754,0.2109-0.4907,0.5195-0.48c0.2764,0.0107,0.4912,0.2432,0.4805,0.519l-0.0186,0.4722
		C14.1064,3.3389,13.8848,3.5498,13.6172,3.5498z"/>
</g>
<rect x="0.0142" y="0.0346" fill="none" width="24" height="24"/>
</svg>
