<?xml version="1.0" encoding="utf-8"?>
<!-- Generator: Adobe Illustrator 18.1.0, SVG Export Plug-In . SVG Version: 6.00 Build 0)  -->
<svg version="1.1" id="Layer_1" xmlns="http://www.w3.org/2000/svg" xmlns:xlink="http://www.w3.org/1999/xlink" x="0px" y="0px"
	 width="24px" height="24px" viewBox="0 0 24 24" enable-background="new 0 0 24 24" xml:space="preserve">
<g>
	<path d="M11.0776,18.0791c-0.127,0-0.249-0.0479-0.3423-0.1357c-0.0386-0.0361-0.9492-0.9072-0.9126-2.3945
		c0.0352-1.4492,0.9351-2.9346,2.6743-4.4136c0.1064-0.0894,0.2471-0.1328,0.3838-0.1157c0.1387,0.0166,0.2637,0.0903,0.3457,0.2036
		c0.0918,0.1265,2.2363,3.1294,1.2627,5.1685c-0.4902,1.0264-1.6289,1.5938-3.3853,1.6865
		C11.0952,18.0791,11.0864,18.0791,11.0776,18.0791z M12.7217,12.2744c-1.2202,1.1426-1.8745,2.2754-1.8994,3.2988
		c-0.0176,0.7314,0.2891,1.25,0.4697,1.4902c1.2217-0.1025,1.9932-0.4727,2.2939-1.1016
		C14.0859,14.918,13.3008,13.2275,12.7217,12.2744z"/>
	<g>
		<path d="M5.4678,19.9482c-1.3496,0-2.4478-1.0986-2.4478-2.4482s1.0981-2.4482,2.4478-2.4482
			c1.3501,0,2.4482,1.0986,2.4482,2.4482S6.8179,19.9482,5.4678,19.9482z M5.4678,16.0518c-0.7983,0-1.4478,0.6494-1.4478,1.4482
			s0.6494,1.4482,1.4478,1.4482S6.916,18.2988,6.916,17.5S6.2661,16.0518,5.4678,16.0518z"/>
		<path d="M18.4561,19.9482c-1.3496,0-2.4482-1.0986-2.4482-2.4482s1.0986-2.4482,2.4482-2.4482s2.4473,1.0986,2.4473,2.4482
			S19.8057,19.9482,18.4561,19.9482z M18.4561,16.0518c-0.7988,0-1.4482,0.6494-1.4482,1.4482s0.6494,1.4482,1.4482,1.4482
			c0.7979,0,1.4473-0.6494,1.4473-1.4482S19.2539,16.0518,18.4561,16.0518z"/>
		<path d="M23.2871,18h-0.8662c-0.2764,0-0.5-0.2236-0.5-0.5s0.2236-0.5,0.5-0.5h0.3418c-0.1045-1.3193-0.5322-2.333-1.2754-3.0176
			c-1.1768-1.085-2.8857-1.1006-3.5693-1.0557c-0.4736,0.0186-0.9102-0.2852-1.0293-0.7461
			c-0.3232-1.2534-1.5723-4.1597-5.7822-4.145l-0.2539,0.0005c-0.3535,0-0.9531,0-1.0381,0.0029
			c-5.0503,0.1484-5.8296,2.9263-5.9302,4.1133c-0.0356,0.418-0.3276,0.7529-0.7617,0.877C1.5093,13.4814,1.1968,15.9385,1.1377,17
			h0.186c0.2764,0,0.5,0.2236,0.5,0.5s-0.2236,0.5-0.5,0.5H0.6245c-0.2715,0-0.4937-0.2168-0.5-0.4883
			c-0.0044-0.1895-0.0771-4.6582,2.7261-5.4453c0.1333-1.1333,0.915-4.8496,6.9346-5.0273
			c0.0869-0.0024,0.7031-0.0029,1.0664-0.0029l0.2505-0.0005c0.0171,0,0.0352,0,0.0522,0c5.0439,0,6.4053,3.7441,6.7031,4.895
			c1.001-0.0674,2.8994,0.0181,4.3076,1.3164c1.0449,0.9629,1.5908,2.3906,1.6221,4.2441c0.002,0.1348-0.0498,0.2637-0.1436,0.3594
			S23.4209,18,23.2871,18z"/>
	</g>
	<path d="M10.3218,21.6338c-0.1572,0-0.3115-0.0732-0.4092-0.2119c-0.1592-0.2256-0.105-0.5371,0.1206-0.6963
		c0.7871-0.5557,0.6587-2.4434,0.5518-3.0605c-0.0151-0.0869-0.0068-0.1768,0.0239-0.2598
		c0.5005-1.3516,1.3208-3.2637,1.3291-3.2832c0.1089-0.2549,0.4028-0.373,0.6567-0.2617c0.2539,0.1084,0.3711,0.4023,0.2617,0.6562
		c-0.0078,0.0186-0.7695,1.7959-1.2642,3.1143c0.0938,0.6436,0.3325,2.9834-0.9829,3.9111
		C10.522,21.6045,10.4214,21.6338,10.3218,21.6338z"/>
</g>
<rect x="0.0005" fill="none" width="24" height="24"/>
</svg>
