<?xml version="1.0" encoding="utf-8"?>
<!-- Generator: Adobe Illustrator 18.1.0, SVG Export Plug-In . SVG Version: 6.00 Build 0)  -->
<svg version="1.1" id="Layer_1" xmlns="http://www.w3.org/2000/svg" xmlns:xlink="http://www.w3.org/1999/xlink" x="0px" y="0px"
	 width="24px" height="24px" viewBox="0 0 24 24" enable-background="new 0 0 24 24" xml:space="preserve">
<g>
	<path d="M13.501,3.001H1.5713c-0.2764,0-0.5-0.2236-0.5-0.5s0.2236-0.5,0.5-0.5H13.501c0.2764,0,0.5,0.2236,0.5,0.5
		S13.7773,3.001,13.501,3.001z"/>
	<path d="M13.501,6.0005H1.5718c-0.2764,0-0.5-0.2236-0.5-0.5s0.2236-0.5,0.5-0.5H13.501c0.2764,0,0.5,0.2236,0.5,0.5
		S13.7773,6.0005,13.501,6.0005z"/>
	<path d="M13.501,9.001H1.5713c-0.2764,0-0.5-0.2236-0.5-0.5s0.2236-0.5,0.5-0.5H13.501c0.2764,0,0.5,0.2236,0.5,0.5
		S13.7773,9.001,13.501,9.001z"/>
	<path d="M13.501,12H1.5718c-0.2764,0-0.5-0.2231-0.5-0.4995s0.2236-0.5,0.5-0.5H13.501c0.2764,0,0.5,0.2236,0.5,0.5
		S13.7773,12,13.501,12z"/>
	<path d="M13.501,15.001H1.5713c-0.2764,0-0.5-0.2236-0.5-0.5s0.2236-0.5,0.5-0.5H13.501c0.2764,0,0.5,0.2236,0.5,0.5
		S13.7773,15.001,13.501,15.001z"/>
	<path d="M13.501,18.001H1.5718c-0.2764,0-0.5-0.2236-0.5-0.5s0.2236-0.5,0.5-0.5H13.501c0.2764,0,0.5,0.2236,0.5,0.5
		S13.7773,18.001,13.501,18.001z"/>
	<path d="M13.501,21.001H1.5713c-0.2764,0-0.5-0.2236-0.5-0.5s0.2236-0.5,0.5-0.5H13.501c0.2764,0,0.5,0.2236,0.5,0.5
		S13.7773,21.001,13.501,21.001z"/>
	<path d="M19.498,19.9502c-0.2764,0-0.5-0.2236-0.5-0.5v-5.8418c0-0.2764,0.2236-0.5,0.5-0.5s0.5,0.2236,0.5,0.5v5.8418
		C19.998,19.7266,19.7744,19.9502,19.498,19.9502z"/>
	<path d="M22.2383,16.9043c-0.1299,0-0.2598-0.0498-0.3574-0.1504L19.5,14.3223l-2.3818,2.4316
		c-0.1914,0.1992-0.5098,0.2012-0.707,0.0078s-0.2012-0.5098-0.0078-0.707l2.7393-2.7969c0.0947-0.0967,0.2227-0.1504,0.3574-0.1504
		l0,0c0.1348,0,0.2637,0.0537,0.3574,0.1504l2.7383,2.7969c0.1934,0.1973,0.1895,0.5137-0.0078,0.707
		C22.4912,16.8564,22.3643,16.9043,22.2383,16.9043z"/>
	<path d="M19.502,10.8818c-0.2764,0-0.5-0.2236-0.5-0.5V4.54c0-0.2764,0.2236-0.5,0.5-0.5s0.5,0.2236,0.5,0.5v5.8418
		C20.002,10.6582,19.7783,10.8818,19.502,10.8818z"/>
	<path d="M19.5,10.8828c-0.1348,0-0.2627-0.0542-0.3574-0.1504l-2.7393-2.7974c-0.1934-0.1973-0.1895-0.5137,0.0078-0.707
		c0.1973-0.1929,0.5156-0.1895,0.707,0.0078L19.5,9.668l2.3809-2.4321c0.1934-0.1973,0.5107-0.2007,0.707-0.0078
		c0.1973,0.1934,0.2012,0.5098,0.0078,0.707l-2.7383,2.7974C19.7637,10.8286,19.6348,10.8828,19.5,10.8828z"/>
</g>
<rect y="0.0011" fill="none" width="24" height="24"/>
</svg>
