<?xml version="1.0" encoding="utf-8"?>
<!-- Generator: Adobe Illustrator 18.1.0, SVG Export Plug-In . SVG Version: 6.00 Build 0)  -->
<svg version="1.1" id="Layer_1" xmlns="http://www.w3.org/2000/svg" xmlns:xlink="http://www.w3.org/1999/xlink" x="0px" y="0px"
	 width="24px" height="24px" viewBox="0 0 24 24" enable-background="new 0 0 24 24" xml:space="preserve">
<g>
	<path d="M11.5142,24.0342h-11c-0.2764,0-0.5-0.2236-0.5-0.5V3.5347c0-1.9297,1.5703-3.5,3.5-3.5h5
		c1.9297,0,3.4995,1.5703,3.4995,3.5v19.9995C12.0137,23.8105,11.7905,24.0342,11.5142,24.0342z M1.0142,23.0342h10V3.5347
		c0-1.3784-1.1216-2.5-2.5-2.5h-5c-1.3784,0-2.5,1.1216-2.5,2.5V23.0342z"/>
	<path d="M23.5146,24.0342H11.5142c-0.2764,0-0.5-0.2236-0.5-0.5V11.5347c0-0.2764,0.2236-0.5,0.5-0.5h12.0005
		c0.2764,0,0.5,0.2236,0.5,0.5v11.9995C24.0146,23.8105,23.791,24.0342,23.5146,24.0342z M12.0137,23.0342h11.001v-10.999h-11.001
		V23.0342z"/>
	<path d="M8.4946,15.0342H7.498c-0.2764,0-0.5-0.2236-0.5-0.5s0.2236-0.5,0.5-0.5h0.9966c0.2764,0,0.5,0.2236,0.5,0.5
		S8.771,15.0342,8.4946,15.0342z"/>
	<path d="M8.4946,18.0342H7.498c-0.2764,0-0.5-0.2236-0.5-0.5s0.2236-0.5,0.5-0.5h0.9966c0.2764,0,0.5,0.2236,0.5,0.5
		S8.771,18.0342,8.4946,18.0342z"/>
	<path d="M8.4946,12.0352H7.498c-0.2764,0-0.5-0.2241-0.5-0.5005s0.2236-0.5,0.5-0.5h0.9966c0.2764,0,0.5,0.2236,0.5,0.5
		S8.771,12.0352,8.4946,12.0352z"/>
	<path d="M8.4946,21.0342H7.498c-0.2764,0-0.5-0.2236-0.5-0.5s0.2236-0.5,0.5-0.5h0.9966c0.2764,0,0.5,0.2236,0.5,0.5
		S8.771,21.0342,8.4946,21.0342z"/>
	<path d="M4.4946,15.0342H3.4976c-0.2764,0-0.5-0.2236-0.5-0.5s0.2236-0.5,0.5-0.5h0.9971c0.2764,0,0.5,0.2236,0.5,0.5
		S4.771,15.0342,4.4946,15.0342z"/>
	<path d="M4.4946,18.0342H3.4976c-0.2764,0-0.5-0.2236-0.5-0.5s0.2236-0.5,0.5-0.5h0.9971c0.2764,0,0.5,0.2236,0.5,0.5
		S4.771,18.0342,4.4946,18.0342z"/>
	<path d="M4.4946,12.0352H3.4976c-0.2764,0-0.5-0.2241-0.5-0.5005s0.2236-0.5,0.5-0.5h0.9971c0.2764,0,0.5,0.2236,0.5,0.5
		S4.771,12.0352,4.4946,12.0352z"/>
	<path d="M4.4946,21.0342H3.4976c-0.2764,0-0.5-0.2236-0.5-0.5s0.2236-0.5,0.5-0.5h0.9971c0.2764,0,0.5,0.2236,0.5,0.5
		S4.771,21.0342,4.4946,21.0342z"/>
	<path d="M13.54,21.0195c-0.1299,0-0.25-0.0498-0.3506-0.1396c-0.0996-0.1104-0.1494-0.2305-0.1494-0.3604
		s0.0498-0.2598,0.1396-0.3496c0.21-0.2002,0.5303-0.1904,0.71-0.0098c0.1006,0.0996,0.1504,0.2295,0.1504,0.3594
		s-0.0498,0.2607-0.1504,0.3506C13.7998,20.9697,13.6699,21.0195,13.54,21.0195z"/>
	<path d="M13.54,18.0195c-0.1299,0-0.2598-0.0498-0.3506-0.1396c-0.0996-0.1104-0.1494-0.2305-0.1494-0.3604
		c0-0.1396,0.0498-0.2695,0.1494-0.3594c0.1807-0.1807,0.5205-0.1807,0.7002,0c0.0898,0.0898,0.1504,0.2197,0.1504,0.3594
		c0,0.1299-0.0498,0.2607-0.1504,0.3506C13.79,17.9697,13.6699,18.0195,13.54,18.0195z"/>
	<path d="M13.54,15.0195c-0.1299,0-0.2598-0.0498-0.3506-0.1494c-0.0996-0.0898-0.1494-0.2207-0.1494-0.3506
		s0.0498-0.2598,0.1494-0.3594c0.1807-0.1807,0.5107-0.1807,0.7002,0c0.1006,0.0996,0.1504,0.2295,0.1504,0.3594
		s-0.0498,0.25-0.1406,0.3506C13.7998,14.9697,13.6699,15.0195,13.54,15.0195z"/>
	<path d="M21.54,21.0195c-0.1299,0-0.2598-0.0498-0.3506-0.1494c-0.0996-0.0898-0.1494-0.2207-0.1494-0.3506
		c0-0.1396,0.0498-0.2598,0.1494-0.3594c0.1807-0.1807,0.5107-0.1807,0.7002,0c0.1006,0.0996,0.1504,0.2295,0.1504,0.3594
		s-0.0498,0.25-0.1406,0.3506C21.7998,20.9697,21.6699,21.0195,21.54,21.0195z"/>
	<path d="M21.54,18.0195c-0.1299,0-0.2598-0.0498-0.3506-0.1494c-0.0996-0.0898-0.1494-0.2207-0.1494-0.3506
		c0-0.1396,0.0498-0.2598,0.1494-0.3594c0.1807-0.1807,0.5107-0.1807,0.7002,0c0.1006,0.0996,0.1504,0.2295,0.1504,0.3594
		s-0.0498,0.25-0.1406,0.3506C21.79,17.9697,21.6699,18.0195,21.54,18.0195z"/>
	<path d="M21.54,15.0195c-0.1299,0-0.2598-0.0498-0.3506-0.1494c-0.0996-0.0898-0.1494-0.2207-0.1494-0.3506
		s0.0498-0.2598,0.1494-0.3594c0.1807-0.1807,0.5107-0.1807,0.7002,0c0.1006,0.0996,0.1504,0.2295,0.1504,0.3594
		s-0.0498,0.25-0.1406,0.3506C21.7998,14.9697,21.6699,15.0195,21.54,15.0195z"/>
	<path d="M15.54,18.0195c-0.1299,0-0.25-0.0498-0.3506-0.1396c-0.0996-0.1104-0.1494-0.2305-0.1494-0.3604
		s0.0498-0.2598,0.1494-0.3594c0.1904-0.1904,0.5205-0.1807,0.71,0.0098c0.0908,0.0801,0.1406,0.21,0.1406,0.3496
		c0,0.1299-0.0498,0.25-0.1406,0.3506C15.7998,17.9697,15.6699,18.0195,15.54,18.0195z"/>
	<path d="M15.54,15.0195c-0.1299,0-0.2598-0.0596-0.3604-0.1494c-0.0898-0.0898-0.1396-0.2207-0.1396-0.3506
		s0.0498-0.2598,0.1396-0.3496c0.2002-0.1904,0.5205-0.1904,0.71-0.0098c0.1006,0.0996,0.1504,0.2295,0.1504,0.3594
		s-0.0498,0.2607-0.1504,0.3506C15.7998,14.9697,15.6699,15.0195,15.54,15.0195z"/>
	<path d="M17.54,18.0195c-0.1406,0-0.2705-0.0596-0.3604-0.1494c-0.0801-0.0898-0.1396-0.2207-0.1396-0.3506
		s0.0498-0.2598,0.1396-0.3496c0.2002-0.1904,0.5205-0.1904,0.71-0.0098c0.1006,0.1094,0.1504,0.2295,0.1504,0.3594
		s-0.0498,0.2607-0.1504,0.3506C17.7998,17.9697,17.6699,18.0195,17.54,18.0195z"/>
	<path d="M17.54,15.0195c-0.1299,0-0.2598-0.0596-0.3604-0.1494c-0.0801-0.0898-0.1396-0.2207-0.1396-0.3506
		c0-0.1396,0.0498-0.2598,0.1396-0.3496c0.2002-0.1904,0.5205-0.1904,0.71-0.0098c0.1006,0.1094,0.1504,0.2295,0.1504,0.3594
		s-0.0498,0.2607-0.1406,0.3506C17.7998,14.9697,17.6699,15.0195,17.54,15.0195z"/>
	<path d="M19.54,18.0195c-0.1299,0-0.2598-0.0498-0.3506-0.1396c-0.0996-0.1104-0.1494-0.2305-0.1494-0.3604
		s0.0498-0.2598,0.1494-0.3594c0.1807-0.1807,0.5205-0.1807,0.7002,0c0.1006,0.0996,0.1504,0.2295,0.1504,0.3594
		s-0.0498,0.25-0.1406,0.3506C19.7998,17.9697,19.6699,18.0195,19.54,18.0195z"/>
	<path d="M19.54,15.0195c-0.1299,0-0.2598-0.0498-0.3506-0.1494c-0.0996-0.1006-0.1494-0.2207-0.1494-0.3506
		s0.0498-0.2598,0.1396-0.3496c0.2002-0.1904,0.5303-0.1904,0.71-0.0098c0.1006,0.1094,0.1504,0.2295,0.1504,0.3594
		s-0.0498,0.25-0.1406,0.3506C19.7998,14.9697,19.6699,15.0195,19.54,15.0195z"/>
	<path d="M19.5146,24.0342h-4.001c-0.2764,0-0.5-0.2236-0.5-0.5v-4c0-0.2764,0.2236-0.5,0.5-0.5h4.001c0.2764,0,0.5,0.2236,0.5,0.5
		v4C20.0146,23.8105,19.791,24.0342,19.5146,24.0342z M16.0137,23.0342h3.001v-3h-3.001V23.0342z"/>
	<path d="M4.5303,9.0015c-0.2764,0-0.5-0.2236-0.5-0.5V4.5508c0-0.2764,0.2236-0.5,0.5-0.5s0.5,0.2236,0.5,0.5v3.9507
		C5.0303,8.7778,4.8066,9.0015,4.5303,9.0015z"/>
	<path d="M7.498,9.0015c-0.2764,0-0.5-0.2236-0.5-0.5V4.5508c0-0.2764,0.2236-0.5,0.5-0.5s0.5,0.2236,0.5,0.5v3.9507
		C7.998,8.7778,7.7744,9.0015,7.498,9.0015z"/>
	<path d="M7.498,7.0264H4.5303c-0.2764,0-0.5-0.2236-0.5-0.5s0.2236-0.5,0.5-0.5H7.498c0.2764,0,0.5,0.2236,0.5,0.5
		S7.7744,7.0264,7.498,7.0264z"/>
</g>
<rect x="0.0142" y="0.0346" fill="none" width="24" height="24"/>
</svg>
