<?xml version="1.0" encoding="utf-8"?>
<!-- Generator: Adobe Illustrator 18.1.0, SVG Export Plug-In . SVG Version: 6.00 Build 0)  -->
<svg version="1.1" id="Layer_1" xmlns="http://www.w3.org/2000/svg" xmlns:xlink="http://www.w3.org/1999/xlink" x="0px" y="0px"
	 width="24px" height="24px" viewBox="0 0 24 24" enable-background="new 0 0 24 24" xml:space="preserve">
<g>
	<path d="M11.9912,23.8467c-6.522,0-11.8281-5.3057-11.8281-11.8281c0-6.5215,5.3062-11.8271,11.8281-11.8271
		c6.5225,0,11.8281,5.3057,11.8281,11.8271C23.8193,18.541,18.5137,23.8467,11.9912,23.8467z M11.9912,1.1914
		c-5.9707,0-10.8281,4.8569-10.8281,10.8271c0,5.9707,4.8574,10.8281,10.8281,10.8281s10.8281-4.8574,10.8281-10.8281
		C22.8193,6.0483,17.9619,1.1914,11.9912,1.1914z"/>
	<path d="M17.207,15.4053c-0.1279,0-0.2559-0.0488-0.3535-0.1465c-0.1953-0.1953-0.1953-0.5117,0-0.707l2.5332-2.5322
		l-2.5332-2.5337c-0.1953-0.1953-0.1953-0.5117,0-0.707s0.5117-0.1953,0.707,0l2.8867,2.8872
		c0.0938,0.0938,0.1465,0.2212,0.1465,0.3535c0,0.1328-0.0527,0.2598-0.1465,0.3535l-2.8867,2.8857
		C17.4629,15.3564,17.335,15.4053,17.207,15.4053z"/>
	<path d="M6.7749,15.4053c-0.1279,0-0.2559-0.0488-0.3535-0.1465L3.5352,12.373c-0.1953-0.1953-0.1953-0.5117,0-0.707l2.8862-2.8872
		c0.1953-0.1953,0.5117-0.1953,0.707,0s0.1953,0.5117,0,0.707l-2.5327,2.5337l2.5327,2.5322c0.1953,0.1953,0.1953,0.5117,0,0.707
		C7.0308,15.3564,6.9028,15.4053,6.7749,15.4053z"/>
	<path d="M14.8779,7.3032c-0.1279,0-0.2559-0.0488-0.3535-0.1465l-2.5332-2.5332L9.458,7.1567c-0.1953,0.1953-0.5117,0.1953-0.707,0
		s-0.1953-0.5117,0-0.707l2.8867-2.8867c0.1953-0.1953,0.5117-0.1953,0.707,0l2.8867,2.8867c0.1953,0.1953,0.1953,0.5117,0,0.707
		C15.1338,7.2544,15.0059,7.3032,14.8779,7.3032z"/>
	<path d="M11.9912,20.6221c-0.1279,0-0.2559-0.0488-0.3535-0.1465L8.751,17.5889c-0.1953-0.1953-0.1953-0.5117,0-0.707
		s0.5117-0.1953,0.707,0l2.5332,2.5332l2.5332-2.5332c0.1953-0.1953,0.5117-0.1953,0.707,0s0.1953,0.5117,0,0.707l-2.8867,2.8867
		C12.2471,20.5732,12.1191,20.6221,11.9912,20.6221z"/>
	<path d="M20.0938,12.5195H4.0342c-0.2764,0-0.5-0.2236-0.5-0.5s0.2236-0.5,0.5-0.5h16.0596c0.2764,0,0.5,0.2236,0.5,0.5
		S20.3701,12.5195,20.0938,12.5195z"/>
	<path d="M12.0645,20.5488c-0.2764,0-0.5-0.2236-0.5-0.5V3.9893c0-0.2764,0.2236-0.5,0.5-0.5s0.5,0.2236,0.5,0.5v16.0596
		C12.5645,20.3252,12.3408,20.5488,12.0645,20.5488z"/>
</g>
<rect y="0.001" fill="none" width="24" height="24"/>
</svg>
