<?xml version="1.0" encoding="utf-8"?>
<!-- Generator: Adobe Illustrator 18.1.0, SVG Export Plug-In . SVG Version: 6.00 Build 0)  -->
<svg version="1.1" id="Layer_1" xmlns="http://www.w3.org/2000/svg" xmlns:xlink="http://www.w3.org/1999/xlink" x="0px" y="0px"
	 width="24px" height="24px" viewBox="0 0 24 24" enable-background="new 0 0 24 24" xml:space="preserve">
<g>
	<path d="M9.9219,11.8892c-0.1885,0-0.3687-0.1064-0.4536-0.2881c-0.0225-0.0483-0.0366-0.0981-0.043-0.1479
		c-0.1284-0.1978-0.1025-0.4648,0.0737-0.6338c5.6104-5.3643,9.7109-7.8716,12.1943-7.4502
		c0.9023,0.1523,1.5879,0.6729,2.0352,1.5469c0.0615,0.1211,0.0713,0.2617,0.0273,0.3901s-0.1377,0.2334-0.2607,0.291
		l-13.3618,6.2451C10.0645,11.874,9.9927,11.8892,9.9219,11.8892z M21.1211,4.3228c-1.9072,0-5.083,1.9336-9.1191,5.542
		l10.5498-4.9307c-0.2695-0.3179-0.6074-0.5083-1.0254-0.5791C21.3984,4.3335,21.2637,4.3228,21.1211,4.3228z"/>
	<path d="M21.1338,20.1904c-2.5186,0-6.4277-2.5166-11.6348-7.4951c-0.1763-0.1689-0.2021-0.4365-0.0737-0.6338
		c0.0063-0.0498,0.0205-0.1001,0.043-0.1484c0.1172-0.2495,0.4136-0.3574,0.665-0.2412l13.3618,6.2451
		c0.123,0.0576,0.2168,0.1621,0.2607,0.291c0.0439,0.1279,0.0342,0.2695-0.0273,0.3896c-0.4473,0.874-1.1328,1.3955-2.0352,1.5479
		C21.5146,20.1758,21.3281,20.1904,21.1338,20.1904z M12.001,13.6484c4.3359,3.8779,7.6709,5.8184,9.5254,5.5107
		c0.418-0.0703,0.7559-0.2607,1.0254-0.5791L12.001,13.6484z"/>
	<path fill="none" stroke="#000000" stroke-linecap="round" stroke-linejoin="round" d="M9.2003,11.7993"/>
	<path d="M3.6133,9.6924c-0.8027,0-1.6016-0.2993-2.25-0.8438c-1.3955-1.1714-1.6816-3.1362-0.6377-4.3799
		C1.731,3.2705,3.8062,3.209,5.1499,4.3369c1.3955,1.1714,1.6816,3.1362,0.6377,4.3799C5.2676,9.3369,4.4751,9.6924,3.6133,9.6924z
		 M2.8999,4.4932c-0.5737,0-1.0737,0.2197-1.4087,0.6182C0.8022,5.9331,1.0327,7.2661,2.0059,8.083
		C2.9487,8.8735,4.3555,8.8667,5.022,8.0742c0.689-0.8218,0.4585-2.1548-0.5146-2.9717C4.0386,4.7095,3.4678,4.4932,2.8999,4.4932z"
		/>
	<path d="M2.9004,20.0088c-0.8613,0-1.6538-0.3555-2.1743-0.9756c-0.5142-0.6123-0.7251-1.4121-0.5938-2.251
		c0.1279-0.8145,0.5649-1.5703,1.2314-2.1289c1.3442-1.1279,3.4199-1.0674,4.4243,0.1318c0.5142,0.6123,0.7251,1.4121,0.5933,2.251
		c-0.1274,0.8145-0.5649,1.5703-1.2314,2.1289C4.5024,19.709,3.7031,20.0088,2.9004,20.0088z M3.6138,14.8096
		c-0.5679,0-1.1387,0.2168-1.6074,0.6094c-0.481,0.4043-0.7959,0.9424-0.8857,1.5176c-0.0864,0.5498,0.0454,1.0664,0.3711,1.4541
		c0.667,0.793,2.0752,0.7979,3.0151,0.0088c0.4819-0.4043,0.7964-0.9434,0.8867-1.5176c0.0859-0.5498-0.0459-1.0664-0.3711-1.4541
		C4.6875,15.0293,4.1875,14.8096,3.6138,14.8096z"/>
	<path d="M8.5757,11.749c-0.1191,0-0.2388-0.0425-0.3345-0.1284l-3.1704-2.853C4.8657,8.583,4.8491,8.2666,5.0337,8.0615
		c0.1851-0.2046,0.501-0.2207,0.7061-0.0371l3.1704,2.853c0.2051,0.1846,0.2217,0.501,0.0371,0.7061
		C8.8486,11.6934,8.7124,11.749,8.5757,11.749z"/>
	<path d="M9.2002,13.0967c-0.7285,0-1.3208-0.5928-1.3208-1.3208c0-0.7285,0.5923-1.3208,1.3208-1.3208s1.3208,0.5923,1.3208,1.3208
		C10.521,12.5039,9.9287,13.0967,9.2002,13.0967z M9.2002,11.4551c-0.1768,0-0.3208,0.144-0.3208,0.3208s0.144,0.3208,0.3208,0.3208
		s0.3208-0.144,0.3208-0.3208S9.377,11.4551,9.2002,11.4551z"/>
	<path d="M5.4053,15.6074c-0.1387,0-0.2769-0.0576-0.376-0.1699c-0.1821-0.208-0.1616-0.5234,0.0459-0.7061l3.1704-2.7832
		c0.2075-0.1816,0.5229-0.1616,0.7061,0.0459c0.1821,0.208,0.1616,0.5234-0.0459,0.7061l-3.1704,2.7832
		C5.6401,15.5664,5.5225,15.6074,5.4053,15.6074z"/>
</g>
<rect y="-0.0001" fill="none" width="24" height="24"/>
</svg>
