<?xml version="1.0" encoding="utf-8"?>
<!-- Generator: Adobe Illustrator 18.1.0, SVG Export Plug-In . SVG Version: 6.00 Build 0)  -->
<svg version="1.1" id="Layer_1" xmlns="http://www.w3.org/2000/svg" xmlns:xlink="http://www.w3.org/1999/xlink" x="0px" y="0px"
	 width="24px" height="24px" viewBox="0 0 24 24" enable-background="new 0 0 24 24" xml:space="preserve">
<g>
	<path d="M11.9883,23.7812c-3.1606,0-6.1284-1.2275-8.3574-3.4561c-2.2295-2.2295-3.457-5.1973-3.457-8.3589
		c0.0005-3.1606,1.228-6.1289,3.4575-8.3584c2.229-2.2295,5.1978-3.457,8.3584-3.457s6.1284,1.2275,8.3579,3.457
		c2.2295,2.229,3.457,5.1978,3.457,8.3584s-1.2275,6.1284-3.457,8.3579S15.1494,23.7812,11.9883,23.7812z M11.9897,1.1509
		c-2.8936,0-5.6108,1.1235-7.6514,3.1641s-3.1641,4.7578-3.1646,7.6519c0,2.8936,1.1235,5.6113,3.1641,7.6514
		c2.04,2.04,4.7568,3.1631,7.6504,3.1631s5.6113-1.123,7.6523-3.1641c2.04-2.04,3.1641-4.7578,3.1641-7.6509
		c0-2.8936-1.124-5.6108-3.1641-7.6514S14.8828,1.1509,11.9897,1.1509z"/>
	<path d="M19.9941,20.4707c-0.1279,0-0.2559-0.0488-0.3535-0.1465L3.6313,4.3149c-0.1953-0.1953-0.1953-0.5117,0-0.707
		s0.5117-0.1953,0.707,0l16.0093,16.0093c0.1953,0.1953,0.1953,0.5117,0,0.707C20.25,20.4219,20.1221,20.4707,19.9941,20.4707z"/>
	<path d="M18.4453,11.0508H6.4482c-0.2764,0-0.5-0.2236-0.5-0.5V9.5254c0-0.8408,0.7368-1.5249,1.6426-1.5249H17.874
		c0.5908,0,1.0713,0.4541,1.0713,1.0122v1.5381C18.9453,10.8271,18.7217,11.0508,18.4453,11.0508z M6.9482,10.0508h10.9971V9.0127
		L7.5908,9.0005c-0.3545,0-0.6426,0.2354-0.6426,0.5249V10.0508z"/>
	<path d="M11.8105,13.8125c-0.1631,0-0.3276-0.0781-0.4302-0.2158c-0.2495-0.3359-0.2168-0.9609-0.145-1.4268
		c0.042-0.2729,0.292-0.459,0.5698-0.418c0.2729,0.042,0.4604,0.2969,0.4185,0.5693c-0.042,0.2812-0.0498,0.624-0.0156,0.7217
		c0.165,0.2207,0.1064,0.5127-0.1152,0.6777C12.0088,13.7832,11.9102,13.8125,11.8105,13.8125z"/>
	<path d="M17.8799,9.0005c-0.2764,0-0.5-0.2236-0.5-0.5V7.9531c0-0.2764,0.2236-0.5,0.5-0.5s0.5,0.2236,0.5,0.5v0.5474
		C18.3799,8.7769,18.1562,9.0005,17.8799,9.0005z"/>
	<path d="M6.2607,18.0547c-0.1489,0-0.1636-0.001-0.1768-0.0029c-0.3223-0.0547-0.8687-0.3477-0.8652-1.0957
		C5.2227,16.0684,6.4092,13.5049,6.647,13c0.1284-0.2725,0.0361-0.8867-0.0669-1.2168c-0.082-0.2637,0.0649-0.5439,0.3286-0.6265
		c0.2666-0.0801,0.5444,0.0654,0.6265,0.3286c0.0376,0.1216,0.3608,1.2109,0.0161,1.9414
		c-0.5518,1.1719-1.3306,3.0439-1.3325,3.5332c0,0.0225,0.0039,0.1025,0.0044,0.1025c0.0762-0.002,1.4248-0.0166,2.2466-0.0254
		c0.0137-0.1084,0.0361-0.2061,0.0581-0.2832c0.0669-0.2363,0.1577-0.416,0.2607-0.5488c-0.0337-0.3662,0.1006-0.8379,0.3223-1.1318
		c-0.0176-0.167,0-0.3672,0.0674-0.6025c0.1187-0.416,0.3101-0.6553,0.5142-0.7734l0.5776-1.5889
		c0.0693-0.1919,0.249-0.3218,0.4526-0.3286l6.1152-0.2065c0.0303-0.2471,0.2412-0.4385,0.4961-0.4385c0.2764,0,0.5,0.2236,0.5,0.5
		v0.4219c0,0.2695-0.2139,0.4902-0.4834,0.5l-6.2563,0.2109l-0.5503,1.5137c-0.0586,0.1611-0.1924,0.2754-0.3486,0.3145
		c-0.041,0.083-0.0786,0.2139-0.0874,0.3066c0.0894,0.0918,0.1416,0.2168,0.1416,0.3477c0,0.0459-0.0063,0.0928-0.0195,0.1387
		c-0.0508,0.1777-0.1919,0.3057-0.3594,0.3477c-0.041,0.083-0.0781,0.2139-0.0874,0.3057c0.0898,0.0918,0.1416,0.2168,0.1416,0.3486
		c0,0.0449-0.0059,0.0908-0.019,0.1367C9.855,16.7051,9.7139,16.834,9.5459,16.876c-0.041,0.083-0.0781,0.2139-0.0874,0.3057
		c0.104,0.1074,0.1582,0.2588,0.1372,0.415c-0.0332,0.2461-0.2417,0.4307-0.4902,0.4336
		C7.2217,18.0498,6.5269,18.0547,6.2607,18.0547z"/>
	<path d="M12.7637,14.6299c-0.0215,0-0.043-0.001-0.0645-0.002l-2.6284-0.0176c-0.2764-0.002-0.4985-0.2275-0.4966-0.5039
		c0.002-0.2744,0.2256-0.4961,0.5-0.4961c0.001,0,0.0024,0,0.0034,0l2.6499,0.0186c0.1104,0.002,0.2002-0.0264,0.2666-0.0908
		c0.0664-0.0635,0.1035-0.1494,0.1035-0.2412v-1.1084c0-0.2764,0.2236-0.5,0.5-0.5s0.5,0.2236,0.5,0.5v1.1084
		c0,0.3633-0.1504,0.7148-0.4141,0.9658C13.4365,14.498,13.1045,14.6299,12.7637,14.6299z"/>
</g>
<rect x="-0.0136" y="0.0002" fill="none" width="24" height="24"/>
</svg>
