<?xml version="1.0" encoding="utf-8"?>
<!-- Generator: Adobe Illustrator 18.1.0, SVG Export Plug-In . SVG Version: 6.00 Build 0)  -->
<svg version="1.1" id="Layer_1" xmlns="http://www.w3.org/2000/svg" xmlns:xlink="http://www.w3.org/1999/xlink" x="0px" y="0px"
	 width="24px" height="24px" viewBox="0 0 24 24" enable-background="new 0 0 24 24" xml:space="preserve">
<g>
	<path d="M11.4819,12.0195c-0.2764,0-0.5-0.2236-0.5-0.5V8.644c0-0.2764,0.2236-0.5,0.5-0.5s0.5,0.2236,0.5,0.5v2.8755
		C11.9819,11.7959,11.7583,12.0195,11.4819,12.0195z"/>
	<path d="M11.5205,6.0073c-0.2764,0-0.5-0.2236-0.5-0.5v-3.917c0-0.2764,0.2236-0.5,0.5-0.5s0.5,0.2236,0.5,0.5v3.917
		C12.0205,5.7837,11.7969,6.0073,11.5205,6.0073z"/>
	<path d="M13.5078,6.0723c-0.2764,0-0.5-0.2236-0.5-0.5V1.5903c0-0.2764,0.2236-0.5,0.5-0.5s0.5,0.2236,0.5,0.5v3.9819
		C14.0078,5.8486,13.7842,6.0723,13.5078,6.0723z"/>
	<path d="M9.5332,6.0723c-0.2764,0-0.5-0.2236-0.5-0.5V1.5903c0-0.2764,0.2236-0.5,0.5-0.5s0.5,0.2236,0.5,0.5v3.9819
		C10.0332,5.8486,9.8096,6.0723,9.5332,6.0723z"/>
	<path d="M11.5806,9.1055h-0.1201c-1.3389,0-2.4277-1.0889-2.4277-2.4272V5.5073c0-0.2764,0.2236-0.5,0.5-0.5h3.9751
		c0.2764,0,0.5,0.2236,0.5,0.5v1.1709C14.0078,8.0166,12.9189,9.1055,11.5806,9.1055z M10.0327,6.0073v0.6709
		c0,0.7871,0.6406,1.4272,1.4277,1.4272h0.1201c0.7866,0,1.4272-0.6401,1.4272-1.4272V6.0073H10.0327z"/>
	<path d="M6.4868,10.2725c-0.4551,0-1.0269-0.1987-1.1694-1.147l-0.394-6.2373C4.8301,1.6934,5.2173,1.0186,6.0752,0.8896
		c0.0244-0.0034,0.1479-0.0132,0.1724-0.0132c1.0044,0,1.1865,1.2178,1.2847,1.8716l0.8315,5.5464
		C8.4443,8.8311,8.355,9.2788,8.0996,9.6255c-0.2344,0.3174-0.5918,0.52-1.0337,0.5864
		C6.8276,10.2476,6.6484,10.2725,6.4868,10.2725z M6.2471,1.874c-0.1626,0.0254-0.395,0.0605-0.3262,0.9438L6.311,9.02
		c0.0303,0.1875,0.0845,0.2441,0.085,0.2446l0.0908,0.0078c0.1162,0,0.2451-0.0215,0.3818-0.0425
		c0.2251-0.0337,0.3521-0.0977,0.4258-0.1982C7.4102,8.875,7.4019,8.625,7.3745,8.4429L6.543,2.8965
		C6.4189,2.0669,6.2949,1.9053,6.2471,1.874z"/>
	<path d="M8.3413,12.0195c-0.2437,0-0.457-0.1777-0.4941-0.4258L6.4976,2.5908C6.4565,2.3179,6.645,2.063,6.918,2.022
		c0.2803-0.0352,0.5283,0.1475,0.5688,0.4204l1.3496,9.0029c0.041,0.2729-0.1475,0.5278-0.4204,0.5684
		C8.3906,12.0176,8.3657,12.0195,8.3413,12.0195z"/>
	<path d="M16.7549,9.1621L16.7549,9.1621c-0.1699,0-0.3389-0.02-0.502-0.0596c-0.6709-0.1626-1.2314-0.6406-1.5791-1.3467
		c-0.3184-0.645-0.4082-1.3936-0.248-2.0542c0.2842-1.1733,1.6221-2.9473,2.9922-2.9473c0.124,0,0.2461,0.0146,0.3633,0.043
		c1.5273,0.3701,1.9443,2.9121,1.6533,4.1177C19.1279,8.1753,17.9512,9.1621,16.7549,9.1621z M17.418,3.7544
		c-0.7402,0-1.7988,1.27-2.0195,2.1826c-0.1045,0.4307-0.04,0.9453,0.1719,1.377c0.124,0.252,0.4092,0.6934,0.918,0.8169
		c0.7842,0.187,1.7559-0.5474,1.9736-1.4512c0.2432-1.0024-0.207-2.7383-0.917-2.9106C17.5049,3.7593,17.4619,3.7544,17.418,3.7544z
		"/>
	<path d="M15.6885,12.0195c-0.0371,0-0.0762-0.0039-0.1143-0.0137c-0.2686-0.0625-0.4355-0.332-0.3721-0.6006l0.6836-2.9097
		c0.0625-0.2681,0.3281-0.4331,0.6006-0.3726c0.2686,0.063,0.4355,0.3325,0.3721,0.6011l-0.6836,2.9097
		C16.1211,11.8643,15.916,12.0195,15.6885,12.0195z"/>
	<path d="M15.125,24.0195H8.0361c-0.2651,0-0.4844-0.207-0.499-0.4717l-0.5635-9.9609c-0.0156-0.2754,0.1953-0.5117,0.4707-0.5273
		c0.2676-0.0254,0.5122,0.1953,0.5273,0.4707l0.5371,9.4893h6.1436l0.5371-9.4795c0.0156-0.2744,0.2383-0.4893,0.5273-0.4707
		c0.2754,0.0156,0.4863,0.252,0.4707,0.5273l-0.5635,9.9512C15.6094,23.8125,15.3906,24.0195,15.125,24.0195z"/>
	<path d="M16.5,14.0195h-10c-0.2764,0-0.5-0.2236-0.5-0.5v-2c0-0.2764,0.2236-0.5,0.5-0.5h10c0.2764,0,0.5,0.2236,0.5,0.5v2
		C17,13.7959,16.7764,14.0195,16.5,14.0195z M7,13.0195h9v-1H7V13.0195z"/>
	<path d="M16.5,14.0195h-10c-0.2764,0-0.5-0.2236-0.5-0.5v-2c0-0.2764,0.2236-0.5,0.5-0.5h10c0.2764,0,0.5,0.2236,0.5,0.5v2
		C17,13.7959,16.7764,14.0195,16.5,14.0195z M7,13.0195h9v-1H7V13.0195z"/>
</g>
<rect y="0.0197" fill="none" width="24" height="24"/>
</svg>
