<?xml version="1.0" encoding="utf-8"?>
<!-- Generator: Adobe Illustrator 18.1.0, SVG Export Plug-In . SVG Version: 6.00 Build 0)  -->
<svg version="1.1" id="Layer_1" xmlns="http://www.w3.org/2000/svg" xmlns:xlink="http://www.w3.org/1999/xlink" x="0px" y="0px"
	 width="24px" height="24px" viewBox="0 0 24 24" enable-background="new 0 0 24 24" xml:space="preserve">
<g>
	<path d="M15.5039,2.9971c-0.2764,0-0.5-0.2236-0.5-0.5v-1.5c0-0.2764,0.2236-0.5,0.5-0.5s0.5,0.2236,0.5,0.5v1.5
		C16.0039,2.7734,15.7803,2.9971,15.5039,2.9971z"/>
	<path d="M8.5029,2.9971c-0.2764,0-0.5-0.2236-0.5-0.5v-1.5c0-0.2764,0.2236-0.5,0.5-0.5s0.5,0.2236,0.5,0.5v1.5
		C9.0029,2.7734,8.7793,2.9971,8.5029,2.9971z"/>
	<path d="M6.8516,23.9297c-0.0381,0-0.0771-0.0039-0.1157-0.0137c-0.269-0.0635-0.4351-0.333-0.3711-0.6016l0.7026-2.9639
		c0.0635-0.2695,0.3345-0.4395,0.6016-0.3711c0.2686,0.0635,0.4351,0.333,0.3711,0.6016l-0.7026,2.9639
		C7.2832,23.7754,7.0781,23.9297,6.8516,23.9297z"/>
	<path d="M17.1533,23.9297c-0.2266,0-0.4316-0.1543-0.4863-0.3848l-0.7021-2.9639c-0.0635-0.2686,0.1025-0.5381,0.3711-0.6016
		c0.2705-0.0684,0.5381,0.1016,0.6016,0.3711l0.7021,2.9639c0.0635,0.2686-0.1025,0.5381-0.3711,0.6016
		C17.2295,23.9258,17.1914,23.9297,17.1533,23.9297z"/>
	<path d="M23.5039,18.9971H0.5034c-0.2764,0-0.5-0.2236-0.5-0.5v-16c0-0.2764,0.2236-0.5,0.5-0.5h23.0005
		c0.2764,0,0.5,0.2236,0.5,0.5v16C24.0039,18.7734,23.7803,18.9971,23.5039,18.9971z M1.0034,17.9971h22.0005v-15H1.0034V17.9971z"
		/>
	<path d="M8.4756,15.9443c-1.2944,0-2.5288-0.5557-3.3862-1.5244c-0.8594-0.9697-1.2622-2.2617-1.106-3.5444
		c0.3354-2.7573,2.8086-3.9976,4.458-3.9976c0.5044,0,0.8843,0.1279,1.0986,0.3706c0.1445,0.1636,0.21,0.3726,0.1831,0.5874
		l-0.626,2.7329c2.6294-1.334,2.6802-1.334,2.8188-1.334c0.3281,0,0.6221,0.1958,0.749,0.4985
		c0.5605,1.4023,0.3906,2.9785-0.4531,4.2236C11.3701,15.2012,9.9731,15.9443,8.4756,15.9443z M8.4414,7.8779
		c-1.0068,0-3.1787,0.7622-3.4658,3.1187c-0.1216,0.9985,0.1929,2.0044,0.8623,2.7603c0.668,0.7549,1.6294,1.1875,2.6377,1.1875
		c1.1826,0,2.2427-0.5645,2.9087-1.5479c0.6235-0.9219,0.7778-2.0283,0.4336-3.0693c-0.6304,0.3052-2.2002,1.0977-3.2197,1.6172
		c-0.1724,0.0879-0.3818,0.0693-0.5347-0.0518c-0.1533-0.1196-0.2231-0.3169-0.1797-0.5059L8.686,7.896
		C8.6265,7.8857,8.5454,7.8779,8.4414,7.8779z"/>
	<path d="M10.4722,9.3818c-0.1084,0-0.2324-0.0391-0.3193-0.1045C9.8843,9.0708,9.813,9.0161,10.2095,6.1387l0.0161-0.1162
		c0.0322-0.2607,0.2456-0.5659,0.7397-0.5659c0.7334,0,2.0972,0.7119,2.644,1.9995c0.0684,0.1655,0.0684,0.3472,0.0039,0.5054
		C13.4053,8.4688,10.498,9.3818,10.4722,9.3818z M11.1709,6.4922c-0.1143,0.8398-0.1753,1.3716-0.2075,1.7085
		c0.4863-0.1865,1.1655-0.4702,1.5669-0.6567C12.1592,6.9556,11.5449,6.6001,11.1709,6.4922z"/>
	<path d="M19.4736,13.9971h-3.9697c-0.2764,0-0.5-0.2236-0.5-0.5s0.2236-0.5,0.5-0.5h3.9697c0.2764,0,0.5,0.2236,0.5,0.5
		S19.75,13.9971,19.4736,13.9971z"/>
	<path d="M19.4736,10.9966h-3.9697c-0.2764,0-0.5-0.2236-0.5-0.5s0.2236-0.5,0.5-0.5h3.9697c0.2764,0,0.5,0.2236,0.5,0.5
		S19.75,10.9966,19.4736,10.9966z"/>
	<path d="M19.4736,7.9966h-3.9697c-0.2764,0-0.5-0.2236-0.5-0.5s0.2236-0.5,0.5-0.5h3.9697c0.2764,0,0.5,0.2236,0.5,0.5
		S19.75,7.9966,19.4736,7.9966z"/>
</g>
<rect x="-0.006" y="-0.003" fill="none" width="24" height="24"/>
</svg>
