<?xml version="1.0" encoding="utf-8"?>
<!-- Generator: Adobe Illustrator 18.1.0, SVG Export Plug-In . SVG Version: 6.00 Build 0)  -->
<svg version="1.1" id="Layer_1" xmlns="http://www.w3.org/2000/svg" xmlns:xlink="http://www.w3.org/1999/xlink" x="0px" y="0px"
	 width="24px" height="24px" viewBox="0 0 24 24" enable-background="new 0 0 24 24" xml:space="preserve">
<g>
	<path d="M21.4492,14.0654c-0.2764,0-0.5-0.2236-0.5-0.5V9.4487c0-0.2764,0.2236-0.5,0.5-0.5s0.5,0.2236,0.5,0.5v4.1167
		C21.9492,13.8418,21.7256,14.0654,21.4492,14.0654z"/>
	<path d="M21.4492,23.0107H1.9966c-1.1436,0-2.0742-0.9307-2.0742-2.0742V7.4839c0-0.2764,0.2236-0.5,0.5-0.5s0.5,0.2236,0.5,0.5
		v13.4526c0,0.5928,0.4819,1.0742,1.0742,1.0742h18.9526v-3.5039c0-0.2764,0.2236-0.5,0.5-0.5s0.5,0.2236,0.5,0.5v4.0039
		C21.9492,22.7871,21.7256,23.0107,21.4492,23.0107z"/>
	<path d="M21.4492,9.9487H1.9966c-1.1436,0-2.0742-1.106-2.0742-2.4648S0.853,5.0195,1.9966,5.0195h19.4526
		c0.2764,0,0.5,0.2236,0.5,0.5s-0.2236,0.5-0.5,0.5H1.9966c-0.5825,0-1.0742,0.6704-1.0742,1.4644s0.4917,1.4648,1.0742,1.4648
		h19.4526c0.2764,0,0.5,0.2236,0.5,0.5S21.7256,9.9487,21.4492,9.9487z"/>
	<path d="M23.4707,19.0068h-4.4561c-1.6377,0-2.9707-1.333-2.9707-2.9707s1.333-2.9707,2.9707-2.9707h4.4561
		c0.2764,0,0.5,0.2236,0.5,0.5v4.9414C23.9707,18.7832,23.7471,19.0068,23.4707,19.0068z M19.0146,14.0654
		c-1.0869,0-1.9707,0.8838-1.9707,1.9707s0.8838,1.9707,1.9707,1.9707h3.9561v-3.9414H19.0146z"/>
	<path d="M21.4492,7.9839H2.3154c-0.2764,0-0.5-0.2236-0.5-0.5s0.2236-0.5,0.5-0.5h19.1338c0.2764,0,0.5,0.2236,0.5,0.5
		S21.7256,7.9839,21.4492,7.9839z"/>
	<path d="M19.3496,16.54c-0.1299,0-0.2598-0.0605-0.3594-0.1504c-0.0908-0.0898-0.1406-0.2197-0.1406-0.3496
		c0-0.1406,0.0498-0.2705,0.1504-0.3604c0.1797-0.1797,0.5098-0.1797,0.7002,0c0.0996,0.1006,0.1494,0.2197,0.1494,0.3604
		c0,0.1201-0.0498,0.25-0.1396,0.3496C19.6094,16.4795,19.4795,16.54,19.3496,16.54z"/>
</g>
<rect x="-0.0136" y="0.0031" fill="none" width="24" height="24"/>
<rect x="-0.0136" fill="none" width="24" height="24"/>
</svg>
