<?xml version="1.0" encoding="utf-8"?>
<!-- Generator: Adobe Illustrator 18.1.0, SVG Export Plug-In . SVG Version: 6.00 Build 0)  -->
<svg version="1.1" id="Layer_1" xmlns="http://www.w3.org/2000/svg" xmlns:xlink="http://www.w3.org/1999/xlink" x="0px" y="0px"
	 width="24px" height="24px" viewBox="0 0 24 24" enable-background="new 0 0 24 24" xml:space="preserve">
<g>
	<path d="M16.0186,14.3643c-0.2764,0-0.5-0.2236-0.5-0.5v-3.0913c0.002-0.0435,0.0732-1.9146-1.2393-2.8887
		c-1.1533-0.8564-3.0415-0.8296-5.6089,0.0771C8.4102,8.0542,8.124,7.9175,8.0327,7.6567C7.9404,7.3965,8.0767,7.1108,8.3374,7.019
		c2.9062-1.0293,5.1099-1.0059,6.5464,0.0688c1.7393,1.2988,1.6396,3.6133,1.6338,3.7109l0.001,3.0654
		C16.5186,14.1406,16.2949,14.3643,16.0186,14.3643z"/>
	<path d="M12.0264,23.7236c-6.5117,0-11.8096-5.2578-11.8096-11.7197c0-6.4624,5.2979-11.7202,11.8096-11.7202
		c6.0127,0,11.0576,4.4653,11.7344,10.3872c0.208,2.1611-0.3623,4.1533-1.5635,5.4756c-0.9023,0.9932-2.085,1.5176-3.4209,1.5176
		c-0.998,0-1.7939-0.3154-2.3643-0.9365c-0.3281-0.3574-0.5381-0.7744-0.6719-1.1787c-1.0908,1.2422-3.1211,2.1035-4.8179,2.1152
		c-0.0127,0-0.0254,0-0.0376,0c-2.1206,0-3.5205-1.2373-3.748-3.3164c-0.1309-1.1992,0.1929-2.1377,0.9624-2.791
		c2.2876-1.9395,7.8208-0.4209,8.0542-0.3555c0.2656,0.0742,0.4209,0.3501,0.3467,0.6162
		c-0.0732,0.2656-0.3447,0.4238-0.6162,0.3467c-1.4551-0.4062-5.5752-1.1704-7.1382,0.1553
		c-0.5078,0.4316-0.709,1.0586-0.6147,1.9189c0.2207,2.0195,1.6025,2.415,2.7847,2.4258c2.1069-0.0146,4.4741-1.4775,4.605-2.8477
		c0.0264-0.2734,0.25-0.4893,0.542-0.4492c0.2734,0.0234,0.4766,0.2646,0.4541,0.5381c-0.001,0.0137-0.0986,1.3535,0.6357,2.1494
		c0.3779,0.4102,0.9092,0.6094,1.624,0.6094c1.0469,0,1.9736-0.4111,2.6807-1.1904c0.9971-1.0977,1.4863-2.8535,1.3086-4.6982
		c-0.6172-5.4072-5.2354-9.4917-10.7393-9.4917c-5.9604,0-10.8096,4.8091-10.8096,10.7202s4.8491,10.7197,10.8096,10.7197
		c2.3164,0,4.5254-0.7158,6.3877-2.0703c0.2217-0.1621,0.5352-0.1143,0.6982,0.1104c0.1621,0.2236,0.1133,0.5361-0.1104,0.6982
		C16.9678,22.9414,14.5557,23.7236,12.0264,23.7236z"/>
</g>
<rect fill="none" width="24" height="24"/>
</svg>
