<?xml version="1.0" encoding="utf-8"?>
<!-- Generator: Adobe Illustrator 18.1.0, SVG Export Plug-In . SVG Version: 6.00 Build 0)  -->
<svg version="1.1" id="Layer_1" xmlns="http://www.w3.org/2000/svg" xmlns:xlink="http://www.w3.org/1999/xlink" x="0px" y="0px"
	 width="24px" height="24px" viewBox="0 0 24 24" enable-background="new 0 0 24 24" xml:space="preserve">
<g>
	<path d="M4.5718,13.874c-0.7432,0-1.3477-0.6045-1.3477-1.3467c0-0.7432,0.6045-1.3477,1.3477-1.3477
		c0.7427,0,1.3472,0.6045,1.3472,1.3477C5.9189,13.2695,5.3145,13.874,4.5718,13.874z M4.5718,12.1797
		c-0.1919,0-0.3477,0.1562-0.3477,0.3477s0.1558,0.3467,0.3477,0.3467c0.1914,0,0.3472-0.1553,0.3472-0.3467
		S4.7632,12.1797,4.5718,12.1797z"/>
	<path d="M9.6362,18.8926c-3.2988,0-6.4297-1.6768-9.0552-4.8486c-0.5034-0.6074-0.5039-1.4912,0-2.1006
		c2.625-3.1719,5.7559-4.8481,9.0542-4.8481c3.4956,0,7.1284,1.8657,10.7983,5.5454c0.1943,0.1953,0.1943,0.5117,0,0.707
		C16.7637,17.0273,13.1309,18.8926,9.6362,18.8926z M9.6353,8.0952c-2.9902,0-5.855,1.5513-8.2837,4.4849
		c-0.1982,0.2402-0.1982,0.5879,0,0.8262c2.4292,2.9355,5.2939,4.4863,8.2847,4.4863c3.1089,0,6.3804-1.6475,9.731-4.8984
		C16.0166,9.7432,12.7441,8.0952,9.6353,8.0952z"/>
	<path d="M23.3086,17.7139c-0.0215,0-0.0439-0.001-0.0654-0.0039c-1.0674-0.1406-3.6846-2.626-4.4619-3.3848
		c-0.1973-0.1924-0.2012-0.5088-0.0078-0.707c0.1924-0.1953,0.5088-0.2012,0.707-0.0078c1.126,1.0986,2.502,2.2881,3.3174,2.8223
		c-0.042-0.8779-0.207-2.3057-0.8115-3.1465c-0.125-0.1748-0.125-0.4092,0-0.584c0.5723-0.7954,0.7656-2.1943,0.8135-3.1484
		c-0.8154,0.5332-2.1924,1.7236-3.3193,2.8232c-0.1982,0.1943-0.5146,0.1885-0.707-0.0078
		c-0.1934-0.1982-0.1895-0.5146,0.0078-0.7075c0.7773-0.7583,3.3945-3.2432,4.4619-3.3838c0.1377-0.019,0.2803,0.0225,0.3877,0.1133
		c0.1074,0.0903,0.1719,0.2222,0.1777,0.3628c0.0039,0.1138,0.0928,2.6489-0.8223,4.2402c0.915,1.5918,0.8262,4.126,0.8223,4.2393
		c-0.0059,0.1406-0.0703,0.2725-0.1777,0.3633C23.54,17.6729,23.4258,17.7139,23.3086,17.7139z"/>
	<path d="M7.5,18.6406c-0.2764,0-0.5-0.2236-0.5-0.5V7.8467c0-0.2764,0.2236-0.5,0.5-0.5S8,7.5703,8,7.8467v10.2939
		C8,18.417,7.7764,18.6406,7.5,18.6406z"/>
	<path d="M9.9775,11.2793c-0.0991,0-0.1987-0.0293-0.2861-0.0903c-0.2261-0.1582-0.2812-0.4702-0.123-0.6963
		c0.3364-0.481,0.0469-0.8198,0.0347-0.834C9.4204,9.4512,9.4404,9.1353,9.6475,8.9531c0.207-0.1826,0.5229-0.1636,0.7056,0.0444
		c0.2856,0.3242,0.6606,1.1738,0.0347,2.0684C10.2905,11.2051,10.1353,11.2793,9.9775,11.2793z"/>
	<path d="M9.9775,14.1953c-0.0991,0-0.1987-0.0293-0.2861-0.0908c-0.2261-0.1582-0.2812-0.4697-0.123-0.6963
		c0.3364-0.4805,0.0469-0.8193,0.0347-0.834c-0.1826-0.207-0.1626-0.5225,0.0444-0.7051c0.207-0.1831,0.5229-0.1626,0.7056,0.0444
		c0.2856,0.3247,0.6606,1.1743,0.0347,2.0688C10.2905,14.1211,10.1353,14.1953,9.9775,14.1953z"/>
	<path d="M14.7549,14.1953c-0.0996,0-0.1992-0.0293-0.2861-0.0898c-0.2266-0.1582-0.2822-0.4707-0.124-0.6963
		c0.3369-0.4814,0.0469-0.8203,0.0352-0.835c-0.1826-0.207-0.1631-0.5234,0.0449-0.7056c0.207-0.1821,0.5234-0.1616,0.7051,0.0454
		c0.2861,0.3242,0.6602,1.1738,0.0352,2.0674C15.0674,14.1211,14.9121,14.1953,14.7549,14.1953z"/>
	<path d="M9.9775,17.1113c-0.0991,0-0.1987-0.0293-0.2861-0.0908c-0.2261-0.1582-0.2812-0.4697-0.123-0.6963
		c0.3364-0.4805,0.0469-0.8193,0.0347-0.834c-0.1826-0.207-0.1626-0.5225,0.0444-0.7051c0.207-0.1836,0.5229-0.1631,0.7056,0.0449
		c0.2856,0.3242,0.6606,1.1738,0.0347,2.0684C10.2905,17.0371,10.1353,17.1113,9.9775,17.1113z"/>
	<path d="M12.3662,12.7637c-0.0996,0-0.1992-0.0293-0.2861-0.0898c-0.2266-0.1582-0.2817-0.4707-0.1235-0.6968
		c0.3364-0.481,0.0464-0.8198,0.0342-0.8345c-0.1821-0.207-0.1621-0.5229,0.0454-0.7056c0.207-0.1821,0.5234-0.1621,0.7051,0.0454
		c0.2861,0.3242,0.6602,1.1733,0.0352,2.0674C12.6787,12.6895,12.5234,12.7637,12.3662,12.7637z"/>
	<path d="M12.3662,15.6807c-0.0996,0-0.1992-0.0293-0.2861-0.0898c-0.2266-0.1582-0.2817-0.4697-0.124-0.6963
		c0.3145-0.4502,0.0791-0.7803,0.0288-0.8428c-0.1719-0.2109-0.1465-0.5254,0.062-0.7012c0.207-0.1758,0.5137-0.1572,0.6943,0.0479
		c0.2861,0.3242,0.6602,1.1738,0.0352,2.0684C12.6787,15.6064,12.5234,15.6807,12.3662,15.6807z"/>
</g>
<rect y="0.0197" fill="none" width="24" height="24"/>
</svg>
