<?xml version="1.0" encoding="utf-8"?>
<!-- Generator: Adobe Illustrator 18.1.0, SVG Export Plug-In . SVG Version: 6.00 Build 0)  -->
<svg version="1.1" id="Layer_1" xmlns="http://www.w3.org/2000/svg" xmlns:xlink="http://www.w3.org/1999/xlink" x="0px" y="0px"
	 width="24px" height="24px" viewBox="0 0 24 24" enable-background="new 0 0 24 24" xml:space="preserve">
<g>
	<path d="M12.5488,7.0298H3.4683c-0.2764,0-0.5-0.2236-0.5-0.5s0.2236-0.5,0.5-0.5h9.0806c0.2764,0,0.5,0.2236,0.5,0.5
		S12.8252,7.0298,12.5488,7.0298z"/>
	<path d="M7.5659,4.0596H3.4683c-0.2764,0-0.5-0.2236-0.5-0.5s0.2236-0.5,0.5-0.5h4.0977c0.2764,0,0.5,0.2236,0.5,0.5
		S7.8423,4.0596,7.5659,4.0596z"/>
	<path d="M22.4268,20.0459H9.5107c-0.855,0-1.5503-0.6953-1.5503-1.5498v-6.9395c0-0.8545,0.6953-1.5498,1.5503-1.5498h12.916
		c0.8545,0,1.5488,0.6953,1.5488,1.5498v6.9395C23.9756,19.3506,23.2812,20.0459,22.4268,20.0459z M9.5107,11.0068
		c-0.3032,0-0.5503,0.2466-0.5503,0.5498v6.9395c0,0.3027,0.2471,0.5498,0.5503,0.5498h12.916c0.3027,0,0.5488-0.2471,0.5488-0.5498
		v-6.9395c0-0.3032-0.2461-0.5498-0.5488-0.5498H9.5107z"/>
	<path d="M18.4785,5h-4.1396c-0.2764,0-0.5-0.2236-0.5-0.4995L13.835,0.5293c0-0.2764,0.2236-0.5,0.499-0.5005
		c0.001,0,0.001,0,0.001,0c0.2764,0,0.5,0.2236,0.5,0.4995L14.8379,4h3.6406c0.2764,0,0.5,0.2236,0.5,0.5S18.7549,5,18.4785,5z"/>
	<path d="M17.6797,23.9717H1.3408c-0.7158,0-1.2979-0.583-1.2979-1.2988V1.3267c0-0.7158,0.582-1.2979,1.2979-1.2979H14.335
		c0.3438,0,0.668,0.1328,0.9111,0.374l3.3447,3.2969C18.7695,3.8765,18.9785,4.083,18.9785,4.5v3.9023c0,0.2764-0.2236,0.5-0.5,0.5
		s-0.5-0.2236-0.5-0.5V4.5c-0.0088-0.0142-0.042-0.0415-0.0801-0.0786l-3.3545-3.3071c-0.0566-0.0552-0.1299-0.0854-0.209-0.0854
		H1.3408c-0.1641,0-0.2979,0.1338-0.2979,0.2979v21.3462c0,0.165,0.1338,0.2988,0.2979,0.2988h16.3389
		c0.165,0,0.2988-0.1338,0.2988-0.2988v-1.1094c0-0.2764,0.2236-0.5,0.5-0.5s0.5,0.2236,0.5,0.5v1.1094
		C18.9785,23.3887,18.3955,23.9717,17.6797,23.9717z"/>
	<path d="M12.4121,17.0078h-0.9814c-0.2764,0-0.5-0.2236-0.5-0.5v-3.0225c0-0.2764,0.2236-0.5,0.5-0.5h0.9814
		c1.0303,0,1.8682,0.9014,1.8682,2.0088c0,1.0752-0.79,1.9551-1.7793,2.0059C12.4727,17.0049,12.4424,17.0078,12.4121,17.0078z
		 M11.9307,16.0078h0.4043c0.0254-0.0039,0.0508-0.0059,0.0771-0.0059c0.4785,0,0.8682-0.4521,0.8682-1.0078
		c0-0.5566-0.3896-1.0088-0.8682-1.0088h-0.4814V16.0078z"/>
	<path d="M20.584,17.0029c-1.0615,0-1.9248-0.9014-1.9248-2.0088s0.8633-2.0088,1.9248-2.0088c0.5039,0,0.9805,0.2021,1.3418,0.5684
		c0.1934,0.1963,0.1914,0.5127-0.0059,0.707c-0.1953,0.1924-0.5137,0.1924-0.707-0.0059c-0.1709-0.1738-0.3945-0.2695-0.6289-0.2695
		c-0.5098,0-0.9248,0.4521-0.9248,1.0088s0.415,1.0088,0.9248,1.0088c0.2441,0,0.4746-0.1035,0.6504-0.291
		c0.1865-0.2021,0.5059-0.2119,0.7061-0.0244c0.2021,0.1885,0.2129,0.5049,0.0244,0.7061
		C21.5986,16.7861,21.1084,17.0029,20.584,17.0029z"/>
	<path d="M16.5059,17.0078c-1.0303,0-1.8682-0.9023-1.8682-2.0117c0-1.1084,0.8379-2.0107,1.8682-2.0107
		s1.8691,0.9023,1.8691,2.0107C18.375,16.1055,17.5361,17.0078,16.5059,17.0078z M16.5059,13.9854
		c-0.4785,0-0.8682,0.4531-0.8682,1.0107s0.3896,1.0117,0.8682,1.0117c0.4795,0,0.8691-0.4541,0.8691-1.0117
		S16.9854,13.9854,16.5059,13.9854z"/>
</g>
<rect y="0.0001" fill="none" width="24" height="24"/>
</svg>
