<?xml version="1.0" encoding="utf-8"?>
<!-- Generator: Adobe Illustrator 18.1.0, SVG Export Plug-In . SVG Version: 6.00 Build 0)  -->
<svg version="1.1" id="Layer_1" xmlns="http://www.w3.org/2000/svg" xmlns:xlink="http://www.w3.org/1999/xlink" x="0px" y="0px"
	 width="24px" height="24px" viewBox="0 0 24 24" enable-background="new 0 0 24 24" xml:space="preserve">
<g>
	<path d="M21.6191,22H2.4321c-0.5522,0-1.043-0.2559-1.2808-0.6689c-0.189-0.3281-0.189-0.7041,0-1.0303l3.8628-6.6572
		C5.2446,13.2461,5.7354,13,6.2949,13h11.4609c0.5703,0,1.0498,0.2383,1.2812,0.6367l3.8623,6.6758
		c0.1885,0.3252,0.1895,0.6982,0.002,1.0225C22.665,21.7451,22.1738,22,21.6191,22z M6.2949,14
		c-0.2285,0-0.3809,0.085-0.4155,0.1455l-3.8628,6.6572C2.0156,20.8574,2.1572,21,2.4321,21h19.187
		c0.2705,0,0.4131-0.1348,0.4219-0.1768l-3.8691-6.6855C18.1387,14.0811,17.9873,14,17.7559,14H6.2949z"/>
	<path d="M21.001,19H3.0005c-0.2764,0-0.5-0.2236-0.5-0.5s0.2236-0.5,0.5-0.5H21.001c0.2764,0,0.5,0.2236,0.5,0.5
		S21.2773,19,21.001,19z"/>
	<path d="M19.5371,16H4.5151c-0.2764,0-0.5-0.2236-0.5-0.5s0.2236-0.5,0.5-0.5h15.022c0.2764,0,0.5,0.2236,0.5,0.5
		S19.8135,16,19.5371,16z"/>
	<path d="M12.001,21.9697c-0.2764,0-0.5-0.2236-0.5-0.5v-7.9395c0-0.2764,0.2236-0.5,0.5-0.5s0.5,0.2236,0.5,0.5v7.9395
		C12.501,21.7461,12.2773,21.9697,12.001,21.9697z"/>
	<path d="M6.562,21.9697c-0.0376,0-0.0762-0.0039-0.1143-0.0127c-0.269-0.0635-0.436-0.332-0.373-0.6006l1.8545-7.9395
		c0.0625-0.2705,0.3306-0.4385,0.6006-0.374c0.269,0.0635,0.436,0.332,0.373,0.6006L7.0483,21.583
		C6.9946,21.8145,6.7891,21.9697,6.562,21.9697z"/>
	<path d="M17.4893,21.9697c-0.2275,0-0.4326-0.1553-0.4873-0.3867l-1.8535-7.9395c-0.0625-0.2686,0.1045-0.5371,0.374-0.6006
		c0.2744-0.0605,0.5371,0.1045,0.6006,0.374l1.8535,7.9395c0.0625,0.2686-0.1045,0.5371-0.374,0.6006
		C17.5645,21.9658,17.5264,21.9697,17.4893,21.9697z"/>
	<path d="M16.001,24H8.0005c-0.2764,0-0.5-0.2236-0.5-0.5s0.2236-0.5,0.5-0.5h8.0005c0.2764,0,0.5,0.2236,0.5,0.5
		S16.2773,24,16.001,24z"/>
	<path d="M12.0166,7.5347c-1.1265,0-2.043-0.9165-2.043-2.0435c0-1.1265,0.9165-2.043,2.043-2.043c1.127,0,2.043,0.9165,2.043,2.043
		C14.0596,6.6182,13.1436,7.5347,12.0166,7.5347z M12.0166,4.4482c-0.5752,0-1.043,0.4678-1.043,1.043s0.4678,1.0435,1.043,1.0435
		s1.043-0.4683,1.043-1.0435S12.5918,4.4482,12.0166,4.4482z"/>
	<path d="M16.8643,6.0005H14.959c-0.2764,0-0.5-0.2236-0.5-0.5s0.2236-0.5,0.5-0.5h1.9053c0.2764,0,0.5,0.2236,0.5,0.5
		S17.1406,6.0005,16.8643,6.0005z"/>
	<path d="M9.0806,6.0005H7.1758c-0.2764,0-0.5-0.2236-0.5-0.5s0.2236-0.5,0.5-0.5h1.9048c0.2764,0,0.5,0.2236,0.5,0.5
		S9.3569,6.0005,9.0806,6.0005z"/>
	<path d="M12.0195,3.061c-0.2764,0-0.5-0.2236-0.5-0.5V0.6558c0-0.2764,0.2236-0.5,0.5-0.5s0.5,0.2236,0.5,0.5V2.561
		C12.5195,2.8374,12.2959,3.061,12.0195,3.061z"/>
	<path d="M12.0195,10.8447c-0.2764,0-0.5-0.2236-0.5-0.5V8.4399c0-0.2764,0.2236-0.5,0.5-0.5s0.5,0.2236,0.5,0.5v1.9048
		C12.5195,10.6211,12.2959,10.8447,12.0195,10.8447z"/>
	<path d="M14.1602,3.8599c-0.1279,0-0.2559-0.0488-0.3535-0.1465c-0.1953-0.1953-0.1953-0.5122,0-0.707l1.3477-1.3467
		c0.1953-0.1953,0.5117-0.1953,0.707,0s0.1953,0.5122,0,0.707l-1.3477,1.3467C14.416,3.811,14.2881,3.8599,14.1602,3.8599z"/>
	<path d="M8.5327,9.4878c-0.1279,0-0.2559-0.0488-0.3535-0.1465c-0.1953-0.1953-0.1953-0.5117,0-0.707l1.3467-1.3467
		c0.1953-0.1953,0.5117-0.1953,0.707,0s0.1953,0.5117,0,0.707L8.8862,9.3413C8.7886,9.439,8.6606,9.4878,8.5327,9.4878z"/>
	<path d="M15.5078,9.4878c-0.1279,0-0.2559-0.0488-0.3535-0.1465l-1.3477-1.3467c-0.1953-0.1948-0.1953-0.5117,0-0.707
		s0.5117-0.1953,0.707,0l1.3477,1.3467c0.1953,0.1948,0.1953,0.5117,0,0.707C15.7637,9.439,15.6357,9.4878,15.5078,9.4878z"/>
	<path d="M9.8794,3.8599c-0.1279,0-0.2559-0.0488-0.3535-0.1465L8.1792,2.3667c-0.1953-0.1953-0.1953-0.5117,0-0.707
		s0.5117-0.1953,0.707,0l1.3467,1.3467c0.1953,0.1953,0.1953,0.5117,0,0.707C10.1353,3.811,10.0073,3.8599,9.8794,3.8599z"/>
</g>
<rect x="0.0005" fill="none" width="24" height="24"/>
</svg>
