<?xml version="1.0" encoding="utf-8"?>
<!-- Generator: Adobe Illustrator 18.1.0, SVG Export Plug-In . SVG Version: 6.00 Build 0)  -->
<svg version="1.1" id="Layer_1" xmlns="http://www.w3.org/2000/svg" xmlns:xlink="http://www.w3.org/1999/xlink" x="0px" y="0px"
	 width="24px" height="24px" viewBox="0 0 24 24" enable-background="new 0 0 24 24" xml:space="preserve">
<g>
	<path d="M20.2275,13.0039h-4.5674c-0.2764,0-0.5-0.2236-0.5-0.5s0.2236-0.5,0.5-0.5h4.5674c0.2764,0,0.5,0.2236,0.5,0.5
		S20.5039,13.0039,20.2275,13.0039z"/>
	<path d="M17.5283,15.6475c-0.1299,0-0.2598-0.0498-0.3574-0.1504c-0.1934-0.1973-0.1895-0.5137,0.0078-0.707l2.335-2.2861
		l-2.335-2.2856c-0.1973-0.1934-0.2012-0.5098-0.0078-0.707c0.1924-0.1968,0.5107-0.2002,0.707-0.0078l2.7002,2.6431
		c0.0967,0.0938,0.1504,0.2227,0.1504,0.3574s-0.0537,0.2637-0.1504,0.3574l-2.7002,2.6436
		C17.7812,15.5996,17.6543,15.6475,17.5283,15.6475z"/>
	<path d="M21.1094,24H2.8633c-1.5864,0-2.877-1.291-2.877-2.877V2.8774C-0.0137,1.291,1.2769,0,2.8633,0h18.2461
		c1.5859,0,2.877,1.291,2.877,2.8774V21.123C23.9863,22.709,22.6953,24,21.1094,24z M2.8633,1c-1.0352,0-1.877,0.8423-1.877,1.8774
		V21.123c0,1.0352,0.8418,1.877,1.877,1.877h18.2461c1.0352,0,1.877-0.8418,1.877-1.877V2.8774C22.9863,1.8423,22.1445,1,21.1094,1
		H2.8633z"/>
	<path d="M11.4194,8.2422c-0.9253,0-1.6777-0.7524-1.6777-1.6772c0-0.9253,0.7524-1.6777,1.6777-1.6777s1.6772,0.7524,1.6772,1.6777
		C13.0967,7.4897,12.3447,8.2422,11.4194,8.2422z M11.4194,5.8872c-0.3735,0-0.6777,0.3042-0.6777,0.6777
		s0.3042,0.6772,0.6777,0.6772s0.6772-0.3037,0.6772-0.6772S11.793,5.8872,11.4194,5.8872z"/>
	<path d="M10.4819,19.9619c-0.2754,0-0.4995-0.2227-0.5-0.499c0-0.0264-0.0073-2.6299-0.0566-3.4414l-1.9844-2.0605
		c-0.0312-0.0322-0.0586-0.0684-0.0801-0.1074c-0.2217-0.3965-0.2705-0.873-0.1348-1.3057l0.7944-2.5415
		c0.2778-0.8872,1.1763-1.4341,2.0493-1.2417c0.9277,0.2036,1.4419,1.0396,1.3091,2.1299l-0.2441,2.1133l1.7705,0.0283
		c0.2764,0.0049,0.4961,0.2314,0.4922,0.5078c-0.0049,0.2764-0.2383,0.4824-0.5078,0.4922l-2.3228-0.0371
		c-0.1416-0.002-0.2749-0.0645-0.3682-0.1699c-0.0933-0.1064-0.1367-0.2471-0.1206-0.3877l0.3081-2.665
		c0.0327-0.271,0.0464-0.9082-0.5312-1.0352c-0.3652-0.0825-0.7563,0.166-0.8804,0.564l-0.7944,2.5415
		C8.6318,13.001,8.6426,13.168,8.708,13.3145l1.8936,1.9258c0.1914,0.1953,0.3052,0.4512,0.3218,0.7207
		c0.0513,0.8408,0.0581,3.3916,0.0586,3.5c0.0005,0.2754-0.2227,0.5-0.4985,0.501C10.4829,19.9619,10.4824,19.9619,10.4819,19.9619z
		"/>
	<path d="M6.5317,16.917H3.8828c-0.2764,0-0.5-0.2236-0.5-0.5s0.2236-0.5,0.5-0.5h2.3794l0.8232-1.25
		c0.1519-0.2285,0.4624-0.2939,0.6924-0.1426c0.231,0.1523,0.2944,0.4619,0.1426,0.6934l-0.9712,1.4746
		C6.8569,16.832,6.6997,16.917,6.5317,16.917z"/>
	<path d="M5.2275,12.4189c-0.0811,0-0.1636-0.0205-0.2397-0.0625c-0.2422-0.1318-0.3311-0.436-0.1982-0.6782l1.3315-2.4297
		C6.209,9.0884,6.377,8.9888,6.5596,8.9888h0.9434c0.2764,0,0.5,0.2236,0.5,0.5s-0.2236,0.5-0.5,0.5H6.856l-1.1895,2.1704
		C5.5757,12.3242,5.4043,12.4189,5.2275,12.4189z"/>
</g>
<rect x="-0.0136" y="0.0002" fill="none" width="24" height="24"/>
</svg>
