<?xml version="1.0" encoding="utf-8"?>
<!-- Generator: Adobe Illustrator 18.1.0, SVG Export Plug-In . SVG Version: 6.00 Build 0)  -->
<svg version="1.1" id="Layer_1" xmlns="http://www.w3.org/2000/svg" xmlns:xlink="http://www.w3.org/1999/xlink" x="0px" y="0px"
	 width="24px" height="24px" viewBox="0 0 24 24" enable-background="new 0 0 24 24" xml:space="preserve">
<g>
	<path d="M19.5,10.501c-0.2764,0-0.5-0.2236-0.5-0.5v-5h-5c-0.2764,0-0.5-0.2236-0.5-0.5s0.2236-0.5,0.5-0.5h5.5
		c0.2764,0,0.5,0.2236,0.5,0.5v5.5C20,10.2773,19.7764,10.501,19.5,10.501z"/>
	<path d="M10,20.001H4.5c-0.2764,0-0.5-0.2236-0.5-0.5v-5.5c0-0.2764,0.2236-0.5,0.5-0.5s0.5,0.2236,0.5,0.5v5h5
		c0.2764,0,0.5,0.2236,0.5,0.5S10.2764,20.001,10,20.001z"/>
	<path d="M4.5,20.001c-0.1279,0-0.2559-0.0488-0.3535-0.1465c-0.1953-0.1953-0.1953-0.5117,0-0.707l15-15
		c0.1953-0.1953,0.5117-0.1953,0.707,0s0.1953,0.5117,0,0.707l-15,15C4.7559,19.9521,4.6279,20.001,4.5,20.001z"/>
	<path d="M23.5,24.001h-23c-0.2764,0-0.5-0.2236-0.5-0.5v-23c0-0.2764,0.2236-0.5,0.5-0.5h23c0.2764,0,0.5,0.2236,0.5,0.5v23
		C24,23.7773,23.7764,24.001,23.5,24.001z M1,23.001h22v-22H1V23.001z"/>
</g>
<rect y="0.001" fill="none" width="24" height="24"/>
</svg>
