<?xml version="1.0" encoding="utf-8"?>
<!-- Generator: Adobe Illustrator 18.1.0, SVG Export Plug-In . SVG Version: 6.00 Build 0)  -->
<svg version="1.1" id="Layer_1" xmlns="http://www.w3.org/2000/svg" xmlns:xlink="http://www.w3.org/1999/xlink" x="0px" y="0px"
	 width="24px" height="24px" viewBox="0 0 24 24" enable-background="new 0 0 24 24" xml:space="preserve">
<g>
	<path d="M12.8398,11.978L12,11.9756l-0.8394,0.0024c-1.4214,0-2.7539-0.0669-3.4409-0.873
		c-0.3828-0.4492-0.5137-1.0723-0.3882-1.8506l2.082-8.8496c0.0532-0.2256,0.2549-0.3853,0.4868-0.3853h4.1992
		c0.2324,0,0.4336,0.1597,0.4863,0.3857L16.6611,9.23c0.1133,0.8271-0.0322,1.4478-0.4209,1.8921
		C15.5469,11.9136,14.29,11.978,12.8398,11.978z M12,10.9756l0.8398,0.0024c1.1113,0,2.2314-0.0396,2.6475-0.5151
		c0.1943-0.2212,0.2568-0.5654,0.1914-1.0527l-1.9746-8.3906h-3.4077L8.312,9.4487C8.2412,9.896,8.2944,10.2373,8.481,10.4565
		c0.4102,0.4814,1.5483,0.5215,2.6797,0.5215L12,10.9756z"/>
	<path d="M14,9.0195h-4c-0.2764,0-0.5-0.2236-0.5-0.5s0.2236-0.5,0.5-0.5h4c0.2764,0,0.5,0.2236,0.5,0.5S14.2764,9.0195,14,9.0195z"
		/>
	<path d="M12,23.873c-1.0566,0-1.9165-0.8604-1.9165-1.917v-6.418c0-0.2764,0.2236-0.5,0.5-0.5h2.8325c0.2764,0,0.5,0.2236,0.5,0.5
		v6.418C13.916,23.0127,13.0566,23.873,12,23.873z M11.0835,16.0381v5.918c0,0.5059,0.4111,0.917,0.9165,0.917
		c0.5049,0,0.916-0.4111,0.916-0.917v-5.918H11.0835z"/>
	<path d="M12,22.0303c-0.1304,0-0.2603-0.0508-0.3501-0.1406C11.5498,21.79,11.5,21.6602,11.5,21.5303
		c0-0.1309,0.0498-0.25,0.1396-0.3506c0.1899-0.1895,0.5303-0.1895,0.71,0c0.1006,0.1006,0.1504,0.2197,0.1504,0.3506
		c0,0.1299-0.0498,0.2598-0.1504,0.3594C12.2598,21.9795,12.1299,22.0303,12,22.0303z"/>
	<path d="M12,13.9678c-0.2764,0-0.5-0.2236-0.5-0.5v-1.9922c0-0.2764,0.2236-0.5,0.5-0.5s0.5,0.2236,0.5,0.5v1.9922
		C12.5,13.7441,12.2764,13.9678,12,13.9678z"/>
</g>
<rect y="0.0197" fill="none" width="24" height="24"/>
</svg>
