<?xml version="1.0" encoding="utf-8"?>
<!-- Generator: Adobe Illustrator 18.1.0, SVG Export Plug-In . SVG Version: 6.00 Build 0)  -->
<svg version="1.1" id="Layer_1" xmlns="http://www.w3.org/2000/svg" xmlns:xlink="http://www.w3.org/1999/xlink" x="0px" y="0px"
	 width="24px" height="24px" viewBox="0 0 24 24" enable-background="new 0 0 24 24" xml:space="preserve">
<g>
	<path d="M23.4863,24h-2c-0.2764,0-0.5-0.2236-0.5-0.5V9h-18v14.5c0,0.2764-0.2236,0.5-0.5,0.5h-2c-0.2764,0-0.5-0.2236-0.5-0.5
		V4.9067c0-0.2236,0.1484-0.4199,0.3633-0.481l11.5-3.2725c0.0889-0.0254,0.1836-0.0254,0.2734,0l11.5,3.2725
		c0.2148,0.061,0.3633,0.2573,0.3633,0.481V23.5C23.9863,23.7764,23.7627,24,23.4863,24z M21.9863,23h1V5.2842l-11-3.1299
		l-11,3.1299V23h1V8.5c0-0.2764,0.2236-0.5,0.5-0.5h19c0.2764,0,0.5,0.2236,0.5,0.5V23z"/>
	<path d="M10.4863,24h-4c-0.2764,0-0.5-0.2236-0.5-0.5v-4c0-0.2764,0.2236-0.5,0.5-0.5h4c0.2764,0,0.5,0.2236,0.5,0.5v4
		C10.9863,23.7764,10.7627,24,10.4863,24z M6.9863,23h3v-3h-3V23z"/>
	<path d="M14.4863,24h-4c-0.2764,0-0.5-0.2236-0.5-0.5v-4c0-0.2764,0.2236-0.5,0.5-0.5h4c0.2764,0,0.5,0.2236,0.5,0.5v4
		C14.9863,23.7764,14.7627,24,14.4863,24z M10.9863,23h3v-3h-3V23z"/>
	<path d="M14.4863,20h-4c-0.2764,0-0.5-0.2236-0.5-0.5v-4c0-0.2764,0.2236-0.5,0.5-0.5h4c0.2764,0,0.5,0.2236,0.5,0.5v4
		C14.9863,19.7764,14.7627,20,14.4863,20z M10.9863,19h3v-3h-3V19z"/>
	<path d="M14.4863,16h-4c-0.2764,0-0.5-0.2236-0.5-0.5v-4.0005c0-0.2764,0.2236-0.5,0.5-0.5h4c0.2764,0,0.5,0.2236,0.5,0.5V15.5
		C14.9863,15.7764,14.7627,16,14.4863,16z M10.9863,15h3v-3.0005h-3V15z"/>
	<path d="M18.4795,24h-4c-0.2764,0-0.5-0.2236-0.5-0.5v-4c0-0.2764,0.2236-0.5,0.5-0.5h4c0.2764,0,0.5,0.2236,0.5,0.5v4
		C18.9795,23.7764,18.7559,24,18.4795,24z M14.9795,23h3v-3h-3V23z"/>
	<path d="M18.4795,20h-4c-0.2764,0-0.5-0.2236-0.5-0.5v-4c0-0.2764,0.2236-0.5,0.5-0.5h4c0.2764,0,0.5,0.2236,0.5,0.5v4
		C18.9795,19.7764,18.7559,20,18.4795,20z M14.9795,19h3v-3h-3V19z"/>
	<path d="M13.4795,7h-3.0049c-0.2764,0-0.5-0.2236-0.5-0.5s0.2236-0.5,0.5-0.5h3.0049c0.2764,0,0.5,0.2236,0.5,0.5
		S13.7559,7,13.4795,7z"/>
	<path d="M8.5684,7H5.5635c-0.2764,0-0.5-0.2236-0.5-0.5S5.2871,6,5.5635,6h3.0049c0.2764,0,0.5,0.2236,0.5,0.5S8.8447,7,8.5684,7z"
		/>
	<path d="M18.3906,7h-3.0049c-0.2764,0-0.5-0.2236-0.5-0.5s0.2236-0.5,0.5-0.5h3.0049c0.2764,0,0.5,0.2236,0.5,0.5
		S18.667,7,18.3906,7z"/>
</g>
<rect x="-0.0137" y="0.0002" fill="none" width="24" height="24"/>
</svg>
