<?xml version="1.0" encoding="utf-8"?>
<!-- Generator: Adobe Illustrator 18.1.0, SVG Export Plug-In . SVG Version: 6.00 Build 0)  -->
<svg version="1.1" id="Layer_1" xmlns="http://www.w3.org/2000/svg" xmlns:xlink="http://www.w3.org/1999/xlink" x="0px" y="0px"
	 width="24px" height="24px" viewBox="0 0 24 24" enable-background="new 0 0 24 24" xml:space="preserve">
<g>
	<path d="M6.9873,6.0796c-0.1338,0-0.2671-0.0532-0.3657-0.1587L4.5029,3.6504L2.3838,5.9209
		c-0.1895,0.2026-0.5049,0.2129-0.707,0.0244c-0.2017-0.1885-0.2124-0.5049-0.0244-0.707l2.4849-2.6621
		c0.0947-0.1011,0.2271-0.1587,0.3657-0.1587l0,0c0.1387,0,0.271,0.0576,0.3657,0.1587L7.353,5.2383
		c0.188,0.2021,0.1772,0.5186-0.0244,0.707C7.2319,6.0352,7.1094,6.0796,6.9873,6.0796z"/>
	<path d="M18.4834,21.6318c-0.1387,0-0.2705-0.0576-0.3652-0.1592l-2.4844-2.6621c-0.1885-0.2012-0.1777-0.5176,0.0244-0.7061
		c0.2002-0.1885,0.5166-0.1777,0.7061,0.0244l2.1191,2.2705l2.1191-2.2705c0.1895-0.2012,0.5059-0.2119,0.7061-0.0244
		c0.2021,0.1885,0.2129,0.5049,0.0244,0.7061l-2.4844,2.6621C18.7539,21.5742,18.6221,21.6318,18.4834,21.6318z"/>
	<path d="M7.998,20.6865c-2.2031,0-3.9951-1.9043-3.9951-4.2451V2.9175c0-0.2764,0.2236-0.5,0.5-0.5s0.5,0.2236,0.5,0.5v13.5239
		c0,1.7891,1.3438,3.2451,2.9951,3.2451s2.9951-1.4561,2.9951-3.2451v-8.834c0-0.2764,0.2236-0.5,0.5-0.5s0.5,0.2236,0.5,0.5v8.834
		C11.9932,18.7822,10.2012,20.6865,7.998,20.6865z"/>
	<path d="M18.4834,21.6318c-0.2764,0-0.5-0.2236-0.5-0.5V7.6074c0-1.7896-1.3438-3.2451-2.9951-3.2451s-2.9951,1.4556-2.9951,3.2451
		v8.834c0,0.2764-0.2236,0.5-0.5,0.5s-0.5-0.2236-0.5-0.5v-8.834c0-2.3408,1.792-4.2451,3.9951-4.2451s3.9951,1.9043,3.9951,4.2451
		v13.5244C18.9834,21.4082,18.7598,21.6318,18.4834,21.6318z"/>
</g>
<rect y="0.001" fill="none" width="24" height="24"/>
</svg>
