<?xml version="1.0" encoding="utf-8"?>
<!-- Generator: Adobe Illustrator 18.1.0, SVG Export Plug-In . SVG Version: 6.00 Build 0)  -->
<svg version="1.1" id="Layer_1" xmlns="http://www.w3.org/2000/svg" xmlns:xlink="http://www.w3.org/1999/xlink" x="0px" y="0px"
	 width="24px" height="24px" viewBox="0 0 24 24" enable-background="new 0 0 24 24" xml:space="preserve">
<g>
	<path d="M10.8076,23.7617c-0.0005,0-0.0005,0-0.001,0c-0.8564,0-1.7163-0.1055-2.5552-0.3125
		c-5.6929-1.4043-9.1816-7.1787-7.7769-12.8711C1.6499,5.8154,5.8921,2.4893,10.791,2.4893c0.8564,0,1.7158,0.105,2.5557,0.312
		c0.1279,0.0317,0.2393,0.1133,0.3076,0.2266c0.0684,0.1138,0.0898,0.25,0.0576,0.3784l-2.2964,9.3076
		c8.8657-2.6919,9.0786-2.6919,9.1714-2.6919c0.2227,0,0.4238,0.1489,0.4854,0.3633c0.4609,1.729,0.4775,3.5542,0.0498,5.2876
		C19.9473,20.4355,15.7051,23.7617,10.8076,23.7617z M10.791,3.4893c-4.4375,0-8.2808,3.0137-9.3457,7.3281
		c-1.2725,5.1572,1.8882,10.3887,7.0454,11.6611c0.7607,0.1875,1.54,0.2832,2.3164,0.2832c4.437,0,8.2798-3.0137,9.3442-7.3291
		c0.3486-1.4131,0.3711-2.8936,0.0693-4.311c-1.3691,0.3896-6.1123,1.8188-9.356,2.8052c-0.1704,0.0518-0.3589,0.0078-0.4897-0.1152
		c-0.1304-0.124-0.1841-0.3086-0.1411-0.4834l2.3843-9.6636C12.0137,3.5479,11.4014,3.4893,10.791,3.4893z"/>
	<path d="M14.8438,9.5591c-0.1279,0-0.2529-0.0488-0.3477-0.1401c-0.1279-0.124-0.1807-0.3071-0.1377-0.4805l2.0996-8.4312
		c0.0664-0.2681,0.334-0.4302,0.6064-0.3647c3.1699,0.7891,5.7021,3.2334,6.6094,6.3799c0.0654,0.1333,0.0537,0.2476-0.0068,0.3833
		c-0.0596,0.1357-0.1924,0.1973-0.335,0.2378l-8.3506,2.396C14.9365,9.5527,14.8896,9.5591,14.8438,9.5591z M17.3037,1.249
		l-1.7656,7.0908l7.0244-2.0156C21.6641,3.8755,19.7207,2.0117,17.3037,1.249z"/>
</g>
<rect fill="none" width="24" height="24"/>
</svg>
