<?xml version="1.0" encoding="utf-8"?>
<!-- Generator: Adobe Illustrator 18.1.0, SVG Export Plug-In . SVG Version: 6.00 Build 0)  -->
<svg version="1.1" id="Layer_1" xmlns="http://www.w3.org/2000/svg" xmlns:xlink="http://www.w3.org/1999/xlink" x="0px" y="0px"
	 width="24px" height="24px" viewBox="0 0 24 24" enable-background="new 0 0 24 24" xml:space="preserve">
<g>
	<path d="M12.0244,15.8457c-2.127,0-3.8569-1.7305-3.8569-3.8569s1.73-3.8564,3.8569-3.8564c2.126,0,3.8564,1.73,3.8564,3.8564
		S14.1504,15.8457,12.0244,15.8457z M12.0244,9.1323c-1.5752,0-2.8569,1.2812-2.8569,2.8564c0,1.5757,1.2817,2.8569,2.8569,2.8569
		s2.8564-1.2812,2.8564-2.8569C14.8809,10.4136,13.5996,9.1323,12.0244,9.1323z"/>
	<path d="M12.0244,19.8896c-4.3569,0-7.9014-3.5439-7.9014-7.9009c0-4.3564,3.5444-7.9009,7.9014-7.9009
		c4.3564,0,7.9014,3.5444,7.9014,7.9009C19.9258,16.3457,16.3809,19.8896,12.0244,19.8896z M12.0244,5.0879
		c-3.8057,0-6.9014,3.0957-6.9014,6.9009s3.0957,6.9009,6.9014,6.9009s6.9014-3.0957,6.9014-6.9009S15.8301,5.0879,12.0244,5.0879z"
		/>
	<path d="M12.0244,23.8174c-6.5225,0-11.8286-5.3066-11.8286-11.8286S5.502,0.1606,12.0244,0.1606s11.8281,5.3062,11.8281,11.8281
		S18.5469,23.8174,12.0244,23.8174z M12.0244,1.1606c-5.9707,0-10.8286,4.8574-10.8286,10.8281
		c0,5.9712,4.8579,10.8286,10.8286,10.8286S22.8525,17.96,22.8525,11.9888C22.8525,6.0181,17.9951,1.1606,12.0244,1.1606z"/>
	<path d="M12.0195,12.4902c-0.1299,0-0.2495-0.0508-0.3496-0.1504C11.5796,12.25,11.52,12.1201,11.52,11.9897
		c0-0.1299,0.0596-0.2598,0.1499-0.3501c0.1997-0.1997,0.5195-0.1899,0.7002-0.0098c0.0996,0.1001,0.1494,0.23,0.1494,0.3599
		c0,0.1304-0.0498,0.2603-0.1494,0.3501C12.2803,12.4395,12.1602,12.4902,12.0195,12.4902z"/>
</g>
<rect x="0.0242" y="-0.0111" fill="none" width="24" height="24"/>
</svg>
