<?xml version="1.0" encoding="utf-8"?>
<!-- Generator: Adobe Illustrator 18.1.0, SVG Export Plug-In . SVG Version: 6.00 Build 0)  -->
<svg version="1.1" id="Layer_1" xmlns="http://www.w3.org/2000/svg" xmlns:xlink="http://www.w3.org/1999/xlink" x="0px" y="0px"
	 width="24px" height="24px" viewBox="0 0 24 24" enable-background="new 0 0 24 24" xml:space="preserve">
<g>
	<path d="M15.6094,13.0928h-0.0488c-0.9912,0-1.5996-0.6611-1.5996-1.6841V5.8882c0-0.6587,0-2.0288,1.1543-2.0288
		c0.8594,0,1.3379,0.603,1.4219,1.792l0.5234,6.0781c0.002,0.2456,0.002,0.8623-0.5127,1.1787
		C16.2471,13.0928,15.8936,13.0928,15.6094,13.0928z M15.1152,4.8594c-0.0586,0.0347-0.1543,0.2119-0.1543,1.0288v5.5205
		c0,0.603,0.2783,0.6841,0.5508,0.6841h0.0977c0.1064,0,0.3564,0,0.415-0.0371c-0.002,0,0.0381-0.0664,0.0381-0.2832L15.54,5.7295
		C15.4785,4.8594,15.251,4.8594,15.1152,4.8594z"/>
	<path d="M14.4609,20.5176c-0.2764,0-0.5-0.2236-0.5-0.5V5.5845c0-0.2764,0.2236-0.5,0.5-0.5s0.5,0.2236,0.5,0.5v14.4331
		C14.9609,20.2939,14.7373,20.5176,14.4609,20.5176z"/>
	<path d="M9.4907,20.4678c-0.2764,0-0.5-0.2236-0.5-0.5V9.8882c0-0.2764,0.2236-0.5,0.5-0.5s0.5,0.2236,0.5,0.5v10.0796
		C9.9907,20.2441,9.7671,20.4678,9.4907,20.4678z"/>
	<path d="M9.4907,7.9463c-0.2764,0-0.5-0.2236-0.5-0.5V4.3594c0-0.2764,0.2236-0.5,0.5-0.5s0.5,0.2236,0.5,0.5v3.0869
		C9.9907,7.7227,9.7671,7.9463,9.4907,7.9463z"/>
	<path d="M11.0571,7.9976c-0.2764,0-0.5-0.2236-0.5-0.5V4.3594c0-0.2764,0.2236-0.5,0.5-0.5s0.5,0.2236,0.5,0.5v3.1382
		C11.5571,7.7739,11.3335,7.9976,11.0571,7.9976z"/>
	<path d="M7.9243,7.9976c-0.2764,0-0.5-0.2236-0.5-0.5V4.3594c0-0.2764,0.2236-0.5,0.5-0.5s0.5,0.2236,0.5,0.5v3.1382
		C8.4243,7.7739,8.2007,7.9976,7.9243,7.9976z"/>
	<path d="M9.521,10.3882H9.46c-1.1226,0-2.0356-0.9131-2.0356-2.0356V7.4463c0-0.2764,0.2236-0.5,0.5-0.5h3.1328
		c0.2764,0,0.5,0.2236,0.5,0.5v0.9062C11.5571,9.4751,10.6436,10.3882,9.521,10.3882z M8.4243,7.9463v0.4062
		c0,0.5713,0.4644,1.0356,1.0356,1.0356h0.061c0.5713,0,1.0361-0.4644,1.0361-1.0356V7.9463H8.4243z"/>
	<path d="M11.9858,23.7842c-6.4868,0-11.7642-5.2773-11.7642-11.7646c0-6.4868,5.2773-11.7646,11.7642-11.7646
		S23.75,5.5327,23.75,12.0195C23.75,18.5068,18.4727,23.7842,11.9858,23.7842z M11.9858,1.2549
		c-5.9355,0-10.7642,4.8291-10.7642,10.7646s4.8286,10.7646,10.7642,10.7646c5.9351,0,10.7642-4.8291,10.7642-10.7646
		S17.9209,1.2549,11.9858,1.2549z"/>
	<path d="M4.0205,20.4844c-0.1279,0-0.2559-0.0488-0.3535-0.1465c-0.1953-0.1953-0.1953-0.5117,0-0.707L19.5967,3.7007
		c0.1953-0.1953,0.5117-0.1953,0.707,0s0.1953,0.5117,0,0.707L4.374,20.3379C4.2764,20.4355,4.1484,20.4844,4.0205,20.4844z"/>
</g>
<rect x="-0.0142" y="0.0197" fill="none" width="24" height="24"/>
</svg>
