<?xml version="1.0" encoding="utf-8"?>
<!-- Generator: Adobe Illustrator 18.1.0, SVG Export Plug-In . SVG Version: 6.00 Build 0)  -->
<svg version="1.1" id="Layer_1" xmlns="http://www.w3.org/2000/svg" xmlns:xlink="http://www.w3.org/1999/xlink" x="0px" y="0px"
	 width="24px" height="24px" viewBox="0 0 24 24" enable-background="new 0 0 24 24" xml:space="preserve">
<g>
	<path d="M12.2891,22.9658c-4.1304,0-7.9785-1.6436-10.8364-4.6289c-0.1909-0.1992-0.1841-0.5156,0.0156-0.707
		c0.1992-0.1904,0.5151-0.1846,0.707,0.0156c2.667,2.7861,6.2588,4.3203,10.1138,4.3203c3.8545,0,7.4463-1.5342,10.1133-4.3203
		c0.1924-0.1982,0.5088-0.2061,0.707-0.0156c0.1992,0.1914,0.2061,0.5078,0.0156,0.707
		C20.2666,21.3223,16.4189,22.9658,12.2891,22.9658z"/>
	<path d="M5.0791,18.6143c-0.271,0-0.4932-0.2158-0.5-0.4883L4.2974,6.4243L2.6494,7.8818
		c-0.1929,0.228-0.5923,0.3149-0.9229,0.1626L0.8828,7.6587C0.5103,7.4893,0.3159,7.064,0.4326,6.6699l1.5059-5.0601
		c0.186-0.6284,0.8203-1.0278,1.4673-0.9292c1.6641,0.2549,5.5903,1.2788,6.895,5.2983h6.7539c1.6338,0,2.9629,1.3296,2.9629,2.9634
		v9.1602c0,0.2764-0.2236,0.5-0.5,0.5s-0.5-0.2236-0.5-0.5V8.9424c0-1.0825-0.8809-1.9634-1.9629-1.9634H9.9282
		c-0.2256,0-0.4233-0.1509-0.4824-0.3687C8.4224,2.8501,4.7749,1.9019,3.2544,1.6689C3.0967,1.6431,2.9419,1.7412,2.897,1.8945
		L1.4341,6.811l0.6084,0.2783l1.8394-1.6265C4.062,5.2505,4.4175,5.1597,4.7407,5.2744c0.3237,0.1167,0.5386,0.4141,0.5479,0.7578
		l0.2905,12.0703c0.0063,0.2754-0.2119,0.5049-0.4878,0.5117C5.0869,18.6143,5.083,18.6143,5.0791,18.6143z"/>
	<path d="M6.7285,19.4248c-0.022,0-0.0444-0.001-0.0674-0.0049c-0.2734-0.0361-0.4653-0.2881-0.4287-0.5615l0.5342-3.958
		c0.0469-1.5586,1.3477-2.8184,2.958-2.8184h5.1826c1.6104,0,2.9111,1.2598,2.9619,2.8691l0.5273,3.8857
		c0.0371,0.2744-0.1543,0.5264-0.4277,0.5625c-0.2842,0.042-0.5264-0.1543-0.5625-0.4277l-0.5322-3.9375
		c-0.0381-1.1172-0.9004-1.9521-1.9668-1.9521H9.7246c-1.0669,0-1.9292,0.835-1.9629,1.9004l-0.5381,4.0088
		C7.1895,19.2422,6.9751,19.4248,6.7285,19.4248z"/>
	<path d="M12.9131,9.7529c-1.8276,0-3.0146-0.9399-3.0879-1C9.6108,8.5791,9.5786,8.2642,9.7529,8.0498
		c0.1733-0.2129,0.4873-0.2466,0.7017-0.0737c0.0933,0.0742,2.2241,1.7212,5.1509-0.0391c0.2383-0.1411,0.5449-0.0664,0.6865,0.1704
		c0.1416,0.2363,0.0654,0.5435-0.1709,0.686C14.9287,9.5117,13.8389,9.7529,12.9131,9.7529z"/>
	<path d="M21.5811,12.8877c-0.002,0-0.0029,0-0.0049,0c-0.2764-0.0029-0.498-0.2295-0.4951-0.5049
		c0.0117-1.1987-0.2354-3.0488-0.8223-3.4082c-0.0527-0.0327-0.1924-0.1211-0.5352,0.0586
		c-0.2451,0.1274-0.5459,0.0337-0.6748-0.2119c-0.1279-0.2446-0.0332-0.5469,0.2119-0.6748
		c0.6973-0.3628,1.2119-0.2134,1.5215-0.0244c1.2715,0.7803,1.3047,3.6948,1.2988,4.2705
		C22.0781,12.667,21.8545,12.8877,21.5811,12.8877z"/>
	<path d="M23.0518,13.373c-0.0059,0-0.0117,0-0.0176,0c-0.2754-0.0098-0.4922-0.2412-0.4824-0.5176
		c0.0947-2.7002-0.4004-4.4971-1.4326-5.1963c-0.9912-0.6719-2.2461-0.1348-2.2588-0.1304c-0.25,0.1143-0.5469-0.002-0.6592-0.2534
		c-0.1113-0.252,0-0.5459,0.251-0.6592c0.0713-0.0312,1.7578-0.7725,3.2178,0.2085c1.3574,0.9116,1.9902,2.9521,1.8818,6.0659
		C23.542,13.1602,23.3203,13.373,23.0518,13.373z"/>
	<path d="M3.8296,3.98c-0.1396,0-0.2695-0.0503-0.3599-0.1504C3.3799,3.7397,3.3296,3.6099,3.3296,3.48
		c0-0.1304,0.0503-0.2603,0.1401-0.3501c0.1802-0.1899,0.52-0.1899,0.71,0C4.2798,3.23,4.3296,3.3496,4.3296,3.48
		c0,0.1299-0.0498,0.2598-0.1499,0.3496C4.0898,3.9297,3.96,3.98,3.8296,3.98z"/>
</g>
<rect x="0.0142" y="0.0344" fill="none" width="24" height="24"/>
</svg>
