<?xml version="1.0" encoding="utf-8"?>
<!-- Generator: Adobe Illustrator 18.1.0, SVG Export Plug-In . SVG Version: 6.00 Build 0)  -->
<svg version="1.1" id="Layer_1" xmlns="http://www.w3.org/2000/svg" xmlns:xlink="http://www.w3.org/1999/xlink" x="0px" y="0px"
	 width="24px" height="24px" viewBox="0 0 24 24" enable-background="new 0 0 24 24" xml:space="preserve">
<g>
	<path d="M19.7207,21.0049H5.8511c-0.7017,0-1.2725-0.5713-1.2725-1.2725v-0.585c0-0.2764,0.2236-0.5,0.5-0.5s0.5,0.2236,0.5,0.5
		v0.585c0,0.1504,0.1221,0.2725,0.2725,0.2725h13.8696c0.1504,0,0.2725-0.1221,0.2725-0.2725v-1.6553
		c0-0.2422,0.1729-0.4492,0.4111-0.4922c1.6309-0.2949,2.0557-1.6543,2.1621-2.2246c0.2451-1.3145-0.2666-2.7305-1.1904-3.2949
		c-0.2354-0.1436-0.3096-0.4512-0.166-0.687c0.1455-0.2354,0.4541-0.3096,0.6875-0.166c1.2793,0.7817,1.9746,2.603,1.6514,4.3315
		c-0.2734,1.4668-1.2158,2.5352-2.5557,2.9287v1.2598C20.9932,20.4336,20.4219,21.0049,19.7207,21.0049z"/>
	<path d="M5.1763,17.7236c-0.0005,0-0.0005,0-0.0005,0c-0.5693,0-1.0664-0.3857-1.209-0.9375l-0.2998-1.166
		c-1.9468-0.0605-3.146-1.6025-3.4751-3.1309c-0.3062-1.4229,0.0928-3.1772,1.6182-4.0854l-0.2998-1.166
		C1.4272,6.9146,1.4751,6.5781,1.645,6.2905c0.1699-0.2871,0.4414-0.4907,0.7642-0.5732l13.0156-3.3491
		c0.6621-0.1719,1.3535,0.2451,1.5215,0.8989l0.3008,1.1714c1.9268,0.0737,3.1191,1.6055,3.4512,3.124
		c0.3086,1.4155-0.082,3.1655-1.5977,4.0791l0.3027,1.1729c0.083,0.3242,0.0352,0.6602-0.1348,0.9473s-0.4414,0.4902-0.7646,0.5732
		L5.4868,17.6846C5.3848,17.7109,5.2803,17.7236,5.1763,17.7236z M4.0527,14.6113c0.2261,0,0.4268,0.1533,0.4839,0.376
		l0.3984,1.5498c0.0332,0.1289,0.1714,0.208,0.3032,0.1787l13.0166-3.3496c0.1338-0.0342,0.2139-0.1699,0.1797-0.3027
		l-0.4004-1.5542c-0.0605-0.2339,0.0557-0.478,0.2754-0.5791c1.4092-0.6465,1.6406-2.103,1.4111-3.1543
		c-0.2656-1.2183-1.2578-2.4414-2.8232-2.3325c-0.2412,0.0239-0.46-0.1406-0.5205-0.374l-0.3994-1.5537
		c-0.0283-0.1104-0.127-0.187-0.2402-0.187L2.6577,6.686C2.5708,6.708,2.5254,6.7666,2.5059,6.7998
		c-0.02,0.0332-0.0493,0.1016-0.0269,0.189l0.3984,1.5503C2.938,8.7744,2.8203,9.0195,2.5986,9.1191
		c-1.4189,0.6401-1.6562,2.1025-1.4287,3.1602c0.2632,1.2256,1.2627,2.459,2.8423,2.334
		C4.0259,14.6123,4.0391,14.6113,4.0527,14.6113z"/>
	<path d="M13.7197,12.8125c-0.833,0-1.5762-0.6484-1.8057-1.5771c-0.125-0.5039-0.0786-1.0225,0.1309-1.4604
		c0.2217-0.4639,0.6143-0.7954,1.0781-0.9102c0.9277-0.229,1.9111,0.4644,2.1758,1.5327c0.2656,1.0757-0.2764,2.1387-1.209,2.3701
		C13.9688,12.7979,13.8447,12.8125,13.7197,12.8125z M13.4932,9.8198c-0.0439,0-0.0879,0.0054-0.1299,0.0156
		c-0.2363,0.0586-0.3623,0.2573-0.416,0.3711c-0.1084,0.2256-0.1309,0.5127-0.0625,0.7881
		c0.1289,0.5234,0.5781,0.8965,0.9648,0.8022c0.3906-0.0967,0.6104-0.6279,0.4785-1.1592
		C14.2129,10.1714,13.8535,9.8198,13.4932,9.8198z"/>
	<path d="M9.2778,10.4678c-0.8335,0-1.5762-0.6484-1.8062-1.5776C7.2056,7.814,7.748,6.7505,8.6812,6.5195
		c0.9268-0.231,1.9106,0.4644,2.1758,1.5327c0.2661,1.0762-0.2764,2.1396-1.2095,2.3706
		C9.5269,10.4526,9.4023,10.4678,9.2778,10.4678z M9.0508,7.4746c-0.0435,0-0.0869,0.0054-0.1294,0.0156
		C8.5303,7.5869,8.311,8.1182,8.4424,8.6499c0.1294,0.522,0.5679,0.8965,0.9648,0.8022c0.3911-0.0967,0.6104-0.6279,0.479-1.1597
		C9.7705,7.8262,9.4116,7.4746,9.0508,7.4746z"/>
	<path d="M9.9028,13.6982c-0.0625,0-0.126-0.0117-0.1875-0.0361c-0.2559-0.1035-0.3794-0.3955-0.2759-0.6514l2.8584-7.0742
		c0.1045-0.2563,0.3955-0.3804,0.6514-0.2759c0.2559,0.103,0.3799,0.3945,0.2764,0.6509l-2.8594,7.0742
		C10.2876,13.5801,10.1006,13.6982,9.9028,13.6982z"/>
	<path d="M4.8872,11.9185c-0.2246,0-0.4287-0.1523-0.4849-0.3799c-0.0664-0.2681,0.0972-0.5391,0.3652-0.6055l1.978-0.4897
		c0.2666-0.0649,0.5391,0.0972,0.6055,0.3652s-0.0972,0.5391-0.3652,0.6055l-1.978,0.4897
		C4.9673,11.9136,4.9272,11.9185,4.8872,11.9185z"/>
</g>
<rect x="-0.0136" y="0.0001" fill="none" width="24" height="24"/>
</svg>
