<?xml version="1.0" encoding="utf-8"?>
<!-- Generator: Adobe Illustrator 18.1.0, SVG Export Plug-In . SVG Version: 6.00 Build 0)  -->
<svg version="1.1" id="Layer_1" xmlns="http://www.w3.org/2000/svg" xmlns:xlink="http://www.w3.org/1999/xlink" x="0px" y="0px"
	 width="24px" height="24px" viewBox="0 0 24 24" enable-background="new 0 0 24 24" xml:space="preserve">
<g>
	<path d="M11.9521,5.8647c-1.7734,0-3.749-1.2432-4.1646-4.0205C7.7471,1.5737,7.9321,1.3208,8.2021,1.2769
		c0.0674-0.0107,1.6772-0.2676,3.8271-0.2676c1.3828,0,2.6709,0.1069,3.8301,0.3184c0.1309,0.0234,0.2461,0.0986,0.3223,0.208
		c0.0752,0.1099,0.1035,0.2446,0.0791,0.3755C15.752,4.6426,13.7305,5.8647,11.9521,5.8647z M8.875,2.1953
		c0.4854,1.959,1.9238,2.6694,3.0771,2.6694c1.2549,0,2.6738-0.8208,3.207-2.6396c-0.9619-0.1436-2.0117-0.2158-3.1299-0.2158
		C10.6631,2.0093,9.5059,2.1196,8.875,2.1953z"/>
	<path d="M12.0059,23.0312c-0.2764,0-0.5-0.2236-0.5-0.5V5.3647c0-0.2764,0.2236-0.5,0.5-0.5s0.5,0.2236,0.5,0.5v17.1665
		C12.5059,22.8076,12.2822,23.0312,12.0059,23.0312z"/>
	<path d="M9.4492,23.3008c-2.6724,0-3.6963-0.6943-3.832-0.7969C5.4858,22.4053,5.4111,22.249,5.418,22.085l0.2554-6.375
		l-1.3398,6.916c-0.0454,0.2354-0.2515,0.4053-0.4907,0.4053H0.7871c-0.1416,0-0.2769-0.0605-0.3716-0.166
		c-0.0947-0.1045-0.1406-0.2461-0.1255-0.3867C2.2344,4.123,3.3374,3.8213,3.7002,3.7217C3.8916,3.6694,4.5024,3.2812,5.041,2.9385
		c0.9868-0.6279,2.2153-1.4097,3.1113-1.6509c0.2642-0.0728,0.5405,0.0864,0.6128,0.353c0.0718,0.2666-0.0864,0.541-0.353,0.6128
		c-0.748,0.2017-1.9048,0.9375-2.8345,1.5288c-0.728,0.4629-1.1865,0.75-1.5054,0.8687c-0.6489,0.9922-1.873,9.4399-2.729,17.3804
		h2.0869L5.9463,9.0415c0.0498-0.2563,0.2876-0.4307,0.5483-0.4014c0.2598,0.0303,0.4526,0.2554,0.4419,0.5166L6.4297,21.8145
		c0.5547,0.2471,2.2656,0.7891,5.8721,0.2559c2.9678-0.4385,4.458-0.5273,5.207-0.5107L17.1152,9.2021
		c-0.0078-0.2607,0.1855-0.4839,0.4443-0.5132c0.2646-0.0332,0.4971,0.147,0.5469,0.4019l2.5146,12.9893h2.0869
		c-0.8555-7.9404-2.0801-16.3877-2.7285-17.3799c-0.3193-0.1187-0.7773-0.4058-1.5049-0.8687
		c-0.9297-0.5918-2.0869-1.3276-2.835-1.5293c-0.2666-0.0718-0.4248-0.3462-0.3525-0.6128c0.0713-0.2661,0.3486-0.4238,0.6123-0.353
		c0.8955,0.2417,2.125,1.0229,3.1123,1.6514c0.5117,0.3257,1.1484,0.731,1.3398,0.7832c0.3623,0.0991,1.4648,0.4009,3.4102,18.7563
		c0.0146,0.1406-0.0303,0.2812-0.125,0.3867s-0.2305,0.166-0.3721,0.166H20.209c-0.2393,0-0.4453-0.1699-0.4912-0.4053l-1.4033-7.25
		l0.2119,6.6641c0.0049,0.1641-0.0703,0.3193-0.2021,0.417c-0.1328,0.0986-0.3018,0.125-0.459,0.0723l0,0
		c-0.0117,0-0.9316-0.1816-5.417,0.4814C11.2734,23.2334,10.2812,23.3008,9.4492,23.3008z"/>
</g>
<rect x="0.0142" y="0.0344" fill="none" width="24" height="24"/>
</svg>
