<?xml version="1.0" encoding="utf-8"?>
<!-- Generator: Adobe Illustrator 18.1.0, SVG Export Plug-In . SVG Version: 6.00 Build 0)  -->
<svg version="1.1" id="Layer_1" xmlns="http://www.w3.org/2000/svg" xmlns:xlink="http://www.w3.org/1999/xlink" x="0px" y="0px"
	 width="24px" height="24px" viewBox="0 0 24 24" enable-background="new 0 0 24 24" xml:space="preserve">
<g>
	<path d="M11.9658,14.8955c-0.2764,0-0.5-0.2236-0.5-0.5V0.6436c0-0.2764,0.2236-0.5,0.5-0.5s0.5,0.2236,0.5,0.5v13.752
		C12.4658,14.6719,12.2422,14.8955,11.9658,14.8955z"/>
	<path d="M8.6558,4.4536c-0.1279,0-0.2559-0.0488-0.3535-0.1465c-0.1953-0.1953-0.1953-0.5117,0-0.707L11.6123,0.29
		c0.0938-0.0938,0.2207-0.1465,0.3535-0.1465l0,0c0.1328,0,0.2598,0.0527,0.3535,0.1465l3.3096,3.3101
		c0.1953,0.1953,0.1953,0.5117,0,0.707s-0.5117,0.1953-0.707,0l-2.9561-2.9565L9.0093,4.3071
		C8.9116,4.4048,8.7837,4.4536,8.6558,4.4536z"/>
	<path d="M20.4473,23.9834H3.4834c-0.2764,0-0.5-0.2236-0.5-0.5V7.5195c0-0.2764,0.2236-0.5,0.5-0.5h5.1523
		c0.2764,0,0.5,0.2236,0.5,0.5s-0.2236,0.5-0.5,0.5H3.9834v14.9639h15.9639V8.0195h-4.6523c-0.2764,0-0.5-0.2236-0.5-0.5
		s0.2236-0.5,0.5-0.5h5.1523c0.2764,0,0.5,0.2236,0.5,0.5v15.9639C20.9473,23.7598,20.7236,23.9834,20.4473,23.9834z"/>
</g>
<rect y="0.0001" fill="none" width="24" height="24"/>
</svg>
