<?xml version="1.0" encoding="utf-8"?>
<!-- Generator: Adobe Illustrator 18.1.0, SVG Export Plug-In . SVG Version: 6.00 Build 0)  -->
<svg version="1.1" id="Layer_1" xmlns="http://www.w3.org/2000/svg" xmlns:xlink="http://www.w3.org/1999/xlink" x="0px" y="0px"
	 width="24px" height="24px" viewBox="0 0 24 24" enable-background="new 0 0 24 24" xml:space="preserve">
<g>
	<path d="M16.4023,16.9043c-2.4346,0-4.415-1.9805-4.415-4.415s1.9805-4.4155,4.415-4.4155s4.415,1.981,4.415,4.4155
		S18.8369,16.9043,16.4023,16.9043z M16.4023,9.0737c-1.8828,0-3.415,1.5322-3.415,3.4155c0,1.8828,1.5322,3.415,3.415,3.415
		s3.415-1.5322,3.415-3.415C19.8174,10.606,18.2852,9.0737,16.4023,9.0737z"/>
	<path d="M16.4023,19.8613H7.5928c-4.0537,0-7.3516-3.3018-7.3516-7.3604c0-4.0581,3.2979-7.3599,7.3516-7.3599h8.8096
		c4.0537,0,7.3516,3.3018,7.3516,7.3599C23.7539,16.5596,20.4561,19.8613,16.4023,19.8613z M7.5928,6.1411
		c-3.5024,0-6.3516,2.853-6.3516,6.3599s2.8491,6.3604,6.3516,6.3604h8.8096c3.502,0,6.3516-2.8535,6.3516-6.3604
		s-2.8496-6.3599-6.3516-6.3599H7.5928z"/>
</g>
<rect x="-0.006" y="0.001" fill="none" width="24" height="24"/>
</svg>
