<?xml version="1.0" encoding="utf-8"?>
<!-- Generator: Adobe Illustrator 18.1.0, SVG Export Plug-In . SVG Version: 6.00 Build 0)  -->
<svg version="1.1" id="Layer_1" xmlns="http://www.w3.org/2000/svg" xmlns:xlink="http://www.w3.org/1999/xlink" x="0px" y="0px"
	 width="24px" height="24px" viewBox="0 0 24 24" enable-background="new 0 0 24 24" xml:space="preserve">
<g>
	<path d="M18.9297,24.1025h-4.4453c-0.8281,0-1.5439-0.5869-1.7021-1.3965c-0.3809-1.9346-0.4766-6.0283,1.5732-9.0947
		c2.0322-3.0361,1.1367-4.7588,1.0977-4.8306c-0.1309-0.2402-0.0459-0.5439,0.1924-0.6777c0.2383-0.1353,0.54-0.0537,0.6758,0.1831
		c0.0537,0.0918,1.2695,2.2876-1.1338,5.8818c-1.8701,2.7939-1.7754,6.5605-1.4248,8.3457
		c0.0674,0.3418,0.3701,0.5889,0.7217,0.5889h4.4453c0.3066,0,0.5811-0.1846,0.6816-0.46c0.3057-0.8281,0.4199-2.4873,0.3408-4.9336
		c-0.1699-5.2559-2.5537-8.8574-2.5781-8.8936c-0.1533-0.229-0.0928-0.5396,0.1357-0.6938
		c0.2285-0.1533,0.5381-0.0947,0.6934,0.1348c0.1055,0.1553,2.5684,3.8628,2.749,9.4204c0.084,2.6113-0.0479,4.3486-0.4023,5.3115
		C20.3057,23.6543,19.6543,24.1025,18.9297,24.1025z"/>
	<path d="M17.7891,7.0503h-1.9004c-0.1855,0-0.3555-0.1025-0.4424-0.2666c-0.752-1.4233-3.1953-1.7681-3.2197-1.7715
		c-0.248-0.0337-0.4336-0.2451-0.4336-0.4956V2.5713c0-0.1328,0.0527-0.2603,0.147-0.354c0.0933-0.0933,0.2202-0.146,0.353-0.146
		h0.001l2.8467,0.0024l1.1299-0.0005c1.8291,0,3.4062,0.6675,3.6738,1.5522c0.1211,0.3999-0.0312,0.7881-0.4062,1.0381
		c-0.9404,0.627-1.2578,1.979-1.2607,1.9927C18.2275,6.8862,18.0244,7.0503,17.7891,7.0503z M16.1719,6.0503h1.2451
		c0.2012-0.6021,0.6611-1.5981,1.5332-2.1963c-0.1992-0.2471-1.1201-0.7808-2.6738-0.7808l-1.1357,0.0005l-2.3477-0.002v1.0283
		C13.6016,4.2749,15.3213,4.7827,16.1719,6.0503z"/>
	<path d="M10.7261,4.6128c-0.0273,0-0.0557-0.0024-0.0835-0.0068L9.9507,4.4893c-0.2407-0.0405-0.417-0.249-0.417-0.4932V3.0918
		c0-0.2441,0.1763-0.4526,0.417-0.4932l0.6919-0.1167c0.2681-0.0464,0.5293,0.1377,0.5762,0.4102
		c0.0459,0.272-0.1377,0.5303-0.4102,0.5762l-0.2749,0.0464v0.0586l0.2749,0.0464c0.2725,0.0459,0.4561,0.3042,0.4102,0.5762
		C11.1772,4.4399,10.9658,4.6128,10.7261,4.6128z"/>
	<path d="M13.0625,8.8735c-0.1475,0-0.2939-0.0654-0.3926-0.1909c-0.1709-0.2168-0.1338-0.5312,0.083-0.7021
		c1.251-0.9834,0.9834-2.7773,0.9814-2.7954c-0.043-0.272,0.1416-0.5283,0.4141-0.5723c0.2656-0.0435,0.5283,0.1396,0.5723,0.4116
		c0.0166,0.0967,0.3711,2.3892-1.3486,3.7422C13.2803,8.8384,13.1709,8.8735,13.0625,8.8735z"/>
	<path d="M20.2588,16.0352h-6.3486c-0.2764,0-0.5-0.2236-0.5-0.5s0.2236-0.5,0.5-0.5h6.3486c0.2764,0,0.5,0.2236,0.5,0.5
		S20.5352,16.0352,20.2588,16.0352z"/>
	<path d="M20.3574,22.0352h-7.251c-0.2764,0-0.5-0.2236-0.5-0.5s0.2236-0.5,0.5-0.5h7.251c0.2764,0,0.5,0.2236,0.5,0.5
		S20.6338,22.0352,20.3574,22.0352z"/>
	<g>
		<g>
			<path d="M7.2114,4.3032c-0.1689,0-0.334-0.0854-0.4277-0.2407C6.6401,3.8267,6.7153,3.519,6.9517,3.376l0.4272-0.2593
				c0.2373-0.1421,0.5439-0.0679,0.6865,0.168c0.1436,0.2358,0.0684,0.5435-0.168,0.6865L7.4702,4.2305
				C7.3892,4.2798,7.2998,4.3032,7.2114,4.3032z"/>
			<path d="M5.0513,5.6143c-0.1689,0-0.334-0.0854-0.4277-0.2407C4.48,5.1377,4.5552,4.8301,4.7915,4.687l0.4321-0.2622
				c0.2373-0.1426,0.5439-0.0688,0.6865,0.168c0.1436,0.2358,0.0684,0.5435-0.168,0.6865L5.3101,5.5415
				C5.229,5.5908,5.1396,5.6143,5.0513,5.6143z"/>
			<path d="M2.896,6.9229c-0.1689,0-0.334-0.0854-0.4277-0.2402c-0.1436-0.2363-0.0684-0.5439,0.1675-0.687l0.4277-0.2598
				c0.2378-0.1426,0.5444-0.0679,0.687,0.1675C3.894,6.1396,3.8188,6.4473,3.583,6.5903L3.1553,6.8501
				C3.0737,6.8994,2.9844,6.9229,2.896,6.9229z"/>
		</g>
	</g>
	<g>
		<g>
			<path d="M7.6382,4.0439h-0.5c-0.2764,0-0.5-0.2236-0.5-0.5s0.2236-0.5,0.5-0.5h0.5c0.2764,0,0.5,0.2236,0.5,0.5
				S7.9146,4.0439,7.6382,4.0439z"/>
			<path d="M3.2539,4.0439h-0.5c-0.2764,0-0.5-0.2236-0.5-0.5s0.2236-0.5,0.5-0.5h0.5c0.2764,0,0.5,0.2236,0.5,0.5
				S3.5303,4.0439,3.2539,4.0439z"/>
		</g>
	</g>
	<g>
		<g>
			<path d="M7.6377,4.0439c-0.0884,0-0.1777-0.0234-0.2588-0.0728L6.9517,3.7119c-0.2363-0.1431-0.3115-0.4507-0.168-0.6865
				c0.1426-0.2368,0.4507-0.312,0.6865-0.168l0.4272,0.2593c0.2363,0.1431,0.3115,0.4507,0.168,0.6865
				C7.9717,3.9585,7.8066,4.0439,7.6377,4.0439z"/>
			<path d="M5.4824,2.7358c-0.0884,0-0.1777-0.0234-0.2588-0.0728L4.7915,2.4009C4.5552,2.2578,4.48,1.9502,4.6235,1.7144
				c0.1431-0.2363,0.4502-0.3115,0.6865-0.168l0.4321,0.2622c0.2363,0.1431,0.3115,0.4507,0.168,0.6865
				C5.8164,2.6504,5.6514,2.7358,5.4824,2.7358z"/>
			<path d="M3.3228,1.4248c-0.0884,0-0.1777-0.0234-0.2593-0.0728L2.6357,1.0923c-0.2358-0.1431-0.311-0.4507-0.1675-0.687
				c0.1431-0.2363,0.4502-0.3105,0.687-0.1675L3.583,0.4976c0.2358,0.1431,0.311,0.4507,0.1675,0.687
				C3.6567,1.3394,3.4917,1.4248,3.3228,1.4248z"/>
		</g>
	</g>
</g>
<rect x="0.0142" y="0.0354" fill="none" width="24" height="24"/>
</svg>
