<?xml version="1.0" encoding="utf-8"?>
<!-- Generator: Adobe Illustrator 18.1.0, SVG Export Plug-In . SVG Version: 6.00 Build 0)  -->
<svg version="1.1" id="Layer_1" xmlns="http://www.w3.org/2000/svg" xmlns:xlink="http://www.w3.org/1999/xlink" x="0px" y="0px"
	 width="24px" height="24px" viewBox="0 0 24 24" enable-background="new 0 0 24 24" xml:space="preserve">
<g>
	<path d="M12,23.873c-1.0566,0-1.9165-0.8604-1.9165-1.917v-5.1123c0-1.0566,0.8599-1.916,1.9165-1.916s1.917,0.8594,1.917,1.916
		v5.1123C13.917,23.0127,13.0566,23.873,12,23.873z M12,15.9277c-0.5054,0-0.9165,0.4111-0.9165,0.916v5.1123
		c0,0.5059,0.4111,0.917,0.9165,0.917c0.5059,0,0.917-0.4111,0.917-0.917v-5.1123C12.917,16.3389,12.5059,15.9277,12,15.9277z"/>
	<path d="M12,12.2178c-0.1807,0.001-0.2612-0.0537-0.355-0.1484c-0.46-0.4634-4.4956-4.604-4.4956-7.2363
		c0-2.1865,1.9922-4.6226,4.8506-4.6226s4.8506,2.436,4.8506,4.6226c0,2.7241-4.3145,7.0552-4.498,7.2383
		C12.2588,12.165,12.1318,12.2178,12,12.2178z M12,1.2104c-2.269,0-3.8506,1.9092-3.8506,3.6226
		c0,1.7144,2.5195,4.748,3.8525,6.1655c1.332-1.4053,3.8486-4.4189,3.8486-6.1655C15.8506,3.1196,14.2695,1.2104,12,1.2104z"/>
	<path d="M12,12.2178c-0.1646,0-0.3228-0.082-0.417-0.2246C8.7393,7.6909,8.9478,3.8867,10.0903,1.7612
		C10.6128,0.79,11.3267,0.2104,12,0.2104c0.2764,0,0.5,0.2236,0.5,0.5v11.0068c0,0.2207-0.1445,0.4155-0.3564,0.479
		C12.0967,12.21,12.0479,12.2178,12,12.2178z M11.5,1.5015c-0.1665,0.1631-0.3501,0.4014-0.5288,0.7334
		C10.1025,3.8506,9.873,6.606,11.5,9.8608V1.5015z"/>
	<path d="M12,12.2178c-0.0479,0-0.0962-0.0078-0.144-0.0215c-0.2114-0.0635-0.356-0.2583-0.356-0.479V0.7104
		c0-0.2764,0.2236-0.5,0.5-0.5c0.6182,0,1.2969,0.5752,1.8154,1.5386c1.165,2.1675,1.4092,5.9966-1.3984,10.2441
		C12.3232,12.1357,12.165,12.2178,12,12.2178z M12.5,1.5815v8.2676c1.5801-3.2129,1.3193-5.98,0.4346-7.6265
		C12.7842,1.9443,12.6348,1.7354,12.5,1.5815z"/>
	<path d="M12,22.0303c-0.1304,0-0.2603-0.0508-0.3501-0.1406C11.5498,21.79,11.5,21.6602,11.5,21.5303
		c0-0.1309,0.0498-0.25,0.1396-0.3506c0.1899-0.1895,0.5303-0.1895,0.71,0c0.1006,0.1006,0.1504,0.2197,0.1504,0.3506
		c0,0.1299-0.0498,0.2598-0.1504,0.3594C12.2598,21.9795,12.1299,22.0303,12,22.0303z"/>
	<path d="M12,13.9678c-0.2764,0-0.5-0.2236-0.5-0.5v-1.7505c0-0.2764,0.2236-0.5,0.5-0.5s0.5,0.2236,0.5,0.5v1.7505
		C12.5,13.7441,12.2764,13.9678,12,13.9678z"/>
</g>
<rect y="0.0197" fill="none" width="24" height="24"/>
</svg>
