<?xml version="1.0" encoding="utf-8"?>
<!-- Generator: Adobe Illustrator 18.1.0, SVG Export Plug-In . SVG Version: 6.00 Build 0)  -->
<svg version="1.1" id="Layer_1" xmlns="http://www.w3.org/2000/svg" xmlns:xlink="http://www.w3.org/1999/xlink" x="0px" y="0px"
	 width="24px" height="24px" viewBox="0 0 24 24" enable-background="new 0 0 24 24" xml:space="preserve">
<g>
	<path d="M15.0928,19.5557c-0.1602,0-0.3184-0.0771-0.4141-0.2207c-0.1553-0.2285-0.0947-0.5391,0.1348-0.6934
		c0.6943-0.4688,1.3711-1.373,1.8594-2.4834c0.0039-0.0146,0.0098-0.0283,0.0156-0.043l0.7578-1.7471l-4.3955-1.9072l-0.7598,1.751
		c-0.4272,0.9863-0.6104,2.1191-0.4897,3.0293c0.0361,0.2734-0.1562,0.5244-0.4297,0.5615
		c-0.2744,0.0381-0.5254-0.1562-0.5615-0.4307c-0.146-1.0977,0.0596-2.3945,0.5635-3.5586l0.9585-2.2095
		c0.0527-0.1216,0.1523-0.2173,0.2754-0.2656c0.1221-0.0488,0.2607-0.0469,0.3828,0.0063l5.3125,2.3047
		c0.2529,0.1104,0.3691,0.4043,0.2598,0.6582l-0.9375,2.1631c-0.0049,0.0146-0.0107,0.0293-0.0166,0.0439
		c-0.5723,1.3193-1.3662,2.3682-2.2363,2.9551C15.2871,19.5283,15.1895,19.5557,15.0928,19.5557z"/>
	<path d="M14.2871,16.1338c-0.0664,0-0.1338-0.0127-0.1992-0.041c-0.2529-0.1104-0.3691-0.4043-0.2598-0.6582l6.2373-14.376
		c0.1104-0.2534,0.4004-0.3706,0.6582-0.2593c0.2529,0.1099,0.3691,0.4043,0.2598,0.6577l-6.2373,14.376
		C14.6641,16.0215,14.4805,16.1338,14.2871,16.1338z"/>
	<path d="M21.6162,2.1987c-0.0664,0-0.1338-0.0132-0.1992-0.0415l-2.1602-0.937c-0.2529-0.1099-0.3691-0.4043-0.2598-0.6572
		c0.1094-0.2539,0.4014-0.3716,0.6582-0.2598l2.1602,0.937c0.2529,0.1099,0.3691,0.4043,0.2598,0.6572
		C21.9932,2.0864,21.8096,2.1987,21.6162,2.1987z"/>
	<path d="M0.9087,23.709c-0.019,0-0.0381-0.001-0.0576-0.0029c-0.2744-0.0322-0.4712-0.2803-0.4395-0.5537
		c0.1743-1.5156,3.7832-7.6533,5.8604-8.5488c1.3311-0.5752,1.7271,0.2168,1.9907,0.7393c0.2822,0.5576,0.5742,1.1357,1.8916,1.2979
		c2.7666,0.3398,4.6816,0.8965,5.6777,2.6143c0.1973,0.3398,0.665,0.1855,1.8799-0.416c0.8555-0.4248,1.8125-0.8945,2.7588-0.8691
		c2.2324,0.0879,3.0342,4.6406,3.1182,5.1592c0.0449,0.2725-0.1406,0.5293-0.4131,0.5732
		c-0.2676,0.0479-0.5283-0.1406-0.5732-0.4131c-0.2266-1.3906-1.0547-4.2754-2.1709-4.3193
		c-0.6836-0.0264-1.5273,0.3936-2.2754,0.7646c-1.1074,0.5488-2.4854,1.2314-3.1895,0.0225
		c-0.6992-1.2061-1.9902-1.7617-4.9346-2.124c-1.8472-0.2275-2.3574-1.2363-2.6616-1.8389
		c-0.2388-0.4727-0.2397-0.4736-0.7021-0.2725c-1.6641,0.7178-5.126,6.5479-5.2637,7.7451
		C1.3755,23.5215,1.1592,23.709,0.9087,23.709z"/>
</g>
<rect x="0.0022" y="-0.0147" fill="none" width="24" height="24"/>
</svg>
