<?xml version="1.0" encoding="utf-8"?>
<!-- Generator: Adobe Illustrator 18.1.0, SVG Export Plug-In . SVG Version: 6.00 Build 0)  -->
<svg version="1.1" id="Layer_1" xmlns="http://www.w3.org/2000/svg" xmlns:xlink="http://www.w3.org/1999/xlink" x="0px" y="0px"
	 width="24px" height="24px" viewBox="0 0 24 24" enable-background="new 0 0 24 24" xml:space="preserve">
<g>
	<path d="M2.5259,8.8433c-0.1279,0-0.2559-0.0488-0.3535-0.1465c-0.1953-0.1953-0.1953-0.5117,0-0.707l3.1953-3.1953
		c0.1953-0.1953,0.5117-0.1953,0.707,0s0.1953,0.5117,0,0.707L2.8794,8.6968C2.7817,8.7944,2.6538,8.8433,2.5259,8.8433z"/>
	<path d="M4.2783,10.5952c-0.1279,0-0.2559-0.0488-0.3535-0.1465c-0.1953-0.1953-0.1953-0.5117,0-0.707l1.2778-1.2778
		c0.1953-0.1953,0.5117-0.1953,0.707,0s0.1953,0.5117,0,0.707l-1.2778,1.2778C4.5342,10.5464,4.4062,10.5952,4.2783,10.5952z"/>
	<path d="M13.9854,20.3018c-0.1279,0-0.2559-0.0488-0.3535-0.1465c-0.1953-0.1953-0.1953-0.5117,0-0.707l1.2773-1.2773
		c0.1953-0.1953,0.5117-0.1953,0.707,0s0.1953,0.5117,0,0.707l-1.2773,1.2773C14.2412,20.2529,14.1133,20.3018,13.9854,20.3018z"/>
	<path d="M15.8115,22.1289c-0.1279,0-0.2559-0.0488-0.3535-0.1465c-0.1953-0.1953-0.1953-0.5117,0-0.707l3.1953-3.1953
		c0.1953-0.1953,0.5117-0.1953,0.707,0s0.1953,0.5117,0,0.707l-3.1953,3.1953C16.0674,22.0801,15.9395,22.1289,15.8115,22.1289z"/>
	<path d="M1.4424,23.7148c-0.3096,0-0.6182-0.1279-0.8608-0.3721c-0.356-0.3574-0.4697-0.8691-0.2896-1.3037
		c2.5684-6.5381,2.6089-6.5781,2.707-6.6748c0.1943-0.1963,0.5117-0.1943,0.707,0.002c0.1621,0.1641,0.188,0.4111,0.0786,0.6016
		c-0.1606,0.3467-1.6147,4.0254-2.5654,6.4453c-0.0308,0.0742,0.0137,0.167,0.0713,0.2246c0.0317,0.0322,0.1133,0.1006,0.208,0.0635
		c2.4404-0.9414,6.1367-2.376,6.4873-2.5361c0.189-0.1104,0.4365-0.083,0.5991,0.0801c0.1963,0.1943,0.1973,0.5107,0.0029,0.707
		c-0.0986,0.0986-0.1392,0.1396-6.7197,2.6787C1.73,23.6875,1.5859,23.7148,1.4424,23.7148z"/>
	<path d="M4.1997,22.6924c-0.1279,0-0.2559-0.0488-0.3535-0.1465L1.3853,20.084c-0.1953-0.1953-0.1953-0.5117,0-0.707
		s0.5117-0.1953,0.707,0l2.4609,2.4619c0.1953,0.1953,0.1953,0.5117,0,0.707C4.4556,22.6436,4.3276,22.6924,4.1997,22.6924z"/>
	<path d="M8.2534,21.1201c-0.1328,0-0.2598-0.0527-0.3535-0.1465l-4.9224-4.9229c-0.1953-0.1953-0.1953-0.5117,0-0.707L17.21,1.1118
		c0.8506-0.8521,2.332-0.8491,3.1816,0l2.2705,2.2705c0.4727,0.4722,0.7324,1.1001,0.7324,1.7676
		c0,0.668-0.2598,1.2959-0.7324,1.7676L8.6069,20.9736C8.5132,21.0674,8.3862,21.1201,8.2534,21.1201z M4.0381,15.6973
		l4.2153,4.2158L21.9551,6.2104c0.2832-0.2832,0.4395-0.6597,0.4395-1.0605c0-0.4004-0.1562-0.7773-0.4395-1.0605l-2.2705-2.2705
		c-0.4727-0.4727-1.2949-0.4727-1.7676,0L4.0381,15.6973z"/>
	<g>
		<path d="M5.3018,11.6748c-0.1279,0-0.2559-0.0488-0.3535-0.1465L0.2769,6.8574C0.1831,6.7637,0.1304,6.6367,0.1304,6.5039
			s0.0527-0.2598,0.1465-0.3535l5.8521-5.8516c0.0938-0.0938,0.2207-0.1465,0.3535-0.1465l0,0c0.1328,0,0.2598,0.0527,0.3535,0.1465
			l4.6709,4.6714c0.1953,0.1953,0.1953,0.5117,0,0.707s-0.5117,0.1953-0.707,0L6.4824,1.3594l-5.145,5.1445l4.3179,4.3174
			c0.1953,0.1953,0.1953,0.5117,0,0.707C5.5576,11.626,5.4297,11.6748,5.3018,11.6748z"/>
		<path d="M17.6104,23.9824c-0.1279,0-0.2559-0.0488-0.3535-0.1465l-4.8223-4.8213c-0.1953-0.1953-0.1953-0.5117,0-0.707
			s0.5117-0.1953,0.707,0l4.4688,4.4678l5.1436-5.1436l-4.4678-4.4688c-0.1953-0.1953-0.1953-0.5117,0-0.707s0.5117-0.1953,0.707,0
			l4.8213,4.8223c0.1953,0.1953,0.1953,0.5117,0,0.707l-5.8506,5.8506C17.8662,23.9336,17.7383,23.9824,17.6104,23.9824z"/>
	</g>
	<path d="M6.1436,19.0107c-0.1279,0-0.2559-0.0488-0.3535-0.1465c-0.1953-0.1953-0.1953-0.5117,0-0.707L17.3926,6.5547
		c0.1953-0.1953,0.5117-0.1953,0.707,0s0.1953,0.5117,0,0.707L6.4971,18.8643C6.3994,18.9619,6.2715,19.0107,6.1436,19.0107z"/>
</g>
<rect y="-0.0001" fill="none" width="24" height="24"/>
</svg>
