<?xml version="1.0" encoding="utf-8"?>
<!-- Generator: Adobe Illustrator 18.1.0, SVG Export Plug-In . SVG Version: 6.00 Build 0)  -->
<svg version="1.1" id="Layer_1" xmlns="http://www.w3.org/2000/svg" xmlns:xlink="http://www.w3.org/1999/xlink" x="0px" y="0px"
	 width="24px" height="24px" viewBox="0 0 24 24" enable-background="new 0 0 24 24" xml:space="preserve">
<g>
	<path d="M12.001,23.8418c-2.8096,0-7.3149-3.1699-7.9058-7.1553c-0.8862-0.2002-1.5361-0.9814-1.5361-1.9111
		c0-0.6211,0.2949-1.1973,0.7778-1.5635c-0.2397-0.9326-0.3677-2.2505-0.3677-3.145c0-0.2764,0.2236-0.5,0.5-0.5s0.5,0.2236,0.5,0.5
		c0,0.9614,0.1606,2.4263,0.4292,3.2114c0.0835,0.2451-0.0327,0.5127-0.2686,0.6182c-0.3467,0.1553-0.5708,0.5-0.5708,0.8789
		c0,0.5303,0.4316,0.9619,0.9619,0.9619c0.2607,0,0.5039,0.1992,0.5244,0.46c0.2832,3.6035,4.4736,6.6445,6.9556,6.6445
		c2.54,0,6.666-2.9766,6.9551-6.6445c0.0205-0.2607,0.2373-0.4609,0.498-0.4609c0.001,0,0.001,0,0.002,0
		c0.5557,0,0.9863-0.4307,0.9863-0.9609c0-0.3779-0.2236-0.7236-0.5703-0.8789c-0.2363-0.1055-0.3525-0.373-0.2695-0.6172
		c0.25-0.7334,0.3623-2.1416,0.3623-3.2124c0-0.2764,0.2236-0.5,0.5-0.5s0.5,0.2236,0.5,0.5c0,0.3462-0.0156,1.9741-0.3027,3.1431
		c0.4844,0.3662,0.7803,0.9434,0.7803,1.5654c0,0.9355-0.6592,1.7207-1.5371,1.916C19.334,20.5225,15.1309,23.8418,12.001,23.8418z"
		/>
	<path d="M5.939,14.5078c-0.1577,0-0.3091-0.0742-0.4048-0.207c-0.0566-0.0752-0.6001-0.7588-1.4077-0.4023
		c-0.2529,0.1094-0.5479-0.0039-0.6587-0.2568c-0.1113-0.2529,0.0034-0.5479,0.2563-0.6592
		c0.6997-0.3076,1.3218-0.1982,1.7974,0.0449l0.1978-2.2944c0.0234-0.2749,0.2593-0.4839,0.541-0.4551
		c0.2749,0.0234,0.479,0.2656,0.4551,0.541L6.437,14.0508c-0.0176,0.208-0.1631,0.3828-0.3643,0.4385
		C6.0283,14.502,5.9834,14.5078,5.939,14.5078z"/>
	<path d="M18.0898,14.5078c-0.043,0-0.0869-0.0059-0.1289-0.0166c-0.2002-0.0537-0.3467-0.2256-0.3682-0.4316l-0.333-3.2085
		c-0.0283-0.2749,0.1709-0.5205,0.4453-0.5493c0.2666-0.0244,0.5205,0.1709,0.5488,0.4458l0.2373,2.2876
		c0.4785-0.248,1.1064-0.3623,1.8135-0.0527c0.2529,0.1113,0.3672,0.4062,0.2568,0.6592c-0.1123,0.2539-0.4062,0.3682-0.6592,0.2568
		c-0.834-0.3691-1.3848,0.3711-1.4072,0.4023C18.3994,14.4326,18.2471,14.5078,18.0898,14.5078z"/>
	<path d="M14.8174,11.7334c-0.2539,0-0.4717-0.1929-0.4971-0.4512c-0.0264-0.2749,0.1748-0.5195,0.4492-0.5464
		c1.792-0.1753,3.5498-0.522,5.1143-1.0073l-1.0195-4.9312c-0.0273-0.1885-0.5781-3.7256-6.8975-3.7256
		c-5.9312,0-6.8633,3.5859-6.8999,3.7388l-1.0171,4.917c0.7842,0.2358,2.6274,0.729,5.0669,0.9805
		c0.2749,0.0283,0.4746,0.2744,0.4463,0.5488s-0.2651,0.4756-0.5488,0.4463c-3.3901-0.3501-5.6191-1.1318-5.7124-1.165
		C3.0664,10.4546,2.9292,10.21,2.9795,9.9658l1.1108-5.3706c0.0444-0.1948,1.1128-4.5234,7.8765-4.5234
		c7.25,0,7.8604,4.3784,7.8828,4.5645l1.1045,5.3291c0.0518,0.2485-0.0908,0.4956-0.3311,0.5757
		c-1.7373,0.5801-3.7275,0.9917-5.7559,1.1899C14.8506,11.7324,14.834,11.7334,14.8174,11.7334z"/>
	<path d="M11.9668,12.9033c-2.3193,0-4.2061-1.8867-4.2061-4.2061s1.8867-4.2061,4.2061-4.2061s4.2061,1.8867,4.2061,4.2061
		S14.2861,12.9033,11.9668,12.9033z M11.9668,5.4912c-1.7676,0-3.2061,1.4385-3.2061,3.2061s1.4385,3.2061,3.2061,3.2061
		s3.2061-1.4385,3.2061-3.2061S13.7344,5.4912,11.9668,5.4912z"/>
	<path d="M11.9668,10.3833c-0.9297,0-1.686-0.7563-1.686-1.686s0.7563-1.686,1.686-1.686s1.6865,0.7563,1.6865,1.686
		S12.8965,10.3833,11.9668,10.3833z M11.9668,8.0112c-0.3784,0-0.686,0.3076-0.686,0.686s0.3076,0.686,0.686,0.686
		c0.3789,0,0.6865-0.3076,0.6865-0.686S12.3457,8.0112,11.9668,8.0112z"/>
	<path d="M4.7065,17.6895c-0.2456,0-0.4595-0.1807-0.4946-0.4307c-0.0386-0.2734,0.1523-0.5264,0.4258-0.5645l5.7202-0.8027
		c1.0381-0.1455,2.0894-0.1475,3.1304-0.0039l5.876,0.8066c0.2734,0.0371,0.4648,0.2891,0.4268,0.5635
		c-0.0371,0.2744-0.292,0.4619-0.5635,0.4268l-5.876-0.8066c-0.9492-0.1309-1.9087-0.1299-2.855,0.0039l-5.7202,0.8027
		C4.7529,17.6875,4.7295,17.6895,4.7065,17.6895z"/>
	<path d="M9.5298,15c-0.1299,0-0.25-0.0498-0.3501-0.1406C9.0796,14.7598,9.0298,14.6299,9.0298,14.5s0.0498-0.2598,0.1499-0.3604
		c0.1899-0.1797,0.5103-0.1797,0.7002,0c0.1001,0.1006,0.1499,0.2305,0.1499,0.3604S9.98,14.7598,9.8799,14.8496
		C9.7798,14.9502,9.6597,15,9.5298,15z"/>
	<path d="M14.5,15c-0.1299,0-0.2598-0.0498-0.3506-0.1406C14.0498,14.7598,14,14.6299,14,14.5s0.0498-0.2598,0.1396-0.3506
		c0.1904-0.1895,0.5205-0.1895,0.71-0.0098C14.9502,14.2402,15,14.3701,15,14.5s-0.0498,0.2598-0.1406,0.3496
		C14.75,14.9502,14.6299,15,14.5,15z"/>
</g>
<rect x="0.0005" y="0.0004" fill="none" width="24" height="24"/>
</svg>
