<?xml version="1.0" encoding="utf-8"?>
<!-- Generator: Adobe Illustrator 18.1.0, SVG Export Plug-In . SVG Version: 6.00 Build 0)  -->
<svg version="1.1" id="Layer_1" xmlns="http://www.w3.org/2000/svg" xmlns:xlink="http://www.w3.org/1999/xlink" x="0px" y="0px"
	 width="24px" height="24px" viewBox="0 0 24 24" enable-background="new 0 0 24 24" xml:space="preserve">
<g>
	<path d="M15.7012,24.0283H8.3247c-0.5405,0-0.98-0.4004-0.98-0.8916l0.4863-3.0439c0.0444-0.2715,0.293-0.4629,0.5737-0.4131
		c0.2725,0.0439,0.4575,0.3008,0.4136,0.5732l-0.4487,2.7705l7.2944,0.0049l-0.4561-2.7754
		c-0.0449-0.2725,0.1406-0.5293,0.4131-0.5732c0.2686-0.0488,0.5293,0.1396,0.5732,0.4131l0.4805,2.9639
		C16.6816,23.6279,16.2422,24.0283,15.7012,24.0283z"/>
	<path d="M21.8887,18H2.1377c-1.1709,0-2.1235-0.959-2.1235-2.1377V2.1309C0.0142,0.936,0.9468,0,2.1377,0h19.751
		c1.1924,0,2.126,0.936,2.126,2.1309v13.7314C24.0146,17.041,23.0605,18,21.8887,18z M2.1377,1
		C1.5078,1,1.0142,1.4966,1.0142,2.1309v13.7314C1.0142,16.5,1.5078,17,2.1377,17h19.751c0.6318,0,1.126-0.5,1.126-1.1377V2.1309
		C23.0146,1.4966,22.5205,1,21.8887,1H2.1377z"/>
	<path d="M23.5146,15H0.5156c-0.2764,0-0.5-0.2236-0.5-0.5s0.2236-0.5,0.5-0.5h22.999c0.2764,0,0.5,0.2236,0.5,0.5
		S23.791,15,23.5146,15z"/>
	<path d="M11.999,8.8682c-0.7295,0-1.3228-0.5933-1.3228-1.3228s0.5933-1.3228,1.3228-1.3228s1.3223,0.5933,1.3223,1.3228
		S12.7285,8.8682,11.999,8.8682z M11.999,7.2227c-0.1777,0-0.3228,0.145-0.3228,0.3228s0.145,0.3228,0.3228,0.3228
		s0.3223-0.145,0.3223-0.3228S12.1768,7.2227,11.999,7.2227z"/>
	<path d="M11.999,11.5635c-2.2139,0-4.0146-1.8008-4.0146-4.0146s1.8008-4.0146,4.0146-4.0146s4.0146,1.8008,4.0146,4.0146
		S14.2129,11.5635,11.999,11.5635z M11.999,4.5342c-1.6621,0-3.0146,1.3525-3.0146,3.0146s1.3525,3.0146,3.0146,3.0146
		s3.0146-1.3525,3.0146-3.0146S13.6611,4.5342,11.999,4.5342z"/>
	<path d="M11.999,4.5342c-0.2764,0-0.5-0.2236-0.5-0.5V3.0239c0-0.2764,0.2236-0.5,0.5-0.5s0.5,0.2236,0.5,0.5v1.0103
		C12.499,4.3105,12.2754,4.5342,11.999,4.5342z"/>
	<path d="M11.999,12.6016c-0.2764,0-0.5-0.2236-0.5-0.5v-1.0107c0-0.2764,0.2236-0.5,0.5-0.5s0.5,0.2236,0.5,0.5v1.0107
		C12.499,12.3779,12.2754,12.6016,11.999,12.6016z"/>
	<path d="M16.5381,8.0625h-1.0107c-0.2764,0-0.5-0.2236-0.5-0.5s0.2236-0.5,0.5-0.5h1.0107c0.2764,0,0.5,0.2236,0.5,0.5
		S16.8145,8.0625,16.5381,8.0625z"/>
	<path d="M8.4707,8.0625H7.46c-0.2764,0-0.5-0.2236-0.5-0.5s0.2236-0.5,0.5-0.5h1.0107c0.2764,0,0.5,0.2236,0.5,0.5
		S8.7471,8.0625,8.4707,8.0625z"/>
	<path d="M13.7627,5.0073c-0.085,0-0.1709-0.0215-0.25-0.0669c-0.2393-0.1382-0.3213-0.4443-0.1826-0.6831l0.5059-0.8755
		c0.1387-0.2397,0.4443-0.3203,0.6826-0.1831c0.2393,0.1382,0.3213,0.4443,0.1826,0.6831l-0.5059,0.8755
		C14.1025,4.918,13.9346,5.0073,13.7627,5.0073z"/>
	<path d="M9.729,11.9932c-0.085,0-0.1709-0.0215-0.2495-0.0669c-0.2393-0.1382-0.3213-0.4438-0.1831-0.6831l0.5054-0.8755
		c0.1377-0.2393,0.4434-0.3213,0.6831-0.1831c0.2393,0.1382,0.3213,0.4438,0.1831,0.6831l-0.5054,0.8755
		C10.0698,11.9033,9.9019,11.9932,9.729,11.9932z"/>
	<path d="M10.2354,5.0073c-0.1729,0-0.3408-0.0898-0.4336-0.25L9.2964,3.8818C9.1582,3.6426,9.2402,3.3369,9.4795,3.1987
		c0.2378-0.1387,0.5444-0.0566,0.6831,0.1831l0.5054,0.8755c0.1382,0.2393,0.0562,0.5449-0.1831,0.6831
		C10.4062,4.9858,10.3203,5.0073,10.2354,5.0073z"/>
	<path d="M14.2686,11.9932c-0.1719,0-0.3398-0.0894-0.4326-0.25l-0.5059-0.8755c-0.1387-0.2388-0.0566-0.5449,0.1826-0.6831
		c0.2383-0.1382,0.543-0.0576,0.6826,0.1831l0.5059,0.8755c0.1387,0.2388,0.0566,0.5449-0.1826,0.6831
		C14.4395,11.9717,14.3535,11.9932,14.2686,11.9932z"/>
	<path d="M15.9297,10.332c-0.085,0-0.1709-0.0215-0.25-0.0669l-0.875-0.5054c-0.2393-0.1382-0.3213-0.4438-0.1826-0.6831
		c0.1377-0.2397,0.4443-0.3203,0.6826-0.1831l0.875,0.5054c0.2393,0.1382,0.3213,0.4438,0.1826,0.6831
		C16.2705,10.2427,16.1016,10.332,15.9297,10.332z"/>
	<path d="M8.9429,6.2983c-0.085,0-0.1709-0.0215-0.2495-0.0669l-0.875-0.5054C7.5791,5.5879,7.4971,5.2822,7.6353,5.043
		c0.1387-0.2397,0.4434-0.3218,0.6831-0.1831l0.875,0.5054c0.2393,0.1382,0.3213,0.4438,0.1831,0.6831
		C9.2837,6.209,9.1157,6.2983,8.9429,6.2983z"/>
	<path d="M15.0547,6.2983c-0.1719,0-0.3408-0.0894-0.4326-0.25c-0.1387-0.2393-0.0566-0.5449,0.1826-0.6831l0.875-0.5054
		c0.2383-0.1377,0.5449-0.0576,0.6826,0.1831c0.1387,0.2393,0.0566,0.5449-0.1826,0.6831l-0.875,0.5054
		C15.2256,6.2769,15.1396,6.2983,15.0547,6.2983z"/>
	<path d="M8.0688,10.332c-0.1729,0-0.3408-0.0894-0.4336-0.25C7.4971,9.8428,7.5791,9.5371,7.8184,9.3989l0.875-0.5054
		c0.2373-0.1392,0.5444-0.0566,0.6831,0.1831c0.1382,0.2393,0.0562,0.5449-0.1831,0.6831l-0.875,0.5054
		C8.2397,10.3105,8.1538,10.332,8.0688,10.332z"/>
</g>
<rect fill="none" width="24" height="24"/>
</svg>
