<?xml version="1.0" encoding="utf-8"?>
<!-- Generator: Adobe Illustrator 18.1.0, SVG Export Plug-In . SVG Version: 6.00 Build 0)  -->
<svg version="1.1" id="Layer_1" xmlns="http://www.w3.org/2000/svg" xmlns:xlink="http://www.w3.org/1999/xlink" x="0px" y="0px"
	 width="24px" height="24px" viewBox="0 0 24 24" enable-background="new 0 0 24 24" xml:space="preserve">
<g>
	<path d="M10.4922,20.5723c-0.0005,0-0.0005,0-0.0005,0c-0.3315,0-0.644-0.0996-0.9028-0.2881l-8.8047-7.0225
		c-0.3857-0.2764-0.6187-0.7314-0.6201-1.2334c-0.0015-0.5034,0.231-0.9619,0.6377-1.2583l8.7695-6.9922
		c0.2852-0.2095,0.5981-0.3135,0.9214-0.3135c0.856,0,1.5527,0.6968,1.5527,1.5527l0.0015,3.1133L20.9258,9.08
		c2.0381,0.3574,2.918,1.7544,2.9023,2.9824c-0.0166,1.2334-0.9141,2.6094-2.8818,2.9023l-8.9009,0.9521l0.0015,3.1133
		c0,0.4521-0.1763,0.8584-0.4971,1.1445C11.2637,20.4307,10.8877,20.5723,10.4922,20.5723z M10.4927,4.4644
		c-0.1108,0-0.2168,0.0366-0.3145,0.1079l-8.7705,6.9932c-0.1616,0.1182-0.2441,0.2812-0.2437,0.46
		c0.0005,0.1768,0.082,0.3379,0.2241,0.4395l8.8066,7.0244c0.0918,0.0654,0.2139,0.083,0.2969,0.083h0.0005
		c0.1475,0,0.29-0.0527,0.3916-0.1436c0.1084-0.0967,0.1631-0.2305,0.1631-0.3984l-0.0015-3.5625
		c0-0.2559,0.1929-0.4697,0.4468-0.4971l9.3281-0.9971c1.3652-0.2041,1.9971-1.1143,2.0078-1.9238
		c0.0098-0.7461-0.5195-1.7119-2.042-1.9805l-9.2925-0.9927c-0.2539-0.0269-0.4468-0.2412-0.4468-0.4971l-0.0015-3.5625
		C11.0454,4.6865,10.7593,4.4644,10.4927,4.4644z"/>
</g>
<rect y="0.001" fill="none" width="24" height="24"/>
</svg>
