<?xml version="1.0" encoding="utf-8"?>
<!-- Generator: Adobe Illustrator 18.1.0, SVG Export Plug-In . SVG Version: 6.00 Build 0)  -->
<svg version="1.1" id="Layer_1" xmlns="http://www.w3.org/2000/svg" xmlns:xlink="http://www.w3.org/1999/xlink" x="0px" y="0px"
	 width="24px" height="24px" viewBox="0 0 24 24" enable-background="new 0 0 24 24" xml:space="preserve">
<rect x="-0.0008" y="-0.0146" fill="none" width="24" height="24"/>
<g>
	<path d="M11.9902,15.9736c-2.2246,0-4.0347-1.8096-4.0347-4.0347c0-2.2246,1.8101-4.0347,4.0347-4.0347
		s4.0352,1.8101,4.0352,4.0347C16.0254,14.1641,14.2148,15.9736,11.9902,15.9736z M11.9902,8.9043
		c-1.6733,0-3.0347,1.3613-3.0347,3.0347s1.3613,3.0347,3.0347,3.0347c1.6738,0,3.0352-1.3613,3.0352-3.0347
		S13.6641,8.9043,11.9902,8.9043z"/>
	<path d="M23.0947,12.46h-4.3643c-0.2764,0-0.5-0.2236-0.5-0.5s0.2236-0.5,0.5-0.5h4.3643c0.2764,0,0.5,0.2236,0.5,0.5
		S23.3711,12.46,23.0947,12.46z"/>
	<path d="M5.2646,12.46H0.9019c-0.2764,0-0.5-0.2236-0.5-0.5s0.2236-0.5,0.5-0.5h4.3628c0.2764,0,0.5,0.2236,0.5,0.5
		S5.541,12.46,5.2646,12.46z"/>
	<path d="M11.9976,5.7271c-0.2764,0-0.5-0.2236-0.5-0.5V0.8638c0-0.2764,0.2236-0.5,0.5-0.5c0.2759,0,0.5005,0.2236,0.5005,0.5
		v4.3633C12.498,5.5034,12.2734,5.7271,11.9976,5.7271z"/>
	<path d="M11.9976,23.5557c-0.2764,0-0.5-0.2236-0.5-0.5v-4.3633c0-0.2764,0.2236-0.5,0.5-0.5c0.2759,0,0.5005,0.2236,0.5005,0.5
		v4.3633C12.498,23.332,12.2734,23.5557,11.9976,23.5557z"/>
	<path d="M16.9014,7.5571c-0.1279,0-0.2559-0.0488-0.3535-0.1465c-0.1953-0.1953-0.1953-0.5117,0-0.707l3.085-3.0854
		c0.1953-0.1953,0.5117-0.1953,0.707,0s0.1953,0.5117,0,0.707l-3.085,3.0854C17.1572,7.5083,17.0293,7.5571,16.9014,7.5571z"/>
	<path d="M4.0098,20.4473c-0.1279,0-0.2559-0.0488-0.3535-0.1465c-0.1953-0.1953-0.1953-0.5117,0-0.707l3.0854-3.085
		c0.1953-0.1953,0.5117-0.1953,0.707,0s0.1953,0.5117,0,0.707l-3.0854,3.085C4.2656,20.3984,4.1377,20.4473,4.0098,20.4473z"/>
	<path d="M19.9863,20.4473c-0.1279,0-0.2559-0.0488-0.3535-0.1465l-3.085-3.085c-0.1953-0.1953-0.1953-0.5117,0-0.707
		s0.5117-0.1953,0.707,0l3.085,3.085c0.1953,0.1953,0.1953,0.5117,0,0.707C20.2422,20.3984,20.1143,20.4473,19.9863,20.4473z"/>
	<path d="M7.0952,7.5571c-0.1279,0-0.2559-0.0488-0.3535-0.1465L3.6562,4.3252c-0.1953-0.1953-0.1953-0.5117,0-0.707
		s0.5117-0.1953,0.707,0l3.0854,3.0854c0.1953,0.1953,0.1953,0.5117,0,0.707C7.3511,7.5083,7.2231,7.5571,7.0952,7.5571z"/>
</g>
</svg>
