<?xml version="1.0" encoding="utf-8"?>
<!-- Generator: Adobe Illustrator 18.1.0, SVG Export Plug-In . SVG Version: 6.00 Build 0)  -->
<svg version="1.1" id="Layer_1" xmlns="http://www.w3.org/2000/svg" xmlns:xlink="http://www.w3.org/1999/xlink" x="0px" y="0px"
	 width="24px" height="24px" viewBox="0 0 24 24" enable-background="new 0 0 24 24" xml:space="preserve">
<g>
	<path d="M11.895,13.8926c-0.5068,0-1.0137-0.1777-1.4087-0.5322L2.5586,6.2319C2.3535,6.0474,2.3364,5.7314,2.5215,5.5259
		c0.1855-0.2056,0.501-0.2207,0.7061-0.0371l7.9272,7.1274c0.4082,0.3672,1.0728,0.3672,1.481,0l7.9277-7.1274
		c0.2031-0.1846,0.5205-0.1694,0.7061,0.0371c0.1846,0.2056,0.168,0.5215-0.0381,0.7061l-7.9277,7.1284
		C12.9092,13.7148,12.4023,13.8926,11.895,13.8926z"/>
	<path d="M2.894,18.6426c-0.1436,0-0.2861-0.0615-0.3848-0.1807c-0.1768-0.2119-0.1479-0.5273,0.0645-0.7041l5.3101-4.417
		c0.2119-0.1768,0.5283-0.1475,0.7041,0.0654c0.1768,0.2119,0.1479,0.5273-0.0645,0.7041l-5.3101,4.417
		C3.1201,18.6045,3.0063,18.6426,2.894,18.6426z"/>
	<path d="M9.481,21H2.8486c-1.5942,0-2.8428-1.2246-2.8428-2.7881V5.791C0.0059,4.2261,1.2544,3,2.8486,3h18.3076
		c1.5713,0,2.8496,1.252,2.8496,2.791v12.4209c0,1.2109-0.7188,2.2432-1.8311,2.6309c-0.2627,0.0928-0.5469-0.0459-0.6367-0.3066
		c-0.0918-0.2617,0.0459-0.5459,0.3066-0.6367c0.7051-0.2461,1.1611-0.9082,1.1611-1.6875V5.791c0-1.0044-0.8125-1.791-1.8496-1.791
		H2.8486C1.8154,4,1.0059,4.7866,1.0059,5.791v12.4209C1.0059,19.2148,1.8154,20,2.8486,20H9.481c0.2764,0,0.5,0.2236,0.5,0.5
		S9.7573,21,9.481,21z"/>
	<path d="M17.543,20.1074c-0.2764,0-0.5-0.2236-0.5-0.5v-1.1973c0.001-0.0283,0.0166-0.5986-0.3594-0.874
		c-0.3564-0.2617-1.0078-0.2344-1.8838,0.0752c-0.2617,0.0898-0.5459-0.0449-0.6387-0.3047
		c-0.0918-0.2607,0.0449-0.5459,0.3047-0.6387c1.2285-0.4346,2.1758-0.4102,2.8213,0.0703
		c0.8027,0.5996,0.7578,1.6533,0.7549,1.6982l0.001,1.1709C18.043,19.8838,17.8193,20.1074,17.543,20.1074z"/>
	<path d="M15.9971,23.7314c-2.6904,0-4.8799-2.1729-4.8799-4.8447s2.1895-4.8447,4.8799-4.8447
		c2.4834,0,4.5684,1.8457,4.8486,4.2939c0.0889,0.9277-0.1602,1.7861-0.6836,2.3613c-0.4082,0.4502-0.9453,0.6885-1.5508,0.6885
		c-0.5938,0-0.9482-0.251-1.1416-0.4619c-0.0469-0.0508-0.0879-0.1035-0.125-0.1572c-0.4902,0.3799-1.1631,0.6143-1.7734,0.6191
		c-0.0059,0-0.0107,0-0.0166,0c-0.9785,0-1.6504-0.5957-1.7559-1.5576c-0.0781-0.7119,0.2178-1.126,0.4785-1.3477
		c0.9912-0.8408,3.1562-0.2676,3.4004-0.1992c0.2656,0.0742,0.4209,0.3496,0.3467,0.6152c-0.0342,0.124-0.1133,0.2246-0.2139,0.2881
		c0.1523,0.0967,0.2471,0.2734,0.2305,0.4658c-0.0068,0.0986,0.0088,0.4287,0.167,0.5996c0.0312,0.0332,0.127,0.1357,0.4033,0.1357
		c0.3213,0,0.5938-0.1211,0.8105-0.3604c0.3291-0.3623,0.4902-0.9551,0.4287-1.585c-0.2207-1.9336-1.8779-3.3984-3.8535-3.3984
		c-2.1396,0-3.8799,1.7246-3.8799,3.8447s1.7402,3.8447,3.8799,3.8447c0.832,0,1.625-0.2568,2.293-0.7432
		c0.2227-0.1611,0.5352-0.1143,0.6982,0.1104c0.1621,0.2227,0.1133,0.5361-0.1104,0.6982
		C18.0381,23.4082,17.042,23.7314,15.9971,23.7314z M15.8652,19.0254c-0.4033,0-0.7559,0.0605-0.9414,0.2178
		c-0.0781,0.0664-0.1631,0.1807-0.1309,0.4756c0.0312,0.2871,0.1445,0.667,0.7617,0.667c0.0029,0,0.0068,0,0.0098,0
		c0.7236-0.0049,1.4512-0.5186,1.4805-0.8262c0.0146-0.1484,0.0928-0.2754,0.2041-0.3564
		C16.835,19.1016,16.3184,19.0254,15.8652,19.0254z"/>
</g>
<rect fill="none" width="24" height="24"/>
</svg>
