<?xml version="1.0" encoding="utf-8"?>
<!-- Generator: Adobe Illustrator 18.1.0, SVG Export Plug-In . SVG Version: 6.00 Build 0)  -->
<svg version="1.1" id="Layer_1" xmlns="http://www.w3.org/2000/svg" xmlns:xlink="http://www.w3.org/1999/xlink" x="0px" y="0px"
	 width="24px" height="24px" viewBox="0 0 24 24" enable-background="new 0 0 24 24" xml:space="preserve">
<g>
	<g>
		<path d="M21.5039,24H2.5034c-0.2764,0-0.5-0.2236-0.5-0.5V9.7148c0-0.2764,0.2236-0.5,0.5-0.5s0.5,0.2236,0.5,0.5V23h18.0005
			V9.7148c0-0.2764,0.2236-0.5,0.5-0.5s0.5,0.2236,0.5,0.5V23.5C22.0039,23.7764,21.7803,24,21.5039,24z"/>
		<path d="M20.5039,9.2876c-0.2764,0-0.5-0.2236-0.5-0.5V3h-4v1.5381c0,0.2764-0.2236,0.5-0.5,0.5s-0.5-0.2236-0.5-0.5V2.5
			c0-0.2764,0.2236-0.5,0.5-0.5h5c0.2764,0,0.5,0.2236,0.5,0.5v6.2876C21.0039,9.064,20.7803,9.2876,20.5039,9.2876z"/>
		<path d="M0.5537,11.8652c-0.1406,0-0.2803-0.0591-0.3794-0.1743c-0.1797-0.2095-0.1558-0.5249,0.0537-0.7051l11.4502-9.833
			c0.1875-0.1611,0.4644-0.1611,0.6519,0l11.4492,9.833c0.209,0.1802,0.2334,0.4956,0.0527,0.7051
			c-0.1787,0.2104-0.4941,0.2339-0.7051,0.0537l-11.123-9.5532L0.8794,11.7446C0.7852,11.8257,0.6694,11.8652,0.5537,11.8652z"/>
	</g>
	<path d="M11.7407,19.0107c-1.3896,0-2.5205-1.1162-2.5205-2.4893s1.1309-2.4893,2.5205-2.4893
		c0.6499,0,1.2681,0.2441,1.7397,0.6885c0.2012,0.1895,0.2109,0.5059,0.0215,0.707c-0.1904,0.2012-0.5059,0.21-0.707,0.0215
		c-0.2852-0.2686-0.6602-0.417-1.0542-0.417c-0.8384,0-1.5205,0.668-1.5205,1.4893s0.6821,1.4893,1.5205,1.4893
		c0.4116,0,0.7974-0.1592,1.0864-0.4482c0.1953-0.1934,0.5107-0.1943,0.708,0.001c0.1943,0.1963,0.1943,0.5127-0.001,0.708
		C13.0557,18.748,12.4189,19.0107,11.7407,19.0107z"/>
	<path d="M16.6182,19.0176c-1.3457,0-2.4404-1.1182-2.4404-2.4922c0-1.375,1.0947-2.4932,2.4404-2.4932s2.4404,1.1182,2.4404,2.4932
		C19.0586,17.8994,17.9639,19.0176,16.6182,19.0176z M16.6182,15.0322c-0.7939,0-1.4404,0.6699-1.4404,1.4932
		s0.6465,1.4922,1.4404,1.4922s1.4404-0.6689,1.4404-1.4922S17.4121,15.0322,16.6182,15.0322z"/>
	<path d="M8.1035,19.0176H5.418c-0.2764,0-0.5-0.2236-0.5-0.5v-3.9854c0-0.2764,0.2236-0.5,0.5-0.5h2.6855
		c0.2764,0,0.5,0.2236,0.5,0.5s-0.2236,0.5-0.5,0.5H5.918v2.9854h2.1855c0.2764,0,0.5,0.2236,0.5,0.5S8.3799,19.0176,8.1035,19.0176
		z"/>
	<path d="M7.7246,17.0254H5.418c-0.2764,0-0.5-0.2236-0.5-0.5s0.2236-0.5,0.5-0.5h2.3066c0.2764,0,0.5,0.2236,0.5,0.5
		S8.001,17.0254,7.7246,17.0254z"/>
</g>
<rect x="0.0005" fill="none" width="24" height="24"/>
</svg>
