<?xml version="1.0" encoding="utf-8"?>
<!-- Generator: Adobe Illustrator 18.1.0, SVG Export Plug-In . SVG Version: 6.00 Build 0)  -->
<svg version="1.1" id="Layer_1" xmlns="http://www.w3.org/2000/svg" xmlns:xlink="http://www.w3.org/1999/xlink" x="0px" y="0px"
	 width="24px" height="24px" viewBox="0 0 24 24" enable-background="new 0 0 24 24" xml:space="preserve">
<g>
	<path d="M21.1025,9.8979c-0.2168,0-0.416-0.1416-0.4805-0.3599c-1.1104-3.8086-4.6748-6.4688-8.668-6.4688
		c-3.9658,0-7.5112,2.6602-8.6221,6.4688C3.2549,9.8027,2.978,9.9565,2.7119,9.8779c-0.2651-0.0771-0.417-0.355-0.3398-0.6201
		c1.2344-4.2324,5.1748-7.1885,9.582-7.1885c4.4346,0,8.3936,2.9561,9.6289,7.1885c0.0771,0.2651-0.0752,0.543-0.3408,0.6201
		C21.1963,9.8916,21.1484,9.8979,21.1025,9.8979z"/>
	<path d="M21.1025,9.8979c-0.0605,0-0.1211-0.0107-0.1807-0.0337L17.665,8.5996c-0.2578-0.1001-0.3857-0.3896-0.2852-0.6475
		c0.0986-0.2578,0.3896-0.3853,0.6465-0.2852l2.791,1.084l1.1299-2.9087c0.0986-0.2578,0.3896-0.3843,0.6465-0.2852
		c0.2578,0.1001,0.3857,0.3901,0.2852,0.6475l-1.3105,3.3745C21.4922,9.7769,21.3027,9.8979,21.1025,9.8979z"/>
	<path d="M12.0283,22.043c-4.4346,0-8.394-2.9561-9.6284-7.1885c-0.0771-0.2646,0.0747-0.542,0.3398-0.6201
		c0.2666-0.0723,0.5435,0.0752,0.6201,0.3408c1.1108,3.8076,4.6753,6.4678,8.6685,6.4678c3.9658,0,7.5107-2.6602,8.6211-6.4678
		c0.0781-0.2656,0.3516-0.4131,0.6201-0.3408c0.2656,0.0781,0.418,0.3555,0.3408,0.6201
		C20.376,19.0869,16.4355,22.043,12.0283,22.043z"/>
	<path d="M1.5693,18.5898c-0.0605,0-0.1216-0.0107-0.1812-0.0342c-0.2573-0.0996-0.3848-0.3896-0.2852-0.6465l1.3105-3.375
		c0.1006-0.2578,0.3906-0.3857,0.6475-0.2852l3.2568,1.2646c0.2573,0.0996,0.3848,0.3896,0.2852,0.6465
		c-0.1011,0.2578-0.3926,0.3857-0.6475,0.2852l-2.7905-1.083l-1.1294,2.9082C1.9585,18.4688,1.7695,18.5898,1.5693,18.5898z"/>
</g>
<rect y="0.001" fill="none" width="24" height="24"/>
</svg>
