<?xml version="1.0" encoding="utf-8"?>
<!-- Generator: Adobe Illustrator 18.1.0, SVG Export Plug-In . SVG Version: 6.00 Build 0)  -->
<svg version="1.1" id="Layer_1" xmlns="http://www.w3.org/2000/svg" xmlns:xlink="http://www.w3.org/1999/xlink" x="0px" y="0px"
	 width="24px" height="24px" viewBox="0 0 24 24" enable-background="new 0 0 24 24" xml:space="preserve">
<g>
	<path d="M2.9551,12.5977c-0.1465,0-0.2915-0.0635-0.3906-0.1875L0.5884,9.9487C0.4155,9.7334,0.4502,9.4185,0.6655,9.2456
		s0.5293-0.1382,0.7031,0.0771l1.6631,2.0723L5.104,9.7314c0.2168-0.1719,0.5303-0.1372,0.7031,0.0771
		C5.98,10.0239,5.9453,10.3389,5.73,10.5117l-2.4624,1.9756C3.1753,12.5615,3.0645,12.5977,2.9551,12.5977z"/>
	<path d="M11.9941,21.5732c-0.2764,0-0.5-0.2236-0.5-0.5s0.2236-0.5,0.5-0.5c4.7168,0,8.5537-3.8369,8.5537-8.5537
		c0-4.7173-3.8369-8.5547-8.5537-8.5547c-4.7085,0-8.5396,3.8726-8.5396,8.6328c0,0.2764-0.2236,0.5-0.5,0.5s-0.5-0.2236-0.5-0.5
		c0-5.3115,4.2793-9.6328,9.5396-9.6328c5.2676,0,9.5537,4.2861,9.5537,9.5547C21.5479,17.2871,17.2617,21.5732,11.9941,21.5732z"/>
	<path d="M10.3604,14.1523c-0.1279,0-0.2559-0.0488-0.3535-0.1465c-0.1953-0.1953-0.1953-0.5117,0-0.707l3.2676-3.2671
		c0.1953-0.1953,0.5117-0.1953,0.707,0s0.1953,0.5117,0,0.707l-3.2676,3.2671C10.6162,14.1035,10.4883,14.1523,10.3604,14.1523z"/>
	<path d="M13.6279,14.1523c-0.1279,0-0.2559-0.0488-0.3535-0.1465l-3.2676-3.2671c-0.1953-0.1953-0.1953-0.5117,0-0.707
		s0.5117-0.1953,0.707,0l3.2676,3.2671c0.1953,0.1953,0.1953,0.5117,0,0.707C13.8838,14.1035,13.7559,14.1523,13.6279,14.1523z"/>
</g>
<rect y="0.001" fill="none" width="24" height="24"/>
</svg>
