<?xml version="1.0" encoding="utf-8"?>
<!-- Generator: Adobe Illustrator 18.1.0, SVG Export Plug-In . SVG Version: 6.00 Build 0)  -->
<svg version="1.1" id="Layer_1" xmlns="http://www.w3.org/2000/svg" xmlns:xlink="http://www.w3.org/1999/xlink" x="0px" y="0px"
	 width="24px" height="24px" viewBox="0 0 24 24" enable-background="new 0 0 24 24" xml:space="preserve">
<g>
	<path d="M23.4863,21h-23c-0.2764,0-0.5-0.2236-0.5-0.5v-20c0-0.2764,0.2236-0.5,0.5-0.5h23c0.2764,0,0.5,0.2236,0.5,0.5v20
		C23.9863,20.7764,23.7627,21,23.4863,21z M0.9863,20h22V1h-22V20z"/>
	<path d="M20.4863,18h-16c-0.2764,0-0.5-0.2236-0.5-0.5v-14c0-0.2764,0.2236-0.5,0.5-0.5h16c0.2764,0,0.5,0.2236,0.5,0.5v14
		C20.9863,17.7764,20.7627,18,20.4863,18z M4.9863,17h15V4h-15V17z"/>
	<path d="M20.4863,24h-4c-0.2764,0-0.5-0.2236-0.5-0.5v-3c0-0.2764,0.2236-0.5,0.5-0.5h4c0.2764,0,0.5,0.2236,0.5,0.5v3
		C20.9863,23.7764,20.7627,24,20.4863,24z M16.9863,23h3v-2h-3V23z"/>
	<path d="M7.4849,24h-4c-0.2764,0-0.5-0.2236-0.5-0.5v-3c0-0.2764,0.2236-0.5,0.5-0.5h4c0.2764,0,0.5,0.2236,0.5,0.5v3
		C7.9849,23.7764,7.7612,24,7.4849,24z M3.9849,23h3v-2h-3V23z"/>
	<path d="M4.4863,9h-2c-0.2764,0-0.5-0.2236-0.5-0.5v-2c0-0.2764,0.2236-0.5,0.5-0.5h2c0.2764,0,0.5,0.2236,0.5,0.5v2
		C4.9863,8.7764,4.7627,9,4.4863,9z M2.9863,8h1V7h-1V8z"/>
	<path d="M4.4863,16h-2c-0.2764,0-0.5-0.2236-0.5-0.5v-2c0-0.2764,0.2236-0.5,0.5-0.5h2c0.2764,0,0.5,0.2236,0.5,0.5v2
		C4.9863,15.7764,4.7627,16,4.4863,16z M2.9863,15h1v-1h-1V15z"/>
	<path d="M12.4775,15.0156c-2.4849,0-4.5063-2.0215-4.5063-4.5059s2.0215-4.5059,4.5063-4.5059
		c2.4844,0,4.5059,2.0215,4.5059,4.5059S14.9619,15.0156,12.4775,15.0156z M12.4775,7.0039c-1.9336,0-3.5063,1.5728-3.5063,3.5059
		c0,1.9336,1.5728,3.5059,3.5063,3.5059s3.5059-1.5723,3.5059-3.5059C15.9834,8.5767,14.4111,7.0039,12.4775,7.0039z"/>
	<path d="M12.4775,12.2529c-0.9614,0-1.7437-0.7822-1.7437-1.7432s0.7822-1.7427,1.7437-1.7427
		c0.9609,0,1.7422,0.7817,1.7422,1.7427S13.4385,12.2529,12.4775,12.2529z M12.4775,9.7671c-0.4102,0-0.7437,0.333-0.7437,0.7427
		s0.3335,0.7432,0.7437,0.7432c0.4092,0,0.7422-0.3335,0.7422-0.7432S12.8867,9.7671,12.4775,9.7671z"/>
	<path d="M13.3555,10.1313c-0.1279,0-0.2559-0.0488-0.3535-0.1465c-0.1953-0.1953-0.1953-0.5117,0-0.707l0.9697-0.9697
		c0.1953-0.1953,0.5117-0.1953,0.707,0s0.1953,0.5117,0,0.707L13.709,9.9849C13.6113,10.0825,13.4834,10.1313,13.3555,10.1313z"/>
</g>
<rect x="-0.0136" fill="none" width="24" height="24"/>
</svg>
