<?xml version="1.0" encoding="utf-8"?>
<!-- Generator: Adobe Illustrator 18.1.0, SVG Export Plug-In . SVG Version: 6.00 Build 0)  -->
<svg version="1.1" id="Layer_1" xmlns="http://www.w3.org/2000/svg" xmlns:xlink="http://www.w3.org/1999/xlink" x="0px" y="0px"
	 width="24px" height="24px" viewBox="0 0 24 24" enable-background="new 0 0 24 24" xml:space="preserve">
<g>
	<path d="M3.4966,8.4399c-0.2764,0-0.5-0.2236-0.5-0.5V5.8208C2.7432,5.9072,2.4634,5.7739,2.3691,5.5195
		C2.2739,5.2607,2.4062,4.9731,2.6655,4.8774l0.6582-0.2427c0.1533-0.0566,0.3237-0.0337,0.459,0.0591
		C3.9165,4.7871,3.9966,4.9404,3.9966,5.104v2.8359C3.9966,8.2163,3.7729,8.4399,3.4966,8.4399z"/>
	<path d="M4.417,14.5029H2.5762c-0.2046,0-0.3887-0.125-0.4644-0.3145c-0.0757-0.1904-0.0283-0.4072,0.1206-0.5488l1.3394-1.2695
		c0.2163-0.2012,0.3159-0.4038,0.2705-0.5454c-0.0303-0.0933-0.1235-0.1626-0.2383-0.1772
		c-0.187-0.0215-0.3711,0.0986-0.5186,0.3335c-0.1475,0.2339-0.4551,0.3071-0.6895,0.1567
		c-0.2339-0.1465-0.3042-0.4551-0.1572-0.689c0.3579-0.5693,0.918-0.8647,1.4893-0.7935c0.498,0.0625,0.9165,0.4009,1.0659,0.8618
		c0.1704,0.5288-0.0254,1.105-0.5376,1.5825l-0.4258,0.4033H4.417c0.2764,0,0.5,0.2236,0.5,0.5S4.6934,14.5029,4.417,14.5029z"/>
	<path d="M3.5811,20.458c-0.5884,0-1.1885-0.2998-1.4292-0.7441C2.02,19.4707,2.1104,19.167,2.353,19.0361
		c0.2432-0.1309,0.5459-0.041,0.6777,0.2012c0.064,0.1182,0.3945,0.2646,0.667,0.21c0.165-0.0312,0.188-0.1074,0.1992-0.1973
		c0.0171-0.1367-0.0176-0.1729-0.0288-0.1846c-0.0923-0.0977-0.3784-0.1426-0.5435-0.125c-0.2051,0.002-0.3872-0.0928-0.479-0.2695
		c-0.0913-0.1768-0.0703-0.3906,0.0552-0.5449l0.4399-0.54H2.6934c-0.2764,0-0.5-0.2236-0.5-0.5s0.2236-0.5,0.5-0.5h1.6997
		c0.1929,0,0.3687,0.1113,0.4517,0.2852c0.083,0.1748,0.0581,0.3809-0.064,0.5303l-0.5732,0.7041
		c0.1372,0.0635,0.2705,0.1504,0.3838,0.2686c0.1704,0.1787,0.3608,0.4971,0.2979,0.999c-0.0693,0.5566-0.4458,0.9512-1.0063,1.0576
		C3.7837,20.4492,3.6826,20.458,3.5811,20.458z"/>
	<path d="M22.4834,7.0039H7.5532c-0.2764,0-0.5-0.2236-0.5-0.5s0.2236-0.5,0.5-0.5h14.9302c0.2764,0,0.5,0.2236,0.5,0.5
		S22.7598,7.0039,22.4834,7.0039z"/>
	<path d="M22.4834,13.0039H7.5532c-0.2764,0-0.5-0.2236-0.5-0.5s0.2236-0.5,0.5-0.5h14.9302c0.2764,0,0.5,0.2236,0.5,0.5
		S22.7598,13.0039,22.4834,13.0039z"/>
	<path d="M22.4834,19.0039H7.5532c-0.2764,0-0.5-0.2236-0.5-0.5s0.2236-0.5,0.5-0.5h14.9302c0.2764,0,0.5,0.2236,0.5,0.5
		S22.7598,19.0039,22.4834,19.0039z"/>
</g>
<rect y="0.0011" fill="none" width="24" height="24"/>
</svg>
