<?xml version="1.0" encoding="utf-8"?>
<!-- Generator: Adobe Illustrator 18.1.0, SVG Export Plug-In . SVG Version: 6.00 Build 0)  -->
<svg version="1.1" id="Layer_1" xmlns="http://www.w3.org/2000/svg" xmlns:xlink="http://www.w3.org/1999/xlink" x="0px" y="0px"
	 width="24px" height="24px" viewBox="0 0 24 24" enable-background="new 0 0 24 24" xml:space="preserve">
<g>
	<path d="M11.2554,23.748c-0.1816,0-0.396-0.0508-0.6431-0.1914l-5.2466-3.6074c-0.2275-0.1562-0.2852-0.4678-0.1289-0.6953
		c0.1572-0.2275,0.4688-0.2852,0.6953-0.1289l5.2109,3.585c0.0674,0.0361,0.1123,0.0391,0.1128,0.0391l0.5278-0.5615l-5.0938-3.5723
		c-0.2256-0.1592-0.2798-0.4707-0.1206-0.6963c0.1592-0.2246,0.4717-0.2812,0.6968-0.1201l5.1587,3.6377
		c0.2246,0.1699,0.3506,0.4033,0.3691,0.667c0.0195,0.2842-0.0938,0.5801-0.3027,0.79l-0.5835,0.582
		C11.8071,23.5771,11.5874,23.748,11.2554,23.748z"/>
	<path d="M4.2402,22.1016c-0.1318,0-0.2593-0.0527-0.3535-0.1465l-2.9761-2.9766c-0.1055-0.1055-0.1587-0.2529-0.144-0.4014
		c0.0142-0.1484,0.0942-0.2832,0.2178-0.3662l2.0186-1.3613l1.2417-1.2637l6.3125-12.0933
		c0.0737-0.1411,0.2104-0.2388,0.3677-0.2627c0.1592-0.0259,0.3169,0.0283,0.4292,0.1406l8.1372,8.1372
		c0.1123,0.1123,0.165,0.272,0.1406,0.4292c-0.0244,0.1577-0.1221,0.2935-0.2627,0.3677L7.2773,18.6152l-1.2749,1.2754
		l-1.3491,1.9932c-0.084,0.1221-0.2183,0.2021-0.3667,0.2158C4.2715,22.1006,4.2559,22.1016,4.2402,22.1016z M2.0449,18.6992
		l2.1226,2.1221l1.0684-1.5664l1.3896-1.4004c0.0361-0.0361,0.0771-0.0664,0.1221-0.0898l11.5552-6.0312l-7.1743-7.1738
		L5.0981,16.1152c-0.0234,0.0449-0.0532,0.085-0.0889,0.1211l-1.3721,1.3799L2.0449,18.6992z"/>
	<path d="M21.498,8.9497c-0.0049,0-0.0107,0-0.0166-0.0005c-0.2754-0.0088-0.4922-0.2397-0.4834-0.5161
		c0.0576-1.7363-0.583-3.3643-1.8027-4.5845c-1.2207-1.2202-2.8311-1.8481-4.5859-1.8047
		c-0.0059,0.0005-0.0117,0.0005-0.0166,0.0005c-0.2686,0-0.4912-0.2134-0.5-0.4834c-0.0088-0.2764,0.208-0.5073,0.4834-0.5161
		c2.002-0.0654,3.9072,0.6777,5.3262,2.0967c1.418,1.418,2.1621,3.3091,2.0957,5.3247C21.9893,8.7363,21.7666,8.9497,21.498,8.9497z
		"/>
	<path d="M18.4541,8.1919c-0.0117,0-0.0225-0.0005-0.0342-0.001c-0.2754-0.0181-0.4834-0.2563-0.4658-0.5317
		C18,6.9614,17.7451,6.2798,17.2539,5.7886s-1.1758-0.7437-1.8701-0.7002c-0.3037,0.0098-0.5146-0.1914-0.5322-0.4663
		c-0.0176-0.2754,0.1904-0.5137,0.4658-0.5317c0.9941-0.0605,1.9492,0.2964,2.6436,0.9912s1.0557,1.6582,0.9912,2.6431
		C18.9346,7.9893,18.7148,8.1919,18.4541,8.1919z"/>
	<path d="M6.978,18.707c-0.1279,0-0.2559-0.0488-0.3535-0.1465l-2.3232-2.3232c-0.1953-0.1953-0.1953-0.5117,0-0.707
		s0.5117-0.1953,0.707,0l2.3232,2.3232c0.1953,0.1953,0.1953,0.5117,0,0.707C7.2339,18.6582,7.106,18.707,6.978,18.707z"/>
	<path d="M5.6489,20.0371c-0.1245,0-0.2495-0.0459-0.3462-0.1396L2.9365,17.624c-0.1992-0.1914-0.2056-0.5078-0.0142-0.707
		c0.1909-0.1982,0.5078-0.2061,0.7065-0.0137l2.3662,2.2734c0.1992,0.1914,0.2056,0.5078,0.0142,0.707
		C5.9111,19.9854,5.7803,20.0371,5.6489,20.0371z"/>
</g>
<rect x="-0.0136" y="0.0002" fill="none" width="24" height="24"/>
</svg>
