<?xml version="1.0" encoding="utf-8"?>
<!-- Generator: Adobe Illustrator 18.1.0, SVG Export Plug-In . SVG Version: 6.00 Build 0)  -->
<svg version="1.1" id="Layer_1" xmlns="http://www.w3.org/2000/svg" xmlns:xlink="http://www.w3.org/1999/xlink" x="0px" y="0px"
	 width="24px" height="24px" viewBox="0 0 24 24" enable-background="new 0 0 24 24" xml:space="preserve">
<g>
	<path d="M18.5869,20.998H5.1782c-2.0771,0-3.8706-1.4092-4.5679-3.5908c-0.7388-2.3086,0.0283-4.7148,1.9541-6.1919
		c0.6045-3.6455,3.2852-6.27,6.4409-6.27c1.4604,0,2.8447,0.564,4.0181,1.6338c2.5107-0.2534,4.5918,1.208,5.4072,3.6357
		c2.8066-0.0972,5.2217,2.4209,5.2217,5.3896C23.6523,18.5283,21.333,20.998,18.5869,20.998z M9.0054,5.9453
		c-2.7134,0-5.019,2.3638-5.4829,5.6201c-0.0195,0.1357-0.0933,0.2573-0.2051,0.3369c-2.0522,1.4629-2.252,3.6455-1.7549,5.2002
		c0.5625,1.7588,1.9819,2.8955,3.6157,2.8955h13.4087c2.2041,0,4.0654-2.0117,4.0654-4.3936c0-2.5352-2.1025-4.6406-4.5303-4.3667
		c-0.2422,0.0254-0.4756-0.1289-0.5391-0.3687c-0.4268-1.6045-1.6992-3.3193-3.9883-3.3193c-0.2178,0-0.4414,0.0161-0.6719,0.0493
		c-0.1592,0.02-0.3096-0.0288-0.4199-0.1367C11.4834,6.4697,10.2739,5.9453,9.0054,5.9453z"/>
	<path d="M14.8105,13.5322c-0.2168,0-0.416-0.1416-0.4805-0.3604c-0.3643-1.25-1.5283-2.1235-2.8311-2.1235
		c-1.3022,0-2.4668,0.8735-2.8315,2.1235c-0.0771,0.2656-0.355,0.4131-0.6201,0.3408c-0.2651-0.0781-0.417-0.3555-0.3398-0.6201
		c0.4883-1.6748,2.0474-2.8442,3.7915-2.8442s3.3037,1.1694,3.792,2.8442c0.0771,0.2646-0.0752,0.542-0.3408,0.6201
		C14.9033,13.5254,14.8564,13.5322,14.8105,13.5322z"/>
	<path d="M14.8271,13.5322c-0.0605,0-0.1211-0.0107-0.1807-0.0342l-1.6924-0.6572c-0.2578-0.0996-0.3857-0.3896-0.2852-0.6465
		c0.0986-0.2588,0.3906-0.3843,0.6465-0.2856l1.2266,0.4761l0.4766-1.2261c0.0986-0.2578,0.3896-0.3853,0.6465-0.2852
		c0.2578,0.1001,0.3857,0.3901,0.2852,0.6475l-0.6572,1.6919C15.2168,13.4111,15.0273,13.5322,14.8271,13.5322z"/>
	<path d="M11.5259,17.9512c-1.7441,0-3.3032-1.1699-3.7915-2.8447c-0.0771-0.2646,0.0747-0.542,0.3398-0.6201
		c0.2671-0.0723,0.5435,0.0752,0.6201,0.3408c0.3647,1.25,1.5288,2.124,2.8315,2.124c1.3022,0,2.4673-0.874,2.8325-2.124
		c0.0771-0.2656,0.3545-0.4131,0.6191-0.3408c0.2656,0.0781,0.418,0.3555,0.3398,0.6201
		C14.8291,16.7812,13.2695,17.9512,11.5259,17.9512z"/>
	<path d="M7.5405,17.1592c-0.0605,0-0.1216-0.0107-0.1812-0.0342c-0.2573-0.0996-0.3848-0.3896-0.2852-0.6465l0.6572-1.6924
		c0.1006-0.2578,0.3906-0.3877,0.6475-0.2852l1.6929,0.6572c0.2573,0.0996,0.3848,0.3896,0.2852,0.6465
		c-0.1006,0.2578-0.3901,0.3867-0.6475,0.2852l-1.2266-0.4756l-0.4761,1.2256C7.9297,17.0381,7.7407,17.1592,7.5405,17.1592z"/>
</g>
<rect y="0.0001" fill="none" width="24" height="24"/>
</svg>
