<?xml version="1.0" encoding="utf-8"?>
<!-- Generator: Adobe Illustrator 18.1.0, SVG Export Plug-In . SVG Version: 6.00 Build 0)  -->
<svg version="1.1" id="Layer_1" xmlns="http://www.w3.org/2000/svg" xmlns:xlink="http://www.w3.org/1999/xlink" x="0px" y="0px"
	 width="24px" height="24px" viewBox="0 0 24 24" enable-background="new 0 0 24 24" xml:space="preserve">
<g>
	<path d="M12.0303,23.8848c-6.5518,0-11.8818-5.3301-11.8818-11.8818c0-6.5522,5.3301-11.8828,11.8818-11.8828
		s11.8828,5.3306,11.8828,11.8828C23.9131,18.5547,18.582,23.8848,12.0303,23.8848z M12.0303,1.1201
		c-6.0005,0-10.8818,4.8818-10.8818,10.8828c0,6,4.8813,10.8818,10.8818,10.8818c6.001,0,10.8828-4.8818,10.8828-10.8818
		C22.9131,6.002,18.0312,1.1201,12.0303,1.1201z"/>
	<path d="M10.3022,17.5127L10.3022,17.5127c-0.7158,0-1.2979-0.5811-1.2979-1.2959L9.0039,7.7764
		c0-0.7148,0.5825-1.2964,1.2983-1.2964c0.2881,0,0.5625,0.0952,0.7935,0.2759l5.4062,4.2197C16.8184,11.2227,17,11.5947,17,11.9966
		s-0.1816,0.7729-0.498,1.02l-5.4062,4.2207C10.8652,17.417,10.5908,17.5127,10.3022,17.5127z M10.3022,7.48
		c-0.124,0-0.2983,0.0918-0.2983,0.2964l0.0005,8.4404c0,0.2041,0.1743,0.2959,0.2979,0.2959l0,0
		c0.064,0,0.1235-0.0215,0.1777-0.0635l5.4067-4.2217C15.9854,12.1514,16,12.0498,16,11.9961s-0.0146-0.1553-0.1133-0.2324
		L10.48,7.5439C10.4253,7.5015,10.3657,7.48,10.3022,7.48z"/>
</g>
<rect y="0.001" fill="none" width="24" height="24"/>
</svg>
