<?xml version="1.0" encoding="utf-8"?>
<!-- Generator: Adobe Illustrator 18.1.0, SVG Export Plug-In . SVG Version: 6.00 Build 0)  -->
<svg version="1.1" id="Layer_1" xmlns="http://www.w3.org/2000/svg" xmlns:xlink="http://www.w3.org/1999/xlink" x="0px" y="0px"
	 width="24px" height="24px" viewBox="0 0 24 24" enable-background="new 0 0 24 24" xml:space="preserve">
<g>
	<path d="M11.541,13.0635c-0.2764,0-0.5-0.2236-0.5-0.5V5.6841c0-0.2764,0.2236-0.5,0.5-0.5s0.5,0.2236,0.5,0.5v6.8794
		C12.041,12.8398,11.8174,13.0635,11.541,13.0635z"/>
	<path d="M11.541,16.0791c-0.2764,0-0.5-0.2236-0.5-0.5v-0.1758c0-0.2764,0.2236-0.5,0.5-0.5s0.5,0.2236,0.5,0.5v0.1758
		C12.041,15.8555,11.8174,16.0791,11.541,16.0791z"/>
	<path d="M4.9316,23.9385c-0.519,0-0.9419-0.4209-0.9419-0.9375v-2.9902H3.3652c-0.9854,0-1.8706-0.5088-2.3677-1.3623
		C0.5,17.7939,0.4937,16.7725,0.98,15.9141L9.1562,1.5103c0.4927-0.8687,1.3843-1.3872,2.3853-1.3872
		c1.0005,0,1.8911,0.5186,2.3833,1.3872l8.1768,14.4038c0.4873,0.8584,0.4805,1.8809-0.0166,2.7334
		c-0.4971,0.8535-1.3818,1.3633-2.3672,1.3633H9.5889l-4.0063,3.6611C5.4282,23.835,5.1885,23.9385,4.9316,23.9385z M11.5415,1.123
		c-0.6362,0-1.2026,0.3291-1.5151,0.8804L1.8501,16.4082c-0.3091,0.5439-0.3047,1.1934,0.0117,1.7373
		c0.3159,0.542,0.8779,0.8652,1.5034,0.8652h1.1245c0.2764,0,0.5,0.2236,0.5,0.5v3.3496l4.0679-3.7188
		c0.0923-0.084,0.2124-0.1309,0.3374-0.1309h10.3228c0.625,0,1.1875-0.3242,1.5029-0.8662c0.3164-0.543,0.3203-1.1914,0.0117-1.7363
		L13.0557,2.0039C12.7432,1.4521,12.1768,1.123,11.5415,1.123z"/>
</g>
<rect fill="none" width="24" height="24"/>
</svg>
