<?xml version="1.0" encoding="utf-8"?>
<!-- Generator: Adobe Illustrator 18.1.0, SVG Export Plug-In . SVG Version: 6.00 Build 0)  -->
<svg version="1.1" id="Layer_1" xmlns="http://www.w3.org/2000/svg" xmlns:xlink="http://www.w3.org/1999/xlink" x="0px" y="0px"
	 width="24px" height="24px" viewBox="0 0 24 24" enable-background="new 0 0 24 24" xml:space="preserve">
<g>
	<path d="M6.0176,22.9619c-0.1963,0-0.3765-0.1152-0.457-0.2979l-2.9473-6.6504H0.7285c-0.2764,0-0.5-0.2236-0.5-0.5
		s0.2236-0.5,0.5-0.5h2.21c0.1978,0,0.377,0.1162,0.457,0.2979l2.4917,5.6221l4.4287-17.5703
		c0.0562-0.2222,0.2559-0.3779,0.4849-0.3779h12.4434c0.2764,0,0.5,0.2236,0.5,0.5s-0.2236,0.5-0.5,0.5H11.1904L6.5024,22.584
		c-0.0522,0.207-0.23,0.3584-0.4424,0.376C6.0459,22.9609,6.0317,22.9619,6.0176,22.9619z"/>
	<path d="M21.4375,22.9004c-0.1279,0-0.2559-0.0488-0.3535-0.1465l-8.8779-8.8789c-0.1953-0.1953-0.1953-0.5117,0-0.707
		s0.5117-0.1953,0.707,0l8.8779,8.8789c0.1953,0.1953,0.1953,0.5117,0,0.707C21.6934,22.8516,21.5654,22.9004,21.4375,22.9004z"/>
	<path d="M12.5596,22.9004c-0.1279,0-0.2559-0.0488-0.3535-0.1465c-0.1953-0.1953-0.1953-0.5117,0-0.707l8.8779-8.8789
		c0.1953-0.1953,0.5117-0.1953,0.707,0s0.1953,0.5117,0,0.707l-8.8779,8.8789C12.8154,22.8516,12.6875,22.9004,12.5596,22.9004z"/>
</g>
<rect x="-0.0137" fill="none" width="24" height="24"/>
</svg>
