<?xml version="1.0" encoding="utf-8"?>
<!-- Generator: Adobe Illustrator 18.1.0, SVG Export Plug-In . SVG Version: 6.00 Build 0)  -->
<svg version="1.1" id="Layer_1" xmlns="http://www.w3.org/2000/svg" xmlns:xlink="http://www.w3.org/1999/xlink" x="0px" y="0px"
	 width="24px" height="24px" viewBox="0 0 24 24" enable-background="new 0 0 24 24" xml:space="preserve">
<g>
	<path d="M22.4502,20.0098H1.5503c-0.2764,0-0.5-0.2236-0.5-0.5s0.2236-0.5,0.5-0.5h20.8999c0.2764,0,0.5,0.2236,0.5,0.5
		S22.7266,20.0098,22.4502,20.0098z"/>
	<path d="M22.4502,2.0088H1.5503c-0.2764,0-0.5-0.2236-0.5-0.5s0.2236-0.5,0.5-0.5h20.8999c0.2764,0,0.5,0.2236,0.5,0.5
		S22.7266,2.0088,22.4502,2.0088z"/>
	<path d="M22.4502,23.0098H1.5503c-0.2764,0-0.5-0.2236-0.5-0.5s0.2236-0.5,0.5-0.5h20.8999c0.2764,0,0.5,0.2236,0.5,0.5
		S22.7266,23.0098,22.4502,23.0098z"/>
	<path d="M15.8779,17.001H2.1343c-0.5801,0-1.1284-0.5195-1.1284-1.0693V5.0703c0-0.5498,0.5483-1.0693,1.1284-1.0693h13.7437
		c0.5801,0,1.1279,0.5195,1.1279,1.0693v10.8613C17.0059,16.4814,16.458,17.001,15.8779,17.001z M15.876,5.001H2.1343
		C2.0967,5.0049,2.0171,5.064,2.0015,5.1016l0.0044,10.8301c0.0112,0.0059,0.0908,0.0654,0.1309,0.0693H15.876
		c0.041-0.0049,0.1191-0.0635,0.1338-0.1006L16.0059,5.0703C15.9951,5.0635,15.916,5.0049,15.876,5.001z"/>
	<path d="M5.1553,10.2324c-1.0503,0-1.9048-0.8545-1.9048-1.9043c0-1.0503,0.8545-1.9048,1.9048-1.9048s1.9048,0.8545,1.9048,1.9048
		C7.0601,9.3779,6.2056,10.2324,5.1553,10.2324z M5.1553,7.4233c-0.499,0-0.9048,0.4058-0.9048,0.9048
		c0,0.4985,0.4058,0.9043,0.9048,0.9043s0.9048-0.4058,0.9048-0.9043C6.0601,7.8291,5.6543,7.4233,5.1553,7.4233z"/>
	<path d="M5.2979,17.001c-0.0869,0-0.1743-0.0225-0.2544-0.0703c-0.2378-0.1406-0.3159-0.4473-0.1753-0.6846L8.5957,9.958
		C8.6812,9.814,8.833,9.7222,9,9.7134C9.1797,9.707,9.3281,9.7812,9.4277,9.915l1.3838,1.8677l1.9463-3.061
		c0.0889-0.1406,0.2432-0.2275,0.4092-0.2319c0.1602,0.0024,0.3242,0.0752,0.4209,0.2109l3.3262,4.6948
		c0.1592,0.2256,0.1064,0.5371-0.1191,0.6973c-0.2246,0.1572-0.5371,0.1074-0.6973-0.1191l-2.8955-4.0874l-1.9375,3.0474
		c-0.0884,0.1387-0.2393,0.2256-0.4038,0.2314c-0.1768-0.0059-0.3218-0.0703-0.4199-0.2021l-1.3687-1.8477l-3.3438,5.6406
		C5.6353,16.9131,5.4688,17.001,5.2979,17.001z"/>
</g>
<rect y="0.0011" fill="none" width="24" height="24"/>
</svg>
