<?xml version="1.0" encoding="utf-8"?>
<!-- Generator: Adobe Illustrator 18.1.0, SVG Export Plug-In . SVG Version: 6.00 Build 0)  -->
<svg version="1.1" id="Layer_1" xmlns="http://www.w3.org/2000/svg" xmlns:xlink="http://www.w3.org/1999/xlink" x="0px" y="0px"
	 width="24px" height="24px" viewBox="0 0 24 24" enable-background="new 0 0 24 24" xml:space="preserve">
<g>
	<path d="M23.5049,24.001h-23c-0.2764,0-0.5-0.2236-0.5-0.5v-23c0-0.2764,0.2236-0.5,0.5-0.5h23c0.2764,0,0.5,0.2236,0.5,0.5v23
		C24.0049,23.7773,23.7812,24.001,23.5049,24.001z M1.0049,23.001h22v-22h-22V23.001z"/>
	<path d="M9.6411,17.0273c-0.1353,0-0.2642-0.0547-0.3584-0.1514l-4.1465-4.2637c-0.1924-0.1982-0.188-0.5146,0.0098-0.707
		c0.1978-0.1929,0.5142-0.187,0.707,0.0098l3.7881,3.8955l8.5698-8.8125c0.1934-0.1978,0.5098-0.2021,0.707-0.0098
		c0.1982,0.1924,0.2021,0.5088,0.0098,0.707L9.9995,16.876C9.9053,16.9727,9.7764,17.0273,9.6411,17.0273z"/>
</g>
<rect y="0.001" fill="none" width="24" height="24"/>
</svg>
