<?xml version="1.0" encoding="utf-8"?>
<!-- Generator: Adobe Illustrator 18.1.0, SVG Export Plug-In . SVG Version: 6.00 Build 0)  -->
<svg version="1.1" id="Layer_1" xmlns="http://www.w3.org/2000/svg" xmlns:xlink="http://www.w3.org/1999/xlink" x="0px" y="0px"
	 width="24px" height="24px" viewBox="0 0 24 24" enable-background="new 0 0 24 24" xml:space="preserve">
<g>
	<path d="M16.6035,22.0352H7.4307c-3.6562,0-6.4136-2.8213-6.4136-6.5635v-0.9365c0-0.2764,0.2236-0.5,0.5-0.5s0.5,0.2236,0.5,0.5
		v0.9365c0,3.1719,2.3271,5.5635,5.4136,5.5635h9.1729c3.0869,0,5.4141-2.3916,5.4141-5.5635v-0.9365c0-0.2764,0.2236-0.5,0.5-0.5
		s0.5,0.2236,0.5,0.5v0.9365C23.0176,19.2139,20.2598,22.0352,16.6035,22.0352z"/>
	<path d="M5.5054,23.8525c-0.063,0-0.127-0.0117-0.189-0.0371c-0.2559-0.1045-0.3784-0.3965-0.2739-0.6523l0.7852-1.9219
		c0.1045-0.2549,0.3975-0.3789,0.6519-0.2734c0.2559,0.1045,0.3784,0.3965,0.2739,0.6523L5.9683,23.542
		C5.8892,23.7354,5.7021,23.8525,5.5054,23.8525z"/>
	<path d="M18.582,23.8525c-0.1973,0-0.3838-0.1172-0.4629-0.3105l-0.7852-1.9219c-0.1045-0.2559,0.0186-0.5479,0.2734-0.6523
		c0.2568-0.1045,0.5479,0.0186,0.6523,0.2734l0.7852,1.9219c0.1045,0.2559-0.0186,0.5479-0.2734,0.6523
		C18.709,23.8408,18.6455,23.8525,18.582,23.8525z"/>
	<path d="M23.3652,15.0352h-3.8477c-0.2764,0-0.5-0.2236-0.5-0.5s0.2236-0.5,0.5-0.5h3.8477c0.2764,0,0.5,0.2236,0.5,0.5
		S23.6416,15.0352,23.3652,15.0352z"/>
	<path d="M15.5176,15.0352H0.5684c-0.2764,0-0.5-0.2236-0.5-0.5s0.2236-0.5,0.5-0.5h14.9492c0.2764,0,0.5,0.2236,0.5,0.5
		S15.7939,15.0352,15.5176,15.0352z"/>
	<path d="M19.5176,19.0352h-4c-0.2764,0-0.5-0.2236-0.5-0.5v-5c0-0.2764,0.2236-0.5,0.5-0.5h4c0.2764,0,0.5,0.2236,0.5,0.5v5
		C20.0176,18.8115,19.7939,19.0352,19.5176,19.0352z M16.0176,18.0352h3v-4h-3V18.0352z"/>
	<path d="M19.5176,17.0352h-4c-0.2764,0-0.5-0.2236-0.5-0.5s0.2236-0.5,0.5-0.5h4c0.2764,0,0.5,0.2236,0.5,0.5
		S19.7939,17.0352,19.5176,17.0352z"/>
	<path d="M5.0342,8.8076c-0.9756,0-1.769-0.7949-1.769-1.7715s0.7935-1.771,1.769-1.771c0.9785,0,1.7749,0.7944,1.7749,1.771
		S6.0127,8.8076,5.0342,8.8076z M5.0342,6.2651c-0.4238,0-0.769,0.3457-0.769,0.771s0.3452,0.7715,0.769,0.7715
		c0.4272,0,0.7749-0.3462,0.7749-0.7715S5.4614,6.2651,5.0342,6.2651z"/>
	<path d="M10.4849,12.7773c-1.2529,0-2.2725-1.0215-2.2725-2.2769c0-1.2549,1.0195-2.2754,2.2725-2.2754
		c1.2578,0,2.2808,1.0205,2.2808,2.2754C12.7656,11.7559,11.7427,12.7773,10.4849,12.7773z M10.4849,9.2251
		c-0.7017,0-1.2725,0.5723-1.2725,1.2754c0,0.7041,0.5708,1.2769,1.2725,1.2769c0.7061,0,1.2808-0.5728,1.2808-1.2769
		C11.7656,9.7974,11.1909,9.2251,10.4849,9.2251z"/>
	<path d="M8.0444,3.6484c-0.8838,0-1.6025-0.7188-1.6025-1.6025c0-0.8823,0.7188-1.6006,1.6025-1.6006
		c0.8818,0,1.5996,0.7183,1.5996,1.6006C9.644,2.9297,8.9263,3.6484,8.0444,3.6484z M8.0444,1.4453
		c-0.332,0-0.6025,0.2695-0.6025,0.6006c0,0.332,0.2705,0.6025,0.6025,0.6025c0.3306,0,0.5996-0.2705,0.5996-0.6025
		C8.644,1.7148,8.375,1.4453,8.0444,1.4453z"/>
</g>
<rect x="0.0142" y="0.0354" fill="none" width="24" height="24"/>
</svg>
