<?xml version="1.0" encoding="utf-8"?>
<!-- Generator: Adobe Illustrator 18.1.0, SVG Export Plug-In . SVG Version: 6.00 Build 0)  -->
<svg version="1.1" id="Layer_1" xmlns="http://www.w3.org/2000/svg" xmlns:xlink="http://www.w3.org/1999/xlink" x="0px" y="0px"
	 width="24px" height="24px" viewBox="0 0 24 24" enable-background="new 0 0 24 24" xml:space="preserve">
<g>
	<path d="M13.5264,23.9014c-0.2764,0-0.5-0.2236-0.5-0.5v-2.8525c0-0.2764,0.2236-0.5,0.5-0.5s0.5,0.2236,0.5,0.5v2.8525
		C14.0264,23.6777,13.8027,23.9014,13.5264,23.9014z"/>
	<path d="M10.4956,23.9014c-0.2764,0-0.5-0.2236-0.5-0.5v-2.8525c0-0.2764,0.2236-0.5,0.5-0.5s0.5,0.2236,0.5,0.5v2.8525
		C10.9956,23.6777,10.772,23.9014,10.4956,23.9014z"/>
	<path d="M14.3486,21.0059H9.5088c-1.2188,0-2.2104-0.9922-2.2104-2.2109l-0.0669-2.7646c-2.2817-0.6133-3.7383-1.958-3.7383-3.4795
		c0-0.2764,0.2236-0.5,0.5-0.5h3.0786L6.9927,9.9736c-2.3296-0.6016-3.8218-1.9604-3.8218-3.501c0-0.2764,0.2236-0.5,0.5-0.5h3.1519
		L6.728,3.9214C4.5542,3.2871,3.1709,1.9668,3.1709,0.4941c0-0.2764,0.2236-0.5,0.5-0.5h16.6289c0.2764,0,0.5,0.2236,0.5,0.5
		c0,1.5063-1.4277,2.8403-3.6709,3.4614l-0.0938,2.0171h3.2646c0.2764,0,0.5,0.2236,0.5,0.5c0,1.5752-1.5342,2.9399-3.9355,3.5269
		l-0.0781,2.0513h3.1914c0.2764,0,0.5,0.2236,0.5,0.5c0,1.5576-1.499,2.9092-3.8525,3.5068l-0.0654,2.749
		C16.5596,20.0137,15.5674,21.0059,14.3486,21.0059z M4.585,13.0508c0.3306,0.8965,1.5249,1.6973,3.1777,2.082
		c0.0762,0.0186,0.147,0.0537,0.207,0.1035c0.1108,0.0918,0.25,0.2891,0.2534,0.4336l0.0752,3.1133
		c0,0.6797,0.543,1.2227,1.2104,1.2227h4.8398c0.668,0,1.2109-0.543,1.2109-1.2109l0.0752-3.1436
		c0.0039-0.1406,0.0654-0.2725,0.1709-0.3643c0.0645-0.0566,0.1494-0.1025,0.2334-0.1201c1.749-0.3701,3.0098-1.1855,3.3477-2.1162
		h-3.1201c-0.1357,0-0.2656-0.0557-0.3604-0.1533c-0.0938-0.0977-0.1445-0.2295-0.1396-0.3652l0.1104-2.8999
		c0.0059-0.1411,0.0703-0.2734,0.1787-0.3643l0.0879-0.0737c0.0625-0.0522,0.1377-0.0889,0.2178-0.106
		c1.749-0.3701,3.0098-1.1855,3.3477-2.1157h-3.1973c-0.1367,0-0.2676-0.0557-0.3613-0.1548
		c-0.0947-0.0986-0.1445-0.2319-0.1377-0.3682l0.1348-2.9102c0.0098-0.2236,0.168-0.4131,0.3857-0.4639
		c1.6514-0.3853,2.8447-1.1855,3.1748-2.0815H4.2642c0.3252,0.8726,1.4761,1.6611,3.0664,2.0542
		C7.5454,3.1016,7.6997,3.2896,7.71,3.5107l0.1357,2.939C7.8521,6.5859,7.8022,6.7192,7.708,6.8179
		C7.6133,6.917,7.4829,6.9727,7.3462,6.9727H4.2627c0.3301,0.8965,1.5249,1.6968,3.1777,2.0815
		c0.0767,0.0176,0.1479,0.0532,0.208,0.1035l0.1543,0.1294C7.9111,9.3779,7.9756,9.5103,7.981,9.6514l0.1099,2.8799
		c0.0054,0.1367-0.0449,0.2686-0.1392,0.3662s-0.2246,0.1533-0.3604,0.1533H4.585z"/>
	<path d="M11.9287,6.9453c-1.4004,0-2.5396-1.1104-2.5396-2.4746s1.1392-2.4746,2.5396-2.4746s2.54,1.1104,2.54,2.4746
		S13.3291,6.9453,11.9287,6.9453z M11.9287,2.9961c-0.8491,0-1.5396,0.6616-1.5396,1.4746s0.6904,1.4746,1.5396,1.4746
		c0.8496,0,1.54-0.6616,1.54-1.4746S12.7783,2.9961,11.9287,2.9961z"/>
	<path d="M11.9287,12.9463c-1.4004,0-2.5396-1.1104-2.5396-2.4746s1.1392-2.4746,2.5396-2.4746s2.54,1.1104,2.54,2.4746
		S13.3291,12.9463,11.9287,12.9463z M11.9287,8.9971c-0.8491,0-1.5396,0.6616-1.5396,1.4746s0.6904,1.4746,1.5396,1.4746
		c0.8496,0,1.54-0.6616,1.54-1.4746S12.7783,8.9971,11.9287,8.9971z"/>
	<path d="M11.9287,18.9463c-1.4004,0-2.5396-1.1104-2.5396-2.4746s1.1392-2.4746,2.5396-2.4746s2.54,1.1104,2.54,2.4746
		S13.3291,18.9463,11.9287,18.9463z M11.9287,14.9971c-0.8491,0-1.5396,0.6611-1.5396,1.4746s0.6904,1.4746,1.5396,1.4746
		c0.8496,0,1.54-0.6611,1.54-1.4746S12.7783,14.9971,11.9287,14.9971z"/>
</g>
<rect x="-0.0136" y="0.0002" fill="none" width="24" height="24"/>
</svg>
