<?xml version="1.0" encoding="utf-8"?>
<!-- Generator: Adobe Illustrator 18.1.0, SVG Export Plug-In . SVG Version: 6.00 Build 0)  -->
<svg version="1.1" id="Layer_1" xmlns="http://www.w3.org/2000/svg" xmlns:xlink="http://www.w3.org/1999/xlink" x="0px" y="0px"
	 width="24px" height="24px" viewBox="0 0 24 24" enable-background="new 0 0 24 24" xml:space="preserve">
<g>
	<path d="M7.5044,14h-4c-0.2764,0-0.5-0.2236-0.5-0.5v-4c0-0.2764,0.2236-0.5,0.5-0.5h4c0.2764,0,0.5,0.2236,0.5,0.5v4
		C8.0044,13.7764,7.7808,14,7.5044,14z M4.0044,13h3v-3h-3V13z"/>
	<path d="M7.5044,7.9995h-4c-0.2764,0-0.5-0.2236-0.5-0.5v-4c0-0.2764,0.2236-0.5,0.5-0.5h4c0.2764,0,0.5,0.2236,0.5,0.5v4
		C8.0044,7.7759,7.7808,7.9995,7.5044,7.9995z M4.0044,6.9995h3v-3h-3V6.9995z"/>
	<path d="M13.5049,14h-4c-0.2764,0-0.5-0.2236-0.5-0.5v-4c0-0.2764,0.2236-0.5,0.5-0.5h4c0.2764,0,0.5,0.2236,0.5,0.5v4
		C14.0049,13.7764,13.7812,14,13.5049,14z M10.0049,13h3v-3h-3V13z"/>
	<path d="M13.5049,7.9995h-4c-0.2764,0-0.5-0.2236-0.5-0.5v-4c0-0.2764,0.2236-0.5,0.5-0.5h4c0.2764,0,0.5,0.2236,0.5,0.5v4
		C14.0049,7.7759,13.7812,7.9995,13.5049,7.9995z M10.0049,6.9995h3v-3h-3V6.9995z"/>
	<path d="M19.5049,14h-4c-0.2764,0-0.5-0.2236-0.5-0.5v-4c0-0.2764,0.2236-0.5,0.5-0.5h4c0.2764,0,0.5,0.2236,0.5,0.5v4
		C20.0049,13.7764,19.7812,14,19.5049,14z M16.0049,13h3v-3h-3V13z"/>
	<path d="M19.5049,7.9995h-4c-0.2764,0-0.5-0.2236-0.5-0.5v-4c0-0.2764,0.2236-0.5,0.5-0.5h4c0.2764,0,0.5,0.2236,0.5,0.5v4
		C20.0049,7.7759,19.7812,7.9995,19.5049,7.9995z M16.0049,6.9995h3v-3h-3V6.9995z"/>
	<path d="M16.3105,24h-8.605c-0.5088,0-0.9385-0.4092-0.9385-0.8936c0-0.0791,0.019-0.1582,0.0552-0.2285l0.1963-0.3955
		C7.5586,21.377,8.2305,20,10.186,20h3.6431c2,0,2.6523,1.3945,3.1758,2.5156l0.1924,0.4033
		c0.0342,0.0693,0.0518,0.1445,0.0518,0.2217C17.249,23.6143,16.8281,24,16.3105,24z M7.8779,23h8.25
		c-0.0098-0.0205-0.0195-0.041-0.0283-0.0615C15.6133,21.8984,15.1934,21,13.8291,21H10.186c-1.3311,0-1.7656,0.8906-2.269,1.9209
		L7.8779,23z"/>
	<path d="M21.9033,17H2.1118c-1.2183,0-2.1025-0.8525-2.1025-2.0273V2.1831C0.0093,0.9795,0.9526,0,2.1118,0h19.7915
		c1.1611,0,2.1055,0.9795,2.1055,2.1831v12.7896C24.0088,16.1475,23.123,17,21.9033,17z M2.1118,1
		C1.5039,1,1.0093,1.5308,1.0093,2.1831v12.7896C1.0093,15.5869,1.4521,16,2.1118,16h19.7915c0.6611,0,1.1055-0.4131,1.1055-1.0273
		V2.1831C23.0088,1.5308,22.5127,1,21.9033,1H2.1118z"/>
	<path d="M12.0088,21c-0.2764,0-0.5-0.2236-0.5-0.5v-2c0-0.2764,0.2236-0.5,0.5-0.5s0.5,0.2236,0.5,0.5v2
		C12.5088,20.7764,12.2852,21,12.0088,21z"/>
</g>
<rect fill="none" width="24" height="24"/>
</svg>
