<?xml version="1.0" encoding="utf-8"?>
<!-- Generator: Adobe Illustrator 18.1.0, SVG Export Plug-In . SVG Version: 6.00 Build 0)  -->
<svg version="1.1" id="Layer_1" xmlns="http://www.w3.org/2000/svg" xmlns:xlink="http://www.w3.org/1999/xlink" x="0px" y="0px"
	 width="24px" height="24px" viewBox="0 0 24 24" enable-background="new 0 0 24 24" xml:space="preserve">
<g>
	<path d="M19.292,21.959H4.7041c-1.104,0-2.1436-0.5781-2.7134-1.5098c-1.1685-1.9111-1.7861-4.1162-1.7861-6.3779
		C0.2051,7.1704,5.8979,1.6118,12.752,2.0435c5.7686,0.3672,10.4951,5.0767,10.9932,10.9546
		c0.2246,2.6484-0.3779,5.2275-1.7432,7.4561C21.4336,21.3828,20.3945,21.959,19.292,21.959z M11.9971,3.0195
		c-5.9507,0-10.7925,4.9575-10.7925,11.0518c0,2.0771,0.5669,4.1025,1.6396,5.8564c0.3887,0.6357,1.1016,1.0312,1.8599,1.0312
		H19.292c0.7578,0,1.4688-0.3936,1.8564-1.0264c1.2539-2.0469,1.8066-4.415,1.6006-6.8506
		c-0.457-5.3882-4.7822-9.7046-10.0615-10.0405C12.4561,3.0269,12.2266,3.0195,11.9971,3.0195z"/>
	<path d="M20.8594,14.9385h-0.874c-0.2764,0-0.5-0.2236-0.5-0.5s0.2236-0.5,0.5-0.5h0.874c0.2764,0,0.5,0.2236,0.5,0.5
		S21.1357,14.9385,20.8594,14.9385z"/>
	<path d="M17.8291,8.9766c-0.126,0-0.252-0.0474-0.3496-0.1426c-0.1973-0.1929-0.2012-0.5098-0.0078-0.707l0.6582-0.6729
		c0.1934-0.1963,0.5088-0.2007,0.707-0.0078c0.1973,0.1929,0.2012,0.5098,0.0078,0.707l-0.6582,0.6729
		C18.0889,8.9263,17.959,8.9766,17.8291,8.9766z"/>
	<path d="M12.0137,6.3115c-0.2764,0-0.5-0.2236-0.5-0.5V4.9551c0-0.2764,0.2236-0.5,0.5-0.5s0.5,0.2236,0.5,0.5v0.8564
		C12.5137,6.0879,12.29,6.3115,12.0137,6.3115z"/>
	<path d="M6.0205,8.9766c-0.1299,0-0.2598-0.0503-0.3574-0.1504L5.0156,8.1641C4.8223,7.9668,4.8262,7.6499,5.0234,7.457
		c0.1978-0.1929,0.5146-0.1895,0.707,0.0078L6.3779,8.127c0.1934,0.1973,0.1895,0.5142-0.0078,0.707
		C6.2729,8.9292,6.1465,8.9766,6.0205,8.9766z"/>
	<path d="M4.0654,14.9395H3.1543c-0.2764,0-0.5-0.2236-0.5-0.5s0.2236-0.5,0.5-0.5h0.9111c0.2764,0,0.5,0.2236,0.5,0.5
		S4.3418,14.9395,4.0654,14.9395z"/>
	<path d="M12.0137,18.958c-0.5728,0-1.1104-0.2275-1.5142-0.6406c-0.8262-0.8447-0.8262-2.2207,0-3.0654
		c0.8076-0.8262,2.2212-0.8262,3.0278,0c0.8271,0.8447,0.8271,2.2207,0,3.0654C13.124,18.7305,12.5859,18.958,12.0137,18.958z
		 M12.0137,15.6113c-0.3013,0-0.585,0.1211-0.7993,0.3398c-0.4492,0.46-0.4492,1.207,0,1.667c0.4287,0.4365,1.1694,0.4375,1.5981,0
		c0.4502-0.46,0.4502-1.207,0-1.667C12.5986,15.7324,12.3145,15.6113,12.0137,15.6113z"/>
	<path d="M13.1699,16.1016c-0.126,0-0.252-0.0479-0.3496-0.1426c-0.1973-0.1934-0.2012-0.5098-0.0078-0.707l4.5869-4.6914
		c0.1934-0.1968,0.5098-0.2002,0.707-0.0078c0.1973,0.1929,0.2012,0.5098,0.0078,0.707l-4.5869,4.6914
		C13.4297,16.0518,13.2998,16.1016,13.1699,16.1016z"/>
</g>
<rect x="-0.0106" y="0.0002" fill="none" width="24" height="24"/>
</svg>
