<?xml version="1.0" encoding="utf-8"?>
<!-- Generator: Adobe Illustrator 18.1.0, SVG Export Plug-In . SVG Version: 6.00 Build 0)  -->
<svg version="1.1" id="Layer_1" xmlns="http://www.w3.org/2000/svg" xmlns:xlink="http://www.w3.org/1999/xlink" x="0px" y="0px"
	 width="24px" height="24px" viewBox="0 0 24 24" enable-background="new 0 0 24 24" xml:space="preserve">
<g>
	<g>
		<g>
			<path d="M18.3633,12.5664h-1c-0.2764,0-0.5-0.2236-0.5-0.5s0.2236-0.5,0.5-0.5h1c0.2764,0,0.5,0.2236,0.5,0.5
				S18.6396,12.5664,18.3633,12.5664z"/>
			<path d="M14.6523,12.5664h-1.8076c-0.2764,0-0.5-0.2236-0.5-0.5s0.2236-0.5,0.5-0.5h1.8076c0.2764,0,0.5,0.2236,0.5,0.5
				S14.9287,12.5664,14.6523,12.5664z M10.1343,12.5664H8.3271c-0.2764,0-0.5-0.2236-0.5-0.5s0.2236-0.5,0.5-0.5h1.8071
				c0.2764,0,0.5,0.2236,0.5,0.5S10.4106,12.5664,10.1343,12.5664z M5.6162,12.5664H3.8091c-0.2764,0-0.5-0.2236-0.5-0.5
				s0.2236-0.5,0.5-0.5h1.8071c0.2764,0,0.5,0.2236,0.5,0.5S5.8926,12.5664,5.6162,12.5664z"/>
			<path d="M1.0981,12.5664h-1c-0.2764,0-0.5-0.2236-0.5-0.5s0.2236-0.5,0.5-0.5h1c0.2764,0,0.5,0.2236,0.5,0.5
				S1.3745,12.5664,1.0981,12.5664z"/>
		</g>
	</g>
	<path d="M17.3535,8c-0.0039,0.001-0.0117,0.0005-0.0195,0H1.5293c-0.2764,0-0.5-0.2236-0.5-0.5V0.4922
		c0-0.1689,0.0854-0.3267,0.2275-0.4189c0.1416-0.0928,0.3198-0.1069,0.4751-0.0381l15.7388,6.9785
		c0.2197,0.0527,0.3828,0.2505,0.3828,0.4863C17.8535,7.7764,17.6299,8,17.3535,8z M2.0293,7h12.9434L2.0293,1.2607V7z"/>
	<path d="M1.5293,24.0078c-0.0952,0-0.1904-0.0273-0.2725-0.0811c-0.1421-0.0918-0.2275-0.25-0.2275-0.4189V16.5
		c0-0.2764,0.2236-0.5,0.5-0.5H17.334c0.2363,0,0.4404,0.165,0.4893,0.3965s-0.0703,0.4648-0.2861,0.5605L1.7319,23.9648
		C1.667,23.9932,1.5981,24.0078,1.5293,24.0078z M2.0293,17v5.7393L14.9727,17H2.0293z"/>
	<path d="M19.6201,16.0928c-0.2168,0-0.416-0.1416-0.4805-0.3604c-0.0771-0.2646,0.0752-0.542,0.3408-0.6201
		c1.5742-0.459,2.2793-1.8955,2.2793-3.1162c0-1.0771-0.541-2.3857-2.0596-2.8286c-0.2656-0.0771-0.418-0.355-0.3408-0.6201
		c0.0781-0.2646,0.3506-0.4185,0.6201-0.3398c1.6885,0.4922,2.7803,1.9795,2.7803,3.7886c0,1.5938-0.9277,3.4727-3,4.0771
		C19.7129,16.0859,19.666,16.0928,19.6201,16.0928z"/>
	<path d="M21.4199,16.5361c-0.0391,0-0.0791-0.0049-0.1191-0.0146l-1.7998-0.4434c-0.1289-0.0312-0.2402-0.1133-0.3086-0.2266
		s-0.0898-0.25-0.0576-0.3789l0.4434-1.7988c0.0654-0.2676,0.3291-0.4307,0.6055-0.3652c0.2676,0.0664,0.4316,0.3369,0.3652,0.6055
		l-0.3232,1.3125l1.3135,0.3242c0.2686,0.0654,0.4326,0.3369,0.3662,0.6045C21.8496,16.3838,21.6445,16.5361,21.4199,16.5361z"/>
</g>
<rect x="-0.9707" y="0.0001" fill="none" width="24" height="24"/>
</svg>
