<?xml version="1.0" encoding="utf-8"?>
<!-- Generator: Adobe Illustrator 18.1.0, SVG Export Plug-In . SVG Version: 6.00 Build 0)  -->
<svg version="1.1" id="Layer_1" xmlns="http://www.w3.org/2000/svg" xmlns:xlink="http://www.w3.org/1999/xlink" x="0px" y="0px"
	 width="24px" height="24px" viewBox="0 0 24 24" enable-background="new 0 0 24 24" xml:space="preserve">
<g>
	<path d="M20.4863,24.0078H3.5259c-0.2764,0-0.5-0.2236-0.5-0.5V7.5605c0-0.1201,0.0435-0.2363,0.1221-0.3271l3.3618-3.8818V0.603
		c0-0.2764,0.2236-0.5,0.5-0.5h10.1895c0.2764,0,0.5,0.2236,0.5,0.5v2.7617l3.1797,4.0371
		c0.0693,0.0884,0.1074,0.1973,0.1074,0.3096v15.7964C20.9863,23.7842,20.7627,24.0078,20.4863,24.0078z M4.0259,23.0078h15.9604
		V7.8848l-3.1797-4.0371c-0.0693-0.0884-0.1074-0.1973-0.1074-0.3096V1.103H7.5098v2.4351c0,0.1201-0.0435,0.2363-0.1221,0.3271
		L4.0259,7.7471V23.0078z"/>
	<path d="M17.1992,4.0381H7.0098c-0.2764,0-0.5-0.2236-0.5-0.5s0.2236-0.5,0.5-0.5h10.1895c0.2764,0,0.5,0.2236,0.5,0.5
		S17.4756,4.0381,17.1992,4.0381z"/>
	<path d="M14.1924,24.0078c-0.2764,0-0.5-0.2236-0.5-0.5V7.8232c0-0.1025,0.0312-0.2031,0.0908-0.2871L16.79,3.251
		c0.1592-0.2266,0.4727-0.2808,0.6963-0.1221c0.2266,0.1587,0.2812,0.4702,0.1221,0.6963l-2.916,4.1558v15.5269
		C14.6924,23.7842,14.4688,24.0078,14.1924,24.0078z"/>
	<path d="M11.0781,8.0605H3.5259c-0.2764,0-0.5-0.2236-0.5-0.5s0.2236-0.5,0.5-0.5h7.5522c0.2764,0,0.5,0.2236,0.5,0.5
		S11.3545,8.0605,11.0781,8.0605z"/>
</g>
<rect x="0.0142" y="0.0346" fill="none" width="24" height="24"/>
</svg>
