<?xml version="1.0" encoding="utf-8"?>
<!-- Generator: Adobe Illustrator 18.1.1, SVG Export Plug-In . SVG Version: 6.00 Build 0)  -->
<svg version="1.1" id="Layer_1" xmlns="http://www.w3.org/2000/svg" xmlns:xlink="http://www.w3.org/1999/xlink" x="0px" y="0px"
	 width="24px" height="24px" viewBox="0 0 24 24" enable-background="new 0 0 24 24" xml:space="preserve">
<g>
	<path d="M22.4756,5.9966H1.5181c-0.2764,0-0.5-0.2236-0.5-0.5s0.2236-0.5,0.5-0.5h20.9575c0.2764,0,0.5,0.2236,0.5,0.5
		S22.752,5.9966,22.4756,5.9966z"/>
	<path d="M22.4756,12.998H1.5181c-0.2764,0-0.5-0.2236-0.5-0.5s0.2236-0.5,0.5-0.5h20.9575c0.2764,0,0.5,0.2236,0.5,0.5
		S22.752,12.998,22.4756,12.998z"/>
	<path d="M22.4756,20H1.5181c-0.2764,0-0.5-0.2236-0.5-0.5s0.2236-0.5,0.5-0.5h20.9575c0.2764,0,0.5,0.2236,0.5,0.5
		S22.752,20,22.4756,20z"/>
</g>
<rect fill="none" width="24" height="24"/>
</svg>
