<?xml version="1.0" encoding="utf-8"?>
<!-- Generator: Adobe Illustrator 18.1.0, SVG Export Plug-In . SVG Version: 6.00 Build 0)  -->
<svg version="1.1" id="Layer_1" xmlns="http://www.w3.org/2000/svg" xmlns:xlink="http://www.w3.org/1999/xlink" x="0px" y="0px"
	 width="24px" height="24px" viewBox="0 0 24 24" enable-background="new 0 0 24 24" xml:space="preserve">
<g>
	<path d="M23.4072,23.9453H0.4365c-0.2764,0-0.5-0.2236-0.5-0.5V5.4497c0-0.2764,0.2236-0.5,0.5-0.5s0.5,0.2236,0.5,0.5v17.4956
		h21.9707V5.4497c0-0.2764,0.2236-0.5,0.5-0.5s0.5,0.2236,0.5,0.5v17.9956C23.9072,23.7217,23.6836,23.9453,23.4072,23.9453z"/>
	<path d="M23.4072,5.8701h-9.8389c-0.2764,0-0.5-0.2236-0.5-0.5s0.2236-0.5,0.5-0.5h9.0869l-1.6357-3.9004H2.8252L1.1885,4.8701
		h9.2012c0.2764,0,0.5,0.2236,0.5,0.5s-0.2236,0.5-0.5,0.5H0.4365c-0.1675,0-0.3237-0.084-0.4165-0.2231
		c-0.0928-0.1396-0.1094-0.3159-0.0444-0.4702l2.0562-4.9004c0.0776-0.186,0.2598-0.3066,0.4609-0.3066h18.8589
		c0.2012,0,0.3828,0.1211,0.4609,0.3066l2.0557,4.9004c0.0645,0.1543,0.0479,0.3311-0.0449,0.4702S23.5742,5.8701,23.4072,5.8701z"
		/>
	<path d="M9.5122,19.0391c-0.2764,0-0.5-0.2236-0.5-0.5v-6.2568c0-0.2764,0.2236-0.5,0.5-0.5s0.5,0.2236,0.5,0.5v6.2568
		C10.0122,18.8154,9.7886,19.0391,9.5122,19.0391z"/>
	<path d="M11.2061,14.4014c-0.1245,0-0.2485-0.0459-0.3457-0.1387l-1.3481-1.2891l-1.3481,1.2891
		c-0.2002,0.1914-0.5166,0.1836-0.707-0.0156c-0.1909-0.2002-0.1836-0.5166,0.0156-0.707l1.6938-1.6191
		c0.1934-0.1846,0.498-0.1846,0.6914,0l1.6938,1.6191c0.1992,0.1904,0.2065,0.5068,0.0156,0.707
		C11.4692,14.3496,11.3379,14.4014,11.2061,14.4014z"/>
	<path d="M14.4453,19.0391c-0.2764,0-0.5-0.2236-0.5-0.5v-6.2568c0-0.2764,0.2236-0.5,0.5-0.5s0.5,0.2236,0.5,0.5v6.2568
		C14.9453,18.8154,14.7217,19.0391,14.4453,19.0391z"/>
	<path d="M12.751,14.4014c-0.1318,0-0.2637-0.0518-0.3613-0.1543c-0.1914-0.2002-0.1836-0.5166,0.0156-0.707l1.6943-1.6191
		c0.1934-0.1846,0.498-0.1846,0.6914,0l1.6934,1.6191c0.1992,0.1904,0.2061,0.5068,0.0156,0.707
		c-0.1914,0.1992-0.5078,0.207-0.707,0.0156l-1.3477-1.2891l-1.3486,1.2891C13,14.3555,12.875,14.4014,12.751,14.4014z"/>
	<path d="M13.5684,10.1113h-3.1787c-0.2764,0-0.5-0.2236-0.5-0.5V5.6621l0.5952-5.249c0.0288-0.2524,0.2422-0.4434,0.4966-0.4434
		h1.9951c0.2539,0,0.4678,0.1909,0.4971,0.4434l0.5918,5.1924l0.0029,4.0059C14.0684,9.8877,13.8447,10.1113,13.5684,10.1113z
		 M10.8892,9.1113h2.1792V5.6621l-0.5381-4.6924h-1.1025l-0.5415,4.749L10.8892,9.1113z"/>
	<path d="M15.9424,20.9385H8.0146c-0.2764,0-0.5-0.2236-0.5-0.5s0.2236-0.5,0.5-0.5h7.9277c0.2764,0,0.5,0.2236,0.5,0.5
		S16.2188,20.9385,15.9424,20.9385z"/>
</g>
<rect x="-0.0137" fill="none" width="24" height="24"/>
</svg>
