<?xml version="1.0" encoding="utf-8"?>
<!-- Generator: Adobe Illustrator 18.1.0, SVG Export Plug-In . SVG Version: 6.00 Build 0)  -->
<svg version="1.1" id="Layer_1" xmlns="http://www.w3.org/2000/svg" xmlns:xlink="http://www.w3.org/1999/xlink" x="0px" y="0px"
	 width="24px" height="24px" viewBox="0 0 24 24" enable-background="new 0 0 24 24" xml:space="preserve">
<g>
	<path d="M19.0195,22.9619c-2.1836,0-3.9609-1.7773-3.9609-3.9609s1.7773-3.9609,3.9609-3.9609s3.9609,1.7773,3.9609,3.9609
		S21.2031,22.9619,19.0195,22.9619z M19.0195,16.04c-1.6328,0-2.9609,1.3281-2.9609,2.9609s1.3281,2.9609,2.9609,2.9609
		s2.9609-1.3281,2.9609-2.9609S20.6523,16.04,19.0195,16.04z"/>
	<path d="M15.5586,19.501c-0.2764,0-0.5-0.2236-0.5-0.5s0.2236-0.5,0.5-0.5c1.6328,0,2.9609-1.3281,2.9609-2.9609
		c0-0.2764,0.2236-0.5,0.5-0.5s0.5,0.2236,0.5,0.5C19.5195,17.7236,17.7422,19.501,15.5586,19.501z"/>
	<path d="M19.0195,22.9619c-0.2764,0-0.5-0.2236-0.5-0.5c0-2.1836,1.7773-3.9609,3.9609-3.9609c0.2764,0,0.5,0.2236,0.5,0.5
		s-0.2236,0.5-0.5,0.5c-1.6328,0-2.9609,1.3281-2.9609,2.9609C19.5195,22.7383,19.2959,22.9619,19.0195,22.9619z"/>
	<path d="M3.9321,22.0576c-0.1284,0-0.2563-0.0488-0.3535-0.1465L2.0859,20.418c-0.186-0.1865-0.1963-0.4844-0.0229-0.6826
		L18.1748,1.3232c1.166-1.3335,3.4004-1.4077,4.6543-0.1548c0.6211,0.6211,0.9609,1.4814,0.9316,2.3594
		c-0.0293,0.8789-0.4248,1.7153-1.0869,2.2944L4.2612,21.9336C4.167,22.0166,4.0493,22.0576,3.9321,22.0576z M3.1235,20.042
		l0.8315,0.8311L22.0156,5.0698c0.4609-0.4033,0.7256-0.9629,0.7461-1.5747s-0.207-1.187-0.6396-1.6196
		c-0.8604-0.8604-2.3945-0.8076-3.1953,0.106L3.1235,20.042z"/>
	<path d="M2.9331,23.793c-0.4326,0-0.8394-0.1689-1.145-0.4746l-1.0552-1.0547c-0.6318-0.6318-0.6318-1.6592,0-2.291
		c0.6426-0.6426,1.6943-0.627,2.3057-0.0156l1.0557,1.0557c0.3057,0.3057,0.4741,0.7119,0.4741,1.1445s-0.1685,0.8389-0.4741,1.1455
		C3.7725,23.624,3.3657,23.793,2.9331,23.793z M1.8936,20.4824c-0.1655,0-0.3208,0.0645-0.438,0.1816
		c-0.2573,0.2578-0.2573,0.6504-0.0156,0.8926l1.0552,1.0547c0.2344,0.2344,0.6421,0.2344,0.8765,0
		c0.1323-0.1328,0.1968-0.2881,0.1968-0.4541c0-0.165-0.064-0.3203-0.1812-0.4375l-1.0557-1.0557
		C2.2144,20.5469,2.0591,20.4824,1.8936,20.4824z"/>
	<path d="M10.7275,16.1113c-0.1279,0-0.2559-0.0488-0.3535-0.1465L8.0322,13.623c-0.1953-0.1953-0.1953-0.5117,0-0.707
		s0.5117-0.1953,0.707,0l2.3418,2.3418c0.1953,0.1953,0.1953,0.5117,0,0.707C10.9834,16.0625,10.8555,16.1113,10.7275,16.1113z"/>
</g>
<rect x="-0.0061" fill="none" width="24" height="24"/>
</svg>
