<?xml version="1.0" encoding="utf-8"?>
<!-- Generator: Adobe Illustrator 18.1.0, SVG Export Plug-In . SVG Version: 6.00 Build 0)  -->
<svg version="1.1" id="Layer_1" xmlns="http://www.w3.org/2000/svg" xmlns:xlink="http://www.w3.org/1999/xlink" x="0px" y="0px"
	 width="24px" height="24px" viewBox="0 0 24 24" enable-background="new 0 0 24 24" xml:space="preserve">
<g>
	<path d="M14.5,4.0039h-14c-0.2764,0-0.5-0.2236-0.5-0.5v-3c0-0.2764,0.2236-0.5,0.5-0.5h14c0.2764,0,0.5,0.2236,0.5,0.5v3
		C15,3.7803,14.7764,4.0039,14.5,4.0039z M1,3.0039h13v-2H1V3.0039z"/>
	<path d="M23.501,24.0049H9.5005c-0.2764,0-0.5-0.2236-0.5-0.5v-3c0-0.2764,0.2236-0.5,0.5-0.5H23.501c0.2764,0,0.5,0.2236,0.5,0.5
		v3C24.001,23.7812,23.7773,24.0049,23.501,24.0049z M10.0005,23.0049H23.001v-2H10.0005V23.0049z"/>
	<path d="M23.501,16.0049H9.5005c-0.2764,0-0.5-0.2236-0.5-0.5v-3c0-0.2764,0.2236-0.5,0.5-0.5H23.501c0.2764,0,0.5,0.2236,0.5,0.5
		v3C24.001,15.7812,23.7773,16.0049,23.501,16.0049z M10.0005,15.0049H23.001v-2H10.0005V15.0049z"/>
	<path d="M16.5,13.0049c-0.2764,0-0.5-0.2236-0.5-0.5v-2.752c0-0.5146-0.4502-0.749-0.8682-0.749H9.2236
		C8.2227,9.0039,7,8.0962,7,7.0371V5.5044c0-0.2764,0.2236-0.5,0.5-0.5S8,5.228,8,5.5044v1.5327
		c0,0.4155,0.6978,0.9668,1.2236,0.9668h5.9082c1.0654,0,1.8682,0.752,1.8682,1.749v2.752C17,12.7812,16.7764,13.0049,16.5,13.0049z
		"/>
	<path d="M16.5,21.0049c-0.2764,0-0.5-0.2236-0.5-0.5v-3c0-0.2764,0.2236-0.5,0.5-0.5s0.5,0.2236,0.5,0.5v3
		C17,20.7812,16.7764,21.0049,16.5,21.0049z"/>
</g>
<rect y="0.001" fill="none" width="24" height="24"/>
</svg>
