<?xml version="1.0" encoding="utf-8"?>
<!-- Generator: Adobe Illustrator 18.1.0, SVG Export Plug-In . SVG Version: 6.00 Build 0)  -->
<svg version="1.1" id="Layer_1" xmlns="http://www.w3.org/2000/svg" xmlns:xlink="http://www.w3.org/1999/xlink" x="0px" y="0px"
	 width="24px" height="24px" viewBox="0 0 24 24" enable-background="new 0 0 24 24" xml:space="preserve">
<g>
	<path d="M16.8115,16.001H7.1343c-2.2983,0-4.168-1.7939-4.168-4c0-2.2056,1.8696-4,4.168-4h9.6772c2.2979,0,4.168,1.7944,4.168,4
		C20.9795,14.207,19.1094,16.001,16.8115,16.001z M7.1343,9.001c-1.7764,0-3.168,1.3179-3.168,3c0,1.6826,1.3916,3,3.168,3h9.6772
		c1.7764,0,3.168-1.3174,3.168-3c0-1.6821-1.3916-3-3.168-3H7.1343z"/>
	<path d="M23.4941,24.001h-23c-0.2764,0-0.5-0.2236-0.5-0.5v-23c0-0.2764,0.2236-0.5,0.5-0.5h23c0.2764,0,0.5,0.2236,0.5,0.5v23
		C23.9941,23.7773,23.7705,24.001,23.4941,24.001z M0.9941,23.001h22v-22h-22V23.001z"/>
	<path d="M6.9702,13.8525c-1.021,0-1.8521-0.8311-1.8521-1.8516c0-1.0215,0.8311-1.8525,1.8521-1.8525s1.8516,0.8311,1.8516,1.8525
		C8.8218,13.0215,7.9912,13.8525,6.9702,13.8525z M6.9702,11.1484c-0.4697,0-0.8521,0.3823-0.8521,0.8525
		c0,0.4697,0.3823,0.8516,0.8521,0.8516s0.8516-0.3818,0.8516-0.8516C7.8218,11.5308,7.4399,11.1484,6.9702,11.1484z"/>
</g>
<rect x="-0.006" y="0.001" fill="none" width="24" height="24"/>
</svg>
