<?xml version="1.0" encoding="utf-8"?>
<!-- Generator: Adobe Illustrator 18.1.0, SVG Export Plug-In . SVG Version: 6.00 Build 0)  -->
<svg version="1.1" id="Layer_1" xmlns="http://www.w3.org/2000/svg" xmlns:xlink="http://www.w3.org/1999/xlink" x="0px" y="0px"
	 width="24px" height="24px" viewBox="0 0 24 24" enable-background="new 0 0 24 24" xml:space="preserve">
<g>
	<path d="M15.2305,22.0205h-6.481c-0.4121,0-0.7471-0.3379-0.7471-0.7539V20.374c0-0.3115,0.186-0.5869,0.4736-0.7021
		c1.5361-0.6006,2.0146-0.9053,2.1597-1.0244v-0.0039c-0.1973-0.2471-0.355-0.5469-0.4639-0.8809
		c-0.1562-0.1621-0.2598-0.373-0.2915-0.6006C9.8481,16.9297,9.8906,16.7002,10,16.499v-0.6514c0-1.165,0.7622-1.8887,1.9897-1.8887
		c1.2456,0,1.9897,0.7061,1.9897,1.8887v0.6504c0.1104,0.2021,0.1523,0.4326,0.1191,0.666
		c-0.0312,0.2266-0.1357,0.4375-0.292,0.5996c-0.1084,0.334-0.2656,0.6328-0.4629,0.8789v0.0322
		c0.0957,0.0586,0.5381,0.3623,2.1572,0.9961c0.2842,0.1104,0.4766,0.3936,0.4766,0.7031v0.8926
		C15.9775,21.6826,15.6426,22.0205,15.2305,22.0205z M9.0024,21.0205h5.9751V20.54c-2.0176-0.7998-2.4893-1.1875-2.6113-1.5791
		c-0.0146-0.0479-0.0225-0.0986-0.0225-0.1484v-0.3574c0-0.1299,0.0508-0.2549,0.1406-0.3477
		c0.1777-0.1836,0.3174-0.4453,0.4023-0.7568c0.0312-0.1113,0.0996-0.209,0.1934-0.2754c-0.0713-0.0889-0.1006-0.3164-0.1006-0.4297
		v-0.7979c0-0.6143-0.3057-0.8887-0.9897-0.8887C11.3145,14.959,11,15.2412,11,15.8477v0.7988c0,0.1143-0.0391,0.2246-0.1104,0.3135
		c0.0938,0.0664,0.1719,0.2803,0.2021,0.3906c0.0854,0.3105,0.2251,0.5732,0.4038,0.7588c0.0898,0.0928,0.1401,0.2168,0.1401,0.3467
		v0.3564c0,0.0498-0.0073,0.0996-0.0225,0.1484c-0.1011,0.3262-0.3804,0.6943-2.6108,1.5791V21.0205z"/>
	<path d="M23.2314,11.0195H16.75c-0.4121,0-0.7471-0.3384-0.7471-0.7539V9.3735c0-0.313,0.1865-0.5889,0.4766-0.7026
		c1.5342-0.6011,2.0117-0.9053,2.1562-1.0234V7.6416c-0.1973-0.2466-0.3545-0.5454-0.4639-0.8794
		c-0.1553-0.1621-0.2588-0.373-0.291-0.6006C17.8486,5.9292,17.8906,5.6997,18,5.498V4.8467c0-1.1646,0.7627-1.8882,1.9902-1.8882
		c1.2461,0,1.9902,0.7061,1.9902,1.8882v0.6509c0.1094,0.2026,0.1514,0.4331,0.1191,0.666
		c-0.0322,0.2271-0.1357,0.4375-0.292,0.5991c-0.1084,0.3335-0.2656,0.6323-0.4629,0.8789v0.0327
		c0.0947,0.0581,0.5361,0.3623,2.1572,0.9961c0.2871,0.1128,0.4736,0.3872,0.4766,0.6982v0.897
		C23.9785,10.6812,23.6436,11.0195,23.2314,11.0195z M17.0029,10.0195h5.9756v-0.48c-2.0195-0.8003-2.4912-1.1885-2.6113-1.5811
		c-0.0146-0.0479-0.0225-0.0972-0.0225-0.147V7.4546c0-0.1294,0.0498-0.2539,0.1396-0.3472
		c0.1768-0.1826,0.3193-0.4512,0.4033-0.7573c0.0312-0.1108,0.0986-0.208,0.1934-0.2749c-0.0713-0.0889-0.1006-0.3169-0.1006-0.4302
		V4.8467c0-0.6143-0.3057-0.8882-0.9902-0.8882C19.3145,3.9585,19,4.2407,19,4.8467v0.7988c0,0.1138-0.0391,0.2236-0.1094,0.3125
		c0.0938,0.0669,0.1709,0.2812,0.2021,0.3921c0.084,0.3062,0.2266,0.5747,0.4033,0.7573c0.0898,0.0933,0.1396,0.2178,0.1396,0.3472
		v0.3569c0,0.0498-0.0078,0.0996-0.0225,0.147c-0.1201,0.3926-0.5918,0.7803-2.6104,1.5811V10.0195z"/>
	<path d="M7.23,11.0195H0.749c-0.4121,0-0.7476-0.3384-0.7476-0.7539V9.3735c0-0.313,0.187-0.5889,0.4766-0.7026
		c1.5347-0.6006,2.0122-0.9053,2.1567-1.0234V7.6421C2.438,7.3955,2.2803,7.0962,2.1714,6.7622
		C2.0151,6.5996,1.9111,6.3887,1.8799,6.1602C1.8477,5.9282,1.8901,5.6987,1.9995,5.4976V4.8467
		c0-1.1646,0.7622-1.8882,1.9897-1.8882c1.2461,0,1.9897,0.7061,1.9897,1.8882v0.6504c0.1099,0.2021,0.1519,0.4321,0.1196,0.6646
		c-0.0317,0.2275-0.1353,0.439-0.292,0.6011C5.6978,7.0972,5.54,7.3955,5.3438,7.6421v0.0322
		C5.4385,7.7324,5.8799,8.0366,7.5,8.6704c0.29,0.1143,0.4771,0.3901,0.4771,0.7031v0.8921
		C7.9771,10.6812,7.6421,11.0195,7.23,11.0195z M1.0015,10.0195h5.9756v-0.48C4.9585,8.7397,4.4868,8.3511,4.3657,7.9585
		c-0.0146-0.0479-0.022-0.0972-0.022-0.147V7.4546c0-0.1294,0.0503-0.2539,0.1401-0.3472c0.1753-0.1816,0.3184-0.4507,0.4033-0.7578
		C4.918,6.2388,4.9858,6.1421,5.0796,6.0752C5.0083,5.9868,4.979,5.7588,4.979,5.645V4.8467c0-0.6143-0.3052-0.8882-0.9897-0.8882
		c-0.6753,0-0.9897,0.2822-0.9897,0.8882v0.7988c0,0.1138-0.0391,0.2246-0.1104,0.3135C2.9829,6.0254,3.061,6.2393,3.0913,6.3501
		c0.0845,0.3066,0.2275,0.5752,0.4033,0.7573c0.0898,0.0933,0.1401,0.2178,0.1401,0.3472v0.3569c0,0.0498-0.0073,0.0996-0.022,0.147
		C3.5117,8.2861,3.2329,8.6548,1.0015,9.5396V10.0195z"/>
	<path d="M16.457,4.104c-0.0859,0-0.1719-0.022-0.251-0.0679c-2.4824-1.4434-5.7056-1.4424-8.1851,0
		C7.7812,4.1733,7.4761,4.0938,7.3374,3.8555C7.1987,3.6167,7.2793,3.3105,7.5181,3.1719c2.7856-1.6206,6.4048-1.6206,9.1899,0
		c0.2393,0.1387,0.3203,0.4448,0.1816,0.6836C16.7959,4.0151,16.6289,4.104,16.457,4.104z"/>
	<path d="M16.8818,18.7939c-0.1611,0-0.3203-0.0781-0.417-0.2236c-0.0557-0.085-0.083-0.1807-0.083-0.2764
		c0-0.1611,0.0781-0.3203,0.2236-0.417c2.0186-1.3369,3.332-3.4746,3.6035-5.8633c0.0312-0.2749,0.2812-0.4717,0.5537-0.4399
		c0.2549,0.0288,0.4434,0.2451,0.4434,0.4956c0,0.0195-0.001,0.0381-0.0029,0.0576c-0.3057,2.6836-1.7803,5.083-4.0449,6.584
		C17.0732,18.7666,16.9775,18.7939,16.8818,18.7939z"/>
	<path d="M7.3438,18.7939c-0.0947,0-0.1909-0.0273-0.2759-0.083c-2.2646-1.501-3.7388-3.9014-4.0439-6.584
		c-0.0024-0.0195-0.0034-0.0381-0.0034-0.0576c0-0.2505,0.1885-0.4668,0.4434-0.4956c0.2852-0.0366,0.522,0.166,0.5532,0.4399
		c0.272,2.3887,1.5854,4.5264,3.6035,5.8633c0.145,0.0967,0.2236,0.2559,0.2236,0.418c0,0.0947-0.0269,0.1904-0.083,0.2754
		C7.665,18.7158,7.5059,18.7939,7.3438,18.7939z"/>
</g>
<rect x="0.0005" y="0.0004" fill="none" width="24" height="24"/>
</svg>
