<?xml version="1.0" encoding="utf-8"?>
<!-- Generator: Adobe Illustrator 18.1.0, SVG Export Plug-In . SVG Version: 6.00 Build 0)  -->
<svg version="1.1" id="Layer_1" xmlns="http://www.w3.org/2000/svg" xmlns:xlink="http://www.w3.org/1999/xlink" x="0px" y="0px"
	 width="24px" height="24px" viewBox="0 0 24 24" enable-background="new 0 0 24 24" xml:space="preserve">
<g>
	<path d="M12.0713,9.8706c-1.0376,0-1.8818-0.8442-1.8818-1.8818c0-1.0381,0.8442-1.8823,1.8818-1.8823
		c1.0381,0,1.8818,0.8442,1.8818,1.8823C13.9531,9.0264,13.1094,9.8706,12.0713,9.8706z M12.0713,7.1064
		c-0.4863,0-0.8818,0.396-0.8818,0.8823s0.3955,0.8818,0.8818,0.8818s0.8818-0.3955,0.8818-0.8818S12.5576,7.1064,12.0713,7.1064z"
		/>
	<path d="M17.4863,24h-11c-0.2764,0-0.5-0.2236-0.5-0.5V5.7852c0-0.1177,0.0415-0.2314,0.1172-0.3218l1.9209-2.2852
		C8.1196,3.0654,8.2598,3,8.4072,3h7.3281c0.1553,0,0.3027,0.0723,0.3965,0.1958l1.751,2.2852
		c0.0674,0.0874,0.1035,0.1943,0.1035,0.3042V23.5C17.9863,23.7764,17.7627,24,17.4863,24z M6.9863,23h10V5.9546L15.4883,4H8.6401
		L6.9863,5.9673V23z"/>
	<path d="M17.4863,13h-11c-0.2764,0-0.5-0.2236-0.5-0.5S6.21,12,6.4863,12h11c0.2764,0,0.5,0.2236,0.5,0.5S17.7627,13,17.4863,13z"
		/>
	<path d="M10.8652,21.3535c-0.2231,0-0.4268-0.1504-0.4839-0.377l-0.2988-1.1748l-1.0903-0.2285
		c-0.27-0.0566-0.4434-0.3213-0.3867-0.5918c0.0562-0.2695,0.3184-0.4512,0.5918-0.3867l1.3955,0.292
		c0.1865,0.0391,0.335,0.1807,0.3818,0.3662l0.3755,1.4775c0.0684,0.2676-0.0938,0.54-0.3613,0.6074
		C10.9478,21.3486,10.9062,21.3535,10.8652,21.3535z"/>
	<path d="M12.8486,17.5723c-0.0615,0-0.125-0.0117-0.1855-0.0352L9.4399,16.251c-0.2568-0.1025-0.3818-0.3936-0.2793-0.6504
		c0.1021-0.2568,0.394-0.3779,0.6494-0.2793l3.2241,1.2861c0.2559,0.1025,0.3809,0.3936,0.2793,0.6504
		C13.2354,17.4531,13.0469,17.5723,12.8486,17.5723z"/>
	<path d="M14.1738,20.835c-0.1973,0-0.3848-0.1172-0.4629-0.3115l-1.3252-3.2627c-0.1045-0.2559,0.0186-0.5479,0.2744-0.6514
		c0.2539-0.1074,0.5479,0.0186,0.6514,0.2744l1.3252,3.2627c0.1045,0.2559-0.0186,0.5479-0.2744,0.6514
		C14.3008,20.8232,14.2363,20.835,14.1738,20.835z"/>
	<path d="M10.4902,19.876c-0.1299,0-0.2598-0.0508-0.3579-0.1504c-0.1929-0.1982-0.189-0.5146,0.0088-0.707l4.0034-3.9102
		c0.1982-0.1943,0.5146-0.1885,0.707,0.0078c0.1934,0.1982,0.1895,0.5146-0.0078,0.707l-4.0044,3.9102
		C10.7422,19.8291,10.6162,19.876,10.4902,19.876z"/>
	<path d="M12.0713,8.4888c-0.2681,0-0.4897-0.2119-0.4995-0.4814c-0.1772-4.7183,5.3374-7.3521,5.5718-7.4619
		c0.248-0.1147,0.5469-0.0098,0.6641,0.2412c0.1172,0.2495,0.0098,0.5474-0.2402,0.6646c-0.0508,0.0244-5.1484,2.4658-4.9961,6.519
		c0.0098,0.2759-0.2051,0.5078-0.4814,0.5181C12.084,8.4888,12.0771,8.4888,12.0713,8.4888z"/>
</g>
<rect x="-0.0137" fill="none" width="24" height="24"/>
</svg>
