<?xml version="1.0" encoding="utf-8"?>
<!-- Generator: Adobe Illustrator 18.1.0, SVG Export Plug-In . SVG Version: 6.00 Build 0)  -->
<svg version="1.1" id="Layer_1" xmlns="http://www.w3.org/2000/svg" xmlns:xlink="http://www.w3.org/1999/xlink" x="0px" y="0px"
	 width="24px" height="24px" viewBox="0 0 24 24" enable-background="new 0 0 24 24" xml:space="preserve">
<g>
	<path d="M20.5098,5.0098h-4c-0.2764,0-0.5-0.2236-0.5-0.5v-4c0-0.2764,0.2236-0.5,0.5-0.5s0.5,0.2236,0.5,0.5v3.5h3.5
		c0.2764,0,0.5,0.2236,0.5,0.5S20.7861,5.0098,20.5098,5.0098z"/>
	<path d="M19.7178,24.0098H4.2969c-0.7095,0-1.2871-0.583-1.2871-1.2998V1.3154c0-0.7197,0.5776-1.3057,1.2871-1.3057h12.2129
		c0.418,0,0.6406,0.2192,0.8027,0.3789l3.3125,3.2686c0.1787,0.1772,0.3848,0.4341,0.3848,0.8525V22.71
		C21.0098,23.4268,20.4307,24.0098,19.7178,24.0098z M16.5029,1.0029L4.2969,1.0098c-0.1558,0-0.2871,0.1401-0.2871,0.3057V22.71
		c0,0.1621,0.1313,0.2998,0.2871,0.2998h15.4209c0.1582,0,0.292-0.1377,0.292-0.2998V4.5098c0-0.0352,0-0.0542-0.0879-0.1406
		l-3.3125-3.2686C16.582,1.0728,16.5234,1.0151,16.5029,1.0029z"/>
	<path d="M17.459,10.0303h-6.8643c-0.2764,0-0.5-0.2236-0.5-0.5s0.2236-0.5,0.5-0.5h6.8643c0.2764,0,0.5,0.2236,0.5,0.5
		S17.7354,10.0303,17.459,10.0303z"/>
	<path d="M8.4478,11.021H6.5161c-0.2764,0-0.5-0.2236-0.5-0.5V8.4736c0-0.2764,0.2236-0.5,0.5-0.5h1.9316
		c0.2764,0,0.5,0.2236,0.5,0.5v2.0474C8.9478,10.7974,8.7241,11.021,8.4478,11.021z M7.0161,10.021h0.9316V8.9736H7.0161V10.021z"/>
	<path d="M17.459,14.0303h-6.8643c-0.2764,0-0.5-0.2236-0.5-0.5s0.2236-0.5,0.5-0.5h6.8643c0.2764,0,0.5,0.2236,0.5,0.5
		S17.7354,14.0303,17.459,14.0303z"/>
	<path d="M8.4478,15.0215H6.5161c-0.2764,0-0.5-0.2236-0.5-0.5v-2.0479c0-0.2764,0.2236-0.5,0.5-0.5h1.9316
		c0.2764,0,0.5,0.2236,0.5,0.5v2.0479C8.9478,14.7979,8.7241,15.0215,8.4478,15.0215z M7.0161,14.0215h0.9316v-1.0479H7.0161
		V14.0215z"/>
	<path d="M17.459,18.0312h-6.8643c-0.2764,0-0.5-0.2236-0.5-0.5s0.2236-0.5,0.5-0.5h6.8643c0.2764,0,0.5,0.2236,0.5,0.5
		S17.7354,18.0312,17.459,18.0312z"/>
	<path d="M8.4478,19.0215H6.5161c-0.2764,0-0.5-0.2236-0.5-0.5v-2.0469c0-0.2764,0.2236-0.5,0.5-0.5h1.9316
		c0.2764,0,0.5,0.2236,0.5,0.5v2.0469C8.9478,18.7979,8.7241,19.0215,8.4478,19.0215z M7.0161,18.0215h0.9316v-1.0469H7.0161
		V18.0215z"/>
</g>
<rect y="0.0001" fill="none" width="24" height="24"/>
</svg>
