<?xml version="1.0" encoding="utf-8"?>
<!-- Generator: Adobe Illustrator 18.1.0, SVG Export Plug-In . SVG Version: 6.00 Build 0)  -->
<svg version="1.1" id="Layer_1" xmlns="http://www.w3.org/2000/svg" xmlns:xlink="http://www.w3.org/1999/xlink" x="0px" y="0px"
	 width="24px" height="24px" viewBox="0 0 24 24" enable-background="new 0 0 24 24" xml:space="preserve">
<g>
	<path d="M22.5,5h-6c-0.3,0-0.5-0.2-0.5-0.5S16.3,4,16.6,4h6C22.8,4,23,4.2,23,4.5S22.8,5,22.5,5z"/>
	<path d="M11,24c-2.3,0-4.2-1.9-4.2-4.2c0-1.1,0.4-2.1,1.1-2.8V3c0-1.6,1.3-2.9,2.9-2.9c1.6,0,2.9,1.3,2.9,2.9v13.7
		c0.9,0.8,1.3,1.9,1.3,3.1C15.2,22.1,13.3,24,11,24z M10.9,1.1C9.8,1.1,9,2.1,9,3v14.2c0,0.1-0.1,0.3-0.2,0.4c-0.6,0.6-1,1.4-1,2.3
		c0,1.7,1.4,3.2,3.2,3.2c1.7,0,3.2-1.4,3.2-3.2c0-1-0.4-1.8-1.2-2.4c-0.1-0.1-0.2-0.2-0.2-0.4V3C12.8,1.9,12,1.1,10.9,1.1z"/>
	<path d="M11,21.2c-0.7,0-1.2-0.5-1.2-1.2s0.5-1.2,1.2-1.2s1.2,0.5,1.2,1.2S11.7,21.2,11,21.2z M11,19.8c-0.1,0-0.2,0.1-0.2,0.2
		c0,0.2,0.4,0.2,0.4,0C11.2,19.9,11.1,19.8,11,19.8z"/>
	<path d="M11,19.8c-0.3,0-0.5-0.2-0.5-0.5v-5.2c0-0.3,0.2-0.5,0.5-0.5s0.5,0.2,0.5,0.5v5.2C11.5,19.6,11.3,19.8,11,19.8z"/>
	<path d="M8.5,5H5.9C5.6,5,5.4,4.8,5.4,4.5S5.6,4,5.9,4h2.6C8.8,4,9,4.2,9,4.5S8.8,5,8.5,5z"/>
	<path d="M8.5,10H5.9c-0.3,0-0.5-0.2-0.5-0.5S5.6,9,5.9,9h2.6C8.8,9,9,9.2,9,9.5S8.8,10,8.5,10z"/>
	<path d="M8.5,15H5.9c-0.3,0-0.5-0.2-0.5-0.5S5.6,14,5.9,14h2.6C8.8,14,9,14.2,9,14.5S8.8,15,8.5,15z"/>
</g>
<rect x="0" fill="none" width="24" height="24"/>
</svg>
