<?xml version="1.0" encoding="utf-8"?>
<!-- Generator: Adobe Illustrator 18.1.0, SVG Export Plug-In . SVG Version: 6.00 Build 0)  -->
<svg version="1.1" id="Layer_1" xmlns="http://www.w3.org/2000/svg" xmlns:xlink="http://www.w3.org/1999/xlink" x="0px" y="0px"
	 width="24px" height="24px" viewBox="0 0 24 24" enable-background="new 0 0 24 24" xml:space="preserve">
<g>
	<path d="M11.9863,23.8281c-0.2271,0-0.4258-0.1533-0.4834-0.3721l-1.5386-5.834c-3.9712-0.9277-6.8208-4.498-6.8208-8.6064
		c0-4.876,3.9668-8.8433,8.8428-8.8433s8.8428,3.9673,8.8428,8.8433c0,4.1084-2.8496,7.6787-6.8213,8.6064l-1.5381,5.834
		C12.4121,23.6748,12.2139,23.8281,11.9863,23.8281z M11.9863,1.1724c-4.3247,0-7.8428,3.5186-7.8428,7.8433
		c0,3.7373,2.6592,6.9727,6.3223,7.6924c0.188,0.0361,0.3384,0.1777,0.3872,0.3623l1.1333,4.2969l1.1328-4.2969
		c0.0488-0.1846,0.1992-0.3262,0.3867-0.3623c3.6641-0.7197,6.3232-3.9551,6.3232-7.6924
		C19.8291,4.6909,16.3105,1.1724,11.9863,1.1724z"/>
	<path d="M9.0557,13.8447L9.0557,13.8447c-0.21,0-0.3989-0.0938-0.5176-0.2559c-0.2798-0.3828-0.1255-0.8682,0.3867-2.4766
		c0.0957-0.3008,0.2026-0.6367,0.3184-1.0093C8.9282,9.8691,8.6421,9.6592,8.3857,9.4717C6.9023,8.3843,6.4546,8.0562,6.6318,7.5024
		c0.1797-0.5615,0.7295-0.5688,2.7739-0.5962l0.8911-0.0142c0.1284-0.3701,0.2422-0.7056,0.3438-1.0059
		c0.5859-1.7305,0.7632-2.2524,1.3438-2.2524c0.5859,0,0.7764,0.5552,1.4072,2.395l0.2988,0.8643
		c0.3945,0.0063,0.752,0.0098,1.0713,0.0127c1.8467,0.0166,2.4033,0.022,2.583,0.5757c0.1816,0.5605-0.2598,0.8872-1.9033,2.1025
		l-0.6992,0.52c0.1152,0.3726,0.2227,0.7085,0.3184,1.0093c0.5117,1.6074,0.667,2.0928,0.3867,2.4756
		c-0.1191,0.1621-0.3076,0.2559-0.5176,0.2559c-0.4121,0-0.8965-0.3389-2.1934-1.2461l-0.7437-0.5166l-0.7441,0.5176
		C9.9526,13.5059,9.4678,13.8447,9.0557,13.8447z M8.0039,7.9385C8.2661,8.144,8.6162,8.4004,8.9766,8.665
		c0.3335,0.2441,0.7168,0.5254,1.1479,0.8486c0.1685,0.1265,0.2393,0.3447,0.1777,0.5459
		c-0.1567,0.5137-0.3003,0.9653-0.4253,1.3574c-0.1357,0.4263-0.2671,0.8398-0.3569,1.1582
		c0.3071-0.2021,0.7241-0.4941,1.1553-0.7954l1.0337-0.7188c0.1709-0.1182,0.3955-0.1182,0.5674,0l1.0332,0.7183
		c0.4277,0.2988,0.8408,0.5879,1.1543,0.791c-0.0898-0.3184-0.2207-0.7295-0.3564-1.1538c-0.125-0.3921-0.2686-0.8433-0.4258-1.3564
		c-0.0615-0.2017,0.0098-0.4199,0.1787-0.5464l0.9873-0.7339c0.4238-0.3135,0.834-0.6172,1.1289-0.8521
		c-0.335-0.0142-0.7725-0.0181-1.2236-0.022c-0.4141-0.0039-0.8906-0.0083-1.4307-0.019c-0.209-0.0044-0.3926-0.1377-0.4619-0.334
		l-0.415-1.1997c-0.166-0.4834-0.3262-0.9512-0.4575-1.2935c-0.1167,0.311-0.2563,0.7227-0.3999,1.1475
		c-0.1323,0.3901-0.2842,0.8384-0.4624,1.3452c-0.0688,0.1968-0.2529,0.3301-0.4614,0.3345L9.4194,7.9062
		C8.8921,7.9136,8.3813,7.9199,8.0039,7.9385z"/>
</g>
<rect x="-0.0136" y="0.0001" fill="none" width="24" height="24"/>
</svg>
