<?xml version="1.0" encoding="utf-8"?>
<!-- Generator: Adobe Illustrator 18.1.0, SVG Export Plug-In . SVG Version: 6.00 Build 0)  -->
<svg version="1.1" id="Layer_1" xmlns="http://www.w3.org/2000/svg" xmlns:xlink="http://www.w3.org/1999/xlink" x="0px" y="0px"
	 width="24px" height="24px" viewBox="0 0 24 24" enable-background="new 0 0 24 24" xml:space="preserve">
<g>
	<path d="M23.4688,22.0029H0.5479c-0.2764,0-0.5-0.2236-0.5-0.5s0.2236-0.5,0.5-0.5h22.9209c0.2764,0,0.5,0.2236,0.5,0.5
		S23.7451,22.0029,23.4688,22.0029z"/>
	<path d="M7.4727,22.0029h-6c-0.2764,0-0.5-0.2236-0.5-0.5v-15c0-0.2764,0.2236-0.5,0.5-0.5h6c0.2764,0,0.5,0.2236,0.5,0.5v15
		C7.9727,21.7793,7.749,22.0029,7.4727,22.0029z M1.9727,21.0029h5v-14h-5V21.0029z"/>
	<path d="M5.4424,19.0029h-2.022c-0.2764,0-0.5-0.2236-0.5-0.5s0.2236-0.5,0.5-0.5h2.022c0.2764,0,0.5,0.2236,0.5,0.5
		S5.7188,19.0029,5.4424,19.0029z"/>
	<path d="M11.4429,19.0029H9.4204c-0.2764,0-0.5-0.2236-0.5-0.5s0.2236-0.5,0.5-0.5h2.0225c0.2764,0,0.5,0.2236,0.5,0.5
		S11.7192,19.0029,11.4429,19.0029z"/>
	<path d="M18.3594,22c-0.0762,0-0.1523-0.0176-0.2217-0.0518c-0.1221-0.0605-0.2139-0.167-0.2549-0.2969l-4.501-14.1421
		c-0.0811-0.2568,0.0547-0.5317,0.3076-0.6226l4.9609-1.7783c0.1289-0.0454,0.2705-0.0376,0.3906,0.0225
		c0.1221,0.0601,0.2139,0.1675,0.2549,0.2969l4.5,14.1436c0.0811,0.2559-0.0547,0.5312-0.3076,0.6221l-4.96,1.7773
		C18.4736,21.9902,18.416,22,18.3594,22z M14.4814,7.6655l4.1973,13.189l4.0176-1.4395L18.5,6.2246L14.4814,7.6655z"/>
	<path d="M17.3193,10.9468c-0.625,0-1.1797-0.4092-1.3799-1.0176c-0.2559-0.7764,0.1484-1.6274,0.9004-1.897
		c0.7471-0.2686,1.6074,0.1655,1.8604,0.9341c0.2559,0.7769-0.1484,1.6274-0.9014,1.8965
		C17.6445,10.9185,17.4834,10.9468,17.3193,10.9468z M17.3203,8.9482c-0.0479,0-0.0957,0.0083-0.1426,0.0254
		c-0.2471,0.0884-0.376,0.3765-0.2891,0.6426c0.0811,0.2461,0.3418,0.3872,0.5732,0.3052c0.2471-0.0884,0.376-0.376,0.2891-0.6416
		C17.6855,9.0815,17.5127,8.9482,17.3203,8.9482z"/>
	<path d="M4.4316,10.9834c-0.8335,0-1.5112-0.6777-1.5112-1.5112s0.6777-1.5112,1.5112-1.5112c0.833,0,1.5107,0.6777,1.5107,1.5112
		S5.2646,10.9834,4.4316,10.9834z M4.4316,8.9609c-0.2817,0-0.5112,0.2295-0.5112,0.5112s0.2295,0.5112,0.5112,0.5112
		s0.5107-0.2295,0.5107-0.5112S4.7134,8.9609,4.4316,8.9609z"/>
	<path d="M13.4727,22.0029h-6c-0.2764,0-0.5-0.2236-0.5-0.5v-15c0-0.2764,0.2236-0.5,0.5-0.5h6c0.2764,0,0.5,0.2236,0.5,0.5v15
		C13.9727,21.7793,13.749,22.0029,13.4727,22.0029z M7.9727,21.0029h5v-14h-5V21.0029z"/>
	<path d="M10.4316,10.9834c-0.8335,0-1.5112-0.6777-1.5112-1.5112s0.6777-1.5112,1.5112-1.5112c0.833,0,1.5107,0.6777,1.5107,1.5112
		S11.2646,10.9834,10.4316,10.9834z M10.4316,8.9609c-0.2817,0-0.5112,0.2295-0.5112,0.5112s0.2295,0.5112,0.5112,0.5112
		s0.5107-0.2295,0.5107-0.5112S10.7134,8.9609,10.4316,8.9609z"/>
</g>
<rect fill="none" width="24" height="24"/>
</svg>
