<?xml version="1.0" encoding="utf-8"?>
<!-- Generator: Adobe Illustrator 18.1.0, SVG Export Plug-In . SVG Version: 6.00 Build 0)  -->
<svg version="1.1" id="Layer_1" xmlns="http://www.w3.org/2000/svg" xmlns:xlink="http://www.w3.org/1999/xlink" x="0px" y="0px"
	 width="24px" height="24px" viewBox="0 0 24 24" enable-background="new 0 0 24 24" xml:space="preserve">
<rect x="0" y="0" fill="none" width="24" height="24"/>
<g>
	<path d="M15.3,17H8.7c-0.3,0-0.5,0.2-0.5,0.5S8.4,18,8.7,18h6.7c0.3,0,0.5-0.2,0.5-0.5S15.6,17,15.3,17z"/>
	<path d="M15.3,15H8.7c-0.3,0-0.5,0.2-0.5,0.5S8.4,16,8.7,16h6.7c0.3,0,0.5-0.2,0.5-0.5S15.6,15,15.3,15z"/>
	<path d="M23.5,0h-23C0.2,0,0,0.2,0,0.5v15C0,15.8,0.2,16,0.5,16S1,15.8,1,15.5V1h22v14.5c0,0.3,0.2,0.5,0.5,0.5s0.5-0.2,0.5-0.5
		v-15C24,0.2,23.7,0,23.5,0z"/>
	<path d="M18.5,5h-13C4.5,5,3.7,5.4,3,6C2.3,6.7,2,7.6,2,8.5l0,14C2,23.3,2.6,24,3.4,24h2.1C6.4,24,7,23.3,7,22.5V21h10v1.5
		c0,0.8,0.7,1.5,1.5,1.5h2.1c0.8,0,1.5-0.7,1.5-1.5v-14C22,6.6,20.4,5,18.5,5z M6,22.5C6,22.8,5.8,23,5.6,23H3.4
		C3.2,23,3,22.8,3,22.5L3,21h3V22.5z M6.5,20H3l0-7h18v7h-3.5H6.5z M20.5,23h-2.1c-0.2,0-0.5-0.2-0.5-0.5V21h3v1.5
		C21,22.8,20.8,23,20.5,23z M21,12H3l0-3.5c0-0.7,0.3-1.3,0.7-1.8C4.2,6.3,4.8,6,5.5,6h13C19.8,6,21,7.1,21,8.5V12z"/>
	<path d="M5.5,14.7c-1.1,0-1.9,0.9-1.9,1.9s0.9,1.9,1.9,1.9s1.9-0.9,1.9-1.9S6.5,14.7,5.5,14.7z M5.5,17.6c-0.5,0-0.9-0.4-0.9-0.9
		s0.4-0.9,0.9-0.9s0.9,0.4,0.9,0.9S6,17.6,5.5,17.6z"/>
	<path d="M20.5,16.7c0-1.1-0.9-1.9-1.9-1.9s-1.9,0.9-1.9,1.9s0.9,1.9,1.9,1.9S20.5,17.7,20.5,16.7z M17.6,16.7
		c0-0.5,0.4-0.9,0.9-0.9s0.9,0.4,0.9,0.9s-0.4,0.9-0.9,0.9S17.6,17.2,17.6,16.7z"/>
</g>
</svg>
