<?xml version="1.0" encoding="utf-8"?>
<!-- Generator: Adobe Illustrator 18.1.0, SVG Export Plug-In . SVG Version: 6.00 Build 0)  -->
<svg version="1.1" id="Layer_1" xmlns="http://www.w3.org/2000/svg" xmlns:xlink="http://www.w3.org/1999/xlink" x="0px" y="0px"
	 width="24px" height="24px" viewBox="0 0 24 24" enable-background="new 0 0 24 24" xml:space="preserve">
<g>
	<path d="M11.9854,20.0117c-1.335,0-2.5889-0.5195-3.5308-1.4609s-1.4609-2.1953-1.4609-3.5303c0-1.3359,0.519-2.5898,1.4609-3.5312
		c0.9414-0.9419,2.1953-1.4604,3.5303-1.4604c1.3354,0,2.5894,0.5186,3.5317,1.4604c0.9414,0.9414,1.4609,2.1953,1.4609,3.5312
		c0,1.335-0.5195,2.5889-1.4609,3.5303S13.3213,20.0117,11.9854,20.0117z M11.9849,11.0288c-1.0679,0-2.0703,0.4146-2.8232,1.1675
		s-1.168,1.7559-1.168,2.8242c0,1.0674,0.415,2.0703,1.168,2.8232s1.7559,1.168,2.8237,1.168c1.0684,0,2.0713-0.415,2.8242-1.168
		s1.168-1.7559,1.168-2.8232c0-1.0684-0.415-2.0713-1.168-2.8242C14.0557,11.4434,13.0527,11.0288,11.9849,11.0288z"/>
	<path d="M8.8076,18.6973c-0.1279,0-0.2559-0.0488-0.3535-0.1465c-0.1953-0.1953-0.1953-0.5117,0-0.707l6.3545-6.3545
		c0.1953-0.1953,0.5117-0.1953,0.707,0s0.1953,0.5117,0,0.707l-6.3545,6.3545C9.0635,18.6484,8.9355,18.6973,8.8076,18.6973z"/>
	<path d="M22.5283,24H1.4727c-0.8169,0-1.4814-0.6426-1.4814-1.4316V7.5078C-0.0088,6.7046,0.6836,6,1.4727,6h5.8564l3.4751-3.5635
		c0.1934-0.1978,0.5103-0.2002,0.707-0.0088c0.1978,0.1929,0.2017,0.5093,0.0088,0.707L7.8979,6.8491C7.8037,6.9458,7.6748,7,7.54,7
		H1.4727C1.2344,7,0.9912,7.2563,0.9912,7.5078v15.0605C0.9912,22.7979,1.2163,23,1.4727,23h21.0557
		c0.251,0,0.4629-0.1973,0.4629-0.4316V7.5078C22.9912,7.2515,22.7617,7,22.5283,7h-6.0674c-0.1348,0-0.2637-0.0542-0.3584-0.1509
		l-3.623-3.7148c-0.1924-0.1978-0.1885-0.5142,0.0098-0.707c0.1963-0.1919,0.5127-0.1885,0.707,0.0088L16.6719,6h5.8564
		c0.7793,0,1.4629,0.7046,1.4629,1.5078v15.0605C23.9912,23.3574,23.335,24,22.5283,24z"/>
	<path d="M12,3.6274c-0.9385,0-1.7017-0.7632-1.7017-1.7017S11.0615,0.2241,12,0.2241s1.7021,0.7632,1.7021,1.7017
		S12.9385,3.6274,12,3.6274z M12,1.2241c-0.3867,0-0.7017,0.3149-0.7017,0.7017S11.6133,2.6274,12,2.6274
		s0.7021-0.3149,0.7021-0.7017S12.3867,1.2241,12,1.2241z"/>
	<path d="M16.4609,7H7.54c-0.2764,0-0.5-0.2236-0.5-0.5S7.2637,6,7.54,6h8.9209c0.2764,0,0.5,0.2236,0.5,0.5S16.7373,7,16.4609,7z"
		/>
</g>
<rect x="-0.0136" y="0.0002" fill="none" width="24" height="24"/>
</svg>
