<?xml version="1.0" encoding="utf-8"?>
<!-- Generator: Adobe Illustrator 18.1.0, SVG Export Plug-In . SVG Version: 6.00 Build 0)  -->
<svg version="1.1" id="Layer_1" xmlns="http://www.w3.org/2000/svg" xmlns:xlink="http://www.w3.org/1999/xlink" x="0px" y="0px"
	 width="24px" height="24px" viewBox="0 0 24 24" enable-background="new 0 0 24 24" xml:space="preserve">
<g>
	<path d="M9.9722,5.2876c-1.3862,0-2.5142-1.1279-2.5142-2.5142s1.1279-2.5142,2.5142-2.5142s2.5142,1.1279,2.5142,2.5142
		S11.3584,5.2876,9.9722,5.2876z M9.9722,1.2593c-0.835,0-1.5142,0.6792-1.5142,1.5142s0.6792,1.5142,1.5142,1.5142
		s1.5142-0.6792,1.5142-1.5142S10.8071,1.2593,9.9722,1.2593z"/>
	<path d="M15.2822,13.0225c-0.0908,0-0.1826-0.0244-0.2656-0.0762l-2.6523-1.6602c-0.125-0.0786-0.21-0.209-0.2295-0.356
		l-0.2437-1.7749c-0.1064-0.896-0.6338-1.8252-1.6973-1.7803C9.3647,7.4102,8.6846,8.1377,8.645,9.0317l0.1631,1.918
		c0.0229,0.2754-0.1816,0.5171-0.4565,0.5396c-0.2822,0.0254-0.5166-0.1816-0.5396-0.4565L7.6475,9.0513
		C7.708,7.5801,8.8086,6.4326,10.1514,6.376c1.438-0.0674,2.5371,1.0054,2.7314,2.6523l0.2109,1.5342l2.4541,1.5361
		c0.2334,0.1465,0.3047,0.4551,0.1582,0.6895C15.6113,12.9395,15.4482,13.0225,15.2822,13.0225z"/>
	<path d="M19.5957,21.8848c-0.2354,0-0.4453-0.167-0.4902-0.4072l-1.0293-5.4443h-1.0928c-0.2764,0-0.5-0.2236-0.5-0.5
		s0.2236-0.5,0.5-0.5h1.5068c0.2402,0,0.4463,0.1709,0.4912,0.4072l1.1064,5.8516c0.0518,0.2715-0.127,0.5332-0.3984,0.584
		C19.6582,21.8818,19.627,21.8848,19.5957,21.8848z"/>
	<path d="M10.4146,23.1318c-3.0625,0-5.5542-2.4922-5.5542-5.5547s2.4917-5.5537,5.5542-5.5537c3.063,0,5.5542,2.4912,5.5542,5.5537
		S13.4775,23.1318,10.4146,23.1318z M10.4146,13.0234c-2.5112,0-4.5542,2.043-4.5542,4.5537c0,2.5117,2.043,4.5547,4.5542,4.5547
		s4.5542-2.043,4.5542-4.5547C14.9688,15.0664,12.9258,13.0234,10.4146,13.0234z"/>
	<path d="M10.4199,18.0801c-0.1299,0-0.2603-0.0498-0.3599-0.1406C9.96,17.8301,9.9097,17.71,9.9097,17.5801
		s0.0601-0.2607,0.1504-0.3506c0.1899-0.1895,0.5195-0.1895,0.71-0.0098c0.0898,0.0996,0.1396,0.2305,0.1396,0.3604
		s-0.0498,0.25-0.1396,0.3496C10.6699,18.0303,10.54,18.0801,10.4199,18.0801z"/>
	<path d="M6.8003,14.5498c-0.1978,0-0.3853-0.1182-0.4639-0.3135L5.021,10.9678H3.5273c-0.2764,0-0.5-0.2236-0.5-0.5
		s0.2236-0.5,0.5-0.5h1.8315c0.2041,0,0.3877,0.124,0.4639,0.3135l1.4414,3.582c0.103,0.2559-0.021,0.5469-0.2773,0.6504
		C6.9258,14.5381,6.8628,14.5498,6.8003,14.5498z"/>
</g>
<rect x="-0.0136" y="0.0002" fill="none" width="24" height="24"/>
</svg>
