<?xml version="1.0" encoding="utf-8"?>
<!-- Generator: Adobe Illustrator 18.1.0, SVG Export Plug-In . SVG Version: 6.00 Build 0)  -->
<svg version="1.1" id="Layer_1" xmlns="http://www.w3.org/2000/svg" xmlns:xlink="http://www.w3.org/1999/xlink" x="0px" y="0px"
	 width="24px" height="24px" viewBox="0 0 24 24" enable-background="new 0 0 24 24" xml:space="preserve">
<g>
	<path d="M11.6362,23.8145c-0.2651,0-0.4863-0.208-0.499-0.4766c0,0,0,0,0-0.001c-0.0049-0.0977-0.335-6.3125-2.957-9.9316
		c-0.1621-0.2236-0.1123-0.5361,0.1113-0.6982c0.2246-0.1602,0.5361-0.1123,0.6982,0.1123c1.3218,1.8232,2.0938,4.1934,2.542,6.2178
		c0.4673-2.5371,1.4692-5.9678,3.603-9.6587c0.1396-0.2402,0.4443-0.3193,0.6826-0.1831C16.0566,9.3335,16.1387,9.6396,16,9.8784
		c-4.0928,7.0835-3.8691,13.2925-3.8643,13.4106c0,0.001,0,0.001,0,0.002c0.0137,0.2754-0.1997,0.5098-0.4756,0.5225
		C11.6523,23.8145,11.644,23.8145,11.6362,23.8145z"/>
	<path d="M19.8906,10.5498c-0.6201,0-1.1924-0.2607-1.5967-0.6948c-0.3955,0.4375-0.9561,0.689-1.5938,0.689
		c-1.0723,0-2.2129-0.7676-2.2129-2.1904c0-0.2168,0.0332-0.4312,0.0967-0.6367c-0.9727-0.2246-1.7002-1.0991-1.7002-2.1406
		s0.7275-1.9165,1.7012-2.1401c-0.0645-0.2061-0.0977-0.4204-0.0977-0.6377c0-1.4229,1.1406-2.1904,2.2139-2.1904
		c0.6367,0,1.1973,0.2515,1.5928,0.6895c0.4053-0.4341,0.9775-0.6948,1.5967-0.6948c0.873,0,1.6396,0.4946,1.999,1.2915
		c0.2266,0.5005,0.2559,1.0439,0.1016,1.542c0.9717,0.2246,1.6992,1.0986,1.6992,2.1401c0,0.5898-0.2305,1.1436-0.6494,1.5586
		c-0.2939,0.2925-0.6562,0.4912-1.0498,0.582c0.1543,0.4976,0.125,1.041-0.1016,1.5415
		C21.5293,10.0552,20.7637,10.5498,19.8906,10.5498z M18.2871,8.3823L18.2871,8.3823c0.2158,0,0.4072,0.1387,0.4746,0.3438
		c0.1621,0.4927,0.6162,0.8237,1.1289,0.8237c0.5674,0,0.9336-0.3633,1.0879-0.7036c0.1973-0.4365,0.125-0.9141-0.1943-1.2773
		c-0.1416-0.1606-0.165-0.394-0.0586-0.5796c0.1074-0.1855,0.3213-0.2827,0.5312-0.2407c0.0811,0.0161,0.1621,0.0239,0.2412,0.0239
		l0,0c0.3154,0,0.6133-0.1235,0.8389-0.3477c0.2285-0.2256,0.3535-0.5273,0.3535-0.8486c0-0.7393-0.6768-1.3208-1.4336-1.1724
		c-0.21,0.0449-0.4238-0.0547-0.5312-0.2407c-0.1064-0.1855-0.083-0.4189,0.0586-0.5801c0.3193-0.3628,0.3916-0.8403,0.1943-1.2773
		c-0.1533-0.3398-0.5205-0.7031-1.0879-0.7031c-0.5127,0-0.9668,0.3311-1.1289,0.8237c-0.1348,0.4102-0.8145,0.4106-0.9492,0.0005
		c-0.1689-0.5127-0.585-0.8188-1.1113-0.8188c-0.6035,0-1.2139,0.4092-1.2139,1.1904c0,0.3643,0.165,0.6284,0.3037,0.7856
		c0.1406,0.1611,0.1641,0.394,0.0566,0.5801c-0.1064,0.1851-0.3213,0.2837-0.5303,0.2402
		c-0.7529-0.1484-1.4336,0.4326-1.4336,1.1719c0,0.7388,0.6807,1.3247,1.4336,1.1724c0.2109-0.042,0.4238,0.0552,0.5312,0.2407
		c0.1064,0.1855,0.083,0.4189-0.0586,0.5801c-0.1377,0.1567-0.3027,0.4204-0.3027,0.7842c0,0.7817,0.6104,1.1904,1.2129,1.1904
		c0.5273,0,0.9434-0.3062,1.1123-0.8184C17.8799,8.5205,18.0713,8.3823,18.2871,8.3823z"/>
	<path d="M7.2988,16.418c-0.6333,0-1.1909-0.248-1.5859-0.6807c-0.3955,0.4326-0.9531,0.6807-1.5864,0.6807
		c-1.0728,0-2.2134-0.7676-2.2134-2.1904c0-0.2168,0.0332-0.4316,0.0972-0.6367c-0.9731-0.2246-1.7007-1.0986-1.7007-2.1406
		c0-1.0415,0.7271-1.916,1.6992-2.1406c-0.1543-0.4976-0.125-1.041,0.1016-1.5415c0.3599-0.7964,1.126-1.2915,1.999-1.2915
		c0.6191,0,1.1914,0.2607,1.5962,0.6948c0.3955-0.438,0.9561-0.6895,1.5928-0.6895c1.0737,0,2.2144,0.7676,2.2144,2.1904
		c0,0.2173-0.0332,0.4316-0.0972,0.6372c0.9731,0.2241,1.7007,1.0991,1.7007,2.1406c0,0.5908-0.231,1.1455-0.6509,1.5605
		c-0.2949,0.291-0.6567,0.4893-1.0498,0.5801c0.064,0.2051,0.0972,0.4199,0.0972,0.6367C9.5127,15.6504,8.3721,16.418,7.2988,16.418
		z M5.7129,14.2568c0.2158,0,0.4072,0.1387,0.4746,0.3428c0.1694,0.5127,0.5845,0.8184,1.1113,0.8184
		c0.603,0,1.2139-0.4092,1.2139-1.1904c0-0.3643-0.1646-0.6279-0.3027-0.7852c-0.1421-0.1602-0.1655-0.3936-0.0581-0.5801
		c0.1069-0.1846,0.3203-0.2832,0.5308-0.2402c0.4058,0.0781,0.7969-0.0439,1.0796-0.3232c0.2285-0.2256,0.354-0.5269,0.354-0.8486
		c0.0005-0.7393-0.6792-1.3267-1.4326-1.1719c-0.2085,0.0405-0.4238-0.0542-0.5317-0.2402C8.0444,9.8525,8.0679,9.6187,8.21,9.4575
		c0.1382-0.1567,0.3027-0.4204,0.3027-0.7852c0-0.7812-0.6108-1.1904-1.2144-1.1904c-0.5264,0-0.9414,0.3062-1.1108,0.8188
		c-0.1348,0.4102-0.8145,0.4102-0.9492,0C5.0752,7.8076,4.6221,7.4766,4.1094,7.4766c-0.5679,0-0.9341,0.3633-1.0879,0.7036
		c-0.1978,0.437-0.125,0.9146,0.1948,1.2778c0.1416,0.1611,0.1646,0.3945,0.0571,0.5806c-0.1069,0.1855-0.3184,0.2808-0.5317,0.2397
		c-0.752-0.1538-1.4321,0.4326-1.4321,1.1719c0.0005,0.7383,0.6816,1.3291,1.4331,1.1719c0.2139-0.043,0.4243,0.0557,0.5312,0.2402
		c0.1069,0.1855,0.084,0.4189-0.0576,0.5801c-0.1382,0.1572-0.3032,0.4209-0.3032,0.7852c0,0.7812,0.6104,1.1904,1.2134,1.1904
		c0.5269,0,0.9424-0.3057,1.1118-0.8174C5.3057,14.3955,5.4971,14.2568,5.7129,14.2568z"/>
	<path d="M16.1113,15.7852c-1.001,0-2.001-0.4922-2.9717-1.4639c-0.1406-0.1406-0.1846-0.3516-0.1113-0.5371
		c0.4697-1.1924,1.5137-1.8223,3.0186-1.8223c1.6182,0,3.252,0.7256,3.3213,0.7568c0.127,0.0576,0.2246,0.165,0.2695,0.2979
		c0.0439,0.1328,0.0303,0.2773-0.0371,0.3994C19.5479,13.5127,18.2686,15.7852,16.1113,15.7852z M14.1025,13.8564
		c0.6875,0.6162,1.3623,0.9287,2.0088,0.9287c1.0527,0,1.8623-0.8203,2.2861-1.3691c-0.5654-0.1963-1.4766-0.4541-2.3506-0.4541
		C15.1006,12.9619,14.4609,13.2549,14.1025,13.8564z"/>
	<path d="M18.2871,7.4766c-1.0479,0-1.9004-0.8525-1.9004-1.9004s0.8525-1.9004,1.9004-1.9004s1.9004,0.8525,1.9004,1.9004
		S19.335,7.4766,18.2871,7.4766z M18.2871,4.6758c-0.4961,0-0.9004,0.4038-0.9004,0.9004s0.4043,0.9004,0.9004,0.9004
		s0.9004-0.4038,0.9004-0.9004S18.7832,4.6758,18.2871,4.6758z"/>
	<path d="M5.7129,13.3506c-1.0479,0-1.9004-0.8525-1.9004-1.9004S4.665,9.5498,5.7129,9.5498s1.9004,0.8525,1.9004,1.9004
		S6.7607,13.3506,5.7129,13.3506z M5.7129,10.5498c-0.4966,0-0.9004,0.4038-0.9004,0.9004s0.4038,0.9004,0.9004,0.9004
		s0.9004-0.4038,0.9004-0.9004S6.2095,10.5498,5.7129,10.5498z"/>
</g>
<rect fill="none" width="24" height="24"/>
</svg>
