<?xml version="1.0" encoding="utf-8"?>
<!-- Generator: Adobe Illustrator 18.1.0, SVG Export Plug-In . SVG Version: 6.00 Build 0)  -->
<svg version="1.1" id="Layer_1" xmlns="http://www.w3.org/2000/svg" xmlns:xlink="http://www.w3.org/1999/xlink" x="0px" y="0px"
	 width="24px" height="24px" viewBox="0 0 24 24" enable-background="new 0 0 24 24" xml:space="preserve">
<g>
	<path d="M18.2578,7.0352h-7.5576c-0.2764,0-0.5-0.2236-0.5-0.5c0-2.3193,1.96-4.2788,4.2793-4.2788s4.2783,1.9595,4.2783,4.2788
		C18.7578,6.8115,18.5342,7.0352,18.2578,7.0352z M11.2402,6.0352h6.4775c-0.249-1.5503-1.6309-2.7788-3.2383-2.7788
		C12.8711,3.2563,11.4893,4.4849,11.2402,6.0352z"/>
	<path d="M5.4941,23.9951c-0.2764,0-0.5-0.2236-0.5-0.5V6.749c0-3.4458,2.8032-6.249,6.249-6.249
		c1.4551,0,2.6436,0.6396,3.6357,1.9556c0.166,0.2202,0.1221,0.5337-0.0986,0.7002c-0.2188,0.1655-0.5322,0.1226-0.7002-0.0986
		C13.2686,1.9805,12.3936,1.5,11.2432,1.5c-2.8945,0-5.249,2.3545-5.249,5.249v16.7461
		C5.9941,23.7715,5.7705,23.9951,5.4941,23.9951z"/>
	<g>
		<g>
			<path d="M14.4795,9.5356c-0.2764,0-0.5-0.2236-0.5-0.5v-0.5c0-0.2764,0.2236-0.5,0.5-0.5s0.5,0.2236,0.5,0.5v0.5
				C14.9795,9.312,14.7559,9.5356,14.4795,9.5356z"/>
			<path d="M14.4795,20.4531c-0.2764,0-0.5-0.2236-0.5-0.5v-0.9092c0-0.2764,0.2236-0.5,0.5-0.5s0.5,0.2236,0.5,0.5v0.9092
				C14.9795,20.2295,14.7559,20.4531,14.4795,20.4531z M14.4795,16.8145c-0.2764,0-0.5-0.2236-0.5-0.5v-0.9102
				c0-0.2764,0.2236-0.5,0.5-0.5s0.5,0.2236,0.5,0.5v0.9102C14.9795,16.5908,14.7559,16.8145,14.4795,16.8145z M14.4795,13.1748
				c-0.2764,0-0.5-0.2236-0.5-0.5v-0.9097c0-0.2764,0.2236-0.5,0.5-0.5s0.5,0.2236,0.5,0.5v0.9097
				C14.9795,12.9512,14.7559,13.1748,14.4795,13.1748z"/>
			<path d="M14.4795,23.6826c-0.2764,0-0.5-0.2236-0.5-0.5v-0.5c0-0.2764,0.2236-0.5,0.5-0.5s0.5,0.2236,0.5,0.5v0.5
				C14.9795,23.459,14.7559,23.6826,14.4795,23.6826z"/>
		</g>
	</g>
	<g>
		<g>
			<path d="M12.3877,9.6396c-0.0283,0-0.0557-0.0024-0.084-0.0068c-0.2725-0.0459-0.4561-0.3037-0.4102-0.5762l0.083-0.4927
				c0.0459-0.2729,0.3115-0.4507,0.5762-0.4102c0.2725,0.0459,0.4561,0.3037,0.4102,0.5762l-0.083,0.4927
				C12.8389,9.4668,12.627,9.6396,12.3877,9.6396z"/>
			<path d="M10.5693,20.3906c-0.0273,0-0.0557-0.002-0.084-0.0068c-0.272-0.0459-0.4556-0.3047-0.4097-0.5762l0.1514-0.8955
				c0.0464-0.2725,0.2979-0.46,0.5767-0.4102c0.272,0.0459,0.4556,0.3047,0.4097,0.5762l-0.1514,0.8955
				C11.0205,20.2178,10.8091,20.3906,10.5693,20.3906z M11.1753,16.8066c-0.0273,0-0.0557-0.002-0.084-0.0068
				c-0.272-0.0459-0.4556-0.3047-0.4097-0.5762l0.1514-0.8955c0.0459-0.2725,0.2979-0.458,0.5767-0.4102
				c0.272,0.0459,0.4556,0.3047,0.4097,0.5762l-0.1514,0.8955C11.6265,16.6338,11.415,16.8066,11.1753,16.8066z M11.7812,13.2236
				c-0.0273,0-0.0557-0.002-0.084-0.0068c-0.272-0.0459-0.4556-0.3037-0.4097-0.5762l0.1514-0.8965
				c0.0459-0.272,0.2974-0.4561,0.5767-0.4097c0.2725,0.0464,0.4551,0.3042,0.4092,0.5767l-0.1514,0.8955
				C12.2324,13.0508,12.0205,13.2236,11.7812,13.2236z"/>
			<path d="M10.0317,23.5713c-0.0273,0-0.0552-0.002-0.0835-0.0068c-0.2725-0.0459-0.4561-0.3037-0.4102-0.5762l0.083-0.4932
				c0.0454-0.2725,0.2983-0.4609,0.5762-0.4102c0.2725,0.0459,0.4561,0.3037,0.4102,0.5762l-0.083,0.4932
				C10.4834,23.3984,10.2715,23.5713,10.0317,23.5713z"/>
		</g>
	</g>
	<g>
		<g>
			<path d="M16.5811,9.6396c-0.2393,0-0.4512-0.1729-0.4922-0.417L16.0059,8.73C15.96,8.4575,16.1436,8.1997,16.416,8.1538
				c0.2676-0.042,0.5303,0.1372,0.5762,0.4102l0.083,0.4927c0.0459,0.2725-0.1377,0.5303-0.4102,0.5762
				C16.6367,9.6372,16.6094,9.6396,16.5811,9.6396z"/>
			<path d="M18.3984,20.3906c-0.2393,0-0.4512-0.1729-0.4922-0.417l-0.1514-0.8955c-0.0459-0.2715,0.1377-0.5303,0.4102-0.5762
				c0.2676-0.0469,0.5303,0.1377,0.5762,0.4102l0.1514,0.8955c0.0459,0.2715-0.1377,0.5303-0.4102,0.5762
				C18.4541,20.3887,18.4268,20.3906,18.3984,20.3906z M17.793,16.8066c-0.2393,0-0.4512-0.1729-0.4922-0.417l-0.1514-0.8955
				c-0.0459-0.2715,0.1377-0.5303,0.4102-0.5762c0.2686-0.0469,0.5303,0.1377,0.5762,0.4102l0.1514,0.8955
				c0.0459,0.2715-0.1377,0.5303-0.4102,0.5762C17.8486,16.8047,17.8213,16.8066,17.793,16.8066z M17.1875,13.2236
				c-0.2393,0-0.4512-0.1729-0.4922-0.417l-0.1514-0.8955c-0.0459-0.2725,0.1377-0.5303,0.4102-0.5767
				c0.2695-0.0391,0.5303,0.1377,0.5762,0.4097l0.1514,0.8965c0.0459,0.2725-0.1377,0.5303-0.4102,0.5762
				C17.2432,13.2217,17.2158,13.2236,17.1875,13.2236z"/>
			<path d="M18.9375,23.5713c-0.2393,0-0.4502-0.1719-0.4922-0.416l-0.084-0.4932c-0.0459-0.2725,0.1367-0.5303,0.4092-0.5771
				c0.2705-0.0449,0.5303,0.1357,0.5771,0.4092l0.084,0.4932c0.0459,0.2725-0.1367,0.5303-0.4092,0.5771
				C18.9941,23.5693,18.9658,23.5713,18.9375,23.5713z"/>
		</g>
	</g>
</g>
<rect x="0.0142" y="0.0354" fill="none" width="24" height="24"/>
</svg>
