<?xml version="1.0" encoding="utf-8"?>
<!-- Generator: Adobe Illustrator 18.1.0, SVG Export Plug-In . SVG Version: 6.00 Build 0)  -->
<svg version="1.1" id="Layer_1" xmlns="http://www.w3.org/2000/svg" xmlns:xlink="http://www.w3.org/1999/xlink" x="0px" y="0px"
	 width="24px" height="24px" viewBox="0 0 24 24" enable-background="new 0 0 24 24" xml:space="preserve">
<g>
	<path d="M4.6318,20.499c-0.1748,0-0.3477-0.043-0.5068-0.126c-0.2598-0.1357-0.4507-0.3643-0.5376-0.6436L0.1748,8.8247
		c-0.0879-0.2793-0.061-0.5762,0.0747-0.8359C0.3853,7.7295,0.6143,7.5381,0.894,7.4512l4.9116-1.5073
		c0.2637-0.084,0.5439,0.0674,0.6245,0.3315c0.0811,0.2637-0.0674,0.5435-0.3315,0.6245L1.1895,8.4062L1.1289,8.5259l3.4126,10.9048
		l0.2705,0.54l-0.1499-0.4766l7.2905-2.291c0.2671-0.0869,0.5454,0.0635,0.6265,0.3271c0.083,0.2627-0.0635,0.5439-0.3271,0.626
		l-7.29,2.291C4.8535,20.4814,4.7422,20.499,4.6318,20.499z"/>
	<path d="M17.8086,6.4077c-0.21,0-0.4062-0.1338-0.4756-0.3442l-0.7734-2.3594c-0.0146-0.0488-0.0781-0.085-0.1201-0.0698
		L11.4224,5.167c-0.2642,0.082-0.5444-0.0684-0.624-0.332c-0.0811-0.2642,0.0679-0.5435,0.332-0.624l5.0122-1.5317
		c0.2754-0.0874,0.5723-0.0605,0.832,0.0757c0.2588,0.1357,0.4502,0.3647,0.5381,0.644l0.7715,2.353
		c0.0859,0.2622-0.0576,0.5449-0.3203,0.6309C17.9131,6.3999,17.8604,6.4077,17.8086,6.4077z"/>
	<path d="M20.5303,19.7412L20.5303,19.7412c-0.0674,0-0.1348-0.0059-0.2021-0.0186L4.624,16.7939
		c-0.5938-0.1104-0.9868-0.6846-0.877-1.2783L5.8423,4.2827c0.1094-0.5845,0.6714-0.9883,1.2788-0.8774l15.7041,2.9292
		c0.5938,0.1113,0.9873,0.6851,0.876,1.2793l-2.0947,11.2329C21.5098,19.3652,21.0566,19.7412,20.5303,19.7412z M6.9331,4.3882
		c-0.0552,0-0.0981,0.0273-0.1074,0.0781L4.7305,15.6982c-0.0098,0.0518,0.0249,0.1035,0.0771,0.1133l15.7227,2.9297l0,0
		c0.0381,0,0.084-0.0273,0.0938-0.0781l2.0947-11.2329c0.0098-0.0532-0.0244-0.1025-0.0771-0.1123L6.938,4.3887
		C6.9365,4.3887,6.9351,4.3882,6.9331,4.3882z"/>
	<path d="M9.8252,11.3032c-1.1587,0-2.1011-0.9424-2.1011-2.1011s0.9424-2.1016,2.1011-2.1016s2.1016,0.9429,2.1016,2.1016
		S10.9839,11.3032,9.8252,11.3032z M9.8252,8.1006c-0.6069,0-1.1011,0.4941-1.1011,1.1016c0,0.6069,0.4941,1.1011,1.1011,1.1011
		c0.6074,0,1.1016-0.4941,1.1016-1.1011C10.9268,8.5947,10.4326,8.1006,9.8252,8.1006z"/>
	<path d="M7.6655,17.2871c-0.1328,0-0.2656-0.0527-0.3643-0.1572c-0.189-0.2012-0.1792-0.5176,0.022-0.707l6.5293-6.1401
		c0.1162-0.1094,0.2812-0.1562,0.4326-0.1274c0.1562,0.0288,0.29,0.1299,0.3594,0.2725l1.2598,2.585l3.0107-3.2271
		c0.1133-0.123,0.2822-0.1787,0.4473-0.1523c0.165,0.0273,0.3057,0.1353,0.374,0.2881l2.4258,5.3882
		c0.1133,0.252,0.001,0.5479-0.251,0.6611c-0.249,0.1143-0.5479,0.002-0.6611-0.251l-2.1172-4.7026l-2.9941,3.2095
		c-0.1113,0.1201-0.2783,0.1787-0.4395,0.1533c-0.1631-0.0244-0.3027-0.127-0.375-0.2754l-1.2812-2.6279l-6.0352,5.6748
		C7.9116,17.2422,7.7886,17.2871,7.6655,17.2871z"/>
</g>
<rect x="-0.0137" y="0.0002" fill="none" width="24" height="24"/>
</svg>
