<?xml version="1.0" encoding="utf-8"?>
<!-- Generator: Adobe Illustrator 18.1.0, SVG Export Plug-In . SVG Version: 6.00 Build 0)  -->
<svg version="1.1" id="Layer_1" xmlns="http://www.w3.org/2000/svg" xmlns:xlink="http://www.w3.org/1999/xlink" x="0px" y="0px"
	 width="24px" height="24px" viewBox="0 0 24 24" enable-background="new 0 0 24 24" xml:space="preserve">
<g>
	<path d="M15.7061,24.0283H8.3296c-0.5405,0-0.98-0.4004-0.98-0.8916l0.4863-3.0439c0.0444-0.2715,0.293-0.4629,0.5737-0.4131
		c0.2725,0.0439,0.4575,0.3008,0.4136,0.5732l-0.4487,2.7705l7.2944,0.0049l-0.4561-2.7754
		c-0.0449-0.2725,0.1406-0.5293,0.4131-0.5732c0.2686-0.0488,0.5293,0.1396,0.5732,0.4131l0.4805,2.9639
		C16.6865,23.6279,16.2471,24.0283,15.7061,24.0283z"/>
	<path d="M21.8926,18H2.1421c-1.1704,0-2.123-0.959-2.123-2.1377V2.1309C0.019,0.936,0.9517,0,2.1421,0h19.7505
		c1.1924,0,2.127,0.936,2.127,2.1309v13.7314C24.0195,17.041,23.0654,18,21.8926,18z M2.1421,1C1.5122,1,1.019,1.4966,1.019,2.1309
		v13.7314C1.019,16.5,1.5122,17,2.1421,17h19.7505c0.6318,0,1.127-0.5,1.127-1.1377V2.1309C23.0195,1.4966,22.5244,1,21.8926,1
		H2.1421z"/>
	<path d="M23.5195,15H0.5205c-0.2764,0-0.5-0.2236-0.5-0.5s0.2236-0.5,0.5-0.5h22.999c0.2764,0,0.5,0.2236,0.5,0.5
		S23.7959,15,23.5195,15z"/>
	<path d="M13.9727,12.0156h-3.9062c-0.6958,0-1.2617-0.5664-1.2617-1.2622L8.4702,7.2852C8.4678,6.5415,9.0337,5.9756,9.729,5.9756
		h4.5815c0.6953,0,1.2617,0.5659,1.2617,1.2617l-0.3389,3.564C15.2354,11.4492,14.6689,12.0156,13.9727,12.0156z M9.729,6.9756
		c-0.144,0-0.2612,0.1172-0.2612,0.2617l0.3345,3.4683c0.0024,0.1924,0.1196,0.3096,0.2642,0.3096h3.9062
		c0.1445,0,0.2627-0.1172,0.2627-0.2617l0.3389-3.564c-0.002-0.0967-0.1191-0.2139-0.2637-0.2139H9.729z"/>
	<path d="M13.5576,6.8726c-0.2764,0-0.5-0.2236-0.5-0.5V4.9404c0-0.5229-0.4658-0.9482-1.0381-0.9482s-1.0376,0.4253-1.0376,0.9482
		v1.4321c0,0.2764-0.2236,0.5-0.5,0.5s-0.5-0.2236-0.5-0.5V4.9404c0-1.0742,0.9141-1.9482,2.0376-1.9482
		c1.124,0,2.0381,0.874,2.0381,1.9482v1.4321C14.0576,6.6489,13.834,6.8726,13.5576,6.8726z"/>
	<path d="M12.0195,10.3027c-0.2764,0-0.5-0.2236-0.5-0.5V8.9956c0-0.2764,0.2236-0.5,0.5-0.5s0.5,0.2236,0.5,0.5v0.8071
		C12.5195,10.0791,12.2959,10.3027,12.0195,10.3027z"/>
</g>
<rect fill="none" width="24" height="24"/>
</svg>
