<?xml version="1.0" encoding="utf-8"?>
<!-- Generator: Adobe Illustrator 18.1.0, SVG Export Plug-In . SVG Version: 6.00 Build 0)  -->
<svg version="1.1" id="Layer_1" xmlns="http://www.w3.org/2000/svg" xmlns:xlink="http://www.w3.org/1999/xlink" x="0px" y="0px"
	 width="24px" height="24px" viewBox="0 0 24 24" enable-background="new 0 0 24 24" xml:space="preserve">
<g>
	<path d="M10.6709,7.5674c-0.1592,0-0.3159-0.0757-0.4131-0.2173L5.8325,0.8965C5.6768,0.6689,5.7344,0.3574,5.9624,0.2012
		c0.228-0.1553,0.5386-0.0986,0.6953,0.1299l4.4253,6.4536c0.1558,0.2275,0.0981,0.5391-0.1299,0.6953
		C10.8667,7.5391,10.7681,7.5674,10.6709,7.5674z"/>
	<path d="M9.7974,12.3809c-0.1592,0-0.3159-0.0762-0.4131-0.2168L1.6582,0.8965C1.5024,0.6689,1.5601,0.3574,1.7881,0.2012
		c0.2285-0.1553,0.5381-0.0986,0.6953,0.1299l7.7261,11.2671c0.1558,0.2275,0.0981,0.5386-0.1299,0.6948
		C9.9932,12.3525,9.8945,12.3809,9.7974,12.3809z"/>
	<path d="M14.2344,12.4307c-0.0977,0-0.1953-0.0283-0.2812-0.0869c-0.2285-0.1553-0.2871-0.4658-0.1318-0.6943l7.6963-11.3169
		c0.1562-0.229,0.4688-0.2861,0.6943-0.1323c0.2285,0.1553,0.2871,0.4663,0.1318,0.6948l-7.6963,11.3169
		C14.5508,12.3545,14.3936,12.4307,14.2344,12.4307z"/>
	<path d="M10.1372,12.2695c-0.0972,0-0.1958-0.0283-0.2822-0.0879c-0.228-0.1562-0.2856-0.4673-0.1299-0.6948l6.7554-9.8506
		c0.1572-0.228,0.4668-0.2842,0.6953-0.1299c0.2275,0.1562,0.2852,0.4678,0.1289,0.6953l-6.7544,9.8511
		C10.4531,12.1934,10.2964,12.2695,10.1372,12.2695z"/>
	<path d="M11.9492,23.9375c-3.686,0-6.6851-2.8994-6.6851-6.4639s2.999-6.4648,6.6851-6.4648c3.6865,0,6.6855,2.9004,6.6855,6.4648
		S15.6357,23.9375,11.9492,23.9375z M11.9492,12.0088c-3.1348,0-5.6851,2.4512-5.6851,5.4648c0,3.0127,2.5503,5.4639,5.6851,5.4639
		s5.6855-2.4512,5.6855-5.4639C17.6348,14.46,15.084,12.0088,11.9492,12.0088z"/>
	<path d="M12.4141,20.834c-0.2764,0-0.5-0.2236-0.5-0.5v-4.8223l-0.6128,0.2256c-0.2583,0.0967-0.5469-0.0361-0.6426-0.2959
		c-0.0952-0.2588,0.0371-0.5459,0.2959-0.6416l1.2866-0.4746c0.1504-0.0586,0.3242-0.0361,0.459,0.0586
		c0.1338,0.0938,0.2139,0.2471,0.2139,0.4102v5.54C12.9141,20.6104,12.6904,20.834,12.4141,20.834z"/>
</g>
<rect x="0.0293" y="-0.0001" fill="none" width="24" height="24"/>
</svg>
