<?xml version="1.0" encoding="utf-8"?>
<!-- Generator: Adobe Illustrator 18.1.0, SVG Export Plug-In . SVG Version: 6.00 Build 0)  -->
<svg version="1.1" id="Layer_1" xmlns="http://www.w3.org/2000/svg" xmlns:xlink="http://www.w3.org/1999/xlink" x="0px" y="0px"
	 width="24px" height="24px" viewBox="0 0 24 24" enable-background="new 0 0 24 24" xml:space="preserve">
<g>
	<path d="M7.3877,17.123c-0.1279,0-0.2559-0.0488-0.3535-0.1465c-0.1953-0.1953-0.1953-0.5117,0-0.707l9.2412-9.2412
		c0.1953-0.1953,0.5117-0.1953,0.707,0s0.1953,0.5117,0,0.707l-9.2412,9.2412C7.6436,17.0742,7.5156,17.123,7.3877,17.123z"/>
	<path d="M16.6289,17.123c-0.1279,0-0.2559-0.0488-0.3535-0.1465L7.0342,7.7354c-0.1953-0.1953-0.1953-0.5117,0-0.707
		s0.5117-0.1953,0.707,0l9.2412,9.2412c0.1953,0.1953,0.1953,0.5117,0,0.707C16.8848,17.0742,16.7568,17.123,16.6289,17.123z"/>
	<path d="M12.0068,23.8848c-6.5518,0-11.8823-5.3301-11.8823-11.8818c0-6.5522,5.3306-11.8828,11.8823-11.8828
		s11.8818,5.3306,11.8818,11.8828C23.8887,18.5547,18.5586,23.8848,12.0068,23.8848z M12.0068,1.1201
		c-6.0005,0-10.8823,4.8818-10.8823,10.8828c0,6,4.8818,10.8818,10.8823,10.8818c6,0,10.8818-4.8818,10.8818-10.8818
		C22.8887,6.002,18.0068,1.1201,12.0068,1.1201z"/>
</g>
<rect y="0.001" fill="none" width="24" height="24"/>
</svg>
