<?xml version="1.0" encoding="utf-8"?>
<!-- Generator: Adobe Illustrator 18.1.0, SVG Export Plug-In . SVG Version: 6.00 Build 0)  -->
<svg version="1.1" id="Layer_1" xmlns="http://www.w3.org/2000/svg" xmlns:xlink="http://www.w3.org/1999/xlink" x="0px" y="0px"
	 width="24px" height="24px" viewBox="0 0 24 24" enable-background="new 0 0 24 24" xml:space="preserve">
<g>
	<path d="M14.4492,21.001H2.4668c-0.2764,0-0.5-0.2236-0.5-0.5s0.2236-0.5,0.5-0.5h11.9824c0.2764,0,0.5,0.2236,0.5,0.5
		S14.7256,21.001,14.4492,21.001z"/>
	<path d="M22.0146,23.5664c-0.1279,0-0.2559-0.0488-0.3535-0.1465l-5.1299-5.1309c-0.1953-0.1953-0.1953-0.5117,0-0.707
		s0.5117-0.1953,0.707,0l5.1299,5.1309c0.1953,0.1953,0.1953,0.5117,0,0.707C22.2705,23.5176,22.1426,23.5664,22.0146,23.5664z"/>
	<path d="M16.8848,23.5664c-0.1279,0-0.2559-0.0488-0.3535-0.1465c-0.1953-0.1953-0.1953-0.5117,0-0.707l5.1299-5.1309
		c0.1953-0.1953,0.5117-0.1953,0.707,0s0.1953,0.5117,0,0.707l-5.1299,5.1309C17.1406,23.5176,17.0127,23.5664,16.8848,23.5664z"/>
	<path d="M9.4746,18.001H7.5005c-0.2764,0-0.5-0.2236-0.5-0.5s0.2236-0.5,0.5-0.5h1.9741c0.2764,0,0.5,0.2236,0.5,0.5
		S9.751,18.001,9.4746,18.001z"/>
	<path d="M2.5,5.001c-0.2764,0-0.5-0.2236-0.5-0.5v-1c0-0.2764,0.2236-0.5,0.5-0.5S3,3.2246,3,3.501v1
		C3,4.7773,2.7764,5.001,2.5,5.001z"/>
	<path d="M14.5,5.001c-0.2764,0-0.5-0.2236-0.5-0.5v-1c0-0.2764,0.2236-0.5,0.5-0.5s0.5,0.2236,0.5,0.5v1
		C15,4.7773,14.7764,5.001,14.5,5.001z"/>
	<path d="M14.5,4.001h-12c-0.2764,0-0.5-0.2236-0.5-0.5s0.2236-0.5,0.5-0.5h12c0.2764,0,0.5,0.2236,0.5,0.5
		S14.7764,4.001,14.5,4.001z"/>
	<path d="M8.5,18.001c-0.2764,0-0.5-0.2236-0.5-0.5v-14c0-0.2764,0.2236-0.5,0.5-0.5S9,3.2246,9,3.501v14
		C9,17.7773,8.7764,18.001,8.5,18.001z"/>
</g>
<rect y="0.0011" fill="none" width="24" height="24"/>
</svg>
