<?xml version="1.0" encoding="utf-8"?>
<!-- Generator: Adobe Illustrator 18.1.0, SVG Export Plug-In . SVG Version: 6.00 Build 0)  -->
<svg version="1.1" id="Layer_1" xmlns="http://www.w3.org/2000/svg" xmlns:xlink="http://www.w3.org/1999/xlink" x="0px" y="0px"
	 width="24px" height="24px" viewBox="0 0 24 24" enable-background="new 0 0 24 24" xml:space="preserve">
<g>
	<path d="M15.7627,24H8.21c-0.3188,0-0.623-0.1396-0.8345-0.3828c-0.2139-0.2451-0.311-0.5703-0.2661-0.8916l0.9927-7.1562
		c0.0376-0.2744,0.2915-0.4619,0.564-0.4268c0.2734,0.0381,0.4644,0.29,0.4263,0.5635l-0.9927,7.1572
		c-0.0063,0.0479,0.0161,0.082,0.0303,0.0977L15.7627,23c0.0938-0.0547,0.1172-0.0889,0.1104-0.1367l-0.9893-7.1387
		c-0.0381-0.2734,0.1533-0.5254,0.4268-0.5635c0.2686-0.0361,0.5254,0.1514,0.5635,0.4268l0.9893,7.1387
		c0.0449,0.3213-0.0527,0.6465-0.2666,0.8916C16.3857,23.8613,16.0811,24,15.7627,24z"/>
	<path d="M14.7783,11.71c-0.2412,0-0.4541-0.1758-0.4932-0.4224l-0.1533-0.9756c-0.1484-1.0732-1.0703-1.876-2.1455-1.876
		c-1.0747,0-1.9971,0.8027-2.145,1.8672l-0.1582,0.9858c-0.0439,0.2729-0.3008,0.457-0.5728,0.4146
		c-0.2729-0.0439-0.4585-0.3003-0.4146-0.5728l0.1567-0.9756C9.0674,8.6094,10.415,7.436,11.9863,7.436s2.9189,1.1733,3.1348,2.7295
		l0.1523,0.9668c0.043,0.2729-0.1436,0.5288-0.417,0.5718C14.8311,11.708,14.8047,11.71,14.7783,11.71z"/>
	<path d="M13.4863,24h-3c-0.2764,0-0.5-0.2236-0.5-0.5v-3.043c0-1.1094,0.897-2.0117,2-2.0117c1.1025,0,2,0.9023,2,2.0117V23.5
		C13.9863,23.7764,13.7627,24,13.4863,24z M10.9863,23h2v-2.543c0-0.5576-0.4482-1.0117-1-1.0117c-0.5513,0-1,0.4541-1,1.0117V23z"
		/>
	<path d="M5.144,20.0684c-0.1323,0-0.2598-0.0527-0.3535-0.1465l-2.5562-2.5557c-0.0977-0.0977-0.1509-0.2314-0.146-0.3701
		c0.0044-0.1377,0.0659-0.2686,0.1699-0.3594l6.8306-5.9844c0.1978-0.1748,0.4971-0.1641,0.6831,0.0225l1.71,1.709
		c0.186,0.1865,0.1963,0.4854,0.0225,0.6826L5.52,19.8975c-0.0908,0.1045-0.2212,0.166-0.3594,0.1709
		C5.1553,20.0684,5.1494,20.0684,5.144,20.0684z M3.3193,17.0371l1.8008,1.7998l5.3237-6.0771L9.396,11.7129L3.3193,17.0371z"/>
	<path d="M14.5537,9.812c-0.1279,0-0.2559-0.0493-0.3535-0.1465l-1.709-1.71c-0.1865-0.1865-0.1963-0.4849-0.0225-0.6831
		l5.9844-6.8306c0.0908-0.104,0.2217-0.1655,0.3594-0.1699c0.1387-0.0181,0.2725,0.0479,0.3701,0.146l2.5557,2.5562
		c0.0977,0.0977,0.1504,0.2319,0.1465,0.3701c-0.0049,0.1382-0.0664,0.2686-0.1709,0.3594L14.8828,9.688
		C14.7891,9.771,14.6709,9.812,14.5537,9.812z M13.5293,7.5796l1.0469,1.0479l6.0771-5.3237l-1.7998-1.8008L13.5293,7.5796z"/>
	<path d="M18.8291,20.0684c-0.0059,0-0.0107,0-0.0166,0c-0.1377-0.0049-0.2686-0.0664-0.3594-0.1709l-5.9844-6.8311
		c-0.1738-0.1973-0.1641-0.4961,0.0225-0.6826l1.709-1.709c0.1875-0.1855,0.4873-0.1963,0.6826-0.0225l6.8311,5.9844
		c0.1045,0.0908,0.166,0.2217,0.1709,0.3594c0.0039,0.1387-0.0488,0.2725-0.1465,0.3701l-2.5557,2.5557
		C19.0889,20.0156,18.9619,20.0684,18.8291,20.0684z M13.5293,12.7598l5.3242,6.0771l1.7998-1.7998l-6.0771-5.3242L13.5293,12.7598z
		"/>
	<path d="M9.4185,9.812c-0.1172,0-0.2349-0.041-0.3296-0.124L2.2583,3.7036c-0.104-0.0908-0.1655-0.2212-0.1699-0.3594
		c-0.0049-0.1382,0.0483-0.2725,0.146-0.3701L4.7905,0.418c0.0977-0.0977,0.2222-0.1621,0.3701-0.146
		C5.2988,0.2764,5.4292,0.3379,5.52,0.4419l5.9844,6.8306c0.1738,0.1982,0.1636,0.4971-0.0225,0.6831l-1.71,1.71
		C9.6748,9.7627,9.5469,9.812,9.4185,9.812z M3.3193,3.3037L9.396,8.6274l1.0479-1.0479L5.1201,1.5029L3.3193,3.3037z"/>
	<path d="M13.6992,12.3828c-0.1279,0-0.2559-0.0488-0.3535-0.1465L9.9199,8.8105c-0.1953-0.1953-0.1953-0.5117,0-0.707
		s0.5117-0.1953,0.707,0l3.4258,3.4258c0.1953,0.1953,0.1953,0.5117,0,0.707C13.9551,12.334,13.8271,12.3828,13.6992,12.3828z"/>
	<path d="M10.2734,12.3828c-0.1279,0-0.2559-0.0488-0.3535-0.1465c-0.1953-0.1953-0.1953-0.5117,0-0.707l3.4258-3.4258
		c0.1953-0.1953,0.5117-0.1953,0.707,0s0.1953,0.5117,0,0.707l-3.4258,3.4258C10.5293,12.334,10.4014,12.3828,10.2734,12.3828z"/>
</g>
<rect x="-0.0136" y="0.0001" fill="none" width="24" height="24"/>
</svg>
