<?xml version="1.0" encoding="utf-8"?>
<!-- Generator: Adobe Illustrator 18.1.0, SVG Export Plug-In . SVG Version: 6.00 Build 0)  -->
<svg version="1.1" id="Layer_1" xmlns="http://www.w3.org/2000/svg" xmlns:xlink="http://www.w3.org/1999/xlink" x="0px" y="0px"
	 width="24px" height="24px" viewBox="0 0 24 24" enable-background="new 0 0 24 24" xml:space="preserve">
<g>
	<path d="M10.4756,6.8716c-0.0146,0-0.0298-0.0005-0.0449-0.002C10.3521,6.8628,9.6562,6.7817,9.3438,6.125
		c-0.3145-0.6606-0.0801-1.5571,0.7168-2.7393c0.8574-1.2729,0.8218-1.8325,0.7666-2.0137
		c-0.0386-0.1284-0.1182-0.1665-0.1338-0.1729c-0.2651-0.0767-0.4077-0.3501-0.3315-0.6152
		c0.0767-0.2651,0.3643-0.4165,0.6294-0.3389c0.0562,0.0161,0.5547,0.1748,0.769,0.7637c0.2612,0.7188-0.0234,1.6792-0.8706,2.9355
		c-0.8027,1.1914-0.6953,1.6416-0.6431,1.751c0.0693,0.146,0.271,0.1782,0.2729,0.1782c0.2754,0.0249,0.478,0.2676,0.4536,0.5425
		C10.9497,6.6763,10.7314,6.8716,10.4756,6.8716z"/>
	<path d="M12.8604,6.8721c-0.0156,0-0.0312-0.0005-0.0479-0.002c-0.2578-0.0234-0.6201-0.1802-0.7939-0.5464
		c-0.2148-0.4517-0.0762-1.0317,0.4238-1.7734c0.4805-0.7129,0.4102-0.9634,0.4092-0.9658
		c-0.2656-0.0767-0.377-0.3281-0.3008-0.5933c0.0762-0.2661,0.3965-0.3916,0.6602-0.3169c0.2012,0.0581,0.46,0.2378,0.5801,0.5684
		c0.1738,0.4785,0.0049,1.0889-0.5186,1.8662c-0.3906,0.5791-0.3496,0.7891-0.3486,0.791c0.2744,0.0249,0.4668,0.2549,0.4424,0.5298
		C13.3428,6.6885,13.1162,6.8721,12.8604,6.8721z"/>
	<path d="M15.2363,13.0576c-0.2188,0-0.4199-0.1445-0.4814-0.3652c-0.0742-0.2666,0.0811-0.542,0.3467-0.6162
		c2.876-0.8027,4.5986-2.3638,4.7861-2.5391c0.6855-0.6431,0.7197-1.7251,0.0762-2.4116c-0.3115-0.332-0.7344-0.5229-1.1895-0.5376
		c-0.4482-0.0088-0.8887,0.1499-1.2207,0.4609c-0.0176,0.0156-1.2793,1.1572-3.3682,1.7397
		c-2.8867,0.8047-5.8687,0.1646-8.8711-1.9009C4.5391,6.355,3.4751,6.5503,2.9419,7.3262C2.4087,8.1016,2.606,9.1655,3.3809,9.6987
		c1.4688,1.0103,2.9805,1.7603,4.4932,2.23c0.2637,0.082,0.4111,0.3623,0.3291,0.626c-0.0815,0.2627-0.3589,0.4131-0.626,0.3291
		c-1.6084-0.499-3.2109-1.2939-4.7627-2.3608C1.585,9.6772,1.2725,7.9893,2.1177,6.7598c0.8457-1.2295,2.5352-1.541,3.7632-0.6963
		c2.7485,1.8901,5.4531,2.4829,8.0352,1.7622c1.8135-0.5059,2.9502-1.5034,2.9609-1.5132c0.5186-0.4873,1.2051-0.7534,1.9287-0.7241
		c0.7227,0.0229,1.3936,0.3262,1.8877,0.853c1.0205,1.0889,0.9658,2.8047-0.1221,3.8252c-0.2051,0.1924-2.0957,1.9062-5.2002,2.7725
		C15.3262,13.0518,15.2803,13.0576,15.2363,13.0576z"/>
	<path d="M2.5298,7.543H1.3311c-0.2764,0-0.5-0.2236-0.5-0.5s0.2236-0.5,0.5-0.5h0.0688L1.291,6.4233
		c-0.1855-0.2046-0.1704-0.521,0.0337-0.7065c0.2056-0.1846,0.521-0.1704,0.7065,0.0337l0.8687,0.9561
		c0.1328,0.1465,0.167,0.3579,0.0869,0.5386C2.9067,7.4263,2.7275,7.543,2.5298,7.543z"/>
	<path d="M21.9053,7.29c-0.001,0-0.001,0-0.002,0l-1.5771-0.0063C20.1348,7.2827,19.96,7.1729,19.877,7
		c-0.082-0.1729-0.0596-0.3774,0.0596-0.5273l0.8994-1.1313c0.1729-0.2173,0.4863-0.25,0.7031-0.0806
		c0.2158,0.1719,0.252,0.4868,0.0801,0.7026l-0.2578,0.3247l0.5459,0.002c0.2764,0.001,0.499,0.2261,0.498,0.502
		C22.4043,7.0674,22.1807,7.29,21.9053,7.29z"/>
	<path d="M11.5,23.9541c-0.2764,0-0.5-0.2236-0.5-0.5v-5.9199c0-0.2764,0.2236-0.5,0.5-0.5s0.5,0.2236,0.5,0.5v5.9199
		C12,23.7305,11.7764,23.9541,11.5,23.9541z"/>
	<path d="M11.5,15.0342c-0.2764,0-0.5-0.2236-0.5-0.5v-3.0396c0-0.2764,0.2236-0.5,0.5-0.5s0.5,0.2236,0.5,0.5v3.0396
		C12,14.8105,11.7764,15.0342,11.5,15.0342z"/>
	<path d="M13.5,15.0342c-0.2764,0-0.5-0.2236-0.5-0.5v-3.0396c0-0.2764,0.2236-0.5,0.5-0.5s0.5,0.2236,0.5,0.5v3.0396
		C14,14.8105,13.7764,15.0342,13.5,15.0342z"/>
	<path d="M9.5,15.0342c-0.2764,0-0.5-0.2236-0.5-0.5v-3.0396c0-0.2764,0.2236-0.5,0.5-0.5s0.5,0.2236,0.5,0.5v3.0396
		C10,14.8105,9.7764,15.0342,9.5,15.0342z"/>
	<path d="M11.7188,18.0342h-0.4204C10.0742,18.0342,9,16.917,9,15.6426v-1.1084c0-0.2764,0.2236-0.5,0.5-0.5h4
		c0.2764,0,0.5,0.2236,0.5,0.5v1.1084C14,16.9385,12.9551,18.0342,11.7188,18.0342z M10,15.0342v0.6084
		c0,0.7285,0.6187,1.3916,1.2983,1.3916h0.4204c0.6826,0,1.2812-0.6504,1.2812-1.3916v-0.6084H10z"/>
</g>
<rect y="0.0346" fill="none" width="24" height="24"/>
</svg>
