<?xml version="1.0" encoding="utf-8"?>
<!-- Generator: Adobe Illustrator 18.1.0, SVG Export Plug-In . SVG Version: 6.00 Build 0)  -->
<svg version="1.1" id="Layer_1" xmlns="http://www.w3.org/2000/svg" xmlns:xlink="http://www.w3.org/1999/xlink" x="0px" y="0px"
	 width="24px" height="24px" viewBox="0 0 24 24" enable-background="new 0 0 24 24" xml:space="preserve">
<g>
	<path d="M22.3906,2.001H1.458c-0.2764,0-0.5-0.2236-0.5-0.5s0.2236-0.5,0.5-0.5h20.9326c0.2764,0,0.5,0.2236,0.5,0.5
		S22.667,2.001,22.3906,2.001z"/>
	<path d="M18.5,5.001h-13c-0.2764,0-0.5-0.2236-0.5-0.5s0.2236-0.5,0.5-0.5h13c0.2764,0,0.5,0.2236,0.5,0.5
		S18.7764,5.001,18.5,5.001z"/>
	<path d="M22.3906,8.001H1.458c-0.2764,0-0.5-0.2236-0.5-0.5s0.2236-0.5,0.5-0.5h20.9326c0.2764,0,0.5,0.2236,0.5,0.5
		S22.667,8.001,22.3906,8.001z"/>
	<path d="M18.5,11.001h-13c-0.2764,0-0.5-0.2236-0.5-0.5s0.2236-0.5,0.5-0.5h13c0.2764,0,0.5,0.2236,0.5,0.5
		S18.7764,11.001,18.5,11.001z"/>
	<path d="M22.3906,14.001H1.458c-0.2764,0-0.5-0.2236-0.5-0.5s0.2236-0.5,0.5-0.5h20.9326c0.2764,0,0.5,0.2236,0.5,0.5
		S22.667,14.001,22.3906,14.001z"/>
	<path d="M18.5,17.001h-13c-0.2764,0-0.5-0.2236-0.5-0.5s0.2236-0.5,0.5-0.5h13c0.2764,0,0.5,0.2236,0.5,0.5
		S18.7764,17.001,18.5,17.001z"/>
	<path d="M22.3906,20.001H1.458c-0.2764,0-0.5-0.2236-0.5-0.5s0.2236-0.5,0.5-0.5h20.9326c0.2764,0,0.5,0.2236,0.5,0.5
		S22.667,20.001,22.3906,20.001z"/>
	<path d="M18.5,23.001h-13c-0.2764,0-0.5-0.2236-0.5-0.5s0.2236-0.5,0.5-0.5h13c0.2764,0,0.5,0.2236,0.5,0.5
		S18.7764,23.001,18.5,23.001z"/>
</g>
<rect y="0.0011" fill="none" width="24" height="24"/>
</svg>
