<?xml version="1.0" encoding="utf-8"?>
<!-- Generator: Adobe Illustrator 18.1.0, SVG Export Plug-In . SVG Version: 6.00 Build 0)  -->
<svg version="1.1" id="Layer_1" xmlns="http://www.w3.org/2000/svg" xmlns:xlink="http://www.w3.org/1999/xlink" x="0px" y="0px"
	 width="24px" height="24px" viewBox="0 0 24 24" enable-background="new 0 0 24 24" xml:space="preserve">
<g>
	<path d="M22,13.001H2c-0.2764,0-0.5-0.2236-0.5-0.5s0.2236-0.5,0.5-0.5h20c0.2764,0,0.5,0.2236,0.5,0.5S22.2764,13.001,22,13.001z"
		/>
	<path d="M11.8672,22.916c-2.1465,0-5.124-1.2354-7.0796-2.9375c-0.2085-0.1807-0.2305-0.4971-0.0488-0.7051
		c0.1812-0.208,0.4976-0.2305,0.7051-0.0488c1.7637,1.5342,4.5249,2.6914,6.4233,2.6914c3.0088,0,5.4561-2.1113,5.4561-4.707
		c0-2.1094-1.7783-3.6113-5.5962-4.7285c-3.2852-1.0288-6.3164-2.4282-6.3164-5.687c0-3.147,2.8965-5.7075,6.4565-5.7075
		c2.2988,0,4.4414,1.0928,5.5918,2.8516c0.1514,0.2314,0.0869,0.541-0.1445,0.6924c-0.2285,0.1499-0.54,0.0864-0.6914-0.1445
		c-0.9688-1.48-2.791-2.3994-4.7559-2.3994c-3.0088,0-5.4565,2.1118-5.4565,4.7075c0,2.6133,2.6943,3.8179,5.606,4.7305
		c2.7021,0.7896,6.3066,2.2417,6.3066,5.6851C18.3232,20.3555,15.4268,22.916,11.8672,22.916z"/>
</g>
<rect y="0.0011" fill="none" width="24" height="24"/>
</svg>
