<?xml version="1.0" encoding="utf-8"?>
<!-- Generator: Adobe Illustrator 18.1.0, SVG Export Plug-In . SVG Version: 6.00 Build 0)  -->
<svg version="1.1" id="Layer_1" xmlns="http://www.w3.org/2000/svg" xmlns:xlink="http://www.w3.org/1999/xlink" x="0px" y="0px"
	 width="24px" height="24px" viewBox="0 0 24 24" enable-background="new 0 0 24 24" xml:space="preserve">
<g>
	<path d="M11.9863,18.8545c-0.2764,0-0.5-0.2236-0.5-0.5s0.2236-0.5,0.5-0.5c0.5176,0,2.2188-1.0049,4.0684-2.8906
		c1.1328-1.1553,3.7607-4.1592,3.7021-7.0854c-0.0801-3.9907-4.082-6.6719-7.7705-6.6719c-0.2764,0-0.5-0.2236-0.5-0.5
		s0.2236-0.5,0.5-0.5c4.1611,0,8.6787,3.0747,8.7705,7.6523c0.0654,3.3052-2.7676,6.5591-3.9883,7.8052
		C15.2617,17.2002,13.123,18.8545,11.9863,18.8545z"/>
	<path d="M11.9863,18.8545c-0.2764,0-0.5-0.2236-0.5-0.5s0.2236-0.5,0.5-0.5c0.8281-0.2129,4.7256-5.4717,4.6689-9.9795
		c-0.0488-3.9297-2.5-6.6685-4.6689-6.6685c-0.2764,0-0.5-0.2236-0.5-0.5s0.2236-0.5,0.5-0.5c2.6914,0,5.6113,3.0762,5.6689,7.6558
		c0.0488,3.9009-2.5615,8.3838-4.3408,10.1855C12.6006,18.7705,12.2148,18.8545,11.9863,18.8545z"/>
	<path d="M11.9863,18.8545c-1.1362,0-3.2754-1.6543-4.7817-3.1904c-1.2212-1.2461-4.0542-4.5-3.9883-7.8052
		c0.0918-4.5776,4.6089-7.6523,8.77-7.6523c0.2764,0,0.5,0.2236,0.5,0.5s-0.2236,0.5-0.5,0.5c-3.688,0-7.6904,2.6812-7.77,6.6719
		c-0.0586,2.9263,2.5698,5.9302,3.7026,7.0854c1.8486,1.8857,3.5503,2.8906,4.0674,2.8906c0.2764,0,0.5,0.2236,0.5,0.5
		S12.2627,18.8545,11.9863,18.8545z"/>
	<path d="M11.9863,18.8545c-0.2285,0-0.6143-0.084-1.3286-0.8066c-1.7793-1.8018-4.3892-6.2847-4.3403-10.1855
		c0.0571-4.5796,2.9775-7.6558,5.6689-7.6558c0.2764,0,0.5,0.2236,0.5,0.5v17.6479C12.4863,18.6309,12.2627,18.8545,11.9863,18.8545
		z M11.4863,1.2534C9.4575,1.6313,7.3628,4.2451,7.3174,7.875c-0.0483,3.8662,2.812,8.2861,4.1689,9.6006V1.2534z"/>
	<path d="M13.0391,24h-2.106c-0.2495,0-0.4609-0.1836-0.4951-0.4316l-0.2778-2c-0.02-0.1426,0.0229-0.2881,0.1182-0.3965
		C10.373,21.0625,10.5107,21,10.6553,21h2.6621c0.1445,0,0.2822,0.0625,0.377,0.1719s0.1387,0.2539,0.1182,0.3975l-0.2783,2
		C13.5,23.8164,13.2881,24,13.0391,24z M11.3687,23h1.2349l0.1396-1h-1.5137L11.3687,23z"/>
</g>
<rect x="-0.0136" y="0.0001" fill="none" width="24" height="24"/>
</svg>
