<?xml version="1.0" encoding="utf-8"?>
<!-- Generator: Adobe Illustrator 18.1.0, SVG Export Plug-In . SVG Version: 6.00 Build 0)  -->
<svg version="1.1" id="Layer_1" xmlns="http://www.w3.org/2000/svg" xmlns:xlink="http://www.w3.org/1999/xlink" x="0px" y="0px"
	 width="24px" height="24px" viewBox="0 0 24 24" enable-background="new 0 0 24 24" xml:space="preserve">
<g>
	<path d="M12.2969,24.0205h-1.5376c-0.1323,0-0.2593-0.0527-0.353-0.1465l-0.8491-0.8467H8.522c-0.2764,0-0.5-0.2236-0.5-0.5
		v-5.0068c0-0.2764,0.2236-0.5,0.5-0.5h6.0122c0.2764,0,0.5,0.2236,0.5,0.5v5.0068c0,0.2764-0.2236,0.5-0.5,0.5H13.5l-0.8506,0.8477
		C12.5566,23.9678,12.4297,24.0205,12.2969,24.0205z M10.9658,23.0205h1.124l0.8496-0.8477
		c0.0938-0.0928,0.2207-0.1455,0.3535-0.1455h0.7412v-4.0068H9.022v4.0068h0.7417c0.1323,0,0.2593,0.0527,0.353,0.1465
		L10.9658,23.0205z"/>
	<path d="M14.127,18.0205c-0.0078,0-0.0166,0-0.0244,0H8.9541c-0.2764,0-0.5-0.2236-0.5-0.5c0-1.374-1.3613-3.4346-1.8862-4.1133
		c-0.0107-0.0137-0.0205-0.0283-0.0298-0.043c-1.4604-1.7236-2.3306-3.9746-2.3306-6.0371c0-3.9761,3.2837-7.2109,7.3203-7.2109
		s7.3208,3.2349,7.3208,7.2109c0,2.083-0.8877,4.3584-2.374,6.0869c0,0.001-1.8477,2.4492-1.8477,4.1064
		c0,0.2002-0.1201,0.3818-0.3037,0.46C14.2598,18.0078,14.1934,18.0205,14.127,18.0205z M9.416,17.0205h4.249
		c0.2734-1.9082,1.9551-4.1338,2.0332-4.2354c1.333-1.5527,2.1504-3.6353,2.1504-5.458c0-3.4248-2.8359-6.2109-6.3208-6.2109
		S5.2075,3.9023,5.2075,7.3271c0,1.8262,0.8198,3.9121,2.1392,5.4443c0.0239,0.0273,0.0444,0.0576,0.061,0.0879
		C7.7021,13.252,9.1611,15.2656,9.416,17.0205z"/>
	<path d="M11.5283,18.0205c-0.2764,0-0.5-0.2236-0.5-0.5v-7.3447c0-0.2764,0.2236-0.5,0.5-0.5s0.5,0.2236,0.5,0.5v7.3447
		C12.0283,17.7969,11.8047,18.0205,11.5283,18.0205z"/>
	<path d="M10.6133,11.5889c-0.6128,0-1.2896-0.3237-1.811-0.8662C8.4023,10.3066,8.1313,9.8052,8.04,9.3096
		c-0.1045-0.562,0.0356-1.0767,0.3838-1.4116c0.6577-0.6309,1.9497-0.4053,2.8081,0.4878c0.8931,0.9292,1.0591,2.1699,0.3779,2.8247
		C11.3525,11.458,11.0078,11.5889,10.6133,11.5889z M9.4209,8.5195c-0.1333,0-0.2354,0.0332-0.3037,0.0991
		C8.9731,8.7573,9.0034,9.021,9.0229,9.1279c0.0557,0.3003,0.2378,0.6289,0.5,0.9014c0.5938,0.6182,1.1875,0.6592,1.3936,0.4604
		c0.2334-0.2241,0.1094-0.8755-0.4053-1.4106C10.1792,8.7339,9.7612,8.5195,9.4209,8.5195z"/>
	<path d="M12.4424,11.5884c-0.3945,0-0.7397-0.1309-0.9971-0.3784c-0.6812-0.6558-0.5151-1.8965,0.3779-2.8247
		c0.8574-0.8921,2.1504-1.1191,2.8086-0.4878c0.3477,0.335,0.4883,0.8496,0.3838,1.4121c-0.0918,0.4951-0.3623,0.9966-0.7627,1.4126
		C13.7324,11.2642,13.0547,11.5884,12.4424,11.5884z M13.6348,8.519c-0.3408,0-0.7588,0.2144-1.0908,0.5596
		c-0.5146,0.5352-0.6387,1.186-0.4053,1.4106c0.2051,0.1978,0.7988,0.1572,1.3936-0.46c0.2617-0.2729,0.4443-0.6016,0.5-0.9023
		c0.0195-0.1064,0.0508-0.3701-0.0938-0.5088C13.8701,8.5522,13.7676,8.519,13.6348,8.519z"/>
</g>
<rect x="0.0142" y="0.0354" fill="none" width="24" height="24"/>
</svg>
