<?xml version="1.0" encoding="utf-8"?>
<!-- Generator: Adobe Illustrator 18.1.0, SVG Export Plug-In . SVG Version: 6.00 Build 0)  -->
<svg version="1.1" id="Layer_1" xmlns="http://www.w3.org/2000/svg" xmlns:xlink="http://www.w3.org/1999/xlink" x="0px" y="0px"
	 width="24px" height="24px" viewBox="0 0 24 24" enable-background="new 0 0 24 24" xml:space="preserve">
<g>
	<path d="M3.7241,22.9336c-0.1284,0-0.2563-0.0488-0.3535-0.1465l-2.1313-2.1309c-0.187-0.1865-0.1963-0.4873-0.021-0.6846
		L13.4912,6.0996c0.1826-0.2075,0.499-0.2251,0.7051-0.043c0.207,0.1831,0.2266,0.499,0.043,0.7061L2.2788,20.2812l1.4663,1.4658
		l13.582-12.0107c0.2051-0.1821,0.5205-0.1641,0.7061,0.0435c0.1826,0.2065,0.1631,0.5225-0.0439,0.7056L4.0552,22.8086
		C3.9604,22.8916,3.8423,22.9336,3.7241,22.9336z"/>
	<path d="M18.1445,10.6372c-1.3135,0-2.5312-0.4941-3.4287-1.3916c-0.9521-0.9517-1.4443-2.2451-1.3877-3.6426
		c0.0566-1.3813,0.6455-2.7007,1.6592-3.7139c1.0566-1.0571,2.4883-1.6631,3.9268-1.6631c1.3145,0,2.5322,0.4941,3.4297,1.3916
		c1.9531,1.9536,1.8311,5.2539-0.2715,7.3564C21.0156,10.0312,19.584,10.6372,18.1445,10.6372z M18.9141,1.2261
		c-1.1748,0-2.3486,0.499-3.2197,1.3701c-0.835,0.8354-1.3203,1.918-1.3672,3.0479c-0.0449,1.1147,0.3438,2.1426,1.0957,2.8945
		c0.708,0.7085,1.6748,1.0986,2.7217,1.0986c1.1758,0,2.3496-0.499,3.2207-1.3701c1.7129-1.7129,1.835-4.3789,0.2715-5.9424
		C20.9277,1.6162,19.9609,1.2261,18.9141,1.2261z"/>
	<path d="M21.0039,9.0781c-0.252,0-0.5332-0.0356-0.8477-0.1201c-2.1016-0.563-4.5293-2.9932-5.0928-5.0981
		c-0.2734-1.0195-0.0908-1.8848,0.5264-2.502c0.1953-0.1953,0.5117-0.1953,0.707,0s0.1953,0.5117,0,0.707
		c-0.3555,0.3555-0.4453,0.8721-0.2676,1.5361c0.4688,1.7485,2.6406,3.9233,4.3857,4.3911
		c0.6094,0.1626,1.0762,0.0908,1.3848-0.2163c0.1953-0.1953,0.5117-0.1953,0.707,0s0.1953,0.5117,0,0.707
		C22.2119,8.7783,21.7324,9.0781,21.0039,9.0781z"/>
	<path d="M0.6167,23.8447c-0.1279,0-0.2559-0.0488-0.3535-0.1465c-0.1953-0.1953-0.1953-0.5117,0-0.707l2.0093-2.0088
		c0.1953-0.1953,0.5117-0.1953,0.707,0s0.1953,0.5117,0,0.707l-2.0093,2.0088C0.8726,23.7959,0.7446,23.8447,0.6167,23.8447z"/>
	<path d="M12.96,11.5674c-0.1279,0-0.2559-0.0488-0.3535-0.1465c-0.1953-0.1953-0.1953-0.5117,0-0.707l0.5713-0.5713
		c0.1953-0.1953,0.5117-0.1953,0.707,0s0.1953,0.5117,0,0.707l-0.5713,0.5713C13.2158,11.5186,13.0879,11.5674,12.96,11.5674z"/>
</g>
<rect x="-0.0136" y="0.0002" fill="none" width="24" height="24"/>
</svg>
