<?xml version="1.0" encoding="utf-8"?>
<!-- Generator: Adobe Illustrator 18.1.0, SVG Export Plug-In . SVG Version: 6.00 Build 0)  -->
<svg version="1.1" id="Layer_1" xmlns="http://www.w3.org/2000/svg" xmlns:xlink="http://www.w3.org/1999/xlink" x="0px" y="0px"
	 width="24px" height="24px" viewBox="0 0 24 24" enable-background="new 0 0 24 24" xml:space="preserve">
<g>
	<path d="M15.4492,23.9766H8.4673c-0.2764,0-0.5-0.2236-0.5-0.5V6.5396c0-0.2764,0.2236-0.5,0.5-0.5h6.9819
		c0.2764,0,0.5,0.2236,0.5,0.5v16.937C15.9492,23.7529,15.7256,23.9766,15.4492,23.9766z M8.9673,22.9766h5.9819V7.0396H8.9673
		V22.9766z"/>
	<path d="M11.9561,13.0801c-1.166,0-2.1143-0.9482-2.1143-2.1138c0-1.166,0.9482-2.1143,2.1143-2.1143s2.1143,0.9482,2.1143,2.1143
		C14.0703,12.1318,13.1221,13.0801,11.9561,13.0801z M11.9561,9.8521c-0.6143,0-1.1143,0.5-1.1143,1.1143s0.5,1.1138,1.1143,1.1138
		s1.1143-0.4995,1.1143-1.1138S12.5703,9.8521,11.9561,9.8521z"/>
	<path d="M13.9375,4.7847c-0.1338,0-0.2666-0.0532-0.3652-0.1582c-0.4141-0.4419-0.9727-0.6855-1.5732-0.6855
		c-0.0005,0-0.0005,0-0.001,0c-0.6006,0.0005-1.1592,0.2437-1.5723,0.6855c-0.1895,0.2012-0.5059,0.21-0.707,0.0234
		c-0.2017-0.189-0.2119-0.5054-0.0234-0.707c0.605-0.6455,1.4224-1.0015,2.3027-1.002c0,0,0.0005,0,0.001,0
		c0.8799,0,1.6982,0.356,2.3037,1.002c0.1885,0.2012,0.1777,0.5176-0.0234,0.7065C14.1826,4.7397,14.0605,4.7847,13.9375,4.7847z"/>
	<path d="M7.7979,2.8511c-0.1245,0-0.249-0.0459-0.3457-0.1387c-0.1997-0.1909-0.2065-0.5078-0.0156-0.707
		c1.2061-1.2598,2.8262-1.9536,4.562-1.9536s3.3569,0.6938,4.563,1.9536c0.1904,0.1992,0.1836,0.5161-0.0156,0.707
		c-0.1992,0.1914-0.5156,0.1836-0.707-0.0156c-1.0156-1.061-2.3799-1.645-3.8403-1.645s-2.8242,0.5845-3.8394,1.645
		C8.061,2.7993,7.9292,2.8511,7.7979,2.8511z"/>
</g>
<rect fill="none" width="24" height="24"/>
</svg>
