<?xml version="1.0" encoding="utf-8"?>
<!-- Generator: Adobe Illustrator 18.1.0, SVG Export Plug-In . SVG Version: 6.00 Build 0)  -->
<svg version="1.1" id="Layer_1" xmlns="http://www.w3.org/2000/svg" xmlns:xlink="http://www.w3.org/1999/xlink" x="0px" y="0px"
	 width="24px" height="24px" viewBox="0 0 24 24" enable-background="new 0 0 24 24" xml:space="preserve">
<g>
	<path d="M12.4863,23.7275c-0.0918,0-0.1836-0.0254-0.2646-0.0752c-0.1465-0.0918-0.2354-0.252-0.2354-0.4248V11.6333
		c0-0.1909,0.1084-0.3647,0.2793-0.4487l11-5.397c0.1562-0.0757,0.3379-0.0669,0.4854,0.0244
		c0.1465,0.0913,0.2354,0.2515,0.2354,0.4243v11.5938c0,0.1904-0.1084,0.3652-0.2793,0.4492l-11,5.3975
		C12.6367,23.7109,12.5615,23.7275,12.4863,23.7275z M12.9863,11.9448v10.48l10-4.9062v-10.48L12.9863,11.9448z"/>
	<path d="M12.4863,23.7275c-0.0693,0-0.1396-0.0146-0.2051-0.0439l-12-5.3975c-0.1797-0.0811-0.2949-0.2588-0.2949-0.4561V6.2363
		c0-0.1694,0.0859-0.3276,0.2285-0.4199s0.3223-0.1045,0.4766-0.0361l12,5.397c0.1797,0.0806,0.2949,0.2593,0.2949,0.4561v11.5942
		c0,0.1699-0.0859,0.3281-0.2285,0.4199C12.6758,23.7002,12.5811,23.7275,12.4863,23.7275z M0.9863,17.5068l11,4.9473V11.9565
		l-11-4.9473V17.5068z"/>
	<path d="M12.4863,12.1328c-0.0703,0-0.1396-0.0137-0.2051-0.0439l-12-5.3965C0.1016,6.6113-0.0137,6.4326-0.0137,6.2358
		s0.1157-0.3755,0.2959-0.4561l12.0596-5.3979c0.1357-0.0605,0.292-0.0581,0.4258,0.0083L23.708,5.7881
		c0.1709,0.084,0.2783,0.2583,0.2783,0.4487s-0.1084,0.3643-0.2793,0.4482l-11,5.397
		C12.6367,12.1162,12.5615,12.1328,12.4863,12.1328z M1.7075,6.2373l10.77,4.8438l9.876-4.8462l-9.8184-4.8442L1.7075,6.2373z"/>
	<path d="M17.9834,9.4346c-0.0723,0-0.1455-0.0156-0.2148-0.0483L6.3838,3.9722c-0.249-0.1187-0.3555-0.417-0.2368-0.6665
		c0.1187-0.25,0.4165-0.3545,0.6665-0.2368l11.3848,5.4141c0.249,0.1187,0.3555,0.417,0.2363,0.6665
		C18.3496,9.3296,18.1699,9.4346,17.9834,9.4346z"/>
	<path d="M5.3833,11.519c-0.0713,0-0.144-0.0151-0.2134-0.0479l-2.6519-1.2534c-0.2495-0.1182-0.356-0.416-0.2383-0.666
		c0.1182-0.2495,0.4146-0.3579,0.666-0.2383l2.6519,1.2534c0.2495,0.1182,0.356,0.416,0.2383,0.666
		C5.7505,11.4136,5.5708,11.519,5.3833,11.519z"/>
	<path d="M5.3833,13.5059c-0.0713,0-0.144-0.0156-0.2129-0.0479l-2.6519-1.2529c-0.25-0.1182-0.3564-0.416-0.2388-0.6655
		c0.1182-0.249,0.416-0.3564,0.6655-0.2388l2.6519,1.2529c0.25,0.1182,0.3564,0.416,0.2388,0.666
		C5.7505,13.4004,5.5708,13.5059,5.3833,13.5059z"/>
</g>
<rect x="-0.0136" fill="none" width="24" height="24"/>
</svg>
