<?xml version="1.0" encoding="utf-8"?>
<!-- Generator: Adobe Illustrator 18.1.0, SVG Export Plug-In . SVG Version: 6.00 Build 0)  -->
<svg version="1.1" id="Layer_1" xmlns="http://www.w3.org/2000/svg" xmlns:xlink="http://www.w3.org/1999/xlink" x="0px" y="0px"
	 width="24px" height="24px" viewBox="0 0 24 24" enable-background="new 0 0 24 24" xml:space="preserve">
<g>
	<g>
		<g>
			<path d="M12.0889,6.1909c-0.2764,0-0.5-0.2236-0.5-0.5v-1c0-0.2764,0.2236-0.5,0.5-0.5s0.5,0.2236,0.5,0.5v1
				C12.5889,5.9673,12.3652,6.1909,12.0889,6.1909z"/>
			<path d="M12.0889,19.7451c-0.2764,0-0.5-0.2236-0.5-0.5v-1.8066c0-0.2764,0.2236-0.5,0.5-0.5s0.5,0.2236,0.5,0.5v1.8066
				C12.5889,19.5215,12.3652,19.7451,12.0889,19.7451z M12.0889,15.2275c-0.2764,0-0.5-0.2236-0.5-0.5v-1.8076
				c0-0.2764,0.2236-0.5,0.5-0.5s0.5,0.2236,0.5,0.5v1.8076C12.5889,15.0039,12.3652,15.2275,12.0889,15.2275z M12.0889,10.709
				c-0.2764,0-0.5-0.2236-0.5-0.5V8.4019c0-0.2764,0.2236-0.5,0.5-0.5s0.5,0.2236,0.5,0.5v1.8071
				C12.5889,10.4854,12.3652,10.709,12.0889,10.709z"/>
			<path d="M12.0889,23.4561c-0.2764,0-0.5-0.2236-0.5-0.5v-1c0-0.2764,0.2236-0.5,0.5-0.5s0.5,0.2236,0.5,0.5v1
				C12.5889,23.2324,12.3652,23.4561,12.0889,23.4561z"/>
		</g>
	</g>
	<path d="M7.5293,22H0.5151c-0.1694,0-0.3271-0.0859-0.4194-0.2275s-0.1064-0.3213-0.0376-0.4756L7.0723,5.5166
		c0.0962-0.2153,0.3257-0.3354,0.561-0.2861c0.231,0.0493,0.396,0.2529,0.396,0.4893V21.5C8.0293,21.7764,7.8057,22,7.5293,22z
		 M1.2847,21h5.7446V8.0757L1.2847,21z"/>
	<path d="M23.5303,22h-7.0146c-0.2764,0-0.5-0.2236-0.5-0.5V5.7197c0-0.2363,0.165-0.4399,0.3965-0.4893
		c0.2305-0.0493,0.4639,0.0708,0.5605,0.2861l7.0146,15.7803c0.0684,0.1543,0.0547,0.334-0.0381,0.4756
		C23.8574,21.9141,23.6992,22,23.5303,22z M17.0156,21h5.7451L17.0156,8.0757V21z"/>
	<path d="M15.6162,3.9336c-0.2168,0-0.416-0.1416-0.4805-0.3599c-0.459-1.5747-1.8965-2.2793-3.1172-2.2793
		c-1.0771,0-2.3857,0.541-2.8286,2.0596C9.1128,3.6191,8.8364,3.772,8.5698,3.6938C8.3047,3.6167,8.1528,3.3389,8.23,3.0737
		c0.4927-1.6885,1.9795-2.7793,3.7886-2.7793c1.5938,0,3.4727,0.9272,4.0781,2.999c0.0771,0.2651-0.0752,0.543-0.3408,0.6201
		C15.71,3.9272,15.6621,3.9336,15.6162,3.9336z"/>
	<path d="M15.6162,3.9336c-0.04,0-0.0801-0.0049-0.1201-0.0146l-1.7988-0.4434c-0.2676-0.0659-0.4316-0.3369-0.3652-0.605
		c0.0654-0.2676,0.3301-0.4346,0.6055-0.3657L15.25,2.8286l0.3232-1.3135c0.0654-0.2671,0.334-0.4346,0.6045-0.3657
		c0.2686,0.0659,0.4326,0.3364,0.3662,0.605l-0.4424,1.7988c-0.0312,0.1284-0.1133,0.2397-0.2266,0.3081
		C15.7959,3.9092,15.707,3.9336,15.6162,3.9336z"/>
</g>
<rect x="0.0293" y="0.0001" fill="none" width="24" height="24"/>
</svg>
